<?xml version="1.0" encoding="utf-8" standalone="no"?>
<!DOCTYPE svg PUBLIC "-//W3C//DTD SVG 1.1//EN"
  "http://www.w3.org/Graphics/SVG/1.1/DTD/svg11.dtd">
<svg xmlns:xlink="http://www.w3.org/1999/xlink" width="364.426405pt" height="280.512pt" viewBox="0 0 364.426405 280.512" xmlns="http://www.w3.org/2000/svg" version="1.1">
 <metadata>
  <rdf:RDF xmlns:dc="http://purl.org/dc/elements/1.1/" xmlns:cc="http://creativecommons.org/ns#" xmlns:rdf="http://www.w3.org/1999/02/22-rdf-syntax-ns#">
   <cc:Work>
    <dc:type rdf:resource="http://purl.org/dc/dcmitype/StillImage"/>
    <dc:date>2024-03-04T13:11:08.813762</dc:date>
    <dc:format>image/svg+xml</dc:format>
    <dc:creator>
     <cc:Agent>
      <dc:title>Matplotlib v3.8.0, https://matplotlib.org/</dc:title>
     </cc:Agent>
    </dc:creator>
   </cc:Work>
  </rdf:RDF>
 </metadata>
 <defs>
  <style type="text/css">*{stroke-linejoin: round; stroke-linecap: butt}</style>
 </defs>
 <g id="figure_1">
  <g id="patch_1">
   <path d="M 0 280.512 
L 364.426405 280.512 
L 364.426405 0 
L 0 0 
z
" style="fill: #ffffff"/>
  </g>
  <g id="axes_1">
   <g id="PatchCollection_1">
    <defs>
     <path id="mf41a8a8c31" d="M 333.585955 -222.560088 
L 333.697821 -222.400501 
L 333.738915 -222.220965 
L 333.713802 -222.026984 
L 333.627049 -221.82406 
L 333.476372 -220.977972 
L 333.122511 -220.87823 
L 332.688746 -221.248995 
L 332.289225 -221.822684 
L 332.216169 -221.901102 
L 332.133982 -221.965075 
L 331.700217 -222.099899 
L 331.227641 -222.068944 
L 330.309884 -221.82406 
L 329.736857 -221.364559 
L 327.892212 -220.232314 
L 326.812364 -219.378659 
L 326.282714 -219.191556 
L 324.830741 -219.366277 
L 324.47003 -219.278917 
L 324.152697 -219.042287 
L 324.008869 -218.67221 
L 323.901569 -217.75871 
L 323.689252 -217.490438 
L 322.385673 -217.073584 
L 321.74644 -217.077712 
L 321.091225 -217.319844 
L 320.433728 -217.480807 
L 318.625611 -218.59104 
L 317.940718 -218.864815 
L 316.589196 -219.108323 
L 315.240656 -219.164924 
L 315.229455 -219.165394 
L 315.224891 -219.165586 
L 315.188538 -219.167112 
L 313.655571 -219.231453 
L 310.767606 -218.753379 
L 310.050751 -218.864815 
L 309.365858 -218.961118 
L 307.904753 -218.768512 
L 306.845452 -218.844179 
L 305.742775 -218.468598 
L 305.425441 -218.430077 
L 305.098975 -218.469974 
L 304.452893 -218.637816 
L 303.754302 -218.709355 
L 300.455401 -218.369544 
L 300.096974 -218.241599 
L 299.567323 -217.886655 
L 299.307064 -217.765588 
L 299.003428 -217.779346 
L 298.320818 -218.048993 
L 297.772904 -217.919673 
L 297.238687 -217.643146 
L 296.594888 -217.468426 
L 294.642943 -217.372123 
L 292.798298 -217.636268 
L 291.33491 -217.535838 
L 289.912616 -217.207033 
L 288.8419 -216.674616 
L 287.458416 -215.53962 
L 286.994972 -215.418553 
L 285.983614 -215.481838 
L 285.074989 -215.191554 
L 284.097875 -215.133773 
L 282.14593 -214.70041 
L 281.175665 -214.29869 
L 280.817238 -214.052431 
L 280.732768 -213.71262 
L 281.063799 -213.199464 
L 281.219042 -212.761974 
L 280.833219 -212.544605 
L 279.550186 -212.369884 
L 278.99314 -212.193788 
L 278.73288 -212.056213 
L 278.54111 -211.830589 
L 278.579921 -211.610469 
L 278.67124 -211.384845 
L 278.641561 -211.144088 
L 278.285417 -210.813908 
L 277.379075 -210.600666 
L 276.920197 -210.350279 
L 276.564053 -209.992583 
L 275.516167 -209.406512 
L 275.212531 -209.160252 
L 274.945422 -208.885102 
L 274.66005 -208.647096 
L 274.303906 -208.5164 
L 272.87248 -208.4256 
L 272.418168 -208.140819 
L 272.447846 -207.298858 
L 272.822254 -206.576588 
L 272.886178 -206.212013 
L 272.625918 -205.917602 
L 272.278906 -205.792409 
L 271.927328 -205.773148 
L 271.603145 -205.901093 
L 270.952497 -206.580715 
L 269.680879 -207.414422 
L 269.235698 -207.594645 
L 268.82248 -207.551997 
L 268.60788 -207.322246 
L 268.343055 -206.500922 
L 268.158133 -206.071687 
L 267.980061 -205.788281 
L 267.425298 -205.254489 
L 267.315715 -204.848642 
L 267.546296 -204.438668 
L 267.67186 -204.089226 
L 267.24266 -203.860851 
L 266.70616 -203.752167 
L 266.290659 -203.603585 
L 265.920817 -203.361453 
L 264.234839 -201.520695 
L 263.786234 -201.179508 
L 262.387911 -200.700746 
L 262.273762 -200.526026 
L 262.164179 -199.959215 
L 262.011219 -199.708828 
L 261.803469 -199.564374 
L 261.132273 -199.250703 
L 260.265884 -198.699025 
L 260.147169 -198.503669 
L 260.035303 -197.938234 
L 259.924579 -197.69335 
L 259.21229 -196.988964 
L 259.003398 -196.577614 
L 259.091626 -196.180776 
L 259.114122 -196.079591 
L 259.356118 -195.862223 
L 260.150594 -195.432987 
L 260.461078 -195.200485 
L 261.024974 -194.603408 
L 261.618547 -194.361276 
L 262.2418 -194.226452 
L 262.883316 -193.956804 
L 263.210924 -193.578472 
L 263.305667 -192.706245 
L 263.540814 -192.303149 
L 264.54304 -191.602891 
L 264.859233 -191.199795 
L 265.596634 -189.895581 
L 265.740461 -189.502116 
L 265.765574 -189.236595 
L 265.742744 -189.006845 
L 265.745027 -188.766088 
L 265.843195 -188.466174 
L 265.971042 -188.281823 
L 266.297508 -188.028684 
L 266.443618 -187.881478 
L 266.722141 -187.413722 
L 266.820309 -186.941839 
L 266.692463 -186.457574 
L 266.292942 -185.952673 
L 266.014419 -185.41888 
L 266.222169 -184.966258 
L 266.665067 -184.612689 
L 267.881893 -184.025242 
L 268.242604 -183.758346 
L 268.448072 -183.363505 
L 268.434374 -182.853101 
L 268.283697 -182.371587 
L 268.187812 -181.866686 
L 268.322508 -181.275112 
L 268.446568 -181.096285 
L 268.60788 -180.863762 
L 268.900101 -180.537708 
L 269.087305 -180.175885 
L 269.05306 -179.657226 
L 268.836178 -179.266512 
L 267.758613 -178.337879 
L 267.080569 -177.468403 
L 267.041758 -176.748884 
L 267.438996 -176.076141 
L 268.662671 -174.685254 
L 269.336149 -174.145959 
L 269.429751 -173.788263 
L 269.237981 -173.266853 
L 268.683218 -172.416637 
L 267.155907 -171.36281 
L 266.580597 -170.655673 
L 266.548635 -169.489035 
L 266.669633 -169.220763 
L 266.633105 -168.970376 
L 266.477863 -168.754382 
L 266.23815 -168.582413 
L 266.235867 -168.582413 
L 266.235867 -168.579662 
L 266.060078 -168.299008 
L 265.868308 -167.681295 
L 265.710783 -167.399266 
L 265.498466 -167.212163 
L 265.173328 -167.081242 
L 262.515757 -166.011131 
L 261.732696 -165.411302 
L 261.320619 -164.592729 
L 260.985022 -163.686108 
L 259.824128 -162.033828 
L 259.525058 -161.738041 
L 258.672366 -161.292297 
L 257.118801 -160.030732 
L 256.88822 -159.719812 
L 256.8574 -159.312589 
L 257.022916 -158.718263 
L 257.10282 -158.166586 
L 257.029765 -157.517231 
L 256.792335 -156.983439 
L 256.388248 -156.788082 
L 255.49218 -156.927033 
L 255.025312 -156.922905 
L 254.970731 -156.898138 
L 254.646337 -156.750936 
L 254.388361 -156.279053 
L 254.358682 -155.69367 
L 254.481963 -155.097281 
L 254.69428 -154.59857 
L 255.150875 -153.911382 
L 255.776411 -153.149215 
L 256.463587 -152.49298 
L 258.034274 -151.61525 
L 258.130159 -150.960391 
L 257.482936 -149.103125 
L 257.47837 -148.620923 
L 257.691828 -147.690226 
L 257.756893 -147.152994 
L 257.726073 -146.514645 
L 257.586811 -146.157637 
L 256.970407 -145.4505 
L 256.724987 -144.919459 
L 256.748959 -144.483345 
L 256.824297 -144.059614 
L 256.721563 -143.560215 
L 256.369985 -143.230722 
L 255.287854 -143.003035 
L 254.833541 -142.845511 
L 254.581273 -142.483688 
L 254.322155 -142.244307 
L 254.007104 -142.140438 
L 253.598451 -142.17552 
L 253.003736 -142.365374 
L 252.783429 -142.303465 
L 252.687544 -141.962966 
L 252.294872 -141.178099 
L 250.72875 -140.87956 
L 247.743758 -140.911202 
L 244.779313 -140.484031 
L 244.105835 -140.508107 
L 242.282879 -140.90226 
L 240.498732 -140.978614 
L 240.094646 -141.095553 
L 239.336697 -141.481452 
L 238.083343 -141.601831 
L 233.311923 -143.281625 
L 232.566531 -143.333216 
L 231.394222 -143.150929 
L 230.802931 -142.946629 
L 230.435372 -142.574488 
L 230.38743 -142.151444 
L 230.462768 -141.751788 
L 230.421674 -141.357634 
L 230.029002 -140.953851 
L 229.739064 -140.566576 
L 229.87376 -140.171047 
L 230.520984 -139.521692 
L 230.718461 -139.172938 
L 231.012965 -138.162448 
L 231.207018 -137.739404 
L 231.732103 -136.962791 
L 231.926156 -136.56451 
L 232.083681 -136.045164 
L 232.310837 -135.532008 
L 232.645293 -135.322893 
L 233.171444 -135.249692 
L 233.510542 -135.202515 
L 234.697689 -134.688671 
L 235.638276 -134.855825 
L 235.858583 -134.56898 
L 236.044645 -133.515841 
L 236.177058 -133.102428 
L 236.272943 -132.96554 
L 236.473845 -132.794947 
L 236.839121 -132.618162 
L 237.009203 -132.496408 
L 237.094815 -132.321688 
L 237.081117 -131.676459 
L 236.629087 -129.995977 
L 236.59256 -129.493139 
L 236.672464 -128.980671 
L 236.866517 -128.502597 
L 237.172436 -128.09675 
L 237.345942 -127.978435 
L 237.962346 -127.775511 
L 238.118729 -127.633809 
L 238.281962 -127.20595 
L 238.396111 -127.010593 
L 239.560429 -125.68643 
L 239.910866 -124.858915 
L 239.753341 -123.984624 
L 236.005835 -120.792188 
L 235.576635 -120.546616 
L 235.09721 -120.585825 
L 234.569843 -120.766049 
L 234.309583 -120.660116 
L 233.569899 -119.241027 
L 233.400959 -119.002334 
L 233.132709 -118.883331 
L 232.492334 -118.938361 
L 232.273168 -118.892961 
L 230.619152 -117.869401 
L 229.686556 -117.800613 
L 228.20947 -118.549023 
L 227.351071 -118.403193 
L 226.313458 -117.643777 
L 225.910513 -117.543347 
L 225.711894 -117.581181 
L 225.522407 -117.672668 
L 225.312373 -117.735953 
L 224.597802 -117.598378 
L 224.143489 -117.610759 
L 223.25427 -117.490381 
L 222.51801 -117.002676 
L 221.933568 -116.248764 
L 221.721471 -115.79558 
L 221.508934 -115.341454 
L 221.922153 -112.455124 
L 221.702987 -111.681951 
L 221.573999 -111.559509 
L 221.002114 -111.11858 
L 220.461048 -110.350222 
L 219.712232 -109.778597 
L 219.472519 -109.420213 
L 219.51133 -108.89949 
L 219.625479 -108.690376 
L 219.784146 -108.515655 
L 219.977057 -108.384271 
L 220.166544 -108.303789 
L 220.319504 -108.187538 
L 220.376578 -107.98599 
L 220.417672 -107.518922 
L 220.63912 -106.637752 
L 220.570631 -106.311011 
L 220.303523 -105.788912 
L 219.139205 -104.005249 
L 218.748816 -103.67438 
L 217.833342 -103.347639 
L 217.388162 -103.055291 
L 216.716967 -102.196821 
L 216.303748 -101.188394 
L 216.196448 -100.087104 
L 216.429312 -98.941789 
L 217.001197 -97.453224 
L 217.082243 -96.893293 
L 217.05713 -96.314101 
L 216.903029 -95.175665 
L 216.892756 -94.049611 
L 216.723816 -92.924245 
L 216.705552 -92.34918 
L 217.138176 -89.8288 
L 217.834484 -87.803692 
L 217.8927 -87.458378 
L 217.812401 -87.30774 
L 217.761429 -87.212118 
L 216.703269 -86.396296 
L 216.102846 -85.72768 
L 213.685174 -81.889329 
L 213.370123 -81.523378 
L 213.032243 -81.304634 
L 212.742305 -80.827247 
L 212.045997 -80.168262 
L 211.249238 -79.582191 
L 210.657947 -79.326301 
L 209.856623 -79.384082 
L 209.105523 -79.135071 
L 207.703776 -78.394916 
L 206.827113 -78.290359 
L 206.240388 -78.716842 
L 205.22218 -80.232922 
L 204.653719 -80.918047 
L 204.487062 -81.308761 
L 204.420856 -82.3846 
L 204.274745 -82.710653 
L 203.998505 -82.872992 
L 202.754283 -83.10687 
L 201.464401 -83.860783 
L 200.722434 -84.157946 
L 200.228169 -84.149691 
L 199.706509 -83.963965 
L 198.749942 -83.441178 
L 198.320743 -83.094489 
L 198.397222 -82.83172 
L 198.780762 -82.656999 
L 199.263612 -82.577205 
L 200.585455 -82.608848 
L 201.012372 -82.548315 
L 201.215557 -82.308934 
L 200.929043 -81.976001 
L 200.45076 -81.68159 
L 200.071786 -81.556397 
L 199.253339 -81.695348 
L 196.936117 -82.548315 
L 196.062879 -82.619854 
L 195.188499 -82.577205 
L 194.704508 -82.651496 
L 194.430551 -82.93215 
L 194.202253 -83.284342 
L 193.639499 -83.756226 
L 193.152084 -84.031376 
L 192.585906 -84.236364 
L 192.131594 -84.203346 
L 191.848504 -83.852529 
L 191.379353 -82.714781 
L 191.243204 -82.458245 
L 191.136216 -82.256655 
L 190.406805 -81.564651 
L 190.298363 -81.32527 
L 190.225308 -80.762587 
L 190.099744 -80.575485 
L 188.939992 -79.910996 
L 188.57015 -79.602827 
L 188.321306 -79.239628 
L 188.081593 -79.10618 
L 187.186667 -79.056653 
L 186.515471 -79.170841 
L 186.214119 -79.158459 
L 185.596573 -78.847539 
L 184.237061 -77.268174 
L 183.510672 -76.741567 
L 183.033932 -76.395947 
L 182.362737 -76.113917 
L 181.681269 -76.042378 
L 180.246418 -76.371183 
L 179.55011 -76.354674 
L 179.26588 -75.884166 
L 179.42683 -75.486574 
L 179.751012 -75.083478 
L 180.038667 -74.622601 
L 180.168797 -73.581156 
L 180.488414 -73.184939 
L 180.929028 -72.900158 
L 181.365077 -72.772213 
L 183.201731 -73.023976 
L 183.99849 -72.755704 
L 184.102365 -71.639968 
L 183.874068 -71.141945 
L 183.536187 -70.980982 
L 182.643543 -71.015376 
L 182.285116 -70.906691 
L 181.979197 -70.676941 
L 181.691542 -70.40179 
L 180.282946 -69.466278 
L 179.874293 -69.309442 
L 178.693994 -69.081067 
L 177.878972 -68.716492 
L 176.56626 -68.533517 
L 175.035524 -67.858022 
L 174.629155 -67.779605 
L 173.214851 -67.913053 
L 172.068797 -67.855271 
L 171.70352 -67.899295 
L 171.249208 -68.065761 
L 170.443317 -68.52939 
L 170.002703 -68.666965 
L 169.56323 -68.646329 
L 168.715104 -68.426209 
L 168.267641 -68.434463 
L 167.76082 -68.52939 
L 167.486863 -68.621565 
L 167.319064 -68.761892 
L 167.288244 -68.975134 
L 167.37728 -69.136097 
L 167.499419 -69.299812 
L 167.555352 -69.517181 
L 167.509693 -70.11013 
L 167.353309 -70.478832 
L 167.027985 -70.65768 
L 165.728971 -70.627414 
L 164.903675 -70.382529 
L 163.414033 -69.623114 
L 162.754253 -69.030164 
L 162.239441 -68.41933 
L 161.669839 -67.966707 
L 160.825138 -67.847016 
L 160.288638 -67.461806 
L 159.539822 -64.461288 
L 159.117471 -63.850454 
L 157.042246 -61.635491 
L 156.544557 -61.40574 
L 153.558424 -60.77427 
L 153.184015 -60.563779 
L 152.983113 -60.195077 
L 150.812003 -51.636517 
L 150.744655 -50.476757 
L 151.120205 -49.420179 
L 151.654421 -48.70066 
L 151.823361 -48.359473 
L 151.947784 -47.814675 
L 152.001434 -47.269877 
L 151.585932 -43.753452 
L 151.636157 -42.142445 
L 151.539131 -41.63204 
L 150.113412 -38.597129 
L 149.790371 -37.588702 
L 149.736721 -37.166346 
L 149.867992 -36.80865 
L 150.645346 -36.241839 
L 151.55397 -35.273309 
L 152.234297 -34.723008 
L 152.414652 -34.469869 
L 152.332465 -34.348803 
L 152.147544 -34.282767 
L 152.015131 -34.202973 
L 151.558536 -33.381649 
L 150.971811 -32.568578 
L 149.213919 -31.242352 
L 147.332747 -30.664536 
L 146.049714 -30.271071 
L 144.766681 -29.87623 
L 143.481366 -29.48414 
L 142.202899 -29.089987 
L 140.919866 -28.697209 
L 139.636833 -28.302368 
L 138.354942 -27.90959 
L 137.069626 -27.515437 
L 135.787735 -27.121972 
L 134.504702 -26.727131 
L 133.223952 -26.333665 
L 131.94092 -25.9402 
L 130.662453 -25.547422 
L 129.377137 -25.153957 
L 128.094104 -24.759804 
L 126.811072 -24.367714 
L 123.606914 -23.38405 
L 122.507661 -23.421196 
L 118.834352 -24.122142 
L 115.820823 -24.146906 
L 111.747387 -24.183819 
L 111.266285 -24.188178 
L 105.303151 -22.314402 
L 104.526939 -21.896861 
L 104.022401 -21.208985 
L 103.218793 -19.553954 
L 102.616087 -19.296 
L 100.095681 -20.439939 
L 96.0297 -21.265391 
L 91.185224 -22.247678 
L 87.813268 -21.914746 
L 86.727713 -21.807437 
L 85.64444 -21.700129 
L 84.560027 -21.59282 
L 83.477896 -21.484135 
L 82.395765 -21.376827 
L 81.311351 -21.270894 
L 80.22922 -21.163585 
L 79.147089 -21.0549 
L 78.062676 -20.947592 
L 76.980545 -20.840971 
L 75.896131 -20.732974 
L 74.814 -20.627041 
L 73.730728 -20.518357 
L 72.647455 -20.411048 
L 71.565325 -20.303739 
L 70.482052 -20.19643 
L 69.846579 -20.133657 
L 67.083842 -19.860747 
L 64.807714 -20.314745 
L 62.708518 -21.023258 
L 60.871863 -21.647162 
L 59.031784 -22.267627 
L 57.190563 -22.890843 
L 55.35505 -23.514059 
L 53.514971 -24.134524 
L 51.674892 -24.758428 
L 49.834813 -25.381644 
L 47.997017 -26.002109 
L 46.159221 -26.623949 
L 44.319142 -27.248541 
L 42.481346 -27.869006 
L 40.641267 -28.491534 
L 38.803471 -29.112687 
L 36.965675 -29.735215 
L 35.123313 -30.359119 
L 33.285517 -30.980959 
L 31.70798 -31.513376 
L 31.00939 -31.850435 
L 32.285573 -33.413291 
L 33.963561 -35.470042 
L 33.97041 -35.476921 
L 37.385743 -39.733501 
L 39.209841 -42.007621 
L 40.458629 -43.567725 
L 42.848905 -46.548982 
L 44.645608 -48.79146 
L 47.175146 -51.969449 
L 49.967226 -55.473493 
L 51.791324 -57.759994 
L 52.168015 -58.176848 
L 52.113224 -58.31855 
L 52.083545 -58.347441 
L 52.115507 -58.827579 
L 52.170298 -59.014681 
L 52.302711 -59.091723 
L 52.218241 -60.910469 
L 52.122356 -61.221389 
L 52.544706 -62.086738 
L 52.702232 -62.64667 
L 52.699949 -63.169456 
L 52.592649 -63.699121 
L 52.323258 -64.568597 
L 51.937435 -65.414685 
L 51.882643 -65.691211 
L 51.846116 -66.471263 
L 51.658912 -67.069716 
L 51.067621 -68.08227 
L 50.853021 -68.625693 
L 50.843889 -69.155358 
L 50.996848 -70.298609 
L 50.843889 -70.791128 
L 50.053979 -71.828446 
L 49.620214 -72.18339 
L 49.051752 -72.415893 
L 47.838666 -72.597761 
L 45.289407 -72.979951 
L 40.958601 -73.633434 
L 37.211358 -74.198991 
L 37.175709 -74.204372 
L 33.475004 -74.762927 
L 31.244536 -75.099987 
L 30.509418 -75.417786 
L 30.249158 -77.912026 
L 29.918127 -79.198356 
L 29.865618 -79.821572 
L 30.146425 -81.788899 
L 29.840506 -84.252873 
L 29.792563 -85.541953 
L 29.956937 -87.187354 
L 29.918127 -87.76517 
L 29.831374 -88.049951 
L 29.721791 -88.311344 
L 29.676131 -88.585119 
L 29.865618 -89.17119 
L 29.735489 -89.321147 
L 29.550568 -89.431208 
L 29.475229 -89.594922 
L 29.646453 -90.003521 
L 30.224046 -90.765688 
L 30.356458 -91.210056 
L 30.653245 -93.328716 
L 30.698905 -95.496903 
L 29.947806 -98.346088 
L 28.975258 -102.037922 
L 28.078048 -105.118921 
L 27.265308 -107.922018 
L 26.495945 -110.582036 
L 25.747129 -113.160198 
L 25.114744 -115.34283 
L 24.792845 -117.044637 
L 24.760883 -119.148851 
L 24.895579 -119.520993 
L 25.964012 -120.98273 
L 27.164857 -122.620564 
L 28.240139 -124.093308 
L 29.080275 -125.246189 
L 29.717225 -125.817127 
L 30.440928 -126.272501 
L 30.671509 -126.575855 
L 30.79479 -127.107583 
L 30.753696 -127.565709 
L 30.676075 -128.009389 
L 30.739998 -128.391849 
L 31.130387 -128.654618 
L 32.178274 -128.725469 
L 32.504739 -128.845159 
L 32.675123 -129.139295 
L 32.698792 -129.180155 
L 32.502456 -129.561927 
L 32.130331 -129.899674 
L 31.787885 -130.101222 
L 31.045917 -130.2897 
L 30.192084 -130.352985 
L 28.568888 -130.264937 
L 26.838392 -130.399073 
L 25.055387 -131.141979 
L 23.662771 -132.488842 
L 23.112574 -134.432093 
L 23.290646 -135.303633 
L 23.973256 -136.848603 
L 24.021199 -137.894864 
L 23.388814 -141.962966 
L 23.147465 -144.270345 
L 23.110291 -144.625736 
L 23.242704 -145.817138 
L 23.863673 -147.071137 
L 24.559981 -147.974319 
L 25.33391 -148.778447 
L 26.384079 -149.336315 
L 26.728809 -149.712583 
L 26.575849 -150.279393 
L 28.137405 -150.372257 
L 30.381571 -150.509144 
L 32.027597 -150.606135 
L 31.77647 -151.104845 
L 30.137293 -153.230384 
L 29.787997 -153.922388 
L 29.573397 -154.231244 
L 29.306289 -154.472689 
L 28.765224 -154.720325 
L 28.568888 -154.906051 
L 28.379401 -155.540961 
L 28.237856 -155.723937 
L 28.048369 -155.82987 
L 27.813223 -155.863576 
L 28.137405 -156.423507 
L 28.687603 -156.705536 
L 29.89758 -156.867875 
L 30.447777 -157.02196 
L 30.87926 -157.314995 
L 31.881487 -158.454119 
L 31.993352 -158.665985 
L 32.13718 -158.843457 
L 32.433967 -159.012674 
L 32.742169 -159.062202 
L 33.029824 -159.038814 
L 33.2878 -159.100723 
L 33.518381 -159.404764 
L 33.607417 -160.052744 
L 33.534362 -160.74062 
L 33.561757 -161.36934 
L 33.961278 -161.832968 
L 34.659869 -162.375015 
L 35.089069 -163.139934 
L 35.214632 -163.580175 
L 35.892676 -163.805798 
L 36.068465 -164.683529 
L 36.16435 -165.624544 
L 36.14837 -165.855671 
L 36.050202 -166.350942 
L 36.027372 -166.623341 
L 36.098144 -166.957649 
L 36.410912 -167.458423 
L 36.479401 -167.712937 
L 36.552456 -168.232972 
L 36.874356 -169.231769 
L 37.006769 -170.332371 
L 37.166577 -170.713455 
L 37.700794 -171.456362 
L 37.46793 -171.698494 
L 37.433685 -171.917239 
L 37.493043 -172.153869 
L 37.536419 -172.456534 
L 37.474779 -172.569346 
L 36.689435 -173.616294 
L 36.575286 -173.881814 
L 36.707699 -174.001505 
L 36.929148 -174.117068 
L 36.938279 -174.372958 
L 36.83098 -174.628848 
L 36.707699 -174.744412 
L 36.691718 -175.003053 
L 36.709982 -175.571239 
L 36.840111 -176.13805 
L 37.157445 -176.396691 
L 37.627738 -176.407697 
L 38.155106 -176.495745 
L 38.57974 -176.735126 
L 38.755529 -177.20701 
L 38.652795 -178.57726 
L 38.755529 -179.123434 
L 38.883375 -179.417845 
L 39.34682 -180.032807 
L 39.467817 -180.305206 
L 39.659587 -181.140288 
L 39.903866 -181.652068 
L 40.422101 -182.273909 
L 40.716605 -182.776059 
L 40.853584 -183.329111 
L 40.798793 -183.867031 
L 40.565929 -184.956627 
L 40.403838 -185.204263 
L 40.705191 -185.314323 
L 41.86266 -185.534444 
L 42.049864 -185.534444 
L 42.211955 -185.451898 
L 42.419706 -185.271675 
L 42.401442 -185.201511 
L 42.211955 -184.901597 
L 42.485912 -184.664968 
L 42.520157 -184.671846 
L 42.568099 -184.658089 
L 42.917395 -184.351296 
L 42.926527 -184.235733 
L 42.839774 -183.9482 
L 42.846622 -183.842267 
L 42.992733 -183.634529 
L 43.131995 -183.476317 
L 43.310067 -183.375887 
L 43.561194 -183.33599 
L 43.70911 -183.271275 
L 43.894509 -183.19016 
L 45.330501 -181.894201 
L 46.346425 -180.779841 
L 47.805247 -180.202024 
L 50.784532 -179.753529 
L 52.097243 -179.852583 
L 54.754628 -180.767459 
L 56.044509 -180.742695 
L 56.700865 -180.423521 
L 57.283024 -180.025928 
L 59.547737 -177.826099 
L 60.15615 -177.421627 
L 61.374118 -176.891962 
L 61.6983 -176.55903 
L 61.933447 -176.140801 
L 62.085265 -175.670294 
L 62.116085 -175.202537 
L 62.079558 -174.125323 
L 62.209687 -173.720851 
L 62.62633 -172.7592 
L 62.858052 -172.482674 
L 63.207348 -172.665649 
L 65.35677 -175.551979 
L 66.075908 -176.209589 
L 66.672906 -176.242607 
L 68.123738 -174.919132 
L 68.364592 -174.791187 
L 68.58604 -174.809072 
L 68.805206 -174.872357 
L 69.042636 -174.881987 
L 69.693284 -174.610964 
L 69.88962 -174.579321 
L 70.254896 -174.667369 
L 71.857546 -175.351119 
L 72.188577 -175.55473 
L 72.476232 -175.831257 
L 72.754755 -176.21234 
L 73.334631 -176.790157 
L 74.716844 -177.457536 
L 74.816283 -177.505548 
L 76.818453 -179.072531 
L 78.300105 -179.775541 
L 78.747569 -179.877347 
L 79.665325 -179.955765 
L 80.101374 -180.068576 
L 80.397019 -180.373994 
L 80.530573 -180.869265 
L 80.624175 -181.877692 
L 80.85019 -182.71415 
L 80.772569 -182.993428 
L 80.405009 -183.287839 
L 80.334237 -183.613892 
L 80.280587 -184.973136 
L 80.318256 -185.369353 
L 80.90384 -185.937539 
L 82.59895 -186.480962 
L 83.21307 -186.926706 
L 83.3432 -187.168838 
L 83.361464 -187.354565 
L 83.249598 -187.493516 
L 82.687986 -187.702631 
L 82.540734 -187.823697 
L 82.231391 -188.233671 
L 81.100176 -189.23522 
L 80.959773 -189.580534 
L 80.862746 -190.051041 
L 80.642439 -190.390852 
L 80.48948 -190.730663 
L 80.583082 -191.191541 
L 80.924387 -191.539606 
L 81.392397 -191.640036 
L 86.200345 -191.534103 
L 88.128319 -191.927568 
L 89.914748 -192.747517 
L 90.242355 -193.036426 
L 90.765157 -193.73806 
L 91.071075 -194.046228 
L 91.483153 -194.270476 
L 91.929474 -194.366779 
L 94.655348 -194.531869 
L 95.543426 -194.756117 
L 97.618652 -195.948895 
L 98.280715 -196.149755 
L 98.645212 -196.20555 
L 98.990721 -196.258439 
L 99.609407 -196.129119 
L 101.710887 -195.327055 
L 101.72116 -195.661363 
L 101.517976 -196.920177 
L 101.514551 -197.394811 
L 101.700614 -197.818543 
L 101.979137 -198.162482 
L 103.4391 -199.249327 
L 104.219878 -199.627659 
L 105.04175 -199.777616 
L 105.952657 -199.631786 
L 106.319075 -199.483205 
L 106.593032 -199.41992 
L 106.812198 -199.600144 
L 107.161493 -200.67048 
L 107.421753 -200.992406 
L 107.759633 -201.211151 
L 108.16372 -201.376241 
L 109.790341 -201.746319 
L 110.534591 -202.015966 
L 111.266285 -202.592407 
L 111.718314 -203.11932 
L 113.452235 -205.733251 
L 113.843765 -206.65363 
L 114.097176 -207.635918 
L 114.19991 -208.696624 
L 114.139411 -209.248301 
L 113.828926 -210.264982 
L 113.725051 -210.808405 
L 113.720485 -211.346324 
L 113.791257 -211.89525 
L 114.074346 -212.946325 
L 114.439622 -213.799292 
L 116.807383 -218.005002 
L 117.617525 -219.444007 
L 117.916595 -220.345125 
L 117.825276 -221.386571 
L 117.405209 -223.410991 
L 117.50566 -224.448997 
L 117.916595 -225.125868 
L 118.560395 -225.590872 
L 122.562452 -227.671699 
L 124.197064 -228.192421 
L 133.581287 -228.425771 
L 133.879167 -228.433178 
L 134.662228 -228.828019 
L 135.685001 -230.184512 
L 136.305971 -230.796722 
L 136.58906 -231.171615 
L 136.707774 -231.711598 
L 136.695218 -232.30042 
L 136.52057 -233.441608 
L 136.625587 -234.037997 
L 136.847036 -234.604807 
L 137.120993 -235.130345 
L 137.123276 -235.133096 
L 137.124418 -235.138599 
L 137.353857 -235.567834 
L 137.577588 -235.841609 
L 137.84698 -235.997069 
L 138.228237 -236.077551 
L 139.136861 -236.06792 
L 139.429082 -236.302486 
L 139.566061 -237.001369 
L 139.623135 -237.381077 
L 139.95645 -237.235247 
L 140.397064 -237.14032 
L 140.570571 -237.033011 
L 140.940413 -236.230947 
L 141.117343 -235.976433 
L 141.271444 -235.804464 
L 141.693795 -235.505925 
L 146.65242 -233.720198 
L 147.054224 -233.388641 
L 147.667203 -232.597583 
L 148.049601 -232.234384 
L 148.494782 -232.017015 
L 148.750475 -231.97987 
L 149.481028 -232.017015 
L 149.718457 -231.961297 
L 150.028942 -231.711598 
L 150.235551 -231.655192 
L 150.433669 -231.55797 
L 150.585988 -231.483223 
L 150.953547 -231.122088 
L 151.396445 -230.800849 
L 151.976321 -230.745819 
L 153.499066 -231.225957 
L 154.026434 -231.291305 
L 154.250165 -231.18606 
L 154.582338 -230.712801 
L 154.856296 -230.580729 
L 155.085735 -230.620626 
L 155.272939 -230.762328 
L 155.610819 -231.125527 
L 156.001208 -231.451581 
L 156.369909 -231.67858 
L 156.799109 -231.809276 
L 157.364145 -231.851925 
L 157.893796 -231.792767 
L 159.353759 -231.198442 
L 159.626575 -231.149603 
L 160.224715 -231.125527 
L 160.459861 -231.20876 
L 160.894768 -231.571271 
L 161.127632 -231.655192 
L 164.016739 -231.778322 
L 166.046305 -232.238511 
L 167.112455 -232.216499 
L 167.514259 -232.032836 
L 168.39777 -231.42269 
L 168.861215 -231.291305 
L 169.132889 -231.050549 
L 169.498165 -229.894916 
L 169.705916 -229.489757 
L 170.151096 -229.220797 
L 171.130493 -228.858286 
L 171.575674 -228.464821 
L 171.797122 -228.006695 
L 171.958072 -227.512799 
L 172.211483 -227.105576 
L 172.705747 -226.912283 
L 173.19887 -227.005834 
L 174.041288 -227.53206 
L 174.607466 -227.654502 
L 175.143966 -227.698526 
L 175.622249 -227.829223 
L 176.066288 -228.050719 
L 176.50462 -228.366454 
L 177.230606 -229.072216 
L 177.636976 -229.367315 
L 178.095854 -229.489757 
L 178.603817 -229.248312 
L 179.02046 -228.147022 
L 179.382312 -227.837477 
L 179.620883 -227.92415 
L 179.792106 -228.177288 
L 179.926801 -228.442121 
L 180.064922 -228.563875 
L 180.295502 -228.592766 
L 180.716711 -228.716583 
L 180.967839 -228.74685 
L 181.221249 -228.671184 
L 181.702957 -228.319679 
L 181.947236 -228.200676 
L 182.2269 -228.166282 
L 183.015669 -228.200676 
L 183.473405 -228.090616 
L 183.863794 -227.863616 
L 184.122912 -227.508672 
L 184.223363 -227.011337 
L 184.033876 -225.310219 
L 184.057847 -224.91125 
L 184.329522 -224.553554 
L 184.830635 -224.199298 
L 185.379691 -223.928962 
L 186.378493 -223.698524 
L 186.684412 -223.368343 
L 186.917275 -222.898523 
L 187.268854 -222.350974 
L 187.508566 -222.149426 
L 188.031368 -221.883218 
L 188.227704 -221.715376 
L 188.986793 -220.806003 
L 189.115782 -220.585194 
L 189.204818 -220.350629 
L 189.316684 -220.14289 
L 189.517586 -220.004627 
L 189.619194 -220.000325 
L 189.793826 -219.992933 
L 190.058651 -220.098866 
L 190.284666 -220.24332 
L 191.74577 -221.45811 
L 192.017445 -221.624576 
L 192.42838 -221.791042 
L 192.7811 -222.145298 
L 193.188612 -222.470664 
L 193.766205 -222.549082 
L 194.675971 -222.255359 
L 195.206763 -222.251231 
L 195.439626 -222.633003 
L 195.291233 -223.752866 
L 195.272969 -224.290098 
L 195.439626 -224.731027 
L 195.858553 -225.024062 
L 196.286611 -224.99242 
L 196.71581 -224.829393 
L 197.151859 -224.731027 
L 197.727169 -224.790184 
L 198.159793 -225.001362 
L 198.304762 -225.398267 
L 197.98857 -226.020107 
L 199.359497 -226.119161 
L 200.409666 -226.348912 
L 200.64253 -226.366797 
L 200.838866 -226.48236 
L 201.143643 -226.99414 
L 201.252084 -227.111079 
L 201.692699 -227.166797 
L 202.519136 -227.416497 
L 202.918657 -227.474278 
L 203.004269 -227.675826 
L 203.128691 -228.104373 
L 203.398082 -228.488896 
L 203.898054 -228.563875 
L 203.770207 -228.888553 
L 203.708567 -229.004116 
L 203.59556 -229.109361 
L 203.845546 -229.392078 
L 204.245067 -229.411339 
L 205.105749 -229.291648 
L 205.561202 -229.337048 
L 205.849999 -229.310909 
L 206.107975 -229.19053 
L 206.929847 -228.68219 
L 207.192389 -228.662929 
L 207.285991 -228.921571 
L 207.228917 -229.489757 
L 206.967516 -230.291821 
L 207.04742 -230.593111 
L 207.533694 -230.745819 
L 207.995997 -230.633008 
L 208.244841 -230.293197 
L 208.44346 -229.866025 
L 208.736823 -229.489757 
L 209.055298 -229.34943 
L 209.300718 -229.412714 
L 209.418291 -229.649344 
L 209.34067 -230.034555 
L 209.237936 -230.150118 
L 208.879509 -230.40876 
L 208.736823 -230.580729 
L 208.621532 -230.897152 
L 208.683173 -230.9852 
L 208.811019 -230.959061 
L 208.888641 -230.927419 
L 210.396547 -230.745819 
L 210.833737 -230.511941 
L 211.2812 -230.1171 
L 211.624788 -229.649344 
L 211.950112 -228.680814 
L 212.388443 -228.295603 
L 212.89184 -227.977804 
L 213.290219 -227.654502 
L 213.685174 -226.707984 
L 213.890642 -226.487863 
L 214.379199 -226.16181 
L 214.495631 -226.110907 
L 216.586837 -224.748911 
L 217.030876 -224.789496 
L 217.469208 -224.989668 
L 217.977172 -225.094892 
L 218.05365 -225.110734 
L 218.31505 -225.204286 
L 218.554763 -225.418903 
L 218.909766 -225.820623 
L 219.801268 -226.366797 
L 220.166544 -226.707984 
L 220.926775 -227.936531 
L 220.994123 -228.27703 
L 220.588895 -228.3582 
L 220.213345 -228.52329 
L 220.391417 -229.109361 
L 220.209921 -229.350806 
L 220.06381 -230.267057 
L 219.876606 -230.663962 
L 219.762457 -230.846249 
L 219.696251 -231.075312 
L 219.662006 -231.325011 
L 219.652875 -231.571271 
L 219.682553 -231.651065 
L 219.741911 -231.667574 
L 219.794419 -231.708846 
L 219.801268 -231.851925 
L 219.737345 -231.969552 
L 219.530735 -232.023206 
L 219.4885 -232.117445 
L 219.472519 -233.134127 
L 219.518179 -233.628022 
L 219.652875 -234.050378 
L 219.767023 -234.197584 
L 220.084357 -234.412201 
L 220.254439 -234.562846 
L 220.34005 -234.695607 
L 220.477029 -235.014781 
L 220.556933 -235.141351 
L 221.53633 -235.830603 
L 222.015755 -236.279098 
L 222.395871 -237.396898 
L 222.837627 -237.584688 
L 225.848873 -237.321919 
L 226.341995 -237.413407 
L 227.275733 -237.799306 
L 227.821364 -237.868093 
L 227.997153 -237.844706 
L 228.487993 -237.701627 
L 228.651226 -237.586752 
L 228.880665 -237.46431 
L 229.111246 -237.579873 
L 229.339544 -237.769039 
L 229.558709 -237.868093 
L 230.008456 -237.98916 
L 230.935344 -238.440407 
L 231.455863 -238.412892 
L 231.818856 -238.107474 
L 232.024324 -237.682367 
L 232.264036 -237.304035 
L 232.732047 -237.14032 
L 233.017419 -237.086666 
L 233.131567 -236.951842 
L 233.216038 -236.77437 
L 233.341736 -236.662039 
L 233.41694 -236.594834 
L 233.622407 -236.518479 
L 234.309583 -236.397413 
L 234.170322 -236.594834 
L 234.777593 -236.497843 
L 235.437374 -236.268092 
L 236.10172 -236.153905 
L 236.736387 -236.397413 
L 237.50575 -237.31848 
L 237.654144 -237.405152 
L 237.710077 -237.636967 
L 238.030835 -238.412892 
L 238.074211 -238.421146 
L 238.498845 -238.439031 
L 238.5719 -238.412892 
L 238.684908 -238.522952 
L 238.733992 -238.577982 
L 238.858414 -238.776778 
L 238.886951 -238.95425 
L 238.857272 -239.197071 
L 238.850423 -239.409625 
L 238.941742 -239.503176 
L 239.049042 -239.577467 
L 239.326424 -239.966117 
L 239.368659 -240.299049 
L 239.44628 -240.513667 
L 239.502213 -240.747545 
L 239.475959 -241.139634 
L 239.252227 -241.915559 
L 239.204285 -242.286325 
L 239.326424 -242.593805 
L 239.115249 -242.780908 
L 238.915488 -243.062937 
L 238.768236 -243.411003 
L 238.708879 -243.791398 
L 238.558202 -244.014958 
L 237.832216 -244.229576 
L 237.578806 -244.343763 
L 237.20668 -244.899568 
L 236.898479 -245.674805 
L 236.794603 -246.493378 
L 237.051438 -247.170248 
L 237.495477 -246.818743 
L 237.992024 -246.722441 
L 238.509118 -246.804986 
L 239.026213 -246.989337 
L 238.852706 -247.20533 
L 238.775085 -247.424075 
L 238.780793 -247.651074 
L 238.858414 -247.897334 
L 239.012515 -247.979191 
L 239.272774 -248.024591 
L 239.517053 -248.122957 
L 239.626635 -248.360963 
L 239.738501 -248.501977 
L 239.844685 -248.555984 
L 240.272718 -248.773689 
L 240.456497 -248.905761 
L 241.448451 -250.157696 
L 242.424423 -251.122099 
L 242.658428 -251.285126 
L 243.41181 -251.593982 
L 243.637825 -251.814103 
L 243.909499 -252.262599 
L 244.482526 -253.730527 
L 245.132033 -254.943254 
L 245.336359 -255.598112 
L 245.605751 -255.745318 
L 245.907104 -255.821672 
L 246.128552 -255.928981 
L 246.427622 -256.836978 
L 246.429905 -257.060538 
L 246.404792 -257.332249 
L 246.409358 -257.608775 
L 246.50296 -257.845405 
L 246.708428 -257.955465 
L 247.211825 -257.926574 
L 247.416151 -258.035259 
L 248.196929 -258.586936 
L 248.375001 -258.899232 
L 247.935528 -259.218406 
L 247.935528 -259.39863 
L 248.343039 -259.642826 
L 249.635204 -259.772147 
L 249.909161 -260.225458 
L 250.060979 -260.413248 
L 250.418265 -260.491666 
L 251.116856 -260.488914 
L 251.317758 -260.452457 
L 251.673902 -260.335518 
L 251.87138 -260.323824 
L 252.020915 -260.394675 
L 252.104243 -260.517117 
L 252.230948 -260.629929 
L 252.488925 -260.671202 
L 253.399832 -260.2571 
L 253.929483 -260.133282 
L 254.162346 -260.405681 
L 254.089291 -261.010325 
L 254.250241 -261.199491 
L 254.765052 -261.216 
L 255.047 -261.142397 
L 255.299269 -261.002758 
L 255.527566 -260.81428 
L 255.750157 -260.58109 
L 255.881428 -260.3706 
L 256.066349 -259.884271 
L 256.210176 -259.662775 
L 256.438474 -259.485303 
L 256.600565 -259.494933 
L 256.77293 -259.569223 
L 257.038897 -259.578854 
L 257.312854 -259.516945 
L 257.931541 -259.218406 
L 258.783091 -258.62133 
L 260.147169 -257.27997 
L 261.967843 -256.5577 
L 262.72465 -256.077562 
L 263.249734 -255.294758 
L 263.390137 -254.111611 
L 263.270281 -253.506967 
L 262.869619 -252.357525 
L 262.728074 -251.578849 
L 262.319421 -250.822873 
L 262.018068 -249.732588 
L 261.360571 -248.552192 
L 261.212178 -247.874634 
L 260.988446 -247.271366 
L 260.96105 -246.989337 
L 261.043237 -246.64815 
L 261.159669 -246.591744 
L 261.328609 -246.640583 
L 261.563756 -246.608941 
L 262.401608 -245.958898 
L 262.874185 -245.764916 
L 263.312516 -245.997419 
L 263.71432 -246.287703 
L 266.409374 -247.173688 
L 267.201566 -247.126912 
L 267.870478 -246.690798 
L 268.541674 -245.89974 
L 268.377299 -245.715389 
L 268.445789 -245.393463 
L 268.482316 -244.812895 
L 268.464052 -244.180049 
L 268.377299 -243.699911 
L 268.03257 -243.228028 
L 267.217547 -242.723126 
L 267.034909 -242.246428 
L 267.071437 -241.996729 
L 267.272339 -241.431294 
L 267.322564 -241.139634 
L 267.286037 -240.877553 
L 267.034909 -240.048662 
L 266.929892 -239.227337 
L 266.870535 -238.958378 
L 266.763235 -238.734818 
L 266.496127 -238.382625 
L 266.416222 -238.23198 
L 266.320337 -237.066029 
L 266.630822 -234.918479 
L 266.416222 -233.850894 
L 266.167378 -233.254505 
L 266.098889 -232.874109 
L 266.265546 -231.851925 
L 266.30664 -230.72931 
L 266.247282 -230.170754 
L 266.11487 -229.836446 
L 266.096606 -229.092852 
L 265.281583 -227.751493 
L 265.361487 -227.111079 
L 265.208528 -226.871011 
L 265.080681 -226.467227 
L 264.907175 -225.373503 
L 264.861516 -223.766624 
L 264.907175 -223.44057 
L 265.039588 -223.157165 
L 265.420845 -222.583476 
L 265.498466 -222.269116 
L 265.498466 -221.178832 
L 265.566955 -220.601016 
L 265.758725 -220.120878 
L 267.012079 -218.153551 
L 267.233528 -217.619759 
L 267.384204 -216.392587 
L 267.550862 -215.849164 
L 267.79514 -215.345639 
L 268.091927 -214.88201 
L 268.836178 -214.125346 
L 269.763066 -213.650711 
L 270.799537 -213.427839 
L 271.872536 -213.427839 
L 272.95695 -213.625947 
L 273.817632 -213.974013 
L 280.225947 -218.595167 
L 280.80354 -219.20669 
L 281.554639 -219.624231 
L 281.755541 -219.826467 
L 282.075158 -220.295598 
L 282.294324 -220.533604 
L 283.166421 -221.112796 
L 285.401455 -221.990526 
L 286.394549 -222.187259 
L 287.919578 -221.916236 
L 288.663828 -222.278059 
L 291.95588 -222.75063 
L 292.152216 -223.003768 
L 292.286912 -223.516924 
L 293.206951 -224.91125 
L 294.236573 -226.97488 
L 294.894071 -227.847107 
L 295.773017 -228.366454 
L 296.809488 -228.55562 
L 297.357402 -228.739971 
L 297.843676 -229.299903 
L 299.41893 -230.21753 
L 301.007882 -230.370927 
L 301.455345 -230.663962 
L 301.708755 -231.031288 
L 302.087729 -231.808589 
L 302.434742 -232.216499 
L 303.27716 -232.852097 
L 303.471213 -232.918134 
L 303.948355 -232.743413 
L 304.188068 -232.852097 
L 305.265633 -233.964394 
L 305.614928 -234.215469 
L 306.062391 -234.361299 
L 306.612589 -234.416329 
L 307.137673 -234.348917 
L 307.509798 -234.133611 
L 307.875075 -234.031118 
L 309.249426 -234.760267 
L 310.235672 -234.787782 
L 312.881642 -233.850894 
L 314.415802 -233.458804 
L 315.372369 -233.479441 
L 316.159996 -233.387953 
L 316.018452 -232.71521 
L 315.993339 -232.496465 
L 315.988773 -231.37729 
L 315.842662 -230.990703 
L 315.470537 -230.567659 
L 315.08928 -230.261554 
L 314.767381 -230.108846 
L 313.918113 -230.024925 
L 313.454669 -229.863274 
L 312.988942 -229.474623 
L 312.710419 -228.953213 
L 312.806304 -228.396033 
L 313.160165 -228.191046 
L 314.093902 -228.472387 
L 314.548215 -228.437993 
L 314.714872 -228.2901 
L 315.032206 -227.871183 
L 315.182882 -227.760435 
L 315.420312 -227.77488 
L 315.778739 -228.04384 
L 315.997905 -228.120882 
L 316.495594 -228.076858 
L 316.833474 -227.997064 
L 317.148525 -228.067228 
L 317.98866 -228.818389 
L 318.433841 -228.947022 
L 319.381276 -229.050891 
L 320.625498 -229.617702 
L 321.091225 -229.711253 
L 322.757798 -230.295948 
L 325.211998 -230.770583 
L 325.75078 -230.992079 
L 326.15715 -231.451581 
L 326.193678 -232.363705 
L 326.552105 -232.721401 
L 327.136547 -232.730343 
L 327.778063 -232.565941 
L 328.316846 -232.636792 
L 328.577105 -233.348744 
L 328.693537 -233.002054 
L 328.94923 -233.174024 
L 329.200358 -233.19122 
L 329.41724 -233.055709 
L 329.73914 -232.535674 
L 329.958306 -232.466199 
L 330.20715 -232.456568 
L 330.846384 -232.344444 
L 331.23449 -232.428365 
L 331.652274 -232.462759 
L 332.133982 -232.261899 
L 332.930741 -232.025958 
L 333.117945 -231.982621 
L 333.309715 -231.986749 
L 335.553881 -232.128451 
L 336.193114 -232.471702 
L 339.024005 -230.799474 
L 339.649541 -230.154245 
L 340.660899 -228.495087 
L 341.316114 -228.136016 
L 339.567354 -227.718474 
L 339.145003 -227.678578 
L 338.907573 -227.831286 
L 338.040042 -229.661038 
L 337.893932 -229.866713 
L 337.542354 -229.910737 
L 337.275245 -229.725698 
L 337.044665 -229.445733 
L 336.544693 -229.004116 
L 336.425978 -228.940831 
L 335.985364 -228.895431 
L 335.88263 -228.767486 
L 335.809574 -228.595517 
L 335.521919 -228.327245 
L 335.460279 -228.221312 
L 335.373526 -228.127761 
L 335.190888 -228.063101 
L 335.058475 -228.111252 
L 334.782235 -228.392594 
L 334.638408 -228.462069 
L 334.327923 -228.429739 
L 333.362224 -228.164906 
L 332.652218 -228.149773 
L 332.369129 -227.99844 
L 332.133982 -227.575396 
L 331.935363 -227.03954 
L 331.693368 -226.703857 
L 331.360053 -226.523633 
L 330.88976 -226.457597 
L 330.049625 -226.56353 
L 329.741423 -226.43077 
L 329.693481 -225.916926 
L 330.056474 -225.352867 
L 330.759631 -224.854156 
L 332.133982 -224.196546 
L 332.519805 -223.752866 
L 332.777782 -223.235583 
L 333.074569 -222.788463 
L 333.585955 -222.560088 
" style="stroke: #000000"/>
    </defs>
    <g clip-path="url(#p576e3f1b19)">
     <use xlink:href="#mf41a8a8c31" x="0" y="280.512" style="fill: #f5f5f5; stroke: #000000"/>
    </g>
   </g>
  </g>
 </g>
 <defs>
  <clipPath id="p576e3f1b19">
   <rect x="7.2" y="7.2" width="350.026405" height="266.112"/>
  </clipPath>
 </defs>
</svg>
