<?xml version="1.0" encoding="utf-8" standalone="no"?>
<!DOCTYPE svg PUBLIC "-//W3C//DTD SVG 1.1//EN"
  "http://www.w3.org/Graphics/SVG/1.1/DTD/svg11.dtd">
<svg xmlns:xlink="http://www.w3.org/1999/xlink" width="131.578439pt" height="280.512pt" viewBox="0 0 131.578439 280.512" xmlns="http://www.w3.org/2000/svg" version="1.1">
 <metadata>
  <rdf:RDF xmlns:dc="http://purl.org/dc/elements/1.1/" xmlns:cc="http://creativecommons.org/ns#" xmlns:rdf="http://www.w3.org/1999/02/22-rdf-syntax-ns#">
   <cc:Work>
    <dc:type rdf:resource="http://purl.org/dc/dcmitype/StillImage"/>
    <dc:date>2024-03-04T13:11:08.844577</dc:date>
    <dc:format>image/svg+xml</dc:format>
    <dc:creator>
     <cc:Agent>
      <dc:title>Matplotlib v3.8.0, https://matplotlib.org/</dc:title>
     </cc:Agent>
    </dc:creator>
   </cc:Work>
  </rdf:RDF>
 </metadata>
 <defs>
  <style type="text/css">*{stroke-linejoin: round; stroke-linecap: butt}</style>
 </defs>
 <g id="figure_1">
  <g id="patch_1">
   <path d="M 0 280.512 
L 131.578439 280.512 
L 131.578439 0 
L 0 0 
z
" style="fill: #ffffff"/>
  </g>
  <g id="axes_1">
   <g id="PatchCollection_1">
    <defs>
     <path id="macf21785fd" d="M 90.708059 -198.556988 
L 89.173248 -197.626973 
L 89.116731 -196.286972 
L 89.098379 -195.851866 
L 89.578788 -193.828202 
L 89.681166 -192.695254 
L 89.728525 -192.171159 
L 89.335464 -191.468987 
L 87.931673 -190.097784 
L 87.338962 -189.318973 
L 86.852315 -188.252252 
L 86.677621 -187.40716 
L 87.158029 -181.607509 
L 87.463743 -179.896612 
L 88.742752 -176.178622 
L 88.747526 -175.641432 
L 88.748991 -175.47645 
L 88.42456 -174.643786 
L 87.912956 -174.121817 
L 87.101877 -173.63299 
L 86.228408 -173.264298 
L 83.283568 -172.622193 
L 83.508174 -171.482976 
L 83.33348 -169.320535 
L 83.757737 -168.127464 
L 84.431556 -167.820911 
L 84.893247 -167.340369 
L 85.543673 -166.097429 
L 85.660653 -165.873886 
L 85.860303 -165.256637 
L 85.985084 -163.947573 
L 86.103626 -163.512599 
L 86.534122 -163.14805 
L 87.538612 -162.986488 
L 87.994064 -162.684078 
L 88.711557 -161.664996 
L 89.011851 -160.860682 
L 89.079662 -160.679056 
L 89.067184 -159.593692 
L 88.642927 -158.25563 
L 88.068933 -157.161982 
L 87.28281 -156.167756 
L 86.41558 -155.637502 
L 85.548349 -155.910914 
L 85.333076 -154.338608 
L 85.311265 -154.179304 
L 85.635696 -151.764164 
L 86.658904 -147.439282 
L 87.42007 -145.405261 
L 89.653656 -142.236166 
L 90.608234 -140.376136 
L 90.913948 -138.565816 
L 90.876514 -137.144902 
L 91.30077 -136.055396 
L 92.535485 -135.474937 
L 93.010275 -135.25173 
L 93.833832 -135.164735 
L 94.594999 -135.202019 
L 94.7515 -135.178615 
L 95.287535 -135.098453 
L 95.942637 -134.593055 
L 96.560305 -133.300562 
L 97.727011 -128.064306 
L 98.893717 -123.453583 
L 99.767186 -121.601838 
L 100.573505 -120.912158 
L 101.195933 -120.379769 
L 102.718266 -120.040075 
L 103.778907 -120.466763 
L 105.787887 -122.165232 
L 106.97066 -122.458742 
L 107.023223 -122.471785 
L 110.211387 -122.007813 
L 113.212379 -121.108868 
L 114.223108 -120.122927 
L 114.715994 -118.615018 
L 114.74095 -116.485717 
L 114.847015 -112.686946 
L 114.47891 -110.984335 
L 113.436985 -109.741552 
L 114.029697 -109.252725 
L 114.254303 -108.647904 
L 114.372845 -108.001657 
L 114.634886 -107.400979 
L 116.356869 -105.752221 
L 117.96031 -103.78034 
L 118.577978 -102.653551 
L 118.971039 -101.253349 
L 119.052147 -99.679158 
L 118.840018 -98.208533 
L 118.197394 -95.420558 
L 118.09133 -94.496756 
L 118.066374 -93.829796 
L 117.972788 -93.204263 
L 117.654595 -92.396454 
L 117.242817 -91.940767 
L 116.68754 -91.617644 
L 116.132263 -91.161957 
L 115.720484 -90.341721 
L 114.940601 -90.126305 
L 114.297977 -89.674761 
L 113.936111 -88.962232 
L 113.979784 -87.968007 
L 113.80509 -87.504034 
L 113.60544 -87.106344 
L 113.025207 -86.27368 
L 111.521591 -85.233886 
L 110.173952 -85.569437 
L 108.795118 -86.236397 
L 107.1792 -86.203256 
L 106.37436 -85.656432 
L 106.049928 -84.981187 
L 105.812844 -84.214804 
L 105.319957 -83.394568 
L 104.783397 -83.088015 
L 103.529345 -82.785604 
L 102.992785 -82.22221 
L 102.89296 -81.468255 
L 103.155 -79.285101 
L 103.186196 -78.448294 
L 102.980307 -77.458211 
L 102.712027 -76.795394 
L 102.050685 -75.540184 
L 101.115584 -73.178719 
L 100.940131 -72.735638 
L 100.465962 -72.304807 
L 99.804621 -71.956828 
L 99.149519 -71.488713 
L 98.675349 -70.709903 
L 98.40083 -68.883013 
L 98.525612 -67.279824 
L 98.513134 -65.635209 
L 97.839314 -63.721324 
L 97.508644 -63.452055 
L 96.616457 -63.1745 
L 96.335699 -62.735384 
L 96.304503 -62.242413 
L 96.504153 -61.355895 
L 96.522871 -60.94992 
L 96.809868 -59.462724 
L 96.722521 -59.098174 
L 95.817856 -56.492474 
L 95.562054 -55.933222 
L 95.11908 -55.618384 
L 93.618573 -54.8893 
L 91.350683 -53.787351 
L 89.847068 -53.638217 
L 86.646425 -54.122902 
L 85.548349 -53.828777 
L 84.600011 -53.269525 
L 82.59727 -53.509796 
L 81.449281 -52.979543 
L 80.644442 -52.0226 
L 79.958144 -50.754962 
L 79.45278 -49.329905 
L 79.196978 -47.89242 
L 78.198727 -47.677005 
L 75.185257 -47.581725 
L 74.455286 -47.345596 
L 74.761 -46.720062 
L 75.665665 -41.852499 
L 75.977618 -41.371956 
L 77.412604 -39.917901 
L 80.195229 -35.203613 
L 80.438552 -33.811697 
L 79.951905 -32.212651 
L 78.903741 -31.102432 
L 77.874295 -31.222567 
L 76.807415 -31.881242 
L 74.555705 -32.767071 
L 74.480242 -32.796758 
L 73.881291 -32.892038 
L 73.375927 -32.680765 
L 72.95167 -32.080087 
L 73.101408 -31.752821 
L 73.457035 -31.413127 
L 73.656685 -30.783451 
L 73.563099 -30.36919 
L 73.182516 -29.408105 
L 73.113886 -29.159549 
L 73.263624 -28.894422 
L 73.706598 -28.326885 
L 73.812662 -28.086613 
L 74.043507 -27.386513 
L 74.367939 -27.030248 
L 74.548872 -26.607702 
L 74.367939 -25.737755 
L 73.538143 -24.69796 
L 72.41511 -24.031001 
L 71.504206 -23.127912 
L 71.323273 -21.371446 
L 70.792953 -21.702855 
L 70.268871 -21.872702 
L 69.757267 -21.872702 
L 69.27062 -21.702855 
L 68.796451 -21.164316 
L 68.727821 -20.547067 
L 68.752777 -19.96296 
L 68.540649 -19.540414 
L 67.586071 -19.296 
L 66.356975 -19.880108 
L 64.634992 -21.475012 
L 61.864846 -22.96635 
L 59.462804 -23.761731 
L 57.441346 -24.457689 
L 56.462082 -23.824882 
L 56.280314 -23.749858 
L 56.221362 -23.280145 
L 55.808699 -23.280145 
L 55.479552 -24.454428 
L 55.685883 -25.785281 
L 56.634025 -28.212132 
L 55.602368 -28.652487 
L 55.302696 -28.939534 
L 56.221362 -30.994529 
L 57.326709 -35.003399 
L 57.454438 -35.972182 
L 57.061426 -37.625963 
L 56.427694 -38.08589 
L 55.489377 -38.164176 
L 54.158048 -38.659984 
L 54.069621 -38.858959 
L 54.054883 -39.181887 
L 53.986105 -39.524386 
L 53.745385 -39.801647 
L 52.92006 -40.297455 
L 52.315804 -40.532312 
L 51.284147 -40.571455 
L 50.822357 -40.894382 
L 50.822357 -41.393452 
L 51.71646 -42.538378 
L 52.305978 -43.14509 
L 52.92006 -43.585446 
L 51.873665 -44.612943 
L 49.034152 -50.187523 
L 48.650965 -51.17914 
L 48.228477 -52.030494 
L 47.732299 -52.392565 
L 45.801627 -52.451279 
L 44.84366 -52.633945 
L 44.190277 -52.989492 
L 44.671717 -53.482038 
L 43.030891 -54.630225 
L 42.775433 -54.10506 
L 42.687005 -53.870204 
L 42.618228 -53.482038 
L 42.421722 -54.202917 
L 42.131876 -54.555202 
L 41.763427 -54.799844 
L 41.340938 -55.178224 
L 41.262336 -55.49789 
L 40.830023 -56.443839 
L 40.333845 -57.233218 
L 40.112775 -57.070123 
L 39.513432 -57.696407 
L 35.534183 -59.00769 
L 32.19358 -61.036589 
L 30.257995 -62.81106 
L 26.848614 -63.985342 
L 24.854077 -65.524957 
L 19.111187 -72.061796 
L 18.438153 -73.167579 
L 18.143394 -73.836268 
L 17.327894 -77.417829 
L 16.885755 -78.402922 
L 14.773315 -80.526416 
L 14.026592 -81.547389 
L 13.923426 -81.867055 
L 13.923426 -81.958388 
L 13.584453 -82.095388 
L 13.584453 -82.643386 
L 15.19089 -83.491479 
L 16.178333 -83.57955 
L 17.121563 -82.917385 
L 19.273304 -80.252417 
L 19.843172 -79.361919 
L 20.643934 -77.463496 
L 20.973082 -76.298999 
L 21.110636 -75.203002 
L 21.675591 -74.850717 
L 22.943056 -75.154074 
L 24.21052 -75.770572 
L 24.775475 -76.321832 
L 25.178312 -83.59586 
L 25.00637 -84.78319 
L 23.458884 -85.696521 
L 21.385745 -87.826539 
L 19.730181 -90.224032 
L 19.430509 -91.946313 
L 19.843172 -91.447243 
L 20.010202 -90.850316 
L 20.167407 -90.155532 
L 20.658672 -90.302317 
L 21.110636 -90.302317 
L 22.279848 -88.951893 
L 23.031483 -89.369415 
L 23.429408 -90.869887 
L 23.547312 -92.794406 
L 22.795676 -94.334021 
L 21.199064 -95.169066 
L 19.744919 -94.754805 
L 19.430509 -92.54324 
L 18.998196 -93.779498 
L 14.807703 -100.048862 
L 14.478556 -100.753432 
L 14.778228 -101.705905 
L 15.59864 -102.495284 
L 16.571346 -103.232472 
L 17.327894 -104.041422 
L 17.868286 -105.29399 
L 18.109006 -106.63463 
L 18.17287 -111.400259 
L 18.369376 -112.698494 
L 18.909768 -113.566158 
L 20.02494 -113.892348 
L 20.658672 -114.18918 
L 20.496555 -114.874178 
L 20.054416 -115.627676 
L 19.843172 -116.126746 
L 20.108455 -116.772602 
L 20.540769 -117.421719 
L 20.938694 -117.90448 
L 21.110636 -118.044741 
L 20.629196 -118.964596 
L 19.715443 -120.161711 
L 19.1161 -121.205518 
L 19.636841 -121.649136 
L 20.550594 -121.998159 
L 21.734543 -123.72044 
L 22.721986 -124.441319 
L 21.881923 -123.495369 
L 22.387926 -121.616517 
L 21.896661 -120.011664 
L 21.896661 -118.31874 
L 22.348625 -118.31874 
L 22.535306 -119.463666 
L 22.52548 -119.215762 
L 22.613908 -118.945024 
L 22.721986 -118.31874 
L 23.517836 -119.404951 
L 26.686497 -120.95109 
L 27.703416 -122.197134 
L 27.806581 -124.170581 
L 27.172849 -125.746077 
L 26.377 -127.194359 
L 26.013463 -128.769854 
L 25.807132 -126.711598 
L 25.060409 -124.865365 
L 23.503098 -122.46461 
L 23.478535 -122.816894 
L 23.134649 -123.293131 
L 23.783119 -123.958558 
L 24.475803 -125.090436 
L 24.913029 -126.555027 
L 24.775475 -128.221856 
L 24.475803 -128.616545 
L 23.498185 -129.027544 
L 23.134649 -129.317853 
L 22.702336 -130.214874 
L 22.741637 -130.645444 
L 22.997095 -131.020562 
L 23.65539 -137.110522 
L 23.34098 -138.395709 
L 22.997095 -138.937183 
L 22.736724 -139.569991 
L 22.780938 -140.091894 
L 24.097529 -140.688821 
L 24.30386 -141.59889 
L 24.30386 -142.68184 
L 24.402113 -143.595171 
L 26.863352 -147.581207 
L 27.290753 -149.114298 
L 27.094247 -150.738722 
L 26.465427 -152.138076 
L 25.566412 -153.12643 
L 24.593707 -153.498286 
L 23.272203 -153.498286 
L 22.161944 -153.707047 
L 21.39557 -154.418141 
L 21.110636 -155.934922 
L 21.110636 -159.245746 
L 20.904305 -159.95684 
L 20.010202 -160.788623 
L 19.843172 -161.708478 
L 20.639022 -160.654885 
L 21.985088 -160.729909 
L 22.977444 -161.842215 
L 22.721986 -163.900472 
L 24.151568 -164.702898 
L 25.640102 -165.926109 
L 26.809313 -167.589676 
L 27.290753 -169.716432 
L 27.143373 -171.044023 
L 26.720885 -171.549617 
L 26.067503 -171.748593 
L 25.227439 -172.15633 
L 24.3579 -172.991375 
L 23.390107 -174.635371 
L 22.721986 -175.486725 
L 27.983437 -174.778894 
L 29.69304 -175.300797 
L 30.223606 -175.463892 
L 31.407556 -178.226718 
L 31.820218 -178.226718 
L 31.85952 -177.346006 
L 32.085502 -176.876293 
L 32.50799 -176.798008 
L 33.107333 -177.081792 
L 32.625893 -179.234644 
L 32.331134 -179.792428 
L 31.820218 -179.273786 
L 31.54511 -179.919642 
L 29.76673 -181.511447 
L 31.004718 -183.683869 
L 30.89664 -186.192267 
L 30.58223 -188.873546 
L 30.592055 -190.318565 
L 31.692489 -189.940186 
L 32.262357 -190.983992 
L 32.311484 -192.670392 
L 31.820218 -194.19696 
L 31.432119 -194.177388 
L 24.205607 -197.135928 
L 23.34098 -197.703498 
L 22.240546 -198.18952 
L 18.143394 -196.888024 
L 18.091542 -197.728467 
L 18.135215 -199.824626 
L 17.654807 -200.678003 
L 17.093291 -201.216542 
L 16.949792 -201.535523 
L 16.987227 -201.866932 
L 16.956031 -202.405471 
L 17.0309 -202.805233 
L 17.261746 -203.221565 
L 17.405244 -203.793244 
L 17.018422 -205.640847 
L 17.330375 -205.93083 
L 17.823262 -205.997112 
L 18.185128 -206.295379 
L 18.50332 -207.64587 
L 18.060346 -208.200979 
L 18.041629 -208.213407 
L 17.486352 -209.420977 
L 17.267985 -210.953742 
L 17.336614 -212.54036 
L 17.629851 -213.917777 
L 18.734166 -216.312205 
L 18.590667 -217.080658 
L 18.440136 -217.261337 
L 17.536265 -218.346225 
L 14.079821 -220.881501 
L 13.131482 -221.915081 
L 13.125321 -221.92824 
L 12.526293 -223.207575 
L 12.700987 -224.05681 
L 14.491599 -225.966552 
L 20.275216 -234.848303 
L 20.331367 -235.262563 
L 20.293933 -236.360354 
L 20.412475 -236.942391 
L 20.98023 -238.255597 
L 21.292184 -238.713355 
L 24.380523 -242.240786 
L 25.185362 -243.553992 
L 26.377025 -244.326589 
L 27.362797 -245.44095 
L 28.198833 -246.783155 
L 28.928804 -248.276565 
L 28.928804 -248.288993 
L 29.265713 -249.494492 
L 29.989445 -250.107598 
L 30.856676 -250.596425 
L 31.605364 -251.439446 
L 31.942274 -252.39846 
L 32.279183 -254.500833 
L 32.628571 -255.606909 
L 33.6393 -257.222526 
L 35.217785 -259.053559 
L 35.828109 -259.596613 
L 36.914811 -260.563539 
L 38.318602 -261.216 
L 39.697436 -260.515899 
L 40.627057 -258.778075 
L 41.13866 -256.733699 
L 41.191536 -255.934471 
L 41.244725 -255.130509 
L 41.13866 -255.213362 
L 40.857902 -254.770103 
L 40.408689 -253.823517 
L 40.302625 -253.258051 
L 40.190322 -252.046338 
L 40.227756 -251.503656 
L 40.433646 -250.760058 
L 41.47557 -248.276565 
L 43.459594 -246.766585 
L 44.482801 -246.25083 
L 45.580877 -246.118266 
L 46.152357 -246.298136 
L 46.541694 -246.420677 
L 48.825193 -247.750454 
L 49.38047 -248.276565 
L 49.392948 -248.293135 
L 50.890324 -249.318431 
L 53.835165 -249.231436 
L 55.369975 -249.668481 
L 57.541171 -252.512381 
L 58.838898 -253.436183 
L 60.392426 -252.553807 
L 61.640239 -251.211603 
L 64.653709 -249.577344 
L 65.670677 -248.301421 
L 65.683156 -248.301421 
L 65.683156 -248.293135 
L 65.689395 -248.276565 
L 67.386421 -244.243737 
L 67.717092 -243.790121 
L 68.528171 -243.017525 
L 68.827646 -242.400276 
L 68.808929 -241.737459 
L 68.185022 -240.797087 
L 68.110153 -240.283404 
L 68.390911 -239.782148 
L 69.333011 -238.986767 
L 69.682398 -238.500011 
L 69.825897 -237.880691 
L 69.719833 -236.797399 
L 69.80718 -236.227791 
L 70.331262 -234.914584 
L 70.824148 -234.369831 
L 71.541641 -234.264195 
L 75.665665 -234.361546 
L 76.595286 -234.206198 
L 84.057212 -228.804238 
L 85.064821 -227.73211 
L 85.548349 -227.217619 
L 86.702577 -225.655856 
L 88.986076 -220.757223 
L 89.634939 -218.621708 
L 89.790916 -217.204937 
L 89.803394 -214.638591 
L 90.171499 -213.141039 
L 92.068176 -208.213407 
L 92.348934 -206.616431 
L 92.648409 -205.562138 
L 92.648409 -204.545128 
L 92.012024 -203.078645 
L 91.519138 -202.448968 
L 91.082403 -202.123774 
L 90.714298 -201.682586 
L 90.427301 -200.715287 
L 90.439779 -200.133251 
L 90.745493 -199.145239 
L 90.708059 -198.556988 
" style="stroke: #000000"/>
    </defs>
    <g clip-path="url(#pf6255175ab)">
     <use xlink:href="#macf21785fd" x="0" y="280.512" style="fill: #f5f5f5; stroke: #000000"/>
    </g>
   </g>
  </g>
 </g>
 <defs>
  <clipPath id="pf6255175ab">
   <rect x="7.2" y="7.2" width="117.178439" height="266.112"/>
  </clipPath>
 </defs>
</svg>
