<?xml version="1.0" encoding="utf-8" standalone="no"?>
<!DOCTYPE svg PUBLIC "-//W3C//DTD SVG 1.1//EN"
  "http://www.w3.org/Graphics/SVG/1.1/DTD/svg11.dtd">
<svg xmlns:xlink="http://www.w3.org/1999/xlink" width="282.123297pt" height="280.512pt" viewBox="0 0 282.123297 280.512" xmlns="http://www.w3.org/2000/svg" version="1.1">
 <metadata>
  <rdf:RDF xmlns:dc="http://purl.org/dc/elements/1.1/" xmlns:cc="http://creativecommons.org/ns#" xmlns:rdf="http://www.w3.org/1999/02/22-rdf-syntax-ns#">
   <cc:Work>
    <dc:type rdf:resource="http://purl.org/dc/dcmitype/StillImage"/>
    <dc:date>2024-03-04T13:11:08.868763</dc:date>
    <dc:format>image/svg+xml</dc:format>
    <dc:creator>
     <cc:Agent>
      <dc:title>Matplotlib v3.8.0, https://matplotlib.org/</dc:title>
     </cc:Agent>
    </dc:creator>
   </cc:Work>
  </rdf:RDF>
 </metadata>
 <defs>
  <style type="text/css">*{stroke-linejoin: round; stroke-linecap: butt}</style>
 </defs>
 <g id="figure_1">
  <g id="patch_1">
   <path d="M 0 280.512 
L 282.123297 280.512 
L 282.123297 0 
L 0 0 
z
" style="fill: #ffffff"/>
  </g>
  <g id="axes_1">
   <g id="PatchCollection_1">
    <defs>
     <path id="mda5e931faf" d="M 64.870287 -99.669543 
L 62.824551 -101.098519 
L 60.779118 -102.528186 
L 58.733382 -103.957162 
L 56.687036 -105.386829 
L 55.260684 -106.33764 
L 54.971527 -106.530118 
L 53.284986 -107.652767 
L 51.309288 -108.969965 
L 49.33359 -110.286472 
L 47.358501 -111.60298 
L 45.02591 -113.156845 
L 42.693319 -114.71071 
L 40.361338 -116.264576 
L 38.028747 -117.819131 
L 35.696157 -119.372996 
L 33.364175 -120.927551 
L 31.032194 -122.480727 
L 28.698994 -124.035282 
L 26.367013 -125.588457 
L 24.03564 -127.143012 
L 21.70244 -128.696188 
L 19.369241 -130.250743 
L 19.369241 -131.506531 
L 19.369241 -132.761629 
L 19.369241 -134.016037 
L 19.369241 -135.27148 
L 19.369241 -136.072563 
L 19.369241 -136.87261 
L 19.369241 -137.671968 
L 19.369241 -138.472015 
L 19.369241 -139.272408 
L 19.369241 -140.0728 
L 19.369241 -140.872847 
L 19.369241 -141.67324 
L 19.369241 -142.472597 
L 19.369241 -143.272645 
L 19.369241 -144.073037 
L 19.369241 -144.873084 
L 19.369241 -145.673477 
L 19.369241 -146.473524 
L 19.369241 -147.272882 
L 19.369241 -148.073274 
L 19.369241 -148.683228 
L 19.411873 -149.042715 
L 19.543424 -149.294562 
L 19.764502 -149.485001 
L 21.273378 -150.301263 
L 21.80354 -150.724229 
L 22.338878 -151.021271 
L 22.487482 -151.172725 
L 22.891879 -151.886178 
L 23.069107 -152.029697 
L 23.483857 -152.214615 
L 23.678139 -152.330534 
L 24.459526 -153.074347 
L 25.262838 -153.618751 
L 26.590527 -154.203521 
L 26.983352 -154.477448 
L 28.059511 -155.497259 
L 29.307417 -156.335946 
L 30.027901 -157.007309 
L 30.593691 -157.298832 
L 30.774269 -157.441315 
L 31.49384 -158.167188 
L 31.896409 -158.343827 
L 32.447583 -158.319677 
L 32.968305 -158.230668 
L 33.232015 -158.221008 
L 33.492072 -158.250678 
L 33.736902 -158.340032 
L 35.076633 -158.26395 
L 36.147401 -159.383744 
L 37.465268 -159.943641 
L 38.371302 -160.036958 
L 39.68917 -159.943641 
L 41.748338 -159.103795 
L 42.736739 -160.036958 
L 44.384074 -160.22359 
L 46.113775 -160.690171 
L 47.76111 -160.876803 
L 49.490811 -160.876803 
L 50.973412 -160.876803 
L 52.373647 -161.156752 
L 53.856248 -161.343384 
L 54.268082 -160.130274 
L 55.256482 -159.757009 
L 56.409617 -160.130274 
L 57.645118 -161.716649 
L 58.715885 -163.396341 
L 59.539552 -164.982716 
L 60.692687 -166.195827 
L 61.928188 -167.035673 
L 63.246055 -168.155467 
L 64.234456 -168.901997 
L 65.469957 -169.55521 
L 67.199658 -170.30174 
L 68.846993 -171.608167 
L 70.164861 -173.287858 
L 71.317995 -173.941072 
L 72.718229 -174.314337 
L 74.530298 -174.407653 
L 76.507099 -174.874234 
L 78.731001 -175.994028 
L 78.648634 -176.833874 
L 78.566267 -177.67372 
L 79.142835 -178.233617 
L 79.801768 -179.260095 
L 79.164561 -180.260779 
L 79.148726 -180.520216 
L 79.096349 -180.756884 
L 78.983069 -181.003902 
L 78.844819 -181.126031 
L 78.419715 -181.328889 
L 78.210208 -181.525537 
L 77.887422 -182.028542 
L 77.71872 -182.20311 
L 77.513172 -182.25486 
L 77.338075 -182.164471 
L 76.993364 -181.847074 
L 76.783248 -181.756685 
L 76.586835 -181.769105 
L 76.447062 -181.889163 
L 76.405648 -182.121001 
L 76.484213 -182.382509 
L 76.733916 -182.793055 
L 76.758277 -183.098032 
L 76.683976 -184.106112 
L 76.73148 -184.35037 
L 76.880997 -184.530458 
L 77.529616 -184.991374 
L 78.401534 -185.0457 
L 78.566267 -188.4984 
L 79.369195 -188.905017 
L 79.871646 -188.793928 
L 80.309845 -188.831188 
L 83.755371 -189.431562 
L 86.30874 -190.178091 
L 88.367908 -190.45804 
L 87.873708 -191.764467 
L 87.060959 -193.8502 
L 87.739115 -194.219347 
L 89.926756 -194.398055 
L 92.041313 -194.965919 
L 93.661946 -194.89347 
L 94.409837 -194.86035 
L 95.255782 -194.821711 
L 96.178464 -194.780311 
L 97.159614 -194.735462 
L 98.177915 -194.689232 
L 99.213877 -194.642313 
L 100.246186 -194.596083 
L 101.255351 -194.550543 
L 102.221275 -194.507074 
L 103.123859 -194.465674 
L 103.942398 -194.428415 
L 104.65801 -194.395985 
L 105.249988 -194.369765 
L 105.697626 -194.349755 
L 105.980217 -194.336645 
L 106.080098 -194.331815 
L 106.968675 -194.291106 
L 107.43093 -194.398055 
L 107.66358 -194.87277 
L 107.604504 -195.150838 
L 107.413268 -195.315056 
L 107.167219 -195.386815 
L 106.941878 -195.384056 
L 106.503984 -195.215697 
L 106.313357 -195.219147 
L 106.26159 -195.436495 
L 106.307267 -195.520329 
L 106.501548 -195.669023 
L 106.574632 -195.740092 
L 106.649543 -195.882576 
L 106.666596 -195.992285 
L 106.662941 -196.105099 
L 106.6874 -196.264315 
L 106.874884 -197.484741 
L 107.032623 -197.966356 
L 107.150167 -198.202679 
L 107.340793 -198.443141 
L 107.532638 -198.539741 
L 108.021082 -198.607705 
L 108.458366 -198.781238 
L 108.849364 -199.068276 
L 109.532698 -199.802084 
L 109.349988 -200.103956 
L 106.055737 -202.532733 
L 105.307237 -202.798035 
L 104.920502 -203.113362 
L 103.324231 -205.667028 
L 103.824246 -206.012025 
L 103.912555 -206.103104 
L 103.981985 -206.214193 
L 104.030707 -206.339427 
L 104.058114 -206.476735 
L 104.095265 -206.768603 
L 104.098919 -207.080135 
L 104.02279 -207.356822 
L 103.824246 -207.540705 
L 103.480752 -207.779098 
L 103.175627 -208.048195 
L 102.932014 -208.376977 
L 102.772448 -208.796493 
L 102.560505 -209.17806 
L 101.963654 -209.730399 
L 101.855856 -210.169235 
L 101.857683 -211.482983 
L 101.980098 -211.82177 
L 102.141492 -212.157796 
L 102.36257 -212.902299 
L 102.539189 -213.152077 
L 102.688402 -213.515704 
L 102.634198 -213.955919 
L 102.103123 -215.160993 
L 101.975226 -215.318657 
L 101.769373 -215.46321 
L 101.360713 -215.601899 
L 101.179831 -215.720578 
L 101.108574 -215.931371 
L 101.162169 -216.136644 
L 101.276058 -216.271537 
L 101.41309 -216.385041 
L 101.53246 -216.52787 
L 101.621988 -216.724863 
L 101.630514 -216.871832 
L 101.506272 -217.261333 
L 101.399691 -217.917862 
L 101.439278 -218.544376 
L 101.988625 -220.695431 
L 102.017858 -220.962803 
L 101.988982 -221.133815 
L 101.957564 -221.319875 
L 101.117101 -223.781426 
L 100.819284 -224.374131 
L 100.367992 -224.878171 
L 101.625033 -226.309907 
L 101.492264 -226.381667 
L 101.062897 -226.50345 
L 99.643244 -227.871707 
L 99.739471 -228.098025 
L 100.357638 -228.994327 
L 100.645101 -229.596691 
L 100.797968 -229.7064 
L 100.8406 -229.803689 
L 100.626221 -230.008617 
L 99.387451 -230.74277 
L 98.987927 -231.095357 
L 98.36306 -231.458293 
L 98.201058 -231.639762 
L 98.1432 -231.82468 
L 98.127974 -232.006838 
L 98.081688 -232.164847 
L 97.932475 -232.272486 
L 97.402618 -232.318715 
L 97.005529 -232.558833 
L 96.638892 -232.88244 
L 96.19978 -233.177757 
L 95.840452 -233.305406 
L 95.629727 -233.570363 
L 95.518274 -233.92433 
L 95.501322 -234.449687 
L 95.766035 -234.540962 
L 95.813031 -234.524119 
L 95.854272 -234.518686 
L 95.891678 -234.499127 
L 95.927644 -234.441537 
L 96.275319 -234.605614 
L 96.683898 -234.521403 
L 97.109741 -234.351893 
L 97.507289 -234.258988 
L 98.269298 -234.358412 
L 98.539766 -234.275287 
L 98.637594 -234.258988 
L 98.715761 -234.28724 
L 98.920051 -234.441537 
L 100.025419 -234.73818 
L 100.331373 -234.946808 
L 100.430161 -234.967997 
L 100.78503 -234.957674 
L 100.939446 -234.988099 
L 101.122635 -235.110885 
L 101.509154 -235.535204 
L 102.26301 -235.77317 
L 102.394407 -235.854666 
L 102.490797 -236.091002 
L 103.894927 -237.202598 
L 104.124632 -237.275944 
L 105.243907 -237.388407 
L 105.554657 -237.474792 
L 105.619877 -237.507933 
L 105.679341 -237.559547 
L 105.989132 -237.92193 
L 106.211644 -237.980606 
L 106.435116 -238.125124 
L 106.625977 -238.304414 
L 106.754497 -238.469035 
L 106.855203 -238.735796 
L 106.995233 -239.369286 
L 107.11608 -239.609425 
L 107.253232 -239.816967 
L 107.666606 -240.816642 
L 107.749089 -240.954641 
L 107.888159 -241.015491 
L 108.16534 -241.029617 
L 108.226723 -241.093726 
L 108.530759 -241.49414 
L 108.656402 -241.578895 
L 108.934542 -241.767421 
L 109.296125 -242.082536 
L 109.433756 -242.28899 
L 109.521514 -242.371572 
L 109.948796 -242.46502 
L 110.173226 -242.600846 
L 110.363129 -242.754057 
L 110.542961 -242.861631 
L 110.821101 -242.939866 
L 110.967844 -242.928457 
L 111.033063 -242.815993 
L 111.095405 -242.761663 
L 111.234955 -242.81708 
L 111.683816 -243.062109 
L 111.972027 -243.519026 
L 112.24729 -243.590742 
L 112.3432 -243.539672 
L 112.430479 -243.446767 
L 112.53598 -243.357122 
L 112.690876 -243.316918 
L 112.808846 -243.301705 
L 113.039031 -243.234336 
L 113.172826 -243.218037 
L 113.312376 -243.177832 
L 113.376156 -243.080038 
L 113.429866 -242.962685 
L 113.534408 -242.861631 
L 113.65046 -242.835552 
L 114.099321 -242.861631 
L 114.312242 -242.910528 
L 114.552019 -243.017015 
L 114.749594 -243.171313 
L 114.892021 -243.549451 
L 115.035887 -243.571183 
L 115.198455 -243.525546 
L 115.320261 -243.508703 
L 115.443986 -243.577159 
L 115.526469 -243.667891 
L 116.073159 -244.731676 
L 116.084668 -244.875108 
L 116.056854 -244.912052 
L 116.034315 -244.995177 
L 116.02856 -245.083736 
L 116.044385 -245.141326 
L 116.111523 -245.157625 
L 116.179619 -245.12394 
L 116.240043 -245.076673 
L 116.285121 -245.057657 
L 116.40405 -245.065263 
L 116.649581 -245.044618 
L 116.76851 -245.057657 
L 117.262448 -245.278781 
L 117.587585 -245.368426 
L 117.733369 -245.285301 
L 117.788997 -245.134806 
L 117.915599 -245.062004 
L 118.051312 -245.022886 
L 118.137152 -244.975075 
L 118.177434 -244.83599 
L 118.105501 -244.653441 
L 118.137152 -244.511095 
L 118.329932 -244.316593 
L 118.637805 -244.173162 
L 119.478939 -244.009084 
L 119.985347 -243.810236 
L 120.235193 -243.764599 
L 120.355561 -243.78959 
L 120.716184 -243.864023 
L 121.241774 -244.116658 
L 121.729958 -244.446986 
L 122.102091 -244.783833 
L 122.519781 -245.565644 
L 122.640148 -245.901948 
L 123.039136 -246.745696 
L 123.137924 -247.054835 
L 123.154229 -247.204786 
L 123.19547 -247.287368 
L 123.293299 -247.352021 
L 123.41031 -247.410155 
L 123.510056 -247.477524 
L 124.077846 -248.031692 
L 124.282136 -248.165344 
L 125.035992 -248.404397 
L 125.165471 -248.489152 
L 125.22014 -248.57771 
L 125.479098 -248.730922 
L 125.575968 -248.812417 
L 125.617209 -248.930313 
L 125.673797 -249.246515 
L 125.729425 -249.359522 
L 125.93851 -249.464922 
L 126.226241 -249.519796 
L 126.744157 -249.542071 
L 127.014625 -249.589882 
L 127.214119 -249.710495 
L 127.389635 -249.862076 
L 128.255706 -250.402662 
L 128.702649 -250.523818 
L 128.905979 -250.688438 
L 129.08725 -250.872074 
L 129.285785 -251.000294 
L 129.512134 -251.050277 
L 130.421365 -251.119277 
L 130.572903 -251.130686 
L 130.755133 -251.212181 
L 131.150284 -251.464274 
L 131.886877 -251.648453 
L 132.072943 -251.778845 
L 132.194749 -251.902175 
L 132.465217 -252.072228 
L 132.598533 -252.192841 
L 132.650324 -252.296612 
L 132.681016 -252.411792 
L 132.72993 -252.532405 
L 132.839268 -252.649215 
L 133.039721 -252.726907 
L 133.564351 -252.843174 
L 134.008416 -253.110478 
L 134.859142 -253.113738 
L 135.117142 -253.197407 
L 135.587103 -253.431027 
L 135.86908 -253.477751 
L 136.373569 -253.466885 
L 136.609508 -253.490246 
L 136.878058 -253.569025 
L 137.566695 -253.886314 
L 137.814144 -253.925431 
L 138.029942 -253.888487 
L 138.543063 -253.715717 
L 138.817367 -253.659757 
L 139.094549 -253.672253 
L 139.578897 -253.802645 
L 141.741678 -253.915652 
L 141.925826 -253.925431 
L 142.045714 -253.95314 
L 142.321936 -254.075383 
L 142.452374 -254.107981 
L 142.555958 -254.093312 
L 142.809161 -254.026485 
L 142.943436 -254.024856 
L 143.587954 -254.186216 
L 144.250696 -254.223161 
L 144.800263 -254.11613 
L 144.946046 -254.107981 
L 145.972288 -254.222074 
L 148.917699 -255.028334 
L 149.150761 -255.118522 
L 149.40972 -255.132648 
L 149.665801 -255.072885 
L 149.884477 -254.944666 
L 149.959287 -254.825139 
L 149.982305 -254.70344 
L 150.028342 -254.609992 
L 150.169331 -254.571961 
L 150.295932 -254.557835 
L 150.537627 -254.494812 
L 150.652719 -254.480686 
L 152.346498 -254.571961 
L 152.726304 -254.689314 
L 153.840783 -255.491771 
L 154.611904 -255.861759 
L 154.914981 -256.101356 
L 155.208467 -256.495249 
L 155.282318 -256.677799 
L 155.586354 -256.954883 
L 156.263482 -257.405824 
L 156.781398 -257.503075 
L 156.873472 -257.491122 
L 157.21875 -257.447658 
L 157.61582 -257.224361 
L 157.923692 -256.909246 
L 158.251706 -256.649004 
L 158.703444 -256.512092 
L 159.0938 -256.525131 
L 159.165733 -256.527848 
L 159.532111 -256.72235 
L 159.658713 -256.909789 
L 159.716259 -257.107007 
L 159.730645 -257.455807 
L 159.85437 -257.465587 
L 160.622613 -257.141235 
L 161.06476 -257.033662 
L 162.481358 -256.958686 
L 162.71442 -256.987481 
L 163.169036 -257.11244 
L 163.413607 -257.141235 
L 163.53925 -257.177093 
L 163.629406 -257.260219 
L 163.702298 -257.34932 
L 163.776149 -257.405824 
L 163.892201 -257.424296 
L 164.144445 -257.399304 
L 164.265292 -257.405824 
L 164.708399 -257.611192 
L 165.413341 -258.268587 
L 165.795064 -258.508726 
L 166.804043 -258.79885 
L 167.350732 -258.85644 
L 167.807266 -258.781464 
L 168.227354 -258.536978 
L 168.41342 -258.508726 
L 168.540981 -258.523396 
L 168.795144 -258.585332 
L 169.207559 -258.596741 
L 169.30251 -258.585332 
L 169.844404 -258.520679 
L 170.072671 -258.409302 
L 170.563733 -258.650528 
L 170.71719 -258.682583 
L 170.859137 -258.655418 
L 171.159337 -258.536435 
L 171.317589 -258.508726 
L 171.463373 -258.548931 
L 171.775082 -258.73148 
L 171.924703 -258.781464 
L 172.12036 -258.766252 
L 172.443578 -258.632599 
L 172.612381 -258.600001 
L 174.030896 -258.781464 
L 174.175721 -258.760819 
L 174.354115 -258.706488 
L 174.522917 -258.632599 
L 174.635132 -258.554364 
L 174.778039 -258.483735 
L 175.158804 -258.473955 
L 175.325688 -258.409302 
L 175.691107 -258.55871 
L 175.808117 -258.563057 
L 176.178332 -258.578269 
L 177.063585 -258.508726 
L 177.900884 -258.600001 
L 178.113805 -258.56523 
L 180.032015 -257.822536 
L 180.248772 -257.63401 
L 180.312073 -257.543822 
L 180.454021 -257.519374 
L 180.617068 -257.519917 
L 180.732161 -257.505791 
L 180.816562 -257.437878 
L 180.920145 -257.273258 
L 180.966182 -257.224361 
L 181.163758 -257.137976 
L 181.395861 -257.07115 
L 181.638515 -257.035292 
L 181.85815 -257.041811 
L 181.62221 -256.391479 
L 181.685511 -256.180134 
L 182.01832 -255.947601 
L 183.402308 -255.301072 
L 183.793623 -255.209797 
L 184.209875 -255.195128 
L 185.011686 -255.301072 
L 185.667714 -255.473842 
L 185.73581 -255.491771 
L 186.101229 -255.491771 
L 186.156857 -255.524912 
L 186.305518 -255.692249 
L 186.387042 -255.757445 
L 186.858922 -255.924782 
L 187.092943 -256.0856 
L 187.255032 -256.570225 
L 187.413284 -256.775593 
L 187.622369 -256.942387 
L 187.83529 -257.041811 
L 188.353207 -257.181983 
L 188.572842 -257.286297 
L 188.995807 -257.631837 
L 189.270111 -257.723112 
L 189.565515 -257.737238 
L 190.378836 -257.581853 
L 190.862225 -257.597609 
L 192.845653 -258.006715 
L 194.730294 -258.657591 
L 195.185869 -258.909683 
L 195.435236 -259.237838 
L 195.455377 -259.518181 
L 195.410299 -259.738762 
L 195.406463 -259.947933 
L 195.553206 -260.198939 
L 195.642403 -260.285324 
L 196.1162 -260.611305 
L 196.284044 -260.788421 
L 196.400095 -260.886759 
L 196.787574 -261.076371 
L 197.308367 -261.202961 
L 197.857934 -261.216 
L 198.332691 -261.069308 
L 198.755656 -260.767776 
L 198.821835 -260.746587 
L 198.827589 -260.610218 
L 198.855403 -260.511881 
L 198.916786 -260.451574 
L 199.023247 -260.430929 
L 199.15848 -260.332591 
L 199.282205 -259.82569 
L 199.473067 -259.602393 
L 199.645706 -259.66596 
L 199.851913 -259.593157 
L 200.082098 -259.479064 
L 200.318038 -259.419844 
L 202.096218 -259.329112 
L 202.246798 -259.282388 
L 202.45876 -259.165035 
L 202.657294 -259.01617 
L 202.78006 -258.872739 
L 202.775264 -258.654331 
L 203.126297 -258.533718 
L 203.587626 -258.493514 
L 203.906049 -258.508726 
L 204.953391 -258.804283 
L 205.281405 -258.972706 
L 205.467471 -258.897731 
L 205.764794 -258.830361 
L 206.043893 -258.822755 
L 206.167618 -258.922723 
L 206.273119 -259.052028 
L 206.771853 -259.438859 
L 206.938738 -259.519268 
L 207.010671 -259.581204 
L 207.105622 -259.725723 
L 207.190023 -259.890887 
L 207.226469 -260.016933 
L 207.205369 -260.166884 
L 207.145904 -260.270655 
L 206.681698 -260.723225 
L 206.334502 -260.986183 
L 206.334502 -261.069308 
L 206.46494 -261.087237 
L 206.694166 -261.154064 
L 206.817891 -261.160583 
L 206.93682 -261.126355 
L 207.155495 -261.011175 
L 207.263874 -260.986183 
L 207.28977 -260.976404 
L 207.333889 -260.959018 
L 207.383762 -260.910121 
L 207.431718 -260.887302 
L 207.505569 -260.937286 
L 207.590929 -261.033451 
L 207.642721 -261.063332 
L 207.702185 -261.069308 
L 207.815359 -261.031821 
L 208.034035 -260.912294 
L 208.152964 -260.886759 
L 208.252711 -260.915554 
L 208.55387 -261.069308 
L 208.713081 -261.069852 
L 208.745691 -261.057899 
L 208.753364 -261.004656 
L 208.837765 -260.886759 
L 208.886679 -260.736264 
L 208.962449 -260.650423 
L 209.122619 -260.613478 
L 209.359518 -260.610218 
L 209.463101 -260.58414 
L 209.568603 -260.522203 
L 209.761383 -260.629777 
L 209.971427 -260.69606 
L 210.394392 -260.404307 
L 210.745424 -260.066916 
L 211.133862 -259.796352 
L 211.66041 -259.701818 
L 211.776462 -259.730069 
L 211.880045 -259.77788 
L 211.994179 -259.807761 
L 212.14284 -259.784943 
L 212.276155 -259.726809 
L 212.396043 -259.65455 
L 212.500586 -259.568165 
L 212.593619 -259.470371 
L 213.159491 -259.519268 
L 213.277461 -259.562732 
L 213.493259 -259.782226 
L 213.605474 -259.876217 
L 213.516278 -259.604023 
L 213.369535 -259.30901 
L 213.318702 -259.046595 
L 213.518196 -258.872739 
L 213.309111 -258.492427 
L 213.312948 -258.489711 
L 213.73879 -258.201218 
L 214.405368 -258.017582 
L 214.900266 -257.952929 
L 216.568149 -258.327264 
L 216.839576 -258.458199 
L 217.075515 -258.650528 
L 218.727094 -259.401915 
L 218.939056 -259.276412 
L 219.146222 -259.07702 
L 219.374489 -258.972706 
L 219.906792 -258.997698 
L 220.174383 -258.972706 
L 220.387304 -258.872739 
L 220.561861 -258.936848 
L 220.71244 -258.874912 
L 220.86302 -258.762992 
L 221.031822 -258.682583 
L 221.438483 -258.647268 
L 221.843225 -258.682583 
L 223.072797 -259.151996 
L 223.080007 -259.154038 
L 223.117069 -258.800664 
L 223.107325 -258.639551 
L 223.147521 -258.502587 
L 223.551918 -257.938862 
L 223.542173 -257.776714 
L 223.331448 -257.639405 
L 222.514128 -257.339948 
L 222.108513 -257.263359 
L 221.667574 -257.290959 
L 221.212019 -257.240589 
L 220.847818 -257.076371 
L 220.772298 -256.863853 
L 221.184003 -256.666514 
L 221.421526 -256.393967 
L 221.320426 -255.924772 
L 221.051235 -255.456956 
L 220.786915 -255.189928 
L 219.360563 -254.399196 
L 218.599274 -254.136998 
L 218.259434 -253.93966 
L 217.981716 -253.630543 
L 217.9578 -253.178723 
L 217.957355 -253.170318 
L 218.439708 -252.989539 
L 219.46288 -252.86741 
L 219.690658 -252.759772 
L 219.913564 -252.703192 
L 220.095055 -252.601763 
L 220.194936 -252.356125 
L 220.218079 -252.100138 
L 220.199809 -251.548833 
L 220.167965 -251.364441 
L 220.155958 -251.294915 
L 219.598085 -249.862489 
L 219.542054 -249.311184 
L 219.598085 -249.046227 
L 219.685786 -248.798519 
L 219.716237 -248.557711 
L 219.609048 -248.305174 
L 219.476279 -248.083686 
L 219.227794 -247.101135 
L 219.190034 -246.365602 
L 219.142632 -246.207131 
L 218.892827 -245.372012 
L 218.824615 -244.309422 
L 218.875774 -243.742937 
L 219.015851 -243.275811 
L 219.591995 -242.40228 
L 219.792975 -241.965514 
L 219.835642 -241.554447 
L 219.951324 -240.439938 
L 219.947669 -240.045262 
L 219.525002 -239.098591 
L 219.397105 -238.632845 
L 219.372744 -238.14502 
L 219.448264 -237.597855 
L 219.719892 -237.12245 
L 220.165703 -236.920282 
L 220.656582 -236.778143 
L 221.062197 -236.484896 
L 220.945263 -236.222698 
L 220.232696 -235.205648 
L 219.676041 -234.633643 
L 219.520129 -234.160998 
L 219.313059 -233.177757 
L 219.031686 -232.464994 
L 218.912316 -231.948189 
L 218.934241 -231.451394 
L 219.153492 -230.104526 
L 219.120605 -229.923058 
L 219.028207 -229.803087 
L 219.012197 -229.782299 
L 218.63338 -229.407633 
L 218.49452 -229.208225 
L 218.461633 -229.000537 
L 218.766148 -228.552731 
L 218.676012 -228.403002 
L 218.252126 -228.153225 
L 218.177824 -228.044206 
L 218.094996 -227.811678 
L 218.043837 -227.719909 
L 217.950046 -227.63021 
L 217.672328 -227.472201 
L 217.186947 -227.066646 
L 217.087658 -226.983686 
L 215.968258 -226.50345 
L 215.47616 -226.172944 
L 214.454205 -225.752048 
L 213.993778 -225.438101 
L 213.762346 -224.96925 
L 213.318971 -223.38951 
L 213.212999 -223.172507 
L 213.065614 -223.004839 
L 212.842708 -222.89306 
L 212.093599 -222.779901 
L 211.635608 -222.563588 
L 211.312821 -222.248261 
L 211.02414 -221.887394 
L 210.548718 -221.424053 
L 210.292084 -221.173941 
L 210.130082 -220.812729 
L 210.09354 -219.828454 
L 209.848709 -218.488486 
L 209.908394 -217.969266 
L 210.069179 -217.234423 
L 210.150789 -217.005691 
L 210.489411 -216.383316 
L 210.609999 -215.689183 
L 210.711098 -215.348671 
L 211.460207 -214.109788 
L 212.362791 -212.616297 
L 212.540629 -212.092247 
L 212.541147 -212.036745 
L 212.557681 -210.266869 
L 212.737955 -209.64277 
L 213.041252 -209.325718 
L 213.474883 -209.20083 
L 214.040064 -209.15046 
L 214.47004 -209.011426 
L 215.775804 -208.11271 
L 216.0048 -207.999896 
L 216.245976 -207.928827 
L 216.493243 -207.912612 
L 216.739292 -207.965396 
L 217.002393 -207.811873 
L 218.116921 -206.150023 
L 219.313059 -204.368115 
L 219.472625 -203.941354 
L 219.632191 -202.064917 
L 219.745471 -200.685965 
L 219.883112 -200.245749 
L 219.899305 -200.228757 
L 220.221734 -199.890403 
L 221.667574 -199.006176 
L 223.549482 -197.695879 
L 226.014841 -195.981245 
L 227.999066 -194.600913 
L 228.162286 -194.412545 
L 228.295055 -194.160007 
L 228.510678 -193.203317 
L 228.542322 -193.062918 
L 228.878507 -191.593231 
L 229.211038 -190.123545 
L 229.546006 -188.655239 
L 229.879755 -187.185553 
L 230.213504 -185.715867 
L 230.548471 -184.246871 
L 230.881003 -182.777185 
L 231.217188 -181.308189 
L 231.550937 -179.838503 
L 231.884687 -178.368817 
L 232.218436 -176.899821 
L 232.553403 -175.430135 
L 232.88837 -173.961139 
L 233.22212 -172.492143 
L 233.555869 -171.022456 
L 233.889618 -169.55277 
L 231.141668 -168.060315 
L 231.418168 -167.622859 
L 232.119188 -166.80073 
L 232.734894 -166.078653 
L 234.242856 -163.856874 
L 235.633884 -161.266639 
L 236.56753 -158.063517 
L 237.501175 -154.860395 
L 237.76184 -152.820084 
L 237.797164 -150.286773 
L 237.514453 -148.052293 
L 236.921377 -143.364759 
L 237.073635 -142.588516 
L 238.794758 -138.012479 
L 238.775269 -137.487394 
L 238.740119 -137.37048 
L 237.939678 -134.708101 
L 237.742351 -134.441763 
L 237.411038 -134.26064 
L 237.121139 -134.047087 
L 237.158899 -133.76902 
L 237.330646 -133.470253 
L 237.44758 -133.19184 
L 237.353789 -132.935508 
L 236.845857 -132.371093 
L 236.677764 -132.088196 
L 236.521852 -131.301603 
L 236.326962 -130.775138 
L 236.272149 -130.55848 
L 236.266059 -130.336992 
L 237.264871 -126.775246 
L 237.493866 -125.379389 
L 237.607146 -125.117882 
L 237.736261 -124.997133 
L 238.263682 -124.698366 
L 238.450046 -124.536907 
L 238.496332 -124.345089 
L 238.200343 -122.923013 
L 238.166237 -122.457957 
L 238.301442 -122.08674 
L 238.32824 -121.803843 
L 237.836142 -120.089209 
L 237.614455 -119.820112 
L 233.452334 -117.794981 
L 233.437717 -117.528644 
L 233.393867 -117.300946 
L 233.290331 -117.107058 
L 232.88837 -116.719281 
L 232.672773 -116.188676 
L 232.508335 -115.974088 
L 232.217218 -115.343434 
L 232.4925 -114.601691 
L 234.144193 -112.237774 
L 235.943272 -109.662718 
L 237.390331 -107.592738 
L 239.190628 -105.014922 
L 239.643748 -104.16071 
L 239.802096 -103.314088 
L 239.850818 -101.556675 
L 239.903195 -99.669543 
L 239.927556 -97.817256 
L 240.074942 -97.460529 
L 241.828953 -96.396559 
L 242.05064 -96.035002 
L 242.257711 -94.794394 
L 242.405096 -94.329339 
L 242.618257 -94.082666 
L 244.167633 -92.792033 
L 244.388103 -92.702679 
L 244.855839 -92.751324 
L 246.229814 -93.279169 
L 247.533141 -93.778379 
L 247.788935 -93.808739 
L 248.04351 -93.757679 
L 250.290836 -92.985921 
L 253.103343 -92.022345 
L 256.84222 -90.740587 
L 257.330022 -90.573359 
L 257.716148 -90.355666 
L 258.019446 -89.946155 
L 258.836766 -88.221172 
L 259.686974 -86.423049 
L 259.704914 -86.385087 
L 261.026843 -83.587865 
L 261.85269 -81.844252 
L 262.754056 -79.938835 
L 261.952571 -79.402365 
L 261.149867 -78.866585 
L 260.348382 -78.33115 
L 259.546897 -77.795715 
L 258.744193 -77.259935 
L 257.94149 -76.724156 
L 257.141222 -76.189066 
L 256.338519 -75.653631 
L 255.535815 -75.117506 
L 254.735548 -74.582071 
L 253.932844 -74.046636 
L 253.130141 -73.510166 
L 252.329873 -72.974386 
L 251.52717 -72.438951 
L 250.724466 -71.903171 
L 249.921763 -71.367046 
L 249.120278 -70.832301 
L 248.317574 -70.296521 
L 247.514871 -69.760397 
L 246.713385 -69.224962 
L 245.9119 -68.690217 
L 245.109196 -68.154092 
L 244.308929 -67.618657 
L 243.506225 -67.083222 
L 242.703522 -66.546407 
L 241.902036 -66.010972 
L 241.100551 -65.475537 
L 240.297847 -64.940102 
L 239.496362 -64.403977 
L 238.694877 -63.868542 
L 237.892173 -63.333107 
L 237.090688 -62.797673 
L 236.289202 -62.261548 
L 235.486499 -61.726113 
L 234.685013 -61.190678 
L 233.88231 -60.654553 
L 233.080824 -60.118428 
L 232.279339 -59.582993 
L 231.476635 -59.047558 
L 230.67515 -58.511433 
L 229.873665 -57.976688 
L 229.070961 -57.440563 
L 228.269476 -56.905128 
L 227.46799 -56.369004 
L 226.665287 -55.834259 
L 225.862583 -55.298134 
L 225.061098 -54.762699 
L 224.258394 -54.226574 
L 223.456909 -53.690449 
L 222.654205 -53.154324 
L 221.85272 -52.619579 
L 221.050016 -52.083454 
L 220.248531 -51.548019 
L 219.447046 -51.012584 
L 218.644342 -50.477149 
L 217.841639 -49.941714 
L 217.041371 -49.40559 
L 216.238668 -48.870155 
L 215.435964 -48.33472 
L 214.635697 -47.798595 
L 213.832993 -47.26247 
L 213.03029 -46.727035 
L 212.230022 -46.19091 
L 211.427319 -45.655475 
L 209.882815 -44.625315 
L 208.714693 -43.544785 
L 207.874229 -42.767852 
L 207.032548 -41.98954 
L 206.190866 -41.212607 
L 205.349185 -40.434985 
L 204.435638 -39.589743 
L 203.991045 -39.164707 
L 203.311365 -38.502313 
L 202.568347 -37.77782 
L 201.825329 -37.054017 
L 201.083528 -36.330213 
L 200.339292 -35.60641 
L 199.596882 -34.881917 
L 198.853864 -34.158114 
L 198.109628 -33.433621 
L 197.369045 -32.709818 
L 196.624809 -31.985325 
L 195.88179 -31.261177 
L 195.138772 -30.537373 
L 194.395754 -29.81288 
L 193.652735 -29.089077 
L 192.909717 -28.364584 
L 192.16548 -27.640781 
L 191.422462 -26.916288 
L 190.494298 -26.013086 
L 189.98393 -25.62807 
L 189.454072 -25.413137 
L 187.935148 -25.08332 
L 186.760935 -24.828368 
L 184.179859 -24.268783 
L 181.598784 -23.708163 
L 180.424571 -23.453901 
L 178.200388 -22.97056 
L 175.977423 -22.48791 
L 173.754459 -22.004569 
L 171.531494 -21.521574 
L 169.515599 -21.096883 
L 167.499705 -20.672192 
L 166.365698 -20.433727 
L 165.485029 -20.248536 
L 163.470353 -19.8235 
L 162.235237 -19.564062 
L 162.234019 -19.564062 
L 161.279058 -19.31325 
L 160.976978 -19.296 
L 160.804013 -19.324635 
L 160.685861 -19.377764 
L 160.409361 -19.565442 
L 159.715065 -20.30408 
L 159.170591 -20.556963 
L 158.920888 -20.711177 
L 158.68702 -20.90472 
L 158.476295 -21.128623 
L 158.278969 -21.431875 
L 158.261916 -21.672682 
L 158.369105 -21.91004 
L 158.543288 -22.203977 
L 158.633425 -22.46445 
L 158.69311 -22.585544 
L 158.851458 -22.695943 
L 159.107251 -22.98229 
L 159.159628 -23.210333 
L 159.218095 -23.728173 
L 159.325285 -23.972431 
L 159.544536 -24.173564 
L 159.794239 -24.320187 
L 160.009836 -24.502001 
L 160.125552 -24.807323 
L 160.0951 -25.10195 
L 159.968422 -25.316538 
L 159.8186 -25.515256 
L 159.715065 -25.760204 
L 159.717501 -25.887163 
L 159.782058 -26.15212 
L 159.789367 -26.238024 
L 159.739426 -26.353943 
L 159.678523 -26.406038 
L 159.615184 -26.447437 
L 159.553062 -26.527476 
L 159.402023 -27.016337 
L 159.388624 -27.532107 
L 159.606657 -30.224806 
L 159.559153 -30.407655 
L 159.394714 -30.578083 
L 159.210787 -30.674337 
L 158.784465 -30.810611 
L 158.589575 -30.9079 
L 157.907459 -31.490944 
L 156.415332 -32.195428 
L 153.183811 -32.924061 
L 152.53702 -32.952696 
L 151.46147 -33.176943 
L 151.333574 -33.187293 
L 151.104578 -33.242838 
L 150.679474 -33.49227 
L 150.450478 -33.589904 
L 150.165451 -33.659249 
L 149.985178 -33.729628 
L 149.847537 -33.874527 
L 149.370056 -34.812228 
L 148.996111 -35.380093 
L 148.561262 -35.884478 
L 147.837733 -36.500642 
L 147.633098 -36.631741 
L 147.416283 -36.69315 
L 147.167798 -36.645541 
L 146.894952 -36.455792 
L 146.415035 -35.967967 
L 146.105647 -35.822033 
L 145.930246 -35.845838 
L 145.188446 -36.12494 
L 145.070294 -36.204635 
L 144.978939 -36.291574 
L 144.879058 -36.358158 
L 144.738981 -36.378168 
L 144.573324 -36.327454 
L 144.373562 -36.127355 
L 144.245665 -36.060081 
L 143.986218 -36.069396 
L 143.897299 -36.234304 
L 143.855885 -36.486842 
L 143.741387 -36.760424 
L 143.55746 -36.911188 
L 143.367442 -36.925678 
L 143.155499 -36.894628 
L 142.899706 -36.911878 
L 142.651221 -37.037457 
L 141.24923 -38.282205 
L 141.132296 -38.476783 
L 141.142041 -39.477274 
L 141.070175 -39.953369 
L 140.831435 -40.334936 
L 140.077454 -40.95248 
L 139.613372 -41.212607 
L 139.178523 -41.287817 
L 138.970234 -41.433405 
L 138.754637 -41.503094 
L 138.279593 -41.587274 
L 137.770442 -41.756322 
L 137.569462 -41.908811 
L 137.387971 -42.159968 
L 137.140704 -42.624334 
L 136.977483 -42.767852 
L 136.702201 -42.847202 
L 136.453716 -42.841682 
L 135.984762 -42.733353 
L 135.735059 -42.729213 
L 135.467085 -42.767852 
L 135.302647 -42.838922 
L 135.216164 -43.00797 
L 135.184495 -43.339167 
L 135.193021 -43.601365 
L 135.454905 -44.804713 
L 135.603508 -46.264049 
L 135.577929 -46.557987 
L 135.358678 -47.414958 
L 135.207638 -47.684746 
L 133.826355 -48.708006 
L 132.8044 -49.464929 
L 131.783663 -50.221162 
L 130.762926 -50.977395 
L 129.740971 -51.732937 
L 128.720235 -52.48986 
L 127.699498 -53.246783 
L 126.678152 -54.003706 
L 125.657111 -54.759939 
L 124.635765 -55.516172 
L 123.615942 -56.271714 
L 122.593987 -57.027947 
L 121.739319 -57.661345 
L 121.572641 -57.78487 
L 120.5516 -58.541793 
L 119.529949 -59.298026 
L 118.508604 -60.054259 
L 117.487562 -60.810491 
L 116.466521 -61.566724 
L 115.445175 -62.323647 
L 114.424439 -63.08057 
L 113.402484 -63.836803 
L 112.381138 -64.593036 
L 111.360401 -65.348578 
L 110.339055 -66.104811 
L 109.318319 -66.861734 
L 108.296364 -67.618657 
L 107.275627 -68.37489 
L 106.25489 -69.131813 
L 105.233544 -69.887355 
L 104.21159 -70.643243 
L 103.191462 -71.400511 
L 102.170116 -72.157434 
L 101.149379 -72.913322 
L 100.127424 -73.669554 
L 99.106688 -74.425787 
L 98.085342 -75.18133 
L 97.064605 -75.938598 
L 96.04265 -76.695521 
L 95.022523 -77.452099 
L 94.001177 -78.208331 
L 92.979831 -78.964219 
L 91.957876 -79.720452 
L 90.937139 -80.477375 
L 89.916403 -81.233953 
L 88.895057 -81.990186 
L 87.873711 -82.746418 
L 86.85267 -83.502306 
L 85.831324 -84.259229 
L 84.810892 -85.016152 
L 83.869938 -85.711665 
L 82.931421 -86.407869 
L 81.992294 -87.103727 
L 81.052558 -87.798896 
L 80.112823 -88.494409 
L 79.173087 -89.189922 
L 78.234874 -89.886126 
L 77.295443 -90.581639 
L 76.356621 -91.277843 
L 75.416886 -91.974046 
L 74.476845 -92.669559 
L 73.538023 -93.365073 
L 72.598592 -94.060586 
L 71.660075 -94.7561 
L 70.720339 -95.452303 
L 69.780908 -96.147816 
L 68.471795 -97.118292 
L 67.572256 -97.755156 
L 66.672716 -98.39133 
L 65.77409 -99.028539 
L 64.874855 -99.665403 
L 64.873333 -99.666093 
L 64.871201 -99.668163 
L 64.870287 -99.669543 
" style="stroke: #000000"/>
    </defs>
    <g clip-path="url(#pfc0672d460)">
     <use xlink:href="#mda5e931faf" x="0" y="280.512" style="fill: #f5f5f5; stroke: #000000"/>
    </g>
   </g>
  </g>
 </g>
 <defs>
  <clipPath id="pfc0672d460">
   <rect x="7.2" y="7.2" width="267.723297" height="266.112"/>
  </clipPath>
 </defs>
</svg>
