<?xml version="1.0" encoding="utf-8" standalone="no"?>
<!DOCTYPE svg PUBLIC "-//W3C//DTD SVG 1.1//EN"
  "http://www.w3.org/Graphics/SVG/1.1/DTD/svg11.dtd">
<svg xmlns:xlink="http://www.w3.org/1999/xlink" width="333.04337pt" height="280.512pt" viewBox="0 0 333.04337 280.512" xmlns="http://www.w3.org/2000/svg" version="1.1">
 <metadata>
  <rdf:RDF xmlns:dc="http://purl.org/dc/elements/1.1/" xmlns:cc="http://creativecommons.org/ns#" xmlns:rdf="http://www.w3.org/1999/02/22-rdf-syntax-ns#">
   <cc:Work>
    <dc:type rdf:resource="http://purl.org/dc/dcmitype/StillImage"/>
    <dc:date>2024-03-04T13:11:08.893487</dc:date>
    <dc:format>image/svg+xml</dc:format>
    <dc:creator>
     <cc:Agent>
      <dc:title>Matplotlib v3.8.0, https://matplotlib.org/</dc:title>
     </cc:Agent>
    </dc:creator>
   </cc:Work>
  </rdf:RDF>
 </metadata>
 <defs>
  <style type="text/css">*{stroke-linejoin: round; stroke-linecap: butt}</style>
 </defs>
 <g id="figure_1">
  <g id="patch_1">
   <path d="M 0 280.512 
L 333.04337 280.512 
L 333.04337 0 
L 0 0 
z
" style="fill: #ffffff"/>
  </g>
  <g id="axes_1">
   <g id="PatchCollection_1">
    <defs>
     <path id="m4311420c4f" d="M 264.443789 -100.530816 
L 256.763624 -91.410311 
L 247.747778 -87.189953 
L 237.980611 -87.076653 
L 228.380405 -90.588898 
L 226.293404 -93.987844 
L 224.039443 -94.89423 
L 221.618521 -93.676274 
L 218.696719 -90.249004 
L 209.931313 -60.678171 
L 184.052496 -49.716569 
L 133.129663 -43.0603 
L 128.62174 -37.905231 
L 125.115578 -31.61718 
L 120.023294 -25.385778 
L 110.673528 -20.202386 
L 104.078604 -19.296 
L 55.159292 -25.838972 
L 45.893006 -32.750163 
L 45.893006 -46.487571 
L 22.602071 -82.969593 
L 36.292799 -89.22932 
L 40.884202 -90.418951 
L 56.828893 -101.947042 
L 54.074051 -119.28167 
L 39.882442 -131.971069 
L 21.68379 -129.535158 
L 24.355152 -141.99796 
L 37.711961 -165.224093 
L 37.79544 -169.444451 
L 31.033556 -174.033029 
L 32.035317 -184.37149 
L 36.54324 -195.44639 
L 40.132882 -202.046011 
L 57.997614 -209.353746 
L 70.436142 -252.548687 
L 95.981039 -251.217433 
L 119.689374 -260.309615 
L 132.044423 -261.216 
L 175.871452 -231.135326 
L 184.720337 -226.971617 
L 276.548397 -217.90776 
L 269.536073 -195.644662 
L 282.558961 -187.373893 
L 301.341973 -181.539035 
L 308.141925 -171.637281 
L 311.35958 -166.951891 
L 291.073926 -165.054145 
L 276.297957 -150.665272 
L 267.365591 -127.892333 
L 264.443789 -100.530816 
" style="stroke: #000000"/>
    </defs>
    <g clip-path="url(#p6f13889e03)">
     <use xlink:href="#m4311420c4f" x="0" y="280.512" style="fill: #f5f5f5; stroke: #000000"/>
    </g>
   </g>
  </g>
 </g>
 <defs>
  <clipPath id="p6f13889e03">
   <rect x="7.2" y="7.2" width="318.64337" height="266.112"/>
  </clipPath>
 </defs>
</svg>
