<?xml version="1.0" encoding="utf-8" standalone="no"?>
<!DOCTYPE svg PUBLIC "-//W3C//DTD SVG 1.1//EN"
  "http://www.w3.org/Graphics/SVG/1.1/DTD/svg11.dtd">
<svg xmlns:xlink="http://www.w3.org/1999/xlink" width="251.552929pt" height="280.512pt" viewBox="0 0 251.552929 280.512" xmlns="http://www.w3.org/2000/svg" version="1.1">
 <metadata>
  <rdf:RDF xmlns:dc="http://purl.org/dc/elements/1.1/" xmlns:cc="http://creativecommons.org/ns#" xmlns:rdf="http://www.w3.org/1999/02/22-rdf-syntax-ns#">
   <cc:Work>
    <dc:type rdf:resource="http://purl.org/dc/dcmitype/StillImage"/>
    <dc:date>2024-03-04T13:11:08.917091</dc:date>
    <dc:format>image/svg+xml</dc:format>
    <dc:creator>
     <cc:Agent>
      <dc:title>Matplotlib v3.8.0, https://matplotlib.org/</dc:title>
     </cc:Agent>
    </dc:creator>
   </cc:Work>
  </rdf:RDF>
 </metadata>
 <defs>
  <style type="text/css">*{stroke-linejoin: round; stroke-linecap: butt}</style>
 </defs>
 <g id="figure_1">
  <g id="patch_1">
   <path d="M 0 280.512 
L 251.552929 280.512 
L 251.552929 0 
L 0 0 
z
" style="fill: #ffffff"/>
  </g>
  <g id="axes_1">
   <g id="PatchCollection_1">
    <path d="M 42.410933 23.625656 
L 42.26529 24.13341 
L 41.643159 24.362541 
L 38.226833 25.174581 
L 37.699999 25.478866 
L 37.408713 25.808815 
L 37.210925 26.182756 
L 37.097647 26.580527 
L 37.061686 26.992963 
L 36.89986 27.207429 
L 36.117701 27.669357 
L 35.856981 27.88749 
L 35.705944 28.26693 
L 35.669983 28.547387 
L 35.54232 28.750855 
L 35.116178 28.897498 
L 34.445499 28.948824 
L 34.290866 29.068888 
L 34.238722 29.429999 
L 33.956425 30.099061 
L 33.307323 30.522494 
L 31.847294 31.035747 
L 31.70165 31.054078 
L 31.572189 31.035747 
L 31.462507 31.070575 
L 31.3762 31.242882 
L 31.36721 31.393191 
L 31.399575 31.583828 
L 31.467902 31.752469 
L 31.566795 31.845954 
L 32.638443 32.230894 
L 32.848817 32.383037 
L 32.963893 32.978777 
L 32.911749 34.340731 
L 32.854211 35.852994 
L 32.773298 37.971996 
L 32.690587 40.180817 
L 32.647433 41.331971 
L 32.586299 42.97438 
L 31.307874 42.961549 
L 29.723777 42.945052 
L 28.236777 43.159518 
L 27.394205 43.63375 
L 27.389958 43.627977 
L 26.546141 42.175973 
L 26.292713 41.053051 
L 26.691968 39.93013 
L 26.904338 39.728062 
L 27.095471 39.681875 
L 27.295099 39.667441 
L 27.53437 39.566407 
L 27.70285 39.381659 
L 27.770808 39.155054 
L 27.770808 38.599367 
L 27.719839 38.374205 
L 27.456501 37.742021 
L 27.148011 37.118594 
L 26.712596 35.930141 
L 26.725269 35.451392 
L 26.033861 34.217587 
L 25.899263 33.37157 
L 24.94459 32.217941 
L 24.133617 30.909231 
L 24.136449 30.71871 
L 24.342878 30.775773 
L 24.684224 30.844674 
L 24.91128 30.913829 
L 25.024769 31.017634 
L 25.138645 31.43271 
L 25.480256 31.512753 
L 25.76362 31.328429 
L 25.94532 31.039989 
L 25.967971 30.797809 
L 26.127218 30.705334 
L 26.115725 30.359462 
L 26.036076 30.198122 
L 25.876977 30.140575 
L 25.695243 30.12914 
L 25.558945 30.32525 
L 25.524757 30.579022 
L 25.536119 30.959633 
L 25.433833 31.051989 
L 25.308762 30.994431 
L 25.229403 30.636843 
L 25.115961 30.452321 
L 24.979634 30.406257 
L 24.888776 30.567755 
L 24.718251 30.579398 
L 24.513535 30.464203 
L 24.262941 30.499051 
L 23.898494 30.441663 
L 24.045746 30.246019 
L 26.007174 28.54922 
L 26.465681 27.79767 
L 26.994313 25.979288 
L 27.075226 25.898634 
L 27.282003 25.898634 
L 27.445627 25.999452 
L 27.603857 26.20292 
L 27.823221 26.617188 
L 27.977855 26.481543 
L 28.229584 26.382558 
L 28.4939 26.318402 
L 29.083666 26.256078 
L 29.331799 26.158927 
L 29.513404 25.940794 
L 30.239822 24.474357 
L 30.322533 24.104081 
L 30.300957 23.343367 
L 30.464581 23.095906 
L 30.935674 23.156396 
L 31.196394 23.132567 
L 32.381319 22.738462 
L 34.310644 22.379184 
L 34.583951 22.276534 
L 34.776344 22.071233 
L 35.153938 21.356344 
L 35.396676 21.072222 
L 35.680771 20.841258 
L 35.995433 20.657954 
L 36.230979 20.371998 
L 36.371228 19.948565 
L 36.569016 19.539795 
L 36.982571 19.296 
L 37.221714 19.383986 
L 37.347483 19.453264 
L 37.667634 19.629614 
L 37.906777 19.68094 
L 38.176487 19.624115 
L 38.385063 19.528797 
L 38.593638 19.5068 
L 38.865146 19.664442 
L 39.118674 20.021886 
L 39.431537 20.874253 
L 39.771372 21.266525 
L 40.460031 21.825604 
L 41.601803 23.215054 
L 42.410933 23.625656 
" clip-path="url(#p1b471f13c7)" style="fill: #f5f5f5; stroke: #000000"/>
    <path d="M 231.933414 134.243607 
L 232.052087 135.114304 
L 232.161769 135.414924 
L 232.499805 135.937342 
L 232.564535 136.197635 
L 232.453055 136.538581 
L 232.390123 136.855698 
L 232.404508 137.838211 
L 232.327191 138.521938 
L 232.426084 138.767566 
L 232.765919 138.822557 
L 232.693996 141.348496 
L 232.794688 141.801258 
L 233.562462 143.513324 
L 233.573251 143.725957 
L 233.40603 143.966086 
L 232.861216 144.393186 
L 232.672419 144.657145 
L 232.631064 144.853281 
L 232.62567 145.076913 
L 232.670621 145.504013 
L 232.668823 145.791801 
L 232.593304 146.000768 
L 232.111423 146.746818 
L 231.802155 147.454374 
L 231.710454 147.804486 
L 231.710454 148.253583 
L 231.843511 148.596362 
L 232.025116 148.933643 
L 232.174355 149.362576 
L 232.248076 150.687869 
L 232.328989 151.124134 
L 232.30022 151.303772 
L 231.926222 152.167137 
L 231.821934 154.451113 
L 231.70506 156.938558 
L 231.796761 157.732267 
L 232.174355 158.282181 
L 232.614881 158.744109 
L 232.79289 159.191372 
L 232.864812 160.274703 
L 233.035629 161.073911 
L 232.987081 161.376364 
L 232.845034 161.678816 
L 232.257066 162.538515 
L 231.469513 163.693335 
L 231.259139 164.204755 
L 230.946276 165.440228 
L 230.615432 166.749023 
L 230.277395 167.548232 
L 230.162319 168.250289 
L 230.320549 168.818533 
L 230.674768 169.315289 
L 231.622349 170.288637 
L 232.008933 170.798224 
L 232.305614 171.360969 
L 232.510593 172.006201 
L 231.947799 172.006201 
L 229.788321 172.006201 
L 227.625247 172.006201 
L 225.463972 172.006201 
L 223.300898 172.006201 
L 221.137824 172.006201 
L 218.976548 172.006201 
L 216.813475 172.006201 
L 214.650401 172.006201 
L 212.489125 172.006201 
L 210.326051 172.006201 
L 208.164776 172.006201 
L 206.0035 172.006201 
L 203.842224 172.006201 
L 201.680949 172.006201 
L 199.517875 172.006201 
L 197.354801 172.006201 
L 197.356599 174.678783 
L 197.358397 177.348616 
L 197.360195 180.023031 
L 197.361993 182.695613 
L 197.363074 184.303198 
L 197.363792 185.370028 
L 197.36559 188.040777 
L 197.367388 190.715192 
L 197.369186 193.385941 
L 197.370984 196.058523 
L 197.372782 198.732938 
L 197.37458 201.40552 
L 197.376378 204.078102 
L 197.378176 206.750684 
L 197.379974 209.423266 
L 197.381772 212.095848 
L 197.38357 214.76843 
L 197.38357 215.474153 
L 197.38357 215.849928 
L 197.38357 216.387011 
L 197.38357 217.167889 
L 197.381772 218.978939 
L 197.378176 220.788156 
L 197.372782 222.597373 
L 197.370984 224.408423 
L 197.367388 225.209464 
L 197.38357 225.258957 
L 197.38357 226.384447 
L 197.38357 227.460446 
L 197.38357 227.746401 
L 197.423128 228.129508 
L 197.885231 228.701418 
L 198.491179 229.661935 
L 198.050653 229.676599 
L 197.908606 229.661935 
L 198.093806 229.911229 
L 198.156739 230.134861 
L 198.187306 230.360325 
L 198.264623 230.620618 
L 198.34194 230.725102 
L 198.550515 230.90474 
L 198.609851 230.983561 
L 198.638621 231.155868 
L 198.647611 231.54814 
L 198.67638 231.654456 
L 199.255357 231.784603 
L 199.54125 231.916582 
L 199.507087 232.138381 
L 199.345261 232.365678 
L 199.201415 232.677296 
L 199.109714 233.009078 
L 199.095329 233.306031 
L 199.176242 233.525997 
L 199.474721 234.019087 
L 199.571817 234.27388 
L 199.55923 234.515842 
L 199.514279 234.706479 
L 199.586201 234.834792 
L 199.918844 234.878785 
L 200.107641 234.988768 
L 200.183159 235.245395 
L 200.229909 235.546014 
L 200.343187 235.787977 
L 201.840977 236.990455 
L 202.076523 237.071109 
L 202.211378 237.056445 
L 202.473896 236.95746 
L 202.641116 236.917133 
L 202.704048 236.862142 
L 202.763385 236.829147 
L 202.847894 236.878639 
L 202.977354 237.016118 
L 203.045681 237.056445 
L 203.509582 237.135266 
L 203.680398 237.303906 
L 203.795475 237.536703 
L 204.068781 237.901479 
L 204.187453 238.114113 
L 204.280953 238.22043 
L 204.378048 238.268089 
L 204.656748 238.319414 
L 204.818574 238.414733 
L 204.953429 238.568708 
L 206.213874 240.535568 
L 206.399075 241.034156 
L 206.55191 241.259621 
L 206.801842 241.409931 
L 207.35205 241.578571 
L 207.573212 241.804036 
L 207.609173 241.947013 
L 207.607375 242.256798 
L 207.681096 242.408941 
L 207.783586 242.485929 
L 208.004748 242.487762 
L 209.042232 242.900198 
L 209.284971 243.07617 
L 210.065332 243.90654 
L 210.417753 244.370301 
L 210.66229 244.843227 
L 210.854683 245.669931 
L 211.016509 245.932057 
L 211.244863 246.122694 
L 211.786081 246.406816 
L 212.478337 247.020887 
L 212.947632 247.323339 
L 213.997703 247.770603 
L 214.826611 247.992401 
L 215.078341 248.133546 
L 215.804759 248.901592 
L 215.909047 249.103228 
L 216.043902 249.57982 
L 216.372948 250.107737 
L 216.800888 250.587995 
L 217.216242 250.919777 
L 217.985814 251.213064 
L 218.167419 251.403701 
L 218.217764 251.687823 
L 218.180005 251.964613 
L 218.190793 252.217574 
L 218.402965 252.439373 
L 218.703242 252.52186 
L 219.003519 252.488865 
L 219.3002 252.41371 
L 219.596881 252.373383 
L 220.161474 252.419209 
L 220.415001 252.492531 
L 220.672125 252.613512 
L 221.028142 252.868305 
L 221.35539 253.260577 
L 221.752763 253.583194 
L 221.628696 253.837987 
L 221.643081 254.065285 
L 221.741974 254.294416 
L 220.287339 254.573039 
L 216.736158 255.256765 
L 213.184977 255.942325 
L 209.633796 256.629717 
L 206.080817 257.313444 
L 201.715112 258.132816 
L 197.347609 258.952187 
L 192.981904 259.769726 
L 188.616199 260.589098 
L 187.362947 260.823728 
L 187.037497 260.91538 
L 186.938603 260.882385 
L 186.654509 260.517609 
L 186.136666 260.268315 
L 185.145931 259.923702 
L 184.35658 259.496602 
L 184.076082 259.428779 
L 183.365845 259.474606 
L 183.114116 259.428779 
L 182.797656 259.483771 
L 182.500975 259.613917 
L 182.211487 259.683573 
L 181.927392 259.560759 
L 180.319921 259.986026 
L 180.07187 260.051932 
L 178.71245 260.413126 
L 178.471509 260.882385 
L 177.899724 260.992368 
L 177.383679 261.179339 
L 176.93596 261.216 
L 176.560164 260.882385 
L 176.035129 260.622093 
L 175.740246 260.543272 
L 175.608987 260.700914 
L 175.479527 260.774236 
L 175.195432 260.726577 
L 174.907742 260.605595 
L 174.778281 260.457119 
L 174.501379 260.308642 
L 173.872055 260.249984 
L 173.186992 260.282979 
L 172.748264 260.396628 
L 172.5289 260.288478 
L 172.025441 259.923702 
L 171.426685 259.632248 
L 171.252273 259.494769 
L 170.914236 259.12816 
L 170.522258 258.787213 
L 170.088924 258.603908 
L 169.639407 258.713891 
L 168.959738 258.156645 
L 168.758355 258.085156 
L 168.177579 258.18964 
L 167.936638 258.204304 
L 167.74964 258.085156 
L 167.145489 258.580079 
L 166.73553 258.413272 
L 166.269831 258.391275 
L 165.854478 258.497592 
L 165.599152 258.713891 
L 165.469692 258.580079 
L 165.223356 258.686396 
L 164.9968 258.721223 
L 164.520313 258.713891 
L 163.506203 258.812876 
L 163.337185 258.789046 
L 162.72764 258.580079 
L 162.074942 258.217136 
L 159.325699 258.217136 
L 159.216017 258.290458 
L 159.012835 258.620406 
L 158.926528 258.713891 
L 158.651424 258.691895 
L 158.248657 258.567248 
L 157.887246 258.405939 
L 157.729016 258.277626 
L 157.572584 257.958676 
L 157.214769 257.868857 
L 156.817397 257.909184 
L 155.826662 258.127316 
L 152.841872 258.16581 
L 150.078244 257.35927 
L 149.80314 257.183297 
L 149.024577 257.238289 
L 148.506734 257.133805 
L 148.310745 257.128306 
L 147.936747 257.205294 
L 147.341587 257.434425 
L 145.870769 257.507747 
L 143.599811 257.098977 
L 142.04808 256.341929 
L 141.372007 256.184287 
L 141.132864 255.982652 
L 140.785837 255.531722 
L 139.787911 254.507049 
L 139.62069 254.3934 
L 139.298837 254.239424 
L 139.133414 254.078116 
L 139.039915 253.916808 
L 138.95181 253.603357 
L 138.89607 253.473211 
L 137.988046 252.736326 
L 137.756096 252.613512 
L 137.700356 252.417376 
L 137.103398 251.28272 
L 136.688044 251.161739 
L 136.637698 251.125078 
L 136.607131 250.941773 
L 136.321239 250.270878 
L 136.207961 250.181059 
L 136.094682 250.111403 
L 136.03175 249.946429 
L 136.006577 249.838279 
L 135.869924 249.827281 
L 134.940324 249.827281 
L 130.475725 249.825448 
L 128.123868 249.824482 
L 126.012925 249.823615 
L 121.550124 249.821782 
L 117.087324 249.821782 
L 115.571487 249.82116 
L 112.622725 249.819949 
L 108.158126 249.818116 
L 103.695326 249.818116 
L 99.232525 249.816283 
L 94.771523 249.816283 
L 90.306924 249.816283 
L 85.844124 249.81445 
L 85.650515 249.81437 
L 81.381323 249.812617 
L 76.918522 249.810784 
L 72.453924 249.810784 
L 67.989325 249.808951 
L 63.526525 249.807118 
L 62.338018 249.807118 
L 62.332609 249.807118 
L 62.134821 249.805284 
L 62.118639 249.895104 
L 61.955015 250.247049 
L 61.570229 250.305706 
L 60.800656 250.181059 
L 60.681984 250.223219 
L 60.408678 250.380861 
L 60.218083 250.435853 
L 60.011305 250.435853 
L 59.729009 250.347866 
L 59.351415 250.30204 
L 59.033157 250.203056 
L 58.837168 250.181059 
L 58.680736 250.221386 
L 58.403834 250.395526 
L 58.188066 250.435853 
L 57.783501 250.357032 
L 57.529974 250.162729 
L 56.731632 249.114226 
L 56.514066 248.927255 
L 54.879624 248.032728 
L 53.204725 247.119871 
L 51.679965 245.89173 
L 50.198358 245.085189 
L 50.365578 244.577435 
L 50.214541 244.287814 
L 49.962812 244.049518 
L 49.734457 243.349294 
L 49.475536 243.105499 
L 49.112326 242.955189 
L 48.698771 242.905697 
L 48.387705 242.812211 
L 47.774565 242.397943 
L 47.456307 242.28796 
L 47.147253 242.368271 
L 46.722696 242.478597 
L 46.613014 242.469432 
L 46.494342 242.394277 
L 46.22643 242.458433 
L 45.782307 242.663735 
L 45.782307 242.531755 
L 45.602501 242.597745 
L 45.395723 242.592246 
L 45.005543 242.531755 
L 44.818544 242.440103 
L 44.703468 242.267797 
L 44.575805 242.166979 
L 44.345652 242.28796 
L 44.022001 242.055163 
L 43.642609 242.078993 
L 43.247034 242.210972 
L 41.377045 242.531755 
L 40.461829 243.054174 
L 39.918813 243.175155 
L 39.580777 243.340129 
L 39.165423 243.451945 
L 39.080914 243.624251 
L 39.050347 243.824053 
L 38.978425 243.983528 
L 38.827387 244.086179 
L 38.51812 244.179664 
L 38.385063 244.236489 
L 38.225035 244.373967 
L 38.082988 244.632427 
L 37.967911 244.782737 
L 37.376348 244.964208 
L 36.603179 245.327151 
L 35.991836 245.836738 
L 35.664588 246.001713 
L 35.22586 246.064036 
L 34.799718 246.207014 
L 34.021156 246.870577 
L 33.59861 247.08321 
L 33.379246 247.101541 
L 32.764307 246.964062 
L 31.743006 246.879742 
L 31.415758 246.771592 
L 31.002202 246.531463 
L 30.822396 246.542461 
L 30.585051 246.731265 
L 30.333322 246.832083 
L 29.205934 246.791756 
L 27.952682 246.910904 
L 27.895144 246.837582 
L 27.846596 246.670775 
L 27.763885 246.503967 
L 27.598463 246.428813 
L 27.41506 246.384819 
L 27.219071 246.280336 
L 27.048255 246.161188 
L 26.951159 246.064036 
L 26.882833 245.924725 
L 26.854064 245.789079 
L 26.812708 245.668098 
L 26.701228 245.569114 
L 26.5412 245.517788 
L 26.456691 245.567281 
L 26.363191 245.647935 
L 26.165404 245.690095 
L 25.568446 245.514122 
L 25.388639 245.400473 
L 25.264573 245.391308 
L 25.162083 245.429802 
L 25.039815 245.459131 
L 24.234281 245.565448 
L 23.435939 245.794578 
L 22.723905 246.124527 
L 21.903987 246.729432 
L 21.190155 247.063047 
L 20.870099 247.27568 
L 20.767609 247.418658 
L 20.72985 247.535973 
L 20.641744 247.612961 
L 20.384621 247.638623 
L 20.197622 247.601962 
L 19.895547 247.44432 
L 19.663564 247.405942 
L 19.66252 247.405032 
L 19.66252 247.273688 
L 19.52094 247.165437 
L 19.430329 246.987906 
L 19.394934 246.769961 
L 19.413339 246.536139 
L 19.532267 245.853438 
L 19.543593 243.508004 
L 19.766739 241.983658 
L 19.904157 240.608102 
L 19.697665 239.349799 
L 19.697613 238.812953 
L 20.006945 238.729041 
L 20.093037 239.483915 
L 20.31641 239.802291 
L 20.608069 239.047425 
L 20.558722 237.685555 
L 20.65358 237.229458 
L 20.492179 235.543633 
L 20.633759 233.684606 
L 19.889048 226.958624 
L 19.900375 226.610778 
L 19.982491 226.323552 
L 20.373252 225.521053 
L 19.979711 224.702021 
L 19.149202 223.417417 
L 19.130179 222.653129 
L 19.413339 221.624025 
L 19.617215 221.46237 
L 19.985323 221.237209 
L 20.337857 221.094318 
L 20.492179 221.196795 
L 20.571464 221.505671 
L 20.771092 221.600931 
L 21.021688 221.525878 
L 21.899485 220.694512 
L 22.049559 220.423163 
L 22.104776 220.185011 
L 22.121765 219.689944 
L 22.168487 219.444576 
L 22.522437 219.023119 
L 23.592782 218.399595 
L 23.820726 217.992572 
L 23.878773 217.478741 
L 24.22706 216.145092 
L 24.433767 215.668788 
L 24.25396 215.201145 
L 24.313424 214.677211 
L 24.542784 213.6712 
L 24.71268 211.585569 
L 24.806123 211.315663 
L 24.959029 211.081842 
L 25.557912 210.516051 
L 25.688166 210.484297 
L 25.954336 210.625745 
L 26.097332 210.625745 
L 26.258734 210.44244 
L 26.336603 210.146555 
L 26.322445 209.831906 
L 26.21626 209.592311 
L 25.957168 209.46241 
L 25.773114 209.520144 
L 25.688166 209.494163 
L 25.732056 209.117451 
L 25.903368 208.554547 
L 26.360671 207.487915 
L 26.454114 206.867278 
L 26.523488 206.627683 
L 26.690553 206.431388 
L 26.887349 206.25097 
L 27.047334 206.069108 
L 27.143609 205.82807 
L 27.303594 204.855256 
L 27.30501 204.621435 
L 27.346068 204.49442 
L 27.474906 204.332766 
L 27.592417 204.329879 
L 27.707097 204.363076 
L 27.830272 204.312559 
L 27.981762 204.081624 
L 28.129006 203.590887 
L 28.475877 203.027983 
L 28.468798 202.713334 
L 28.395176 202.392912 
L 28.365444 202.060943 
L 28.406503 201.838668 
L 28.543835 201.434531 
L 28.824164 200.135522 
L 28.93318 198.718158 
L 29.018128 198.478563 
L 29.292793 198.02824 
L 29.495253 197.404715 
L 29.683554 196.226947 
L 29.740186 195.089592 
L 29.683554 194.512254 
L 29.4995 193.91471 
L 29.372078 193.628928 
L 29.335267 193.494697 
L 29.316862 193.311392 
L 29.292793 193.217575 
L 29.214924 193.048704 
L 29.197935 192.94767 
L 29.222003 192.819212 
L 29.281467 192.826429 
L 29.360752 192.863956 
L 29.510827 192.791789 
L 29.720365 192.754262 
L 29.801066 192.705188 
L 29.873272 192.569514 
L 29.911498 192.407859 
L 29.921409 192.240431 
L 29.910082 192.087437 
L 29.771334 191.842068 
L 29.558964 191.602473 
L 29.451363 191.351331 
L 29.72886 190.901008 
L 29.81664 190.522852 
L 30.166342 190.104282 
L 30.247043 189.850254 
L 30.29518 189.581792 
L 30.395702 189.31333 
L 30.688772 188.857233 
L 30.739741 188.675372 
L 30.762394 188.054734 
L 30.816194 187.774725 
L 30.960606 187.562554 
L 31.37402 187.432653 
L 31.474542 187.341722 
L 31.5694 187.276772 
L 31.702485 187.301309 
L 31.94034 187.488943 
L 32.053604 187.55245 
L 32.181026 187.536574 
L 32.472681 187.148314 
L 32.585945 186.51613 
L 32.713367 184.662876 
L 32.651072 182.919317 
L 32.706288 182.708589 
L 32.954053 182.243832 
L 33.01918 182.004237 
L 32.840789 181.755982 
L 32.815304 181.631854 
L 32.846452 181.5568 
L 32.891758 181.490406 
L 32.900252 180.927502 
L 32.857778 180.65904 
L 32.689298 180.096136 
L 32.651072 179.820458 
L 32.696377 179.534675 
L 32.815304 179.261883 
L 33.003606 179.056929 
L 33.251371 178.978988 
L 33.613816 178.938574 
L 33.742654 178.82455 
L 33.836096 178.635472 
L 34.078198 178.372784 
L 34.362774 178.222676 
L 34.590718 178.173602 
L 34.769109 178.069681 
L 34.907857 177.755032 
L 34.922015 177.590491 
L 34.880957 177.457704 
L 34.828572 177.336463 
L 34.800256 177.205118 
L 34.838483 177.088208 
L 34.999884 176.91212 
L 35.040942 176.787992 
L 35.152791 176.513757 
L 35.649737 176.251068 
L 35.763001 176.049 
L 35.80689 175.852705 
L 35.908828 175.844045 
L 36.027755 175.907552 
L 36.119782 175.927759 
L 36.442585 175.714144 
L 36.462406 175.685277 
L 36.775298 175.551046 
L 36.979173 175.402382 
L 38.121724 173.927285 
L 38.61867 173.567892 
L 38.79706 173.375927 
L 39.095794 172.902511 
L 40.168971 171.667008 
L 40.409657 171.190705 
L 40.412488 170.723061 
L 40.249671 170.243871 
L 39.994827 169.741588 
L 39.867405 169.178683 
L 40.075528 168.72836 
L 40.879703 167.902767 
L 41.295948 167.661729 
L 42.434251 166.570561 
L 42.887307 166.329523 
L 43.028887 166.206838 
L 43.329037 165.674245 
L 43.439469 165.535684 
L 43.940663 165.08536 
L 44.235149 164.916489 
L 44.573525 164.874632 
L 44.589099 164.949686 
L 44.974197 165.013193 
L 45.178072 165.117114 
L 45.728818 164.577303 
L 45.945436 164.500806 
L 46.248417 164.551323 
L 46.548567 164.788031 
L 46.841637 164.874632 
L 47.461758 164.756278 
L 47.964367 164.360802 
L 48.743057 163.532322 
L 49.126739 163.240767 
L 49.292388 163.019935 
L 49.357514 162.74137 
L 49.391494 162.008151 
L 49.462284 161.677626 
L 49.593953 161.352873 
L 49.92525 160.830383 
L 51.02108 159.768082 
L 51.140007 159.768082 
L 51.140007 159.889323 
L 50.957369 159.955716 
L 50.841273 160.066854 
L 50.815789 160.214075 
L 50.902152 160.382946 
L 51.175402 160.114484 
L 51.523689 159.54292 
L 52.09284 158.916509 
L 52.259905 158.655264 
L 52.673319 157.252333 
L 53.191501 156.200136 
L 53.395377 155.628572 
L 53.570936 154.393069 
L 53.698358 154.115947 
L 53.95037 153.848929 
L 54.155661 153.55593 
L 54.325557 153.223961 
L 54.46289 152.834258 
L 54.741803 151.067605 
L 54.911699 150.536454 
L 54.952757 150.168402 
L 54.65827 146.956962 
L 54.731892 145.040201 
L 54.802682 144.636065 
L 54.952757 144.322859 
L 54.814008 144.162648 
L 54.826751 143.963467 
L 54.90462 143.744078 
L 54.952757 143.530464 
L 54.945678 142.564866 
L 54.964083 142.400325 
L 55.049031 142.208361 
L 55.377497 141.750821 
L 55.422803 141.538649 
L 55.425634 141.053686 
L 55.856037 138.524947 
L 55.871611 137.491513 
L 55.890017 136.19106 
L 55.802237 135.545885 
L 55.544561 134.977208 
L 53.990013 132.666415 
L 53.854096 132.327229 
L 53.848433 132.024126 
L 53.992844 131.723911 
L 54.520938 131.085953 
L 54.554917 130.795841 
L 54.437406 130.514389 
L 54.227867 130.232937 
L 53.505809 129.628176 
L 53.395377 129.449201 
L 53.321755 129.252906 
L 51.673764 127.253875 
L 50.563776 126.340238 
L 50.307516 125.982289 
L 50.221153 125.65032 
L 50.188589 124.452345 
L 50.129125 124.065529 
L 49.983298 123.685929 
L 49.046038 122.350836 
L 48.829421 121.953917 
L 48.629793 121.08791 
L 48.353712 120.724188 
L 47.682623 120.027053 
L 46.650504 118.352774 
L 46.692978 118.091528 
L 46.85438 117.84183 
L 46.960565 117.472334 
L 46.8204 116.750662 
L 46.442382 115.978473 
L 45.965257 115.255358 
L 44.583436 113.605616 
L 44.454598 113.27509 
L 44.540962 112.969101 
L 44.931723 112.550532 
L 45.049234 112.232996 
L 45.02375 111.929894 
L 44.917565 111.574831 
L 44.775985 111.277502 
L 44.632989 111.154818 
L 44.649979 110.951307 
L 44.085074 109.308781 
L 44.056758 108.971039 
L 44.097817 108.175756 
L 44.025611 107.902964 
L 43.698561 107.282327 
L 43.623523 106.894067 
L 43.227099 106.589521 
L 41.9189 104.389865 
L 41.421954 103.214984 
L 41.065172 102.701153 
L 40.995798 101.711019 
L 41.655561 100.319636 
L 42.632463 99.127434 
L 43.504596 98.749278 
L 43.125162 99.315069 
L 41.873594 100.371596 
L 41.247811 101.84525 
L 41.131715 102.314337 
L 41.355411 102.522179 
L 41.536634 102.366297 
L 42.513536 100.693462 
L 42.553178 100.513044 
L 42.640958 100.322523 
L 42.849081 100.264789 
L 43.085519 100.259015 
L 43.266742 100.224375 
L 43.52017 99.987667 
L 43.708471 99.404556 
L 43.919426 99.049493 
L 44.356908 98.58185 
L 44.454598 98.385555 
L 44.471588 98.190704 
L 44.444688 97.775021 
L 44.514062 97.597489 
L 45.027997 97.025925 
L 45.330979 96.792104 
L 45.64387 96.688183 
L 44.777401 97.565736 
L 44.573525 97.900592 
L 44.819875 97.753371 
L 45.397521 97.490682 
L 45.716076 97.281397 
L 45.854825 97.251087 
L 45.965257 97.17892 
L 46.009147 96.986955 
L 46.017642 96.864271 
L 46.051621 96.770453 
L 46.123827 96.709833 
L 46.247001 96.688183 
L 47.324425 96.844064 
L 47.742086 96.692513 
L 47.971446 95.791866 
L 48.227706 95.129371 
L 48.277259 94.863796 
L 48.193727 94.601108 
L 47.682623 93.882322 
L 47.485826 93.354059 
L 47.253635 92.1633 
L 47.079492 91.591736 
L 47.313099 91.541219 
L 47.478747 91.564312 
L 47.610417 91.538332 
L 47.737839 91.349254 
L 47.78456 91.176053 
L 47.80155 89.84096 
L 47.720849 89.45703 
L 47.555201 89.03846 
L 45.945436 86.473638 
L 45.737313 86.310541 
L 45.49238 85.508041 
L 45.346552 85.202053 
L 45.20922 85.002871 
L 44.999681 84.535228 
L 44.877922 84.35048 
L 44.573525 83.683655 
L 44.422035 82.871052 
L 43.266742 80.770987 
L 40.890497 75.331529 
L 40.072378 73.297378 
L 39.588557 71.508571 
L 39.108779 70.987916 
L 38.850597 70.690519 
L 38.518454 70.281401 
L 38.609421 69.667033 
L 38.516609 69.201888 
L 38.227909 65.667837 
L 38.056597 65.12514 
L 38.019786 64.840801 
L 37.99147 64.74987 
L 37.939085 64.68492 
L 37.913601 64.6243 
L 37.960322 64.539142 
L 38.076418 64.399138 
L 38.127387 64.308207 
L 38.169861 64.126346 
L 38.219414 64.071499 
L 38.232156 64.009435 
L 38.15004 63.872317 
L 37.641767 64.204286 
L 37.294896 64.052735 
L 36.029171 62.270206 
L 34.525105 60.86198 
L 33.310881 59.049662 
L 31.702485 56.089807 
L 31.072232 54.586428 
L 30.613313 53.583736 
L 30.147937 52.931771 
L 29.725489 52.336798 
L 29.283699 51.733661 
L 28.592979 50.448968 
L 28.516668 49.864827 
L 28.78169 49.5428 
L 29.170711 49.435201 
L 29.535932 49.220434 
L 29.420482 49.493117 
L 29.381672 49.999335 
L 29.766017 49.959605 
L 30.380731 49.783216 
L 31.263681 49.762215 
L 32.376571 49.50701 
L 32.913117 49.156407 
L 33.296393 49.019793 
L 33.832983 48.941258 
L 34.740793 48.438642 
L 34.961658 48.343381 
L 35.384382 48.356229 
L 35.748596 48.49188 
L 36.189503 48.627452 
L 36.649537 48.704677 
L 37.147654 48.568154 
L 37.952479 48.392412 
L 38.718618 48.11923 
L 39.082526 47.846799 
L 39.868592 47.496195 
L 40.193941 47.048763 
L 40.538476 46.620668 
L 40.653047 46.290091 
L 40.883042 46.075938 
L 41.322485 45.977787 
L 41.648312 45.938322 
L 41.935451 45.801732 
L 42.242391 45.840026 
L 42.878812 45.8998 
L 43.074193 45.88248 
L 43.375758 45.764126 
L 44.080827 45.37731 
L 44.327176 45.283492 
L 44.345652 45.282186 
L 45.814673 45.408666 
L 46.539293 45.593804 
L 47.087704 45.888925 
L 47.280097 45.74778 
L 47.632518 45.36284 
L 47.747594 45.282186 
L 48.319379 45.293184 
L 49.709284 45.318847 
L 50.221733 45.480155 
L 50.432107 45.47099 
L 50.750365 45.335344 
L 50.915787 45.300517 
L 52.289509 45.448993 
L 55.170911 45.21253 
L 57.544358 45.02006 
L 58.218633 45.227195 
L 58.635784 45.469157 
L 58.894706 45.568141 
L 60.96428 45.408666 
L 61.363451 45.454492 
L 62.391945 45.824768 
L 62.733577 45.870594 
L 64.547826 45.905422 
L 66.122932 45.938417 
L 66.914082 45.799105 
L 68.019892 46.085061 
L 68.557514 46.138219 
L 70.769136 45.725783 
L 71.74198 45.709327 
L 72.394588 45.698288 
L 73.98228 45.670792 
L 75.568175 45.643296 
L 77.155867 45.617634 
L 78.74356 45.590138 
L 80.331252 45.562642 
L 81.917147 45.53698 
L 83.504839 45.509484 
L 85.092532 45.483821 
L 86.680224 45.456326 
L 88.267917 45.430663 
L 89.853811 45.403167 
L 91.443302 45.375671 
L 93.029196 45.348176 
L 94.616889 45.32068 
L 95.075384 45.312731 
L 96.202784 45.293184 
L 97.792274 45.267522 
L 98.813576 45.251024 
L 99.257698 45.342677 
L 99.557975 45.527814 
L 99.833079 45.751446 
L 100.212471 45.951248 
L 100.496566 45.998907 
L 100.757285 45.960413 
L 101.314686 45.793606 
L 101.659915 45.740448 
L 101.972778 45.751446 
L 102.282046 45.826601 
L 102.940138 46.097892 
L 103.067801 46.169381 
L 103.713306 46.49383 
L 103.655768 46.64414 
L 103.42202 46.924596 
L 103.423818 47.038245 
L 103.591038 47.261876 
L 103.677345 47.448847 
L 103.70971 47.613821 
L 103.779835 48.726481 
L 103.833777 48.926283 
L 103.934469 48.915285 
L 104.098093 48.832797 
L 104.252726 48.810801 
L 104.319255 48.986773 
L 103.952449 49.421205 
L 104.297678 49.456033 
L 104.508052 49.615508 
L 104.804733 50.027944 
L 105.007914 50.137927 
L 105.239865 50.211249 
L 105.426864 50.328564 
L 105.505979 50.56686 
L 105.809852 50.916972 
L 105.964485 51.184596 
L 105.92313 51.419226 
L 105.799063 51.644691 
L 105.75591 51.936145 
L 105.766698 53.235776 
L 105.793669 53.386085 
L 105.849409 53.55106 
L 105.887169 53.725199 
L 105.863794 53.901171 
L 105.7649 53.965328 
L 105.604872 53.978159 
L 105.453835 54.033151 
L 105.387306 54.210956 
L 105.376518 54.894683 
L 105.407085 54.962506 
L 105.505979 55.123814 
L 105.621055 55.197135 
L 105.736131 55.171473 
L 105.827832 55.195302 
L 105.863794 55.426266 
L 105.763102 55.65723 
L 105.604872 55.902858 
L 105.604872 56.076998 
L 105.982466 56.093495 
L 105.869188 56.351955 
L 105.87638 56.551757 
L 105.986062 56.716731 
L 106.165869 56.885371 
L 106.322301 57.087007 
L 106.31331 57.25748 
L 106.09934 57.625922 
L 106.03461 57.935707 
L 106.09035 58.223496 
L 106.345676 58.817403 
L 106.421194 59.130854 
L 106.47154 59.785251 
L 106.548857 60.102368 
L 106.683712 60.39199 
L 107.640283 61.753943 
L 107.706812 62.014236 
L 107.735581 62.272696 
L 107.8111 62.510992 
L 108.012483 62.699796 
L 108.20128 62.765785 
L 108.620229 62.809778 
L 108.818017 62.853771 
L 109.238764 63.154391 
L 109.44734 63.588823 
L 109.578599 64.602498 
L 109.537243 64.67582 
L 109.476109 64.842627 
L 109.477907 65.009434 
L 109.632541 65.086422 
L 109.832126 65.128582 
L 109.94001 65.236732 
L 110.010135 65.377877 
L 110.101836 65.515355 
L 110.251076 65.826973 
L 110.184547 66.103763 
L 110.062279 66.406216 
L 110.0425 66.792989 
L 109.485099 66.640846 
L 109.449138 67.084443 
L 109.805155 68.244762 
L 109.77279 69.19428 
L 109.862693 69.346423 
L 110.031711 69.450906 
L 110.245681 69.683703 
L 110.527978 70.085141 
L 110.572929 70.363764 
L 110.572929 70.638721 
L 110.650246 70.849521 
L 111.115945 70.992499 
L 111.703913 71.415932 
L 112.15343 71.635898 
L 112.342227 71.813704 
L 112.419543 72.081328 
L 112.421225 72.274455 
L 112.424938 72.700898 
L 112.527427 72.944693 
L 112.773763 73.111501 
L 112.914012 72.862206 
L 113.0183 72.829211 
L 113.122587 72.902533 
L 113.261038 72.979521 
L 113.63144 73.076673 
L 113.78967 73.15916 
L 113.8544 73.287473 
L 113.760901 73.397456 
L 113.555921 73.467112 
L 113.354538 73.567929 
L 113.261038 73.77873 
L 113.302394 73.94737 
L 113.413874 74.062852 
L 113.561316 74.171002 
L 113.72494 74.323144 
L 113.958688 74.722749 
L 114.248177 75.573282 
L 114.507098 75.958222 
L 115.355786 76.390821 
L 115.701014 76.652947 
L 115.636284 76.986561 
L 115.718995 77.27435 
L 115.702813 77.690451 
L 115.744168 77.970907 
L 116.00309 77.84626 
L 116.040849 77.981906 
L 116.078608 78.013067 
L 116.078608 78.022233 
L 116.00309 78.099221 
L 116.292578 78.222035 
L 116.296174 78.377844 
L 116.184694 78.544651 
L 116.121762 78.704126 
L 116.215261 78.931424 
L 116.529923 79.215546 
L 116.596451 79.375021 
L 116.675566 79.470339 
L 117.076535 79.528997 
L 117.24915 79.616983 
L 117.276121 79.78379 
L 117.261736 80.003756 
L 117.346245 80.165064 
L 117.677089 80.16873 
L 117.677089 80.289711 
L 117.515263 80.449186 
L 117.635734 80.48768 
L 117.865886 80.489513 
L 118.034905 80.531673 
L 118.087048 80.731476 
L 118.078058 80.958773 
L 118.135596 81.092586 
L 118.389124 81.015598 
L 118.588709 81.242896 
L 118.523979 81.400538 
L 118.362153 81.565512 
L 118.270451 81.807474 
L 118.335182 81.924789 
L 118.491613 82.040271 
L 118.865611 82.227242 
L 118.7829 82.359221 
L 118.77391 82.410546 
L 118.811669 82.460039 
L 118.865611 82.590185 
L 118.914159 82.513197 
L 119.020245 82.423378 
L 119.101158 82.337224 
L 119.259388 82.901803 
L 119.351089 83.074109 
L 119.5273 83.239083 
L 119.910288 83.438886 
L 120.052335 83.569032 
L 120.113469 83.869651 
L 119.910288 84.375572 
L 120.046898 84.638243 
L 120.052335 84.648696 
L 120.18719 84.804505 
L 121.159944 85.0483 
L 121.650816 85.039135 
L 123.127028 84.513051 
L 123.650266 84.555211 
L 124.240031 84.778843 
L 124.454001 84.751347 
L 125.536437 84.148275 
L 125.818734 84.089617 
L 126.399509 84.153774 
L 126.911958 84.403068 
L 127.800203 85.169282 
L 128.264104 85.273765 
L 129.823027 85.238937 
L 129.711547 84.793507 
L 129.731326 84.300417 
L 129.893152 83.891648 
L 130.209611 83.699178 
L 130.477523 83.629522 
L 131.187759 83.286743 
L 131.468258 83.246416 
L 132.766462 83.297741 
L 133.616947 83.330736 
L 134.267847 83.583696 
L 134.492605 83.598361 
L 134.760517 83.51954 
L 135.141707 83.312405 
L 135.431196 83.270245 
L 136.497449 83.253748 
L 136.603535 83.270245 
L 136.946966 83.257414 
L 136.853466 82.593851 
L 136.889428 82.249238 
L 137.1016 82.098928 
L 138.35665 82.100761 
L 139.717786 82.100761 
L 140.963846 82.100761 
L 141.116682 82.197913 
L 141.199393 82.696502 
L 141.307277 82.914634 
L 141.576987 83.336235 
L 142.346559 83.336235 
L 144.563575 83.336235 
L 146.784187 83.336235 
L 149.003 83.336235 
L 151.223612 83.336235 
L 151.698302 83.336235 
L 151.324304 81.957784 
L 151.270362 81.503188 
L 151.320708 80.947775 
L 151.576033 80.135735 
L 151.741455 79.604152 
L 152.084886 78.513489 
L 152.147818 78.049728 
L 152.140626 77.620795 
L 152.005771 77.160701 
L 151.807984 76.685942 
L 151.665937 76.211182 
L 151.7001 75.747422 
L 152.901208 75.846406 
L 153.235648 75.767585 
L 153.48558 75.501793 
L 153.667184 74.807069 
L 153.904529 74.495451 
L 153.917116 74.484453 
L 153.9315 74.475287 
L 153.945885 74.467955 
L 154.440353 74.068351 
L 154.451141 73.518437 
L 153.989038 72.339788 
L 153.854183 71.731216 
L 153.800241 71.168471 
L 153.989038 68.294254 
L 154.159854 67.724176 
L 154.361238 67.396061 
L 154.841322 66.778324 
L 154.952802 66.492369 
L 154.911446 66.303565 
L 154.59139 65.599675 
L 155.499414 65.599675 
L 156.231227 65.599675 
L 156.961242 65.599675 
L 157.691257 65.599675 
L 158.421272 65.599675 
L 159.153085 65.599675 
L 159.884898 65.599675 
L 160.614913 65.599675 
L 161.344927 65.599675 
L 162.07674 65.599675 
L 162.267847 65.599675 
L 162.806755 65.599675 
L 163.538568 65.599675 
L 164.270381 65.599675 
L 165.000396 65.599675 
L 165.730411 65.599675 
L 166.460426 65.599675 
L 167.194037 65.599675 
L 168.030138 65.599675 
L 168.02834 65.343049 
L 168.105657 64.758307 
L 168.184772 64.503513 
L 168.325021 64.235889 
L 168.468866 64.120407 
L 168.67025 64.089245 
L 169.585465 64.087412 
L 171.040101 64.081913 
L 172.543284 64.078247 
L 173.548403 64.074581 
L 173.14204 65.154245 
L 172.669149 66.413548 
L 172.399439 67.135768 
L 172.034432 68.103617 
L 171.926548 68.930321 
L 171.946326 69.77169 
L 171.966105 70.64422 
L 172.775235 70.640554 
L 174.041074 70.636888 
L 175.306912 70.635055 
L 176.570953 70.629555 
L 177.836792 70.625889 
L 179.10263 70.624056 
L 180.368469 70.618557 
L 181.634308 70.614891 
L 182.898348 70.613058 
L 184.165985 70.609392 
L 185.428227 70.605726 
L 186.694066 70.60206 
L 187.961703 70.598394 
L 189.225743 70.594728 
L 190.49338 70.591061 
L 191.759219 70.587395 
L 193.023259 70.583729 
L 193.607631 70.580063 
L 193.963648 70.591061 
L 193.958254 70.653385 
L 194.021186 70.739538 
L 194.134464 70.779865 
L 194.269319 70.866018 
L 194.379001 70.999831 
L 194.77098 71.846698 
L 194.868075 71.960347 
L 194.963373 72.125321 
L 194.920219 72.271965 
L 194.833912 72.398445 
L 194.797951 72.495597 
L 194.898643 72.695399 
L 195.020911 72.820046 
L 195.123401 72.952026 
L 195.166554 73.171991 
L 195.146776 73.280141 
L 195.056872 73.441449 
L 195.037094 73.529435 
L 195.076651 73.632086 
L 195.245669 73.795227 
L 195.285227 73.897878 
L 195.252862 74.125175 
L 195.094632 74.484453 
L 195.037094 74.686088 
L 195.024507 74.907886 
L 195.064065 75.017869 
L 195.121603 75.115021 
L 195.166554 75.290993 
L 195.166554 75.958222 
L 195.109016 76.093867 
L 194.855489 76.35416 
L 194.797951 76.458644 
L 194.765586 76.788592 
L 194.687449 77.015363 
L 194.566 77.367835 
L 194.362819 77.969074 
L 194.139859 78.623472 
L 194.003206 79.01941 
L 193.810812 79.582155 
L 193.711919 79.87361 
L 193.609429 80.652655 
L 193.719111 81.110916 
L 193.740688 81.31805 
L 193.68315 81.525185 
L 193.431421 81.875297 
L 193.373882 82.04577 
L 193.424228 83.253748 
L 193.503343 83.569032 
L 193.672361 83.712009 
L 194.218974 84.02546 
L 194.335848 84.230762 
L 194.373607 84.661528 
L 194.488684 85.017139 
L 194.67748 85.33059 
L 195.116209 85.845676 
L 195.222295 86.083972 
L 195.27264 86.382758 
L 195.312198 87.139807 
L 195.499197 87.984841 
L 195.641244 88.303791 
L 196.150097 88.807879 
L 196.322711 89.135995 
L 196.193854 89.207002 
L 196.056597 89.282638 
L 195.963098 89.48794 
L 196.164481 89.938869 
L 196.590623 90.626261 
L 196.729074 91.386976 
L 196.660748 92.167854 
L 196.247192 93.53164 
L 196.335298 93.562802 
L 196.38924 93.601296 
L 196.459364 93.632458 
L 196.590623 93.643456 
L 196.274163 94.211701 
L 196.085366 94.748783 
L 195.880387 96.048414 
L 195.70058 97.175737 
L 195.578312 97.298551 
L 195.445255 97.885126 
L 195.267246 98.312226 
L 195.125199 99.721839 
L 195.166554 100.643862 
L 194.916623 102.674877 
L 195.128795 104.458432 
L 195.123401 105.182485 
L 194.939998 105.928535 
L 194.402376 107.033862 
L 194.290896 107.651599 
L 194.109291 108.016375 
L 194.085917 108.240007 
L 194.159637 108.43431 
L 194.45452 108.79542 
L 194.571395 108.976892 
L 194.785364 109.699112 
L 194.98495 111.255369 
L 195.166554 111.994086 
L 195.59809 112.690644 
L 196.702103 113.858295 
L 196.948438 114.54752 
L 197.056322 114.488863 
L 197.326032 114.377047 
L 197.433916 114.316557 
L 197.466281 114.8903 
L 197.676655 115.387056 
L 198.67638 116.562039 
L 198.848994 116.662856 
L 198.971263 116.624362 
L 199.095329 116.496049 
L 199.287722 116.593201 
L 199.577211 116.846161 
L 200.249688 117.276927 
L 200.487033 117.557383 
L 200.62009 117.951488 
L 200.760339 118.576557 
L 201.116356 119.546239 
L 201.269192 120.294122 
L 201.353701 120.514087 
L 201.23323 121.089664 
L 201.551488 121.898038 
L 201.979428 122.695413 
L 202.288695 123.529449 
L 202.696856 124.255336 
L 202.846096 124.790585 
L 203.099623 125.104036 
L 203.157161 125.309337 
L 203.137382 125.510973 
L 203.047479 125.859251 
L 203.0277 126.040723 
L 202.943191 126.308348 
L 202.553011 126.948081 
L 202.434338 127.316524 
L 202.472098 127.694131 
L 202.64651 127.932427 
L 202.862278 128.167057 
L 203.0277 128.539166 
L 203.088835 129.288882 
L 203.073237 129.636065 
L 203.056469 130.009269 
L 203.099623 130.634338 
L 203.383717 131.0926 
L 203.290218 131.200749 
L 203.263247 131.255741 
L 203.313593 131.935801 
L 203.263247 132.274915 
L 203.092431 132.425225 
L 202.761587 132.47655 
L 202.330051 132.604863 
L 201.601834 132.909149 
L 201.28897 133.136447 
L 200.884405 133.501223 
L 200.584128 133.889829 
L 200.587724 134.181283 
L 200.745954 134.45624 
L 201.116356 135.69538 
L 201.116356 136.371774 
L 201.172096 136.461593 
L 201.427421 136.648564 
L 201.483161 136.734717 
L 201.542498 137.040836 
L 201.833784 137.561421 
L 201.947063 137.896869 
L 202.150244 139.462291 
L 202.08911 140.208341 
L 201.839179 140.934227 
L 202.281503 140.910398 
L 202.606953 140.706929 
L 203.371131 139.883892 
L 203.624658 139.704253 
L 205.365187 139.114012 
L 205.870443 138.67958 
L 206.420651 137.260802 
L 207.057167 137.167316 
L 208.380544 137.706232 
L 209.029646 137.968358 
L 209.691334 138.157162 
L 210.365609 138.224984 
L 211.000326 138.113168 
L 211.367132 137.900535 
L 211.742928 137.627411 
L 212.13131 137.433108 
L 212.546663 137.449606 
L 212.90268 137.638409 
L 213.557177 138.074674 
L 213.904203 138.224984 
L 214.573084 138.325802 
L 215.351647 138.325802 
L 217.097569 138.025182 
L 218.525234 137.78322 
L 220.43478 136.716387 
L 221.596331 136.067488 
L 222.329942 135.856688 
L 223.034784 135.816361 
L 223.710857 135.875018 
L 224.793293 136.177471 
L 226.264111 136.588074 
L 226.843088 136.632067 
L 227.526354 136.577075 
L 228.18984 136.654063 
L 228.910865 136.883194 
L 229.606716 137.01334 
L 230.192886 136.798874 
L 230.30976 136.630234 
L 230.442817 136.234296 
L 230.547105 136.054657 
L 230.712527 135.913512 
L 231.082929 135.693547 
L 231.246553 135.539571 
L 231.3886 135.182127 
L 231.465917 134.762359 
L 231.606166 134.406748 
L 231.933414 134.243607 
" clip-path="url(#p1b471f13c7)" style="fill: #f5f5f5; stroke: #000000"/>
    <path d="M 18.960283 236.155611 
L 18.97593 236.833202 
L 19.164879 237.470825 
L 19.182054 237.705719 
L 18.786905 237.336536 
L 18.546465 236.816296 
L 17.979679 235.069956 
L 18.014051 234.582828 
L 18.185829 234.364543 
L 18.546534 234.062276 
L 18.855666 234.163178 
L 18.886662 235.038463 
L 18.960283 235.426722 
L 18.960283 236.155611 
" clip-path="url(#p1b471f13c7)" style="fill: #f5f5f5; stroke: #000000"/>
   </g>
  </g>
 </g>
 <defs>
  <clipPath id="p1b471f13c7">
   <rect x="7.2" y="7.2" width="237.152929" height="266.112"/>
  </clipPath>
 </defs>
</svg>
