<?xml version="1.0" encoding="utf-8" standalone="no"?>
<!DOCTYPE svg PUBLIC "-//W3C//DTD SVG 1.1//EN"
  "http://www.w3.org/Graphics/SVG/1.1/DTD/svg11.dtd">
<svg xmlns:xlink="http://www.w3.org/1999/xlink" width="280.078781pt" height="280.512pt" viewBox="0 0 280.078781 280.512" xmlns="http://www.w3.org/2000/svg" version="1.1">
 <metadata>
  <rdf:RDF xmlns:dc="http://purl.org/dc/elements/1.1/" xmlns:cc="http://creativecommons.org/ns#" xmlns:rdf="http://www.w3.org/1999/02/22-rdf-syntax-ns#">
   <cc:Work>
    <dc:type rdf:resource="http://purl.org/dc/dcmitype/StillImage"/>
    <dc:date>2024-03-04T13:11:08.972936</dc:date>
    <dc:format>image/svg+xml</dc:format>
    <dc:creator>
     <cc:Agent>
      <dc:title>Matplotlib v3.8.0, https://matplotlib.org/</dc:title>
     </cc:Agent>
    </dc:creator>
   </cc:Work>
  </rdf:RDF>
 </metadata>
 <defs>
  <style type="text/css">*{stroke-linejoin: round; stroke-linecap: butt}</style>
 </defs>
 <g id="figure_1">
  <g id="patch_1">
   <path d="M 0 280.512 
L 280.078781 280.512 
L 280.078781 0 
L 0 0 
z
" style="fill: #ffffff"/>
  </g>
  <g id="axes_1">
   <g id="PatchCollection_1">
    <path d="M 138.738574 19.296 
L 141.560952 25.204843 
L 140.792288 27.306681 
L 141.214067 28.543057 
L 142.522768 29.099426 
L 147.50529 29.104577 
L 148.810048 29.521854 
L 152.803161 32.612792 
L 153.79257 34.029472 
L 153.891116 35.616153 
L 151.273716 37.506777 
L 143.72898 37.192532 
L 142.916955 40.396804 
L 143.89848 42.060759 
L 145.550123 43.163194 
L 147.024382 43.312589 
L 147.489522 42.12773 
L 147.710267 40.314379 
L 148.971665 40.984083 
L 151.462926 43.549561 
L 153.023905 44.507752 
L 154.206466 45.769885 
L 155.45998 46.810501 
L 159.054964 47.227778 
L 162.397669 48.58779 
L 164.136033 48.865975 
L 167.690424 47.109611 
L 168.420844 46.748682 
L 170.525801 46.522013 
L 170.990942 48.881429 
L 170.320824 52.106308 
L 171.258989 53.116015 
L 172.335471 53.396778 
L 173.0959 53.59511 
L 175.114136 55.238459 
L 178.378003 59.400922 
L 179.584215 60.621843 
L 181.137311 61.116393 
L 182.934803 61.245182 
L 184.259271 61.940643 
L 184.397237 64.145512 
L 182.966338 68.251308 
L 180.955985 70.523148 
L 175.042819 73.354199 
L 171.960642 74.829855 
L 168.976647 77.266545 
L 167.056957 80.620213 
L 167.052514 83.012519 
L 167.049073 84.865101 
L 168.137029 87.178153 
L 169.603404 88.615439 
L 171.144675 89.826057 
L 172.473084 91.479708 
L 172.772666 92.463657 
L 172.946109 94.668526 
L 173.296935 95.740052 
L 174.002529 96.528241 
L 175.583219 97.568857 
L 176.225743 98.727958 
L 178.693353 103.97225 
L 183.210734 108.191381 
L 200.980677 118.252384 
L 201.040239 118.318056 
L 204.283963 121.89454 
L 205.813408 121.976965 
L 206.33044 121.825515 
L 207.413807 121.508172 
L 209.085159 121.405141 
L 210.196766 121.992419 
L 211.292605 123.058793 
L 213.251714 125.650029 
L 213.393621 126.227005 
L 213.444865 126.814283 
L 213.393621 127.406713 
L 212.010025 133.815258 
L 211.079744 136.257099 
L 209.625195 138.214693 
L 207.934133 139.698343 
L 207.650319 140.455623 
L 206.751573 145.040515 
L 206.231246 146.101737 
L 205.20636 146.967199 
L 199.876954 147.492659 
L 187.341812 145.406276 
L 182.513023 148.548729 
L 182.613462 149.536423 
L 182.753477 150.913297 
L 185.173785 152.01058 
L 193.128475 152.83483 
L 195.213724 153.870295 
L 196.865366 155.709403 
L 200.279409 162.76725 
L 200.862421 163.972511 
L 204.29973 167.424058 
L 205.924893 168.261481 
L 208.438692 169.556806 
L 213.251714 171.01985 
L 215.336962 173.070172 
L 218.277596 179.087198 
L 220.674252 181.024186 
L 223.567584 181.869042 
L 224.880226 182.616019 
L 225.980007 183.981184 
L 227.769615 187.406973 
L 228.889106 188.488802 
L 230.584109 189.019413 
L 233.233045 188.463044 
L 238.444195 185.768776 
L 241.053712 185.959384 
L 242.133784 186.850604 
L 243.931276 189.3079 
L 245.074418 190.142454 
L 246.580212 190.405183 
L 251.397175 189.941543 
L 252.627038 190.214575 
L 253.892378 191.049129 
L 254.8266 192.33702 
L 255.055229 193.980368 
L 254.369344 195.247653 
L 253.257737 195.943114 
L 252.366875 196.767364 
L 252.343223 198.415865 
L 252.867492 199.466784 
L 252.839899 200.399217 
L 252.319572 201.130739 
L 251.397175 201.584076 
L 251.369682 201.589299 
L 245.783954 202.65045 
L 243.363647 204.165009 
L 242.362412 206.730488 
L 243.410949 209.862639 
L 245.910094 211.825385 
L 251.397175 214.308438 
L 252.615212 215.328448 
L 253.1789 216.776037 
L 253.58097 218.362719 
L 254.322041 219.830914 
L 256.166836 221.803963 
L 259.422819 224.124742 
L 259.927378 224.593535 
L 260.439821 225.191116 
L 260.537709 225.449057 
L 260.802473 226.146731 
L 260.132355 226.481583 
L 258.528015 226.543402 
L 254.992159 229.103729 
L 254.053994 229.242821 
L 249.418357 226.852495 
L 246.74577 226.502189 
L 244.987697 228.171296 
L 245.062592 231.236476 
L 247.013817 233.209525 
L 249.55238 234.675145 
L 251.397175 236.187129 
L 252.358991 239.463523 
L 252.784713 242.291731 
L 252.563968 245.083879 
L 251.562733 248.249515 
L 251.507547 248.56376 
L 251.397175 248.849672 
L 251.129128 250.060289 
L 250.999046 251.294089 
L 251.073942 252.507282 
L 251.397175 253.671535 
L 254.046111 259.374316 
L 252.67434 258.985373 
L 244.727534 255.368975 
L 243.68688 255.134579 
L 242.874855 255.242762 
L 241.026119 255.855798 
L 238.065776 255.97686 
L 237.056657 256.20868 
L 235.578457 256.942778 
L 231.612937 259.874018 
L 230.280586 260.533418 
L 225.199517 261.216 
L 220.753089 252.563949 
L 216.779686 241.271722 
L 215.234474 238.113813 
L 213.251714 235.223786 
L 211.63949 232.524367 
L 210.945721 229.904797 
L 211.410861 227.367652 
L 213.251714 224.905204 
L 213.768099 224.232925 
L 213.925773 223.514282 
L 213.752331 222.762154 
L 213.251714 221.979116 
L 211.694676 220.469708 
L 207.343757 218.30766 
L 206.231246 217.754834 
L 204.410103 216.322699 
L 202.959495 214.725715 
L 201.390632 213.427521 
L 197.06246 212.299328 
L 196.861558 211.826079 
L 196.423877 210.795072 
L 196.908727 208.801417 
L 199.474883 204.520467 
L 199.813884 202.94924 
L 199.124057 198.395258 
L 199.124057 198.384955 
L 199.372395 195.850386 
L 199.356627 194.160673 
L 198.670742 192.903692 
L 196.944204 191.64671 
L 194.839246 190.827612 
L 193.069347 190.858521 
L 192.642907 190.963199 
L 183.289572 193.259149 
L 181.247684 194.114309 
L 175.114136 198.065558 
L 174.302111 198.415865 
L 173.450668 198.853747 
L 172.583457 199.028901 
L 171.724129 198.89496 
L 170.904221 198.410713 
L 170.893362 198.399504 
L 168.483914 195.912205 
L 167.151562 195.206441 
L 163.54081 194.866437 
L 162.429204 194.4131 
L 161.660539 193.290059 
L 160.757851 191.21913 
L 158.860508 188.521218 
L 158.384847 187.844856 
L 156.342959 188.540317 
L 154.174931 190.575185 
L 151.364379 191.25004 
L 149.870411 190.281546 
L 149.570829 188.828805 
L 150.319784 185.238165 
L 150.445923 182.909658 
L 150.114806 181.065399 
L 149.330375 179.401444 
L 144.276419 172.879826 
L 143.705328 172.142891 
L 141.111579 170.829242 
L 138.249782 171.818342 
L 135.435288 174.007756 
L 134.98676 174.261007 
L 132.999214 175.383224 
L 130.39758 176.011715 
L 127.06276 175.960199 
L 123.522962 176.609296 
L 121.358876 177.567487 
L 120.180257 175.542922 
L 115.501259 169.345592 
L 115.063712 168.572857 
L 114.693176 168.238005 
L 114.330524 168.15558 
L 113.479081 168.289521 
L 113.092778 168.238005 
L 111.681589 167.367391 
L 108.922281 164.157967 
L 107.905279 164.786458 
L 107.621464 164.209483 
L 107.597813 163.086442 
L 107.361301 162.112796 
L 106.210275 161.262788 
L 105.563809 160.598237 
L 105.279995 159.732774 
L 104.925226 158.218214 
L 104.065899 156.765473 
L 102.10679 154.565756 
L 97.69584 150.702083 
L 91.332625 146.96237 
L 87.115865 144.484146 
L 84.325022 143.613532 
L 81.74704 143.613532 
L 77.150821 144.870513 
L 74.967026 145.143546 
L 73.406046 145.607187 
L 72.609789 145.71537 
L 71.963322 145.499004 
L 70.993623 144.556268 
L 70.244668 144.355357 
L 68.616676 144.788088 
L 65.963798 146.658106 
L 64.749703 147.080534 
L 55.573033 145.514459 
L 47.232039 140.888354 
L 40.247049 138.894699 
L 36.754553 136.957711 
L 35.769086 134.083139 
L 36.825507 133.094039 
L 40.278583 132.341911 
L 41.023597 131.05402 
L 40.530863 129.930979 
L 38.149974 126.994588 
L 37.33795 125.237904 
L 38.733371 124.150925 
L 38.655469 123.970197 
L 37.558694 121.425747 
L 34.164745 117.005706 
L 32.103148 115.063566 
L 31.322658 113.502643 
L 31.842985 111.869597 
L 32.493393 110.756859 
L 33.629805 106.95388 
L 33.695663 106.733488 
L 33.695663 106.053482 
L 30.60918 103.421033 
L 28.989072 101.612834 
L 28.673723 100.299185 
L 31.28324 97.197944 
L 32.930941 96.059448 
L 34.736316 95.843083 
L 34.531339 95.127015 
L 34.405199 94.828225 
L 34.164745 94.421251 
L 34.629886 94.591253 
L 34.968887 94.668526 
L 35.307887 94.802467 
L 35.769086 95.163076 
L 35.690249 92.772751 
L 36.707251 90.712125 
L 39.939583 86.936029 
L 39.356186 84.679645 
L 39.821327 84.061457 
L 41.405958 81.248703 
L 41.630644 80.439908 
L 41.232516 73.536813 
L 40.964469 71.888312 
L 40.254932 70.018295 
L 37.08567 64.985217 
L 36.30518 63.007017 
L 35.895226 60.740329 
L 35.725725 58.741522 
L 35.39855 56.835444 
L 34.523455 54.877849 
L 32.134683 51.905397 
L 29.127038 49.432647 
L 25.843461 47.804753 
L 22.579594 47.341112 
L 21.121103 45.970796 
L 19.907007 43.121981 
L 19.276308 39.95377 
L 19.591658 37.625263 
L 20.35638 37.815871 
L 21.109277 37.831326 
L 21.858232 37.666476 
L 25.977485 36.007672 
L 29.217701 35.884035 
L 41.658237 37.61496 
L 43.522741 37.460413 
L 45.016709 36.837074 
L 48.572275 33.746136 
L 51.844026 32.401578 
L 58.907854 32.252182 
L 60.578874 31.848324 
L 60.611758 31.840376 
L 62.360931 31.417629 
L 65.427704 30.052465 
L 66.949266 29.892766 
L 70.181598 30.789138 
L 71.78988 30.500651 
L 73.28779 29.702158 
L 74.486118 28.52245 
L 74.876363 27.548805 
L 74.927607 26.703948 
L 75.124701 25.962123 
L 76.03133 25.328481 
L 76.843355 25.318178 
L 78.912836 26.163034 
L 82.602425 28.692452 
L 84.013614 29.223063 
L 85.807164 28.929424 
L 86.512759 28.45548 
L 87.060678 27.832141 
L 87.683494 27.280924 
L 88.586182 26.992436 
L 89.528288 27.100619 
L 93.596296 29.537308 
L 95.263707 30.140041 
L 96.97842 30.258527 
L 98.831098 29.727916 
L 100.368426 28.033052 
L 100.865102 27.656988 
L 101.685011 27.63123 
L 102.087081 28.383358 
L 102.363012 29.403368 
L 102.78085 30.160648 
L 104.345772 30.603682 
L 105.469204 29.614582 
L 106.399485 28.033052 
L 107.384952 26.740009 
L 109.02477 26.008487 
L 110.569982 26.21455 
L 113.758954 27.46638 
L 124.942034 27.693049 
L 126.944504 27.425167 
L 127.701342 26.384551 
L 127.404961 25.969012 
L 126.889317 25.246056 
L 124.027521 23.886043 
L 123.396822 22.479666 
L 124.878965 21.001168 
L 132.242375 22.155118 
L 135.135706 22.06239 
L 136.065987 21.433899 
L 137.792526 19.893581 
L 138.738574 19.296 
M 136.988384 40.072256 
L 135.805824 40.896506 
L 135.557486 42.277125 
L 136.034452 43.781382 
L 136.988384 44.997151 
L 139.755576 45.934735 
L 140.843532 43.637138 
L 139.99603 40.783172 
L 136.988384 40.072256 
M 154.569118 51.441757 
L 155.373259 50.339322 
L 153.189464 48.469304 
L 152.874114 48.412637 
L 152.574532 48.459001 
L 152.306485 48.608397 
L 152.069973 48.865975 
L 152.803161 51.158421 
L 154.569118 51.441757 
" clip-path="url(#p6313916921)" style="fill: #f5f5f5; stroke: #000000"/>
    <path d="M 177.739421 87.930281 
L 175.114136 87.147244 
L 174.65688 86.189053 
L 174.507089 85.148437 
L 174.664763 84.107821 
L 175.114136 83.118721 
L 176.068068 82.433563 
L 177.120547 82.124469 
L 178.236096 82.103863 
L 179.339819 82.253258 
L 181.326521 83.376299 
L 180.293751 85.977839 
L 177.739421 87.930281 
" clip-path="url(#p6313916921)" style="fill: #f5f5f5; stroke: #000000"/>
   </g>
  </g>
 </g>
 <defs>
  <clipPath id="p6313916921">
   <rect x="7.2" y="7.2" width="265.678781" height="266.112"/>
  </clipPath>
 </defs>
</svg>
