<?xml version="1.0" encoding="utf-8" standalone="no"?>
<!DOCTYPE svg PUBLIC "-//W3C//DTD SVG 1.1//EN"
  "http://www.w3.org/Graphics/SVG/1.1/DTD/svg11.dtd">
<svg xmlns:xlink="http://www.w3.org/1999/xlink" width="371.52pt" height="197.42953pt" viewBox="0 0 371.52 197.42953" xmlns="http://www.w3.org/2000/svg" version="1.1">
 <metadata>
  <rdf:RDF xmlns:dc="http://purl.org/dc/elements/1.1/" xmlns:cc="http://creativecommons.org/ns#" xmlns:rdf="http://www.w3.org/1999/02/22-rdf-syntax-ns#">
   <cc:Work>
    <dc:type rdf:resource="http://purl.org/dc/dcmitype/StillImage"/>
    <dc:date>2024-03-04T13:11:09.047927</dc:date>
    <dc:format>image/svg+xml</dc:format>
    <dc:creator>
     <cc:Agent>
      <dc:title>Matplotlib v3.8.0, https://matplotlib.org/</dc:title>
     </cc:Agent>
    </dc:creator>
   </cc:Work>
  </rdf:RDF>
 </metadata>
 <defs>
  <style type="text/css">*{stroke-linejoin: round; stroke-linecap: butt}</style>
 </defs>
 <g id="figure_1">
  <g id="patch_1">
   <path d="M 0 197.42953 
L 371.52 197.42953 
L 371.52 0 
L 0 0 
z
" style="fill: #ffffff"/>
  </g>
  <g id="axes_1">
   <g id="PatchCollection_1">
    <defs>
     <path id="m12eb112797" d="M 339.433924 -156.259685 
L 339.829858 -153.30217 
L 339.604702 -152.507703 
L 339.513111 -152.184523 
L 338.813628 -151.455765 
L 338.109746 -150.895308 
L 337.792999 -150.298903 
L 337.568637 -149.4574 
L 336.455624 -147.872433 
L 336.024496 -147.021126 
L 335.848526 -146.117531 
L 335.470189 -142.741715 
L 335.360207 -142.343022 
L 335.254625 -142.155114 
L 335.179838 -141.867532 
L 335.153442 -141.173088 
L 335.28542 -140.792369 
L 335.615365 -140.594657 
L 336.473221 -140.504787 
L 336.71518 -140.364264 
L 337.163905 -139.998251 
L 337.599432 -139.516225 
L 337.792999 -139.014592 
L 337.696216 -138.733546 
L 337.529044 -138.367533 
L 337.449857 -138.047272 
L 337.634626 -137.916553 
L 337.749007 -137.782566 
L 337.894182 -137.465572 
L 338.03056 -137.102827 
L 338.083351 -136.815246 
L 338.224127 -136.442697 
L 338.549672 -136.235181 
L 338.936808 -136.05871 
L 339.407529 -135.633873 
L 339.671484 -135.544004 
L 339.829858 -135.32505 
L 339.869451 -135.05054 
L 339.812261 -134.326684 
L 339.829858 -134.024397 
L 340.494146 -131.753156 
L 340.696512 -130.609365 
L 340.700912 -129.23845 
L 341.004461 -128.253156 
L 342.077881 -127.083222 
L 342.662983 -126.727013 
L 343.344868 -126.622438 
L 343.793593 -126.33649 
L 344.431642 -125.181338 
L 344.633852 -124.815249 
L 345.188159 -124.22538 
L 344.752632 -123.691066 
L 344.532669 -123.050543 
L 344.290709 -121.874073 
L 344.457882 -121.769498 
L 344.968196 -121.346295 
L 344.739434 -120.308714 
L 345.71607 -119.776034 
L 347.09304 -119.287472 
L 348.087273 -118.39695 
L 345.416921 -116.164924 
L 345.865645 -115.645316 
L 345.848048 -115.25316 
L 345.641283 -114.857735 
L 345.522503 -114.315251 
L 345.438917 -114.209042 
L 345.042983 -113.939434 
L 344.928603 -113.759696 
L 344.972595 -113.485186 
L 345.18376 -113.357735 
L 345.408122 -113.28584 
L 345.496107 -113.160023 
L 345.320137 -112.034206 
L 345.073778 -111.205775 
L 344.651449 -110.566886 
L 343.951966 -110.014599 
L 342.478214 -109.686167 
L 341.945903 -109.406756 
L 341.959101 -108.717213 
L 342.227456 -108.4329 
L 343.120506 -108.019501 
L 343.45485 -107.767867 
L 343.863981 -106.586495 
L 344.141135 -106.186168 
L 343.503242 -105.475384 
L 343.560432 -104.387149 
L 343.846384 -103.106104 
L 343.925571 -101.040745 
L 344.136735 -100.40349 
L 344.497475 -99.921464 
L 344.981394 -99.617543 
L 344.105941 -99.209046 
L 341.004461 -98.792379 
L 337.630227 -97.94434 
L 336.015697 -98.241726 
L 335.395402 -99.898588 
L 334.832296 -99.41983 
L 333.996436 -98.084863 
L 333.525715 -97.619177 
L 333.151778 -97.529308 
L 330.75418 -97.908393 
L 330.296657 -98.189438 
L 329.821536 -98.684536 
L 329.495991 -99.338131 
L 329.337618 -100.004797 
L 329.108856 -100.573425 
L 328.572146 -100.950876 
L 325.162718 -102.282575 
L 323.376617 -102.508065 
L 321.814879 -101.798915 
L 321.559722 -101.187804 
L 321.63451 -100.35447 
L 321.401349 -99.810353 
L 321.040609 -99.46068 
L 319.342494 -98.560353 
L 318.836579 -98.102837 
L 318.555026 -97.928 
L 318.357059 -97.96885 
L 318.145895 -98.166563 
L 317.899536 -98.478654 
L 317.587189 -98.161661 
L 316.940497 -97.109373 
L 316.56656 -96.635517 
L 317.336431 -96.189439 
L 319.720831 -95.220485 
L 320.899833 -95.485191 
L 323.702163 -94.334864 
L 325.105527 -94.576694 
L 326.033772 -94.14859 
L 326.777247 -93.145322 
L 327.137987 -91.867544 
L 326.900426 -90.642055 
L 327.621905 -90.233558 
L 328.211407 -89.630617 
L 328.541351 -88.838133 
L 328.492959 -87.864277 
L 328.039835 -87.057088 
L 326.799243 -86.530944 
L 326.315325 -86.003167 
L 326.486896 -83.455782 
L 325.895156 -82.989731 
L 324.296063 -81.730292 
L 319.720831 -79.622449 
L 319.210516 -80.459051 
L 318.643011 -80.857743 
L 318.110701 -80.710684 
L 317.679573 -79.910031 
L 317.785155 -77.485195 
L 317.692771 -77.298921 
L 317.481606 -77.187809 
L 317.296837 -77.017875 
L 317.270442 -76.643692 
L 317.389222 -76.401862 
L 317.582789 -76.297287 
L 317.771958 -76.223757 
L 317.886338 -76.097941 
L 319.179721 -73.357745 
L 319.351293 -72.31853 
L 319.06974 -71.472125 
L 318.467041 -70.913301 
L 317.142863 -70.189445 
L 317.142863 -70.182909 
L 317.283639 -69.079968 
L 316.628149 -67.694348 
L 316.777724 -66.65023 
L 317.032882 -66.428008 
L 317.371625 -66.45742 
L 317.727965 -66.423106 
L 318.013917 -66.01461 
L 318.027115 -65.459054 
L 317.679573 -64.380623 
L 317.666375 -64.03095 
L 318.238279 -63.648597 
L 319.676838 -64.347943 
L 320.376321 -64.279316 
L 320.895434 -63.511342 
L 320.693068 -62.771146 
L 319.720831 -61.468859 
L 318.823381 -60.9035 
L 318.546228 -59.980297 
L 318.862975 -59.14533 
L 319.720831 -58.854481 
L 320.222347 -58.596311 
L 320.371921 -58.26788 
L 320.20035 -57.921474 
L 319.720831 -57.609383 
L 317.81595 -56.823435 
L 317.283639 -56.336507 
L 318.502235 -56.184547 
L 319.109333 -55.978664 
L 319.720831 -55.406769 
L 319.909999 -54.722129 
L 319.104934 -54.524416 
L 317.99632 -54.511345 
L 317.288039 -54.377358 
L 317.288039 -54.370822 
L 317.10327 -54.197619 
L 316.896504 -54.145332 
L 316.676541 -54.207423 
L 316.44778 -54.380626 
L 315.713103 -54.942717 
L 314.811254 -55.055462 
L 313.077945 -54.84141 
L 311.489811 -55.166573 
L 310.909109 -55.086508 
L 310.504377 -54.387162 
L 310.319608 -53.428011 
L 309.976465 -53.138796 
L 309.554136 -53.044025 
L 309.123008 -52.668208 
L 309.013027 -52.282587 
L 309.048221 -51.93128 
L 309.026224 -51.547293 
L 308.740272 -51.086509 
L 308.445522 -50.854483 
L 307.556871 -50.468862 
L 306.474652 -49.661672 
L 305.981935 -49.142065 
L 304.437794 -46.995007 
L 303.892286 -46.460693 
L 303.2104 -46.13553 
L 301.460971 -45.078558 
L 300.570843 -44.540759 
L 300.418347 -44.502296 
L 298.67916 -44.063635 
L 298.428402 -43.916576 
L 298.014871 -43.470498 
L 298.054465 -43.331609 
L 298.243633 -43.191086 
L 298.278827 -42.743374 
L 297.984077 -40.779322 
L 297.972694 -40.587948 
L 297.918088 -39.669845 
L 297.953282 -38.562002 
L 298.4416 -37.014617 
L 299.347848 -36.423114 
L 299.827367 -35.444356 
L 299.919549 -33.988404 
L 299.914036 -33.992554 
L 299.119086 -35.014617 
L 298.652764 -35.347951 
L 296.923854 -35.661676 
L 294.037938 -37.151872 
L 292.854537 -37.390434 
L 291.671135 -37.285859 
L 290.039567 -36.613344 
L 288.785219 -36.096316 
L 287.659008 -36.030957 
L 284.399155 -36.526055 
L 283.71287 -36.952525 
L 283.580892 -35.998277 
L 283.585292 -35.186186 
L 283.330135 -34.632264 
L 283.107159 -34.461659 
L 282.890208 -34.295663 
L 282.3403 -34.135533 
L 281.698008 -34.321807 
L 280.79176 -34.308735 
L 279.881113 -34.063637 
L 279.230022 -33.555467 
L 278.812092 -32.655141 
L 278.789441 -32.535727 
L 278.675715 -31.936187 
L 278.518355 -31.576076 
L 278.402961 -31.312004 
L 277.611094 -30.674749 
L 276.335308 -30.444357 
L 275.371869 -31.06037 
L 275.174473 -31.237751 
L 274.417229 -31.918213 
L 273.16344 -32.400239 
L 270.807379 -32.273886 
L 265.363548 -31.981938 
L 263.987244 -32.133484 
L 261.136834 -32.447346 
L 260.291104 -32.54047 
L 259.279369 -32.651873 
L 256.82898 -31.847951 
L 255.245245 -29.534227 
L 254.426982 -30.736841 
L 253.815485 -30.854488 
L 253.216055 -30.467591 
L 252.288941 -29.869194 
L 252.133017 -29.847766 
L 251.409089 -29.748279 
L 250.810789 -29.823442 
L 250.274079 -29.589782 
L 249.561399 -28.530959 
L 249.07748 -27.4656 
L 248.747216 -26.440568 
L 248.435187 -25.472136 
L 247.987132 -24.42093 
L 247.64332 -23.614293 
L 247.40576 -23.400241 
L 246.464318 -22.959065 
L 245.373301 -22.77279 
L 244.994964 -23.048934 
L 244.286683 -22.720503 
L 244.031526 -22.419849 
L 243.820362 -21.990111 
L 243.323245 -21.374098 
L 243.019696 -20.593052 
L 242.70405 -20.651217 
L 242.452191 -20.697627 
L 242.258623 -20.64534 
L 241.405167 -19.730307 
L 240.96524 -19.43619 
L 240.534113 -19.305471 
L 239.610268 -19.220504 
L 239.196737 -19.047301 
L 238.567643 -18.117563 
L 238.211302 -16.893707 
L 238.003221 -16.347551 
L 237.815369 -15.854491 
L 237.076293 -15.519524 
L 236.513187 -16.125733 
L 236.033668 -17.209066 
L 235.452965 -18.030961 
L 233.983611 -17.671484 
L 233.270931 -17.785863 
L 232.684094 -18.064333 
L 231.955552 -18.410046 
L 231.717991 -18.704164 
L 231.581614 -19.060373 
L 231.379248 -19.357758 
L 230.926124 -19.462334 
L 229.491965 -19.138804 
L 224.391427 -19.288221 
L 220.45588 -19.40351 
L 220.373667 -19.426537 
L 219.91917 -19.553837 
L 217.525972 -21.673117 
L 216.901277 -21.995013 
L 216.206193 -22.207431 
L 215.458319 -22.227039 
L 214.711973 -22.089284 
L 214.024159 -21.962333 
L 213.324677 -22.050568 
L 209.43133 -23.939457 
L 208.146745 -24.158411 
L 205.384008 -23.692725 
L 204.803306 -23.686189 
L 201.992177 -24.387169 
L 201.347685 -24.442725 
L 200.683397 -24.308738 
L 200.041105 -24.377365 
L 194.889569 -26.093051 
L 193.081472 -26.161678 
L 192.755927 -26.395338 
L 192.153228 -27.097953 
L 191.858477 -27.213966 
L 189.262912 -27.019521 
L 187.402025 -27.354488 
L 183.064352 -26.405142 
L 181.34864 -26.493378 
L 180.45119 -26.862659 
L 177.745644 -28.566906 
L 174.257029 -29.393704 
L 164.292701 -30.127364 
L 161.873107 -31.743376 
L 160.806135 -32.110499 
L 160.438947 -32.23684 
L 160.104603 -32.191089 
L 159.422718 -31.918213 
L 159.022385 -31.905141 
L 158.63085 -32.081612 
L 157.85658 -32.681285 
L 157.522982 -32.835834 
L 157.447449 -32.870827 
L 155.344602 -33.089781 
L 152.867817 -32.756448 
L 152.243122 -32.818539 
L 151.53924 -33.164945 
L 150.223861 -34.079977 
L 148.936019 -34.311399 
L 147.914248 -34.49501 
L 146.185338 -35.217232 
L 144.711585 -36.547297 
L 143.90652 -38.576708 
L 143.532583 -39.960695 
L 142.824302 -40.426381 
L 141.94005 -40.550564 
L 141.051399 -40.900237 
L 140.642268 -41.194354 
L 140.400308 -41.44272 
L 140.299125 -41.870825 
L 140.307924 -42.687818 
L 140.422305 -43.419844 
L 140.580678 -43.857752 
L 140.699458 -44.315269 
L 140.68626 -45.093046 
L 140.294726 -46.475399 
L 139.621639 -46.947621 
L 137.831139 -47.011346 
L 137.250437 -47.230301 
L 136.99088 -47.53749 
L 136.757719 -47.934549 
L 136.2738 -48.437817 
L 135.79868 -48.681281 
L 134.795648 -48.864287 
L 134.346924 -49.050562 
L 134.971619 -49.68128 
L 134.976018 -50.259712 
L 134.681267 -50.857751 
L 134.404114 -51.561999 
L 134.144557 -53.021149 
L 133.959789 -53.743371 
L 133.678236 -54.370822 
L 134.12696 -55.478665 
L 136.704928 -56.939448 
L 137.611176 -58.18618 
L 137.624879 -59.05138 
L 137.637572 -59.852846 
L 136.63454 -60.20252 
L 134.613344 -59.798843 
L 133.8938 -59.655134 
L 129.582523 -57.374089 
L 126.547032 -57.22703 
L 124.668547 -56.5669 
L 122.86045 -55.573436 
L 121.391097 -54.387162 
L 119.459821 -54.073436 
L 118.9891 -53.766247 
L 118.15324 -53.071802 
L 117.660522 -52.955789 
L 116.864256 -53.262979 
L 115.487287 -54.302194 
L 114.677823 -54.387162 
L 114.356677 -54.34141 
L 114.03553 -54.370822 
L 113.982739 -54.387162 
L 113.960743 -54.387162 
L 111.76991 -54.84141 
L 110.75808 -54.745005 
L 109.521888 -54.377358 
L 109.517488 -54.377358 
L 109.50869 -54.370822 
L 109.50429 -54.370822 
L 109.103958 -54.151868 
L 108.703625 -54.076704 
L 108.31649 -54.1486 
L 107.960149 -54.370822 
L 107.735787 -54.678011 
L 107.489428 -54.914939 
L 107.212275 -55.079972 
L 106.4644 -55.261344 
L 106.037672 -55.161671 
L 105.659335 -54.869188 
L 105.33379 -54.377358 
L 105.329391 -54.370822 
L 103.882033 -52.947619 
L 102.579852 -53.014613 
L 101.255674 -53.671475 
L 99.737929 -54.008077 
L 96.755229 -53.501541 
L 93.807723 -52.527685 
L 93.046651 -52.063633 
L 90.292713 -49.276052 
L 89.940772 -48.498274 
L 89.492047 -46.274418 
L 88.691381 -44.325072 
L 88.656187 -44.083242 
L 88.704579 -43.42638 
L 88.629792 -43.109387 
L 88.445023 -42.905138 
L 87.974302 -42.687818 
L 87.798331 -42.517883 
L 86.843691 -40.851217 
L 86.249791 -40.212328 
L 85.642693 -40.125727 
L 84.921214 -40.372459 
L 83.438662 -40.521152 
L 82.708385 -40.416577 
L 81.287423 -39.926381 
L 80.865094 -39.893701 
L 80.429567 -40.078342 
L 79.703689 -40.713962 
L 79.320953 -40.916577 
L 78.885426 -40.923113 
L 78.075962 -40.687818 
L 77.658032 -40.704158 
L 76.435037 -41.413309 
L 75.94232 -41.581609 
L 75.04487 -41.292394 
L 74.587347 -41.308733 
L 74.33219 -41.862655 
L 74.530157 -42.174746 
L 75.475998 -42.957426 
L 75.682763 -43.395334 
L 75.269233 -44.034223 
L 72.013779 -46.021151 
L 71.358289 -46.197621 
L 70.606015 -46.112654 
L 66.277141 -44.898602 
L 64.513037 -45.097948 
L 63.131669 -46.240105 
L 63.030486 -47.589778 
L 63.558397 -49.73847 
L 63.329635 -50.805463 
L 62.951299 -51.266247 
L 61.503942 -52.436182 
L 60.615291 -53.89043 
L 60.175364 -54.370822 
L 60.175364 -54.380626 
L 60.170965 -54.380626 
L 59.946603 -54.529318 
L 59.709043 -54.576704 
L 59.475882 -54.529318 
L 58.239689 -53.80873 
L 57.166269 -52.557097 
L 56.422794 -51.106117 
L 56.400798 -49.924744 
L 55.340575 -49.874091 
L 54.513514 -50.094679 
L 53.82283 -49.96396 
L 53.176138 -48.854483 
L 52.973772 -48.05383 
L 52.938578 -47.52115 
L 52.824197 -47.03749 
L 52.388671 -46.392065 
L 50.532182 -45.429647 
L 49.432366 -45.11102 
L 49.143656 -45.12228 
L 48.552514 -45.145334 
L 46.713622 -45.746641 
L 45.754583 -46.312 
L 44.109259 -47.905137 
L 39.556023 -49.400235 
L 38.5002 -50.223764 
L 37.959091 -51.004809 
L 37.888703 -51.597947 
L 38.02508 -52.279319 
L 38.130662 -53.762979 
L 38.306632 -54.367554 
L 38.306632 -54.740103 
L 38.14386 -54.936181 
L 37.879904 -54.914939 
L 37.699534 -55.071802 
L 37.769923 -55.79239 
L 29.728071 -58.367553 
L 29.015391 -58.47703 
L 26.784965 -58.195984 
L 25.988699 -58.410036 
L 27.163302 -59.921474 
L 27.458052 -61.565264 
L 27.026924 -63.178009 
L 26.015094 -64.609381 
L 24.748107 -65.367551 
L 24.743707 -65.91657 
L 25.166037 -66.867551 
L 25.210029 -67.318531 
L 24.84489 -68.195982 
L 24.440158 -68.746635 
L 24.25099 -69.302191 
L 24.536942 -70.182909 
L 23.819862 -70.854478 
L 23.432727 -71.432909 
L 24.800898 -73.776046 
L 26.252654 -75.544019 
L 26.415427 -75.978659 
L 26.63539 -77.093038 
L 26.833357 -77.660032 
L 28.48308 -79.762972 
L 28.896611 -80.723756 
L 28.931805 -83.403494 
L 27.713209 -84.485193 
L 26.129475 -85.213951 
L 24.871286 -87.122448 
L 24.790726 -87.501363 
L 24.553342 -88.617898 
L 24.655722 -88.55382 
L 24.83692 -88.503815 
L 27.326074 -87.816892 
L 30.053617 -87.864277 
L 31.215022 -88.419833 
L 31.830919 -89.387153 
L 32.35883 -90.537479 
L 33.287074 -91.622446 
L 33.902971 -91.952512 
L 34.540864 -92.024407 
L 35.143563 -91.805453 
L 35.64068 -91.259701 
L 35.781456 -90.511336 
L 35.69787 -89.741728 
L 35.860643 -89.073427 
L 36.727297 -88.622447 
L 37.07044 -88.648591 
L 37.593952 -88.98846 
L 37.809516 -89.047284 
L 39.089701 -88.57016 
L 40.356689 -88.468852 
L 40.998981 -88.596303 
L 41.513695 -89.011336 
L 41.632475 -87.965585 
L 42.0768 -87.374082 
L 42.609111 -86.838134 
L 42.996246 -85.986827 
L 42.996246 -85.79565 
L 43.009444 -85.60284 
L 43.075433 -85.233559 
L 43.541754 -84.952513 
L 43.915692 -85.115912 
L 44.294028 -85.449245 
L 44.777947 -85.671468 
L 46.871996 -82.583233 
L 47.245933 -81.841403 
L 47.047966 -81.176371 
L 46.080129 -80.416567 
L 46.54645 -79.867547 
L 46.660831 -79.210685 
L 46.700425 -78.530946 
L 46.929186 -77.926371 
L 47.342717 -77.521143 
L 47.628669 -77.534215 
L 47.954214 -77.777679 
L 48.512921 -78.047286 
L 48.724085 -78.019509 
L 49.164011 -77.749901 
L 49.383974 -77.748267 
L 49.564344 -77.88879 
L 50.070259 -78.452515 
L 51.939946 -78.795652 
L 52.723014 -78.369182 
L 52.69222 -77.230293 
L 51.922349 -74.890424 
L 52.019132 -74.475392 
L 52.041129 -74.096307 
L 51.935547 -73.674738 
L 51.728781 -73.468856 
L 51.165676 -73.298922 
L 50.994104 -73.179641 
L 50.60257 -72.465588 
L 50.430999 -72.070164 
L 50.620167 -71.959053 
L 51.261855 -72.038395 
L 54.0032 -72.377353 
L 54.931444 -72.741732 
L 56.836324 -73.923104 
L 57.667785 -74.691078 
L 58.433257 -75.730294 
L 59.379098 -77.650228 
L 59.634255 -78.047286 
L 60.074181 -78.346306 
L 60.971631 -78.661665 
L 61.33677 -78.910031 
L 62.045051 -79.859377 
L 62.665347 -81.138789 
L 63.052482 -82.560357 
L 63.043683 -83.916566 
L 62.867713 -84.699246 
L 62.638951 -85.256435 
L 62.273812 -85.664932 
L 61.675513 -85.993363 
L 62.10664 -88.514604 
L 62.159432 -89.099571 
L 61.877879 -89.807087 
L 61.508341 -90.5048 
L 61.446751 -91.050551 
L 62.084644 -91.303819 
L 62.797325 -91.432904 
L 63.12287 -91.561989 
L 63.272445 -91.444342 
L 63.461613 -90.854473 
L 63.408822 -90.606107 
L 63.202057 -90.302185 
L 63.043683 -89.900225 
L 63.118471 -89.357741 
L 63.342833 -89.066892 
L 63.690375 -88.818526 
L 64.354663 -88.511336 
L 66.167159 -88.233558 
L 66.668675 -88.321794 
L 67.209785 -88.759702 
L 68.07204 -89.970486 
L 68.661541 -90.383885 
L 69.690968 -90.370813 
L 75.308826 -88.233558 
L 75.480397 -88.034212 
L 75.621174 -87.707415 
L 75.832338 -87.406761 
L 76.197477 -87.29565 
L 77.455666 -87.449245 
L 79.171378 -88.240094 
L 79.774077 -88.413297 
L 80.363578 -88.372447 
L 80.816702 -88.114277 
L 81.793338 -87.374082 
L 81.436998 -86.939441 
L 80.064428 -85.996631 
L 80.35478 -85.494997 
L 82.545612 -84.472121 
L 84.670456 -82.164932 
L 84.798034 -81.877351 
L 84.811232 -81.452514 
L 84.714448 -81.014606 
L 84.578071 -80.723756 
L 84.476888 -80.71722 
L 84.912415 -79.861011 
L 85.506316 -79.511338 
L 89.945171 -79.445979 
L 90.776632 -79.702515 
L 93.556965 -81.643691 
L 94.630385 -81.939442 
L 95.541033 -81.563625 
L 95.448648 -79.844672 
L 96.469277 -79.727025 
L 97.397521 -80.155129 
L 98.004619 -80.811992 
L 98.567725 -81.576697 
L 99.390387 -82.347939 
L 100.182254 -82.602841 
L 102.029944 -82.646958 
L 102.720628 -82.945978 
L 103.085767 -83.573429 
L 102.922994 -84.044017 
L 102.461072 -84.349572 
L 101.93756 -84.493363 
L 103.943623 -86.818526 
L 104.911461 -87.047284 
L 105.958485 -86.903493 
L 106.921924 -86.596304 
L 108.919189 -86.929637 
L 109.843034 -87.298918 
L 110.617304 -88.164931 
L 110.832868 -88.749898 
L 111.167212 -90.21395 
L 111.457563 -90.883885 
L 112.645364 -91.919832 
L 112.790539 -92.102839 
L 113.578007 -92.076695 
L 115.434496 -91.704146 
L 118.901114 -91.68944 
L 121.298712 -91.194342 
L 121.738638 -91.341401 
L 122.165367 -92.416564 
L 122.644886 -92.704146 
L 126.217087 -93.436171 
L 135.996647 -93.008067 
L 136.33539 -93.078328 
L 137.549586 -94.643688 
L 137.703561 -95.047282 
L 137.747553 -95.638785 
L 137.677165 -97.328327 
L 137.558385 -97.676367 
L 137.342821 -97.821791 
L 136.995279 -98.168196 
L 136.682932 -98.583229 
L 136.546555 -98.932902 
L 136.462969 -99.449242 
L 137.136056 -99.723752 
L 138.161084 -100.579961 
L 138.530622 -100.811987 
L 139.150918 -101.084862 
L 139.2565 -101.106104 
L 139.124522 -100.816889 
L 139.014541 -100.142052 
L 138.864966 -99.642052 
L 138.592212 -99.262967 
L 138.451435 -98.821791 
L 138.684596 -98.124079 
L 139.106925 -97.746628 
L 139.568848 -97.816889 
L 140.519088 -98.315255 
L 141.447333 -98.449242 
L 143.90652 -97.923099 
L 144.627999 -98.040746 
L 146.299719 -98.684536 
L 146.999201 -98.547281 
L 147.197168 -98.182902 
L 147.641494 -96.834863 
L 147.874655 -96.31689 
L 148.217797 -95.903491 
L 149.484784 -94.880616 
L 150.083084 -94.584864 
L 150.958537 -94.561988 
L 151.855987 -94.738459 
L 152.520275 -95.03421 
L 152.926222 -95.398036 
L 154.416357 -96.733556 
L 155.225822 -97.142053 
L 156.743567 -97.508066 
L 158.261312 -97.508066 
L 160.650112 -96.890419 
L 161.380389 -96.98519 
L 160.940463 -95.880615 
L 161.609151 -95.057086 
L 162.713366 -94.32506 
L 163.558024 -93.504799 
L 162.396619 -92.926368 
L 161.877506 -91.460682 
L 162.101868 -89.900225 
L 163.153292 -89.047284 
L 163.808782 -88.932905 
L 164.209115 -88.789114 
L 164.569854 -88.498264 
L 166.514328 -86.343036 
L 168.599578 -84.758069 
L 169.0659 -84.566893 
L 169.42664 -84.69271 
L 169.778581 -84.88552 
L 170.222906 -84.898592 
L 170.632037 -84.678004 
L 170.869598 -84.42637 
L 171.133553 -84.262971 
L 171.591077 -84.284213 
L 171.885827 -84.542383 
L 173.100023 -85.993363 
L 173.086826 -86.519507 
L 172.976844 -86.903493 
L 172.840467 -87.227023 
L 172.743683 -87.573428 
L 172.708489 -87.965585 
L 172.708489 -89.066892 
L 172.814071 -89.231924 
L 173.218804 -90.256434 
L 173.267195 -90.347937 
L 173.174811 -90.311989 
L 173.139617 -91.746629 
L 173.253998 -91.704146 
L 173.940283 -92.609374 
L 173.966678 -92.784211 
L 174.472593 -94.037479 
L 174.578176 -94.174733 
L 174.67056 -94.939439 
L 174.696956 -95.707413 
L 174.578176 -96.51787 
L 174.239432 -97.436171 
L 173.407972 -98.864275 
L 172.88446 -99.499895 
L 172.356548 -99.898588 
L 171.696659 -100.004797 
L 170.61884 -99.529307 
L 169.980947 -99.41983 
L 167.609744 -99.862641 
L 166.914661 -100.570157 
L 167.706528 -101.795647 
L 167.715327 -101.80545 
L 167.988081 -102.253163 
L 168.062868 -102.671463 
L 168.076066 -103.076692 
L 168.159652 -103.478653 
L 168.392813 -103.975385 
L 171.137953 -108.38388 
L 170.939986 -108.583227 
L 170.02054 -109.955775 
L 168.577582 -113.30218 
L 167.860502 -114.004794 
L 167.51736 -114.189434 
L 166.659504 -115.073421 
L 165.638875 -115.684532 
L 165.295733 -116.186166 
L 165.066971 -116.84793 
L 165.051901 -116.939029 
L 164.939392 -117.619172 
L 164.301499 -119.030936 
L 161.305602 -122.155119 
L 160.909668 -122.779302 
L 160.531332 -123.540739 
L 160.315768 -124.374072 
L 160.399354 -125.227013 
L 160.65891 -125.681262 
L 160.931664 -125.774399 
L 161.208818 -125.761327 
L 161.468374 -125.878974 
L 162.075473 -126.825052 
L 162.247044 -127.034202 
L 163.94076 -128.213941 
L 164.495067 -128.847927 
L 165.273736 -130.066881 
L 165.660871 -130.48845 
L 166.303164 -130.829953 
L 168.661168 -131.285835 
L 168.603978 -131.436162 
L 169.263867 -131.965574 
L 170.636437 -132.725378 
L 172.220171 -134.235181 
L 172.906456 -134.720475 
L 177.318916 -136.459037 
L 183.183132 -137.473742 
L 184.612892 -138.266226 
L 188.774594 -141.867532 
L 189.368495 -142.852826 
L 189.610454 -144.194329 
L 189.69404 -144.521126 
L 189.887608 -144.847924 
L 190.076776 -145.282564 
L 190.164761 -145.941061 
L 190.085574 -147.727008 
L 190.164761 -148.315243 
L 190.367127 -148.895308 
L 190.939031 -150.09302 
L 191.057811 -150.709033 
L 190.965427 -151.264589 
L 190.569493 -151.874066 
L 190.397922 -153.014588 
L 190.270343 -153.298902 
L 190.243948 -153.52766 
L 190.477109 -153.967202 
L 190.859845 -154.316875 
L 192.250011 -154.831581 
L 193.675372 -155.021124 
L 198.087832 -153.805438 
L 198.831308 -153.410013 
L 199.521992 -152.903477 
L 200.173082 -151.916549 
L 201.91739 -151.140406 
L 202.009774 -151.044 
L 202.388111 -152.731908 
L 202.74885 -153.452497 
L 202.894026 -153.419817 
L 203.778278 -153.56034 
L 204.117021 -153.70413 
L 204.468962 -154.048902 
L 204.671328 -154.347921 
L 205.401606 -155.906744 
L 205.665561 -156.736809 
L 205.797539 -157.648574 
L 205.828334 -158.710665 
L 205.603972 -160.753148 
L 205.713953 -161.50805 
L 206.281458 -162.04073 
L 205.749147 -162.292364 
L 205.537983 -162.485174 
L 205.084859 -163.364259 
L 204.864896 -163.285827 
L 204.961679 -163.887134 
L 206.233066 -166.521121 
L 207.944379 -166.07014 
L 208.753843 -165.6355 
L 209.528113 -165.040729 
L 210.460757 -164.279291 
L 213.324677 -162.730272 
L 213.698614 -162.331579 
L 214.406895 -161.262952 
L 214.679649 -160.743344 
L 214.895213 -160.543998 
L 215.189964 -160.426351 
L 215.445121 -160.24988 
L 215.555102 -159.86426 
L 215.475916 -159.468835 
L 215.282348 -159.410011 
L 215.075583 -159.449227 
L 214.948004 -159.357724 
L 214.662052 -158.766221 
L 214.420093 -158.677985 
L 214.340906 -158.494979 
L 214.538873 -157.632234 
L 214.723642 -157.285829 
L 215.458319 -156.383868 
L 215.814659 -156.070143 
L 217.262016 -155.472104 
L 223.293404 -154.805437 
L 227.516696 -153.33485 
L 227.925827 -153.380601 
L 228.260171 -153.51132 
L 229.118028 -154.189424 
L 231.330856 -155.128967 
L 232.003943 -155.810339 
L 232.958583 -158.305437 
L 233.578879 -158.727005 
L 234.599508 -157.543999 
L 236.297623 -156.668182 
L 236.799139 -156.547267 
L 237.437032 -156.68779 
L 238.712818 -157.292365 
L 239.368308 -157.344652 
L 239.641062 -157.107724 
L 239.693854 -156.70413 
L 239.698253 -156.282561 
L 239.83463 -156.016221 
L 240.164575 -155.980274 
L 240.815665 -156.20413 
L 241.092819 -156.143672 
L 241.550342 -155.547267 
L 241.8011 -154.952496 
L 242.135444 -154.539098 
L 242.834927 -154.493346 
L 243.495537 -155.144704 
L 243.688384 -155.334849 
L 243.903947 -156.978639 
L 243.881951 -158.911645 
L 244.035925 -160.619161 
L 244.84099 -161.903475 
L 247.080215 -163.838115 
L 247.295779 -165.047265 
L 247.722507 -165.789095 
L 247.894078 -166.557068 
L 248.144836 -167.158375 
L 248.787128 -167.400205 
L 251.008756 -167.099552 
L 253.208387 -166.213931 
L 254.070642 -166.292363 
L 254.55896 -167.400205 
L 254.466576 -167.514585 
L 254.277408 -167.923081 
L 254.092639 -168.423081 
L 254.009053 -168.821774 
L 254.079441 -169.26295 
L 254.387389 -170.060336 
L 255.289238 -174.021119 
L 255.293637 -175.769484 
L 255.117667 -177.704125 
L 255.135264 -179.504778 
L 255.715966 -180.838111 
L 255.676373 -181.181248 
L 255.676373 -181.475365 
L 255.742362 -181.687784 
L 255.878739 -181.792359 
L 256.811383 -181.910006 
L 259.178186 -181.115888 
L 262.49083 -180.851183 
L 262.803177 -179.959026 
L 262.983547 -179.099549 
L 262.96595 -178.240072 
L 262.684397 -177.338112 
L 263.529056 -177.321772 
L 266.775711 -178.177981 
L 266.995674 -178.315235 
L 267.585175 -179.008046 
L 267.725952 -179.341379 
L 267.831534 -180.191052 
L 268.003105 -180.449222 
L 268.328651 -180.45249 
L 268.544215 -180.191052 
L 268.720185 -179.877327 
L 268.93135 -179.733536 
L 270.924215 -179.71066 
L 271.874456 -179.445954 
L 273.920113 -178.426347 
L 275.811796 -177.802164 
L 276.726842 -177.289092 
L 278.829689 -175.504779 
L 279.805842 -175.133126 
L 282.3403 -174.168178 
L 285.644146 -172.341381 
L 286.598786 -172.119159 
L 287.579822 -172.119159 
L 288.296901 -172.341381 
L 289.810248 -173.125694 
L 290.179786 -173.21393 
L 291.481967 -173.217197 
L 291.728326 -173.034191 
L 291.899897 -172.256413 
L 292.111062 -171.932884 
L 292.401413 -171.811969 
L 293.215276 -171.753146 
L 293.681598 -171.419812 
L 293.998345 -171.279289 
L 294.354685 -171.302165 
L 293.919158 -170.736806 
L 294.455868 -170.860989 
L 294.935388 -170.841381 
L 295.252135 -170.557067 
L 295.296127 -169.890401 
L 296.017606 -170.073407 
L 296.241969 -169.802166 
L 296.241969 -169.364257 
L 296.303558 -169.050532 
L 300.58404 -165.991709 
L 302.840862 -165.030925 
L 306.773802 -165.262951 
L 312.726004 -164.396938 
L 312.774396 -164.439422 
L 313.658647 -164.570141 
L 314.221753 -164.119161 
L 314.459313 -164.043997 
L 315.128001 -164.236808 
L 315.594323 -164.664912 
L 317.75436 -168.298898 
L 318.493437 -168.782558 
L 319.720831 -168.606088 
L 320.160757 -168.625695 
L 320.930628 -168.945957 
L 321.322162 -168.998244 
L 321.713696 -168.867525 
L 322.439575 -168.410009 
L 324.982348 -167.684519 
L 325.769816 -167.593016 
L 326.58368 -167.269487 
L 326.918023 -166.508049 
L 327.076397 -165.599552 
L 327.384345 -164.851187 
L 327.943052 -164.465566 
L 328.620538 -164.347919 
L 330.239466 -164.413278 
L 330.890557 -164.194324 
L 332.430299 -163.191056 
L 333.213368 -162.903475 
L 334.03163 -163.001514 
L 335.668156 -163.573409 
L 336.367638 -163.521121 
L 337.37507 -162.128965 
L 337.964571 -157.942692 
L 339.433924 -156.259685 
" style="stroke: #000000"/>
    </defs>
    <g clip-path="url(#pd5179103bb)">
     <use xlink:href="#m12eb112797" x="0" y="197.42953" style="fill: #f5f5f5; stroke: #000000"/>
    </g>
   </g>
  </g>
 </g>
 <defs>
  <clipPath id="pd5179103bb">
   <rect x="7.2" y="7.2" width="357.12" height="183.02953"/>
  </clipPath>
 </defs>
</svg>
