<?xml version="1.0" encoding="utf-8" standalone="no"?>
<!DOCTYPE svg PUBLIC "-//W3C//DTD SVG 1.1//EN"
  "http://www.w3.org/Graphics/SVG/1.1/DTD/svg11.dtd">
<svg xmlns:xlink="http://www.w3.org/1999/xlink" width="354.702487pt" height="280.512pt" viewBox="0 0 354.702487 280.512" xmlns="http://www.w3.org/2000/svg" version="1.1">
 <metadata>
  <rdf:RDF xmlns:dc="http://purl.org/dc/elements/1.1/" xmlns:cc="http://creativecommons.org/ns#" xmlns:rdf="http://www.w3.org/1999/02/22-rdf-syntax-ns#">
   <cc:Work>
    <dc:type rdf:resource="http://purl.org/dc/dcmitype/StillImage"/>
    <dc:date>2024-03-04T13:11:09.076219</dc:date>
    <dc:format>image/svg+xml</dc:format>
    <dc:creator>
     <cc:Agent>
      <dc:title>Matplotlib v3.8.0, https://matplotlib.org/</dc:title>
     </cc:Agent>
    </dc:creator>
   </cc:Work>
  </rdf:RDF>
 </metadata>
 <defs>
  <style type="text/css">*{stroke-linejoin: round; stroke-linecap: butt}</style>
 </defs>
 <g id="figure_1">
  <g id="patch_1">
   <path d="M -0 280.512 
L 354.702487 280.512 
L 354.702487 0 
L -0 0 
z
" style="fill: #ffffff"/>
  </g>
  <g id="axes_1">
   <g id="PatchCollection_1">
    <path d="M 33.501684 75.207822 
L 35.586395 75.701051 
L 36.173829 77.681116 
L 35.419727 79.275176 
L 33.501684 78.624685 
L 32.840479 77.781192 
L 32.509876 76.737547 
L 32.682008 75.779682 
L 33.501684 75.207822 
" clip-path="url(#pc0134af542)" style="fill: #f5f5f5; stroke: #000000"/>
    <path d="M 34.714806 60.793376 
L 39.760602 56.680467 
L 47.785912 50.13891 
L 49.482642 49.556328 
L 51.212159 49.645681 
L 52.199463 50.149102 
L 54.744964 51.44704 
L 55.567373 51.607875 
L 56.632952 51.514948 
L 58.381595 50.989552 
L 59.16302 51.128943 
L 59.928051 51.993881 
L 61.649372 53.591515 
L 69.250504 56.511575 
L 72.693145 57.201381 
L 73.928124 57.687462 
L 73.993698 58.116357 
L 73.239596 58.523807 
L 72.026475 58.949128 
L 70.851605 60.393074 
L 72.113907 62.365991 
L 74.29971 64.213814 
L 75.317438 64.829101 
L 77.98279 66.440493 
L 85.829825 69.242607 
L 88.381751 69.553556 
L 89.660446 69.439184 
L 90.704167 69.060327 
L 92.09231 68.17958 
L 93.441886 67.323302 
L 94.619488 67.055243 
L 98.594919 67.037372 
L 99.545743 67.366192 
L 100.381813 68.173944 
L 101.91734 70.071804 
L 105.03211 72.86677 
L 106.130477 73.513687 
L 109.278034 74.528738 
L 110.144159 75.282878 
L 111.622309 77.255795 
L 112.570401 77.831229 
L 113.726145 77.781192 
L 114.190628 77.059218 
L 114.485711 75.972684 
L 115.081343 74.864706 
L 116.198835 74.171325 
L 117.23436 74.271401 
L 118.239829 74.543035 
L 119.278086 74.378625 
L 120.005246 73.366369 
L 120.299949 72.956123 
L 120.742574 70.733017 
L 121.021264 68.359799 
L 121.534928 66.49768 
L 121.846405 66.068785 
L 122.545862 65.421868 
L 122.85734 64.982251 
L 122.969362 64.528337 
L 123.026739 63.316708 
L 123.130565 62.784164 
L 123.595048 62.244471 
L 124.032209 62.308805 
L 124.196144 62.223026 
L 123.862809 61.215123 
L 122.201598 58.706087 
L 121.179735 57.576664 
L 120.824542 56.983359 
L 120.76142 56.942074 
L 120.392846 56.701003 
L 119.57317 57.0191 
L 118.7371 55.089073 
L 116.141458 53.562922 
L 110.99389 51.422021 
L 108.518467 49.156026 
L 107.441959 48.895115 
L 106.824469 48.612759 
L 104.059428 46.732769 
L 103.149587 45.581901 
L 102.679639 44.077195 
L 102.25771 41.377842 
L 102.179637 40.878353 
L 101.004767 38.669544 
L 100.884548 38.283538 
L 100.152304 38.312131 
L 99.802575 38.833953 
L 99.540279 39.471935 
L 99.075795 39.847218 
L 97.652291 38.680266 
L 96.977424 35.56899 
L 96.952833 32.060987 
L 97.452836 29.691342 
L 98.474699 28.62804 
L 99.627711 28.502946 
L 102.103133 29.056935 
L 103.204232 28.953285 
L 104.048499 28.549409 
L 104.818995 27.8739 
L 107.09223 25.157565 
L 108.226116 23.35978 
L 110.24252 19.296 
L 111.376406 19.590865 
L 112.802643 19.533679 
L 115.245278 19.858925 
L 116.198835 20.412914 
L 116.493919 21.721044 
L 116.239819 24.530306 
L 116.53217 25.706193 
L 117.469333 26.472843 
L 118.474803 26.465694 
L 119.392841 25.884899 
L 121.114161 24.408786 
L 122.201598 24.029928 
L 124.338222 23.599246 
L 124.976109 23.126002 
L 125.294511 22.889783 
L 126.185226 21.996251 
L 126.627851 22.006974 
L 126.851896 22.775411 
L 127.327308 25.489958 
L 127.611463 26.429953 
L 128.125126 27.230557 
L 131.597822 30.375787 
L 132.502198 30.922628 
L 133.168868 31.106696 
L 134.545925 31.285402 
L 135.163414 31.585628 
L 135.409317 31.987717 
L 135.693472 33.254745 
L 135.890194 33.785502 
L 136.606045 34.734432 
L 139.234474 36.928945 
L 140.540491 39.009086 
L 140.99951 41.078504 
L 141.761809 42.361615 
L 141.82692 42.352836 
L 143.988597 42.061388 
L 144.999531 41.668234 
L 146.01593 41.464509 
L 146.972219 41.714698 
L 147.808289 42.676138 
L 148.196269 43.873469 
L 148.382062 45.045782 
L 148.756381 46.05726 
L 149.690812 46.75064 
L 149.809968 46.872139 
L 150.223602 47.293907 
L 150.474969 47.91223 
L 150.649834 48.584166 
L 150.933988 49.284694 
L 152.570609 51.311223 
L 152.97225 52.129698 
L 153.168972 53.820259 
L 153.070611 57.440847 
L 153.595204 59.024185 
L 154.524171 59.93916 
L 158.546049 62.33025 
L 159.7522 62.775806 
L 160.190867 62.937851 
L 165.666305 63.456099 
L 166.819316 63.845679 
L 168.311127 65.904375 
L 169.270149 66.658515 
L 170.352122 66.669238 
L 172.223716 65.439739 
L 173.245579 65.039437 
L 174.305694 65.164531 
L 177.073032 66.555968 
L 178.641782 67.344747 
L 179.655449 67.555621 
L 183.343809 67.230055 
L 184.150007 67.158893 
L 186.390456 66.483383 
L 187.633632 65.714946 
L 187.857677 65.039437 
L 187.589916 64.153054 
L 187.349478 62.730552 
L 187.502484 61.29018 
L 187.99429 60.618244 
L 188.699211 60.117867 
L 189.475172 59.195742 
L 189.923261 57.937651 
L 190.174629 56.854691 
L 190.732009 56.275683 
L 192.103601 56.508001 
L 193.292131 55.839639 
L 195.032578 50.889476 
L 196.035315 48.97732 
L 197.781226 47.915805 
L 203.876886 46.75064 
L 205.437003 45.921443 
L 208.204777 43.566095 
L 212.775839 40.756833 
L 213.986228 39.461212 
L 215.054539 37.473999 
L 217.284059 31.471256 
L 217.643157 31.015707 
L 221.262222 26.424592 
L 223.815395 22.419377 
L 224.366149 22.897803 
L 225.992593 23.863098 
L 227.859993 25.509447 
L 232.524188 31.85 
L 234.331348 33.642691 
L 235.071424 34.720557 
L 235.37692 36.400678 
L 238.986938 40.394129 
L 241.004934 44.683079 
L 242.076322 45.068634 
L 242.966994 45.980458 
L 243.638225 47.055509 
L 244.077107 47.950448 
L 245.303394 49.723439 
L 245.518533 50.137137 
L 245.785304 50.421378 
L 247.093344 50.812562 
L 247.536529 51.057404 
L 248.323934 52.222512 
L 250.234361 56.154049 
L 251.834989 59.458004 
L 252.600881 60.569641 
L 253.263506 61.864206 
L 253.581911 63.372656 
L 254.235931 69.369868 
L 254.571546 70.639105 
L 255.152419 71.173816 
L 255.513852 71.970255 
L 256.413129 76.920559 
L 258.934548 81.074424 
L 265.276821 88.197345 
L 265.801758 88.988155 
L 266.275062 90.105421 
L 267.393781 91.067902 
L 269.803328 92.551023 
L 270.982285 92.241453 
L 271.980526 93.113877 
L 272.927134 94.284614 
L 273.985614 94.867168 
L 274.566487 95.539779 
L 274.329835 97.053857 
L 273.409044 99.63173 
L 273.094942 100.971323 
L 273.017492 101.697405 
L 273.082034 102.465701 
L 273.301475 102.904728 
L 274.01143 103.785595 
L 274.16633 104.140193 
L 274.200752 104.199293 
L 274.57079 104.812804 
L 275.508792 105.699299 
L 276.541455 106.476038 
L 277.251411 106.805308 
L 279.549087 106.943207 
L 280.58175 107.219006 
L 281.420789 107.703061 
L 283.305399 109.371924 
L 284.346668 109.878493 
L 286.99717 110.233091 
L 289.260423 110.942287 
L 290.508224 111.052044 
L 291.476346 110.855045 
L 294.415133 109.633651 
L 295.680146 109.414138 
L 301.699712 109.633651 
L 302.142896 110.072677 
L 302.375245 110.556732 
L 302.547356 111.057672 
L 302.784008 111.524841 
L 303.726313 112.681507 
L 304.73316 113.590517 
L 305.804548 114.187142 
L 310.584917 115.211537 
L 311.510012 115.729363 
L 312.090885 116.765015 
L 312.736299 118.363521 
L 313.536613 119.849457 
L 314.582185 120.496739 
L 315.731022 120.913251 
L 316.712052 121.968603 
L 317.48655 123.356039 
L 318.011487 124.788503 
L 318.553635 130.49866 
L 318.91937 131.067143 
L 319.358252 132.361708 
L 319.629326 133.791358 
L 319.457215 134.751024 
L 318.441763 132.775406 
L 317.344558 131.067143 
L 316.032216 129.533365 
L 313.420438 127.405776 
L 312.306023 126.783822 
L 311.109855 126.339167 
L 308.747638 126.012711 
L 306.759761 125.3598 
L 305.701281 125.219087 
L 305.1075 125.286629 
L 304.388938 125.601827 
L 303.898423 125.734098 
L 301.867519 125.734098 
L 300.938122 126.130911 
L 299.148173 127.622474 
L 298.089693 127.622474 
L 297.71105 127.287576 
L 297.031213 126.198453 
L 296.613845 125.734098 
L 296.058789 125.511771 
L 294.699116 125.275372 
L 293.313626 124.521147 
L 292.263752 125.106516 
L 290.508224 126.679693 
L 290.869657 128.3176 
L 289.380901 129.845749 
L 287.229519 130.968643 
L 283.718464 131.762268 
L 280.637686 133.554959 
L 276.593088 135.054965 
L 275.64648 135.750091 
L 273.615576 137.995879 
L 272.70339 138.637533 
L 272.118215 139.394572 
L 272.006343 140.88895 
L 272.294628 142.768884 
L 272.333353 143.506223 
L 269.480621 144.620674 
L 268.951381 145.690098 
L 269.080464 147.085976 
L 269.803328 148.487483 
L 270.276632 149.005309 
L 271.029616 149.596306 
L 271.442681 150.116947 
L 271.662122 150.828957 
L 271.365231 151.267984 
L 270.835991 151.611325 
L 269.906594 152.47812 
L 269.493529 152.683562 
L 269.097675 152.973432 
L 268.719032 153.679814 
L 268.478077 154.50721 
L 268.447958 155.129164 
L 268.719032 156.5166 
L 269.325721 157.999721 
L 269.506437 158.804603 
L 269.26118 159.60667 
L 268.796481 160.121682 
L 268.392022 160.459395 
L 268.099434 160.853392 
L 267.996168 161.514746 
L 268.090828 161.900302 
L 268.267242 162.266157 
L 268.409233 162.679855 
L 268.3576 163.169538 
L 268.133856 163.473479 
L 267.273303 164.112319 
L 266.950596 165.091685 
L 266.97211 165.525083 
L 267.273303 166.003509 
L 267.032349 166.909705 
L 267.333542 167.8553 
L 268.538316 169.543863 
L 268.473774 170.13486 
L 267.746607 170.700529 
L 266.378329 171.477267 
L 265.044472 173.106731 
L 263.908542 174.499795 
L 262.89309 176.230572 
L 262.944724 177.421009 
L 262.329428 178.569232 
L 261.78728 180.091753 
L 261.369912 181.695887 
L 261.141866 183.091766 
L 261.189196 184.960442 
L 261.714133 186.238122 
L 266.636494 190.797241 
L 267.273303 191.588052 
L 267.699277 192.48299 
L 267.651946 192.786931 
L 267.415294 193.031773 
L 267.083982 195.336661 
L 267.157129 196.028972 
L 267.600313 196.822597 
L 266.950596 196.476441 
L 266.464384 196.043044 
L 266.098649 195.522403 
L 265.801758 194.934221 
L 265.474748 194.934221 
L 265.672675 195.958615 
L 266.120163 197.089953 
L 266.76988 198.080576 
L 267.600313 198.671573 
L 267.600313 199.186585 
L 266.408448 198.896715 
L 265.659767 198.055248 
L 264.988536 197.067438 
L 262.277795 195.24379 
L 260.517965 195.930473 
L 259.153989 197.720349 
L 258.611841 199.915481 
L 258.650566 207.485871 
L 258.465547 208.394881 
L 258.22029 209.619089 
L 257.475912 211.853621 
L 257.222048 212.931487 
L 257.067149 215.377089 
L 256.826194 216.848953 
L 256.327074 218.078789 
L 252.359926 220.915575 
L 250.268783 221.745785 
L 248.801541 220.521577 
L 248.969349 219.711067 
L 248.952138 219.153841 
L 249.029587 218.689486 
L 249.524405 218.163218 
L 251.89953 217.69042 
L 252.712753 217.262651 
L 253.4098 216.204485 
L 253.840077 214.822677 
L 253.887407 213.438056 
L 253.289323 212.135048 
L 252.230843 211.580637 
L 249.705121 211.504651 
L 249.705121 210.888326 
L 249.395322 208.05154 
L 249.193092 207.257916 
L 248.25509 206.455848 
L 247.252546 206.191307 
L 244.993596 206.270106 
L 244.365392 206.495248 
L 244.055593 207.046845 
L 243.849061 207.750413 
L 243.410179 208.746665 
L 243.367151 209.098449 
L 243.384362 209.84986 
L 243.27249 210.3902 
L 243.018627 210.536542 
L 242.760461 210.533728 
L 242.631379 210.604084 
L 242.532415 213.834868 
L 242.713131 215.534688 
L 243.573684 217.020623 
L 243.358546 218.709186 
L 241.938634 223.673561 
L 241.753615 224.123845 
L 240.720952 226.606032 
L 240.591869 226.766446 
L 239.094507 228.626679 
L 237.18408 228.12011 
L 237.222805 230.576969 
L 237.33898 231.708306 
L 237.575632 232.79743 
L 238.840644 236.03947 
L 239.124627 246.702745 
L 239.430123 258.339758 
L 239.430123 258.351015 
L 236.016397 257.62043 
L 234.325131 257.607921 
L 233.142065 258.270921 
L 232.098344 259.353881 
L 230.759539 260.215245 
L 229.327838 260.844291 
L 228.054607 261.216 
L 225.613729 261.008393 
L 225.34421 260.985469 
L 223.655677 259.298482 
L 222.213047 256.816252 
L 221.525591 255.924347 
L 220.213036 254.221438 
L 219.426147 253.077718 
L 218.535432 252.07875 
L 217.666575 250.683054 
L 216.819576 249.889598 
L 216.136512 248.951391 
L 215.767658 247.119652 
L 215.161097 245.622093 
L 213.917922 245.622093 
L 211.23758 246.903417 
L 209.611888 246.864102 
L 208.655599 245.936616 
L 207.824994 244.676737 
L 205.262139 242.573365 
L 205.163778 241.404626 
L 205.382358 240.053607 
L 205.13483 239.045732 
L 204.994378 238.473844 
L 204.327708 237.900197 
L 197.327671 234.360026 
L 193.890495 231.550764 
L 192.841309 229.577847 
L 192.715626 226.732844 
L 193.207432 225.946536 
L 195.977938 224.195215 
L 196.130944 223.748449 
L 196.120015 223.226627 
L 196.300344 222.779862 
L 206.06269 221.016031 
L 208.240296 219.638206 
L 208.245761 219.623909 
L 208.253958 219.623909 
L 208.732102 218.891214 
L 209.14194 218.001257 
L 209.150771 217.967954 
L 209.398772 217.032669 
L 209.426095 216.069442 
L 209.144673 215.195569 
L 207.549036 211.717945 
L 206.75395 210.92449 
L 203.732076 209.648527 
L 200.721132 206.676642 
L 199.431508 204.819884 
L 198.721121 202.966701 
L 198.819483 200.591695 
L 199.792165 198.625926 
L 201.322228 197.142664 
L 203.103658 196.206244 
L 206.41515 195.530734 
L 209.196586 193.625725 
L 210.568548 193.180865 
L 211.125557 193.000254 
L 209.950688 190.494792 
L 208.464341 188.428948 
L 204.841372 185.040678 
L 195.95608 174.246821 
L 192.715626 171.190944 
L 191.693762 170.479693 
L 190.968907 170.292822 
L 190.945125 170.28669 
L 190.3331 171.212389 
L 189.781184 171.727063 
L 189.130908 171.891472 
L 185.109029 171.812842 
L 183.852192 172.155958 
L 182.830328 172.874357 
L 182.007253 173.723719 
L 179.737416 176.06605 
L 173.376802 179.688375 
L 172.425903 180.229906 
L 169.628074 183.107076 
L 168.94501 183.578861 
L 167.759212 183.714677 
L 164.059739 184.994214 
L 161.846613 186.230861 
L 160.119828 187.699826 
L 157.491399 191.130986 
L 157.485326 191.137297 
L 155.737292 192.95379 
L 154.149203 193.868781 
L 153.535094 194.222604 
L 148.267307 196.306319 
L 145.73724 197.878934 
L 145.223576 198.472239 
L 145.043247 199.162045 
L 143.130669 202.267959 
L 142.239954 204.891367 
L 141.966728 205.404254 
L 141.414813 206.070828 
L 141.05316 206.278605 
L 137.887472 208.097357 
L 137.245392 208.218877 
L 136.453039 208.000855 
L 134.977621 207.330707 
L 134.147016 207.353939 
L 133.268426 207.766419 
L 133.256301 207.772111 
L 132.453018 208.454769 
L 131.734435 209.301837 
L 130.376504 211.703649 
L 130.075956 212.127183 
L 129.655189 212.473873 
L 128.780868 212.958167 
L 128.371029 213.304857 
L 127.72895 214.327056 
L 126.840967 216.425068 
L 125.97211 217.275709 
L 122.90652 218.869769 
L 121.942034 219.697179 
L 121.237113 220.628238 
L 119.748034 223.773468 
L 119.141473 224.763501 
L 118.409229 225.592698 
L 117.589553 226.282504 
L 116.737089 226.829345 
L 115.592275 227.30113 
L 114.638718 227.358315 
L 112.802643 223.401759 
L 112.578598 222.594007 
L 112.526685 221.752301 
L 112.616849 220.896298 
L 112.802643 220.056378 
L 112.879146 219.858015 
L 112.917397 219.639993 
L 113.61139 217.443693 
L 113.764396 215.506518 
L 113.469313 213.544323 
L 112.802643 211.27118 
L 111.523947 210.222174 
L 109.764375 209.205336 
L 108.411909 207.836446 
L 108.359997 205.709841 
L 109.578582 204.551825 
L 111.431051 204.794865 
L 114.644182 206.453259 
L 115.294459 206.356758 
L 117.745291 204.580418 
L 118.857319 204.537528 
L 119.321802 204.30521 
L 119.138284 203.821168 
L 119.070435 203.64221 
L 118.715242 203.227612 
L 118.365513 202.902366 
L 116.108671 201.292223 
L 114.829975 199.923333 
L 114.316312 198.904708 
L 114.037622 197.803877 
L 113.646909 196.799548 
L 112.802643 196.091872 
L 108.999344 194.369143 
L 107.267095 193.007402 
L 106.540315 190.834334 
L 107.234308 189.05442 
L 108.911912 188.003627 
L 112.783586 187.267407 
L 112.802643 187.263783 
L 113.44199 186.94926 
L 113.802648 186.441735 
L 113.821773 185.794818 
L 113.458384 185.065697 
L 113.474777 183.921977 
L 114.092267 183.350117 
L 114.862763 182.86761 
L 115.338175 181.988375 
L 115.179704 180.848229 
L 114.53216 179.954698 
L 113.655106 179.37569 
L 112.802643 179.186261 
L 109.463827 179.507932 
L 108.420106 179.325652 
L 107.627752 178.746644 
L 106.381844 177.041786 
L 105.633206 176.423463 
L 103.824454 176.29122 
L 100.212413 178.160487 
L 98.376338 178.546493 
L 97.201469 178.178358 
L 96.425508 177.427792 
L 95.185065 175.050999 
L 94.422766 174.103856 
L 93.512925 173.585608 
L 91.50745 172.999451 
L 89.846239 171.65558 
L 87.807977 167.481002 
L 86.362615 166.058501 
L 83.026532 165.043449 
L 81.284125 164.144761 
L 80.157664 163.563762 
L 77.775138 161.169098 
L 77.371031 160.332895 
L 75.004632 155.436202 
L 73.859817 154.160239 
L 72.414455 153.44184 
L 66.900765 152.86998 
L 65.223161 152.108691 
L 65.126111 151.153424 
L 65.056493 150.468168 
L 68.403505 148.287952 
L 77.092075 149.735473 
L 80.786083 149.370912 
L 81.496469 148.770459 
L 81.857127 148.034189 
L 82.480081 144.853218 
L 82.676803 144.327822 
L 83.84894 143.298474 
L 84.857142 141.940306 
L 85.501954 140.246171 
L 86.460976 135.79996 
L 86.496495 135.388935 
L 86.460976 134.981485 
L 86.362615 134.581183 
L 85.004684 132.783399 
L 84.245117 132.043555 
L 83.474621 131.636104 
L 82.316145 131.707587 
L 81.565224 131.927757 
L 81.20685 132.032832 
L 80.146735 131.975646 
L 77.898391 129.494303 
L 77.857106 129.44874 
L 65.540102 122.468474 
L 62.408938 119.541266 
L 60.698547 115.902807 
L 60.253189 115.098629 
L 59.157555 114.376656 
L 58.668482 113.829815 
L 58.425311 113.086397 
L 58.305092 111.556671 
L 58.09744 110.874013 
L 57.176671 109.726719 
L 56.108359 108.8868 
L 55.09196 107.889619 
L 54.337858 106.284837 
L 54.340243 104.999527 
L 54.343323 103.339758 
L 55.673931 101.013003 
L 57.742247 99.322442 
L 59.878618 98.29864 
L 63.977252 96.334474 
L 65.370702 94.758284 
L 66.362511 91.909707 
L 66.266882 90.379982 
L 65.348844 89.897475 
L 64.102936 89.808122 
L 63.026428 89.465006 
L 62.190358 88.617938 
L 59.928051 85.730045 
L 58.529137 84.589899 
L 58.002055 84.452298 
L 57.255906 84.257506 
L 56.60563 83.556977 
L 57.070113 81.319575 
L 56.747707 79.682626 
L 55.288683 79.839887 
L 54.782402 80.090298 
L 52.318722 81.308853 
L 51.113798 81.11585 
L 48.796846 80.172281 
L 46.30503 79.882777 
L 45.436173 79.160804 
L 44.616496 78.285143 
L 43.534523 77.620356 
L 41.807739 75.840442 
L 40.933417 75.375806 
L 40.780411 76.633897 
L 40.458005 77.455946 
L 39.436141 77.352297 
L 38.291327 76.587434 
L 37.610995 75.432992 
L 38.17384 73.209886 
L 43.403375 73.427908 
L 45.217592 72.116204 
L 45.149286 71.015373 
L 44.46349 70.032489 
L 41.695716 67.888014 
L 40.79134 67.59851 
L 37.33777 67.594936 
L 36.430661 67.20893 
L 36.13831 66.35114 
L 36.6711 64.892897 
L 34.714806 60.793376 
M 61.747733 108.411441 
L 63.518234 107.056848 
L 64.234084 105.251915 
L 62.857028 104.472756 
L 62.091997 104.369106 
L 61.318769 104.383403 
L 60.589257 104.59785 
L 59.928051 105.073209 
L 59.616574 105.759441 
L 59.507284 106.481414 
L 59.61111 107.203387 
L 59.928051 107.868174 
L 61.747733 108.411441 
" clip-path="url(#pc0134af542)" style="fill: #f5f5f5; stroke: #000000"/>
    <path d="M 94.644078 228.636065 
L 94.12495 228.707548 
L 91.053896 227.915879 
L 87.55661 226.300375 
L 76.414476 223.905711 
L 75.1978 223.419154 
L 72.490958 222.33667 
L 67.780551 222.286632 
L 64.769606 221.534279 
L 63.305118 221.482454 
L 62.90449 221.391072 
L 62.654841 221.334128 
L 61.567404 220.685424 
L 60.734828 220.459881 
L 60.102915 220.288697 
L 58.900723 219.68467 
L 57.777767 218.916233 
L 57.168474 218.179963 
L 57.072845 217.436545 
L 57.228584 216.850388 
L 57.444432 216.27138 
L 57.561919 215.558342 
L 57.307819 215.095493 
L 56.045517 214.514698 
L 55.545515 214.137628 
L 55.277754 213.555045 
L 54.862451 212.068209 
L 54.643871 211.521368 
L 54.1466 210.981676 
L 53.654795 210.68681 
L 53.195776 210.334759 
L 52.843315 209.634231 
L 53.299601 208.613818 
L 52.999053 207.872187 
L 52.294132 207.421847 
L 51.556423 207.271734 
L 51.037295 207.016184 
L 51.048224 206.424666 
L 51.184836 205.774176 
L 51.037295 205.339919 
L 50.540024 205.280946 
L 50.059147 205.472162 
L 49.693025 205.727712 
L 49.556413 205.856381 
L 44.048187 204.004984 
L 42.662934 204.441027 
L 42.321402 203.393809 
L 41.769487 199.948352 
L 41.403365 199.20136 
L 40.952543 198.536573 
L 40.633855 197.813445 
L 39.665651 195.616513 
L 39.239419 194.951726 
L 38.750346 194.672944 
L 38.217556 194.018879 
L 37.78586 193.30048 
L 37.610995 192.807251 
L 37.321376 192.453412 
L 35.414263 191.130986 
L 35.228469 190.887946 
L 35.113715 190.573423 
L 34.925189 190.301789 
L 34.512619 190.187417 
L 33.938845 190.205288 
L 33.662887 190.148102 
L 32.315886 189.158069 
L 32.119164 188.66484 
L 32.559057 187.824921 
L 31.452493 186.834888 
L 30.802217 185.44098 
L 29.217509 178.793107 
L 28.583626 177.299123 
L 27.468866 176.494945 
L 27.676518 176.29122 
L 27.834988 175.976697 
L 26.616403 175.940956 
L 25.485249 175.71936 
L 25.279899 175.598785 
L 24.523496 175.154648 
L 24.383171 174.951298 
L 23.788519 174.089559 
L 23.184691 171.469726 
L 22.668295 170.601213 
L 24.168303 169.936426 
L 26.621867 169.486086 
L 28.933355 169.521828 
L 30.736643 169.085784 
L 32.114285 168.307196 
L 32.425176 168.131493 
L 34.376006 166.61249 
L 36.359623 165.926258 
L 38.157446 166.83766 
L 38.553291 167.348941 
L 42.056374 171.873602 
L 42.600092 173.028044 
L 42.829602 174.307581 
L 42.74217 175.923085 
L 42.223041 178.41425 
L 42.430693 179.422153 
L 43.466217 180.094089 
L 45.414315 179.625878 
L 46.917055 178.214099 
L 48.332363 177.731592 
L 48.662061 178.200848 
L 49.97718 180.072644 
L 50.602866 181.509442 
L 51.135656 182.288602 
L 51.906152 182.603124 
L 54.408897 182.839017 
L 55.332399 183.328672 
L 57.002477 185.054345 
L 57.010003 185.062122 
L 57.578312 185.39809 
L 58.173944 185.491017 
L 58.77504 185.369497 
L 59.365207 185.065697 
L 59.928051 184.822656 
L 64.179439 182.081302 
L 65.594747 181.487997 
L 72.077889 179.89508 
L 72.373471 179.822455 
L 73.600253 179.801011 
L 75.059277 180.369296 
L 76.256005 181.241383 
L 76.731417 182.113469 
L 76.742346 183.285782 
L 76.570214 185.044252 
L 76.570214 185.0514 
L 77.048359 188.210926 
L 76.813385 189.301034 
L 75.034687 192.271132 
L 74.69862 193.654318 
L 75.001992 194.369625 
L 75.141245 194.697963 
L 78.14126 195.480696 
L 79.228698 196.381376 
L 80.234168 197.489354 
L 81.496469 198.482961 
L 82.267592 198.866509 
L 85.283374 200.366525 
L 86.362615 201.413743 
L 86.709611 201.95701 
L 86.82983 202.478833 
L 86.72054 202.977423 
L 86.362615 203.443846 
L 85.086652 205.152278 
L 84.764246 206.912534 
L 85.245122 208.729977 
L 86.362615 210.602818 
L 87.736939 212.607902 
L 88.807982 214.798841 
L 91.562095 222.633322 
L 94.644078 228.636065 
" clip-path="url(#pc0134af542)" style="fill: #f5f5f5; stroke: #000000"/>
    <path d="M 45.68754 83.095915 
L 44.46349 82.899338 
L 43.955291 81.308853 
L 44.119226 81.130147 
L 44.305019 81.026497 
L 44.512671 80.99433 
L 44.731251 81.033645 
L 46.24492 82.331053 
L 45.68754 83.095915 
" clip-path="url(#pc0134af542)" style="fill: #f5f5f5; stroke: #000000"/>
    <path d="M 331.67276 129.296966 
L 330.678822 129.040867 
L 330.016196 129.254752 
L 329.233093 128.601841 
L 328.716762 127.577446 
L 328.837239 126.679693 
L 329.525681 127.220034 
L 330.033407 127.05962 
L 330.498105 126.705022 
L 331.040254 126.679693 
L 331.79754 127.493018 
L 332.034192 128.579327 
L 331.67276 129.296966 
" clip-path="url(#pc0134af542)" style="fill: #f5f5f5; stroke: #000000"/>
    <path d="M 319.487335 122.264101 
L 318.699929 122.444215 
L 317.650055 122.387929 
L 317.912523 120.704995 
L 316.187115 118.363521 
L 316.208629 116.717172 
L 316.854043 117.063328 
L 317.650055 116.8016 
L 318.011487 117.232184 
L 318.131964 118.675905 
L 318.648296 119.435759 
L 319.306618 120.02957 
L 319.848767 120.969537 
L 319.9004 121.791304 
L 319.487335 122.264101 
" clip-path="url(#pc0134af542)" style="fill: #f5f5f5; stroke: #000000"/>
   </g>
  </g>
 </g>
 <defs>
  <clipPath id="pc0134af542">
   <rect x="7.2" y="7.2" width="340.302487" height="266.112"/>
  </clipPath>
 </defs>
</svg>
