<?xml version="1.0" encoding="utf-8" standalone="no"?>
<!DOCTYPE svg PUBLIC "-//W3C//DTD SVG 1.1//EN"
  "http://www.w3.org/Graphics/SVG/1.1/DTD/svg11.dtd">
<svg xmlns:xlink="http://www.w3.org/1999/xlink" width="163.0004pt" height="280.512pt" viewBox="0 0 163.0004 280.512" xmlns="http://www.w3.org/2000/svg" version="1.1">
 <metadata>
  <rdf:RDF xmlns:dc="http://purl.org/dc/elements/1.1/" xmlns:cc="http://creativecommons.org/ns#" xmlns:rdf="http://www.w3.org/1999/02/22-rdf-syntax-ns#">
   <cc:Work>
    <dc:type rdf:resource="http://purl.org/dc/dcmitype/StillImage"/>
    <dc:date>2024-03-04T13:11:09.100965</dc:date>
    <dc:format>image/svg+xml</dc:format>
    <dc:creator>
     <cc:Agent>
      <dc:title>Matplotlib v3.8.0, https://matplotlib.org/</dc:title>
     </cc:Agent>
    </dc:creator>
   </cc:Work>
  </rdf:RDF>
 </metadata>
 <defs>
  <style type="text/css">*{stroke-linejoin: round; stroke-linecap: butt}</style>
 </defs>
 <g id="figure_1">
  <g id="patch_1">
   <path d="M 0 280.512 
L 163.0004 280.512 
L 163.0004 0 
L 0 0 
z
" style="fill: #ffffff"/>
  </g>
  <g id="axes_1">
   <g id="PatchCollection_1">
    <path d="M 66.557552 51.16169 
L 79.819755 62.764704 
L 82.935592 57.832087 
L 87.556331 54.161983 
L 89.536648 59.300128 
L 91.516964 67.374356 
L 95.477597 67.741367 
L 92.355632 71.628019 
L 92.17707 78.017656 
L 85.97542 79.570987 
L 87.777078 99.465842 
L 87.101456 129.628112 
L 82.522242 167.303125 
L 79.744687 174.774129 
L 70.811467 189.479628 
L 70.761421 189.535277 
L 68.709533 179.1983 
L 65.206309 167.859624 
L 60.351842 156.81311 
L 54.196178 147.310882 
L 40.783837 132.07671 
L 38.531765 122.602307 
L 44.537291 111.124505 
L 46.213833 106.143836 
L 47.890376 101.163165 
L 46.138764 88.294116 
L 41.459459 75.647666 
L 36.229646 66.4376 
L 34.978495 62.319504 
L 35.178679 56.726685 
L 38.756972 40.560376 
L 41.009044 36.581405 
L 44.987705 34.633656 
L 45.037751 34.647569 
L 45.338027 34.647569 
L 51.89406 34.828431 
L 55.722583 35.621443 
L 60.652119 37.875266 
L 64.655803 39.711714 
L 64.680825 39.697801 
L 77.342476 34.661481 
L 79.369341 35.99708 
L 80.645515 40.462988 
L 82.897588 43.55156 
L 83.573209 44.956721 
L 84.248831 46.361882 
L 82.522242 49.993041 
L 79.619571 50.799965 
L 70.861513 49.575667 
L 66.557552 51.16169 
" clip-path="url(#p3fdcaf86f1)" style="fill: #f5f5f5; stroke: #000000"/>
    <path d="M 19.235408 57.832087 
L 22.535936 58.933118 
L 25.836463 60.76817 
L 25.836463 66.640335 
L 26.496569 71.41147 
L 27.156674 76.549615 
L 21.545777 75.081574 
L 15.604827 75.448584 
L 13.954564 69.943429 
L 14.614669 62.970232 
L 19.235408 57.832087 
" clip-path="url(#p3fdcaf86f1)" style="fill: #f5f5f5; stroke: #000000"/>
    <path d="M 81.945434 22.232083 
L 91.516964 19.296 
L 98.448072 22.966104 
L 98.778125 28.104248 
L 98.778125 33.242393 
L 103.398864 39.84858 
L 107.359497 41.683632 
L 105.709233 46.454766 
L 104.058969 48.289818 
L 99.108178 45.353735 
L 97.787967 40.5826 
L 96.137703 35.811466 
L 91.847017 34.710435 
L 87.886384 33.976414 
L 85.245962 35.077445 
L 81.285328 27.737238 
L 81.945434 22.232083 
" clip-path="url(#p3fdcaf86f1)" style="fill: #f5f5f5; stroke: #000000"/>
    <path d="M 135.035471 212.74746 
L 137.56512 213.180215 
L 140.09477 211.232819 
L 143.208184 209.501799 
L 143.208184 211.665573 
L 142.429831 214.694857 
L 140.09477 218.156896 
L 137.759709 221.186179 
L 139.316416 222.700821 
L 141.651477 225.29735 
L 140.483946 227.028369 
L 136.786767 226.16286 
L 135.035471 227.461124 
L 132.505821 229.841276 
L 131.338291 231.13954 
L 132.70041 235.683466 
L 135.035471 238.929127 
L 135.619236 241.092901 
L 133.478763 241.958411 
L 132.311233 244.122185 
L 131.922056 246.935091 
L 133.673352 248.233355 
L 135.035471 250.180752 
L 133.089587 252.128149 
L 131.338291 255.157433 
L 129.781584 258.186716 
L 130.559937 260.35049 
L 129.586995 261.216 
L 126.084404 259.484981 
L 123.749343 255.806565 
L 124.916873 252.560904 
L 127.251934 247.151468 
L 127.057346 243.905807 
L 127.057346 239.145504 
L 124.333108 236.116221 
L 124.527696 233.086937 
L 124.916873 228.975766 
L 126.084404 224.43184 
L 129.197818 219.45516 
L 133.284175 214.47848 
L 135.035471 212.74746 
" clip-path="url(#p3fdcaf86f1)" style="fill: #f5f5f5; stroke: #000000"/>
    <path d="M 135.424648 202.144967 
L 137.759709 201.06308 
L 139.900181 201.279458 
L 140.289358 203.443232 
L 136.981355 204.741496 
L 135.424648 202.144967 
" clip-path="url(#p3fdcaf86f1)" style="fill: #f5f5f5; stroke: #000000"/>
    <path d="M 144.375715 227.244747 
L 149.045837 227.461124 
L 148.072895 230.706785 
L 145.543245 232.437805 
L 144.181126 230.490408 
L 143.597361 228.759389 
L 144.375715 227.244747 
" clip-path="url(#p3fdcaf86f1)" style="fill: #f5f5f5; stroke: #000000"/>
    <path d="M 140.873123 236.548975 
L 142.819007 236.765353 
L 146.516187 237.414485 
L 148.072895 239.145504 
L 147.683718 241.742033 
L 146.516187 243.473052 
L 145.348657 243.040298 
L 143.791949 242.607543 
L 141.651477 243.040298 
L 140.09477 243.905807 
L 138.732651 241.092901 
L 139.316416 239.361882 
L 138.343474 237.84724 
L 138.927239 236.332598 
L 140.873123 236.548975 
" clip-path="url(#p3fdcaf86f1)" style="fill: #f5f5f5; stroke: #000000"/>
   </g>
  </g>
 </g>
 <defs>
  <clipPath id="p3fdcaf86f1">
   <rect x="7.2" y="7.2" width="148.6004" height="266.112"/>
  </clipPath>
 </defs>
</svg>
