<?xml version="1.0" encoding="utf-8" standalone="no"?>
<!DOCTYPE svg PUBLIC "-//W3C//DTD SVG 1.1//EN"
  "http://www.w3.org/Graphics/SVG/1.1/DTD/svg11.dtd">
<svg xmlns:xlink="http://www.w3.org/1999/xlink" width="205.768563pt" height="280.512pt" viewBox="0 0 205.768563 280.512" xmlns="http://www.w3.org/2000/svg" version="1.1">
 <metadata>
  <rdf:RDF xmlns:dc="http://purl.org/dc/elements/1.1/" xmlns:cc="http://creativecommons.org/ns#" xmlns:rdf="http://www.w3.org/1999/02/22-rdf-syntax-ns#">
   <cc:Work>
    <dc:type rdf:resource="http://purl.org/dc/dcmitype/StillImage"/>
    <dc:date>2024-03-04T13:11:09.127197</dc:date>
    <dc:format>image/svg+xml</dc:format>
    <dc:creator>
     <cc:Agent>
      <dc:title>Matplotlib v3.8.0, https://matplotlib.org/</dc:title>
     </cc:Agent>
    </dc:creator>
   </cc:Work>
  </rdf:RDF>
 </metadata>
 <defs>
  <style type="text/css">*{stroke-linejoin: round; stroke-linecap: butt}</style>
 </defs>
 <g id="figure_1">
  <g id="patch_1">
   <path d="M 0 280.512 
L 205.768563 280.512 
L 205.768563 0 
L 0 0 
z
" style="fill: #ffffff"/>
  </g>
  <g id="axes_1">
   <g id="PatchCollection_1">
    <path d="M 187.348639 210.287609 
L 187.889485 212.770999 
L 187.994541 214.013756 
L 187.336966 220.301895 
L 187.889485 230.103745 
L 187.982868 231.146811 
L 188.379748 233.205327 
L 189.733808 237.373344 
L 189.801801 237.789118 
L 189.869992 238.206097 
L 189.527586 238.87315 
L 188.796082 239.657043 
L 187.91283 240.24337 
L 187.150199 240.309225 
L 186.702737 239.793003 
L 186.434259 238.943254 
L 186.146327 237.281996 
L 185.414823 235.629235 
L 184.442079 235.404052 
L 183.189184 235.682344 
L 181.597775 235.525141 
L 180.737869 235.22348 
L 180.337098 234.996172 
L 180.018038 234.656273 
L 179.757342 233.936111 
L 179.679523 233.247815 
L 179.519993 232.574389 
L 179.021948 231.900963 
L 177.815745 231.486711 
L 176.379974 233.247815 
L 175.189335 233.228695 
L 174.562888 233.328541 
L 174.142663 234.135802 
L 173.632945 235.886284 
L 172.582381 237.434951 
L 172.38005 238.152988 
L 172.372268 238.958125 
L 172.640745 240.591767 
L 172.594054 241.394779 
L 172.383941 242.612044 
L 172.255539 243.255728 
L 172.473433 243.984388 
L 172.757475 244.551595 
L 173.640727 245.397095 
L 173.889749 246.008914 
L 174.111535 246.644101 
L 175.650385 247.962934 
L 175.402221 249.548685 
L 175.347073 251.251527 
L 175.512516 252.930952 
L 175.907741 254.44143 
L 176.986185 256.132563 
L 177.166947 256.560783 
L 177.249669 257.331913 
L 177.939015 259.494757 
L 178.214754 260.023341 
L 178.328113 260.458252 
L 178.242328 260.899853 
L 177.923696 261.216 
L 177.69085 261.080509 
L 177.497833 260.782762 
L 177.304816 260.618834 
L 177.001504 260.247487 
L 176.137523 258.116425 
L 173.563964 253.319026 
L 172.929765 250.652689 
L 172.6816 250.234505 
L 170.717729 248.521626 
L 170.350078 247.989697 
L 169.737326 246.778638 
L 169.314527 246.122927 
L 167.644777 244.112301 
L 167.378229 243.446553 
L 167.323082 242.580078 
L 167.635585 239.923777 
L 167.568183 238.945228 
L 167.372102 238.160716 
L 165.282617 234.268265 
L 164.933348 233.876846 
L 164.516676 233.635972 
L 164.152089 233.045497 
L 163.897796 232.311167 
L 163.775246 231.630365 
L 164.008092 231.630365 
L 164.08775 231.769202 
L 164.118387 231.794293 
L 164.167407 231.800984 
L 164.289958 231.887966 
L 164.571824 231.151963 
L 165.025261 230.37916 
L 165.631885 229.940904 
L 166.342678 230.203523 
L 165.870859 229.743522 
L 165.494016 228.990792 
L 165.282617 228.136025 
L 165.291808 227.371586 
L 165.613503 226.911584 
L 166.137406 226.409764 
L 166.501994 225.836017 
L 166.342678 225.150196 
L 166.909474 224.452666 
L 167.016706 224.146556 
L 166.863517 223.748445 
L 167.090236 223.360371 
L 167.019769 223.007424 
L 166.744031 222.734769 
L 166.526504 222.651132 
L 166.630672 222.222912 
L 166.771605 221.853238 
L 166.771605 221.496946 
L 166.624544 221.170763 
L 166.569396 221.506983 
L 166.501994 221.63411 
L 166.342678 221.757893 
L 166.624544 221.757893 
L 166.134342 223.16968 
L 165.696224 223.761827 
L 165.062026 223.748445 
L 164.767905 223.258334 
L 164.872072 222.614332 
L 165.074281 221.965312 
L 165.062026 221.476873 
L 164.80467 221.476873 
L 164.611653 222.182767 
L 164.262384 222.129239 
L 163.922306 221.640801 
L 163.775246 221.041963 
L 163.897796 220.121959 
L 164.23481 219.89614 
L 164.718884 219.787413 
L 165.291808 219.232065 
L 165.062026 218.951046 
L 164.437018 219.419411 
L 164.173535 219.074828 
L 164.409444 218.455917 
L 165.291808 218.08457 
L 165.291808 217.800205 
L 163.548528 217.940715 
L 162.810161 218.19497 
L 162.23111 218.362244 
L 161.875714 218.019333 
L 161.936989 217.040784 
L 162.332214 216.160927 
L 163.009305 215.812998 
L 162.718248 215.391469 
L 162.865309 215.003395 
L 163.269725 214.675539 
L 163.775246 214.434666 
L 163.775246 214.126883 
L 163.380021 214.173719 
L 163.030752 214.354375 
L 162.736631 214.64543 
L 162.494594 215.020123 
L 162.292385 214.508266 
L 162.114687 213.658518 
L 161.949244 212.022584 
L 161.835885 211.631165 
L 161.30279 211.00389 
L 161.183304 210.632543 
L 161.183304 209.076901 
L 160.218219 204.876667 
L 160.15388 203.461535 
L 160.546041 203.627136 
L 160.668592 203.717463 
L 160.475575 203.173825 
L 160.144689 203.250771 
L 159.872014 203.776009 
L 159.872014 204.560521 
L 159.639168 204.560521 
L 159.234751 203.852955 
L 158.8671 202.954697 
L 158.628127 201.952729 
L 158.591361 200.93738 
L 158.775187 200.310105 
L 159.112201 199.908649 
L 159.446151 199.597521 
L 159.639168 199.226174 
L 159.58402 198.55039 
L 159.262325 198.212498 
L 158.860972 198.026824 
L 158.591361 197.79766 
L 158.471875 196.772274 
L 159.136711 196.282163 
L 160.110987 195.991108 
L 160.925948 195.552852 
L 161.336492 194.820194 
L 162.2066 191.90462 
L 161.973754 191.933057 
L 161.44066 191.90462 
L 161.357938 192.525204 
L 160.990287 194.110955 
L 161.054626 194.428775 
L 160.791142 194.644557 
L 160.365279 195.116268 
L 159.79542 195.596343 
L 159.130583 195.833871 
L 159.014161 196.039617 
L 158.085841 196.54311 
L 157.813166 196.954602 
L 157.911206 197.606968 
L 158.309495 197.918097 
L 158.787442 198.098752 
L 159.130583 198.358025 
L 159.115265 199.150901 
L 158.474939 199.652721 
L 157.65385 199.584139 
L 157.071736 198.664136 
L 156.422218 193.963755 
L 156.017802 192.466659 
L 153.471816 187.38824 
L 148.655583 180.575197 
L 147.460716 180.086759 
L 146.79588 179.467848 
L 146.265849 178.718463 
L 145.971728 178.074461 
L 145.677607 178.243407 
L 145.429442 178.044351 
L 145.263999 177.617804 
L 145.19966 177.102603 
L 145.276254 176.59911 
L 145.63165 176.095617 
L 145.864496 174.902958 
L 146.468057 173.166661 
L 146.48644 172.181421 
L 146.207638 172.181421 
L 146.07896 172.947533 
L 145.429442 175.103686 
L 145.055663 175.546961 
L 144.225384 175.807907 
L 143.710672 176.478673 
L 143.517655 177.390313 
L 143.634078 178.380571 
L 143.067282 177.94566 
L 142.515805 177.683041 
L 141.887734 177.54755 
L 141.063582 177.512422 
L 141.063582 177.818532 
L 141.854033 178.054388 
L 141.955137 178.444135 
L 141.578294 178.805445 
L 140.919585 178.9677 
L 138.967969 179.009519 
L 139.648124 179.228647 
L 140.257813 179.514684 
L 140.54887 179.758903 
L 140.441639 180.354396 
L 139.969819 180.703997 
L 139.335621 180.866253 
L 138.728996 180.906398 
L 138.692231 180.862907 
L 137.537193 180.618688 
L 137.37175 180.662179 
L 137.236944 180.655488 
L 137.18486 180.498251 
L 137.203243 179.872649 
L 137.18486 179.758903 
L 136.725296 179.589957 
L 136.155436 179.51803 
L 134.868656 179.501302 
L 134.868656 179.758903 
L 135.346603 180.192141 
L 135.521238 180.638761 
L 135.25469 180.933162 
L 134.381518 180.906398 
L 134.381518 181.210836 
L 136.562917 181.777892 
L 137.561703 182.204439 
L 137.978374 183.022406 
L 137.849696 183.554335 
L 137.549448 184.131428 
L 137.115212 185.711712 
L 136.354573 186.460027 
L 135.653519 187.034443 
L 134.668007 187.313994 
L 132.814913 187.700151 
L 131.378929 186.984676 
L 130.640251 185.869525 
L 130.227058 184.111355 
L 129.853279 183.62459 
L 129.448862 182.896951 
L 129.026063 181.647419 
L 128.710496 181.284436 
L 128.162083 181.466764 
L 128.725815 182.050548 
L 129.234399 183.184661 
L 129.534648 184.382338 
L 129.448862 185.168523 
L 128.682922 185.551579 
L 127.460481 185.75398 
L 126.323826 185.693761 
L 125.827496 185.280596 
L 125.59465 184.713539 
L 124.565227 183.965828 
L 124.332381 183.586117 
L 124.20983 183.213098 
L 123.658353 182.460368 
L 123.37036 181.296145 
L 122.956752 181.117163 
L 121.844606 181.210836 
L 121.669972 180.976653 
L 121.225727 179.501302 
L 120.934669 179.258756 
L 120.588464 179.093155 
L 120.300471 178.889082 
L 120.052306 178.154752 
L 119.519212 177.380276 
L 119.399725 177.102603 
L 119.344577 176.669365 
L 118.885013 175.546961 
L 118.609274 174.14521 
L 118.305962 173.427607 
L 117.965884 172.81706 
L 117.690146 172.132912 
L 117.57985 171.197854 
L 117.38377 170.697706 
L 114.473196 166.693183 
L 114.06878 165.609252 
L 113.982995 165.137541 
L 113.986058 164.694266 
L 114.418049 162.176803 
L 114.473196 160.49236 
L 114.68766 159.585739 
L 115.110459 158.786172 
L 115.416835 158.030097 
L 115.263647 157.253948 
L 115.496493 157.253948 
L 114.877613 155.914089 
L 114.850039 155.367105 
L 115.263647 155.00914 
L 115.134969 154.968995 
L 115.024673 154.965649 
L 114.963398 154.910449 
L 114.981781 154.701357 
L 114.032015 155.039249 
L 113.388625 154.177792 
L 113.027101 152.944987 
L 112.929061 152.17553 
L 112.971953 149.760103 
L 113.290584 148.823372 
L 114.21584 148.246279 
L 116.409494 148.257988 
L 117.291857 147.76955 
L 117.322495 146.257399 
L 117.14786 145.695361 
L 116.936461 145.461178 
L 116.568809 145.421033 
L 115.907037 145.43776 
L 115.802869 145.608379 
L 116.136819 145.986416 
L 116.807783 146.535073 
L 116.550427 147.378131 
L 115.888654 146.991729 
L 115.475046 146.953256 
L 114.748935 147.378131 
L 113.793041 147.699295 
L 113.253819 148.067297 
L 113.088376 147.920096 
L 112.515453 146.297545 
L 112.662513 145.133322 
L 113.269138 144.176519 
L 114.21584 143.729899 
L 113.982995 143.44888 
L 113.915592 143.617826 
L 113.912528 143.659644 
L 113.866572 143.669681 
L 113.701128 143.729899 
L 113.413135 143.340152 
L 112.791191 143.410407 
L 111.409435 143.985827 
L 111.623898 144.561248 
L 111.433945 144.909176 
L 110.974381 145.079795 
L 110.383075 145.133322 
L 109.748876 145.079795 
L 109.261738 144.909176 
L 108.305845 144.291938 
L 108.609157 144.929249 
L 109.136124 145.347432 
L 109.761131 145.588306 
L 110.383075 145.695361 
L 111.783214 145.748888 
L 112.08959 146.078417 
L 112.169248 149.763448 
L 112.055889 150.211741 
L 111.761767 150.459305 
L 111.452328 151.056471 
L 111.219482 151.78411 
L 111.152079 152.431458 
L 109.886745 151.884474 
L 102.512272 150.444251 
L 101.081495 149.913994 
L 99.797779 149.0609 
L 99.761014 149.535957 
L 100.11641 149.980904 
L 105.000046 152.948333 
L 105.588288 153.440116 
L 105.937557 153.951973 
L 106.173467 154.460484 
L 106.504353 154.850231 
L 107.69922 155.11285 
L 108.743962 155.643106 
L 109.332205 155.852198 
L 111.798533 156.129872 
L 112.107973 156.400854 
L 113.210927 158.093661 
L 113.370242 158.769445 
L 113.508112 160.221377 
L 113.35186 159.987195 
L 113.063866 159.582393 
L 112.717661 159.217737 
L 112.901487 160.017304 
L 113.069994 162.447785 
L 112.929061 163.426334 
L 111.905764 164.896667 
L 111.666791 165.137541 
L 111.219482 165.02714 
L 111.127569 164.68423 
L 111.302203 164.276083 
L 111.666791 163.988373 
L 111.666791 163.707354 
L 111.409435 163.707354 
L 110.9897 164.279429 
L 110.576092 164.687575 
L 110.055252 164.961904 
L 109.332205 165.137541 
L 107.919811 165.097395 
L 107.451055 165.283069 
L 107.273357 165.965544 
L 107.319313 166.228163 
L 107.478629 167.124748 
L 108.002532 168.417771 
L 108.707197 169.648903 
L 109.460883 170.637488 
L 109.546668 170.84658 
L 109.482329 171.324981 
L 109.589561 171.619383 
L 109.684537 171.666219 
L 109.831598 171.676255 
L 109.98785 171.723092 
L 110.104273 171.873638 
L 110.551582 172.228258 
L 110.70477 172.509277 
L 110.511753 172.895678 
L 109.951084 173.181716 
L 109.390416 173.121497 
L 108.838939 172.975969 
L 108.305845 173.021133 
L 107.585861 173.939464 
L 107.242719 175.309432 
L 106.789283 176.453582 
L 105.732285 176.697801 
L 106.335846 177.231403 
L 106.182658 177.783405 
L 105.674073 177.995842 
L 105.217573 177.512422 
L 104.399549 178.064424 
L 104.951026 178.480935 
L 106.026406 178.842245 
L 106.758645 179.220283 
L 107.110978 178.46588 
L 107.754367 178.581299 
L 108.406949 179.150028 
L 108.817493 179.758903 
L 108.930852 180.182105 
L 109.074849 181.466764 
L 109.534413 182.791569 
L 109.675346 184.228447 
L 109.574242 184.526193 
L 109.203527 185.014631 
L 108.87264 185.200305 
L 108.014787 185.329105 
L 107.662455 185.551579 
L 107.444928 186.172163 
L 107.019065 188.452098 
L 107.016001 189.072683 
L 107.126296 188.641117 
L 107.359142 188.393553 
L 107.616498 188.209552 
L 107.791133 187.948606 
L 107.824834 187.518713 
L 107.708411 186.707438 
L 107.791133 186.264163 
L 108.161848 185.703798 
L 108.719452 185.369251 
L 109.390416 185.265541 
L 110.104273 185.396015 
L 111.4462 186.249109 
L 112.126355 187.426713 
L 112.573664 188.793336 
L 113.210927 190.218505 
L 112.634939 190.022795 
L 112.441923 189.912395 
L 112.451114 190.842434 
L 112.720725 191.593492 
L 113.468283 193.050442 
L 113.655172 193.881791 
L 113.688873 194.734885 
L 113.468283 196.421 
L 112.267288 199.57243 
L 111.378797 201.005962 
L 110.640431 201.189963 
L 109.638581 201.748656 
L 109.240292 202.101603 
L 109.074849 202.467931 
L 108.986 203.024952 
L 108.756217 203.667281 
L 107.677773 205.585906 
L 107.31625 206.044235 
L 106.887323 206.241618 
L 106.390994 206.124526 
L 105.750667 205.833471 
L 105.19919 205.47216 
L 104.960217 205.14765 
L 105.177744 204.128956 
L 106.090745 202.170185 
L 106.246997 201.189963 
L 105.808879 200.022395 
L 105.732285 199.482102 
L 105.962067 198.192425 
L 105.84258 197.680568 
L 105.217573 197.516641 
L 105.383016 198.369735 
L 105.006173 200.189669 
L 105.088895 200.781816 
L 105.398335 201.052799 
L 105.640372 201.163199 
L 105.827262 201.320436 
L 105.968195 201.728583 
L 105.916111 202.046403 
L 105.741476 202.327422 
L 105.453483 202.621823 
L 105.401399 202.692078 
L 105.324805 202.762332 
L 105.251274 202.902842 
L 105.153234 203.486626 
L 105.006173 203.468226 
L 104.822348 203.374553 
L 104.681415 203.461535 
L 104.571119 203.873027 
L 104.445505 205.14765 
L 104.298445 205.672888 
L 104.142193 206.027508 
L 103.452846 207.091366 
L 102.9749 207.646714 
L 102.879923 207.800605 
L 102.717544 208.523226 
L 101.991432 210.021995 
L 101.832117 210.773053 
L 101.666673 212.338731 
L 101.317405 213.8743 
L 101.023284 214.677212 
L 100.640313 215.227541 
L 98.566147 217.034094 
L 98.045307 217.398749 
L 97.331451 217.547623 
L 96.562447 217.412131 
L 95.146989 216.814965 
L 94.479089 216.679474 
L 93.872464 216.343255 
L 93.707021 215.665798 
L 93.964377 215.143905 
L 94.607767 215.274378 
L 94.325901 214.698958 
L 94.546492 214.294156 
L 94.923334 213.916119 
L 95.125543 213.42768 
L 95.061204 213.076406 
L 94.9601 212.845569 
L 94.941717 212.589641 
L 95.125543 212.163094 
L 94.7487 212.681641 
L 94.0808 214.356047 
L 93.719276 214.715685 
L 93.360816 214.836122 
L 92.892061 215.391469 
L 92.551983 215.558743 
L 92.230288 215.490161 
L 91.740086 215.07365 
L 91.292777 215.020123 
L 91.550133 213.919464 
L 91.651237 211.686365 
L 92.064845 210.757998 
L 92.414114 210.460251 
L 92.849168 210.192614 
L 93.278095 209.85974 
L 93.602853 209.356247 
L 93.783615 208.730645 
L 93.857145 208.215443 
L 93.985823 207.716969 
L 94.350411 207.134857 
L 95.897611 205.706343 
L 96.081436 205.46547 
L 96.354111 204.97034 
L 96.550192 204.711067 
L 96.881078 204.555503 
L 97.218092 204.64583 
L 97.515277 204.809758 
L 97.717485 204.863286 
L 98.510999 204.299574 
L 99.096178 203.377898 
L 99.37498 202.283931 
L 99.261621 201.189963 
L 98.590657 202.964733 
L 98.121901 203.899791 
L 97.588807 204.304593 
L 96.577766 204.440084 
L 95.955822 204.811431 
L 93.719276 207.261985 
L 93.452729 207.680169 
L 93.149417 208.575081 
L 92.67147 209.332829 
L 92.555047 209.623885 
L 92.346711 209.817922 
L 91.807489 209.918286 
L 91.43371 209.854722 
L 90.235779 209.356247 
L 90.453306 208.785845 
L 90.493135 208.15857 
L 90.778065 207.671805 
L 91.133462 207.359004 
L 91.464348 207.188385 
L 91.706385 206.907366 
L 91.807489 206.268382 
L 91.678811 205.042268 
L 91.844254 204.585612 
L 91.982123 203.970046 
L 92.334456 203.565244 
L 92.754191 203.374553 
L 93.106524 203.115279 
L 93.324051 202.621823 
L 92.352839 202.97477 
L 91.881019 203.689027 
L 91.292777 205.706343 
L 90.9527 206.164672 
L 89.941658 207.185039 
L 89.724131 207.531295 
L 89.816044 209.389702 
L 89.724131 209.918286 
L 89.160399 210.411742 
L 88.480244 210.150796 
L 87.904257 209.459957 
L 87.671411 208.655372 
L 87.597881 208.248898 
L 87.266995 207.315513 
L 87.156699 206.83042 
L 87.073978 203.792736 
L 86.724709 202.093239 
L 86.641987 201.062835 
L 86.543947 200.664725 
L 86.062936 199.885231 
L 85.869919 199.482102 
L 85.728986 198.945155 
L 85.679966 198.51359 
L 85.735114 198.071988 
L 85.869919 197.516641 
L 86.614413 195.638161 
L 89.724131 191.061562 
L 89.932467 190.548033 
L 90.070336 190.049559 
L 90.293991 189.597921 
L 90.753555 189.213192 
L 89.724131 189.912395 
L 89.601581 190.041195 
L 88.394459 191.290727 
L 87.873619 191.954802 
L 87.671411 192.605495 
L 87.37729 193.257861 
L 86.724709 193.068843 
L 85.588053 192.157203 
L 85.661584 193.018661 
L 85.876047 193.719536 
L 86.010852 194.422084 
L 85.869919 195.296923 
L 84.301273 198.358025 
L 84.757774 199.231192 
L 85.152999 200.691489 
L 85.588053 203.461535 
L 85.640137 204.891722 
L 85.529842 205.589252 
L 85.214274 206.116163 
L 84.58314 206.462419 
L 84.031662 206.407218 
L 83.452612 206.241618 
L 82.738755 206.241618 
L 82.738755 206.549401 
L 83.535333 206.897329 
L 84.197106 207.33224 
L 84.647479 207.972897 
L 84.815985 208.936391 
L 84.766965 209.329484 
L 84.573948 210.068832 
L 84.58314 210.503742 
L 84.736328 210.88178 
L 85.244912 211.696401 
L 85.548224 212.479241 
L 85.915876 212.942588 
L 86.127275 213.472844 
L 85.869919 214.126883 
L 85.600308 214.233938 
L 84.760838 214.401211 
L 83.792689 215.274378 
L 83.58129 215.550379 
L 83.507759 215.741071 
L 83.379081 215.910017 
L 83.020621 216.117436 
L 82.331275 216.398455 
L 81.929922 216.453655 
L 81.758351 216.257945 
L 81.559207 215.665798 
L 81.090451 215.782889 
L 80.526719 216.172636 
L 80.051836 216.398455 
L 79.423765 216.351618 
L 78.7191 216.201072 
L 78.07571 215.940126 
L 77.622273 215.558743 
L 77.45683 215.239251 
L 77.315897 214.802667 
L 77.294451 214.346011 
L 77.698867 213.628408 
L 77.622273 213.236989 
L 77.083051 212.444113 
L 76.029117 214.715685 
L 76.458044 215.471761 
L 77.187219 216.503837 
L 78.02669 217.412131 
L 78.780375 217.800205 
L 79.105134 218.210025 
L 78.700717 219.017955 
L 77.882693 219.606757 
L 76.954373 219.359193 
L 76.500937 219.064792 
L 76.081201 219.053083 
L 75.14369 219.232065 
L 75.042586 219.462902 
L 75.456194 220.560215 
L 75.538916 220.914835 
L 74.821995 221.664219 
L 74.022354 221.149018 
L 72.946973 219.486321 
L 73.014376 218.760354 
L 72.579322 217.060857 
L 72.689617 216.117436 
L 72.99293 215.588852 
L 73.691468 214.759176 
L 73.976397 214.126883 
L 74.095884 213.447753 
L 73.939632 210.470288 
L 74.233753 208.081625 
L 74.435962 207.24024 
L 75.336707 205.614343 
L 75.538916 204.711067 
L 75.410238 203.836227 
L 75.079351 202.976442 
L 74.61366 202.21033 
L 74.105075 201.599783 
L 74.080565 201.027708 
L 75.235603 199.48712 
L 75.538916 198.804645 
L 75.581808 197.92646 
L 75.71355 197.078384 
L 75.952523 196.275472 
L 76.310984 195.552852 
L 75.897376 195.870671 
L 75.548107 196.390891 
L 75.030331 197.516641 
L 74.592213 197.968279 
L 74.454344 198.327916 
L 74.794422 199.276356 
L 74.573831 199.632648 
L 73.847719 200.194687 
L 73.40041 200.927344 
L 73.443303 201.467637 
L 74.233753 202.874406 
L 74.423706 203.384589 
L 74.515619 203.779354 
L 74.537066 204.711067 
L 74.448217 205.20285 
L 74.062183 205.990708 
L 73.976397 206.397182 
L 73.676149 209.018355 
L 73.486195 209.610503 
L 72.787658 209.995231 
L 72.481282 209.359593 
L 72.432262 207.531295 
L 72.533366 207.09973 
L 72.922463 206.248309 
L 72.946973 205.706343 
L 71.24965 201.621528 
L 71.151609 200.781816 
L 71.329307 198.941809 
L 71.286415 198.12217 
L 70.9157 197.235621 
L 70.636897 197.235621 
L 70.324394 199.95214 
L 70.636897 205.14765 
L 70.9157 205.14765 
L 70.949401 204.568884 
L 71.127099 204.038628 
L 71.329307 203.739209 
L 71.430412 203.857973 
L 71.482495 204.214265 
L 71.614237 204.716085 
L 71.807254 205.212887 
L 72.037036 205.565834 
L 72.239245 206.035872 
L 72.205543 206.633037 
L 71.89304 207.671805 
L 71.70615 207.857478 
L 71.243522 207.94446 
L 71.151609 208.081625 
L 71.188374 208.379371 
L 71.27416 208.576754 
L 71.430412 208.795882 
L 71.568281 209.259229 
L 72.027845 210.266214 
L 72.303584 210.632543 
L 72.370986 210.915235 
L 72.021718 213.101497 
L 71.635684 213.578226 
L 71.139354 213.954591 
L 70.636897 214.434666 
L 70.217162 215.153941 
L 70.180397 215.736052 
L 70.309075 216.411837 
L 70.400988 217.407113 
L 70.263118 218.355553 
L 69.901595 219.133374 
L 69.39301 219.780722 
L 68.026573 220.98509 
L 67.603773 221.025235 
L 66.641752 219.917886 
L 66.439544 219.305665 
L 66.384396 218.251843 
L 66.500819 216.398455 
L 66.703028 215.64907 
L 67.193229 214.387829 
L 67.294334 213.42768 
L 67.131954 212.599677 
L 66.430353 211.212981 
L 66.26491 210.503742 
L 65.986107 210.503742 
L 65.750198 211.13269 
L 65.857429 211.661274 
L 66.099467 212.176476 
L 66.26491 212.750223 
L 66.26491 213.407608 
L 66.12704 213.783973 
L 65.492842 214.434666 
L 65.106808 214.929795 
L 64.870898 215.341287 
L 64.252018 216.863475 
L 64.068193 217.201367 
L 63.87824 217.214749 
L 63.669904 216.679474 
L 63.415612 216.679474 
L 63.433994 217.718241 
L 63.820028 219.322393 
L 63.669904 220.327706 
L 63.029578 221.747856 
L 63.139873 222.209531 
L 63.92726 222.597605 
L 63.489142 223.112807 
L 62.842688 223.589536 
L 62.089003 223.92241 
L 61.356764 224.002701 
L 60.649035 223.584517 
L 60.422317 222.821751 
L 60.566313 222.084076 
L 60.955411 221.757893 
L 61.035069 221.311273 
L 59.867776 217.947406 
L 59.812628 217.599477 
L 59.791182 217.114385 
L 59.628802 216.945439 
L 59.279534 217.174603 
L 58.921073 217.579405 
L 58.764822 217.94406 
L 58.544231 218.128061 
L 58.044838 217.989224 
L 57.220686 217.547623 
L 56.831588 217.196349 
L 56.666145 216.935402 
L 55.734762 213.583245 
L 55.655104 212.890733 
L 55.753144 212.042657 
L 56.154497 210.319742 
L 56.169816 209.356247 
L 55.897141 208.49479 
L 55.060734 207.330567 
L 54.8861 206.68991 
L 55.115882 204.801394 
L 54.999459 204.026919 
L 55.010672 204.001594 
L 55.668248 203.164592 
L 55.594319 202.170386 
L 55.388097 201.356752 
L 55.070983 200.668455 
L 53.427045 198.484601 
L 53.069075 197.624231 
L 53.611866 197.246093 
L 52.987364 196.152042 
L 52.783088 195.648566 
L 52.33368 193.460463 
L 52.329789 193.058957 
L 52.430955 192.636207 
L 52.753906 192.094492 
L 52.820052 191.771588 
L 52.664413 190.815621 
L 51.971819 189.184104 
L 51.633304 187.663054 
L 51.183897 187.297662 
L 50.014658 186.832424 
L 50.855109 186.263093 
L 51.084677 185.317748 
L 50.91931 184.21095 
L 50.555504 183.159386 
L 50.090532 182.290518 
L 49.936838 181.377039 
L 49.808436 180.84807 
L 49.359028 179.660547 
L 49.26759 178.912768 
L 49.524395 178.352996 
L 49.948511 177.833587 
L 50.349282 177.204773 
L 50.512703 176.656686 
L 50.66056 175.857922 
L 50.722816 175.059158 
L 50.637214 174.504697 
L 50.207261 174.089383 
L 49.154752 173.747359 
L 48.715072 173.204582 
L 47.91353 171.267155 
L 47.520542 170.624533 
L 46.806547 169.713178 
L 46.656745 169.251127 
L 46.680091 168.447052 
L 47.030278 167.276524 
L 47.127553 165.168085 
L 47.635325 164.134578 
L 49.680034 161.931605 
L 50.687797 161.089292 
L 51.020475 160.700532 
L 51.213079 160.262912 
L 51.218915 159.924074 
L 51.002966 159.729694 
L 49.975748 159.766871 
L 49.641124 159.681896 
L 49.324009 159.52363 
L 46.687873 158.603778 
L 46.049752 158.474191 
L 45.555598 158.552793 
L 45.232647 158.770541 
L 44.977788 159.00847 
L 44.676237 159.149741 
L 44.281303 159.145492 
L 41.808587 158.340356 
L 41.30276 157.882553 
L 40.927281 157.091225 
L 40.90199 156.198989 
L 41.244396 155.405536 
L 42.15683 153.938658 
L 43.987534 149.047293 
L 44.073136 148.16143 
L 43.5712 147.751426 
L 43.077046 148.141249 
L 42.633474 148.82742 
L 42.162666 149.013303 
L 41.606256 147.900132 
L 41.197704 147.710001 
L 40.094612 146.949476 
L 39.460383 146.260118 
L 38.579076 144.665777 
L 38.014885 144.051834 
L 37.715279 143.988102 
L 36.972103 144.070953 
L 36.590787 143.906314 
L 36.225035 143.507995 
L 36.201689 143.237137 
L 36.326201 142.924855 
L 36.400129 142.409695 
L 36.207526 142.255678 
L 35.820374 142.176014 
L 35.466295 141.997566 
L 35.411821 141.53764 
L 36.20558 137.794498 
L 36.151107 137.413173 
L 35.878738 136.790732 
L 35.88652 136.397724 
L 36.073287 135.957979 
L 36.625806 135.085924 
L 36.820355 134.607941 
L 36.824246 134.234051 
L 36.742535 133.866535 
L 36.70168 133.493708 
L 36.824246 133.101761 
L 37.425402 132.618467 
L 38.162742 132.580228 
L 38.944828 132.650332 
L 39.666604 132.500564 
L 40.170486 132.101182 
L 41.598475 130.694849 
L 41.964226 130.2243 
L 42.077065 129.485019 
L 41.972008 128.61084 
L 41.746332 127.823761 
L 41.491473 127.341528 
L 41.952553 126.543827 
L 42.390288 125.959625 
L 42.372779 125.569803 
L 41.466181 125.353117 
L 41.349452 124.83477 
L 40.641294 124.219765 
L 40.456473 123.750279 
L 40.50511 123.37214 
L 40.746351 122.516019 
L 40.791097 122.038035 
L 40.614057 121.201033 
L 40.606275 120.804838 
L 40.820279 120.301362 
L 41.197704 119.940218 
L 42.030373 119.627936 
L 42.615728 119.346193 
L 42.621801 119.34327 
L 42.742422 118.990624 
L 43.178211 118.34694 
L 43.306613 117.969864 
L 43.219066 117.816909 
L 43.123738 117.142421 
L 43.051754 116.971409 
L 42.843587 115.345203 
L 41.97979 114.181048 
L 40.746351 113.421585 
L 39.931191 113.242076 
L 39.53042 114.183172 
L 38.966229 115.056289 
L 38.135505 115.107274 
L 36.277563 114.477397 
L 33.839866 114.363744 
L 32.976069 114.178923 
L 30.186239 111.96108 
L 20.303157 106.788235 
L 19.217574 106.55243 
L 19.1417 106.26564 
L 18.797349 105.668692 
L 18.466616 105.236382 
L 18.316813 105.083427 
L 18.277903 104.877363 
L 18.277903 102.733872 
L 18.159229 102.487445 
L 17.610601 101.920238 
L 17.233176 101.080049 
L 16.618402 100.819814 
L 15.898571 100.607377 
L 16.100902 99.368868 
L 16.41218 98.625338 
L 16.902443 97.910487 
L 17.081428 96.111145 
L 17.497763 95.939071 
L 17.976353 95.85622 
L 18.240939 95.474895 
L 18.291522 94.917248 
L 18.400469 94.419083 
L 18.647546 94.132293 
L 19.135864 94.215143 
L 19.497725 93.468427 
L 20.019116 92.954329 
L 20.384868 92.427485 
L 20.27592 91.649965 
L 19.781766 90.225574 
L 19.608618 89.870804 
L 19.404341 89.65518 
L 19.404341 89.474609 
L 21.27201 88.459159 
L 21.968495 88.218043 
L 22.699999 88.287085 
L 23.314773 88.704524 
L 23.843946 89.398131 
L 24.184407 90.200081 
L 24.21748 90.946798 
L 24.672724 90.973353 
L 26.252461 91.39504 
L 26.884745 91.452398 
L 27.229096 91.190038 
L 27.911963 89.979147 
L 29.221276 88.274339 
L 29.680412 87.32262 
L 29.799087 86.240253 
L 30.66872 85.153637 
L 31.1084 83.939559 
L 31.423569 81.242669 
L 31.322404 78.92498 
L 31.692047 78.238808 
L 32.976069 78.017874 
L 33.594735 78.18145 
L 34.773701 78.646688 
L 35.785355 78.920731 
L 35.960449 79.003582 
L 36.137488 79.018453 
L 36.56355 78.916483 
L 36.828137 78.742284 
L 37.295054 78.221813 
L 37.633569 78.0986 
L 38.956501 78.134714 
L 40.098503 78.355649 
L 42.35527 79.194775 
L 44.602309 79.422083 
L 44.907751 79.190527 
L 45.291012 78.304664 
L 45.540034 78.011501 
L 45.83964 77.947769 
L 46.084771 78.028496 
L 46.333794 78.172953 
L 48.90962 79.077935 
L 49.870692 79.137417 
L 49.324009 78.262176 
L 50.010767 78.115595 
L 50.119714 77.707715 
L 50.014658 77.161752 
L 50.055513 76.607291 
L 50.382355 76.165422 
L 51.796725 75.135102 
L 52.061312 74.737844 
L 52.158586 74.323592 
L 52.07493 73.932708 
L 51.796725 73.597057 
L 49.958239 73.68628 
L 49.06915 73.565191 
L 48.438812 72.921507 
L 48.215081 72.740935 
L 47.427158 72.68995 
L 47.041951 72.58798 
L 46.777365 72.356424 
L 45.886331 71.253875 
L 45.724856 70.812006 
L 45.695673 70.414749 
L 45.586726 70.0706 
L 45.182064 69.775313 
L 45.170391 69.524637 
L 45.810457 68.065194 
L 45.757929 67.185704 
L 45.415523 66.648238 
L 44.936933 66.225488 
L 44.479743 65.681649 
L 44.154846 65.403356 
L 43.010899 64.959363 
L 43.034245 65.681649 
L 42.660711 65.853723 
L 42.302741 65.836728 
L 41.964226 65.77937 
L 41.664621 65.826106 
L 41.267741 66.157508 
L 40.94479 66.55689 
L 40.606275 66.886168 
L 40.164649 67.009381 
L 39.376727 66.826685 
L 38.162742 66.042792 
L 37.425402 65.685898 
L 35.820374 65.62854 
L 35.042178 65.475585 
L 34.672535 65.101696 
L 34.382658 64.508996 
L 33.359331 63.731476 
L 32.976069 62.911469 
L 31.559754 62.201929 
L 31.032526 61.69208 
L 30.869105 59.161953 
L 29.873015 58.053031 
L 27.135713 56.223948 
L 24.863382 53.602473 
L 23.641615 52.975784 
L 21.956822 53.462265 
L 21.336211 53.823408 
L 20.591089 54.148437 
L 19.886823 54.182427 
L 19.404341 53.674702 
L 19.145591 52.892933 
L 18.968552 52.542412 
L 18.375178 51.877484 
L 18.375178 51.507843 
L 18.427706 51.150949 
L 18.167011 50.526384 
L 17.879078 48.705797 
L 17.991917 48.514604 
L 18.190357 48.385017 
L 18.392687 48.085481 
L 19.089172 45.752921 
L 19.816785 44.378453 
L 20.764238 43.641296 
L 21.022988 42.855279 
L 20.966569 42.404912 
L 20.762292 42.17548 
L 20.528834 42.031023 
L 20.39265 41.827083 
L 20.345958 41.421328 
L 20.400431 41.208891 
L 20.517161 40.987956 
L 20.937386 39.647478 
L 21.244774 39.154624 
L 22.491832 38.366482 
L 22.820619 38.088189 
L 23.057969 37.786528 
L 23.318664 37.523106 
L 23.729162 37.363779 
L 24.501521 37.200202 
L 26.699923 36.456672 
L 27.361389 36.053041 
L 27.672668 35.441223 
L 27.612357 33.943541 
L 27.750487 33.344468 
L 28.31857 32.556326 
L 28.886652 32.044353 
L 30.657047 30.943928 
L 30.935252 30.593407 
L 31.116182 30.215269 
L 31.330186 30.038946 
L 31.719284 30.289622 
L 31.968306 30.400089 
L 32.32044 30.417084 
L 32.693974 30.374597 
L 32.976069 30.302368 
L 33.812629 30.42983 
L 33.730919 29.386764 
L 32.976069 27.16892 
L 32.439115 26.270311 
L 31.439133 25.807198 
L 29.267968 25.388697 
L 28.388607 25.008435 
L 28.124021 25.031803 
L 27.991728 25.31222 
L 27.886671 26.259689 
L 27.713523 26.503992 
L 27.221314 26.35741 
L 26.941164 25.811447 
L 26.894472 25.133773 
L 27.100694 24.58356 
L 27.590957 23.772051 
L 28.361371 21.139954 
L 28.641521 20.547255 
L 29.102602 19.78673 
L 29.583137 19.296 
L 29.925543 19.523308 
L 29.983908 20.281708 
L 29.948889 21.152701 
L 30.057837 21.962086 
L 30.551991 22.520796 
L 31.886596 22.913804 
L 32.485806 23.189973 
L 32.976069 23.759304 
L 33.446878 24.137442 
L 33.851539 24.585685 
L 34.158926 24.883097 
L 34.91183 25.386573 
L 35.775627 25.745592 
L 36.08496 25.78383 
L 36.88261 25.771084 
L 37.333964 25.968651 
L 37.586877 26.370157 
L 37.800881 26.83327 
L 38.100486 27.217781 
L 38.509039 27.476954 
L 38.909809 27.65965 
L 39.785279 27.86359 
L 39.621858 28.194992 
L 39.544039 28.551886 
L 39.633531 28.834427 
L 39.96621 28.94277 
L 40.24636 29.072357 
L 40.205505 29.794643 
L 40.429236 30.100553 
L 41.291087 30.529676 
L 41.796914 30.926933 
L 41.892243 31.434658 
L 41.544001 32.199432 
L 41.059574 32.603062 
L 39.672441 33.291359 
L 39.392291 33.582398 
L 40.053757 34.058257 
L 43.236576 32.904723 
L 44.594527 33.420945 
L 44.896078 34.051884 
L 45.139264 34.748677 
L 45.497234 35.33288 
L 46.131463 35.615421 
L 46.726782 35.390238 
L 47.290974 34.03064 
L 48.049714 33.527164 
L 49.063314 33.70986 
L 50.724761 35.354123 
L 51.796725 35.706769 
L 53.458173 35.290392 
L 54.220804 34.767797 
L 54.018473 34.003023 
L 53.611866 33.877685 
L 53.162458 33.862815 
L 52.89009 33.595144 
L 53.026274 32.71353 
L 52.674141 32.945086 
L 52.337571 33.032185 
L 52.037966 32.93234 
L 51.796725 32.598814 
L 51.446537 31.426161 
L 50.512703 30.948177 
L 49.429066 30.58491 
L 48.654761 29.769151 
L 48.631416 29.070233 
L 48.940748 28.30121 
L 49.411556 27.612914 
L 49.886256 27.164672 
L 50.504921 26.865135 
L 50.849272 26.967105 
L 51.193624 27.311253 
L 51.796725 27.750998 
L 52.218896 27.963435 
L 52.792816 28.602871 
L 53.135221 28.889661 
L 53.54572 29.051113 
L 54.372552 29.263551 
L 54.707176 29.529097 
L 54.88227 30.021951 
L 54.76165 30.378846 
L 54.804451 30.663511 
L 55.430898 30.926933 
L 56.329714 31.177609 
L 56.600137 31.472897 
L 56.623482 32.033731 
L 56.294695 32.205805 
L 55.749958 31.955129 
L 55.31806 32.010363 
L 55.33946 33.115036 
L 55.582646 33.786337 
L 56.33555 35.020597 
L 56.617646 35.672779 
L 56.93087 38.166791 
L 57.212965 38.901823 
L 57.679883 39.430792 
L 60.173999 40.501475 
L 60.730409 40.860494 
L 61.123397 41.370343 
L 61.356856 42.166982 
L 61.672025 42.540872 
L 63.002739 43.142069 
L 63.903501 44.183011 
L 64.590258 44.650372 
L 65.348998 44.988147 
L 65.957936 45.058252 
L 66.570765 44.705606 
L 67.022119 44.299851 
L 67.461799 44.293478 
L 68.033773 45.132605 
L 68.208867 45.209082 
L 68.391743 45.23245 
L 68.5824 45.209082 
L 68.776949 45.136853 
L 68.778895 45.132605 
L 70.819712 44.960531 
L 71.008425 44.981774 
L 71.197137 45.039132 
L 71.374176 45.132605 
L 71.905295 46.054582 
L 72.234082 46.487954 
L 72.619289 46.691893 
L 73.11928 46.585675 
L 73.397485 46.209661 
L 73.500595 45.68919 
L 73.457795 45.132605 
L 73.776855 44.015185 
L 75.422738 42.657712 
L 75.741798 41.960918 
L 75.459702 41.448945 
L 74.967494 41.434074 
L 74.446103 41.531795 
L 74.072569 41.349099 
L 74.068678 40.860494 
L 74.481122 40.520594 
L 75.03364 40.244426 
L 75.473321 39.966134 
L 74.778781 39.87691 
L 74.162062 39.581622 
L 73.913039 39.067524 
L 74.31381 38.32187 
L 74.558941 38.100935 
L 74.815746 37.973473 
L 75.088114 37.952229 
L 75.856582 38.179537 
L 75.889655 37.977722 
L 75.632851 37.501863 
L 75.555031 36.254857 
L 75.815727 35.910709 
L 76.628941 35.645162 
L 77.309862 35.774749 
L 77.512193 36.384443 
L 77.491351 37.234756 
L 77.469392 38.130677 
L 77.414918 38.298502 
L 77.504411 38.383477 
L 77.963546 38.59379 
L 78.239805 38.634153 
L 78.990764 38.566173 
L 79.325388 38.591665 
L 79.774796 38.946435 
L 79.994636 39.558254 
L 80.161948 40.235929 
L 80.461553 40.794638 
L 80.955707 41.48081 
L 81.004345 41.988535 
L 80.912907 42.502633 
L 80.969326 43.22067 
L 81.181384 43.596684 
L 81.955689 44.59089 
L 82.23973 45.13048 
L 82.445952 45.423644 
L 82.675519 45.506494 
L 82.920651 45.396027 
L 83.177455 45.13048 
L 83.189128 45.13048 
L 83.194965 45.126232 
L 83.259166 45.092242 
L 83.321422 45.079495 
L 83.375895 45.087993 
L 83.418696 45.13048 
L 83.922578 45.776289 
L 83.807794 46.339248 
L 83.278621 46.770495 
L 82.543226 47.021171 
L 83.247493 47.446045 
L 83.838921 47.499154 
L 84.138527 47.73496 
L 83.975106 48.71217 
L 82.352568 51.541833 
L 82.208602 52.557283 
L 82.901196 56.247316 
L 83.755265 58.327075 
L 84.138527 59.943722 
L 83.788339 62.832867 
L 83.718301 65.930201 
L 83.16631 67.970686 
L 82.870068 69.065773 
L 82.814912 69.475866 
L 82.656064 70.656927 
L 82.788358 72.059012 
L 83.121036 73.520579 
L 83.560717 74.323592 
L 84.146309 74.427686 
L 85.48675 73.888096 
L 86.914739 73.832862 
L 95.270612 77.340199 
L 101.17517 78.636066 
L 104.101185 79.87245 
L 105.424117 79.912813 
L 109.248947 79.099179 
L 112.334492 79.377471 
L 113.844191 78.990836 
L 114.377255 79.005706 
L 114.805262 79.139542 
L 115.618477 79.511307 
L 117.015337 79.749236 
L 117.342179 79.725868 
L 117.556183 79.60053 
L 117.956954 79.17778 
L 118.155394 79.073686 
L 118.758495 79.150164 
L 119.244867 79.439078 
L 119.715675 79.791724 
L 120.264303 80.061519 
L 121.318758 80.188981 
L 125.566938 79.610613 
L 125.890656 79.56654 
L 127.085186 79.139542 
L 133.1162 78.177202 
L 135.205655 78.24943 
L 135.668681 78.172953 
L 136.489678 77.750203 
L 136.894339 77.737457 
L 138.711425 78.680678 
L 144.279414 80.367428 
L 145.754094 80.533129 
L 146.119846 80.477896 
L 146.878586 80.235717 
L 147.283248 80.180484 
L 147.726819 80.070016 
L 148.357158 79.558043 
L 148.680109 79.41571 
L 149.333793 79.462446 
L 149.610052 79.778978 
L 149.862966 80.246339 
L 150.466067 80.739193 
L 151.104187 80.894273 
L 152.065259 80.938884 
L 152.94462 80.809298 
L 153.329826 80.426911 
L 153.524375 79.764107 
L 153.956274 79.749236 
L 154.442646 79.98929 
L 154.77727 80.09126 
L 155.041856 79.878823 
L 155.267533 79.38172 
L 155.508773 79.154412 
L 156.080747 79.075811 
L 157.901724 79.241512 
L 161.924995 78.738036 
L 164.022231 79.058816 
L 164.730389 78.829384 
L 165.734261 78.517101 
L 166.948246 78.57021 
L 168.154449 78.863373 
L 169.166103 79.267004 
L 169.450144 79.498561 
L 169.823678 80.082763 
L 170.041573 80.305822 
L 170.341178 80.407791 
L 170.885915 80.43116 
L 171.14661 80.624477 
L 171.352832 80.705203 
L 171.870332 80.548 
L 172.169937 80.613855 
L 172.415069 80.830541 
L 172.97537 81.550703 
L 173.500651 82.005319 
L 173.955896 82.322912 
L 174.465614 82.545971 
L 175.138753 82.716983 
L 177.095914 82.984654 
L 177.418865 83.218335 
L 178.021967 84.064897 
L 179.080312 84.517388 
L 180.014147 85.075035 
L 180.160168 85.842202 
L 180.233163 86.2257 
L 180.235061 86.235674 
L 180.235933 86.240253 
L 180.527756 86.31673 
L 181.173751 86.55117 
L 181.184273 86.554988 
L 181.189222 86.556784 
L 181.196351 86.681338 
L 181.197004 86.692744 
L 182.400542 87.583009 
L 182.403207 87.58498 
L 182.751511 87.755508 
L 182.761177 87.760241 
L 182.904336 87.947627 
L 182.912925 87.95887 
L 182.610699 88.232163 
L 182.601647 88.240349 
L 183.523419 88.639999 
L 183.527699 88.641855 
L 183.881778 88.98919 
L 184.163231 89.638586 
L 184.16582 89.644558 
L 184.28644 90.360471 
L 184.173601 90.818273 
L 183.652211 91.63297 
L 182.309823 91.982429 
L 180.002474 92.751451 
L 179.632831 92.701529 
L 179.356572 92.574066 
L 179.353396 92.569838 
L 179.197042 92.361629 
L 179.195773 92.351616 
L 179.158132 92.054658 
L 179.151555 92.050676 
L 176.60176 90.507053 
L 176.595231 90.504876 
L 175.162099 90.026945 
L 174.064843 90.503866 
L 173.862512 91.194287 
L 174.016925 91.915099 
L 174.018151 91.920822 
L 174.512698 93.232899 
L 174.516196 93.242181 
L 174.586234 93.907109 
L 174.57067 94.546545 
L 174.469505 95.183857 
L 172.555144 100.539397 
L 172.197174 102.136924 
L 172.025971 103.537947 
L 171.827531 104.159326 
L 171.434543 104.761585 
L 171.314618 104.85887 
L 170.885915 105.206641 
L 170.306159 105.549727 
L 169.843133 106.005404 
L 169.656366 106.788235 
L 169.854806 109.293931 
L 169.718622 110.458087 
L 168.991009 111.458666 
L 168.029938 111.895224 
L 166.9249 111.984448 
L 163.784882 111.715715 
L 163.742081 112.203258 
L 164.590314 113.594721 
L 164.621442 114.154493 
L 163.901611 113.869827 
L 163.068942 113.295185 
L 162.726536 112.985027 
L 161.897758 113.250573 
L 161.769356 113.98773 
L 162.162344 115.622434 
L 162.127325 116.432881 
L 161.314111 119.930659 
L 161.041743 120.650821 
L 160.567044 120.95673 
L 159.804412 120.76235 
L 158.656574 119.619438 
L 158.567081 119.252984 
L 158.504826 118.327821 
L 158.40366 118.056963 
L 158.010672 118.037844 
L 155.61383 117.516311 
L 155.240296 118.063336 
L 155.345352 118.840856 
L 155.578811 119.678921 
L 155.602157 120.39271 
L 155.170258 121.022586 
L 154.512683 121.271137 
L 153.777289 121.167043 
L 153.100259 120.73792 
L 152.761744 120.102733 
L 152.096387 118.444661 
L 151.703398 118.295955 
L 151.532195 118.783498 
L 151.127533 121.387978 
L 150.83571 122.261094 
L 150.47774 122.831488 
L 149.925221 123.19688 
L 149.053643 123.461364 
L 147.505034 123.645122 
L 146.108173 123.529344 
L 143.252196 122.907965 
L 141.688023 123.042863 
L 141.228888 124.095489 
L 141.170523 125.665399 
L 140.785316 127.343653 
L 140.333963 127.646376 
L 139.92541 127.58052 
L 139.632466 127.455796 
L 139.501294 127.399949 
L 138.999358 127.360648 
L 138.341783 127.631505 
L 137.843738 128.081872 
L 137.446858 128.625711 
L 136.162836 130.913659 
L 135.999414 131.486177 
L 136.030542 132.050198 
L 136.454659 133.006165 
L 136.610298 133.520262 
L 136.501351 134.294596 
L 135.746501 136.537932 
L 135.361294 137.21242 
L 134.6687 137.56719 
L 133.952761 137.630921 
L 133.357441 137.840172 
L 133.003362 138.6315 
L 133.162892 139.52586 
L 133.758212 139.849827 
L 134.380768 140.081383 
L 134.618118 140.700638 
L 134.287385 141.36769 
L 133.754321 141.326265 
L 133.279622 141.388934 
L 133.151219 142.377829 
L 133.322422 143.093742 
L 134.415787 145.154382 
L 134.703719 145.88198 
L 135.018888 147.226707 
L 135.365185 147.900132 
L 135.676463 148.198607 
L 136.334039 148.610735 
L 136.57917 148.985686 
L 136.668663 149.297969 
L 136.847647 150.321916 
L 137.353474 152.069211 
L 137.738681 152.896654 
L 138.221162 153.268419 
L 138.711425 153.398005 
L 138.835937 153.640184 
L 138.672516 153.965213 
L 138.295091 154.341226 
L 138.026614 154.71724 
L 138.09276 155.03802 
L 138.295091 155.369422 
L 138.458512 155.790048 
L 139.333982 162.406402 
L 139.824245 164.102713 
L 140.723061 165.334848 
L 141.983737 165.67581 
L 142.123812 164.321523 
L 141.419546 160.871544 
L 141.411764 159.04246 
L 141.610203 158.081182 
L 142.030429 157.490607 
L 142.866989 157.458741 
L 143.590711 158.035508 
L 144.139339 158.821526 
L 144.454508 159.423785 
L 144.442835 159.388733 
L 144.571237 159.104067 
L 144.58291 159.067953 
L 144.828041 159.396168 
L 144.839714 159.673399 
L 144.789132 159.910266 
L 144.828041 160.121641 
L 145.384451 160.67504 
L 145.473944 160.687786 
L 145.730748 161.954973 
L 145.905842 162.374537 
L 146.77353 165.380522 
L 146.968079 166.431024 
L 147.073135 166.563797 
L 147.431105 166.661518 
L 147.52838 166.814473 
L 147.575071 168.025365 
L 147.734601 168.453425 
L 148.220973 169.002575 
L 148.719018 169.192707 
L 149.220955 169.285117 
L 149.734564 169.538979 
L 149.971913 169.99147 
L 149.968022 170.398287 
L 150.084751 170.539558 
L 150.699526 170.190099 
L 150.921312 169.887376 
L 151.061387 169.496492 
L 151.236481 169.158717 
L 151.578887 169.015322 
L 151.843473 169.066307 
L 152.11195 169.160841 
L 152.376537 169.219261 
L 152.645014 169.158717 
L 153.154732 168.97071 
L 154.174168 168.744464 
L 154.637195 168.447052 
L 154.917345 168.128397 
L 155.551574 167.544194 
L 155.816161 167.242534 
L 156.446499 166.27382 
L 156.493191 166.112368 
L 156.465954 165.920113 
L 156.481518 165.726795 
L 156.668285 165.56428 
L 156.792796 165.557907 
L 157.150766 165.588711 
L 157.244149 165.57384 
L 157.812232 164.952461 
L 157.971762 164.57751 
L 157.835578 164.098464 
L 157.349206 162.839774 
L 156.781123 160.009049 
L 156.224713 158.702561 
L 156.018491 157.061484 
L 156.73054 155.03802 
L 157.823905 153.114402 
L 158.804431 151.774986 
L 159.411423 151.241769 
L 161.493096 150.335724 
L 162.096198 149.895979 
L 162.586461 149.348954 
L 163.438585 147.900132 
L 163.496949 146.286672 
L 162.50475 141.529143 
L 162.446386 139.960294 
L 162.524205 139.074431 
L 162.757664 138.535903 
L 163.282946 138.512535 
L 163.753754 139.07868 
L 164.224562 139.844516 
L 165.800408 141.641734 
L 166.384054 141.944457 
L 167.263415 141.718212 
L 167.913208 141.145694 
L 169.138866 139.424953 
L 169.74975 138.730283 
L 171.34505 138.179009 
L 172.092118 139.330418 
L 172.473433 140.903515 
L 172.983151 141.611993 
L 173.551234 141.058594 
L 174.029824 139.160469 
L 174.656272 138.787641 
L 175.430576 139.213578 
L 175.446685 139.371698 
L 175.520068 140.092005 
L 175.080388 141.839301 
L 175.185444 143.208458 
L 176.625106 147.895884 
L 176.843001 149.898104 
L 177.018095 150.505674 
L 177.216534 150.831765 
L 177.706798 151.312935 
L 177.91691 151.668767 
L 177.975275 151.976801 
L 177.91691 152.546133 
L 177.967493 152.829736 
L 178.15426 153.101656 
L 178.652305 153.493602 
L 178.79238 153.699666 
L 178.827399 154.07568 
L 178.722343 154.884003 
L 178.734016 155.289758 
L 178.928564 155.971681 
L 179.103658 156.371063 
L 179.127004 156.789564 
L 178.8702 157.527783 
L 178.19317 158.955361 
L 178.037531 159.574615 
L 178.002512 161.209319 
L 178.959692 167.02691 
L 178.928564 169.887376 
L 179.216497 171.273528 
L 179.924655 172.349523 
L 181.173658 172.86362 
L 181.718395 173.557228 
L 182.045237 176.754407 
L 182.309823 178.002475 
L 182.749504 178.61748 
L 183.765049 179.513965 
L 184.173601 180.134281 
L 184.337023 180.769469 
L 184.601609 183.934782 
L 184.523789 186.322575 
L 184.663865 187.010872 
L 185.146346 188.293992 
L 185.20471 189.001408 
L 187.39144 202.431683 
L 187.336966 203.47475 
L 186.908958 203.678689 
L 186.348658 203.672316 
L 185.897304 204.078071 
L 186.749428 206.844003 
L 187.243582 209.554701 
L 187.321402 209.917968 
L 187.348639 210.287609 
" clip-path="url(#pc5fa48976c)" style="fill: #f5f5f5; stroke: #000000"/>
    <path d="M 163.242151 219.232065 
L 163.361638 221.088799 
L 164.721948 223.805318 
L 165.062026 225.431215 
L 164.979304 226.299364 
L 164.630035 228.025624 
L 164.547314 228.950646 
L 164.204172 229.666576 
L 163.380021 229.700031 
L 162.433318 229.531085 
L 161.698016 229.641485 
L 161.698016 229.862286 
L 161.87265 230.173414 
L 161.891033 230.494579 
L 161.44066 230.737125 
L 161.042371 230.700325 
L 160.714548 230.46447 
L 160.493957 230.12825 
L 160.331578 229.400611 
L 160.218219 229.119592 
L 160.22741 228.823518 
L 160.815652 227.960388 
L 160.913693 227.535514 
L 160.925948 226.555292 
L 160.732931 224.89594 
L 159.94248 222.159349 
L 160.15388 220.637161 
L 160.509276 219.824213 
L 160.861609 219.444502 
L 161.275216 219.482975 
L 161.826694 219.917886 
L 162.010519 220.453161 
L 161.835885 221.088799 
L 161.560146 221.741165 
L 161.44066 222.316586 
L 162.028902 221.580583 
L 162.261748 220.597016 
L 162.218855 219.55323 
L 161.949244 218.643263 
L 162.623272 218.539554 
L 163.242151 218.362244 
L 163.254406 219.021301 
L 163.242151 219.232065 
" clip-path="url(#pc5fa48976c)" style="fill: #f5f5f5; stroke: #000000"/>
    <path d="M 57.082817 218.362244 
L 57.959052 218.951046 
L 58.173516 220.081814 
L 57.713951 220.809453 
L 56.577296 220.187196 
L 54.665509 217.867115 
L 54.662445 217.706532 
L 54.901418 217.452277 
L 55.143456 216.679474 
L 55.128137 215.883253 
L 54.74823 214.514957 
L 54.65019 213.8743 
L 54.408153 213.156698 
L 54.444918 212.775314 
L 54.8861 212.750223 
L 55.042351 212.862297 
L 55.171029 213.056334 
L 55.272134 213.297207 
L 55.419194 213.8743 
L 55.786845 216.644347 
L 56.218836 217.858751 
L 57.082817 218.362244 
" clip-path="url(#pc5fa48976c)" style="fill: #f5f5f5; stroke: #000000"/>
    <path d="M 161.44066 214.867904 
L 161.318109 215.52027 
L 160.788078 216.575765 
L 160.503149 217.999261 
L 159.685124 220.242396 
L 159.363429 220.637161 
L 159.041734 219.946322 
L 159.639168 216.538964 
L 159.363429 214.434666 
L 159.501299 213.718736 
L 159.773973 213.190152 
L 160.668592 212.163094 
L 160.815652 212.290222 
L 160.876928 212.42404 
L 160.925948 212.750223 
L 161.379384 214.287465 
L 161.44066 214.867904 
" clip-path="url(#pc5fa48976c)" style="fill: #f5f5f5; stroke: #000000"/>
    <path d="M 112.717661 209.918286 
L 112.717661 210.757998 
L 112.861658 210.95538 
L 112.9934 211.233054 
L 113.210927 211.882075 
L 112.616557 212.032621 
L 112.239714 212.96266 
L 111.927211 212.750223 
L 111.666791 212.750223 
L 111.34816 213.578226 
L 110.732344 214.466448 
L 109.997041 215.060268 
L 109.332205 215.020123 
L 109.332205 214.715685 
L 109.601816 214.652121 
L 110.079762 214.476484 
L 110.383075 214.434666 
L 110.06138 213.966301 
L 109.871427 213.753863 
L 109.589561 213.564845 
L 109.834661 213.292189 
L 109.831598 212.976042 
L 109.77645 212.60135 
L 109.868363 212.163094 
L 110.024615 211.882075 
L 110.190058 211.684692 
L 112.717661 209.918286 
" clip-path="url(#pc5fa48976c)" style="fill: #f5f5f5; stroke: #000000"/>
    <path d="M 102.879923 211.882075 
L 103.701011 210.321415 
L 104.356656 209.580394 
L 105.217573 209.356247 
L 105.079704 210.259523 
L 104.133001 211.88542 
L 103.232256 215.108777 
L 102.879923 215.552052 
L 102.530654 215.782889 
L 102.368275 215.68587 
L 102.368275 213.772263 
L 102.515335 212.790369 
L 102.879923 211.882075 
" clip-path="url(#pc5fa48976c)" style="fill: #f5f5f5; stroke: #000000"/>
    <path d="M 104.960217 207.390786 
L 104.721244 208.416171 
L 103.655055 209.653994 
L 103.397699 210.503742 
L 103.158725 210.503742 
L 103.394635 209.628903 
L 103.875645 208.432899 
L 104.448569 207.492822 
L 104.960217 207.390786 
" clip-path="url(#pc5fa48976c)" style="fill: #f5f5f5; stroke: #000000"/>
    <path d="M 106.758645 207.671805 
L 108.192485 209.215738 
L 108.67656 210.319742 
L 108.305845 211.626147 
L 107.497011 212.11793 
L 106.633031 213.156698 
L 106.017215 213.454444 
L 105.520885 213.193498 
L 105.226764 212.594659 
L 105.217573 211.882075 
L 105.422845 211.299964 
L 105.674073 210.871744 
L 105.879345 210.351524 
L 105.968195 209.483375 
L 105.879345 208.185334 
L 106.017215 207.790569 
L 106.504353 207.390786 
L 106.758645 207.671805 
" clip-path="url(#pc5fa48976c)" style="fill: #f5f5f5; stroke: #000000"/>
    <path d="M 110.870213 206.83042 
L 110.640431 206.549401 
L 109.022765 207.516241 
L 108.817493 207.927733 
L 108.581583 207.927733 
L 108.655113 206.967584 
L 108.884895 206.070999 
L 109.313822 205.405251 
L 109.981722 205.14765 
L 110.456605 204.84154 
L 111.458455 203.705754 
L 111.927211 203.717463 
L 112.248906 203.245752 
L 112.690087 202.812514 
L 113.131269 202.558259 
L 113.468283 202.621823 
L 112.717661 205.14765 
L 112.714597 204.739503 
L 112.653322 204.470193 
L 112.441923 203.998482 
L 112.003805 205.413615 
L 111.783214 206.97762 
L 111.4462 208.389407 
L 110.640431 209.356247 
L 109.932702 209.583739 
L 109.537477 209.389702 
L 109.372034 208.934719 
L 109.332205 208.374353 
L 109.534413 208.003006 
L 110.870213 206.83042 
" clip-path="url(#pc5fa48976c)" style="fill: #f5f5f5; stroke: #000000"/>
    <path d="M 125.827496 200.93738 
L 126.029705 200.666397 
L 126.182893 200.63127 
L 126.293188 200.811925 
L 126.391228 201.189963 
L 126.391228 203.411353 
L 126.100171 204.364811 
L 125.361805 204.560521 
L 124.978834 203.933246 
L 125.018663 202.785751 
L 125.291338 201.544583 
L 125.59465 200.63127 
L 125.827496 200.93738 
" clip-path="url(#pc5fa48976c)" style="fill: #f5f5f5; stroke: #000000"/>
    <path d="M 127.132659 201.728583 
L 127.157169 199.532284 
L 127.37776 198.710972 
L 127.904727 198.945155 
L 127.938428 199.70123 
L 127.825069 200.57607 
L 127.561585 201.333818 
L 127.132659 201.728583 
" clip-path="url(#pc5fa48976c)" style="fill: #f5f5f5; stroke: #000000"/>
    <path d="M 126.247232 200.044141 
L 125.655926 199.798249 
L 125.769285 199.219483 
L 126.158383 198.528644 
L 126.391228 197.951551 
L 126.52297 196.088126 
L 126.746625 195.084486 
L 127.132659 194.428775 
L 127.414525 194.734885 
L 127.625924 195.357142 
L 127.776049 196.11489 
L 127.80975 196.947911 
L 127.647371 197.79766 
L 126.247232 200.044141 
" clip-path="url(#pc5fa48976c)" style="fill: #f5f5f5; stroke: #000000"/>
    <path d="M 133.624473 194.687422 
L 133.910712 195.71425 
L 134.473431 196.22529 
L 134.850274 197.707332 
L 134.868656 198.664136 
L 135.052726 200.002808 
L 134.442523 201.260198 
L 134.078206 201.880802 
L 133.830041 202.390986 
L 133.346653 203.355505 
L 132.565254 204.009139 
L 132.025464 204.364465 
L 131.547919 204.479532 
L 131.123195 205.197967 
L 130.403598 205.67216 
L 129.473373 205.619361 
L 128.866748 205.46547 
L 128.444554 205.168856 
L 128.213171 204.563267 
L 129.299074 203.249505 
L 129.988084 202.153457 
L 130.24544 201.470982 
L 130.591093 199.469404 
L 130.622928 196.579564 
L 130.836808 193.391135 
L 131.493995 193.278148 
L 132.798172 193.955358 
L 133.624473 194.687422 
" clip-path="url(#pc5fa48976c)" style="fill: #f5f5f5; stroke: #000000"/>
    <path d="M 113.701128 191.90462 
L 113.47441 191.74571 
L 113.223182 191.79422 
L 113.014846 191.722292 
L 112.929061 191.190363 
L 113.020973 190.936108 
L 113.247692 190.852471 
L 113.505048 190.905998 
L 113.701128 191.061562 
L 114.209713 191.621928 
L 114.758126 192.625568 
L 115.171734 193.763027 
L 115.263647 194.734885 
L 114.850039 193.901864 
L 114.748935 193.589063 
L 114.482388 194.318374 
L 114.721361 195.960999 
L 114.473196 196.673583 
L 114.280179 196.308927 
L 114.243414 195.867325 
L 114.252606 195.407324 
L 114.21584 194.990813 
L 114.473196 194.990813 
L 114.234223 194.253138 
L 113.946229 192.635605 
L 113.701128 191.90462 
" clip-path="url(#pc5fa48976c)" style="fill: #f5f5f5; stroke: #000000"/>
    <path d="M 114.748935 191.90462 
L 114.975653 189.490866 
L 115.07063 189.604612 
L 115.263647 189.631375 
L 115.419899 190.079668 
L 115.484238 190.519597 
L 115.496493 191.317491 
L 115.110459 191.538292 
L 114.981781 191.645346 
L 114.748935 191.90462 
" clip-path="url(#pc5fa48976c)" style="fill: #f5f5f5; stroke: #000000"/>
    <path d="M 133.992344 188.670444 
L 135.549797 188.207089 
L 135.957991 188.995272 
L 135.588545 189.954161 
L 134.806503 190.486821 
L 134.026778 190.838901 
L 133.071663 190.887979 
L 132.301635 190.397364 
L 132.672556 189.25738 
L 133.992344 188.670444 
" clip-path="url(#pc5fa48976c)" style="fill: #f5f5f5; stroke: #000000"/>
    <path d="M 145.623088 185.263052 
L 148.966337 189.706924 
L 149.240127 191.457724 
L 148.921855 192.83857 
L 147.12758 193.053762 
L 145.942924 192.374613 
L 144.831009 190.733324 
L 144.196311 189.098808 
L 143.975249 187.771023 
L 144.84032 185.674376 
L 145.623088 185.263052 
" clip-path="url(#pc5fa48976c)" style="fill: #f5f5f5; stroke: #000000"/>
    <path d="M 120.135576 189.003019 
L 121.795242 190.525593 
L 122.562769 191.49702 
L 121.809741 195.404406 
L 121.853798 202.041384 
L 121.541294 203.100225 
L 119.540658 206.244963 
L 118.885013 206.83042 
L 118.829865 206.65311 
L 118.609274 206.241618 
L 117.745294 207.158276 
L 117.396025 207.375731 
L 116.412557 209.076901 
L 116.081671 209.202356 
L 115.612916 209.459957 
L 115.134969 209.659012 
L 114.748935 209.610503 
L 114.445623 208.703881 
L 114.889868 207.531295 
L 115.594533 206.285109 
L 116.041842 205.14765 
L 113.940102 208.248898 
L 113.339605 208.374353 
L 113.094504 207.556386 
L 113.253819 206.392164 
L 113.676618 205.201178 
L 114.21584 204.304593 
L 113.799169 203.401317 
L 114.160693 201.879129 
L 115.729339 198.413226 
L 115.916228 197.740787 
L 116.041842 196.954602 
L 116.044906 194.549212 
L 116.274688 193.841645 
L 115.971376 192.627241 
L 115.888654 191.824329 
L 116.041842 191.317491 
L 116.041842 191.061562 
L 115.619043 190.297123 
L 115.180925 187.808096 
L 114.748935 186.826202 
L 114.14231 186.279218 
L 112.019123 184.746994 
L 111.409435 184.579721 
L 111.228673 183.064224 
L 111.317522 181.629019 
L 112.156993 178.245079 
L 112.414349 177.791769 
L 112.818765 177.490677 
L 113.468283 177.231403 
L 114.130055 177.069148 
L 114.865358 176.995548 
L 115.24392 178.213037 
L 115.655296 179.668077 
L 116.127726 180.820673 
L 116.778058 182.155666 
L 117.3103 183.126451 
L 117.903798 183.856396 
L 118.495125 184.827412 
L 118.778567 186.820071 
L 119.246632 188.090464 
L 120.135576 189.003019 
" clip-path="url(#pc5fa48976c)" style="fill: #f5f5f5; stroke: #000000"/>
    <path d="M 114.665431 174.452194 
L 115.357245 175.289641 
L 115.907037 176.135763 
L 115.309603 176.252854 
L 114.017847 175.981747 
L 112.621252 175.906241 
L 111.522794 176.938675 
L 110.949871 177.149439 
L 110.385105 177.743084 
L 110.314273 178.765619 
L 110.500059 179.406418 
L 109.987327 180.105682 
L 109.609665 179.655186 
L 109.129996 179.198537 
L 109.074849 178.815482 
L 108.927788 178.400644 
L 108.554009 178.133006 
L 107.530713 177.818532 
L 107.849344 177.346822 
L 107.904492 176.968784 
L 107.791133 175.82798 
L 107.809515 175.078595 
L 107.919811 174.350956 
L 108.195549 173.800627 
L 108.70107 173.583172 
L 109.993977 173.8207 
L 110.612857 173.733718 
L 110.870213 173.161643 
L 111.182717 173.118152 
L 112.671705 173.111461 
L 113.210927 173.302152 
L 113.969207 174.12634 
L 114.665431 174.452194 
" clip-path="url(#pc5fa48976c)" style="fill: #f5f5f5; stroke: #000000"/>
    <path d="M 115.496493 170.187523 
L 114.528344 170.217632 
L 114.21584 170.187523 
L 114.644767 170.476906 
L 115.018546 170.833198 
L 115.309603 171.224617 
L 115.496493 171.619383 
L 114.326136 171.490582 
L 113.982995 171.338363 
L 113.701128 171.03058 
L 113.250756 170.205923 
L 112.929061 169.93494 
L 112.536899 169.816176 
L 112.386775 169.884758 
L 112.255033 170.043668 
L 111.927211 170.187523 
L 111.51973 170.247741 
L 110.496434 170.261123 
L 110.104273 170.187523 
L 109.500712 169.252465 
L 110.251333 167.942715 
L 111.504412 166.915656 
L 112.441923 166.821983 
L 113.235437 167.511149 
L 114.669277 169.290938 
L 115.496493 169.93494 
L 115.496493 170.187523 
" clip-path="url(#pc5fa48976c)" style="fill: #f5f5f5; stroke: #000000"/>
    <path d="M 109.589561 165.41856 
L 109.840789 165.818343 
L 109.785641 166.121108 
L 109.203527 166.693183 
L 108.360992 167.747005 
L 108.048489 167.942715 
L 107.726794 166.26329 
L 107.530713 165.674488 
L 108.986 165.66947 
L 109.289312 165.589179 
L 109.589561 165.41856 
" clip-path="url(#pc5fa48976c)" style="fill: #f5f5f5; stroke: #000000"/>
    <path d="M 110.104273 155.00914 
L 109.427181 155.340341 
L 108.710261 155.141286 
L 108.020915 154.624412 
L 106.835239 153.383243 
L 106.433886 152.801132 
L 106.550309 152.423094 
L 107.530713 152.431458 
L 108.891023 152.921569 
L 110.68026 153.868336 
L 112.120228 154.952267 
L 112.441923 155.852198 
L 111.06323 154.845212 
L 110.309545 154.54412 
L 110.104273 155.00914 
" clip-path="url(#pc5fa48976c)" style="fill: #f5f5f5; stroke: #000000"/>
   </g>
  </g>
 </g>
 <defs>
  <clipPath id="pc5fa48976c">
   <rect x="7.2" y="7.2" width="191.368563" height="266.112"/>
  </clipPath>
 </defs>
</svg>
