<?xml version="1.0" encoding="utf-8" standalone="no"?>
<!DOCTYPE svg PUBLIC "-//W3C//DTD SVG 1.1//EN"
  "http://www.w3.org/Graphics/SVG/1.1/DTD/svg11.dtd">
<svg xmlns:xlink="http://www.w3.org/1999/xlink" width="155.914878pt" height="280.512pt" viewBox="0 0 155.914878 280.512" xmlns="http://www.w3.org/2000/svg" version="1.1">
 <metadata>
  <rdf:RDF xmlns:dc="http://purl.org/dc/elements/1.1/" xmlns:cc="http://creativecommons.org/ns#" xmlns:rdf="http://www.w3.org/1999/02/22-rdf-syntax-ns#">
   <cc:Work>
    <dc:type rdf:resource="http://purl.org/dc/dcmitype/StillImage"/>
    <dc:date>2024-03-04T13:11:09.292430</dc:date>
    <dc:format>image/svg+xml</dc:format>
    <dc:creator>
     <cc:Agent>
      <dc:title>Matplotlib v3.8.0, https://matplotlib.org/</dc:title>
     </cc:Agent>
    </dc:creator>
   </cc:Work>
  </rdf:RDF>
 </metadata>
 <defs>
  <style type="text/css">*{stroke-linejoin: round; stroke-linecap: butt}</style>
 </defs>
 <g id="figure_1">
  <g id="patch_1">
   <path d="M 0 280.512 
L 155.914878 280.512 
L 155.914878 0 
L 0 0 
z
" style="fill: #ffffff"/>
  </g>
  <g id="axes_1">
   <g id="PatchCollection_1">
    <path d="M 17.47157 213.688807 
L 18.249339 204.12295 
L 19.867844 178.075539 
L 21.360415 154.054843 
L 21.225606 127.671607 
L 20.739706 101.987881 
L 20.360975 81.968831 
L 20.283215 73.896532 
L 20.941884 70.224258 
L 22.833268 67.519129 
L 30.190685 64.837938 
L 32.086644 65.49866 
L 33.545777 66.820104 
L 34.869975 68.299547 
L 36.35884 69.448628 
L 37.413166 69.558749 
L 38.417178 69.348084 
L 39.256523 69.539597 
L 40.470943 72.144182 
L 41.607603 73.015569 
L 45.159381 75.09828 
L 45.952985 74.868464 
L 46.483579 74.12156 
L 46.883811 72.072365 
L 47.277182 71.406855 
L 51.796379 68.007488 
L 52.628863 67.025981 
L 53.895885 63.401586 
L 54.3167 62.563714 
L 55.63175 61.46251 
L 56.841596 60.75391 
L 57.900497 59.954341 
L 58.762712 58.582624 
L 59.041731 57.58436 
L 59.311602 55.492073 
L 59.554029 54.570414 
L 61.754164 50.86702 
L 62.049192 49.825664 
L 61.745016 48.535341 
L 61.420256 48.267222 
L 63.940577 46.397571 
L 66.524935 45.159914 
L 67.579262 44.353163 
L 68.468922 42.952719 
L 68.7283 41.877728 
L 68.807404 41.549882 
L 68.956062 40.084803 
L 69.28997 38.509604 
L 70.143037 37.018191 
L 72.87834 33.865398 
L 73.973834 32.1322 
L 74.280298 31.0693 
L 74.627928 28.71847 
L 75.426106 26.492124 
L 75.899524 23.691238 
L 76.361507 22.688185 
L 77.036184 22.00113 
L 79.776062 19.875329 
L 80.665722 19.975873 
L 81.484483 20.430718 
L 82.397013 20.689262 
L 83.176895 20.581535 
L 84.944779 19.942358 
L 85.907624 19.458787 
L 86.504542 19.296 
L 86.968812 19.463574 
L 87.819592 20.282295 
L 88.491982 20.691655 
L 89.011141 20.605474 
L 89.528013 20.320598 
L 90.20269 20.12669 
L 95.684732 20.081206 
L 96.188565 20.167726 
L 96.188565 20.499482 
L 97.71206 21.886824 
L 95.972467 24.156336 
L 89.118541 29.098745 
L 88.473847 30.429538 
L 89.485909 31.88097 
L 90.73928 31.960139 
L 94.978413 30.037463 
L 94.481387 31.387106 
L 93.656611 32.819688 
L 91.628886 35.387026 
L 91.142664 36.205106 
L 91.394779 36.627341 
L 92.079091 36.582101 
L 92.860648 36.020378 
L 94.351728 34.346519 
L 97.287066 32.231576 
L 98.673698 31.575604 
L 100.143169 31.304167 
L 102.12047 31.583144 
L 104.692043 32.834768 
L 105.851772 33.204223 
L 107.731829 32.917707 
L 110.411451 31.06289 
L 113.476448 30.120402 
L 114.517323 29.980914 
L 114.978333 30.323979 
L 114.805455 31.632153 
L 114.315631 32.487932 
L 112.55803 33.837576 
L 110.537508 34.704665 
L 110.144929 35.09674 
L 110.116116 36.110857 
L 110.753607 36.325745 
L 111.52796 36.001529 
L 112.190662 34.900702 
L 112.914592 34.391759 
L 113.818605 33.995914 
L 114.675795 33.837576 
L 114.967528 34.342749 
L 115.684255 45.298233 
L 114.978333 53.795707 
L 114.690202 55.243369 
L 113.451237 57.460102 
L 113.163106 58.911533 
L 109.835188 67.420318 
L 108.322498 68.457055 
L 108.311693 68.475904 
L 104.64162 75.699134 
L 105.178265 78.093055 
L 104.108577 85.787529 
L 101.947591 93.451844 
L 101.245271 95.001294 
L 98.943822 97.74959 
L 98.014598 99.449839 
L 97.614816 101.432834 
L 98.003793 103.653337 
L 99.073481 104.780553 
L 102.228519 106.390322 
L 102.88762 107.792745 
L 103.734006 108.561815 
L 107.443698 109.214017 
L 108.272075 109.975548 
L 107.205989 111.773816 
L 104.922548 111.751196 
L 102.653513 111.4119 
L 101.630647 112.24883 
L 101.400142 113.685182 
L 100.047128 118.218272 
L 97.740873 125.945069 
L 96.883682 135.354872 
L 96.793641 137.292628 
L 96.480298 140.930633 
L 97.106984 142.887238 
L 97.452742 144.651576 
L 97.467148 144.836304 
L 97.539181 145.654384 
L 98.003793 147.784407 
L 98.349551 148.941783 
L 99.188733 149.416797 
L 101.075994 150.057689 
L 102.149283 151.467651 
L 102.884018 153.258379 
L 103.301809 155.271534 
L 103.532314 158.208328 
L 104.043747 160.462759 
L 103.834852 161.540966 
L 103.280199 161.774703 
L 102.502244 161.763393 
L 101.630647 162.080069 
L 100.661805 162.981088 
L 99.451653 164.387281 
L 98.432388 165.993281 
L 98.003793 167.482412 
L 98.396372 169.186431 
L 100.12516 171.923417 
L 100.467316 173.521877 
L 100.622187 173.529417 
L 100.931928 173.774464 
L 101.158832 174.192929 
L 101.075994 174.728262 
L 100.748244 174.818741 
L 99.581312 174.660403 
L 99.210343 174.728262 
L 98.086631 175.629281 
L 97.632824 176.191004 
L 97.452742 177.031703 
L 97.258253 177.484098 
L 96.818853 177.936492 
L 96.383054 178.566074 
L 96.188565 179.531182 
L 96.278606 180.639548 
L 96.696397 182.10229 
L 96.793641 183.007079 
L 95.976068 189.574337 
L 95.428619 190.580915 
L 94.654266 191.376375 
L 93.768262 192.56014 
L 92.7562 196.345173 
L 92.27358 197.502548 
L 91.971042 199.134938 
L 92.55811 201.464769 
L 92.190742 202.320548 
L 91.560455 203.138628 
L 90.962582 203.198948 
L 90.696061 201.755056 
L 93.469325 191.225577 
L 94.960405 189.634656 
L 95.529465 188.703478 
L 93.195601 189.913633 
L 90.80411 195.987027 
L 88.880833 198.248999 
L 89.464299 198.343248 
L 90.696061 198.938901 
L 90.098188 199.244267 
L 89.637178 199.376215 
L 89.089728 199.293276 
L 88.279359 198.938901 
L 88.463042 199.75321 
L 88.689946 200.137746 
L 89.154558 200.239534 
L 90.083782 200.205605 
L 90.083782 200.778638 
L 89.143753 201.41576 
L 88.477449 202.346938 
L 88.322578 203.462844 
L 88.556685 203.960478 
L 88.880833 204.63153 
L 87.216874 205.890694 
L 85.405248 209.555088 
L 83.741289 210.327929 
L 83.56841 210.836872 
L 83.406337 213.038525 
L 83.442353 213.490919 
L 82.938123 213.800056 
L 82.46991 213.807595 
L 82.174575 213.653027 
L 82.174575 213.490919 
L 81.612719 213.867915 
L 81.429035 214.060182 
L 81.320986 214.297689 
L 80.971626 214.750084 
L 79.833507 217.520999 
L 79.484148 217.973394 
L 78.792633 218.369239 
L 76.46237 221.45306 
L 76.19945 221.943154 
L 75.832083 223.164619 
L 75.583569 223.609473 
L 75.525943 223.87714 
L 75.641196 224.66883 
L 75.583569 224.928957 
L 75.338658 224.989276 
L 74.618329 224.872408 
L 74.373418 224.928957 
L 73.98444 225.155154 
L 72.914752 225.396431 
L 72.507767 225.622628 
L 72.320482 225.984544 
L 71.902691 227.462366 
L 71.902691 223.609473 
L 71.297615 223.609473 
L 70.688938 225.622628 
L 69.446371 225.916685 
L 68.225414 225.143844 
L 67.674363 223.956309 
L 67.328605 223.428516 
L 66.583065 223.368197 
L 65.844729 223.511455 
L 65.527784 223.609473 
L 65.416133 223.941229 
L 65.455751 225.569849 
L 65.200035 226.195661 
L 64.562544 226.406779 
L 61.573181 226.829013 
L 61.061748 227.175849 
L 60.643957 227.613164 
L 60.010068 227.993929 
L 58.828729 228.152267 
L 57.575358 228.74038 
L 57.20799 230.191812 
L 57.398877 233.788347 
L 57.074729 235.718563 
L 56.235547 237.120985 
L 54.989379 237.988075 
L 53.444274 238.274591 
L 52.994069 238.515868 
L 52.471831 239.100211 
L 52.036032 239.820272 
L 51.647054 241.430042 
L 51.106808 241.901286 
L 50.34326 242.202882 
L 49.489671 242.700516 
L 48.506422 243.552525 
L 48.067022 244.027539 
L 47.674443 244.600572 
L 47.461946 245.626 
L 47.533979 246.651427 
L 47.289067 247.446887 
L 44.976813 248.129248 
L 43.449717 249.064197 
L 41.969441 250.296971 
L 40.971787 251.559906 
L 40.662045 253.859577 
L 42.509688 257.720009 
L 42.181938 259.891502 
L 38.826559 261.216 
L 30.998011 259.171592 
L 28.159791 259.190744 
L 25.634896 259.626437 
L 18.860675 259.305652 
L 17.239161 259.985525 
L 16.436409 260.033403 
L 15.400379 260.382916 
L 14.563321 260.809034 
L 14.364348 261.10588 
L 13.632494 259.894556 
L 13.67586 258.729156 
L 13.842902 254.240117 
L 16.110474 232.820523 
L 17.47157 213.688807 
" clip-path="url(#p21e6841f49)" style="fill: #f5f5f5; stroke: #000000"/>
    <path d="M 137.394955 121.421125 
L 138.500659 120.433398 
L 139.527128 122.088407 
L 141.018207 126.540722 
L 140.60762 127.223083 
L 140.456351 128.139182 
L 140.467156 130.333295 
L 139.86208 130.333295 
L 139.894495 129.375726 
L 139.86208 129.06659 
L 139.361452 129.224928 
L 139.022898 129.485055 
L 138.799596 129.850741 
L 138.605107 130.333295 
L 138.67714 124.716064 
L 138.374602 122.382463 
L 137.394955 121.421125 
" clip-path="url(#p21e6841f49)" style="fill: #f5f5f5; stroke: #000000"/>
    <path d="M 138.327781 106.869107 
L 139.390265 106.906806 
L 140.65084 107.215942 
L 141.738536 108.128271 
L 142.282384 109.975548 
L 141.918618 111.37797 
L 140.088984 114.997125 
L 138.914848 116.580506 
L 138.014438 118.156346 
L 136.732253 119.000816 
L 134.974652 117.621013 
L 134.067038 119.128994 
L 132.946927 119.996083 
L 131.927662 121.115759 
L 131.293773 123.373961 
L 130.742722 127.51714 
L 130.526623 128.191961 
L 130.072816 129.134449 
L 129.673034 130.288055 
L 129.586595 131.599999 
L 128.32602 130.333295 
L 128.657371 130.024158 
L 128.772623 129.715022 
L 128.80864 129.398346 
L 128.931096 129.06659 
L 129.143593 127.098675 
L 129.961165 123.830125 
L 130.386159 119.385351 
L 131.088479 117.922609 
L 132.222997 116.863252 
L 133.7645 115.728496 
L 135.579727 113.83221 
L 136.472935 113.753041 
L 137.791136 114.303454 
L 138.900442 114.461792 
L 139.754031 113.655022 
L 140.434741 111.837905 
L 140.600417 109.892609 
L 139.86208 108.716384 
L 138.886035 109.591013 
L 138.068462 110.058487 
L 137.394955 109.975548 
L 137.438175 109.387435 
L 138.327781 106.869107 
" clip-path="url(#p21e6841f49)" style="fill: #f5f5f5; stroke: #000000"/>
    <path d="M 116.24251 97.953168 
L 117.456263 98.993675 
L 118.335064 101.244337 
L 119.20306 106.182975 
L 118.601586 106.182975 
L 118.154982 105.285726 
L 117.377027 103.087844 
L 116.24251 97.953168 
" clip-path="url(#p21e6841f49)" style="fill: #f5f5f5; stroke: #000000"/>
    <path d="M 108.877151 94.156825 
L 110.731997 93.297276 
L 115.756288 89.851538 
L 116.786358 89.384064 
L 115.972387 92.392487 
L 113.905044 94.243534 
L 111.142584 95.170942 
L 108.272075 95.423529 
L 108.264872 94.989984 
L 108.387328 94.707238 
L 108.877151 94.156825 
" clip-path="url(#p21e6841f49)" style="fill: #f5f5f5; stroke: #000000"/>
    <path d="M 130.742722 62.361041 
L 131.293773 62.361041 
L 130.595055 66.364731 
L 128.873469 70.051745 
L 126.107408 72.754801 
L 122.282464 73.799078 
L 122.282464 73.173266 
L 123.200883 73.203426 
L 123.492616 73.173266 
L 126.719687 70.854745 
L 127.868611 69.229895 
L 128.32602 66.847285 
L 126.928583 66.918914 
L 127.303153 64.04621 
L 128.931096 58.251792 
L 129.121983 57.844637 
L 129.53257 57.512881 
L 129.953962 57.079336 
L 130.137646 56.351735 
L 130.191671 55.446947 
L 131.502668 50.568627 
L 132.374266 49.746778 
L 133.7645 50.33866 
L 135.712988 49.045566 
L 136.595391 50.312271 
L 136.447723 52.370665 
L 135.27719 53.448872 
L 134.621691 54.496918 
L 132.813666 59.480796 
L 131.952874 61.150886 
L 131.344196 60.732421 
L 130.742722 60.460984 
L 130.526623 61.433632 
L 130.191671 62.123533 
L 129.680237 62.621167 
L 128.931096 62.994393 
L 128.931096 63.620205 
L 129.586595 64.950998 
L 130.418574 63.729534 
L 130.616664 63.17535 
L 130.742722 62.361041 
" clip-path="url(#p21e6841f49)" style="fill: #f5f5f5; stroke: #000000"/>
    <path d="M 114.618169 109.477914 
L 116.26412 110.744618 
L 117.088896 111.966083 
L 116.90161 112.882182 
L 116.653097 113.300646 
L 116.631487 113.8586 
L 116.260518 114.695529 
L 115.648239 114.62767 
L 115.486165 113.8586 
L 115.367311 111.932153 
L 115.248456 111.524999 
L 114.538933 111.619247 
L 113.775385 111.264872 
L 113.263952 110.62021 
L 112.968617 110.156506 
L 112.698494 109.896379 
L 112.709299 109.349736 
L 113.30357 108.957661 
L 114.618169 109.477914 
" clip-path="url(#p21e6841f49)" style="fill: #f5f5f5; stroke: #000000"/>
    <path d="M 125.819277 56.344195 
L 126.33071 56.129308 
L 126.59363 56.389435 
L 126.399141 57.354543 
L 125.682414 57.987895 
L 124.724377 58.161313 
L 124.465059 57.57697 
L 125.10255 56.660871 
L 125.552755 56.359275 
L 125.819277 56.344195 
" clip-path="url(#p21e6841f49)" style="fill: #f5f5f5; stroke: #000000"/>
    <path d="M 128.434069 53.773087 
L 128.646566 54.142543 
L 128.711396 55.13781 
L 128.192759 56.102918 
L 127.461626 56.649562 
L 127.151884 56.585472 
L 127.036632 56.110458 
L 126.896168 55.744773 
L 127.043835 55.424327 
L 127.497642 55.16797 
L 127.965856 54.768355 
L 128.124328 54.251871 
L 128.290003 53.908806 
L 128.434069 53.773087 
" clip-path="url(#p21e6841f49)" style="fill: #f5f5f5; stroke: #000000"/>
    <path d="M 133.843736 45.471651 
L 134.167884 45.633759 
L 134.221908 46.006984 
L 134.167884 46.481998 
L 133.854541 47.409407 
L 133.011757 48.495153 
L 132.503925 48.054069 
L 132.748837 46.470688 
L 133.098196 45.916505 
L 133.375522 46.135162 
L 133.422344 45.946665 
L 133.274676 45.54328 
L 133.310693 45.384942 
L 133.616832 45.449031 
L 133.843736 45.471651 
" clip-path="url(#p21e6841f49)" style="fill: #f5f5f5; stroke: #000000"/>
   </g>
  </g>
 </g>
 <defs>
  <clipPath id="p21e6841f49">
   <rect x="7.2" y="7.2" width="141.514878" height="266.112"/>
  </clipPath>
 </defs>
</svg>
