<?xml version="1.0" encoding="utf-8" standalone="no"?>
<!DOCTYPE svg PUBLIC "-//W3C//DTD SVG 1.1//EN"
  "http://www.w3.org/Graphics/SVG/1.1/DTD/svg11.dtd">
<svg xmlns:xlink="http://www.w3.org/1999/xlink" width="145.061945pt" height="280.512pt" viewBox="0 0 145.061945 280.512" xmlns="http://www.w3.org/2000/svg" version="1.1">
 <metadata>
  <rdf:RDF xmlns:dc="http://purl.org/dc/elements/1.1/" xmlns:cc="http://creativecommons.org/ns#" xmlns:rdf="http://www.w3.org/1999/02/22-rdf-syntax-ns#">
   <cc:Work>
    <dc:type rdf:resource="http://purl.org/dc/dcmitype/StillImage"/>
    <dc:date>2024-03-04T13:11:09.317551</dc:date>
    <dc:format>image/svg+xml</dc:format>
    <dc:creator>
     <cc:Agent>
      <dc:title>Matplotlib v3.8.0, https://matplotlib.org/</dc:title>
     </cc:Agent>
    </dc:creator>
   </cc:Work>
  </rdf:RDF>
 </metadata>
 <defs>
  <style type="text/css">*{stroke-linejoin: round; stroke-linecap: butt}</style>
 </defs>
 <g id="figure_1">
  <g id="patch_1">
   <path d="M 0 280.512 
L 145.061945 280.512 
L 145.061945 0 
L 0 0 
z
" style="fill: #ffffff"/>
  </g>
  <g id="axes_1">
   <g id="PatchCollection_1">
    <defs>
     <path id="mfe6e250c5b" d="M 122.620173 -233.701993 
L 121.770493 -232.812684 
L 119.089814 -228.256997 
L 118.631067 -226.494548 
L 118.387732 -225.899318 
L 117.613845 -223.795294 
L 117.68166 -222.895879 
L 118.256091 -221.83275 
L 125.1732 -212.087743 
L 126.10665 -211.201466 
L 126.425779 -211.147905 
L 126.788787 -211.213593 
L 126.834308 -211.211158 
L 127.147807 -211.194392 
L 127.470925 -210.883134 
L 127.076003 -209.364235 
L 127.076003 -208.51737 
L 127.231578 -207.736193 
L 127.518794 -207.018682 
L 127.913715 -206.35069 
L 127.913715 -206.340584 
L 128.707547 -202.85712 
L 128.663667 -201.705061 
L 127.825955 -199.645502 
L 127.778086 -198.968415 
L 127.973552 -198.501528 
L 128.284702 -198.176121 
L 128.623776 -197.891138 
L 128.914981 -197.555626 
L 129.106458 -197.136236 
L 129.469466 -195.852802 
L 129.832475 -195.419264 
L 130.327124 -195.268687 
L 130.873631 -195.165608 
L 131.364291 -194.882646 
L 131.719322 -194.126734 
L 131.910799 -192.988823 
L 131.916075 -192.041544 
L 131.922766 -190.840333 
L 131.631561 -189.791353 
L 130.646252 -187.838915 
L 130.2992 -186.795998 
L 130.259309 -184.776863 
L 130.004006 -184.053289 
L 129.417608 -183.320619 
L 128.815253 -183.227646 
L 126.342008 -184.523208 
L 125.52823 -184.66772 
L 124.7703 -184.42215 
L 124.016359 -183.673311 
L 123.761057 -183.306471 
L 123.653351 -183.057869 
L 123.61346 -182.287808 
L 123.461874 -181.822942 
L 122.488532 -180.321223 
L 121.6947 -178.5517 
L 121.730602 -177.820041 
L 122.281099 -176.927701 
L 124.90593 -174.213287 
L 125.252982 -173.721135 
L 125.364677 -173.109736 
L 125.261357 -172.409185 
L 125.229047 -172.190109 
L 124.878006 -171.332128 
L 124.395324 -170.971352 
L 123.832861 -170.701527 
L 123.234495 -170.126508 
L 122.983181 -169.493886 
L 122.743835 -166.152914 
L 122.352902 -165.375779 
L 121.104313 -163.879113 
L 120.087091 -162.017627 
L 119.404954 -161.377931 
L 117.083294 -161.631586 
L 115.579402 -161.230387 
L 112.802985 -160.086412 
L 112.180684 -159.622557 
L 111.84161 -158.840369 
L 111.75385 -157.955102 
L 111.889479 -157.186052 
L 112.364183 -155.981443 
L 112.671344 -154.791992 
L 112.400085 -153.767266 
L 111.143517 -153.060871 
L 110.46138 -153.101294 
L 109.707439 -153.242775 
L 109.085138 -153.050766 
L 108.793934 -152.086674 
L 108.841803 -151.822913 
L 109.045247 -151.324698 
L 109.001367 -151.122582 
L 106.647795 -148.030212 
L 106.36058 -147.777568 
L 105.738279 -147.566357 
L 105.459042 -147.358178 
L 104.717068 -146.150536 
L 104.565482 -145.067196 
L 104.824774 -143.975772 
L 105.315434 -142.746908 
L 105.447074 -142.094075 
L 105.443085 -139.554491 
L 105.203739 -138.741986 
L 104.409907 -137.222077 
L 103.125415 -133.21008 
L 102.535028 -131.987281 
L 101.585621 -131.324341 
L 98.948822 -130.636137 
L 98.498053 -130.632095 
L 98.11111 -130.820063 
L 97.736134 -131.07776 
L 97.313289 -131.279876 
L 96.894433 -131.330405 
L 95.709669 -131.292003 
L 95.294802 -131.213178 
L 94.883924 -130.946385 
L 94.556817 -130.600767 
L 94.18583 -130.323869 
L 93.667247 -130.251107 
L 90.691374 -130.496677 
L 90.815037 -129.459824 
L 90.731265 -126.980875 
L 90.519843 -125.909662 
L 90.39618 -125.672176 
L 89.961368 -125.01429 
L 89.865629 -124.933444 
L 89.933444 -124.61309 
L 90.096998 -124.527191 
L 90.288475 -124.458472 
L 90.436072 -124.185616 
L 90.420115 -123.588364 
L 89.937433 -122.474706 
L 89.793826 -121.871391 
L 89.841695 -121.524763 
L 90.04115 -120.923469 
L 89.993281 -120.57684 
L 89.785847 -120.370682 
L 89.135623 -120.07054 
L 88.916222 -119.775452 
L 88.904255 -119.360104 
L 88.907619 -119.317468 
L 89.659863 -109.784502 
L 89.749945 -108.64292 
L 89.446773 -107.322094 
L 89.139612 -106.861271 
L 88.369715 -105.98712 
L 88.166271 -105.498 
L 88.158292 -105.151372 
L 88.254031 -104.428808 
L 88.254031 -104.066011 
L 87.958837 -102.446054 
L 87.910968 -101.697215 
L 88.050587 -100.765462 
L 88.349769 -99.902428 
L 89.107699 -98.274386 
L 89.37098 -97.44167 
L 89.351035 -96.583689 
L 89.047863 -95.865167 
L 88.644963 -95.212334 
L 88.34578 -94.550405 
L 88.242064 -93.834915 
L 88.158292 -91.496437 
L 87.671622 -89.01951 
L 87.524025 -86.553698 
L 87.388395 -86.206059 
L 86.993474 -85.460253 
L 86.905713 -85.161121 
L 86.929355 -84.985803 
L 86.949594 -84.835715 
L 87.260744 -84.356701 
L 87.695556 -83.234959 
L 88.621029 -82.194063 
L 88.964092 -81.632182 
L 89.071798 -81.0703 
L 88.702754 -75.799012 
L 88.61305 -74.51771 
L 88.816495 -72.983652 
L 89.590381 -71.528419 
L 90.731265 -70.156054 
L 91.584934 -68.723054 
L 91.481217 -67.087938 
L 91.389468 -66.738278 
L 91.361544 -66.517972 
L 91.237882 -66.439146 
L 90.404159 -66.606902 
L 90.001259 -66.610945 
L 89.706065 -66.439146 
L 89.610327 -66.006619 
L 90.420115 -56.385913 
L 90.380224 -55.844243 
L 90.252573 -55.474371 
L 89.945412 -55.07014 
L 89.590381 -54.328375 
L 89.422839 -54.067646 
L 89.382948 -53.796811 
L 89.530545 -53.28748 
L 89.86164 -52.867079 
L 90.874873 -52.028299 
L 91.098263 -51.658427 
L 90.946677 -51.236005 
L 90.551756 -51.023784 
L 90.057107 -50.87624 
L 89.606338 -50.659976 
L 88.605072 -49.253251 
L 88.732724 -47.834399 
L 89.255296 -46.3347 
L 89.446773 -44.695542 
L 89.035896 -43.055374 
L 88.932179 -42.208509 
L 89.127645 -41.437438 
L 89.422839 -41.04028 
L 89.749945 -40.802794 
L 90.144867 -40.683546 
L 90.623559 -40.63807 
L 90.850938 -40.461219 
L 90.926731 -40.064062 
L 91.054383 -38.260179 
L 90.838971 -37.818556 
L 90.364268 -37.502245 
L 89.666174 -36.874676 
L 89.223384 -36.033875 
L 89.211416 -35.232486 
L 89.542512 -33.583223 
L 89.46273 -32.755559 
L 88.747606 -30.654208 
L 88.617039 -30.270547 
L 88.481953 -29.471079 
L 88.186216 -27.720857 
L 88.170122 -25.337115 
L 88.149167 -25.335598 
L 72.852362 -23.895325 
L 69.75845 -23.198265 
L 56.547287 -21.678419 
L 46.323242 -19.296 
L 46.045308 -20.112213 
L 46.843129 -20.539688 
L 51.801587 -21.726107 
L 52.603397 -21.774614 
L 51.87738 -24.644657 
L 51.127429 -27.581398 
L 50.134141 -29.195291 
L 49.803046 -29.445915 
L 48.973312 -29.877432 
L 48.718009 -30.088643 
L 48.634238 -30.430218 
L 48.729976 -31.268998 
L 48.682107 -31.662113 
L 48.438772 -31.995604 
L 47.796526 -32.5302 
L 47.696798 -32.802045 
L 47.64494 -33.249732 
L 47.365702 -33.348768 
L 46.986737 -33.312388 
L 46.623729 -33.354832 
L 46.320557 -33.536736 
L 45.997439 -33.798476 
L 45.694267 -34.107713 
L 45.462899 -34.429077 
L 45.339237 -34.829266 
L 45.363171 -35.190042 
L 45.430986 -35.51747 
L 45.423008 -35.821654 
L 45.000163 -36.604852 
L 44.501525 -37.014136 
L 44.2542 -37.453738 
L 44.573329 -38.33092 
L 45.147686 -39.108708 
L 45.450932 -39.51936 
L 45.606507 -40.124696 
L 45.379128 -41.068577 
L 45.083934 -41.868955 
L 44.916392 -42.54301 
L 44.892457 -43.211003 
L 45.183662 -44.853193 
L 45.10388 -45.396884 
L 44.756827 -45.819305 
L 44.184351 -46.251654 
L 44.12256 -46.29832 
L 43.687747 -46.947111 
L 42.937795 -49.726201 
L 45.853831 -49.70599 
L 46.555914 -49.91619 
L 46.52799 -55.660318 
L 46.504056 -61.337747 
L 46.480121 -67.176869 
L 46.462648 -71.020956 
L 46.447346 -74.3875 
L 46.444219 -75.075549 
L 46.412306 -82.828706 
L 46.388371 -89.01951 
L 46.48411 -95.250736 
L 46.551925 -99.732651 
L 46.141047 -103.087771 
L 45.945581 -103.448547 
L 45.717477 -103.526414 
L 45.606507 -103.689065 
L 45.797984 -104.643051 
L 45.797984 -105.32216 
L 45.85782 -105.653629 
L 47.126356 -107.763717 
L 47.269964 -108.454953 
L 47.10641 -108.836951 
L 46.109134 -110.109269 
L 45.913668 -110.54685 
L 45.85782 -111.007674 
L 45.84327 -112.175634 
L 45.778038 -117.411709 
L 45.730169 -121.038675 
L 45.674322 -125.308368 
L 45.610496 -130.202599 
L 45.403062 -131.26977 
L 45.095901 -132.211629 
L 44.302069 -133.613301 
L 41.904617 -136.1448 
L 38.821039 -139.392799 
L 38.623402 -139.698581 
L 37.891577 -140.830852 
L 37.333103 -142.390174 
L 37.069822 -146.353663 
L 36.627031 -147.463278 
L 35.96484 -147.138882 
L 35.394397 -147.724007 
L 35.003465 -148.680014 
L 34.879803 -149.47635 
L 35.039367 -149.984671 
L 35.725493 -151.043757 
L 35.96484 -151.539951 
L 36.012709 -151.939129 
L 36.000741 -152.724349 
L 36.092491 -153.113421 
L 36.148338 -153.589404 
L 35.845166 -155.415519 
L 35.797297 -158.453317 
L 35.725493 -162.727053 
L 35.682147 -165.607753 
L 35.677624 -165.908354 
L 35.182975 -167.239286 
L 31.110098 -169.960773 
L 25.581199 -173.652416 
L 22.295344 -175.847089 
L 20.072244 -177.331932 
L 16.402267 -179.782585 
L 13.482242 -181.735022 
L 13.171092 -182.324189 
L 13.139179 -183.223604 
L 13.677709 -187.251769 
L 14.244161 -189.430576 
L 14.272085 -190.959581 
L 13.964924 -194.483468 
L 14.51941 -195.791156 
L 16.617679 -197.794123 
L 17.116317 -198.513655 
L 17.23599 -198.915865 
L 17.295827 -199.809216 
L 17.37162 -200.227595 
L 17.973975 -201.380665 
L 17.918127 -201.804098 
L 17.59501 -202.598412 
L 17.503261 -203.019824 
L 17.614955 -203.796958 
L 18.604254 -206.205167 
L 19.78104 -205.554354 
L 20.299623 -205.483614 
L 20.989738 -205.47755 
L 21.153292 -205.68674 
L 21.24903 -206.143521 
L 21.213128 -206.602324 
L 20.989738 -206.812524 
L 20.682577 -206.958047 
L 20.546948 -207.313771 
L 20.527002 -207.752362 
L 20.570882 -208.147498 
L 20.706512 -208.23845 
L 21.033619 -208.734644 
L 21.260998 -209.206584 
L 21.5163 -209.554223 
L 21.687832 -209.622943 
L 21.867342 -209.559276 
L 22.713032 -209.424869 
L 22.972324 -209.240944 
L 23.16779 -209.058029 
L 23.375223 -208.973141 
L 23.486918 -208.888252 
L 23.690363 -208.506253 
L 23.758177 -208.416312 
L 24.001513 -208.428439 
L 24.420369 -208.64066 
L 24.571955 -208.682094 
L 25.760708 -208.551729 
L 26.151641 -208.416312 
L 26.255357 -208.224302 
L 26.530606 -207.835229 
L 26.813832 -207.571468 
L 26.941483 -207.74832 
L 26.985364 -208.375889 
L 26.546562 -208.827617 
L 26.303227 -209.242965 
L 26.239401 -209.668419 
L 26.231423 -210.111052 
L 26.151641 -210.575918 
L 26.079837 -210.573897 
L 25.712839 -210.741653 
L 25.601144 -210.818457 
L 25.577209 -210.99834 
L 25.645024 -211.484428 
L 25.601144 -211.644099 
L 25.238136 -211.727977 
L 24.9948 -211.508682 
L 24.851192 -211.455121 
L 24.811301 -212.045299 
L 25.010757 -212.132209 
L 26.283281 -212.419213 
L 26.506671 -212.576863 
L 26.769952 -213.289321 
L 26.941483 -213.489415 
L 27.352361 -213.485373 
L 28.122259 -213.118533 
L 28.521169 -212.979073 
L 28.321714 -213.653129 
L 28.170128 -214.986082 
L 27.4481 -216.172501 
L 27.639577 -216.662631 
L 28.038487 -217.04362 
L 28.441387 -217.657041 
L 28.812374 -217.361952 
L 29.103578 -216.916287 
L 29.05172 -216.716192 
L 29.390794 -216.711139 
L 29.594238 -216.810176 
L 29.793694 -216.932456 
L 30.128779 -217.00926 
L 30.858785 -216.972879 
L 31.485074 -216.794007 
L 32.765577 -216.184628 
L 33.256237 -217.092127 
L 33.316074 -217.396311 
L 33.228313 -217.780331 
L 32.849348 -218.155256 
L 32.765577 -218.465503 
L 32.957054 -218.935422 
L 33.387878 -218.720169 
L 33.838646 -218.207806 
L 34.081982 -217.786395 
L 34.345263 -218.108769 
L 34.616522 -218.217912 
L 34.89177 -218.108769 
L 35.15904 -217.786395 
L 35.833199 -218.359393 
L 35.757406 -218.86165 
L 35.38243 -219.397257 
L 35.15904 -220.06727 
L 35.494125 -220.808024 
L 36.264022 -221.30826 
L 37.137636 -221.691269 
L 37.771904 -222.082363 
L 37.404906 -222.91609 
L 37.452776 -223.244528 
L 37.771904 -223.710405 
L 38.274531 -224.083308 
L 38.741873 -224.235948 
L 38.757213 -224.240959 
L 39.152135 -224.457222 
L 39.375524 -225.019104 
L 40.005803 -224.664391 
L 40.751766 -224.510783 
L 44.381852 -224.218726 
L 44.302069 -223.960018 
L 44.214309 -223.410263 
L 44.146494 -223.151555 
L 44.816664 -223.191978 
L 45.626452 -221.691269 
L 46.380393 -221.948967 
L 47.038596 -222.298627 
L 48.821726 -222.675573 
L 49.55971 -223.030286 
L 50.162065 -223.220275 
L 51.869402 -223.099005 
L 52.599408 -223.151555 
L 54.115268 -223.760934 
L 54.853253 -223.912521 
L 55.523422 -223.710405 
L 55.894409 -223.956986 
L 56.365124 -223.888267 
L 57.366389 -223.418348 
L 58.997933 -222.787747 
L 60.362207 -222.681636 
L 61.41932 -223.185915 
L 61.599495 -223.369325 
L 66.676961 -228.537938 
L 69.497258 -230.838014 
L 71.563615 -231.992095 
L 72.098155 -232.509511 
L 72.237773 -232.881404 
L 72.205861 -233.309889 
L 72.229795 -233.99304 
L 72.644662 -235.100634 
L 74.128609 -236.755961 
L 74.671128 -237.772603 
L 76.063325 -241.554187 
L 75.987532 -241.954376 
L 75.536763 -242.631464 
L 75.484905 -243.059949 
L 75.704306 -243.563217 
L 76.031412 -243.648106 
L 76.394421 -243.597577 
L 76.729506 -243.692571 
L 76.988798 -243.985639 
L 77.29197 -244.551563 
L 77.55924 -244.832503 
L 77.946183 -244.868884 
L 78.349083 -244.72134 
L 78.632309 -244.781975 
L 78.656244 -245.452999 
L 78.576462 -245.940097 
L 78.325148 -246.124023 
L 77.95815 -246.210932 
L 77.547272 -246.396879 
L 77.148362 -246.722285 
L 76.873114 -247.039607 
L 76.657702 -247.427669 
L 75.357254 -251.094047 
L 74.978289 -253.272854 
L 74.946376 -254.162163 
L 75.28545 -254.841272 
L 76.2189 -255.269757 
L 76.749451 -255.336455 
L 77.635033 -255.300074 
L 78.129682 -255.348582 
L 78.221431 -255.44964 
L 78.54056 -255.888231 
L 78.740015 -256.033754 
L 79.027231 -255.967056 
L 79.246631 -255.740686 
L 79.442097 -255.676009 
L 79.661498 -256.084283 
L 79.841008 -256.56734 
L 80.112267 -256.678503 
L 80.475276 -256.623932 
L 80.930034 -256.607763 
L 81.03774 -256.518832 
L 81.097576 -256.304589 
L 81.217249 -256.128748 
L 81.508454 -256.14896 
L 81.727855 -256.280335 
L 82.078896 -256.615847 
L 82.254417 -256.729032 
L 83.626669 -257.100925 
L 83.778255 -257.072629 
L 84.109351 -256.878598 
L 84.300828 -256.858386 
L 84.536185 -256.973592 
L 84.998921 -257.315168 
L 85.266191 -257.365696 
L 86.626476 -257.003909 
L 86.977517 -257.206025 
L 87.516046 -258.054911 
L 87.643698 -258.358084 
L 87.719491 -258.6653 
L 87.831186 -258.946241 
L 88.038619 -259.176653 
L 88.457475 -259.338345 
L 88.864364 -259.065489 
L 89.267264 -259.164526 
L 89.622294 -259.45153 
L 90.240605 -260.187231 
L 90.66744 -260.466151 
L 91.038426 -260.538912 
L 91.820291 -260.510616 
L 92.215212 -260.589441 
L 93.132707 -260.62178 
L 93.591454 -261.216 
L 95.442399 -259.566736 
L 96.228252 -259.146335 
L 96.615196 -258.727956 
L 96.914378 -258.246921 
L 97.161703 -257.367718 
L 97.476842 -257.04029 
L 97.903676 -256.819984 
L 98.358434 -256.652228 
L 99.638937 -256.508726 
L 99.962055 -256.407668 
L 100.105663 -256.203531 
L 100.484628 -255.475915 
L 102.048357 -253.179881 
L 108.686228 -247.146728 
L 108.805901 -246.938549 
L 109.328474 -246.544423 
L 109.448147 -246.334223 
L 109.543886 -245.499485 
L 109.735363 -244.612197 
L 110.018589 -243.90075 
L 110.900181 -242.419242 
L 111.450678 -241.782578 
L 111.777785 -241.477383 
L 112.252488 -241.158041 
L 112.787028 -241.020602 
L 113.305612 -241.26112 
L 113.84813 -241.584505 
L 114.302888 -241.495574 
L 114.717755 -241.253035 
L 115.148578 -241.113575 
L 116.87985 -240.046404 
L 118.291993 -239.545158 
L 118.722817 -239.246026 
L 119.033967 -238.950937 
L 120.326437 -237.109664 
L 120.585729 -236.881273 
L 120.801141 -236.751919 
L 120.972672 -236.592248 
L 121.11628 -236.285032 
L 121.311746 -235.666558 
L 121.455354 -235.367427 
L 121.531147 -235.021809 
L 121.666776 -234.722677 
L 121.989894 -234.546837 
L 122.348913 -233.926342 
L 122.620173 -233.701993 
" style="stroke: #000000"/>
    </defs>
    <g clip-path="url(#p82aa2695c6)">
     <use xlink:href="#mfe6e250c5b" x="0" y="280.512" style="fill: #f5f5f5; stroke: #000000"/>
    </g>
   </g>
  </g>
 </g>
 <defs>
  <clipPath id="p82aa2695c6">
   <rect x="7.2" y="7.2" width="130.661945" height="266.112"/>
  </clipPath>
 </defs>
</svg>
