<?xml version="1.0" encoding="utf-8" standalone="no"?>
<!DOCTYPE svg PUBLIC "-//W3C//DTD SVG 1.1//EN"
  "http://www.w3.org/Graphics/SVG/1.1/DTD/svg11.dtd">
<svg xmlns:xlink="http://www.w3.org/1999/xlink" width="371.52pt" height="213.704305pt" viewBox="0 0 371.52 213.704305" xmlns="http://www.w3.org/2000/svg" version="1.1">
 <metadata>
  <rdf:RDF xmlns:dc="http://purl.org/dc/elements/1.1/" xmlns:cc="http://creativecommons.org/ns#" xmlns:rdf="http://www.w3.org/1999/02/22-rdf-syntax-ns#">
   <cc:Work>
    <dc:type rdf:resource="http://purl.org/dc/dcmitype/StillImage"/>
    <dc:date>2024-03-04T13:11:09.341618</dc:date>
    <dc:format>image/svg+xml</dc:format>
    <dc:creator>
     <cc:Agent>
      <dc:title>Matplotlib v3.8.0, https://matplotlib.org/</dc:title>
     </cc:Agent>
    </dc:creator>
   </cc:Work>
  </rdf:RDF>
 </metadata>
 <defs>
  <style type="text/css">*{stroke-linejoin: round; stroke-linecap: butt}</style>
 </defs>
 <g id="figure_1">
  <g id="patch_1">
   <path d="M 0 213.704305 
L 371.52 213.704305 
L 371.52 0 
L 0 0 
z
" style="fill: #ffffff"/>
  </g>
  <g id="axes_1">
   <g id="PatchCollection_1">
    <defs>
     <path id="ma9dc923beb" d="M 192.121221 -166.26499 
L 193.799565 -166.4903 
L 195.487898 -166.456504 
L 201.791676 -165.555264 
L 203.929566 -166.073477 
L 206.297229 -166.332583 
L 209.114448 -167.861874 
L 210.70288 -168.225186 
L 212.291312 -167.870323 
L 216.44721 -165.104644 
L 219.190603 -164.393319 
L 222.421313 -163.555638 
L 228.435377 -163.178244 
L 234.099786 -161.93904 
L 239.034914 -157.804603 
L 240.443524 -156.427396 
L 243.700309 -154.757287 
L 247.866197 -154.323565 
L 251.792322 -155.292398 
L 254.389758 -157.804603 
L 254.409738 -157.821501 
L 255.778387 -159.916883 
L 259.844374 -164.645575 
L 261.662579 -166.073477 
L 264.170104 -166.540995 
L 266.637669 -166.169233 
L 268.91542 -166.321318 
L 270.893468 -168.343474 
L 272.771614 -164.527287 
L 275.848577 -161.710914 
L 283.331191 -157.804603 
L 285.036248 -157.221304 
L 285.998558 -156.892098 
L 287.397178 -156.675237 
L 290.933687 -156.644257 
L 294.799871 -155.038924 
L 298.775946 -154.531977 
L 300.903846 -153.940538 
L 302.941834 -153.008318 
L 304.510286 -151.81136 
L 305.948866 -149.304787 
L 305.569241 -147.175608 
L 304.430365 -144.998551 
L 303.581203 -142.322996 
L 297.396386 -142.178961 
L 297.557682 -138.876424 
L 301.357636 -137.7411 
L 304.299403 -134.674556 
L 304.220862 -130.755558 
L 303.421361 -127.46944 
L 298.895828 -121.098803 
L 298.256459 -116.927753 
L 300.364378 -108.934884 
L 301.273481 -107.383062 
L 304.020769 -105.149678 
L 304.869931 -103.3303 
L 306.388432 -101.606679 
L 308.596253 -100.919484 
L 310.983896 -100.474497 
L 313.121786 -99.519746 
L 313.126644 -99.512882 
L 318.197725 -99.13505 
L 321.743007 -99.667173 
L 325.642818 -100.199272 
L 329.897156 -99.489801 
L 335.959244 -100.491395 
L 337.09812 -100.874422 
L 341.787051 -98.078247 
L 347.707648 -82.539829 
L 348.087273 -81.244297 
L 347.417933 -79.368592 
L 344.400911 -76.78316 
L 343.062233 -75.155296 
L 342.712578 -74.169565 
L 342.402884 -72.102347 
L 342.12316 -71.161678 
L 341.583692 -70.288602 
L 340.324935 -68.942376 
L 340.06557 -68.575402 
L 339.795457 -68.19322 
L 339.106138 -66.604785 
L 338.616621 -64.723448 
L 338.336897 -62.706924 
L 338.316917 -60.718564 
L 339.495753 -57.175566 
L 344.311 -52.303239 
L 345.979353 -48.827834 
L 345.979353 -48.816568 
L 347.617736 -42.54732 
L 347.274786 -40.830302 
L 346.538801 -37.145515 
L 342.972321 -33.557455 
L 337.09812 -32.661848 
L 335.389806 -33.495495 
L 332.322833 -36.154151 
L 330.6345 -36.863878 
L 329.175939 -36.447054 
L 329.405713 -35.021969 
L 329.405713 -33.411003 
L 327.327764 -32.408374 
L 328.47663 -30.94386 
L 328.576531 -29.152646 
L 327.77732 -27.907809 
L 326.268809 -28.099322 
L 325.239825 -29.597633 
L 324.960101 -31.366316 
L 324.420633 -32.960383 
L 322.602428 -33.951747 
L 319.715278 -33.411003 
L 313.561352 -29.344159 
L 310.714162 -27.958504 
L 306.038777 -27.355799 
L 304.510286 -27.468454 
L 300.234506 -28.752721 
L 298.486232 -28.685128 
L 294.979693 -27.451556 
L 293.171478 -27.31637 
L 291.89274 -28.454185 
L 289.674929 -33.326512 
L 288.765827 -34.723434 
L 287.367207 -35.140257 
L 283.461063 -35.376832 
L 282.122384 -35.157155 
L 280.39409 -33.951747 
L 279.395076 -32.245024 
L 278.615845 -30.26793 
L 277.48696 -28.251406 
L 276.248182 -27.000936 
L 274.749662 -25.998307 
L 273.121269 -25.254785 
L 271.512857 -24.809798 
L 269.524819 -24.75347 
L 268.16616 -25.294214 
L 265.31897 -27.051631 
L 262.002244 -27.834583 
L 255.129028 -27.676866 
L 251.732381 -28.099322 
L 248.845231 -28.076791 
L 244.080997 -25.872972 
L 243.560447 -25.632179 
L 237.480223 -25.27581 
L 215.498147 -23.987416 
L 203.000483 -25.406869 
L 192.121221 -31.112842 
L 183.170057 -37.584869 
L 179.903281 -38.114348 
L 177.945214 -37.460949 
L 176.556584 -36.340032 
L 175.267856 -35.021969 
L 173.679424 -33.799663 
L 171.896184 -33.202592 
L 168.3347 -33.34341 
L 166.57144 -33.191326 
L 163.334635 -31.073413 
L 160.897041 -24.499996 
L 158.479428 -22.280694 
L 154.803057 -21.22737 
L 143.793923 -20.151515 
L 137.689948 -18.50112 
L 135.592019 -18.298341 
L 134.612985 -18.450425 
L 132.644928 -19.064395 
L 132.527036 -19.083172 
L 131.760801 -19.205214 
L 131.396161 -19.385462 
L 130.62692 -20.083922 
L 130.232309 -20.117719 
L 129.727807 -19.68963 
L 129.528005 -19.126355 
L 129.488044 -18.630673 
L 129.438093 -18.388465 
L 129.443088 -18.15189 
L 129.293236 -17.515389 
L 128.988537 -16.788765 
L 128.523996 -16.264919 
L 128.174341 -16.259287 
L 127.245258 -16.653579 
L 126.860637 -16.732437 
L 123.014434 -16.698641 
L 122.47135 -16.786758 
L 120.93149 -17.036606 
L 115.751603 -19.357298 
L 113.633693 -19.458687 
L 110.257026 -18.044868 
L 108.468791 -18.011071 
L 107.279965 -18.963005 
L 108.823441 -21.970893 
L 108.618643 -23.869129 
L 106.176054 -25.84059 
L 102.349831 -27.310738 
L 98.378751 -27.981034 
L 92.334717 -27.25441 
L 88.898109 -29.039991 
L 85.182138 -31.651135 
L 82.549375 -33.501127 
L 78.538335 -32.41964 
L 77.204651 -32.4816 
L 75.970869 -32.363312 
L 74.941884 -31.540931 
L 73.942871 -30.498873 
L 72.803995 -29.732819 
L 70.096667 -29.000562 
L 67.369359 -28.73019 
L 61.904753 -29.045624 
L 58.852766 -29.913067 
L 57.494107 -31.507135 
L 56.709881 -33.726437 
L 55.391182 -36.45832 
L 53.862691 -38.165042 
L 51.609915 -39.860499 
L 49.197296 -40.958885 
L 47.139327 -40.84623 
L 46.220235 -40.164668 
L 45.13131 -39.854867 
L 43.992434 -39.973154 
L 42.983429 -40.575858 
L 42.3041 -41.679877 
L 42.31409 -42.733201 
L 42.463942 -43.865383 
L 42.224179 -45.200344 
L 40.50088 -47.318257 
L 38.547808 -47.087315 
L 36.679652 -45.481982 
L 35.191121 -43.431661 
L 34.601703 -48.816568 
L 34.601703 -48.827834 
L 34.601703 -54.781648 
L 34.137161 -57.581124 
L 32.863419 -60.048267 
L 30.700553 -61.698662 
L 24.641534 -64.937492 
L 23.724211 -65.617138 
L 23.432727 -65.833099 
L 24.241929 -68.976172 
L 25.78041 -72.552967 
L 27.858359 -75.63408 
L 30.305943 -77.329537 
L 36.130194 -78.850379 
L 37.54988 -79.952129 
L 38.37298 -80.590898 
L 39.117246 -83.7734 
L 41.323932 -85.443977 
L 44.7697 -85.15615 
L 46.811636 -83.42919 
L 49.236436 -85.443977 
L 47.704983 -88.034417 
L 46.04591 -92.207903 
L 44.793999 -96.591963 
L 45.421282 -99.185627 
L 46.257659 -101.484556 
L 47.87814 -103.076122 
L 47.595868 -103.659121 
L 47.128365 -104.624694 
L 46.910464 -105.80414 
L 47.433425 -107.18016 
L 48.827988 -107.966457 
L 50.00465 -109.293334 
L 49.78675 -110.47278 
L 51.094152 -112.143662 
L 52.750195 -112.487667 
L 53.360316 -114.158548 
L 54.449818 -115.681999 
L 55.713641 -116.51744 
L 58.372025 -117.598599 
L 59.417947 -117.352881 
L 59.757531 -117.281081 
L 60.115229 -117.20545 
L 61.07399 -116.763158 
L 61.573816 -116.39812 
L 61.835184 -117.753899 
L 64.605683 -121.939129 
L 68.683022 -129.012756 
L 70.460323 -133.433773 
L 71.265513 -137.430955 
L 74.532289 -139.582664 
L 78.473399 -141.402042 
L 82.004913 -144.108577 
L 85.301659 -148.499304 
L 89.867187 -157.142706 
L 90.216807 -157.804603 
L 90.236787 -157.804603 
L 92.494559 -161.778507 
L 93.873198 -163.589435 
L 95.47162 -165.065215 
L 97.404712 -165.791839 
L 99.307834 -167.307048 
L 103.798401 -173.055267 
L 105.53169 -174.145204 
L 107.309935 -174.708479 
L 118.908487 -176.809494 
L 122.584858 -178.476787 
L 124.303162 -181.571982 
L 125.002472 -183.315317 
L 126.471022 -184.560155 
L 129.727807 -186.627373 
L 130.586959 -187.582124 
L 132.07549 -189.691588 
L 132.934642 -190.620991 
L 133.968621 -191.144837 
L 134.712887 -190.809688 
L 138.078188 -192.78005 
L 141.596093 -191.978483 
L 143.439273 -193.045889 
L 145.262474 -193.327526 
L 153.034499 -196.009644 
L 158.12601 -194.933113 
L 160.989984 -193.497737 
L 163.21752 -193.856581 
L 165.445055 -196.368488 
L 167.990811 -197.445019 
L 171.491224 -194.933113 
L 171.491224 -190.985831 
L 174.358754 -186.866765 
L 178.035125 -186.261244 
L 180.401367 -190.985831 
L 183.583561 -190.985831 
L 186.447535 -189.191612 
L 190.266168 -189.191612 
L 195.039459 -185.603175 
L 199.176311 -185.244331 
L 202.994944 -183.808956 
L 203.949602 -180.220518 
L 201.085627 -179.143987 
L 199.176311 -175.55555 
L 195.994117 -175.196706 
L 193.130142 -171.967112 
L 192.121221 -166.26499 
" style="stroke: #000000"/>
    </defs>
    <g clip-path="url(#p585ee1154e)">
     <use xlink:href="#ma9dc923beb" x="0" y="213.704305" style="fill: #f5f5f5; stroke: #000000"/>
    </g>
   </g>
  </g>
 </g>
 <defs>
  <clipPath id="p585ee1154e">
   <rect x="7.2" y="7.2" width="357.12" height="199.304305"/>
  </clipPath>
 </defs>
</svg>
