<?xml version="1.0" encoding="utf-8" standalone="no"?>
<!DOCTYPE svg PUBLIC "-//W3C//DTD SVG 1.1//EN"
  "http://www.w3.org/Graphics/SVG/1.1/DTD/svg11.dtd">
<svg xmlns:xlink="http://www.w3.org/1999/xlink" width="250.184472pt" height="280.512pt" viewBox="0 0 250.184472 280.512" xmlns="http://www.w3.org/2000/svg" version="1.1">
 <metadata>
  <rdf:RDF xmlns:dc="http://purl.org/dc/elements/1.1/" xmlns:cc="http://creativecommons.org/ns#" xmlns:rdf="http://www.w3.org/1999/02/22-rdf-syntax-ns#">
   <cc:Work>
    <dc:type rdf:resource="http://purl.org/dc/dcmitype/StillImage"/>
    <dc:date>2024-03-04T13:11:09.366460</dc:date>
    <dc:format>image/svg+xml</dc:format>
    <dc:creator>
     <cc:Agent>
      <dc:title>Matplotlib v3.8.0, https://matplotlib.org/</dc:title>
     </cc:Agent>
    </dc:creator>
   </cc:Work>
  </rdf:RDF>
 </metadata>
 <defs>
  <style type="text/css">*{stroke-linejoin: round; stroke-linecap: butt}</style>
 </defs>
 <g id="figure_1">
  <g id="patch_1">
   <path d="M 0 280.512 
L 250.184472 280.512 
L 250.184472 0 
L 0 0 
z
" style="fill: #ffffff"/>
  </g>
  <g id="axes_1">
   <g id="PatchCollection_1">
    <defs>
     <path id="mf7cee188fb" d="M 20.665241 -117.961938 
L 20.665157 -117.982918 
L 20.696025 -119.290067 
L 20.64246 -119.93702 
L 20.445451 -120.47804 
L 20.190793 -120.807192 
L 19.842169 -121.166611 
L 19.133573 -121.734114 
L 18.857126 -121.832481 
L 17.953958 -121.952484 
L 17.917476 -121.957332 
L 18.217528 -122.424576 
L 18.491252 -123.440407 
L 18.685084 -123.837659 
L 18.763161 -123.862251 
L 19.065483 -123.911434 
L 19.172612 -123.945485 
L 20.122248 -124.813765 
L 20.665157 -125.182642 
L 21.144514 -125.371809 
L 21.647931 -125.466393 
L 22.117301 -125.644211 
L 22.493615 -126.081188 
L 22.57714 -126.370615 
L 22.493615 -126.486007 
L 22.365605 -126.542758 
L 22.308409 -126.648692 
L 22.360612 -126.826509 
L 22.473642 -126.947577 
L 23.22627 -127.395904 
L 23.434627 -127.641822 
L 23.900366 -128.657653 
L 25.683431 -130.56068 
L 25.925833 -130.948474 
L 26.259477 -131.937822 
L 26.422894 -132.198873 
L 26.703881 -132.374799 
L 27.332584 -132.435333 
L 27.658057 -132.514783 
L 28.681231 -133.048236 
L 28.975382 -133.269562 
L 29.266356 -133.64979 
L 29.48016 -133.929758 
L 29.009427 -134.591845 
L 28.921818 -134.896405 
L 28.965396 -135.4658 
L 28.943607 -136.534598 
L 28.979921 -136.907258 
L 29.136984 -137.22506 
L 29.596368 -137.798238 
L 30.182401 -138.099015 
L 32.159296 -138.889736 
L 32.551952 -139.515881 
L 32.373555 -140.009609 
L 31.969097 -140.285794 
L 31.05396 -140.656563 
L 30.338101 -141.449176 
L 29.942268 -141.693202 
L 29.448385 -141.526734 
L 28.87597 -141.706444 
L 28.68577 -141.723469 
L 28.493301 -141.655368 
L 28.152848 -141.390534 
L 27.954478 -141.305408 
L 27.504172 -141.305408 
L 27.084734 -141.447284 
L 26.705697 -141.685635 
L 26.378862 -141.967495 
L 25.767863 -142.741191 
L 25.372938 -143.739997 
L 24.627119 -145.627891 
L 23.879485 -147.513893 
L 23.133213 -149.399896 
L 22.38467 -151.28779 
L 22.171774 -151.828809 
L 22.071908 -152.377396 
L 22.227154 -152.924091 
L 23.365174 -154.662542 
L 23.458231 -155.020069 
L 23.503625 -155.387054 
L 23.593505 -155.746473 
L 23.822743 -156.075625 
L 24.000232 -156.173992 
L 24.480498 -156.338568 
L 24.603515 -156.41991 
L 24.612593 -156.578811 
L 24.409683 -157.123614 
L 24.511365 -157.418716 
L 24.791898 -157.79516 
L 25.130989 -158.105395 
L 25.716114 -158.309696 
L 25.952615 -159.015292 
L 26.293522 -159.037992 
L 26.707967 -159.009617 
L 26.98396 -159.234726 
L 27.024815 -159.569553 
L 26.609008 -159.981939 
L 26.174591 -160.608084 
L 25.890426 -160.888052 
L 24.844555 -161.676882 
L 24.556759 -161.973875 
L 23.546295 -163.538292 
L 23.252598 -163.816369 
L 22.874922 -164.173896 
L 22.763254 -164.491698 
L 22.841331 -164.8322 
L 23.129127 -165.518879 
L 23.165896 -165.660754 
L 23.09145 -167.158963 
L 23.116871 -167.472981 
L 23.277111 -167.720791 
L 23.67022 -167.962926 
L 24.645731 -168.239111 
L 24.924902 -168.403687 
L 25.167304 -168.931465 
L 25.278519 -171.277145 
L 25.504126 -171.63278 
L 25.85048 -171.668722 
L 26.24949 -171.583596 
L 26.633067 -171.572246 
L 26.736565 -171.776547 
L 26.68527 -172.620235 
L 26.74065 -172.936146 
L 26.847325 -173.019379 
L 27.146924 -173.09883 
L 27.27221 -173.161255 
L 27.965372 -173.972785 
L 28.306733 -174.228161 
L 29.448385 -174.875115 
L 29.797916 -175.206158 
L 29.721201 -175.573144 
L 29.480614 -175.938238 
L 29.342617 -176.265498 
L 29.324006 -176.972985 
L 29.350788 -177.326729 
L 29.448385 -177.642639 
L 29.891881 -177.964224 
L 30.481999 -178.11745 
L 31.669498 -178.272567 
L 32.008135 -178.643336 
L 31.930058 -179.284615 
L 31.493825 -180.510422 
L 31.383972 -181.14035 
L 31.28229 -181.424102 
L 31.099354 -181.687045 
L 30.158796 -182.316974 
L 29.925926 -182.651801 
L 29.819251 -183.240112 
L 29.816527 -183.905983 
L 29.749799 -184.526453 
L 29.448385 -184.991806 
L 29.220962 -185.693618 
L 29.200081 -185.941428 
L 29.260909 -186.236529 
L 29.346249 -186.452181 
L 29.346249 -186.662157 
L 29.15151 -186.934558 
L 28.202781 -187.717713 
L 27.841901 -188.245491 
L 28.087935 -188.66166 
L 28.317173 -188.68436 
L 28.853273 -188.585993 
L 29.053459 -188.623826 
L 29.207798 -188.824344 
L 29.211883 -189.038103 
L 29.178292 -189.268888 
L 29.219146 -189.520481 
L 29.356235 -189.730457 
L 29.727556 -190.140951 
L 29.878717 -190.375519 
L 30.033963 -190.814389 
L 30.140638 -191.268391 
L 30.075725 -191.682668 
L 30.280451 -195.256047 
L 30.030332 -196.695614 
L 29.98403 -197.434314 
L 30.116126 -199.602176 
L 30.084602 -199.865156 
L 29.86873 -201.665996 
L 29.862375 -202.451042 
L 29.961333 -202.863428 
L 30.515137 -203.304189 
L 30.703066 -203.746841 
L 30.915963 -204.089235 
L 31.302263 -204.034376 
L 31.524239 -204.550804 
L 31.795239 -204.931031 
L 32.152941 -205.178841 
L 33.601908 -205.581768 
L 33.735366 -205.744452 
L 34.142547 -206.563549 
L 33.96642 -206.765958 
L 33.398091 -206.926751 
L 33.235127 -207.098893 
L 33.256008 -207.397778 
L 33.423511 -207.662613 
L 33.66546 -207.870698 
L 34.189757 -208.160124 
L 34.439422 -208.390909 
L 34.641878 -208.661419 
L 34.787138 -208.939495 
L 34.893359 -209.304589 
L 34.995949 -209.472948 
L 35.173892 -209.552399 
L 35.082347 -209.718479 
L 34.647325 -210.507696 
L 32.814328 -213.821915 
L 30.981784 -217.136134 
L 29.147424 -220.450352 
L 27.31488 -223.764571 
L 25.481429 -227.07879 
L 23.647523 -230.3949 
L 21.816341 -233.709119 
L 19.982436 -237.021446 
L 19.920246 -237.133055 
L 19.856695 -237.246556 
L 19.793144 -237.361948 
L 19.730954 -237.475449 
L 19.668311 -237.588949 
L 19.603852 -237.700558 
L 19.542117 -237.812167 
L 19.478565 -237.925668 
L 20.791805 -237.870809 
L 21.485875 -237.944585 
L 22.670651 -238.241578 
L 23.248059 -238.148886 
L 23.836361 -237.978635 
L 24.470057 -237.876484 
L 25.466449 -237.914318 
L 26.841878 -237.745959 
L 27.49237 -237.590841 
L 28.100192 -237.653266 
L 28.373916 -237.602191 
L 29.679438 -237.021446 
L 29.758424 -237.008204 
L 29.918663 -237.008204 
L 29.99674 -237.021446 
L 30.409823 -237.044146 
L 31.240528 -236.807687 
L 31.664051 -236.752828 
L 32.105278 -236.860654 
L 32.583728 -237.046038 
L 33.058546 -237.15008 
L 33.587382 -236.989288 
L 33.884711 -236.83417 
L 33.597369 -236.410434 
L 33.392643 -235.967782 
L 33.295501 -235.494863 
L 33.368585 -234.745758 
L 33.421695 -234.575507 
L 33.563324 -234.479032 
L 33.872455 -234.469573 
L 36.377733 -234.993568 
L 36.864354 -235.247053 
L 37.776767 -235.926165 
L 38.528487 -236.185325 
L 38.822638 -236.232617 
L 39.119513 -236.232617 
L 39.422743 -236.17965 
L 39.672408 -236.253425 
L 40.230751 -236.78877 
L 40.549415 -236.960913 
L 41.377396 -237.044146 
L 41.681534 -237.17278 
L 42.04196 -237.437615 
L 42.375149 -237.783792 
L 42.671116 -238.173478 
L 42.912611 -238.572622 
L 43.372903 -239.650878 
L 43.618937 -240.000838 
L 44.607612 -241.086661 
L 45.225874 -242.285984 
L 45.475539 -242.584869 
L 45.884991 -242.878079 
L 46.426083 -243.148589 
L 46.718419 -243.243173 
L 47.015294 -243.281007 
L 47.514624 -243.195881 
L 49.608182 -243.298032 
L 49.86965 -243.258307 
L 50.122947 -243.184531 
L 50.457952 -242.984013 
L 51.148844 -242.424077 
L 51.485666 -242.284093 
L 52.083955 -242.442994 
L 52.375382 -242.970772 
L 52.535168 -243.632859 
L 52.7349 -244.181445 
L 52.925554 -244.385746 
L 53.458476 -244.839749 
L 53.680905 -245.114042 
L 54.026805 -245.677762 
L 54.222906 -245.921788 
L 54.492545 -246.17149 
L 54.835721 -246.279315 
L 55.46397 -246.597117 
L 56.186638 -246.84871 
L 56.540708 -247.077603 
L 56.848478 -247.376488 
L 57.092696 -247.715098 
L 57.169865 -247.923183 
L 57.17622 -248.072626 
L 57.221614 -248.210718 
L 57.414083 -248.373402 
L 57.574777 -248.422586 
L 58.351009 -248.435828 
L 58.553465 -248.469878 
L 58.740487 -248.537978 
L 58.873037 -248.651479 
L 58.901181 -248.827405 
L 58.800407 -249.226549 
L 58.828551 -249.387341 
L 59.080032 -249.519759 
L 59.481312 -249.587859 
L 60.210335 -249.614343 
L 60.528999 -249.565159 
L 61.218983 -249.3741 
L 61.518582 -249.375991 
L 61.736472 -249.506517 
L 61.867206 -249.708926 
L 61.968887 -249.917011 
L 62.097806 -250.066454 
L 62.273025 -250.128879 
L 62.64253 -250.147796 
L 62.83046 -250.183737 
L 63.633928 -250.652873 
L 66.473759 -253.651182 
L 68.793377 -255.491784 
L 69.127474 -255.673385 
L 70.561008 -256.24278 
L 70.735319 -256.356281 
L 70.827923 -256.505723 
L 70.868777 -256.708133 
L 70.93142 -256.895409 
L 71.042181 -257.041068 
L 71.231019 -257.107277 
L 73.304603 -257.479937 
L 74.375894 -257.39292 
L 74.729965 -257.440212 
L 75.071326 -257.566954 
L 75.801257 -257.992582 
L 76.090415 -258.107974 
L 77.81129 -258.378484 
L 78.133585 -258.501443 
L 78.67831 -258.868428 
L 78.982447 -259.000846 
L 79.952057 -259.104888 
L 80.018332 -259.070838 
L 80.084606 -258.995171 
L 80.160868 -258.923287 
L 80.255741 -258.906262 
L 80.344712 -258.972471 
L 80.468637 -259.191905 
L 80.540359 -259.246764 
L 80.803643 -259.299731 
L 80.896246 -259.278922 
L 81.114136 -259.19758 
L 81.580329 -258.92707 
L 81.814107 -258.864645 
L 82.149566 -258.942204 
L 82.935331 -259.441607 
L 83.263981 -259.539974 
L 83.573567 -259.560782 
L 83.820508 -259.534299 
L 84.538183 -259.358373 
L 84.748356 -259.348914 
L 84.95989 -259.46809 
L 85.247232 -259.780217 
L 85.289448 -259.651583 
L 85.364348 -259.492682 
L 85.456951 -259.348914 
L 85.555456 -259.273247 
L 85.732945 -259.301622 
L 85.780608 -259.464307 
L 85.777431 -259.661041 
L 85.79922 -259.797242 
L 85.94221 -260.156661 
L 86.046615 -260.241786 
L 86.158284 -259.999651 
L 86.197777 -259.821834 
L 86.243624 -259.685633 
L 86.329872 -259.587266 
L 86.492382 -259.522949 
L 87.154676 -259.8067 
L 87.427492 -259.821834 
L 87.361217 -259.405665 
L 87.298574 -259.176772 
L 87.372112 -259.121913 
L 87.51374 -259.138938 
L 87.654007 -259.120021 
L 87.70167 -259.131372 
L 87.890508 -259.201364 
L 87.972216 -259.210822 
L 88.083431 -259.15218 
L 88.240039 -258.963012 
L 88.331734 -258.88167 
L 88.851946 -258.524143 
L 89.106605 -258.395509 
L 89.427538 -258.321734 
L 89.640889 -258.334975 
L 89.72169 -258.416317 
L 89.762544 -258.537385 
L 89.853331 -258.671694 
L 89.875574 -258.726553 
L 89.887831 -258.906262 
L 89.921876 -258.978146 
L 90.012663 -259.031113 
L 90.223744 -259.070838 
L 90.29365 -259.104888 
L 90.495652 -259.337564 
L 90.66951 -259.604291 
L 90.740324 -259.774542 
L 90.815224 -260.056402 
L 90.926893 -260.222869 
L 91.727183 -260.91144 
L 91.962323 -261.187625 
L 92.126648 -261.216 
L 92.587848 -261.210325 
L 92.908328 -261.089258 
L 93.391317 -260.65228 
L 93.645067 -260.084777 
L 93.685922 -260.022352 
L 93.926054 -259.205147 
L 94.097189 -259.002737 
L 94.338229 -258.787086 
L 94.552942 -258.546843 
L 94.645545 -258.2612 
L 94.567014 -257.835573 
L 94.186614 -257.092143 
L 94.044986 -256.694891 
L 93.982797 -255.955245 
L 94.051341 -255.202358 
L 94.20568 -254.50622 
L 94.53206 -253.554707 
L 94.604236 -253.165021 
L 94.645545 -252.372408 
L 94.685945 -252.18324 
L 94.861165 -251.759505 
L 94.896572 -251.570337 
L 94.839376 -251.398194 
L 94.535692 -250.923383 
L 94.355479 -250.024837 
L 94.141221 -249.601101 
L 93.487551 -249.275732 
L 93.237886 -248.92388 
L 93.045417 -248.509603 
L 92.967128 -248.179646 
L 92.965524 -248.172884 
L 92.994576 -248.031009 
L 93.023628 -247.970475 
L 93.096712 -247.911833 
L 92.680905 -247.134354 
L 92.427154 -246.878977 
L 91.995006 -246.788177 
L 91.995006 -246.663326 
L 92.206995 -246.339849 
L 92.246034 -246.218782 
L 92.227876 -246.129873 
L 92.144352 -245.959622 
L 92.126648 -245.849905 
L 92.141628 -245.694787 
L 92.182482 -245.505619 
L 92.242402 -245.344827 
L 92.310947 -245.276726 
L 92.359518 -245.079992 
L 92.246941 -244.17577 
L 92.246034 -243.901477 
L 92.546086 -243.559083 
L 92.859302 -243.358565 
L 93.10579 -243.101297 
L 93.205656 -242.579194 
L 93.184775 -242.257609 
L 93.05268 -241.55958 
L 92.78985 -240.727242 
L 92.878368 -240.488891 
L 93.570622 -240.299723 
L 93.888832 -240.074614 
L 94.153477 -239.78897 
L 94.296467 -239.516569 
L 94.405412 -237.95026 
L 94.452168 -237.848109 
L 94.550672 -237.74785 
L 94.63692 -237.607866 
L 94.645545 -237.380865 
L 94.577454 -237.221964 
L 94.460338 -237.114138 
L 94.31644 -237.015771 
L 94.165279 -236.881462 
L 93.892463 -236.452051 
L 93.879753 -236.126683 
L 93.979165 -235.812664 
L 94.044986 -235.432437 
L 93.908805 -235.101394 
L 93.230169 -234.556591 
L 92.965524 -234.244464 
L 92.905604 -233.794245 
L 93.133026 -233.508601 
L 93.429447 -233.29295 
L 93.575615 -233.047032 
L 93.469394 -232.768955 
L 93.24878 -232.623296 
L 93.073107 -232.418995 
L 93.096712 -231.972559 
L 93.32141 -231.637732 
L 93.682744 -231.367223 
L 94.018204 -231.174271 
L 94.165279 -231.053204 
L 94.101728 -230.820528 
L 93.795321 -230.449759 
L 93.685922 -230.235999 
L 93.667764 -230.054398 
L 93.698632 -229.903064 
L 94.28648 -228.332972 
L 94.762206 -227.814652 
L 95.375475 -227.986795 
L 95.806262 -227.748444 
L 95.988744 -227.581976 
L 96.10586 -227.3493 
L 96.10586 -227.16959 
L 95.971949 -226.840439 
L 95.97558 -226.600196 
L 96.048664 -226.354277 
L 96.131281 -226.299419 
L 96.257475 -226.297527 
L 96.46674 -226.214293 
L 96.843962 -225.95135 
L 96.958808 -225.786774 
L 96.546179 -225.64679 
L 96.503509 -225.478431 
L 96.575231 -225.02632 
L 96.538916 -224.846611 
L 96.382308 -224.570426 
L 96.345993 -224.396391 
L 96.354164 -223.728629 
L 96.453576 -223.475144 
L 96.69507 -223.202743 
L 97.011011 -222.9625 
L 97.238887 -222.901966 
L 97.3787 -223.072217 
L 97.475842 -223.961306 
L 97.546656 -224.19209 
L 97.654239 -224.339641 
L 97.90799 -224.413416 
L 97.959739 -224.241274 
L 97.905267 -223.826996 
L 98.157655 -223.577295 
L 98.476319 -223.444878 
L 98.748681 -223.268952 
L 98.911191 -222.673073 
L 99.139521 -222.270146 
L 99.224861 -222.067736 
L 99.242565 -221.889919 
L 99.211697 -221.51915 
L 99.224861 -221.339441 
L 99.30884 -220.949755 
L 99.40689 -220.783288 
L 99.585287 -220.69627 
L 99.645207 -220.692487 
L 99.819973 -220.609253 
L 99.933457 -220.416302 
L 99.962055 -220.191193 
L 99.88534 -220.011483 
L 99.643391 -219.659631 
L 99.613432 -219.326696 
L 99.734633 -219.037269 
L 99.94526 -218.817835 
L 100.191293 -218.677851 
L 100.469557 -218.604075 
L 101.215375 -218.568133 
L 101.578525 -218.492466 
L 101.947122 -218.358157 
L 102.323436 -218.295732 
L 102.714275 -218.443283 
L 102.928988 -218.341132 
L 103.250829 -218.276815 
L 103.545888 -218.153856 
L 103.674352 -217.881454 
L 103.756969 -217.510686 
L 103.966234 -217.1664 
L 104.524576 -216.55728 
L 104.39475 -216.303796 
L 104.476459 -216.103278 
L 104.672106 -216.006802 
L 104.885002 -216.067336 
L 104.931304 -216.214887 
L 104.990316 -216.701048 
L 105.05886 -216.806982 
L 105.348018 -216.83914 
L 105.408846 -216.73699 
L 105.49464 -216.43243 
L 105.49464 -216.281095 
L 105.371623 -216.055986 
L 105.36436 -215.933027 
L 105.417924 -215.836551 
L 105.571809 -215.681434 
L 105.604039 -215.619008 
L 105.788337 -215.437407 
L 106.215038 -215.178247 
L 107.043473 -214.796129 
L 107.260909 -214.769645 
L 107.720293 -214.76397 
L 107.833777 -214.739378 
L 108.120665 -214.499135 
L 108.482907 -214.308076 
L 108.50288 -214.364826 
L 108.504696 -214.406443 
L 108.529209 -214.429143 
L 108.785683 -214.393201 
L 108.871023 -214.366718 
L 109.158366 -214.115125 
L 109.228272 -213.971357 
L 109.24416 -213.759489 
L 109.223732 -213.352779 
L 109.133853 -212.957418 
L 108.817459 -212.223447 
L 108.864214 -211.911321 
L 108.972251 -211.837545 
L 109.358552 -211.697561 
L 109.518792 -211.604869 
L 109.667229 -211.432726 
L 109.872862 -211.044932 
L 110.004504 -210.853873 
L 110.242367 -210.60228 
L 110.516545 -210.379062 
L 110.849735 -210.222053 
L 111.263725 -210.161519 
L 111.975953 -210.295828 
L 112.238782 -210.225836 
L 112.417179 -209.650766 
L 112.580597 -209.611041 
L 112.7481 -209.648874 
L 112.83344 -209.684816 
L 112.956911 -209.766158 
L 113.152104 -209.974243 
L 113.312797 -210.048018 
L 113.687749 -210.078285 
L 113.998242 -209.987485 
L 114.251993 -209.819125 
L 114.741337 -209.287564 
L 114.925182 -209.225139 
L 115.101309 -209.399173 
L 115.363685 -209.786967 
L 115.633777 -209.467273 
L 116.687819 -209.431332 
L 117.067764 -208.905445 
L 117.395507 -208.948954 
L 117.952942 -209.160822 
L 118.183542 -209.085155 
L 118.346959 -208.924362 
L 118.539428 -208.790053 
L 118.852645 -208.78627 
L 119.065087 -208.969762 
L 119.182203 -209.132447 
L 119.280253 -209.310264 
L 119.872187 -210.059368 
L 119.877635 -210.161519 
L 120.181772 -210.203136 
L 120.719234 -210.380954 
L 120.958005 -210.422571 
L 123.481895 -210.048018 
L 123.532736 -209.995051 
L 124.488727 -209.48619 
L 125.221381 -208.867612 
L 125.511901 -208.720061 
L 125.897748 -208.661419 
L 126.121085 -208.653852 
L 126.320817 -208.621694 
L 126.5033 -208.546027 
L 126.671256 -208.411717 
L 126.80199 -208.2112 
L 126.832858 -208.027707 
L 126.843752 -207.853673 
L 126.911843 -207.673963 
L 127.057103 -207.547221 
L 127.213257 -207.496146 
L 127.339452 -207.416695 
L 127.3912 -207.212394 
L 127.457475 -207.091327 
L 128.127486 -206.586249 
L 128.517872 -206.487882 
L 128.722144 -206.400864 
L 129.232369 -205.992262 
L 129.452074 -205.901462 
L 130.69223 -205.912812 
L 130.891963 -205.963887 
L 130.960961 -206.100088 
L 131.125286 -206.257097 
L 131.49116 -206.525715 
L 131.571053 -206.544632 
L 131.77714 -206.514365 
L 131.86248 -206.525715 
L 131.943281 -206.603274 
L 132.021358 -206.809467 
L 132.102159 -206.900267 
L 132.586964 -207.115918 
L 132.635989 -207.149969 
L 132.84026 -207.110243 
L 133.188884 -206.939992 
L 133.719083 -206.803792 
L 133.899749 -206.555982 
L 134.021405 -205.901462 
L 134.09585 -205.784178 
L 134.210242 -205.689594 
L 134.273794 -205.587443 
L 134.139428 -205.373684 
L 134.120363 -205.269641 
L 134.139428 -205.165599 
L 134.195716 -205.082365 
L 134.586102 -204.734297 
L 134.778572 -204.514862 
L 134.861188 -204.327586 
L 134.912937 -203.924659 
L 135.051842 -203.574698 
L 135.247942 -203.304189 
L 135.47128 -203.139613 
L 135.661025 -203.071512 
L 135.82535 -203.054487 
L 135.976965 -203.096104 
L 136.125857 -203.202038 
L 136.28655 -203.264463 
L 136.37643 -203.139613 
L 136.434534 -202.96747 
L 137.357842 -201.745446 
L 137.407775 -201.626271 
L 137.494931 -201.539254 
L 137.690124 -201.505203 
L 137.867159 -201.493853 
L 137.998801 -201.454128 
L 138.082325 -201.361436 
L 138.110469 -201.202535 
L 138.196717 -200.905542 
L 138.420962 -200.650165 
L 138.72964 -200.434514 
L 139.070092 -200.254805 
L 139.101868 -200.618007 
L 139.290706 -200.718266 
L 139.582133 -200.714482 
L 139.92077 -200.765557 
L 140.146831 -200.911217 
L 140.325682 -201.056876 
L 140.542664 -201.087143 
L 140.879485 -200.879058 
L 141.047442 -200.727724 
L 141.162742 -200.583956 
L 141.229925 -200.417489 
L 141.270779 -199.982403 
L 141.332514 -199.897278 
L 142.862282 -199.22384 
L 143.949915 -199.255999 
L 144.311249 -199.193574 
L 144.550928 -199.019539 
L 145.034825 -198.436903 
L 145.073863 -198.349885 
L 145.095652 -198.166393 
L 145.154664 -198.130451 
L 145.397975 -198.145584 
L 145.460618 -198.130451 
L 145.759308 -197.9375 
L 145.897305 -197.886424 
L 146.719839 -197.789949 
L 146.955886 -197.816432 
L 147.150171 -197.99425 
L 147.50515 -197.846699 
L 147.798394 -197.912908 
L 148.052598 -198.052892 
L 148.711715 -198.226926 
L 148.889658 -198.243951 
L 149.075772 -198.200443 
L 149.549683 -197.869399 
L 149.576011 -198.289352 
L 149.753046 -198.236385 
L 150.14888 -197.755899 
L 150.336809 -197.684015 
L 150.489332 -197.72374 
L 150.591014 -197.697257 
L 150.629145 -197.43053 
L 150.630053 -196.203777 
L 150.683617 -195.889759 
L 150.862469 -195.640058 
L 151.240144 -195.360089 
L 152.015469 -194.488026 
L 152.259687 -194.359392 
L 152.277844 -194.281833 
L 152.548391 -193.848639 
L 152.644625 -193.78243 
L 153.038643 -193.598938 
L 153.337333 -193.390853 
L 154.189827 -192.54149 
L 154.371402 -192.407181 
L 154.715486 -192.22558 
L 154.848944 -192.098838 
L 154.91431 -191.95507 
L 155.276552 -190.731155 
L 155.480824 -190.551445 
L 155.873933 -190.485237 
L 156.219833 -190.55712 
L 156.572088 -190.683863 
L 156.92162 -190.740613 
L 157.259349 -190.598737 
L 157.599802 -190.808714 
L 158.001082 -190.965723 
L 158.436862 -191.065982 
L 159.683827 -191.183266 
L 159.755047 -191.170546 
L 159.842705 -191.154891 
L 160.320701 -190.697105 
L 160.497282 -190.598737 
L 161.329803 -190.413353 
L 162.11466 -190.494695 
L 162.875004 -190.780338 
L 164.065227 -191.410267 
L 164.334866 -191.389458 
L 164.602689 -191.27785 
L 165.233661 -191.162457 
L 165.605889 -190.927889 
L 165.807437 -190.848439 
L 165.994913 -190.848439 
L 166.396194 -190.975181 
L 167.554641 -190.931673 
L 167.726683 -191.037606 
L 167.827457 -191.404592 
L 168.088471 -191.578626 
L 168.838829 -191.692127 
L 168.906012 -191.764011 
L 169.118 -191.896428 
L 169.344515 -191.94372 
L 169.449374 -191.760227 
L 169.449374 -191.016798 
L 169.787557 -190.649813 
L 170.562882 -190.507937 
L 171.416283 -190.449295 
L 171.988244 -190.326336 
L 172.313263 -190.006642 
L 172.446267 -189.91395 
L 173.653285 -189.388064 
L 174.995461 -188.314346 
L 176.275679 -187.290194 
L 176.883955 -186.95915 
L 177.287959 -186.872133 
L 177.401443 -186.819166 
L 177.467264 -186.735932 
L 177.560321 -186.516498 
L 177.638398 -186.433264 
L 177.79773 -186.353813 
L 179.123226 -186.028445 
L 179.439166 -185.84306 
L 179.568539 -185.500667 
L 179.606215 -185.008831 
L 179.708351 -184.505644 
L 179.857696 -184.032725 
L 180.037909 -183.637365 
L 180.180446 -183.484139 
L 180.563569 -183.15877 
L 180.59716 -183.050945 
L 180.511366 -182.86556 
L 180.619857 -182.75206 
L 180.790083 -182.674501 
L 180.896304 -182.602617 
L 180.940336 -182.449391 
L 180.926718 -182.337782 
L 180.776465 -181.989714 
L 180.54995 -181.130892 
L 180.373823 -180.735531 
L 180.06106 -180.459347 
L 179.636629 -180.338279 
L 179.515882 -180.245587 
L 179.423733 -179.997777 
L 179.351103 -179.581608 
L 179.328406 -179.165439 
L 179.385602 -178.921413 
L 179.618926 -178.510919 
L 179.625735 -178.045566 
L 179.562183 -177.548055 
L 179.58488 -177.048652 
L 179.761008 -176.713825 
L 180.716545 -175.906079 
L 180.867252 -175.607194 
L 181.124635 -174.457054 
L 181.702497 -173.157472 
L 181.796915 -172.395126 
L 181.256276 -172.20785 
L 181.545888 -171.611971 
L 182.401106 -171.01231 
L 182.617634 -170.611274 
L 182.668475 -169.500859 
L 182.737927 -168.000759 
L 182.807833 -166.500659 
L 182.878647 -165.000559 
L 182.9481 -163.500459 
L 183.002572 -162.314377 
L 182.911785 -162.098726 
L 180.903113 -162.074134 
L 177.513566 -162.030625 
L 178.440505 -161.209637 
L 179.657964 -159.736021 
L 181.556329 -157.441416 
L 183.166897 -155.492988 
L 183.413839 -155.086278 
L 183.561823 -154.639842 
L 183.792877 -151.917718 
L 184.106093 -148.227056 
L 184.338509 -145.510607 
L 184.457894 -143.547046 
L 184.583635 -141.473767 
L 184.919548 -140.690613 
L 185.461549 -140.539279 
L 186.681278 -140.49577 
L 190.02634 -140.372811 
L 193.37231 -140.251744 
L 196.71828 -140.130676 
L 200.063796 -140.007717 
L 203.409311 -139.88665 
L 206.755735 -139.763691 
L 210.099435 -139.640732 
L 213.445859 -139.519665 
L 214.715067 -139.474264 
L 215.109992 -139.52534 
L 215.472234 -139.708832 
L 215.60206 -139.882867 
L 215.846278 -140.334978 
L 215.976104 -140.423886 
L 216.735087 -140.40497 
L 216.913938 -140.242285 
L 217.002002 -138.460325 
L 216.926648 -138.20684 
L 216.514474 -137.862555 
L 216.491777 -137.544753 
L 216.859466 -136.876991 
L 216.623418 -136.211121 
L 214.870314 -134.205943 
L 214.575255 -133.647898 
L 214.441797 -133.023644 
L 214.505348 -132.231032 
L 214.863959 -130.850107 
L 214.922062 -130.138836 
L 214.883932 -130.010202 
L 214.72687 -129.684834 
L 214.681476 -129.512691 
L 214.687831 -129.29704 
L 214.862143 -128.387143 
L 215.163557 -127.832882 
L 215.281581 -127.501838 
L 215.381447 -126.223064 
L 215.472234 -125.941204 
L 215.659256 -125.619619 
L 215.741873 -125.218584 
L 215.767293 -123.580391 
L 215.867159 -122.888037 
L 216.1831 -122.343234 
L 216.841308 -121.981924 
L 217.395111 -121.91004 
L 217.571239 -121.857073 
L 217.744643 -121.749247 
L 218.058767 -121.486304 
L 218.232171 -121.376587 
L 218.379247 -121.331187 
L 218.664319 -121.282003 
L 218.811395 -121.198769 
L 219.010219 -120.932043 
L 219.294384 -120.326706 
L 219.56947 -120.122405 
L 219.81278 -120.058088 
L 220.012512 -120.033496 
L 220.204982 -119.978637 
L 220.431042 -119.829195 
L 220.911308 -119.299525 
L 221.102869 -119.157649 
L 221.724763 -118.889031 
L 221.936297 -118.771747 
L 222.700727 -118.141818 
L 223.204598 -117.922384 
L 223.870977 -117.755916 
L 224.536449 -117.710516 
L 225.040319 -117.858067 
L 225.442507 -117.926167 
L 225.747553 -117.880767 
L 226.139754 -117.721866 
L 226.380341 -117.470273 
L 226.555561 -117.061671 
L 226.599139 -116.607668 
L 226.576442 -116.176366 
L 226.611849 -115.877481 
L 226.604586 -115.173777 
L 226.640901 -114.833275 
L 226.780713 -114.504123 
L 226.963196 -114.261988 
L 227.185625 -114.044445 
L 227.440738 -113.868519 
L 227.720363 -113.751235 
L 227.570564 -113.168599 
L 227.635023 -112.969972 
L 227.950963 -112.576504 
L 228.206076 -112.131959 
L 228.171577 -111.802808 
L 227.621405 -111.747949 
L 229.258302 -108.910433 
L 230.161637 -106.683928 
L 230.766281 -105.569731 
L 231.467159 -105.168695 
L 231.826678 -105.168695 
L 232.110842 -105.123295 
L 232.266996 -104.945477 
L 232.247023 -104.546333 
L 231.035919 -104.529308 
L 230.717255 -104.455533 
L 230.491195 -104.243665 
L 230.205214 -103.33566 
L 229.379049 -100.723253 
L 228.553792 -98.112738 
L 227.728534 -95.502223 
L 226.901461 -92.891709 
L 226.703544 -92.267455 
L 227.408054 -92.208813 
L 227.591445 -92.055587 
L 227.665891 -91.690494 
L 227.767573 -90.606562 
L 227.871978 -89.812058 
L 226.886935 -89.736391 
L 226.586428 -89.54344 
L 226.181517 -88.705427 
L 225.635884 -87.574204 
L 224.432043 -85.084756 
L 223.230018 -82.595309 
L 222.68257 -81.464086 
L 222.68257 -81.462194 
L 222.681662 -81.460302 
L 222.465588 -81.0063 
L 221.992586 -80.009386 
L 221.518675 -79.01058 
L 221.302601 -78.558469 
L 220.689786 -77.268345 
L 220.82506 -76.753809 
L 222.156911 -75.556377 
L 223.574102 -74.281387 
L 225.343549 -72.688594 
L 225.167421 -72.454026 
L 224.967689 -72.157033 
L 224.713484 -71.88274 
L 224.321283 -71.699247 
L 223.877332 -71.810856 
L 223.596799 -71.844906 
L 223.470605 -71.755997 
L 223.425211 -71.597096 
L 223.304464 -71.455221 
L 223.13106 -71.35307 
L 222.93042 -71.313345 
L 222.486469 -71.135527 
L 221.939021 -70.354264 
L 221.481453 -70.176447 
L 221.364337 -70.11213 
L 221.152802 -69.796219 
L 221.060199 -69.688394 
L 220.835954 -69.57111 
L 220.089682 -69.302492 
L 220.076971 -69.779194 
L 220.336623 -70.747733 
L 220.364767 -71.129852 
L 220.341163 -71.901656 
L 220.387464 -72.308367 
L 220.32936 -72.881545 
L 220.029762 -73.929535 
L 219.994355 -74.515955 
L 220.047919 -75.121291 
L 219.990723 -75.382343 
L 219.80007 -75.594211 
L 219.111901 -76.016055 
L 217.472281 -77.016752 
L 215.834476 -78.019341 
L 214.195763 -79.020038 
L 212.557958 -80.022627 
L 210.918338 -81.023325 
L 209.279625 -82.024022 
L 207.640005 -83.026611 
L 206.0022 -84.0292 
L 205.116115 -84.57022 
L 204.61406 -84.923964 
L 204.087493 -85.292841 
L 203.737962 -85.379858 
L 202.311692 -85.360941 
L 199.002491 -85.317432 
L 195.692382 -85.275816 
L 192.383181 -85.232307 
L 189.072164 -85.19069 
L 187.63046 -85.171773 
L 184.984461 -84.606162 
L 179.037886 -83.334955 
L 173.091765 -82.063747 
L 167.146098 -80.790648 
L 161.199523 -79.519441 
L 160.822755 -79.462691 
L 159.992504 -79.33784 
L 159.163615 -79.21299 
L 158.785939 -79.156239 
L 157.222126 -78.921671 
L 156.941593 -78.806279 
L 156.800873 -78.588736 
L 156.469499 -77.688298 
L 155.975615 -76.345207 
L 155.481732 -75.000224 
L 154.987848 -73.65335 
L 154.493057 -72.308367 
L 154.265181 -71.835448 
L 154.03912 -71.362528 
L 153.927954 -71.132746 
L 153.811243 -70.891501 
L 153.585183 -70.418581 
L 153.291939 -69.981604 
L 152.999604 -69.546518 
L 152.708176 -69.109541 
L 152.415841 -68.672563 
L 151.63053 -67.558365 
L 150.845219 -66.446059 
L 150.059 -65.331861 
L 149.273689 -64.219555 
L 148.90631 -63.698434 
L 148.522877 -63.15454 
L 147.882826 -62.201135 
L 147.733934 -61.713082 
L 147.753908 -60.048406 
L 147.773881 -58.438588 
L 147.79567 -56.679329 
L 147.829143 -54.013933 
L 147.829261 -54.004497 
L 147.762079 -52.803282 
L 147.196473 -50.922954 
L 146.62542 -49.027493 
L 146.008974 -46.984482 
L 145.368015 -44.854453 
L 144.767002 -42.913592 
L 143.9481 -40.26146 
L 143.308048 -38.188182 
L 142.541803 -35.70441 
L 142.075155 -34.073784 
L 141.581272 -32.341007 
L 141.179992 -31.427327 
L 141.028377 -31.478402 
L 140.978444 -31.608928 
L 140.953931 -31.773504 
L 140.879485 -31.93808 
L 140.671582 -32.153731 
L 139.92077 -32.675834 
L 139.089158 -33.069303 
L 138.841308 -33.322788 
L 138.710574 -33.646265 
L 138.707851 -34.225118 
L 138.589827 -34.448336 
L 138.637944 -34.59967 
L 138.638852 -34.781271 
L 138.527184 -35.471733 
L 138.474527 -35.643876 
L 138.224862 -35.702518 
L 137.461339 -35.842502 
L 134.863004 -35.706301 
L 134.853925 -35.70441 
L 129.329058 -35.734676 
L 123.80419 -35.764943 
L 123.128732 -35.651443 
L 122.846383 -35.498217 
L 122.029296 -34.792621 
L 121.829564 -34.88153 
L 121.10508 -35.507675 
L 120.751917 -35.662793 
L 119.113205 -35.770618 
L 118.642926 -35.685493 
L 118.389629 -35.579559 
L 118.330617 -35.520917 
L 118.321538 -35.413091 
L 118.153582 -35.002597 
L 118.090031 -34.646962 
L 118.029203 -34.501303 
L 117.89393 -34.366994 
L 117.759564 -34.302677 
L 117.637909 -34.266735 
L 117.545306 -34.200526 
L 117.391875 -33.901641 
L 117.121329 -32.87446 
L 116.572519 -31.523803 
L 116.435884 -31.319501 
L 116.083175 -31.132225 
L 115.953803 -30.997916 
L 114.64828 -27.693156 
L 114.223849 -27.093494 
L 113.316883 -26.261156 
L 113.062224 -25.822287 
L 112.304149 -23.07368 
L 112.293255 -21.755181 
L 112.1371 -21.399545 
L 111.724925 -19.992137 
L 111.753977 -19.759461 
L 111.427143 -19.910795 
L 111.35996 -20.765833 
L 111.14434 -21.02121 
L 111.279159 -21.458187 
L 111.21924 -21.955698 
L 110.98637 -22.362409 
L 110.603701 -22.530768 
L 110.411232 -22.680211 
L 109.944584 -23.656316 
L 109.769819 -23.786842 
L 109.611849 -23.845484 
L 109.49791 -23.951418 
L 109.453425 -24.22382 
L 109.471582 -24.431904 
L 109.555106 -24.789431 
L 109.573264 -24.972924 
L 109.641355 -25.17155 
L 109.787068 -25.334234 
L 109.917348 -25.52151 
L 109.944584 -25.79202 
L 108.970436 -26.7284 
L 108.717593 -27.065119 
L 108.613641 -27.48318 
L 108.547366 -27.592897 
L 108.232334 -27.793415 
L 108.134284 -27.927724 
L 108.138823 -28.113108 
L 108.275458 -28.466852 
L 108.253215 -28.665478 
L 108.018984 -28.867888 
L 107.650387 -29.117589 
L 107.419333 -29.437282 
L 107.594099 -29.864802 
L 107.821067 -30.129636 
L 107.942268 -30.383121 
L 107.933189 -30.676331 
L 107.773858 -31.050883 
L 107.626782 -31.268426 
L 107.158319 -31.824579 
L 106.994448 -31.93808 
L 106.641739 -32.01753 
L 106.247721 -32.210482 
L 105.912716 -32.452616 
L 105.539126 -32.507475 
L 105.391596 -32.554767 
L 105.254507 -32.530175 
L 104.930396 -32.392083 
L 104.768794 -32.363707 
L 104.076087 -32.526392 
L 102.843647 -33.20172 
L 99.542617 -33.950825 
L 96.55404 -33.916213 
L 91.865634 -33.861916 
L 90.93234 -33.964066 
L 89.712611 -34.136209 
L 89.560996 -34.121076 
L 89.474748 -34.051084 
L 89.396671 -33.96785 
L 89.265937 -33.905424 
L 86.818762 -33.631131 
L 86.279485 -33.795707 
L 85.765628 -34.147559 
L 83.514555 -36.733482 
L 83.131432 -36.943458 
L 81.514508 -37.219643 
L 81.422813 -37.31801 
L 81.21491 -38.207099 
L 80.672001 -38.776494 
L 79.910749 -39.151046 
L 78.423651 -39.61829 
L 78.115428 -39.518031 
L 77.280183 -36.506481 
L 77.111319 -34.798296 
L 77.035058 -34.529678 
L 76.927928 -34.308352 
L 76.88889 -34.287543 
L 76.814444 -34.331052 
L 76.592923 -34.302677 
L 76.442216 -34.211876 
L 76.306035 -34.062434 
L 76.197544 -33.884616 
L 76.126276 -33.712473 
L 75.700483 -33.39278 
L 73.366338 -32.736368 
L 71.320898 -32.193456 
L 71.253715 -32.106439 
L 71.206506 -31.968347 
L 71.152941 -31.851063 
L 71.06397 -31.828363 
L 70.775266 -31.922947 
L 70.431182 -31.964563 
L 70.236897 -32.026989 
L 70.046243 -32.044014 
L 69.80838 -31.939972 
L 69.403468 -31.59947 
L 69.175592 -31.236268 
L 69.048489 -30.808749 
L 68.840586 -29.448633 
L 68.713484 -29.034355 
L 68.487423 -28.761954 
L 68.443845 -28.610619 
L 68.550067 -28.08095 
L 68.539172 -27.891782 
L 68.33944 -27.759365 
L 66.368445 -27.161595 
L 65.899982 -26.923243 
L 65.544095 -26.554366 
L 65.374323 -26.304665 
L 65.147355 -26.155222 
L 64.876808 -26.094689 
L 64.488238 -26.13063 
L 64.18864 -26.117389 
L 64.335715 -24.414879 
L 64.295769 -24.015735 
L 64.101484 -23.737658 
L 62.774172 -22.721828 
L 62.256683 -22.124058 
L 61.35698 -20.669358 
L 55.798975 -19.505976 
L 55.151661 -19.383017 
L 53.927847 -19.296 
L 51.21058 -19.453009 
L 50.645882 -19.636502 
L 50.510609 -19.765136 
L 50.128394 -20.342098 
L 50.042146 -20.328856 
L 49.367595 -20.461273 
L 49.178758 -20.733675 
L 49.101588 -21.206594 
L 49.104312 -22.619677 
L 49.67718 -25.343693 
L 49.66901 -25.70122 
L 49.133364 -26.7284 
L 48.983565 -27.638297 
L 48.830134 -28.029874 
L 48.156491 -29.234873 
L 48.040284 -29.60375 
L 48.034836 -29.968844 
L 48.34079 -31.111417 
L 48.319909 -31.467052 
L 48.161939 -31.905921 
L 47.668963 -32.596384 
L 47.60632 -32.793118 
L 47.664424 -32.965261 
L 47.886853 -33.271713 
L 47.94768 -33.43818 
L 47.886853 -33.835432 
L 47.676226 -34.276193 
L 47.367549 -34.663987 
L 47.015294 -34.896663 
L 46.1628 -35.70441 
L 45.741546 -36.078962 
L 45.578129 -36.296505 
L 45.504591 -36.561339 
L 45.304859 -39.569107 
L 44.939894 -40.984081 
L 43.846813 -42.923051 
L 43.708816 -43.554871 
L 43.791433 -48.009771 
L 43.549031 -48.817517 
L 39.881219 -54.757384 
L 39.604318 -55.027894 
L 39.220287 -55.12437 
L 38.481278 -55.090319 
L 38.231612 -55.116803 
L 37.856558 -55.34522 
L 37.44267 -55.597289 
L 37.146703 -56.357743 
L 37.132177 -58.728015 
L 37.26745 -59.155534 
L 37.528918 -59.530086 
L 38.733667 -60.555375 
L 38.745469 -60.890202 
L 38.231612 -61.308263 
L 37.773136 -61.493647 
L 36.94697 -62.019534 
L 35.151195 -62.865114 
L 34.764441 -63.156432 
L 34.375871 -63.553684 
L 34.006366 -64.054979 
L 33.748076 -64.614915 
L 33.684525 -65.176743 
L 33.883803 -65.657229 
L 34.279636 -65.963681 
L 35.274666 -66.309858 
L 34.580143 -67.52999 
L 34.379502 -68.13911 
L 34.400384 -68.854164 
L 34.488447 -69.378159 
L 34.435791 -69.561651 
L 33.860199 -69.686502 
L 33.325461 -70.021329 
L 33.270534 -70.373181 
L 33.570133 -70.683416 
L 35.724972 -71.332262 
L 36.265157 -71.385228 
L 36.517546 -71.343612 
L 36.70366 -71.286861 
L 36.858907 -71.30767 
L 37.016877 -71.493054 
L 37.101309 -71.68033 
L 37.249292 -72.308367 
L 37.270174 -72.665894 
L 37.626968 -73.519041 
L 37.680533 -73.781984 
L 37.656928 -73.895484 
L 37.586114 -74.005202 
L 37.505313 -74.256795 
L 37.488063 -74.797815 
L 37.470814 -74.926449 
L 37.337356 -75.174258 
L 37.166676 -75.297217 
L 36.626491 -75.520435 
L 36.322353 -75.73987 
L 35.769458 -76.322506 
L 34.925135 -76.967568 
L 34.801664 -77.196461 
L 34.840703 -77.531288 
L 35.067671 -77.900165 
L 35.800325 -78.541444 
L 36.10991 -78.878163 
L 37.062791 -80.293823 
L 37.846674 -81.458411 
L 37.846674 -81.460302 
L 38.231612 -81.995647 
L 38.474922 -82.237782 
L 39.182156 -82.5518 
L 39.331048 -82.672867 
L 39.201222 -83.024719 
L 38.892544 -83.389813 
L 38.530303 -83.728423 
L 36.652819 -85.075298 
L 36.026386 -85.309866 
L 35.541581 -85.620101 
L 34.924227 -86.681332 
L 34.523854 -87.118309 
L 32.869708 -88.554092 
L 32.308188 -88.943778 
L 31.475213 -89.22753 
L 31.234173 -89.384539 
L 31.037618 -89.643699 
L 30.625443 -90.606562 
L 30.299516 -91.187307 
L 30.083896 -91.429442 
L 29.809264 -91.60726 
L 30.3322 -92.314747 
L 30.473828 -92.653357 
L 30.479729 -93.056285 
L 30.423441 -93.245452 
L 29.448385 -95.290356 
L 29.441575 -95.303597 
L 29.439306 -95.318731 
L 29.441575 -95.331973 
L 29.570948 -95.577891 
L 29.607262 -95.821917 
L 29.5655 -96.069727 
L 29.448385 -96.306186 
L 29.032124 -97.043941 
L 28.874154 -97.940596 
L 28.895035 -98.884543 
L 29.013513 -99.760389 
L 29.022592 -100.176558 
L 28.894127 -100.553002 
L 28.259523 -101.631258 
L 28.188255 -101.930143 
L 28.233649 -102.927057 
L 28.203235 -103.089741 
L 27.944491 -103.865329 
L 27.925426 -104.026122 
L 27.92361 -104.217181 
L 27.86369 -104.642809 
L 27.682569 -104.941694 
L 27.146016 -105.511089 
L 26.895897 -106.364235 
L 27.414293 -106.897688 
L 28.059337 -107.410333 
L 28.190979 -108.199162 
L 28.1811 -108.215733 
L 28.009404 -108.503722 
L 27.796508 -108.496155 
L 27.520514 -108.384546 
L 27.152371 -108.367521 
L 26.85595 -108.460214 
L 26.571786 -108.585064 
L 26.039771 -108.910433 
L 25.624873 -109.012583 
L 25.501402 -109.059875 
L 25.377023 -109.173376 
L 25.022952 -109.589545 
L 24.749682 -109.525228 
L 24.531339 -109.35876 
L 24.313903 -109.366327 
L 24.042448 -109.816546 
L 23.884024 -110.484308 
L 23.870406 -111.831183 
L 23.754652 -112.485703 
L 23.312518 -113.335066 
L 22.691078 -114.034987 
L 21.267985 -115.292952 
L 20.893033 -115.860456 
L 20.735063 -116.524434 
L 20.665241 -117.961938 
" style="stroke: #000000"/>
    </defs>
    <g clip-path="url(#p7049816153)">
     <use xlink:href="#mf7cee188fb" x="0" y="280.512" style="fill: #f5f5f5; stroke: #000000"/>
    </g>
   </g>
  </g>
 </g>
 <defs>
  <clipPath id="p7049816153">
   <rect x="7.2" y="7.2" width="235.784472" height="266.112"/>
  </clipPath>
 </defs>
</svg>
