<?xml version="1.0" encoding="utf-8" standalone="no"?>
<!DOCTYPE svg PUBLIC "-//W3C//DTD SVG 1.1//EN"
  "http://www.w3.org/Graphics/SVG/1.1/DTD/svg11.dtd">
<svg xmlns:xlink="http://www.w3.org/1999/xlink" width="361.627812pt" height="280.512pt" viewBox="0 0 361.627812 280.512" xmlns="http://www.w3.org/2000/svg" version="1.1">
 <metadata>
  <rdf:RDF xmlns:dc="http://purl.org/dc/elements/1.1/" xmlns:cc="http://creativecommons.org/ns#" xmlns:rdf="http://www.w3.org/1999/02/22-rdf-syntax-ns#">
   <cc:Work>
    <dc:type rdf:resource="http://purl.org/dc/dcmitype/StillImage"/>
    <dc:date>2024-03-04T13:11:09.478820</dc:date>
    <dc:format>image/svg+xml</dc:format>
    <dc:creator>
     <cc:Agent>
      <dc:title>Matplotlib v3.8.0, https://matplotlib.org/</dc:title>
     </cc:Agent>
    </dc:creator>
   </cc:Work>
  </rdf:RDF>
 </metadata>
 <defs>
  <style type="text/css">*{stroke-linejoin: round; stroke-linecap: butt}</style>
 </defs>
 <g id="figure_1">
  <g id="patch_1">
   <path d="M 0 280.512 
L 361.627812 280.512 
L 361.627812 0 
L 0 0 
z
" style="fill: #ffffff"/>
  </g>
  <g id="axes_1">
   <g id="PatchCollection_1">
    <path d="M 288.913131 53.864507 
L 289.059404 59.187482 
L 291.191334 61.35615 
L 294.281434 62.821953 
L 297.275717 64.858458 
L 303.096603 73.142648 
L 318.235697 117.044653 
L 319.241777 122.559437 
L 318.882462 126.584388 
L 317.01403 135.775694 
L 316.894258 144.924949 
L 318.187789 154.735016 
L 321.22998 163.872256 
L 326.571781 171.003028 
L 334.716231 178.680472 
L 338.069828 183.654591 
L 338.64473 188.472517 
L 335.291133 192.143032 
L 330.212829 191.950796 
L 324.847074 189.601906 
L 320.655078 186.796455 
L 318.618966 186.039524 
L 314.163473 186.219746 
L 311.744092 185.192482 
L 308.126998 182.146736 
L 306.186703 181.449879 
L 299.263921 182.146736 
L 294.425159 181.10145 
L 281.22636 176.193412 
L 278.160215 174.132878 
L 276.315736 170.834821 
L 273.537042 147.922636 
L 270.83021 138.761367 
L 263.260663 120.655094 
L 261.248504 111.638002 
L 260.314288 92.726739 
L 261.93697 74.295044 
L 266.184873 78.669824 
L 270.428738 75.945213 
L 275.012113 70.808185 
L 280.19906 68.055192 
L 285.216252 66.995621 
L 285.367145 64.28047 
L 283.386675 60.638194 
L 282.028638 56.759407 
L 282.537902 54.971381 
L 284.046831 54.063177 
L 286.215918 53.788824 
L 288.837684 53.864507 
L 288.913131 53.864507 
" clip-path="url(#p3e7f2db0ba)" style="fill: #f5f5f5; stroke: #000000"/>
    <path d="M 250.793787 58.386605 
L 245.510553 63.681009 
L 244.767971 67.255406 
L 244.576337 71.142187 
L 243.067218 74.692555 
L 239.378262 76.969356 
L 235.306037 77.065474 
L 231.042178 76.344587 
L 226.802273 76.116306 
L 221.604198 77.546065 
L 217.412202 80.183309 
L 209.938472 87.332103 
L 206.009973 89.813155 
L 197.506209 93.387552 
L 195.514388 95.233149 
L 195.230554 95.496146 
L 195.086828 99.334868 
L 196.811536 103.648174 
L 201.290983 112.226726 
L 202.632421 117.032638 
L 203.422912 122.186978 
L 204.548763 149.358402 
L 205.93811 157.864866 
L 210.082197 164.34684 
L 214.633507 166.004879 
L 218.058967 165.440185 
L 219.783674 166.575581 
L 219.256681 173.231769 
L 217.124751 182.038603 
L 215.400044 185.931391 
L 212.9088 189.890261 
L 207.32807 195.288595 
L 205.866247 196.702641 
L 204.500854 198.847279 
L 204.64458 203.617147 
L 211.878767 200.667518 
L 212.669258 204.722506 
L 210.992459 208.993761 
L 205.698567 216.917508 
L 204.069677 221.441072 
L 202.776147 231.040881 
L 201.003532 234.447071 
L 179.684237 254.848167 
L 168.761093 261.216 
L 159.227296 260.11064 
L 158.077492 258.272379 
L 156.352784 252.505285 
L 155.226934 250.120351 
L 153.382456 248.348171 
L 148.471832 244.881907 
L 133.90764 231.38931 
L 130.601951 226.931827 
L 128.326296 222.384233 
L 123.511489 207.68415 
L 120.589069 204.614373 
L 116.301256 204.362063 
L 106.815368 206.068162 
L 96.682714 204.061694 
L 88.777807 203.503006 
L 87.699865 201.37639 
L 87.292643 197.898112 
L 88.035225 196.534434 
L 91.26905 193.704954 
L 92.035587 191.470205 
L 90.454606 181.089435 
L 87.292643 176.31356 
L 87.292643 169.831587 
L 85.496073 163.319576 
L 84.13068 160.766435 
L 81.687345 158.06311 
L 80.920809 156.543241 
L 80.70522 154.710987 
L 80.178226 153.16108 
L 78.501428 152.512282 
L 74.932243 152.416164 
L 73.494987 151.713299 
L 71.722371 146.949439 
L 68.991585 145.165244 
L 63.290471 142.978554 
L 55.720923 137.067283 
L 50.834254 134.514142 
L 38.138494 132.561741 
L 22.983082 125.328795 
L 81.605012 127.29657 
L 98.976569 123.99487 
L 114.990088 114.960134 
L 137.869239 106.701156 
L 145.942015 103.787335 
L 150.808314 98.990884 
L 154.373161 92.2645 
L 162.747722 83.750089 
L 190.757235 61.413952 
L 199.452444 56.135017 
L 238.439423 32.464955 
L 268.429406 20.014995 
L 274.238787 19.296 
L 278.614684 20.998882 
L 278.954193 24.026228 
L 275.577962 26.410263 
L 268.335098 29.6552 
L 266.411212 32.786611 
L 262.563441 42.029477 
L 261.884422 44.810851 
L 260.318907 47.999025 
L 253.113767 54.687567 
L 250.793787 58.386605 
" clip-path="url(#p3e7f2db0ba)" style="fill: #f5f5f5; stroke: #000000"/>
   </g>
  </g>
 </g>
 <defs>
  <clipPath id="p3e7f2db0ba">
   <rect x="7.2" y="7.2" width="347.227812" height="266.112"/>
  </clipPath>
 </defs>
</svg>
