<?xml version="1.0" encoding="utf-8" standalone="no"?>
<!DOCTYPE svg PUBLIC "-//W3C//DTD SVG 1.1//EN"
  "http://www.w3.org/Graphics/SVG/1.1/DTD/svg11.dtd">
<svg xmlns:xlink="http://www.w3.org/1999/xlink" width="371.52pt" height="246.705156pt" viewBox="0 0 371.52 246.705156" xmlns="http://www.w3.org/2000/svg" version="1.1">
 <metadata>
  <rdf:RDF xmlns:dc="http://purl.org/dc/elements/1.1/" xmlns:cc="http://creativecommons.org/ns#" xmlns:rdf="http://www.w3.org/1999/02/22-rdf-syntax-ns#">
   <cc:Work>
    <dc:type rdf:resource="http://purl.org/dc/dcmitype/StillImage"/>
    <dc:date>2024-03-04T13:11:09.503370</dc:date>
    <dc:format>image/svg+xml</dc:format>
    <dc:creator>
     <cc:Agent>
      <dc:title>Matplotlib v3.8.0, https://matplotlib.org/</dc:title>
     </cc:Agent>
    </dc:creator>
   </cc:Work>
  </rdf:RDF>
 </metadata>
 <defs>
  <style type="text/css">*{stroke-linejoin: round; stroke-linecap: butt}</style>
 </defs>
 <g id="figure_1">
  <g id="patch_1">
   <path d="M 0 246.705156 
L 371.52 246.705156 
L 371.52 0 
L 0 0 
z
" style="fill: #ffffff"/>
  </g>
  <g id="axes_1">
   <g id="PatchCollection_1">
    <defs>
     <path id="m6fc0afbf72" d="M 230.324248 -51.300529 
L 228.329829 -51.108928 
L 227.241476 -51.431913 
L 226.571309 -52.008542 
L 225.193444 -53.61617 
L 224.764536 -53.888062 
L 224.01931 -53.94463 
L 222.882705 -52.829692 
L 220.041194 -52.738453 
L 218.652606 -52.349776 
L 217.258657 -51.192868 
L 216.87264 -51.024988 
L 216.518792 -51.004916 
L 216.170305 -50.895429 
L 215.816456 -50.486679 
L 215.526943 -49.608962 
L 215.494775 -48.587088 
L 215.639532 -47.587111 
L 215.886153 -46.760487 
L 216.117525 -46.409197 
L 216.502708 -45.824377 
L 217.242573 -45.468546 
L 217.971716 -45.322564 
L 218.566825 -45.032424 
L 219.011816 -44.492291 
L 219.312051 -43.897414 
L 219.789211 -42.094535 
L 219.82674 -41.561701 
L 219.74632 -40.448588 
L 219.837463 -39.974146 
L 220.126975 -39.729626 
L 220.941899 -39.576345 
L 221.231412 -39.244236 
L 221.494117 -38.3136 
L 221.563815 -37.507049 
L 221.483395 -36.711447 
L 221.295748 -35.817307 
L 220.689916 -35.178635 
L 220.598773 -34.704193 
L 221.134908 -33.459696 
L 221.354723 -33.138536 
L 222.073142 -32.441471 
L 222.233983 -32.014474 
L 222.14284 -31.445144 
L 221.880134 -31.280914 
L 221.553092 -31.160479 
L 221.279664 -30.733481 
L 220.700639 -28.974397 
L 219.901799 -27.182468 
L 219.301328 -26.211687 
L 218.979648 -26.029209 
L 218.598993 -26.127747 
L 214.165162 -25.073027 
L 213.494995 -24.729969 
L 212.111768 -23.773786 
L 210.937634 -23.189858 
L 210.363971 -23.116867 
L 209.666996 -23.25555 
L 208.943215 -23.262849 
L 207.651131 -22.573084 
L 206.911266 -22.416153 
L 205.908695 -22.843151 
L 204.386074 -24.576688 
L 203.228024 -25.029232 
L 202.697251 -24.817558 
L 200.761807 -23.474523 
L 198.960396 -23.33584 
L 198.376009 -23.127816 
L 197.738009 -22.646075 
L 197.368077 -22.266521 
L 197.014228 -22.018352 
L 196.429842 -21.930763 
L 195.936598 -22.073095 
L 194.853607 -22.730015 
L 194.34428 -22.912492 
L 189.765693 -23.237302 
L 189.063358 -22.992782 
L 188.661257 -22.324914 
L 188.323492 -21.54391 
L 187.867778 -20.963632 
L 187.358451 -20.759257 
L 186.95635 -20.803051 
L 186.548888 -20.934435 
L 186.010073 -20.985529 
L 184.68046 -20.748308 
L 175.979001 -17.850564 
L 174.761977 -17.759325 
L 173.561036 -17.956401 
L 172.553104 -18.580474 
L 170.344231 -21.697191 
L 169.347021 -22.562135 
L 169.138106 -22.66275 
L 167.202484 -23.594958 
L 166.998753 -23.835829 
L 166.596652 -24.536543 
L 166.441173 -24.71902 
L 166.178468 -24.72267 
L 165.326014 -24.536543 
L 156.849732 -28.229889 
L 155.262775 -29.237165 
L 154.5658 -29.324754 
L 154.051111 -29.215268 
L 152.96812 -28.821116 
L 150.952255 -28.675134 
L 150.791415 -27.73355 
L 150.93081 -26.503651 
L 150.485819 -25.478127 
L 149.456441 -25.525571 
L 148.325198 -26.562044 
L 146.566677 -28.890458 
L 145.553384 -29.824743 
L 144.604426 -30.288236 
L 143.585771 -30.441517 
L 142.390192 -30.441517 
L 142.706511 -31.145881 
L 140.899738 -31.116684 
L 140.192041 -31.295512 
L 139.393201 -32.054619 
L 139.355672 -32.313737 
L 139.484344 -33.094741 
L 139.425369 -33.445098 
L 139.227 -33.682319 
L 138.733756 -34.00348 
L 138.546109 -34.211504 
L 138.267319 -34.620254 
L 137.999252 -34.89762 
L 137.784799 -35.226079 
L 137.634681 -35.806358 
L 137.468479 -37.762518 
L 136.825118 -39.61284 
L 135.747488 -40.609168 
L 134.251674 -40.014291 
L 133.104347 -39.751523 
L 132.048162 -38.211413 
L 131.276129 -38.036234 
L 130.182415 -38.222361 
L 129.383575 -38.138422 
L 127.641139 -37.605587 
L 127.180063 -37.554493 
L 125.791476 -37.722373 
L 125.341123 -37.653031 
L 125.003358 -37.452306 
L 124.644148 -37.331871 
L 124.161628 -37.49975 
L 124.070485 -37.890252 
L 124.188434 -38.488778 
L 124.140182 -39.105553 
L 123.126888 -39.769771 
L 122.290519 -40.736902 
L 121.384452 -40.620117 
L 120.403327 -40.193119 
L 119.538658 -39.624706 
L 119.465092 -39.576345 
L 118.703781 -38.893879 
L 118.489327 -38.444984 
L 118.264151 -37.33552 
L 118.114033 -37.072752 
L 117.728017 -37.105598 
L 117.50284 -37.408511 
L 117.272303 -37.817261 
L 116.870202 -38.145721 
L 115.326135 -38.612863 
L 113.256657 -38.79899 
L 111.739397 -38.07273 
L 111.86807 -35.806358 
L 112.007464 -34.2407 
L 111.980658 -33.642174 
L 111.664339 -33.109339 
L 111.085314 -32.817375 
L 110.468759 -32.94146 
L 109.321432 -33.722464 
L 109.133785 -33.218826 
L 108.887163 -33.050947 
L 108.603012 -32.985255 
L 108.3135 -32.784529 
L 107.450323 -31.901338 
L 106.683651 -31.846594 
L 104.244241 -33.678669 
L 103.826056 -33.737062 
L 102.421384 -32.404976 
L 101.585015 -31.988927 
L 100.512746 -31.707911 
L 99.413671 -31.580177 
L 98.496882 -31.627621 
L 97.719487 -31.244418 
L 96.545353 -29.240815 
L 95.703622 -29.014542 
L 93.998715 -29.415993 
L 92.277725 -29.401395 
L 91.275154 -29.025491 
L 89.972347 -27.675157 
L 89.822488 -27.575213 
L 89.178869 -27.145972 
L 87.441794 -27.215314 
L 84.021257 -29.03279 
L 78.911898 -29.186071 
L 77.925411 -28.857612 
L 76.349176 -27.678807 
L 75.421664 -27.16057 
L 74.322589 -27.025537 
L 73.781093 -27.558371 
L 73.293211 -28.372221 
L 72.333531 -29.065636 
L 71.41138 -28.999944 
L 70.199717 -28.46711 
L 69.041667 -27.711653 
L 68.291079 -26.974443 
L 68.114154 -26.434309 
L 68.033734 -25.146018 
L 67.760306 -24.459902 
L 67.29923 -23.970862 
L 66.730928 -23.638753 
L 65.562156 -23.284746 
L 63.385451 -23.025628 
L 53.102396 -24.656978 
L 54.340866 -25.649656 
L 54.528513 -26.963494 
L 54.265807 -28.445212 
L 54.15858 -29.952477 
L 54.324782 -30.386774 
L 54.925252 -31.14953 
L 55.053925 -31.481639 
L 54.989588 -31.890389 
L 54.689353 -32.609351 
L 54.619656 -32.952409 
L 54.483356 -37.893771 
L 54.453454 -38.977818 
L 54.705437 -40.149324 
L 54.748328 -40.561724 
L 54.630378 -41.039815 
L 54.137135 -41.828118 
L 53.970933 -42.229569 
L 53.885152 -43.172978 
L 53.933404 -44.189378 
L 54.094244 -45.165633 
L 54.340866 -45.975834 
L 54.59821 -46.218529 
L 55.413134 -46.459399 
L 55.697286 -46.640052 
L 55.858126 -46.992234 
L 56.19589 -48.017758 
L 56.653521 -48.769492 
L 57.337856 -49.893627 
L 57.906159 -51.535926 
L 57.868629 -53.200121 
L 56.95184 -54.687313 
L 56.399621 -54.951906 
L 55.171874 -55.017598 
L 54.603572 -55.276716 
L 54.281891 -55.796777 
L 53.172093 -58.455475 
L 52.619875 -60.873303 
L 52.292833 -61.709051 
L 52.051573 -61.993716 
L 51.445741 -62.325825 
L 51.292523 -62.500079 
L 51.225926 -62.575819 
L 51.091892 -63.110478 
L 51.113338 -64.152425 
L 51.032918 -64.648764 
L 50.475338 -66.261866 
L 50.089322 -67.885917 
L 49.998179 -69.581133 
L 49.874868 -70.34024 
L 49.467406 -71.106646 
L 49.451322 -71.117595 
L 49.408431 -72.05188 
L 49.400821 -72.089956 
L 49.301204 -72.588364 
L 49.017053 -72.942371 
L 48.432667 -73.338347 
L 48.137793 -73.358419 
L 47.344314 -73.077404 
L 46.979743 -73.066455 
L 46.572281 -73.389441 
L 46.395357 -73.867532 
L 46.272046 -74.331025 
L 46.041508 -74.61569 
L 45.510735 -74.674083 
L 43.146383 -74.566421 
L 42.803257 -74.706929 
L 42.57272 -75.000718 
L 42.379711 -75.309105 
L 42.143812 -75.517129 
L 40.594384 -75.847414 
L 38.069198 -77.154966 
L 37.58131 -77.407597 
L 33.083144 -80.684894 
L 32.000152 -81.792533 
L 31.831946 -82.084509 
L 31.195951 -83.188487 
L 30.509699 -85.219462 
L 28.547448 -86.710304 
L 23.432727 -93.702845 
L 24.424576 -94.235679 
L 26.585197 -94.275825 
L 27.528793 -94.582387 
L 28.279381 -95.582364 
L 29.105028 -98.17537 
L 29.903867 -99.230091 
L 30.697346 -99.615119 
L 31.346069 -99.759276 
L 31.930455 -100.164376 
L 32.482673 -101.293912 
L 33.19037 -103.883269 
L 33.367295 -105.352214 
L 33.158202 -106.412408 
L 33.158202 -106.423357 
L 32.761463 -107.419685 
L 32.102018 -108.233535 
L 30.509699 -109.394092 
L 27.823667 -111.921407 
L 27.59849 -112.023594 
L 27.780776 -113.430496 
L 28.427948 -116.263577 
L 28.5957 -116.997933 
L 28.83696 -118.740594 
L 28.467028 -119.70955 
L 29.818086 -122.297082 
L 30.509699 -122.957651 
L 30.568674 -123.169325 
L 30.584758 -123.388298 
L 30.568674 -123.603621 
L 30.509699 -123.815295 
L 29.737666 -124.430245 
L 29.040691 -125.494089 
L 27.807583 -128.49767 
L 27.625297 -128.760438 
L 27.705717 -129.026855 
L 27.86397 -129.271308 
L 28.193599 -129.780488 
L 28.643952 -130.196536 
L 29.962842 -130.899075 
L 30.509699 -131.366218 
L 31.319262 -132.614364 
L 31.785699 -133.01764 
L 32.498757 -133.034063 
L 33.420908 -132.89173 
L 33.780118 -133.107054 
L 33.795208 -133.129439 
L 34.064269 -133.528577 
L 34.771966 -134.017617 
L 36.187361 -134.201919 
L 40.095779 -133.145374 
L 41.672014 -133.532227 
L 43.248249 -134.201919 
L 43.859442 -134.942778 
L 43.899954 -135.046936 
L 44.207929 -135.838743 
L 45.124718 -139.269322 
L 45.446399 -140.161637 
L 45.81097 -140.758339 
L 46.416802 -141.123294 
L 47.853642 -141.462702 
L 48.529171 -141.727295 
L 48.534532 -141.727295 
L 48.539894 -141.730944 
L 48.539894 -141.741893 
L 49.226145 -142.719973 
L 51.40285 -144.77832 
L 51.676279 -145.323928 
L 52.051573 -146.619519 
L 52.308917 -147.115858 
L 52.748547 -147.50636 
L 53.627807 -147.920584 
L 54.051353 -148.23262 
L 55.107538 -149.836598 
L 56.061857 -152.161363 
L 56.608714 -154.522623 
L 56.522145 -155.418911 
L 56.442512 -156.243386 
L 55.579336 -156.626589 
L 53.027337 -157.179496 
L 52.105186 -157.750651 
L 51.381405 -158.475087 
L 50.008901 -160.336358 
L 48.754347 -161.58633 
L 48.432667 -162.062596 
L 48.271826 -162.620978 
L 48.110986 -163.909269 
L 47.923339 -164.4713 
L 47.269255 -165.423833 
L 43.559207 -169.133603 
L 43.109626 -169.454709 
L 42.851509 -169.639066 
L 41.999056 -170.018619 
L 41.49509 -170.077012 
L 40.508603 -170.025918 
L 40.015359 -170.208396 
L 39.716171 -170.530646 
L 39.591813 -170.66459 
L 39.012788 -171.872591 
L 38.62141 -172.301413 
L 38.138889 -172.434622 
L 37.018369 -172.374404 
L 36.466151 -172.498489 
L 35.972907 -172.870743 
L 35.243765 -173.839699 
L 34.884555 -174.206479 
L 33.163564 -175.018505 
L 32.450505 -175.682723 
L 31.957262 -177.031232 
L 30.986859 -180.38882 
L 30.35422 -181.684411 
L 30.31133 -182.032943 
L 30.364943 -182.386949 
L 30.509699 -182.735482 
L 30.574035 -182.917959 
L 30.595481 -183.100437 
L 30.574035 -183.27379 
L 30.509699 -183.443495 
L 30.338136 -183.68619 
L 30.284523 -183.948957 
L 30.338136 -184.204426 
L 30.509699 -184.459895 
L 30.525783 -184.489091 
L 30.536506 -184.525587 
L 30.525783 -184.562082 
L 30.509699 -184.609526 
L 30.11296 -185.481769 
L 30.064708 -187.10217 
L 29.721582 -188.032806 
L 29.185448 -188.547393 
L 27.657465 -189.381315 
L 27.008743 -189.978017 
L 26.536945 -190.7207 
L 26.124121 -191.583819 
L 25.791718 -192.505331 
L 25.56118 -193.426843 
L 25.550458 -194.014421 
L 25.743466 -195.193226 
L 25.689852 -195.742484 
L 24.344155 -197.335513 
L 23.663265 -199.247878 
L 23.936693 -200.786164 
L 24.6015 -202.413864 
L 25.094743 -204.587172 
L 25.196609 -206.703912 
L 25.352088 -207.061568 
L 25.866777 -208.001327 
L 26.00081 -208.317014 
L 26.11876 -209.419178 
L 26.145566 -211.466577 
L 26.263516 -212.342469 
L 26.896154 -213.302301 
L 28.064927 -213.79864 
L 29.702342 -214.057739 
L 30.509699 -214.185493 
L 31.662388 -214.218339 
L 32.246774 -214.951898 
L 32.643513 -215.970123 
L 33.243984 -216.849665 
L 34.30553 -217.22192 
L 35.372437 -217.148929 
L 36.294588 -217.327757 
L 36.905781 -218.418973 
L 36.900419 -219.039396 
L 36.562655 -220.532063 
L 36.509041 -221.221828 
L 36.610907 -222.01743 
L 37.147041 -224.108623 
L 37.071982 -224.112273 
L 36.970117 -224.334896 
L 36.911142 -224.710799 
L 36.980839 -225.141447 
L 37.10415 -225.232685 
L 37.945881 -226.188868 
L 38.733998 -227.455262 
L 39.189712 -227.926054 
L 41.413198 -228.94583 
L 52.555539 -221.491895 
L 54.432009 -220.685344 
L 56.790999 -220.371483 
L 57.839996 -219.906908 
L 59.015957 -219.386104 
L 59.487755 -217.21462 
L 58.603133 -215.046787 
L 56.790999 -214.061408 
L 55.659756 -213.911776 
L 53.595639 -213.247558 
L 52.523371 -213.094277 
L 51.488632 -212.426409 
L 50.909607 -210.838854 
L 49.655053 -205.53788 
L 49.681859 -203.939376 
L 50.325221 -202.601816 
L 51.638749 -201.479579 
L 53.236429 -201.1055 
L 60.135142 -201.712513 
L 64.248627 -202.074456 
L 65.808777 -202.736849 
L 67.626272 -203.120052 
L 69.57244 -204.147401 
L 74.276012 -204.803859 
L 82.55225 -204.380972 
L 88.154852 -201.331772 
L 89.615343 -201.090328 
L 90.406616 -200.959518 
L 94.797555 -201.924824 
L 95.944883 -201.704026 
L 98.904344 -199.992386 
L 117.043922 -195.490621 
L 117.551092 -195.364755 
L 126.749553 -195.810613 
L 127.866315 -195.864743 
L 128.761659 -196.136635 
L 131.651423 -198.277097 
L 133.474279 -198.859201 
L 135.227438 -198.653001 
L 143.611653 -195.556779 
L 145.885787 -194.71696 
L 148.325198 -194.366603 
L 159.273059 -195.129359 
L 165.39035 -192.96335 
L 172.118835 -192.465186 
L 174.247288 -191.954249 
L 175.962531 -190.947531 
L 176.13448 -190.84661 
L 177.914446 -189.487152 
L 179.812361 -188.397761 
L 182.069486 -188.098498 
L 183.259704 -188.40506 
L 185.404241 -189.348469 
L 186.184087 -189.487288 
L 186.511359 -189.545545 
L 188.848904 -189.414161 
L 190.028399 -189.532771 
L 190.988079 -190.02911 
L 191.963844 -190.260857 
L 193.137978 -190.760845 
L 194.247776 -191.434188 
L 195.057338 -192.200594 
L 195.98485 -192.852039 
L 199.178453 -192.952501 
L 199.523336 -192.96335 
L 201.678596 -193.886687 
L 202.884898 -195.857444 
L 202.981402 -196.122037 
L 204.697032 -197.871997 
L 206.251821 -198.751539 
L 208.696593 -201.822637 
L 209.114778 -202.828088 
L 209.608021 -203.654711 
L 215.848624 -208.174681 
L 216.229279 -209.265897 
L 217.146069 -210.62718 
L 219.060068 -212.732971 
L 220.850756 -213.689154 
L 225.037965 -214.754823 
L 229.139392 -216.528505 
L 230.271176 -216.692135 
L 234.600342 -217.318032 
L 244.891016 -218.805825 
L 246.633452 -219.408001 
L 247.673552 -219.528436 
L 248.166796 -219.667119 
L 249.198854 -220.305791 
L 249.793963 -220.448123 
L 252.128828 -220.448123 
L 253.983852 -221.002855 
L 258.894842 -223.867753 
L 264.985327 -224.473579 
L 266.331024 -225.316625 
L 270.105409 -223.017408 
L 275.568617 -221.94079 
L 276.667692 -221.338614 
L 277.932968 -221.455399 
L 278.012358 -221.39511 
L 278.860481 -220.751036 
L 278.61654 -219.152532 
L 279.707573 -217.929933 
L 282.629504 -216.561351 
L 283.246059 -216.010268 
L 284.24863 -214.276731 
L 284.816932 -213.87893 
L 294.708609 -213.96287 
L 297.764574 -214.915403 
L 298.949431 -214.499354 
L 299.978808 -212.357067 
L 300.310593 -211.913047 
L 302.34316 -209.192906 
L 305.747613 -210.017705 
L 309.334351 -212.01036 
L 312.218753 -212.342469 
L 312.218753 -212.33517 
L 313.451862 -210.29872 
L 315.794768 -202.172993 
L 317.547927 -200.809886 
L 328.257209 -196.003426 
L 339.323019 -194.112959 
L 346.78282 -194.541336 
L 346.668839 -193.570038 
L 346.508421 -184.997902 
L 346.635067 -184.092698 
L 347.162758 -182.857024 
L 347.690449 -182.000672 
L 348.045057 -181.224783 
L 348.087273 -180.196012 
L 347.622904 -178.385604 
L 346.787042 -176.144147 
L 345.845641 -174.241783 
L 345.060436 -173.442905 
L 344.532745 -173.167033 
L 342.126473 -170.893966 
L 341.640997 -170.212908 
L 341.362376 -169.32782 
L 341.324383 -168.097892 
L 340.615166 -169.074937 
L 338.284881 -170.359464 
L 337.786741 -170.770398 
L 337.208391 -171.448583 
L 335.903939 -171.977337 
L 333.463895 -172.437123 
L 332.298753 -172.20723 
L 330.348406 -171.212942 
L 329.39434 -170.988797 
L 326.012895 -171.143974 
L 324.936405 -170.988797 
L 322.943844 -169.842205 
L 321.529631 -167.893862 
L 321.293226 -167.278898 
L 318.393035 -159.772891 
L 317.692261 -158.6263 
L 316.788854 -157.953863 
L 313.251212 -157.005554 
L 312.660198 -156.600367 
L 312.309811 -156.479674 
L 311.799006 -156.479674 
L 311.799006 -155.996898 
L 313.601599 -154.654898 
L 313.956207 -154.114649 
L 313.892884 -153.287034 
L 312.896603 -150.212215 
L 312.183165 -146.792557 
L 311.815892 -146.134488 
L 311.359967 -145.668955 
L 310.9547 -145.166064 
L 310.739402 -144.37868 
L 310.836497 -142.798166 
L 311.613259 -139.568169 
L 311.799006 -138.114095 
L 311.511942 -133.338068 
L 311.799006 -132.28056 
L 310.76051 -131.481682 
L 310.739402 -130.320722 
L 311.157333 -128.797681 
L 311.444397 -126.935547 
L 311.444397 -123.561867 
L 311.317751 -122.237109 
L 311.191106 -121.745713 
L 308.535764 -121.590535 
L 305.749554 -122.07331 
L 303.457264 -122.136531 
L 302.912686 -122.027332 
L 302.545413 -121.60203 
L 302.20347 -120.619237 
L 302.03883 -119.854843 
L 302.097931 -119.202521 
L 302.469426 -118.670894 
L 303.267295 -118.254212 
L 301.878412 -118.012825 
L 299.619893 -117.027159 
L 298.454751 -116.805886 
L 297.504907 -115.986893 
L 297.606224 -114.13338 
L 298.180352 -112.159174 
L 298.632056 -110.978098 
L 297.796193 -111.377538 
L 292.962542 -111.503979 
L 291.438569 -110.624638 
L 290.767346 -109.170565 
L 290.400073 -107.426251 
L 289.813281 -105.670444 
L 288.884544 -106.141724 
L 288.399068 -105.475034 
L 288.424397 -104.423274 
L 289.061848 -103.74509 
L 288.876101 -103.256567 
L 288.825443 -102.891612 
L 289.061848 -101.813988 
L 289.20538 -102.342742 
L 289.281368 -102.434699 
L 289.256039 -102.44332 
L 289.061848 -102.736434 
L 289.4249 -104.18476 
L 291.045967 -102.451941 
L 291.57788 -102.296764 
L 292.211109 -102.900233 
L 292.629041 -103.719227 
L 293.148289 -104.055445 
L 294.060139 -103.219209 
L 294.528729 -103.946246 
L 294.97199 -103.857162 
L 295.394142 -103.451976 
L 295.799409 -103.219209 
L 296.529734 -103.428987 
L 297.040539 -103.762332 
L 297.555566 -103.957741 
L 298.277447 -103.74509 
L 298.252118 -103.383008 
L 298.197238 -103.31404 
L 298.095921 -103.331282 
L 297.922839 -103.219209 
L 298.23101 -101.997903 
L 298.737594 -101.124309 
L 299.543906 -100.951889 
L 300.785036 -101.813988 
L 300.882131 -101.150172 
L 301.169195 -100.796712 
L 301.62512 -100.716249 
L 302.20347 -100.854185 
L 302.20347 -100.325431 
L 301.903741 -100.236347 
L 301.114315 -99.842656 
L 301.498474 -99.152977 
L 301.717994 -98.977683 
L 302.20347 -98.877105 
L 301.709551 -98.175931 
L 301.650449 -97.210381 
L 301.962842 -96.227588 
L 302.558078 -95.503425 
L 303.313732 -95.175827 
L 303.921632 -95.253416 
L 304.563304 -95.46032 
L 305.390724 -95.503425 
L 305.390724 -95.063755 
L 305.086774 -94.67581 
L 305.078331 -94.287866 
L 305.32318 -93.905668 
L 305.774883 -93.529219 
L 304.483095 -92.442974 
L 303.870974 -91.132584 
L 304.115822 -89.822194 
L 305.390724 -88.753191 
L 305.162762 -88.56353 
L 305.141654 -88.491688 
L 305.040337 -88.227311 
L 306.910475 -86.991636 
L 307.197539 -86.537597 
L 307.442387 -86.020338 
L 308.033402 -85.33928 
L 308.734175 -84.709948 
L 309.320968 -84.370856 
L 309.21543 -84.132342 
L 309.071898 -83.580598 
L 308.96636 -83.365074 
L 310.507218 -82.45987 
L 310.904042 -81.974221 
L 311.799006 -80.028751 
L 314.589437 -78.226965 
L 314.931381 -77.543033 
L 315.361977 -76.890712 
L 316.083858 -76.657945 
L 315.86856 -75.882056 
L 316.121852 -75.221114 
L 316.619992 -74.675118 
L 317.143462 -74.244068 
L 317.173013 -73.890608 
L 317.097025 -73.795777 
L 316.957715 -73.79003 
L 316.788854 -73.718188 
L 317.379868 -73.077361 
L 317.768248 -72.163536 
L 317.835793 -71.183618 
L 317.498071 -70.341634 
L 317.650046 -69.628966 
L 315.794768 -70.050101 
L 315.012012 -70.305569 
L 312.476097 -70.006306 
L 311.7684 -70.228929 
L 310.395896 -70.911395 
L 309.114536 -71.245329 
L 308.637376 -71.267226 
L 307.650889 -71.106646 
L 307.439116 -71.192411 
L 307.232705 -71.223432 
L 307.023612 -71.192411 
L 306.819881 -71.106646 
L 306.661722 -70.396808 
L 306.659041 -69.440626 
L 306.546453 -68.745386 
L 307.353335 -68.238098 
L 307.200536 -67.809276 
L 306.551814 -67.546508 
L 305.876285 -67.519137 
L 305.168588 -67.761832 
L 302.46111 -69.278221 
L 300.547111 -69.349387 
L 296.5127 -68.281893 
L 296.386709 -67.57753 
L 296.204423 -67.232647 
L 295.930995 -67.230822 
L 295.539617 -67.533735 
L 295.116071 -66.968055 
L 294.587979 -66.612223 
L 293.4755 -66.214422 
L 293.545197 -66.046543 
L 293.689954 -65.940706 
L 293.848113 -65.851292 
L 293.990189 -65.752754 
L 293.823987 -65.599473 
L 293.502307 -65.429768 
L 293.378996 -65.272838 
L 294.097416 -64.958976 
L 293.250324 -64.586722 
L 292.564072 -65.073937 
L 291.333644 -66.847619 
L 290.548207 -67.530085 
L 286.736293 -69.710693 
L 285.492461 -70.812857 
L 284.350495 -72.181439 
L 282.152345 -75.622966 
L 280.742312 -77.046291 
L 279.085657 -78.046268 
L 277.262801 -78.48239 
L 276.131557 -78.319985 
L 275.477474 -77.7908 
L 274.324785 -76.219668 
L 274.190752 -75.936828 
L 274.147861 -75.688658 
L 273.922684 -75.597419 
L 272.66545 -75.933178 
L 271.504719 -75.986097 
L 270.925694 -75.933178 
L 270.126854 -76.588273 
L 269.247594 -77.104684 
L 268.303998 -77.407597 
L 267.390636 -77.422844 
L 267.320191 -77.42402 
L 266.079041 -76.785348 
L 264.926352 -74.590143 
L 263.923781 -73.887604 
L 263.20268 -73.579217 
L 262.738924 -72.854781 
L 262.315378 -72.002611 
L 261.736353 -71.300072 
L 261.286 -71.179637 
L 260.312917 -71.340217 
L 259.774102 -71.106646 
L 259.216522 -70.537316 
L 258.739363 -70.544615 
L 258.251481 -70.728917 
L 257.683178 -70.712494 
L 257.125599 -70.356663 
L 256.496864 -69.816722 
L 255.967549 -69.36216 
L 255.538641 -69.141362 
L 254.967658 -69.298293 
L 254.007978 -70.150464 
L 253.522777 -70.396808 
L 252.900861 -70.208856 
L 251.78034 -69.059248 
L 251.249568 -68.668746 
L 250.255039 -68.55196 
L 245.378898 -69.380408 
L 244.451385 -69.265447 
L 243.609655 -68.654147 
L 242.11384 -67.024623 
L 241.733185 -66.734483 
L 241.411504 -66.404199 
L 241.197051 -65.942531 
L 241.288193 -65.665165 
L 241.91547 -65.263714 
L 242.070949 -65.022844 
L 242.028059 -64.626867 
L 241.808244 -64.006443 
L 241.749269 -63.636014 
L 241.712506 -63.208079 
L 241.668849 -62.699904 
L 241.449034 -61.417087 
L 241.020126 -60.125145 
L 240.323152 -59.154365 
L 237.846212 -58.38066 
L 232.511676 -58.616056 
L 230.367139 -56.703691 
L 229.632635 -55.003 
L 229.439627 -53.470188 
L 229.798837 -52.052337 
L 230.324248 -51.300529 
" style="stroke: #000000"/>
    </defs>
    <g clip-path="url(#p86f81b6bb6)">
     <use xlink:href="#m6fc0afbf72" x="0" y="246.705156" style="fill: #f5f5f5; stroke: #000000"/>
    </g>
   </g>
  </g>
 </g>
 <defs>
  <clipPath id="p86f81b6bb6">
   <rect x="7.2" y="7.2" width="357.12" height="232.305156"/>
  </clipPath>
 </defs>
</svg>
