<?xml version="1.0" encoding="utf-8" standalone="no"?>
<!DOCTYPE svg PUBLIC "-//W3C//DTD SVG 1.1//EN"
  "http://www.w3.org/Graphics/SVG/1.1/DTD/svg11.dtd">
<svg xmlns:xlink="http://www.w3.org/1999/xlink" width="371.52pt" height="277.08054pt" viewBox="0 0 371.52 277.08054" xmlns="http://www.w3.org/2000/svg" version="1.1">
 <metadata>
  <rdf:RDF xmlns:dc="http://purl.org/dc/elements/1.1/" xmlns:cc="http://creativecommons.org/ns#" xmlns:rdf="http://www.w3.org/1999/02/22-rdf-syntax-ns#">
   <cc:Work>
    <dc:type rdf:resource="http://purl.org/dc/dcmitype/StillImage"/>
    <dc:date>2024-03-04T13:11:09.529525</dc:date>
    <dc:format>image/svg+xml</dc:format>
    <dc:creator>
     <cc:Agent>
      <dc:title>Matplotlib v3.8.0, https://matplotlib.org/</dc:title>
     </cc:Agent>
    </dc:creator>
   </cc:Work>
  </rdf:RDF>
 </metadata>
 <defs>
  <style type="text/css">*{stroke-linejoin: round; stroke-linecap: butt}</style>
 </defs>
 <g id="figure_1">
  <g id="patch_1">
   <path d="M 0 277.08054 
L 371.52 277.08054 
L 371.52 -0 
L 0 -0 
z
" style="fill: #ffffff"/>
  </g>
  <g id="axes_1">
   <g id="PatchCollection_1">
    <defs>
     <path id="m425082ec0b" d="M 348.087273 -124.292947 
L 346.607339 -120.233751 
L 346.030632 -119.142476 
L 344.453167 -117.365629 
L 344.012155 -116.176724 
L 343.986712 -115.443422 
L 344.020636 -114.983481 
L 343.872219 -114.584287 
L 343.303992 -114.028887 
L 341.107415 -112.790084 
L 338.109384 -110.321155 
L 332.711939 -104.773106 
L 332.520409 -104.576232 
L 331.396678 -104.034933 
L 329.946428 -104.148834 
L 328.212065 -104.825728 
L 327.1477 -105.330145 
L 326.647322 -105.403909 
L 326.252955 -105.139226 
L 325.540552 -105.356179 
L 324.75606 -105.193464 
L 323.144671 -104.53935 
L 322.36866 -104.482942 
L 320.553728 -104.613114 
L 319.913413 -104.409178 
L 319.128921 -104.028425 
L 317.233419 -103.623807 
L 316.533737 -103.248478 
L 315.732283 -102.971862 
L 314.871462 -104.58274 
L 314.159059 -104.53935 
L 314.231147 -104.81705 
L 314.324438 -105.407163 
L 314.409248 -105.684863 
L 310.550396 -105.998361 
L 309.757423 -106.163245 
L 309.087425 -106.543998 
L 308.849957 -105.940868 
L 308.430148 -105.708728 
L 308.413841 -105.70335 
L 307.917048 -105.539504 
L 307.382745 -105.139226 
L 307.043505 -104.639148 
L 306.992619 -104.286599 
L 307.382745 -103.391667 
L 306.708506 -102.971862 
L 305.779837 -102.560736 
L 304.961422 -102.023776 
L 304.60522 -101.228643 
L 304.842688 -100.509442 
L 305.241294 -99.934516 
L 305.321864 -99.395387 
L 304.60522 -98.780325 
L 304.321107 -99.126365 
L 304.028512 -99.24352 
L 303.740159 -99.126365 
L 303.460286 -98.780325 
L 303.201615 -99.232672 
L 302.722439 -99.782649 
L 302.264466 -100.013704 
L 302.060922 -99.509288 
L 302.149972 -99.176264 
L 302.55282 -98.773816 
L 302.64611 -98.361605 
L 302.582503 -98.03509 
L 302.060922 -97.06097 
L 300.699722 -97.715084 
L 300.033964 -97.907088 
L 299.257954 -97.946139 
L 298.901752 -97.863697 
L 298.689727 -97.73244 
L 298.473462 -97.626133 
L 298.113019 -97.631557 
L 298.168146 -97.846341 
L 297.85859 -98.324723 
L 297.464223 -98.641474 
L 297.035933 -97.983021 
L 296.611884 -97.574064 
L 296.40834 -97.047953 
L 297.17587 -95.774437 
L 297.337009 -94.34363 
L 297.549033 -93.620091 
L 297.124984 -93.769788 
L 296.306568 -94.163559 
L 295.869797 -94.167898 
L 295.687455 -93.953114 
L 295.407583 -93.188353 
L 295.170115 -93.01913 
L 293.817396 -92.711056 
L 293.605371 -92.617766 
L 293.647776 -91.984263 
L 293.800434 -92.041755 
L 294.059105 -92.27715 
L 294.44499 -92.187114 
L 294.491635 -92.015721 
L 294.419547 -91.493948 
L 294.44499 -91.30086 
L 294.563724 -91.218418 
L 294.953849 -91.038346 
L 295.030178 -91.040516 
L 295.114988 -90.541523 
L 295.123469 -90.066396 
L 295.191317 -89.609709 
L 295.449988 -89.16387 
L 295.916442 -88.678979 
L 295.869797 -88.005339 
L 295.734101 -87.815505 
L 295.433026 -88.098629 
L 295.140431 -88.516264 
L 295.030178 -88.72237 
L 294.61461 -88.867729 
L 293.350942 -89.007663 
L 293.189803 -88.963188 
L 292.744551 -88.735387 
L 292.48588 -88.72237 
L 292.413792 -88.818914 
L 292.197527 -89.228956 
L 292.078793 -89.320076 
L 291.858287 -89.411197 
L 291.650503 -89.607539 
L 291.37487 -89.804967 
L 290.475885 -89.949241 
L 290.285063 -90.017581 
L 290.102721 -89.943817 
L 289.831329 -89.570657 
L 289.589621 -89.064071 
L 289.2419 -88.531451 
L 289.097724 -88.433822 
L 289.051078 -88.009678 
L 289.072281 -87.53889 
L 289.216457 -87.157052 
L 289.542976 -87.000845 
L 289.780444 -86.775214 
L 289.818608 -86.28273 
L 289.716836 -85.792416 
L 289.542976 -85.567869 
L 288.80937 -85.574378 
L 288.258105 -85.650311 
L 287.007159 -86.348901 
L 281.676854 -86.249102 
L 277.728952 -86.172084 
L 275.154971 -85.669837 
L 270.02821 -83.850684 
L 270.524348 -85.632955 
L 269.862831 -85.801094 
L 270.007008 -85.968148 
L 270.066374 -86.139541 
L 270.096058 -86.314188 
L 270.151184 -86.500768 
L 270.129982 -86.63311 
L 270.074855 -86.728569 
L 269.985805 -86.788231 
L 265.397225 -87.737152 
L 261.818608 -88.477213 
L 252.465133 -90.407012 
L 247.430603 -91.446218 
L 245.299369 -91.887188 
L 243.204948 -92.32054 
L 237.642477 -93.494258 
L 237.527983 -92.816279 
L 237.689122 -92.422508 
L 237.781353 -92.043925 
L 237.460135 -91.420184 
L 236.939614 -90.909259 
L 234.882974 -89.391671 
L 234.145127 -90.281179 
L 233.366996 -90.913598 
L 232.574023 -90.913598 
L 231.787411 -89.904765 
L 231.596589 -89.294042 
L 231.505418 -88.341617 
L 231.282792 -87.896863 
L 230.797255 -87.498753 
L 229.718049 -86.98132 
L 229.332163 -86.500768 
L 229.332163 -86.49426 
L 229.230392 -86.387952 
L 229.107417 -86.294663 
L 228.973841 -86.223068 
L 228.829665 -86.176423 
L 227.230997 -86.231746 
L 226.378658 -86.139541 
L 225.789229 -85.916079 
L 225.409704 -85.216405 
L 225.110749 -84.185876 
L 224.69518 -83.237791 
L 223.976416 -82.789782 
L 222.006705 -84.70548 
L 222.12968 -84.998367 
L 222.437116 -85.33139 
L 222.613096 -85.667668 
L 222.369268 -85.961639 
L 221.987623 -85.996352 
L 221.70139 -85.890045 
L 221.519048 -85.929096 
L 221.463922 -86.403139 
L 221.175971 -86.408425 
L 216.50042 -86.49426 
L 216.50042 -86.505107 
L 216.288396 -86.805588 
L 216.057289 -86.898877 
L 215.81558 -86.796909 
L 215.580233 -86.505107 
L 214.70245 -86.356494 
L 213.784382 -85.336814 
L 213.069859 -85.23593 
L 213.343371 -85.809772 
L 212.915081 -85.792416 
L 212.705176 -85.926927 
L 212.418942 -86.49426 
L 212.107266 -86.713382 
L 211.761665 -86.783892 
L 206.104843 -87.237325 
L 204.940827 -87.055084 
L 204.578264 -86.416156 
L 199.633845 -86.463886 
L 194.413794 -86.515955 
L 193.385473 -86.706874 
L 192.023186 -87.243507 
L 191.611621 -87.405631 
L 191.099845 -87.60723 
L 185.915838 -87.769945 
L 185.201315 -87.544314 
L 184.9066 -86.807757 
L 184.427424 -86.533311 
L 178.051837 -86.470395 
L 169.074706 -86.381444 
L 159.843144 -86.288154 
L 149.918262 -86.18944 
L 141.910084 -86.106998 
L 138.059612 -86.068302 
L 137.160728 -86.059268 
L 137.143766 -86.505107 
L 133.606131 -86.570193 
L 133.663378 -86.327206 
L 133.549945 -86.028895 
L 133.795894 -85.227252 
L 134.245386 -84.483103 
L 134.491335 -83.679291 
L 134.260228 -82.718187 
L 133.707903 -82.103125 
L 133.053807 -81.596539 
L 132.502542 -80.955442 
L 132.199347 -80.08112 
L 131.746674 -78.133964 
L 131.056533 -76.997129 
L 130.908115 -76.038196 
L 130.683369 -75.640086 
L 130.244478 -75.200756 
L 130.119383 -74.94909 
L 130.216379 -74.524266 
L 130.259319 -74.336197 
L 130.339889 -74.336197 
L 130.51693 -74.302569 
L 130.705632 -74.211449 
L 130.824366 -74.024869 
L 130.825426 -73.753677 
L 130.734255 -73.568182 
L 130.618702 -73.407637 
L 130.368512 -72.71881 
L 129.818308 -71.716486 
L 129.701694 -71.30102 
L 129.875554 -70.499378 
L 131.105299 -68.290793 
L 131.20495 -67.877497 
L 131.272798 -66.98148 
L 131.383051 -66.571439 
L 131.572813 -66.325197 
L 132.127258 -65.766542 
L 132.248112 -65.569114 
L 132.373207 -64.749031 
L 132.694425 -64.21858 
L 134.135133 -62.934217 
L 134.639753 -62.673873 
L 135.307631 -62.559972 
L 136.310508 -62.533938 
L 136.469527 -62.353866 
L 136.291426 -61.960096 
L 135.916142 -61.565241 
L 135.466649 -61.386255 
L 134.935527 -61.342864 
L 134.537981 -61.199675 
L 134.222064 -60.942585 
L 133.929469 -60.552069 
L 133.649597 -59.938092 
L 133.443932 -59.082211 
L 133.443932 -58.20138 
L 133.776811 -57.516893 
L 134.135133 -57.358517 
L 134.554943 -57.310787 
L 134.904784 -57.224006 
L 135.052141 -56.943051 
L 135.151793 -56.464669 
L 135.417884 -56.364871 
L 135.776206 -56.375718 
L 136.170572 -56.226021 
L 136.57978 -55.968931 
L 136.846931 -55.843098 
L 136.986867 -55.619636 
L 137.01019 -55.080507 
L 136.874494 -54.521853 
L 136.569178 -54.151947 
L 135.738041 -53.491324 
L 135.201618 -52.62785 
L 135.182536 -51.791495 
L 135.610826 -49.895324 
L 135.610826 -46.298238 
L 135.81225 -45.447781 
L 136.743039 -44.031076 
L 137.01019 -43.276079 
L 136.961424 -42.19999 
L 136.57978 -40.294056 
L 136.757881 -39.235323 
L 137.733195 -37.641802 
L 137.849809 -37.230675 
L 137.589018 -36.803277 
L 136.170572 -35.196738 
L 135.483611 -33.794135 
L 135.330953 -32.915474 
L 135.610826 -32.044407 
L 135.945826 -31.665823 
L 136.170572 -31.626771 
L 136.399559 -31.652806 
L 136.757881 -31.470565 
L 136.965665 -31.131033 
L 137.016551 -30.747026 
L 137.148006 -30.361934 
L 137.460302 -30.116181 
L 137.593258 -30.011554 
L 137.069557 -29.552698 
L 136.717596 -28.937635 
L 136.514052 -28.250978 
L 136.450445 -27.575169 
L 136.522533 -26.891766 
L 136.734558 -26.460029 
L 138.20389 -25.100816 
L 139.683823 -23.205729 
L 138.401073 -21.966926 
L 137.398196 -19.821258 
L 136.628545 -19.140025 
L 135.64687 -19.217043 
L 134.710781 -19.947091 
L 130.618702 -25.472891 
L 128.577963 -29.49846 
L 127.842236 -31.453209 
L 127.342918 -32.429499 
L 126.699422 -33.090121 
L 125.921291 -33.276701 
L 124.509206 -32.854727 
L 123.769239 -32.890524 
L 123.052595 -33.496909 
L 122.649748 -34.474283 
L 122.135588 -36.496288 
L 121.313992 -37.513799 
L 120.36306 -37.730752 
L 119.441812 -37.750278 
L 118.726229 -38.178761 
L 118.546008 -39.01837 
L 118.635058 -40.008762 
L 118.621276 -40.817998 
L 118.120898 -41.128241 
L 117.485883 -40.670469 
L 116.098181 -38.67016 
L 115.532074 -38.098488 
L 114.55252 -38.000859 
L 114.139071 -38.546497 
L 114.066983 -39.404547 
L 114.100907 -40.241987 
L 113.918566 -40.528365 
L 113.494516 -40.359142 
L 113.013219 -40.056492 
L 112.640056 -39.92632 
L 112.202224 -40.157375 
L 111.4824 -40.828845 
L 110.96506 -41.028442 
L 104.511024 -41.569741 
L 102.057896 -41.235633 
L 101.357154 -41.385331 
L 100.919323 -41.699913 
L 100.651112 -42.041614 
L 100.338375 -42.344264 
L 99.78499 -42.526505 
L 99.646114 -42.428876 
L 99.265529 -41.952663 
L 99.047144 -41.824661 
L 98.788473 -41.87673 
L 98.253111 -42.184803 
L 97.946735 -42.228194 
L 95.953701 -41.978698 
L 95.355791 -41.787779 
L 94.940223 -41.508994 
L 94.282946 -40.794133 
L 93.934165 -40.530535 
L 93.145432 -40.291886 
L 90.428334 -40.239817 
L 90.349621 -40.216236 
L 89.591896 -39.989236 
L 88.047295 -38.976064 
L 87.167392 -38.750433 
L 86.557821 -38.421749 
L 86.385021 -37.735091 
L 86.12423 -37.146063 
L 84.808616 -37.126537 
L 84.468316 -37.013722 
L 83.838602 -36.706733 
L 83.796197 -36.591748 
L 83.781356 -36.372625 
L 83.700786 -36.174112 
L 83.446356 -36.117705 
L 83.206768 -36.193638 
L 82.778478 -36.433372 
L 80.444085 -37.130876 
L 79.738042 -37.041926 
L 78.998075 -36.476762 
L 77.821338 -34.802968 
L 77.064409 -34.378824 
L 75.518748 -34.177057 
L 74.811645 -33.919968 
L 74.265681 -33.41989 
L 74.448023 -33.383008 
L 74.927199 -33.220293 
L 73.684733 -31.901217 
L 73.458927 -31.518295 
L 73.452566 -31.148389 
L 73.57448 -30.156913 
L 73.471648 -29.628632 
L 72.940526 -28.575323 
L 72.672046 -28.254459 
L 72.669134 -28.250978 
L 71.556004 -28.718513 
L 70.92629 -28.892075 
L 70.803316 -28.229283 
L 70.811797 -27.540456 
L 70.67398 -27.161873 
L 70.112115 -27.433064 
L 69.836482 -27.889751 
L 69.484521 -29.268489 
L 69.117718 -29.881382 
L 68.122262 -30.1222 
L 66.651869 -30.050606 
L 65.318233 -30.187286 
L 64.735165 -31.055099 
L 64.828456 -31.824199 
L 65.231303 -32.911135 
L 65.322474 -33.633589 
L 65.226002 -33.839695 
L 64.980054 -33.967697 
L 64.658836 -34.032783 
L 63.913569 -34.032783 
L 63.784233 -33.952511 
L 63.75137 -33.787626 
L 63.622034 -33.503417 
L 63.420611 -32.926322 
L 63.401529 -32.361158 
L 63.246751 -31.927252 
L 62.650961 -31.756943 
L 62.174965 -31.929421 
L 61.584476 -32.824354 
L 61.120141 -33.215954 
L 60.590079 -32.6573 
L 60.106663 -32.399125 
L 59.598863 -32.328615 
L 58.995653 -32.330785 
L 59.040178 -32.224478 
L 58.894941 -31.974981 
L 58.625669 -31.691857 
L 58.29385 -31.470565 
L 57.958851 -31.323037 
L 57.929168 -31.35558 
L 57.939769 -31.518295 
L 57.731985 -31.756943 
L 57.1786 -31.987999 
L 56.958094 -32.163731 
L 56.869044 -32.485906 
L 56.809677 -32.928491 
L 56.657019 -33.202937 
L 56.182083 -33.633589 
L 55.950976 -33.932985 
L 55.81528 -34.159701 
L 55.609616 -34.307229 
L 55.186627 -34.363637 
L 54.778479 -34.313738 
L 54.633242 -34.172718 
L 54.70215 -33.978545 
L 54.935377 -33.763761 
L 54.312024 -33.644437 
L 53.76924 -34.526352 
L 53.225397 -34.363637 
L 53.107723 -34.701 
L 53.029274 -34.865884 
L 52.664591 -35.196738 
L 52.664591 -35.509151 
L 53.063198 -35.480947 
L 53.411979 -35.533015 
L 54.068196 -35.770579 
L 53.67807 -36.476762 
L 53.476646 -37.429187 
L 53.142707 -38.059437 
L 52.359275 -37.804516 
L 52.083643 -38.665821 
L 51.501635 -39.189763 
L 50.686399 -39.452277 
L 49.725927 -39.523871 
L 49.384567 -39.611737 
L 49.24357 -39.809165 
L 49.058049 -40.006592 
L 48.591594 -40.096628 
L 48.275677 -39.904624 
L 48.059412 -39.526041 
L 47.827245 -39.25268 
L 47.472103 -39.380682 
L 46.265682 -40.515348 
L 46.214796 -40.99156 
L 46.804225 -42.713085 
L 46.727896 -42.978853 
L 46.280523 -43.961651 
L 45.82043 -44.570205 
L 45.637028 -44.995433 
L 46.50633 -45.026892 
L 46.662168 -45.594225 
L 46.378055 -46.363324 
L 45.919021 -47.002251 
L 45.421823 -47.326597 
L 44.88222 -47.586941 
L 44.442268 -47.989389 
L 44.234484 -48.747641 
L 43.826336 -48.396176 
L 43.3461 -48.186816 
L 42.890246 -48.254072 
L 42.556307 -48.747641 
L 43.114993 -49.009069 
L 42.847841 -49.093681 
L 42.611434 -49.206497 
L 42.342162 -49.291109 
L 41.997622 -49.295448 
L 42.369725 -49.643658 
L 43.331258 -49.98102 
L 43.254929 -50.310789 
L 42.218128 -51.001785 
L 41.972179 -51.430268 
L 42.249931 -52.187435 
L 41.151643 -52.14079 
L 41.174965 -52.597477 
L 41.525866 -53.356813 
L 41.410313 -54.219203 
L 41.290519 -53.941503 
L 41.102877 -53.669226 
L 40.859048 -53.456612 
L 40.569634 -53.358983 
L 40.070316 -53.404543 
L 40.023671 -53.591123 
L 40.179509 -53.835195 
L 40.286581 -54.062996 
L 40.286581 -56.36921 
L 39.983386 -56.994035 
L 39.955054 -57.012939 
L 39.307027 -57.445298 
L 38.634908 -57.501706 
L 38.329592 -56.943051 
L 37.962789 -56.90183 
L 35.946433 -58.102667 
L 35.291276 -57.92368 
L 33.393654 -58.206804 
L 32.702453 -58.232839 
L 32.395017 -58.038666 
L 32.187233 -57.747948 
L 31.928562 -57.486519 
L 31.453627 -57.373704 
L 30.985052 -57.358517 
L 30.768787 -57.395399 
L 30.588565 -57.516893 
L 30.376541 -57.612352 
L 30.223883 -57.449637 
L 30.069105 -57.213158 
L 29.876162 -57.085156 
L 29.047145 -57.117699 
L 28.358064 -57.289092 
L 27.796198 -57.581979 
L 27.355187 -57.973579 
L 27.227972 -58.2285 
L 27.088035 -58.603829 
L 26.909935 -58.94553 
L 26.666106 -59.093059 
L 26.286582 -59.110415 
L 26.002468 -59.161399 
L 25.4194 -59.378352 
L 25.372755 -60.1084 
L 24.872376 -61.167132 
L 24.149371 -62.117387 
L 23.432727 -62.533938 
L 23.657474 -63.142492 
L 23.990353 -65.281651 
L 24.147251 -65.627692 
L 25.111964 -67.14528 
L 25.667469 -69.349525 
L 25.546615 -69.749804 
L 25.239179 -70.038352 
L 25.285824 -70.681619 
L 25.569938 -71.355259 
L 25.977025 -71.731673 
L 25.347312 -71.975745 
L 25.296426 -72.329379 
L 25.092882 -73.018206 
L 25.071679 -73.396789 
L 25.463925 -75.648764 
L 25.67383 -76.270336 
L 25.951582 -76.579494 
L 26.288702 -76.744378 
L 26.555853 -76.942891 
L 26.61522 -77.357272 
L 26.602499 -77.710905 
L 27.172845 -80.133189 
L 27.022308 -80.646284 
L 26.53253 -81.531453 
L 25.771361 -84.465746 
L 25.215856 -85.626446 
L 24.285067 -85.402984 
L 24.539497 -86.49426 
L 24.129225 -88.668204 
L 24.058201 -89.044546 
L 24.185415 -89.705168 
L 24.779085 -90.101108 
L 28.866924 -90.629389 
L 29.568726 -90.842004 
L 30.255686 -91.141399 
L 31.231001 -91.757546 
L 31.64869 -92.344405 
L 31.900999 -94.056167 
L 32.289005 -95.024863 
L 33.580236 -96.3396 
L 34.089095 -97.216091 
L 34.167545 -97.89407 
L 33.883431 -102.272188 
L 34.063652 -103.034779 
L 34.691246 -103.580416 
L 35.583871 -104.013238 
L 35.91675 -104.378804 
L 35.880705 -104.922272 
L 35.658079 -105.882291 
L 35.655959 -109.356798 
L 35.276434 -110.835334 
L 33.817704 -112.01556 
L 33.35549 -112.084985 
L 32.93568 -112.030747 
L 32.566757 -112.113189 
L 32.25296 -112.583978 
L 32.244479 -113.061275 
L 32.471346 -113.516877 
L 32.778782 -113.955123 
L 33.005649 -114.380351 
L 33.35761 -116.020518 
L 33.44454 -116.94257 
L 33.404255 -117.680211 
L 33.092579 -118.515481 
L 32.607042 -119.092577 
L 31.958246 -119.504788 
L 31.158912 -119.854083 
L 30.732742 -119.984255 
L 30.378661 -120.010289 
L 29.666257 -119.86493 
L 29.507239 -120.040663 
L 28.444994 -120.667658 
L 28.216008 -120.756609 
L 27.961578 -121.229567 
L 27.955217 -121.437842 
L 28.218128 -121.518115 
L 28.777873 -121.598387 
L 28.958094 -121.533301 
L 29.462714 -121.173159 
L 29.698061 -121.086378 
L 29.916447 -121.153633 
L 30.223883 -121.483402 
L 30.357458 -121.572353 
L 31.784386 -121.811002 
L 31.956126 -121.891274 
L 32.110904 -122.040972 
L 32.297486 -122.173314 
L 32.558276 -122.186331 
L 32.833908 -122.053989 
L 33.056535 -121.882596 
L 33.283401 -121.76978 
L 33.584476 -121.811002 
L 33.86859 -122.047481 
L 34.689126 -123.197333 
L 36.279312 -124.501222 
L 37.36912 -125.735687 
L 37.988232 -126.271561 
L 39.25296 -126.668586 
L 40.608859 -127.493008 
L 41.208889 -127.766369 
L 41.847084 -127.818438 
L 43.465894 -127.766369 
L 44.215401 -127.850981 
L 44.680796 -127.824947 
L 45.110146 -127.933424 
L 45.508753 -128.156885 
L 45.880857 -128.480146 
L 46.771361 -128.851136 
L 47.660805 -128.768694 
L 48.538588 -128.558249 
L 49.388807 -128.549571 
L 51.141193 -129.185244 
L 52.003074 -129.170057 
L 52.800287 -128.480146 
L 53.50951 -128.712286 
L 54.668226 -128.914052 
L 55.258715 -129.269856 
L 55.583113 -129.695084 
L 55.858074 -130.201098 
L 56.151339 -130.740799 
L 56.58281 -131.113959 
L 57.017461 -131.218096 
L 57.850719 -131.116128 
L 58.266287 -131.144332 
L 59.081523 -131.539187 
L 59.121712 -131.64379 
L 59.288247 -132.077231 
L 59.370937 -132.751956 
L 59.803467 -133.57204 
L 61.272799 -134.411649 
L 62.506784 -134.468057 
L 62.907511 -134.912811 
L 61.87919 -136.917459 
L 65.494214 -139.917923 
L 65.653232 -140.091486 
L 65.706239 -140.343152 
L 65.63415 -140.81611 
L 65.778327 -141.473479 
L 65.769846 -141.811926 
L 65.873738 -142.100474 
L 66.324291 -142.378174 
L 66.927502 -142.415056 
L 67.330349 -142.083117 
L 67.652627 -141.627515 
L 68.02155 -141.304255 
L 69.239632 -141.545073 
L 68.861168 -143.343616 
L 67.372754 -146.912498 
L 67.699272 -147.92567 
L 68.398954 -148.773957 
L 69.179205 -149.541972 
L 69.760153 -150.318664 
L 70.029425 -150.89576 
L 70.014583 -151.054136 
L 69.793017 -151.199495 
L 69.433635 -151.744048 
L 68.568574 -153.709644 
L 67.887974 -154.384369 
L 66.104845 -155.768531 
L 65.744403 -156.462782 
L 65.993532 -158.640993 
L 66.138769 -158.755978 
L 66.416522 -158.686553 
L 66.850269 -158.749034 
L 68.044873 -159.218089 
L 69.408192 -159.55979 
L 70.769392 -159.661758 
L 71.975813 -159.401414 
L 73.14619 -158.697401 
L 73.708056 -158.534686 
L 74.566756 -158.640993 
L 75.332166 -158.903506 
L 75.83151 -159.239633 
L 75.892972 -159.281005 
L 76.296879 -159.802778 
L 77.152399 -162.524457 
L 77.209646 -163.028873 
L 76.685945 -164.931554 
L 76.822701 -167.313701 
L 76.494062 -168.47657 
L 75.733953 -169.442013 
L 74.541313 -170.461693 
L 74.015492 -171.185232 
L 72.921444 -173.594499 
L 71.733045 -174.694452 
L 71.498757 -175.073035 
L 71.498757 -175.587215 
L 71.710782 -175.95712 
L 71.969452 -176.299906 
L 72.484673 -177.696001 
L 73.175873 -177.989972 
L 75.802861 -177.860885 
L 76.269316 -177.992142 
L 76.55767 -178.363132 
L 76.465439 -178.728698 
L 75.596137 -179.215758 
L 75.313084 -179.609529 
L 75.501786 -180.237608 
L 76.106057 -180.980674 
L 76.849204 -181.654314 
L 77.471497 -182.080627 
L 77.867983 -182.152221 
L 78.252808 -182.074118 
L 78.646114 -182.054592 
L 79.091366 -182.29758 
L 79.867377 -183.197936 
L 80.504512 -184.215447 
L 81.198893 -185.923954 
L 81.625063 -186.686545 
L 82.310963 -187.328727 
L 82.649143 -187.50229 
L 83.747432 -187.790837 
L 84.118475 -188.019723 
L 84.746069 -188.736754 
L 85.245387 -188.914655 
L 85.683218 -189.071947 
L 86.304451 -189.47548 
L 86.850415 -189.958201 
L 87.067741 -190.349802 
L 86.745463 -190.577602 
L 86.221762 -190.6134 
L 85.986414 -190.793471 
L 86.539799 -191.445416 
L 86.672314 -191.567994 
L 86.816491 -191.608131 
L 86.965969 -191.56691 
L 87.120747 -191.449755 
L 87.319888 -191.158526 
L 87.360335 -191.099375 
L 87.57342 -190.26519 
L 87.705935 -190.001592 
L 88.057897 -189.856233 
L 89.045932 -189.669653 
L 89.268558 -189.556837 
L 89.243115 -189.105574 
L 88.957942 -188.937436 
L 88.573117 -188.877773 
L 88.252959 -188.75411 
L 87.420762 -187.965485 
L 87.067741 -187.762634 
L 86.557821 -187.264726 
L 87.067741 -186.856853 
L 88.019732 -186.608442 
L 88.823306 -186.584577 
L 89.641722 -186.656172 
L 90.3096 -186.528169 
L 91.725926 -185.965175 
L 93.407283 -185.510658 
L 94.165272 -185.193907 
L 97.209948 -182.745589 
L 99.085308 -181.608753 
L 102.442721 -178.991212 
L 102.733195 -178.9066 
L 103.274919 -178.986873 
L 103.547371 -178.880566 
L 104.205708 -178.1874 
L 104.569331 -177.945497 
L 104.838602 -177.899937 
L 105.75667 -177.920547 
L 107.487692 -177.656118 
L 107.993532 -177.578846 
L 108.49073 -177.706848 
L 108.900998 -178.380488 
L 108.855412 -179.135486 
L 108.376236 -180.591242 
L 108.528894 -181.777977 
L 109.43212 -182.132696 
L 116.166029 -182.539483 
L 116.731075 -182.911558 
L 115.281885 -193.382809 
L 115.888276 -194.931855 
L 116.104542 -195.921162 
L 116.276282 -198.257749 
L 116.00701 -199.266582 
L 115.158911 -199.914188 
L 115.975206 -200.723423 
L 117.068194 -200.34267 
L 118.897969 -198.954169 
L 120.041843 -198.837014 
L 120.940828 -199.027933 
L 121.799529 -199.053968 
L 122.827849 -198.443244 
L 123.559335 -197.750078 
L 123.760758 -197.354139 
L 123.875252 -196.739076 
L 124.162545 -196.09364 
L 124.634301 -196.265033 
L 125.347764 -197.051489 
L 125.82588 -197.293392 
L 126.148158 -197.384512 
L 127.146795 -197.278205 
L 127.490275 -197.155626 
L 127.780749 -196.966877 
L 128.068043 -196.836705 
L 128.368058 -196.886604 
L 129.785004 -197.42682 
L 131.230393 -197.977879 
L 130.075918 -201.940531 
L 129.884036 -204.190337 
L 130.536012 -205.799046 
L 131.262197 -207.000967 
L 132.866165 -212.442155 
L 132.798317 -212.509411 
L 132.733649 -212.612464 
L 132.612795 -212.67538 
L 132.377448 -212.625481 
L 133.461955 -214.407752 
L 139.520564 -217.774867 
L 140.214993 -218.552945 
L 142.533437 -221.150661 
L 143.451505 -221.936032 
L 146.784535 -223.848475 
L 149.019277 -224.396282 
L 152.140282 -223.716133 
L 161.730165 -219.157945 
L 163.044719 -218.848786 
L 163.680794 -218.94967 
L 164.473859 -219.30608 
L 166.488003 -220.211253 
L 166.842084 -220.500886 
L 167.001103 -220.942386 
L 167.755911 -231.253091 
L 168.08243 -232.363892 
L 169.314294 -232.911699 
L 171.279764 -233.00065 
L 174.650959 -232.737051 
L 177.534497 -232.887834 
L 180.396832 -233.431302 
L 194.619458 -242.619274 
L 196.364422 -243.445866 
L 204.20298 -245.368072 
L 205.767723 -246.036288 
L 207.213733 -246.940984 
L 207.221055 -246.947432 
L 215.703207 -254.417194 
L 215.709568 -254.421533 
L 217.901905 -256.6171 
L 218.375543 -256.962799 
L 219.129528 -257.513118 
L 220.490728 -257.879769 
L 229.491554 -257.932689 
L 230.822698 -257.940516 
L 231.202222 -257.753936 
L 232.147853 -255.222091 
L 232.552821 -254.694894 
L 233.704116 -254.675369 
L 235.189349 -255.330567 
L 237.745309 -256.883953 
L 240.308689 -257.34064 
L 243.168904 -256.671339 
L 248.649746 -254.415025 
L 248.658227 -254.415025 
L 258.983836 -250.848312 
L 259.081368 -249.892633 
L 258.712445 -249.329639 
L 258.144218 -248.867529 
L 257.641719 -248.21233 
L 257.573871 -247.010409 
L 258.763331 -244.578362 
L 259.034722 -243.301592 
L 256.295362 -235.555275 
L 256.53707 -233.431302 
L 257.760453 -231.400619 
L 258.323901 -230.888208 
L 264.231451 -225.515761 
L 265.972175 -223.166157 
L 266.088789 -222.927508 
L 266.046384 -222.579298 
L 265.657318 -222.077051 
L 265.50572 -221.696298 
L 265.289455 -220.396748 
L 265.094392 -219.89884 
L 264.112717 -218.376913 
L 263.935676 -217.883344 
L 264.116958 -217.402793 
L 264.637479 -216.620676 
L 264.891908 -216.333213 
L 265.149519 -216.135785 
L 265.374265 -215.914493 
L 265.548125 -215.559774 
L 265.50148 -215.287498 
L 265.16224 -214.611688 
L 265.166481 -214.242868 
L 265.543885 -213.812216 
L 266.078187 -213.550787 
L 266.508598 -213.181966 
L 266.593408 -212.437816 
L 266.918866 -211.696921 
L 267.596285 -211.238065 
L 268.316109 -210.86382 
L 268.758181 -210.371336 
L 268.740159 -210.00577 
L 268.4041 -209.248603 
L 268.427422 -208.808188 
L 268.680792 -208.503368 
L 269.536312 -207.940375 
L 269.85859 -207.579147 
L 270.206311 -206.80137 
L 270.531909 -206.347893 
L 270.702449 -206.110374 
L 271.325802 -205.534363 
L 272.708204 -204.627498 
L 273.128013 -204.071013 
L 273.590227 -203.577444 
L 274.37896 -203.286726 
L 274.658832 -202.892956 
L 274.412884 -202.101077 
L 274.014277 -201.22567 
L 273.836176 -200.586743 
L 274.404403 -199.541028 
L 275.485729 -199.166783 
L 280.930527 -199.340346 
L 281.346096 -199.253565 
L 281.46483 -198.962847 
L 281.456349 -198.621146 
L 281.490273 -198.365141 
L 281.460589 -198.210019 
L 281.320653 -198.036457 
L 281.354577 -197.758757 
L 281.846474 -197.291222 
L 282.652169 -196.899621 
L 283.381534 -196.86057 
L 284.925075 -197.010268 
L 286.820577 -196.436426 
L 289.038357 -195.104333 
L 290.696391 -193.337248 
L 290.908416 -191.445416 
L 291.675946 -190.16973 
L 293.028664 -189.173915 
L 297.498147 -187.10418 
L 298.231753 -186.863362 
L 299.970357 -186.647494 
L 300.661558 -186.471761 
L 301.289151 -186.030261 
L 302.073643 -185.148346 
L 300.958393 -184.706846 
L 300.161179 -185.087599 
L 299.491181 -185.687475 
L 298.749094 -185.906598 
L 298.532829 -185.678797 
L 298.337766 -185.213432 
L 297.926438 -183.778286 
L 297.642324 -183.689335 
L 296.730618 -184.070088 
L 294.525559 -184.624404 
L 291.243415 -185.936972 
L 290.374113 -186.086669 
L 289.83557 -184.404196 
L 289.852532 -180.843993 
L 289.873734 -176.892189 
L 289.886881 -174.221113 
L 289.890696 -173.445886 
L 290.00943 -172.648582 
L 290.374113 -171.978197 
L 291.552971 -171.328421 
L 294.487395 -171.081095 
L 295.72562 -170.461693 
L 298.062134 -168.487418 
L 300.517381 -166.411175 
L 303.555601 -163.839783 
L 304.613701 -162.944261 
L 307.955212 -160.118445 
L 310.215397 -158.209256 
L 313.035327 -155.8206 
L 314.184502 -155.176249 
L 315.545701 -154.820445 
L 319.748033 -154.451625 
L 324.942642 -154.002531 
L 325.667767 -154.082804 
L 326.363208 -154.542745 
L 326.855106 -155.26303 
L 327.287637 -156.091792 
L 327.983078 -157.12015 
L 328.262951 -157.682059 
L 328.445292 -157.883826 
L 328.780291 -157.95542 
L 329.068645 -157.814401 
L 329.390923 -157.753654 
L 329.844656 -158.059558 
L 330.540097 -158.827573 
L 330.917502 -159.042356 
L 334.907809 -158.708248 
L 336.553122 -158.261325 
L 337.625967 -157.000826 
L 337.863435 -156.182912 
L 338.020334 -155.957281 
L 338.457105 -155.506018 
L 338.889635 -155.158892 
L 339.640203 -154.692443 
L 340.009127 -154.223824 
L 340.284759 -153.655406 
L 340.416214 -153.12604 
L 340.730011 -150.596365 
L 340.929314 -150.06266 
L 341.264314 -149.4118 
L 341.497541 -149.088539 
L 342.019122 -148.513613 
L 342.184501 -148.196861 
L 342.184501 -148.01896 
L 342.053046 -147.578544 
L 342.048805 -147.3681 
L 342.129375 -146.443879 
L 341.841021 -145.994785 
L 341.238871 -145.838579 
L 338.800585 -145.630304 
L 338.592801 -145.667186 
L 338.151789 -145.88197 
L 338.028815 -145.923191 
L 337.770144 -145.780002 
L 337.47331 -145.36779 
L 337.286728 -145.224601 
L 334.920531 -144.729948 
L 334.301418 -144.20926 
L 334.203887 -142.992152 
L 334.988378 -141.521208 
L 336.748185 -139.047941 
L 339.814064 -134.743587 
L 342.697601 -130.684391 
L 345.950062 -126.121864 
L 348.087273 -124.292947 
" style="stroke: #000000"/>
    </defs>
    <g clip-path="url(#pd69cd8a333)">
     <use xlink:href="#m425082ec0b" x="0" y="277.08054" style="fill: #f5f5f5; stroke: #000000"/>
    </g>
   </g>
  </g>
 </g>
 <defs>
  <clipPath id="pd69cd8a333">
   <rect x="7.2" y="7.2" width="357.12" height="262.68054"/>
  </clipPath>
 </defs>
</svg>
