<?xml version="1.0" encoding="utf-8" standalone="no"?>
<!DOCTYPE svg PUBLIC "-//W3C//DTD SVG 1.1//EN"
  "http://www.w3.org/Graphics/SVG/1.1/DTD/svg11.dtd">
<svg xmlns:xlink="http://www.w3.org/1999/xlink" width="241.532907pt" height="280.512pt" viewBox="0 0 241.532907 280.512" xmlns="http://www.w3.org/2000/svg" version="1.1">
 <metadata>
  <rdf:RDF xmlns:dc="http://purl.org/dc/elements/1.1/" xmlns:cc="http://creativecommons.org/ns#" xmlns:rdf="http://www.w3.org/1999/02/22-rdf-syntax-ns#">
   <cc:Work>
    <dc:type rdf:resource="http://purl.org/dc/dcmitype/StillImage"/>
    <dc:date>2024-03-04T13:11:09.556452</dc:date>
    <dc:format>image/svg+xml</dc:format>
    <dc:creator>
     <cc:Agent>
      <dc:title>Matplotlib v3.8.0, https://matplotlib.org/</dc:title>
     </cc:Agent>
    </dc:creator>
   </cc:Work>
  </rdf:RDF>
 </metadata>
 <defs>
  <style type="text/css">*{stroke-linejoin: round; stroke-linecap: butt}</style>
 </defs>
 <g id="figure_1">
  <g id="patch_1">
   <path d="M -0 280.512 
L 241.532907 280.512 
L 241.532907 0 
L -0 0 
z
" style="fill: #ffffff"/>
  </g>
  <g id="axes_1">
   <g id="PatchCollection_1">
    <defs>
     <path id="m77345a6b0e" d="M 192.778653 -250.290133 
L 189.075647 -245.625806 
L 187.579425 -243.253133 
L 183.339166 -232.917541 
L 182.426412 -229.364319 
L 181.941151 -228.18377 
L 180.866644 -226.783314 
L 178.197706 -224.248606 
L 177.284953 -222.859724 
L 176.851684 -220.105109 
L 178.093722 -218.901412 
L 180.265844 -218.878264 
L 182.622827 -219.653723 
L 186.63201 -221.482417 
L 189.196963 -222.431486 
L 188.474848 -220.313441 
L 182.045135 -213.554218 
L 181.143936 -212.084319 
L 180.77999 -210.348217 
L 180.739551 -207.50101 
L 178.301691 -204.202417 
L 177.019215 -201.714004 
L 177.261845 -199.781144 
L 180.057875 -196.158478 
L 181.756289 -194.561265 
L 183.789765 -194.005712 
L 183.281396 -192.778867 
L 183.928411 -191.887668 
L 184.898934 -190.927025 
L 185.369804 -189.534411 
L 185.384195 -189.491847 
L 185.921449 -189.746476 
L 188.134009 -192.802015 
L 189.462701 -193.901546 
L 191.02247 -194.480247 
L 191.929446 -194.329784 
L 199.191035 -189.977956 
L 200.669926 -189.352959 
L 201.155188 -189.028887 
L 201.444034 -188.34602 
L 201.755987 -186.517326 
L 202.056387 -186.031218 
L 203.546833 -185.707145 
L 204.71377 -185.996496 
L 205.828716 -186.436308 
L 207.2094 -186.5289 
L 208.584307 -186.019644 
L 211.143483 -184.341412 
L 212.616597 -183.9016 
L 215.227765 -184.13308 
L 220.450101 -185.591405 
L 223.061269 -185.568257 
L 222.315306 -184.233569 
L 221.980985 -183.635397 
L 218.52061 -179.642363 
L 217.781164 -177.859965 
L 218.335748 -176.216455 
L 221.085563 -173.623877 
L 222.188954 -172.072959 
L 222.206285 -171.482685 
L 221.674808 -169.989637 
L 221.582378 -169.341492 
L 221.980985 -168.496589 
L 223.430992 -167.43178 
L 223.893146 -166.633173 
L 224.008684 -165.221144 
L 223.812269 -163.820689 
L 222.841746 -161.147092 
L 221.25887 -158.890159 
L 221.316639 -158.068405 
L 221.813455 -156.077674 
L 221.871224 -155.42953 
L 220.184363 -152.420287 
L 217.492318 -150.580019 
L 214.390112 -150.232798 
L 211.432329 -151.702698 
L 211.091491 -150.371687 
L 210.375152 -149.364748 
L 209.283314 -148.751325 
L 207.908408 -148.577715 
L 204.852417 -147.420313 
L 202.385672 -145.892544 
L 200.277096 -143.924962 
L 198.220512 -141.448123 
L 198.999836 -141.022493 
L 202.374118 -139.179617 
L 202.229695 -136.193522 
L 199.295019 -133.346315 
L 194.049576 -130.904198 
L 192.593792 -129.168096 
L 191.704146 -128.392638 
L 190.935816 -128.114861 
L 187.960702 -127.431995 
L 187.787394 -127.154218 
L 187.596756 -126.182001 
L 187.47544 -125.938947 
L 185.33798 -125.765337 
L 185.280211 -125.973669 
L 185.060688 -125.996817 
L 183.20052 -125.719041 
L 182.911673 -125.371821 
L 182.495735 -124.052383 
L 182.218443 -123.600997 
L 179.104683 -121.367212 
L 178.498106 -120.024627 
L 178.763845 -117.779269 
L 178.723406 -115.730668 
L 177.885753 -113.647346 
L 173.27577 -106.390441 
L 172.490109 -104.376563 
L 172.485231 -104.293479 
L 172.363017 -102.212222 
L 172.836725 -100.325658 
L 173.472186 -98.601131 
L 173.818801 -96.853455 
L 173.437524 -94.885873 
L 168.452042 -96.517808 
L 165.627128 -94.712263 
L 161.329099 -87.281747 
L 155.459748 -81.263261 
L 154.119503 -78.971606 
L 152.178458 -70.90452 
L 150.438401 -66.705246 
L 150.144982 -65.997139 
L 147.52226 -61.460126 
L 144.148538 -57.351352 
L 136.534558 -51.008793 
L 135.379173 -49.342135 
L 132.525375 -42.513468 
L 131.115806 -40.73107 
L 128.631731 -39.330615 
L 127.499454 -38.416268 
L 123.663579 -36.240354 
L 119.654397 -32.4788 
L 113.715722 -29.689463 
L 112.733646 -29.353817 
L 110.861924 -29.666315 
L 109.648771 -30.279737 
L 108.458725 -30.4302 
L 106.644772 -29.319095 
L 106.44258 -28.925578 
L 106.205726 -27.096884 
L 105.628034 -26.136241 
L 103.72165 -25.245042 
L 103.016866 -24.585323 
L 102.600928 -22.999684 
L 102.543159 -21.552932 
L 102.20232 -20.291365 
L 100.914067 -19.296 
L 100.405698 -19.492758 
L 95.841931 -19.851553 
L 90.342303 -21.147842 
L 64.172854 -20.812196 
L 60.660487 -47.872236 
L 60.041634 -50.013123 
L 56.94015 -60.742537 
L 50.03673 -72.420715 
L 45.796471 -77.004024 
L 44.092279 -79.411419 
L 43.029326 -82.397514 
L 42.081911 -95.603461 
L 43.261804 -103.741737 
L 43.947856 -108.473763 
L 44.161602 -117.258438 
L 42.093465 -145.70736 
L 42.324542 -148.982805 
L 42.809803 -150.475853 
L 45.385156 -152.854301 
L 45.917786 -153.346208 
L 44.011403 -154.873977 
L 43.237295 -157.061466 
L 42.925341 -164.526703 
L 43.306618 -166.79521 
L 44.144272 -168.681774 
L 45.571171 -169.48038 
L 46.07954 -170.765096 
L 45.991329 -171.501665 
L 45.218779 -177.952557 
L 44.18471 -179.607641 
L 42.636496 -180.799764 
L 40.730112 -181.528927 
L 38.661974 -181.771981 
L 36.51296 -182.628458 
L 35.553991 -184.630762 
L 35.114945 -186.945565 
L 34.462153 -188.727962 
L 32.78107 -189.862216 
L 30.73604 -190.545082 
L 29.026071 -191.447855 
L 28.298179 -193.241827 
L 28.124872 -195.047373 
L 27.662718 -196.158478 
L 25.998965 -198.600595 
L 24.970673 -201.598264 
L 24.473858 -202.489463 
L 22.798551 -203.2302 
L 20.458899 -203.450106 
L 18.419646 -204.04038 
L 17.524223 -205.926944 
L 17.737969 -208.311191 
L 18.488969 -210.220903 
L 19.910091 -211.447748 
L 22.186198 -211.737098 
L 20.707306 -214.445417 
L 22.631021 -225.649061 
L 25.167089 -228.137474 
L 31.671901 -228.565712 
L 33.491631 -228.29951 
L 40.279512 -225.336563 
L 42.775142 -224.572678 
L 47.494885 -223.982403 
L 49.857646 -223.415277 
L 51.902676 -222.246301 
L 53.266029 -221.227788 
L 53.346906 -220.706958 
L 53.202483 -219.387521 
L 53.586502 -217.870436 
L 53.612644 -217.767159 
L 56.03895 -215.487078 
L 56.720627 -214.098197 
L 56.477997 -212.825056 
L 54.929782 -210.926918 
L 54.548505 -209.757942 
L 54.80269 -208.461653 
L 55.842535 -206.135277 
L 55.975404 -204.734821 
L 56.963258 -202.605203 
L 59.713072 -202.859831 
L 64.5368 -204.954727 
L 66.541392 -205.186208 
L 68.699899 -204.783549 
L 72.745804 -204.028806 
L 75.345418 -202.558907 
L 77.471325 -203.276496 
L 79.56257 -204.607507 
L 82.011984 -204.931579 
L 83.167368 -204.885283 
L 84.057014 -205.232504 
L 84.88889 -205.74176 
L 88.216396 -206.945457 
L 89.013611 -206.899161 
L 90.20969 -206.503719 
L 94.859855 -204.966301 
L 96.968431 -204.642229 
L 99.469837 -204.954727 
L 100.555898 -205.614446 
L 101.041159 -206.656107 
L 101.410882 -209.005632 
L 102.242759 -210.047293 
L 103.525235 -210.058867 
L 106.020865 -209.306556 
L 108.799563 -209.225538 
L 111.058339 -209.653776 
L 113.161138 -210.892196 
L 115.448799 -213.218572 
L 116.939244 -215.244024 
L 118.302597 -217.558827 
L 119.36555 -220.000943 
L 119.96635 -222.466208 
L 120.017302 -223.713871 
L 120.486273 -235.197621 
L 122.906803 -243.658224 
L 122.103811 -252.269289 
L 122.831703 -257.998425 
L 122.820149 -259.040086 
L 123.143656 -259.665082 
L 124.287487 -259.699804 
L 125.182909 -259.190548 
L 125.94838 -258.531124 
L 126.14274 -258.36369 
L 128.111808 -256.667413 
L 128.978346 -256.540099 
L 129.919984 -256.632691 
L 130.994491 -256.597969 
L 132.27119 -256.146583 
L 133.634544 -255.093348 
L 137.100696 -250.984573 
L 138.937756 -249.375786 
L 141.271632 -247.824868 
L 143.836585 -246.829503 
L 146.332214 -246.910521 
L 148.238598 -248.229958 
L 153.287626 -254.572517 
L 153.518703 -255.35955 
L 153.576472 -256.412785 
L 153.97508 -257.165096 
L 155.274887 -257.037782 
L 158.764147 -255.336402 
L 160.150608 -255.023904 
L 161.953007 -255.104922 
L 164.090467 -255.544734 
L 166.193266 -256.227601 
L 167.79925 -257.049356 
L 169.237703 -258.380367 
L 169.751032 -259.055858 
L 170.214003 -259.665082 
L 171.305841 -260.683595 
L 173.102463 -261.216 
L 173.645493 -260.938224 
L 177.180969 -260.093321 
L 177.562245 -260.232209 
L 178.093722 -259.618786 
L 178.671414 -258.044721 
L 179.312652 -257.165096 
L 185.384195 -252.176697 
L 189.104532 -250.429021 
L 192.778653 -250.290133 
" style="stroke: #000000"/>
    </defs>
    <g clip-path="url(#p9b72304bee)">
     <use xlink:href="#m77345a6b0e" x="0" y="280.512" style="fill: #f5f5f5; stroke: #000000"/>
    </g>
   </g>
  </g>
 </g>
 <defs>
  <clipPath id="p9b72304bee">
   <rect x="7.2" y="7.2" width="227.132907" height="266.112"/>
  </clipPath>
 </defs>
</svg>
