<?xml version="1.0" encoding="utf-8" standalone="no"?>
<!DOCTYPE svg PUBLIC "-//W3C//DTD SVG 1.1//EN"
  "http://www.w3.org/Graphics/SVG/1.1/DTD/svg11.dtd">
<svg xmlns:xlink="http://www.w3.org/1999/xlink" width="335.208279pt" height="280.512pt" viewBox="0 0 335.208279 280.512" xmlns="http://www.w3.org/2000/svg" version="1.1">
 <metadata>
  <rdf:RDF xmlns:dc="http://purl.org/dc/elements/1.1/" xmlns:cc="http://creativecommons.org/ns#" xmlns:rdf="http://www.w3.org/1999/02/22-rdf-syntax-ns#">
   <cc:Work>
    <dc:type rdf:resource="http://purl.org/dc/dcmitype/StillImage"/>
    <dc:date>2024-03-04T13:11:09.583212</dc:date>
    <dc:format>image/svg+xml</dc:format>
    <dc:creator>
     <cc:Agent>
      <dc:title>Matplotlib v3.8.0, https://matplotlib.org/</dc:title>
     </cc:Agent>
    </dc:creator>
   </cc:Work>
  </rdf:RDF>
 </metadata>
 <defs>
  <style type="text/css">*{stroke-linejoin: round; stroke-linecap: butt}</style>
 </defs>
 <g id="figure_1">
  <g id="patch_1">
   <path d="M 0 280.512 
L 335.208279 280.512 
L 335.208279 0 
L 0 0 
z
" style="fill: #ffffff"/>
  </g>
  <g id="axes_1">
   <g id="PatchCollection_1">
    <path d="M 308.464112 19.296 
L 309.127036 20.798645 
L 308.842519 22.2153 
L 307.562194 25.0763 
L 307.482529 25.950779 
L 307.695917 27.628319 
L 307.630478 28.521744 
L 307.345961 29.157198 
L 306.555005 30.298392 
L 306.316011 31.063561 
L 306.264798 31.464363 
L 306.059946 32.232446 
L 305.399867 33.710314 
L 304.904808 34.565846 
L 304.210587 35.141544 
L 303.146494 35.406802 
L 302.790848 35.231906 
L 302.585996 34.855881 
L 302.264492 34.612484 
L 301.5532 34.835476 
L 301.115045 35.240651 
L 300.944335 35.708497 
L 300.85898 36.218609 
L 300.702495 36.733094 
L 299.578654 38.716702 
L 299.180331 39.750043 
L 299.077905 40.90144 
L 299.200247 41.407179 
L 299.683925 42.495905 
L 299.84041 43.062858 
L 299.831874 43.593375 
L 299.555893 45.579897 
L 297.692308 50.924416 
L 297.427708 52.279857 
L 297.661011 52.943003 
L 298.181677 53.480807 
L 298.793388 54.452935 
L 298.91004 55.560608 
L 298.725104 56.730951 
L 298.705188 57.876517 
L 299.33397 58.904029 
L 300.27003 59.249448 
L 302.332776 59.043946 
L 303.183481 59.37479 
L 303.527747 59.915509 
L 303.561889 60.46643 
L 303.493605 61.004234 
L 303.544818 61.521634 
L 304.321548 63.177312 
L 304.367581 63.459858 
L 304.480878 64.15527 
L 304.330084 64.803842 
L 304.028496 65.443668 
L 303.783812 66.389562 
L 304.381297 68.099167 
L 304.313013 68.603449 
L 303.957367 69.816059 
L 303.937451 70.406331 
L 304.216277 71.253118 
L 305.263299 72.509451 
L 305.78681 73.362067 
L 305.897771 73.612751 
L 307.161025 75.000256 
L 308.128382 76.381932 
L 312.677805 85.265172 
L 313.084664 87.326025 
L 313.426084 92.862929 
L 313.229768 94.590024 
L 311.465529 98.883781 
L 310.732703 100.667313 
L 305.160873 114.227887 
L 305.303131 115.033865 
L 306.162372 115.667861 
L 306.29894 116.080324 
L 306.316011 116.447604 
L 306.182288 116.752214 
L 305.897771 116.976664 
L 305.570577 117.531957 
L 305.473841 118.144092 
L 305.599029 118.769344 
L 306.219275 120.191828 
L 306.424127 121.901433 
L 306.64605 122.748219 
L 307.027303 123.41428 
L 308.572229 125.177811 
L 309.320508 126.748957 
L 309.468456 128.226825 
L 309.420088 129.742587 
L 309.548121 131.427415 
L 310.925182 137.647869 
L 311.027608 139.481358 
L 310.834137 141.189505 
L 310.532549 141.909492 
L 310.191129 142.518712 
L 310.074477 143.130847 
L 310.46142 143.862493 
L 310.46711 143.871238 
L 310.46142 145.1917 
L 308.842519 149.791455 
L 308.566538 151.176046 
L 308.128382 152.458613 
L 307.31751 153.475923 
L 305.897771 154.064738 
L 304.569078 154.985855 
L 302.708338 157.521842 
L 301.450774 157.5918 
L 300.392372 156.656108 
L 298.742175 154.079313 
L 297.441934 153.283538 
L 295.017851 153.499242 
L 292.356076 154.334453 
L 291.478463 154.60983 
L 288.209365 156.227614 
L 286.581929 157.964911 
L 286.212058 158.760686 
L 285.551979 159.375735 
L 284.083872 160.416364 
L 282.345475 162.582155 
L 278.584164 166.368645 
L 277.246935 167.281018 
L 275.204105 168.079708 
L 273.166965 168.315817 
L 268.964652 167.99226 
L 268.281564 168.051746 
L 267.257552 168.140921 
L 266.005678 168.901717 
L 265.100915 170.225094 
L 264.457907 172.058583 
L 263.382434 173.501472 
L 262.221606 173.825029 
L 259.476019 173.19832 
L 259.914175 174.046563 
L 255.171281 173.38779 
L 252.53381 173.355726 
L 250.838091 174.556676 
L 250.109728 174.510037 
L 249.81383 174.125266 
L 249.589062 173.632644 
L 249.094003 173.271193 
L 248.382711 173.160425 
L 247.739703 173.215809 
L 246.447997 173.556856 
L 246.525886 173.782808 
L 246.971508 175.075533 
L 248.601789 178.150781 
L 248.911912 179.541201 
L 248.769654 179.684032 
L 247.955936 181.016154 
L 247.893342 181.389265 
L 247.8592 182.456128 
L 247.785226 182.942921 
L 247.403974 183.747441 
L 246.951592 184.496577 
L 246.655694 185.271948 
L 246.715443 186.163915 
L 248.214846 188.749455 
L 248.682553 189.993092 
L 248.70706 190.058258 
L 248.20062 190.915246 
L 247.483638 190.932736 
L 246.783727 190.55088 
L 245.571686 189.688062 
L 244.806336 189.422804 
L 244.262909 189.332441 
L 243.676804 189.393654 
L 240.575572 190.209834 
L 239.847209 190.084492 
L 239.35215 189.679317 
L 238.561193 188.434643 
L 238.145799 187.95368 
L 237.06748 187.36778 
L 233.269182 186.163915 
L 230.987357 186.120191 
L 228.125119 185.228224 
L 225.6043 184.799729 
L 224.32113 186.163915 
L 224.275607 186.945116 
L 224.136194 187.705912 
L 223.823226 188.399664 
L 222.292526 190.017449 
L 221.791776 191.197994 
L 221.126007 191.999599 
L 219.552629 191.917981 
L 216.93223 190.944396 
L 215.993325 191.136781 
L 214.899281 192.0776 
L 214.735761 192.218219 
L 214.013088 193.011079 
L 213.381461 194.005069 
L 213.216441 195.127316 
L 213.368314 195.382493 
L 213.927733 196.322436 
L 214.599193 196.686802 
L 216.064454 196.95789 
L 216.67332 197.414076 
L 216.92654 198.048073 
L 216.983443 198.798667 
L 216.863946 200.26779 
L 217.717496 203.246845 
L 217.808542 204.105291 
L 217.654903 204.949163 
L 217.046037 206.865727 
L 216.135583 211.108404 
L 216.189641 211.910009 
L 216.892398 212.469675 
L 217.791471 212.698496 
L 218.519834 213.147395 
L 218.667782 214.36292 
L 218.667782 214.371664 
L 219.242506 215.93115 
L 220.374883 216.792511 
L 223.322476 217.522701 
L 224.136194 218.279124 
L 225.479113 220.405563 
L 226.304212 221.342713 
L 228.227545 222.996934 
L 228.967288 223.916593 
L 229.524941 225.084021 
L 230.156568 223.867039 
L 231.004428 223.358385 
L 231.960405 223.509961 
L 232.944833 224.272214 
L 233.58215 225.242885 
L 234.481223 228.475539 
L 235.098624 229.597786 
L 234.711682 229.938832 
L 234.136514 229.919638 
L 232.964749 229.880534 
L 231.991701 229.994216 
L 231.812456 230.195346 
L 231.499487 230.771044 
L 231.618985 230.902216 
L 231.5507 232.35385 
L 231.4625 232.479191 
L 231.744172 233.394479 
L 233.101317 235.990221 
L 234.51821 241.411985 
L 233.291943 240.397591 
L 231.849443 240.03031 
L 228.73114 239.71987 
L 227.271569 239.212673 
L 225.740868 238.425643 
L 224.346736 237.409791 
L 223.322476 236.224873 
L 222.810346 235.61711 
L 220.975213 234.107178 
L 220.892703 235.026838 
L 220.377728 236.262767 
L 219.726185 237.377726 
L 219.214054 237.941765 
L 218.075987 237.959254 
L 217.10294 237.325258 
L 216.360351 236.417258 
L 215.947802 235.611281 
L 215.316175 233.648077 
L 214.923542 232.792546 
L 213.051422 230.180771 
L 212.075529 228.460964 
L 211.15085 227.380984 
L 209.677053 227.225035 
L 208.08945 227.684136 
L 206.809124 228.463879 
L 206.794898 228.472624 
L 205.756412 229.14743 
L 204.504539 229.730415 
L 203.681564 229.906393 
L 198.526175 231.008778 
L 195.786946 231.594511 
L 195.343099 231.542042 
L 194.108297 230.913876 
L 192.549145 230.476636 
L 192.29877 230.34838 
L 191.604549 230.823513 
L 189.368248 233.452777 
L 187.729431 236.819518 
L 187.20023 237.351492 
L 186.380822 237.059999 
L 184.491631 235.388289 
L 183.643771 234.831538 
L 181.212938 234.373276 
L 175.850857 233.362414 
L 175.068436 233.092784 
L 174.436809 232.237252 
L 174.308776 231.498318 
L 173.987273 231.25638 
L 172.769541 231.902036 
L 172.052559 232.415063 
L 171.82032 232.628305 
L 171.298589 233.107358 
L 170.681188 233.924995 
L 170.325542 234.814048 
L 170.513323 236.767049 
L 171.375409 238.886201 
L 173.344265 242.564839 
L 173.372716 244.396871 
L 172.035488 245.701301 
L 166.632515 248.476311 
L 165.918378 249.092818 
L 165.278215 249.808433 
L 163.010617 253.307803 
L 161.681923 254.698223 
L 159.721603 255.495456 
L 157.246307 255.600393 
L 154.525512 255.261425 
L 153.215672 255.098239 
L 149.080677 254.583083 
L 146.713497 254.686563 
L 145.848566 254.881863 
L 145.142965 255.431327 
L 144.608073 256.251879 
L 144.150001 257.142389 
L 141.853951 260.541194 
L 141.273537 261.087743 
L 140.493961 261.216 
L 139.49049 260.996565 
L 139.49049 260.987384 
L 139.373995 260.661463 
L 138.446516 259.495493 
L 137.877482 259.1558 
L 137.079939 259.504673 
L 135.139849 257.475701 
L 134.633543 257.156665 
L 132.948846 257.156665 
L 132.016885 257.530786 
L 131.497138 257.673089 
L 131.031158 257.544557 
L 130.596542 256.605813 
L 130.403877 254.182063 
L 129.736271 253.693181 
L 129.427111 253.527925 
L 128.768466 252.752142 
L 128.396578 252.501963 
L 128.002287 252.570819 
L 127.666243 252.818703 
L 127.321239 252.903626 
L 126.900064 252.501963 
L 126.039793 253.644981 
L 124.614969 253.670229 
L 121.805647 252.921988 
L 120.869206 253.027568 
L 119.542954 253.383327 
L 118.593072 253.307584 
L 113.323911 251.811102 
L 112.396431 251.73077 
L 111.643694 251.494362 
L 110.124778 250.190678 
L 110.030686 249.775244 
L 108.82093 247.53052 
L 108.655148 247.489206 
L 107.866566 247.53052 
L 107.669421 247.436416 
L 107.687343 247.211485 
L 107.74111 246.94524 
L 107.691824 246.724899 
L 107.530523 246.387502 
L 107.436431 245.547452 
L 107.284091 245.219236 
L 106.871878 246.334712 
L 106.916684 247.546587 
L 107.284091 249.630645 
L 107.086946 250.608408 
L 106.616485 251.586171 
L 105.406729 253.307584 
L 104.761525 253.982379 
L 104.062555 254.326661 
L 103.135075 254.446013 
L 101.817785 254.464374 
L 101.105373 254.335842 
L 100.778291 254.032873 
L 100.54082 253.651867 
L 100.110685 253.307584 
L 99.559573 253.1561 
L 98.636574 253.123967 
L 98.228842 252.921988 
L 98.228842 253.307584 
L 99.398273 253.945655 
L 100.433286 254.983094 
L 100.715563 255.958561 
L 99.559573 256.387767 
L 97.74942 256.273006 
L 95.688353 256.73664 
L 94.675743 256.773364 
L 93.931967 256.413015 
L 93.564559 255.616574 
L 93.465986 254.822428 
L 93.510792 254.464374 
L 93.34053 254.306004 
L 93.201632 253.562354 
L 92.964162 253.307584 
L 92.529546 253.270861 
L 92.287594 253.438412 
L 92.103891 253.638096 
L 91.835056 253.693181 
L 91.485571 253.596782 
L 90.970304 253.358079 
L 90.499843 252.94953 
L 90.060747 251.641256 
L 89.523077 251.039909 
L 88.416374 250.190678 
L 87.502336 250.585456 
L 87.22006 249.857872 
L 87.488894 248.825023 
L 88.214748 248.301714 
L 88.658326 247.881689 
L 89.222878 246.903926 
L 89.706781 245.806811 
L 89.921849 245.010371 
L 90.822445 243.688325 
L 92.946239 243.066321 
L 97.252075 242.882704 
L 97.292401 242.880408 
L 97.502988 242.873523 
L 97.502988 242.758762 
L 97.502988 242.490221 
L 96.781615 242.262995 
L 96.59343 241.918712 
L 96.916032 239.474305 
L 97.099736 239.022147 
L 97.556755 238.631959 
L 98.201958 238.289972 
L 98.860603 237.819452 
L 99.357947 237.029897 
L 99.465481 236.382646 
L 99.357947 234.193008 
L 98.52904 232.203053 
L 96.942915 229.37764 
L 95.89446 226.582064 
L 96.723367 224.670147 
L 95.670431 223.836983 
L 95.141723 223.621233 
L 93.510792 223.442206 
L 92.838705 223.148418 
L 92.354803 222.716917 
L 91.7096 220.697125 
L 90.517766 219.673457 
L 88.92716 219.081291 
L 87.260385 218.893083 
L 87.381361 219.090472 
L 87.399283 219.136376 
L 87.448569 219.159329 
L 87.663637 219.27868 
L 86.91538 220.430879 
L 86.507648 220.430879 
L 86.252255 220.045283 
L 86.077512 219.891503 
L 85.378542 219.698705 
L 85.378542 220.045283 
L 85.705624 220.720077 
L 85.3651 221.550946 
L 84.249436 223.162189 
L 85.3651 222.659536 
L 85.472634 223.237931 
L 85.060421 224.263894 
L 83.658 226.846014 
L 83.304034 227.894929 
L 83.151694 229.148118 
L 82.542336 230.626239 
L 82.407918 231.287261 
L 82.448244 231.828933 
L 82.717078 232.719478 
L 82.775326 233.387386 
L 82.470646 234.234321 
L 81.72239 234.785174 
L 80.835235 234.977972 
L 80.113862 234.750746 
L 79.880872 235.019286 
L 79.625479 235.202904 
L 78.980276 235.487511 
L 78.527737 234.158579 
L 77.371748 233.362139 
L 75.99621 232.774563 
L 74.853663 232.058455 
L 72.595451 233.442471 
L 71.641088 234.32613 
L 71.842714 235.136342 
L 71.076535 235.111095 
L 70.41789 235.225856 
L 69.907104 235.492101 
L 69.557619 235.907535 
L 68.491241 235.368159 
L 67.218757 235.232741 
L 66.560112 234.957315 
L 67.299407 233.981847 
L 65.605748 232.643735 
L 65.193535 232.439461 
L 64.84405 231.985008 
L 65.103924 231.016426 
L 65.551981 230.121291 
L 65.793933 229.903245 
L 65.672957 228.154289 
L 65.135288 225.264609 
L 65.005351 223.722222 
L 65.189055 223.189732 
L 65.569904 222.597565 
L 65.968675 221.840143 
L 66.134457 220.816476 
L 66.062767 219.850189 
L 65.838738 219.175395 
L 65.005351 217.736293 
L 64.879895 217.304792 
L 64.817166 216.831977 
L 64.718594 216.368343 
L 64.463201 215.982747 
L 64.100274 215.886347 
L 63.011493 215.867986 
L 62.7561 215.80831 
L 62.863634 215.184011 
L 63.495396 214.803004 
L 63.947934 214.431179 
L 63.508837 213.848194 
L 63.508837 213.501616 
L 63.925531 212.833707 
L 65.399642 211.39231 
L 66.963364 210.428319 
L 67.675776 211.188036 
L 68.0163 211.188036 
L 67.958052 210.318148 
L 67.424863 208.881342 
L 67.299407 208.073425 
L 66.506345 208.390165 
L 66.143418 208.582963 
L 65.793933 208.876751 
L 65.103924 208.179005 
L 64.897817 207.550115 
L 64.866453 206.806464 
L 64.664827 205.76214 
L 64.30638 204.919795 
L 63.490915 203.751529 
L 63.132469 203.033126 
L 63.589488 203.170839 
L 63.750789 203.198381 
L 63.804556 203.33839 
L 63.921051 203.836452 
L 64.261575 203.836452 
L 64.61106 203.216743 
L 65.175613 202.732452 
L 65.888025 202.413417 
L 66.734854 202.294065 
L 67.47415 202.606215 
L 68.347862 203.944327 
L 69.18125 204.222049 
L 67.442786 200.900868 
L 66.923038 200.370673 
L 67.173951 199.760145 
L 67.299407 199.565051 
L 66.923038 199.565051 
L 66.797582 199.771621 
L 66.54667 200.370673 
L 66.775179 200.81824 
L 66.667645 201.327779 
L 66.304719 201.740918 
L 65.793933 201.876336 
L 65.247302 201.60091 
L 64.597618 200.591014 
L 63.132469 199.854249 
L 62.738178 198.635488 
L 62.684411 197.221633 
L 62.7561 196.096976 
L 62.379732 196.482573 
L 62.558955 195.330374 
L 62.7561 194.910349 
L 62.245314 194.889692 
L 61.967518 194.738207 
L 61.626994 194.139155 
L 61.644917 196.094681 
L 61.546344 196.976045 
L 61.250626 197.639363 
L 60.874257 197.639363 
L 60.282821 197.441974 
L 59.5032 197.623297 
L 58.737021 198.008893 
L 58.212793 198.408261 
L 57.083688 196.836037 
L 58.212793 196.096976 
L 58.49507 196.459621 
L 59.332938 197.253766 
L 59.745151 197.253766 
L 59.548006 196.698324 
L 58.947608 195.956968 
L 58.616046 195.330374 
L 58.616046 193.016794 
L 59.243327 192.401675 
L 60.013986 192.65874 
L 60.928024 193.092536 
L 61.967518 193.016794 
L 61.967518 192.596769 
L 61.290951 192.65874 
L 60.73984 192.50037 
L 60.327627 192.195106 
L 60.085675 191.827871 
L 60.085675 191.442274 
L 60.50685 191.442274 
L 60.50685 191.056677 
L 59.924375 191.313742 
L 59.745151 191.442274 
L 59.332938 191.442274 
L 59.27021 191.026839 
L 58.992414 190.285484 
L 58.616046 190.285484 
L 58.616046 191.442274 
L 58.212793 191.056677 
L 58.212793 192.2456 
L 57.863308 192.2456 
L 57.95292 190.682557 
L 58.253119 189.491339 
L 58.831113 188.614565 
L 59.745151 187.976495 
L 60.291782 187.728611 
L 60.775684 187.618441 
L 61.250626 187.733201 
L 61.801737 188.150931 
L 62.478304 188.465376 
L 63.253445 188.313892 
L 63.921051 187.847962 
L 64.261575 187.205301 
L 63.921051 187.205301 
L 63.428187 187.921409 
L 62.666489 187.866324 
L 61.859985 187.384328 
L 61.250626 186.819705 
L 60.874257 186.819705 
L 58.616046 187.976495 
L 58.306886 187.627621 
L 57.917075 186.922989 
L 57.594474 186.117368 
L 57.460056 185.474707 
L 57.164338 185.001892 
L 55.873931 184.313326 
L 54.036894 181.428237 
L 53.69637 181.428237 
L 54.511836 183.273592 
L 57.204663 186.13573 
L 57.863308 187.976495 
L 57.742333 188.919829 
L 57.097129 190.588453 
L 57.083688 191.442274 
L 57.657202 193.856843 
L 57.585512 194.848378 
L 57.083688 196.096976 
L 56.976154 195.378573 
L 56.451926 194.361791 
L 56.33095 193.56076 
L 56.129324 193.19123 
L 55.161519 192.252486 
L 54.825476 191.827871 
L 55.662449 190.542136 
L 55.460442 187.321141 
L 54.83735 185.079562 
L 53.261127 182.700982 
L 50.939471 179.410029 
L 48.412962 174.507122 
L 47.863845 171.705877 
L 46.978997 169.747046 
L 46.645472 169.340384 
L 45.886453 168.414924 
L 43.064047 164.027959 
L 42.637272 161.78638 
L 43.894836 152.551891 
L 44.170817 151.479198 
L 44.754076 150.41525 
L 46.17666 149.164746 
L 46.651803 148.368971 
L 46.576016 147.866253 
L 46.483938 147.255469 
L 45.852311 146.526737 
L 44.079772 145.573556 
L 43.331493 144.760291 
L 43.183544 144.320137 
L 43.092499 143.375701 
L 42.887647 142.912227 
L 42.500704 142.539117 
L 41.129333 141.720022 
L 36.929866 137.455484 
L 35.282514 136.248704 
L 32.15283 135.202245 
L 31.827596 134.955134 
L 31.30497 134.558046 
L 30.912337 133.660249 
L 30.770078 132.456384 
L 30.841208 131.261264 
L 31.102963 130.382413 
L 31.790103 129.772581 
L 31.794339 129.768821 
L 32.360527 127.981971 
L 32.420276 127.432507 
L 32.292243 126.743127 
L 32.081701 126.361271 
L 31.808565 126.012938 
L 31.489906 125.42558 
L 31.137105 124.258152 
L 30.909492 122.096733 
L 30.62782 120.790846 
L 30.2864 120.165594 
L 30.118535 119.534512 
L 30.1982 118.948612 
L 30.821292 118.270891 
L 30.892421 118.062474 
L 30.821292 117.855514 
L 30.351839 117.408073 
L 30.249413 117.169049 
L 30.337613 116.947514 
L 30.62782 116.746384 
L 31.028989 116.543797 
L 31.319196 116.304773 
L 31.489906 116.01328 
L 31.509345 115.718272 
L 31.512667 115.667861 
L 30.576607 115.100908 
L 30.02749 114.359059 
L 29.151178 112.580954 
L 26.653121 109.636877 
L 25.560577 107.740717 
L 22.650069 100.068557 
L 22.595912 99.925798 
L 22.533319 95.961497 
L 22.894655 92.530628 
L 22.661351 88.266089 
L 22.668873 88.111685 
L 22.701184 87.448452 
L 22.661351 86.998096 
L 22.447964 86.485069 
L 21.856169 85.531888 
L 21.782194 84.929955 
L 22.817835 83.599291 
L 24.968782 83.355895 
L 29.424314 83.736293 
L 32.781612 83.455002 
L 33.845704 83.078977 
L 36.434807 81.574874 
L 37.436306 81.295041 
L 35.495902 80.021218 
L 34.315157 78.861077 
L 34.386286 77.67033 
L 36.15029 76.306144 
L 41.686986 73.598176 
L 42.990073 72.47593 
L 43.211996 71.945413 
L 43.28597 70.785272 
L 43.422538 70.211031 
L 43.687139 69.734441 
L 44.668722 68.507256 
L 45.112568 67.523468 
L 46.060008 64.44822 
L 47.075733 62.645338 
L 48.430033 61.295727 
L 51.599549 58.813666 
L 52.413267 57.876517 
L 52.609584 57.155073 
L 52.583977 56.311201 
L 52.768913 55.016974 
L 53.155856 54.135208 
L 54.302458 52.497019 
L 54.697937 51.587562 
L 54.83166 50.478432 
L 54.844459 49.735361 
L 54.848731 49.487357 
L 55.101951 48.576442 
L 55.952656 47.703422 
L 56.88018 47.270555 
L 58.91163 46.686112 
L 59.850535 46.135191 
L 60.515366 45.565386 
L 64.26339 42.353073 
L 66.081452 41.370743 
L 67.193912 41.003462 
L 70.517068 40.509382 
L 72.977488 39.752117 
L 74.651096 39.237016 
L 78.378266 39.245761 
L 79.561855 39.101472 
L 80.517831 38.672978 
L 82.051377 37.559476 
L 82.845178 37.332111 
L 83.05003 37.463283 
L 83.340238 37.744573 
L 83.767013 38.006917 
L 84.341736 38.07979 
L 84.74575 37.919469 
L 86.828413 36.479495 
L 88.950908 35.400972 
L 89.878432 35.243566 
L 90.86286 35.577325 
L 91.605449 36.058288 
L 92.404941 36.231726 
L 93.543008 35.656028 
L 93.878738 35.208587 
L 93.964093 34.752401 
L 94.129113 34.344311 
L 94.658314 34.035329 
L 95.215966 33.995977 
L 95.765084 34.154841 
L 96.217465 34.449248 
L 96.553195 34.809242 
L 96.684073 35.386397 
L 96.564576 36.724349 
L 96.740976 37.238834 
L 97.14499 37.39041 
L 99.034181 37.518667 
L 102.266291 38.339219 
L 103.310468 38.460188 
L 104.030295 38.394602 
L 104.482677 38.283835 
L 104.952129 38.279463 
L 105.745931 38.541806 
L 106.340571 38.897427 
L 106.886843 39.318634 
L 107.5014 39.67717 
L 108.317963 39.837491 
L 109.288165 39.723809 
L 109.575527 39.391507 
L 109.71494 38.944066 
L 110.22707 38.474763 
L 113.208805 38.321729 
L 114.716744 39.575148 
L 116.620161 39.151026 
L 117.121722 38.903938 
L 117.158069 38.886032 
L 118.699979 38.126429 
L 120.708667 37.57988 
L 121.035861 37.747488 
L 121.317533 38.08562 
L 121.707321 38.374198 
L 122.398696 38.394602 
L 122.814091 38.190557 
L 124.179771 36.70103 
L 124.265126 36.400792 
L 124.387468 36.239014 
L 124.862611 36.252131 
L 124.691901 36.456176 
L 124.743114 36.960458 
L 125.056083 37.474943 
L 125.721852 37.718339 
L 126.70628 37.442879 
L 127.434643 36.864265 
L 128.265432 36.415367 
L 129.574209 36.529049 
L 132.555944 37.738744 
L 138.821003 38.652573 
L 139.196565 38.807064 
L 139.560746 38.906172 
L 139.88487 38.899751 
L 140.075722 38.89597 
L 140.380155 38.728361 
L 140.732955 38.412092 
L 141.176801 38.100195 
L 141.762906 37.942789 
L 142.764405 38.138089 
L 143.629336 38.533061 
L 144.528409 38.710872 
L 145.626643 38.254686 
L 146.235509 37.57405 
L 146.76471 36.712689 
L 147.379267 35.912542 
L 148.249888 35.406802 
L 149.13758 35.389312 
L 150.50326 35.973755 
L 151.43932 35.932946 
L 151.789276 35.650198 
L 152.335548 34.752401 
L 152.78793 34.560016 
L 153.237466 34.780093 
L 153.521983 35.785742 
L 153.88901 36.090352 
L 154.719799 35.915457 
L 156.369996 34.612484 
L 157.12681 34.227714 
L 158.040109 34.320992 
L 158.788388 34.780093 
L 159.516751 35.357248 
L 160.415824 35.813434 
L 160.805612 35.830924 
L 161.844098 35.679348 
L 162.350538 35.699752 
L 162.774468 35.880478 
L 163.653624 36.463463 
L 164.09178 36.686455 
L 165.052282 36.859244 
L 167.227155 37.250493 
L 168.257105 37.56822 
L 168.527396 38.253228 
L 168.541622 39.016939 
L 168.282712 41.57333 
L 168.373757 42.054293 
L 170.123535 45.28549 
L 171.093737 46.38296 
L 172.302933 46.964488 
L 175.281824 46.036084 
L 176.977544 43.205689 
L 178.232262 40.398615 
L 179.845472 39.537254 
L 179.842627 41.318274 
L 180.047479 42.624161 
L 180.568145 43.793047 
L 183.842933 48.748423 
L 184.855812 49.742413 
L 185.234219 49.943543 
L 186.028021 50.19277 
L 186.432035 50.443453 
L 187.837548 52.408114 
L 188.29562 52.835151 
L 188.850427 53.056685 
L 189.74381 53.170368 
L 191.305807 53.187857 
L 192.941778 52.954663 
L 194.478169 52.431434 
L 195.786946 51.564243 
L 196.70309 51.316474 
L 197.516807 50.857373 
L 199.053198 49.770105 
L 199.497044 50.06014 
L 199.920974 50.402644 
L 200.285155 50.799074 
L 200.606659 51.246516 
L 201.440293 50.915671 
L 202.433257 51.348538 
L 203.275426 52.228846 
L 203.682285 53.230124 
L 204.544371 52.607787 
L 205.107714 52.639851 
L 205.665367 53.001302 
L 206.550214 53.37587 
L 207.338325 53.463318 
L 208.521915 53.285507 
L 209.1194 53.311742 
L 210.661481 54.135208 
L 211.480889 55.515426 
L 212.101136 57.0822 
L 213.034351 58.46679 
L 217.765864 62.601614 
L 219.006263 63.281436 
L 219.231125 63.404676 
L 220.602496 63.715116 
L 221.956796 63.5752 
L 223.322476 63.028651 
L 224.614182 63.084034 
L 227.46504 63.808394 
L 228.563275 63.74718 
L 229.371302 62.761935 
L 229.268876 60.113724 
L 229.934645 59.255278 
L 230.728447 58.45513 
L 231.71572 57.797814 
L 232.577806 57.06471 
L 232.984665 56.018251 
L 232.714374 54.95576 
L 231.983166 54.132293 
L 231.101164 53.3817 
L 230.35573 52.543658 
L 228.950217 49.195864 
L 228.090977 48.217906 
L 226.201786 47.022786 
L 225.442126 46.304257 
L 224.978364 45.167435 
L 225.194596 43.766813 
L 225.00397 42.68246 
L 224.392259 41.781747 
L 223.322476 40.916014 
L 223.057876 40.311167 
L 222.983901 39.67134 
L 223.072101 39.022769 
L 223.322476 38.403347 
L 224.432092 38.59719 
L 226.856174 39.429401 
L 227.80646 39.385677 
L 227.954409 39.121877 
L 228.090977 38.234281 
L 228.253151 38.004002 
L 228.534823 37.974853 
L 229.129463 38.015662 
L 229.985858 37.963193 
L 231.308861 38.196387 
L 233.24073 38.307154 
L 234.293442 38.187642 
L 235.169754 37.667328 
L 235.983471 36.48241 
L 236.353343 35.2698 
L 236.910996 32.331554 
L 237.423126 31.374 
L 237.747475 31.717962 
L 241.093392 33.7759 
L 241.628284 33.911444 
L 242.382253 33.966828 
L 243.113461 33.762783 
L 243.474766 33.713343 
L 246.436617 33.308054 
L 247.836439 32.727984 
L 248.402627 31.627599 
L 248.621705 31.589705 
L 249.025719 31.251573 
L 249.264713 30.865346 
L 248.627396 30.514097 
L 248.576182 30.135156 
L 248.667228 29.729981 
L 248.786725 29.492415 
L 249.298855 29.195092 
L 249.899185 29.262136 
L 250.601942 29.442861 
L 251.449802 29.492415 
L 251.449802 29.142624 
L 251.045788 28.996877 
L 250.806794 28.721417 
L 250.684452 28.317699 
L 250.664535 27.775523 
L 250.755581 27.221687 
L 251.025872 27.062823 
L 251.390053 27.029302 
L 251.791222 26.831087 
L 252.971966 25.739446 
L 253.29916 26.041141 
L 253.990536 27.115292 
L 254.209614 27.832364 
L 254.499821 29.613384 
L 254.693293 30.152646 
L 255.171281 30.444139 
L 256.434535 30.722514 
L 257.000723 31.063561 
L 258.084732 32.717782 
L 259.003704 33.227903 
L 259.683716 33.605377 
L 263.689712 34.823817 
L 263.928706 35.019117 
L 264.355481 35.468015 
L 264.611546 35.822179 
L 265.038321 36.661678 
L 266.967345 39.391507 
L 268.415535 40.843141 
L 269.180885 41.388232 
L 269.94908 41.689927 
L 270.774179 41.719077 
L 272.908055 40.518127 
L 273.166965 40.273273 
L 273.485624 40.112952 
L 274.068883 40.069228 
L 274.569632 40.238294 
L 275.599583 40.881035 
L 276.157236 40.980143 
L 276.845766 40.790672 
L 277.044928 40.500637 
L 277.067689 40.150846 
L 277.670865 38.710872 
L 278.362241 38.562211 
L 278.598389 38.426666 
L 279.668172 36.750583 
L 281.275692 34.771348 
L 281.312679 34.487142 
L 281.483389 34.440504 
L 282.17761 34.743656 
L 283.079528 35.459271 
L 283.548981 36.131161 
L 284.137931 36.432856 
L 285.361352 36.046628 
L 287.048537 34.922924 
L 288.550785 33.570398 
L 288.997477 32.688632 
L 289.3076 31.723792 
L 289.754291 31.051901 
L 290.576544 31.054816 
L 290.582235 31.057731 
L 290.593615 31.063561 
L 290.602151 31.063561 
L 291.441475 31.204935 
L 291.910928 30.949878 
L 292.491342 29.80577 
L 292.607994 28.674778 
L 292.690504 28.301667 
L 292.909582 28.026207 
L 293.546899 27.641436 
L 293.825726 27.396582 
L 294.798773 26.020737 
L 295.629562 25.278888 
L 296.642441 25.351761 
L 298.130464 26.422997 
L 299.16895 27.360146 
L 299.709532 27.568563 
L 300.742328 27.787183 
L 302.025498 28.359966 
L 302.657125 28.3862 
L 303.368417 27.80613 
L 303.539127 27.373263 
L 303.539127 26.893757 
L 303.473688 26.417167 
L 303.504985 25.971183 
L 303.66716 25.514997 
L 304.062638 24.974278 
L 304.247574 24.656551 
L 304.68573 23.379813 
L 305.041376 23.006702 
L 305.897771 22.585495 
L 307.721523 19.924167 
L 308.464112 19.296 
" clip-path="url(#pca7b964b19)" style="fill: #f5f5f5; stroke: #000000"/>
    <path d="M 102.772148 255.616574 
L 103.551769 256.158245 
L 103.955021 257.349464 
L 103.896774 258.540682 
L 103.336701 259.084649 
L 102.436105 259.070877 
L 101.638562 258.917098 
L 100.984397 258.462644 
L 100.513937 257.544557 
L 100.970956 257.416025 
L 101.199465 257.25536 
L 101.643043 256.773364 
L 101.280116 256.09857 
L 101.450378 255.68543 
L 101.992528 255.529356 
L 102.772148 255.616574 
" clip-path="url(#pca7b964b19)" style="fill: #f5f5f5; stroke: #000000"/>
    <path d="M 75.942443 243.433556 
L 76.179914 243.649306 
L 76.654855 243.722753 
L 77.067069 243.993589 
L 77.102913 244.801506 
L 76.377059 245.05857 
L 75.727376 245.37531 
L 75.203148 245.880258 
L 74.853663 246.724899 
L 74.378721 246.332416 
L 74.127809 245.678279 
L 73.993392 245.067751 
L 73.899299 244.801506 
L 73.939625 244.666088 
L 72.183238 243.993589 
L 71.34537 243.302728 
L 70.700166 242.497107 
L 70.511982 241.666238 
L 71.054132 240.913406 
L 72.165315 240.520924 
L 73.079353 240.784874 
L 73.832091 241.416059 
L 74.477294 242.104625 
L 74.59827 242.290537 
L 74.705804 242.68302 
L 74.853663 242.873523 
L 75.162823 242.960741 
L 75.516788 242.933198 
L 75.821468 243.015826 
L 75.942443 243.433556 
" clip-path="url(#pca7b964b19)" style="fill: #f5f5f5; stroke: #000000"/>
    <path d="M 61.626994 208.073425 
L 61.882387 208.706905 
L 62.164664 209.188901 
L 62.263237 209.59745 
L 61.967518 210.001408 
L 62.258756 210.768011 
L 62.218431 211.821516 
L 61.967518 212.838298 
L 61.626994 213.501616 
L 60.874257 213.866555 
L 60.000544 213.873441 
L 59.476317 213.584244 
L 59.745151 213.081591 
L 59.140273 212.466472 
L 58.952089 211.28673 
L 58.992414 209.230215 
L 58.57572 206.820236 
L 58.562279 205.433924 
L 58.992414 204.222049 
L 59.082026 204.467637 
L 59.234365 204.736178 
L 59.332938 204.990947 
L 59.951258 204.453866 
L 60.484447 204.396485 
L 60.914582 204.729292 
L 61.600111 206.150032 
L 61.635956 206.76056 
L 61.573227 207.343545 
L 61.626994 208.073425 
" clip-path="url(#pca7b964b19)" style="fill: #f5f5f5; stroke: #000000"/>
    <path d="M 61.250626 199.950648 
L 61.528422 200.480843 
L 62.146742 201.408111 
L 62.379732 201.876336 
L 62.379732 202.294065 
L 62.124339 202.691138 
L 61.506019 203.909899 
L 61.250626 204.222049 
L 60.703995 204.17844 
L 60.659189 203.613816 
L 60.874257 202.294065 
L 60.376913 201.380569 
L 59.65554 200.324768 
L 59.355341 199.282739 
L 60.085675 198.408261 
L 61.035558 198.97977 
L 61.250626 199.179454 
L 61.371601 199.470947 
L 61.367121 199.744078 
L 61.304393 199.929991 
L 61.250626 199.950648 
" clip-path="url(#pca7b964b19)" style="fill: #f5f5f5; stroke: #000000"/>
    <path d="M 77.981107 251.73077 
L 78.079679 251.758312 
L 78.24098 251.964882 
L 78.24098 252.380316 
L 78.00799 252.820998 
L 77.757078 253.445298 
L 77.394151 253.918112 
L 76.802714 253.550878 
L 75.669128 251.774379 
L 75.283798 250.876948 
L 75.498866 250.105755 
L 76.238161 249.802786 
L 76.860962 249.727044 
L 77.174602 249.846395 
L 77.286617 250.241173 
L 76.753428 251.014661 
L 76.717583 251.274021 
L 76.695181 251.558628 
L 76.789273 252.003901 
L 77.067069 252.267851 
L 77.461359 252.297688 
L 77.837728 251.978653 
L 77.981107 251.73077 
" clip-path="url(#pca7b964b19)" style="fill: #f5f5f5; stroke: #000000"/>
   </g>
  </g>
 </g>
 <defs>
  <clipPath id="pca7b964b19">
   <rect x="7.2" y="7.2" width="320.808279" height="266.112"/>
  </clipPath>
 </defs>
</svg>
