<?xml version="1.0" encoding="utf-8" standalone="no"?>
<!DOCTYPE svg PUBLIC "-//W3C//DTD SVG 1.1//EN"
  "http://www.w3.org/Graphics/SVG/1.1/DTD/svg11.dtd">
<svg xmlns:xlink="http://www.w3.org/1999/xlink" width="192.305037pt" height="280.512pt" viewBox="0 0 192.305037 280.512" xmlns="http://www.w3.org/2000/svg" version="1.1">
 <metadata>
  <rdf:RDF xmlns:dc="http://purl.org/dc/elements/1.1/" xmlns:cc="http://creativecommons.org/ns#" xmlns:rdf="http://www.w3.org/1999/02/22-rdf-syntax-ns#">
   <cc:Work>
    <dc:type rdf:resource="http://purl.org/dc/dcmitype/StillImage"/>
    <dc:date>2024-03-04T13:11:09.608948</dc:date>
    <dc:format>image/svg+xml</dc:format>
    <dc:creator>
     <cc:Agent>
      <dc:title>Matplotlib v3.8.0, https://matplotlib.org/</dc:title>
     </cc:Agent>
    </dc:creator>
   </cc:Work>
  </rdf:RDF>
 </metadata>
 <defs>
  <style type="text/css">*{stroke-linejoin: round; stroke-linecap: butt}</style>
 </defs>
 <g id="figure_1">
  <g id="patch_1">
   <path d="M 0 280.512 
L 192.305037 280.512 
L 192.305037 0 
L 0 0 
z
" style="fill: #ffffff"/>
  </g>
  <g id="axes_1">
   <g id="PatchCollection_1">
    <defs>
     <path id="m6aebdfd814" d="M 74.435225 -30.119151 
L 68.154996 -30.118057 
L 61.872597 -30.116963 
L 55.592369 -30.116963 
L 55.277838 -30.116908 
L 50.664763 -30.116105 
L 49.31214 -30.115869 
L 46.486688 -30.115869 
L 46.061351 -30.18589 
L 44.733258 -30.854371 
L 44.368684 -30.940803 
L 43.991089 -31.081939 
L 43.459418 -31.448454 
L 42.973319 -31.881709 
L 42.704228 -32.21759 
L 42.658656 -32.654127 
L 42.725929 -33.091757 
L 42.708568 -33.487813 
L 42.467347 -33.844982 
L 42.7322 -34.095672 
L 42.7322 -34.227478 
L 42.87915 -34.59016 
L 42.957752 -38.527973 
L 43.593399 -41.36568 
L 43.95565 -42.236634 
L 44.03596 -42.584671 
L 44.109435 -45.270758 
L 44.323026 -46.23389 
L 44.645976 -47.110874 
L 45.038984 -47.723385 
L 45.486671 -48.271284 
L 45.746398 -48.850197 
L 45.794242 -49.52215 
L 44.989431 -52.610547 
L 44.620345 -53.110204 
L 44.620345 -53.242871 
L 44.820267 -53.237702 
L 44.953548 -53.274746 
L 45.194478 -53.387599 
L 45.194478 -53.530605 
L 44.868111 -53.50476 
L 44.64085 -53.559033 
L 44.471686 -53.67361 
L 44.323026 -53.820061 
L 44.188037 -54.013032 
L 43.637826 -55.05542 
L 42.076048 -57.028203 
L 41.196052 -57.797503 
L 39.160956 -59.193958 
L 39.62573 -59.297335 
L 40.138349 -59.554917 
L 41.862457 -60.880731 
L 42.325522 -61.059918 
L 42.887694 -61.074563 
L 42.216163 -61.270119 
L 41.628361 -61.038381 
L 41.083276 -60.68173 
L 40.521104 -60.495651 
L 39.084063 -60.365567 
L 38.827754 -60.484451 
L 38.72523 -60.754955 
L 38.822627 -61.044412 
L 39.160956 -61.21843 
L 38.540687 -62.707063 
L 37.544498 -64.102657 
L 37.25914 -64.638496 
L 37.141238 -65.134707 
L 37.667527 -64.622989 
L 37.787138 -64.555794 
L 37.889661 -64.461032 
L 38.058826 -64.001003 
L 38.156223 -63.833876 
L 38.422785 -63.7081 
L 38.786744 -63.664165 
L 39.591556 -63.675364 
L 39.379673 -63.788218 
L 38.720104 -63.976881 
L 38.508221 -64.095765 
L 38.426202 -64.183636 
L 38.366397 -64.294766 
L 38.222864 -64.48343 
L 38.050282 -64.922784 
L 38.111796 -65.46293 
L 38.356144 -65.968617 
L 38.720104 -66.302871 
L 39.516371 -65.586983 
L 39.950389 -65.482744 
L 40.162271 -66.001353 
L 40.869685 -65.646425 
L 41.139664 -65.442255 
L 41.310537 -65.134707 
L 41.433566 -65.359553 
L 41.436983 -65.581814 
L 41.339585 -65.796322 
L 41.180674 -66.001353 
L 41.247314 -66.01083 
L 41.46774 -66.001353 
L 40.480095 -66.359728 
L 40.017029 -66.633678 
L 39.878622 -67.026512 
L 40.15031 -67.310799 
L 40.691977 -67.499463 
L 41.286615 -67.59681 
L 41.729176 -67.605425 
L 41.727467 -67.698464 
L 41.698419 -67.763075 
L 41.597604 -67.894881 
L 41.652283 -67.92331 
L 41.698419 -67.920725 
L 41.729176 -67.943985 
L 41.729176 -68.052531 
L 39.637691 -67.690711 
L 39.003753 -67.750153 
L 38.673968 -68.113696 
L 38.774783 -68.65212 
L 39.11482 -69.138855 
L 39.519789 -69.352501 
L 39.864952 -69.669525 
L 40.773996 -71.060811 
L 41.390847 -71.376112 
L 41.477992 -71.489827 
L 41.570264 -71.70175 
L 41.522419 -71.825803 
L 41.180674 -71.67849 
L 40.785957 -71.386449 
L 40.606541 -71.190894 
L 40.449338 -70.941927 
L 40.305804 -70.941927 
L 40.305804 -71.376112 
L 39.933301 -71.091824 
L 39.24981 -70.042545 
L 38.873889 -69.629035 
L 38.41595 -69.390406 
L 37.843526 -69.228448 
L 37.423178 -69.308566 
L 37.428304 -69.786686 
L 37.141238 -69.497229 
L 36.736269 -69.710876 
L 36.356931 -70.100264 
L 36.146758 -70.58786 
L 36.266369 -71.086655 
L 35.96905 -71.406263 
L 35.72641 -71.311501 
L 35.13519 -70.653332 
L 35.188161 -70.582691 
L 35.280432 -70.458638 
L 35.446179 -70.394889 
L 35.637556 -70.353538 
L 35.849439 -70.22087 
L 35.869944 -70.124385 
L 36.085243 -69.619559 
L 36.324465 -69.365423 
L 36.673046 -69.081997 
L 36.859298 -68.729653 
L 36.567105 -68.327343 
L 36.266369 -68.44795 
L 36.116001 -68.480686 
L 35.96905 -68.543574 
L 35.692236 -68.760666 
L 35.422256 -69.207773 
L 35.302645 -69.295644 
L 35.208665 -69.347332 
L 35.152277 -69.435203 
L 35.13519 -69.629035 
L 34.875463 -69.598022 
L 34.69092 -69.51532 
L 34.583271 -69.365423 
L 34.547387 -69.13024 
L 35.114685 -68.78651 
L 35.265053 -68.615938 
L 35.312898 -68.367832 
L 35.261636 -68.180892 
L 35.177908 -67.977583 
L 35.13519 -67.677789 
L 35.196704 -67.515831 
L 35.528198 -67.331475 
L 35.692236 -67.17124 
L 35.422256 -67.047187 
L 35.090763 -66.957594 
L 34.332087 -66.881783 
L 33.93908 -66.92658 
L 33.221413 -67.126443 
L 32.891629 -67.17124 
L 32.266234 -67.489125 
L 32.032138 -68.211905 
L 32.138079 -68.994126 
L 32.527669 -69.497229 
L 32.527669 -69.629035 
L 32.008216 -69.511013 
L 31.77412 -69.158669 
L 31.649383 -68.789095 
L 30.935134 -68.124034 
L 30.313156 -68.233442 
L 30.102983 -68.196398 
L 30.111526 -68.584063 
L 30.155953 -68.880411 
L 30.101274 -69.125071 
L 29.803955 -69.352501 
L 29.557898 -69.395575 
L 29.175143 -69.395575 
L 28.80264 -69.355947 
L 28.590757 -69.280137 
L 28.269516 -69.331826 
L 27.152008 -70.041683 
L 25.330502 -70.910052 
L 25.074193 -71.086655 
L 25.036601 -71.683659 
L 25.436444 -72.952616 
L 25.489414 -73.557373 
L 24.845223 -74.159546 
L 24.341148 -74.871126 
L 23.977189 -75.686945 
L 23.469696 -78.702978 
L 23.580764 -79.223311 
L 24.125848 -80.165767 
L 24.329187 -80.667147 
L 23.864413 -80.145092 
L 23.591016 -79.996917 
L 23.469696 -80.298435 
L 23.520958 -80.555155 
L 23.611521 -80.81446 
L 23.669618 -81.088409 
L 23.61323 -81.389065 
L 23.449192 -81.542408 
L 22.989543 -81.708673 
L 22.825505 -82.052403 
L 22.661467 -82.290171 
L 22.466672 -82.496925 
L 22.311178 -82.558952 
L 22.229159 -82.283279 
L 22.880185 -81.289995 
L 23.027135 -80.810152 
L 22.904107 -80.482791 
L 22.712729 -80.403535 
L 22.541856 -80.543094 
L 22.466672 -80.877347 
L 21.449979 -81.680245 
L 21.438017 -81.408018 
L 21.468775 -81.185756 
L 21.567881 -81.023799 
L 21.749006 -80.943681 
L 21.470483 -80.431964 
L 21.378212 -80.364768 
L 21.236387 -80.416457 
L 20.819457 -80.663701 
L 20.732312 -80.737788 
L 20.576818 -80.916975 
L 20.231655 -81.047059 
L 19.886491 -81.242614 
L 19.72758 -81.60788 
L 19.503736 -82.390102 
L 18.567352 -83.747791 
L 18.437489 -84.583424 
L 18.092326 -84.050169 
L 18.232442 -83.435936 
L 18.550265 -82.799304 
L 19.079971 -80.835135 
L 19.271349 -80.667147 
L 19.51228 -80.548263 
L 19.72758 -80.364768 
L 19.855734 -79.816869 
L 19.414882 -79.566179 
L 16.790274 -79.367177 
L 16.55447 -79.480892 
L 16.656993 -79.743643 
L 16.91672 -80.033099 
L 17.149107 -80.232962 
L 16.896215 -80.353569 
L 16.66212 -80.355292 
L 16.496373 -80.241577 
L 16.364801 -79.786717 
L 16.195636 -79.704015 
L 15.964958 -79.719522 
L 15.717192 -79.786717 
L 15.395951 -80.111494 
L 15.286593 -80.617181 
L 15.389116 -80.996231 
L 15.717192 -80.943681 
L 15.826551 -81.21677 
L 16.274238 -81.967978 
L 15.985463 -81.754332 
L 15.72061 -81.750024 
L 15.51898 -81.930934 
L 15.416456 -82.271218 
L 15.467718 -82.55206 
L 15.624921 -82.840655 
L 15.990589 -83.269671 
L 16.600605 -83.688349 
L 16.718508 -83.859783 
L 16.725342 -84.119949 
L 16.643323 -84.373223 
L 16.600605 -84.624775 
L 16.718508 -84.884941 
L 16.862041 -84.727291 
L 16.786857 -85.565508 
L 16.826158 -85.989355 
L 17.070506 -86.173711 
L 17.157651 -86.214201 
L 17.177507 -86.21464 
L 17.535571 -86.565291 
L 17.457448 -86.868898 
L 17.394515 -87.161563 
L 17.327242 -87.612323 
L 17.5117 -87.936716 
L 18.084602 -88.362859 
L 18.212638 -88.745786 
L 19.03727 -90.058678 
L 19.03727 -90.06196 
L 19.349763 -90.501779 
L 19.54507 -90.919716 
L 19.855393 -91.843663 
L 19.985598 -92.126482 
L 20.393574 -92.754482 
L 20.604072 -92.980409 
L 20.838442 -93.087628 
L 21.085831 -93.130844 
L 21.30501 -93.231499 
L 21.456916 -93.504472 
L 22.018968 -96.380799 
L 21.997267 -96.606178 
L 21.823661 -97.117659 
L 21.79979 -97.397196 
L 21.934335 -97.909223 
L 22.385713 -98.804725 
L 22.524598 -99.27846 
L 22.513748 -99.72539 
L 22.439965 -100.134575 
L 22.409584 -100.548683 
L 22.539789 -101.007101 
L 22.854451 -101.419021 
L 23.249407 -101.799759 
L 23.56841 -102.212773 
L 23.661723 -102.723707 
L 23.446885 -103.28825 
L 23.051929 -103.705093 
L 22.583191 -104.069968 
L 22.160024 -104.482435 
L 21.884423 -105.017985 
L 22.045009 -105.322138 
L 22.416094 -105.598393 
L 22.785009 -106.052982 
L 22.878322 -106.584703 
L 22.693865 -106.953953 
L 22.468176 -107.289835 
L 22.429115 -107.71926 
L 22.652633 -108.067723 
L 23.394803 -108.567716 
L 23.676914 -108.927667 
L 24.034978 -109.273943 
L 24.486356 -109.209392 
L 24.944244 -109.04364 
L 25.315329 -109.089591 
L 25.391282 -109.365845 
L 25.436854 -109.968681 
L 25.549698 -110.112552 
L 25.886062 -110.287604 
L 26.150812 -110.572611 
L 26.60002 -111.226322 
L 26.60002 -111.229604 
L 28.537907 -113.255287 
L 31.417611 -115.589499 
L 31.953622 -116.344412 
L 32.552566 -117.616276 
L 32.839017 -117.943952 
L 33.127638 -118.10314 
L 33.375028 -118.128303 
L 33.639779 -118.105328 
L 33.971802 -118.125021 
L 34.557725 -118.481143 
L 35.19356 -119.715808 
L 35.812035 -120.103659 
L 35.937722 -120.150579 
L 36.777723 -120.464157 
L 37.20523 -120.679143 
L 37.537253 -121.005725 
L 38.027693 -121.940066 
L 38.340185 -122.203738 
L 38.963 -122.330104 
L 39.217763 -122.33163 
L 39.967749 -122.336122 
L 40.23033 -122.54509 
L 40.250263 -122.60854 
L 41.842704 -127.677403 
L 42.235489 -128.122692 
L 42.734609 -128.086587 
L 43.142585 -127.885824 
L 43.550561 -127.765476 
L 44.043171 -127.973351 
L 49.184105 -132.349656 
L 49.676714 -132.630834 
L 49.969676 -132.568472 
L 50.141113 -132.224932 
L 50.442754 -130.666967 
L 50.661933 -130.2545 
L 51.102461 -129.909866 
L 51.681874 -129.737002 
L 57.089728 -129.814681 
L 57.102748 -130.290605 
L 57.189552 -130.62211 
L 57.360989 -130.908758 
L 57.619229 -131.256674 
L 57.751604 -131.356235 
L 57.870959 -131.384681 
L 57.959932 -131.454702 
L 58.083627 -133.076123 
L 58.261574 -133.872611 
L 58.521985 -134.641747 
L 58.825797 -135.238018 
L 59.214242 -134.739119 
L 59.327086 -133.697559 
L 59.706852 -133.394499 
L 60.260223 -133.210695 
L 61.729372 -132.42843 
L 63.45459 -131.77636 
L 64.142507 -131.308096 
L 64.485381 -130.463469 
L 64.678519 -129.499587 
L 65.099515 -128.574546 
L 65.770072 -127.900594 
L 67.727489 -127.540643 
L 68.443618 -126.975006 
L 68.847254 -126.124361 
L 68.912356 -125.115623 
L 68.877635 -124.274825 
L 68.944908 -123.44825 
L 69.298632 -121.813153 
L 69.710948 -120.804962 
L 70.055992 -120.484944 
L 70.620214 -120.406171 
L 71.919758 -120.542914 
L 72.53857 -120.608028 
L 72.651414 -120.570829 
L 72.885784 -120.421488 
L 73.03769 -120.399606 
L 73.163555 -120.45431 
L 73.387074 -120.655073 
L 73.465197 -120.701024 
L 73.695226 -120.680237 
L 74.150944 -120.567547 
L 74.380973 -120.554418 
L 74.899623 -120.678049 
L 75.437805 -120.94555 
L 75.847951 -121.330118 
L 75.980326 -121.813153 
L 76.108361 -122.690602 
L 76.423024 -123.406675 
L 76.976396 -123.856888 
L 77.805369 -123.939491 
L 78.376101 -124.260055 
L 78.873051 -124.954247 
L 79.480675 -126.380922 
L 79.61739 -126.944372 
L 79.671643 -127.518762 
L 79.569649 -127.898953 
L 79.10742 -128.423016 
L 78.970705 -128.739751 
L 79.087889 -129.30703 
L 79.467654 -129.844221 
L 80.758856 -131.034576 
L 81.974104 -131.803712 
L 82.052227 -131.914214 
L 82.12818 -132.191015 
L 82.212813 -132.290576 
L 82.312637 -132.316834 
L 82.527476 -132.294953 
L 82.761845 -132.35075 
L 83.089528 -132.363879 
L 83.232754 -132.415301 
L 83.354278 -132.581601 
L 83.39117 -132.785099 
L 83.451932 -132.975468 
L 83.764425 -133.177872 
L 84.65633 -133.990771 
L 84.89721 -134.136283 
L 85.183661 -134.224903 
L 85.41803 -134.203022 
L 85.606828 -134.115496 
L 85.784775 -134.065168 
L 85.986593 -134.148318 
L 86.17756 -134.628618 
L 85.91715 -135.159245 
L 85.099028 -136.054199 
L 84.055216 -137.571683 
L 83.760085 -137.823321 
L 83.260965 -137.918506 
L 83.13944 -138.042136 
L 83.306537 -138.230317 
L 83.681961 -138.513683 
L 84.107298 -138.915209 
L 85.40935 -140.860477 
L 86.644204 -142.070642 
L 87.959201 -143.359348 
L 88.519083 -144.19741 
L 88.848936 -144.427167 
L 89.111517 -144.667863 
L 89.19398 -145.098929 
L 88.894508 -146.340706 
L 88.859787 -146.787089 
L 88.924889 -147.253166 
L 89.068115 -147.687514 
L 89.823305 -149.064957 
L 91.908757 -151.974106 
L 92.703009 -152.806698 
L 92.822364 -153.114134 
L 92.765941 -153.464238 
L 92.620546 -153.983924 
L 92.505531 -154.796823 
L 92.503361 -155.619022 
L 92.622716 -156.133238 
L 93.4799 -157.355321 
L 93.576694 -157.629658 
L 93.640486 -157.810457 
L 93.660017 -158.231676 
L 93.325824 -159.941718 
L 93.273741 -160.905052 
L 93.436498 -161.818606 
L 93.918257 -162.505686 
L 94.376145 -162.696602 
L 95.183417 -162.56039 
L 95.626115 -162.622752 
L 95.875675 -162.801634 
L 96.042771 -163.045066 
L 96.177316 -163.301627 
L 96.335733 -163.517707 
L 96.967228 -163.957526 
L 97.149515 -164.152271 
L 97.136494 -164.738696 
L 97.077902 -165.03902 
L 96.585293 -166.239222 
L 96.413856 -166.545563 
L 96.991099 -166.359023 
L 97.290571 -166.310884 
L 97.581362 -166.338236 
L 97.913385 -166.482654 
L 98.156435 -166.653877 
L 98.419015 -166.790637 
L 98.80095 -166.834947 
L 99.074381 -166.75672 
L 99.751448 -166.445455 
L 100.06177 -166.385281 
L 100.385113 -166.462961 
L 102.535668 -167.598612 
L 102.908923 -168.008891 
L 103.217075 -168.6905 
L 103.401533 -169.28896 
L 103.553439 -169.537863 
L 103.792148 -169.655476 
L 104.09162 -169.643441 
L 104.358541 -169.595302 
L 104.618951 -169.590925 
L 104.898892 -169.71018 
L 105.35244 -170.335991 
L 105.586809 -171.244075 
L 106.059888 -175.234172 
L 105.907982 -176.006043 
L 105.931853 -176.861063 
L 106.35285 -177.869255 
L 107.322878 -179.611572 
L 107.453083 -179.976446 
L 107.533376 -180.367578 
L 107.552907 -181.205641 
L 107.38364 -181.840205 
L 107.179652 -182.268536 
L 106.582879 -182.36208 
L 106.483055 -182.432101 
L 106.630621 -182.816669 
L 106.769506 -182.917871 
L 108.002115 -183.502108 
L 108.175722 -183.621362 
L 108.407921 -183.853853 
L 109.015545 -184.636665 
L 109.297656 -184.859309 
L 110.751614 -185.49278 
L 112.403049 -185.747152 
L 113.770204 -186.290908 
L 114.358297 -187.792528 
L 114.462461 -189.163953 
L 114.733722 -190.591176 
L 114.93771 -191.097733 
L 115.135188 -191.446197 
L 115.18727 -191.78536 
L 114.957241 -192.261831 
L 114.347446 -192.894754 
L 114.132608 -193.233918 
L 114.097887 -193.712576 
L 114.258473 -194.142001 
L 114.753252 -194.919342 
L 114.840056 -195.421524 
L 114.757593 -195.827973 
L 114.505863 -196.519976 
L 114.499352 -196.942837 
L 114.872607 -197.66438 
L 115.573545 -197.932976 
L 117.22064 -198.111858 
L 117.611256 -198.282534 
L 117.911193 -198.459285 
L 118.106035 -198.574105 
L 118.553073 -198.91491 
L 118.798293 -199.231098 
L 119.132486 -199.94553 
L 119.178058 -200.228349 
L 119.143336 -200.473969 
L 119.000111 -200.905035 
L 119.006621 -201.180195 
L 119.47536 -202.495275 
L 120.191488 -206.491389 
L 120.979229 -209.139601 
L 121.556472 -210.35895 
L 125.296615 -215.683273 
L 125.410577 -215.93617 
L 125.561366 -216.270792 
L 125.42248 -217.074391 
L 125.515794 -217.508739 
L 125.747993 -217.87252 
L 126.086526 -218.160809 
L 126.885118 -218.621415 
L 127.136848 -218.950185 
L 127.497082 -219.792077 
L 128.000542 -220.67992 
L 128.69497 -221.55901 
L 129.484881 -222.357139 
L 130.292153 -223.003738 
L 130.938839 -223.005926 
L 131.765641 -222.768512 
L 133.23696 -222.145435 
L 133.670977 -222.081979 
L 134.137545 -222.200686 
L 134.584583 -222.431536 
L 134.960008 -222.704508 
L 135.537251 -223.30078 
L 135.793321 -223.409641 
L 136.359713 -223.477473 
L 136.52464 -223.545306 
L 138.395254 -225.263553 
L 138.79021 -225.483463 
L 140.033669 -225.870766 
L 140.474197 -226.128421 
L 141.244577 -226.815501 
L 141.685104 -227.080814 
L 142.770147 -227.472494 
L 143.130382 -227.665051 
L 143.382112 -228.052354 
L 143.60129 -228.559459 
L 143.761877 -229.084615 
L 143.84 -229.526622 
L 143.83132 -230.06272 
L 143.709795 -230.488315 
L 143.475425 -230.849361 
L 143.132552 -231.191807 
L 143.021877 -231.332942 
L 142.948095 -231.483925 
L 142.861291 -231.620685 
L 142.705045 -231.714775 
L 142.346981 -231.710399 
L 142.262347 -231.742127 
L 142.07138 -231.998141 
L 142.040999 -232.18304 
L 142.138652 -232.369033 
L 142.909033 -233.37996 
L 143.065279 -233.735534 
L 143.514487 -235.890865 
L 143.753196 -236.559346 
L 143.83132 -237.269401 
L 143.826979 -237.420384 
L 143.790088 -237.651234 
L 143.392962 -238.564788 
L 143.351731 -238.97069 
L 143.727155 -239.215763 
L 143.679413 -239.437861 
L 144.041818 -240.956439 
L 144.167683 -241.202606 
L 144.271847 -241.329519 
L 144.323929 -241.461902 
L 144.729735 -241.871087 
L 144.695014 -242.096467 
L 144.59302 -242.297777 
L 144.34346 -242.429066 
L 144.167683 -242.362327 
L 143.876891 -242.211345 
L 143.60346 -242.115066 
L 143.484106 -242.212439 
L 143.34739 -242.652258 
L 143.015367 -242.924683 
L 142.5922 -243.147874 
L 142.179884 -243.441087 
L 142.386042 -243.553777 
L 142.466335 -243.585505 
L 142.466335 -243.743052 
L 142.236306 -243.840425 
L 141.613492 -244.304313 
L 141.463756 -244.453107 
L 141.422524 -244.648947 
L 141.531028 -244.960759 
L 141.463756 -245.176292 
L 140.890853 -245.478257 
L 139.54757 -245.803198 
L 135.231269 -245.933393 
L 134.907926 -246.001226 
L 134.630155 -246.168619 
L 134.439187 -246.490278 
L 134.423997 -246.737539 
L 134.549862 -247.385232 
L 134.556372 -247.791135 
L 134.447153 -248.140158 
L 134.415316 -248.241894 
L 134.387105 -249.877539 
L 133.206579 -255.5134 
L 132.026052 -261.149261 
L 139.443406 -261.216 
L 139.80581 -260.986244 
L 140.763523 -259.508871 
L 140.786689 -259.473136 
L 141.083991 -259.155307 
L 141.259768 -258.841854 
L 141.3227 -258.491203 
L 141.290149 -258.060136 
L 140.964636 -257.091879 
L 140.953786 -256.822189 
L 141.170794 -256.5153 
L 141.81314 -256.031172 
L 142.190735 -255.649339 
L 142.190735 -254.850116 
L 142.234136 -254.661935 
L 142.312259 -254.562921 
L 142.435954 -254.548698 
L 142.618241 -254.615984 
L 142.618241 -254.408656 
L 142.646453 -254.213364 
L 142.741936 -254.097391 
L 142.943754 -254.128026 
L 143.34522 -254.43382 
L 143.484106 -254.466642 
L 143.646862 -254.399904 
L 143.688094 -254.291043 
L 143.696774 -254.159754 
L 143.770557 -254.033388 
L 144.137302 -253.800897 
L 144.271847 -253.67836 
L 144.614721 -253.484709 
L 145.235365 -253.64882 
L 145.569558 -253.532848 
L 145.712784 -253.184932 
L 145.404632 -252.490193 
L 145.647681 -252.141183 
L 145.966684 -252.664151 
L 146.077358 -252.731984 
L 146.270496 -252.663057 
L 146.454953 -252.489099 
L 146.593839 -252.27466 
L 146.650261 -252.074444 
L 146.806507 -251.733092 
L 147.171082 -251.690423 
L 147.863339 -251.851252 
L 148.106389 -251.41581 
L 148.800816 -248.816284 
L 148.722693 -248.7025 
L 148.553427 -248.376466 
L 148.514365 -248.237518 
L 148.501345 -248.002291 
L 148.531726 -247.962905 
L 148.625039 -247.949776 
L 148.800816 -247.791135 
L 148.759585 -247.896166 
L 148.844218 -247.908201 
L 148.980934 -247.86225 
L 149.087268 -247.791135 
L 149.108969 -247.706891 
L 149.074247 -247.464006 
L 149.087268 -247.371009 
L 149.375889 -246.851323 
L 149.733953 -245.247407 
L 149.692722 -245.058132 
L 149.662341 -243.585505 
L 149.625449 -243.328397 
L 149.519115 -242.972822 
L 149.519115 -242.718996 
L 149.579877 -242.561449 
L 149.684041 -242.468453 
L 149.773015 -242.356857 
L 149.803396 -242.14023 
L 149.716593 -241.999094 
L 149.558176 -241.962989 
L 149.451842 -241.869993 
L 149.519115 -241.561463 
L 149.625449 -241.414857 
L 150.16363 -241.049436 
L 150.625859 -240.514432 
L 150.92099 -240.283582 
L 151.17272 -240.319687 
L 151.530785 -240.585547 
L 151.90838 -240.626028 
L 152.298995 -240.463011 
L 152.698291 -240.117282 
L 152.596297 -239.985993 
L 152.518174 -239.757331 
L 152.511663 -239.5046 
L 152.620168 -239.302195 
L 152.774244 -239.131519 
L 152.787264 -239.001324 
L 152.735182 -238.839401 
L 152.698291 -238.579011 
L 152.913129 -238.269387 
L 153.273364 -237.963046 
L 153.364507 -237.726725 
L 152.763393 -237.632635 
L 152.67442 -237.538544 
L 152.722162 -237.328481 
L 152.826326 -237.108572 
L 152.906619 -236.988224 
L 152.991252 -236.786914 
L 152.848027 -236.599827 
L 152.646209 -236.424774 
L 152.542045 -236.259569 
L 152.587616 -235.728942 
L 152.730842 -235.396342 
L 152.978232 -235.224572 
L 153.336296 -235.176433 
L 153.473012 -234.948865 
L 153.989492 -233.730064 
L 153.872307 -233.514531 
L 153.531604 -233.195061 
L 153.414419 -232.994845 
L 153.451311 -232.907318 
L 153.67483 -232.697256 
L 153.700871 -232.560496 
L 153.614067 -232.459841 
L 153.473012 -232.444524 
L 153.336296 -232.453277 
L 153.258173 -232.429207 
L 153.093246 -231.977353 
L 153.056355 -231.564887 
L 153.117117 -231.144761 
L 153.449141 -230.194009 
L 153.670489 -229.818741 
L 154.260753 -229.078051 
L 154.508143 -228.393159 
L 154.228201 -227.808922 
L 153.258173 -226.752044 
L 153.067205 -226.376229 
L 152.93266 -225.964856 
L 152.800285 -224.863121 
L 152.698291 -224.537634 
L 152.698291 -224.295296 
L 152.763393 -224.137202 
L 152.874068 -224.043111 
L 152.967381 -223.930421 
L 152.984742 -223.716529 
L 152.843687 -223.366972 
L 152.359757 -222.665122 
L 152.253423 -222.330881 
L 152.105857 -221.019631 
L 152.265386 -218.853128 
L 152.398819 -217.041022 
L 152.971722 -215.687649 
L 153.18656 -215.371461 
L 153.318935 -214.998381 
L 153.247323 -214.476506 
L 152.984742 -213.571705 
L 153.043334 -212.77467 
L 154.647028 -209.685545 
L 154.807614 -209.175706 
L 154.777233 -208.841465 
L 154.566735 -208.467838 
L 154.4387 -207.953622 
L 154.425679 -207.430654 
L 154.562395 -207.027487 
L 154.6926 -206.91425 
L 154.885737 -206.822347 
L 155.117937 -206.761079 
L 155.356646 -206.738103 
L 155.577995 -206.693246 
L 155.71905 -206.594232 
L 155.821045 -206.494671 
L 156.244211 -206.298285 
L 156.430839 -205.936692 
L 156.7238 -205.14841 
L 157.027612 -204.812529 
L 157.303213 -204.586055 
L 157.505031 -204.330588 
L 157.585324 -203.913745 
L 157.628726 -203.378195 
L 157.761101 -202.948223 
L 157.98896 -202.583348 
L 160.881685 -199.905049 
L 161.662916 -198.793467 
L 161.962388 -198.617868 
L 161.951537 -198.525966 
L 162.917226 -197.687903 
L 164.316931 -196.850934 
L 165.05476 -196.617349 
L 165.964026 -195.798433 
L 165.597282 -195.689025 
L 160.886025 -194.536963 
L 159.701158 -194.505235 
L 156.172598 -195.646356 
L 154.924799 -195.697778 
L 153.961281 -195.592199 
L 153.774653 -195.536402 
L 153.538114 -195.394172 
L 153.164859 -195.050632 
L 152.945681 -194.908402 
L 152.353247 -194.773283 
L 151.710902 -194.819782 
L 150.486973 -195.111353 
L 149.521285 -195.146363 
L 146.88463 -194.326353 
L 146.042637 -194.370116 
L 139.912144 -195.883771 
L 134.785713 -195.541606 
L 134.478249 -195.521085 
L 134.306812 -195.454346 
L 134.2569 -195.297346 
L 134.24605 -195.090565 
L 134.198308 -194.876673 
L 133.178367 -192.849897 
L 132.520831 -191.952754 
L 130.804293 -190.463169 
L 129.528283 -188.62895 
L 129.563004 -188.313856 
L 131.429278 -186.853264 
L 137.410035 -179.959488 
L 137.616193 -179.05031 
L 138.002469 -178.375812 
L 142.667068 -174.620668 
L 147.331668 -170.865524 
L 147.668032 -170.759399 
L 147.863339 -170.822855 
L 148.047797 -170.855678 
L 148.232254 -170.852395 
L 148.427562 -170.809726 
L 148.718353 -170.647256 
L 149.547326 -170.033479 
L 149.733953 -169.832716 
L 149.840288 -169.570138 
L 149.979173 -169.47003 
L 150.133249 -169.414232 
L 150.282985 -169.285678 
L 150.40234 -169.08765 
L 150.591137 -168.550459 
L 150.641049 -168.292804 
L 150.641049 -168.096417 
L 150.717002 -167.956375 
L 150.999114 -167.87049 
L 151.782515 -167.753424 
L 152.316356 -167.586577 
L 152.750373 -167.269842 
L 153.099757 -166.848076 
L 153.985152 -165.392954 
L 155.19823 -164.196034 
L 155.517233 -163.784114 
L 156.08421 -162.570444 
L 158.911247 -156.5189 
L 160.195938 -151.979576 
L 160.914236 -150.239995 
L 161.903796 -149.510246 
L 162.355173 -149.490552 
L 163.01488 -149.338476 
L 163.479278 -149.245479 
L 163.464087 -147.080302 
L 163.186316 -145.823208 
L 162.619924 -144.664581 
L 161.76057 -143.546435 
L 161.597813 -143.246658 
L 160.467199 -141.710575 
L 160.384735 -141.377975 
L 160.792711 -140.998331 
L 160.74714 -140.719341 
L 160.655996 -140.699648 
L 160.26104 -140.675578 
L 160.126495 -140.648226 
L 160.00497 -140.528972 
L 159.831363 -140.177774 
L 159.75107 -140.055237 
L 158.761511 -139.289383 
L 157.146967 -138.380206 
L 156.837104 -138.115234 
L 156.361396 -137.708443 
L 155.96644 -136.707363 
L 155.675649 -136.222687 
L 155.577995 -135.989649 
L 155.551954 -135.789433 
L 155.653948 -134.559691 
L 155.597526 -134.344158 
L 155.419579 -134.127531 
L 154.93782 -133.903245 
L 154.746852 -133.777426 
L 154.518993 -133.427322 
L 154.367087 -133.029078 
L 154.037234 -131.720562 
L 153.344976 -129.88689 
L 152.900109 -129.001782 
L 152.546385 -128.038448 
L 152.385798 -127.741953 
L 152.129728 -127.525326 
L 150.868908 -126.893497 
L 150.528205 -126.661553 
L 150.241754 -126.334424 
L 150.019643 -125.828944 
L 147.613779 -120.353655 
L 147.086448 -119.629923 
L 147.040877 -119.38868 
L 147.13202 -118.890328 
L 147.138531 -118.660025 
L 147.090789 -118.426439 
L 146.87812 -118.035854 
L 146.092549 -117.022192 
L 145.760526 -116.755785 
L 142.765807 -115.314339 
L 141.895603 -115.320903 
L 141.706805 -114.98174 
L 141.392143 -114.585137 
L 140.786689 -113.986677 
L 140.469856 -113.892039 
L 139.983757 -113.418851 
L 139.703816 -113.161196 
L 139.729857 -113.087893 
L 139.748714 -112.971572 
L 139.766748 -112.860325 
L 139.673435 -112.655186 
L 139.608332 -112.563831 
L 139.534549 -112.383855 
L 139.443406 -112.294141 
L 139.332731 -112.291953 
L 139.113553 -112.458252 
L 139.013729 -112.438559 
L 138.857482 -112.265695 
L 138.79455 -112.122918 
L 138.840122 -111.953883 
L 139.013729 -111.702245 
L 139.189506 -111.529928 
L 139.430385 -111.238357 
L 139.740707 -110.98836 
L 140.04669 -110.661779 
L 140.192085 -110.31988 
L 140.283229 -109.950082 
L 140.441645 -109.616936 
L 140.786689 -109.38335 
L 141.144753 -109.381162 
L 141.804459 -109.304577 
L 142.114782 -109.339587 
L 142.683344 -109.691333 
L 142.941584 -109.674922 
L 143.219355 -109.253155 
L 143.323519 -108.827559 
L 143.627331 -108.437521 
L 143.766217 -106.179347 
L 143.913783 -105.750469 
L 143.772727 -105.444675 
L 143.484106 -104.291518 
L 143.110851 -103.333107 
L 143.054429 -103.003243 
L 143.08264 -102.636181 
L 143.188974 -102.345703 
L 143.484106 -101.846805 
L 143.622991 -101.512564 
L 143.657713 -101.249439 
L 143.627331 -100.611045 
L 143.557889 -100.390042 
L 143.251907 -99.792676 
L 143.182464 -99.442572 
L 143.204165 -98.836453 
L 143.110851 -98.594115 
L 142.83308 -98.495648 
L 142.82657 -98.33099 
L 142.648623 -97.97815 
L 142.438124 -97.650474 
L 142.33613 -97.562948 
L 142.294899 -97.2856 
L 142.177714 -96.910332 
L 141.993257 -96.552021 
L 141.750207 -96.328283 
L 141.57877 -96.276861 
L 141.663404 -96.046011 
L 141.995427 -95.667461 
L 142.431614 -95.387924 
L 143.33654 -95.084318 
L 143.774897 -94.868238 
L 144.111261 -94.53345 
L 144.34346 -94.094726 
L 144.497536 -93.608409 
L 144.58868 -93.127562 
L 144.584339 -92.060838 
L 144.677653 -91.241921 
L 144.527917 -90.45911 
L 144.523888 -90.366938 
L 144.510556 -90.06196 
L 144.59302 -89.822357 
L 144.727565 -89.640193 
L 144.825219 -89.438336 
L 144.775307 -88.871605 
L 144.85343 -88.658807 
L 144.974955 -88.450932 
L 145.087799 -88.195465 
L 145.391611 -86.194947 
L 145.374251 -85.981055 
L 145.278767 -85.461368 
L 145.189793 -85.227783 
L 145.165922 -85.088835 
L 145.304808 -84.730525 
L 145.450204 -83.124421 
L 145.723634 -82.122247 
L 146.279176 -81.232216 
L 147.034366 -80.49262 
L 150.365448 -78.182478 
L 151.283395 -77.855349 
L 151.532955 -77.703272 
L 151.67184 -77.48938 
L 151.815066 -76.951095 
L 151.951781 -76.664994 
L 152.67876 -75.762928 
L 152.999933 -75.165562 
L 153.18873 -74.583513 
L 153.401399 -73.303991 
L 153.43395 -72.099412 
L 153.575006 -71.531587 
L 153.813715 -71.333012 
L 154.132718 -71.373493 
L 154.44955 -71.250956 
L 154.584096 -70.955556 
L 154.653538 -70.656326 
L 154.777233 -70.518472 
L 155.070195 -70.518472 
L 155.391368 -70.465956 
L 155.645268 -70.289263 
L 155.693009 -70.05896 
L 155.280693 -69.880625 
L 154.818465 -69.768483 
L 153.996002 -69.375162 
L 153.585856 -69.28873 
L 153.238642 -69.333587 
L 152.565916 -69.506451 
L 152.205681 -69.505357 
L 153.44263 -66.536034 
L 155.256822 -63.850076 
L 156.96468 -62.026797 
L 157.167642 -61.809526 
L 158.583564 -60.29378 
L 160.352184 -58.407046 
L 162.535291 -56.072286 
L 164.612063 -53.852952 
L 166.582501 -51.750137 
L 168.155813 -50.067448 
L 168.31423 -49.967887 
L 168.479156 -49.917559 
L 168.741736 -49.877078 
L 168.82637 -49.901148 
L 169.069419 -50.039002 
L 169.175754 -50.079482 
L 169.301619 -50.055413 
L 169.527308 -49.907712 
L 169.607601 -49.877078 
L 170.510357 -49.973357 
L 170.85106 -49.855197 
L 171.259036 -49.512751 
L 171.60842 -49.072932 
L 171.779857 -48.660465 
L 172.059798 -47.594835 
L 172.11622 -47.479957 
L 172.190003 -47.378208 
L 172.278977 -47.288493 
L 172.561088 -47.389148 
L 172.784607 -47.441664 
L 172.988595 -47.431817 
L 173.207773 -47.336633 
L 173.37487 -47.159392 
L 173.819738 -46.506229 
L 174.13006 -45.803832 
L 174.3883 -45.360731 
L 174.596628 -44.886996 
L 174.655221 -44.325734 
L 174.481614 -43.825741 
L 173.915221 -43.254633 
L 173.837098 -42.696654 
L 173.917392 -41.976752 
L 173.902201 -41.680257 
L 173.971644 -41.497547 
L 174.186482 -41.489888 
L 174.468593 -41.534745 
L 174.737684 -41.513958 
L 174.976393 -41.460348 
L 174.785426 -41.172606 
L 174.62484 -40.860794 
L 174.553227 -40.62338 
L 174.611819 -40.191219 
L 174.935162 -39.452718 
L 174.998094 -39.020558 
L 174.90044 -38.614655 
L 174.572757 -37.889283 
L 174.553227 -37.417736 
L 174.63786 -37.143122 
L 174.904781 -36.6486 
L 174.998094 -36.261297 
L 174.998094 -35.471374 
L 175.028476 -35.299604 
L 175.195572 -34.857597 
L 175.458153 -34.333534 
L 175.855278 -33.877304 
L 176.000674 -33.658489 
L 176.076627 -33.465931 
L 176.115689 -33.274468 
L 176.14173 -32.85106 
L 176.206832 -32.747123 
L 176.497624 -32.562224 
L 176.573577 -32.488921 
L 176.582257 -32.311681 
L 176.462902 -32.041444 
L 176.430351 -31.83904 
L 176.705952 -31.680399 
L 176.786245 -31.615848 
L 176.9056 -31.521757 
L 177.018444 -31.332482 
L 176.844837 -31.101632 
L 176.000674 -30.46488 
L 175.610059 -30.840148 
L 175.184722 -30.914545 
L 174.848358 -30.707765 
L 174.709473 -30.241688 
L 174.457743 -29.767953 
L 174.410001 -29.526162 
L 174.453403 -29.254284 
L 174.542376 -29.068838 
L 174.598799 -28.872998 
L 174.553227 -28.573221 
L 174.507655 -28.552434 
L 174.423022 -28.549152 
L 174.329708 -28.520706 
L 174.266775 -28.428803 
L 174.242904 -28.302437 
L 174.242904 -28.207253 
L 174.255925 -28.151455 
L 174.266775 -28.13942 
L 174.297157 -27.95288 
L 174.368769 -27.787675 
L 174.37311 -27.601134 
L 174.051937 -27.149281 
L 173.995515 -26.945783 
L 174.019386 -26.164065 
L 174.099679 -26.050828 
L 174.229884 -25.987372 
L 174.410001 -25.826542 
L 174.785426 -25.187055 
L 175.492874 -23.334783 
L 175.996334 -20.995101 
L 175.929061 -20.661954 
L 175.703372 -20.561299 
L 175.251994 -20.715564 
L 175.067537 -20.661954 
L 174.12355 -19.296 
L 173.296747 -20.372571 
L 173.1188 -20.740728 
L 173.1188 -20.957902 
L 173.179562 -21.157571 
L 173.209943 -21.365446 
L 173.1188 -21.608878 
L 172.947363 -21.768066 
L 172.715164 -21.865439 
L 172.463434 -21.870909 
L 172.246425 -21.752749 
L 171.884021 -21.896073 
L 171.476045 -21.986334 
L 171.165722 -22.141693 
L 171.10062 -22.475933 
L 170.877101 -22.353397 
L 170.59499 -22.242895 
L 170.34543 -22.233048 
L 170.241266 -22.410289 
L 170.187014 -22.729212 
L 170.045958 -22.878553 
L 169.84197 -22.978114 
L 169.34068 -23.310167 
L 168.780798 -23.506553 
L 168.518218 -23.644954 
L 167.715286 -24.677215 
L 167.56338 -24.767476 
L 167.07294 -24.84625 
L 166.81036 -24.950187 
L 166.591181 -25.072177 
L 166.500038 -25.16955 
L 164.505729 -25.393288 
L 162.717578 -25.928292 
L 161.799631 -26.09842 
L 160.881685 -25.970961 
L 159.809663 -25.329832 
L 159.386496 -25.188149 
L 158.99154 -24.985745 
L 158.74415 -24.946905 
L 158.752831 -24.995591 
L 158.260221 -25.217689 
L 158.158227 -25.235194 
L 157.993301 -25.41517 
L 157.962919 -25.501602 
L 157.999811 -25.621403 
L 158.028022 -25.898751 
L 157.98245 -26.05411 
L 157.863095 -26.218769 
L 157.698169 -26.351152 
L 156.984211 -26.616466 
L 156.869196 -26.680469 
L 156.786733 -26.822699 
L 156.671718 -27.145452 
L 156.567554 -27.272364 
L 156.124857 -27.448511 
L 155.797174 -27.350044 
L 155.515062 -27.23079 
L 154.844506 -27.477504 
L 154.568905 -26.853333 
L 154.260753 -26.969852 
L 154.132718 -26.969852 
L 153.920049 -26.627406 
L 153.583686 -26.280037 
L 153.232132 -26.172818 
L 152.984742 -26.549727 
L 152.576766 -26.41625 
L 152.253423 -26.51034 
L 151.255184 -27.310657 
L 151.051196 -27.339103 
L 150.884099 -26.830358 
L 150.690961 -26.732985 
L 150.235243 -26.680469 
L 149.40193 -26.74502 
L 149.488734 -27.264706 
L 149.714423 -27.856601 
L 149.304276 -28.13942 
L 149.237004 -28.347842 
L 148.961403 -28.76195 
L 148.657591 -29.064462 
L 148.514365 -28.934267 
L 148.514365 -28.671141 
L 148.473133 -28.413486 
L 148.325568 -28.2171 
L 148.013075 -28.13942 
L 146.721874 -27.995549 
L 146.654601 -28.095657 
L 146.674132 -28.568845 
L 146.650261 -28.718187 
L 146.543927 -28.718187 
L 146.35947 -28.667312 
L 146.140291 -28.643789 
L 145.934133 -28.718187 
L 146.064338 -28.769608 
L 146.36598 -29.006476 
L 145.799587 -29.311176 
L 145.647681 -29.234591 
L 145.790907 -28.718187 
L 145.480585 -28.844005 
L 145.066098 -29.274524 
L 144.773137 -29.453953 
L 144.228445 -29.433165 
L 144.024457 -29.538197 
L 144.202404 -29.874078 
L 143.701114 -30.099458 
L 143.006687 -30.880629 
L 142.466335 -31.030517 
L 142.360001 -30.894852 
L 142.164693 -30.709953 
L 142.169034 -30.513019 
L 142.216776 -30.318273 
L 142.149503 -30.135563 
L 141.960705 -30.068824 
L 140.30493 -29.712155 
L 139.875253 -29.446294 
L 139.753728 -29.406908 
L 139.454256 -29.473646 
L 139.04845 -29.852197 
L 138.718597 -30.041472 
L 137.388334 -30.223089 
L 136.463878 -29.860949 
L 136.26857 -29.83688 
L 134.059422 -29.857667 
L 130.72183 -29.887207 
L 126.967581 -29.921124 
L 123.571829 -29.949795 
L 122.691427 -29.957228 
L 119.462339 -29.986768 
L 115.851316 -30.01959 
L 115.844806 -30.542559 
L 115.931609 -31.179312 
L 115.842636 -31.490029 
L 115.642988 -31.738385 
L 115.328325 -32.023939 
L 115.002812 -32.260259 
L 114.766273 -32.357632 
L 114.620877 -32.323716 
L 114.319235 -32.197897 
L 114.123928 -32.200085 
L 113.985042 -32.260259 
L 113.69208 -32.488921 
L 113.106157 -32.604893 
L 112.465982 -32.633339 
L 112.283695 -32.560036 
L 112.040645 -32.38389 
L 111.619648 -31.975799 
L 111.42 -31.892649 
L 110.525925 -31.77996 
L 109.937832 -32.035973 
L 109.601468 -32.114747 
L 109.312847 -31.975799 
L 109.082818 -31.910155 
L 108.718243 -31.971423 
L 108.086748 -32.200085 
L 107.87191 -31.998775 
L 107.6332 -31.910155 
L 107.36628 -31.932036 
L 107.071148 -32.054573 
L 106.891031 -31.796371 
L 106.476545 -31.888273 
L 105.996956 -32.098336 
L 105.638891 -32.200085 
L 105.374141 -32.088489 
L 105.133261 -31.892649 
L 104.8403 -31.705562 
L 104.414963 -31.621318 
L 101.57432 -32.049102 
L 101.07303 -32.235095 
L 100.738837 -32.488921 
L 100.248398 -32.374043 
L 99.885993 -32.488921 
L 98.714147 -32.874036 
L 97.906875 -32.929834 
L 96.750219 -32.662879 
L 96.370454 -32.740559 
L 95.682537 -33.163966 
L 95.422127 -33.259151 
L 95.222479 -33.235081 
L 94.784121 -32.998761 
L 94.564943 -32.940775 
L 94.150456 -32.8806 
L 93.343184 -32.608175 
L 92.924358 -32.528308 
L 92.012921 -32.567695 
L 91.164418 -32.70336 
L 90.784653 -32.717583 
L 89.549874 -32.622398 
L 87.959201 -32.723053 
L 86.355507 -32.581918 
L 84.515274 -32.639904 
L 83.801316 -32.541437 
L 83.477973 -32.577541 
L 82.399441 -32.93421 
L 81.971934 -33.287597 
L 81.765776 -33.405757 
L 81.472814 -33.437485 
L 81.208063 -33.377311 
L 80.661202 -33.181471 
L 75.05587 -32.973597 
L 75.016808 -32.781039 
L 75.112292 -32.505332 
L 75.147013 -32.224155 
L 75.021148 -31.926566 
L 74.858392 -31.703374 
L 74.726017 -31.461583 
L 74.689125 -31.114761 
L 74.689125 -30.849995 
L 74.652234 -30.590698 
L 74.56977 -30.342343 
L 74.435225 -30.119151 
" style="stroke: #000000"/>
    </defs>
    <g clip-path="url(#p9b42905763)">
     <use xlink:href="#m6aebdfd814" x="0" y="280.512" style="fill: #f5f5f5; stroke: #000000"/>
    </g>
   </g>
  </g>
 </g>
 <defs>
  <clipPath id="p9b42905763">
   <rect x="7.2" y="7.2" width="177.905037" height="266.112"/>
  </clipPath>
 </defs>
</svg>
