<?xml version="1.0" encoding="utf-8" standalone="no"?>
<!DOCTYPE svg PUBLIC "-//W3C//DTD SVG 1.1//EN"
  "http://www.w3.org/Graphics/SVG/1.1/DTD/svg11.dtd">
<svg xmlns:xlink="http://www.w3.org/1999/xlink" width="371.52pt" height="255.7762pt" viewBox="0 0 371.52 255.7762" xmlns="http://www.w3.org/2000/svg" version="1.1">
 <metadata>
  <rdf:RDF xmlns:dc="http://purl.org/dc/elements/1.1/" xmlns:cc="http://creativecommons.org/ns#" xmlns:rdf="http://www.w3.org/1999/02/22-rdf-syntax-ns#">
   <cc:Work>
    <dc:type rdf:resource="http://purl.org/dc/dcmitype/StillImage"/>
    <dc:date>2024-03-04T13:11:09.781202</dc:date>
    <dc:format>image/svg+xml</dc:format>
    <dc:creator>
     <cc:Agent>
      <dc:title>Matplotlib v3.8.0, https://matplotlib.org/</dc:title>
     </cc:Agent>
    </dc:creator>
   </cc:Work>
  </rdf:RDF>
 </metadata>
 <defs>
  <style type="text/css">*{stroke-linejoin: round; stroke-linecap: butt}</style>
 </defs>
 <g id="figure_1">
  <g id="patch_1">
   <path d="M 0 255.7762 
L 371.52 255.7762 
L 371.52 0 
L 0 0 
z
" style="fill: #ffffff"/>
  </g>
  <g id="axes_1">
   <g id="PatchCollection_1">
    <defs>
     <path id="mf3011b8abd" d="M 234.176531 -235.559675 
L 234.230509 -234.875245 
L 237.769938 -229.742667 
L 240.353181 -227.931968 
L 244.874499 -223.556274 
L 249.012829 -216.89699 
L 253.151159 -210.237706 
L 253.667808 -209.118553 
L 254.395228 -204.793965 
L 254.27185 -203.834598 
L 253.935128 -203.094534 
L 253.014928 -201.682978 
L 252.706481 -200.959087 
L 252.721904 -200.685444 
L 252.96352 -200.065058 
L 253.014928 -199.735781 
L 252.981513 -198.956256 
L 253.050914 -198.719487 
L 253.238552 -198.403148 
L 253.423621 -198.410911 
L 253.570133 -198.353983 
L 253.706364 -198.151501 
L 253.719216 -197.985245 
L 253.097181 -196.038048 
L 253.063766 -195.593622 
L 253.318234 -194.825093 
L 253.35422 -194.45959 
L 253.133166 -194.160718 
L 252.804156 -193.905835 
L 251.84283 -192.699996 
L 251.297907 -192.148183 
L 251.010023 -191.970283 
L 250.609042 -191.900417 
L 249.80451 -191.934056 
L 249.426662 -191.783326 
L 249.142261 -191.358783 
L 249.0154 -191.169409 
L 248.467906 -187.984028 
L 248.532166 -187.373346 
L 248.858606 -186.863581 
L 249.521767 -186.481258 
L 250.20292 -186.535598 
L 251.125691 -187.441918 
L 251.562657 -187.421217 
L 251.745155 -186.879754 
L 251.706599 -186.008367 
L 251.400723 -184.58452 
L 250.979178 -183.894915 
L 249.953592 -182.738888 
L 249.627153 -182.086803 
L 249.614301 -181.485178 
L 249.819932 -180.81498 
L 250.19778 -180.267695 
L 250.706717 -180.036101 
L 251.074283 -180.118905 
L 251.660332 -180.567214 
L 252.007335 -180.761933 
L 252.464865 -180.853794 
L 252.886409 -180.805923 
L 253.277108 -180.639667 
L 253.649815 -180.378316 
L 253.973684 -180.249581 
L 254.770505 -180.266401 
L 255.569897 -180.049039 
L 255.973449 -180.170658 
L 256.754848 -180.530987 
L 257.613358 -180.552982 
L 259.186438 -180.193947 
L 260.569308 -180.33562 
L 261.558909 -179.924186 
L 262.037001 -179.853026 
L 262.741289 -179.970763 
L 265.337384 -179.539275 
L 266.737995 -179.731698 
L 266.990145 -179.76634 
L 267.915486 -179.786394 
L 268.365305 -179.548332 
L 268.308756 -179.191885 
L 267.851226 -178.530743 
L 267.756122 -178.173002 
L 267.933479 -177.821731 
L 268.609492 -177.289971 
L 268.73287 -176.985277 
L 268.563225 -176.748508 
L 267.555631 -176.079604 
L 267.306303 -175.803374 
L 265.913151 -173.460916 
L 265.614986 -172.61023 
L 265.525022 -171.794477 
L 265.769209 -171.062176 
L 266.303851 -170.432086 
L 266.977293 -169.92685 
L 267.640454 -169.565228 
L 268.033724 -169.413204 
L 268.894805 -169.212663 
L 269.047368 -169.195616 
L 269.491136 -169.146031 
L 269.850991 -169.146031 
L 270.030918 -169.118861 
L 270.218557 -169.021824 
L 270.629819 -168.696429 
L 270.760909 -168.625269 
L 272.364833 -169.178376 
L 273.223344 -169.268297 
L 273.814534 -168.699017 
L 273.914779 -168.475833 
L 274.048439 -168.311518 
L 274.228367 -168.204778 
L 274.472554 -168.14785 
L 275.256523 -167.659433 
L 276.048204 -167.633557 
L 277.793499 -167.909787 
L 279.186651 -167.651671 
L 279.672455 -167.646495 
L 280.173682 -167.588273 
L 280.962792 -167.150963 
L 282.402211 -166.986648 
L 283.196462 -166.622438 
L 285.332457 -164.651952 
L 285.576644 -164.249575 
L 285.633193 -163.360722 
L 286.14213 -162.833491 
L 286.193538 -162.387123 
L 286.329769 -162.202107 
L 286.496844 -162.037792 
L 286.692194 -161.896766 
L 286.905536 -161.780322 
L 288.100768 -160.44122 
L 288.843611 -159.87194 
L 289.599306 -159.591181 
L 289.943739 -159.613176 
L 290.714856 -159.782667 
L 291.067 -159.78396 
L 291.678753 -159.683042 
L 291.86125 -159.569186 
L 291.984629 -159.416516 
L 292.136282 -159.278077 
L 292.766028 -159.069773 
L 293.084757 -158.757962 
L 293.326373 -158.365935 
L 293.580842 -157.574118 
L 293.950979 -156.907802 
L 294.084639 -156.483429 
L 294.102632 -156.117279 
L 294.007527 -155.039528 
L 294.102632 -154.665614 
L 294.246574 -154.317577 
L 294.321115 -153.947545 
L 294.210588 -153.508941 
L 293.652813 -153.019877 
L 292.010333 -152.460948 
L 291.480833 -151.955065 
L 291.46541 -151.640667 
L 291.575937 -151.235702 
L 292.108008 -149.984579 
L 293.588553 -149.203113 
L 293.920134 -148.979282 
L 294.076928 -148.808498 
L 294.315974 -148.411296 
L 294.462486 -148.241806 
L 294.657836 -148.131831 
L 295.074239 -148.002449 
L 295.236174 -147.882124 
L 295.434094 -147.523736 
L 295.593458 -146.803079 
L 295.727119 -146.439516 
L 295.99701 -146.07466 
L 296.32602 -145.837891 
L 297.721742 -145.141817 
L 298.69078 -144.401752 
L 299.338518 -144.100293 
L 299.815326 -144.265901 
L 300.224018 -144.194741 
L 300.594155 -143.963148 
L 301.712275 -142.939737 
L 302.105545 -142.724964 
L 303.637498 -142.327761 
L 304.102739 -142.138864 
L 304.70678 -141.657563 
L 304.907271 -141.601929 
L 305.390505 -141.609692 
L 305.637262 -141.502305 
L 306.030532 -141.105103 
L 306.305564 -141.035237 
L 306.925028 -141.008066 
L 307.058688 -140.801055 
L 307.061259 -140.468544 
L 307.287453 -140.063579 
L 307.66016 -139.934197 
L 308.77828 -139.828104 
L 309.194684 -139.632737 
L 309.30007 -139.434783 
L 309.359189 -138.965127 
L 309.474856 -138.734827 
L 310.258825 -138.291048 
L 310.510724 -138.225063 
L 311.00938 -138.151315 
L 311.258708 -138.049104 
L 311.40265 -137.873144 
L 311.415502 -137.682953 
L 311.482332 -137.525107 
L 311.772786 -137.443597 
L 312.890906 -137.353029 
L 313.04513 -136.787631 
L 313.132523 -135.489931 
L 313.371569 -134.924532 
L 313.500089 -134.84949 
L 313.656883 -134.867604 
L 313.818817 -134.909006 
L 313.962759 -134.909006 
L 314.073286 -134.810676 
L 314.060434 -134.674825 
L 314.011597 -134.520861 
L 314.021878 -134.36819 
L 314.124694 -134.047323 
L 314.16582 -133.763977 
L 314.255784 -133.48904 
L 314.510253 -133.188227 
L 315.070598 -132.840837 
L 315.520416 -132.722453 
L 315.913686 -132.546494 
L 316.687374 -131.575483 
L 317.700108 -130.86453 
L 318.116511 -130.426572 
L 318.972452 -129.987321 
L 320.442715 -129.438742 
L 321.643088 -128.755605 
L 321.673362 -128.20659 
L 321.689355 -127.916564 
L 321.501717 -127.666857 
L 321.098165 -126.908033 
L 320.309055 -125.849042 
L 319.828392 -124.840511 
L 319.615049 -124.655495 
L 319.365721 -124.521584 
L 319.131816 -124.3508 
L 318.96217 -124.05775 
L 319.432552 -123.901845 
L 319.471108 -123.53246 
L 319.332306 -123.062157 
L 319.275758 -122.610614 
L 319.445404 -122.093734 
L 319.720435 -121.858906 
L 320.095713 -121.702354 
L 320.578946 -121.427417 
L 320.990209 -121.021158 
L 321.58911 -120.22546 
L 322.056921 -119.924 
L 323.090218 -119.702757 
L 323.483488 -119.416824 
L 323.565741 -118.769914 
L 323.573452 -118.169583 
L 323.804787 -118.017559 
L 324.167212 -118.034378 
L 324.573334 -117.936048 
L 324.899774 -117.543374 
L 324.912626 -117.065955 
L 324.67872 -116.604709 
L 324.267457 -116.266376 
L 323.815069 -116.01214 
L 323.324124 -115.659575 
L 322.918002 -115.230674 
L 322.720082 -114.744198 
L 322.807475 -114.213086 
L 323.200745 -114.326942 
L 324.205768 -115.026897 
L 324.647875 -114.898809 
L 324.922907 -114.469262 
L 325.125968 -113.930386 
L 325.372726 -113.480137 
L 325.760855 -113.171562 
L 327.218267 -112.665032 
L 328.017658 -112.561526 
L 329.775806 -112.644331 
L 331.549376 -111.945669 
L 331.997909 -111.660382 
L 332.263945 -111.327223 
L 332.407886 -110.205483 
L 332.608377 -109.761056 
L 333.186715 -109.501646 
L 333.762483 -109.544342 
L 334.178886 -109.693778 
L 334.482192 -109.63685 
L 334.718668 -109.068863 
L 335.034826 -108.634787 
L 335.556616 -108.606323 
L 336.641321 -108.874144 
L 336.908641 -108.586269 
L 337.199096 -107.874669 
L 337.659196 -107.519516 
L 337.846834 -107.138486 
L 338.008769 -107.019455 
L 338.240104 -107.01428 
L 338.692493 -107.163069 
L 338.921258 -107.172125 
L 339.967407 -106.772982 
L 340.191031 -106.609314 
L 340.368388 -106.193352 
L 340.38124 -105.926178 
L 340.502048 -105.739868 
L 340.998134 -105.5762 
L 341.350277 -105.397653 
L 341.647158 -105.074846 
L 341.856644 -104.683466 
L 341.932471 -104.29532 
L 341.944038 -104.069549 
L 341.996731 -103.923347 
L 342.113684 -103.810785 
L 342.542939 -103.519029 
L 342.563502 -103.385766 
L 342.501813 -103.222098 
L 342.463257 -102.788668 
L 342.351445 -102.425105 
L 342.368152 -102.256262 
L 342.517235 -102.018846 
L 342.648325 -101.99297 
L 342.765278 -102.051839 
L 342.859097 -102.073834 
L 342.94649 -102.104885 
L 343.082721 -102.183808 
L 343.267789 -102.199334 
L 343.506836 -102.035666 
L 343.60451 -101.82348 
L 343.550532 -101.382288 
L 343.596799 -101.13905 
L 342.586636 -98.400683 
L 342.535228 -98.015772 
L 342.586636 -97.704609 
L 342.788411 -97.066756 
L 342.923357 -95.831806 
L 343.026172 -95.454011 
L 343.689333 -93.875553 
L 344.098026 -93.134842 
L 344.605678 -92.499577 
L 346.028389 -91.537623 
L 346.706973 -90.963814 
L 347.113094 -89.978571 
L 347.835374 -89.455869 
L 348.087273 -89.133061 
L 347.429253 -89.383415 
L 347.192777 -89.436462 
L 346.845774 -89.67129 
L 346.570742 -89.72563 
L 346.09522 -89.7528 
L 345.851032 -89.799378 
L 345.636405 -89.880888 
L 345.285546 -90.136417 
L 344.964247 -90.42688 
L 344.619815 -90.666883 
L 344.185419 -90.766507 
L 343.648207 -90.82861 
L 343.073725 -90.989691 
L 341.028979 -92.004691 
L 340.005963 -92.377311 
L 338.944391 -92.452999 
L 337.795426 -92.118547 
L 336.906071 -91.650832 
L 336.158087 -91.147536 
L 335.462796 -90.531679 
L 334.723809 -89.72563 
L 334.605571 -89.515384 
L 334.366525 -88.91764 
L 334.230294 -88.698985 
L 333.94498 -88.408523 
L 333.806179 -88.30243 
L 333.364072 -88.341244 
L 333.340938 -88.398172 
L 333.256116 -88.521085 
L 333.119885 -88.643351 
L 332.950239 -88.698985 
L 332.788304 -88.633 
L 332.528695 -88.368414 
L 332.346197 -88.341244 
L 332.184262 -88.477095 
L 331.158676 -89.568431 
L 330.98646 -89.672583 
L 330.631746 -89.72563 
L 329.444225 -89.72563 
L 329.184616 -89.597542 
L 328.845324 -89.323899 
L 328.595996 -89.196458 
L 328.259275 -89.323899 
L 328.051073 -89.305786 
L 327.901991 -89.0412 
L 327.747767 -89.0412 
L 327.549847 -89.321312 
L 327.123162 -89.380827 
L 326.663062 -89.223628 
L 326.372608 -88.855537 
L 326.202962 -89.0412 
L 326.025605 -88.860712 
L 325.709447 -88.692516 
L 325.380437 -88.566369 
L 325.169665 -88.513322 
L 324.740409 -88.550843 
L 324.059256 -88.796021 
L 323.748238 -88.855537 
L 323.699401 -89.015324 
L 323.23159 -89.973396 
L 322.920573 -90.211459 
L 322.545295 -90.434642 
L 322.193152 -90.708285 
L 321.956676 -91.093196 
L 321.429746 -90.881657 
L 321.26267 -90.766507 
L 321.028765 -91.062144 
L 320.60722 -91.082846 
L 320.134268 -91.028505 
L 319.499382 -91.142361 
L 319.018719 -91.344844 
L 318.558619 -91.676708 
L 318.376121 -92.118547 
L 318.263024 -92.070676 
L 317.980281 -91.998222 
L 317.867183 -91.947763 
L 317.854331 -92.345612 
L 317.867183 -92.476288 
L 317.553596 -92.3482 
L 317.394231 -92.562327 
L 317.173178 -93.330855 
L 317.096066 -93.240288 
L 316.831316 -93.004166 
L 316.761915 -93.110259 
L 316.602551 -93.213118 
L 316.492024 -93.330855 
L 316.155303 -93.182713 
L 315.993368 -93.370317 
L 315.828863 -93.666601 
L 315.474149 -93.843854 
L 315.353341 -93.586384 
L 315.21711 -93.409778 
L 315.039753 -93.330855 
L 314.841833 -93.33603 
L 314.69018 -93.360613 
L 314.564231 -93.40719 
L 314.440852 -93.486113 
L 314.523104 -92.846967 
L 314.610498 -92.646425 
L 314.381733 -92.751225 
L 314.160679 -92.778395 
L 313.996174 -92.676183 
L 313.929344 -92.390896 
L 313.800825 -92.372783 
L 313.51037 -92.37537 
L 313.171079 -92.318442 
L 312.911469 -92.118547 
L 312.5876 -92.350788 
L 312.158345 -92.851495 
L 311.893594 -93.004166 
L 311.544021 -93.062388 
L 311.317827 -92.983465 
L 311.2073 -92.740874 
L 311.212441 -92.30421 
L 310.829452 -92.472407 
L 310.392486 -92.414185 
L 310.066046 -92.128898 
L 310.02492 -91.621074 
L 309.580242 -91.999516 
L 309.346337 -92.458175 
L 309.068734 -92.797802 
L 308.495537 -92.817209 
L 308.413285 -92.661951 
L 308.169097 -92.370195 
L 307.917199 -92.236932 
L 307.739842 -92.734405 
L 307.621604 -92.911011 
L 307.552204 -93.143898 
L 307.631886 -93.486113 
L 307.521359 -93.438242 
L 307.254038 -93.373551 
L 307.1358 -93.330855 
L 307.076681 -93.942831 
L 306.729678 -94.100677 
L 306.503484 -94.001053 
L 306.799079 -93.843854 
L 306.565173 -93.508108 
L 306.223311 -93.482232 
L 305.868597 -93.636843 
L 305.596136 -93.843854 
L 304.907271 -94.613029 
L 304.560268 -94.868558 
L 304.007634 -95.027051 
L 303.974219 -95.054868 
L 303.863692 -95.10274 
L 303.681194 -95.31816 
L 303.539823 -95.381557 
L 303.236517 -95.323336 
L 303.066871 -95.169371 
L 302.876662 -95.122147 
L 302.521948 -95.381557 
L 302.521948 -95.537463 
L 302.647897 -95.622855 
L 302.722438 -95.713422 
L 302.786698 -95.805283 
L 302.86381 -95.89391 
L 302.306035 -95.886147 
L 302.102974 -96.104802 
L 302.020722 -96.432785 
L 301.827942 -96.749124 
L 301.673719 -96.749124 
L 301.344709 -96.701252 
L 300.89489 -96.75818 
L 300.622429 -96.681845 
L 300.822919 -96.236125 
L 300.527324 -96.172728 
L 299.918142 -95.932077 
L 299.697088 -95.988358 
L 299.432338 -96.25812 
L 299.359082 -96.296934 
L 299.307674 -96.205073 
L 298.192124 -95.591803 
L 297.652342 -95.463068 
L 297.212805 -95.723772 
L 296.955766 -95.411315 
L 296.59077 -95.294872 
L 296.415984 -95.137673 
L 296.734712 -94.698421 
L 296.223204 -94.534106 
L 295.912187 -94.170543 
L 295.757964 -93.665307 
L 295.716837 -93.081795 
L 295.552332 -92.770632 
L 295.236174 -92.425829 
L 295.025402 -92.001457 
L 295.192477 -91.449643 
L 295.367264 -91.347431 
L 295.858209 -91.258158 
L 296.040707 -91.093196 
L 296.058699 -90.909474 
L 295.922469 -90.413941 
L 295.886483 -90.153237 
L 295.806801 -89.995391 
L 295.454657 -89.568431 
L 295.377546 -89.29026 
L 295.354412 -88.670521 
L 295.251596 -88.420167 
L 295.022832 -88.17046 
L 294.642414 -88.070189 
L 293.552568 -87.966684 
L 293.323803 -87.751263 
L 293.030778 -87.601827 
L 291.442277 -87.503497 
L 291.216082 -87.595358 
L 291.043866 -87.71633 
L 290.858798 -87.812072 
L 290.591477 -87.828892 
L 290.398698 -87.578538 
L 290.21363 -87.408401 
L 289.990006 -87.331419 
L 289.882049 -87.225973 
L 289.62244 -86.723324 
L 289.481068 -86.216147 
L 289.265155 -86.156632 
L 288.380941 -86.413455 
L 287.532712 -86.885052 
L 286.609941 -87.14705 
L 286.329769 -87.145756 
L 286.149841 -87.053895 
L 285.689741 -86.72203 
L 285.558651 -86.648283 
L 284.993165 -86.531192 
L 284.093528 -85.969675 
L 283.600013 -85.77819 
L 283.3147 -85.802772 
L 283.085935 -85.908219 
L 282.882874 -85.972263 
L 282.672102 -85.871345 
L 282.39964 -85.582176 
L 282.13489 -85.355758 
L 281.857288 -85.322766 
L 281.561693 -85.606759 
L 281.15043 -85.327941 
L 280.672338 -85.296889 
L 279.024717 -85.469614 
L 278.772818 -85.595114 
L 278.852501 -85.854525 
L 279.184081 -86.291189 
L 278.839649 -86.542836 
L 278.107087 -86.784134 
L 277.808922 -86.989204 
L 277.672691 -87.280313 
L 277.675261 -87.781021 
L 277.454208 -88.015849 
L 277.14062 -88.140055 
L 276.513445 -88.235798 
L 276.266687 -88.341244 
L 276.115034 -88.52626 
L 275.899121 -89.003679 
L 275.75775 -89.196458 
L 275.277086 -89.546436 
L 274.619066 -89.886063 
L 274.460546 -89.924465 
L 273.932772 -90.052319 
L 273.362145 -89.880888 
L 273.272181 -89.598836 
L 273.282463 -89.253386 
L 273.213062 -89.050257 
L 272.8712 -89.196458 
L 272.73497 -89.411879 
L 272.490782 -90.153237 
L 272.359692 -90.424292 
L 272.01526 -90.06267 
L 271.650264 -89.479158 
L 271.485759 -88.938341 
L 271.75308 -88.698985 
L 272.372544 -88.568956 
L 272.416241 -88.264262 
L 272.105224 -87.922047 
L 271.665687 -87.673634 
L 269.879265 -87.443981 
L 269.627367 -87.238911 
L 269.5811 -87.172926 
L 269.290645 -86.461326 
L 269.208393 -86.172157 
L 269.205822 -85.939917 
L 269.159555 -85.75296 
L 268.948783 -85.606759 
L 268.79456 -85.606759 
L 268.624914 -86.212266 
L 268.216222 -86.390166 
L 267.714996 -86.265312 
L 267.249755 -85.9645 
L 266.553179 -85.053651 
L 266.30128 -84.923623 
L 265.964559 -84.994783 
L 265.483896 -85.331822 
L 265.198583 -85.435975 
L 264.730771 -85.364815 
L 264.304086 -85.115755 
L 263.6692 -84.581408 
L 262.396856 -83.983664 
L 261.954749 -83.710668 
L 261.584613 -84.074878 
L 261.43553 -84.127924 
L 261.278736 -84.052236 
L 261.17078 -83.898272 
L 261.088527 -83.649211 
L 261.078245 -83.3691 
L 261.193913 -83.120687 
L 261.217047 -82.797879 
L 260.620716 -82.800467 
L 259.564285 -83.028179 
L 259.386928 -82.980307 
L 259.129889 -82.757771 
L 258.901124 -82.685964 
L 258.718626 -82.705371 
L 258.230252 -82.839281 
L 257.942368 -82.87098 
L 257.489979 -82.724131 
L 256.533794 -82.040348 
L 255.98373 -81.83075 
L 254.86304 -81.689076 
L 254.361813 -81.533818 
L 253.400487 -80.981358 
L 252.256663 -80.701246 
L 251.722022 -80.463183 
L 250.218343 -79.261226 
L 249.778806 -79.096264 
L 249.197897 -79.030279 
L 248.781494 -78.834913 
L 248.503892 -78.513399 
L 248.326535 -78.069619 
L 248.282838 -77.781745 
L 248.285408 -77.563089 
L 248.262275 -77.381308 
L 248.141467 -77.198879 
L 247.940976 -77.118016 
L 247.480876 -77.137423 
L 247.290667 -77.028742 
L 246.863982 -77.279096 
L 246.434727 -77.436942 
L 245.984908 -77.517806 
L 245.501675 -77.541094 
L 245.416852 -77.603198 
L 245.14182 -77.891072 
L 245.082701 -77.976464 
L 244.972174 -78.038568 
L 244.424681 -78.149189 
L 244.21905 -78.225524 
L 243.89518 -78.924186 
L 243.208886 -79.351793 
L 243.124063 -79.438479 
L 242.820757 -79.614438 
L 242.201293 -80.483885 
L 241.828586 -80.805398 
L 240.713036 -80.242587 
L 240.103853 -80.142963 
L 239.55636 -80.378438 
L 239.289039 -80.606797 
L 239.003726 -80.797635 
L 238.695279 -80.927017 
L 238.361128 -80.976182 
L 238.062963 -81.115915 
L 237.908739 -81.444545 
L 237.811064 -81.815224 
L 237.538603 -82.342455 
L 237.276423 -83.016534 
L 237.070792 -83.213842 
L 236.762345 -83.238424 
L 236.464179 -83.125862 
L 236.176296 -82.973838 
L 235.883271 -82.87098 
L 235.523416 -82.884565 
L 235.292081 -82.9609 
L 235.104442 -82.945374 
L 234.865396 -82.685964 
L 234.718884 -82.373506 
L 234.706032 -82.066871 
L 234.816559 -81.771234 
L 235.035042 -81.488535 
L 234.829411 -81.240768 
L 234.281917 -80.81963 
L 233.996604 -80.13326 
L 233.585341 -80.207654 
L 233.107248 -80.467065 
L 232.729401 -80.618442 
L 232.310427 -80.468359 
L 232.071381 -80.104149 
L 231.791208 -79.250876 
L 231.598429 -78.869846 
L 231.382516 -78.556095 
L 231.112625 -78.292803 
L 230.757911 -78.069619 
L 230.763052 -77.773982 
L 230.912134 -77.266158 
L 230.945549 -77.028742 
L 230.88386 -76.854077 
L 230.642243 -76.415472 
L 230.588265 -76.25892 
L 230.511153 -76.126304 
L 230.174432 -75.872069 
L 230.09732 -75.738805 
L 230.099891 -75.144943 
L 230.048483 -74.881004 
L 229.909682 -74.635178 
L 229.565249 -74.461806 
L 229.035749 -74.413935 
L 227.940762 -74.448868 
L 227.496084 -74.185576 
L 227.359854 -73.576835 
L 227.411262 -72.889817 
L 227.53464 -72.398166 
L 227.963896 -71.885814 
L 228.025585 -71.69821 
L 227.915058 -71.422627 
L 227.681153 -71.152219 
L 227.385558 -70.94262 
L 227.100244 -70.859169 
L 226.902324 -70.626281 
L 226.174903 -69.289767 
L 226.185185 -69.008361 
L 226.334268 -68.483071 
L 226.344549 -68.263769 
L 226.203178 -68.015356 
L 225.748218 -67.61686 
L 225.650544 -67.503004 
L 225.457764 -67.114211 
L 225.015657 -66.682723 
L 224.136583 -66.057808 
L 223.991447 -65.997619 
L 223.501697 -65.794516 
L 223.272932 -65.700068 
L 220.30413 -65.548044 
L 217.916237 -66.08886 
L 217.355891 -66.446601 
L 216.787835 -66.661375 
L 216.533366 -66.818574 
L 216.070696 -67.299227 
L 215.942176 -67.409849 
L 215.458943 -67.579339 
L 214.199451 -67.82193 
L 213.672385 -68.069843 
L 212.983656 -68.393798 
L 212.798588 -68.450726 
L 212.502993 -68.440375 
L 212.377043 -68.40803 
L 212.271657 -68.349808 
L 212.035181 -68.263769 
L 211.515962 -68.170614 
L 210.066262 -68.263769 
L 209.472501 -68.373097 
L 209.079232 -68.626685 
L 208.734799 -68.9165 
L 208.28241 -69.133862 
L 208.061357 -69.164913 
L 207.341647 -69.133862 
L 207.066615 -69.172676 
L 206.943236 -69.265831 
L 206.873836 -69.377747 
L 206.755598 -69.476077 
L 206.228668 -69.670797 
L 205.871383 -69.714786 
L 205.025725 -69.647508 
L 204.084961 -69.727725 
L 203.663417 -69.691498 
L 201.275524 -68.450726 
L 201.018485 -68.565876 
L 200.52754 -68.569757 
L 200.257649 -68.62151 
L 200.075151 -68.741188 
L 199.890083 -68.913266 
L 199.658748 -69.067877 
L 199.337449 -69.133862 
L 198.260455 -69.087284 
L 197.782362 -69.126099 
L 197.214306 -69.289767 
L 196.803043 -69.474783 
L 195.610382 -70.23943 
L 195.489573 -70.416036 
L 195.325068 -70.593289 
L 195.062888 -70.672212 
L 194.739019 -70.650864 
L 194.505113 -70.589408 
L 194.317475 -70.487196 
L 194.127266 -70.34617 
L 193.975613 -70.181208 
L 193.839382 -69.976785 
L 193.672307 -69.782065 
L 193.448683 -69.647508 
L 193.137665 -69.625513 
L 192.939745 -69.752307 
L 192.759818 -69.909506 
L 192.507919 -69.988429 
L 192.009264 -70.015599 
L 191.824195 -70.091934 
L 191.623705 -70.505309 
L 191.322969 -70.654745 
L 190.716357 -70.859169 
L 190.464458 -71.170332 
L 189.986366 -72.0456 
L 189.783305 -72.226735 
L 189.374613 -72.305011 
L 186.984149 -73.184808 
L 184.696501 -73.676459 
L 183.722322 -73.60918 
L 183.383031 -73.429986 
L 183.092577 -73.197746 
L 182.714729 -72.99591 
L 182.118398 -72.910518 
L 180.141767 -72.910518 
L 178.021195 -72.583829 
L 177.453138 -72.715798 
L 176.944201 -73.05025 
L 174.380189 -75.465175 
L 174.270994 -75.568021 
L 174.016525 -76.10819 
L 174.139904 -76.588197 
L 174.391802 -77.008041 
L 174.538315 -77.370957 
L 174.37381 -77.885897 
L 173.970258 -78.451943 
L 173.481884 -78.908661 
L 173.06291 -79.096264 
L 172.857279 -79.278046 
L 172.314926 -80.463183 
L 171.826552 -81.238181 
L 171.451275 -81.651556 
L 171.042583 -81.83075 
L 170.525934 -81.895441 
L 169.358976 -82.282939 
L 168.906588 -82.513886 
L 168.423354 -82.91691 
L 167.292382 -84.316822 
L 166.816859 -84.625397 
L 165.169239 -85.265838 
L 164.380129 -85.80536 
L 163.794079 -86.310596 
L 163.120637 -86.723324 
L 160.917812 -87.189746 
L 160.308629 -87.415517 
L 160.046449 -87.751263 
L 159.925641 -88.140055 
L 159.494224 -88.872179 
L 159.295895 -89.208749 
L 159.008011 -89.554199 
L 158.661008 -89.790321 
L 157.530036 -90.320786 
L 156.774341 -90.477339 
L 156.275685 -90.71346 
L 156.04692 -90.766507 
L 153.211779 -90.824729 
L 152.29672 -91.247807 
L 151.795493 -91.152065 
L 151.011524 -90.766507 
L 150.500016 -90.712167 
L 148.88324 -90.766507 
L 148.322895 -90.626775 
L 147.955329 -90.291029 
L 147.430969 -89.554199 
L 145.210151 -88.17046 
L 144.045764 -87.632232 
L 143.865836 -87.416811 
L 143.490559 -86.764726 
L 143.017607 -86.119111 
L 142.603774 -86.020781 
L 141.45995 -86.033719 
L 141.040977 -85.871345 
L 140.806322 -85.647745 
L 140.223592 -85.092466 
L 139.868878 -84.63963 
L 139.588706 -84.052236 
L 139.370222 -83.269476 
L 139.249414 -83.028179 
L 139.041212 -82.805642 
L 138.820159 -82.643268 
L 138.642802 -82.43755 
L 138.439741 -81.479478 
L 138.103019 -81.119149 
L 137.666053 -80.837744 
L 137.213664 -80.463183 
L 136.365435 -79.010872 
L 136.257479 -78.921599 
L 135.776815 -78.746286 
L 135.668859 -78.653131 
L 135.61231 -78.615611 
L 135.329567 -77.883309 
L 134.481338 -77.198879 
L 133.879867 -76.345606 
L 132.604953 -73.177692 
L 132.016333 -72.35547 
L 131.214371 -71.773252 
L 130.052554 -71.371521 
L 129.548757 -71.269309 
L 129.047531 -71.237611 
L 128.559157 -71.334 
L 128.099057 -71.620581 
L 127.618394 -71.658102 
L 127.130019 -71.192327 
L 126.759883 -70.533773 
L 126.639075 -69.988429 
L 126.836995 -69.561469 
L 127.520719 -68.97731 
L 127.672372 -68.706255 
L 127.803462 -68.228836 
L 128.692817 -66.570807 
L 129.016687 -65.59074 
L 129.361119 -63.476641 
L 129.330274 -61.885891 
L 129.23774 -61.280384 
L 129.062954 -60.716279 
L 128.543735 -59.858477 
L 128.494897 -59.298254 
L 128.50268 -58.985759 
L 128.523171 -58.162928 
L 128.029656 -55.059057 
L 128.859893 -49.227818 
L 127.767476 -49.240756 
L 127.46417 -49.546744 
L 127.06833 -50.467296 
L 126.050455 -52.116267 
L 125.644333 -52.597568 
L 125.022299 -53.113154 
L 124.698429 -53.096335 
L 124.423397 -52.761883 
L 123.968438 -52.316162 
L 123.742244 -52.219773 
L 123.3207 -52.244355 
L 123.037957 -52.206835 
L 122.92743 -52.102035 
L 122.824614 -51.75982 
L 122.72951 -51.669253 
L 122.554723 -51.673134 
L 122.27455 -51.814161 
L 122.125468 -51.846506 
L 120.143696 -51.669253 
L 119.868664 -51.67831 
L 119.64504 -51.740413 
L 119.462542 -51.682191 
L 119.31346 -51.337389 
L 119.136103 -50.581152 
L 119.040998 -50.33662 
L 118.753114 -49.905778 
L 118.318718 -49.489816 
L 117.796929 -49.240756 
L 117.257147 -49.313856 
L 116.930707 -49.67936 
L 116.614549 -50.678835 
L 116.177582 -51.10903 
L 115.321642 -51.39561 
L 114.45285 -51.387847 
L 113.607191 -51.158195 
L 112.830933 -50.778459 
L 112.522486 -50.746114 
L 112.28344 -50.835387 
L 111.404366 -51.39561 
L 111.273276 -51.449304 
L 111.131905 -51.342564 
L 110.18086 -50.876789 
L 109.710478 -50.740938 
L 109.355764 -50.812098 
L 109.186118 -51.204772 
L 109.06788 -51.701598 
L 108.833975 -52.160257 
L 108.515246 -52.525761 
L 108.137399 -52.748945 
L 107.921486 -52.767058 
L 107.440823 -52.670022 
L 107.212058 -52.673903 
L 107.055264 -52.763177 
L 106.813647 -53.040701 
L 106.646572 -53.117036 
L 106.469215 -53.107979 
L 106.181331 -52.999298 
L 106.047671 -52.972128 
L 104.011921 -52.969541 
L 103.004328 -53.117683 
L 102.10212 -53.516179 
L 101.18192 -54.293117 
L 101.068823 -54.357808 
L 100.72182 -54.394035 
L 100.601012 -54.492365 
L 100.503337 -54.821642 
L 100.395381 -54.933557 
L 99.824754 -55.021537 
L 99.421202 -54.846224 
L 99.043355 -54.56676 
L 98.71992 -54.399083 
L 97.755589 -53.899149 
L 97.259503 -53.272941 
L 96.727432 -52.774174 
L 95.825225 -52.708836 
L 95.182627 -52.925551 
L 94.863899 -52.95919 
L 94.504044 -52.826574 
L 94.159611 -52.538699 
L 93.956551 -52.273466 
L 93.732927 -52.04252 
L 93.316523 -51.852975 
L 92.959239 -51.799929 
L 91.961927 -51.83098 
L 91.620065 -51.736532 
L 90.951763 -51.474533 
L 90.609901 -51.420193 
L 89.939029 -51.462889 
L 89.715405 -51.408549 
L 89.301572 -51.212535 
L 89.129356 -51.097385 
L 88.849183 -50.8535 
L 88.640982 -50.761639 
L 88.489329 -50.751289 
L 88.155178 -50.795279 
L 87.962398 -50.757758 
L 87.630818 -50.645196 
L 87.430327 -50.769402 
L 87.24783 -50.980942 
L 86.975368 -51.1362 
L 86.731181 -51.156901 
L 86.042316 -51.074743 
L 85.813551 -51.118086 
L 85.358592 -51.288223 
L 85.124686 -51.347739 
L 84.759691 -51.311512 
L 84.726276 -51.106442 
L 84.795676 -50.841856 
L 84.746839 -50.628376 
L 84.258465 -50.379316 
L 83.734105 -50.349558 
L 81.685503 -50.863851 
L 81.184277 -50.901372 
L 80.611079 -50.863851 
L 79.444122 -50.52293 
L 78.426247 -49.84885 
L 77.66027 -48.91536 
L 77.26186 -47.798148 
L 77.040806 -45.70475 
L 76.418771 -44.129526 
L 76.403349 -43.514962 
L 76.261978 -42.978027 
L 75.406037 -41.779951 
L 75.118154 -41.20679 
L 75.100161 -40.588345 
L 75.298081 -40.057879 
L 75.55769 -39.545527 
L 75.747899 -38.986597 
L 75.583394 -38.087393 
L 74.622068 -36.228176 
L 74.691469 -35.121961 
L 74.994775 -34.649718 
L 75.354629 -34.243459 
L 75.573113 -33.79321 
L 75.457445 -33.19029 
L 74.748017 -31.670054 
L 74.173263 -30.440709 
L 73.830387 -29.707331 
L 72.771386 -27.44703 
L 71.640414 -25.032765 
L 70.841023 -23.319749 
L 69.71005 -20.90419 
L 68.432566 -18.171645 
L 68.337462 -18.247981 
L 68.011022 -18.435584 
L 68.049578 -18.674941 
L 68.190949 -18.994514 
L 68.180668 -19.204113 
L 68.090704 -19.290798 
L 67.746272 -19.509454 
L 67.66916 -19.632367 
L 67.638315 -20.133074 
L 67.592048 -20.359493 
L 67.502084 -20.587205 
L 67.329868 -20.845968 
L 66.859487 -21.385491 
L 66.548469 -22.00523 
L 66.350549 -22.527932 
L 66.314564 -22.731062 
L 66.314564 -23.665199 
L 66.204037 -24.12321 
L 65.887879 -24.708016 
L 65.787633 -25.032765 
L 65.810767 -25.590401 
L 66.198896 -26.448202 
L 66.314564 -26.928209 
L 66.240022 -27.439267 
L 65.857034 -28.312595 
L 65.787633 -28.823653 
L 65.872456 -29.104412 
L 66.062665 -29.47315 
L 66.28886 -29.813424 
L 66.006117 -29.876821 
L 65.687388 -29.901404 
L 65.353237 -29.848357 
L 65.098769 -29.857414 
L 65.016516 -30.073482 
L 65.034509 -30.424107 
L 64.939404 -31.275439 
L 65.031938 -31.935287 
L 65.702811 -32.61066 
L 65.908442 -33.201935 
L 65.839041 -33.865664 
L 65.592284 -34.425887 
L 65.286407 -34.949884 
L 64.918841 -35.780515 
L 64.391911 -36.552925 
L 64.193991 -36.762523 
L 63.934381 -36.875086 
L 63.692765 -36.88673 
L 63.428014 -36.824627 
L 63.093863 -36.705595 
L 62.988477 -36.811688 
L 62.901084 -36.932014 
L 62.834254 -37.067864 
L 62.502673 -38.328044 
L 62.299613 -38.815813 
L 61.88578 -39.335928 
L 61.402546 -39.740893 
L 60.998995 -39.880626 
L 59.929712 -39.76677 
L 59.834607 -39.802997 
L 59.567287 -39.977662 
L 59.418204 -40.006126 
L 59.292255 -39.958255 
L 59.004371 -39.795234 
L 58.904126 -39.76677 
L 58.593108 -39.814641 
L 58.397759 -39.874157 
L 58.21012 -39.991894 
L 56.346587 -41.981787 
L 54.012671 -44.468506 
L 51.552807 -47.093017 
L 48.966993 -49.854026 
L 46.872125 -52.085216 
L 45.195015 -53.877686 
L 44.954613 -54.134624 
L 42.931715 -56.290773 
L 40.782868 -59.467097 
L 39.317745 -62.97852 
L 39.74443 -62.979814 
L 40.541251 -62.775391 
L 40.952514 -62.722344 
L 41.438318 -62.824556 
L 42.412496 -63.289684 
L 42.959989 -63.4223 
L 43.448364 -63.633193 
L 43.391815 -63.905541 
L 43.091079 -64.114493 
L 42.710661 -64.176596 
L 42.363658 -64.176596 
L 42.217146 -64.339617 
L 42.134894 -64.693477 
L 41.975529 -65.042808 
L 41.600252 -65.187715 
L 41.222405 -65.139844 
L 40.939662 -65.374672 
L 40.772586 -66.046164 
L 40.73403 -67.470658 
L 40.482132 -68.983779 
L 40.258508 -69.67209 
L 39.87809 -70.378515 
L 39.017009 -71.445269 
L 38.855074 -71.783602 
L 38.685429 -72.420161 
L 38.520924 -72.673102 
L 38.225329 -72.852943 
L 37.138053 -73.239795 
L 33.192503 -75.971693 
L 32.298007 -76.846314 
L 31.639986 -77.898835 
L 31.316117 -79.083973 
L 31.143901 -80.983298 
L 30.979396 -81.407024 
L 31.00767 -81.571339 
L 31.113056 -81.847569 
L 31.226153 -82.462133 
L 31.246717 -82.715075 
L 30.886862 -85.080822 
L 30.753201 -85.382928 
L 30.60926 -85.628754 
L 30.516725 -85.880401 
L 30.575844 -86.550599 
L 30.460177 -86.789309 
L 30.300813 -87.00473 
L 30.203138 -87.288076 
L 30.218928 -87.648733 
L 30.223701 -87.757732 
L 30.401058 -88.683459 
L 30.290531 -89.651882 
L 30.295672 -90.913355 
L 30.187715 -91.481989 
L 30.005218 -92.057091 
L 29.730186 -92.575912 
L 29.331775 -92.971821 
L 28.812556 -93.22735 
L 27.740703 -93.586384 
L 27.224054 -93.916955 
L 26.830784 -94.364616 
L 26.730539 -94.637612 
L 26.9336 -94.698421 
L 27.221484 -94.963007 
L 27.439967 -95.386733 
L 27.578768 -95.830513 
L 27.627606 -96.158495 
L 27.748414 -96.262001 
L 27.997742 -96.6495 
L 28.208514 -97.066756 
L 28.216225 -97.261476 
L 28.545235 -97.377919 
L 28.655762 -97.6645 
L 28.630058 -98.381276 
L 28.712311 -98.795298 
L 29.074736 -99.501722 
L 29.156988 -99.763074 
L 29.192974 -100.518017 
L 29.151848 -100.82918 
L 28.987343 -101.224442 
L 28.637769 -101.814423 
L 28.51182 -102.157932 
L 28.478405 -102.592008 
L 28.545235 -102.982094 
L 28.987343 -104.115479 
L 29.329205 -105.479164 
L 29.49628 -105.840786 
L 29.321494 -106.347963 
L 29.156988 -109.018404 
L 28.797134 -109.479651 
L 28.673755 -109.982946 
L 28.344745 -110.481713 
L 28.038868 -110.50112 
L 27.365426 -110.085158 
L 26.99786 -110.043755 
L 26.216461 -110.134323 
L 25.792346 -110.13691 
L 25.383654 -110.413141 
L 25.196016 -110.807108 
L 25.088059 -111.244419 
L 24.915843 -111.648737 
L 24.553418 -112.034942 
L 24.185852 -112.33058 
L 23.900538 -112.675382 
L 23.692337 -112.879159 
L 23.486705 -113.176737 
L 23.432727 -113.376632 
L 23.507269 -113.545475 
L 23.692337 -113.749899 
L 23.810575 -113.773187 
L 24.070184 -113.576527 
L 24.201274 -113.579115 
L 24.309231 -113.685208 
L 24.396624 -113.898041 
L 24.473736 -114.006075 
L 24.584263 -114.248666 
L 24.562901 -114.380222 
L 24.540566 -114.51778 
L 24.509721 -114.604466 
L 24.841302 -114.90916 
L 25.417069 -115.468736 
L 25.792346 -115.580652 
L 26.509486 -116.28837 
L 26.882192 -116.75738 
L 27.105816 -117.158463 
L 28.136543 -117.1507 
L 31.683683 -118.855306 
L 32.076953 -119.170351 
L 33.007434 -120.369074 
L 33.259333 -120.830967 
L 33.315881 -121.107197 
L 33.30817 -121.379546 
L 33.200214 -121.96888 
L 33.254192 -122.254167 
L 33.878797 -123.110028 
L 36.728459 -129.584923 
L 36.991541 -130.182687 
L 37.330832 -130.569539 
L 37.734384 -130.843828 
L 39.227781 -131.591009 
L 39.531087 -131.847185 
L 39.721296 -132.197809 
L 40.14027 -133.337017 
L 40.6672 -134.383716 
L 41.487155 -136.552156 
L 41.877855 -138.099562 
L 42.057782 -138.570512 
L 42.327673 -138.984534 
L 42.553867 -139.133323 
L 43.124494 -139.398556 
L 43.335266 -139.654732 
L 43.402096 -139.909615 
L 43.281288 -141.363867 
L 43.312133 -141.600635 
L 43.4278 -141.876219 
L 43.772233 -142.44938 
L 44.240044 -143.633224 
L 44.803504 -144.114281 
L 45.170526 -144.427629 
L 47.082897 -145.502792 
L 48.254995 -146.408465 
L 48.3501 -146.553372 
L 48.555731 -146.968688 
L 48.699673 -147.109714 
L 48.859037 -147.14206 
L 49.326848 -147.170524 
L 49.434805 -147.193813 
L 49.488783 -147.523736 
L 49.005549 -147.972691 
L 49.103224 -148.366012 
L 50.442398 -150.182533 
L 50.635177 -150.53704 
L 51.493688 -150.260162 
L 52.398466 -150.201941 
L 54.210591 -150.44906 
L 55.297867 -150.362374 
L 56.577922 -149.169473 
L 57.531537 -148.842137 
L 58.415751 -148.902947 
L 61.682719 -149.658537 
L 62.127396 -149.837084 
L 62.93707 -150.335204 
L 63.302065 -150.691004 
L 63.846988 -151.464707 
L 64.196561 -151.829564 
L 64.610394 -152.055983 
L 65.163028 -152.238411 
L 66.743819 -152.445422 
L 67.586907 -152.736531 
L 68.157534 -152.727474 
L 68.694746 -152.79734 
L 69.193402 -153.0988 
L 70.054483 -153.757354 
L 70.573702 -153.963071 
L 72.763675 -154.273587 
L 73.066981 -154.478011 
L 73.169797 -154.828636 
L 73.167227 -156.530007 
L 73.295746 -157.055297 
L 73.673594 -157.367107 
L 73.940914 -157.361932 
L 74.167109 -157.251958 
L 74.419007 -157.174328 
L 74.755728 -157.267483 
L 74.912522 -157.456381 
L 75.215828 -158.112347 
L 75.372622 -158.362054 
L 75.771033 -158.698447 
L 76.205429 -158.924865 
L 77.187318 -159.218562 
L 77.223304 -159.010257 
L 77.238726 -158.785132 
L 77.225874 -158.554833 
L 77.092214 -157.79148 
L 77.202741 -157.333468 
L 77.472632 -156.958261 
L 77.876183 -156.659389 
L 78.135793 -156.553296 
L 78.374839 -156.492486 
L 78.593322 -156.394156 
L 78.788672 -156.169031 
L 78.914621 -155.820994 
L 78.865784 -155.559643 
L 78.757827 -155.309936 
L 78.70899 -155.002007 
L 78.816946 -154.450841 
L 79.073986 -154.177845 
L 80.035312 -153.895792 
L 80.623931 -153.604683 
L 81.194558 -153.153141 
L 82.112188 -152.121967 
L 82.657111 -151.212413 
L 82.998973 -150.984701 
L 83.574741 -151.048098 
L 83.757238 -151.149016 
L 83.81237 -151.195027 
L 84.350999 -151.644548 
L 84.42297 -151.643254 
L 84.69029 -151.60444 
L 84.777684 -151.644548 
L 84.826521 -151.842502 
L 84.741698 -151.964121 
L 84.633742 -152.07539 
L 84.610608 -152.247468 
L 84.800817 -152.745588 
L 85.065567 -153.070336 
L 85.443415 -153.281229 
L 86.412452 -153.561987 
L 87.484306 -153.727596 
L 87.962398 -153.678431 
L 88.137185 -153.979891 
L 88.350527 -154.12868 
L 88.617848 -154.151968 
L 89.381254 -154.022587 
L 89.458366 -154.136443 
L 89.432662 -154.348629 
L 89.545759 -154.578929 
L 89.887621 -154.875213 
L 90.378566 -154.709604 
L 90.656168 -154.556934 
L 90.787258 -154.417201 
L 90.946622 -154.404263 
L 91.303907 -154.633269 
L 91.782 -155.089987 
L 92.653362 -156.152212 
L 93.103181 -156.567528 
L 93.29596 -156.593404 
L 93.499021 -156.559765 
L 93.660956 -156.672327 
L 93.745778 -157.135514 
L 93.900002 -157.420154 
L 94.225933 -157.736119 
L 94.247005 -157.756547 
L 94.650556 -158.037305 
L 98.004917 -159.230206 
L 98.508713 -159.544604 
L 98.835153 -159.924987 
L 100.009822 -159.571774 
L 100.307987 -159.764553 
L 100.529041 -160.331246 
L 100.937733 -160.626236 
L 101.438959 -160.745267 
L 102.333455 -160.838422 
L 102.855245 -160.985918 
L 103.333338 -161.230449 
L 103.847416 -161.940756 
L 104.325509 -162.098602 
L 104.870432 -162.129653 
L 105.31768 -162.102483 
L 108.7363 -161.524146 
L 109.769597 -161.482744 
L 110.741205 -161.658703 
L 112.715266 -162.402649 
L 115.033758 -162.953816 
L 125.921936 -163.241043 
L 127.937122 -163.671885 
L 128.649121 -164.729581 
L 128.667113 -165.944477 
L 129.163199 -166.920663 
L 130.008858 -167.66849 
L 131.065288 -168.198309 
L 132.525271 -168.697723 
L 132.959667 -168.917025 
L 133.502019 -169.393797 
L 134.543028 -170.980666 
L 135.352701 -171.760838 
L 135.697133 -172.203324 
L 135.923328 -172.812713 
L 136.175226 -173.292072 
L 138.660794 -176.132651 
L 139.676099 -178.136776 
L 139.948806 -178.293206 
L 140.182466 -178.427238 
L 140.426653 -178.818618 
L 141.238897 -179.37496 
L 140.7351 -179.950062 
L 139.979405 -180.512873 
L 139.588706 -180.742526 
L 139.362511 -181.142316 
L 136.388568 -182.41608 
L 136.095544 -182.631501 
L 135.974735 -182.963365 
L 135.905335 -183.387091 
L 135.73826 -183.624507 
L 135.329567 -183.400029 
L 134.913164 -183.739657 
L 134.910594 -184.107748 
L 135.483791 -184.954552 
L 135.699704 -184.855575 
L 135.928468 -184.862044 
L 136.105825 -184.976547 
L 136.180367 -185.202965 
L 136.234345 -185.462376 
L 136.375717 -185.549062 
L 136.571066 -185.591111 
L 136.959195 -185.807178 
L 137.45271 -185.963084 
L 137.552956 -186.057532 
L 137.617215 -186.244489 
L 137.774009 -186.419155 
L 138.139005 -186.749725 
L 138.69678 -187.139812 
L 139.660676 -187.614643 
L 140.652847 -187.892167 
L 141.303156 -187.689684 
L 141.475373 -187.689684 
L 141.686145 -187.727205 
L 142.349306 -187.565478 
L 142.493248 -187.604292 
L 142.619197 -187.892167 
L 142.927644 -188.01508 
L 143.942948 -188.068126 
L 144.454456 -188.209799 
L 144.698643 -188.217562 
L 144.996809 -188.060363 
L 145.258988 -187.830711 
L 145.500605 -187.747906 
L 145.73194 -188.031899 
L 146.017254 -187.838473 
L 146.441368 -187.674159 
L 146.91175 -187.561596 
L 147.338435 -187.519547 
L 147.667445 -187.59006 
L 148.62106 -187.946507 
L 148.849825 -187.832004 
L 150.751914 -187.860468 
L 150.880434 -187.817772 
L 150.980679 -187.746612 
L 151.11691 -187.731087 
L 151.353386 -187.860468 
L 151.924013 -187.843649 
L 152.654004 -188.144462 
L 153.412269 -188.302954 
L 154.07029 -187.860468 
L 154.476411 -188.04225 
L 155.561116 -188.02543 
L 155.78474 -188.125054 
L 155.908119 -188.239557 
L 156.509591 -188.495733 
L 156.725504 -188.544251 
L 157.013387 -188.561071 
L 157.666267 -188.730561 
L 158.185486 -188.790077 
L 160.272644 -188.671046 
L 160.588802 -188.806897 
L 160.894678 -189.244207 
L 161.249392 -189.076658 
L 161.332825 -189.095586 
L 161.614388 -189.159462 
L 162.251845 -189.585128 
L 162.436913 -189.617474 
L 162.660537 -189.592891 
L 162.848175 -189.627824 
L 162.930428 -189.834189 
L 162.950991 -189.979096 
L 163.01011 -190.121416 
L 163.094933 -190.226862 
L 163.192608 -190.269558 
L 163.380246 -190.172522 
L 163.46764 -189.789552 
L 163.627004 -189.757206 
L 163.776087 -189.860065 
L 163.765805 -189.988153 
L 163.727249 -190.127885 
L 163.79665 -190.269558 
L 164.526641 -190.873772 
L 164.729702 -190.96822 
L 164.935333 -190.933287 
L 165.274625 -190.792908 
L 165.493108 -190.782557 
L 165.521382 -190.868596 
L 165.498249 -191.044556 
L 165.534234 -191.21728 
L 165.747577 -191.29491 
L 165.935215 -191.159059 
L 166.148558 -190.85954 
L 166.444153 -190.560021 
L 166.865697 -190.424817 
L 167.238404 -190.536732 
L 167.945261 -191.027736 
L 168.310257 -191.139651 
L 168.567296 -191.063963 
L 168.852609 -190.878947 
L 169.412955 -190.424817 
L 169.90647 -190.532851 
L 171.960212 -190.424817 
L 172.430594 -190.516031 
L 172.582247 -190.604011 
L 173.042347 -190.939756 
L 173.278823 -191.066551 
L 173.543573 -191.096308 
L 173.844309 -190.96822 
L 174.348106 -191.498686 
L 174.651412 -192.120366 
L 175.003555 -192.634012 
L 175.635872 -192.849432 
L 175.779814 -193.115312 
L 175.522774 -193.704647 
L 175.36084 -194.29204 
L 175.810658 -194.55792 
L 176.113964 -194.610966 
L 176.293892 -194.761696 
L 176.383856 -195.001053 
L 176.406989 -195.319979 
L 176.496953 -195.56257 
L 176.723147 -195.528284 
L 177.255218 -195.226824 
L 177.286063 -195.250113 
L 177.751304 -195.222943 
L 177.766726 -195.226824 
L 178.1857 -195.090973 
L 178.357916 -195.071566 
L 179.63283 -195.071566 
L 179.308961 -196.096917 
L 180.326836 -196.609916 
L 181.447526 -196.952131 
L 181.686573 -197.137794 
L 181.871641 -196.952131 
L 182.087554 -197.188253 
L 182.19808 -197.476127 
L 182.334311 -197.720012 
L 182.627336 -197.822224 
L 182.727581 -197.87527 
L 182.874093 -198.110098 
L 182.966627 -198.164439 
L 183.084865 -198.108805 
L 183.2468 -198.003358 
L 183.263062 -197.996617 
L 183.421587 -197.930905 
L 183.568099 -197.977482 
L 183.730034 -198.457489 
L 183.77116 -199.088872 
L 183.948517 -199.638098 
L 184.503721 -199.872926 
L 184.763331 -200.090935 
L 185.719516 -201.138281 
L 185.932859 -201.505078 
L 186.027963 -201.770958 
L 186.256728 -201.957915 
L 186.79651 -202.267137 
L 186.909607 -202.485146 
L 186.953304 -202.705742 
L 187.086964 -202.797603 
L 187.472523 -202.624231 
L 187.439108 -202.952214 
L 187.397982 -203.031137 
L 187.290025 -203.13723 
L 187.290025 -203.307367 
L 187.642169 -203.423811 
L 187.793822 -203.741443 
L 187.814385 -204.589541 
L 187.894067 -204.970571 
L 188.246211 -205.648532 
L 188.323323 -206.127245 
L 188.387582 -206.235925 
L 188.528954 -206.369189 
L 188.696029 -206.48822 
L 188.83226 -206.554852 
L 188.863105 -206.592372 
L 188.888809 -206.657063 
L 188.953068 -206.715285 
L 189.09444 -206.742455 
L 189.207537 -206.685527 
L 189.438872 -206.442936 
L 189.528836 -206.40024 
L 189.711334 -206.479163 
L 189.888691 -206.60337 
L 190.207419 -206.897067 
L 190.305094 -206.922943 
L 190.418191 -206.894479 
L 190.508155 -206.889304 
L 190.546711 -206.990222 
L 190.526148 -207.336318 
L 190.546711 -207.425592 
L 190.919418 -208.338381 
L 191.173886 -208.776985 
L 192.549046 -209.671014 
L 192.752107 -209.725354 
L 192.826648 -210.118028 
L 193.006575 -210.464771 
L 194.281489 -211.939724 
L 194.638774 -212.227599 
L 194.983206 -212.010884 
L 196.001081 -211.614329 
L 196.335232 -211.543169 
L 197.201454 -211.87374 
L 198.011127 -212.686258 
L 198.669147 -213.699964 
L 199.964624 -216.660868 
L 200.65606 -217.567188 
L 201.44517 -218.054957 
L 201.681646 -218.021318 
L 201.984952 -217.917166 
L 202.29854 -217.861531 
L 202.558149 -217.970212 
L 202.650683 -217.91846 
L 203.442364 -218.16752 
L 203.576024 -218.241267 
L 204.213481 -218.397172 
L 204.527069 -218.785965 
L 204.727559 -219.286026 
L 205.025725 -219.780264 
L 205.236497 -219.868244 
L 205.52181 -219.896061 
L 205.768568 -219.97369 
L 205.873954 -220.207871 
L 205.85082 -220.412942 
L 205.742864 -220.783621 
L 205.71973 -221.054676 
L 205.809694 -221.580613 
L 206.57053 -222.857612 
L 206.385462 -223.036805 
L 206.364898 -223.206943 
L 206.406025 -223.373845 
L 206.400884 -223.540748 
L 206.24666 -223.763931 
L 205.809694 -224.264639 
L 205.71973 -224.497527 
L 205.665752 -224.907667 
L 205.436987 -225.867033 
L 205.383009 -226.377445 
L 205.436987 -226.863274 
L 205.665752 -227.603985 
L 205.71973 -228.094989 
L 205.863672 -228.48831 
L 206.208105 -228.725078 
L 206.629649 -228.838934 
L 207.002355 -228.870633 
L 207.146297 -228.950203 
L 207.259395 -229.128103 
L 207.411048 -229.304709 
L 207.673228 -229.383632 
L 207.876288 -229.41339 
L 208.34924 -229.540831 
L 208.60628 -229.570589 
L 209.099795 -229.32541 
L 209.369686 -229.269776 
L 209.487924 -229.477434 
L 209.580458 -229.51172 
L 210.151085 -230.052536 
L 210.91192 -230.576533 
L 211.346317 -230.780309 
L 212.857707 -231.156163 
L 213.125027 -231.438863 
L 212.883411 -231.963506 
L 213.045345 -232.308309 
L 213.217561 -232.823895 
L 213.495164 -233.296139 
L 213.970686 -233.502503 
L 216.055273 -233.290964 
L 216.448543 -233.346598 
L 217.14769 -232.982388 
L 217.48184 -233.510266 
L 217.751731 -234.295614 
L 218.4663 -234.879126 
L 218.733621 -235.22781 
L 219.05492 -235.463285 
L 219.437908 -235.305439 
L 219.638399 -235.293795 
L 219.905719 -235.479458 
L 220.37096 -235.89542 
L 220.689689 -236.065558 
L 221.203767 -236.275156 
L 221.743549 -236.423298 
L 221.831689 -236.43734 
L 222.506955 -236.544917 
L 222.884803 -236.658773 
L 223.188109 -236.850905 
L 223.645638 -237.372314 
L 223.882114 -237.540511 
L 224.213695 -237.604555 
L 224.606965 -237.532748 
L 224.96682 -237.412423 
L 225.267555 -237.38784 
L 225.49375 -237.604555 
L 226.059236 -237.096084 
L 226.583596 -237.057269 
L 227.113096 -237.211234 
L 227.704286 -237.278512 
L 227.909917 -237.213821 
L 228.38544 -236.986109 
L 228.637338 -236.936297 
L 229.50356 -236.959586 
L 229.740036 -236.936297 
L 230.665377 -236.698882 
L 231.292552 -236.176826 
L 232.806513 -235.693585 
L 234.176531 -235.559675 
" style="stroke: #000000"/>
    </defs>
    <g clip-path="url(#pde3da5e5b6)">
     <use xlink:href="#mf3011b8abd" x="0" y="255.7762" style="fill: #f5f5f5; stroke: #000000"/>
    </g>
   </g>
  </g>
 </g>
 <defs>
  <clipPath id="pde3da5e5b6">
   <rect x="7.2" y="7.2" width="357.12" height="241.3762"/>
  </clipPath>
 </defs>
</svg>
