<?xml version="1.0" encoding="utf-8" standalone="no"?>
<!DOCTYPE svg PUBLIC "-//W3C//DTD SVG 1.1//EN"
  "http://www.w3.org/Graphics/SVG/1.1/DTD/svg11.dtd">
<svg xmlns:xlink="http://www.w3.org/1999/xlink" width="235.467315pt" height="280.512pt" viewBox="0 0 235.467315 280.512" xmlns="http://www.w3.org/2000/svg" version="1.1">
 <metadata>
  <rdf:RDF xmlns:dc="http://purl.org/dc/elements/1.1/" xmlns:cc="http://creativecommons.org/ns#" xmlns:rdf="http://www.w3.org/1999/02/22-rdf-syntax-ns#">
   <cc:Work>
    <dc:type rdf:resource="http://purl.org/dc/dcmitype/StillImage"/>
    <dc:date>2024-03-04T13:11:09.899413</dc:date>
    <dc:format>image/svg+xml</dc:format>
    <dc:creator>
     <cc:Agent>
      <dc:title>Matplotlib v3.8.0, https://matplotlib.org/</dc:title>
     </cc:Agent>
    </dc:creator>
   </cc:Work>
  </rdf:RDF>
 </metadata>
 <defs>
  <style type="text/css">*{stroke-linejoin: round; stroke-linecap: butt}</style>
 </defs>
 <g id="figure_1">
  <g id="patch_1">
   <path d="M 0 280.512 
L 235.467315 280.512 
L 235.467315 0 
L 0 0 
z
" style="fill: #ffffff"/>
  </g>
  <g id="axes_1">
   <g id="PatchCollection_1">
    <path d="M 56.431415 184.208339 
L 56.645647 184.106668 
L 56.554777 183.863542 
L 56.387357 183.718771 
L 56.207821 183.603839 
L 56.082256 183.449675 
L 56.066836 183.242465 
L 56.095474 182.984973 
L 56.097676 182.72748 
L 55.997995 182.521929 
L 55.911532 182.497616 
L 55.736952 182.581052 
L 55.471606 182.700773 
L 55.35883 182.568769 
L 55.221 182.443063 
L 55.045546 182.41792 
L 54.913962 182.298506 
L 54.61931 182.135064 
L 54.498285 182.07675 
L 54.140063 181.850569 
L 53.94102 181.637688 
L 53.821574 181.438107 
L 53.887894 181.211947 
L 53.994029 181.078928 
L 54.20632 180.999162 
L 54.471666 180.932722 
L 54.710412 180.706584 
L 54.92259 180.294047 
L 55.108292 180.041193 
L 55.45321 179.695118 
L 55.731843 179.375586 
L 55.917629 179.175803 
L 56.196348 178.949288 
L 56.827936 178.807627 
L 57.133037 178.856252 
L 57.368499 178.82759 
L 57.664197 178.892046 
L 57.921297 179.008077 
L 58.210253 179.078381 
L 58.66405 179.109877 
L 58.963643 179.176184 
L 59.355539 179.224614 
L 59.424532 179.259196 
L 59.519422 179.371572 
L 59.648731 179.466682 
L 59.786584 179.509935 
L 59.915944 179.484035 
L 59.907577 179.293848 
L 59.924965 179.190103 
L 59.9769 178.973964 
L 60.158252 178.775103 
L 60.253427 178.429202 
L 60.14825 178.207548 
L 60.164772 178.004206 
L 60.187352 177.959449 
L 60.232511 177.893694 
L 60.268859 177.80418 
L 60.265555 177.684275 
L 60.225617 177.60452 
L 60.172166 177.658398 
L 60.088478 177.827812 
L 59.912341 177.927813 
L 59.643402 177.927319 
L 59.558633 177.750209 
L 59.550799 177.496508 
L 59.610193 177.220678 
L 59.627816 177.014573 
L 59.696106 176.683038 
L 59.711526 176.521138 
L 59.667468 176.40289 
L 59.557324 176.263645 
L 59.417991 176.146503 
L 59.283063 176.099535 
L 59.133817 176.182419 
L 59.023122 176.358685 
L 58.884017 176.78936 
L 58.738257 176.866071 
L 58.638613 176.758479 
L 58.615035 176.476933 
L 58.569886 176.105579 
L 58.403366 175.643234 
L 58.284507 174.999031 
L 58.165678 174.533737 
L 58.130349 173.948979 
L 58.285358 173.614729 
L 58.45244 173.24449 
L 58.548032 172.898117 
L 58.912426 172.747712 
L 59.026426 172.363131 
L 59.426251 171.640384 
L 59.720338 171.051909 
L 59.877294 170.64412 
L 60.081613 170.426965 
L 59.996251 170.652409 
L 59.983033 170.883931 
L 60.019381 171.117111 
L 60.081613 171.345318 
L 60.272163 170.731425 
L 60.390027 170.074064 
L 60.541043 169.797647 
L 60.792613 169.860594 
L 61.131918 169.433617 
L 61.471029 169.031864 
L 61.797449 168.554813 
L 62.086125 168.442061 
L 62.324478 168.216204 
L 62.612943 167.940156 
L 62.964099 167.727026 
L 63.127126 167.739798 
L 63.252542 168.05397 
L 63.402932 168.418292 
L 63.6159 168.770017 
L 63.891416 169.159365 
L 64.199375 169.167683 
L 64.054376 168.707599 
L 63.979313 168.318356 
L 63.991941 167.904022 
L 64.104724 167.703188 
L 64.305207 167.514981 
L 64.455511 167.753789 
L 64.55559 168.168233 
L 64.467802 168.46944 
L 64.605487 168.695506 
L 64.730595 168.984281 
L 64.835461 169.229569 
L 65.033722 169.44562 
L 65.151577 169.530161 
L 65.63346 169.769972 
L 65.8543 169.835174 
L 65.98317 169.823018 
L 66.205111 169.677142 
L 66.474415 169.593153 
L 66.49314 169.518558 
L 66.495894 169.416334 
L 66.486531 169.33124 
L 66.474415 169.306375 
L 66.522328 169.226806 
L 66.542154 169.173208 
L 66.546122 168.684344 
L 66.496206 168.483478 
L 66.433765 168.270071 
L 66.296196 168.044095 
L 66.221242 167.805539 
L 66.346573 167.679966 
L 66.647085 167.742856 
L 66.784917 167.642504 
L 67.110585 167.630056 
L 67.361098 167.642709 
L 67.586606 167.630235 
L 67.762126 167.517273 
L 68.063051 167.341548 
L 68.326207 167.366728 
L 68.515398 167.535976 
L 68.656383 167.791811 
L 68.762673 167.940449 
L 68.907513 167.978576 
L 69.162498 167.907296 
L 69.040788 168.119478 
L 68.927339 168.402941 
L 68.94276 168.650487 
L 69.212614 168.757684 
L 69.372324 168.775366 
L 69.645483 168.83891 
L 69.817309 168.842225 
L 70.167019 168.769288 
L 70.321772 168.757684 
L 70.652757 168.681431 
L 70.890119 168.492456 
L 71.014583 168.248224 
L 71.010177 168.008414 
L 70.927568 167.836015 
L 70.775018 167.602283 
L 70.579511 167.40944 
L 70.371888 167.350316 
L 70.371888 167.26688 
L 70.649453 167.26688 
L 70.649453 167.164656 
L 70.471569 167.129845 
L 70.386758 167.03812 
L 70.384555 166.916557 
L 70.456149 166.793889 
L 70.315163 166.75742 
L 70.268903 166.673984 
L 70.294236 166.557946 
L 70.371888 166.423675 
L 70.252381 166.398809 
L 70.195106 166.362341 
L 70.180236 166.286087 
L 70.186845 166.145185 
L 70.424758 166.242988 
L 70.612554 166.162867 
L 70.783279 166.024727 
L 70.968322 165.951237 
L 71.055336 165.940738 
L 71.176496 165.906479 
L 71.253597 165.851224 
L 71.204032 165.77497 
L 71.091684 165.755631 
L 70.869192 165.858407 
L 70.750235 165.858407 
L 70.547018 165.732976 
L 70.599888 165.633515 
L 70.749134 165.544001 
L 70.833945 165.450066 
L 70.927568 165.482114 
L 71.145104 165.526319 
L 71.393481 165.544001 
L 71.581278 165.496481 
L 71.637451 165.585995 
L 71.728321 165.696507 
L 71.75806 165.77497 
L 71.858842 165.77497 
L 71.726669 165.484324 
L 71.228264 165.357236 
L 71.389075 165.117425 
L 71.597249 165.004703 
L 71.794408 164.981496 
L 71.975045 164.933976 
L 72.136407 164.746106 
L 72.26803 164.800809 
L 72.374871 164.859933 
L 72.453624 164.93287 
L 72.496581 165.032884 
L 72.573131 164.717372 
L 72.280146 164.618464 
L 71.867103 164.678141 
L 71.581278 164.838935 
L 71.505828 164.635041 
L 71.495365 164.338317 
L 71.571365 164.058722 
L 71.75806 163.911741 
L 71.943103 163.933844 
L 72.067016 164.044356 
L 72.178813 164.17918 
L 72.32145 164.283061 
L 72.474001 164.330029 
L 72.518059 164.304058 
L 72.532378 164.221174 
L 72.598465 164.096296 
L 72.721827 163.972523 
L 72.780754 163.928871 
L 72.794522 163.875825 
L 72.783508 163.726082 
L 72.737247 163.653144 
L 72.551102 163.602308 
L 72.496581 163.540974 
L 72.499885 163.471904 
L 72.575334 163.424384 
L 72.64032 163.245908 
L 72.710812 163.2227 
L 72.747711 163.193415 
L 72.690986 163.068536 
L 72.60232 163.016596 
L 72.490523 163.024332 
L 72.387537 163.007202 
L 72.32145 162.882877 
L 72.301624 162.98068 
L 72.282349 163.003334 
L 72.282349 163.012175 
L 72.32145 163.068536 
L 72.175509 163.156393 
L 72.02406 163.186784 
L 71.905103 163.138159 
L 71.858842 162.983995 
L 71.519046 163.28956 
L 71.389075 163.355315 
L 71.412756 163.191204 
L 71.910394 162.595897 
L 72.218535 162.152932 
L 72.415457 161.943886 
L 73.44785 161.071767 
L 73.718429 160.568317 
L 73.878248 160.273695 
L 74.07461 160.212465 
L 74.297448 160.304636 
L 74.339853 160.168707 
L 74.353621 160.051564 
L 74.389969 159.913425 
L 74.484143 159.910109 
L 74.607505 159.9405 
L 74.689577 159.857897 
L 74.61172 159.71884 
L 74.403782 159.623045 
L 74.195656 159.692255 
L 73.892151 159.726712 
L 73.848937 159.605085 
L 74.013934 159.396822 
L 74.343705 159.11064 
L 74.569271 158.97197 
L 74.890155 158.850801 
L 74.716993 158.69426 
L 74.731969 158.41599 
L 74.838809 158.266246 
L 74.99136 158.110424 
L 75.152722 158.014279 
L 75.285997 158.04467 
L 75.510142 157.987204 
L 75.702344 157.960681 
L 75.761822 157.922002 
L 76.025619 157.682744 
L 76.329619 158.251327 
L 76.529531 158.473456 
L 76.865473 158.601649 
L 76.803792 158.450248 
L 76.3533 157.909846 
L 76.233242 157.709819 
L 76.213967 157.486585 
L 76.276198 157.273298 
L 76.403966 157.10974 
L 76.45243 157.225225 
L 76.54385 157.351208 
L 76.633068 157.417516 
L 76.67272 157.354524 
L 76.645183 157.253405 
L 76.524024 157.079902 
L 76.496488 157.025751 
L 76.564778 156.751129 
L 76.692546 156.519055 
L 76.765792 156.283664 
L 76.67272 155.996886 
L 76.811502 155.988598 
L 76.949183 155.996886 
L 76.907328 156.063193 
L 76.881444 156.132816 
L 76.868777 156.217357 
L 76.865473 156.325106 
L 76.902922 156.423462 
L 76.988835 156.425672 
L 77.117705 156.339473 
L 77.353965 156.35826 
L 77.416748 156.393071 
L 77.539008 156.510766 
L 77.605095 156.552761 
L 77.588573 156.422909 
L 77.535153 156.320686 
L 77.448139 156.245538 
L 77.32753 156.190835 
L 77.385356 156.160996 
L 77.448139 156.116239 
L 77.504313 156.089716 
L 77.249878 156.000202 
L 77.135328 155.996886 
L 77.192052 155.869798 
L 77.24327 155.835539 
L 77.311559 155.859299 
L 77.420052 155.912897 
L 77.461356 155.711766 
L 77.269704 155.639933 
L 76.992139 155.65651 
L 76.772951 155.719502 
L 76.826922 155.507319 
L 76.978922 155.475271 
L 77.189299 155.51837 
L 77.420052 155.533842 
L 77.349009 155.497373 
L 77.208574 155.397912 
L 77.135328 155.355918 
L 77.212429 155.32608 
L 77.258139 155.295689 
L 77.312661 155.269719 
L 77.420052 155.255352 
L 77.378748 155.200096 
L 77.32753 155.061956 
L 77.598486 155.00228 
L 77.88266 154.976862 
L 77.88266 155.061956 
L 77.817124 155.18573 
L 77.949298 155.183519 
L 78.344717 155.061956 
L 78.151964 155.013331 
L 78.107355 154.921054 
L 78.168486 154.796728 
L 78.408601 154.510503 
L 78.493413 154.34363 
L 78.621181 153.949103 
L 78.776485 154.059614 
L 78.88718 154.089453 
L 78.991267 154.03917 
L 79.134455 153.906556 
L 79.283151 153.850747 
L 79.491875 153.797701 
L 79.581092 153.73913 
L 79.369064 153.671165 
L 79.189528 153.697688 
L 79.00889 153.763995 
L 78.870108 153.750734 
L 78.814485 153.540209 
L 78.90976 153.509266 
L 79.121789 153.468929 
L 79.344832 153.381072 
L 79.470397 153.207016 
L 79.237441 153.236302 
L 78.672398 153.392123 
L 78.492311 153.304819 
L 78.435036 153.094846 
L 78.464224 152.850615 
L 78.53692 152.650589 
L 78.916369 152.925763 
L 79.120136 152.991518 
L 79.41973 153.013068 
L 79.481411 152.98544 
L 79.446165 152.925211 
L 79.349788 152.863877 
L 79.226977 152.836249 
L 79.080484 152.837354 
L 78.969789 152.825198 
L 78.883876 152.772152 
L 78.814485 152.650589 
L 79.037528 152.668271 
L 79.226977 152.631802 
L 79.372919 152.534552 
L 79.470397 152.372099 
L 79.26002 152.239485 
L 79.131702 152.077033 
L 79.146571 151.897451 
L 79.369064 151.715107 
L 79.474803 151.789702 
L 79.537585 151.860982 
L 79.561817 151.953812 
L 79.554107 152.094715 
L 79.752367 151.900214 
L 79.667556 151.620619 
L 79.63231 151.368652 
L 80.253526 151.1631 
L 80.419845 150.937656 
L 80.559178 150.687347 
L 80.754685 150.509975 
L 80.754685 150.425434 
L 79.923092 150.602805 
L 79.923092 150.509975 
L 80.017816 150.47848 
L 80.108135 150.425434 
L 79.765585 150.429302 
L 79.610831 150.401674 
L 79.470397 150.324316 
L 79.516658 150.913344 
L 78.730224 151.363679 
L 77.755443 151.528894 
L 77.235009 151.260351 
L 77.263096 151.13492 
L 77.45695 151.027171 
L 77.504313 150.92329 
L 77.4564 150.871349 
L 77.221241 150.755312 
L 77.056574 150.645905 
L 76.997647 150.644247 
L 76.9624 150.610541 
L 76.949183 150.466876 
L 76.964053 150.350838 
L 76.997647 150.252483 
L 77.050516 150.138656 
L 77.118806 149.786123 
L 77.188197 149.666218 
L 77.32753 149.583334 
L 77.521936 149.551838 
L 77.650805 149.596043 
L 77.662921 149.701029 
L 77.504313 149.85243 
L 78.150312 149.747444 
L 78.344717 149.675611 
L 78.344717 149.583334 
L 77.88266 149.675611 
L 77.94379 149.503766 
L 78.037964 149.350707 
L 78.401993 148.924131 
L 78.621181 148.452798 
L 78.477442 148.458876 
L 78.410804 148.4423 
L 78.381065 148.387044 
L 78.344717 148.276532 
L 78.137645 148.321842 
L 77.978486 148.208015 
L 77.817124 148.033406 
L 77.605095 147.897477 
L 77.662921 148.028986 
L 77.682747 148.177071 
L 77.662921 148.322947 
L 77.605095 148.452798 
L 77.487791 148.388149 
L 77.370487 148.368257 
L 77.25153 148.391464 
L 77.135328 148.452798 
L 77.135328 148.553917 
L 77.201415 148.613593 
L 77.20582 148.620224 
L 77.175531 148.642326 
L 77.135328 148.747865 
L 77.074748 148.690951 
L 77.033444 148.674927 
L 76.976719 148.671059 
L 76.865473 148.646747 
L 76.907328 148.902029 
L 76.865473 149.278321 
L 76.765241 149.619803 
L 76.62701 149.768441 
L 76.584053 149.85022 
L 76.53614 150.223197 
L 76.496488 150.324316 
L 76.280604 150.344208 
L 76.110981 150.230381 
L 76.04159 150.045826 
L 76.126402 149.85243 
L 75.429185 149.304844 
L 75.351533 149.195438 
L 75.292055 148.968336 
L 75.35649 148.769415 
L 75.656083 148.747865 
L 75.499678 148.549496 
L 75.443504 148.452798 
L 75.346577 148.085347 
L 75.293707 147.670927 
L 75.292055 147.259271 
L 75.323446 147.071953 
L 75.407156 146.917789 
L 75.563562 146.784623 
L 75.751909 146.742076 
L 75.933648 146.763625 
L 76.07188 146.738208 
L 76.126402 146.556968 
L 76.179271 146.461928 
L 76.30814 146.364125 
L 76.471155 146.316053 
L 76.62701 146.371309 
L 76.853357 146.639852 
L 76.944226 146.666375 
L 77.135328 146.607804 
L 77.378748 146.464138 
L 77.595733 146.260797 
L 77.983442 145.764046 
L 76.838488 145.750232 
L 76.62701 145.717631 
L 76.440314 145.486109 
L 75.941358 144.651745 
L 76.32301 144.109132 
L 76.403966 143.90137 
L 76.511358 143.316762 
L 76.646285 143.107895 
L 76.949183 142.965887 
L 76.949183 142.87361 
L 76.67272 142.965887 
L 76.709618 142.581859 
L 76.856661 141.944206 
L 76.865473 140.083187 
L 76.909531 140.209171 
L 76.963502 140.306974 
L 77.036197 140.3882 
L 77.135328 140.462795 
L 77.197009 140.326866 
L 77.235009 140.104737 
L 77.189299 139.897527 
L 76.866574 139.730102 
L 76.821966 139.551073 
L 76.808748 139.335022 
L 76.772951 139.148257 
L 77.0764 139.193015 
L 77.313762 139.358782 
L 77.487791 139.581464 
L 77.605095 139.805803 
L 77.689356 139.805803 
L 77.530747 139.371491 
L 76.956893 138.677477 
L 76.865473 138.219958 
L 76.80214 138.248139 
L 76.642981 138.292896 
L 76.580198 138.321629 
L 76.463445 137.767412 
L 76.302633 136.025194 
L 76.218923 135.80196 
L 76.135213 133.761912 
L 76.202401 133.298868 
L 76.32301 132.859031 
L 76.496488 132.463399 
L 76.301532 132.345151 
L 76.288314 132.050084 
L 76.320256 131.750045 
L 76.260778 131.612458 
L 76.13301 131.500841 
L 76.062518 131.235612 
L 76.025619 130.694105 
L 75.825706 130.758201 
L 75.705098 130.699078 
L 75.652228 130.543256 
L 75.656083 130.314497 
L 75.748054 130.314497 
L 75.809185 130.376936 
L 75.857098 130.410642 
L 75.91988 130.395723 
L 76.025619 130.314497 
L 75.886286 130.225535 
L 75.831214 130.101761 
L 75.733185 129.681264 
L 75.746402 129.634296 
L 75.737591 129.578488 
L 75.656083 129.47958 
L 75.593301 129.456372 
L 75.371359 129.419351 
L 75.285997 129.38675 
L 75.133446 129.240874 
L 75.037621 129.097762 
L 74.926925 128.983382 
L 74.731969 128.923706 
L 74.538114 128.923706 
L 74.396578 128.964595 
L 74.307361 129.055215 
L 74.270462 129.202195 
L 74.107448 129.057977 
L 73.947187 129.066266 
L 73.808405 129.118206 
L 73.707622 129.10826 
L 73.613449 128.955754 
L 73.64484 128.835849 
L 73.767101 128.757938 
L 73.942231 128.729757 
L 74.059535 128.58775 
L 74.377303 127.921364 
L 74.538665 127.710286 
L 74.660375 127.672159 
L 74.962171 127.65282 
L 75.093794 127.617456 
L 75.255156 127.501419 
L 75.374113 127.382066 
L 75.504084 127.290894 
L 75.702344 127.254425 
L 75.941358 127.3246 
L 76.144575 127.456661 
L 76.36872 127.532362 
L 76.67272 127.431796 
L 76.759183 127.35057 
L 76.790575 127.267686 
L 76.810401 127.172094 
L 76.865473 127.061582 
L 76.87869 127.0008 
L 76.854459 126.844979 
L 76.865473 126.783645 
L 76.926053 126.766515 
L 77.01527 126.783645 
L 77.09898 126.790275 
L 77.135328 126.741098 
L 77.198661 126.594669 
L 77.347907 126.474764 
L 77.519182 126.369225 
L 77.647501 126.269212 
L 77.737269 126.133283 
L 77.806109 125.978566 
L 77.853472 125.817219 
L 77.88266 125.661397 
L 77.846312 125.095577 
L 77.641443 124.618166 
L 77.089067 123.72523 
L 77.041705 123.681026 
L 76.949183 123.614166 
L 76.93927 123.315784 
L 76.403966 121.852055 
L 76.303184 121.852055 
L 76.303184 122.22227 
L 76.218923 122.22227 
L 76.000837 121.628822 
L 75.653881 121.094497 
L 74.82449 120.082762 
L 74.676896 119.844056 
L 74.62623 119.64403 
L 74.639447 119.104732 
L 74.731969 118.621796 
L 74.743534 118.384195 
L 74.639447 118.210692 
L 74.731969 118.126703 
L 75.239736 118.548305 
L 75.563562 118.961067 
L 75.700141 118.863816 
L 75.837272 118.628426 
L 76.025619 118.126703 
L 76.071329 117.872526 
L 76.083445 117.633268 
L 76.066923 117.430478 
L 76.025619 117.283498 
L 75.777793 116.943674 
L 75.815793 116.83261 
L 76.126402 116.718782 
L 76.162749 116.803876 
L 76.205706 116.842556 
L 76.253619 116.869078 
L 76.303184 116.913283 
L 76.359358 116.705521 
L 76.310343 116.515441 
L 76.190286 116.361829 
L 76.025619 116.264026 
L 76.025619 116.171196 
L 76.231039 115.824742 
L 76.298227 115.607034 
L 76.303184 115.328544 
L 76.478314 115.125202 
L 76.539444 114.823505 
L 76.507502 114.52015 
L 76.403966 114.307967 
L 75.941358 113.9372 
L 75.847185 113.833319 
L 75.783851 113.738279 
L 75.704547 113.650975 
L 75.563562 113.566986 
L 75.56962 113.415585 
L 75.639011 113.132674 
L 75.656083 112.959171 
L 75.615881 112.78622 
L 75.515098 112.71936 
L 75.37962 112.680681 
L 74.920316 112.420978 
L 74.601998 112.497232 
L 74.33765 112.700021 
L 74.177941 112.908888 
L 74.234114 113.001718 
L 74.270462 113.094548 
L 74.161419 113.114993 
L 74.08597 113.143726 
L 73.984086 113.195666 
L 73.900376 113.195666 
L 73.897622 112.852527 
L 73.920753 112.690627 
L 73.984086 112.538121 
L 73.421797 111.330227 
L 73.152493 110.962223 
L 72.765885 110.584272 
L 72.570928 110.455526 
L 72.215161 110.369327 
L 72.157885 110.300257 
L 72.099509 110.261578 
L 71.943103 110.312966 
L 71.896842 110.390877 
L 71.901248 110.503599 
L 71.878668 110.610795 
L 71.75806 110.675997 
L 71.68977 109.736647 
L 71.813132 109.34433 
L 72.185972 109.184088 
L 72.347334 108.945382 
L 72.181016 108.416583 
L 71.75806 107.615925 
L 71.665538 107.615925 
L 71.751451 107.77672 
L 71.792756 107.830318 
L 71.858842 107.886127 
L 71.858842 107.987245 
L 71.75806 107.987245 
L 71.528408 107.670629 
L 70.531047 106.6064 
L 70.385656 106.524069 
L 70.140584 106.495336 
L 70.00786 106.417425 
L 69.923048 106.248342 
L 69.818411 106.085337 
L 69.624556 106.022898 
L 69.717077 105.938356 
L 69.54415 105.886968 
L 69.387744 105.760985 
L 69.162498 105.466471 
L 69.057088 105.435466 
L 69.609686 103.666123 
L 70.081095 102.156659 
L 70.404227 102.228238 
L 70.702879 102.18122 
L 70.961664 102.026835 
L 71.163097 101.775609 
L 71.284796 101.426137 
L 71.244229 101.134911 
L 70.938583 100.540529 
L 70.816884 100.120883 
L 70.753237 99.543342 
L 70.838566 99.044398 
L 71.163097 98.866154 
L 71.30298 98.941241 
L 71.979319 99.516676 
L 72.11081 99.666149 
L 72.105214 99.701938 
L 72.049261 99.822639 
L 72.048561 99.873867 
L 72.088428 99.910358 
L 72.203133 99.937726 
L 72.238803 99.963691 
L 72.613692 100.471056 
L 72.716507 100.650704 
L 72.88087 101.329296 
L 73.024951 101.484383 
L 73.331996 101.452804 
L 73.671214 101.179823 
L 74.288102 100.560178 
L 76.186326 99.383343 
L 76.583596 99.024047 
L 76.498966 98.772821 
L 76.221297 98.509665 
L 76.040147 98.111773 
L 76.084211 97.94616 
L 76.48288 97.4409 
L 76.829092 96.664062 
L 77.115854 96.377748 
L 77.531309 96.160206 
L 77.985932 96.00933 
L 78.392994 95.924418 
L 78.894477 95.930032 
L 78.972113 95.87319 
L 78.866501 95.66056 
L 78.73431 95.521614 
L 78.589531 95.417053 
L 78.458739 95.292843 
L 78.369913 95.09495 
L 78.344734 94.767232 
L 78.054475 93.70759 
L 77.661401 92.956718 
L 77.535221 92.771012 
L 77.186496 92.257775 
L 76.892739 91.641989 
L 76.792023 91.501288 
L 76.618567 91.427604 
L 76.438117 91.417078 
L 76.26606 91.35357 
L 76.114985 91.119536 
L 75.998182 90.63568 
L 75.886275 89.704107 
L 75.689738 89.230075 
L 75.465924 88.850428 
L 75.325341 88.732885 
L 75.096631 88.657096 
L 74.689569 88.69499 
L 74.56717 88.616394 
L 74.56787 88.305519 
L 74.680476 87.902715 
L 74.829128 87.745019 
L 75.211335 87.33956 
L 75.3743 87.000615 
L 75.358913 86.758511 
L 75.293867 86.620267 
L 75.307855 86.516758 
L 75.528872 86.378163 
L 75.747091 86.329742 
L 75.966009 86.307988 
L 76.107292 86.20869 
L 76.126402 86.021367 
L 76.131358 85.958928 
L 76.154488 85.920249 
L 76.188083 85.885438 
L 76.218923 85.835707 
L 76.42214 85.958928 
L 76.561473 86.459546 
L 76.722835 86.717039 
L 76.889705 86.881702 
L 77.025183 87.049679 
L 77.137531 87.249706 
L 77.235009 87.504988 
L 77.349009 88.030472 
L 77.463559 88.315592 
L 78.344717 88.912356 
L 79.027615 89.185873 
L 79.226977 89.33009 
L 79.373469 89.502489 
L 80.467207 91.296095 
L 80.754685 91.517672 
L 80.941931 91.54972 
L 81.319177 91.554693 
L 81.379206 91.569612 
L 81.502568 91.601108 
L 81.586278 91.425947 
L 81.695872 91.42871 
L 81.775727 91.564639 
L 81.771872 91.786768 
L 81.687611 91.786768 
L 81.642452 91.743668 
L 81.586829 91.702226 
L 81.586278 92.042603 
L 81.681002 92.282413 
L 81.847321 92.371928 
L 82.057697 92.259206 
L 82.057697 92.53659 
L 82.241639 92.343195 
L 82.297262 92.48244 
L 82.168393 92.702358 
L 82.149118 92.907357 
L 82.088538 92.880835 
L 81.933785 92.84105 
L 81.872654 92.814527 
L 81.959669 93.298569 
L 82.287349 93.501358 
L 82.593001 93.456048 
L 82.620537 93.194136 
L 83.45213 93.194136 
L 83.369522 93.311831 
L 83.298478 93.446102 
L 83.256073 93.593636 
L 83.258826 93.751115 
L 83.359609 93.751115 
L 83.406971 93.712988 
L 83.544652 93.649444 
L 83.544652 93.751115 
L 83.073783 93.927934 
L 83.073783 94.020764 
L 83.195493 94.041208 
L 83.275899 94.077125 
L 83.387145 94.199793 
L 83.371174 94.223 
L 83.372826 94.26168 
L 83.359609 94.306437 
L 83.301232 94.241787 
L 83.222478 94.202003 
L 83.120044 94.190399 
L 82.989522 94.206424 
L 83.100218 94.324671 
L 83.234044 94.409765 
L 83.361261 94.510331 
L 83.45213 94.677756 
L 83.113435 94.518619 
L 82.746653 94.419159 
L 82.431088 94.44955 
L 82.241639 94.677756 
L 82.237233 94.735775 
L 82.254306 94.750694 
L 82.287349 94.750694 
L 82.327001 94.762298 
L 82.079176 95.52925 
L 82.4399 96.005556 
L 83.163551 96.23321 
L 84.006158 96.254207 
L 84.164767 96.226579 
L 84.32668 96.169666 
L 84.467665 96.086229 
L 84.560737 95.975718 
L 84.604245 95.856365 
L 84.599839 95.775691 
L 84.575607 95.691702 
L 84.560737 95.562956 
L 84.589926 95.451892 
L 84.716592 95.315962 
L 84.745781 95.187768 
L 84.827838 94.351194 
L 84.809114 93.971586 
L 84.644998 93.649444 
L 84.610853 93.756088 
L 84.597085 93.826263 
L 84.606998 93.900306 
L 84.644998 94.020764 
L 84.560737 94.020764 
L 84.491346 93.804161 
L 84.44123 93.49086 
L 84.438477 93.175901 
L 84.593781 92.718935 
L 84.541462 92.428289 
L 84.367433 91.980716 
L 84.292535 91.538116 
L 84.293636 89.643391 
L 84.229752 89.389767 
L 84.052419 89.283675 
L 83.860767 89.20687 
L 83.774854 89.016789 
L 83.723086 88.774769 
L 83.637173 88.541589 
L 83.366217 88.2526 
L 82.941609 87.965822 
L 82.44761 87.733747 
L 82.057697 87.690648 
L 82.057697 87.791766 
L 81.896886 87.640918 
L 82.118277 87.298331 
L 82.449262 86.909882 
L 82.620537 86.624209 
L 83.959898 86.207027 
L 84.286477 86.181057 
L 85.60491 85.808632 
L 85.780591 85.713039 
L 85.854388 85.600317 
L 85.857692 85.453889 
L 85.87917 85.295857 
L 85.935895 85.162138 
L 86.047692 85.085885 
L 86.047692 85.001896 
L 85.95517 85.001896 
L 85.95517 84.900225 
L 86.21346 84.857125 
L 87.130966 84.518959 
L 87.314907 84.394081 
L 87.911341 83.793449 
L 88.612413 83.309408 
L 88.920818 83.037549 
L 88.920818 82.953007 
L 88.821688 82.79166 
L 88.938992 82.683358 
L 89.761223 82.481122 
L 90.080643 82.295462 
L 90.331773 82.265071 
L 90.445772 82.178319 
L 90.515714 82.046258 
L 90.639077 81.878832 
L 91.139685 81.518564 
L 91.248177 81.368268 
L 91.129772 80.89583 
L 91.2658 80.507381 
L 91.529597 80.197948 
L 91.985046 79.79679 
L 92.109509 79.636548 
L 92.192118 79.435416 
L 92.349625 78.306538 
L 92.441045 78.1148 
L 92.517045 78.099329 
L 92.897044 77.956769 
L 92.957073 77.921405 
L 93.133856 77.858966 
L 93.193334 77.715853 
L 93.188377 77.466096 
L 93.216464 77.229601 
L 93.267682 77.101407 
L 93.415826 76.943928 
L 93.544696 76.852756 
L 93.660898 76.79971 
L 94.208869 76.626206 
L 94.644951 76.495203 
L 95.028801 76.274179 
L 95.348766 76.005587 
L 95.381031 75.67334 
L 95.477163 75.483609 
L 95.781079 75.515722 
L 95.934837 75.654255 
L 96.375416 75.62939 
L 96.842981 75.540981 
L 97.170661 75.409472 
L 97.274198 75.445388 
L 97.378835 75.513353 
L 97.449328 75.624417 
L 97.447676 75.789632 
L 97.26098 75.707853 
L 97.061618 75.683541 
L 96.871068 75.731061 
L 96.708053 75.873069 
L 96.815995 75.945454 
L 96.897502 75.970871 
L 96.980111 75.947664 
L 97.086951 75.873069 
L 97.165154 75.95319 
L 97.216922 75.990764 
L 97.248864 76.038836 
L 97.262632 76.151558 
L 97.67898 75.868096 
L 97.937269 75.740454 
L 98.245674 75.687409 
L 98.549674 75.737139 
L 98.800253 75.807314 
L 98.812369 75.810629 
L 99.147611 75.901105 
L 99.336607 75.765944 
L 99.851072 75.319039 
L 100.176659 74.695782 
L 100.439357 73.833959 
L 100.450192 73.03449 
L 100.303384 72.660644 
L 100.135495 72.463292 
L 100.039933 72.380343 
L 99.886281 72.108484 
L 99.673649 72.110075 
L 99.489209 71.970897 
L 99.348104 71.891811 
L 99.074998 71.902066 
L 98.896439 71.974717 
L 98.738888 72.088928 
L 98.707337 71.953875 
L 99.463723 71.196011 
L 99.589688 70.832181 
L 99.820896 70.083919 
L 99.810377 69.771794 
L 99.894589 69.481183 
L 100.067053 69.106317 
L 100.216055 68.649551 
L 100.272226 68.375252 
L 100.26628 68.094696 
L 100.452568 67.320683 
L 100.48428 66.884597 
L 100.284743 66.417214 
L 100.274327 66.147204 
L 100.347952 66.04332 
L 100.400106 65.999392 
L 100.504744 65.976737 
L 100.597265 65.927007 
L 100.649584 65.852411 
L 100.791671 65.548504 
L 100.888047 65.408154 
L 100.930453 65.328585 
L 100.976163 65.177184 
L 100.993786 65.023573 
L 100.991584 64.887643 
L 101.003149 64.757239 
L 101.068685 64.620757 
L 100.633075 64.859529 
L 100.076159 65.22564 
L 99.537701 65.79258 
L 98.981511 66.102959 
L 98.728461 66.063463 
L 98.926801 65.608025 
L 99.316226 65.388836 
L 99.501751 65.261162 
L 99.620281 65.123033 
L 99.712803 64.990419 
L 99.787151 64.822441 
L 99.909411 64.663304 
L 99.945759 64.510798 
L 99.890136 64.34282 
L 99.925933 64.228993 
L 100.236541 64.241149 
L 100.163846 64.127322 
L 100.139063 64.010179 
L 100.163846 63.891379 
L 100.236541 63.778105 
L 100.34944 64.054384 
L 100.625903 63.990287 
L 101.114946 63.685275 
L 101.271351 63.557081 
L 101.261438 63.252068 
L 101.188743 62.886274 
L 101.161207 62.572421 
L 101.068685 62.572421 
L 100.953584 62.643148 
L 100.884192 62.551976 
L 100.791671 62.193365 
L 100.699149 62.193365 
L 100.658946 62.323217 
L 100.614888 62.406653 
L 100.544396 62.455278 
L 100.421584 62.479591 
L 100.472802 62.363554 
L 100.544396 62.113797 
L 100.597265 62.008258 
L 100.680975 61.928137 
L 100.846192 61.856304 
L 100.934308 61.780051 
L 101.319815 61.34795 
L 101.446481 61.265619 
L 101.375989 61.494931 
L 101.231148 61.774526 
L 101.183235 62.009916 
L 101.395815 62.109376 
L 101.5748 61.986708 
L 101.657959 61.698273 
L 101.668974 61.357896 
L 101.630974 61.080512 
L 101.5748 61.02194 
L 101.478974 60.998733 
L 101.345148 60.987682 
L 101.353409 60.907561 
L 101.427757 60.73461 
L 101.446481 60.701456 
L 101.424453 60.546187 
L 101.423351 60.398654 
L 101.373786 60.289247 
L 101.206366 60.246147 
L 101.151844 60.188129 
L 101.218482 60.060488 
L 101.350656 59.933399 
L 101.488887 59.875933 
L 101.645844 59.854936 
L 101.815466 59.795259 
L 101.972973 59.704087 
L 102.093582 59.588602 
L 102.095234 59.518427 
L 101.991147 59.381945 
L 102.00051 59.319506 
L 102.043466 59.292983 
L 102.147002 59.253752 
L 102.186104 59.226676 
L 102.301756 59.170315 
L 102.41906 59.179709 
L 102.509929 59.153186 
L 102.546828 58.990733 
L 102.597494 58.984655 
L 102.701581 58.863645 
L 102.787494 58.72219 
L 102.785842 58.65312 
L 102.870103 58.62936 
L 103.202189 58.476854 
L 104.092159 58.25362 
L 104.226536 58.147528 
L 104.360361 57.928715 
L 104.466651 57.802732 
L 104.545955 57.781182 
L 104.613144 57.820966 
L 104.690796 57.842516 
L 104.75523 57.878985 
L 104.781665 57.961869 
L 104.753028 58.013809 
L 104.704564 58.054698 
L 104.694651 58.107744 
L 104.781665 58.198364 
L 104.781665 58.256383 
L 104.781665 58.291194 
L 104.874187 58.291194 
L 104.951839 58.182892 
L 105.243172 57.912138 
L 105.186998 57.801626 
L 105.156157 57.703271 
L 105.141839 57.594969 
L 105.14294 57.456277 
L 104.932563 57.636964 
L 104.874187 57.734767 
L 104.596622 57.580603 
L 104.521723 57.326978 
L 104.631868 57.088825 
L 105.115404 56.92582 
L 105.331838 56.663907 
L 105.478882 56.604784 
L 105.633084 56.592627 
L 105.784533 56.556158 
L 105.931577 56.49814 
L 106.789604 55.932872 
L 107.305082 55.809099 
L 107.580444 55.651067 
L 107.764386 55.440542 
L 107.747313 55.223386 
L 107.806791 55.087457 
L 107.875632 54.777471 
L 107.931806 54.658118 
L 108.059574 54.575234 
L 108.245718 54.494008 
L 108.495094 54.479984 
L 108.754443 54.378599 
L 108.927582 54.180794 
L 109.25646 53.921181 
L 109.285523 53.689056 
L 109.665412 53.690156 
L 110.125485 53.646117 
L 110.344368 53.465565 
L 110.321976 53.216358 
L 110.305295 52.978435 
L 110.276714 52.904709 
L 110.357439 52.819984 
L 110.696297 52.97955 
L 111.00198 53.082134 
L 111.72712 53.322666 
L 113.050119 53.859946 
L 114.039828 54.192154 
L 114.707745 54.364611 
L 115.407331 54.449251 
L 116.324837 54.542081 
L 117.220865 54.486272 
L 117.754671 54.424702 
L 117.557357 54.568051 
L 116.888778 54.694035 
L 115.584664 54.658118 
L 115.426607 54.634358 
L 115.278462 54.595127 
L 115.13252 54.587943 
L 114.979969 54.658118 
L 114.940317 54.774156 
L 114.95739 54.931635 
L 114.95023 55.07088 
L 114.836781 55.129451 
L 114.78226 55.305165 
L 114.932607 55.697482 
L 115.265244 56.335135 
L 115.057071 56.224623 
L 114.859912 56.014098 
L 114.679825 55.891983 
L 114.526173 56.048909 
L 114.431449 55.919611 
L 114.108724 55.919611 
L 113.917072 55.828991 
L 113.810783 55.875406 
L 113.705594 56.104165 
L 113.62574 56.37934 
L 113.594348 56.562789 
L 113.578928 56.975551 
L 113.602609 57.174472 
L 113.685768 57.270617 
L 113.873015 57.203758 
L 113.952869 56.99047 
L 114.014 56.751764 
L 114.148376 56.604784 
L 114.147826 56.746791 
L 114.194087 56.842937 
L 114.287159 56.89543 
L 114.425391 56.89985 
L 114.40226 57.033569 
L 114.425391 57.540819 
L 114.631912 57.632543 
L 114.851651 57.622597 
L 115.022926 57.50435 
L 115.080201 57.270617 
L 114.9271 57.354054 
L 114.807042 57.3209 
L 114.729941 57.191601 
L 114.702955 56.984944 
L 114.757477 56.80702 
L 114.863216 56.684352 
L 114.93481 56.570525 
L 114.887999 56.420229 
L 115.158404 56.467749 
L 115.328027 56.650646 
L 115.416693 56.918637 
L 115.48278 57.572867 
L 115.605592 57.730899 
L 115.810461 57.760737 
L 116.343562 57.730899 
L 116.438286 57.711007 
L 116.567156 57.641937 
L 116.824344 57.394943 
L 116.883822 57.355159 
L 116.91301 57.231386 
L 117.306778 56.520795 
L 117.318343 56.423544 
L 117.306778 56.048909 
L 117.459328 55.752738 
L 117.48356 55.640016 
L 117.527618 55.569841 
L 117.717067 55.348264 
L 117.761125 55.268696 
L 117.861907 54.750948 
L 117.990226 54.448698 
L 118.833384 53.235279 
L 118.876891 53.128082 
L 118.837239 52.967288 
L 118.648341 52.737976 
L 118.592167 52.609782 
L 118.595472 52.462801 
L 118.673124 52.231279 
L 118.69295 52.099218 
L 118.667616 51.964393 
L 118.546457 51.719057 
L 118.507906 51.589758 
L 118.532689 51.535607 
L 118.663211 51.419017 
L 118.69295 51.353263 
L 118.677529 51.273694 
L 118.642283 51.23612 
L 118.608138 51.212913 
L 118.592167 51.176997 
L 118.623558 51.034436 
L 118.697906 50.902375 
L 118.876891 50.654828 
L 118.948486 50.576918 
L 119.010167 50.538791 
L 119.054775 50.479115 
L 119.071297 50.334344 
L 119.248079 50.005019 
L 119.459557 49.989547 
L 119.633586 50.029884 
L 119.730513 49.967445 
L 119.709586 49.64254 
L 119.810919 49.64254 
L 119.818629 49.729845 
L 119.841209 49.787863 
L 119.903441 49.913294 
L 120.046629 49.721556 
L 120.079122 49.64254 
L 120.124832 49.671273 
L 120.141353 49.671826 
L 120.151817 49.678457 
L 120.179904 49.727634 
L 120.264165 49.727634 
L 120.264165 49.449145 
L 120.399092 49.557446 
L 120.501527 49.767971 
L 120.650773 49.819359 
L 120.782396 49.75471 
L 120.844077 49.613807 
L 120.900251 49.532581 
L 121.011497 49.64254 
L 121.11283 49.64254 
L 121.137062 49.54529 
L 121.189932 49.493349 
L 121.271439 49.469589 
L 121.381033 49.449145 
L 121.723032 49.484508 
L 121.985177 49.586179 
L 122.212075 49.747526 
L 122.448336 49.959709 
L 122.549118 49.999493 
L 123.169233 50.131002 
L 123.607609 50.384627 
L 124.140159 50.550947 
L 125.77636 50.666432 
L 127.302416 50.547079 
L 127.665343 50.546527 
L 129.872644 50.544317 
L 131.362903 50.316662 
L 131.495627 50.241514 
L 131.582091 50.126029 
L 131.994032 49.816044 
L 132.34209 49.625963 
L 132.41093 49.570708 
L 132.512814 49.449145 
L 132.671973 49.127555 
L 132.739712 49.078378 
L 132.897219 49.031963 
L 133.015625 48.919793 
L 133.205625 48.656775 
L 133.35432 48.530792 
L 133.805914 48.328555 
L 134.578029 47.601387 
L 136.213678 46.748236 
L 138.572979 44.843013 
L 138.821356 44.69548 
L 139.317007 44.526949 
L 140.139789 44.351235 
L 140.350716 44.254537 
L 140.761556 43.962234 
L 141.039121 44.042355 
L 141.326048 43.899242 
L 141.622888 43.694795 
L 141.930192 43.591467 
L 142.736452 43.563286 
L 142.988133 43.498637 
L 143.202915 43.375969 
L 143.54932 43.090848 
L 143.987696 42.984204 
L 144.575869 42.563154 
L 145.294564 42.278034 
L 145.463636 42.064746 
L 145.712563 41.81941 
L 145.768737 41.677955 
L 145.791868 41.558602 
L 145.962041 41.071245 
L 146.446128 40.324185 
L 146.582707 39.868877 
L 146.885605 39.473244 
L 146.978127 39.309687 
L 146.999054 39.044459 
L 146.943431 38.280822 
L 146.886707 38.002332 
L 146.809605 37.898451 
L 146.682388 37.789045 
L 146.563983 37.717212 
L 146.51662 37.724948 
L 146.54691 37.548129 
L 146.662562 37.431539 
L 146.978127 37.25251 
L 147.399431 37.402253 
L 148.788907 37.15968 
L 149.265834 37.265219 
L 149.212964 37.517186 
L 148.650124 38.095162 
L 148.852791 38.200701 
L 149.059863 38.54384 
L 149.297776 38.651589 
L 149.699253 38.469245 
L 149.768094 38.424487 
L 149.80334 38.247669 
L 149.893659 38.094057 
L 150.013166 37.97581 
L 150.137079 37.909502 
L 150.312209 37.900662 
L 150.4956 37.921659 
L 150.640991 37.901767 
L 150.700469 37.771363 
L 150.645948 37.632118 
L 150.54847 37.50945 
L 150.501658 37.388439 
L 150.599687 37.25251 
L 150.462557 37.146418 
L 150.389861 37.0453 
L 150.306702 36.957443 
L 150.137079 36.890584 
L 149.960297 36.874007 
L 149.793427 36.901635 
L 149.656848 36.969047 
L 149.574239 37.076243 
L 149.490529 37.076243 
L 149.389196 36.890584 
L 150.008209 36.470639 
L 150.507165 36.047379 
L 150.540209 35.982729 
L 150.597484 35.805358 
L 150.649252 35.768889 
L 150.892672 35.78215 
L 150.960962 35.768889 
L 151.168034 35.620803 
L 151.278729 35.598148 
L 151.43899 35.676059 
L 151.198874 35.795412 
L 151.019338 35.953444 
L 150.978034 36.138551 
L 151.153715 36.334157 
L 151.252295 36.38665 
L 151.322237 36.393833 
L 151.523251 36.334157 
L 151.537019 36.297135 
L 151.521599 36.231381 
L 151.518294 36.168389 
L 151.569512 36.140209 
L 151.759511 36.15126 
L 151.809076 36.140209 
L 152.058554 36.009252 
L 152.223772 35.892662 
L 152.319047 35.737393 
L 152.363105 35.491504 
L 152.327858 35.471612 
L 152.256264 35.462771 
L 152.213859 35.422434 
L 152.262873 35.305844 
L 152.353192 35.219645 
L 152.474902 35.158864 
L 152.607075 35.124053 
L 152.733191 35.111344 
L 152.646727 35.352259 
L 152.728785 35.473822 
L 152.858205 35.579914 
L 152.917684 35.768889 
L 153.001944 35.768889 
L 153.037191 35.719159 
L 153.09006 35.624671 
L 153.112089 35.532394 
L 153.052611 35.491504 
L 152.958988 35.458903 
L 153.028379 35.387623 
L 153.145683 35.322974 
L 153.195248 35.305844 
L 153.353857 35.219645 
L 153.540552 35.161074 
L 153.717335 35.080953 
L 153.850059 34.925684 
L 153.681538 34.945023 
L 153.539451 35.009673 
L 153.4249 35.079295 
L 153.337886 35.111344 
L 153.198002 35.067139 
L 153.222234 34.961048 
L 153.338987 34.839485 
L 153.472813 34.749418 
L 153.320263 34.748865 
L 153.184785 34.776493 
L 153.076292 34.835064 
L 153.001944 34.925684 
L 153.025075 34.707976 
L 153.047104 34.630065 
L 153.102727 34.555469 
L 152.924843 34.669296 
L 152.567423 34.97873 
L 152.447916 35.111344 
L 152.363105 35.027355 
L 152.501887 34.780913 
L 152.702351 34.570941 
L 152.952379 34.424513 
L 153.245364 34.36981 
L 153.50861 34.410699 
L 153.915595 34.598569 
L 154.212435 34.656588 
L 155.194376 34.656588 
L 155.469187 34.710186 
L 155.748955 34.83838 
L 156.169157 35.111344 
L 156.35365 35.28982 
L 156.446722 35.349497 
L 156.622403 35.398674 
L 157.107591 35.388728 
L 157.231504 35.445089 
L 157.500257 35.644563 
L 157.775068 35.743471 
L 158.394632 35.861719 
L 158.845675 36.087163 
L 159.110023 36.279453 
L 159.254863 36.508213 
L 159.314892 36.582256 
L 159.376022 36.692215 
L 159.424486 36.950813 
L 160.245064 38.33 
L 160.335934 38.698004 
L 160.848107 39.447827 
L 160.934571 39.71195 
L 160.850861 40.018068 
L 160.68289 40.305951 
L 160.520426 40.514818 
L 160.157499 40.781704 
L 159.22237 41.287848 
L 158.949762 41.585677 
L 158.753154 41.691216 
L 158.523502 41.77631 
L 158.345067 41.812779 
L 158.280633 41.928817 
L 158.016836 42.655984 
L 157.957358 42.765391 
L 157.956773 42.766559 
L 157.549073 42.755633 
L 157.307773 42.887562 
L 156.844758 43.278437 
L 156.306205 43.507207 
L 155.940409 43.60054 
L 155.147267 43.804749 
L 154.354825 44.008958 
L 153.560984 44.211764 
L 152.767843 44.415973 
L 151.975401 44.619481 
L 151.182259 44.822988 
L 150.389118 45.027197 
L 149.595976 45.230705 
L 149.246267 45.320529 
L 148.981886 45.495265 
L 148.747581 45.827192 
L 148.611194 46.078419 
L 148.207629 46.822625 
L 147.804064 47.566479 
L 147.400499 48.310334 
L 146.996934 49.054189 
L 146.593369 49.798044 
L 146.189804 50.54225 
L 145.78554 51.286807 
L 145.381975 52.030662 
L 145.239993 52.205748 
L 145.00219 52.266099 
L 144.498608 52.135222 
L 144.234927 52.107854 
L 143.962853 52.163643 
L 143.210978 52.440484 
L 142.629061 52.465045 
L 142.338102 52.509606 
L 142.096803 52.668903 
L 142.035953 52.791359 
L 142.024063 53.050304 
L 141.986294 53.182233 
L 141.884179 53.325039 
L 141.628192 53.59802 
L 141.518383 53.751352 
L 141.05257 54.888187 
L 140.808472 55.219413 
L 140.556681 55.460114 
L 139.966371 55.868181 
L 139.611066 56.269933 
L 139.297727 56.872385 
L 138.644469 58.724654 
L 138.278673 59.315879 
L 137.444965 60.276223 
L 137.195972 60.989201 
L 137.006429 61.239726 
L 136.781915 61.466742 
L 136.57139 61.744635 
L 136.472073 62.010247 
L 136.467559 62.074515 
L 136.453888 62.269193 
L 136.46368 62.534805 
L 136.191605 65.509874 
L 135.486591 67.896877 
L 135.484493 68.426347 
L 135.371886 68.957923 
L 135.361395 69.237219 
L 135.449522 69.586691 
L 135.569122 69.836864 
L 135.622978 70.088091 
L 135.515966 70.439668 
L 135.091419 71.30282 
L 134.347237 72.450532 
L 134.005221 73.370175 
L 133.863239 73.619647 
L 133.647118 73.847014 
L 133.104369 74.185258 
L 132.905034 74.365958 
L 132.648347 74.968411 
L 131.565646 76.555418 
L 131.100532 77.717516 
L 130.929874 77.993304 
L 130.689274 78.220671 
L 130.189189 78.564177 
L 130.030421 78.827334 
L 130.026224 79.122419 
L 130.206675 79.232243 
L 130.398475 79.227551 
L 131.884581 79.191191 
L 132.447614 79.113297 
L 132.935809 78.875754 
L 133.400223 78.439968 
L 133.637326 78.28453 
L 133.983539 78.188039 
L 134.291283 78.01576 
L 134.878096 77.468044 
L 135.188638 77.457518 
L 135.271869 77.558921 
L 135.440429 78.050847 
L 135.436233 78.101724 
L 135.381678 78.221723 
L 135.37958 78.2726 
L 135.425741 78.34067 
L 135.552336 78.468038 
L 135.590105 78.528388 
L 135.64466 78.859614 
L 135.608989 79.429786 
L 135.683128 79.724521 
L 135.925127 80.056449 
L 136.181114 80.121711 
L 136.454587 80.016098 
L 136.917603 79.711889 
L 137.025313 79.656802 
L 137.191775 79.60768 
L 137.347046 79.61189 
L 137.465248 79.65189 
L 137.565265 79.653995 
L 137.665981 79.544522 
L 137.923368 79.78838 
L 138.148581 79.921362 
L 138.22202 80.077501 
L 138.026882 80.38978 
L 138.256291 80.65469 
L 138.324135 80.91118 
L 138.479406 81.504159 
L 138.635376 82.096787 
L 138.791347 82.690116 
L 138.946618 83.283095 
L 139.103288 83.875723 
L 139.258559 84.469052 
L 139.41453 85.062031 
L 139.569801 85.65536 
L 139.713182 86.200971 
L 139.983857 86.657459 
L 140.232151 86.925177 
L 140.499329 87.212193 
L 140.764409 87.498507 
L 141.030888 87.785171 
L 141.295268 88.072187 
L 141.561747 88.358852 
L 141.827526 88.645166 
L 142.094005 88.93148 
L 142.359085 89.218145 
L 142.679419 89.563055 
L 142.838187 89.696387 
L 142.975273 89.74972 
L 143.103267 89.783404 
L 143.22975 89.851508 
L 143.236856 89.855334 
L 143.397023 90.017087 
L 143.528514 90.222349 
L 143.620138 90.450067 
L 143.657906 90.678486 
L 143.632727 90.899538 
L 143.511728 91.343745 
L 143.495641 91.563744 
L 143.56908 91.866198 
L 144.019506 92.710754 
L 144.310465 93.637415 
L 144.336343 94.159166 
L 144.116726 94.470041 
L 143.884518 94.468638 
L 143.599155 94.42127 
L 143.345266 94.453901 
L 143.209579 94.698461 
L 143.145232 94.963722 
L 143.033325 95.177054 
L 142.873857 95.358808 
L 142.673124 95.524421 
L 142.528344 95.595999 
L 142.374472 95.652139 
L 142.252773 95.738454 
L 142.206611 95.89705 
L 142.26816 96.016347 
L 142.552125 96.344064 
L 142.647246 96.494239 
L 142.703899 96.730027 
L 142.740268 97.318795 
L 142.708095 97.55739 
L 142.43742 98.386859 
L 142.312923 99.810007 
L 142.35279 100.087199 
L 142.536737 100.617722 
L 142.582899 100.877369 
L 142.529044 101.176315 
L 142.41364 101.449295 
L 142.331108 101.729293 
L 142.375871 102.049291 
L 142.746563 102.649989 
L 143.243151 103.008584 
L 143.497691 103.094416 
L 143.836258 103.208582 
L 144.499308 103.331389 
L 145.610685 103.314547 
L 146.063909 103.442265 
L 146.531121 104.047173 
L 146.603861 104.091384 
L 146.634635 104.16226 
L 146.506641 104.714538 
L 146.496849 104.831028 
L 146.533919 105.234534 
L 146.633236 105.62962 
L 146.779415 106.012775 
L 147.524996 107.449959 
L 147.758602 107.723641 
L 147.913173 107.823992 
L 148.285264 107.991008 
L 148.466414 108.100481 
L 148.783251 108.36855 
L 148.936082 108.452127 
L 148.938522 108.453461 
L 149.341815 108.547623 
L 150.465354 108.80995 
L 150.909486 108.847143 
L 151.120011 108.812055 
L 151.26549 108.723635 
L 151.39768 108.612057 
L 151.56694 108.503286 
L 151.716616 108.496268 
L 151.862794 108.525742 
L 151.947424 108.476619 
L 151.913152 108.235217 
L 152.30133 108.229603 
L 152.621664 108.174165 
L 152.941998 108.153112 
L 153.326679 108.251357 
L 153.273523 108.027499 
L 153.36165 107.928552 
L 153.533707 107.903289 
L 153.992526 107.920131 
L 154.103734 107.998727 
L 154.18067 108.1082 
L 154.340137 108.219077 
L 154.43386 108.230305 
L 154.531079 108.199428 
L 154.714327 108.094165 
L 154.83113 108.068201 
L 154.896875 108.121534 
L 154.931147 108.195919 
L 154.954227 108.23241 
L 154.964019 108.243638 
L 155.231897 108.26048 
L 155.2284 108.243638 
L 155.242388 108.222586 
L 155.487884 108.158025 
L 155.789334 108.235217 
L 156.05931 108.459075 
L 156.220876 108.414865 
L 156.57688 108.251357 
L 156.787405 108.207147 
L 157.000029 108.227498 
L 157.435767 108.346795 
L 157.66098 108.363637 
L 158.224013 108.25627 
L 158.430341 108.278024 
L 158.55204 108.372058 
L 158.580017 108.529952 
L 158.590508 108.701179 
L 158.66045 108.840125 
L 158.842999 108.917318 
L 159.503251 108.933458 
L 159.662019 109.009949 
L 159.766232 109.099071 
L 159.898422 109.136264 
L 160.138323 109.061177 
L 160.31038 108.939072 
L 160.421588 108.815564 
L 160.548183 108.734863 
L 161.50324 108.83802 
L 162.236931 108.751705 
L 162.91292 108.499777 
L 163.488192 108.09206 
L 163.633321 107.903289 
L 163.696269 107.769957 
L 163.80328 107.697677 
L 164.083748 107.688554 
L 164.600618 107.515923 
L 165.190229 107.472415 
L 166.003653 107.279434 
L 166.40512 107.271013 
L 166.493946 107.315223 
L 166.685238 107.478731 
L 166.812882 107.525748 
L 167.271701 107.630309 
L 167.493417 107.621888 
L 167.8753 107.501187 
L 168.092819 107.46259 
L 168.189339 107.550309 
L 168.873721 108.416269 
L 169.011856 108.496268 
L 169.226927 108.55311 
L 169.371357 108.555917 
L 169.680501 108.515215 
L 169.810942 108.523636 
L 169.87389 108.563636 
L 169.955722 108.685741 
L 169.998736 108.722933 
L 170.19982 108.79381 
L 171.605652 109.466086 
L 172.031249 109.484332 
L 172.793966 109.055563 
L 173.284608 108.932756 
L 173.78854 108.90609 
L 174.175319 109.000826 
L 174.616303 109.382578 
L 174.849209 109.67591 
L 175.875607 110.972393 
L 176.902355 112.269577 
L 177.929452 113.566762 
L 178.956199 114.863596 
L 179.981548 116.160781 
L 181.008296 117.457965 
L 182.035043 118.754448 
L 183.061791 120.051984 
L 183.454165 120.54777 
L 183.611424 120.54777 
L 183.624124 120.54777 
L 183.961594 120.45128 
L 184.611004 120.148826 
L 184.973304 120.084265 
L 185.244678 120.222158 
L 185.823448 120.88426 
L 186.127695 121.112328 
L 186.898455 120.678296 
L 187.69964 119.900055 
L 187.991298 119.728477 
L 188.373181 119.364269 
L 188.631267 119.249533 
L 188.959294 119.236902 
L 189.239761 119.301813 
L 189.748589 119.528128 
L 189.98779 119.459707 
L 190.293087 119.530935 
L 190.616218 119.64532 
L 190.907876 119.704618 
L 191.771309 119.657601 
L 192.05912 119.704618 
L 192.922204 119.968125 
L 193.226451 120.000756 
L 193.506918 120.06251 
L 194.069252 120.324614 
L 194.394481 120.362508 
L 194.574932 120.280404 
L 194.930936 119.968125 
L 195.079213 119.899003 
L 195.921314 119.854442 
L 196.915888 119.559707 
L 197.208245 119.528128 
L 197.488712 119.56111 
L 198.376276 119.806372 
L 198.87636 119.804266 
L 200.41788 119.249533 
L 201.010289 119.168832 
L 202.735756 119.334094 
L 203.291095 119.249533 
L 203.760405 119.088481 
L 203.891197 119.064622 
L 204.01989 119.022517 
L 204.126202 118.918307 
L 204.196843 118.781466 
L 204.222721 118.64287 
L 204.288467 118.471292 
L 204.443738 118.428486 
L 204.626986 118.433398 
L 204.77806 118.407082 
L 204.920042 118.290592 
L 205.170435 118.031646 
L 205.332 117.951647 
L 205.449503 117.947085 
L 205.689404 118.016909 
L 206.634319 118.09726 
L 208.759155 118.592344 
L 209.152928 118.839009 
L 209.513129 119.185674 
L 209.889417 119.469532 
L 210.424071 119.518454 
L 210.437761 119.519707 
L 210.351972 119.583796 
L 210.083156 119.784617 
L 209.936977 119.942862 
L 209.876827 120.13058 
L 209.879625 120.653033 
L 210.37901 121.436537 
L 210.727321 121.685307 
L 210.830135 121.958639 
L 210.862309 122.270917 
L 210.809852 122.503197 
L 210.643391 122.640038 
L 210.154496 122.848107 
L 209.960757 122.967053 
L 209.322188 123.666698 
L 209.197691 123.881784 
L 208.390561 124.644236 
L 208.06673 125.134057 
L 207.84991 125.67265 
L 207.742199 126.255103 
L 207.742899 126.877906 
L 207.896072 127.676146 
L 207.919852 127.943864 
L 207.966013 128.005267 
L 208.168146 128.20281 
L 208.213608 128.268774 
L 208.176539 128.432633 
L 208.096105 128.54386 
L 208.000984 128.63228 
L 207.919852 128.73228 
L 207.770876 129.223505 
L 207.696737 129.296838 
L 207.534472 129.338241 
L 207.388293 129.443153 
L 207.1386 129.714379 
L 207.024595 129.793326 
L 206.625227 129.946307 
L 206.552487 130.004903 
L 206.421696 130.161043 
L 206.348257 130.2242 
L 206.286008 130.23613 
L 206.134234 130.212972 
L 206.071287 130.2242 
L 205.567705 130.643145 
L 205.231983 131.179633 
L 205.108886 131.750857 
L 205.239677 132.271907 
L 205.362075 132.490502 
L 205.448104 132.693658 
L 205.50056 132.931902 
L 205.517347 133.254006 
L 205.48937 133.371549 
L 205.367671 133.691547 
L 205.332 133.85751 
L 205.327104 134.012597 
L 205.339694 134.152596 
L 205.36837 134.285578 
L 205.415931 134.421367 
L 205.50056 134.552243 
L 205.743958 134.834697 
L 205.793617 134.927328 
L 205.764941 135.071538 
L 205.701993 135.16452 
L 205.638346 135.232589 
L 205.60897 135.302414 
L 205.632751 135.906269 
L 205.60967 136.164163 
L 205.434815 136.692931 
L 205.343191 137.215384 
L 205.332 137.531873 
L 205.358578 137.622048 
L 205.481676 137.860994 
L 205.517347 137.953274 
L 205.512451 138.119589 
L 205.468387 138.211167 
L 205.448104 138.290465 
L 205.517347 138.417131 
L 205.422226 138.671164 
L 205.390752 139.269406 
L 205.285839 139.487299 
L 205.150151 139.705193 
L 205.082308 140.000629 
L 205.039643 140.755011 
L 204.953615 141.114307 
L 204.973198 141.547637 
L 204.953615 141.678864 
L 204.879476 141.790092 
L 204.785055 141.855354 
L 204.70672 141.945529 
L 204.684338 142.133949 
L 204.728402 142.284475 
L 204.819326 142.413246 
L 204.93473 142.520613 
L 205.05503 142.605876 
L 205.05503 142.513596 
L 205.306821 142.693595 
L 205.404041 142.872892 
L 205.517347 143.347626 
L 205.572601 143.40166 
L 205.739762 143.460958 
L 205.793617 143.54166 
L 205.799213 143.652185 
L 205.722276 143.841307 
L 205.701993 143.950078 
L 205.745357 144.127972 
L 205.9349 144.426917 
L 205.978963 144.603407 
L 205.943992 144.765161 
L 205.701993 145.210772 
L 205.63345 145.721295 
L 205.707589 146.171467 
L 205.825091 146.593219 
L 205.88664 147.018129 
L 206.001345 147.276724 
L 206.255933 147.485494 
L 206.509823 147.754966 
L 206.625227 148.194262 
L 206.774203 148.348997 
L 206.863029 148.599873 
L 206.82441 148.82556 
L 206.823162 148.832854 
L 206.912688 148.881976 
L 207.031589 149.204781 
L 207.072855 150.04653 
L 207.136502 150.336704 
L 207.677853 151.278452 
L 207.805846 151.612836 
L 207.882083 152.284411 
L 207.977204 152.6009 
L 208.215706 152.890021 
L 208.477289 153.021248 
L 208.724883 153.024055 
L 208.976674 152.977038 
L 209.253644 152.958793 
L 209.762822 153.197739 
L 210.147502 153.71177 
L 211.060944 156.096317 
L 211.247689 156.359824 
L 211.447023 156.497718 
L 211.955501 156.698769 
L 212.404528 157.165784 
L 212.339482 157.733148 
L 211.989773 158.301215 
L 211.170753 159.326822 
L 211.00499 159.453137 
L 210.865106 159.501558 
L 210.569252 159.559803 
L 210.407686 159.637698 
L 210.153797 159.873486 
L 209.573279 160.411026 
L 208.99416 160.94997 
L 208.413642 161.48751 
L 207.834523 162.025753 
L 207.254704 162.563293 
L 206.674885 163.101535 
L 206.095766 163.639778 
L 205.515948 164.17802 
L 205.177429 164.493105 
L 204.952216 164.872752 
L 204.943123 165.801869 
L 205.141758 165.643274 
L 205.24877 165.455906 
L 205.384457 165.291697 
L 205.655132 165.220118 
L 205.951686 165.234855 
L 206.10346 165.222224 
L 206.362944 165.090996 
L 206.477649 165.138715 
L 206.625227 165.30503 
L 207.183363 165.576607 
L 207.519085 165.644677 
L 207.78906 165.545029 
L 208.047146 165.480468 
L 208.292642 165.68187 
L 208.484283 165.987131 
L 208.582202 166.23134 
L 208.657739 166.843266 
L 208.737473 167.14151 
L 208.898339 167.268526 
L 209.506135 167.278351 
L 209.756527 167.355543 
L 209.960757 167.537998 
L 210.01741 167.651682 
L 210.098543 167.907821 
L 210.154496 168.010276 
L 210.278294 168.101504 
L 210.567853 168.242555 
L 210.624506 168.330274 
L 210.672067 168.441151 
L 210.883991 168.707816 
L 210.939245 168.760447 
L 211.109204 168.810271 
L 211.205724 168.930972 
L 211.274966 169.08255 
L 211.363792 169.223602 
L 211.492486 169.32325 
L 211.792536 169.486056 
L 211.917733 169.594126 
L 211.982778 169.73237 
L 212.044327 169.917632 
L 212.123362 170.08114 
L 212.242263 170.151315 
L 212.39054 170.195525 
L 212.538817 170.302191 
L 212.796203 170.559734 
L 212.92 170.636224 
L 213.396305 170.791311 
L 213.853026 171.067099 
L 213.960037 171.170958 
L 214.008996 171.305694 
L 214.013892 171.563236 
L 214.089429 171.68534 
L 214.176157 171.957619 
L 213.996407 172.235512 
L 213.735523 172.482528 
L 213.581651 172.662878 
L 213.587246 172.913403 
L 213.802668 173.431294 
L 213.898488 173.850941 
L 214.120903 174.428481 
L 214.237007 174.609532 
L 214.441937 174.724619 
L 214.686733 174.800058 
L 214.890265 174.90918 
L 214.976293 175.127775 
L 215.023154 175.863209 
L 214.976293 176.101453 
L 214.916842 176.20075 
L 214.698624 176.481099 
L 214.732895 176.651274 
L 214.828716 176.791273 
L 214.929432 176.901448 
L 215.034345 177.076183 
L 215.288234 177.252674 
L 215.346286 177.357234 
L 215.379858 177.504251 
L 215.623256 177.964248 
L 216.78639 181.062825 
L 216.824858 181.356858 
L 216.824858 181.962117 
L 216.877315 182.229484 
L 217.008806 182.52457 
L 217.296966 183.001409 
L 217.426359 183.293337 
L 217.479515 183.594739 
L 217.387191 184.151226 
L 217.438249 184.339646 
L 217.564844 184.479294 
L 217.720115 184.603855 
L 217.857901 184.749468 
L 218.000582 185.019993 
L 218.104096 185.354026 
L 218.118085 185.678936 
L 217.869091 186.18209 
L 217.936935 186.503492 
L 218.218801 187.084541 
L 217.699832 187.1884 
L 216.82276 187.433311 
L 215.644938 187.761028 
L 215.362373 187.716116 
L 215.249067 187.373662 
L 215.198708 186.665596 
L 215.531632 182.756849 
L 215.405037 181.895451 
L 214.942022 180.46739 
L 214.420255 179.404239 
L 212.94448 177.442497 
L 212.621348 176.867413 
L 212.191205 175.805665 
L 211.917733 175.302861 
L 211.577115 174.96532 
L 211.360995 174.859706 
L 210.780477 174.650936 
L 210.576246 174.631287 
L 210.448952 174.70497 
L 210.219542 174.946372 
L 210.094346 175.007425 
L 209.621539 175.067775 
L 209.390731 175.214792 
L 209.024235 175.533386 
L 208.502468 175.782157 
L 207.463131 176.888465 
L 205.829288 179.071609 
L 205.418029 179.459677 
L 204.880875 179.764938 
L 204.438842 179.925288 
L 203.956243 180.039673 
L 203.468747 180.055112 
L 203.016923 179.921779 
L 202.562999 179.547747 
L 202.199301 179.01968 
L 201.920933 178.428105 
L 201.62298 177.556882 
L 201.489391 177.308463 
L 201.28586 177.121095 
L 200.974618 176.99443 
L 200.69555 176.937588 
L 200.596232 176.890571 
L 200.487123 176.787764 
L 200.458447 176.686712 
L 200.456349 176.414433 
L 200.392002 176.324258 
L 200.275199 176.420047 
L 199.463173 178.451964 
L 199.200191 178.84319 
L 199.289018 178.89933 
L 199.632433 178.942136 
L 199.759027 179.103188 
L 199.729652 179.40073 
L 199.759027 179.645992 
L 200.265407 179.667746 
L 200.373817 179.734763 
L 200.411586 179.853359 
L 200.398297 180.024235 
L 200.438164 180.113708 
L 200.55147 180.197216 
L 200.782977 180.311251 
L 199.763923 180.312654 
L 199.116261 180.313356 
L 197.408279 180.314759 
L 194.993884 180.316865 
L 192.226631 180.319672 
L 189.45868 180.322479 
L 187.044284 180.324584 
L 185.337002 180.325987 
L 184.68899 180.325987 
L 184.13435 180.257216 
L 183.108302 179.821078 
L 182.12352 179.613009 
L 181.604551 179.646693 
L 180.673973 180.071603 
L 180.118634 180.11862 
L 179.829424 180.077217 
L 179.589873 180.070901 
L 179.356967 180.122831 
L 178.777148 180.426688 
L 178.528854 180.500372 
L 178.07353 180.497459 
L 177.870701 180.496162 
L 177.970368 181.022825 
L 177.964423 181.955802 
L 177.959527 182.888778 
L 177.954281 183.821404 
L 177.949385 184.755082 
L 177.94379 185.688059 
L 177.939244 186.621386 
L 177.933299 187.55331 
L 177.928053 188.486637 
L 177.924556 189.299264 
L 178.233699 189.328737 
L 178.797781 188.962424 
L 179.137699 188.869091 
L 179.312204 188.87681 
L 179.48601 188.906284 
L 179.604561 188.979266 
L 179.625544 189.277509 
L 179.767526 189.310492 
L 181.068446 189.118212 
L 181.381786 189.12944 
L 181.969997 189.334351 
L 182.109881 189.351193 
L 182.554712 189.344176 
L 182.985554 189.282422 
L 183.114597 189.299264 
L 183.235946 189.356807 
L 183.294697 189.417158 
L 183.335963 189.47821 
L 183.404856 189.539964 
L 183.660144 189.692244 
L 183.798979 189.717507 
L 184.439297 189.250843 
L 184.654368 189.195405 
L 184.873287 189.235404 
L 185.549625 189.584174 
L 185.746512 189.723121 
L 185.97767 190.012242 
L 186.207079 190.165223 
L 186.307096 190.26417 
L 186.343466 190.389783 
L 186.357454 190.548379 
L 186.397321 190.687325 
L 186.693176 190.871184 
L 186.616589 191.361707 
L 186.834458 191.57153 
L 187.147798 191.692933 
L 187.307615 191.787669 
L 187.396092 191.901352 
L 187.396791 192.085211 
L 187.296425 192.148368 
L 187.167032 192.169421 
L 187.08485 192.218543 
L 187.054775 192.50205 
L 187.188015 193.107661 
L 187.188015 193.419238 
L 187.096041 193.563096 
L 186.954409 193.668359 
L 186.85649 193.786954 
L 186.897056 193.974322 
L 187.006166 194.078181 
L 187.299922 194.216425 
L 187.400289 194.308355 
L 187.547516 194.612212 
L 187.598224 194.857123 
L 187.514294 195.02835 
L 187.261454 195.111157 
L 187.138706 195.092911 
L 186.885166 194.998877 
L 186.743534 195.001684 
L 186.638621 195.067648 
L 186.493841 195.272559 
L 186.397321 195.33712 
L 186.178053 195.351155 
L 185.682515 195.27677 
L 185.438068 195.292208 
L 185.49542 194.918877 
L 185.369175 194.770106 
L 185.124028 194.772913 
L 184.825376 194.85572 
L 184.551554 194.982035 
L 184.465175 194.935017 
L 183.507321 193.965901 
L 183.261475 193.798884 
L 182.988002 193.734323 
L 182.64109 193.777832 
L 182.374262 193.895726 
L 181.938174 194.177829 
L 181.686732 194.208004 
L 181.417456 194.325197 
L 181.275824 194.622739 
L 181.078587 194.850106 
L 180.643898 194.758878 
L 180.262015 194.586949 
L 180.056386 194.604493 
L 179.539515 195.008701 
L 179.070205 195.257121 
L 178.558929 195.443786 
L 178.009535 195.556066 
L 177.081756 195.612206 
L 176.818774 195.687995 
L 176.562087 195.731504 
L 176.242103 195.668346 
L 175.934358 195.676767 
L 175.644449 195.811503 
L 175.39056 195.883082 
L 175.189827 195.699223 
L 175.164647 196.643778 
L 175.154856 196.990443 
L 175.129676 197.902718 
L 175.093307 199.192534 
L 175.054139 200.671823 
L 175.013573 202.151112 
L 174.977203 203.440928 
L 174.952024 204.353203 
L 174.942931 204.699868 
L 174.925096 205.381969 
L 175.003082 205.860562 
L 175.16115 206.144069 
L 175.686414 206.750381 
L 176.375342 207.383359 
L 176.677142 207.833883 
L 176.822271 207.954584 
L 177.074762 208.054232 
L 177.612615 208.174933 
L 177.844472 208.322301 
L 177.93155 208.450019 
L 178.058495 208.753175 
L 178.16026 208.889315 
L 178.295598 208.984753 
L 178.607189 209.130717 
L 178.746723 209.228962 
L 179.150988 209.672468 
L 179.355568 209.838081 
L 180.437919 210.243692 
L 180.667678 210.3672 
L 180.903732 210.569304 
L 181.070544 210.809303 
L 181.179304 211.081582 
L 181.242251 211.383334 
L 181.248896 211.786138 
L 181.276523 211.919471 
L 181.347864 212.057014 
L 181.43669 212.160873 
L 181.514325 212.274556 
L 181.551395 212.438766 
L 181.462918 212.760167 
L 181.040469 213.400163 
L 180.953741 213.645776 
L 181.089428 213.96437 
L 181.599305 214.541209 
L 181.707015 214.733488 
L 181.667149 215.081556 
L 181.700021 215.217696 
L 181.82242 215.411379 
L 181.912994 215.492782 
L 182.011263 215.543308 
L 182.105335 215.617693 
L 182.186118 215.765061 
L 182.201155 215.923656 
L 182.168632 216.051375 
L 182.160239 216.187514 
L 182.250115 216.369969 
L 182.362721 216.464003 
L 182.657876 216.590318 
L 182.784121 216.670318 
L 183.080675 217.102596 
L 183.163206 217.171367 
L 183.299244 217.19242 
L 183.368486 217.221893 
L 183.409752 217.27663 
L 183.464656 217.379085 
L 183.435281 217.411366 
L 183.506621 217.92645 
L 183.477246 218.078028 
L 183.391217 218.357325 
L 183.392966 218.51592 
L 183.903192 219.339775 
L 184.052168 219.74679 
L 183.759112 220.506083 
L 183.759676 220.515302 
L 183.79688 221.123623 
L 183.575164 222.376948 
L 183.585306 222.998699 
L 183.337362 223.926412 
L 183.341908 224.202902 
L 183.145721 224.885003 
L 182.994297 225.718682 
L 182.597027 227.906738 
L 182.199756 230.096198 
L 181.802137 232.284254 
L 181.405566 234.47231 
L 181.008296 236.66177 
L 180.611025 238.849826 
L 180.213406 241.039286 
L 179.816485 243.227342 
L 179.419565 245.415399 
L 179.021245 247.604858 
L 178.624675 249.792915 
L 178.227404 251.982374 
L 177.830134 254.170431 
L 177.432864 256.358487 
L 177.035944 258.547947 
L 176.638674 260.736003 
L 176.623286 260.76688 
L 176.608599 260.796354 
L 176.593211 260.825827 
L 176.577824 260.855301 
L 176.563136 260.884774 
L 176.547749 260.915651 
L 176.532012 260.946528 
L 176.518024 260.976002 
L 176.503336 261.004072 
L 176.487949 261.034949 
L 176.473261 261.065826 
L 176.458573 261.095299 
L 176.443186 261.124772 
L 176.428498 261.15565 
L 176.413111 261.186527 
L 176.398423 261.216 
L 176.022135 260.460917 
L 175.785732 260.111446 
L 175.51121 259.791448 
L 175.105197 259.460222 
L 173.735384 258.759875 
L 173.374134 258.397772 
L 173.231452 257.950056 
L 173.155216 257.463041 
L 172.987355 256.985851 
L 172.663874 256.522696 
L 172.221491 256.056735 
L 171.713363 255.686211 
L 171.192645 255.503756 
L 170.812161 255.544457 
L 170.520853 255.721298 
L 169.988945 256.208312 
L 169.640634 256.358487 
L 169.280083 256.354276 
L 168.557233 256.174628 
L 168.412803 256.07498 
L 166.576478 255.109372 
L 165.987917 255.044811 
L 166.442189 254.333237 
L 167.503908 252.671493 
L 168.564927 251.011153 
L 169.626645 249.348005 
L 170.688364 247.686261 
L 171.750432 246.024518 
L 172.811801 244.36137 
L 173.873519 242.70103 
L 174.935238 241.039286 
L 175.238786 240.556482 
L 175.241234 240.545254 
L 175.166046 240.519991 
L 175.010775 240.397887 
L 174.898169 240.233677 
L 174.81249 240.032977 
L 174.638684 239.435086 
L 174.492156 239.335437 
L 174.215885 239.519296 
L 174.13825 239.644207 
L 174.0774 239.788768 
L 174.004311 239.902451 
L 173.887508 239.933328 
L 173.762312 239.86175 
L 173.738531 239.742452 
L 173.743078 239.604909 
L 173.703211 239.46877 
L 173.435333 239.258245 
L 173.204875 239.324209 
L 172.980011 239.429472 
L 172.72892 239.334034 
L 172.576796 239.091228 
L 172.386204 238.51439 
L 172.216245 238.263163 
L 171.919342 238.115796 
L 171.659508 238.202813 
L 171.388483 238.368426 
L 171.056958 238.45825 
L 170.989114 238.417548 
L 170.903785 238.3179 
L 170.838739 238.192988 
L 170.830346 238.077901 
L 170.895042 238.014744 
L 171.125501 237.927727 
L 171.191946 237.884218 
L 171.255593 237.589483 
L 171.084935 237.457554 
L 170.797473 237.426677 
L 170.506865 237.429484 
L 170.356839 237.464572 
L 170.038603 237.603518 
L 169.89767 237.614746 
L 169.738902 237.53615 
L 169.663015 237.421063 
L 169.615455 237.282117 
L 169.53677 237.134749 
L 169.367161 236.990189 
L 169.129708 236.872295 
L 168.873721 236.793699 
L 168.64606 236.764225 
L 168.436584 236.658963 
L 168.269772 236.463876 
L 168.092819 236.351596 
L 167.856415 236.501771 
L 167.822493 236.628086 
L 167.833684 236.781067 
L 167.821794 236.910189 
L 167.717231 236.966329 
L 167.159094 236.966329 
L 167.066071 236.893347 
L 167.041941 236.726331 
L 167.042291 236.538262 
L 167.024456 236.400719 
L 166.940875 236.253351 
L 166.51423 235.898266 
L 166.462822 235.8716 
L 166.462473 235.477216 
L 166.430299 235.37055 
L 166.360707 235.303182 
L 166.010298 235.25827 
L 165.758857 235.19792 
L 165.26052 235.019675 
L 164.793658 234.712309 
L 164.092141 233.96284 
L 163.681232 233.711613 
L 163.401114 233.836525 
L 163.061896 233.77056 
L 162.488022 233.526351 
L 162.099145 233.516527 
L 161.956464 233.707403 
L 161.986189 234.016173 
L 162.110336 234.361434 
L 161.987588 234.430205 
L 161.82882 234.448451 
L 161.65956 234.41196 
L 161.318593 234.207049 
L 161.141291 234.202838 
L 160.765702 234.268803 
L 160.456559 234.414767 
L 160.197774 235.05757 
L 159.814492 235.252656 
L 159.559904 235.451953 
L 159.413725 235.48283 
L 159.270344 235.435111 
L 159.108079 235.31441 
L 158.960501 235.280726 
L 158.759768 235.359322 
L 158.477202 235.508093 
L 158.226111 235.568444 
L 158.119799 235.381778 
L 157.151803 235.854758 
L 156.693683 235.951599 
L 156.54051 235.668092 
L 156.594366 235.564233 
L 156.781111 235.395813 
L 156.81818 235.280726 
L 156.769221 235.140376 
L 156.448187 234.731958 
L 156.211084 234.309504 
L 156.073298 234.260382 
L 155.885155 234.454065 
L 155.751565 234.963535 
L 155.647352 235.123534 
L 155.431931 235.019675 
L 155.338209 234.811957 
L 155.320723 234.244943 
L 155.254978 233.989506 
L 155.102504 233.873016 
L 154.323351 233.711613 
L 154.043584 233.560035 
L 153.791793 233.364949 
L 153.525314 233.20495 
L 153.205679 233.147406 
L 152.752456 233.381791 
L 152.490173 233.423896 
L 152.37407 233.193722 
L 152.394353 232.715128 
L 152.290839 232.642146 
L 151.995684 232.776882 
L 151.208138 233.276528 
L 151.071751 233.286353 
L 151.006006 233.426703 
L 150.517111 234.176172 
L 149.877842 234.673011 
L 149.778525 234.778273 
L 149.716276 235.080026 
L 149.549815 235.247042 
L 149.311313 235.305989 
L 148.462917 235.185288 
L 148.022283 235.190902 
L 147.644596 235.339673 
L 147.266211 235.668092 
L 146.669606 236.354403 
L 146.467474 236.417561 
L 145.593899 236.215457 
L 145.458212 236.226685 
L 145.109901 236.298263 
L 145.039959 236.354403 
L 145.051849 236.632296 
L 145.013381 236.727734 
L 144.897277 236.764225 
L 144.582539 236.797909 
L 144.041888 236.941066 
L 143.73834 236.966329 
L 143.487248 236.908786 
L 143.248047 236.781067 
L 143.068296 236.616858 
L 142.999053 236.452648 
L 142.878054 236.347386 
L 141.490406 236.12844 
L 141.235118 236.047037 
L 140.620328 235.548795 
L 140.382526 235.419673 
L 140.134232 235.381778 
L 139.964973 235.600724 
L 139.608269 236.341772 
L 139.436911 236.501771 
L 139.212397 236.57756 
L 139.132664 236.546683 
L 139.086502 236.191597 
L 139.048034 236.052651 
L 138.991381 235.933354 
L 138.924237 235.836512 
L 138.757075 235.916512 
L 138.647267 236.014757 
L 138.581521 236.141072 
L 138.545851 236.308088 
L 138.189846 236.054055 
L 137.963934 235.975459 
L 137.628213 236.143878 
L 137.241434 236.281421 
L 137.079868 236.43721 
L 136.893123 236.504578 
L 136.319599 236.619665 
L 136.194403 236.621068 
L 136.088091 236.535455 
L 135.959398 236.308088 
L 135.729289 235.680724 
L 135.532752 235.508093 
L 135.488689 235.430901 
L 134.556363 234.91722 
L 134.52349 235.063184 
L 134.363323 235.37055 
L 134.185671 235.531953 
L 134.10244 235.242832 
L 133.98214 235.122131 
L 133.39183 234.974763 
L 133.169415 234.824589 
L 133.135843 234.72073 
L 133.069398 234.315118 
L 133.026733 234.242136 
L 132.842086 234.100383 
L 132.799422 234.033015 
L 132.771445 233.951612 
L 132.643451 233.745297 
L 132.615475 233.611965 
L 132.63296 233.477229 
L 132.677024 233.387405 
L 132.799422 233.240037 
L 133.291114 232.795128 
L 133.418408 232.500393 
L 133.817077 231.842151 
L 133.634529 231.670924 
L 133.528916 231.386014 
L 133.454778 231.074437 
L 133.363154 230.820404 
L 133.128149 230.470932 
L 133.036525 230.292688 
L 132.984768 230.079356 
L 133.003652 229.88848 
L 133.13934 229.547429 
L 133.169415 229.422518 
L 133.09108 229.195151 
L 132.771445 228.817609 
L 132.699405 228.62954 
L 132.799422 228.12428 
L 132.707798 227.975509 
L 132.594492 227.902527 
L 132.468597 227.847791 
L 132.338505 227.753756 
L 131.976905 227.346741 
L 131.83842 227.346741 
L 131.783166 227.706037 
L 131.697137 227.752353 
L 131.243214 227.634459 
L 131.035486 227.659722 
L 130.817268 227.873054 
L 130.714453 228.023228 
L 130.575968 228.002176 
L 130.250738 227.706037 
L 130.081479 227.597968 
L 129.917814 227.575512 
L 129.768139 227.582529 
L 129.575798 227.560073 
L 129.426822 227.579722 
L 129.363874 227.568494 
L 129.344291 227.522179 
L 129.299528 227.339724 
L 129.279944 227.289198 
L 128.40497 226.751657 
L 128.133596 226.414817 
L 128.162971 225.889909 
L 128.317193 225.440789 
L 128.433647 225.234474 
L 128.762374 225.039388 
L 128.775663 224.77974 
L 128.633331 224.212726 
L 128.614447 224.034482 
L 128.616895 223.891325 
L 128.591366 223.756589 
L 128.486803 223.610625 
L 128.201439 223.4001 
L 128.050365 223.162908 
L 127.548532 222.92712 
L 127.423685 222.720806 
L 127.635959 222.462562 
L 127.701355 222.319405 
L 127.489431 222.22116 
L 127.412494 222.131336 
L 127.348847 222.021863 
L 127.322969 221.929232 
L 127.306882 221.634497 
L 127.281004 221.520813 
L 127.238339 221.422568 
L 127.187631 221.409937 
L 127.007531 221.4352 
L 126.952976 221.422568 
L 126.928496 221.360814 
L 126.907863 221.212044 
L 126.809595 221.001519 
L 126.774624 220.851344 
L 126.704682 220.730643 
L 126.386446 220.638012 
L 126.12871 220.447136 
L 125.978685 220.403628 
L 125.664646 220.350295 
L 125.407959 220.205734 
L 125.218416 219.99942 
L 125.10546 219.755211 
L 124.901579 219.831 
L 124.68406 220.174857 
L 124.458147 220.302576 
L 124.296582 220.298365 
L 124.080111 220.25205 
L 123.718861 220.124331 
L 123.531417 220.000823 
L 123.399576 219.85907 
L 123.155829 219.475914 
L 122.948101 218.93697 
L 122.869766 218.810655 
L 122.646302 218.729252 
L 122.223852 218.82469 
L 122.038856 218.725042 
L 122.019972 218.612762 
L 122.146567 218.374167 
L 122.131179 218.261887 
L 122.018573 218.165045 
L 121.95038 218.201536 
L 121.902819 218.288553 
L 121.85386 218.3475 
L 121.705932 218.417675 
L 121.635291 218.48785 
L 121.558355 218.508903 
L 121.391893 218.438728 
L 121.282084 218.3475 
L 121.216689 218.23101 
L 120.899852 217.285051 
L 120.74493 217.141894 
L 120.535454 217.539084 
L 120.166511 217.550312 
L 119.342245 217.234525 
L 118.534765 217.087157 
L 118.175264 216.889264 
L 117.872415 216.492073 
L 117.679376 215.877341 
L 117.544388 215.696289 
L 117.206568 215.468922 
L 117.124037 215.345414 
L 117.217059 215.185415 
L 117.38492 215.154538 
L 117.602789 215.192433 
L 117.791283 215.192433 
L 117.872415 215.042258 
L 117.798277 214.871031 
L 117.659792 214.727874 
L 117.581807 214.569279 
L 117.687419 214.351736 
L 117.582156 214.305421 
L 117.348201 214.298403 
L 117.217059 214.259105 
L 117.125436 214.197351 
L 116.666966 213.687881 
L 116.572894 213.489987 
L 116.57814 213.23034 
L 116.640738 213.113849 
L 116.814893 212.963675 
L 116.847067 212.868237 
L 116.200453 211.468947 
L 116.173176 211.346843 
L 116.172648 211.341493 
L 116.157789 211.191055 
L 116.128763 211.054915 
L 116.061619 210.995968 
L 115.877322 210.988951 
L 115.804932 210.958074 
L 115.687429 210.768601 
L 115.508728 210.567901 
L 115.348211 210.427551 
L 114.526393 209.932115 
L 114.173886 209.652819 
L 113.604559 209.049314 
L 113.221976 208.403704 
L 113.092234 208.299845 
L 112.946405 208.329318 
L 112.833799 208.395283 
L 112.74847 208.459844 
L 112.680276 208.493528 
L 112.493182 208.485107 
L 112.412748 208.434581 
L 112.370433 208.365809 
L 112.301541 208.299845 
L 112.207818 208.22967 
L 112.151165 208.170723 
L 112.066186 208.130021 
L 111.729416 208.097741 
L 111.462937 208.028969 
L 111.323403 208.013531 
L 111.083852 207.930724 
L 111.190163 207.748269 
L 111.562604 207.464762 
L 111.100638 206.524417 
L 110.907948 206.252138 
L 110.624333 206.000912 
L 110.463467 206.038807 
L 110.125997 206.580557 
L 109.973873 206.699855 
L 109.838536 206.711083 
L 109.613672 206.62968 
L 109.151706 206.530031 
L 108.861797 206.402313 
L 108.681346 206.261963 
L 108.127756 205.658458 
L 108.043126 205.593897 
L 107.916881 205.556003 
L 107.679428 205.550389 
L 107.564374 205.509687 
L 107.407704 205.358109 
L 106.875446 204.624079 
L 106.618059 204.420571 
L 106.333396 204.276011 
L 105.724202 204.110398 
L 105.452827 204.080924 
L 105.245099 204.125836 
L 105.115007 204.264783 
L 105.068846 204.527237 
L 105.001002 204.701271 
L 104.833141 204.901972 
L 104.619119 205.067585 
L 104.414189 205.139163 
L 104.164147 204.990392 
L 103.30491 204.674605 
L 102.547439 204.530044 
L 102.283758 204.339168 
L 101.958528 204.225485 
L 101.170982 203.739874 
L 100.53451 203.170053 
L 100.293211 203.090053 
L 100.154026 203.001633 
L 99.981969 202.80795 
L 99.767947 202.614267 
L 99.49867 202.525846 
L 99.243732 202.556723 
L 98.660067 202.690056 
L 98.348825 202.719529 
L 98.048075 202.694266 
L 97.785793 202.629705 
L 97.562678 202.539881 
L 97.181494 202.326549 
L 96.638745 201.923745 
L 96.525439 201.737079 
L 95.702922 201.227609 
L 95.366501 200.916032 
L 95.217525 200.697086 
L 95.155976 200.436035 
L 95.088832 200.264808 
L 94.181685 199.113938 
L 94.122934 198.952536 
L 93.992842 198.749028 
L 93.687895 198.786923 
L 93.345179 198.896396 
L 93.098284 198.909027 
L 93.029042 198.802361 
L 92.952805 198.443065 
L 92.871673 198.298505 
L 92.758367 198.247979 
L 92.607292 198.236751 
L 92.312837 198.252189 
L 91.981312 198.229733 
L 91.688255 198.162365 
L 91.418279 198.044471 
L 91.158095 197.873244 
L 90.784605 197.477457 
L 90.649618 197.417107 
L 90.499242 197.459212 
L 90.253746 197.645877 
L 90.183105 197.687982 
L 90.107568 197.756754 
L 89.771147 198.159558 
L 89.645251 198.205874 
L 89.501171 198.233944 
L 89.208814 198.252189 
L 89.08082 198.22833 
L 89.087814 198.31675 
L 89.054242 199.328674 
L 89.194126 200.229721 
L 88.954925 200.38972 
L 87.61204 200.545508 
L 87.26163 200.72656 
L 87.063695 200.751823 
L 86.807707 200.663402 
L 86.446108 200.325159 
L 86.232085 200.174984 
L 86.037647 200.117441 
L 85.378094 200.044459 
L 84.910183 199.91674 
L 84.743022 199.979898 
L 84.777293 200.520245 
L 84.570964 200.525859 
L 84.088365 200.308317 
L 83.917707 200.291475 
L 82.977687 200.433228 
L 82.772757 200.424807 
L 82.578319 200.354632 
L 82.34751 200.184809 
L 82.052356 199.885863 
L 81.91457 199.787618 
L 81.690056 199.709022 
L 81.521496 199.680952 
L 80.980146 199.671128 
L 80.57798 199.534988 
L 80.060409 198.948325 
L 79.776254 198.87673 
L 79.592498 198.830431 
L 79.357493 198.87394 
L 78.675559 199.13078 
L 78.381104 199.147622 
L 78.169879 199.084465 
L 77.970545 198.982009 
L 77.715256 198.889378 
L 76.275152 198.596047 
L 75.802345 198.422013 
L 75.437947 198.141313 
L 75.298063 197.794648 
L 75.238613 197.389037 
L 75.116214 196.932899 
L 75.029486 195.50554 
L 74.846938 194.847299 
L 74.288102 194.706949 
L 74.223259 194.716045 
L 73.827884 194.77151 
L 73.334094 194.57502 
L 72.444433 193.958883 
L 72.156971 193.532219 
L 72.068845 192.555383 
L 71.66458 192.236789 
L 71.330258 192.233982 
L 70.251054 192.645207 
L 69.97898 192.701347 
L 69.704807 192.696435 
L 69.415947 192.631172 
L 69.100509 192.509068 
L 68.957128 192.386262 
L 68.929151 192.239596 
L 68.933348 192.08872 
L 68.885088 191.950475 
L 68.753597 191.811528 
L 68.688551 191.803107 
L 68.619309 191.839598 
L 68.472431 191.836791 
L 67.551995 191.488723 
L 66.592391 191.453636 
L 66.023064 191.175743 
L 64.261577 189.839611 
L 63.984607 189.692244 
L 63.179925 189.474701 
L 62.92079 189.348386 
L 62.601505 189.104177 
L 61.327862 187.683835 
L 61.17612 187.565133 
L 61.080268 187.490152 
L 60.330491 187.317522 
L 60.127309 187.334364 
L 59.931822 187.446644 
L 59.855585 187.227698 
L 59.57232 186.927349 
L 59.520563 186.786999 
L 59.497482 186.525948 
L 59.370538 186.488053 
L 59.180645 186.548404 
L 58.968022 186.583491 
L 58.651185 186.485246 
L 58.385755 186.27823 
L 58.181874 186.004548 
L 58.048635 185.704199 
L 57.909451 185.474727 
L 57.510082 185.151571 
L 57.226118 184.75438 
L 56.431415 184.208339 
" clip-path="url(#p3f076f9782)" style="fill: #f5f5f5; stroke: #000000"/>
    <path d="M 65.868619 168.008414 
L 65.887894 168.073616 
L 66.205111 168.462617 
L 66.330676 168.756579 
L 66.345546 169.1931 
L 66.195198 169.56663 
L 65.827866 169.677142 
L 65.514504 169.490377 
L 65.149374 169.120163 
L 64.845374 168.713479 
L 64.718157 168.421175 
L 64.760563 168.232753 
L 64.853084 168.149869 
L 64.944504 168.086325 
L 65.00853 167.942161 
L 64.910508 167.794692 
L 64.714419 167.426048 
L 64.739164 167.266296 
L 64.874203 167.192619 
L 65.107181 167.315568 
L 65.401663 167.217386 
L 65.683638 167.377183 
L 65.759025 167.626043 
L 65.864764 167.751474 
L 65.901663 167.92111 
L 65.868619 168.008414 
" clip-path="url(#p3f076f9782)" style="fill: #f5f5f5; stroke: #000000"/>
    <path d="M 68.969194 167.071826 
L 69.163049 167.191179 
L 69.670817 167.860881 
L 69.876237 168.02057 
L 70.332236 168.282483 
L 70.556931 168.462617 
L 70.240265 168.669274 
L 69.814005 168.686404 
L 69.410324 168.590258 
L 69.162498 168.462617 
L 69.262179 168.378628 
L 69.162498 168.278063 
L 69.44502 168.009519 
L 69.440614 167.837673 
L 69.261629 167.748159 
L 69.019861 167.721636 
L 68.810586 167.581838 
L 68.726876 167.295613 
L 68.779195 167.058565 
L 68.969194 167.071826 
" clip-path="url(#p3f076f9782)" style="fill: #f5f5f5; stroke: #000000"/>
    <path d="M 70.271106 167.535976 
L 70.79154 167.936581 
L 70.974931 168.134397 
L 70.907742 168.336634 
L 70.680844 168.364814 
L 70.330584 168.189101 
L 69.717077 167.721636 
L 69.344788 167.227648 
L 69.262179 167.071826 
L 69.218672 166.912137 
L 69.202151 166.754105 
L 69.236846 166.686693 
L 69.346991 166.793889 
L 69.388846 166.82649 
L 69.540846 166.886719 
L 69.576092 166.801625 
L 69.615744 166.761841 
L 69.663106 166.736976 
L 69.717077 166.693323 
L 70.094323 167.071826 
L 70.147743 167.177365 
L 70.211627 167.435963 
L 70.271106 167.535976 
" clip-path="url(#p3f076f9782)" style="fill: #f5f5f5; stroke: #000000"/>
    <path d="M 76.403966 145.764046 
L 76.682633 145.903844 
L 76.964053 145.869585 
L 77.241067 145.804383 
L 77.504313 145.856876 
L 77.256487 146.251403 
L 77.081357 146.412198 
L 76.909531 146.342575 
L 76.67272 146.042536 
L 76.339532 146.168519 
L 76.017358 146.221565 
L 75.306924 146.214934 
L 75.040374 146.156916 
L 74.870751 146.143654 
L 74.662578 146.183438 
L 74.54252 146.279584 
L 74.457708 146.398936 
L 74.353621 146.506686 
L 73.855216 146.659192 
L 73.799043 146.700634 
L 73.74397 146.586254 
L 73.749477 146.397831 
L 73.815564 146.221565 
L 73.942231 146.143654 
L 74.122317 146.085083 
L 74.419158 145.82317 
L 74.588781 145.764046 
L 74.769418 145.785596 
L 75.097649 145.859639 
L 75.285997 145.856876 
L 75.222664 145.747469 
L 75.017244 145.605462 
L 74.917012 145.486109 
L 75.38733 145.486109 
L 75.064055 145.405988 
L 75.099852 145.276137 
L 75.322345 145.132471 
L 75.563562 145.014776 
L 75.489765 144.989911 
L 75.444605 144.962283 
L 75.390634 144.93797 
L 75.285997 144.921946 
L 75.30362 144.865033 
L 75.321794 144.825801 
L 75.38733 144.736286 
L 75.748054 144.921946 
L 75.955677 145.094345 
L 76.101068 145.287188 
L 76.210662 145.508764 
L 76.403966 145.764046 
" clip-path="url(#p3f076f9782)" style="fill: #f5f5f5; stroke: #000000"/>
    <path d="M 17.413731 33.628275 
L 17.301384 33.353654 
L 17.339934 33.081242 
L 17.483123 32.849167 
L 17.690746 32.700529 
L 17.753528 32.852482 
L 17.505152 33.879137 
L 17.333877 33.906765 
L 17.248514 33.782992 
L 17.413731 33.628275 
" clip-path="url(#p3f076f9782)" style="fill: #f5f5f5; stroke: #000000"/>
    <path d="M 21.864682 22.815801 
L 21.817319 22.512998 
L 21.917551 22.224563 
L 22.098739 22.071504 
L 22.287638 22.177043 
L 22.356478 22.414643 
L 22.277174 22.611907 
L 22.098739 22.751704 
L 21.864682 22.815801 
" clip-path="url(#p3f076f9782)" style="fill: #f5f5f5; stroke: #000000"/>
    <path d="M 18.764106 149.924263 
L 18.715643 149.892214 
L 18.701875 149.858508 
L 18.724454 149.785571 
L 18.78944 149.70766 
L 18.867092 149.681137 
L 18.890222 149.644668 
L 18.90344 149.525315 
L 18.974483 149.486636 
L 19.050483 149.496582 
L 19.123178 149.470612 
L 19.16283 149.482216 
L 19.210743 149.663455 
L 19.189265 149.692741 
L 19.127584 149.71208 
L 19.07141 149.770652 
L 19.000918 149.764021 
L 18.837353 149.907686 
L 18.764106 149.924263 
" clip-path="url(#p3f076f9782)" style="fill: #f5f5f5; stroke: #000000"/>
    <path d="M 65.121602 163.077522 
L 65.310656 162.912896 
L 65.423987 162.925118 
L 65.398818 163.114947 
L 65.398801 163.304624 
L 65.385808 163.493988 
L 65.183671 163.721705 
L 65.032113 163.848251 
L 64.830022 163.898868 
L 64.665793 163.848251 
L 64.665776 163.70904 
L 64.880528 163.683735 
L 64.944136 163.481534 
L 65.007685 163.216254 
L 65.121602 163.077522 
" clip-path="url(#p3f076f9782)" style="fill: #f5f5f5; stroke: #000000"/>
    <path d="M 100.308969 62.894455 
L 100.457457 62.757563 
L 100.561972 62.826456 
L 100.727145 62.894919 
L 100.97099 62.963967 
L 101.005746 63.12729 
L 100.857633 63.281814 
L 100.727001 63.264489 
L 100.570231 63.221356 
L 100.457033 63.29008 
L 100.422232 63.462027 
L 100.370024 63.55658 
L 100.256723 63.556438 
L 100.204411 63.393031 
L 100.187 63.169503 
L 100.230558 62.997577 
L 100.308969 62.894455 
" clip-path="url(#p3f076f9782)" style="fill: #f5f5f5; stroke: #000000"/>
    <path d="M 39.361179 19.296 
L 39.361179 19.304841 
L 39.368889 19.302631 
L 39.367787 19.316445 
L 39.35457 19.31976 
L 39.35457 19.310367 
L 39.347961 19.313129 
L 39.347961 19.30042 
L 39.361179 19.296 
" clip-path="url(#p3f076f9782)" style="fill: #f5f5f5; stroke: #000000"/>
   </g>
  </g>
 </g>
 <defs>
  <clipPath id="p3f076f9782">
   <rect x="7.2" y="7.2" width="221.067315" height="266.112"/>
  </clipPath>
 </defs>
</svg>
