<?xml version="1.0" encoding="utf-8" standalone="no"?>
<!DOCTYPE svg PUBLIC "-//W3C//DTD SVG 1.1//EN"
  "http://www.w3.org/Graphics/SVG/1.1/DTD/svg11.dtd">
<svg xmlns:xlink="http://www.w3.org/1999/xlink" width="243.923975pt" height="280.512pt" viewBox="0 0 243.923975 280.512" xmlns="http://www.w3.org/2000/svg" version="1.1">
 <metadata>
  <rdf:RDF xmlns:dc="http://purl.org/dc/elements/1.1/" xmlns:cc="http://creativecommons.org/ns#" xmlns:rdf="http://www.w3.org/1999/02/22-rdf-syntax-ns#">
   <cc:Work>
    <dc:type rdf:resource="http://purl.org/dc/dcmitype/StillImage"/>
    <dc:date>2024-03-04T13:11:09.925794</dc:date>
    <dc:format>image/svg+xml</dc:format>
    <dc:creator>
     <cc:Agent>
      <dc:title>Matplotlib v3.8.0, https://matplotlib.org/</dc:title>
     </cc:Agent>
    </dc:creator>
   </cc:Work>
  </rdf:RDF>
 </metadata>
 <defs>
  <style type="text/css">*{stroke-linejoin: round; stroke-linecap: butt}</style>
 </defs>
 <g id="figure_1">
  <g id="patch_1">
   <path d="M 0 280.512 
L 243.923975 280.512 
L 243.923975 0 
L 0 0 
z
" style="fill: #ffffff"/>
  </g>
  <g id="axes_1">
   <g id="PatchCollection_1">
    <defs>
     <path id="mc39cb70bbc" d="M 225.847063 -254.801862 
L 226.073362 -254.035546 
L 226.291067 -250.559909 
L 225.978832 -246.544985 
L 225.721023 -245.926203 
L 225.660867 -245.596758 
L 225.477536 -245.136969 
L 225.042125 -244.761688 
L 224.065315 -244.267522 
L 223.492406 -243.879351 
L 223.131474 -243.379455 
L 222.214819 -240.643634 
L 221.779408 -239.958963 
L 221.67342 -239.676787 
L 221.561703 -239.068031 
L 221.438527 -238.781558 
L 220.937232 -238.063942 
L 220.269792 -236.654493 
L 220.178127 -236.284943 
L 220.080732 -235.534383 
L 219.384648 -233.647956 
L 217.264884 -230.062742 
L 217.181812 -229.830699 
L 216.898222 -229.736163 
L 215.308399 -228.249366 
L 214.944602 -227.796738 
L 214.726897 -227.34984 
L 214.42039 -225.719807 
L 214.245653 -225.174075 
L 214.005031 -224.651261 
L 213.69566 -224.147068 
L 213.308946 -223.183085 
L 213.025356 -222.764834 
L 212.552706 -222.62303 
L 212.440989 -222.339421 
L 211.77355 -221.543026 
L 211.567303 -221.219311 
L 210.493098 -218.30158 
L 210.493098 -217.890491 
L 210.656377 -217.048259 
L 210.725126 -216.198866 
L 210.593357 -213.546839 
L 210.750907 -212.269884 
L 210.745178 -211.830148 
L 210.656377 -211.351737 
L 210.375652 -210.435022 
L 210.318361 -209.957328 
L 210.527473 -202.011991 
L 210.464453 -201.433314 
L 208.825933 -197.843804 
L 208.671247 -197.301653 
L 208.542342 -196.286821 
L 207.571262 -193.180734 
L 207.471002 -191.454732 
L 207.273349 -190.906136 
L 206.124666 -188.975306 
L 205.505924 -188.293499 
L 204.973119 -187.246439 
L 204.789788 -186.609036 
L 205.110617 -184.683935 
L 205.102023 -182.486685 
L 205.927012 -178.954469 
L 205.924148 -178.195315 
L 205.508789 -176.055359 
L 205.525976 -175.273287 
L 205.694984 -174.59721 
L 206.224925 -173.265109 
L 206.631691 -173.038795 
L 206.923874 -172.589032 
L 207.098611 -172.053326 
L 207.155902 -171.577781 
L 206.975436 -168.887796 
L 206.820751 -168.443763 
L 204.440313 -165.112078 
L 202.260394 -159.162027 
L 201.753369 -158.167964 
L 200.624738 -153.00285 
L 200.55026 -152.30672 
L 200.621874 -151.604861 
L 201.300771 -148.834664 
L 201.544257 -143.921646 
L 201.335146 -143.646632 
L 200.948432 -143.099468 
L 199.178143 -141.446517 
L 199.026322 -141.251715 
L 198.908875 -141.03686 
L 198.854449 -140.630068 
L 198.811481 -140.515478 
L 198.719815 -140.415213 
L 198.393257 -140.17744 
L 198.038054 -139.767783 
L 197.459415 -139.340938 
L 195.899082 -137.461649 
L 192.174329 -132.9755 
L 191.452463 -132.308018 
L 190.885283 -131.620482 
L 190.673307 -131.445733 
L 189.928525 -131.084776 
L 189.851182 -130.94154 
L 189.306918 -130.296975 
L 189.020464 -130.127956 
L 187.571004 -129.718299 
L 186.170241 -129.520632 
L 185.631706 -129.374531 
L 183.78121 -128.615376 
L 182.446332 -128.240096 
L 181.564051 -128.093995 
L 181.395043 -128.022377 
L 181.10286 -127.821845 
L 180.933851 -127.753092 
L 180.856509 -127.584072 
L 180.203392 -126.824918 
L 179.120594 -125.868097 
L 178.252637 -124.859711 
L 176.960727 -123.814083 
L 176.327662 -123.435939 
L 176.147196 -123.25546 
L 176.021156 -123.054929 
L 175.720378 -122.281451 
L 175.07872 -121.135558 
L 174.651903 -120.112848 
L 174.193575 -119.462554 
L 173.162339 -117.40854 
L 172.248549 -116.216811 
L 171.609755 -114.930546 
L 171.234675 -114.350415 
L 170.687372 -113.503909 
L 170.483989 -113.048416 
L 170.343626 -112.590059 
L 170.306387 -112.274938 
L 170.323574 -111.332441 
L 170.160295 -110.513127 
L 169.799362 -109.811267 
L 167.60384 -106.915212 
L 167.536371 -106.826215 
L 167.387415 -106.493906 
L 167.298614 -106.115762 
L 167.126741 -106.035549 
L 166.642633 -105.665998 
L 166.212951 -105.48552 
L 166.081182 -105.413902 
L 165.829102 -105.187588 
L 165.405149 -104.643289 
L 163.657777 -102.933043 
L 162.483313 -102.04784 
L 160.936458 -100.566773 
L 160.151573 -100.033933 
L 159.464082 -99.418015 
L 158.785184 -98.532813 
L 158.447168 -97.948407 
L 158.24665 -97.323895 
L 158.281024 -96.682195 
L 158.321128 -96.46734 
L 158.318263 -96.289727 
L 157.957331 -95.043568 
L 157.90004 -94.593804 
L 157.99457 -94.166959 
L 158.249514 -93.783085 
L 158.315399 -93.639848 
L 158.366961 -93.379158 
L 158.384148 -92.041327 
L 159.306532 -85.386552 
L 158.722164 -81.298577 
L 158.066183 -79.319047 
L 157.991705 -78.932308 
L 157.960195 -78.53411 
L 158.152927 -76.926726 
L 158.272431 -75.930067 
L 158.166443 -74.552131 
L 158.315399 -72.993716 
L 158.200817 -71.49546 
L 158.318263 -71.034238 
L 158.576073 -70.512857 
L 158.581802 -69.876886 
L 158.412793 -68.667969 
L 158.558885 -68.083563 
L 158.885443 -67.762713 
L 159.209137 -67.539264 
L 159.358094 -67.241331 
L 159.306532 -66.593902 
L 159.171898 -66.081114 
L 158.810965 -65.244612 
L 157.444577 -62.878343 
L 156.874532 -61.397276 
L 156.255791 -60.191223 
L 154.531334 -58.091373 
L 153.405568 -55.811046 
L 153.19932 -55.186534 
L 152.806878 -54.794066 
L 152.339957 -53.476288 
L 151.477728 -51.972303 
L 151.282939 -51.757448 
L 151.122525 -51.476704 
L 150.618365 -49.846671 
L 149.94999 -49.206696 
L 149.810563 -49.073193 
L 148.736358 -48.511706 
L 147.510333 -48.14502 
L 146.26712 -47.955947 
L 145.049688 -47.775469 
L 141.047918 -46.503528 
L 140.555216 -46.277214 
L 140.131263 -45.950634 
L 139.781788 -45.429253 
L 138.928154 -42.702027 
L 138.779197 -42.461389 
L 138.166185 -41.816824 
L 138.057332 -41.630616 
L 137.81671 -41.53608 
L 137.129219 -41.177988 
L 136.05215 -40.78552 
L 132.967034 -39.232835 
L 132.425635 -38.880472 
L 131.666531 -38.553893 
L 130.990498 -38.161424 
L 130.698314 -37.61426 
L 130.549358 -37.241845 
L 129.513707 -35.773786 
L 128.051474 -33.701035 
L 127.447055 -33.142412 
L 125.968949 -32.394716 
L 125.74265 -32.091055 
L 125.565048 -31.730098 
L 123.425233 -29.627384 
L 121.153648 -25.834477 
L 120.941672 -25.378985 
L 120.658082 -24.966463 
L 120.222671 -24.608371 
L 118.919302 -24.046884 
L 117.083129 -22.90099 
L 116.266733 -22.614517 
L 115.206851 -22.511387 
L 114.89748 -22.625976 
L 114.032388 -23.150222 
L 113.685778 -23.267676 
L 113.559737 -23.342159 
L 113.333438 -23.70598 
L 113.201669 -23.834893 
L 112.972506 -23.854947 
L 112.379545 -23.826299 
L 112.256369 -23.938024 
L 112.03007 -24.238821 
L 111.520181 -24.256009 
L 110.978782 -24.112773 
L 110.649359 -23.938024 
L 110.079315 -23.333565 
L 109.741298 -23.161681 
L 109.211357 -23.078604 
L 108.727249 -22.992662 
L 108.609803 -23.834893 
L 109.056672 -25.989173 
L 108.950684 -26.275646 
L 108.810321 -26.524878 
L 108.698603 -26.788433 
L 108.681416 -27.115013 
L 108.750165 -27.375704 
L 108.962142 -27.862708 
L 109.010839 -28.126264 
L 108.899122 -28.819529 
L 108.592615 -29.260698 
L 108.180121 -29.647437 
L 107.759033 -30.171683 
L 107.529869 -31.22877 
L 107.320757 -31.844688 
L 107.343673 -32.062407 
L 107.569973 -32.46347 
L 108.008248 -32.861668 
L 109.056672 -33.297107 
L 109.388959 -33.635146 
L 109.69833 -34.067721 
L 110.162386 -34.586237 
L 110.551965 -35.139131 
L 110.640765 -35.657647 
L 110.460299 -35.843855 
L 109.500676 -36.459773 
L 108.959277 -37.092879 
L 108.506679 -37.780415 
L 108.320483 -38.181477 
L 108.31189 -38.330444 
L 108.40642 -38.47941 
L 108.526731 -38.877608 
L 108.575428 -39.232835 
L 108.578293 -39.527902 
L 108.509543 -39.748487 
L 108.349129 -39.8774 
L 107.836375 -39.840158 
L 106.64186 -39.192728 
L 105.38146 -38.889067 
L 104.817144 -38.496598 
L 103.780179 -37.585613 
L 102.740349 -37.095744 
L 101.677602 -36.751976 
L 99.239874 -36.456908 
L 98.205773 -36.044386 
L 97.389377 -34.944329 
L 97.34068 -34.864116 
L 97.280525 -34.803957 
L 96.839384 -34.485972 
L 96.372464 -33.924484 
L 96.083144 -33.7526 
L 95.808148 -33.741141 
L 95.000369 -33.973531 
L 94.971701 -33.981779 
L 94.192544 -33.930213 
L 93.9376 -33.996102 
L 93.633958 -34.262522 
L 93.24438 -34.990165 
L 92.989435 -35.328203 
L 92.367829 -35.732131 
L 91.800649 -35.789425 
L 90.041818 -35.176372 
L 89.720988 -35.001624 
L 89.612136 -34.683638 
L 89.910049 -32.007977 
L 89.809789 -31.472272 
L 89.378675 -30.352162 
L 89.281281 -29.744838 
L 89.652239 -28.553109 
L 89.468908 -28.312471 
L 89.261229 -28.335389 
L 89.032065 -28.401278 
L 88.805766 -28.283824 
L 88.691184 -27.980162 
L 88.768527 -27.47024 
L 88.622435 -27.275438 
L 88.378949 -27.249655 
L 87.745884 -27.427269 
L 87.476617 -27.444457 
L 86.897979 -27.069177 
L 86.296424 -25.954796 
L 85.97665 -25.85406 
L 85.723515 -25.774318 
L 85.388363 -25.926149 
L 84.841235 -26.493366 
L 84.488896 -26.650926 
L 84.170931 -26.60509 
L 83.271464 -26.080844 
L 83.552189 -25.840207 
L 83.663907 -25.602434 
L 83.583699 -25.393308 
L 83.271464 -25.230019 
L 81.84492 -24.181526 
L 81.080087 -23.253353 
L 80.787903 -23.018444 
L 80.197806 -24.227362 
L 79.997288 -25.192777 
L 79.848332 -25.527951 
L 79.587658 -25.782912 
L 79.178028 -26.006361 
L 77.499404 -26.607955 
L 76.995244 -26.9374 
L 75.691876 -28.068969 
L 74.952823 -28.54165 
L 74.683556 -28.816665 
L 74.339811 -29.724785 
L 73.844244 -30.446698 
L 73.62081 -30.862084 
L 73.019255 -31.566808 
L 72.343222 -31.49519 
L 71.887759 -30.882137 
L 71.947915 -29.948234 
L 70.658869 -30.589934 
L 68.839883 -32.761402 
L 67.742762 -33.635146 
L 67.201363 -34.248199 
L 66.702932 -35.5803 
L 66.299031 -36.138923 
L 65.866485 -36.38529 
L 65.534197 -36.350913 
L 65.20191 -36.201947 
L 64.772228 -36.11314 
L 64.391244 -36.193353 
L 63.881202 -36.468957 
L 63.680836 -36.577227 
L 63.299852 -36.714734 
L 62.641006 -36.333725 
L 62.325906 -35.694889 
L 62.102472 -35.033136 
L 61.727216 -34.586237 
L 61.225921 -34.299764 
L 60.773322 -33.938808 
L 60.386609 -33.494774 
L 59.785054 -32.377528 
L 59.478548 -32.056678 
L 59.043137 -31.896253 
L 55.969479 -31.334765 
L 54.081744 -30.718847 
L 53.666385 -30.681606 
L 52.915874 -30.776142 
L 52.6552 -30.389403 
L 52.689574 -29.200539 
L 52.557805 -28.621863 
L 51.400529 -26.330076 
L 51.11121 -25.989173 
L 50.715903 -25.837342 
L 49.776332 -25.739941 
L 49.355243 -25.639675 
L 48.954207 -25.48498 
L 48.707856 -25.27299 
L 48.358381 -25.920419 
L 48.106301 -26.238405 
L 47.845628 -26.395965 
L 47.516205 -26.395965 
L 47.3873 -26.269917 
L 46.545124 -23.428101 
L 45.814665 -22.253561 
L 42.689864 -19.601758 
L 42.455272 -19.296 
L 42.031389 -19.679587 
L 41.647946 -20.132982 
L 41.020904 -21.172857 
L 39.978841 -22.433791 
L 39.298961 -23.092981 
L 39.036022 -23.852623 
L 37.493479 -25.466274 
L 37.2059 -25.805038 
L 37.17973 -25.961378 
L 37.312851 -26.149855 
L 37.476143 -26.117349 
L 37.846376 -25.694638 
L 37.987887 -25.77057 
L 38.118515 -26.106663 
L 38.041716 -26.690922 
L 37.312783 -27.63768 
L 36.1367 -28.698544 
L 36.005672 -29.045878 
L 36.027342 -29.327971 
L 36.682351 -29.321386 
L 37.204588 -29.893962 
L 37.328244 -30.518005 
L 36.823373 -31.561567 
L 33.67963 -34.711071 
L 30.801017 -37.172505 
L 28.272548 -39.407899 
L 26.961371 -40.220342 
L 25.598177 -41.422283 
L 25.074181 -42.26361 
L 24.941104 -42.439554 
L 24.582472 -43.046336 
L 24.508039 -43.314764 
L 24.537361 -43.923802 
L 24.510294 -44.237343 
L 24.402028 -44.456146 
L 21.961185 -46.401578 
L 19.251762 -48.182495 
L 18.327981 -48.858074 
L 17.632908 -49.308332 
L 18.065458 -50.112132 
L 19.907714 -55.074809 
L 20.363177 -55.948553 
L 21.085042 -56.564471 
L 22.030342 -57.177524 
L 22.855331 -57.856465 
L 23.74907 -58.406494 
L 24.889159 -58.635673 
L 25.946176 -58.988035 
L 26.564918 -59.781566 
L 27.083401 -60.635257 
L 27.848235 -61.159503 
L 29.237539 -60.958971 
L 30.265911 -60.17117 
L 32.465882 -56.613171 
L 32.929939 -56.111843 
L 33.531493 -55.908447 
L 35.041109 -56.103249 
L 35.596831 -56.040224 
L 37.192382 -55.584732 
L 37.708001 -55.570408 
L 37.776784 -55.596647 
L 38.263723 -55.782399 
L 38.862413 -56.229297 
L 39.35225 -56.813702 
L 39.569955 -57.438214 
L 39.375166 -58.025485 
L 38.842361 -58.311958 
L 38.18638 -58.523948 
L 37.613471 -58.864851 
L 37.338474 -59.443528 
L 37.415817 -60.085228 
L 38.997046 -63.82084 
L 39.372302 -64.488323 
L 40.566817 -65.38212 
L 40.939208 -65.977984 
L 40.647025 -66.871781 
L 39.575684 -67.373109 
L 38.260858 -67.734066 
L 37.252538 -68.212476 
L 36.135365 -69.132055 
L 35.550998 -69.481553 
L 33.981227 -70.137577 
L 33.766386 -70.298002 
L 33.528629 -70.535775 
L 33.477067 -70.64177 
L 33.522899 -70.79933 
L 33.54868 -72.718701 
L 33.686179 -73.205706 
L 34.05284 -73.893242 
L 34.34216 -74.067991 
L 34.723144 -74.036479 
L 35.361938 -74.102368 
L 36.046564 -74.523483 
L 36.046564 -75.119348 
L 35.639799 -75.758183 
L 33.531493 -77.998405 
L 32.574735 -79.3878 
L 32.122137 -79.897723 
L 31.569279 -80.078201 
L 30.781529 -79.837563 
L 29.658627 -79.049762 
L 29.183113 -78.969549 
L 29.039886 -79.619844 
L 29.316645 -80.681225 
L 29.369308 -80.883191 
L 31.388813 -84.177634 
L 31.643758 -84.879494 
L 31.778391 -85.455305 
L 31.778391 -86.031117 
L 31.629435 -86.738706 
L 31.368761 -87.360353 
L 30.666947 -88.480464 
L 30.452107 -89.064869 
L 30.440648 -89.549009 
L 30.641167 -91.084506 
L 30.540907 -91.694694 
L 29.945082 -93.310404 
L 30.165652 -93.854703 
L 30.225807 -93.871892 
L 31.251315 -93.837515 
L 32.652078 -93.413534 
L 33.033062 -93.218732 
L 33.204935 -93.003877 
L 33.316652 -92.771834 
L 33.528629 -92.525467 
L 34.465335 -91.792095 
L 34.969495 -91.525675 
L 35.427822 -91.488434 
L 35.889014 -91.757719 
L 36.828585 -92.622868 
L 37.444462 -92.869235 
L 38.444189 -93.066902 
L 39.612924 -93.442182 
L 40.480881 -93.871892 
L 40.767335 -93.702872 
L 41.268631 -93.333322 
L 42.208202 -92.167375 
L 43.056107 -91.585835 
L 43.915471 -91.491298 
L 54.918191 -93.848974 
L 54.603091 -94.459162 
L 54.803609 -95.355823 
L 55.176 -96.30978 
L 55.367925 -97.106175 
L 55.170271 -98.252069 
L 55.221833 -98.661726 
L 55.419486 -99.082841 
L 55.917917 -99.867778 
L 56.041093 -100.346189 
L 54.961159 -100.836058 
L 54.385386 -101.724125 
L 54.147628 -102.844236 
L 53.9156 -105.832153 
L 54.021588 -106.207433 
L 54.330959 -106.135815 
L 54.661519 -105.785332 
L 55.187458 -105.227694 
L 55.674431 -105.075863 
L 56.032499 -105.270665 
L 56.15281 -105.551409 
L 56.172862 -105.852206 
L 56.221559 -106.092844 
L 56.390567 -106.445206 
L 56.528066 -106.625684 
L 56.697074 -106.783244 
L 58.054869 -107.69423 
L 58.352781 -107.803089 
L 59.716305 -107.840331 
L 60.896498 -107.350462 
L 62.727061 -106.024425 
L 62.850118 -105.935283 
L 64.021717 -105.557139 
L 64.488638 -105.236288 
L 64.809467 -104.560211 
L 65.419615 -102.549169 
L 65.668831 -101.961898 
L 65.829245 -101.758502 
L 66.261792 -101.334522 
L 66.384967 -101.168367 
L 66.49382 -100.535261 
L 66.445123 -100.523802 
L 66.445123 -100.394889 
L 66.416477 -100.228735 
L 66.476633 -100.085498 
L 66.99798 -99.950856 
L 66.980793 -99.790431 
L 66.87194 -99.607088 
L 66.820378 -99.47531 
L 66.702932 -99.266184 
L 66.654235 -99.091436 
L 66.720119 -98.908093 
L 67.083916 -98.552866 
L 67.189905 -98.358064 
L 67.209956 -98.071591 
L 67.330267 -97.578856 
L 67.725575 -97.59318 
L 68.398743 -97.936948 
L 68.639365 -97.70204 
L 69.157847 -96.854079 
L 69.418521 -96.536094 
L 69.558884 -95.788398 
L 69.633362 -95.564949 
L 69.831016 -95.352959 
L 70.000024 -95.358688 
L 70.131793 -95.330041 
L 70.200542 -95.017785 
L 69.968514 -94.771418 
L 69.813828 -94.545104 
L 69.756538 -94.26436 
L 69.736486 -94.026587 
L 69.659143 -93.783085 
L 69.547426 -93.551042 
L 69.418521 -93.35624 
L 69.10915 -93.095549 
L 68.965923 -92.837723 
L 69.04613 -92.671568 
L 69.418521 -92.691622 
L 69.739083 -93.012205 
L 70.240646 -93.5138 
L 70.598714 -93.619795 
L 71.286205 -93.496612 
L 73.073681 -92.685892 
L 73.65232 -92.54552 
L 73.955961 -92.608544 
L 74.485902 -92.917935 
L 74.806732 -92.960906 
L 75.078863 -92.900747 
L 79.911352 -91.107424 
L 80.404054 -91.050129 
L 80.936859 -91.181907 
L 81.538414 -91.084506 
L 81.681641 -91.081641 
L 82.071219 -91.20196 
L 82.248821 -91.156125 
L 82.480849 -90.815221 
L 82.624077 -90.769386 
L 82.91626 -90.93554 
L 83.0423 -91.158989 
L 83.119643 -91.416815 
L 83.271464 -91.683235 
L 83.54646 -91.949656 
L 84.445928 -92.571303 
L 84.68082 -92.803346 
L 85.084721 -93.310404 
L 85.359718 -93.556771 
L 85.689141 -93.722926 
L 86.350851 -93.934916 
L 86.628711 -94.123988 
L 86.751887 -94.370355 
L 86.832094 -94.957626 
L 87.01829 -95.244099 
L 89.126595 -97.286654 
L 89.35003 -97.596045 
L 89.451721 -97.885383 
L 89.494689 -98.432547 
L 89.569168 -98.739073 
L 89.861351 -99.291967 
L 90.439989 -100.154252 
L 90.503009 -100.303218 
L 90.59181 -100.268841 
L 90.883994 -100.059715 
L 91.264979 -99.69303 
L 91.60013 -99.168783 
L 91.840752 -98.584378 
L 92.092832 -97.438485 
L 92.723032 -96.152219 
L 93.063913 -95.642297 
L 93.570938 -95.126645 
L 93.757133 -94.854495 
L 93.848799 -94.083882 
L 94.06364 -93.880486 
L 94.355823 -93.740114 
L 94.642278 -93.536718 
L 95.020398 -93.021066 
L 94.902952 -92.840588 
L 94.573529 -92.637192 
L 94.181086 -91.80069 
L 93.605312 -91.511351 
L 93.399065 -91.267849 
L 93.379013 -90.199304 
L 93.347503 -90.061796 
L 93.800102 -89.663599 
L 94.433166 -89.454473 
L 95.112063 -89.420096 
L 95.693566 -89.540415 
L 96.171945 -89.829753 
L 96.438348 -89.950072 
L 96.707615 -89.950072 
L 96.96256 -89.763864 
L 97.045632 -89.256806 
L 97.223234 -89.093517 
L 97.43521 -89.090652 
L 98.709933 -89.48885 
L 98.88467 -89.520362 
L 99.162531 -89.497444 
L 99.589348 -89.251077 
L 99.864345 -89.136488 
L 100.116425 -89.173729 
L 100.282568 -89.382855 
L 100.408282 -89.743097 
L 100.580481 -90.236545 
L 100.815374 -90.482912 
L 101.081777 -90.692038 
L 101.276566 -90.932675 
L 101.265107 -91.660318 
L 101.391148 -91.941061 
L 101.617447 -92.178834 
L 102.147388 -92.628597 
L 102.399468 -92.797617 
L 102.674464 -92.923665 
L 103.997884 -93.233056 
L 104.118195 -93.155708 
L 103.911948 -94.038046 
L 101.812236 -95.814181 
L 101.723435 -96.762407 
L 102.09869 -97.05461 
L 103.049719 -97.401243 
L 103.419246 -97.80517 
L 103.424975 -98.008566 
L 103.253102 -98.504165 
L 103.284612 -98.776315 
L 103.433569 -98.908093 
L 103.911948 -99.077112 
L 104.101008 -99.266184 
L 104.229912 -99.661518 
L 104.384598 -101.122531 
L 104.567929 -101.669696 
L 104.596574 -101.94471 
L 104.46194 -102.179618 
L 104.235641 -102.345773 
L 104.092414 -102.489009 
L 104.075227 -102.660893 
L 104.221319 -102.921584 
L 104.206996 -103.239569 
L 104.275745 -103.485936 
L 104.413243 -103.692197 
L 104.610897 -103.892729 
L 107.836688 -105.152754 
L 107.896531 -105.176129 
L 108.632719 -105.577192 
L 108.833237 -105.958201 
L 108.621261 -107.167119 
L 108.638448 -107.402027 
L 108.807456 -108.115345 
L 108.893393 -110.324055 
L 109.070994 -110.922784 
L 109.406146 -111.295199 
L 110.059263 -111.690532 
L 109.847286 -111.873875 
L 109.262919 -111.971276 
L 108.790269 -112.117378 
L 108.455117 -113.240353 
L 107.916583 -113.54115 
L 107.733252 -113.747411 
L 107.982467 -113.967995 
L 108.549647 -114.168527 
L 108.810321 -114.29744 
L 109.073859 -114.489377 
L 109.260054 -114.770121 
L 109.371772 -115.090971 
L 109.549374 -115.331608 
L 110.457435 -115.503492 
L 110.445976 -115.921743 
L 110.136605 -116.420207 
L 109.772808 -116.781163 
L 110.122283 -117.583289 
L 110.168115 -118.250772 
L 110.268375 -118.511462 
L 110.589204 -118.820853 
L 110.941543 -119.047167 
L 111.139196 -119.365153 
L 110.984511 -119.940964 
L 110.010565 -120.585529 
L 109.6038 -121.006645 
L 109.437656 -121.536621 
L 109.514999 -121.843147 
L 109.706924 -122.043678 
L 109.936087 -122.221292 
L 110.136605 -122.447606 
L 110.291291 -122.739809 
L 110.39155 -123.006229 
L 110.503267 -123.627876 
L 110.531913 -124.493025 
L 110.48608 -124.742257 
L 110.271239 -125.100349 
L 109.800776 -125.563924 
L 109.686872 -125.67616 
L 109.492083 -126.014199 
L 109.483489 -126.251971 
L 109.638174 -126.730382 
L 109.661091 -126.968155 
L 109.566561 -127.29187 
L 109.271513 -127.890599 
L 108.480898 -130.064931 
L 108.486627 -130.463129 
L 108.778811 -131.053264 
L 108.916309 -132.250723 
L 109.062401 -132.886694 
L 109.489218 -133.5685 
L 109.979055 -134.10707 
L 110.291291 -134.70007 
L 110.173845 -135.542301 
L 109.987649 -136.247026 
L 109.98192 -136.928832 
L 110.136605 -137.607774 
L 111.262372 -140.042797 
L 111.451432 -140.942324 
L 111.202216 -141.773096 
L 110.551965 -143.110927 
L 110.211084 -143.474748 
L 109.108234 -144.233902 
L 108.495221 -145.058945 
L 107.561379 -145.643351 
L 106.507226 -146.110302 
L 105.733799 -146.333751 
L 105.258284 -146.259268 
L 104.828602 -146.055872 
L 104.40465 -145.912636 
L 103.954916 -146.018631 
L 103.447891 -146.224892 
L 102.972377 -146.222027 
L 102.514049 -146.064467 
L 102.047128 -145.815235 
L 101.998431 -146.852268 
L 101.795048 -147.995297 
L 101.454168 -149.106813 
L 100.987247 -150.05504 
L 100.265381 -150.762629 
L 99.251332 -151.255363 
L 98.139888 -151.427247 
L 97.131568 -151.160827 
L 96.93105 -151.430112 
L 96.707615 -151.61632 
L 96.438348 -151.722315 
L 95.447215 -151.836904 
L 95.232374 -151.762421 
L 95.126386 -151.579078 
L 95.051908 -151.378547 
L 94.934462 -151.255363 
L 94.5678 -151.120721 
L 94.390198 -151.086344 
L 94.224054 -151.209527 
L 92.943602 -152.73643 
L 92.969383 -153.521367 
L 93.261567 -154.208903 
L 94.518598 -155.877559 
L 94.862848 -156.334535 
L 95.146438 -156.60382 
L 95.435757 -156.961912 
L 95.407112 -157.254115 
L 95.263884 -157.563506 
L 95.209458 -157.970298 
L 95.326904 -158.245312 
L 95.719347 -158.75237 
L 95.762315 -159.041708 
L 95.54461 -159.382611 
L 95.212323 -159.442771 
L 94.888629 -159.451365 
L 94.708162 -159.640437 
L 94.590716 -161.642886 
L 94.458947 -162.318963 
L 94.18968 -163.178383 
L 94.052182 -163.874513 
L 94.178222 -164.536266 
L 95.120657 -165.939986 
L 96.103196 -168.142966 
L 96.693293 -168.770342 
L 98.741443 -169.899047 
L 99.259926 -170.494912 
L 99.368778 -171.067858 
L 99.196906 -171.635075 
L 98.88467 -172.213752 
L 99.726846 -173.382563 
L 101.098964 -173.56877 
L 102.654412 -173.394022 
L 104.046581 -173.468505 
L 104.418972 -173.611741 
L 104.576522 -173.726331 
L 104.679646 -173.872432 
L 106.733525 -175.648567 
L 106.916856 -176.241566 
L 106.999928 -177.663907 
L 107.802001 -178.816962 
L 109.079588 -179.912722 
L 110.027753 -181.054318 
L 109.844422 -182.344881 
L 109.749892 -182.687216 
L 109.959004 -182.912098 
L 110.288426 -183.108332 
L 110.543371 -183.366158 
L 110.594933 -183.74287 
L 110.382956 -183.964887 
L 109.721246 -184.298629 
L 109.19417 -184.778472 
L 108.730114 -185.325636 
L 108.340535 -185.932959 
L 108.034029 -186.580389 
L 107.601483 -187.998432 
L 107.223362 -188.562784 
L 105.894213 -189.175837 
L 105.461667 -189.754513 
L 105.235368 -190.462102 
L 105.264013 -192.553358 
L 105.189535 -193.278135 
L 104.77704 -195.008434 
L 104.610897 -195.317825 
L 104.312984 -195.549869 
L 103.997884 -195.681646 
L 103.760127 -195.834909 
L 103.717189 -195.988423 
L 103.67419 -196.142152 
L 103.344768 -196.205176 
L 103.135656 -196.357007 
L 102.958054 -196.541066 
L 102.717432 -196.704356 
L 101.62604 -197.003004 
L 101.070318 -197.057434 
L 100.571887 -196.928521 
L 99.580755 -196.545363 
L 98.993523 -196.581172 
L 98.558112 -196.892712 
L 98.148482 -197.294491 
L 97.644322 -197.596004 
L 97.165943 -197.701999 
L 91.932418 -198.18972 
L 91.539975 -198.095184 
L 91.517059 -197.963406 
L 91.256385 -197.247223 
L 90.918369 -196.584037 
L 90.826703 -196.523878 
L 90.52879 -196.411437 
L 90.445719 -196.440084 
L 90.122025 -196.595496 
L 89.981662 -196.624143 
L 89.792602 -196.552525 
L 89.460315 -196.292551 
L 89.281281 -196.203744 
L 88.771392 -196.109924 
L 88.516447 -196.092735 
L 88.255773 -196.104194 
L 87.705781 -196.054062 
L 87.313338 -195.797668 
L 86.952405 -195.501168 
L 85.958408 -195.114429 
L 85.325343 -194.263603 
L 84.967275 -194.005777 
L 84.039162 -193.833893 
L 83.202715 -193.829596 
L 82.346216 -193.994318 
L 81.377999 -194.339519 
L 80.956911 -194.378193 
L 80.352492 -194.309439 
L 79.811093 -194.160473 
L 79.587658 -193.95278 
L 79.410056 -193.461478 
L 78.940271 -193.33543 
L 78.436111 -193.263811 
L 77.920493 -192.63357 
L 77.413468 -192.412986 
L 76.840559 -192.295532 
L 75.886665 -192.36715 
L 75.32235 -192.276911 
L 75.030166 -192.315585 
L 75.029472 -192.318709 
L 74.94423 -192.702324 
L 74.680692 -192.879937 
L 74.348404 -193.01458 
L 74.067679 -193.260947 
L 74.594755 -193.315377 
L 74.801002 -193.65628 
L 74.904126 -194.043019 
L 75.124696 -194.226362 
L 75.514274 -194.280792 
L 75.98406 -194.441217 
L 76.379367 -194.707637 
L 76.640041 -195.263395 
L 76.809049 -195.360796 
L 76.869204 -195.506898 
L 76.637176 -195.843504 
L 76.545511 -196.029711 
L 76.534053 -196.242418 
L 76.55124 -196.468732 
L 76.514001 -197.779347 
L 76.542646 -198.010674 
L 76.098642 -198.288553 
L 75.600211 -199.629249 
L 75.030166 -199.920735 
L 75.19631 -200.31392 
L 75.161935 -200.692781 
L 74.967146 -201.020077 
L 74.652046 -201.26143 
L 74.462986 -201.055886 
L 73.950232 -201.764907 
L 73.497634 -202.569897 
L 73.973149 -203.118494 
L 74.06195 -203.784544 
L 73.895806 -205.046459 
L 74.001794 -205.630149 
L 74.190854 -206.150814 
L 74.271061 -206.63567 
L 74.067679 -207.111216 
L 74.417153 -207.314612 
L 74.700743 -207.683446 
L 74.91272 -208.100981 
L 75.199174 -209.118677 
L 75.239278 -209.562711 
L 75.124696 -209.890723 
L 74.981469 -210.0977 
L 74.758034 -210.598312 
L 74.399966 -211.089614 
L 74.514548 -211.215662 
L 74.843971 -211.310198 
L 75.030166 -211.744206 
L 75.219226 -212.066488 
L 75.405422 -212.289221 
L 75.588752 -212.461821 
L 75.73198 -212.655191 
L 75.789271 -212.935218 
L 75.631721 -213.454451 
L 75.640314 -213.687927 
L 75.892394 -213.787476 
L 76.038486 -213.889175 
L 76.542646 -214.440636 
L 76.70879 -214.5674 
L 77.697058 -215.112416 
L 77.980648 -215.777034 
L 78.078043 -216.667966 
L 78.069449 -218.330227 
L 82.836053 -218.287256 
L 87.098497 -218.248582 
L 88.26064 -218.23885 
L 92.743084 -218.201314 
L 97.698748 -218.156911 
L 102.104419 -218.118237 
L 105.020527 -218.091022 
L 105.278336 -218.122534 
L 106.498632 -218.596647 
L 108.254599 -218.358875 
L 108.69001 -218.111075 
L 109.22568 -217.615476 
L 109.620987 -217.528102 
L 109.781402 -217.579667 
L 110.348582 -217.927732 
L 112.53423 -218.394684 
L 112.783446 -218.482058 
L 112.872247 -218.721263 
L 112.809227 -218.976225 
L 112.803497 -219.234051 
L 113.061307 -219.476121 
L 113.201669 -219.653734 
L 113.914941 -219.4575 
L 114.831596 -218.43479 
L 115.493306 -218.139722 
L 115.258413 -217.699986 
L 115.52768 -217.562479 
L 116.246681 -217.589694 
L 116.633395 -217.354786 
L 117.180523 -216.791149 
L 117.590153 -216.626427 
L 117.401093 -217.302504 
L 117.601611 -217.40277 
L 118.349258 -217.003856 
L 117.951086 -216.693748 
L 117.779213 -216.626427 
L 118.051345 -216.529026 
L 118.340664 -216.559822 
L 118.584151 -216.626427 
L 118.724513 -216.626427 
L 118.756023 -216.430909 
L 118.730242 -215.811411 
L 118.819043 -215.680349 
L 120.523448 -215.868705 
L 120.935943 -215.970403 
L 121.130732 -216.227513 
L 121.185158 -216.564835 
L 121.185158 -216.90932 
L 121.374218 -217.079771 
L 121.775254 -216.683722 
L 122.139052 -216.141571 
L 122.227853 -215.868705 
L 122.769252 -215.498438 
L 122.471339 -214.723528 
L 122.356757 -214.043154 
L 123.456743 -213.958644 
L 124.058297 -214.027398 
L 124.313242 -214.154879 
L 124.533812 -214.820929 
L 124.803079 -214.783687 
L 126.12077 -213.735911 
L 126.547588 -213.612728 
L 127.086122 -213.787476 
L 127.41268 -213.294026 
L 127.876737 -213.434398 
L 128.320741 -213.889175 
L 128.601467 -214.337505 
L 128.770475 -214.337505 
L 129.17724 -214.184958 
L 129.541038 -215.002123 
L 130.426182 -214.679125 
L 130.798573 -214.835253 
L 131.23112 -214.964166 
L 131.815487 -214.733555 
L 131.952985 -214.5674 
L 132.104806 -214.144852 
L 132.213659 -213.958644 
L 132.36548 -213.874851 
L 133.307915 -213.527502 
L 133.525621 -213.354186 
L 133.683171 -213.138614 
L 133.743326 -212.935218 
L 133.706087 -212.572113 
L 133.65739 -212.415269 
L 133.697493 -212.302112 
L 133.915199 -212.066488 
L 134.049833 -212.04357 
L 134.700084 -211.7528 
L 134.688626 -211.689059 
L 135.015184 -211.739908 
L 135.536532 -212.004896 
L 136.095118 -212.190388 
L 137.510204 -213.029755 
L 138.721907 -213.196625 
L 139.933609 -212.973892 
L 142.293995 -212.273465 
L 144.926512 -211.980546 
L 145.046823 -211.853065 
L 145.336142 -211.693356 
L 145.682753 -211.557282 
L 146.33014 -211.454151 
L 146.530658 -211.335981 
L 147.59054 -209.984543 
L 147.93715 -209.803349 
L 148.676203 -209.546239 
L 149.337913 -209.111516 
L 149.60718 -208.98117 
L 149.793376 -208.785652 
L 149.864989 -208.368117 
L 150.002487 -208.136074 
L 150.33191 -208.148965 
L 150.704301 -208.293634 
L 150.999349 -208.454059 
L 151.085286 -208.016471 
L 151.494916 -207.813075 
L 152.03345 -207.694905 
L 152.511829 -207.507265 
L 152.798284 -207.661961 
L 153.130571 -207.654799 
L 153.437078 -207.527318 
L 153.663377 -207.318909 
L 153.783688 -207.000207 
L 153.743584 -206.728058 
L 153.663377 -206.466651 
L 153.663377 -206.182326 
L 153.898269 -205.700335 
L 154.989661 -204.290886 
L 156.235739 -206.079196 
L 156.479225 -206.149381 
L 157.075051 -205.947418 
L 157.372963 -206.079196 
L 157.461764 -206.515351 
L 156.79719 -209.578467 
L 155.863348 -212.003464 
L 155.367781 -212.840682 
L 155.130024 -213.05124 
L 154.958151 -213.134317 
L 154.852163 -213.282567 
L 154.820653 -214.305993 
L 154.895131 -214.572413 
L 155.319084 -215.163981 
L 155.313355 -215.408199 
L 155.218825 -215.624487 
L 155.178721 -215.868705 
L 155.164399 -215.884461 
L 155.147211 -215.957512 
L 155.147211 -216.082128 
L 155.178721 -216.247566 
L 155.261793 -216.367885 
L 155.384969 -216.405126 
L 155.496686 -216.409424 
L 155.556841 -216.436639 
L 155.616997 -216.829107 
L 155.542519 -217.085501 
L 155.425072 -217.328287 
L 155.367781 -217.68423 
L 155.430801 -218.000783 
L 155.763089 -218.620998 
L 155.94642 -219.231186 
L 156.390424 -219.501903 
L 156.951875 -219.404502 
L 157.467493 -218.9132 
L 158.581802 -219.746838 
L 158.810965 -220.049067 
L 158.662009 -220.296867 
L 158.504459 -220.42005 
L 159.928138 -223.445208 
L 161.188538 -226.119437 
L 162.079412 -228.01589 
L 163.339812 -230.688686 
L 164.520005 -233.191031 
L 164.902119 -234.002942 
L 165.542648 -235.363931 
L 166.333262 -237.046962 
L 166.462167 -237.714445 
L 166.21868 -238.212908 
L 165.817644 -238.662671 
L 165.479628 -239.185485 
L 165.402285 -240.410159 
L 166.473625 -242.46847 
L 166.656956 -243.463964 
L 166.444979 -244.082747 
L 166.15566 -244.649964 
L 165.93509 -245.237234 
L 165.955142 -245.921905 
L 166.275971 -246.556444 
L 167.229865 -247.882815 
L 167.387415 -248.477247 
L 167.404602 -249.157622 
L 168.097822 -250.901528 
L 168.344173 -253.219097 
L 168.788178 -254.455946 
L 169.641812 -255.489398 
L 170.776172 -256.235661 
L 172.076676 -256.61309 
L 172.71547 -256.654629 
L 173.274056 -256.61309 
L 175.557099 -256.043724 
L 176.141467 -256.076669 
L 176.68573 -256.352399 
L 176.740157 -256.58874 
L 176.662814 -256.881659 
L 176.700053 -257.108689 
L 177.106818 -257.148795 
L 177.367492 -257.082906 
L 177.874517 -256.89455 
L 178.129461 -256.846566 
L 178.897159 -256.937521 
L 179.169291 -256.914603 
L 179.472933 -256.742719 
L 179.676316 -256.508527 
L 179.89975 -256.37102 
L 180.269277 -256.495636 
L 180.484118 -256.537174 
L 180.856509 -256.488474 
L 181.025517 -256.499933 
L 181.257545 -256.601631 
L 181.569781 -256.871632 
L 181.761705 -256.999113 
L 182.222897 -257.216116 
L 182.472112 -257.276276 
L 183.219759 -257.229008 
L 183.600743 -257.289167 
L 184.345525 -257.579221 
L 184.72651 -257.683784 
L 185.837954 -257.649407 
L 186.236125 -257.708134 
L 186.700182 -257.917976 
L 186.949397 -258.173653 
L 187.175696 -258.467288 
L 187.559546 -258.78599 
L 187.960582 -258.932808 
L 188.315786 -258.895566 
L 189.031922 -258.655645 
L 190.037378 -258.727979 
L 190.630338 -259.280157 
L 191.183196 -259.973422 
L 192.257885 -260.526891 
L 192.618333 -260.712523 
L 193.039421 -261.021914 
L 193.489155 -261.216 
L 194.125084 -261.118599 
L 194.245395 -260.994699 
L 194.354248 -260.630162 
L 194.488881 -260.521302 
L 194.875595 -260.481196 
L 195.001635 -260.409578 
L 196.027142 -259.549441 
L 197.032598 -259.108273 
L 198.1555 -258.944267 
L 200.42422 -258.947131 
L 200.573176 -258.977211 
L 200.894006 -259.09753 
L 201.091659 -259.107556 
L 201.277855 -259.023047 
L 201.547122 -258.715804 
L 201.721859 -258.616971 
L 201.976804 -258.612674 
L 202.512474 -258.720101 
L 202.753096 -258.700048 
L 203.174184 -258.452965 
L 203.529388 -258.048321 
L 203.790061 -257.540547 
L 203.92183 -256.990518 
L 204.11089 -256.555795 
L 204.506198 -256.477015 
L 205.030409 -256.627414 
L 206.090291 -257.143066 
L 206.247841 -257.261236 
L 206.393933 -257.201793 
L 207.373608 -256.581578 
L 207.640011 -256.482745 
L 207.983756 -256.518554 
L 208.848849 -256.938953 
L 209.791284 -257.193198 
L 210.759501 -257.201793 
L 211.713395 -256.884523 
L 212.200367 -256.408261 
L 212.552706 -255.301758 
L 212.916504 -254.897115 
L 213.518058 -254.816186 
L 214.099561 -255.091917 
L 214.583669 -255.552422 
L 214.904498 -256.0294 
L 215.010487 -256.300118 
L 215.20814 -257.137336 
L 215.374284 -257.519062 
L 215.577667 -257.583518 
L 215.826882 -257.514765 
L 216.133388 -257.504738 
L 218.341953 -257.700972 
L 218.508097 -257.665163 
L 218.820332 -257.509035 
L 219.015121 -257.504738 
L 219.12111 -257.605004 
L 219.235691 -257.983865 
L 219.358867 -258.099886 
L 219.673967 -258.141425 
L 220.143752 -258.11421 
L 220.395832 -258.220921 
L 220.902857 -258.714372 
L 221.209363 -259.084638 
L 221.570296 -259.103259 
L 222.263516 -258.532461 
L 222.716114 -257.999621 
L 223.850474 -256.174069 
L 224.291615 -255.154941 
L 224.629631 -254.816186 
L 225.847063 -254.801862 
" style="stroke: #000000"/>
    </defs>
    <g clip-path="url(#p3cec099e85)">
     <use xlink:href="#mc39cb70bbc" x="0" y="280.512" style="fill: #f5f5f5; stroke: #000000"/>
    </g>
   </g>
  </g>
 </g>
 <defs>
  <clipPath id="p3cec099e85">
   <rect x="7.2" y="7.2" width="229.523975" height="266.112"/>
  </clipPath>
 </defs>
</svg>
