<?xml version="1.0" encoding="utf-8" standalone="no"?>
<!DOCTYPE svg PUBLIC "-//W3C//DTD SVG 1.1//EN"
  "http://www.w3.org/Graphics/SVG/1.1/DTD/svg11.dtd">
<svg xmlns:xlink="http://www.w3.org/1999/xlink" width="224.977291pt" height="280.512pt" viewBox="0 0 224.977291 280.512" xmlns="http://www.w3.org/2000/svg" version="1.1">
 <metadata>
  <rdf:RDF xmlns:dc="http://purl.org/dc/elements/1.1/" xmlns:cc="http://creativecommons.org/ns#" xmlns:rdf="http://www.w3.org/1999/02/22-rdf-syntax-ns#">
   <cc:Work>
    <dc:type rdf:resource="http://purl.org/dc/dcmitype/StillImage"/>
    <dc:date>2024-03-04T13:11:09.952253</dc:date>
    <dc:format>image/svg+xml</dc:format>
    <dc:creator>
     <cc:Agent>
      <dc:title>Matplotlib v3.8.0, https://matplotlib.org/</dc:title>
     </cc:Agent>
    </dc:creator>
   </cc:Work>
  </rdf:RDF>
 </metadata>
 <defs>
  <style type="text/css">*{stroke-linejoin: round; stroke-linecap: butt}</style>
 </defs>
 <g id="figure_1">
  <g id="patch_1">
   <path d="M 0 280.512 
L 224.977291 280.512 
L 224.977291 0 
L 0 0 
z
" style="fill: #ffffff"/>
  </g>
  <g id="axes_1">
   <g id="PatchCollection_1">
    <path d="M 160.559121 30.907729 
L 160.963972 30.849271 
L 161.17835 30.95699 
L 161.322545 30.934975 
L 161.547156 31.050555 
L 161.547156 31.133112 
L 161.43901 31.212918 
L 161.43901 31.358772 
L 161.619254 31.336756 
L 161.832773 31.135864 
L 161.868208 30.961932 
L 162.061389 31.001208 
L 162.750582 31.360743 
L 163.595399 32.339093 
L 164.669376 34.306165 
L 165.432106 36.399419 
L 165.334627 37.74249 
L 164.717261 36.981935 
L 163.6125 34.262952 
L 164.323925 37.654335 
L 164.252098 39.025063 
L 163.037888 40.062183 
L 163.680906 39.944643 
L 164.115286 39.647335 
L 164.524013 39.277429 
L 165.072973 38.929993 
L 164.881436 39.14606 
L 164.836972 39.40534 
L 164.908798 39.713019 
L 165.072973 40.062183 
L 165.233728 39.562637 
L 165.411584 38.587743 
L 165.647586 38.058812 
L 167.684381 43.674819 
L 170.239353 49.68666 
L 173.250938 54.720151 
L 181.269857 65.200252 
L 181.914586 65.692884 
L 184.59269 68.970184 
L 186.24641 70.603649 
L 187.246851 70.043604 
L 187.629926 70.287327 
L 188.738107 70.480923 
L 188.967268 70.805887 
L 188.998051 71.599285 
L 189.131443 72.261313 
L 189.439271 72.849015 
L 189.986521 73.415974 
L 191.942939 76.319911 
L 192.568856 76.765872 
L 194.990436 80.036259 
L 196.816882 81.761336 
L 197.89086 81.432914 
L 198.133702 82.100128 
L 198.364573 83.811377 
L 198.752779 84.596131 
L 199.400928 85.093949 
L 202.220974 86.075756 
L 203.223126 86.179468 
L 204.208175 86.144898 
L 205.13508 86.220953 
L 205.952534 86.653087 
L 207.00428 88.239881 
L 207.712284 88.672014 
L 207.753328 88.697942 
L 208.205596 90.291098 
L 207.878725 90.310855 
L 207.23693 89.970593 
L 206.597306 89.867417 
L 206.29867 90.326221 
L 206.122746 91.956186 
L 205.851259 92.499507 
L 205.293081 92.586219 
L 204.512284 92.451212 
L 203.777097 92.225102 
L 203.36335 92.029726 
L 202.917025 91.533602 
L 202.37948 90.509524 
L 201.949445 90.023279 
L 201.611715 90.17914 
L 201.206656 90.027669 
L 199.452848 88.54259 
L 197.018151 87.571198 
L 196.242784 87.659007 
L 195.461986 88.320871 
L 194.985255 88.995907 
L 194.907066 89.389952 
L 195.416376 90.293293 
L 195.707411 91.458964 
L 195.887678 91.703733 
L 196.162423 91.787152 
L 196.355722 91.905695 
L 196.288393 92.251445 
L 195.661801 92.610367 
L 193.420402 92.9177 
L 192.635261 93.195398 
L 192.282328 93.78921 
L 192.173733 94.60474 
L 192.219343 98.123707 
L 192.2845 103.21666 
L 192.374016 110.17422 
L 192.380063 110.644248 
L 193.637592 110.116293 
L 194.025276 110.114098 
L 194.317396 110.331426 
L 194.468343 110.653029 
L 194.586712 110.987802 
L 194.773495 111.249036 
L 195.020005 111.393921 
L 195.964781 111.816505 
L 197.894512 113.244507 
L 199.805782 113.89759 
L 200.375905 114.276269 
L 201.459682 116.109293 
L 201.626918 116.508826 
L 201.593634 116.563456 
L 201.017701 117.508757 
L 199.760172 118.274895 
L 195.425064 120.054136 
L 194.935301 120.406471 
L 194.525898 120.951988 
L 194.725713 121.145169 
L 195.059099 121.351521 
L 195.052584 121.929967 
L 194.660556 122.385479 
L 193.409543 123.166983 
L 193.069641 123.533588 
L 193.019687 124.16911 
L 193.227104 124.769507 
L 193.60067 125.328195 
L 194.920098 126.808883 
L 195.622707 127.801131 
L 196.145048 128.89875 
L 196.478434 130.18955 
L 196.726031 133.150926 
L 196.602233 134.643688 
L 196.208033 135.894974 
L 195.278461 137.044181 
L 194.181653 137.586405 
L 192.993625 137.951912 
L 191.786049 138.574262 
L 189.925819 140.355698 
L 188.012377 141.435755 
L 187.642069 141.7376 
L 187.594287 142.269945 
L 187.979799 142.683748 
L 189.156967 143.378541 
L 189.379587 143.617821 
L 189.785732 144.218219 
L 190.020297 144.405912 
L 190.286354 144.421279 
L 190.793492 144.218219 
L 191.176832 144.272002 
L 191.91202 144.66056 
L 192.199796 145.096314 
L 192.392009 146.44419 
L 194.606259 151.314326 
L 194.397756 153.211012 
L 194.134679 154.179458 
L 193.562456 153.728846 
L 193.627442 153.080646 
L 193.945531 152.365033 
L 194.135358 151.713375 
L 194.019068 151.193087 
L 191.156267 146.258122 
L 190.143855 145.18816 
L 184.92104 141.376742 
L 183.49135 139.967987 
L 184.726082 138.453792 
L 184.953533 138.332794 
L 185.189534 137.897204 
L 185.646146 137.331973 
L 185.936872 136.680316 
L 185.670088 135.999273 
L 184.296833 134.279382 
L 184.065962 133.797121 
L 184.04373 133.169663 
L 184.343007 132.950139 
L 184.866315 132.794571 
L 185.526435 132.374538 
L 185.03049 132.215513 
L 183.804308 132.281197 
L 183.204043 132.058216 
L 182.891085 131.707324 
L 182.054819 130.053117 
L 182.193341 129.833593 
L 182.260038 129.684939 
L 182.342125 129.446401 
L 182.629431 129.446401 
L 183.034738 130.136086 
L 183.157869 130.47315 
L 183.204043 131.041838 
L 183.38874 131.136907 
L 184.638864 130.633904 
L 184.638864 130.317582 
L 184.064252 130.073859 
L 183.455436 129.620983 
L 182.937259 129.078223 
L 182.629431 128.57522 
L 182.342125 128.57522 
L 182.024036 129.097237 
L 181.259596 129.128351 
L 180.385707 129.026367 
L 179.734138 129.156007 
L 179.42631 128.585591 
L 178.933785 127.987519 
L 178.350622 127.683297 
L 177.753777 127.99789 
L 176.421566 127.211407 
L 176.031651 126.573578 
L 176.291594 125.676469 
L 176.004288 125.655726 
L 175.718692 125.676469 
L 175.891418 124.981598 
L 175.296284 124.647991 
L 174.410423 124.463038 
L 173.707549 124.227957 
L 173.461287 124.725775 
L 173.238966 124.689476 
L 172.961921 124.487237 
L 172.536092 124.488966 
L 172.336004 124.717132 
L 172.2847 125.016169 
L 172.110264 125.275449 
L 171.542492 125.386075 
L 170.152135 125.176922 
L 169.586074 125.384346 
L 169.377435 126.2296 
L 169.695524 125.985876 
L 169.690393 125.966862 
L 169.952047 125.966862 
L 171.427912 128.194943 
L 171.622869 128.870799 
L 172.484788 130.232884 
L 172.819978 130.633904 
L 173.374069 130.919112 
L 174.943992 131.396187 
L 175.575039 131.477429 
L 176.153072 131.824864 
L 176.703742 132.500721 
L 177.2356 132.955325 
L 177.753777 132.639003 
L 177.776009 133.686495 
L 177.692212 134.1169 
L 177.437399 134.403836 
L 177.437399 134.69423 
L 178.071866 135.565411 
L 178.32839 137.05195 
L 178.21723 138.59726 
L 177.753777 139.651666 
L 176.809771 139.686236 
L 175.272342 139.190147 
L 173.82384 138.488362 
L 173.136357 137.91276 
L 173.394591 137.91276 
L 173.582708 138.063143 
L 173.736622 138.132284 
L 174.307814 138.199697 
L 173.4972 137.834976 
L 173.16885 137.61891 
L 172.819978 137.306045 
L 172.819978 137.91276 
L 170.396688 136.849712 
L 169.534769 136.725258 
L 166.960985 137.038122 
L 166.24785 137.041579 
L 165.640745 136.752914 
L 165.081524 136.175584 
L 164.057141 134.839427 
L 160.402538 131.427301 
L 160.168247 131.041838 
L 159.98697 130.995168 
L 159.126762 130.642547 
L 158.865108 130.476607 
L 158.735136 129.156007 
L 160.014333 127.178565 
L 160.3119 126.836315 
L 160.97202 126.442209 
L 161.423501 126.267627 
L 161.63043 126.390353 
L 161.763822 126.644448 
L 162.054548 126.350597 
L 163.077222 124.782817 
L 163.352557 124.488966 
L 162.825829 123.814838 
L 163.460296 123.056011 
L 164.614651 122.433739 
L 165.647586 122.169273 
L 165.647586 121.906536 
L 164.737783 121.797639 
L 164.281171 121.839123 
L 163.968213 122.091489 
L 163.482528 122.616964 
L 162.990004 122.848587 
L 162.825829 122.440653 
L 163.025917 121.719854 
L 163.61421 121.009427 
L 164.655695 120.501238 
L 165.134539 120.16936 
L 165.334627 119.690556 
L 165.072973 119.260151 
L 164.527434 118.961114 
L 164.031488 118.560094 
L 163.927169 117.818553 
L 164.739493 118.23513 
L 165.132829 118.357856 
L 165.647586 118.373413 
L 165.396193 118.062277 
L 165.078104 117.825468 
L 164.472709 117.502232 
L 164.216185 117.289622 
L 164.070822 117.092569 
L 163.846792 116.957743 
L 163.352557 116.923173 
L 163.862183 116.615494 
L 163.790356 116.392513 
L 163.49792 116.223117 
L 163.352557 116.07792 
L 163.542384 115.611216 
L 163.757864 115.26378 
L 164.05201 114.956101 
L 164.472709 114.60348 
L 163.359397 111.673615 
L 163.154179 111.30198 
L 162.464986 110.543154 
L 162.17768 110.830091 
L 161.233674 109.601103 
L 160.373465 108.168148 
L 159.268705 107.044601 
L 157.587622 106.743836 
L 157.685101 105.647946 
L 156.759907 104.711081 
L 155.489261 104.06288 
L 154.548675 103.817429 
L 151.246365 100.654211 
L 148.00904 99.14693 
L 147.490863 98.742453 
L 143.448055 97.148745 
L 143.186401 97.148745 
L 142.914486 97.347526 
L 142.678485 97.345797 
L 142.481817 97.164301 
L 142.324483 96.832423 
L 141.74816 97.081332 
L 141.404419 96.806495 
L 141.014503 96.407204 
L 140.292818 96.277564 
L 140.744299 95.494538 
L 140.144034 94.390004 
L 139.046114 93.422025 
L 137.994369 93.06249 
L 137.994369 93.349427 
L 138.363762 93.422025 
L 138.613445 93.525737 
L 139.169245 93.930214 
L 138.076456 93.738347 
L 136.342358 92.716784 
L 135.242728 92.481703 
L 134.177301 92.398733 
L 128.55773 90.829225 
L 127.482042 90.741069 
L 126.979256 90.829225 
L 126.440557 91.000349 
L 125.881336 91.114433 
L 125.316985 91.029735 
L 124.82446 90.614886 
L 124.658575 90.113611 
L 124.460197 89.709135 
L 123.883874 89.579495 
L 123.991614 89.750619 
L 124.05318 89.878531 
L 124.142108 90.18621 
L 123.447785 89.626165 
L 121.889833 88.61843 
L 121.587135 87.985786 
L 121.438352 87.401542 
L 121.068958 87.119791 
L 120.602086 86.934838 
L 120.150604 86.653087 
L 120.006951 86.222682 
L 120.066807 85.778448 
L 119.950516 85.491512 
L 119.292106 85.519168 
L 119.457991 85.036907 
L 119.411817 84.57366 
L 119.304077 84.13807 
L 119.292106 83.754335 
L 119.540079 83.27726 
L 120.263475 82.556461 
L 120.549071 81.837391 
L 120.843217 81.479584 
L 121.139074 81.016337 
L 121.274177 80.404436 
L 121.133944 79.896247 
L 120.805594 79.455471 
L 120.150604 78.7969 
L 118.45071 76.266326 
L 117.975286 75.894691 
L 117.292934 75.602569 
L 117.383573 74.959554 
L 117.975286 73.984661 
L 116.942352 73.134223 
L 116.752525 72.721103 
L 116.969715 72.098831 
L 115.764055 71.728925 
L 112.039336 72.098831 
L 112.039336 71.782509 
L 112.555803 71.580271 
L 113.217633 71.507672 
L 114.674686 71.518043 
L 114.674686 71.22765 
L 113.335634 71.163694 
L 112.140235 70.951084 
L 111.059417 70.582907 
L 110.057266 70.043604 
L 108.79004 68.990927 
L 108.596793 68.76276 
L 108.324878 68.700533 
L 107.79131 68.33927 
L 107.415075 67.93825 
L 107.616874 67.748111 
L 106.914 67.38339 
L 105.190163 65.767211 
L 104.271809 65.310878 
L 103.83914 64.911587 
L 103.574066 64.821703 
L 103.363717 64.916772 
L 103.18244 65.075797 
L 102.943018 65.112097 
L 102.571914 64.821703 
L 102.819887 64.370556 
L 102.901974 64.08189 
L 102.712147 63.950522 
L 102.547972 63.872738 
L 101.997302 63.371463 
L 101.239703 63.618643 
L 98.395714 63.661857 
L 97.643246 63.468261 
L 96.971155 62.9981 
L 95.917699 61.897024 
L 95.917699 61.632558 
L 96.158831 60.856446 
L 95.425174 59.962794 
L 93.62096 58.704421 
L 93.877483 59.563503 
L 95.091694 60.450241 
L 95.370449 61.487361 
L 95.481609 63.45789 
L 95.734712 64.614279 
L 96.230657 65.40249 
L 95.683407 65.755111 
L 95.760364 66.342813 
L 96.25631 66.897672 
L 97.540636 67.34882 
L 97.997248 67.844909 
L 98.551338 68.907957 
L 98.812992 68.907957 
L 99.151603 68.767946 
L 99.298676 68.882029 
L 99.361952 69.172423 
L 98.995979 69.200079 
L 98.618035 69.15168 
L 98.258902 69.044511 
L 97.951074 68.907957 
L 97.951074 69.172423 
L 98.739456 69.870751 
L 99.700563 70.722918 
L 102.250405 71.760038 
L 102.571914 71.941534 
L 102.871192 71.823994 
L 103.541573 72.098831 
L 105.16451 73.032239 
L 105.913559 73.274234 
L 106.717332 73.294976 
L 107.473221 72.968283 
L 107.969166 73.364118 
L 109.027752 74.031332 
L 109.510016 74.44618 
L 109.510016 74.710646 
L 108.67204 74.912884 
L 108.709663 75.524785 
L 109.217579 76.236941 
L 109.76996 76.765872 
L 109.427928 76.883413 
L 109.104709 77.111579 
L 108.596793 77.635325 
L 109.217579 77.915348 
L 109.951236 77.998317 
L 111.464724 77.951647 
L 111.464724 78.216112 
L 110.87301 78.615404 
L 110.120542 78.931726 
L 109.472393 79.367316 
L 109.195347 80.114043 
L 109.038013 80.286896 
L 108.047833 80.852127 
L 107.861426 81.163263 
L 107.645946 81.946289 
L 107.473221 82.276439 
L 106.154691 81.623053 
L 105.455237 81.566011 
L 105.152539 82.131242 
L 105.338946 82.478677 
L 105.985385 83.299731 
L 105.882776 83.463941 
L 104.521492 84.129427 
L 104.292331 84.186469 
L 104.138417 84.404264 
L 103.143106 84.912453 
L 102.937888 85.249517 
L 102.019534 88.172468 
L 101.634749 88.915737 
L 101.131963 89.579495 
L 100.822425 89.579495 
L 99.647548 87.150904 
L 96.145149 82.402622 
L 95.917699 81.852948 
L 95.744973 81.654166 
L 95.355058 81.410443 
L 94.301602 80.974853 
L 94.214384 80.637788 
L 94.229775 80.250597 
L 94.195572 79.955018 
L 93.195131 78.850484 
L 91.803064 78.060544 
L 87.283123 76.449551 
L 86.879526 76.535977 
L 86.277551 76.956011 
L 86.005637 77.056266 
L 85.60033 76.961197 
L 85.030848 76.546349 
L 84.569106 76.449551 
L 84.298901 76.42708 
L 84.204843 76.359667 
L 84.150118 76.231755 
L 83.996204 76.039888 
L 83.702057 75.903334 
L 83.457505 75.96729 
L 83.29675 76.102115 
L 83.265967 76.185085 
L 80.890561 75.421073 
L 79.753308 75.244763 
L 79.484813 75.078823 
L 79.271044 74.876585 
L 78.935853 74.710646 
L 78.46385 74.731388 
L 78.152602 74.919798 
L 77.875557 74.938812 
L 77.501033 74.44618 
L 77.80202 73.654511 
L 77.357379 72.584549 
L 73.052918 67.300421 
L 72.796394 66.833717 
L 72.457784 65.689427 
L 71.939606 64.889116 
L 70.301277 60.880646 
L 70.152494 59.677586 
L 69.972927 58.946416 
L 69.726665 58.414028 
L 70.306408 57.847069 
L 70.54754 57.439135 
L 70.456901 57.095156 
L 69.56249 55.954324 
L 68.999849 55.612074 
L 69.311097 55.193769 
L 70.039623 54.616439 
L 70.532148 53.89564 
L 70.87589 53.192127 
L 71.594155 53.477335 
L 71.98407 53.026187 
L 72.288478 52.367616 
L 73.181179 51.693488 
L 72.835728 50.931204 
L 72.20126 50.136079 
L 71.76346 49.68666 
L 72.026824 49.505164 
L 72.139695 49.442937 
L 72.334652 49.396266 
L 72.334652 49.105872 
L 71.76346 49.105872 
L 71.76346 48.815479 
L 72.242304 48.725595 
L 72.550132 48.430016 
L 72.909265 47.627976 
L 73.196571 47.627976 
L 73.781444 48.103323 
L 74.605739 47.762802 
L 75.447136 47.290912 
L 76.090154 47.366967 
L 76.351808 47.366967 
L 76.295373 46.808651 
L 76.439026 46.539 
L 76.678448 46.392074 
L 76.900768 46.205393 
L 77.285553 45.541635 
L 77.437757 45.577935 
L 77.957644 45.626334 
L 79.223159 44.307462 
L 79.127391 43.954841 
L 78.90507 43.68519 
L 78.361241 43.306641 
L 76.639114 45.045546 
L 76.59807 44.905535 
L 76.603201 44.781081 
L 76.557027 44.711939 
L 76.351808 44.729225 
L 76.351808 44.464759 
L 76.839202 43.934099 
L 77.136769 43.711118 
L 77.501033 43.597035 
L 77.213726 43.306641 
L 77.176103 43.344669 
L 77.119668 43.42591 
L 77.03245 43.515794 
L 76.900768 43.597035 
L 77.006798 43.244414 
L 77.027319 43.121688 
L 77.501033 42.990319 
L 77.501033 42.725854 
L 77.213726 42.725854 
L 77.213726 42.409532 
L 77.91489 41.851216 
L 78.053413 40.40789 
L 77.813991 37.609393 
L 77.182944 36.866124 
L 75.792587 36.249037 
L 74.40052 36.022599 
L 73.769473 36.451276 
L 73.51808 36.451276 
L 72.358594 35.493668 
L 72.021694 35.130676 
L 72.221782 35.19636 
L 72.471465 35.082277 
L 72.575784 34.845468 
L 72.334652 34.549888 
L 72.026824 34.480747 
L 71.2145 34.560259 
L 70.87589 34.549888 
L 69.639447 34.086641 
L 68.666368 33.517953 
L 67.578709 33.03915 
L 65.996815 32.83864 
L 65.996815 32.522318 
L 66.947662 32.28378 
L 68.726224 31.478283 
L 69.726665 31.360743 
L 69.56762 31.099734 
L 69.441069 30.938981 
L 69.246111 30.842183 
L 68.866457 30.779956 
L 68.866457 30.493019 
L 70.944296 30.368565 
L 71.472734 30.493019 
L 71.693344 30.819712 
L 71.640329 31.199989 
L 71.53772 31.516311 
L 71.619807 31.651137 
L 71.794243 31.732378 
L 72.334652 32.230196 
L 72.596306 32.230196 
L 72.909265 31.915602 
L 72.909265 31.651137 
L 72.430421 31.177519 
L 72.888743 30.871568 
L 73.784864 30.738471 
L 74.631391 30.779956 
L 74.918697 30.914781 
L 75.294932 31.286416 
L 75.636963 31.360743 
L 75.910588 31.260488 
L 76.026878 31.016765 
L 75.980704 30.7281 
L 75.777196 30.493019 
L 75.777196 30.176697 
L 76.401402 29.945074 
L 76.577548 29.47837 
L 76.432185 28.926967 
L 76.090154 28.434335 
L 75.785746 28.213083 
L 75.077742 27.920961 
L 74.775044 27.710079 
L 74.421042 27.336716 
L 74.421042 27.236461 
L 74.633101 27.191519 
L 74.918697 26.984095 
L 75.561716 26.391208 
L 75.93453 26.595175 
L 76.37062 26.997923 
L 77.213726 26.984095 
L 77.719932 26.520848 
L 77.607062 25.903761 
L 77.152161 25.309146 
L 76.639114 24.928868 
L 76.281496 24.778393 
L 77.296635 23.132179 
L 78.064401 21.46709 
L 79.248085 19.878836 
L 80.650045 19.296 
L 81.853276 19.913959 
L 83.039132 20.97865 
L 84.397654 21.7393 
L 88.651316 23.309993 
L 94.327571 25.402055 
L 95.835697 25.958651 
L 101.872743 28.186714 
L 108.657752 30.6827 
L 109.624246 30.790267 
L 110.609202 30.436833 
L 114.946481 27.581926 
L 118.056639 25.535964 
L 119.372809 25.223143 
L 120.11777 25.549136 
L 121.717372 26.69505 
L 122.450388 26.800421 
L 123.356069 26.749931 
L 124.325821 27.058362 
L 126.421703 27.979264 
L 126.648666 28.042926 
L 126.865856 28.129638 
L 127.070014 28.2394 
L 127.245938 28.368919 
L 128.201573 29.554348 
L 128.561022 29.856193 
L 128.937846 30.069131 
L 129.386343 30.24475 
L 129.846785 30.29085 
L 130.245329 30.124012 
L 132.506274 28.655398 
L 132.863551 28.44246 
L 133.262094 28.643324 
L 133.35983 28.962731 
L 133.351142 29.3919 
L 133.438018 29.917659 
L 133.62263 30.224993 
L 134.181893 30.925274 
L 134.299176 31.223826 
L 134.743329 31.637629 
L 136.695865 32.385107 
L 137.14219 32.686952 
L 137.517928 33.10295 
L 138.319358 33.511264 
L 139.045858 34.120443 
L 139.202235 35.139033 
L 138.61908 35.443074 
L 138.445328 35.561617 
L 138.258545 35.889805 
L 138.336733 36.129086 
L 138.508313 36.310193 
L 138.603877 36.457274 
L 139.529105 37.198167 
L 139.750639 37.48684 
L 140.220855 37.145481 
L 140.875682 37.158652 
L 141.174187 37.202036 
L 141.540283 37.255243 
L 142.045249 37.170726 
L 142.826046 37.932474 
L 143.309293 38.115776 
L 143.79254 37.750269 
L 144.081403 37.750269 
L 144.590713 38.24749 
L 145.633224 37.57904 
L 146.351036 37.750269 
L 146.849486 37.253048 
L 147.415266 37.158652 
L 147.878966 37.472571 
L 148.071179 38.197 
L 150.605783 40.191374 
L 150.889216 40.325283 
L 151.280158 40.385652 
L 151.691732 40.305526 
L 152.277059 39.899407 
L 152.558319 39.805012 
L 153.707253 40.033317 
L 153.86363 39.938921 
L 154.723701 38.935698 
L 157.513504 37.879788 
L 157.729813 37.82826 
L 160.49009 37.170726 
L 161.965894 36.412271 
L 162.087521 35.258674 
L 161.702009 33.747252 
L 161.678989 32.814101 
L 161.259654 32.589256 
L 161.384973 32.024768 
L 161.303033 31.776019 
L 161.211553 31.735025 
L 160.884649 30.993002 
L 160.559121 30.907729 
" clip-path="url(#pbdfe58e0ec)" style="fill: #f5f5f5; stroke: #000000"/>
    <path d="M 100.254654 66.501838 
L 100.665091 66.600364 
L 100.897672 66.799146 
L 101.239703 66.890758 
L 101.684344 66.878658 
L 101.684344 67.141396 
L 101.173007 67.326349 
L 100.528278 67.481917 
L 99.813433 67.544144 
L 99.100298 67.459446 
L 98.371772 67.158681 
L 97.986987 66.768032 
L 97.405534 65.692884 
L 98.197336 65.42669 
L 98.551338 65.40249 
L 99.892101 65.630657 
L 101.131963 66.009206 
L 101.131963 66.299599 
L 99.674911 66.299599 
L 100.073377 66.512209 
L 100.254654 66.501838 
" clip-path="url(#pbdfe58e0ec)" style="fill: #f5f5f5; stroke: #000000"/>
    <path d="M 17.554946 261.176244 
L 16.771695 261.216 
L 17.320655 260.267035 
L 17.828571 259.872929 
L 18.416865 259.516851 
L 19.001738 259.399311 
L 19.001738 259.834901 
L 18.962404 260.386304 
L 18.416865 260.979191 
L 17.554946 261.176244 
" clip-path="url(#pbdfe58e0ec)" style="fill: #f5f5f5; stroke: #000000"/>
    <path d="M 152.148412 125.643477 
L 152.701253 125.367319 
L 153.304353 125.342055 
L 153.254289 125.843799 
L 152.927676 125.969331 
L 152.399862 125.869188 
L 152.148412 125.643477 
" clip-path="url(#pbdfe58e0ec)" style="fill: #f5f5f5; stroke: #000000"/>
   </g>
  </g>
 </g>
 <defs>
  <clipPath id="pbdfe58e0ec">
   <rect x="7.2" y="7.2" width="210.577291" height="266.112"/>
  </clipPath>
 </defs>
</svg>
