<?xml version="1.0" encoding="utf-8" standalone="no"?>
<!DOCTYPE svg PUBLIC "-//W3C//DTD SVG 1.1//EN"
  "http://www.w3.org/Graphics/SVG/1.1/DTD/svg11.dtd">
<svg xmlns:xlink="http://www.w3.org/1999/xlink" width="267.052605pt" height="280.512pt" viewBox="0 0 267.052605 280.512" xmlns="http://www.w3.org/2000/svg" version="1.1">
 <metadata>
  <rdf:RDF xmlns:dc="http://purl.org/dc/elements/1.1/" xmlns:cc="http://creativecommons.org/ns#" xmlns:rdf="http://www.w3.org/1999/02/22-rdf-syntax-ns#">
   <cc:Work>
    <dc:type rdf:resource="http://purl.org/dc/dcmitype/StillImage"/>
    <dc:date>2024-03-04T13:11:10.092145</dc:date>
    <dc:format>image/svg+xml</dc:format>
    <dc:creator>
     <cc:Agent>
      <dc:title>Matplotlib v3.8.0, https://matplotlib.org/</dc:title>
     </cc:Agent>
    </dc:creator>
   </cc:Work>
  </rdf:RDF>
 </metadata>
 <defs>
  <style type="text/css">*{stroke-linejoin: round; stroke-linecap: butt}</style>
 </defs>
 <g id="figure_1">
  <g id="patch_1">
   <path d="M 0 280.512 
L 267.052605 280.512 
L 267.052605 0 
L 0 0 
z
" style="fill: #ffffff"/>
  </g>
  <g id="axes_1">
   <g id="PatchCollection_1">
    <path d="M 42.322173 40.692413 
L 43.027059 40.954885 
L 43.817386 40.941174 
L 44.599946 40.731588 
L 45.279588 40.411332 
L 45.982533 39.826645 
L 46.335947 39.59943 
L 47.299097 39.463296 
L 47.667075 39.330101 
L 47.996216 39.110721 
L 48.359339 38.810053 
L 49.258409 37.666143 
L 49.402105 37.377227 
L 49.53415 36.966869 
L 49.778821 36.758262 
L 50.056504 36.581974 
L 50.266222 36.282285 
L 50.33807 35.736773 
L 50.786634 34.971881 
L 50.291466 34.329411 
L 51.048782 34.170752 
L 51.878916 33.676168 
L 52.305149 33.050347 
L 51.852701 32.494062 
L 52.20029 32.319733 
L 52.36923 32.259012 
L 52.36923 31.999477 
L 52.881874 31.577366 
L 53.213928 31.499016 
L 53.66055 31.553861 
L 53.994546 31.44613 
L 54.184846 31.049483 
L 54.332425 30.580362 
L 54.544085 30.263045 
L 55.322761 30.136705 
L 56.672337 30.961339 
L 57.550047 31.044586 
L 57.928705 31.006391 
L 58.603493 31.016184 
L 58.940401 30.893762 
L 59.233618 30.623455 
L 60.126862 29.479545 
L 60.666693 29.448205 
L 61.103606 29.544183 
L 61.464787 29.764543 
L 61.789074 30.1132 
L 61.992966 30.55294 
L 62.024036 30.988762 
L 61.992966 31.387368 
L 62.020152 31.723293 
L 62.169673 32.101332 
L 62.80077 33.156119 
L 62.8532 33.567457 
L 62.759991 33.930805 
L 62.810479 34.164876 
L 63.299822 34.182505 
L 63.645468 34.093382 
L 64.666874 33.709467 
L 65.51934 33.764312 
L 65.744593 34.345081 
L 65.505747 35.893473 
L 65.538758 36.806251 
L 65.855277 37.273413 
L 66.472781 37.43599 
L 68.837937 37.486917 
L 71.816712 37.944285 
L 75.513967 38.976547 
L 76.148947 39.343813 
L 76.762567 40.065612 
L 77.321816 40.920607 
L 77.987865 41.523902 
L 78.918005 41.492562 
L 79.795714 41.181121 
L 80.576332 40.600351 
L 81.036547 39.801181 
L 80.953048 38.833558 
L 80.593809 38.415365 
L 80.100582 38.100006 
L 79.702506 37.758204 
L 79.619007 37.251867 
L 80.520019 34.23735 
L 80.966641 33.760394 
L 81.813281 33.629158 
L 83.943475 33.897507 
L 84.667779 33.799569 
L 86.87953 32.775142 
L 87.698985 32.692875 
L 88.520381 32.955348 
L 89.935979 33.791734 
L 90.770968 33.881837 
L 91.633143 33.602715 
L 91.951604 33.148284 
L 91.975893 32.96568 
L 92.138021 31.746798 
L 92.301135 31.467676 
L 92.547748 31.175823 
L 92.73999 30.841856 
L 92.745815 30.431497 
L 92.512795 30.153355 
L 92.112777 29.981964 
L 91.699166 29.856604 
L 91.419542 29.711656 
L 90.94185 28.972228 
L 90.875828 28.323882 
L 91.242834 27.104559 
L 91.429251 25.379879 
L 91.324392 25.075294 
L 91.188463 24.812821 
L 91.118557 24.490607 
L 91.198172 23.792312 
L 91.376821 23.083244 
L 91.462262 23.051904 
L 91.990441 22.160673 
L 91.941895 22.037272 
L 92.771059 21.765005 
L 93.264285 22.080364 
L 94.029368 23.389789 
L 94.594443 23.903961 
L 95.365351 24.425968 
L 96.88775 25.238849 
L 97.495545 25.446477 
L 99.540298 25.850959 
L 100.328683 25.899928 
L 101.249113 25.735393 
L 101.952057 25.260396 
L 102.086044 24.37504 
L 101.80642 24.019527 
L 101.340379 23.798188 
L 100.903466 23.522984 
L 100.709283 23.001956 
L 100.779189 21.515264 
L 101.041336 20.826764 
L 101.687968 20.512384 
L 102.50548 20.469292 
L 103.276389 20.592693 
L 104.247307 20.624033 
L 104.979379 20.281252 
L 105.680381 19.800378 
L 106.565858 19.417443 
L 107.468812 19.296 
L 107.849412 19.513421 
L 107.901841 20.039346 
L 107.713483 21.603408 
L 107.820284 21.906035 
L 108.529054 22.162632 
L 108.93684 22.381032 
L 109.278603 22.66701 
L 109.404822 22.967678 
L 109.204813 23.417211 
L 108.828097 23.640509 
L 108.418369 23.82757 
L 108.119327 24.166433 
L 108.336812 24.692358 
L 108.443613 25.149726 
L 108.393126 25.597301 
L 108.146513 25.91168 
L 107.459103 26.468945 
L 107.282396 26.775489 
L 107.268803 27.346465 
L 107.46687 27.440485 
L 107.781447 27.356259 
L 108.119327 27.397393 
L 108.31351 27.593268 
L 108.513519 27.858678 
L 108.729063 28.083935 
L 108.983444 28.160326 
L 109.414531 28.093728 
L 109.717457 28.081976 
L 109.936885 28.21615 
L 110.105824 28.588313 
L 110.041744 28.81259 
L 109.639784 29.495215 
L 109.558227 29.822326 
L 109.68833 30.186653 
L 110.30195 30.904536 
L 109.734934 32.079786 
L 109.618424 32.777101 
L 110.175731 33.230552 
L 109.259184 34.249102 
L 109.278603 34.380339 
L 109.369869 34.603636 
L 109.422298 34.853377 
L 109.340741 35.051211 
L 109.031989 35.165798 
L 108.777609 35.068839 
L 108.59896 34.912139 
L 108.507694 34.851418 
L 108.043595 35.363631 
L 107.944562 35.877803 
L 108.068839 37.283207 
L 108.639739 37.165682 
L 109.045582 37.437948 
L 109.785422 38.335056 
L 110.290299 38.651394 
L 113.129262 39.658192 
L 116.488638 39.635667 
L 117.195466 38.941289 
L 117.642088 38.217531 
L 117.902294 37.408567 
L 118.036281 36.460532 
L 118.477077 36.115792 
L 120.228613 36.725942 
L 120.667468 36.397852 
L 120.508237 34.321576 
L 120.663584 33.631116 
L 121.096613 32.996481 
L 121.669455 32.578288 
L 124.366664 31.160153 
L 129.203777 30.09753 
L 131.299017 29.891862 
L 132.341783 29.626451 
L 132.704906 29.614698 
L 133.180656 29.780213 
L 134.007878 30.319849 
L 135.027341 30.704743 
L 135.683682 31.080823 
L 136.345848 31.938756 
L 136.804121 32.894626 
L 136.846841 33.553746 
L 137.380846 33.749621 
L 137.641052 33.795652 
L 137.98864 33.811322 
L 138.211951 33.944517 
L 138.375066 34.25302 
L 138.503227 34.591884 
L 138.619737 34.822037 
L 139.023639 35.175591 
L 139.538225 35.440023 
L 140.169322 35.594764 
L 140.928579 35.624145 
L 141.105286 35.508579 
L 141.24704 35.295075 
L 141.386852 35.148169 
L 141.581036 35.234354 
L 141.746092 35.344044 
L 141.944159 35.377343 
L 142.373305 35.363631 
L 142.808276 35.261776 
L 143.04518 35.025747 
L 143.23548 34.763274 
L 143.517046 34.587966 
L 144.150084 34.611471 
L 145.888027 34.867088 
L 146.488054 34.705491 
L 148.33474 35.78966 
L 148.670677 35.752443 
L 148.950302 35.248065 
L 149.565864 35.298993 
L 150.159361 35.689346 
L 150.185309 35.706413 
L 150.462992 36.270533 
L 150.462992 38.352685 
L 150.364929 38.558354 
L 150.222204 38.778713 
L 150.264924 38.947166 
L 150.722227 38.988299 
L 150.987287 38.900156 
L 151.210598 38.708198 
L 151.382451 38.462375 
L 151.492164 38.211655 
L 151.597994 38.990258 
L 151.276621 39.675821 
L 151.25526 40.088138 
L 152.261131 40.046025 
L 152.006751 40.729629 
L 152.232004 41.116482 
L 153.181561 41.740344 
L 153.251467 42.038074 
L 152.370845 42.34266 
L 152.030053 42.657039 
L 152.345601 42.660957 
L 152.592214 42.737348 
L 152.808729 42.839203 
L 153.0534 42.915594 
L 152.541726 43.151624 
L 152.847566 43.59724 
L 153.26506 43.657961 
L 153.704886 43.468942 
L 154.078689 43.151624 
L 154.268989 43.836207 
L 154.67192 44.199556 
L 155.166117 44.434606 
L 155.621478 44.727439 
L 156.041885 45.304291 
L 156.302091 45.998668 
L 156.159366 46.510881 
L 155.363214 46.539283 
L 155.531182 46.923198 
L 155.952561 47.472628 
L 156.362288 48.359942 
L 156.432194 48.599889 
L 155.892364 50.154157 
L 155.938968 50.584103 
L 157.043872 51.60853 
L 157.36913 51.724096 
L 157.581761 51.477293 
L 157.779828 51.135492 
L 158.069161 50.962142 
L 158.496365 51.04343 
L 158.666276 51.221677 
L 158.795408 51.399923 
L 159.108043 51.479252 
L 159.987695 51.543891 
L 160.734331 51.7809 
L 161.267364 52.253938 
L 161.519803 53.031562 
L 162.237311 52.801409 
L 162.54315 53.370426 
L 162.727625 54.230318 
L 163.084922 54.867891 
L 162.483924 55.082374 
L 162.164492 55.129384 
L 161.799427 55.10392 
L 161.799427 55.38598 
L 162.133423 55.68469 
L 162.205271 55.833555 
L 162.313043 56.138141 
L 162.811124 55.991234 
L 163.308233 56.787466 
L 163.879133 56.679735 
L 163.665531 56.485819 
L 163.602422 56.310511 
L 163.735437 56.183192 
L 164.109241 56.138141 
L 164.496637 56.189068 
L 164.684995 56.322263 
L 164.809272 56.526953 
L 165.020932 56.79726 
L 165.455904 57.186072 
L 165.595716 57.433854 
L 165.650087 57.833439 
L 165.731644 58.124314 
L 165.933595 58.282973 
L 166.440414 58.491579 
L 166.630714 58.707042 
L 166.621005 58.853948 
L 166.64819 58.88333 
L 166.955 58.750135 
L 167.258898 58.550342 
L 167.505511 58.294725 
L 167.638527 58.069469 
L 167.597748 57.97349 
L 168.1502 57.975449 
L 168.61527 57.911789 
L 169.058008 57.678698 
L 169.543467 57.17432 
L 169.968729 57.527874 
L 170.50953 58.335859 
L 170.945472 58.491579 
L 171.491128 58.337818 
L 171.632882 57.946067 
L 171.650359 57.435813 
L 171.834833 56.914785 
L 171.953285 56.658189 
L 171.983383 56.509324 
L 172.101835 56.43685 
L 172.784391 56.43685 
L 173.078579 56.495613 
L 173.303832 56.611179 
L 173.392185 56.79726 
L 173.308686 57.449524 
L 172.939737 58.430858 
L 172.854297 59.125235 
L 173.388302 59.908736 
L 174.609716 60.032137 
L 175.956379 59.967498 
L 176.868071 60.184919 
L 177.204008 60.738266 
L 177.526353 61.983052 
L 177.778792 62.39537 
L 178.293378 62.640213 
L 178.419597 62.298411 
L 178.41183 61.676508 
L 178.524456 61.07811 
L 179.101182 61.23481 
L 180.120645 61.656921 
L 180.123312 61.653778 
L 180.3692 61.364087 
L 180.85563 60.413114 
L 180.949809 59.936158 
L 180.838153 59.041009 
L 180.843979 58.707042 
L 181.050784 58.361323 
L 182.1887 57.170402 
L 181.749845 57.023496 
L 181.582847 56.990197 
L 182.08287 56.538705 
L 182.730472 56.306593 
L 184.14607 56.124429 
L 184.839305 55.741494 
L 185.917024 54.230318 
L 186.594725 53.720063 
L 187.241356 53.639754 
L 189.379317 54.269493 
L 189.771568 54.485934 
L 189.990995 54.554491 
L 190.224015 54.503563 
L 190.297805 54.324338 
L 190.311398 54.126504 
L 190.350235 54.02269 
L 190.92696 53.745527 
L 191.238624 53.643672 
L 192.443533 53.626043 
L 192.682379 53.094242 
L 192.840639 52.474298 
L 193.398916 52.177547 
L 194.204778 51.973837 
L 195.619405 51.0591 
L 196.31337 50.854154 
L 196.385459 50.832865 
L 198.873921 50.785855 
L 199.596284 50.570392 
L 199.915716 50.332404 
L 200.517685 49.686995 
L 200.898285 49.435296 
L 201.445883 49.262926 
L 203.271208 49.03767 
L 203.551803 49.076845 
L 204.042117 49.354987 
L 204.279021 49.401997 
L 204.47903 49.286431 
L 204.827589 48.856485 
L 204.954779 48.768341 
L 205.461598 48.932876 
L 205.748019 49.206122 
L 205.993661 49.514625 
L 206.39465 49.798644 
L 207.036427 49.933798 
L 209.283131 49.63215 
L 215.194078 50.120859 
L 215.667886 50.301064 
L 216.327139 50.907297 
L 216.728128 51.115904 
L 217.069891 50.998379 
L 217.510688 50.725133 
L 217.899055 50.572351 
L 218.066053 50.830906 
L 218.034983 51.586984 
L 218.101006 52.361669 
L 218.479664 52.854295 
L 219.376792 52.766151 
L 219.895262 52.250021 
L 221.166193 50.444053 
L 221.747773 50.030756 
L 222.206046 50.310857 
L 222.218668 51.041471 
L 222.137111 51.935641 
L 222.302167 52.693678 
L 222.957536 53.080531 
L 223.801264 53.09816 
L 224.672177 53.294035 
L 225.424638 54.212689 
L 225.895533 56.038244 
L 226.264482 56.920662 
L 226.920822 57.468132 
L 227.598523 57.500452 
L 228.891786 57.119475 
L 229.604439 57.287927 
L 230.193786 57.884367 
L 230.651088 58.765805 
L 231.324905 60.530639 
L 233.193922 64.165101 
L 236.941665 69.154039 
L 237.798985 69.813158 
L 238.698055 69.882694 
L 239.402941 69.267646 
L 240.321429 67.330442 
L 241.49624 66.211995 
L 242.005001 66.856424 
L 242.045779 67.39606 
L 241.892374 68.606568 
L 241.94092 68.90136 
L 242.127336 69.536974 
L 242.127336 70.559442 
L 241.935095 71.20485 
L 241.488472 71.48789 
L 240.975828 71.725878 
L 240.589403 72.231236 
L 240.527264 72.94618 
L 240.822423 73.530867 
L 241.354486 73.921638 
L 242.010826 74.066585 
L 242.601144 74.392717 
L 242.550656 75.112558 
L 242.102092 75.833378 
L 240.909805 76.45822 
L 240.470951 77.145741 
L 239.816552 78.488465 
L 239.016516 79.31114 
L 238.859227 79.626499 
L 238.787379 81.522569 
L 238.632032 82.11705 
L 238.278618 82.652769 
L 238.645625 82.861375 
L 238.886413 83.112096 
L 239.181572 83.318744 
L 239.701984 83.404929 
L 240.665134 83.451939 
L 241.614692 83.665443 
L 242.564249 84.17178 
L 242.806979 84.780951 
L 242.845815 85.555637 
L 243.43225 87.334183 
L 243.655561 87.504594 
L 243.907999 87.54181 
L 244.117718 87.631913 
L 244.203158 87.958045 
L 244.249762 88.609329 
L 245.014846 91.253643 
L 244.974067 91.771732 
L 244.575991 91.993071 
L 244.298308 92.24477 
L 244.201217 92.727602 
L 244.383239 93.025498 
L 244.391516 93.039044 
L 244.731338 92.880385 
L 244.909987 93.474866 
L 246.639191 104.091784 
L 248.368396 114.708702 
L 248.110131 115.286533 
L 246.422676 116.284517 
L 245.910032 116.457866 
L 245.477002 116.411836 
L 244.999311 116.186579 
L 244.688617 116.166992 
L 244.44783 116.392248 
L 244.185682 116.898585 
L 244.026451 117.496004 
L 244.117718 117.974919 
L 244.614828 119.065943 
L 244.857557 119.972844 
L 244.822604 120.633923 
L 244.451713 121.12459 
L 243.676921 121.519278 
L 241.434101 122.271438 
L 240.742808 122.765043 
L 239.028167 124.749258 
L 238.414547 125.266368 
L 238.362117 125.144925 
L 238.171817 124.929463 
L 237.921321 124.762969 
L 237.685388 124.790391 
L 237.575674 125.068534 
L 237.41256 127.898929 
L 237.288282 128.318101 
L 236.98924 128.641295 
L 236.153279 129.146653 
L 235.829964 129.454177 
L 235.798894 129.644176 
L 235.908608 130.135822 
L 235.898899 130.341491 
L 235.754232 130.590252 
L 235.376545 131.050558 
L 235.230907 131.29932 
L 232.517192 137.132479 
L 232.015228 138.66814 
L 230.17631 150.28549 
L 230.211263 150.730126 
L 230.448167 151.258989 
L 230.699634 151.572389 
L 230.866632 151.879913 
L 230.839447 152.397023 
L 230.505451 153.133513 
L 228.783043 155.297933 
L 228.592743 155.679889 
L 228.282049 157.57596 
L 228.091749 157.844308 
L 226.2305 158.45348 
L 226.188137 158.480041 
L 226.162529 158.496097 
L 225.699408 158.786467 
L 221.365231 166.253225 
L 220.736076 167.712494 
L 220.683647 169.08264 
L 220.846761 169.466555 
L 221.316685 170.074747 
L 221.823504 171.057061 
L 221.910887 171.30974 
L 221.172989 173.389933 
L 220.969097 173.637715 
L 220.276832 174.022609 
L 220.005946 174.420236 
L 219.953517 175.05683 
L 222.9187 188.445869 
L 223.365019 188.988789 
L 223.475035 189.122618 
L 224.580911 190.137251 
L 225.380947 192.252701 
L 226.519833 198.574569 
L 227.065489 199.929045 
L 228.513128 202.591967 
L 228.971401 203.964071 
L 229.067522 205.334217 
L 228.699544 209.659139 
L 231.140431 209.449553 
L 230.760802 211.818661 
L 230.963724 212.798037 
L 231.852114 213.296539 
L 232.587098 213.204477 
L 233.810455 212.460152 
L 234.421162 212.215308 
L 237.097982 212.909685 
L 237.579558 213.302415 
L 237.874716 213.798958 
L 238.01647 214.411068 
L 238.105795 216.397241 
L 238.771844 219.110111 
L 239.797134 221.527209 
L 239.958306 222.208854 
L 239.863156 222.869932 
L 239.490324 223.346888 
L 238.991272 223.438949 
L 237.725195 223.205858 
L 237.478582 225.551462 
L 237.585383 226.077387 
L 238.109679 226.836402 
L 238.276676 227.272224 
L 238.257258 227.596398 
L 238.098028 228.388712 
L 238.129097 228.734432 
L 238.247549 228.865668 
L 238.742717 229.291696 
L 238.948552 229.535561 
L 238.58737 230.249525 
L 238.051424 230.63442 
L 237.188278 230.75978 
L 235.691084 230.701133 
L 235.597815 229.644641 
L 234.350147 229.479613 
L 232.808911 229.663149 
L 231.821174 229.641557 
L 232.130033 230.405007 
L 231.940436 231.168457 
L 231.396111 231.760709 
L 230.653015 231.995142 
L 230.065877 231.822402 
L 228.078171 230.890839 
L 227.457396 230.415803 
L 226.708184 230.627101 
L 225.218933 230.668744 
L 224.588984 230.958701 
L 224.300002 230.238436 
L 223.712864 229.373193 
L 223.020225 228.651385 
L 222.419326 228.34909 
L 222.111997 228.065302 
L 222.515654 227.466881 
L 223.098204 226.920898 
L 223.327555 226.794428 
L 223.506449 226.259242 
L 223.616537 225.137973 
L 223.839771 224.699953 
L 224.355046 224.376065 
L 224.754116 224.277356 
L 225.010989 224.038296 
L 225.102729 223.290269 
L 225.017105 222.722694 
L 224.766348 222.451245 
L 224.329053 222.372587 
L 223.702161 222.372587 
L 223.527855 222.455872 
L 223.30462 222.640951 
L 223.026341 222.827572 
L 222.686902 222.910858 
L 222.373456 222.863046 
L 221.858182 222.651747 
L 221.530975 222.630155 
L 221.167072 222.75971 
L 220.445382 223.262507 
L 219.969861 223.432163 
L 220.345997 224.295864 
L 220.538651 225.073195 
L 220.261901 225.603754 
L 219.197714 225.733309 
L 219.364376 226.023266 
L 219.364376 226.291631 
L 219.216062 226.546114 
L 218.942371 226.794428 
L 219.286397 227.022692 
L 219.454587 227.075131 
L 219.197714 227.075131 
L 219.55703 227.212398 
L 219.942339 227.30031 
L 220.347526 227.337326 
L 220.763415 227.312649 
L 220.763415 227.571759 
L 220.408686 227.735245 
L 219.83378 227.684348 
L 219.454587 227.806192 
L 219.135025 228.049879 
L 218.846043 228.373767 
L 218.607519 228.747009 
L 218.430154 229.146471 
L 218.034142 228.876564 
L 217.766566 229.018458 
L 217.830784 229.348515 
L 218.430154 229.641557 
L 218.20692 230.145897 
L 218.428625 230.451277 
L 218.901087 230.616305 
L 219.454587 230.701133 
L 218.087657 231.806979 
L 215.612199 231.683593 
L 206.069683 229.641557 
L 204.320502 229.536679 
L 203.133995 229.299161 
L 202.837368 229.200452 
L 202.708932 229.00612 
L 202.776208 228.65447 
L 202.86489 228.386106 
L 202.80373 228.126995 
L 202.429124 227.806192 
L 202.708932 227.312649 
L 202.323623 227.633452 
L 202.023938 228.123911 
L 201.814464 228.669893 
L 201.708963 229.146471 
L 201.427626 229.146471 
L 200.978099 228.885818 
L 200.250293 228.811787 
L 198.722817 228.864226 
L 198.219775 228.728501 
L 196.530225 227.806192 
L 193.901867 227.462254 
L 192.727591 227.105977 
L 192.167976 226.25153 
L 192.865202 226.485963 
L 193.657226 226.405762 
L 194.351394 226.051028 
L 194.759638 225.477284 
L 195.305493 226.157448 
L 195.574597 226.427355 
L 195.889572 226.53686 
L 196.135742 226.439694 
L 196.236656 226.214514 
L 196.192315 225.949235 
L 196.01648 225.733309 
L 196.01648 225.477284 
L 196.534812 225.592958 
L 197.832937 226.128144 
L 198.091339 226.134314 
L 198.47359 226.010928 
L 199.319129 226.342527 
L 200.681472 227.075131 
L 200.59279 226.831444 
L 200.528571 226.453574 
L 200.424599 226.25153 
L 201.008679 226.268496 
L 202.017822 226.407305 
L 202.429124 226.25153 
L 202.924521 225.653109 
L 202.690584 225.323051 
L 202.207418 225.037722 
L 201.941371 224.582736 
L 201.510192 223.321116 
L 201.427626 222.770506 
L 201.300719 222.472838 
L 200.987273 222.270794 
L 200.5775 222.222982 
L 200.170784 222.372587 
L 199.924615 222.207558 
L 199.571415 222.10268 
L 199.25644 222.161289 
L 199.118829 222.5006 
L 199.228918 222.714983 
L 200.030116 223.290269 
L 200.981157 224.579652 
L 201.546888 225.187327 
L 202.198244 225.477284 
L 201.861863 225.967743 
L 201.280842 225.915304 
L 200.647834 225.776495 
L 200.170784 226.017097 
L 199.887919 226.017097 
L 199.418514 225.444895 
L 199.066843 225.296832 
L 198.678476 225.31534 
L 198.091339 225.241308 
L 197.693797 225.100957 
L 197.250386 224.844931 
L 196.904831 224.473231 
L 196.810033 223.971976 
L 196.631139 224.140089 
L 196.406376 224.308203 
L 196.299345 224.46552 
L 196.143387 224.15397 
L 196.042473 223.857844 
L 195.996603 223.540126 
L 196.01648 223.148376 
L 195.761136 223.148376 
L 195.70915 223.682019 
L 195.525669 224.140089 
L 195.210694 224.366811 
L 194.759638 224.206409 
L 194.467598 224.428504 
L 194.057825 224.491739 
L 193.611356 224.416165 
L 193.195467 224.206409 
L 192.317818 224.343676 
L 191.889697 224.46552 
L 192.255129 224.806373 
L 192.842267 224.946725 
L 193.464571 224.908166 
L 193.941621 224.699953 
L 194.475243 225.241308 
L 193.975259 225.629974 
L 193.330019 226.004758 
L 192.651141 226.152821 
L 192.030365 225.875203 
L 191.559432 225.602212 
L 190.736828 225.232054 
L 189.952449 224.999164 
L 189.602307 225.111753 
L 189.29039 225.444895 
L 188.59928 225.259816 
L 187.525919 224.699953 
L 187.027463 224.852643 
L 186.626864 225.111753 
L 186.223207 225.232054 
L 185.706404 224.982198 
L 185.489285 225.20275 
L 185.244644 225.205835 
L 184.978597 225.026925 
L 184.704906 224.699953 
L 183.682002 225.397083 
L 183.183546 225.591416 
L 182.630047 225.477284 
L 182.704968 225.304544 
L 182.813527 224.869608 
L 182.88692 224.699953 
L 181.923647 224.511789 
L 181.507758 224.582736 
L 181.067404 224.982198 
L 180.787597 224.723088 
L 180.448158 224.556517 
L 180.162234 224.565771 
L 179.929825 225.16265 
L 179.333513 225.64077 
L 179.039945 226.017097 
L 178.77084 225.739479 
L 178.319784 225.390914 
L 177.838147 225.094788 
L 177.49565 224.982198 
L 177.101167 225.196581 
L 176.706684 225.548231 
L 176.315259 225.68087 
L 175.936066 225.241308 
L 176.049212 225.156481 
L 176.095082 225.147227 
L 176.131778 225.119465 
L 176.214345 224.982198 
L 174.822951 225.048518 
L 174.290857 225.310713 
L 174.141015 226.017097 
L 174.498802 225.835103 
L 174.813777 225.887542 
L 175.05383 226.134314 
L 175.191441 226.53686 
L 174.475867 226.370289 
L 171.807754 226.25153 
L 171.66097 225.890626 
L 171.480547 225.569823 
L 171.0616 224.982198 
L 170.847539 225.344644 
L 170.833778 225.643855 
L 170.989737 225.872119 
L 171.29248 226.017097 
L 171.29248 226.25153 
L 170.615131 226.38417 
L 170.101385 226.627857 
L 169.239027 227.312649 
L 168.544859 226.856121 
L 167.742132 226.90856 
L 167.043377 227.229363 
L 166.677945 227.571759 
L 166.419543 227.571759 
L 166.168786 227.460712 
L 165.844637 227.26021 
L 165.554126 227.022692 
L 165.393581 226.794428 
L 165.832405 226.597011 
L 166.199366 226.640196 
L 166.609139 226.763581 
L 167.165697 226.794428 
L 167.086189 226.427355 
L 166.966926 226.192922 
L 166.758982 226.066451 
L 166.419543 226.017097 
L 166.419543 225.733309 
L 166.804852 225.557485 
L 167.049493 225.28912 
L 167.165697 224.926674 
L 167.165697 224.46552 
L 166.934817 224.46552 
L 166.471529 225.338475 
L 165.843108 225.804256 
L 165.049555 225.98625 
L 164.086282 226.017097 
L 165.104599 226.791343 
L 164.352329 227.462254 
L 162.954819 228.056048 
L 162.035888 228.605116 
L 161.80195 229.154183 
L 161.856994 229.512002 
L 162.196433 229.738723 
L 162.804977 229.897582 
L 163.477739 229.934598 
L 164.145913 229.820466 
L 164.529694 229.555187 
L 164.343155 229.146471 
L 164.343155 228.864226 
L 165.292667 228.605116 
L 165.759013 228.342921 
L 165.925675 228.517203 
L 166.110684 228.765517 
L 166.419543 228.864226 
L 166.88436 228.747009 
L 167.645804 228.41541 
L 168.214594 228.34909 
L 169.382753 228.34909 
L 169.737482 228.424664 
L 169.976007 228.591235 
L 170.138081 228.767059 
L 170.266518 228.864226 
L 170.824604 228.942884 
L 171.2145 228.887361 
L 172.086033 228.605116 
L 171.697666 228.651385 
L 171.242023 228.614369 
L 170.884236 228.441629 
L 170.783321 228.08998 
L 171.012672 227.892562 
L 172.319971 227.571759 
L 172.319971 228.08998 
L 172.599778 228.08998 
L 173.430028 227.684348 
L 175.645555 227.823158 
L 176.72809 227.312649 
L 176.906984 227.877139 
L 177.199023 227.647333 
L 177.507882 227.1214 
L 177.752523 226.794428 
L 178.440575 226.812936 
L 179.026184 227.090554 
L 179.549103 227.223194 
L 180.039913 226.794428 
L 180.749371 227.082842 
L 181.483294 226.957914 
L 182.235564 226.686465 
L 183.778329 226.408847 
L 184.741602 225.85978 
L 185.333326 225.733309 
L 189.969268 225.613008 
L 191.143543 226.017097 
L 190.791872 226.180583 
L 190.415737 226.263869 
L 190.016667 226.282377 
L 189.602307 226.25153 
L 192.400384 227.571759 
L 180.662218 228.537253 
L 168.924052 229.502748 
L 162.756049 230.897008 
L 159.347898 231.190049 
L 158.698071 231.476922 
L 158.291356 231.260996 
L 157.851003 231.18388 
L 155.825072 231.145322 
L 155.340378 231.193134 
L 155.340378 230.958701 
L 155.462698 230.949447 
L 155.710397 230.969497 
L 155.829659 230.958701 
L 155.829659 230.701133 
L 154.774646 230.715014 
L 154.52236 230.266198 
L 154.540708 229.576779 
L 154.291481 228.864226 
L 154.774646 228.287397 
L 154.297597 228.164011 
L 152.248731 228.423121 
L 151.577498 228.635962 
L 150.955193 228.970646 
L 150.444506 229.405581 
L 149.816085 228.859599 
L 148.732021 228.308989 
L 147.472121 228.04371 
L 146.3376 228.34909 
L 146.192345 228.185604 
L 145.933943 227.985102 
L 145.869725 227.898731 
L 145.802449 227.806192 
L 145.568511 227.806192 
L 145.15568 228.238043 
L 144.485976 228.037541 
L 143.770402 227.721364 
L 143.210786 227.806192 
L 142.979907 227.806192 
L 142.582365 227.627283 
L 142.366776 227.784599 
L 142.331609 228.148588 
L 142.490625 228.605116 
L 142.374421 228.563473 
L 141.952416 228.34909 
L 141.972293 228.747009 
L 141.952416 228.864226 
L 142.261275 228.776313 
L 142.319377 228.891988 
L 142.472277 229.121794 
L 142.490625 229.146471 
L 142.753614 228.993781 
L 142.9585 228.932088 
L 143.490594 228.864226 
L 143.490594 229.146471 
L 143.203141 229.468817 
L 142.322435 229.906836 
L 141.952416 230.156693 
L 141.952416 229.405581 
L 141.417264 230.977209 
L 141.160391 231.476922 
L 139.900492 229.641557 
L 139.619155 229.641557 
L 139.603865 229.758773 
L 139.619155 230.156693 
L 139.109997 229.897582 
L 139.671141 230.971039 
L 141.215436 231.671254 
L 143.059415 231.874841 
L 144.54102 231.476922 
L 143.937063 231.017309 
L 143.302526 231.029648 
L 142.634352 231.136068 
L 141.952416 230.958701 
L 141.952416 230.701133 
L 142.334667 230.724268 
L 142.641997 230.674913 
L 142.918746 230.570035 
L 143.210786 230.415803 
L 143.411086 230.252317 
L 143.885077 229.755689 
L 144.027275 229.641557 
L 144.588419 229.768027 
L 145.209195 230.082661 
L 145.81621 230.238436 
L 146.3376 229.897582 
L 146.79783 230.18137 
L 147.256532 230.283163 
L 147.640312 230.127389 
L 147.875778 229.641557 
L 147.187726 229.74335 
L 146.884984 229.43797 
L 146.631169 229.036966 
L 146.080727 228.864226 
L 146.080727 228.605116 
L 146.594473 228.864226 
L 147.848256 228.683774 
L 150.126473 230.024053 
L 151.095862 229.768027 
L 151.623368 229.350058 
L 152.118765 229.266772 
L 153.41689 229.405581 
L 153.569791 229.692453 
L 153.783851 230.344856 
L 154.104942 231.043529 
L 154.572817 231.476922 
L 145.068526 231.765336 
L 143.605269 232.334453 
L 136.038227 232.741627 
L 134.94346 232.570429 
L 133.977129 231.995142 
L 132.928232 232.769388 
L 133.708024 233.000737 
L 133.977129 233.028499 
L 130.98181 233.956977 
L 122.674729 235.217056 
L 122.397979 235.303426 
L 118.161108 236.632908 
L 117.521984 236.964508 
L 117.25288 237.309988 
L 116.807939 237.291481 
L 114.843169 238.028711 
L 111.879959 239.566407 
L 101.597404 243.028923 
L 101.276314 243.284949 
L 101.056137 243.858693 
L 100.496521 244.164073 
L 96.525697 245.146533 
L 95.748963 245.239073 
L 95.148064 245.434948 
L 94.137392 246.406611 
L 93.533436 246.792192 
L 88.779761 248.20496 
L 85.009236 248.459444 
L 84.038319 248.940649 
L 83.149967 249.164285 
L 82.735607 249.403346 
L 81.685181 250.697355 
L 79.660779 252.406249 
L 77.322932 253.826729 
L 75.783224 254.300222 
L 72.992791 254.593264 
L 70.761974 255.558758 
L 70.295628 255.876477 
L 69.919493 256.612165 
L 69.514307 256.684654 
L 69.046431 256.678485 
L 68.682528 256.801871 
L 68.011295 257.37253 
L 65.988423 258.486088 
L 63.025212 260.953805 
L 62.346334 261.216 
L 61.441164 261.137342 
L 59.808187 260.813454 
L 59.19403 260.883088 
L 57.950065 260.028411 
L 57.746172 259.582796 
L 57.79666 259.19888 
L 58.188911 258.491771 
L 58.305421 258.116671 
L 58.252991 257.761157 
L 57.985018 256.996265 
L 58.056866 256.036477 
L 57.988902 255.641789 
L 57.887926 255.292152 
L 57.833555 254.95133 
L 57.998611 246.839164 
L 57.833555 244.87062 
L 57.732579 244.529797 
L 57.507326 244.254592 
L 57.212167 244.031295 
L 56.926718 243.758049 
L 56.73836 243.320268 
L 56.739122 243.275902 
L 56.744185 242.981405 
L 56.955845 242.197904 
L 57.008275 241.769917 
L 56.740301 240.598584 
L 56.757778 240.241112 
L 57.905403 239.326376 
L 58.400571 239.379262 
L 58.713206 239.603539 
L 58.860786 239.61725 
L 58.858844 239.042357 
L 58.6433 238.307826 
L 58.29377 237.809323 
L 58.031622 237.286337 
L 58.084052 236.471497 
L 58.078226 236.471497 
L 57.785009 234.278675 
L 57.874333 233.621515 
L 58.346199 232.935952 
L 58.961761 232.649974 
L 59.597712 232.661727 
L 60.126862 232.873272 
L 61.138559 231.021273 
L 61.359928 230.355298 
L 61.389056 229.717725 
L 61.080304 227.931344 
L 61.476438 226.681661 
L 61.635669 226.3379 
L 61.915293 225.988263 
L 62.886211 225.46038 
L 62.979419 225.354608 
L 63.408564 225.430999 
L 63.348368 225.578885 
L 63.158068 225.766925 
L 63.198846 225.964758 
L 63.31924 226.21254 
L 63.321182 226.498518 
L 63.408564 226.644445 
L 63.77363 226.480889 
L 63.961988 226.24388 
L 64.099858 225.620018 
L 64.191124 225.36636 
L 64.645514 224.724869 
L 64.864941 224.33214 
L 64.899894 223.906112 
L 64.800861 223.174518 
L 64.595026 222.463492 
L 64.315402 222.404729 
L 63.921209 222.48112 
L 63.363902 222.165762 
L 63.010488 221.653548 
L 62.750282 221.005202 
L 62.602703 220.328453 
L 62.592994 219.724179 
L 63.119231 220.00428 
L 63.288171 219.602736 
L 63.262927 218.175787 
L 63.534784 217.62244 
L 63.973639 217.268885 
L 64.173648 216.954505 
L 64.109612 216.892592 
L 63.728967 216.52456 
L 63.973639 216.536312 
L 64.719303 216.49224 
L 64.212484 215.832141 
L 64.031894 215.11328 
L 64.288216 214.656891 
L 65.076601 214.787148 
L 64.604735 214.176018 
L 63.804836 212.558644 
L 63.313415 211.565003 
L 62.620179 208.593578 
L 62.655132 207.202865 
L 62.899804 205.602566 
L 62.730864 204.288245 
L 61.526926 203.760361 
L 61.410416 204.884684 
L 61.224 205.506587 
L 60.932724 205.795503 
L 60.575426 205.571226 
L 60.390952 205.037467 
L 60.136572 204.542882 
L 59.554021 204.43711 
L 59.678298 203.799536 
L 59.399645 203.913144 
L 58.934576 204.307832 
L 58.499604 204.519377 
L 58.231631 204.372471 
L 57.734521 203.742733 
L 57.445188 203.498868 
L 57.750056 203.10418 
L 57.559756 202.857377 
L 56.748069 202.499905 
L 56.645151 202.478359 
L 55.870359 202.052331 
L 55.814046 201.913259 
L 55.147996 201.811404 
L 54.592631 201.36383 
L 54.182904 200.884915 
L 53.940175 200.688061 
L 53.524622 201.188522 
L 53.085767 201.940682 
L 52.561471 202.21099 
L 51.89348 201.267851 
L 51.435207 200.8144 
L 49.951644 200.034818 
L 49.462302 199.416832 
L 49.423465 199.141627 
L 49.450651 198.064314 
L 49.53415 197.889986 
L 49.877855 197.699007 
L 49.95747 197.497256 
L 49.872029 197.25535 
L 49.679788 197.157413 
L 49.477837 197.096692 
L 49.357443 196.961538 
L 49.235107 196.097729 
L 49.085586 195.750051 
L 48.720521 195.413145 
L 48.382641 195.38964 
L 47.912717 195.516959 
L 47.551536 195.710876 
L 47.536001 195.888143 
L 47.126274 195.360259 
L 47.025298 194.594388 
L 47.118506 193.734496 
L 47.293272 192.938264 
L 47.790382 191.476057 
L 47.697173 190.963843 
L 47.114623 190.246941 
L 45.444644 188.897362 
L 45.314541 188.716177 
L 45.215508 188.274479 
L 45.151427 188.149119 
L 44.919378 188.070769 
L 44.743642 188.119737 
L 44.582469 188.186335 
L 44.380518 188.160871 
L 41.957108 187.58206 
L 41.343488 187.161908 
L 40.692973 187.011085 
L 39.675451 187.03459 
L 37.927799 187.279433 
L 37.488944 187.460618 
L 36.650071 187.92778 
L 36.133543 188.055099 
L 35.523807 188.062934 
L 35.205346 187.955202 
L 34.954849 187.766183 
L 34.547063 187.527215 
L 34.09947 187.360722 
L 31.187688 186.696705 
L 30.845925 186.571345 
L 30.789612 186.414645 
L 30.789612 186.153152 
L 30.746891 185.84269 
L 30.558533 185.537125 
L 30.284735 185.386301 
L 30.127446 185.503826 
L 30.003168 185.676196 
L 29.820636 185.695784 
L 29.42256 185.335373 
L 29.059436 184.919139 
L 28.671069 184.763418 
L 28.181727 185.179653 
L 27.78365 185.003365 
L 27.323435 184.989654 
L 26.86322 185.165942 
L 26.459319 185.56063 
L 26.012696 185.107179 
L 26.145712 184.876046 
L 26.490388 184.683109 
L 26.678746 184.339349 
L 26.593305 184.048474 
L 26.255426 183.356056 
L 26.187462 182.997605 
L 26.381645 182.370804 
L 26.659328 182.129878 
L 26.711757 181.910498 
L 26.216589 181.346378 
L 25.037895 180.712722 
L 24.602924 180.145664 
L 24.36602 179.987005 
L 24.183487 180.306281 
L 24.012606 181.007514 
L 23.717447 181.711685 
L 23.249465 182.098538 
L 22.558171 181.862509 
L 21.441616 180.361126 
L 21.022179 179.988964 
L 20.587208 179.860665 
L 19.684255 179.888088 
L 19.318219 179.809738 
L 18.684209 179.768604 
L 19.608523 178.591395 
L 19.787172 178.509128 
L 20.23962 178.434695 
L 20.412443 178.327943 
L 20.492058 178.165367 
L 20.660998 177.637483 
L 20.620219 177.578721 
L 20.660998 177.566968 
L 21.286269 177.217331 
L 21.373651 177.221249 
L 21.884354 176.603263 
L 24.59904 174.439823 
L 25.338092 173.610114 
L 28.715731 169.818151 
L 29.251678 168.987641 
L 29.721602 167.888782 
L 30.03618 166.750747 
L 30.098318 166.219926 
L 30.070162 165.706733 
L 29.886658 165.485395 
L 29.579848 165.279726 
L 29.395374 164.995707 
L 29.875007 163.949734 
L 29.90996 163.356233 
L 29.863356 162.73335 
L 29.90996 162.061498 
L 30.113853 161.736346 
L 30.880878 161.136968 
L 31.162444 160.780476 
L 31.257594 159.867698 
L 30.614847 156.253803 
L 30.562417 155.329273 
L 30.4595 154.976697 
L 30.228421 154.582989 
L 29.674998 154.022786 
L 29.542953 153.785777 
L 29.511884 153.542892 
L 29.591499 153.062998 
L 29.572081 152.812278 
L 29.420618 152.514548 
L 28.970112 151.948469 
L 28.793405 151.64878 
L 28.498246 150.47353 
L 28.255516 149.974048 
L 27.614711 149.059312 
L 27.366156 148.60684 
L 27.164205 147.872309 
L 26.709815 144.197693 
L 25.940849 141.520081 
L 25.263148 140.186171 
L 23.692203 139.394836 
L 25.399076 137.806289 
L 26.346692 137.312684 
L 27.245762 138.341028 
L 27.944823 138.284225 
L 29.278864 137.884639 
L 30.539115 138.207833 
L 31.96248 139.316486 
L 33.329533 139.913905 
L 34.409193 138.69948 
L 34.42667 138.43309 
L 34.304334 137.818042 
L 34.319869 137.530106 
L 34.498518 137.09918 
L 35.250008 136.139393 
L 35.417006 135.990528 
L 35.842268 135.749601 
L 35.995673 135.59486 
L 36.018975 135.43816 
L 35.914116 135.065997 
L 35.93936 134.909297 
L 37.147181 133.518584 
L 37.32583 132.970134 
L 37.461759 131.70674 
L 37.607396 131.097568 
L 37.782161 130.887982 
L 38.028775 130.739117 
L 38.241406 130.529531 
L 38.314224 130.149533 
L 38.121983 129.736237 
L 37.28311 129.007582 
L 37.003485 128.613873 
L 37.090868 127.091923 
L 38.960856 124.245859 
L 39.345339 122.77092 
L 39.407478 121.854224 
L 39.337572 121.53103 
L 39.910413 121.550618 
L 41.4833 121.293042 
L 41.852249 121.411547 
L 42.215372 121.724947 
L 42.671703 122.012883 
L 43.337753 122.065769 
L 43.224959 121.620147 
L 43.128035 121.237218 
L 42.669761 120.404749 
L 42.04449 119.709392 
L 41.343488 119.287282 
L 41.133769 118.749605 
L 41.118235 118.178629 
L 41.343488 117.024925 
L 41.623112 116.559721 
L 41.842539 116.033797 
L 41.809528 115.664572 
L 41.343488 115.670449 
L 39.079308 116.448073 
L 38.720068 116.499 
L 35.059708 115.375657 
L 31.939178 113.31701 
L 31.991608 112.918404 
L 32.605228 112.271037 
L 32.715913 111.835215 
L 32.62853 111.124188 
L 32.62853 110.414141 
L 33.092629 108.255598 
L 33.032432 107.476015 
L 32.836306 106.995142 
L 32.574159 106.577928 
L 32.378033 106.171487 
L 32.37415 105.716078 
L 32.581926 105.448708 
L 34.407251 103.998254 
L 34.931547 103.927739 
L 36.277239 104.200984 
L 37.044264 104.120675 
L 38.292864 103.624132 
L 39.054064 103.56537 
L 39.374467 103.671142 
L 39.784194 104.03547 
L 40.029836 104.155933 
L 40.337617 104.17552 
L 40.997841 104.120675 
L 41.343488 104.173562 
L 42.463927 103.880728 
L 43.040652 103.804337 
L 43.576599 103.902275 
L 44.042639 104.271499 
L 44.302845 104.77196 
L 44.504796 105.317472 
L 44.796071 105.819892 
L 45.20774 106.18324 
L 45.744658 106.482929 
L 46.355365 106.666072 
L 46.98452 106.687618 
L 47.623384 106.393806 
L 47.691348 105.861025 
L 47.592314 105.235205 
L 47.730185 104.66227 
L 48.553523 104.528096 
L 49.357443 105.614223 
L 50.538079 107.990187 
L 51.390545 108.528844 
L 52.427485 108.671833 
L 54.617875 108.431886 
L 53.837257 106.822772 
L 53.598412 106.013808 
L 53.714922 105.106906 
L 53.984837 104.153974 
L 53.986779 103.495834 
L 53.518796 101.920019 
L 53.433356 101.119869 
L 53.52268 99.665497 
L 53.326555 98.956429 
L 53.058581 98.629318 
L 52.010961 97.924168 
L 51.658518 97.51381 
L 50.759448 95.877273 
L 50.499242 95.557018 
L 49.790472 94.935114 
L 49.610852 94.725528 
L 49.310839 94.248572 
L 49.066168 94.085017 
L 48.845769 94.07914 
L 48.450606 94.279912 
L 48.283608 94.301459 
L 46.031079 93.617855 
L 45.198031 93.521876 
L 43.477565 92.999869 
L 43.100849 91.830495 
L 43.786317 88.54469 
L 43.945547 86.684857 
L 44.12808 85.789708 
L 44.493145 84.871054 
L 44.495087 84.867136 
L 45.062103 84.268738 
L 48.433129 82.545037 
L 49.155492 82.460811 
L 49.897273 82.460811 
L 50.794401 82.325657 
L 51.395467 81.878577 
L 51.4488 81.838908 
L 50.974992 81.262056 
L 49.409872 80.385515 
L 48.570999 79.73423 
L 48.163214 79.317016 
L 47.648628 78.347435 
L 47.335992 78.284755 
L 46.957334 78.443413 
L 46.491294 78.523722 
L 44.580527 77.766665 
L 44.539749 76.386725 
L 45.881557 73.095045 
L 46.001951 72.219483 
L 46.992287 69.19909 
L 46.796162 68.87002 
L 45.244635 68.868061 
L 44.450425 69.034555 
L 43.021234 69.84156 
L 42.250325 70.131455 
L 41.562915 70.196094 
L 40.720159 70.156919 
L 39.902646 69.988466 
L 39.287084 69.668211 
L 38.657929 68.991462 
L 36.471422 65.892719 
L 36.189856 65.287465 
L 36.011207 64.614634 
L 35.883046 63.752784 
L 35.861686 62.917377 
L 35.910433 62.569804 
L 37.292819 52.713265 
L 37.119996 51.902342 
L 36.415109 51.961105 
L 36.259762 51.90626 
L 36.106357 51.56152 
L 36.217042 51.425387 
L 36.397633 51.376418 
L 36.459771 51.286315 
L 36.401516 51.080646 
L 36.314134 50.420548 
L 36.176263 50.209002 
L 35.96072 50.154157 
L 35.751002 50.142405 
L 35.624782 50.066014 
L 35.488854 49.75751 
L 35.36846 49.370657 
L 35.401471 49.035711 
L 36.207333 48.728187 
L 36.66949 48.359942 
L 36.813186 47.990717 
L 36.339378 47.822265 
L 35.978196 47.404072 
L 36.382098 46.452119 
L 37.141356 45.425733 
L 37.846242 44.778366 
L 39.75895 44.062443 
L 40.623067 43.58059 
L 41.343488 42.649204 
L 41.469707 42.099775 
L 41.661949 41.58952 
L 41.939631 41.1204 
L 42.322173 40.692413 
" clip-path="url(#pef846506ef)" style="fill: #f5f5f5; stroke: #000000"/>
    <path d="M 225.48498 232.266591 
L 225.322906 232.891232 
L 225.299971 232.885063 
L 223.662407 232.504109 
L 219.969861 232.14629 
L 219.433181 231.876383 
L 219.584552 231.335028 
L 220.300126 230.682625 
L 221.020287 230.156693 
L 222.024843 230.415803 
L 222.29089 230.59934 
L 222.399449 230.822976 
L 222.454494 231.038902 
L 222.558466 231.193134 
L 222.867325 231.339655 
L 223.677697 231.597223 
L 223.839771 231.594138 
L 223.988085 231.506226 
L 224.31835 231.745286 
L 224.868791 232.254252 
L 225.371834 232.297438 
L 225.48498 232.266591 
" clip-path="url(#pef846506ef)" style="fill: #f5f5f5; stroke: #000000"/>
   </g>
  </g>
 </g>
 <defs>
  <clipPath id="pef846506ef">
   <rect x="7.2" y="7.2" width="252.652605" height="266.112"/>
  </clipPath>
 </defs>
</svg>
