<?xml version="1.0" encoding="utf-8" standalone="no"?>
<!DOCTYPE svg PUBLIC "-//W3C//DTD SVG 1.1//EN"
  "http://www.w3.org/Graphics/SVG/1.1/DTD/svg11.dtd">
<svg xmlns:xlink="http://www.w3.org/1999/xlink" width="285.884258pt" height="280.512pt" viewBox="0 0 285.884258 280.512" xmlns="http://www.w3.org/2000/svg" version="1.1">
 <metadata>
  <rdf:RDF xmlns:dc="http://purl.org/dc/elements/1.1/" xmlns:cc="http://creativecommons.org/ns#" xmlns:rdf="http://www.w3.org/1999/02/22-rdf-syntax-ns#">
   <cc:Work>
    <dc:type rdf:resource="http://purl.org/dc/dcmitype/StillImage"/>
    <dc:date>2024-03-04T13:11:09.980415</dc:date>
    <dc:format>image/svg+xml</dc:format>
    <dc:creator>
     <cc:Agent>
      <dc:title>Matplotlib v3.8.0, https://matplotlib.org/</dc:title>
     </cc:Agent>
    </dc:creator>
   </cc:Work>
  </rdf:RDF>
 </metadata>
 <defs>
  <style type="text/css">*{stroke-linejoin: round; stroke-linecap: butt}</style>
 </defs>
 <g id="figure_1">
  <g id="patch_1">
   <path d="M 0 280.512 
L 285.884258 280.512 
L 285.884258 0 
L 0 0 
z
" style="fill: #ffffff"/>
  </g>
  <g id="axes_1">
   <g id="PatchCollection_1">
    <path d="M 145.476236 21.947245 
L 145.718084 22.133377 
L 147.523306 23.222929 
L 148.08042 23.766192 
L 148.335224 23.766192 
L 148.51661 23.244115 
L 148.775733 23.044364 
L 149.103955 23.098841 
L 149.479683 23.331884 
L 150.589593 23.542229 
L 151.492204 24.144509 
L 152.252297 25.05247 
L 152.926016 26.169261 
L 153.712022 27.161965 
L 154.986043 27.926165 
L 155.495651 28.965779 
L 155.780686 28.965779 
L 156.091633 28.131969 
L 156.389624 28.321127 
L 157.516809 28.566277 
L 157.702513 28.644967 
L 157.888218 28.781161 
L 158.065285 28.959726 
L 158.246671 29.186716 
L 158.523069 29.425813 
L 158.635355 29.230601 
L 158.726048 28.962753 
L 158.946303 28.965779 
L 159.481823 29.481804 
L 159.855215 29.968151 
L 160.108037 30.297455 
L 160.509677 31.250813 
L 160.371478 32.167853 
L 160.686808 33.054396 
L 161.101341 34.219844 
L 161.386376 34.564869 
L 161.688686 34.819098 
L 163.25206 36.601727 
L 164.279914 38.478179 
L 164.677235 38.998743 
L 166.901373 40.760186 
L 167.24687 41.199034 
L 167.454168 41.83158 
L 167.942182 42.343064 
L 169.959021 43.82304 
L 170.585235 44.11964 
L 173.975425 44.234649 
L 174.446165 44.50401 
L 176.117507 46.631664 
L 176.346398 47.182494 
L 176.868963 49.058945 
L 176.968293 49.64912 
L 177.257647 50.626691 
L 177.909773 50.865787 
L 178.592129 50.956583 
L 178.967857 51.468067 
L 178.65691 51.528598 
L 178.138664 51.761641 
L 177.853629 51.831252 
L 177.853629 52.230754 
L 178.466887 52.442612 
L 178.542065 52.507312 
L 178.95922 52.866327 
L 179.399729 52.969229 
L 179.848875 52.230754 
L 180.090723 53.232537 
L 180.025942 53.753101 
L 180.159822 53.925614 
L 180.993334 53.865083 
L 181.990957 53.492819 
L 182.431465 53.677438 
L 182.703544 54.630796 
L 182.928117 54.458284 
L 183.08791 54.276692 
L 183.204515 54.082994 
L 183.55865 53.865083 
L 187.121588 54.028516 
L 188.89226 54.388674 
L 190.429722 55.066617 
L 192.407693 57.109529 
L 192.714322 57.666411 
L 192.761828 58.141577 
L 192.977763 59.013219 
L 193.025269 59.68511 
L 193.085975 59.992214 
L 193.163468 60.38424 
L 193.504646 60.605177 
L 194.450444 60.665707 
L 199.542207 62.200161 
L 200.755766 63.06575 
L 201.58064 64.457956 
L 201.584959 64.700078 
L 202.085929 64.597176 
L 202.323459 64.176488 
L 202.522119 63.716455 
L 202.910804 63.504597 
L 203.597896 63.504597 
L 206.486698 63.504597 
L 210.87883 64.700078 
L 211.362526 64.700078 
L 211.81599 64.530592 
L 212.537216 64.016082 
L 212.904306 63.901073 
L 216.342002 63.901073 
L 217.11937 64.143196 
L 218.402028 65.087475 
L 219.352145 65.099581 
L 220.07337 65.865294 
L 220.790277 66.13163 
L 221.511502 65.856215 
L 222.18954 65.480924 
L 222.85894 65.493031 
L 223.554253 66.370726 
L 223.567209 66.376779 
L 223.843607 66.452442 
L 224.128642 66.479681 
L 224.413677 66.452442 
L 224.720306 66.370726 
L 225.514949 65.759366 
L 226.966037 63.997922 
L 227.648393 63.546969 
L 228.585554 63.979763 
L 229.67387 63.58026 
L 231.479092 62.066993 
L 231.980063 61.467739 
L 232.89563 59.724455 
L 233.513206 59.037431 
L 233.573668 59.022299 
L 233.685954 58.662141 
L 233.811197 57.956958 
L 233.966671 57.660358 
L 234.912469 56.743318 
L 235.694156 56.579885 
L 237.76282 57.279015 
L 239.412568 58.126444 
L 239.922176 58.193028 
L 240.358366 57.953932 
L 240.544071 57.54535 
L 240.729776 57.009653 
L 241.148691 56.389213 
L 241.68853 56.867406 
L 241.883003 56.860725 
L 242.129039 56.852273 
L 242.841627 56.371054 
L 243.679457 56.128931 
L 244.145878 55.874702 
L 244.560474 55.405589 
L 245.17805 55.360191 
L 245.41558 56.268152 
L 244.698673 56.725159 
L 244.370451 57.033865 
L 243.990404 57.46666 
L 244.849828 58.132497 
L 245.290337 58.61069 
L 245.41558 59.06467 
L 245.11327 59.44904 
L 244.586387 59.561022 
L 243.256223 59.68511 
L 243.135299 61.28312 
L 243.048925 61.625119 
L 242.89777 61.873295 
L 242.824352 62.124497 
L 242.979825 62.484655 
L 243.618995 63.129307 
L 243.916986 63.631712 
L 245.130545 65.099581 
L 245.324887 65.986356 
L 245.497635 67.762932 
L 245.847451 68.516539 
L 246.42184 68.964466 
L 247.134428 69.366995 
L 247.743366 69.893613 
L 247.985214 70.731963 
L 247.752004 71.237394 
L 246.603226 72.802113 
L 246.145442 73.135032 
L 245.640153 73.631383 
L 245.467404 74.733042 
L 245.41558 75.831674 
L 245.273062 76.334079 
L 245.627197 76.618573 
L 246.460708 77.947222 
L 246.866667 78.334619 
L 247.639717 78.322513 
L 248.179556 77.904851 
L 248.598471 77.408499 
L 249.328334 77.030182 
L 249.686787 76.77898 
L 250.058196 76.666998 
L 250.438243 76.948466 
L 250.697366 77.414552 
L 250.826927 77.717206 
L 251.012632 77.977488 
L 251.431547 78.334619 
L 252.135498 78.658458 
L 252.740117 78.788599 
L 253.275638 79.088226 
L 253.742059 79.932629 
L 252.5285 81.103898 
L 250.051161 80.742873 
L 249.704062 80.69229 
L 249.151267 82.148053 
L 249.182756 83.219692 
L 249.397467 83.91257 
L 249.988756 84.505771 
L 250.610782 85.522307 
L 250.247284 86.331068 
L 249.191459 86.484345 
L 248.279483 86.990665 
L 248.36155 88.157372 
L 249.121926 88.681498 
L 249.15309 88.691557 
L 249.616442 88.841119 
L 249.893889 89.199051 
L 250.565699 89.684328 
L 251.514363 89.669193 
L 252.110086 89.784561 
L 252.768519 90.030603 
L 253.323144 90.622351 
L 253.431111 91.164101 
L 253.653998 92.402492 
L 255.924456 93.723429 
L 257.541442 94.382223 
L 260.162595 95.667759 
L 261.409612 96.057983 
L 265.100275 96.451457 
L 265.903555 96.820695 
L 266.344064 98.001043 
L 266.240415 99.37509 
L 265.762871 99.846444 
L 265.627158 99.980397 
L 262.016713 100.14383 
L 261.813734 100.001583 
L 261.476874 99.490099 
L 261.282532 99.38417 
L 260.980222 99.517337 
L 260.824749 99.774593 
L 260.699506 100.037901 
L 260.492208 100.186202 
L 258.743129 100.413192 
L 257.849155 100.358714 
L 257.045874 100.056061 
L 256.596728 99.60208 
L 255.810722 98.479236 
L 255.31407 98.212901 
L 254.394185 98.430811 
L 254.683538 99.293374 
L 255.223377 100.401086 
L 255.054948 101.345365 
L 254.152337 101.529983 
L 251.811594 101.29694 
L 251.176743 101.859875 
L 251.232886 102.38044 
L 251.565427 102.83442 
L 251.980024 103.246029 
L 252.290971 103.627372 
L 252.610556 104.356767 
L 252.740117 104.922729 
L 252.895591 106.330068 
L 253.241088 108.058219 
L 253.288594 108.672606 
L 253.197901 109.223435 
L 252.99924 109.928618 
L 252.861041 110.64288 
L 252.947416 111.239108 
L 253.40088 111.653743 
L 254.255986 111.329904 
L 254.636032 111.747565 
L 254.804462 112.640393 
L 254.506471 113.064108 
L 254.027094 113.269913 
L 253.629772 113.515062 
L 252.973328 114.622774 
L 252.588962 115.119125 
L 252.087992 115.421779 
L 251.479053 115.346116 
L 250.636904 114.429075 
L 250.071153 114.25051 
L 248.943968 114.880029 
L 249.064892 116.057351 
L 249.963185 117.767344 
L 249.50972 117.903538 
L 248.253931 117.935869 
L 244.690036 118.027626 
L 243.398741 117.597858 
L 242.705303 117.14626 
L 241.68853 116.484093 
L 240.250399 114.949639 
L 239.801252 113.266886 
L 240.103562 112.694871 
L 241.010492 112.007847 
L 241.135735 111.429779 
L 241.070954 111.227001 
L 240.859337 110.939481 
L 240.768644 110.773021 
L 240.742732 110.600509 
L 240.742732 110.288775 
L 240.721138 110.164688 
L 240.600214 109.807556 
L 240.483609 109.562407 
L 240.315179 109.402001 
L 240.025826 109.293046 
L 238.859773 109.181064 
L 238.36744 108.96618 
L 237.866469 108.366926 
L 236.307413 105.198144 
L 236.100115 104.931809 
L 235.853948 104.780482 
L 235.568913 104.810747 
L 235.348659 105.037737 
L 235.232054 105.379736 
L 235.14568 105.73384 
L 235.016118 106.015308 
L 234.623115 106.227166 
L 234.281937 106.069786 
L 233.992583 105.682389 
L 233.755054 105.21025 
L 233.470019 104.444536 
L 233.284314 104.178201 
L 232.969048 104.035954 
L 232.69265 104.084379 
L 232.109624 104.438483 
L 231.828908 104.547439 
L 231.492048 104.535332 
L 230.818329 104.368873 
L 230.481469 104.347687 
L 229.868212 104.601916 
L 229.863316 104.719954 
L 229.846618 105.12248 
L 230.049598 105.836743 
L 230.127335 106.65996 
L 229.121074 106.626668 
L 228.024121 106.221112 
L 227.644703 105.978581 
L 226.991949 105.561328 
L 226.396204 104.922184 
L 225.454487 103.911866 
L 224.733262 103.312612 
L 223.9343 102.949428 
L 220.984619 102.701252 
L 220.362724 102.428864 
L 218.46249 101.072976 
L 217.45623 100.6765 
L 216.428376 100.891384 
L 215.970593 101.460373 
L 215.875581 102.189768 
L 215.84535 102.928242 
L 215.560315 103.542629 
L 214.826134 103.996609 
L 213.936479 104.184254 
L 213.520576 104.175966 
L 213.02523 104.166095 
L 212.213312 104.005689 
L 211.289107 103.572894 
L 208.978596 101.502744 
L 208.313514 101.145613 
L 207.661388 101.151666 
L 207.035175 101.475505 
L 204.495771 104.508094 
L 203.804777 105.149719 
L 203.446324 105.343417 
L 202.301865 105.564354 
L 201.066713 106.075839 
L 200.652117 106.124263 
L 199.809968 105.788318 
L 199.054193 105.098268 
L 196.709131 102.092919 
L 195.586266 100.994286 
L 194.342477 100.295157 
L 192.95617 100.21344 
L 192.053559 100.682553 
L 190.511778 102.307803 
L 189.648035 102.846526 
L 189.190252 102.907057 
L 188.274684 102.813234 
L 186.17579 103.088649 
L 185.864842 103.197604 
L 186.080778 102.819287 
L 186.465144 101.599594 
L 185.467521 102.123184 
L 184.96655 102.210954 
L 184.439667 102.032388 
L 184.741977 101.663151 
L 184.871538 101.339311 
L 184.824033 101.006393 
L 184.582185 100.61597 
L 184.253962 100.407139 
L 184.063939 100.637155 
L 183.955971 101.00034 
L 183.869597 101.197064 
L 182.478971 101.638938 
L 181.71024 101.720655 
L 181.131533 101.399842 
L 180.747167 101.072976 
L 179.373816 100.180149 
L 178.592129 99.859336 
L 176.968293 98.797022 
L 176.165012 100.534253 
L 175.987945 100.797562 
L 173.997018 100.939809 
L 173.547872 101.197064 
L 170.937631 99.996755 
L 169.842416 99.493125 
L 168.058788 98.158423 
L 167.24687 96.400006 
L 166.992065 96.605811 
L 166.331302 97.026499 
L 166.076498 97.238356 
L 166.253566 96.751084 
L 166.296753 96.393953 
L 166.231972 96.048928 
L 166.076498 95.597975 
L 165.674858 96.345529 
L 165.234349 96.045902 
L 164.724741 95.422435 
L 164.107165 95.201498 
L 164.279914 95.594948 
L 164.3922 96.000504 
L 163.528457 96.094326 
L 163.28661 95.770487 
L 163.312522 95.265056 
L 163.25206 94.801996 
L 162.9152 93.570196 
L 162.569703 93.234251 
L 161.425244 94.193662 
L 161.300001 94.463024 
L 160.958823 94.950296 
L 160.522633 95.434542 
L 160.185773 95.643373 
L 159.952563 96.297104 
L 159.542285 96.578572 
L 159.075864 96.778323 
L 158.656949 97.189932 
L 158.41942 97.889062 
L 158.449651 98.397519 
L 158.38487 98.824261 
L 157.862306 99.284294 
L 156.799902 99.423515 
L 148.473423 96.962942 
L 146.046306 96.881225 
L 144.081292 98.212901 
L 142.71226 101.224303 
L 142.142189 102.117131 
L 141.693043 102.443997 
L 140.59609 102.785995 
L 140.207406 103.055357 
L 139.896458 103.597107 
L 139.905096 103.926999 
L 139.99147 104.308342 
L 139.905096 104.995366 
L 139.710754 105.470532 
L 138.859967 107.050383 
L 138.402594 108.726038 
L 138.177611 109.550301 
L 137.158394 109.825716 
L 135.616614 109.477664 
L 134.023008 108.787614 
L 132.844 108.055193 
L 129.021938 104.265971 
L 128.292076 103.306559 
L 127.402421 101.018499 
L 126.763251 99.965265 
L 126.240687 99.565762 
L 125.32512 99.372064 
L 124.962348 99.102702 
L 124.98826 98.83334 
L 125.143734 98.403572 
L 125.165328 97.889062 
L 124.798237 97.368497 
L 124.297266 97.120322 
L 123.839483 97.099136 
L 122.880728 97.283755 
L 118.8816 97.174799 
L 116.622913 97.54101 
L 115.693901 98.391103 
L 115.266837 98.781889 
L 114.791778 100.059087 
L 114.75291 100.510041 
L 114.908384 103.98753 
L 114.726998 104.898517 
L 113.74665 107.425673 
L 113.729375 108.518253 
L 114.226027 110.294829 
L 114.066234 111.329904 
L 113.029743 113.127665 
L 112.833209 113.737613 
L 112.697202 114.159714 
L 112.83972 115.63061 
L 113.414109 116.807932 
L 114.083509 117.861166 
L 114.476512 118.974931 
L 114.277851 120.010006 
L 113.547989 120.348978 
L 112.688565 120.615313 
L 112.079626 121.423398 
L 112.131451 122.403995 
L 112.597872 123.420911 
L 113.651638 125.167222 
L 113.884848 125.466849 
L 114.869515 126.144793 
L 115.1891 126.683516 
L 115.461179 127.276717 
L 115.823951 127.664113 
L 116.437208 127.570291 
L 116.838848 127.437123 
L 117.585986 127.379619 
L 117.944439 127.258557 
L 118.255386 126.883267 
L 118.479959 126.380862 
L 118.773632 126.014652 
L 119.296196 126.047943 
L 119.581231 126.380862 
L 119.736705 126.928665 
L 119.848991 127.536999 
L 119.991509 128.045457 
L 120.311094 128.375349 
L 120.665228 128.281526 
L 121.010725 128.084801 
L 121.325991 128.115067 
L 121.775138 128.750639 
L 122.090404 130.209429 
L 122.647518 131.026594 
L 123.070752 131.311088 
L 123.593316 131.4836 
L 124.612532 131.628874 
L 125.126459 131.87705 
L 125.454681 132.427879 
L 125.66198 133.160301 
L 125.813135 133.9472 
L 125.748354 134.001677 
L 125.402857 134.180243 
L 125.217152 134.952009 
L 124.526158 135.841811 
L 124.197936 136.780037 
L 125.05736 137.706156 
L 125.921102 137.815112 
L 127.441289 137.137168 
L 128.326626 137.285468 
L 128.810322 137.924067 
L 129.086719 138.953089 
L 129.306974 140.100145 
L 130.334827 142.984433 
L 130.615544 144.095172 
L 130.624181 144.997079 
L 130.373696 145.414741 
L 130.019561 145.647784 
L 129.743164 145.892934 
L 129.72157 146.34994 
L 129.877044 146.165322 
L 130.343465 146.183481 
L 131.103558 146.380206 
L 131.97162 146.946168 
L 132.420766 147.394095 
L 132.536839 147.935451 
L 132.546008 147.978216 
L 132.433722 148.958814 
L 132.286886 149.449112 
L 131.863652 150.396418 
L 131.742728 151.035017 
L 131.781596 151.924818 
L 132.178918 153.755872 
L 132.960605 156.273949 
L 133.642962 157.278758 
L 135.456821 159.249033 
L 136.061441 160.3174 
L 136.989964 162.608486 
L 137.603222 163.640535 
L 138.406502 164.454673 
L 138.877242 164.82391 
L 139.28752 165.05998 
L 139.736666 165.105378 
L 140.824982 165.023661 
L 141.243897 165.196174 
L 141.783736 166.092028 
L 141.97376 166.954591 
L 142.314938 167.644641 
L 144.146072 168.316532 
L 144.880254 168.891573 
L 145.528061 169.66334 
L 145.983733 170.347385 
L 147.169172 172.126939 
L 149.216242 174.259133 
L 150.576636 176.171903 
L 152.299803 177.795639 
L 152.615069 178.647609 
L 152.766224 179.632746 
L 153.120358 180.876652 
L 153.72066 181.846656 
L 158.367595 185.607126 
L 164.975226 192.49552 
L 167.005022 194.909182 
L 168.333756 196.123443 
L 169.263709 196.973278 
L 171.695144 198.373051 
L 175.73746 199.013163 
L 177.033074 199.902964 
L 177.698156 201.416232 
L 176.91215 206.338891 
L 177.844992 209.261011 
L 179.464509 211.783628 
L 181.166082 213.411903 
L 182.01255 213.965759 
L 182.453059 214.378881 
L 182.729457 215.000834 
L 183.079272 216.199342 
L 183.562968 217.326727 
L 184.202138 218.104546 
L 184.571802 218.355221 
L 190.274249 222.222147 
L 190.719048 222.762346 
L 191.988778 224.304403 
L 193.267117 227.403575 
L 193.271436 227.405088 
L 193.275754 227.415681 
L 193.280073 227.418708 
L 193.422591 229.04093 
L 192.243582 229.936785 
L 189.993345 230.423985 
L 189.969541 230.409686 
L 188.697731 229.649478 
L 188.065227 229.923534 
L 187.276296 229.439765 
L 186.562178 228.662875 
L 186.133708 228.050419 
L 185.562413 226.963726 
L 185.405987 226.246413 
L 185.752845 225.719749 
L 186.705002 225.216915 
L 186.120105 224.983371 
L 185.439993 225.247895 
L 184.674867 225.698301 
L 183.84853 226.01287 
L 184.144379 225.862735 
L 184.960514 225.216915 
L 184.552446 225.207382 
L 184.144379 225.140656 
L 183.794121 224.911878 
L 183.535678 224.418577 
L 183.84853 224.015833 
L 183.590087 223.467721 
L 183.535678 223.215112 
L 182.63453 224.015833 
L 181.226697 222.705129 
L 178.94492 219.578504 
L 172.932727 216.382769 
L 171.49769 215.181687 
L 170.800575 214.802775 
L 170.491124 214.5454 
L 170.232681 213.773276 
L 169.91983 213.463473 
L 169.49816 213.258527 
L 169.07649 213.179885 
L 168.801045 213.036899 
L 168.515398 212.691349 
L 168.083526 211.981186 
L 168.005314 211.733344 
L 167.865891 210.970752 
L 167.797879 210.749124 
L 167.614249 210.646651 
L 167.083761 210.494133 
L 166.906932 210.38451 
L 162.969082 205.151226 
L 161.802689 204.350505 
L 161.374218 203.921547 
L 161.071568 203.535485 
L 160.741714 203.256663 
L 155.385829 202.463091 
L 152.937425 201.362099 
L 150.094555 200.732961 
L 146.292728 197.916139 
L 146.234918 197.766004 
L 146.197512 197.494331 
L 146.092094 197.234573 
L 145.867657 197.115418 
L 145.612615 197.179762 
L 145.235153 197.451435 
L 145.020917 197.515779 
L 143.439656 197.115418 
L 140.300938 197.115418 
L 140.300938 196.715057 
L 141.134076 196.705525 
L 142.089633 196.467215 
L 142.994183 196.052556 
L 143.725304 195.513976 
L 143.031589 195.061187 
L 142.072631 194.834793 
L 138.015761 194.751384 
L 137.522679 194.906286 
L 136.743951 195.40912 
L 136.451502 195.513976 
L 135.689776 195.637897 
L 133.95549 196.193159 
L 128.861449 196.314697 
L 128.861449 196.715057 
L 130.242077 197.082055 
L 130.833774 197.508629 
L 131.146626 198.352246 
L 128.575801 198.352246 
L 128.671017 198.983767 
L 128.058916 198.91704 
L 126.708893 198.352246 
L 125.596909 198.287902 
L 125.127632 198.044826 
L 124.529133 197.515779 
L 124.27069 197.515779 
L 124.27069 197.916139 
L 123.767407 197.551525 
L 122.835653 197.565824 
L 122.536404 197.115418 
L 122.502398 197.215508 
L 122.505799 197.387091 
L 122.454791 197.520545 
L 122.250757 197.515779 
L 122.325569 196.867576 
L 122.546606 196.757953 
L 122.87306 196.767486 
L 123.260724 196.514877 
L 123.400147 196.150263 
L 123.284528 195.871441 
L 123.202914 195.564021 
L 123.413749 195.118382 
L 122.730236 195.199407 
L 122.485396 195.292348 
L 122.250757 195.513976 
L 122.114734 194.942032 
L 121.774678 194.651294 
L 120.822521 194.31766 
L 121.516236 194.234252 
L 121.611451 193.841041 
L 121.244191 193.476427 
L 120.51647 193.47881 
L 120.51647 193.116579 
L 120.710302 192.997424 
L 120.917737 192.811542 
L 121.108168 192.678089 
L 120.689899 192.361137 
L 120.51647 192.282494 
L 120.822521 191.91788 
L 120.51647 191.51752 
L 120.822521 191.081413 
L 120.557277 190.209199 
L 120.99935 189.88748 
L 122.536404 189.916078 
L 122.536404 189.479971 
L 120.659294 189.072461 
L 119.965579 189.07961 
L 120.465462 188.750743 
L 120.87693 188.786489 
L 121.220387 188.972371 
L 121.536639 189.07961 
L 121.978712 188.912793 
L 121.914101 188.529114 
L 121.546841 188.126371 
L 121.108168 187.883295 
L 121.686264 187.6569 
L 121.954908 187.220793 
L 121.873295 186.706044 
L 121.393815 186.243723 
L 121.42442 187.344714 
L 121.067361 187.411441 
L 120.047193 186.534461 
L 119.469097 186.005413 
L 119.18005 186.014945 
L 118.795786 185.938686 
L 118.544145 185.848129 
L 118.282301 185.557391 
L 117.707607 184.632748 
L 117.42536 184.282433 
L 115.73188 183.317278 
L 115.259202 182.845425 
L 114.375056 182.523706 
L 111.67161 182.321143 
L 111.100315 181.665791 
L 110.661643 180.343171 
L 109.672079 179.88085 
L 108.607704 179.566281 
L 107.958196 178.684535 
L 109.206202 179.249329 
L 109.865911 179.418529 
L 110.52562 179.485256 
L 110.52562 179.049149 
L 110.28078 178.93476 
L 110.110752 178.949059 
L 110.018937 179.008636 
L 109.97813 179.049149 
L 108.852544 178.062546 
L 106.145697 176.692264 
L 105.009909 175.693746 
L 104.938498 175.631786 
L 104.091758 174.294867 
L 103.56127 173.672879 
L 102.95597 173.413121 
L 102.316665 173.317797 
L 101.949404 173.201025 
L 101.633152 173.05089 
L 101.174076 172.679127 
L 100.949639 172.307363 
L 100.779611 171.899853 
L 100.490563 171.413701 
L 98.205386 168.618327 
L 97.120606 166.95969 
L 96.348679 166.158969 
L 95.50874 165.815803 
L 93.757451 163.642417 
L 93.788056 163.451769 
L 91.904145 161.38324 
L 91.434867 161.106801 
L 91.054005 160.789848 
L 90.883976 160.372806 
L 91.047203 159.781798 
L 90.387494 159.300412 
L 88.197533 157.017404 
L 88.860642 155.978373 
L 88.517186 154.68435 
L 87.653443 153.552378 
L 86.769297 152.982818 
L 87.265779 152.370362 
L 88.034306 151.922339 
L 88.741623 152.04626 
L 89.054474 153.166316 
L 89.537354 153.826435 
L 90.428301 153.395094 
L 90.839769 152.489517 
L 89.904615 151.750756 
L 90.224267 151.664964 
L 90.271875 151.560108 
L 90.288878 151.550576 
L 90.475909 151.750756 
L 90.788761 151.750756 
L 90.564324 151.040593 
L 90.435102 150.797517 
L 92.502644 152.18448 
L 93.373188 153.328367 
L 93.839064 153.719195 
L 94.495373 153.783539 
L 93.93088 151.750756 
L 94.29814 151.631601 
L 94.481771 151.467167 
L 94.604191 151.245539 
L 94.808225 150.945269 
L 94.247132 150.766536 
L 93.781255 150.320897 
L 93.393591 149.696525 
L 93.073938 148.986362 
L 93.879871 149.281866 
L 95.053065 150.351877 
L 96.23646 150.797517 
L 99.228955 152.518114 
L 99.895465 152.770722 
L 103.200811 153.283088 
L 104.10536 153.197297 
L 104.248184 152.546711 
L 103.670088 152.1535 
L 100.929235 151.750756 
L 100.718401 151.569641 
L 99.460193 149.925303 
L 99.123537 149.686993 
L 95.02586 147.709021 
L 94.434163 147.098948 
L 88.636205 141.131669 
L 86.674081 138.369658 
L 85.504288 137.068487 
L 84.331094 136.517991 
L 84.157666 136.232019 
L 82.797441 135.135794 
L 82.464186 135.097664 
L 82.212544 134.582915 
L 78.036655 128.043693 
L 77.302133 126.084786 
L 77.778212 125.350791 
L 77.723803 124.483344 
L 77.455159 123.463377 
L 77.302133 122.269445 
L 77.200116 119.030814 
L 77.302133 118.010848 
L 78.199882 114.312279 
L 78.601148 113.416234 
L 78.883394 112.310477 
L 78.577344 110.985474 
L 76.159545 105.418556 
L 76.006519 104.412888 
L 75.578049 103.717024 
L 74.945544 103.223722 
L 72.37812 101.853441 
L 67.862174 98.383649 
L 65.723221 95.585892 
L 65.141725 95.266557 
L 64.441209 94.537329 
L 64.131758 93.736607 
L 64.699652 93.186112 
L 64.223573 92.69996 
L 62.700122 91.58467 
L 63.448245 92.464033 
L 63.580867 92.568889 
L 63.434643 93.026444 
L 63.074183 93.274286 
L 62.645713 93.271903 
L 62.285253 92.985931 
L 61.703757 92.342495 
L 57.184411 90.066636 
L 55.565743 89.713937 
L 54.824421 89.304044 
L 54.15111 89.165825 
L 53.389384 89.752067 
L 52.522241 91.127115 
L 51.736711 92.907289 
L 51.172218 94.918624 
L 50.723344 98.977041 
L 50.179254 100.84539 
L 50.152049 100.933565 
L 50.090839 101.150427 
L 49.114878 102.496877 
L 47.866872 102.020258 
L 48.533382 102.835277 
L 48.441567 103.712258 
L 47.911079 104.541576 
L 47.241169 105.218376 
L 46.982726 104.782269 
L 46.819499 105.27557 
L 46.809297 105.68308 
L 46.982726 106.781688 
L 46.819499 106.676832 
L 46.533852 106.543379 
L 46.384227 106.419457 
L 46.384227 106.781688 
L 47.033734 107.534747 
L 47.315981 108.788257 
L 47.213964 110.146623 
L 46.697079 111.216635 
L 46.217599 111.576482 
L 45.880944 111.533587 
L 45.561291 111.338173 
L 45.105616 111.216635 
L 44.605733 111.404899 
L 44.119453 111.860071 
L 43.731789 112.401035 
L 43.534556 112.853823 
L 43.248909 112.853823 
L 43.364528 111.709936 
L 43.697783 111.190421 
L 43.874612 110.694736 
L 43.534556 109.615192 
L 42.65041 108.816854 
L 42.52459 108.373598 
L 42.5892 107.956556 
L 42.541592 107.670584 
L 42.055312 107.615773 
L 42.215138 108.306871 
L 42.038309 109.345902 
L 42.22194 109.815373 
L 42.657211 110.101344 
L 43.051677 110.146623 
L 43.361128 110.287226 
L 43.534556 110.852021 
L 43.078881 111.295277 
L 42.493984 112.446313 
L 42.228741 112.744201 
L 42.055312 112.453463 
L 41.820673 112.453463 
L 41.990701 112.860973 
L 42.051911 113.349508 
L 42.004304 113.890471 
L 41.820673 114.448116 
L 41.484018 114.345643 
L 41.310589 114.379006 
L 41.31739 114.548206 
L 41.535026 114.85086 
L 41.535026 115.248837 
L 41.320791 115.270285 
L 41.269782 115.322713 
L 41.279984 115.456167 
L 41.228976 115.68971 
L 40.814107 115.446634 
L 39.889154 115.708775 
L 39.229445 115.68971 
L 39.566101 115.956617 
L 39.780336 116.218758 
L 40.079586 116.850279 
L 39.793939 116.850279 
L 39.793939 117.214893 
L 40.079586 117.214893 
L 40.079586 117.651 
L 39.780336 117.853564 
L 39.589905 118.108555 
L 39.229445 118.849699 
L 39.311059 119.288189 
L 39.382471 119.416876 
L 39.37907 119.567012 
L 39.229445 120.050781 
L 39.671518 120.02695 
L 39.929961 120.141338 
L 40.120392 120.410628 
L 40.372034 120.846735 
L 38.862185 120.918228 
L 38.127663 120.80384 
L 37.515562 120.410628 
L 37.433949 120.653704 
L 37.427148 120.718048 
L 37.229915 120.846735 
L 36.974873 119.910178 
L 36.597411 119.798172 
L 36.175741 119.910178 
L 35.781276 119.65042 
L 35.488828 120.050781 
L 35.937702 120.241428 
L 36.372974 120.598893 
L 36.583808 121.085045 
L 36.379775 121.683203 
L 36.753836 122.641209 
L 36.944268 122.884285 
L 36.325366 123.227451 
L 36.16894 122.667423 
L 36.182542 121.7118 
L 36.066923 120.846735 
L 35.760872 120.610809 
L 34.523068 120.107975 
L 34.067393 120.050781 
L 34.155807 119.852983 
L 34.264625 119.440707 
L 34.35304 119.252443 
L 34.220418 119.223845 
L 33.917768 119.259592 
L 33.781746 119.252443 
L 34.067393 118.849699 
L 33.781746 118.411209 
L 33.32607 118.523214 
L 32.669762 118.29682 
L 31.986249 117.829733 
L 31.476165 117.214893 
L 31.789016 116.850279 
L 32.217487 117.477034 
L 32.832989 117.648617 
L 33.424687 117.314983 
L 33.781746 116.449919 
L 32.652759 116.719209 
L 32.217487 116.609586 
L 31.789016 116.049558 
L 31.789016 115.68971 
L 31.959045 115.522893 
L 32.159678 115.132065 
L 32.35351 114.85086 
L 31.877431 114.297981 
L 30.932075 112.017356 
L 29.20459 110.194285 
L 27.055435 107.182049 
L 26.72218 106.905609 
L 26.198493 106.312218 
L 25.487776 105.768872 
L 24.627434 105.618736 
L 24.814465 105.246973 
L 25.038902 104.660731 
L 25.198728 104.417655 
L 24.18196 102.994945 
L 25.266739 102.282398 
L 28.932545 102.020258 
L 28.11641 101.634196 
L 27.15065 101.500742 
L 25.198728 101.579384 
L 24.158156 101.886804 
L 23.682078 101.858207 
L 23.488246 101.381587 
L 23.569859 100.764365 
L 23.682078 100.256765 
L 23.631069 99.865937 
L 23.202598 99.620478 
L 23.39643 99.2225 
L 23.423635 98.926996 
L 23.263809 98.664855 
L 22.916951 98.383649 
L 22.916951 98.019035 
L 23.260408 97.804557 
L 23.427035 97.444709 
L 23.416834 96.968089 
L 23.202598 96.386613 
L 23.478044 95.809903 
L 23.457641 95.209362 
L 23.165192 94.694613 
L 22.631304 94.38481 
L 22.770727 94.027345 
L 22.998565 93.729458 
L 23.325019 93.550726 
L 23.770492 93.550726 
L 23.770492 93.186112 
L 23.345422 92.983548 
L 23.015568 92.726174 
L 22.777528 92.385391 
L 22.631304 91.949284 
L 23.059775 91.870641 
L 23.427035 91.67761 
L 24.056139 91.148563 
L 23.569859 90.90072 
L 22.447674 90.862591 
L 22.06001 90.783949 
L 21.594133 90.319244 
L 21.203068 89.625763 
L 21.172463 89.003774 
L 21.774363 88.751166 
L 21.774363 88.384168 
L 21.281281 87.867036 
L 20.036676 84.349583 
L 20.12169 84.237577 
L 20.254311 84.10889 
L 20.346127 83.951605 
L 20.145493 83.691848 
L 20.131891 83.651335 
L 20.223706 83.556011 
L 20.346127 83.117521 
L 19.669415 81.558974 
L 19.540194 80.696293 
L 19.774832 79.91702 
L 20.036676 79.91702 
L 20.444743 80.24827 
L 22.345657 81.153848 
L 23.03617 81.244227 
L 23.219601 81.268236 
L 24.664484 82.796352 
L 25.446445 82.989475 
L 25.450625 82.990507 
L 26.163054 82.958424 
L 30.313428 82.771519 
L 32.28708 84.003319 
L 32.844194 84.560201 
L 33.500638 84.766006 
L 35.733413 85.086818 
L 36.178241 84.759953 
L 36.545331 84.193991 
L 37.15427 83.603816 
L 39.110647 82.783625 
L 39.646167 82.060283 
L 38.760831 81.016129 
L 38.760831 80.38661 
L 38.907667 79.971974 
L 39.197021 79.781302 
L 39.848282 79.916989 
L 40.954738 80.147513 
L 41.555039 80.459246 
L 42.107834 81.013102 
L 43.157281 81.769736 
L 44.254234 82.142 
L 45.249993 82.195886 
L 45.273966 82.197183 
L 45.372781 82.20253 
L 46.45246 82.005806 
L 48.439068 81.088766 
L 49.510109 80.780059 
L 50.425676 81.004023 
L 52.08838 81.721311 
L 54.027483 82.084496 
L 55.94931 81.911983 
L 57.555871 81.013102 
L 58.328921 80.29884 
L 59.965713 79.115465 
L 60.518509 78.128814 
L 60.738763 77.299544 
L 60.909536 75.978007 
L 60.941743 75.728772 
L 61.205184 74.981218 
L 61.593868 74.415256 
L 62.647634 73.253066 
L 63.088143 72.623547 
L 63.610707 71.437145 
L 63.934611 71.086067 
L 64.151851 70.994723 
L 64.647199 70.78644 
L 65.104982 71.046722 
L 65.195675 71.945603 
L 65.148169 73.020023 
L 65.187038 73.809949 
L 65.571403 74.548423 
L 66.111242 75.105306 
L 67.545055 76.231177 
L 67.838728 76.352238 
L 68.103976 76.503806 
L 68.119444 76.512645 
L 68.361292 76.833457 
L 68.439029 77.287438 
L 68.292193 78.322513 
L 68.305149 78.625166 
L 69.134342 79.324296 
L 73.012546 81.004023 
L 73.016865 81.004023 
L 73.021184 81.013102 
L 73.025502 81.016129 
L 73.681947 82.653484 
L 75.422388 83.016668 
L 77.210335 82.384123 
L 78.013616 81.016129 
L 78.164771 79.769196 
L 78.924865 79.738931 
L 79.874981 80.350291 
L 80.596207 81.016129 
L 81.210853 81.098891 
L 81.585192 81.149296 
L 82.051613 81.36418 
L 82.466209 81.736444 
L 84.504642 81.790922 
L 84.920933 82.141076 
L 87.976888 84.711528 
L 89.855528 84.97181 
L 91.595047 84.336404 
L 93.923756 83.485781 
L 95.279832 83.51302 
L 95.746253 83.376826 
L 96.109025 83.043907 
L 96.856162 82.011859 
L 97.257802 81.666834 
L 95.154589 80.268575 
L 94.554288 79.269818 
L 94.217428 78.004726 
L 93.966943 76.479353 
L 93.948835 76.427256 
L 93.720776 75.771144 
L 93.422785 75.141624 
L 93.379598 74.660405 
L 93.902162 74.397097 
L 94.187197 74.151947 
L 94.342671 73.688887 
L 94.584519 73.253066 
L 95.811033 72.868696 
L 96.329279 72.596308 
L 96.912305 72.396557 
L 97.776048 72.40261 
L 97.547156 71.885073 
L 96.8648 70.771308 
L 96.784267 70.680364 
L 96.109025 69.917825 
L 95.979463 69.805843 
L 95.82399 69.887559 
L 95.3187 70.020727 
L 95.128677 70.178107 
L 95.072533 70.414177 
L 94.899785 70.532211 
L 94.355627 70.33246 
L 93.984218 70.066125 
L 93.763963 69.778604 
L 93.349367 68.991705 
L 92.947727 68.601282 
L 92.641098 68.452982 
L 92.559042 68.207833 
L 92.600581 68.096819 
L 92.813846 67.526862 
L 93.167981 67.121306 
L 94.852279 66.198213 
L 95.990199 65.827123 
L 100.08656 64.491248 
L 100.115457 64.468028 
L 100.58753 64.088718 
L 100.52275 63.531836 
L 100.358639 62.920476 
L 100.557299 62.372673 
L 101.015083 62.157789 
L 101.485823 62.212267 
L 101.960881 62.36662 
L 102.440258 62.448336 
L 102.854855 62.303063 
L 103.632223 61.673543 
L 104.033864 61.473792 
L 105.129521 61.656728 
L 106.69851 61.918693 
L 108.318027 61.861189 
L 109.134264 61.631172 
L 109.989369 61.189298 
L 110.408284 60.60215 
L 110.382372 59.766826 
L 109.890039 58.589504 
L 109.712971 57.84195 
L 109.877083 57.139794 
L 110.170755 56.446717 
L 110.386691 55.714296 
L 110.451471 54.739752 
L 110.379223 52.942328 
L 110.330547 51.731376 
L 110.334866 51.722296 
L 110.654451 50.538921 
L 111.142466 49.821632 
L 111.323851 49.210272 
L 111.110439 48.892461 
L 110.736507 48.335604 
L 110.226898 47.969393 
L 109.056527 47.494227 
L 108.546919 47.197626 
L 108.215707 46.855521 
L 107.389504 46.002145 
L 106.806477 44.682576 
L 106.810796 43.208653 
L 107.411097 41.550112 
L 108.184147 40.103428 
L 108.339664 39.898083 
L 108.892416 39.168229 
L 109.790708 38.720302 
L 110.487636 38.770512 
L 113.487527 38.986637 
L 114.286489 38.484232 
L 115.132957 37.095052 
L 115.566774 36.770767 
L 115.715983 36.659231 
L 116.350834 36.365658 
L 117.015916 36.199198 
L 118.901185 36.144034 
L 118.966845 36.142112 
L 119.084579 36.138667 
L 120.555079 35.352261 
L 121.80105 34.685931 
L 123.191676 34.443808 
L 123.679214 34.31058 
L 123.878351 34.256163 
L 124.746412 33.829421 
L 125.571287 33.266486 
L 126.029855 32.780733 
L 126.132719 32.671772 
L 126.435029 31.868226 
L 126.439348 31.107053 
L 126.344336 30.267189 
L 126.36593 29.220008 
L 127.648311 29.480423 
L 127.886117 29.528715 
L 128.374131 29.442459 
L 128.771453 29.117106 
L 129.091038 28.672205 
L 129.440854 28.310535 
L 129.954781 28.213685 
L 130.36074 28.40587 
L 131.362681 29.333503 
L 131.958663 29.673989 
L 132.662614 29.831368 
L 133.016748 29.816236 
L 134.506704 29.460618 
L 135.46114 29.475751 
L 135.655482 29.297185 
L 135.641247 29.153868 
L 135.590701 28.644967 
L 135.396359 28.366525 
L 134.683772 27.909519 
L 134.428967 27.611405 
L 134.316681 27.12262 
L 134.394418 26.179854 
L 134.364187 25.706201 
L 133.867535 24.093058 
L 133.707742 23.29254 
L 133.729582 22.932235 
L 133.759567 22.437543 
L 134.847086 21.252312 
L 134.973125 21.114948 
L 136.286014 20.615569 
L 136.925184 20.232713 
L 137.732783 19.970917 
L 138.162618 19.480599 
L 138.324447 19.296 
L 138.621348 19.709284 
L 138.639713 19.734848 
L 138.898836 19.296 
L 139.382532 19.67129 
L 139.913733 19.740901 
L 140.444935 19.698529 
L 140.919993 19.734848 
L 141.291403 19.964864 
L 141.995353 20.688206 
L 142.345169 20.933355 
L 142.707941 20.9727 
L 143.614871 20.860719 
L 144.055379 20.933355 
L 144.465657 21.160346 
L 145.476236 21.947245 
" clip-path="url(#p180d38abbc)" style="fill: #f5f5f5; stroke: #000000"/>
    <path d="M 225.791347 252.847655 
L 225.985689 253.796474 
L 225.752478 255.685031 
L 225.782709 256.701947 
L 226.0807 257.608394 
L 226.525528 258.381674 
L 227.061048 259.045999 
L 227.384952 259.254829 
L 228.110496 259.690651 
L 228.317794 260.347409 
L 228.259865 261.216 
L 227.341713 259.750394 
L 226.77722 259.364333 
L 225.38299 258.935375 
L 224.77769 258.549313 
L 224.726681 257.719995 
L 217.500488 252.856091 
L 216.731961 251.67884 
L 216.745563 251.142643 
L 216.840779 250.334773 
L 216.854381 249.598395 
L 216.60614 249.281443 
L 214.453585 248.881082 
L 212.732901 247.846818 
L 212.056189 247.682384 
L 211.345471 247.632339 
L 210.692564 247.453607 
L 210.189281 247.084226 
L 209.913835 246.481302 
L 210.746973 246.481302 
L 209.852625 245.597173 
L 209.515969 245.151533 
L 209.322137 244.481883 
L 208.699834 245.111021 
L 207.652462 244.562908 
L 205.894371 242.880441 
L 203.40516 241.562587 
L 202.531216 240.575984 
L 203.037899 239.281962 
L 201.878308 239.33439 
L 200.6201 238.323956 
L 199.436705 238.047517 
L 199.161259 238.102328 
L 198.838206 238.245314 
L 198.55936 238.443111 
L 198.328122 238.924497 
L 198.062878 238.829173 
L 197.811236 238.609928 
L 197.71262 238.486007 
L 197.437174 238.300125 
L 196.447611 237.458892 
L 195.855913 237.208666 
L 196.634642 237.98079 
L 197.015505 238.545584 
L 197.566396 239.992125 
L 197.566396 240.2495 
L 197.284149 240.447297 
L 197.015505 240.382953 
L 197.015505 240.025489 
L 197.080115 239.582232 
L 197.022306 239.281962 
L 196.182367 238.700486 
L 194.084221 237.794909 
L 192.20031 237.401697 
L 189.969541 236.329303 
L 187.677563 235.897962 
L 184.134177 234.449038 
L 184.229393 232.969134 
L 183.165017 232.232757 
L 180.39356 231.613151 
L 177.06781 229.177625 
L 175.653177 228.708154 
L 174.986667 228.214853 
L 174.667014 228.050419 
L 174.167131 227.950329 
L 169.715796 227.94318 
L 168.341969 227.614312 
L 167.658456 227.321191 
L 166.879728 226.823123 
L 166.478461 226.222582 
L 166.906932 225.617275 
L 166.906932 225.216915 
L 166.515868 225.035799 
L 166.271027 224.735529 
L 166.066993 224.378064 
L 165.798349 224.015833 
L 166.696097 224.18265 
L 168.056322 225.33607 
L 168.790843 225.617275 
L 172.361433 225.216915 
L 175.768796 225.698301 
L 182.046232 228.336391 
L 183.522076 229.322994 
L 184.705472 230.41207 
L 184.773483 230.638464 
L 184.780284 230.960182 
L 184.81769 231.308115 
L 184.960514 231.613151 
L 185.154346 231.675112 
L 185.644027 231.575022 
L 185.84806 231.613151 
L 186.592783 232.194627 
L 186.943041 232.356678 
L 187.412319 232.411489 
L 187.568745 232.289951 
L 187.548341 231.739455 
L 187.714969 231.613151 
L 187.96321 231.682261 
L 188.357675 231.982531 
L 188.56851 232.051641 
L 189.085395 232.137433 
L 189.469659 232.356678 
L 190.122566 232.847596 
L 191.758236 233.398092 
L 192.540366 233.798452 
L 193.002842 234.449038 
L 193.264685 234.449038 
L 193.880187 234.348948 
L 195.648479 236.15772 
L 196.712855 236.446075 
L 195.437644 235.428492 
L 195.060182 234.73501 
L 195.549863 234.012931 
L 195.288019 233.648317 
L 194.091022 234.09634 
L 193.030047 233.41954 
L 193.556471 232.586516 
L 194.122222 231.970616 
L 195.046427 231.746653 
L 195.966313 231.937324 
L 197.715392 232.647047 
L 198.605047 232.807453 
L 198.937588 232.619808 
L 199.270128 232.324721 
L 199.650175 232.311101 
L 200.133871 232.984505 
L 200.254795 233.553494 
L 200.207289 234.965373 
L 200.293663 235.634237 
L 201.602234 237.751298 
L 202.060017 238.053952 
L 203.524061 238.47918 
L 204.543277 239.284238 
L 206.339862 241.38314 
L 207.32021 242.233596 
L 209.578897 243.737784 
L 216.881841 248.814797 
L 218.259511 249.586563 
L 220.535473 250.387082 
L 221.666975 250.311418 
L 222.124759 250.676116 
L 222.967766 251.958567 
L 222.997139 252.003252 
L 223.614715 252.4194 
L 225.10899 252.588886 
L 225.791347 252.847655 
" clip-path="url(#p180d38abbc)" style="fill: #f5f5f5; stroke: #000000"/>
    <path d="M 159.803159 239.682322 
L 162.431793 240.082683 
L 162.969082 240.447297 
L 163.071099 241.350491 
L 162.581418 242.177427 
L 161.778885 242.742221 
L 160.921944 242.880441 
L 160.806325 242.470548 
L 160.466268 242.399055 
L 159.803159 242.084486 
L 159.364486 242.634981 
L 158.806794 242.789883 
L 158.242301 242.489612 
L 157.783225 241.684125 
L 158.303511 241.374322 
L 158.378324 240.850041 
L 158.160688 240.540238 
L 157.783225 240.883404 
L 157.497578 240.883404 
L 157.800228 240.189922 
L 158.548352 239.861055 
L 159.803159 239.682322 
" clip-path="url(#p180d38abbc)" style="fill: #f5f5f5; stroke: #000000"/>
    <path d="M 193.264685 242.084486 
L 194.118226 242.851843 
L 196.253779 243.814615 
L 197.022306 244.920373 
L 181.855801 240.447297 
L 181.349117 241.088351 
L 180.512579 240.697522 
L 179.706646 239.896801 
L 179.257772 239.281962 
L 180.002495 239.131827 
L 181.349117 238.590863 
L 182.124445 238.645675 
L 181.917011 238.731466 
L 181.692574 238.872069 
L 181.257302 239.281962 
L 181.719779 239.2343 
L 182.165252 239.262897 
L 182.590322 239.4035 
L 182.964384 239.682322 
L 183.277236 239.281962 
L 183.984553 239.763348 
L 186.038492 239.789562 
L 187.612952 240.804762 
L 189.734902 241.23372 
L 190.697261 241.684125 
L 190.56804 241.805663 
L 190.530634 241.836643 
L 190.411614 242.084486 
L 192.815811 242.346627 
L 193.264685 242.084486 
" clip-path="url(#p180d38abbc)" style="fill: #f5f5f5; stroke: #000000"/>
    <path d="M 171.239248 228.815394 
L 171.943164 229.809146 
L 172.596072 230.459731 
L 174.095719 231.613151 
L 173.810072 232.051641 
L 173.014341 231.598853 
L 172.126794 231.651281 
L 170.219079 232.051641 
L 166.369643 231.212791 
L 164.597951 231.324796 
L 161.496639 232.547326 
L 159.520912 232.847596 
L 154.855342 231.882441 
L 152.835408 231.236622 
L 152.06008 231.322413 
L 152.049878 231.613151 
L 151.33236 231.35101 
L 150.621642 230.852943 
L 153.478114 229.251501 
L 153.478114 228.815394 
L 152.682383 228.558019 
L 151.03311 228.334008 
L 150.339396 228.050419 
L 151.216741 227.478475 
L 152.141694 227.447495 
L 153.09045 227.607163 
L 154.049409 227.614312 
L 154.923353 228.167191 
L 156.059141 228.658109 
L 158.378324 229.251501 
L 160.6601 229.251501 
L 161.241596 229.063236 
L 162.200555 228.524656 
L 167.070159 228.050419 
L 170.372104 229.122813 
L 171.239248 228.815394 
" clip-path="url(#p180d38abbc)" style="fill: #f5f5f5; stroke: #000000"/>
    <path d="M 134.023501 222.817135 
L 134.20033 222.55976 
L 134.383961 222.381028 
L 134.533585 222.471586 
L 134.594796 223.017315 
L 134.479176 223.377163 
L 134.20033 223.648836 
L 133.71065 224.015833 
L 133.217568 224.673568 
L 132.731288 225.083461 
L 129.014474 226.248797 
L 127.586238 226.360802 
L 126.583072 226.01287 
L 127.47402 225.512419 
L 127.582837 224.606842 
L 127.249582 223.910977 
L 126.841515 224.015833 
L 126.583072 224.015833 
L 125.984574 223.215112 
L 126.158002 223.031614 
L 126.338232 222.919608 
L 126.545666 222.857647 
L 126.841515 222.817135 
L 127.810675 222.185614 
L 129.385135 221.85198 
L 131.054811 221.894876 
L 132.289215 222.381028 
L 132.07838 222.674149 
L 132.003568 222.817135 
L 132.962526 222.395326 
L 133.479411 222.423924 
L 134.023501 222.817135 
" clip-path="url(#p180d38abbc)" style="fill: #f5f5f5; stroke: #000000"/>
    <path d="M 152.90682 219.578504 
L 151.947862 219.68336 
L 147.3367 218.658628 
L 143.806917 217.281197 
L 142.545309 217.028589 
L 141.797185 216.497158 
L 141.327908 216.382769 
L 139.471201 215.582048 
L 139.64803 215.32229 
L 139.838462 215.203135 
L 140.300938 215.181687 
L 140.824624 215.484341 
L 141.297303 215.408082 
L 142.320872 214.74558 
L 142.582715 215.181687 
L 142.708536 214.938611 
L 143.177813 214.383349 
L 143.177813 214.74558 
L 144.687662 214.259428 
L 145.966274 215.067299 
L 147.132666 216.025304 
L 148.316062 215.982408 
L 147.173473 214.74558 
L 146.061489 214.052099 
L 145.694229 213.620758 
L 146.299529 213.694634 
L 147.45912 213.620758 
L 148.316062 214.383349 
L 148.475888 214.366668 
L 148.887356 214.044949 
L 149.173003 213.944859 
L 149.70009 213.940093 
L 150.937895 214.152189 
L 151.502388 214.383349 
L 151.784635 214.68362 
L 152.046478 215.141175 
L 152.386534 215.624944 
L 152.90682 215.982408 
L 152.927223 216.254082 
L 152.869414 216.325575 
L 152.753795 216.325575 
L 152.621173 216.382769 
L 153.437308 217.028589 
L 154.352059 217.39082 
L 155.334821 217.548104 
L 159.38489 217.524273 
L 160.065002 217.142977 
L 160.649899 217.72922 
L 161.415025 217.967529 
L 164.006253 218.105749 
L 166.505666 218.782549 
L 170.321096 218.610966 
L 172.218609 218.813529 
L 173.810072 219.578504 
L 163.358446 219.578504 
L 152.90682 219.578504 
" clip-path="url(#p180d38abbc)" style="fill: #f5f5f5; stroke: #000000"/>
    <path d="M 144.867892 210.38451 
L 141.572748 208.432753 
L 140.899437 207.54624 
L 141.236092 207.772634 
L 141.470731 207.987113 
L 141.756378 207.987113 
L 141.776782 207.617733 
L 141.899202 207.560539 
L 142.093034 207.603434 
L 142.320872 207.54624 
L 142.089633 207.124432 
L 142.116838 206.743136 
L 142.399085 206.46193 
L 142.892166 206.347541 
L 142.317471 205.308511 
L 141.756378 203.950144 
L 142.623522 203.907249 
L 142.892166 203.950144 
L 144.582245 204.641243 
L 152.678982 204.951046 
L 157.783225 206.347541 
L 157.783225 206.745519 
L 157.211931 206.745519 
L 157.657404 206.974296 
L 158.05187 207.105367 
L 158.385125 207.060088 
L 158.640167 206.745519 
L 159.017629 207.067237 
L 159.803159 207.987113 
L 160.255434 208.139631 
L 160.619294 208.089586 
L 160.928745 208.175378 
L 161.231395 208.747322 
L 160.697507 209.817333 
L 160.394857 210.165265 
L 160.065002 209.948403 
L 159.303276 211.020797 
L 157.922648 211.349665 
L 150.196572 211.585592 
L 147.510129 211.213828 
L 144.867892 210.38451 
" clip-path="url(#p180d38abbc)" style="fill: #f5f5f5; stroke: #000000"/>
    <path d="M 140.300938 206.745519 
L 139.654831 207.503344 
L 138.512243 207.195924 
L 135.716981 205.399068 
L 133.649439 204.514939 
L 132.595265 204.350505 
L 132.568061 204.085981 
L 132.62587 204.007339 
L 132.731288 204.002573 
L 132.853708 203.950144 
L 132.44224 203.606978 
L 132.31982 203.192319 
L 132.534055 202.849153 
L 133.139355 202.713316 
L 135.519748 202.906347 
L 136.403894 203.392499 
L 136.594326 204.350505 
L 137.726713 204.207519 
L 138.512243 204.874787 
L 139.267167 205.880454 
L 140.300938 206.745519 
" clip-path="url(#p180d38abbc)" style="fill: #f5f5f5; stroke: #000000"/>
    <path d="M 110.52562 189.07961 
L 113.096445 190.280692 
L 110.627637 189.530016 
L 110.239973 189.699216 
L 109.865911 189.215447 
L 108.050012 187.854697 
L 107.386902 187.516298 
L 107.703154 187.082574 
L 107.876583 187.382844 
L 108.050012 187.473402 
L 109.325222 187.614005 
L 109.804701 188.057261 
L 110.141357 188.626821 
L 110.52562 189.07961 
" clip-path="url(#p180d38abbc)" style="fill: #f5f5f5; stroke: #000000"/>
    <path d="M 93.073938 176.249008 
L 93.288174 176.840016 
L 96.467699 179.485256 
L 96.964181 180.157289 
L 97.50827 180.75783 
L 98.691666 181.794478 
L 98.327806 181.53472 
L 95.862399 180.393216 
L 95.066667 179.84987 
L 94.209726 178.684535 
L 93.073938 177.848067 
L 92.516246 177.307104 
L 91.910946 176.53498 
L 91.676307 175.817667 
L 92.216997 175.448287 
L 93.073938 176.249008 
" clip-path="url(#p180d38abbc)" style="fill: #f5f5f5; stroke: #000000"/>
    <path d="M 94.808225 170.434248 
L 94.573586 169.747915 
L 93.448 168.446744 
L 93.073938 167.817606 
L 93.86967 167.831904 
L 94.542981 168.136941 
L 96.78055 169.852772 
L 97.977548 170.124445 
L 98.205386 170.21262 
L 98.310803 170.548637 
L 98.429823 171.530473 
L 98.521638 171.849808 
L 98.773279 172.142929 
L 99.337773 172.393155 
L 99.657425 172.614783 
L 99.99068 173.029442 
L 100.35114 173.660963 
L 100.657191 174.375893 
L 100.796614 175.052693 
L 100.490563 174.866811 
L 100.184512 174.745273 
L 99.861459 174.67378 
L 99.501 174.647566 
L 99.167745 174.547476 
L 99.02152 174.309166 
L 98.936506 174.042259 
L 98.77668 173.846845 
L 97.705503 173.508445 
L 97.14441 173.186727 
L 96.78055 172.614783 
L 96.964181 172.478946 
L 97.066197 172.250169 
L 96.511906 171.999944 
L 95.756981 171.485194 
L 95.093872 170.898952 
L 94.808225 170.434248 
" clip-path="url(#p180d38abbc)" style="fill: #f5f5f5; stroke: #000000"/>
    <path d="M 92.788291 167.417245 
L 92.264604 166.838152 
L 91.863338 166.037431 
L 91.489276 165.520299 
L 91.047203 165.815803 
L 90.788761 165.815803 
L 90.737752 165.551279 
L 90.656139 165.391612 
L 90.574525 165.243859 
L 90.475909 165.019848 
L 90.061041 165.665668 
L 89.248306 165.029381 
L 88.374362 163.992733 
L 87.248776 163.063324 
L 85.796736 161.218806 
L 85.028209 160.618265 
L 85.116624 160.403786 
L 85.130226 160.353741 
L 85.167632 160.334677 
L 85.313856 160.217905 
L 85.143828 159.89142 
L 84.769767 158.981077 
L 91.591293 164.586124 
L 92.48224 165.730012 
L 92.788291 167.417245 
" clip-path="url(#p180d38abbc)" style="fill: #f5f5f5; stroke: #000000"/>
    <path d="M 75.58825 159.781798 
L 75.907903 159.548254 
L 76.19355 159.56017 
L 76.465595 159.788947 
L 76.690032 160.234586 
L 76.145942 160.449065 
L 75.271998 160.16786 
L 74.629292 159.502975 
L 74.73811 158.585482 
L 74.945544 159.217003 
L 75.2822 159.619747 
L 75.58825 159.781798 
" clip-path="url(#p180d38abbc)" style="fill: #f5f5f5; stroke: #000000"/>
    <path d="M 88.197533 171.413701 
L 91.217231 173.572788 
L 91.360055 174.251972 
L 90.326284 174.602287 
L 88.238339 172.922203 
L 87.728255 173.079487 
L 87.911886 173.274901 
L 88.020704 173.55849 
L 88.197533 173.846845 
L 89.248306 174.616586 
L 89.493147 174.852512 
L 89.823001 175.086056 
L 90.142654 175.052693 
L 90.380693 175.119419 
L 90.475909 175.631786 
L 90.285478 175.924907 
L 89.870609 175.662766 
L 89.476144 175.24334 
L 89.360525 175.052693 
L 87.860877 174.144732 
L 87.228373 173.584704 
L 86.612871 172.831645 
L 84.953397 170.248366 
L 83.946831 169.025837 
L 82.287357 165.401144 
L 81.450818 164.581358 
L 80.281025 164.038012 
L 76.730839 160.217905 
L 76.635623 159.56017 
L 76.43159 159.033505 
L 75.873897 158.180356 
L 76.108536 158.127927 
L 76.292167 158.156525 
L 76.445192 158.180356 
L 77.261327 159.143127 
L 79.614515 161.018626 
L 79.82535 161.42137 
L 80.015781 161.955184 
L 80.253821 162.419888 
L 80.597277 162.617685 
L 81.168572 162.803567 
L 81.535833 163.1372 
L 81.899693 163.320699 
L 82.464186 163.018045 
L 82.273754 163.594755 
L 82.178539 163.814 
L 82.760035 163.899792 
L 83.106892 164.235809 
L 83.273519 164.814902 
L 83.321127 165.615623 
L 83.491155 166.335319 
L 83.885621 166.916795 
L 85.844344 169.071116 
L 86.300019 169.338023 
L 86.91212 169.414282 
L 87.044742 169.70502 
L 88.197533 171.413701 
" clip-path="url(#p180d38abbc)" style="fill: #f5f5f5; stroke: #000000"/>
    <path d="M 77.016486 135.681523 
L 76.55401 135.295461 
L 72.191089 129.890594 
L 71.446366 128.61087 
L 71.028097 127.281101 
L 71.215128 127.285867 
L 71.344349 127.374042 
L 72.963017 129.254307 
L 75.690267 133.293659 
L 77.302133 134.516188 
L 77.149108 132.786059 
L 78.148873 132.738397 
L 79.577109 133.667805 
L 80.750303 134.880802 
L 81.70246 136.451264 
L 82.321362 137.068487 
L 83.878819 137.57132 
L 84.320892 138.233822 
L 84.735761 139.139399 
L 85.313856 140.114086 
L 84.494321 139.987782 
L 83.33473 138.996413 
L 82.464186 138.915388 
L 82.647816 138.310081 
L 82.749833 138.083686 
L 81.025748 137.066103 
L 80.18921 136.751534 
L 79.736935 136.403602 
L 79.172442 136.11763 
L 78.444722 136.11763 
L 78.444722 136.517991 
L 80.736701 137.783416 
L 84.164467 142.728345 
L 86.198002 144.148672 
L 85.534893 143.600559 
L 84.871783 142.81652 
L 84.290287 141.80132 
L 83.892422 140.550193 
L 85.63691 141.415258 
L 89.537354 145.547551 
L 90.475909 146.148092 
L 91.067607 146.841573 
L 92.244201 147.904435 
L 92.788291 148.550255 
L 91.982358 148.771883 
L 91.006397 148.19279 
L 89.986228 147.392069 
L 89.054474 146.948813 
L 89.054474 147.349173 
L 89.799197 147.506458 
L 90.533719 147.994993 
L 91.176425 148.66226 
L 91.645702 149.350976 
L 90.788761 149.350976 
L 90.860172 149.679843 
L 90.972391 149.880024 
L 91.142419 150.020627 
L 91.360055 150.149314 
L 90.469108 149.896705 
L 88.615802 149.079303 
L 87.626238 148.986362 
L 87.626238 149.350976 
L 89.360525 150.583038 
L 89.360525 150.945269 
L 88.394765 150.709342 
L 87.537824 150.19221 
L 86.803302 149.453449 
L 86.198002 148.550255 
L 86.198002 148.185641 
L 86.769297 148.185641 
L 86.769297 147.749534 
L 86.432641 147.54697 
L 86.218406 147.303894 
L 85.885151 146.548452 
L 86.327224 146.584199 
L 86.626473 146.491258 
L 86.844109 146.233883 
L 87.054944 145.788244 
L 85.987168 145.075697 
L 85.626708 144.949393 
L 85.232243 145.011354 
L 84.572534 145.378351 
L 84.205273 145.349754 
L 83.7598 144.84692 
L 83.025279 143.281224 
L 80.437451 141.131669 
L 80.056588 141.050644 
L 77.873428 139.713726 
L 77.873428 139.353878 
L 78.111467 139.270469 
L 78.516134 139.020244 
L 78.757574 138.915388 
L 78.240688 137.957382 
L 77.043691 136.174825 
L 77.016486 135.681523 
" clip-path="url(#p180d38abbc)" style="fill: #f5f5f5; stroke: #000000"/>
    <path d="M 58.990109 135.316909 
L 62.377068 138.96305 
L 62.700122 140.114086 
L 61.764967 140.221326 
L 60.639381 139.144165 
L 59.255353 137.313946 
L 58.680658 136.918351 
L 58.680658 136.517991 
L 59.561403 136.770599 
L 59.84705 136.918351 
L 58.673857 135.395551 
L 58.031151 134.854588 
L 57.255822 134.516188 
L 56.959974 135.131027 
L 56.524702 135.338357 
L 56.02822 135.223968 
L 55.541939 134.880802 
L 55.541939 134.516188 
L 55.827587 134.516188 
L 55.827587 134.506656 
L 55.776578 134.377968 
L 55.613351 134.072932 
L 56.358074 133.133991 
L 56.082629 131.975805 
L 54.970645 130.083625 
L 54.770012 129.311501 
L 54.45716 127.488431 
L 54.402751 126.485146 
L 55.235889 127.052324 
L 56.296864 127.548008 
L 56.980377 128.3106 
L 56.684528 129.683264 
L 56.885161 130.198014 
L 57.068792 131.127422 
L 57.255822 132.719332 
L 57.504063 133.267445 
L 58.990109 135.316909 
" clip-path="url(#p180d38abbc)" style="fill: #f5f5f5; stroke: #000000"/>
    <path d="M 71.313744 122.884285 
L 71.313744 123.339456 
L 71.415761 123.615896 
L 71.881638 124.085366 
L 71.330747 123.696921 
L 70.664237 123.506273 
L 70.038534 123.491975 
L 69.599861 123.649259 
L 67.862174 121.683203 
L 68.385861 121.640307 
L 68.906147 121.683203 
L 69.406029 121.81904 
L 69.861704 122.047817 
L 69.861704 121.683203 
L 69.718881 121.485406 
L 69.681475 121.356718 
L 69.678074 121.182752 
L 69.599861 120.846735 
L 70.283374 121.425828 
L 70.456803 121.683203 
L 70.74245 121.683203 
L 70.211962 120.532166 
L 69.865105 120.038865 
L 69.29041 119.65042 
L 69.195194 119.459772 
L 69.028567 118.849699 
L 69.905912 118.978386 
L 70.74245 119.252443 
L 70.630231 119.009366 
L 70.456803 118.411209 
L 71.252534 118.482702 
L 71.847632 118.925958 
L 71.966652 119.521733 
L 71.313744 120.050781 
L 71.313744 120.410628 
L 71.629997 120.62749 
L 73.272468 122.240848 
L 74.282435 122.829473 
L 74.73811 123.284645 
L 75.941909 125.284065 
L 76.268363 126.451783 
L 75.873897 127.281101 
L 74.697303 126.258752 
L 72.670568 123.935231 
L 71.313744 122.884285 
" clip-path="url(#p180d38abbc)" style="fill: #f5f5f5; stroke: #000000"/>
    <path d="M 61.846581 129.683264 
L 61.60174 130.20278 
L 61.622144 130.669867 
L 61.890788 130.855749 
L 62.414474 130.519732 
L 62.700122 131.31807 
L 62.407673 131.735112 
L 62.115225 132.06398 
L 61.822777 132.221264 
L 61.3603 132.137856 
L 60.136098 132.137856 
L 58.252187 130.012132 
L 56.857957 127.023727 
L 56.970175 124.445214 
L 56.783144 124.392786 
L 56.664125 124.302228 
L 56.558707 124.199755 
L 56.398881 124.085366 
L 56.021419 124.314144 
L 55.756175 123.892335 
L 55.592948 123.110679 
L 55.541939 121.228031 
L 55.480729 120.675152 
L 55.273295 120.453524 
L 54.831222 120.410628 
L 54.15451 119.624206 
L 53.498202 116.118668 
L 52.665064 115.248837 
L 52.705871 114.989079 
L 52.750078 114.822262 
L 52.971115 114.448116 
L 52.593653 113.392403 
L 52.971115 113.211288 
L 53.960678 113.616415 
L 54.256527 113.869023 
L 55.008051 114.998612 
L 55.399116 115.248837 
L 56.130237 115.277434 
L 56.558707 115.227389 
L 56.803548 114.888989 
L 56.970175 114.050139 
L 56.81715 113.718888 
L 56.626719 112.806161 
L 56.681128 112.217536 
L 57.255822 112.853823 
L 57.561873 112.453463 
L 56.728735 111.688488 
L 56.113234 110.666139 
L 54.858427 107.112939 
L 54.613586 106.641086 
L 52.382818 103.979165 
L 52.008756 103.259469 
L 51.97475 102.401553 
L 52.430426 101.181407 
L 52.889501 100.390218 
L 53.477799 99.79921 
L 54.239524 99.59903 
L 55.256292 99.985092 
L 55.586147 100.666658 
L 55.436522 103.009244 
L 55.541939 104.417655 
L 55.817385 105.47575 
L 56.57231 107.611007 
L 57.599279 109.684302 
L 57.823716 110.015553 
L 58.374607 110.465959 
L 59.336966 110.601795 
L 59.84705 110.852021 
L 60.156502 111.571716 
L 60.054485 112.596449 
L 59.700826 113.647395 
L 59.255353 114.448116 
L 59.561403 114.85086 
L 59.173739 115.870826 
L 59.112529 116.707293 
L 59.255353 118.630454 
L 59.796042 120.355817 
L 59.867454 121.328121 
L 59.255353 121.683203 
L 59.469588 122.329023 
L 59.979672 123.186938 
L 60.132698 123.649259 
L 60.173504 124.273631 
L 59.911661 125.000476 
L 59.84705 125.722555 
L 60.102093 127.002279 
L 60.663185 127.931687 
L 61.319494 128.746707 
L 61.846581 129.683264 
" clip-path="url(#p180d38abbc)" style="fill: #f5f5f5; stroke: #000000"/>
    <path d="M 70.599626 113.216054 
L 69.888909 113.018257 
L 67.862174 111.652742 
L 66.651574 111.176122 
L 66.467944 110.747164 
L 66.437339 109.815373 
L 66.542756 107.715863 
L 66.314919 107.227328 
L 65.580397 107.615773 
L 65.580397 108.01375 
L 66.151692 108.454623 
L 65.05331 108.535649 
L 61.703757 108.01375 
L 60.652984 107.670584 
L 59.598809 106.82935 
L 58.704462 105.768872 
L 58.133167 104.782269 
L 58.469823 104.284201 
L 58.823481 104.053041 
L 59.224748 103.981548 
L 59.704227 103.981548 
L 59.864053 103.731322 
L 59.836849 103.180827 
L 59.887857 102.630331 
L 60.275521 102.380106 
L 61.849981 102.339593 
L 62.523292 102.001193 
L 62.152631 101.181407 
L 62.693321 100.399751 
L 62.917758 99.918365 
L 63.009573 99.420297 
L 62.910957 98.955593 
L 62.764732 98.526635 
L 62.805539 98.083379 
L 63.271416 97.582928 
L 63.346228 96.929959 
L 63.305422 96.417593 
L 63.094587 96.091109 
L 62.700122 95.986252 
L 63.305422 95.3309 
L 63.910722 95.271323 
L 65.270946 95.986252 
L 64.835674 95.967188 
L 64.699652 95.986252 
L 64.774464 96.417593 
L 64.907086 96.758376 
L 65.080515 97.020517 
L 65.270946 97.218314 
L 65.889848 98.297858 
L 66.437339 99.620478 
L 65.335557 100.149525 
L 65.968061 100.571334 
L 67.270477 100.71432 
L 68.171625 100.421199 
L 68.406264 101.495976 
L 67.906382 103.55259 
L 68.171625 104.782269 
L 68.705514 105.361362 
L 69.453637 105.597288 
L 71.313744 105.618736 
L 71.293341 107.301204 
L 73.792754 109.593745 
L 74.425258 111.216635 
L 74.166815 111.216635 
L 73.683936 111.576482 
L 73.160249 111.695637 
L 72.639963 111.576482 
L 72.167285 111.216635 
L 71.595991 111.652742 
L 71.595991 112.017356 
L 72.160484 112.524956 
L 71.997257 112.901485 
L 71.378355 113.135029 
L 70.599626 113.216054 
" clip-path="url(#p180d38abbc)" style="fill: #f5f5f5; stroke: #000000"/>
    <path d="M 136.910578 197.29415 
L 137.906943 197.658764 
L 139.624226 198.323649 
L 139.437195 198.666815 
L 137.872937 198.838398 
L 135.727183 198.454719 
L 135.115081 198.51668 
L 134.758022 198.712094 
L 134.241137 198.836015 
L 133.581428 198.731159 
L 133.064543 198.550043 
L 132.778896 198.330798 
L 132.792498 198.00908 
L 133.091747 197.880393 
L 133.275378 197.901841 
L 133.554224 197.973333 
L 134.118717 198.044826 
L 134.482577 197.751705 
L 134.309148 197.26317 
L 134.992661 196.99388 
L 136.910578 197.29415 
" clip-path="url(#p180d38abbc)" style="fill: #f5f5f5; stroke: #000000"/>
    <path d="M 72.119677 151.359928 
L 72.690972 151.765055 
L 73.452698 152.503815 
L 73.371084 152.832683 
L 72.772585 152.851748 
L 72.37812 152.942305 
L 72.126478 153.247342 
L 71.6504 153.140102 
L 71.215128 152.527646 
L 71.276338 152.055793 
L 71.698008 152.05341 
L 71.844232 151.860379 
L 71.844232 151.421888 
L 72.119677 151.359928 
" clip-path="url(#p180d38abbc)" style="fill: #f5f5f5; stroke: #000000"/>
    <path d="M 66.005468 148.504976 
L 67.263675 149.386722 
L 68.008398 150.387624 
L 67.841771 150.587804 
L 67.148056 150.201742 
L 65.396767 148.607449 
L 65.236941 148.135596 
L 66.005468 148.504976 
" clip-path="url(#p180d38abbc)" style="fill: #f5f5f5; stroke: #000000"/>
    <path d="M 73.71114 146.345889 
L 74.037594 146.922599 
L 74.268832 147.964013 
L 73.843762 148.371522 
L 73.180653 148.149894 
L 72.721577 147.821027 
L 71.970053 147.14661 
L 72.038064 146.662841 
L 72.473336 145.96221 
L 72.272703 144.13914 
L 72.425728 144.06288 
L 72.616159 143.991387 
L 73.085437 143.929427 
L 73.581919 144.189185 
L 73.935577 144.715849 
L 74.01039 145.287793 
L 73.785953 145.76203 
L 73.663532 146.133793 
L 73.71114 146.345889 
" clip-path="url(#p180d38abbc)" style="fill: #f5f5f5; stroke: #000000"/>
    <path d="M 50.573719 129.72616 
L 51.478268 128.668065 
L 52.090369 128.782453 
L 52.073367 129.354397 
L 51.828526 129.711862 
L 51.274235 129.840549 
L 51.213024 129.916808 
L 51.12461 130.0026 
L 51.104207 130.217078 
L 51.172218 130.522115 
L 51.083803 130.84145 
L 51.097405 131.156019 
L 51.196022 131.327602 
L 51.478268 131.837585 
L 51.702705 132.590645 
L 51.403456 132.647839 
L 50.910375 132.338036 
L 50.390089 132.161687 
L 50.090839 131.799456 
L 50.131646 131.284707 
L 50.21666 130.850983 
L 50.573719 129.72616 
" clip-path="url(#p180d38abbc)" style="fill: #f5f5f5; stroke: #000000"/>
   </g>
  </g>
 </g>
 <defs>
  <clipPath id="p180d38abbc">
   <rect x="7.2" y="7.2" width="271.484258" height="266.112"/>
  </clipPath>
 </defs>
</svg>
