<?xml version="1.0" encoding="utf-8" standalone="no"?>
<!DOCTYPE svg PUBLIC "-//W3C//DTD SVG 1.1//EN"
  "http://www.w3.org/Graphics/SVG/1.1/DTD/svg11.dtd">
<svg xmlns:xlink="http://www.w3.org/1999/xlink" width="371.52pt" height="136.426276pt" viewBox="0 0 371.52 136.426276" xmlns="http://www.w3.org/2000/svg" version="1.1">
 <metadata>
  <rdf:RDF xmlns:dc="http://purl.org/dc/elements/1.1/" xmlns:cc="http://creativecommons.org/ns#" xmlns:rdf="http://www.w3.org/1999/02/22-rdf-syntax-ns#">
   <cc:Work>
    <dc:type rdf:resource="http://purl.org/dc/dcmitype/StillImage"/>
    <dc:date>2024-03-04T13:11:10.012086</dc:date>
    <dc:format>image/svg+xml</dc:format>
    <dc:creator>
     <cc:Agent>
      <dc:title>Matplotlib v3.8.0, https://matplotlib.org/</dc:title>
     </cc:Agent>
    </dc:creator>
   </cc:Work>
  </rdf:RDF>
 </metadata>
 <defs>
  <style type="text/css">*{stroke-linejoin: round; stroke-linecap: butt}</style>
 </defs>
 <g id="figure_1">
  <g id="patch_1">
   <path d="M 0 136.426276 
L 371.52 136.426276 
L 371.52 0 
L 0 0 
z
" style="fill: #ffffff"/>
  </g>
  <g id="axes_1">
   <g id="PatchCollection_1">
    <path d="M 319.210024 121.440159 
L 319.21169 119.040701 
L 317.948532 119.041768 
L 318.00484 118.88919 
L 318.167204 118.732116 
L 318.608347 118.426502 
L 318.99779 118.352826 
L 319.356287 117.667547 
L 319.514628 117.288119 
L 319.335966 116.979216 
L 319.287115 116.148065 
L 318.676211 116.268743 
L 318.38839 116.706722 
L 318.20144 117.042442 
L 317.98578 117.436536 
L 317.745156 117.286399 
L 317.429371 117.118039 
L 316.976385 117.29839 
L 316.79571 117.680376 
L 316.73831 117.995504 
L 316.837233 118.334267 
L 316.998751 118.383955 
L 317.195894 118.433158 
L 317.317195 118.402544 
L 317.396578 118.286997 
L 317.460085 118.150442 
L 317.52237 118.298815 
L 317.649565 118.631079 
L 317.285498 118.841115 
L 317.253505 119.070895 
L 316.693153 119.068191 
L 315.18923 120.142472 
L 315.072488 121.348992 
L 313.517802 121.729772 
L 310.557426 121.916223 
L 310.227681 121.883397 
L 309.227455 121.65099 
L 308.930685 121.4908 
L 308.723068 121.456661 
L 308.635136 121.519687 
L 308.385995 121.819058 
L 308.200361 121.916223 
L 307.388212 122.025205 
L 306.427067 122.008135 
L 305.528207 121.829563 
L 304.904134 121.456661 
L 303.911236 121.60766 
L 302.683852 120.944578 
L 301.441814 120.047776 
L 300.3964 119.494989 
L 299.739353 119.418833 
L 297.591127 119.494989 
L 297.019569 119.421459 
L 295.848364 119.106331 
L 295.235283 119.032801 
L 294.08484 119.16673 
L 293.481529 119.342677 
L 293.083393 119.594779 
L 292.644954 119.660431 
L 288.684352 118.688786 
L 285.976781 118.371032 
L 284.59918 118.426179 
L 282.203035 119.086635 
L 281.058698 119.25339 
L 278.87994 119.25339 
L 278.232663 119.346616 
L 276.972305 119.789108 
L 276.30793 119.933542 
L 272.490218 119.701135 
L 268.604114 120.035959 
L 267.983705 120.358965 
L 267.327879 120.331391 
L 266.667168 120.180392 
L 266.041874 120.134436 
L 265.580231 120.337956 
L 264.610537 121.136281 
L 263.975473 121.456661 
L 263.267133 121.639173 
L 259.390799 121.820371 
L 258.628722 121.695633 
L 257.128994 121.089012 
L 256.362032 120.944578 
L 255.946797 121.25708 
L 255.741623 121.25708 
L 255.516908 121.040429 
L 255.211589 120.99316 
L 254.914818 121.128403 
L 254.716971 121.456661 
L 253.954894 121.204559 
L 253.081681 121.134968 
L 252.30617 121.341114 
L 251.828651 121.916223 
L 252.646907 121.916223 
L 252.646907 122.136813 
L 252.11443 122.163073 
L 251.27297 122.496584 
L 250.709961 122.577992 
L 247.927892 122.655461 
L 246.025142 123.128153 
L 244.945533 123.238448 
L 243.68029 123.137344 
L 241.826391 123.644176 
L 241.247506 123.679627 
L 240.842042 123.608724 
L 240.436578 123.419647 
L 240.105612 123.132092 
L 239.906543 122.780199 
L 239.943182 122.184082 
L 240.502527 121.117898 
L 240.537944 120.815901 
L 240.758995 120.747623 
L 241.140033 120.705606 
L 241.358642 120.595311 
L 241.560153 120.39573 
L 241.765327 120.063532 
L 241.974166 119.933542 
L 241.88257 119.582962 
L 242.021795 119.334798 
L 242.588468 118.812211 
L 243.257728 117.872079 
L 243.306579 117.711889 
L 243.411609 117.467664 
L 244.842946 116.152004 
L 244.784324 115.871015 
L 244.381303 115.462662 
L 244.432597 115.26702 
L 244.70372 115.285402 
L 245.495108 115.549322 
L 245.793099 115.259141 
L 246.369542 115.072691 
L 246.50144 114.946639 
L 246.584487 114.753623 
L 247.116964 113.946107 
L 247.63967 113.578458 
L 248.928118 112.88255 
L 249.420292 112.152503 
L 249.986965 111.732332 
L 253.009626 110.290621 
L 253.588511 110.200022 
L 254.035499 109.951858 
L 254.508133 108.78851 
L 254.940465 108.418235 
L 255.028397 108.403792 
L 255.134648 108.399852 
L 255.331274 108.418235 
L 255.160295 108.793763 
L 255.341044 108.9789 
L 255.728189 108.99597 
L 256.167849 108.877797 
L 256.578198 108.608625 
L 256.894508 108.20815 
L 257.102126 107.727579 
L 257.175402 107.206305 
L 257.395232 107.021167 
L 258.628722 106.233347 
L 258.723982 104.686593 
L 258.926714 104.452873 
L 259.157535 104.242787 
L 259.559335 103.109639 
L 258.628722 101.587833 
L 258.335615 101.313409 
L 257.52713 100.765874 
L 256.452406 100.345703 
L 256.160521 100.306312 
L 256.354704 100.667396 
L 256.167849 100.887986 
L 255.609725 100.498015 
L 255.14564 100.281364 
L 254.832993 99.954419 
L 254.716971 99.234876 
L 254.818337 99.016912 
L 255.055265 98.890861 
L 255.328831 98.800262 
L 255.536448 98.683402 
L 256.167849 97.801043 
L 256.167849 97.58308 
L 255.079691 96.881919 
L 254.498363 96.758494 
L 254.288303 97.36249 
L 253.683771 96.759807 
L 253.174498 95.952291 
L 252.5834 95.243253 
L 251.734613 94.938629 
L 250.876055 95.014785 
L 249.932007 95.239314 
L 249.146726 95.585955 
L 248.755918 96.038952 
L 248.470139 95.857753 
L 248.296717 95.861692 
L 248.145279 95.954918 
L 247.935219 96.038952 
L 247.617687 96.122986 
L 247.424725 96.20702 
L 247.224436 96.262167 
L 246.891027 96.259541 
L 246.367099 96.170255 
L 244.842946 95.600398 
L 243.675405 96.230655 
L 243.409166 96.259541 
L 242.974392 95.924718 
L 242.772881 95.820988 
L 242.545723 95.775032 
L 241.657855 95.820988 
L 241.42337 95.792101 
L 240.839599 95.618781 
L 240.641752 95.499295 
L 240.530616 95.571512 
L 240.143471 95.600398 
L 238.66939 95.511112 
L 238.155232 95.34567 
L 237.357738 94.79157 
L 236.797172 94.623501 
L 235.69558 94.49745 
L 235.043418 94.655014 
L 234.595209 95.006907 
L 234.214171 95.377183 
L 233.758634 95.600398 
L 231.807033 95.658172 
L 230.784824 95.390313 
L 230.461186 94.697031 
L 230.236471 94.697031 
L 230.052058 95.159219 
L 229.066487 93.982741 
L 228.709875 93.817298 
L 228.05527 93.683369 
L 227.693772 93.332789 
L 227.163738 92.294179 
L 226.846206 91.929156 
L 226.292967 91.417073 
L 225.684771 91.033667 
L 225.208473 91.052049 
L 224.886056 91.230622 
L 224.777362 91.065179 
L 224.760264 90.763182 
L 224.704086 90.532088 
L 224.343809 90.093534 
L 224.15329 89.786284 
L 224.071464 89.51186 
L 223.854077 89.045733 
L 221.73394 87.487162 
L 221.32359 87.370302 
L 220.269628 87.428076 
L 219.895917 87.211425 
L 219.562509 86.722976 
L 219.115521 85.864252 
L 218.745474 85.49529 
L 217.642661 84.641818 
L 217.375201 84.610305 
L 217.170027 84.308307 
L 216.985614 83.205359 
L 216.880584 81.107131 
L 216.643656 80.203763 
L 216.184456 79.295144 
L 215.865703 78.379959 
L 216.059886 77.451644 
L 216.334673 77.777277 
L 216.668082 77.824546 
L 216.948976 77.607895 
L 217.066218 77.143081 
L 216.846388 76.812197 
L 215.871809 76.485252 
L 215.649537 76.251531 
L 215.587252 75.686927 
L 215.305137 74.641752 
L 215.24163 74.027252 
L 215.112175 73.48103 
L 214.547945 72.498881 
L 214.420932 72.036693 
L 214.23774 70.952127 
L 213.776098 69.922708 
L 213.165459 69.04035 
L 212.538944 68.399589 
L 212.049212 68.068704 
L 211.580241 67.892758 
L 209.988917 67.643281 
L 209.61887 67.523795 
L 209.475981 67.28351 
L 209.670164 66.838392 
L 210.009679 67.034034 
L 210.390717 67.098372 
L 211.216301 67.078677 
L 211.335986 66.931617 
L 211.183326 66.600733 
L 210.805952 66.086023 
L 210.598335 65.893007 
L 210.290573 65.668479 
L 209.670164 65.313959 
L 209.230504 65.182656 
L 209.013117 65.211543 
L 208.816491 65.342846 
L 208.441559 65.514854 
L 207.050524 65.83786 
L 205.654605 65.975728 
L 205.505609 66.034815 
L 205.335851 66.180562 
L 205.20029 66.357821 
L 205.144111 66.516698 
L 205.043966 66.637498 
L 204.811923 66.665071 
L 203.893523 66.609924 
L 203.529582 66.532455 
L 203.207165 66.507507 
L 202.888412 66.637498 
L 202.684459 66.397212 
L 202.16908 66.684767 
L 201.620726 66.813444 
L 200.327394 66.838392 
L 199.737517 66.942121 
L 198.158406 67.719437 
L 196.924916 68.051635 
L 195.735392 68.155365 
L 194.519 68.043757 
L 192.113084 67.342597 
L 191.617245 67.03666 
L 191.060343 66.516698 
L 190.63656 66.45236 
L 189.079431 66.641437 
L 188.489554 66.637498 
L 187.830065 66.428725 
L 187.545507 66.255405 
L 187.258507 65.975728 
L 186.804192 65.208917 
L 186.539175 64.925301 
L 186.421932 65.195786 
L 186.331558 65.524045 
L 186.106843 65.736756 
L 185.80763 65.784026 
L 185.507196 65.625148 
L 185.222638 65.363855 
L 185.049217 65.270629 
L 183.763212 64.912171 
L 183.586127 64.837328 
L 183.346756 64.633808 
L 183.16845 64.333123 
L 183.026782 63.969413 
L 182.817943 63.662163 
L 182.433241 63.533486 
L 180.313104 63.478338 
L 178.290669 62.891412 
L 177.520043 62.903229 
L 177.181749 63.423191 
L 176.977796 63.986482 
L 176.468523 63.909013 
L 175.804149 63.561059 
L 175.131225 63.312896 
L 175.131225 63.092306 
L 175.746749 62.852021 
L 175.746749 62.651127 
L 175.281442 62.543458 
L 175.18374 62.182374 
L 175.213051 61.725438 
L 175.131225 61.330215 
L 174.621952 61.705742 
L 174.091918 61.868559 
L 173.508148 61.875124 
L 172.84133 61.768768 
L 172.229471 61.545552 
L 171.881407 61.465457 
L 171.610283 61.529796 
L 171.529679 61.758264 
L 171.720198 61.97754 
L 172.016968 62.136418 
L 172.262445 62.190252 
L 171.893619 62.59204 
L 171.336717 62.324181 
L 170.826223 61.745133 
L 170.603951 61.21992 
L 170.53678 60.526638 
L 170.330385 59.920016 
L 169.97255 59.489341 
L 169.459614 59.326525 
L 168.842869 59.220169 
L 167.611822 58.751416 
L 166.341693 58.475679 
L 165.457489 57.732502 
L 163.889369 57.230923 
L 162.963641 56.435224 
L 159.688176 52.917607 
L 159.629554 52.775799 
L 159.629554 52.609044 
L 159.607571 52.429158 
L 159.483001 52.255838 
L 159.351103 52.233516 
L 158.988384 52.288664 
L 158.867477 52.255838 
L 158.541396 51.963031 
L 158.452243 51.758198 
L 158.457128 51.374792 
L 158.882133 51.458826 
L 159.404839 51.435192 
L 159.920218 51.272375 
L 160.322018 50.933613 
L 159.860376 51.051786 
L 159.688176 51.133194 
L 159.810303 50.852205 
L 159.976397 50.579093 
L 160.100967 50.313861 
L 160.096082 50.051254 
L 159.856712 49.951463 
L 159.495214 50.048628 
L 159.22409 50.034184 
L 159.259507 49.612701 
L 158.667188 49.610075 
L 158.288592 49.376354 
L 158.251954 48.978505 
L 158.681843 48.490057 
L 157.966175 48.047564 
L 157.682838 47.771827 
L 157.450796 47.388421 
L 157.245621 47.717993 
L 156.876796 47.834853 
L 156.431029 47.779705 
L 155.998697 47.590628 
L 155.836267 48.278658 
L 156.119604 48.717211 
L 157.02457 49.372415 
L 157.46423 49.975098 
L 157.858702 50.710397 
L 158.044337 51.495591 
L 157.861145 52.255838 
L 156.571476 51.767389 
L 152.841696 51.873745 
L 149.147333 51.613764 
L 144.820348 52.096961 
L 142.214142 51.834354 
L 141.627929 51.632147 
L 140.50069 51.054412 
L 139.322158 50.81544 
L 138.8654 50.49112 
L 138.562524 49.996106 
L 137.790676 48.364005 
L 137.685647 48.05019 
L 137.666106 47.538107 
L 137.892042 46.1673 
L 137.754038 46.075387 
L 136.960208 44.846388 
L 136.558408 44.586407 
L 136.155386 44.499747 
L 135.818314 44.612668 
L 135.619246 44.944865 
L 135.626573 45.346654 
L 136.046693 46.729278 
L 136.067454 50.640806 
L 135.832969 51.640025 
L 135.208897 51.595382 
L 135.636343 50.891596 
L 135.510552 49.875307 
L 135.079441 48.940427 
L 134.799769 48.710646 
L 133.960751 49.016583 
L 133.773896 49.151826 
L 133.679858 49.42625 
L 133.715275 50.027619 
L 133.58704 50.27447 
L 133.23287 50.437286 
L 132.9935 50.3178 
L 132.790768 50.120845 
L 132.54407 50.051254 
L 132.326682 50.206192 
L 132.290044 50.428095 
L 132.204555 50.626363 
L 131.835729 50.713023 
L 130.748792 50.224574 
L 130.088081 48.076451 
L 128.94863 47.590628 
L 127.50508 47.590628 
L 127.163123 47.490838 
L 126.585459 47.068041 
L 126.264263 46.969563 
L 126.03222 47.068041 
L 125.59256 47.490838 
L 125.240832 47.590628 
L 125.162671 47.627393 
L 125.105271 47.710115 
L 125.013675 47.792836 
L 124.832926 47.829601 
L 124.738888 47.77314 
L 124.665611 47.490838 
L 124.533713 47.388421 
L 123.286789 46.969563 
L 123.134129 46.875025 
L 122.78118 46.7214 
L 122.423346 46.713522 
L 122.262137 47.068041 
L 121.969031 47.199344 
L 121.30832 47.233483 
L 120.607307 47.15864 
L 120.194515 46.969563 
L 120.006439 46.969563 
L 119.928277 47.364787 
L 119.734094 47.467203 
L 119.168642 47.388421 
L 119.259017 47.517099 
L 119.309089 47.603759 
L 119.390915 47.829601 
L 119.059949 47.828288 
L 117.659144 47.653654 
L 117.231697 47.489525 
L 116.474505 46.64787 
L 116.20216 46.198813 
L 116.093467 45.72612 
L 115.573203 45.182524 
L 111.320716 43.47558 
L 110.885941 43.227417 
L 110.431626 42.853202 
L 110.162945 42.70089 
L 109.564519 42.636552 
L 109.314157 42.542013 
L 109.166383 42.360815 
L 108.821983 41.768636 
L 108.792672 41.639959 
L 108.383544 41.643898 
L 107.832748 41.576933 
L 107.324697 41.327457 
L 107.04136 40.778609 
L 107.209023 40.273376 
L 107.568952 39.961902 
L 108.024489 39.770199 
L 108.399002 39.650783 
L 111.853857 39.769375 
L 112.980873 39.479898 
L 113.779467 39.606006 
L 114.693013 39.533442 
L 115.247075 39.433866 
L 116.047961 39.625016 
L 116.73088 39.685333 
L 118.276507 39.441396 
L 119.464192 38.935109 
L 119.801264 38.996822 
L 120.111468 38.83138 
L 120.705009 38.832693 
L 121.03109 38.756537 
L 121.4622 38.625694 
L 121.858364 38.227057 
L 122.139096 37.961237 
L 122.420825 37.84374 
L 122.383574 37.167512 
L 122.50395 36.860516 
L 122.428453 36.358919 
L 122.688363 35.45163 
L 122.670171 35.103781 
L 122.237301 34.957968 
L 121.788472 34.944273 
L 120.966362 34.237074 
L 120.401295 33.781859 
L 119.364689 32.996602 
L 118.313408 32.607433 
L 115.639489 31.65119 
L 114.591296 31.689788 
L 112.186601 31.910378 
L 108.997592 32.451751 
L 108.031816 32.033803 
L 105.994328 31.456181 
L 103.713671 31.46124 
L 102.442031 31.611006 
L 101.787426 31.685849 
L 101.162132 31.616258 
L 100.20975 31.370769 
L 98.235648 31.63007 
L 96.65562 31.245983 
L 96.303892 31.314261 
L 95.722564 31.616258 
L 95.427015 31.685849 
L 94.031821 31.384063 
L 92.965499 31.636522 
L 89.79937 30.791673 
L 89.155757 30.804804 
L 88.531684 31.122558 
L 88.225144 31.646458 
L 88.122556 32.272775 
L 88.114007 32.906971 
L 87.930816 33.489958 
L 87.488713 33.790643 
L 86.473832 34.129405 
L 84.671227 35.657777 
L 84.312172 35.89281 
L 83.630699 35.947957 
L 83.167835 36.093704 
L 81.168604 37.136253 
L 80.186697 37.791457 
L 79.364778 38.651494 
L 77.651326 41.927513 
L 76.940543 42.628673 
L 75.965964 42.742907 
L 74.97795 42.459292 
L 74.570044 42.422527 
L 74.141376 42.542013 
L 74.127941 42.622108 
L 74.141376 43.073792 
L 74.091303 43.195904 
L 73.974061 43.186713 
L 73.837278 43.144696 
L 73.621111 43.226104 
L 73.48555 43.184087 
L 73.37075 43.172269 
L 73.321899 43.30226 
L 73.336554 43.755257 
L 73.321899 43.84323 
L 72.236183 44.543077 
L 71.8698 44.944865 
L 71.708591 45.216663 
L 71.682945 45.371601 
L 71.700043 45.484522 
L 71.664625 45.62633 
L 71.466779 46.09377 
L 71.320225 46.299916 
L 71.049102 46.508689 
L 70.952621 46.408898 
L 70.906212 46.306481 
L 70.889115 46.684635 
L 70.676612 46.906538 
L 70.508877 46.578345 
L 70.259972 46.474504 
L 69.996386 46.509504 
L 69.973316 47.0403 
L 69.478648 47.580422 
L 67.982475 47.710115 
L 66.432674 47.511846 
L 65.106367 46.969563 
L 65.355508 46.697765 
L 65.276125 46.369507 
L 65.055074 46.00711 
L 64.882873 45.62633 
L 64.677699 45.62633 
L 64.252695 46.488993 
L 63.508937 47.268935 
L 62.630838 47.832227 
L 61.808919 48.05019 
L 61.871204 47.937269 
L 61.937153 47.714054 
L 61.995774 47.590628 
L 58.673901 48.076451 
L 58.511471 48.05019 
L 58.394228 47.924139 
L 58.312402 47.700923 
L 58.275764 47.485586 
L 58.306296 47.388421 
L 57.963117 47.493464 
L 57.606504 47.946461 
L 57.170508 48.05019 
L 54.83909 47.916261 
L 54.172273 48.05019 
L 52.941226 49.262121 
L 52.904587 49.507658 
L 52.674987 50.396582 
L 52.532098 50.713023 
L 52.689642 50.924421 
L 52.736051 51.117437 
L 52.755591 51.595382 
L 52.414855 51.30914 
L 52.08511 51.38267 
L 51.881157 51.727998 
L 51.916574 52.255838 
L 52.143732 52.682574 
L 52.438059 52.840138 
L 52.784902 52.753478 
L 53.165941 52.456732 
L 52.994962 53.155266 
L 51.956876 53.924704 
L 51.7114 54.579908 
L 51.820093 54.733533 
L 52.022825 54.91867 
L 52.143732 55.155016 
L 52.010612 55.462266 
L 51.727276 55.738004 
L 51.403638 55.990106 
L 51.05191 56.171305 
L 50.685527 56.242209 
L 50.121297 56.10434 
L 48.98673 55.497718 
L 48.319913 55.35985 
L 47.667751 55.510849 
L 46.50998 56.222513 
L 45.95552 56.462798 
L 45.651422 56.486433 
L 45.028571 56.440477 
L 44.726916 56.462798 
L 44.394728 56.600667 
L 43.713256 57.031342 
L 42.775315 57.312331 
L 39.231168 60.287666 
L 37.942721 60.992765 
L 36.676257 61.109625 
L 36.286669 60.472804 
L 37.488406 57.936022 
L 37.72167 56.663692 
L 37.04264 55.722247 
L 35.845788 55.516101 
L 34.509711 55.718308 
L 32.125778 56.423407 
L 30.963122 56.97882 
L 27.931912 59.003519 
L 26.72529 59.300264 
L 25.419745 59.279256 
L 24.159387 58.885346 
L 23.747817 58.551835 
L 23.503561 58.092273 
L 23.432727 57.561808 
L 23.5402 57.020838 
L 23.639123 56.810752 
L 23.794225 56.550771 
L 23.984745 56.336747 
L 24.185034 56.256652 
L 24.327923 56.336747 
L 24.424404 56.502189 
L 24.505009 56.692579 
L 24.597826 56.844891 
L 24.815213 57.018212 
L 25.06069 57.116689 
L 25.324486 57.149515 
L 25.594388 57.124567 
L 26.107324 56.907917 
L 26.460273 56.54158 
L 26.47615 56.131914 
L 25.983975 55.781334 
L 26.49569 55.501657 
L 26.951227 55.50297 
L 27.235784 55.815473 
L 27.233342 56.462798 
L 29.691773 55.140573 
L 31.871752 54.493247 
L 34.426664 53.34303 
L 36.060733 52.154734 
L 36.286669 52.035248 
L 36.686027 52.003735 
L 37.049967 52.05757 
L 37.238044 52.204629 
L 37.106146 52.456732 
L 38.048972 52.874277 
L 38.748764 52.677322 
L 39.429015 52.262403 
L 40.309556 52.035248 
L 40.745552 52.167864 
L 41.254825 52.485619 
L 41.679829 52.886094 
L 41.855693 53.248491 
L 42.001025 53.437568 
L 42.815617 52.846703 
L 43.273596 52.917607 
L 43.701043 51.133194 
L 43.341987 51.540234 
L 43.024455 52.102213 
L 42.68494 52.401584 
L 42.266042 52.035248 
L 42.088957 51.419435 
L 42.126816 50.944117 
L 42.024229 50.573841 
L 41.429467 50.27447 
L 41.707918 49.585127 
L 41.855693 49.372415 
L 41.298791 49.30939 
L 40.691816 49.090113 
L 40.144684 48.793367 
L 39.76853 48.490057 
L 39.525496 48.034434 
L 39.327649 47.497403 
L 39.050419 47.075919 
L 38.558245 46.969563 
L 38.857458 46.689887 
L 39.19453 46.190934 
L 39.468096 45.602695 
L 39.584117 45.066977 
L 39.639075 44.315922 
L 39.76853 43.62264 
L 40.19842 42.201937 
L 40.272918 42.124468 
L 40.711356 41.301196 
L 40.865237 41.217162 
L 41.188876 41.185649 
L 41.335429 41.091111 
L 41.456335 40.883651 
L 41.57602 40.476611 
L 41.65174 40.32036 
L 42.291689 39.382854 
L 42.735013 38.882588 
L 43.273596 38.555642 
L 43.273596 38.315357 
L 42.658072 38.315357 
L 43.175894 37.893873 
L 44.460677 37.65884 
L 45.022465 37.334521 
L 45.380299 36.846072 
L 45.757673 36.122591 
L 45.896899 35.424057 
L 45.545171 35.011764 
L 45.545171 34.770166 
L 45.860261 34.86733 
L 46.160695 35.011764 
L 46.588142 34.686132 
L 46.993606 34.623106 
L 47.342891 34.804305 
L 47.594474 35.211345 
L 47.860713 34.003354 
L 48.021921 33.690852 
L 48.31747 33.570053 
L 49.094203 33.501775 
L 49.252969 33.349463 
L 49.274952 33.025144 
L 49.370211 32.474983 
L 49.585156 32.087638 
L 49.968637 32.246515 
L 50.370437 32.503869 
L 50.685527 32.338427 
L 50.974969 31.985221 
L 51.30105 31.685849 
L 51.073893 31.316887 
L 50.76491 31.091045 
L 50.364331 31.001759 
L 49.868492 31.046402 
L 50.004054 30.795612 
L 50.222663 30.568457 
L 50.493786 30.408267 
L 50.780786 30.345242 
L 51.264412 30.521188 
L 51.52088 30.915098 
L 51.718727 31.307696 
L 52.010612 31.484955 
L 52.413634 31.414051 
L 52.772689 31.238105 
L 54.598499 29.922445 
L 55.008848 30.345242 
L 55.294627 29.659838 
L 55.752606 29.35784 
L 57.059372 29.263302 
L 57.557653 29.166137 
L 59.626497 28.120962 
L 60.664582 27.748061 
L 61.156757 27.700792 
L 61.492608 27.758565 
L 61.871204 27.934512 
L 62.198506 27.94239 
L 62.406123 27.872799 
L 62.820136 27.60494 
L 63.038745 27.50121 
L 63.038745 27.259612 
L 62.8238 27.360716 
L 62.608855 27.50121 
L 62.569775 27.383037 
L 62.578324 27.309507 
L 62.552677 27.274056 
L 62.403681 27.259612 
L 63.04363 26.856511 
L 63.70312 26.660869 
L 65.200406 26.600469 
L 65.327418 26.407453 
L 65.701129 25.387226 
L 65.891648 25.284809 
L 67.13613 25.276931 
L 67.059189 25.500147 
L 67.012781 25.592059 
L 66.930955 25.71811 
L 67.517168 25.825779 
L 67.868896 25.492269 
L 68.110709 24.995942 
L 68.367177 24.615162 
L 68.815386 24.431337 
L 69.159786 24.567893 
L 69.521284 24.839691 
L 70.02445 25.056341 
L 69.811948 25.389852 
L 70.13925 25.288748 
L 70.617991 24.99069 
L 70.862246 24.737274 
L 71.042995 24.205495 
L 71.489983 23.506961 
L 72.054213 22.895088 
L 72.595239 22.633794 
L 72.999481 22.499864 
L 74.551725 21.51115 
L 75.159921 21.256421 
L 75.716823 21.230161 
L 76.20167 21.400855 
L 76.599806 21.751435 
L 76.599806 21.952329 
L 76.325019 22.161102 
L 76.208998 22.547134 
L 76.266398 23.00013 
L 76.497219 23.404545 
L 76.863602 23.5713 
L 77.171364 23.374345 
L 77.430275 23.050026 
L 77.643998 22.832062 
L 77.095645 22.383004 
L 77.131062 21.962834 
L 77.571943 21.593871 
L 78.23876 21.311569 
L 79.489348 21.069971 
L 79.723833 20.951798 
L 80.113421 20.683939 
L 80.289285 20.631417 
L 80.60071 20.686565 
L 81.014723 20.971493 
L 81.331034 21.069971 
L 81.487358 20.98331 
L 81.666885 20.799486 
L 81.887936 20.695756 
L 82.171273 20.852007 
L 82.359349 21.184205 
L 82.163945 21.285308 
L 81.863511 21.33389 
L 81.741383 21.51115 
L 81.864732 21.845974 
L 82.047924 21.956268 
L 82.282409 21.844661 
L 82.56086 21.51115 
L 82.498575 22.149284 
L 83.022503 22.191301 
L 83.617265 21.797391 
L 83.675886 21.758 
L 83.997082 20.959676 
L 84.422087 20.26902 
L 85.395444 20.248011 
L 86.470168 20.420019 
L 87.191943 20.300533 
L 87.852654 20.064187 
L 90.571217 20.190238 
L 93.354508 19.827841 
L 94.07384 19.529782 
L 94.689363 19.573112 
L 95.992466 18.828622 
L 96.65562 18.627728 
L 96.821713 18.525311 
L 97.119705 18.068375 
L 97.268701 17.965959 
L 97.639969 17.922628 
L 97.925748 17.813647 
L 98.39594 17.524779 
L 99.286251 16.835436 
L 99.750336 16.558386 
L 100.944745 16.378501 
L 102.327231 15.783696 
L 104.426606 15.439681 
L 105.379202 15.048397 
L 107.45171 15.543411 
L 108.108757 15.47382 
L 108.958766 15.261109 
L 109.314157 15.171822 
L 110.011506 15.102232 
L 110.314383 15.031328 
L 110.641685 14.903964 
L 110.966545 14.84619 
L 111.259652 14.99325 
L 112.388112 15.783696 
L 113.279644 16.035799 
L 115.201934 16.22225 
L 116.093467 16.442839 
L 116.762727 16.224876 
L 121.449988 16.252449 
L 122.225499 16.256388 
L 122.698133 16.190737 
L 123.098712 15.98459 
L 123.44067 16.165789 
L 123.7753 16.190737 
L 124.130692 16.17498 
L 124.533713 16.224876 
L 124.740109 16.346988 
L 125.265258 16.772411 
L 125.902765 17.141373 
L 126.006573 17.788699 
L 125.910092 18.530563 
L 125.763539 19.088602 
L 125.58279 19.342018 
L 125.397156 19.465443 
L 125.392271 19.562608 
L 125.763539 19.749059 
L 126.105497 19.793702 
L 126.440127 19.709667 
L 126.889557 19.529782 
L 127.006799 19.36434 
L 127.193655 18.577832 
L 127.299906 18.307347 
L 127.549046 18.078879 
L 127.771319 18.00535 
L 128.043663 17.997471 
L 130.568043 17.561544 
L 130.905116 17.414484 
L 131.227533 17.065217 
L 131.971291 16.855132 
L 133.384308 16.645046 
L 133.831296 16.490108 
L 134.946322 15.945199 
L 135.679088 15.38716 
L 137.006616 14.609844 
L 137.500012 14.462784 
L 138.056915 14.680748 
L 137.63191 15.047084 
L 136.801442 15.389786 
L 135.437275 15.744305 
L 133.80687 16.734333 
L 133.384308 17.104608 
L 133.384308 17.306816 
L 134.715501 17.646891 
L 136.427731 19.636138 
L 137.500012 20.190238 
L 138.095996 20.203368 
L 138.353685 20.058934 
L 138.564966 19.72805 
L 139.019281 19.18708 
L 139.163392 18.921847 
L 139.480924 18.131401 
L 139.632362 17.965959 
L 139.973099 17.929194 
L 140.588622 17.77163 
L 140.779142 17.745369 
L 142.026066 17.965959 
L 142.233683 17.95808 
L 142.350925 17.900307 
L 142.405883 18.017167 
L 142.419317 18.527937 
L 142.644032 19.236975 
L 143.196049 19.411609 
L 143.875079 19.285558 
L 144.486939 19.088602 
L 149.199847 18.186548 
L 149.937499 18.166853 
L 151.337082 18.457033 
L 152.086947 18.426833 
L 152.714683 18.160288 
L 153.276471 17.671839 
L 153.441343 17.065217 
L 152.888104 16.442839 
L 153.278913 16.259015 
L 153.68682 16.211745 
L 154.064194 16.280023 
L 154.358522 16.442839 
L 154.358522 16.645046 
L 154.102054 16.881393 
L 153.315551 18.426833 
L 154.152126 19.053151 
L 154.189986 19.121428 
L 155.279365 21.077849 
L 155.89611 21.51115 
L 156.372408 21.545289 
L 157.5888 21.779009 
L 158.049222 21.952329 
L 158.332558 22.217562 
L 158.642762 22.594403 
L 159.039677 22.931853 
L 159.585588 23.074973 
L 161.278278 23.071034 
L 161.651989 23.185268 
L 162.103862 23.580491 
L 162.586266 23.856228 
L 163.085769 24.037427 
L 163.598705 24.1556 
L 164.586718 24.187113 
L 165.517331 23.992784 
L 167.306502 23.29425 
L 167.081787 22.524812 
L 167.587396 22.507743 
L 169.181163 23.299502 
L 169.888282 23.517466 
L 170.489151 23.405858 
L 170.603951 22.633794 
L 170.925147 22.805801 
L 171.25367 23.036895 
L 171.507696 23.315258 
L 171.610283 23.625134 
L 172.289313 24.846256 
L 172.355262 25.056341 
L 173.49105 25.71811 
L 173.654701 25.744371 
L 174.18962 25.71811 
L 174.397237 25.79164 
L 174.482727 25.949204 
L 174.499825 26.106768 
L 174.497382 26.178985 
L 175.120234 25.989908 
L 176.098477 25.069472 
L 177.941384 24.552136 
L 178.20518 24.615162 
L 178.20518 24.862012 
L 177.923065 25.119367 
L 177.366162 25.497521 
L 176.677362 25.166636 
L 176.343953 25.429243 
L 175.951923 26.600469 
L 176.278004 27.102048 
L 176.466081 27.31476 
L 176.75186 27.50121 
L 177.071834 27.587871 
L 178.307767 27.700792 
L 178.837801 27.879364 
L 180.601325 29.131998 
L 180.696585 29.28431 
L 180.810164 29.423492 
L 180.989691 29.483892 
L 181.155785 29.410362 
L 181.336534 29.251485 
L 181.469653 29.09392 
L 181.502628 29.023017 
L 182.186543 28.936356 
L 182.444233 29.100486 
L 183.185548 32.368627 
L 183.202646 32.387009 
L 183.652076 32.535382 
L 184.016016 32.721833 
L 184.340876 32.981814 
L 184.67917 33.349463 
L 185.022349 33.864172 
L 185.433919 34.860765 
L 185.71237 35.332144 
L 186.473226 36.188242 
L 186.642983 36.333989 
L 187.089971 36.419336 
L 187.958299 36.437719 
L 188.302699 36.532257 
L 189.103857 37.766509 
L 189.257738 38.136785 
L 189.497108 38.338992 
L 191.746701 40.253395 
L 192.62602 40.668314 
L 193.424735 40.539637 
L 193.728833 40.84426 
L 194.293063 41.249988 
L 194.838974 41.439065 
L 195.084451 41.091111 
L 195.406868 41.05172 
L 196.978652 41.391796 
L 197.542882 41.399674 
L 197.868963 41.167267 
L 197.933691 40.962434 
L 198.00941 40.818 
L 198.381899 40.778609 
L 198.685997 40.852139 
L 199.152525 41.13838 
L 199.499368 41.201406 
L 200.144202 41.10818 
L 201.27022 40.678818 
L 201.846663 40.539637 
L 202.530578 40.529132 
L 204.190293 40.718209 
L 207.147005 41.054346 
L 208.552695 40.980816 
L 208.706576 41.305135 
L 209.279355 43.184087 
L 209.388049 43.102679 
L 209.670164 42.963497 
L 209.970598 43.381042 
L 210.249049 43.123687 
L 210.713135 42.100834 
L 210.329654 41.558551 
L 210.124479 41.351092 
L 209.875338 41.201406 
L 209.875338 40.980816 
L 210.766871 41.100302 
L 211.725573 42.065382 
L 215.004702 43.226104 
L 215.426043 43.52285 
L 215.682511 43.935142 
L 216.279716 44.444599 
L 216.968516 44.909413 
L 217.493665 45.18515 
L 218.210555 45.401801 
L 220.016824 45.710364 
L 220.568841 45.62633 
L 220.555407 45.84298 
L 220.584718 46.292038 
L 220.568841 46.508689 
L 220.877824 46.356377 
L 220.996288 46.268403 
L 221.19902 46.590097 
L 221.479914 47.207223 
L 221.697301 47.489525 
L 221.968425 47.694358 
L 222.505787 47.974034 
L 222.739051 48.170989 
L 222.972315 48.299667 
L 223.267864 48.304919 
L 223.581732 48.273406 
L 223.866289 48.291788 
L 224.892162 48.710646 
L 225.35869 48.840637 
L 226.846206 48.950932 
L 227.107559 49.0888 
L 227.16618 49.407867 
L 227.190606 49.774204 
L 227.349372 50.051254 
L 227.597291 50.11428 
L 228.366696 50.105088 
L 228.267772 50.153671 
L 228.168849 50.27447 
L 228.483938 50.569902 
L 228.856428 50.713023 
L 229.244794 50.802309 
L 229.563547 50.913917 
L 229.62339 50.933613 
L 230.066713 50.778675 
L 230.351271 51.085925 
L 230.749407 51.934144 
L 231.320965 52.47774 
L 231.484616 52.697017 
L 231.682463 53.286569 
L 232.222268 54.241145 
L 232.462859 54.552334 
L 232.818251 54.678385 
L 233.179749 54.933114 
L 234.558571 56.352503 
L 234.661158 56.619049 
L 235.170431 57.556555 
L 235.379269 57.785023 
L 235.739546 57.731189 
L 235.910525 57.408183 
L 236.053414 54.997452 
L 236.218286 54.678385 
L 236.548031 54.536578 
L 237.354074 54.667881 
L 237.8377 54.678385 
L 237.571461 55.013209 
L 236.611538 55.186529 
L 236.403921 55.462266 
L 236.445444 56.037375 
L 236.565129 56.470676 
L 236.75687 56.813378 
L 237.017002 57.124567 
L 237.361402 57.448887 
L 237.622755 57.572312 
L 238.360407 57.564434 
L 238.684045 57.779771 
L 238.911203 58.278724 
L 239.041879 58.834137 
L 239.085845 59.21623 
L 239.19576 59.61014 
L 239.475433 59.889817 
L 239.871126 60.082833 
L 240.721135 60.355944 
L 240.889671 60.386143 
L 241.330553 60.172119 
L 241.585799 60.307361 
L 241.827612 60.53189 
L 242.084081 60.647437 
L 243.908669 60.370387 
L 244.432597 60.429473 
L 244.935763 60.66582 
L 246.276725 61.529796 
L 246.293823 61.083364 
L 246.528308 60.858836 
L 247.301376 60.647437 
L 247.349006 60.967817 
L 247.52487 61.130634 
L 247.799658 61.167399 
L 248.140394 61.109625 
L 248.078109 60.988826 
L 248.001168 60.757732 
L 247.935219 60.647437 
L 248.357781 60.786619 
L 248.759581 61.117503 
L 249.367777 61.768768 
L 248.936667 61.826542 
L 248.638675 61.645343 
L 248.450598 61.630899 
L 248.345568 62.190252 
L 248.415181 62.781117 
L 248.854841 63.788214 
L 248.95865 64.302923 
L 249.118637 64.633808 
L 249.503339 64.759859 
L 250.411969 64.875406 
L 251.127638 65.258812 
L 251.325485 65.313959 
L 251.613706 65.246995 
L 251.763923 65.095996 
L 251.845749 64.943684 
L 251.932459 64.875406 
L 251.921468 64.69946 
L 251.74194 64.313428 
L 251.456161 63.927396 
L 250.675765 63.572877 
L 250.353348 63.142201 
L 249.983301 62.190252 
L 249.814765 61.44051 
L 249.676761 61.21992 
L 249.470365 61.095182 
L 248.878045 60.850957 
L 248.755918 60.757732 
L 248.715615 60.418969 
L 248.562956 59.97779 
L 248.252751 59.740131 
L 247.730045 60.00799 
L 247.301376 59.547115 
L 246.894691 59.925268 
L 246.469687 59.65741 
L 245.661201 58.646374 
L 244.532741 57.674728 
L 244.215209 57.175776 
L 244.010035 57.120628 
L 243.5948 57.322835 
L 243.850047 56.771361 
L 244.327567 56.191 
L 244.87592 55.818099 
L 245.344891 55.891628 
L 246.389082 56.773987 
L 246.50144 57.037907 
L 246.69318 57.853301 
L 246.799432 58.023995 
L 249.986965 60.346752 
L 250.598825 60.647437 
L 252.126642 61.125381 
L 252.555311 61.430005 
L 252.981536 61.867246 
L 253.997639 62.701022 
L 254.400661 62.852021 
L 256.167849 64.192629 
L 256.611172 64.419783 
L 257.028849 64.5524 
L 257.475836 64.555026 
L 258.013198 64.413218 
L 257.779934 65.022466 
L 257.942364 65.412437 
L 258.245241 65.694739 
L 258.423547 65.975728 
L 258.318518 66.616489 
L 257.596743 67.397744 
L 257.398896 67.95841 
L 257.1351 67.783776 
L 256.616057 67.202102 
L 256.468283 67.078677 
L 254.537444 66.177936 
L 254.048933 66.033502 
L 253.485924 65.975728 
L 253.501801 66.033502 
L 253.427303 66.151675 
L 253.328379 66.263283 
L 253.280749 66.296109 
L 253.216022 66.412969 
L 253.064583 66.364387 
L 252.888719 66.255405 
L 252.62126 66.133293 
L 252.295179 65.836547 
L 252.033825 65.736756 
L 251.342583 65.79453 
L 251.10077 66.113597 
L 251.199693 66.468116 
L 251.540429 66.637498 
L 251.888493 66.720219 
L 252.137634 66.909296 
L 252.368455 67.129885 
L 252.646907 67.296641 
L 252.944898 67.366231 
L 253.786358 67.296641 
L 254.376235 67.543491 
L 254.530116 68.079209 
L 254.312729 68.614927 
L 253.786358 68.859151 
L 253.70209 69.124384 
L 253.892609 69.704745 
L 254.153963 70.26541 
L 254.288303 70.482061 
L 254.627818 70.549025 
L 255.299521 70.437418 
L 255.775819 70.492565 
L 255.536448 71.062422 
L 255.831997 70.982327 
L 256.579419 70.60286 
L 256.607508 70.564782 
L 256.892066 70.39934 
L 257.175402 70.361262 
L 257.439198 69.872813 
L 257.809245 68.157991 
L 258.567658 66.712341 
L 258.814356 66.397212 
L 259.383471 66.293483 
L 259.934267 66.629619 
L 263.154775 70.60286 
L 263.631073 71.041413 
L 263.689694 71.08343 
L 264.136682 71.399871 
L 265.223619 71.926398 
L 266.882113 72.28223 
L 267.272922 72.585541 
L 267.067747 73.02672 
L 267.683271 73.02672 
L 267.507407 73.692428 
L 267.269258 74.023313 
L 266.904096 74.134921 
L 265.840364 74.203199 
L 265.411695 74.377832 
L 265.111261 74.686395 
L 264.998904 75.140705 
L 265.41658 75.936403 
L 266.950504 75.126261 
L 266.862573 75.929838 
L 267.152015 75.71844 
L 267.285134 75.386242 
L 267.358411 74.993645 
L 267.478096 74.607613 
L 267.272922 74.607613 
L 267.693041 73.977357 
L 267.817611 73.653037 
L 267.868905 73.267006 
L 269.713033 73.906453 
L 269.885233 73.897262 
L 270.119719 73.755454 
L 270.252838 73.809289 
L 270.757225 74.148051 
L 271.569375 74.346319 
L 271.893013 74.368641 
L 272.355877 74.574787 
L 272.763784 75.027784 
L 272.940869 75.48472 
L 272.721039 75.689553 
L 272.233749 75.799848 
L 270.552051 76.571912 
L 270.668072 76.088715 
L 270.392063 75.803787 
L 270.094072 75.789344 
L 270.141702 76.130732 
L 269.99637 76.640189 
L 270.396949 76.850275 
L 271.002702 76.952692 
L 271.481443 77.143081 
L 271.933315 77.496288 
L 272.438924 77.726068 
L 273.006818 77.85212 
L 273.644324 77.892824 
L 273.644324 77.693243 
L 272.990941 77.462149 
L 272.794316 77.315089 
L 272.618452 77.032787 
L 272.416941 76.569286 
L 272.431596 76.363139 
L 273.010482 76.130732 
L 273.535631 76.114976 
L 274.251299 76.340818 
L 274.915674 76.741293 
L 275.301598 77.252063 
L 275.489674 77.252063 
L 275.489674 76.571912 
L 275.692406 76.571912 
L 275.587376 77.863937 
L 275.242976 78.286734 
L 273.644324 78.356325 
L 273.644324 78.575601 
L 274.258627 78.575601 
L 273.967963 78.748922 
L 273.849499 78.796191 
L 274.091312 79.21111 
L 274.38564 79.195353 
L 274.72027 79.03385 
L 275.079325 79.014155 
L 275.335793 79.232118 
L 275.637449 79.794097 
L 275.9159 79.896513 
L 276.06856 79.829549 
L 276.274955 79.671985 
L 276.454483 79.489473 
L 276.531424 79.334535 
L 276.603479 79.230805 
L 276.772015 79.22424 
L 276.96742 79.247875 
L 277.128628 79.234744 
L 278.011612 78.712157 
L 278.357233 78.575601 
L 277.893148 78.411472 
L 276.912462 78.277543 
L 276.531424 78.134422 
L 276.168704 77.702434 
L 276.06856 77.186412 
L 276.273734 76.75311 
L 276.820866 76.571912 
L 280.415085 76.679581 
L 281.151515 76.913301 
L 281.578962 77.269133 
L 282.547435 77.651226 
L 282.636588 77.726068 
L 283.335159 78.312995 
L 283.767491 78.592671 
L 286.955024 79.815105 
L 287.911284 80.458492 
L 288.043182 81.217426 
L 288.145769 81.480032 
L 288.123786 82.170688 
L 288.248357 82.559346 
L 288.542684 82.902048 
L 288.750301 82.878413 
L 289.050736 82.559346 
L 289.531919 82.287548 
L 289.866549 82.208766 
L 290.298881 82.319061 
L 290.6042 82.504199 
L 290.816702 82.735293 
L 290.930281 83.035977 
L 290.931502 83.441705 
L 291.119579 83.441705 
L 291.179422 83.286767 
L 291.274681 83.126577 
L 291.34063 82.98083 
L 291.545805 83.477157 
L 291.802273 83.586139 
L 291.981801 83.335349 
L 291.956154 82.76024 
L 292.208958 82.80357 
L 293.011337 82.821953 
L 293.388712 82.76024 
L 293.576789 82.634189 
L 294.044538 82.210079 
L 294.302227 82.120793 
L 294.675938 82.137862 
L 295.052092 82.215331 
L 295.341534 82.378147 
L 295.590675 82.941439 
L 295.843479 82.990021 
L 296.001024 82.85084 
L 295.848364 82.559346 
L 297.396944 81.438015 
L 297.561816 81.477406 
L 298.012467 81.68224 
L 298.104063 81.7689 
L 298.229855 82.013124 
L 298.52174 82.026254 
L 299.045668 81.877882 
L 300.082532 81.876569 
L 300.93132 82.01575 
L 301.522418 82.527833 
L 301.791099 83.641286 
L 302.975738 83.390497 
L 303.658432 83.835615 
L 304.69896 85.423073 
L 304.084657 86.746611 
L 303.907572 86.97114 
L 303.571721 87.250816 
L 303.449593 87.428076 
L 303.394636 87.635535 
L 303.327465 88.117418 
L 303.262738 88.307808 
L 303.00627 88.676771 
L 302.589814 89.100881 
L 302.097639 89.401566 
L 301.605465 89.389748 
L 301.456469 89.079872 
L 301.344111 88.591424 
L 301.159698 88.278922 
L 300.785988 88.510016 
L 300.540511 88.353765 
L 300.342664 88.326191 
L 300.1668 88.389216 
L 299.986051 88.510016 
L 300.230307 88.546781 
L 300.408613 88.615058 
L 300.525856 88.747675 
L 300.580813 88.968264 
L 299.730804 89.03129 
L 299.749123 89.4252 
L 300.13749 89.977987 
L 300.3964 90.532088 
L 300.580813 90.532088 
L 300.916664 90.022631 
L 301.708052 89.783658 
L 302.606912 89.741641 
L 303.262738 89.830928 
L 304.507219 90.474314 
L 304.69896 90.631878 
L 304.731934 91.079623 
L 304.854062 91.419699 
L 305.105645 91.615341 
L 305.519658 91.614028 
L 305.281509 92.383465 
L 304.858947 92.383465 
L 304.380206 92.060459 
L 303.9723 91.853 
L 303.747585 91.774218 
L 303.649883 91.582515 
L 303.581491 91.351421 
L 303.449593 91.15184 
L 303.229763 90.970641 
L 303.134504 90.91812 
L 301.490665 91.175474 
L 300.909337 91.382934 
L 298.94308 91.15184 
L 299.100625 91.520802 
L 299.060323 91.934408 
L 298.756225 92.71435 
L 298.779429 92.911305 
L 298.752561 93.318346 
L 298.669514 93.699125 
L 298.532731 94.037888 
L 298.811183 94.321503 
L 299.159247 95.018724 
L 300.315796 95.680493 
L 300.785988 95.839371 
L 300.991162 95.499295 
L 301.320907 94.796822 
L 302.757129 93.5757 
L 303.058784 92.93494 
L 303.533861 93.320972 
L 303.820861 93.819924 
L 303.881925 94.374025 
L 303.674308 94.938629 
L 304.448598 94.841465 
L 304.72827 94.939942 
L 304.596372 95.278705 
L 304.5463 95.59252 
L 304.854062 95.81311 
L 305.519658 96.038952 
L 305.352343 95.327287 
L 307.120752 95.747458 
L 307.58728 95.159219 
L 307.772914 95.159219 
L 307.917025 95.337792 
L 308.113651 95.515051 
L 308.349357 95.680493 
L 308.611932 95.820988 
L 308.835425 95.159219 
L 308.339587 94.955699 
L 308.077012 94.914995 
L 307.772914 94.938629 
L 308.146625 94.435737 
L 308.864736 94.224339 
L 309.648796 94.207269 
L 310.231345 94.278173 
L 310.758937 94.49745 
L 311.375682 94.892673 
L 311.579635 95.261636 
L 310.865188 95.398191 
L 311.126541 95.81311 
L 311.275537 96.259541 
L 311.478269 96.259541 
L 311.514907 96.12036 
L 311.683444 95.820988 
L 311.939912 96.51427 
L 312.672678 96.673147 
L 314.367811 96.480131 
L 313.845104 96.129551 
L 312.709316 95.553129 
L 312.114554 95.398191 
L 312.495593 94.983272 
L 313.228359 94.788943 
L 314.018526 94.782378 
L 314.572985 94.938629 
L 314.367811 94.697031 
L 314.827011 94.735109 
L 316.229037 95.030542 
L 316.600305 95.240627 
L 316.701671 95.463843 
L 316.211939 95.600398 
L 316.211939 95.820988 
L 317.049735 96.038952 
L 317.104693 95.9733 
L 317.113242 95.928657 
L 317.14011 95.884014 
L 317.236591 95.820988 
L 317.587097 96.080969 
L 318.104919 95.941787 
L 318.599536 95.968048 
L 318.876766 96.720416 
L 318.936609 96.548409 
L 319.07217 96.255602 
L 319.099038 96.038952 
L 319.37749 96.255602 
L 319.648613 96.385593 
L 319.902639 96.398723 
L 320.12369 96.259541 
L 319.697464 95.820988 
L 322.110708 95.511112 
L 322.6957 95.710693 
L 322.985142 95.873509 
L 323.28924 95.944413 
L 323.529832 96.065212 
L 323.626313 96.369836 
L 323.840036 96.554974 
L 324.322441 96.566791 
L 325.061313 96.480131 
L 325.557152 96.842528 
L 325.984599 97.279769 
L 326.536616 97.646105 
L 328.909558 97.92972 
L 329.528745 98.130615 
L 329.997716 98.462812 
L 329.693618 98.63482 
L 329.569047 98.683402 
L 329.997716 99.454153 
L 330.017256 99.807359 
L 330.08809 99.896645 
L 330.213882 99.909776 
L 330.408065 100.025322 
L 330.610797 100.180261 
L 330.770784 100.303686 
L 331.861385 100.667396 
L 331.966414 101.096758 
L 332.5453 101.566824 
L 333.910688 102.449183 
L 334.148837 102.73805 
L 334.472475 103.415576 
L 335.42385 104.749618 
L 335.651008 104.891426 
L 335.749931 105.101511 
L 337.219127 106.662709 
L 337.496357 106.803203 
L 337.906706 106.855725 
L 338.561311 107.05268 
L 339.367354 107.552946 
L 340.036614 108.20815 
L 340.280869 108.877797 
L 340.503142 108.877797 
L 340.904942 108.426113 
L 341.513138 108.428739 
L 342.179955 108.596808 
L 342.758841 108.638825 
L 343.260785 108.412983 
L 343.784713 108.080785 
L 344.356271 107.808987 
L 344.993778 107.757779 
L 345.366267 107.882517 
L 345.664259 108.088663 
L 346.261463 108.638825 
L 347.283672 109.300594 
L 347.647613 109.760156 
L 347.884541 110.303752 
L 348.021324 110.901182 
L 348.087273 111.522247 
L 347.814928 112.231285 
L 347.18597 112.619943 
L 346.550906 112.874672 
L 346.130787 113.31979 
L 345.522591 113.675622 
L 345.319859 113.745213 
L 345.163535 113.918534 
L 344.993778 115.068751 
L 344.04973 115.919597 
L 342.935926 115.886772 
L 341.673125 115.555887 
L 340.280869 115.508618 
L 338.391553 115.90778 
L 337.117761 116.006258 
L 334.653148 116.586354 
L 333.507418 116.364435 
L 332.560956 116.763148 
L 330.67186 116.452172 
L 328.411777 116.850172 
L 327.674847 116.921442 
L 326.923761 117.270709 
L 326.409603 117.711889 
L 325.943076 118.220033 
L 325.428918 118.637577 
L 324.762101 118.812211 
L 324.056973 118.826588 
L 323.642258 118.89982 
L 323.396688 119.162368 
L 323.215258 119.833684 
L 322.725812 120.607329 
L 321.75898 120.977404 
L 320.690862 121.105379 
L 320.529777 120.725531 
L 320.313774 120.609565 
L 320.155106 120.653476 
L 320.069261 120.886989 
L 320.070617 121.193752 
L 319.306848 121.443173 
L 319.210024 121.440159 
" clip-path="url(#pecf6a56b5c)" style="fill: #f5f5f5; stroke: #000000"/>
    <path d="M 222.02094 100.226217 
L 222.232221 100.856473 
L 222.163829 101.301591 
L 221.845076 101.407947 
L 221.295501 101.007472 
L 220.944994 100.810517 
L 220.498007 100.679213 
L 220.115747 100.490136 
L 219.720054 99.61303 
L 219.177806 99.225685 
L 218.109189 98.683402 
L 218.536636 98.344639 
L 219.008049 98.454934 
L 219.445266 98.791071 
L 219.767683 99.124581 
L 220.211007 99.731203 
L 220.488237 99.983305 
L 220.996288 100.226217 
L 221.079335 99.723325 
L 221.355344 99.619595 
L 221.707071 99.81655 
L 222.02094 100.226217 
" clip-path="url(#pecf6a56b5c)" style="fill: #f5f5f5; stroke: #000000"/>
    <path d="M 218.928666 94.697031 
L 218.539079 95.160532 
L 217.139495 95.495356 
L 216.65709 95.820988 
L 216.177129 95.558381 
L 215.649537 95.398191 
L 216.01592 95.122454 
L 217.061333 94.884795 
L 217.493665 94.49745 
L 217.654874 94.561789 
L 217.659759 94.593301 
L 217.71838 94.697031 
L 218.035912 94.528963 
L 218.338789 94.51058 
L 218.928666 94.697031 
" clip-path="url(#pecf6a56b5c)" style="fill: #f5f5f5; stroke: #000000"/>
    <path d="M 207.210512 93.817298 
L 207.796725 93.688621 
L 208.429346 93.955167 
L 209.483309 94.697031 
L 208.966708 95.140837 
L 208.237606 94.892673 
L 207.563461 94.326756 
L 207.210512 93.817298 
" clip-path="url(#pecf6a56b5c)" style="fill: #f5f5f5; stroke: #000000"/>
    <path d="M 306.541867 92.49376 
L 306.809327 92.741924 
L 307.241659 93.565196 
L 307.483472 93.927593 
L 307.589723 94.316251 
L 307.029156 94.310999 
L 306.031373 94.037888 
L 305.498896 93.953854 
L 305.027483 93.703064 
L 304.720943 93.292085 
L 304.69896 92.71435 
L 306.179148 92.443865 
L 306.541867 92.49376 
" clip-path="url(#pecf6a56b5c)" style="fill: #f5f5f5; stroke: #000000"/>
    <path d="M 204.230596 92.055207 
L 205.708341 92.010564 
L 206.250588 92.323066 
L 206.596209 93.175225 
L 206.372716 93.175225 
L 205.862222 92.797071 
L 203.75674 92.546282 
L 203.075267 91.853 
L 203.44165 91.296273 
L 203.738421 91.031041 
L 204.0242 91.052049 
L 204.163425 91.304152 
L 204.222047 91.638975 
L 204.230596 92.055207 
" clip-path="url(#pecf6a56b5c)" style="fill: #f5f5f5; stroke: #000000"/>
    <path d="M 201.248237 89.51186 
L 201.598743 89.653668 
L 202.305863 89.739015 
L 202.870093 89.93597 
L 202.785825 90.411289 
L 202.52325 90.868224 
L 202.338837 91.04811 
L 202.254569 90.841964 
L 202.151982 90.721165 
L 201.437535 90.532088 
L 199.928036 89.534182 
L 199.609283 89.169159 
L 199.992764 89.108759 
L 200.539896 89.145524 
L 201.035734 89.283393 
L 201.248237 89.51186 
" clip-path="url(#pecf6a56b5c)" style="fill: #f5f5f5; stroke: #000000"/>
    <path d="M 199.796138 88.510016 
L 199.645921 88.491633 
L 199.181836 88.510016 
L 199.264883 88.691214 
L 199.38701 89.169159 
L 198.53578 88.731918 
L 197.967886 88.208018 
L 196.927358 86.986896 
L 196.927358 86.746611 
L 197.450065 86.950131 
L 197.835988 87.317781 
L 198.176725 87.735326 
L 198.566312 88.087219 
L 198.173061 87.439893 
L 197.508686 86.60349 
L 196.751494 85.950913 
L 196.089562 85.864252 
L 196.089562 86.104538 
L 196.189707 86.218771 
L 196.216575 86.281797 
L 196.236115 86.361892 
L 196.314277 86.526021 
L 195.972319 86.422292 
L 195.679213 86.248971 
L 195.442285 85.999495 
L 195.268864 85.665984 
L 196.538992 85.596393 
L 197.872627 86.414414 
L 199.035283 87.564631 
L 199.796138 88.510016 
" clip-path="url(#pecf6a56b5c)" style="fill: #f5f5f5; stroke: #000000"/>
    <path d="M 190.332462 81.877882 
L 191.280173 81.737387 
L 192.043471 82.202201 
L 193.222003 83.441705 
L 192.760361 83.634721 
L 192.257194 83.650477 
L 191.778454 83.502104 
L 191.376654 83.20142 
L 191.578164 83.218489 
L 192.196131 83.20142 
L 192.065454 82.853466 
L 191.844403 82.632876 
L 191.596483 82.58692 
L 191.376654 82.76024 
L 190.592594 82.181192 
L 190.332462 81.877882 
" clip-path="url(#pecf6a56b5c)" style="fill: #f5f5f5; stroke: #000000"/>
    <path d="M 130.802529 63.092306 
L 130.675516 63.167149 
L 129.444468 64.30161 
L 127.069084 65.896946 
L 126.138471 66.303987 
L 125.149237 66.397212 
L 125.145573 65.770895 
L 125.427688 65.602827 
L 126.264263 65.736756 
L 126.59645 65.497784 
L 126.878565 65.018527 
L 127.164344 64.65219 
L 127.50508 64.754607 
L 127.898332 64.938432 
L 128.335549 64.821572 
L 128.689719 64.557652 
L 128.836272 64.302923 
L 129.019464 63.750136 
L 129.451796 63.356226 
L 130.392179 62.750917 
L 130.64132 62.655066 
L 130.822069 62.790308 
L 130.890461 62.98989 
L 130.802529 63.092306 
" clip-path="url(#pecf6a56b5c)" style="fill: #f5f5f5; stroke: #000000"/>
    <path d="M 94.914078 65.313959 
L 94.699134 65.696052 
L 94.940947 66.105719 
L 95.375721 66.448421 
L 95.732334 66.637498 
L 95.428236 67.129885 
L 94.811491 67.791654 
L 94.115363 68.370702 
L 93.573116 68.620179 
L 93.010107 68.727847 
L 89.176518 70.668511 
L 86.884181 71.503601 
L 84.762823 71.737321 
L 84.40621 71.604705 
L 84.132644 71.301394 
L 82.171273 71.264629 
L 81.880609 71.171403 
L 81.293174 70.911423 
L 80.941447 70.82345 
L 79.863059 70.844458 
L 79.591935 70.713155 
L 78.612471 69.405373 
L 78.23876 69.060045 
L 77.394858 68.496754 
L 77.083432 68.130417 
L 76.804981 67.51723 
L 76.599806 66.637498 
L 76.260291 65.839173 
L 76.1919 65.514854 
L 76.394632 65.514854 
L 76.728041 65.844425 
L 78.23876 66.956565 
L 78.436607 67.405622 
L 78.90802 67.790341 
L 79.486906 68.059513 
L 79.990072 68.157991 
L 81.230889 68.157991 
L 81.331034 68.026687 
L 82.171273 67.296641 
L 82.641464 66.981512 
L 82.872286 66.775366 
L 82.971209 66.516698 
L 83.065248 66.548211 
L 83.22035 66.739914 
L 83.253324 67.068173 
L 82.971209 67.51723 
L 83.176384 67.719437 
L 83.718631 66.71628 
L 83.565971 66.343378 
L 82.671996 66.196318 
L 82.319047 65.854929 
L 79.743374 61.311832 
L 79.379433 60.030311 
L 79.69208 58.646374 
L 80.96343 57.64059 
L 81.128302 57.223045 
L 81.388434 56.886908 
L 81.992966 56.458859 
L 82.678103 56.108279 
L 83.176384 56.001923 
L 82.846639 55.844359 
L 82.518115 55.781334 
L 82.171273 55.781334 
L 81.807332 55.597509 
L 81.791456 55.534483 
L 81.985639 55.462266 
L 82.26409 55.249555 
L 86.180726 55.726186 
L 88.626944 56.332808 
L 90.309864 56.809439 
L 90.841119 57.044472 
L 91.247804 57.398991 
L 91.411456 57.904509 
L 91.306426 58.50194 
L 91.148881 58.89585 
L 91.17697 59.263499 
L 91.61663 59.7874 
L 92.96492 60.890348 
L 93.367942 60.868027 
L 93.665933 61.020339 
L 93.866223 61.378797 
L 94.017661 61.780585 
L 94.176427 62.079957 
L 94.183755 62.32812 
L 94.022546 62.703648 
L 93.684252 63.312896 
L 93.460759 63.312896 
L 93.621967 63.584694 
L 93.668376 63.860431 
L 93.610976 64.140107 
L 93.460759 64.413218 
L 94.138567 64.845206 
L 94.497623 65.017214 
L 94.914078 65.074987 
L 94.914078 65.313959 
" clip-path="url(#pecf6a56b5c)" style="fill: #f5f5f5; stroke: #000000"/>
    <path d="M 242.998817 51.834354 
L 243.227196 52.228264 
L 243.293145 52.626113 
L 243.212541 53.063354 
L 242.564042 54.516882 
L 242.65686 54.828071 
L 242.998817 55.35985 
L 242.534732 55.376919 
L 242.178119 55.517414 
L 241.545497 56.001923 
L 241.687165 55.424188 
L 241.494204 55.161582 
L 241.171787 55.261372 
L 240.929974 55.781334 
L 241.010578 55.881124 
L 241.138812 56.093836 
L 241.160795 56.322304 
L 240.929974 56.462798 
L 240.756552 56.419468 
L 240.644195 56.265843 
L 240.546493 56.068888 
L 240.177667 55.560744 
L 240.033556 55.257433 
L 239.849143 54.96594 
L 239.476654 54.678385 
L 239.049207 54.883218 
L 238.404373 54.74535 
L 237.761981 54.4381 
L 237.344304 54.129537 
L 237.268585 53.848548 
L 237.387049 53.507159 
L 237.562913 53.146075 
L 237.650845 52.807312 
L 237.507955 52.574905 
L 237.183095 52.419967 
L 236.609095 52.255838 
L 236.760533 52.532888 
L 236.819155 52.811251 
L 236.771525 53.089614 
L 236.609095 53.358786 
L 236.403921 52.697017 
L 236.218286 52.697017 
L 235.914188 53.157892 
L 235.423235 53.287882 
L 234.965256 53.094866 
L 234.763745 52.577531 
L 234.503613 52.192812 
L 233.985792 51.773954 
L 233.605975 51.23561 
L 233.758634 50.492433 
L 233.536362 50.27447 
L 234.115247 50.290226 
L 234.532924 50.558085 
L 234.91152 50.899474 
L 235.379269 51.133194 
L 235.870222 51.145011 
L 236.208516 50.973004 
L 236.496738 50.723527 
L 236.831368 50.492433 
L 237.346747 50.341434 
L 237.766866 50.372947 
L 238.130806 50.518694 
L 238.471543 50.713023 
L 238.585122 50.849578 
L 238.863573 51.28288 
L 238.991807 51.374792 
L 239.249496 51.306514 
L 239.681828 51.003203 
L 239.906543 50.933613 
L 240.233846 51.080672 
L 241.197433 51.713555 
L 241.545497 51.834354 
L 241.933863 51.621642 
L 242.180561 51.348531 
L 242.472447 51.318332 
L 242.998817 51.834354 
" clip-path="url(#pecf6a56b5c)" style="fill: #f5f5f5; stroke: #000000"/>
    <path d="M 236.609095 45.18515 
L 236.83381 44.751849 
L 236.500401 44.266027 
L 235.966703 43.848482 
L 235.60032 43.62264 
L 236.337972 43.503154 
L 236.995019 44.037559 
L 237.468874 44.835883 
L 237.849913 46.221134 
L 238.317662 46.760791 
L 238.86113 47.257118 
L 239.29102 47.829601 
L 238.570466 47.847983 
L 237.808389 47.048345 
L 236.609095 45.18515 
" clip-path="url(#pecf6a56b5c)" style="fill: #f5f5f5; stroke: #000000"/>
    <path d="M 232.10014 48.830132 
L 231.894965 48.349562 
L 230.937484 47.666784 
L 230.64682 47.167832 
L 231.135331 46.98532 
L 231.524918 46.569088 
L 231.781387 46.039935 
L 231.876646 45.516035 
L 231.919391 44.344809 
L 231.814361 43.979785 
L 231.484616 43.424372 
L 231.938931 43.495276 
L 232.404238 43.65284 
L 232.771842 43.940394 
L 232.920838 44.394704 
L 232.749859 44.69145 
L 232.425 45.015769 
L 232.217383 45.417557 
L 232.39691 45.94671 
L 232.660706 46.059631 
L 233.4008 45.953275 
L 233.758634 46.067509 
L 233.966251 46.356377 
L 234.103034 46.684635 
L 234.317979 46.926233 
L 234.763745 46.969563 
L 234.371715 46.729278 
L 234.491401 46.524445 
L 234.62452 46.347185 
L 234.778401 46.197499 
L 234.950601 46.067509 
L 235.175316 46.458793 
L 235.474529 46.654435 
L 235.768856 46.605853 
L 235.993571 46.268403 
L 236.232942 46.821191 
L 235.906861 47.060163 
L 235.36095 47.182275 
L 234.950601 47.388421 
L 235.297443 47.481647 
L 235.555133 47.670723 
L 235.773742 47.883435 
L 235.993571 48.05019 
L 236.311103 48.157859 
L 236.92907 48.286536 
L 237.241717 48.490057 
L 236.56635 49.841168 
L 236.118142 50.384764 
L 235.788397 50.051254 
L 235.651614 50.11428 
L 235.305992 50.208818 
L 235.174094 50.27447 
L 235.077614 50.026306 
L 234.998231 49.891064 
L 234.763745 49.612701 
L 234.635511 48.964062 
L 234.001668 48.73822 
L 233.497281 48.998201 
L 233.758634 49.813595 
L 233.371489 49.640274 
L 232.316306 49.008705 
L 232.10014 48.830132 
" clip-path="url(#pecf6a56b5c)" style="fill: #f5f5f5; stroke: #000000"/>
    <path d="M 226.120767 42.963497 
L 226.755831 42.561709 
L 226.470052 42.025991 
L 225.860635 41.710863 
L 225.523562 41.981348 
L 225.485703 42.282033 
L 225.369682 42.616856 
L 225.171835 42.825629 
L 224.892162 42.742907 
L 224.704086 42.400206 
L 224.68943 41.997104 
L 224.827435 41.745002 
L 225.094894 41.860549 
L 225.102222 41.29857 
L 224.625924 40.65781 
L 223.922468 40.35056 
L 223.250766 40.778609 
L 223.098106 40.611853 
L 222.962544 40.573775 
L 222.818434 40.580341 
L 222.636463 40.539637 
L 223.052919 40.019675 
L 223.644017 39.856859 
L 224.704086 39.879181 
L 225.668894 39.497088 
L 226.087793 39.477392 
L 226.325942 39.879181 
L 226.924367 39.546983 
L 227.691329 39.743938 
L 228.446079 40.2337 
L 229.007866 40.778609 
L 229.296088 41.179084 
L 229.557441 41.655715 
L 229.751624 42.15992 
L 229.868867 43.231356 
L 230.006871 43.567493 
L 230.64682 44.284409 
L 230.902067 44.290974 
L 231.318523 44.452478 
L 231.689791 44.504999 
L 231.189067 45.001326 
L 230.470956 44.801744 
L 229.007866 43.84323 
L 228.353262 43.715866 
L 227.627823 43.715866 
L 226.870631 43.558301 
L 226.120767 42.963497 
" clip-path="url(#pecf6a56b5c)" style="fill: #f5f5f5; stroke: #000000"/>
    <path d="M 219.227879 38.658059 
L 218.642887 38.916727 
L 217.829517 39.027022 
L 216.470235 38.996822 
L 215.78632 38.790675 
L 214.9644 38.215567 
L 213.724804 37.984473 
L 212.857697 37.708736 
L 212.330106 37.350277 
L 212.762438 36.994445 
L 212.300795 36.483675 
L 211.688935 36.94455 
L 211.201645 37.20847 
L 211.123484 36.113399 
L 211.233399 36.201373 
L 211.514292 36.333989 
L 211.61688 35.694542 
L 211.890446 35.626264 
L 212.209199 35.77595 
L 212.444906 35.782515 
L 212.772208 35.728681 
L 214.1034 36.003105 
L 214.833724 36.467919 
L 215.678847 36.534883 
L 216.53252 36.467919 
L 217.288491 36.532257 
L 218.020036 36.487614 
L 218.496334 36.104208 
L 218.907904 35.663029 
L 219.441602 35.45163 
L 220.123075 35.521221 
L 220.842407 35.723428 
L 221.453046 36.062191 
L 221.797446 36.532257 
L 221.687531 36.487614 
L 221.406637 36.333989 
L 221.540978 36.768603 
L 223.548757 38.823501 
L 223.661115 39.107117 
L 223.57074 39.426184 
L 223.354574 39.422245 
L 223.084672 39.287002 
L 222.841638 39.217412 
L 219.115521 40.077449 
L 219.115521 39.879181 
L 219.179028 39.780703 
L 219.254747 39.699295 
L 219.313368 39.567992 
L 219.339015 39.318515 
L 219.426947 39.197716 
L 219.624794 39.213472 
L 219.83119 39.256803 
L 219.954539 39.217412 
L 219.980186 38.914101 
L 219.875156 38.602912 
L 219.628458 38.457165 
L 219.227879 38.658059 
" clip-path="url(#pecf6a56b5c)" style="fill: #f5f5f5; stroke: #000000"/>
    <path d="M 202.479284 33.008074 
L 202.309527 32.564269 
L 201.869867 32.393575 
L 200.070926 32.276715 
L 199.765606 32.150663 
L 199.38701 31.906439 
L 199.892619 31.835535 
L 202.708884 32.012795 
L 203.180297 32.28328 
L 203.170527 32.639112 
L 202.479284 33.008074 
" clip-path="url(#pecf6a56b5c)" style="fill: #f5f5f5; stroke: #000000"/>
    <path d="M 191.274066 33.008074 
L 191.009049 32.95424 
L 190.733041 32.829502 
L 190.332462 32.568208 
L 189.885474 32.170359 
L 188.877921 31.046402 
L 188.336895 31.245983 
L 187.786099 31.180331 
L 187.273162 30.930855 
L 186.590468 30.403015 
L 186.395064 30.329485 
L 186.2766 30.190304 
L 186.233856 29.822654 
L 186.131268 29.696603 
L 185.652528 29.338145 
L 185.507196 29.263302 
L 185.258055 29.055842 
L 185.104174 28.601533 
L 184.844042 28.148536 
L 184.27737 27.94239 
L 183.385837 28.313978 
L 182.98648 28.291657 
L 182.936407 27.700792 
L 183.788859 27.439498 
L 184.400719 27.407985 
L 184.897778 27.637766 
L 186.458571 29.397231 
L 187.10829 29.927697 
L 188.490776 30.354433 
L 189.611908 31.276183 
L 190.840513 31.750188 
L 191.442603 32.375192 
L 191.932335 33.105239 
L 192.196131 33.690852 
L 191.515879 33.08423 
L 191.274066 33.008074 
" clip-path="url(#pecf6a56b5c)" style="fill: #f5f5f5; stroke: #000000"/>
    <path d="M 175.131225 22.633794 
L 175.379144 22.616724 
L 175.357161 23.050026 
L 175.035965 23.358589 
L 174.397237 22.952861 
L 174.111459 23.04346 
L 173.79759 23.483327 
L 173.50082 23.626447 
L 173.268777 22.832062 
L 173.701109 22.570768 
L 174.174965 22.404013 
L 174.662255 22.401387 
L 175.131225 22.633794 
" clip-path="url(#pecf6a56b5c)" style="fill: #f5f5f5; stroke: #000000"/>
    <path d="M 162.3701 21.751435 
L 163.830748 21.035832 
L 164.495122 20.963615 
L 165.033706 21.311569 
L 164.878603 21.403481 
L 164.586718 21.656897 
L 164.438944 21.751435 
L 164.71251 21.878799 
L 164.905472 22.066563 
L 165.011723 22.318666 
L 165.033706 22.633794 
L 162.011045 22.112519 
L 161.551844 21.751435 
L 161.735036 21.605688 
L 161.913342 21.530845 
L 162.117296 21.566297 
L 162.3701 21.751435 
" clip-path="url(#pecf6a56b5c)" style="fill: #f5f5f5; stroke: #000000"/>
    <path d="M 166.077898 17.306816 
L 166.265974 17.721734 
L 166.593276 18.081506 
L 166.993855 18.332295 
L 167.40909 18.426833 
L 167.891494 18.443903 
L 168.051481 18.509555 
L 167.965992 18.643484 
L 167.716851 18.868013 
L 167.115983 19.14375 
L 166.506566 19.02689 
L 165.23888 18.426833 
L 165.308493 18.097262 
L 165.466038 17.859603 
L 165.663885 17.623257 
L 165.854404 17.306816 
L 166.077898 17.306816 
" clip-path="url(#pecf6a56b5c)" style="fill: #f5f5f5; stroke: #000000"/>
    <path d="M 147.132225 15.543411 
L 147.355719 15.543411 
L 147.646383 16.01479 
L 147.835681 16.232754 
L 147.83446 16.38244 
L 147.558451 16.645046 
L 147.06017 16.939166 
L 146.701114 16.90634 
L 146.383582 16.742211 
L 146.012314 16.645046 
L 145.043841 16.742211 
L 144.312296 16.99694 
L 142.827223 17.745369 
L 143.164296 17.375093 
L 144.983999 16.180232 
L 145.520139 16.063372 
L 146.102689 16.083068 
L 146.740195 16.224876 
L 146.622953 16.048929 
L 146.454416 15.712792 
L 146.329846 15.543411 
L 146.535021 15.342517 
L 146.666919 15.565733 
L 147.132225 15.98459 
L 147.132225 15.543411 
" clip-path="url(#pecf6a56b5c)" style="fill: #f5f5f5; stroke: #000000"/>
    <path d="M 157.228523 15.102232 
L 157.390953 15.062841 
L 157.602234 14.98012 
L 157.782983 14.990624 
L 157.861145 15.221718 
L 157.793975 15.458064 
L 157.61689 15.59068 
L 157.379962 15.704914 
L 157.127157 15.883487 
L 156.825502 15.838844 
L 156.295468 15.613002 
L 155.690935 15.437055 
L 155.177999 15.543411 
L 155.060756 15.354334 
L 154.928859 15.342517 
L 154.563697 15.543411 
L 154.673612 15.102232 
L 154.870237 14.83306 
L 155.192654 14.69913 
L 155.682387 14.661052 
L 155.804514 14.722765 
L 156.042663 15.009006 
L 156.203872 15.102232 
L 156.464004 15.127179 
L 157.228523 15.102232 
" clip-path="url(#pecf6a56b5c)" style="fill: #f5f5f5; stroke: #000000"/>
    <path d="M 214.560158 96.774251 
L 214.656638 96.901615 
L 214.662745 97.199674 
L 214.440472 97.354612 
L 214.191332 97.378246 
L 213.981272 97.30209 
L 213.821285 97.1419 
L 213.658855 97.031605 
L 213.608783 96.892424 
L 213.739459 96.803137 
L 213.888455 96.879293 
L 214.612672 97.019788 
L 214.589468 96.910806 
L 214.57237 96.858285 
L 214.560158 96.774251 
" clip-path="url(#pecf6a56b5c)" style="fill: #f5f5f5; stroke: #000000"/>
    <path d="M 212.464446 96.666582 
L 212.701374 96.720416 
L 213.117829 96.863537 
L 213.075085 97.047362 
L 212.615884 97.074935 
L 212.32522 96.874041 
L 212.369186 96.703347 
L 212.464446 96.666582 
" clip-path="url(#pecf6a56b5c)" style="fill: #f5f5f5; stroke: #000000"/>
    <path d="M 112.527337 64.951562 
L 112.754495 65.206291 
L 112.780142 65.776147 
L 112.268427 66.208136 
L 111.078903 66.649315 
L 110.204468 67.091807 
L 110.002958 67.146955 
L 109.847855 67.251997 
L 109.731834 67.389866 
L 109.310493 67.519856 
L 108.660774 67.543491 
L 108.533761 67.451579 
L 108.89648 67.317649 
L 109.496128 66.814757 
L 109.825872 66.720219 
L 110.106766 66.545585 
L 110.326596 66.294796 
L 110.51223 66.149049 
L 111.369567 65.814225 
L 111.72618 65.798469 
L 112.063252 65.63434 
L 112.334376 65.369107 
L 112.439405 65.140639 
L 112.476044 64.998831 
L 112.527337 64.951562 
" clip-path="url(#pecf6a56b5c)" style="fill: #f5f5f5; stroke: #000000"/>
    <path d="M 116.389016 64.442105 
L 116.79448 64.356758 
L 116.831118 64.5222 
L 116.385352 64.883284 
L 115.861424 65.219421 
L 114.923483 65.988859 
L 114.398334 65.994111 
L 113.99287 65.57394 
L 113.892725 65.140639 
L 113.978215 65.195786 
L 114.298189 65.546366 
L 114.795249 65.492532 
L 115.198271 65.168213 
L 115.319177 64.975197 
L 115.201934 64.963379 
L 115.289866 64.900354 
L 116.188726 64.506444 
L 116.389016 64.442105 
" clip-path="url(#pecf6a56b5c)" style="fill: #f5f5f5; stroke: #000000"/>
    <path d="M 92.598537 55.0526 
L 93.722112 55.56337 
L 94.219172 55.952028 
L 93.867444 56.10434 
L 93.05041 56.143731 
L 92.217499 55.777395 
L 91.910958 55.227233 
L 92.598537 55.0526 
" clip-path="url(#pecf6a56b5c)" style="fill: #f5f5f5; stroke: #000000"/>
    <path d="M 65.355508 54.83201 
L 65.430006 54.828071 
L 65.581444 54.835949 
L 65.421457 54.895036 
L 64.836465 54.914731 
L 64.16232 54.872714 
L 63.705562 54.666568 
L 64.005996 54.497187 
L 64.897529 54.675759 
L 65.355508 54.83201 
" clip-path="url(#pecf6a56b5c)" style="fill: #f5f5f5; stroke: #000000"/>
    <path d="M 125.281135 51.4562 
L 125.48753 51.700424 
L 125.558364 52.146856 
L 125.321437 52.165238 
L 125.006347 51.976162 
L 124.696143 52.002422 
L 124.512951 51.952527 
L 124.378611 51.752946 
L 124.302892 51.508721 
L 124.302892 51.23955 
L 124.493411 51.113498 
L 124.823156 51.193593 
L 125.134581 51.353783 
L 125.281135 51.4562 
" clip-path="url(#pecf6a56b5c)" style="fill: #f5f5f5; stroke: #000000"/>
    <path d="M 209.879002 35.888871 
L 209.946173 35.796958 
L 210.161117 35.904627 
L 210.144019 36.106834 
L 209.922968 36.46398 
L 209.846028 36.666187 
L 209.298896 36.852638 
L 209.028993 36.844759 
L 208.971593 36.6373 
L 208.964266 36.106834 
L 209.142572 36.046435 
L 209.560249 36.167234 
L 209.842364 36.127843 
L 209.879002 35.888871 
" clip-path="url(#pecf6a56b5c)" style="fill: #f5f5f5; stroke: #000000"/>
    <path d="M 96.521279 33.412489 
L 96.631194 33.798521 
L 96.724011 34.544324 
L 96.548147 35.112868 
L 96.391824 35.329518 
L 96.269696 35.536978 
L 96.131692 35.403048 
L 96.196419 33.373098 
L 96.1207 33.102613 
L 96.106045 32.931918 
L 96.218402 32.905658 
L 96.362513 33.0409 
L 96.477313 33.283812 
L 96.521279 33.412489 
" clip-path="url(#pecf6a56b5c)" style="fill: #f5f5f5; stroke: #000000"/>
    <path d="M 195.266421 32.942423 
L 195.530217 32.836067 
L 196.696537 32.782233 
L 196.309392 33.110491 
L 195.80989 33.436123 
L 195.604715 33.436123 
L 195.605936 33.222099 
L 195.509455 33.042213 
L 195.266421 32.942423 
" clip-path="url(#pecf6a56b5c)" style="fill: #f5f5f5; stroke: #000000"/>
    <path d="M 181.593002 25.85204 
L 182.004573 26.088386 
L 182.171888 26.312915 
L 181.900764 26.600469 
L 181.436679 26.68319 
L 181.224177 26.474418 
L 181.226619 26.248576 
L 181.139909 26.140907 
L 181.022666 26.076569 
L 180.857794 26.100203 
L 180.648955 26.045056 
L 180.068849 25.636702 
L 179.798946 25.3242 
L 179.831921 25.001194 
L 180.209295 24.898777 
L 180.14701 24.693944 
L 180.168993 24.415581 
L 180.330202 24.310538 
L 180.531713 24.667683 
L 180.445002 25.187645 
L 180.656283 25.258549 
L 181.235168 25.3846 
L 181.419581 25.662963 
L 181.593002 25.85204 
" clip-path="url(#pecf6a56b5c)" style="fill: #f5f5f5; stroke: #000000"/>
    <path d="M 177.204954 22.456534 
L 177.439439 22.790045 
L 177.482184 23.018513 
L 177.300213 23.173451 
L 176.941158 23.286372 
L 176.728656 23.517466 
L 176.864217 23.698664 
L 177.123128 23.744621 
L 177.171979 23.925819 
L 176.944822 24.162165 
L 176.597979 24.209435 
L 176.252357 23.996723 
L 176.058174 23.70523 
L 176.148549 23.512214 
L 176.334183 23.358589 
L 176.405017 23.199711 
L 176.136336 23.157694 
L 175.857885 23.004069 
L 176.160762 22.523499 
L 176.837349 22.346239 
L 177.204954 22.456534 
" clip-path="url(#pecf6a56b5c)" style="fill: #f5f5f5; stroke: #000000"/>
    <path d="M 170.148414 19.709667 
L 170.261993 19.947327 
L 170.382899 20.374063 
L 170.301074 20.455471 
L 170.132538 20.211246 
L 169.993312 20.061561 
L 169.868742 20.072065 
L 169.670895 20.112769 
L 169.429082 20.079943 
L 169.253218 19.932883 
L 169.145746 19.756937 
L 169.155516 19.680781 
L 169.258103 19.703102 
L 169.305733 19.525843 
L 169.360691 19.139811 
L 169.686772 19.061029 
L 170.051933 19.444435 
L 170.148414 19.709667 
" clip-path="url(#pecf6a56b5c)" style="fill: #f5f5f5; stroke: #000000"/>
    <path d="M 164.646561 17.847785 
L 164.72228 17.950202 
L 164.843186 18.16554 
L 164.805327 18.379564 
L 164.649003 18.564702 
L 164.478024 18.577832 
L 164.275293 18.434712 
L 164.133624 18.212809 
L 164.011497 17.968585 
L 163.773348 17.887176 
L 163.330024 17.635074 
L 163.195684 17.577301 
L 163.14439 17.430241 
L 163.093096 17.359337 
L 162.897692 17.237225 
L 162.814645 16.975931 
L 163.10653 16.784228 
L 163.330024 16.742211 
L 163.553518 16.723828 
L 163.81365 16.797358 
L 163.809986 16.977244 
L 164.021267 17.204399 
L 164.460927 17.595683 
L 164.646561 17.847785 
" clip-path="url(#pecf6a56b5c)" style="fill: #f5f5f5; stroke: #000000"/>
    <path d="M 159.942201 16.327292 
L 160.28538 16.331231 
L 160.69695 16.406074 
L 160.645657 16.550508 
L 160.402623 16.610908 
L 160.166916 16.591212 
L 159.395069 16.68969 
L 159.106848 16.920784 
L 158.652533 17.115113 
L 158.242183 17.225407 
L 158.19089 17.166321 
L 158.117613 16.953609 
L 158.232413 16.889271 
L 158.501094 16.920784 
L 158.452243 16.634542 
L 158.601239 16.45597 
L 159.031128 16.394257 
L 159.250958 16.386379 
L 159.942201 16.327292 
" clip-path="url(#pecf6a56b5c)" style="fill: #f5f5f5; stroke: #000000"/>
    <path d="M 151.925738 14.468036 
L 152.005121 14.566514 
L 152.072291 14.817303 
L 151.997793 15.040519 
L 151.865895 15.030015 
L 151.770636 15.054962 
L 151.741325 15.287369 
L 151.586223 15.32676 
L 151.241823 15.258483 
L 151.015887 15.381908 
L 150.956044 15.598558 
L 150.853457 15.497455 
L 150.832695 15.086475 
L 151.13435 14.735895 
L 151.653393 14.531062 
L 151.925738 14.468036 
" clip-path="url(#pecf6a56b5c)" style="fill: #f5f5f5; stroke: #000000"/>
    <path d="M 148.729656 14.649235 
L 150.606759 14.865886 
L 150.650725 14.959111 
L 150.623857 15.158692 
L 150.447993 15.219092 
L 150.22572 15.095667 
L 150.011997 15.086475 
L 149.876435 15.289996 
L 149.755529 15.370091 
L 149.118022 15.082536 
L 148.765073 14.972241 
L 148.557456 14.936789 
L 148.002996 14.995876 
L 147.678136 14.972241 
L 146.824463 14.661052 
L 146.531357 14.588835 
L 146.310306 14.290777 
L 146.135663 14.20543 
L 146.259012 14.029483 
L 146.842783 14.103013 
L 147.6818 14.416828 
L 148.729656 14.649235 
" clip-path="url(#pecf6a56b5c)" style="fill: #f5f5f5; stroke: #000000"/>
    <path d="M 145.615399 13.235098 
L 145.754625 13.282367 
L 145.851106 13.559417 
L 145.621505 13.825963 
L 145.274663 13.769502 
L 144.941254 13.661834 
L 144.58342 13.613251 
L 144.243905 13.471444 
L 144.094909 13.244289 
L 143.965454 13.105107 
L 143.696773 13.014508 
L 143.901947 12.825431 
L 144.588305 12.746649 
L 145.410224 13.246915 
L 145.615399 13.235098 
" clip-path="url(#pecf6a56b5c)" style="fill: #f5f5f5; stroke: #000000"/>
   </g>
  </g>
 </g>
 <defs>
  <clipPath id="pecf6a56b5c">
   <rect x="7.2" y="7.2" width="357.12" height="122.026276"/>
  </clipPath>
 </defs>
</svg>
