<?xml version="1.0" encoding="utf-8" standalone="no"?>
<!DOCTYPE svg PUBLIC "-//W3C//DTD SVG 1.1//EN"
  "http://www.w3.org/Graphics/SVG/1.1/DTD/svg11.dtd">
<svg xmlns:xlink="http://www.w3.org/1999/xlink" width="371.52pt" height="217.507535pt" viewBox="0 0 371.52 217.507535" xmlns="http://www.w3.org/2000/svg" version="1.1">
 <metadata>
  <rdf:RDF xmlns:dc="http://purl.org/dc/elements/1.1/" xmlns:cc="http://creativecommons.org/ns#" xmlns:rdf="http://www.w3.org/1999/02/22-rdf-syntax-ns#">
   <cc:Work>
    <dc:type rdf:resource="http://purl.org/dc/dcmitype/StillImage"/>
    <dc:date>2024-03-04T13:11:10.065223</dc:date>
    <dc:format>image/svg+xml</dc:format>
    <dc:creator>
     <cc:Agent>
      <dc:title>Matplotlib v3.8.0, https://matplotlib.org/</dc:title>
     </cc:Agent>
    </dc:creator>
   </cc:Work>
  </rdf:RDF>
 </metadata>
 <defs>
  <style type="text/css">*{stroke-linejoin: round; stroke-linecap: butt}</style>
 </defs>
 <g id="figure_1">
  <g id="patch_1">
   <path d="M 0 217.507535 
L 371.52 217.507535 
L 371.52 0 
L 0 0 
z
" style="fill: #ffffff"/>
  </g>
  <g id="axes_1">
   <g id="PatchCollection_1">
    <defs>
     <path id="m3e511e80d4" d="M 154.722302 -187.56874 
L 155.744609 -187.534142 
L 157.481539 -188.010824 
L 162.965275 -187.61487 
L 163.064528 -188.256854 
L 163.004977 -190.840163 
L 162.950387 -191.051595 
L 162.920611 -191.336067 
L 162.965275 -191.751241 
L 163.099267 -192.004959 
L 163.570719 -192.527772 
L 163.719599 -192.904505 
L 163.66501 -195.064951 
L 162.935499 -196.106732 
L 162.156362 -196.710273 
L 161.952893 -197.552156 
L 161.957856 -197.552156 
L 162.176213 -197.805873 
L 162.419383 -198.001928 
L 162.692329 -198.128787 
L 162.965275 -198.18645 
L 163.660047 -198.682354 
L 163.883367 -199.024488 
L 164.017359 -199.63764 
L 164.930488 -198.816901 
L 167.362189 -198.294088 
L 167.769127 -197.559844 
L 168.33487 -197.013966 
L 169.009792 -196.687208 
L 169.550721 -196.794846 
L 169.709526 -197.552156 
L 169.709526 -197.559844 
L 170.141278 -198.532429 
L 170.76161 -198.959137 
L 171.32239 -198.682354 
L 171.545709 -197.552156 
L 171.997311 -196.4604 
L 174.731735 -196.418113 
L 176.012101 -195.795351 
L 176.781313 -194.576736 
L 176.731686 -193.857869 
L 176.314823 -193.077494 
L 175.977362 -191.708955 
L 176.121279 -190.651797 
L 176.567918 -189.340921 
L 177.133661 -188.110774 
L 177.644815 -187.303489 
L 178.602608 -186.550024 
L 179.471073 -186.173291 
L 180.200583 -185.581283 
L 180.776252 -184.185834 
L 180.79114 -183.463123 
L 180.657148 -182.717346 
L 180.617447 -182.010011 
L 180.925131 -181.394937 
L 181.524521 -181.208538 
L 181.605015 -181.183506 
L 182.13602 -181.733228 
L 182.592584 -182.525135 
L 183.039223 -183.071013 
L 185.039174 -183.236314 
L 194.646878 -179.930293 
L 195.19277 -179.572781 
L 195.827991 -178.615573 
L 196.180339 -178.277282 
L 196.68653 -178.11967 
L 200.676507 -179.06919 
L 201.867544 -178.957708 
L 201.97176 -178.450272 
L 202.125602 -177.996655 
L 204.552342 -173.933324 
L 204.860026 -173.825686 
L 206.190019 -173.864128 
L 209.033621 -174.917442 
L 209.827646 -174.80596 
L 210.472792 -174.190886 
L 211.098086 -173.022246 
L 211.51495 -172.015063 
L 211.77797 -170.988658 
L 211.668792 -170.10449 
L 210.978983 -169.550924 
L 210.884692 -169.308738 
L 210.844991 -169.070397 
L 210.879729 -168.8359 
L 210.978983 -168.612936 
L 213.018635 -168.98198 
L 215.996229 -171.822852 
L 218.020993 -171.619109 
L 219.539566 -170.473534 
L 220.269077 -170.135244 
L 221.07799 -170.319766 
L 221.663583 -171.046322 
L 222.010969 -171.995842 
L 222.363318 -172.741619 
L 222.98365 -172.872322 
L 224.725543 -172.837724 
L 226.293742 -172.44177 
L 227.767652 -171.619109 
L 231.856881 -167.348191 
L 232.293595 -165.929677 
L 230.784947 -165.318447 
L 230.968565 -164.757193 
L 230.968565 -164.511163 
L 230.834574 -164.303576 
L 230.626142 -163.873024 
L 230.551702 -163.496291 
L 230.487188 -162.923504 
L 230.49215 -162.485264 
L 230.626142 -162.52755 
L 230.214242 -161.958607 
L 229.226673 -160.99371 
L 228.775071 -160.367104 
L 227.95127 -160.186426 
L 226.412846 -160.609289 
L 225.658522 -160.367104 
L 225.286323 -159.406051 
L 224.566738 -158.794822 
L 223.723086 -158.298918 
L 222.98365 -157.687689 
L 222.720629 -157.583895 
L 222.278953 -157.307112 
L 221.986156 -157.280202 
L 222.219401 -156.453697 
L 222.308729 -156.226889 
L 221.350936 -156.442165 
L 220.973774 -155.261992 
L 221.425376 -153.931895 
L 222.98365 -153.658956 
L 223.603982 -151.740695 
L 223.832265 -151.310143 
L 224.447634 -150.818084 
L 224.799983 -150.894968 
L 225.142406 -151.190972 
L 225.703186 -151.37165 
L 227.891718 -151.37165 
L 228.348282 -151.229415 
L 228.685743 -150.537457 
L 228.720482 -149.845499 
L 228.68078 -149.168918 
L 228.804847 -148.519246 
L 229.658424 -147.392892 
L 231.797329 -146.616362 
L 232.8643 -145.874429 
L 233.55411 -144.909532 
L 234.774923 -142.702955 
L 235.469695 -141.764967 
L 236.080102 -140.669367 
L 237.534161 -139.162437 
L 238.05524 -137.755456 
L 238.601132 -135.218276 
L 239.052734 -134.287977 
L 239.896386 -133.188533 
L 241.54895 -131.67007 
L 243.563789 -130.628289 
L 245.514113 -130.770524 
L 246.992985 -132.781047 
L 248.059956 -133.549889 
L 248.64555 -134.376394 
L 249.166629 -135.383577 
L 250.030131 -136.682921 
L 251.107028 -137.601687 
L 252.059858 -137.740079 
L 253.022614 -137.674727 
L 253.606296 -137.822772 
L 254.144174 -137.959199 
L 254.595776 -138.358997 
L 255.394764 -139.462285 
L 255.970432 -139.858239 
L 256.392258 -139.873616 
L 257.280573 -139.55839 
L 257.712324 -139.589144 
L 257.831428 -139.862083 
L 257.821503 -140.761628 
L 257.955495 -140.965372 
L 258.660192 -140.953839 
L 258.948026 -140.757784 
L 259.171346 -140.308012 
L 259.682499 -139.546858 
L 260.26313 -139.327738 
L 260.570815 -139.962033 
L 260.476524 -140.942306 
L 259.85123 -141.764967 
L 259.781752 -143.571747 
L 259.275561 -144.905688 
L 258.402134 -145.859052 
L 257.230947 -146.539477 
L 256.332706 -147.458244 
L 255.861253 -148.899823 
L 255.503942 -150.483638 
L 254.95805 -151.844488 
L 253.419626 -154.093352 
L 253.414663 -155.131289 
L 254.719842 -155.915508 
L 255.816589 -155.777116 
L 257.171174 -154.972486 
L 257.881055 -154.550813 
L 258.99269 -154.681516 
L 263.925571 -153.312977 
L 264.451613 -152.993907 
L 265.568211 -152.063608 
L 266.18358 -151.740695 
L 266.843614 -151.733006 
L 268.307597 -152.032855 
L 268.868378 -151.863709 
L 268.764162 -151.656122 
L 268.927929 -150.848838 
L 269.225689 -149.887785 
L 269.513523 -149.241958 
L 269.984975 -148.734522 
L 271.677241 -147.67352 
L 272.818653 -147.346762 
L 275.071699 -147.412113 
L 276.06423 -146.993094 
L 275.180877 -146.639427 
L 275.314869 -146.358799 
L 275.4836 -146.108926 
L 275.682106 -145.89365 
L 275.900463 -145.705284 
L 275.840911 -144.736542 
L 275.935201 -143.794711 
L 276.267699 -143.029713 
L 276.907882 -142.549187 
L 277.428961 -143.910037 
L 278.49097 -143.990766 
L 279.53809 -143.148883 
L 279.984729 -141.764967 
L 280.2279 -141.603511 
L 280.485958 -141.545847 
L 280.739053 -141.599666 
L 280.987186 -141.764967 
L 282.396581 -143.464109 
L 284.684366 -143.671696 
L 288.977064 -142.918231 
L 290.088699 -143.206547 
L 290.9125 -143.875439 
L 292.336783 -145.832143 
L 292.604766 -146.439528 
L 292.728833 -146.946964 
L 293.04148 -147.146863 
L 293.855356 -146.847014 
L 294.12334 -146.597141 
L 295.006692 -145.413124 
L 295.125796 -145.243978 
L 295.15061 -145.044079 
L 295.115871 -144.821115 
L 295.006692 -144.586618 
L 294.485613 -143.195014 
L 294.391323 -142.514589 
L 294.500501 -141.764967 
L 295.006692 -141.26522 
L 295.756054 -139.888993 
L 295.304452 -138.762639 
L 294.331771 -137.924601 
L 292.287156 -136.705986 
L 291.006791 -136.206239 
L 288.68923 -136.117822 
L 288.163188 -135.852571 
L 287.81084 -135.10295 
L 287.910093 -134.560916 
L 290.242542 -131.620095 
L 290.991903 -131.281804 
L 291.478243 -131.370221 
L 291.885181 -131.604718 
L 292.396335 -131.723889 
L 293.026592 -131.554743 
L 294.331771 -130.908916 
L 295.006692 -130.76668 
L 295.026543 -130.69364 
L 295.036468 -130.624444 
L 295.026543 -130.566781 
L 295.006692 -130.512962 
L 294.560053 -130.132385 
L 294.406211 -129.724899 
L 294.555091 -129.298192 
L 295.006692 -128.848419 
L 295.537697 -128.214124 
L 295.865232 -127.391463 
L 296.133216 -126.472697 
L 296.510378 -125.584684 
L 297.051307 -124.838907 
L 300.162893 -121.748162 
L 301.909749 -121.379117 
L 303.656604 -121.909618 
L 305.070961 -123.170519 
L 305.944389 -123.397328 
L 307.8699 -123.454991 
L 309.433137 -123.920141 
L 309.676307 -124.246899 
L 309.591942 -124.988831 
L 309.254481 -125.503956 
L 308.84258 -125.515488 
L 308.460456 -125.396318 
L 308.20736 -125.503956 
L 307.993966 -127.18772 
L 308.792386 -126.988479 
L 309.472838 -126.818676 
L 312.276739 -124.988831 
L 311.964092 -123.616448 
L 312.589387 -122.893736 
L 315.656309 -122.31326 
L 316.385819 -121.909618 
L 317.89943 -120.606431 
L 318.465173 -120.352713 
L 319.591696 -120.118216 
L 320.162401 -119.695353 
L 320.36587 -119.287867 
L 320.698368 -118.134603 
L 320.966352 -117.631012 
L 321.919182 -116.850637 
L 322.613954 -116.989028 
L 323.958834 -118.161513 
L 323.904245 -118.288372 
L 323.83973 -118.372944 
L 323.755365 -118.415231 
L 323.651149 -118.415231 
L 325.586585 -118.653572 
L 327.442619 -117.992367 
L 331.01077 -116.020287 
L 332.127368 -116.024132 
L 334.01814 -117.235058 
L 334.7278 -116.804506 
L 335.025559 -115.455188 
L 334.906455 -114.313458 
L 335.114887 -113.40238 
L 336.39029 -112.714266 
L 335.070223 -111.180426 
L 335.090074 -109.18528 
L 335.9238 -106.924884 
L 337.055286 -104.587604 
L 337.536664 -102.423314 
L 337.839386 -101.865903 
L 338.479569 -101.41613 
L 339.95844 -101.285427 
L 340.643287 -101.07784 
L 341.268582 -100.562715 
L 342.211487 -99.44405 
L 342.816931 -99.07885 
L 343.516666 -99.136513 
L 344.266027 -99.463271 
L 345.015388 -99.593974 
L 345.734973 -99.055785 
L 345.93348 -98.475309 
L 346.256052 -95.915065 
L 346.479372 -95.200041 
L 347.045115 -93.900698 
L 347.258509 -93.227961 
L 347.948318 -90.056487 
L 348.087273 -88.518803 
L 347.883804 -87.277123 
L 345.918592 -87.223304 
L 345.020351 -86.877325 
L 343.050176 -85.04748 
L 341.705296 -84.970596 
L 340.315752 -85.401148 
L 338.742589 -86.200744 
L 338.410091 -86.269939 
L 338.077593 -86.200744 
L 336.7079 -85.470344 
L 334.583883 -85.781725 
L 333.596314 -85.151274 
L 333.348181 -84.540045 
L 333.229077 -83.156129 
L 332.985907 -82.502613 
L 332.588895 -82.095126 
L 331.01077 -81.237867 
L 328.966155 -78.708377 
L 327.889258 -77.993353 
L 326.489789 -78.312423 
L 326.370685 -74.779593 
L 325.238683 -73.881763 
L 323.462568 -72.473067 
L 317.001189 -69.920511 
L 315.586831 -68.563504 
L 314.430532 -66.656776 
L 313.532291 -64.388691 
L 312.921885 -61.947617 
L 312.748192 -59.952472 
L 312.756437 -59.504918 
L 312.817669 -56.181301 
L 312.500059 -54.547511 
L 311.502565 -52.829149 
L 310.088207 -51.48752 
L 308.495194 -50.741743 
L 305.919575 -50.945486 
L 304.758314 -50.760964 
L 303.750894 -50.099759 
L 303.115674 -48.800416 
L 302.817915 -47.697128 
L 302.445715 -45.394445 
L 302.053666 -44.375729 
L 301.170313 -43.495405 
L 300.252221 -43.441586 
L 299.239839 -43.61842 
L 298.058727 -43.410832 
L 297.284552 -42.753472 
L 295.627025 -39.839561 
L 294.77841 -39.120693 
L 285.552831 -35.407185 
L 283.79605 -35.687813 
L 282.327104 -37.275472 
L 281.627369 -37.621451 
L 280.485958 -37.279316 
L 279.605512 -36.688607 
L 278.669625 -36.060701 
L 277.835899 -35.899245 
L 272.357126 -38.740116 
L 270.04949 -39.35519 
L 267.900659 -38.886196 
L 265.320078 -36.964091 
L 264.883364 -36.272133 
L 264.600493 -34.868996 
L 263.910683 -33.973295 
L 262.258118 -32.508651 
L 261.077006 -30.448154 
L 258.650267 -23.272934 
L 258.099412 -22.236919 
L 257.340125 -21.285477 
L 257.221021 -19.872729 
L 255.563494 -21.852498 
L 254.898498 -26.776932 
L 253.762049 -28.414566 
L 252.972987 -28.476073 
L 251.126878 -27.803336 
L 250.203824 -27.68801 
L 249.320471 -28.026301 
L 247.583541 -29.206473 
L 246.849068 -29.464035 
L 245.02281 -29.387151 
L 244.258561 -29.525543 
L 243.628304 -29.97916 
L 243.280918 -30.859484 
L 243.102262 -31.928175 
L 242.7251 -32.823876 
L 241.807008 -33.204453 
L 240.918693 -33.312091 
L 238.050277 -34.165505 
L 237.231439 -34.703695 
L 236.789762 -34.857463 
L 236.348086 -34.795956 
L 235.479621 -34.419223 
L 234.983355 -34.396158 
L 233.598774 -34.603745 
L 232.765047 -34.034802 
L 230.328383 -29.76004 
L 229.802341 -29.256448 
L 229.048017 -29.02964 
L 228.780034 -29.118057 
L 228.144813 -29.648558 
L 227.147319 -29.494789 
L 227.09273 -29.444814 
L 220.378255 -30.46353 
L 215.94164 -30.190591 
L 213.395797 -31.320789 
L 208.567131 -34.918971 
L 208.497654 -35.288015 
L 208.497654 -35.803139 
L 208.244559 -36.122209 
L 207.430683 -35.906933 
L 207.381056 -36.691152 
L 207.023745 -37.025598 
L 206.482815 -37.048664 
L 205.877371 -36.902583 
L 206.368674 -37.567632 
L 205.966699 -37.540723 
L 205.609388 -37.706024 
L 205.083346 -38.098133 
L 204.165254 -38.167329 
L 203.837719 -38.309565 
L 203.599512 -38.690142 
L 203.405968 -39.605064 
L 203.128059 -39.82034 
L 201.659113 -39.816495 
L 201.242249 -39.712702 
L 199.535095 -38.790091 
L 198.726182 -38.528685 
L 197.61951 -38.528685 
L 196.542613 -38.790091 
L 192.815658 -40.939005 
L 189.956622 -42.074102 
L 188.855457 -42.511287 
L 186.483307 -44.610226 
L 185.451075 -45.213767 
L 183.317132 -45.948012 
L 181.009496 -47.147406 
L 179.937563 -47.458787 
L 177.689479 -47.485696 
L 177.451271 -47.654841 
L 177.252765 -48.023886 
L 177.009595 -48.331422 
L 176.642358 -48.327578 
L 176.448815 -48.023886 
L 176.329711 -47.024391 
L 176.170906 -46.632281 
L 175.50591 -45.817309 
L 175.257777 -45.655852 
L 171.595336 -44.648668 
L 170.642506 -44.667889 
L 170.960116 -45.728892 
L 170.979966 -46.739919 
L 170.776498 -47.750947 
L 170.424149 -48.800416 
L 166.687268 -49.111797 
L 164.017359 -50.04594 
L 162.965275 -49.907549 
L 162.811433 -49.784534 
L 162.736993 -49.53466 
L 162.736993 -49.188681 
L 162.781657 -48.785039 
L 162.126586 -47.216601 
L 162.106736 -45.098441 
L 162.305242 -42.822668 
L 162.300279 -40.766015 
L 161.282935 -36.106832 
L 160.935549 -35.168844 
L 160.856146 -34.649876 
L 160.950437 -34.180882 
L 161.158868 -33.592718 
L 161.372262 -33.112192 
L 161.476478 -32.977644 
L 160.925623 -31.674457 
L 159.952942 -31.582196 
L 157.471614 -32.623977 
L 154.965472 -32.977644 
L 154.240924 -32.693173 
L 153.958053 -31.985838 
L 153.764509 -31.082448 
L 153.283131 -30.209812 
L 153.039961 -28.787454 
L 150.513969 -26.511682 
L 149.605802 -25.000907 
L 149.432109 -22.992306 
L 149.456923 -20.718456 
L 149.213753 -18.784818 
L 148.996209 -18.561144 
L 148.250997 -17.794933 
L 147.461935 -17.848752 
L 147.084773 -18.335045 
L 146.801901 -19.034691 
L 146.285785 -19.73626 
L 145.973137 -19.807378 
L 145.238664 -19.544049 
L 144.866465 -19.586336 
L 144.712623 -19.899639 
L 144.70766 -20.395542 
L 144.648108 -20.870302 
L 144.340423 -21.149007 
L 143.600987 -21.0875 
L 142.161817 -20.376321 
L 141.442232 -20.21102 
L 140.876489 -20.353256 
L 138.960903 -21.383504 
L 137.809567 -22.775109 
L 137.109832 -22.279205 
L 136.032935 -19.34415 
L 135.273649 -18.542632 
L 132.777432 -17.437422 
L 131.809714 -16.639748 
L 131.432552 -16.48598 
L 130.971025 -16.432161 
L 126.206874 -18.162056 
L 119.403071 -18.946275 
L 117.770357 -19.649765 
L 117.368382 -20.018809 
L 116.539618 -21.079812 
L 116.331187 -21.487298 
L 116.107867 -22.50217 
L 116.197195 -22.717445 
L 116.470141 -22.821239 
L 116.792714 -23.517041 
L 116.936631 -23.624679 
L 117.169876 -23.578549 
L 117.388233 -23.647744 
L 117.47756 -24.112894 
L 117.353494 -24.566511 
L 117.06566 -24.774098 
L 116.733162 -24.91249 
L 116.489992 -25.146987 
L 116.182307 -25.758216 
L 115.383319 -27.015273 
L 114.961493 -27.484267 
L 111.730804 -29.306423 
L 110.67872 -30.202124 
L 109.805293 -30.90177 
L 108.892164 -31.41305 
L 106.96169 -31.943552 
L 106.023748 -32.939202 
L 103.706187 -37.667581 
L 102.589589 -39.447451 
L 101.914668 -39.831872 
L 100.12563 -40.120188 
L 99.217464 -40.558428 
L 98.398625 -41.392622 
L 97.649264 -42.553573 
L 97.13811 -43.906736 
L 97.019007 -45.313717 
L 96.145579 -45.213767 
L 95.326741 -45.675073 
L 94.512865 -46.340121 
L 93.669213 -46.866778 
L 92.877004 -47.038163 
L 92.567503 -47.105119 
L 91.902507 -46.793738 
L 91.445943 -45.974921 
L 90.949677 -44.679422 
L 89.828116 -45.229144 
L 88.309543 -46.340121 
L 86.929925 -47.658686 
L 86.240115 -48.800416 
L 86.210339 -50.887823 
L 85.674372 -52.183322 
L 83.63472 -54.297638 
L 82.175699 -56.285095 
L 81.590106 -56.800219 
L 80.62735 -57.176952 
L 77.724196 -57.315343 
L 76.364428 -58.122628 
L 75.600179 -59.371996 
L 74.969921 -60.83664 
L 70.473754 -67.037352 
L 69.878235 -67.379487 
L 69.86831 -67.387176 
L 68.334849 -69.240085 
L 68.116492 -69.932043 
L 68.051977 -70.650911 
L 67.783994 -71.258296 
L 66.950267 -71.608119 
L 65.600425 -73.057387 
L 64.905653 -73.62633 
L 64.091777 -74.068414 
L 62.255594 -74.579694 
L 61.59556 -74.368263 
L 61.808955 -73.411054 
L 60.910714 -73.288039 
L 58.081999 -73.707058 
L 57.129169 -74.056882 
L 56.369882 -74.852633 
L 54.79672 -78.416217 
L 53.829002 -79.427244 
L 51.615657 -80.480558 
L 50.677715 -81.268621 
L 50.131822 -82.345 
L 49.893615 -83.552082 
L 49.75466 -85.993156 
L 49.690146 -87.246369 
L 49.332835 -87.538529 
L 48.826644 -87.465489 
L 48.285714 -87.63079 
L 47.764635 -88.180512 
L 47.387473 -88.737923 
L 47.084751 -89.402971 
L 46.777066 -90.294828 
L 46.583523 -91.167464 
L 46.360203 -92.816631 
L 46.022742 -93.623915 
L 45.516551 -94.18517 
L 44.370178 -94.819464 
L 43.878874 -95.419161 
L 43.913613 -95.599839 
L 44.141895 -96.184159 
L 43.759771 -96.372526 
L 43.635704 -96.472475 
L 44.042642 -97.383553 
L 44.007904 -98.371515 
L 43.610891 -99.159579 
L 42.945895 -99.509402 
L 41.347919 -100.278244 
L 40.613446 -100.781835 
L 39.923637 -101.408442 
L 38.931105 -102.842332 
L 38.43484 -103.795697 
L 38.196632 -104.579916 
L 38.762375 -105.698581 
L 40.747438 -106.544308 
L 41.511687 -107.320838 
L 41.665529 -108.543297 
L 41.690343 -110.104047 
L 41.983139 -111.153516 
L 42.945895 -110.857512 
L 43.298244 -112.006931 
L 44.404916 -114.055896 
L 44.792003 -115.193782 
L 44.940883 -116.639205 
L 44.643124 -117.177395 
L 43.958277 -117.442645 
L 41.993065 -118.595909 
L 42.047654 -119.403193 
L 42.380152 -120.406532 
L 42.256086 -121.494444 
L 41.447172 -122.263286 
L 39.680467 -122.447808 
L 38.945993 -123.170519 
L 38.896367 -123.170519 
L 31.631037 -127.053172 
L 31.477194 -127.52601 
L 31.467269 -128.202592 
L 31.368016 -128.963745 
L 30.941227 -129.69799 
L 30.246455 -130.297686 
L 29.477244 -130.739771 
L 28.79736 -131.358689 
L 28.380496 -132.485042 
L 28.35072 -133.599864 
L 28.688181 -135.291316 
L 28.549227 -136.409982 
L 28.18199 -137.29415 
L 27.64106 -138.1245 
L 26.464911 -139.408466 
L 24.092761 -140.880799 
L 23.596495 -141.764967 
L 24.196977 -142.664513 
L 24.693242 -142.987427 
L 25.015815 -143.333406 
L 25.105143 -144.28677 
L 24.926487 -145.347772 
L 24.5394 -146.008976 
L 23.432727 -147.154551 
L 24.642869 -147.065841 
L 26.946288 -146.896989 
L 27.869343 -146.247317 
L 28.152214 -145.559204 
L 28.137326 -144.282926 
L 28.325907 -143.70245 
L 28.861874 -143.233456 
L 29.561609 -143.01818 
L 30.941227 -142.983582 
L 31.283651 -142.795216 
L 31.442456 -142.526121 
L 31.417643 -142.183986 
L 31.204248 -141.764967 
L 31.129808 -141.753435 
L 31.065294 -141.73037 
L 31.000779 -141.688083 
L 30.941227 -141.634264 
L 30.812198 -141.492029 
L 30.767534 -141.342104 
L 30.817161 -141.176803 
L 30.941227 -141.003814 
L 31.779917 -140.161932 
L 31.988348 -139.881304 
L 32.186854 -139.396934 
L 32.27122 -138.962538 
L 32.320846 -138.578117 
L 32.896514 -136.529152 
L 33.382855 -135.775687 
L 34.201693 -135.671893 
L 34.871652 -136.156264 
L 34.871652 -136.817468 
L 34.593743 -137.61322 
L 34.449826 -138.53583 
L 34.598706 -139.858239 
L 34.856764 -140.557885 
L 35.804631 -141.764967 
L 35.93366 -142.94514 
L 36.32571 -143.525616 
L 36.861677 -143.898505 
L 37.40757 -144.467448 
L 38.896367 -147.154551 
L 39.412483 -147.661987 
L 40.821878 -148.446206 
L 41.392583 -148.953642 
L 41.566276 -149.053591 
L 41.998027 -149.038214 
L 42.191571 -149.142008 
L 42.295787 -149.414947 
L 42.266011 -149.707107 
L 42.201496 -149.956981 
L 42.191571 -150.110749 
L 42.3206 -150.445196 
L 42.419853 -150.821928 
L 42.588584 -151.190972 
L 42.945895 -151.498509 
L 44.275887 -152.628707 
L 46.211323 -153.193806 
L 49.804287 -153.459057 
L 52.369981 -152.997752 
L 52.995276 -153.066947 
L 53.531243 -153.578227 
L 54.593251 -155.208173 
L 55.208621 -155.811714 
L 55.99272 -156.092341 
L 56.761932 -156.138472 
L 57.620472 -156.019301 
L 57.918231 -156.134628 
L 58.593153 -156.576712 
L 59.024904 -156.665129 
L 59.426879 -156.545958 
L 63.87342 -153.866543 
L 65.516059 -153.774282 
L 65.902969 -154.151773 
L 66.950267 -155.173575 
L 67.630151 -155.969327 
L 67.942799 -157.326333 
L 68.255446 -160.359415 
L 68.652459 -160.632354 
L 69.054434 -160.72846 
L 69.451446 -160.643887 
L 69.823646 -160.367104 
L 70.245472 -160.244089 
L 70.692111 -160.205647 
L 71.143713 -160.240245 
L 71.580426 -160.359415 
L 71.585389 -160.359415 
L 71.595314 -160.367104 
L 72.95012 -160.828409 
L 75.481075 -160.682329 
L 76.662187 -161.554965 
L 77.351997 -162.788957 
L 78.949972 -167.006056 
L 79.882952 -166.921483 
L 80.662089 -166.383294 
L 81.461077 -166.033471 
L 82.468496 -166.540907 
L 82.97965 -168.047837 
L 83.247633 -168.520675 
L 85.049078 -169.781576 
L 85.336912 -170.089113 
L 85.366688 -170.358208 
L 85.500679 -170.450469 
L 86.086273 -170.239037 
L 86.344331 -169.950722 
L 87.019253 -168.832056 
L 87.336863 -168.439947 
L 88.408797 -167.920978 
L 89.302075 -168.140098 
L 90.115951 -168.870498 
L 90.949677 -169.896903 
L 91.426092 -170.162153 
L 91.713926 -170.511976 
L 91.75859 -170.961749 
L 91.480681 -171.557602 
L 92.279669 -172.153454 
L 92.919852 -172.968427 
L 93.108433 -173.971766 
L 92.552615 -175.113497 
L 94.517827 -176.282137 
L 96.696434 -176.685779 
L 101.008983 -176.662714 
L 101.934518 -176.843392 
L 103.760776 -177.50844 
L 104.797972 -177.612234 
L 107.001391 -177.370048 
L 107.864894 -177.543038 
L 109.254438 -178.396453 
L 109.547234 -178.404141 
L 109.825143 -178.500247 
L 110.152679 -178.961552 
L 110.177492 -179.353661 
L 110.063351 -179.876474 
L 110.003799 -180.506925 
L 110.207268 -181.229636 
L 110.648944 -181.763982 
L 111.055882 -181.779358 
L 111.522372 -181.640967 
L 112.127816 -181.729384 
L 112.619119 -182.090739 
L 113.353592 -183.01335 
L 113.869709 -183.374706 
L 114.807651 -183.574605 
L 116.564432 -183.351641 
L 117.487486 -183.413148 
L 124.971173 -186.784521 
L 125.556766 -187.32271 
L 126.435156 -188.622054 
L 126.956235 -189.125645 
L 128.68324 -189.479313 
L 132.449897 -189.187153 
L 133.859291 -190.359637 
L 134.147126 -192.212547 
L 132.86676 -192.939102 
L 131.095092 -193.450383 
L 129.869315 -194.638244 
L 129.913979 -195.418618 
L 130.320917 -195.695402 
L 130.395357 -195.845326 
L 129.437564 -196.225903 
L 127.814775 -196.43349 
L 127.253995 -196.794846 
L 127.789962 -197.552156 
L 128.464883 -199.693381 
L 129.61622 -200.838956 
L 131.144718 -201.075375 
L 132.931275 -200.504509 
L 133.293549 -200.181596 
L 133.546644 -199.768343 
L 133.859291 -199.362779 
L 134.38037 -199.085996 
L 134.911375 -199.074463 
L 136.256255 -199.656861 
L 137.998148 -199.560756 
L 138.54404 -199.837539 
L 138.960903 -200.865865 
L 139.238812 -200.235415 
L 139.343028 -199.787564 
L 139.506795 -199.341636 
L 139.958397 -198.732328 
L 140.553916 -198.324842 
L 141.849169 -198.005772 
L 142.439726 -197.552156 
L 143.020356 -196.864042 
L 143.387593 -196.275877 
L 143.536473 -195.549322 
L 143.447145 -194.430656 
L 143.074946 -193.534955 
L 142.499277 -192.466265 
L 142.236257 -191.559031 
L 142.787112 -191.132323 
L 145.442133 -192.212547 
L 146.022764 -192.201014 
L 146.280822 -191.359132 
L 146.002913 -190.37117 
L 145.189038 -188.499039 
L 145.020307 -187.168942 
L 145.253552 -186.611531 
L 146.921005 -186.150226 
L 147.605852 -185.777338 
L 149.442035 -184.408799 
L 151.223629 -184.016689 
L 152.265787 -183.978247 
L 153.039961 -184.185834 
L 153.506451 -184.712491 
L 153.963015 -185.573594 
L 154.722302 -187.56874 
" style="stroke: #000000"/>
    </defs>
    <g clip-path="url(#pec70a24a5b)">
     <use xlink:href="#m3e511e80d4" x="0" y="217.507535" style="fill: #f5f5f5; stroke: #000000"/>
    </g>
   </g>
  </g>
 </g>
 <defs>
  <clipPath id="pec70a24a5b">
   <rect x="7.2" y="7.2" width="357.12" height="203.107535"/>
  </clipPath>
 </defs>
</svg>
