<?xml version="1.0" encoding="utf-8" standalone="no"?>
<!DOCTYPE svg PUBLIC "-//W3C//DTD SVG 1.1//EN"
  "http://www.w3.org/Graphics/SVG/1.1/DTD/svg11.dtd">
<svg xmlns:xlink="http://www.w3.org/1999/xlink" width="283.180409pt" height="280.512pt" viewBox="0 0 283.180409 280.512" xmlns="http://www.w3.org/2000/svg" version="1.1">
 <metadata>
  <rdf:RDF xmlns:dc="http://purl.org/dc/elements/1.1/" xmlns:cc="http://creativecommons.org/ns#" xmlns:rdf="http://www.w3.org/1999/02/22-rdf-syntax-ns#">
   <cc:Work>
    <dc:type rdf:resource="http://purl.org/dc/dcmitype/StillImage"/>
    <dc:date>2024-03-04T13:11:10.117777</dc:date>
    <dc:format>image/svg+xml</dc:format>
    <dc:creator>
     <cc:Agent>
      <dc:title>Matplotlib v3.8.0, https://matplotlib.org/</dc:title>
     </cc:Agent>
    </dc:creator>
   </cc:Work>
  </rdf:RDF>
 </metadata>
 <defs>
  <style type="text/css">*{stroke-linejoin: round; stroke-linecap: butt}</style>
 </defs>
 <g id="figure_1">
  <g id="patch_1">
   <path d="M 0 280.512 
L 283.180409 280.512 
L 283.180409 0 
L 0 0 
z
" style="fill: #ffffff"/>
  </g>
  <g id="axes_1">
   <g id="PatchCollection_1">
    <path d="M 101.624577 43.681295 
L 101.196836 40.689597 
L 101.451097 39.097167 
L 101.440539 38.675016 
L 101.43653 38.514691 
L 101.461691 38.227271 
L 101.729195 37.787178 
L 101.819246 37.497766 
L 101.86692 37.187113 
L 101.882811 36.370984 
L 101.705358 35.286352 
L 101.538499 34.783532 
L 101.080299 33.932886 
L 101.012761 33.687948 
L 100.934629 33.548884 
L 100.582371 33.249183 
L 100.480402 33.030132 
L 100.542643 32.750345 
L 100.733339 32.412476 
L 100.984951 32.173512 
L 101.232591 32.192762 
L 101.469637 32.339792 
L 101.721249 32.389244 
L 101.979483 32.372981 
L 102.239042 32.320542 
L 102.837615 32.114435 
L 103.25079 31.81573 
L 103.554049 31.393892 
L 104.21089 29.768604 
L 104.520771 29.330835 
L 104.957783 28.97969 
L 105.103453 28.603985 
L 105.132587 28.584735 
L 105.188207 28.536943 
L 105.435847 28.446999 
L 105.491467 28.401198 
L 105.928478 27.656094 
L 106.161551 27.463927 
L 106.386678 27.319553 
L 106.560158 27.134688 
L 106.664776 26.643152 
L 106.756151 26.537609 
L 106.870039 26.454304 
L 106.977306 26.340132 
L 107.039547 26.216335 
L 107.15211 25.814743 
L 107.296456 25.513382 
L 107.479207 25.281056 
L 107.779432 24.996172 
L 107.900327 24.881455 
L 108.116184 24.798149 
L 108.705487 24.804787 
L 108.918696 24.754339 
L 109.162363 24.423109 
L 109.355707 24.088559 
L 109.448407 23.978038 
L 110.048304 23.701901 
L 111.19248 22.991979 
L 111.462632 22.613951 
L 111.652004 22.441697 
L 111.940697 22.370008 
L 112.773667 22.397887 
L 113.037198 22.370008 
L 113.441103 22.172199 
L 113.699337 22.123079 
L 114.170779 22.340138 
L 115.631457 22.370008 
L 115.749318 22.397224 
L 116.006227 22.518365 
L 116.395565 22.598684 
L 116.978247 22.870837 
L 117.157024 22.991979 
L 117.305343 23.169211 
L 117.407524 23.341887 
L 117.629791 23.7175 
L 117.692032 23.916969 
L 117.827109 24.089222 
L 118.140962 24.205054 
L 119.275868 24.44435 
L 119.622829 24.656099 
L 119.924764 24.915308 
L 120.331317 25.192108 
L 121.180178 25.520684 
L 121.42517 25.678998 
L 122.007852 26.397218 
L 122.256816 26.603988 
L 122.489889 26.722475 
L 123.09111 26.92128 
L 123.35729 26.954469 
L 123.56785 27.046404 
L 123.761195 27.258484 
L 124.012807 27.656094 
L 124.29223 28.264125 
L 124.398172 28.357388 
L 124.614029 28.453637 
L 124.865642 28.687955 
L 125.073553 28.978363 
L 125.158307 29.242551 
L 125.082823 29.428744 
L 124.953044 29.644143 
L 124.889479 29.890409 
L 125.020582 30.167541 
L 125.07684 30.220306 
L 126.397831 31.459275 
L 126.660038 31.630865 
L 126.952703 31.698571 
L 128.045231 31.530964 
L 129.063601 31.530964 
L 129.370833 31.487154 
L 129.565502 31.383603 
L 129.715145 31.264453 
L 129.88995 31.172518 
L 130.391851 31.138001 
L 131.570457 31.390241 
L 132.802035 31.841618 
L 133.012595 31.881777 
L 133.117213 31.974707 
L 133.363529 32.423761 
L 133.493308 32.583402 
L 133.805837 32.688281 
L 133.960778 32.764949 
L 134.064071 32.977029 
L 134.159419 33.016193 
L 134.416329 33.030132 
L 134.546108 33.070624 
L 134.638808 33.151274 
L 134.740777 33.216325 
L 134.901014 33.205041 
L 135.016227 33.136007 
L 135.102305 33.036107 
L 135.172491 32.931228 
L 135.250624 32.846595 
L 135.34862 32.774242 
L 135.445292 32.721802 
L 135.565802 32.690272 
L 135.732661 32.67932 
L 135.867737 32.719811 
L 135.952491 32.81075 
L 136.014732 32.901357 
L 136.629196 33.293657 
L 136.841081 33.388579 
L 137.133746 33.472548 
L 137.380061 33.492462 
L 137.934934 33.468565 
L 138.100468 33.502418 
L 138.219653 33.581741 
L 138.315001 33.670025 
L 138.409025 33.731426 
L 138.548074 33.757977 
L 138.801011 33.759969 
L 138.933439 33.819046 
L 140.163692 33.182472 
L 140.380874 33.163886 
L 140.865559 33.205041 
L 141.301246 33.170524 
L 141.485321 33.193093 
L 141.756798 33.292993 
L 141.817714 33.343441 
L 141.85347 33.400859 
L 141.917035 33.448652 
L 142.058733 33.468565 
L 142.42953 33.452634 
L 142.543418 33.468565 
L 142.776491 33.580082 
L 142.953944 33.728771 
L 143.156559 33.858873 
L 143.462467 33.914964 
L 144.209359 33.962756 
L 144.476863 33.914964 
L 144.598696 33.870822 
L 144.652992 33.840951 
L 144.717881 33.824356 
L 144.870173 33.819046 
L 144.965521 33.848253 
L 145.320357 34.014456 
L 145.591904 34.141648 
L 146.2408 34.266108 
L 146.489764 34.353064 
L 146.555978 34.409818 
L 146.794348 34.656416 
L 146.925451 34.737067 
L 147.218117 34.847256 
L 147.506809 35.030793 
L 148.737063 35.308257 
L 150.266603 35.230262 
L 150.384463 35.181805 
L 150.636785 35.077604 
L 150.71156 35.046724 
L 151.164463 34.726114 
L 151.392238 34.50474 
L 151.491559 34.305272 
L 151.541882 34.246858 
L 151.776279 34.042411 
L 151.849114 33.914964 
L 151.843817 33.802451 
L 151.767009 33.532953 
L 151.761712 33.388579 
L 152.136482 32.702884 
L 152.238452 32.583402 
L 152.385446 32.540588 
L 152.537738 32.433054 
L 152.658247 32.294322 
L 152.715191 32.152935 
L 152.683409 32.056685 
L 152.462254 31.793825 
L 152.398689 31.541585 
L 152.372204 31.189113 
L 152.44239 30.8768 
L 152.67149 30.741719 
L 153.235632 30.759641 
L 153.508433 30.735081 
L 153.685886 30.646133 
L 153.757397 30.520013 
L 153.783883 30.3846 
L 153.782559 30.079921 
L 153.822287 30.011551 
L 153.995767 29.881116 
L 154.035496 29.813078 
L 154.063305 29.732759 
L 154.187788 29.507735 
L 154.21957 29.418123 
L 154.202355 29.296318 
L 154.125547 29.03578 
L 154.122898 28.884104 
L 154.305648 28.769601 
L 154.444697 28.63452 
L 154.555937 28.473551 
L 154.655257 28.278065 
L 154.799604 27.840296 
L 154.922761 27.653439 
L 155.138619 27.57644 
L 155.333287 27.654103 
L 155.579603 27.787193 
L 155.791487 27.825361 
L 155.938482 27.47322 
L 156.220553 27.257157 
L 156.326495 27.130041 
L 156.213932 26.985003 
L 156.156988 26.833327 
L 156.163609 26.676009 
L 156.239093 26.515704 
L 156.362251 26.382615 
L 156.458923 26.374649 
L 156.578108 26.413813 
L 156.763507 26.420782 
L 156.914474 26.368011 
L 157.062793 26.290016 
L 157.21641 26.232266 
L 157.375323 26.244878 
L 157.481265 26.346106 
L 157.616341 26.69194 
L 157.756715 26.962434 
L 157.807037 27.15261 
L 157.886494 27.321213 
L 158.04011 27.392902 
L 158.212266 27.418126 
L 158.371179 27.484505 
L 158.518174 27.582414 
L 158.655899 27.699572 
L 158.93797 27.820382 
L 159.251824 27.76927 
L 159.82656 27.480522 
L 160.01858 27.645474 
L 160.337731 28.09154 
L 160.493996 28.181815 
L 160.537697 28.226289 
L 160.891279 28.445672 
L 161.058138 28.804118 
L 161.16408 28.843281 
L 161.446151 28.900035 
L 161.503095 28.931897 
L 161.533553 28.975707 
L 161.675251 29.123401 
L 161.718952 29.155262 
L 161.967916 29.167211 
L 162.199665 29.208697 
L 162.420819 29.28968 
L 162.640649 29.418123 
L 162.738645 29.362365 
L 162.975691 29.372321 
L 163.078985 29.330835 
L 163.141226 29.23724 
L 163.153144 29.143978 
L 163.15182 29.031798 
L 163.174333 28.884104 
L 163.265708 28.656425 
L 163.40873 28.491473 
L 163.623263 28.391241 
L 163.922549 28.357388 
L 164.149001 28.272755 
L 164.923703 27.656094 
L 165.199152 27.533957 
L 165.788456 27.390247 
L 166.283735 27.106809 
L 166.541969 27.027154 
L 167.119354 26.954469 
L 167.40275 26.846935 
L 167.895381 26.496122 
L 168.128454 26.420782 
L 168.276773 26.437045 
L 168.528385 26.505747 
L 168.622409 26.515704 
L 168.74027 26.478864 
L 168.872697 26.364692 
L 168.964072 26.340132 
L 169.50835 26.456959 
L 169.815583 26.458286 
L 169.803664 26.292671 
L 169.744072 26.165224 
L 169.749369 26.021513 
L 169.791746 25.893734 
L 169.847365 25.814743 
L 169.928146 25.775911 
L 170.004954 25.803126 
L 170.19565 25.989983 
L 170.423426 25.849924 
L 171.078943 25.543253 
L 171.40604 25.269108 
L 171.62587 25.141329 
L 171.866888 25.10482 
L 172.013883 25.158255 
L 172.261523 25.331172 
L 172.435003 25.367681 
L 172.564782 25.30097 
L 172.923661 24.833662 
L 173.163355 24.679331 
L 173.42159 24.615276 
L 173.63215 24.706547 
L 173.719552 25.0172 
L 173.799009 25.0172 
L 173.907599 24.942192 
L 173.931436 24.846274 
L 173.932761 24.727124 
L 173.975137 24.578767 
L 174.124781 24.213683 
L 174.148618 24.17983 
L 174.278397 24.074619 
L 175.19877 23.956797 
L 175.425221 23.829349 
L 175.585458 23.653777 
L 175.562946 23.497454 
L 175.243795 23.430744 
L 175.10607 23.307943 
L 175.190824 23.030479 
L 175.378871 22.73111 
L 175.556324 22.54558 
L 175.623863 22.684644 
L 175.749669 23.064996 
L 175.819856 23.175517 
L 175.995984 23.250525 
L 176.03174 23.14631 
L 176.026443 22.969078 
L 176.072792 22.824372 
L 176.366782 22.73642 
L 176.638694 22.802015 
L 176.720364 22.821717 
L 177.059379 22.995962 
L 177.307019 23.175517 
L 177.379854 23.274421 
L 177.491093 23.519359 
L 177.569226 23.614281 
L 177.696356 23.66838 
L 178.01948 23.7175 
L 178.181042 23.781224 
L 178.29493 23.901702 
L 178.293605 24.158588 
L 178.363792 24.307941 
L 178.517408 24.413152 
L 178.894827 24.536948 
L 179.07228 24.666055 
L 178.901449 24.890084 
L 178.860396 25.023174 
L 178.990175 25.087562 
L 179.839037 25.176177 
L 180.085352 25.160247 
L 180.297237 25.0172 
L 180.449529 25.162902 
L 180.592551 25.145975 
L 180.728951 25.029812 
L 180.869324 24.881455 
L 180.977915 24.829679 
L 181.082533 24.862537 
L 181.200394 24.916636 
L 181.347389 24.929248 
L 181.60165 24.831007 
L 182.065147 24.542922 
L 182.356488 24.48285 
L 182.424026 24.445014 
L 182.661072 24.274752 
L 182.753771 24.227623 
L 182.898117 24.226959 
L 183.373533 24.361376 
L 183.810544 24.603327 
L 184.266095 24.735089 
L 184.377335 24.704555 
L 184.45017 24.44435 
L 184.583922 24.186468 
L 184.639542 24.132369 
L 184.754754 24.092873 
L 184.850102 24.005585 
L 184.949423 23.877142 
L 185.087147 23.885771 
L 185.182495 23.934891 
L 185.271222 23.996956 
L 185.387758 24.044085 
L 186.206162 23.993637 
L 186.357129 23.916969 
L 186.47499 23.806448 
L 187.036483 23.753345 
L 187.232476 23.701901 
L 187.350337 23.57379 
L 187.403308 23.445347 
L 187.415227 23.127392 
L 187.454955 22.984677 
L 187.636381 22.765627 
L 187.677434 22.684644 
L 187.695973 22.550891 
L 187.76616 22.29666 
L 187.75689 22.202401 
L 187.662866 22.117768 
L 187.40993 22.071967 
L 187.319879 22.019527 
L 187.233801 21.736421 
L 187.342391 21.518698 
L 187.505277 21.341799 
L 187.590031 21.182157 
L 187.61122 20.882788 
L 187.690676 20.623579 
L 187.850914 20.437054 
L 188.114445 20.352753 
L 187.950235 20.127396 
L 188.040285 20.046746 
L 188.228333 19.987005 
L 188.360761 19.8267 
L 188.587212 19.960453 
L 188.86531 19.894406 
L 189.440046 19.57977 
L 189.466532 19.532641 
L 189.504274 19.552555 
L 189.640674 19.690955 
L 189.754562 19.719829 
L 190.068416 19.596365 
L 190.220708 19.563839 
L 190.117414 19.335164 
L 190.257788 19.296 
L 190.489536 19.325207 
L 190.659044 19.300647 
L 190.7385 19.300647 
L 190.837821 19.462943 
L 190.880198 19.631214 
L 190.984816 19.743394 
L 191.272184 19.739411 
L 191.232456 19.784881 
L 191.199349 19.83201 
L 191.160945 19.878475 
L 191.096055 19.922285 
L 191.096055 20.002272 
L 191.278805 20.135362 
L 191.376802 20.111133 
L 191.464204 20.032142 
L 191.620469 20.002272 
L 191.693304 20.034797 
L 191.787328 20.145318 
L 191.844272 20.169879 
L 191.861487 20.18415 
L 192.146207 20.265464 
L 192.324984 20.396563 
L 192.679891 20.791185 
L 192.820264 20.897392 
L 193.003014 20.976714 
L 193.179143 20.963439 
L 193.299652 20.791185 
L 193.14736 20.710535 
L 193.263897 20.659423 
L 193.442674 20.740405 
L 193.473133 21.054378 
L 193.534049 21.032473 
L 193.671774 20.999283 
L 193.728718 20.974723 
L 193.687666 21.150295 
L 193.723421 21.269777 
L 193.784338 21.360385 
L 193.875713 21.615612 
L 194.005492 21.547241 
L 194.131298 21.397557 
L 194.173675 21.317902 
L 194.468989 21.327859 
L 194.612011 21.502104 
L 194.73252 21.737417 
L 194.96162 21.931575 
L 194.982809 21.671038 
L 195.150992 21.524673 
L 195.376119 21.494802 
L 195.573436 21.581095 
L 195.570788 21.357066 
L 195.627732 21.232605 
L 195.744268 21.192114 
L 195.92437 21.221985 
L 196.06077 21.300312 
L 196.281925 21.557198 
L 196.448784 21.676348 
L 196.582536 21.573793 
L 196.75734 21.544586 
L 196.906983 21.545914 
L 196.973197 21.536621 
L 197.007628 21.390255 
L 197.092382 21.337816 
L 197.20627 21.351755 
L 197.324131 21.405522 
L 197.279105 21.302635 
L 197.236728 20.974723 
L 197.300294 21.015214 
L 197.365183 21.039111 
L 197.443316 21.051723 
L 197.545285 21.054378 
L 197.63666 21.013887 
L 197.706847 20.923279 
L 197.769088 20.791185 
L 197.951838 20.882125 
L 198.036592 21.034132 
L 198.120021 21.130382 
L 198.293502 21.054378 
L 198.350446 21.114783 
L 198.432551 21.167554 
L 198.468306 21.221985 
L 198.604707 21.100843 
L 198.644435 21.054378 
L 198.758323 21.448669 
L 198.840428 21.558526 
L 199.00199 21.492811 
L 198.995369 21.559853 
L 199.00199 21.763969 
L 199.060258 21.738081 
L 199.205929 21.700909 
L 199.264197 21.676348 
L 199.358221 21.903032 
L 199.595266 22.073294 
L 199.842906 22.177177 
L 200.170002 22.235591 
L 200.413669 22.207712 
L 200.630851 22.218332 
L 200.75136 22.370008 
L 200.837438 22.310931 
L 201.108915 22.202401 
L 201.230748 22.399879 
L 201.412174 22.54027 
L 201.605519 22.654774 
L 201.765756 22.776911 
L 202.006775 23.268447 
L 202.031936 23.350425 
L 202.192174 23.380959 
L 202.543107 23.506747 
L 202.764261 23.525997 
L 202.872852 23.498782 
L 203.04236 23.434062 
L 203.205246 23.34777 
L 203.296621 23.255171 
L 203.384023 23.350425 
L 203.533667 23.161577 
L 203.770712 23.080927 
L 203.990542 23.111461 
L 204.092511 23.255171 
L 204.171968 23.255171 
L 204.248776 23.119426 
L 204.356043 23.110133 
L 204.529523 23.175517 
L 204.657978 23.110133 
L 204.832782 22.969742 
L 204.966534 22.904027 
L 205.578351 22.904027 
L 205.761101 22.931242 
L 205.849827 22.984677 
L 206.378214 23.544583 
L 206.461643 23.614281 
L 206.555667 23.600342 
L 206.689419 23.464597 
L 206.772849 23.430744 
L 206.860251 23.459286 
L 206.930438 23.522015 
L 206.974139 23.585075 
L 206.986057 23.614281 
L 207.213833 23.634195 
L 207.285344 23.579764 
L 207.432339 23.430744 
L 207.502525 23.318563 
L 207.625683 23.011892 
L 207.6866 22.904027 
L 208.067329 22.490486 
L 208.425546 22.174522 
L 208.810911 21.916308 
L 209.269111 21.676348 
L 209.861063 21.504759 
L 210.407989 21.543591 
L 210.935052 21.734762 
L 211.988514 22.255505 
L 212.28449 22.338146 
L 212.561264 22.370008 
L 212.785067 22.42112 
L 212.96252 22.544253 
L 213.128055 22.693274 
L 213.308819 22.824372 
L 213.419396 22.866191 
L 213.545202 22.890087 
L 213.790193 22.904027 
L 213.931891 22.931906 
L 214.110668 23.052384 
L 214.232502 23.079599 
L 214.571517 23.208042 
L 214.59403 23.374321 
L 214.507952 23.947503 
L 214.578138 24.014214 
L 214.655609 24.071964 
L 214.741024 24.119093 
L 214.831075 24.156597 
L 215.231669 24.462936 
L 215.340922 24.58806 
L 215.387934 24.709202 
L 215.441567 24.984342 
L 215.510429 25.112786 
L 215.740854 25.303625 
L 215.999088 25.394232 
L 217.13002 25.517365 
L 217.357796 25.662403 
L 217.525979 25.967414 
L 217.626624 26.499441 
L 217.706081 26.712518 
L 217.874264 26.846935 
L 217.969612 26.846935 
L 218.217252 26.778233 
L 218.332464 26.772923 
L 218.452973 26.841625 
L 218.56024 26.972391 
L 218.644994 27.118757 
L 218.695316 27.236579 
L 218.74299 27.514707 
L 218.639696 28.263461 
L 218.664858 28.79217 
L 218.721802 29.099504 
L 218.814501 29.308266 
L 218.871445 29.309262 
L 219.185299 29.37564 
L 219.285944 29.40883 
L 219.417047 29.517028 
L 219.65012 29.768604 
L 219.797115 29.85556 
L 219.897098 29.865185 
L 220.26326 29.811086 
L 220.333447 29.821707 
L 220.550628 29.913642 
L 220.628761 29.905676 
L 220.659219 29.850914 
L 220.667165 29.788517 
L 220.677759 29.758647 
L 220.655246 29.740725 
L 220.709542 29.700565 
L 220.82343 29.64016 
L 220.888319 29.663393 
L 221.019423 29.803121 
L 221.105501 29.820379 
L 221.249847 29.801129 
L 221.909999 29.896383 
L 221.949065 30.037438 
L 221.8855 30.259476 
L 221.844447 30.550879 
L 221.853055 30.688284 
L 221.874244 30.794158 
L 221.911985 30.89605 
L 221.974226 31.017523 
L 222.367537 31.577761 
L 222.495992 31.565813 
L 222.707876 31.339461 
L 222.826399 31.267108 
L 223.033648 31.282375 
L 223.118402 31.386922 
L 223.170049 31.635511 
L 223.526941 32.089211 
L 223.763987 32.32718 
L 224.005668 32.501424 
L 224.510217 32.568135 
L 225.075021 32.460933 
L 225.614664 32.437037 
L 226.046379 32.754992 
L 226.161591 33.02615 
L 226.203306 33.206368 
L 226.30991 33.328174 
L 226.618467 33.425419 
L 226.908483 33.392893 
L 227.181284 33.22595 
L 227.41833 32.998934 
L 227.911623 32.350412 
L 228.09636 32.221637 
L 228.383728 32.152271 
L 228.505562 32.159573 
L 228.630044 32.185461 
L 228.754526 32.198404 
L 228.871062 32.163555 
L 228.960451 32.04706 
L 228.991571 31.899035 
L 229.04057 31.75798 
L 229.192861 31.661399 
L 229.721248 31.536275 
L 229.913268 31.411482 
L 230.106613 31.14663 
L 230.637648 30.120412 
L 230.751536 30.10249 
L 231.013743 30.10249 
L 231.188547 30.013874 
L 231.299786 29.905676 
L 231.409701 29.845603 
L 231.58583 29.899702 
L 231.771229 30.148955 
L 231.789769 30.436376 
L 231.85201 30.685629 
L 232.176458 30.818055 
L 232.31021 30.816727 
L 232.700872 30.764288 
L 233.308715 30.814072 
L 233.589462 30.785529 
L 234.366812 30.591371 
L 234.467458 30.700232 
L 235.085895 31.112777 
L 235.224944 31.17119 
L 235.2607 31.354728 
L 235.297779 31.339461 
L 235.806302 31.559839 
L 235.950648 31.664718 
L 236.766403 32.491467 
L 237.056419 32.631859 
L 237.378881 32.585394 
L 237.473567 32.379619 
L 237.510646 32.137668 
L 237.654993 31.985992 
L 237.970171 31.979354 
L 238.225756 32.034448 
L 238.437641 31.988647 
L 238.627012 31.681313 
L 238.758116 31.374974 
L 238.885246 31.187121 
L 239.543412 30.61925 
L 239.702325 30.383936 
L 239.808267 30.124395 
L 239.890373 29.826353 
L 239.975126 29.690608 
L 240.216145 29.467243 
L 240.239982 29.325524 
L 240.228063 29.194094 
L 240.267792 28.970397 
L 240.299574 28.521676 
L 240.406841 28.36137 
L 240.598861 28.327185 
L 240.874311 28.377301 
L 240.925957 28.411818 
L 241.058385 28.543581 
L 241.119964 28.584735 
L 241.319268 28.485499 
L 241.398724 28.474878 
L 241.544395 28.517693 
L 241.932408 28.68364 
L 242.317773 28.69061 
L 242.46874 28.72048 
L 243.003748 28.970397 
L 243.152067 29.074944 
L 243.522865 29.404847 
L 243.708926 29.5157 
L 243.80626 29.534618 
L 244.09098 29.461269 
L 244.175734 29.495123 
L 244.467075 29.672022 
L 244.596854 29.726121 
L 244.751794 29.819384 
L 244.708093 29.956124 
L 244.643935 30.033409 
L 244.584935 30.104481 
L 244.508127 30.232592 
L 244.518721 30.345105 
L 244.607448 30.557517 
L 244.627312 30.671689 
L 244.610097 30.804115 
L 244.496209 31.189777 
L 244.488925 31.751342 
L 244.637906 32.224292 
L 244.984205 32.507398 
L 245.571522 32.50076 
L 245.853593 32.542579 
L 246.184 32.733087 
L 246.464085 32.996943 
L 246.589229 33.257812 
L 246.547514 33.386587 
L 246.450842 33.514367 
L 246.372709 33.650775 
L 246.384628 33.807098 
L 246.487259 33.928239 
L 246.621674 33.958774 
L 246.76933 33.95811 
L 246.92096 33.983998 
L 247.220247 34.164216 
L 247.417564 34.401853 
L 247.714202 34.97769 
L 247.906222 35.251835 
L 248.096918 35.373309 
L 248.635237 35.483166 
L 248.928564 35.645462 
L 249.060992 35.898034 
L 249.131179 36.194748 
L 249.246391 36.490798 
L 249.554948 36.856546 
L 249.638377 36.998929 
L 249.667511 37.138656 
L 249.668835 37.274401 
L 249.690024 37.404504 
L 249.782723 37.525645 
L 249.994608 37.598994 
L 250.82824 37.610942 
L 251.686372 37.888074 
L 252.724605 38.506726 
L 253.209953 38.662385 
L 253.32384 38.681634 
L 253.582075 38.688272 
L 253.705232 38.669022 
L 253.833687 38.634505 
L 253.962142 38.620566 
L 254.086624 38.663048 
L 254.261429 38.996934 
L 254.568661 40.8811 
L 254.560715 41.132013 
L 254.466692 41.632178 
L 254.395181 41.79016 
L 254.319697 41.870146 
L 254.3144 41.93387 
L 254.448152 42.041736 
L 254.560715 42.082227 
L 254.693805 42.08621 
L 254.947404 42.054348 
L 255.107642 42.013857 
L 255.511546 41.79016 
L 255.733363 41.706522 
L 255.882344 41.687936 
L 256.240561 41.689264 
L 256.513362 41.536924 
L 256.727233 41.28402 
L 256.927199 41.137987 
L 257.160272 41.306921 
L 257.211918 41.433705 
L 257.251647 41.874129 
L 257.339049 42.066296 
L 257.505908 42.193412 
L 257.904515 42.351062 
L 258.089914 42.579073 
L 257.961459 43.241535 
L 258.113751 43.510038 
L 258.391849 43.40715 
L 258.634192 43.199053 
L 258.842104 43.127695 
L 259.007638 43.433702 
L 259.011611 43.548869 
L 258.925533 43.911962 
L 258.945397 44.058992 
L 259.073852 44.32849 
L 259.097689 44.478506 
L 259.016908 44.753315 
L 258.951597 44.848067 
L 258.854022 44.989624 
L 258.484549 45.396527 
L 258.23095 45.834296 
L 258.207775 45.896692 
L 258.191883 46.031441 
L 258.150831 46.09782 
L 258.091238 46.127691 
L 257.93696 46.162872 
L 257.89061 46.192078 
L 257.660848 46.646774 
L 257.138314 48.221168 
L 256.939117 48.821348 
L 256.88747 49.094165 
L 256.903362 49.340431 
L 257.056978 49.530939 
L 257.653565 49.947134 
L 257.875381 50.151582 
L 258.170695 50.670001 
L 258.309744 51.178464 
L 258.291204 51.690245 
L 257.974702 52.554499 
L 257.8873 52.681946 
L 257.836977 52.70717 
L 257.682037 52.737041 
L 257.627741 52.772886 
L 257.595959 52.845239 
L 257.59331 52.972686 
L 257.577419 53.039065 
L 257.149677 54.194722 
L 257.120344 54.356707 
L 257.110611 54.410454 
L 257.080815 54.510686 
L 256.830526 54.902322 
L 256.777555 55.033752 
L 256.761664 55.272716 
L 256.810662 55.747989 
L 256.800068 55.978324 
L 256.702072 56.184762 
L 256.54051 56.446295 
L 256.423973 56.713803 
L 256.461053 56.934181 
L 256.645128 56.989939 
L 257.542988 56.998568 
L 257.670118 57.072249 
L 257.69859 57.228903 
L 257.696604 57.424057 
L 257.731035 57.611909 
L 257.860814 57.822331 
L 258.072698 58.074571 
L 258.311068 58.288311 
L 258.526926 58.386552 
L 258.895737 58.207992 
L 259.073852 57.794452 
L 259.284412 57.441979 
L 259.759828 57.443971 
L 259.975685 57.582703 
L 260.69874 58.397172 
L 260.727874 58.450939 
L 260.758333 58.545861 
L 260.738468 58.619542 
L 260.666958 58.657378 
L 260.624581 58.709153 
L 260.690795 58.825316 
L 260.877518 58.923557 
L 261.439011 59.02047 
L 261.612491 59.028436 
L 261.8257 58.995246 
L 262.4448 58.760929 
L 262.464002 59.315193 
L 262.507703 59.585355 
L 262.605699 59.806397 
L 262.871879 60.014163 
L 263.596921 60.426376 
L 263.741246 60.647727 
L 263.763118 60.681271 
L 263.758618 60.706558 
L 263.647905 61.328798 
L 263.281081 61.994578 
L 262.518297 62.957405 
L 261.695921 63.995903 
L 261.399995 64.368417 
L 260.500761 65.500381 
L 259.585685 66.239843 
L 257.825059 67.667654 
L 256.09158 69.069908 
L 255.009645 70.465857 
L 254.451249 71.185707 
L 253.48474 72.431669 
L 253.228493 72.649392 
L 253.065606 72.763564 
L 252.886829 72.837908 
L 252.644486 72.901632 
L 252.47233 72.920218 
L 252.182314 72.888356 
L 252.03267 72.901632 
L 251.818137 73.068907 
L 251.662535 73.327785 
L 251.505608 73.49506 
L 251.284454 73.391509 
L 251.145404 73.279328 
L 251.027544 73.258087 
L 250.918291 73.292604 
L 250.807714 73.348362 
L 250.417052 73.749955 
L 250.382621 73.833592 
L 250.356135 74.108401 
L 250.323028 74.241159 
L 250.278003 74.353339 
L 250.115117 74.506675 
L 250.11909 74.754932 
L 250.187952 75.277334 
L 250.099225 75.515634 
L 249.810533 75.81965 
L 249.750941 76.026752 
L 249.711212 76.073217 
L 249.479464 76.506008 
L 249.340415 76.669964 
L 249.215933 76.740989 
L 247.847954 77.052307 
L 247.310298 77.295917 
L 247.128392 77.436334 
L 246.846801 77.6537 
L 246.681266 77.749949 
L 246.437599 78.258412 
L 246.419059 78.388514 
L 246.489246 79.052968 
L 246.331657 80.138263 
L 246.325035 80.402451 
L 246.562081 81.440618 
L 246.593864 81.941115 
L 246.40943 82.342442 
L 246.368737 82.430991 
L 246.125308 82.712948 
L 245.448364 83.497037 
L 245.301369 83.737329 
L 245.211981 84.013465 
L 244.802117 86.12697 
L 244.757091 86.225211 
L 244.629961 86.306193 
L 244.542558 86.271676 
L 244.448535 86.190694 
L 244.297567 86.130953 
L 244.22738 86.275659 
L 243.6639 87.062913 
L 243.551999 87.410739 
L 243.533459 87.632444 
L 243.685089 88.192682 
L 243.696345 88.438284 
L 243.628145 88.679904 
L 243.436125 89.152522 
L 243.212984 90.462842 
L 243.135492 90.922213 
L 242.922967 92.182056 
L 242.884502 92.406944 
L 242.607789 94.024735 
L 242.639572 94.266354 
L 242.674804 94.340305 
L 242.80908 94.622145 
L 242.868672 94.819955 
L 242.911049 95.607209 
L 242.883239 95.786432 
L 242.779945 95.856794 
L 242.643545 95.866087 
L 242.52436 95.900604 
L 242.472713 96.041327 
L 242.493902 96.118326 
L 242.593222 96.255067 
L 242.623019 96.332067 
L 242.606465 96.431635 
L 242.544224 96.496686 
L 242.472713 96.54979 
L 242.430336 96.616168 
L 242.270099 97.627783 
L 242.259505 97.895954 
L 242.373392 98.396451 
L 242.402526 98.667277 
L 242.36942 99.439928 
L 242.333664 99.625789 
L 242.189318 99.798374 
L 241.810575 99.927149 
L 241.667553 100.152838 
L 241.650337 100.269665 
L 241.658283 100.397112 
L 241.707943 100.638732 
L 241.723172 100.828575 
L 241.674174 100.953368 
L 241.610064 101.062627 
L 241.60796 101.066212 
L 241.57088 101.220211 
L 241.605974 101.445899 
L 241.794683 101.939759 
L 241.847654 102.188016 
L 241.835736 102.419014 
L 241.679471 103.212906 
L 241.680795 103.522232 
L 241.786075 103.729335 
L 241.917841 103.925816 
L 241.993325 104.20328 
L 241.980744 104.312142 
L 241.859573 104.637398 
L 241.866194 104.774139 
L 242.015838 105.031689 
L 242.06616 105.176395 
L 242.068809 105.421997 
L 241.948299 106.176062 
L 241.445074 106.355285 
L 240.933903 106.724352 
L 240.492919 107.185022 
L 240.246072 107.574859 
L 240.202902 107.643036 
L 240.176416 107.670915 
L 240.147945 107.689501 
L 240.116162 107.697467 
L 239.136859 107.737294 
L 238.935569 107.822259 
L 238.78725 108.013431 
L 238.436316 108.738289 
L 238.306537 108.906891 
L 237.6881 109.420664 
L 237.533159 109.64768 
L 237.263007 110.161453 
L 236.934828 110.687631 
L 236.456522 111.454514 
L 236.215503 112.020063 
L 236.151938 112.479405 
L 236.179748 112.949368 
L 236.520087 114.96596 
L 236.546573 115.427957 
L 236.472413 115.964299 
L 236.271123 116.57233 
L 235.950648 117.072827 
L 235.509664 117.42198 
L 234.939562 117.573324 
L 234.570751 117.561376 
L 234.46216 117.599876 
L 234.330395 117.72334 
L 234.315166 117.834857 
L 234.271464 117.972925 
L 234.174792 118.164097 
L 234.026473 118.396423 
L 233.844385 118.582284 
L 233.622569 118.713714 
L 233.355065 118.792041 
L 233.010753 118.911523 
L 232.830651 119.06685 
L 232.734641 119.404055 
L 232.760464 119.678864 
L 232.808138 119.933759 
L 232.937917 120.166085 
L 232.982943 120.322739 
L 232.760464 120.521876 
L 232.714114 120.690479 
L 232.761788 120.855098 
L 232.875676 120.933426 
L 233.01936 121.00246 
L 233.151126 121.136545 
L 233.237204 121.43525 
L 233.151126 122.416331 
L 233.250447 122.518554 
L 233.728511 122.831863 
L 233.899343 122.899569 
L 234.282059 122.940724 
L 234.544928 123.070827 
L 234.740259 123.289878 
L 234.909766 123.600531 
L 234.648883 123.63372 
L 234.485997 123.774444 
L 234.399919 123.993494 
L 234.37542 124.266975 
L 234.478052 124.483371 
L 234.711787 124.551077 
L 234.979953 124.576301 
L 235.171973 124.661266 
L 235.228917 124.76349 
L 235.346778 125.107333 
L 235.537473 125.387452 
L 235.590445 125.514899 
L 235.610309 125.722001 
L 235.693738 125.927776 
L 235.889731 126.031327 
L 236.124128 126.109654 
L 236.316811 126.239757 
L 236.391632 126.444204 
L 236.441955 126.70972 
L 236.55187 126.939391 
L 236.798185 127.037632 
L 237.035231 127.065511 
L 237.253737 127.149148 
L 237.43119 127.285889 
L 237.549713 127.475733 
L 237.638261 128.215672 
L 237.648371 128.300159 
L 237.590103 128.44752 
L 237.426555 128.539123 
L 237.330545 128.755519 
L 237.286844 129.015724 
L 237.322599 129.872012 
L 237.411326 130.122925 
L 237.629831 130.298165 
L 237.568783 130.354588 
L 237.273601 130.627404 
L 237.217981 130.798662 
L 237.191496 131.174367 
L 237.428541 134.437555 
L 237.404042 135.445187 
L 237.325408 135.987967 
L 237.190171 136.921454 
L 237.298762 138.436222 
L 237.420596 138.778737 
L 237.615927 139.054873 
L 238.101936 139.580594 
L 238.893192 140.920121 
L 239.248678 142.150822 
L 239.319609 142.396389 
L 239.722189 145.500267 
L 239.761918 145.664887 
L 239.808267 146.174677 
L 239.685772 147.260637 
L 238.910407 149.378124 
L 238.656808 150.465411 
L 238.691902 151.542077 
L 238.935641 152.566979 
L 238.954109 152.644632 
L 239.384499 153.692091 
L 240.381679 155.521494 
L 240.903445 157.599155 
L 242.148265 160.535759 
L 242.390608 161.61508 
L 242.270099 162.608109 
L 241.858249 163.331639 
L 240.899472 164.624701 
L 240.643886 165.439834 
L 240.676993 165.949624 
L 241.06302 167.387392 
L 241.276891 168.920745 
L 241.433156 169.425225 
L 241.796007 170.030601 
L 242.666058 171.153732 
L 243.312305 172.88224 
L 243.602322 173.368133 
L 244.00755 173.792958 
L 245.730435 175.100623 
L 246.96078 175.727829 
L 247.519534 176.01267 
L 248.520687 176.845062 
L 250.363419 178.991756 
L 251.129513 180.177284 
L 252.092263 182.242996 
L 252.545165 183.858659 
L 252.67031 184.705654 
L 253.015284 185.917734 
L 255.748592 190.169968 
L 256.68618 192.440127 
L 256.993413 193.596448 
L 254.811004 193.928343 
L 251.520175 194.42884 
L 248.940483 194.821803 
L 245.538415 195.339559 
L 242.132374 195.858642 
L 241.921766 195.89065 
L 239.232207 196.299398 
L 237.210036 196.607397 
L 234.993196 196.944601 
L 233.457696 197.176928 
L 233.123316 197.308358 
L 233.169666 197.549977 
L 233.716592 198.691695 
L 233.652365 199.836068 
L 233.173639 200.939285 
L 231.537494 203.100583 
L 229.40607 205.186209 
L 228.216207 206.059756 
L 227.048857 206.608046 
L 226.500606 206.96782 
L 226.246345 207.441765 
L 226.45227 207.911728 
L 227.001183 208.121486 
L 227.630214 208.251588 
L 228.07782 208.485242 
L 228.341351 208.807844 
L 228.369161 209.053446 
L 228.345324 209.285772 
L 228.32546 209.471633 
L 228.389025 209.672097 
L 228.541317 209.816804 
L 228.849211 210.042492 
L 228.941249 210.176577 
L 228.993558 210.318628 
L 229.017395 210.485903 
L 229.023354 210.703626 
L 229.086257 210.873556 
L 229.242522 210.935952 
L 229.645764 210.926659 
L 229.560348 211.026228 
L 229.272318 211.119158 
L 229.207428 211.18952 
L 229.259075 211.310329 
L 229.501418 211.582483 
L 229.557038 211.756396 
L 229.583523 211.879861 
L 229.697411 212.146704 
L 229.723897 212.2861 
L 229.74045 212.88351 
L 229.818582 213.139733 
L 229.994049 213.390645 
L 230.122504 213.478265 
L 230.233743 213.518093 
L 230.314524 213.593765 
L 230.344983 213.780953 
L 230.680025 214.120813 
L 230.654863 214.179227 
L 230.41848 214.273485 
L 230.295322 214.501828 
L 230.170178 215.056756 
L 229.776206 215.886493 
L 229.723897 216.163957 
L 229.818582 217.089279 
L 229.783489 218.112842 
L 229.669601 218.615994 
L 229.469635 219.011613 
L 229.153133 219.376697 
L 229.032624 219.614334 
L 229.469635 219.9834 
L 229.494797 220.041814 
L 229.521282 220.178554 
L 229.557038 220.246261 
L 229.58882 220.270157 
L 229.701384 220.336536 
L 229.723897 220.343174 
L 229.792759 220.594087 
L 229.757004 220.793223 
L 229.683506 220.99767 
L 229.645764 221.267169 
L 229.685493 221.588443 
L 229.784813 221.816786 
L 229.90135 222.021233 
L 229.994049 222.272146 
L 230.008616 222.424817 
L 229.988752 222.586782 
L 229.938429 222.735471 
L 229.862946 222.85097 
L 229.80865 222.97178 
L 229.914593 223.166934 
L 229.862946 223.289071 
L 229.865594 223.465639 
L 230.033777 223.699293 
L 230.344983 224.041808 
L 230.349618 224.193152 
L 230.278769 224.466633 
L 230.25758 224.615322 
L 230.326443 224.745425 
L 230.625729 224.972441 
L 230.694592 225.054751 
L 230.627054 225.313628 
L 230.462843 225.552593 
L 230.262215 225.751729 
L 230.082776 225.892453 
L 230.00994 225.911039 
L 229.847054 225.899091 
L 229.771571 225.934935 
L 229.715951 226.001314 
L 229.521282 226.31595 
L 229.429907 226.596069 
L 229.334559 226.720862 
L 229.117378 226.949205 
L 228.950519 227.222686 
L 228.833982 227.518736 
L 228.770417 227.821424 
L 228.770417 228.390956 
L 228.741283 228.530351 
L 228.615477 228.791884 
L 228.586342 228.924642 
L 228.538668 229.061383 
L 228.313541 229.289726 
L 228.237395 229.407881 
L 228.222166 229.536656 
L 228.247328 229.811465 
L 228.237395 229.941567 
L 228.189059 230.079636 
L 228.020876 230.391617 
L 227.83945 230.639874 
L 227.831504 230.764666 
L 227.969229 231.448369 
L 227.974526 231.609006 
L 227.941419 231.729816 
L 227.832167 231.89178 
L 227.799722 231.966125 
L 227.78383 232.104193 
L 227.799722 232.536984 
L 227.561352 233.025532 
L 227.439518 233.164928 
L 227.319009 233.352117 
L 227.265376 233.633563 
L 227.36271 234.111492 
L 227.293848 234.149991 
L 227.009128 234.37037 
L 226.965427 234.422145 
L 226.304613 235.379329 
L 226.271506 235.607673 
L 226.287397 236.294031 
L 226.34699 236.49184 
L 226.414528 236.595391 
L 226.566158 236.973751 
L 226.662168 237.105181 
L 226.850215 237.295025 
L 226.925699 237.411852 
L 227.146853 238.176537 
L 227.138908 238.305312 
L 227.091234 238.358416 
L 227.177312 238.47657 
L 227.36271 238.649155 
L 227.402439 238.779258 
L 227.528245 239.667408 
L 227.632863 239.829373 
L 227.83945 239.891769 
L 227.994391 240.025854 
L 228.100333 240.651144 
L 228.237395 240.848953 
L 228.407565 240.758678 
L 228.541317 240.767971 
L 228.656529 240.83966 
L 228.770417 240.936573 
L 228.831334 241.006935 
L 228.983626 241.25652 
L 229.023354 241.374674 
L 229.323965 241.204744 
L 229.497445 241.330864 
L 229.723897 241.812775 
L 229.890756 241.938895 
L 230.520449 242.278755 
L 230.78994 242.347789 
L 231.237545 242.28141 
L 231.354082 242.383634 
L 231.39381 242.74208 
L 231.466645 242.935907 
L 231.642774 243.072647 
L 232.094353 243.312939 
L 232.255915 243.456317 
L 232.429395 243.667402 
L 232.569768 243.913004 
L 232.626712 244.153296 
L 232.743249 244.30464 
L 233.502059 244.722827 
L 233.834453 245.130394 
L 234.877983 247.018211 
L 234.909766 247.146986 
L 234.932279 247.315588 
L 234.993196 247.350105 
L 235.089868 247.348778 
L 235.219647 247.413829 
L 235.405046 247.425777 
L 235.624876 247.318244 
L 235.82749 247.287709 
L 235.966539 247.537294 
L 236.185045 247.400553 
L 236.451887 247.283726 
L 236.765078 247.205399 
L 237.810595 247.186813 
L 237.939712 247.247882 
L 238.170137 247.498794 
L 238.329712 247.634207 
L 238.449559 247.683328 
L 238.597878 247.707224 
L 239.111698 247.719172 
L 239.212343 247.740414 
L 239.744702 248.028498 
L 240.086366 248.151963 
L 240.171119 248.161256 
L 240.351883 248.145325 
L 240.435975 248.151963 
L 240.504837 248.189135 
L 240.549863 248.243566 
L 240.604158 248.295341 
L 240.699506 248.327203 
L 240.945822 248.303307 
L 241.137842 248.185152 
L 241.266297 247.996636 
L 241.311322 247.756344 
L 241.250405 247.525346 
L 241.096789 247.458967 
L 240.899472 247.445691 
L 240.699506 247.371347 
L 240.314141 246.888108 
L 240.265143 246.787212 
L 240.285669 246.681006 
L 240.332681 246.565506 
L 240.38499 246.264146 
L 240.539268 245.762321 
L 240.620049 245.600357 
L 240.816042 245.456978 
L 241.37886 245.267135 
L 241.629811 245.118446 
L 241.815872 244.945861 
L 241.93307 244.899395 
L 242.107213 244.899395 
L 242.272085 244.960464 
L 242.501847 245.183497 
L 242.639572 245.257842 
L 242.858078 245.216687 
L 243.528824 244.911344 
L 243.959876 244.60069 
L 244.231353 244.50776 
L 244.784901 244.462622 
L 244.786181 244.484857 
L 244.788558 244.526165 
L 244.788874 244.531656 
L 244.786225 245.897734 
L 244.782915 247.393916 
L 244.780928 249.531317 
L 244.776955 251.453651 
L 244.774307 253.697259 
L 244.770996 255.62092 
L 244.767686 257.439703 
L 244.765037 259.358718 
L 244.763713 260.777899 
L 244.566395 261.181483 
L 244.373051 261.216 
L 243.54935 261.206707 
L 243.039504 261.068639 
L 242.76273 260.961105 
L 242.565413 260.849588 
L 242.454173 260.739399 
L 242.368095 260.607969 
L 242.301881 260.465918 
L 242.252883 260.317229 
L 242.252883 260.138006 
L 242.352204 260.068972 
L 242.474037 260.046403 
L 242.553494 260.006576 
L 242.577331 259.887094 
L 242.55217 259.629544 
L 242.572034 259.520682 
L 242.662085 259.425096 
L 242.891185 259.369338 
L 242.985871 259.304287 
L 243.046125 259.206046 
L 243.096448 259.078598 
L 243.117636 258.94053 
L 243.084529 258.811755 
L 242.967993 258.669704 
L 242.868672 258.667049 
L 242.757433 258.704221 
L 242.603817 258.686963 
L 242.357501 258.532964 
L 242.138995 258.355068 
L 241.903274 258.223638 
L 241.603987 258.207707 
L 241.308673 258.335154 
L 240.565754 259.025495 
L 240.303547 259.186132 
L 238.49326 259.871163 
L 237.749016 260.358384 
L 237.457675 260.476539 
L 237.285519 260.573452 
L 237.039204 260.864192 
L 236.902803 260.939864 
L 236.708135 260.901364 
L 236.595571 260.75002 
L 236.508831 260.556193 
L 236.394281 260.395556 
L 236.108237 260.265454 
L 235.79968 260.269436 
L 235.477881 260.319884 
L 235.381182 260.321029 
L 235.141515 260.323867 
L 234.908442 260.408832 
L 234.675369 260.45928 
L 234.466133 260.414143 
L 234.29795 260.212351 
L 233.907288 259.836646 
L 233.699377 259.305614 
L 233.306066 257.413151 
L 233.157747 257.220652 
L 233.040549 257.172859 
L 232.790923 257.160911 
L 232.668427 257.089222 
L 232.547256 256.643156 
L 232.504879 256.613949 
L 232.434692 256.599345 
L 232.361857 256.576777 
L 232.311534 256.521018 
L 232.296305 256.449329 
L 232.314183 256.315244 
L 232.304913 256.258158 
L 232.307561 256.199744 
L 232.368478 256.059021 
L 232.376424 255.99397 
L 232.327426 255.939539 
L 232.15527 255.87847 
L 232.101636 255.821384 
L 231.988411 255.359387 
L 231.895711 255.219991 
L 231.66926 255.027492 
L 230.801858 253.912326 
L 230.288039 253.393243 
L 229.689465 253.265796 
L 229.522606 253.374657 
L 229.337208 253.745052 
L 229.212726 253.899051 
L 229.014084 253.986671 
L 228.82074 253.978705 
L 228.685663 253.859223 
L 228.641962 253.194106 
L 228.439348 252.890091 
L 228.157277 252.611299 
L 227.892421 252.272767 
L 227.803695 251.943527 
L 227.931487 251.760321 
L 228.138737 251.615615 
L 228.285732 251.403203 
L 228.294339 251.068653 
L 228.162574 250.827034 
L 227.730197 250.378312 
L 227.571946 250.0889 
L 227.32232 249.455645 
L 227.146853 249.179509 
L 226.083459 248.270117 
L 225.862304 248.149308 
L 225.621286 248.076291 
L 225.367025 248.059032 
L 225.111439 248.096205 
L 224.773748 248.097532 
L 224.549946 247.947516 
L 224.356601 247.760327 
L 224.110286 247.652793 
L 223.78981 247.733776 
L 223.600439 247.918309 
L 223.412391 247.996636 
L 223.101186 247.752362 
L 223.042918 247.636862 
L 223.017095 247.51207 
L 222.971407 247.403209 
L 222.853546 247.332847 
L 221.909999 247.242572 
L 221.717317 247.25452 
L 221.486892 247.294347 
L 221.200849 247.208055 
L 221.118081 246.934573 
L 221.069745 246.611972 
L 220.883022 246.379645 
L 220.15467 245.950838 
L 219.893787 245.853924 
L 219.570001 245.822062 
L 219.401818 245.922958 
L 219.260782 246.098199 
L 219.017778 246.292025 
L 218.613211 246.391594 
L 218.023908 246.418145 
L 217.453144 246.37168 
L 217.094265 246.254853 
L 216.54469 245.660098 
L 216.474719 245.604153 
L 215.785879 245.053394 
L 215.585913 244.790534 
L 214.962179 243.018216 
L 214.907883 242.504444 
L 214.307986 241.48088 
L 211.917665 240.031165 
L 211.607785 238.912016 
L 211.632946 238.479225 
L 211.577326 237.851281 
L 211.443574 237.264491 
L 211.225068 236.955165 
L 211.141639 236.967113 
L 210.774814 237.105181 
L 210.226563 237.151647 
L 209.741878 237.308301 
L 209.614747 237.313611 
L 209.332676 237.272456 
L 209.221437 237.288387 
L 209.048619 237.471593 
L 209.055902 237.715868 
L 209.214816 238.258847 
L 209.192303 238.60269 
L 209.059875 238.799172 
L 208.870504 238.977067 
L 208.674511 239.259841 
L 208.550029 239.766977 
L 208.498382 240.818419 
L 208.246769 241.316261 
L 207.799163 241.745069 
L 207.305208 242.025188 
L 206.76093 242.140687 
L 206.162357 242.076963 
L 205.833936 242.080946 
L 205.639267 242.241583 
L 205.490286 242.461961 
L 205.296279 242.650477 
L 205.035397 242.707563 
L 204.814243 242.606667 
L 204.595737 242.439392 
L 204.349421 242.297341 
L 203.867384 242.197773 
L 202.829151 242.127411 
L 202.370951 241.98005 
L 202.13523 241.802154 
L 201.939237 241.609656 
L 201.720731 241.443708 
L 201.416147 241.350778 
L 200.926165 241.364054 
L 200.449425 241.442381 
L 200.316997 241.498139 
L 200.065385 241.668069 
L 199.922363 241.72781 
L 199.771395 241.719845 
L 199.50654 241.595052 
L 199.045691 241.624259 
L 198.786133 241.502122 
L 198.526574 241.33883 
L 198.239206 241.229968 
L 196.027663 241.260502 
L 195.862129 241.237934 
L 195.637002 241.13571 
L 195.460873 240.736109 
L 195.278122 240.603351 
L 195.003997 240.4998 
L 194.304779 239.939562 
L 194.25578 239.878493 
L 194.190891 239.834683 
L 194.051842 239.810787 
L 193.957818 239.834683 
L 193.703557 239.952838 
L 193.561859 239.968768 
L 192.824237 239.963458 
L 192.588515 239.920976 
L 192.098533 239.640857 
L 191.693304 239.278428 
L 191.253644 239.000964 
L 190.666989 238.98105 
L 190.566344 239.06336 
L 190.529264 239.19479 
L 190.478942 239.314272 
L 190.341217 239.356755 
L 190.179655 239.379324 
L 190.089604 239.454996 
L 190.011472 239.541288 
L 189.892287 239.603684 
L 189.640674 239.612977 
L 189.446668 239.526685 
L 189.365887 239.351444 
L 189.477126 239.03017 
L 189.483085 238.961136 
L 189.477126 238.892102 
L 189.455938 238.825723 
L 189.230811 238.630569 
L 188.497161 238.284071 
L 188.384598 238.179193 
L 188.323681 238.070331 
L 188.241576 237.985366 
L 188.072068 237.950849 
L 187.909182 237.952177 
L 187.800591 237.937573 
L 187.71054 237.887125 
L 187.605923 237.775609 
L 187.485413 237.559213 
L 187.139777 236.510426 
L 187.102697 236.282083 
L 187.105346 236.162601 
L 187.156993 236.040463 
L 187.331797 235.836016 
L 187.349013 235.713879 
L 187.253665 235.488191 
L 186.963648 234.989021 
L 186.865652 234.728816 
L 186.852409 234.41418 
L 186.959675 234.270801 
L 187.109319 234.152647 
L 187.217909 233.916338 
L 187.151695 233.806149 
L 187.008674 233.69596 
L 186.938487 233.585771 
L 187.086806 233.471599 
L 187.35431 233.369375 
L 187.453631 233.281755 
L 187.460252 233.156963 
L 187.433767 232.894102 
L 187.449658 232.564863 
L 187.423172 232.276778 
L 187.266908 232.140038 
L 186.863003 232.206416 
L 185.648641 232.806482 
L 184.883209 232.967119 
L 183.050409 233.130411 
L 182.559102 233.087929 
L 182.02277 233.251221 
L 181.070615 233.717201 
L 180.574011 233.823407 
L 179.607288 233.826062 
L 179.114657 234.026527 
L 178.976932 234.155302 
L 178.742535 234.46861 
L 178.616729 234.59473 
L 178.481653 234.658454 
L 178.194285 234.72085 
L 178.079072 234.771298 
L 177.967833 234.870867 
L 177.891025 234.977073 
L 177.838054 235.09921 
L 177.797001 235.243916 
L 177.713572 235.350123 
L 177.578496 235.371364 
L 177.428852 235.359416 
L 177.303046 235.368709 
L 176.768038 235.566518 
L 176.495237 235.618293 
L 176.198599 235.593069 
L 175.941689 235.470932 
L 175.507326 235.076641 
L 175.221282 234.906711 
L 174.984237 234.866884 
L 174.450553 234.861574 
L 174.243966 234.765988 
L 174.135375 234.534989 
L 174.299585 234.398249 
L 174.833269 234.237612 
L 174.993507 234.070337 
L 175.404032 233.430444 
L 175.503353 233.223342 
L 175.552352 232.973757 
L 175.574864 232.698948 
L 175.558973 232.430777 
L 175.491435 232.205089 
L 175.402708 232.0949 
L 175.185527 231.902401 
L 175.112691 231.753712 
L 175.121961 231.571834 
L 175.217309 231.448369 
L 175.324576 231.335525 
L 175.369601 231.186836 
L 175.225255 230.925303 
L 174.902131 230.643856 
L 174.531334 230.410203 
L 174.242641 230.284083 
L 174.002947 230.253548 
L 173.527532 230.254876 
L 173.274595 230.219031 
L 172.800504 230.080963 
L 172.585971 230.074325 
L 172.327737 230.156635 
L 172.069502 230.193807 
L 171.986073 230.034498 
L 172.007261 229.607018 
L 171.983424 229.459656 
L 171.893374 229.200779 
L 171.861591 229.060055 
L 171.870861 228.941901 
L 171.942372 228.71223 
L 171.941048 228.600713 
L 171.649707 228.325904 
L 171.097483 228.126767 
L 170.496261 228.012596 
L 170.060574 227.997992 
L 169.819556 228.116147 
L 169.716262 228.373697 
L 169.659318 228.677713 
L 169.5547 228.93659 
L 169.434191 229.048107 
L 169.16139 229.207416 
L 169.039556 229.30964 
L 168.962748 229.439743 
L 168.864752 229.7265 
L 168.778674 229.848637 
L 168.346959 230.003964 
L 167.834464 229.909705 
L 167.303429 229.743758 
L 166.814771 229.688 
L 166.311545 229.727827 
L 165.885128 229.695965 
L 164.801869 229.398588 
L 164.004654 229.179537 
L 163.506726 229.137055 
L 162.98761 229.166261 
L 162.447304 229.318933 
L 161.591821 229.788896 
L 160.185439 230.561547 
L 159.133963 230.736787 
L 157.84809 230.95451 
L 157.274678 230.95451 
L 156.782047 230.881493 
L 156.526461 230.772632 
L 156.044424 230.456668 
L 155.782217 230.319927 
L 155.476309 230.307979 
L 155.190265 230.448702 
L 154.913491 230.646512 
L 154.643339 230.800511 
L 154.175869 230.881493 
L 153.679265 230.832373 
L 153.191931 230.695632 
L 152.713867 230.505788 
L 151.739199 230.11548 
L 151.270405 230.183187 
L 150.865176 231.210732 
L 150.493054 231.525369 
L 149.211154 231.952849 
L 149.024431 232.082952 
L 148.461613 232.679034 
L 148.221919 232.826396 
L 147.896147 232.843654 
L 148.080221 232.317933 
L 148.125247 231.777609 
L 147.975603 230.643856 
L 147.892174 230.40091 
L 147.677641 230.023877 
L 147.63394 229.802172 
L 147.592887 229.739775 
L 147.40484 229.604362 
L 147.363787 229.539311 
L 147.363787 229.049435 
L 147.090986 228.151991 
L 146.97445 227.952855 
L 146.971801 227.74177 
L 147.192955 227.460323 
L 147.490918 227.196135 
L 147.721342 227.031515 
L 148.257674 226.811137 
L 148.575501 226.718207 
L 148.819168 226.681034 
L 148.944974 226.572173 
L 148.982054 226.326571 
L 148.944974 225.834039 
L 148.964838 225.794212 
L 149.033701 225.715885 
L 148.824465 225.38399 
L 148.792682 224.931286 
L 148.805031 224.660994 
L 148.816519 224.409547 
L 148.771494 223.866568 
L 148.64966 223.597069 
L 148.490747 223.427139 
L 148.362292 223.254554 
L 148.334482 222.981073 
L 148.421885 222.71423 
L 148.709253 222.250905 
L 148.771494 222.057078 
L 148.786061 221.925648 
L 148.852275 221.673408 
L 148.866842 221.527374 
L 148.824465 221.378685 
L 148.637742 221.15167 
L 148.527827 220.764017 
L 148.227216 220.238295 
L 147.99944 219.634247 
L 147.684262 219.056751 
L 147.449865 218.471288 
L 147.538592 218.054429 
L 147.476351 217.895119 
L 147.363787 217.353467 
L 147.10158 216.651178 
L 146.998287 216.198474 
L 146.90029 215.913044 
L 146.725486 215.709925 
L 146.230206 215.397944 
L 146.016997 215.214738 
L 145.8753 215.144376 
L 145.783924 215.237307 
L 145.693874 215.265186 
L 145.566743 215.192169 
L 144.830445 214.341191 
L 144.675504 213.981418 
L 144.651667 213.565885 
L 144.572211 213.609696 
L 144.373569 213.690678 
L 144.294113 213.73316 
L 144.112687 213.233991 
L 143.29958 212.388323 
L 142.981754 211.883843 
L 142.848002 211.348829 
L 142.701007 210.221715 
L 142.543418 209.698649 
L 142.45734 209.567219 
L 142.240159 209.305686 
L 142.185863 209.164962 
L 142.203079 209.002998 
L 142.336831 208.73881 
L 142.418936 208.291416 
L 142.814895 207.490886 
L 142.949971 206.950561 
L 142.953944 206.426168 
L 142.797679 205.134434 
L 142.981754 203.663477 
L 142.951296 202.995705 
L 143.055913 201.974797 
L 143.187017 201.665471 
L 143.285013 201.240646 
L 143.375064 201.151698 
L 143.507492 200.335237 
L 143.65846 199.393984 
L 143.797509 199.005003 
L 144.030581 198.593454 
L 143.933909 198.585489 
L 143.882262 198.56292 
L 143.842534 198.535041 
L 143.777645 198.512472 
L 144.082228 197.524753 
L 144.132551 196.959205 
L 144.030581 196.40826 
L 143.716728 195.910418 
L 143.568409 195.583833 
L 143.637271 195.435145 
L 143.738361 195.380365 
L 143.833264 195.328938 
L 143.706134 195.091302 
L 143.331363 194.726218 
L 143.226745 194.495219 
L 143.08902 193.883205 
L 143.059886 193.334915 
L 143.022807 193.11852 
L 142.944674 192.945935 
L 142.621551 192.572885 
L 142.482501 192.345869 
L 142.397748 192.088319 
L 142.369938 191.776338 
L 142.28386 191.627649 
L 141.88128 191.400633 
L 141.756798 191.297082 
L 141.698529 191.068739 
L 141.66145 190.193864 
L 141.703826 190.0704 
L 141.889225 189.816832 
L 141.931602 189.666816 
L 141.915711 189.516799 
L 141.83493 189.184905 
L 141.910414 188.620684 
L 141.983249 188.409599 
L 142.124947 188.002032 
L 142.225592 187.715275 
L 142.389802 187.24133 
L 142.539445 186.805884 
L 142.628892 186.550607 
L 142.68644 186.386369 
L 142.710277 186.147405 
L 142.752654 186.071733 
L 142.939377 185.883217 
L 142.981754 185.784976 
L 142.981754 185.301737 
L 142.948647 185.17429 
L 142.90627 185.103928 
L 142.877136 185.024273 
L 142.886406 184.863636 
L 142.928783 184.717603 
L 143.045319 184.457397 
L 143.069156 184.292778 
L 143.040022 184.218433 
L 142.91554 184.100279 
L 142.886406 184.025934 
L 142.900973 183.96221 
L 142.967187 183.845384 
L 142.981754 183.767056 
L 142.949971 183.607747 
L 142.874487 183.512161 
L 142.784437 183.421886 
L 142.710277 183.27718 
L 142.736763 183.206818 
L 142.800328 183.115215 
L 142.832111 183.009009 
L 142.761924 182.889527 
L 142.690413 182.807217 
L 142.401721 182.193876 
L 142.32094 182.096963 
L 142.221619 182.034566 
L 142.138189 182.00536 
L 142.09184 181.942963 
L 142.095812 181.897826 
L 141.833606 181.88986 
L 141.403216 181.892515 
L 140.472249 181.895171 
L 139.539958 181.897826 
L 138.606342 181.900481 
L 137.675375 181.903136 
L 136.74176 181.905791 
L 135.809469 181.908446 
L 134.879826 181.911102 
L 133.946211 181.913757 
L 133.015244 181.915084 
L 132.082953 181.917739 
L 131.150661 181.921722 
L 130.21837 181.92305 
L 129.286079 181.925705 
L 128.355112 181.929688 
L 127.422821 181.931015 
L 126.49053 181.93367 
L 125.894605 181.936326 
L 125.880038 181.304398 
L 125.865471 180.69504 
L 125.944928 180.096302 
L 126.213756 179.39534 
L 126.412398 178.872274 
L 126.760683 177.960228 
L 127.059969 177.178284 
L 126.319698 177.180939 
L 125.212603 177.183594 
L 124.141262 177.187577 
L 123.467205 177.188904 
L 123.318886 177.211473 
L 123.212944 177.295111 
L 123.10965 177.488937 
L 123.051382 177.673471 
L 122.994438 178.096968 
L 122.995763 178.282829 
L 122.379974 178.282829 
L 121.839669 178.282829 
L 121.302012 178.282829 
L 120.764355 178.282829 
L 120.226699 178.282829 
L 119.687718 178.282829 
L 119.148737 178.282829 
L 118.751831 178.282829 
L 118.611081 178.282829 
L 118.0721 178.282829 
L 117.534443 178.282829 
L 116.996787 178.282829 
L 116.457806 178.282829 
L 115.918825 178.282829 
L 115.381169 178.282829 
L 114.843512 178.282829 
L 114.305856 178.282829 
L 113.766875 178.282829 
L 113.098115 178.282829 
L 113.333836 178.792619 
L 113.364294 178.92936 
L 113.282189 179.136462 
L 112.928607 179.583856 
L 112.780288 179.821493 
L 112.654482 180.23437 
L 112.515433 182.316013 
L 112.555161 182.72358 
L 112.654482 183.164336 
L 112.994821 184.017969 
L 112.986875 184.416242 
L 112.622699 184.705654 
L 112.612105 184.710965 
L 112.601511 184.717603 
L 112.592241 184.725568 
L 112.417436 184.951257 
L 112.283684 185.454409 
L 112.09961 185.646908 
L 111.853294 185.703994 
L 110.968677 185.632304 
L 110.943516 185.968182 
L 111.048134 186.312025 
L 111.193804 186.655867 
L 111.293125 186.98909 
L 111.298422 187.299743 
L 111.252072 187.63562 
L 110.999135 188.42553 
L 110.877302 188.810527 
L 110.689255 189.398645 
L 110.652175 189.800901 
L 110.691903 190.130141 
L 110.967353 191.12848 
L 110.617744 191.12848 
L 108.982261 191.12848 
L 107.348103 191.12848 
L 105.712621 191.12848 
L 104.079787 191.12848 
L 103.512996 191.12848 
L 103.314355 190.823137 
L 103.234898 190.665155 
L 103.173981 190.304053 
L 103.061418 190.233692 
L 102.143694 190.233692 
L 101.141216 190.233692 
L 100.21687 190.232364 
L 100.060606 190.341226 
L 100.03412 190.59081 
L 100.102983 191.071394 
L 99.850046 191.080687 
L 99.771913 191.068739 
L 98.986617 191.080687 
L 98.773408 191.111221 
L 98.492662 191.261238 
L 98.295344 191.318323 
L 98.12981 191.307703 
L 97.650421 191.124497 
L 97.024038 191.100601 
L 96.06791 191.063428 
L 95.861323 191.092635 
L 95.338233 191.340892 
L 95.140916 191.39134 
L 94.907843 191.530736 
L 94.788658 191.826786 
L 94.774091 192.183905 
L 94.856196 192.506506 
L 93.708048 192.53173 
L 93.366385 192.456058 
L 92.712192 191.90113 
L 92.334773 191.72058 
L 91.907031 191.674114 
L 91.69912 191.716597 
L 90.901905 192.15337 
L 90.744316 192.173284 
L 90.309953 192.011319 
L 89.924588 191.980785 
L 88.837357 192.3618 
L 88.475829 192.368438 
L 87.759395 192.19187 
L 87.660074 192.079026 
L 87.65607 192.071455 
L 87.555456 191.881217 
L 87.7051 191.514805 
L 87.660074 191.297082 
L 87.555456 191.202824 
L 87.273385 191.058118 
L 87.143606 190.938636 
L 87.076068 190.813844 
L 86.959531 190.404949 
L 86.899939 190.467346 
L 86.821807 190.532397 
L 86.786051 190.588155 
L 86.746323 190.493897 
L 86.718513 190.458053 
L 86.725134 190.42088 
L 86.786051 190.325295 
L 86.510602 190.189882 
L 86.395389 190.106244 
L 86.347715 190.021279 
L 86.415254 189.846039 
L 86.534439 189.726557 
L 86.582112 189.612385 
L 86.435118 189.447765 
L 86.248395 189.503523 
L 86.206018 189.40661 
L 86.212639 189.241991 
L 86.174235 189.097284 
L 86.049753 189.06675 
L 85.880246 189.065423 
L 85.791519 189.037543 
L 85.910704 188.922044 
L 85.910704 188.834424 
L 85.667037 188.831769 
L 85.604796 188.714942 
L 85.61539 188.555632 
L 85.595526 188.434823 
L 85.468395 188.371099 
L 85.173082 188.328616 
L 85.114813 188.259582 
L 85.065815 188.144083 
L 84.834067 187.938308 
L 84.765204 187.773689 
L 84.811554 187.658189 
L 84.893659 187.53738 
L 84.891011 187.424535 
L 84.677802 187.335588 
L 84.733422 187.279829 
L 84.733422 187.273191 
L 84.705612 187.250623 
L 84.677802 187.152382 
L 84.487106 187.242657 
L 84.456648 187.039538 
L 84.468566 186.738177 
L 84.407649 186.529747 
L 84.455323 186.288128 
L 84.201062 186.098284 
L 83.576003 185.784976 
L 83.385307 185.506184 
L 83.172099 184.890188 
L 82.999943 184.600776 
L 82.879433 184.490587 
L 82.770843 184.41226 
L 82.688738 184.328622 
L 82.658279 184.206485 
L 82.727142 184.053813 
L 82.875461 183.980797 
L 83.026428 183.930349 
L 83.095291 183.850694 
L 83.047617 183.757763 
L 82.93108 183.698022 
L 82.658279 183.627661 
L 82.55631 183.571902 
L 82.479502 183.518799 
L 82.402694 183.542696 
L 82.2994 183.723246 
L 82.117974 183.602437 
L 82.04249 183.425869 
L 82.039756 183.117019 
L 82.038517 182.977147 
L 81.981574 182.783321 
L 81.842524 182.654546 
L 81.511455 182.495236 
L 81.078416 182.188565 
L 80.735429 182.085014 
L 80.678485 181.932343 
L 80.678485 181.733206 
L 80.645378 181.531414 
L 80.437466 181.240674 
L 80.279877 181.072072 
L 80.155395 180.9964 
L 80.089181 180.886211 
L 80.113018 180.198525 
L 79.850812 179.358168 
L 79.877297 179.036894 
L 80.287823 179.147083 
L 80.30239 178.866964 
L 80.392441 178.647913 
L 80.441439 178.447449 
L 80.331524 178.221761 
L 80.263986 178.122192 
L 80.212339 178.019969 
L 80.132883 177.941642 
L 79.985888 177.911107 
L 79.872 177.855349 
L 79.870676 177.734539 
L 79.915701 177.61373 
L 79.946159 177.560626 
L 79.849487 176.826476 
L 79.695871 176.511839 
L 79.38599 176.294117 
L 79.24032 176.262255 
L 78.931763 176.230393 
L 78.792714 176.1826 
L 78.644395 176.045859 
L 78.588775 175.873274 
L 78.567587 175.686086 
L 78.518589 175.497569 
L 77.814073 174.511178 
L 77.714752 174.301421 
L 77.657808 174.07175 
L 77.620729 173.597804 
L 77.565109 173.370788 
L 77.377062 172.940653 
L 77.336009 172.732223 
L 77.383683 172.507862 
L 77.541272 172.241019 
L 77.547893 172.117554 
L 77.432681 171.971521 
L 77.300254 171.849383 
L 77.219473 171.729901 
L 77.214176 171.585195 
L 77.297605 171.398007 
L 77.019507 171.386058 
L 77.019507 171.259939 
L 77.136043 171.082043 
L 77.210203 170.914768 
L 77.183717 170.747493 
L 77.116179 170.730235 
L 77.031425 170.748821 
L 76.946672 170.695718 
L 76.873836 170.578891 
L 76.851324 170.52977 
L 76.859269 170.034583 
L 76.908268 169.905808 
L 77.019507 169.865981 
L 77.137368 169.856688 
L 77.210203 169.810223 
L 77.227418 169.682775 
L 77.199609 169.556655 
L 77.158556 169.437173 
L 77.138692 169.328312 
L 77.130746 168.387058 
L 77.162529 168.175973 
L 77.253904 168.012681 
L 77.284362 167.842751 
L 77.170474 167.648925 
L 76.946672 167.395357 
L 76.888403 167.222772 
L 76.750679 167.137807 
L 76.579847 167.084704 
L 76.430204 167.005049 
L 76.211698 166.706344 
L 76.056757 166.590845 
L 75.802496 166.565621 
L 76.072649 166.250984 
L 76.02365 166.123537 
L 75.909763 166.139468 
L 75.789253 166.199209 
L 75.715094 166.207174 
L 75.675366 166.062468 
L 75.623719 165.256628 
L 75.599882 165.137146 
L 75.536316 165.001733 
L 75.413159 164.839768 
L 75.411834 164.757459 
L 75.58399 164.554339 
L 75.626367 164.445478 
L 75.150952 164.210496 
L 75.056928 164.158721 
L 74.572243 163.962239 
L 74.344467 163.907808 
L 74.114043 163.899843 
L 73.859781 163.938343 
L 73.449256 164.059152 
L 73.257235 164.087031 
L 73.048 164.052514 
L 72.768577 163.907808 
L 72.565963 163.745844 
L 72.344808 163.611758 
L 72.017712 163.545379 
L 71.265522 163.557328 
L 70.094861 163.575914 
L 69.264531 163.59007 
L 68.926849 163.595827 
L 67.757512 163.615741 
L 66.5895 163.635655 
L 65.418839 163.655568 
L 64.250826 163.675482 
L 63.081489 163.694068 
L 61.912153 163.713982 
L 60.742816 163.732568 
L 59.573479 163.752482 
L 58.405467 163.771068 
L 57.23613 163.790981 
L 56.066793 163.810895 
L 54.897456 163.829481 
L 53.729444 163.849395 
L 52.560107 163.869308 
L 52.079461 163.877304 
L 51.362961 163.889222 
L 49.7341 164.187927 
L 49.338141 164.149428 
L 48.52371 163.942325 
L 47.941028 164.043221 
L 46.780961 164.019325 
L 45.444766 163.994101 
L 45.193153 163.960911 
L 44.435667 163.692741 
L 44.141677 163.659551 
L 42.617434 163.77505 
L 42.426738 163.703361 
L 42.119506 163.528121 
L 41.622902 163.378104 
L 39.874856 163.5175 
L 37.752702 163.688758 
L 36.740954 163.581224 
L 36.61912 163.606448 
L 36.384723 163.704689 
L 36.229783 163.711327 
L 35.852364 163.5945 
L 34.828698 163.575914 
L 34.407577 163.567948 
L 34.322824 163.626362 
L 34.063265 163.905153 
L 33.921568 164.007377 
L 33.517663 163.793637 
L 32.983979 163.659551 
L 31.902045 163.567948 
L 31.888437 163.568894 
L 31.894694 163.565758 
L 31.719514 163.484222 
L 31.51618 163.513491 
L 31.107426 163.646249 
L 30.913477 163.652521 
L 30.684075 163.622206 
L 30.394147 163.648141 
L 29.998532 163.57852 
L 29.395251 163.302333 
L 29.223199 163.264701 
L 28.775864 163.089084 
L 28.563146 163.031591 
L 28.202359 163.030545 
L 27.722699 163.094311 
L 27.257638 163.226023 
L 26.933346 163.426728 
L 26.832201 163.475859 
L 26.540622 163.682586 
L 26.38575 163.893779 
L 26.245028 164.133082 
L 25.913549 164.530605 
L 25.978471 165.146318 
L 25.329801 165.414382 
L 24.497336 165.38725 
L 23.848538 165.739877 
L 22.818055 165.994725 
L 22.479079 166.079714 
L 22.295422 166.0659 
L 22.253005 165.854742 
L 22.309496 165.756095 
L 22.577825 165.586773 
L 22.579916 165.280112 
L 22.577688 165.178555 
L 22.45058 165.108334 
L 22.238812 165.094475 
L 22.026822 165.137033 
L 21.984459 165.235627 
L 21.899701 165.292045 
L 21.80082 165.48928 
L 21.649793 165.211119 
L 21.583058 164.976964 
L 21.540306 164.881838 
L 21.474613 164.824344 
L 21.318203 164.740717 
L 21.270237 164.706221 
L 21.00121 164.364396 
L 20.135738 163.496766 
L 19.913635 163.213479 
L 19.417291 162.374073 
L 20.037846 162.030612 
L 21.133023 161.875285 
L 22.299711 161.887234 
L 23.241272 161.896527 
L 23.286298 160.707016 
L 23.31808 159.873297 
L 23.378997 158.273565 
L 23.438589 156.738884 
L 23.480966 155.643632 
L 23.51937 154.657241 
L 23.434617 154.225778 
L 23.279676 154.115589 
L 22.490407 153.836797 
L 22.417572 153.769091 
L 22.367249 153.646953 
L 22.343412 153.508885 
L 22.350034 153.400024 
L 22.413599 153.275231 
L 22.49438 153.250007 
L 22.589728 153.263283 
L 22.696994 153.250007 
L 23.772307 152.878285 
L 24.250371 152.571615 
L 24.458283 152.087049 
L 24.496687 151.825516 
L 24.610575 151.738559 
L 25.10453 151.701387 
L 25.418384 151.595181 
L 25.512408 151.447819 
L 25.538893 151.2447 
L 25.650132 150.969891 
L 25.842153 150.811909 
L 26.418213 150.477359 
L 26.537398 150.322033 
L 26.563884 150.023328 
L 26.647313 149.735243 
L 26.792984 149.464417 
L 27.007516 149.225453 
L 27.39553 149.005075 
L 29.911656 148.416957 
L 30.369856 148.25101 
L 30.477123 147.883271 
L 30.449313 147.45048 
L 30.659873 147.166378 
L 30.972402 147.133189 
L 31.250501 147.459773 
L 31.353794 147.652272 
L 31.582894 147.986822 
L 31.741807 148.407664 
L 31.86629 148.535112 
L 32.207953 148.754162 
L 32.810499 149.278556 
L 33.043572 149.431228 
L 33.819598 149.710019 
L 34.00897 149.81357 
L 34.129479 149.931725 
L 34.198342 150.087051 
L 34.291041 150.534445 
L 34.563842 151.094684 
L 34.698918 150.985822 
L 35.0525 150.555687 
L 35.71199 150.069793 
L 35.856337 149.994121 
L 35.893416 149.897208 
L 35.84177 149.787019 
L 35.71199 149.675502 
L 36.127814 149.432555 
L 36.274808 149.411314 
L 36.437694 149.484331 
L 36.690631 149.747191 
L 36.845572 149.817553 
L 36.962596 149.780598 
L 37.110427 149.733915 
L 37.388525 149.217487 
L 37.656029 149.043575 
L 37.780511 149.05154 
L 38.073177 149.13385 
L 38.18574 149.121902 
L 38.253278 149.031626 
L 38.217523 148.795317 
L 38.270494 148.654594 
L 38.375112 148.600163 
L 38.481054 148.630698 
L 38.577064 148.641318 
L 38.661818 148.529802 
L 38.490324 147.977529 
L 38.535349 147.696082 
L 38.734653 147.176999 
L 38.781003 146.928742 
L 38.643278 145.688783 
L 38.693601 145.541422 
L 38.84192 145.46044 
L 39.655026 145.176338 
L 39.917233 145.20289 
L 40.204601 145.390078 
L 40.322462 145.546733 
L 40.502563 145.883938 
L 40.642937 146.007402 
L 40.760797 146.037937 
L 41.121001 146.01404 
L 41.134254 146.017862 
L 41.50769 146.125557 
L 41.63482 146.120247 
L 41.768572 146.040592 
L 41.984429 145.780386 
L 42.188368 145.633025 
L 42.216178 145.605146 
L 42.238691 145.567974 
L 42.61611 145.058184 
L 43.094174 144.867012 
L 44.221134 144.730272 
L 44.71244 144.570962 
L 45.193153 144.343946 
L 45.672541 143.921776 
L 45.933424 143.739898 
L 46.516106 143.599175 
L 47.06833 143.299142 
L 47.305375 143.281884 
L 47.379535 143.341625 
L 47.411317 143.443848 
L 47.409993 143.580589 
L 47.38748 143.745208 
L 47.331861 143.929742 
L 47.28816 143.998776 
L 47.292132 144.06781 
L 47.37821 144.253671 
L 47.587446 144.57229 
L 47.837735 144.865685 
L 48.281367 145.151114 
L 48.364797 145.237407 
L 48.323744 145.477698 
L 48.143643 145.733921 
L 47.92911 145.974213 
L 47.786088 146.174677 
L 47.632472 146.331332 
L 47.147786 146.533123 
L 46.945172 146.717657 
L 46.840554 146.903518 
L 46.82996 147.004414 
L 46.926632 147.289843 
L 47.032574 147.77972 
L 47.227243 148.022667 
L 47.417939 148.20189 
L 47.559636 148.406337 
L 47.611283 148.727611 
L 47.588771 148.849748 
L 47.490774 149.075436 
L 47.458991 149.196246 
L 47.466937 149.34759 
L 47.518584 149.469727 
L 47.583473 149.585227 
L 47.632472 149.717985 
L 47.425884 150.716324 
L 47.48018 151.106632 
L 47.703983 151.066804 
L 47.948974 151.028305 
L 48.105239 150.94865 
L 48.36877 150.668531 
L 48.521062 150.587548 
L 48.77135 150.52117 
L 49.007071 150.529135 
L 49.111689 150.668531 
L 49.168633 150.720306 
L 49.442759 150.707031 
L 49.548701 150.716324 
L 49.609618 150.776065 
L 49.714235 150.944667 
L 49.772504 150.979184 
L 49.932741 151.033615 
L 50.332673 151.276562 
L 50.475695 151.329665 
L 50.965677 151.281872 
L 51.343096 151.149114 
L 52.191958 150.618083 
L 52.794504 150.357877 
L 52.995794 150.19193 
L 53.126898 150.000759 
L 53.224894 149.789674 
L 54.275046 148.03196 
L 55.264281 147.057517 
L 55.346386 146.890242 
L 55.451004 146.749519 
L 56.134331 146.403021 
L 56.413754 146.144143 
L 57.089743 145.183586 
L 57.568523 144.503256 
L 57.637386 144.330671 
L 57.772462 144.077103 
L 58.084992 143.895225 
L 58.435925 143.743881 
L 58.686213 143.580589 
L 60.11246 142.861041 
L 60.610388 142.679163 
L 60.928215 142.513216 
L 61.039454 142.469405 
L 61.089776 142.383113 
L 61.373172 142.084408 
L 61.442034 141.972891 
L 61.836669 140.709036 
L 61.998231 140.467417 
L 62.194224 140.316073 
L 62.421999 140.211194 
L 64.272015 139.621749 
L 64.834832 139.538112 
L 65.409569 139.450492 
L 65.976359 139.280562 
L 66.472963 139.020356 
L 66.53742 138.958488 
L 66.846409 138.66191 
L 67.079482 137.906518 
L 67.153642 137.776415 
L 67.243693 137.676847 
L 67.6423 136.979868 
L 67.858157 136.369182 
L 68.039583 136.187304 
L 68.134931 135.897891 
L 68.655372 134.841139 
L 69.452587 133.868024 
L 69.738631 133.309113 
L 70.002162 132.622755 
L 70.633842 131.526175 
L 70.800701 131.138522 
L 70.862942 130.900886 
L 70.886779 130.600853 
L 70.817917 130.462785 
L 70.668273 130.359234 
L 70.517306 130.210545 
L 70.449768 129.939719 
L 70.5279 129.379481 
L 70.525252 129.084758 
L 70.406067 128.843139 
L 70.351771 128.629399 
L 70.404742 127.935075 
L 70.33588 127.212872 
L 70.384878 126.574307 
L 70.329632 126.112434 
L 70.240532 125.367538 
L 70.255099 125.183005 
L 70.28953 125.003781 
L 70.59279 124.086425 
L 70.862942 122.19197 
L 70.436525 119.108005 
L 70.428579 118.488026 
L 70.404742 118.367216 
L 70.374284 118.300837 
L 70.256423 118.122942 
L 70.212722 117.925132 
L 70.239208 117.716703 
L 70.406067 117.139206 
L 70.407391 117.056896 
L 70.388851 116.957328 
L 70.37296 116.65995 
L 70.465659 116.370538 
L 70.621924 116.099712 
L 70.935777 115.68949 
L 71.253604 115.404061 
L 71.616456 115.157131 
L 72.331566 114.470773 
L 72.874519 114.060551 
L 73.682328 113.267987 
L 73.878321 113.015747 
L 73.994858 112.910868 
L 74.055775 112.877679 
L 74.254416 112.794041 
L 74.478219 112.622784 
L 74.557676 112.585611 
L 74.598728 112.410371 
L 74.667591 112.256372 
L 74.698781 112.215129 
L 75.71377 110.873035 
L 75.880628 110.547778 
L 75.956112 110.168091 
L 75.948167 109.731317 
L 75.965382 109.585284 
L 76.030272 109.372871 
L 76.124295 109.161786 
L 76.377313 108.769497 
L 76.550713 108.500652 
L 76.846027 107.904569 
L 77.268471 107.352297 
L 77.745211 106.400423 
L 77.957095 106.099062 
L 78.154412 105.625117 
L 78.451051 105.094085 
L 78.5901 104.735639 
L 78.648368 104.642709 
L 78.731797 104.559071 
L 79.024463 104.383831 
L 79.621712 103.899265 
L 80.022968 103.431957 
L 80.523544 102.988546 
L 80.82548 102.636737 
L 80.861235 102.55841 
L 80.939367 102.526548 
L 81.074444 102.433618 
L 81.152576 102.400428 
L 81.560453 102.332722 
L 82.177567 102.158809 
L 83.03305 101.807001 
L 83.282014 101.739294 
L 83.929585 101.647691 
L 84.59967 101.457848 
L 84.732097 101.37952 
L 84.98371 101.080815 
L 85.019465 101.014436 
L 85.363777 100.847161 
L 85.461774 100.766179 
L 85.723981 100.44756 
L 86.057699 100.138234 
L 87.779649 98.059258 
L 88.50099 97.188355 
L 88.768494 96.990546 
L 88.932705 96.800702 
L 89.083672 96.690513 
L 89.126049 96.644048 
L 89.145913 96.590944 
L 89.171074 96.402428 
L 89.22537 96.30286 
L 89.295556 96.212585 
L 90.11396 95.446572 
L 90.292737 95.193004 
L 90.389409 95.065557 
L 90.276846 92.788759 
L 89.962992 91.504991 
L 89.929885 91.179734 
L 89.964316 90.857133 
L 90.486082 88.463508 
L 90.720479 88.002839 
L 91.728254 85.245458 
L 92.828728 83.701484 
L 92.900239 83.495709 
L 92.983668 82.249113 
L 92.957183 82.028735 
L 92.876402 81.780478 
L 92.741326 81.572048 
L 92.553278 81.467169 
L 92.308287 80.849845 
L 92.230155 80.536537 
L 92.222209 80.174108 
L 92.414229 79.182406 
L 92.415554 78.830598 
L 92.034162 77.193694 
L 92.038135 76.175441 
L 91.889815 75.283308 
L 91.974569 74.987922 
L 92.220885 74.502692 
L 92.506929 74.186728 
L 93.037964 73.29194 
L 93.129339 73.037709 
L 93.175689 72.237843 
L 93.624619 70.798416 
L 93.684211 70.328121 
L 93.755722 70.076877 
L 94.513209 68.413421 
L 94.542343 68.14525 
L 94.44567 64.463211 
L 94.472156 64.241837 
L 94.601935 63.817012 
L 94.642988 63.595306 
L 94.645636 63.391523 
L 94.572801 62.799755 
L 94.633718 61.570749 
L 94.601935 61.177122 
L 94.526451 60.786814 
L 94.526451 60.596306 
L 95.023055 59.244167 
L 95.118403 59.094151 
L 95.42696 58.725084 
L 95.478607 58.593654 
L 95.697112 58.527939 
L 95.828216 58.334112 
L 96.006993 57.887382 
L 96.150015 57.653728 
L 96.261255 57.411445 
L 96.342035 57.158541 
L 96.483733 56.403149 
L 96.584378 56.196047 
L 96.752561 55.986289 
L 97.487535 55.297276 
L 97.618639 55.253466 
L 97.657043 55.145932 
L 98.637008 53.484468 
L 98.958807 52.610257 
L 99.003833 52.262432 
L 99.046209 52.091174 
L 99.354766 51.438005 
L 99.586515 51.105447 
L 99.643458 50.972689 
L 99.695105 50.690579 
L 99.744104 50.559812 
L 99.945394 50.242521 
L 100.369162 48.974683 
L 100.536021 48.743021 
L 100.800877 48.563134 
L 101.252455 48.334127 
L 101.453745 48.160214 
L 101.538499 47.947137 
L 101.566309 47.794466 
L 101.685494 47.507709 
L 101.82984 45.647107 
L 101.729195 44.036423 
L 101.624577 43.681295 
" clip-path="url(#p24ad817462)" style="fill: #f5f5f5; stroke: #000000"/>
    <path d="M 28.319228 163.736248 
L 28.686302 163.79193 
L 28.940556 163.763373 
L 29.180674 163.720752 
L 29.463436 163.720274 
L 29.139377 163.974223 
L 28.772049 164.087383 
L 28.051853 164.229162 
L 27.868509 164.356062 
L 27.473374 164.483217 
L 27.064599 164.821428 
L 26.754234 164.906228 
L 26.471936 164.878417 
L 26.267037 164.644546 
L 26.527603 164.385941 
L 26.908123 164.090026 
L 27.330953 163.765876 
L 27.66966 163.723173 
L 28.319228 163.736248 
" clip-path="url(#p24ad817462)" style="fill: #f5f5f5; stroke: #000000"/>
   </g>
  </g>
 </g>
 <defs>
  <clipPath id="p24ad817462">
   <rect x="7.2" y="7.2" width="268.780409" height="266.112"/>
  </clipPath>
 </defs>
</svg>
