<?xml version="1.0" encoding="utf-8" standalone="no"?>
<!DOCTYPE svg PUBLIC "-//W3C//DTD SVG 1.1//EN"
  "http://www.w3.org/Graphics/SVG/1.1/DTD/svg11.dtd">
<svg xmlns:xlink="http://www.w3.org/1999/xlink" width="343.015667pt" height="280.512pt" viewBox="0 0 343.015667 280.512" xmlns="http://www.w3.org/2000/svg" version="1.1">
 <metadata>
  <rdf:RDF xmlns:dc="http://purl.org/dc/elements/1.1/" xmlns:cc="http://creativecommons.org/ns#" xmlns:rdf="http://www.w3.org/1999/02/22-rdf-syntax-ns#">
   <cc:Work>
    <dc:type rdf:resource="http://purl.org/dc/dcmitype/StillImage"/>
    <dc:date>2024-03-04T13:11:10.145986</dc:date>
    <dc:format>image/svg+xml</dc:format>
    <dc:creator>
     <cc:Agent>
      <dc:title>Matplotlib v3.8.0, https://matplotlib.org/</dc:title>
     </cc:Agent>
    </dc:creator>
   </cc:Work>
  </rdf:RDF>
 </metadata>
 <defs>
  <style type="text/css">*{stroke-linejoin: round; stroke-linecap: butt}</style>
 </defs>
 <g id="figure_1">
  <g id="patch_1">
   <path d="M 0 280.512 
L 343.015667 280.512 
L 343.015667 0 
L 0 0 
z
" style="fill: #ffffff"/>
  </g>
  <g id="axes_1">
   <g id="PatchCollection_1">
    <path d="M 46.128734 236.304611 
L 46.468107 234.99653 
L 46.154625 234.479997 
L 46.723026 232.379841 
L 46.364761 230.449801 
L 45.689569 228.575435 
L 45.289965 226.645395 
L 45.451874 224.18645 
L 45.947933 222.151248 
L 46.557673 220.279975 
L 47.022729 218.297354 
L 42.5203 217.468426 
L 42.01735 217.5241 
L 41.858887 218.155075 
L 41.752096 221.09653 
L 41.486842 221.476971 
L 41.073459 221.560482 
L 40.532617 222.191457 
L 39.950436 223.042035 
L 39.295913 223.437941 
L 38.64139 223.28329 
L 38.062654 222.448177 
L 37.580373 220.558346 
L 37.638936 218.739655 
L 37.90419 216.899312 
L 38.062654 214.92597 
L 38.854971 213.435137 
L 40.615293 213.162952 
L 42.396285 213.701137 
L 43.291948 214.666157 
L 42.723546 214.820807 
L 42.26538 215.21362 
L 41.52818 216.218849 
L 41.659085 217.069428 
L 44.180721 217.449868 
L 46.488776 218.01589 
L 47.343101 217.660193 
L 47.246644 216.215756 
L 46.468107 213.626904 
L 45.923819 210.369962 
L 45.606892 207.119205 
L 45.689569 206.246976 
L 46.068503 205.176793 
L 46.154625 204.521074 
L 46.082283 203.549868 
L 45.606892 201.644572 
L 45.224513 198.214421 
L 44.914476 196.590589 
L 44.304736 195.13378 
L 43.240275 194.27083 
L 41.721093 193.890389 
L 38.899754 193.813064 
L 36.863843 193.157345 
L 35.137969 191.505676 
L 31.296953 185.650603 
L 31.331401 185.112419 
L 32.227064 184.942303 
L 32.227064 184.465979 
L 31.414078 184.128841 
L 30.442628 184.045329 
L 29.495292 184.295863 
L 28.761537 184.942303 
L 28.275812 186.012486 
L 28.403272 186.726972 
L 29.660645 188.100269 
L 29.267931 188.196153 
L 29.009567 188.37864 
L 28.472169 189.139522 
L 29.450509 189.322009 
L 30.601091 190.085983 
L 31.565652 191.221119 
L 31.965255 192.53565 
L 31.420968 192.749068 
L 26.353582 188.443594 
L 25.320124 187.824991 
L 22.839827 187.357946 
L 22.188749 186.686762 
L 22.137076 185.557813 
L 24.517473 179.071765 
L 25.31668 176.13031 
L 25.847188 173.003274 
L 25.91953 169.922633 
L 23.897398 154.99266 
L 23.690707 154.222499 
L 23.566692 154.064756 
L 23.525353 153.702873 
L 23.566692 153.35027 
L 23.690707 153.189433 
L 23.945626 153.276038 
L 24.059306 153.470897 
L 24.131648 153.665757 
L 24.255663 153.752362 
L 24.531252 154.154453 
L 25.585378 159.984782 
L 26.343247 161.998334 
L 26.453483 162.839633 
L 26.353582 163.566491 
L 25.940199 164.608837 
L 25.847188 165.456322 
L 25.991872 166.498668 
L 26.353582 166.712085 
L 28.255143 165.629531 
L 30.277275 164.002606 
L 31.2315 163.659282 
L 32.881587 162.341658 
L 34.569568 160.550804 
L 34.807263 159.313599 
L 34.535119 157.995975 
L 33.942604 156.709282 
L 33.267411 155.549402 
L 31.682777 153.470897 
L 31.682777 151.114022 
L 31.200497 148.385984 
L 30.111922 146.641525 
L 28.644412 145.580622 
L 25.378687 144.08051 
L 24.493359 143.959883 
L 24.110979 144.600137 
L 24.152318 147.8478 
L 24.079976 149.38812 
L 23.821611 151.114022 
L 23.97663 152.379064 
L 23.86295 152.86776 
L 23.242875 152.669807 
L 23.067187 152.267715 
L 22.88461 151.475904 
L 22.726146 150.560372 
L 22.533234 145.04553 
L 22.664139 143.328908 
L 23.687262 138.57804 
L 23.821611 136.790279 
L 23.339331 110.474926 
L 23.518464 109.200604 
L 23.821611 107.89226 
L 25.723173 101.322701 
L 26.580942 99.284405 
L 27.211351 98.300827 
L 27.469716 98.501873 
L 27.638514 99.166871 
L 28.027783 99.544218 
L 27.996779 100.082403 
L 27.045998 102.547534 
L 26.715292 103.224904 
L 26.715292 103.74453 
L 26.977101 104.004343 
L 27.263024 104.143529 
L 28.027783 104.217761 
L 28.172467 104.542527 
L 28.33782 105.275571 
L 28.561736 106.008615 
L 28.906221 106.336475 
L 30.64243 106.648869 
L 31.107486 106.967449 
L 30.497746 107.332425 
L 30.652764 108.031446 
L 30.539084 109.256279 
L 30.787114 109.970765 
L 31.169493 110.270787 
L 31.500199 110.07902 
L 31.620769 109.56558 
L 31.36585 108.931512 
L 31.36585 108.411886 
L 32.69901 107.975771 
L 34.75559 107.920097 
L 36.636482 108.303631 
L 37.456359 109.191325 
L 37.849072 109.318139 
L 39.943546 111.006924 
L 40.529172 110.740925 
L 41.073459 110.082113 
L 41.52818 109.231535 
L 41.845107 108.411886 
L 42.106917 108.411886 
L 43.388404 111.984316 
L 43.422852 112.565802 
L 43.260944 112.887476 
L 43.326396 113.605055 
L 43.601985 114.316448 
L 44.294401 114.87319 
L 45.121167 115.943372 
L 45.606892 116.246488 
L 46.330312 116.234116 
L 48.913956 115.677373 
L 49.192989 115.538188 
L 49.42035 115.157747 
L 49.568479 114.573168 
L 49.627041 113.864868 
L 49.637376 112.754476 
L 49.692494 112.002874 
L 49.940523 110.443996 
L 50.123101 110.007881 
L 50.347017 109.831579 
L 50.436583 109.584138 
L 50.226446 108.931512 
L 48.913956 107.89226 
L 48.490238 107.852051 
L 48.169866 107.669563 
L 47.976954 107.279843 
L 47.914947 106.621032 
L 47.72548 105.946755 
L 47.005504 105.563221 
L 47.022729 104.783782 
L 47.584241 104.273435 
L 49.520251 104.143529 
L 52.252023 99.544218 
L 52.889322 99.169964 
L 54.628975 98.63178 
L 56.964588 98.52971 
L 57.047265 98.362687 
L 56.034477 97.98534 
L 54.184588 97.92348 
L 53.750536 97.499737 
L 54.14325 96.144997 
L 54.763324 94.954187 
L 55.266274 94.310841 
L 56.613213 93.31489 
L 58.614675 91.372478 
L 59.400103 91.189991 
L 59.861714 91.282781 
L 60.643697 91.669408 
L 61.119087 91.762198 
L 61.615146 91.626105 
L 61.873511 91.310618 
L 62.080202 90.948736 
L 62.417798 90.670365 
L 63.161888 90.642527 
L 64.133338 90.958015 
L 64.973883 91.588989 
L 65.335593 92.510707 
L 65.587068 94.28919 
L 66.179583 95.343907 
L 66.861665 96.089323 
L 67.381839 96.946088 
L 67.939905 98.548268 
L 66.761764 98.839011 
L 65.51817 100.812354 
L 64.443375 101.100004 
L 64.443375 101.666025 
L 64.615618 102.35886 
L 64.157452 103.030044 
L 62.999979 104.217761 
L 62.603821 105.294129 
L 62.555593 106.256056 
L 62.73128 108.671699 
L 63.051652 109.404743 
L 63.747513 109.281023 
L 64.443375 108.46756 
L 65.008331 105.980778 
L 65.635296 105.810662 
L 66.400054 105.96222 
L 67.068356 105.816848 
L 66.803102 105.08999 
L 66.462061 104.820898 
L 66.055568 104.913689 
L 65.624961 105.25392 
L 65.945333 104.424993 
L 66.276039 103.831134 
L 66.572297 103.175415 
L 66.778988 102.139256 
L 67.068356 102.139256 
L 66.813437 103.846599 
L 67.919236 104.106412 
L 69.428084 103.846599 
L 70.378865 103.976506 
L 70.954156 104.366225 
L 71.598344 104.236319 
L 72.180525 104.295086 
L 72.56635 105.25392 
L 72.442335 105.999336 
L 71.470885 107.412843 
L 71.085061 108.411886 
L 71.546672 108.597467 
L 71.636238 108.931512 
L 71.663797 109.392371 
L 71.953165 109.970765 
L 72.366548 110.388321 
L 73.427564 111.006924 
L 73.599807 111.322411 
L 73.703153 111.733782 
L 73.882285 112.058548 
L 74.295668 112.095665 
L 74.905408 110.824436 
L 75.163772 110.443996 
L 75.763178 111.000738 
L 76.279906 110.394507 
L 76.266127 109.43258 
L 75.318791 108.931512 
L 74.0063 109.710952 
L 73.923623 109.942928 
L 73.730711 110.010974 
L 73.28288 109.970765 
L 72.92117 109.763533 
L 72.897056 109.324325 
L 73.024516 108.959349 
L 73.138196 108.931512 
L 73.213983 106.107592 
L 73.909844 103.676484 
L 74.288778 101.523747 
L 74.285334 101.508282 
L 73.427564 99.544218 
L 73.014181 99.080266 
L 72.79371 98.907058 
L 71.953165 99.021499 
L 70.251405 99.800938 
L 69.831132 100.394797 
L 68.9148 100.979376 
L 68.019137 101.035051 
L 67.647093 100.060752 
L 68.122483 99.142127 
L 70.072272 97.963689 
L 70.513214 96.686275 
L 70.754354 95.622278 
L 70.668233 95.096466 
L 69.610662 94.725304 
L 69.176609 94.347957 
L 68.80801 93.843796 
L 68.518642 93.31489 
L 68.294726 92.813822 
L 68.053586 92.043662 
L 67.895122 91.137409 
L 67.939905 90.197134 
L 68.156932 89.9466 
L 69.128381 88.434116 
L 69.238617 88.075327 
L 69.438419 87.682514 
L 69.40397 86.801005 
L 69.204168 85.928776 
L 68.935469 85.529777 
L 68.43941 85.427708 
L 68.06392 85.167895 
L 67.381839 84.44413 
L 68.170711 82.54502 
L 68.963028 81.038723 
L 69.820798 79.810796 
L 71.133289 78.480801 
L 71.429546 78.307592 
L 71.746473 78.20243 
L 72.115073 78.1715 
L 72.338989 77.930245 
L 72.573239 76.853876 
L 72.711034 76.612621 
L 78.987565 74.540303 
L 80.386177 74.583605 
L 85.326103 76.612621 
L 85.326103 77.178642 
L 84.78526 77.534339 
L 84.747367 78.004477 
L 85.074628 78.449871 
L 85.64303 78.737521 
L 86.221766 78.68494 
L 86.635149 78.292127 
L 88.178445 75.879577 
L 88.877751 74.506279 
L 89.652844 73.420632 
L 91.313266 72.817494 
L 92.711878 71.942172 
L 94.737455 72.461798 
L 99.253663 71.942172 
L 96.749251 69.653342 
L 95.481544 69.183204 
L 94.623774 68.471811 
L 94.169053 68.307882 
L 93.828012 68.493462 
L 92.339833 70.48227 
L 91.526847 71.317383 
L 90.624294 71.738033 
L 89.831977 71.137988 
L 89.067219 70.377107 
L 88.261122 70.590525 
L 86.779833 71.942172 
L 85.074628 72.647379 
L 81.398965 72.703053 
L 71.712025 76.136297 
L 70.874924 76.216715 
L 70.072272 75.861019 
L 65.335593 71.942172 
L 65.604292 72.944308 
L 65.263251 73.457748 
L 63.868083 74.020676 
L 62.834626 74.787744 
L 62.293783 75.047557 
L 61.577253 75.059929 
L 61.842507 74.583605 
L 61.081194 74.101095 
L 60.350884 74.261931 
L 59.627464 74.837232 
L 58.928157 75.619764 
L 58.242631 75.545532 
L 57.374527 76.383738 
L 56.637327 77.293084 
L 56.323845 77.438456 
L 55.962135 76.420854 
L 55.121589 76.028042 
L 54.157029 76.130111 
L 53.433609 76.612621 
L 54.053684 77.271433 
L 52.517277 78.68494 
L 50.415914 79.779866 
L 48.907066 79.340658 
L 47.914947 79.554076 
L 46.922828 80.002563 
L 46.468107 80.553119 
L 46.237301 82.025394 
L 45.6689 82.922367 
L 45.000597 83.60283 
L 44.44942 84.44413 
L 44.20828 86.609239 
L 44.160052 86.782447 
L 44.08771 87.441259 
L 43.891353 87.8217 
L 43.612319 88.137187 
L 42.268825 90.197134 
L 41.314599 90.280645 
L 40.859878 90.494063 
L 40.666966 90.930178 
L 40.350039 91.236386 
L 39.654178 91.514757 
L 38.958317 92.034383 
L 38.64139 93.030333 
L 39.0031 95.606813 
L 38.961761 96.813088 
L 38.324463 97.515202 
L 38.324463 97.98534 
L 40.015888 97.815224 
L 40.405157 97.98534 
L 40.722084 98.910151 
L 40.467164 99.55659 
L 39.915987 99.940124 
L 39.36481 100.060752 
L 38.86875 99.903008 
L 37.876631 99.188522 
L 37.328899 99.021499 
L 36.822505 99.169964 
L 35.97507 99.856613 
L 35.437672 100.060752 
L 35.437672 100.626773 
L 37.456359 100.060752 
L 38.062654 100.255611 
L 38.951427 100.948446 
L 39.36481 101.100004 
L 42.351502 99.810217 
L 42.975021 100.060752 
L 43.092146 100.617494 
L 42.975021 102.065024 
L 42.975021 102.705277 
L 43.612319 103.7136 
L 43.898243 104.440458 
L 43.271279 105.557035 
L 42.837226 106.092127 
L 42.268825 106.336475 
L 41.66942 106.429265 
L 41.297375 106.67052 
L 41.314599 106.992193 
L 41.845107 107.332425 
L 40.987338 107.350983 
L 39.809196 106.268428 
L 38.772294 104.876572 
L 38.324463 103.976506 
L 37.938639 102.844463 
L 36.987858 101.932024 
L 35.799382 101.322701 
L 34.714252 101.100004 
L 33.963273 100.701005 
L 33.06761 99.735985 
L 32.233954 98.56064 
L 31.682777 97.515202 
L 31.210831 94.774793 
L 30.942132 94.354143 
L 30.366841 94.15619 
L 29.17492 93.370565 
L 28.472169 93.31489 
L 29.081909 96.11716 
L 29.298935 97.75955 
L 29.195589 98.789523 
L 28.56518 98.894686 
L 28.244809 97.295598 
L 28.155242 93.788121 
L 28.651302 90.651806 
L 29.602083 88.310396 
L 37.194549 76.092995 
L 39.475045 73.760863 
L 42.975021 68.307882 
L 44.318515 67.055211 
L 45.834253 67.083049 
L 49.361787 68.307882 
L 51.34258 68.428509 
L 55.169817 67.568652 
L 56.871577 66.708794 
L 58.904043 64.494197 
L 59.661912 64.153965 
L 70.251405 65.669542 
L 74.099311 65.217962 
L 77.933438 63.81992 
L 81.560873 61.419742 
L 84.754257 57.930823 
L 93.862461 41.482181 
L 95.471209 39.153143 
L 98.389004 35.98899 
L 99.849624 33.260953 
L 100.411135 32.877419 
L 101.420479 31.442261 
L 103.470169 31.043263 
L 107.376638 31.321634 
L 111.183206 30.693752 
L 114.652178 29.196734 
L 117.659538 27.062555 
L 122.819936 21.894131 
L 125.637829 19.852742 
L 126.781522 19.425907 
L 128.04923 19.296 
L 129.275599 19.574371 
L 130.288387 20.372368 
L 127.980333 21.216761 
L 125.782513 23.267429 
L 122.310097 28.46369 
L 121.038944 33.025884 
L 122.22053 36.452942 
L 124.363232 39.601629 
L 125.954756 43.307059 
L 124.721497 46.650606 
L 124.742166 50.612755 
L 125.637829 58.400961 
L 124.914409 59.53919 
L 122.751038 61.104255 
L 121.73136 62.34146 
L 120.236292 65.415915 
L 119.5611 67.482047 
L 119.075375 70.754455 
L 118.024693 74.410396 
L 117.514854 75.619764 
L 117.156589 76.148669 
L 116.812103 76.445598 
L 116.350493 76.584784 
L 114.352475 76.556947 
L 113.73929 76.711598 
L 112.967642 76.940481 
L 109.422883 74.583605 
L 106.797902 71.7968 
L 105.051359 71.094686 
L 103.638967 69.6719 
L 102.59173 69.347134 
L 101.737406 69.820365 
L 100.538595 71.744219 
L 99.725609 71.942172 
L 100.511036 72.038055 
L 101.403254 70.906012 
L 102.147344 70.386386 
L 102.901768 70.018318 
L 103.776761 70.383293 
L 107.951929 74.713511 
L 109.336762 75.387788 
L 110.962735 76.84769 
L 111.892847 77.178642 
L 115.310145 77.262154 
L 116.099018 77.698269 
L 114.910542 79.155078 
L 114.652178 79.776773 
L 114.448931 80.782002 
L 114.218126 82.854321 
L 114.073442 83.411063 
L 114.380034 84.654454 
L 114.841645 88.533093 
L 115.024222 91.588989 
L 115.323925 93.203542 
L 116.364272 96.426461 
L 116.722537 96.933716 
L 117.13592 97.379109 
L 117.235821 97.880177 
L 116.65364 98.548268 
L 116.309154 98.573012 
L 115.31359 98.112153 
L 114.779637 97.98534 
L 112.874631 97.98534 
L 112.209773 98.279176 
L 111.44846 99.021499 
L 110.735374 98.269897 
L 109.936167 97.676039 
L 109.019835 97.499737 
L 107.951929 97.98534 
L 107.008038 98.733849 
L 106.611879 98.891593 
L 105.929798 99.021499 
L 105.289054 99.333894 
L 103.983453 100.394797 
L 102.433267 100.951539 
L 100.514481 102.380511 
L 94.603105 103.224904 
L 94.603105 103.74453 
L 96.525336 104.084761 
L 102.881098 102.139256 
L 104.296935 101.263934 
L 104.917009 101.100004 
L 105.058249 100.936074 
L 105.082363 100.580378 
L 105.165039 100.224681 
L 105.478521 100.060752 
L 105.823007 100.150449 
L 106.387964 100.540168 
L 106.653218 100.626773 
L 107.107939 100.515424 
L 107.628113 100.209216 
L 108.05872 99.78238 
L 108.241297 99.284405 
L 108.523776 98.257525 
L 109.192078 98.102874 
L 110.580356 98.548268 
L 110.473565 98.826639 
L 110.259984 99.544218 
L 110.997183 99.686497 
L 113.060653 100.082403 
L 114.820976 99.97724 
L 115.954334 99.284405 
L 116.967122 98.907058 
L 117.75255 100.580378 
L 117.959241 103.094997 
L 117.225486 105.25392 
L 114.373144 107.431401 
L 112.271781 109.794463 
L 111.892847 109.970765 
L 111.593144 112.442082 
L 111.44846 113.134917 
L 111.768832 113.997867 
L 111.572475 115.089701 
L 111.093639 116.098023 
L 110.580356 116.716626 
L 111.882512 116.648579 
L 112.368237 116.246488 
L 112.316564 113.366893 
L 112.450913 111.279109 
L 112.878076 110.267694 
L 114.652178 108.931512 
L 116.054235 107.057147 
L 116.801769 106.556079 
L 117.673318 107.112821 
L 117.824892 107.595331 
L 118.052252 109.225349 
L 118.093591 109.710952 
L 118.279613 109.961486 
L 119.533541 111.006924 
L 122.7097 112.813244 
L 126.164893 113.218428 
L 136.220433 111.637899 
L 137.625934 111.798735 
L 139.010767 112.565802 
L 139.641176 113.283381 
L 141.00534 115.677373 
L 143.630322 118.321899 
L 143.630322 118.79513 
L 142.648537 119.76015 
L 142.121474 121.510796 
L 141.911338 123.533626 
L 141.873444 125.327573 
L 141.408388 127.016358 
L 137.512254 132.574503 
L 135.538351 133.938521 
L 134.794261 134.977774 
L 134.566901 135.986096 
L 134.677136 138.349158 
L 134.084621 140.662731 
L 132.748016 140.941102 
L 131.273617 139.852362 
L 130.288387 138.089344 
L 131.376962 137.903764 
L 131.824794 137.492393 
L 132.045265 136.530466 
L 131.92814 135.515958 
L 131.500977 135.206657 
L 130.9498 135.10768 
L 130.443406 134.71796 
L 129.427173 134.352985 
L 128.376491 135.608748 
L 127.422266 137.266603 
L 126.064992 138.862598 
L 126.361249 140.631801 
L 126.919316 142.568027 
L 127.105339 143.848534 
L 126.691956 144.380533 
L 126.016764 144.711485 
L 125.296788 144.794996 
L 124.769725 144.600137 
L 124.342563 143.969162 
L 123.92229 142.512353 
L 123.612253 141.77003 
L 123.949849 141.408147 
L 124.666379 140.885428 
L 125.059093 140.730777 
L 124.755946 139.883292 
L 124.383901 139.478107 
L 122.633913 138.949202 
L 122.248089 139.023434 
L 121.304198 139.64513 
L 120.119167 139.877106 
L 119.388857 139.283247 
L 118.744669 138.219251 
L 117.831781 137.050092 
L 118.775672 136.954209 
L 120.191509 135.800515 
L 120.987271 135.4974 
L 121.586676 135.942794 
L 122.320431 136.734605 
L 123.043851 137.028441 
L 123.612253 135.967538 
L 122.895722 134.755077 
L 122.94395 133.808615 
L 124.184099 131.293995 
L 123.612253 131.303274 
L 123.002513 131.055833 
L 122.444446 130.604253 
L 122.020729 130.022767 
L 121.555673 129.70728 
L 120.460208 130.22072 
L 119.878027 129.73821 
L 119.719563 130.755811 
L 119.488758 131.389879 
L 119.116713 131.720831 
L 118.527643 131.813621 
L 118.217605 132.221899 
L 117.080802 134.71796 
L 116.047345 136.054142 
L 113.759959 137.947066 
L 112.733392 139.385317 
L 112.140876 141.166892 
L 112.423355 142.280377 
L 113.122661 143.319629 
L 113.784073 144.881601 
L 114.063107 146.805455 
L 113.887419 148.271543 
L 113.367246 149.601538 
L 112.602487 151.114022 
L 113.61872 150.612954 
L 114.36281 150.520163 
L 114.566056 151.058347 
L 113.50504 153.455432 
L 113.401694 154.426638 
L 113.470591 156.347399 
L 113.432698 157.674302 
L 113.370691 158.258881 
L 113.205337 158.899135 
L 112.189104 160.244596 
L 112.027196 160.78278 
L 111.820504 160.779687 
L 111.362338 161.082802 
L 110.869724 161.55294 
L 110.580356 162.007613 
L 110.790492 162.202473 
L 111.097084 162.950982 
L 111.258993 163.755165 
L 110.886948 164.305721 
L 110.749154 164.676883 
L 110.528683 165.051137 
L 110.129079 165.21816 
L 109.608906 165.078975 
L 109.212747 164.713999 
L 108.554779 163.659282 
L 108.365312 163.167493 
L 108.241297 162.604564 
L 108.05872 162.041636 
L 107.666006 161.540568 
L 107.128608 161.348801 
L 103.015448 161.540568 
L 102.467716 161.732335 
L 102.126675 162.183915 
L 101.861421 162.703541 
L 101.568608 163.09326 
L 100.469698 163.538654 
L 98.23743 163.402562 
L 97.207418 163.659282 
L 98.271879 164.856278 
L 104.327939 166.211017 
L 104.755101 166.551249 
L 104.603527 167.352339 
L 103.904221 168.901939 
L 103.552846 170.228841 
L 103.656191 170.81342 
L 104.245262 170.952606 
L 105.351061 170.924769 
L 105.351061 171.450581 
L 103.614853 172.45581 
L 103.108459 173.309482 
L 103.590739 174.562152 
L 103.432276 174.692059 
L 103.039562 175.128173 
L 102.043998 174.497199 
L 97.39344 175.879776 
L 95.274852 177.039655 
L 94.024369 177.154097 
L 91.430391 176.114844 
L 89.935323 174.772477 
L 89.549499 174.562152 
L 85.167639 174.537408 
L 84.17552 174.042526 
L 84.041171 174.333269 
L 83.961939 174.543594 
L 83.917156 174.772477 
L 83.886152 175.128173 
L 84.768036 175.558102 
L 87.81329 175.601404 
L 88.364468 175.944729 
L 90.555397 178.242837 
L 91.006674 179.145997 
L 91.313266 179.962552 
L 91.740428 180.556411 
L 92.580974 180.788387 
L 96.628681 180.788387 
L 95.936265 181.657523 
L 93.738446 183.426727 
L 92.560304 184.973233 
L 91.988458 185.372232 
L 91.003229 185.505231 
L 90.644963 185.833091 
L 90.569177 186.544484 
L 90.555397 187.255877 
L 90.410713 187.580643 
L 87.744393 188.264199 
L 86.779833 188.975592 
L 86.194207 189.139522 
L 85.684368 189.018894 
L 84.733587 188.598244 
L 84.17552 188.619895 
L 84.285756 188.93229 
L 84.464888 189.139522 
L 83.851704 190.027216 
L 82.284293 190.553028 
L 81.571208 191.218026 
L 82.315297 191.697443 
L 83.111059 191.644862 
L 85.195198 191.08812 
L 85.581022 190.849958 
L 85.987516 190.735516 
L 88.433365 192.090256 
L 88.605608 192.94702 
L 88.42303 193.986273 
L 87.957974 194.895618 
L 87.379238 195.300803 
L 85.946177 195.597732 
L 85.326103 195.931778 
L 85.550019 196.77617 
L 86.070192 197.926771 
L 86.221766 198.529909 
L 86.104641 199.38358 
L 85.856611 200.042392 
L 85.922063 200.608413 
L 86.779833 201.168249 
L 87.303451 201.666224 
L 87.802956 202.371431 
L 87.930415 203.116847 
L 87.351679 203.716891 
L 87.351679 204.282912 
L 87.785731 204.787074 
L 89.353142 207.546041 
L 89.873315 207.774924 
L 90.376264 208.272899 
L 90.555397 209.519383 
L 90.396934 210.407078 
L 90.097231 210.954541 
L 89.818198 211.622632 
L 89.687293 212.847465 
L 89.459932 213.404207 
L 88.915645 213.793927 
L 88.247342 214.02281 
L 87.668606 214.100135 
L 85.181419 213.626904 
L 84.609573 213.787741 
L 84.258197 214.192926 
L 83.979164 214.697087 
L 83.596784 215.185783 
L 82.577106 215.847688 
L 81.957032 216.113687 
L 81.416189 216.218849 
L 81.075148 216.546708 
L 81.075148 217.217892 
L 81.426524 217.774635 
L 82.156834 217.774635 
L 82.156834 218.297354 
L 80.909795 218.254052 
L 80.331059 218.405609 
L 79.81433 218.866468 
L 80.241493 219.194327 
L 80.772001 219.324234 
L 81.994925 219.336606 
L 82.556437 219.614977 
L 83.169622 220.298533 
L 84.17552 221.931644 
L 83.080056 223.419383 
L 82.356635 224.12459 
L 81.571208 224.569984 
L 79.638643 224.975168 
L 78.873884 225.569027 
L 79.235594 226.645395 
L 79.759213 226.66086 
L 82.156834 225.658724 
L 83.235074 225.732957 
L 83.596784 225.658724 
L 83.906821 225.411283 
L 84.203079 225.046308 
L 84.554455 224.715355 
L 85.036735 224.569984 
L 85.953067 224.972075 
L 87.658272 226.923767 
L 88.53671 227.684648 
L 90.861989 228.33418 
L 91.430391 228.770295 
L 91.754208 229.877594 
L 92.691209 235.646063 
L 92.794555 235.989387 
L 92.725658 236.221363 
L 92.319164 236.555409 
L 91.688755 236.573967 
L 91.092795 236.202805 
L 90.603625 236.131666 
L 90.266029 237.075035 
L 90.796537 237.257522 
L 91.299486 237.585382 
L 91.719759 238.036962 
L 92.002237 238.587518 
L 92.164146 239.227772 
L 92.246822 240.10928 
L 92.064245 240.88872 
L 91.440726 241.228951 
L 90.948111 240.901092 
L 90.345261 239.478306 
L 89.976661 239.150446 
L 88.216339 239.286539 
L 87.668606 239.150446 
L 86.872844 238.66175 
L 86.931407 238.358635 
L 87.275892 238.067892 
L 87.351679 237.594661 
L 86.604145 236.462618 
L 86.325112 235.779062 
L 86.628259 235.469761 
L 87.758173 235.015088 
L 87.530812 234.142859 
L 86.521469 233.539721 
L 85.326103 233.917069 
L 85.091853 234.368648 
L 84.533786 235.915155 
L 84.058395 236.759547 
L 83.793141 237.337941 
L 83.596784 237.594661 
L 83.276413 237.702916 
L 82.590886 237.597754 
L 82.294628 237.854474 
L 81.571208 238.735983 
L 79.807441 240.294861 
L 79.235594 241.228951 
L 78.956561 242.831132 
L 79.007913 242.834205 
L 78.983328 242.854515 
L 78.357707 243.07449 
L 77.640212 242.988072 
L 76.787093 242.151381 
L 76.021473 242.332074 
L 75.557727 242.764168 
L 74.953981 242.937006 
L 74.542734 243.380884 
L 73.908363 243.502656 
L 70.819635 243.490872 
L 70.071515 243.176622 
L 69.760892 242.273152 
L 69.634018 241.212558 
L 69.441519 240.446574 
L 68.732774 239.794505 
L 59.755337 237.594754 
L 56.43036 236.180629 
L 53.048509 235.575697 
L 52.059766 235.732822 
L 49.176661 236.856266 
L 47.614797 236.78556 
L 46.128734 236.304611 
" clip-path="url(#pba2a3e3a86)" style="fill: #f5f5f5; stroke: #000000"/>
    <path d="M 180.927797 248.800646 
L 180.445517 249.360482 
L 180.011465 249.546063 
L 179.635976 249.805876 
L 179.308714 250.619338 
L 180.97947 251.392591 
L 180.817562 253.034981 
L 179.467178 254.640255 
L 177.579396 255.289787 
L 170.992827 253.780397 
L 168.857016 254.29693 
L 166.831439 255.289787 
L 165.22958 256.84248 
L 164.275355 256.672364 
L 160.334437 254.225791 
L 157.750794 251.868915 
L 153.096791 248.775902 
L 150.998873 248.293392 
L 148.732156 247.189187 
L 146.441326 246.616979 
L 145.542218 245.781866 
L 145.115055 244.631265 
L 145.390644 243.347665 
L 146.45166 242.701225 
L 147.743482 242.917736 
L 148.945737 242.81876 
L 149.72772 241.228951 
L 149.042193 240.962952 
L 148.466902 240.499 
L 146.21741 237.585382 
L 145.945266 237.075035 
L 145.945266 235.76669 
L 146.520557 234.560415 
L 148.28088 232.361283 
L 148.880285 232.667491 
L 154.957014 231.368426 
L 155.987027 231.87568 
L 157.995379 233.558279 
L 158.739468 233.917069 
L 159.493892 234.569694 
L 160.765045 237.461661 
L 161.774388 238.114287 
L 162.790621 238.355542 
L 170.324525 242.781643 
L 169.918032 241.457834 
L 169.428862 240.635092 
L 169.394413 239.979374 
L 170.324525 239.150446 
L 171.481997 239.150446 
L 172.508565 238.655564 
L 172.928838 238.587518 
L 172.546458 237.761684 
L 172.443113 236.812129 
L 172.508565 235.850202 
L 172.639469 234.99653 
L 175.870746 238.049334 
L 176.132555 239.150446 
L 177.135009 240.499 
L 177.772308 241.018626 
L 178.475059 241.228951 
L 178.047896 241.649601 
L 177.868764 241.748577 
L 178.488838 243.103317 
L 180.61087 244.93438 
L 181.072481 245.664331 
L 181.186162 246.907723 
L 181.361849 247.467558 
L 181.361849 247.912952 
L 180.927797 248.800646 
" clip-path="url(#pba2a3e3a86)" style="fill: #f5f5f5; stroke: #000000"/>
    <path d="M 121.876044 236.038875 
L 122.571906 236.740989 
L 123.378002 237.263708 
L 123.949849 237.956543 
L 123.92918 239.150446 
L 124.328783 239.450469 
L 124.769725 239.673165 
L 121.448882 240.471163 
L 120.53944 241.510415 
L 120.015821 241.748577 
L 119.051261 241.287718 
L 111.768832 233.032467 
L 111.07986 231.322031 
L 110.828385 230.134314 
L 111.44846 230.8488 
L 115.041447 232.927304 
L 116.099018 233.917069 
L 117.094582 235.574923 
L 117.6182 236.273944 
L 118.238275 236.555409 
L 118.879018 236.552316 
L 119.385412 236.369828 
L 119.574879 235.760504 
L 119.278622 234.479997 
L 119.881472 235.38625 
L 120.394756 237.659614 
L 120.852922 238.114287 
L 121.73136 238.123566 
L 122.330766 237.962729 
L 122.444446 237.356499 
L 121.876044 236.038875 
" clip-path="url(#pba2a3e3a86)" style="fill: #f5f5f5; stroke: #000000"/>
    <path d="M 205.138258 226.125769 
L 208.844925 226.920674 
L 210.236648 228.24139 
L 210.91873 230.8488 
L 210.836053 231.677727 
L 210.450229 232.135493 
L 209.754368 232.324167 
L 208.762249 232.361283 
L 203.760315 231.22924 
L 202.227353 231.461216 
L 200.770179 232.157144 
L 199.333673 233.397442 
L 197.080736 236.583246 
L 196.274639 237.075035 
L 195.044825 236.861617 
L 192.347501 235.469761 
L 192.347501 234.99653 
L 192.946906 234.99653 
L 192.757439 234.220184 
L 192.936572 233.620139 
L 193.329286 233.193304 
L 193.790897 232.921118 
L 193.577315 232.695328 
L 193.174267 232.10147 
L 192.946906 231.888052 
L 193.887353 230.78694 
L 194.43853 230.502382 
L 194.972483 230.8488 
L 195.28252 230.282778 
L 194.972483 229.243526 
L 195.654565 229.308479 
L 196.677687 230.044616 
L 197.308096 230.282778 
L 197.731814 230.199267 
L 199.109757 229.605409 
L 199.623041 229.243526 
L 199.39568 228.491924 
L 199.385346 227.879507 
L 199.571368 227.424835 
L 199.933078 227.165022 
L 199.933078 226.645395 
L 198.55169 225.624701 
L 198.176201 225.08961 
L 197.959175 224.328729 
L 198.103859 223.80601 
L 198.568914 223.536917 
L 199.333673 223.536917 
L 200.25345 225.225702 
L 201.672731 225.893793 
L 205.138258 226.125769 
" clip-path="url(#pba2a3e3a86)" style="fill: #f5f5f5; stroke: #000000"/>
    <path d="M 103.301371 230.282778 
L 103.914556 231.479774 
L 105.574977 236.722431 
L 105.547418 237.467847 
L 104.954903 237.631777 
L 103.749203 237.594661 
L 103.118794 237.937985 
L 102.292028 238.615355 
L 101.465262 239.100958 
L 100.855522 238.865889 
L 100.159661 238.234915 
L 98.209871 237.597754 
L 97.496786 237.075035 
L 97.496786 236.555409 
L 98.623254 235.970829 
L 99.952969 236.570874 
L 101.289574 237.548266 
L 102.460826 238.114287 
L 102.460826 237.594661 
L 100.435249 235.748132 
L 98.513019 235.036739 
L 98.075522 234.99653 
L 97.651804 235.163553 
L 97.042064 235.791434 
L 96.628681 236.038875 
L 94.97515 235.942992 
L 93.545534 234.745996 
L 92.711878 232.751003 
L 92.846228 230.282778 
L 92.580974 230.282778 
L 92.580974 229.809548 
L 93.517975 230.486917 
L 94.523873 231.677727 
L 95.512548 232.568515 
L 96.363427 232.361283 
L 96.184295 232.092191 
L 95.905261 231.572565 
L 95.739908 231.071497 
L 95.905261 230.8488 
L 96.136067 230.681777 
L 95.843254 230.310616 
L 94.086376 229.017736 
L 93.793563 228.411506 
L 94.313737 227.684648 
L 94.313737 227.165022 
L 90.989449 227.489788 
L 90.410713 227.424835 
L 89.99044 227.090789 
L 89.477157 227.013464 
L 89.02588 226.821697 
L 88.79852 226.125769 
L 88.950093 225.788631 
L 89.7493 225.170028 
L 89.976661 224.569984 
L 89.198123 224.6071 
L 88.495372 224.885471 
L 87.81329 225.012285 
L 87.08987 224.569984 
L 87.08987 224.010148 
L 90.824096 222.172899 
L 92.319164 221.931644 
L 94.076042 222.284247 
L 96.597678 225.374167 
L 97.941172 226.125769 
L 99.815175 226.431977 
L 101.165559 227.279463 
L 102.250689 228.593993 
L 103.301371 230.282778 
" clip-path="url(#pba2a3e3a86)" style="fill: #f5f5f5; stroke: #000000"/>
    <path d="M 139.010767 225.08961 
L 139.307025 222.943059 
L 140.726307 219.185048 
L 142.366059 216.286895 
L 143.31684 216.738475 
L 141.294708 226.125769 
L 140.488611 228.621831 
L 138.280457 233.193304 
L 134.187966 247.244861 
L 133.774583 248.182044 
L 133.192402 248.50681 
L 132.189949 248.543926 
L 131.683555 247.820161 
L 130.605314 243.347665 
L 130.143703 242.515644 
L 129.575302 241.84446 
L 128.262811 240.712418 
L 129.289379 240.638186 
L 129.947346 240.341256 
L 130.481299 239.701003 
L 131.149602 238.587518 
L 131.542316 237.313197 
L 131.790345 236.948221 
L 132.189949 237.334848 
L 132.40353 237.455475 
L 133.485215 237.075035 
L 133.388759 236.323433 
L 133.202737 235.469761 
L 132.830692 235.79762 
L 132.465537 235.905876 
L 132.107272 235.79762 
L 131.728338 235.469761 
L 132.324298 233.64179 
L 133.223406 232.287051 
L 135.586579 229.444572 
L 136.606257 228.683691 
L 139.010767 225.08961 
" clip-path="url(#pba2a3e3a86)" style="fill: #f5f5f5; stroke: #000000"/>
    <path d="M 320.878592 218.297354 
L 320.67879 218.674701 
L 320.589224 218.934514 
L 320.496212 219.138653 
L 320.299855 219.336606 
L 320.609893 220.450091 
L 320.723573 221.155298 
L 320.596113 221.801737 
L 320.155171 222.732734 
L 319.245729 224.269961 
L 318.98392 225.02775 
L 319.142383 225.658724 
L 319.142383 226.125769 
L 319.264297 227.032154 
L 318.59171 227.828165 
L 318.140158 228.482613 
L 317.546698 229.058446 
L 315.472407 228.473042 
L 313.745579 228.345786 
L 311.391812 227.382046 
L 308.485466 225.517085 
L 305.193266 224.536356 
L 301.752741 221.643994 
L 301.101606 220.719054 
L 301.646486 219.099434 
L 301.831973 215.903362 
L 302.01455 211.270029 
L 302.162679 210.496775 
L 302.514054 209.664755 
L 303.34082 208.152272 
L 303.681861 207.020229 
L 303.978119 205.711884 
L 304.350164 204.913887 
L 304.9289 205.322165 
L 306.637549 207.867714 
L 307.230065 208.529619 
L 308.181347 209.556184 
L 309.77237 210.694728 
L 311.372082 212.019119 
L 312.538511 211.756439 
L 313.344688 211.993794 
L 314.037104 213.521742 
L 314.491825 214.100135 
L 315.015444 214.449646 
L 318.049442 216.672631 
L 320.041491 217.366357 
L 320.878592 218.297354 
" clip-path="url(#pba2a3e3a86)" style="fill: #f5f5f5; stroke: #000000"/>
    <path d="M 38.324463 202.164199 
L 37.277226 202.59722 
L 36.161092 201.397131 
L 35.189642 199.535138 
L 33.859927 195.931778 
L 33.577449 194.289388 
L 34.004611 193.206833 
L 35.437672 192.817114 
L 35.596135 195.075013 
L 36.298886 195.467826 
L 37.160101 195.316268 
L 37.773285 195.931778 
L 37.759506 196.822565 
L 37.215218 198.52063 
L 37.328899 199.281511 
L 37.649271 200.116624 
L 37.945528 201.536317 
L 38.324463 202.164199 
" clip-path="url(#pba2a3e3a86)" style="fill: #f5f5f5; stroke: #000000"/>
    <path d="M 131.022142 223.536917 
L 129.124025 223.536917 
L 128.41783 223.666824 
L 127.628957 224.050358 
L 126.898647 224.631844 
L 126.371584 225.374167 
L 125.603381 226.162885 
L 124.697383 226.042258 
L 123.033517 225.08961 
L 120.201844 224.854541 
L 119.278622 224.569984 
L 118.868684 224.279241 
L 118.537977 223.935916 
L 118.165933 223.654452 
L 117.673318 223.536917 
L 116.615747 223.64208 
L 116.05768 223.583313 
L 112.733392 221.412018 
L 111.507022 221.300669 
L 111.183206 221.879063 
L 111.159092 223.536917 
L 110.518348 223.035849 
L 109.522784 221.83576 
L 108.820033 221.412018 
L 107.951929 221.39346 
L 106.353515 221.811016 
L 105.609426 221.412018 
L 108.854482 218.860282 
L 109.422883 217.774635 
L 108.689129 216.695173 
L 108.158621 215.451782 
L 107.600554 214.452739 
L 106.797902 214.100135 
L 106.160603 214.288809 
L 105.678323 214.56718 
L 105.182263 214.758947 
L 104.482957 214.666157 
L 103.521842 213.654741 
L 102.970665 213.422765 
L 102.460826 214.100135 
L 102.584841 215.287852 
L 104.05235 217.598333 
L 103.904221 218.866468 
L 103.694085 218.962351 
L 102.205906 218.711817 
L 102.095671 218.495307 
L 102.157678 218.186005 
L 102.147344 217.774635 
L 102.267914 217.830309 
L 102.385039 217.5241 
L 102.343701 216.880754 
L 101.730516 215.195062 
L 101.63406 214.381599 
L 101.730516 213.580509 
L 102.00266 212.847465 
L 101.950987 212.244328 
L 101.299909 211.839143 
L 99.601594 211.399935 
L 99.067641 211.053518 
L 98.59225 210.626682 
L 98.389004 210.25552 
L 98.299438 209.841057 
L 97.906724 209.154408 
L 97.810268 208.696642 
L 97.906724 208.23269 
L 98.299438 207.546041 
L 98.389004 207.119205 
L 98.299438 206.284092 
L 97.906724 204.951003 
L 97.810268 204.521074 
L 97.941172 201.904386 
L 97.50712 201.564154 
L 96.845708 201.50848 
L 95.615893 201.644572 
L 95.054381 201.421876 
L 94.454976 200.877505 
L 93.424964 199.51658 
L 94.138049 199.244395 
L 94.930367 199.145418 
L 95.626228 198.860861 
L 96.049945 198.010282 
L 93.738446 196.97103 
L 94.086376 197.045262 
L 95.181841 196.97103 
L 94.744344 196.080242 
L 93.972696 195.597732 
L 92.291605 195.365756 
L 91.69909 195.115222 
L 90.266029 193.293438 
L 90.266029 192.817114 
L 91.399387 193.342926 
L 92.594753 194.406922 
L 93.772894 195.189455 
L 94.868359 194.895618 
L 90.686302 191.097399 
L 89.115447 190.744795 
L 89.439263 189.956077 
L 89.845756 189.64059 
L 90.321147 189.473567 
L 90.872324 189.139522 
L 92.453514 187.061017 
L 94.737455 186.593972 
L 95.512548 186.736251 
L 95.657232 187.138342 
L 95.677901 187.775503 
L 96.049945 188.619895 
L 98.085856 189.755031 
L 100.290565 188.953941 
L 104.482957 186.024858 
L 109.956836 184.162864 
L 111.820504 182.764822 
L 112.864296 182.393661 
L 114.001099 182.310149 
L 114.338696 182.393661 
L 114.366254 182.622544 
L 114.631508 183.702005 
L 114.652178 183.946353 
L 115.248138 183.720563 
L 115.396267 183.145263 
L 115.255028 181.589477 
L 115.840654 181.428641 
L 117.14281 182.047243 
L 120.064049 184.110283 
L 120.725462 184.942303 
L 121.24908 185.876393 
L 121.621125 186.374368 
L 122.020729 186.593972 
L 122.795822 186.689855 
L 123.498573 186.958948 
L 124.78006 187.874479 
L 124.087643 187.589922 
L 123.426231 187.589922 
L 122.937061 187.985828 
L 122.744149 188.879708 
L 122.899167 189.213754 
L 123.522687 189.724101 
L 123.612253 190.178774 
L 123.391782 190.812842 
L 123.043851 190.98605 
L 122.620134 191.013887 
L 122.165413 191.218026 
L 120.580778 193.547065 
L 121.276639 194.8152 
L 122.778597 194.744061 
L 123.612253 193.055276 
L 124.087643 193.185182 
L 126.815971 191.734559 
L 128.41783 191.218026 
L 128.603852 190.979864 
L 128.521175 190.460238 
L 128.314484 189.940612 
L 128.118127 189.705543 
L 127.739193 189.603473 
L 127.332699 189.34366 
L 126.991658 188.99415 
L 126.815971 188.619895 
L 126.939986 187.951805 
L 127.467049 188.202339 
L 128.028561 188.790011 
L 128.262811 189.139522 
L 128.800209 188.295129 
L 128.662414 187.098133 
L 128.252476 185.761951 
L 127.973443 184.465979 
L 128.180134 184.81549 
L 128.834657 185.505231 
L 128.851882 184.224724 
L 128.572848 182.337986 
L 128.579738 181.827639 
L 129.385835 181.781244 
L 130.625983 183.20403 
L 132.624001 186.593972 
L 132.706677 187.079575 
L 132.748016 187.756945 
L 132.841027 188.360082 
L 133.058053 188.619895 
L 133.161399 188.786918 
L 134.063951 189.705543 
L 134.33265 190.754074 
L 134.243084 191.366491 
L 133.85037 191.793327 
L 132.617111 192.609882 
L 130.650097 193.479019 
L 127.725413 193.200647 
L 127.001993 193.361484 
L 126.499044 193.813064 
L 126.271683 194.781177 
L 126.664397 195.263687 
L 127.346479 195.291524 
L 127.973443 194.895618 
L 127.777086 194.502806 
L 127.732303 194.261551 
L 128.045785 193.482112 
L 128.882885 193.69553 
L 131.728338 194.375992 
L 132.362192 194.957479 
L 136.540804 201.168249 
L 136.812948 201.836339 
L 137.884299 205.118026 
L 138.135773 206.358324 
L 137.822291 206.358324 
L 137.322787 205.554141 
L 136.551139 205.034515 
L 135.848388 205.244839 
L 135.538351 206.599579 
L 135.779491 207.530576 
L 136.909404 209.386384 
L 137.247 210.515333 
L 137.326232 212.151537 
L 137.219441 213.654741 
L 136.936963 214.938342 
L 136.292774 216.494127 
L 136.16876 217.060149 
L 136.117087 218.581911 
L 135.979292 218.98091 
L 134.938945 220.419161 
L 134.539342 221.347064 
L 134.256864 222.213108 
L 133.874484 222.961617 
L 133.202737 223.536917 
L 132.686008 223.666824 
L 131.022142 223.536917 
" clip-path="url(#pba2a3e3a86)" style="fill: #f5f5f5; stroke: #000000"/>
    <path d="M 213.543711 176.114844 
L 216.00334 182.393661 
L 216.034344 182.718427 
L 214.546165 184.465979 
L 213.901977 184.667025 
L 213.119994 185.149535 
L 212.406908 185.752672 
L 211.945297 186.309415 
L 211.028965 186.578507 
L 210.119523 185.146442 
L 209.513228 183.061751 
L 209.499448 181.354408 
L 209.957614 180.389388 
L 210.505347 179.746042 
L 211.049634 179.244973 
L 211.497466 178.709882 
L 211.952187 177.76342 
L 212.668717 175.870496 
L 213.233674 175.128173 
L 213.409362 175.582846 
L 213.474814 175.786985 
L 213.543711 176.114844 
" clip-path="url(#pba2a3e3a86)" style="fill: #f5f5f5; stroke: #000000"/>
    <path d="M 126.499044 162.573634 
L 127.07778 161.617893 
L 127.415376 160.427083 
L 127.380927 159.134204 
L 126.815971 157.859883 
L 126.040878 157.293861 
L 125.183108 156.9227 
L 124.635376 156.115423 
L 124.769725 154.222499 
L 125.203777 153.229642 
L 125.844521 152.561552 
L 126.388808 152.728574 
L 126.70229 155.917471 
L 127.380927 157.235094 
L 128.335153 158.091859 
L 129.413393 158.425904 
L 129.037904 159.177506 
L 128.869106 159.984782 
L 128.910444 160.785873 
L 129.124025 161.540568 
L 129.854335 162.586006 
L 130.360729 162.282891 
L 130.722439 161.472522 
L 131.022142 161.020942 
L 131.149602 161.528196 
L 130.546752 162.64168 
L 129.413393 164.132513 
L 129.203257 165.50581 
L 129.24804 168.042081 
L 128.834657 169.372076 
L 127.463604 170.671142 
L 125.97887 170.256678 
L 124.842067 168.481289 
L 124.473467 165.691391 
L 124.714607 164.151071 
L 125.155549 163.51391 
L 125.768734 163.192237 
L 126.499044 162.573634 
" clip-path="url(#pba2a3e3a86)" style="fill: #f5f5f5; stroke: #000000"/>
    <path d="M 189.188566 236.555409 
L 189.973994 236.453339 
L 190.79387 236.18734 
L 191.562074 236.168782 
L 192.213152 236.815222 
L 193.401628 238.689587 
L 194.683115 240.239187 
L 194.683115 240.712418 
L 190.938554 243.895128 
L 190.321925 244.628172 
L 188.664948 247.916045 
L 188.441032 248.543926 
L 188.017315 248.862507 
L 186.880512 250.291479 
L 186.43268 250.619338 
L 185.816051 251.677148 
L 185.795382 254.089698 
L 186.270772 258.401358 
L 186.167426 261.126303 
L 185.323436 261.216 
L 184.441552 260.046841 
L 184.24864 258.970473 
L 183.642345 258.104429 
L 182.257513 255.258857 
L 181.940586 254.29693 
L 182.002593 252.719494 
L 182.512432 251.497754 
L 183.676794 249.580086 
L 182.819024 249.388319 
L 182.223064 248.967669 
L 182.074935 248.191323 
L 182.519322 246.938653 
L 182.037042 246.641723 
L 181.775232 246.252004 
L 181.361849 245.379774 
L 179.398281 243.251781 
L 179.243262 242.902271 
L 179.053795 242.268203 
L 178.964228 241.65888 
L 179.015901 241.253695 
L 179.005567 240.845417 
L 178.736868 240.239187 
L 177.999668 239.357678 
L 177.345145 238.819494 
L 176.883534 238.067892 
L 176.711291 236.555409 
L 176.700957 235.163553 
L 176.559718 234.090277 
L 176.132555 233.341768 
L 175.264451 232.921118 
L 175.264451 232.361283 
L 176.886979 231.028195 
L 177.290028 230.8488 
L 177.896323 231.080776 
L 178.716199 232.123121 
L 179.181254 232.361283 
L 179.639421 232.064354 
L 180.603981 230.997264 
L 180.783113 231.108613 
L 181.058702 231.529263 
L 181.658107 231.182845 
L 182.519322 230.282778 
L 182.519322 229.809548 
L 182.074935 229.215689 
L 181.279173 226.895929 
L 180.783113 226.125769 
L 177.941106 224.73082 
L 177.135009 224.569984 
L 176.907648 224.409147 
L 176.346137 223.694661 
L 175.998206 223.536917 
L 173.321551 223.376081 
L 172.522344 222.924501 
L 171.833373 222.25641 
L 171.220188 221.412018 
L 173.493794 221.913086 
L 177.96522 224.056544 
L 180.176818 224.569984 
L 179.239817 222.806966 
L 176.61828 220.781043 
L 175.52626 218.866468 
L 179.181254 218.173633 
L 179.41895 217.867425 
L 179.308714 217.258101 
L 178.395827 216.472476 
L 175.987871 216.658057 
L 175.264451 215.659014 
L 175.891415 214.972365 
L 176.24968 214.081577 
L 176.180783 213.209348 
L 175.52626 212.587652 
L 174.572035 212.60621 
L 173.858949 213.268115 
L 173.249209 214.109414 
L 172.639469 214.666157 
L 172.081403 214.616668 
L 170.520882 213.880531 
L 167.337833 213.060883 
L 166.56963 212.587652 
L 165.990894 212.903139 
L 163.062765 211.554586 
L 162.518477 211.690678 
L 161.361005 212.371141 
L 160.765045 212.587652 
L 157.84725 212.587652 
L 157.84725 213.107278 
L 158.715354 213.626904 
L 157.25129 213.57123 
L 156.197163 213.175324 
L 155.53575 212.095863 
L 155.246382 209.995707 
L 155.863012 210.462752 
L 156.486531 210.490589 
L 157.00326 210.001893 
L 157.268514 208.956455 
L 156.834462 209.296686 
L 156.383185 209.460616 
L 155.391066 209.519383 
L 155.256717 209.10492 
L 155.373842 207.252205 
L 155.101698 206.834648 
L 154.340385 206.361417 
L 152.011661 204.162285 
L 151.618947 203.457078 
L 152.004771 203.271497 
L 152.617956 203.197265 
L 153.11746 202.937452 
L 153.196692 202.164199 
L 152.865986 201.786851 
L 152.259691 201.607456 
L 151.608612 201.573433 
L 151.17456 201.644572 
L 150.881747 202.055943 
L 150.688835 202.696197 
L 150.378798 203.197265 
L 149.72772 203.197265 
L 149.462466 202.857034 
L 148.863061 201.168249 
L 148.863061 200.60532 
L 149.999864 200.722855 
L 150.606159 200.664087 
L 151.029876 200.345507 
L 151.401921 199.847532 
L 151.887646 199.439254 
L 152.418154 199.151604 
L 152.907324 199.049535 
L 153.799542 198.638164 
L 154.21637 197.728818 
L 154.171587 196.819472 
L 153.654858 196.405009 
L 153.820211 195.634849 
L 153.465391 193.924412 
L 152.617956 191.218026 
L 152.087448 190.271564 
L 151.546605 189.631311 
L 150.888637 189.266335 
L 150.017088 189.139522 
L 149.262664 189.693171 
L 148.780384 189.841635 
L 148.573693 189.420986 
L 148.652924 188.397198 
L 148.897509 187.843549 
L 149.304003 187.627038 
L 149.872404 187.580643 
L 150.988538 187.153807 
L 151.432925 186.058881 
L 151.3158 184.629909 
L 150.740508 183.1731 
L 148.86995 180.766736 
L 146.809925 179.510973 
L 142.183481 178.242837 
L 142.183481 177.673723 
L 148.863061 178.242837 
L 148.156865 176.965423 
L 145.514659 175.799357 
L 144.498426 175.128173 
L 144.060929 174.388943 
L 143.806009 173.813643 
L 143.464969 173.362063 
L 142.762218 173.003274 
L 140.554064 172.836251 
L 139.878872 172.437252 
L 139.878872 171.964021 
L 146.548116 173.003274 
L 147.929504 172.762019 
L 150.575155 171.691836 
L 152.03922 171.450581 
L 152.03922 171.964021 
L 151.570719 171.895975 
L 151.122887 171.926905 
L 150.688835 172.093928 
L 150.306456 172.437252 
L 150.971314 173.764155 
L 152.066779 174.803407 
L 153.303482 175.186941 
L 154.378278 174.562152 
L 152.617956 173.003274 
L 153.196692 172.437252 
L 153.592851 172.848623 
L 154.299046 173.028018 
L 155.825118 173.003274 
L 156.510645 172.724902 
L 157.950596 171.676371 
L 159.400881 171.342326 
L 160.058849 170.971164 
L 160.558353 170.262864 
L 160.765045 169.133914 
L 160.809828 168.540056 
L 161.009629 167.491525 
L 161.050968 167.009015 
L 160.899394 166.405877 
L 160.162194 165.314044 
L 159.89694 164.698534 
L 160.975181 165.425392 
L 162.015528 165.604787 
L 163.000757 165.181044 
L 163.917089 164.132513 
L 165.36393 164.454186 
L 166.535181 162.388053 
L 166.759097 159.381645 
L 165.35704 156.867025 
L 164.130671 156.347399 
L 161.416123 156.146353 
L 158.040162 154.853474 
L 157.082492 154.009082 
L 156.689778 152.669807 
L 162.105094 155.298868 
L 163.221228 155.029776 
L 169.745789 156.069028 
L 170.520882 156.811351 
L 172.277759 156.709282 
L 175.264451 155.781378 
L 176.804303 154.822544 
L 177.672407 154.649335 
L 178.158132 155.308147 
L 177.972109 156.069028 
L 176.783633 157.516558 
L 176.421923 158.425904 
L 176.917983 159.220808 
L 176.642394 159.724969 
L 175.960312 159.836318 
L 175.264451 159.465156 
L 175.354017 159.186785 
L 175.52626 158.425904 
L 174.179321 158.500136 
L 173.631589 158.800158 
L 173.218206 159.465156 
L 175.316124 163.19533 
L 176.118776 165.276927 
L 175.52626 166.777039 
L 174.882072 166.89148 
L 173.562691 166.526505 
L 172.928838 166.777039 
L 172.153745 167.909081 
L 171.657685 168.326638 
L 170.875702 168.335917 
L 170.875702 168.901939 
L 171.575008 169.130821 
L 173.662592 168.901939 
L 174.230994 168.642125 
L 174.899296 168.11322 
L 175.643385 167.714222 
L 176.421923 167.813198 
L 176.704402 168.419428 
L 177.145344 169.669006 
L 177.47605 170.893839 
L 177.434712 171.450581 
L 174.031192 172.07537 
L 173.280213 172.390857 
L 172.970176 172.867181 
L 173.507574 173.476505 
L 174.117313 173.569295 
L 176.018875 173.42083 
L 176.421923 173.238343 
L 176.742295 172.854809 
L 177.448491 173.587853 
L 178.475059 175.128173 
L 178.778206 176.13031 
L 178.750647 176.504564 
L 178.502617 176.965423 
L 178.158132 178.242837 
L 178.912556 177.522165 
L 179.460288 176.801493 
L 181.2275 172.864088 
L 181.317066 172.768205 
L 181.361849 172.718716 
L 181.268838 172.174346 
L 180.876125 171.209326 
L 180.783113 170.924769 
L 180.917463 170.052539 
L 181.244724 168.957613 
L 181.940586 167.25027 
L 182.570995 166.5729 
L 184.069508 166.136785 
L 184.827376 165.691391 
L 185.516348 163.54484 
L 184.648244 161.064244 
L 183.649235 158.834182 
L 183.959272 157.386652 
L 184.717141 157.451605 
L 186.208764 159.053786 
L 186.997637 159.465156 
L 187.40413 159.796109 
L 187.390351 160.560083 
L 187.218108 161.413754 
L 187.142321 162.007613 
L 187.324898 162.96954 
L 187.486807 163.315957 
L 187.686608 163.547933 
L 188.00698 164.132513 
L 188.802742 166.350203 
L 189.553721 169.486518 
L 189.677736 172.427973 
L 188.585716 174.042526 
L 187.056199 173.479598 
L 186.322445 173.58476 
L 186.012408 174.840523 
L 185.70926 175.712753 
L 184.221081 177.178841 
L 183.676794 178.242837 
L 184.534564 178.434604 
L 185.750598 177.86549 
L 186.725493 176.816958 
L 186.852953 175.601404 
L 187.528145 175.313754 
L 188.224006 175.539544 
L 188.830301 176.185984 
L 189.188566 177.154097 
L 187.872631 176.696331 
L 187.696943 176.872633 
L 187.962197 177.568561 
L 188.606386 178.097466 
L 190.032557 178.709882 
L 190.404601 177.116981 
L 191.376051 174.701338 
L 191.503511 173.003274 
L 189.743189 164.698534 
L 189.743189 162.007613 
L 189.58817 160.921965 
L 188.585716 156.867025 
L 187.927749 155.809215 
L 187.159545 155.40403 
L 186.239768 155.459705 
L 183.005047 156.795886 
L 181.785567 157.018583 
L 181.072481 156.347399 
L 181.789012 154.482313 
L 183.979941 152.589389 
L 188.00698 150.074769 
L 194.479868 144.525904 
L 197.855829 142.623701 
L 201.383363 142.762887 
L 205.041802 144.881601 
L 208.056053 144.881601 
L 208.872484 145.326995 
L 210.353773 146.678641 
L 211.611146 147.219918 
L 213.805521 149.081912 
L 213.233674 150.278908 
L 211.497466 152.669807 
L 210.877391 153.953407 
L 209.726809 156.978374 
L 209.182521 157.859883 
L 209.182521 158.425904 
L 210.350328 160.142526 
L 210.949733 161.311685 
L 211.208098 162.295263 
L 211.40101 163.724235 
L 211.862621 165.394462 
L 212.441357 166.89148 
L 212.971865 167.813198 
L 212.792732 168.555521 
L 212.703166 169.570029 
L 212.654938 171.184582 
L 212.413798 172.496019 
L 212.36557 173.003274 
L 212.420688 173.368249 
L 212.572261 173.757969 
L 212.971865 174.562152 
L 212.083092 175.74059 
L 210.381332 179.099602 
L 208.782918 180.228552 
L 208.507329 181.159548 
L 208.100836 182.065801 
L 207.163835 182.393661 
L 206.467973 182.140033 
L 205.968469 181.719384 
L 205.413847 181.382245 
L 204.562967 181.354408 
L 201.503933 183.163821 
L 200.687502 184.032957 
L 197.993623 186.90018 
L 197.986733 186.909459 
L 195.864701 191.366491 
L 196.998059 195.365756 
L 199.054639 197.240122 
L 199.778059 197.490656 
L 202.382372 197.67933 
L 203.092013 198.010282 
L 204.924677 199.603184 
L 205.882348 200.778529 
L 206.299175 201.904386 
L 206.371517 203.209637 
L 206.564429 204.31075 
L 207.163835 206.358324 
L 206.53687 207.162507 
L 206.299175 207.400669 
L 204.091021 209.015222 
L 195.217068 211.152494 
L 194.548765 211.901003 
L 193.463635 212.612396 
L 192.605865 213.899089 
L 192.096026 215.445596 
L 192.347501 216.738475 
L 192.027129 217.394194 
L 191.668864 217.672565 
L 191.293375 217.610705 
L 190.897216 217.258101 
L 191.210698 215.624991 
L 190.724973 214.591924 
L 189.867203 214.307367 
L 189.036993 214.92597 
L 188.658058 215.297131 
L 188.327352 215.427038 
L 188.099991 215.693037 
L 188.00698 216.478662 
L 188.237786 216.791056 
L 189.453821 217.774635 
L 193.005469 218.093215 
L 194.617662 218.656143 
L 194.972483 220.419161 
L 194.734788 221.16767 
L 194.466089 221.483157 
L 194.156051 221.643994 
L 193.790897 221.931644 
L 192.915903 222.429619 
L 192.49563 222.831711 
L 192.802222 223.017291 
L 194.393747 226.645395 
L 194.348963 228.089832 
L 193.784007 228.869272 
L 192.915903 229.184759 
L 191.923784 229.243526 
L 191.269261 229.512618 
L 189.846534 230.644661 
L 188.875084 230.8488 
L 187.39724 230.208546 
L 185.102965 227.959926 
L 183.676794 227.684648 
L 183.649235 228.04653 
L 183.718132 228.133135 
L 183.831813 228.130042 
L 183.959272 228.204274 
L 183.728467 228.352738 
L 183.601007 228.52904 
L 183.442544 228.683691 
L 183.125617 228.770295 
L 183.311639 230.217825 
L 183.008492 231.083869 
L 182.612333 231.832378 
L 182.519322 232.921118 
L 182.829359 233.771697 
L 183.387426 234.275858 
L 184.028169 234.356276 
L 184.565567 233.917069 
L 184.455332 233.638697 
L 184.24864 232.921118 
L 184.61724 232.87163 
L 185.695481 232.361283 
L 186.039966 232.785026 
L 186.642817 234.179975 
L 186.725493 234.479997 
L 187.118207 234.783112 
L 188.492705 236.174968 
L 189.188566 236.555409 
" clip-path="url(#pba2a3e3a86)" style="fill: #f5f5f5; stroke: #000000"/>
    <path d="M 166.831439 99.544218 
L 166.717759 98.427641 
L 167.196594 98.028642 
L 170.806805 97.648202 
L 172.639469 96.946088 
L 172.639469 97.515202 
L 172.460337 97.527574 
L 172.322543 97.629643 
L 172.060733 97.98534 
L 171.309754 98.337943 
L 170.727573 99.111197 
L 170.231514 99.971054 
L 169.745789 100.626773 
L 169.032703 100.914423 
L 168.164599 100.821633 
L 167.355058 100.360774 
L 166.831439 99.544218 
" clip-path="url(#pba2a3e3a86)" style="fill: #f5f5f5; stroke: #000000"/>
    <path d="M 53.116682 95.866626 
L 52.558615 96.571833 
L 50.805183 97.98534 
L 50.588157 99.296777 
L 47.212196 100.218495 
L 46.027165 100.861842 
L 45.606892 100.639145 
L 44.476979 98.139991 
L 44.015368 97.515202 
L 42.975021 96.426461 
L 41.958788 95.913021 
L 41.690089 95.866626 
L 40.377598 96.364601 
L 39.943546 96.293462 
L 40.08823 95.393395 
L 40.288032 95.012955 
L 40.604959 94.688188 
L 40.983893 94.446933 
L 41.383496 94.354143 
L 41.576408 94.020097 
L 41.507511 93.287053 
L 41.355938 92.566381 
L 41.238812 92.275638 
L 42.413509 91.403409 
L 45.410535 90.985852 
L 46.468107 89.634205 
L 45.937599 89.686786 
L 45.410535 89.631112 
L 44.911031 89.464089 
L 44.44942 89.164067 
L 44.687115 88.440302 
L 45.53455 87.314446 
L 45.889371 86.516448 
L 45.751576 86.578309 
L 45.66201 85.95352 
L 45.606892 84.703943 
L 45.741242 84.437944 
L 46.068503 84.416293 
L 46.443993 84.468874 
L 46.733361 84.44413 
L 47.949396 83.99255 
L 50.433138 83.584272 
L 51.673287 82.891437 
L 52.599954 83.210018 
L 53.450833 82.115091 
L 54.877005 79.210752 
L 55.848454 79.829354 
L 56.468529 78.978776 
L 56.943919 77.985919 
L 57.477872 78.1715 
L 57.233287 78.783916 
L 56.737228 79.730378 
L 56.613213 80.293306 
L 56.69589 80.621166 
L 57.119607 81.678976 
L 57.216063 82.322323 
L 57.119607 82.483159 
L 56.613213 84.963756 
L 56.272172 85.910218 
L 56.055146 86.253542 
L 55.745109 86.516448 
L 55.734774 85.613289 
L 55.521193 85.031802 
L 55.197376 84.673013 
L 54.877005 84.44413 
L 53.874551 85.254499 
L 53.698863 85.529777 
L 53.564514 86.330867 
L 53.674749 86.819563 
L 53.867661 87.172167 
L 54.012345 87.561887 
L 54.356831 90.095064 
L 54.728876 90.874503 
L 55.455741 91.189991 
L 55.187042 91.570431 
L 54.918343 91.74364 
L 54.61864 91.783849 
L 54.277599 91.762198 
L 54.591081 91.984895 
L 54.877005 92.275638 
L 54.315493 93.123124 
L 53.678194 94.845932 
L 53.116682 95.866626 
" clip-path="url(#pba2a3e3a86)" style="fill: #f5f5f5; stroke: #000000"/>
    <path d="M 151.17456 51.132381 
L 152.342367 51.104544 
L 152.831537 51.287032 
L 153.196692 51.652007 
L 153.499839 52.573725 
L 153.467053 53.376436 
L 153.154303 54.025485 
L 152.212983 53.836026 
L 151.212092 53.488175 
L 147.967398 54.250138 
L 148.64948 54.81616 
L 149.135082 55.947619 
L 149.005386 57.179953 
L 147.992233 58.276229 
L 147.414455 59.20055 
L 147.059749 60.225761 
L 146.36967 61.046761 
L 145.060355 61.351147 
L 144.216174 60.680477 
L 143.109359 58.628351 
L 141.616016 58.351737 
L 140.441884 57.745489 
L 139.692849 57.040036 
L 139.010767 56.279155 
L 139.010767 55.802831 
L 140.42602 55.501507 
L 141.816097 54.177716 
L 142.888663 53.237932 
L 144.593239 53.135362 
L 145.575898 52.840377 
L 146.322588 52.01812 
L 149.463685 52.038916 
L 151.17456 51.132381 
" clip-path="url(#pba2a3e3a86)" style="fill: #f5f5f5; stroke: #000000"/>
   </g>
  </g>
 </g>
 <defs>
  <clipPath id="pba2a3e3a86">
   <rect x="7.2" y="7.2" width="328.615667" height="266.112"/>
  </clipPath>
 </defs>
</svg>
