<?xml version="1.0" encoding="utf-8" standalone="no"?>
<!DOCTYPE svg PUBLIC "-//W3C//DTD SVG 1.1//EN"
  "http://www.w3.org/Graphics/SVG/1.1/DTD/svg11.dtd">
<svg xmlns:xlink="http://www.w3.org/1999/xlink" width="258.978418pt" height="280.512pt" viewBox="0 0 258.978418 280.512" xmlns="http://www.w3.org/2000/svg" version="1.1">
 <metadata>
  <rdf:RDF xmlns:dc="http://purl.org/dc/elements/1.1/" xmlns:cc="http://creativecommons.org/ns#" xmlns:rdf="http://www.w3.org/1999/02/22-rdf-syntax-ns#">
   <cc:Work>
    <dc:type rdf:resource="http://purl.org/dc/dcmitype/StillImage"/>
    <dc:date>2024-03-04T13:11:10.173223</dc:date>
    <dc:format>image/svg+xml</dc:format>
    <dc:creator>
     <cc:Agent>
      <dc:title>Matplotlib v3.8.0, https://matplotlib.org/</dc:title>
     </cc:Agent>
    </dc:creator>
   </cc:Work>
  </rdf:RDF>
 </metadata>
 <defs>
  <style type="text/css">*{stroke-linejoin: round; stroke-linecap: butt}</style>
 </defs>
 <g id="figure_1">
  <g id="patch_1">
   <path d="M 0 280.512 
L 258.978418 280.512 
L 258.978418 0 
L 0 0 
z
" style="fill: #ffffff"/>
  </g>
  <g id="axes_1">
   <g id="PatchCollection_1">
    <defs>
     <path id="m8a9b777603" d="M 216.959481 -95.220239 
L 210.045384 -84.322616 
L 174.741617 -28.678741 
L 172.663299 -29.41347 
L 171.32822 -28.256887 
L 169.993141 -26.60814 
L 168.024933 -25.883957 
L 166.276943 -26.179255 
L 162.98742 -27.135458 
L 157.481941 -27.701445 
L 154.508982 -28.36235 
L 152.251736 -30.278272 
L 148.893394 -37.688844 
L 146.333346 -38.655593 
L 143.153932 -38.78215 
L 133.712036 -41.042585 
L 132.716513 -40.9647 
L 127.600955 -40.564484 
L 115.612775 -36.887321 
L 106.762718 -31.013001 
L 103.899869 -29.64549 
L 101.890369 -29.750954 
L 99.825814 -30.461075 
L 96.811565 -30.953238 
L 92.462236 -29.469718 
L 91.31985 -29.357223 
L 88.93873 -29.441594 
L 87.796343 -29.322069 
L 83.047868 -27.170612 
L 81.244823 -26.713603 
L 78.726067 -26.741727 
L 71.885509 -28.327196 
L 64.549459 -27.518642 
L 60.970898 -26.326904 
L 56.841789 -22.101331 
L 53.166882 -21.169736 
L 45.624376 -20.853345 
L 44.715972 -20.480707 
L 44.110369 -19.802225 
L 43.40842 -19.296 
L 42.25227 -19.464742 
L 41.453975 -20.139708 
L 41.109883 -20.944747 
L 40.655681 -21.640807 
L 24.923775 -24.853929 
L 21.606724 -26.130038 
L 20.636116 -27.410553 
L 19.941317 -28.327196 
L 22.3362 -32.201224 
L 23.175786 -38.012266 
L 23.492351 -64.181289 
L 21.854471 -78.970795 
L 18.413547 -94.611041 
L 18.317201 -102.035675 
L 22.253618 -114.374911 
L 24.08419 -124.689247 
L 26.190036 -129.013252 
L 28.158244 -130.356155 
L 33.388449 -132.662291 
L 34.709764 -134.405956 
L 35.453004 -136.346485 
L 36.581627 -137.148008 
L 38.08187 -137.605017 
L 39.939969 -138.497941 
L 41.784304 -139.925215 
L 43.25702 -141.422797 
L 48.3568 -148.69709 
L 59.360545 -164.39276 
L 64.742151 -174.446952 
L 66.214866 -176.071091 
L 69.352989 -177.61789 
L 70.412794 -179.298276 
L 72.436057 -184.255063 
L 90.177463 -208.574959 
L 94.237753 -217.469052 
L 102.261989 -228.289613 
L 109.11631 -235.693154 
L 111.456138 -236.107978 
L 115.075991 -235.151775 
L 121.187072 -232.416753 
L 142.052837 -213.883291 
L 143.81459 -216.44254 
L 144.441238 -216.618555 
L 148.645647 -217.799504 
L 150.462455 -220.422032 
L 151.591079 -221.645409 
L 155.568787 -222.397716 
L 157.234194 -223.29064 
L 158.004961 -226.953741 
L 156.766229 -231.2215 
L 156.298263 -235.2713 
L 162.106543 -240.769467 
L 165.203375 -248.130823 
L 167.433094 -250.092445 
L 168.616772 -249.944796 
L 170.268415 -248.630017 
L 171.631021 -248.763604 
L 200.573095 -261.216 
L 202.740606 -259.759994 
L 203.986925 -257.351771 
L 205.027331 -254.661205 
L 206.447051 -252.347096 
L 219.473794 -237.465939 
L 222.616685 -232.455729 
L 224.50242 -230.479325 
L 226.583231 -229.892494 
L 228.76158 -231.398325 
L 228.76158 -226.60956 
L 229.010844 -224.317596 
L 229.671935 -222.031168 
L 230.723178 -220.159951 
L 231.936984 -218.670728 
L 232.912364 -217.009885 
L 233.313354 -214.601662 
L 233.475917 -209.408758 
L 233.887744 -206.651758 
L 234.711398 -204.758397 
L 239.685837 -197.793927 
L 240.075989 -195.501963 
L 239.685837 -187.574204 
L 240.661217 -177.315728 
L 239.945938 -172.964318 
L 238.006016 -168.917396 
L 235.123225 -165.556957 
L 231.568507 -163.259457 
L 230.517264 -162.949432 
L 226.94087 -162.329384 
L 223.299451 -160.46924 
L 220.64425 -159.976523 
L 214.92202 -159.849191 
L 212.407707 -159.162709 
L 208.072684 -156.056932 
L 197.842031 -143.750083 
L 197.148427 -143.307191 
L 196.357285 -142.975022 
L 195.045941 -142.410336 
L 194.113911 -141.806896 
L 193.517846 -140.876824 
L 193.00848 -138.988998 
L 192.293202 -138.180721 
L 190.429142 -137.488703 
L 183.146304 -137.156534 
L 181.238894 -136.442372 
L 179.244783 -135.030655 
L 177.26151 -134.128263 
L 173.652604 -135.456938 
L 171.116616 -135.047263 
L 158.718451 -130.612812 
L 155.228758 -128.470323 
L 152.150892 -125.165245 
L 142.830593 -108.064094 
L 141.941913 -106.895968 
L 140.684757 -106.198414 
L 136.555648 -104.974926 
L 135.320166 -104.908492 
L 132.133925 -105.495323 
L 128.622556 -105.362456 
L 127.506288 -105.495323 
L 126.769334 -106.015721 
L 125.512177 -107.792823 
L 124.786061 -108.274468 
L 121.892433 -108.091775 
L 120.331825 -106.956865 
L 120.31015 -106.015721 
L 122.054997 -106.425396 
L 122.640225 -103.469094 
L 122.640225 -103.330691 
L 122.716088 -100.069901 
L 123.474717 -97.279684 
L 127.85309 -95.574552 
L 130.508291 -93.127576 
L 132.133925 -92.485383 
L 133.987147 -92.828624 
L 136.10047 -94.805028 
L 137.596053 -95.270064 
L 138.755672 -94.954504 
L 140.001991 -94.373209 
L 141.29166 -94.11301 
L 142.505466 -94.766275 
L 143.28577 -96.493552 
L 142.375415 -97.523275 
L 141.009883 -98.226365 
L 140.327117 -98.990353 
L 141.497574 -101.243564 
L 144.163612 -103.125853 
L 150.243482 -105.495323 
L 159.260329 -106.569335 
L 162.143119 -107.344396 
L 163.530326 -108.363046 
L 164.592407 -109.486883 
L 165.697838 -109.902094 
L 167.182583 -108.789329 
L 168.277176 -108.257859 
L 171.680169 -108.307685 
L 190.299091 -108.562347 
L 193.138531 -109.138106 
L 195.793732 -109.055064 
L 198.665685 -107.344396 
L 201.288374 -107.958908 
L 202.686418 -109.835661 
L 203.694311 -111.64598 
L 205.124869 -112.077799 
L 205.926848 -110.65501 
L 207.834258 -102.705106 
L 207.953471 -102.539022 
L 209.384028 -100.485112 
L 210.890449 -99.361275 
L 215.041233 -97.130209 
L 216.959481 -95.220239 
" style="stroke: #000000"/>
    </defs>
    <g clip-path="url(#pca6eb0d707)">
     <use xlink:href="#m8a9b777603" x="0" y="280.512" style="fill: #f5f5f5; stroke: #000000"/>
    </g>
   </g>
  </g>
 </g>
 <defs>
  <clipPath id="pca6eb0d707">
   <rect x="7.2" y="7.2" width="244.578418" height="266.112"/>
  </clipPath>
 </defs>
</svg>
