<?xml version="1.0" encoding="utf-8" standalone="no"?>
<!DOCTYPE svg PUBLIC "-//W3C//DTD SVG 1.1//EN"
  "http://www.w3.org/Graphics/SVG/1.1/DTD/svg11.dtd">
<svg xmlns:xlink="http://www.w3.org/1999/xlink" width="371.52pt" height="259.45639pt" viewBox="0 0 371.52 259.45639" xmlns="http://www.w3.org/2000/svg" version="1.1">
 <metadata>
  <rdf:RDF xmlns:dc="http://purl.org/dc/elements/1.1/" xmlns:cc="http://creativecommons.org/ns#" xmlns:rdf="http://www.w3.org/1999/02/22-rdf-syntax-ns#">
   <cc:Work>
    <dc:type rdf:resource="http://purl.org/dc/dcmitype/StillImage"/>
    <dc:date>2024-03-04T13:11:10.263186</dc:date>
    <dc:format>image/svg+xml</dc:format>
    <dc:creator>
     <cc:Agent>
      <dc:title>Matplotlib v3.8.0, https://matplotlib.org/</dc:title>
     </cc:Agent>
    </dc:creator>
   </cc:Work>
  </rdf:RDF>
 </metadata>
 <defs>
  <style type="text/css">*{stroke-linejoin: round; stroke-linecap: butt}</style>
 </defs>
 <g id="figure_1">
  <g id="patch_1">
   <path d="M 0 259.45639 
L 371.52 259.45639 
L 371.52 0 
L 0 0 
z
" style="fill: #ffffff"/>
  </g>
  <g id="axes_1">
   <g id="PatchCollection_1">
    <path d="M 45.692495 39.533374 
L 47.382693 39.904741 
L 48.965235 40.711896 
L 48.631502 38.874008 
L 47.066902 35.277811 
L 47.160204 34.356972 
L 47.160204 33.659712 
L 44.791773 33.538449 
L 44.490337 32.545611 
L 45.444886 31.0753 
L 46.833648 29.559516 
L 47.231975 29.275307 
L 47.68413 29.180571 
L 48.667387 29.207097 
L 49.266672 28.960782 
L 50.246341 27.763313 
L 50.773855 27.297209 
L 51.825295 26.876579 
L 52.607595 26.683317 
L 53.379129 26.319529 
L 54.391095 25.391111 
L 53.788222 24.223957 
L 53.691331 23.181856 
L 54.15784 22.442912 
L 55.291816 22.154913 
L 55.973637 22.261017 
L 57.028666 22.738489 
L 57.703309 22.844594 
L 57.997569 22.647542 
L 58.611208 21.772177 
L 58.930587 21.578915 
L 67.988041 20.885444 
L 70.291878 21.207548 
L 72.567007 22.026071 
L 80.985701 26.387739 
L 83.4582 26.887948 
L 85.805099 25.974688 
L 87.581422 27.270683 
L 88.851762 27.85426 
L 92.759673 27.99068 
L 93.789582 27.706471 
L 94.030013 26.990263 
L 94.076664 26.042898 
L 94.543173 25.072796 
L 95.580259 24.671114 
L 96.323085 25.53511 
L 97.302754 27.99068 
L 97.991752 27.566261 
L 98.512089 27.111526 
L 98.874531 26.58858 
L 99.111374 25.974688 
L 98.361371 25.739741 
L 98.203475 25.626057 
L 98.189121 25.383532 
L 97.905627 24.754482 
L 99.287212 25.292585 
L 100.446307 25.228164 
L 101.626934 24.932586 
L 103.051581 24.754482 
L 103.955891 24.0648 
L 105.588673 20.999127 
L 106.665232 20.305656 
L 108.007343 19.964605 
L 110.867403 18.543558 
L 112.41406 18.338927 
L 113.838707 18.706504 
L 115.195171 19.502291 
L 115.927232 20.669444 
L 115.475077 22.154913 
L 117.176041 22.844594 
L 117.832742 22.844594 
L 117.391353 21.408389 
L 117.176041 20.885444 
L 121.442805 21.578915 
L 122.698791 21.450073 
L 125.304065 20.83997 
L 126.31603 20.885444 
L 127.399767 21.61302 
L 131.278969 26.23995 
L 131.601937 27.126683 
L 131.13184 27.99068 
L 134.45482 28.013417 
L 135.72516 28.638678 
L 139.084025 31.458036 
L 142.281407 33.083714 
L 145.679746 34.277394 
L 149.612776 34.868549 
L 154.938157 34.910233 
L 155.383135 34.641182 
L 155.83529 34.015921 
L 156.901084 33.280766 
L 158.10683 32.663084 
L 158.993198 32.386453 
L 162.434599 33.470239 
L 167.813808 39.154428 
L 171.036309 42.557363 
L 172.50043 43.599464 
L 174.108092 44.417987 
L 175.916712 44.963669 
L 179.939456 45.391878 
L 183.172722 46.559032 
L 189.093799 47.726185 
L 190.414379 47.703449 
L 191.297157 47.373766 
L 192.083046 46.695452 
L 195.301959 43.258413 
L 196.970626 42.481573 
L 201.858205 42.557363 
L 204.251756 42.326206 
L 205.335492 42.462626 
L 206.677603 43.254623 
L 209.684793 46.437769 
L 210.632165 48.601551 
L 210.581925 50.966173 
L 209.135747 56.085733 
L 210.901305 56.828467 
L 211.57236 58.480672 
L 211.54724 62.732445 
L 211.762552 64.581701 
L 212.325952 66.059591 
L 218.200378 74.851137 
L 220.837948 77.42418 
L 221.171682 77.750073 
L 224.189637 78.977858 
L 225.976725 78.68228 
L 229.400184 77.367338 
L 231.165742 77.07176 
L 235.134657 76.908813 
L 236.893038 76.533657 
L 238.698069 75.798502 
L 241.303343 74.05535 
L 242.31172 73.835562 
L 243.223207 74.032614 
L 245.092832 74.953452 
L 246.251928 75.158083 
L 248.387104 74.623769 
L 249.312945 74.525243 
L 249.826105 74.544191 
L 250.30338 74.657874 
L 250.651467 74.942084 
L 250.795009 75.480187 
L 251.074914 75.934922 
L 251.684964 75.760607 
L 252.653868 75.158083 
L 257.771114 77.249865 
L 259.278297 78.341229 
L 260.275909 76.321447 
L 261.897925 74.8284 
L 265.902726 72.615356 
L 268.479291 71.827148 
L 269.089342 72.903355 
L 268.407521 75.123978 
L 267.108472 77.761442 
L 268.866853 78.409439 
L 270.854899 78.398071 
L 272.785529 77.897862 
L 274.386014 77.07176 
L 274.90994 79.114279 
L 273.76161 80.71722 
L 272.179067 82.172373 
L 271.378825 83.775314 
L 270.998441 85.461623 
L 269.972121 86.981197 
L 268.432641 88.095298 
L 266.505599 88.57277 
L 259.583322 87.299511 
L 252.000755 87.879299 
L 250.213667 87.367722 
L 246.944514 85.734464 
L 235.701645 84.339943 
L 234.434894 84.688574 
L 233.950442 85.935306 
L 233.66336 90.365184 
L 233.00307 94.147065 
L 233.275798 95.564323 
L 234.119103 96.170636 
L 235.213605 96.962633 
L 240.079654 96.21611 
L 241.759086 96.837581 
L 243.854789 96.163057 
L 248.003131 97.777367 
L 250.192135 97.531052 
L 249.653856 97.064949 
L 248.946915 96.640529 
L 248.10361 96.326004 
L 247.127529 96.200952 
L 247.127529 95.564323 
L 251.835683 95.314218 
L 253.206502 95.564323 
L 254.771101 96.716318 
L 255.984025 99.57736 
L 257.473266 100.710409 
L 258.980449 101.112091 
L 262.012758 101.487248 
L 270.201787 103.71166 
L 273.596537 104.62871 
L 274.988888 104.530184 
L 276.646789 103.590398 
L 276.097744 102.908295 
L 274.999653 102.248929 
L 274.988888 101.347038 
L 276.57143 100.896092 
L 277.949426 102.146614 
L 279.804697 105.166813 
L 281.003266 105.864074 
L 282.3382 106.265756 
L 283.479353 106.765965 
L 284.075049 107.762593 
L 285.130077 106.898596 
L 287.283196 105.901968 
L 288.295162 105.166813 
L 287.620518 104.4165 
L 287.943486 104.234606 
L 288.736551 104.211869 
L 289.493732 103.946607 
L 290.415984 102.984084 
L 290.69589 102.605138 
L 291.043977 102.578612 
L 294.205473 102.749138 
L 296.053567 103.124294 
L 297.711468 103.719239 
L 299.182766 104.530184 
L 299.351427 104.787867 
L 299.355016 105.125129 
L 299.426787 105.477549 
L 299.78564 105.795863 
L 301.590671 106.432492 
L 301.752155 106.402177 
L 304.906474 107.069122 
L 306.876578 107.144911 
L 307.673232 107.43291 
L 307.82395 107.539015 
L 308.545245 108.054381 
L 309.352664 108.509116 
L 310.924441 108.637958 
L 311.828751 108.979009 
L 322.077597 118.528447 
L 325.845555 123.121272 
L 331.163758 127.191152 
L 334.974779 129.858931 
L 336.058515 130.343982 
L 336.625503 130.715349 
L 340.608773 134.573019 
L 345.654248 137.65006 
L 348.087273 141.378888 
L 347.60641 145.031927 
L 339.316902 157.70388 
L 338.731971 158.211668 
L 338.150629 158.840718 
L 337.881489 159.727451 
L 338.042973 162.96365 
L 337.881489 163.888278 
L 336.880289 165.468482 
L 335.426934 166.215006 
L 333.60396 166.434795 
L 331.508257 166.434795 
L 329.893418 165.889113 
L 326.398189 163.577542 
L 325.127849 163.194807 
L 323.670905 164.176277 
L 323.900571 165.673113 
L 324.370668 167.44658 
L 323.620665 169.265521 
L 322.536929 170.720673 
L 321.851519 172.406983 
L 320.491466 177.82591 
L 319.999837 178.788433 
L 318.998637 179.152221 
L 311.541669 179.747166 
L 310.020131 179.205273 
L 309.819174 175.79476 
L 307.673232 171.285303 
L 304.737813 166.900898 
L 302.139716 163.888278 
L 299.372959 161.963232 
L 295.709068 160.398186 
L 292.020058 159.871451 
L 287.767648 161.62597 
L 281.340588 161.925338 
L 279.671921 161.62597 
L 275.807073 160.311028 
L 274.055869 160.023029 
L 272.534332 159.522821 
L 269.982886 157.340092 
L 268.034314 156.839883 
L 266.33335 157.196092 
L 264.603678 157.787248 
L 262.856063 157.908511 
L 261.086917 156.839883 
L 259.242412 158.556508 
L 247.784231 159.443242 
L 244.360772 160.712711 
L 242.552152 160.758184 
L 237.725577 157.400723 
L 235.773416 156.354832 
L 234.477956 156.203254 
L 233.918145 157.07483 
L 233.964796 158.12072 
L 234.122692 159.170401 
L 233.878671 160.023029 
L 233.089195 160.284502 
L 231.851151 160.280712 
L 230.713587 160.060924 
L 230.214781 159.727451 
L 228.732717 157.188513 
L 228.029365 156.506411 
L 227.372664 156.294201 
L 213.782895 154.793575 
L 211.321163 154.911048 
L 210.944367 154.929995 
L 209.51972 155.354415 
L 206.749374 156.703463 
L 204.467068 158.257141 
L 203.602232 158.673982 
L 201.255332 159.443242 
L 200.329491 159.916924 
L 199.220635 160.485343 
L 197.250531 162.243652 
L 195.764879 164.593117 
L 195.179948 167.389738 
L 194.713439 168.14763 
L 192.685919 169.223837 
L 192.222999 169.90215 
L 191.864145 170.929094 
L 188.885664 173.718136 
L 186.743311 176.200232 
L 185.533976 177.242333 
L 184.995696 176.98465 
L 182.856932 177.045281 
L 181.213384 177.325701 
L 180.122471 177.939594 
L 178.565048 176.973282 
L 176.907146 176.620862 
L 165.621215 176.666335 
L 163.726471 177.268859 
L 160.098465 179.337904 
L 158.038648 179.78885 
L 151.927379 179.773692 
L 150.509909 179.205273 
L 150.387899 178.405697 
L 151.026658 177.780437 
L 151.85202 177.234754 
L 152.261113 176.666335 
L 152.009915 175.658339 
L 151.410631 175.105078 
L 150.789815 174.748869 
L 150.122348 173.835609 
L 148.435738 172.732876 
L 148.051765 171.86888 
L 148.267077 170.944252 
L 148.787414 170.519832 
L 149.386699 170.197728 
L 149.849619 169.557309 
L 150.258712 167.685316 
L 150.31254 165.718587 
L 150.072108 163.994383 
L 149.58048 162.880282 
L 147.642673 160.43987 
L 146.4764 159.602399 
L 144.434526 158.806613 
L 142.694088 158.397351 
L 140.494318 158.226825 
L 138.610339 158.738402 
L 137.813685 160.364081 
L 138.115122 162.311863 
L 137.892633 163.092491 
L 135.273005 165.69585 
L 134.55171 166.161954 
L 133.600749 166.434795 
L 132.570841 166.3969 
L 130.737101 165.820902 
L 129.926093 165.741324 
L 129.244272 166.010375 
L 128.016994 166.881951 
L 127.191632 167.071424 
L 126.07201 166.927424 
L 125.68086 167.16995 
L 124.808847 167.996052 
L 124.564827 168.344682 
L 124.012193 169.496678 
L 123.904537 169.90215 
L 123.667694 170.269728 
L 122.483479 170.663831 
L 122.045678 170.88362 
L 119.698778 173.68782 
L 118.446381 174.438133 
L 116.354267 174.699606 
L 115.507374 174.381291 
L 114.958328 173.627189 
L 114.495408 172.694982 
L 113.921243 171.86888 
L 112.99899 171.171619 
L 112.062384 170.762357 
L 108.237009 169.924887 
L 106.464275 169.890782 
L 105.086278 170.447832 
L 104.533645 171.86888 
L 104.347041 172.653298 
L 103.564741 174.013714 
L 103.378137 175.052026 
L 103.546798 176.245705 
L 103.977422 176.901282 
L 104.562353 177.496227 
L 105.186757 178.519381 
L 106.625758 183.585888 
L 107.088679 184.453675 
L 107.103033 185.563986 
L 105.387715 188.186292 
L 103.923594 191.930278 
L 95.57667 204.215706 
L 94.84461 206.322646 
L 94.47858 207.072959 
L 93.642452 207.656535 
L 91.88766 208.577374 
L 90.803923 209.498213 
L 90.028801 210.407683 
L 89.425927 211.533152 
L 88.873293 213.083041 
L 88.220181 212.851884 
L 87.968984 212.692727 
L 87.613719 212.39336 
L 87.480943 213.067884 
L 87.344579 213.30662 
L 87.010846 213.602197 
L 87.613719 213.602197 
L 87.258454 214.386616 
L 86.799122 214.98535 
L 86.235723 215.375664 
L 85.535959 215.512085 
L 85.212991 215.89482 
L 84.638826 217.751656 
L 84.301504 218.426179 
L 83.224945 219.991226 
L 80.253641 228.744878 
L 79.342154 230.446345 
L 75.696206 235.60001 
L 74.813427 235.183169 
L 74.052659 234.455593 
L 74.009596 234.065279 
L 73.148349 233.314966 
L 67.083731 223.216056 
L 65.608844 221.605536 
L 62.641129 220.445961 
L 55.596841 221.400905 
L 52.582475 220.654382 
L 53.432957 219.991226 
L 56.246366 217.046816 
L 56.849239 215.856926 
L 56.720052 213.852302 
L 56.350433 212.442623 
L 54.99038 209.786212 
L 54.03583 208.32348 
L 53.849227 207.785377 
L 53.788222 206.667487 
L 54.391095 203.143289 
L 53.734394 201.517611 
L 52.184148 199.710039 
L 48.965235 197.015733 
L 44.034593 195.139951 
L 45.089658 192.323663 
L 45.408678 190.711437 
L 45.212709 188.006748 
L 45.271955 186.457087 
L 45.062313 185.415156 
L 44.114367 182.746562 
L 43.982201 181.865853 
L 44.228303 180.032248 
L 44.92559 178.282863 
L 48.843313 171.508813 
L 48.895967 171.417771 
L 49.934211 169.622564 
L 49.742799 169.353058 
L 48.931576 168.623947 
L 47.673724 167.788959 
L 42.933991 165.993854 
L 39.607064 163.763207 
L 38.891546 162.933031 
L 37.551661 160.943016 
L 36.808799 160.281281 
L 33.367935 159.412605 
L 32.046279 158.681087 
L 31.517617 156.958172 
L 31.85031 155.935491 
L 32.511138 155.555295 
L 32.980553 155.045158 
L 32.761796 153.647093 
L 32.192117 152.763979 
L 24.216606 144.551254 
L 23.432727 143.028062 
L 24.950353 141.880253 
L 28.227149 141.184831 
L 34.858217 142.414453 
L 38.271735 141.242582 
L 39.420209 140.003334 
L 41.234068 136.896792 
L 42.437231 135.544447 
L 42.663685 135.40376 
L 43.270576 135.026723 
L 45.63655 133.556838 
L 46.871615 132.53897 
L 47.92894 130.804023 
L 48.530521 129.230298 
L 48.963478 127.509789 
L 49.095643 125.760404 
L 48.384683 122.100411 
L 48.293535 118.324916 
L 47.805889 116.602 
L 47.149619 115.759793 
L 45.130675 113.906937 
L 44.324009 112.956445 
L 43.075272 110.319133 
L 42.268606 109.664618 
L 40.204088 109.594835 
L 38.011962 110.345603 
L 36.430532 110.593452 
L 36.170758 108.97882 
L 37.692941 107.948921 
L 42.218474 106.726517 
L 43.376062 106.009438 
L 47.19975 101.764713 
L 49.838505 98.061406 
L 51.173834 96.860659 
L 54.163511 94.714234 
L 55.275525 93.065913 
L 55.726711 91.465719 
L 56.127765 85.911963 
L 55.014624 85.370526 
L 49.300728 82.59126 
L 46.39085 79.616612 
L 46.019375 79.236868 
L 44.44706 77.023066 
L 44.009546 75.165397 
L 44.58834 74.578258 
L 46.967321 73.221101 
L 47.805889 72.561773 
L 48.922461 69.722331 
L 49.410106 69.190537 
L 50.417299 67.051331 
L 50.476546 62.893232 
L 49.423779 55.611748 
L 46.958206 49.781267 
L 46.552595 47.666123 
L 46.697375 45.222928 
L 46.785024 43.743843 
L 46.470561 42.095523 
L 45.692495 39.533374 
" clip-path="url(#p200b7e60d3)" style="fill: #f5f5f5; stroke: #000000"/>
    <path d="M 66.236837 241.117463 
L 64.765539 240.272414 
L 64.747597 238.267789 
L 65.555016 235.925904 
L 66.538274 234.065279 
L 67.783494 234.773908 
L 69.050246 235.706115 
L 71.296667 237.885054 
L 69.936613 238.317053 
L 67.74402 240.586939 
L 66.236837 241.117463 
" clip-path="url(#p200b7e60d3)" style="fill: #f5f5f5; stroke: #000000"/>
    <path d="M 318.50342 183.025049 
L 323.060854 182.888628 
L 324.259424 183.316837 
L 325.14938 184.510517 
L 326.136226 186.340826 
L 326.782162 188.019556 
L 326.635032 188.750922 
L 325.29651 188.451555 
L 322.450804 187.140402 
L 320.968741 186.841034 
L 319.396964 187.034297 
L 316.666092 187.909662 
L 315.166085 188.114293 
L 312.065594 187.284401 
L 309.858647 185.275987 
L 308.437589 182.774944 
L 307.666055 180.478532 
L 308.975869 180.088217 
L 310.522526 180.387585 
L 312.054829 181.145477 
L 313.364643 182.10042 
L 314.383785 182.464208 
L 318.50342 183.025049 
" clip-path="url(#p200b7e60d3)" style="fill: #f5f5f5; stroke: #000000"/>
   </g>
  </g>
 </g>
 <defs>
  <clipPath id="p200b7e60d3">
   <rect x="7.2" y="7.2" width="357.12" height="245.05639"/>
  </clipPath>
 </defs>
</svg>
