<?xml version="1.0" encoding="utf-8" standalone="no"?>
<!DOCTYPE svg PUBLIC "-//W3C//DTD SVG 1.1//EN"
  "http://www.w3.org/Graphics/SVG/1.1/DTD/svg11.dtd">
<svg xmlns:xlink="http://www.w3.org/1999/xlink" width="156.704879pt" height="280.512pt" viewBox="0 0 156.704879 280.512" xmlns="http://www.w3.org/2000/svg" version="1.1">
 <metadata>
  <rdf:RDF xmlns:dc="http://purl.org/dc/elements/1.1/" xmlns:cc="http://creativecommons.org/ns#" xmlns:rdf="http://www.w3.org/1999/02/22-rdf-syntax-ns#">
   <cc:Work>
    <dc:type rdf:resource="http://purl.org/dc/dcmitype/StillImage"/>
    <dc:date>2024-03-04T13:11:10.233423</dc:date>
    <dc:format>image/svg+xml</dc:format>
    <dc:creator>
     <cc:Agent>
      <dc:title>Matplotlib v3.8.0, https://matplotlib.org/</dc:title>
     </cc:Agent>
    </dc:creator>
   </cc:Work>
  </rdf:RDF>
 </metadata>
 <defs>
  <style type="text/css">*{stroke-linejoin: round; stroke-linecap: butt}</style>
 </defs>
 <g id="figure_1">
  <g id="patch_1">
   <path d="M 0 280.512 
L 156.704879 280.512 
L 156.704879 0 
L 0 0 
z
" style="fill: #ffffff"/>
  </g>
  <g id="axes_1">
   <g id="PatchCollection_1">
    <defs>
     <path id="m3ec6139b02" d="M 81.712935 -19.296 
L 75.650865 -20.982013 
L 74.552664 -25.470451 
L 76.353714 -39.118038 
L 76.090146 -55.476916 
L 76.353714 -57.869231 
L 73.388571 -64.225953 
L 66.557761 -72.200336 
L 65.327776 -78.921602 
L 64.36136 -92.797028 
L 61.901389 -102.913103 
L 54.257911 -119.3859 
L 53.203638 -123.350308 
L 51.907761 -133.603086 
L 50.216532 -138.52442 
L 37.806861 -150.896106 
L 35.830099 -155.544032 
L 34.79779 -160.875477 
L 32.381748 -166.571465 
L 29.262857 -171.082687 
L 26.275751 -172.905403 
L 22.761507 -175.844533 
L 21.575451 -182.611367 
L 21.070278 -196.213386 
L 18.829948 -200.519553 
L 15.864806 -203.253627 
L 13.668404 -206.261108 
L 13.690368 -211.501417 
L 16.32605 -215.14685 
L 25.353262 -221.526356 
L 28.120728 -227.131209 
L 24.386845 -227.860295 
L 17.841567 -230.25261 
L 13.690368 -230.639937 
L 18.149063 -237.224499 
L 24.430773 -261.216 
L 35.105286 -260.783105 
L 41.562708 -260.532482 
L 47.668705 -258.208519 
L 54.257911 -253.218833 
L 62.977626 -240.368684 
L 69.962184 -235.743542 
L 78.001015 -239.981357 
L 84.700041 -241.302826 
L 111.496144 -230.639937 
L 112.462561 -226.835017 
L 115.888948 -218.291035 
L 121.248169 -209.200239 
L 124.25724 -203.84601 
L 132.581603 -191.816083 
L 133.372307 -190.631318 
L 138.489924 -170.9232 
L 139.390448 -150.394859 
L 135.656565 -134.696716 
L 138.116535 -133.808142 
L 140.356865 -131.939858 
L 143.036476 -130.869012 
L 139.654017 -110.431807 
L 140.444721 -92.569189 
L 140.620433 -88.103535 
L 139.039024 -66.071453 
L 127.947195 -46.408903 
L 124.059563 -43.378638 
L 121.423881 -42.695118 
L 119.315335 -42.854606 
L 113.82433 -42.12552 
L 109.23385 -43.21915 
L 105.829427 -42.581199 
L 102.908213 -39.892693 
L 100.140746 -32.601828 
L 92.607088 -29.298155 
L 90.849966 -25.197044 
L 90.608362 -24.832501 
L 88.258212 -21.164284 
L 81.712935 -19.296 
" style="stroke: #000000"/>
    </defs>
    <g clip-path="url(#p00626ffc6f)">
     <use xlink:href="#m3ec6139b02" x="0" y="280.512" style="fill: #f5f5f5; stroke: #000000"/>
    </g>
   </g>
  </g>
 </g>
 <defs>
  <clipPath id="p00626ffc6f">
   <rect x="7.2" y="7.2" width="142.304879" height="266.112"/>
  </clipPath>
 </defs>
</svg>
