<?xml version="1.0" encoding="utf-8" standalone="no"?>
<!DOCTYPE svg PUBLIC "-//W3C//DTD SVG 1.1//EN"
  "http://www.w3.org/Graphics/SVG/1.1/DTD/svg11.dtd">
<svg xmlns:xlink="http://www.w3.org/1999/xlink" width="371.52pt" height="156.500463pt" viewBox="0 0 371.52 156.500463" xmlns="http://www.w3.org/2000/svg" version="1.1">
 <metadata>
  <rdf:RDF xmlns:dc="http://purl.org/dc/elements/1.1/" xmlns:cc="http://creativecommons.org/ns#" xmlns:rdf="http://www.w3.org/1999/02/22-rdf-syntax-ns#">
   <cc:Work>
    <dc:type rdf:resource="http://purl.org/dc/dcmitype/StillImage"/>
    <dc:date>2024-03-04T13:11:10.291556</dc:date>
    <dc:format>image/svg+xml</dc:format>
    <dc:creator>
     <cc:Agent>
      <dc:title>Matplotlib v3.8.0, https://matplotlib.org/</dc:title>
     </cc:Agent>
    </dc:creator>
   </cc:Work>
  </rdf:RDF>
 </metadata>
 <defs>
  <style type="text/css">*{stroke-linejoin: round; stroke-linecap: butt}</style>
 </defs>
 <g id="figure_1">
  <g id="patch_1">
   <path d="M 0 156.500463 
L 371.52 156.500463 
L 371.52 0 
L 0 0 
z
" style="fill: #ffffff"/>
  </g>
  <g id="axes_1">
   <g id="PatchCollection_1">
    <path d="M 278.42599 18.111034 
L 279.561726 18.88914 
L 279.967549 19.455134 
L 280.538299 19.91563 
L 280.737212 20.242626 
L 280.927629 20.670622 
L 281.219002 21.060618 
L 281.598336 21.355615 
L 282.051138 21.495613 
L 282.355005 21.445614 
L 282.626387 21.359615 
L 282.807807 21.413614 
L 282.840793 21.78561 
L 282.914761 21.985608 
L 283.319584 22.413604 
L 283.428536 22.7256 
L 283.707914 22.565602 
L 283.998287 22.541602 
L 285.069819 22.7876 
L 285.206803 22.894447 
L 285.423664 23.063597 
L 287.243868 25.087576 
L 287.700169 25.435572 
L 288.070507 25.61557 
L 289.220504 25.925567 
L 289.616331 26.135565 
L 292.133731 28.039545 
L 292.947375 28.435541 
L 294.318776 28.485541 
L 295.634201 28.981535 
L 295.844109 28.985535 
L 295.943066 28.933536 
L 296.036025 28.945536 
L 296.223943 29.143534 
L 296.292913 29.340532 
L 296.286915 29.555529 
L 296.326898 29.764527 
L 296.531808 29.939525 
L 296.982611 30.113524 
L 297.395431 30.206523 
L 297.78726 30.213523 
L 298.17609 30.133523 
L 299.718416 29.547529 
L 300.196207 29.551529 
L 300.773954 30.005525 
L 300.899899 31.39751 
L 301.310719 32.005504 
L 302.582164 32.883495 
L 303.287855 33.163492 
L 303.852898 33.084455 
L 303.945568 33.071493 
L 304.744219 33.271491 
L 305.005105 34.209481 
L 305.12905 36.24346 
L 305.303974 36.893453 
L 305.388937 37.471447 
L 305.588849 37.965442 
L 306.109622 38.365438 
L 306.785326 38.613435 
L 308.843427 39.031431 
L 309.208267 39.163429 
L 309.493143 39.309428 
L 309.795011 39.399427 
L 310.215827 39.375427 
L 311.190401 39.009431 
L 311.526254 38.947432 
L 311.788865 39.013407 
L 312.194962 39.11543 
L 312.934638 39.951421 
L 313.509387 40.145419 
L 314.283049 40.159419 
L 314.523944 40.199419 
L 314.844804 40.311417 
L 315.041717 40.451416 
L 315.463533 40.877412 
L 315.793389 41.119409 
L 316.071267 41.219408 
L 316.364139 41.231408 
L 317.707552 41.02941 
L 317.951446 41.05341 
L 318.641144 41.363407 
L 318.936015 41.355407 
L 318.887037 40.585415 
L 319.125932 40.495416 
L 319.79464 40.677414 
L 320.737228 40.781413 
L 321.015106 40.863412 
L 321.320973 41.07741 
L 321.837747 41.559404 
L 322.203587 41.685403 
L 322.486463 41.649404 
L 322.987244 41.391406 
L 324.906405 41.169409 
L 325.248256 40.941411 
L 325.048343 39.657424 
L 325.096322 38.215439 
L 325.086327 38.089441 
L 325.269247 38.12344 
L 325.687064 38.097441 
L 325.892974 38.057441 
L 326.072896 37.991442 
L 326.553685 37.417448 
L 326.661638 37.319449 
L 326.762594 37.259449 
L 327.113441 36.993452 
L 327.328347 36.933453 
L 327.521262 37.019452 
L 328.055029 37.583446 
L 328.426867 37.827443 
L 328.812698 37.995442 
L 329.231515 38.091441 
L 329.705308 38.12344 
L 330.126124 38.10144 
L 330.342029 38.11744 
L 330.503959 38.18944 
L 330.619908 38.395437 
L 330.72886 38.907432 
L 330.827817 39.05943 
L 331.180663 39.041431 
L 331.670449 38.885432 
L 332.106258 38.831433 
L 332.292177 39.12143 
L 332.37614 39.351427 
L 333.672574 40.99141 
L 333.768532 41.235408 
L 333.856493 41.607404 
L 334.0694 41.919401 
L 334.55019 42.363396 
L 335.725676 43.089389 
L 335.887605 43.355386 
L 336.663266 43.92938 
L 337.208028 44.233377 
L 337.526889 44.361375 
L 337.901725 44.453374 
L 338.331537 44.489374 
L 338.776343 44.447374 
L 339.610478 44.257376 
L 339.974819 44.213377 
L 340.359651 44.339376 
L 340.665517 44.615373 
L 340.911409 44.89137 
L 341.110322 45.017369 
L 341.455172 45.131367 
L 342.364774 45.943359 
L 343.490282 46.635352 
L 343.955079 46.79735 
L 344.331914 47.069347 
L 345.414441 47.275345 
L 346.642404 47.72534 
L 346.999748 47.937338 
L 346.770348 48.233335 
L 346.33304 48.543332 
L 346.085648 48.665331 
L 345.82826 48.75133 
L 345.519395 48.76733 
L 344.857684 48.67333 
L 344.696255 48.68733 
L 344.175483 49.033327 
L 343.6772 48.985327 
L 342.313796 48.251335 
L 342.052411 48.189336 
L 341.781029 48.185336 
L 341.43518 48.221335 
L 341.133312 48.163336 
L 340.780467 48.021337 
L 340.432619 47.929338 
L 340.150242 48.023337 
L 340.04179 48.359334 
L 340.134749 48.787329 
L 340.323666 49.165325 
L 340.49909 49.367323 
L 340.68151 49.407323 
L 341.095829 49.375323 
L 341.284246 49.401323 
L 341.519144 49.543321 
L 341.923967 49.925317 
L 342.163362 50.047316 
L 342.576682 50.183315 
L 342.885546 50.377313 
L 343.10645 50.65931 
L 343.726179 52.845287 
L 344.084023 53.665279 
L 344.637281 54.427271 
L 344.997623 54.767267 
L 345.217027 54.903266 
L 345.415441 54.937265 
L 345.653836 54.917266 
L 345.764288 54.979265 
L 345.843254 55.093264 
L 346.597424 55.679258 
L 346.679888 55.769257 
L 346.779844 55.991254 
L 346.854811 56.083253 
L 346.952769 56.103253 
L 347.134189 56.009254 
L 347.221151 56.039254 
L 347.440555 56.38325 
L 347.511524 56.741247 
L 347.451551 57.501239 
L 347.467544 57.661237 
L 347.512524 57.801236 
L 347.539512 57.947234 
L 347.49953 58.119232 
L 347.325606 58.30323 
L 347.091208 58.423229 
L 346.884798 58.561228 
L 346.796837 58.791225 
L 346.816828 58.981223 
L 346.899792 59.33722 
L 346.909787 59.533218 
L 346.868805 59.731215 
L 346.745859 60.079212 
L 346.737863 60.321209 
L 347.596987 63.241179 
L 347.602984 63.415177 
L 347.571998 63.749174 
L 347.607482 63.929172 
L 347.756917 64.14917 
L 347.942336 64.311168 
L 348.082775 64.503166 
L 348.087273 64.633164 
L 347.914348 64.645164 
L 346.999748 64.645164 
L 346.178607 64.743163 
L 345.7378 64.733163 
L 345.546883 64.577165 
L 345.434432 64.383167 
L 345.170548 64.07917 
L 344.622287 63.575175 
L 344.50284 63.745174 
L 344.257947 64.701164 
L 343.6772 66.98114 
L 343.096454 69.263116 
L 342.515708 71.545093 
L 341.934962 73.825069 
L 341.650586 74.943057 
L 341.399196 75.61505 
L 341.250081 75.795377 
L 340.944395 76.165044 
L 339.881859 77.151034 
L 339.1032 78.059025 
L 338.138122 79.183013 
L 337.172544 80.309001 
L 336.205466 81.43499 
L 335.239889 82.560978 
L 334.274311 83.686966 
L 333.307733 84.812955 
L 332.342155 85.936943 
L 331.375578 87.062931 
L 330.222082 87.946922 
L 329.068586 88.830913 
L 327.913091 89.712904 
L 326.759595 90.596894 
L 325.6041 91.482885 
L 324.450605 92.364876 
L 323.296109 93.248867 
L 322.141614 94.132858 
L 321.046093 94.972849 
L 320.187371 95.49369 
L 319.898594 95.668842 
L 318.117373 96.290835 
L 315.684437 97.142826 
L 313.2525 97.992817 
L 310.818563 98.842809 
L 308.386626 99.6948 
L 305.95469 100.544791 
L 303.522753 101.396782 
L 301.089816 102.246773 
L 298.657879 103.096764 
L 298.122971 103.283624 
L 297.37544 103.54476 
L 297.011599 103.730758 
L 295.587221 104.974745 
L 293.632076 107.594718 
L 292.697484 108.370709 
L 292.425603 108.668706 
L 291.827865 109.814694 
L 291.588969 110.158691 
L 290.884277 110.682685 
L 290.655877 110.956683 
L 290.653878 111.380678 
L 290.87728 111.732674 
L 291.182147 111.948672 
L 291.425041 112.226669 
L 291.466023 112.758664 
L 291.288101 113.15466 
L 290.990231 113.280658 
L 290.647381 113.354658 
L 290.341014 113.604655 
L 290.07763 113.730654 
L 289.89271 113.378657 
L 289.625327 112.13467 
L 289.480391 111.844673 
L 289.238496 111.650675 
L 288.400363 111.416678 
L 287.99504 111.360678 
L 287.669682 111.458677 
L 287.458275 111.824674 
L 287.476267 111.948672 
L 287.594215 112.328668 
L 287.58272 112.540666 
L 287.434785 113.376657 
L 287.184613 114.162732 
L 287.157906 114.246648 
L 286.801562 115.02264 
L 286.671618 115.420636 
L 286.626638 115.796632 
L 286.635634 116.492625 
L 286.716099 116.886621 
L 286.703604 117.074619 
L 286.556169 117.186618 
L 286.309777 117.228617 
L 286.217817 117.260617 
L 286.206822 117.360616 
L 286.207821 117.604613 
L 286.455213 118.8546 
L 286.337265 119.226597 
L 285.865471 119.686592 
L 285.712038 119.784591 
L 285.473642 119.89659 
L 285.356693 119.984589 
L 285.15728 120.358585 
L 285.018841 120.728581 
L 284.827924 122.160566 
L 284.829424 122.294565 
L 284.749459 122.374564 
L 284.479577 122.522562 
L 284.229686 122.600561 
L 283.995288 122.618561 
L 283.779882 122.674561 
L 283.582969 122.878559 
L 283.489509 123.196555 
L 283.508501 124.348543 
L 283.301592 125.206534 
L 282.122607 127.670509 
L 281.938187 128.5165 
L 281.77126 128.894496 
L 281.415416 129.190493 
L 281.254986 129.596489 
L 281.278476 130.322481 
L 281.434408 131.040474 
L 281.669805 131.41047 
L 282.129604 131.690467 
L 282.077627 132.002464 
L 281.778757 132.36846 
L 281.499379 132.818455 
L 281.449401 133.174451 
L 281.467393 133.560447 
L 281.443904 133.932444 
L 281.26948 134.24444 
L 280.742268 134.592721 
L 280.533801 134.730435 
L 278.762576 135.436428 
L 277.954429 135.892423 
L 277.072814 136.704415 
L 276.710972 137.20241 
L 276.493068 137.734404 
L 276.507062 138.264398 
L 276.943371 139.134389 
L 277.042328 139.596385 
L 276.837417 139.980381 
L 276.389613 140.08038 
L 275.880835 140.08438 
L 275.492505 140.182379 
L 275.286095 140.500375 
L 275.071689 141.443365 
L 274.93275 141.849361 
L 274.433468 142.379356 
L 273.875712 142.841351 
L 273.517368 142.487355 
L 273.305961 142.333356 
L 273.097552 142.235357 
L 272.897139 142.211357 
L 272.584776 142.289357 
L 272.387862 142.297356 
L 272.05001 142.221357 
L 271.403292 141.99536 
L 271.063441 141.93936 
L 270.592096 141.956532 
L 269.691041 141.98936 
L 269.247235 141.871361 
L 268.977353 141.545364 
L 268.770943 141.136369 
L 268.515555 140.768372 
L 268.345129 140.656374 
L 267.967794 140.514375 
L 267.799368 140.392376 
L 267.695913 140.226378 
L 267.569968 139.844382 
L 267.465514 139.672384 
L 267.129661 139.424386 
L 266.730835 139.214389 
L 266.396981 138.948391 
L 266.258042 138.538396 
L 266.198697 138.179371 
L 266.194569 138.1544 
L 265.688291 137.20241 
L 265.465888 136.054421 
L 264.902134 135.23043 
L 264.915129 134.814434 
L 265.360934 134.022443 
L 265.409412 133.738446 
L 265.30146 133.556447 
L 264.908132 133.32645 
L 264.442335 133.33045 
L 264.323387 133.26645 
L 264.047508 133.062453 
L 263.896574 132.990453 
L 262.920001 132.026463 
L 262.385234 131.760466 
L 261.68604 131.854465 
L 261.019331 132.250461 
L 259.720399 132.650457 
L 259.002213 132.538458 
L 258.521423 132.042463 
L 258.115101 131.436469 
L 257.624815 130.984474 
L 257.117037 130.856476 
L 256.620254 130.850476 
L 256.117474 130.790476 
L 255.593703 130.504479 
L 255.203374 130.230482 
L 254.577647 129.548489 
L 254.2288 129.250492 
L 253.895945 129.130493 
L 253.502117 129.058494 
L 253.180258 128.958495 
L 253.056812 128.748497 
L 253.001836 128.768497 
L 252.213681 128.870496 
L 252.002273 128.942495 
L 251.80336 129.040494 
L 251.640931 129.170493 
L 251.476503 129.44249 
L 251.278089 130.120483 
L 251.133653 130.42648 
L 250.829286 130.754477 
L 249.341936 131.894465 
L 248.549782 132.31846 
L 248.363863 132.486459 
L 248.21143 132.500458 
L 247.86808 132.510458 
L 247.546721 132.39446 
L 246.6791 131.902465 
L 246.416714 131.668467 
L 246.247289 131.262471 
L 246.319757 130.932475 
L 248.877639 127.53851 
L 249.091045 127.110514 
L 248.198436 127.220513 
L 247.360802 127.468511 
L 246.686097 127.396512 
L 246.276776 126.54052 
L 246.278275 126.360522 
L 246.352742 125.992526 
L 246.346245 125.810528 
L 246.241291 125.562531 
L 245.92293 125.124535 
L 245.825973 124.884538 
L 245.860387 124.528772 
L 245.861957 124.512542 
L 246.028884 124.026547 
L 246.253286 123.558551 
L 246.464194 123.246555 
L 246.753067 123.040557 
L 247.109911 122.936558 
L 247.50124 122.908558 
L 247.895068 122.930558 
L 248.294394 123.056557 
L 249.110537 123.494552 
L 249.473378 123.568551 
L 249.877202 123.370553 
L 250.20256 122.968558 
L 250.483437 122.520562 
L 250.758317 122.180566 
L 252.265658 121.488573 
L 252.573023 121.142577 
L 252.576569 120.96165 
L 252.577022 120.938579 
L 252.460073 120.82458 
L 252.286649 120.712581 
L 252.118222 120.516583 
L 252.066245 120.350585 
L 252.066245 119.992589 
L 252.041756 119.81859 
L 251.87083 119.428594 
L 251.4825 118.808601 
L 251.39204 118.418605 
L 251.428024 118.270606 
L 251.510488 118.136608 
L 251.57496 117.986609 
L 251.555468 117.796611 
L 251.43702 117.434615 
L 251.418528 117.284617 
L 251.418528 117.090619 
L 251.450514 116.92062 
L 251.576459 116.544624 
L 251.606946 116.352626 
L 251.583956 116.140629 
L 251.473004 115.770632 
L 251.470006 115.554635 
L 251.417529 115.372637 
L 251.249602 115.294637 
L 251.058685 115.232638 
L 250.93424 115.098639 
L 250.935739 114.948641 
L 251.086173 114.426646 
L 251.122158 114.05665 
L 251.121658 113.866652 
L 251.075678 113.694654 
L 250.951732 113.554656 
L 250.632872 113.422657 
L 250.515423 113.314658 
L 250.471942 112.910662 
L 250.58989 112.508666 
L 250.630872 112.17067 
L 250.358491 111.960672 
L 249.625812 111.766674 
L 249.310949 111.602676 
L 249.178925 111.533886 
L 249.137218 111.395103 
L 249.113606 111.250223 
L 249.172636 111.0518 
L 249.432365 110.895896 
L 249.551997 110.667552 
L 249.648018 110.396688 
L 249.833764 110.125825 
L 249.637787 110.669126 
L 249.569313 110.799834 
L 249.689732 111.19668 
L 249.921914 111.017154 
L 250.030528 110.409287 
L 250.228867 110.125825 
L 250.75777 110.654953 
L 251.020647 110.544718 
L 252.420035 110.258107 
L 252.660875 110.281729 
L 252.81986 110.321098 
L 252.961531 110.328972 
L 253.147276 110.258107 
L 253.588028 109.738427 
L 253.675392 109.662838 
L 254.406568 108.141594 
L 254.611203 107.867581 
L 255.044085 107.94947 
L 255.133809 108.410882 
L 254.996861 109.335282 
L 255.204645 109.212449 
L 255.332935 109.025049 
L 255.442336 108.809303 
L 255.596599 108.599857 
L 255.7729 108.459701 
L 256.388379 108.072303 
L 256.674868 107.740023 
L 256.862975 107.335303 
L 256.969228 106.899087 
L 257.058952 106.152638 
L 257.373775 105.453433 
L 258.024672 104.412499 
L 258.189954 104.025101 
L 257.997125 103.688097 
L 258.067173 103.250306 
L 258.32218 102.494408 
L 258.364681 102.154254 
L 258.969141 100.181047 
L 259.377624 99.448771 
L 259.421699 99.321213 
L 259.61138 98.907044 
L 259.683002 98.456655 
L 260.093846 97.329108 
L 260.315796 96.996828 
L 260.895858 96.403133 
L 261.06114 96.05983 
L 261.087113 95.593693 
L 260.962758 94.729135 
L 260.701455 94.053551 
L 260.63849 93.946466 
L 260.215053 93.971662 
L 259.996251 93.952765 
L 259.840414 93.877175 
L 259.606657 93.519698 
L 259.233592 92.481914 
L 258.991966 92.100816 
L 258.874694 91.864598 
L 258.839276 91.590585 
L 258.855805 90.463037 
L 258.72594 89.562259 
L 258.71807 89.310293 
L 258.836915 88.885101 
L 258.86761 88.623686 
L 258.777886 88.507152 
L 258.746404 88.428413 
L 258.500842 88.097708 
L 258.441025 88.044165 
L 258.411904 87.911883 
L 258.354449 87.814246 
L 258.310374 87.681964 
L 258.32218 87.448895 
L 258.418988 87.236299 
L 258.546491 87.070947 
L 258.591353 86.896145 
L 258.441025 86.658353 
L 258.740107 86.343395 
L 259.045485 86.253632 
L 259.283177 86.113476 
L 259.377624 85.659938 
L 259.524016 85.442617 
L 259.843562 85.297737 
L 260.163107 85.083566 
L 260.303203 84.664672 
L 259.155674 85.316634 
L 259.031318 85.411121 
L 258.980947 85.581198 
L 258.969141 85.922927 
L 258.827471 85.984344 
L 258.200186 86.026863 
L 258.057728 86.189066 
L 258.024672 86.340246 
L 257.85939 86.811107 
L 257.694895 87.585902 
L 257.668135 88.144951 
L 257.786193 88.705575 
L 258.374912 89.730762 
L 258.418988 90.318157 
L 258.118332 94.086622 
L 257.913697 94.87244 
L 257.77911 95.083462 
L 257.24942 95.674007 
L 257.061313 95.79684 
L 256.749639 95.891327 
L 256.079066 96.278725 
L 255.800447 96.336992 
L 255.606044 96.24093 
L 255.492708 95.98109 
L 255.338444 95.929122 
L 254.924452 95.974791 
L 254.78593 95.927547 
L 254.539581 95.738573 
L 254.436476 95.420466 
L 254.695418 95.118107 
L 255.272332 94.729135 
L 255.448632 94.32284 
L 255.535209 94.031504 
L 255.735121 93.859852 
L 256.256154 93.80316 
L 256.378935 93.883474 
L 256.494632 94.048827 
L 256.641025 94.198432 
L 256.857465 94.21103 
L 257.042424 94.100795 
L 257.129787 93.937017 
L 257.11562 93.738594 
L 257.00071 93.527572 
L 256.914134 93.933867 
L 256.652831 93.848829 
L 256.196337 93.406314 
L 255.772113 93.455132 
L 255.385668 93.651981 
L 255.105475 93.738594 
L 254.996861 93.467731 
L 255.077928 93.042538 
L 255.441549 92.215775 
L 255.52419 91.751213 
L 255.596599 91.511845 
L 255.771326 91.417358 
L 255.991702 91.374839 
L 256.196337 91.291375 
L 256.34273 91.140196 
L 256.736259 90.513431 
L 256.558384 90.560674 
L 256.459214 90.620516 
L 256.256154 90.831537 
L 256.095594 90.897679 
L 255.703639 90.866183 
L 255.52419 90.88508 
L 255.305388 91.034685 
L 255.133809 91.270903 
L 254.298741 93.425211 
L 252.978846 95.275586 
L 252.382256 95.921248 
L 251.754184 96.193686 
L 251.609366 96.447227 
L 251.464547 96.628328 
L 251.285885 96.733838 
L 251.100927 96.730689 
L 251.000183 96.651949 
L 250.927774 96.532266 
L 250.830179 96.403133 
L 250.546838 96.27715 
L 250.361093 96.42203 
L 250.293406 96.741712 
L 250.361093 97.130685 
L 250.435076 97.187377 
L 250.962405 97.724379 
L 251.030091 97.885007 
L 251.045046 98.103903 
L 251.022221 98.522796 
L 250.827818 98.699172 
L 250.383917 98.63933 
L 249.569313 98.319649 
L 248.752347 97.625168 
L 248.467432 97.464539 
L 248.217148 97.218873 
L 248.103812 97.130685 
L 247.982605 97.096039 
L 247.637873 97.048796 
L 247.456063 96.998402 
L 246.719377 96.525966 
L 244.665157 94.105519 
L 243.068217 92.614196 
L 242.445037 92.411216 
L 241.880453 92.139546 
L 241.252533 92.160848 
L 240.228514 91.820504 
L 239.871977 91.658301 
L 239.058946 90.940198 
L 238.632361 90.777995 
L 238.32777 90.781144 
L 238.097162 90.73705 
L 237.950769 90.562249 
L 237.836646 89.908712 
L 237.687892 89.617377 
L 237.371495 89.165413 
L 237.103895 88.889825 
L 236.386886 88.315028 
L 236.307393 88.19062 
L 236.216094 87.987473 
L 236.175167 87.798498 
L 236.249151 87.71346 
L 236.403414 87.751255 
L 236.474249 87.833143 
L 236.515176 87.924481 
L 236.579715 87.978024 
L 237.071626 88.096133 
L 237.303808 88.110306 
L 237.406913 88.171723 
L 237.504301 88.501946 
L 237.75593 88.773948 
L 238.238404 88.753152 
L 238.9303 88.502412 
L 239.915058 87.708384 
L 240.668635 87.332501 
L 241.359618 86.559839 
L 241.505318 85.410054 
L 241.232476 84.823813 
L 241.078536 84.220583 
L 241.020294 84.063104 
L 241.106275 83.861226 
L 241.315523 83.819586 
L 241.587749 83.673739 
L 241.645217 83.201696 
L 241.59091 82.710362 
L 241.058006 80.650693 
L 240.766861 79.836376 
L 240.640932 79.4789 
L 240.470927 79.181265 
L 240.28833 78.95922 
L 240.058509 78.600169 
L 239.60359 77.477346 
L 239.337565 77.134042 
L 239.249414 76.885226 
L 239.220293 76.601764 
L 239.298212 76.381294 
L 239.976413 75.904032 
L 239.893227 75.45217 
L 239.89795 74.891546 
L 240.072522 74.730716 
L 240.302629 74.521404 
L 240.53967 74.461452 
L 240.858981 74.463839 
L 240.942687 74.213249 
L 240.932847 73.936944 
L 240.974163 73.560173 
L 241.073283 73.225949 
L 240.986091 72.781408 
L 241.068765 72.504875 
L 241.404421 72.341656 
L 241.3736 71.869713 
L 240.797486 71.071859 
L 239.645661 69.691977 
L 238.706345 68.038074 
L 238.298257 67.051418 
L 238.048124 66.48533 
L 238.175192 66.086511 
L 238.408698 65.853484 
L 238.679999 65.623915 
L 238.931475 65.351591 
L 239.079265 65.162228 
L 239.225889 64.973799 
L 239.476015 64.702582 
L 239.706462 64.430375 
L 239.769507 64.262839 
L 239.978818 64.179056 
L 240.251278 64.262126 
L 240.523524 64.261713 
L 240.795605 64.094155 
L 241.046505 63.989556 
L 241.33944 64.051937 
L 241.569328 63.968322 
L 241.799356 63.884572 
L 241.758166 64.054083 
L 242.113544 64.221079 
L 242.406142 64.241854 
L 242.636563 64.042011 
L 242.782839 63.979295 
L 242.929039 63.79128 
L 243.13794 63.728587 
L 243.325948 64.000145 
L 243.493093 64.041872 
L 243.84823 64.08355 
L 244.32862 63.895461 
L 244.746453 63.519169 
L 245.184976 63.059529 
L 245.463233 61.855461 
L 245.53643 61.477512 
L 245.790404 60.226551 
L 246.145348 59.265726 
L 246.583696 58.388661 
L 246.824056 57.824007 
L 246.918124 57.719702 
L 247.08526 57.594239 
L 247.356796 57.5524 
L 247.607078 57.469224 
L 247.648722 57.97067 
L 247.919793 58.367773 
L 248.44256 58.597109 
L 248.944047 58.65966 
L 249.985937 58.681154 
L 249.986148 58.451391 
L 249.445451 58.304402 
L 248.860798 58.178983 
L 248.463782 58.179094 
L 248.192281 57.970161 
L 247.983356 57.427009 
L 247.73149 56.969073 
L 247.46024 56.864525 
L 247.314349 56.65529 
L 247.2932 56.196424 
L 247.085116 55.651689 
L 247.025543 55.091752 
L 246.751215 54.480871 
L 246.396129 54.063278 
L 246.166588 53.246343 
L 246.375743 52.972458 
L 246.772159 52.934403 
L 247.399471 52.429983 
L 248.004033 51.515311 
L 248.199833 51.175257 
L 248.249417 50.913842 
L 248.421575 50.491572 
L 248.588901 50.17837 
L 249.006204 50.03196 
L 249.256943 49.635101 
L 249.508398 49.217441 
L 249.863236 49.530817 
L 250.281577 49.321982 
L 250.741535 48.966766 
L 251.284977 48.569689 
L 252.436125 47.315315 
L 253.355059 46.12964 
L 253.682475 45.729644 
L 253.819423 45.345396 
L 253.858776 45.107604 
L 253.954797 45.025715 
L 254.081514 44.983983 
L 254.484049 44.856071 
L 254.776315 44.124939 
L 254.943216 43.477305 
L 255.054317 42.461175 
L 255.02677 41.995825 
L 254.875655 41.171424 
L 254.831579 39.706872 
L 255.00788 39.195854 
L 255.014177 39.028927 
L 255.062974 38.956487 
L 255.272332 39.057273 
L 255.361269 39.153335 
L 255.434465 39.295853 
L 255.52419 39.586401 
L 255.668222 39.586401 
L 255.697343 39.343884 
L 255.895681 38.965148 
L 255.944479 38.794284 
L 255.898829 38.549404 
L 255.78628 38.379327 
L 255.52419 38.12185 
L 255.064548 37.368314 
L 254.926813 36.985641 
L 254.875655 36.595881 
L 254.930749 36.167539 
L 255.064548 35.945494 
L 255.236127 35.762819 
L 255.40377 35.454948 
L 255.441549 35.051015 
L 255.33687 34.658893 
L 255.198348 34.321102 
L 255.066123 33.767564 
L 254.891396 33.536858 
L 254.619861 33.39119 
L 254.270407 33.340797 
L 254.022484 33.24631 
L 253.850906 33.013241 
L 253.739144 32.714032 
L 253.675392 32.416397 
L 253.668308 31.583335 
L 253.887897 30.766021 
L 254.302677 30.073114 
L 254.875655 29.618001 
L 255.206219 29.784928 
L 255.489559 29.818786 
L 256.131011 29.762094 
L 256.419074 29.679418 
L 256.799223 29.325091 
L 257.061313 29.244777 
L 257.337571 29.200683 
L 257.822398 29.010921 
L 258.435516 28.906985 
L 258.799923 28.632972 
L 259.042337 28.571555 
L 259.185582 28.499902 
L 259.774301 28.032191 
L 259.91361 27.885736 
L 260.161533 27.525109 
L 260.303203 27.383379 
L 260.763632 27.173932 
L 261.921394 26.807007 
L 262.428259 26.445593 
L 262.53215 26.644016 
L 262.540021 26.82118 
L 262.151214 28.032191 
L 262.240939 28.321164 
L 262.401499 28.490454 
L 262.60456 28.63061 
L 262.823362 28.836119 
L 263.083091 29.361311 
L 263.219252 29.509341 
L 262.902854 28.641633 
L 262.653357 28.429824 
L 262.57229 28.306991 
L 262.573077 28.199118 
L 262.672247 28.021167 
L 262.691136 27.910932 
L 262.662015 27.425898 
L 262.705303 27.057398 
L 262.87452 26.785747 
L 263.219252 26.591261 
L 264.052746 26.830628 
L 264.967306 26.313311 
L 266.281692 25.113324 
L 266.697259 25.005451 
L 268.058868 25.113324 
L 268.227299 25.073166 
L 268.668051 24.89994 
L 268.856945 24.86057 
L 269.385847 24.870019 
L 269.629835 24.829862 
L 269.847063 24.716477 
L 270.312214 24.962144 
L 270.860006 24.885767 
L 271.414882 24.693643 
L 271.906006 24.584195 
L 272.262543 24.395221 
L 273.722534 22.460595 
L 274.005088 22.306266 
L 274.482045 22.470044 
L 274.859833 22.785001 
L 275.103033 23.18106 
L 275.232898 23.653496 
L 275.273038 24.19916 
L 275.642955 24.003099 
L 275.844442 23.7157 
L 275.929444 23.353499 
L 275.990834 22.503114 
L 276.110467 22.28107 
L 276.282046 22.103906 
L 276.486681 21.810208 
L 276.550432 21.975561 
L 276.663768 22.051938 
L 276.820393 22.040127 
L 277.014009 21.94249 
L 277.188736 21.778713 
L 277.216283 21.641706 
L 277.207625 21.489739 
L 277.27846 21.281867 
L 277.59407 20.923603 
L 277.915977 20.871635 
L 278.732156 21.149585 
L 278.591272 20.870061 
L 278.244967 20.778723 
L 277.84042 20.737778 
L 277.530319 20.608646 
L 277.395732 20.336995 
L 277.462632 20.08188 
L 277.632636 19.855898 
L 278.355155 19.13622 
L 278.466917 18.87953 
L 278.45826 18.58662 
L 278.389786 18.32363 
L 278.42599 18.111034 
" clip-path="url(#pb6f80dfbe8)" style="fill: #f5f5f5; stroke: #000000"/>
    <path d="M 254.611203 97.393674 
L 255.488772 97.42202 
L 256.818113 98.242484 
L 257.649245 98.451931 
L 257.61855 98.601535 
L 257.564243 98.740117 
L 257.486324 98.8661 
L 257.384794 98.981059 
L 257.16914 99.162159 
L 256.196337 99.581053 
L 256.134947 99.75113 
L 255.862625 100.01097 
L 255.800447 100.114905 
L 255.683176 100.41254 
L 255.52419 100.710175 
L 255.36363 100.878677 
L 255.322703 100.881827 
L 255.117519 101.233925 
L 254.885284 101.698466 
L 254.641402 102.139783 
L 254.513639 102.45336 
L 254.199835 102.581233 
L 253.944142 102.871691 
L 253.95591 103.324604 
L 253.661225 103.601483 
L 253.543166 103.880221 
L 253.235009 104.32416 
L 252.542816 104.25502 
L 252.157158 104.480214 
L 251.828955 104.579426 
L 251.357507 104.541631 
L 250.903375 104.423522 
L 250.625544 104.277067 
L 250.511153 103.849758 
L 250.628284 103.163728 
L 250.697811 100.839574 
L 250.766427 100.577893 
L 251.418111 99.377905 
L 251.694368 98.595236 
L 251.970625 98.396813 
L 253.147276 98.055084 
L 254.205082 97.53068 
L 254.611203 97.393674 
" clip-path="url(#pb6f80dfbe8)" style="fill: #f5f5f5; stroke: #000000"/>
    <path d="M 68.893958 71.798665 
L 69.408693 71.967167 
L 69.7975 72.378186 
L 69.822686 72.797079 
L 69.241837 72.989203 
L 68.607469 72.910464 
L 67.044373 72.195511 
L 67.44105 71.798665 
L 67.744854 71.858507 
L 68.653905 71.845908 
L 68.893958 71.798665 
" clip-path="url(#pb6f80dfbe8)" style="fill: #f5f5f5; stroke: #000000"/>
    <path d="M 54.978781 70.141989 
L 55.020495 70.195532 
L 55.111006 70.256948 
L 55.204666 70.343562 
L 55.255825 70.478993 
L 55.242445 70.611275 
L 55.195221 70.686865 
L 55.147211 70.740408 
L 55.123599 70.803399 
L 55.071653 70.87584 
L 54.818221 70.94828 
L 54.726922 70.993949 
L 54.706459 71.078987 
L 54.742663 71.31363 
L 54.726922 71.401818 
L 54.618308 71.523077 
L 53.98394 71.912049 
L 53.858011 71.940395 
L 53.150446 71.836459 
L 52.874189 71.634887 
L 52.609737 71.376622 
L 52.205977 71.137254 
L 52.384639 70.937256 
L 52.550708 70.682141 
L 52.673489 70.406553 
L 52.801779 69.822307 
L 52.990673 69.518373 
L 53.214198 69.411288 
L 53.395221 69.685301 
L 53.779305 69.584514 
L 54.308208 69.690025 
L 54.777294 69.90892 
L 54.978781 70.141989 
" clip-path="url(#pb6f80dfbe8)" style="fill: #f5f5f5; stroke: #000000"/>
    <path d="M 75.725617 59.134229 
L 75.966457 59.285409 
L 76.219102 59.282259 
L 76.473322 59.184623 
L 76.710226 59.05549 
L 76.756663 59.783042 
L 76.400913 60.57201 
L 75.841315 61.26964 
L 75.269124 61.723179 
L 74.580449 61.923177 
L 74.476557 62.04601 
L 74.439565 62.227111 
L 74.212106 62.790884 
L 73.820151 63.379855 
L 73.560422 63.657017 
L 73.276294 63.849141 
L 72.974851 63.945203 
L 72.679705 63.978274 
L 72.020937 63.968825 
L 71.820238 64.031816 
L 71.418838 64.313703 
L 71.151239 64.378269 
L 70.963132 64.321577 
L 70.545205 64.057013 
L 70.358672 63.968825 
L 69.66921 63.868038 
L 69.499992 63.783 
L 69.471658 63.605049 
L 69.593652 63.397177 
L 69.829769 63.108991 
L 69.990329 62.954662 
L 70.760071 62.589312 
L 71.019013 62.384589 
L 71.222861 61.723179 
L 71.423561 61.701132 
L 72.227934 61.505858 
L 72.454606 61.285388 
L 72.748179 60.664922 
L 72.922118 60.441302 
L 73.432919 59.959418 
L 73.540746 59.79564 
L 73.691861 59.672807 
L 74.389194 59.417691 
L 74.596977 59.211394 
L 74.892123 59.197221 
L 75.491074 59.039742 
L 75.725617 59.134229 
" clip-path="url(#pb6f80dfbe8)" style="fill: #f5f5f5; stroke: #000000"/>
    <path d="M 58.629153 56.282291 
L 58.850317 56.480714 
L 58.803093 56.935827 
L 58.556744 57.746842 
L 58.566189 57.975186 
L 58.674803 58.257073 
L 58.701563 58.474394 
L 58.655913 58.529511 
L 58.489057 58.954704 
L 58.496928 59.05549 
L 58.17266 59.184623 
L 57.938904 59.486982 
L 57.735056 59.842883 
L 57.499726 60.126345 
L 57.322638 60.250753 
L 57.221107 60.283824 
L 56.275851 60.260202 
L 56.17983 60.324768 
L 56.0783 60.705867 
L 55.822506 60.90114 
L 55.479349 60.957833 
L 55.123599 60.929486 
L 54.464045 60.702717 
L 54.046904 60.620828 
L 53.917827 60.526341 
L 53.825741 60.431854 
L 53.724211 60.390909 
L 53.579392 60.260202 
L 53.166974 59.655484 
L 52.998544 59.464935 
L 52.71599 59.49643 
L 52.354731 59.411392 
L 52.017083 59.253913 
L 51.8093 59.05549 
L 51.776243 58.809823 
L 51.8093 57.868101 
L 51.922636 57.364169 
L 52.137503 56.894883 
L 52.417695 56.485438 
L 52.7215 56.161032 
L 52.908819 56.035049 
L 53.433787 55.809855 
L 53.658098 55.753162 
L 53.869029 55.761036 
L 54.305059 55.866547 
L 54.451452 55.885444 
L 54.634049 55.833476 
L 54.854425 55.687021 
L 54.978781 55.631904 
L 56.812625 55.424032 
L 57.236062 55.21301 
L 57.343101 55.253955 
L 57.458012 55.320096 
L 57.565052 55.401985 
L 57.645331 55.488598 
L 57.687833 55.677572 
L 57.66973 55.899617 
L 57.68862 56.083867 
L 57.835799 56.161032 
L 58.033351 56.178355 
L 58.4135 56.263393 
L 58.629153 56.282291 
" clip-path="url(#pb6f80dfbe8)" style="fill: #f5f5f5; stroke: #000000"/>
    <path d="M 35.240952 54.630339 
L 35.052058 54.737425 
L 33.71406 55.276002 
L 33.377986 55.346867 
L 33.182009 55.356316 
L 33.000199 55.294899 
L 32.589355 55.020886 
L 32.231244 54.929549 
L 31.651969 54.69648 
L 31.56067 54.683882 
L 31.35761 54.709079 
L 31.267885 54.69648 
L 31.173438 54.628764 
L 31.17029 54.567348 
L 31.184457 54.501207 
L 31.135659 54.419318 
L 30.803521 54.07129 
L 30.549302 53.676018 
L 30.388742 53.241377 
L 30.258877 52.353198 
L 30.013315 51.624071 
L 30.067622 51.379979 
L 31.762157 51.424073 
L 32.480741 51.057148 
L 33.380348 50.850851 
L 33.827396 50.690223 
L 33.958835 50.71227 
L 34.185507 50.850851 
L 34.858442 51.537458 
L 35.037891 51.644544 
L 35.271647 51.824069 
L 35.323593 52.233514 
L 35.240952 52.96579 
L 35.240952 54.630339 
" clip-path="url(#pb6f80dfbe8)" style="fill: #f5f5f5; stroke: #000000"/>
    <path d="M 51.41341 51.379979 
L 51.674713 51.531159 
L 51.545636 51.880762 
L 51.13794 52.504377 
L 50.992334 52.904373 
L 50.642093 53.022482 
L 50.204489 52.96579 
L 49.377292 52.715399 
L 48.027488 52.715399 
L 47.653636 52.59729 
L 47.309692 52.381544 
L 46.947645 52.26501 
L 46.515551 52.438236 
L 46.247164 52.11068 
L 46.121235 51.614623 
L 45.921322 51.200454 
L 45.434134 51.115415 
L 46.255822 49.981569 
L 46.305406 49.723304 
L 46.189709 49.38 
L 46.349482 49.042996 
L 46.667453 48.79418 
L 47.031073 48.724889 
L 47.17117 48.82725 
L 47.228625 48.819376 
L 47.308118 48.724889 
L 47.689054 48.997327 
L 49.008949 49.442992 
L 49.480397 49.518581 
L 50.108468 49.761099 
L 51.115115 50.891795 
L 51.665268 51.247697 
L 51.582627 51.266595 
L 51.531469 51.293366 
L 51.41341 51.379979 
" clip-path="url(#pb6f80dfbe8)" style="fill: #f5f5f5; stroke: #000000"/>
    <path d="M 46.646989 60.005087 
L 46.827226 60.099574 
L 46.946071 60.099574 
L 47.011397 60.165715 
L 47.031073 60.45705 
L 46.935052 60.57201 
L 46.468327 60.762559 
L 46.305406 60.857046 
L 45.698585 62.753089 
L 45.774143 63.2271 
L 45.734003 63.581427 
L 45.315288 63.452295 
L 45.09019 63.775126 
L 44.594343 64.331026 
L 44.37869 64.642834 
L 44.051274 64.491654 
L 43.731728 64.460158 
L 43.117823 64.510551 
L 42.747119 64.611338 
L 42.126131 65.068026 
L 39.90899 65.801877 
L 39.479256 65.697941 
L 39.180962 65.789278 
L 37.443139 65.543612 
L 35.267712 65.575107 
L 34.860016 65.445975 
L 34.568804 65.168812 
L 34.485376 64.965665 
L 34.450746 64.757793 
L 34.449959 64.304254 
L 34.376762 64.085359 
L 34.198887 64.030241 
L 33.975363 64.028667 
L 33.765219 63.968825 
L 33.283539 63.209778 
L 33.459053 62.327897 
L 33.987956 61.499559 
L 34.568804 60.929486 
L 36.826085 59.464935 
L 36.928403 59.307456 
L 36.928403 59.178323 
L 36.994516 59.088561 
L 37.295172 59.05549 
L 37.786296 58.852343 
L 38.458443 58.674392 
L 38.686689 58.671242 
L 38.899195 58.729509 
L 39.021189 58.812973 
L 39.105404 58.890137 
L 39.204573 58.948405 
L 39.53986 59.061789 
L 39.74843 59.077537 
L 39.947556 59.001947 
L 40.046725 58.885413 
L 40.23247 58.597227 
L 40.338723 58.53896 
L 40.343446 58.334238 
L 40.517385 57.931092 
L 40.787346 57.631883 
L 41.076196 57.746842 
L 41.306804 57.427161 
L 41.320971 57.1374 
L 41.17694 56.885434 
L 40.932952 56.677562 
L 40.674797 56.556303 
L 40.104967 56.386227 
L 39.875933 56.282291 
L 39.417866 55.861823 
L 38.959011 55.244506 
L 38.591455 54.5516 
L 38.411219 53.902788 
L 38.44034 53.343738 
L 38.382885 53.145315 
L 38.147555 52.96579 
L 37.994079 52.916971 
L 37.740646 52.8902 
L 37.618652 52.833508 
L 37.550178 52.750044 
L 37.366007 52.438236 
L 36.191717 51.811471 
L 35.746242 51.321712 
L 35.769854 50.707545 
L 35.384196 50.479201 
L 35.13706 50.054009 
L 35.174839 49.657163 
L 35.637629 49.518581 
L 35.285814 49.017799 
L 35.151227 48.731188 
L 35.097707 48.397333 
L 35.097707 47.729624 
L 35.078031 47.559547 
L 34.996964 47.246952 
L 34.978074 47.062701 
L 34.811218 46.419401 
L 34.381485 46.099719 
L 33.784108 46.080822 
L 33.115896 46.335937 
L 32.447684 46.7942 
L 32.107675 46.868215 
L 31.724378 46.665855 
L 31.328489 46.141451 
L 31.267885 46.006807 
L 31.309599 45.838305 
L 31.418213 45.754054 
L 31.565393 45.694999 
L 32.872695 44.969022 
L 33.241825 44.586349 
L 33.380348 43.813129 
L 33.858879 43.965883 
L 34.242176 43.858798 
L 34.609731 43.665886 
L 35.240952 43.495809 
L 35.373177 43.339906 
L 35.488088 43.159592 
L 35.637629 43.021011 
L 35.866662 42.951721 
L 36.225561 42.965894 
L 36.429408 42.890304 
L 36.739509 43.170616 
L 36.886689 43.616281 
L 36.956737 44.029662 
L 37.03072 44.209975 
L 37.287301 44.397375 
L 37.515548 45.224138 
L 37.684765 45.411538 
L 37.805185 45.493426 
L 38.079081 45.85799 
L 38.213668 45.940666 
L 38.628447 45.957989 
L 38.822063 45.998933 
L 38.951141 46.072948 
L 39.088089 46.413102 
L 39.117997 46.8879 
L 39.072348 47.789466 
L 39.429672 49.950073 
L 39.642177 50.287077 
L 40.447337 51.017778 
L 40.522895 51.105966 
L 40.539423 51.217776 
L 40.536275 51.442971 
L 40.598452 51.663441 
L 40.734613 51.754779 
L 40.869987 51.786274 
L 40.932952 51.842967 
L 42.90217 53.087048 
L 43.045414 53.301219 
L 43.091063 53.480745 
L 43.201252 53.638224 
L 43.454684 53.902788 
L 43.54126 53.957905 
L 43.849787 54.03507 
L 43.856083 54.148455 
L 43.807286 54.264989 
L 43.752192 54.362626 
L 43.729367 54.419318 
L 43.901733 55.156318 
L 43.982013 55.95631 
L 43.868676 56.32166 
L 43.346857 56.7689 
L 43.190233 57.074408 
L 43.62154 56.790947 
L 43.749044 56.957874 
L 43.762424 57.320075 
L 43.849787 57.61456 
L 44.668327 57.76574 
L 45.069726 57.975186 
L 45.038244 58.408253 
L 45.308992 58.444473 
L 45.533303 58.548409 
L 45.712752 58.718486 
L 45.842617 58.948405 
L 45.710391 59.211394 
L 45.97012 59.320054 
L 46.646989 60.005087 
" clip-path="url(#pb6f80dfbe8)" style="fill: #f5f5f5; stroke: #000000"/>
    <path d="M 52.404315 40.380094 
L 52.216209 40.310803 
L 52.030463 40.15175 
L 51.880922 39.975374 
L 51.8093 39.850965 
L 51.852588 39.4116 
L 52.158753 39.087981 
L 52.584551 38.880109 
L 52.998544 38.794284 
L 53.436148 38.93444 
L 53.900512 39.158847 
L 54.276725 39.463568 
L 54.451452 39.850965 
L 54.323949 40.132852 
L 53.98394 40.446235 
L 53.549484 40.691902 
L 53.141788 40.775365 
L 52.909606 40.698201 
L 52.655387 40.435211 
L 52.404315 40.380094 
" clip-path="url(#pb6f80dfbe8)" style="fill: #f5f5f5; stroke: #000000"/>
    <path d="M 46.911441 33.220326 
L 47.700072 33.663628 
L 47.941699 34.538422 
L 47.630811 35.151802 
L 46.766622 34.805349 
L 46.90357 34.395904 
L 46.772919 33.567566 
L 46.911441 33.220326 
" clip-path="url(#pb6f80dfbe8)" style="fill: #f5f5f5; stroke: #000000"/>
    <path d="M 277.014009 19.274802 
L 277.017157 19.459052 
L 277.043917 19.588184 
L 277.135216 19.816528 
L 277.154105 20.46534 
L 277.060445 21.26297 
L 276.804652 21.769264 
L 276.342649 21.545644 
L 276.15769 21.762965 
L 275.945972 21.94249 
L 275.554017 21.643281 
L 275.265167 21.323599 
L 275.200629 20.965335 
L 275.483969 20.548804 
L 277.014009 19.274802 
" clip-path="url(#pb6f80dfbe8)" style="fill: #f5f5f5; stroke: #000000"/>
    <path d="M 27.154722 19.037796 
L 27.24366 19.070867 
L 27.313708 19.216534 
L 27.279077 19.309447 
L 27.182269 19.392911 
L 27.087822 19.335431 
L 27.035877 19.219684 
L 27.03509 19.109449 
L 27.154722 19.037796 
" clip-path="url(#pb6f80dfbe8)" style="fill: #f5f5f5; stroke: #000000"/>
    <path d="M 27.099628 18.881892 
L 27.186205 18.876381 
L 27.129537 18.942522 
L 27.099628 18.881892 
" clip-path="url(#pb6f80dfbe8)" style="fill: #f5f5f5; stroke: #000000"/>
    <path d="M 23.432727 13.770134 
L 23.53898 13.659112 
L 23.660187 13.74415 
L 23.660187 13.914227 
L 23.527961 13.944936 
L 23.432727 13.770134 
" clip-path="url(#pb6f80dfbe8)" style="fill: #f5f5f5; stroke: #000000"/>
    <path d="M 259.258206 93.971192 
L 259.463877 94.469941 
L 259.933631 94.645695 
L 260.168649 95.056327 
L 259.757912 95.672716 
L 259.082918 96.025101 
L 258.995204 96.875899 
L 258.525675 97.16943 
L 258.144072 97.140241 
L 258.055835 96.70024 
L 258.319716 95.966712 
L 258.73023 94.910338 
L 259.258206 93.971192 
" clip-path="url(#pb6f80dfbe8)" style="fill: #f5f5f5; stroke: #000000"/>
   </g>
  </g>
 </g>
 <defs>
  <clipPath id="pb6f80dfbe8">
   <rect x="7.2" y="7.2" width="357.12" height="142.100463"/>
  </clipPath>
 </defs>
</svg>
