<?xml version="1.0" encoding="utf-8" standalone="no"?>
<!DOCTYPE svg PUBLIC "-//W3C//DTD SVG 1.1//EN"
  "http://www.w3.org/Graphics/SVG/1.1/DTD/svg11.dtd">
<svg xmlns:xlink="http://www.w3.org/1999/xlink" width="314.516919pt" height="280.512pt" viewBox="0 0 314.516919 280.512" xmlns="http://www.w3.org/2000/svg" version="1.1">
 <metadata>
  <rdf:RDF xmlns:dc="http://purl.org/dc/elements/1.1/" xmlns:cc="http://creativecommons.org/ns#" xmlns:rdf="http://www.w3.org/1999/02/22-rdf-syntax-ns#">
   <cc:Work>
    <dc:type rdf:resource="http://purl.org/dc/dcmitype/StillImage"/>
    <dc:date>2024-03-04T13:11:10.318646</dc:date>
    <dc:format>image/svg+xml</dc:format>
    <dc:creator>
     <cc:Agent>
      <dc:title>Matplotlib v3.8.0, https://matplotlib.org/</dc:title>
     </cc:Agent>
    </dc:creator>
   </cc:Work>
  </rdf:RDF>
 </metadata>
 <defs>
  <style type="text/css">*{stroke-linejoin: round; stroke-linecap: butt}</style>
 </defs>
 <g id="figure_1">
  <g id="patch_1">
   <path d="M 0 280.512 
L 314.516919 280.512 
L 314.516919 0 
L 0 0 
z
" style="fill: #ffffff"/>
  </g>
  <g id="axes_1">
   <g id="PatchCollection_1">
    <path d="M 234.446274 30.438695 
L 234.675529 31.122353 
L 235.555361 33.760563 
L 236.259689 35.870873 
L 237.116428 38.051052 
L 238.254899 40.958389 
L 239.631224 44.466084 
L 240.11848 46.457357 
L 240.166975 47.492457 
L 240.300912 47.918142 
L 240.65654 48.387819 
L 240.87823 48.698349 
L 240.873612 49.038638 
L 240.661159 49.786497 
L 240.621901 50.226415 
L 240.670396 50.514949 
L 240.825117 50.750434 
L 242.044412 51.786828 
L 242.291504 52.145231 
L 243.03278 54.210255 
L 244.351373 57.902974 
L 245.21735 60.316051 
L 245.2797 60.455789 
L 245.318958 60.603291 
L 245.332813 60.753381 
L 245.321267 60.907352 
L 245.462132 62.267214 
L 246.441263 64.884723 
L 247.316477 67.238281 
L 247.891485 69.81568 
L 247.849918 71.546238 
L 248.006949 72.145302 
L 248.517298 73.182343 
L 248.709922 73.538902 
L 248.455356 73.670327 
L 248.266251 73.810921 
L 248.106238 73.987173 
L 247.946226 74.221497 
L 247.82258 74.513892 
L 247.749847 74.771649 
L 247.624382 74.969296 
L 247.338906 75.077288 
L 247.417094 75.099702 
L 247.480735 75.101739 
L 247.515283 75.138416 
L 247.504373 75.264747 
L 247.313449 75.358477 
L 247.166165 75.488883 
L 247.111615 75.633553 
L 247.198895 75.776184 
L 246.986151 75.815918 
L 246.887961 75.883158 
L 246.904326 75.979944 
L 247.046156 76.103219 
L 246.786135 76.347731 
L 246.27155 77.143413 
L 246.16245 77.249368 
L 245.922432 77.37468 
L 245.811514 77.469429 
L 245.720598 77.619192 
L 245.649683 77.766918 
L 245.542402 77.901399 
L 245.355115 78.015505 
L 245.355115 78.169344 
L 245.549675 78.514716 
L 245.475124 78.873334 
L 245.300565 79.220744 
L 245.186011 79.537591 
L 245.186011 80.828409 
L 245.066001 81.135068 
L 244.8078 81.366335 
L 244.545961 81.543606 
L 244.425952 81.690313 
L 244.400495 82.041799 
L 244.316852 82.442187 
L 244.176841 82.828312 
L 243.969552 83.142102 
L 244.024102 83.43246 
L 243.969552 84.947414 
L 244.015011 85.187851 
L 244.236846 85.497566 
L 244.285941 85.79913 
L 244.218663 86.092544 
L 244.051377 86.231101 
L 243.847725 86.305473 
L 243.347686 86.624357 
L 243.269498 86.758839 
L 243.204038 87.090967 
L 243.218585 87.243787 
L 243.331321 87.753187 
L 243.356777 89.242671 
L 242.760367 89.668529 
L 242.760367 89.825424 
L 242.825827 90.051597 
L 242.891287 90.391876 
L 242.891287 90.756606 
L 242.760367 91.052058 
L 242.840374 91.140694 
L 242.913107 91.25378 
L 243.051299 91.550251 
L 242.847647 91.684732 
L 242.813099 91.82227 
L 242.862193 91.97509 
L 242.900378 92.156436 
L 242.851284 92.419287 
L 242.747639 92.589426 
L 242.643995 92.714738 
L 242.5949 92.840051 
L 242.474891 93.283228 
L 241.951213 94.012688 
L 241.64028 95.169025 
L 240.742028 96.507727 
L 240.456552 97.222924 
L 240.434732 97.289146 
L 240.43655 97.352312 
L 240.411094 97.391026 
L 240.305631 97.376763 
L 240.596562 98.144938 
L 240.327451 98.633961 
L 239.81832 99.010917 
L 239.376468 99.444925 
L 239.441927 99.497903 
L 239.461929 99.50911 
L 239.516478 99.631365 
L 239.212818 99.779091 
L 239.047351 100.108163 
L 238.836425 101.220692 
L 238.754601 101.495768 
L 238.490944 101.914494 
L 238.447304 101.930795 
L 238.378208 102.216059 
L 238.06182 102.83447 
L 237.989087 103.135016 
L 238.010907 103.556798 
L 238.07273 103.882814 
L 238.170919 104.159927 
L 238.294565 104.432966 
L 238.294565 104.588842 
L 238.123643 105.009606 
L 238.307293 105.384524 
L 238.601862 105.728878 
L 238.798241 106.132322 
L 239.007348 106.330988 
L 239.070989 106.468526 
L 239.069171 106.653948 
L 239.010984 106.759903 
L 238.95098 106.832237 
L 238.920068 106.911704 
L 238.901885 107.224475 
L 238.697995 108.103876 
L 238.43242 108.805289 
L 238.818366 109.506428 
L 238.447304 111.271145 
L 238.61459 111.458604 
L 238.032727 111.545202 
L 237.850894 111.629762 
L 237.778161 111.771376 
L 237.709065 112.003662 
L 237.610875 112.21761 
L 237.319944 112.394881 
L 237.183569 112.758592 
L 236.9981 112.841115 
L 236.828996 112.862509 
L 236.519881 112.96337 
L 236.299864 112.996991 
L 236.345322 113.097852 
L 236.348959 113.122303 
L 236.370779 113.131472 
L 236.465332 113.183431 
L 236.298046 113.562424 
L 236.068937 114.320411 
L 235.852557 114.551678 
L 235.699818 114.551678 
L 235.628903 114.419234 
L 235.443434 114.356069 
L 235.29615 114.241963 
L 235.141592 114.393764 
L 234.990671 114.94901 
L 234.785201 115.234274 
L 234.968852 115.54297 
L 234.687011 115.811933 
L 234.248795 116.001429 
L 233.948772 116.073764 
L 233.741483 116.056445 
L 233.681479 116.067651 
L 233.770576 116.460908 
L 233.839673 116.609652 
L 234.647008 116.617803 
L 234.647008 116.77266 
L 234.479723 116.77266 
L 234.479723 116.943819 
L 234.596095 117.046717 
L 234.672465 117.161842 
L 234.785201 117.456274 
L 234.567002 117.346244 
L 234.479723 117.286135 
L 234.510634 117.379865 
L 234.510634 117.425711 
L 234.537909 117.445068 
L 234.647008 117.456274 
L 234.647008 117.642715 
L 234.479723 117.642715 
L 234.370623 117.422654 
L 233.981502 116.901029 
L 233.556014 116.456833 
L 233.36509 116.300956 
L 233.1378 116.185832 
L 232.803228 116.073764 
L 230.650333 115.837403 
L 230.113928 115.491011 
L 228.619266 113.68468 
L 228.504712 113.602157 
L 228.31197 113.620496 
L 227.037325 112.456009 
L 226.751848 112.304207 
L 226.459098 112.285869 
L 226.202714 112.483516 
L 225.893599 111.815184 
L 225.744497 111.970041 
L 225.542663 111.727567 
L 224.766239 111.071461 
L 224.582588 110.982825 
L 224.522584 110.946148 
L 224.438941 110.835099 
L 224.358934 110.621151 
L 224.28802 110.518253 
L 224.133462 110.397016 
L 223.96254 110.3257 
L 223.609785 110.246233 
L 223.622514 109.619672 
L 222.551521 108.962546 
L 222.540611 108.520388 
L 222.226041 108.247349 
L 221.844193 107.733875 
L 221.580536 107.191874 
L 221.625994 106.827143 
L 221.518713 106.747677 
L 221.427797 106.697756 
L 221.355064 106.621346 
L 221.307788 106.468526 
L 221.167777 106.468526 
L 221.167777 106.655985 
L 221.002309 106.655985 
L 220.933213 106.532711 
L 220.736834 106.307556 
L 220.696831 106.22809 
L 220.365896 105.005531 
L 220.245887 104.822147 
L 220.085874 104.931158 
L 219.913134 104.593936 
L 219.387638 103.817611 
L 219.171258 103.408054 
L 216.249212 101.673039 
L 216.105565 101.410189 
L 216.009193 101.376568 
L 215.494608 100.469837 
L 215.063665 100.074543 
L 214.79819 99.77196 
L 214.801827 99.631365 
L 213.372624 98.585059 
L 213.139879 98.342585 
L 213.039871 98.155126 
L 212.968957 97.950347 
L 212.783488 97.638594 
L 212.538014 97.354349 
L 212.277994 97.222924 
L 212.418005 97.036484 
L 212.418005 97.222924 
L 212.581654 97.222924 
L 212.428915 96.398716 
L 212.052522 96.337588 
L 211.863416 96.672773 
L 212.277994 97.036484 
L 211.903419 96.911172 
L 211.6634 96.59025 
L 211.539754 96.128734 
L 211.44702 95.123179 
L 211.303372 94.697321 
L 210.906978 93.94341 
L 211.128813 93.445217 
L 211.419745 92.292956 
L 211.654309 91.721409 
L 211.376105 91.388262 
L 211.248823 91.190615 
L 211.128813 90.687328 
L 210.966983 90.566091 
L 210.770604 90.492738 
L 210.597863 90.353162 
L 210.454215 89.890627 
L 210.383301 88.778099 
L 210.292385 88.457177 
L 210.292385 88.303338 
L 210.486945 88.069014 
L 210.521493 87.853029 
L 210.432396 87.276389 
L 210.386937 87.143945 
L 210.299658 86.78329 
L 210.259655 86.408372 
L 210.365118 86.235176 
L 210.528767 86.070131 
L 210.368754 85.731889 
L 210.110552 85.455795 
L 209.974178 85.474133 
L 209.92872 85.204151 
L 209.794164 85.014655 
L 209.60324 84.94232 
L 209.379586 85.022805 
L 209.146841 84.729391 
L 208.543157 84.40745 
L 208.310412 84.184333 
L 208.032209 83.554716 
L 207.990387 83.40699 
L 207.921291 83.270471 
L 207.595811 83.015771 
L 207.519441 82.894534 
L 207.452163 82.851744 
L 207.077589 82.288348 
L 207.008493 82.241484 
L 206.823024 82.157942 
L 206.757564 82.118209 
L 206.721197 82.044855 
L 206.663011 81.842114 
L 206.619371 81.774874 
L 205.61202 80.748943 
L 205.259265 80.635856 
L 204.761045 80.362818 
L 204.288281 80.024577 
L 203.997349 79.723012 
L 203.875521 79.327718 
L 203.771877 78.811187 
L 203.611864 78.361897 
L 203.319114 78.169344 
L 203.111825 78.088858 
L 202.964541 77.891211 
L 202.511779 76.818416 
L 202.473594 76.801096 
L 202.555419 75.867876 
L 202.469957 75.442018 
L 201.868092 75.156755 
L 200.778917 74.392655 
L 200.949839 74.392655 
L 200.864378 74.213347 
L 200.768007 74.122674 
L 200.647997 74.08294 
L 200.487985 74.050339 
L 200.542534 73.994305 
L 200.602539 73.944384 
L 200.640724 73.858805 
L 200.626177 73.694778 
L 200.487985 73.694778 
L 200.382522 73.908726 
L 200.329791 74.104335 
L 200.36252 74.269381 
L 200.487985 74.392655 
L 200.186143 74.392655 
L 200.353429 73.471661 
L 200.389795 72.300042 
L 200.127957 71.27513 
L 199.422447 70.788144 
L 199.422447 70.632268 
L 199.557003 70.331722 
L 199.53882 69.978199 
L 199.458814 69.608375 
L 199.422447 69.249757 
L 199.476997 68.880952 
L 199.669739 68.369515 
L 199.713379 68.131116 
L 199.697014 67.710352 
L 199.642464 67.44037 
L 199.555185 67.234573 
L 199.422447 67.010437 
L 198.87695 66.352293 
L 198.800581 66.071104 
L 198.698755 65.91319 
L 198.185987 65.396659 
L 197.71686 65.173542 
L 197.829596 64.930049 
L 198.062341 64.697763 
L 198.185987 64.618297 
L 198.182351 63.919401 
L 197.895056 63.431396 
L 196.980439 62.551153 
L 197.178636 62.422785 
L 197.265916 62.305623 
L 197.247732 62.187442 
L 197.12045 62.052961 
L 197.247732 62.007115 
L 197.291372 61.961269 
L 197.247732 61.914404 
L 197.12045 61.867539 
L 197.029534 61.718795 
L 196.924071 61.582275 
L 196.800425 61.462057 
L 196.758604 61.362215 
L 196.78406 61.29803 
L 196.858611 61.246072 
L 196.947709 61.20532 
L 197.12045 61.182906 
L 197.12045 61.029068 
L 197.067718 60.845684 
L 197.067718 60.698977 
L 197.12045 60.485029 
L 196.980439 60.485029 
L 196.691326 61.093252 
L 196.665869 61.360177 
L 196.724055 61.557824 
L 196.847701 61.696381 
L 196.956801 61.878746 
L 196.980439 62.208837 
L 196.814972 62.208837 
L 196.76224 61.89199 
L 196.587681 61.719813 
L 196.336752 61.708607 
L 196.053094 61.867539 
L 195.682156 61.733058 
L 195.245758 62.007115 
L 194.865729 62.468631 
L 194.665713 62.89347 
L 194.640257 63.352948 
L 194.776631 63.725829 
L 195.091201 63.986641 
L 195.594877 64.104822 
L 195.193027 64.424725 
L 193.325609 66.982929 
L 193.214691 67.181595 
L 192.987401 67.422032 
L 192.341896 68.57735 
L 192.210977 68.98487 
L 192.19643 70.020988 
L 192.065511 70.44379 
L 191.754577 70.788144 
L 191.754577 70.974584 
L 191.992778 71.161025 
L 192.245525 71.505379 
L 192.447359 71.857883 
L 192.629191 72.38664 
L 192.872846 72.648471 
L 194.011117 73.3708 
L 194.294775 73.60818 
L 195.322128 74.789987 
L 196.020364 75.201582 
L 196.654959 75.8475 
L 197.196819 76.566773 
L 197.425928 77.057834 
L 197.513208 77.674207 
L 197.73868 78.499435 
L 198.033248 79.269647 
L 198.338727 79.723012 
L 198.338727 79.879907 
L 198.256902 80.32716 
L 198.871495 82.788579 
L 198.933318 83.035128 
L 198.949683 83.578148 
L 198.826037 83.783945 
L 198.604202 83.98363 
L 198.486011 84.272969 
L 198.245992 84.380962 
L 198.167804 84.60306 
L 198.338727 84.867948 
L 198.224172 85.611671 
L 198.185987 86.491913 
L 198.333272 86.762914 
L 199.018779 87.459773 
L 199.255162 87.773563 
L 199.326076 88.03845 
L 199.342441 88.543775 
L 199.422447 88.799493 
L 199.927941 89.346589 
L 200.018857 89.405679 
L 200.949839 90.695479 
L 201.738991 90.831998 
L 202.23903 91.363811 
L 202.546327 92.121797 
L 203.542768 95.83532 
L 203.624593 96.351851 
L 203.862793 96.439468 
L 204.928331 97.036484 
L 205.468373 97.551996 
L 205.739303 97.884125 
L 205.94841 98.332397 
L 206.16479 98.413901 
L 206.415719 98.472991 
L 206.619371 98.591172 
L 206.692104 98.74501 
L 206.844843 99.253391 
L 207.486712 100.477987 
L 207.688545 100.658315 
L 207.694 100.767326 
L 207.661271 100.79789 
L 207.597629 100.795853 
L 207.519441 100.812154 
L 208.510428 101.618024 
L 208.937734 102.15595 
L 208.906822 102.693876 
L 209.077745 102.83447 
L 209.230484 103.115658 
L 209.339583 103.427411 
L 209.379586 103.64849 
L 209.470502 103.732032 
L 209.974178 104.432966 
L 211.034261 105.554663 
L 211.294281 106.091571 
L 211.517935 106.224014 
L 211.774318 106.332007 
L 211.959787 106.468526 
L 212.067068 106.802692 
L 212.052522 107.079806 
L 212.125255 107.269302 
L 212.499829 107.339599 
L 212.881677 107.532152 
L 213.623553 108.43379 
L 214.109045 108.707847 
L 214.078134 108.864742 
L 214.109045 109.068501 
L 214.109045 109.219284 
L 214.063587 109.425081 
L 214.230873 109.579939 
L 214.496348 109.643104 
L 214.73273 109.577901 
L 214.925473 109.948744 
L 215.41642 110.164729 
L 216.423771 110.432673 
L 218.005712 111.872237 
L 218.516661 112.939938 
L 218.783955 113.183431 
L 218.940331 113.43915 
L 219.427641 114.590393 
L 219.476736 114.891957 
L 219.476736 115.047833 
L 219.585836 115.240386 
L 219.671297 115.726354 
L 219.782214 115.918907 
L 219.782214 116.073764 
L 219.629475 116.073764 
L 219.323997 116.073764 
L 219.067613 115.518519 
L 218.5403 115.201672 
L 217.94389 114.979574 
L 217.478399 114.705517 
L 217.327478 114.705517 
L 217.191104 115.063115 
L 217.132917 115.274007 
L 217.176557 115.457391 
L 217.327478 115.731448 
L 217.752966 116.167494 
L 217.987529 116.478227 
L 218.089355 116.858239 
L 218.233003 117.058943 
L 218.554846 116.962157 
L 218.874871 116.81545 
L 219.018519 116.858239 
L 218.985789 117.199537 
L 218.898509 117.560192 
L 218.751225 117.895377 
L 218.547573 118.156189 
L 218.636671 118.244825 
L 218.75668 118.403758 
L 218.853051 118.482205 
L 219.256719 118.777657 
L 219.400367 118.824522 
L 219.465826 118.923345 
L 219.682207 119.384861 
L 219.782214 119.523418 
L 219.782214 119.694576 
L 219.547651 119.497948 
L 219.018519 118.824522 
L 218.853051 118.824522 
L 218.853051 119.009943 
L 218.931239 119.143406 
L 219.018519 119.36856 
L 218.853051 119.36856 
L 218.71304 118.879537 
L 218.318464 118.920289 
L 217.885703 119.26668 
L 217.643866 119.694576 
L 218.165725 119.965577 
L 218.536663 120.456638 
L 219.171258 121.575279 
L 219.083978 121.734212 
L 219.02761 121.935934 
L 218.998517 122.174333 
L 219.018519 122.445334 
L 219.389457 122.718372 
L 220.365896 123.162568 
L 220.696831 123.470246 
L 220.762291 123.698457 
L 220.791384 124.247589 
L 220.862299 124.497195 
L 221.013219 124.706049 
L 221.391431 125.110512 
L 221.549625 125.359099 
L 221.691454 125.866461 
L 221.855103 126.97899 
L 222.007842 127.325381 
L 222.7479 128.03039 
L 223.609785 128.615181 
L 224.555313 129.071603 
L 224.995348 129.382337 
L 225.286279 129.811251 
L 225.333556 130.074101 
L 225.286279 131.023622 
L 225.235366 131.107164 
L 225.031714 131.274247 
L 224.980801 131.365939 
L 224.995348 131.512646 
L 225.106265 131.730669 
L 225.13354 131.879413 
L 225.15536 132.432621 
L 225.249913 132.861536 
L 225.482658 133.20589 
L 225.902691 133.50236 
L 226.286357 133.861996 
L 226.693662 134.414186 
L 226.857311 134.829856 
L 226.522739 134.785028 
L 226.526376 135.186435 
L 226.682752 135.528752 
L 227.130059 136.152257 
L 227.320983 136.53125 
L 227.602823 137.272936 
L 227.817386 137.613215 
L 228.101044 137.841426 
L 228.424706 138.014622 
L 228.695636 138.203099 
L 228.81019 138.475119 
L 228.957474 139.267744 
L 228.977476 139.667114 
L 228.81019 139.944227 
L 228.442889 139.963584 
L 228.199234 139.731298 
L 227.995581 139.645719 
L 227.741016 140.116404 
L 227.686466 140.447514 
L 227.686466 140.892729 
L 227.730106 141.33285 
L 227.817386 141.661922 
L 227.822841 142.310897 
L 227.380988 143.831964 
L 227.588277 144.560406 
L 227.901028 144.823256 
L 228.624721 145.046373 
L 228.977476 145.258283 
L 229.210221 145.60875 
L 229.432057 146.383037 
L 230.157568 147.344784 
L 230.475774 148.031454 
L 231.23947 150.240211 
L 231.570405 150.900393 
L 232.024986 151.601326 
L 232.323191 152.231963 
L 232.863233 153.039871 
L 234.750653 157.430895 
L 235.623448 158.72477 
L 236.465332 160.878511 
L 238.225469 163.34808 
L 238.392755 163.672058 
L 238.610953 164.381142 
L 240.109252 166.640839 
L 240.923861 167.541457 
L 241.10933 167.807364 
L 243.051299 171.70427 
L 243.356777 172.890152 
L 243.898638 173.949703 
L 244.133202 175.227277 
L 244.536869 175.920061 
L 245.506036 177.165033 
L 245.640592 177.477805 
L 245.851517 178.208284 
L 245.98971 178.547544 
L 246.658853 179.591813 
L 246.926146 180.662571 
L 247.960772 182.485202 
L 249.880922 185.876784 
L 249.968201 186.680617 
L 250.20685 187.35956 
L 250.56821 187.803524 
L 251.011919 188.339222 
L 251.084652 188.797681 
L 251.104653 189.733958 
L 251.164658 190.203624 
L 251.290122 190.577523 
L 251.470136 190.857693 
L 251.728338 191.089979 
L 252.081093 191.322266 
L 252.65932 191.867323 
L 253.044805 192.585577 
L 253.564845 194.551859 
L 253.688491 194.879912 
L 254.077612 195.533981 
L 254.503257 196.329279 
L 254.821786 196.611704 
L 254.830398 197.015315 
L 254.468196 197.787076 
L 254.470697 198.47483 
L 255.390442 198.838965 
L 256.50169 200.980649 
L 259.521673 203.334926 
L 259.996255 203.918698 
L 260.818252 206.34311 
L 261.423577 207.018257 
L 262.274669 208.272366 
L 262.64737 208.213955 
L 262.481425 207.866577 
L 262.273294 207.519002 
L 262.499702 207.480222 
L 262.953042 207.962519 
L 263.575751 208.232304 
L 264.387113 209.100192 
L 264.707822 209.79465 
L 264.764464 210.527861 
L 265.443042 210.952318 
L 266.140583 210.817414 
L 266.687225 210.972008 
L 267.271819 211.165384 
L 267.743095 211.416702 
L 268.082178 211.783707 
L 268.553145 212.904095 
L 268.948849 213.445441 
L 268.797885 213.676919 
L 268.458662 213.193578 
L 268.006408 212.690986 
L 267.685919 212.671325 
L 266.874988 213.056415 
L 266.535413 213.229483 
L 266.083043 213.035863 
L 265.669141 212.862782 
L 265.254715 212.785624 
L 264.95328 212.824225 
L 264.614151 212.766349 
L 264.199632 212.592709 
L 264.048827 212.38047 
L 263.792914 212.071128 
L 263.561987 211.990643 
L 263.541986 211.863293 
L 263.200743 211.705324 
L 262.72374 211.571917 
L 262.522526 211.725089 
L 262.216428 212.311565 
L 262.052194 213.057448 
L 262.203839 214.254055 
L 261.997548 215.296821 
L 261.848792 216.058807 
L 262.037731 216.695478 
L 262.451031 216.790426 
L 262.639315 217.098797 
L 262.620855 217.465589 
L 262.549181 217.644978 
L 262.583789 218.063922 
L 262.602843 218.353375 
L 262.640937 218.912968 
L 262.536453 219.95052 
L 262.494631 222.124638 
L 262.445537 222.517894 
L 262.227338 223.213734 
L 262.176425 223.592727 
L 262.263704 223.959495 
L 262.470993 224.338488 
L 262.952849 225.046553 
L 263.336515 225.782126 
L 263.474708 226.172326 
L 263.561987 226.58494 
L 263.536531 227.768785 
L 263.712298 228.974069 
L 263.918379 229.891962 
L 264.081196 230.7148 
L 265.118086 232.549392 
L 260.830802 236.579579 
L 255.979584 241.388556 
L 258.966205 238.499765 
L 262.114627 235.454471 
L 265.118086 232.549392 
L 265.432763 233.259657 
L 265.867826 234.190466 
L 266.16219 236.472385 
L 266.32402 236.872773 
L 266.776383 237.736427 
L 267.709583 238.941954 
L 268.304175 239.281214 
L 268.035063 238.892033 
L 267.404104 237.742828 
L 267.840502 237.757091 
L 268.125979 237.982246 
L 268.320539 238.349013 
L 268.47146 238.784041 
L 268.711479 240.01475 
L 268.778757 240.213416 
L 269.14424 240.479322 
L 269.329709 240.760511 
L 269.487903 241.072263 
L 269.777017 241.424768 
L 270.178011 241.971284 
L 271.036374 242.654683 
L 271.845386 242.994673 
L 272.248118 243.132275 
L 272.313578 243.228042 
L 272.597236 243.435877 
L 272.902714 243.598885 
L 273.235468 243.703821 
L 274.479201 243.794494 
L 276.279341 244.157187 
L 278.003112 244.758278 
L 278.635888 245.164779 
L 279.721427 246.243688 
L 280.076 246.848854 
L 280.206268 248.005194 
L 280.587169 248.766013 
L 281.252143 249.379027 
L 281.95251 249.926646 
L 282.296053 250.089552 
L 282.628009 250.23647 
L 282.556529 249.843703 
L 282.675032 249.843544 
L 283.149617 250.407696 
L 283.031727 251.119768 
L 283.411557 252.150394 
L 284.928134 252.861358 
L 285.662657 253.303098 
L 286.160176 253.646826 
L 287.511157 254.826333 
L 289.531282 256.840217 
L 289.95677 257.078616 
L 290.287705 257.044996 
L 290.371347 256.895232 
L 290.414987 256.739356 
L 290.494993 256.645626 
L 290.675007 256.694529 
L 291.06231 256.957379 
L 291.244143 257.128537 
L 291.362334 257.299695 
L 291.66963 258.051569 
L 291.866009 258.350077 
L 292.202399 258.675074 
L 293.066588 259.2194 
L 293.590386 259.419188 
L 293.675241 260.327566 
L 293.658876 260.637281 
L 293.511592 260.906244 
L 293.331578 261.158906 
L 293.327941 261.182339 
L 288.105126 261.182359 
L 282.906957 261.183653 
L 277.708789 261.184947 
L 272.508311 261.184947 
L 267.310143 261.184947 
L 262.109665 261.186241 
L 256.911497 261.186241 
L 251.713328 261.186241 
L 246.51516 261.186241 
L 241.314682 261.187535 
L 236.116514 261.188829 
L 230.918345 261.188829 
L 230.778099 261.188829 
L 230.598187 261.188829 
L 225.717868 261.188829 
L 220.519699 261.188829 
L 215.320376 261.188829 
L 210.600889 261.189954 
L 210.123291 261.190122 
L 210.100215 261.190122 
L 207.83603 261.190122 
L 205.549852 261.190122 
L 203.261365 261.190122 
L 200.975187 261.190122 
L 198.685545 261.190122 
L 196.397057 261.190122 
L 195.929733 261.190122 
L 194.109725 261.190122 
L 191.823547 261.190122 
L 189.535059 261.190122 
L 187.248881 261.190122 
L 184.960394 261.190122 
L 182.674216 261.190122 
L 180.385729 261.190122 
L 178.099551 261.190122 
L 175.811063 261.190122 
L 173.524885 261.190122 
L 172.920345 261.190528 
L 171.596644 261.191416 
L 172.310209 258.968539 
L 172.827486 257.364135 
L 172.855197 256.737899 
L 172.6566 256.181533 
L 172.164725 255.679509 
L 171.753675 255.462139 
L 171.32415 255.392269 
L 170.894626 255.47249 
L 170.476648 255.705387 
L 169.89933 256.365263 
L 168.891107 258.514299 
L 168.813973 258.678711 
L 167.712451 261.030976 
L 167.416864 261.216 
L 166.56128 261.216 
L 164.38941 261.216 
L 162.214077 261.214706 
L 160.03759 261.213412 
L 157.861102 261.213412 
L 155.688078 261.213412 
L 153.512745 261.213412 
L 151.337412 261.213412 
L 149.164389 261.213412 
L 146.991365 261.212118 
L 144.816032 261.212118 
L 142.637235 261.212118 
L 140.465366 261.212118 
L 138.290033 261.212118 
L 136.117009 261.210825 
L 133.943985 261.209531 
L 131.768652 261.209531 
L 129.593319 261.209531 
L 127.417986 261.209531 
L 125.241498 261.208237 
L 123.069629 261.208237 
L 120.896606 261.208237 
L 118.721273 261.208237 
L 116.54594 261.208237 
L 114.372916 261.206943 
L 112.197583 261.205649 
L 110.02225 261.205649 
L 107.846917 261.205649 
L 105.670429 261.205649 
L 103.49856 261.205649 
L 101.323227 261.205649 
L 99.146739 261.204355 
L 96.97487 261.204355 
L 94.799537 261.204355 
L 92.624204 261.203061 
L 90.448871 261.201767 
L 88.275847 261.201767 
L 86.100514 261.201767 
L 83.925181 261.201767 
L 81.749848 261.201767 
L 79.574515 261.201767 
L 77.401491 261.200473 
L 75.226158 261.200473 
L 73.050825 261.200473 
L 70.877802 261.200473 
L 68.702469 261.200473 
L 66.529445 261.19918 
L 64.354112 261.197886 
L 62.178779 261.197886 
L 60.003446 261.197886 
L 57.830422 261.197886 
L 55.657398 261.196592 
L 53.482065 261.196592 
L 51.309041 261.196592 
L 49.131399 261.195298 
L 46.956066 261.194004 
L 44.783042 261.194004 
L 42.610019 261.194004 
L 40.434686 261.194004 
L 38.260507 261.19271 
L 36.087484 261.19271 
L 33.909841 261.19271 
L 31.734508 261.19271 
L 29.559175 261.19271 
L 27.386151 261.191416 
L 27.386151 253.884905 
L 27.386151 246.578394 
L 27.386151 239.271882 
L 27.386151 231.964077 
L 27.386151 224.65886 
L 27.386151 217.351702 
L 27.386151 210.043896 
L 27.386151 202.737385 
L 27.386151 195.432168 
L 27.386151 188.125009 
L 27.386151 180.817204 
L 27.386151 173.510693 
L 27.386151 166.206769 
L 27.386151 158.898964 
L 27.386151 151.591159 
L 27.386151 144.284648 
L 27.386151 139.391213 
L 27.386151 134.652125 
L 27.386151 132.428872 
L 27.386151 123.980516 
L 27.386151 120.165526 
L 27.386151 119.197081 
L 27.386151 110.382539 
L 27.386151 108.425785 
L 27.386151 98.539702 
L 27.386151 88.558751 
L 27.386151 84.358834 
L 27.386151 81.267766 
L 27.23143 79.82639 
L 26.836545 78.48076 
L 24.98451 74.082879 
L 24.76282 73.217277 
L 24.712016 72.249459 
L 24.912922 70.435446 
L 24.915232 69.826031 
L 24.591934 68.796107 
L 23.446536 66.910284 
L 23.296433 65.868068 
L 23.670535 64.562548 
L 23.698246 64.0657 
L 23.596638 63.502865 
L 21.673016 58.808687 
L 21.042585 57.70113 
L 20.841678 57.161584 
L 20.848606 56.19506 
L 21.206543 55.315225 
L 22.13256 53.691412 
L 22.506662 52.832279 
L 22.719115 52.482933 
L 23.324144 51.736367 
L 24.000761 51.067433 
L 25.305498 49.144735 
L 25.741951 48.285602 
L 25.952094 47.439408 
L 26.025991 46.941267 
L 26.702607 45.216531 
L 26.938153 43.838555 
L 27.215265 42.837095 
L 27.55011 41.977963 
L 27.690975 41.113654 
L 27.386151 40.104432 
L 26.411639 38.092456 
L 26.120671 36.815402 
L 25.337828 35.261458 
L 25.183107 34.754259 
L 24.66583 32.078526 
L 24.645047 30.026441 
L 24.423357 27.920012 
L 24.430285 27.003949 
L 24.705088 26.20951 
L 28.335262 23.353928 
L 29.155053 21.226798 
L 29.780865 20.371546 
L 31.176619 19.296 
L 31.143889 19.486515 
L 31.420274 21.121688 
L 31.667566 21.922464 
L 32.071234 22.425751 
L 32.554908 22.55412 
L 33.69136 22.62136 
L 34.555064 23.050275 
L 35.016918 23.053331 
L 36.038816 22.906624 
L 36.253378 22.970808 
L 36.51158 23.085933 
L 36.784329 23.134835 
L 37.193451 22.908662 
L 37.744403 22.772143 
L 38.393545 22.700827 
L 42.026555 21.694253 
L 46.21779 20.336194 
L 47.217868 20.18643 
L 49.40713 20.294423 
L 58.240545 22.665169 
L 64.686501 23.49549 
L 65.057439 23.691099 
L 65.412012 23.80928 
L 66.524826 23.733889 
L 66.977589 23.777697 
L 68.575895 24.520402 
L 69.49233 24.795478 
L 70.517864 24.803628 
L 71.328837 24.510214 
L 71.721594 24.474556 
L 72.103442 24.718049 
L 72.412557 24.999237 
L 72.638029 25.090929 
L 72.845318 25.105192 
L 73.096247 25.160208 
L 73.707204 25.501505 
L 75.114586 25.956909 
L 76.627431 26.109728 
L 77.183838 26.265605 
L 77.547503 26.527436 
L 77.685695 26.412312 
L 77.900257 26.284962 
L 77.991174 26.186138 
L 78.256649 26.217721 
L 79.656758 26.19327 
L 79.809497 26.238097 
L 79.973146 26.339977 
L 80.140432 26.513173 
L 80.133159 26.602827 
L 80.091337 26.694519 
L 80.140432 26.869753 
L 80.307718 27.187618 
L 80.409544 27.326175 
L 80.52228 27.383227 
L 80.587739 27.4576 
L 80.620469 27.833536 
L 80.680474 27.980244 
L 80.838668 28.261432 
L 81.060503 29.010249 
L 81.285976 29.355622 
L 81.820563 29.793706 
L 82.464249 30.144173 
L 83.173395 30.376459 
L 84.569868 30.581238 
L 85.126275 30.801298 
L 85.624495 30.898084 
L 86.119079 30.645422 
L 87.24644 31.220025 
L 88.568361 30.993851 
L 91.164927 29.775368 
L 91.548593 29.716277 
L 91.781338 29.885398 
L 91.897711 30.23994 
L 91.928622 30.731001 
L 91.992264 30.93578 
L 92.385022 31.841492 
L 92.474119 32.662644 
L 92.537761 32.868442 
L 93.203267 33.253548 
L 94.279715 33.402292 
L 98.289118 33.39618 
L 98.550956 33.460364 
L 98.75279 33.607071 
L 98.930986 33.772116 
L 99.112818 33.894372 
L 99.391022 33.967726 
L 100.05471 33.894372 
L 100.56384 33.948369 
L 101.51846 34.181674 
L 101.949403 34.23567 
L 102.402165 34.127677 
L 103.37315 33.661067 
L 103.884099 33.567338 
L 104.31686 33.643748 
L 104.716891 33.82 
L 105.064191 34.059418 
L 105.331484 34.3294 
L 105.527863 34.435355 
L 106.324289 34.423129 
L 106.624312 34.478144 
L 106.862513 34.567798 
L 107.237087 34.763408 
L 111.206487 36.131655 
L 112.001095 36.566682 
L 112.437492 36.742935 
L 112.979353 36.815269 
L 113.113908 36.955864 
L 113.268466 37.624196 
L 113.355745 37.856482 
L 113.508485 37.966512 
L 113.924881 38.087749 
L 117.807001 40.063201 
L 121.407282 39.908343 
L 122.07097 39.788125 
L 125.127571 38.359769 
L 128.424192 36.817307 
L 129.609738 35.960497 
L 130.542538 35.494906 
L 130.669821 35.43174 
L 130.831652 35.184172 
L 131.002574 34.999769 
L 134.29374 32.689133 
L 134.641039 32.028951 
L 135.262906 32.169545 
L 135.912047 31.874094 
L 136.944855 30.987738 
L 136.744839 30.703494 
L 136.659378 30.721832 
L 136.473909 30.81658 
L 136.599374 30.562899 
L 136.773933 30.385628 
L 136.948492 30.380534 
L 137.084866 30.645422 
L 137.248515 30.645422 
L 137.504899 30.372384 
L 138.54498 29.471765 
L 138.852276 29.278194 
L 139.146845 29.141674 
L 139.592334 28.544658 
L 139.774166 28.408139 
L 140.083281 28.350068 
L 140.259659 28.21253 
L 140.406943 28.043409 
L 140.619687 27.894664 
L 140.548772 27.867157 
L 140.488767 27.867157 
L 140.454219 27.833536 
L 140.466947 27.708224 
L 141.077904 27.383227 
L 141.012445 28.099443 
L 141.643403 28.582354 
L 141.723409 28.605786 
L 142.561656 28.851317 
L 143.379902 28.936896 
L 143.196251 29.047945 
L 142.943504 29.327096 
L 142.756217 29.433051 
L 142.74167 29.559382 
L 142.7744 29.596059 
L 142.843496 29.597078 
L 142.921684 29.62051 
L 142.654391 29.792687 
L 142.734397 29.987278 
L 142.978052 30.170662 
L 143.214434 30.305143 
L 144.143597 29.775368 
L 144.029043 30.06165 
L 144.152689 30.202244 
L 144.345431 30.23994 
L 144.449076 30.219564 
L 144.536355 30.052481 
L 145.210953 29.433051 
L 145.272776 29.553269 
L 145.289141 29.563457 
L 145.363692 29.62051 
L 145.418242 29.475841 
L 145.465519 29.392299 
L 145.505522 29.290419 
L 145.52916 29.090735 
L 145.669171 29.090735 
L 145.658261 29.359698 
L 145.703719 29.563457 
L 145.811 29.700995 
L 145.974649 29.775368 
L 146.063747 29.609303 
L 146.292856 28.936896 
L 145.949193 28.766756 
L 145.632804 28.84011 
L 145.301869 29.00108 
L 144.905475 29.090735 
L 144.905475 28.936896 
L 144.974571 28.92467 
L 145.13822 28.946065 
L 145.210953 28.936896 
L 145.210953 28.765738 
L 144.850925 28.872712 
L 143.532641 28.936896 
L 143.532641 28.765738 
L 144.361796 28.560959 
L 145.147312 28.13612 
L 146.512873 26.955332 
L 146.996547 26.19327 
L 147.30748 25.18364 
L 147.396578 24.135296 
L 147.207472 23.264222 
L 147.360212 23.264222 
L 147.471129 23.744077 
L 147.669326 24.212724 
L 147.978441 24.548928 
L 148.429386 24.63247 
L 147.803882 24.175029 
L 147.471129 23.4364 
L 147.614777 22.99526 
L 148.429386 23.435381 
L 149.033069 23.874483 
L 149.720395 24.147521 
L 150.527731 24.235138 
L 151.495079 24.118995 
L 154.63896 23.310068 
L 161.283114 21.042222 
L 161.283114 21.21338 
L 160.944906 21.259226 
L 158.881109 22.004987 
L 157.153701 22.955526 
L 155.969973 23.496509 
L 155.015353 24.118995 
L 154.889889 24.175029 
L 154.58441 24.223931 
L 154.404396 24.290153 
L 153.557058 24.858643 
L 153.167936 24.988031 
L 152.280595 25.052215 
L 152.087852 25.160208 
L 151.987845 25.162245 
L 151.647818 25.657382 
L 151.647818 25.843822 
L 152.107854 25.963021 
L 152.266048 25.966078 
L 152.407877 25.843822 
L 152.560616 25.843822 
L 152.898825 26.034337 
L 153.526146 26.001736 
L 154.131648 25.822427 
L 154.404396 25.579953 
L 154.60623 25.177527 
L 155.053538 25.294689 
L 155.520847 25.665532 
L 155.779049 26.01498 
L 155.931788 26.01498 
L 156.073617 25.579953 
L 156.419099 25.141869 
L 156.831858 24.795478 
L 157.164611 24.63247 
L 157.364627 24.554022 
L 157.611919 24.664052 
L 157.902851 24.848455 
L 158.233785 24.988031 
L 158.444711 24.962561 
L 158.732006 24.883094 
L 159.044758 24.853549 
L 159.31387 24.988031 
L 159.244773 25.013501 
L 159.18295 25.012482 
L 159.15022 25.042027 
L 159.16113 25.160208 
L 159.462972 25.239674 
L 159.843002 25.121493 
L 160.223031 24.890226 
L 160.519418 24.63247 
L 160.464868 24.605981 
L 160.410319 24.610056 
L 160.37577 24.587643 
L 160.383044 24.475575 
L 160.459413 24.422597 
L 160.470323 24.400183 
L 160.47396 24.370638 
L 160.519418 24.290153 
L 161.284932 24.614131 
L 161.435853 24.803628 
L 161.643142 24.634507 
L 161.797699 24.437879 
L 162.04681 23.931536 
L 161.91589 23.723701 
L 161.994078 23.558655 
L 162.352288 23.264222 
L 162.417748 23.112421 
L 162.394109 22.984053 
L 162.386836 22.86791 
L 162.517755 22.750748 
L 162.646856 22.721203 
L 163.459647 22.780293 
L 163.670572 22.857722 
L 164.043329 23.093064 
L 164.103333 23.187813 
L 164.09606 23.303956 
L 164.136063 23.40176 
L 164.348807 23.435381 
L 164.528821 23.386478 
L 164.665195 23.269316 
L 164.754293 23.102233 
L 164.348807 22.906624 
L 164.492455 22.812894 
L 164.627011 22.76603 
L 164.77975 22.788443 
L 164.348807 22.218935 
L 163.448737 21.577091 
L 162.385018 21.135951 
L 161.375848 21.10335 
L 161.588592 20.987207 
L 162.143181 20.787522 
L 164.043329 20.512446 
L 164.741565 20.586818 
L 166.803544 21.21338 
L 169.685586 22.471597 
L 170.325636 22.750748 
L 171.242071 23.435381 
L 173.567707 24.474556 
L 174.307764 24.63247 
L 174.638699 24.622282 
L 175.215108 24.603943 
L 178.586279 23.674799 
L 180.588253 22.579589 
L 181.402862 22.322852 
L 182.264748 22.340172 
L 182.97753 22.68962 
L 183.297555 23.355914 
L 183.410291 23.654423 
L 184.115801 24.572361 
L 184.412188 25.287557 
L 184.766761 25.716472 
L 185.48318 26.339977 
L 185.719562 26.441857 
L 186.265059 26.559019 
L 186.305062 26.577357 
L 186.539626 26.682293 
L 187.096033 27.285423 
L 187.232407 27.383227 
L 187.55425 27.525859 
L 188.443411 28.202342 
L 188.668883 28.344974 
L 187.985193 28.203361 
L 185.77593 26.869753 
L 185.901394 26.881978 
L 185.999584 26.869753 
L 186.059589 26.900316 
L 186.234148 27.040911 
L 186.179598 26.858546 
L 186.075953 26.748515 
L 185.919578 26.696557 
L 185.46136 26.647654 
L 185.359534 26.558 
L 185.301348 26.443894 
L 185.192248 26.339977 
L 184.597657 26.030262 
L 184.357638 25.834653 
L 184.264903 25.843822 
L 184.097618 25.843822 
L 184.03034 25.504562 
L 183.890329 25.208091 
L 183.708496 24.969692 
L 183.501208 24.803628 
L 183.792139 24.803628 
L 184.064888 24.771026 
L 182.939346 23.423155 
L 182.699327 23.019711 
L 182.377484 22.61321 
L 182.122918 22.472616 
L 182.115645 22.579589 
L 181.74107 22.411488 
L 181.595605 22.500123 
L 181.504688 22.750748 
L 181.19921 22.579589 
L 181.193755 22.660075 
L 181.21012 22.830214 
L 181.19921 22.906624 
L 181.119204 22.854665 
L 180.964646 22.800669 
L 180.879185 22.750748 
L 180.888277 22.947376 
L 180.846455 23.086951 
L 180.740993 23.264222 
L 181.19921 23.264222 
L 181.075564 23.542355 
L 181.417409 24.132239 
L 181.351949 24.475575 
L 181.504688 24.475575 
L 181.504688 24.63247 
L 181.351949 24.63247 
L 181.401044 24.743519 
L 181.471959 24.862718 
L 181.504688 24.988031 
L 181.351949 24.988031 
L 181.27558 24.682391 
L 181.128295 24.451123 
L 180.901005 24.312567 
L 180.588253 24.290153 
L 180.671896 24.102694 
L 180.582798 24.078243 
L 180.420968 24.245326 
L 180.282775 24.63247 
L 180.420968 24.651827 
L 180.495519 24.621263 
L 180.588253 24.475575 
L 180.746448 24.595793 
L 180.871912 24.642658 
L 181.046471 24.63247 
L 181.046471 24.803628 
L 180.879185 24.803628 
L 180.879185 24.988031 
L 180.966465 25.137794 
L 181.095566 25.241712 
L 181.270125 25.302839 
L 181.504688 25.315065 
L 181.346494 25.47196 
L 181.119204 25.526975 
L 180.897368 25.476035 
L 180.740993 25.315065 
L 180.588253 25.315065 
L 180.6028 25.44649 
L 180.560979 25.476035 
L 180.493701 25.47196 
L 180.420968 25.501505 
L 180.522794 25.57384 
L 180.6028 25.655344 
L 180.740993 25.843822 
L 180.428241 26.223834 
L 180.3646 26.510116 
L 180.566434 26.672105 
L 181.046471 26.682293 
L 181.046471 26.869753 
L 180.748266 26.814737 
L 180.504611 26.721008 
L 180.300958 26.702669 
L 180.115489 26.869753 
L 179.977297 26.869753 
L 179.828194 26.717951 
L 179.679092 26.731196 
L 179.568174 26.87994 
L 179.522716 27.133621 
L 179.613632 27.258934 
L 179.770008 27.348588 
L 179.802738 27.438242 
L 179.522716 27.554385 
L 179.522716 27.708224 
L 179.649999 27.946623 
L 179.493623 28.035259 
L 179.239057 28.096387 
L 179.049952 28.252263 
L 179.002675 28.605786 
L 179.142686 28.825847 
L 179.38816 28.887994 
L 179.628179 28.780001 
L 179.660909 28.765738 
L 179.617269 28.721929 
L 179.588176 28.710722 
L 179.559082 28.686271 
L 179.522716 28.594579 
L 179.839104 28.722948 
L 179.991843 28.754531 
L 180.200951 28.765738 
L 180.380965 28.869655 
L 180.417331 29.100923 
L 180.419149 29.329134 
L 180.504611 29.433051 
L 180.755539 29.499273 
L 181.104657 29.664318 
L 181.439229 29.891511 
L 181.657428 30.133985 
L 181.82835 29.725446 
L 181.944723 29.557345 
L 182.115645 29.433051 
L 182.022911 29.665337 
L 181.990181 29.822232 
L 182.021092 29.958751 
L 182.115645 30.133985 
L 181.810167 30.133985 
L 181.810167 30.305143 
L 182.115645 30.305143 
L 182.042912 30.360158 
L 181.979271 30.398873 
L 181.941086 30.47732 
L 181.962906 30.645422 
L 182.068369 30.629121 
L 182.130192 30.584294 
L 182.181105 30.523166 
L 182.264748 30.458982 
L 182.293841 30.500752 
L 182.286567 30.562899 
L 182.312024 30.618933 
L 182.417487 30.645422 
L 182.417487 30.458982 
L 182.570226 30.458982 
L 182.459308 30.813524 
L 182.566589 31.050904 
L 182.752058 31.036641 
L 182.875704 30.645422 
L 183.135725 30.610783 
L 183.484843 30.254203 
L 183.91033 29.966902 
L 184.417643 30.133985 
L 184.097618 30.133985 
L 184.097618 30.305143 
L 184.417643 30.458982 
L 184.477647 30.355064 
L 184.617658 30.24809 
L 184.719484 30.133985 
L 185.039509 30.305143 
L 185.039509 30.458982 
L 184.946775 30.570031 
L 184.90859 30.653572 
L 184.872223 30.987738 
L 185.121334 30.877708 
L 185.192248 30.81658 
L 185.155882 31.027472 
L 185.112242 31.168066 
L 185.032236 31.260777 
L 184.872223 31.330055 
L 184.872223 31.485931 
L 185.023144 31.699879 
L 185.034054 31.969861 
L 184.570382 32.354967 
L 184.570382 32.526125 
L 184.8104 32.536313 
L 184.995869 32.485373 
L 185.126789 32.371268 
L 185.192248 32.183809 
L 185.330441 32.183809 
L 185.359534 32.448696 
L 185.379536 32.508806 
L 185.42863 32.653475 
L 185.563186 32.794069 
L 185.77593 32.868442 
L 185.77593 33.055901 
L 185.54864 33.112953 
L 185.384991 33.209739 
L 185.274073 33.357465 
L 185.192248 33.567338 
L 185.304984 33.61624 
L 185.48318 33.738496 
L 185.697742 33.606052 
L 185.897758 33.570394 
L 186.081408 33.619297 
L 186.234148 33.738496 
L 186.234148 33.894372 
L 186.081408 33.894372 
L 186.081408 34.080813 
L 186.305062 34.267253 
L 186.588721 34.39664 
L 186.886926 34.407847 
L 187.161493 34.23567 
L 187.161493 34.080813 
L 186.834194 34.072662 
L 186.610541 33.909654 
L 186.472348 33.661067 
L 186.399615 33.39618 
L 186.734187 33.465458 
L 187.185131 33.686537 
L 187.396056 33.723214 
L 187.479699 33.738496 
L 187.301503 33.39618 
L 187.657895 33.383954 
L 187.772449 33.39618 
L 187.772449 33.209739 
L 187.672441 33.185288 
L 187.65244 33.165931 
L 187.657895 33.129254 
L 187.625165 33.064051 
L 187.657895 33.035525 
L 187.925188 32.868442 
L 187.937917 33.020243 
L 188.001558 33.050807 
L 188.101566 33.0396 
L 188.230667 33.055901 
L 188.143387 32.782862 
L 188.317946 32.604573 
L 188.56342 32.583178 
L 188.807075 32.998848 
L 189.092552 33.09869 
L 189.44167 33.106841 
L 189.75624 33.055901 
L 190.292645 32.756374 
L 190.543574 32.314215 
L 190.478114 31.852699 
L 190.074447 31.485931 
L 190.610852 31.467593 
L 190.630854 31.472687 
L 190.685403 31.485931 
L 190.796321 30.741189 
L 190.803594 30.390722 
L 190.685403 29.962827 
L 190.30901 29.502329 
L 190.254461 29.284306 
L 190.532664 29.090735 
L 190.196274 28.906332 
L 189.72351 28.741286 
L 189.267111 28.670989 
L 188.994363 28.765738 
L 188.836168 28.344974 
L 189.114372 28.377575 
L 189.40894 28.399989 
L 189.943527 28.501869 
L 190.923604 28.686271 
L 191.221809 28.905313 
L 191.36182 28.905313 
L 191.614567 28.936896 
L 191.669116 29.355622 
L 191.901862 29.676544 
L 192.234615 29.887435 
L 192.921941 30.06165 
L 193.178325 30.296993 
L 193.598357 30.81658 
L 194.547522 31.700898 
L 194.9621 32.005519 
L 195.594877 33.055901 
L 196.182195 33.564281 
L 196.84952 33.966707 
L 197.609579 34.19288 
L 197.6514 34.206125 
L 198.633295 34.23567 
L 199.57155 34.119527 
L 201.235316 33.699782 
L 203.219107 32.758411 
L 203.604591 32.47111 
L 204.524663 32.022838 
L 204.775591 31.841492 
L 204.928331 31.841492 
L 204.928331 32.028951 
L 204.215548 32.29282 
L 202.969996 33.198533 
L 202.244485 33.39618 
L 201.022572 33.946331 
L 199.102422 34.423129 
L 200.186143 34.423129 
L 200.186143 34.59225 
L 199.866118 34.763408 
L 200.549808 34.762389 
L 200.80801 34.665603 
L 200.949839 34.423129 
L 201.088032 34.423129 
L 201.106215 34.567798 
L 201.178948 34.591231 
L 201.277137 34.572893 
L 201.40442 34.59225 
L 202.779072 33.738496 
L 203.935526 33.390067 
L 204.164635 33.209739 
L 204.302827 33.209739 
L 204.39738 33.343202 
L 204.715587 33.423687 
L 204.641035 33.546962 
L 204.470113 33.567338 
L 204.470113 33.738496 
L 204.704677 33.65903 
L 205.233809 33.39618 
L 205.233809 33.209739 
L 204.622852 33.209739 
L 204.622852 33.055901 
L 204.924694 32.933645 
L 205.302905 33.031449 
L 205.648387 33.267811 
L 205.855675 33.567338 
L 205.910225 33.707932 
L 205.957502 33.954481 
L 205.997505 34.080813 
L 205.68839 34.080813 
L 206.430266 34.341625 
L 206.775747 34.323287 
L 207.077589 34.080813 
L 207.077589 33.894372 
L 206.864845 33.775173 
L 206.757564 33.738496 
L 206.757564 33.567338 
L 207.623086 33.351352 
L 207.837648 33.209739 
L 207.72673 33.021261 
L 207.775825 32.839915 
L 207.895834 32.630043 
L 207.990387 32.354967 
L 207.837648 32.354967 
L 207.694 32.525106 
L 207.230328 32.868442 
L 207.159413 32.960134 
L 207.084862 33.035525 
L 207.084862 33.112953 
L 207.230328 33.209739 
L 206.932123 33.275961 
L 206.422992 33.267811 
L 205.895679 33.19242 
L 205.535651 33.055901 
L 206.210249 32.990697 
L 206.593915 32.607629 
L 206.875755 32.103323 
L 207.230328 31.672371 
L 207.49944 31.54604 
L 208.05221 31.452311 
L 208.310412 31.330055 
L 208.739536 30.936799 
L 208.997738 30.814543 
L 209.379586 30.81658 
L 209.379586 30.987738 
L 208.75772 30.987738 
L 208.75772 31.143615 
L 209.035923 31.342281 
L 209.837804 32.354967 
L 210.077822 32.781844 
L 209.985088 32.919382 
L 209.703248 32.98866 
L 209.379586 33.209739 
L 209.352311 33.147593 
L 209.352311 33.081371 
L 209.325037 33.0396 
L 209.2123 33.055901 
L 209.2123 33.209739 
L 209.586875 33.460364 
L 209.786891 33.783323 
L 209.777799 34.166392 
L 209.532325 34.59225 
L 210.332388 34.280497 
L 210.746965 34.188805 
L 211.043352 34.23567 
L 211.194273 34.205106 
L 211.299736 34.206125 
L 211.50157 34.23567 
L 211.50157 34.080813 
L 211.196091 33.894372 
L 211.043352 33.894372 
L 211.043352 34.080813 
L 210.906978 34.080813 
L 210.906978 33.894372 
L 212.092525 33.448138 
L 212.418005 33.209739 
L 212.581654 33.209739 
L 212.418005 33.39618 
L 212.581654 33.567338 
L 212.747121 33.426743 
L 212.930772 33.411462 
L 213.088966 33.518435 
L 213.179882 33.738496 
L 213.34535 33.738496 
L 213.365351 33.526586 
L 213.358078 33.273924 
L 213.328985 33.23419 
L 213.650828 33.209739 
L 213.438084 33.100728 
L 213.216249 33.131292 
L 213.005323 33.106841 
L 212.747121 33.055901 
L 215.18913 32.868442 
L 214.992751 32.414057 
L 215.281864 32.322365 
L 215.634619 32.295877 
L 215.634619 31.841492 
L 215.876456 31.957635 
L 215.952825 32.028951 
L 216.105565 32.028951 
L 216.405588 31.947447 
L 217.296566 32.396738 
L 217.714781 32.526125 
L 219.345817 32.689133 
L 219.782214 32.868442 
L 219.782214 32.696265 
L 220.289527 32.84399 
L 221.031403 32.797126 
L 225.642671 31.63977 
L 229.948461 29.994409 
L 233.33236 27.888552 
L 233.371964 27.864344 
L 233.915779 28.829606 
L 234.045098 29.242352 
L 234.446274 30.438695 
M 248.156308 244.044615 
L 246.270655 248.561901 
L 247.402741 245.879705 
L 248.156308 244.044615 
M 244.137498 253.615886 
L 238.343201 254.835382 
L 232.192362 256.271336 
L 236.071194 255.409056 
L 240.106631 254.511963 
L 244.137498 253.615886 
" clip-path="url(#pe53556c642)" style="fill: #f5f5f5; stroke: #000000"/>
    <path d="M 227.893755 141.142335 
L 228.239237 141.126034 
L 228.241055 141.127053 
L 228.351973 141.142335 
L 228.795644 142.102044 
L 228.962929 142.604311 
L 228.977476 143.19114 
L 228.664724 142.888556 
L 228.511985 142.543184 
L 227.893755 141.142335 
" clip-path="url(#pe53556c642)" style="fill: #f5f5f5; stroke: #000000"/>
    <path d="M 229.044754 123.128948 
L 229.533883 123.315388 
L 229.67753 123.741246 
L 229.755718 124.201743 
L 230.043013 124.497195 
L 230.043013 124.652053 
L 229.884819 124.627601 
L 229.592069 124.580737 
L 229.188401 124.118202 
L 229.055664 123.965382 
L 228.581081 123.813581 
L 228.362883 123.682156 
L 228.150139 123.425418 
L 227.922848 123.256298 
L 227.92103 123.256298 
L 227.417354 123.498772 
L 227.210066 123.33067 
L 227.05369 123.036237 
L 226.96641 122.771349 
L 227.091875 122.60936 
L 227.239159 122.506462 
L 227.402808 122.455522 
L 227.588277 122.445334 
L 228.095589 122.511556 
L 228.270148 122.623624 
L 228.466527 122.749955 
L 228.646541 122.908887 
L 228.761095 123.007711 
L 229.044754 123.128948 
" clip-path="url(#pe53556c642)" style="fill: #f5f5f5; stroke: #000000"/>
    <path d="M 241.971215 111.970041 
L 241.973033 111.972079 
L 242.333061 112.283831 
L 242.760367 112.654674 
L 242.760367 112.841115 
L 241.905755 112.902242 
L 241.123876 112.858434 
L 240.472917 112.589471 
L 240.027427 112.020981 
L 239.987424 111.970041 
L 240.020154 111.629762 
L 239.943784 111.141758 
L 239.834685 110.946148 
L 239.912873 110.826949 
L 239.943784 110.802498 
L 239.945603 110.805554 
L 239.987424 110.946148 
L 239.989242 110.942073 
L 240.069249 110.751558 
L 240.178348 110.598738 
L 240.309267 110.492783 
L 240.456552 110.432673 
L 240.45837 110.433692 
L 240.847491 110.640509 
L 240.974774 110.768877 
L 241.056598 110.946148 
L 240.476553 111.06331 
L 240.221988 111.191679 
L 240.140163 111.458604 
L 240.245626 111.568634 
L 240.334724 111.661345 
L 240.712935 111.701078 
L 241.363895 111.594104 
L 241.645735 111.495281 
L 241.69483 111.544183 
L 241.742106 111.545202 
L 241.847569 111.710248 
L 241.945758 111.899744 
L 241.971215 111.970041 
" clip-path="url(#pe53556c642)" style="fill: #f5f5f5; stroke: #000000"/>
    <path d="M 206.073874 33.687556 
L 205.997505 33.567338 
L 205.877495 33.5653 
L 206.041144 33.448138 
L 206.1757 33.481759 
L 206.26298 33.638654 
L 206.313893 33.894372 
L 206.073874 33.687556 
" clip-path="url(#pe53556c642)" style="fill: #f5f5f5; stroke: #000000"/>
    <path d="M 214.954566 30.987738 
L 215.625527 31.11407 
L 216.227392 31.424803 
L 217.187467 32.183809 
L 216.705611 31.85983 
L 213.227159 30.404985 
L 212.581654 30.305143 
L 213.281708 30.327557 
L 214.430889 30.853257 
L 214.954566 30.987738 
" clip-path="url(#pe53556c642)" style="fill: #f5f5f5; stroke: #000000"/>
    <path d="M 208.310412 30.046368 
L 208.894094 29.716277 
L 212.418005 30.133985 
L 212.276175 30.241978 
L 211.994335 30.241978 
L 211.303372 30.116665 
L 210.639684 30.023955 
L 209.974178 29.930225 
L 209.2123 30.133985 
L 208.844999 30.055537 
L 208.261317 30.256241 
L 205.56838 31.64792 
L 205.095616 32.028951 
L 205.357455 31.644864 
L 205.877495 31.400352 
L 206.310256 31.174179 
L 206.586642 31.018302 
L 206.884847 30.807411 
L 208.048574 30.288842 
L 208.310412 30.046368 
" clip-path="url(#pe53556c642)" style="fill: #f5f5f5; stroke: #000000"/>
    <path d="M 245.250081 111.920077 
L 245.256336 112.876481 
L 244.642621 113.141257 
L 244.114076 112.970862 
L 243.683881 112.594176 
L 244.130474 111.880964 
L 245.250081 111.920077 
" clip-path="url(#pe53556c642)" style="fill: #f5f5f5; stroke: #000000"/>
   </g>
  </g>
 </g>
 <defs>
  <clipPath id="pe53556c642">
   <rect x="7.2" y="7.2" width="300.116919" height="266.112"/>
  </clipPath>
 </defs>
</svg>
