<?xml version="1.0" encoding="utf-8" standalone="no"?>
<!DOCTYPE svg PUBLIC "-//W3C//DTD SVG 1.1//EN"
  "http://www.w3.org/Graphics/SVG/1.1/DTD/svg11.dtd">
<svg xmlns:xlink="http://www.w3.org/1999/xlink" width="371.52pt" height="209.801642pt" viewBox="0 0 371.52 209.801642" xmlns="http://www.w3.org/2000/svg" version="1.1">
 <metadata>
  <rdf:RDF xmlns:dc="http://purl.org/dc/elements/1.1/" xmlns:cc="http://creativecommons.org/ns#" xmlns:rdf="http://www.w3.org/1999/02/22-rdf-syntax-ns#">
   <cc:Work>
    <dc:type rdf:resource="http://purl.org/dc/dcmitype/StillImage"/>
    <dc:date>2024-03-04T13:11:10.345924</dc:date>
    <dc:format>image/svg+xml</dc:format>
    <dc:creator>
     <cc:Agent>
      <dc:title>Matplotlib v3.8.0, https://matplotlib.org/</dc:title>
     </cc:Agent>
    </dc:creator>
   </cc:Work>
  </rdf:RDF>
 </metadata>
 <defs>
  <style type="text/css">*{stroke-linejoin: round; stroke-linecap: butt}</style>
 </defs>
 <g id="figure_1">
  <g id="patch_1">
   <path d="M 0 209.801642 
L 371.52 209.801642 
L 371.52 0 
L 0 0 
z
" style="fill: #ffffff"/>
  </g>
  <g id="axes_1">
   <g id="PatchCollection_1">
    <path d="M 25.641136 114.647465 
L 23.49508 105.693211 
L 23.432727 103.52088 
L 23.765276 101.277209 
L 24.47887 99.094177 
L 25.542334 97.100199 
L 27.146189 95.448656 
L 30.825011 93.483214 
L 32.470435 92.15984 
L 33.714029 90.215801 
L 34.600826 88.207554 
L 35.740498 86.270648 
L 37.725399 84.512095 
L 50.608203 75.469634 
L 53.46258 72.612431 
L 54.893233 71.674298 
L 60.827152 69.409224 
L 62.805125 69.273676 
L 65.236888 69.90861 
L 68.725187 72.626699 
L 70.692767 73.425717 
L 72.65342 72.369872 
L 72.705381 71.602957 
L 72.604315 71.369079 
L 71.738911 69.366419 
L 71.607277 68.307007 
L 71.988322 67.17982 
L 77.717862 57.035143 
L 80.402501 54.095897 
L 83.783414 51.495521 
L 87.309817 49.879649 
L 101.706411 46.426749 
L 102.568959 45.570658 
L 102.548175 43.416163 
L 102.118633 42.85257 
L 100.417784 42.003613 
L 99.83236 41.422184 
L 99.582948 40.523289 
L 99.340465 38.415165 
L 99.167262 37.76953 
L 98.387851 36.285639 
L 97.999877 35.761283 
L 97.22393 35.026472 
L 96.299028 34.612694 
L 93.496611 34.241722 
L 92.668703 32.286981 
L 93.461971 31.127691 
L 94.806022 30.164589 
L 95.654715 28.816245 
L 95.266741 27.207508 
L 94.286415 25.841329 
L 93.711382 24.282531 
L 94.584323 22.095932 
L 96.486087 20.686949 
L 98.457132 20.851033 
L 99.922425 22.338491 
L 100.310399 24.896063 
L 102.132489 23.579823 
L 105.447585 19.577597 
L 106.370673 19.184655 
L 107.827388 18.564556 
L 109.954315 18.842786 
L 111.468105 19.641804 
L 112.981895 20.20183 
L 115.091502 19.763084 
L 118.139866 16.613383 
L 119.504702 16.081893 
L 119.681369 18.750043 
L 120.374179 17.69063 
L 120.519669 17.37673 
L 124.379425 20.205107 
L 124.406334 20.208965 
L 126.472916 20.540579 
L 131.653127 21.371821 
L 135.813452 23.347965 
L 142.651487 24.810453 
L 146.053185 27.221776 
L 152.243443 29.069506 
L 153.514749 27.906649 
L 155.444225 24.175519 
L 156.507689 23.080436 
L 157.692394 22.752268 
L 158.478734 22.902084 
L 159.136903 23.515616 
L 159.905922 24.553626 
L 160.574484 25.819927 
L 160.865464 27.19324 
L 160.747687 28.598656 
L 160.221151 29.9577 
L 161.748797 31.27394 
L 166.321344 31.808997 
L 168.465591 32.882677 
L 169.321211 34.591292 
L 169.854675 38.821808 
L 170.45742 40.059573 
L 173.859118 42.645681 
L 175.095784 44.140273 
L 176.297809 46.177056 
L 176.803561 47.907073 
L 176.879109 48.551477 
L 177.011403 49.679895 
L 177.447874 51.145951 
L 178.629115 52.002042 
L 179.928134 51.713111 
L 181.518133 50.782112 
L 183.392184 49.972393 
L 185.487935 50.015197 
L 188.806495 52.137589 
L 191.612376 55.683233 
L 193.624989 59.810304 
L 194.504858 63.705518 
L 196.860413 63.355948 
L 202.738906 63.798261 
L 204.335833 63.174028 
L 205.71799 62.317937 
L 206.888838 62.196658 
L 207.84838 63.769725 
L 207.737531 66.10614 
L 206.930407 68.378348 
L 206.854198 70.322388 
L 208.956877 71.702834 
L 211.832039 72.088075 
L 212.455568 72.316366 
L 213.422038 73.147488 
L 214.087135 74.074919 
L 214.388508 75.227075 
L 214.339652 75.939331 
L 214.322691 76.18661 
L 215.143671 75.869143 
L 218.559224 75.341221 
L 221.974778 75.569512 
L 232.131374 78.822657 
L 238.03758 79.272105 
L 239.336599 79.817863 
L 240.53516 80.998555 
L 240.431239 81.433734 
L 240.38967 81.769037 
L 240.311958 81.837204 
L 240.202612 81.933121 
L 240.164856 81.92809 
L 239.613723 81.854646 
L 239.760573 82.177871 
L 240.445095 83.68454 
L 240.348102 85.293278 
L 239.890847 86.973356 
L 239.613723 89.010139 
L 239.98784 90.322812 
L 241.439278 93.94693 
L 241.529343 96.158498 
L 240.348102 98.109672 
L 243.923002 97.93132 
L 246.430974 96.401058 
L 248.87313 95.366614 
L 254.273584 94.16452 
L 255.558747 94.235861 
L 257.696066 95.084818 
L 258.676393 95.184695 
L 258.835739 94.785186 
L 258.835739 93.968333 
L 258.932732 93.112241 
L 259.351882 92.619989 
L 260.224823 92.562917 
L 261.295215 92.748403 
L 262.362142 93.069437 
L 263.221227 93.433276 
L 264.153056 91.703259 
L 265.604493 91.168202 
L 267.229133 91.046922 
L 268.687498 90.547536 
L 269.747498 89.530928 
L 270.197432 88.732731 
L 270.734752 87.779508 
L 271.614621 86.802138 
L 273.218476 86.113698 
L 274.406646 86.306319 
L 275.26573 86.106564 
L 275.90658 84.219597 
L 275.66756 83.848624 
L 274.468999 82.739273 
L 274.191875 82.247021 
L 274.060241 79.514664 
L 274.122594 79.050948 
L 275.438933 78.551562 
L 277.451546 78.765584 
L 277.773817 78.837502 
L 281.016054 79.561036 
L 283.153373 79.610974 
L 290.143827 78.772718 
L 293.677158 78.972473 
L 295.218661 80.253042 
L 297.182777 85.378887 
L 299.12611 87.715302 
L 301.595978 89.973242 
L 303.785258 92.591453 
L 304.900682 96.015817 
L 311.011267 92.955292 
L 313.016952 92.413101 
L 313.310125 92.472684 
L 314.070023 92.627123 
L 316.047996 93.918394 
L 316.965969 94.185922 
L 317.579106 93.875589 
L 319.304203 92.541514 
L 320.346883 92.181243 
L 321.68747 92.263285 
L 324.309756 92.81261 
L 325.601847 92.727001 
L 326.900866 91.803136 
L 328.009362 90.390586 
L 329.356878 89.266966 
L 331.369491 89.181357 
L 332.633869 90.18013 
L 333.939817 93.811383 
L 335.027528 95.448656 
L 335.723802 95.873135 
L 337.597854 96.600812 
L 338.41537 97.05026 
L 340.534584 98.878575 
L 344.331968 102.154702 
L 346.690986 103.107103 
L 345.482033 105.11535 
L 342.776609 111.375515 
L 342.101119 113.629888 
L 342.970596 115.916364 
L 342.308962 117.400255 
L 340.964911 118.680824 
L 339.797526 120.375171 
L 339.312559 122.811463 
L 339.423408 127.93374 
L 339.118572 130.448507 
L 335.903933 138.246069 
L 335.117594 142.062808 
L 336.520534 145.216076 
L 337.90269 145.715462 
L 340.743212 144.766628 
L 342.693472 145.529976 
L 343.725759 146.735637 
L 344.415105 148.390746 
L 344.654125 150.227775 
L 344.338896 152.000597 
L 342.02491 154.643777 
L 331.466293 159.492964 
L 331.373554 159.45926 
L 330.320701 158.841346 
L 329.655167 157.706633 
L 328.635045 154.746266 
L 324.860048 161.318617 
L 323.878113 165.19462 
L 326.343862 166.913542 
L 327.920414 167.514604 
L 332.371855 171.800676 
L 334.903067 173.519598 
L 335.121275 174.328503 
L 335.121275 175.996869 
L 334.02478 178.946002 
L 331.357189 181.052525 
L 321.390543 186.091328 
L 318.69022 188.259642 
L 318.215618 190.467278 
L 321.308715 192.624357 
L 316.579059 193.719749 
L 298.102305 192.444601 
L 293.765422 191.596374 
L 292.848949 191.596374 
L 290.606863 192.48954 
L 279.030934 193.472584 
L 266.614904 191.568287 
L 263.390883 192.624357 
L 261.672495 192.034531 
L 259.72499 191.596374 
L 259.72499 190.736913 
L 262.752624 190.534687 
L 262.965377 188.411312 
L 261.345183 185.782371 
L 258.901255 184.052213 
L 259.430409 185.125136 
L 261.028782 187.366476 
L 261.650675 188.765207 
L 256.806459 188.602303 
L 254.433448 188.849468 
L 252.40957 189.70893 
L 253.702452 190.270669 
L 254.74985 190.113382 
L 256.01 189.748251 
L 257.902954 189.70893 
L 257.902954 190.736913 
L 254.782581 192.034531 
L 251.340351 191.933418 
L 248.656394 190.265052 
L 247.827204 186.877763 
L 249.147362 187.473207 
L 249.66015 187.821485 
L 251.493097 185.934041 
L 251.493097 185.080197 
L 249.201914 184.035361 
L 246.681612 180.473933 
L 244.995956 179.417863 
L 245.448738 181.417655 
L 246.20701 183.052317 
L 246.599784 184.507222 
L 245.994258 185.934041 
L 244.046752 184.821796 
L 238.378802 183.389361 
L 235.929418 182.080508 
L 233.714608 178.103392 
L 232.683576 177.457392 
L 231.112479 177.328192 
L 226.693769 176.429409 
L 224.718987 176.429409 
L 219.28561 177.457392 
L 211.708341 177.659618 
L 210.055416 178.401114 
L 210.955524 179.125758 
L 211.937459 179.653793 
L 212.919395 179.816698 
L 213.797682 179.417863 
L 217.583589 180.311028 
L 228.346694 179.14261 
L 229.546837 179.333602 
L 231.276135 180.277324 
L 232.214429 181.164872 
L 233.883719 183.209604 
L 235.012945 184.052213 
L 235.012945 185.080197 
L 232.503554 184.653275 
L 230.676063 184.304996 
L 226.693769 183.108491 
L 226.693769 184.052213 
L 237.680537 186.321641 
L 243.419404 188.197851 
L 245.994258 190.736913 
L 245.055964 192.388427 
L 242.655677 191.983974 
L 239.98263 190.574008 
L 238.220601 189.237069 
L 236.240364 188.225937 
L 201.621681 181.760316 
L 197.470275 179.822315 
L 164.199026 164.262132 
L 148.286214 154.454161 
L 139.176034 150.415255 
L 129.334858 148.067184 
L 124.757947 148.067184 
L 121.272076 147.241427 
L 102.225512 147.397892 
L 94.084516 145.359015 
L 90.255233 144.607931 
L 81.753605 141.798584 
L 77.2809 142.728499 
L 64.555183 142.885724 
L 62.51089 141.466185 
L 61.159476 136.393054 
L 60.653921 133.226027 
L 58.976145 131.838926 
L 56.214294 130.127114 
L 45.347407 123.937602 
L 35.9825 119.648986 
L 25.641136 114.647465 
" clip-path="url(#pd9072532ed)" style="fill: #f5f5f5; stroke: #000000"/>
    <path d="M 343.649669 188.232049 
L 343.529811 186.475003 
L 344.505029 185.774216 
L 346.358738 186.390587 
L 347.501205 188.932469 
L 347.577448 191.037827 
L 348.087273 192.446119 
L 346.950399 193.060467 
L 345.219408 192.440512 
L 344.076339 192.968631 
L 344.087401 191.475218 
L 343.373698 189.986498 
L 343.649669 188.232049 
" clip-path="url(#pd9072532ed)" style="fill: #f5f5f5; stroke: #000000"/>
    <path d="M 338.355549 181.381362 
L 339.407822 181.996127 
L 340.285479 184.016282 
L 339.497087 185.158406 
L 338.620631 186.03705 
L 336.866315 184.456444 
L 336.42676 182.260426 
L 337.215426 181.469537 
L 338.355549 181.381362 
" clip-path="url(#pd9072532ed)" style="fill: #f5f5f5; stroke: #000000"/>
   </g>
  </g>
 </g>
 <defs>
  <clipPath id="pd9072532ed">
   <rect x="7.2" y="7.2" width="357.12" height="195.401642"/>
  </clipPath>
 </defs>
</svg>
