<?xml version="1.0" encoding="utf-8" standalone="no"?>
<!DOCTYPE svg PUBLIC "-//W3C//DTD SVG 1.1//EN"
  "http://www.w3.org/Graphics/SVG/1.1/DTD/svg11.dtd">
<svg xmlns:xlink="http://www.w3.org/1999/xlink" width="235.694573pt" height="280.512pt" viewBox="0 0 235.694573 280.512" xmlns="http://www.w3.org/2000/svg" version="1.1">
 <metadata>
  <rdf:RDF xmlns:dc="http://purl.org/dc/elements/1.1/" xmlns:cc="http://creativecommons.org/ns#" xmlns:rdf="http://www.w3.org/1999/02/22-rdf-syntax-ns#">
   <cc:Work>
    <dc:type rdf:resource="http://purl.org/dc/dcmitype/StillImage"/>
    <dc:date>2024-03-04T13:11:10.373540</dc:date>
    <dc:format>image/svg+xml</dc:format>
    <dc:creator>
     <cc:Agent>
      <dc:title>Matplotlib v3.8.0, https://matplotlib.org/</dc:title>
     </cc:Agent>
    </dc:creator>
   </cc:Work>
  </rdf:RDF>
 </metadata>
 <defs>
  <style type="text/css">*{stroke-linejoin: round; stroke-linecap: butt}</style>
 </defs>
 <g id="figure_1">
  <g id="patch_1">
   <path d="M -0 280.512 
L 235.694573 280.512 
L 235.694573 0 
L -0 0 
z
" style="fill: #ffffff"/>
  </g>
  <g id="axes_1">
   <g id="PatchCollection_1">
    <path d="M 108.520325 191.147906 
L 108.342798 190.297262 
L 108.329995 189.914531 
L 108.204527 189.643121 
L 108.071376 189.434262 
L 108.057293 189.307039 
L 108.117467 189.211621 
L 108.509236 189.04305 
L 108.612939 188.891442 
L 108.610378 188.756797 
L 108.564288 188.564902 
L 108.48491 188.33802 
L 108.300548 187.620267 
L 108.082899 187.065785 
L 108.049612 186.852685 
L 108.064975 186.681994 
L 108.226291 186.429667 
L 108.30823 186.257915 
L 108.391449 185.949398 
L 108.400411 185.721456 
L 108.239094 185.365231 
L 108.143073 185.088519 
L 108.13283 184.787424 
L 108.1738 184.537218 
L 108.26214 184.196895 
L 108.797301 183.330715 
L 108.973981 182.749727 
L 108.937609 182.771429 
L 108.680794 182.92466 
L 108.21861 182.616143 
L 107.765387 182.161319 
L 107.597669 182.068021 
L 107.400505 182.043637 
L 106.949843 182.074383 
L 106.794927 182.012891 
L 106.679701 181.919594 
L 106.613126 181.808273 
L 106.508143 181.565489 
L 106.440287 181.447807 
L 106.109972 181.049173 
L 106.048518 180.920889 
L 105.787339 180.571025 
L 103.36119 178.347794 
L 103.087848 178.383841 
L 102.841392 178.48668 
L 102.103945 179.051764 
L 101.846607 179.166265 
L 101.671848 179.195951 
L 101.406187 179.18959 
L 101.199421 179.089931 
L 100.66874 178.609662 
L 100.521507 178.414586 
L 100.429326 178.236474 
L 100.392838 177.932197 
L 100.35827 177.796492 
L 100.301297 177.689412 
L 100.259688 177.630041 
L 99.529282 176.949396 
L 98.969796 176.139406 
L 98.959713 176.119988 
L 98.250273 174.75373 
L 98.200342 174.527908 
L 98.162573 174.218331 
L 98.19458 174.005232 
L 98.182418 173.66809 
L 98.131206 173.476194 
L 98.06015 173.320345 
L 97.626772 172.827354 
L 97.3976 172.622736 
L 97.213878 172.537921 
L 97.179951 172.437202 
L 97.163307 172.337544 
L 97.318862 171.627213 
L 97.424486 171.275228 
L 97.505144 171.129981 
L 97.583242 171.014419 
L 97.70871 170.913701 
L 97.731756 170.849029 
L 97.716392 170.80026 
L 97.341267 170.542632 
L 97.159466 170.310449 
L 97.140902 170.15142 
L 97.201716 170.026317 
L 97.420645 169.894852 
L 98.073593 169.66691 
L 98.19458 169.551349 
L 98.291242 169.399741 
L 98.353976 169.173919 
L 98.305325 169.049876 
L 98.186258 169.004288 
L 98.063991 169.035034 
L 97.921238 169.039274 
L 97.766323 168.978843 
L 97.567878 168.716975 
L 97.53075 168.53038 
L 97.562117 168.356508 
L 98.570986 166.860572 
L 98.701575 166.616727 
L 98.825123 166.142819 
L 98.887857 165.998633 
L 98.965955 165.889433 
L 99.069658 165.798256 
L 99.407655 165.601059 
L 99.508798 165.512003 
L 99.588176 165.413405 
L 99.757814 165.133513 
L 99.831431 165.060359 
L 99.934494 164.986146 
L 100.166867 164.897089 
L 101.013138 164.863163 
L 101.166773 164.784708 
L 101.310166 164.606596 
L 101.308885 164.474071 
L 101.246151 164.363811 
L 101.130925 164.293838 
L 100.509985 164.106183 
L 100.396039 163.969418 
L 100.31538 163.792365 
L 100.247525 163.360865 
L 100.242404 163.288772 
L 100.324343 163.011001 
L 100.450451 162.73747 
L 100.625211 162.547695 
L 101.129005 162.206312 
L 101.28648 161.986852 
L 101.344734 161.837364 
L 101.303124 161.445091 
L 101.284499 161.443622 
L 98.481365 161.22245 
L 98.307886 161.068722 
L 97.66134 160.340367 
L 96.772818 159.698949 
L 96.139075 159.086156 
L 95.291523 158.51683 
L 95.208304 158.415052 
L 95.126366 158.294189 
L 95.05723 158.156364 
L 94.989375 157.957047 
L 94.947125 157.777874 
L 94.901035 157.454514 
L 94.899754 157.297605 
L 94.911277 157.136455 
L 94.949686 156.975306 
L 95.238391 156.481254 
L 95.407389 156.284058 
L 95.514294 156.205604 
L 96.656952 155.745479 
L 97.306059 155.282173 
L 97.560197 155.177213 
L 99.465268 155.054231 
L 99.630425 154.94079 
L 99.860878 154.383127 
L 100.505504 153.788357 
L 100.691786 153.562535 
L 100.814694 153.365339 
L 100.836458 153.21055 
L 100.79933 153.054701 
L 100.713551 152.88295 
L 100.097731 152.164137 
L 99.978024 152.123849 
L 99.851916 152.12915 
L 99.732849 152.191702 
L 99.259141 152.670911 
L 98.564584 153.062123 
L 98.467282 153.149059 
L 98.380863 153.251898 
L 98.255394 153.518007 
L 98.177296 153.636749 
L 98.085116 153.734287 
L 97.936602 153.798959 
L 97.754161 153.832885 
L 97.48722 153.821223 
L 97.377115 153.737468 
L 97.370714 153.622966 
L 97.507065 153.384422 
L 97.544833 153.247657 
L 97.544833 153.088628 
L 97.507065 152.955043 
L 97.450092 152.82994 
L 97.255488 152.479015 
L 97.156265 152.197003 
L 97.13322 152.011469 
L 97.140902 151.780346 
L 97.182511 151.604353 
L 97.255488 151.47819 
L 97.347669 151.384893 
L 98.026222 150.962935 
L 98.232349 150.780581 
L 98.391745 150.549459 
L 98.444237 150.413753 
L 98.483926 150.226099 
L 98.554982 149.666315 
L 98.601072 149.444734 
L 98.670208 149.284645 
L 98.761109 149.189227 
L 99.232895 148.907215 
L 99.34364 148.796955 
L 99.425579 148.582795 
L 99.505597 148.200065 
L 99.479351 147.68693 
L 99.508798 147.41658 
L 99.538245 147.25755 
L 99.705963 146.902385 
L 99.82695 146.519654 
L 99.900567 146.377588 
L 99.987626 146.277929 
L 100.09261 146.217498 
L 100.247525 146.177211 
L 100.728914 146.137984 
L 100.881269 146.047867 
L 101.036824 145.905801 
L 101.193019 145.569719 
L 101.221826 145.444616 
L 101.183417 145.336475 
L 100.759641 145.120196 
L 100.641854 145.016296 
L 100.521507 144.87529 
L 100.265449 144.418346 
L 100.230881 144.382299 
L 100.086209 144.297484 
L 99.497275 144.099227 
L 98.804638 144.003809 
L 98.669568 143.912632 
L 98.551781 143.781168 
L 98.378302 143.442966 
L 98.307886 143.364511 
L 98.19266 143.313622 
L 97.428327 143.25001 
L 97.005831 143.051753 
L 96.752974 142.776102 
L 96.750263 142.767568 
L 96.455307 141.838889 
L 96.448265 141.637452 
L 96.457867 141.393607 
L 96.506518 141.250481 
L 96.654392 141.009816 
L 96.744012 140.899556 
L 97.081368 140.576196 
L 97.209397 140.364157 
L 97.235003 140.193465 
L 97.214518 140.049279 
L 97.151784 139.871166 
L 97.101213 139.672909 
L 97.049361 139.334707 
L 97.086489 139.145992 
L 97.170348 139.011347 
L 97.432168 138.907448 
L 97.594765 138.797187 
L 97.759282 138.618014 
L 97.963488 138.181214 
L 98.094078 137.957512 
L 98.23875 137.791062 
L 98.554982 137.549337 
L 98.653564 137.501628 
L 98.777752 137.477244 
L 98.873774 137.430595 
L 100.132299 136.468997 
L 100.407561 136.340714 
L 100.854383 136.317389 
L 101.146929 136.382061 
L 101.260875 136.442492 
L 101.676329 136.948206 
L 101.776831 137.042563 
L 101.890137 137.108295 
L 102.064256 137.137981 
L 102.281906 137.114657 
L 103.252365 136.814621 
L 103.572438 136.826283 
L 103.867545 136.910039 
L 103.996214 136.984253 
L 105.307231 138.352965 
L 105.457025 138.428239 
L 105.692598 138.490791 
L 105.889763 138.423998 
L 106.394197 138.042328 
L 106.641293 137.925706 
L 106.972888 137.851493 
L 107.129083 137.768797 
L 107.223825 137.627791 
L 107.24687 137.463461 
L 107.259673 136.799778 
L 107.237908 136.64499 
L 107.195658 136.507164 
L 107.042023 136.120193 
L 106.985691 135.790472 
L 106.974914 135.783924 
L 105.961459 135.168137 
L 105.031328 135.028191 
L 104.851447 134.950797 
L 104.72982 134.842657 
L 104.546098 134.412217 
L 103.932199 133.706127 
L 103.818894 133.472884 
L 103.763841 133.266146 
L 103.772163 133.102875 
L 103.76 132.952328 
L 103.597404 132.229274 
L 103.426485 131.691755 
L 102.772257 130.215962 
L 102.641667 130.032548 
L 101.431793 128.731688 
L 101.303124 128.510107 
L 101.299777 128.477599 
L 101.289041 128.373342 
L 101.324249 128.233396 
L 101.408748 128.137978 
L 102.327996 127.55275 
L 102.395852 127.429767 
L 102.423378 127.242113 
L 102.370886 126.884827 
L 102.261421 126.645222 
L 102.151316 126.472411 
L 101.33065 125.568063 
L 99.73989 124.288407 
L 99.511358 124.191929 
L 98.577387 124.020178 
L 98.134855 123.801034 
L 98.134855 123.108375 
L 97.852587 122.6292 
L 97.474548 121.986404 
L 96.874727 120.714169 
L 95.979533 119.547119 
L 95.64081 118.931037 
L 95.612583 118.294919 
L 95.880739 117.885867 
L 96.332368 117.638767 
L 97.388859 117.478485 
L 97.894927 117.284811 
L 98.786089 116.571892 
L 99.34861 116.613632 
L 99.927261 117.313195 
L 101.395058 121.119882 
L 101.836607 121.71259 
L 102.4455 122.251871 
L 103.165285 122.577443 
L 103.931443 122.54739 
L 103.955638 122.46224 
L 103.985881 122.283593 
L 104.070561 122.096598 
L 104.254036 121.986404 
L 104.475818 122.001431 
L 104.852849 122.193435 
L 105.032291 122.241853 
L 105.437548 122.206792 
L 105.791392 122.106616 
L 106.469845 121.705912 
L 106.332743 121.179988 
L 106.401294 120.804328 
L 106.592833 120.520496 
L 106.807559 120.278404 
L 107.01422 120.37858 
L 107.229954 120.348527 
L 107.448712 120.208281 
L 107.66747 119.976206 
L 107.312618 119.952832 
L 106.066604 120.248351 
L 105.794416 120.41865 
L 105.621022 121.019706 
L 105.189555 121.238424 
L 104.928456 121.21004 
L 104.10282 121.119882 
L 103.042297 120.724187 
L 102.088632 120.049669 
L 101.296264 119.206521 
L 100.704508 118.294919 
L 97.836457 112.07566 
L 97.704395 111.513005 
L 97.764882 110.940332 
L 98.058239 110.295867 
L 99.688341 107.624507 
L 101.00593 105.933202 
L 101.211583 105.787947 
L 101.425301 105.357191 
L 102.423322 104.660967 
L 102.730793 104.235219 
L 100.604706 104.208506 
L 99.697414 103.809472 
L 99.010896 102.836095 
L 98.832462 101.460345 
L 99.116747 98.364907 
L 98.826413 97.229579 
L 99.221589 96.51666 
L 99.794191 96.171052 
L 102.070486 95.319557 
L 102.47776 95.272808 
L 102.803377 95.523248 
L 102.990884 95.593371 
L 103.069516 95.409715 
L 103.153188 95.162614 
L 103.346744 94.952245 
L 103.570542 94.795302 
L 103.747968 94.708483 
L 103.468724 94.247674 
L 104.330652 93.38616 
L 104.439527 92.721659 
L 104.007051 93.035544 
L 103.577599 93.202504 
L 102.818498 93.282645 
L 102.699542 93.17579 
L 102.308398 92.289233 
L 102.255977 91.970339 
L 102.427355 91.738265 
L 102.687445 91.536243 
L 102.903179 91.322535 
L 103.384044 90.440986 
L 103.72579 90.055308 
L 104.521183 89.734745 
L 104.808492 89.325693 
L 105.284316 88.242123 
L 104.866962 87.639398 
L 104.282263 86.5024 
L 103.92237 85.802838 
L 103.840714 85.415491 
L 104.369968 85.2118 
L 104.929464 84.684206 
L 105.302462 83.962939 
L 105.284316 83.173218 
L 105.114955 83.173218 
L 105.020193 83.7893 
L 104.667358 84.280163 
L 103.931443 84.854505 
L 103.044313 85.325332 
L 102.591675 85.679287 
L 102.393079 86.116723 
L 102.20154 86.729466 
L 101.735796 87.014967 
L 100.620835 87.095108 
L 100.286145 86.831311 
L 99.948431 86.233595 
L 99.80024 85.579111 
L 100.027063 85.158372 
L 99.848629 84.684206 
L 99.622814 84.286841 
L 99.34357 84.106524 
L 99.010896 84.266806 
L 99.122795 84.831131 
L 99.044163 85.405473 
L 98.903029 85.939745 
L 98.826413 86.393876 
L 98.717538 86.734475 
L 97.981624 87.656094 
L 97.562253 88.514268 
L 97.308211 88.913302 
L 96.630767 89.273936 
L 96.576329 89.739754 
L 96.651937 90.295731 
L 96.627742 90.761549 
L 95.756742 89.569455 
L 95.527903 89.362425 
L 95.132727 89.335711 
L 94.789972 89.243883 
L 94.503671 89.065236 
L 94.25971 88.778065 
L 94.330277 88.143617 
L 94.468387 87.442385 
L 94.453266 86.848007 
L 94.075227 86.534123 
L 94.075227 86.25363 
L 94.897839 85.999851 
L 95.106516 84.806087 
L 95.050062 83.418649 
L 95.091394 82.587189 
L 94.701259 82.807576 
L 94.497622 83.234993 
L 94.25971 84.266806 
L 94.47746 85.068214 
L 94.106479 85.256879 
L 93.536901 85.20846 
L 93.143741 85.286931 
L 92.628601 85.505649 
L 92.090274 84.978056 
L 91.199112 83.428667 
L 90.463197 82.530422 
L 90.136572 81.982794 
L 89.99947 81.324971 
L 90.061972 81.009417 
L 90.170847 80.673827 
L 90.21722 80.308185 
L 90.035762 79.725495 
L 89.986365 79.306425 
L 89.914789 79.226284 
L 89.324041 78.945792 
L 88.479252 77.232782 
L 87.898585 76.726893 
L 85.565836 73.556323 
L 85.162595 73.344284 
L 85.037591 73.205707 
L 84.7775 72.613 
L 84.51741 72.334176 
L 84.699876 72.0253 
L 84.962991 71.731451 
L 85.077915 71.634614 
L 85.604144 70.210445 
L 86.260419 67.004814 
L 87.095127 65.146549 
L 87.444939 64.128093 
L 87.6143 63.76746 
L 87.823985 63.590482 
L 88.365336 63.388461 
L 88.631475 63.208144 
L 88.946003 62.80911 
L 89.339163 62.134591 
L 89.551873 61.354888 
L 89.324041 60.658665 
L 90.13254 58.254441 
L 90.618445 57.13247 
L 91.199112 56.457952 
L 91.683001 56.346089 
L 91.97031 56.561467 
L 92.233425 56.865334 
L 92.636665 57.017268 
L 92.902804 56.987215 
L 93.920988 56.457952 
L 93.60646 56.224208 
L 92.36851 55.616474 
L 93.007647 54.945295 
L 93.378629 54.668141 
L 94.937155 54.217349 
L 95.248658 54.307508 
L 95.431125 54.454432 
L 95.572259 54.624731 
L 95.765815 54.774995 
L 96.691253 55.073854 
L 97.187239 55.108915 
L 99.249816 54.514538 
L 99.688341 54.217349 
L 97.981624 54.217349 
L 97.981624 53.936856 
L 98.457448 53.860055 
L 98.836494 53.626311 
L 99.215541 53.476047 
L 99.688341 53.656364 
L 99.688341 53.350827 
L 99.082471 53.080352 
L 98.983454 53.105496 
L 99.091423 52.359419 
L 99.412776 51.721181 
L 99.439662 51.543068 
L 99.479351 50.463788 
L 99.583695 50.264472 
L 99.714284 50.190258 
L 99.857037 50.232666 
L 100.79933 50.701272 
L 100.973449 50.730958 
L 101.37418 50.663105 
L 101.50477 50.557086 
L 101.608473 50.429862 
L 102.020727 49.539298 
L 102.153877 49.405713 
L 102.948297 49.053728 
L 103.125617 48.915903 
L 103.313819 48.703863 
L 103.398318 48.549075 
L 103.938559 47.78016 
L 104.627397 46.799752 
L 104.981397 46.541064 
L 105.414775 46.426563 
L 106.508143 45.936752 
L 107.193098 45.485109 
L 107.724418 44.986817 
L 108.033425 44.516777 
L 108.61934 43.625525 
L 109.052078 43.313828 
L 109.364469 43.180243 
L 109.507862 43.031815 
L 109.596202 42.860064 
L 109.665337 42.520801 
L 109.680701 42.376614 
L 109.669178 42.274836 
L 109.630769 42.170936 
L 109.564194 42.043713 
L 109.50274 41.869841 
L 109.50146 41.575106 
L 109.568035 41.416077 
L 109.669178 41.282492 
L 110.004614 41.023805 
L 111.339956 39.448353 
L 113.539494 37.559084 
L 113.808355 37.438222 
L 114.431856 37.330082 
L 114.778815 37.389453 
L 114.915806 37.453065 
L 115.147538 37.624817 
L 115.237159 37.730836 
L 115.393354 37.779605 
L 115.607162 37.760522 
L 116.098794 37.472148 
L 116.299799 37.26435 
L 116.426548 37.04595 
L 116.526411 36.677001 
L 116.618591 36.462842 
L 116.792711 36.151144 
L 116.948906 36.011198 
L 117.679952 35.699501 
L 117.93729 35.415368 
L 118.259923 35.156681 
L 118.961522 35.020976 
L 119.253428 34.893752 
L 119.768105 34.569332 
L 120.084336 34.242792 
L 120.330152 33.922613 
L 120.433855 33.714814 
L 120.476105 33.532461 
L 120.473544 33.373431 
L 120.433855 33.233485 
L 120.374962 33.110503 
L 120.284061 33.010844 
L 119.736097 32.23054 
L 119.684886 32.101196 
L 119.658 31.978213 
L 119.658 31.85099 
L 119.664401 31.79798 
L 119.669522 31.725887 
L 119.66184 31.600784 
L 119.628553 31.467199 
L 119.375056 30.977389 
L 119.052422 30.517263 
L 118.64401 29.800571 
L 118.230476 28.748857 
L 118.154939 28.468965 
L 118.133174 28.316297 
L 118.098607 28.176351 
L 118.033312 28.053368 
L 117.737565 27.764995 
L 117.656907 27.656855 
L 117.596733 27.52327 
L 117.581369 27.366361 
L 117.54168 27.220054 
L 117.441818 27.135239 
L 117.044928 26.918959 
L 116.957868 26.81718 
L 116.895134 26.696318 
L 116.860566 26.537288 
L 116.854165 26.367657 
L 116.87721 26.159859 
L 116.978353 26.05808 
L 117.103821 25.966903 
L 117.40725 25.877846 
L 118.381551 25.871485 
L 118.740032 25.793031 
L 118.988408 25.67853 
L 119.166368 25.479213 
L 120.515794 23.560258 
L 120.647664 23.29733 
L 120.756488 22.97291 
L 120.85379 22.807519 
L 120.969016 22.688777 
L 121.202029 22.519146 
L 121.459367 22.254097 
L 121.589957 22.155499 
L 121.994529 21.978446 
L 122.114876 21.902112 
L 122.724294 21.278717 
L 122.843361 21.062437 
L 122.907375 20.861 
L 122.979071 20.237604 
L 123.05973 19.916365 
L 123.180077 19.776419 
L 123.320909 19.690543 
L 124.438259 19.296 
L 124.764884 19.897056 
L 128.031135 23.833972 
L 128.394052 24.788983 
L 128.644062 25.293202 
L 129.178356 25.647158 
L 129.313441 25.937668 
L 129.422316 26.233187 
L 129.551354 26.378442 
L 129.783217 26.311658 
L 129.940481 26.117985 
L 130.051372 25.912624 
L 130.14311 25.817457 
L 130.420338 25.854188 
L 130.736882 26.007791 
L 131.037296 26.348389 
L 131.256054 26.939428 
L 130.753011 26.939428 
L 130.753011 27.194877 
L 131.050402 27.363506 
L 131.920394 27.129762 
L 132.45872 27.194877 
L 134.150316 28.338552 
L 134.150316 28.619045 
L 134.014222 28.88952 
L 134.055554 29.188379 
L 134.228948 29.487237 
L 134.489038 29.76773 
L 134.150316 30.019839 
L 134.150316 30.300332 
L 134.364034 30.432231 
L 134.841874 30.861318 
L 134.841874 31.14181 
L 134.634205 31.500774 
L 134.757194 31.697787 
L 135.005187 31.834694 
L 135.17858 32.008333 
L 135.287455 32.499195 
L 135.376168 35.250696 
L 135.33282 35.64973 
L 135.204791 36.320909 
L 135.184629 36.541296 
L 135.17858 36.896921 
L 135.327779 37.791826 
L 135.940706 38.850353 
L 136.009257 39.57162 
L 135.979014 39.765293 
L 135.930625 39.952289 
L 135.858041 40.127597 
L 135.76328 40.297896 
L 135.656421 40.603432 
L 135.701785 40.873908 
L 135.799571 41.134365 
L 135.854009 41.40484 
L 135.993127 41.882346 
L 136.303622 42.339816 
L 136.872192 42.934194 
L 136.669564 43.473475 
L 136.795576 43.725584 
L 137.038529 43.944302 
L 137.194785 44.360032 
L 137.124218 44.765745 
L 136.956873 45.116361 
L 136.843965 45.475325 
L 136.9478 45.899403 
L 137.374227 46.528842 
L 137.492175 46.824361 
L 137.576856 47.710919 
L 137.794606 48.584119 
L 137.885335 48.842907 
L 137.981105 48.9147 
L 138.301681 49.051607 
L 138.393418 49.121731 
L 138.430718 49.238603 
L 138.514391 49.574192 
L 138.920656 50.611014 
L 139.146471 50.981665 
L 139.273492 51.347307 
L 139.386399 51.866553 
L 139.549712 52.334041 
L 139.83198 52.534393 
L 139.914645 52.649595 
L 140.607211 53.350827 
L 140.794718 53.791601 
L 140.817904 54.042041 
L 140.773548 54.224027 
L 140.761451 54.472798 
L 140.789677 55.386069 
L 140.85218 55.750042 
L 141.030614 55.895297 
L 140.964079 56.274296 
L 142.426835 61.376593 
L 142.955081 62.668863 
L 143.822049 63.76746 
L 144.203112 64.039605 
L 145.512636 64.605599 
L 145.512636 64.911136 
L 145.007577 64.911136 
L 145.01161 65.096461 
L 145.052942 65.223351 
L 145.19206 65.473791 
L 145.252546 65.802702 
L 145.349324 66.10323 
L 145.495499 66.365357 
L 145.699135 66.594092 
L 145.495499 66.946378 
L 145.258595 67.150069 
L 144.668855 67.407187 
L 144.732365 67.704376 
L 144.853338 67.874675 
L 145.027739 67.948138 
L 145.267668 67.968173 
L 145.336219 67.901389 
L 145.358397 67.766151 
L 145.394689 67.660967 
L 145.512636 67.68768 
L 145.578163 67.791195 
L 145.68099 67.991547 
L 145.742484 68.18689 
L 145.699135 68.275379 
L 145.997534 68.218613 
L 146.144717 68.001565 
L 146.359442 66.849541 
L 146.791918 67.405518 
L 147.212297 67.747786 
L 147.693162 67.921424 
L 148.737556 68.058331 
L 149.94123 68.836365 
L 155.034162 70.369057 
L 160.606951 73.791737 
L 161.308591 74.462916 
L 161.60094 75.033919 
L 161.627151 75.40457 
L 161.582794 75.725134 
L 161.661426 76.142533 
L 161.919501 76.49148 
L 162.742112 77.080849 
L 163.089907 77.418108 
L 163.461897 78.065912 
L 163.887316 79.045967 
L 164.187731 80.082789 
L 164.197812 80.907571 
L 164.284508 81.179716 
L 164.42161 81.448522 
L 164.615166 81.658891 
L 164.874248 81.74571 
L 164.771422 82.171458 
L 164.704887 82.333409 
L 164.91054 82.543779 
L 165.376283 83.214958 
L 165.566814 83.428667 
L 166.576933 83.692464 
L 166.826942 83.87445 
L 167.119292 84.159952 
L 167.689878 84.443784 
L 167.875369 84.857844 
L 168.04977 85.948093 
L 168.104208 86.116723 
L 168.760482 86.79458 
L 171.793862 87.979996 
L 172.684016 88.778065 
L 170.49341 89.956802 
L 169.731285 90.821655 
L 169.117351 92.444506 
L 169.663742 93.591521 
L 170.375462 96.277907 
L 170.810962 97.510072 
L 173.436061 101.535477 
L 177.86163 108.041907 
L 178.252773 109.397622 
L 177.94631 110.729963 
L 177.805176 110.881896 
L 177.270882 111.314323 
L 177.809208 110.050435 
L 177.924132 109.354212 
L 177.532988 109.048676 
L 177.018856 108.876707 
L 175.946235 108.098673 
L 175.409925 107.901661 
L 174.922003 108.016863 
L 173.96229 108.607901 
L 173.439085 108.743139 
L 172.835232 108.686372 
L 172.268678 108.517743 
L 171.764627 108.252277 
L 171.333159 107.901661 
L 168.972184 104.871337 
L 168.104208 104.235219 
L 167.230183 104.096643 
L 166.994287 104.059911 
L 163.873203 105.101742 
L 163.413508 105.101742 
L 161.907403 105.101742 
L 161.066646 105.300424 
L 160.891236 105.230301 
L 160.27831 104.635923 
L 160.205727 104.540756 
L 158.772205 104.375466 
L 158.24396 104.540756 
L 156.556397 105.662727 
L 156.782211 105.742868 
L 156.999962 105.863079 
L 157.207631 106.023361 
L 157.39917 106.222043 
L 157.770152 105.572569 
L 158.455661 105.253675 
L 159.205689 105.201918 
L 159.78434 105.357191 
L 160.792442 106.078458 
L 161.058581 106.36229 
L 161.42553 106.604382 
L 161.819698 106.455787 
L 162.506216 105.914837 
L 166.942874 105.103411 
L 167.633424 105.397261 
L 168.104208 106.222043 
L 169.881492 108.953508 
L 170.986372 109.519503 
L 171.750514 110.422756 
L 172.177949 110.729963 
L 173.044917 110.860191 
L 173.399769 111.007116 
L 174.55707 112.444642 
L 176.932159 114.373029 
L 177.405967 114.583399 
L 177.875743 114.690253 
L 178.317292 114.887266 
L 178.712468 115.351415 
L 178.789084 115.658621 
L 178.843521 116.07936 
L 178.910056 116.451681 
L 179.05119 116.613632 
L 179.277005 116.690434 
L 179.992758 117.197992 
L 179.805251 117.478485 
L 180.236718 117.802387 
L 180.621813 118.370051 
L 180.90005 119.021195 
L 181.006909 119.578841 
L 183.031178 125.125252 
L 183.379981 126.674641 
L 183.390062 128.43106 
L 182.873914 130.576495 
L 182.726731 130.861997 
L 182.450511 130.977199 
L 181.958557 131.079045 
L 181.5533 131.339502 
L 179.337491 133.586784 
L 178.877797 133.777118 
L 178.539074 134.042584 
L 176.589404 136.927653 
L 176.070232 137.488638 
L 175.486541 137.727391 
L 175.103462 137.997866 
L 174.766756 138.570539 
L 174.809096 139.069749 
L 175.562148 139.126516 
L 176.847479 138.820979 
L 177.172088 138.951208 
L 177.86163 139.532228 
L 178.200352 139.662457 
L 178.789084 140.06817 
L 180.065341 142.056663 
L 180.668186 142.792957 
L 181.107719 142.465715 
L 181.631932 142.388914 
L 182.619872 142.48742 
L 183.023113 142.722834 
L 183.718704 143.724594 
L 184.08162 143.914928 
L 184.08162 143.634435 
L 183.950567 142.993309 
L 184.450586 142.226963 
L 185.097787 141.494008 
L 185.422396 140.94638 
L 185.555466 139.947959 
L 185.869994 138.842684 
L 186.257105 137.839254 
L 186.587763 137.139692 
L 187.444649 136.246456 
L 188.666469 135.670444 
L 189.999181 135.409987 
L 191.200838 135.460075 
L 191.015348 135.154538 
L 191.519399 134.969212 
L 192.06579 135.099441 
L 192.620246 135.334855 
L 193.148492 135.460075 
L 195.259458 135.460075 
L 196.245382 135.717193 
L 197.374457 136.2715 
L 198.547888 136.56535 
L 199.674946 136.046104 
L 199.414856 135.857439 
L 199.12049 135.745576 
L 198.809994 135.707175 
L 198.489418 135.740567 
L 198.489418 135.460075 
L 206.134865 137.31667 
L 209.141026 138.866058 
L 215.29045 143.609391 
L 216.012251 144.435843 
L 216.598966 145.447621 
L 217.06471 147.387695 
L 217.518356 148.583129 
L 217.842965 149.79025 
L 217.681668 150.66345 
L 217.832884 151.294559 
L 217.879256 152.104315 
L 217.851029 153.581911 
L 218.435729 155.50529 
L 218.334919 155.872602 
L 218.020391 156.266627 
L 217.397383 158.390358 
L 217.419562 158.787723 
L 217.363108 159.181748 
L 216.266293 162.126922 
L 215.479973 163.579474 
L 215.213834 163.880002 
L 214.951727 164.34582 
L 214.895274 165.397668 
L 214.959792 167.245915 
L 214.826723 168.042314 
L 214.379125 169.454796 
L 214.282348 170.197768 
L 213.927496 171.306382 
L 213.887171 171.874046 
L 213.756118 172.099442 
L 211.808465 172.94092 
L 211.39111 173.431783 
L 211.024161 173.136263 
L 210.895124 173.473522 
L 210.822541 174.001116 
L 210.622936 174.273261 
L 210.453575 174.418516 
L 209.854762 175.366849 
L 208.120827 177.328628 
L 207.840574 177.787768 
L 207.562338 177.901301 
L 205.880823 175.674055 
L 205.148941 175.430293 
L 203.919056 174.413507 
L 203.241612 174.273261 
L 203.241612 174.553754 
L 204.124709 175.410258 
L 204.640858 175.794266 
L 205.777997 176.066411 
L 206.038087 176.201649 
L 206.146962 176.386974 
L 206.128817 177.048136 
L 206.044136 177.230122 
L 205.542101 177.099893 
L 205.249751 177.139964 
L 204.721506 177.316941 
L 204.42714 177.353672 
L 204.116644 177.268523 
L 203.425086 176.796026 
L 202.874662 176.836096 
L 201.670988 177.250157 
L 201.041933 177.353672 
L 201.695183 177.669227 
L 205.822353 177.939702 
L 206.316324 177.634165 
L 206.229627 178.400511 
L 204.273908 180.462467 
L 204.588436 180.709568 
L 204.975548 180.884876 
L 205.880823 181.023453 
L 206.136881 180.764665 
L 206.322372 180.343926 
L 206.431247 180.298846 
L 206.471571 181.163699 
L 206.177205 181.811504 
L 204.76183 183.16388 
L 203.487589 184.050437 
L 202.685139 184.399383 
L 200.951203 184.66318 
L 200.48546 184.591387 
L 200.253597 184.381018 
L 199.858421 183.544548 
L 199.051939 182.407551 
L 198.830156 181.861592 
L 198.761605 182.639625 
L 198.390624 183.083739 
L 197.475267 183.544548 
L 196.711125 184.280842 
L 196.529667 184.382688 
L 196.515553 184.606414 
L 196.44297 185.097276 
L 196.330063 185.588139 
L 196.201026 185.811865 
L 195.910692 185.883658 
L 195.5135 186.244291 
L 195.259458 186.369511 
L 194.957027 186.364502 
L 194.410636 186.12408 
L 194.170708 186.063974 
L 193.559798 186.134098 
L 192.414594 186.596577 
L 191.862154 186.930497 
L 192.249265 187.12584 
L 192.700895 187.187615 
L 193.118249 187.404663 
L 193.402534 188.052468 
L 194.104173 187.33621 
L 195.68891 186.977246 
L 196.444986 186.650004 
L 197.158723 186.048948 
L 197.596239 185.963799 
L 197.981334 186.369511 
L 198.027707 186.716788 
L 197.95714 187.117492 
L 197.854313 187.424698 
L 197.79786 187.491482 
L 197.848265 187.817054 
L 197.943026 188.139287 
L 198.136582 188.638497 
L 197.886573 188.858885 
L 197.793827 189.2095 
L 197.79786 190.162842 
L 197.713179 190.383229 
L 197.515591 190.58692 
L 197.136544 190.877431 
L 197.805924 190.830682 
L 198.043836 190.972598 
L 198.136582 191.157923 
L 197.459137 192.334991 
L 196.190945 193.518738 
L 195.075983 194.241674 
L 194.777585 194.433678 
L 193.662624 194.799321 
L 191.700857 194.46874 
L 191.015348 194.520497 
L 190.999218 194.500462 
L 190.672593 194.490445 
L 190.575815 194.50881 
L 190.511297 194.520497 
L 190.479037 194.583942 
L 189.999181 195.054769 
L 189.634248 195.179989 
L 189.301574 195.195016 
L 188.980997 195.280165 
L 188.648324 195.615755 
L 188.249115 195.221729 
L 188.112013 195.231747 
L 187.57167 195.265139 
L 185.853864 195.730957 
L 185.724827 196.029816 
L 185.65426 196.442207 
L 185.496996 196.901347 
L 185.170371 197.308729 
L 184.813503 197.522438 
L 184.444537 197.666023 
L 184.08162 197.883071 
L 185.664341 197.602579 
L 185.87201 197.47235 
L 185.986934 197.183509 
L 186.071614 196.892999 
L 186.188554 196.76277 
L 187.80555 196.300291 
L 191.769408 196.901347 
L 192.132325 197.168483 
L 192.440804 197.752843 
L 192.471047 198.145199 
L 192.223054 198.370595 
L 191.708922 198.440718 
L 190.819776 198.235357 
L 190.434681 198.250383 
L 189.652393 199.031756 
L 188.745101 199.258822 
L 188.293472 199.562689 
L 188.485011 199.793093 
L 188.654372 200.078595 
L 188.837847 200.324026 
L 189.071726 200.429211 
L 191.200838 200.429211 
L 192.217006 200.709704 
L 192.019417 200.227189 
L 191.90651 199.659526 
L 192.029498 199.262161 
L 192.551695 199.282196 
L 192.600084 199.80645 
L 192.870256 200.55777 
L 193.221075 201.230619 
L 193.493263 201.522799 
L 198.765638 202.147229 
L 201.830269 201.160496 
L 209.830568 200.387471 
L 210.435429 200.764801 
L 210.209614 202.110498 
L 210.120901 202.370956 
L 210.003962 202.614717 
L 209.862827 202.8134 
L 209.701531 202.948637 
L 208.818433 202.943628 
L 208.685364 203.088883 
L 208.759963 203.970432 
L 208.939406 204.661646 
L 209.346679 205.750226 
L 209.564429 207.376416 
L 209.358776 208.94417 
L 208.854725 210.251467 
L 208.179296 211.099623 
L 206.523993 211.694001 
L 205.844532 212.23829 
L 205.564279 212.268343 
L 205.027969 212.219925 
L 204.733603 212.331788 
L 204.489642 212.590576 
L 204.277941 212.881086 
L 204.088418 213.086447 
L 203.596464 213.300156 
L 201.973419 213.341896 
L 201.48953 213.480473 
L 200.987495 213.832758 
L 200.013668 214.766064 
L 198.745476 216.7028 
L 198.499499 217.183645 
L 198.564017 218.24551 
L 198.830156 219.8333 
L 197.971253 220.193933 
L 196.104248 219.547798 
L 194.430798 218.970117 
L 193.444874 219.310715 
L 191.015348 221.796749 
L 190.019343 222.272585 
L 184.65019 223.478036 
L 183.728785 223.910462 
L 183.60378 223.902114 
L 183.331592 224.286122 
L 183.087632 224.720218 
L 183.03521 224.8805 
L 182.188404 225.46319 
L 181.269015 226.84061 
L 180.349626 226.855636 
L 179.859688 226.777165 
L 178.724565 226.329712 
L 178.454394 226.279624 
L 177.579361 226.289642 
L 177.355562 226.152735 
L 176.922078 225.705282 
L 176.463392 225.543331 
L 175.409925 225.46319 
L 174.989546 225.302909 
L 170.264571 223.491393 
L 169.448008 223.407913 
L 169.379457 223.446314 
L 168.778628 223.781903 
L 167.873352 223.397895 
L 164.704887 224.596668 
L 160.45876 224.596668 
L 156.401149 226.024176 
L 156.182391 225.944035 
L 155.976738 225.753701 
L 155.770077 225.621802 
L 155.538213 225.718639 
L 155.401111 226.075933 
L 155.570473 226.850628 
L 155.453533 227.271367 
L 154.983757 227.55186 
L 154.417204 227.358186 
L 152.155022 225.835511 
L 151.972556 225.591749 
L 152.111674 225.17268 
L 152.443339 224.902205 
L 153.158084 224.596668 
L 153.158084 224.342889 
L 152.911099 224.150885 
L 152.42721 223.641657 
L 152.140909 223.478036 
L 152.020945 223.614943 
L 151.719522 223.79526 
L 151.54008 223.745172 
L 151.786057 223.197543 
L 151.51891 223.040601 
L 151.286038 222.907033 
L 150.503751 222.75343 
L 149.906954 222.750091 
L 149.733561 222.748421 
L 149.265801 222.890337 
L 148.948249 223.618282 
L 148.723442 224.603346 
L 148.386736 225.378041 
L 147.729453 225.46319 
L 147.227418 224.867143 
L 147.46029 224.150885 
L 147.913936 223.449653 
L 148.066159 222.890337 
L 147.616546 222.638227 
L 147.596384 222.639897 
L 146.068101 222.766787 
L 145.699135 222.890337 
L 146.566103 223.651674 
L 146.713286 223.910462 
L 146.776797 224.706862 
L 146.685059 225.144297 
L 146.359442 225.46319 
L 146.035842 225.444825 
L 145.584212 225.261169 
L 145.180971 224.992363 
L 145.007577 224.736914 
L 144.842248 224.356246 
L 144.043831 223.905454 
L 143.457116 223.371182 
L 142.640553 223.073993 
L 142.311912 222.890337 
L 141.886493 222.346047 
L 141.382442 221.698243 
L 138.648468 220.08374 
L 138.224057 219.8333 
L 138.224057 220.088749 
L 138.471042 220.218977 
L 138.928721 220.524514 
L 139.235184 220.574602 
L 139.842061 221.350966 
L 141.775601 223.624961 
L 141.993352 224.182607 
L 141.918752 224.6718 
L 141.360263 224.8805 
L 139.771494 225.027425 
L 139.406561 225.157653 
L 139.58802 225.301239 
L 139.7473 225.46319 
L 139.7473 225.718639 
L 138.618225 225.939026 
L 137.981105 226.182788 
L 137.700852 226.416532 
L 137.591977 226.434897 
L 136.779447 226.279624 
L 135.974981 227.829013 
L 135.920544 227.995973 
L 135.876187 228.005991 
L 135.392298 227.855727 
L 134.862036 227.481736 
L 133.164392 227.141138 
L 133.107938 227.141138 
L 132.609936 227.146147 
L 132.063544 227.316446 
L 131.110888 227.847379 
L 130.660266 227.959242 
L 130.023145 227.834022 
L 129.090651 227.648696 
L 128.537203 227.678749 
L 128.043233 227.847379 
L 127.572449 228.116184 
L 127.559344 228.126202 
L 127.137957 228.480157 
L 126.760927 228.954323 
L 126.490755 229.161354 
L 126.383896 228.880861 
L 126.33954 228.460122 
L 126.260908 228.238065 
L 125.309259 227.959242 
L 124.660041 228.00766 
L 124.460437 227.959242 
L 124.37374 227.805639 
L 124.355595 227.755551 
L 124.166071 227.261349 
L 124.03905 227.146147 
L 123.813236 227.356516 
L 122.956349 228.827434 
L 123.280958 228.780685 
L 123.574315 228.668822 
L 123.849527 228.486835 
L 124.121715 228.238065 
L 124.653993 229.244834 
L 124.94231 229.55204 
L 125.397972 229.665573 
L 125.811294 229.660564 
L 126.174211 229.745714 
L 126.345588 230.062938 
L 126.170179 230.76083 
L 126.535112 231.007931 
L 126.677254 231.064697 
L 125.815327 232.186669 
L 125.86674 232.797742 
L 125.408053 233.026477 
L 123.389833 233.071556 
L 122.968446 232.976389 
L 121.106481 232.046422 
L 116.515583 231.502133 
L 115.662729 230.937808 
L 115.135491 231.017949 
L 114.205013 231.348529 
L 113.91468 231.744225 
L 113.6062 232.620764 
L 113.46809 233.497304 
L 113.695921 233.893 
L 114.320945 234.108378 
L 114.383447 234.629293 
L 114.121341 235.275428 
L 113.772537 235.856449 
L 113.619306 235.856449 
L 113.599144 234.303721 
L 113.025533 233.281926 
L 107.836831 229.079543 
L 103.578607 227.398256 
L 103.021127 227.374882 
L 101.578532 227.725498 
L 101.152105 227.829013 
L 100.274048 228.446765 
L 99.688341 228.518558 
L 98.749798 228.238065 
L 98.46148 228.333232 
L 97.896943 228.827434 
L 97.77093 228.904235 
L 97.359625 229.278226 
L 97.120704 229.388419 
L 96.86263 229.361706 
L 96.385798 229.139649 
L 96.104537 229.079543 
L 95.630729 229.164693 
L 94.800053 229.572075 
L 93.791951 229.829194 
L 93.50565 230.241585 
L 93.281851 230.787544 
L 92.906837 231.348529 
L 91.108382 232.186669 
L 90.548886 232.156616 
L 90.13254 232.0147 
L 89.799866 231.67911 
L 89.493403 231.064697 
L 89.17081 230.086312 
L 89.07 229.921022 
L 88.999433 229.880951 
L 88.946003 229.792462 
L 88.867371 229.705643 
L 88.723213 229.665573 
L 88.640548 229.752392 
L 88.612321 229.946066 
L 88.638532 230.139739 
L 88.949027 230.51206 
L 89.277669 231.922872 
L 89.493403 232.467161 
L 89.051854 232.911275 
L 88.652645 233.478939 
L 88.293761 234.178501 
L 87.969152 235.014971 
L 87.69394 236.136942 
L 87.717127 236.941689 
L 88.152627 238.656368 
L 87.600187 238.694768 
L 87.04573 238.846702 
L 86.617287 239.185631 
L 86.447926 239.776669 
L 86.620311 240.454527 
L 87.049763 240.674914 
L 88.152627 240.619817 
L 88.152627 240.89864 
L 87.904634 241.613229 
L 87.884471 241.763493 
L 87.660673 241.800224 
L 87.47115 241.917096 
L 87.343121 242.127466 
L 87.174768 243.15427 
L 86.878385 243.374657 
L 86.491274 243.242758 
L 86.094082 242.883794 
L 85.91464 243.800405 
L 85.386394 244.137664 
L 84.829922 244.297945 
L 84.571847 244.691971 
L 84.438778 245.386524 
L 84.185744 246.24136 
L 84.043602 247.206388 
L 84.234133 248.233192 
L 83.862144 248.438553 
L 82.864122 248.745759 
L 82.440719 248.792508 
L 81.886263 248.648922 
L 81.434633 248.4085 
L 81.047522 248.358412 
L 80.682589 248.792508 
L 79.757151 247.897603 
L 78.32363 245.999268 
L 76.694537 244.418157 
L 76.420333 244.284589 
L 76.192502 244.346364 
L 75.559413 244.728702 
L 75.315453 244.818861 
L 75.17331 244.912358 
L 74.840636 245.313062 
L 74.638008 245.40656 
L 74.362796 245.343115 
L 74.107746 245.182833 
L 73.714586 244.818861 
L 73.77104 244.671936 
L 73.867818 244.284589 
L 73.323443 244.120968 
L 72.772011 243.69522 
L 72.512928 243.06912 
L 72.853667 242.297765 
L 71.942343 242.364549 
L 71.670155 242.297765 
L 71.353611 242.064021 
L 71.206428 241.800224 
L 71.099569 241.469643 
L 70.899965 241.050574 
L 70.710442 240.371047 
L 70.897949 239.793365 
L 71.234655 239.242397 
L 71.501802 238.656368 
L 71.00884 238.916825 
L 70.757822 238.891781 
L 70.485635 238.656368 
L 70.408011 238.985279 
L 70.3818 239.097142 
L 70.192277 239.392661 
L 69.94126 239.536247 
L 69.638829 239.52289 
L 69.638829 239.776669 
L 69.998721 240.033788 
L 70.099532 240.449518 
L 70.010819 240.885283 
L 69.793069 241.202507 
L 69.472492 241.312701 
L 68.271842 241.202507 
L 68.690205 241.836955 
L 70.098524 241.596533 
L 70.653988 242.042316 
L 69.793069 242.297765 
L 69.793069 242.578258 
L 70.000738 242.518152 
L 70.485635 242.578258 
L 70.301152 242.883794 
L 70.993718 242.883794 
L 70.993718 243.139243 
L 70.714474 243.246097 
L 70.549145 243.464815 
L 70.520918 243.745308 
L 70.653988 244.030809 
L 70.653988 244.284589 
L 70.127758 244.247857 
L 69.862628 243.745308 
L 69.629756 243.164287 
L 69.202321 242.883794 
L 67.087322 242.297765 
L 65.948167 242.427994 
L 64.151728 243.630105 
L 63.181934 244.030809 
L 59.107185 244.284589 
L 59.113233 244.351373 
L 59.035609 244.468245 
L 58.909597 244.568421 
L 58.76947 244.565081 
L 58.42974 243.44478 
L 58.252314 243.414727 
L 58.107147 243.519912 
L 57.974078 243.656819 
L 57.830927 243.725273 
L 57.3299 243.775361 
L 56.820809 243.954008 
L 56.543581 244.291267 
L 56.738144 244.818861 
L 56.738144 245.126067 
L 56.566767 245.278 
L 56.33692 245.543467 
L 56.133283 245.840656 
L 56.046586 246.104452 
L 56.082878 246.354892 
L 56.215947 246.630376 
L 56.215947 246.805684 
L 55.920574 247.5737 
L 55.878233 247.800766 
L 55.63024 248.087937 
L 54.402372 247.882576 
L 53.931588 248.092946 
L 53.470885 248.685654 
L 53.038409 248.954459 
L 51.98595 249.32678 
L 51.653277 249.690753 
L 50.618964 251.594096 
L 50.318549 251.083199 
L 50.174391 249.630647 
L 49.856838 249.32678 
L 49.366901 249.473705 
L 49.350771 249.837677 
L 49.39412 250.305165 
L 49.079592 250.752618 
L 49.079592 251.008067 
L 49.229799 251.128278 
L 49.602797 251.594096 
L 49.39412 251.574061 
L 49.230807 251.650863 
L 48.925352 251.874589 
L 48.689456 252.061584 
L 48.657197 252.362112 
L 48.673326 252.699371 
L 48.572516 252.99656 
L 48.35275 253.176877 
L 47.558365 253.554207 
L 47.838618 253.542519 
L 48.051327 253.604295 
L 48.403155 253.834699 
L 48.526144 253.853065 
L 48.812445 253.794629 
L 48.925352 253.834699 
L 48.982814 254.013347 
L 49.070519 254.559306 
L 49.171329 254.674508 
L 49.279196 255.020115 
L 48.957611 255.776444 
L 48.249924 256.916781 
L 48.021084 256.973547 
L 47.522074 256.873371 
L 47.219643 256.916781 
L 47.050282 257.073723 
L 46.315375 258.00202 
L 46.028066 258.96371 
L 45.943386 259.184097 
L 45.721603 259.092269 
L 45.467561 258.871882 
L 44.723582 257.985324 
L 44.603618 257.789981 
L 44.497767 257.50448 
L 44.410062 256.988573 
L 44.429216 256.657993 
L 44.419135 256.367482 
L 44.243725 255.961769 
L 43.534021 254.729605 
L 43.138845 254.213698 
L 42.65294 253.834699 
L 41.160948 253.076701 
L 40.156879 252.881358 
L 39.329227 252.342077 
L 38.914897 252.155082 
L 38.398748 252.188474 
L 37.750539 252.430566 
L 37.277739 252.851305 
L 37.284795 253.41396 
L 37.432986 254.128549 
L 37.162815 254.679517 
L 36.71925 255.060186 
L 36.348268 255.260538 
L 35.332101 255.611154 
L 34.144557 255.748061 
L 33.209038 255.360714 
L 32.948948 254.113522 
L 33.188876 254.0818 
L 33.366302 254.003329 
L 33.473161 253.834699 
L 33.475177 253.577581 
L 33.408642 253.382238 
L 33.329002 253.272044 
L 33.28767 253.273714 
L 33.153592 252.500689 
L 33.108228 252.064924 
L 33.202989 251.874589 
L 33.249362 251.737682 
L 33.717122 250.879508 
L 33.912693 250.735922 
L 34.640543 250.447081 
L 36.220239 249.470366 
L 37.067045 249.156481 
L 38.019702 248.501998 
L 38.561053 248.488641 
L 39.329227 249.270014 
L 39.828237 249.53381 
L 40.338337 249.19989 
L 40.696213 248.588817 
L 40.871623 248.183104 
L 40.945215 247.800766 
L 41.077276 247.647163 
L 41.960374 247.647163 
L 42.878755 247.101203 
L 45.716563 243.935642 
L 46.626879 243.259454 
L 46.965601 243.139243 
L 47.050282 242.928874 
L 47.070444 242.453038 
L 47.036168 241.94047 
L 46.871848 241.115688 
L 47.151092 240.910327 
L 47.526106 240.880275 
L 47.712605 240.89864 
L 49.433436 239.916916 
L 49.485857 239.683172 
L 49.719737 239.128864 
L 49.941519 237.534397 
L 49.969746 236.702936 
L 50.053418 235.996695 
L 50.292339 235.430701 
L 50.788325 235.014971 
L 51.294392 235.014971 
L 51.475851 234.874724 
L 51.798443 234.479029 
L 51.98595 234.428941 
L 52.129101 234.654337 
L 52.236968 235.131843 
L 52.303503 235.692828 
L 52.324673 236.160316 
L 52.49101 236.051792 
L 52.55452 235.986678 
L 52.648274 235.856449 
L 53.096879 236.146959 
L 54.124135 236.203726 
L 54.523344 236.414095 
L 54.251156 235.866466 
L 53.81868 235.592652 
L 53.002118 235.26875 
L 52.615006 234.739487 
L 52.65533 234.358818 
L 52.780335 234.01655 
L 52.648274 233.587463 
L 52.648274 233.332014 
L 53.264224 233.465582 
L 55.109051 233.332014 
L 55.820771 233.084913 
L 56.213931 232.483857 
L 56.500232 231.739216 
L 56.891376 231.064697 
L 56.738144 230.451954 
L 56.824841 230.01285 
L 57.072834 229.815837 
L 57.414581 229.921022 
L 59.169687 228.328223 
L 59.460021 227.818995 
L 59.652568 227.096059 
L 60.118311 226.536743 
L 61.152624 225.718639 
L 61.825028 224.289462 
L 61.706072 220.669769 
L 61.982292 218.970117 
L 62.15367 218.626179 
L 62.504489 217.594366 
L 62.405695 217.280482 
L 62.31295 216.692783 
L 62.290772 216.11844 
L 62.411744 215.861322 
L 64.619488 215.861322 
L 64.889659 215.954819 
L 65.401775 216.357193 
L 65.649768 216.447351 
L 67.087322 216.612642 
L 67.593389 216.447351 
L 67.964371 216.166859 
L 69.638829 214.205079 
L 69.776939 213.967996 
L 69.88783 213.722564 
L 70.041062 213.502177 
L 70.301152 213.341896 
L 70.145904 212.946201 
L 69.847506 211.829238 
L 69.793069 211.533719 
L 69.708388 211.276601 
L 69.284985 210.6121 
L 69.11764 210.258145 
L 69.9463 210.331607 
L 70.131791 210.258145 
L 70.292079 209.815701 
L 70.255787 209.383275 
L 70.071305 209.032659 
L 69.793069 208.833976 
L 69.793069 208.578528 
L 71.680236 207.792146 
L 76.210647 207.349702 
L 77.13911 206.98239 
L 77.604853 206.89891 
L 79.396251 206.89891 
L 79.939618 206.788717 
L 80.728962 206.349612 
L 81.173535 206.311211 
L 84.3793 207.186081 
L 86.372318 207.115958 
L 89.472233 207.867278 
L 90.211171 208.595224 
L 90.691028 208.833976 
L 93.521779 208.703748 
L 95.302088 208.122727 
L 96.197283 207.992498 
L 97.832424 208.082656 
L 98.804235 207.934062 
L 99.503858 207.431513 
L 99.688341 207.712005 
L 99.34861 208.298035 
L 99.688341 208.578528 
L 100.110736 207.730371 
L 100.196424 207.431513 
L 100.239773 206.905589 
L 100.191384 206.640122 
L 100.105695 206.419735 
L 100.027063 206.030718 
L 100.040168 204.494687 
L 99.966577 203.714983 
L 99.688341 203.22913 
L 100.169205 203.382733 
L 100.423247 203.265861 
L 100.425263 203.260852 
L 100.517001 202.888532 
L 100.532122 202.250744 
L 100.727694 201.873415 
L 101.072465 201.501094 
L 101.230737 201.118756 
L 100.856731 200.709704 
L 101.395058 200.123674 
L 102.186418 200.290634 
L 103.098751 199.365676 
L 104.778249 197.041593 
L 105.219798 196.672612 
L 105.658322 196.407145 
L 106.145236 196.251872 
L 106.729935 196.201784 
L 107.255156 195.976388 
L 107.757191 195.440447 
L 109.945781 191.553619 
L 110.149418 191.388328 
L 110.406484 191.271456 
L 110.624234 191.091139 
L 110.713955 190.727167 
L 110.772425 190.389908 
L 110.908519 190.010908 
L 111.074856 189.665301 
L 111.220022 189.424879 
L 112.637414 187.885508 
L 113.48422 186.690074 
L 113.911655 186.444643 
L 114.973187 186.063974 
L 115.378444 185.683306 
L 115.570992 185.212479 
L 115.506473 184.74666 
L 115.142548 184.382688 
L 115.034681 185.144025 
L 114.5891 185.573112 
L 114.018514 185.765116 
L 113.52656 185.811865 
L 113.060817 185.993851 
L 112.720078 186.439634 
L 112.419664 186.990602 
L 112.068844 187.491482 
L 110.592983 188.50326 
L 110.359103 188.763717 
L 110.134296 189.164421 
L 108.520325 191.147906 
" clip-path="url(#p420d1b61d1)" style="fill: #f5f5f5; stroke: #000000"/>
    <path d="M 147.729453 228.238065 
L 148.235521 229.079543 
L 148.235521 229.388419 
L 148.120597 229.390089 
L 148.054062 229.461882 
L 147.998617 229.565397 
L 147.913936 229.665573 
L 146.98749 229.956083 
L 146.592314 230.161444 
L 145.905796 230.80424 
L 145.76063 231.001253 
L 145.699135 231.208283 
L 145.713249 232.093171 
L 145.691071 232.550641 
L 145.60639 232.745984 
L 142.862336 233.605828 
L 141.9621 233.332014 
L 138.731133 230.912764 
L 138.561771 230.660654 
L 137.740168 230.042902 
L 137.455883 229.921022 
L 136.521373 230.041233 
L 136.116115 230.216541 
L 135.670534 230.507051 
L 136.269347 229.355027 
L 137.24519 228.46847 
L 139.406561 227.398256 
L 139.352124 227.535164 
L 139.288613 227.812317 
L 139.241232 227.959242 
L 139.84811 227.88244 
L 140.425753 227.38156 
L 141.269534 226.279624 
L 141.888509 225.823824 
L 142.452038 225.782084 
L 146.205203 227.398256 
L 146.818129 227.38156 
L 147.076203 227.436657 
L 147.375609 227.678749 
L 147.390731 227.782264 
L 147.360488 228.127871 
L 147.375609 228.238065 
L 147.445168 228.266448 
L 147.659894 228.209682 
L 147.729453 228.238065 
" clip-path="url(#p420d1b61d1)" style="fill: #f5f5f5; stroke: #000000"/>
    <path d="M 150.773922 224.342889 
L 150.773922 224.596668 
L 150.904975 224.730236 
L 151.126758 225.017407 
L 151.295111 225.157653 
L 151.295111 225.46319 
L 149.265801 225.157653 
L 149.265801 224.8805 
L 149.812193 224.640078 
L 150.459394 223.45967 
L 150.773922 223.478036 
L 151.010826 223.705102 
L 151.07232 223.950533 
L 150.983607 224.17092 
L 150.773922 224.342889 
" clip-path="url(#p420d1b61d1)" style="fill: #f5f5f5; stroke: #000000"/>
    <path d="M 197.136544 199.562689 
L 197.656725 200.157066 
L 197.896654 200.759792 
L 197.753503 201.250654 
L 197.136544 201.522799 
L 194.245307 201.270689 
L 193.757386 201.075346 
L 193.323902 200.619545 
L 192.975098 200.05856 
L 192.737186 199.562689 
L 193.057763 198.435709 
L 193.233173 198.186939 
L 193.555765 198.095111 
L 196.624429 199.198716 
L 196.866373 199.342302 
L 197.136544 199.562689 
" clip-path="url(#p420d1b61d1)" style="fill: #f5f5f5; stroke: #000000"/>
    <path d="M 18.500826 260.154135 
L 18.664139 260.294381 
L 18.863743 260.676719 
L 18.781079 261.035683 
L 18.539134 261.216 
L 18.244768 261.05071 
L 18.287109 260.484715 
L 18.500826 260.154135 
" clip-path="url(#p420d1b61d1)" style="fill: #f5f5f5; stroke: #000000"/>
    <path d="M 17.637891 259.160723 
L 17.777009 259.287612 
L 17.815317 259.591479 
L 17.666118 259.898686 
L 17.450384 259.773466 
L 17.281022 259.304308 
L 17.258844 258.970388 
L 17.43627 259.000441 
L 17.559259 259.110635 
L 17.637891 259.160723 
" clip-path="url(#p420d1b61d1)" style="fill: #f5f5f5; stroke: #000000"/>
    <path d="M 58.968067 208.9425 
L 59.004358 209.209636 
L 59.016456 209.710516 
L 58.843062 209.905859 
L 58.643458 209.620358 
L 58.612207 209.066051 
L 58.695879 208.551814 
L 58.824916 208.471673 
L 58.929759 208.773871 
L 58.968067 208.9425 
" clip-path="url(#p420d1b61d1)" style="fill: #f5f5f5; stroke: #000000"/>
   </g>
  </g>
 </g>
 <defs>
  <clipPath id="p420d1b61d1">
   <rect x="7.2" y="7.2" width="221.294573" height="266.112"/>
  </clipPath>
 </defs>
</svg>
