<?xml version="1.0" encoding="utf-8" standalone="no"?>
<!DOCTYPE svg PUBLIC "-//W3C//DTD SVG 1.1//EN"
  "http://www.w3.org/Graphics/SVG/1.1/DTD/svg11.dtd">
<svg xmlns:xlink="http://www.w3.org/1999/xlink" width="304.60336pt" height="280.512pt" viewBox="0 0 304.60336 280.512" xmlns="http://www.w3.org/2000/svg" version="1.1">
 <metadata>
  <rdf:RDF xmlns:dc="http://purl.org/dc/elements/1.1/" xmlns:cc="http://creativecommons.org/ns#" xmlns:rdf="http://www.w3.org/1999/02/22-rdf-syntax-ns#">
   <cc:Work>
    <dc:type rdf:resource="http://purl.org/dc/dcmitype/StillImage"/>
    <dc:date>2024-03-04T13:11:10.399505</dc:date>
    <dc:format>image/svg+xml</dc:format>
    <dc:creator>
     <cc:Agent>
      <dc:title>Matplotlib v3.8.0, https://matplotlib.org/</dc:title>
     </cc:Agent>
    </dc:creator>
   </cc:Work>
  </rdf:RDF>
 </metadata>
 <defs>
  <style type="text/css">*{stroke-linejoin: round; stroke-linecap: butt}</style>
 </defs>
 <g id="figure_1">
  <g id="patch_1">
   <path d="M 0 280.512 
L 304.60336 280.512 
L 304.60336 0 
L 0 0 
z
" style="fill: #ffffff"/>
  </g>
  <g id="axes_1">
   <g id="PatchCollection_1">
    <path d="M 213.386358 85.245023 
L 213.915833 86.022682 
L 213.953939 86.885009 
L 213.806277 87.837856 
L 213.906306 88.788321 
L 214.496953 89.519631 
L 215.563927 90.462949 
L 216.73093 91.260959 
L 217.559741 91.568252 
L 218.359972 91.756439 
L 221.275098 93.211913 
L 222.208701 93.364369 
L 228.41049 93.364369 
L 231.379459 93.363856 
L 241.505032 93.362106 
L 242.195418 93.361987 
L 255.980346 93.361987 
L 269.770038 93.359605 
L 283.554966 93.357223 
L 283.907448 95.123563 
L 283.926502 98.825374 
L 283.997951 110.905093 
L 284.012264 113.324008 
L 284.0694 122.980048 
L 284.140849 135.056194 
L 284.212298 147.133531 
L 270.408317 147.085888 
L 267.044365 147.075435 
L 256.609099 147.04301 
L 242.814644 146.995368 
L 241.752052 146.992067 
L 229.010663 146.95249 
L 223.98064 146.933433 
L 222.641324 147.106925 
L 221.737136 147.224051 
L 221.494209 147.89819 
L 221.489446 149.263144 
L 221.322731 149.868202 
L 220.779717 150.397032 
L 220.046172 150.559016 
L 219.226888 150.435146 
L 218.412368 150.087357 
L 217.650243 149.496591 
L 216.45466 148.129256 
L 215.692536 147.590897 
L 214.978044 147.328864 
L 213.60758 147.170915 
L 213.678906 146.928743 
L 213.615146 146.139081 
L 213.262588 144.961151 
L 213.363855 144.413452 
L 213.720163 144.126472 
L 214.320261 143.918272 
L 215.006623 143.794476 
L 215.595469 143.755087 
L 215.317924 143.513124 
L 214.755332 143.321804 
L 214.087723 143.198009 
L 213.52138 143.152993 
L 213.048803 143.006689 
L 211.897365 142.353952 
L 211.338524 142.2114 
L 209.448215 142.618423 
L 208.956884 142.494628 
L 208.769354 142.03321 
L 208.971887 141.536154 
L 209.331946 141.132882 
L 209.616992 140.950941 
L 208.761852 141.311072 
L 207.711681 142.235784 
L 206.819035 143.259907 
L 206.443974 143.925774 
L 206.128922 144.255895 
L 204.609924 144.631031 
L 203.465987 145.114957 
L 203.053419 144.571009 
L 202.333302 142.357703 
L 201.95824 141.774366 
L 201.459409 141.329829 
L 200.720538 140.950941 
L 199.880401 140.752118 
L 199.280303 140.890919 
L 198.740214 141.134758 
L 197.273725 141.412359 
L 195.912252 142.061345 
L 195.214638 142.2114 
L 194.809572 141.956307 
L 193.729395 140.748367 
L 193.136798 140.320711 
L 193.226813 139.859293 
L 193.110544 139.49541 
L 192.514197 138.718878 
L 193.234314 138.42252 
L 193.774403 137.880447 
L 194.164466 137.207077 
L 194.914589 134.847467 
L 195.319655 134.010913 
L 195.844741 133.654533 
L 196.549856 133.27752 
L 197.194962 132.386571 
L 197.690043 131.341815 
L 197.922581 130.507136 
L 197.802561 128.742118 
L 197.982591 127.986218 
L 199.250298 127.431016 
L 201.065594 125.784166 
L 201.864475 124.746913 
L 202.010749 124.67001 
L 202.112016 124.42242 
L 202.3258 124.197338 
L 202.539585 123.889726 
L 202.640852 123.398297 
L 203.18094 122.079691 
L 203.923562 120.719821 
L 204.868716 119.988305 
L 205.468814 120.187127 
L 206.046409 120.729199 
L 206.916551 121.034936 
L 208.146752 120.873627 
L 209.016894 120.464728 
L 209.819525 119.943288 
L 210.847193 119.434978 
L 209.917041 119.48187 
L 208.034234 120.757335 
L 207.2166 120.562264 
L 205.217523 118.664072 
L 204.52366 117.388607 
L 204.996237 116.143154 
L 207.70418 113.457175 
L 207.82795 113.284613 
L 208.097994 112.770675 
L 208.326781 112.511831 
L 209.271936 111.881601 
L 209.631995 111.517719 
L 209.830777 111.19135 
L 210.224592 110.276017 
L 210.419623 109.994664 
L 210.629658 109.801469 
L 210.779682 109.491981 
L 210.952211 108.377825 
L 211.162245 108.070213 
L 211.37978 107.845131 
L 211.477296 107.605044 
L 211.732338 107.169885 
L 213.363855 105.556797 
L 213.855185 103.996229 
L 213.675156 102.086783 
L 212.396197 98.320411 
L 211.957375 97.455721 
L 211.814851 97.061828 
L 211.766094 96.557269 
L 211.86736 96.071467 
L 212.081145 95.761979 
L 212.29493 95.53127 
L 212.396197 95.28368 
L 212.778759 89.560971 
L 212.643737 88.521842 
L 212.249923 87.71905 
L 211.882363 86.685548 
L 212.474959 85.884631 
L 213.386358 85.245023 
" clip-path="url(#p5d656993c0)" style="fill: #f5f5f5; stroke: #000000"/>
    <path d="M 21.047419 260.319423 
L 20.758622 259.782978 
L 20.698612 259.250284 
L 20.889893 258.785114 
L 21.362471 258.454994 
L 21.97007 259.497874 
L 21.808794 260.623284 
L 21.171189 261.216 
L 20.391062 260.660798 
L 20.6236 260.589522 
L 20.822382 260.413208 
L 21.047419 260.319423 
" clip-path="url(#p5d656993c0)" style="fill: #f5f5f5; stroke: #000000"/>
    <path d="M 172.973503 20.295739 
L 174.196202 21.80754 
L 174.653777 22.595327 
L 174.837557 23.570682 
L 174.766296 24.456005 
L 174.578765 25.260673 
L 174.286217 25.979059 
L 173.914906 26.588657 
L 172.249634 28.068571 
L 171.777057 29.344035 
L 170.246807 31.155945 
L 170.115535 31.309751 
L 169.192885 33.785653 
L 168.397755 34.415883 
L 168.180219 35.500028 
L 168.052698 35.747618 
L 167.947681 35.901424 
L 166.623715 36.689211 
L 166.462438 37.431981 
L 166.439935 39.555255 
L 166.151137 40.30928 
L 164.080799 42.695149 
L 162.501791 45.287343 
L 162.074221 45.805032 
L 161.631649 45.506798 
L 160.573976 45.056634 
L 160.333937 44.7584 
L 160.041389 44.882195 
L 159.37378 44.640232 
L 158.094821 43.929348 
L 157.761016 44.043765 
L 156.703343 44.280101 
L 156.238267 44.270723 
L 155.743186 44.055019 
L 154.768027 43.430417 
L 154.167929 43.299119 
L 153.177767 43.265356 
L 152.082588 43.010263 
L 151.197443 42.320012 
L 150.829883 40.965769 
L 150.619849 40.466837 
L 150.19978 39.862867 
L 149.899731 39.260773 
L 150.049756 38.748711 
L 150.229785 38.324807 
L 150.514832 36.374096 
L 150.826132 35.479395 
L 151.429981 34.318347 
L 152.288872 33.554944 
L 153.3803 33.856929 
L 153.965396 33.521182 
L 154.741772 33.55682 
L 156.384541 33.856929 
L 157.160918 33.54369 
L 157.41596 32.806547 
L 157.284688 31.956862 
L 156.86837 31.309751 
L 157.442214 31.002139 
L 158.166082 30.482575 
L 158.803686 29.865475 
L 159.073731 29.278386 
L 159.388782 25.014958 
L 159.98888 23.392492 
L 161.196578 21.423025 
L 162.820593 19.824943 
L 164.710902 19.296 
L 164.609635 19.470439 
L 164.422105 19.950613 
L 165.854839 20.250723 
L 166.484942 20.284485 
L 166.938766 19.950613 
L 167.977686 20.26948 
L 169.47043 20.494562 
L 171.034436 20.453297 
L 172.317145 19.950613 
L 172.455918 20.153187 
L 172.598441 20.23009 
L 172.973503 20.295739 
" clip-path="url(#p5d656993c0)" style="fill: #f5f5f5; stroke: #000000"/>
   </g>
  </g>
 </g>
 <defs>
  <clipPath id="p5d656993c0">
   <rect x="7.2" y="7.2" width="290.20336" height="266.112"/>
  </clipPath>
 </defs>
</svg>
