<?xml version="1.0" encoding="utf-8" standalone="no"?>
<!DOCTYPE svg PUBLIC "-//W3C//DTD SVG 1.1//EN"
  "http://www.w3.org/Graphics/SVG/1.1/DTD/svg11.dtd">
<svg xmlns:xlink="http://www.w3.org/1999/xlink" width="319.2426pt" height="280.512pt" viewBox="0 0 319.2426 280.512" xmlns="http://www.w3.org/2000/svg" version="1.1">
 <metadata>
  <rdf:RDF xmlns:dc="http://purl.org/dc/elements/1.1/" xmlns:cc="http://creativecommons.org/ns#" xmlns:rdf="http://www.w3.org/1999/02/22-rdf-syntax-ns#">
   <cc:Work>
    <dc:type rdf:resource="http://purl.org/dc/dcmitype/StillImage"/>
    <dc:date>2024-03-04T13:11:10.424305</dc:date>
    <dc:format>image/svg+xml</dc:format>
    <dc:creator>
     <cc:Agent>
      <dc:title>Matplotlib v3.8.0, https://matplotlib.org/</dc:title>
     </cc:Agent>
    </dc:creator>
   </cc:Work>
  </rdf:RDF>
 </metadata>
 <defs>
  <style type="text/css">*{stroke-linejoin: round; stroke-linecap: butt}</style>
 </defs>
 <g id="figure_1">
  <g id="patch_1">
   <path d="M 0 280.512 
L 319.2426 280.512 
L 319.2426 0 
L 0 0 
z
" style="fill: #ffffff"/>
  </g>
  <g id="axes_1">
   <g id="PatchCollection_1">
    <path d="M 297.930303 246.306418 
L 288.941317 250.228865 
L 288.518112 250.270944 
L 288.005135 249.856795 
L 287.637502 249.810286 
L 286.944984 250.428188 
L 285.983153 252.74698 
L 284.179186 254.478877 
L 284.32453 255.754545 
L 284.709262 257.098869 
L 284.469873 258.252729 
L 283.952622 258.533996 
L 282.717203 258.770969 
L 282.36667 259.156327 
L 281.802395 259.982411 
L 280.496567 260.354405 
L 280.301939 260.409849 
L 279.754765 261.216 
L 273.274162 255.378046 
L 271.37615 254.516527 
L 270.251876 254.215328 
L 269.52516 254.345995 
L 267.396308 256.678076 
L 265.421348 254.554177 
L 262.048529 249.903303 
L 259.351128 245.229175 
L 257.380443 243.502815 
L 255.080599 242.191712 
L 252.720907 241.203955 
L 249.493431 239.095559 
L 247.33038 236.018231 
L 244.115728 228.954439 
L 242.799088 226.735308 
L 241.392678 224.860563 
L 239.781077 223.162994 
L 236.626272 220.530821 
L 232.291621 216.911999 
L 225.109952 212.262232 
L 219.531333 208.647839 
L 218.28309 207.394318 
L 215.359125 202.152119 
L 212.144473 196.396109 
L 207.767074 191.363199 
L 203.440973 186.390086 
L 200.923113 184.572924 
L 198.114568 183.507652 
L 194.378389 182.968372 
L 193.211368 182.587443 
L 188.82542 180.4569 
L 186.418705 179.19895 
L 183.607855 176.563851 
L 180.438255 173.592432 
L 178.809555 172.612427 
L 177.018412 171.874931 
L 173.303608 170.961366 
L 172.572617 170.970225 
L 170.529261 171.580376 
L 169.939338 171.595879 
L 168.972262 171.421116 
L 168.14392 171.271425 
L 167.38728 171.465211 
L 166.113389 172.554844 
L 165.305451 172.785173 
L 164.523162 172.650077 
L 163.894766 172.34777 
L 161.718891 170.439804 
L 160.577518 169.712275 
L 159.337825 169.298125 
L 158.021186 169.343527 
L 157.521216 169.429169 
L 155.64867 169.749925 
L 154.541496 169.649156 
L 152.412643 169.00357 
L 152.177529 168.878439 
L 151.925316 168.633715 
L 151.08318 167.603879 
L 150.454783 167.073458 
L 149.634021 166.606155 
L 148.920129 166.596189 
L 148.595244 167.453279 
L 147.859978 168.453217 
L 146.17143 169.28373 
L 142.781511 170.234944 
L 141.994947 170.28256 
L 139.75495 169.918242 
L 138.724723 170.084345 
L 138.164723 170.599263 
L 137.26274 172.055429 
L 136.228237 172.066503 
L 135.373277 170.479669 
L 134.172057 166.925073 
L 133.603508 166.007079 
L 132.889616 165.122305 
L 132.056029 164.354911 
L 131.154046 163.782411 
L 130.73939 163.614093 
L 129.559544 163.341685 
L 128.080462 163.170046 
L 128.020615 163.021661 
L 127.486264 163.549867 
L 127.422142 164.263001 
L 127.486264 165.063616 
L 127.362295 165.853157 
L 126.776647 166.626088 
L 125.930236 167.160938 
L 124.20749 167.972626 
L 122.843828 169.235006 
L 122.078638 169.774286 
L 120.236198 169.953677 
L 117.769636 170.983513 
L 116.983072 171.171763 
L 116.217882 171.242634 
L 115.465517 171.167334 
L 114.713151 170.912643 
L 113.905214 170.886067 
L 111.344606 172.224854 
L 109.805677 172.639003 
L 106.646597 173.004429 
L 104.607516 172.988926 
L 104.256982 173.089695 
L 103.910723 173.052045 
L 103.397747 172.66115 
L 103.175457 172.276899 
L 102.897595 171.351154 
L 102.56416 171.032237 
L 100.345537 169.816366 
L 99.700042 169.305877 
L 99.216989 168.67358 
L 98.879279 167.920581 
L 98.485997 166.293883 
L 98.22096 165.742422 
L 97.789204 165.411324 
L 97.306152 165.14113 
L 96.91287 164.770168 
L 96.707679 164.350482 
L 96.506763 163.17226 
L 96.424685 162.968148 
L 96.164779 162.321815 
L 95.741574 161.800253 
L 95.104628 161.536703 
L 94.125698 161.474691 
L 91.770281 161.884411 
L 91.022191 161.744885 
L 86.533647 159.885643 
L 86.191663 159.606591 
L 85.956548 159.18469 
L 85.926625 158.809298 
L 85.836854 158.474878 
L 85.430748 158.16482 
L 84.964794 158.086198 
L 84.785252 157.880231 
L 84.695481 157.594534 
L 84.537314 157.284476 
L 84.511665 157.151594 
L 84.524489 156.698687 
L 84.503115 156.523726 
L 84.357772 156.377555 
L 83.95594 156.331047 
L 83.776399 156.17934 
L 82.98556 154.609116 
L 82.485408 153.87162 
L 81.767241 153.237108 
L 80.078694 157.336521 
L 77.389842 163.837778 
L 74.72664 170.284775 
L 72.131834 176.566777 
L 69.755043 182.320572 
L 68.263137 185.930536 
L 67.797183 186.410019 
L 67.053367 185.923892 
L 66.621612 185.410081 
L 66.429246 184.698054 
L 66.382223 183.602884 
L 66.258254 183.193164 
L 65.937644 182.86871 
L 65.514438 182.656099 
L 65.086958 182.578585 
L 64.556882 182.378154 
L 64.308944 181.896456 
L 64.099478 180.824541 
L 63.795967 180.019497 
L 63.616425 179.763699 
L 61.944977 178.348504 
L 61.346505 177.999689 
L 61.231085 177.54346 
L 61.252459 176.566777 
L 61.192612 175.927835 
L 61.034444 175.581234 
L 60.401773 174.944508 
L 58.837195 172.658935 
L 58.054906 172.19717 
L 57.046052 171.326792 
L 56.477504 171.412058 
L 55.57552 171.726546 
L 52.514761 171.664534 
L 51.086976 171.991203 
L 49.902856 172.895908 
L 49.27446 173.821654 
L 48.941025 174.666563 
L 48.799956 175.539155 
L 48.774308 176.566777 
L 48.658888 177.464838 
L 48.346827 178.171328 
L 47.902248 178.703964 
L 47.384996 179.067175 
L 47.064386 179.131401 
L 46.312021 179.038384 
L 45.974311 179.067175 
L 45.371564 179.57102 
L 45.1279 179.652964 
L 44.704695 179.613099 
L 44.345611 179.49572 
L 44.020726 179.311899 
L 43.691566 179.067175 
L 42.943476 178.032909 
L 42.699812 177.871236 
L 41.3276 177.687416 
L 38.630199 176.883479 
L 37.300735 176.699659 
L 34.47509 176.699659 
L 34.073258 176.797106 
L 33.402114 177.214577 
L 33.05158 177.312024 
L 31.187766 177.312024 
L 30.358454 177.449335 
L 29.080288 178.055056 
L 28.507464 178.189046 
L 27.626855 178.213407 
L 26.930062 178.377295 
L 26.408536 178.812484 
L 26.105025 179.652964 
L 25.305636 179.637461 
L 24.390829 171.759766 
L 23.766707 166.450019 
L 23.138311 161.068294 
L 22.651038 156.912778 
L 22.373121 154.542675 
L 21.530985 147.361504 
L 21.056482 143.295312 
L 21.116329 142.355171 
L 21.449764 141.608817 
L 24.493424 138.63115 
L 25.245789 137.449607 
L 27.340443 131.213007 
L 28.148381 129.888615 
L 29.503493 128.976158 
L 28.934945 127.105842 
L 29.041815 125.294216 
L 31.286087 117.083209 
L 31.794788 116.137532 
L 33.838144 114.013633 
L 34.949593 112.182074 
L 36.933102 106.53237 
L 38.801191 101.203798 
L 40.177678 97.294849 
L 40.848822 96.17421 
L 42.580117 94.380302 
L 43.003323 93.290668 
L 42.892178 92.378211 
L 42.139813 90.641885 
L 41.926072 89.740501 
L 41.98592 88.82583 
L 42.131263 88.057328 
L 42.152637 87.2999 
L 41.888735 86.557419 
L 41.844851 86.433952 
L 41.259203 85.647733 
L 40.609433 84.956746 
L 40.070808 84.199318 
L 39.788671 83.207131 
L 39.818594 82.618021 
L 40.327296 80.908271 
L 40.451265 80.079972 
L 40.374319 78.682496 
L 40.442716 77.922853 
L 40.818898 77.114487 
L 41.447294 76.547523 
L 42.810957 75.56641 
L 43.255536 74.975085 
L 44.27294 72.401601 
L 44.431107 69.836977 
L 44.508054 69.646512 
L 44.80729 69.303234 
L 44.884236 69.126057 
L 44.832939 68.875796 
L 44.589275 68.490438 
L 44.533703 68.32655 
L 44.610649 66.605727 
L 44.508054 66.06091 
L 44.14897 65.531596 
L 43.717215 65.110803 
L 43.576147 64.64793 
L 44.580725 63.208374 
L 44.773092 62.380076 
L 44.623473 61.560636 
L 43.802711 60.42228 
L 43.708665 60.041351 
L 43.793725 59.699302 
L 43.798436 59.680354 
L 44.072024 59.359223 
L 44.91416 59.248488 
L 45.57248 59.538614 
L 46.196601 59.968266 
L 46.936142 60.269465 
L 48.000568 60.451071 
L 48.428049 60.608314 
L 50.026825 61.587213 
L 50.437206 61.655868 
L 52.681478 61.292657 
L 53.29705 61.38346 
L 54.549567 61.303731 
L 56.515977 60.090074 
L 57.708647 59.988198 
L 61.581619 61.077831 
L 63.911387 58.300595 
L 64.253371 57.44572 
L 64.450012 56.488969 
L 65.35627 54.876666 
L 65.617033 53.999644 
L 65.8094 52.21238 
L 65.770926 51.432805 
L 65.309248 49.470579 
L 65.411843 48.98113 
L 65.856422 48.710937 
L 71.332446 47.01669 
L 73.003894 46.784146 
L 74.692441 45.909339 
L 76.492133 42.684733 
L 77.937017 41.911802 
L 78.779153 42.144346 
L 80.018846 43.331426 
L 80.963578 43.619337 
L 81.951058 43.393438 
L 82.76327 42.773321 
L 84.058536 41.11451 
L 86.853019 39.245288 
L 86.89273 39.218725 
L 87.863111 38.866587 
L 88.812117 38.871017 
L 89.201124 39.298454 
L 89.243872 40.011588 
L 89.184025 40.868678 
L 89.419139 41.794423 
L 90.038986 41.787779 
L 90.722954 41.196454 
L 91.154709 40.377014 
L 91.167534 39.927429 
L 91.060664 39.632874 
L 91.009366 39.360466 
L 91.197457 38.977322 
L 91.441121 38.937458 
L 92.898829 38.474585 
L 93.569973 38.893164 
L 94.19837 39.528783 
L 94.929361 39.976153 
L 95.908291 39.829983 
L 96.605084 39.138996 
L 96.711954 38.290765 
L 96.660656 37.382737 
L 96.870122 36.536721 
L 97.584014 35.883384 
L 99.63592 34.893412 
L 100.473781 34.248934 
L 101.615154 32.410732 
L 104.107364 25.846356 
L 105.253011 24.185329 
L 111.138221 19.296 
L 111.225736 19.744172 
L 111.612825 20.211526 
L 111.915764 21.535116 
L 113.676175 24.004421 
L 113.81418 24.433411 
L 113.86467 25.312316 
L 113.958918 25.760488 
L 114.706167 26.813779 
L 114.834074 27.061407 
L 115.036033 27.79034 
L 118.920382 33.693305 
L 121.811765 40.363568 
L 124.682952 45.340544 
L 125.686016 48.978235 
L 126.157254 49.832726 
L 125.659088 51.496368 
L 126.426533 52.788568 
L 127.557505 53.962186 
L 128.133089 55.273569 
L 128.345146 56.930235 
L 128.698575 58.370663 
L 129.930526 60.897516 
L 130.112289 61.724105 
L 130.250295 63.462733 
L 130.465718 64.334663 
L 131.111987 65.579779 
L 131.340874 67.321895 
L 131.5462 68.028158 
L 132.909424 71.151411 
L 133.808143 74.490902 
L 133.242657 74.197933 
L 134.067324 76.110948 
L 134.292845 77.052632 
L 134.373629 78.296004 
L 133.60955 79.101667 
L 134.276015 81.05479 
L 134.090886 82.153421 
L 133.808143 81.860453 
L 133.858633 82.526607 
L 134.262551 82.711456 
L 134.716959 82.723663 
L 134.939115 82.870148 
L 134.878527 84.361148 
L 134.939115 84.758748 
L 135.090584 85.151116 
L 135.272347 85.480705 
L 135.433915 85.853891 
L 135.501234 86.384025 
L 135.444013 88.079056 
L 135.501234 88.616165 
L 135.645972 89.012021 
L 136.019596 89.69387 
L 136.090282 90.225748 
L 136.029694 90.750649 
L 135.777245 91.810916 
L 135.783977 92.421267 
L 137.049588 98.015569 
L 137.221254 99.9094 
L 137.362625 100.558116 
L 138.328664 102.689113 
L 139.78277 108.269463 
L 140.583875 109.762207 
L 143.054509 111.282853 
L 143.438232 111.947263 
L 143.764732 112.231513 
L 145.279427 112.915106 
L 145.693443 113.276085 
L 145.713639 113.830632 
L 145.51168 114.296242 
L 145.255865 114.725232 
L 145.127957 115.178635 
L 145.259231 115.682611 
L 145.844912 116.320863 
L 145.976186 116.653941 
L 146.036774 117.794425 
L 146.265661 118.481506 
L 147.383169 119.740572 
L 146.669579 119.805095 
L 146.178145 120.225365 
L 146.00648 120.849667 
L 146.258929 121.521053 
L 146.43396 121.154842 
L 146.810951 120.717134 
L 147.261993 120.532285 
L 147.672643 120.908958 
L 147.585128 121.719853 
L 146.784023 122.10699 
L 145.85501 122.223828 
L 145.4107 122.227316 
L 145.504948 122.631892 
L 146.258929 123.835155 
L 146.447424 125.279071 
L 146.541672 125.591221 
L 147.127353 125.812692 
L 148.08666 125.894653 
L 148.995476 125.78479 
L 149.389297 125.444737 
L 149.702334 124.940762 
L 150.439485 124.832642 
L 151.277615 125.000053 
L 151.903689 125.299997 
L 152.903387 126.646256 
L 155.064351 133.667035 
L 155.236016 133.823983 
L 156.013559 134.118695 
L 156.188591 134.265179 
L 156.282838 135.016783 
L 156.528555 135.730021 
L 156.888716 136.336885 
L 157.326294 136.76413 
L 156.710319 139.100902 
L 156.498261 142.776958 
L 156.589143 142.951344 
L 156.976231 143.230362 
L 157.070479 143.389053 
L 157.215217 144.043 
L 157.609037 144.381309 
L 158.147595 144.403979 
L 158.733277 144.105779 
L 159.143927 144.906211 
L 159.618531 145.030025 
L 160.268167 144.834713 
L 161.173617 144.691716 
L 161.459726 144.475478 
L 161.688613 143.97499 
L 161.789593 143.436137 
L 161.729005 143.08039 
L 161.520314 142.68279 
L 161.678515 142.405516 
L 162.180047 142.058488 
L 162.967688 140.638986 
L 163.055204 139.805421 
L 162.227171 138.35453 
L 161.779495 136.635085 
L 161.43953 136.021246 
L 160.890874 136.012527 
L 160.557642 136.673449 
L 160.281631 137.03966 
L 159.918104 136.153779 
L 159.817125 135.320214 
L 159.918104 133.105513 
L 159.864248 132.627695 
L 159.655557 131.815056 
L 159.608433 131.337239 
L 159.702681 130.814081 
L 159.931568 130.643183 
L 160.207579 130.559478 
L 160.44993 130.299642 
L 160.725941 128.8348 
L 161.001952 128.407555 
L 161.587634 128.836544 
L 161.870377 128.836544 
L 161.910768 128.494748 
L 162.180047 127.668158 
L 162.42913 127.668158 
L 162.44596 127.804179 
L 162.42913 128.226193 
L 162.886905 127.86347 
L 163.435561 126.9462 
L 163.819283 126.470127 
L 164.428527 127.579221 
L 165.256559 128.470334 
L 169.191398 131.745302 
L 169.797276 132.055709 
L 170.74985 132.264972 
L 171.079717 132.383555 
L 171.493733 132.641646 
L 171.97507 133.042734 
L 172.28474 133.471723 
L 172.41938 133.921639 
L 172.341962 134.395969 
L 172.042389 134.905176 
L 171.301872 135.499832 
L 170.931614 135.886969 
L 170.706092 136.295032 
L 170.080019 137.908102 
L 170.541159 137.866249 
L 170.891222 137.969137 
L 171.130207 138.235948 
L 171.21099 138.678888 
L 171.110011 138.80619 
L 170.685897 138.968369 
L 170.621943 139.10439 
L 170.695994 139.289239 
L 170.891222 139.460137 
L 170.931614 139.57 
L 171.150403 139.925748 
L 172.119807 140.652937 
L 172.341962 141.022635 
L 172.459772 141.568464 
L 172.99833 142.679302 
L 173.190191 143.230362 
L 173.166629 143.708179 
L 173.052185 144.267958 
L 173.011794 144.824249 
L 173.190191 145.303811 
L 173.705187 145.115474 
L 174.270673 145.2358 
L 174.725081 145.560158 
L 174.906844 145.994379 
L 174.987628 146.351871 
L 175.169391 146.432088 
L 175.361252 146.475685 
L 175.475696 146.739007 
L 175.452134 147.129632 
L 175.219881 147.771372 
L 175.166025 148.071316 
L 175.57331 148.835127 
L 176.532616 149.323407 
L 179.592298 150.420295 
L 180.255398 150.749885 
L 180.558336 150.995769 
L 180.841079 151.78225 
L 181.460421 151.635765 
L 182.402897 150.837078 
L 183.338642 150.470867 
L 183.991643 149.612888 
L 184.520103 148.643302 
L 185.102419 147.935295 
L 185.048563 148.6154 
L 185.196666 149.206569 
L 185.580389 149.525695 
L 186.256952 149.400137 
L 186.475742 149.023464 
L 186.381494 148.535183 
L 186.462278 148.116657 
L 187.206161 147.935295 
L 187.650471 147.909137 
L 187.775013 147.882979 
L 188.205859 148.202106 
L 188.138539 148.34859 
L 188.051023 148.650278 
L 188.135173 148.94499 
L 188.640071 149.081011 
L 188.939644 149.206569 
L 189.064186 149.459428 
L 189.225753 149.679155 
L 189.619573 149.693106 
L 189.892218 149.562316 
L 190.134569 149.337358 
L 190.336529 149.075779 
L 190.49473 148.8142 
L 190.286039 148.468916 
L 190.195157 148.12712 
L 190.185059 147.324944 
L 190.417312 147.537695 
L 190.615906 148.001562 
L 190.777473 148.202106 
L 191.901713 148.495074 
L 192.002692 148.859541 
L 191.969032 149.232727 
L 191.972398 149.612888 
L 192.184455 149.986074 
L 192.500858 150.195337 
L 192.709549 150.153485 
L 192.941803 150.027927 
L 193.315427 149.986074 
L 194.072774 150.090706 
L 194.473327 150.273811 
L 194.648358 150.676643 
L 194.799827 152.355979 
L 194.941199 152.703007 
L 196.136124 153.203495 
L 195.947629 152.483281 
L 196.294326 152.249604 
L 197.421931 152.32459 
L 197.704674 152.521646 
L 197.82585 152.900064 
L 197.630622 153.135485 
L 196.984353 152.910527 
L 196.728538 153.203495 
L 198.707738 155.280432 
L 198.727934 155.181032 
L 198.869306 155.106046 
L 199.064533 155.182776 
L 199.273224 155.545499 
L 199.32708 155.866369 
L 199.273224 157.033011 
L 198.929893 158.006085 
L 198.919795 158.485646 
L 199.273224 159.057632 
L 200.330144 159.816211 
L 200.676841 160.306236 
L 200.680207 161.132825 
L 201.117785 160.853807 
L 201.514971 160.672446 
L 201.939086 160.641057 
L 202.403592 160.810211 
L 202.403592 159.985365 
L 203.3528 160.407379 
L 205.560888 160.307979 
L 206.779375 160.968902 
L 208.051718 161.903611 
L 209.209618 162.2332 
L 212.003387 162.327369 
L 216.796552 163.43472 
L 217.267791 163.63352 
L 217.765957 164.283979 
L 218.432422 165.855197 
L 218.974346 166.58413 
L 220.812175 167.888537 
L 222.044126 168.750004 
L 223.03036 169.977681 
L 223.679996 171.451243 
L 223.918981 173.032923 
L 224.235384 173.702565 
L 224.915313 174.124579 
L 225.601974 174.441962 
L 225.918377 174.804685 
L 226.10014 175.125555 
L 226.870952 176.074215 
L 227.412875 177.79366 
L 228.274568 178.839976 
L 230.179717 180.5228 
L 231.263565 181.783611 
L 231.620359 182.393962 
L 231.903102 183.157772 
L 232.219505 184.55286 
L 232.404634 185.062067 
L 232.747965 185.52419 
L 233.313451 185.963643 
L 234.686773 186.809415 
L 235.403729 187.426741 
L 236.02307 188.204502 
L 237.5243 191.081871 
L 237.961879 192.853632 
L 238.322039 193.491885 
L 240.950875 194.29406 
L 241.502897 194.328937 
L 242.835828 193.811011 
L 243.350824 193.743001 
L 243.677325 193.945288 
L 244.481796 195.354327 
L 245.148261 196.06059 
L 245.454566 196.238464 
L 246.046979 196.376229 
L 246.501388 196.365765 
L 247.420302 196.125113 
L 247.743437 196.08326 
L 248.457026 196.369253 
L 249.914499 197.337095 
L 250.44969 197.546358 
L 250.914197 197.882923 
L 251.122888 198.66766 
L 251.244063 199.555285 
L 251.439291 200.205744 
L 253.145846 201.548516 
L 253.411759 202.110039 
L 253.593522 202.117015 
L 254.542731 203.426653 
L 254.825474 204.01259 
L 254.919721 204.070137 
L 255.28998 204.237548 
L 255.390959 204.303815 
L 255.572723 204.797327 
L 255.821806 205.744243 
L 256.111281 206.208109 
L 256.538761 206.326692 
L 257.047025 206.120916 
L 257.471139 205.880264 
L 257.649537 205.915141 
L 257.794274 206.183695 
L 258.507863 206.685927 
L 258.780508 206.937043 
L 258.945442 207.334643 
L 259.181061 208.325155 
L 259.345994 208.691365 
L 260.3053 209.422043 
L 260.476966 209.463895 
L 260.635167 210.051576 
L 260.961668 210.048088 
L 261.224215 209.788253 
L 261.193921 209.622587 
L 260.978498 209.462151 
L 260.386084 208.68439 
L 260.244713 208.428043 
L 260.163929 208.353057 
L 260.032655 208.281558 
L 259.921578 208.129843 
L 259.91148 207.815948 
L 260.042753 207.800253 
L 260.618337 207.831643 
L 260.759709 207.815948 
L 260.790003 206.678951 
L 260.234615 206.194158 
L 259.527757 205.813997 
L 258.639137 205.768657 
L 258.316002 205.650074 
L 258.416982 205.40419 
L 258.800704 205.194927 
L 259.345994 205.18272 
L 260.759709 206.351106 
L 262.284501 208.41758 
L 262.883646 208.691365 
L 263.630896 209.162208 
L 263.893443 210.218987 
L 263.890077 211.96459 
L 264.354583 213.382348 
L 264.721475 214.031064 
L 265.16242 214.306594 
L 265.566338 214.780923 
L 265.869277 215.869092 
L 266.51218 220.825141 
L 267.101228 221.847043 
L 267.323383 223.929211 
L 267.286357 224.124523 
L 267.394069 224.246594 
L 268.666412 225.020867 
L 269.541569 225.285934 
L 271.423155 225.451601 
L 272.214162 225.30686 
L 272.692133 224.91798 
L 272.978241 224.358201 
L 273.237422 223.695534 
L 273.786078 223.821092 
L 273.94428 224.09139 
L 273.957744 224.457601 
L 274.109213 224.865664 
L 274.35493 225.076671 
L 274.634307 225.231874 
L 274.859828 225.46032 
L 274.954076 225.90326 
L 275.280577 226.461295 
L 277.364122 228.245264 
L 278.811497 230.688411 
L 279.343323 231.038927 
L 280.16799 231.159253 
L 280.844553 231.473148 
L 281.410039 231.902137 
L 281.884643 232.367748 
L 282.211144 233.028671 
L 282.60833 235.428222 
L 283.28826 236.992464 
L 283.449827 237.796383 
L 283.557539 239.010109 
L 283.712374 239.69719 
L 284.015313 240.136643 
L 284.600995 240.286615 
L 285.139552 240.119204 
L 285.681476 239.817516 
L 286.270524 239.576864 
L 286.829278 240.738274 
L 287.640481 241.444538 
L 288.771452 241.795053 
L 290.255853 241.890966 
L 290.060625 242.108948 
L 289.690367 242.768127 
L 290.084187 242.799516 
L 290.403956 242.705348 
L 290.814607 242.475159 
L 290.770849 242.424587 
L 291.54166 241.911892 
L 291.669567 241.890966 
L 292.154269 241.33293 
L 292.537992 240.72258 
L 292.645703 240.330211 
L 292.628874 240.042474 
L 292.709657 239.805309 
L 293.103478 239.576864 
L 292.851029 239.149618 
L 292.793807 238.73458 
L 292.891421 238.361394 
L 293.103478 238.06145 
L 294.281573 238.980464 
L 294.847059 239.547218 
L 295.082678 239.990159 
L 295.264441 240.436587 
L 295.695288 240.801053 
L 296.21365 241.127155 
L 296.637764 241.465464 
L 296.920507 242.026987 
L 296.974363 243.322674 
L 297.082074 243.966159 
L 298.186118 245.989036 
L 297.930303 246.306418 
" clip-path="url(#p546f3326d2)" style="fill: #f5f5f5; stroke: #000000"/>
    <path d="M 184.961047 120.591576 
L 185.570291 120.612502 
L 185.782348 120.725853 
L 186.112215 122.433092 
L 185.8564 123.216085 
L 185.270718 123.545674 
L 185.257254 123.538699 
L 184.402294 123.106221 
L 184.112819 123.039955 
L 183.729096 122.952762 
L 181.722968 123.451506 
L 180.864641 123.517772 
L 179.979387 123.217828 
L 178.538744 122.513309 
L 177.592902 122.3738 
L 175.543016 122.808021 
L 175.132365 122.734779 
L 174.906844 122.692927 
L 174.741911 122.537723 
L 174.496194 122.220341 
L 174.33126 122.004102 
L 174.233647 121.916909 
L 174.061981 121.765193 
L 174.058615 121.761706 
L 173.684991 122.464481 
L 173.207021 122.828948 
L 172.506895 122.889983 
L 171.493733 122.692927 
L 169.820838 122.035492 
L 169.605415 121.991895 
L 169.039929 121.8768 
L 168.110916 122.080832 
L 168.104185 122.080832 
L 167.754122 121.603014 
L 167.484843 121.233316 
L 166.387531 117.984506 
L 166.858769 117.994969 
L 167.148244 118.087393 
L 167.188636 118.247828 
L 167.195368 118.272242 
L 166.949651 118.570442 
L 167.282884 118.764011 
L 167.535333 119.020358 
L 167.626214 119.199976 
L 167.6969 119.342972 
L 167.79788 119.740572 
L 167.801246 119.740572 
L 168.104185 119.740572 
L 168.494639 119.587113 
L 169.039929 119.805095 
L 169.615513 120.134684 
L 170.080019 120.326509 
L 170.083385 120.324765 
L 170.605113 120.298607 
L 172.341962 119.740572 
L 171.584615 118.380362 
L 170.574819 117.260804 
L 169.342868 116.507456 
L 167.949349 116.228439 
L 166.586124 116.514432 
L 166.101422 116.378411 
L 165.818679 115.618088 
L 165.875901 114.772316 
L 166.239428 114.292755 
L 166.777986 114.223 
L 167.760854 114.866485 
L 168.016669 115.032151 
L 168.565325 115.077492 
L 168.726892 114.735695 
L 168.232092 113.992811 
L 168.003205 113.276085 
L 167.956081 113.131344 
L 168.77065 112.730256 
L 169.857864 112.629113 
L 170.308906 112.660502 
L 170.362762 112.66399 
L 170.527695 112.142576 
L 170.251684 111.460727 
L 169.780446 110.869558 
L 169.36643 110.618442 
L 169.363064 110.616699 
L 167.919055 110.712611 
L 167.454549 110.484165 
L 166.953017 109.765695 
L 166.949651 109.762207 
L 168.460979 109.886021 
L 170.063189 110.247 
L 171.571151 110.838169 
L 172.4867 111.460727 
L 172.766076 111.652551 
L 173.156531 112.261158 
L 173.348392 112.559358 
L 173.345026 112.561102 
L 173.139701 113.181916 
L 172.708855 113.654502 
L 172.624705 114.125344 
L 172.937742 114.447958 
L 173.328196 114.463653 
L 173.718651 114.311937 
L 174.058615 114.125344 
L 173.98793 113.968397 
L 173.785971 113.678916 
L 173.752311 113.401642 
L 174.189889 113.276085 
L 174.624101 113.521969 
L 174.718349 114.074772 
L 174.725081 114.121856 
L 174.48273 117.595625 
L 174.600539 118.251316 
L 174.822695 118.755292 
L 174.869818 118.868642 
L 175.603604 120.113758 
L 175.755073 120.459042 
L 176.158991 120.490432 
L 178.579136 121.201927 
L 179.211942 120.002151 
L 179.450927 119.740572 
L 179.797623 119.649892 
L 179.238869 119.440628 
L 178.400739 119.187769 
L 178.043944 118.702976 
L 178.040578 118.701232 
L 178.350249 118.225158 
L 179.090766 117.984506 
L 180.019778 117.92347 
L 180.864641 117.984506 
L 181.329147 118.073442 
L 181.702772 118.193769 
L 181.860973 118.277474 
L 182.012443 118.355948 
L 182.278356 118.570442 
L 182.439923 118.8948 
L 182.500511 119.281937 
L 182.625052 119.606295 
L 182.981847 119.740572 
L 183.567529 119.873106 
L 184.429221 120.459042 
L 184.961047 120.591576 
" clip-path="url(#p546f3326d2)" style="fill: #f5f5f5; stroke: #000000"/>
    <path d="M 172.924278 103.187856 
L 172.311668 103.752867 
L 172.180395 104.401583 
L 172.439576 104.645723 
L 172.79637 104.841035 
L 173.089211 105.127028 
L 173.513326 105.426972 
L 173.715285 105.821084 
L 172.978134 106.030348 
L 171.766378 105.625772 
L 170.756582 105.071225 
L 168.979341 104.884632 
L 168.565325 104.457386 
L 168.575423 103.749379 
L 168.905289 103.0902 
L 169.635709 102.811183 
L 170.564721 102.734453 
L 170.931614 102.497288 
L 170.790242 102.138053 
L 170.706092 101.719527 
L 170.689263 101.269611 
L 170.76668 100.798769 
L 171.066253 100.620895 
L 172.109709 101.442253 
L 172.412648 101.618383 
L 172.823298 101.714295 
L 173.570547 102.047372 
L 173.893682 102.560067 
L 173.610939 102.950691 
L 172.924278 103.187856 
" clip-path="url(#p546f3326d2)" style="fill: #f5f5f5; stroke: #000000"/>
   </g>
  </g>
 </g>
 <defs>
  <clipPath id="p546f3326d2">
   <rect x="7.2" y="7.2" width="304.8426" height="266.112"/>
  </clipPath>
 </defs>
</svg>
