<?xml version="1.0" encoding="utf-8" standalone="no"?>
<!DOCTYPE svg PUBLIC "-//W3C//DTD SVG 1.1//EN"
  "http://www.w3.org/Graphics/SVG/1.1/DTD/svg11.dtd">
<svg xmlns:xlink="http://www.w3.org/1999/xlink" width="371.52pt" height="246.829814pt" viewBox="0 0 371.52 246.829814" xmlns="http://www.w3.org/2000/svg" version="1.1">
 <metadata>
  <rdf:RDF xmlns:dc="http://purl.org/dc/elements/1.1/" xmlns:cc="http://creativecommons.org/ns#" xmlns:rdf="http://www.w3.org/1999/02/22-rdf-syntax-ns#">
   <cc:Work>
    <dc:type rdf:resource="http://purl.org/dc/dcmitype/StillImage"/>
    <dc:date>2024-03-04T13:11:10.451436</dc:date>
    <dc:format>image/svg+xml</dc:format>
    <dc:creator>
     <cc:Agent>
      <dc:title>Matplotlib v3.8.0, https://matplotlib.org/</dc:title>
     </cc:Agent>
    </dc:creator>
   </cc:Work>
  </rdf:RDF>
 </metadata>
 <defs>
  <style type="text/css">*{stroke-linejoin: round; stroke-linecap: butt}</style>
 </defs>
 <g id="figure_1">
  <g id="patch_1">
   <path d="M 0 246.829814 
L 371.52 246.829814 
L 371.52 -0 
L 0 -0 
z
" style="fill: #ffffff"/>
  </g>
  <g id="axes_1">
   <g id="PatchCollection_1">
    <path d="M 149.827745 194.515889 
L 150.364345 193.625764 
L 150.759356 192.692202 
L 150.93815 191.579109 
L 151.062891 190.406171 
L 151.241685 189.305047 
L 153.65749 183.177049 
L 154.53483 179.311144 
L 157.000531 176.247145 
L 157.898662 174.515667 
L 157.898662 169.772054 
L 158.272883 167.621669 
L 158.347727 166.420805 
L 158.073298 165.387503 
L 157.678287 164.481868 
L 157.437122 163.428618 
L 157.424648 162.331483 
L 158.073298 160.232963 
L 158.102404 159.155776 
L 158.077456 158.078589 
L 158.247935 156.989433 
L 159.295753 155.541215 
L 160.83006 154.519882 
L 162.210519 153.227257 
L 162.817589 150.969154 
L 162.339418 148.870634 
L 161.204281 147.210968 
L 156.879949 143.732052 
L 154.784311 142.830407 
L 152.672041 142.638907 
L 150.892412 143.536563 
L 150.326923 144.338469 
L 149.744801 145.503427 
L 149.295736 146.788072 
L 149.116941 147.95303 
L 149.042097 149.47705 
L 148.842512 150.358748 
L 147.25831 153.20332 
L 146.617976 154.116934 
L 145.87785 154.715371 
L 144.954772 154.982673 
L 143.083667 154.452059 
L 142.15643 154.448069 
L 141.283248 155.317798 
L 140.360169 157.551964 
L 139.890314 157.958901 
L 138.992183 157.599839 
L 138.451642 156.993423 
L 136.904861 154.308434 
L 134.547269 152.126133 
L 133.175125 150.370717 
L 129.782188 148.91053 
L 127.732288 148.727009 
L 126.759313 148.288155 
L 126.493201 147.984947 
L 125.927711 147.139155 
L 125.67823 146.887812 
L 125.216691 146.827968 
L 124.90484 147.103249 
L 124.622095 147.442363 
L 124.25619 147.617905 
L 123.794651 147.390499 
L 123.29569 146.971593 
L 122.796728 146.788072 
L 122.335189 147.250864 
L 122.027496 147.825363 
L 121.699013 148.252249 
L 121.337266 148.347999 
L 120.950571 147.95303 
L 120.63872 147.139155 
L 120.351818 146.014093 
L 120.148075 144.833177 
L 120.064915 143.871688 
L 119.82375 142.41549 
L 119.241629 141.64949 
L 118.559715 141.08297 
L 118.006699 140.197283 
L 117.703164 138.916627 
L 117.707322 137.907263 
L 118.006699 135.505534 
L 118.056595 132.601119 
L 117.782166 130.19939 
L 117.008776 129.018474 
L 115.532682 129.784474 
L 114.892348 129.712661 
L 113.911058 129.042411 
L 112.946399 128.168693 
L 112.393384 127.474506 
L 112.023321 126.106079 
L 111.965108 124.981017 
L 111.765524 124.414496 
L 110.996292 124.733663 
L 110.31022 125.679194 
L 109.902735 126.728454 
L 109.474459 127.211193 
L 108.713543 126.441204 
L 108.538907 125.487694 
L 108.863232 124.434444 
L 109.328929 123.369226 
L 109.570094 122.395768 
L 109.274875 120.568539 
L 108.688595 118.142874 
L 108.289426 115.565604 
L 108.522275 113.291542 
L 108.97134 112.429792 
L 109.395457 112.302126 
L 110.472382 112.685125 
L 110.846603 112.477667 
L 111.02124 112.014876 
L 111.00045 111.556074 
L 110.173005 110.718262 
L 110.035791 109.413668 
L 110.326852 108.304564 
L 110.996292 108.276637 
L 112.954715 109.238127 
L 114.859084 108.899012 
L 116.759296 108.160939 
L 118.705245 107.941512 
L 119.707326 108.34845 
L 121.678223 109.665012 
L 122.526458 109.948272 
L 124.094028 109.948272 
L 124.243716 109.637085 
L 124.306087 108.942898 
L 124.21461 108.2527 
L 123.919391 107.941512 
L 123.116895 107.482711 
L 122.921469 106.445419 
L 123.225004 105.312378 
L 123.940182 104.590264 
L 124.792574 104.662076 
L 126.784261 105.77517 
L 127.765552 105.930763 
L 126.38925 104.307003 
L 124.767626 103.158004 
L 123.158475 103.058264 
L 121.802964 104.590264 
L 120.875727 103.349504 
L 119.832066 103.245775 
L 117.657426 103.920014 
L 113.919374 103.660691 
L 112.742657 103.920014 
L 111.719786 104.542389 
L 111.200034 105.025128 
L 110.821655 105.567711 
L 110.509804 105.655482 
L 108.88818 105.20067 
L 107.898573 105.376211 
L 105.033703 106.601013 
L 106.929756 103.082202 
L 107.906889 102.208483 
L 109.5992 101.913254 
L 109.973421 101.215077 
L 106.780068 96.862443 
L 106.343477 95.015267 
L 104.671956 92.497841 
L 104.655324 90.534966 
L 105.761355 89.030894 
L 109.154293 89.270269 
L 110.26864 87.790134 
L 111.150138 88.364634 
L 112.056585 88.432457 
L 112.954715 88.097332 
L 114.601288 86.712947 
L 115.017089 86.230207 
L 115.162619 85.587885 
L 115.183409 84.387021 
L 114.850768 82.041146 
L 114.027482 80.341585 
L 112.904819 79.156679 
L 111.694838 78.366741 
L 112.331013 79.647397 
L 113.84453 81.143491 
L 114.484863 82.436115 
L 114.05243 82.711396 
L 113.11272 82.811136 
L 112.742657 83.046521 
L 111.694838 84.387021 
L 111.624151 84.726135 
L 111.632467 85.308614 
L 111.345565 86.39777 
L 110.850761 86.497509 
L 110.534752 86.058655 
L 110.272798 85.452239 
L 109.948473 85.117114 
L 106.659486 84.291271 
L 105.308132 83.170198 
L 103.956778 81.035772 
L 104.306051 81.095615 
L 105.033703 81.007845 
L 105.382976 81.035772 
L 105.021229 79.268387 
L 105.31229 78.043585 
L 107.63246 75.342638 
L 108.164686 74.887826 
L 108.701069 75.167097 
L 109.570094 76.355992 
L 109.628306 71.289223 
L 107.931837 66.469808 
L 107.150131 62.743538 
L 109.948473 60.952216 
L 110.51812 61.024029 
L 111.590887 61.458893 
L 112.197957 61.562622 
L 112.647022 61.355164 
L 113.378832 60.43756 
L 114.538918 59.839123 
L 115.162619 59.025248 
L 115.886113 58.307123 
L 116.929774 58.219353 
L 119.649114 60.828539 
L 119.80296 60.852477 
L 120.414188 60.952216 
L 121.012941 60.070519 
L 121.050364 59.017269 
L 120.696933 58.091686 
L 120.064915 57.553092 
L 120.63872 56.312332 
L 121.761383 55.733843 
L 126.2853 55.634103 
L 128.505678 56.212593 
L 130.892377 56.033062 
L 133.553504 55.019708 
L 136.156419 54.788312 
L 138.301953 56.942686 
L 139.299876 54.668625 
L 138.888233 52.89725 
L 135.624194 48.476793 
L 135.175129 47.535252 
L 135.320659 46.470034 
L 135.965151 45.436732 
L 136.647065 44.806378 
L 137.403823 44.582961 
L 138.301953 44.770472 
L 139.736467 45.811753 
L 142.609653 48.827877 
L 144.089905 49.450251 
L 145.524419 48.720158 
L 145.087828 47.044533 
L 143.753106 45.237253 
L 142.518177 44.100222 
L 143.528574 43.465879 
L 148.044174 43.138733 
L 149.827961 42.452525 
L 150.418399 41.287567 
L 151.025469 38.067974 
L 151.241685 37.401714 
L 154.605516 36.595818 
L 155.773918 36.731464 
L 156.775998 37.473526 
L 158.622156 39.580026 
L 159.645026 40.026859 
L 160.588895 39.595984 
L 161.387233 38.758172 
L 162.193887 38.151755 
L 163.162704 38.439005 
L 166.110734 40.509598 
L 167.017181 40.752963 
L 167.931943 40.342036 
L 167.732359 39.432411 
L 166.904914 38.534755 
L 165.956888 38.135797 
L 165.956888 37.401714 
L 167.299926 37.53736 
L 167.832151 37.258089 
L 168.048368 36.368412 
L 168.227162 35.295215 
L 168.672069 34.908225 
L 169.250033 35.003975 
L 169.823839 35.398944 
L 170.746917 36.883068 
L 171.395567 38.58263 
L 172.218853 39.695723 
L 173.661683 39.412463 
L 174.252121 38.953661 
L 174.551498 38.546724 
L 175.736531 36.085152 
L 175.865429 35.566506 
L 175.408048 34.058444 
L 175.075407 33.483944 
L 174.618026 33.077007 
L 174.218857 32.57432 
L 174.04422 31.680653 
L 174.035904 30.75507 
L 173.986008 30.060883 
L 173.869584 29.406592 
L 173.661683 28.640592 
L 175.23757 27.60729 
L 177.187677 29.183175 
L 180.638826 33.388194 
L 181.92781 33.731299 
L 185.902869 32.717945 
L 187.108692 33.029132 
L 189.220962 34.417507 
L 190.277097 34.728694 
L 191.229282 34.214038 
L 190.792691 31.676664 
L 191.516185 30.647352 
L 192.713692 30.683258 
L 195.196025 32.299039 
L 206.110805 35.398944 
L 206.198123 35.398944 
L 205.836376 33.116903 
L 206.522448 31.864174 
L 207.765694 31.369466 
L 212.522459 31.377445 
L 213.058842 31.074237 
L 213.038052 30.38005 
L 212.672147 29.685862 
L 212.139922 29.374675 
L 210.676302 27.571384 
L 209.902912 23.621698 
L 209.728275 19.664032 
L 210.0526 17.868721 
L 210.95073 18.610783 
L 212.630567 21.874261 
L 213.570278 22.616323 
L 214.659677 23.059167 
L 215.528701 24.124385 
L 217.075481 26.629843 
L 218.210619 27.475634 
L 219.857191 28.042155 
L 221.345759 27.726978 
L 221.990251 25.931666 
L 221.59524 24.26801 
L 220.817692 23.154917 
L 220.268834 21.906178 
L 220.568211 19.87548 
L 220.243886 19.791699 
L 219.782347 19.408699 
L 219.54534 19.273053 
L 220.771954 17.764992 
L 222.339524 18.2597 
L 225.158656 21.21598 
L 224.780277 21.946073 
L 225.408136 23.198802 
L 225.832254 25.576593 
L 226.5308 26.629843 
L 227.4913 27.140509 
L 228.040158 27.020822 
L 228.426853 26.93704 
L 229.287561 26.075291 
L 230.048477 24.627072 
L 229.670098 23.956823 
L 230.39775 21.642865 
L 231.491307 22.36099 
L 232.638918 24.196198 
L 233.537049 25.237479 
L 234.584868 24.978156 
L 234.688818 24.339823 
L 234.468444 23.486052 
L 234.551604 22.616323 
L 235.191938 21.650844 
L 235.786533 21.347636 
L 236.464289 21.515199 
L 238.231444 22.436792 
L 240.177393 24.291948 
L 240.376978 24.686916 
L 240.47677 25.237479 
L 240.547456 25.959593 
L 241.02147 26.123166 
L 250.68053 25.959593 
L 251.665979 26.262801 
L 253.749143 27.60729 
L 256.896758 28.337384 
L 259.75747 30.020987 
L 261.807369 30.599477 
L 262.93419 30.647352 
L 263.782425 30.336164 
L 265.512157 28.951779 
L 266.248126 28.640592 
L 268.372869 28.828102 
L 270.352083 29.42654 
L 272.256452 30.459841 
L 274.131715 31.987851 
L 276.268933 34.269892 
L 278.622368 36.779339 
L 281.117175 37.684974 
L 283.250235 39.013505 
L 284.281421 39.412463 
L 293.404099 40.2024 
L 301.520537 39.719661 
L 308.364624 39.236922 
L 316.239898 41.179848 
L 324.102698 41.662587 
L 332.08608 43.577587 
L 334.202508 42.899358 
L 336.181721 41.562848 
L 337.699395 39.719661 
L 339.533078 36.308568 
L 340.530627 38.148963 
L 342.82244 39.334587 
L 343.91554 40.479677 
L 345.119534 43.398136 
L 345.600075 44.289887 
L 346.202072 44.994168 
L 347.5196 46.103791 
L 348.087273 46.782738 
L 347.849642 48.632108 
L 346.608684 47.851826 
L 344.361757 49.675863 
L 340.213787 50.015336 
L 338.59262 50.820953 
L 342.299653 52.270049 
L 343.508928 52.224448 
L 342.473916 53.612742 
L 336.501473 53.496207 
L 333.649908 55.071972 
L 332.546247 56.516001 
L 332.979263 58.243769 
L 332.09739 60.356612 
L 330.507907 67.738895 
L 327.540168 75.977461 
L 326.663576 78.059903 
L 324.477377 82.128519 
L 323.912344 84.33763 
L 323.021439 85.78101 
L 322.945981 85.903262 
L 318.394039 89.946544 
L 311.877687 95.758128 
L 310.267426 101.303608 
L 308.445248 107.5789 
L 309.377363 112.036337 
L 310.420221 117.023357 
L 312.954944 129.178537 
L 315.81707 142.838546 
L 312.712033 150.261363 
L 312.13644 155.25213 
L 312.775402 159.87809 
L 314.013409 162.520526 
L 315.056653 164.747256 
L 317.084432 169.251613 
L 319.677243 172.935154 
L 319.991443 175.787745 
L 319.661401 178.356597 
L 319.735331 181.183855 
L 320.709615 181.584129 
L 321.652216 182.379612 
L 321.963775 184.748326 
L 321.720864 186.007419 
L 321.351217 187.08664 
L 321.155832 188.213997 
L 321.440989 189.592158 
L 321.858162 190.139369 
L 327.033223 192.307946 
L 327.87285 193.273166 
L 328.305866 195.213738 
L 327.666904 196.536165 
L 326.473471 197.410182 
L 323.268102 198.765543 
L 315.891533 199.918259 
L 314.935197 200.067703 
L 314.269832 200.485711 
L 314.676444 200.703582 
L 315.764263 201.714403 
L 314.349043 202.449084 
L 313.646713 203.034296 
L 313.137128 203.893113 
L 312.902138 205.547414 
L 313.46717 208.31387 
L 313.409082 209.557761 
L 312.521929 210.553381 
L 308.297389 212.086079 
L 307.465683 212.94743 
L 307.119799 213.517441 
L 306.866327 214.29519 
L 306.729029 215.250276 
L 306.776555 215.741753 
L 306.89273 216.131894 
L 307.024747 217.43152 
L 307.143562 217.750727 
L 307.238614 218.100334 
L 307.13036 220.127042 
L 306.987782 220.547583 
L 306.618135 221.021326 
L 305.989735 221.3456 
L 305.292686 221.393734 
L 304.664285 221.621738 
L 304.225989 222.462822 
L 304.252393 223.696581 
L 304.611479 225.330613 
L 305.09202 226.881045 
L 305.498632 227.909599 
L 303.814097 229.034422 
L 295.930049 226.037428 
L 291.826965 225.768889 
L 290.60977 225.158343 
L 289.577398 223.904318 
L 287.702758 220.917458 
L 286.498765 219.929438 
L 284.735019 219.306225 
L 283.847866 219.285958 
L 282.950151 219.493696 
L 282.15805 219.341692 
L 281.587737 218.645012 
L 280.959337 218.145935 
L 280.014096 218.599411 
L 279.216714 219.843303 
L 278.693928 221.297465 
L 278.081369 222.655359 
L 277.030515 223.623112 
L 276.12752 223.901785 
L 272.161733 223.678847 
L 270.450794 224.256458 
L 268.782101 225.279946 
L 267.271828 226.663174 
L 266.944427 227.29652 
L 266.764884 228.018534 
L 266.521973 228.618947 
L 265.999186 228.867218 
L 265.508083 228.694948 
L 264.562842 227.9856 
L 264.07702 227.853864 
L 263.385252 228.274406 
L 262.688203 228.922953 
L 261.896102 229.064822 
L 260.950861 227.9552 
L 259.239922 225.426882 
L 258.389734 224.565531 
L 258.377201 224.559943 
L 254.322753 222.752061 
L 253.674091 222.462822 
L 251.556541 220.894657 
L 249.819199 218.769148 
L 244.982101 210.609116 
L 243.281724 208.577341 
L 237.636682 203.715777 
L 237.193106 202.507352 
L 237.039966 200.485711 
L 237.193106 199.58636 
L 237.483543 199.003681 
L 237.663086 198.415936 
L 237.494104 197.481117 
L 237.113896 197.002308 
L 236.511899 196.693235 
L 225.776287 195.712815 
L 224.493083 194.443589 
L 223.83828 192.485283 
L 223.363019 190.496576 
L 222.59204 189.128548 
L 221.810501 189.103215 
L 221.238321 189.305593 
L 218.494237 190.276172 
L 217.216314 190.38764 
L 216.01232 190.20017 
L 214.882255 189.488289 
L 213.804998 188.039193 
L 213.530403 187.261444 
L 213.488157 186.610364 
L 213.472915 186.507992 
L 213.393105 185.971951 
L 212.954809 185.23727 
L 212.458426 184.882596 
L 210.652435 184.474721 
L 208.637858 183.154828 
L 205.543382 179.319283 
L 203.494481 178.184327 
L 202.976974 178.214728 
L 202.644292 178.397131 
L 202.327452 178.473133 
L 201.862752 178.184327 
L 201.540631 177.609249 
L 200.933353 175.833346 
L 200.584829 175.159466 
L 199.671272 174.394384 
L 198.741873 174.224647 
L 198.08707 174.875727 
L 198.028982 176.573095 
L 199.460045 179.228082 
L 199.80857 180.793713 
L 198.79468 182.161741 
L 197.157671 183.025625 
L 196.355009 183.025625 
L 195.605153 182.379612 
L 194.982033 180.266769 
L 194.512053 177.84992 
L 193.809723 175.833346 
L 192.484274 174.923861 
L 190.092128 174.992263 
L 188.888135 175.354537 
L 187.773912 176.081618 
L 187.059587 176.829229 
L 183.992949 180.038765 
L 182.688623 180.960917 
L 178.765081 181.548662 
L 177.529403 182.361878 
L 176.460755 183.368749 
L 175.918798 183.879376 
L 174.588068 183.651371 
L 173.257338 182.777353 
L 171.662574 182.356812 
L 170.912718 183.372699 
L 169.972758 186.08342 
L 169.175376 186.731967 
L 166.07034 187.08664 
L 162.484762 186.747167 
L 161.460311 186.977705 
L 158.777728 189.503489 
L 156.749949 190.602978 
L 156.110987 191.362994 
L 155.27136 193.693707 
L 154.701047 194.684261 
L 153.507615 195.373341 
L 152.050148 195.451876 
L 149.827745 194.515889 
" clip-path="url(#p0af8313ae6)" style="fill: #f5f5f5; stroke: #000000"/>
    <path d="M 131.291546 170.494168 
L 131.017117 168.132335 
L 131.902774 166.708055 
L 133.378868 166.185419 
L 134.867436 166.540492 
L 135.316501 168.858439 
L 134.310262 170.94898 
L 132.688638 171.826688 
L 131.291546 170.494168 
" clip-path="url(#p0af8313ae6)" style="fill: #f5f5f5; stroke: #000000"/>
    <path d="M 94.875681 132.094442 
L 96.127243 132.561223 
L 97.836185 133.726181 
L 99.358017 135.266159 
L 100.118934 136.846034 
L 99.694816 138.226429 
L 96.447409 135.912472 
L 95.23327 136.846034 
L 95.877762 137.025565 
L 96.464041 137.312815 
L 96.954687 137.863377 
L 97.295644 138.79295 
L 95.091898 138.461814 
L 94.110607 137.875346 
L 93.108526 136.846034 
L 92.9131 136.379253 
L 92.709357 135.685065 
L 92.385032 135.050722 
L 91.873597 134.775441 
L 91.087733 134.771451 
L 91.000414 134.97093 
L 90.701037 135.505534 
L 90.601245 135.864597 
L 90.326816 137.288877 
L 90.143864 137.851408 
L 89.753011 138.497721 
L 89.403738 138.872741 
L 88.642822 139.527033 
L 88.297707 139.471179 
L 87.819536 139.279679 
L 87.395418 139.467189 
L 87.208308 140.556345 
L 87.233256 141.154782 
L 87.295626 141.785136 
L 87.395418 142.375594 
L 87.524317 142.866313 
L 86.351757 143.799875 
L 85.262358 145.168302 
L 84.21454 145.978187 
L 81.944265 144.170906 
L 80.78418 144.23075 
L 80.409959 145.056593 
L 81.532622 146.277405 
L 78.118895 151.017029 
L 77.316398 151.455883 
L 76.49727 151.719195 
L 75.632404 152.301674 
L 74.143836 154.216674 
L 73.44529 154.783194 
L 72.289363 154.982673 
L 69.956718 154.743298 
L 68.846529 155.086402 
L 68.281039 156.319183 
L 70.659422 157.839214 
L 68.946321 159.490901 
L 66.18956 159.873901 
L 65.461908 157.599839 
L 64.688517 157.057256 
L 63.744649 156.809902 
L 62.784148 156.873735 
L 61.948388 157.296631 
L 61.17084 158.114495 
L 60.863147 158.533401 
L 60.62614 158.329933 
L 60.052335 157.296631 
L 59.332999 156.682235 
L 58.879775 157.336527 
L 58.443184 159.000182 
L 58.077279 159.315359 
L 57.910959 159.538776 
L 57.757112 159.674422 
L 57.403681 159.722297 
L 57.382891 159.383182 
L 57.11262 157.911027 
L 57.083514 157.599839 
L 56.36002 157.559943 
L 55.466048 157.97087 
L 54.634446 158.64112 
L 54.089746 159.359245 
L 53.540889 159.861932 
L 52.946293 159.626547 
L 52.355855 159.263495 
L 51.819472 159.359245 
L 51.441093 159.682401 
L 50.468118 160.244932 
L 50.073107 160.336692 
L 48.522169 161.334088 
L 47.075181 162.682566 
L 46.405741 163.691931 
L 46.035678 164.015087 
L 45.881831 164.505805 
L 45.786197 168.156273 
L 45.557507 170.310647 
L 45.120915 172.449063 
L 43.711349 176.474551 
L 43.29139 177.380186 
L 42.717585 178.170124 
L 42.210307 179.039853 
L 42.135463 179.989373 
L 42.368312 182.183643 
L 41.70303 183.177049 
L 34.46809 189.915453 
L 32.858939 189.975297 
L 31.490954 187.904704 
L 31.711328 186.763683 
L 31.524218 185.686496 
L 31.01694 184.876611 
L 30.301762 184.561434 
L 30.164548 184.397861 
L 30.089704 184.014861 
L 30.068914 183.556059 
L 30.127126 183.157101 
L 31.474322 183.284768 
L 31.873491 183.157101 
L 32.23108 182.478872 
L 32.784095 180.412269 
L 33.08763 179.510623 
L 35.008631 176.462583 
L 35.89013 174.395979 
L 36.376617 173.494334 
L 36.913001 173.119313 
L 37.653127 173.350709 
L 38.310092 173.793552 
L 38.92132 174.068833 
L 39.545022 173.789563 
L 39.823609 173.135271 
L 40.122985 171.088616 
L 40.430678 170.131116 
L 42.368312 167.091055 
L 41.212385 165.822367 
L 39.245645 164.972587 
L 35.690545 164.350212 
L 34.705096 163.296962 
L 32.858939 158.661068 
L 31.682222 157.599839 
L 28.364129 157.559943 
L 26.70924 157.009381 
L 25.24562 155.648934 
L 24.401544 153.953361 
L 24.014849 152.804362 
L 23.989901 151.966549 
L 24.621919 151.503758 
L 27.307994 152.301674 
L 26.717556 150.81356 
L 25.844374 149.281561 
L 25.524207 148.096655 
L 26.609448 147.617905 
L 27.520053 148.280176 
L 28.339181 149.548863 
L 29.166625 150.3388 
L 30.127126 149.568811 
L 29.694693 147.85728 
L 30.364132 146.827968 
L 31.511744 146.504812 
L 32.572037 146.887812 
L 32.110497 145.762749 
L 31.490954 143.652261 
L 29.237311 139.207866 
L 28.139596 137.767627 
L 26.946247 135.665117 
L 26.260175 134.775441 
L 24.813187 133.363129 
L 23.432727 131.492015 
L 26.122961 132.744744 
L 26.958721 132.764691 
L 27.719637 132.453504 
L 27.831903 132.10641 
L 27.856851 131.591754 
L 28.343339 130.765911 
L 30.293446 130.845702 
L 31.773698 131.340411 
L 33.058524 132.641014 
L 35.278902 136.814117 
L 35.565805 137.815502 
L 35.678071 139.156002 
L 35.757073 139.734491 
L 35.97329 140.041689 
L 36.256035 140.165366 
L 36.563728 140.197283 
L 37.029425 139.814283 
L 37.037741 138.964502 
L 36.754996 137.516283 
L 37.046057 134.943003 
L 37.295538 133.821931 
L 37.802815 132.764691 
L 38.476413 132.11439 
L 40.118827 131.232692 
L 40.779951 130.454723 
L 41.362073 129.090286 
L 41.590764 128.364182 
L 41.940036 128.072943 
L 42.875589 128.021078 
L 43.012803 128.236516 
L 43.18744 128.743193 
L 43.349602 129.329661 
L 43.416131 129.784474 
L 43.486817 130.957411 
L 43.690559 131.531911 
L 44.430685 132.094442 
L 45.956676 132.369723 
L 46.451479 130.406849 
L 46.505533 127.709891 
L 46.730066 125.770954 
L 48.447325 124.254913 
L 55.657316 123.456997 
L 60.114705 119.862383 
L 61.794541 119.379644 
L 62.351715 119.906269 
L 63.299742 122.204268 
L 63.869389 122.730893 
L 64.193714 122.938351 
L 64.738414 123.855955 
L 65.112635 124.063413 
L 65.628228 123.855955 
L 66.526359 122.930372 
L 66.850683 122.730893 
L 67.898502 123.04607 
L 68.746737 123.624559 
L 69.619919 123.931757 
L 70.72595 123.456997 
L 72.397471 121.310602 
L 73.453606 120.512685 
L 75.241551 121.446247 
L 77.965048 120.775998 
L 79.108501 121.055268 
L 80.231165 121.765414 
L 82.567967 122.591257 
L 84.954666 124.314757 
L 87.744691 125.611371 
L 88.780036 127.103475 
L 89.520162 129.126193 
L 89.915173 129.72463 
L 90.667773 130.454723 
L 92.730147 131.547869 
L 94.875681 132.094442 
" clip-path="url(#p0af8313ae6)" style="fill: #f5f5f5; stroke: #000000"/>
    <path d="M 102.588792 124.733663 
L 103.382973 126.325506 
L 103.540977 127.135391 
L 102.501474 127.905381 
L 102.077357 128.76713 
L 101.595028 129.385515 
L 100.81748 129.090286 
L 99.998351 128.499828 
L 99.121011 128.188641 
L 97.32475 128.021078 
L 96.61373 128.268433 
L 95.091898 129.170078 
L 94.526408 129.090286 
L 89.969227 124.733663 
L 87.345522 123.692382 
L 86.123067 122.423695 
L 86.301861 120.353102 
L 86.946353 119.838446 
L 88.513923 120.389008 
L 89.270682 119.98606 
L 89.403738 119.459436 
L 89.753011 117.420759 
L 89.969227 116.702634 
L 90.992098 115.31825 
L 92.073181 114.811573 
L 93.195844 114.859448 
L 97.823711 116.243833 
L 99.965087 117.560395 
L 100.655317 118.378259 
L 100.929746 119.32379 
L 100.87985 120.293258 
L 100.767583 121.22682 
L 100.846586 122.060643 
L 101.262387 122.926382 
L 102.202097 124.099319 
L 102.588792 124.733663 
" clip-path="url(#p0af8313ae6)" style="fill: #f5f5f5; stroke: #000000"/>
    <path d="M 101.690662 80.704636 
L 103.000436 82.807146 
L 103.208336 83.91226 
L 102.750955 85.452239 
L 102.214571 85.942958 
L 101.603344 85.751458 
L 100.996274 85.320583 
L 100.468207 85.117114 
L 99.923507 85.324572 
L 98.372569 86.39777 
L 97.32475 86.417718 
L 95.578385 85.372447 
L 94.505618 85.117114 
L 94.206241 85.320583 
L 94.081501 85.763426 
L 93.861126 86.194301 
L 91.990021 86.649114 
L 91.432848 86.58927 
L 90.667773 86.090572 
L 89.191679 81.965344 
L 88.921409 81.406803 
L 89.166731 80.257803 
L 89.802907 79.551647 
L 90.663615 79.188595 
L 91.786279 79.04497 
L 93.719754 79.220512 
L 97.295644 80.369512 
L 99.545128 79.71921 
L 100.680265 79.691283 
L 101.690662 80.704636 
" clip-path="url(#p0af8313ae6)" style="fill: #f5f5f5; stroke: #000000"/>
    <path d="M 46.904702 93.818392 
L 43.590767 94.676152 
L 41.960827 94.524548 
L 35.191584 90.814237 
L 34.280979 89.800883 
L 34.833995 88.181113 
L 36.813208 87.853967 
L 40.592841 88.408519 
L 55.657316 86.39777 
L 54.659394 85.72752 
L 54.58455 85.045302 
L 55.224883 84.797948 
L 56.355862 85.452239 
L 56.954616 85.392395 
L 56.908878 81.933428 
L 57.76127 81.035772 
L 58.917198 80.95997 
L 59.815328 80.592928 
L 60.572086 79.779053 
L 61.270632 78.366741 
L 61.449427 77.493023 
L 61.449427 76.66718 
L 61.545061 75.853305 
L 61.998284 75.015493 
L 62.534668 74.768139 
L 64.721782 75.007513 
L 64.755046 75.015493 
L 66.060661 75.218961 
L 67.586652 75.781492 
L 68.484782 76.723034 
L 67.333013 79.507762 
L 67.831974 81.095615 
L 68.809107 82.404198 
L 69.636551 83.046521 
L 74.771695 82.699427 
L 79.723887 85.109135 
L 80.513909 86.39777 
L 80.671914 87.407134 
L 80.414117 88.923175 
L 80.513909 89.800883 
L 80.971291 90.730456 
L 82.044058 91.620133 
L 82.455701 92.178674 
L 82.784184 92.777111 
L 83.50352 93.602955 
L 83.865267 94.153517 
L 84.014955 94.60434 
L 84.064851 95.111017 
L 84.039903 96.22411 
L 84.202066 96.870423 
L 84.54718 97.061922 
L 84.904769 97.073891 
L 85.087722 97.169641 
L 85.162566 99.156453 
L 84.804977 100.181776 
L 84.064851 100.301463 
L 81.956739 98.821328 
L 81.420356 98.593922 
L 80.883972 98.506151 
L 80.513909 98.845266 
L 80.385011 99.47163 
L 80.139688 99.798776 
L 79.474406 99.232255 
L 78.626172 99.66313 
L 77.75299 99.671109 
L 76.938019 99.94639 
L 76.306002 101.18715 
L 76.788331 101.203109 
L 77.116814 101.458442 
L 77.316398 101.993046 
L 77.378769 102.854795 
L 77.303924 104.087576 
L 77.066918 104.326951 
L 76.667749 104.33892 
L 76.123049 104.897461 
L 75.191655 105.456003 
L 73.723877 105.511857 
L 72.364207 105.017149 
L 71.765453 103.920014 
L 72.326785 102.894691 
L 73.44529 102.088796 
L 74.247786 101.274921 
L 73.861091 100.245609 
L 72.987908 100.173796 
L 71.728031 100.764255 
L 70.480628 101.66989 
L 69.636551 102.519671 
L 68.538836 104.91342 
L 66.792471 110.598574 
L 65.461908 112.685125 
L 63.224897 113.889979 
L 60.389134 114.233083 
L 57.632372 113.471073 
L 55.657316 111.344626 
L 56.123014 111.005511 
L 56.572079 110.526762 
L 57.403681 109.278022 
L 56.696819 108.232752 
L 55.765425 106.429461 
L 54.962929 104.446639 
L 54.613656 102.854795 
L 54.613656 100.484984 
L 54.468125 99.096609 
L 53.965006 98.011443 
L 51.520095 95.087079 
L 50.123003 94.12559 
L 48.601171 93.678757 
L 46.904702 93.818392 
" clip-path="url(#p0af8313ae6)" style="fill: #f5f5f5; stroke: #000000"/>
    <path d="M 160.543157 24.902354 
L 161.312389 26.286739 
L 162.289522 28.856029 
L 161.919459 29.833477 
L 160.563947 30.180571 
L 159.175171 28.672509 
L 159.083695 26.821343 
L 159.757293 25.081885 
L 160.543157 24.902354 
" clip-path="url(#p0af8313ae6)" style="fill: #f5f5f5; stroke: #000000"/>
    <path d="M 96.401671 199.87345 
L 96.921423 200.435981 
L 97.145955 201.325657 
L 96.896475 202.610303 
L 95.877762 202.73398 
L 94.817469 202.015855 
L 94.218715 201.11022 
L 94.260295 200.268418 
L 94.360088 199.466512 
L 94.551356 198.876054 
L 95.333062 198.987762 
L 96.401671 199.87345 
" clip-path="url(#p0af8313ae6)" style="fill: #f5f5f5; stroke: #000000"/>
   </g>
  </g>
 </g>
 <defs>
  <clipPath id="p0af8313ae6">
   <rect x="7.2" y="7.2" width="357.12" height="232.429814"/>
  </clipPath>
 </defs>
</svg>
