<?xml version="1.0" encoding="utf-8" standalone="no"?>
<!DOCTYPE svg PUBLIC "-//W3C//DTD SVG 1.1//EN"
  "http://www.w3.org/Graphics/SVG/1.1/DTD/svg11.dtd">
<svg xmlns:xlink="http://www.w3.org/1999/xlink" width="215.467955pt" height="280.512pt" viewBox="0 0 215.467955 280.512" xmlns="http://www.w3.org/2000/svg" version="1.1">
 <metadata>
  <rdf:RDF xmlns:dc="http://purl.org/dc/elements/1.1/" xmlns:cc="http://creativecommons.org/ns#" xmlns:rdf="http://www.w3.org/1999/02/22-rdf-syntax-ns#">
   <cc:Work>
    <dc:type rdf:resource="http://purl.org/dc/dcmitype/StillImage"/>
    <dc:date>2024-03-04T13:11:13.888969</dc:date>
    <dc:format>image/svg+xml</dc:format>
    <dc:creator>
     <cc:Agent>
      <dc:title>Matplotlib v3.8.0, https://matplotlib.org/</dc:title>
     </cc:Agent>
    </dc:creator>
   </cc:Work>
  </rdf:RDF>
 </metadata>
 <defs>
  <style type="text/css">*{stroke-linejoin: round; stroke-linecap: butt}</style>
 </defs>
 <g id="figure_1">
  <g id="patch_1">
   <path d="M 0 280.512 
L 215.467955 280.512 
L 215.467955 0 
L 0 0 
z
" style="fill: #ffffff"/>
  </g>
  <g id="axes_1">
   <g id="PatchCollection_1">
    <defs>
     <path id="m9f9c22c2e0" d="M 176.095837 -227.214294 
L 179.663281 -223.796719 
L 183.598795 -221.660735 
L 192.715597 -219.303241 
L 190.917718 -214.493321 
L 191.639701 -208.987228 
L 193.260623 -203.322914 
L 194.202032 -198.022509 
L 193.706554 -193.940406 
L 189.176466 -181.836495 
L 188.511109 -177.374661 
L 190.21697 -161.584199 
L 191.243318 -157.296408 
L 197.71285 -144.211526 
L 199.128503 -131.664596 
L 198.647181 -92.204264 
L 196.438763 -93.201057 
L 193.06951 -96.586988 
L 190.875249 -97.014184 
L 181.687664 -97.061651 
L 181.984951 -92.47324 
L 179.663281 -78.94534 
L 177.525646 -66.366765 
L 175.119036 -52.300913 
L 175.405645 -42.86025 
L 175.494184 -39.943848 
L 175.841019 -28.599398 
L 176.605471 -26.352659 
L 177.539802 -24.691338 
L 178.233472 -23.061661 
L 178.629855 -21.32123 
L 178.700637 -19.296 
L 166.419852 -19.454221 
L 153.261362 -19.644086 
L 133.314818 -19.913062 
L 118.19565 -20.11875 
L 109.008065 -21.985758 
L 94.929401 -26.827322 
L 84.446494 -30.434763 
L 79.59353 -32.106119 
L 67.586073 -36.241475 
L 65.51922 -37.633821 
L 63.40282 -39.753983 
L 56.862505 -49.611155 
L 42.797998 -62.34795 
L 39.726032 -67.664178 
L 39.145614 -71.477305 
L 40.561267 -77.489706 
L 40.731145 -81.302833 
L 39.924223 -84.340678 
L 38.466101 -86.603239 
L 34.544744 -90.764453 
L 32.732708 -93.533321 
L 30.363861 -100.528244 
L 29.667821 -102.583566 
L 28.096446 -100.637447 
L 25.994203 -98.849549 
L 23.672532 -97.552136 
L 21.393332 -97.109117 
L 19.015036 -96.966718 
L 18.087783 -100.542514 
L 16.721679 -111.048392 
L 16.509331 -132.186726 
L 16.339453 -148.483495 
L 19.305244 -159.954522 
L 32.010726 -176.140536 
L 41.948606 -188.782399 
L 51.249443 -205.474721 
L 58.624993 -223.306234 
L 60.71308 -231.375508 
L 62.489724 -234.571574 
L 74.621866 -245.504649 
L 88.438634 -257.940824 
L 92.289209 -259.886943 
L 97.031645 -261.152712 
L 101.066254 -261.216 
L 104.54876 -260.045164 
L 119.059198 -250.567723 
L 133.569636 -241.090281 
L 146.147708 -232.862786 
L 148.389418 -231.395873 
L 160.389172 -223.543566 
L 164.331764 -222.341086 
L 168.238965 -223.27459 
L 176.095837 -227.214294 
" style="stroke: #000000"/>
    </defs>
    <g clip-path="url(#pd2c5dfa175)">
     <use xlink:href="#m9f9c22c2e0" x="0" y="280.512" style="fill: #f5f5f5; stroke: #000000"/>
    </g>
   </g>
  </g>
 </g>
 <defs>
  <clipPath id="pd2c5dfa175">
   <rect x="7.2" y="7.2" width="201.067955" height="266.112"/>
  </clipPath>
 </defs>
</svg>
