<?xml version="1.0" encoding="utf-8" standalone="no"?>
<!DOCTYPE svg PUBLIC "-//W3C//DTD SVG 1.1//EN"
  "http://www.w3.org/Graphics/SVG/1.1/DTD/svg11.dtd">
<svg xmlns:xlink="http://www.w3.org/1999/xlink" width="357.561482pt" height="280.512pt" viewBox="0 0 357.561482 280.512" xmlns="http://www.w3.org/2000/svg" version="1.1">
 <metadata>
  <rdf:RDF xmlns:dc="http://purl.org/dc/elements/1.1/" xmlns:cc="http://creativecommons.org/ns#" xmlns:rdf="http://www.w3.org/1999/02/22-rdf-syntax-ns#">
   <cc:Work>
    <dc:type rdf:resource="http://purl.org/dc/dcmitype/StillImage"/>
    <dc:date>2024-03-04T13:11:10.477091</dc:date>
    <dc:format>image/svg+xml</dc:format>
    <dc:creator>
     <cc:Agent>
      <dc:title>Matplotlib v3.8.0, https://matplotlib.org/</dc:title>
     </cc:Agent>
    </dc:creator>
   </cc:Work>
  </rdf:RDF>
 </metadata>
 <defs>
  <style type="text/css">*{stroke-linejoin: round; stroke-linecap: butt}</style>
 </defs>
 <g id="figure_1">
  <g id="patch_1">
   <path d="M 0 280.512 
L 357.561482 280.512 
L 357.561482 0 
L 0 0 
z
" style="fill: #ffffff"/>
  </g>
  <g id="axes_1">
   <g id="PatchCollection_1">
    <defs>
     <path id="mb680848a90" d="M 45.294348 -146.857445 
L 45.215133 -148.471855 
L 45.866893 -151.603183 
L 48.441667 -158.903442 
L 49.66775 -160.043443 
L 50.138824 -160.748251 
L 50.171089 -160.981371 
L 50.100106 -161.495543 
L 50.104408 -161.733565 
L 50.162485 -161.846313 
L 50.36253 -162.053289 
L 50.429212 -162.17584 
L 50.605596 -163.067471 
L 50.584086 -164.017926 
L 49.570954 -168.65691 
L 49.47846 -169.528932 
L 49.639787 -170.27568 
L 51.431589 -172.811135 
L 52.236071 -174.372169 
L 52.565178 -174.814444 
L 52.924399 -175.127631 
L 55.432491 -176.858603 
L 55.785259 -176.992593 
L 56.041231 -176.890194 
L 58.560078 -174.672284 
L 59.170969 -174.278485 
L 59.4463 -174.037195 
L 59.577512 -173.718016 
L 59.493622 -173.084016 
L 59.523736 -172.776276 
L 59.74099 -172.694575 
L 59.908769 -172.863423 
L 60.186251 -173.51104 
L 60.442223 -173.73599 
L 60.79284 -173.770849 
L 61.046661 -173.696229 
L 61.274669 -173.725097 
L 61.541396 -174.075322 
L 61.666155 -174.450602 
L 61.668306 -174.706054 
L 61.754347 -174.957148 
L 62.132927 -175.316088 
L 63.257912 -176.173949 
L 63.608529 -176.677227 
L 63.767704 -177.39892 
L 63.6537 -177.715375 
L 63.036357 -178.168543 
L 62.836311 -178.443603 
L 62.851369 -178.675089 
L 64.225872 -182.707852 
L 64.30546 -183.364184 
L 64.040884 -183.79611 
L 63.677361 -184.201347 
L 63.475165 -184.773254 
L 63.535394 -185.229146 
L 66.157491 -191.007042 
L 66.234927 -191.422083 
L 66.183303 -191.816427 
L 65.748796 -192.674832 
L 65.598225 -193.108392 
L 65.636943 -193.970066 
L 65.479918 -194.768557 
L 65.492825 -195.194492 
L 65.639094 -195.695591 
L 65.864952 -196.211942 
L 66.148887 -196.696701 
L 66.467238 -197.104117 
L 67.27172 -197.625914 
L 67.727174 -197.800516 
L 69.1216 -198.335079 
L 69.749699 -199.036619 
L 69.792719 -199.242505 
L 69.804732 -199.626664 
L 69.807776 -199.723997 
L 69.868005 -199.91899 
L 70.055144 -200.102 
L 70.833814 -200.548632 
L 71.240357 -201.014873 
L 71.421043 -201.515972 
L 71.627542 -202.67177 
L 71.997517 -203.593357 
L 72.154542 -203.831924 
L 72.358889 -204.004041 
L 72.812755 -204.240429 
L 73.030008 -204.416903 
L 73.221449 -204.702312 
L 73.281678 -204.965934 
L 73.337605 -205.553092 
L 73.55916 -206.142429 
L 77.474021 -212.639295 
L 77.66116 -212.849538 
L 77.839695 -212.922525 
L 78.241937 -212.953026 
L 78.422622 -213.029281 
L 78.629121 -213.253686 
L 78.704406 -213.469377 
L 78.734521 -213.694872 
L 78.876488 -214.233009 
L 78.872186 -214.345212 
L 78.947472 -214.411662 
L 79.232581 -214.542205 
L 79.261521 -214.555456 
L 79.794975 -214.730841 
L 86.071659 -215.63282 
L 86.248043 -215.639356 
L 86.501864 -215.596872 
L 86.639529 -215.527153 
L 86.759987 -215.437827 
L 86.949277 -215.335428 
L 87.517147 -215.179652 
L 87.841951 -215.309284 
L 88.020486 -215.723236 
L 88.42918 -218.065332 
L 88.424878 -218.579504 
L 88.334535 -218.89378 
L 87.848404 -219.734211 
L 87.829045 -220.201541 
L 88.06996 -220.56157 
L 88.379707 -220.868766 
L 88.566846 -221.178686 
L 88.560393 -221.359517 
L 88.493711 -221.539804 
L 88.328082 -221.875868 
L 88.297968 -222.278926 
L 90.309174 -229.218611 
L 93.400194 -233.632645 
L 93.591635 -234.229607 
L 93.66477 -235.422442 
L 93.740056 -235.846198 
L 94.604033 -237.957092 
L 94.983347 -238.883842 
L 94.925269 -239.935062 
L 94.563897 -240.987916 
L 94.449893 -241.505356 
L 94.441289 -242.041314 
L 94.533783 -242.490125 
L 96.403022 -248.230439 
L 96.805263 -248.222814 
L 96.957986 -248.636221 
L 97.22041 -248.850278 
L 97.571027 -248.930889 
L 98.014138 -248.942872 
L 98.302375 -249.008778 
L 98.945531 -249.306714 
L 99.362829 -249.374254 
L 100.300675 -249.374254 
L 100.477059 -249.422185 
L 100.814769 -249.627527 
L 101.016966 -249.675458 
L 102.438792 -249.675458 
L 103.10776 -249.585042 
L 104.465055 -249.189609 
L 105.155533 -249.099193 
L 105.278142 -249.019671 
L 105.654571 -248.510946 
L 105.820199 -248.390573 
L 105.983677 -248.300157 
L 106.164363 -248.242422 
L 106.377314 -248.222814 
L 106.499923 -248.26312 
L 106.803217 -248.510946 
L 106.973148 -248.525108 
L 107.351728 -248.479355 
L 107.513054 -248.510946 
L 107.773328 -248.689599 
L 107.997034 -248.951587 
L 108.154059 -249.299089 
L 108.212137 -249.740819 
L 108.225043 -250.246276 
L 108.296027 -250.675479 
L 108.463806 -251.091064 
L 108.780007 -251.546411 
L 109.37584 -251.99141 
L 110.094282 -252.152088 
L 111.634414 -252.121587 
L 112.08828 -252.276274 
L 112.374366 -252.318214 
L 112.882007 -251.8901 
L 113.275644 -251.662972 
L 114.062919 -250.538766 
L 114.38127 -250.225578 
L 114.460858 -250.055095 
L 114.490972 -249.740819 
L 114.480217 -249.260417 
L 114.538295 -249.036011 
L 114.839438 -248.864439 
L 115.680488 -248.168346 
L 115.770831 -248.042527 
L 115.923553 -247.646549 
L 116.028954 -247.119305 
L 116.153713 -246.882372 
L 116.42044 -246.783786 
L 116.635542 -246.745659 
L 116.848493 -246.641082 
L 117.00982 -246.481493 
L 117.0722 -246.279963 
L 117.095861 -245.741281 
L 117.192657 -245.391056 
L 117.40991 -245.138328 
L 117.784188 -244.899216 
L 118.01865 -245.13506 
L 118.769357 -246.910695 
L 119.965325 -249.740819 
L 121.270996 -252.830752 
L 122.611083 -256.001841 
L 123.964077 -259.199619 
L 124.813731 -261.216 
L 125.175102 -260.903902 
L 125.426772 -260.54115 
L 125.824711 -259.768803 
L 125.915054 -259.694182 
L 126.11725 -259.671306 
L 126.190385 -259.599409 
L 126.20114 -259.513351 
L 126.194687 -259.290579 
L 126.207593 -259.225218 
L 126.287181 -259.07271 
L 126.332353 -258.932184 
L 126.422696 -258.830875 
L 126.657157 -258.792203 
L 126.861504 -258.639694 
L 126.906676 -258.475203 
L 126.921733 -258.290559 
L 127.040039 -258.083038 
L 127.212121 -257.94578 
L 129.470695 -257.031274 
L 129.847124 -256.962645 
L 131.032337 -257.164174 
L 131.524922 -257.133672 
L 131.845424 -257.00404 
L 132.058375 -256.747499 
L 132.189156 -256.429587 
L 132.230457 -256.329189 
L 132.331555 -255.749657 
L 132.434804 -255.543226 
L 132.632698 -255.36076 
L 132.875764 -255.22786 
L 133.093017 -255.065002 
L 133.226381 -254.793755 
L 133.424275 -253.993629 
L 133.594205 -253.623252 
L 133.837271 -253.312243 
L 134.162075 -253.061148 
L 135.278456 -252.463097 
L 135.446236 -252.306231 
L 135.586053 -251.850884 
L 135.697906 -251.661882 
L 135.956028 -251.469613 
L 136.130261 -251.451094 
L 136.306645 -251.500659 
L 137.332683 -251.493033 
L 138.922289 -251.672776 
L 139.696657 -251.876484 
L 140.98512 -252.534994 
L 141.391663 -252.521922 
L 141.770243 -252.396647 
L 142.148823 -252.359609 
L 142.533856 -252.394468 
L 142.929644 -252.487063 
L 144.170784 -252.993609 
L 145.097875 -253.081846 
L 145.482908 -253.347102 
L 146.169085 -253.96803 
L 147.035947 -254.367275 
L 147.461849 -254.630353 
L 147.756539 -255.010535 
L 147.818919 -255.398887 
L 147.786654 -255.792686 
L 147.818919 -256.143456 
L 148.087797 -256.403265 
L 148.117911 -256.330279 
L 148.862165 -256.245854 
L 149.455847 -256.111865 
L 149.664497 -256.029074 
L 150.118362 -255.747478 
L 150.537812 -255.370019 
L 150.897033 -254.934825 
L 151.183119 -254.483291 
L 151.787556 -252.734889 
L 152.217761 -251.954372 
L 152.738308 -251.959819 
L 153.192174 -252.676064 
L 153.473958 -252.929337 
L 153.992354 -253.011039 
L 155.11949 -252.831841 
L 155.515278 -252.855262 
L 157.22104 -253.323136 
L 158.070694 -253.731642 
L 158.440669 -254.223482 
L 158.604147 -254.645059 
L 158.963368 -254.640157 
L 159.376364 -254.410305 
L 159.692565 -254.149406 
L 160.116316 -253.64286 
L 160.243227 -253.522487 
L 160.361533 -253.460939 
L 161.432742 -253.143394 
L 161.989857 -253.093829 
L 162.932097 -253.251599 
L 163.183675 -253.293724 
L 163.84619 -253.316056 
L 164.469986 -253.112348 
L 165.044309 -252.754497 
L 166.13918 -251.816025 
L 166.45538 -251.667329 
L 166.849017 -251.600879 
L 167.255561 -251.714171 
L 167.896566 -252.25013 
L 168.277297 -252.345447 
L 168.694107 -252.271819 
L 169.180726 -252.185858 
L 169.477567 -252.193484 
L 170.505756 -252.493599 
L 170.873581 -252.497956 
L 172.74282 -252.0486 
L 173.644098 -251.685848 
L 174.463638 -251.203812 
L 176.058538 -249.742258 
L 177.472919 -248.44613 
L 178.683945 -247.827381 
L 180.890894 -246.779429 
L 181.478123 -246.592061 
L 183.358117 -246.326805 
L 184.771339 -245.802829 
L 186.038292 -244.90902 
L 188.215127 -242.462892 
L 190.417774 -239.987351 
L 192.035343 -237.156138 
L 193.506643 -234.577653 
L 194.134741 -233.961083 
L 196.941826 -232.183269 
L 200.555544 -229.896185 
L 202.736681 -228.116192 
L 204.324136 -226.821503 
L 205.135072 -225.986518 
L 205.842758 -225.064386 
L 206.505273 -223.972861 
L 208.122842 -220.498388 
L 209.21126 -218.984741 
L 210.835282 -217.947682 
L 212.022647 -217.461834 
L 213.179897 -216.81694 
L 214.171518 -215.967794 
L 215.528814 -213.668727 
L 217.225971 -211.381099 
L 218.219743 -210.336415 
L 216.965697 -208.65991 
L 216.331145 -207.281886 
L 213.558477 -203.513835 
L 213.242277 -202.745845 
L 213.076648 -202.485491 
L 212.586215 -202.245835 
L 212.356055 -201.994196 
L 211.515005 -200.43643 
L 209.795314 -198.00459 
L 208.998309 -196.877533 
L 208.768149 -196.645502 
L 208.479912 -196.424365 
L 208.189524 -196.286018 
L 207.955063 -196.21521 
L 207.778679 -196.091024 
L 207.662523 -195.790365 
L 207.456025 -195.520207 
L 206.638637 -195.162901 
L 206.33104 -194.954836 
L 206.001934 -194.284887 
L 205.715848 -192.686815 
L 205.100655 -190.775011 
L 205.115713 -189.624661 
L 205.653468 -187.201408 
L 205.90944 -184.909967 
L 205.859966 -180.855418 
L 205.728754 -179.955072 
L 205.354476 -179.354842 
L 205.463061 -179.21282 
L 205.61475 -179.014421 
L 206.133146 -178.816705 
L 208.591765 -178.318873 
L 208.662749 -178.211028 
L 208.716525 -178.086297 
L 208.841284 -177.98172 
L 209.02197 -177.955576 
L 209.131672 -178.034009 
L 209.226317 -178.139131 
L 209.368285 -178.196866 
L 210.547045 -178.245887 
L 211.121368 -178.390225 
L 211.766675 -179.044923 
L 212.325941 -179.229567 
L 213.472436 -179.354842 
L 214.541494 -179.109194 
L 214.935131 -179.104837 
L 215.216915 -179.175644 
L 215.959018 -179.508985 
L 216.137553 -179.527504 
L 216.50968 -179.514431 
L 216.688215 -179.531861 
L 217.367938 -179.761713 
L 217.839012 -179.685459 
L 218.161666 -179.575435 
L 218.475715 -179.559095 
L 218.923128 -179.770973 
L 220.306235 -180.681122 
L 222.179776 -181.25085 
L 222.979248 -181.312859 
L 223.13483 -181.324926 
L 224.610432 -180.974701 
L 225.107318 -180.955093 
L 225.507408 -180.805308 
L 226.032258 -179.657136 
L 226.385026 -179.360289 
L 226.849647 -179.25789 
L 227.710056 -179.170198 
L 228.22415 -179.022047 
L 228.49733 -178.976294 
L 228.804926 -179.088497 
L 229.013575 -179.343949 
L 229.222225 -179.523146 
L 229.547029 -179.409309 
L 229.288906 -178.957775 
L 229.078106 -178.09828 
L 228.91893 -177.741519 
L 228.570465 -177.44794 
L 227.69715 -177.082464 
L 227.376647 -176.748579 
L 227.213169 -176.328091 
L 227.131431 -175.980045 
L 226.998067 -175.657054 
L 226.673263 -175.311731 
L 225.929009 -174.709322 
L 225.683792 -174.37108 
L 225.485898 -173.859086 
L 225.285853 -173.002315 
L 225.13313 -172.587274 
L 224.883612 -172.237049 
L 224.479219 -172.007741 
L 224.064072 -171.880288 
L 223.793043 -171.682027 
L 223.821007 -171.235394 
L 224.236154 -170.29093 
L 224.791118 -169.41564 
L 225.939764 -168.296881 
L 226.260266 -167.88184 
L 226.486124 -167.305575 
L 226.752851 -165.381244 
L 227.142186 -164.02773 
L 227.727264 -162.741211 
L 228.269322 -162.089237 
L 230.265471 -160.790735 
L 230.758055 -160.286368 
L 231.132333 -159.661083 
L 231.396909 -158.972071 
L 231.566839 -158.279246 
L 231.964779 -157.300468 
L 232.543404 -156.72148 
L 233.304866 -156.413739 
L 234.253467 -156.246524 
L 235.031062 -155.89521 
L 235.429001 -155.218181 
L 236.031287 -151.857545 
L 236.313071 -151.025829 
L 236.768013 -150.520372 
L 237.330505 -150.376578 
L 237.502587 -150.292698 
L 237.702632 -150.084088 
L 237.900526 -149.625473 
L 238.039267 -149.397255 
L 238.239312 -149.214245 
L 238.658762 -148.935372 
L 238.849127 -148.746915 
L 239.321277 -147.792102 
L 239.448187 -147.41301 
L 239.500887 -146.706024 
L 239.59123 -146.310591 
L 239.855806 -145.981063 
L 240.942072 -145.327455 
L 242.544584 -144.359025 
L 242.931768 -144.321988 
L 243.43941 -144.517525 
L 243.772818 -144.539312 
L 244.069659 -144.376455 
L 245.671096 -142.906381 
L 247.526353 -141.210268 
L 250.176413 -138.781569 
L 251.630504 -137.449842 
L 252.443591 -136.96944 
L 254.112785 -136.414963 
L 255.947607 -135.804928 
L 257.782429 -135.195983 
L 259.617252 -134.585949 
L 261.452074 -133.976459 
L 263.284746 -133.366425 
L 265.121719 -132.75748 
L 266.954391 -132.147446 
L 268.789213 -131.537411 
L 270.621884 -130.927922 
L 272.458858 -130.318977 
L 274.290454 -129.710032 
L 276.126352 -129.098363 
L 277.960099 -128.489963 
L 279.795997 -127.881563 
L 281.628668 -127.271529 
L 283.465641 -126.661494 
L 285.214423 -126.06889 
L 286.961053 -125.476285 
L 288.709835 -124.884225 
L 290.454314 -124.29162 
L 292.200945 -123.699015 
L 293.947575 -123.10641 
L 295.69313 -122.512716 
L 297.440836 -121.920656 
L 299.187467 -121.328596 
L 300.936248 -120.736536 
L 302.681803 -120.143931 
L 304.429509 -119.551327 
L 306.178291 -118.958722 
L 307.92277 -118.365028 
L 309.671552 -117.773512 
L 311.416031 -117.179818 
L 312.730306 -116.734275 
L 313.952087 -116.122062 
L 315.801967 -116.120973 
L 318.767152 -116.120973 
L 322.003365 -116.120973 
L 325.281524 -116.120973 
L 327.993964 -116.120973 
L 331.798047 -116.120973 
L 334.763232 -116.122062 
L 333.752252 -115.134024 
L 332.736969 -114.145987 
L 331.724913 -113.157949 
L 330.715007 -112.171001 
L 329.702951 -111.181874 
L 328.693046 -110.194925 
L 327.682065 -109.206888 
L 326.668934 -108.21885 
L 325.657953 -107.231901 
L 325.46464 -107.042767 
L 324.646972 -106.242774 
L 323.635992 -105.254737 
L 322.625011 -104.266699 
L 321.61403 -103.278661 
L 320.603049 -102.289534 
L 319.589918 -101.301496 
L 318.576786 -100.314548 
L 317.565805 -99.32651 
L 316.554825 -98.339562 
L 315.541693 -97.350435 
L 314.530712 -96.362397 
L 313.521882 -95.37327 
L 312.510902 -94.386322 
L 311.499921 -93.398284 
L 310.486789 -92.409157 
L 309.474733 -91.422753 
L 308.464828 -90.434171 
L 307.453847 -89.446133 
L 306.442867 -88.458095 
L 306.019115 -88.044688 
L 305.085571 -87.134539 
L 304.153103 -86.224934 
L 303.729351 -85.810438 
L 303.290567 -85.381408 
L 302.394642 -84.5054 
L 301.125538 -83.188379 
L 299.858586 -81.87027 
L 298.587331 -80.552704 
L 297.316077 -79.235139 
L 296.044822 -77.917574 
L 294.775719 -76.600009 
L 293.50554 -75.281899 
L 292.239663 -73.964334 
L 290.006902 -71.49424 
L 287.77414 -69.024145 
L 285.541378 -66.551872 
L 283.550294 -64.349145 
L 283.308617 -64.081778 
L 281.075855 -61.611684 
L 278.844169 -59.1405 
L 276.610332 -56.669316 
L 274.37757 -54.199222 
L 273.194508 -52.888193 
L 273.18913 -52.888193 
L 271.542522 -51.088047 
L 270.940236 -50.83314 
L 269.812024 -50.89959 
L 268.733286 -50.962772 
L 267.655624 -51.026499 
L 266.575811 -51.089681 
L 265.498148 -51.151774 
L 264.418335 -51.214956 
L 264.368121 -51.217875 
L 263.340672 -51.277593 
L 262.260859 -51.340776 
L 261.182121 -51.403413 
L 260.105534 -51.46714 
L 259.025721 -51.529777 
L 257.948058 -51.594049 
L 256.868245 -51.657231 
L 255.790582 -51.719324 
L 254.710769 -51.783595 
L 253.633107 -51.846233 
L 252.553293 -51.909415 
L 251.301398 -51.98349 
L 250.537785 -51.798846 
L 248.724473 -51.148506 
L 248.100676 -51.003623 
L 246.046449 -50.525399 
L 244.465448 -50.157745 
L 242.133739 -49.614161 
L 240.694705 -48.924059 
L 238.356543 -47.803121 
L 235.979663 -46.661486 
L 233.616764 -45.527475 
L 231.872285 -44.07701 
L 230.310642 -42.780142 
L 230.147164 -42.573711 
L 230.009499 -42.347672 
L 229.729866 -41.638507 
L 229.35989 -40.16462 
L 229.045841 -39.485957 
L 228.433136 -38.791715 
L 228.406987 -38.762086 
L 227.630468 -38.246825 
L 226.759304 -37.894421 
L 225.2794 -37.638969 
L 222.149662 -37.098653 
L 218.959695 -36.547444 
L 216.50968 -36.126411 
L 214.939434 -36.110071 
L 213.139027 -36.091552 
L 212.463606 -35.91889 
L 211.745165 -35.553414 
L 210.568555 -34.603504 
L 209.099407 -33.691176 
L 208.729431 -33.361104 
L 208.587463 -32.950964 
L 208.604671 -32.304982 
L 208.494969 -32.041904 
L 208.208883 -31.808784 
L 207.92925 -31.393743 
L 206.907514 -30.808219 
L 205.980424 -30.991774 
L 205.064088 -31.48198 
L 204.074617 -31.808784 
L 203.192698 -31.298425 
L 202.891555 -31.229796 
L 202.594714 -31.285353 
L 202.044052 -31.516839 
L 201.712794 -31.539715 
L 200.045752 -31.12304 
L 199.49509 -31.092539 
L 198.449693 -30.796236 
L 196.115833 -30.660068 
L 193.990623 -30.537516 
L 192.902205 -30.665514 
L 191.893376 -31.080011 
L 190.968436 -31.808784 
L 189.632651 -33.70098 
L 189.088442 -34.208616 
L 188.752882 -34.411234 
L 187.75911 -34.754378 
L 187.38053 -34.949916 
L 187.165428 -35.163428 
L 186.816962 -35.815402 
L 186.305018 -36.405828 
L 185.050972 -37.266957 
L 184.592804 -37.88026 
L 183.28068 -37.007148 
L 181.549107 -36.334476 
L 179.350762 -35.479884 
L 176.661983 -34.432476 
L 176.543677 -34.320818 
L 176.421069 -33.980397 
L 176.309216 -33.873641 
L 174.667985 -33.295743 
L 172.559983 -32.551719 
L 172.501905 -32.548451 
L 172.439526 -32.56588 
L 172.377146 -32.601829 
L 172.177101 -32.621437 
L 172.157742 -32.537557 
L 172.172799 -32.406291 
L 172.078154 -32.28265 
L 171.136006 -31.808784 
L 169.118346 -30.82238 
L 167.326545 -29.949269 
L 165.543347 -29.076157 
L 165.123897 -28.555449 
L 164.715203 -27.45303 
L 164.134427 -25.899077 
L 163.790263 -25.249281 
L 163.392324 -24.718769 
L 161.755396 -23.204032 
L 160.389496 -21.943113 
L 159.85174 -21.289505 
L 159.397875 -19.885881 
L 159.047258 -19.331404 
L 158.382592 -19.296 
L 158.051334 -19.518771 
L 157.89431 -19.800368 
L 157.784608 -20.085777 
L 157.603922 -20.322165 
L 156.962917 -20.540579 
L 154.364481 -20.619012 
L 154.555922 -21.007909 
L 154.459126 -21.226323 
L 154.185946 -21.242663 
L 154.052533 -21.164894 
L 153.245949 -20.694722 
L 152.452222 -20.674024 
L 151.641286 -20.848864 
L 149.767337 -21.720236 
L 149.498868 -21.845072 
L 149.298823 -21.894093 
L 148.102854 -21.638641 
L 147.780201 -21.634283 
L 147.468302 -21.751388 
L 147.119837 -21.799319 
L 146.246521 -21.628837 
L 145.704464 -21.620122 
L 144.153576 -22.044967 
L 142.099349 -22.60707 
L 141.718618 -22.818403 
L 141.393814 -23.152833 
L 140.830246 -23.904482 
L 140.83885 -23.765046 
L 140.810887 -23.469288 
L 140.815189 -23.32495 
L 139.599861 -23.413732 
L 139.490159 -23.486718 
L 139.468649 -23.60001 
L 139.42993 -23.670273 
L 139.13524 -23.553713 
L 139.021236 -23.537917 
L 138.750207 -23.568419 
L 138.459819 -23.642494 
L 138.37808 -23.766135 
L 138.337211 -23.932805 
L 138.169431 -24.13379 
L 137.775794 -24.464407 
L 137.666092 -24.512883 
L 137.466046 -24.430637 
L 137.423026 -24.255252 
L 137.440234 -24.06734 
L 137.414422 -23.946422 
L 136.353968 -23.476914 
L 135.188113 -23.376149 
L 132.963956 -23.629422 
L 130.754855 -23.882696 
L 130.103096 -23.830407 
L 129.447034 -23.665371 
L 129.193213 -23.7084 
L 128.713535 -24.130522 
L 128.091889 -24.323881 
L 127.825162 -24.473122 
L 127.50466 -24.857661 
L 126.975508 -25.716611 
L 126.588324 -26.107142 
L 125.94732 -26.524362 
L 123.871583 -27.875697 
L 121.890491 -29.165484 
L 119.741619 -30.564205 
L 117.833662 -31.808239 
L 116.14726 -32.906301 
L 113.772531 -34.449906 
L 111.744116 -35.771284 
L 109.715702 -37.092117 
L 108.588566 -37.824703 
L 108.465957 -37.857383 
L 108.341198 -37.854115 
L 108.233647 -37.87917 
L 108.166965 -37.992462 
L 108.059414 -38.460882 
L 107.977675 -38.665134 
L 107.84001 -38.853046 
L 107.685136 -38.903156 
L 107.267838 -38.871565 
L 107.115115 -38.973964 
L 106.78816 -39.53171 
L 106.585964 -39.685852 
L 105.73631 -39.883024 
L 104.256406 -40.638486 
L 103.015266 -40.985443 
L 99.003608 -40.950584 
L 98.952062 -40.963153 
L 98.829375 -40.993069 
L 98.521779 -41.179892 
L 98.341093 -41.220197 
L 95.084445 -41.152658 
L 91.216906 -41.074225 
L 90.948028 -41.111263 
L 90.569448 -41.296452 
L 90.365101 -41.352553 
L 90.145697 -41.351464 
L 89.429406 -41.252878 
L 86.391104 -41.227427 
L 86.308272 -41.226734 
L 85.830745 -41.34166 
L 85.387634 -41.63306 
L 84.581001 -42.347672 
L 84.208874 -42.583515 
L 84.069057 -42.881452 
L 84.07551 -43.240391 
L 84.13789 -43.663058 
L 84.11638 -44.069384 
L 83.841049 -44.565582 
L 83.800179 -44.929424 
L 80.96298 -47.982864 
L 80.453188 -48.858699 
L 80.278955 -49.883774 
L 80.367147 -54.291272 
L 80.472547 -54.563064 
L 81.268426 -55.581059 
L 81.438356 -56.003725 
L 81.434054 -56.43783 
L 81.249066 -56.943832 
L 80.83607 -57.742323 
L 80.771539 -58.151918 
L 80.911356 -58.642668 
L 81.474924 -59.470027 
L 81.371675 -59.65794 
L 80.231633 -60.103483 
L 78.863582 -60.955897 
L 78.336582 -61.099691 
L 77.951548 -61.008185 
L 77.579422 -60.833345 
L 77.084686 -60.727134 
L 76.579196 -60.866026 
L 75.682219 -61.598612 
L 75.208994 -61.879663 
L 74.836867 -61.97716 
L 74.402361 -62.03435 
L 73.963552 -62.03435 
L 73.589274 -61.95973 
L 73.131106 -61.6509 
L 72.283603 -60.712428 
L 71.814681 -60.381811 
L 71.311341 -60.305012 
L 70.928459 -60.487478 
L 70.618712 -60.839881 
L 69.934687 -61.932496 
L 69.852948 -62.126945 
L 69.876609 -62.384575 
L 70.02503 -62.611704 
L 70.205715 -62.831208 
L 70.330475 -63.069775 
L 70.240132 -63.320869 
L 70.087409 -63.744625 
L 69.285078 -64.400412 
L 67.618035 -65.384092 
L 66.688793 -66.075828 
L 66.47154 -66.482154 
L 66.290854 -67.705491 
L 65.994013 -68.267594 
L 64.309762 -70.682676 
L 64.103264 -71.148372 
L 64.066696 -71.425611 
L 64.105415 -71.657097 
L 64.172097 -71.897843 
L 64.217268 -72.196868 
L 64.152737 -72.432712 
L 63.810725 -72.805269 
L 63.705325 -73.034031 
L 63.713929 -73.279679 
L 63.787064 -73.517702 
L 64.006468 -73.964334 
L 63.968624 -74.205532 
L 63.791366 -75.335277 
L 63.625737 -75.745416 
L 63.270818 -76.192048 
L 62.877181 -76.557524 
L 62.530866 -76.957315 
L 62.137229 -77.989471 
L 61.40373 -79.276534 
L 61.300481 -79.698112 
L 61.285424 -80.939967 
L 61.152061 -81.486819 
L 60.321766 -82.923123 
L 60.145382 -83.347969 
L 59.975451 -84.562591 
L 59.512981 -85.763596 
L 59.297879 -86.61492 
L 59.08923 -87.47496 
L 58.945111 -87.566465 
L 58.693442 -87.855687 
L 58.592344 -88.242405 
L 58.465433 -88.472257 
L 57.05006 -89.4189 
L 56.695141 -89.560515 
L 56.241276 -89.616616 
L 55.352903 -89.617705 
L 54.985078 -89.698317 
L 54.744164 -89.904748 
L 54.602196 -90.768056 
L 54.576384 -90.857382 
L 54.481739 -91.072528 
L 54.460229 -91.199982 
L 54.5054 -91.220679 
L 54.698992 -91.357392 
L 54.744164 -91.416217 
L 54.71405 -91.829624 
L 54.625858 -92.197824 
L 54.486041 -92.518092 
L 54.305355 -92.795875 
L 52.963117 -93.741428 
L 50.016216 -94.451683 
L 49.951685 -94.529026 
L 49.809718 -94.593298 
L 49.665599 -94.694607 
L 49.560199 -95.059538 
L 49.459101 -95.185902 
L 48.607296 -95.817724 
L 48.400798 -96.086792 
L 48.271736 -96.209889 
L 48.11041 -96.263267 
L 47.949083 -96.471332 
L 47.897458 -96.947377 
L 47.897458 -97.174642 
L 47.897458 -97.834105 
L 47.79636 -98.266576 
L 47.598466 -98.639132 
L 47.314531 -98.811249 
L 46.968217 -98.644579 
L 46.578881 -98.558521 
L 46.178791 -98.857002 
L 45.610921 -99.572703 
L 44.655867 -100.326531 
L 44.522504 -100.389713 
L 44.470879 -100.497558 
L 44.460124 -102.464919 
L 44.316005 -103.176263 
L 43.958936 -103.755795 
L 41.375557 -106.414891 
L 40.753912 -106.78309 
L 40.536658 -106.8332 
L 40.106454 -106.885489 
L 39.899956 -106.939956 
L 38.850257 -107.723197 
L 38.192044 -108.650231 
L 37.913486 -108.967231 
L 37.715592 -109.066362 
L 37.05953 -109.255908 
L 36.49166 -109.630644 
L 36.272256 -109.68729 
L 34.921413 -109.558747 
L 34.475076 -109.68729 
L 34.256747 -109.847424 
L 33.96851 -110.230874 
L 33.766314 -110.42042 
L 33.558741 -110.522819 
L 33.176934 -110.632843 
L 32.990871 -110.779905 
L 32.632725 -110.913894 
L 32.09497 -110.894286 
L 31.195842 -110.708008 
L 31.010854 -110.617592 
L 30.498911 -110.276626 
L 30.23541 -110.27009 
L 29.079236 -110.567482 
L 28.702807 -110.907358 
L 28.375851 -111.291898 
L 28.055349 -111.57186 
L 27.878965 -111.624148 
L 27.203544 -111.728726 
L 26.609862 -111.970561 
L 26.434553 -112.002152 
L 25.760208 -111.850733 
L 25.652656 -111.800623 
L 25.525746 -111.626327 
L 25.248264 -111.666633 
L 24.787945 -111.87252 
L 24.224377 -111.935702 
L 24.078108 -112.002152 
L 24.002822 -112.131784 
L 23.939367 -112.324599 
L 23.858703 -112.502162 
L 23.499483 -112.717853 
L 23.323099 -113.045746 
L 22.798249 -114.449915 
L 22.876761 -114.679767 
L 23.152092 -114.981516 
L 23.168066 -115.015155 
L 23.260719 -115.210279 
L 23.359666 -115.315945 
L 23.460764 -115.461918 
L 23.553258 -115.905282 
L 23.658658 -116.116615 
L 23.923234 -116.478279 
L 25.104146 -117.691811 
L 25.228905 -117.891162 
L 25.327852 -118.105218 
L 25.370872 -118.283327 
L 25.456913 -118.390083 
L 26.08071 -118.493571 
L 26.439931 -118.661875 
L 26.700204 -118.873753 
L 26.863682 -119.168421 
L 26.919609 -119.586186 
L 26.855078 -119.698933 
L 26.571143 -119.90373 
L 26.506612 -120.017567 
L 26.513065 -120.313325 
L 26.547482 -120.526292 
L 26.631372 -120.718017 
L 26.790547 -120.952771 
L 26.975535 -121.093842 
L 27.170203 -121.159203 
L 27.316473 -121.269227 
L 27.345511 -121.542108 
L 27.065878 -121.659213 
L 26.876588 -121.770326 
L 26.723866 -122.005625 
L 26.577596 -122.162491 
L 26.431327 -122.366199 
L 26.364645 -122.615115 
L 26.405514 -122.772526 
L 26.5862 -123.169593 
L 26.633523 -123.426134 
L 26.596955 -123.49912 
L 26.409816 -123.634744 
L 26.364645 -123.701194 
L 26.379702 -123.815031 
L 26.482951 -123.957735 
L 26.506612 -124.053598 
L 26.504461 -124.409814 
L 26.538878 -124.572127 
L 26.633523 -124.720823 
L 26.919609 -124.85917 
L 27.233658 -124.923986 
L 27.388532 -125.064512 
L 27.326152 -125.187063 
L 27.306793 -125.270943 
L 27.904777 -125.799276 
L 28.270451 -125.852654 
L 30.531176 -125.349376 
L 30.72907 -125.414737 
L 31.015156 -125.638597 
L 31.171105 -125.719754 
L 31.338885 -125.736094 
L 31.608838 -125.674546 
L 33.011305 -125.841761 
L 33.207048 -125.952874 
L 33.215652 -126.028584 
L 33.099497 -126.186539 
L 33.523249 -126.205058 
L 33.873865 -126.003529 
L 34.187915 -125.748077 
L 34.501964 -125.613542 
L 34.897752 -125.683261 
L 35.193518 -125.851565 
L 35.500039 -125.974661 
L 35.922715 -125.906032 
L 36.573399 -125.353733 
L 36.982093 -124.632586 
L 37.486508 -124.054687 
L 38.432958 -123.93268 
L 38.658816 -123.968629 
L 38.749158 -123.996952 
L 39.611719 -124.744788 
L 39.828972 -124.892395 
L 40.16238 -125.037278 
L 40.510846 -125.132051 
L 41.224986 -125.215386 
L 42.401595 -125.219744 
L 42.788779 -125.3265 
L 43.214682 -125.583041 
L 45.27106 -127.443101 
L 45.701264 -127.925681 
L 45.970142 -128.406628 
L 46.0551 -128.874786 
L 46.150828 -129.402291 
L 45.85161 -135.500386 
L 45.552392 -141.59848 
L 45.294348 -146.857445 
" style="stroke: #000000"/>
    </defs>
    <g clip-path="url(#p39e1f3ecc5)">
     <use xlink:href="#mb680848a90" x="0" y="280.512" style="fill: #f5f5f5; stroke: #000000"/>
    </g>
   </g>
  </g>
 </g>
 <defs>
  <clipPath id="p39e1f3ecc5">
   <rect x="7.2" y="7.2" width="343.161482" height="266.112"/>
  </clipPath>
 </defs>
</svg>
