<?xml version="1.0" encoding="utf-8" standalone="no"?>
<!DOCTYPE svg PUBLIC "-//W3C//DTD SVG 1.1//EN"
  "http://www.w3.org/Graphics/SVG/1.1/DTD/svg11.dtd">
<svg xmlns:xlink="http://www.w3.org/1999/xlink" width="134.594111pt" height="280.512pt" viewBox="0 0 134.594111 280.512" xmlns="http://www.w3.org/2000/svg" version="1.1">
 <metadata>
  <rdf:RDF xmlns:dc="http://purl.org/dc/elements/1.1/" xmlns:cc="http://creativecommons.org/ns#" xmlns:rdf="http://www.w3.org/1999/02/22-rdf-syntax-ns#">
   <cc:Work>
    <dc:type rdf:resource="http://purl.org/dc/dcmitype/StillImage"/>
    <dc:date>2024-03-04T13:11:10.507462</dc:date>
    <dc:format>image/svg+xml</dc:format>
    <dc:creator>
     <cc:Agent>
      <dc:title>Matplotlib v3.8.0, https://matplotlib.org/</dc:title>
     </cc:Agent>
    </dc:creator>
   </cc:Work>
  </rdf:RDF>
 </metadata>
 <defs>
  <style type="text/css">*{stroke-linejoin: round; stroke-linecap: butt}</style>
 </defs>
 <g id="figure_1">
  <g id="patch_1">
   <path d="M 0 280.512 
L 134.594111 280.512 
L 134.594111 0 
L 0 0 
z
" style="fill: #ffffff"/>
  </g>
  <g id="axes_1">
   <g id="PatchCollection_1">
    <path d="M 95.823152 43.998073 
L 94.619186 45.006569 
L 93.419347 45.39389 
L 90.853569 46.99433 
L 90.394473 47.032088 
L 90.42336 47.46691 
L 90.559541 47.691021 
L 90.733894 47.803076 
L 92.744631 47.665443 
L 93.56894 47.821346 
L 94.299882 48.518037 
L 93.758768 50.293867 
L 93.450297 51.052676 
L 90.890709 55.425263 
L 90.770519 55.724888 
L 90.765876 56.074452 
L 90.901026 56.635946 
L 91.100139 57.307059 
L 92.925174 63.401885 
L 93.190315 63.892735 
L 93.558623 64.139987 
L 96.410691 65.21121 
L 99.262759 66.282433 
L 99.584126 66.4968 
L 99.876606 66.873159 
L 100.699884 68.418789 
L 101.081604 69.142276 
L 102.781806 72.368734 
L 103.407001 73.100746 
L 106.357594 75.614679 
L 106.14249 75.930139 
L 106.04087 76.171301 
L 105.998571 76.475799 
L 105.910879 77.998287 
L 105.863421 78.307657 
L 105.599312 79.373399 
L 105.427538 79.80335 
L 101.470546 84.752047 
L 101.357061 84.989555 
L 101.242545 85.409762 
L 101.179613 85.581498 
L 101.081604 85.727657 
L 100.567829 86.293414 
L 97.28091 91.985694 
L 97.278846 91.988739 
L 96.796022 93.952749 
L 97.171552 95.608608 
L 99.497981 99.320435 
L 99.900037 100.581703 
L 99.914778 100.627948 
L 100.198489 101.082868 
L 100.228408 101.291144 
L 100.238724 101.522563 
L 100.287729 101.767988 
L 100.368716 101.950686 
L 101.516971 103.771583 
L 101.613948 104.176565 
L 101.733708 105.167951 
L 101.788302 105.619884 
L 101.968329 106.435938 
L 102.203035 107.195964 
L 102.778711 108.563768 
L 104.191075 111.086227 
L 105.019511 112.200688 
L 105.267113 112.802376 
L 105.470353 113.731703 
L 105.753032 115.555035 
L 105.848978 115.964889 
L 106.243078 116.963033 
L 106.360689 117.336347 
L 106.655749 118.522061 
L 107.01374 119.525685 
L 107.097306 119.954418 
L 107.378953 122.137058 
L 107.424347 122.721693 
L 107.400619 123.23325 
L 107.246899 123.448225 
L 106.909541 123.323381 
L 106.29363 122.935451 
L 103.910459 123.643713 
L 103.297644 124.084625 
L 103.591671 124.571822 
L 104.334478 125.133924 
L 104.652234 125.604678 
L 104.524306 125.909176 
L 103.722694 126.865298 
L 103.583771 127.206621 
L 103.531834 127.334225 
L 103.531834 127.340315 
L 103.450332 128.214223 
L 103.574133 130.30734 
L 103.469933 131.16237 
L 102.421751 132.569149 
L 102.072013 133.370587 
L 102.537298 133.846213 
L 103.936251 133.795666 
L 104.598587 134.086766 
L 104.659456 134.985034 
L 104.56351 135.180522 
L 104.44693 135.331553 
L 104.358206 135.495982 
L 104.348921 135.729836 
L 104.470143 135.936894 
L 104.647076 135.977088 
L 104.768297 136.055039 
L 104.722388 136.372935 
L 104.471691 136.711536 
L 102.947905 137.081806 
L 102.543488 137.452075 
L 102.254619 138.108572 
L 102.152483 139.120722 
L 102.606421 141.107265 
L 103.25225 142.710141 
L 104.070369 143.736908 
L 105.044271 143.99025 
L 106.887876 144.006084 
L 107.280944 144.210706 
L 107.450139 144.388533 
L 107.465614 144.538346 
L 107.410935 144.708864 
L 107.372763 144.942719 
L 107.35213 145.243562 
L 107.329949 145.386067 
L 107.353161 145.516392 
L 107.466646 145.779478 
L 107.574972 145.960959 
L 107.965977 146.42136 
L 108.138267 146.876888 
L 108.068629 147.338507 
L 107.864873 147.731918 
L 107.625524 147.984042 
L 105.922227 148.850033 
L 105.852073 148.938947 
L 105.812869 149.077798 
L 105.853105 149.148441 
L 105.916037 149.184981 
L 105.949051 149.222738 
L 105.964526 149.633201 
L 106.000119 149.850004 
L 106.07182 150.072896 
L 106.05325 150.13745 
L 106.046028 150.205657 
L 106.053766 150.271429 
L 106.07182 150.3372 
L 106.179114 150.39201 
L 106.197684 150.450473 
L 106.168798 150.605158 
L 106.620672 150.904784 
L 106.966283 151.366402 
L 106.890455 151.91937 
L 106.673287 152.51984 
L 106.587658 153.132489 
L 106.792446 153.577056 
L 107.193252 153.974121 
L 107.905108 154.429649 
L 109.469129 155.000887 
L 109.961754 155.397952 
L 110.249076 155.815723 
L 110.471918 156.250546 
L 110.715393 156.578185 
L 111.289005 156.742614 
L 111.616046 156.95698 
L 111.838372 157.310198 
L 111.756354 157.801048 
L 111.578906 158.265103 
L 111.582001 158.657296 
L 111.701675 159.038527 
L 111.874997 159.485529 
L 112.117441 160.492808 
L 112.058119 161.284502 
L 111.776988 161.976321 
L 111.347811 162.688845 
L 111.347811 162.691281 
L 109.543409 164.939692 
L 108.914603 166.479233 
L 108.27548 167.375674 
L 106.775423 168.056531 
L 106.247987 168.449135 
L 106.07182 168.580267 
L 106.27506 169.197788 
L 108.684023 172.345077 
L 110.061311 173.508258 
L 110.669999 174.471689 
L 110.866018 174.912602 
L 111.141475 175.165944 
L 114.458313 177.203642 
L 115.99551 179.242559 
L 118.02069 180.749214 
L 118.281704 181.045186 
L 118.498356 181.437379 
L 118.572121 181.916049 
L 118.583985 182.35209 
L 118.648981 182.858774 
L 118.749569 183.336226 
L 118.868728 183.687008 
L 119.125615 184.060931 
L 119.754937 184.591975 
L 120.042259 184.92814 
L 120.682414 186.012152 
L 120.917636 186.256968 
L 121.043501 186.379985 
L 121.291103 186.8075 
L 121.429347 187.397008 
L 121.594416 187.954848 
L 121.930742 188.275179 
L 121.043501 190.156975 
L 120.650432 191.038191 
L 120.344024 192.032072 
L 119.872548 194.27013 
L 119.709544 194.794475 
L 119.267986 195.57947 
L 119.081253 196.122694 
L 118.841904 197.257253 
L 118.678899 197.763937 
L 118.463279 198.037985 
L 118.461216 198.037985 
L 118.457605 198.04103 
L 117.928871 198.408254 
L 117.772572 198.612268 
L 117.659604 198.867437 
L 117.476997 199.378993 
L 116.052253 201.170657 
L 115.917103 201.420955 
L 115.665374 202.212649 
L 115.503401 202.506793 
L 115.322858 202.724205 
L 114.187498 203.664494 
L 113.289425 204.668727 
L 112.906673 204.917806 
L 112.729225 205.084062 
L 112.602328 205.290511 
L 112.324808 206.062109 
L 111.062036 208.032209 
L 109.656894 209.821437 
L 109.65483 209.823873 
L 109.653283 209.823873 
L 107.717509 213.151896 
L 106.04087 216.034409 
L 104.688858 217.637285 
L 104.485618 218.004509 
L 104.247817 218.827871 
L 104.05902 219.217628 
L 102.62138 221.150579 
L 102.313425 221.431326 
L 101.669143 221.766883 
L 101.44269 222.000128 
L 101.263179 222.372833 
L 101.081604 222.949552 
L 100.90725 223.443447 
L 99.459809 225.220496 
L 99.168877 225.744232 
L 99.047177 226.017826 
L 98.899609 226.349573 
L 98.309491 227.401308 
L 97.580096 228.166816 
L 96.090356 229.234994 
L 95.546663 229.71001 
L 94.838933 230.541289 
L 94.261194 230.914603 
L 94.098705 231.147239 
L 93.787655 231.750754 
L 93.176903 232.551583 
L 92.994296 232.902973 
L 92.826133 233.388343 
L 92.825102 233.391387 
L 92.434096 234.094168 
L 91.554077 234.370043 
L 91.100139 234.765281 
L 89.652698 236.511271 
L 88.734507 238.109275 
L 87.778143 238.907668 
L 86.337232 241.111144 
L 86.109923 241.45875 
L 85.230935 242.524492 
L 84.381647 243.731597 
L 84.215116 243.515812 
L 84.079455 243.24536 
L 83.924297 243.092872 
L 83.699278 243.233852 
L 83.735834 243.309616 
L 83.799196 243.493754 
L 83.835752 243.570477 
L 83.665972 243.672136 
L 83.638353 243.938752 
L 83.709839 244.260992 
L 83.835752 244.53528 
L 83.685468 244.667628 
L 83.631041 244.6964 
L 83.768327 244.828748 
L 83.835752 244.844093 
L 83.488881 245.253606 
L 83.358906 245.325535 
L 82.670852 245.164415 
L 82.763459 244.8978 
L 83.071337 244.718458 
L 83.22162 244.53528 
L 82.82276 244.448006 
L 82.627798 244.471023 
L 82.466141 244.6964 
L 82.388969 244.983155 
L 82.414964 245.167292 
L 82.499447 245.357184 
L 82.602615 245.662161 
L 82.231374 245.515427 
L 81.393036 244.655161 
L 81.035605 244.844093 
L 81.131461 244.880537 
L 81.172079 244.936162 
L 81.240315 245.164415 
L 81.17939 245.230589 
L 81.091657 245.413767 
L 81.035605 245.501041 
L 81.144459 245.584478 
L 81.238691 245.684219 
L 81.315863 245.812731 
L 81.375164 245.984401 
L 80.877198 245.837667 
L 80.003929 245.032066 
L 79.563639 244.844093 
L 78.800849 244.796141 
L 78.637568 244.6964 
L 78.621321 244.361692 
L 78.878834 244.287845 
L 79.393047 244.37416 
L 79.161529 244.120971 
L 78.432857 243.570477 
L 78.590452 243.106298 
L 78.459664 242.979704 
L 78.231396 243.102462 
L 78.091673 243.394972 
L 78.152599 243.751737 
L 78.284198 244.108503 
L 78.320754 244.433621 
L 78.091673 244.6964 
L 78.072177 244.389504 
L 78.011251 244.307026 
L 77.813852 244.37416 
L 77.692 244.297436 
L 77.555526 243.956015 
L 77.440986 243.878332 
L 77.371937 243.954097 
L 77.272831 244.2936 
L 77.19972 244.37416 
L 77.105488 244.307026 
L 76.944644 243.9704 
L 76.860161 243.878332 
L 76.768366 243.902308 
L 76.650576 243.996295 
L 76.561218 244.13152 
L 76.556344 244.286886 
L 76.588026 244.512262 
L 76.524663 244.643652 
L 76.434493 244.758738 
L 76.299644 245.264156 
L 76.08681 245.369651 
L 75.63271 245.325535 
L 75.873976 245.705318 
L 75.971457 245.960425 
L 75.942213 246.226081 
L 75.864228 246.174292 
L 75.562036 245.759984 
L 75.46618 245.581601 
L 74.551481 245.977688 
L 74.257413 245.984401 
L 74.331336 245.837667 
L 74.385763 245.676547 
L 74.46781 245.325535 
L 74.291531 245.314026 
L 74.086821 245.385955 
L 73.890234 245.532689 
L 73.746449 245.736008 
L 73.712331 245.903841 
L 73.731827 246.309518 
L 73.712331 246.467761 
L 73.641657 246.562707 
L 73.428823 246.729581 
L 73.337028 246.869602 
L 73.196493 246.910841 
L 73.016153 246.669161 
L 72.832563 246.346921 
L 72.683092 246.145521 
L 72.494628 246.090855 
L 72.268797 246.1062 
L 72.09658 246.223204 
L 72.069773 246.467761 
L 71.859376 246.560789 
L 71.599426 246.39871 
L 71.345975 246.087978 
L 71.15345 245.736008 
L 71.075465 245.282378 
L 71.241183 245.026312 
L 71.498695 244.845052 
L 71.692033 244.61584 
L 71.961731 243.959851 
L 72.001536 243.804485 
L 71.969854 243.271254 
L 71.999099 243.073691 
L 72.123387 242.828174 
L 72.574238 242.398521 
L 72.990158 242.473327 
L 73.853678 243.233852 
L 73.640032 242.321797 
L 73.315095 241.677317 
L 72.915422 241.403988 
L 72.479194 241.610183 
L 72.242802 241.951604 
L 71.858563 242.818584 
L 70.985294 244.790386 
L 70.889438 245.581601 
L 71.183506 246.306641 
L 71.021038 246.691219 
L 70.934117 246.846585 
L 70.842322 246.950162 
L 70.561251 246.953998 
L 70.49139 247.057576 
L 70.569375 247.433522 
L 70.456459 247.38557 
L 70.354104 247.276239 
L 70.161578 246.950162 
L 70.173764 247.22445 
L 70.140458 247.368307 
L 70.068971 247.422973 
L 69.956868 247.433522 
L 69.84314 247.508328 
L 69.81877 247.673284 
L 69.812271 247.840159 
L 69.74972 247.914964 
L 69.56938 247.739459 
L 69.432094 247.352962 
L 69.321616 246.963589 
L 69.232258 246.789042 
L 69.116905 246.651898 
L 68.956061 246.372815 
L 68.787094 246.139767 
L 68.648995 246.145521 
L 68.624625 246.433235 
L 68.760286 246.766984 
L 69.064915 247.287747 
L 68.121785 247.088265 
L 68.036489 247.111282 
L 67.839902 247.374061 
L 67.757042 247.433522 
L 67.677433 247.272402 
L 67.279385 246.789042 
L 66.956072 246.578052 
L 66.826097 246.455294 
L 66.471916 245.863561 
L 66.145354 245.552829 
L 65.799295 245.354307 
L 65.509289 245.325535 
L 65.509289 245.501041 
L 66.054371 245.808895 
L 66.1616 245.970015 
L 66.37281 246.384324 
L 66.624636 246.553116 
L 66.696122 246.755476 
L 66.727804 246.997156 
L 66.735115 247.198556 
L 66.659567 247.324191 
L 66.509283 247.299256 
L 66.403679 247.326109 
L 66.457293 247.608069 
L 66.56696 247.794124 
L 66.939825 248.09047 
L 67.129914 248.507656 
L 67.220084 248.660145 
L 67.347622 248.720565 
L 67.415046 248.849077 
L 67.397987 249.129119 
L 67.332187 249.411079 
L 67.246891 249.539592 
L 66.735115 249.700712 
L 66.72293 249.161727 
L 66.306197 248.401202 
L 66.393931 248.09047 
L 66.270454 248.097184 
L 66.184346 248.208433 
L 66.108798 248.335027 
L 66.016191 248.398325 
L 65.901651 248.375307 
L 65.813918 248.308174 
L 65.220907 247.594642 
L 65.009698 247.408587 
L 64.758684 247.287747 
L 65.11449 247.85934 
L 65.328136 248.11061 
L 65.509289 248.25159 
L 65.409371 248.730155 
L 65.18029 249.224065 
L 65.168105 249.539592 
L 65.261524 249.894439 
L 65.549094 250.513984 
L 65.638451 250.987754 
L 65.430492 250.964737 
L 65.285894 250.884177 
L 65.164043 250.734565 
L 65.025945 250.504394 
L 65.099868 250.343274 
L 64.94796 250.072822 
L 64.752997 249.98459 
L 64.541788 249.957737 
L 64.344389 249.861832 
L 64.043009 249.362168 
L 63.877291 249.206802 
L 63.730257 249.378472 
L 63.79362 249.794698 
L 64.148614 250.104471 
L 64.82692 250.504394 
L 64.144552 250.84102 
L 64.144552 250.987754 
L 63.959338 251.100922 
L 63.695326 250.938843 
L 62.89923 249.859914 
L 62.838304 249.700712 
L 62.850489 249.378472 
L 62.92685 249.159809 
L 63.047076 249.048559 
L 62.838304 248.89607 
L 62.838304 248.720565 
L 63.384199 248.720565 
L 63.242851 248.214187 
L 63.02758 248.171989 
L 62.801749 248.367635 
L 62.633594 248.57383 
L 62.369582 248.786739 
L 61.605167 249.057191 
L 61.605167 249.202007 
L 61.756263 249.310379 
L 61.809065 249.557814 
L 61.794443 249.877176 
L 61.747327 250.197498 
L 61.702648 250.268468 
L 61.631975 250.297239 
L 61.566175 250.370127 
L 61.51256 250.767173 
L 61.453259 250.892808 
L 61.372025 250.964737 
L 59.963422 250.987754 
L 59.981293 250.636742 
L 59.856192 250.46795 
L 59.485764 250.343274 
L 59.509322 250.452605 
L 59.542628 250.725934 
L 59.560499 250.84102 
L 59.253434 250.970491 
L 58.324925 250.987754 
L 58.271311 251.019403 
L 58.254251 251.108594 
L 58.259126 251.381923 
L 58.252627 251.398226 
L 58.207948 251.507558 
L 58.091783 251.453851 
L 57.913067 251.294649 
L 57.900882 251.492213 
L 58.262375 251.761706 
L 58.3891 251.952556 
L 58.296493 252.033116 
L 58.164081 252.040789 
L 58.320864 252.273837 
L 58.120215 252.446466 
L 57.521518 252.624849 
L 57.298936 252.610463 
L 57.325743 252.443589 
L 57.341178 252.370701 
L 57.367173 252.273837 
L 56.938255 252.587446 
L 56.831026 252.785969 
L 57.025989 252.932703 
L 56.962626 253.07656 
L 56.805031 253.070806 
L 56.645812 253.281797 
L 56.460598 253.199318 
L 56.332247 252.932703 
L 56.460598 252.762952 
L 56.567827 252.430162 
L 56.611693 252.065724 
L 56.543457 251.791436 
L 56.341183 251.750197 
L 56.199023 252.065724 
L 55.965881 253.194523 
L 55.863525 253.385374 
L 55.013002 253.464016 
L 54.808292 253.37866 
L 54.697813 253.093823 
L 55.064992 252.95572 
L 55.043871 252.529903 
L 54.780672 252.178891 
L 54.424866 252.273837 
L 54.629576 252.932703 
L 54.48173 253.03628 
L 54.216093 253.320159 
L 54.083681 253.416063 
L 53.567843 253.504296 
L 53.236407 253.643358 
L 53.155985 253.699941 
L 53.092623 253.810232 
L 53.070689 253.979983 
L 53.107245 254.279206 
L 53.061754 254.380866 
L 52.923655 254.38662 
L 52.855418 254.184261 
L 52.8213 253.916686 
L 52.782308 253.723918 
L 52.666142 253.554166 
L 52.052011 253.13698 
L 51.901727 253.090946 
L 51.851362 253.165752 
L 51.96509 253.416063 
L 52.127559 253.579101 
L 52.268907 253.650071 
L 52.32902 253.767075 
L 52.237225 254.060543 
L 52.108063 254.227418 
L 51.966715 254.302224 
L 51.841614 254.417309 
L 51.765254 254.703106 
L 52.441936 254.380866 
L 52.387509 254.603365 
L 52.303025 254.764485 
L 52.100752 255.024387 
L 52.305462 255.199892 
L 52.305462 255.346627 
L 51.63203 255.933564 
L 51.238855 256.629833 
L 51.043893 256.851373 
L 50.819686 256.949196 
L 50.52643 256.970295 
L 50.606852 256.647096 
L 50.892797 255.87698 
L 51.004088 255.668867 
L 50.82456 255.646809 
L 50.572734 255.930687 
L 50.112135 256.649973 
L 50.041461 256.247173 
L 49.86762 256.376644 
L 49.66291 256.687376 
L 49.492317 256.825479 
L 49.556493 256.433228 
L 49.671033 256.255804 
L 49.807507 256.134964 
L 49.941543 255.91726 
L 49.968351 255.750386 
L 49.961852 255.541313 
L 49.973225 255.295797 
L 50.043899 255.024387 
L 49.562179 254.979311 
L 49.324975 255.064667 
L 49.151946 255.346627 
L 49.288419 255.522133 
L 48.977292 255.78683 
L 48.891183 255.829987 
L 48.757147 255.838618 
L 48.407027 255.668867 
L 48.133267 255.634341 
L 47.952927 255.752304 
L 47.948053 255.953704 
L 48.197442 256.166613 
L 48.010603 256.308552 
L 47.845698 256.249091 
L 47.687291 256.107152 
L 47.516699 256.005493 
L 47.428966 256.014124 
L 47.051226 256.281698 
L 46.953745 256.285535 
L 46.83433 256.166613 
L 46.652366 256.546396 
L 46.467151 256.517624 
L 46.39729 256.272108 
L 46.563008 256.005493 
L 46.563008 255.829987 
L 46.379418 255.864513 
L 46.273814 256.022756 
L 46.190955 256.249091 
L 46.078851 256.488853 
L 45.925318 256.682581 
L 45.779097 256.782321 
L 45.104039 256.930015 
L 44.369681 257.789322 
L 44.087798 257.521747 
L 42.454176 257.789322 
L 42.323388 257.682867 
L 42.216972 257.395153 
L 42.113804 257.292535 
L 41.997639 257.294453 
L 41.334767 257.51887 
L 40.910724 257.773977 
L 40.675956 257.789322 
L 40.787247 257.430638 
L 41.216165 256.500361 
L 41.363199 256.312388 
L 41.650768 256.204975 
L 41.788054 256.080298 
L 41.806738 255.91726 
L 41.740938 255.70627 
L 41.723067 255.501033 
L 41.753124 255.280452 
L 41.840857 255.024387 
L 41.476115 255.176875 
L 41.363199 255.274698 
L 41.282777 255.458835 
L 41.237286 255.702434 
L 41.168236 255.915342 
L 41.019578 256.005493 
L 40.918847 256.107152 
L 40.874981 256.352668 
L 40.841674 256.646137 
L 40.778312 256.897407 
L 40.683268 257.033592 
L 40.461498 257.228279 
L 40.368891 257.373095 
L 40.032581 258.054019 
L 39.64753 258.580536 
L 38.756389 259.170351 
L 38.608543 259.448475 
L 38.606918 259.881964 
L 38.716585 260.255034 
L 38.897737 260.34998 
L 38.897737 260.5111 
L 37.193441 260.847726 
L 37.069153 260.990624 
L 36.457458 260.864029 
L 36.228377 260.921572 
L 36.038289 261.049126 
L 35.442029 261.216 
L 35.273062 261.169966 
L 35.450965 261.017477 
L 35.704416 260.47082 
L 35.85145 260.34998 
L 36.255185 260.255993 
L 37.661351 259.444639 
L 38.067522 259.385178 
L 37.997661 258.882636 
L 38.044777 258.707131 
L 38.15688 258.712885 
L 38.277919 258.756042 
L 38.609355 258.744534 
L 38.855495 258.594922 
L 39.073203 258.269805 
L 39.320968 257.74041 
L 39.474501 257.251296 
L 39.64753 256.546396 
L 39.711705 256.063036 
L 39.542738 256.238541 
L 38.882303 257.981131 
L 38.619103 258.419416 
L 38.421704 258.419416 
L 38.436326 258.341733 
L 38.458259 258.186368 
L 38.48263 258.097176 
L 38.382712 257.987845 
L 38.273858 257.940851 
L 38.166628 257.970582 
L 38.067522 258.097176 
L 38.098391 258.26501 
L 37.705217 258.111562 
L 37.596363 258.332143 
L 37.565494 258.563273 
L 37.494008 258.574782 
L 37.424147 258.424212 
L 37.393277 258.171023 
L 37.494008 257.467082 
L 37.500507 257.373095 
L 37.668662 257.164982 
L 38.421704 256.825479 
L 38.564676 256.569413 
L 38.798631 255.986312 
L 38.960288 255.829987 
L 38.436326 255.59502 
L 37.449329 255.846291 
L 36.982232 255.829987 
L 36.743403 255.71586 
L 36.522446 255.550904 
L 36.358352 255.30347 
L 36.296614 254.943827 
L 36.361602 254.653235 
L 36.517571 254.368398 
L 36.847383 253.899423 
L 36.642672 253.577183 
L 36.587433 253.730631 
L 36.476954 254.126718 
L 36.437962 254.236049 
L 36.356728 254.322364 
L 36.168264 254.438408 
L 36.084593 254.541986 
L 36.072407 254.15453 
L 35.976551 253.901342 
L 35.815707 253.764198 
L 35.469649 253.660621 
L 35.260877 253.350848 
L 35.138213 253.240558 
L 35.238943 252.998877 
L 35.247067 252.775419 
L 35.182892 252.58361 
L 35.063477 252.435916 
L 35.606122 251.318625 
L 35.818956 250.987754 
L 36.464769 250.237779 
L 36.642672 249.861832 
L 36.701161 249.633578 
L 36.769398 249.244205 
L 36.847383 249.057191 
L 37.113019 248.783862 
L 37.216187 248.61411 
L 37.193441 248.398325 
L 36.991168 248.344618 
L 36.730405 248.660145 
L 36.494826 249.131037 
L 36.369725 249.539592 
L 35.801897 249.307502 
L 35.162583 249.670022 
L 33.755605 251.15271 
L 32.507845 251.582364 
L 31.931082 251.934334 
L 31.648386 251.952556 
L 31.79542 251.732934 
L 32.330754 251.294649 
L 32.13173 251.229434 
L 32.117108 251.047215 
L 32.299885 250.584954 
L 32.407115 250.444933 
L 32.876649 250.197498 
L 32.380307 250.26655 
L 32.142291 250.383554 
L 31.671132 250.823757 
L 31.433928 250.943638 
L 30.893719 250.987754 
L 30.976578 250.818002 
L 30.991201 250.668391 
L 30.990388 250.521657 
L 31.029381 250.343274 
L 31.092743 250.239697 
L 31.273084 250.049805 
L 31.485918 249.670022 
L 31.800294 249.248041 
L 31.853909 248.89607 
L 32.359999 248.195006 
L 32.671939 247.918801 
L 32.709306 247.585052 
L 32.638633 247.360635 
L 32.204841 247.906333 
L 31.831976 247.985934 
L 31.029381 247.914964 
L 31.234091 247.287747 
L 29.663019 247.753844 
L 29.316961 247.74809 
L 29.203233 247.65794 
L 28.897792 247.230204 
L 28.218673 246.62025 
L 28.015587 246.522427 
L 27.572048 246.467761 
L 27.515184 246.299928 
L 27.486752 245.998787 
L 27.416078 245.87411 
L 27.232488 246.226081 
L 27.050524 246.482147 
L 26.876682 246.424604 
L 26.587488 245.984401 
L 26.580989 245.926858 
L 26.592362 245.719704 
L 26.587488 245.662161 
L 26.541184 245.647775 
L 26.424207 245.686137 
L 26.382777 245.662161 
L 26.297481 245.567215 
L 26.226808 245.529812 
L 26.199188 245.434867 
L 26.246304 245.164415 
L 25.762147 245.164415 
L 25.805201 245.000418 
L 25.864502 244.698318 
L 25.911618 244.53528 
L 25.724779 244.39334 
L 25.440459 244.301272 
L 25.14964 244.285927 
L 24.94493 244.37416 
L 24.849073 244.61584 
L 24.894565 244.893964 
L 25.14964 245.501041 
L 24.696353 245.325535 
L 24.470521 245.312108 
L 24.264186 245.501041 
L 24.306428 245.097282 
L 24.440465 244.389504 
L 24.467272 243.878332 
L 24.464023 243.521566 
L 24.489205 243.200285 
L 24.606183 242.977786 
L 24.870194 242.911611 
L 24.742656 242.707334 
L 24.694728 242.474286 
L 24.719098 242.221097 
L 24.814955 241.947768 
L 24.150458 242.531828 
L 23.953871 242.837765 
L 23.729664 243.055469 
L 23.202454 243.179186 
L 23.031049 243.394972 
L 23.014802 243.589658 
L 23.102535 243.915735 
L 23.061106 244.125766 
L 23.00018 244.266746 
L 22.969311 244.370323 
L 22.957938 244.514181 
L 22.956314 244.770246 
L 22.827963 245.081937 
L 22.534708 245.244975 
L 22.21302 245.267992 
L 21.996124 245.164415 
L 22.252012 244.863274 
L 22.111477 244.358815 
L 21.593202 243.394972 
L 21.749984 243.377709 
L 22.200834 243.570477 
L 22.200834 243.394972 
L 21.965255 243.280845 
L 21.2772 243.233852 
L 20.962823 243.38634 
L 20.843409 243.394972 
L 20.76055 243.334552 
L 20.602143 243.133152 
L 20.503037 243.087117 
L 20.503037 242.911611 
L 20.568025 242.897226 
L 20.611891 242.8627 
L 20.701249 242.764877 
L 20.565588 242.42921 
L 20.868592 242.573068 
L 21.043245 242.583617 
L 21.116356 242.42921 
L 20.633012 241.947768 
L 20.416929 241.821174 
L 20.214655 241.516197 
L 20.048937 241.145045 
L 19.951456 240.819928 
L 19.958767 240.699088 
L 19.976639 240.670316 
L 19.9807 240.635791 
L 19.951456 240.499606 
L 20.676879 240.747999 
L 20.806854 240.731696 
L 20.873466 240.436309 
L 20.82635 240.196547 
L 20.728869 239.962539 
L 20.638698 239.678661 
L 21.116356 239.678661 
L 21.116356 239.533845 
L 20.901898 239.50795 
L 20.688251 239.40725 
L 20.482729 239.243253 
L 20.291828 239.034181 
L 20.451047 238.895119 
L 20.533906 238.861552 
L 20.638698 238.874979 
L 20.420178 238.510541 
L 20.295077 238.40025 
L 20.161041 238.391619 
L 20.22684 238.066501 
L 20.161041 237.731794 
L 20.027004 237.528476 
L 19.883219 237.601363 
L 19.809296 237.507376 
L 19.75162 237.396127 
L 19.707753 237.26186 
L 19.678509 237.089232 
L 19.783301 236.857142 
L 19.604586 236.386249 
L 19.744309 236.299935 
L 20.241463 236.421734 
L 20.496538 236.389127 
L 20.701249 236.124429 
L 20.59077 236.017975 
L 20.477042 235.977695 
L 20.22684 235.977695 
L 20.155354 235.917275 
L 19.951456 235.494335 
L 20.056248 235.439669 
L 20.234964 235.209498 
L 20.325946 235.157709 
L 20.414492 235.222924 
L 20.491664 235.359109 
L 20.579397 235.478031 
L 20.701249 235.494335 
L 20.639511 235.249778 
L 20.595644 234.981244 
L 20.545279 234.764499 
L 20.46242 234.676267 
L 20.343818 234.634069 
L 20.296702 234.524737 
L 20.273144 234.369372 
L 20.223591 234.193866 
L 19.77599 233.089043 
L 19.604586 232.905865 
L 19.747558 232.633495 
L 19.809296 232.570198 
L 19.534724 232.312214 
L 19.440492 232.111773 
L 19.406374 231.779942 
L 19.622457 231.778024 
L 20.061122 232.142462 
L 20.291828 232.247958 
L 20.506287 232.176988 
L 20.498975 232.061902 
L 20.494914 232.001482 
L 20.331633 231.831731 
L 20.08793 231.779942 
L 20.370625 231.561279 
L 20.955512 231.900782 
L 21.23902 231.779942 
L 21.099297 231.621699 
L 20.96526 231.354125 
L 20.921394 231.057779 
L 21.048119 230.813222 
L 20.94089 230.245466 
L 20.877527 230.011458 
L 20.769486 229.833075 
L 20.867779 229.825403 
L 21.116356 229.671955 
L 21.043245 229.67675 
L 20.975009 229.65661 
L 20.907584 229.60674 
L 20.843409 229.52618 
L 20.979883 229.190513 
L 20.843409 229.190513 
L 20.975009 229.044738 
L 21.126917 228.997744 
L 21.450229 229.015007 
L 21.404738 228.779081 
L 21.381993 228.692767 
L 21.681747 228.490408 
L 21.996124 228.384913 
L 21.849902 227.891962 
L 21.656565 227.667545 
L 21.177282 227.404766 
L 21.272326 227.159249 
L 21.409612 227.044164 
L 21.49897 226.907979 
L 21.450229 226.601084 
L 21.85965 226.601084 
L 21.85965 226.425578 
L 21.83528 226.298024 
L 21.85965 225.872207 
L 21.85965 225.634363 
L 21.83528 225.492424 
L 21.757295 225.431045 
L 21.723177 225.314041 
L 21.715053 225.171143 
L 21.732925 224.955357 
L 21.723177 224.830681 
L 21.658189 224.351157 
L 21.599701 224.203464 
L 21.450229 224.02604 
L 21.317005 223.928217 
L 21.037559 223.806418 
L 20.905959 223.7038 
L 21.195154 223.496645 
L 21.832031 223.571451 
L 22.139096 223.382519 
L 21.993687 223.033425 
L 21.837717 222.7764 
L 21.518466 222.402372 
L 20.837723 222.000531 
L 20.638698 221.757892 
L 21.971754 221.997654 
L 22.335683 221.757892 
L 22.126099 221.079845 
L 22.07086 220.95325 
L 21.924638 220.898585 
L 21.658189 221.002162 
L 21.518466 220.95325 
L 21.116356 220.30877 
L 21.035934 220.050786 
L 21.018063 219.941455 
L 21.081426 219.893502 
L 21.23902 219.812942 
L 21.495721 219.759236 
L 22.647623 220.330828 
L 23.281251 220.835287 
L 23.575319 220.95325 
L 23.575319 220.777745 
L 22.894576 219.991325 
L 22.556641 219.398634 
L 22.332434 218.392592 
L 22.14722 218.217087 
L 21.940072 218.094329 
L 21.791414 217.880461 
L 21.776791 217.687692 
L 21.856401 217.338599 
L 21.825532 217.164052 
L 21.593202 216.579033 
L 21.593202 216.433258 
L 21.778416 216.505186 
L 22.117975 216.815918 
L 22.273945 216.75358 
L 22.008309 216.384346 
L 21.308882 215.827139 
L 21.116356 215.291031 
L 21.143164 215.003317 
L 21.235771 214.681077 
L 21.306445 214.361714 
L 21.2772 214.077836 
L 21.141539 213.944528 
L 20.972572 213.870681 
L 20.862905 213.72107 
L 20.905959 213.360468 
L 20.602143 212.867517 
L 20.449423 212.540482 
L 20.360065 212.234546 
L 20.453484 212.146313 
L 20.537156 211.982316 
L 20.558276 211.822155 
L 20.353566 211.672544 
L 20.312949 211.486488 
L 20.290203 211.267825 
L 20.223591 211.093279 
L 20.132609 211.062589 
L 19.676072 211.093279 
L 19.586714 211.060671 
L 19.544472 211.045326 
L 19.32189 210.831459 
L 19.195165 210.771039 
L 19.369006 210.303023 
L 19.225221 210.109296 
L 18.786556 209.980783 
L 19.182167 208.444388 
L 19.263401 207.861287 
L 19.310517 206.762218 
L 19.383628 206.553146 
L 19.542035 207.055687 
L 19.71019 206.371886 
L 19.744309 206.031424 
L 19.678509 205.767686 
L 19.822294 205.485726 
L 20.129359 205.232537 
L 20.25771 205.043604 
L 20.317011 204.721364 
L 20.22684 204.493111 
L 19.951456 204.159362 
L 20.161041 203.339376 
L 19.941708 203.357598 
L 19.819044 203.612705 
L 19.712627 203.936863 
L 19.542035 204.159362 
L 19.581028 203.776702 
L 19.703691 203.094819 
L 19.746746 202.695855 
L 19.754057 201.600622 
L 19.809296 201.247693 
L 19.27315 201.489373 
L 19.126928 201.394427 
L 19.044881 201.161378 
L 19.024572 200.860237 
L 19.073313 200.548547 
L 19.195165 200.282891 
L 19.126928 199.945306 
L 18.472179 201.14987 
L 18.445372 201.397304 
L 18.581845 201.731053 
L 18.36495 201.683101 
L 18.319459 201.32058 
L 18.372261 200.839138 
L 18.445372 200.427707 
L 18.386883 200.399894 
L 18.291839 200.311662 
L 18.234975 200.282891 
L 18.316209 200.00189 
L 18.367387 199.887763 
L 18.445372 199.784186 
L 18.282091 199.644165 
L 18.089565 199.696912 
L 17.900289 199.874336 
L 17.758129 200.106426 
L 17.736196 199.806244 
L 17.914099 199.089835 
L 17.967714 198.672649 
L 17.792248 198.83281 
L 17.665522 198.907616 
L 17.586725 198.781981 
L 17.553419 198.351368 
L 17.578602 197.941855 
L 17.665522 197.607147 
L 17.801184 197.354917 
L 17.967714 197.194756 
L 17.910038 197.004865 
L 17.689893 196.56658 
L 17.890541 196.362303 
L 18.095252 196.057325 
L 18.303212 195.842499 
L 18.513609 195.907714 
L 18.356826 195.464634 
L 17.638715 195.263234 
L 17.485182 194.942912 
L 17.364143 195.027308 
L 17.256101 195.18651 
L 17.075761 195.585474 
L 17.102568 195.011963 
L 17.255289 194.089359 
L 17.213047 193.640525 
L 17.412071 193.579146 
L 17.680144 193.360483 
L 17.918973 193.039202 
L 18.030264 192.673804 
L 18.023766 192.417739 
L 17.978274 192.380336 
L 17.908413 192.411984 
L 17.826366 192.353482 
L 17.6509 192.098376 
L 17.587537 191.958355 
L 17.502241 191.548841 
L 17.558293 191.215093 
L 17.713451 190.987798 
L 17.931159 190.904361 
L 18.13262 191.134533 
L 18.255283 191.18728 
L 18.30971 190.991634 
L 18.343829 190.938887 
L 18.51767 190.59267 
L 18.581845 190.42196 
L 18.640334 190.040259 
L 18.647645 189.695961 
L 18.688262 189.393861 
L 18.854793 189.134918 
L 19.094434 189.144508 
L 19.77599 189.46483 
L 19.985575 189.368925 
L 20.061122 189.229863 
L 20.246337 189.014078 
L 20.325946 188.878852 
L 20.373062 188.712937 
L 20.414492 188.398369 
L 20.509536 188.089555 
L 20.61839 187.592769 
L 20.638698 187.42973 
L 20.692313 187.376983 
L 21.048119 187.203395 
L 20.882401 186.364228 
L 20.844221 185.938411 
L 20.843409 185.419566 
L 20.834473 185.247896 
L 20.824725 185.167336 
L 20.858031 185.09349 
L 20.979883 184.937165 
L 21.087112 184.928533 
L 21.169159 185.043619 
L 21.221149 185.043619 
L 21.23902 184.686853 
L 21.36737 184.36749 
L 21.650066 184.550669 
L 22.066798 185.097326 
L 22.36899 185.236388 
L 22.671181 185.495331 
L 22.980684 185.636311 
L 23.297498 185.419566 
L 22.870205 184.755905 
L 22.205709 184.084571 
L 22.010746 183.816038 
L 21.947383 183.498593 
L 22.139096 183.150459 
L 22.01562 183.236773 
L 21.874273 183.278971 
L 21.735362 183.236773 
L 21.624071 183.069899 
L 21.583454 182.814792 
L 21.594014 182.569276 
L 21.576955 182.39377 
L 21.450229 182.346776 
L 21.520903 182.088793 
L 21.637881 182.002478 
L 21.934386 182.024536 
L 21.934386 181.864375 
L 21.544461 181.697501 
L 21.425859 181.521995 
L 21.381993 181.132622 
L 21.464852 180.93314 
L 21.653315 180.745166 
L 21.85965 180.612818 
L 21.996124 180.575415 
L 22.568014 181.251544 
L 22.88564 181.399237 
L 23.092787 180.883269 
L 23.292624 181.10385 
L 23.559072 181.288947 
L 23.835269 181.352244 
L 24.052977 181.205509 
L 23.901881 181.087547 
L 23.591566 180.98301 
L 23.438846 180.883269 
L 23.438846 180.736535 
L 23.848267 180.415254 
L 23.992051 180.365383 
L 24.394161 180.415254 
L 24.623242 180.313595 
L 25.108211 179.943402 
L 25.354351 179.918467 
L 25.25362 180.273315 
L 25.235749 180.497732 
L 25.323482 181.424172 
L 25.308047 181.622695 
L 25.217877 181.864375 
L 25.464017 181.922877 
L 26.246304 182.682443 
L 26.129326 182.169353 
L 25.966858 181.703255 
L 26.247928 181.550767 
L 26.351096 181.428009 
L 26.451014 181.205509 
L 26.507066 180.972461 
L 26.532249 180.771061 
L 26.566367 180.589801 
L 26.6541 180.415254 
L 26.83769 180.269479 
L 26.94167 180.379769 
L 27.019654 180.586924 
L 27.126071 180.736535 
L 27.281229 180.736535 
L 27.545241 180.489101 
L 27.67684 180.415254 
L 27.799504 180.448821 
L 27.996091 180.595555 
L 28.154498 180.575415 
L 28.205676 180.507323 
L 28.215424 180.399909 
L 28.212174 180.296332 
L 28.222735 180.240707 
L 28.276349 180.250298 
L 28.353522 180.304004 
L 28.417697 180.36922 
L 28.433132 180.415254 
L 28.849051 179.763101 
L 29.065947 179.332489 
L 29.182925 178.952706 
L 29.251161 178.952706 
L 29.477805 179.555947 
L 29.702012 179.367974 
L 29.922969 178.854883 
L 30.137428 178.483731 
L 30.039947 178.353301 
L 29.972522 178.180672 
L 29.870167 177.825825 
L 29.73938 177.580308 
L 29.455059 177.273413 
L 28.956281 176.478362 
L 28.90754 176.363276 
L 28.732074 176.351768 
L 28.585852 176.291348 
L 28.461564 176.151327 
L 28.359208 175.894302 
L 28.312905 175.252699 
L 28.537112 174.95923 
L 28.870172 174.988961 
L 29.148806 175.316955 
L 29.450998 175.784971 
L 29.753189 175.913483 
L 30.070003 175.963354 
L 30.416062 176.202156 
L 29.58341 175.203788 
L 29.201608 174.565062 
L 29.114688 173.949353 
L 29.216231 173.655884 
L 29.324272 173.572447 
L 29.594783 173.627113 
L 29.775123 173.723018 
L 29.771873 173.95223 
L 29.713385 174.217886 
L 29.734506 174.432713 
L 29.955463 174.567939 
L 30.202415 174.61685 
L 30.368133 174.816332 
L 30.347825 175.396556 
L 30.473738 175.288184 
L 30.636207 175.027323 
L 30.757246 174.914155 
L 30.757246 174.754953 
L 30.683322 174.538208 
L 30.714191 174.33489 
L 30.785678 174.119104 
L 30.825483 173.86112 
L 30.853915 173.845776 
L 31.029381 172.982633 
L 31.1228 172.815758 
L 31.235716 172.697795 
L 31.329948 172.541471 
L 31.370565 172.251838 
L 31.432303 172.220189 
L 31.853909 172.501191 
L 31.775112 172.205804 
L 31.370565 171.374309 
L 31.541969 171.068373 
L 31.619954 170.959041 
L 31.717435 170.876563 
L 31.692253 170.717361 
L 31.676006 170.646392 
L 31.648386 170.556241 
L 32.070805 170.663655 
L 32.253582 170.571586 
L 32.330754 170.160155 
L 32.307197 169.696934 
L 32.286888 169.481149 
L 32.337253 169.458131 
L 32.528966 169.576094 
L 32.673563 169.855177 
L 32.76617 169.957795 
L 32.806788 169.831201 
L 32.844155 169.593357 
L 32.93595 169.470599 
L 33.047241 169.446623 
L 33.147972 169.503207 
L 33.302317 169.705566 
L 33.41767 169.950123 
L 33.464786 170.23496 
L 33.420919 170.556241 
L 33.526524 170.740379 
L 33.734484 171.265937 
L 33.798659 171.374309 
L 33.945693 171.348415 
L 34.127658 171.267855 
L 34.29825 171.138383 
L 34.415227 170.965755 
L 34.494837 170.885195 
L 34.597192 170.874645 
L 34.684925 170.826693 
L 34.722293 170.634883 
L 34.722293 170.459378 
L 34.727167 170.329906 
L 34.7491 170.216738 
L 34.795404 170.086308 
L 34.9465 169.861891 
L 35.260877 169.671999 
L 35.409535 169.42936 
L 35.243817 169.269199 
L 34.722293 168.946 
L 35.409535 168.946 
L 35.212136 168.566217 
L 35.138213 168.46264 
L 35.394913 168.615128 
L 35.537886 168.635268 
L 35.648364 168.536486 
L 35.675172 168.409892 
L 35.688981 168.218083 
L 35.682483 168.042577 
L 35.648364 167.966812 
L 35.468024 167.852685 
L 35.378666 167.596619 
L 35.416034 167.323291 
L 35.614246 167.162171 
L 35.818956 167.190942 
L 35.938371 167.360694 
L 36.121148 167.886252 
L 36.289303 168.114505 
L 36.39572 168.05984 
L 36.407093 167.821037 
L 36.296614 167.496878 
L 36.296614 167.494001 
L 36.335607 167.185188 
L 36.333982 167.055716 
L 36.296614 166.839931 
L 36.864442 166.229017 
L 37.01635 165.95377 
L 37.137389 165.850193 
L 37.600425 166.03433 
L 37.712528 165.965279 
L 37.81001 165.824299 
L 37.921301 165.706336 
L 37.898555 165.672769 
L 37.802698 165.565356 
L 37.805135 165.411908 
L 37.936735 165.229689 
L 38.059399 165.152965 
L 38.36484 165.066651 
L 39.136566 165.106931 
L 39.448506 164.981296 
L 39.64753 164.587127 
L 39.890421 164.872923 
L 40.110566 164.830725 
L 40.324212 164.58425 
L 40.539483 164.264887 
L 40.22998 163.942647 
L 40.091069 163.748919 
L 40.091069 163.525461 
L 40.169867 163.220484 
L 40.149558 162.989353 
L 40.091069 162.782199 
L 40.056951 162.552986 
L 40.081321 162.412006 
L 40.198299 161.353218 
L 40.346957 161.165244 
L 40.533796 161.163326 
L 40.880667 161.353218 
L 40.946467 161.416515 
L 41.056133 161.594898 
L 41.153614 161.661072 
L 41.25597 161.640932 
L 41.347764 161.558454 
L 41.446058 161.506665 
L 41.762872 161.736837 
L 42.423307 161.836578 
L 42.576027 161.59202 
L 42.437929 161.04824 
L 42.195851 160.492952 
L 42.039881 160.211951 
L 42.114616 159.96068 
L 42.233218 159.92999 
L 42.522413 160.05083 
L 42.598773 159.963557 
L 42.825417 159.555962 
L 42.93752 159.422654 
L 42.980574 159.110963 
L 43.172287 158.827085 
L 43.41924 158.559511 
L 43.441173 158.526903 
L 43.612577 158.280428 
L 43.54434 158.280428 
L 43.570335 157.909276 
L 43.619888 157.564019 
L 43.732804 157.39235 
L 43.952137 157.549634 
L 44.10242 157.564019 
L 44.565456 157.287813 
L 44.709241 157.141079 
L 44.790475 156.922416 
L 44.984625 156.174359 
L 45.189335 156.216557 
L 45.61744 156.48509 
L 45.805904 156.672105 
L 45.718171 156.395899 
L 45.648309 156.096676 
L 45.623939 155.76005 
L 45.662931 155.384103 
L 45.781534 155.027337 
L 46.083725 154.589053 
L 46.2137 154.243795 
L 46.332302 153.535059 
L 46.415161 153.317355 
L 46.624746 153.115955 
L 47.0561 152.928941 
L 47.216944 152.713155 
L 47.175515 152.313232 
L 47.30224 152.343921 
L 47.417593 152.32474 
L 47.52401 152.240344 
L 47.619054 152.06292 
L 47.660483 152.098405 
L 48.060969 151.829872 
L 48.424898 151.829872 
L 48.475264 151.74068 
L 48.472014 151.33788 
L 48.489886 151.150866 
L 48.545125 151.009886 
L 48.662103 150.959056 
L 48.942361 151.033862 
L 49.055277 150.937957 
L 49.117827 150.759574 
L 49.175504 150.464187 
L 49.225869 150.35102 
L 49.428955 150.184145 
L 49.622292 150.123725 
L 49.805882 149.978909 
L 49.975662 149.562682 
L 49.965914 149.398685 
L 49.921235 149.182899 
L 49.914736 148.996844 
L 50.1032 148.829011 
L 50.109698 148.634324 
L 50.073143 148.460736 
L 50.043899 148.420456 
L 50.119446 147.939973 
L 50.190933 147.67144 
L 50.452507 147.134373 
L 50.506934 146.954072 
L 50.546739 146.743082 
L 50.59223 146.564699 
L 50.657218 146.489893 
L 50.775007 146.435227 
L 51.072325 146.006533 
L 51.477684 145.753344 
L 51.664523 145.569207 
L 51.822118 145.202851 
L 51.726261 144.949662 
L 51.685644 144.865266 
L 51.685644 144.72045 
L 51.79856 144.464384 
L 51.932596 144.318608 
L 52.237225 144.075969 
L 51.861923 143.713449 
L 51.745758 143.507254 
L 51.927722 143.417103 
L 52.144618 143.445875 
L 52.944776 143.900464 
L 53.042257 143.888955 
L 53.124304 143.753729 
L 53.126741 143.643439 
L 53.016262 143.466015 
L 52.987018 143.336543 
L 53.065815 142.931825 
L 53.255091 142.814821 
L 53.675073 142.787968 
L 53.721376 142.327625 
L 54.088555 142.082109 
L 55.324942 141.90948 
L 57.089351 140.896725 
L 57.298936 140.843019 
L 57.474402 140.935087 
L 57.568634 141.155668 
L 57.648243 141.422284 
L 57.783092 141.64766 
L 57.861077 141.656291 
L 57.935001 141.589158 
L 58.017047 141.548878 
L 58.122652 141.64766 
L 58.148647 141.74836 
L 58.189264 142.082109 
L 58.22257 142.202949 
L 58.374478 142.4734 
L 58.525574 142.655619 
L 58.705102 142.758237 
L 58.941494 142.787968 
L 58.941494 142.935661 
L 58.84645 142.93662 
L 58.764403 142.970187 
L 58.60031 143.096781 
L 58.943931 143.244475 
L 59.895185 142.935661 
L 59.968296 142.853183 
L 59.851318 142.413939 
L 59.865128 142.202949 
L 60.013787 141.470236 
L 60.031658 141.311034 
L 59.942301 141.013729 
L 59.825323 141.00318 
L 59.695348 141.112511 
L 59.560499 141.1643 
L 59.411028 141.066477 
L 59.146204 140.749991 
L 58.761154 140.591748 
L 58.584063 140.3587 
L 58.259126 139.701752 
L 58.310303 139.630782 
L 58.411846 139.449522 
L 58.463836 139.380471 
L 58.3891 139.233736 
L 58.55888 139.141668 
L 59.563749 139.305665 
L 59.748151 139.455276 
L 60.106394 139.862872 
L 60.337099 140.052763 
L 60.561306 140.123733 
L 60.727024 140.024951 
L 60.780639 139.701752 
L 60.70834 139.383348 
L 60.588926 139.176193 
L 60.513378 138.951776 
L 60.576741 138.57487 
L 60.507692 138.449235 
L 60.476823 138.341822 
L 60.478447 138.229613 
L 60.508504 138.092469 
L 60.272112 137.795164 
L 60.155135 137.599519 
L 60.106394 137.369347 
L 60.090147 137.119036 
L 60.046281 136.929144 
L 59.982106 136.779533 
L 59.901684 136.644307 
L 59.588119 136.330698 
L 58.463836 136.001745 
L 58.532073 135.483859 
L 58.607621 135.226834 
L 58.941494 134.860478 
L 59.074718 134.66675 
L 59.173012 134.407807 
L 59.204693 134.09228 
L 59.146204 133.734556 
L 59.26968 133.755655 
L 59.392344 133.741269 
L 59.510134 133.683726 
L 59.622237 133.571517 
L 59.554001 133.535074 
L 59.426463 133.433415 
L 59.34929 133.412316 
L 59.436211 133.047877 
L 59.485764 132.928955 
L 59.320046 132.802361 
L 59.238811 132.763999 
L 59.146204 132.767835 
L 59.289989 132.528073 
L 59.426463 131.797279 
L 59.560499 131.465448 
L 59.521507 131.392561 
L 59.455707 131.215137 
L 59.417527 131.145126 
L 59.510134 131.108682 
L 59.571872 131.056894 
L 59.696973 130.822886 
L 59.009731 130.018245 
L 59.148641 129.934808 
L 59.416715 129.925217 
L 59.560499 129.842739 
L 59.648232 129.714227 
L 59.81395 129.355543 
L 59.901684 129.212645 
L 59.792017 128.818476 
L 59.933365 127.946701 
L 59.865128 127.508417 
L 59.583245 126.974227 
L 59.285115 126.542655 
L 58.539384 125.784048 
L 58.320864 125.657454 
L 58.051166 125.667045 
L 57.818835 125.742809 
L 57.599503 125.693898 
L 57.367173 125.321787 
L 57.315183 125.129978 
L 57.283501 124.967899 
L 57.269691 124.89597 
L 57.206329 124.655249 
L 57.094225 124.443299 
L 56.959376 124.370412 
L 56.710799 124.443299 
L 56.577575 124.282179 
L 56.402109 124.14024 
L 55.926076 124.239981 
L 55.726239 124.209292 
L 55.595452 124.05968 
L 55.415924 123.694283 
L 55.31032 123.56673 
L 54.947202 123.383551 
L 54.551591 123.311623 
L 54.160042 123.369166 
L 53.810734 123.56673 
L 53.54916 123.884174 
L 53.426496 123.992547 
L 53.229096 124.033786 
L 53.116993 123.941717 
L 53.069877 123.7173 
L 53.060941 122.811 
L 53.036571 122.635494 
L 52.956149 122.536712 
L 52.325771 122.203923 
L 52.20067 122.022662 
L 52.038201 121.697545 
L 51.909851 121.357083 
L 51.865984 120.923594 
L 51.96509 120.319393 
L 52.114561 119.870559 
L 52.679952 118.635305 
L 52.817238 118.190307 
L 52.896036 118.04645 
L 53.061754 117.904511 
L 53.334701 117.836418 
L 53.433807 117.72421 
L 53.464676 117.421151 
L 53.304644 117.612001 
L 52.782308 117.904511 
L 52.704323 117.919855 
L 52.61334 117.911224 
L 52.539417 117.960135 
L 52.510173 118.146191 
L 52.515047 118.394584 
L 52.505298 118.503916 
L 52.476054 118.547073 
L 52.232351 118.782999 
L 51.797748 119.851378 
L 51.549983 120.156355 
L 51.30628 120.177454 
L 51.097508 120.129502 
L 50.892797 120.135256 
L 50.66859 120.319393 
L 50.643408 120.388445 
L 50.624724 120.494899 
L 50.59223 120.61478 
L 50.520744 120.727948 
L 50.41189 120.788368 
L 49.935857 120.553401 
L 49.644226 120.112239 
L 49.532122 120.01058 
L 49.144635 119.841787 
L 48.749836 119.528179 
L 48.849754 119.850419 
L 48.878998 120.20143 
L 48.809949 120.497776 
L 48.613362 120.65506 
L 48.429773 120.563951 
L 48.250245 120.293499 
L 48.098336 119.964546 
L 47.999231 119.689299 
L 47.999231 119.528179 
L 48.002395 119.101825 
L 47.613453 118.439238 
L 47.392674 117.503821 
L 47.129597 117.045856 
L 46.918103 116.57693 
L 46.939769 116.053803 
L 46.923262 115.698758 
L 46.668438 114.524615 
L 46.567334 114.195757 
L 46.465198 114.038637 
L 46.222754 113.785295 
L 46.117523 113.633046 
L 46.027767 113.425987 
L 45.487169 111.846253 
L 45.26639 111.552108 
L 44.230588 111.184884 
L 43.875691 110.879168 
L 43.617772 110.479058 
L 43.271129 109.292126 
L 43.183437 108.679477 
L 43.036939 108.149651 
L 43.004957 107.889001 
L 43.021464 107.656365 
L 43.107093 107.346995 
L 43.141138 107.099743 
L 43.147328 106.778802 
L 43.093681 106.350678 
L 43.079237 106.032174 
L 43.035907 105.790403 
L 42.844015 105.354362 
L 42.800685 105.066916 
L 42.901789 104.534654 
L 43.145265 104.177174 
L 43.437229 103.965852 
L 43.686894 103.867195 
L 43.686894 103.490836 
L 43.926243 103.284995 
L 44.233683 103.130311 
L 44.435891 102.901328 
L 44.451366 102.63946 
L 44.985774 102.277717 
L 45.19211 102.067005 
L 45.288055 101.705261 
L 45.305594 101.300888 
L 45.264327 100.875809 
L 45.19211 100.458039 
L 45.289087 100.079243 
L 45.363368 99.643203 
L 45.404635 99.173058 
L 45.402572 98.688298 
L 45.290119 97.823524 
L 45.297341 97.65057 
L 45.620255 97.130488 
L 45.76469 96.702973 
L 45.982373 96.645727 
L 46.215532 96.659125 
L 46.363062 96.581174 
L 46.411551 96.37107 
L 46.383695 96.200552 
L 45.98031 95.034934 
L 45.705884 94.401579 
L 45.496454 94.056279 
L 45.109576 93.555684 
L 44.541122 92.357181 
L 44.295583 92.040504 
L 43.992271 91.914442 
L 43.813791 91.755494 
L 43.5796 91.38218 
L 43.215419 90.61241 
L 43.144233 90.401088 
L 43.102966 90.231178 
L 43.083364 90.03021 
L 43.079237 89.727539 
L 43.043129 89.471761 
L 42.9575 89.328038 
L 42.855364 89.220855 
L 42.583001 88.73305 
L 42.367381 88.473009 
L 42.191996 88.170338 
L 42.118747 87.701411 
L 42.24358 87.516277 
L 42.353969 87.295211 
L 42.448883 87.036997 
L 42.527291 86.736154 
L 42.345716 86.642368 
L 42.2931 86.476113 
L 42.324051 86.018757 
L 42.405553 85.645443 
L 42.60054 85.438993 
L 43.730225 84.951797 
L 44.007746 84.55595 
L 44.231619 83.824546 
L 43.890135 83.619315 
L 43.889103 83.070001 
L 44.007746 82.40985 
L 44.027348 81.878806 
L 43.901483 81.708287 
L 43.683799 81.611457 
L 43.003925 81.498184 
L 42.324051 81.08833 
L 41.91757 81.126088 
L 41.522438 81.295388 
L 41.152067 81.319139 
L 40.817804 80.913548 
L 40.694003 80.336221 
L 40.81574 79.883737 
L 41.040646 79.465966 
L 41.227379 78.982424 
L 41.114926 78.698632 
L 41.374909 78.431892 
L 41.733932 78.179768 
L 41.914475 77.943478 
L 41.882493 77.380766 
L 41.805118 77.009279 
L 41.567832 76.392975 
L 41.487361 76.005654 
L 41.374909 75.069019 
L 41.264519 74.696314 
L 41.226347 74.405214 
L 41.227379 73.013051 
L 41.177859 72.523418 
L 41.14794 71.949745 
L 41.193334 71.400431 
L 41.368719 70.987532 
L 41.705045 70.7281 
L 42.411743 70.496682 
L 42.738784 70.249429 
L 42.989482 69.792683 
L 42.998767 69.378566 
L 42.808938 69.077722 
L 42.115652 68.838996 
L 41.227379 67.835372 
L 40.953985 67.636839 
L 40.21221 67.002266 
L 40.130708 66.796425 
L 40.094599 66.596675 
L 39.692245 65.198421 
L 39.581856 64.951169 
L 39.44877 64.778215 
L 39.105222 64.79283 
L 38.258216 65.328746 
L 38.042596 65.333618 
L 37.974505 65.203293 
L 37.932206 65.185023 
L 37.903319 65.139958 
L 37.880623 64.924373 
L 37.884749 64.796484 
L 37.931175 64.585772 
L 37.98379 63.997482 
L 37.97141 63.809912 
L 37.880623 63.636957 
L 37.938396 63.085207 
L 37.78674 62.690578 
L 37.335898 62.187548 
L 37.203843 61.957348 
L 37.152259 61.756379 
L 37.123372 61.565155 
L 37.057345 61.369058 
L 36.909816 61.181488 
L 35.428329 60.27652 
L 35.142555 59.935483 
L 34.725758 59.141353 
L 34.47506 58.902627 
L 33.879783 59.124301 
L 33.584724 58.811277 
L 33.296887 58.387416 
L 33.017302 58.13651 
L 32.829537 58.138946 
L 32.654152 58.19132 
L 32.472578 58.194974 
L 32.048559 57.927016 
L 31.611128 57.88195 
L 30.967362 57.561619 
L 30.180194 57.506809 
L 30.139958 57.454435 
L 30.146148 57.223017 
L 30.111071 57.170644 
L 29.432229 56.987945 
L 27.127465 56.967239 
L 26.790107 56.701717 
L 26.7736 56.592098 
L 26.780822 56.424015 
L 26.76741 56.271766 
L 26.694161 56.204777 
L 26.648767 56.179199 
L 26.528061 56.037912 
L 26.39188 55.816238 
L 26.106106 55.46302 
L 26.0473 55.319298 
L 25.600584 54.817485 
L 23.782771 54.353431 
L 23.580563 53.615328 
L 23.028616 53.277945 
L 22.139312 52.480161 
L 21.372777 52.288936 
L 21.052957 52.020978 
L 20.932251 51.794432 
L 20.62997 51.063637 
L 20.570133 50.798115 
L 20.481409 50.559389 
L 20.277137 50.442462 
L 19.566312 50.43759 
L 19.473461 50.396178 
L 19.429099 50.315791 
L 19.356882 50.103861 
L 19.303235 50.061231 
L 19.17737 49.9102 
L 18.587252 48.947987 
L 17.950708 48.37066 
L 17.144969 47.717817 
L 15.483971 47.124655 
L 15.272477 46.839645 
L 15.303427 46.359757 
L 15.604677 46.220906 
L 15.768713 45.842111 
L 15.771808 45.419468 
L 15.538649 45.095482 
L 15.067173 44.963939 
L 14.382141 44.37565 
L 13.185397 44.212439 
L 12.663369 43.783706 
L 13.596004 42.312373 
L 13.873524 42.18083 
L 16.749837 43.674087 
L 17.138779 43.776398 
L 17.413204 43.608315 
L 17.985785 42.575459 
L 16.760154 40.369678 
L 17.054181 39.57433 
L 17.220281 39.21624 
L 17.407014 38.995784 
L 19.554964 37.771703 
L 22.801648 38.244284 
L 23.042028 38.436726 
L 25.86901 43.092014 
L 26.637419 44.35738 
L 28.011611 45.675246 
L 28.147792 45.967564 
L 28.290163 46.558289 
L 28.405711 46.798233 
L 29.17431 48.00039 
L 29.9687 48.58259 
L 30.114166 48.821316 
L 30.366927 50.961326 
L 30.49176 51.407111 
L 30.686747 51.4741 
L 31.826748 51.097741 
L 32.098079 51.079471 
L 32.361157 51.130627 
L 34.908364 52.284064 
L 36.581743 52.024632 
L 37.102739 52.162265 
L 37.366848 52.415607 
L 38.139573 53.558083 
L 38.361384 53.643342 
L 41.196429 52.05021 
L 42.793463 51.829754 
L 43.724035 51.347429 
L 44.055203 50.392525 
L 44.247094 49.359668 
L 44.900145 48.961385 
L 45.662554 48.972347 
L 47.680512 49.91629 
L 48.00549 50.41932 
L 48.236585 50.6617 
L 49.690217 51.508204 
L 51.17583 51.966169 
L 52.993643 52.510611 
L 53.899454 53.175634 
L 54.652578 54.207272 
L 54.965175 54.930758 
L 55.147782 55.132945 
L 55.406733 55.083007 
L 55.625448 54.76633 
L 55.735837 54.344905 
L 55.872018 53.949058 
L 56.166046 53.712768 
L 56.421902 53.724947 
L 57.061541 53.327882 
L 57.329777 53.273073 
L 57.526827 53.180506 
L 57.675388 52.945433 
L 57.792999 52.465545 
L 57.672293 52.263358 
L 57.678483 52.119636 
L 57.73832 51.986875 
L 57.781651 51.806612 
L 57.799189 50.706766 
L 57.846646 50.187902 
L 57.977669 49.717758 
L 58.362484 49.056389 
L 60.218469 47.597235 
L 60.684787 47.377997 
L 61.155231 47.286648 
L 62.366934 47.654481 
L 62.619695 47.606979 
L 62.858012 47.386523 
L 63.003478 47.058884 
L 63.125216 46.702012 
L 63.289252 46.393861 
L 63.603913 45.996796 
L 63.714303 45.759287 
L 63.766918 45.445046 
L 63.878339 45.150292 
L 64.2972 44.798293 
L 64.385924 44.496231 
L 64.349815 44.330584 
L 64.268313 44.212439 
L 64.077453 44.04192 
L 63.998014 43.917685 
L 63.985634 43.81172 
L 63.996982 43.716717 
L 63.990792 43.618059 
L 63.842231 43.244136 
L 63.833977 43.095541 
L 63.911353 42.870213 
L 63.929923 42.707002 
L 63.944367 41.92627 
L 63.963968 41.831267 
L 64.003172 41.748443 
L 64.039281 41.637606 
L 64.051661 41.456126 
L 64.022774 41.290479 
L 63.892783 40.880016 
L 63.839136 40.747255 
L 63.681289 40.130952 
L 63.712239 39.497596 
L 64.084674 37.597531 
L 64.205381 37.268673 
L 65.111192 35.900869 
L 65.063735 35.705991 
L 64.752169 34.793716 
L 64.995644 34.246838 
L 65.112224 34.104333 
L 65.204043 33.91189 
L 65.194758 33.34796 
L 65.258722 33.070259 
L 65.401093 32.812045 
L 65.351572 32.640308 
L 65.243246 32.506329 
L 65.204043 32.363824 
L 65.339192 32.100738 
L 65.938596 31.708545 
L 66.197547 31.313916 
L 66.374995 30.801142 
L 66.386343 30.243302 
L 66.146995 29.709822 
L 65.979863 29.493019 
L 65.953039 29.260383 
L 66.024225 29.009477 
L 66.149058 28.734211 
L 66.386343 28.393174 
L 66.654579 28.220219 
L 68.146382 27.876746 
L 68.314546 27.778088 
L 68.441442 27.602698 
L 68.561116 27.389549 
L 69.01299 26.768374 
L 69.497878 25.904818 
L 70.51511 24.945042 
L 70.806043 24.463935 
L 70.686368 24.035202 
L 70.786441 23.857985 
L 71.137211 23.442041 
L 71.333229 22.996256 
L 71.664397 22.833045 
L 73.392454 22.601627 
L 74.040347 22.758748 
L 74.96576 22.530375 
L 75.276295 22.618679 
L 75.829273 22.953018 
L 76.128459 22.879329 
L 76.392568 22.898817 
L 77.128153 23.358608 
L 77.319013 23.386622 
L 79.429822 22.73317 
L 79.83527 22.280078 
L 79.762021 22.231967 
L 79.616555 22.073628 
L 79.543306 22.021255 
L 79.65679 21.810542 
L 79.802257 21.747816 
L 79.960619 21.736854 
L 80.120013 21.677781 
L 80.761715 20.995097 
L 81.940405 20.515209 
L 82.016233 20.107182 
L 82.431999 19.608415 
L 82.95609 19.461647 
L 84.225051 19.682103 
L 84.970953 19.296 
L 85.274266 19.40501 
L 85.57242 19.815473 
L 86.109923 20.844675 
L 87.970035 23.561404 
L 88.18875 23.756891 
L 90.104572 24.460281 
L 90.090129 25.258065 
L 90.337731 25.731864 
L 90.718419 25.986424 
L 91.100139 26.121621 
L 94.345792 27.435833 
L 97.591444 28.750045 
L 97.750322 28.992425 
L 98.309491 30.829155 
L 99.720823 33.695088 
L 98.569989 35.758364 
L 94.931784 39.535354 
L 94.805919 39.843506 
L 94.725449 40.36846 
L 94.55419 42.122367 
L 94.56038 42.501162 
L 94.680571 42.748414 
L 95.823152 43.998073 
" clip-path="url(#p7fead0d712)" style="fill: #f5f5f5; stroke: #000000"/>
    <path d="M 30.483486 255.522133 
L 30.418499 254.981229 
L 30.517604 254.75873 
L 30.703631 254.837372 
L 30.893719 255.199892 
L 30.896156 256.070708 
L 30.879097 256.475426 
L 30.825483 256.825479 
L 30.757246 256.825479 
L 30.655703 256.603939 
L 30.494859 256.546396 
L 30.345388 256.648055 
L 30.279588 256.897407 
L 30.22841 256.941523 
L 30.114682 256.659563 
L 29.997705 256.274026 
L 29.932717 256.005493 
L 29.89535 255.646809 
L 29.889663 255.276616 
L 29.948964 254.984107 
L 30.106559 254.863267 
L 30.226786 255.010001 
L 30.234909 255.309224 
L 30.272277 255.548986 
L 30.483486 255.522133 
" clip-path="url(#p7fead0d712)" style="fill: #f5f5f5; stroke: #000000"/>
    <path d="M 21.381993 253.577183 
L 21.713429 253.009427 
L 22.125287 252.751443 
L 22.559078 252.785969 
L 22.956314 253.093823 
L 22.888077 253.347012 
L 22.787346 253.494705 
L 22.546893 253.723918 
L 22.71586 253.738303 
L 22.783285 253.851471 
L 22.764601 254.028895 
L 22.676868 254.236049 
L 22.545268 254.359766 
L 22.405545 254.345381 
L 22.135035 254.236049 
L 22.032679 254.254271 
L 21.75892 254.377029 
L 21.658189 254.461426 
L 21.559896 254.471975 
L 21.455103 254.339626 
L 21.347874 254.169875 
L 21.23902 254.060543 
L 21.407988 253.91285 
L 21.601325 253.870652 
L 21.996124 253.899423 
L 21.905142 253.6213 
L 21.745922 253.536903 
L 21.381993 253.577183 
" clip-path="url(#p7fead0d712)" style="fill: #f5f5f5; stroke: #000000"/>
    <path d="M 23.848267 252.273837 
L 24.406346 252.132857 
L 24.94493 252.129021 
L 25.286114 252.435916 
L 25.286114 252.610463 
L 25.174011 252.596077 
L 25.066781 252.608545 
L 24.966051 252.662252 
L 24.870194 252.757197 
L 24.932745 252.826249 
L 25.087902 253.093823 
L 24.325924 253.093823 
L 24.671983 253.240558 
L 24.581812 253.33838 
L 24.481894 253.407432 
L 24.37629 253.434285 
L 24.420969 253.473606 
L 24.467272 253.577183 
L 24.243065 253.862021 
L 23.93275 254.051912 
L 23.614312 254.086438 
L 23.370609 253.899423 
L 23.456717 253.775706 
L 23.481087 253.712409 
L 23.438846 253.416063 
L 23.585067 253.269329 
L 23.637057 253.240558 
L 23.637057 253.093823 
L 23.463216 252.978737 
L 23.494085 252.717876 
L 23.646805 252.439753 
L 23.848267 252.273837 
" clip-path="url(#p7fead0d712)" style="fill: #f5f5f5; stroke: #000000"/>
    <path d="M 19.951456 251.791436 
L 20.107426 252.132857 
L 20.361689 252.268083 
L 20.905959 252.273837 
L 20.905959 252.435916 
L 20.511161 252.417694 
L 20.360065 252.555797 
L 20.291828 252.932703 
L 20.223591 252.932703 
L 20.140732 252.751443 
L 19.989636 252.654579 
L 19.676072 252.610463 
L 19.524976 252.538534 
L 19.427495 252.388923 
L 19.317016 252.268083 
L 19.126928 252.273837 
L 19.271525 251.962147 
L 19.483546 251.824044 
L 19.951456 251.791436 
" clip-path="url(#p7fead0d712)" style="fill: #f5f5f5; stroke: #000000"/>
    <path d="M 26.995284 251.791436 
L 27.126071 252.129021 
L 26.519251 252.757197 
L 26.580989 252.823372 
L 26.721525 253.030526 
L 26.784887 253.093823 
L 26.499755 253.531149 
L 26.184566 253.573347 
L 25.914868 253.253025 
L 25.762147 252.610463 
L 25.909994 252.491541 
L 26.382777 252.273837 
L 26.671972 251.917071 
L 26.82388 251.783764 
L 26.995284 251.791436 
" clip-path="url(#p7fead0d712)" style="fill: #f5f5f5; stroke: #000000"/>
    <path d="M 64.480862 251.871996 
L 64.558847 251.668678 
L 64.744061 251.609217 
L 65.099868 251.64662 
L 64.969081 251.952556 
L 64.858602 252.058051 
L 64.694509 252.146284 
L 64.545037 252.118471 
L 64.480862 251.871996 
" clip-path="url(#p7fead0d712)" style="fill: #f5f5f5; stroke: #000000"/>
    <path d="M 28.495682 251.952556 
L 28.627282 251.490295 
L 28.861237 251.037624 
L 29.118749 250.803617 
L 29.319398 250.987754 
L 29.370576 251.551674 
L 29.095191 252.15012 
L 28.725575 252.407145 
L 28.495682 251.952556 
" clip-path="url(#p7fead0d712)" style="fill: #f5f5f5; stroke: #000000"/>
    <path d="M 62.565357 251.148874 
L 62.263165 251.049133 
L 62.044645 250.684695 
L 61.987781 250.208048 
L 62.159998 249.781272 
L 62.325716 249.914579 
L 63.185175 250.987754 
L 63.111252 251.148874 
L 62.94066 251.240943 
L 62.779003 251.390554 
L 62.679897 251.620726 
L 62.701831 251.952556 
L 62.458128 251.7876 
L 62.376081 251.689777 
L 62.424009 251.524821 
L 62.565357 251.148874 
" clip-path="url(#p7fead0d712)" style="fill: #f5f5f5; stroke: #000000"/>
    <path d="M 34.827085 251.068314 
L 35.048855 250.513025 
L 35.300681 250.036378 
L 35.597999 249.773599 
L 35.953805 249.861832 
L 35.884756 250.392185 
L 35.694668 250.703876 
L 35.455027 250.934047 
L 35.236506 251.220803 
L 35.165832 251.448097 
L 35.121966 251.6869 
L 35.060228 251.876791 
L 34.79053 252.026403 
L 34.727167 252.216294 
L 34.732041 252.475237 
L 34.795404 252.757197 
L 34.727167 252.777337 
L 34.680863 252.827208 
L 34.637809 252.886669 
L 34.585819 252.932703 
L 34.642683 252.961475 
L 34.795404 253.093823 
L 34.7491 253.326872 
L 34.722293 253.416063 
L 34.860391 254.149735 
L 34.524081 254.831618 
L 33.69874 255.668867 
L 33.69874 255.829987 
L 33.791348 255.821355 
L 33.851461 255.859717 
L 33.973312 256.005493 
L 33.875831 256.14935 
L 33.745044 256.563659 
L 33.692242 256.649973 
L 33.448539 256.603939 
L 33.342934 256.646137 
L 33.216209 256.825479 
L 33.087046 256.382398 
L 32.944886 256.005493 
L 32.857965 256.25005 
L 32.535465 256.727656 
L 32.480226 256.763141 
L 32.449357 256.862882 
L 32.460729 257.131415 
L 32.398991 257.131415 
L 32.415238 256.802461 
L 32.385994 256.577085 
L 32.311258 256.508993 
L 32.187782 256.649973 
L 32.14554 256.365136 
L 32.204841 256.186753 
L 32.292574 255.993984 
L 32.330754 255.668867 
L 32.212152 255.855881 
L 31.859595 256.275944 
L 31.697127 256.57229 
L 31.261711 256.722861 
L 31.097617 256.825479 
L 31.094368 256.208811 
L 31.115489 255.926851 
L 31.171541 255.668867 
L 31.113052 255.376357 
L 31.132548 255.087684 
L 31.161793 254.828741 
L 31.134985 254.622546 
L 31.016383 254.46718 
L 30.747498 254.288797 
L 30.620772 254.060543 
L 30.829544 253.968475 
L 31.203222 253.648153 
L 31.406308 253.577183 
L 32.398991 253.577183 
L 32.398991 253.416063 
L 30.551723 253.240558 
L 30.660577 252.728426 
L 30.738562 252.066683 
L 30.87991 251.548797 
L 31.171541 251.471114 
L 30.957894 252.052297 
L 30.909154 252.322749 
L 31.063499 252.435916 
L 32.062681 252.21054 
L 32.416863 251.902686 
L 32.602077 251.791436 
L 34.541953 251.416448 
L 34.827085 251.068314 
" clip-path="url(#p7fead0d712)" style="fill: #f5f5f5; stroke: #000000"/>
    <path d="M 27.472942 249.378472 
L 27.724768 249.326683 
L 28.900229 249.425465 
L 29.614279 249.764968 
L 29.797056 250.021034 
L 29.772686 250.297239 
L 29.719071 250.416161 
L 29.529795 250.504394 
L 29.453435 250.479459 
L 29.378699 250.385472 
L 29.299902 250.328888 
L 29.217043 250.423834 
L 29.17805 250.490008 
L 29.056199 250.636742 
L 29.012332 250.665514 
L 28.558233 250.80074 
L 28.412011 250.771968 
L 28.569605 250.504394 
L 28.44288 250.254082 
L 28.215424 250.136119 
L 27.974158 250.126529 
L 27.813314 250.197498 
L 28.222735 250.197498 
L 28.037521 250.656882 
L 27.773509 250.582077 
L 27.501374 250.372045 
L 27.299101 250.423834 
L 27.206493 250.415202 
L 27.172375 250.084331 
L 27.243861 249.661391 
L 27.472942 249.378472 
" clip-path="url(#p7fead0d712)" style="fill: #f5f5f5; stroke: #000000"/>
    <path d="M 30.279588 249.202007 
L 30.099248 249.353536 
L 29.906722 249.373676 
L 29.529795 249.202007 
L 29.694701 248.81551 
L 29.903473 248.568076 
L 30.137428 248.436687 
L 30.381943 248.398325 
L 30.418499 248.444359 
L 30.416874 248.549854 
L 30.406313 248.659186 
L 30.416062 248.720565 
L 30.689009 248.89607 
L 30.837668 248.912374 
L 30.974141 248.891275 
L 31.088682 248.952654 
L 31.171541 249.202007 
L 30.943272 249.485885 
L 30.652453 249.717975 
L 30.347825 249.857036 
L 30.074877 249.861832 
L 30.145551 249.714138 
L 30.199166 249.552059 
L 30.279588 249.202007 
" clip-path="url(#p7fead0d712)" style="fill: #f5f5f5; stroke: #000000"/>
    <path d="M 26.382777 248.89607 
L 26.204062 249.021706 
L 26.013974 249.046641 
L 25.819011 248.998689 
L 25.625674 248.89607 
L 25.595617 248.925801 
L 25.546876 249.002525 
L 25.487575 249.065822 
L 25.422588 249.057191 
L 25.416089 248.999648 
L 25.425837 248.776189 
L 25.422588 248.720565 
L 25.20163 248.496147 
L 25.093589 248.424219 
L 24.784086 248.338864 
L 24.555005 248.18158 
L 24.351919 247.952367 
L 24.264186 247.681916 
L 24.333235 247.410505 
L 24.498953 247.215819 
L 24.69879 247.112241 
L 24.870194 247.111282 
L 24.870194 246.950162 
L 24.394161 246.306641 
L 24.429904 246.000705 
L 24.491642 245.766697 
L 24.589124 245.642021 
L 24.733721 245.662161 
L 24.893752 245.83479 
L 25.332418 246.179088 
L 25.422588 246.387201 
L 25.455081 246.593396 
L 25.537128 246.715195 
L 25.638671 246.773697 
L 25.728029 246.789042 
L 25.911618 247.287747 
L 25.911618 247.433522 
L 25.619175 247.310764 
L 25.478639 247.297338 
L 25.354351 247.433522 
L 25.488388 247.563953 
L 25.775957 247.74809 
L 25.911618 247.914964 
L 25.830384 248.09047 
L 26.156134 248.058822 
L 26.29342 248.142259 
L 26.382777 248.398325 
L 26.140699 248.568076 
L 26.041593 248.57383 
L 26.202437 248.691793 
L 26.286921 248.723442 
L 26.382777 248.720565 
L 26.382777 248.89607 
" clip-path="url(#p7fead0d712)" style="fill: #f5f5f5; stroke: #000000"/>
    <path d="M 23.671176 245.413767 
L 23.563134 245.667915 
L 23.419349 245.931653 
L 23.292624 246.035231 
L 23.229261 245.808895 
L 23.321868 245.357184 
L 23.554198 244.778878 
L 23.830395 244.358815 
L 24.052977 244.37416 
L 24.016422 244.698318 
L 23.919753 244.942875 
L 23.671176 245.413767 
" clip-path="url(#p7fead0d712)" style="fill: #f5f5f5; stroke: #000000"/>
    <path d="M 19.610272 245.413767 
L 19.420996 245.270869 
L 19.079812 245.216204 
L 18.92303 245.01864 
L 19.026197 244.517058 
L 18.949837 244.241811 
L 18.80524 243.993418 
L 18.712633 243.570477 
L 18.92303 243.570477 
L 19.204913 243.984786 
L 19.468924 244.53528 
L 19.495732 244.755861 
L 19.667948 245.404177 
L 19.610272 245.413767 
" clip-path="url(#p7fead0d712)" style="fill: #f5f5f5; stroke: #000000"/>
    <path d="M 20.360065 243.570477 
L 20.527407 243.9704 
L 21.035934 244.053838 
L 21.23902 244.37416 
L 21.194341 244.387586 
L 21.164285 244.41444 
L 21.123667 244.422112 
L 21.048119 244.37416 
L 21.001816 244.602413 
L 20.979883 244.822035 
L 20.992068 245.016722 
L 21.048119 245.164415 
L 20.881589 245.138521 
L 20.753239 245.239221 
L 20.723995 245.426235 
L 20.843409 245.662161 
L 20.59402 245.507754 
L 20.340569 245.218122 
L 20.130984 244.784632 
L 20.019693 244.199613 
L 19.888093 244.442252 
L 19.780052 244.523771 
L 19.705316 244.384709 
L 19.678509 243.964646 
L 19.757306 243.629938 
L 19.944145 243.524443 
L 20.360065 243.570477 
" clip-path="url(#p7fead0d712)" style="fill: #f5f5f5; stroke: #000000"/>
    <path d="M 19.406374 243.394972 
L 19.230095 243.417989 
L 19.152923 243.2655 
L 19.117992 243.056428 
L 19.064377 242.911611 
L 18.864541 242.841601 
L 18.752438 242.768713 
L 18.650082 242.59033 
L 18.559912 242.239319 
L 18.611902 242.091625 
L 18.854793 241.947768 
L 18.912469 241.783771 
L 18.953086 241.599634 
L 19.0132 241.504688 
L 19.126928 241.610183 
L 19.135051 241.812543 
L 19.16917 241.993803 
L 19.232532 242.146291 
L 19.331638 242.26809 
L 19.253653 242.603757 
L 19.203288 242.951891 
L 19.234969 243.199326 
L 19.406374 243.233852 
L 19.406374 243.394972 
" clip-path="url(#p7fead0d712)" style="fill: #f5f5f5; stroke: #000000"/>
    <path d="M 19.064377 235.977695 
L 18.737815 235.977695 
L 18.586719 235.928784 
L 18.445372 235.802189 
L 18.698823 235.560509 
L 19.186229 235.810821 
L 19.406374 235.655455 
L 19.372255 235.562427 
L 19.357633 235.483785 
L 19.347885 235.40898 
L 19.331638 235.318829 
L 19.393376 235.264163 
L 19.483546 235.098248 
L 19.542035 235.011934 
L 19.252029 234.544877 
L 19.068439 234.384716 
L 18.854793 234.354986 
L 19.120429 233.952186 
L 19.2699 233.85724 
L 19.468924 233.871626 
L 19.638704 234.228392 
L 19.7898 234.452809 
L 20.161041 234.837387 
L 19.966078 235.08578 
L 19.804422 235.160586 
L 19.698005 235.314993 
L 19.678509 235.802189 
L 19.600524 236.020852 
L 19.393376 236.045787 
L 19.172419 235.947965 
L 19.064377 235.977695 
" clip-path="url(#p7fead0d712)" style="fill: #f5f5f5; stroke: #000000"/>
    <path d="M 20.638698 180.240707 
L 20.569649 180.555275 
L 20.565588 180.86217 
L 20.613516 181.139335 
L 20.701249 181.381015 
L 20.463232 181.520077 
L 20.192722 181.576661 
L 20.057873 181.493224 
L 20.223591 181.205509 
L 20.0465 181.196878 
L 19.331638 181.864375 
L 19.331638 182.024536 
L 19.4015 182.045635 
L 19.604586 182.170312 
L 19.434806 182.377466 
L 19.254466 182.477207 
L 18.854793 182.505978 
L 18.732129 182.324718 
L 18.613527 182.060021 
L 18.494925 181.736822 
L 18.30971 181.542135 
L 18.179736 181.619818 
L 18.038388 181.76943 
L 17.894603 181.763675 
L 17.758129 181.381015 
L 17.967714 181.381015 
L 17.967714 181.205509 
L 17.838551 181.092342 
L 17.554231 180.696255 
L 17.451064 180.495814 
L 17.388513 180.271397 
L 17.241479 179.52238 
L 17.213047 179.274946 
L 17.625717 179.648016 
L 18.016455 179.605817 
L 18.416127 179.44182 
L 18.854793 179.435107 
L 18.854793 179.580882 
L 18.693136 179.655688 
L 18.57291 179.838866 
L 18.372261 180.415254 
L 18.400693 180.599391 
L 18.416127 180.630081 
L 18.410441 180.632958 
L 18.372261 180.736535 
L 18.516046 180.840112 
L 19.064377 180.883269 
L 19.142362 180.940812 
L 19.214661 181.035758 
L 19.287772 181.076038 
L 19.369006 180.971502 
L 19.39825 180.800791 
L 19.365757 180.662688 
L 19.323515 180.538012 
L 19.331638 180.415254 
L 19.576966 180.119867 
L 19.978263 179.912713 
L 20.381186 179.913672 
L 20.638698 180.240707 
" clip-path="url(#p7fead0d712)" style="fill: #f5f5f5; stroke: #000000"/>
    <path d="M 19.604586 179.274946 
L 19.572092 178.892286 
L 19.478672 178.84817 
L 19.34626 178.935443 
L 19.195165 178.952706 
L 18.712633 178.308226 
L 18.761373 178.21328 
L 18.808489 178.176836 
L 18.92303 178.161491 
L 19.186229 178.026266 
L 19.52985 177.676213 
L 19.878345 177.484404 
L 20.161041 177.825825 
L 20.156979 178.199853 
L 20.001009 178.617998 
L 19.604586 179.274946 
" clip-path="url(#p7fead0d712)" style="fill: #f5f5f5; stroke: #000000"/>
    <path d="M 56.287749 137.620073 
L 56.688524 137.563309 
L 56.970331 137.894045 
L 56.632847 138.10289 
L 55.976123 138.099117 
L 55.129222 137.8522 
L 54.553064 137.898743 
L 54.372342 138.346897 
L 53.581905 138.837126 
L 53.86548 139.485321 
L 54.480508 139.409237 
L 54.629576 139.555976 
L 54.517473 139.671062 
L 54.403745 139.691202 
L 54.285142 139.679694 
L 54.158417 139.701752 
L 54.069872 139.770803 
L 53.968329 139.94535 
L 53.878971 140.023992 
L 53.705129 140.07578 
L 53.489858 140.056599 
L 53.36557 139.90507 
L 53.464676 139.555976 
L 53.419185 139.472539 
L 53.333889 139.233736 
L 53.198227 138.999729 
L 52.943151 139.578994 
L 52.675891 139.676817 
L 52.334147 139.095179 
L 52.150897 138.69408 
L 52.059977 138.378748 
L 51.988648 138.042599 
L 52.218541 137.754884 
L 52.901363 137.028078 
L 53.766787 136.956155 
L 54.701284 136.684439 
L 55.186313 136.87055 
L 55.324935 137.212039 
L 55.085667 137.367152 
L 55.183786 137.524956 
L 55.420157 137.4933 
L 55.717075 137.524896 
L 56.287749 137.620073 
" clip-path="url(#p7fead0d712)" style="fill: #f5f5f5; stroke: #000000"/>
    <path d="M 45.524833 257.392276 
L 45.607692 257.490099 
L 45.573574 257.526543 
L 45.576823 257.723147 
L 45.459846 257.855496 
L 45.33312 257.843988 
L 45.329871 257.915916 
L 45.315249 257.95236 
L 45.234014 257.99264 
L 45.081294 258.02237 
L 44.935884 257.867005 
L 44.878208 257.884268 
L 44.848151 257.835356 
L 44.913951 257.641628 
L 45.07642 257.407621 
L 45.295752 257.320347 
L 45.524833 257.392276 
" clip-path="url(#p7fead0d712)" style="fill: #f5f5f5; stroke: #000000"/>
    <path d="M 35.264938 255.169203 
L 35.567942 255.148104 
L 35.656488 255.225787 
L 35.586626 255.391702 
L 35.559006 255.606529 
L 35.500518 255.78683 
L 35.456651 255.861635 
L 35.398163 255.881775 
L 35.325052 255.985353 
L 35.231632 256.31047 
L 35.191827 256.506116 
L 35.113842 256.624079 
L 34.987117 256.497484 
L 34.902633 256.10907 
L 34.948937 255.792584 
L 35.224321 255.750386 
L 35.229195 255.633382 
L 35.143087 255.552822 
L 35.011487 255.543232 
L 34.94325 255.456917 
L 35.024485 255.291961 
L 35.264938 255.169203 
" clip-path="url(#p7fead0d712)" style="fill: #f5f5f5; stroke: #000000"/>
    <path d="M 35.965178 254.155489 
L 36.006608 254.30606 
L 36.02123 254.483484 
L 35.962741 254.672416 
L 35.857949 254.770239 
L 35.758843 254.78942 
L 35.710102 254.742427 
L 35.7231 254.651317 
L 35.669485 254.647481 
L 35.541135 254.770239 
L 35.380291 254.857512 
L 35.095158 254.845045 
L 35.007425 254.856553 
L 34.846581 254.828741 
L 34.84252 254.745304 
L 34.957872 254.607201 
L 35.031796 254.390456 
L 35.124403 254.177547 
L 35.188578 254.087397 
L 35.30718 253.959843 
L 35.560631 253.818863 
L 35.766966 253.836126 
L 35.890443 253.970393 
L 35.965178 254.155489 
" clip-path="url(#p7fead0d712)" style="fill: #f5f5f5; stroke: #000000"/>
    <path d="M 26.322664 253.703778 
L 26.404711 253.738303 
L 26.530624 253.873529 
L 26.480259 254.045199 
L 26.283672 254.125759 
L 26.121203 254.141104 
L 25.846631 254.092192 
L 25.80114 254.026018 
L 25.70772 253.830372 
L 25.765397 253.672129 
L 25.913243 253.567593 
L 26.028596 253.516763 
L 26.179692 253.684597 
L 26.322664 253.703778 
" clip-path="url(#p7fead0d712)" style="fill: #f5f5f5; stroke: #000000"/>
    <path d="M 29.533044 252.242189 
L 30.150425 251.957351 
L 30.25603 252.164506 
L 30.079751 252.585528 
L 29.84336 252.786928 
L 29.601281 252.900096 
L 29.592345 252.993123 
L 29.733693 253.136021 
L 29.770249 253.266452 
L 29.638649 253.304814 
L 29.388447 253.304814 
L 29.28528 253.234803 
L 29.32346 253.183015 
L 29.324272 253.082315 
L 29.30965 252.886669 
L 29.338894 252.751443 
L 29.383573 252.699654 
L 29.392509 252.620054 
L 29.394946 252.47236 
L 29.446936 252.316994 
L 29.533044 252.242189 
" clip-path="url(#p7fead0d712)" style="fill: #f5f5f5; stroke: #000000"/>
    <path d="M 26.238993 250.049805 
L 26.17563 250.059396 
L 26.136637 250.041174 
L 26.197563 249.949105 
L 26.370592 249.787026 
L 26.490007 249.759214 
L 26.467261 249.881013 
L 26.364906 249.995139 
L 26.238993 250.049805 
" clip-path="url(#p7fead0d712)" style="fill: #f5f5f5; stroke: #000000"/>
    <path d="M 25.976606 250.134201 
L 25.853942 250.23586 
L 25.667915 250.231065 
L 25.505447 250.164891 
L 25.368973 249.938556 
L 25.258494 249.943351 
L 25.162638 249.580831 
L 25.206504 249.447523 
L 25.36085 249.445605 
L 25.494074 249.474376 
L 25.663041 249.397653 
L 26.00585 249.409161 
L 26.145573 249.476294 
L 26.161008 249.635496 
L 25.976606 250.134201 
" clip-path="url(#p7fead0d712)" style="fill: #f5f5f5; stroke: #000000"/>
    <path d="M 29.398195 248.102938 
L 29.297465 248.329273 
L 28.425008 248.677408 
L 28.31453 248.711933 
L 28.105757 248.65439 
L 27.976595 248.47313 
L 27.97497 248.321601 
L 28.046456 248.242959 
L 28.95953 247.947572 
L 29.251161 247.928391 
L 29.398195 248.102938 
" clip-path="url(#p7fead0d712)" style="fill: #f5f5f5; stroke: #000000"/>
    <path d="M 28.465625 247.750008 
L 28.478623 247.914964 
L 27.529806 248.448195 
L 27.447759 248.419424 
L 27.625663 248.007033 
L 27.783257 247.831527 
L 27.872615 247.799879 
L 28.465625 247.750008 
" clip-path="url(#p7fead0d712)" style="fill: #f5f5f5; stroke: #000000"/>
    <path d="M 19.799548 247.730827 
L 19.941708 248.035804 
L 19.989636 248.325437 
L 19.971765 248.475048 
L 19.946582 248.478885 
L 19.875908 248.427096 
L 19.802797 248.444359 
L 19.755681 248.375307 
L 19.758931 248.21131 
L 19.729686 248.159522 
L 19.656576 248.124037 
L 19.458364 248.18158 
L 19.364132 248.033886 
L 19.381191 247.867012 
L 19.449428 247.723155 
L 19.497356 247.584093 
L 19.617583 247.539018 
L 19.799548 247.730827 
" clip-path="url(#p7fead0d712)" style="fill: #f5f5f5; stroke: #000000"/>
    <path d="M 72.345157 246.242385 
L 72.764326 246.587642 
L 72.849622 246.704646 
L 72.820378 246.83124 
L 72.688778 246.988524 
L 72.055963 247.212941 
L 71.914615 247.399956 
L 71.811448 247.84879 
L 71.709092 247.855503 
L 71.587241 247.688629 
L 71.397965 247.257058 
L 71.460515 247.07292 
L 71.934111 246.94249 
L 72.07221 246.825486 
L 72.132323 246.693137 
L 72.127449 246.522427 
L 72.174565 246.370897 
L 72.259049 246.255812 
L 72.345157 246.242385 
" clip-path="url(#p7fead0d712)" style="fill: #f5f5f5; stroke: #000000"/>
    <path d="M 26.668722 178.463591 
L 26.741021 178.466469 
L 27.013968 178.936402 
L 26.987161 179.108072 
L 26.87262 179.407295 
L 26.704465 179.519503 
L 26.545246 179.511831 
L 26.477822 179.433189 
L 26.488382 179.264396 
L 26.452639 179.195345 
L 26.385214 179.246175 
L 26.363281 179.346875 
L 26.353533 179.456206 
L 26.306417 179.515667 
L 26.251178 179.525257 
L 26.190252 179.458124 
L 26.15126 179.297963 
L 26.184566 179.01888 
L 26.297481 178.742674 
L 26.429893 178.670746 
L 26.624856 178.81748 
L 26.70609 178.788709 
L 26.668722 178.670746 
L 26.526562 178.508667 
L 26.482696 178.400294 
L 26.533873 178.371523 
L 26.592362 178.368646 
L 26.628917 178.43482 
L 26.668722 178.463591 
" clip-path="url(#p7fead0d712)" style="fill: #f5f5f5; stroke: #000000"/>
    <path d="M 27.84662 180.132335 
L 27.769447 180.152475 
L 27.260108 179.887778 
L 27.199182 179.781323 
L 27.237362 179.6835 
L 27.190247 179.588555 
L 27.076519 179.4821 
L 27.092765 179.367015 
L 27.162627 179.312349 
L 27.238987 179.269192 
L 27.294227 179.113826 
L 27.233301 178.88845 
L 27.133383 178.685131 
L 27.097639 178.549906 
L 27.191871 178.477977 
L 27.331594 178.443451 
L 27.50706 178.305349 
L 27.640285 178.365769 
L 27.725581 178.376318 
L 27.804378 178.463591 
L 27.883988 178.619916 
L 27.986343 178.72733 
L 28.039958 178.711026 
L 28.048081 178.593063 
L 28.100883 178.53552 
L 28.189429 178.56621 
L 28.266601 178.639097 
L 28.309656 178.738838 
L 28.360021 178.75706 
L 28.429882 178.685131 
L 28.483497 178.564291 
L 28.510304 178.388786 
L 28.556608 178.210403 
L 28.619971 178.078054 
L 28.666274 178.029143 
L 28.715827 178.0723 
L 28.759694 178.250683 
L 28.773504 178.385909 
L 28.792187 178.662114 
L 28.865298 178.820357 
L 28.847427 178.92873 
L 28.746696 179.148352 
L 28.629719 179.459083 
L 28.489996 179.617326 
L 28.276349 179.611572 
L 27.969284 179.256724 
L 27.549302 179.360301 
L 27.546053 179.406336 
L 27.79463 179.479223 
L 27.989592 179.598145 
L 28.035084 179.851334 
L 27.976595 180.011495 
L 27.891299 180.028758 
L 27.844995 180.068079 
L 27.84662 180.132335 
" clip-path="url(#p7fead0d712)" style="fill: #f5f5f5; stroke: #000000"/>
    <path d="M 25.979855 178.242051 
L 25.897809 178.190263 
L 25.880749 178.09244 
L 25.897809 178.043528 
L 25.921366 177.958173 
L 25.970107 177.824866 
L 26.01966 177.718411 
L 26.068401 177.577431 
L 26.124452 177.451796 
L 26.18944 177.363563 
L 26.243867 177.259986 
L 26.273111 177.151614 
L 26.371405 176.990494 
L 26.553369 176.97419 
L 26.709339 177.022142 
L 26.865309 176.92432 
L 27.00422 176.90418 
L 27.055398 176.935828 
L 27.104138 176.978985 
L 27.199995 177.019265 
L 27.296664 177.008716 
L 27.365713 177.019265 
L 27.365713 177.094071 
L 27.294227 177.157368 
L 27.199995 177.17559 
L 27.208118 177.252314 
L 27.256859 177.40768 
L 27.167501 177.571677 
L 26.999346 177.623465 
L 26.675221 177.42782 
L 26.533873 177.485363 
L 26.426644 177.70978 
L 26.377903 177.845006 
L 26.248741 178.017634 
L 26.068401 178.205608 
L 25.979855 178.242051 
" clip-path="url(#p7fead0d712)" style="fill: #f5f5f5; stroke: #000000"/>
    <path d="M 34.472091 167.684852 
L 34.626436 167.691565 
L 34.680863 167.760617 
L 34.647557 167.842136 
L 34.603691 167.874743 
L 34.59313 167.936122 
L 34.583382 168.068471 
L 34.54439 168.227673 
L 34.512708 168.298643 
L 34.486713 168.448254 
L 34.413603 168.659245 
L 34.325057 168.611292 
L 34.213766 168.50292 
L 34.165025 168.574848 
L 34.197519 168.750354 
L 34.153653 168.89517 
L 34.0383 168.922024 
L 33.959503 169.023683 
L 33.789723 169.075471 
L 33.586637 168.931614 
L 33.423356 168.701443 
L 33.316939 168.354267 
L 33.264949 168.260281 
L 33.225957 168.177803 
L 33.20971 168.064635 
L 33.424168 167.915023 
L 33.508652 167.829668 
L 33.589886 167.700197 
L 33.766977 167.541954 
L 34.031801 167.403851 
L 34.210517 167.427827 
L 34.290939 167.585111 
L 34.349427 167.728968 
L 34.395731 167.766371 
L 34.43716 167.715541 
L 34.472091 167.684852 
" clip-path="url(#p7fead0d712)" style="fill: #f5f5f5; stroke: #000000"/>
    <path d="M 31.383562 259.650834 
L 31.50054 259.682482 
L 31.526535 259.742902 
L 31.44855 259.860865 
L 30.836043 260.267502 
L 30.676824 260.313536 
L 30.559846 260.232976 
L 30.537913 260.03733 
L 30.618335 259.932794 
L 30.676824 259.92704 
L 30.736937 259.9069 
L 30.969267 259.760165 
L 31.199973 259.728517 
L 31.279582 259.673851 
L 31.383562 259.650834 
" clip-path="url(#p7fead0d712)" style="fill: #f5f5f5; stroke: #000000"/>
    <path d="M 22.418542 250.76046 
L 22.572888 250.751828 
L 22.680929 250.813207 
L 22.629752 251.036665 
L 22.515211 251.231352 
L 22.478656 251.386718 
L 22.43154 251.520985 
L 22.337308 251.540166 
L 22.288568 251.520985 
L 22.193523 251.543043 
L 22.049739 251.43467 
L 22.037554 251.111471 
L 22.125287 250.734565 
L 22.283693 250.41808 
L 22.460784 250.431506 
L 22.481905 250.622357 
L 22.388486 250.708671 
L 22.418542 250.76046 
" clip-path="url(#p7fead0d712)" style="fill: #f5f5f5; stroke: #000000"/>
    <path d="M 19.015637 236.659578 
L 19.093622 236.70753 
L 19.096059 237.02018 
L 19.052192 237.197604 
L 18.922217 237.134307 
L 18.519295 236.843715 
L 18.474616 236.891668 
L 18.445372 236.852347 
L 18.433187 236.772746 
L 18.376323 236.679718 
L 18.284528 236.579018 
L 18.316209 236.484072 
L 18.486801 236.421734 
L 18.636272 236.521475 
L 18.667141 236.725752 
L 18.686638 236.800558 
L 18.774371 236.765073 
L 18.840983 236.774664 
L 18.879163 236.826452 
L 18.940089 236.800558 
L 19.015637 236.659578 
" clip-path="url(#p7fead0d712)" style="fill: #f5f5f5; stroke: #000000"/>
    <path d="M 20.636261 229.031311 
L 20.710997 229.119543 
L 20.733743 229.155987 
L 20.653321 229.140642 
L 20.30645 228.93157 
L 20.1123 229.046656 
L 19.94252 229.048574 
L 19.885656 229.01213 
L 19.900278 229.004458 
L 19.916525 229.000621 
L 19.89053 228.910471 
L 19.848289 228.704276 
L 19.883219 228.570968 
L 19.953893 228.543156 
L 19.992886 228.48849 
L 19.986387 228.422316 
L 20.04975 228.281335 
L 20.218717 228.152823 
L 20.331633 228.2564 
L 20.275581 228.459718 
L 20.309699 228.666873 
L 20.636261 229.031311 
" clip-path="url(#p7fead0d712)" style="fill: #f5f5f5; stroke: #000000"/>
    <path d="M 21.628133 218.25449 
L 21.65494 218.27463 
L 21.676873 218.369575 
L 21.635444 218.45589 
L 21.562333 218.467398 
L 21.520903 218.531654 
L 21.494096 218.629477 
L 21.425859 218.63715 
L 21.200028 218.564262 
L 21.035934 218.438627 
L 21.016438 218.363821 
L 21.126104 218.340804 
L 21.261766 218.102001 
L 21.628133 218.25449 
" clip-path="url(#p7fead0d712)" style="fill: #f5f5f5; stroke: #000000"/>
    <path d="M 18.506298 187.325194 
L 18.335705 187.143934 
L 18.250409 187.234085 
L 18.103375 187.330948 
L 17.888917 187.159279 
L 17.7825 186.931025 
L 17.787374 186.830325 
L 17.840988 186.806349 
L 17.904351 186.870605 
L 17.927909 186.91664 
L 17.970151 186.821694 
L 18.015642 186.637557 
L 17.94903 186.536857 
L 17.826366 186.421771 
L 17.74107 186.227084 
L 17.726448 186.039111 
L 17.784937 185.902926 
L 17.874294 185.81853 
L 17.93847 185.814694 
L 17.9734 185.897172 
L 18.020516 185.955674 
L 18.269093 186.071719 
L 18.377947 186.190641 
L 18.494925 186.384368 
L 18.581033 186.643311 
L 18.633023 186.968428 
L 18.640334 187.204354 
L 18.586719 187.305054 
L 18.506298 187.325194 
" clip-path="url(#p7fead0d712)" style="fill: #f5f5f5; stroke: #000000"/>
   </g>
  </g>
 </g>
 <defs>
  <clipPath id="p7fead0d712">
   <rect x="7.2" y="7.2" width="120.194111" height="266.112"/>
  </clipPath>
 </defs>
</svg>
