<?xml version="1.0" encoding="utf-8" standalone="no"?>
<!DOCTYPE svg PUBLIC "-//W3C//DTD SVG 1.1//EN"
  "http://www.w3.org/Graphics/SVG/1.1/DTD/svg11.dtd">
<svg xmlns:xlink="http://www.w3.org/1999/xlink" width="292.628909pt" height="280.512pt" viewBox="0 0 292.628909 280.512" xmlns="http://www.w3.org/2000/svg" version="1.1">
 <metadata>
  <rdf:RDF xmlns:dc="http://purl.org/dc/elements/1.1/" xmlns:cc="http://creativecommons.org/ns#" xmlns:rdf="http://www.w3.org/1999/02/22-rdf-syntax-ns#">
   <cc:Work>
    <dc:type rdf:resource="http://purl.org/dc/dcmitype/StillImage"/>
    <dc:date>2024-03-04T13:11:10.537875</dc:date>
    <dc:format>image/svg+xml</dc:format>
    <dc:creator>
     <cc:Agent>
      <dc:title>Matplotlib v3.8.0, https://matplotlib.org/</dc:title>
     </cc:Agent>
    </dc:creator>
   </cc:Work>
  </rdf:RDF>
 </metadata>
 <defs>
  <style type="text/css">*{stroke-linejoin: round; stroke-linecap: butt}</style>
 </defs>
 <g id="figure_1">
  <g id="patch_1">
   <path d="M 0 280.512 
L 292.628909 280.512 
L 292.628909 0 
L 0 0 
z
" style="fill: #ffffff"/>
  </g>
  <g id="axes_1">
   <g id="PatchCollection_1">
    <path d="M 151.623866 19.296 
L 151.886115 19.866621 
L 152.058703 20.964826 
L 152.229513 21.445129 
L 152.845137 22.068817 
L 153.115585 22.441743 
L 153.170742 22.936835 
L 153.069324 23.086006 
L 152.672549 23.448645 
L 152.57291 23.676259 
L 152.912749 24.768033 
L 152.893177 24.930063 
L 152.759733 25.206543 
L 152.74194 25.320993 
L 152.797097 25.405866 
L 153.005271 25.503599 
L 153.083558 25.584614 
L 153.231237 25.899672 
L 153.321979 26.041127 
L 153.448307 26.092565 
L 153.700962 26.141431 
L 153.841524 26.146575 
L 154.161791 26.105425 
L 154.325483 26.122142 
L 154.551449 26.231448 
L 154.638633 26.375475 
L 154.692011 26.543935 
L 154.805884 26.730398 
L 155.446418 27.29236 
L 155.544277 27.456962 
L 155.775581 27.95977 
L 155.866324 28.112798 
L 156.184811 28.358415 
L 157.561907 28.937581 
L 157.640248 28.970529 
L 157.908916 29.023253 
L 158.136662 28.862509 
L 158.654427 28.038213 
L 158.967577 27.728298 
L 159.364352 27.500684 
L 160.266288 27.241162 
L 161.63469 26.84742 
L 162.081285 26.972157 
L 162.373084 27.22549 
L 162.659125 27.697126 
L 162.897966 28.090937 
L 163.109698 28.564168 
L 163.246702 28.710767 
L 163.488681 28.741629 
L 163.719985 28.811071 
L 163.856988 29.041257 
L 164.052707 29.634081 
L 163.812507 30.049444 
L 163.951289 30.769578 
L 164.40678 32.169982 
L 164.433469 32.963415 
L 164.522432 33.246325 
L 164.79288 33.566527 
L 165.018846 33.731129 
L 165.771474 34.092482 
L 166.072169 34.170925 
L 166.490296 34.124631 
L 167.244703 33.871298 
L 167.477786 33.70541 
L 167.648595 33.547238 
L 167.824742 33.440504 
L 168.07028 33.4225 
L 168.317598 33.491942 
L 168.429691 33.621823 
L 168.403002 33.822432 
L 168.235752 34.098912 
L 168.449263 34.24551 
L 169.561302 34.25194 
L 169.95096 34.327812 
L 170.328163 34.501415 
L 170.669782 34.803614 
L 170.949126 35.272987 
L 171.095025 36.234881 
L 171.096805 37.396097 
L 171.248042 38.413286 
L 171.852991 38.937955 
L 171.920603 38.777211 
L 171.945512 38.763065 
L 171.973981 38.786212 
L 172.052268 38.73606 
L 172.098529 38.661475 
L 172.173258 38.454436 
L 172.482849 37.96706 
L 172.621632 37.820461 
L 172.854715 37.740732 
L 173.605564 37.688008 
L 174.320827 37.769023 
L 174.676679 37.936197 
L 174.972037 38.127804 
L 175.279849 38.264115 
L 175.669507 38.260257 
L 176.763753 37.833321 
L 177.128502 37.797314 
L 177.463003 37.945199 
L 178.034146 38.531593 
L 178.400674 38.728344 
L 178.756526 39.022828 
L 179.228031 39.960288 
L 179.544739 40.097885 
L 179.671067 39.982149 
L 179.649716 39.811117 
L 179.658612 39.651659 
L 179.873903 39.566786 
L 180.028699 39.618224 
L 180.260003 39.753249 
L 180.473514 39.926853 
L 180.578491 40.088883 
L 180.537568 40.348646 
L 180.368538 40.528679 
L 179.962866 40.823163 
L 179.779602 41.066208 
L 179.701315 41.269389 
L 179.608793 41.722044 
L 179.27785 42.719944 
L 179.236927 43.170028 
L 179.480686 43.284478 
L 179.824084 43.139165 
L 180.009127 43.11216 
L 180.179936 43.193175 
L 180.469956 44.266946 
L 180.573153 44.50099 
L 180.692363 44.699027 
L 180.687026 44.862343 
L 180.274237 45.05395 
L 179.875682 45.318856 
L 179.560753 45.592764 
L 179.436204 45.735505 
L 179.349021 45.921968 
L 179.27785 46.215166 
L 179.359696 46.247315 
L 179.453997 46.627957 
L 179.475348 46.993168 
L 179.350401 46.982612 
L 179.338345 46.981594 
L 180.302705 47.466398 
L 180.534009 47.528124 
L 180.789402 47.493702 
L 181.850663 47.350663 
L 184.433874 48.0122 
L 184.562258 48.045078 
L 185.072906 47.961491 
L 187.47313 46.851713 
L 188.190172 46.744979 
L 188.376995 46.630529 
L 188.535349 46.346333 
L 188.656339 45.951545 
L 188.788004 45.156826 
L 188.770212 44.985794 
L 188.706158 44.861057 
L 188.665235 44.711886 
L 188.711496 44.466269 
L 188.811135 44.270804 
L 190.647333 42.542482 
L 191.11172 42.344446 
L 191.190008 42.7148 
L 191.383947 42.790671 
L 191.923064 42.686509 
L 192.081418 42.880688 
L 192.058288 43.316626 
L 191.965766 43.831008 
L 191.926622 44.266946 
L 191.741579 44.079197 
L 191.636603 44.102344 
L 191.312777 44.76461 
L 191.293205 44.989652 
L 191.319894 45.196691 
L 191.303881 45.462883 
L 190.641995 46.999597 
L 190.567266 47.396957 
L 190.796791 47.74545 
L 191.611693 48.057937 
L 191.880361 48.515737 
L 191.910609 48.839797 
L 191.866127 49.054551 
L 191.778944 49.262875 
L 191.686422 49.567646 
L 191.629486 49.697528 
L 191.476469 49.864702 
L 191.444442 50.016444 
L 191.480028 50.141182 
L 191.649057 50.40223 
L 191.69176 50.550115 
L 191.688201 51.481145 
L 191.842997 51.67018 
L 192.29315 51.73062 
L 192.67925 51.672752 
L 193.42654 51.425849 
L 193.742586 51.411221 
L 193.78773 51.409132 
L 194.099101 51.571162 
L 194.739635 52.163987 
L 195.083033 52.346592 
L 195.696878 52.51248 
L 195.901493 52.696371 
L 196.634549 53.691699 
L 196.890763 53.924457 
L 197.203913 54.143069 
L 197.600688 54.252375 
L 198.378225 54.049194 
L 198.750091 54.040193 
L 199.109502 54.374541 
L 199.442224 54.757755 
L 199.561435 55.130681 
L 199.483147 55.220698 
L 199.344365 55.304285 
L 199.290987 55.656636 
L 199.33191 55.885536 
L 199.415535 55.983268 
L 199.701996 56.035993 
L 199.824765 55.999986 
L 199.915508 55.873962 
L 199.988457 55.737651 
L 200.052511 55.670782 
L 200.159267 55.687499 
L 200.354985 55.798091 
L 200.888764 55.981983 
L 201.021171 56.093628 
L 201.209031 56.252033 
L 202.038167 57.662724 
L 202.109337 57.890338 
L 202.105779 58.1501 
L 202.050622 58.384144 
L 202.032829 58.606614 
L 202.139585 58.827798 
L 202.511451 58.920386 
L 202.958045 58.674769 
L 203.390406 58.354567 
L 203.714232 58.218256 
L 204.253348 58.454871 
L 204.401027 58.492164 
L 204.655461 58.460015 
L 204.712397 58.359711 
L 204.751541 58.180963 
L 204.956156 57.917343 
L 205.384958 57.71159 
L 205.772837 57.795177 
L 206.142924 57.967495 
L 206.51479 58.027935 
L 206.728301 57.94049 
L 206.950709 57.66401 
L 207.135752 57.571421 
L 207.320795 57.59714 
L 207.697999 57.815752 
L 207.899055 57.862047 
L 208.439951 58.539744 
L 208.740646 58.80465 
L 209.173007 58.996258 
L 210.265473 59.241875 
L 210.589299 59.549218 
L 210.825941 60.261636 
L 211.124857 60.167761 
L 212.592748 60.084174 
L 212.845403 59.995443 
L 213.012654 59.756256 
L 213.220827 59.681671 
L 213.259971 59.547932 
L 213.258192 59.388473 
L 213.348934 59.236731 
L 213.471703 59.190437 
L 213.957442 59.148 
L 213.845348 58.9191 
L 214.834618 58.816224 
L 215.323915 58.86509 
L 215.795419 59.042552 
L 215.825575 59.063799 
L 216.645906 59.641806 
L 217.103176 59.878422 
L 217.447103 59.912645 
L 217.594253 59.927288 
L 217.777517 59.893853 
L 218.104901 59.681671 
L 218.245463 59.630233 
L 218.435844 59.661096 
L 220.015828 60.405663 
L 220.311185 60.674427 
L 220.417941 60.881465 
L 220.464202 61.087218 
L 220.467761 61.226101 
L 220.433955 61.236389 
L 220.553165 61.402277 
L 221.389418 62.240718 
L 221.448134 62.389889 
L 221.373405 62.590498 
L 221.067372 62.604643 
L 220.973071 62.832257 
L 221.081606 63.121596 
L 221.369846 63.452086 
L 222.514801 64.496281 
L 222.54149 64.601729 
L 222.505905 64.853776 
L 222.525477 64.95408 
L 222.617998 65.022236 
L 222.856419 65.103251 
L 222.929369 65.175264 
L 223.064593 65.636921 
L 223.11975 65.741084 
L 223.139322 65.79638 
L 223.173128 65.991845 
L 223.219389 66.080575 
L 223.295897 66.07286 
L 223.527201 65.928833 
L 223.596592 65.927547 
L 223.705127 66.322335 
L 223.617944 66.637393 
L 223.569903 66.942164 
L 223.790532 67.290658 
L 223.993368 67.372959 
L 224.76023 67.379388 
L 225.431011 67.614718 
L 225.64986 67.567138 
L 225.946997 67.192925 
L 225.881165 66.780134 
L 225.751278 66.377631 
L 225.850917 66.031709 
L 226.023505 65.991845 
L 226.742327 66.147445 
L 227.244079 66.101151 
L 227.43446 66.128156 
L 228.509134 66.704263 
L 228.881 66.722266 
L 228.872104 67.600572 
L 229.071381 68.283414 
L 229.450364 68.566324 
L 229.978804 68.249979 
L 230.005493 68.123956 
L 229.950336 67.994074 
L 229.936102 67.856477 
L 230.092677 67.709879 
L 230.186978 67.721452 
L 230.845305 68.175394 
L 231.115753 68.309133 
L 231.3862 68.396578 
L 232.870105 68.409437 
L 233.332713 68.61519 
L 233.441248 68.630621 
L 233.542666 68.531603 
L 233.72415 68.180537 
L 233.832685 68.0558 
L 233.985702 68.005648 
L 234.337996 67.963211 
L 234.467882 67.905343 
L 234.555066 67.767746 
L 234.679614 67.406393 
L 234.759681 67.282942 
L 235.046142 67.128628 
L 235.115737 67.108685 
L 235.450034 67.012892 
L 235.784536 67.039897 
L 235.859265 67.317663 
L 236.602996 67.365243 
L 236.914367 67.473263 
L 237.02824 67.83333 
L 236.900133 67.911773 
L 236.85743 67.968355 
L 236.827183 68.050656 
L 237.069163 68.289844 
L 237.458821 68.890384 
L 237.684787 69.16172 
L 238.060211 69.388048 
L 238.812839 69.512785 
L 239.19538 69.70182 
L 239.321708 69.850991 
L 239.488959 70.173765 
L 239.649092 70.303647 
L 239.820795 70.340691 
L 239.887513 70.355085 
L 240.093908 70.304933 
L 240.294964 70.222632 
L 240.512034 70.178909 
L 240.702415 70.209772 
L 241.067164 70.333224 
L 241.232635 70.356371 
L 241.442588 70.304933 
L 241.846481 70.095322 
L 242.036862 70.046456 
L 243.469167 70.441244 
L 244.44954 70.343511 
L 244.760911 70.376946 
L 247.490299 71.761918 
L 249.182377 72.096266 
L 249.381654 72.275013 
L 249.374533 72.282797 
L 249.020464 72.669801 
L 248.483127 73.63941 
L 247.702031 75.690506 
L 247.48852 76.033856 
L 247.383543 76.120014 
L 246.751905 76.444075 
L 246.600668 76.450504 
L 246.563303 76.51223 
L 246.483237 76.58553 
L 246.40317 76.717983 
L 246.365805 76.952026 
L 246.328441 77.089623 
L 246.230582 77.170638 
L 246.098916 77.214361 
L 245.614957 77.222077 
L 245.419238 77.283802 
L 245.328496 77.506272 
L 245.307145 77.980789 
L 245.230636 78.17754 
L 245.045593 78.414155 
L 244.817848 78.626338 
L 244.613233 78.753647 
L 244.141728 79.293748 
L 243.878397 79.51236 
L 243.593716 79.601091 
L 243.392659 79.737402 
L 242.66672 80.824032 
L 242.520821 81.636755 
L 242.519041 82.502202 
L 242.721877 83.030729 
L 242.721877 83.20176 
L 242.291296 83.528393 
L 242.084902 83.731573 
L 241.995938 83.957258 
L 241.960353 84.431132 
L 241.873169 84.672891 
L 241.761076 84.833635 
L 241.641865 85.069608 
L 241.554682 85.353161 
L 241.428354 86.010283 
L 241.408782 86.336915 
L 241.463939 86.636542 
L 241.576033 86.954173 
L 241.663217 87.285949 
L 241.641865 87.633799 
L 241.405224 87.999653 
L 241.088515 88.165541 
L 240.81095 88.384796 
L 240.69174 88.907536 
L 240.656154 89.412916 
L 240.547619 89.834709 
L 240.366135 90.196061 
L 239.277226 91.669121 
L 239.163354 91.973249 
L 239.129548 92.33203 
L 239.042364 92.527495 
L 238.924933 92.677952 
L 238.800384 92.900422 
L 238.684732 93.279778 
L 238.576197 93.765225 
L 238.629575 94.792059 
L 239.373307 96.062581 
L 239.410671 96.839297 
L 239.246979 97.138924 
L 238.787929 97.611512 
L 238.695408 97.943931 
L 238.716759 98.348364 
L 238.684732 98.459599 
L 238.576197 98.709074 
L 238.506806 98.831882 
L 238.392933 98.939259 
L 238.341335 99.047279 
L 238.321763 99.151442 
L 238.330659 99.214453 
L 238.344893 99.277465 
L 238.341335 99.388057 
L 238.430298 99.851 
L 238.392933 100.129409 
L 238.15985 100.253504 
L 238.06377 100.373097 
L 237.818232 101.17939 
L 237.771971 101.524669 
L 237.985482 102.395902 
L 237.976586 102.802264 
L 237.875168 102.966866 
L 237.590486 103.262635 
L 237.529991 103.411806 
L 237.578031 103.947405 
L 237.633189 104.215527 
L 237.700801 104.329976 
L 237.955235 104.459858 
L 238.188318 104.777488 
L 238.576197 105.534915 
L 238.679395 105.660938 
L 238.789709 105.754813 
L 238.880451 105.884694 
L 238.917816 106.121953 
L 238.876893 106.211326 
L 238.806629 106.465239 
L 238.797236 106.468708 
L 238.191877 106.692273 
L 237.779088 106.917315 
L 237.684841 106.992857 
L 237.02824 107.519141 
L 237.069163 107.535859 
L 237.355624 107.750613 
L 237.414339 107.749327 
L 237.419677 107.998159 
L 237.344948 108.140257 
L 237.206166 108.185265 
L 237.02824 108.147972 
L 236.928601 108.200696 
L 236.905471 108.27914 
L 236.942835 108.379444 
L 237.065604 108.548547 
L 237.080744 108.601617 
L 237.083397 108.610916 
L 237.081617 108.675856 
L 237.058487 108.746584 
L 237.02824 108.788377 
L 236.764909 109.021135 
L 236.542501 108.988986 
L 236.395909 108.897332 
L 236.318314 108.848817 
L 236.051425 108.757514 
L 235.850368 108.815382 
L 235.852148 108.968411 
L 235.939331 109.122082 
L 235.996268 109.182522 
L 236.079893 109.298901 
L 236.108361 109.43907 
L 236.053204 109.671827 
L 235.958075 109.793856 
L 235.713365 110.107766 
L 235.401256 110.231035 
L 235.234744 110.296801 
L 234.518298 110.266749 
L 234.03908 110.246649 
L 233.583589 110.340523 
L 232.932379 110.618289 
L 232.816727 110.641436 
L 232.683282 110.58614 
L 232.613891 110.496123 
L 232.565851 110.40675 
L 232.494681 110.350811 
L 231.98937 110.19521 
L 231.615725 109.975312 
L 231.517866 109.568951 
L 231.831016 108.862963 
L 231.36307 108.909257 
L 231.165414 108.87825 
L 231.133545 108.87325 
L 230.909358 108.746584 
L 230.503687 108.66364 
L 229.646082 108.810238 
L 229.199488 108.746584 
L 229.042913 108.628919 
L 228.886338 108.589697 
L 228.731542 108.628919 
L 228.578525 108.746584 
L 228.258258 108.842387 
L 228.300961 109.11951 
L 228.478887 109.463503 
L 228.562512 109.759915 
L 228.432626 109.969526 
L 228.176412 110.183637 
L 227.897068 110.341809 
L 227.445136 110.440827 
L 227.418447 110.9102 
L 226.975411 111.166105 
L 226.720976 111.492737 
L 226.507465 111.881738 
L 226.42206 112.200012 
L 228.46999 112.001975 
L 228.786699 111.852161 
L 229.042913 112.057271 
L 229.300906 112.287457 
L 229.480611 112.540147 
L 229.347166 112.813412 
L 229.185254 112.915002 
L 229.009107 112.962582 
L 228.829401 113.066102 
L 228.578525 113.399806 
L 228.486004 113.435813 
L 228.329429 113.455103 
L 228.005603 113.783021 
L 227.895289 114.293544 
L 227.96468 114.910802 
L 226.795705 115.75503 
L 226.295732 116.262339 
L 225.968348 116.794724 
L 225.930326 116.829399 
L 224.840296 117.823487 
L 224.32431 118.000948 
L 224.345662 118.426599 
L 224.098344 118.552622 
L 224.034291 118.596345 
L 223.970237 118.754517 
L 223.537877 118.907545 
L 223.375964 119.065075 
L 223.14466 119.460505 
L 223.351054 119.922163 
L 222.957837 120.483481 
L 221.809324 121.348285 
L 219.957112 121.924392 
L 219.122639 122.402767 
L 218.866425 123.275929 
L 218.937595 123.500971 
L 219.16712 123.934338 
L 219.222277 124.209532 
L 219.193809 124.554167 
L 219.130953 124.709804 
L 219.097729 124.792069 
L 218.978518 125.00618 
L 218.708071 125.815688 
L 218.683161 125.936567 
L 218.731201 126.076736 
L 218.821943 126.198902 
L 218.95005 126.339071 
L 218.957167 126.758934 
L 218.891335 126.96533 
L 218.697395 127.207089 
L 218.51591 127.341471 
L 217.944767 127.642385 
L 217.491056 128.150979 
L 217.320246 128.294363 
L 216.087218 128.96756 
L 213.772398 131.076523 
L 213.541094 131.378722 
L 213.594472 131.706641 
L 214.01082 132.17087 
L 213.402312 132.937298 
L 212.802701 133.963489 
L 212.606982 134.174385 
L 212.53937 134.326128 
L 212.53937 134.453437 
L 212.576735 134.570459 
L 212.617658 134.673335 
L 212.630112 134.74985 
L 212.630112 134.939528 
L 212.665698 135.107988 
L 212.633671 135.271947 
L 212.436173 135.460982 
L 212.518543 135.511562 
L 213.364947 136.031302 
L 213.617603 136.303924 
L 213.827556 136.680709 
L 213.850686 136.955903 
L 213.54437 137.641996 
L 213.293777 138.203278 
L 213.236841 138.397457 
L 213.114072 139.102159 
L 213.105175 139.370923 
L 213.121189 139.601109 
L 213.04646 139.766997 
L 212.667477 139.885305 
L 212.567838 139.896878 
L 212.464641 139.884019 
L 212.329417 139.840296 
L 212.29739 139.837725 
L 212.268922 139.840296 
L 212.240454 139.849298 
L 211.208482 140.355964 
L 210.788576 140.623442 
L 210.724523 140.923069 
L 210.904228 141.263847 
L 211.208482 141.647061 
L 211.155104 141.860529 
L 211.023439 142.11129 
L 210.793914 142.651391 
L 211.208482 142.403202 
L 211.989578 142.216739 
L 212.774233 142.185876 
L 213.35961 142.44821 
L 213.918298 142.160157 
L 214.797253 141.127536 
L 215.898616 140.395828 
L 216.343432 139.923883 
L 216.254469 139.350348 
L 216.133479 139.297624 
L 215.845238 139.430077 
L 215.665533 139.336203 
L 215.592583 139.230755 
L 215.427112 138.819249 
L 215.418216 138.718945 
L 215.259861 138.295866 
L 215.188691 138.047677 
L 215.281212 137.708186 
L 215.644182 137.214379 
L 216.135258 136.565616 
L 216.693946 136.081454 
L 217.224166 135.90978 
L 217.789972 135.883418 
L 218.34866 135.740677 
L 219.816551 134.735061 
L 220.919693 134.516449 
L 222.067317 134.553099 
L 224.632123 135.216008 
L 224.891192 135.344255 
L 225.052029 135.591506 
L 225.07008 135.819516 
L 225.089393 136.063451 
L 224.966624 136.4801 
L 224.512912 137.012485 
L 224.420391 137.299895 
L 224.749554 137.868287 
L 225.359841 138.51705 
L 225.751278 139.192176 
L 225.140992 140.381683 
L 224.842076 141.272849 
L 224.683721 142.125436 
L 224.833179 142.543371 
L 226.203211 142.846856 
L 226.466542 143.102761 
L 226.448749 143.293082 
L 226.327759 143.483403 
L 226.188977 143.653149 
L 226.110689 143.781744 
L 226.158729 143.757311 
L 226.188977 144.004214 
L 226.194315 144.263977 
L 226.169405 144.28841 
L 226.176522 144.481303 
L 226.140937 144.585465 
L 226.151612 144.662622 
L 226.30285 144.778358 
L 226.466542 144.801505 
L 226.598207 144.701201 
L 226.720976 144.573891 
L 226.865096 144.514737 
L 227.256534 144.688341 
L 228.42195 146.012873 
L 228.505576 146.069455 
L 228.56785 146.334362 
L 228.765348 146.851315 
L 228.886338 147.306543 
L 228.978859 147.557303 
L 229.09807 147.757912 
L 228.850752 147.87622 
L 228.669268 148.10512 
L 228.530485 148.404747 
L 228.42195 148.740381 
L 228.187088 149.139026 
L 227.840132 149.436082 
L 227.450473 149.63669 
L 227.083945 149.745996 
L 226.658702 149.742138 
L 226.539491 149.760142 
L 226.527012 149.887549 
L 226.50916 150.059579 
L 226.491308 150.171399 
L 226.384198 150.205805 
L 226.283037 150.042376 
L 226.169976 149.973564 
L 226.021211 149.913353 
L 225.55378 150.055911 
L 225.28867 150.216655 
L 225.069821 150.583152 
L 224.9773 150.992085 
L 224.964845 151.435739 
L 225.011105 151.880679 
L 225.205045 152.912014 
L 225.552001 153.441827 
L 226.016388 153.792892 
L 226.466542 153.885481 
L 226.696066 153.972926 
L 227.087504 154.366427 
L 227.317029 154.543889 
L 227.875717 154.687916 
L 228.087449 154.838372 
L 228.192426 155.208727 
L 228.151503 155.350182 
L 227.954004 155.787406 
L 227.907744 155.994444 
L 227.94155 156.195053 
L 228.130151 156.488251 
L 228.197763 156.673428 
L 228.292064 157.702191 
L 228.42195 158.063544 
L 229.208384 158.511055 
L 229.957453 159.085877 
L 230.01541 159.179353 
L 230.126483 159.358499 
L 230.245694 159.668414 
L 230.384476 159.947465 
L 230.614001 160.124927 
L 231.350615 160.452845 
L 231.48406 160.557007 
L 231.466267 160.866922 
L 231.313251 161.246279 
L 230.957398 161.896971 
L 230.400489 162.574668 
L 230.311526 162.721267 
L 230.39871 163.442687 
L 230.583753 163.941637 
L 230.583753 164.332567 
L 230.115808 164.733784 
L 229.788423 165.344612 
L 229.672771 165.465492 
L 229.582029 165.432057 
L 229.366738 165.164579 
L 229.229735 165.104139 
L 228.623007 165.275171 
L 228.007382 165.561938 
L 227.784975 165.779265 
L 227.486059 166.314221 
L 227.233403 166.548265 
L 227.076828 166.586843 
L 226.674715 166.591987 
L 226.539491 166.653713 
L 226.448749 166.864609 
L 226.528816 166.999634 
L 226.628454 167.114084 
L 226.594648 167.268399 
L 226.034181 167.544879 
L 225.414998 167.321123 
L 224.78336 166.971344 
L 224.18019 166.867181 
L 224.050304 166.935337 
L 223.740713 167.180954 
L 223.591255 167.268399 
L 223.456031 167.291546 
L 223.14466 167.279972 
L 222.991643 167.308263 
L 222.394701 167.659329 
L 222.337624 167.70836 
L 222.08333 167.926807 
L 221.878715 168.208431 
L 222.18119 168.681662 
L 222.461423 168.929851 
L 222.488112 169.10474 
L 222.46854 169.304063 
L 222.514801 169.529105 
L 222.721196 169.895602 
L 222.90268 170.05506 
L 223.50585 170.112928 
L 223.957783 170.449848 
L 224.068097 171.163552 
L 224.034291 172.55624 
L 224.334986 173.077051 
L 224.899012 173.578573 
L 226.08578 174.289705 
L 226.411385 174.374578 
L 227.260092 174.199688 
L 227.559008 174.225407 
L 228.42195 174.590618 
L 228.731542 174.939111 
L 228.802712 175.063849 
L 228.840077 175.210448 
L 228.834739 175.286319 
L 228.818726 175.353188 
L 228.820505 175.472782 
L 228.788478 175.490786 
L 228.703074 175.883001 
L 228.690619 175.91515 
L 228.886338 176.453965 
L 228.978859 177.06865 
L 229.044692 177.280833 
L 229.567795 178.300594 
L 229.667434 178.624654 
L 229.359621 178.631084 
L 228.738659 178.440763 
L 228.42195 178.443335 
L 228.026954 178.667091 
L 227.710246 179.069594 
L 227.587477 179.574974 
L 227.781416 180.103501 
L 227.541216 180.289964 
L 226.950501 181.348304 
L 226.073325 182.044005 
L 225.890061 182.378352 
L 225.943439 183.152496 
L 226.329538 183.849483 
L 226.852641 184.420447 
L 227.302795 184.810091 
L 226.724535 185.140581 
L 226.603545 185.355335 
L 226.459425 186.132051 
L 226.416722 186.281221 
L 226.413164 186.407245 
L 226.477217 186.636145 
L 226.548388 186.749308 
L 226.92737 187.210966 
L 227.062594 187.455297 
L 227.26543 187.960677 
L 227.36151 188.148426 
L 227.516306 188.316886 
L 227.857924 188.57279 
L 228.016279 188.765684 
L 228.124814 189.010015 
L 228.18175 189.242772 
L 228.260038 189.460098 
L 228.42195 189.651705 
L 228.651475 189.749438 
L 228.85609 189.714717 
L 229.062485 189.642704 
L 229.293789 189.622129 
L 229.510859 189.687712 
L 230.523259 190.248388 
L 231.213612 190.510722 
L 233.044472 191.684798 
L 233.368298 191.827539 
L 233.816672 191.905982 
L 234.042638 191.997285 
L 234.161849 192.178604 
L 234.25437 192.385643 
L 234.416283 192.550245 
L 234.581755 192.590109 
L 235.273887 192.608113 
L 238.268385 191.709231 
L 238.764799 191.668081 
L 239.472945 191.185848 
L 240.004945 191.286152 
L 239.768303 192.095017 
L 239.978256 192.55796 
L 240.359018 192.95532 
L 240.561122 193.407945 
L 240.629465 193.561004 
L 240.595659 193.991799 
L 240.403499 194.259277 
L 240.154403 194.4586 
L 239.965801 194.679784 
L 239.855487 194.983269 
L 239.713146 195.541373 
L 239.579701 195.82814 
L 239.19538 196.274366 
L 238.30575 197.058798 
L 237.958794 197.638763 
L 237.213283 198.498423 
L 236.944614 199.01409 
L 237.02824 199.643564 
L 237.365024 200.837952 
L 237.138063 201.006037 
L 237.065212 201.008062 
L 236.993761 200.996924 
L 236.919508 201.030338 
L 236.9083 201.121469 
L 236.934919 201.437388 
L 236.919508 201.524469 
L 236.782211 201.597373 
L 236.68274 201.587247 
L 236.539649 201.711532 
L 236.395535 201.892492 
L 236.248859 202.053865 
L 236.05591 201.752668 
L 235.724041 201.552562 
L 235.389539 201.692088 
L 235.133326 201.992358 
L 235.040485 202.283701 
L 235.014449 202.567243 
L 234.798121 202.742422 
L 234.610671 202.938005 
L 234.537819 203.174944 
L 234.408176 203.470712 
L 234.209655 203.499931 
L 233.898093 203.439234 
L 233.542571 203.298954 
L 233.146972 203.340717 
L 232.878441 203.509409 
L 232.651787 203.77501 
L 232.708686 204.041907 
L 232.398643 204.41014 
L 232.226257 204.517475 
L 232.103792 204.204998 
L 231.776244 204.125546 
L 231.551478 204.226291 
L 231.328143 204.258385 
L 231.200653 204.490262 
L 231.068959 204.596581 
L 231.008717 204.778842 
L 230.889702 205.4762 
L 230.991905 206.148838 
L 231.000311 206.279459 
L 231.063363 206.555558 
L 231.109408 206.765542 
L 230.878636 206.921128 
L 230.66223 206.503661 
L 230.513885 206.410357 
L 230.240213 206.40088 
L 229.941106 206.596714 
L 229.718255 206.868438 
L 229.493937 207.061111 
L 229.358361 207.207417 
L 229.245293 206.918115 
L 228.966984 206.938088 
L 228.611495 206.892821 
L 228.297847 206.941587 
L 228.065229 207.111785 
L 227.774559 207.431649 
L 227.700272 207.799769 
L 227.849476 207.913734 
L 227.839669 207.925884 
L 227.922645 207.99496 
L 227.93114 208.107176 
L 227.428125 208.787671 
L 227.347082 209.37865 
L 226.966099 209.652707 
L 226.893558 209.91077 
L 226.49837 209.948981 
L 226.474253 209.800683 
L 226.420678 209.715988 
L 226.358662 209.618782 
L 226.273106 209.698072 
L 226.240582 209.883372 
L 226.310099 210.203428 
L 226.078298 210.285317 
L 225.874369 210.20484 
L 225.599221 210.19834 
L 224.983032 210.383423 
L 224.809559 210.139068 
L 224.536042 210.033746 
L 224.353827 210.152707 
L 224.089483 210.403032 
L 224.11836 211.044255 
L 223.859447 211.42226 
L 223.860367 211.827495 
L 223.448801 211.883055 
L 223.115519 211.932591 
L 222.968415 212.260661 
L 222.887157 212.531015 
L 222.727444 212.715302 
L 222.255738 213.18847 
L 221.784282 213.484742 
L 221.674942 213.860733 
L 222.032685 213.975445 
L 223.077421 213.679134 
L 223.439211 213.759332 
L 223.519227 213.946359 
L 223.301854 214.379848 
L 223.008514 214.591406 
L 222.957687 215.04545 
L 223.07087 215.236577 
L 223.205549 215.536598 
L 222.871561 215.813842 
L 222.527102 216.027391 
L 222.333765 216.075994 
L 222.001729 216.236992 
L 221.822402 216.197502 
L 221.753753 216.075994 
L 221.715927 215.88057 
L 221.509398 215.964098 
L 221.207139 215.962213 
L 220.797305 216.018088 
L 220.737306 216.258478 
L 220.570105 216.556508 
L 220.208041 216.795306 
L 219.751483 216.66867 
L 219.272358 216.751807 
L 218.767706 216.761206 
L 218.417569 216.895668 
L 218.019238 217.165892 
L 217.804721 217.599987 
L 217.870096 217.926363 
L 217.964674 218.291628 
L 217.394607 218.293563 
L 217.164099 218.065678 
L 217.10946 217.959359 
L 216.773901 217.829469 
L 216.329253 217.599225 
L 215.866094 217.544249 
L 215.284769 217.65193 
L 214.828487 217.84539 
L 214.578275 217.992633 
L 214.307473 218.247939 
L 214.139354 218.761308 
L 214.132459 219.355047 
L 214.452025 219.498938 
L 214.694587 219.421331 
L 214.602522 219.658271 
L 214.161623 219.712296 
L 213.184349 219.77425 
L 213.026363 219.684986 
L 213.276225 219.537372 
L 213.555515 219.428634 
L 213.776068 219.242293 
L 213.724802 218.776355 
L 213.390383 218.454012 
L 213.085172 218.489171 
L 212.268976 218.606005 
L 211.967463 218.60632 
L 211.7869 218.09018 
L 211.360171 218.005295 
L 210.790684 218.009763 
L 210.367879 217.725458 
L 210.409909 217.579649 
L 210.43933 217.339671 
L 210.485562 217.217151 
L 210.202562 217.209051 
L 209.927967 217.284993 
L 209.426411 217.555347 
L 209.716417 217.679892 
L 209.963619 218.232828 
L 210.250119 218.372256 
L 210.66547 218.561964 
L 210.474535 218.787615 
L 210.077206 218.742024 
L 209.573624 218.754863 
L 209.356362 218.840288 
L 209.033899 219.436638 
L 208.38583 219.221623 
L 207.891424 218.811975 
L 207.747358 218.583349 
L 208.109268 218.340169 
L 208.370764 218.086367 
L 208.256786 217.89635 
L 208.069134 217.768854 
L 207.773763 217.700454 
L 207.729577 217.483061 
L 207.648431 217.296986 
L 207.380412 217.267849 
L 207.043911 217.265841 
L 206.274159 216.897238 
L 206.125671 216.350399 
L 205.888875 216.075708 
L 205.566994 215.933828 
L 205.205322 215.893039 
L 205.01062 216.154371 
L 204.83016 216.559961 
L 204.414264 216.372083 
L 204.146467 216.342976 
L 203.910055 216.033677 
L 203.708148 215.728068 
L 203.546152 215.39135 
L 203.324364 215.260968 
L 203.141592 215.382634 
L 202.966686 215.43442 
L 202.203312 215.363242 
L 201.857635 215.384978 
L 201.337064 215.294232 
L 201.092528 215.268137 
L 200.662602 215.379663 
L 200.260496 215.17959 
L 200.322755 214.739413 
L 200.377394 214.48526 
L 200.499281 214.232119 
L 200.642182 213.823044 
L 200.438893 213.575889 
L 200.415221 213.284361 
L 200.34377 213.138553 
L 200.121101 212.2335 
L 199.351408 211.706365 
L 198.38916 212.388982 
L 197.09729 212.357292 
L 196.442006 212.44552 
L 195.402558 212.389534 
L 194.872796 212.203947 
L 194.527013 211.645427 
L 194.383018 211.05549 
L 194.736994 210.366158 
L 195.270773 210.049226 
L 196.80346 210.049226 
L 197.279797 209.894304 
L 197.60763 209.614837 
L 197.963482 209.159185 
L 198.183438 208.60025 
L 198.123195 208.010939 
L 197.620239 208.360273 
L 197.136896 208.545572 
L 196.696984 208.463555 
L 196.325721 208.010939 
L 196.206636 207.628191 
L 196.195428 207.415553 
L 196.107166 207.28797 
L 195.749912 207.160388 
L 195.61962 207.142161 
L 195.211931 207.160388 
L 195.14048 207.07837 
L 194.895306 206.722961 
L 194.788831 206.652082 
L 194.671147 206.811054 
L 194.560469 207.145199 
L 194.476409 207.48542 
L 194.446988 207.670719 
L 194.539454 208.14156 
L 194.694964 208.34711 
L 194.903712 208.468617 
L 195.153089 208.689356 
L 195.359035 209.313094 
L 195.167099 209.870003 
L 194.762212 210.175797 
L 194.26068 210.232505 
L 193.995869 210.173772 
L 193.055802 209.599649 
L 192.620093 209.811274 
L 192.437964 209.967209 
L 192.017666 210.064415 
L 191.849546 210.219337 
L 191.709447 210.562595 
L 191.790705 210.693216 
L 191.961129 211.148248 
L 192.006594 211.466471 
L 192.582855 211.42036 
L 192.172844 211.82306 
L 191.804256 212.047106 
L 191.718957 211.62034 
L 191.416639 211.0466 
L 190.702133 210.620311 
L 190.117918 210.042138 
L 189.853131 209.385998 
L 189.896561 207.925884 
L 189.853131 207.500608 
L 189.745254 207.126973 
L 189.567328 206.696634 
L 189.327758 206.330087 
L 189.029346 206.14175 
L 189.029346 206.29566 
L 189.54211 207.154312 
L 189.617764 207.415553 
L 189.617764 209.199687 
L 189.854532 210.037076 
L 190.322463 210.550445 
L 190.845034 210.945344 
L 191.24029 211.415287 
L 191.193124 211.933219 
L 190.693328 211.961432 
L 188.53519 211.903715 
L 187.268984 211.59644 
L 186.820576 211.317624 
L 186.807756 210.898181 
L 187.154817 210.492728 
L 187.195097 210.177974 
L 187.049625 209.850107 
L 186.629822 209.521646 
L 185.90373 209.209813 
L 184.119992 209.410266 
L 180.61638 209.107544 
L 180.198884 209.011351 
L 179.831824 208.818964 
L 179.358288 208.432165 
L 179.089297 207.84893 
L 179.358288 207.294046 
L 179.330268 207.207978 
L 178.884752 206.819154 
L 177.888646 206.712835 
L 176.914955 206.844468 
L 176.262092 207.115835 
L 176.026725 207.300121 
L 172.594291 210.279078 
L 170.567054 211.222786 
L 170.008057 211.720966 
L 168.693925 213.557753 
L 168.332469 213.725838 
L 167.644581 213.366379 
L 167.231288 213.448396 
L 166.491564 213.486874 
L 165.325937 214.005305 
L 164.062241 215.091784 
L 163.773636 215.46947 
L 163.660156 215.694259 
L 163.424789 215.907909 
L 163.22865 216.155987 
L 162.93304 216.440517 
L 162.713084 216.759474 
L 162.515544 217.185762 
L 162.197518 217.540159 
L 161.81925 217.906706 
L 161.64973 218.367422 
L 161.509631 218.74612 
L 161.337308 219.207848 
L 161.068318 219.882214 
L 160.94503 220.343942 
L 160.821743 220.733779 
L 160.650821 221.443585 
L 160.527534 221.976192 
L 160.576569 222.22427 
L 160.797926 222.366028 
L 160.821743 222.863196 
L 160.674638 224.353687 
L 160.552752 225.773299 
L 160.527534 226.766622 
L 160.601787 227.405548 
L 160.503717 228.435324 
L 160.576569 229.783044 
L 160.650821 230.812819 
L 160.748891 231.628944 
L 160.994065 231.947901 
L 161.362526 232.125099 
L 161.829057 232.232431 
L 162.221335 232.374189 
L 162.36844 232.622267 
L 162.36844 232.906797 
L 162.319405 233.190314 
L 162.442692 233.438392 
L 162.615014 233.61559 
L 162.884005 234.077318 
L 162.982075 234.609926 
L 162.971742 234.699541 
L 162.228964 234.83754 
L 161.778811 234.860687 
L 161.339333 234.806677 
L 160.98526 234.68644 
L 160.778865 234.546271 
L 160.611615 234.356593 
L 160.476391 234.123836 
L 160.366077 233.849284 
L 160.252204 233.814564 
L 159.748673 233.800418 
L 159.565409 233.757982 
L 159.271831 233.96502 
L 158.714922 233.735478 
L 158.149117 234.207422 
L 157.860876 234.258861 
L 157.565519 234.24793 
L 157.287954 234.279436 
L 157.012168 234.454969 
L 156.492624 234.996355 
L 156.216838 235.184104 
L 155.857427 235.245187 
L 155.183087 235.133952 
L 154.830793 235.162243 
L 154.52654 235.329417 
L 153.800601 235.944103 
L 153.663598 236.158857 
L 153.820173 236.63466 
L 154.033684 236.892493 
L 154.040801 237.000513 
L 153.579972 237.028804 
L 153.200989 236.95229 
L 152.409218 236.661665 
L 152.076496 236.671309 
L 151.943051 236.802477 
L 151.798931 237.205623 
L 151.683279 237.327146 
L 151.503574 237.332932 
L 151.311413 237.263491 
L 150.962678 237.051309 
L 150.64419 236.960649 
L 150.311468 236.678382 
L 150.041021 236.290667 
L 149.914693 235.888807 
L 149.640687 235.874661 
L 149.105129 235.748638 
L 148.103404 235.243901 
L 147.89701 235.060653 
L 147.416609 234.77067 
L 146.875714 234.833039 
L 145.811715 235.189248 
L 144.998593 235.079299 
L 144.724586 235.218825 
L 144.64274 235.348706 
L 144.512854 235.715846 
L 144.431008 235.860516 
L 144.019999 236.198079 
L 143.729979 236.530497 
L 143.530702 236.668737 
L 143.247799 236.745895 
L 142.799425 236.799905 
L 142.566342 236.76004 
L 142.35461 236.614084 
L 142.01655 236.298383 
L 141.852858 235.913883 
L 141.626892 234.982852 
L 141.392029 234.564918 
L 141.12514 234.438894 
L 140.803093 234.419605 
L 140.399201 234.318657 
L 139.433062 233.61074 
L 139.071872 233.449353 
L 138.002535 233.291824 
L 137.685827 233.151012 
L 137.694723 233.074497 
L 137.682268 233.012129 
L 137.648462 232.961334 
L 137.596864 232.925327 
L 137.659138 232.304211 
L 137.849519 231.787258 
L 138.164448 231.460626 
L 138.596809 231.417546 
L 138.528229 231.311186 
L 138.383297 231.086413 
L 137.982963 230.95396 
L 137.705399 230.766211 
L 137.854857 230.260831 
L 135.897669 230.055079 
L 135.709067 229.960561 
L 134.774954 229.27772 
L 134.511624 229.298295 
L 134.006313 229.504691 
L 133.461859 229.474471 
L 133.196749 230.45501 
L 132.815987 230.620898 
L 132.566891 230.273691 
L 132.276871 229.420461 
L 131.945928 228.932441 
L 131.641674 228.347975 
L 131.497554 228.265031 
L 131.335641 228.255387 
L 131.248458 228.155725 
L 131.323187 227.802088 
L 130.919294 227.685066 
L 128.798414 227.677994 
L 128.223713 227.87603 
L 128.033332 227.850311 
L 127.737974 227.620126 
L 127.561827 227.277419 
L 127.431941 226.891633 
L 127.262911 226.534138 
L 126.958657 226.242869 
L 126.599247 226.123276 
L 125.131356 226.017828 
L 124.99969 225.933598 
L 124.715008 225.685409 
L 124.569109 225.625612 
L 124.392962 225.686695 
L 124.231049 225.826864 
L 124.067357 225.918166 
L 123.882314 225.835865 
L 123.608307 225.545883 
L 123.458849 225.423717 
L 122.948201 225.211535 
L 122.20447 224.742162 
L 121.909112 224.686866 
L 121.574611 224.721586 
L 121.273916 224.651502 
L 120.679643 224.402027 
L 120.377168 224.369878 
L 119.905664 224.406528 
L 119.508888 224.573059 
L 119.427042 224.930554 
L 119.464407 225.462296 
L 119.222427 226.159282 
L 119.412808 226.440263 
L 119.284701 226.54764 
L 119.220648 226.653089 
L 119.115671 226.903207 
L 119.35943 226.996438 
L 119.565825 227.273561 
L 119.683256 227.650346 
L 119.665463 228.05092 
L 119.631196 228.111804 
L 119.516005 228.316469 
L 119.290039 228.403914 
L 118.679752 228.316469 
L 116.533963 228.383339 
L 116.248391 228.255387 
L 115.591844 228.439921 
L 115.256008 228.45921 
L 114.911721 228.387197 
L 114.827651 228.301681 
L 114.815196 228.199448 
L 114.820978 228.095928 
L 114.783169 228.014913 
L 114.307216 227.58219 
L 113.994956 227.701784 
L 113.689813 228.029059 
L 113.206743 228.756909 
L 112.950974 228.796773 
L 112.68275 228.455995 
L 112.313554 227.759652 
L 112.038658 227.614339 
L 111.122338 227.359077 
L 110.842994 227.405371 
L 110.520058 227.638772 
L 109.464066 227.806589 
L 108.135847 228.328043 
L 107.539794 228.387197 
L 106.860116 228.100429 
L 106.760478 227.99048 
L 106.680411 227.8651 
L 106.561645 227.751936 
L 106.342351 227.685066 
L 106.160866 227.598264 
L 106.112826 227.43752 
L 106.090586 227.261988 
L 105.985164 227.124391 
L 105.701372 226.875559 
L 105.493643 226.507133 
L 105.393115 226.076981 
L 105.431369 225.644901 
L 105.121778 225.784427 
L 104.623139 225.930383 
L 104.161866 225.871872 
L 103.957251 225.408929 
L 102.957027 224.762426 
L 102.917717 224.737018 
L 102.653052 224.471469 
L 102.559196 224.718372 
L 102.439985 224.90805 
L 102.305206 224.963346 
L 102.155748 224.801316 
L 101.328391 225.496373 
L 100.912044 225.76128 
L 100.386272 225.805002 
L 99.457498 225.342702 
L 99.01891 225.329842 
L 98.988662 225.922024 
L 98.837425 225.976677 
L 98.549185 226.187573 
L 98.413961 226.210078 
L 98.2476 226.093056 
L 98.250269 225.944528 
L 98.274289 225.783141 
L 98.17465 225.632685 
L 98.099031 225.607608 
L 97.819687 225.607608 
L 97.705814 225.551669 
L 97.709373 225.458438 
L 97.742289 225.350418 
L 97.71738 225.244327 
L 97.049267 224.290149 
L 96.743234 224.017527 
L 96.152519 223.62724 
L 95.978151 223.596377 
L 95.810011 223.622739 
L 95.640981 223.600235 
L 95.465724 223.418916 
L 95.369644 223.191945 
L 95.388326 223.058206 
L 95.446152 222.943756 
L 95.455048 222.769509 
L 95.38402 222.574634 
L 95.132112 221.883487 
L 94.671283 221.715027 
L 93.343954 221.969003 
L 91.972143 221.848766 
L 91.313816 221.621153 
L 90.714205 221.143421 
L 90.504252 220.883015 
L 90.218681 220.79557 
L 89.622628 220.716484 
L 89.493632 220.602034 
L 89.20895 220.409141 
L 89.059492 220.346773 
L 88.41362 220.409784 
L 87.852263 219.923051 
L 87.260658 219.575201 
L 86.262492 219.386808 
L 85.938667 219.178484 
L 85.647757 218.822918 
L 85.570359 218.489856 
L 85.710031 218.163867 
L 86.070332 217.835305 
L 85.681563 217.725999 
L 85.295463 217.880957 
L 84.999216 218.23588 
L 84.880006 218.73483 
L 84.838193 219.386808 
L 84.691404 219.723085 
L 84.398716 219.825318 
L 83.927211 219.782882 
L 83.505526 219.663288 
L 83.124764 219.430531 
L 82.812504 219.055675 
L 82.596323 218.516218 
L 82.737775 218.305964 
L 83.44681 217.496457 
L 83.66477 217.185899 
L 83.927211 216.398895 
L 84.114034 215.407425 
L 84.048201 214.49697 
L 83.553566 213.957513 
L 83.347172 213.954941 
L 83.156791 214.026954 
L 82.96552 214.062961 
L 82.247588 213.664958 
L 81.71203 213.495855 
L 81.370412 213.482996 
L 81.113309 213.648241 
L 80.977195 214.073248 
L 80.879336 214.291218 
L 80.691624 214.405667 
L 80.474554 214.435244 
L 80.288621 214.405667 
L 80.078668 214.303434 
L 79.993263 214.189627 
L 79.867825 213.763977 
L 79.839357 213.546008 
L 79.887397 213.394265 
L 79.890066 213.2766 
L 79.720147 213.148005 
L 79.393652 212.983403 
L 79.236187 212.964114 
L 78.886563 213.121 
L 78.516476 213.173081 
L 78.31453 213.277886 
L 78.128597 213.310678 
L 78.087733 213.21635 
L 78.041413 213.109426 
L 77.983587 212.625265 
L 77.769186 212.317279 
L 77.275441 212.063303 
L 77.270993 211.759818 
L 77.283448 211.235792 
L 77.32432 210.9463 
L 77.370863 210.981796 
L 77.38137 210.989896 
L 77.644056 211.191396 
L 77.773648 211.006097 
L 78.089572 210.866364 
L 79.615254 210.606135 
L 80.014537 210.006699 
L 80.39911 209.787985 
L 80.721339 209.539908 
L 80.871245 209.325245 
L 81.243909 208.553673 
L 81.318162 208.274206 
L 81.468769 208.075743 
L 82.146149 207.148237 
L 82.277842 206.862694 
L 82.785002 206.117449 
L 82.902685 205.334739 
L 83.31738 203.918165 
L 84.02348 199.839566 
L 84.43257 198.414891 
L 85.036399 195.189882 
L 86.147386 188.147514 
L 86.619521 184.657214 
L 86.737205 183.112044 
L 86.695175 182.74651 
L 86.548071 182.041767 
L 86.566284 181.830141 
L 87.021606 181.145649 
L 87.088854 180.98769 
L 87.135087 180.686959 
L 87.443306 179.544789 
L 87.783747 179.107363 
L 88.215253 179.090149 
L 89.269501 179.35949 
L 89.87543 179.265322 
L 90.224278 179.009144 
L 90.229882 178.630446 
L 89.80398 178.168718 
L 90.039347 178.168718 
L 89.870527 177.813308 
L 88.569704 176.552669 
L 88.382672 176.470652 
L 88.302115 176.421036 
L 88.229263 176.344081 
L 88.148005 176.289403 
L 88.029621 176.300541 
L 87.956069 176.376483 
L 87.922445 176.483815 
L 87.900029 176.583046 
L 87.859401 176.625573 
L 87.748022 176.858463 
L 86.972572 178.077587 
L 86.777834 179.175204 
L 86.625125 179.774641 
L 86.512345 180.054108 
L 87.560989 167.775783 
L 88.276897 163.836918 
L 88.585115 158.587797 
L 88.692992 158.220237 
L 89.280008 157.008201 
L 89.526583 156.622415 
L 89.80398 156.516096 
L 89.986109 156.607226 
L 90.026738 156.719621 
L 90.017631 156.906945 
L 90.007124 157.187424 
L 89.958789 157.269442 
L 89.921663 157.401075 
L 89.921663 157.53372 
L 89.974901 157.667379 
L 90.156329 157.966084 
L 90.306936 158.159484 
L 91.459954 159.073827 
L 92.186369 159.48999 
L 92.453258 159.574033 
L 94.537937 161.938364 
L 95.019879 162.668421 
L 95.220921 163.419742 
L 95.265052 163.915898 
L 95.493414 164.842392 
L 95.814242 167.151033 
L 95.884292 167.435562 
L 96.465704 168.879476 
L 97.051319 169.665224 
L 97.711187 170.323389 
L 98.263179 170.656522 
L 98.415186 170.832707 
L 98.557387 171.145589 
L 98.583306 171.376453 
L 98.53357 171.77439 
L 98.554585 172.293834 
L 98.629538 172.810241 
L 98.77314 173.214253 
L 99.005705 173.396514 
L 98.937056 173.053255 
L 98.872611 172.345475 
L 98.768237 172.038668 
L 98.931452 171.36734 
L 98.735313 170.827645 
L 98.352842 170.42667 
L 97.946554 170.169479 
L 98.478231 170.195806 
L 98.923747 170.297062 
L 99.319528 170.499575 
L 99.709704 170.832707 
L 99.276097 170.049997 
L 98.591011 169.701676 
L 97.843581 169.452586 
L 97.230646 168.964531 
L 96.916824 168.316491 
L 96.698269 167.527706 
L 96.044705 162.759552 
L 95.819846 161.797618 
L 95.246139 160.230173 
L 94.900794 159.532518 
L 94.515521 158.909792 
L 93.718356 157.978235 
L 91.278525 156.175875 
L 91.220384 156.069556 
L 91.151735 155.601753 
L 91.042458 155.495434 
L 90.473655 155.282796 
L 89.551801 154.349214 
L 89.033433 154.136576 
L 88.708403 154.067721 
L 88.424001 153.888498 
L 88.180929 153.638395 
L 87.97148 153.356903 
L 87.651353 153.109838 
L 87.046124 153.244509 
L 86.737205 153.116926 
L 87.032814 151.382407 
L 87.030012 151.063451 
L 88.174624 150.708041 
L 88.510863 150.72323 
L 89.607841 152.034497 
L 89.80398 152.16613 
L 90.009225 152.362567 
L 91.215481 152.931627 
L 90.828806 152.488125 
L 89.28211 151.222423 
L 88.836594 150.68374 
L 88.744828 150.458951 
L 88.719611 150.170371 
L 88.643256 149.798761 
L 88.529075 149.438289 
L 88.382672 149.179073 
L 88.573907 149.075792 
L 88.693692 148.927958 
L 88.781955 148.779111 
L 88.863913 148.668742 
L 89.05725 148.494581 
L 89.324139 148.329534 
L 89.483853 148.306245 
L 89.62185 148.336622 
L 89.731828 148.277893 
L 89.80398 147.989313 
L 89.782264 147.73111 
L 89.680692 147.472906 
L 89.557405 147.257231 
L 89.449528 147.123572 
L 89.544796 147.044593 
L 89.717118 146.854231 
L 89.80398 146.785377 
L 89.521679 146.595015 
L 89.331845 146.26087 
L 89.088072 145.440695 
L 89.449528 145.693835 
L 89.738133 145.712061 
L 89.966495 145.505499 
L 90.156329 145.085286 
L 90.156329 144.932389 
L 90.084178 144.821007 
L 89.986109 144.705575 
L 89.872628 144.614444 
L 89.544796 144.490912 
L 89.483853 144.288399 
L 89.467041 144.037284 
L 89.341652 143.699088 
L 89.347256 143.466199 
L 89.324139 143.371018 
L 89.260394 143.332541 
L 89.039037 143.256599 
L 88.980195 143.215084 
L 88.877923 143.098639 
L 88.773549 143.016622 
L 88.77565 142.910303 
L 88.980195 142.706778 
L 88.57811 142.399972 
L 88.446417 142.366557 
L 88.376367 142.317954 
L 88.38057 142.204547 
L 88.402986 142.084052 
L 88.382672 142.011148 
L 88.290206 141.991909 
L 88.029621 142.011148 
L 87.850995 141.95647 
L 87.695484 141.967608 
L 87.54838 141.938243 
L 87.384464 141.76307 
L 87.36555 141.554482 
L 87.475528 141.311468 
L 87.64645 141.100855 
L 87.806863 140.991498 
L 87.714398 140.515594 
L 87.902831 140.187524 
L 89.088072 139.447341 
L 89.227471 139.13041 
L 89.21276 138.929922 
L 89.135005 138.718297 
L 89.088072 138.365925 
L 88.714007 137.832305 
L 87.94346 137.781677 
L 87.304607 138.166451 
L 87.324221 138.952199 
L 86.861193 138.824616 
L 86.53266 138.421616 
L 86.218837 137.946725 
L 85.944242 137.868757 
L 85.770519 137.838381 
L 85.240944 137.518411 
L 84.851467 137.180215 
L 84.621004 137.084022 
L 83.706856 137.37564 
L 83.269746 137.352351 
L 83.082713 136.821769 
L 82.981141 136.19398 
L 82.706546 135.740353 
L 82.310065 135.462911 
L 81.83793 135.369755 
L 80.686314 135.321152 
L 80.223986 135.169268 
L 80.369689 134.860436 
L 80.08949 134.59312 
L 79.17184 134.429085 
L 78.59463 133.921792 
L 78.107085 133.790159 
L 77.891332 133.654475 
L 77.765943 133.449938 
L 77.572606 132.905179 
L 77.408689 132.635838 
L 77.413593 132.946695 
L 77.513764 133.352732 
L 77.53688 133.56942 
L 77.463328 133.680802 
L 77.301513 133.591696 
L 77.139699 133.365895 
L 76.756527 131.540246 
L 76.832181 131.10687 
L 76.556185 130.990425 
L 76.420288 130.711971 
L 76.340432 130.376813 
L 76.233956 130.088233 
L 75.975473 129.787502 
L 75.710685 129.559675 
L 75.504739 129.318686 
L 75.330315 128.682797 
L 75.101953 128.499523 
L 74.811948 128.402317 
L 74.528947 128.37194 
L 74.381843 128.220056 
L 73.871881 127.184205 
L 72.913602 126.187844 
L 72.379823 125.807121 
L 71.934307 125.655237 
L 71.734666 125.493227 
L 71.608576 125.104403 
L 71.540628 124.629512 
L 71.519613 124.203223 
L 71.562343 123.66454 
L 71.679326 123.409375 
L 72.120639 123.09143 
L 72.020468 122.739059 
L 72.273348 122.475793 
L 72.931815 122.071781 
L 73.141964 121.69612 
L 73.431969 120.79899 
L 73.636514 120.357513 
L 73.939129 120.132725 
L 73.906906 119.711499 
L 73.714269 119.271035 
L 73.528638 118.982455 
L 73.262449 118.721214 
L 72.227115 118.147091 
L 70.241907 117.800795 
L 69.628272 117.467662 
L 69.856634 117.314765 
L 70.042966 117.143642 
L 70.243308 117.001884 
L 70.803705 116.922904 
L 70.935399 116.835823 
L 70.988636 116.633311 
L 71.040473 116.263726 
L 71.047478 115.924518 
L 70.864649 115.534682 
L 70.816314 115.159021 
L 70.837329 114.883604 
L 70.904577 114.562622 
L 71.015255 114.264929 
L 71.167964 114.053304 
L 71.581257 113.876105 
L 73.16578 113.715108 
L 73.284865 113.623977 
L 73.401147 113.566261 
L 73.528638 113.544998 
L 73.665935 113.715108 
L 73.794126 113.832565 
L 74.676752 114.061404 
L 74.94154 114.053304 
L 74.823156 113.885218 
L 75.022097 113.888256 
L 75.207028 113.941922 
L 75.374447 114.047228 
L 75.527856 114.209238 
L 75.176206 114.209238 
L 75.176206 114.393524 
L 75.882307 114.903856 
L 76.598215 115.042577 
L 76.773339 115.159021 
L 77.154409 115.564046 
L 77.549489 115.738206 
L 78.478348 115.768583 
L 78.130902 115.540757 
L 77.424801 115.400011 
L 77.124988 115.159021 
L 76.603819 114.549459 
L 75.997188 114.053304 
L 75.403868 113.698907 
L 75.058523 113.5855 
L 74.652235 113.544998 
L 74.499526 113.488294 
L 74.258555 113.245279 
L 73.604992 113.056943 
L 71.229607 113.218953 
L 70.688123 113.544998 
L 70.566937 113.729284 
L 70.498289 113.891294 
L 70.405823 114.047228 
L 70.227897 114.209238 
L 69.715133 114.357072 
L 69.313048 114.751971 
L 68.986617 114.881579 
L 68.647576 114.875504 
L 68.337957 114.750959 
L 68.081575 114.523132 
L 67.661977 114.043178 
L 67.385281 113.885218 
L 67.098077 113.848766 
L 66.936963 113.856867 
L 66.808772 113.885218 
L 66.672175 114.002676 
L 66.60773 114.170761 
L 66.581111 114.322645 
L 66.562898 114.393524 
L 66.059941 114.379349 
L 64.448799 113.544998 
L 64.448799 113.374887 
L 64.843879 113.432603 
L 65.583603 113.779912 
L 65.974481 113.715108 
L 66.27009 113.372862 
L 66.111778 113.040742 
L 65.766433 112.706596 
L 65.505148 112.35625 
L 65.379058 112.418016 
L 65.321618 112.455481 
L 65.270481 112.509147 
L 65.354541 112.691408 
L 65.362246 112.791652 
L 65.270481 113.034666 
L 65.14229 113.034666 
L 65.114271 112.313722 
L 64.916731 111.931987 
L 64.200823 111.476334 
L 65.570994 110.669322 
L 65.754525 110.68046 
L 65.932451 110.756402 
L 66.221055 110.811081 
L 66.186731 110.948789 
L 66.166417 110.950814 
L 66.094266 110.99638 
L 66.221055 111.151301 
L 66.386373 110.962965 
L 66.978993 110.63692 
L 67.033632 110.47086 
L 66.770245 110.419219 
L 66.346444 110.408081 
L 66.064144 110.297712 
L 66.221055 109.94534 
L 65.940857 109.760042 
L 65.581502 109.721564 
L 65.362246 109.586893 
L 65.505148 109.113015 
L 65.262075 108.790007 
L 65.453311 108.621922 
L 66.527873 108.565219 
L 67.156919 108.393083 
L 67.514173 108.417385 
L 67.235375 108.341442 
L 66.771646 108.420422 
L 66.456422 108.417385 
L 65.14229 107.907053 
L 64.870498 107.864526 
L 64.646339 107.892878 
L 64.083139 108.077164 
L 63.437982 108.077164 
L 63.28037 108.129817 
L 63.1816 108.218922 
L 63.076526 108.237149 
L 62.8993 108.077164 
L 63.158484 108.030586 
L 63.461098 107.8463 
L 63.71748 107.563795 
L 63.849173 107.228637 
L 63.582985 107.484815 
L 63.339212 107.524305 
L 63.084931 107.500004 
L 62.791423 107.568858 
L 62.931523 107.597209 
L 63.037998 107.645812 
L 63.106647 107.739981 
L 63.143773 107.907053 
L 62.708765 107.913129 
L 62.507022 107.866551 
L 62.32209 107.736943 
L 62.294771 108.332329 
L 62.060105 108.465988 
L 61.487098 108.262463 
L 61.199895 108.281701 
L 60.303259 108.58547 
L 59.969822 108.617872 
L 59.71204 108.590533 
L 59.48718 108.481176 
L 59.255316 108.262463 
L 59.220291 108.168294 
L 58.955503 107.679227 
L 58.891057 107.653913 
L 58.819607 107.521267 
L 58.65499 107.4433 
L 58.459551 107.410898 
L 58.407014 107.384572 
L 58.431531 107.350144 
L 58.421724 107.228637 
L 58.126115 107.117255 
L 58.413319 106.91373 
L 58.882651 106.912718 
L 59.136231 107.412923 
L 59.255316 107.412923 
L 59.350583 107.28129 
L 59.448653 107.226612 
L 59.569138 107.265089 
L 59.724648 107.412923 
L 59.743562 107.252938 
L 59.842332 106.888416 
L 60.109922 107.199273 
L 60.546331 107.337994 
L 61.014964 107.293441 
L 61.380623 107.058527 
L 61.252432 106.888416 
L 61.924208 105.97306 
L 62.004065 105.51032 
L 61.61599 105.019227 
L 61.61599 105.173137 
L 61.781307 105.341222 
L 61.803723 105.501207 
L 61.70145 105.625752 
L 61.487098 105.683468 
L 61.732272 105.853578 
L 61.655218 105.972048 
L 61.580264 106.025714 
L 61.380623 106.038877 
L 61.29236 105.899143 
L 60.430749 105.358435 
L 60.790805 105.410076 
L 61.134748 105.528546 
L 60.930904 105.239966 
L 60.726359 105.110358 
L 60.193981 105.019227 
L 60.430749 105.173137 
L 60.074897 105.339197 
L 59.185266 105.43134 
L 59.008741 105.606513 
L 58.857433 105.904206 
L 58.519794 106.057103 
L 57.950991 106.193799 
L 57.950991 106.038877 
L 58.067273 106.038877 
L 58.067273 105.853578 
L 57.843114 105.892055 
L 57.789176 105.932558 
L 57.715624 106.038877 
L 57.59794 106.038877 
L 57.532094 105.735108 
L 57.513881 105.48298 
L 57.568519 105.290594 
L 57.715624 105.173137 
L 57.467648 105.164023 
L 57.28692 105.033403 
L 57.173439 104.802539 
L 57.128607 104.49472 
L 56.999716 104.49472 
L 57.023533 104.689132 
L 57.104791 104.999988 
L 57.128607 105.173137 
L 57.128607 105.768523 
L 57.190251 106.017613 
L 57.34366 106.29303 
L 57.536297 106.543133 
L 57.715624 106.718306 
L 57.672193 106.889429 
L 57.644173 106.961321 
L 57.59794 107.058527 
L 57.551708 106.968409 
L 57.373781 106.718306 
L 57.23018 106.815512 
L 57.07537 106.655527 
L 56.89184 106.397324 
L 56.658574 106.193799 
L 56.760146 106.523894 
L 56.663478 106.677803 
L 56.505165 106.612999 
L 56.423207 106.286955 
L 56.360863 105.904206 
L 56.250185 105.941671 
L 56.189942 106.2181 
L 56.293615 106.549208 
L 56.048441 106.531994 
L 55.94757 106.497567 
L 55.834089 106.379098 
L 55.292605 106.667678 
L 55.018711 106.691979 
L 54.77774 106.549208 
L 54.888419 106.479341 
L 55.001899 106.379098 
L 54.834481 106.227213 
L 54.634839 106.102668 
L 54.441502 106.112794 
L 54.296499 106.379098 
L 54.374254 106.41555 
L 54.447106 106.499592 
L 54.531866 106.549208 
L 54.344833 107.386597 
L 54.441502 108.098428 
L 54.725904 108.675588 
L 55.108375 109.113015 
L 54.874409 109.100864 
L 54.512953 109.003658 
L 54.403675 109.113015 
L 54.296499 109.113015 
L 54.088452 108.396121 
L 54.061132 108.170319 
L 54.098258 107.89794 
L 54.259373 107.477727 
L 54.296499 107.141557 
L 54.253769 106.561359 
L 54.133283 106.13102 
L 53.944149 105.80295 
L 53.697574 105.528546 
L 53.533658 105.426277 
L 53.340321 105.346285 
L 53.177806 105.249079 
L 53.110558 105.097194 
L 53.148385 104.774187 
L 53.355732 104.076532 
L 54.649549 103.490259 
L 54.583002 103.359638 
L 54.546576 103.219905 
L 54.531866 103.042706 
L 54.531866 102.794629 
L 54.449908 102.849307 
L 54.248165 102.927274 
L 54.168308 102.979928 
L 54.157801 102.454408 
L 54.168308 102.28531 
L 54.061132 102.28531 
L 53.926637 102.548576 
L 53.741706 102.501998 
L 53.510542 102.386566 
L 53.238048 102.43922 
L 53.479019 102.53035 
L 53.642936 102.712611 
L 53.752213 102.977903 
L 53.825065 103.320148 
L 53.739604 103.338375 
L 53.722792 103.356601 
L 53.722792 103.397103 
L 53.697574 103.490259 
L 53.493029 103.34445 
L 53.372544 103.43558 
L 53.237348 103.595565 
L 52.993575 103.660369 
L 53.060122 103.735299 
L 53.238048 103.998565 
L 52.997778 104.112984 
L 52.91582 104.344861 
L 52.861181 104.574712 
L 52.70427 104.679006 
L 52.576779 104.580788 
L 52.052107 103.998565 
L 51.612896 103.876045 
L 50.856359 103.675558 
L 50.396133 103.660369 
L 50.707154 103.536837 
L 51.013271 103.569239 
L 51.698357 103.814279 
L 51.698357 103.660369 
L 51.425863 103.498359 
L 51.119046 103.393053 
L 50.396133 103.320148 
L 50.396133 103.13485 
L 50.549542 103.119661 
L 50.622394 103.064983 
L 50.642007 102.940438 
L 50.642007 102.709574 
L 50.700849 102.611355 
L 50.993657 102.654895 
L 51.101533 102.624518 
L 51.32289 102.072672 
L 51.478401 101.777004 
L 51.698357 101.604869 
L 51.698357 101.420582 
L 51.324291 101.849909 
L 50.852156 102.287335 
L 50.328885 102.588066 
L 49.967429 102.672109 
L 50.099823 102.747038 
L 50.206999 102.852345 
L 50.288957 102.979928 
L 50.288957 103.13485 
L 48.878157 103.480133 
L 48.632983 103.405204 
L 48.55873 103.26952 
L 48.044565 102.624518 
L 47.797991 102.1152 
L 47.607455 101.898512 
L 47.534604 101.79118 
L 47.468757 101.604869 
L 47.279623 101.758778 
L 46.998023 101.752703 
L 46.389992 101.604869 
L 45.944476 101.62512 
L 45.801575 101.604869 
L 45.665678 101.527914 
L 45.47024 101.311226 
L 45.390383 101.264648 
L 44.738221 101.29705 
L 44.406886 101.181618 
L 44.261883 100.841397 
L 44.113378 100.772543 
L 43.215341 101.264648 
L 42.965263 101.025683 
L 42.598904 101.032771 
L 42.21363 101.111751 
L 41.901209 101.080362 
L 41.877392 100.997332 
L 41.548158 100.400933 
L 41.427673 100.270312 
L 41.302985 100.173106 
L 41.242742 100.02426 
L 41.313492 99.73568 
L 41.164286 99.729604 
L 41.05641 99.684039 
L 40.842758 99.551393 
L 40.78882 99.280027 
L 40.46519 98.918542 
L 40.005665 98.617811 
L 39.550342 98.530731 
L 39.705852 99.04005 
L 39.581163 99.41571 
L 39.19519 99.829848 
L 38.845642 99.73568 
L 39.018665 99.749855 
L 39.155261 99.713403 
L 39.254732 99.599996 
L 39.314975 99.381283 
L 39.106227 99.456213 
L 38.934605 99.464313 
L 38.805013 99.520004 
L 38.71675 99.73568 
L 38.230606 99.343818 
L 38.001543 99.2537 
L 37.723446 99.227374 
L 37.513998 99.111941 
L 37.294742 98.818299 
L 37.125222 98.42745 
L 37.072685 98.022425 
L 36.891256 98.318093 
L 36.992828 98.693753 
L 37.224692 99.033974 
L 37.434141 99.227374 
L 37.434141 99.381283 
L 37.217687 99.398496 
L 37.048167 99.458238 
L 36.892657 99.568607 
L 36.718934 99.73568 
L 36.393903 99.188896 
L 36.152932 99.2537 
L 36.103898 99.559494 
L 36.354675 99.73568 
L 36.307042 99.829848 
L 36.2489 99.90579 
L 36.2489 100.060712 
L 36.718934 100.060712 
L 36.718934 100.248036 
L 36.159937 100.772543 
L 35.89585 100.926452 
L 35.472049 101.044922 
L 32.947459 100.926452 
L 32.957266 100.738116 
L 32.919439 100.39182 
L 32.947459 100.248036 
L 33.056737 100.182219 
L 33.218551 100.183232 
L 33.363554 100.151842 
L 33.4287 99.982745 
L 33.369158 99.539243 
L 33.112776 98.901329 
L 32.944657 98.222912 
L 32.686874 97.769285 
L 31.865892 96.734446 
L 30.34021 95.563925 
L 30.167888 95.473807 
L 29.936724 95.612528 
L 29.725174 95.862631 
L 29.501015 95.9811 
L 28.985449 95.492033 
L 28.688439 95.440392 
L 28.107026 95.473807 
L 26.813209 95.118398 
L 26.92739 95.030305 
L 27.014252 94.878421 
L 27.086403 94.720461 
L 27.190777 94.5382 
L 27.201985 94.450107 
L 27.224401 94.355939 
L 27.283943 94.267846 
L 27.342084 94.264808 
L 27.47798 94.41568 
L 27.578151 94.453145 
L 33.11768 93.249209 
L 34.101878 93.538801 
L 34.357559 93.43552 
L 34.435314 93.257309 
L 34.602032 92.554591 
L 34.524978 92.273099 
L 34.281205 91.971356 
L 34.229368 91.797195 
L 34.143207 91.242311 
L 33.911343 91.014485 
L 33.181425 90.856525 
L 33.045529 90.774508 
L 32.936952 90.653 
L 32.860598 90.505166 
L 32.819268 90.346194 
L 32.387062 90.501116 
L 31.470111 89.933069 
L 30.990972 90.091028 
L 30.740894 90.531493 
L 30.499923 91.09954 
L 30.195908 91.572406 
L 29.751092 91.719228 
L 29.901699 91.19067 
L 29.98716 91.025623 
L 29.793122 90.74008 
L 29.687347 90.528455 
L 29.645317 90.346194 
L 29.730778 90.051538 
L 29.863872 89.942182 
L 29.928318 89.842951 
L 29.809934 89.58981 
L 29.599785 89.537157 
L 28.565852 89.495642 
L 28.611384 89.234401 
L 28.565852 88.985311 
L 28.754285 88.885067 
L 28.897187 88.897218 
L 29.040088 88.951896 
L 29.227821 88.985311 
L 29.446376 88.911394 
L 29.485604 88.742296 
L 29.440772 88.567123 
L 29.410651 88.475992 
L 29.716768 87.70037 
L 29.936724 87.497857 
L 30.221826 87.627465 
L 29.996967 88.546872 
L 30.473305 88.766597 
L 32.005991 88.662304 
L 32.180415 88.747359 
L 32.295997 88.85469 
L 32.428391 88.947846 
L 32.651849 88.985311 
L 32.860598 88.967085 
L 33.672473 88.737233 
L 34.827592 88.662304 
L 34.718315 88.766597 
L 34.610438 88.812163 
L 34.357559 88.816213 
L 34.71131 88.951896 
L 36.120709 88.662304 
L 36.120709 88.475992 
L 35.581327 88.512444 
L 35.379584 88.417264 
L 35.307433 88.122608 
L 35.14842 88.31702 
L 34.911652 88.380811 
L 34.6973 88.297781 
L 34.602032 88.044641 
L 34.494156 88.074005 
L 33.758634 88.122608 
L 33.902937 87.896807 
L 33.975788 87.840103 
L 34.121492 87.782387 
L 34.129898 87.678093 
L 34.209754 87.572787 
L 34.378574 87.45533 
L 34.710609 87.101946 
L 34.419903 87.107009 
L 34.029026 87.3804 
L 33.758634 87.457355 
L 33.758634 87.287245 
L 33.886125 87.287245 
L 33.886125 87.101946 
L 33.758634 87.101946 
L 33.705397 87.223453 
L 33.59752 87.351036 
L 33.534475 87.457355 
L 33.278094 87.351036 
L 32.734508 87.714546 
L 32.348534 87.782387 
L 32.396869 87.688219 
L 32.413681 87.678093 
L 32.476725 87.627465 
L 32.348534 87.457355 
L 32.203532 87.595063 
L 32.005991 87.69632 
L 31.774828 87.758086 
L 31.537359 87.782387 
L 31.537359 87.627465 
L 32.520857 86.47922 
L 32.710691 86.330374 
L 34.357559 85.388691 
L 34.050742 85.476784 
L 33.51206 85.774477 
L 33.168816 85.89801 
L 32.005991 86.082296 
L 31.472213 86.303035 
L 30.385742 86.963225 
L 29.543045 87.1627 
L 29.030281 87.414827 
L 28.694043 87.457355 
L 28.39353 87.390526 
L 27.794605 87.155612 
L 27.460468 87.101946 
L 27.399525 87.183963 
L 27.399525 87.364199 
L 27.372205 87.544435 
L 27.220198 87.627465 
L 26.350881 87.618352 
L 26.120418 87.533297 
L 25.96911 87.279144 
L 25.862635 86.761725 
L 26.182762 86.731348 
L 26.155442 86.412391 
L 25.862635 85.742075 
L 25.836016 85.274272 
L 25.922878 84.808493 
L 26.126022 84.466247 
L 26.449651 84.368029 
L 26.449651 84.213107 
L 26.012541 83.903263 
L 26.186264 83.183332 
L 26.610765 82.42391 
L 26.918984 81.989521 
L 27.098311 82.101916 
L 27.283943 82.17482 
L 27.155752 81.989521 
L 27.430347 81.80726 
L 27.754677 81.706004 
L 28.287755 81.6493 
L 28.622592 81.740431 
L 29.194197 82.050275 
L 29.410651 81.989521 
L 29.010667 81.462989 
L 28.885979 81.122768 
L 29.111539 80.970884 
L 29.900298 81.167321 
L 30.221826 81.15517 
L 29.751092 80.970884 
L 29.80363 80.868615 
L 29.835152 80.786598 
L 29.797325 80.707618 
L 29.645317 80.614462 
L 29.645317 80.460553 
L 30.990972 80.460553 
L 31.379747 80.393724 
L 31.949251 80.132483 
L 32.348534 80.121345 
L 32.111066 79.981611 
L 32.005991 79.951234 
L 32.005991 79.765935 
L 32.495639 79.68088 
L 32.974778 79.410526 
L 33.439208 79.235353 
L 33.886125 79.255604 
L 34.198546 79.614051 
L 34.071756 80.163872 
L 34.474542 80.121345 
L 34.999915 79.817576 
L 35.181343 79.765935 
L 35.392193 79.805425 
L 35.78237 79.954272 
L 36.012833 79.951234 
L 36.012833 79.765935 
L 35.681498 79.674805 
L 35.771862 79.421664 
L 36.067472 79.131059 
L 36.354675 78.930572 
L 36.68601 78.802989 
L 37.085294 78.730085 
L 37.476871 78.755399 
L 37.787191 78.930572 
L 37.888763 78.7797 
L 37.984031 78.785776 
L 38.068791 78.901208 
L 38.139541 79.085494 
L 38.246017 79.085494 
L 38.360898 78.968037 
L 38.430948 78.820203 
L 38.442156 78.632879 
L 38.374908 78.407078 
L 38.613077 78.362525 
L 38.823226 78.28557 
L 39.187484 78.066857 
L 39.796216 77.892696 
L 39.903392 77.973701 
L 39.859961 78.210641 
L 39.798317 78.390877 
L 39.817931 78.517447 
L 40.019674 78.591364 
L 40.019674 78.745273 
L 39.903392 78.745273 
L 39.903392 78.930572 
L 40.075714 79.036891 
L 40.191296 79.22219 
L 40.217215 79.472293 
L 40.127551 79.765935 
L 40.612295 79.302182 
L 40.864474 79.176624 
L 41.207717 79.255604 
L 41.036095 79.405463 
L 40.961142 79.440903 
L 40.961142 79.595825 
L 41.16989 79.865167 
L 41.678451 80.177036 
L 41.901209 80.460553 
L 42.028699 80.290442 
L 41.901209 80.121345 
L 42.028699 79.951234 
L 41.948843 79.796312 
L 41.8886 79.591775 
L 41.794733 79.085494 
L 41.901209 79.085494 
L 41.956548 79.231303 
L 42.009085 79.306232 
L 42.146383 79.440903 
L 42.101551 79.006514 
L 42.151987 78.528585 
L 42.287883 78.25013 
L 42.499433 78.407078 
L 42.573686 78.292658 
L 42.611512 78.174188 
L 42.62272 78.038505 
L 42.617116 77.88257 
L 42.841275 78.182289 
L 43.162803 78.27747 
L 43.963471 78.236967 
L 44.154006 78.310884 
L 44.549787 78.651105 
L 44.743124 78.745273 
L 44.963781 78.753374 
L 45.577416 78.591364 
L 45.571111 79.012589 
L 45.993511 79.140172 
L 46.496468 79.137135 
L 46.741641 79.008539 
L 46.57072 78.433404 
L 46.500671 78.052681 
L 46.57072 77.88257 
L 47.468757 77.726636 
L 47.21868 77.572727 
L 46.623958 76.861908 
L 46.552507 76.454858 
L 46.726931 76.244245 
L 47.222883 76.026545 
L 47.596948 75.383568 
L 47.692916 75.177005 
L 47.797991 75.177005 
L 47.959105 75.300538 
L 48.504792 75.33294 
L 49.099514 75.668098 
L 49.337682 75.687336 
L 49.240313 75.762266 
L 49.194081 75.829095 
L 49.162558 75.911113 
L 49.103717 76.026545 
L 49.507203 76.057934 
L 49.718753 76.038695 
L 49.871461 75.942502 
L 50.045184 75.73999 
L 50.162868 75.66101 
L 51.614997 75.139541 
L 51.81604 74.992719 
L 51.933723 74.992719 
L 52.096239 75.033222 
L 52.609002 74.422647 
L 52.886399 74.4834 
L 52.997778 74.841847 
L 52.987271 75.326864 
L 52.863283 75.776442 
L 52.640525 76.026545 
L 52.659438 76.138939 
L 52.680453 76.208806 
L 52.767315 76.366765 
L 52.830359 76.051859 
L 52.970459 75.813907 
L 53.485324 75.200294 
L 53.909124 74.853998 
L 54.061132 74.668699 
L 54.239759 74.747679 
L 54.559185 74.377082 
L 54.77774 74.31329 
L 54.98929 74.446948 
L 55.111877 74.67275 
L 55.122385 74.933991 
L 55.001899 75.177005 
L 55.001899 75.33294 
L 55.237266 75.517226 
L 55.106974 75.719738 
L 54.884916 76.366765 
L 54.772136 76.564215 
L 54.403675 77.032019 
L 54.403675 77.217317 
L 54.531866 77.217317 
L 55.099969 76.096411 
L 55.436207 75.624558 
L 55.717106 75.687336 
L 55.887327 75.549628 
L 56.069456 75.504063 
L 56.250185 75.549628 
L 56.423207 75.687336 
L 56.293615 75.857447 
L 56.360863 75.880736 
L 56.402192 75.879723 
L 56.419705 75.9101 
L 56.423207 76.026545 
L 56.257189 76.075148 
L 56.124796 76.148052 
L 55.834089 76.366765 
L 55.834089 76.521687 
L 56.059649 76.706986 
L 56.500962 76.871021 
L 57.373781 76.910511 
L 57.715624 77.032019 
L 57.692507 77.238581 
L 57.693208 77.38844 
L 57.715624 77.556526 
L 57.549606 77.691196 
L 57.481658 77.726636 
L 57.481658 77.88257 
L 57.733837 78.038505 
L 58.044857 78.298733 
L 58.308244 78.590351 
L 58.421724 78.839441 
L 59.542519 79.765935 
L 59.713441 80.509156 
L 59.78349 80.707618 
L 59.810109 80.835201 
L 59.759673 80.950633 
L 59.724648 81.075178 
L 59.78349 81.233138 
L 59.868951 81.307055 
L 60.092409 81.415399 
L 60.505002 81.71613 
L 61.487098 82.17482 
L 61.436663 82.399609 
L 61.366613 82.575795 
L 61.269244 82.716541 
L 61.134748 82.840073 
L 61.337192 82.849186 
L 61.502509 82.937279 
L 61.647512 83.085113 
L 61.792515 83.271424 
L 62.032085 83.461786 
L 62.078318 83.228897 
L 62.068511 82.87045 
L 62.139261 82.685151 
L 62.824347 82.720591 
L 63.105246 82.601109 
L 63.437982 82.252787 
L 63.84497 81.634112 
L 63.976664 81.47919 
L 64.158793 81.343507 
L 64.46421 81.245288 
L 65.625633 80.551683 
L 65.868005 80.290442 
L 65.868005 80.121345 
L 65.722302 80.104131 
L 65.387464 79.951234 
L 66.155209 79.727458 
L 66.530675 79.780111 
L 66.681982 80.121345 
L 67.1303 79.951234 
L 67.649368 79.623164 
L 68.098387 79.197888 
L 68.337957 78.745273 
L 68.3996 79.033853 
L 68.522888 79.216114 
L 68.696611 79.292057 
L 68.924973 79.255604 
L 68.924973 79.440903 
L 68.796782 79.541147 
L 68.721829 79.670755 
L 68.658084 79.811501 
L 68.573324 79.951234 
L 68.092783 80.460553 
L 68.396798 80.695467 
L 68.717626 80.485867 
L 69.069275 80.136533 
L 69.458752 79.951234 
L 69.54071 80.084892 
L 69.635277 80.667115 
L 69.694118 80.801786 
L 69.889557 80.889879 
L 70.005139 81.106567 
L 70.066082 81.386034 
L 70.100407 81.6493 
L 70.28814 81.549057 
L 70.412828 81.36072 
L 70.47167 81.104542 
L 70.463264 80.801786 
L 70.536116 81.165296 
L 70.629282 81.477165 
L 70.78269 81.621961 
L 71.040473 81.47919 
L 71.040473 81.311105 
L 70.969723 81.284778 
L 70.816314 81.15517 
L 71.006849 80.873678 
L 71.208592 80.727869 
L 71.420142 80.750146 
L 71.638697 80.970884 
L 71.519613 80.816975 
L 71.427147 80.646864 
L 71.285647 80.290442 
L 72.054092 80.030214 
L 72.877876 79.951234 
L 72.922008 80.063629 
L 73.284865 80.707618 
L 73.312885 80.974934 
L 73.399746 81.224024 
L 73.551054 81.406286 
L 73.764005 81.47919 
L 73.691153 81.72423 
L 73.636514 81.819411 
L 74.080629 82.46745 
L 74.185704 82.799571 
L 74.118456 83.348379 
L 74.287976 83.171181 
L 74.823156 82.840073 
L 74.342615 82.515041 
L 74.435081 82.319616 
L 74.181501 81.877127 
L 74.118456 81.47919 
L 74.235439 81.47919 
L 74.306189 81.591584 
L 74.379041 81.665501 
L 74.58919 81.819411 
L 74.461699 81.530831 
L 74.306189 81.377934 
L 74.126862 81.319205 
L 73.932124 81.311105 
L 73.77101 81.165296 
L 73.451583 80.425113 
L 73.284865 80.121345 
L 73.339504 79.920857 
L 73.466994 79.696069 
L 73.665935 79.51482 
L 73.932124 79.440903 
L 73.990966 79.361923 
L 73.990966 79.185738 
L 74.021787 79.010564 
L 74.175897 78.930572 
L 74.823156 78.930572 
L 74.715279 78.745273 
L 76.469323 78.407078 
L 76.418887 78.514409 
L 76.414684 78.623766 
L 76.472125 78.755399 
L 76.596814 78.930572 
L 76.16881 79.599875 
L 76.173013 80.181086 
L 76.564591 80.606362 
L 77.291006 80.801786 
L 78.5512 80.816975 
L 79.908762 80.614462 
L 80.739551 80.179061 
L 80.843225 80.157797 
L 81.014847 80.121345 
L 82.377313 80.290442 
L 84.226624 79.893518 
L 84.856371 80.121345 
L 84.585279 79.689993 
L 84.201406 79.498619 
L 83.54294 79.440903 
L 83.540138 79.498619 
L 83.45888 79.5938 
L 83.363612 79.634302 
L 83.31738 79.51887 
L 83.297766 79.358886 
L 83.238924 79.219152 
L 83.147859 79.121946 
L 82.555239 78.954873 
L 82.340887 78.821215 
L 82.249822 78.669331 
L 82.103419 78.083058 
L 81.463865 77.536274 
L 81.318162 76.946963 
L 81.309756 76.258421 
L 81.237605 75.66911 
L 81.029557 75.279274 
L 80.614863 75.177005 
L 80.614863 74.992719 
L 80.853032 74.887413 
L 81.035161 74.662624 
L 81.150043 74.374044 
L 81.290142 73.182259 
L 81.405023 72.928106 
L 81.553529 73.139731 
L 81.650197 72.855201 
L 81.664207 72.635475 
L 81.577346 72.495742 
L 81.3714 72.443088 
L 81.30135 72.299305 
L 81.487682 70.859442 
L 81.599061 70.488844 
L 81.830225 70.369362 
L 82.249822 70.558711 
L 82.249822 70.405814 
L 81.917787 70.25393 
L 81.531113 70.25393 
L 81.208884 70.431128 
L 81.072988 70.813876 
L 81.01905 70.916145 
L 80.897163 70.771349 
L 80.775977 70.522259 
L 80.721339 70.312658 
L 80.735348 69.719297 
L 80.773175 69.452993 
L 80.848829 69.200866 
L 80.606457 69.154288 
L 80.514692 68.966964 
L 80.532204 68.687497 
L 80.614863 68.366515 
L 80.735348 68.046545 
L 80.854433 67.894661 
L 81.190671 67.671897 
L 80.979121 67.51495 
L 80.937092 67.55039 
L 80.848829 67.671897 
L 80.703826 67.278011 
L 80.588244 66.809194 
L 80.513991 66.32114 
L 80.485972 65.871562 
L 80.619767 65.634623 
L 80.932889 65.613359 
L 81.553529 65.786507 
L 81.553529 65.632598 
L 81.18927 65.528304 
L 80.746556 65.324779 
L 80.375293 65.315666 
L 80.240798 65.786507 
L 79.967604 65.482739 
L 79.682502 64.565358 
L 79.428222 64.27374 
L 79.5396 64.161345 
L 79.587935 64.125906 
L 79.663588 64.088441 
L 79.169038 63.717843 
L 78.959589 63.441414 
L 78.829297 63.05259 
L 79.181647 63.05259 
L 79.181647 62.898681 
L 78.958889 62.38835 
L 78.829297 62.38835 
L 78.689898 62.819701 
L 78.371172 62.627314 
L 77.984498 62.224315 
L 77.644056 62.033953 
L 77.689589 61.861817 
L 77.71971 61.788913 
L 77.773648 61.694745 
L 77.534078 61.749423 
L 77.307117 61.846629 
L 77.105374 61.865868 
L 76.938656 61.694745 
L 76.885418 61.369712 
L 76.950564 60.522198 
L 76.938656 60.164764 
L 76.88822 59.994653 
L 76.816069 59.834669 
L 76.564591 59.403317 
L 76.542175 59.282823 
L 76.529566 59.154227 
L 76.469323 58.960828 
L 76.299803 58.694524 
L 75.854287 58.180143 
L 75.764623 58.032309 
L 75.8725 57.685 
L 76.358645 57.265799 
L 76.469323 57.013672 
L 76.547078 56.233999 
L 76.542175 55.820874 
L 76.414684 55.468502 
L 76.274585 55.19106 
L 76.179318 54.950071 
L 76.025909 54.777935 
L 75.473217 54.674654 
L 74.715279 54.37291 
L 74.852577 53.785624 
L 74.819653 53.415027 
L 74.894606 53.224665 
L 75.356934 53.167962 
L 75.518049 53.220615 
L 75.859891 53.455529 
L 76.063736 53.508183 
L 76.543576 53.441353 
L 76.715198 53.508183 
L 76.798557 53.614502 
L 76.861601 53.915232 
L 76.938656 54.03269 
L 77.018513 54.054966 
L 77.206946 54.021551 
L 77.291006 54.03269 
L 77.669975 54.15521 
L 78.810383 54.318232 
L 80.096495 54.73237 
L 80.369689 54.713131 
L 80.378095 54.769835 
L 80.383699 54.893367 
L 80.425729 55.012849 
L 80.550417 55.067528 
L 80.711532 55.011837 
L 80.945498 54.768822 
L 81.13253 54.713131 
L 81.333573 54.74452 
L 81.691527 54.875141 
L 81.897473 54.883241 
L 82.18958 54.756671 
L 82.45717 54.516694 
L 82.901284 53.947634 
L 83.14926 53.769423 
L 83.945025 53.536534 
L 84.258847 53.508183 
L 86.326714 53.863592 
L 86.466113 53.936496 
L 86.534061 54.11572 
L 86.619521 54.52682 
L 86.996389 55.282191 
L 87.073443 55.713542 
L 86.633531 56.008198 
L 86.56068 56.242099 
L 86.51865 56.476001 
L 86.449301 56.580295 
L 86.06753 56.588396 
L 85.916223 56.641049 
L 85.805544 56.766606 
L 85.722185 57.355917 
L 85.940039 57.845997 
L 86.234248 58.285449 
L 86.49133 58.971966 
L 87.804762 60.534349 
L 87.970079 60.911022 
L 88.029621 61.454768 
L 87.995297 61.728159 
L 87.918242 61.922571 
L 87.839787 62.050154 
L 87.806863 62.126096 
L 87.861502 62.380249 
L 88.002302 62.359998 
L 88.187233 62.247604 
L 88.382672 62.218239 
L 88.566902 62.368098 
L 88.697195 62.546309 
L 88.879324 62.647565 
L 89.214161 62.55846 
L 89.214161 62.38835 
L 89.036235 62.141285 
L 89.163726 61.801064 
L 89.45233 61.500333 
L 89.750742 61.369712 
L 92.020351 61.482107 
L 94.056695 62.218239 
L 97.006487 62.38835 
L 97.74341 62.598962 
L 98.16721 62.636427 
L 98.794155 62.311395 
L 99.214453 62.402525 
L 99.955579 62.714395 
L 101.132413 62.714395 
L 101.433627 62.831852 
L 101.953396 63.155871 
L 102.81991 63.347246 
L 104.431753 64.27374 
L 104.868863 63.897067 
L 107.627419 63.279404 
L 108.43159 62.916907 
L 108.903724 62.524033 
L 109.296003 62.422777 
L 109.448711 62.303294 
L 109.862004 61.694745 
L 111.005215 60.912034 
L 113.148735 60.453344 
L 115.290854 59.994653 
L 116.082415 59.611905 
L 116.414451 59.332438 
L 116.700253 58.960828 
L 115.477186 59.686835 
L 114.056579 59.878209 
L 112.631768 59.695948 
L 111.400295 59.300036 
L 111.047245 59.300036 
L 110.746031 59.275735 
L 110.350951 59.15524 
L 110.007707 58.960828 
L 109.862004 58.720851 
L 109.807365 58.570992 
L 109.563592 58.415057 
L 109.507553 58.202419 
L 109.528568 57.931053 
L 109.581805 57.751829 
L 110.46303 56.225898 
L 111.152319 54.03269 
L 111.410102 53.745122 
L 112.270312 53.095057 
L 112.458045 53.09202 
L 112.631768 52.931022 
L 114.880363 51.956938 
L 115.055487 51.725061 
L 117.210215 50.516062 
L 117.805637 50.345952 
L 118.482317 49.911563 
L 119.827271 49.449835 
L 121.309522 49.468061 
L 128.397148 47.32953 
L 128.816045 47.016649 
L 129.233542 46.881978 
L 129.918627 46.172172 
L 132.161618 44.488282 
L 133.070863 43.441293 
L 133.272606 43.283333 
L 133.422512 43.070695 
L 133.806384 41.754365 
L 134.394802 41.01722 
L 134.986021 40.941278 
L 136.689629 41.715888 
L 136.857748 41.703737 
L 137.003452 41.568054 
L 137.003452 41.397943 
L 136.821323 41.409081 
L 136.706441 41.369591 
L 136.616777 41.263272 
L 136.52151 41.073923 
L 136.87456 41.073923 
L 136.87456 40.889637 
L 136.541124 40.883562 
L 136.193677 40.777243 
L 135.927489 40.579793 
L 135.815409 40.300326 
L 135.650092 39.981369 
L 134.913169 39.648236 
L 134.747852 39.443699 
L 134.775872 38.644788 
L 134.920174 37.672728 
L 135.273225 37.010513 
L 135.668305 37.085442 
L 135.933093 37.135058 
L 135.933093 36.980136 
L 134.983219 36.286531 
L 134.983219 36.117433 
L 135.298443 35.275994 
L 135.311051 34.106486 
L 135.397913 33.091899 
L 135.933093 32.718263 
L 135.467963 32.058073 
L 135.374096 31.711777 
L 135.299844 30.543281 
L 135.120516 29.480091 
L 135.11211 28.965709 
L 135.197571 28.52322 
L 135.560428 27.53901 
L 135.756567 27.173475 
L 135.851835 26.699596 
L 135.742558 26.129524 
L 135.465161 25.212143 
L 135.424532 24.865846 
L 135.420329 24.739276 
L 135.837825 24.434495 
L 135.98633 24.376779 
L 136.344985 24.346402 
L 136.672817 24.234008 
L 136.962823 23.960616 
L 137.460176 23.32574 
L 137.989751 22.870087 
L 141.28769 21.554769 
L 141.595908 21.612485 
L 142.184326 21.296566 
L 144.948486 20.977609 
L 147.900379 20.095668 
L 148.082509 20.00555 
L 148.226811 19.984286 
L 149.259343 20.097693 
L 150.66454 19.762535 
L 151.363635 19.464842 
L 151.618616 19.299794 
L 151.623866 19.296 
M 142.35461 234.456254 
L 142.40265 234.456254 
L 142.573459 234.417033 
L 142.632174 234.390671 
L 142.441793 234.035105 
L 142.267426 233.61717 
L 142.0895 233.350334 
L 141.893781 233.448067 
L 141.705179 233.894936 
L 141.737206 234.208065 
L 141.963172 234.395172 
L 142.35461 234.456254 
" clip-path="url(#pe6c0a434d4)" style="fill: #f5f5f5; stroke: #000000"/>
    <path d="M 271.008483 229.326378 
L 271.448395 230.005807 
L 271.358731 230.005807 
L 271.35733 230.031121 
L 271.008483 229.326378 
" clip-path="url(#pe6c0a434d4)" style="fill: #f5f5f5; stroke: #000000"/>
    <path d="M 255.673208 240.246857 
L 255.816109 239.964353 
L 255.673208 239.819556 
L 255.443445 239.738551 
L 255.320157 239.642358 
L 255.393009 239.408456 
L 255.572336 239.356816 
L 256.026258 239.381117 
L 256.15515 239.308213 
L 256.285442 239.198856 
L 256.449358 239.100637 
L 257.14285 238.956854 
L 257.376816 238.845472 
L 257.554742 238.701688 
L 257.654213 238.649035 
L 257.729866 238.670299 
L 257.773297 238.644985 
L 257.790109 238.44551 
L 257.536529 238.232872 
L 257.502905 238.191357 
L 256.86125 237.851136 
L 256.81922 237.755955 
L 256.772988 237.59192 
L 256.695933 237.494714 
L 256.453561 237.721528 
L 256.354091 237.711403 
L 256.286843 237.604071 
L 256.260224 237.42586 
L 256.344284 237.33473 
L 256.86125 237.002609 
L 256.482982 236.666439 
L 256.117323 236.698841 
L 255.437841 237.002609 
L 255.566732 236.817311 
L 255.461658 236.605685 
L 255.395811 236.334319 
L 255.386004 236.052826 
L 255.437841 235.813862 
L 255.587747 235.939419 
L 255.754465 235.936382 
L 255.911377 235.8331 
L 256.026258 235.657927 
L 256.239209 235.791585 
L 256.303655 235.684254 
L 256.323269 235.474654 
L 256.387714 235.303531 
L 256.470373 235.189111 
L 256.503997 235.078742 
L 256.583854 234.995712 
L 257.138647 234.903569 
L 257.287152 234.739534 
L 257.323578 234.493481 
L 257.319375 234.191738 
L 257.508509 233.879869 
L 257.584163 233.679381 
L 257.502905 233.588251 
L 257.289954 233.563949 
L 257.245123 233.491045 
L 257.28435 233.383713 
L 257.42445 232.752887 
L 257.647208 232.470383 
L 257.942817 232.322549 
L 258.269249 232.230406 
L 258.169778 231.996504 
L 258.265046 231.451745 
L 258.141758 231.209743 
L 258.141758 231.024444 
L 258.276254 231.100387 
L 258.323888 231.103424 
L 258.343501 231.150002 
L 258.388333 231.364665 
L 258.672735 231.194555 
L 258.856265 231.282648 
L 259.010374 231.457821 
L 259.210716 231.549964 
L 259.481108 231.451745 
L 259.685653 231.208731 
L 259.834159 230.87661 
L 259.926624 230.516138 
L 259.799134 230.346028 
L 260.446393 230.305526 
L 261.539168 229.697988 
L 263.464133 229.258537 
L 264.009119 228.958818 
L 264.060956 228.475826 
L 264.992617 227.373146 
L 265.177548 227.221262 
L 265.583836 227.146333 
L 265.992926 227.142282 
L 266.179258 227.201011 
L 266.334769 227.186835 
L 267.2258 227.456177 
L 267.587257 227.67084 
L 267.70494 227.796397 
L 267.811416 227.962457 
L 267.90248 228.162945 
L 268.060793 228.645937 
L 268.178476 228.645937 
L 268.793512 227.518955 
L 269.045691 226.795986 
L 268.881775 226.252241 
L 269.019072 225.775324 
L 268.923805 225.339922 
L 268.688438 224.933885 
L 268.411041 224.552149 
L 268.881775 223.858544 
L 268.878973 223.642869 
L 268.766893 223.405929 
L 268.764091 223.195316 
L 268.834141 222.952302 
L 268.949022 222.782191 
L 269.349707 222.328564 
L 269.290865 222.206044 
L 269.272652 222.132127 
L 269.293667 222.028845 
L 269.349707 221.818232 
L 269.173181 221.616733 
L 269.061102 221.221833 
L 269.033082 220.784407 
L 269.117142 220.459374 
L 269.398741 220.264963 
L 270.109045 220.261925 
L 270.420066 220.119154 
L 270.647027 220.459374 
L 270.801136 220.602146 
L 271.137374 220.799595 
L 271.137374 220.984894 
L 270.991671 221.185381 
L 270.96225 221.452698 
L 271.04631 221.73824 
L 271.241048 221.988343 
L 271.162592 222.455134 
L 271.487623 224.72226 
L 271.459603 225.471555 
L 270.902007 227.796397 
L 270.92022 228.099153 
L 270.885196 228.450512 
L 270.902007 229.171456 
L 270.879592 229.235248 
L 270.827755 229.297014 
L 270.781522 229.380044 
L 270.773116 229.496489 
L 270.815146 229.563318 
L 270.895002 229.616983 
L 270.974859 229.645335 
L 271.008483 229.649385 
L 271.054716 229.873162 
L 271.096746 230.012895 
L 271.092543 230.143516 
L 271.008483 230.346028 
L 271.147181 230.46551 
L 271.206023 230.63157 
L 271.252256 230.823957 
L 271.358731 231.024444 
L 271.496029 231.141902 
L 271.961159 231.364665 
L 271.913525 231.004193 
L 271.837871 230.839146 
L 271.577286 230.192119 
L 272.07604 230.979892 
L 272.239956 231.413268 
L 272.311407 231.890185 
L 272.27358 233.33511 
L 272.331021 234.083394 
L 272.546774 234.608913 
L 272.4431 234.933946 
L 272.366046 235.279229 
L 272.319813 235.669065 
L 272.311407 236.136869 
L 272.392665 236.648213 
L 272.71069 237.616222 
L 272.782141 238.106302 
L 272.656051 241.202716 
L 272.782141 241.790002 
L 272.735908 241.996564 
L 272.702284 242.429941 
L 272.664457 242.624353 
L 272.54117 242.849141 
L 272.07604 243.31897 
L 271.891109 243.639952 
L 271.626321 244.248502 
L 270.445284 246.095414 
L 270.184699 246.376907 
L 270.089431 246.607771 
L 270.083827 247.491737 
L 269.936723 249.22018 
L 270.086629 250.918246 
L 270.062812 252.74187 
L 270.010976 252.865403 
L 269.882084 252.926156 
L 269.711163 253.084116 
L 269.557054 253.302829 
L 269.46739 253.543819 
L 269.702757 253.543819 
L 269.655123 253.986309 
L 269.571064 254.266788 
L 269.408548 254.394371 
L 269.229221 254.375132 
L 269.091924 254.387283 
L 269.038686 254.528029 
L 269.117142 254.90369 
L 268.885978 254.782182 
L 268.626794 254.715353 
L 268.377417 254.69814 
L 268.178476 254.733579 
L 268.209298 254.952293 
L 268.045382 255.20037 
L 267.94451 255.431234 
L 268.178476 255.59932 
L 268.744477 255.342129 
L 269.089122 255.27935 
L 269.246033 255.505151 
L 269.184389 255.858535 
L 269.020473 256.155216 
L 268.772497 256.358741 
L 268.469883 256.431645 
L 268.307367 256.553153 
L 268.178476 256.811356 
L 268.003352 257.051333 
L 267.70494 257.112087 
L 267.77499 257.288273 
L 267.794604 257.461421 
L 267.77499 257.631531 
L 267.70494 257.807717 
L 267.903881 257.893785 
L 267.954317 258.087184 
L 267.878663 258.305897 
L 267.70494 258.47297 
L 267.811416 258.657256 
L 267.542425 258.784839 
L 267.074493 259.123035 
L 266.776082 259.167587 
L 266.776082 259.350861 
L 266.937196 259.495657 
L 266.993236 259.688044 
L 266.935795 259.879418 
L 266.776082 260.031303 
L 266.776082 260.186225 
L 266.97082 260.095094 
L 267.245414 259.813602 
L 267.458365 259.675893 
L 267.39392 260.046491 
L 267.259424 260.469742 
L 267.110919 260.842365 
L 266.990434 261.051965 
L 266.707433 261.216 
L 266.486076 261.136008 
L 266.060174 260.711744 
L 265.788381 260.583149 
L 265.253202 260.493031 
L 264.809087 260.280393 
L 264.995419 259.639441 
L 265.079478 259.557424 
L 265.237791 259.505783 
L 264.958993 259.235429 
L 264.541497 259.044055 
L 264.294922 258.827367 
L 264.523284 258.47297 
L 264.523284 258.318048 
L 264.322942 258.38994 
L 263.815782 258.827367 
L 263.6995 258.657256 
L 263.737327 258.603591 
L 263.758341 258.585364 
L 263.779356 258.554988 
L 263.815782 258.47297 
L 263.632252 258.530686 
L 263.563603 258.573214 
L 263.464133 258.657256 
L 263.346449 258.47297 
L 263.165721 258.300835 
L 262.728611 258.150975 
L 262.305511 258.081109 
L 262.042124 258.147938 
L 261.854391 258.005166 
L 261.715693 257.838094 
L 261.546173 257.697348 
L 261.145489 257.601154 
L 261.102058 257.510024 
L 261.068434 257.397629 
L 260.974567 257.297386 
L 260.812052 257.248783 
L 260.674755 257.248783 
L 260.538858 257.229544 
L 260.387551 257.112087 
L 260.622918 256.941977 
L 260.622918 256.788067 
L 260.404363 256.703012 
L 260.279674 256.616944 
L 260.117159 256.636183 
L 259.876188 256.568341 
L 259.657633 256.458985 
L 259.563767 256.355703 
L 259.643623 255.874736 
L 259.588985 255.706651 
L 259.3284 255.59932 
L 259.454489 255.274287 
L 259.56797 254.764969 
L 259.736089 254.418673 
L 260.0331 254.578657 
L 260.954953 254.119967 
L 261.102058 253.969095 
L 261.181914 253.626849 
L 261.375251 253.451676 
L 261.610618 253.304855 
L 261.817965 253.035513 
L 261.413078 253.015262 
L 260.332912 252.680104 
L 259.918218 252.670991 
L 259.513331 252.589986 
L 259.294776 252.344946 
L 259.446083 251.84474 
L 259.01878 251.84069 
L 258.31268 252.138383 
L 257.907792 252.169773 
L 257.951223 252.079655 
L 258.035283 251.84474 
L 257.790109 251.862967 
L 257.605178 251.805251 
L 257.432856 251.720195 
L 257.211499 251.660454 
L 257.437059 251.536922 
L 257.920401 251.453892 
L 258.141758 251.320233 
L 258.286061 251.109621 
L 258.363115 250.851417 
L 258.332293 250.620553 
L 258.141758 250.486895 
L 258.141758 250.301596 
L 258.534037 250.299571 
L 258.884285 250.169963 
L 259.446083 249.806453 
L 259.362024 249.569514 
L 259.228929 249.408517 
L 259.058008 249.315361 
L 258.859067 249.280934 
L 259.425068 249.080447 
L 259.563767 248.942738 
L 259.521737 248.88806 
L 259.461494 248.722 
L 259.391445 248.580241 
L 259.3284 248.602517 
L 259.534346 248.250146 
L 259.563767 248.246096 
L 259.612802 248.120538 
L 259.764109 247.91195 
L 259.799134 247.752978 
L 259.758505 247.739815 
L 259.563767 247.582868 
L 259.464296 247.357066 
L 259.385841 247.209232 
L 259.276563 247.12114 
L 259.093033 247.072537 
L 258.748389 247.108989 
L 258.161372 247.458323 
L 257.790109 247.582868 
L 257.082607 247.631471 
L 256.777191 247.710451 
L 256.5082 247.905875 
L 256.387714 247.582868 
L 256.583854 247.166705 
L 256.511002 246.828509 
L 256.026258 246.208821 
L 256.873859 246.117691 
L 257.210098 245.966819 
L 257.446866 245.52838 
L 257.228311 245.365357 
L 257.374014 245.076777 
L 257.714455 244.800348 
L 258.088521 244.67884 
L 258.178184 244.608974 
L 258.639111 244.343683 
L 258.731577 244.33862 
L 258.758196 244.028776 
L 258.657324 243.858665 
L 258.388333 243.64299 
L 258.091323 242.936222 
L 257.970837 242.716496 
L 257.79151 242.67093 
L 257.310969 242.812689 
L 257.211499 242.716496 
L 257.084008 242.400576 
L 256.771587 242.200089 
L 256.377908 242.108959 
L 256.026258 242.115034 
L 256.108917 241.881132 
L 256.15515 241.790002 
L 256.026258 241.668494 
L 255.886159 241.59964 
L 255.730649 241.580401 
L 255.566732 241.604703 
L 255.740455 241.565213 
L 255.881956 241.486233 
L 256.15515 241.27967 
L 256.15515 241.094372 
L 255.673208 241.094372 
L 255.673208 240.925274 
L 255.877753 240.836168 
L 255.949203 240.596191 
L 255.880555 240.350139 
L 255.673208 240.246857 
" clip-path="url(#pe6c0a434d4)" style="fill: #f5f5f5; stroke: #000000"/>
    <path d="M 87.217746 147.293683 
L 87.132285 147.514421 
L 87.311612 147.688582 
L 87.806863 147.989313 
L 87.935054 148.214102 
L 87.963074 148.417626 
L 87.823675 149.472716 
L 87.645049 150.126831 
L 87.39287 150.522742 
L 87.088854 150.383009 
L 86.842279 149.517269 
L 86.700779 149.189199 
L 86.512345 148.838852 
L 85.502929 147.686557 
L 85.138671 147.424303 
L 84.767408 146.974726 
L 84.481605 146.495784 
L 84.557959 146.273021 
L 84.596487 146.014817 
L 84.402449 145.437657 
L 84.02348 144.574954 
L 84.557959 144.647859 
L 85.142874 144.95669 
L 85.680155 145.394117 
L 86.085743 145.856858 
L 86.280481 145.957101 
L 86.497635 145.881159 
L 86.731601 145.85382 
L 86.972572 146.104935 
L 87.042621 146.414779 
L 87.014601 146.696271 
L 87.02721 146.938274 
L 87.217746 147.123572 
L 87.217746 147.293683 
" clip-path="url(#pe6c0a434d4)" style="fill: #f5f5f5; stroke: #000000"/>
    <path d="M 86.150188 142.011148 
L 86.066129 141.913942 
L 85.990475 141.883565 
L 85.208721 141.736744 
L 83.54294 140.651277 
L 82.577655 140.837589 
L 82.313568 140.730257 
L 81.615172 139.928308 
L 81.426038 139.787562 
L 81.426038 139.63264 
L 82.419343 139.380512 
L 82.729663 139.447341 
L 82.856453 139.54556 
L 82.939812 139.679218 
L 82.947517 139.827052 
L 82.836839 139.972861 
L 82.426348 139.796675 
L 82.249822 139.787562 
L 82.549635 140.313082 
L 83.003557 140.300931 
L 83.498108 140.07918 
L 83.917005 139.972861 
L 83.917005 140.142971 
L 83.671831 140.142971 
L 83.671831 140.32827 
L 83.957634 140.466991 
L 85.690663 140.748483 
L 86.092748 141.009724 
L 86.41988 141.394498 
L 86.619521 141.856226 
L 86.459808 141.870402 
L 86.331617 141.910904 
L 86.150188 142.011148 
" clip-path="url(#pe6c0a434d4)" style="fill: #f5f5f5; stroke: #000000"/>
    <path d="M 67.973698 127.692511 
L 68.645475 127.977041 
L 68.964201 128.223094 
L 69.149132 128.543063 
L 68.763158 128.389154 
L 67.385281 128.37194 
L 67.187041 127.915275 
L 67.320835 127.691499 
L 67.636759 127.637833 
L 67.973698 127.692511 
" clip-path="url(#pe6c0a434d4)" style="fill: #f5f5f5; stroke: #000000"/>
    <path d="M 70.334373 121.376151 
L 70.511598 121.579676 
L 71.097914 121.886482 
L 71.285647 122.071781 
L 71.368306 122.421114 
L 71.408935 122.92537 
L 71.324875 123.256478 
L 71.040473 123.09143 
L 70.788995 122.527433 
L 70.425437 121.962424 
L 69.988327 121.663718 
L 69.521796 121.90167 
L 69.248603 121.515884 
L 68.981713 120.562051 
L 68.689606 120.187403 
L 69.671703 120.133737 
L 69.984124 120.187403 
L 70.335773 120.407129 
L 70.380605 120.689634 
L 70.313358 121.019729 
L 70.334373 121.376151 
" clip-path="url(#pe6c0a434d4)" style="fill: #f5f5f5; stroke: #000000"/>
    <path d="M 54.590007 112.764312 
L 54.795953 112.867594 
L 55.311519 112.843292 
L 55.48244 113.034666 
L 55.410289 113.499432 
L 54.952164 113.632078 
L 53.607911 113.508545 
L 52.716879 113.245279 
L 52.415665 113.034666 
L 52.473106 112.642805 
L 52.340012 112.232717 
L 52.153679 111.835793 
L 52.052107 111.476334 
L 52.19711 111.3366 
L 52.266459 111.178641 
L 52.38064 111.175603 
L 52.533349 111.319387 
L 52.750503 111.370015 
L 53.525252 111.768964 
L 53.953956 112.101084 
L 54.00229 112.169939 
L 54.590007 112.764312 
" clip-path="url(#pe6c0a434d4)" style="fill: #f5f5f5; stroke: #000000"/>
    <path d="M 21.267376 84.213107 
L 21.303802 84.270823 
L 21.336725 84.337652 
L 21.393465 84.383217 
L 21.502743 84.368029 
L 21.502743 84.553328 
L 20.618716 84.999867 
L 20.316101 85.063659 
L 20.316101 84.893548 
L 20.374243 84.884435 
L 20.495429 84.902662 
L 20.551468 84.893548 
L 20.449896 84.648509 
L 20.283879 84.59788 
L 19.846769 84.723438 
L 19.846769 84.553328 
L 20.552869 84.164504 
L 20.945148 84.058185 
L 21.267376 84.213107 
" clip-path="url(#pe6c0a434d4)" style="fill: #f5f5f5; stroke: #000000"/>
    <path d="M 215.548753 219.994609 
L 215.666646 219.913897 
L 215.82364 220.121757 
L 215.844379 220.486682 
L 215.466094 220.667962 
L 215.229327 220.791495 
L 214.988356 220.8725 
L 214.775405 220.796558 
L 214.363512 220.560631 
L 214.338295 220.42596 
L 214.517622 220.328754 
L 214.996762 220.353055 
L 215.145267 220.262937 
L 215.204109 220.185983 
L 215.260148 220.167757 
L 215.307782 220.179907 
L 215.520465 220.164441 
L 215.548753 219.994609 
" clip-path="url(#pe6c0a434d4)" style="fill: #f5f5f5; stroke: #000000"/>
   </g>
  </g>
 </g>
 <defs>
  <clipPath id="pe6c0a434d4">
   <rect x="7.2" y="7.2" width="278.228909" height="266.112"/>
  </clipPath>
 </defs>
</svg>
