<?xml version="1.0" encoding="utf-8" standalone="no"?>
<!DOCTYPE svg PUBLIC "-//W3C//DTD SVG 1.1//EN"
  "http://www.w3.org/Graphics/SVG/1.1/DTD/svg11.dtd">
<svg xmlns:xlink="http://www.w3.org/1999/xlink" width="261.104054pt" height="280.512pt" viewBox="0 0 261.104054 280.512" xmlns="http://www.w3.org/2000/svg" version="1.1">
 <metadata>
  <rdf:RDF xmlns:dc="http://purl.org/dc/elements/1.1/" xmlns:cc="http://creativecommons.org/ns#" xmlns:rdf="http://www.w3.org/1999/02/22-rdf-syntax-ns#">
   <cc:Work>
    <dc:type rdf:resource="http://purl.org/dc/dcmitype/StillImage"/>
    <dc:date>2024-03-04T13:11:10.566178</dc:date>
    <dc:format>image/svg+xml</dc:format>
    <dc:creator>
     <cc:Agent>
      <dc:title>Matplotlib v3.8.0, https://matplotlib.org/</dc:title>
     </cc:Agent>
    </dc:creator>
   </cc:Work>
  </rdf:RDF>
 </metadata>
 <defs>
  <style type="text/css">*{stroke-linejoin: round; stroke-linecap: butt}</style>
 </defs>
 <g id="figure_1">
  <g id="patch_1">
   <path d="M -0 280.512 
L 261.104054 280.512 
L 261.104054 0 
L -0 0 
z
" style="fill: #ffffff"/>
  </g>
  <g id="axes_1">
   <g id="PatchCollection_1">
    <path d="M 196.144674 25.535446 
L 196.156657 27.853268 
L 196.020856 29.095565 
L 195.625438 30.022294 
L 194.247464 30.782252 
L 194.015805 30.95901 
L 193.312838 31.727956 
L 193.109138 31.869761 
L 192.757654 32.008571 
L 192.745672 32.334124 
L 192.965349 33.058132 
L 192.885467 33.448597 
L 192.68576 33.718227 
L 192.430136 33.958897 
L 192.170518 34.269471 
L 191.906905 34.718855 
L 191.647287 35.324025 
L 191.187963 35.455845 
L 191.028198 35.631604 
L 191.527463 36.316664 
L 191.839005 37.014707 
L 192.038712 37.303312 
L 192.198477 37.760685 
L 192.142559 38.379836 
L 191.743146 39.79889 
L 191.447581 40.381092 
L 191.052162 40.895387 
L 190.564879 41.178998 
L 190.848462 41.842089 
L 190.736626 42.518162 
L 190.473014 43.244167 
L 190.325231 44.058051 
L 190.556891 45.817638 
L 190.433073 46.746365 
L 189.770048 47.511316 
L 190.40112 48.633777 
L 191.116068 49.622422 
L 191.379681 49.335815 
L 191.819035 49.672353 
L 192.090635 50.128728 
L 192.138565 50.657003 
L 191.906905 51.205252 
L 192.701737 51.611695 
L 193.396715 53.481131 
L 194.015805 53.8686 
L 193.975863 54.191158 
L 194.027787 56.018652 
L 194.003822 56.33422 
L 194.019799 56.630813 
L 194.147611 56.890457 
L 194.471135 57.359814 
L 194.387258 57.563534 
L 194.151605 57.699348 
L 193.788139 58.474286 
L 193.23695 58.845776 
L 192.581913 59.06947 
L 192.038712 59.145366 
L 191.731164 59.401015 
L 191.587375 59.940276 
L 191.299798 60.415624 
L 190.564879 60.49152 
L 190.956303 60.835049 
L 191.419622 61.022792 
L 191.787082 61.270452 
L 191.905938 61.805357 
L 191.906905 61.809713 
L 192.314306 61.863639 
L 193.101149 61.737811 
L 194.431194 61.837674 
L 195.230019 61.673899 
L 195.93698 61.366321 
L 196.655923 60.487526 
L 197.358889 60.387662 
L 198.013926 60.211903 
L 198.261562 59.526843 
L 198.573103 59.23724 
L 199.327993 59.029525 
L 200.170754 58.933656 
L 200.757891 58.987582 
L 202.107906 59.468922 
L 203.30215 59.698607 
L 204.468435 59.692615 
L 205.762532 59.452944 
L 206.261798 59.093437 
L 207.1445 57.907063 
L 208.530462 57.367803 
L 209.033722 56.95437 
L 209.580918 56.59686 
L 210.34779 56.526956 
L 210.711255 56.542934 
L 211.066733 56.518967 
L 211.777687 56.388146 
L 212.02732 56.264316 
L 212.490639 55.901813 
L 212.754251 55.80195 
L 212.949964 55.841895 
L 213.4013 56.058598 
L 213.51713 56.098543 
L 213.932519 55.941758 
L 214.060331 55.857873 
L 214.531638 54.933141 
L 214.895104 53.93451 
L 214.927057 53.750762 
L 215.474252 53.618943 
L 222.771522 54.29901 
L 223.438541 54.446808 
L 224.141508 54.867231 
L 224.712668 55.427463 
L 225.319775 55.861867 
L 226.138571 55.911799 
L 227.520539 55.377531 
L 228.215517 55.197778 
L 228.990378 55.273674 
L 230.51214 55.690103 
L 230.847647 55.917791 
L 231.095283 56.174439 
L 231.386854 56.386149 
L 231.846179 56.474028 
L 231.906133 56.688385 
L 231.966003 56.902441 
L 232.297515 57.116148 
L 232.736869 57.299896 
L 233.152258 57.623452 
L 233.383918 58.054861 
L 233.959072 60.467553 
L 234.062919 61.478167 
L 234.022978 64.394169 
L 234.338514 65.380817 
L 234.941627 66.18771 
L 236.794902 67.042538 
L 237.322127 67.82946 
L 237.92524 69.806749 
L 238.352612 70.709511 
L 238.895813 71.55635 
L 239.542861 72.319304 
L 240.277781 72.988387 
L 241.200424 73.453749 
L 241.49599 73.763324 
L 241.424095 74.288604 
L 241.068618 74.648111 
L 240.609293 74.921736 
L 240.317722 75.235306 
L 240.449528 75.712652 
L 240.705152 77.512184 
L 239.383096 79.104002 
L 237.601716 80.631907 
L 236.48336 82.239703 
L 236.36753 84.222984 
L 236.111906 85.04985 
L 233.248117 87.526455 
L 233.104329 87.730175 
L 232.884652 87.889956 
L 232.365415 88.089682 
L 230.424269 88.19354 
L 228.255458 87.949874 
L 226.342272 88.209518 
L 225.167998 89.839284 
L 225.603358 90.646177 
L 225.843006 91.437093 
L 225.691229 92.235998 
L 224.968292 93.066859 
L 222.112491 94.640701 
L 221.289701 95.515501 
L 219.919715 98.58729 
L 218.605648 100.544606 
L 218.429906 101.467341 
L 218.621624 102.438011 
L 218.997072 103.636368 
L 219.180802 104.579075 
L 219.344561 107.371247 
L 219.596191 107.634886 
L 220.047527 107.646869 
L 220.510846 107.730754 
L 220.8144 108.206102 
L 220.754488 108.609549 
L 220.207293 109.31658 
L 220.043533 109.700054 
L 220.119422 110.267276 
L 220.319128 110.698685 
L 220.359069 111.106126 
L 219.955663 111.605442 
L 219.560244 111.980927 
L 219.080246 112.618126 
L 217.327527 114.944863 
L 216.920126 115.903549 
L 216.884179 116.998048 
L 218.669554 119.127129 
L 218.901213 119.298894 
L 219.148849 119.25096 
L 219.660097 119.063217 
L 219.823856 118.891453 
L 219.927704 118.611836 
L 220.075486 118.356186 
L 220.375046 118.252329 
L 221.757014 118.41211 
L 222.132462 118.559907 
L 222.444004 118.819551 
L 222.723593 119.195036 
L 224.129525 118.823546 
L 225.679247 119.063217 
L 227.093168 119.750275 
L 228.099688 120.736922 
L 228.75073 122.05911 
L 229.226031 123.608985 
L 229.509614 125.2028 
L 229.577515 126.648817 
L 230.228557 126.301293 
L 230.867618 126.081595 
L 231.530643 126.0776 
L 232.237603 126.365206 
L 232.864681 126.513003 
L 233.455812 126.313277 
L 234.054931 126.029666 
L 234.717956 125.925808 
L 235.79637 126.237381 
L 237.266209 126.888488 
L 238.568295 127.703371 
L 239.423038 128.853794 
L 240.960777 129.912343 
L 241.436078 130.419647 
L 242.342745 132.28509 
L 242.690234 133.443501 
L 242.426621 134.697782 
L 240.856929 138.093127 
L 240.641246 139.039829 
L 240.649235 139.990525 
L 240.908853 140.973178 
L 241.072612 142.147568 
L 240.637252 142.974434 
L 239.954257 143.725405 
L 239.359132 144.676101 
L 239.155431 145.562885 
L 238.963713 147.232596 
L 238.556312 148.055468 
L 238.548324 148.610707 
L 239.650703 151.64255 
L 240.062098 152.477405 
L 240.193904 152.928787 
L 240.161951 153.260332 
L 239.946268 153.927417 
L 239.958251 154.258963 
L 240.229851 154.730317 
L 240.388672 154.886817 
L 241.044653 155.533216 
L 241.344213 156.032531 
L 241.408119 156.380055 
L 241.368178 157.586401 
L 241.212407 158.453212 
L 241.072612 158.824703 
L 240.856929 159.232145 
L 240.57734 159.547712 
L 240.25781 159.795372 
L 239.990204 160.074989 
L 239.882362 160.502403 
L 240.114022 161.24139 
L 240.681188 161.828585 
L 242.039191 162.727353 
L 242.254874 163.530252 
L 241.979279 163.973644 
L 241.488001 164.289211 
L 241.040659 164.72062 
L 240.900865 165.084121 
L 240.836959 166.014845 
L 240.349675 167.133312 
L 240.856929 167.636622 
L 241.288295 168.331669 
L 241.304272 168.914869 
L 240.038133 169.154541 
L 239.790497 169.490081 
L 239.634726 169.937467 
L 239.375108 170.328931 
L 239.007648 170.596564 
L 238.644183 170.776317 
L 237.853346 171.055934 
L 237.505857 171.363512 
L 237.761481 171.651118 
L 238.512377 172.070543 
L 238.97969 173.636396 
L 239.638721 173.840117 
L 240.453522 173.975931 
L 240.749088 174.23158 
L 239.838427 174.782824 
L 239.371114 175.302112 
L 239.123478 176.136968 
L 239.003654 179.216745 
L 238.768001 180.211382 
L 238.744036 180.538932 
L 239.039601 182.224621 
L 238.760013 182.755893 
L 237.733522 183.315126 
L 237.650082 183.34772 
L 233.152258 185.104673 
L 232.876663 185.384289 
L 232.684945 185.671895 
L 232.589086 186.015424 
L 232.609057 186.458816 
L 232.405356 186.822318 
L 232.429321 187.061989 
L 232.629028 187.261715 
L 232.944564 187.493398 
L 233.132288 187.820949 
L 233.092346 188.204423 
L 232.836722 188.967377 
L 232.621039 191.004584 
L 232.441304 191.555828 
L 232.177691 191.819467 
L 231.510672 192.055144 
L 231.302977 192.238892 
L 231.259042 192.618371 
L 231.49869 193.309424 
L 231.490701 193.593035 
L 230.975459 194.156263 
L 229.649409 194.6396 
L 229.126178 195.047042 
L 229.249996 196.369229 
L 232.177691 198.845833 
L 232.465268 200.076147 
L 232.297515 199.968294 
L 230.452228 200.399703 
L 230.068792 200.575462 
L 229.717309 200.811139 
L 228.978395 201.438279 
L 228.662859 201.769824 
L 228.487118 202.161288 
L 228.503094 203.175897 
L 228.231494 203.511437 
L 227.86004 203.803037 
L 227.532522 204.146566 
L 227.292419 204.83462 
L 227.117132 205.336934 
L 226.885473 205.628534 
L 226.53399 205.680463 
L 226.150554 205.520682 
L 225.555429 205.177153 
L 225.167998 205.145197 
L 224.924357 205.189137 
L 223.14697 205.744375 
L 222.851405 205.740381 
L 222.603769 205.512693 
L 222.487939 204.805662 
L 222.132462 204.546018 
L 221.757014 204.546018 
L 221.38556 204.713788 
L 220.718541 205.117235 
L 219.907733 205.285005 
L 218.961125 205.237071 
L 218.078423 204.945471 
L 217.447351 204.390232 
L 217.491286 204.198495 
L 217.519245 202.708537 
L 217.806822 202.369003 
L 218.609642 201.965556 
L 219.156837 200.799155 
L 219.616162 200.515544 
L 219.779921 200.263889 
L 219.252696 199.544875 
L 218.853283 199.261264 
L 218.445883 199.065532 
L 218.146323 198.781921 
L 218.018511 197.707394 
L 217.758893 197.327914 
L 217.051932 196.6089 
L 216.576631 195.897875 
L 215.697923 194.104334 
L 215.34644 192.506525 
L 215.010933 191.691642 
L 214.54362 190.960644 
L 214.012402 190.449345 
L 213.605001 190.157745 
L 213.481183 190.109811 
L 213.393312 190.317526 
L 212.586498 191.519877 
L 212.179097 192.29082 
L 212.07525 192.718234 
L 212.015338 193.481188 
L 211.873546 193.884635 
L 211.562005 194.316044 
L 208.622327 197.164139 
L 208.362709 197.563591 
L 208.250873 198.382469 
L 208.079126 198.725998 
L 207.691696 198.989636 
L 206.769052 199.285231 
L 206.309728 199.516913 
L 205.926291 199.860442 
L 205.363119 200.567473 
L 205.035601 200.891029 
L 203.781445 201.757841 
L 203.398009 202.129332 
L 203.18632 202.500822 
L 203.078479 202.860329 
L 202.902737 203.171902 
L 202.495336 203.403585 
L 202.29563 203.339672 
L 201.972106 202.864324 
L 201.72447 202.800412 
L 201.181268 202.968182 
L 200.981562 202.964187 
L 200.142795 202.828373 
L 199.399888 203.012121 
L 198.712898 202.932231 
L 191.974806 200.431659 
L 191.595364 200.347774 
L 191.148021 200.407692 
L 190.409108 200.839101 
L 189.98573 200.92698 
L 189.178917 200.731248 
L 186.686581 199.600798 
L 185.727991 199.429034 
L 185.228725 199.576831 
L 184.529381 200.276245 
L 184.082411 200.723259 
L 183.563174 200.751221 
L 183.451339 200.519539 
L 183.651045 200.160032 
L 184.082411 199.79653 
L 184.262146 199.524902 
L 184.417917 199.201346 
L 184.525759 198.861811 
L 184.553718 198.530266 
L 184.6336 198.138803 
L 184.849283 197.823235 
L 185.172807 197.479706 
L 185.076948 197.044303 
L 184.893218 197.004358 
L 184.657565 197.012347 
L 184.38197 196.716752 
L 184.278123 196.40518 
L 184.082411 195.362609 
L 183.718945 194.919217 
L 182.996008 193.736838 
L 182.660501 193.409287 
L 181.721881 193.88863 
L 181.170692 193.908602 
L 181.002939 193.221544 
L 180.97498 192.822092 
L 180.827197 192.550464 
L 180.319943 192.055144 
L 180.228078 191.799494 
L 180.295978 191.555828 
L 180.459737 191.264228 
L 180.531632 191.08048 
L 180.683409 190.82483 
L 180.707373 190.601137 
L 179.980442 190.413394 
L 179.896565 190.213668 
L 179.936507 189.981986 
L 179.936507 189.802232 
L 180.004407 189.786254 
L 179.85263 188.903465 
L 179.680883 188.671782 
L 179.077769 188.080593 
L 178.854098 187.796982 
L 178.506609 186.978104 
L 177.65586 184.173949 
L 177.208518 183.231241 
L 176.557475 182.783855 
L 174.923877 182.256578 
L 174.752294 182.132281 
L 172.199883 180.283283 
L 170.554302 179.600219 
L 168.653098 179.652148 
L 168.237709 179.80394 
L 166.344492 181.074199 
L 166.108839 181.293897 
L 165.917121 181.545552 
L 165.681467 182.036879 
L 165.613567 182.372419 
L 165.585608 182.791844 
L 165.417855 183.183307 
L 164.918589 183.454935 
L 164.239587 183.243225 
L 163.506254 182.465667 
L 163.045343 181.976961 
L 162.613978 181.877098 
L 162.466195 182.40038 
L 162.789719 186.566668 
L 163.121232 188.128527 
L 163.924051 189.366829 
L 165.429837 190.049893 
L 165.25809 190.716978 
L 164.563112 191.811478 
L 164.287517 192.398673 
L 164.215623 192.969889 
L 164.491218 194.567699 
L 164.223611 195.678176 
L 163.704375 197.008353 
L 163.424786 198.258638 
L 163.86414 199.109472 
L 148.522698 202.396965 
L 147.32446 202.265145 
L 146.142198 201.454257 
L 144.832124 199.828486 
L 144.133152 199.313193 
L 143.733739 199.077516 
L 142.523519 199.676694 
L 140.893915 200.199977 
L 139.499965 200.475599 
L 138.641227 200.819128 
L 137.331154 202.025474 
L 136.688099 202.400959 
L 136.049039 202.34903 
L 135.346073 201.97754 
L 134.039993 200.954942 
L 133.744428 200.611413 
L 133.588657 200.287856 
L 133.349009 199.988267 
L 132.81779 199.716639 
L 130.864662 199.12545 
L 129.434765 199.077516 
L 129.350888 199.101483 
L 129.04334 199.860442 
L 129.874119 202.113353 
L 130.013913 202.964187 
L 129.734324 205.105252 
L 129.750301 205.780326 
L 130.04986 206.595209 
L 131.028421 208.157067 
L 131.391887 209.023879 
L 131.599581 210.010526 
L 131.599581 210.813426 
L 131.411857 211.616325 
L 131.05638 212.594983 
L 128.240521 217.188685 
L 128.16709 217.470303 
L 127.781196 218.95027 
L 127.980902 219.857027 
L 128.643927 219.74518 
L 130.209625 218.646686 
L 131.30801 218.311146 
L 132.078877 218.562801 
L 132.709949 219.273826 
L 134.043987 221.21117 
L 136.983665 224.334887 
L 137.550831 225.225666 
L 137.550831 226.056527 
L 136.596234 226.643722 
L 135.705544 226.735596 
L 135.174325 226.691656 
L 134.770918 226.935322 
L 134.25967 227.894008 
L 134.067952 228.573077 
L 134.032005 231.249407 
L 133.968099 231.469106 
L 134.039993 231.616903 
L 134.371506 231.948449 
L 134.671065 232.172142 
L 136.859847 233.086888 
L 137.674649 233.57422 
L 139.232358 234.856462 
L 140.638291 235.523547 
L 142.471595 236.026857 
L 143.965399 236.725899 
L 144.3728 237.97219 
L 143.853563 238.803051 
L 142.188012 240.049342 
L 141.664782 240.980066 
L 139.460023 246.188925 
L 139.352182 247.083698 
L 139.735618 247.890592 
L 140.534444 248.36594 
L 141.449099 248.661535 
L 142.192006 249.060987 
L 142.463607 249.879865 
L 142.160053 250.750671 
L 141.477058 251.565553 
L 140.642285 252.188699 
L 139.963331 252.447707 
L 139.867424 252.484294 
L 139.148481 252.464321 
L 136.923753 251.829192 
L 136.148892 251.741313 
L 134.043987 252.01294 
L 133.20522 251.729329 
L 132.558172 251.030287 
L 129.490682 246.069089 
L 128.056791 244.970595 
L 126.119639 244.690979 
L 125.053207 245.421976 
L 124.33027 246.612344 
L 123.467539 247.718827 
L 121.993706 248.210154 
L 120.404043 248.529716 
L 119.157876 249.296664 
L 118.007567 250.243366 
L 116.689505 251.098194 
L 115.682985 251.957017 
L 115.047919 253.175346 
L 112.479203 260.095199 
L 111.876085 261.216 
L 111.127178 260.730853 
L 110.181283 260.131874 
L 108.292589 258.161161 
L 107.690422 255.66167 
L 107.325604 254.979141 
L 107.074006 254.280886 
L 106.929337 253.513434 
L 106.875872 252.626461 
L 106.07013 251.732696 
L 104.77831 250.791054 
L 100.036779 246.764186 
L 93.806112 242.473274 
L 93.493974 240.734104 
L 93.538004 240.139644 
L 93.764442 239.469696 
L 93.902822 238.601595 
L 93.745572 237.85616 
L 93.380755 237.129597 
L 92.82081 236.675982 
L 91.962308 236.169301 
L 90.851531 235.308059 
L 90.19575 235.00527 
L 90.044879 234.247869 
L 88.594092 232.634972 
L 88.07874 232.025598 
L 87.3732 231.268361 
L 86.315046 230.15824 
L 82.233497 226.726517 
L 77.293239 222.89094 
L 75.32651 221.275332 
L 70.324339 217.635039 
L 67.99534 215.660631 
L 65.053971 213.428943 
L 58.200987 204.962675 
L 57.364422 203.481242 
L 58.068898 204.012796 
L 59.172786 205.189136 
L 60.006206 205.616896 
L 60.899381 205.717546 
L 61.427738 205.384145 
L 61.912065 204.761376 
L 62.644846 204.009651 
L 62.547352 204.553787 
L 62.364943 204.987837 
L 62.258013 205.403016 
L 62.380668 205.881101 
L 62.585092 205.811905 
L 62.739196 205.704965 
L 62.852415 205.5477 
L 62.93104 205.352692 
L 62.91846 206.057237 
L 63.037969 206.780655 
L 63.365047 207.183253 
L 63.965739 206.93792 
L 65.346386 207.422295 
L 65.569679 207.598432 
L 65.648304 207.614158 
L 66.220691 208.497986 
L 66.362215 209.334634 
L 66.626393 209.334634 
L 66.698728 208.957199 
L 66.837107 208.784207 
L 67.063546 208.818806 
L 67.418929 209.048412 
L 67.466104 208.906874 
L 67.466104 208.840823 
L 67.503843 208.812515 
L 67.683107 208.784207 
L 67.805762 210.19959 
L 67.947286 210.655657 
L 68.211464 210.36 
L 68.516527 210.180718 
L 68.87191 210.102086 
L 69.265033 210.127248 
L 69.136089 210.671384 
L 69.287048 210.800341 
L 69.626706 210.649367 
L 70.057569 210.369436 
L 70.353197 210.058051 
L 70.64568 209.347215 
L 70.872119 209.048412 
L 71.428781 208.843968 
L 72.277926 208.718156 
L 73.079896 208.692994 
L 73.510759 208.784207 
L 74.523443 208.680413 
L 74.875681 208.501131 
L 75.09583 208.01361 
L 74.359904 207.573269 
L 74.061131 207.466329 
L 74.13661 206.742912 
L 73.381815 206.359186 
L 72.441465 206.000622 
L 71.928833 205.352692 
L 71.664654 205.352692 
L 71.928833 206.038366 
L 72.45719 208.01361 
L 71.909963 207.931833 
L 71.608045 207.648756 
L 71.422491 207.340517 
L 71.252662 207.202124 
L 70.944454 207.038569 
L 70.510446 206.312006 
L 70.202238 206.145306 
L 69.909755 206.104417 
L 69.434862 205.925135 
L 69.145524 205.881101 
L 69.004 205.98175 
L 69.019725 206.208212 
L 69.063754 206.46298 
L 69.026015 206.651698 
L 68.761836 206.94421 
L 68.513383 207.31221 
L 68.321539 207.689645 
L 68.211464 208.01361 
L 67.667382 207.780859 
L 67.176765 207.466329 
L 67.327724 207.070022 
L 67.098141 206.271117 
L 67.176765 205.881101 
L 67.532148 205.698674 
L 67.985026 205.711255 
L 68.365568 205.679802 
L 68.497658 205.352692 
L 68.041635 204.975256 
L 67.050966 204.648146 
L 65.984817 204.465719 
L 65.305501 204.53806 
L 64.434341 202.754679 
L 64.371441 202.45273 
L 63.975174 202.17909 
L 63.786475 202.17909 
L 63.70156 202.572252 
L 63.560036 202.597414 
L 63.000229 202.896217 
L 62.93104 202.955978 
L 61.94666 202.754679 
L 61.025181 203.446643 
L 60.144586 204.292727 
L 59.238831 204.53806 
L 58.867723 204.330471 
L 58.515485 203.975053 
L 58.263886 203.537857 
L 58.156957 203.075499 
L 58.251307 202.952832 
L 58.701039 202.540799 
L 58.833128 202.45273 
L 59.050132 202.333209 
L 58.748214 202.094167 
L 58.320496 201.896013 
L 58.156957 201.899159 
L 58.094057 201.578339 
L 58.153812 201.2701 
L 58.156957 201.009041 
L 57.917938 200.84234 
L 57.59086 200.792015 
L 57.339262 200.817178 
L 57.169433 200.94928 
L 57.100243 201.21663 
L 57.587715 202.13191 
L 57.719805 202.704354 
L 57.364422 203.198165 
L 56.754295 202.93396 
L 55.137774 200.999605 
L 54.464748 200.556118 
L 54.823276 201.112835 
L 55.678711 202.144492 
L 56.024659 202.691773 
L 55.162934 202.113039 
L 54.13138 201.112835 
L 53.250785 199.971093 
L 52.854518 198.974035 
L 52.854518 198.760155 
L 52.558889 197.876328 
L 52.332451 194.36618 
L 52.043112 193.800027 
L 48.209379 190.025674 
L 47.17468 189.440649 
L 46.001602 188.047284 
L 45.45123 187.606943 
L 45.55816 187.455969 
L 45.715409 187.072243 
L 44.878843 186.845782 
L 44.400806 186.172689 
L 43.866159 184.700691 
L 42.246494 183.109172 
L 41.99175 182.706575 
L 41.815631 182.646814 
L 41.450813 182.316558 
L 41.123735 181.948559 
L 41.073415 181.775568 
L 40.661423 181.589995 
L 40.752627 181.215705 
L 41.035676 180.964082 
L 41.205505 181.115056 
L 41.491698 181.819602 
L 42.199319 182.366883 
L 43.076769 182.646814 
L 43.866159 182.561891 
L 43.774955 182.719156 
L 43.72778 182.750609 
L 43.680605 182.76319 
L 43.576821 182.854403 
L 44.080018 183.061993 
L 44.356776 182.854403 
L 44.652405 182.039772 
L 44.891423 182.039772 
L 45.180762 182.854403 
L 44.954323 182.933036 
L 44.784494 183.039976 
L 44.690145 183.212967 
L 44.652405 183.486607 
L 44.784494 183.722505 
L 45.048672 183.552659 
L 45.246806 183.253856 
L 45.180762 183.096591 
L 47.1621 183.096591 
L 48.237684 183.360796 
L 48.778621 184.005581 
L 48.681127 184.79505 
L 47.822547 185.493305 
L 48.284859 186.002843 
L 48.533312 186.204142 
L 48.756606 186.285919 
L 49.596316 186.361406 
L 49.81332 186.418021 
L 49.910815 186.647628 
L 49.90767 187.317576 
L 49.961134 187.606943 
L 50.74738 188.129061 
L 50.77254 188.311489 
L 50.964383 188.783283 
L 51.171952 189.097812 
L 51.275737 188.802154 
L 51.398391 188.607146 
L 51.942473 188.402702 
L 52.068272 188.273745 
L 51.964488 187.58178 
L 51.709744 186.808038 
L 51.376376 186.270193 
L 51.011558 186.285919 
L 50.590131 185.795253 
L 49.643491 185.141032 
L 49.426487 184.700691 
L 49.879365 184.021307 
L 50.247328 183.769684 
L 50.187573 183.514915 
L 48.92958 181.347808 
L 48.212524 180.611809 
L 47.822547 180.982953 
L 47.228145 180.636971 
L 47.030011 180.454544 
L 46.891632 180.816253 
L 46.888487 181.184252 
L 47.030011 182.039772 
L 46.306665 181.448457 
L 45.325431 179.646203 
L 44.652405 179.372563 
L 44.369356 179.627332 
L 44.186947 180.080254 
L 44.073728 180.51745 
L 43.982524 180.718749 
L 43.614561 180.83827 
L 43.400702 181.152799 
L 43.318932 181.571123 
L 43.337802 182.039772 
L 43.057899 181.756696 
L 42.759126 181.571123 
L 42.416323 181.4862 
L 41.99175 181.4862 
L 42.438337 180.718749 
L 42.350278 180.284698 
L 41.469683 179.636768 
L 40.620538 180.190339 
L 40.048151 179.98904 
L 39.721073 179.227879 
L 39.620434 178.079847 
L 39.651883 177.626925 
L 39.815423 176.950686 
L 39.853162 176.626721 
L 39.853162 175.032057 
L 39.783973 174.610588 
L 39.444315 173.748777 
L 39.331095 173.305291 
L 39.375125 172.106934 
L 39.331095 171.720062 
L 38.683229 170.115963 
L 37.802634 168.898734 
L 35.660901 166.684447 
L 30.820774 159.915774 
L 30.452811 159.245826 
L 30.059689 158.286512 
L 29.726321 157.437282 
L 29.543912 156.632087 
L 30.059689 157.663743 
L 30.452811 158.814921 
L 30.927704 159.488014 
L 31.676209 160.324662 
L 32.273756 160.264902 
L 32.877592 160.529106 
L 33.358775 160.985174 
L 33.755042 162.205548 
L 34.660797 163.149136 
L 34.868366 163.904007 
L 35.11053 164.284587 
L 36.330783 165.797474 
L 36.849705 166.13402 
L 37.085578 166.388789 
L 38.944263 167.885949 
L 39.268196 168.05894 
L 40.406679 168.398632 
L 40.774642 173.201496 
L 41.010516 173.799102 
L 41.469683 173.591512 
L 41.582902 173.195205 
L 41.230664 172.666796 
L 41.337594 172.380574 
L 41.677252 172.232745 
L 41.96659 172.38372 
L 42.174159 172.701394 
L 42.255929 173.041086 
L 42.834605 172.380574 
L 43.74036 171.85531 
L 44.775059 171.53449 
L 45.715409 171.455858 
L 45.492115 172.059754 
L 45.44494 172.71083 
L 45.661944 173.270692 
L 46.237476 173.591512 
L 46.511089 172.286215 
L 46.492219 171.647721 
L 46.237476 171.191653 
L 47.445149 171.024953 
L 50.643595 171.455858 
L 51.804094 171.191653 
L 50.209588 170.578321 
L 49.596316 170.119108 
L 49.137149 169.345365 
L 48.778621 167.904821 
L 48.734591 167.061882 
L 48.89813 166.420242 
L 48.583632 166.322738 
L 47.822547 165.891833 
L 47.652717 165.869816 
L 47.1621 165.891833 
L 46.885342 165.992482 
L 46.866472 166.237815 
L 47.030011 166.813404 
L 46.973401 167.209711 
L 46.841312 167.407864 
L 46.677773 167.539967 
L 45.715409 168.829537 
L 44.828524 169.464887 
L 43.7781 169.776271 
L 42.520107 169.873775 
L 42.262218 169.927245 
L 42.01691 170.005877 
L 41.765311 170.024749 
L 41.469683 169.873775 
L 41.255824 169.587553 
L 41.20865 168.964785 
L 40.935036 168.398632 
L 40.903586 168.043214 
L 40.935036 167.341813 
L 40.774642 167.14995 
L 40.419259 167.058737 
L 40.048151 167.011557 
L 39.853162 166.945506 
L 39.783973 166.338464 
L 40.095326 165.929576 
L 40.661423 165.69997 
L 41.337594 165.627628 
L 41.661527 165.398021 
L 41.727572 164.872757 
L 41.570322 164.325476 
L 41.205505 164.020383 
L 41.205505 163.778195 
L 41.551453 163.683836 
L 42.476077 163.595768 
L 42.784285 163.491973 
L 43.092494 163.114538 
L 43.265468 162.381684 
L 43.878739 161.255669 
L 43.75294 160.588867 
L 43.048464 159.245826 
L 43.256033 159.009929 
L 43.293773 158.830648 
L 43.142813 158.660802 
L 42.784285 158.453212 
L 42.765416 159.223809 
L 43.048464 161.243088 
L 42.941535 161.658267 
L 42.658486 162.041993 
L 42.274798 162.325069 
L 41.859661 162.4383 
L 41.510568 162.318779 
L 41.18978 161.784079 
L 40.935036 161.645686 
L 40.30604 161.859566 
L 39.916062 162.406847 
L 39.607854 162.973 
L 39.208441 163.230914 
L 37.356047 163.576896 
L 36.71447 163.491973 
L 36.283608 162.982436 
L 36.160954 162.17095 
L 36.226998 161.419225 
L 36.330783 161.095259 
L 36.242723 161.041789 
L 35.978545 160.796456 
L 35.840165 160.551123 
L 35.657756 160.62032 
L 35.434463 160.771294 
L 35.057065 160.928559 
L 34.981585 161.079533 
L 34.811756 161.180182 
L 34.317994 161.095259 
L 33.755042 160.774439 
L 32.39641 159.755364 
L 31.808299 159.532048 
L 31.339696 159.267843 
L 31.000038 158.626203 
L 30.905689 157.83988 
L 31.173012 157.135334 
L 31.047213 156.996941 
L 30.981168 156.890001 
L 30.886819 156.632087 
L 31.63847 156.084806 
L 31.456061 155.185252 
L 30.789324 154.273116 
L 30.072269 153.706964 
L 30.556596 154.870722 
L 30.330157 155.91496 
L 30.198068 156.264088 
L 29.952759 156.226344 
L 29.82696 155.811165 
L 29.543912 153.442759 
L 28.889755 151.7443 
L 25.056022 146.81877 
L 26.059272 147.768648 
L 26.612788 148.039144 
L 27.191465 147.850426 
L 26.641093 147.611384 
L 26.870677 147.09241 
L 27.191465 146.648924 
L 27.499673 146.359557 
L 27.694662 146.296651 
L 27.241785 146.095352 
L 26.109591 146.862804 
L 25.442855 146.692958 
L 25.188112 146.073335 
L 24.942803 145.120311 
L 24.65032 144.459799 
L 24.266632 144.711423 
L 23.980439 144.711423 
L 23.650216 143.333784 
L 23.448937 142.86199 
L 22.86397 141.864932 
L 21.844996 139.559431 
L 21.017866 138.147194 
L 20.505234 136.112189 
L 19.31643 134.577285 
L 18.413821 131.730794 
L 18.939033 130.919308 
L 19.225226 131.202385 
L 18.882423 131.947819 
L 19.30385 132.281221 
L 20.549263 132.523408 
L 20.379434 132.872536 
L 20.341695 133.108433 
L 20.404594 133.300296 
L 20.549263 133.55821 
L 21.379539 133.533048 
L 21.96136 134.476636 
L 22.285293 135.797659 
L 22.461412 137.41434 
L 22.681561 137.980493 
L 23.055814 138.433416 
L 23.593606 138.615843 
L 23.895524 138.880047 
L 23.977294 139.449346 
L 24.165993 139.987191 
L 24.794989 140.175909 
L 24.455331 139.515397 
L 24.493071 138.867466 
L 24.678625 138.184937 
L 24.794989 137.41434 
L 25.002558 136.867059 
L 25.518335 136.823025 
L 26.197651 136.973999 
L 26.876967 137.011743 
L 26.876967 136.747538 
L 26.499569 136.571402 
L 26.103301 136.260018 
L 25.839123 135.854275 
L 25.848558 135.401352 
L 26.131606 135.149729 
L 26.505859 135.181182 
L 27.436774 135.621523 
L 27.820462 136.165659 
L 28.1098 136.82617 
L 28.226164 137.41434 
L 28.518648 138.181792 
L 29.915019 139.483944 
L 30.358462 140.175909 
L 30.377332 140.955942 
L 30.110008 142.314709 
L 30.358462 142.86199 
L 30.62264 142.86199 
L 30.789324 142.138572 
L 30.886819 139.792183 
L 31.097533 139.062475 
L 32.019012 138.052835 
L 32.226581 137.41434 
L 32.188841 136.885931 
L 32.132232 136.66576 
L 32.188841 136.524222 
L 32.47189 136.219129 
L 32.698328 136.074445 
L 33.33676 135.854275 
L 33.547474 135.712736 
L 33.651258 135.313284 
L 33.575778 134.904396 
L 33.622953 134.564704 
L 34.075831 134.369696 
L 34.604188 135.401352 
L 34.525563 134.501798 
L 34.075831 133.885321 
L 33.755042 133.240535 
L 34.075831 132.237186 
L 36.362232 130.192745 
L 37.057273 128.802525 
L 40.513609 124.99672 
L 41.469683 123.502705 
L 42.0232 121.90175 
L 41.99175 116.907023 
L 42.281088 116.095537 
L 43.152248 114.365626 
L 43.337802 113.585593 
L 43.378687 113.160978 
L 43.548516 112.333766 
L 43.576821 111.868262 
L 43.488761 111.512844 
L 43.048464 110.523649 
L 43.092494 110.040846 
L 43.212003 109.580061 
L 43.425862 109.164882 
L 43.718345 108.796883 
L 43.910189 108.433601 
L 43.840999 108.098627 
L 43.66488 107.787243 
L 43.576821 107.490013 
L 43.526501 106.664373 
L 42.167869 99.346847 
L 41.727572 98.10131 
L 41.850226 97.752183 
L 42.04836 96.729962 
L 42.123839 96.516082 
L 42.293668 96.402852 
L 43.526501 95.308289 
L 43.944784 95.198204 
L 44.319037 95.471845 
L 44.652405 96.226715 
L 44.812799 97.171876 
L 44.734174 97.955054 
L 44.363066 99.394026 
L 44.435401 99.843803 
L 44.608375 100.268418 
L 44.627245 100.587665 
L 44.230977 100.711904 
L 44.029698 100.878605 
L 43.954219 101.262331 
L 43.985669 101.710535 
L 44.098888 102.059663 
L 44.435401 101.749851 
L 44.64297 101.403869 
L 44.878843 101.120793 
L 45.312851 101.002844 
L 46.577134 101.01228 
L 46.765833 101.134946 
L 46.973401 101.633476 
L 47.986086 102.624243 
L 48.344613 103.375968 
L 48.476703 104.83853 
L 48.722011 105.055555 
L 49.039654 105.258427 
L 49.306978 105.253709 
L 49.426487 104.83853 
L 49.212629 103.184105 
L 49.256658 102.488996 
L 49.665506 101.793886 
L 51.577655 102.331731 
L 52.068272 102.5865 
L 52.275841 103.011114 
L 52.602919 104.352582 
L 52.854518 104.719009 
L 53.024347 104.451659 
L 54.11251 103.369678 
L 54.464748 103.114909 
L 55.049715 103.144789 
L 55.389373 103.382259 
L 55.785641 104.168583 
L 57.71037 103.847763 
L 59.119322 105.277299 
L 60.30498 107.147176 
L 61.566117 108.150525 
L 60.150876 105.565093 
L 59.597359 104.83853 
L 59.493574 104.206326 
L 60.24837 103.861916 
L 61.245329 103.909096 
L 61.852311 104.456377 
L 62.327203 104.159147 
L 63.041114 103.231285 
L 63.459397 102.825542 
L 64.818029 101.966877 
L 65.305501 101.793886 
L 65.928207 101.804894 
L 67.057256 102.220073 
L 67.683107 102.347457 
L 68.252349 102.297133 
L 69.815405 101.793886 
L 69.815405 101.504518 
L 67.874951 101.548553 
L 67.117011 101.328382 
L 66.362215 100.711904 
L 65.767813 101.105066 
L 65.050757 101.451048 
L 64.289672 101.699527 
L 61.305084 101.881954 
L 60.795597 102.059663 
L 59.056422 101.466775 
L 58.56895 101.134946 
L 57.987128 100.611255 
L 57.67263 100.431973 
L 56.446087 100.472862 
L 56.030949 100.276281 
L 54.1817 98.890779 
L 52.841938 98.096592 
L 52.288421 97.528867 
L 52.068272 96.756697 
L 51.804094 96.756697 
L 51.583945 97.226919 
L 51.363796 97.365312 
L 50.879469 97.283534 
L 50.564971 97.377893 
L 49.696956 97.761619 
L 49.426487 97.813516 
L 49.118279 97.370029 
L 48.888695 95.992391 
L 48.476703 95.699878 
L 47.929476 95.147879 
L 46.077082 90.897014 
L 45.586464 90.170451 
L 44.510881 88.957941 
L 43.79068 88.604095 
L 43.111364 88.655992 
L 42.507527 88.627685 
L 41.99175 88.023788 
L 41.9603 87.457635 
L 42.114404 85.328271 
L 42.388018 84.85805 
L 43.227728 84.773127 
L 44.098888 84.592272 
L 44.532895 84.414563 
L 45.319141 83.961641 
L 45.715409 83.801231 
L 46.231186 83.73518 
L 46.567699 83.827966 
L 46.910502 83.969504 
L 47.435714 84.041846 
L 47.753357 83.960068 
L 48.275424 83.595214 
L 48.983045 83.320001 
L 49.590026 82.937848 
L 50.275632 82.640618 
L 51.011558 82.720823 
L 51.6437 83.348309 
L 51.929893 84.24 
L 51.791514 85.037332 
L 51.143647 85.386459 
L 49.464227 85.027896 
L 48.643387 85.13169 
L 48.111885 85.913296 
L 49.00506 85.639655 
L 50.137253 85.708852 
L 51.043008 86.207381 
L 51.275737 87.231174 
L 51.734904 87.084918 
L 52.074562 86.815995 
L 52.275841 86.422834 
L 52.332451 85.913296 
L 52.797908 86.532919 
L 52.867098 87.658934 
L 52.665819 88.764505 
L 52.332451 89.344812 
L 52.700413 90.444092 
L 53.011767 90.782211 
L 53.672213 90.925322 
L 53.502384 90.313562 
L 53.508674 89.527239 
L 53.697373 88.839992 
L 54.043321 88.552198 
L 54.288629 88.207788 
L 54.684897 86.529774 
L 54.993105 85.913296 
L 54.464748 85.145844 
L 54.332659 84.350085 
L 54.464748 82.456618 
L 54.068481 77.87707 
L 52.700413 74.2474 
L 52.590339 73.317966 
L 52.42051 72.69677 
L 52.093432 72.298891 
L 51.879573 71.847541 
L 52.068272 71.06279 
L 52.552599 70.240296 
L 53.058941 69.854997 
L 53.625038 69.741767 
L 54.323224 69.741767 
L 55.005685 69.548331 
L 55.379938 69.082828 
L 55.644117 68.554418 
L 56.024659 68.161256 
L 56.7197 68.041735 
L 58.974652 68.101496 
L 59.597359 68.293359 
L 60.116281 69.139443 
L 60.440214 70.793868 
L 60.795597 71.614789 
L 61.11324 70.957423 
L 61.264145 70.473222 
L 62.413313 70.605653 
L 63.012432 70.825352 
L 63.651492 71.276733 
L 64.654018 72.423162 
L 65.293079 72.918482 
L 65.976074 73.210083 
L 66.663064 73.31394 
L 67.27816 73.178126 
L 67.73349 72.734734 
L 67.873285 72.22743 
L 67.877279 71.082999 
L 68.080979 70.517774 
L 68.839163 70.41957 
L 69.962213 70.274108 
L 74.180011 70.290086 
L 84.863982 70.323269 
L 85.754991 70.326037 
L 97.321983 70.365982 
L 106.072212 70.393169 
L 108.892969 70.401933 
L 120.467949 70.441878 
L 120.408037 60.315761 
L 120.348126 50.190643 
L 120.300216 42.094637 
L 120.288214 40.066523 
L 120.228302 29.938409 
L 120.212325 26.834664 
L 119.91676 25.353695 
L 120.164396 24.946253 
L 120.316173 24.492875 
L 120.384073 24.019524 
L 120.384073 23.536187 
L 120.451973 22.903055 
L 120.695615 22.46166 
L 120.995174 22.054218 
L 121.226834 21.510963 
L 121.162927 20.997667 
L 120.987186 20.494357 
L 121.05908 20.142839 
L 131.37591 19.763359 
L 132.38243 19.405849 
L 132.869714 19.296 
L 133.408921 19.353921 
L 133.788363 19.569625 
L 134.575206 20.21474 
L 136.560287 20.865848 
L 137.155412 20.931757 
L 138.46948 20.752004 
L 141.8565 20.857859 
L 144.808159 20.600212 
L 147.735855 20.78396 
L 150.008513 20.610198 
L 150.707485 20.636163 
L 152.269189 20.883823 
L 153.946722 20.955724 
L 154.717589 20.809924 
L 156.203404 20.312606 
L 156.966282 20.202757 
L 157.369689 20.096902 
L 158.176503 19.665493 
L 158.543962 19.621554 
L 159.023258 19.795315 
L 160.289396 20.568256 
L 160.988368 20.710061 
L 163.117238 20.222729 
L 164.603053 20.32459 
L 166.759882 21.027626 
L 167.426901 21.237338 
L 168.329574 21.027626 
L 168.944669 21.490991 
L 169.867313 21.830525 
L 175.095625 22.611454 
L 175.878474 22.457665 
L 176.417681 22.116134 
L 176.861029 21.758624 
L 177.348312 21.554903 
L 178.007343 21.740648 
L 178.890045 22.124123 
L 179.652924 22.291893 
L 179.984436 21.820539 
L 180.527638 22.044232 
L 181.018915 22.084177 
L 181.458269 21.922399 
L 181.853688 21.554903 
L 183.015979 21.972331 
L 183.686992 22.084177 
L 184.11037 21.964342 
L 184.641588 21.710689 
L 185.260678 21.854492 
L 186.343087 22.321852 
L 187.988667 22.116134 
L 188.356127 21.964342 
L 189.130987 21.219363 
L 189.578329 20.897804 
L 189.913836 20.763987 
L 191.092104 20.815916 
L 192.170518 21.027626 
L 192.709725 21.445054 
L 192.965349 21.554903 
L 193.324821 21.558898 
L 193.880004 21.329212 
L 194.147611 21.267297 
L 194.582971 21.445054 
L 195.18209 21.876462 
L 195.761238 22.397747 
L 196.128698 22.851126 
L 196.292457 23.418348 
L 196.132692 24.580755 
L 196.144674 25.535446 
" clip-path="url(#pcaf34ee772)" style="fill: #f5f5f5; stroke: #000000"/>
    <path d="M 30.072269 133.316022 
L 31.471786 133.617971 
L 31.783139 134.94843 
L 31.641615 136.580838 
L 31.676209 137.804357 
L 30.990603 138.260425 
L 30.433942 138.515193 
L 29.905585 138.47745 
L 29.301748 138.068562 
L 28.96209 137.559024 
L 28.958945 137.074649 
L 29.065874 136.55882 
L 29.065874 135.954924 
L 28.889755 135.621523 
L 28.358253 135.061661 
L 28.226164 134.633901 
L 28.226164 134.206141 
L 28.311079 133.910483 
L 28.754521 133.316022 
L 29.188529 132.903989 
L 30.028239 132.391306 
L 30.358462 131.972982 
L 30.566031 132.356708 
L 30.581756 132.674382 
L 30.405637 132.903989 
L 30.072269 133.029801 
L 30.072269 133.316022 
" clip-path="url(#pcaf34ee772)" style="fill: #f5f5f5; stroke: #000000"/>
    <path d="M 44.73987 77.753541 
L 45.021982 77.767341 
L 44.850283 77.870035 
L 44.73987 77.753541 
" clip-path="url(#pcaf34ee772)" style="fill: #f5f5f5; stroke: #000000"/>
   </g>
  </g>
 </g>
 <defs>
  <clipPath id="pcaf34ee772">
   <rect x="7.2" y="7.2" width="246.704054" height="266.112"/>
  </clipPath>
 </defs>
</svg>
