<?xml version="1.0" encoding="utf-8" standalone="no"?>
<!DOCTYPE svg PUBLIC "-//W3C//DTD SVG 1.1//EN"
  "http://www.w3.org/Graphics/SVG/1.1/DTD/svg11.dtd">
<svg xmlns:xlink="http://www.w3.org/1999/xlink" width="371.52pt" height="196.638004pt" viewBox="0 0 371.52 196.638004" xmlns="http://www.w3.org/2000/svg" version="1.1">
 <metadata>
  <rdf:RDF xmlns:dc="http://purl.org/dc/elements/1.1/" xmlns:cc="http://creativecommons.org/ns#" xmlns:rdf="http://www.w3.org/1999/02/22-rdf-syntax-ns#">
   <cc:Work>
    <dc:type rdf:resource="http://purl.org/dc/dcmitype/StillImage"/>
    <dc:date>2024-03-04T13:11:10.619307</dc:date>
    <dc:format>image/svg+xml</dc:format>
    <dc:creator>
     <cc:Agent>
      <dc:title>Matplotlib v3.8.0, https://matplotlib.org/</dc:title>
     </cc:Agent>
    </dc:creator>
   </cc:Work>
  </rdf:RDF>
 </metadata>
 <defs>
  <style type="text/css">*{stroke-linejoin: round; stroke-linecap: butt}</style>
 </defs>
 <g id="figure_1">
  <g id="patch_1">
   <path d="M 0 196.638004 
L 371.52 196.638004 
L 371.52 0 
L 0 0 
z
" style="fill: #ffffff"/>
  </g>
  <g id="axes_1">
   <g id="PatchCollection_1">
    <defs>
     <path id="mdd727112b8" d="M 99.177015 -104.632486 
L 96.707975 -119.952319 
L 95.865209 -122.548422 
L 94.636502 -124.737137 
L 93.037607 -126.451897 
L 91.060649 -127.588857 
L 87.374529 -128.267838 
L 86.586896 -128.707178 
L 85.80714 -129.423437 
L 84.637505 -130.073128 
L 83.408798 -130.536433 
L 82.44001 -130.674892 
L 81.876853 -130.509806 
L 80.904127 -129.913368 
L 80.289773 -129.78556 
L 79.773874 -130.099755 
L 77.57244 -133.433418 
L 76.461878 -137.462038 
L 74.453415 -140.942148 
L 73.622463 -142.816668 
L 72.425261 -142.782053 
L 70.51919 -141.927336 
L 69.29836 -142.342712 
L 67.856992 -144.542078 
L 67.014225 -145.053311 
L 66.998472 -145.388807 
L 65.864281 -147.332556 
L 65.533476 -147.598823 
L 62.004881 -148.980749 
L 57.157002 -149.643754 
L 54.900435 -149.523934 
L 53.340922 -149.132521 
L 52.750198 -149.076605 
L 52.175226 -149.284294 
L 51.24582 -150.210903 
L 50.753549 -150.415928 
L 50.53695 -150.594327 
L 49.709936 -151.473008 
L 49.284614 -151.800517 
L 48.804158 -151.976253 
L 47.268275 -152.24252 
L 43.385246 -154.095739 
L 41.589443 -154.300764 
L 40.329231 -152.689849 
L 39.840899 -153.211732 
L 39.128091 -154.971757 
L 38.679141 -155.818486 
L 37.580393 -156.920832 
L 37.099937 -157.631765 
L 37.312598 -159.700659 
L 36.556471 -161.62577 
L 35.493167 -163.393783 
L 34.71341 -164.349681 
L 33.220847 -165.039313 
L 30.570463 -165.827463 
L 29.014888 -167.369149 
L 28.317833 -167.704646 
L 26.084895 -168.064106 
L 24.584455 -168.676521 
L 23.432727 -168.927214 
L 23.689606 -170.061149 
L 26.97557 -178.494837 
L 27.635764 -179.532985 
L 28.791103 -180.290462 
L 32.062062 -181.154458 
L 35.393039 -181.149386 
L 47.331542 -176.763462 
L 49.257107 -176.530132 
L 50.76755 -176.927469 
L 53.898468 -178.537107 
L 55.658985 -178.741693 
L 57.069398 -178.028177 
L 57.500279 -177.705019 
L 59.930238 -175.882558 
L 64.891693 -174.188381 
L 66.452151 -173.288877 
L 73.074094 -168.038957 
L 74.559529 -167.673745 
L 79.601008 -168.329774 
L 81.251493 -167.991615 
L 82.816952 -167.212158 
L 84.307389 -165.996476 
L 85.992884 -165.276197 
L 89.453899 -165.94068 
L 90.92433 -165.379336 
L 91.364459 -164.731761 
L 92.044659 -163.203282 
L 92.494791 -162.533727 
L 93.194996 -162.004508 
L 95.720737 -161.221669 
L 96.996112 -160.472647 
L 99.146742 -158.279685 
L 100.452125 -157.561097 
L 102.222645 -157.412307 
L 105.768685 -157.882348 
L 107.529202 -157.687907 
L 110.680126 -156.793476 
L 112.200572 -156.641304 
L 115.571561 -157.020042 
L 116.991978 -156.949029 
L 118.392388 -156.565218 
L 119.912834 -155.817887 
L 121.443283 -155.373207 
L 122.993738 -155.288668 
L 124.539192 -155.596392 
L 128.364212 -157.705166 
L 128.630392 -157.851914 
L 129.865754 -158.22727 
L 138.053156 -158.917115 
L 138.440723 -158.8632 
L 141.359126 -158.457219 
L 144.109933 -156.619324 
L 145.385307 -155.352918 
L 146.780717 -154.27419 
L 149.731582 -152.635809 
L 150.666857 -152.436296 
L 151.352058 -152.716968 
L 152.652439 -153.929268 
L 153.492686 -154.328296 
L 155.00813 -154.363803 
L 157.263792 -155.051956 
L 159.189357 -155.001232 
L 161.049903 -154.515974 
L 162.400299 -153.645214 
L 163.760698 -152.361901 
L 165.16611 -151.452253 
L 169.292321 -149.928846 
L 169.297322 -149.058086 
L 168.927214 -147.975977 
L 168.792174 -146.91923 
L 169.232303 -146.234457 
L 171.623004 -144.58255 
L 176.817028 -139.702914 
L 177.767491 -139.184528 
L 178.692578 -138.679983 
L 187.975808 -136.070428 
L 192.496628 -134.799607 
L 194.327165 -134.341401 
L 197.658142 -132.716547 
L 198.46838 -132.008104 
L 200.468967 -129.637608 
L 201.364229 -129.066119 
L 205.870551 -127.972175 
L 207.155907 -127.323401 
L 208.031185 -126.881611 
L 208.571344 -124.971012 
L 207.456016 -123.388428 
L 205.765521 -122.182891 
L 204.405121 -120.857307 
L 204.255077 -118.924727 
L 205.635482 -117.215333 
L 207.816122 -116.632009 
L 210.179315 -116.449403 
L 212.132388 -115.937092 
L 213.23565 -115.091117 
L 213.847892 -114.621653 
L 214.76316 -114.17021 
L 215.668426 -114.313928 
L 216.383636 -114.941213 
L 217.583988 -116.601574 
L 218.236679 -117.318472 
L 220.344798 -118.299133 
L 224.978657 -118.518937 
L 226.671387 -119.032115 
L 227.231818 -119.202018 
L 227.907675 -119.891062 
L 228.817283 -120.818419 
L 229.712546 -122.663077 
L 230.842877 -123.997114 
L 235.134136 -124.086726 
L 237.104714 -124.725847 
L 240.870819 -126.739585 
L 242.268729 -127.131849 
L 244.696942 -127.316146 
L 246.762548 -127.055763 
L 248.590871 -126.468508 
L 248.768136 -126.41157 
L 250.558661 -125.39033 
L 251.313883 -124.771499 
L 252.739301 -123.254855 
L 253.31447 -122.37226 
L 254.50982 -118.556134 
L 255.109996 -117.928849 
L 255.537622 -118.387055 
L 256.320352 -121.991831 
L 257.720762 -125.016664 
L 258.023351 -126.07172 
L 259.266216 -127.735463 
L 261.376835 -127.314455 
L 266.658384 -123.533836 
L 267.513635 -123.106065 
L 268.398895 -122.918387 
L 269.314163 -123.085775 
L 269.750792 -123.279276 
L 271.099687 -123.877068 
L 272.022458 -123.990351 
L 273.590418 -123.400263 
L 274.985827 -122.194726 
L 279.752226 -116.407133 
L 280.282381 -115.524538 
L 280.665792 -114.669639 
L 281.19765 -113.483747 
L 281.687793 -112.72458 
L 283.298266 -112.060098 
L 285.35887 -112.349224 
L 289.265016 -113.524326 
L 292.050834 -113.460076 
L 296.107024 -112.741488 
L 299.883131 -111.250206 
L 301.863712 -108.886474 
L 301.858407 -108.832896 
L 301.708667 -107.320798 
L 296.142034 -92.724159 
L 296.627176 -91.199062 
L 298.087605 -90.252216 
L 300.033175 -89.339187 
L 305.347234 -85.592384 
L 308.723225 -84.711479 
L 309.390921 -84.046997 
L 310.761323 -80.628208 
L 311.276474 -79.899475 
L 311.926664 -79.534263 
L 312.836932 -79.478467 
L 313.182033 -79.615421 
L 313.822221 -80.12266 
L 314.22984 -80.224108 
L 314.542432 -80.061791 
L 315.35267 -79.346585 
L 315.757788 -79.133545 
L 316.633045 -79.194413 
L 317.293239 -79.365184 
L 317.768378 -79.037169 
L 318.093474 -77.608447 
L 319.263817 -77.057248 
L 320.749253 -77.02005 
L 323.590086 -77.611829 
L 323.60509 -77.618592 
L 323.620095 -77.627046 
L 324.030215 -77.740329 
L 324.440336 -77.779217 
L 324.847955 -77.740329 
L 325.320594 -77.608447 
L 326.585965 -76.577062 
L 328.699085 -74.018888 
L 330.076989 -73.389912 
L 332.952833 -73.143056 
L 334.138181 -72.475192 
L 335.316026 -70.865554 
L 333.470485 -67.020685 
L 332.43268 -65.319745 
L 330.35207 -62.749736 
L 329.646863 -62.110615 
L 328.874136 -61.728495 
L 327.866341 -61.630429 
L 325.600676 -62.154576 
L 324.545366 -62.03622 
L 323.610092 -61.030197 
L 323.152458 -58.788202 
L 323.174964 -55.46917 
L 323.792646 -52.525495 
L 325.095528 -51.421405 
L 325.520652 -51.776472 
L 325.760723 -52.380086 
L 326.080817 -52.873799 
L 326.751013 -52.900851 
L 326.861046 -52.53564 
L 327.936361 -50.445816 
L 328.007819 -49.973234 
L 328.393995 -47.419292 
L 328.824122 -45.995642 
L 329.656866 -44.90677 
L 332.187608 -43.128053 
L 332.752774 -42.860907 
L 333.738063 -42.614051 
L 336.003728 -40.470122 
L 340.71511 -38.444549 
L 343.090807 -37.00061 
L 343.856031 -35.174551 
L 344.606252 -35.475512 
L 344.943594 -35.247428 
L 345.001367 -35.208367 
L 345.326463 -34.647023 
L 346.261737 -33.57844 
L 347.782183 -31.204563 
L 348.087273 -30.250954 
L 347.937229 -30.169796 
L 347.537111 -30.230665 
L 347.111987 -29.720044 
L 347.016959 -29.216187 
L 346.964443 -28.069828 
L 346.861913 -27.640366 
L 346.57683 -27.22443 
L 345.936642 -26.612362 
L 345.651558 -26.206571 
L 345.18142 -24.444762 
L 344.926345 -22.199386 
L 344.521227 -20.096036 
L 344.251496 -19.707889 
L 343.585952 -18.750163 
L 342.635673 -18.594609 
L 341.715403 -18.85161 
L 340.767625 -18.946295 
L 339.744825 -18.290266 
L 339.199665 -17.241973 
L 338.929586 -16.213969 
L 338.504461 -15.530888 
L 337.446651 -15.483546 
L 336.578897 -16.027982 
L 335.226 -17.89462 
L 334.433267 -18.608136 
L 331.552422 -19.568508 
L 330.547127 -20.180576 
L 327.696291 -22.82498 
L 326.290878 -24.620605 
L 325.525654 -25.384844 
L 324.655399 -25.695951 
L 321.016831 -25.679043 
L 319.939015 -25.425424 
L 318.703796 -24.615272 
L 317.43328 -23.78197 
L 316.478 -23.423522 
L 315.307656 -23.315311 
L 312.971971 -23.609509 
L 305.789864 -26.260677 
L 303.350364 -27.785265 
L 302.418875 -28.367408 
L 300.418288 -30.11569 
L 299.262949 -31.982329 
L 300.338265 -33.348492 
L 301.448591 -33.750901 
L 302.138793 -34.136402 
L 302.078775 -34.542193 
L 300.948444 -35.00209 
L 297.797519 -35.654737 
L 290.840479 -38.417497 
L 289.265016 -39.929068 
L 288.564811 -40.747413 
L 287.849601 -40.879295 
L 286.249132 -40.382201 
L 285.273846 -40.29428 
L 284.521125 -40.446451 
L 282.19132 -41.674471 
L 281.287676 -42.150773 
L 279.704712 -42.235313 
L 278.151756 -41.684114 
L 270.806481 -35.494942 
L 266.188246 -31.603591 
L 265.58807 -31.211326 
L 264.492749 -30.20023 
L 263.902576 -29.787676 
L 262.067037 -29.726807 
L 257.395667 -30.484284 
L 256.455391 -29.513767 
L 256.855509 -28.590593 
L 258.671041 -27.697853 
L 258.998167 -27.22329 
L 259.186192 -26.950521 
L 258.706051 -26.26744 
L 257.435679 -26.091597 
L 250.341097 -26.240387 
L 248.318004 -27.062114 
L 247.337716 -27.197377 
L 246.297411 -26.717191 
L 245.672228 -25.868412 
L 245.082055 -24.830264 
L 244.369346 -24.180998 
L 243.376554 -24.471815 
L 243.111477 -24.968909 
L 242.936425 -25.638464 
L 242.68135 -26.132176 
L 242.161198 -26.115268 
L 241.846105 -25.868412 
L 240.870819 -24.755868 
L 239.695474 -24.407565 
L 238.607655 -24.485341 
L 237.549845 -24.880987 
L 234.969088 -26.48048 
L 234.371413 -26.551493 
L 233.798745 -26.362124 
L 233.403629 -26.000294 
L 233.056027 -25.591122 
L 232.608395 -25.280015 
L 231.470562 -25.087264 
L 230.575299 -25.435568 
L 228.234612 -27.09593 
L 226.921727 -27.65051 
L 226.406576 -27.643747 
L 225.831407 -27.227812 
L 225.70637 -26.740862 
L 225.673861 -26.186282 
L 225.426288 -25.547161 
L 224.666065 -24.772776 
L 223.715787 -24.24863 
L 222.695487 -24.059261 
L 220.644886 -24.647658 
L 219.679602 -24.542828 
L 217.734032 -23.646707 
L 216.624351 -23.369207 
L 216.603489 -23.36399 
L 215.543389 -23.098889 
L 211.062074 -23.000823 
L 208.986465 -22.118227 
L 206.730804 -20.089273 
L 205.783026 -19.6801 
L 204.600179 -19.578652 
L 196.707863 -20.714867 
L 194.65226 -20.633709 
L 192.038994 -19.544837 
L 191.563854 -19.436626 
L 191.086214 -19.44677 
L 190.601072 -19.571889 
L 191.151233 -21.27283 
L 190.463532 -22.818217 
L 189.155648 -24.059261 
L 187.83526 -24.847171 
L 186.309813 -25.266489 
L 184.899399 -25.165041 
L 180.448093 -23.893563 
L 179.750389 -24.410946 
L 178.590048 -27.319115 
L 177.612261 -28.455329 
L 176.659482 -28.573685 
L 175.594169 -28.451948 
L 174.278783 -28.878028 
L 176.897052 -30.247572 
L 177.604759 -30.876548 
L 178.257451 -31.823394 
L 178.192432 -32.161553 
L 176.777016 -32.350922 
L 175.284078 -33.074583 
L 172.948393 -35.164406 
L 169.387348 -37.639731 
L 168.687143 -38.42426 
L 167.241719 -41.193783 
L 166.866609 -41.630008 
L 166.436483 -41.802469 
L 166.201414 -42.05947 
L 166.006357 -42.35705 
L 165.71127 -42.637722 
L 164.285852 -43.128053 
L 163.915743 -43.351238 
L 163.515626 -44.088425 
L 163.245547 -44.903388 
L 162.900445 -45.329469 
L 162.250255 -44.910152 
L 161.059906 -43.516936 
L 160.149639 -43.821279 
L 159.229368 -44.849283 
L 157.989005 -45.599996 
L 158.394123 -46.249262 
L 159.349404 -47.070988 
L 159.739518 -47.547793 
L 159.939577 -48.129426 
L 160.039606 -48.778692 
L 160.199653 -49.438102 
L 160.574763 -50.05017 
L 159.654493 -50.499922 
L 152.882507 -51.0917 
L 150.441791 -50.882042 
L 149.491236 -50.562009 
L 149.284797 -50.492505 
L 148.80635 -51.869413 
L 147.380932 -54.185803 
L 146.245599 -55.523223 
L 144.980227 -56.718615 
L 144.505088 -57.535269 
L 144.179993 -58.468588 
L 144.295026 -59.706251 
L 144.850189 -60.563484 
L 144.895202 -62.834223 
L 144.422347 -64.221935 
L 144.205 -64.859796 
L 142.976339 -64.980171 
L 142.356504 -65.30519 
L 140.518919 -67.231982 
L 139.4336 -67.475456 
L 138.118214 -67.067975 
L 135.527454 -65.426212 
L 132.896674 -64.999268 
L 132.016424 -64.856414 
L 130.596483 -65.225161 
L 129.724264 -65.73806 
L 128.180299 -66.555664 
L 125.824608 -66.266538 
L 124.619607 -65.820596 
L 124.559198 -65.79824 
L 123.944056 -65.695049 
L 122.465184 -66.869267 
L 121.87341 -67.135659 
L 120.928132 -67.759563 
L 118.552474 -68.763843 
L 118.2974 -70.136769 
L 117.562495 -70.576936 
L 116.281808 -71.343997 
L 109.955956 -71.662132 
L 109.955956 -71.944376 
L 109.377046 -76.063526 
L 109.294345 -77.549296 
L 109.073808 -78.454604 
L 107.116541 -81.918738 
L 105.647606 -84.509516 
L 105.135645 -84.940869 
L 104.639436 -85.492041 
L 104.403146 -86.738171 
L 104.30863 -88.966826 
L 103.918752 -91.92239 
L 101.355008 -100.900914 
L 101.165976 -101.292326 
L 100.823356 -101.779595 
L 99.523762 -103.084303 
L 99.354421 -103.544945 
L 99.177015 -104.632486 
" style="stroke: #000000"/>
    </defs>
    <g clip-path="url(#p008566db6d)">
     <use xlink:href="#mdd727112b8" x="0" y="196.638004" style="fill: #f5f5f5; stroke: #000000"/>
    </g>
   </g>
  </g>
 </g>
 <defs>
  <clipPath id="p008566db6d">
   <rect x="7.2" y="7.2" width="357.12" height="182.238004"/>
  </clipPath>
 </defs>
</svg>
