<?xml version="1.0" encoding="utf-8" standalone="no"?>
<!DOCTYPE svg PUBLIC "-//W3C//DTD SVG 1.1//EN"
  "http://www.w3.org/Graphics/SVG/1.1/DTD/svg11.dtd">
<svg xmlns:xlink="http://www.w3.org/1999/xlink" width="210.705969pt" height="280.512pt" viewBox="0 0 210.705969 280.512" xmlns="http://www.w3.org/2000/svg" version="1.1">
 <metadata>
  <rdf:RDF xmlns:dc="http://purl.org/dc/elements/1.1/" xmlns:cc="http://creativecommons.org/ns#" xmlns:rdf="http://www.w3.org/1999/02/22-rdf-syntax-ns#">
   <cc:Work>
    <dc:type rdf:resource="http://purl.org/dc/dcmitype/StillImage"/>
    <dc:date>2024-03-04T13:11:10.650675</dc:date>
    <dc:format>image/svg+xml</dc:format>
    <dc:creator>
     <cc:Agent>
      <dc:title>Matplotlib v3.8.0, https://matplotlib.org/</dc:title>
     </cc:Agent>
    </dc:creator>
   </cc:Work>
  </rdf:RDF>
 </metadata>
 <defs>
  <style type="text/css">*{stroke-linejoin: round; stroke-linecap: butt}</style>
 </defs>
 <g id="figure_1">
  <g id="patch_1">
   <path d="M 0 280.512 
L 210.705969 280.512 
L 210.705969 0 
L 0 0 
z
" style="fill: #ffffff"/>
  </g>
  <g id="axes_1">
   <g id="PatchCollection_1">
    <path d="M 171.105047 214.803977 
L 170.523731 216.096764 
L 170.479479 216.391892 
L 170.580053 216.353397 
L 170.787234 216.784861 
L 170.883785 216.879494 
L 171.127173 217.002999 
L 170.867693 217.264443 
L 170.817406 217.634957 
L 170.919992 218.637428 
L 170.905911 219.158713 
L 170.845567 219.606217 
L 170.724879 220.013621 
L 170.390974 220.778707 
L 170.298446 220.925469 
L 170.137528 221.094686 
L 169.982645 221.16526 
L 169.578339 221.23423 
L 169.51196 221.218191 
L 169.347019 221.571863 
L 169.174032 222.400305 
L 169.131791 222.352988 
L 168.334242 221.972049 
L 168.036544 221.487655 
L 167.720742 221.239042 
L 167.380803 221.044964 
L 165.363295 220.448293 
L 164.711578 220.541322 
L 164.075952 220.793945 
L 163.900954 220.965568 
L 163.794345 221.1813 
L 163.806414 221.293577 
L 163.864747 221.433121 
L 163.943195 221.992901 
L 164.124227 222.292038 
L 164.166468 222.56471 
L 164.112158 222.867056 
L 163.850667 223.454905 
L 163.758139 223.739607 
L 163.721932 224.028319 
L 163.758139 224.90488 
L 163.717909 225.228077 
L 163.631416 225.441402 
L 163.542911 225.601798 
L 163.504693 225.762193 
L 163.394062 226.420617 
L 163.122513 226.904209 
L 161.219659 228.671766 
L 160.56593 229.060725 
L 157.884635 229.558753 
L 155.867127 230.412057 
L 155.553337 230.650244 
L 154.829207 231.391271 
L 154.201627 231.76419 
L 153.899906 232.024031 
L 153.926055 232.097813 
L 152.847905 232.321565 
L 152.55423 232.489178 
L 152.37722 232.696088 
L 152.021189 233.294363 
L 151.767743 233.60553 
L 150.993326 234.184558 
L 150.914878 234.287211 
L 150.637295 234.751555 
L 150.518618 234.809298 
L 150.391895 234.802882 
L 150.267184 234.848595 
L 150.148507 235.071544 
L 150.110289 235.490176 
L 150.208851 235.899185 
L 150.381838 236.272906 
L 150.562871 236.579261 
L 151.932684 238.112642 
L 152.224348 238.80555 
L 152.27579 239.139371 
L 152.282681 239.184083 
L 152.387277 239.508884 
L 152.544172 239.755091 
L 153.010834 240.05503 
L 153.403072 240.4889 
L 153.559967 240.579523 
L 153.887837 240.924374 
L 154.5476 242.566823 
L 154.967998 243.240484 
L 155.058515 243.338325 
L 153.803355 245.502059 
L 153.696747 245.74586 
L 153.658529 245.943147 
L 153.652494 246.142037 
L 153.618299 246.347343 
L 153.493588 246.567085 
L 153.489565 246.571897 
L 153.1275 247.17338 
L 153.445313 247.520636 
L 154.529497 247.737972 
L 154.821161 247.684239 
L 155.313972 247.450864 
L 155.615693 247.502992 
L 155.85707 247.698675 
L 156.096435 248.010644 
L 156.476604 248.711572 
L 156.631487 249.162283 
L 156.685797 249.560064 
L 156.673728 249.936993 
L 156.631487 250.312318 
L 156.583212 250.379685 
L 156.351892 250.994801 
L 156.339823 251.080613 
L 156.026033 251.524908 
L 155.973735 251.504056 
L 155.989827 252.208192 
L 156.032068 252.190549 
L 156.009942 252.23546 
L 155.824886 252.738299 
L 155.776611 252.819299 
L 155.776611 253.359832 
L 155.792703 253.552306 
L 155.836955 253.722325 
L 155.899311 253.881117 
L 155.949597 254.069581 
L 155.955632 254.327818 
L 155.400465 255.039974 
L 155.265696 255.166686 
L 155.056503 255.177112 
L 154.935815 255.096914 
L 154.827195 254.97341 
L 154.640128 254.865143 
L 154.436969 254.871559 
L 154.276051 254.966192 
L 154.11111 255.027944 
L 153.897894 254.934113 
L 152.944456 254.156195 
L 152.055384 253.098387 
L 151.890443 252.955635 
L 151.707399 252.885061 
L 151.40769 252.828923 
L 150.926947 252.410291 
L 150.824362 251.644402 
L 151.061716 250.925029 
L 151.592745 250.641129 
L 151.206542 250.238537 
L 150.701662 249.879251 
L 150.395918 249.475054 
L 150.597066 248.932918 
L 150.263161 248.979432 
L 149.170931 248.676285 
L 148.476972 248.676285 
L 147.783014 248.855928 
L 147.412902 249.056422 
L 146.731568 249.711909 
L 146.545957 249.890478 
L 146.242225 250.035636 
L 145.831884 250.12225 
L 145.431601 250.111022 
L 145.15804 249.965864 
L 144.578736 249.463827 
L 144.421841 249.260926 
L 144.315233 249.0067 
L 144.112074 248.345068 
L 144.021558 248.166227 
L 143.701733 248.098861 
L 142.937373 248.41484 
L 142.607491 248.472583 
L 141.483078 248.214346 
L 141.058657 248.280108 
L 140.624178 248.524711 
L 140.412973 248.559196 
L 140.219872 248.37394 
L 140.113264 248.031495 
L 140.177631 247.814962 
L 140.302342 247.628903 
L 140.370733 247.383498 
L 140.421019 247.052281 
L 140.481364 246.910331 
L 140.433088 246.920757 
L 140.14947 247.054687 
L 139.980507 247.168568 
L 139.511833 247.588804 
L 139.204078 247.723536 
L 139.242296 247.976961 
L 139.304651 248.148584 
L 139.447466 248.352286 
L 139.606372 248.522305 
L 139.704935 248.593681 
L 139.759244 248.764502 
L 139.791428 249.593747 
L 139.771313 249.884063 
L 139.700912 250.082151 
L 139.145745 250.850445 
L 138.990861 250.88493 
L 134.519355 250.674812 
L 132.886038 251.034098 
L 132.666788 251.175246 
L 132.471675 251.702947 
L 132.270527 251.775125 
L 131.174274 251.532126 
L 129.589233 251.524908 
L 128.740391 251.342057 
L 128.380337 251.329225 
L 128.313958 251.419047 
L 127.77086 251.9275 
L 127.638103 252.256311 
L 127.485231 252.974883 
L 127.386669 253.26199 
L 127.032649 253.687038 
L 126.61024 253.868285 
L 125.697031 254.031889 
L 125.256518 253.881117 
L 124.777787 253.810543 
L 124.335263 253.92282 
L 123.418031 255.064033 
L 123.657396 255.134607 
L 123.868601 255.284577 
L 123.943026 255.515546 
L 123.776073 255.823506 
L 123.460272 255.970267 
L 122.615453 255.991921 
L 122.253388 256.117029 
L 121.877242 256.495562 
L 121.619773 256.870888 
L 121.34219 257.193283 
L 120.917769 257.403401 
L 120.451107 257.345658 
L 120.493348 256.501978 
L 120.076973 256.317523 
L 119.586173 256.462681 
L 118.314922 257.41543 
L 117.934753 257.541341 
L 115.905176 257.509262 
L 115.633627 257.337638 
L 115.434491 256.917402 
L 115.480755 256.914194 
L 115.543111 256.771443 
L 115.587363 256.556513 
L 115.581329 256.347999 
L 115.522996 256.206851 
L 114.551454 255.074459 
L 113.54974 254.572421 
L 113.416983 254.326214 
L 114.044563 253.863473 
L 114.207492 253.650147 
L 113.760945 253.286852 
L 113.553763 253.160139 
L 113.284226 253.14009 
L 113.008654 253.2251 
L 112.224179 253.613256 
L 111.648897 253.688642 
L 111.481945 253.634108 
L 111.385394 253.486544 
L 111.321027 253.326149 
L 111.24258 253.228307 
L 108.673928 252.179321 
L 108.203243 252.172905 
L 107.933705 252.375806 
L 107.539456 252.970071 
L 107.292045 253.185001 
L 107.062737 253.228307 
L 106.23401 253.091971 
L 105.930277 252.9412 
L 105.771371 252.819299 
L 105.668786 252.676547 
L 105.634591 252.410291 
L 105.707004 252.213004 
L 105.801543 252.063837 
L 105.825681 251.941936 
L 105.739187 251.652422 
L 105.670797 251.59468 
L 105.521948 251.658036 
L 105.196089 251.721392 
L 104.904426 251.845699 
L 104.932586 252.113559 
L 105.10155 252.456003 
L 105.230284 252.80326 
L 105.206147 253.090367 
L 105.009022 254.327818 
L 105.282583 254.489016 
L 105.449535 254.68951 
L 105.554132 254.962984 
L 105.634591 255.347131 
L 105.638614 256.012772 
L 105.461604 256.710492 
L 105.177986 257.33844 
L 104.854139 257.804389 
L 104.687186 257.92629 
L 104.276846 258.081071 
L 104.075698 258.227833 
L 103.959033 258.422714 
L 103.526566 259.365037 
L 103.17657 259.875094 
L 102.796401 260.252023 
L 101.925433 260.831853 
L 101.501012 261.010694 
L 100.247587 261.177058 
L 99.954188 261.216 
L 99.867695 261.161466 
L 99.946143 260.967387 
L 100.125164 260.616923 
L 100.203611 260.558379 
L 100.46108 260.474973 
L 100.555619 260.373924 
L 100.603895 260.167014 
L 100.593837 259.980955 
L 100.549585 259.777253 
L 100.901593 258.628822 
L 100.915673 258.069844 
L 100.557631 257.860528 
L 99.702754 258.028943 
L 99.471435 258.305625 
L 99.388964 258.374595 
L 99.288391 258.373793 
L 99.087243 258.241467 
L 98.990692 258.227833 
L 98.735235 258.360159 
L 98.586386 258.479654 
L 98.45564 258.48607 
L 98.266562 258.287179 
L 98.161965 257.990448 
L 98.143862 257.656825 
L 98.091564 257.33443 
L 97.878347 257.064966 
L 98.320872 256.692047 
L 98.411388 256.365642 
L 98.240413 256.001544 
L 97.282951 254.485808 
L 97.061689 254.594876 
L 96.888702 254.75848 
L 96.717727 254.838678 
L 96.504511 254.700737 
L 96.474339 254.519491 
L 96.468304 254.424857 
L 96.468304 254.331026 
L 96.291295 253.913196 
L 96.047906 253.650147 
L 95.844747 253.359832 
L 95.790438 252.846566 
L 95.555095 253.050268 
L 95.26142 253.112823 
L 94.682115 253.0631 
L 94.096777 252.828923 
L 93.998214 252.857794 
L 93.758849 253.024605 
L 93.601954 253.037437 
L 93.205694 252.816091 
L 93.131269 252.488082 
L 93.169487 252.110351 
L 93.10512 251.743046 
L 92.877823 251.475185 
L 92.602252 251.36772 
L 92.310588 251.403007 
L 92.028981 251.565007 
L 91.604561 252.09752 
L 91.363184 252.662112 
L 91.081577 253.136882 
L 90.550548 253.409554 
L 89.303434 253.432812 
L 88.165319 253.095663 
L 88.08247 253.07112 
L 88.035658 253.03967 
L 82.697754 249.453401 
L 81.94144 249.264936 
L 81.213287 249.265738 
L 80.949784 248.822245 
L 79.873645 248.822245 
L 77.703265 248.559196 
L 77.335165 248.716384 
L 77.025398 249.078878 
L 76.317359 249.322679 
L 75.555011 249.40047 
L 75.078291 249.265738 
L 74.513067 248.811017 
L 74.498794 248.795644 
L 74.223415 248.499048 
L 74.221404 248.283316 
L 74.579446 248.193495 
L 74.076577 247.681031 
L 73.440952 247.282449 
L 72.917968 247.256785 
L 72.74297 247.865486 
L 72.901877 248.057159 
L 71.874014 248.073198 
L 71.835796 247.8711 
L 71.78752 247.634517 
L 71.632637 247.428409 
L 71.550166 247.174984 
L 71.614533 246.972084 
L 71.874014 246.552649 
L 71.926312 246.435561 
L 71.797577 246.121988 
L 71.606487 246.081889 
L 71.39126 246.130007 
L 71.190112 246.081087 
L 71.045286 245.834078 
L 70.892414 245.474792 
L 70.705347 245.169239 
L 70.453913 245.079417 
L 70.276903 245.278308 
L 70.17633 245.955176 
L 69.934953 246.125196 
L 69.743863 245.972018 
L 69.675473 245.595089 
L 69.657369 245.1941 
L 69.627197 244.967943 
L 69.267143 244.793112 
L 68.782378 244.76424 
L 68.472611 244.955111 
L 68.653644 245.444317 
L 68.359969 245.604712 
L 67.311991 245.829266 
L 67.094752 245.82285 
L 66.94188 245.920691 
L 66.678377 246.33772 
L 66.58786 246.563877 
L 66.441023 247.184607 
L 66.233841 247.393122 
L 65.74103 247.684239 
L 65.54994 247.919219 
L 65.527814 248.148584 
L 65.610284 248.375544 
L 65.658559 248.640196 
L 65.533848 248.976224 
L 65.839592 249.097323 
L 65.936143 249.113363 
L 66.434988 249.523173 
L 66.837283 249.770182 
L 67.183256 249.754142 
L 67.470897 249.593747 
L 67.740435 249.386035 
L 68.032098 249.228045 
L 68.977491 249.054818 
L 69.24904 249.104541 
L 69.470805 249.202656 
L 69.560819 249.242481 
L 69.737828 249.260926 
L 69.627197 249.996339 
L 69.500474 249.927369 
L 69.488406 249.736499 
L 69.470302 249.686776 
L 69.38582 249.689984 
L 69.283235 249.731687 
L 69.212834 249.797449 
L 69.168581 249.969072 
L 69.200765 250.11022 
L 69.247029 250.231319 
L 69.255075 250.337982 
L 69.230937 250.549704 
L 69.240994 250.770247 
L 69.218868 251.002821 
L 69.134433 251.162592 
L 69.092145 251.242612 
L 68.830654 251.337245 
L 68.655932 251.105473 
L 68.615426 251.051741 
L 68.384106 250.631505 
L 68.084397 250.328358 
L 67.501069 250.392516 
L 66.905673 250.817564 
L 66.678377 251.348473 
L 66.654239 251.496037 
L 66.113802 251.594373 
L 66.05482 251.605106 
L 64.809717 251.597086 
L 64.071506 251.385364 
L 63.880416 251.250632 
L 63.743636 250.951494 
L 63.63904 250.652357 
L 63.534443 250.517625 
L 63.309158 250.491961 
L 62.804278 250.32515 
L 62.45227 250.326754 
L 61.402281 250.517625 
L 61.301707 250.588199 
L 61.205156 250.739772 
L 61.072399 250.891346 
L 60.716368 251.006029 
L 60.293959 251.252236 
L 60.135052 251.385364 
L 59.970111 251.589868 
L 59.891664 251.747056 
L 59.80517 251.881788 
L 59.616092 252.02053 
L 58.741101 252.232252 
L 56.208655 252.232252 
L 56.156357 252.100727 
L 56.118139 251.80961 
L 56.055783 251.518492 
L 55.937106 251.385364 
L 54.681947 251.303562 
L 54.408386 251.15279 
L 54.054367 251.750263 
L 53.7446 252.15045 
L 53.378511 252.375004 
L 52.611321 252.546919 
L 51.757264 252.738299 
L 51.32882 252.676547 
L 51.046183 252.515178 
L 50.323083 252.102331 
L 50.373496 252.102808 
L 50.831986 252.107143 
L 51.039167 251.891411 
L 51.294625 251.114296 
L 50.854112 251.164018 
L 49.861469 251.485532 
L 49.940903 251.16883 
L 49.987167 251.057355 
L 49.944926 250.761426 
L 49.84234 250.599426 
L 49.717629 250.482338 
L 49.600964 250.32515 
L 49.162462 249.380421 
L 48.898959 248.984244 
L 48.611318 248.822245 
L 48.534882 248.679493 
L 48.472527 248.345068 
L 48.418217 247.677021 
L 48.486607 247.490963 
L 48.808443 247.122053 
L 48.923097 246.916747 
L 48.933154 246.409898 
L 48.691777 245.323218 
L 48.744076 244.892557 
L 49.021659 243.886877 
L 49.130279 243.73771 
L 49.393782 243.582928 
L 49.436023 243.235672 
L 49.335449 242.658248 
L 49.339472 242.520308 
L 49.32338 242.441714 
L 49.313323 242.363121 
L 49.335449 242.2332 
L 49.393782 242.098468 
L 49.522516 241.964538 
L 49.600964 241.81136 
L 49.723663 241.500193 
L 49.75987 241.361451 
L 49.735732 240.857008 
L 49.840329 240.442385 
L 50.359289 239.852932 
L 50.544345 239.479211 
L 50.502104 238.510422 
L 49.661308 236.925715 
L 49.600964 235.644958 
L 49.723663 235.039465 
L 49.854409 234.566299 
L 49.995212 234.288815 
L 50.12797 234.101152 
L 50.226532 233.857351 
L 50.26475 233.409848 
L 50.393484 233.030512 
L 51.624506 231.193183 
L 51.829677 230.742472 
L 51.952377 230.216375 
L 51.992606 229.58602 
L 52.127375 228.934013 
L 52.441165 228.660539 
L 52.799207 228.453629 
L 53.066733 227.997304 
L 53.090871 227.563434 
L 52.992308 227.149614 
L 52.865586 226.753437 
L 52.80323 226.379716 
L 52.825356 225.972311 
L 52.968171 225.152691 
L 53.066733 224.799019 
L 53.201502 224.504693 
L 53.328225 224.304199 
L 53.426787 224.002655 
L 53.467016 223.411598 
L 53.56759 223.130104 
L 53.800921 222.876679 
L 54.287698 222.469275 
L 54.287698 222.255949 
L 54.05839 221.596724 
L 54.060401 220.517263 
L 54.225342 219.503563 
L 55.046023 218.148222 
L 55.27332 217.978203 
L 55.595156 217.86753 
L 55.892854 217.594858 
L 56.425894 216.921197 
L 56.657214 216.762406 
L 56.914682 216.497753 
L 57.123876 216.202625 
L 57.210369 215.95722 
L 57.234507 215.365361 
L 57.337092 215.087877 
L 57.558354 215.010887 
L 58.105475 215.001264 
L 58.254324 214.946729 
L 58.364955 214.84568 
L 58.407196 214.674057 
L 58.449437 214.382137 
L 58.539953 214.21693 
L 58.63047 214.125505 
L 58.672711 214.048515 
L 58.843686 214.040495 
L 59.557759 213.636299 
L 59.676436 213.528834 
L 59.917813 213.100578 
L 60.80085 210.542271 
L 61.408315 209.332889 
L 61.808593 208.850184 
L 61.816644 208.840475 
L 61.591359 208.617525 
L 59.678448 208.200497 
L 56.592847 206.473038 
L 56.240839 206.431336 
L 55.132517 206.553236 
L 53.51328 206.060822 
L 53.298053 206.121772 
L 52.841448 206.383217 
L 52.604094 206.447375 
L 52.417027 206.418504 
L 52.004675 206.264524 
L 51.789447 206.226029 
L 51.544047 206.280564 
L 51.316751 206.383217 
L 51.08342 206.445771 
L 51.007994 206.427818 
L 50.813882 206.381613 
L 50.63285 206.219614 
L 50.443771 205.817021 
L 50.300956 205.630962 
L 49.86849 205.395181 
L 49.017636 205.239598 
L 48.593215 204.957302 
L 48.337758 204.618867 
L 47.897245 203.869821 
L 47.623685 203.571485 
L 47.65788 203.468832 
L 47.706155 203.398258 
L 47.850981 203.300417 
L 47.722247 202.85131 
L 47.370239 202.716577 
L 46.529443 202.657231 
L 46.444961 202.310777 
L 46.066804 202.277094 
L 45.688878 202.396576 
L 45.610199 202.42145 
L 45.286352 202.613924 
L 45.195836 202.767904 
L 45.055033 203.218615 
L 44.95647 203.390238 
L 44.809633 203.462416 
L 44.411361 203.515347 
L 44.238374 203.577901 
L 44.115674 203.733484 
L 43.910504 204.171364 
L 43.79585 204.294868 
L 43.67315 204.275621 
L 43.150167 204.018988 
L 41.472598 204.002949 
L 41.166854 203.89388 
L 40.86111 203.727069 
L 40.116864 203.160873 
L 40.010256 203.146437 
L 39.833247 203.329288 
L 39.849338 203.500911 
L 39.911694 203.66291 
L 39.881522 203.820098 
L 39.284114 204.214671 
L 38.85567 203.861801 
L 38.630385 203.010101 
L 38.640443 201.9146 
L 38.220045 201.892145 
L 37.005114 201.173573 
L 36.789887 201.13989 
L 36.222651 201.197633 
L 35.410016 201.003554 
L 35.214903 201.053277 
L 35.10226 201.48474 
L 35.249098 201.986778 
L 35.323522 202.501647 
L 34.987606 202.968398 
L 34.740195 203.027745 
L 33.981869 202.734221 
L 33.114924 202.726201 
L 32.885616 202.623548 
L 32.636193 202.188876 
L 32.690503 201.808739 
L 32.789065 201.41577 
L 32.666365 200.923356 
L 32.587918 200.92496 
L 32.326426 201.104603 
L 32.239933 201.114227 
L 32.187634 201.003554 
L 32.149416 200.759753 
L 32.12729 200.690783 
L 32.064935 200.560863 
L 31.912063 199.985043 
L 31.829592 199.895222 
L 31.560055 199.794173 
L 31.455458 199.709163 
L 31.433332 199.584055 
L 31.473561 199.269679 
L 31.443389 199.138155 
L 30.149006 197.835744 
L 29.823147 197.423528 
L 29.700447 197.062638 
L 29.807055 196.778738 
L 30.153029 196.761095 
L 30.237511 196.510878 
L 30.171132 196.324819 
L 29.225739 195.279041 
L 29.09097 195.072131 
L 29.129188 195.059299 
L 29.125166 194.886072 
L 29.072867 194.62944 
L 28.952179 194.371203 
L 28.618274 194.035977 
L 26.832085 193.107287 
L 26.616858 193.068792 
L 26.457951 193.13295 
L 26.08784 193.397603 
L 25.880658 193.439305 
L 25.714304 193.421042 
L 25.715717 193.192297 
L 25.655373 192.252379 
L 25.782451 191.250181 
L 25.820314 190.951572 
L 25.820314 189.968348 
L 25.930945 189.626706 
L 26.22462 189.148728 
L 26.731512 188.50073 
L 26.928636 188.080494 
L 27.075474 187.85594 
L 27.127772 187.716396 
L 27.109669 187.51109 
L 26.990992 187.390794 
L 26.86628 187.302576 
L 26.832085 187.199923 
L 27.133806 186.762044 
L 28.563964 185.802879 
L 28.525746 185.735513 
L 28.392989 185.576721 
L 28.459368 185.42595 
L 28.549884 185.379435 
L 28.718848 185.448405 
L 28.580056 185.25593 
L 28.487528 185.032981 
L 28.443276 184.779556 
L 28.457356 184.502072 
L 28.646435 184.330449 
L 28.654481 184.210152 
L 28.602182 184.072212 
L 28.604194 183.85247 
L 28.696722 183.177206 
L 28.724882 183.156354 
L 28.726894 182.89491 
L 28.769135 182.851603 
L 28.775169 182.858019 
L 28.670572 182.74093 
L 28.594136 182.736118 
L 27.994717 182.553267 
L 27.061393 182.553267 
L 26.721454 182.45703 
L 26.391573 182.240496 
L 25.832383 181.69034 
L 25.502501 181.47541 
L 25.331526 181.470598 
L 25.039862 181.653449 
L 24.882967 181.639013 
L 24.862852 181.534756 
L 24.746271 181.214658 
L 24.667739 180.999036 
L 24.575212 180.829016 
L 24.291594 180.63975 
L 23.63183 180.336603 
L 23.328098 180.01902 
L 22.688449 178.431105 
L 22.354545 177.874533 
L 22.145351 178.301184 
L 21.990468 178.030116 
L 21.694781 177.157565 
L 21.358865 176.631468 
L 21.274383 176.379647 
L 21.328693 176.034797 
L 21.208004 175.386799 
L 21.081282 175.131771 
L 20.870077 175.006662 
L 21.051109 174.644169 
L 21.123523 174.543119 
L 21.07927 174.536704 
L 20.962605 174.547931 
L 20.92841 174.525476 
L 21.051109 173.652925 
L 21.145649 173.226273 
L 21.280418 172.777166 
L 21.457427 172.56384 
L 21.513748 172.355326 
L 21.445358 172.164455 
L 21.248234 172.000852 
L 21.290475 171.848476 
L 21.354842 171.500418 
L 21.391049 171.397765 
L 21.558001 171.291904 
L 21.946215 171.259825 
L 22.091041 171.163588 
L 22.207707 170.870064 
L 22.219776 170.520402 
L 22.111156 170.167532 
L 21.851676 169.872404 
L 22.052823 169.60294 
L 22.493336 169.283753 
L 22.684426 168.98221 
L 23.088733 168.786527 
L 23.925506 168.545934 
L 24.283548 168.21552 
L 24.197055 167.936432 
L 24.237284 167.62366 
L 24.366018 167.325325 
L 24.55912 167.084732 
L 24.822623 166.929148 
L 25.039862 166.948396 
L 25.261124 167.036613 
L 25.522616 167.084732 
L 26.039565 166.988495 
L 26.282953 166.723842 
L 26.261048 166.488039 
L 26.242724 166.290774 
L 25.566868 165.091017 
L 25.540719 164.723711 
L 25.675488 164.308287 
L 25.81428 163.576884 
L 25.82836 163.058806 
L 25.753935 162.952945 
L 25.615144 162.925678 
L 25.448191 162.644986 
L 25.341583 162.330611 
L 25.285262 162.051523 
L 25.333537 161.80291 
L 25.550776 161.586376 
L 25.196757 161.565525 
L 24.35395 161.368239 
L 24.056251 161.223883 
L 24.011999 161.180576 
L 23.967747 161.164536 
L 23.919471 161.180576 
L 23.87723 161.223883 
L 23.219478 161.430793 
L 23.026377 161.421169 
L 22.871493 161.294457 
L 22.704541 160.939983 
L 22.547646 160.792419 
L 22.70253 160.524559 
L 22.475233 160.506915 
L 22.318338 160.439549 
L 22.292189 160.298401 
L 22.445061 160.059412 
L 22.121214 159.643988 
L 22.479256 159.07298 
L 23.092755 158.554903 
L 23.527234 158.291854 
L 23.527234 158.179577 
L 23.748496 157.906905 
L 23.885276 157.631025 
L 23.841024 157.444966 
L 22.497359 157.411283 
L 22.097076 157.197957 
L 21.869779 156.752058 
L 22.129259 156.583643 
L 20.944501 154.748719 
L 20.570367 154.370186 
L 20.24652 154.339711 
L 19.476125 154.55464 
L 19.218657 154.524165 
L 19.142221 154.264325 
L 19.214634 153.937118 
L 19.204577 153.638783 
L 18.880729 153.467159 
L 18.852569 153.409417 
L 18.850557 153.353279 
L 18.862626 153.29714 
L 18.89481 153.239398 
L 18.93705 152.835201 
L 18.810328 152.645935 
L 18.617226 152.509599 
L 18.468377 152.249758 
L 18.385907 151.851977 
L 18.681593 151.927363 
L 18.961188 151.662711 
L 19.063773 151.293801 
L 19.021532 151.008297 
L 19.003429 150.740437 
L 19.174404 150.42927 
L 19.44193 150.27529 
L 19.880432 150.313785 
L 20.097671 150.050737 
L 20.216348 149.73155 
L 20.222382 149.484541 
L 20.057441 148.846167 
L 20.093648 148.640861 
L 20.196233 148.472446 
L 20.234451 148.347337 
L 19.598825 148.124388 
L 19.140209 147.834072 
L 18.99136 147.668864 
L 18.941073 147.421856 
L 18.912913 146.974352 
L 18.987337 146.716116 
L 19.106014 146.454671 
L 19.065785 146.292672 
L 18.367803 146.377681 
L 17.856889 146.207662 
L 17.587352 146.170771 
L 17.323848 146.246157 
L 16.818969 146.497978 
L 16.553454 146.552512 
L 16.533339 145.769783 
L 16.23363 144.877182 
L 16.122999 144.150591 
L 16.668108 143.861879 
L 16.937645 144.014255 
L 17.168965 144.3166 
L 17.428445 144.555589 
L 17.786487 144.517094 
L 18.025853 144.252442 
L 18.399987 143.462494 
L 18.661479 143.159347 
L 20.461748 141.741451 
L 21.57007 141.137562 
L 21.859722 140.751811 
L 21.451393 140.369268 
L 21.895929 140.004369 
L 22.050812 139.913745 
L 21.604265 139.759766 
L 20.634734 140.427813 
L 20.17813 140.172784 
L 20.039338 139.59937 
L 20.095659 138.906462 
L 20.262612 138.288138 
L 20.461748 137.945693 
L 20.872088 137.444458 
L 21.869779 135.602316 
L 22.072938 135.402624 
L 22.567761 135.057774 
L 22.760862 134.784299 
L 22.865459 134.397746 
L 22.925803 133.71767 
L 23.038446 133.444997 
L 22.74477 133.094533 
L 22.77092 132.522724 
L 22.919769 131.862696 
L 22.99017 131.248382 
L 22.895631 130.685394 
L 22.756839 129.668487 
L 21.972365 128.765461 
L 20.676975 126.993091 
L 20.592493 126.612152 
L 20.69709 126.168659 
L 20.924387 125.474146 
L 19.606871 124.899129 
L 19.160324 124.334537 
L 19.421816 123.45557 
L 19.228714 123.258283 
L 18.794236 122.931879 
L 18.570962 122.826018 
L 18.005738 122.838849 
L 17.812637 122.761058 
L 17.828728 122.427435 
L 17.944009 122.313918 
L 18.261195 122.001585 
L 18.29539 121.374439 
L 18.03591 120.773758 
L 17.593386 120.43773 
L 17.659765 120.161048 
L 17.983612 119.934088 
L 18.778144 119.794544 
L 19.15429 119.635753 
L 19.556584 119.339823 
L 19.836179 119.192259 
L 20.6287 118.981339 
L 21.260303 119.14815 
L 21.718919 119.264437 
L 22.032709 119.341427 
L 21.771217 118.934023 
L 21.045075 118.180164 
L 20.803698 117.998917 
L 21.465473 117.644443 
L 22.093053 117.937165 
L 22.718621 118.438401 
L 23.376373 118.705459 
L 23.983838 118.573133 
L 24.144756 118.59238 
L 24.283548 118.725508 
L 24.498776 119.10725 
L 24.587281 119.213913 
L 25.333537 119.326189 
L 25.649339 119.508238 
L 25.707671 119.99183 
L 26.437836 119.790534 
L 26.518295 119.480971 
L 26.359389 118.780845 
L 27.606503 119.145745 
L 28.002763 119.145745 
L 28.324599 119.001389 
L 29.28206 118.274797 
L 31.21911 117.620384 
L 32.941937 117.565849 
L 33.468943 117.284356 
L 33.921525 116.751041 
L 34.366061 115.955479 
L 34.524967 115.783054 
L 34.673816 115.757391 
L 34.772378 115.662758 
L 34.790482 115.283422 
L 34.742206 115.074106 
L 34.641633 114.924137 
L 34.138764 114.399644 
L 32.867513 113.698716 
L 32.44108 113.574409 
L 32.131313 113.358677 
L 32.091084 112.885511 
L 32.225852 112.562314 
L 32.400851 112.480512 
L 32.606021 112.466077 
L 32.839352 112.350592 
L 32.996247 112.155712 
L 33.155153 111.760337 
L 33.257739 111.583902 
L 33.58762 111.246269 
L 33.899399 111.074646 
L 34.010428 111.062361 
L 35.160593 110.935102 
L 35.405993 110.714559 
L 35.836448 109.851631 
L 36.214605 109.462672 
L 37.049367 109.103386 
L 37.437581 108.764952 
L 37.894186 108.036757 
L 38.103379 107.796966 
L 38.968313 107.280492 
L 39.022623 107.120899 
L 38.973765 107.032639 
L 38.859693 106.826573 
L 38.686706 106.163338 
L 38.698775 105.594736 
L 38.839578 105.126382 
L 39.229804 104.239395 
L 39.394745 103.107805 
L 39.121185 102.309838 
L 37.936427 100.429201 
L 37.813727 100.48534 
L 37.693038 100.693854 
L 37.512006 100.860665 
L 37.025229 101.000209 
L 36.514315 101.03309 
L 35.965182 100.945675 
L 34.959445 100.570349 
L 33.418656 100.357825 
L 32.905731 100.113222 
L 32.521539 99.676947 
L 32.402862 99.214206 
L 32.374702 98.667257 
L 32.306311 98.113091 
L 32.066946 97.626291 
L 32.388782 97.598222 
L 33.468943 97.066511 
L 32.831306 96.541216 
L 32.694526 96.341524 
L 32.688491 96.083287 
L 32.776996 95.825852 
L 32.815214 95.547566 
L 32.652285 95.222766 
L 32.988808 94.985505 
L 33.338198 94.739173 
L 33.989915 94.542689 
L 35.836448 94.513818 
L 36.868334 94.816965 
L 37.827807 94.678223 
L 38.121482 94.79852 
L 38.815441 95.00944 
L 39.16946 94.345403 
L 39.312275 93.251506 
L 39.493307 89.900845 
L 39.662271 88.863087 
L 39.86028 88.325979 
L 40.010256 87.919159 
L 41.607367 85.491575 
L 42.029776 84.452212 
L 42.208797 83.462572 
L 42.238969 82.35023 
L 42.057937 80.127951 
L 41.985524 79.856883 
L 41.890984 79.694884 
L 41.81656 79.497597 
L 41.802479 79.126282 
L 41.850755 78.876065 
L 42.126327 78.19278 
L 42.259084 77.658664 
L 42.319428 77.175071 
L 42.299314 76.677044 
L 42.24323 75.795607 
L 42.434874 75.694571 
L 42.656611 75.467239 
L 42.827666 75.239907 
L 43.001888 74.907749 
L 43.068409 74.537703 
L 42.922696 74.195442 
L 43.413686 73.483135 
L 43.678187 73.354313 
L 44.12958 73.346735 
L 44.550881 73.452824 
L 45.222428 73.860758 
L 45.589879 74.00221 
L 45.122647 73.342946 
L 44.351318 73.072674 
L 39.91974 72.922382 
L 39.200678 72.581384 
L 38.915587 71.717522 
L 38.909251 69.417679 
L 38.994779 68.894815 
L 39.371732 67.952649 
L 39.457259 67.490408 
L 39.618811 67.207505 
L 40.000516 67.212557 
L 40.784515 67.375478 
L 40.889048 67.125413 
L 41.074357 67.030691 
L 41.215319 66.727582 
L 41.180475 66.336066 
L 41.007836 66.113785 
L 40.439239 65.840987 
L 40.185825 65.593447 
L 40.144645 65.185512 
L 40.420233 64.843251 
L 41.047432 64.427739 
L 41.753824 63.67628 
L 42.133945 63.427478 
L 42.856175 62.713907 
L 44.392497 62.145577 
L 47.385951 61.824786 
L 47.595017 61.961185 
L 47.8025 62.231458 
L 48.263397 62.336283 
L 51.133311 61.767953 
L 56.97292 60.993761 
L 58.529832 61.423166 
L 58.529832 61.654287 
L 58.403125 62.525727 
L 58.947966 63.651021 
L 59.749388 64.631075 
L 60.401929 65.064269 
L 60.401929 65.254975 
L 60.23721 65.649017 
L 60.538139 65.787943 
L 60.968943 65.905398 
L 61.187512 66.229977 
L 61.127326 66.788204 
L 60.943601 67.073632 
L 60.5223 67.375478 
L 60.170688 67.548504 
L 59.404111 67.614177 
L 59.062002 67.818776 
L 59.416782 68.853137 
L 59.595755 69.243391 
L 59.860256 69.513663 
L 60.107335 69.399997 
L 60.329072 69.309064 
L 60.655343 69.321694 
L 60.883415 69.440412 
L 61.254033 69.84961 
L 61.393411 69.938017 
L 61.551795 70.069364 
L 61.710179 70.361107 
L 61.914494 70.65285 
L 62.194833 70.78546 
L 62.521103 70.776619 
L 62.758679 70.724838 
L 62.967746 70.603594 
L 63.206905 70.380051 
L 63.617119 69.728366 
L 64.051091 68.659905 
L 64.155624 67.595233 
L 63.591778 66.97007 
L 62.826784 67.164565 
L 62.418154 67.098891 
L 62.456166 66.644227 
L 62.622469 66.133993 
L 62.761847 65.079424 
L 62.926566 64.639915 
L 63.186315 64.378483 
L 63.515754 64.253451 
L 64.328262 64.215562 
L 64.700464 64.378483 
L 64.988723 64.759896 
L 65.226298 65.18425 
L 65.463874 65.487359 
L 66.249457 65.871298 
L 67.910903 66.181985 
L 68.663226 66.528035 
L 68.663226 66.757893 
L 68.197578 67.139306 
L 67.769942 67.634385 
L 67.454758 68.303751 
L 67.33597 69.205502 
L 67.358144 70.948382 
L 67.47218 71.716259 
L 67.735097 72.287115 
L 67.792115 71.519238 
L 67.586216 69.5806 
L 67.602055 68.664957 
L 67.899816 67.990538 
L 68.346458 67.689955 
L 68.751921 67.31612 
L 68.929311 66.43205 
L 68.832697 66.276707 
L 68.333788 65.064269 
L 68.184907 64.882403 
L 67.982176 64.461839 
L 67.811121 63.997071 
L 67.673327 63.406007 
L 67.39774 62.700015 
L 67.33597 62.183466 
L 67.378734 61.660602 
L 67.497521 61.203412 
L 68.226087 59.479477 
L 68.742418 57.609038 
L 69.075024 56.780539 
L 69.353779 56.383971 
L 69.7339 56.039184 
L 70.164704 55.795433 
L 70.605011 55.699449 
L 71.010473 55.727234 
L 71.241714 55.823218 
L 71.720033 56.335979 
L 72.410586 56.889153 
L 73.14707 57.251622 
L 74.669138 57.607775 
L 75.503821 57.585042 
L 76.918188 57.252885 
L 77.697436 57.312244 
L 78.061719 56.906835 
L 79.609128 56.548155 
L 81.148618 56.562048 
L 81.481224 56.335979 
L 81.745725 56.524159 
L 82.06566 56.578466 
L 82.726121 56.548155 
L 82.895591 56.656769 
L 83.323228 57.187211 
L 85.217497 60.357231 
L 85.999913 61.229934 
L 86.546337 61.654287 
L 86.814006 61.981393 
L 87.08009 62.919769 
L 88.416849 64.790207 
L 88.714611 65.04785 
L 89.075726 65.201931 
L 89.53979 65.254975 
L 89.782118 65.367378 
L 90.938319 66.123889 
L 92.249737 66.401739 
L 93.320411 66.629071 
L 93.573825 66.528035 
L 93.331498 66.123889 
L 92.601349 65.717217 
L 90.855959 65.525248 
L 90.143233 65.254975 
L 88.739952 64.391113 
L 88.100082 63.704065 
L 87.872009 62.713907 
L 87.814991 61.867727 
L 87.738967 61.327181 
L 87.544155 61.157945 
L 86.630281 60.675496 
L 86.337271 60.57446 
L 85.862119 60.162736 
L 85.407558 59.229411 
L 85.100293 58.227887 
L 85.071784 57.607775 
L 84.362225 57.342555 
L 83.133167 56.338505 
L 82.398266 55.914151 
L 81.671285 55.752493 
L 79.198914 55.699449 
L 78.459262 55.376132 
L 77.963521 55.244784 
L 77.737032 55.381184 
L 77.532717 55.699449 
L 77.081323 55.557998 
L 76.397105 55.065445 
L 75.746148 54.305145 
L 74.136969 51.23111 
L 74.886124 50.905267 
L 75.251991 50.878745 
L 75.717639 50.999989 
L 76.482633 51.483701 
L 76.900766 51.615048 
L 77.326818 51.424342 
L 77.475699 51.084607 
L 77.634083 50.469547 
L 77.741784 49.803969 
L 77.737032 49.324046 
L 77.510543 49.005781 
L 77.149428 48.703934 
L 76.883343 48.386932 
L 76.938778 48.033305 
L 76.938778 47.840072 
L 76.463627 47.703673 
L 75.78416 47.821128 
L 75.150625 48.109082 
L 74.800597 48.476602 
L 74.669138 48.476602 
L 74.136969 47.608951 
L 73.793276 46.9118 
L 73.737842 46.760245 
L 73.896226 46.13887 
L 74.193987 45.603377 
L 74.396718 45.11335 
L 74.258924 44.642267 
L 74.258924 44.430091 
L 74.498084 44.259592 
L 75.32168 44.037311 
L 75.657453 44.007 
L 75.863352 43.850394 
L 76.164281 43.463929 
L 76.468378 42.971376 
L 76.66319 42.504083 
L 76.218132 42.584912 
L 75.484815 43.179764 
L 75.066682 43.352789 
L 75.104694 43.249227 
L 75.160128 43.028209 
L 75.199724 42.928436 
L 74.608953 42.99411 
L 73.593713 43.285852 
L 72.995022 43.352789 
L 72.299717 43.240386 
L 71.998788 43.352789 
L 71.350999 43.936275 
L 71.122926 44.007 
L 70.605011 43.83145 
L 70.050668 43.357841 
L 69.648373 42.675845 
L 69.592939 41.868816 
L 69.868526 41.549288 
L 70.400696 41.323219 
L 70.997803 41.210815 
L 71.455532 41.232286 
L 71.455532 41.020109 
L 71.105504 40.943069 
L 70.837835 40.705633 
L 70.581253 40.629856 
L 70.272405 41.020109 
L 70.106102 40.679111 
L 70.16312 40.329272 
L 70.343678 40.004692 
L 70.53849 39.748312 
L 70.953455 39.921337 
L 72.530958 39.518454 
L 74.669138 39.518454 
L 75.163296 39.394685 
L 75.575094 39.154723 
L 76.397105 38.477778 
L 77.147844 38.132991 
L 77.472531 37.90187 
L 77.60399 37.397951 
L 77.605573 36.646492 
L 77.109832 35.934185 
L 75.521243 34.340334 
L 75.294754 34.010702 
L 75.199724 33.681071 
L 75.02075 33.537094 
L 74.620039 33.54846 
L 74.209826 33.655812 
L 73.991256 33.797263 
L 73.858214 33.564879 
L 74.525009 33.140526 
L 73.845543 31.453216 
L 73.593713 31.021285 
L 73.034618 30.697968 
L 71.98295 29.842947 
L 71.322489 29.539838 
L 71.322489 29.326398 
L 71.431774 28.765645 
L 71.17836 28.134167 
L 70.799823 27.512793 
L 70.53849 26.977299 
L 70.427621 26.160167 
L 70.514732 25.440282 
L 70.778416 24.542212 
L 71.461661 24.738596 
L 72.179758 24.767467 
L 73.505319 24.308736 
L 73.959912 24.244578 
L 75.514781 24.491587 
L 77.043501 25.069011 
L 81.171046 25.967225 
L 81.496904 26.233482 
L 81.585409 26.546253 
L 81.643742 26.97932 
L 81.786557 27.34823 
L 82.130519 27.476546 
L 83.550619 27.481358 
L 83.842283 27.431635 
L 84.031361 27.250389 
L 84.308945 27.179815 
L 84.522161 27.00338 
L 84.874169 26.929598 
L 85.266406 27.27124 
L 85.596288 27.306527 
L 85.883929 27.216706 
L 85.895232 27.208413 
L 86.166216 27.209683 
L 87.325585 26.667875 
L 87.694619 26.243522 
L 88.169771 26.069234 
L 88.413682 25.663825 
L 88.667096 25.474382 
L 88.730449 26.592098 
L 89.672833 26.914152 
L 90.86863 26.972248 
L 91.677971 27.304405 
L 92.018496 27.543104 
L 92.523741 27.743914 
L 92.984637 28.047023 
L 93.187369 28.585043 
L 93.412274 28.87426 
L 93.920685 28.79343 
L 94.806051 28.478954 
L 94.730026 27.833584 
L 95.189339 27.804536 
L 95.821291 28.167004 
L 96.267933 28.691131 
L 96.534018 29.750751 
L 96.657557 29.998291 
L 96.833363 30.2332 
L 97.197646 30.596932 
L 96.947399 30.775009 
L 96.690817 30.744698 
L 96.450074 30.642398 
L 96.267933 30.596932 
L 96.27902 30.665131 
L 95.797533 31.018759 
L 95.735763 31.021285 
L 95.61064 31.100851 
L 95.526697 31.093274 
L 95.479182 31.16021 
L 95.469679 31.445638 
L 95.754769 31.46332 
L 96.263181 31.320606 
L 96.771593 31.294084 
L 97.064603 31.657815 
L 97.27367 31.491105 
L 97.495407 31.475949 
L 97.603108 31.665393 
L 97.46373 32.101113 
L 97.561928 32.531781 
L 97.574599 33.14684 
L 97.46373 34.431267 
L 97.365532 34.981916 
L 97.23249 35.420161 
L 97.045597 35.777578 
L 96.800102 36.108473 
L 96.172903 36.651544 
L 95.388903 37.056953 
L 94.546301 37.313333 
L 93.730625 37.397951 
L 93.730625 37.610127 
L 94.571643 38.019325 
L 99.269305 36.97486 
L 99.633588 37.096104 
L 100.810379 38.053425 
L 100.422339 38.414631 
L 100.420755 38.754366 
L 100.574387 39.134516 
L 100.677337 39.633383 
L 100.564884 40.048896 
L 100.289297 40.43536 
L 99.937685 40.713211 
L 99.601911 40.807932 
L 99.652594 40.877395 
L 99.719115 40.930439 
L 99.728618 41.027687 
L 99.601911 41.232286 
L 99.810978 41.443199 
L 99.86958 41.703368 
L 99.793555 41.996374 
L 99.601911 42.293169 
L 100.029547 42.145403 
L 100.35265 41.774094 
L 100.810379 40.807932 
L 101.068545 39.778623 
L 101.209506 39.518454 
L 101.404318 39.39721 
L 102.139219 39.323959 
L 102.405304 39.178719 
L 102.535179 39.010746 
L 102.63496 38.837721 
L 102.815518 38.671011 
L 103.038839 38.602811 
L 103.865602 38.671011 
L 104.293238 38.868032 
L 105.471614 39.748312 
L 108.541091 41.020109 
L 110.275393 42.547023 
L 111.075231 42.733941 
L 111.966932 42.581123 
L 112.622641 42.200973 
L 113.734495 41.232286 
L 114.375949 40.845821 
L 115.045912 40.581863 
L 116.67093 40.384842 
L 116.67093 40.595756 
L 116.320902 40.612174 
L 115.834663 40.617226 
L 116.172021 40.758677 
L 116.509378 40.655115 
L 116.965524 40.951909 
L 118.332376 40.167614 
L 118.942153 40.384842 
L 118.219923 41.141353 
L 118.01244 41.444462 
L 117.89682 41.354792 
L 117.600642 41.232286 
L 117.811293 41.739994 
L 117.990267 42.975165 
L 118.143899 43.56244 
L 117.99977 43.953956 
L 118.01244 44.481872 
L 118.143899 45.376045 
L 118.059955 45.906487 
L 117.873063 46.189389 
L 117.68617 46.385147 
L 117.600642 46.654157 
L 115.340506 48.033305 
L 114.559674 48.972944 
L 114.219149 49.180069 
L 113.431982 49.435186 
L 113.279933 49.430134 
L 113.115214 49.569059 
L 112.983756 49.480653 
L 112.845962 49.340464 
L 112.67174 49.324046 
L 112.518107 49.417505 
L 112.440499 49.499597 
L 111.68976 50.598369 
L 111.490197 50.806756 
L 111.490197 50.999989 
L 111.748362 51.606208 
L 112.031869 52.053294 
L 112.405655 52.345037 
L 112.936241 52.50417 
L 113.688563 52.430918 
L 113.881792 52.50417 
L 114.019585 52.826223 
L 114.038592 53.19627 
L 114.113032 53.481698 
L 114.399707 53.561264 
L 114.475731 53.566316 
L 114.70222 53.580208 
L 114.798834 53.561264 
L 115.047496 53.378135 
L 115.617678 52.814857 
L 115.939197 52.696139 
L 116.309815 52.622887 
L 117.345645 52.098761 
L 119.711898 51.803229 
L 119.882953 51.865114 
L 120.017579 52.041928 
L 120.144286 52.47891 
L 120.28208 52.696139 
L 120.974217 52.875479 
L 121.080334 53.032085 
L 120.990055 53.739341 
L 121.032819 54.062657 
L 121.279897 54.197794 
L 121.859582 54.23442 
L 122.021133 54.197794 
L 122.808301 53.561264 
L 122.957182 53.655986 
L 123.156745 54.095494 
L 123.277117 54.197794 
L 124.088042 54.197794 
L 124.097545 54.295041 
L 124.843532 55.1829 
L 124.990829 55.275095 
L 125.212566 55.275095 
L 125.237908 54.94799 
L 125.434304 54.449122 
L 125.584768 53.830274 
L 125.499241 53.330143 
L 125.64337 53.102811 
L 125.831847 52.963886 
L 125.994982 52.925997 
L 125.95697 52.787072 
L 125.909455 52.43597 
L 125.874611 52.289467 
L 126.539822 51.655463 
L 126.539822 51.424342 
L 126.40678 51.424342 
L 126.40678 51.23111 
L 126.904105 51.425605 
L 127.071992 51.424342 
L 127.466367 51.150281 
L 127.813228 50.32557 
L 128.074561 50.151282 
L 128.231361 50.099501 
L 128.359652 49.963102 
L 128.459434 49.766081 
L 128.544961 49.536223 
L 128.557632 49.382142 
L 128.411918 49.272265 
L 128.411918 49.113132 
L 128.473688 48.954 
L 128.554464 48.847911 
L 128.62732 48.764556 
L 129.108807 47.947424 
L 129.728088 47.544541 
L 130.48833 47.442241 
L 132.113347 47.712514 
L 136.752408 46.777926 
L 137.482557 46.338418 
L 137.582339 47.227539 
L 137.509482 48.090138 
L 137.550662 48.823915 
L 138.005223 49.324046 
L 137.816747 48.947685 
L 137.720133 48.141919 
L 137.617183 47.840072 
L 137.819914 47.477604 
L 138.380593 47.179546 
L 138.546896 46.760245 
L 138.328326 46.740038 
L 138.11926 46.7754 
L 137.919696 46.854967 
L 137.739139 46.972422 
L 137.886435 46.681942 
L 138.546896 45.869861 
L 138.941271 45.53644 
L 139.403752 44.808978 
L 139.677756 44.642267 
L 139.932754 44.572805 
L 141.399387 43.823872 
L 142.137456 43.244175 
L 142.425714 42.928436 
L 143.127354 41.656639 
L 144.29781 40.076681 
L 144.424517 39.77736 
L 145.227523 38.477778 
L 145.536371 37.663172 
L 145.759693 37.394162 
L 146.157236 37.207244 
L 146.157236 37.397951 
L 146.024193 37.397951 
L 146.439159 38.020588 
L 147.278593 38.341379 
L 151.708587 38.341379 
L 152.438736 38.671011 
L 152.886962 38.432312 
L 153.446057 38.561133 
L 153.694719 38.907183 
L 153.211649 39.323959 
L 152.714324 39.424995 
L 150.629993 39.258285 
L 149.798479 38.966542 
L 149.285315 38.902132 
L 149.133267 38.965279 
L 148.925784 39.246919 
L 148.814915 39.323959 
L 148.418956 39.323959 
L 147.915296 39.235552 
L 147.726819 39.334063 
L 147.608031 39.748312 
L 147.487659 39.518454 
L 147.38471 39.57655 
L 147.212072 39.715475 
L 147.088532 39.748312 
L 147.123377 40.013533 
L 147.204152 40.132251 
L 147.327692 40.171403 
L 147.487659 40.192873 
L 147.417971 40.209291 
L 147.36412 40.210554 
L 147.335611 40.250969 
L 147.341946 40.384842 
L 146.968161 40.195399 
L 146.550028 40.232024 
L 146.198416 40.451779 
L 146.024193 40.807932 
L 145.707426 40.43536 
L 145.322553 40.254758 
L 144.617746 40.192873 
L 144.300978 40.334324 
L 144.038061 40.694266 
L 143.911354 41.167875 
L 144.019055 41.656639 
L 143.7403 41.603595 
L 143.626263 41.558128 
L 143.488469 41.444462 
L 143.355427 41.656639 
L 143.483718 42.027948 
L 143.388688 42.395468 
L 143.144777 42.664478 
L 142.823257 42.733941 
L 142.961051 43.157031 
L 143.122603 43.489188 
L 143.165366 43.761987 
L 142.945213 44.007 
L 143.79415 44.558912 
L 144.267717 44.673841 
L 144.684267 44.430091 
L 144.381754 44.441457 
L 144.152097 44.335369 
L 143.75297 44.007 
L 143.879677 43.642006 
L 144.063402 43.372996 
L 144.552808 42.928436 
L 144.666845 42.855184 
L 144.880663 42.792037 
L 144.961438 42.733941 
L 145.023208 42.581123 
L 145.042214 42.188344 
L 145.083394 42.062048 
L 145.412832 41.800616 
L 146.676735 41.232286 
L 146.413817 41.049157 
L 146.291862 41.020109 
L 146.291862 40.807932 
L 146.652977 40.6829 
L 146.784436 40.694266 
L 146.942819 40.807932 
L 146.942819 40.595756 
L 147.307102 40.898865 
L 147.886787 40.756151 
L 148.947958 40.192873 
L 148.905194 40.08931 
L 148.852928 39.854401 
L 148.814915 39.748312 
L 149.017647 39.609387 
L 149.245719 39.523506 
L 149.484879 39.493195 
L 149.731957 39.518454 
L 149.731957 39.748312 
L 149.438947 39.819038 
L 149.242552 40.065314 
L 149.128515 40.420205 
L 149.081 40.807932 
L 149.324911 40.41389 
L 149.413606 40.205502 
L 149.480127 39.959226 
L 149.654349 40.254758 
L 149.853913 40.528819 
L 150.072483 40.624804 
L 150.287884 40.384842 
L 150.515957 40.574286 
L 150.725024 40.565445 
L 150.915084 40.420205 
L 151.086139 40.192873 
L 151.139989 40.432834 
L 151.233436 40.656378 
L 151.355391 40.854662 
L 151.687997 41.25123 
L 151.760854 41.308063 
L 151.830542 41.273963 
L 152.026938 41.232286 
L 152.400724 41.255019 
L 152.59712 41.201975 
L 152.815689 41.020109 
L 152.981992 40.770044 
L 153.18314 40.266124 
L 153.357362 39.959226 
L 153.854687 39.500773 
L 154.6276 39.034742 
L 155.400512 38.765732 
L 155.89467 38.902132 
L 155.647591 39.125675 
L 155.638088 39.495721 
L 155.785385 39.889763 
L 156.015041 40.192873 
L 156.857643 40.599545 
L 157.088883 40.807932 
L 156.721433 41.420466 
L 156.800625 41.897864 
L 157.354968 42.733941 
L 157.410402 43.072413 
L 157.410402 43.408359 
L 157.465837 43.671054 
L 157.681239 43.777142 
L 158.550766 43.777142 
L 158.550766 44.007 
L 158.368624 44.012052 
L 158.23875 44.065096 
L 158.02018 44.19897 
L 158.656883 44.142137 
L 159.673707 44.683945 
L 160.351589 44.8355 
L 160.850498 45.090617 
L 161.491952 46.324525 
L 162.01937 46.760245 
L 161.716857 46.961055 
L 161.487201 47.184598 
L 161.973439 47.180809 
L 162.698836 46.833496 
L 163.082125 46.972422 
L 162.930077 47.336153 
L 162.83663 47.48013 
L 162.682998 47.608951 
L 162.912655 47.740299 
L 163.0552 47.665784 
L 163.183491 47.563485 
L 163.359297 47.608951 
L 163.465414 47.765558 
L 163.747337 48.476602 
L 163.994416 48.935055 
L 164.28109 49.306365 
L 164.640621 49.528645 
L 165.098351 49.536223 
L 165.098351 49.324046 
L 164.938383 49.181332 
L 164.716646 48.826441 
L 164.556678 48.688779 
L 164.556678 48.476602 
L 166.95936 48.033305 
L 167.535877 47.783239 
L 168.530527 47.146709 
L 169.08487 46.972422 
L 169.173565 47.13408 
L 169.13872 47.270479 
L 169.013597 47.36899 
L 168.818785 47.416982 
L 168.818785 47.608951 
L 169.412724 47.896905 
L 170.956966 49.113132 
L 170.956966 49.324046 
L 170.676627 49.779973 
L 170.516659 50.378614 
L 170.2775 50.924211 
L 169.750082 51.23111 
L 169.98449 51.400346 
L 170.548336 52.079816 
L 170.752651 52.395555 
L 170.866687 52.476385 
L 171.417863 52.696139 
L 171.550905 52.787072 
L 171.638016 52.996722 
L 171.698202 53.224055 
L 171.75522 53.368032 
L 171.777394 53.479172 
L 171.752053 53.620623 
L 171.745717 53.741867 
L 171.821742 53.794911 
L 172.100497 53.769652 
L 172.16385 53.794911 
L 172.268384 53.87574 
L 172.387172 53.94394 
L 172.510711 53.989406 
L 172.619996 54.004562 
L 172.862323 54.129594 
L 172.892416 54.425126 
L 172.772044 54.773702 
L 172.553475 55.065445 
L 171.159697 56.149061 
L 170.956966 56.548155 
L 171.131188 56.927042 
L 171.495471 57.096278 
L 171.856586 57.175844 
L 172.021305 57.289511 
L 172.144844 57.629246 
L 172.429935 58.020762 
L 172.743535 58.285983 
L 172.952602 58.244305 
L 174.384391 59.377177 
L 175.029013 59.516102 
L 175.344197 59.888674 
L 175.420221 59.958137 
L 175.889037 59.922774 
L 176.031582 59.958137 
L 176.520988 60.235987 
L 176.75698 60.328183 
L 178.321811 60.43806 
L 178.869819 60.281454 
L 179.101059 59.852049 
L 179.248356 59.756064 
L 179.560372 59.812897 
L 179.839128 60.071803 
L 179.896146 60.57446 
L 179.742514 60.805581 
L 178.831807 61.423166 
L 179.077302 61.557039 
L 179.362393 61.650498 
L 179.677576 61.690913 
L 179.827537 61.674549 
L 179.826798 61.677665 
L 179.850935 62.550216 
L 179.770477 63.033006 
L 180.064152 63.640905 
L 180.472481 64.847078 
L 180.508687 65.153434 
L 180.456389 66.289033 
L 180.470469 66.97713 
L 180.611273 67.617107 
L 181.083969 68.313224 
L 181.287128 68.961221 
L 181.695457 69.617239 
L 181.898616 71.224401 
L 182.306238 73.03334 
L 182.437691 73.616699 
L 182.467863 73.879747 
L 182.479932 74.442735 
L 182.540276 74.747486 
L 182.658953 74.944773 
L 182.956651 75.186168 
L 183.033087 75.359395 
L 183.286533 75.583949 
L 182.779641 76.541509 
L 182.636827 76.746014 
L 182.431656 76.851875 
L 182.238555 77.128557 
L 182.099763 77.507892 
L 182.045453 77.92091 
L 182.115855 78.425354 
L 182.232521 78.864837 
L 182.27275 79.313944 
L 181.689423 81.071076 
L 181.635113 81.330917 
L 181.373621 81.891499 
L 180.776213 82.493784 
L 179.629673 83.373553 
L 178.444915 83.970224 
L 177.503545 84.644687 
L 177.503545 84.837963 
L 177.620211 85.149932 
L 177.857565 86.251047 
L 177.901817 86.639204 
L 177.821358 87.226251 
L 177.620211 87.602378 
L 177.103262 88.036248 
L 177.326536 88.472524 
L 177.664463 88.729156 
L 178.072793 88.852661 
L 178.505259 88.883136 
L 178.895485 89.049947 
L 179.531111 89.776539 
L 180.06214 90.051617 
L 182.129935 91.528057 
L 182.431656 91.870501 
L 183.097454 93.144041 
L 183.300613 93.334109 
L 183.670724 93.501723 
L 184.229914 94.244353 
L 185.394557 94.692659 
L 186.52378 95.925845 
L 186.635637 96.048 
L 187.24109 96.532394 
L 186.695981 97.646341 
L 186.54512 98.367318 
L 186.907186 98.689713 
L 186.997702 99.020929 
L 186.675866 99.749125 
L 186.205181 100.478122 
L 185.197433 101.345059 
L 185.306053 102.577698 
L 185.768692 103.932238 
L 186.177021 104.835264 
L 186.060355 105.399856 
L 186.496845 105.88024 
L 187.156608 106.212259 
L 187.709764 106.338169 
L 188.254873 106.571544 
L 188.556594 107.116889 
L 188.55056 107.752055 
L 188.170391 108.244469 
L 188.170391 108.436943 
L 188.451998 108.869209 
L 188.377573 109.312702 
L 188.16838 109.877294 
L 188.049703 110.682479 
L 188.244816 111.127577 
L 189.510033 112.059474 
L 189.151991 112.498156 
L 189.003141 112.762006 
L 188.940786 113.040292 
L 188.904579 113.324994 
L 188.822109 113.618518 
L 188.401711 114.36997 
L 188.297114 114.671514 
L 188.228724 116.566586 
L 188.063783 117.173683 
L 187.764074 117.732661 
L 187.406031 118.206629 
L 186.289663 119.330199 
L 186.034206 119.868326 
L 186.092539 120.525947 
L 186.412363 121.009539 
L 186.764371 121.250935 
L 187.033909 121.608616 
L 187.110345 122.427435 
L 187.311492 123.216581 
L 187.749993 123.726638 
L 188.695386 124.506962 
L 188.94682 125.043485 
L 189.13791 125.831026 
L 189.170094 126.648241 
L 188.940786 127.269773 
L 188.562629 127.865642 
L 188.403722 128.468729 
L 188.446745 128.691075 
L 188.51033 129.019687 
L 188.940786 129.467191 
L 190.212037 129.893041 
L 190.622378 130.18496 
L 190.622378 130.188168 
L 191.066914 130.441593 
L 191.980123 130.711057 
L 192.420636 130.921175 
L 192.724368 131.158561 
L 193.084422 131.53549 
L 193.285569 131.962944 
L 193.120628 132.351101 
L 193.193145 133.169567 
L 193.309707 134.485162 
L 193.309707 134.514033 
L 193.394189 135.070605 
L 193.448499 135.284733 
L 193.808553 135.917493 
L 194.249065 136.436372 
L 194.532683 137.045073 
L 194.432109 137.945693 
L 194.502511 138.041931 
L 194.58297 138.128544 
L 194.249065 138.785363 
L 193.985562 139.612202 
L 193.826656 140.483149 
L 193.80453 141.267483 
L 193.7643 141.666065 
L 193.635566 141.872976 
L 193.484705 142.016529 
L 193.380109 142.231459 
L 193.345914 142.537013 
L 193.341891 143.133684 
L 193.283558 143.489761 
L 192.414601 145.705624 
L 191.433002 148.058625 
L 190.741055 148.834939 
L 190.465483 149.29367 
L 190.463472 149.871094 
L 190.155716 150.703546 
L 189.97066 151.062832 
L 189.781582 151.282574 
L 189.467792 151.369187 
L 189.045382 151.353148 
L 188.323263 151.189544 
L 187.579018 150.618537 
L 187.301435 150.462953 
L 186.625579 150.270478 
L 186.53104 150.037905 
L 186.59943 149.482937 
L 186.929312 148.701811 
L 187.041955 148.289595 
L 186.937358 147.938329 
L 186.702015 147.933517 
L 185.625877 148.384228 
L 185.402603 148.206189 
L 185.509211 147.827656 
L 185.742542 147.381757 
L 185.893403 147.008035 
L 185.929609 146.541285 
L 185.869265 146.238137 
L 185.720416 145.992732 
L 185.485074 145.705624 
L 185.245708 145.516358 
L 184.720714 145.38323 
L 184.479337 145.21321 
L 184.296293 144.958984 
L 184.229914 144.772925 
L 184.187673 144.586064 
L 184.075031 144.323016 
L 183.906067 144.752074 
L 183.684805 144.867558 
L 182.978777 144.827459 
L 182.433668 145.070458 
L 182.21844 145.065647 
L 182.007235 144.950162 
L 181.880513 144.780945 
L 181.777927 144.60852 
L 181.63109 144.473787 
L 180.906959 144.2356 
L 180.287425 144.334243 
L 179.820763 144.812222 
L 179.547203 145.705624 
L 179.329964 146.021603 
L 179.55726 146.172375 
L 180.215012 146.258989 
L 180.603227 146.41778 
L 180.573055 146.480334 
L 180.408114 146.595819 
L 180.39001 146.921422 
L 180.886845 147.417044 
L 181.604941 147.63037 
L 182.123901 147.933517 
L 182.007235 148.706623 
L 181.435977 149.195829 
L 179.909268 149.073929 
L 179.209275 149.221492 
L 178.998071 149.43161 
L 178.64204 149.973747 
L 178.404686 150.1983 
L 175.371383 151.604968 
L 174.997249 151.630632 
L 174.285187 151.537602 
L 173.905019 151.621008 
L 173.695826 151.77178 
L 173.398127 152.156729 
L 173.198991 152.3075 
L 172.953592 152.344391 
L 172.764513 152.286649 
L 172.599572 152.293065 
L 172.420551 152.516015 
L 172.338081 152.817558 
L 172.362218 153.080606 
L 172.408482 153.298744 
L 172.398425 153.462348 
L 172.265668 153.654822 
L 172.153025 153.694921 
L 172.034348 153.698129 
L 171.471135 154.054207 
L 171.121139 154.126385 
L 170.228045 154.025336 
L 169.807647 154.068642 
L 169.067424 154.346126 
L 168.692284 154.421512 
L 166.944314 154.411889 
L 166.061276 154.580304 
L 165.264733 155.067906 
L 165.490018 155.54428 
L 165.413582 155.962912 
L 165.154102 156.302951 
L 164.830255 156.551564 
L 164.942897 156.800177 
L 164.924794 156.987839 
L 164.808128 157.133799 
L 164.615027 157.244472 
L 164.277099 157.672728 
L 163.947217 157.977479 
L 163.585152 158.068904 
L 163.150674 157.852371 
L 163.02194 157.688767 
L 162.748379 157.222017 
L 162.643782 157.10172 
L 162.406429 157.013502 
L 162.352119 157.051997 
L 162.34005 157.164274 
L 162.223384 157.292591 
L 161.493219 157.818688 
L 161.3846 158.015974 
L 161.177418 158.644724 
L 160.769089 158.856446 
L 160.445242 158.710486 
L 160.12944 158.485933 
L 159.751283 158.450646 
L 159.103588 160.210183 
L 158.823994 160.725053 
L 158.345263 161.08915 
L 157.319411 161.0282 
L 156.770279 161.220675 
L 156.766256 161.223883 
L 156.764244 161.223883 
L 156.587235 161.273605 
L 156.404191 161.288041 
L 156.223158 161.272001 
L 156.052183 161.220675 
L 155.901322 161.10519 
L 155.740404 161.069903 
L 155.577475 161.110002 
L 155.416557 161.223883 
L 155.289834 162.489403 
L 155.163111 163.055598 
L 154.887539 163.387617 
L 154.463046 163.813953 
L 154.306223 163.971456 
L 153.640425 163.932962 
L 151.838145 162.815005 
L 151.675216 162.765283 
L 151.500217 162.802174 
L 151.226657 162.986628 
L 151.105968 163.034747 
L 150.757983 162.985024 
L 150.446205 163.004272 
L 150.128392 163.121361 
L 149.878969 163.373181 
L 149.448514 164.053258 
L 149.231275 164.266584 
L 148.977829 164.295455 
L 147.937897 164.102981 
L 146.48159 164.213653 
L 145.697115 164.449435 
L 145.15804 164.920997 
L 145.013214 165.049314 
L 144.944824 165.203293 
L 144.904595 165.360481 
L 144.852296 165.500025 
L 144.856319 165.564183 
L 144.882468 165.66844 
L 144.894537 165.790341 
L 144.852296 165.904221 
L 144.773849 165.947528 
L 144.598851 165.941112 
L 144.528449 165.982815 
L 144.297129 166.194537 
L 143.725871 166.521744 
L 143.516678 166.733466 
L 142.913235 167.85463 
L 142.691973 168.092015 
L 142.474734 168.247599 
L 142.315828 168.489796 
L 142.263529 168.98221 
L 141.879338 169.485851 
L 141.774741 169.777771 
L 141.714397 170.329531 
L 141.77273 170.71448 
L 141.885372 171.046499 
L 141.885372 171.322379 
L 141.613823 171.524477 
L 141.28193 171.481171 
L 141.084806 171.166796 
L 140.851475 170.311888 
L 140.83136 170.151492 
L 140.797165 169.970246 
L 140.716706 169.768147 
L 140.632224 169.651059 
L 140.292285 169.299793 
L 140.241998 169.227615 
L 140.221883 169.158645 
L 140.239987 169.096091 
L 140.292285 169.036744 
L 140.316423 169.014289 
L 140.342572 168.996645 
L 140.368721 168.987022 
L 140.398893 168.98221 
L 140.485387 168.807379 
L 140.495444 168.664627 
L 140.431077 168.55235 
L 140.292285 168.473756 
L 139.733095 168.459321 
L 139.449477 168.369499 
L 139.232238 168.173817 
L 139.155802 167.93162 
L 139.161837 167.399107 
L 139.047183 167.111999 
L 138.673049 166.840931 
L 137.739422 166.770479 
L 137.248925 166.733466 
L 137.697484 167.211444 
L 137.854379 167.487324 
L 137.926792 167.930016 
L 137.890585 168.327796 
L 137.759839 168.472152 
L 137.558692 168.606884 
L 137.315304 168.98221 
L 137.516451 169.351119 
L 138.477936 169.965434 
L 138.954655 170.501155 
L 139.173906 170.847609 
L 139.322755 171.216518 
L 139.379076 171.683269 
L 139.242296 172.389009 
L 139.254365 172.854156 
L 139.423328 173.324114 
L 139.6989 173.582351 
L 140.010679 173.766806 
L 140.292285 174.017022 
L 140.465272 174.323378 
L 140.505501 174.640961 
L 140.509524 174.923257 
L 140.57188 175.120543 
L 143.516678 176.740537 
L 143.536792 176.740537 
L 143.83449 177.04208 
L 144.550575 177.11907 
L 144.878445 177.439861 
L 144.928732 177.89378 
L 144.793963 178.312412 
L 144.771837 178.649243 
L 145.568381 179.130429 
L 145.845964 179.241102 
L 145.966653 179.465655 
L 145.906309 180.068742 
L 145.749414 180.543513 
L 145.300855 181.39842 
L 145.15804 181.878003 
L 144.767814 181.754498 
L 144.649137 182.192378 
L 144.63908 182.843583 
L 144.576724 183.353641 
L 144.266957 183.677639 
L 143.462368 184.030509 
L 143.23306 184.49726 
L 143.329611 184.824467 
L 143.530758 185.222247 
L 143.933053 185.820522 
L 144.212648 186.081967 
L 144.510346 186.292085 
L 145.15804 186.612876 
L 145.427578 186.758836 
L 145.588496 187.087646 
L 145.602576 187.499863 
L 145.437635 187.88 
L 145.487922 187.921703 
L 145.642805 188.000296 
L 145.550278 188.244097 
L 145.536197 188.319483 
L 145.735333 188.5697 
L 146.199984 188.834353 
L 146.405154 189.06853 
L 146.541934 189.40536 
L 146.632451 190.093457 
L 146.710898 190.457554 
L 146.835609 190.829672 
L 146.958309 191.107156 
L 147.111181 191.339729 
L 147.322386 191.569095 
L 147.541637 191.638065 
L 147.746807 191.60759 
L 147.891633 191.72949 
L 147.917782 192.252379 
L 147.974104 193.27089 
L 148.070654 193.774532 
L 148.291917 194.223639 
L 148.672085 194.55245 
L 149.569202 194.991933 
L 149.96144 195.413773 
L 150.599077 196.900639 
L 150.906833 197.232657 
L 151.293036 197.378617 
L 152.439576 197.553448 
L 152.803652 197.502122 
L 152.717159 197.102737 
L 152.984685 197.01452 
L 153.72893 197.227846 
L 154.058812 197.4123 
L 154.340418 197.649686 
L 154.887539 198.254376 
L 155.225467 198.400336 
L 155.334086 198.653761 
L 155.360236 198.953701 
L 155.44874 199.242412 
L 156.070286 200.015518 
L 156.074309 200.018726 
L 156.315686 200.161478 
L 158.138081 202.748656 
L 158.393538 203.359763 
L 158.703305 203.881048 
L 159.254449 204.217879 
L 160.431161 204.275621 
L 160.821387 204.432809 
L 161.058741 204.647738 
L 161.650114 205.476983 
L 162.47683 206.359158 
L 162.694069 206.89969 
L 162.706138 207.770638 
L 162.985733 208.247012 
L 163.544923 208.797168 
L 164.160434 209.260711 
L 164.615027 209.490077 
L 164.816174 208.949544 
L 165.00123 208.607902 
L 165.270767 208.477981 
L 165.396215 208.505918 
L 165.717314 208.577427 
L 166.059265 208.797168 
L 166.389147 209.074652 
L 166.72104 209.267127 
L 167.075059 209.225424 
L 167.123335 209.812471 
L 167.330517 210.377063 
L 167.634249 210.861458 
L 167.966142 211.209516 
L 168.334242 211.392366 
L 169.059378 211.512663 
L 169.332939 211.673058 
L 169.78552 212.415689 
L 170.724879 214.388553 
L 171.105047 214.803977 
" clip-path="url(#pada599806d)" style="fill: #f5f5f5; stroke: #000000"/>
    <path d="M 178.77954 54.272308 
L 178.448938 55.109472 
L 178.28802 55.213729 
L 178.102965 55.265055 
L 178.442904 55.659628 
L 178.599823 56.14409 
L 176.392697 56.383971 
L 175.958726 56.323349 
L 175.632455 56.106121 
L 175.179477 56.58857 
L 174.61088 56.901783 
L 173.494274 57.183422 
L 172.263632 57.202367 
L 171.579414 57.009134 
L 171.223051 56.548155 
L 171.474881 56.459748 
L 171.87876 56.168005 
L 172.505959 56.039184 
L 173.180674 55.671664 
L 173.361232 55.487272 
L 173.503777 54.590573 
L 172.781547 53.299832 
L 172.83223 52.50417 
L 173.812625 52.561003 
L 174.159486 52.696139 
L 174.026444 52.925997 
L 174.073959 53.099022 
L 173.918743 53.705241 
L 173.893401 54.197794 
L 174.197498 53.686297 
L 174.447744 53.560001 
L 175.233328 53.561264 
L 175.131962 53.635778 
L 175.05277 53.716608 
L 175.000504 53.830274 
L 174.970411 54.004562 
L 175.632455 54.197794 
L 175.475655 53.794911 
L 175.724318 53.032085 
L 175.689473 52.204849 
L 175.420221 51.6883 
L 174.970411 51.865114 
L 174.812027 51.359931 
L 174.599793 50.943156 
L 174.335292 50.613524 
L 174.026444 50.382403 
L 173.641571 50.295259 
L 173.253531 50.374825 
L 173.053967 50.612261 
L 173.228189 50.999989 
L 173.228189 51.23111 
L 173.061886 51.318254 
L 172.88608 51.50896 
L 172.743535 51.750185 
L 172.686517 51.981306 
L 172.567729 52.046979 
L 171.888263 52.289467 
L 171.929442 51.872691 
L 172.075156 51.615048 
L 172.230372 51.43192 
L 172.284222 51.23111 
L 172.182857 50.852223 
L 172.037143 50.810545 
L 171.869257 50.924211 
L 171.246808 51.185643 
L 170.960134 51.545586 
L 170.68613 51.79944 
L 170.294922 51.655463 
L 170.450138 51.054296 
L 170.97914 50.031301 
L 171.090009 49.219221 
L 170.918954 48.741823 
L 170.123868 47.957527 
L 169.883124 47.608951 
L 170.063682 47.25785 
L 170.363027 46.961055 
L 170.724142 46.828445 
L 171.090009 46.972422 
L 171.261063 47.273005 
L 171.657022 48.287159 
L 171.888263 48.688779 
L 172.404594 49.182595 
L 173.687502 49.886061 
L 174.422403 50.151282 
L 175.014758 50.499858 
L 178.435848 54.034872 
L 178.768454 54.267256 
L 178.77954 54.272308 
" clip-path="url(#pada599806d)" style="fill: #f5f5f5; stroke: #000000"/>
    <path d="M 34.526773 64.639915 
L 34.089633 64.700537 
L 33.413335 64.980914 
L 33.053803 65.064269 
L 33.053803 65.254975 
L 33.270789 65.335804 
L 33.438676 65.44947 
L 33.581221 65.633862 
L 33.717431 65.929394 
L 33.543209 65.833409 
L 33.291379 65.547981 
L 33.125076 65.487359 
L 32.92868 65.520196 
L 32.640422 65.664173 
L 32.521634 65.699536 
L 32.171606 65.534088 
L 31.903937 65.170357 
L 31.829497 64.805363 
L 32.055986 64.639915 
L 33.538458 64.207984 
L 34.265439 64.15494 
L 34.526773 64.639915 
" clip-path="url(#pada599806d)" style="fill: #f5f5f5; stroke: #000000"/>
    <path d="M 35.999742 62.519412 
L 36.720388 62.18094 
L 39.371732 61.855097 
L 40.119303 62.077377 
L 35.999742 62.519412 
" clip-path="url(#pada599806d)" style="fill: #f5f5f5; stroke: #000000"/>
    <path d="M 41.047432 61.423166 
L 41.939133 60.926824 
L 42.989217 60.760114 
L 45.193919 60.805581 
L 45.203422 60.953346 
L 45.171746 60.988709 
L 45.117895 60.987446 
L 44.21194 61.332233 
L 41.8346 61.630291 
L 41.047432 61.423166 
" clip-path="url(#pada599806d)" style="fill: #f5f5f5; stroke: #000000"/>
    <path d="M 45.589879 60.805581 
L 45.911398 60.592141 
L 46.308941 60.534045 
L 46.681143 60.612348 
L 46.932973 60.805581 
L 46.871203 60.926824 
L 46.806266 60.97608 
L 46.654218 61.017757 
L 45.874969 60.789162 
L 45.589879 60.805581 
" clip-path="url(#pada599806d)" style="fill: #f5f5f5; stroke: #000000"/>
    <path d="M 60.256216 61.017757 
L 60.500127 60.6174 
L 60.883415 60.458268 
L 61.320554 60.525204 
L 61.732352 60.805581 
L 61.453597 60.805581 
L 61.260369 60.880095 
L 60.949936 61.165523 
L 60.854906 61.229934 
L 60.687019 61.188256 
L 60.579318 61.116268 
L 60.462114 61.101112 
L 60.256216 61.229934 
L 60.256216 61.017757 
" clip-path="url(#pada599806d)" style="fill: #f5f5f5; stroke: #000000"/>
    <path d="M 48.526314 59.74596 
L 50.2622 59.730805 
L 50.653408 59.958137 
L 50.662911 60.093273 
L 50.634402 60.123584 
L 50.586887 60.122321 
L 50.53462 60.150106 
L 49.115501 60.108429 
L 48.458209 60.261246 
L 48.405942 60.805581 
L 47.835761 60.832103 
L 47.661538 60.684337 
L 47.595017 60.266298 
L 47.693215 59.910145 
L 47.933958 59.767431 
L 48.526314 59.74596 
" clip-path="url(#pada599806d)" style="fill: #f5f5f5; stroke: #000000"/>
    <path d="M 51.31862 59.74596 
L 51.812777 59.159949 
L 52.630037 58.986924 
L 54.275645 59.093012 
L 54.275645 59.303926 
L 53.998473 59.303926 
L 53.562918 59.564095 
L 53.018077 59.782586 
L 52.458983 59.81416 
L 51.982248 59.516102 
L 51.804858 59.756064 
L 51.633803 59.879834 
L 51.469084 59.877308 
L 51.31862 59.74596 
" clip-path="url(#pada599806d)" style="fill: #f5f5f5; stroke: #000000"/>
    <path d="M 55.461939 59.303926 
L 55.086569 59.048808 
L 55.172097 58.851787 
L 55.518957 58.729281 
L 55.926003 58.685077 
L 56.245939 58.714125 
L 56.535781 58.801269 
L 57.053696 59.10059 
L 56.868387 59.06649 
L 56.65932 59.093012 
L 55.840476 58.912409 
L 55.490448 58.930091 
L 55.461939 59.303926 
" clip-path="url(#pada599806d)" style="fill: #f5f5f5; stroke: #000000"/>
    <path d="M 123.616058 52.925997 
L 123.902733 52.220004 
L 124.60754 51.650411 
L 125.413714 51.401609 
L 125.994982 51.655463 
L 125.418465 53.272047 
L 125.212566 53.561264 
L 124.971823 53.568842 
L 124.955985 53.352876 
L 125.090611 52.811068 
L 125.005084 52.451125 
L 124.843532 52.447337 
L 124.737415 52.711294 
L 124.824526 53.138174 
L 124.539435 53.364243 
L 124.227419 53.349087 
L 123.913819 53.17101 
L 123.616058 52.925997 
" clip-path="url(#pada599806d)" style="fill: #f5f5f5; stroke: #000000"/>
    <path d="M 126.590505 50.031301 
L 126.592089 49.95805 
L 126.696622 49.728192 
L 128.019127 49.129551 
L 128.291547 48.882011 
L 127.962109 49.318994 
L 127.062489 50.094449 
L 126.805907 50.59458 
L 126.696622 50.59458 
L 126.590505 50.031301 
" clip-path="url(#pada599806d)" style="fill: #f5f5f5; stroke: #000000"/>
    <path d="M 76.66319 36.108473 
L 76.572911 36.146361 
L 76.530148 36.23982 
L 76.520645 36.378745 
L 76.541235 36.550507 
L 76.183287 36.871298 
L 75.936209 37.253974 
L 75.654285 37.603813 
L 75.199724 37.822304 
L 74.353955 37.882926 
L 73.953244 37.74779 
L 73.737842 37.397951 
L 73.950076 37.291862 
L 73.984921 37.116312 
L 73.896226 36.928131 
L 73.737842 36.782891 
L 74.353955 36.230979 
L 75.038173 35.939236 
L 75.807918 35.897559 
L 76.66319 36.108473 
" clip-path="url(#pada599806d)" style="fill: #f5f5f5; stroke: #000000"/>
    <path d="M 121.279897 37.504039 
L 122.420261 39.518454 
L 119.973231 39.134516 
L 119.616868 39.323959 
L 119.703979 39.450255 
L 119.789506 39.505825 
L 119.00709 39.553817 
L 118.497095 39.474251 
L 118.276941 39.217871 
L 118.314953 38.586393 
L 118.224675 38.343905 
L 117.945919 38.246657 
L 117.435923 38.231502 
L 117.226857 38.293387 
L 117.081144 38.477778 
L 116.937015 38.477778 
L 116.872077 38.250446 
L 116.805556 38.121625 
L 116.701023 38.116573 
L 116.469782 38.250446 
L 116.415932 37.822304 
L 116.960772 36.568189 
L 117.724182 35.874826 
L 118.664981 35.72706 
L 120.324843 36.393901 
L 120.822168 36.791732 
L 120.975801 36.981175 
L 121.279897 37.504039 
" clip-path="url(#pada599806d)" style="fill: #f5f5f5; stroke: #000000"/>
    <path d="M 158.02018 33.797263 
L 157.543445 34.160994 
L 157.430992 34.668703 
L 157.411986 35.26987 
L 157.225093 35.913977 
L 157.082548 36.087002 
L 156.80696 36.310546 
L 156.689756 36.550507 
L 156.620067 36.853617 
L 156.583639 37.164304 
L 156.556714 37.822304 
L 156.423672 37.822304 
L 156.423672 37.397951 
L 156.479106 36.684381 
L 157.088883 34.645969 
L 157.220342 33.860411 
L 157.362887 33.643182 
L 157.681239 33.564879 
L 157.950491 33.552249 
L 158.169061 33.586349 
L 158.289432 33.768215 
L 158.286265 34.113002 
L 158.275178 34.078902 
L 158.219744 34.014491 
L 158.142135 34.006913 
L 158.142135 34.431267 
L 158.02018 34.431267 
L 158.02018 33.797263 
" clip-path="url(#pada599806d)" style="fill: #f5f5f5; stroke: #000000"/>
    <path d="M 168.818785 40.192873 
L 169.3367 41.076942 
L 169.669306 41.483614 
L 170.146041 41.656639 
L 169.886292 41.830927 
L 169.632878 42.125196 
L 169.43965 42.528079 
L 169.363625 43.034524 
L 169.363625 43.527077 
L 169.30344 43.721572 
L 169.100708 43.702628 
L 168.67624 43.56244 
L 168.904313 43.56244 
L 169.08487 43.467718 
L 169.164062 43.25933 
L 169.08487 42.928436 
L 168.951828 42.928436 
L 168.752264 43.130509 
L 168.452919 43.236597 
L 168.139319 43.240386 
L 167.901743 43.138087 
L 167.901743 42.928436 
L 168.623973 42.637956 
L 168.923319 42.415676 
L 169.08487 42.062048 
L 168.072798 42.126459 
L 167.621404 42.259069 
L 167.236531 42.504083 
L 168.310373 41.799353 
L 168.67624 41.656639 
L 168.67624 41.444462 
L 168.153573 41.397733 
L 167.881153 41.422992 
L 167.691093 41.550551 
L 167.428176 41.837242 
L 167.263457 41.766516 
L 167.112992 41.561917 
L 166.892839 41.444462 
L 164.954221 41.656639 
L 164.605777 41.862501 
L 163.576283 42.711207 
L 163.359297 43.034524 
L 163.132808 43.509396 
L 162.656073 43.602854 
L 162.228437 43.812505 
L 162.152413 44.642267 
L 162.418497 44.430091 
L 162.423249 44.272221 
L 162.382069 44.231807 
L 162.328218 44.229281 
L 162.296542 44.19897 
L 163.226254 44.047415 
L 163.359297 44.104248 
L 163.501842 44.812767 
L 163.462246 45.138609 
L 163.154982 45.278797 
L 162.599055 45.196705 
L 161.982942 44.992106 
L 161.292389 44.567753 
L 161.447605 44.403569 
L 161.552138 44.037311 
L 161.753285 43.56244 
L 161.468195 43.721572 
L 161.339904 43.845342 
L 161.221116 44.007 
L 161.298724 44.092881 
L 161.354158 44.19897 
L 160.964534 44.16487 
L 160.760219 44.204022 
L 160.617674 44.315162 
L 160.443452 44.401043 
L 160.250223 44.278536 
L 160.07125 44.097933 
L 159.94771 44.007 
L 159.66262 43.956482 
L 159.318927 43.801139 
L 159.106693 43.534655 
L 159.215977 43.138087 
L 158.932471 43.05852 
L 158.336948 43.331319 
L 158.142135 43.352789 
L 158.009093 43.112827 
L 158.127881 42.903177 
L 158.38763 42.812244 
L 158.683808 42.928436 
L 158.683808 42.733941 
L 157.476924 41.868816 
L 157.744592 41.201975 
L 158.127881 40.652589 
L 158.622038 40.444201 
L 159.215977 40.807932 
L 159.34902 40.595756 
L 159.575509 40.800355 
L 159.844761 40.754888 
L 160.422862 40.384842 
L 160.117181 40.353268 
L 159.885941 40.14488 
L 159.790911 39.841771 
L 159.881189 39.518454 
L 159.881189 39.323959 
L 159.615105 39.299963 
L 159.470975 39.149671 
L 159.347436 38.981698 
L 159.149456 38.902132 
L 158.284681 39.114308 
L 158.622038 38.467675 
L 158.767751 38.300964 
L 159.293585 38.179721 
L 159.881189 37.890504 
L 160.280316 37.822304 
L 160.280316 37.610127 
L 160.304074 37.603813 
L 160.422862 37.541928 
L 160.544817 37.397951 
L 160.004729 37.204719 
L 159.768737 37.058216 
L 159.615105 36.782891 
L 159.681626 36.70964 
L 159.743395 36.656596 
L 159.776656 36.556822 
L 159.759234 36.338331 
L 159.185885 36.549244 
L 158.83744 36.58587 
L 158.683808 36.444419 
L 158.641044 36.345908 
L 158.550766 36.321912 
L 158.460487 36.249924 
L 158.417723 36.011225 
L 158.393966 35.742215 
L 158.321109 35.580557 
L 158.194402 35.509831 
L 158.02018 35.511094 
L 158.466822 35.310284 
L 159.957213 35.105685 
L 160.280316 35.173885 
L 160.38485 35.35954 
L 160.611338 35.444158 
L 160.839411 35.60329 
L 160.943944 36.011225 
L 161.026304 36.232242 
L 161.175185 36.11605 
L 161.248041 35.762423 
L 161.088074 35.279973 
L 161.368413 34.920031 
L 161.723192 34.575244 
L 162.090643 34.315075 
L 162.418497 34.200146 
L 162.201511 34.832887 
L 162.055798 35.105685 
L 161.886328 35.279973 
L 162.009867 35.276184 
L 162.115984 35.295129 
L 162.209431 35.367117 
L 162.296542 35.511094 
L 162.198344 35.65886 
L 162.01937 36.108473 
L 162.299709 36.124891 
L 162.524614 36.049114 
L 162.698836 35.853355 
L 162.81604 35.511094 
L 162.651321 35.465628 
L 162.466012 35.32544 
L 162.296542 35.279973 
L 162.296542 35.067797 
L 162.561043 34.836676 
L 162.778028 35.252188 
L 163.121721 35.656334 
L 163.351378 36.080688 
L 163.226254 36.550507 
L 163.611127 37.068319 
L 164.095781 37.231241 
L 165.098351 37.207244 
L 164.954221 36.97486 
L 165.141114 36.5644 
L 165.236144 36.435578 
L 165.364435 36.338331 
L 165.364435 36.108473 
L 165.212387 35.677804 
L 165.10627 35.456787 
L 164.954221 35.279973 
L 164.954221 35.067797 
L 165.068258 34.989493 
L 165.131611 34.92382 
L 165.210803 34.870776 
L 165.364435 34.836676 
L 165.364435 34.645969 
L 165.122108 34.658599 
L 164.965308 34.792472 
L 164.841769 34.957919 
L 164.699223 35.067797 
L 164.488573 35.101896 
L 163.820194 35.067797 
L 163.71566 34.969286 
L 163.611127 34.749532 
L 163.478085 34.529777 
L 163.292776 34.431267 
L 162.999766 34.373171 
L 162.879394 34.21909 
L 162.812873 34.017017 
L 162.682998 33.797263 
L 162.456509 33.487838 
L 162.413746 33.362806 
L 162.152413 33.564879 
L 162.000364 33.713908 
L 161.686764 34.116791 
L 161.230619 34.373171 
L 160.899597 34.707854 
L 160.547985 34.951605 
L 160.158361 34.836676 
L 160.090256 34.469155 
L 160.22805 33.897036 
L 160.481464 33.372909 
L 160.755468 33.140526 
L 160.81407 33.009178 
L 160.898013 32.716172 
L 160.940777 32.426955 
L 160.883759 32.294345 
L 160.014232 32.503996 
L 159.729141 32.688387 
L 159.604018 32.654287 
L 159.615105 32.294345 
L 159.724389 32.084694 
L 159.930288 31.877569 
L 160.164696 31.720963 
L 162.835047 31.002341 
L 163.378303 30.994763 
L 163.891466 31.253669 
L 163.891466 31.445638 
L 163.592121 31.667919 
L 163.189826 31.882621 
L 162.83663 32.170575 
L 162.682998 32.610084 
L 162.7416 33.160733 
L 162.907903 33.601505 
L 163.164485 33.943766 
L 163.492339 34.200146 
L 164.304848 34.456526 
L 166.827901 34.006913 
L 167.694261 34.183727 
L 168.281864 34.78742 
L 168.410155 35.586872 
L 167.901743 36.338331 
L 167.038552 36.875087 
L 166.610916 37.261552 
L 166.428774 37.716216 
L 166.500047 38.237817 
L 166.671101 38.780888 
L 166.889671 39.24313 
L 167.092402 39.518454 
L 167.491529 39.712949 
L 168.413323 39.921337 
L 168.818785 40.192873 
" clip-path="url(#pada599806d)" style="fill: #f5f5f5; stroke: #000000"/>
    <path d="M 64.386864 30.828053 
L 65.359341 32.524203 
L 65.729959 32.716172 
L 65.463874 32.928349 
L 64.80183 33.150629 
L 64.345684 32.764165 
L 63.978234 32.145316 
L 63.591778 31.657815 
L 64.155624 30.675235 
L 64.504068 30.320344 
L 64.931704 30.175104 
L 64.93804 30.324133 
L 64.907947 30.358233 
L 64.852513 30.350655 
L 64.798662 30.387281 
L 64.58326 30.59188 
L 64.386864 30.828053 
" clip-path="url(#pada599806d)" style="fill: #f5f5f5; stroke: #000000"/>
    <path d="M 67.602055 28.884363 
L 68.6854 28.944985 
L 69.12729 29.19505 
L 69.474151 29.750751 
L 69.474151 29.962928 
L 69.312599 30.212993 
L 69.090862 30.809108 
L 68.929311 31.021285 
L 68.663226 31.100851 
L 68.333788 31.064226 
L 68.036026 30.958137 
L 67.868139 30.828053 
L 67.361311 31.00613 
L 66.730944 30.82679 
L 65.596916 30.175104 
L 65.980205 29.524682 
L 66.418928 29.13064 
L 66.951097 28.934882 
L 67.602055 28.884363 
" clip-path="url(#pada599806d)" style="fill: #f5f5f5; stroke: #000000"/>
    <path d="M 64.931704 22.932051 
L 64.817668 24.032086 
L 65.476545 24.606731 
L 66.414176 24.822696 
L 70.655694 24.625675 
L 70.167872 24.981829 
L 67.735097 24.856796 
L 67.431 25.008351 
L 66.894079 25.396078 
L 66.599485 25.474382 
L 65.257975 25.474382 
L 65.131268 25.41376 
L 64.963381 25.143487 
L 64.798662 25.068973 
L 64.611769 25.07655 
L 64.485062 25.12328 
L 63.895875 25.502167 
L 63.796093 25.588048 
L 63.743826 25.81538 
L 63.715317 26.426651 
L 63.658299 26.552946 
L 63.72482 28.247833 
L 63.674137 28.801008 
L 63.575939 29.22915 
L 63.453984 29.320083 
L 63.325693 28.884363 
L 63.309855 28.065968 
L 63.53476 24.697664 
L 63.718485 24.0384 
L 65.191454 20.238165 
L 66.010298 19.296 
L 66.936843 19.750664 
L 65.748965 19.810023 
L 65.596916 19.962841 
L 66.135421 20.014622 
L 66.295389 20.392246 
L 66.12275 20.819125 
L 65.330831 21.228323 
L 64.963381 21.733505 
L 64.76065 22.356143 
L 64.931704 22.932051 
" clip-path="url(#pada599806d)" style="fill: #f5f5f5; stroke: #000000"/>
    <path d="M 70.267654 35.519935 
L 71.520469 35.024856 
L 71.560065 35.360803 
L 71.403265 36.121102 
L 70.953455 36.784154 
L 70.399112 37.079686 
L 69.961973 37.072108 
L 69.714894 36.867509 
L 69.515331 36.41916 
L 69.635702 35.919029 
L 69.987314 35.666438 
L 70.12986 35.60329 
L 70.267654 35.519935 
" clip-path="url(#pada599806d)" style="fill: #f5f5f5; stroke: #000000"/>
    <path d="M 56.05271 46.762771 
L 55.956096 46.832233 
L 55.927587 46.703412 
L 55.846811 46.679416 
L 55.785042 46.540491 
L 55.697931 46.444506 
L 55.580727 46.343469 
L 55.865818 46.320736 
L 55.984605 46.444506 
L 56.05271 46.762771 
" clip-path="url(#pada599806d)" style="fill: #f5f5f5; stroke: #000000"/>
    <path d="M 56.212678 46.393988 
L 56.553203 46.300529 
L 56.622892 46.468502 
L 56.315627 46.558172 
L 56.212678 46.393988 
" clip-path="url(#pada599806d)" style="fill: #f5f5f5; stroke: #000000"/>
   </g>
  </g>
 </g>
 <defs>
  <clipPath id="pada599806d">
   <rect x="7.2" y="7.2" width="196.305969" height="266.112"/>
  </clipPath>
 </defs>
</svg>
