<?xml version="1.0" encoding="utf-8" standalone="no"?>
<!DOCTYPE svg PUBLIC "-//W3C//DTD SVG 1.1//EN"
  "http://www.w3.org/Graphics/SVG/1.1/DTD/svg11.dtd">
<svg xmlns:xlink="http://www.w3.org/1999/xlink" width="196.936236pt" height="280.512pt" viewBox="0 0 196.936236 280.512" xmlns="http://www.w3.org/2000/svg" version="1.1">
 <metadata>
  <rdf:RDF xmlns:dc="http://purl.org/dc/elements/1.1/" xmlns:cc="http://creativecommons.org/ns#" xmlns:rdf="http://www.w3.org/1999/02/22-rdf-syntax-ns#">
   <cc:Work>
    <dc:type rdf:resource="http://purl.org/dc/dcmitype/StillImage"/>
    <dc:date>2024-03-04T13:11:10.710413</dc:date>
    <dc:format>image/svg+xml</dc:format>
    <dc:creator>
     <cc:Agent>
      <dc:title>Matplotlib v3.8.0, https://matplotlib.org/</dc:title>
     </cc:Agent>
    </dc:creator>
   </cc:Work>
  </rdf:RDF>
 </metadata>
 <defs>
  <style type="text/css">*{stroke-linejoin: round; stroke-linecap: butt}</style>
 </defs>
 <g id="figure_1">
  <g id="patch_1">
   <path d="M 0 280.512 
L 196.936236 280.512 
L 196.936236 0 
L 0 0 
z
" style="fill: #ffffff"/>
  </g>
  <g id="axes_1">
   <g id="PatchCollection_1">
    <defs>
     <path id="mfb3900a270" d="M 130.950536 -260.163472 
L 131.227999 -259.540904 
L 131.846509 -258.971839 
L 132.604715 -258.552578 
L 133.290665 -258.377481 
L 133.973724 -258.44752 
L 135.239648 -258.781177 
L 135.941013 -258.792851 
L 137.185742 -258.319116 
L 137.748375 -257.437794 
L 137.867838 -256.272425 
L 137.761863 -254.938769 
L 137.673229 -254.466979 
L 137.412144 -254.208225 
L 137.085547 -254.001026 
L 136.786889 -253.68877 
L 136.605767 -253.334685 
L 135.798428 -249.552587 
L 135.82733 -249.187801 
L 136.018086 -248.44753 
L 135.94872 -248.047725 
L 135.62694 -247.741305 
L 134.865844 -247.226714 
L 134.339821 -246.560372 
L 134.056578 -245.903758 
L 133.858115 -244.32983 
L 133.730035 -243.796808 
L 133.501652 -242.846368 
L 133.477567 -242.061349 
L 133.858115 -241.28314 
L 134.185675 -241.010767 
L 134.595125 -240.815241 
L 135.039259 -240.700456 
L 135.900549 -240.589561 
L 136.166451 -240.412518 
L 136.399597 -240.185865 
L 136.736792 -239.957266 
L 137.902521 -239.572052 
L 138.241642 -239.364854 
L 138.536446 -239.012714 
L 138.971909 -238.176139 
L 139.279237 -237.805517 
L 141.252306 -236.568164 
L 141.842878 -235.941705 
L 143.742728 -232.405716 
L 143.85063 -232.273421 
L 144.1358 -232.302604 
L 144.2938 -232.524393 
L 144.393995 -232.770502 
L 144.492263 -232.879451 
L 145.481687 -232.49132 
L 145.840077 -232.440736 
L 146.263015 -232.550658 
L 146.612734 -232.721864 
L 146.950891 -232.828868 
L 147.332403 -232.741319 
L 147.700426 -232.372643 
L 147.716804 -231.957273 
L 147.592524 -231.558441 
L 147.5405 -231.236457 
L 147.958621 -230.553578 
L 148.59351 -229.980622 
L 148.985619 -229.380428 
L 148.658059 -228.618755 
L 149.178301 -228.624592 
L 150.813212 -228.896965 
L 151.170638 -228.725759 
L 151.931734 -228.096382 
L 151.016492 -227.415449 
L 150.839225 -226.838601 
L 150.732286 -226.220898 
L 150.46253 -225.716034 
L 150.524189 -224.448526 
L 150.328616 -221.782186 
L 150.693749 -220.809424 
L 151.166785 -220.50495 
L 151.577199 -220.405728 
L 151.877783 -220.157674 
L 151.989539 -219.396001 
L 151.856221 -218.772188 
L 151.83154 -218.656702 
L 151.415345 -218.547753 
L 150.839225 -218.643084 
L 150.186031 -218.51857 
L 150.407616 -218.147948 
L 150.385457 -217.908649 
L 150.25925 -217.675186 
L 150.186031 -217.326937 
L 150.247689 -217.074019 
L 150.693749 -216.182969 
L 150.947127 -215.438807 
L 150.924005 -215.130441 
L 150.663883 -214.898924 
L 150.186031 -214.382388 
L 149.885446 -213.811376 
L 149.809337 -213.286085 
L 149.977934 -211.777332 
L 149.966373 -211.349317 
L 149.16674 -208.423249 
L 149.220691 -207.722861 
L 149.416264 -207.317219 
L 149.68313 -207.023445 
L 149.93169 -206.648932 
L 150.105104 -206.095431 
L 150.189885 -205.410606 
L 150.085836 -204.752047 
L 149.696617 -204.288039 
L 149.028009 -204.204382 
L 148.401791 -204.551658 
L 147.408512 -205.596404 
L 146.874782 -204.526366 
L 146.901757 -203.426172 
L 147.496183 -202.637263 
L 148.658059 -202.512749 
L 150.170616 -202.897963 
L 150.90859 -202.75594 
L 151.228443 -201.975785 
L 150.970249 -201.457303 
L 150.366189 -201.286097 
L 149.678312 -201.402828 
L 149.16674 -201.739404 
L 148.500059 -201.303606 
L 147.604085 -201.251077 
L 145.727358 -201.461194 
L 145.635833 -201.219949 
L 145.461456 -200.159639 
L 145.47398 -199.919366 
L 145.567431 -199.81139 
L 145.840077 -199.573063 
L 146.209064 -199.313336 
L 146.596356 -199.146021 
L 147.547244 -199.325009 
L 148.074231 -199.297772 
L 148.401791 -198.890185 
L 148.259206 -198.500107 
L 147.782317 -198.171314 
L 147.201379 -197.94466 
L 145.647394 -197.629485 
L 145.643541 -197.093494 
L 145.905589 -196.492327 
L 145.60115 -196.062366 
L 145.770711 -195.558476 
L 146.461478 -195.4826 
L 147.155135 -195.621705 
L 148.860375 -196.218008 
L 149.143618 -196.457308 
L 149.290057 -196.777346 
L 149.40374 -197.539019 
L 149.589678 -197.836684 
L 150.155202 -198.083765 
L 150.993371 -198.23357 
L 152.493404 -198.317228 
L 153.193805 -198.202442 
L 155.172654 -197.480653 
L 155.411581 -197.146023 
L 155.477093 -196.775401 
L 155.392312 -196.389214 
L 155.145679 -195.968008 
L 155.137971 -195.931043 
L 155.145679 -195.894079 
L 155.172654 -195.855168 
L 156.282506 -195.476764 
L 156.956894 -194.886297 
L 157.188113 -194.00303 
L 156.841285 -192.094471 
L 156.779626 -190.99136 
L 156.62548 -190.517625 
L 156.247823 -190.127547 
L 155.827775 -189.882411 
L 155.523336 -189.521517 
L 155.488654 -188.779299 
L 155.951092 -187.432024 
L 155.962653 -186.83183 
L 155.511775 -186.063349 
L 154.667826 -185.309458 
L 154.43179 -184.946618 
L 154.435644 -184.358097 
L 154.239107 -183.145064 
L 153.608072 -181.975804 
L 153.224634 -180.824054 
L 153.724645 -179.655767 
L 153.732353 -179.655767 
L 153.732353 -179.651876 
L 155.531044 -176.593513 
L 155.997335 -174.753048 
L 155.176905 -173.572397 
L 155.172654 -173.566279 
L 154.983825 -173.096435 
L 154.929874 -172.50986 
L 154.79885 -172.012779 
L 154.388436 -171.815308 
L 153.904803 -171.893129 
L 153.528109 -172.008888 
L 153.182244 -172.057526 
L 152.789172 -171.926203 
L 152.989561 -171.778343 
L 152.741001 -171.148966 
L 152.349855 -170.714142 
L 151.951003 -171.560444 
L 151.50976 -171.73165 
L 151.039614 -171.644102 
L 150.786237 -171.287098 
L 150.868627 -170.805551 
L 151.105126 -169.423287 
L 152.197636 -167.063367 
L 153.681292 -164.984575 
L 155.172654 -163.965121 
L 155.808507 -163.226795 
L 156.710261 -162.393138 
L 157.681381 -161.688859 
L 160.124595 -160.538081 
L 160.775862 -159.154814 
L 161.257568 -157.729718 
L 162.687272 -156.540031 
L 162.768199 -156.149953 
L 162.756638 -155.718047 
L 162.849126 -155.165519 
L 162.818296 -154.788087 
L 162.841418 -154.610072 
L 162.987857 -154.481667 
L 163.43488 -154.409683 
L 163.573612 -154.281278 
L 163.72005 -153.355209 
L 163.438734 -152.782252 
L 162.841418 -152.409685 
L 161.19591 -151.678168 
L 160.571618 -151.265717 
L 159.330743 -150.146068 
L 159.018597 -149.996263 
L 158.733427 -149.961243 
L 158.540745 -149.815329 
L 158.498354 -149.327976 
L 158.6525 -148.932062 
L 158.941524 -148.652879 
L 159.199719 -148.329922 
L 159.265231 -147.809495 
L 159.060987 -147.322141 
L 158.76811 -147.095487 
L 158.583135 -146.828951 
L 158.779671 -145.904827 
L 158.918402 -144.134401 
L 159.261377 -142.729733 
L 159.280645 -142.007944 
L 159.249816 -140.605221 
L 159.616167 -138.113799 
L 159.642889 -137.932072 
L 159.612059 -135.677211 
L 159.951181 -133.525462 
L 159.870254 -131.556592 
L 159.974302 -130.821184 
L 158.89528 -131.004063 
L 158.417428 -130.237527 
L 158.301818 -129.070213 
L 158.313379 -128.046868 
L 158.101428 -127.541032 
L 157.5966 -127.280331 
L 156.999284 -127.116907 
L 156.509871 -126.897063 
L 156.132213 -126.527414 
L 155.900994 -126.124691 
L 155.766116 -125.661656 
L 155.623531 -123.474888 
L 155.808507 -121.620804 
L 156.409676 -119.963218 
L 157.585039 -118.918472 
L 158.263282 -118.825087 
L 159.003183 -118.959328 
L 160.375082 -119.469055 
L 160.621716 -119.140261 
L 161.219031 -116.671392 
L 161.172788 -115.856218 
L 160.675667 -114.474896 
L 160.328838 -112.727816 
L 159.430938 -110.471009 
L 159.303767 -108.996302 
L 159.469474 -107.301751 
L 159.442499 -105.663621 
L 158.729573 -104.367902 
L 158.247867 -104.09942 
L 156.675578 -103.686969 
L 156.12836 -103.646113 
L 155.584995 -103.476852 
L 156.01275 -102.900978 
L 157.072504 -102.076076 
L 157.51182 -101.280357 
L 157.423186 -100.646116 
L 156.637041 -99.325105 
L 156.386554 -98.533277 
L 156.506017 -98.173356 
L 156.864407 -97.958375 
L 157.319137 -97.606236 
L 158.39816 -95.585809 
L 158.644793 -95.255071 
L 159.284499 -95.118884 
L 159.935766 -94.757989 
L 160.479131 -94.239507 
L 160.79513 -93.631531 
L 160.833666 -93.020637 
L 160.50996 -91.11986 
L 160.718057 -90.332896 
L 161.20747 -89.882508 
L 161.731567 -89.494376 
L 162.059127 -88.896127 
L 162.409809 -88.861108 
L 163.450295 -88.894182 
L 163.789416 -88.824143 
L 164.267269 -88.354299 
L 164.244147 -88.003132 
L 163.982099 -87.650019 
L 163.747026 -87.170448 
L 163.732124 -86.942531 
L 163.681514 -86.168503 
L 163.912733 -85.24438 
L 164.359756 -84.350412 
L 164.949365 -83.439907 
L 165.73551 -82.628624 
L 167.577554 -81.714228 
L 168.513991 -81.117925 
L 169.727891 -79.646136 
L 170.209597 -79.279405 
L 170.97262 -79.073179 
L 173.816614 -79.061506 
L 174.791588 -76.044 
L 175.369635 -75.211316 
L 175.666366 -74.993417 
L 175.943829 -74.877658 
L 176.225145 -74.723962 
L 176.510316 -74.394196 
L 176.999729 -73.630578 
L 177.400509 -73.162679 
L 177.913044 -72.899061 
L 180.999818 -72.544976 
L 181.439134 -71.9477 
L 181.343172 -70.624116 
L 181.321931 -70.617989 
L 181.082216 -70.529138 
L 179.392072 -69.613057 
L 178.114602 -68.611189 
L 176.221155 -66.564559 
L 175.78724 -65.905839 
L 174.867826 -64.064485 
L 174.694867 -63.327637 
L 174.640248 -62.55096 
L 174.254883 -60.792329 
L 173.930205 -60.092247 
L 172.746801 -58.975486 
L 171.238719 -58.44851 
L 164.120086 -57.633535 
L 150.750651 -58.613956 
L 149.148504 -58.528169 
L 148.259433 -58.31983 
L 147.807312 -58.139064 
L 147.619181 -57.91847 
L 147.43105 -57.811236 
L 146.529842 -57.771406 
L 146.217302 -57.661109 
L 145.510294 -57.150984 
L 143.013007 -56.470816 
L 142.442545 -56.083244 
L 141.416928 -55.119673 
L 139.966499 -54.701462 
L 139.444587 -54.146912 
L 139.031913 -53.466744 
L 138.431108 -52.849385 
L 135.465011 -51.842922 
L 135.292052 -51.738752 
L 134.805035 -51.248541 
L 134.586561 -51.073904 
L 134.258849 -50.955947 
L 133.667146 -50.90233 
L 125.665512 -48.295022 
L 123.978402 -48.080555 
L 123.74779 -47.967194 
L 123.2896 -47.743535 
L 120.549564 -45.433418 
L 120.258264 -45.009079 
L 120.062547 -44.430018 
L 119.560359 -43.906105 
L 118.223719 -43.078875 
L 115.615678 -42.430878 
L 115.169625 -42.426282 
L 114.896532 -42.155134 
L 114.292692 -41.692498 
L 113.673681 -41.49335 
L 113.364175 -42.026454 
L 111.434316 -40.666119 
L 110.957919 -40.486886 
L 108.779242 -38.686894 
L 107.893205 -37.636005 
L 107.331847 -37.280602 
L 104.55995 -36.873115 
L 103.704257 -36.911412 
L 103.158071 -37.400091 
L 102.904701 -37.076858 
L 102.552714 -36.952774 
L 101.630265 -36.888434 
L 100.732092 -36.658648 
L 100.290591 -36.67703 
L 100.100943 -37.01405 
L 99.96743 -37.354134 
L 99.670062 -37.269879 
L 99.211872 -36.888434 
L 98.597412 -36.833285 
L 98.001158 -36.672435 
L 94.111096 -34.985804 
L 93.716628 -34.434317 
L 93.382847 -34.10802 
L 92.62122 -33.657639 
L 91.146516 -32.985132 
L 90.381855 -32.825813 
L 87.954359 -32.752282 
L 87.553822 -32.63892 
L 86.690543 -32.121135 
L 86.285455 -31.957221 
L 85.907676 -31.928115 
L 85.138463 -31.975604 
L 84.759167 -31.957221 
L 84.068847 -31.732031 
L 82.717035 -31.065651 
L 80.122649 -30.693397 
L 79.280611 -30.37476 
L 78.649462 -29.918251 
L 78.62367 -29.899869 
L 78.088104 -30.148038 
L 77.431162 -30.197059 
L 76.796979 -30.03774 
L 76.335755 -29.66855 
L 76.276585 -29.363701 
L 76.536023 -28.796895 
L 76.451061 -28.499704 
L 76.217414 -28.230089 
L 76.062661 -28.089153 
L 73.509239 -26.817669 
L 73.055601 -26.469926 
L 71.979916 -25.273506 
L 71.896471 -24.997762 
L 71.963227 -24.746529 
L 71.945021 -24.568828 
L 71.615792 -24.502956 
L 71.268356 -24.475382 
L 68.707348 -23.738534 
L 65.848971 -22.448667 
L 65.252717 -21.918627 
L 64.351509 -20.625696 
L 63.791668 -20.086465 
L 63.263688 -19.871997 
L 60.693576 -19.541105 
L 60.191388 -19.33583 
L 59.194597 -19.296 
L 58.970054 -19.346553 
L 58.698478 -19.594722 
L 58.593792 -19.982295 
L 58.633239 -20.40357 
L 58.545242 -20.743653 
L 58.06126 -20.879993 
L 57.760857 -20.922886 
L 57.196464 -21.097524 
L 56.777721 -21.138886 
L 56.815651 -21.311991 
L 56.466698 -21.682713 
L 54.879723 -22.960324 
L 54.092304 -23.297344 
L 53.732731 -23.514875 
L 53.581012 -23.848831 
L 53.51729 -24.124575 
L 53.353434 -24.412573 
L 53.147097 -24.64236 
L 49.275241 -26.166608 
L 42.966785 -27.47639 
L 36.828254 -29.576636 
L 31.964158 -29.94889 
L 26.590289 -30.898673 
L 21.416687 -32.494921 
L 20.824985 -32.631261 
L 20.985807 -33.251684 
L 21.246763 -33.319088 
L 21.594198 -33.455428 
L 22.017493 -33.5213 
L 24.684704 -33.501385 
L 25.490329 -33.263939 
L 25.713356 -33.041812 
L 26.168511 -32.378496 
L 26.36878 -32.23756 
L 26.860348 -32.304964 
L 27.625009 -32.629729 
L 28.031615 -32.752282 
L 27.93148 -33.78632 
L 28.967718 -34.222914 
L 30.307392 -34.437381 
L 31.113018 -34.806571 
L 32.598638 -34.748319 
L 33.455112 -34.872833 
L 33.986915 -35.255128 
L 34.345305 -35.964272 
L 34.141061 -36.206489 
L 33.649721 -36.629641 
L 33.532185 -36.759991 
L 33.501355 -37.103376 
L 33.659355 -37.89034 
L 33.678623 -38.212324 
L 33.512916 -38.645203 
L 32.992674 -39.399093 
L 32.886698 -39.921466 
L 33.131405 -42.251231 
L 34.387695 -42.019713 
L 34.882889 -42.111153 
L 35.25284 -42.584888 
L 35.347254 -43.241502 
L 35.187328 -43.918544 
L 34.169964 -46.31932 
L 33.509063 -49.01387 
L 33.420429 -50.986631 
L 33.279771 -51.594607 
L 32.986893 -52.087797 
L 32.509041 -52.477874 
L 29.852912 -53.167562 
L 29.246926 -52.924372 
L 28.033026 -52.185073 
L 27.303723 -52.093634 
L 26.4222 -52.588769 
L 26.220847 -53.561531 
L 26.597541 -55.914641 
L 24.175522 -55.70647 
L 24.540655 -60.002186 
L 24.445277 -61.36308 
L 23.990547 -62.725919 
L 22.554099 -65.370858 
L 22.012661 -66.716188 
L 20.882578 -72.995364 
L 20.088726 -75.09653 
L 18.991399 -76.104311 
L 18.882233 -76.237236 
L 18.439364 -76.776489 
L 15.497102 -90.075114 
L 15.549126 -90.70741 
L 15.817918 -91.102351 
L 16.504831 -91.484646 
L 16.707148 -91.730755 
L 17.439341 -93.796901 
L 17.352634 -94.047873 
L 16.849733 -95.023553 
L 16.383441 -95.627638 
L 16.221588 -96.008961 
L 16.273612 -97.369854 
L 16.897903 -98.819269 
L 21.198577 -106.235605 
L 21.658118 -106.524014 
L 21.683528 -106.539962 
L 21.725564 -106.566344 
L 23.572426 -107.171401 
L 23.761255 -107.437938 
L 24.069547 -109.321205 
L 24.258375 -109.700582 
L 25.967469 -111.850385 
L 26.298883 -112.581902 
L 26.325859 -113.09552 
L 26.160152 -113.400967 
L 25.910628 -113.712251 
L 25.675555 -114.237542 
L 25.640872 -114.679176 
L 27.465576 -126.218076 
L 27.96366 -127.743366 
L 30.656398 -133.537135 
L 30.80091 -133.784216 
L 31.175678 -134.241414 
L 31.319226 -134.488496 
L 31.32886 -134.692776 
L 31.219995 -135.181102 
L 31.250824 -135.369818 
L 31.57164 -135.675265 
L 32.401138 -136.17721 
L 32.697869 -136.498221 
L 32.821186 -136.914563 
L 32.98304 -139.725845 
L 33.091905 -140.002109 
L 33.326014 -140.029346 
L 33.574575 -139.863977 
L 33.763404 -139.649969 
L 33.815428 -139.529347 
L 34.424305 -140.042965 
L 36.125691 -142.01378 
L 36.811641 -142.504052 
L 39.037124 -143.251133 
L 39.805927 -143.643156 
L 40.173951 -144.13051 
L 40.208634 -144.787124 
L 39.967781 -145.687901 
L 39.474513 -146.771558 
L 39.383953 -147.247238 
L 39.541952 -147.840623 
L 39.802074 -148.343541 
L 40.041 -148.567276 
L 40.349292 -148.547821 
L 40.823291 -148.324085 
L 41.252973 -148.278366 
L 41.761655 -148.450545 
L 43.436066 -149.441789 
L 43.692334 -150.015718 
L 41.976496 -160.560941 
L 40.260658 -171.106165 
L 40.08339 -171.696631 
L 39.746196 -171.539044 
L 39.737983 -171.552498 
L 39.557367 -171.848382 
L 39.653708 -172.327953 
L 39.929244 -172.577953 
L 40.324243 -172.797797 
L 40.364707 -173.312388 
L 39.605537 -175.938845 
L 39.559294 -176.585731 
L 39.474513 -176.909661 
L 39.266416 -176.999155 
L 39.015929 -177.03612 
L 38.794344 -177.205381 
L 38.212443 -178.971916 
L 38.173906 -179.74137 
L 37.933053 -180.346428 
L 36.990836 -180.849346 
L 36.048618 -181.061408 
L 35.092913 -181.108101 
L 34.576524 -181.193704 
L 34.283647 -181.398956 
L 34.04472 -181.647983 
L 33.68055 -181.855182 
L 34.031232 -182.387282 
L 34.185378 -182.977749 
L 34.256671 -184.861015 
L 34.412744 -185.174245 
L 35.206596 -185.991364 
L 35.855936 -187.325021 
L 36.291398 -188.007899 
L 37.474469 -188.628521 
L 37.919566 -189.344474 
L 37.969663 -190.059454 
L 37.383908 -190.383383 
L 36.732641 -190.527352 
L 36.204691 -190.915484 
L 35.911814 -191.496223 
L 35.973472 -192.206339 
L 36.35691 -192.708284 
L 36.865592 -192.944665 
L 37.308762 -193.225793 
L 37.499518 -193.866843 
L 37.499518 -194.882406 
L 37.314542 -195.513729 
L 37.266372 -195.80653 
L 37.418591 -197.008863 
L 37.378128 -197.544855 
L 36.873299 -198.184932 
L 35.528376 -199.884347 
L 34.193086 -201.103217 
L 34.000403 -201.490377 
L 33.934891 -202.103217 
L 33.992696 -202.709247 
L 34.177671 -203.325005 
L 34.497524 -203.876561 
L 34.97345 -204.288039 
L 34.852622 -204.381863 
L 34.568817 -204.602241 
L 34.449353 -204.947572 
L 34.40311 -205.291929 
L 34.214281 -205.596404 
L 33.888647 -205.759828 
L 33.68055 -205.736482 
L 33.476307 -205.771501 
L 33.171868 -206.110995 
L 32.917527 -206.892122 
L 33.056259 -207.680059 
L 33.68055 -208.93784 
L 34.969596 -210.3785 
L 35.206596 -210.761768 
L 35.10062 -211.130445 
L 34.214281 -212.559432 
L 34.052427 -213.508848 
L 34.399256 -215.21799 
L 34.443573 -216.182969 
L 34.200793 -216.860012 
L 33.354917 -218.130438 
L 33.171868 -218.893084 
L 33.171868 -222.118761 
L 32.78265 -223.819149 
L 32.799991 -224.569148 
L 33.287478 -225.343466 
L 34.042793 -225.935878 
L 34.320256 -226.26759 
L 34.443573 -226.768562 
L 34.422378 -227.252025 
L 34.295207 -227.452414 
L 34.052427 -227.565254 
L 33.68055 -227.795799 
L 33.322161 -227.93004 
L 32.996527 -227.920312 
L 32.754711 -228.009806 
L 32.66415 -228.438794 
L 32.530236 -228.69074 
L 32.21231 -228.76856 
L 31.830798 -228.811362 
L 31.505165 -228.953385 
L 31.202653 -229.567198 
L 31.202653 -230.35708 
L 31.389555 -231.124589 
L 31.643896 -231.675172 
L 31.909798 -232.025367 
L 32.196895 -232.255911 
L 32.558175 -232.384316 
L 33.040844 -232.423226 
L 33.449331 -232.583732 
L 33.790379 -232.937817 
L 33.952233 -233.29093 
L 33.807721 -233.452408 
L 32.896332 -233.475754 
L 32.289382 -233.577894 
L 31.830798 -233.811357 
L 30.52152 -234.963107 
L 30.229606 -235.438788 
L 30.115924 -236.174195 
L 30.006095 -236.351238 
L 29.50223 -236.85221 
L 29.329779 -237.073027 
L 29.229584 -237.440731 
L 29.167926 -238.244232 
L 29.077365 -238.614855 
L 27.959806 -240.595397 
L 27.801807 -241.314268 
L 27.907782 -241.686836 
L 28.407793 -242.585668 
L 28.635159 -243.203371 
L 28.740171 -243.34734 
L 28.823024 -243.513682 
L 28.822061 -243.756873 
L 28.714159 -243.924188 
L 28.542671 -244.0059 
L 28.381781 -244.036055 
L 28.308562 -244.036055 
L 28.269539 -244.204706 
L 28.181391 -244.585666 
L 28.295074 -244.811347 
L 28.693927 -245.205315 
L 28.89817 -245.562319 
L 29.033048 -246.42224 
L 29.66023 -247.441694 
L 30.071607 -249.187801 
L 30.347143 -249.971847 
L 30.848117 -250.54675 
L 31.442543 -251.001029 
L 31.944481 -251.552585 
L 32.154505 -252.414452 
L 31.930993 -253.135269 
L 31.522506 -253.802583 
L 31.298994 -254.521454 
L 31.40208 -254.788963 
L 31.350055 -255.006862 
L 34.564963 -254.948496 
L 34.580378 -254.548691 
L 35.397259 -254.556792 
L 38.896466 -254.591493 
L 46.174084 -254.665423 
L 55.193553 -254.753944 
L 63.582949 -254.837601 
L 71.741127 -254.917368 
L 77.53509 -254.973788 
L 77.970552 -255.219897 
L 78.238381 -255.880402 
L 78.887721 -256.082736 
L 83.598809 -255.936822 
L 84.063896 -255.756039 
L 84.437916 -255.610655 
L 85.675926 -255.12943 
L 86.610436 -254.958224 
L 91.35428 -254.911531 
L 95.847636 -254.86873 
L 96.177123 -255.441687 
L 97.23495 -255.60511 
L 102.375719 -255.198496 
L 102.689792 -255.135267 
L 102.973035 -254.938769 
L 103.233156 -254.430014 
L 103.423912 -254.309392 
L 103.813131 -254.324956 
L 103.56457 -253.810365 
L 104.21391 -253.900832 
L 105.048226 -254.815228 
L 105.845931 -254.948496 
L 106.059809 -255.210169 
L 106.279467 -255.301609 
L 106.489491 -255.217951 
L 106.682173 -254.948496 
L 106.682173 -254.938769 
L 110.931188 -254.861797 
L 111.192871 -254.857057 
L 111.242968 -254.43196 
L 111.408675 -254.39694 
L 111.668797 -254.492271 
L 112.015625 -254.461143 
L 112.23721 -254.197524 
L 112.077284 -253.895968 
L 111.797894 -253.59733 
L 111.686138 -253.334685 
L 113.476159 -251.616787 
L 114.129352 -252.018538 
L 114.50701 -252.868732 
L 114.778693 -253.792855 
L 115.123594 -254.420287 
L 115.659252 -254.620676 
L 116.433835 -254.70336 
L 117.886661 -254.65375 
L 118.017686 -254.695578 
L 118.139076 -254.759781 
L 118.250831 -254.843438 
L 118.343319 -254.938769 
L 118.343319 -254.944605 
L 118.694001 -255.375539 
L 119.674755 -255.839546 
L 120.115998 -256.19655 
L 120.318315 -256.595382 
L 120.401168 -257.449467 
L 120.574582 -257.997132 
L 121.289435 -258.9018 
L 122.010067 -258.9018 
L 122.717212 -258.33468 
L 123.387747 -257.537015 
L 125.256768 -258.897909 
L 125.729803 -259.35608 
L 126.021717 -259.915418 
L 125.9379 -260.254911 
L 125.791461 -260.608024 
L 125.89551 -261.216 
L 130.950536 -260.163472 
" style="stroke: #000000"/>
    </defs>
    <g clip-path="url(#p6bfbbbe2e4)">
     <use xlink:href="#mfb3900a270" x="0" y="280.512" style="fill: #f5f5f5; stroke: #000000"/>
    </g>
   </g>
  </g>
 </g>
 <defs>
  <clipPath id="p6bfbbbe2e4">
   <rect x="7.2" y="7.2" width="182.536236" height="266.112"/>
  </clipPath>
 </defs>
</svg>
