<?xml version="1.0" encoding="utf-8" standalone="no"?>
<!DOCTYPE svg PUBLIC "-//W3C//DTD SVG 1.1//EN"
  "http://www.w3.org/Graphics/SVG/1.1/DTD/svg11.dtd">
<svg xmlns:xlink="http://www.w3.org/1999/xlink" width="266.773339pt" height="280.512pt" viewBox="0 0 266.773339 280.512" xmlns="http://www.w3.org/2000/svg" version="1.1">
 <metadata>
  <rdf:RDF xmlns:dc="http://purl.org/dc/elements/1.1/" xmlns:cc="http://creativecommons.org/ns#" xmlns:rdf="http://www.w3.org/1999/02/22-rdf-syntax-ns#">
   <cc:Work>
    <dc:type rdf:resource="http://purl.org/dc/dcmitype/StillImage"/>
    <dc:date>2024-03-04T13:11:10.840349</dc:date>
    <dc:format>image/svg+xml</dc:format>
    <dc:creator>
     <cc:Agent>
      <dc:title>Matplotlib v3.8.0, https://matplotlib.org/</dc:title>
     </cc:Agent>
    </dc:creator>
   </cc:Work>
  </rdf:RDF>
 </metadata>
 <defs>
  <style type="text/css">*{stroke-linejoin: round; stroke-linecap: butt}</style>
 </defs>
 <g id="figure_1">
  <g id="patch_1">
   <path d="M -0 280.512 
L 266.773339 280.512 
L 266.773339 0 
L -0 0 
z
" style="fill: #ffffff"/>
  </g>
  <g id="axes_1">
   <g id="PatchCollection_1">
    <defs>
     <path id="me092d4dbd6" d="M 183.086487 -59.811718 
L 183.075047 -59.813373 
L 181.434122 -61.026794 
L 181.372269 -60.892126 
L 181.07773 -60.43762 
L 181.002623 -61.582302 
L 180.422381 -61.354283 
L 179.126409 -60.003008 
L 178.229537 -59.814779 
L 177.585969 -60.055039 
L 176.942402 -60.397832 
L 176.038167 -60.517197 
L 175.418864 -60.251164 
L 175.026425 -60.082585 
L 173.617055 -58.365563 
L 172.842418 -57.800873 
L 172.677476 -58.898115 
L 172.054526 -59.53626 
L 171.216562 -59.606655 
L 170.408052 -59.002177 
L 170.036933 -58.064089 
L 170.2814 -57.395338 
L 170.698173 -56.809224 
L 170.863115 -56.119048 
L 170.502305 -55.540586 
L 169.930899 -55.127399 
L 169.593652 -54.630044 
L 169.945626 -53.791427 
L 171.137036 -53.632273 
L 171.530246 -53.454756 
L 171.86013 -53.13951 
L 172.025072 -52.914552 
L 172.356428 -52.277938 
L 172.430063 -52.000949 
L 172.533152 -51.096528 
L 172.639186 -50.710887 
L 172.888071 -50.461444 
L 173.611165 -50.097227 
L 173.793779 -49.855436 
L 173.802615 -48.931121 
L 173.435914 -48.563844 
L 167.315392 -47.082491 
L 165.816188 -46.389255 
L 164.378837 -45.273649 
L 163.237498 -44.012663 
L 160.80166 -39.660424 
L 160.639664 -39.176842 
L 160.695626 -38.722336 
L 161.063542 -37.863162 
L 161.106508 -37.762824 
L 161.084418 -37.433804 
L 160.250872 -36.980829 
L 159.414381 -37.323621 
L 157.931377 -38.489727 
L 156.897545 -38.762125 
L 156.056636 -38.703972 
L 153.533909 -37.732217 
L 152.925685 -37.329742 
L 151.712185 -36.103954 
L 146.23523 -32.224585 
L 145.391376 -31.470136 
L 144.906859 -30.63917 
L 144.529849 -29.777598 
L 144.001152 -28.943572 
L 143.301621 -28.375822 
L 141.737619 -27.532614 
L 141.055761 -26.824075 
L 140.603643 -25.968624 
L 140.300268 -25.032067 
L 140.158889 -24.069493 
L 140.185398 -23.137527 
L 141.097765 -19.296 
L 141.096537 -19.296599 
L 132.70518 -22.809453 
L 123.836124 -26.828742 
L 118.19063 -28.96753 
L 113.619253 -30.067241 
L 110.335902 -30.605656 
L 106.388364 -30.992442 
L 101.980398 -30.557114 
L 101.317426 -30.357049 
L 94.814855 -29.940953 
L 87.211071 -30.086045 
L 80.256298 -30.863007 
L 71.66686 -32.579182 
L 58.249358 -38.596561 
L 53.390623 -41.389702 
L 46.240796 -45.875359 
L 37.940078 -52.015204 
L 29.880839 -59.370395 
L 18.671515 -67.558724 
L 19.820533 -67.740321 
L 20.848474 -68.993656 
L 22.101738 -72.491974 
L 23.318184 -74.776747 
L 23.542034 -75.685759 
L 23.489017 -76.801364 
L 22.483166 -79.71816 
L 22.441931 -80.14512 
L 22.515565 -81.009752 
L 22.483166 -81.47497 
L 21.954468 -82.934899 
L 21.830762 -83.429193 
L 21.783636 -84.676406 
L 22.060502 -85.384946 
L 23.24455 -86.7806 
L 23.891063 -88.555775 
L 23.726121 -92.242323 
L 23.917571 -94.190424 
L 24.593538 -94.874479 
L 25.30485 -95.079542 
L 26.039725 -95.16524 
L 26.789327 -95.489669 
L 27.372515 -96.173723 
L 28.500599 -98.796697 
L 21.116505 -108.47752 
L 20.685005 -109.437033 
L 20.664387 -110.544987 
L 21.04287 -111.577955 
L 22.095847 -113.406691 
L 24.873351 -118.230269 
L 26.669605 -121.348173 
L 28.801029 -125.047858 
L 33.300114 -132.867808 
L 37.805089 -140.684698 
L 41.731294 -147.503818 
L 44.507325 -152.330457 
L 45.561775 -154.157662 
L 46.848911 -156.401116 
L 47.535187 -157.270339 
L 48.451203 -157.732497 
L 51.037257 -157.738618 
L 58.898504 -157.753921 
L 66.756807 -157.763103 
L 74.612164 -157.775346 
L 82.470466 -157.790649 
L 90.000642 -157.796513 
L 90.331714 -157.79677 
L 98.190017 -157.812074 
L 106.045374 -157.824316 
L 113.900731 -157.839619 
L 119.015402 -157.845741 
L 120.131705 -157.977349 
L 121.155243 -158.352733 
L 121.175414 -158.378004 
L 121.384969 -158.672115 
L 121.769342 -159.513793 
L 121.93723 -160.006557 
L 121.610291 -159.868828 
L 121.465967 -159.829039 
L 121.364351 -159.773948 
L 121.158174 -159.565824 
L 120.734037 -159.565824 
L 120.51166 -160.575837 
L 121.890103 -161.729701 
L 121.158174 -162.43671 
L 121.158174 -162.803987 
L 122.41291 -163.321236 
L 122.037373 -163.918062 
L 120.379118 -164.860741 
L 120.164104 -165.983999 
L 120.567623 -166.792009 
L 121.267153 -167.330683 
L 121.93723 -167.655111 
L 121.16701 -167.961176 
L 120.605913 -168.414151 
L 120.514606 -169.001796 
L 121.158174 -169.714926 
L 121.410005 -169.463953 
L 121.586728 -169.372134 
L 122.324548 -169.271132 
L 122.111008 -169.586379 
L 121.763452 -170.244418 
L 121.548438 -170.559664 
L 121.807632 -170.529058 
L 121.878322 -170.611695 
L 121.878322 -170.761667 
L 121.93723 -170.926942 
L 122.274477 -170.694333 
L 122.748685 -170.559664 
L 123.100659 -170.706575 
L 123.103604 -171.330947 
L 122.75163 -171.190157 
L 121.922503 -171.499283 
L 121.343733 -171.921652 
L 121.742834 -172.142018 
L 122.792866 -172.48175 
L 123.635247 -173.292821 
L 123.971022 -174.244682 
L 123.492396 -175.006783 
L 123.103604 -175.006783 
L 123.103604 -174.56605 
L 122.716285 -174.56605 
L 122.863555 -175.404667 
L 123.404034 -175.710732 
L 124.180145 -175.65564 
L 125.050508 -175.410788 
L 124.393685 -176.518742 
L 124.318578 -176.858474 
L 124.306796 -177.635878 
L 124.191926 -178.486738 
L 123.867933 -178.566314 
L 123.362799 -178.336766 
L 122.716285 -178.244947 
L 122.380511 -178.397979 
L 121.957847 -178.676498 
L 121.373187 -178.936653 
L 119.579444 -179.169262 
L 119.432175 -179.505933 
L 119.508755 -180.014 
L 119.21127 -180.668978 
L 118.874023 -180.996467 
L 118.330599 -181.379048 
L 117.694394 -181.559626 
L 116.327733 -180.898527 
L 115.975759 -181.428018 
L 115.710674 -182.692065 
L 115.158413 -182.695126 
L 113.679827 -182.251332 
L 113.373506 -182.101361 
L 113.037731 -182.28806 
L 112.236585 -182.453335 
L 111.320569 -182.487002 
L 110.61662 -182.284999 
L 110.914105 -182.851219 
L 111.420712 -183.276649 
L 111.815394 -183.723503 
L 111.782995 -184.344814 
L 111.126173 -184.748819 
L 110.251392 -184.803911 
L 109.756566 -185.024278 
L 110.224883 -185.927168 
L 110.021651 -186.88515 
L 110.392771 -187.885982 
L 110.57833 -188.73072 
L 109.803692 -189.198999 
L 109.638751 -188.804175 
L 109.4473 -188.608294 
L 109.149816 -188.510353 
L 108.672662 -188.424655 
L 108.672662 -188.791933 
L 109.423737 -190.178405 
L 108.643208 -192.308615 
L 104.790637 -197.87593 
L 103.965928 -198.533969 
L 101.924772 -199.559286 
L 101.08239 -200.260173 
L 101.276786 -200.961061 
L 101.276786 -201.362006 
L 100.499203 -201.8058 
L 99.966087 -201.355885 
L 99.294538 -201.362006 
L 95.368332 -202.580143 
L 94.316828 -203.192272 
L 92.658573 -204.872567 
L 91.477471 -205.444908 
L 92.396433 -206.424315 
L 92.258 -206.889533 
L 91.480417 -207.024201 
L 90.48782 -207.027262 
L 90.390622 -206.77935 
L 90.599745 -206.237615 
L 90.658653 -205.695881 
L 90.099028 -205.444908 
L 89.798599 -205.610183 
L 89.082869 -206.387587 
L 88.752985 -206.656924 
L 86.573396 -207.437388 
L 85.89301 -208.040336 
L 85.639707 -209.267655 
L 85.318659 -209.895087 
L 83.306957 -212.32218 
L 83.086053 -212.842489 
L 82.794459 -213.974928 
L 82.491084 -214.342206 
L 81.887279 -214.45545 
L 80.514727 -214.305478 
L 79.946267 -214.544209 
L 77.919838 -216.757056 
L 77.395558 -217.577309 
L 77.151091 -218.174135 
L 76.859497 -219.223936 
L 76.617975 -219.637124 
L 76.093696 -219.946249 
L 74.930266 -220.249253 
L 74.706416 -220.628773 
L 74.591546 -221.546967 
L 74.267553 -222.615132 
L 73.772728 -223.55169 
L 73.15125 -224.084242 
L 71.593138 -224.16688 
L 70.067426 -223.922028 
L 68.906942 -224.124031 
L 68.447461 -225.534988 
L 67.569735 -226.009389 
L 65.808391 -226.373605 
L 64.482965 -226.979613 
L 64.724487 -227.91005 
L 65.151569 -227.986566 
L 90.160882 -227.805988 
L 90.191808 -244.094746 
L 90.222735 -260.383504 
L 90.682216 -260.891571 
L 91.857427 -261.216 
L 94.313883 -261.216 
L 106.84652 -261.203757 
L 119.373267 -261.191515 
L 131.901486 -261.176212 
L 144.434124 -261.163969 
L 156.959398 -261.154787 
L 169.490563 -261.139484 
L 182.021728 -261.127241 
L 194.549947 -261.114999 
L 194.793824 -248.317741 
L 195.106709 -231.899317 
L 195.193517 -215.033728 
L 194.232406 -199.678403 
L 193.190202 -183.027492 
L 192.689373 -176.912479 
L 191.812922 -164.682454 
L 190.352766 -150.989894 
L 190.245202 -148.120257 
L 190.217278 -147.375271 
L 190.68854 -146.600927 
L 190.816665 -146.790687 
L 191.355671 -147.063085 
L 192.022802 -147.286512 
L 192.539718 -147.317118 
L 193.583859 -147.75173 
L 197.945983 -147.546667 
L 199.571839 -147.825186 
L 201.399454 -147.837428 
L 206.44049 -146.530532 
L 208.601119 -147.377223 
L 209.396606 -147.015729 
L 211.323866 -145.386598 
L 213.295191 -145.878229 
L 215.818486 -145.311889 
L 217.759661 -144.16957 
L 217.975347 -142.926032 
L 219.269463 -142.711545 
L 225.016454 -139.082149 
L 224.313735 -136.411916 
L 224.432014 -136.014273 
L 225.969647 -136.014273 
L 226.588875 -136.252859 
L 226.769773 -136.75895 
L 226.704836 -137.202382 
L 226.570322 -137.265041 
L 226.554087 -137.510857 
L 226.361593 -137.720523 
L 226.178376 -137.995258 
L 226.185334 -138.441101 
L 226.470596 -138.530269 
L 226.999375 -138.47002 
L 227.511919 -138.556779 
L 227.739201 -139.082149 
L 227.959526 -140.034083 
L 228.462793 -140.684771 
L 229.000849 -141.190862 
L 229.330176 -141.711413 
L 229.399752 -142.622377 
L 228.963742 -144.024972 
L 228.908081 -144.947986 
L 229.330176 -144.947986 
L 229.309303 -144.328627 
L 229.330176 -144.13824 
L 229.685014 -144.13824 
L 230.364542 -144.586492 
L 232.022773 -144.263558 
L 232.832176 -144.581672 
L 231.514867 -145.815571 
L 230.781998 -146.374681 
L 229.729079 -146.856672 
L 229.28843 -147.449522 
L 228.908081 -148.12431 
L 228.518454 -148.623171 
L 226.064735 -150.011307 
L 225.364335 -150.890941 
L 226.185334 -151.859744 
L 227.055036 -151.348833 
L 228.671522 -150.640305 
L 229.330176 -150.242663 
L 230.986089 -148.490623 
L 232.182798 -147.798966 
L 235.165297 -145.2902 
L 241.039844 -142.521159 
L 242.967103 -140.77153 
L 243.572416 -140.499204 
L 246.084115 -138.282043 
L 248.067036 -137.424099 
L 248.101824 -137.409639 
L 247.435911 -137.158834 
L 247.257715 -136.626282 
L 247.304841 -135.983546 
L 246.924885 -135.193899 
L 246.572911 -135.634632 
L 245.590623 -135.215324 
L 244.75266 -134.750106 
L 243.846952 -134.410374 
L 242.645233 -134.385889 
L 242.324185 -133.951277 
L 240.599659 -130.968678 
L 237.953225 -128.356416 
L 234.05227 -125.27319 
L 232.194986 -123.802175 
L 227.215803 -119.916685 
L 222.267547 -116.052619 
L 217.325681 -112.197155 
L 212.416688 -108.367337 
L 205.212262 -102.74646 
L 203.225596 -101.79919 
L 197.437903 -99.848029 
L 195.688341 -98.95585 
L 195.322588 -98.65325 
L 194.532275 -97.999398 
L 193.850417 -96.931233 
L 192.949127 -94.199606 
L 194.05954 -93.152865 
L 194.056594 -91.591936 
L 193.351173 -89.910111 
L 192.913069 -89.282019 
L 192.36594 -88.497623 
L 190.952153 -87.265713 
L 190.505926 -86.572476 
L 190.449963 -85.458401 
L 190.720939 -84.633557 
L 191.217238 -83.869926 
L 192.36594 -82.472741 
L 192.902001 -81.579032 
L 193.977069 -78.96065 
L 194.597074 -78.151109 
L 195.118408 -77.687421 
L 195.364029 -77.306215 
L 195.461546 -77.154869 
L 195.564634 -76.146386 
L 195.42031 -75.682698 
L 194.815033 -75.020068 
L 194.611801 -74.648199 
L 194.850377 -71.66407 
L 194.820923 -70.612738 
L 194.555838 -69.631801 
L 193.885762 -68.987535 
L 193.227467 -68.935504 
L 191.796007 -69.434389 
L 191.096477 -69.561406 
L 190.12597 -69.434389 
L 189.694471 -69.140567 
L 189.417604 -68.678409 
L 188.900688 -68.031083 
L 187.115781 -66.476275 
L 186.321998 -65.608581 
L 185.755011 -64.578674 
L 185.285221 -64.075198 
L 184.018703 -63.749239 
L 183.435515 -63.363598 
L 183.065869 -62.590784 
L 182.96278 -61.652696 
L 183.086487 -59.811718 
" style="stroke: #000000"/>
    </defs>
    <g clip-path="url(#p6b65d6b20e)">
     <use xlink:href="#me092d4dbd6" x="0" y="280.512" style="fill: #f5f5f5; stroke: #000000"/>
    </g>
   </g>
  </g>
 </g>
 <defs>
  <clipPath id="p6b65d6b20e">
   <rect x="7.2" y="7.2" width="252.373339" height="266.112"/>
  </clipPath>
 </defs>
</svg>
