<?xml version="1.0" encoding="utf-8" standalone="no"?>
<!DOCTYPE svg PUBLIC "-//W3C//DTD SVG 1.1//EN"
  "http://www.w3.org/Graphics/SVG/1.1/DTD/svg11.dtd">
<svg xmlns:xlink="http://www.w3.org/1999/xlink" width="369.050691pt" height="280.512pt" viewBox="0 0 369.050691 280.512" xmlns="http://www.w3.org/2000/svg" version="1.1">
 <metadata>
  <rdf:RDF xmlns:dc="http://purl.org/dc/elements/1.1/" xmlns:cc="http://creativecommons.org/ns#" xmlns:rdf="http://www.w3.org/1999/02/22-rdf-syntax-ns#">
   <cc:Work>
    <dc:type rdf:resource="http://purl.org/dc/dcmitype/StillImage"/>
    <dc:date>2024-03-04T13:11:10.866174</dc:date>
    <dc:format>image/svg+xml</dc:format>
    <dc:creator>
     <cc:Agent>
      <dc:title>Matplotlib v3.8.0, https://matplotlib.org/</dc:title>
     </cc:Agent>
    </dc:creator>
   </cc:Work>
  </rdf:RDF>
 </metadata>
 <defs>
  <style type="text/css">*{stroke-linejoin: round; stroke-linecap: butt}</style>
 </defs>
 <g id="figure_1">
  <g id="patch_1">
   <path d="M 0 280.512 
L 369.050691 280.512 
L 369.050691 0 
L 0 0 
z
" style="fill: #ffffff"/>
  </g>
  <g id="axes_1">
   <g id="PatchCollection_1">
    <defs>
     <path id="mcde2c89e0e" d="M 100.679113 -100.975266 
L 100.189278 -101.27687 
L 99.78786 -101.643104 
L 99.605719 -102.135006 
L 99.763103 -102.810025 
L 99.881583 -102.831568 
L 100.530571 -102.810025 
L 100.698565 -102.878245 
L 100.686187 -103.036228 
L 100.633136 -103.226526 
L 100.679113 -103.386304 
L 101.865682 -104.61606 
L 102.687969 -105.98046 
L 103.200793 -106.633935 
L 103.945272 -107.054027 
L 104.714508 -107.089932 
L 106.109743 -106.806281 
L 106.91081 -107.054027 
L 106.91081 -107.328702 
L 104.268882 -107.229963 
L 103.016884 -107.352041 
L 102.486376 -107.808038 
L 102.565952 -107.980383 
L 102.947918 -108.335845 
L 103.080545 -108.562048 
L 103.080545 -109.136532 
L 103.425375 -110.026983 
L 103.646419 -110.942567 
L 102.687969 -109.946196 
L 102.2671 -108.870833 
L 102.014224 -107.705708 
L 101.568598 -106.425685 
L 100.512888 -106.887068 
L 100.061956 -107.1779 
L 99.763103 -107.657235 
L 100.136227 -107.878053 
L 100.221108 -108.287373 
L 100.088481 -109.438136 
L 100.136227 -109.430955 
L 100.24056 -109.644592 
L 100.33782 -109.944401 
L 100.382029 -110.188556 
L 100.290074 -110.342949 
L 99.872742 -110.583514 
L 99.763103 -110.669687 
L 99.63755 -111.556547 
L 99.625171 -112.867089 
L 99.915182 -113.682138 
L 100.679113 -113.080725 
L 100.560633 -114.048372 
L 100.580085 -114.459487 
L 100.679113 -114.888555 
L 100.382029 -114.888555 
L 100.120312 -114.567203 
L 99.763103 -114.384086 
L 99.299793 -114.3033 
L 98.737455 -114.285347 
L 98.429761 -114.091458 
L 98.214021 -113.635462 
L 97.775468 -111.594247 
L 97.488994 -111.179542 
L 96.488103 -111.667853 
L 96.042476 -111.807884 
L 95.860335 -112.08974 
L 96.201629 -112.752192 
L 95.770149 -113.139969 
L 95.345743 -113.832941 
L 95.041585 -114.676714 
L 94.990303 -115.516897 
L 95.287387 -116.346309 
L 96.236996 -117.594017 
L 96.527007 -118.529349 
L 96.201629 -118.529349 
L 95.147687 -117.707118 
L 93.53848 -117.594017 
L 92.070742 -118.06258 
L 91.42706 -118.981755 
L 91.128207 -120.299478 
L 91.133512 -120.988859 
L 91.589749 -121.692603 
L 92.007081 -122.166552 
L 92.328923 -122.742831 
L 92.539357 -123.437598 
L 92.613628 -124.252648 
L 92.316544 -124.252648 
L 91.356325 -122.285039 
L 90.772767 -121.455628 
L 89.9717 -121.213267 
L 89.366922 -121.601044 
L 88.763911 -122.407117 
L 88.318285 -123.372969 
L 88.190963 -124.252648 
L 86.862925 -123.692526 
L 85.808984 -123.082136 
L 84.300573 -122.206048 
L 83.091016 -121.843405 
L 83.034428 -121.741075 
L 82.719661 -121.5418 
L 82.369526 -121.461014 
L 82.2033 -121.692603 
L 82.295254 -122.066017 
L 82.521604 -122.188095 
L 82.808078 -122.249134 
L 83.091016 -122.443023 
L 84.502166 -124.460898 
L 85.400493 -125.491379 
L 85.916853 -126.663686 
L 86.567609 -127.703143 
L 86.687858 -128.392525 
L 86.629502 -130.923846 
L 86.680784 -131.236221 
L 86.882377 -131.444472 
L 87.476546 -131.677856 
L 87.595026 -131.961508 
L 87.886805 -132.457 
L 88.526951 -132.765786 
L 89.144108 -133.164334 
L 89.3793 -133.921935 
L 88.480974 -133.433623 
L 87.936319 -133.304364 
L 87.510145 -133.566473 
L 85.612696 -135.8303 
L 85.464154 -136.331178 
L 85.290854 -136.282706 
L 85.163533 -136.228848 
L 84.873522 -136.056503 
L 85.350979 -134.672355 
L 85.492447 -133.426442 
L 85.025601 -132.435457 
L 83.685184 -131.810706 
L 82.086588 -131.974074 
L 81.292595 -133.018918 
L 81.177652 -134.43538 
L 81.609131 -135.72797 
L 83.416394 -138.004363 
L 84.125506 -139.447755 
L 83.982269 -140.903713 
L 83.605608 -141.226861 
L 83.451761 -140.636219 
L 83.37749 -139.794241 
L 83.255473 -139.368763 
L 82.788627 -139.081521 
L 81.930973 -137.828427 
L 81.313815 -137.562729 
L 81.368634 -137.376021 
L 81.181188 -137.241376 
L 79.663936 -136.657916 
L 79.488869 -136.64894 
L 78.576396 -136.718955 
L 77.793013 -136.884119 
L 77.135183 -137.122889 
L 76.859319 -137.424493 
L 76.604676 -137.919986 
L 75.992823 -138.686563 
L 75.255418 -139.390306 
L 74.624114 -139.697296 
L 73.449923 -140.43874 
L 73.209427 -140.765478 
L 72.678919 -141.806731 
L 72.293417 -141.982666 
L 71.561316 -142.022162 
L 71.197034 -142.133468 
L 70.868119 -142.400963 
L 70.012234 -143.311161 
L 69.361478 -143.585836 
L 68.901704 -143.661237 
L 68.438394 -143.831787 
L 67.769955 -144.381138 
L 67.616107 -145.476248 
L 68.300462 -146.772428 
L 69.421602 -147.43129 
L 70.57634 -146.625217 
L 70.258036 -147.156615 
L 69.662099 -147.889082 
L 69.080309 -148.409708 
L 68.823897 -148.294812 
L 68.49675 -147.734689 
L 67.838921 -147.968074 
L 67.334938 -148.476133 
L 67.458723 -148.76158 
L 68.401259 -149.143971 
L 69.133359 -150.05776 
L 70.309318 -152.075636 
L 69.674477 -151.770441 
L 69.223546 -151.371892 
L 68.364123 -150.420403 
L 67.89374 -150.118799 
L 66.705403 -149.569448 
L 66.422465 -149.364788 
L 66.342889 -148.826209 
L 66.422465 -146.790381 
L 66.295143 -146.291298 
L 65.934398 -145.837096 
L 65.375597 -145.515744 
L 64.643496 -145.422391 
L 63.64791 -145.720404 
L 62.896358 -146.388242 
L 62.491403 -147.248173 
L 62.535612 -148.131443 
L 63.232346 -148.851343 
L 64.300435 -149.639464 
L 64.931739 -150.438356 
L 64.318118 -151.170823 
L 64.148356 -150.524528 
L 63.649678 -150.161885 
L 62.977702 -150.003902 
L 62.26859 -149.967997 
L 62.374692 -148.980602 
L 61.605456 -148.239158 
L 60.639932 -147.94653 
L 60.162475 -148.294812 
L 60.024543 -148.600006 
L 59.720385 -148.973421 
L 59.414459 -149.465323 
L 59.274759 -150.118799 
L 59.419764 -150.438356 
L 59.699165 -150.716621 
L 59.872464 -150.991297 
L 59.706238 -151.309058 
L 59.472815 -151.395231 
L 59.234086 -151.332397 
L 59.048409 -151.188776 
L 58.977674 -151.020021 
L 58.565647 -150.312687 
L 57.610733 -150.844085 
L 54.991793 -153.246147 
L 54.54263 -153.465169 
L 53.934315 -153.60879 
L 53.276485 -153.562114 
L 52.682317 -153.386178 
L 52.114673 -153.323343 
L 51.532883 -153.60879 
L 50.638094 -152.732702 
L 50.199541 -153.19947 
L 50.058072 -154.282014 
L 50.047462 -155.267613 
L 50.390524 -156.689462 
L 50.374608 -157.249584 
L 50.181857 -157.825863 
L 49.939592 -158.100539 
L 49.647813 -158.280065 
L 46.956371 -161.073494 
L 46.489524 -162.042936 
L 46.36397 -162.969292 
L 46.379886 -164.094922 
L 46.597394 -165.105655 
L 47.028873 -165.655006 
L 47.05363 -165.687321 
L 47.035947 -165.685525 
L 46.340982 -165.624486 
L 45.863525 -165.295953 
L 45.463876 -164.859704 
L 44.975809 -164.480904 
L 44.385177 -164.265472 
L 43.642466 -164.150575 
L 42.97049 -164.278039 
L 42.602671 -164.784303 
L 42.305587 -164.784303 
L 42.004966 -164.225976 
L 41.718492 -164.423455 
L 41.50452 -165.06616 
L 41.417871 -165.838123 
L 41.456775 -166.613676 
L 41.573486 -167.206113 
L 42.036796 -168.425097 
L 42.51779 -168.265318 
L 43.101348 -168.739268 
L 43.734421 -169.426854 
L 44.385177 -169.902598 
L 43.334772 -169.927732 
L 42.984637 -170.498626 
L 43.037687 -171.302904 
L 43.568195 -173.766005 
L 43.913025 -174.387166 
L 44.385177 -174.121467 
L 44.653967 -174.121467 
L 44.738849 -174.780328 
L 45.067763 -175.123224 
L 45.428509 -175.309931 
L 45.598271 -175.518182 
L 46.164146 -177.48938 
L 47.214551 -179.597019 
L 47.817561 -179.84297 
L 48.155318 -180.435407 
L 48.211905 -181.140946 
L 47.971409 -181.733382 
L 48.141171 -181.934452 
L 48.565577 -182.580747 
L 47.709692 -182.32941 
L 47.594748 -181.986515 
L 47.74329 -181.496408 
L 47.647799 -180.803436 
L 46.188903 -179.780136 
L 46.015604 -179.597019 
L 45.382531 -179.108708 
L 44.646894 -177.999235 
L 44.040347 -176.816157 
L 43.536365 -175.385332 
L 42.938659 -174.433843 
L 41.714955 -172.943774 
L 40.487714 -171.863026 
L 39.891777 -171.640413 
L 39.635365 -172.175402 
L 39.722015 -172.862987 
L 39.966048 -173.347708 
L 40.342708 -173.661879 
L 40.82547 -173.844996 
L 40.501861 -173.916807 
L 40.241912 -173.906035 
L 39.976658 -173.789343 
L 39.635365 -173.546983 
L 39.042965 -174.121467 
L 39.584083 -175.879029 
L 39.923607 -176.631245 
L 40.388686 -177.324216 
L 40.657476 -177.580939 
L 41.271097 -177.992054 
L 41.566413 -178.243391 
L 41.7963 -178.588081 
L 41.913011 -178.896867 
L 41.997892 -179.000992 
L 41.771542 -179.08896 
L 41.417871 -179.295415 
L 40.841386 -178.544995 
L 38.878507 -177.022612 
L 38.372757 -176.272192 
L 37.865238 -174.62414 
L 37.262227 -174.121467 
L 36.841358 -174.979603 
L 36.28963 -175.528953 
L 35.849309 -176.135752 
L 35.752049 -177.160847 
L 36.337376 -177.139304 
L 36.841358 -177.543238 
L 37.241007 -178.139266 
L 37.531018 -178.692207 
L 37.743221 -179.272077 
L 37.881153 -179.938119 
L 37.928899 -180.505422 
L 37.854628 -180.803436 
L 37.976644 -181.058364 
L 38.040305 -181.252252 
L 38.125186 -181.733382 
L 37.32412 -181.140946 
L 37.046488 -180.781893 
L 36.940386 -180.365392 
L 36.729951 -180.171504 
L 35.483258 -179.597019 
L 35.159649 -179.597019 
L 35.117208 -180.096102 
L 35.143733 -180.573642 
L 35.25514 -181.008096 
L 35.483258 -181.404849 
L 35.221541 -181.808783 
L 35.191479 -182.200151 
L 35.371852 -182.56818 
L 35.752049 -182.911075 
L 34.935067 -182.988271 
L 34.680423 -183.503512 
L 34.809514 -184.173145 
L 35.159649 -184.7207 
L 35.706072 -185.072572 
L 36.466466 -185.359814 
L 37.279911 -185.551907 
L 37.990791 -185.621922 
L 38.503615 -185.905574 
L 38.798931 -186.526735 
L 38.988146 -187.146101 
L 39.175592 -187.427957 
L 39.907692 -187.629027 
L 40.719369 -188.598469 
L 41.417871 -188.964702 
L 41.090724 -189.214244 
L 40.873216 -189.485329 
L 40.528386 -190.194458 
L 40.44881 -189.779752 
L 40.314415 -189.381203 
L 40.102212 -189.08319 
L 39.785675 -188.964702 
L 39.541642 -188.907254 
L 38.860824 -188.632579 
L 38.719355 -188.524863 
L 38.544288 -187.643389 
L 38.079209 -186.90374 
L 37.414306 -186.555459 
L 36.643302 -186.855268 
L 36.431099 -186.648813 
L 36.208285 -186.551869 
L 35.911201 -186.519554 
L 35.483258 -186.526735 
L 35.734365 -187.372304 
L 35.483258 -187.910883 
L 35.074767 -188.023984 
L 34.862564 -187.593121 
L 33.647702 -185.950456 
L 32.294907 -186.207178 
L 31.433716 -188.720547 
L 30.38508 -188.663098 
L 31.12779 -187.900111 
L 31.244502 -187.086857 
L 31.012847 -186.304122 
L 30.708689 -185.621922 
L 29.80329 -186.311303 
L 29.283392 -186.505192 
L 28.602574 -186.526735 
L 30.045555 -185.424443 
L 30.565452 -184.840983 
L 30.708689 -184.117492 
L 30.284283 -183.311419 
L 29.461996 -182.492779 
L 28.666235 -181.92368 
L 28.30549 -181.869822 
L 28.215303 -181.997286 
L 28.010174 -182.040372 
L 27.806812 -181.997286 
L 27.713089 -181.869822 
L 27.759067 -181.598738 
L 27.965965 -181.176851 
L 28.010174 -180.952443 
L 28.010174 -179.446217 
L 28.194083 -179.19488 
L 28.602574 -179.000992 
L 29.011065 -178.728112 
L 29.196742 -178.243391 
L 29.120703 -178.013597 
L 28.602574 -177.160847 
L 27.822728 -177.548624 
L 26.241815 -177.794575 
L 25.474347 -178.243391 
L 24.560106 -179.196676 
L 23.828005 -180.200228 
L 23.392989 -181.151717 
L 23.320486 -182.013443 
L 23.615802 -182.835674 
L 24.28601 -183.677652 
L 24.602546 -183.839226 
L 25.4602 -184.097744 
L 25.637036 -184.268294 
L 25.68655 -184.591441 
L 25.820945 -184.896636 
L 26.003086 -185.158745 
L 26.202911 -185.347247 
L 26.202911 -185.621922 
L 26.008391 -185.60756 
L 25.962414 -185.681166 
L 25.971256 -185.805039 
L 25.93412 -185.950456 
L 27.167975 -187.217974 
L 27.167975 -187.224814 
L 28.62551 -188.963302 
L 32.793744 -197.032166 
L 33.658383 -200.497742 
L 34.311915 -202.15643 
L 38.623882 -208.475406 
L 39.40318 -209.33838 
L 40.458713 -209.918636 
L 42.257612 -210.110155 
L 45.870006 -209.692918 
L 47.665536 -210.014396 
L 51.519304 -212.118291 
L 55.562947 -214.325846 
L 56.116541 -214.765883 
L 56.407374 -215.20364 
L 56.910437 -216.263832 
L 57.250678 -216.64459 
L 57.715562 -216.895388 
L 57.942389 -216.865748 
L 58.191674 -216.728949 
L 61.829896 -216.491831 
L 62.83153 -216.62635 
L 63.27171 -216.54655 
L 63.652375 -216.277512 
L 64.026304 -215.949194 
L 64.44178 -215.700676 
L 65.15258 -215.534237 
L 65.756705 -215.559317 
L 67.061524 -215.787315 
L 67.748743 -215.800995 
L 69.647581 -215.495477 
L 70.459443 -215.791875 
L 72.332453 -216.931868 
L 72.677186 -217.196346 
L 73.619306 -216.726669 
L 74.492928 -216.742629 
L 75.241908 -217.191786 
L 75.802239 -218.02854 
L 75.925759 -218.452617 
L 76.01896 -219.46265 
L 75.822451 -219.961966 
L 75.952708 -220.196805 
L 76.605118 -220.185405 
L 76.985784 -219.914087 
L 77.129516 -219.031733 
L 77.495584 -218.803735 
L 78.122167 -218.625896 
L 78.149116 -218.343178 
L 78.054792 -218.01486 
L 78.311938 -217.688822 
L 79.184437 -217.565703 
L 80.300608 -217.770902 
L 81.353895 -218.190419 
L 82.042238 -218.703415 
L 82.26682 -219.289371 
L 82.492524 -221.186318 
L 82.501507 -221.977472 
L 81.837869 -227.175836 
L 81.981601 -229.008944 
L 82.361144 -230.794171 
L 82.302753 -231.628645 
L 81.825517 -232.35596 
L 81.412287 -232.561159 
L 79.881763 -232.800557 
L 79.175454 -233.106075 
L 78.660039 -233.459473 
L 77.708936 -234.510545 
L 77.467511 -234.936902 
L 77.357466 -235.27434 
L 77.15422 -235.534258 
L 75.967306 -235.949215 
L 75.530495 -236.257013 
L 74.681577 -237.075528 
L 73.851748 -237.583964 
L 72.971388 -237.871242 
L 71.832759 -238.030841 
L 71.499256 -238.19272 
L 71.680044 -238.678356 
L 71.684536 -239.62227 
L 71.794581 -240.075987 
L 72.742315 -241.152139 
L 75.383394 -242.378771 
L 76.434436 -243.240605 
L 77.25865 -243.733081 
L 78.44781 -244.018079 
L 79.184437 -243.803761 
L 78.625229 -242.805128 
L 81.568371 -242.841608 
L 82.829396 -243.309004 
L 83.559286 -244.430757 
L 83.733337 -245.593548 
L 84.081439 -246.448543 
L 84.124109 -246.961539 
L 83.988237 -248.23605 
L 84.032031 -248.801486 
L 84.124109 -249.168564 
L 84.888809 -250.985711 
L 85.050508 -251.742666 
L 84.933726 -252.497341 
L 84.443015 -253.393374 
L 82.253345 -256.131635 
L 81.837869 -257.330907 
L 81.76488 -258.31358 
L 82.114104 -261.216 
L 96.174034 -260.703004 
L 98.127832 -260.172502 
L 98.264888 -260.135288 
L 98.464766 -260.050928 
L 98.838694 -259.78645 
L 99.048678 -259.70893 
L 99.302455 -259.72717 
L 99.421483 -259.83433 
L 99.522545 -259.959729 
L 99.732529 -260.030408 
L 101.033979 -260.304006 
L 101.415768 -260.331366 
L 101.781836 -260.231047 
L 102.317463 -259.884489 
L 102.695883 -259.82293 
L 103.07318 -259.882209 
L 103.808684 -260.087408 
L 104.136573 -260.112488 
L 104.376876 -259.996208 
L 104.792352 -259.551612 
L 104.989983 -259.451292 
L 105.165157 -259.480932 
L 105.715382 -259.645091 
L 106.103908 -259.642811 
L 106.410462 -259.688411 
L 106.696803 -259.661051 
L 107.041536 -259.426212 
L 107.449152 -259.916409 
L 108.231819 -259.515132 
L 109.02796 -259.540212 
L 109.779186 -259.663331 
L 110.441701 -259.563011 
L 110.998664 -258.961096 
L 111.186189 -258.131181 
L 111.139027 -257.244268 
L 110.97396 -256.485033 
L 110.327165 -254.984803 
L 110.169958 -254.257488 
L 110.363098 -253.400214 
L 110.863915 -252.688859 
L 111.505095 -252.342302 
L 112.259689 -252.267062 
L 113.10187 -252.360541 
L 113.876676 -252.059584 
L 114.5886 -252.109743 
L 115.089417 -252.54294 
L 115.232026 -253.393374 
L 115.959671 -255.151242 
L 117.539602 -255.169482 
L 119.238562 -254.289408 
L 120.317676 -253.345495 
L 120.298587 -253.172216 
L 120.228966 -252.875818 
L 120.321045 -252.499621 
L 120.778068 -252.082383 
L 121.193544 -251.922784 
L 122.48152 -251.829305 
L 123.174354 -251.496427 
L 123.361879 -251.063231 
L 123.617902 -250.700713 
L 124.513983 -250.584434 
L 127.321253 -250.741753 
L 128.213964 -250.639153 
L 129.06176 -250.290316 
L 129.777052 -249.71348 
L 130.999899 -248.356889 
L 131.232341 -247.937372 
L 131.264905 -247.629574 
L 131.423235 -247.458576 
L 132.04308 -247.440336 
L 132.098647 -247.456644 
L 132.423746 -247.552055 
L 133.692632 -248.24745 
L 134.54155 -248.575768 
L 135.273686 -248.723967 
L 136.026035 -248.689767 
L 136.938959 -248.468609 
L 138.823198 -247.791453 
L 139.60025 -247.232857 
L 140.834326 -245.34503 
L 141.538389 -244.989353 
L 148.877715 -246.893139 
L 150.485719 -247.786893 
L 151.925287 -249.097884 
L 152.704585 -249.478641 
L 153.782577 -249.512841 
L 156.403444 -248.644167 
L 157.32872 -248.552968 
L 157.905895 -248.669247 
L 159.558815 -249.569841 
L 160.03942 -249.904999 
L 160.228068 -249.980238 
L 160.529007 -249.982518 
L 160.614348 -249.934638 
L 160.67274 -249.861679 
L 163.300344 -248.760446 
L 164.194179 -248.566648 
L 167.749305 -248.418449 
L 169.390997 -248.689767 
L 172.735016 -249.932358 
L 174.540652 -250.267516 
L 178.284427 -250.550234 
L 179.750945 -250.399755 
L 182.603131 -249.373762 
L 183.802396 -249.325883 
L 183.793413 -248.468609 
L 182.969199 -248.356889 
L 181.922649 -248.402489 
L 181.246658 -248.030852 
L 181.062501 -247.041338 
L 181.34772 -245.294871 
L 181.361195 -244.277998 
L 180.550455 -242.53381 
L 179.315256 -241.252459 
L 178.614562 -239.959708 
L 179.405089 -238.17676 
L 180.222566 -237.444885 
L 182.883858 -236.266133 
L 183.658664 -235.641418 
L 185.414892 -233.288474 
L 186.138045 -232.661478 
L 186.986963 -232.093762 
L 187.876306 -231.642325 
L 188.731962 -231.341367 
L 189.578635 -231.336807 
L 190.977778 -231.915923 
L 191.687455 -231.954683 
L 192.374675 -232.141642 
L 193.019224 -232.807397 
L 193.484108 -233.650991 
L 193.755852 -234.925503 
L 194.045562 -235.073702 
L 194.413876 -235.094221 
L 194.759731 -235.26066 
L 195.377331 -236.238773 
L 195.577423 -236.478321 
L 195.615387 -236.523771 
L 197.019022 -237.531524 
L 197.519839 -238.10152 
L 198.083539 -239.996187 
L 198.409182 -240.440784 
L 198.997586 -240.561623 
L 200.010449 -240.525144 
L 201.89918 -241.149859 
L 202.763819 -241.188619 
L 203.82609 -240.901341 
L 204.603142 -240.335905 
L 206.348141 -237.613604 
L 207.358758 -236.861209 
L 208.378358 -236.380132 
L 209.159902 -235.739457 
L 209.438383 -234.510545 
L 209.321601 -234.118388 
L 208.894896 -233.338634 
L 208.834259 -232.980676 
L 209.036382 -232.513279 
L 210.199715 -231.339087 
L 211.967172 -227.971551 
L 213.227075 -226.66968 
L 215.025973 -226.742639 
L 215.672768 -227.048157 
L 216.103965 -227.463114 
L 216.582323 -228.215509 
L 216.968604 -229.029464 
L 217.130302 -229.638219 
L 217.467175 -230.080536 
L 218.255456 -230.618612 
L 219.153782 -231.079169 
L 219.827527 -231.293488 
L 219.522096 -232.267041 
L 220.002701 -232.800557 
L 220.874077 -233.213234 
L 221.756683 -233.84023 
L 221.765666 -234.159428 
L 221.644392 -234.626825 
L 221.660113 -235.050902 
L 222.066605 -235.23786 
L 222.219321 -235.404299 
L 221.862236 -236.291213 
L 221.907152 -236.71529 
L 222.695434 -236.995728 
L 224.772813 -236.831569 
L 225.195027 -237.469965 
L 225.500458 -237.832482 
L 226.993925 -239.077354 
L 227.566608 -239.453551 
L 227.851827 -239.218713 
L 228.139291 -239.072794 
L 228.78384 -238.851635 
L 228.752399 -239.485471 
L 228.999439 -239.65875 
L 229.394702 -239.688389 
L 229.805687 -239.907268 
L 229.992089 -240.319945 
L 230.079676 -240.417984 
L 230.387353 -240.192266 
L 230.513119 -239.939188 
L 230.625409 -239.934628 
L 230.88817 -240.456744 
L 232.54109 -241.11566 
L 232.886946 -240.937821 
L 233.098052 -240.648263 
L 233.372042 -240.376945 
L 234.804872 -240.091947 
L 236.329781 -239.369192 
L 237.1787 -239.205033 
L 238.238725 -239.248353 
L 238.550893 -239.205033 
L 238.977598 -239.013514 
L 239.570494 -238.505078 
L 239.914103 -238.286199 
L 240.215967 -238.1938 
L 240.361021 -238.1494 
L 241.084173 -238.11748 
L 241.526599 -238.014881 
L 242.05212 -237.743563 
L 242.939217 -237.050448 
L 243.466984 -236.79509 
L 244.297936 -236.542011 
L 245.811616 -235.741737 
L 246.682992 -235.598098 
L 247.480257 -235.370099 
L 248.97597 -234.177668 
L 249.75976 -233.80375 
L 250.177481 -233.79463 
L 251.066824 -233.933709 
L 251.37001 -233.938269 
L 251.832648 -233.751311 
L 252.537834 -233.201835 
L 252.98026 -232.932796 
L 253.761803 -232.681998 
L 256.180547 -232.627279 
L 257.231589 -233.755871 
L 257.775076 -234.512825 
L 257.981691 -235.071422 
L 257.889613 -235.983415 
L 257.95025 -236.73581 
L 258.260172 -237.417525 
L 258.918196 -238.1152 
L 260.301619 -239.013514 
L 265.193006 -240.641423 
L 266.050907 -241.418897 
L 266.758339 -241.911374 
L 268.528042 -242.745848 
L 269.282636 -242.848448 
L 271.94842 -242.387891 
L 272.963528 -243.411604 
L 273.176881 -243.9816 
L 273.042132 -245.030392 
L 273.614815 -245.192271 
L 274.003341 -245.892226 
L 274.194235 -246.728981 
L 274.16504 -247.289857 
L 273.920246 -247.506455 
L 273.18811 -247.668334 
L 272.861344 -247.857573 
L 272.653606 -248.27709 
L 272.631147 -248.669247 
L 272.514365 -248.997565 
L 271.317345 -249.64508 
L 270.53131 -250.390635 
L 269.902481 -251.14531 
L 269.671162 -251.596747 
L 270.297745 -252.385621 
L 272.352666 -252.887218 
L 273.078065 -253.402494 
L 273.376758 -253.457214 
L 273.62829 -253.416174 
L 274.20771 -253.078737 
L 274.820818 -252.850738 
L 275.155444 -253.042257 
L 275.478842 -253.320415 
L 276.047033 -253.354615 
L 279.366349 -252.650099 
L 281.198935 -252.043624 
L 286.394593 -249.363647 
L 287.869007 -248.603128 
L 288.648306 -247.773213 
L 289.133402 -246.7837 
L 289.205268 -245.810147 
L 288.81225 -244.829754 
L 288.241813 -243.95196 
L 287.779175 -243.021726 
L 287.707309 -241.865774 
L 287.849918 -241.425737 
L 288.273254 -240.723502 
L 288.419232 -240.283465 
L 288.738138 -239.781869 
L 289.265905 -239.800109 
L 290.121561 -240.146666 
L 290.772847 -239.772749 
L 291.343284 -238.999834 
L 291.684649 -238.024001 
L 291.644224 -237.036768 
L 290.992937 -235.3017 
L 290.804289 -234.341827 
L 290.9862 -233.507352 
L 291.78571 -232.846157 
L 292.744674 -232.793717 
L 293.73957 -232.909997 
L 294.642388 -232.748118 
L 295.432915 -232.064122 
L 295.621564 -231.316288 
L 295.578893 -230.484093 
L 295.645145 -229.5379 
L 295.85962 -229.054543 
L 296.153822 -228.635026 
L 296.387387 -228.201829 
L 296.42332 -227.677433 
L 294.240387 -216.414311 
L 295.053372 -216.469031 
L 295.785508 -216.140713 
L 296.501923 -215.707516 
L 297.283467 -215.443038 
L 298.181794 -215.570717 
L 298.884734 -215.894475 
L 299.486612 -216.040394 
L 300.079508 -215.625437 
L 301.042963 -212.447139 
L 301.188941 -211.652564 
L 301.550517 -210.76223 
L 302.031122 -209.925476 
L 302.518464 -209.288221 
L 304.890045 -208.214348 
L 306.062361 -208.134549 
L 307.176286 -209.010063 
L 307.418834 -208.459446 
L 307.617474 -207.518149 
L 307.787148 -206.714118 
L 308.133003 -206.065463 
L 308.645049 -205.870524 
L 309.846561 -205.836325 
L 312.471919 -205.03719 
L 313.778984 -204.411334 
L 314.749176 -203.6065 
L 313.965387 -203.401301 
L 313.062569 -202.980644 
L 312.543785 -202.407228 
L 312.896378 -201.747173 
L 313.695889 -201.598974 
L 314.490908 -201.728933 
L 314.935579 -201.528294 
L 314.688539 -200.386022 
L 314.180985 -199.801206 
L 313.385966 -199.531028 
L 312.507852 -199.483149 
L 311.739783 -199.574348 
L 310.059913 -199.956245 
L 309.65342 -199.641608 
L 309.195274 -198.654374 
L 309.228961 -198.487936 
L 309.36371 -198.270197 
L 309.46028 -198.005719 
L 309.383923 -197.687661 
L 309.237945 -197.585062 
L 308.806748 -197.546302 
L 308.651787 -197.491583 
L 308.283473 -197.257884 
L 307.391884 -196.870287 
L 307.079716 -196.683328 
L 306.551949 -195.919533 
L 306.302663 -194.347484 
L 305.93435 -193.653229 
L 305.550315 -193.450311 
L 304.671078 -193.436631 
L 304.315116 -193.299832 
L 303.915361 -192.769735 
L 303.901886 -192.335398 
L 304.011931 -191.912461 
L 303.98049 -191.412005 
L 303.521221 -190.530791 
L 301.51683 -188.497045 
L 301.13055 -187.939589 
L 300.773465 -187.211134 
L 300.607275 -186.434799 
L 300.802661 -185.741684 
L 301.467422 -185.281127 
L 302.15015 -185.486326 
L 302.900252 -185.877343 
L 303.758154 -185.966263 
L 304.49029 -185.847703 
L 305.27408 -185.828323 
L 306.044395 -185.918383 
L 306.742843 -186.132701 
L 307.524387 -186.669638 
L 307.955584 -187.343373 
L 309.080737 -189.714556 
L 309.806136 -189.712277 
L 310.677512 -189.431838 
L 311.560118 -189.463758 
L 312.018264 -189.580037 
L 312.413528 -189.516198 
L 313.222022 -189.23462 
L 313.648727 -189.297319 
L 314.488662 -189.764716 
L 315.009691 -189.778396 
L 315.966409 -189.288199 
L 316.866981 -188.437765 
L 317.53848 -187.420892 
L 317.80124 -186.425679 
L 317.864123 -181.865711 
L 317.767553 -181.044917 
L 317.509284 -180.64592 
L 317.201607 -180.305062 
L 316.292052 -177.849519 
L 316.199973 -176.939805 
L 317.345339 -176.491788 
L 317.53848 -175.706334 
L 318.216716 -166.977414 
L 318.699566 -165.821462 
L 320.026844 -163.994055 
L 321.113818 -161.946629 
L 321.908837 -161.533952 
L 322.845342 -161.514572 
L 323.846976 -161.711791 
L 324.516229 -161.995649 
L 324.886789 -162.221367 
L 325.174253 -162.118768 
L 325.609942 -161.427933 
L 325.753674 -160.890997 
L 325.805327 -159.723645 
L 326.041138 -159.159349 
L 326.883319 -158.563133 
L 328.01521 -158.348814 
L 330.377808 -158.237095 
L 331.222235 -157.748039 
L 331.862293 -156.810965 
L 332.311456 -155.698333 
L 332.59892 -154.68944 
L 332.686507 -153.556288 
L 332.450696 -152.530295 
L 331.5097 -150.412189 
L 331.067274 -149.914013 
L 330.746122 -149.367957 
L 330.523786 -148.774021 
L 330.377808 -148.134485 
L 329.544611 -147.050353 
L 328.545223 -146.489477 
L 326.333094 -145.656142 
L 325.517863 -144.902608 
L 324.639749 -143.707896 
L 324.172619 -142.599824 
L 324.590341 -142.113047 
L 325.13832 -141.916968 
L 324.97213 -141.487191 
L 324.437626 -141.058554 
L 323.505612 -140.700597 
L 323.467433 -140.31072 
L 323.606674 -139.860423 
L 323.763881 -139.501325 
L 323.909859 -139.412406 
L 324.152407 -139.398726 
L 324.401693 -139.334886 
L 324.561146 -139.088648 
L 324.662207 -138.320293 
L 324.729582 -138.080895 
L 324.657716 -137.976016 
L 324.448855 -137.919016 
L 324.320843 -137.760557 
L 324.498263 -137.35928 
L 324.677928 -137.295441 
L 325.493159 -137.36384 
L 325.693037 -136.419927 
L 324.094249 -124.946923 
L 324.03787 -124.542349 
L 324.062574 -123.569936 
L 324.210798 -122.566743 
L 324.417413 -121.783568 
L 324.743057 -121.079053 
L 327.271845 -117.472118 
L 327.99949 -116.684384 
L 328.711413 -116.311606 
L 329.656902 -116.115528 
L 330.631586 -116.069928 
L 331.426604 -116.145167 
L 332.318193 -116.482605 
L 333.971114 -117.421959 
L 334.889652 -117.615757 
L 336.684059 -117.613477 
L 336.910887 -117.23044 
L 335.76552 -113.714704 
L 335.62628 -112.695551 
L 334.074421 -108.864038 
L 334.121583 -107.257789 
L 336.331466 -106.376575 
L 336.870462 -106.470055 
L 337.308396 -106.654733 
L 337.669972 -106.581774 
L 338.265113 -105.453182 
L 338.736735 -104.967545 
L 339.706927 -104.20945 
L 341.517055 -103.189157 
L 342.065034 -102.517702 
L 342.003352 -102.471526 
L 341.308194 -101.951126 
L 340.270627 -101.793807 
L 339.412725 -101.793807 
L 338.577282 -101.695768 
L 334.678546 -99.689382 
L 334.022767 -98.992847 
L 334.020522 -98.988287 
L 333.598308 -97.918974 
L 333.387202 -96.877021 
L 333.203045 -94.712176 
L 332.410272 -90.887503 
L 332.84596 -89.526352 
L 334.835753 -88.918736 
L 335.799208 -88.807017 
L 338.404354 -88.011303 
L 338.597494 -88.036383 
L 339.054518 -88.270081 
L 339.309418 -88.263241 
L 339.592391 -88.072862 
L 339.939369 -87.517686 
L 340.147107 -87.273728 
L 340.96683 -86.549833 
L 341.267769 -86.177056 
L 342.307582 -84.272129 
L 342.715197 -83.794472 
L 343.926815 -82.973678 
L 344.236738 -82.59292 
L 344.463565 -81.767566 
L 344.360257 -80.074678 
L 344.459073 -79.143304 
L 345.000315 -77.309057 
L 344.998069 -76.542982 
L 344.685901 -75.43377 
L 344.551152 -74.378137 
L 344.827387 -73.436504 
L 345.730205 -71.563497 
L 343.196925 -71.284199 
L 341.997659 -71.450638 
L 341.011746 -72.077633 
L 339.64629 -74.843254 
L 338.716522 -76.107505 
L 337.764296 -75.951327 
L 337.604844 -75.284431 
L 337.71938 -74.555976 
L 337.640777 -73.935821 
L 336.901903 -73.593823 
L 336.174259 -73.618903 
L 335.46795 -73.832081 
L 334.846982 -74.180919 
L 334.370869 -74.603856 
L 334.033996 -75.188672 
L 333.800432 -75.823647 
L 333.499492 -76.406183 
L 332.960497 -76.83596 
L 332.340651 -76.94996 
L 331.673644 -76.86104 
L 330.377808 -76.520183 
L 329.978053 -76.581742 
L 329.214476 -76.517903 
L 328.858514 -76.540702 
L 328.574418 -76.680921 
L 328.100551 -77.104999 
L 327.729992 -77.228118 
L 326.849632 -77.159718 
L 325.405572 -76.581742 
L 324.518475 -76.488263 
L 322.962125 -76.806321 
L 322.355754 -76.724241 
L 320.244688 -75.035913 
L 320.004385 -74.724695 
L 320.008877 -74.194599 
L 320.235704 -73.721502 
L 320.53889 -73.235865 
L 320.765717 -72.676129 
L 320.835337 -71.768696 
L 320.298587 -69.256153 
L 320.298587 -68.429659 
L 320.399649 -67.602025 
L 320.271637 -67.094728 
L 319.56196 -66.341193 
L 319.501323 -65.877217 
L 323.110349 -63.480953 
L 327.343711 -62.173382 
L 327.759187 -62.232662 
L 330.377808 -63.137816 
L 330.916804 -63.144656 
L 330.954983 -62.714878 
L 330.701206 -62.102703 
L 330.377808 -61.561206 
L 330.117294 -60.218296 
L 330.13526 -59.55368 
L 330.377808 -58.927825 
L 331.188548 -58.436488 
L 331.911701 -57.627094 
L 332.441713 -56.658101 
L 332.553811 -56.212372 
L 332.684261 -55.693667 
L 331.913946 -55.755227 
L 331.38618 -56.090384 
L 330.966212 -56.455182 
L 330.539507 -56.593121 
L 328.720396 -56.293303 
L 328.057881 -56.316103 
L 328.13873 -55.939906 
L 328.066864 -54.872873 
L 327.622192 -53.156045 
L 325.459472 -49.843228 
L 325.35841 -48.07168 
L 325.681808 -47.613403 
L 326.652 -46.765249 
L 326.874336 -46.284173 
L 326.790118 -45.841856 
L 326.544201 -45.597897 
L 326.258982 -45.424619 
L 326.056859 -45.18066 
L 325.888423 -44.471585 
L 325.731216 -43.000995 
L 325.524601 -42.3626 
L 324.127703 -40.743811 
L 324.098508 -40.561412 
L 324.219782 -40.128215 
L 324.192832 -39.945817 
L 324.015412 -39.765698 
L 323.523579 -39.48526 
L 323.330439 -39.311981 
L 322.461308 -38.194789 
L 322.254693 -37.693192 
L 322.236726 -37.358035 
L 322.378213 -36.64212 
L 322.358 -36.332042 
L 321.109327 -34.918452 
L 319.528272 -35.613847 
L 317.882089 -36.904318 
L 316.424555 -37.280515 
L 314.88168 -36.815398 
L 314.073186 -36.749279 
L 313.033373 -37.94627 
L 311.937415 -37.371714 
L 309.963343 -35.522647 
L 308.651787 -36.368521 
L 307.252643 -37.410474 
L 306.439658 -38.409107 
L 306.167914 -39.615219 
L 306.401479 -41.268207 
L 301.222628 -41.539526 
L 300.879018 -40.659452 
L 299.74039 -39.261821 
L 299.440573 -38.347548 
L 299.333897 -36.822238 
L 299.271014 -36.57144 
L 299.014991 -36.115443 
L 298.936388 -35.862365 
L 298.985796 -35.588767 
L 299.160969 -35.508967 
L 299.356355 -35.451968 
L 299.473138 -35.251329 
L 299.5203 -34.223056 
L 299.351864 -33.347542 
L 298.920667 -32.547268 
L 298.184039 -31.746994 
L 296.971299 -31.010559 
L 296.710784 -30.79396 
L 296.555823 -30.383563 
L 296.490694 -29.482969 
L 296.32675 -29.090812 
L 295.958436 -28.751094 
L 295.248758 -28.543616 
L 294.841143 -28.281418 
L 294.049493 -27.294184 
L 293.658721 -26.683149 
L 293.452106 -26.208912 
L 293.541938 -25.458797 
L 293.86309 -24.663083 
L 294.060722 -23.826328 
L 293.779995 -22.950815 
L 293.29939 -22.668097 
L 291.417396 -21.940782 
L 290.842468 -21.872382 
L 290.018253 -23.199333 
L 289.461291 -23.54361 
L 289.227726 -22.506218 
L 288.76958 -22.713696 
L 288.569702 -22.649857 
L 288.42597 -21.959022 
L 288.23283 -21.936222 
L 287.269375 -21.646664 
L 286.919027 -21.443745 
L 286.173417 -21.505305 
L 285.573784 -21.172427 
L 285.025805 -20.67083 
L 284.423926 -20.228514 
L 283.846751 -20.046115 
L 283.23589 -19.941236 
L 282.990877 -19.859275 
L 282.649732 -19.745157 
L 282.151161 -19.296 
L 282.557653 -20.816749 
L 282.402692 -21.402705 
L 281.553774 -21.840462 
L 281.216901 -22.11406 
L 281.192197 -22.877855 
L 280.948526 -23.057974 
L 279.977211 -23.019214 
L 279.71445 -23.067094 
L 278.636459 -24.068007 
L 278.045809 -26.831348 
L 277.416981 -27.727381 
L 276.748851 -27.804901 
L 275.267735 -27.408184 
L 274.585007 -27.519903 
L 274.324493 -27.823141 
L 274.023553 -28.698655 
L 273.720368 -29.079412 
L 273.356546 -29.305131 
L 273.042132 -29.41913 
L 272.424532 -29.503489 
L 271.696888 -29.482969 
L 271.297133 -29.40317 
L 271.119714 -29.250411 
L 271.025389 -28.771614 
L 270.805299 -28.625695 
L 270.553768 -28.545896 
L 269.89799 -27.583742 
L 269.40391 -28.012379 
L 268.561729 -29.503489 
L 268.076633 -28.776174 
L 266.812239 -27.533583 
L 266.452908 -27.353464 
L 266.432342 -27.36985 
L 266.275489 -27.494823 
L 266.753848 -27.9075 
L 267.023345 -28.356657 
L 267.137882 -28.876493 
L 267.164832 -29.478409 
L 267.340006 -30.027885 
L 267.753236 -30.451963 
L 268.649316 -31.135958 
L 269.635229 -32.622507 
L 270.003543 -33.564141 
L 269.839599 -34.175177 
L 270.616651 -35.09173 
L 270.927696 -35.591047 
L 271.139926 -36.769799 
L 271.391457 -37.435554 
L 271.764263 -38.00555 
L 272.23813 -38.365788 
L 271.317345 -39.4465 
L 271.249971 -40.93077 
L 271.678922 -42.501679 
L 272.152789 -43.637111 
L 271.043356 -45.071221 
L 270.666059 -45.823616 
L 269.536413 -47.278246 
L 268.537025 -49.122753 
L 268.112566 -50.95814 
L 268.218119 -52.820887 
L 268.779409 -54.736146 
L 268.837965 -54.872873 
L 269.150133 -55.28099 
L 269.246703 -55.721027 
L 269.1681 -56.179304 
L 268.945764 -56.652401 
L 268.438209 -57.255456 
L 267.977817 -57.307896 
L 267.515179 -56.941959 
L 266.991904 -56.295583 
L 267.054787 -56.80516 
L 267.528654 -57.602014 
L 267.618487 -58.059151 
L 266.825714 -61.257969 
L 266.823468 -61.765265 
L 266.679736 -62.290801 
L 266.248539 -62.52336 
L 265.193006 -62.739958 
L 264.561931 -63.208495 
L 264.485574 -64.391807 
L 264.766301 -65.648078 
L 265.193006 -66.345753 
L 265.401867 -66.541832 
L 265.473733 -66.742471 
L 265.404112 -66.939689 
L 265.193006 -67.131208 
L 264.948212 -67.572385 
L 264.779776 -68.059161 
L 264.559686 -68.524278 
L 264.15993 -68.903895 
L 264.633798 -69.395232 
L 264.903295 -69.614111 
L 265.193006 -69.777129 
L 265.372671 -69.854649 
L 265.909421 -70.178407 
L 265.682593 -70.296966 
L 265.372671 -70.633263 
L 264.609094 -71.18616 
L 262.430652 -72.111833 
L 261.871444 -72.897288 
L 261.518851 -73.152646 
L 261.206683 -72.801528 
L 260.997822 -72.51083 
L 260.67667 -72.351232 
L 260.306111 -72.303352 
L 259.955763 -72.344392 
L 259.205661 -72.323872 
L 258.554374 -72.175673 
L 258.168094 -72.298792 
L 258.226485 -73.097926 
L 258.635224 -73.659942 
L 259.205661 -74.06008 
L 259.564991 -74.587896 
L 259.329181 -75.531809 
L 258.765481 -76.107505 
L 257.89635 -76.513343 
L 257.038449 -76.522463 
L 256.50619 -75.908007 
L 256.398391 -74.997153 
L 256.389408 -74.361038 
L 256.218726 -74.244758 
L 255.619093 -74.900254 
L 255.167684 -75.675448 
L 254.967806 -76.460903 
L 254.689325 -78.527709 
L 254.44004 -79.289223 
L 253.981893 -79.864919 
L 253.24302 -79.969799 
L 253.267724 -79.426022 
L 253.058863 -79.049825 
L 252.746695 -78.724927 
L 252.449124 -78.34075 
L 252.450247 -77.987352 
L 252.596225 -77.648775 
L 252.537834 -77.360357 
L 251.459842 -77.041159 
L 250.673807 -76.629622 
L 250.285281 -76.513343 
L 250.074174 -76.799481 
L 249.872051 -77.000119 
L 249.669927 -77.100439 
L 249.056819 -76.93628 
L 248.841221 -76.90436 
L 247.994548 -76.89296 
L 247.264658 -76.794921 
L 246.568455 -76.570342 
L 245.831828 -76.182745 
L 244.133991 -74.847814 
L 242.386746 -73.804721 
L 241.46147 -73.650822 
L 240.88205 -73.848041 
L 240.693401 -74.435137 
L 241.131336 -76.505363 
L 240.834888 -77.150598 
L 240.183601 -77.530216 
L 237.710958 -78.156071 
L 236.976576 -78.172031 
L 236.239949 -77.948593 
L 234.771185 -76.492823 
L 234.041295 -76.072166 
L 233.699931 -76.808601 
L 232.806096 -76.463183 
L 232.350196 -76.383384 
L 231.876329 -76.406183 
L 231.377758 -76.337784 
L 231.007198 -76.460903 
L 230.659097 -76.659262 
L 229.47106 -77.020639 
L 229.179104 -77.043439 
L 227.856318 -76.8542 
L 227.202786 -76.603402 
L 226.654807 -76.246585 
L 226.147253 -75.768928 
L 225.725039 -75.168152 
L 224.673998 -73.009007 
L 224.141739 -72.326152 
L 221.574772 -69.795369 
L 220.049863 -68.783056 
L 219.254844 -68.462719 
L 218.794452 -68.565318 
L 217.55027 -69.374712 
L 216.905721 -69.65059 
L 215.468399 -69.72811 
L 214.235446 -69.322273 
L 213.377544 -68.398879 
L 213.060884 -66.919169 
L 212.187262 -67.700064 
L 212.634179 -69.136454 
L 213.633567 -70.624144 
L 214.424094 -71.563497 
L 215.064152 -72.63167 
L 215.690734 -76.444943 
L 216.16011 -76.505363 
L 216.281384 -76.8542 
L 216.276892 -77.377457 
L 216.377954 -77.962273 
L 216.681139 -78.496929 
L 217.350392 -79.136464 
L 218.044349 -80.422376 
L 218.733815 -81.357169 
L 219.569258 -82.060544 
L 220.449618 -82.236103 
L 221.451252 -82.315902 
L 222.268729 -82.889318 
L 222.861624 -83.748872 
L 223.200742 -84.693926 
L 221.336715 -87.212168 
L 221.098659 -87.636245 
L 220.442881 -88.116182 
L 218.661949 -90.501046 
L 218.540675 -90.611625 
L 218.228506 -90.816823 
L 218.080282 -90.999222 
L 218.057824 -91.159961 
L 218.104986 -91.627358 
L 218.093757 -91.822296 
L 217.698494 -93.069448 
L 217.626628 -93.510625 
L 217.55027 -96.724262 
L 217.756885 -98.255272 
L 218.423892 -100.868134 
L 218.406448 -100.982658 
L 218.366398 -101.245586 
L 218.322831 -101.531609 
L 217.806293 -101.957966 
L 216.791184 -102.248664 
L 215.064152 -102.428783 
L 213.267499 -102.364943 
L 211.706657 -102.8426 
L 211.396735 -104.444289 
L 211.870602 -106.349215 
L 212.645408 -107.726326 
L 213.069867 -108.028424 
L 213.557209 -108.247302 
L 214.017602 -108.53572 
L 214.363457 -109.049857 
L 214.419603 -109.457974 
L 214.244429 -110.205809 
L 214.239937 -110.584286 
L 214.439815 -111.137182 
L 214.691346 -111.626239 
L 214.857537 -112.115295 
L 214.801391 -112.665912 
L 212.948593 -114.29268 
L 212.494939 -114.506999 
L 211.915518 -114.898016 
L 211.396735 -115.361993 
L 210.875705 -116.140607 
L 210.471459 -116.234087 
L 210.008821 -116.229527 
L 209.582116 -116.286526 
L 209.301389 -116.231807 
L 208.53332 -116.266007 
L 207.994324 -116.446125 
L 208.412046 -116.832583 
L 208.876929 -117.15748 
L 208.791588 -117.405999 
L 208.111106 -117.849456 
L 207.464311 -118.568791 
L 206.990444 -119.231126 
L 206.806287 -120.013161 
L 207.042098 -121.110973 
L 207.08926 -121.737969 
L 206.759125 -122.022967 
L 206.307716 -122.237285 
L 205.997794 -122.646542 
L 205.775458 -123.859494 
L 205.622742 -124.223151 
L 205.200529 -124.659768 
L 204.086604 -125.436103 
L 203.765453 -125.86816 
L 203.473497 -127.024112 
L 203.284848 -127.368389 
L 203.001875 -127.595248 
L 202.294443 -127.857446 
L 202.051895 -128.010205 
L 201.786889 -128.430862 
L 201.277089 -129.929952 
L 200.244014 -131.914678 
L 198.730334 -133.873184 
L 196.947156 -135.595712 
L 193.717673 -137.651118 
L 193.396521 -138.167535 
L 192.805872 -141.075654 
L 192.489212 -142.056048 
L 192.008607 -142.477845 
L 191.406729 -142.531424 
L 189.935719 -142.973741 
L 188.833024 -143.08888 
L 179.610613 -143.037645 
L 161.130886 -142.934981 
L 160.919779 -140.24232 
L 160.623332 -139.833063 
L 152.45157 -138.044591 
L 151.080861 -137.744597 
L 150.341987 -137.776517 
L 149.625572 -137.934976 
L 148.808095 -138.238214 
L 147.776143 -138.87775 
L 146.984493 -139.592525 
L 146.202949 -140.106661 
L 145.196823 -140.144281 
L 138.667114 -138.74779 
L 136.696411 -138.026175 
L 135.1322 -137.105062 
L 134.871685 -136.704925 
L 134.84249 -136.431327 
L 134.897512 -136.132649 
L 134.902004 -135.668672 
L 134.309108 -132.394615 
L 134.336058 -132.262376 
L 134.500003 -131.768759 
L 134.517969 -131.54988 
L 134.38322 -131.443861 
L 134.158639 -131.478061 
L 133.94304 -131.475781 
L 133.857699 -131.261462 
L 133.86556 -130.722246 
L 133.809414 -130.554667 
L 133.667928 -130.528448 
L 132.318193 -129.700813 
L 131.91956 -129.294976 
L 131.209883 -128.037565 
L 131.080748 -127.898486 
L 131.027972 -126.030039 
L 130.851675 -125.648141 
L 130.502451 -125.620782 
L 130.079114 -125.673221 
L 129.677113 -125.522742 
L 129.472744 -125.149965 
L 129.093201 -123.703315 
L 128.978665 -123.503816 
L 128.885463 -123.386397 
L 128.746223 -123.311158 
L 128.499183 -123.235918 
L 128.165679 -123.074039 
L 128.137607 -122.891641 
L 128.222948 -122.692142 
L 128.213964 -122.470983 
L 126.732849 -117.685297 
L 126.532971 -117.408279 
L 126.232032 -117.15292 
L 126.087177 -116.987622 
L 125.974886 -116.720863 
L 125.805327 -116.443845 
L 125.591974 -116.489445 
L 125.370762 -116.638784 
L 125.184359 -116.670704 
L 124.452223 -116.254607 
L 124.205183 -116.035728 
L 123.855959 -115.571751 
L 123.866065 -115.221774 
L 124.040116 -114.822777 
L 124.014289 -114.484199 
L 123.415779 -114.31548 
L 122.662308 -113.929023 
L 121.624741 -112.195095 
L 120.899342 -111.585199 
L 119.984173 -111.43244 
L 119.148729 -111.49172 
L 118.299811 -111.43244 
L 117.348708 -110.925144 
L 116.502035 -111.810918 
L 115.593603 -111.164542 
L 114.90526 -109.803391 
L 114.705382 -108.53572 
L 114.8974 -108.092263 
L 115.493664 -107.354688 
L 115.539703 -106.991031 
L 115.381373 -106.940871 
L 114.699768 -106.874752 
L 114.452728 -106.747073 
L 114.033884 -106.146297 
L 113.675676 -105.503341 
L 113.10187 -104.119391 
L 112.510098 -103.379536 
L 111.721816 -102.87452 
L 110.045315 -102.056005 
L 108.727021 -101.083592 
L 108.068997 -100.974153 
L 107.078592 -101.32071 
L 105.430163 -102.364943 
L 104.74519 -102.529102 
L 103.611053 -102.323903 
L 101.70997 -101.729968 
L 100.679113 -100.975266 
" style="stroke: #000000"/>
    </defs>
    <g clip-path="url(#p5951562cd9)">
     <use xlink:href="#mcde2c89e0e" x="0" y="280.512" style="fill: #f5f5f5; stroke: #000000"/>
    </g>
   </g>
  </g>
 </g>
 <defs>
  <clipPath id="p5951562cd9">
   <rect x="7.2" y="7.2" width="354.650691" height="266.112"/>
  </clipPath>
 </defs>
</svg>
