<?xml version="1.0" encoding="utf-8" standalone="no"?>
<!DOCTYPE svg PUBLIC "-//W3C//DTD SVG 1.1//EN"
  "http://www.w3.org/Graphics/SVG/1.1/DTD/svg11.dtd">
<svg xmlns:xlink="http://www.w3.org/1999/xlink" width="371.52pt" height="222.73524pt" viewBox="0 0 371.52 222.73524" xmlns="http://www.w3.org/2000/svg" version="1.1">
 <metadata>
  <rdf:RDF xmlns:dc="http://purl.org/dc/elements/1.1/" xmlns:cc="http://creativecommons.org/ns#" xmlns:rdf="http://www.w3.org/1999/02/22-rdf-syntax-ns#">
   <cc:Work>
    <dc:type rdf:resource="http://purl.org/dc/dcmitype/StillImage"/>
    <dc:date>2024-03-04T13:11:10.892948</dc:date>
    <dc:format>image/svg+xml</dc:format>
    <dc:creator>
     <cc:Agent>
      <dc:title>Matplotlib v3.8.0, https://matplotlib.org/</dc:title>
     </cc:Agent>
    </dc:creator>
   </cc:Work>
  </rdf:RDF>
 </metadata>
 <defs>
  <style type="text/css">*{stroke-linejoin: round; stroke-linecap: butt}</style>
 </defs>
 <g id="figure_1">
  <g id="patch_1">
   <path d="M 0 222.73524 
L 371.52 222.73524 
L 371.52 0 
L 0 0 
z
" style="fill: #ffffff"/>
  </g>
  <g id="axes_1">
   <g id="PatchCollection_1">
    <path d="M 340.936725 17.323464 
L 340.086316 24.435726 
L 340.264054 26.843726 
L 341.275795 29.782493 
L 346.607943 36.49249 
L 347.802891 38.688184 
L 348.087273 40.537484 
L 347.693514 42.392371 
L 345.831364 46.845217 
L 345.60714 47.744725 
L 345.500497 49.130303 
L 345.831364 52.253441 
L 345.727455 53.510518 
L 344.879781 55.605646 
L 344.455943 58.45502 
L 342.67856 61.203829 
L 339.60779 62.349165 
L 332.440836 62.438558 
L 333.802585 59.991448 
L 332.008795 59.466269 
L 329.113029 60.164645 
L 327.105953 61.371439 
L 324.546522 63.483328 
L 318.115131 66.489139 
L 315.807268 69.126207 
L 315.539293 70.238021 
L 315.528356 72.551043 
L 315.088112 73.741076 
L 315.900239 74.137753 
L 318.672956 74.528844 
L 320.816753 75.232807 
L 322.8375 76.47871 
L 324.904733 78.484446 
L 325.968428 79.238692 
L 328.858726 80.255528 
L 329.353659 80.892447 
L 329.621633 81.719324 
L 330.209537 82.764094 
L 332.525603 85.339705 
L 333.780709 86.205692 
L 335.500669 86.954351 
L 339.227704 87.540987 
L 340.233976 88.043818 
L 341.39611 89.826073 
L 341.538301 91.870918 
L 340.614062 96.245546 
L 340.264054 100.737501 
L 341.880105 113.47588 
L 341.85823 115.414572 
L 341.308608 120.062963 
L 340.761721 121.498825 
L 339.085513 122.755901 
L 336.520613 123.783911 
L 333.802585 124.286742 
L 331.677929 123.985043 
L 331.051743 123.186101 
L 331.281435 122.381572 
L 331.215809 121.688783 
L 329.689994 121.252996 
L 328.798569 120.694295 
L 328.448561 118.532123 
L 327.521587 117.867269 
L 325.932881 117.839334 
L 325.615686 118.414796 
L 326.094212 119.638351 
L 325.867254 122.113396 
L 325.566466 123.152579 
L 324.201983 125.203011 
L 322.378115 126.303652 
L 320.250725 126.342761 
L 317.956534 125.191837 
L 317.117062 125.83993 
L 312.556025 128.633434 
L 310.579028 129.359746 
L 305.955099 128.611086 
L 304.281625 128.644608 
L 301.104211 129.203309 
L 299.633085 129.264766 
L 297.902188 128.856915 
L 296.890447 128.247931 
L 295.97988 127.443402 
L 295.052907 126.784135 
L 293.981008 126.588589 
L 291.541892 126.918223 
L 282.682323 126.337174 
L 282.075278 126.001954 
L 281.522923 125.929322 
L 280.390867 126.543893 
L 279.562333 127.476924 
L 278.337306 130.074883 
L 277.629087 131.147588 
L 276.281011 132.225881 
L 266.434186 137.635403 
L 257.04973 142.790914 
L 252.677368 143.578682 
L 243.880691 142.55626 
L 239.500126 143.025568 
L 236.929757 144.447462 
L 235.03206 146.562145 
L 224.531829 162.046539 
L 222.940388 166.111088 
L 220.834873 174.603341 
L 210.684651 194.375764 
L 207.135354 198.635858 
L 207.135354 198.652619 
L 204.130748 201.758621 
L 200.022636 204.684102 
L 197.335569 206.065457 
L 196.112609 205.880689 
L 196.405431 204.455342 
L 197.14179 203.725072 
L 198.076235 203.241158 
L 199.002067 202.563678 
L 200.565217 200.126511 
L 201.236983 199.541414 
L 201.236983 198.802345 
L 200.448949 198.802345 
L 200.005411 199.818565 
L 199.46283 200.689611 
L 198.696327 201.362691 
L 197.559491 201.758621 
L 196.315 201.811412 
L 195.152327 201.547458 
L 194.286782 200.927168 
L 193.950898 199.941743 
L 195.837013 192.005552 
L 196.47433 190.685786 
L 197.593941 190.087492 
L 198.257095 188.679742 
L 198.765226 187.078426 
L 199.393931 185.855443 
L 200.009717 185.547498 
L 201.33172 185.631083 
L 201.895832 185.450715 
L 201.969037 185.037188 
L 201.814014 183.598644 
L 201.895832 183.233508 
L 206.292458 182.863974 
L 206.094373 181.962134 
L 205.551793 181.227464 
L 204.854189 180.673163 
L 204.130748 180.286031 
L 205.538874 178.7727 
L 206.378582 176.731462 
L 206.258009 174.804604 
L 204.78529 173.64321 
L 203.829314 176.458711 
L 202.253246 178.499948 
L 200.138903 179.771323 
L 197.559491 180.286031 
L 198.14944 182.019324 
L 197.688677 183.083935 
L 196.637965 183.308295 
L 195.462373 182.49444 
L 195.229839 183.05754 
L 194.941324 183.488663 
L 194.726014 183.972577 
L 194.674339 184.711646 
L 194.252332 184.438894 
L 193.162864 183.972577 
L 193.115496 186.053408 
L 192.504016 187.034434 
L 191.418855 187.711914 
L 189.971973 188.838114 
L 188.757625 190.408635 
L 187.198782 193.457294 
L 184.455735 197.205429 
L 183.293061 198.331629 
L 181.996896 198.802345 
L 180.631832 198.195253 
L 178.999783 196.769906 
L 177.785436 195.164191 
L 177.660556 194.002797 
L 178.823229 193.153748 
L 181.988284 191.556831 
L 183.112201 190.685786 
L 183.650476 189.436408 
L 184.485878 184.711646 
L 183.349042 175.600863 
L 184.485878 172.965731 
L 182.104551 173.335265 
L 181.484459 174.936581 
L 181.833261 177.021811 
L 182.384454 178.873882 
L 182.530865 180.514791 
L 182.414597 183.127927 
L 181.639482 184.993196 
L 178.905047 183.90219 
L 175.158656 183.972577 
L 174.043351 183.638237 
L 173.238092 183.176318 
L 172.648143 182.740796 
L 172.208911 182.49444 
L 169.74146 182.855176 
L 168.440989 182.648412 
L 167.868265 181.429828 
L 167.579749 180.242039 
L 166.821859 179.454579 
L 165.771147 179.010258 
L 164.582636 178.873882 
L 163.010875 177.743283 
L 162.636235 175.125747 
L 162.748197 169.952265 
L 163.010875 168.786472 
L 162.954894 168.056202 
L 162.386476 167.735059 
L 161.719016 167.721861 
L 161.378826 167.603082 
L 161.253946 167.264342 
L 161.232415 166.595661 
L 161.357295 165.438666 
L 161.899876 164.017718 
L 162.024756 162.873921 
L 162.545805 161.870899 
L 165.228566 158.245943 
L 166.356789 157.335304 
L 167.041475 157.489277 
L 169.173042 158.496698 
L 170.396002 158.738655 
L 171.459633 158.404315 
L 172.953883 156.934975 
L 174.013207 156.596235 
L 175.089757 155.989143 
L 176.347166 154.5418 
L 177.44094 152.834903 
L 177.983521 151.427153 
L 172.161543 156.169511 
L 170.038588 157.335304 
L 168.415152 156.363077 
L 168.074962 155.091702 
L 168.596012 151.796687 
L 169.224717 150.740875 
L 170.464901 149.403512 
L 171.317528 148.224521 
L 170.762029 147.67022 
L 168.953426 148.149734 
L 167.571137 149.509093 
L 166.675448 151.347967 
L 166.356789 153.239631 
L 165.693635 154.48461 
L 164.169241 155.272071 
L 162.446763 155.879163 
L 161.232415 156.596235 
L 160.24199 158.298733 
L 159.708022 159.737278 
L 158.786496 160.718304 
L 156.60756 161.087838 
L 155.220965 161.53216 
L 154.041067 162.143651 
L 153.15399 161.844504 
L 152.688921 159.548112 
L 153.011886 158.395516 
L 154.600872 154.489009 
L 155.126228 153.63996 
L 155.444887 152.900891 
L 158.40755 148.470877 
L 156.555886 148.391692 
L 155.901344 147.648223 
L 155.944406 146.394446 
L 156.241533 144.784332 
L 157.072629 145.30344 
L 158.01138 145.365029 
L 158.967356 144.929506 
L 159.923332 143.979274 
L 160.000843 144.669952 
L 160.58218 146.262469 
L 161.051555 144.837122 
L 161.835283 143.614139 
L 162.713747 143.350186 
L 163.463025 144.784332 
L 164.251059 144.784332 
L 164.152017 143.715321 
L 163.87642 142.738695 
L 163.398432 141.841254 
L 162.748197 141.022999 
L 163.247715 140.939414 
L 163.325227 140.838232 
L 163.295084 140.653465 
L 163.463025 140.28833 
L 164.436226 140.710655 
L 165.590286 140.939414 
L 167.080231 141.022999 
L 168.850077 141.476119 
L 169.431414 141.12858 
L 168.596012 139.549261 
L 168.94912 138.722207 
L 169.315147 137.332054 
L 170.038588 137.332054 
L 170.891215 138.515444 
L 172.36824 138.317479 
L 173.5912 138.361471 
L 173.651487 140.28833 
L 175.675399 139.558059 
L 175.619419 138.093119 
L 174.379234 136.430214 
L 172.859147 135.123646 
L 172.415608 135.405196 
L 172.032357 135.537173 
L 170.762029 135.862715 
L 170.762029 135.123646 
L 173.065844 134.318589 
L 174.159618 133.707097 
L 175.158656 132.840451 
L 175.942383 134.186612 
L 177.272998 135.739537 
L 178.999783 136.588586 
L 180.941878 135.862715 
L 179.654325 135.66475 
L 179.559589 134.938879 
L 179.783511 133.91826 
L 179.494996 132.840451 
L 178.655288 132.418126 
L 177.763905 132.431324 
L 177.01032 132.11458 
L 176.601232 130.689233 
L 177.811273 131.093961 
L 180.115088 131.586674 
L 180.941878 132.101382 
L 182.384454 131.362314 
L 182.156226 132.070588 
L 181.872017 133.610315 
L 181.600726 134.318589 
L 184.218894 136.188257 
L 185.011234 136.029885 
L 186.001659 134.318589 
L 185.459078 133.368358 
L 184.106933 131.55148 
L 183.835642 131.023574 
L 184.124157 130.284505 
L 184.856211 129.439855 
L 185.773431 128.744778 
L 186.651895 128.410437 
L 186.880123 128.647995 
L 187.685382 129.158305 
L 188.800687 129.659816 
L 189.971973 129.884176 
L 190.643739 130.258109 
L 191.018378 131.190744 
L 191.160483 132.391731 
L 191.117421 133.57952 
L 193.162864 132.840451 
L 192.956167 132.475316 
L 192.710714 131.709852 
L 192.504016 131.362314 
L 194.088697 131.454697 
L 195.182471 132.048592 
L 196.030791 133.047214 
L 196.83605 134.318589 
L 192.659039 135.141243 
L 191.117421 135.123646 
L 191.608327 135.704343 
L 191.849474 136.11347 
L 192.245645 136.390621 
L 193.162864 136.592985 
L 192.710714 138.299882 
L 193.304969 139.267711 
L 194.20927 139.175327 
L 195.229839 136.302637 
L 196.47433 136.179459 
L 197.723127 136.434613 
L 198.278626 136.232249 
L 201.641766 136.029885 
L 202.619273 135.862715 
L 203.837926 135.246824 
L 204.681941 134.542949 
L 205.228828 133.553125 
L 205.57763 132.101382 
L 204.251321 132.536905 
L 203.295345 133.064811 
L 202.205878 133.473939 
L 198.679102 133.856671 
L 197.891068 133.592718 
L 197.559491 132.470917 
L 197.774801 131.982603 
L 198.317382 131.626267 
L 199.032211 131.415104 
L 199.790101 131.362314 
L 199.376706 130.385687 
L 199.350869 129.80499 
L 199.790101 128.410437 
L 198.588672 128.128887 
L 197.632697 128.696387 
L 197.016911 129.857781 
L 196.83605 131.362314 
L 195.384862 129.699409 
L 194.467642 129.193498 
L 193.162864 129.211095 
L 193.162864 128.410437 
L 193.916449 127.988112 
L 195.462373 126.193231 
L 195.462373 125.454162 
L 194.674339 123.984823 
L 193.950898 123.984823 
L 192.504016 127.671369 
L 191.237994 127.979314 
L 189.644702 127.064276 
L 188.16337 126.9323 
L 189.265756 125.278193 
L 190.764313 124.547923 
L 192.047559 123.694474 
L 192.504016 121.701628 
L 191.612634 122.638662 
L 190.617902 123.15337 
L 189.649008 123.126975 
L 188.822218 122.440697 
L 188.16337 122.440697 
L 188.068634 123.553699 
L 187.749975 124.239977 
L 187.091127 124.605113 
L 186.001659 124.715093 
L 186.316012 126.294413 
L 185.53659 126.721137 
L 184.455735 126.149239 
L 183.835642 124.715093 
L 182.220818 127.037881 
L 181.342354 126.42199 
L 181.86771 124.583117 
L 184.485878 123.245754 
L 183.551433 122.559476 
L 183.163876 121.679632 
L 183.27153 120.667811 
L 183.835642 119.55041 
L 184.485878 119.55041 
L 184.946641 119.849557 
L 185.35573 119.981533 
L 186.651895 120.22349 
L 186.186826 118.732155 
L 185.243769 117.74673 
L 183.112201 116.602933 
L 182.384454 116.602933 
L 182.091633 118.362621 
L 181.368192 119.770371 
L 180.799774 121.252908 
L 180.941878 123.245754 
L 179.843798 123.694474 
L 178.905047 125.067031 
L 177.983521 125.454162 
L 177.337591 125.093426 
L 177.6218 124.090404 
L 178.706962 122.440697 
L 177.466777 121.890794 
L 177.247161 120.56223 
L 177.983521 117.333203 
L 176.950034 117.957892 
L 176.286879 118.87293 
L 175.925159 120.025525 
L 175.813198 121.362888 
L 175.386884 121.450872 
L 173.177805 121.415679 
L 172.208911 121.701628 
L 173.651487 122.440697 
L 173.651487 123.245754 
L 174.865834 124.099203 
L 176.088794 124.855868 
L 176.601232 125.823696 
L 176.187837 127.27104 
L 175.24478 127.627376 
L 174.245742 127.178656 
L 173.651487 126.193231 
L 173.143356 127.046679 
L 172.738573 127.952919 
L 172.428527 128.894352 
L 172.208911 129.884176 
L 171.403652 125.709317 
L 170.74911 124.248776 
L 170.223754 124.420345 
L 169.315147 124.715093 
L 170.038588 126.193231 
L 168.596012 126.193231 
L 169.009407 129.039526 
L 169.517538 130.258109 
L 170.762029 131.362314 
L 170.038588 132.840451 
L 168.449601 131.701053 
L 167.028556 130.161327 
L 164.909907 126.9323 
L 164.582636 128.841561 
L 165.323302 130.636442 
L 166.395545 132.422525 
L 167.080231 134.318589 
L 166.580712 134.08543 
L 164.909907 133.57952 
L 164.436226 135.035662 
L 163.540537 135.053259 
L 162.791259 133.953454 
L 162.748197 132.101382 
L 162.024756 132.101382 
L 161.576911 133.091207 
L 161.279784 134.191012 
L 161.154904 135.374402 
L 161.232415 136.592985 
L 160.297971 136.126668 
L 159.923332 135.862715 
L 159.923332 138.009534 
L 158.820945 137.288062 
L 158.40755 136.324633 
L 158.114729 135.176437 
L 157.326695 133.949055 
L 156.73244 132.748068 
L 157.18459 131.903417 
L 158.40755 131.023574 
L 158.9286 129.387064 
L 160.013762 127.715361 
L 161.008493 125.753309 
L 161.232415 123.245754 
L 157.791764 126.562765 
L 155.96163 127.4954 
L 154.075516 126.193231 
L 154.583648 125.260596 
L 154.566423 122.981801 
L 154.730058 121.701628 
L 153.343463 121.63564 
L 152.490836 122.071162 
L 151.870744 122.70465 
L 151.181752 123.245754 
L 151.155915 123.597692 
L 150.350656 124.552322 
L 149.407599 125.133019 
L 148.955448 124.354357 
L 148.589422 122.546278 
L 148.012391 120.79099 
L 147.999473 118.978511 
L 149.958792 116.039833 
L 150.815725 113.646657 
L 151.543473 112.542453 
L 155.518092 108.477575 
L 156.685071 107.672518 
L 157.339613 107.426161 
L 157.623822 107.052228 
L 157.688415 105.833644 
L 157.946787 104.760234 
L 158.56688 103.818801 
L 159.923332 102.512233 
L 160.58218 102.512233 
L 160.870695 103.211709 
L 161.197966 103.515255 
L 161.576911 103.704422 
L 162.024756 104.047561 
L 162.429538 103.044539 
L 162.954894 102.648609 
L 163.574986 102.749791 
L 164.251059 102.512233 
L 166.692673 102.58702 
L 170.938583 103.757212 
L 173.255317 104.047561 
L 186.32893 104.047561 
L 186.880123 103.678026 
L 188.654276 102.067912 
L 189.222694 101.698378 
L 192.000191 101.029696 
L 193.75712 99.481171 
L 195.152327 97.774274 
L 196.83605 96.599683 
L 199.264745 96.599683 
L 199.699671 98.236192 
L 198.97623 100.431403 
L 197.916906 102.103106 
L 197.128872 104.144344 
L 197.206383 106.841065 
L 197.916906 109.493794 
L 199.002067 111.359063 
L 201.047511 112.291698 
L 203.730271 112.740418 
L 206.081455 113.532278 
L 207.089105 115.459136 
L 208.213022 116.708514 
L 210.676167 117.271614 
L 213.135005 116.831692 
L 214.246004 115.054408 
L 211.494344 116.004639 
L 209.582393 114.297742 
L 208.122592 111.860574 
L 206.688629 110.628793 
L 203.56233 110.246061 
L 202.619273 109.955712 
L 201.409231 109.212244 
L 200.797751 108.451179 
L 200.281008 107.606529 
L 199.393931 106.572713 
L 198.92025 105.182559 
L 199.876225 103.88479 
L 201.211146 102.631012 
L 201.895832 101.364037 
L 203.837926 96.084974 
L 203.911132 95.416293 
L 204.376201 95.125944 
L 205.93935 95.055557 
L 207.011593 94.752011 
L 206.985756 94.052535 
L 206.33552 93.304667 
L 205.57763 92.847149 
L 205.586242 92.468816 
L 204.492468 92.125677 
L 203.291039 92.055289 
L 202.257552 92.508409 
L 201.417844 92.67118 
L 199.075273 91.71215 
L 197.916906 91.4306 
L 196.418349 91.888119 
L 193.149946 93.867767 
L 191.453304 94.325286 
L 190.540391 95.042359 
L 187.530359 98.407762 
L 186.001659 99.48997 
L 183.590189 99.899097 
L 181.587808 99.507567 
L 177.328979 98.07782 
L 173.220867 97.391542 
L 171.911783 96.762454 
L 170.396002 95.425091 
L 168.410845 94.105325 
L 166.033825 93.564221 
L 163.553455 93.669803 
L 161.232415 94.325286 
L 160.452994 94.831196 
L 158.721903 96.296136 
L 158.04583 96.599683 
L 155.763545 96.480904 
L 154.587954 96.551291 
L 153.713796 96.938422 
L 150.398024 100.295027 
L 149.760707 100.677759 
L 148.232007 101.302448 
L 147.573159 101.698378 
L 144.44686 106.207578 
L 143.568396 106.933449 
L 141.449747 107.531743 
L 136.74738 110.378037 
L 134.727774 111.235885 
L 134.434953 111.359063 
L 127.5881 112.621639 
L 126.554613 113.241929 
L 125.542656 114.165765 
L 120.495794 116.814095 
L 118.471881 117.333203 
L 120.637898 108.556761 
L 122.588605 104.914207 
L 125.159405 104.755835 
L 125.75366 105.151765 
L 126.558919 105.415718 
L 127.532119 105.521299 
L 128.65173 105.464109 
L 128.65173 104.725041 
L 126.657961 104.601863 
L 124.190511 102.485838 
L 122.157986 102.512233 
L 120.461344 103.783608 
L 120.0135 105.640078 
L 119.806802 107.685715 
L 116.37907 114.416521 
L 115.289602 115.054408 
L 113.218321 114.522102 
L 112.787702 113.145146 
L 113.480999 109.150655 
L 111.711152 109.995305 
L 111.289145 111.754993 
L 111.237471 113.893014 
L 110.522642 115.863864 
L 109.876713 116.211402 
L 107.534141 117.060452 
L 106.552329 117.711536 
L 105.484392 118.639771 
L 104.8643 118.798143 
L 104.442292 118.30983 
L 104.020285 117.333203 
L 103.744688 115.181985 
L 104.356168 113.017569 
L 106.194914 109.150655 
L 107.719308 103.145721 
L 108.360931 101.698378 
L 108.791551 101.271653 
L 109.454705 100.809735 
L 110.212596 100.449 
L 110.923118 100.295027 
L 111.336513 99.903496 
L 112.034117 97.272763 
L 114.772858 93.128699 
L 115.647016 92.169669 
L 117.145573 91.267829 
L 119.384795 90.35719 
L 121.744591 89.763296 
L 123.596255 89.820486 
L 124.164673 90.453973 
L 124.56515 91.474592 
L 125.120649 92.424824 
L 126.154136 92.847149 
L 128.25556 92.970327 
L 129.177087 93.216683 
L 130.098613 93.647806 
L 130.434496 92.116878 
L 131.205305 90.555155 
L 131.605782 89.23099 
L 130.822054 88.417135 
L 130.210574 88.826262 
L 129.211536 89.820486 
L 127.743123 90.673934 
L 125.766579 90.634341 
L 125.137874 90.198819 
L 124.414433 88.945041 
L 123.596255 88.417135 
L 122.666117 88.139984 
L 122.226885 88.175178 
L 121.770428 88.324751 
L 117.765665 88.628297 
L 116.400601 88.236767 
L 115.647016 86.938997 
L 114.927881 86.938997 
L 114.174297 88.720681 
L 112.210671 89.846881 
L 109.781976 90.445175 
L 107.63749 90.634341 
L 107.900168 91.404205 
L 108.059497 91.729747 
L 108.360931 92.169669 
L 107.999211 92.270851 
L 107.749451 92.257653 
L 107.615959 92.372033 
L 107.63749 92.847149 
L 106.789169 92.380831 
L 106.194914 91.896917 
L 106.220752 92.398428 
L 106.569553 93.858969 
L 106.371468 95.200731 
L 105.467167 96.599683 
L 103.921242 98.02063 
L 102.470054 98.636521 
L 94.632776 98.750901 
L 93.607901 99.102838 
L 91.497865 100.083864 
L 90.65385 100.295027 
L 90.094045 100.651364 
L 89.422278 101.443223 
L 88.535201 102.208687 
L 87.338079 102.512233 
L 86.313204 102.142699 
L 85.383065 101.355239 
L 83.720873 99.48997 
L 81.137155 100.083864 
L 77.748178 99.445977 
L 74.80274 98.187801 
L 73.549636 96.938422 
L 71.379313 92.169669 
L 70.363051 91.580173 
L 67.529573 91.140251 
L 66.315226 90.634341 
L 65.410925 89.62692 
L 64.752077 88.289557 
L 64.3516 86.749831 
L 63.981267 83.441618 
L 62.939168 80.683307 
L 62.710939 79.191972 
L 65.591785 72.918685 
L 66.702784 71.563726 
L 67.925743 70.534308 
L 69.226215 69.755646 
L 70.591279 69.152953 
L 70.64726 70.437525 
L 71.159697 71.392156 
L 71.96065 71.603319 
L 72.886482 70.631091 
L 72.989831 69.73365 
L 72.05108 68.132334 
L 72.094142 66.944545 
L 73.282652 65.242047 
L 75.086949 64.129045 
L 77.050574 63.293193 
L 84.814647 58.700408 
L 86.554351 57.275061 
L 87.372528 56.263241 
L 88.561039 54.424367 
L 89.504096 53.588515 
L 90.460071 53.157392 
L 92.785418 52.585493 
L 93.840436 52.176366 
L 91.024183 52.070785 
L 89.142375 52.862644 
L 87.691187 54.318786 
L 86.222774 56.201652 
L 84.078288 57.688588 
L 78.639561 58.827986 
L 76.434788 59.562655 
L 72.78744 61.916238 
L 71.741034 62.844473 
L 68.158278 66.944545 
L 66.173121 66.108694 
L 66.328145 64.10265 
L 67.116179 61.67428 
L 67.038667 59.562655 
L 66.496086 61.163971 
L 65.139634 63.301992 
L 64.498011 67.243692 
L 63.460217 68.805415 
L 61.858312 69.333321 
L 59.817175 68.413884 
L 59.093734 69.152953 
L 58.787994 68.686636 
L 57.582259 67.674816 
L 57.366949 69.108961 
L 56.531547 69.751247 
L 55.218157 69.909619 
L 53.611945 69.892022 
L 53.35788 70.29675 
L 52.733481 71.071013 
L 52.091858 71.53733 
L 51.803343 71.035819 
L 51.622483 70.604696 
L 51.174638 70.24396 
L 50.580383 69.988805 
L 48.539246 69.610472 
L 47.540208 68.871403 
L 46.93734 67.802393 
L 46.743562 66.575011 
L 46.084713 66.011911 
L 43.55267 63.117224 
L 43.488077 62.444144 
L 42.751717 62.043815 
L 40.516801 60.143352 
L 39.52207 59.562655 
L 39.022551 59.672636 
L 37.429258 60.279728 
L 36.628305 60.231337 
L 36.008213 59.712229 
L 35.0264 58.022928 
L 34.457982 57.275061 
L 30.517812 54.195608 
L 29.333608 53.588515 
L 27.75754 53.588515 
L 26.560417 54.098825 
L 25.466643 54.732312 
L 24.21354 55.132641 
L 23.432727 54.175282 
L 25.847786 52.499269 
L 29.736152 51.560652 
L 44.080998 52.521617 
L 46.033384 52.443399 
L 51.556943 51.063408 
L 56.889091 51.018712 
L 60.093849 49.711352 
L 68.570597 45.130005 
L 75.877007 41.163229 
L 76.987188 40.928575 
L 78.119244 41.135294 
L 80.405232 42.040389 
L 81.274782 42.191239 
L 81.772449 41.990106 
L 82.231834 41.632538 
L 82.948256 41.319665 
L 90.943744 39.9285 
L 94.700858 40.263721 
L 101.31819 42.481763 
L 103.35261 42.856093 
L 111.752794 42.258283 
L 112.802494 42.320273 
L 131.052436 43.398032 
L 134.700172 42.632612 
L 161.415602 30.117713 
L 161.720236 29.893569 
L 167.338388 25.759847 
L 173.775248 22.804319 
L 179.922258 18.379408 
L 182.66763 17.127918 
L 185.702853 16.669784 
L 190.876404 16.692132 
L 219.880846 16.813075 
L 228.392851 16.848568 
L 265.901096 17.010591 
L 275.869943 17.052153 
L 303.423012 17.167028 
L 340.936725 17.323464 
" clip-path="url(#pf0f87580ed)" style="fill: #f5f5f5; stroke: #000000"/>
    <path d="M 106.194914 176.590687 
L 108.24897 178.148011 
L 109.8681 180.259636 
L 110.936037 182.859575 
L 111.650866 187.553542 
L 112.395838 188.582959 
L 113.14081 189.357222 
L 113.480999 190.281058 
L 112.938418 191.688808 
L 111.672397 192.366288 
L 110.229821 192.471869 
L 109.153272 192.163924 
L 108.313563 192.683032 
L 107.202564 192.625842 
L 104.412149 192.163924 
L 104.166696 192.41028 
L 103.507847 192.859 
L 102.831775 193.043767 
L 102.513116 192.52466 
L 102.487279 191.653614 
L 102.530341 191.081716 
L 102.861918 190.778169 
L 103.662871 190.685786 
L 104.760951 190.395437 
L 107.732227 188.996486 
L 108.360931 188.468579 
L 107.878637 187.254395 
L 106.685821 186.849667 
L 105.613578 187.439162 
L 105.467167 189.207648 
L 104.696358 188.481777 
L 104.020285 187.663522 
L 104.959036 186.057807 
L 105.445636 184.786433 
L 105.561903 183.493062 
L 105.467167 181.830157 
L 104.898749 179.397389 
L 105.058078 177.998437 
L 106.194914 176.590687 
" clip-path="url(#pf0f87580ed)" style="fill: #f5f5f5; stroke: #000000"/>
    <path d="M 103.296844 181.0251 
L 103.520766 184.201337 
L 103.223638 185.679474 
L 102.185845 187.293988 
L 99.942317 190.0435 
L 98.71505 190.817762 
L 98.181082 189.541989 
L 97.819362 187.835092 
L 97.203575 186.502128 
L 97.087308 185.107576 
L 98.181082 183.233508 
L 95.761 183.242307 
L 94.581102 182.177696 
L 94.490671 180.558783 
L 95.347605 178.873882 
L 96.867692 177.6465 
L 102.513116 175.851618 
L 102.943736 176.749059 
L 103.17627 178.200802 
L 103.296844 181.0251 
" clip-path="url(#pf0f87580ed)" style="fill: #f5f5f5; stroke: #000000"/>
    <path d="M 95.347605 185.450715 
L 93.840436 185.450715 
L 93.840436 186.260171 
L 94.878229 188.345401 
L 94.460528 190.316252 
L 93.935172 191.926366 
L 94.632776 192.894194 
L 92.462453 194.337138 
L 90.589257 194.420723 
L 88.716062 194.288747 
L 86.554351 195.111401 
L 86.196936 194.169968 
L 86.067751 193.285725 
L 86.184018 192.383884 
L 86.554351 191.358866 
L 85.88689 191.358866 
L 84.513214 193.642061 
L 85.176368 195.111401 
L 83.845753 194.706672 
L 83.496951 194.407525 
L 83.006045 193.642061 
L 80.57735 193.958805 
L 77.967794 192.234311 
L 75.681204 189.524392 
L 74.273078 186.924453 
L 75.655367 185.499106 
L 77.386458 184.232131 
L 79.182142 183.576648 
L 80.766822 183.972577 
L 79.31994 184.588468 
L 78.665398 184.711646 
L 78.760135 185.186762 
L 78.872096 185.525502 
L 79.061568 185.842245 
L 79.388839 186.260171 
L 80.331896 185.314339 
L 81.533325 184.764437 
L 82.5582 183.941783 
L 83.393602 180.272834 
L 84.284985 179.626149 
L 85.253879 179.239017 
L 85.88689 178.068825 
L 86.429471 178.631925 
L 88.06152 179.546963 
L 88.341422 176.894233 
L 89.943328 175.732839 
L 92.05767 175.944002 
L 93.840436 177.395744 
L 94.529427 178.218398 
L 94.219381 178.834289 
L 93.556227 179.546963 
L 93.177281 180.646767 
L 93.358142 182.252483 
L 93.823211 183.255504 
L 95.347605 185.450715 
" clip-path="url(#pf0f87580ed)" style="fill: #f5f5f5; stroke: #000000"/>
    <path d="M 115.647016 165.517852 
L 118.390064 165.487058 
L 118.954175 166.60006 
L 117.821646 170.616547 
L 117.713991 175.103751 
L 116.766627 176.511501 
L 114.139847 176.590687 
L 111.52168 174.650632 
L 111.478618 171.351217 
L 113.14081 167.906628 
L 115.647016 165.517852 
" clip-path="url(#pf0f87580ed)" style="fill: #f5f5f5; stroke: #000000"/>
    <path d="M 136.669869 165.517852 
L 136.342598 167.471106 
L 136.876566 171.030074 
L 136.669869 172.965731 
L 136.140207 173.388056 
L 135.494277 172.169472 
L 134.512464 170.766121 
L 132.992377 170.616547 
L 132.992377 171.426004 
L 133.784717 171.426004 
L 133.784717 172.165073 
L 132.983764 173.621214 
L 132.415346 174.364682 
L 131.614394 175.05096 
L 131.024445 174.197512 
L 130.73593 173.92476 
L 129.435458 174.373481 
L 130.012489 175.521677 
L 130.120144 177.092198 
L 129.887609 178.781498 
L 129.435458 180.286031 
L 129.220148 179.824113 
L 128.879959 179.309405 
L 128.65173 178.873882 
L 128.014413 178.931072 
L 127.76896 179.005859 
L 127.592406 179.005859 
L 127.204848 178.873882 
L 126.554613 178.873882 
L 125.516819 180.088067 
L 124.513475 179.529366 
L 123.802953 178.068825 
L 123.596255 176.590687 
L 124.332615 175.891211 
L 125.546963 175.05096 
L 125.973276 174.254702 
L 124.319697 173.64321 
L 124.319697 172.965731 
L 126.554613 170.616547 
L 126.653655 170.15023 
L 126.451264 168.865658 
L 126.554613 168.408139 
L 127.058438 168.284961 
L 127.76896 168.416938 
L 128.389053 168.452132 
L 128.65173 168.073799 
L 129.779954 165.913782 
L 132.32061 165.179112 
L 135.029208 165.267097 
L 136.669869 165.517852 
" clip-path="url(#pf0f87580ed)" style="fill: #f5f5f5; stroke: #000000"/>
    <path d="M 82.218011 174.373481 
L 75.280728 174.967375 
L 73.911357 174.707821 
L 71.07788 173.335265 
L 70.591279 173.30447 
L 70.716159 172.0111 
L 71.112329 170.950888 
L 71.827158 170.220618 
L 72.886482 169.952265 
L 72.740072 168.117791 
L 74.204178 166.410894 
L 76.253928 165.36388 
L 77.877364 165.517852 
L 78.665398 164.712795 
L 79.621374 165.97977 
L 80.818497 166.102948 
L 82.19648 165.900584 
L 83.720873 166.190933 
L 84.181636 166.973994 
L 84.487376 168.381744 
L 84.60795 169.798293 
L 84.513214 170.616547 
L 83.264416 171.140054 
L 82.230929 171.799937 
L 81.757248 172.816157 
L 82.218011 174.373481 
" clip-path="url(#pf0f87580ed)" style="fill: #f5f5f5; stroke: #000000"/>
    <path d="M 135.946428 144.784332 
L 136.166044 145.030688 
L 136.359823 145.325436 
L 136.712931 145.514602 
L 137.39331 145.457412 
L 137.315798 145.963322 
L 137.199531 146.288865 
L 136.669869 147.001538 
L 137.281349 147.854987 
L 136.760299 148.726032 
L 134.434953 150.626495 
L 133.918209 149.614674 
L 133.784717 149.209946 
L 132.992377 149.209946 
L 131.778029 150.380139 
L 130.064163 150.380139 
L 128.556994 149.605876 
L 127.997189 148.470877 
L 128.518238 147.489851 
L 129.383784 147.38427 
L 130.27086 147.626227 
L 130.822054 147.67022 
L 131.614394 146.860763 
L 132.217261 145.980919 
L 132.665106 145.021889 
L 132.992377 143.979274 
L 133.784717 144.784332 
L 134.331604 144.322414 
L 135.946428 143.240206 
L 136.47609 143.675728 
L 136.497621 143.983674 
L 135.946428 144.784332 
" clip-path="url(#pf0f87580ed)" style="fill: #f5f5f5; stroke: #000000"/>
    <path d="M 73.549636 149.887426 
L 71.327639 149.913821 
L 70.061617 149.729054 
L 68.550142 149.209946 
L 69.829082 148.338901 
L 71.753952 147.33148 
L 73.497962 146.051307 
L 74.273078 144.379603 
L 75.474506 143.319392 
L 78.191717 142.523133 
L 81.145768 142.184393 
L 83.006045 142.501137 
L 83.522788 143.583345 
L 83.148149 144.608363 
L 80.008932 147.964967 
L 79.388839 148.470877 
L 79.027119 148.945993 
L 78.768747 149.561884 
L 78.445782 150.168976 
L 77.877364 150.626495 
L 76.977369 150.661689 
L 73.549636 149.887426 
" clip-path="url(#pf0f87580ed)" style="fill: #f5f5f5; stroke: #000000"/>
    <path d="M 71.362088 144.669952 
L 70.707547 144.925107 
L 69.622385 144.929506 
L 68.550142 145.457412 
L 68.063542 145.628982 
L 67.719046 146.060105 
L 67.309957 146.288865 
L 66.676946 145.857741 
L 65.298964 144.274022 
L 64.876956 143.979274 
L 64.635809 144.045263 
L 59.093734 143.979274 
L 58.137758 144.837122 
L 57.289437 145.347432 
L 56.135377 145.457412 
L 56.462648 144.718343 
L 56.923411 143.979274 
L 56.251644 142.628714 
L 56.393749 142.320769 
L 56.923411 141.762068 
L 55.868393 141.159375 
L 55.411936 141.022999 
L 59.339187 139.030153 
L 63.705671 138.937769 
L 67.719046 138.405464 
L 70.591279 135.123646 
L 71.086492 135.273219 
L 71.181228 135.334809 
L 71.172616 135.466785 
L 71.379313 135.862715 
L 72.167347 135.871513 
L 72.955381 135.757134 
L 73.665904 135.510777 
L 74.273078 135.123646 
L 74.660635 135.44039 
L 74.850108 135.770331 
L 74.987906 136.592985 
L 74.643411 138.546239 
L 73.833845 140.147555 
L 72.094142 142.501137 
L 71.676441 143.446969 
L 71.573092 144.084856 
L 71.362088 144.669952 
" clip-path="url(#pf0f87580ed)" style="fill: #f5f5f5; stroke: #000000"/>
    <path d="M 98.181082 142.870671 
L 98.499741 141.07579 
L 99.317918 138.748603 
L 100.381549 136.720563 
L 101.462404 135.862715 
L 103.17627 135.163239 
L 105.574822 132.642486 
L 106.914049 132.840451 
L 107.043235 134.556147 
L 107.835575 135.677948 
L 108.731264 135.748335 
L 109.153272 134.318589 
L 110.462355 135.704343 
L 110.122166 138.59463 
L 111.314982 139.549261 
L 110.005898 141.731273 
L 109.682934 144.362007 
L 110.17384 147.010337 
L 111.314982 149.209946 
L 109.222171 149.957814 
L 106.479123 151.523936 
L 104.153777 152.109032 
L 103.296844 149.887426 
L 102.513116 149.887426 
L 102.371012 150.393336 
L 102.060965 150.925642 
L 101.854268 151.427153 
L 101.518385 151.026824 
L 100.747575 150.292154 
L 100.407386 149.887426 
L 99.787293 151.066417 
L 98.844236 151.937462 
L 97.784912 152.518159 
L 96.794487 152.834903 
L 95.78253 151.422754 
L 92.139488 148.836013 
L 91.674419 147.67022 
L 95.347605 145.457412 
L 97.74185 142.857474 
L 98.181082 142.870671 
" clip-path="url(#pf0f87580ed)" style="fill: #f5f5f5; stroke: #000000"/>
    <path d="M 156.241533 129.884176 
L 156.194165 131.362314 
L 155.031492 132.607293 
L 154.730058 133.949055 
L 155.337232 135.150041 
L 156.331963 136.245447 
L 156.435312 137.032907 
L 154.407093 137.332054 
L 153.076479 137.138488 
L 152.159259 136.456609 
L 151.181752 136.592985 
L 151.022423 136.892132 
L 148.955448 138.810192 
L 148.425786 138.937769 
L 146.061684 138.810192 
L 146.061684 139.549261 
L 148.313825 140.385112 
L 147.909042 142.074413 
L 146.419098 143.051039 
L 145.411448 141.762068 
L 144.214326 142.092009 
L 142.780362 141.942436 
L 141.578933 141.603696 
L 141.06219 141.392534 
L 140.554058 141.757669 
L 139.649757 141.049394 
L 139.365548 140.050772 
L 140.674632 139.549261 
L 142.06984 138.7662 
L 143.038734 137.138488 
L 144.369349 135.801126 
L 146.849718 135.862715 
L 147.056416 134.217407 
L 148.11574 133.025218 
L 149.424824 131.965007 
L 150.398024 130.689233 
L 152.185096 131.164349 
L 153.782695 130.680435 
L 155.143453 130.011753 
L 156.241533 129.884176 
" clip-path="url(#pf0f87580ed)" style="fill: #f5f5f5; stroke: #000000"/>
    <path d="M 83.006045 104.047561 
L 84.853403 103.396476 
L 86.898846 103.466864 
L 90.65385 104.047561 
L 92.061976 103.831999 
L 93.638044 103.273298 
L 96.794487 101.698378 
L 96.389704 101.267254 
L 96.402623 101.192468 
L 96.60932 101.020898 
L 98.133714 100.976906 
L 99.524616 100.906518 
L 101.066234 101.034096 
L 101.841349 101.971129 
L 102.048047 102.296672 
L 101.677714 105.098974 
L 100.846618 106.423139 
L 99.7916 107.637324 
L 98.96481 109.150655 
L 98.034671 113.34751 
L 97.410273 115.080803 
L 96.139945 116.602933 
L 95.054783 115.837469 
L 93.814599 116.00024 
L 92.630394 116.462158 
L 91.674419 116.602933 
L 90.335192 115.758283 
L 87.699799 111.77259 
L 86.468227 111.156699 
L 85.176368 111.156699 
L 84.142881 110.910343 
L 83.720873 109.555383 
L 83.677811 106.550717 
L 83.471114 105.138567 
L 83.006045 104.047561 
" clip-path="url(#pf0f87580ed)" style="fill: #f5f5f5; stroke: #000000"/>
   </g>
  </g>
 </g>
 <defs>
  <clipPath id="pf0f87580ed">
   <rect x="7.2" y="7.2" width="357.12" height="208.33524"/>
  </clipPath>
 </defs>
</svg>
