<?xml version="1.0" encoding="utf-8" standalone="no"?>
<!DOCTYPE svg PUBLIC "-//W3C//DTD SVG 1.1//EN"
  "http://www.w3.org/Graphics/SVG/1.1/DTD/svg11.dtd">
<svg xmlns:xlink="http://www.w3.org/1999/xlink" width="191.170648pt" height="280.512pt" viewBox="0 0 191.170648 280.512" xmlns="http://www.w3.org/2000/svg" version="1.1">
 <metadata>
  <rdf:RDF xmlns:dc="http://purl.org/dc/elements/1.1/" xmlns:cc="http://creativecommons.org/ns#" xmlns:rdf="http://www.w3.org/1999/02/22-rdf-syntax-ns#">
   <cc:Work>
    <dc:type rdf:resource="http://purl.org/dc/dcmitype/StillImage"/>
    <dc:date>2024-03-04T13:11:10.919668</dc:date>
    <dc:format>image/svg+xml</dc:format>
    <dc:creator>
     <cc:Agent>
      <dc:title>Matplotlib v3.8.0, https://matplotlib.org/</dc:title>
     </cc:Agent>
    </dc:creator>
   </cc:Work>
  </rdf:RDF>
 </metadata>
 <defs>
  <style type="text/css">*{stroke-linejoin: round; stroke-linecap: butt}</style>
 </defs>
 <g id="figure_1">
  <g id="patch_1">
   <path d="M 0 280.512 
L 191.170648 280.512 
L 191.170648 0 
L 0 0 
z
" style="fill: #ffffff"/>
  </g>
  <g id="axes_1">
   <g id="PatchCollection_1">
    <path d="M 175.935618 236.414468 
L 174.409023 236.991879 
L 173.414666 237.561659 
L 172.89341 237.600662 
L 172.394964 237.353927 
L 171.926932 236.973226 
L 171.4099 236.645941 
L 170.777972 236.57048 
L 170.227147 236.793474 
L 169.793753 237.128389 
L 169.326566 237.382755 
L 168.667604 237.359014 
L 168.012021 237.250485 
L 167.571023 237.353927 
L 166.165237 238.467202 
L 165.76986 238.64865 
L 165.320414 238.646954 
L 162.993771 238.250991 
L 162.56629 238.101763 
L 162.039121 237.67358 
L 161.822846 237.359014 
L 161.545744 237.186045 
L 160.839472 237.180958 
L 159.74965 237.301358 
L 159.214032 237.292879 
L 158.627724 237.170783 
L 157.767694 236.717164 
L 157.162801 236.202497 
L 156.775872 235.525883 
L 156.571424 234.591512 
L 155.576223 233.794499 
L 153.993024 234.426174 
L 151.196659 236.187235 
L 150.536007 236.065987 
L 149.353255 235.324086 
L 148.548983 235.248624 
L 147.827504 235.520796 
L 147.347644 235.965936 
L 146.93537 236.478908 
L 146.420028 236.952876 
L 145.732342 237.311532 
L 145.276138 237.478566 
L 144.950036 237.770239 
L 144.139006 239.951851 
L 143.796007 240.545372 
L 141.621432 243.307787 
L 140.644817 244.04884 
L 139.117376 244.438019 
L 138.113726 244.468543 
L 135.349464 243.960659 
L 134.181919 243.901307 
L 133.137717 244.18111 
L 130.498489 245.352041 
L 129.390081 246.031198 
L 128.839256 246.230452 
L 128.290121 246.203319 
L 127.305057 245.803965 
L 126.786336 245.731047 
L 126.590337 245.970151 
L 126.630889 246.489057 
L 126.821819 247.489563 
L 126.722129 248.0568 
L 126.505855 248.658799 
L 125.931375 249.718657 
L 125.405895 250.352877 
L 124.035592 250.610634 
L 122.489565 250.559761 
L 121.436915 250.279958 
L 121.210503 250.007787 
L 120.970573 249.29217 
L 120.717126 248.975909 
L 120.17306 248.687627 
L 119.830061 248.743588 
L 119.529304 248.938602 
L 119.113651 249.066633 
L 118.495241 249.045435 
L 117.777141 248.926731 
L 117.075938 248.721543 
L 116.513285 248.439196 
L 116.280114 248.189918 
L 115.959081 247.660837 
L 115.817151 247.584527 
L 115.443739 247.841436 
L 115.220706 248.274706 
L 115.039914 248.757154 
L 114.806742 249.156509 
L 114.516123 249.351522 
L 113.769299 249.684742 
L 113.536128 249.896714 
L 113.488818 250.222302 
L 113.678058 250.915025 
L 113.662852 251.227896 
L 112.777477 251.82396 
L 112.353335 251.896967 
L 109.984491 252.304712 
L 109.890489 252.422806 
L 109.501252 252.911798 
L 109.719217 253.590956 
L 110.337627 254.880591 
L 110.545454 255.563988 
L 110.56573 256.35761 
L 110.352834 256.929085 
L 109.328908 258.543461 
L 109.060255 258.557028 
L 108.801739 258.402712 
L 108.539843 258.309445 
L 108.549981 258.245005 
L 108.419879 258.111039 
L 108.237397 257.973682 
L 108.085329 257.899068 
L 107.940019 257.956724 
L 107.522676 258.277225 
L 107.31485 258.363709 
L 103.977798 258.044904 
L 103.482732 258.09069 
L 103.10763 258.378971 
L 102.201979 259.689804 
L 101.681568 260.259584 
L 101.056399 260.708964 
L 100.270714 261.01929 
L 99.61682 261.168518 
L 99.027134 261.216 
L 98.437447 261.121037 
L 97.780175 260.841234 
L 96.938731 260.166316 
L 96.658249 259.486311 
L 96.485905 258.774087 
L 95.970563 257.987248 
L 95.36567 257.502257 
L 94.69488 257.13597 
L 94.514222 257.065167 
L 93.236715 256.564494 
L 87.780847 255.594512 
L 85.682306 254.916202 
L 85.101067 254.599941 
L 84.692173 254.051358 
L 83.992659 252.47768 
L 83.718936 252.121568 
L 83.125871 251.774782 
L 82.982251 251.209242 
L 82.909596 250.593676 
L 82.529425 250.097663 
L 82.231203 250.051877 
L 81.566327 250.236716 
L 81.16926 250.140057 
L 81.04845 249.990829 
L 80.816124 249.473618 
L 80.696159 249.283692 
L 80.529729 249.198903 
L 80.125058 249.158204 
L 79.970456 249.092069 
L 79.674768 248.741892 
L 79.032702 247.59131 
L 78.730255 247.253003 
L 77.708864 246.440728 
L 77.158884 245.732742 
L 76.246475 244.242158 
L 75.568082 243.669834 
L 74.873637 243.451927 
L 74.289864 243.525693 
L 73.722143 243.686792 
L 73.060646 243.725795 
L 72.6847 243.629136 
L 72.352684 243.457015 
L 72.053617 243.224694 
L 71.338052 242.4599 
L 71.284828 242.190272 
L 71.807773 241.48483 
L 72.494615 240.1528 
L 72.462511 239.750054 
L 72.375495 239.704268 
L 72.167668 239.758533 
L 71.758774 239.660178 
L 70.529556 239.177731 
L 70.148541 239.156534 
L 69.485354 239.39479 
L 69.087443 239.377832 
L 68.79091 239.022568 
L 68.633772 238.351889 
L 68.582238 237.627794 
L 68.601669 237.106344 
L 68.721634 236.732426 
L 69.130529 236.098207 
L 69.279217 235.750573 
L 69.312166 235.451269 
L 69.229373 234.591512 
L 69.288511 234.312557 
L 69.476061 233.769062 
L 69.498871 233.500282 
L 69.390734 233.13993 
L 69.02915 232.455686 
L 68.98015 232.022416 
L 69.082374 231.677326 
L 69.450717 231.098219 
L 69.55463 230.773479 
L 69.539423 230.438563 
L 69.2412 229.46095 
L 69.215856 228.236602 
L 69.396648 226.968163 
L 69.348493 225.84217 
L 68.64391 225.048548 
L 68.349067 224.970543 
L 67.708691 224.953585 
L 67.402865 224.892537 
L 66.996505 224.680565 
L 65.995389 223.819113 
L 64.693517 223.144195 
L 64.070037 222.698206 
L 63.732953 222.07077 
L 63.786177 221.772314 
L 64.123261 221.224579 
L 64.113123 220.859988 
L 64.040468 220.512355 
L 64.006676 219.801826 
L 63.950917 219.444018 
L 63.000491 217.307343 
L 62.880526 216.679907 
L 62.889819 216.271226 
L 62.84082 216.023643 
L 62.569631 215.470821 
L 62.435304 215.336855 
L 62.013738 215.180844 
L 61.851531 215.053661 
L 61.875187 214.948523 
L 62.036548 214.544929 
L 62.045841 214.368568 
L 61.018536 212.355685 
L 60.90026 211.723162 
L 61.108087 206.366214 
L 61.78648 203.675022 
L 61.870118 202.981451 
L 61.753532 201.10423 
L 61.908979 200.28178 
L 62.230857 199.501724 
L 63.104404 198.072187 
L 63.277593 197.931438 
L 63.493868 197.851737 
L 63.686488 197.746599 
L 63.792935 197.534627 
L 63.757453 197.305698 
L 63.512454 196.958064 
L 63.467678 196.757963 
L 63.571592 196.668087 
L 63.985555 196.603648 
L 64.067503 196.476465 
L 63.994848 196.261101 
L 63.716901 195.952471 
L 63.621436 195.738803 
L 63.62735 195.311468 
L 63.796315 195.058798 
L 64.03371 194.850218 
L 64.249985 194.550066 
L 64.695207 193.06796 
L 64.838826 192.73898 
L 65.685339 191.334032 
L 66.030027 190.230084 
L 66.134785 190.202104 
L 66.340922 190.188537 
L 66.565645 190.134273 
L 66.730386 189.981653 
L 66.75573 189.755267 
L 66.556352 189.321997 
L 66.510732 189.101547 
L 66.656041 187.517695 
L 66.09001 187.723731 
L 66.182095 187.145472 
L 66.743903 185.788006 
L 66.476094 184.955381 
L 65.884718 184.276224 
L 65.381203 183.557216 
L 65.386272 182.594017 
L 66.210819 181.689322 
L 68.895668 180.74308 
L 70.135023 179.59165 
L 70.873399 179.268606 
L 71.162328 179.033741 
L 71.361707 178.657279 
L 71.380293 178.373237 
L 71.340586 178.084108 
L 71.360862 177.691537 
L 71.63374 176.867391 
L 72.048548 176.451078 
L 73.383369 175.851623 
L 74.027124 175.352217 
L 74.131882 174.888423 
L 73.990797 174.34408 
L 73.899556 173.603875 
L 74.101469 172.940828 
L 74.577104 172.176034 
L 75.186222 171.552837 
L 75.79365 171.306102 
L 76.116372 171.260316 
L 76.295475 171.10261 
L 76.347009 170.852483 
L 76.283647 170.526895 
L 76.047097 170.256419 
L 75.659323 170.117365 
L 74.622725 169.94694 
L 74.30845 169.960506 
L 74.103158 169.831627 
L 74.132727 168.987132 
L 73.990797 168.793814 
L 73.793953 168.633564 
L 73.333524 167.794156 
L 72.225961 166.76143 
L 71.913376 166.25185 
L 72.016445 165.481969 
L 72.379719 164.936778 
L 72.471805 164.469593 
L 71.779049 163.926945 
L 70.374108 163.47163 
L 69.837646 163.077363 
L 69.454096 162.214214 
L 69.389889 161.857254 
L 69.38651 161.572364 
L 69.470992 160.992409 
L 69.550406 160.800787 
L 69.84187 160.411607 
L 69.911145 160.203027 
L 69.843559 159.98512 
L 69.512389 159.611202 
L 69.454096 159.46367 
L 69.803008 158.8498 
L 70.920709 157.688195 
L 71.124311 156.90814 
L 71.133158 156.678362 
L 71.145432 156.359557 
L 71.023777 156.251875 
L 70.647831 156.212873 
L 70.270195 156.090777 
L 69.981266 155.816909 
L 69.733732 155.494713 
L 69.470992 155.23102 
L 67.564226 154.160139 
L 67.127453 153.584424 
L 66.863868 153.876945 
L 66.584231 153.949863 
L 65.884718 153.765024 
L 65.730115 153.748066 
L 65.374444 153.751458 
L 65.230824 153.708215 
L 65.098187 153.503027 
L 65.191118 153.086715 
L 65.057636 152.962923 
L 64.636069 152.961227 
L 63.999917 153.271554 
L 63.696625 153.302078 
L 63.520902 153.142675 
L 63.05118 152.517783 
L 62.756337 152.332095 
L 62.435304 152.267656 
L 62.057668 152.247307 
L 61.734946 152.338879 
L 61.593016 152.61105 
L 61.407999 152.828109 
L 61.001639 152.76367 
L 60.226092 152.497433 
L 59.589095 152.594092 
L 59.084735 152.736537 
L 58.736668 152.646661 
L 58.563479 152.048901 
L 58.389446 151.805558 
L 58.03293 151.622414 
L 57.678949 151.607152 
L 57.50745 151.869997 
L 57.430571 152.243915 
L 57.240486 152.389752 
L 56.949022 152.382969 
L 56.558714 152.300724 
L 56.038303 152.033639 
L 55.671649 151.548648 
L 55.512823 150.944105 
L 55.62096 150.320908 
L 56.494507 149.390777 
L 56.775833 149.343295 
L 57.432261 149.331425 
L 57.728794 149.226287 
L 58.035465 148.93207 
L 58.146982 148.623439 
L 58.182464 148.29022 
L 58.265257 147.921389 
L 58.429997 147.528818 
L 59.364372 146.16796 
L 59.644853 145.634639 
L 59.841697 145.063163 
L 59.919421 144.441663 
L 59.774111 143.016365 
L 60.233695 141.556304 
L 60.315643 139.589207 
L 60.5429 138.621769 
L 60.785365 138.0274 
L 60.896036 137.420313 
L 60.92645 136.155267 
L 61.507688 134.168668 
L 61.455309 133.232601 
L 60.5429 132.770503 
L 59.100787 131.948053 
L 58.426618 131.43169 
L 58.002545 130.953588 
L 57.919724 130.860215 
L 56.880591 128.444586 
L 56.595886 128.06558 
L 55.130118 128.598901 
L 54.659551 128.179197 
L 54.353725 127.40762 
L 53.924555 127.283829 
L 52.558476 127.637398 
L 51.952737 127.935854 
L 50.633968 129.262796 
L 50.012178 129.69437 
L 49.295768 129.713872 
L 47.858724 129.21701 
L 47.176952 129.252622 
L 46.927729 129.464593 
L 46.545024 130.100508 
L 46.223146 130.335373 
L 45.981527 130.320111 
L 45.760183 130.145446 
L 45.534615 129.920756 
L 45.290461 129.75457 
L 44.639103 129.623148 
L 42.794009 129.881753 
L 42.321752 129.827489 
L 41.958478 129.658759 
L 41.621394 129.450179 
L 41.226861 129.273819 
L 40.841622 129.196661 
L 38.899373 129.062695 
L 38.172825 129.098306 
L 36.712126 129.419655 
L 34.192863 126.697939 
L 31.715841 123.958417 
L 29.236285 121.218048 
L 26.759263 118.47683 
L 24.282242 115.736461 
L 21.80353 112.994395 
L 19.325664 110.25657 
L 16.848642 107.514504 
L 15.794302 106.345269 
L 15.235029 105.023413 
L 15.576338 104.662214 
L 16.672074 104.051735 
L 17.151933 103.671034 
L 18.685288 101.230816 
L 19.098406 100.184524 
L 19.398318 99.719035 
L 19.832558 99.48417 
L 20.917311 99.282373 
L 21.453773 99.110252 
L 21.847461 98.877931 
L 22.165959 98.446357 
L 22.517406 97.605253 
L 22.938128 97.236423 
L 23.388419 97.1652 
L 23.867433 97.214378 
L 24.231552 97.112631 
L 24.33631 96.590333 
L 24.346448 96.141801 
L 24.516258 94.897951 
L 24.452896 94.574059 
L 24.349827 94.468073 
L 24.238311 94.395154 
L 24.14707 94.173008 
L 23.985709 93.940687 
L 23.409539 93.582879 
L 23.237195 93.282727 
L 22.991352 92.36701 
L 22.944886 92.003266 
L 23.144265 90.42111 
L 23.303936 89.965795 
L 23.592866 89.571527 
L 23.662141 89.29766 
L 23.675658 89.026336 
L 23.636797 88.757556 
L 23.543866 88.489624 
L 23.188195 87.999546 
L 22.875611 87.017693 
L 22.619629 86.526767 
L 22.120339 86.064668 
L 21.664134 85.809455 
L 21.350705 85.485562 
L 21.275516 84.814036 
L 21.510377 83.685499 
L 21.987702 82.469629 
L 22.626388 81.300393 
L 23.651159 80.120983 
L 23.961209 79.747065 
L 24.57793 79.626665 
L 25.29434 79.6928 
L 25.904302 79.87764 
L 26.204214 79.27988 
L 26.896125 79.381626 
L 27.595638 79.596141 
L 28.197997 79.13913 
L 29.6908 79.32397 
L 30.370038 79.225615 
L 30.548296 79.089953 
L 31.43536 78.153038 
L 31.492808 78.017376 
L 31.506325 77.747749 
L 31.43367 77.444205 
L 31.110948 76.984651 
L 31.038293 76.617516 
L 31.228378 76.485245 
L 31.653324 76.520857 
L 32.378183 76.719262 
L 32.596992 76.876969 
L 32.831853 77.101659 
L 33.123317 77.315326 
L 33.515315 77.433183 
L 33.820296 77.407746 
L 34.573878 77.232233 
L 34.957428 77.188143 
L 35.626528 77.365352 
L 36.822798 78.141168 
L 37.311106 78.308202 
L 38.003861 78.065706 
L 38.533565 77.509492 
L 39.460336 76.179158 
L 39.99173 75.747584 
L 40.608451 75.479652 
L 42.961284 74.914959 
L 47.138935 72.31873 
L 48.014171 72.113542 
L 48.564996 72.43913 
L 48.867443 70.812884 
L 49.142011 70.261757 
L 49.636232 69.844597 
L 50.192971 69.485093 
L 50.655089 69.101849 
L 50.976967 68.645686 
L 51.231258 68.101342 
L 51.368965 67.524779 
L 51.344465 66.968566 
L 51.096087 66.451355 
L 50.67452 66.071502 
L 49.538233 65.437283 
L 49.515509 65.412078 
L 49.128493 64.982815 
L 48.73903 64.769148 
L 48.309015 64.735232 
L 47.775931 64.814934 
L 47.307054 64.799672 
L 46.949694 64.618224 
L 46.610075 64.392686 
L 46.205405 64.241762 
L 45.361426 64.236675 
L 44.665292 64.496128 
L 44.133898 65.001469 
L 43.413264 66.295344 
L 42.984939 66.303823 
L 40.70814 64.502912 
L 40.355849 64.150191 
L 39.876834 63.173425 
L 39.860782 62.19666 
L 40.267987 61.309771 
L 41.063811 60.59585 
L 41.211655 60.363529 
L 41.285999 60.121033 
L 41.289378 59.859884 
L 41.226861 59.588561 
L 40.939622 59.145964 
L 40.565365 58.230246 
L 40.337263 57.809695 
L 40.104936 57.629943 
L 39.808403 57.512934 
L 39.543974 57.346748 
L 39.412181 57.029639 
L 39.424009 56.753228 
L 39.459491 56.546343 
L 39.445129 56.35133 
L 39.302354 56.11053 
L 38.858822 55.803595 
L 38.403462 55.700153 
L 37.993723 55.54075 
L 37.235916 54.151912 
L 37.044142 53.675399 
L 37.015418 53.180234 
L 37.475846 52.322172 
L 38.958511 51.847356 
L 39.46625 51.218224 
L 39.928368 50.375425 
L 40.248556 49.926045 
L 40.462296 49.766642 
L 40.936242 49.853126 
L 41.243758 49.622501 
L 41.367947 49.200254 
L 41.289378 48.713567 
L 41.791203 47.828373 
L 41.794583 47.472261 
L 41.686445 46.849912 
L 41.7101 46.561631 
L 41.870617 46.259783 
L 42.606458 45.383068 
L 43.251903 44.167199 
L 43.712331 43.731385 
L 44.447328 43.485498 
L 47.219193 43.534675 
L 48.649479 43.395622 
L 49.445302 42.79871 
L 49.707197 42.044091 
L 50.428676 41.389522 
L 52.013565 40.305923 
L 52.140214 40.191012 
L 52.620993 39.754797 
L 52.957232 39.229107 
L 53.345851 38.784814 
L 54.916377 38.176032 
L 55.484099 37.704607 
L 56.005355 37.165351 
L 56.677834 36.661706 
L 57.374813 36.440408 
L 58.67922 36.565047 
L 59.382958 36.526892 
L 59.935472 36.202152 
L 60.266643 35.628133 
L 60.5429 34.311365 
L 60.92476 33.820438 
L 60.967846 33.438041 
L 60.885054 33.060732 
L 60.88083 32.588459 
L 61.121604 32.077183 
L 61.959669 31.425159 
L 62.306891 31.03937 
L 62.873768 30.767199 
L 64.507656 30.391585 
L 65.17929 30.350886 
L 65.857683 30.133827 
L 66.484542 29.564047 
L 66.897661 28.839104 
L 66.932298 28.164187 
L 65.623667 26.052101 
L 62.220719 22.244242 
L 60.216712 19.296 
L 60.867292 19.595097 
L 61.94361 20.29477 
L 63.110398 21.469794 
L 64.979652 24.309881 
L 66.206309 25.48891 
L 67.134949 25.968267 
L 68.731466 26.400889 
L 69.553672 26.813483 
L 71.347092 28.116691 
L 72.286376 28.626759 
L 73.256259 28.828382 
L 73.552945 29.333108 
L 73.614145 29.398536 
L 73.65938 29.662916 
L 73.787101 29.721667 
L 73.990657 29.700303 
L 75.830642 30.076845 
L 76.070119 30.306509 
L 76.498518 30.831264 
L 79.417482 33.33086 
L 78.664459 32.119784 
L 77.522949 31.000841 
L 76.153936 30.095539 
L 73.699293 29.094098 
L 70.689859 27.016442 
L 68.707518 25.942897 
L 68.438771 25.579708 
L 68.035651 24.671735 
L 68.111485 24.247124 
L 68.885796 24.12428 
L 69.42462 24.361956 
L 70.582094 25.283281 
L 71.913855 25.679852 
L 72.563105 26.121821 
L 73.614145 27.016442 
L 75.766781 28.295616 
L 78.752267 29.645558 
L 82.22469 32.133137 
L 88.199653 35.679573 
L 90.172681 37.16037 
L 90.652593 37.606332 
L 91.133214 38.237623 
L 92.898738 39.871406 
L 97.367749 44.869641 
L 99.046249 46.194957 
L 100.00176 47.575897 
L 100.838007 48.686831 
L 101.641155 50.33577 
L 102.17816 51.116125 
L 102.299512 50.907426 
L 101.973086 50.098268 
L 102.035117 49.739716 
L 102.485912 49.771985 
L 103.296247 50.045414 
L 103.984723 50.617337 
L 104.612958 51.218932 
L 105.150693 51.879969 
L 105.687722 52.690701 
L 106.373628 53.801703 
L 107.199528 54.809765 
L 107.718583 55.545969 
L 110.283465 58.079803 
L 110.876837 59.08792 
L 111.117645 60.177488 
L 110.79169 61.235009 
L 111.015202 60.990658 
L 110.846237 62.400687 
L 111.015202 66.612079 
L 110.437795 70.067718 
L 110.033344 70.592473 
L 109.306929 71.155951 
L 108.78274 71.561868 
L 108.290481 72.158727 
L 107.933925 72.810331 
L 107.718396 73.480629 
L 107.526814 74.741109 
L 106.752503 76.71328 
L 106.683321 77.403606 
L 106.752503 79.557372 
L 106.683321 79.895191 
L 106.377322 80.302444 
L 106.305479 80.666969 
L 106.305479 86.511378 
L 106.121879 87.219063 
L 106.026088 87.588928 
L 103.852165 90.686719 
L 103.989199 90.77351 
L 104.075677 90.892348 
L 105.081483 89.973693 
L 105.41409 89.772069 
L 105.513873 89.639879 
L 105.601681 89.452943 
L 105.733394 89.346123 
L 106.175096 89.54107 
L 106.455817 89.575787 
L 106.607913 89.568025 
L 106.612808 89.567775 
L 106.997302 89.546411 
L 106.752503 89.343452 
L 107.293988 88.029562 
L 107.42304 83.722031 
L 107.756978 82.344048 
L 111.205454 76.26864 
L 112.076885 75.088275 
L 113.268951 74.249735 
L 114.708477 73.889217 
L 116.089463 73.96132 
L 117.342729 74.343203 
L 119.2958 75.371349 
L 119.937068 75.969543 
L 120.09805 76.063011 
L 120.197832 76.180513 
L 120.46924 76.408842 
L 120.616918 76.480946 
L 120.74863 76.545038 
L 120.879012 76.399495 
L 120.992099 76.016277 
L 121.270159 75.92815 
L 124.077271 76.273298 
L 126.110639 77.255949 
L 126.760044 77.798535 
L 127.73304 78.530684 
L 128.957794 79.732027 
L 129.83097 80.383765 
L 131.59057 82.061923 
L 132.634805 83.116086 
L 132.934051 83.609337 
L 133.5268 83.865282 
L 134.242076 84.608432 
L 136.117421 86.120746 
L 137.153475 86.963491 
L 137.844007 87.558236 
L 138.287591 88.028685 
L 138.780574 88.524064 
L 139.421343 89.217477 
L 140.094417 90.828256 
L 141.087425 93.158638 
L 141.445405 93.61745 
L 141.548433 94.257561 
L 141.699156 94.518351 
L 141.976599 94.115269 
L 142.033335 93.815393 
L 142.08729 93.45139 
L 142.087447 92.898368 
L 142.507446 92.440151 
L 142.832142 92.250404 
L 142.950786 92.11589 
L 143.099955 92.096724 
L 143.744086 92.149189 
L 144.423486 92.396608 
L 144.967772 92.646524 
L 145.626423 92.974207 
L 146.652108 93.57888 
L 147.057114 93.803812 
L 148.187694 94.561585 
L 149.516568 95.534656 
L 152.208482 98.270158 
L 152.889681 99.260836 
L 153.522451 100.444759 
L 153.812484 101.781348 
L 153.913163 102.59228 
L 154.026591 102.981608 
L 154.194528 103.316743 
L 154.270261 103.597886 
L 154.297161 103.960093 
L 153.816476 103.272828 
L 153.573007 103.051175 
L 154.156147 104.224861 
L 154.351068 104.689992 
L 154.36024 105.397613 
L 154.415169 105.931319 
L 154.504923 107.106845 
L 153.968145 108.254662 
L 153.820467 108.862203 
L 153.58365 109.428351 
L 153.433729 109.813107 
L 153.414304 110.488647 
L 153.085341 111.279736 
L 153.007557 112.051491 
L 153.775323 113.314813 
L 153.711751 115.087041 
L 153.325561 116.118523 
L 152.922426 116.778927 
L 152.553897 117.519993 
L 150.894851 119.91277 
L 150.894851 120.139763 
L 150.591766 120.823781 
L 150.488697 121.345231 
L 150.451525 122.048977 
L 150.321422 122.816314 
L 149.985182 123.340308 
L 148.395225 124.941966 
L 148.128261 125.293839 
L 148.016744 125.654191 
L 148.146847 125.958582 
L 148.437466 125.958582 
L 148.908878 125.766112 
L 149.238359 125.846661 
L 149.444496 125.836486 
L 149.549254 125.928058 
L 149.599943 128.219896 
L 149.659081 128.478501 
L 149.822976 128.658253 
L 150.110216 128.73965 
L 150.392387 128.702343 
L 150.608662 128.561594 
L 150.694834 128.343687 
L 150.360284 127.946028 
L 150.191319 127.628919 
L 150.248767 127.314353 
L 150.52418 127.153254 
L 150.895902 127.134601 
L 151.223693 127.234651 
L 151.363934 127.436448 
L 151.390151 127.502139 
L 151.612312 128.058797 
L 152.702134 129.38574 
L 152.947133 130.042852 
L 152.786616 130.499863 
L 152.38786 130.880564 
L 151.872518 131.178172 
L 151.363934 131.389296 
L 151.186521 130.736423 
L 150.907729 130.396421 
L 150.493766 130.267542 
L 149.912528 130.247193 
L 149.544185 130.440511 
L 149.3296 130.89413 
L 149.111635 131.83698 
L 148.625017 132.943472 
L 148.523638 133.315694 
L 148.483087 133.75066 
L 148.630086 134.117795 
L 149.822976 135.196307 
L 149.495185 135.387081 
L 149.226531 135.359949 
L 148.971395 135.250571 
L 148.685844 135.196307 
L 148.221191 135.262442 
L 147.939021 135.371819 
L 147.695711 135.507481 
L 147.345955 135.644839 
L 146.523097 135.864441 
L 143.936248 136.130678 
L 143.385423 136.299407 
L 142.963012 136.336714 
L 142.746737 136.228185 
L 142.244912 135.75252 
L 142.069189 135.644839 
L 141.229434 135.688929 
L 140.479231 135.820351 
L 139.044721 136.336714 
L 137.76059 135.776261 
L 136.532217 135.847484 
L 135.435636 136.387587 
L 134.55871 137.233778 
L 134.067023 138.168149 
L 133.686852 138.466605 
L 132.88596 138.577679 
L 132.477065 138.496282 
L 132.162791 138.34027 
L 131.846827 138.249546 
L 131.436243 138.353837 
L 131.189555 138.586157 
L 130.523834 139.697737 
L 130.082836 140.244624 
L 129.486391 140.885626 
L 128.960911 141.639397 
L 128.736188 142.742498 
L 128.982876 143.194421 
L 129.528632 143.47168 
L 130.071009 143.834576 
L 130.508627 145.184411 
L 131.385554 146.307013 
L 131.657587 146.886968 
L 131.611966 147.509316 
L 131.350071 148.079096 
L 130.765453 148.925287 
L 130.248422 150.595624 
L 129.694218 151.524907 
L 129.092703 152.983272 
L 128.851084 154.070263 
L 128.541879 154.500142 
L 128.166777 154.91815 
L 127.844055 155.422642 
L 127.713952 156.022946 
L 127.81702 156.539309 
L 127.994433 157.038714 
L 128.085674 157.582209 
L 128.016399 158.408051 
L 127.805193 159.055836 
L 127.441919 159.612898 
L 124.594865 162.531324 
L 124.14035 163.229134 
L 124.082902 163.908292 
L 124.495175 165.321719 
L 124.922656 168.112113 
L 125.245378 169.271174 
L 126.037823 170.269985 
L 128.188743 171.970845 
L 128.720981 172.595738 
L 130.378524 175.030868 
L 131.074659 176.524845 
L 131.21321 177.154824 
L 131.301071 178.643713 
L 131.495381 179.336437 
L 131.862034 179.945219 
L 132.4061 180.292853 
L 134.004506 180.957596 
L 135.251465 181.758001 
L 135.36974 181.995409 
L 135.533636 182.570276 
L 135.793841 183.054419 
L 135.822565 183.171428 
L 135.864807 183.285045 
L 136.011806 183.448687 
L 136.170633 183.516518 
L 136.522079 183.563999 
L 136.591355 183.662354 
L 136.718078 183.723402 
L 137.399006 184.121061 
L 137.934624 184.728995 
L 137.887313 185.30895 
L 137.390557 186.276389 
L 137.395626 186.490056 
L 137.466592 186.896194 
L 137.448005 187.116644 
L 137.28242 187.709317 
L 137.262144 187.981489 
L 137.32973 188.324883 
L 137.47166 188.714063 
L 137.581487 188.881096 
L 137.742004 189.018454 
L 138.019106 189.133767 
L 138.941653 189.323693 
L 139.492478 189.632324 
L 139.499329 189.636154 
L 140.514714 190.203799 
L 140.871229 190.304698 
L 141.171986 190.258912 
L 141.491329 189.614518 
L 141.912051 189.697611 
L 142.329394 189.946042 
L 142.516945 190.088487 
L 142.78053 190.100357 
L 143.037356 190.147839 
L 143.231665 190.245346 
L 143.307699 190.414923 
L 143.420906 190.56076 
L 143.665905 190.421706 
L 143.897386 190.198712 
L 143.978489 190.088487 
L 144.902726 189.849383 
L 145.130828 189.561949 
L 145.095345 188.967581 
L 146.127719 189.416113 
L 147.001267 189.685741 
L 147.874814 189.536513 
L 148.908878 188.724237 
L 149.721598 190.401357 
L 149.822976 190.861759 
L 149.746942 192.001319 
L 149.699632 192.206508 
L 149.429289 192.616885 
L 149.501944 192.889904 
L 149.706391 193.159532 
L 149.822976 193.551256 
L 149.780735 193.941284 
L 149.605012 194.616201 
L 149.577978 195.0181 
L 149.652322 195.379299 
L 150.003769 196.13731 
L 149.912528 196.534121 
L 149.701322 196.79527 
L 149.640495 197.010633 
L 150.003769 197.27687 
L 150.33156 197.331134 
L 150.655972 197.225996 
L 150.941522 197.03607 
L 151.162866 196.830881 
L 151.223693 196.929236 
L 151.230452 196.958064 
L 151.252417 196.975022 
L 151.363934 197.034374 
L 150.865488 197.995878 
L 151.162866 198.594485 
L 151.727208 199.115088 
L 152.033034 199.84427 
L 152.068517 200.096941 
L 152.223964 200.512405 
L 152.257757 200.759988 
L 152.151309 200.893954 
L 151.693415 200.870213 
L 151.588657 200.985526 
L 151.646105 201.382337 
L 151.740725 201.668922 
L 151.761001 201.92668 
L 151.588657 202.228528 
L 151.321693 202.655862 
L 151.739036 202.896662 
L 152.825478 203.011975 
L 152.982615 203.498662 
L 152.6261 203.959912 
L 152.115827 204.366898 
L 151.81169 204.692486 
L 152.245929 206.389955 
L 152.379411 206.72911 
L 152.641307 206.868163 
L 152.746065 207.176794 
L 152.891374 207.483729 
L 153.283372 207.624478 
L 153.589198 207.554951 
L 154.244781 207.248016 
L 154.63171 207.176794 
L 154.859813 207.392157 
L 154.295471 208.574111 
L 154.511745 209.193068 
L 154.619883 209.118454 
L 155.738429 208.948877 
L 156.054393 209.103192 
L 155.980048 209.459305 
L 155.755325 209.874769 
L 155.626912 210.200358 
L 155.797566 210.629388 
L 156.64239 211.524756 
L 156.966802 212.126756 
L 157.162801 213.418935 
L 157.423006 213.612253 
L 158.102244 213.227313 
L 158.323588 213.646169 
L 158.235726 214.032805 
L 158.080279 214.461836 
L 158.102244 215.019745 
L 158.261071 215.316505 
L 159.087308 216.2814 
L 159.146446 216.520504 
L 158.974102 217.626149 
L 159.185308 217.931388 
L 159.646581 217.771985 
L 160.313991 217.280211 
L 160.586025 217.583754 
L 160.542094 217.941562 
L 160.381577 218.304458 
L 160.313991 218.623263 
L 160.419594 219.074339 
L 160.574197 219.36262 
L 161.115729 219.866265 
L 161.273711 220.18507 
L 161.215418 220.525921 
L 161.005057 220.997346 
L 161.25428 221.592562 
L 162.42436 222.616809 
L 162.789324 223.349383 
L 162.771582 224.531337 
L 162.911823 224.824706 
L 163.215115 224.977326 
L 163.969542 225.118075 
L 164.261006 225.274086 
L 164.675814 225.911697 
L 164.997692 227.358191 
L 165.24607 228.073808 
L 165.48431 229.052269 
L 168.632121 233.525719 
L 169.527634 233.894549 
L 172.732893 233.947118 
L 173.96549 234.591512 
L 174.147972 234.871315 
L 174.380299 235.096005 
L 174.655711 235.26219 
L 175.341707 235.483489 
L 175.628947 235.71581 
L 175.828326 236.033767 
L 175.935618 236.414468 
" clip-path="url(#pc7dca86c69)" style="fill: #f5f5f5; stroke: #000000"/>
    <path d="M 113.918201 71.337545 
L 115.388326 71.561868 
L 115.352405 71.70207 
L 113.511089 73.052012 
L 111.87599 73.547391 
L 111.238714 74.249735 
L 111.141593 73.694269 
L 111.337166 72.947862 
L 111.680417 72.290917 
L 112.179329 71.910369 
L 112.481336 71.461724 
L 112.598414 71.337545 
L 112.901752 71.288141 
L 113.918201 71.337545 
" clip-path="url(#pc7dca86c69)" style="fill: #f5f5f5; stroke: #000000"/>
   </g>
  </g>
 </g>
 <defs>
  <clipPath id="pc7dca86c69">
   <rect x="7.2" y="7.2" width="176.770648" height="266.112"/>
  </clipPath>
 </defs>
</svg>
