<?xml version="1.0" encoding="utf-8" standalone="no"?>
<!DOCTYPE svg PUBLIC "-//W3C//DTD SVG 1.1//EN"
  "http://www.w3.org/Graphics/SVG/1.1/DTD/svg11.dtd">
<svg xmlns:xlink="http://www.w3.org/1999/xlink" width="361.744052pt" height="280.512pt" viewBox="0 0 361.744052 280.512" xmlns="http://www.w3.org/2000/svg" version="1.1">
 <metadata>
  <rdf:RDF xmlns:dc="http://purl.org/dc/elements/1.1/" xmlns:cc="http://creativecommons.org/ns#" xmlns:rdf="http://www.w3.org/1999/02/22-rdf-syntax-ns#">
   <cc:Work>
    <dc:type rdf:resource="http://purl.org/dc/dcmitype/StillImage"/>
    <dc:date>2024-03-04T13:11:10.944197</dc:date>
    <dc:format>image/svg+xml</dc:format>
    <dc:creator>
     <cc:Agent>
      <dc:title>Matplotlib v3.8.0, https://matplotlib.org/</dc:title>
     </cc:Agent>
    </dc:creator>
   </cc:Work>
  </rdf:RDF>
 </metadata>
 <defs>
  <style type="text/css">*{stroke-linejoin: round; stroke-linecap: butt}</style>
 </defs>
 <g id="figure_1">
  <g id="patch_1">
   <path d="M 0 280.512 
L 361.744052 280.512 
L 361.744052 0 
L 0 0 
z
" style="fill: #ffffff"/>
  </g>
  <g id="axes_1">
   <g id="PatchCollection_1">
    <path d="M 325.646078 63.801343 
L 326.623546 67.026205 
L 327.018599 69.100871 
L 326.908488 70.962529 
L 326.726603 74.037668 
L 327.236164 76.699904 
L 330.33361 84.038469 
L 331.65618 93.203345 
L 331.581749 98.436956 
L 330.316434 101.129479 
L 329.703815 101.798824 
L 328.30109 105.372702 
L 327.247615 106.202569 
L 324.258952 107.910761 
L 323.531825 108.649766 
L 324.081464 110.987931 
L 326.05673 113.774344 
L 326.523407 114.25231 
L 330.179024 117.996365 
L 337.35727 121.494502 
L 338.755686 122.175985 
L 338.25185 129.166248 
L 337.685035 131.18034 
L 336.288035 133.255006 
L 332.532167 135.956616 
L 330.854623 137.467942 
L 327.539611 142.129127 
L 322.735994 147.471771 
L 321.28174 148.374327 
L 315.596409 149.912911 
L 313.684123 151.209199 
L 314.010471 153.241464 
L 315.997188 152.929506 
L 318.751109 151.984549 
L 321.344719 152.072382 
L 322.358117 152.896191 
L 323.926878 156.215657 
L 324.940276 157.411997 
L 327.476632 159.744104 
L 328.30109 160.804152 
L 328.913709 162.972709 
L 329.028217 167.724755 
L 329.921381 172.331423 
L 329.755344 174.533295 
L 329.21143 176.698823 
L 328.455676 178.679599 
L 327.127382 180.863299 
L 325.575796 182.144443 
L 322.603474 183.994521 
L 321.841049 184.469081 
L 321.556559 184.646158 
L 320.045052 186.348293 
L 317.766339 190.258357 
L 316.323536 191.818143 
L 312.035205 193.293125 
L 303.704736 191.745454 
L 299.588167 192.620751 
L 297.681606 194.065446 
L 298.666376 195.982619 
L 308.685841 206.319606 
L 309.401517 207.431143 
L 309.676337 209.190823 
L 309.08662 209.83291 
L 308.256436 210.311446 
L 307.838481 211.598648 
L 308.502628 213.767204 
L 310.162997 214.687932 
L 314.48568 215.781296 
L 315.418922 216.614192 
L 317.102192 219.118935 
L 318.001081 220.16384 
L 322.180629 222.971454 
L 328.135054 225.230872 
L 329.715266 226.281834 
L 330.734389 227.199533 
L 330.974856 227.538749 
L 329.670531 229.798294 
L 329.604384 229.912885 
L 324.682632 238.439076 
L 323.806645 240.640948 
L 323.497473 242.948825 
L 323.66351 244.057333 
L 324.854395 247.416172 
L 325.117763 248.727604 
L 325.043333 250.678093 
L 325.289526 254.082363 
L 324.888747 256.111599 
L 323.563292 259.656334 
L 321.750997 258.411462 
L 314.010425 248.252167 
L 310.629279 245.175761 
L 306.738706 242.714636 
L 298.024364 239.705005 
L 294.417807 237.806695 
L 290.820267 236.413965 
L 286.505924 236.404426 
L 277.660844 237.902087 
L 266.137896 237.792386 
L 249.989539 238.007019 
L 241.29323 239.600073 
L 239.066181 238.417207 
L 237.731755 237.911627 
L 237.136674 238.36951 
L 237.885034 242.881573 
L 236.839133 244.031052 
L 235.545281 244.059669 
L 232.520281 242.881573 
L 230.8252 242.571547 
L 217.796515 243.778262 
L 215.123155 243.606555 
L 215.344056 244.145523 
L 215.664138 245.466708 
L 215.880531 246.005675 
L 214.23504 245.886435 
L 213.576843 245.705189 
L 212.792417 245.132834 
L 209.726844 247.126536 
L 203.613731 246.520794 
L 200.620289 247.679813 
L 197.707995 245.981827 
L 193.794881 244.43647 
L 189.602259 243.315608 
L 177.917016 242.003962 
L 174.986689 242.147051 
L 174.067017 242.003962 
L 170.843657 239.933946 
L 169.874395 239.600073 
L 155.159645 237.205723 
L 148.55063 237.892548 
L 147.52727 237.606371 
L 148.108827 236.080092 
L 149.578499 235.498198 
L 153.581776 235.531585 
L 153.581776 234.801833 
L 146.179319 234.000537 
L 137.20801 234.072081 
L 134.597765 234.801833 
L 131.031782 236.929084 
L 129.679323 237.205723 
L 128.795717 236.7383 
L 127.839979 234.5872 
L 127.028504 233.928992 
L 125.549816 234.830451 
L 124.747357 237.119869 
L 123.926866 238.836933 
L 122.425636 238.007019 
L 121.735883 238.007019 
L 120.428506 238.846473 
L 119.328506 238.2455 
L 118.841621 236.72876 
L 119.396129 234.801833 
L 117.822769 235.274026 
L 116.447769 238.340893 
L 114.856376 239.600073 
L 114.933015 238.021328 
L 115.298179 236.614289 
L 116.37113 233.928992 
L 115.501048 234.639666 
L 114.252278 236.299494 
L 113.350639 237.205723 
L 113.260475 236.919545 
L 112.611295 236.661986 
L 111.421131 236.404426 
L 111.02441 236.60475 
L 111.069492 237.072173 
L 111.200229 237.596832 
L 111.078508 238.007019 
L 106.236706 241.899031 
L 98.311298 245.600257 
L 96.300643 247.608268 
L 94.371135 250.813454 
L 99.03261 255.826327 
L 99.73138 257.653092 
L 100.294904 259.95682 
L 100.028921 260.858278 
L 98.563757 261.216 
L 91.224415 261.187382 
L 90.151464 261.006137 
L 89.074005 260.486248 
L 88.267038 259.670642 
L 87.843268 257.944039 
L 80.756384 247.679813 
L 80.404745 247.412714 
L 79.566221 247.040683 
L 79.174008 246.806972 
L 78.781795 246.363397 
L 78.691631 246.005675 
L 78.637532 245.633645 
L 78.339992 245.132834 
L 76.275238 243.186829 
L 65.545733 235.231099 
L 63.620733 234.286714 
L 60.239586 233.714359 
L 58.819505 233.122926 
L 57.611308 232.235776 
L 57.097374 231.129224 
L 56.862948 229.879583 
L 56.236309 229.498013 
L 55.294096 229.436008 
L 54.139998 229.125983 
L 51.281802 228.005122 
L 50.353113 227.456615 
L 49.604753 228.324686 
L 47.51295 227.571086 
L 45.294918 228.515471 
L 42.955164 229.974975 
L 40.520739 230.728576 
L 38.478526 230.29931 
L 35.949428 229.269071 
L 33.799019 228.062357 
L 32.892872 227.089354 
L 31.946151 225.777708 
L 27.780578 223.655226 
L 26.838365 221.494588 
L 26.590414 219.205169 
L 25.864595 217.583497 
L 22.988366 213.925197 
L 26.838365 208.254117 
L 26.504759 207.786694 
L 26.017873 206.651524 
L 28.046561 205.201559 
L 29.34943 199.773729 
L 30.99943 198.571784 
L 31.301479 197.961272 
L 31.112134 196.587621 
L 30.674839 195.118578 
L 30.242053 194.20758 
L 29.958036 192.962708 
L 30.814593 191.875235 
L 34.56992 189.671669 
L 39.49287 187.668428 
L 41.589181 187.296397 
L 44.145328 187.925988 
L 45.276885 187.887831 
L 45.745737 186.933906 
L 46.295737 186.12307 
L 47.526475 185.765349 
L 48.829343 185.684265 
L 55.050653 186.037217 
L 59.459668 186.991142 
L 73.958025 193.487367 
L 80.337122 193.773544 
L 80.56704 193.95002 
L 81.288352 194.765626 
L 81.44163 195.008876 
L 81.694089 195.919874 
L 82.311712 195.853099 
L 83.082613 195.452451 
L 83.776876 195.376137 
L 86.995727 197.069353 
L 88.424825 197.584472 
L 93.406381 197.770487 
L 94.587529 197.999429 
L 95.885889 198.571784 
L 98.270724 200.632261 
L 98.974003 201.047218 
L 100.114576 201.133071 
L 100.664576 200.803967 
L 101.034248 200.38901 
L 101.624822 200.174377 
L 102.72933 200.355623 
L 104.099821 201.032909 
L 105.091624 201.047218 
L 105.767854 200.732423 
L 107.183427 199.678336 
L 107.643263 199.444625 
L 107.778509 199.163217 
L 109.185066 197.412766 
L 109.928918 197.035966 
L 110.808016 196.997809 
L 111.718672 197.074123 
L 112.593262 197.040735 
L 117.615392 195.576461 
L 119.058014 195.376137 
L 123.007194 196.368219 
L 123.070308 198.380999 
L 120.825227 199.902509 
L 117.885883 199.444625 
L 117.885883 200.174377 
L 115.49654 199.363541 
L 113.364163 199.072594 
L 111.22277 199.315845 
L 108.806378 200.174377 
L 109.536705 200.675187 
L 111.376049 201.662499 
L 113.201868 202.110844 
L 113.32359 202.797669 
L 113.278508 203.694358 
L 113.765393 204.610126 
L 115.717441 205.487736 
L 119.238342 204.972617 
L 120.978506 205.850227 
L 124.86457 203.494034 
L 129.625225 202.893062 
L 147.148581 204.247634 
L 149.389154 204.753214 
L 153.802678 207.014015 
L 156.264153 207.519595 
L 165.14079 207.195261 
L 169.477674 207.57683 
L 173.38628 209.045874 
L 175.442017 210.247819 
L 177.119066 210.891718 
L 178.985459 211.020498 
L 181.78054 210.519687 
L 189.57521 209.117418 
L 199.16865 211.449764 
L 198.596109 213.367152 
L 200.710453 212.952194 
L 203.676846 211.898108 
L 205.633403 211.888569 
L 207.251845 212.584934 
L 215.123155 213.925197 
L 219.392416 212.947425 
L 222.399382 210.376599 
L 224.612906 206.765995 
L 226.470283 202.649811 
L 229.161676 199.301536 
L 232.678068 198.514548 
L 251.157162 200.174377 
L 251.828883 199.926357 
L 252.1129 199.37308 
L 252.293227 198.819804 
L 252.671916 198.571784 
L 253.366178 198.714873 
L 253.690768 199.010589 
L 253.907161 199.306306 
L 254.258801 199.444625 
L 256.562489 202.048839 
L 257.621915 202.649811 
L 259.569455 202.120383 
L 260.471094 200.155298 
L 260.723553 197.427075 
L 260.538717 190.29172 
L 260.723553 188.970535 
L 261.498963 187.382251 
L 262.35552 186.437866 
L 262.756749 185.560255 
L 262.161668 184.162756 
L 261.165356 183.442543 
L 256.107161 180.962339 
L 254.745686 180.723858 
L 252.049785 180.638005 
L 250.746916 180.237357 
L 248.501835 178.296121 
L 246.504704 175.863613 
L 244.363311 174.175167 
L 241.671919 174.489962 
L 237.885034 172.167156 
L 236.938313 171.11307 
L 236.005117 168.885656 
L 230.32479 160.00939 
L 228.755938 158.402027 
L 226.537906 156.580032 
L 224.207169 155.091909 
L 222.313727 154.481398 
L 220.248973 153.422542 
L 208.635861 140.835509 
L 208.103894 137.830647 
L 212.792417 135.927568 
L 217.043646 135.641391 
L 219.392416 134.854403 
L 220.420284 133.132569 
L 219.762088 130.929004 
L 218.148154 129.784295 
L 216.137499 129.011616 
L 214.298155 127.924142 
L 213.126024 126.43602 
L 210.466188 121.718864 
L 209.76291 119.853942 
L 210.520287 119.310205 
L 210.605943 119.100341 
L 210.484221 118.8714 
L 210.583402 118.251349 
L 211.665369 117.23065 
L 212.882581 114.531043 
L 213.612909 113.448339 
L 214.825614 112.847367 
L 216.58381 112.499185 
L 218.369055 112.422871 
L 219.667416 112.647043 
L 218.076023 109.484783 
L 216.930941 108.840884 
L 214.712909 108.64056 
L 213.396516 107.63417 
L 212.963729 105.344751 
L 213.13504 102.912244 
L 213.612909 101.443201 
L 214.311679 102.172953 
L 215.235859 102.807312 
L 216.299794 103.145956 
L 217.395285 102.974249 
L 218.617006 102.0871 
L 218.680121 101.228568 
L 218.287908 100.260334 
L 218.103072 97.565498 
L 217.823564 97.055148 
L 218.076023 97.150541 
L 219.667416 97.436718 
L 220.221924 97.78967 
L 220.997333 98.452648 
L 222.061268 99.010693 
L 223.449792 99.039311 
L 221.312907 94.775269 
L 220.194875 94.145679 
L 214.469466 93.783188 
L 213.017827 92.724331 
L 212.044057 91.159895 
L 210.583402 89.366518 
L 208.500615 87.864087 
L 201.440781 84.635052 
L 195.562094 80.991061 
L 193.461275 80.485481 
L 191.644472 79.636489 
L 187.735866 76.302523 
L 186.996522 76.126047 
L 185.887506 76.622087 
L 179.026032 74.084649 
L 177.889967 73.955869 
L 175.708 73.412132 
L 174.594476 73.297661 
L 174.445706 73.283352 
L 173.886689 73.550451 
L 173.372755 74.122806 
L 172.642427 74.69993 
L 171.46128 74.957489 
L 169.815789 74.552071 
L 167.367839 73.531372 
L 164.978495 72.205417 
L 163.481774 70.889002 
L 161.245709 73.068719 
L 156.485054 73.693539 
L 145.92686 73.159342 
L 143.835057 72.610835 
L 142.608828 72.491595 
L 141.824402 71.981245 
L 139.867845 69.782449 
L 138.790386 69.286409 
L 137.253092 68.246631 
L 136.639977 65.909516 
L 136.4326 63.453161 
L 136.112518 62.07951 
L 140.066206 55.731143 
L 140.652271 54.405188 
L 141.738746 54.37657 
L 147.52727 51.676964 
L 147.52727 50.804123 
L 141.409648 50.804123 
L 143.199402 49.45432 
L 145.309237 49.230148 
L 147.567843 49.416163 
L 149.7994 49.273075 
L 163.296938 43.072566 
L 167.246117 40.201253 
L 169.464149 37.124847 
L 170.789559 38.73221 
L 172.056362 39.161476 
L 175.203082 38.798985 
L 176.821525 39.037466 
L 179.742835 40.096322 
L 181.289146 40.330033 
L 182.610048 40.301416 
L 183.344884 40.191714 
L 185.558408 39.600281 
L 187.194883 39.385648 
L 188.889964 39.528737 
L 190.427259 40.101091 
L 191.603898 41.202874 
L 192.397341 39.385648 
L 194.484635 38.255248 
L 197.027257 38.007227 
L 199.16865 38.798985 
L 202.126027 37.582731 
L 205.655944 36.662194 
L 209.348156 36.194771 
L 212.792417 36.395095 
L 224.098972 39.037466 
L 226.885037 40.764069 
L 229.188725 41.861082 
L 235.761674 43.90248 
L 236.153887 44.388982 
L 238.462083 47.255524 
L 241.428476 49.263535 
L 244.512082 50.374857 
L 246.207163 49.273075 
L 248.226835 50.351009 
L 251.580932 51.648346 
L 254.723145 52.449643 
L 256.107161 52.039455 
L 256.810439 53.890069 
L 262.161668 58.879093 
L 262.161668 59.613615 
L 261.634209 59.375134 
L 259.894045 58.879093 
L 261.296094 62.294143 
L 261.782979 62.809262 
L 263.744044 63.248067 
L 264.158798 63.095439 
L 263.744044 62.07951 
L 265.191175 60.405372 
L 264.826011 60.386294 
L 264.1047 60.443529 
L 263.744044 60.405372 
L 263.771093 60.262284 
L 264.001011 59.766243 
L 264.271503 59.384673 
L 264.433798 59.613615 
L 264.433798 58.879093 
L 264.176831 58.516602 
L 263.744044 57.28604 
L 264.433798 57.28604 
L 266.079289 58.182729 
L 268.342404 58.392592 
L 270.362075 57.734384 
L 271.245682 56.007781 
L 272.359206 54.853532 
L 274.545681 54.796297 
L 276.033385 56.055477 
L 275.091173 58.879093 
L 276.97109 60.004724 
L 278.783385 60.195509 
L 283.165351 59.42283 
L 283.544039 59.451448 
L 284.16617 59.613615 
L 284.932564 60.128734 
L 286.528465 61.740867 
L 287.601415 62.07951 
L 291.424365 62.07951 
L 292.321496 62.3323 
L 292.812889 62.880806 
L 293.164529 63.429313 
L 294.201414 63.934893 
L 295.707151 65.031906 
L 296.716987 65.284696 
L 297.573544 64.884048 
L 298.137068 64.011207 
L 298.844855 63.162214 
L 300.116166 62.809262 
L 302.221494 61.19713 
L 305.363706 61.220978 
L 310.782557 62.809262 
L 313.757966 63.21945 
L 314.551409 63.810883 
L 313.879688 65.284696 
L 312.919442 65.909516 
L 311.603049 66.128919 
L 308.510427 66.085992 
L 309.673541 68.232322 
L 311.594032 68.456494 
L 313.676819 67.874601 
L 315.317802 67.607502 
L 317.319441 69.291178 
L 318.554686 70.063857 
L 319.100178 69.691827 
L 319.69526 68.084464 
L 319.456326 67.245011 
L 317.012883 66.605881 
L 316.228457 65.885668 
L 315.831736 64.85543 
L 316.012064 63.682103 
L 316.859605 62.952351 
L 318.126408 63.038204 
L 320.99362 63.682103 
L 325.646078 63.801343 
" clip-path="url(#pab8252fc61)" style="fill: #f5f5f5; stroke: #000000"/>
    <path d="M 118.300638 253.212574 
L 120.16703 253.327045 
L 122.358014 253.784929 
L 123.94039 254.748393 
L 123.94039 256.408221 
L 122.560882 257.295371 
L 120.302276 257.510004 
L 115.992441 257.285831 
L 114.053917 256.856565 
L 112.358836 255.816788 
L 109.572771 253.212574 
L 109.928918 252.044017 
L 110.429328 251.562285 
L 111.060475 251.729222 
L 111.768262 252.478052 
L 113.039573 251.586133 
L 113.64818 251.905698 
L 114.089983 252.702225 
L 114.856376 253.212574 
L 118.300638 253.212574 
" clip-path="url(#pab8252fc61)" style="fill: #f5f5f5; stroke: #000000"/>
    <path d="M 99.73138 190.568358 
L 102.368674 189.313948 
L 105.993264 189.604895 
L 108.765804 191.1741 
L 108.806378 193.773544 
L 106.254739 195.309362 
L 102.720313 195.290284 
L 99.961298 193.706769 
L 99.73138 190.568358 
" clip-path="url(#pab8252fc61)" style="fill: #f5f5f5; stroke: #000000"/>
    <path d="M 204.533403 19.443858 
L 207.734222 19.296 
L 209.871107 19.596486 
L 211.782582 20.440709 
L 214.298155 21.924062 
L 224.784218 26.035476 
L 229.242823 28.854323 
L 227.985037 31.596855 
L 226.186267 30.828946 
L 216.800203 29.536379 
L 212.445286 27.828854 
L 207.062501 26.61737 
L 205.227665 25.777916 
L 203.956354 26.021167 
L 202.639961 26.512438 
L 201.440781 26.722302 
L 199.123568 26.254879 
L 196.409635 25.34865 
L 193.94816 24.103779 
L 192.370291 22.644275 
L 192.857176 22.649044 
L 193.163734 22.496416 
L 193.808406 21.924062 
L 198.934224 20.206998 
L 204.533403 19.443858 
" clip-path="url(#pab8252fc61)" style="fill: #f5f5f5; stroke: #000000"/>
    <path d="M 159.320709 161.282879 
L 157.251448 159.804296 
L 156.66989 159.289177 
L 155.858415 158.268478 
L 155.123579 157.061763 
L 154.780956 155.769196 
L 155.159645 154.481398 
L 156.530136 152.93604 
L 158.46866 151.629164 
L 160.727266 150.742014 
L 163.107594 150.408141 
L 165.731364 150.708627 
L 181.117835 157.200082 
L 188.709637 159.694595 
L 197.148979 163.982485 
L 205.029305 167.306911 
L 208.248156 171.289546 
L 209.086681 173.826985 
L 209.483402 176.850925 
L 209.167828 179.81286 
L 207.869468 182.126127 
L 206.688321 182.622168 
L 205.903895 181.901955 
L 204.912091 179.798552 
L 203.96537 178.959098 
L 203.11783 178.730156 
L 200.620289 178.567989 
L 190.747341 176.354884 
L 187.375211 176.092555 
L 183.831769 175.219714 
L 174.067017 168.885656 
L 164.203085 166.19082 
L 161.552266 164.445138 
L 159.320709 161.282879 
" clip-path="url(#pab8252fc61)" style="fill: #f5f5f5; stroke: #000000"/>
   </g>
  </g>
 </g>
 <defs>
  <clipPath id="pab8252fc61">
   <rect x="7.2" y="7.2" width="347.344052" height="266.112"/>
  </clipPath>
 </defs>
</svg>
