<?xml version="1.0" encoding="utf-8" standalone="no"?>
<!DOCTYPE svg PUBLIC "-//W3C//DTD SVG 1.1//EN"
  "http://www.w3.org/Graphics/SVG/1.1/DTD/svg11.dtd">
<svg xmlns:xlink="http://www.w3.org/1999/xlink" width="371.52pt" height="277.92928pt" viewBox="0 0 371.52 277.92928" xmlns="http://www.w3.org/2000/svg" version="1.1">
 <metadata>
  <rdf:RDF xmlns:dc="http://purl.org/dc/elements/1.1/" xmlns:cc="http://creativecommons.org/ns#" xmlns:rdf="http://www.w3.org/1999/02/22-rdf-syntax-ns#">
   <cc:Work>
    <dc:type rdf:resource="http://purl.org/dc/dcmitype/StillImage"/>
    <dc:date>2024-03-04T13:11:10.969930</dc:date>
    <dc:format>image/svg+xml</dc:format>
    <dc:creator>
     <cc:Agent>
      <dc:title>Matplotlib v3.8.0, https://matplotlib.org/</dc:title>
     </cc:Agent>
    </dc:creator>
   </cc:Work>
  </rdf:RDF>
 </metadata>
 <defs>
  <style type="text/css">*{stroke-linejoin: round; stroke-linecap: butt}</style>
 </defs>
 <g id="figure_1">
  <g id="patch_1">
   <path d="M 0 277.92928 
L 371.52 277.92928 
L 371.52 -0 
L 0 -0 
z
" style="fill: #ffffff"/>
  </g>
  <g id="axes_1">
   <g id="PatchCollection_1">
    <path d="M 23.54577 181.263883 
L 23.432727 179.58627 
L 23.526929 178.731426 
L 23.864711 178.02719 
L 24.397626 177.67577 
L 25.554967 177.378736 
L 25.98426 176.919937 
L 26.502371 175.981422 
L 27.227728 175.190726 
L 28.858771 173.773889 
L 29.331127 173.184004 
L 29.584127 172.762858 
L 29.97843 172.495109 
L 30.865276 172.379363 
L 31.504505 172.495109 
L 32.812569 172.949724 
L 33.414117 172.90231 
L 34.026431 172.315215 
L 34.268665 171.421325 
L 34.29558 170.463286 
L 34.077569 167.743962 
L 34.263282 167.405092 
L 34.816383 166.801263 
L 34.948266 166.378721 
L 34.854064 165.459729 
L 34.764953 165.321813 
L 34.540505 164.974435 
L 34.064112 164.551893 
L 33.497553 163.81419 
L 32.515159 161.428157 
L 32.025308 160.613754 
L 30.975627 159.340553 
L 30.522111 158.644685 
L 30.274494 157.893036 
L 30.325632 156.877821 
L 30.733393 156.246101 
L 32.025308 155.123509 
L 32.525273 154.408718 
L 32.925611 153.836362 
L 33.570223 152.303779 
L 33.572915 150.881363 
L 32.558223 149.927508 
L 33.381819 147.43828 
L 34.004899 146.464902 
L 34.727084 145.869071 
L 35.061308 145.593323 
L 36.660053 144.780315 
L 41.948831 143.002296 
L 43.76424 142.139084 
L 50.347624 137.016993 
L 54.833448 133.527026 
L 59.349312 130.013688 
L 63.871014 126.492512 
L 68.420978 122.951812 
L 70.118158 121.611332 
L 73.68284 118.801705 
L 76.101143 116.421251 
L 77.677011 113.703321 
L 77.970383 113.307276 
L 79.068511 113.284964 
L 79.896144 112.975379 
L 80.661873 112.551443 
L 81.559484 112.169343 
L 81.881117 112.570967 
L 82.22832 111.851392 
L 82.185256 111.265691 
L 82.348091 110.780396 
L 82.9566 110.551848 
L 83.261777 110.683614 
L 85.622659 112.370221 
L 86.898467 112.772107 
L 88.271763 112.159395 
L 91.291741 108.926732 
L 92.573908 108.107585 
L 92.296282 107.257694 
L 92.817625 107.086398 
L 94.866972 107.369695 
L 97.906024 105.524969 
L 98.283257 104.793666 
L 98.393459 104.26221 
L 98.100998 104.016246 
L 97.520315 103.849342 
L 97.045595 103.46722 
L 96.829428 103.085098 
L 97.015925 102.913802 
L 99.215741 102.865488 
L 100.091005 102.601956 
L 100.945076 101.991439 
L 102.481557 101.473159 
L 106.959602 101.165705 
L 107.896325 100.899976 
L 108.197264 100.137929 
L 108.612643 100.008359 
L 108.934774 99.905142 
L 109.86302 100.023731 
L 110.740403 100.333382 
L 113.054661 101.723515 
L 113.940521 101.806967 
L 113.940521 101.468767 
L 113.406462 100.952683 
L 113.94476 100.335578 
L 115.750389 99.226546 
L 114.754326 100.596914 
L 114.396167 101.433629 
L 114.847574 101.806967 
L 115.133678 102.180304 
L 120.00379 106.612039 
L 121.578418 107.292831 
L 123.248413 106.963416 
L 123.538755 106.660354 
L 124.070695 105.786305 
L 124.316532 105.524969 
L 124.820921 105.485439 
L 126.173024 105.544734 
L 126.45065 105.325123 
L 126.757946 104.407152 
L 127.537842 103.930598 
L 128.574172 103.822989 
L 133.955032 105.061591 
L 138.645006 106.708668 
L 143.474852 107.240125 
L 149.021016 108.518257 
L 150.877508 108.676376 
L 152.863277 108.474334 
L 156.059156 107.516834 
L 156.983163 107.369695 
L 157.127275 107.209379 
L 157.996181 106.528588 
L 158.195393 106.431959 
L 158.492093 106.185995 
L 159.127878 106.41439 
L 159.753067 106.776747 
L 160.00738 106.963416 
L 162.219912 107.152281 
L 172.390352 106.265055 
L 174.121807 106.313369 
L 175.717627 106.963416 
L 175.82571 107.033691 
L 177.033702 107.811111 
L 177.847507 108.028526 
L 179.112719 108.107585 
L 180.14269 107.942878 
L 181.011597 107.543187 
L 185.962242 104.455467 
L 187.250766 103.028 
L 187.842046 102.544857 
L 189.641318 101.815751 
L 191.453305 101.376531 
L 198.898347 101.104214 
L 199.553205 100.915349 
L 200.080907 100.647425 
L 202.106942 99.162859 
L 203.20473 97.941826 
L 203.673092 96.637341 
L 202.840214 95.543682 
L 199.542609 95.069324 
L 197.965862 94.667437 
L 198.218057 94.067901 
L 199.576518 93.9559 
L 203.602054 94.752796 
L 206.390953 95.273603 
L 208.346112 95.49976 
L 210.801026 96.199291 
L 213.248014 96.839383 
L 214.089369 97.015071 
L 214.670053 97.282995 
L 214.805687 97.902296 
L 214.79721 98.635794 
L 214.932844 99.226546 
L 215.320673 99.226546 
L 215.293122 98.864189 
L 215.399086 98.692893 
L 215.555913 98.600657 
L 215.676712 98.488656 
L 216.535995 98.51001 
L 216.998825 99.202236 
L 217.924416 99.952444 
L 219.023334 100.760428 
L 221.336319 101.742567 
L 225.267432 102.784648 
L 227.985319 102.558164 
L 231.860533 102.161632 
L 237.47203 102.001069 
L 240.487424 100.740147 
L 244.267218 97.980759 
L 246.767369 96.487223 
L 250.716941 96.39577 
L 253.278122 97.255795 
L 258.294278 99.536428 
L 264.589864 101.410387 
L 267.560587 102.42647 
L 268.304076 102.996728 
L 267.98096 103.667341 
L 267.336507 104.654749 
L 267.332072 105.503996 
L 267.324744 106.848687 
L 268.419852 107.915845 
L 269.448855 108.062598 
L 270.72927 107.644679 
L 270.912851 106.548934 
L 271.057612 106.054427 
L 271.554425 106.092503 
L 271.905525 106.766589 
L 272.82449 107.408439 
L 274.138546 107.203478 
L 275.379308 107.352261 
L 277.931205 107.685824 
L 278.395797 107.122746 
L 279.213781 106.774152 
L 278.117102 106.307552 
L 276.806375 106.016636 
L 272.694834 105.320557 
L 271.136868 104.639731 
L 269.826052 103.995835 
L 269.369033 103.144071 
L 271.461963 103.580284 
L 278.622299 104.931337 
L 283.302113 105.421204 
L 286.389287 105.583756 
L 287.451974 105.945022 
L 290.277191 108.301368 
L 294.096156 111.413013 
L 299.760988 116.24072 
L 305.249177 120.955749 
L 308.309732 123.5305 
L 312.301192 125.975077 
L 313.263347 126.543867 
L 314.210666 126.965519 
L 316.043846 127.272973 
L 316.50585 127.516741 
L 316.86189 128.043805 
L 316.893679 128.465457 
L 316.552474 128.742166 
L 315.776817 128.840991 
L 314.865525 128.485222 
L 312.890353 126.921597 
L 311.41957 126.412101 
L 310.431984 125.711544 
L 309.944549 125.489738 
L 308.363564 125.474365 
L 307.674797 125.322834 
L 307.064443 124.721102 
L 307.308161 124.628866 
L 307.528566 124.466354 
L 307.776523 124.382902 
L 307.325115 123.710895 
L 305.612734 121.771736 
L 305.256695 121.771736 
L 304.686608 122.055033 
L 303.987244 121.63997 
L 303.256091 121.020669 
L 302.588517 120.702234 
L 301.520398 120.836196 
L 301.030844 121.1722 
L 300.653612 121.63997 
L 299.92034 122.140681 
L 299.589731 121.916679 
L 298.14438 121.402791 
L 298.809835 120.812039 
L 299.0917 120.482624 
L 299.212499 120.131247 
L 298.962424 120.00607 
L 298.402933 119.913833 
L 297.788341 119.889676 
L 297.400512 119.96654 
L 297.254281 120.548507 
L 297.589128 121.475262 
L 298.195243 122.467901 
L 298.852221 123.247517 
L 298.722945 123.366107 
L 298.665724 123.40344 
L 298.614861 123.464931 
L 298.50042 123.649404 
L 298.14438 123.649404 
L 296.584588 120.609998 
L 296.008143 119.96654 
L 295.414744 119.863323 
L 294.730215 119.995089 
L 293.842235 120.298151 
L 293.223405 120.254229 
L 292.329067 120.039011 
L 291.710236 119.96654 
L 292.1129 121.191965 
L 292.447747 121.611421 
L 293.401424 121.94962 
L 293.41414 122.397625 
L 293.242478 123.00375 
L 293.134395 123.649404 
L 293.490434 123.649404 
L 293.6515 122.823669 
L 294.694187 122.331742 
L 295.164668 120.836196 
L 295.656342 120.675881 
L 296.141658 120.970159 
L 296.847379 122.735825 
L 297.690854 124.163292 
L 297.99815 125.379933 
L 296.881287 125.893821 
L 296.330274 126.495553 
L 296.728699 127.859333 
L 297.614559 129.33731 
L 298.50042 130.281634 
L 299.844045 130.997563 
L 300.95455 131.265488 
L 301.450462 130.760384 
L 300.95455 129.176994 
L 301.653913 129.730412 
L 302.272744 130.461714 
L 302.518581 131.296233 
L 302.090486 132.157106 
L 302.802565 133.048723 
L 303.807105 133.215627 
L 306.352364 132.894996 
L 306.352364 133.261745 
L 305.850094 133.24198 
L 305.511009 133.340805 
L 304.934564 133.630691 
L 304.934564 133.966694 
L 305.366898 134.884665 
L 306.006921 135.725773 
L 306.860992 136.338485 
L 307.954542 136.580056 
L 308.901862 136.463663 
L 310.114092 136.154013 
L 311.279698 135.684047 
L 312.074429 135.106472 
L 311.415332 134.463014 
L 309.200681 133.261745 
L 308.825568 132.8928 
L 308.651787 132.534835 
L 308.439858 132.262519 
L 307.954542 132.157106 
L 307.395052 132.11538 
L 303.415038 130.698894 
L 302.766537 130.281634 
L 301.558546 128.529144 
L 300.95455 128.070159 
L 301.416554 127.659487 
L 301.927301 127.387171 
L 303.090787 126.965519 
L 307.738375 129.016679 
L 308.488602 130.112534 
L 308.783182 130.685717 
L 309.4995 131.212782 
L 310.381122 131.603688 
L 311.86462 131.919927 
L 312.481331 132.354755 
L 313.013271 132.958683 
L 313.466798 133.630691 
L 313.119236 133.865674 
L 312.697498 134.243403 
L 312.398679 134.368581 
L 312.398679 134.704585 
L 313.25487 134.895646 
L 313.979665 134.366385 
L 314.541275 134.29611 
L 314.922746 135.877304 
L 314.806185 137.884541 
L 314.922746 138.420391 
L 315.306336 138.809101 
L 315.700523 138.784944 
L 315.965433 138.398429 
L 315.954837 137.686892 
L 316.344785 137.686892 
L 316.806788 138.736629 
L 317.243361 138.486274 
L 318.120744 136.913864 
L 318.93031 136.443898 
L 320.009025 136.121071 
L 321.871875 135.877304 
L 322.100758 135.622556 
L 321.992674 134.39713 
L 322.066849 133.966694 
L 322.414412 133.736104 
L 322.74502 133.762457 
L 323.137087 133.887635 
L 326.513106 134.550858 
L 327.398966 134.368581 
L 327.398966 134.704585 
L 327.089551 135.027412 
L 327.123459 135.244826 
L 327.295121 135.482005 
L 327.398966 135.877304 
L 327.398966 137.50242 
L 327.127698 138.314978 
L 326.525821 138.653177 
L 325.928183 138.420391 
L 325.654796 137.50242 
L 325.46406 137.227907 
L 325.012653 137.04563 
L 324.472236 136.94461 
L 324.020828 136.913864 
L 323.709294 137.13567 
L 323.427429 137.625401 
L 323.09894 138.420391 
L 322.8637 138.701492 
L 322.634817 138.874984 
L 322.461036 139.140712 
L 322.38898 139.711699 
L 322.514018 140.208018 
L 322.808598 140.298058 
L 323.162519 140.142135 
L 323.45498 139.896172 
L 323.190069 139.439382 
L 323.137087 139.088006 
L 323.240932 138.769571 
L 323.45498 138.420391 
L 323.842809 138.420391 
L 323.950892 139.74464 
L 324.306932 140.693357 
L 324.96179 141.055714 
L 325.979046 140.634062 
L 326.258792 140.324412 
L 326.733511 139.533815 
L 327.042926 139.191223 
L 327.454067 138.92769 
L 329.787398 138.082191 
L 329.768325 137.893326 
L 329.533084 137.317947 
L 329.314798 136.984139 
L 329.018098 136.738176 
L 328.719279 136.424133 
L 328.500993 135.877304 
L 328.325093 135.11306 
L 327.943622 134.080892 
L 327.29724 133.470375 
L 326.330847 133.966694 
L 324.78377 133.035547 
L 324.014471 132.864251 
L 323.09894 133.261745 
L 322.778928 132.894996 
L 322.895489 132.692955 
L 323.09894 132.157106 
L 322.259704 132.042908 
L 320.006906 131.208389 
L 319.544902 130.865797 
L 318.998127 130.255281 
L 317.910935 129.903904 
L 317.103488 129.429546 
L 317.412903 128.439104 
L 318.266974 128.019648 
L 319.07866 128.465457 
L 319.811932 129.174798 
L 320.435001 129.543744 
L 320.994492 129.730412 
L 326.621189 132.675386 
L 333.629659 135.337062 
L 336.323268 137.317947 
L 336.93574 138.334743 
L 337.774977 141.802389 
L 338.690507 143.972138 
L 340.074399 146.02769 
L 341.661742 147.308018 
L 348.087273 149.877656 
L 347.399267 149.991656 
L 345.641725 149.888461 
L 344.916368 150.026519 
L 343.541017 150.661028 
L 341.23441 150.623376 
L 341.019091 150.661028 
L 340.385245 150.411408 
L 340.003054 150.142265 
L 340.043426 149.857781 
L 340.663814 149.55238 
L 338.367974 149.308339 
L 337.473053 149.368303 
L 336.685793 149.888461 
L 336.415298 149.17307 
L 335.871617 148.8342 
L 335.202782 148.56924 
L 334.552787 148.044899 
L 334.053516 148.980625 
L 333.242031 149.881488 
L 332.186967 150.515997 
L 330.965031 150.661028 
L 330.485946 150.396068 
L 329.8521 149.417111 
L 329.576222 149.150757 
L 328.891238 149.033617 
L 328.366398 149.093582 
L 328.190105 149.365514 
L 328.541345 149.888461 
L 328.266813 150.246854 
L 328.182031 150.578751 
L 328.151079 151.397337 
L 327.639696 150.92041 
L 327.349015 151.151901 
L 327.281728 151.779437 
L 327.440525 152.503196 
L 327.147153 152.35956 
L 326.37335 152.133647 
L 326.489084 152.298201 
L 326.629041 152.6803 
L 326.731318 152.869956 
L 325.981738 153.094474 
L 324.68444 154.136185 
L 323.408674 154.617296 
L 323.152982 155.201602 
L 323.042631 155.92815 
L 322.817892 156.58776 
L 322.430317 156.58776 
L 321.987567 156.020188 
L 321.029397 155.734311 
L 319.873402 155.672952 
L 318.841216 155.816588 
L 317.869588 156.282359 
L 317.667726 156.882005 
L 318.161615 158.431322 
L 317.775386 158.431322 
L 317.578907 157.971129 
L 317.192678 157.727087 
L 316.655726 157.651783 
L 315.997657 157.693619 
L 316.103971 158.531728 
L 315.021992 158.957058 
L 312.117875 159.135558 
L 312.4893 159.767277 
L 312.746337 160.030843 
L 313.151407 160.306959 
L 312.190545 160.315326 
L 311.157013 160.650012 
L 310.229795 161.17017 
L 309.595949 161.746109 
L 309.294502 161.359825 
L 309.112826 161.225951 
L 308.908273 161.167381 
L 308.530119 161.011194 
L 308.787156 161.517407 
L 308.851752 161.746109 
L 308.185608 161.566215 
L 307.347209 160.662563 
L 306.718746 160.306959 
L 306.461709 161.542508 
L 306.450943 162.040354 
L 306.718746 162.483813 
L 301.569926 162.759929 
L 300.675006 162.651156 
L 300.575421 162.234193 
L 300.307618 162.086373 
L 299.428846 162.115658 
L 298.881128 162.041748 
L 298.68465 161.850698 
L 298.550075 161.601078 
L 297.357745 160.838273 
L 296.976899 160.866163 
L 296.406303 161.34588 
L 297.010543 162.613503 
L 297.371203 163.10856 
L 297.82741 163.554808 
L 297.82741 163.95922 
L 297.470788 164.187922 
L 297.250086 164.162821 
L 297.00516 164.034525 
L 296.567793 163.95922 
L 296.092745 164.062415 
L 295.826287 164.286934 
L 295.616351 164.546315 
L 295.308176 164.727604 
L 294.037793 165.099942 
L 293.272064 165.159906 
L 292.640909 164.897736 
L 291.408207 163.563175 
L 291.007175 163.221516 
L 290.53751 162.953768 
L 289.817537 162.701359 
L 289.162159 162.748772 
L 288.87417 163.388859 
L 289.143319 165.921317 
L 288.876861 167.109453 
L 287.80834 167.677024 
L 287.231015 167.635189 
L 285.966015 167.347916 
L 285.173371 167.274007 
L 284.775031 166.988129 
L 284.402259 165.585237 
L 283.894914 165.065079 
L 283.207238 166.084477 
L 282.484573 167.446928 
L 281.525057 168.637852 
L 279.583147 169.325353 
L 278.234711 170.083975 
L 277.657386 170.254107 
L 276.85936 170.014249 
L 276.314333 169.544294 
L 275.763923 169.238893 
L 274.973971 169.484329 
L 275.130077 168.427279 
L 275.327902 168.045179 
L 271.524827 167.930828 
L 270.351337 167.677024 
L 268.334066 166.801263 
L 267.336869 166.69249 
L 266.374662 167.274007 
L 265.588746 165.426261 
L 265.045066 164.524003 
L 263.980581 163.797455 
L 264.033065 163.079275 
L 263.889071 162.428032 
L 262.852847 162.296946 
L 262.881108 162.190962 
L 263.288869 161.662437 
L 263.450358 161.510434 
L 262.684629 160.233049 
L 261.540746 159.374021 
L 260.188272 158.964031 
L 258.816958 159.023996 
L 255.702905 159.594356 
L 254.848357 160.094991 
L 252.461006 162.419664 
L 251.528404 163.089036 
L 250.716962 163.640154 
L 250.610606 163.712389 
L 249.898707 164.387339 
L 249.435771 165.231027 
L 249.162585 167.227987 
L 248.993021 167.550123 
L 248.723872 167.677024 
L 247.905659 167.901543 
L 248.18692 168.427279 
L 249.661856 169.484329 
L 248.515282 170.577637 
L 248.20576 170.993205 
L 249.556888 170.991811 
L 249.48212 171.167824 
L 249.170659 171.901041 
L 247.316223 173.773889 
L 246.215404 174.29823 
L 245.331249 173.633042 
L 244.499579 172.709866 
L 243.550829 172.465824 
L 243.137685 173.234207 
L 242.9116 174.731927 
L 242.806632 177.459619 
L 242.620919 177.809645 
L 241.417823 179.098186 
L 241.355919 179.441239 
L 241.477036 180.265403 
L 241.417823 180.607062 
L 239.994025 181.71292 
L 240.832424 182.269336 
L 241.762334 183.12418 
L 242.431169 184.200754 
L 242.483653 185.430725 
L 241.879414 186.321826 
L 240.808201 186.975859 
L 239.50552 187.41095 
L 238.216296 187.641047 
L 236.24478 187.641047 
L 235.703791 187.758187 
L 234.465705 188.378751 
L 233.9772 188.504258 
L 233.691902 188.805476 
L 233.48062 189.169447 
L 233.111886 189.618484 
L 232.963854 190.013134 
L 232.817168 190.188845 
L 232.599157 190.236259 
L 232.040673 190.147009 
L 231.814588 190.188845 
L 231.312625 190.675534 
L 230.713769 191.46623 
L 230.213152 192.312707 
L 229.834997 193.693287 
L 229.405705 194.719657 
L 228.831072 195.761367 
L 228.228178 196.518595 
L 226.879742 197.586801 
L 225.99155 198.106959 
L 224.118273 198.625722 
L 223.818172 199.341114 
L 223.702438 200.201536 
L 223.216624 200.940634 
L 222.243651 201.264164 
L 221.383656 201.420348 
L 220.938278 201.501233 
L 219.797087 201.881938 
L 219.304544 202.633588 
L 218.797198 203.162113 
L 216.971022 203.725501 
L 217.140586 204.293072 
L 216.981788 204.346064 
L 216.839139 204.343275 
L 216.758395 204.406029 
L 216.782618 204.659833 
L 216.460985 204.659833 
L 216.016889 204.525958 
L 214.959134 205.450528 
L 214.295682 205.765691 
L 213.371155 205.701543 
L 212.831511 205.576036 
L 212.578511 205.871675 
L 212.516607 207.054232 
L 212.001187 208.67746 
L 211.784522 209.717776 
L 211.981001 210.187731 
L 212.761533 210.433167 
L 213.057596 211.059309 
L 212.947245 211.894629 
L 212.516607 212.766208 
L 212.157209 213.098313 
L 212.044251 213.202694 
L 212.010256 213.189035 
L 211.912368 213.149702 
L 211.219309 212.361795 
L 210.158862 212.272546 
L 208.942309 212.311592 
L 207.789005 211.908575 
L 206.958681 210.889177 
L 206.449989 209.781924 
L 205.839021 208.846197 
L 204.695138 208.337196 
L 203.984585 208.38182 
L 203.510882 208.579843 
L 203.031797 208.683038 
L 202.307787 208.432023 
L 201.957893 208.102915 
L 200.830159 206.596828 
L 197.150892 203.899816 
L 197.00286 202.469034 
L 197.565382 201.308789 
L 197.578839 200.710537 
L 193.592743 201.308789 
L 192.876807 201.683916 
L 192.292753 202.219414 
L 192.020913 202.68658 
L 191.81636 203.206737 
L 191.442243 203.894238 
L 190.833966 204.537114 
L 190.204157 204.869011 
L 189.590498 205.10887 
L 189.044125 205.47563 
L 187.24621 208.309305 
L 183.833401 212.014559 
L 183.009805 213.33099 
L 182.600699 214.930511 
L 182.299252 215.744913 
L 181.693667 216.437992 
L 180.915826 216.821487 
L 179.960348 217.058556 
L 177.271549 217.232872 
L 176.908198 217.17988 
L 176.415656 217.019509 
L 176.106134 216.796385 
L 175.28523 215.941542 
L 174.523538 216.050314 
L 173.823751 216.424047 
L 173.067443 216.668089 
L 172.144262 216.404524 
L 170.419017 215.446485 
L 168.362719 215.569203 
L 164.115548 216.38779 
L 161.84393 216.100517 
L 160.753877 216.195345 
L 159.572313 216.796385 
L 158.972111 217.216138 
L 158.724494 217.436473 
L 158.635675 217.76558 
L 158.514558 218.51723 
L 158.465654 219.45338 
L 158.315388 222.329861 
L 158.414973 222.81934 
L 158.619526 223.098245 
L 158.832219 223.261325 
L 159.287015 223.610036 
L 159.486186 223.958667 
L 159.521175 224.821878 
L 159.198196 226.549695 
L 159.225111 227.468687 
L 160.907292 233.943467 
L 160.821164 234.784366 
L 160.159058 236.275113 
L 160.078313 237.046286 
L 160.277484 237.584573 
L 160.587005 237.749127 
L 160.942281 237.834193 
L 161.278718 238.140988 
L 161.655526 238.828489 
L 161.765877 239.156202 
L 162.075399 240.701336 
L 161.962356 241.531079 
L 161.558633 242.240892 
L 160.845388 242.90887 
L 160.468385 243.169549 
L 160.097154 243.426239 
L 159.604611 243.557324 
L 159.117451 243.401137 
L 156.119132 241.903417 
L 155.222866 241.826718 
L 154.385813 242.07076 
L 153.696791 242.550477 
L 151.193706 244.728725 
L 150.773833 245.258645 
L 150.402408 245.982403 
L 150.025599 247.502436 
L 149.93678 247.646072 
L 150.033674 247.95984 
L 150.426631 248.827235 
L 150.520833 248.962504 
L 150.071355 251.801757 
L 150.203238 252.142021 
L 150.49661 252.273106 
L 150.701163 252.46834 
L 150.561206 252.996865 
L 150.29744 253.274376 
L 149.530365 253.662054 
L 149.234301 253.897728 
L 148.015056 255.83054 
L 147.422929 256.478995 
L 146.090641 257.331049 
L 145.004625 257.870731 
L 144.722019 258.750676 
L 144.107013 258.70884 
L 142.9093 257.962769 
L 142.138189 257.879098 
L 130.191185 258.654816 
L 130.212378 258.639443 
L 130.716767 258.281478 
L 130.879952 257.591902 
L 131.257184 257.062641 
L 131.816675 256.676127 
L 132.528754 256.406007 
L 132.528754 256.070003 
L 131.089761 256.021689 
L 130.053431 255.813059 
L 129.267177 255.35627 
L 128.586887 254.565673 
L 128.247802 254.03202 
L 128.171508 253.74433 
L 128.262637 252.88785 
L 128.593245 252.760476 
L 130.189066 252.510121 
L 130.716767 252.352001 
L 127.703146 251.541639 
L 125.997123 251.352774 
L 125.03073 251.649248 
L 124.70648 251.649248 
L 124.562369 249.567343 
L 123.850289 247.437123 
L 122.845749 245.552867 
L 121.828493 244.211049 
L 121.504243 243.34798 
L 121.440664 243.306254 
L 121.311388 243.082252 
L 121.008331 243.102017 
L 120.662887 243.176684 
L 120.404335 243.108605 
L 120.041937 242.62107 
L 119.868156 242.186242 
L 119.959285 241.740433 
L 120.404335 241.230937 
L 120.847265 240.941052 
L 121.72041 240.532577 
L 122.184533 240.124101 
L 123.225101 238.630752 
L 123.608691 238.281571 
L 124.312293 238.444083 
L 125.134575 238.239845 
L 126.80669 237.581015 
L 126.734634 237.126421 
L 126.736753 236.810183 
L 126.80669 236.441237 
L 126.03739 235.723112 
L 125.68135 235.468364 
L 125.204511 235.367343 
L 124.159705 235.564992 
L 123.746445 235.474952 
L 123.250532 234.965456 
L 122.360433 235.624287 
L 122.087046 235.90978 
L 121.828493 236.441237 
L 121.733125 237.165951 
L 121.909026 237.556857 
L 121.949292 237.851135 
L 121.440664 238.281571 
L 121.116414 238.321101 
L 119.308665 238.281571 
L 118.494861 238.483613 
L 118.026499 238.498985 
L 117.528468 238.281571 
L 117.528468 237.912626 
L 118.274455 237.912626 
L 118.274455 237.581015 
L 117.286869 237.365797 
L 116.269613 236.994655 
L 115.356202 236.915595 
L 114.68227 237.581015 
L 114.330469 237.581015 
L 114.425837 237.049558 
L 115.006521 235.703347 
L 114.294441 235.422246 
L 114.129137 234.829298 
L 114.330469 233.307399 
L 114.046485 232.494841 
L 113.397985 232.633195 
L 112.67319 233.248104 
L 112.164562 233.860817 
L 112.6414 235.393696 
L 111.876339 236.825555 
L 110.464897 237.879685 
L 108.996233 238.281571 
L 108.063749 238.101491 
L 106.84728 237.346032 
L 105.851217 237.010028 
L 105.768565 236.641083 
L 105.768565 236.272137 
L 105.584187 236.105234 
L 105.075559 236.07888 
L 104.723758 235.995428 
L 103.986248 235.716523 
L 108.088153 233.820749 
L 108.98711 232.787406 
L 109.109573 232.094327 
L 109.016717 231.376146 
L 108.748913 230.729087 
L 108.347881 230.257737 
L 107.590227 229.959309 
L 106.486716 230.330253 
L 105.949764 230.135019 
L 105.404737 228.902259 
L 105.710221 227.410117 
L 106.959073 224.361685 
L 107.077498 223.378544 
L 107.034434 221.376006 
L 107.222839 220.423545 
L 107.676355 219.761146 
L 108.198504 219.260511 
L 108.455541 218.680389 
L 108.117759 217.786498 
L 108.380179 216.905158 
L 109.431206 214.457767 
L 109.900871 213.672649 
L 108.984419 213.300311 
L 107.509177 212.019519 
L 106.685886 211.304745 
L 106.368291 211.129035 
L 105.640243 210.844552 
L 105.369748 210.678603 
L 104.947184 210.038516 
L 104.439838 208.61889 
L 103.948641 208.228423 
L 103.166764 208.261891 
L 102.643269 208.701167 
L 102.212631 209.253399 
L 101.707976 209.614581 
L 101.206013 209.648049 
L 100.187285 209.433292 
L 99.666481 209.401218 
L 99.261412 209.542065 
L 98.591231 210.063618 
L 98.353034 210.184941 
L 97.996412 210.080352 
L 97.227992 209.575534 
L 96.93278 209.515156 
L 96.818885 209.491862 
L 96.039699 209.70383 
L 93.665805 210.900333 
L 93.232475 209.561589 
L 92.381964 208.538007 
L 91.422448 207.655273 
L 90.667486 206.741859 
L 89.904448 204.737926 
L 89.305592 204.237292 
L 87.932932 204.159198 
L 85.217219 204.486912 
L 84.386894 204.467388 
L 83.127322 204.184525 
L 83.002123 204.156409 
L 82.220245 204.072738 
L 81.708862 204.267971 
L 81.684639 204.449259 
L 81.735777 205.517466 
L 81.843437 205.70991 
L 82.309064 206.143607 
L 82.401921 206.288638 
L 82.152958 207.026342 
L 81.819213 207.104435 
L 81.357623 207.029131 
L 80.734543 207.298274 
L 80.392724 207.680374 
L 80.183981 208.053033 
L 80.009186 208.365086 
L 79.597388 208.762526 
L 79.03083 208.957759 
L 78.399676 209.005173 
L 77.835808 209.214352 
L 77.473803 209.890697 
L 77.140058 209.748455 
L 76.725569 209.622948 
L 76.309734 209.550433 
L 75.970606 209.572745 
L 75.807771 209.765189 
L 75.77009 210.099875 
L 75.77009 210.419222 
L 75.708186 210.575409 
L 75.32734 210.536362 
L 74.497015 210.204465 
L 73.997744 210.176574 
L 71.899728 210.646529 
L 70.950978 211.050942 
L 69.976659 211.649193 
L 68.58785 211.718919 
L 69.046749 210.956114 
L 69.01176 210.091508 
L 68.447892 208.674671 
L 68.302552 208.161485 
L 68.410212 207.365212 
L 68.58785 206.70839 
L 68.625531 206.079459 
L 68.359602 205.490432 
L 68.302552 205.364068 
L 68.516661 205.392781 
L 68.531329 205.394747 
L 68.573808 205.357249 
L 68.603999 205.330599 
L 68.620148 205.199514 
L 68.66052 205.029382 
L 68.194892 204.567794 
L 67.690238 204.354432 
L 65.395743 204.178721 
L 61.450019 202.906914 
L 60.123115 202.817665 
L 58.79621 203.024055 
L 58.477269 203.148167 
L 58.483858 203.051494 
L 58.502838 202.77304 
L 58.385758 202.322608 
L 58.127375 201.960032 
L 57.751912 201.635108 
L 57.509678 201.545858 
L 56.39271 201.395249 
L 55.575843 200.855568 
L 55.605449 200.095552 
L 55.919008 199.207239 
L 55.962072 198.293825 
L 55.5893 197.678839 
L 55.134439 197.726253 
L 54.597486 198.060939 
L 53.977098 198.304981 
L 51.693369 198.13206 
L 50.778263 198.268724 
L 50.436443 196.745902 
L 49.654566 195.132437 
L 48.564512 193.746278 
L 47.275289 192.916536 
L 46.461113 192.899802 
L 45.733065 193.216359 
L 45.115368 193.58033 
L 44.610714 193.693287 
L 44.151815 193.3586 
L 43.982251 192.785451 
L 43.930856 192.344299 
L 43.901506 192.092372 
L 43.705028 191.416027 
L 43.238054 190.619753 
L 42.757623 190.035447 
L 41.436102 189.024416 
L 41.201942 188.540516 
L 40.994697 186.886609 
L 40.662299 186.218631 
L 39.829282 185.798879 
L 38.052899 185.589701 
L 37.459426 185.075121 
L 37.663979 184.543807 
L 37.709734 183.994364 
L 37.596692 183.457472 
L 37.336963 182.962415 
L 37.038208 182.556608 
L 36.782516 182.31675 
L 36.477032 182.25818 
L 36.016787 182.386476 
L 35.603644 182.814595 
L 34.854064 184.273269 
L 34.360175 184.727884 
L 31.955329 184.00552 
L 30.633808 183.062821 
L 27.977308 182.491066 
L 26.361068 181.718499 
L 24.348614 181.393527 
L 23.54577 181.263883 
" clip-path="url(#pad890d1ad9)" style="fill: #f5f5f5; stroke: #000000"/>
    <path d="M 114.508489 242.001769 
L 114.673793 242.392676 
L 114.574187 243.231587 
L 114.029531 244.009007 
L 112.872402 244.211049 
L 112.247214 244.11442 
L 112.028928 244.017792 
L 111.804284 243.842103 
L 111.804284 243.508296 
L 112.164562 243.508296 
L 111.965349 243.222802 
L 111.649576 242.625462 
L 111.452483 242.337773 
L 112.295957 242.054476 
L 112.961412 241.962239 
L 114.508489 242.001769 
" clip-path="url(#pad890d1ad9)" style="fill: #f5f5f5; stroke: #000000"/>
    <path d="M 114.135495 237.750114 
L 114.650481 237.903842 
L 116.055566 237.596387 
L 116.818508 237.581015 
L 116.818508 237.912626 
L 115.915693 238.33867 
L 116.532404 240.466694 
L 115.750389 241.230937 
L 113.340764 240.433752 
L 112.223902 239.757352 
L 112.355297 238.819617 
L 113.033468 237.811605 
L 113.503949 237.501955 
L 114.135495 237.750114 
" clip-path="url(#pad890d1ad9)" style="fill: #f5f5f5; stroke: #000000"/>
    <path d="M 152.863277 88.876314 
L 153.185408 89.214514 
L 152.73612 90.10174 
L 152.863277 90.716648 
L 151.882049 90.681511 
L 151.068244 90.87916 
L 149.663159 91.454539 
L 148.436823 92.161926 
L 147.644387 91.546576 
L 146.682432 91.213571 
L 147.133972 90.592515 
L 149.450853 89.456851 
L 150.799095 89.157415 
L 151.55144 89.043218 
L 152.248685 88.845569 
L 152.863277 88.876314 
" clip-path="url(#pad890d1ad9)" style="fill: #f5f5f5; stroke: #000000"/>
    <path d="M 167.03992 80.361546 
L 167.415407 79.051705 
L 168.919896 77.802691 
L 170.991008 76.521389 
L 172.589023 75.834436 
L 175.693688 74.342859 
L 179.076313 73.220934 
L 181.332505 72.567048 
L 182.899079 72.380565 
L 184.96658 72.505848 
L 186.595472 72.60012 
L 189.164542 72.633053 
L 188.099013 72.943608 
L 186.970827 73.503293 
L 185.96863 73.191337 
L 184.402289 73.564227 
L 183.300422 73.332299 
L 182.374296 73.481634 
L 182.020375 73.65293 
L 181.304058 74.131681 
L 180.981927 74.272231 
L 180.517804 74.2898 
L 179.765812 74.466504 
L 178.825826 75.151766 
L 176.91404 76.086878 
L 175.033225 76.773404 
L 173.05663 78.177932 
L 171.273094 78.732512 
L 170.081052 78.859865 
L 169.266122 79.640415 
L 168.38848 80.483635 
L 167.354402 81.202421 
L 167.03992 80.361546 
" clip-path="url(#pad890d1ad9)" style="fill: #f5f5f5; stroke: #000000"/>
    <path d="M 203.241577 70.80786 
L 204.069854 69.366732 
L 204.664917 68.606287 
L 206.384373 67.830003 
L 207.374115 68.192687 
L 208.16465 68.850537 
L 207.898445 69.506064 
L 206.742555 69.634736 
L 206.476266 70.421307 
L 205.780762 71.337965 
L 204.757735 71.401326 
L 204.063098 72.186659 
L 201.387637 73.984254 
L 201.190812 73.49213 
L 201.720404 72.542513 
L 202.44894 71.199729 
L 203.241577 70.80786 
" clip-path="url(#pad890d1ad9)" style="fill: #f5f5f5; stroke: #000000"/>
    <path d="M 305.86281 19.178604 
L 306.256996 19.22033 
L 306.644825 19.303781 
L 307.019938 19.426763 
L 307.363262 19.584883 
L 306.863111 19.694688 
L 306.426539 19.677119 
L 306.085335 19.508019 
L 305.86281 19.178604 
" clip-path="url(#pad890d1ad9)" style="fill: #f5f5f5; stroke: #000000"/>
   </g>
  </g>
 </g>
 <defs>
  <clipPath id="pad890d1ad9">
   <rect x="7.2" y="7.2" width="357.12" height="263.52928"/>
  </clipPath>
 </defs>
</svg>
