<?xml version="1.0" encoding="utf-8" standalone="no"?>
<!DOCTYPE svg PUBLIC "-//W3C//DTD SVG 1.1//EN"
  "http://www.w3.org/Graphics/SVG/1.1/DTD/svg11.dtd">
<svg xmlns:xlink="http://www.w3.org/1999/xlink" width="371.52pt" height="233.327813pt" viewBox="0 0 371.52 233.327813" xmlns="http://www.w3.org/2000/svg" version="1.1">
 <metadata>
  <rdf:RDF xmlns:dc="http://purl.org/dc/elements/1.1/" xmlns:cc="http://creativecommons.org/ns#" xmlns:rdf="http://www.w3.org/1999/02/22-rdf-syntax-ns#">
   <cc:Work>
    <dc:type rdf:resource="http://purl.org/dc/dcmitype/StillImage"/>
    <dc:date>2024-03-04T13:11:10.998571</dc:date>
    <dc:format>image/svg+xml</dc:format>
    <dc:creator>
     <cc:Agent>
      <dc:title>Matplotlib v3.8.0, https://matplotlib.org/</dc:title>
     </cc:Agent>
    </dc:creator>
   </cc:Work>
  </rdf:RDF>
 </metadata>
 <defs>
  <style type="text/css">*{stroke-linejoin: round; stroke-linecap: butt}</style>
 </defs>
 <g id="figure_1">
  <g id="patch_1">
   <path d="M 0 233.327813 
L 371.52 233.327813 
L 371.52 0 
L 0 0 
z
" style="fill: #ffffff"/>
  </g>
  <g id="axes_1">
   <g id="PatchCollection_1">
    <defs>
     <path id="m470c7f91be" d="M 348.087273 -172.365745 
L 347.300801 -171.456506 
L 346.098835 -169.248872 
L 345.317309 -168.536028 
L 343.39812 -167.830458 
L 342.631434 -167.299462 
L 342.117012 -166.348398 
L 342.136798 -165.746481 
L 342.37917 -165.291861 
L 342.473151 -164.777231 
L 342.067549 -163.986193 
L 341.78066 -163.797071 
L 340.74687 -163.691599 
L 339.772436 -163.24789 
L 339.188765 -162.791452 
L 338.006585 -161.249382 
L 336.606764 -160.036456 
L 334.860698 -159.289061 
L 333.030543 -159.0272 
L 331.378458 -159.296335 
L 327.831916 -161.151184 
L 326.362846 -160.811128 
L 325.58132 -158.032492 
L 325.032274 -157.512407 
L 324.39914 -157.254183 
L 323.711595 -157.194173 
L 321.500571 -157.525136 
L 320.892168 -157.466945 
L 320.041394 -157.16144 
L 319.155995 -156.672269 
L 318.611895 -156.115815 
L 317.563266 -154.541011 
L 317.197235 -154.173679 
L 316.386031 -153.588128 
L 316.034839 -153.151693 
L 315.85677 -152.627971 
L 315.69354 -151.336851 
L 315.54515 -150.729479 
L 314.358022 -149.045567 
L 314.214578 -148.580036 
L 314.179953 -148.059951 
L 314.107751 -147.600888 
L 314.095865 -147.525318 
L 313.843601 -146.994322 
L 313.464972 -146.710612 
L 313.195627 -146.508788 
L 310.851051 -145.917783 
L 307.878287 -143.691964 
L 306.463627 -142.149894 
L 305.553496 -140.427794 
L 305.677155 -138.236526 
L 306.097596 -135.799764 
L 306.161899 -133.452107 
L 305.202304 -131.500879 
L 303.070422 -130.871685 
L 302.209754 -130.344326 
L 301.339195 -129.364166 
L 299.489255 -126.667361 
L 299.197419 -125.845408 
L 298.648373 -123.324996 
L 298.396108 -122.684891 
L 297.842116 -121.641084 
L 297.644261 -120.860957 
L 297.629422 -120.044459 
L 297.743189 -119.407992 
L 297.758028 -118.758794 
L 297.466192 -117.89138 
L 297.065537 -117.325833 
L 296.007015 -116.31294 
L 295.55195 -115.640102 
L 295.339256 -115.001816 
L 295.101831 -113.759795 
L 294.780317 -113.139694 
L 293.81083 -112.181355 
L 291.451415 -110.602915 
L 290.383 -109.586385 
L 288.513275 -107.331471 
L 288.582713 -107.101716 
L 288.69629 -106.725917 
L 289.106838 -106.525884 
L 289.56685 -106.43496 
L 289.898257 -106.162188 
L 290.32859 -105.340236 
L 290.358268 -105.267497 
L 290.175253 -105.198394 
L 289.265122 -101.721462 
L 288.85952 -101.208651 
L 286.673228 -99.401082 
L 286.460534 -99.321069 
L 286.401178 -99.131948 
L 286.326982 -98.302721 
L 286.3715 -97.444399 
L 286.53473 -96.693367 
L 286.549569 -95.931424 
L 286.148913 -95.033095 
L 285.654277 -94.598479 
L 283.908211 -94.123856 
L 282.909045 -93.178246 
L 282.295696 -92.032604 
L 281.271799 -89.193958 
L 281.059106 -88.859358 
L 280.895876 -88.482933 
L 280.787056 -88.071956 
L 280.742538 -87.648251 
L 280.846412 -87.450037 
L 280.970071 -87.284555 
L 281.113516 -87.149987 
L 282.404516 -86.257114 
L 282.241286 -84.867796 
L 281.370727 -83.554854 
L 280.411132 -83.005673 
L 279.105292 -82.772908 
L 278.59087 -81.947318 
L 278.49736 -81.681296 
L 278.175376 -80.765307 
L 277.181157 -79.437817 
L 276.147367 -78.881362 
L 274.386462 -79.019567 
L 273.362565 -78.754069 
L 272.630503 -77.859377 
L 272.358453 -76.530068 
L 272.170491 -73.833264 
L 271.576927 -72.543962 
L 270.750885 -71.483788 
L 270.078179 -70.367242 
L 269.959467 -68.917914 
L 271.359288 -66.206562 
L 271.661016 -64.660854 
L 270.55303 -63.800713 
L 268.525021 -63.711608 
L 267.590159 -63.373371 
L 266.783902 -62.413214 
L 266.299158 -60.885691 
L 266.101303 -57.75427 
L 265.690755 -56.394047 
L 265.141709 -55.324781 
L 264.681697 -54.957449 
L 263.281876 -54.96836 
L 262.975202 -54.804696 
L 260.689982 -51.971506 
L 259.829315 -51.636905 
L 258.894452 -52.462495 
L 258.563046 -52.869834 
L 258.187122 -53.062593 
L 257.776574 -53.062593 
L 257.341294 -52.869834 
L 256.396539 -52.833465 
L 254.610902 -53.622685 
L 253.755181 -53.80817 
L 253.428721 -53.702698 
L 252.726338 -53.302632 
L 252.251487 -53.258989 
L 251.860724 -53.451748 
L 251.000057 -54.200961 
L 250.554884 -54.433727 
L 249.59529 -54.47737 
L 248.591178 -54.19005 
L 248.050929 -53.892634 
L 247.626637 -53.659054 
L 245.751965 -52.069704 
L 245.544218 -51.676912 
L 245.56895 -51.014986 
L 246.014123 -49.451093 
L 246.009176 -48.887365 
L 245.62336 -48.494573 
L 245.168295 -48.567312 
L 244.723122 -48.727339 
L 244.362037 -48.592771 
L 244.124612 -48.069049 
L 244.078549 -47.216154 
L 244.070202 -47.061612 
L 243.812991 -46.366952 
L 243.080929 -45.537726 
L 242.146067 -45.050373 
L 239.445352 -44.46846 
L 239.089214 -44.479371 
L 238.51049 -44.704862 
L 238.035639 -45.035826 
L 236.640765 -46.345131 
L 234.746307 -47.156172 
L 232.792494 -47.610792 
L 231.625152 -45.694115 
L 223.923665 -45.475898 
L 221.989637 -42.962759 
L 219.38785 -45.235858 
L 218.527183 -45.595917 
L 217.325216 -45.003093 
L 216.974025 -44.959449 
L 216.607994 -45.163119 
L 216.118304 -45.857778 
L 215.861093 -46.068722 
L 215.079568 -46.261481 
L 214.609663 -46.203289 
L 213.40275 -45.581369 
L 212.042501 -45.417706 
L 210.039223 -46.574259 
L 206.977425 -46.865216 
L 205.053289 -46.432418 
L 204.321196 -46.122885 
L 200.339405 -44.439364 
L 199.50347 -44.613938 
L 196.579517 -46.525278 
L 195.536487 -47.20709 
L 194.542268 -47.538053 
L 193.513424 -47.592607 
L 190.733568 -47.036153 
L 189.714617 -47.068885 
L 188.829218 -46.908859 
L 187.647038 -46.363316 
L 186.534106 -45.603191 
L 185.841615 -44.80306 
L 185.925703 -44.224784 
L 186.281841 -43.581042 
L 186.4055 -42.999129 
L 185.144178 -42.300833 
L 184.807825 -41.828028 
L 184.565453 -41.300669 
L 184.224154 -40.813317 
L 183.417897 -40.140479 
L 183.007349 -39.965905 
L 182.478088 -39.882255 
L 181.879578 -39.594936 
L 181.488815 -38.983926 
L 181.132677 -38.278357 
L 180.642987 -37.725539 
L 179.841676 -37.441856 
L 178.070878 -37.430945 
L 177.200319 -37.230913 
L 176.78628 -36.912356 
L 176.240724 -36.49261 
L 175.884586 -35.623377 
L 175.662 -34.765055 
L 175.1179 -34.048574 
L 173.787328 -33.786713 
L 169.592812 -34.234059 
L 168.529344 -34.870526 
L 168.529344 -34.881437 
L 167.822014 -36.267118 
L 166.743707 -36.681732 
L 165.640668 -36.201653 
L 164.888821 -34.870526 
L 164.834411 -32.782912 
L 163.988583 -32.542873 
L 162.776724 -32.721084 
L 161.63906 -31.891857 
L 161.490669 -31.63727 
L 161.441206 -31.379046 
L 161.495616 -31.117185 
L 161.861646 -30.517087 
L 161.970466 -30.218856 
L 161.91111 -29.993365 
L 161.63906 -29.855161 
L 160.723983 -30.284322 
L 157.785843 -30.51345 
L 157.078513 -30.458896 
L 156.603662 -29.895167 
L 156.069455 -29.589663 
L 155.109861 -29.298706 
L 154.293711 -28.720429 
L 154.011918 -28.710273 
L 153.789182 -28.702245 
L 153.170886 -29.276884 
L 152.691089 -28.531308 
L 152.478396 -27.887566 
L 152.265702 -27.396577 
L 151.766119 -27.109257 
L 151.182448 -27.18927 
L 149.292938 -28.207618 
L 146.92363 -29.047756 
L 146.028338 -28.85136 
L 144.945084 -27.749362 
L 144.767015 -27.39294 
L 144.623571 -26.545528 
L 144.494965 -26.11273 
L 144.425716 -26.094545 
L 143.718386 -25.268956 
L 142.669757 -23.174068 
L 142.095979 -22.45395 
L 140.028399 -20.635471 
L 138.781916 -20.155392 
L 137.708555 -20.675477 
L 136.92703 -20.13357 
L 135.265052 -18.01686 
L 134.354921 -17.282195 
L 134.003729 -17.183997 
L 133.677269 -17.151264 
L 133.350809 -17.183997 
L 133.034242 -17.274921 
L 133.019403 -17.282195 
L 132.223038 -18.336913 
L 131.456352 -18.351461 
L 130.679773 -17.900478 
L 129.85373 -17.569514 
L 129.032634 -17.889567 
L 128.206592 -18.809717 
L 127.118392 -18.824265 
L 125.649322 -19.958996 
L 124.758976 -20.249953 
L 120.821671 -20.249953 
L 120.40123 -20.111749 
L 119.575188 -19.493466 
L 119.05582 -19.289796 
L 118.501827 -19.289796 
L 113.471376 -20.726394 
L 110.162737 -20.726394 
L 109.375787 -20.726394 
L 108.930614 -20.471807 
L 108.703082 -19.91899 
L 108.431032 -19.413452 
L 107.857254 -19.289796 
L 107.852307 -19.580752 
L 106.907552 -21.253753 
L 105.517624 -22.293924 
L 99.685862 -24.137862 
L 98.602608 -24.210601 
L 98.211845 -24.476099 
L 98.12309 -24.947192 
L 98.053562 -25.316236 
L 97.999152 -26.123641 
L 97.751834 -27.171085 
L 97.697424 -27.742088 
L 97.346232 -28.411288 
L 95.080797 -30.866235 
L 93.319892 -31.680914 
L 91.291883 -32.113712 
L 87.211134 -32.310108 
L 86.805532 -32.048247 
L 86.67198 -31.815481 
L 86.488965 -31.597264 
L 86.231754 -31.389957 
L 85.920133 -32.535599 
L 85.415604 -32.757453 
L 84.272994 -32.310108 
L 83.318346 -32.237368 
L 83.165009 -32.444675 
L 83.239204 -33.070232 
L 82.962208 -34.274065 
L 82.447786 -33.386647 
L 81.943257 -33.510304 
L 81.465476 -33.941728 
L 81.379372 -34.019478 
L 80.676988 -34.274065 
L 80.676988 -34.754144 
L 81.003448 -34.837794 
L 81.597012 -35.11784 
L 81.95315 -35.190579 
L 81.522816 -35.805225 
L 80.741291 -35.914334 
L 79.99439 -36.201653 
L 79.662984 -37.376391 
L 79.549217 -38.085598 
L 78.950707 -40.340512 
L 78.68855 -41.002439 
L 76.774308 -43.55922 
L 76.235154 -43.88291 
L 72.352259 -44.021114 
L 71.635036 -44.377536 
L 69.325085 -46.156009 
L 68.766146 -46.770655 
L 68.52872 -47.530779 
L 68.133011 -48.058138 
L 65.585634 -50.174848 
L 65.130569 -50.800405 
L 63.953334 -53.055319 
L 62.162751 -55.197488 
L 61.816505 -55.502992 
L 61.490045 -55.917606 
L 61.015268 -57.318113 
L 60.65411 -58.383464 
L 60.812394 -59.485462 
L 60.352382 -60.631104 
L 60.062817 -61.026825 
L 59.635159 -61.611264 
L 59.02181 -62.231366 
L 58.769546 -62.235003 
L 58.665672 -61.913132 
L 58.537067 -61.678548 
L 58.220499 -61.965868 
L 58.012752 -62.23864 
L 57.809951 -62.45322 
L 57.597258 -62.616883 
L 57.384564 -62.711444 
L 56.093563 -63.006038 
L 55.752264 -63.233348 
L 55.396126 -62.231366 
L 55.069666 -62.231366 
L 54.485995 -63.480661 
L 53.026818 -64.398993 
L 52.12658 -65.591916 
L 51.354947 -66.933953 
L 50.484387 -68.025041 
L 49.450597 -68.748796 
L 48.179382 -69.001564 
L 47.749049 -69.28161 
L 47.373125 -69.347075 
L 47.076343 -69.107036 
L 46.868596 -68.479661 
L 46.57676 -68.479661 
L 45.93868 -69.132495 
L 43.8711 -70.4418 
L 43.594103 -70.665473 
L 42.901613 -73.698696 
L 41.289098 -75.098925 
L 39.523247 -77.892109 
L 37.816751 -78.921369 
L 36.946191 -79.630576 
L 36.747595 -80.14071 
L 36.565321 -80.608917 
L 37.005548 -81.303577 
L 37.915679 -81.745467 
L 38.200659 -82.024594 
L 38.578491 -82.394664 
L 38.316334 -83.723973 
L 37.599111 -84.209507 
L 36.708766 -84.264061 
L 36.459038 -84.372314 
L 36.419157 -84.389602 
L 36.045953 -84.551381 
L 36.031114 -85.735211 
L 35.368302 -85.618828 
L 34.923129 -86.151642 
L 34.512581 -86.962684 
L 33.968481 -87.670073 
L 33.310615 -89.69404 
L 33.201795 -89.955901 
L 33.265576 -90.216842 
L 33.394703 -90.745121 
L 33.821098 -91.484314 
L 34.003105 -91.799839 
L 34.334512 -92.592696 
L 34.606562 -93.451018 
L 34.715382 -94.080212 
L 34.502688 -94.434816 
L 33.800304 -94.474822 
L 33.379864 -94.700313 
L 33.165183 -94.969074 
L 32.440055 -95.87687 
L 31.950365 -96.160552 
L 27.522331 -95.77389 
L 25.411273 -95.58955 
L 25.165721 -95.650034 
L 23.432727 -96.076902 
L 24.199414 -96.43878 
L 24.812763 -97.033422 
L 26.548936 -99.422904 
L 27.102929 -100.001181 
L 28.319734 -100.899509 
L 29.318899 -101.32867 
L 29.650306 -101.586895 
L 29.971819 -102.099706 
L 29.996551 -102.527048 
L 29.95698 -102.918021 
L 30.080639 -103.347182 
L 30.565383 -103.765433 
L 31.040234 -103.870905 
L 31.42605 -104.192775 
L 31.633797 -105.260223 
L 32.088863 -106.038532 
L 32.741783 -106.127637 
L 34.52742 -105.76576 
L 36.476287 -106.003981 
L 37.490291 -105.878506 
L 38.316334 -105.252949 
L 38.573545 -105.06019 
L 38.820863 -104.991088 
L 39.053342 -105.049279 
L 39.261089 -105.242038 
L 39.261089 -105.249312 
L 40.057454 -105.398427 
L 41.303937 -105.412975 
L 42.209122 -105.633011 
L 41.996428 -106.394954 
L 41.308884 -107.031422 
L 40.626286 -107.26055 
L 39.256143 -107.429668 
L 39.854653 -107.971575 
L 41.996428 -108.846264 
L 42.535582 -109.193593 
L 42.72849 -109.579111 
L 42.560314 -109.944625 
L 41.996428 -110.231945 
L 41.031887 -110.555634 
L 40.675749 -111.484877 
L 40.98737 -112.512318 
L 41.996428 -113.141512 
L 43.089574 -114.59084 
L 43.317107 -115.414611 
L 42.733436 -116.269296 
L 41.946965 -116.345673 
L 40.329504 -115.567363 
L 39.686477 -115.992887 
L 39.701316 -116.382042 
L 40.092078 -117.582238 
L 40.077239 -118.200521 
L 39.755726 -118.655141 
L 39.35507 -118.693329 
L 38.9742 -118.660597 
L 38.687311 -118.90791 
L 38.519135 -120.069918 
L 39.256143 -121.611988 
L 39.097859 -122.839462 
L 39.097859 -122.846736 
L 40.586715 -123.652322 
L 41.264366 -124.274242 
L 41.580934 -125.216214 
L 41.388026 -126.372767 
L 39.933795 -129.422357 
L 39.805189 -129.56238 
L 39.592496 -129.644212 
L 39.374856 -129.760594 
L 39.241304 -130.029729 
L 39.270982 -130.446161 
L 39.478729 -130.635283 
L 39.716155 -130.758939 
L 39.820028 -130.966246 
L 39.701316 -133.664869 
L 40.186059 -134.555924 
L 40.784569 -134.719587 
L 41.42265 -134.275878 
L 41.996428 -133.344817 
L 47.140646 -135.690655 
L 48.938605 -137.092296 
L 49.603935 -137.610969 
L 49.411027 -140.445978 
L 49.955127 -141.033347 
L 51.350001 -141.618898 
L 51.859476 -142.517226 
L 51.913886 -143.60104 
L 51.542909 -144.483003 
L 50.880096 -145.154021 
L 50.068893 -145.608641 
L 50.335996 -146.972501 
L 49.930395 -148.394551 
L 49.094459 -149.511098 
L 48.050777 -149.987539 
L 46.472887 -149.718404 
L 43.322054 -150.998614 
L 41.996428 -150.70402 
L 39.315499 -151.782378 
L 38.449886 -152.278823 
L 38.870327 -152.806182 
L 39.597442 -153.977283 
L 39.948634 -154.330068 
L 40.22563 -153.982738 
L 40.463056 -153.762702 
L 40.685642 -153.71724 
L 41.002209 -153.911818 
L 41.571041 -154.420992 
L 43.480337 -155.422974 
L 43.885939 -155.812128 
L 44.148096 -156.417682 
L 44.064008 -157.345106 
L 44.350897 -158.025218 
L 46.106856 -158.814438 
L 48.115079 -158.563488 
L 51.948511 -157.081427 
L 52.551967 -156.661358 
L 52.809178 -156.028528 
L 52.987247 -155.286588 
L 53.353278 -154.559196 
L 53.887485 -154.008197 
L 54.401907 -153.695419 
L 57.097675 -153.273531 
L 57.518116 -153.373548 
L 58.047377 -153.891814 
L 58.987186 -155.377512 
L 59.62032 -155.910326 
L 60.317757 -154.066388 
L 62.133073 -153.735425 
L 65.926933 -154.679216 
L 69.414119 -155.142928 
L 70.398445 -155.597548 
L 69.854345 -155.935785 
L 69.448744 -156.472236 
L 69.211318 -157.181443 
L 69.122284 -159.480001 
L 68.80077 -160.905689 
L 68.736467 -162.116796 
L 69.45369 -162.907835 
L 69.142069 -163.353362 
L 68.682057 -164.668123 
L 68.306134 -164.948168 
L 67.302022 -165.408244 
L 67.000294 -165.724659 
L 66.985455 -166.492057 
L 67.583965 -166.803017 
L 69.240996 -167.168532 
L 70.027468 -167.783178 
L 70.502319 -168.494203 
L 70.779315 -169.416172 
L 70.97717 -170.669104 
L 70.878243 -170.809127 
L 70.625978 -170.88914 
L 70.388553 -171.030982 
L 70.339089 -171.336486 
L 70.467695 -171.536519 
L 70.912867 -171.836568 
L 71.006848 -171.954769 
L 71.1404 -172.558504 
L 71.372879 -172.998576 
L 71.392664 -173.435011 
L 70.888135 -174.013288 
L 73.890578 -176.49733 
L 75.636644 -177.541138 
L 77.362925 -177.173805 
L 79.345475 -176.626793 
L 79.841053 -176.490056 
L 82.962208 -176.024526 
L 84.470849 -174.791597 
L 89.382587 -168.288715 
L 89.852492 -167.859554 
L 90.347128 -167.655884 
L 91.549094 -167.404934 
L 91.994267 -167.113977 
L 93.611728 -164.711766 
L 94.195399 -164.117123 
L 94.690035 -164.135308 
L 95.169832 -164.368074 
L 95.708986 -164.448087 
L 96.421262 -164.095302 
L 97.415481 -163.389732 
L 98.30088 -162.553231 
L 98.676804 -161.829476 
L 99.176386 -161.276659 
L 101.21361 -160.185209 
L 102.302488 -159.601839 
L 106.309042 -158.519844 
L 109.076216 -158.69685 
L 120.040146 -159.39817 
L 125.941157 -158.792616 
L 127.716902 -158.959916 
L 131.298069 -160.403789 
L 141.096814 -161.534883 
L 143.243536 -161.380312 
L 144.984655 -160.618369 
L 146.414154 -160.34196 
L 147.809029 -160.487439 
L 148.97637 -161.202101 
L 150.559207 -162.99694 
L 151.390196 -163.607949 
L 152.473449 -163.891632 
L 153.651334 -164.30413 
L 153.724879 -164.329885 
L 151.884832 -165.659194 
L 150.485011 -167.015779 
L 150.17339 -168.334177 
L 150.292103 -169.816238 
L 150.7719 -172.722167 
L 150.613617 -173.535028 
L 150.28221 -173.816892 
L 150.217908 -174.076934 
L 150.841149 -174.83524 
L 151.276429 -175.08619 
L 152.206346 -175.24258 
L 152.661411 -175.631734 
L 153.942519 -178.257618 
L 154.778454 -178.930456 
L 159.33118 -179.939299 
L 161.63906 -180.450704 
L 162.341444 -180.774394 
L 163.419359 -180.723887 
L 164.35956 -180.679833 
L 167.223504 -181.092628 
L 173.15914 -180.377965 
L 173.683454 -180.483437 
L 176.542452 -182.291005 
L 183.002403 -182.156438 
L 185.564619 -183.949458 
L 185.638814 -184.313154 
L 185.663546 -184.684124 
L 185.638814 -185.066005 
L 185.564619 -185.451522 
L 185.54978 -185.498803 
L 185.539887 -185.542446 
L 185.54978 -185.575179 
L 185.564619 -185.607912 
L 186.13345 -186.720821 
L 186.583569 -189.444903 
L 187.107884 -190.468707 
L 187.933927 -190.939693 
L 192.33619 -192.09079 
L 192.845665 -192.074424 
L 193.325462 -191.93622 
L 193.869562 -191.4816 
L 194.908299 -190.217757 
L 195.388096 -189.972262 
L 197.594174 -190.394149 
L 198.716998 -190.212301 
L 199.567773 -189.19759 
L 199.592505 -188.506568 
L 199.320455 -187.899196 
L 199.201742 -187.304553 
L 199.651861 -186.637171 
L 200.106926 -186.57898 
L 201.833207 -187.228177 
L 203.010441 -186.859025 
L 204.830703 -185.236942 
L 205.824922 -184.862335 
L 206.952693 -185.269674 
L 209.1192 -187.260909 
L 210.222239 -187.931928 
L 212.042501 -188.49202 
L 212.201361 -188.587818 
L 214.105134 -189.73586 
L 215.010319 -190.079552 
L 215.406028 -190.386875 
L 215.757219 -191.016069 
L 216.019377 -192.281731 
L 216.207338 -192.776357 
L 216.805848 -193.474653 
L 217.216396 -193.554666 
L 217.706086 -193.376455 
L 218.546968 -193.289168 
L 219.348279 -193.638316 
L 220.792617 -194.947621 
L 221.331771 -195.180387 
L 222.286419 -194.707582 
L 222.825572 -194.12385 
L 223.404297 -193.881992 
L 224.497443 -194.442084 
L 225.887371 -195.816854 
L 227.084391 -197.613512 
L 228.083556 -199.644753 
L 229.943389 -205.231122 
L 230.497381 -206.324028 
L 231.214604 -207.249634 
L 232.66899 -208.755564 
L 232.777655 -208.86808 
L 233.420682 -209.808234 
L 233.460253 -210.055547 
L 233.480038 -210.306497 
L 233.475092 -210.555629 
L 233.445414 -210.802942 
L 233.351433 -212.023142 
L 233.366272 -212.608692 
L 233.420682 -213.139688 
L 234.800717 -213.681595 
L 237.768535 -213.877991 
L 247.893741 -216.163819 
L 248.67032 -216.176548 
L 249.412274 -215.794668 
L 250.83188 -214.529006 
L 251.524371 -214.352614 
L 253.028066 -214.196224 
L 255.634799 -212.639606 
L 257.341294 -212.490491 
L 258.538314 -212.581415 
L 259.948028 -212.334102 
L 261.283546 -211.743096 
L 262.248087 -210.812035 
L 263.459946 -210.537444 
L 267.164772 -212.268637 
L 268.752554 -212.621421 
L 269.618168 -212.250452 
L 270.211731 -211.761281 
L 270.755831 -211.528515 
L 271.463161 -211.91767 
L 272.0221 -212.70689 
L 272.29415 -213.456103 
L 272.694806 -214.112574 
L 273.629668 -214.652663 
L 274.430979 -214.812689 
L 276.063279 -214.84724 
L 278.546353 -215.616457 
L 279.24379 -215.40915 
L 280.851358 -214.470815 
L 281.716972 -214.138033 
L 282.12752 -213.772519 
L 282.444087 -213.168784 
L 282.879367 -211.804924 
L 283.200881 -211.310298 
L 283.962621 -210.968424 
L 285.728472 -210.992064 
L 286.544622 -210.812035 
L 286.960117 -210.011904 
L 287.583359 -207.105974 
L 287.974121 -206.353123 
L 290.65505 -202.319736 
L 291.787767 -201.024979 
L 293.054036 -200.106647 
L 294.552784 -199.604747 
L 296.007015 -199.728403 
L 298.485143 -200.970425 
L 300.547776 -201.272292 
L 302.006954 -202.090608 
L 302.704391 -202.359743 
L 305.202304 -202.487036 
L 306.082757 -202.785267 
L 306.94837 -202.839821 
L 309.812315 -202.563413 
L 310.70266 -202.818 
L 311.538595 -203.467197 
L 312.44378 -204.603746 
L 313.576497 -204.410987 
L 313.660518 -204.422428 
L 313.710049 -204.429172 
L 314.1849 -204.936528 
L 315.752897 -205.5439 
L 317.385197 -205.342049 
L 319.096638 -204.509185 
L 318.384362 -202.381565 
L 318.374469 -201.259563 
L 319.695148 -201.337758 
L 320.026555 -201.279566 
L 320.382693 -200.686742 
L 320.382693 -199.99572 
L 320.273873 -199.184678 
L 320.31839 -198.21361 
L 320.832812 -196.784285 
L 323.177388 -193.223703 
L 323.489009 -192.914561 
L 323.835254 -192.821819 
L 324.206231 -192.925472 
L 324.582155 -193.220066 
L 324.775063 -193.31099 
L 324.967971 -193.340086 
L 325.170772 -193.31099 
L 326.110581 -192.932746 
L 326.867375 -192.776357 
L 327.609329 -192.841822 
L 328.534299 -193.296442 
L 328.7371 -193.321901 
L 328.934955 -193.281894 
L 329.127863 -193.187333 
L 332.684298 -188.582944 
L 333.312486 -187.129979 
L 333.990138 -184.898705 
L 334.806288 -183.231159 
L 335.063499 -182.943839 
L 335.187158 -182.929292 
L 335.815346 -183.276621 
L 339.262961 -183.276621 
L 340.143413 -183.562122 
L 340.954617 -184.076752 
L 341.775713 -184.298607 
L 342.557239 -183.80398 
L 342.725415 -183.471198 
L 344.441803 -182.516497 
L 345.856463 -181.212647 
L 346.494544 -180.410698 
L 346.994126 -179.443267 
L 347.320586 -178.11214 
L 347.147464 -177.38293 
L 346.830896 -176.733733 
L 346.741862 -175.631734 
L 345.925712 -174.631571 
L 346.326367 -173.776885 
L 348.087273 -172.365745 
" style="stroke: #000000"/>
    </defs>
    <g clip-path="url(#p30610fba00)">
     <use xlink:href="#m470c7f91be" x="0" y="233.327813" style="fill: #f5f5f5; stroke: #000000"/>
    </g>
   </g>
  </g>
 </g>
 <defs>
  <clipPath id="p30610fba00">
   <rect x="7.2" y="7.2" width="357.12" height="218.927813"/>
  </clipPath>
 </defs>
</svg>
