<?xml version="1.0" encoding="utf-8" standalone="no"?>
<!DOCTYPE svg PUBLIC "-//W3C//DTD SVG 1.1//EN"
  "http://www.w3.org/Graphics/SVG/1.1/DTD/svg11.dtd">
<svg xmlns:xlink="http://www.w3.org/1999/xlink" width="371.52pt" height="256.729251pt" viewBox="0 0 371.52 256.729251" xmlns="http://www.w3.org/2000/svg" version="1.1">
 <metadata>
  <rdf:RDF xmlns:dc="http://purl.org/dc/elements/1.1/" xmlns:cc="http://creativecommons.org/ns#" xmlns:rdf="http://www.w3.org/1999/02/22-rdf-syntax-ns#">
   <cc:Work>
    <dc:type rdf:resource="http://purl.org/dc/dcmitype/StillImage"/>
    <dc:date>2024-03-04T13:11:11.025565</dc:date>
    <dc:format>image/svg+xml</dc:format>
    <dc:creator>
     <cc:Agent>
      <dc:title>Matplotlib v3.8.0, https://matplotlib.org/</dc:title>
     </cc:Agent>
    </dc:creator>
   </cc:Work>
  </rdf:RDF>
 </metadata>
 <defs>
  <style type="text/css">*{stroke-linejoin: round; stroke-linecap: butt}</style>
 </defs>
 <g id="figure_1">
  <g id="patch_1">
   <path d="M 0 256.729251 
L 371.52 256.729251 
L 371.52 0 
L 0 0 
z
" style="fill: #ffffff"/>
  </g>
  <g id="axes_1">
   <g id="PatchCollection_1">
    <path d="M 316.886349 30.709622 
L 315.500332 32.189736 
L 310.280629 34.473584 
L 307.957436 36.180102 
L 305.25243 36.833843 
L 304.327222 37.572485 
L 303.615064 38.786575 
L 304.335601 39.049769 
L 304.689885 39.403525 
L 304.838301 39.952554 
L 304.987914 40.088396 
L 305.627061 41.327957 
L 305.750343 41.639262 
L 305.95621 42.018488 
L 305.822157 42.839202 
L 305.458298 44.008011 
L 305.216523 44.531569 
L 302.402599 47.149363 
L 301.90708 47.378596 
L 300.090178 47.488968 
L 299.314584 48.159689 
L 298.774779 49.710555 
L 299.67964 50.395426 
L 300.124888 50.587869 
L 301.869976 50.698241 
L 302.244607 51.23878 
L 302.40978 52.557582 
L 302.100979 52.769835 
L 301.561175 53.310374 
L 301.204497 53.550928 
L 301.814918 54.000905 
L 305.13274 54.111277 
L 307.048985 54.977272 
L 308.383534 54.8669 
L 310.803676 52.733045 
L 312.305792 52.557582 
L 312.962893 52.897187 
L 313.542195 53.542438 
L 313.956325 54.589555 
L 314.114316 56.165891 
L 314.30223 56.983775 
L 314.715163 57.261119 
L 315.128095 57.354511 
L 315.318403 57.609215 
L 315.386626 58.407288 
L 315.677474 59.960984 
L 315.718169 60.719436 
L 315.629598 61.005271 
L 315.25377 61.378837 
L 315.117323 61.667502 
L 315.099369 61.987297 
L 315.143655 62.745749 
L 315.117323 63.045734 
L 314.438677 64.757913 
L 314.332153 65.23053 
L 313.992232 65.524855 
L 312.086759 67.839833 
L 309.917967 69.418999 
L 309.257275 70.259523 
L 309.311136 71.473613 
L 308.73303 72.46696 
L 307.248868 74.060276 
L 308.1262 74.003675 
L 308.907779 73.386725 
L 310.280629 71.637756 
L 309.827002 73.061269 
L 308.981987 74.620625 
L 308.636081 75.871506 
L 309.677389 76.389404 
L 310.733059 76.092249 
L 313.039495 74.784768 
L 319.354367 73.10938 
L 321.62729 71.88963 
L 322.83018 71.586815 
L 323.773341 72.588652 
L 322.49744 75.50926 
L 321.769722 76.228092 
L 321.842733 76.822401 
L 322.058176 77.405391 
L 322.181457 77.643115 
L 322.317904 77.818578 
L 322.985777 78.327986 
L 324.848162 79.556226 
L 325.396344 80.229778 
L 323.797279 80.710885 
L 322.940295 81.373116 
L 322.222152 83.167366 
L 320.702082 84.938975 
L 320.104827 86.42475 
L 317.870205 89.065183 
L 317.422562 89.939667 
L 317.080247 90.983955 
L 316.923453 92.147104 
L 317.298084 91.600905 
L 317.925262 90.084 
L 318.238851 89.769865 
L 318.576379 89.583082 
L 319.562628 88.589735 
L 319.866642 88.131268 
L 320.402856 87.002079 
L 324.046235 81.627821 
L 324.685383 81.180673 
L 325.472946 81.381606 
L 327.806911 83.079634 
L 327.344906 82.417404 
L 326.509466 81.520279 
L 326.181514 80.750506 
L 332.644802 84.548429 
L 333.468273 84.675781 
L 336.699917 83.869217 
L 337.248099 83.948459 
L 337.592808 84.288064 
L 337.810645 85.120098 
L 337.850143 85.83044 
L 337.686167 86.314378 
L 337.300763 86.44456 
L 337.300763 86.880387 
L 338.224774 86.846426 
L 338.631722 86.985099 
L 338.90701 87.401116 
L 338.93813 87.885054 
L 338.863921 88.521814 
L 338.722687 89.342528 
L 338.923767 89.851936 
L 339.178707 90.236822 
L 339.71133 90.72076 
L 341.08059 88.725577 
L 341.835837 88.173718 
L 342.722744 88.391632 
L 342.875948 88.683127 
L 342.911855 89.127444 
L 342.90587 89.546291 
L 342.941777 89.769865 
L 343.124904 89.823636 
L 343.548608 89.693453 
L 343.72575 89.769865 
L 344.76227 90.916034 
L 344.948987 91.238659 
L 344.996864 92.775374 
L 344.577947 93.74042 
L 344.036946 94.405481 
L 343.72575 95.036581 
L 343.799958 95.441278 
L 344.137486 96.76574 
L 344.148258 97.36854 
L 343.953162 97.640224 
L 342.941777 98.361886 
L 343.242201 98.786393 
L 343.236216 99.315612 
L 343.132085 99.958032 
L 343.144054 100.739125 
L 342.150623 101.455127 
L 339.471949 101.053261 
L 338.30377 101.687191 
L 339.029094 102.309801 
L 341.317577 103.113534 
L 341.412133 104.254043 
L 340.740669 105.035136 
L 339.803492 105.456813 
L 338.33848 105.468133 
L 337.717286 105.663406 
L 336.479686 106.436009 
L 334.023637 106.894477 
L 333.267193 107.386905 
L 333.726804 108.037816 
L 338.392341 106.305827 
L 339.81187 106.436009 
L 342.653323 105.694537 
L 343.543821 105.960561 
L 345.001651 106.928437 
L 345.753308 107.743491 
L 346.026202 108.465153 
L 346.173421 108.852869 
L 345.473232 109.401898 
L 344.277524 111.292369 
L 343.637179 111.705556 
L 339.911213 112.650792 
L 335.976986 112.650792 
L 334.270199 113.083789 
L 332.462873 113.083789 
L 333.367733 113.805451 
L 336.790882 113.083789 
L 341.317577 113.601687 
L 343.343938 113.083789 
L 344.448681 113.083789 
L 344.74312 113.318683 
L 344.604279 113.828091 
L 344.148258 114.595034 
L 344.070459 115.033691 
L 344.096791 115.350656 
L 344.096791 115.62234 
L 343.947178 115.933646 
L 342.832859 116.448714 
L 341.841822 116.547766 
L 340.916614 116.924162 
L 340.916614 117.44489 
L 343.193127 116.963783 
L 343.72575 117.44489 
L 343.72575 117.872228 
L 343.444478 117.948639 
L 343.185946 118.143912 
L 342.945368 118.449557 
L 342.722744 118.865574 
L 343.637179 118.865574 
L 343.925633 119.009906 
L 344.154242 119.324042 
L 344.324203 119.635347 
L 344.448681 119.774019 
L 344.74312 119.561765 
L 345.2147 118.61087 
L 345.461263 118.395786 
L 345.521108 118.124102 
L 346.375698 116.448714 
L 347.579785 115.028031 
L 347.661174 116.046847 
L 347.649205 117.524132 
L 347.553453 118.941985 
L 347.379902 119.774019 
L 347.379902 120.291917 
L 347.926887 120.690954 
L 348.087273 121.350355 
L 347.89098 122.193709 
L 347.379902 123.144604 
L 346.783843 123.693633 
L 345.537865 124.06154 
L 344.948987 124.565288 
L 345.473232 125.513353 
L 345.741339 126.167094 
L 345.66354 126.467079 
L 345.205125 126.693483 
L 344.285902 127.70381 
L 343.838259 127.933043 
L 341.717343 127.415145 
L 339.889669 127.74626 
L 339.29002 127.415145 
L 339.009944 126.767064 
L 338.765775 125.804848 
L 338.456974 124.944514 
L 337.993771 124.565288 
L 337.516206 124.409635 
L 336.541925 123.730424 
L 334.999115 123.212526 
L 333.367733 121.605059 
L 332.462873 121.242813 
L 332.64959 122.006926 
L 332.955997 122.567275 
L 333.315069 122.940841 
L 333.649006 123.144604 
L 332.589744 124.333224 
L 326.600431 124.565288 
L 326.600431 125.086016 
L 335.876446 125.988801 
L 336.176869 126.260486 
L 336.585014 126.789704 
L 336.945282 127.463256 
L 337.099683 128.148127 
L 337.351033 128.518863 
L 338.722687 129.789554 
L 341.755644 131.204577 
L 342.339734 132.206414 
L 341.116497 133.17995 
L 339.674226 132.959206 
L 337.099683 131.691345 
L 334.169659 132.206414 
L 332.363529 131.422491 
L 331.859632 131.691345 
L 333.597539 132.950716 
L 337.810645 133.938402 
L 339.71133 135.531718 
L 339.945924 135.939245 
L 340.226 136.576006 
L 340.321752 137.170315 
L 340.004572 137.43068 
L 339.524613 137.654253 
L 338.792107 138.63628 
L 338.40431 138.857023 
L 335.330657 137.640103 
L 334.453326 138.421196 
L 337.641881 139.742828 
L 338.176898 140.266386 
L 338.194851 141.013519 
L 337.354624 141.279543 
L 333.997305 141.138041 
L 333.063719 140.753154 
L 332.880592 141.08427 
L 332.637621 141.324824 
L 332.040365 141.70405 
L 332.040365 142.221949 
L 332.945225 143.359627 
L 333.42279 144.12657 
L 333.868039 145.071806 
L 333.389277 145.252929 
L 332.040365 146.498149 
L 325.505263 147.918833 
L 324.453183 147.579227 
L 323.869093 147.200001 
L 323.480099 146.735873 
L 322.638675 144.021858 
L 321.887018 143.240765 
L 321.094667 141.636129 
L 320.658994 141.271053 
L 318.348967 140.753154 
L 318.639815 141.152191 
L 318.955798 141.290863 
L 319.653593 141.271053 
L 320.058147 141.593678 
L 320.018649 142.31534 
L 319.823554 143.102093 
L 319.754133 143.605841 
L 320.208957 144.191661 
L 321.695514 145.015205 
L 322.181457 145.071806 
L 322.181457 145.547253 
L 322.133581 146.418908 
L 322.539332 147.522626 
L 323.092302 148.470692 
L 323.480099 148.869728 
L 324.973837 149.390457 
L 325.518429 149.990427 
L 325.195264 150.771519 
L 325.396344 151.246967 
L 320.465095 149.557429 
L 318.949813 150.771519 
L 319.429772 151.365829 
L 320.608724 151.98844 
L 321.178451 152.667651 
L 321.462117 153.448744 
L 321.427407 154.110975 
L 321.116211 154.651513 
L 320.557257 155.04206 
L 316.634998 155.04206 
L 316.275927 155.497697 
L 316.637392 156.425953 
L 317.221482 157.207046 
L 317.52789 157.198555 
L 317.828313 157.911727 
L 318.46387 158.370195 
L 319.038384 158.412645 
L 319.153287 157.894747 
L 320.364555 157.557971 
L 322.181457 154.773205 
L 323.095893 154.093994 
L 323.28261 154.4336 
L 322.83018 155.209033 
L 320.133552 158.556978 
L 319.754133 159.363541 
L 319.652396 160.008792 
L 319.565022 161.443625 
L 319.444135 161.995484 
L 318.48302 163.733133 
L 318.348967 164.367063 
L 318.381283 164.797231 
L 318.414796 165.040615 
L 318.481823 165.527383 
L 318.449507 165.790577 
L 318.302287 166.00849 
L 318.138311 166.130182 
L 318.004258 166.333946 
L 317.946806 166.766943 
L 317.87978 167.066928 
L 317.555419 168.148006 
L 317.436925 168.38007 
L 314.382423 168.728165 
L 312.266295 169.506428 
L 311.501472 169.848864 
L 312.776176 168.813067 
L 315.406974 168.034804 
L 316.74272 167.474455 
L 315.991063 166.953726 
L 312.721118 166.418847 
L 312.488919 166.529219 
L 312.450618 166.823544 
L 312.506872 167.751799 
L 312.39556 167.949902 
L 312.180117 168.099895 
L 311.551742 168.753636 
L 311.192671 168.897968 
L 311.05742 169.084751 
L 310.461362 170.281861 
L 310.12144 170.644107 
L 308.493649 171.716695 
L 307.825776 172.438356 
L 307.22493 173.27888 
L 306.847905 174.127894 
L 307.007093 173.329821 
L 307.106436 172.993046 
L 307.248868 172.701551 
L 307.248868 172.226103 
L 307.048985 172.226103 
L 306.847905 172.919464 
L 306.394278 173.525094 
L 305.896365 173.958091 
L 305.549263 174.127894 
L 305.440344 174.351468 
L 305.526521 174.858046 
L 305.750343 175.364625 
L 306.051963 175.591028 
L 306.688716 175.517447 
L 306.969989 175.367455 
L 307.248868 175.07596 
L 307.392497 176.055156 
L 307.651028 176.977751 
L 306.99273 176.966431 
L 306.126171 178.13524 
L 305.549263 178.440885 
L 304.183594 178.290893 
L 303.583944 178.002228 
L 303.013021 177.48999 
L 302.083025 176.32684 
L 301.519283 175.808942 
L 300.912452 175.591028 
L 300.649133 175.789132 
L 300.09736 176.700407 
L 299.816087 176.977751 
L 299.458212 176.89851 
L 299.121882 176.626825 
L 298.777173 176.530604 
L 298.394163 176.977751 
L 298.774779 177.48999 
L 298.459993 177.832425 
L 298.121269 177.951287 
L 297.388763 177.922987 
L 297.972853 176.021195 
L 297.972853 175.591028 
L 297.024904 175.862713 
L 296.564095 175.825922 
L 296.366606 175.333494 
L 296.232553 174.260906 
L 295.906995 173.542075 
L 295.512016 173.298691 
L 295.162519 173.649616 
L 295.162519 174.127894 
L 295.404294 174.46467 
L 295.573058 174.815596 
L 295.691552 175.299534 
L 295.781319 176.021195 
L 295.38275 175.741021 
L 294.544916 175.418395 
L 294.158316 175.07596 
L 294.158316 174.645793 
L 294.444376 173.672257 
L 294.011097 172.209123 
L 293.271409 170.867681 
L 292.641837 170.281861 
L 292.036203 169.59416 
L 290.872811 169.118712 
L 290.122352 168.897968 
L 290.623855 169.322475 
L 291.634043 169.763962 
L 292.240874 170.069607 
L 292.55566 170.84221 
L 293.094267 172.545898 
L 293.353996 173.128888 
L 293.103843 173.508114 
L 292.852492 173.618486 
L 292.599946 173.482644 
L 292.348595 173.128888 
L 292.348595 173.649616 
L 292.944654 174.209966 
L 293.048785 175.279723 
L 292.804616 176.496643 
L 292.348595 177.48999 
L 291.629255 177.880536 
L 289.989495 177.419238 
L 289.316835 177.922987 
L 289.730964 178.296553 
L 290.179803 178.440885 
L 291.145706 178.440885 
L 290.401231 179.077646 
L 288.517302 179.782327 
L 286.827272 179.9493 
L 285.051065 180.639831 
L 284.280258 181.293572 
L 284.14022 180.945477 
L 283.953502 180.631341 
L 283.880491 180.294566 
L 283.059414 181.488846 
L 280.447767 183.662321 
L 282.897832 182.804817 
L 283.475937 183.232154 
L 282.488491 184.086828 
L 274.868992 186.506518 
L 273.80255 187.508355 
L 275.188566 187.508355 
L 275.188566 187.935692 
L 273.317803 189.613909 
L 272.685837 189.837483 
L 272.399777 190.021436 
L 271.389589 191.260996 
L 270.69299 191.795875 
L 270.41052 192.135481 
L 270.185502 192.729791 
L 269.877898 192.05907 
L 269.584656 191.940208 
L 269.287823 192.220382 
L 268.962265 192.729791 
L 268.962265 193.205238 
L 269.362031 193.205238 
L 269.362031 193.638236 
L 267.595399 194.920247 
L 266.953858 195.10703 
L 267.138182 194.113683 
L 265.548692 195.367394 
L 264.78746 196.32961 
L 264.325454 197.478609 
L 264.807807 197.506909 
L 265.192014 197.136173 
L 265.486452 196.745627 
L 264.725221 198.358753 
L 264.325454 198.950233 
L 262.21172 200.857685 
L 260.804159 203.178323 
L 259.888527 203.693391 
L 260.25478 203.483968 
L 260.624624 203.147192 
L 260.928638 202.612313 
L 261.09381 201.79726 
L 256.656883 205.640463 
L 252.710687 206.840403 
L 252.121809 206.65928 
L 251.616715 206.07063 
L 251.841733 206.492307 
L 252.085902 206.789462 
L 252.349221 206.967755 
L 252.638872 207.018696 
L 252.093084 207.366792 
L 251.616715 207.494144 
L 251.714861 208.227126 
L 251.698105 209.192172 
L 251.542507 210.015715 
L 251.214555 210.346831 
L 251.070926 210.126087 
L 251.015869 209.650639 
L 251.015869 208.699744 
L 250.940464 208.479 
L 250.412629 207.969592 
L 249.306688 206.376275 
L 249.005068 206.07063 
L 248.533488 205.897998 
L 248.294106 206.098931 
L 248.212717 206.704561 
L 248.204339 207.731868 
L 248.301288 209.022369 
L 248.284531 209.925154 
L 248.103799 210.346831 
L 247.710017 210.106277 
L 247.647778 209.489327 
L 247.802178 207.731868 
L 247.705229 207.103597 
L 247.49218 206.291374 
L 247.277934 205.847057 
L 247.180985 206.305524 
L 247.191757 208.164865 
L 247.141487 209.030859 
L 246.997858 209.828932 
L 247.392837 210.462863 
L 247.252799 210.938311 
L 246.783612 211.238296 
L 246.193538 211.334517 
L 246.525081 209.761011 
L 246.546625 209.07331 
L 246.376664 208.48749 
L 246.498749 207.88186 
L 246.577744 207.610176 
L 246.678284 207.494144 
L 246.947588 207.298871 
L 246.963148 206.899834 
L 246.862608 206.557398 
L 246.778825 206.543248 
L 246.943997 204.678247 
L 246.976314 203.665091 
L 246.88894 203.217943 
L 246.7884 202.940599 
L 246.470023 202.40855 
L 246.132496 202.097245 
L 245.974504 202.484961 
L 245.895509 204.287701 
L 245.945779 205.023513 
L 246.193538 205.640463 
L 245.713579 206.093271 
L 245.163003 206.05082 
L 244.674665 206.152702 
L 244.369454 207.018696 
L 244.728526 207.731868 
L 244.882927 208.532771 
L 245.080416 209.277073 
L 245.574738 209.828932 
L 245.037327 210.615685 
L 243.946947 210.88171 
L 241.841591 210.819449 
L 241.392751 210.660966 
L 240.33349 209.828932 
L 239.934921 210.126087 
L 239.536351 210.601535 
L 239.235928 210.584555 
L 239.128207 209.395935 
L 235.496796 211.770344 
L 231.460832 213.196688 
L 228.719919 213.887219 
L 229.04428 213.386301 
L 229.230998 212.775011 
L 229.217832 212.030709 
L 229.051462 211.334517 
L 228.832428 212.325033 
L 228.480538 212.998585 
L 228.060424 213.196688 
L 227.628342 212.72124 
L 227.697762 213.106126 
L 227.701353 213.284419 
L 227.719306 213.417431 
L 227.846178 213.666476 
L 227.846178 214.184374 
L 224.011294 217.037061 
L 224.300945 215.517326 
L 225.062177 214.659822 
L 226.005338 214.272105 
L 226.840778 214.184374 
L 226.840778 213.666476 
L 224.89461 212.602378 
L 224.195618 211.770344 
L 224.044808 212.70992 
L 224.071139 213.089146 
L 224.195618 213.666476 
L 223.439174 214.221165 
L 222.71744 214.065512 
L 221.981343 213.706096 
L 221.18181 213.666476 
L 221.783854 214.184374 
L 221.783854 214.617371 
L 221.042969 214.600391 
L 220.707836 214.741893 
L 220.397837 215.13527 
L 219.915485 214.846605 
L 219.381665 215.262622 
L 218.950779 216.032395 
L 218.771243 216.799337 
L 218.613252 218.030407 
L 218.214682 218.879421 
L 217.690438 219.105825 
L 217.145846 218.460574 
L 216.76523 219.054884 
L 216.626389 219.669004 
L 216.777199 220.161433 
L 217.255961 220.362366 
L 217.629396 220.212373 
L 218.214682 219.558633 
L 218.663522 219.41147 
L 220.985518 219.685985 
L 221.783854 219.41147 
L 220.518725 222.003793 
L 219.751509 222.716965 
L 218.972323 222.258497 
L 219.07047 222.131145 
L 219.103983 222.131145 
L 219.119543 222.094354 
L 219.173403 221.8255 
L 217.969317 221.8255 
L 218.012405 222.473581 
L 217.184147 222.385849 
L 216.728126 222.776396 
L 217.107545 222.728285 
L 217.367274 222.929218 
L 217.464223 223.407496 
L 217.366077 224.202739 
L 219.556413 224.069727 
L 219.97533 223.684841 
L 219.245218 226.036609 
L 218.185957 228.190275 
L 216.835848 229.763781 
L 213.823237 231.224085 
L 211.895023 232.76929 
L 210.057774 233.222098 
L 209.094265 231.801414 
L 209.466502 231.292006 
L 210.293564 230.969381 
L 210.610744 230.590154 
L 211.004526 229.840192 
L 211.374369 229.500586 
L 212.307955 229.424175 
L 212.307955 228.948727 
L 211.472516 228.931747 
L 209.894995 229.449646 
L 209.094265 229.424175 
L 207.087055 228.099713 
L 206.486209 227.955381 
L 206.666941 228.47894 
L 206.447908 228.586481 
L 206.356943 228.711003 
L 206.264781 228.948727 
L 206.548448 229.373234 
L 207.17802 230.561854 
L 207.3791 230.808068 
L 207.663963 231.249555 
L 207.805198 232.231581 
L 207.887785 233.210777 
L 207.989521 233.657925 
L 209.21994 233.742826 
L 209.912948 233.742826 
L 210.402482 233.844708 
L 204.106761 234.863525 
L 200.462185 236.720035 
L 194.271791 238.514285 
L 192.772069 238.449194 
L 187.132252 236.589853 
L 184.752804 237.286045 
L 183.900608 237.02285 
L 184.224969 236.9804 
L 184.357826 236.872858 
L 184.503848 236.589853 
L 183.452965 236.340809 
L 182.928721 236.029504 
L 182.494244 235.596507 
L 181.899382 236.496462 
L 177.94002 235.596507 
L 177.566586 235.418214 
L 176.030956 234.172993 
L 173.619192 233.657925 
L 170.184074 231.190124 
L 165.458693 229.831702 
L 164.527501 228.948727 
L 164.924873 228.869486 
L 165.151088 228.600632 
L 165.121166 228.258196 
L 164.747731 227.955381 
L 164.38866 227.92991 
L 163.894338 228.354418 
L 163.531675 228.47894 
L 160.712964 227.955381 
L 160.799141 228.303477 
L 163.743528 228.948727 
L 155.980401 228.382718 
L 155.47411 227.522384 
L 155.344844 227.590305 
L 155.269439 227.692187 
L 155.197625 227.819539 
L 155.089903 227.955381 
L 154.946275 227.652566 
L 154.860097 227.584645 
L 154.669789 227.522384 
L 154.87087 228.47894 
L 152.612309 228.52422 
L 151.512354 228.241216 
L 147.040716 224.25651 
L 146.600255 223.684841 
L 147.014384 224.083877 
L 147.488358 224.25368 
L 147.974302 224.134818 
L 148.425535 223.684841 
L 148.04851 223.608429 
L 147.378243 223.285804 
L 147.000021 223.209393 
L 147.141256 222.131145 
L 147.201101 221.8255 
L 146.662494 222.660364 
L 146.17655 222.997139 
L 145.649912 222.852807 
L 144.992811 222.258497 
L 144.992811 221.8255 
L 145.998211 222.258497 
L 145.60443 221.19723 
L 145.068216 220.577449 
L 144.488914 220.085021 
L 143.969457 219.41147 
L 143.495483 218.239831 
L 143.239345 217.402137 
L 142.894636 216.97763 
L 142.163327 217.037061 
L 142.163327 217.470058 
L 143.189075 219.009604 
L 143.78274 220.152942 
L 144.189688 221.307601 
L 142.235142 219.42845 
L 141.337463 218.19172 
L 140.776114 216.561613 
L 140.888623 216.445581 
L 141.175881 216.043715 
L 140.958044 215.715429 
L 140.554687 214.617371 
L 141.379354 213.615535 
L 142.310547 213.038205 
L 144.289031 212.72124 
L 145.219026 213.174047 
L 146.851605 215.002258 
L 147.822295 215.13527 
L 147.332761 214.464549 
L 146.614618 213.168387 
L 146.214851 212.72124 
L 143.969457 211.334517 
L 144.855167 209.591208 
L 144.992811 208.920487 
L 144.881499 207.944121 
L 144.553547 207.689417 
L 144.292622 207.935631 
L 144.389571 208.48749 
L 144.389571 208.920487 
L 144.038878 209.591208 
L 142.766567 211.334517 
L 141.940703 212.330694 
L 141.379354 212.944814 
L 140.663605 213.196688 
L 140.431405 213.468372 
L 140.400286 214.130603 
L 140.424224 214.923016 
L 140.353607 215.610718 
L 140.129785 216.289929 
L 139.987354 216.434261 
L 138.664773 215.627698 
L 137.367328 214.436248 
L 136.375094 213.96363 
L 134.312826 212.245792 
L 136.230268 212.245792 
L 136.576174 212.426915 
L 137.283545 213.145747 
L 137.7264 213.196688 
L 137.786245 212.791991 
L 138.174042 212.664639 
L 139.150717 212.72124 
L 139.150717 212.245792 
L 138.32964 212.245792 
L 138.32964 211.770344 
L 138.432574 211.756194 
L 138.644426 211.787325 
L 138.748557 211.770344 
L 138.748557 211.334517 
L 136.65876 211.894866 
L 135.919073 211.770344 
L 135.919073 211.334517 
L 136.919686 209.956284 
L 137.214124 207.8479 
L 136.807177 206.05365 
L 135.700039 205.640463 
L 135.700039 206.07063 
L 136.527101 206.432876 
L 136.433742 207.392262 
L 135.878378 208.515791 
L 134.780816 210.072316 
L 134.078233 210.643986 
L 133.287078 210.830769 
L 132.486349 210.346831 
L 132.802332 211.48734 
L 132.906463 211.770344 
L 131.717936 210.434562 
L 129.064397 208.572392 
L 125.302524 207.095107 
L 124.026623 206.118741 
L 123.315661 205.770645 
L 122.60829 205.210296 
L 122.006247 204.129218 
L 122.176208 203.58868 
L 122.133119 202.900978 
L 121.825514 201.279361 
L 124.117588 201.432184 
L 125.379126 201.126539 
L 126.242095 200.328466 
L 124.031411 200.328466 
L 122.629835 199.496432 
L 122.116362 199.37757 
L 120.604671 199.799247 
L 120.292279 200.090742 
L 120.026566 200.518079 
L 119.104949 201.551046 
L 118.773406 201.79726 
L 118.773406 202.230257 
L 120.270735 202.926449 
L 121.028376 203.58868 
L 121.403007 204.644287 
L 120.790191 204.293361 
L 119.459233 204.081108 
L 118.097155 204.25091 
L 117.27129 204.610326 
L 116.798513 205.334818 
L 117.18631 206.543248 
L 117.046272 206.563059 
L 116.957701 206.693241 
L 116.878705 206.863043 
L 116.766196 207.018696 
L 108.148479 208.249766 
L 107.107171 207.494144 
L 106.118528 206.393256 
L 105.204092 205.708384 
L 104.227418 205.558392 
L 99.336863 207.423393 
L 98.13517 207.488484 
L 97.721041 207.460183 
L 96.20935 207.969592 
L 88.248733 206.07063 
L 87.628737 206.526268 
L 87.087735 207.395092 
L 86.543144 207.966762 
L 85.911178 207.494144 
L 86.331291 207.018696 
L 85.638283 207.021526 
L 84.532343 207.774318 
L 83.590378 208.088454 
L 83.027833 208.682763 
L 82.697487 208.920487 
L 82.381504 208.991239 
L 79.534067 208.648803 
L 78.881754 208.920487 
L 78.740519 209.115761 
L 78.586118 209.421406 
L 78.399401 209.70158 
L 78.169595 209.828932 
L 77.81172 209.616679 
L 77.364078 208.699744 
L 77.03852 208.48749 
L 77.222843 207.774318 
L 77.451452 207.327171 
L 77.629791 206.857383 
L 77.675273 206.07063 
L 77.548401 205.306518 
L 77.304232 204.966912 
L 76.98825 204.689568 
L 76.654313 204.129218 
L 77.110334 203.421707 
L 77.701605 200.885985 
L 77.968515 200.328466 
L 79.264763 200.319976 
L 79.465843 200.090742 
L 79.341365 199.36908 
L 79.042139 199.36908 
L 78.362297 199.853018 
L 77.797357 199.700195 
L 77.174967 199.199277 
L 76.672267 198.316303 
L 76.471187 197.008821 
L 76.923617 195.673039 
L 77.03852 195.10703 
L 77.069639 194.308957 
L 77.021763 192.854313 
L 77.03852 192.211892 
L 77.002612 191.651543 
L 77.178557 191.065723 
L 77.49095 190.578955 
L 77.859596 190.312931 
L 78.284498 190.477074 
L 79.178586 191.529851 
L 80.20194 192.271323 
L 80.997882 193.519374 
L 81.717222 195.203251 
L 82.115791 197.008821 
L 81.694481 197.008821 
L 82.17803 197.755953 
L 82.89378 197.985187 
L 85.763958 198.13801 
L 86.471329 197.959717 
L 86.932138 197.478609 
L 86.604186 196.96637 
L 86.778934 196.408851 
L 87.1787 195.913593 
L 87.534181 195.576818 
L 87.965067 195.353244 
L 89.361855 195.10703 
L 90.435479 194.235375 
L 90.764628 194.113683 
L 91.132078 194.266506 
L 91.894507 194.948547 
L 92.284698 195.10703 
L 93.062686 194.809875 
L 94.491791 193.502393 
L 96.94784 193.001475 
L 97.744979 192.432636 
L 98.435593 191.260996 
L 98.683353 191.660033 
L 98.874858 191.736444 
L 99.046015 191.583622 
L 99.22196 191.260996 
L 99.22196 190.833659 
L 98.714472 190.27897 
L 98.004708 189.758242 
L 97.302124 189.529008 
L 96.811393 189.837483 
L 97.117801 188.713955 
L 97.846716 188.167755 
L 98.659415 188.094174 
L 99.22196 188.411139 
L 98.989761 188.484721 
L 98.435593 188.934698 
L 98.968216 189.226193 
L 99.563078 189.305434 
L 100.144774 189.189402 
L 100.643883 188.934698 
L 100.643883 188.411139 
L 100.043037 188.411139 
L 100.460757 188.026253 
L 100.643883 187.935692 
L 98.816209 186.181063 
L 97.825172 185.632034 
L 96.811393 185.564113 
L 97.699497 184.850941 
L 102.119668 185.682975 
L 102.335111 185.963149 
L 102.484724 186.282944 
L 102.654684 186.515008 
L 103.56912 187.052717 
L 104.03711 187.007436 
L 104.478768 186.515008 
L 104.143634 186.577269 
L 103.828848 186.540479 
L 103.533213 186.367846 
L 103.255531 186.03956 
L 103.606224 185.501852 
L 103.825257 185.275448 
L 104.079001 185.088665 
L 103.475761 184.613217 
L 104.23819 184.316062 
L 105.2783 184.655668 
L 105.673279 184.644347 
L 106.269338 184.630197 
L 106.888138 183.232154 
L 105.868375 183.837784 
L 105.318995 183.911365 
L 105.082008 183.450068 
L 105.285482 182.620864 
L 105.757062 182.207677 
L 106.687058 181.726569 
L 106.09459 181.336023 
L 105.204092 181.225651 
L 104.299232 181.364323 
L 103.655297 181.726569 
L 103.837227 180.54361 
L 103.502093 180.003071 
L 102.918003 179.858739 
L 102.094533 179.892699 
L 101.818047 179.994581 
L 101.558319 180.198344 
L 101.347664 180.53229 
L 100.244117 180.294566 
L 101.107086 179.519133 
L 101.393146 178.950294 
L 101.247124 177.922987 
L 103.049663 176.607015 
L 103.932979 175.568388 
L 104.579308 174.382598 
L 105.085599 172.956255 
L 105.365674 172.545898 
L 105.868375 172.226103 
L 106.507522 172.07045 
L 107.815739 172.268554 
L 108.363922 172.268554 
L 107.778635 172.008189 
L 107.523694 171.750655 
L 107.290298 171.750655 
L 108.482416 170.717688 
L 109.12276 170.400723 
L 109.819359 170.281861 
L 113.869686 171.391239 
L 114.557906 171.232757 
L 115.054622 170.395063 
L 115.377786 169.848864 
L 114.055206 170.621466 
L 113.351426 170.281861 
L 113.351426 169.848864 
L 113.632699 169.863014 
L 113.87208 169.755472 
L 114.338873 169.376246 
L 114.355629 169.059281 
L 114.313738 168.974379 
L 114.235939 168.974379 
L 114.154549 168.897968 
L 114.338873 168.897968 
L 108.993494 168.549872 
L 106.482387 169.161162 
L 104.259734 171.232757 
L 104.144831 171.521421 
L 104.051473 171.903478 
L 103.911435 172.319494 
L 103.655297 172.701551 
L 103.405144 172.902484 
L 102.83422 173.109077 
L 102.554144 173.128888 
L 102.090942 173.312841 
L 100.758786 174.317507 
L 100.342263 174.858046 
L 99.243504 175.876863 
L 97.850307 175.68159 
L 95.203949 174.645793 
L 95.203949 174.127894 
L 96.439156 173.372272 
L 97.61332 172.226103 
L 98.592388 170.802589 
L 99.22196 170.395063 
L 99.858714 170.799759 
L 100.402109 170.20262 
L 101.703145 169.772452 
L 102.270478 169.376246 
L 99.648058 169.084751 
L 98.837754 169.376246 
L 98.270421 169.778113 
L 97.810809 169.933765 
L 97.36197 169.560199 
L 96.811393 168.38007 
L 97.206372 167.729159 
L 97.273399 166.894295 
L 97.285368 165.912269 
L 97.51278 164.839681 
L 97.709072 164.75478 
L 97.947256 164.958543 
L 98.148336 164.984014 
L 98.300343 163.778414 
L 98.460728 163.218065 
L 98.837754 162.255849 
L 98.877251 161.520037 
L 99.62053 160.812525 
L 102.931169 159.066386 
L 104.679848 158.888093 
L 104.53981 158.268313 
L 104.260931 157.920217 
L 103.892284 157.809845 
L 103.475761 157.894747 
L 103.475761 157.46175 
L 104.011975 156.941021 
L 105.137066 155.373175 
L 106.123315 154.923198 
L 106.600881 154.326058 
L 106.888138 154.093994 
L 107.28192 154.003433 
L 108.514732 154.093994 
L 108.397435 155.344875 
L 108.9911 155.548638 
L 109.746347 155.565618 
L 110.119782 156.27313 
L 110.501595 156.782538 
L 112.950463 156.943851 
L 112.466913 156.550475 
L 111.439968 156.658016 
L 110.924102 156.510854 
L 110.500398 156.035406 
L 109.852872 154.959988 
L 109.316658 154.614723 
L 110.521942 154.093994 
L 110.521942 153.666657 
L 107.491378 153.666657 
L 107.491378 153.143099 
L 109.175424 152.090321 
L 109.718819 151.507332 
L 110.205959 151.374319 
L 112.531546 151.764866 
L 112.531546 151.246967 
L 110.241866 150.746049 
L 109.517739 150.771519 
L 107.636204 152.562939 
L 106.888138 152.667651 
L 106.888138 152.192203 
L 107.657748 151.445071 
L 107.940217 150.932832 
L 108.112572 150.253621 
L 106.938408 151.561102 
L 106.59729 151.764866 
L 106.326789 152.124282 
L 106.132891 153.731748 
L 105.775016 154.093994 
L 105.484168 154.286437 
L 104.259734 155.517508 
L 102.730089 156.111817 
L 102.270478 156.510854 
L 102.453604 157.46175 
L 101.58106 157.147615 
L 100.756393 157.382508 
L 99.038834 158.888093 
L 98.342235 159.745597 
L 97.879033 160.034262 
L 97.41224 159.833329 
L 97.096257 159.159778 
L 97.139345 158.472076 
L 97.61332 156.943851 
L 97.002898 157.147615 
L 96.713247 157.925877 
L 96.629464 158.989975 
L 96.62707 160.071053 
L 96.514561 160.404998 
L 95.80719 161.73512 
L 95.683908 162.36339 
L 95.683908 162.852989 
L 95.643214 163.263345 
L 95.406226 163.676532 
L 94.348162 163.665212 
L 94.180596 163.914256 
L 94.075268 164.16896 
L 93.826312 164.381214 
L 93.534267 164.531206 
L 93.29728 164.584977 
L 92.819714 164.355743 
L 92.289485 163.735963 
L 91.832268 162.827518 
L 91.570145 161.73512 
L 91.317598 162.148307 
L 91.088989 162.414331 
L 90.853199 162.581304 
L 90.565942 162.683186 
L 90.984859 161.800211 
L 91.346324 160.716303 
L 91.466015 159.669186 
L 91.167985 158.888093 
L 91.29366 158.780551 
L 91.570145 158.412645 
L 91.34393 158.140961 
L 91.106943 157.965498 
L 90.848412 157.880597 
L 90.565942 157.894747 
L 90.69042 157.665513 
L 90.984859 156.943851 
L 90.984859 156.510854 
L 89.632356 157.546651 
L 88.798113 157.954178 
L 88.157769 157.894747 
L 87.62754 157.048563 
L 87.413294 155.908054 
L 87.519818 154.807166 
L 87.937538 154.093994 
L 87.937538 153.666657 
L 87.427657 153.564776 
L 87.054222 153.046877 
L 86.798084 152.469547 
L 86.642487 152.192203 
L 86.264265 151.9941 
L 85.839363 151.493181 
L 85.433612 150.862081 
L 85.127205 150.253621 
L 85.860908 150.584736 
L 86.628124 151.374319 
L 87.404915 151.858257 
L 88.157769 151.246967 
L 87.534181 151.246967 
L 87.713717 150.457384 
L 87.99499 149.933826 
L 88.34688 149.59139 
L 88.741858 149.345176 
L 88.459389 148.96595 
L 88.338501 148.869728 
L 88.338501 148.39428 
L 91.74609 146.656632 
L 92.593499 145.547253 
L 92.593499 145.071806 
L 90.769416 146.679272 
L 89.797529 147.205661 
L 88.851974 147.400934 
L 88.050047 147.924493 
L 87.146384 148.912179 
L 86.316929 149.514979 
L 85.728051 148.869728 
L 86.112258 148.589554 
L 86.932138 147.400934 
L 87.53059 146.769834 
L 87.871708 146.263255 
L 88.157769 145.547253 
L 87.937538 145.071806 
L 88.202054 144.947284 
L 88.36603 144.74918 
L 88.741858 144.12374 
L 88.083561 143.339817 
L 87.197851 143.087943 
L 85.307937 143.172844 
L 85.728051 142.221949 
L 85.127205 142.221949 
L 85.333072 141.517267 
L 85.87527 140.150355 
L 86.130211 139.332471 
L 85.826197 139.417372 
L 85.558091 139.691887 
L 85.325891 140.147524 
L 85.127205 140.753154 
L 84.941684 140.107904 
L 84.701107 139.84754 
L 84.424621 139.926781 
L 84.121804 140.277707 
L 84.121804 140.753154 
L 82.498801 140.277707 
L 82.040386 140.50977 
L 81.171433 141.500287 
L 80.68908 141.70405 
L 80.68908 142.221949 
L 80.920083 142.28987 
L 81.493401 142.697397 
L 78.783607 143.232275 
L 78.079827 142.697397 
L 78.772835 142.796448 
L 79.125922 142.739847 
L 79.376075 142.459673 
L 79.291095 142.069126 
L 78.988278 141.500287 
L 78.622025 140.982388 
L 78.362297 140.753154 
L 75.247949 140.753154 
L 75.707561 141.262563 
L 77.257553 142.221949 
L 77.257553 142.697397 
L 76.468793 142.666266 
L 75.08517 141.421045 
L 74.242549 141.271053 
L 74.443629 141.271053 
L 70.754767 140.928617 
L 67.247835 140.928617 
L 63.196311 140.625802 
L 61.485934 138.794762 
L 59.855749 138.67307 
L 57.009508 139.332471 
L 56.991555 139.530574 
L 56.478082 140.47015 
L 56.277002 140.753154 
L 55.965807 141.050309 
L 55.637855 141.268223 
L 55.282374 141.355954 
L 51.860422 140.277707 
L 52.176405 139.983382 
L 52.523508 139.807919 
L 52.890958 139.745658 
L 52.396636 139.536234 
L 51.271545 140.150355 
L 50.388229 141.313504 
L 50.254175 142.697397 
L 49.709584 144.330333 
L 48.905263 145.009545 
L 46.730487 145.071806 
L 46.093733 145.252929 
L 44.805863 145.983081 
L 44.209804 146.067982 
L 42.082904 144.811441 
L 41.629277 144.14072 
L 41.207966 143.970917 
L 40.899165 143.634142 
L 40.77708 142.459673 
L 40.611907 141.839892 
L 39.35396 139.807919 
L 38.815353 138.707031 
L 38.359332 137.538222 
L 37.54783 134.580823 
L 37.746516 134.062924 
L 38.340181 134.679874 
L 38.894348 134.41951 
L 39.975154 133.112029 
L 40.537699 132.755443 
L 43.733436 131.832848 
L 44.358221 131.906429 
L 46.723305 133.477105 
L 49.962131 134.062924 
L 50.241009 133.881801 
L 50.77842 132.998827 
L 51.056102 132.681861 
L 52.273354 132.749783 
L 52.571384 132.444138 
L 53.643811 130.734789 
L 54.852685 130.315943 
L 57.51939 130.78573 
L 57.51939 130.265002 
L 57.350626 130.064068 
L 57.264449 129.863135 
L 57.203407 129.625411 
L 57.100473 129.314106 
L 58.333285 129.229205 
L 58.735446 129.602771 
L 58.52479 130.78573 
L 58.912588 131.080055 
L 59.166331 130.709319 
L 59.398531 130.242361 
L 59.72768 130.265002 
L 59.834205 130.932893 
L 59.838992 131.906429 
L 59.992196 132.410177 
L 60.532 131.691345 
L 60.990415 132.132832 
L 61.521841 131.863978 
L 61.957514 131.210237 
L 62.139444 130.522536 
L 62.029329 129.812194 
L 61.806704 128.909409 
L 61.652303 127.916063 
L 61.738481 126.939697 
L 62.546392 125.827489 
L 63.770826 125.606745 
L 66.175408 125.988801 
L 65.953981 126.784044 
L 65.587728 127.321753 
L 64.748697 127.933043 
L 64.833677 128.204728 
L 64.970125 128.883939 
L 64.625416 128.96035 
L 64.377657 129.223545 
L 64.171789 129.665032 
L 63.946771 130.265002 
L 65.573365 132.681861 
L 65.39742 131.626254 
L 65.375875 130.75177 
L 65.507535 130.004637 
L 65.792398 129.314106 
L 65.98151 129.161284 
L 66.539267 129.053742 
L 66.776255 128.883939 
L 66.966562 128.493393 
L 67.15328 127.601928 
L 67.28853 127.177421 
L 68.100032 126.099173 
L 68.941456 126.014272 
L 69.739792 126.704803 
L 70.410059 127.933043 
L 70.876852 127.211381 
L 71.492061 126.761404 
L 73.296994 126.314257 
L 75.046869 125.086016 
L 74.578879 124.783201 
L 72.438813 125.086016 
L 72.438813 124.565288 
L 73.675216 124.282283 
L 75.875128 122.001266 
L 77.03852 121.718261 
L 76.869756 121.998436 
L 76.654313 122.193709 
L 77.178557 122.335211 
L 77.675273 122.669157 
L 77.629791 123.204035 
L 77.613034 123.297427 
L 77.627397 123.303087 
L 77.675273 123.574771 
L 77.263538 124.180401 
L 76.375434 124.67849 
L 76.051073 125.086016 
L 76.440067 125.193558 
L 76.930798 125.156768 
L 77.435892 124.953004 
L 77.859596 124.565288 
L 78.055889 125.91239 
L 78.306042 126.478399 
L 79.283914 126.939697 
L 80.598116 128.162277 
L 81.09124 128.36604 
L 81.09124 127.933043 
L 80.724988 127.7123 
L 80.394642 127.276472 
L 79.666923 125.988801 
L 80.464062 124.919044 
L 80.902129 124.579438 
L 81.493401 124.565288 
L 81.550852 123.642693 
L 82.101428 123.373838 
L 84.557478 123.4927 
L 86.966848 122.915371 
L 90.945361 123.716274 
L 93.579749 125.086016 
L 93.878975 124.902063 
L 94.329012 124.276623 
L 94.601906 124.08984 
L 96.811393 124.08984 
L 97.407452 124.367185 
L 98.039418 124.859613 
L 98.658218 125.088846 
L 98.714472 125.035076 
L 99.22196 124.565288 
L 99.992767 125.088846 
L 103.255531 124.565288 
L 104.03711 123.900227 
L 104.067032 123.037063 
L 103.542788 122.346531 
L 102.654684 122.193709 
L 102.951517 121.271114 
L 103.301013 120.965469 
L 103.728308 120.795666 
L 104.259734 120.291917 
L 104.636759 119.488184 
L 105.868375 115.933646 
L 105.965324 113.525276 
L 105.024556 112.54042 
L 103.748656 112.667772 
L 102.836614 113.601687 
L 102.836614 114.077135 
L 103.054451 114.077135 
L 103.054451 114.595034 
L 98.61872 118.395786 
L 97.14892 119.009906 
L 88.762206 117.376969 
L 86.650865 115.647811 
L 86.331291 115.503479 
L 86.187663 115.545929 
L 85.768746 115.860064 
L 83.087678 116.278911 
L 82.297721 115.933646 
L 81.739963 115.254434 
L 82.191196 114.96011 
L 83.051771 114.688425 
L 83.720841 114.077135 
L 83.944662 114.439381 
L 84.164893 114.586543 
L 84.705894 114.595034 
L 84.705894 114.077135 
L 84.054778 113.596027 
L 83.310303 113.522446 
L 81.893167 114.077135 
L 82.194787 113.046998 
L 82.729804 112.050822 
L 83.720841 110.75466 
L 85.088904 110.10375 
L 85.608361 109.5151 
L 85.529365 108.380251 
L 85.961448 108.193468 
L 87.024299 108.380251 
L 87.286422 108.108567 
L 88.157769 106.436009 
L 88.941742 105.836039 
L 92.223656 104.907784 
L 94.996885 102.776759 
L 96.059737 101.452297 
L 97.943665 100.487251 
L 98.61872 99.745779 
L 98.551693 99.669368 
L 98.478682 99.686348 
L 98.427215 99.626917 
L 98.435593 99.312782 
L 98.877251 99.363723 
L 99.598985 100.164626 
L 100.043037 100.221227 
L 99.779718 99.145809 
L 99.642074 98.794883 
L 101.466157 97.742106 
L 105.285482 96.547826 
L 106.399801 95.888425 
L 107.107171 95.472409 
L 104.282475 96.392174 
L 103.255531 96.417644 
L 101.157356 95.947856 
L 99.412268 96.462925 
L 98.837754 96.417644 
L 99.415859 95.339396 
L 100.043037 94.521513 
L 98.981382 93.488546 
L 98.582813 92.732923 
L 98.435593 91.671656 
L 98.051387 91.957491 
L 97.645636 92.130124 
L 97.227916 92.198045 
L 96.811393 92.147104 
L 96.977763 93.12347 
L 96.715641 93.437605 
L 96.296724 93.338553 
L 95.990316 93.097999 
L 95.719816 92.472559 
L 95.168042 90.805662 
L 94.783836 90.245312 
L 94.93704 91.419782 
L 94.867619 92.404638 
L 94.606694 93.264972 
L 94.180596 94.046065 
L 93.661139 94.691316 
L 93.361912 94.94036 
L 93.096199 95.036581 
L 92.988478 95.336566 
L 92.805351 95.987477 
L 92.567167 96.638388 
L 92.284698 96.935543 
L 91.175167 97.040254 
L 90.678451 96.842151 
L 89.888494 95.613911 
L 88.157769 94.046065 
L 86.920169 93.420625 
L 86.754996 92.806505 
L 87.334298 91.671656 
L 87.972248 91.204698 
L 91.229027 90.502847 
L 92.593499 89.557611 
L 93.29728 89.342528 
L 93.622838 89.036883 
L 93.710212 88.323711 
L 93.713803 87.502997 
L 93.780829 86.880387 
L 94.034573 86.390789 
L 94.360131 86.017223 
L 95.002869 85.499324 
L 94.132719 85.737048 
L 91.972305 88.821799 
L 90.970496 89.648173 
L 90.012972 90.09249 
L 87.937538 90.245312 
L 87.937538 89.769865 
L 89.18232 88.88689 
L 89.562935 88.391632 
L 89.562935 87.870903 
L 88.952514 87.916184 
L 88.514446 88.326541 
L 87.753215 89.342528 
L 87.145187 89.574591 
L 86.772949 89.291587 
L 86.431831 88.90387 
L 85.911178 88.821799 
L 85.911178 89.342528 
L 86.269052 89.874576 
L 86.118242 90.500017 
L 85.68975 91.023575 
L 84.06555 91.671656 
L 83.631073 91.450912 
L 83.318681 90.245312 
L 83.288758 89.104804 
L 83.401267 88.25013 
L 83.394086 87.384135 
L 83.008683 86.206836 
L 82.438956 83.758846 
L 82.087066 82.907002 
L 81.719616 83.552252 
L 81.739963 83.925818 
L 81.718419 84.678611 
L 81.761507 85.420083 
L 82.230694 86.900197 
L 82.234285 87.469037 
L 82.067915 88.003916 
L 81.502976 89.229326 
L 81.182205 89.704774 
L 80.813558 89.752884 
L 80.377885 89.082163 
L 79.820127 87.766192 
L 79.569974 87.65016 
L 79.384454 89.46139 
L 79.161829 90.010419 
L 78.843453 90.276443 
L 78.462837 90.245312 
L 78.235425 89.948158 
L 78.000831 89.387808 
L 77.329367 87.205842 
L 77.201299 86.070994 
L 77.414348 84.905015 
L 78.079827 83.597533 
L 77.81172 83.215477 
L 77.663304 83.314528 
L 77.517282 83.552252 
L 77.257553 83.597533 
L 76.471187 83.079634 
L 75.975668 83.079634 
L 75.806904 83.198496 
L 75.670457 83.597533 
L 75.688411 83.99657 
L 75.95173 85.499324 
L 76.234199 86.359658 
L 77.03852 91.671656 
L 76.626784 92.104653 
L 76.124084 91.997111 
L 75.580689 91.725427 
L 75.046869 91.671656 
L 75.046869 91.238659 
L 75.214436 90.661329 
L 75.070807 90.191542 
L 74.738068 89.885897 
L 74.343089 89.769865 
L 73.368808 90.084 
L 73.045644 89.999098 
L 73.020509 89.342528 
L 72.779931 89.396298 
L 72.035456 89.342528 
L 72.035456 88.821799 
L 72.747614 88.119947 
L 74.061816 86.348338 
L 74.848183 85.969112 
L 74.553744 85.204999 
L 74.058226 84.675781 
L 73.020509 84.0277 
L 72.858927 85.578566 
L 72.260474 86.908687 
L 71.515999 87.576579 
L 70.912759 87.137921 
L 70.722451 86.373809 
L 70.589594 85.524795 
L 70.413649 84.831433 
L 70.098863 84.548429 
L 70.022261 85.018216 
L 69.876239 87.214333 
L 69.788865 87.870903 
L 69.16408 88.666146 
L 67.396251 89.093484 
L 66.567993 89.557611 
L 64.94499 88.768028 
L 64.07843 87.902034 
L 64.165804 86.880387 
L 64.165804 86.44456 
L 63.345924 86.917178 
L 62.845618 88.29258 
L 62.807317 89.812315 
L 63.362681 90.72076 
L 63.362681 91.238659 
L 62.982065 91.629205 
L 62.314192 92.707453 
L 61.921607 93.097999 
L 61.451223 93.242332 
L 59.49189 93.013098 
L 58.686372 92.656512 
L 58.213595 92.580101 
L 57.756377 92.353697 
L 57.406881 91.838629 
L 57.083716 91.221679 
L 56.918543 91.238659 
L 56.719857 91.272619 
L 56.578622 91.368841 
L 56.277002 91.671656 
L 56.409859 91.765047 
L 56.496036 91.858439 
L 56.698313 92.147104 
L 55.853298 92.4952 
L 54.305699 93.76306 
L 50.333171 94.561134 
L 49.430705 94.046065 
L 49.404373 94.880929 
L 49.277501 95.149783 
L 49.078815 95.220534 
L 48.829858 95.472409 
L 47.723918 97.36854 
L 42.328269 98.862804 
L 40.966191 98.701492 
L 39.774074 97.886438 
L 39.774074 97.36854 
L 39.939247 96.816681 
L 39.814768 96.310102 
L 39.519133 95.857295 
L 39.170833 95.472409 
L 39.707047 95.509199 
L 39.934459 95.653532 
L 40.176234 95.947856 
L 40.262411 94.668675 
L 39.720213 94.023425 
L 39.048749 94.116816 
L 38.75072 95.036581 
L 38.04694 93.997954 
L 33.528622 92.147104 
L 25.143105 93.030078 
L 24.068284 92.829145 
L 23.432727 91.671656 
L 24.724188 90.907543 
L 25.377698 90.265123 
L 25.660168 89.557611 
L 26.031208 89.082163 
L 27.749964 88.003916 
L 28.271815 87.401116 
L 28.391505 86.320038 
L 28.386718 85.066327 
L 28.554285 84.0277 
L 29.459145 83.43905 
L 29.973814 82.759839 
L 30.390337 82.604187 
L 31.138403 82.740029 
L 34.000203 84.412586 
L 34.826068 84.548429 
L 35.331162 84.845583 
L 36.94459 86.880387 
L 38.103194 87.604879 
L 40.15828 88.148248 
L 40.646618 88.810479 
L 41.073913 89.591572 
L 41.580204 90.245312 
L 42.46711 90.6868 
L 43.325291 90.627369 
L 44.997368 89.769865 
L 43.65444 89.820806 
L 42.959038 89.634022 
L 42.402477 89.342528 
L 41.921322 88.717087 
L 41.508389 87.899204 
L 41.055959 87.186032 
L 40.467082 86.880387 
L 39.020023 85.312541 
L 38.215703 83.937139 
L 37.277329 82.697578 
L 36.761463 81.701402 
L 41.198391 82.604187 
L 44.079342 84.268254 
L 44.997368 84.548429 
L 44.434822 83.470181 
L 43.648456 82.561736 
L 42.808228 81.927805 
L 41.529934 81.466508 
L 40.003879 80.464671 
L 38.641801 79.975073 
L 37.993079 79.360953 
L 36.94459 77.900649 
L 35.738109 75.480959 
L 35.64116 74.597985 
L 35.67587 73.757461 
L 35.642357 72.939577 
L 35.338343 72.118864 
L 36.583124 71.032126 
L 37.847056 71.117027 
L 50.254175 77.900649 
L 50.534251 78.243085 
L 51.056102 79.278882 
L 51.856831 79.887342 
L 52.061502 80.229778 
L 52.363122 81.469338 
L 52.231463 82.256091 
L 51.920267 82.977753 
L 51.677296 84.0277 
L 52.205131 84.322025 
L 52.880185 83.792806 
L 54.086666 82.128739 
L 54.203963 82.476834 
L 54.671952 83.079634 
L 54.991526 82.425894 
L 56.590591 82.8221 
L 57.300356 82.604187 
L 57.300356 82.128739 
L 57.041825 81.990066 
L 56.920937 81.831584 
L 56.698313 81.180673 
L 57.210588 81.143883 
L 58.52479 80.229778 
L 59.001158 80.173177 
L 59.472739 80.241098 
L 59.921579 80.184497 
L 60.332117 79.75433 
L 56.841942 80.042994 
L 55.250058 79.539246 
L 54.086666 78.803434 
L 53.679718 78.339306 
L 53.156671 77.518593 
L 52.869413 76.7375 
L 53.163852 76.389404 
L 54.995117 75.557371 
L 55.393686 75.718683 
L 55.850904 76.11772 
L 58.251896 75.797924 
L 59.016718 75.118713 
L 59.619958 74.963061 
L 60.906632 75.446999 
L 61.536204 75.50926 
L 62.139444 74.963061 
L 61.768403 74.597985 
L 61.58408 74.479123 
L 61.33632 74.487613 
L 61.33632 74.060276 
L 62.722337 73.11221 
L 63.144844 72.588652 
L 61.531416 72.815055 
L 60.602618 73.231072 
L 59.338686 74.351771 
L 51.410386 74.162158 
L 49.853212 73.539547 
L 48.829858 72.588652 
L 47.281063 73.146171 
L 46.93037 72.849016 
L 46.522225 72.127354 
L 44.811848 70.259523 
L 43.867489 68.374712 
L 43.237917 66.107845 
L 43.339654 64.00229 
L 44.592814 62.618397 
L 45.172116 62.584437 
L 46.840602 63.566463 
L 49.030938 64.044741 
L 49.581515 64.392837 
L 50.515101 65.519195 
L 51.056102 65.943702 
L 51.612663 66.011623 
L 53.466669 65.468254 
L 57.100473 66.888938 
L 58.305757 66.888938 
L 60.401538 68.394523 
L 61.536204 68.85016 
L 62.558361 68.357732 
L 60.126249 67.590789 
L 59.350655 66.642724 
L 56.918543 66.41915 
L 56.158509 65.980493 
L 54.778477 64.766403 
L 51.731156 64.058891 
L 51.056102 63.566463 
L 49.45943 61.446758 
L 48.652716 61.002441 
L 48.258934 60.35153 
L 47.623378 60.091166 
L 46.27686 58.848775 
L 45.07397 57.227159 
L 44.811848 56.661149 
L 44.808257 54.515974 
L 44.977021 53.389615 
L 45.415088 52.557582 
L 46.627553 52.127415 
L 48.151213 52.46419 
L 53.483426 55.597052 
L 55.045387 55.993258 
L 56.097467 55.404609 
L 56.233914 56.497007 
L 56.595379 57.430922 
L 57.106458 58.076173 
L 57.702516 58.302576 
L 57.702516 57.866749 
L 57.203407 57.125277 
L 56.30094 54.957461 
L 55.695306 54.501824 
L 55.022646 54.351831 
L 53.670143 53.70092 
L 52.966363 53.550928 
L 52.638411 53.313204 
L 51.741929 52.124585 
L 50.019582 50.62183 
L 49.030938 49.280388 
L 49.982478 48.516275 
L 52.546249 48.272891 
L 54.488826 48.578536 
L 57.100473 50.66145 
L 56.40148 50.03601 
L 55.24527 48.19931 
L 54.579791 47.811593 
L 51.755095 47.876685 
L 51.056102 47.378596 
L 51.056102 46.860698 
L 51.345753 46.334309 
L 51.774245 45.706039 
L 52.269764 45.17965 
L 52.55343 45.052298 
L 52.765283 44.958906 
L 53.983732 44.899475 
L 54.445737 44.500439 
L 54.488826 43.580674 
L 55.156699 43.252388 
L 59.776753 44.531569 
L 62.772607 46.665425 
L 63.655923 46.860698 
L 64.237619 47.310675 
L 64.980897 48.371943 
L 65.487188 49.625653 
L 65.371088 50.66145 
L 65.573365 52.172695 
L 67.024014 49.968089 
L 67.598528 49.710555 
L 67.914511 49.891678 
L 68.19339 50.316185 
L 68.602732 51.176519 
L 69.138945 51.920821 
L 69.198791 52.297217 
L 69.207169 53.313204 
L 69.36516 54.436733 
L 69.409446 55.110284 
L 69.21435 55.622522 
L 68.718832 56.522477 
L 68.602732 56.661149 
L 67.283742 59.086499 
L 66.995288 59.76854 
L 67.178415 59.76854 
L 67.810381 58.778024 
L 69.419021 56.864913 
L 70.007899 55.928167 
L 70.173071 55.364988 
L 70.305928 54.731057 
L 70.492645 54.221649 
L 70.812219 54.026376 
L 71.164109 54.244289 
L 71.386733 54.765018 
L 71.815225 56.403615 
L 71.677581 56.71209 
L 71.616539 56.921514 
L 72.040244 56.519647 
L 72.507037 55.851756 
L 72.978617 55.4697 
L 73.422669 55.928167 
L 72.921166 57.544124 
L 72.230551 59.171401 
L 71.383143 60.487372 
L 70.410059 61.149603 
L 71.591404 61.076022 
L 72.128815 60.804338 
L 72.619546 60.198708 
L 73.182091 58.415778 
L 73.609386 57.354511 
L 73.932551 57.133767 
L 74.343089 59.010088 
L 74.155175 60.94584 
L 73.885871 62.581607 
L 74.043863 63.566463 
L 75.046869 60.198708 
L 74.991812 58.645012 
L 75.113896 56.853592 
L 75.360458 55.189525 
L 75.670457 54.026376 
L 75.907444 53.499987 
L 76.069026 53.389615 
L 78.061873 53.567908 
L 78.261757 53.788652 
L 78.331177 54.731057 
L 78.517894 55.302727 
L 78.774032 55.653653 
L 79.899123 56.811142 
L 80.961975 58.761044 
L 81.134329 59.010088 
L 81.160661 59.324223 
L 81.026608 60.832638 
L 80.902129 61.599581 
L 80.722594 62.275962 
L 80.489197 62.618397 
L 80.564602 62.873102 
L 80.68908 63.045734 
L 79.174995 67.149302 
L 78.864997 68.428483 
L 79.078046 69.019963 
L 79.461056 68.909591 
L 80.15167 66.226707 
L 82.103822 61.141113 
L 82.297721 59.76854 
L 82.297721 59.247812 
L 82.927293 59.13744 
L 83.327059 59.796841 
L 83.66698 60.784527 
L 84.121804 61.667502 
L 84.334854 61.718443 
L 84.504814 61.54864 
L 84.686744 61.55147 
L 84.926125 62.14295 
L 84.909368 62.703299 
L 84.751377 63.243838 
L 84.726242 63.713625 
L 85.127205 64.044741 
L 85.178672 63.690985 
L 85.316316 62.991964 
L 85.512608 62.462745 
L 85.728051 62.618397 
L 85.730445 63.093845 
L 85.529365 65.468254 
L 85.285196 66.249347 
L 84.605354 67.585129 
L 84.322884 68.357732 
L 84.322884 68.790729 
L 85.447975 68.170949 
L 86.594611 64.290955 
L 87.534181 63.566463 
L 87.534181 63.045734 
L 86.929744 62.406144 
L 86.594611 61.064702 
L 86.381561 59.527987 
L 86.130211 58.302576 
L 85.701719 57.31206 
L 85.141568 56.378145 
L 84.519177 55.681953 
L 83.901574 55.404609 
L 84.205588 54.501824 
L 84.334854 53.65281 
L 84.503617 52.871717 
L 84.926125 52.172695 
L 85.487473 51.895351 
L 86.075154 51.86139 
L 86.589823 51.606686 
L 86.932138 50.66145 
L 86.327701 50.684091 
L 84.875855 51.391602 
L 84.322884 51.912331 
L 83.778293 52.116094 
L 81.313865 50.935965 
L 79.666923 49.280388 
L 72.672209 46.35978 
L 70.615926 44.254225 
L 69.387902 41.163814 
L 70.761949 40.3148 
L 75.128259 39.177121 
L 76.051073 39.219572 
L 79.174995 40.170468 
L 79.986497 40.170468 
L 80.30248 40.28933 
L 80.460471 40.575164 
L 80.557421 40.90345 
L 80.68908 41.163814 
L 81.480235 41.953397 
L 81.896758 42.055279 
L 82.297721 41.639262 
L 82.099035 41.401538 
L 81.955406 41.087403 
L 81.694481 40.170468 
L 83.147524 40.178958 
L 83.893196 39.983685 
L 85.185853 38.990338 
L 86.654456 38.846006 
L 87.334298 38.311127 
L 83.336635 38.922417 
L 82.115791 38.311127 
L 81.537686 37.725307 
L 81.65977 37.631916 
L 82.133745 37.580975 
L 82.607719 37.099867 
L 82.920112 36.579138 
L 83.350997 36.163122 
L 83.839335 35.925398 
L 84.322884 35.939548 
L 84.322884 35.418819 
L 83.669374 35.059403 
L 83.279183 35.192416 
L 82.115791 36.369715 
L 80.622054 37.162128 
L 78.881754 37.320611 
L 77.505313 37.046096 
L 77.257553 36.890444 
L 77.218055 36.137651 
L 77.472996 35.633903 
L 78.079827 34.943372 
L 78.187549 34.448113 
L 78.34554 33.0529 
L 78.462837 32.614243 
L 78.864997 32.192566 
L 80.270164 31.620897 
L 78.991869 31.875601 
L 78.025966 32.532172 
L 75.699183 34.940541 
L 75.152197 35.229206 
L 73.932551 35.418819 
L 73.572282 35.011293 
L 73.770968 34.100018 
L 74.225792 33.143462 
L 74.627953 32.614243 
L 74.627953 32.096345 
L 73.620158 32.495381 
L 73.121049 32.905738 
L 72.619546 33.522688 
L 71.446579 35.534851 
L 71.211985 35.679184 
L 70.503417 36.485747 
L 65.845062 35.314108 
L 64.6314 34.654707 
L 63.831868 33.64721 
L 63.350712 33.194403 
L 63.149632 32.741595 
L 63.544611 32.096345 
L 64.674489 32.019933 
L 66.096412 32.546322 
L 67.35436 32.368029 
L 67.999492 30.200213 
L 67.168839 30.081351 
L 66.240041 29.40497 
L 65.379466 28.417284 
L 64.748697 27.350356 
L 65.64877 26.654165 
L 66.572781 27.061692 
L 67.496791 27.851275 
L 68.384895 28.298422 
L 68.167058 27.517329 
L 68.018642 27.180554 
L 67.779261 26.832458 
L 71.002527 26.317389 
L 71.211985 26.399461 
L 71.391521 26.679635 
L 71.638083 27.528649 
L 71.815225 27.822974 
L 72.449585 27.978627 
L 72.715298 27.449408 
L 72.607577 26.753217 
L 72.126421 26.399461 
L 71.645265 26.221168 
L 70.191025 24.973117 
L 73.131821 24.973117 
L 73.652475 25.193861 
L 74.692585 26.175887 
L 76.018756 26.662655 
L 77.079214 27.902216 
L 77.675273 28.298422 
L 78.429323 28.1739 
L 79.578352 26.877739 
L 80.270164 26.399461 
L 80.205531 26.144757 
L 80.087037 25.448565 
L 81.244444 25.049529 
L 82.194787 25.779681 
L 83.121192 26.821138 
L 85.151143 27.777693 
L 85.595195 27.689962 
L 85.728051 26.832458 
L 85.515002 26.144757 
L 84.744195 25.635348 
L 84.521571 24.973117 
L 85.465929 25.12877 
L 86.37438 26.000424 
L 87.063797 27.367337 
L 87.334298 29.011594 
L 87.848967 30.036071 
L 90.242777 31.306762 
L 90.984859 32.614243 
L 90.565942 33.307605 
L 90.945361 33.726451 
L 92.193733 33.998136 
L 92.193733 34.473584 
L 91.655126 34.303781 
L 91.430107 34.600936 
L 91.387019 35.198076 
L 91.389413 35.939548 
L 91.535435 36.298964 
L 91.793967 36.782902 
L 91.84663 37.30363 
L 91.389413 37.796059 
L 91.389413 38.311127 
L 91.771225 38.786575 
L 92.172189 38.362068 
L 92.640179 38.013972 
L 93.127319 37.801719 
L 93.579749 37.796059 
L 93.85025 38.107364 
L 94.087237 38.582811 
L 94.370903 38.792235 
L 94.601906 38.311127 
L 95.03758 37.433813 
L 95.50916 37.29231 
L 95.779661 37.779078 
L 95.60611 38.786575 
L 97.701891 38.574321 
L 98.234513 38.786575 
L 98.491848 38.350748 
L 98.752773 38.328107 
L 98.999336 38.537531 
L 99.22196 38.786575 
L 99.38833 39.046939 
L 100.445197 40.688366 
L 100.166318 41.180794 
L 98.435593 42.584497 
L 98.826981 42.839202 
L 99.204007 42.646758 
L 99.598985 42.284512 
L 100.043037 42.069429 
L 100.476317 42.174141 
L 101.850364 43.277859 
L 102.220208 43.812738 
L 102.453604 44.008011 
L 102.744452 44.024991 
L 103.340511 43.659915 
L 103.655297 43.580674 
L 105.502122 44.531569 
L 105.414748 44.780614 
L 105.283088 45.437184 
L 105.790576 45.75415 
L 106.083818 46.586183 
L 106.076636 47.429537 
L 105.685248 47.811593 
L 105.795363 48.244591 
L 106.033548 48.932292 
L 106.085014 49.280388 
L 106.09459 49.254917 
L 106.142466 50.395426 
L 106.292079 51.734038 
L 106.487175 52.200996 
L 106.888138 52.557582 
L 107.305858 52.495321 
L 107.821724 52.184015 
L 108.323227 52.056663 
L 108.697858 52.557582 
L 108.75531 53.519797 
L 108.496778 54.391452 
L 108.144888 55.189525 
L 107.911492 55.928167 
L 108.28732 55.826285 
L 108.754113 55.50366 
L 109.149092 55.098964 
L 109.316658 54.739548 
L 109.331021 53.576398 
L 109.301099 53.03869 
L 108.697858 51.649137 
L 109.062915 51.26142 
L 110.10901 50.749182 
L 111.41603 50.66145 
L 111.636261 50.899174 
L 111.796646 51.414243 
L 111.922321 51.934971 
L 112.038421 52.172695 
L 112.581816 52.421739 
L 112.227532 52.965108 
L 111.600354 53.457536 
L 111.326262 53.550928 
L 111.132364 54.215989 
L 111.262826 54.722567 
L 111.828962 55.664973 
L 112.575831 56.264943 
L 115.76319 55.404609 
L 116.608205 55.622522 
L 117.30241 56.013069 
L 117.833836 56.825292 
L 118.190513 58.302576 
L 114.049222 58.681803 
L 113.261658 59.315733 
L 110.156886 60.207198 
L 109.718819 60.198708 
L 110.25982 61.183564 
L 111.08329 61.073192 
L 112.741004 60.198708 
L 115.498674 59.71477 
L 116.364036 60.198708 
L 116.008555 60.787357 
L 114.741033 61.667502 
L 114.741033 62.14295 
L 117.908044 61.259975 
L 118.683638 61.905226 
L 119.11213 63.306099 
L 119.204292 64.503208 
L 118.855993 65.411653 
L 117.972677 65.943702 
L 119.376646 66.888938 
L 119.376646 67.406836 
L 117.917619 70.734971 
L 117.38739 71.637756 
L 116.519634 72.413189 
L 113.534552 73.539547 
L 113.534552 74.060276 
L 114.171306 74.105557 
L 115.267671 73.901793 
L 115.76319 74.060276 
L 117.326348 75.039472 
L 117.78955 75.480959 
L 115.377786 78.327986 
L 114.513621 78.978897 
L 110.521942 78.803434 
L 110.238275 78.480809 
L 109.753529 77.575194 
L 109.618279 77.382751 
L 109.050945 76.969564 
L 108.521913 76.049799 
L 108.165236 75.079093 
L 108.112572 74.487613 
L 107.38246 73.488606 
L 106.477599 73.001838 
L 105.530847 73.027309 
L 104.679848 73.539547 
L 105.250772 73.630109 
L 106.635591 74.518743 
L 107.107171 74.963061 
L 107.168214 75.152674 
L 107.785817 76.287523 
L 107.911492 76.389404 
L 107.986897 77.229928 
L 107.894735 77.784617 
L 107.657748 78.248745 
L 107.290298 78.803434 
L 107.764272 79.278882 
L 108.008441 79.629808 
L 108.112572 79.992054 
L 108.266973 80.914649 
L 108.6045 81.441037 
L 108.943224 81.724042 
L 109.096428 81.916485 
L 109.618279 82.383443 
L 114.52918 82.256091 
L 115.372999 82.689088 
L 115.76319 83.597533 
L 115.463963 84.389946 
L 113.943894 86.767185 
L 113.351426 87.401116 
L 113.351426 87.870903 
L 114.77694 87.095471 
L 116.577085 85.488004 
L 118.119896 85.142738 
L 118.773406 88.131268 
L 118.152212 90.67265 
L 116.680019 93.12347 
L 114.945703 94.906399 
L 113.534552 95.472409 
L 113.534552 95.947856 
L 116.502877 94.810178 
L 117.642331 93.802681 
L 118.281478 93.570617 
L 118.94217 93.70646 
L 119.369465 94.085686 
L 120.19892 95.472409 
L 121.319224 96.528016 
L 121.620844 97.207227 
L 121.403007 98.361886 
L 121.818333 98.61942 
L 121.881769 99.142979 
L 121.811152 99.864641 
L 121.825514 100.739125 
L 122.00146 102.275841 
L 122.006247 103.351258 
L 121.872194 104.746471 
L 121.886557 105.434173 
L 123.030798 109.090593 
L 123.430564 109.803765 
L 123.312071 109.928287 
L 123.283345 109.973567 
L 123.276164 110.035828 
L 123.211531 110.231102 
L 123.799211 110.856542 
L 124.392876 112.014031 
L 124.704071 113.372453 
L 124.435965 114.595034 
L 124.435965 115.028031 
L 124.914727 115.446878 
L 125.101444 115.291225 
L 125.403064 115.036521 
L 125.635264 114.082795 
L 125.206772 112.387597 
L 125.121791 111.264069 
L 125.039205 110.75466 
L 124.780673 110.044319 
L 124.26361 108.994371 
L 124.031411 108.380251 
L 124.46469 107.601988 
L 124.634651 107.386905 
L 124.529323 106.784105 
L 124.718434 106.342618 
L 125.015267 105.954901 
L 125.236694 105.527564 
L 125.395883 104.457807 
L 125.380323 103.492761 
L 124.769901 98.226044 
L 124.651408 96.021438 
L 125.028433 95.036581 
L 125.93449 95.54316 
L 126.565259 96.78555 
L 127.464135 99.745779 
L 128.323513 101.443807 
L 128.450385 101.924915 
L 128.649071 102.428663 
L 129.653274 102.751289 
L 130.056631 103.113534 
L 130.276862 102.589976 
L 129.509646 100.990999 
L 128.816638 98.854314 
L 128.294787 96.570467 
L 128.050618 94.521513 
L 127.942897 92.885746 
L 127.933322 91.756557 
L 128.050618 90.72076 
L 128.181081 90.338704 
L 128.540153 89.676473 
L 128.670615 89.342528 
L 128.97822 87.333194 
L 129.071578 86.880387 
L 129.969257 85.176699 
L 133.288275 82.604187 
L 135.097996 80.229778 
L 135.642588 79.935453 
L 136.20633 79.77697 
L 136.620459 79.488305 
L 136.720999 78.803434 
L 137.108797 78.741173 
L 137.391266 78.953426 
L 137.944237 79.75433 
L 138.071108 79.77697 
L 138.449331 79.692069 
L 138.549871 79.75433 
L 138.636048 80.3543 
L 138.549871 80.546743 
L 138.406242 80.586363 
L 138.32964 80.750506 
L 138.123772 83.535272 
L 138.098637 84.938975 
L 138.32964 85.969112 
L 137.976553 87.146411 
L 137.958599 88.357671 
L 138.274582 89.087823 
L 138.931683 88.821799 
L 138.630063 87.548278 
L 138.68153 86.42475 
L 139.062146 85.901191 
L 139.751563 86.44456 
L 140.008898 86.897367 
L 140.037624 87.174712 
L 140.023261 87.579409 
L 140.136967 88.391632 
L 140.016079 88.920851 
L 139.951447 89.387808 
L 139.952643 89.769865 
L 140.055577 89.744394 
L 140.604957 90.06702 
L 140.776114 90.245312 
L 140.981982 90.825472 
L 141.089703 91.29526 
L 141.236923 91.714107 
L 141.561284 92.147104 
L 141.889236 92.410298 
L 142.241126 92.580101 
L 142.609773 92.642362 
L 142.983207 92.580101 
L 143.081354 92.51218 
L 143.636718 92.127293 
L 143.894052 91.385821 
L 144.044862 90.310404 
L 144.389571 88.821799 
L 144.052044 88.530304 
L 143.60081 87.596389 
L 143.268071 87.401116 
L 142.255489 87.486017 
L 141.767152 87.350175 
L 141.359007 86.880387 
L 142.339272 86.506821 
L 143.268071 86.44456 
L 143.658262 86.297397 
L 144.468567 85.643657 
L 144.893468 85.499324 
L 145.266902 86.153065 
L 145.149606 89.246306 
L 145.575704 90.245312 
L 145.467982 89.124614 
L 145.73968 88.29258 
L 145.927594 87.491677 
L 145.575704 86.44456 
L 145.910837 85.521965 
L 146.856392 84.166372 
L 147.311216 83.337169 
L 147.421332 82.82776 
L 147.456042 81.695742 
L 147.603261 81.180673 
L 147.879746 80.914649 
L 148.421944 80.923139 
L 149.028775 80.750506 
L 148.375265 80.617494 
L 147.973105 79.75999 
L 147.919244 78.792114 
L 148.317814 78.327986 
L 148.699626 78.056302 
L 148.985687 77.34313 
L 149.165223 76.352614 
L 149.229855 75.220595 
L 148.996459 73.437666 
L 148.424338 71.804729 
L 147.69662 70.517057 
L 147.000021 69.784075 
L 147.000021 69.266177 
L 147.782797 68.553005 
L 147.485965 66.532352 
L 146.724733 64.273975 
L 145.609217 61.820324 
L 145.402153 61.172244 
L 145.211845 58.778024 
L 145.027521 57.626195 
L 144.709145 56.72907 
L 144.281849 56.013069 
L 143.770771 55.404609 
L 144.220807 54.725397 
L 144.634936 53.66979 
L 144.771384 52.540601 
L 144.389571 51.649137 
L 144.982039 51.139728 
L 145.688213 51.020866 
L 146.910253 51.176519 
L 147.204692 51.054827 
L 147.736118 50.460517 
L 148.022178 50.225623 
L 148.407582 50.106761 
L 149.446495 50.225623 
L 150.012631 49.914318 
L 151.071893 48.618157 
L 151.538686 48.329492 
L 152.979759 48.8389 
L 153.30053 48.872861 
L 153.638057 48.906822 
L 154.267629 48.329492 
L 154.418439 49.815266 
L 154.80863 50.681261 
L 155.375964 51.207649 
L 156.074956 51.649137 
L 155.873876 52.172695 
L 156.180284 52.45004 
L 156.396924 52.973598 
L 156.676999 54.026376 
L 157.064797 55.059343 
L 158.303594 57.351681 
L 158.483129 57.965801 
L 158.583669 58.50917 
L 158.73807 58.953487 
L 159.088763 59.247812 
L 158.98583 59.462895 
L 158.806294 59.986454 
L 158.70336 60.198708 
L 159.275481 61.126963 
L 160.030728 61.888245 
L 160.57532 62.76839 
L 160.510687 64.044741 
L 161.042113 64.537169 
L 162.626815 64.791873 
L 163.80457 65.555986 
L 164.158854 65.539006 
L 164.482018 65.604097 
L 164.848271 66.181426 
L 165.018232 66.371039 
L 165.395257 66.303118 
L 165.552051 66.41915 
L 165.736375 66.922898 
L 165.815371 67.415326 
L 165.86205 67.899264 
L 165.951818 68.357732 
L 166.60054 69.747285 
L 166.774092 70.259523 
L 166.90216 71.122687 
L 167.06494 73.001838 
L 167.258838 73.799912 
L 167.894395 74.648926 
L 169.395314 75.090413 
L 169.987782 75.956407 
L 170.170908 74.473463 
L 170.37917 73.947074 
L 171.28403 74.060276 
L 171.397736 74.181968 
L 171.80229 74.767788 
L 172.015339 74.963061 
L 172.346882 75.056452 
L 173.179928 75.014002 
L 172.9202 75.166824 
L 172.704757 75.404548 
L 172.616186 75.718683 
L 172.721513 76.284692 
L 172.971667 76.304503 
L 173.510274 75.956407 
L 173.822666 75.54039 
L 174.093167 74.572514 
L 174.423513 72.588652 
L 174.62938 70.562338 
L 174.646137 68.816199 
L 174.452238 67.177602 
L 174.023746 65.468254 
L 173.18711 63.057055 
L 173.108114 62.618397 
L 171.376192 60.719436 
L 171.363026 60.224178 
L 171.492292 59.570437 
L 171.743642 59.015748 
L 172.106304 58.778024 
L 172.641321 58.659162 
L 173.226607 58.302576 
L 173.783168 57.719587 
L 174.222433 56.921514 
L 173.899268 56.522477 
L 173.614405 55.962128 
L 173.382205 55.274426 
L 173.100932 53.797142 
L 173.097342 53.559418 
L 173.224214 53.372635 
L 173.510274 52.817946 
L 174.040503 52.178355 
L 175.720958 51.306701 
L 179.644413 50.66145 
L 181.022051 51.683097 
L 181.754557 51.810449 
L 181.691121 50.66145 
L 181.920927 50.384106 
L 182.15552 50.214303 
L 182.411658 50.154872 
L 182.695324 50.225623 
L 182.612738 50.494478 
L 182.494244 51.176519 
L 183.084318 51.402923 
L 184.082537 52.410419 
L 184.685778 52.557582 
L 184.314737 52.217976 
L 184.04663 51.818939 
L 183.852732 51.312361 
L 183.699528 50.66145 
L 183.900608 50.66145 
L 183.900608 50.225623 
L 183.736632 50.112421 
L 183.457753 49.823757 
L 183.297368 49.710555 
L 183.297368 49.280388 
L 183.572656 48.79645 
L 183.888639 47.163513 
L 184.082537 46.427701 
L 184.369795 46.003194 
L 185.388361 45.128709 
L 188.016765 44.191964 
L 188.951548 44.627791 
L 188.738499 46.860698 
L 189.301044 46.639954 
L 189.693629 46.028664 
L 190.363896 44.531569 
L 190.232236 43.846698 
L 190.142468 43.580674 
L 190.681076 43.167487 
L 191.478215 43.303329 
L 192.953999 44.008011 
L 192.724193 45.046638 
L 192.228674 46.557883 
L 192.135315 47.59368 
L 192.462071 47.571039 
L 194.580593 45.437184 
L 195.442364 45.629628 
L 196.152129 46.467321 
L 196.756566 47.378596 
L 197.301158 47.811593 
L 197.57884 48.306852 
L 197.237722 49.41057 
L 196.404676 51.176519 
L 196.776914 51.207649 
L 197.198224 51.097278 
L 197.597991 50.842573 
L 197.894823 50.443537 
L 198.239532 50.180343 
L 198.623738 50.474667 
L 198.99837 50.935965 
L 199.327519 51.176519 
L 199.78713 51.697247 
L 200.073191 52.914168 
L 200.307784 54.323531 
L 200.623767 55.404609 
L 200.080372 57.487523 
L 199.848172 58.710103 
L 199.919987 59.247812 
L 202.028934 59.76854 
L 203.385027 60.606234 
L 205.568182 60.917539 
L 205.862621 61.149603 
L 206.178604 61.692972 
L 206.672926 62.830651 
L 207.352768 63.35704 
L 207.58018 64.070211 
L 207.733384 64.876775 
L 207.994309 65.79371 
L 208.049367 66.099355 
L 208.147513 66.328589 
L 208.383303 66.41915 
L 208.921911 66.339909 
L 209.187624 66.39651 
L 209.387507 66.651214 
L 209.681945 67.517208 
L 209.760941 68.088878 
L 209.697505 70.021799 
L 209.813605 70.811382 
L 210.354606 72.056603 
L 210.519779 72.588652 
L 210.514991 75.50643 
L 210.610744 75.956407 
L 210.864488 76.15168 
L 211.723866 77.382751 
L 213.112276 78.803434 
L 212.954284 79.734519 
L 213.100307 80.97408 
L 213.45459 81.961766 
L 213.934549 82.128739 
L 214.304393 81.262745 
L 214.279258 79.989224 
L 214.029105 78.729853 
L 213.733469 77.900649 
L 213.496482 77.637455 
L 212.886061 77.178987 
L 212.712509 76.907303 
L 212.58444 76.12055 
L 212.670618 75.673402 
L 212.828609 75.353607 
L 212.929149 74.963061 
L 212.911196 74.30932 
L 212.842972 73.828212 
L 212.815443 73.330124 
L 212.929149 72.588652 
L 213.08355 72.316967 
L 213.588644 71.86416 
L 213.733469 71.637756 
L 213.905824 70.347255 
L 213.816056 69.237876 
L 212.929149 65.943702 
L 212.907605 65.725789 
L 212.929149 64.757913 
L 212.853744 64.494718 
L 212.674208 64.506038 
L 212.465947 64.58528 
L 212.307955 64.520189 
L 211.728653 63.283458 
L 211.506029 63.045734 
L 211.474909 62.974983 
L 211.431821 62.822161 
L 211.348037 62.683488 
L 211.194834 62.618397 
L 211.048811 62.76839 
L 210.807036 63.433451 
L 210.702905 63.566463 
L 210.304336 63.306099 
L 209.394688 62.17691 
L 209.094265 61.667502 
L 209.37075 60.682645 
L 209.259438 59.74873 
L 208.886003 59.052539 
L 208.037398 58.50634 
L 207.443733 57.068676 
L 207.069101 56.403615 
L 207.069101 55.928167 
L 207.288135 55.928167 
L 207.288135 55.404609 
L 206.488602 53.463197 
L 206.121152 50.222793 
L 206.279144 46.96541 
L 207.069101 44.958906 
L 207.460489 44.791934 
L 210.099665 44.958906 
L 210.500629 45.18814 
L 211.209196 45.78811 
L 211.614947 45.909802 
L 212.871698 45.78811 
L 213.330112 45.909802 
L 213.270267 46.164506 
L 213.270267 46.257898 
L 213.251117 46.303179 
L 213.112276 46.427701 
L 214.214625 47.050311 
L 217.115923 46.314499 
L 218.371477 46.860698 
L 218.613252 47.395577 
L 218.918463 48.765319 
L 219.173403 49.280388 
L 219.498962 49.43887 
L 220.688685 49.280388 
L 221.203355 49.574713 
L 222.146516 50.882194 
L 222.695895 51.176519 
L 223.089677 51.513294 
L 224.243494 53.259433 
L 224.614534 54.026376 
L 225.088509 56.030049 
L 225.424839 56.961134 
L 226.369197 57.646005 
L 226.871898 58.342197 
L 227.628342 59.76854 
L 228.627757 62.660848 
L 229.051462 63.566463 
L 229.169956 62.242001 
L 228.923393 61.206204 
L 228.53799 60.272289 
L 228.229188 59.247812 
L 228.801309 59.281772 
L 229.475166 59.103479 
L 230.132267 58.761044 
L 230.656512 58.302576 
L 227.956294 58.441249 
L 227.242938 57.866749 
L 231.924034 57.787508 
L 232.267546 58.121453 
L 232.463839 58.913866 
L 232.885149 60.198708 
L 233.065882 60.198708 
L 233.223873 59.706279 
L 233.258584 59.191211 
L 233.148468 58.712933 
L 232.885149 58.302576 
L 232.885149 57.866749 
L 233.263371 57.549784 
L 233.597308 57.029055 
L 233.77804 56.315884 
L 233.689469 55.404609 
L 234.157459 54.89237 
L 234.345373 54.549934 
L 234.49379 54.026376 
L 234.51294 53.627339 
L 234.444717 52.549092 
L 234.49379 51.649137 
L 234.86124 50.698241 
L 235.608108 49.778476 
L 236.477062 49.076624 
L 237.210765 48.80494 
L 237.529141 48.431374 
L 237.697905 47.61632 
L 237.725434 46.801267 
L 237.604546 46.427701 
L 237.281382 46.218277 
L 237.426207 45.723019 
L 238.02466 44.746653 
L 238.826586 43.94292 
L 240.627929 43.286349 
L 240.93673 42.069429 
L 241.712325 42.76845 
L 244.671074 43.059945 
L 245.443078 43.575014 
L 245.46941 43.628785 
L 246.042728 44.831554 
L 247.180985 47.811593 
L 247.149865 48.18799 
L 247.148668 48.335152 
L 247.163031 48.470994 
L 247.180985 48.80494 
L 246.778825 48.80494 
L 246.778825 49.280388 
L 247.123533 49.577543 
L 247.49218 49.730365 
L 247.85963 49.662444 
L 248.204339 49.280388 
L 248.009243 49.223787 
L 247.580751 48.80494 
L 248.62924 48.040827 
L 252.334858 47.047481 
L 253.425239 47.378596 
L 252.951265 47.361616 
L 252.484472 47.514439 
L 252.038026 47.828574 
L 251.616715 48.329492 
L 251.992543 48.575706 
L 252.520379 49.580373 
L 252.729837 49.492641 
L 253.325896 48.103088 
L 253.676589 47.542739 
L 254.028479 47.378596 
L 254.857934 48.154029 
L 255.465962 49.387929 
L 256.117079 50.440707 
L 257.076997 50.66145 
L 257.076997 50.225623 
L 256.136229 49.569052 
L 255.667042 49.070964 
L 255.349862 48.567216 
L 255.120057 47.655941 
L 255.111678 46.97107 
L 254.994382 46.427701 
L 254.448593 45.909802 
L 255.78793 44.978717 
L 257.79514 44.339126 
L 259.005211 43.600484 
L 259.687447 43.580674 
L 257.084178 45.052298 
L 256.272676 45.909802 
L 258.853204 44.924946 
L 259.466019 44.958906 
L 260.181769 45.587177 
L 261.32601 47.268225 
L 262.096817 47.378596 
L 262.096817 46.860698 
L 261.0591 45.824901 
L 260.534856 45.043808 
L 260.308641 44.271205 
L 260.423544 43.209938 
L 260.728754 42.312813 
L 261.172806 41.622282 
L 261.694657 41.163814 
L 261.711414 40.835529 
L 261.665931 40.750627 
L 261.766471 40.416682 
L 262.025003 39.873313 
L 262.222492 39.202592 
L 262.297897 38.548851 
L 262.223689 37.484753 
L 262.027397 36.901764 
L 261.742533 36.426316 
L 261.274543 35.373539 
L 261.130915 35.144305 
L 260.964545 34.994312 
L 260.782615 34.943372 
L 260.628214 34.685837 
L 260.574354 34.100018 
L 260.550416 33.471747 
L 260.491767 33.089691 
L 259.676675 32.461421 
L 259.475595 31.903901 
L 259.687447 30.670001 
L 259.590498 30.644531 
L 259.285287 30.670001 
L 259.389417 30.440767 
L 259.579725 29.911549 
L 259.687447 29.679485 
L 259.479185 29.481382 
L 259.335557 29.184227 
L 259.066253 28.298422 
L 259.687447 28.298422 
L 259.687447 27.822974 
L 259.177565 27.146593 
L 258.613823 24.930667 
L 257.780777 23.996751 
L 258.04649 23.037365 
L 258.653321 22.191181 
L 259.285287 22.08364 
L 259.457641 22.493996 
L 259.480382 23.023215 
L 259.556984 23.453382 
L 259.888527 23.546774 
L 259.96872 23.232639 
L 260.089607 22.564748 
L 260.308641 21.908177 
L 260.692847 21.608192 
L 261.518712 21.271416 
L 261.996277 21.296887 
L 262.005852 21.845916 
L 261.856239 22.612858 
L 261.956779 23.260939 
L 262.209326 23.742047 
L 262.516931 23.979771 
L 262.459479 23.600545 
L 262.437935 23.2949 
L 262.402028 22.986425 
L 262.297897 22.598708 
L 262.762296 22.426075 
L 263.630053 21.721394 
L 263.906538 21.608192 
L 264.339817 21.967608 
L 264.662982 22.502487 
L 265.016069 22.943974 
L 265.529541 23.028875 
L 265.116609 23.453382 
L 264.926301 23.546774 
L 265.432592 23.979771 
L 265.979577 23.877889 
L 266.554092 23.611865 
L 266.733628 23.546774 
L 266.733628 23.028875 
L 267.059186 22.536447 
L 267.360806 21.868556 
L 267.705515 21.432729 
L 267.758178 21.608192 
L 267.964046 22.406265 
L 268.305164 22.525127 
L 268.621147 22.12326 
L 268.861725 20.810119 
L 269.115469 20.490323 
L 269.766585 20.181848 
L 270.581678 20.181848 
L 272.258542 20.87238 
L 272.593675 20.696917 
L 273.960541 20.130907 
L 276.438135 22.491166 
L 277.834923 23.028875 
L 277.438748 23.665636 
L 276.979136 23.95147 
L 276.596126 24.381638 
L 276.411803 25.448565 
L 276.713423 25.428755 
L 276.813963 25.448565 
L 276.813963 25.881562 
L 276.21192 26.399461 
L 276.369911 26.594734 
L 276.663153 27.146593 
L 276.813963 27.350356 
L 276.469254 27.975797 
L 276.869021 28.077678 
L 277.927085 27.822974 
L 279.107233 28.080508 
L 279.624296 27.822974 
L 279.569239 28.139939 
L 279.492637 28.915372 
L 279.443564 29.249318 
L 282.2527 29.249318 
L 282.784126 29.436101 
L 283.262888 29.917209 
L 283.535783 30.545479 
L 283.475937 31.1879 
L 283.475937 31.620897 
L 284.061224 33.522688 
L 282.833199 35.724464 
L 282.140191 36.618759 
L 281.249694 37.320611 
L 281.651854 38.311127 
L 282.003744 37.931901 
L 282.362815 38.146984 
L 282.769763 38.560171 
L 283.73806 38.967698 
L 283.84219 39.460126 
L 283.712925 40.212918 
L 283.475937 41.163814 
L 283.933155 41.54304 
L 286.087584 41.639262 
L 287.124104 41.180794 
L 287.472404 41.274186 
L 287.619623 41.588321 
L 287.914062 42.069429 
L 288.040934 42.063769 
L 288.215682 41.939247 
L 288.498151 41.639262 
L 288.563981 42.394884 
L 288.750698 43.006174 
L 289.045137 43.427851 
L 289.874592 43.795757 
L 290.754318 44.746653 
L 291.705857 45.468315 
L 292.280372 46.427701 
L 292.862068 47.02201 
L 293.556273 46.427701 
L 293.319286 46.317329 
L 293.22473 46.181487 
L 293.134962 45.909802 
L 293.652025 45.544726 
L 294.036232 44.780614 
L 294.274416 43.685385 
L 294.359396 42.326963 
L 294.240903 40.92609 
L 294.111637 39.941234 
L 294.305535 39.267683 
L 295.162519 38.786575 
L 298.784355 38.786575 
L 300.85141 38.090383 
L 301.012992 37.552675 
L 301.041718 36.910254 
L 301.204497 36.369715 
L 303.287112 35.067894 
L 303.615064 34.23586 
L 303.820932 33.171762 
L 304.311663 32.322748 
L 305.458298 31.1879 
L 306.243468 30.653021 
L 308.76415 30.200213 
L 309.458355 30.389826 
L 310.58943 31.315252 
L 311.282438 31.620897 
L 316.886349 30.709622 
" clip-path="url(#p770e37ba3b)" style="fill: #f5f5f5; stroke: #000000"/>
    <path d="M 223.120797 216.179557 
L 223.342224 216.612554 
L 223.360178 217.198374 
L 223.180642 217.979467 
L 222.718637 218.675658 
L 222.537904 218.760559 
L 222.744969 218.471895 
L 222.893385 218.103989 
L 222.846705 217.699292 
L 222.60134 217.495529 
L 222.285357 217.543639 
L 221.002275 218.019087 
L 221.078877 217.444588 
L 221.977752 216.502182 
L 222.479256 216.162577 
L 222.697092 216.088995 
L 223.120797 216.179557 
" clip-path="url(#p770e37ba3b)" style="fill: #f5f5f5; stroke: #000000"/>
    <path d="M 215.541993 18.214966 
L 216.275696 19.157371 
L 216.501911 19.318684 
L 216.379827 19.961105 
L 215.8101 20.354481 
L 215.299021 19.547918 
L 215.230798 18.410239 
L 215.541993 18.214966 
" clip-path="url(#p770e37ba3b)" style="fill: #f5f5f5; stroke: #000000"/>
    <path d="M 149.271747 235.18049 
L 149.387847 235.435194 
L 149.545838 236.233267 
L 149.322017 236.98889 
L 149.043138 237.651121 
L 148.75229 238.095438 
L 148.539241 237.835074 
L 148.396809 237.218124 
L 148.206502 236.680415 
L 147.986271 235.868191 
L 148.073645 235.089928 
L 148.661325 234.767303 
L 149.360318 234.713532 
L 149.416573 234.832394 
L 149.271747 235.18049 
" clip-path="url(#p770e37ba3b)" style="fill: #f5f5f5; stroke: #000000"/>
    <path d="M 204.620233 56.610208 
L 204.882356 56.997925 
L 205.310848 57.92335 
L 205.310848 58.729913 
L 204.92305 58.981787 
L 204.573554 58.865756 
L 204.318613 58.602561 
L 204.139078 58.183714 
L 204.074445 57.643175 
L 203.903287 56.794161 
L 203.614833 55.806475 
L 203.787187 55.546111 
L 204.353324 56.163061 
L 204.620233 56.610208 
" clip-path="url(#p770e37ba3b)" style="fill: #f5f5f5; stroke: #000000"/>
   </g>
  </g>
 </g>
 <defs>
  <clipPath id="p770e37ba3b">
   <rect x="7.2" y="7.2" width="357.12" height="242.329251"/>
  </clipPath>
 </defs>
</svg>
