<?xml version="1.0" encoding="utf-8" standalone="no"?>
<!DOCTYPE svg PUBLIC "-//W3C//DTD SVG 1.1//EN"
  "http://www.w3.org/Graphics/SVG/1.1/DTD/svg11.dtd">
<svg xmlns:xlink="http://www.w3.org/1999/xlink" width="309.174884pt" height="280.512pt" viewBox="0 0 309.174884 280.512" xmlns="http://www.w3.org/2000/svg" version="1.1">
 <metadata>
  <rdf:RDF xmlns:dc="http://purl.org/dc/elements/1.1/" xmlns:cc="http://creativecommons.org/ns#" xmlns:rdf="http://www.w3.org/1999/02/22-rdf-syntax-ns#">
   <cc:Work>
    <dc:type rdf:resource="http://purl.org/dc/dcmitype/StillImage"/>
    <dc:date>2024-03-04T13:11:11.167949</dc:date>
    <dc:format>image/svg+xml</dc:format>
    <dc:creator>
     <cc:Agent>
      <dc:title>Matplotlib v3.8.0, https://matplotlib.org/</dc:title>
     </cc:Agent>
    </dc:creator>
   </cc:Work>
  </rdf:RDF>
 </metadata>
 <defs>
  <style type="text/css">*{stroke-linejoin: round; stroke-linecap: butt}</style>
 </defs>
 <g id="figure_1">
  <g id="patch_1">
   <path d="M 0 280.512 
L 309.174884 280.512 
L 309.174884 0 
L 0 0 
z
" style="fill: #ffffff"/>
  </g>
  <g id="axes_1">
   <g id="PatchCollection_1">
    <path d="M 31.594725 21.460392 
L 31.631567 21.508738 
L 31.830157 21.614331 
L 31.884071 21.642998 
L 32.18105 21.695682 
L 32.500984 21.70418 
L 32.459378 21.778957 
L 32.40486 21.827393 
L 32.697536 22.018586 
L 32.863959 22.37378 
L 33.280017 23.954307 
L 33.450744 24.285708 
L 33.741267 24.521087 
L 33.625775 24.720778 
L 33.677424 24.838043 
L 34.031073 25.073422 
L 34.103525 25.087018 
L 34.254166 25.082769 
L 34.362485 25.109961 
L 34.411981 25.174542 
L 34.44211 25.24932 
L 34.490889 25.307102 
L 34.991593 25.621508 
L 35.067631 25.705633 
L 35.113541 25.822898 
L 35.226881 25.993697 
L 35.366762 26.149201 
L 35.495167 26.215481 
L 35.607072 26.373534 
L 35.86127 26.895853 
L 35.94494 27.067776 
L 36.063301 27.225829 
L 36.159425 27.403426 
L 36.304327 28.222581 
L 36.393995 28.471556 
L 36.757687 28.367887 
L 38.203847 28.808055 
L 38.239714 28.777465 
L 38.335838 28.716708 
L 38.46209 28.671246 
L 38.592646 28.685267 
L 38.631382 28.788511 
L 38.595515 28.943165 
L 38.592646 29.083798 
L 38.728941 29.144555 
L 38.922623 29.180244 
L 39.107697 29.287312 
L 39.186605 29.463634 
L 39.066809 29.706237 
L 39.159346 29.872787 
L 39.279859 29.956487 
L 39.40898 30.026591 
L 39.539536 30.154903 
L 39.596924 30.284914 
L 39.70596 30.638408 
L 39.776259 30.776917 
L 39.907533 30.866565 
L 40.238944 31.004649 
L 40.305657 31.114691 
L 40.274811 31.284215 
L 40.218141 31.421874 
L 40.177253 31.561232 
L 40.20236 31.737979 
L 40.362327 31.913027 
L 40.657154 32.095722 
L 40.972784 32.239329 
L 41.13869 32.280028 
L 41.357279 32.333651 
L 41.642781 32.48788 
L 41.708325 32.501419 
L 41.813508 32.523145 
L 42.198003 32.535466 
L 42.988513 32.714337 
L 44.225209 32.726234 
L 44.935879 32.983594 
L 45.255311 33.099272 
L 48.180629 33.668602 
L 49.098826 34.052687 
L 49.905117 34.240906 
L 50.041412 34.223911 
L 50.966065 34.11132 
L 51.208526 34.002552 
L 51.930172 33.519047 
L 52.199175 33.397958 
L 52.382814 33.359719 
L 52.921537 33.33975 
L 53.25797 33.238631 
L 53.405743 33.220786 
L 53.595121 33.259449 
L 55.041281 33.855971 
L 55.290915 33.920127 
L 55.541268 33.906531 
L 55.841833 33.794364 
L 56.065644 33.664353 
L 56.280846 33.500352 
L 56.473094 33.303211 
L 56.632344 33.067832 
L 57.023295 32.320055 
L 57.208369 32.098696 
L 57.46159 31.90198 
L 58.266447 31.522994 
L 58.494561 31.320754 
L 58.727697 30.821953 
L 58.896273 30.578926 
L 59.003874 30.496501 
L 59.233423 30.38136 
L 59.343893 30.298935 
L 59.422801 30.19824 
L 59.77932 29.627211 
L 59.96798 29.425821 
L 60.178879 29.263519 
L 60.182062 29.262166 
L 60.412732 29.164099 
L 60.630804 29.158576 
L 61.018168 29.317903 
L 61.226197 29.369738 
L 61.394772 29.340846 
L 62.225909 28.908439 
L 62.32086 28.85904 
L 62.465763 28.700563 
L 62.537497 28.578624 
L 62.77135 27.954911 
L 63.273489 27.216481 
L 63.320833 27.05248 
L 63.455693 26.911423 
L 64.119951 26.537534 
L 65.502985 26.042133 
L 65.664217 25.958011 
L 66.081162 25.740473 
L 66.540101 25.308603 
L 66.541695 25.307102 
L 67.231778 24.491346 
L 67.685137 24.142101 
L 68.266184 23.848089 
L 69.237464 23.54388 
L 69.54879 23.511589 
L 69.728125 23.399423 
L 70.462683 22.715377 
L 70.712337 22.586629 
L 72.382288 21.725423 
L 72.978223 21.168536 
L 73.194318 20.9666 
L 73.462604 20.795801 
L 73.792581 20.714226 
L 74.848507 20.73292 
L 75.019234 20.693832 
L 75.164137 20.571469 
L 75.324822 20.351384 
L 75.331066 20.352842 
L 75.521373 20.397271 
L 75.789659 20.56637 
L 76.640425 21.292903 
L 78.973219 23.859135 
L 79.924414 24.664695 
L 80.314647 25.155848 
L 80.623104 25.75152 
L 80.476864 25.79446 
L 80.116661 25.900225 
L 79.386408 26.35314 
L 78.51699 26.513742 
L 78.049284 26.736375 
L 77.647573 27.08902 
L 77.392199 27.55638 
L 77.366375 28.121036 
L 77.552883 28.561629 
L 77.891469 29.003072 
L 78.681979 29.709636 
L 79.475358 30.012995 
L 79.684104 30.201639 
L 80.103032 31.028441 
L 80.176918 31.236204 
L 80.169744 31.465211 
L 80.104633 31.687574 
L 80.102314 31.695492 
L 79.994713 31.907079 
L 79.869178 32.081277 
L 79.867026 32.081277 
L 79.865592 32.084676 
L 79.293871 32.412253 
L 76.73081 32.831602 
L 76.683466 32.937821 
L 76.686335 33.061883 
L 76.646164 33.168102 
L 75.91878 33.584477 
L 75.789659 33.771421 
L 75.822656 34.447819 
L 76.098115 34.916879 
L 77.000531 35.584779 
L 78.838359 36.426452 
L 79.01339 36.562836 
L 79.050265 36.698803 
L 79.115253 36.938424 
L 79.057865 37.259628 
L 79.08369 37.537495 
L 79.756556 38.03757 
L 79.974628 38.337106 
L 80.225697 38.557615 
L 80.652515 38.566962 
L 81.356227 38.262328 
L 81.682617 38.262328 
L 81.841867 38.618372 
L 81.938708 39.053867 
L 82.118043 39.276925 
L 82.340419 39.465568 
L 82.568533 39.797394 
L 82.802387 40.034898 
L 83.008981 40.306817 
L 83.353586 40.711682 
L 83.534075 40.923732 
L 83.912831 41.513881 
L 84.356148 41.914961 
L 84.426909 41.920411 
L 85.06775 41.96977 
L 85.402031 41.881396 
L 85.777918 41.731841 
L 86.129415 41.527052 
L 86.40344 41.269579 
L 86.714048 41.111951 
L 87.158083 41.114925 
L 88.054341 41.288621 
L 88.095009 42.733858 
L 87.937985 43.215604 
L 88.035137 43.566208 
L 88.062249 44.434688 
L 88.324333 45.042223 
L 88.518636 47.053511 
L 89.092509 48.971127 
L 88.982931 49.2856 
L 88.969375 49.659622 
L 89.029247 50.014909 
L 89.135437 50.267826 
L 89.625714 51.016539 
L 89.630233 51.187157 
L 89.587305 51.333688 
L 89.565841 51.452117 
L 89.711569 52.097121 
L 90.000765 52.715362 
L 90.70455 53.706955 
L 91.638788 54.619595 
L 92.653233 55.304745 
L 94.892241 56.402054 
L 95.931539 56.732585 
L 101.268106 57.411713 
L 101.840849 57.329415 
L 102.314181 57.146084 
L 102.761531 57.068469 
L 103.257457 57.31068 
L 103.125285 57.330753 
L 102.97165 57.290608 
L 102.891443 57.279233 
L 102.782995 57.411713 
L 103.940908 57.836586 
L 105.746123 58.228673 
L 106.396813 58.467539 
L 106.836255 58.860965 
L 106.780901 59.454449 
L 106.902906 59.683278 
L 107.083653 60.277431 
L 107.210176 60.514958 
L 107.411258 60.810028 
L 107.737733 61.69925 
L 108.154582 62.349607 
L 108.639211 62.789199 
L 109.642359 63.505796 
L 110.328069 64.294655 
L 110.538188 64.413753 
L 110.808179 64.487353 
L 112.343403 65.473594 
L 112.631469 65.537157 
L 112.824643 65.620794 
L 113.234713 66.042321 
L 113.441443 66.210932 
L 115.630746 67.343704 
L 117.628005 68.690584 
L 118.792696 69.19441 
L 122.668598 69.925058 
L 125.142578 70.609538 
L 127.709191 71.048462 
L 130.180912 71.731604 
L 132.749784 71.405757 
L 135.03285 70.609538 
L 137.419845 70.047501 
L 139.892695 69.59921 
L 142.261616 69.138875 
L 144.638444 68.46577 
L 146.931677 67.792664 
L 151.538476 66.811776 
L 152.159795 66.71342 
L 157.622885 66.41835 
L 158.620385 66.191528 
L 159.297058 65.648895 
L 159.265427 66.273827 
L 158.479176 66.534772 
L 157.491844 66.651194 
L 156.856968 66.83854 
L 156.682999 66.921507 
L 156.484177 66.892067 
L 156.112515 66.781667 
L 155.903526 66.813114 
L 155.519438 66.954293 
L 155.30593 66.996445 
L 154.492566 66.894074 
L 153.780874 66.894074 
L 153.889322 67.078743 
L 154.084755 67.139631 
L 154.540013 67.118889 
L 154.263243 67.207878 
L 154.153665 67.22126 
L 154.489177 67.645464 
L 155.056272 67.885668 
L 157.213944 68.068329 
L 157.430841 68.184751 
L 157.668072 68.263704 
L 159.405507 67.811398 
L 159.570439 67.680257 
L 159.665331 67.405929 
L 159.672109 65.706437 
L 159.596421 65.425419 
L 159.391951 65.312343 
L 159.128737 65.212648 
L 159.168276 64.973113 
L 159.484584 64.413753 
L 159.15472 63.927324 
L 158.933304 63.323134 
L 158.623774 61.934101 
L 158.203536 60.860878 
L 158.140275 60.627366 
L 158.009233 59.233649 
L 161.796721 59.546338 
L 162.07218 59.532318 
L 162.32325 59.431198 
L 162.580058 59.197518 
L 162.836866 59.035216 
L 163.139584 59.02162 
L 163.459518 59.061558 
L 163.76654 59.060709 
L 164.261506 58.906055 
L 166.610081 57.621239 
L 166.924277 57.575353 
L 167.769305 57.749551 
L 168.076327 57.745302 
L 168.284356 57.65268 
L 168.62581 57.305983 
L 168.899834 57.202314 
L 169.073431 57.047661 
L 169.733385 56.638933 
L 170.084882 56.361066 
L 170.149443 56.242951 
L 170.192483 55.991426 
L 170.381861 55.57845 
L 170.424902 55.344345 
L 170.442118 54.948788 
L 170.424902 54.833648 
L 170.361776 54.725305 
L 170.198222 54.586797 
L 170.149443 54.497148 
L 170.135096 54.150877 
L 170.36321 53.64018 
L 170.424902 53.313027 
L 170.50094 53.053005 
L 170.68171 52.779387 
L 171.097768 52.354089 
L 173.182362 51.006392 
L 173.830838 50.32702 
L 173.939874 50.155372 
L 174.013043 49.931889 
L 174.180901 49.845214 
L 174.376017 49.815048 
L 174.525224 49.761514 
L 174.625652 49.635327 
L 174.777728 49.335367 
L 174.896807 49.210454 
L 175.165093 49.12548 
L 175.96708 48.982722 
L 176.137807 48.919841 
L 176.26406 48.659819 
L 176.565343 48.501766 
L 177.198038 48.302076 
L 177.355853 48.281682 
L 177.642789 48.062448 
L 177.929726 47.924789 
L 178.961263 47.178287 
L 179.298413 47.0504 
L 180.180743 47.014711 
L 182.92529 46.475122 
L 183.338479 46.475972 
L 184.197854 46.653569 
L 184.740164 46.947581 
L 184.943889 47.012162 
L 185.651187 47.01896 
L 185.88504 47.086939 
L 186.262362 47.273883 
L 186.456044 47.332516 
L 186.669812 47.342713 
L 188.655412 47.004514 
L 189.216373 47.071644 
L 189.283931 47.097745 
L 189.715642 47.264536 
L 189.940888 47.294277 
L 191.130239 47.106908 
L 191.348311 46.955229 
L 191.487475 46.696056 
L 191.536255 46.390997 
L 191.470259 46.105483 
L 191.092938 45.700154 
L 191.180453 45.475821 
L 192.05561 44.717848 
L 192.523316 44.411939 
L 193.028324 44.231793 
L 194.300888 44.193555 
L 194.53761 44.247938 
L 194.731292 44.358405 
L 194.906324 44.487992 
L 195.092832 44.569142 
L 195.316643 44.531329 
L 196.429956 44.075015 
L 197.094214 43.969222 
L 197.22764 43.993015 
L 197.771385 44.405991 
L 198.246265 44.66134 
L 198.461467 44.727195 
L 200.550365 45.092586 
L 201.101283 45.305022 
L 201.383915 45.34666 
L 201.634985 45.215799 
L 201.828667 45.054347 
L 202.277722 44.77563 
L 202.442711 44.609505 
L 202.722474 44.155316 
L 202.765181 44.112049 
L 202.886028 43.989616 
L 203.127054 43.879998 
L 203.279131 43.862154 
L 203.431207 43.879998 
L 203.728186 43.97432 
L 203.881697 44.067367 
L 203.920434 44.17401 
L 203.926172 44.296374 
L 203.984994 44.440831 
L 204.304929 44.948129 
L 204.555998 45.517459 
L 204.718117 45.74689 
L 205.172912 46.206178 
L 205.333596 46.697756 
L 205.630575 47.093312 
L 205.69944 47.380951 
L 205.665008 47.65457 
L 205.390983 48.52301 
L 205.74248 48.960204 
L 207.739558 49.703732 
L 207.959065 49.67484 
L 208.175702 49.612809 
L 208.41099 49.577545 
L 208.643408 49.606436 
L 209.350707 49.797629 
L 210.027877 49.784033 
L 210.235906 49.733898 
L 210.44537 49.737297 
L 210.631878 49.845214 
L 210.805475 49.987122 
L 210.983376 50.092915 
L 211.051168 50.099036 
L 211.10102 50.103537 
L 211.327699 50.053827 
L 211.442474 50.080594 
L 211.540032 50.171092 
L 211.666284 50.419643 
L 211.748061 50.521612 
L 211.95609 50.602763 
L 212.184205 50.586193 
L 212.418058 50.535208 
L 212.643303 50.519063 
L 213.123922 50.640577 
L 215.300335 51.621183 
L 216.215663 51.822998 
L 216.683369 51.860812 
L 216.90718 51.909247 
L 217.141033 52.017165 
L 217.247199 52.128482 
L 217.248634 52.242348 
L 217.218506 52.360037 
L 217.229983 52.487074 
L 217.44949 52.872009 
L 217.498269 52.994373 
L 217.534136 53.294333 
L 217.53557 53.522065 
L 217.603001 53.709009 
L 217.839723 53.894254 
L 218.076446 53.978803 
L 219.158196 54.131333 
L 219.333228 54.209509 
L 219.699072 54.455936 
L 219.892754 54.504371 
L 221.149536 54.387106 
L 221.390562 54.278339 
L 221.577071 54.005995 
L 221.704758 53.731102 
L 221.871181 53.499547 
L 222.086383 53.352965 
L 222.357538 53.333421 
L 222.584218 53.443888 
L 223.281474 54.025114 
L 223.881171 54.257095 
L 224.195367 54.301282 
L 224.508127 54.269841 
L 224.628641 54.201012 
L 224.716156 54.102866 
L 224.815149 54.027239 
L 224.972964 54.026814 
L 225.268509 54.080348 
L 225.410543 54.069726 
L 225.55688 54.02299 
L 225.741954 53.80588 
L 225.776387 53.561153 
L 225.852425 53.447287 
L 226.684541 53.884057 
L 227.761987 54.116887 
L 228.310036 54.353966 
L 228.505153 54.486527 
L 228.690227 54.543035 
L 229.093373 54.600392 
L 229.246884 54.681118 
L 229.700243 55.122986 
L 231.552418 56.37976 
L 231.849398 56.406102 
L 232.62843 56.069603 
L 232.948364 56.149054 
L 233.226693 56.399304 
L 233.494978 56.7494 
L 233.559539 56.96651 
L 233.516499 57.331476 
L 233.59971 57.511197 
L 233.638447 57.647581 
L 233.581059 57.794587 
L 233.494978 57.956464 
L 233.449069 58.139584 
L 233.482066 58.483731 
L 233.754656 59.617292 
L 233.916775 59.843325 
L 234.786193 60.525671 
L 235.047305 60.800988 
L 235.129082 60.91188 
L 235.111866 60.991756 
L 235.061652 61.047415 
L 235.041566 61.092451 
L 235.02435 61.202918 
L 234.982744 61.338452 
L 235.022915 61.456142 
L 235.25103 61.513075 
L 235.341415 61.601449 
L 235.45332 61.686423 
L 235.570964 61.742082 
L 235.685739 61.748455 
L 236.126186 61.583604 
L 236.331346 61.617594 
L 236.563764 61.854248 
L 236.662757 62.110447 
L 236.728753 62.421454 
L 236.824876 62.693797 
L 237.011385 62.832731 
L 237.143376 62.806389 
L 237.240934 62.707393 
L 237.403053 62.464791 
L 237.53361 62.39936 
L 237.681382 62.408707 
L 239.679895 63.024773 
L 240.590918 63.754705 
L 241.10023 64.03852 
L 242.239368 64.231412 
L 242.761593 64.445548 
L 243.173346 64.968142 
L 243.694136 66.020552 
L 244.335439 66.951449 
L 245.805989 68.656039 
L 246.098664 69.105555 
L 246.50181 70.114203 
L 246.787312 70.59261 
L 247.24641 70.836487 
L 249.452952 70.798249 
L 251.394077 70.765108 
L 254.355262 70.713274 
L 256.000842 70.685232 
L 257.424047 70.66144 
L 258.11413 70.777005 
L 258.67796 70.850083 
L 258.7913 71.409216 
L 258.906074 71.66244 
L 258.957723 71.814545 
L 258.980678 72.021033 
L 258.960592 72.223272 
L 258.906074 72.406818 
L 258.831471 72.56487 
L 258.74539 72.689783 
L 258.685133 72.863981 
L 258.708088 73.061972 
L 258.7913 73.308398 
L 258.492886 74.632302 
L 258.412544 75.438711 
L 258.61053 75.90947 
L 258.566055 75.974901 
L 258.544534 76.020787 
L 258.507233 76.134653 
L 258.640658 76.189886 
L 258.751129 76.274861 
L 258.83721 76.374281 
L 258.894597 76.471152 
L 258.95055 76.643651 
L 258.974939 76.815299 
L 258.980678 77.196835 
L 259.026588 77.356587 
L 259.228878 77.677791 
L 259.436907 78.700036 
L 259.472774 79.195437 
L 259.495729 79.279562 
L 259.46847 79.380682 
L 259.322132 79.564227 
L 259.253268 79.677243 
L 259.210227 79.824249 
L 259.185838 79.985701 
L 259.180099 80.136106 
L 259.127016 80.313703 
L 259.009372 80.396128 
L 258.878816 80.445414 
L 258.7913 80.52359 
L 258.751129 80.722431 
L 258.799908 81.052982 
L 258.7913 81.206786 
L 258.622007 81.380134 
L 258.339375 81.603617 
L 258.17869 81.798209 
L 258.369503 81.880634 
L 258.709523 81.932469 
L 258.990721 82.076926 
L 259.233182 82.291911 
L 259.455558 82.554483 
L 259.599026 82.782215 
L 259.722409 83.058382 
L 259.809924 83.348995 
L 259.87305 83.937869 
L 259.923264 84.185145 
L 259.931872 84.451966 
L 259.842922 84.820755 
L 259.931872 84.941419 
L 259.934742 85.103721 
L 259.842922 85.493754 
L 259.832879 85.585527 
L 259.842922 85.876989 
L 259.801316 85.991705 
L 259.611938 86.171001 
L 259.55742 86.269572 
L 259.593287 86.708891 
L 259.782665 87.08023 
L 260.119816 87.586678 
L 260.221678 87.739632 
L 260.368016 88.412631 
L 260.402448 88.744882 
L 260.316367 89.08648 
L 260.131293 89.396637 
L 259.80562 89.780722 
L 259.652109 90.096827 
L 259.531596 90.612623 
L 259.455558 90.780873 
L 259.164317 91.160709 
L 259.083975 91.342555 
L 259.019414 91.679904 
L 259.083975 92.526251 
L 258.973505 92.817714 
L 258.706654 92.96557 
L 258.375242 93.019953 
L 258.079697 93.026751 
L 257.880276 93.186504 
L 257.7985 93.536599 
L 257.787022 93.887544 
L 257.797065 94.047296 
L 257.874538 94.118675 
L 257.941968 94.276728 
L 257.936229 94.43478 
L 257.797065 94.506159 
L 257.713853 94.580087 
L 257.785587 94.744088 
L 258.279118 95.390744 
L 258.317855 95.460424 
L 258.290596 95.647368 
L 258.253294 95.793524 
L 258.274814 95.928634 
L 258.421152 96.078189 
L 258.085436 96.537052 
L 257.985008 96.772431 
L 257.901797 97.452228 
L 257.699506 98.069143 
L 257.653597 98.390347 
L 257.610556 98.54755 
L 257.414005 98.856858 
L 257.36953 99.063346 
L 257.383876 99.231596 
L 257.445568 99.537504 
L 257.45561 99.680262 
L 257.395354 100.261488 
L 257.284883 100.803626 
L 256.858783 100.942984 
L 256.779875 101.214903 
L 256.510155 101.687361 
L 256.071142 102.022161 
L 255.820072 102.308526 
L 255.802856 102.69686 
L 255.848766 103.121732 
L 255.792813 103.521963 
L 255.647911 103.709757 
L 255.485791 103.747995 
L 255.305021 103.73355 
L 255.111339 103.76414 
L 254.924831 103.868659 
L 254.834446 103.978276 
L 254.764146 104.109137 
L 254.134321 104.812727 
L 253.863166 104.993723 
L 253.517407 105.088894 
L 252.757025 105.189164 
L 252.411267 105.363362 
L 252.207542 105.709209 
L 252.355314 105.730027 
L 252.474393 105.795458 
L 252.563343 105.908474 
L 252.682422 106.300632 
L 252.805805 106.415348 
L 253.145824 106.568302 
L 253.313682 106.717432 
L 253.448542 106.9082 
L 253.668049 107.335622 
L 254.698151 108.64848 
L 254.855966 108.956513 
L 253.82156 109.01642 
L 252.411267 109.100969 
L 251.429944 109.158327 
L 251.526068 109.508423 
L 251.309431 109.740828 
L 250.649477 110.0854 
L 250.163119 110.582077 
L 249.725541 111.139935 
L 249.335308 111.914478 
L 249.252096 112.650358 
L 249.275457 112.869869 
L 249.427127 114.295041 
L 249.824534 116.80774 
L 249.794406 117.453972 
L 249.365436 118.408236 
L 249.253531 118.94655 
L 249.599289 120.146816 
L 250.474446 120.978717 
L 251.594933 121.43758 
L 252.682422 121.52043 
L 253.702481 121.466047 
L 254.239052 121.505135 
L 254.705324 121.62155 
L 254.920527 121.746038 
L 255.15438 121.954651 
L 255.277762 122.190455 
L 255.262888 122.215693 
L 255.155814 122.397368 
L 254.950655 122.471296 
L 254.292136 122.515058 
L 254.046805 122.677359 
L 254.006634 122.913589 
L 254.055413 123.187632 
L 254.081237 123.470597 
L 254.003764 123.799024 
L 253.858862 123.986393 
L 253.404067 124.267659 
L 253.003791 124.620303 
L 252.475828 125.332391 
L 251.800092 126.242043 
L 251.045449 127.253666 
L 250.374018 128.156521 
L 250.289371 128.386377 
L 250.309457 129.686064 
L 250.511747 130.737199 
L 250.909154 132.085321 
L 251.37973 133.677745 
L 251.863218 135.320729 
L 252.373965 137.052086 
L 252.937795 138.955092 
L 253.54897 141.235385 
L 254.020981 142.995209 
L 253.992287 144.334408 
L 253.805778 145.643017 
L 253.722567 145.917485 
L 253.359592 146.388244 
L 253.251991 146.640618 
L 253.299335 146.741738 
L 253.415545 146.809718 
L 253.497322 146.90234 
L 253.378243 147.264332 
L 253.406937 147.433431 
L 253.475801 147.594883 
L 253.530319 147.77078 
L 253.554709 148.127674 
L 253.451412 149.14397 
L 253.48154 149.940182 
L 253.673787 151.462077 
L 253.497322 152.677213 
L 253.530319 153.062148 
L 253.738348 153.856661 
L 253.901902 155.39725 
L 254.36387 155.593541 
L 255.765555 155.801729 
L 258.091175 156.146726 
L 258.113577 156.150049 
L 260.468444 156.49937 
L 263.190036 156.903 
L 264.792058 157.139063 
L 265.554393 157.251395 
L 265.911629 157.395002 
L 266.184219 157.614237 
L 266.680619 158.254945 
L 266.776743 158.559154 
L 266.680619 159.265293 
L 266.686358 159.592445 
L 266.821218 159.928095 
L 267.1928 160.553508 
L 267.310444 160.923147 
L 267.333399 161.404953 
L 267.367832 161.575752 
L 267.610293 162.098346 
L 267.779586 162.635385 
L 267.847016 162.962537 
L 267.84845 163.285441 
L 267.749457 163.631288 
L 267.484041 164.165778 
L 267.544298 164.35782 
L 267.597381 165.481184 
L 267.514169 165.52877 
L 267.479737 165.644336 
L 267.459651 165.940897 
L 267.478302 165.958741 
L 267.512735 166.046265 
L 267.276012 166.303738 
L 266.129701 167.716016 
L 264.375084 169.880319 
L 262.785456 171.843232 
L 261.656361 173.228318 
L 260.154248 175.069717 
L 259.369477 176.033329 
L 258.223166 177.437959 
L 256.076881 180.067072 
L 256.072577 180.071321 
L 255.018085 181.341691 
L 254.216097 182.307003 
L 255.336584 183.675094 
L 256.071142 184.569026 
L 256.977861 185.690266 
L 258.023745 186.98018 
L 259.109799 188.323628 
L 260.251807 189.732082 
L 260.522962 189.961939 
L 260.815637 190.081328 
L 261.059533 190.262324 
L 261.18722 190.678699 
L 261.161395 190.999903 
L 260.996407 191.576031 
L 260.996407 191.898085 
L 261.128398 192.233309 
L 261.57028 192.737633 
L 261.74818 193.020599 
L 261.791221 193.204994 
L 261.828523 193.615421 
L 261.900257 193.80279 
L 262.048029 193.975713 
L 262.174281 194.023299 
L 262.301968 194.040294 
L 262.45261 194.122719 
L 262.594643 194.356399 
L 262.667812 194.636391 
L 262.773978 194.874744 
L 263.012136 194.980113 
L 263.146996 195.092279 
L 263.187167 195.234187 
L 263.139822 195.383742 
L 263.012136 195.525225 
L 262.911708 195.631443 
L 262.872972 195.732138 
L 262.904535 195.828159 
L 263.012136 195.914408 
L 263.191471 195.999383 
L 263.346417 196.12727 
L 263.468365 196.297219 
L 264.05515 197.698875 
L 264.135492 198.017954 
L 264.16849 198.294122 
L 264.240224 198.540123 
L 264.6405 199.005359 
L 265.037907 199.910338 
L 265.441053 200.425285 
L 266.872866 201.779779 
L 267.449609 202.558996 
L 268.330504 203.410867 
L 268.769517 203.939833 
L 269.026325 204.085565 
L 269.857006 204.328167 
L 270.519112 204.727548 
L 270.939474 204.865207 
L 271.861975 204.946782 
L 272.305291 205.047052 
L 273.460211 205.586641 
L 275.293735 205.974125 
L 275.678947 206.184012 
L 275.840349 206.381578 
L 275.959428 206.602087 
L 276.101461 206.801778 
L 276.326706 206.935188 
L 276.55769 207.013364 
L 276.702593 207.109811 
L 276.798717 207.276361 
L 276.889102 207.5623 
L 277.091392 207.917494 
L 277.967983 208.910422 
L 278.248464 209.096092 
L 280.520283 208.614286 
L 280.82874 208.809727 
L 280.89617 209.38458 
L 280.692445 211.0743 
L 280.470069 212.944591 
L 280.726878 214.081551 
L 281.089135 215.662078 
L 281.173781 216.639711 
L 281.289273 217.968288 
L 281.358855 218.793817 
L 281.492281 220.310188 
L 281.566884 221.166732 
L 281.482238 221.850777 
L 280.752702 223.58171 
L 281.025292 223.930106 
L 281.094156 224.108552 
L 281.068332 224.375372 
L 281.003771 224.610752 
L 280.919842 224.794297 
L 280.78283 224.903914 
L 280.562607 224.91836 
L 281.163021 225.482591 
L 281.371767 225.603255 
L 281.481521 225.599856 
L 281.672333 225.482591 
L 281.769892 225.463897 
L 281.881797 225.502985 
L 282.20747 225.694178 
L 282.645765 225.795298 
L 283.023087 225.772355 
L 283.831531 225.603255 
L 284.191636 225.543773 
L 284.91902 225.306694 
L 285.287733 225.28715 
L 285.519434 225.312642 
L 285.698052 225.306694 
L 286.456999 225.05177 
L 286.597598 225.056019 
L 286.770478 225.121449 
L 287.129866 225.470695 
L 287.287681 225.573514 
L 287.63057 225.705225 
L 287.756822 225.790199 
L 287.904594 225.960998 
L 288.103298 226.269456 
L 288.576026 227.376675 
L 288.337151 227.277255 
L 288.033716 227.279804 
L 287.761126 227.404716 
L 287.60905 227.668987 
L 287.557401 227.834688 
L 287.409629 228.058171 
L 287.350807 228.223022 
L 287.330721 228.416764 
L 287.401021 230.273459 
L 287.525838 230.581067 
L 287.699435 230.848737 
L 287.815644 231.113857 
L 287.771169 231.414667 
L 287.56314 231.615207 
L 286.999309 231.711229 
L 286.770478 231.837841 
L 286.669332 232.097013 
L 286.558862 234.484799 
L 286.412524 235.141653 
L 286.101198 235.465406 
L 285.961317 235.458608 
L 285.852998 235.399126 
L 285.75257 235.323498 
L 285.632774 235.264866 
L 285.500066 235.25212 
L 285.095486 235.348141 
L 284.547437 235.331996 
L 284.006562 235.243622 
L 282.751215 235.210482 
L 281.663725 235.182441 
L 280.71827 235.156948 
L 280.567628 235.203684 
L 280.461461 235.35324 
L 280.317993 235.634505 
L 280.224739 235.710133 
L 280.121442 235.769615 
L 280.001646 235.817201 
L 279.572676 235.92087 
L 279.454314 235.911523 
L 279.299369 235.830797 
L 279.150162 235.798506 
L 279.031083 235.876683 
L 278.92133 235.999046 
L 278.805838 236.095068 
L 278.521771 236.200436 
L 276.19902 236.462158 
L 276.067029 236.502946 
L 275.957993 236.593019 
L 275.844653 236.807155 
L 275.764311 236.885331 
L 275.620843 236.925269 
L 275.328167 236.910824 
L 275.197611 236.925269 
L 275.082837 236.979653 
L 274.903501 237.119011 
L 274.790162 237.187841 
L 274.519007 237.302557 
L 274.398493 237.383282 
L 274.310978 237.507345 
L 274.285153 237.651802 
L 274.326759 237.75972 
L 274.379842 237.852342 
L 274.392755 237.954312 
L 274.249286 238.240676 
L 273.813143 238.69614 
L 273.71415 238.900079 
L 273.790188 239.277366 
L 273.925765 239.579876 
L 273.93796 239.813556 
L 273.636677 239.983505 
L 273.115887 239.906178 
L 272.498974 239.673348 
L 271.976749 239.59942 
L 271.741461 239.9988 
L 271.691247 240.403279 
L 271.564995 240.572379 
L 270.990405 240.675198 
L 270.705621 240.76867 
L 270.447378 240.904629 
L 269.948826 241.257274 
L 268.274551 241.763723 
L 267.938835 242.043289 
L 267.736545 242.486007 
L 267.618901 242.995854 
L 267.491214 243.996005 
L 267.380744 244.88059 
L 267.248753 245.903684 
L 267.073722 247.271775 
L 266.927384 248.419782 
L 266.849911 248.709545 
L 266.639013 248.984013 
L 266.397986 249.043496 
L 266.129701 249.036698 
L 265.835591 249.112325 
L 265.542916 249.544846 
L 265.61178 250.149865 
L 265.765291 250.80077 
L 265.72512 251.3684 
L 265.637605 251.496712 
L 265.43388 251.713397 
L 265.352103 251.87145 
L 265.304758 252.107679 
L 265.247371 253.067892 
L 265.164159 254.475921 
L 265.066601 256.112532 
L 264.983389 257.498467 
L 264.54175 258.869736 
L 264.453636 258.629532 
L 264.424264 258.353867 
L 264.182515 258.16719 
L 264.139587 258.066158 
L 264.072936 258.014638 
L 263.937376 258.110318 
L 263.897837 258.20399 
L 263.877503 258.468281 
L 263.834576 258.569314 
L 263.911393 258.646929 
L 264.049213 258.820892 
L 264.127161 258.895831 
L 263.830057 258.8597 
L 263.605253 258.762012 
L 263.375929 258.759336 
L 263.075437 259.008238 
L 263.403041 259.120645 
L 263.538602 259.202274 
L 263.652699 259.34546 
L 263.57814 259.504035 
L 263.361244 259.804457 
L 263.296852 259.97842 
L 263.296852 260.065402 
L 263.281037 260.130304 
L 263.171459 260.242711 
L 262.971507 260.357126 
L 262.214627 260.600006 
L 262.415709 260.750552 
L 262.091541 261.216 
L 259.756877 260.353079 
L 258.945345 260.166225 
L 258.951 259.897235 
L 258.739906 259.488898 
L 256.801243 258.743278 
L 254.526085 258.335132 
L 252.596606 257.845357 
L 251.288447 257.671394 
L 251.059124 257.536237 
L 251.272632 257.324135 
L 250.937119 256.806259 
L 250.893062 256.584789 
L 250.889673 255.662113 
L 250.845616 255.517589 
L 250.340653 254.980309 
L 250.124886 254.843814 
L 249.880877 254.811029 
L 249.632349 254.837123 
L 248.681166 255.152265 
L 248.442805 255.292774 
L 248.310634 255.51692 
L 248.093737 255.798607 
L 247.981899 255.979262 
L 247.97851 256.086986 
L 248.021438 256.191364 
L 248.075662 256.52524 
L 248.143442 256.570069 
L 248.238335 256.580775 
L 248.39197 256.661735 
L 248.511715 256.659728 
L 248.570458 256.70188 
L 248.625812 256.806259 
L 248.772201 256.973942 
L 248.620163 256.950782 
L 248.617904 256.986913 
L 249.020069 257.209052 
L 248.980966 257.419706 
L 248.81993 257.378364 
L 248.374038 257.178168 
L 247.80906 256.926695 
L 247.527771 256.757415 
L 246.926206 256.768943 
L 246.524623 256.416179 
L 246.654536 256.153895 
L 246.714408 256.089662 
L 246.512197 255.990636 
L 246.26028 255.95116 
L 245.757577 255.977255 
L 245.373488 256.057546 
L 245.292152 256.089662 
L 245.167888 256.240207 
L 245.167888 256.336557 
L 245.202908 256.417517 
L 245.492957 256.630343 
L 245.39906 256.936057 
L 245.021031 256.932717 
L 244.742002 256.733997 
L 244.589497 256.6798 
L 244.115035 256.604862 
L 244.006586 256.51788 
L 243.854081 256.303771 
L 243.633744 256.175356 
L 243.124118 256.209747 
L 242.417528 256.324993 
L 241.673477 256.356868 
L 241.159631 256.768747 
L 240.575089 256.551799 
L 239.99442 255.957452 
L 239.369861 255.782046 
L 237.763248 255.88905 
L 237.136677 255.882219 
L 236.081591 255.61956 
L 235.421579 254.900702 
L 234.91433 254.602401 
L 234.128454 254.76292 
L 232.488458 255.044541 
L 232.098722 255.110112 
L 231.324897 255.238578 
L 230.534127 255.640033 
L 230.240412 255.710956 
L 230.122927 255.6862 
L 230.020126 255.578476 
L 229.919586 255.510229 
L 229.799841 255.539669 
L 229.671058 255.603902 
L 229.542276 255.640033 
L 229.223708 255.621967 
L 228.949198 255.562418 
L 228.715356 255.455363 
L 228.534609 255.292774 
L 227.892956 254.192788 
L 227.551795 253.751188 
L 227.009553 253.486228 
L 226.526053 253.497602 
L 226.397271 253.430024 
L 226.311416 253.274126 
L 226.26171 253.110868 
L 226.187152 252.978388 
L 226.027868 252.92486 
L 224.838324 252.92486 
L 222.316898 252.431071 
L 221.4527 252.57894 
L 220.708246 252.524744 
L 220.448422 252.392264 
L 220.547833 252.129311 
L 220.141151 252.157413 
L 219.696061 252.251755 
L 219.508536 252.357471 
L 219.188839 252.642504 
L 218.97872 252.700046 
L 218.882698 252.658562 
L 218.835251 252.591653 
L 218.767471 252.594329 
L 218.604799 252.756249 
L 218.494091 252.841893 
L 218.351752 252.890068 
L 218.229748 252.872002 
L 218.178912 252.756249 
L 218.097576 252.796395 
L 217.609558 253.16038 
L 217.097817 253.246024 
L 216.645949 253.152351 
L 216.206506 253.002475 
L 215.74673 252.92486 
L 215.373939 252.738853 
L 215.067798 252.295915 
L 214.653209 251.353834 
L 214.221674 250.794474 
L 213.695247 250.660656 
L 213.122504 250.819899 
L 212.559928 251.129019 
L 212.086595 251.54118 
L 211.781584 251.743914 
L 211.563558 251.741907 
L 211.621171 251.016612 
L 211.675395 250.827928 
L 211.712674 250.746299 
L 211.720582 250.686081 
L 211.699118 250.557616 
L 211.55678 250.181586 
L 211.339883 249.979521 
L 211.049557 249.897892 
L 210.702748 249.88451 
L 210.389829 249.919302 
L 209.621653 250.107986 
L 209.452202 250.073863 
L 209.163006 249.919302 
L 209.001463 249.88451 
L 208.84218 249.901237 
L 208.56654 249.978182 
L 208.424201 249.995579 
L 208.078522 249.966139 
L 207.131857 249.64832 
L 207.235787 249.547288 
L 205.378608 249.416146 
L 205.175267 249.299055 
L 205.075856 249.042124 
L 204.996779 248.237207 
L 204.660137 247.403519 
L 204.487297 246.737774 
L 204.370941 246.42397 
L 204.233121 246.29149 
L 204.210528 246.227926 
L 203.900998 245.831155 
L 203.839995 245.817773 
L 203.663767 245.849889 
L 203.607283 245.831155 
L 203.58243 245.762908 
L 203.545151 245.568871 
L 203.356496 244.978733 
L 203.301142 244.704405 
L 203.165582 244.38458 
L 203.135081 244.188536 
L 203.223195 243.847968 
L 203.654729 243.344812 
L 203.806105 243.015619 
L 203.61632 242.490382 
L 202.697898 241.412476 
L 202.772456 240.973552 
L 202.669656 240.871851 
L 202.589449 240.127821 
L 202.491168 239.758483 
L 202.337533 239.463413 
L 202.07093 239.188417 
L 202.005409 239.065304 
L 201.965871 238.919442 
L 201.915036 238.543413 
L 201.910517 238.391529 
L 202.147748 236.340096 
L 202.100302 235.573986 
L 201.196565 231.756151 
L 201.00678 231.461751 
L 200.535707 231.026842 
L 200.367386 230.767234 
L 200.385461 230.502274 
L 199.958445 230.201183 
L 199.817236 230.043278 
L 200.019447 230.057329 
L 200.170823 229.993765 
L 200.310902 229.900092 
L 200.480353 229.818463 
L 200.362867 229.706056 
L 200.344793 229.551496 
L 200.393368 229.390914 
L 200.480353 229.256426 
L 200.053337 229.451801 
L 199.912128 229.481241 
L 199.783346 229.447117 
L 199.70201 229.370172 
L 199.644396 229.292557 
L 199.576616 229.256426 
L 199.505447 229.200223 
L 199.432018 229.09183 
L 199.335996 229.02559 
L 199.064875 229.166768 
L 198.983539 229.110565 
L 198.948519 228.975408 
L 198.955297 228.808135 
L 198.776809 228.850957 
L 198.681916 228.764644 
L 198.686435 228.644208 
L 198.817477 228.583321 
L 198.885257 228.525779 
L 199.129266 228.246768 
L 199.249011 228.144397 
L 199.249011 228.021953 
L 198.84233 227.962404 
L 198.510206 227.724877 
L 198.285402 227.381633 
L 198.197288 227.010956 
L 198.035745 227.178898 
L 197.858386 227.245138 
L 197.482206 227.246476 
L 197.274346 227.174884 
L 197.145564 227.016309 
L 197.041634 226.858403 
L 196.909462 226.78748 
L 195.469131 226.769414 
L 195.155083 226.664367 
L 195.06019 226.78748 
L 194.723548 226.589429 
L 194.3067 226.498432 
L 193.440242 226.450258 
L 193.029042 226.364614 
L 192.301533 226.05817 
L 191.869999 225.990592 
L 191.011449 226.042112 
L 190.573136 226.16121 
L 190.253439 226.394054 
L 189.956336 226.545269 
L 189.053728 226.586752 
L 188.686585 226.664367 
L 188.573618 226.744658 
L 188.342036 226.986869 
L 188.295719 227.06716 
L 188.267477 227.241124 
L 188.192919 227.295989 
L 188.0856 227.320076 
L 187.965855 227.404382 
L 187.726365 227.618491 
L 186.793256 228.214651 
L 186.457744 228.515742 
L 186.452096 228.583321 
L 186.379797 228.63551 
L 186.12675 228.867015 
L 185.975374 228.920543 
L 185.356314 228.997488 
L 184.782441 229.145357 
L 184.634455 229.162085 
L 184.17016 229.145357 
L 184.016524 229.178812 
L 183.810924 229.334041 
L 183.68892 229.368834 
L 183.170401 229.368834 
L 182.733218 229.260441 
L 182.594268 229.256426 
L 182.331055 229.380877 
L 181.86563 229.839874 
L 181.689402 229.940907 
L 181.535766 230.067365 
L 180.784535 230.951904 
L 180.984487 230.882318 
L 181.070342 230.832136 
L 181.172012 230.727089 
L 181.228496 231.129882 
L 181.1449 231.622333 
L 180.979968 232.088021 
L 180.784535 232.421228 
L 180.330407 232.848108 
L 179.807369 233.128457 
L 179.226718 233.253578 
L 178.60314 233.216778 
L 177.484765 232.806625 
L 176.847631 232.716966 
L 176.321204 232.981927 
L 176.156272 233.295061 
L 176.080584 233.589461 
L 175.946153 233.804909 
L 175.609511 233.890552 
L 175.33839 233.924007 
L 174.728367 234.114029 
L 174.521638 234.217069 
L 173.614512 235.078858 
L 173.460876 235.181899 
L 172.125605 236.332736 
L 170.617494 237.268125 
L 170.522601 237.355776 
L 170.435617 237.464169 
L 170.332817 237.556503 
L 170.187089 237.59598 
L 170.01312 237.562525 
L 169.778148 237.415325 
L 169.613216 237.380532 
L 168.421413 237.494278 
L 167.81252 237.391907 
L 167.575289 237.017885 
L 167.404709 236.541492 
L 166.998027 236.135354 
L 166.377838 236.006219 
L 165.114865 236.058408 
L 164.612161 235.798801 
L 164.362504 235.375935 
L 164.156904 234.850029 
L 163.89482 234.346873 
L 163.48362 233.992254 
L 163.188776 233.932036 
L 162.910877 233.979542 
L 162.643144 234.060502 
L 161.585772 234.138116 
L 161.294317 234.103993 
L 160.340874 233.808923 
L 160.101384 233.768778 
L 159.952268 233.718596 
L 159.685665 233.493781 
L 159.570439 233.431556 
L 159.425841 233.425534 
L 159.138904 233.489098 
L 158.22613 233.942742 
L 157.588995 234.035745 
L 157.02416 234.204356 
L 156.719148 234.217069 
L 156.098959 234.004298 
L 155.760058 233.974858 
L 155.434712 234.160865 
L 155.265262 234.097971 
L 154.540013 233.431556 
L 153.496196 232.779192 
L 152.148499 231.701286 
L 151.949676 231.441678 
L 151.86947 231.120515 
L 151.836709 230.338347 
L 151.726002 230.011161 
L 151.4899 229.706056 
L 151.045939 229.411656 
L 146.325043 227.712833 
L 146.021162 227.684731 
L 145.722929 227.594404 
L 145.537662 227.37628 
L 145.390805 227.114665 
L 145.216836 226.889182 
L 144.389916 226.669051 
L 144.261134 226.506461 
L 144.141389 226.149167 
L 143.857841 225.966505 
L 143.219577 225.765777 
L 142.101203 224.705937 
L 141.607536 224.350649 
L 140.866472 224.004729 
L 139.791025 223.502242 
L 139.505218 223.184423 
L 139.482625 222.847201 
L 139.613666 222.637776 
L 139.845249 222.530052 
L 140.135575 222.499943 
L 140.395399 222.50931 
L 140.695891 222.475856 
L 140.868731 222.312597 
L 140.745597 221.928539 
L 140.524181 221.727143 
L 139.960476 221.500321 
L 139.750357 221.31699 
L 139.640779 221.120946 
L 139.418233 220.580989 
L 139.323341 220.414386 
L 138.280654 219.28429 
L 137.824267 218.902908 
L 137.317045 218.672741 
L 134.843065 218.101337 
L 134.320027 217.824333 
L 132.682004 216.226543 
L 132.173652 215.865234 
L 131.599779 215.612987 
L 130.940051 215.518645 
L 129.976441 215.643096 
L 129.756155 215.569496 
L 129.495201 215.396201 
L 128.998729 215.433954 
L 128.463337 215.567858 
L 127.595805 215.737834 
L 127.049481 215.647982 
L 125.848622 215.383488 
L 125.68482 215.339997 
L 125.61478 215.233612 
L 125.597835 215.077045 
L 125.551519 214.953932 
L 125.47922 214.87431 
L 125.046287 214.808594 
L 124.453394 214.620916 
L 124.157337 214.284829 
L 123.837802 213.725172 
L 123.505741 213.501006 
L 123.398149 213.96054 
L 123.113168 213.985004 
L 122.841032 213.003236 
L 122.568114 212.592804 
L 122.354496 211.996064 
L 121.831281 211.100487 
L 121.593068 210.86391 
L 121.306973 210.552563 
L 121.238434 210.222119 
L 121.544575 209.338249 
L 121.523111 208.900663 
L 121.238434 208.414903 
L 120.754935 207.955237 
L 120.583225 207.741128 
L 120.094077 206.946248 
L 119.63656 206.440415 
L 119.531501 206.271804 
L 118.683118 204.082537 
L 118.569021 203.567337 
L 118.555465 201.471743 
L 118.379236 200.761168 
L 118.067447 200.158986 
L 117.71386 199.7214 
L 117.26651 199.433691 
L 116.68134 199.290506 
L 116.118764 199.25772 
L 115.843124 199.180775 
L 115.725638 199.005473 
L 115.619449 198.680294 
L 114.966499 197.821181 
L 114.853532 197.510723 
L 114.769936 197.057748 
L 114.821901 196.65161 
L 115.108838 196.473631 
L 115.379959 196.571988 
L 115.653339 196.810853 
L 115.881533 197.109268 
L 116.017093 197.382257 
L 116.163951 197.249777 
L 116.145876 197.13001 
L 116.082614 196.993515 
L 116.102948 196.810853 
L 116.20236 196.691755 
L 116.482518 196.431479 
L 116.576281 196.259522 
L 116.623727 195.900889 
L 116.589837 195.520176 
L 116.454276 195.283318 
L 116.197841 195.351565 
L 116.081485 194.874503 
L 115.987722 194.707231 
L 115.818271 194.556016 
L 115.734676 194.576089 
L 115.607023 194.645674 
L 115.491796 194.684481 
L 115.440961 194.610881 
L 115.424016 194.332539 
L 115.396904 194.195376 
L 115.346069 194.106387 
L 115.013945 194.047507 
L 113.929461 194.115085 
L 113.678674 194.16259 
L 113.310401 194.388743 
L 112.924054 194.339899 
L 112.617913 194.05955 
L 112.494779 193.601223 
L 112.468796 193.203783 
L 112.506075 193.003055 
L 112.631469 192.804335 
L 112.72975 192.581528 
L 112.820124 192.308538 
L 112.946647 192.188102 
L 113.156766 192.421615 
L 113.217768 191.750516 
L 113.251658 191.636102 
L 113.118357 191.589934 
L 113.031372 191.491578 
L 112.863051 191.176436 
L 112.962462 190.772974 
L 112.956814 190.132654 
L 112.885645 189.48029 
L 112.777196 189.033337 
L 112.59419 188.693438 
L 112.325328 188.310718 
L 112.11295 188.205002 
L 112.106172 188.696115 
L 112.024835 188.514791 
L 111.63171 187.900565 
L 110.899683 187.276303 
L 110.779938 187.063532 
L 110.685045 186.781176 
L 110.465889 186.464026 
L 110.011761 185.991648 
L 109.19162 185.652419 
L 109.065097 185.4818 
L 108.978112 185.154615 
L 108.775901 184.840811 
L 108.40085 184.409916 
L 108.030318 183.855909 
L 107.399961 182.665595 
L 107.065579 182.164446 
L 106.805754 181.928926 
L 106.233011 181.567617 
L 105.691898 180.993536 
L 105.643322 180.919267 
L 105.602654 180.720547 
L 105.590228 180.419456 
L 105.540522 180.245492 
L 105.758549 180.218729 
L 105.809384 180.122379 
L 105.728048 180.00395 
L 105.540522 179.90827 
L 105.690769 179.351586 
L 105.372201 178.420211 
L 105.453538 177.990655 
L 105.258105 177.83208 
L 105.040078 177.532996 
L 104.857071 177.197782 
L 104.782513 176.928807 
L 104.700047 176.756181 
L 104.497836 176.610989 
L 104.383739 176.56549 
L 104.015466 176.418959 
L 103.518411 176.358741 
L 103.001021 176.439032 
L 102.494929 176.621694 
L 98.138916 179.480052 
L 97.635083 179.698176 
L 97.187733 179.597812 
L 96.796867 179.01035 
L 96.762977 178.743382 
L 96.757328 178.000691 
L 96.64888 177.714989 
L 96.548339 177.567789 
L 96.513319 177.4788 
L 96.460225 177.408545 
L 96.311108 177.316211 
L 96.175548 177.258669 
L 96.044506 177.225883 
L 95.744013 177.203803 
L 95.597156 177.2212 
L 95.296664 177.298145 
L 95.129472 177.316211 
L 94.974707 177.282087 
L 94.774755 177.127527 
L 94.65727 177.092734 
L 94.370333 177.142247 
L 93.850684 177.3684 
L 93.564877 177.428618 
L 93.202253 177.401854 
L 93.071211 177.260007 
L 93.090416 176.581549 
L 93.048618 176.531367 
L 92.856574 176.391527 
L 92.797831 176.295178 
L 92.791053 176.206188 
L 92.797831 175.959294 
L 92.819294 175.834843 
L 92.876908 175.729126 
L 92.87013 175.624748 
L 92.702938 175.511003 
L 92.622732 175.790683 
L 92.477004 176.065679 
L 92.277052 176.260385 
L 92.039821 176.295178 
L 91.789034 176.134596 
L 91.670419 175.924501 
L 91.521302 175.758566 
L 91.280682 175.735817 
L 90.958726 175.620064 
L 90.040303 175.070071 
L 89.850518 174.88741 
L 89.759015 174.357489 
L 89.515006 174.026289 
L 89.151252 173.832922 
L 88.705032 173.713823 
L 88.853019 173.44418 
L 89.085731 173.379947 
L 89.652826 173.479642 
L 89.9488 173.464252 
L 90.406317 173.30434 
L 90.660493 173.264194 
L 90.942911 173.335118 
L 91.512265 173.6429 
L 91.707698 173.713823 
L 92.016098 173.745271 
L 92.24881 173.845634 
L 92.436336 174.018929 
L 92.615954 174.275191 
L 92.69729 174.053722 
L 92.960503 173.574652 
L 93.369444 173.038041 
L 93.448521 172.86207 
L 93.462077 172.581052 
L 93.175141 172.640601 
L 92.968411 172.502768 
L 92.839629 172.249852 
L 92.73118 171.649008 
L 92.567378 171.726622 
L 92.351611 171.966157 
L 92.134714 172.131423 
L 92.155048 171.921997 
L 92.175382 171.866463 
L 92.229606 171.79487 
L 92.11438 171.608862 
L 91.995764 171.638302 
L 91.853426 171.746695 
L 91.660252 171.79487 
L 91.577786 171.734652 
L 91.423021 171.508499 
L 91.328128 171.457648 
L 91.240014 171.476382 
L 91.110102 171.552659 
L 91.040062 171.570055 
L 90.762163 171.525895 
L 90.511376 171.450957 
L 90.276404 171.436237 
L 90.040303 171.570055 
L 89.542118 171.496455 
L 89.146733 171.750041 
L 89.045063 172.086594 
L 89.420114 172.255205 
L 89.860685 172.344863 
L 90.208624 172.571016 
L 90.317073 172.862739 
L 90.040303 173.151787 
L 89.806461 173.147772 
L 89.05636 173.042725 
L 88.894817 173.0909 
L 88.135677 173.815525 
L 88.080324 173.889125 
L 87.958319 174.086507 
L 87.888279 174.291918 
L 88.046433 174.439118 
L 87.98995 174.556878 
L 87.898447 174.68802 
L 87.851 174.775002 
L 87.9538 175.128282 
L 88.19668 175.381199 
L 88.477968 175.600661 
L 88.705032 175.856923 
L 88.821388 176.149316 
L 88.911762 176.519992 
L 88.989709 177.260007 
L 88.962597 177.466756 
L 88.839463 177.804647 
L 88.799924 177.990655 
L 88.807832 178.165288 
L 88.886909 178.478422 
L 88.894817 178.663761 
L 88.807832 178.98827 
L 88.623695 179.281332 
L 88.372908 179.490757 
L 88.088231 179.572386 
L 87.146085 179.457972 
L 86.903206 179.572386 
L 86.634344 179.442583 
L 85.662827 179.449943 
L 85.073139 179.116066 
L 84.848334 179.063877 
L 84.811055 179.34891 
L 84.878835 179.545623 
L 85.065231 179.855412 
L 85.10251 180.082234 
L 85.061842 180.244154 
L 84.960172 180.386001 
L 84.834778 180.501754 
L 84.716163 180.582714 
L 84.397595 180.68174 
L 83.378632 180.582714 
L 83.378632 180.470307 
L 83.304074 180.570002 
L 83.289388 180.610816 
L 83.191903 180.565024 
L 82.762216 180.439261 
L 82.555621 180.3101 
L 82.363374 180.153747 
L 82.272989 180.059425 
L 82.208428 179.951507 
L 82.085045 179.631153 
L 82.056352 179.417017 
L 81.80313 178.599561 
L 81.765111 178.57152 
L 81.686204 178.40242 
L 81.40931 178.080367 
L 81.235713 177.698831 
L 81.208454 177.584965 
L 81.238583 177.402269 
L 81.347619 177.26546 
L 81.481044 177.142247 
L 81.582189 177.00034 
L 81.618056 176.825292 
L 81.591515 176.647695 
L 81.520498 176.480295 
L 81.429396 176.340937 
L 80.889955 175.834488 
L 80.443769 175.313594 
L 80.161854 174.830938 
L 80.032015 174.717072 
L 79.864157 174.65844 
L 79.689126 174.649942 
L 79.181248 174.737466 
L 79.01339 174.744264 
L 78.849836 174.718772 
L 78.695608 174.648243 
L 78.58442 174.527579 
L 78.523446 174.370376 
L 78.409389 173.646393 
L 78.284572 173.2878 
L 78.106671 172.964896 
L 77.874252 172.708273 
L 77.730784 172.616501 
L 77.575838 172.562117 
L 76.106724 172.347131 
L 76.085203 171.843232 
L 76.132548 163.921901 
L 76.088073 163.711164 
L 75.939583 163.619391 
L 71.37801 163.618541 
L 71.426714 159.642176 
L 71.461222 156.824823 
L 73.576661 151.004064 
L 73.659155 150.631875 
L 73.620419 150.282629 
L 73.430323 149.988617 
L 72.882992 149.573092 
L 72.659899 149.322416 
L 72.610402 149.198354 
L 72.538668 148.91029 
L 72.461195 148.761584 
L 72.355029 148.662164 
L 72.103959 148.496463 
L 72.00927 148.364753 
L 71.51287 147.467421 
L 71.447592 147.177658 
L 71.447592 147.175109 
L 71.31058 146.883646 
L 70.825657 146.644867 
L 70.612607 146.399291 
L 70.296259 145.682955 
L 70.091173 145.385945 
L 70.060972 145.342207 
L 69.792686 145.23004 
L 69.583222 145.203698 
L 69.45984 145.06264 
L 69.347934 144.894391 
L 69.169316 144.780525 
L 68.951962 144.717644 
L 68.857273 144.643716 
L 68.844361 144.513704 
L 68.873054 144.284273 
L 68.927572 144.105826 
L 69.010067 143.96137 
L 69.083953 143.801617 
L 69.105473 143.572186 
L 69.033022 143.359325 
L 68.762584 143.151987 
L 68.68798 142.942949 
L 68.55312 142.876244 
L 68.46417 142.782347 
L 68.218839 142.440325 
L 68.166473 142.348977 
L 68.101195 142.258479 
L 67.687289 141.862497 
L 67.623446 141.768176 
L 67.530909 141.545967 
L 67.533061 141.464391 
L 67.589014 141.401935 
L 67.710962 141.096876 
L 67.788435 141.005953 
L 67.838648 140.898036 
L 67.817128 140.708118 
L 67.739655 140.587878 
L 67.36879 140.303638 
L 67.135654 140.004528 
L 66.979991 139.750879 
L 66.802808 139.54524 
L 66.505828 139.388462 
L 65.719622 139.117818 
L 65.524506 139.105072 
L 64.888941 139.457292 
L 64.643611 139.550339 
L 64.154384 139.603023 
L 63.716806 139.506577 
L 63.294292 139.284368 
L 62.850975 138.958066 
L 62.850257 138.956791 
L 62.847388 138.956791 
L 58.668158 135.310957 
L 58.09285 134.656227 
L 57.183262 134.107716 
L 56.545545 133.59277 
L 56.492685 133.562245 
L 55.197661 132.814403 
L 54.808862 132.42352 
L 53.425111 131.766242 
L 51.950975 131.310353 
L 50.314719 131.493473 
L 49.501972 131.395327 
L 49.206427 130.737199 
L 49.206427 130.73465 
L 49.377154 130.533685 
L 49.608138 130.347166 
L 49.814015 130.134305 
L 49.906552 129.855163 
L 49.826927 129.62998 
L 49.626789 129.451959 
L 49.365677 129.341492 
L 48.755937 129.271812 
L 48.562255 129.106537 
L 48.575884 128.906422 
L 48.85493 128.751343 
L 49.160517 128.724151 
L 49.392936 128.741996 
L 49.618181 128.697384 
L 49.910856 128.4773 
L 50.285308 128.107661 
L 50.476121 127.876105 
L 50.575114 127.664943 
L 50.566506 127.516237 
L 50.405822 127.415118 
L 50.34413 127.262163 
L 50.353456 127.127479 
L 50.437385 126.811798 
L 50.434515 126.642699 
L 50.311133 126.365257 
L 50.11745 126.169815 
L 49.675568 125.814621 
L 49.123215 125.039228 
L 48.658378 124.593961 
L 48.586644 124.354333 
L 48.578753 124.079865 
L 48.53643 123.745915 
L 48.424525 123.435333 
L 48.26671 123.151518 
L 47.800438 122.573691 
L 47.758115 122.5414 
L 47.714357 122.517182 
L 47.662371 122.488316 
L 47.645492 122.478944 
L 47.574476 122.465348 
L 47.504894 122.478519 
L 47.436029 122.516758 
L 47.179221 122.75936 
L 46.758859 122.812044 
L 46.347105 122.716448 
L 46.108948 122.515058 
L 46.325585 122.232093 
L 46.984104 121.833562 
L 47.154831 121.585861 
L 47.057273 121.22217 
L 46.763163 121.022055 
L 46.517832 120.774778 
L 46.57235 120.269605 
L 46.272501 120.343532 
L 45.598201 120.353729 
L 45.344979 120.460372 
L 44.941116 120.845307 
L 44.713001 120.995712 
L 44.47054 121.055619 
L 44.375851 120.940904 
L 44.379438 120.356279 
L 44.332809 120.234801 
L 44.284031 120.107728 
L 43.629816 119.642917 
L 43.418918 119.434729 
L 43.22954 119.167909 
L 43.090376 118.900664 
L 42.994252 118.610051 
L 42.934713 118.277375 
L 42.835002 118.004182 
L 42.652797 117.806191 
L 42.43903 117.629019 
L 42.252521 117.424655 
L 41.017259 115.209368 
L 40.991435 115.186425 
L 40.961307 115.172829 
L 40.926874 115.16773 
L 40.516555 115.230187 
L 40.155733 115.207243 
L 39.84082 115.031771 
L 39.553883 114.635364 
L 39.850863 114.502804 
L 39.985723 114.411881 
L 40.100497 114.295041 
L 40.103367 114.295041 
L 40.103367 114.293342 
L 40.314982 113.836603 
L 40.431909 113.416829 
L 40.588289 113.051863 
L 40.926874 112.75955 
L 41.130599 112.54499 
L 41.69156 112.0925 
L 41.832876 111.90683 
L 41.832876 111.72371 
L 41.753252 111.582227 
L 41.651389 111.43947 
L 41.584676 111.252101 
L 41.612653 111.099997 
L 41.807769 110.78899 
L 41.876634 110.640709 
L 42.061708 109.849596 
L 42.089685 109.443842 
L 42.013646 109.070803 
L 41.800596 108.7479 
L 41.51366 108.568604 
L 41.203768 108.570303 
L 40.926874 108.788263 
L 40.670066 108.602169 
L 40.492166 108.24655 
L 40.063196 106.893754 
L 40.198056 106.677494 
L 40.926874 106.517317 
L 41.027302 106.427244 
L 41.117687 106.324 
L 41.196595 106.205035 
L 41.26259 106.074599 
L 41.281958 105.587695 
L 41.166466 104.922344 
L 41.223854 104.471129 
L 41.764729 104.626632 
L 42.241044 104.872209 
L 42.670014 104.973329 
L 43.624077 105.047257 
L 43.929665 105.152625 
L 44.012159 105.13563 
L 44.068829 105.029412 
L 44.106131 104.854364 
L 44.109718 104.678467 
L 44.068829 104.571399 
L 43.913883 104.358113 
L 43.869408 104.079396 
L 43.862952 103.770089 
L 43.819194 103.459082 
L 43.761807 103.344366 
L 43.69079 103.26364 
L 43.622643 103.16422 
L 43.579602 102.989172 
L 43.530823 102.854912 
L 43.428961 102.735948 
L 43.304143 102.640776 
L 43.189369 102.577045 
L 42.982774 102.347614 
L 43.088941 102.082493 
L 43.474871 101.649973 
L 43.517911 101.461329 
L 43.485631 101.129078 
L 43.529388 100.931937 
L 43.665683 100.744993 
L 43.841432 100.673615 
L 44.236687 100.632827 
L 44.621182 100.371955 
L 44.691481 99.970875 
L 44.664222 99.553649 
L 44.756042 99.237544 
L 45.077411 99.222249 
L 45.326339 99.350998 
L 45.490599 99.436385 
L 45.865052 99.562997 
L 46.07595 99.289379 
L 46.182116 98.886599 
L 46.29976 98.586639 
L 46.336345 98.277331 
L 46.207941 97.851608 
L 46.207941 97.849059 
L 46.16777 97.624726 
L 46.170639 97.407191 
L 46.238069 97.217698 
L 46.385124 97.07579 
L 46.476226 97.046049 
L 46.671343 97.027355 
L 46.754555 96.985717 
L 46.783248 96.908391 
L 46.744512 96.706151 
L 46.758859 96.628824 
L 46.950389 96.321216 
L 47.04723 96.282978 
L 47.252389 96.351807 
L 47.545065 96.536202 
L 47.688533 96.593985 
L 47.867151 96.580389 
L 48.283209 96.755436 
L 48.503433 96.700203 
L 48.707158 96.514958 
L 49.079458 96.296573 
L 49.219339 96.282128 
L 49.467539 96.345859 
L 49.820471 96.231993 
L 49.992633 96.198853 
L 50.14184 96.120676 
L 50.252311 95.921836 
L 49.965374 95.596383 
L 50.151883 95.132422 
L 50.452449 94.633621 
L 50.504815 94.2011 
L 50.295351 94.030301 
L 49.757345 94.0354 
L 49.563663 93.904539 
L 49.526361 93.645366 
L 49.649744 93.436329 
L 49.821906 93.236639 
L 49.894472 93.07077 
L 49.923768 93.003808 
L 49.82334 92.519453 
L 49.491929 92.147264 
L 48.724374 91.482763 
L 47.836305 90.105325 
L 47.655535 89.631167 
L 47.649797 89.479062 
L 47.684229 89.346502 
L 47.757398 89.238584 
L 47.867151 89.157009 
L 47.922386 89.091578 
L 47.941037 89.024448 
L 47.920952 88.954769 
L 47.867151 88.88594 
L 47.711488 88.573233 
L 47.590975 88.240982 
L 47.654101 88.223988 
L 47.720813 88.223988 
L 48.144762 88.3489 
L 48.183498 88.122018 
L 48.048638 87.489807 
L 48.049356 87.218738 
L 48.098135 86.930674 
L 48.207888 86.669802 
L 48.384354 86.481159 
L 48.669856 86.385137 
L 49.641136 86.414029 
L 49.926638 86.350298 
L 50.622459 85.993405 
L 51.167638 86.023146 
L 51.457444 85.990855 
L 51.674081 85.790315 
L 51.863459 85.520946 
L 52.285256 85.261773 
L 52.505479 85.070581 
L 52.667599 84.802061 
L 52.695575 84.544588 
L 52.592278 84.324504 
L 52.361294 84.165601 
L 52.061445 84.13671 
L 51.813245 84.254824 
L 51.575805 84.414577 
L 51.312541 84.508049 
L 50.722886 84.632112 
L 50.42519 84.643158 
L 50.145427 84.527593 
L 50.032087 84.43752 
L 49.947441 84.346597 
L 49.887901 84.232731 
L 49.819036 83.897081 
L 49.752324 83.838449 
L 49.651179 83.822304 
L 49.223643 83.665101 
L 48.994094 83.660852 
L 48.770284 83.742428 
L 48.501998 83.890284 
L 48.22367 83.977807 
L 47.339905 83.938719 
L 46.893719 84.087425 
L 46.750251 84.072979 
L 46.6075 84.028792 
L 46.466183 84.022844 
L 46.12975 84.300711 
L 45.861465 84.429022 
L 45.575963 84.448567 
L 45.350001 84.299861 
L 45.195055 84.26927 
L 44.671396 84.421375 
L 44.421761 84.353395 
L 44.251034 84.13671 
L 43.896667 83.288663 
L 43.253212 82.411726 
L 42.839306 82.046335 
L 42.461985 81.977506 
L 42.282649 81.868738 
L 41.76975 81.412424 
L 41.234398 81.224064 
L 40.926874 81.115863 
L 40.5639 81.121811 
L 40.103367 81.341896 
L 39.856601 81.408176 
L 39.853732 81.410725 
L 39.852297 81.411575 
L 39.847993 81.412424 
L 39.573969 81.59342 
L 39.265512 81.69369 
L 38.967098 81.653752 
L 38.723202 81.412424 
L 38.720333 81.411575 
L 38.718898 81.409875 
L 38.718898 81.407326 
L 38.628513 81.142205 
L 38.71029 80.803157 
L 38.881017 80.464958 
L 39.051744 80.204086 
L 39.109132 79.874384 
L 38.932666 79.542134 
L 38.502261 79.005094 
L 38.431962 78.659248 
L 38.466394 77.900425 
L 38.401833 77.585169 
L 38.199543 77.393126 
L 37.9413 77.199384 
L 37.862393 77.001394 
L 38.198108 76.793206 
L 37.937713 76.474551 
L 37.84159 76.188187 
L 37.80644 75.479499 
L 37.73901 75.098813 
L 37.589803 74.686686 
L 37.345907 74.391824 
L 36.99441 74.367181 
L 36.216812 74.663743 
L 35.812231 74.694334 
L 35.436345 74.525234 
L 35.277095 74.351036 
L 35.225446 74.201481 
L 35.202491 74.039179 
L 35.135779 73.825893 
L 35.024591 73.66784 
L 34.905512 73.558223 
L 34.816562 73.423114 
L 34.80365 73.190283 
L 34.625749 73.005888 
L 34.406151 72.825319 
L 34.356029 72.784105 
L 34.154456 72.536829 
L 34.182432 72.275107 
L 34.244123 72.235169 
L 34.416285 72.170588 
L 34.457891 72.139148 
L 34.470803 71.792451 
L 34.619293 71.230769 
L 34.889013 70.635947 
L 34.911251 70.328339 
L 34.763478 69.973995 
L 34.426328 69.382572 
L 34.221169 69.117451 
L 33.98875 68.996787 
L 33.80798 68.991689 
L 33.645861 68.942404 
L 33.502393 68.844683 
L 33.374706 68.699376 
L 33.201109 68.554919 
L 33.000254 68.522629 
L 32.569849 68.545572 
L 32.208309 68.467396 
L 31.931415 68.291498 
L 31.822379 68.005134 
L 31.971586 67.598955 
L 32.4644 67.024527 
L 32.65593 66.730515 
L 32.730533 66.334533 
L 32.664538 65.965744 
L 32.536851 65.697649 
L 32.457944 65.406611 
L 32.535417 64.968142 
L 32.687493 64.786296 
L 32.710448 64.60785 
L 32.618628 64.459994 
L 32.31591 64.308739 
L 32.158095 64.145588 
L 32.061254 64.093754 
L 31.927111 64.099702 
L 31.653087 64.180428 
L 31.523965 64.154085 
L 31.460122 64.07251 
L 31.389823 63.821835 
L 31.336022 63.714767 
L 31.235594 63.645088 
L 31.13158 63.614497 
L 31.033304 63.571585 
L 30.951527 63.461543 
L 30.841057 63.170929 
L 30.838905 63.009478 
L 31.027565 62.536169 
L 31.113646 62.218364 
L 31.027565 61.940497 
L 30.897009 61.660081 
L 30.852534 61.329105 
L 30.949375 61.034668 
L 31.122254 60.895735 
L 31.313784 60.789942 
L 31.476621 60.589401 
L 31.519661 60.057036 
L 31.205466 59.709914 
L 30.406348 59.225134 
L 30.290139 59.002926 
L 30.208362 58.770096 
L 30.08211 58.62054 
L 29.577101 58.692769 
L 29.446545 58.55511 
L 29.251428 58.0852 
L 29.037661 57.932246 
L 28.521175 57.886785 
L 28.334666 57.78609 
L 28.248585 57.51672 
L 28.433659 57.026842 
L 28.377707 56.7494 
L 28.377707 56.746851 
L 28.303821 56.411201 
L 28.330362 56.003323 
L 28.420747 55.597144 
L 28.546999 55.266593 
L 28.492481 54.985752 
L 28.179721 54.762694 
L 27.900675 54.465708 
L 27.961649 53.967332 
L 28.076423 53.822875 
L 28.557042 53.458334 
L 28.699076 53.243773 
L 28.667513 53.089969 
L 28.157483 52.504069 
L 27.811007 52.221529 
L 27.422926 52.054554 
L 27.044887 52.095342 
L 26.868421 52.189663 
L 26.646045 52.263591 
L 26.450928 52.244472 
L 26.349066 52.057953 
L 26.358391 51.959382 
L 26.413626 51.696811 
L 26.403584 51.614385 
L 26.298852 51.537908 
L 26.208467 51.555753 
L 26.11306 51.588043 
L 26.006177 51.554903 
L 25.851231 51.368384 
L 25.772323 51.16572 
L 25.720675 50.975376 
L 25.638898 50.824971 
L 25.488974 50.724701 
L 24.990421 50.498669 
L 24.823998 50.451083 
L 23.924452 50.550079 
L 23.440964 50.476576 
L 23.197786 50.117133 
L 23.238308 49.992214 
L 23.257325 49.933588 
L 23.400793 49.764913 
L 23.522741 49.588591 
L 23.511264 49.379979 
L 23.441682 49.148423 
L 23.466789 48.93896 
L 23.551435 48.738845 
L 23.669079 48.527683 
L 23.670514 48.524709 
L 23.798918 48.28848 
L 24.133916 47.932861 
L 24.255864 47.680912 
L 24.370639 47.335915 
L 24.49976 47.126877 
L 24.681965 46.991768 
L 24.949533 46.870254 
L 25.026288 46.767435 
L 24.913666 46.458127 
L 24.933034 46.314945 
L 25.047809 46.221898 
L 25.294574 46.124177 
L 25.397871 45.995016 
L 25.488256 45.754538 
L 25.57362 45.431634 
L 25.621682 45.11213 
L 25.562142 44.323566 
L 25.953093 43.909739 
L 26.455232 43.543499 
L 26.766558 43.124574 
L 26.76082 42.862852 
L 26.654653 42.60453 
L 26.483926 42.382321 
L 26.287374 42.226393 
L 26.070737 42.148216 
L 25.894271 42.183056 
L 25.436608 42.430757 
L 24.742939 42.312217 
L 24.538496 42.223844 
L 24.411527 42.140568 
L 24.370639 41.996961 
L 24.416548 41.727592 
L 24.425157 41.575912 
L 24.382116 41.159112 
L 24.383551 40.96537 
L 24.559299 40.302568 
L 24.575798 40.020452 
L 24.448111 39.184303 
L 24.512672 38.533397 
L 24.515542 38.193074 
L 24.416548 37.92073 
L 24.314686 37.813662 
L 24.208519 37.748232 
L 23.95745 37.673454 
L 23.783853 37.590604 
L 23.826894 37.489909 
L 23.947407 37.376893 
L 24.008381 37.257079 
L 23.938799 36.960518 
L 23.869934 36.764226 
L 23.84411 36.556888 
L 23.900063 36.228037 
L 24.276667 35.037543 
L 24.209954 34.554887 
L 23.473962 34.22816 
L 23.248717 34.027195 
L 23.059339 33.779069 
L 22.925913 33.411129 
L 22.865657 33.286641 
L 22.819747 33.160454 
L 22.82692 33.023645 
L 22.816877 32.874514 
L 22.712146 32.77212 
L 22.585894 32.682047 
L 22.501965 32.564357 
L 22.44386 32.310708 
L 22.40082 32.199391 
L 22.324781 32.085101 
L 22.324781 32.082126 
L 22.521333 31.776218 
L 22.745861 31.603719 
L 22.879286 31.408278 
L 22.750882 30.759922 
L 22.821182 30.49905 
L 23.096641 30.000674 
L 22.983301 29.596195 
L 22.448164 29.245675 
L 21.829816 28.946564 
L 21.471145 28.692915 
L 21.455364 28.551007 
L 21.551488 28.252747 
L 21.54001 28.10744 
L 21.372152 27.781562 
L 21.324808 27.641354 
L 21.319069 27.494348 
L 21.353501 27.385581 
L 21.356371 27.263217 
L 21.192817 26.937765 
L 21.11104 26.588519 
L 21.050449 26.432736 
L 21.047914 26.426218 
L 20.683505 26.030236 
L 20.598858 25.831396 
L 20.753804 25.632555 
L 21.036437 25.470254 
L 21.244465 25.400574 
L 21.461103 25.395476 
L 21.769559 25.430316 
L 22.089493 25.398025 
L 22.842702 25.21533 
L 23.174831 25.24932 
L 24.133916 25.686939 
L 24.486848 25.714131 
L 24.792435 25.647001 
L 25.511211 25.346191 
L 25.778062 25.166894 
L 26.011915 24.839742 
L 26.017654 24.542331 
L 25.968875 24.232174 
L 26.03774 23.865084 
L 26.039892 23.864234 
L 26.178339 23.669642 
L 26.186947 23.473351 
L 26.139602 23.261764 
L 26.112343 23.029783 
L 26.139602 22.759564 
L 26.202728 22.53863 
L 26.662544 21.691434 
L 26.745038 21.479847 
L 26.753689 21.417336 
L 26.780905 21.220674 
L 26.709171 20.683635 
L 26.770862 20.497541 
L 28.245716 19.388622 
L 28.588605 19.296 
L 28.802373 19.433659 
L 29.176825 19.952004 
L 29.36692 20.150844 
L 30.196884 20.504339 
L 30.466604 20.713376 
L 31.594725 21.460392 
" clip-path="url(#p2a5febd56f)" style="fill: #f5f5f5; stroke: #000000"/>
    <path d="M 166.513398 240.657741 
L 166.60829 240.704578 
L 166.687367 240.771487 
L 166.754018 240.859807 
L 166.804853 240.973552 
L 166.513398 241.606513 
L 166.43884 241.622571 
L 166.276167 241.569044 
L 166.113494 241.478716 
L 166.038936 241.382367 
L 166.020861 241.166251 
L 165.988101 241.001654 
L 165.982453 240.848432 
L 166.038936 240.657741 
L 166.124791 240.530614 
L 166.242277 240.46705 
L 166.375578 240.497159 
L 166.513398 240.657741 
" clip-path="url(#p2a5febd56f)" style="fill: #f5f5f5; stroke: #000000"/>
    <path d="M 159.718426 237.717754 
L 158.693814 237.656198 
L 158.587625 237.649507 
L 158.139145 237.420009 
L 157.857857 236.932241 
L 157.996807 236.702074 
L 158.201277 236.538816 
L 158.449805 236.457186 
L 158.718667 236.473245 
L 158.952508 236.558888 
L 159.467639 236.613754 
L 159.665331 236.698059 
L 159.691313 236.768983 
L 159.70374 236.803776 
L 159.70374 236.805783 
L 159.698091 236.954321 
L 159.700351 236.973056 
L 159.712777 237.08747 
L 159.715037 237.088809 
L 159.813318 237.14635 
L 159.872061 237.202554 
L 159.907081 237.23534 
L 159.919507 237.329681 
L 159.934193 237.432052 
L 159.902562 237.530409 
L 159.873191 237.628765 
L 159.718426 237.717754 
" clip-path="url(#p2a5febd56f)" style="fill: #f5f5f5; stroke: #000000"/>
    <path d="M 149.727613 232.594523 
L 149.476826 232.747075 
L 149.209094 232.747745 
L 148.418324 232.601883 
L 148.174315 232.492152 
L 148.144944 232.472079 
L 147.959678 232.344952 
L 147.524754 231.960224 
L 147.399361 231.807002 
L 147.453585 231.736079 
L 147.552996 231.711322 
L 147.663704 231.667831 
L 147.797005 231.659133 
L 148.968474 232.041184 
L 150.008901 232.122813 
L 150.331987 232.257301 
L 150.513864 232.433272 
L 150.627961 232.543003 
L 150.42688 232.600545 
L 149.893675 232.55237 
L 149.727613 232.594523 
" clip-path="url(#p2a5febd56f)" style="fill: #f5f5f5; stroke: #000000"/>
    <path d="M 191.442983 232.028471 
L 191.506245 231.590217 
L 191.705067 231.289795 
L 192.057524 231.117838 
L 192.579432 231.064311 
L 192.649472 231.570813 
L 192.232623 231.958217 
L 191.702808 232.14021 
L 191.442983 232.028471 
" clip-path="url(#p2a5febd56f)" style="fill: #f5f5f5; stroke: #000000"/>
    <path d="M 189.917927 229.256426 
L 190.191307 229.326012 
L 190.546024 229.491277 
L 190.76744 229.671263 
L 190.848776 229.736165 
L 190.959484 230.043278 
L 190.735809 230.177765 
L 190.512134 230.312252 
L 189.655843 230.546434 
L 189.348573 230.838158 
L 189.033394 231.574828 
L 188.874111 231.85986 
L 188.300238 232.481446 
L 188.209864 232.700908 
L 188.091249 232.835396 
L 187.563692 233.118421 
L 187.443947 233.268298 
L 187.325331 233.349258 
L 186.64188 234.048458 
L 186.234069 234.300036 
L 185.914372 234.156182 
L 185.61162 233.830334 
L 185.256903 233.533258 
L 184.329443 234.040429 
L 184.071878 234.273273 
L 183.814313 234.42984 
L 183.51721 234.427164 
L 182.885723 234.328807 
L 182.604435 234.395047 
L 182.308461 234.542247 
L 181.560619 235.111644 
L 180.784535 235.461579 
L 180.313462 235.829579 
L 180.069453 235.967412 
L 179.212033 236.070452 
L 178.60314 236.247761 
L 178.345575 236.421056 
L 178.217922 236.473245 
L 178.216792 236.473245 
L 178.176124 236.465216 
L 178.100436 236.448488 
L 177.943412 236.392954 
L 177.802203 236.392954 
L 177.74233 236.533463 
L 177.679069 236.64587 
L 177.527693 236.733521 
L 177.358242 236.789056 
L 177.230589 236.809798 
L 177.22946 236.809798 
L 177.170717 236.766307 
L 177.121011 236.730176 
L 177.049842 236.541492 
L 176.983191 236.135354 
L 177.076954 235.845637 
L 177.102936 235.65963 
L 177.030637 235.573986 
L 176.888299 235.064138 
L 177.039675 234.892851 
L 177.694884 235.137739 
L 177.84626 235.064138 
L 177.932115 235.090233 
L 177.972783 235.102946 
L 177.973913 235.102277 
L 178.70707 234.666029 
L 180.56199 234.025709 
L 180.831981 233.992254 
L 181.00708 233.919992 
L 181.056786 233.899251 
L 181.059045 233.898582 
L 181.700698 233.481069 
L 181.977468 233.242872 
L 182.885723 232.869519 
L 183.028062 232.858814 
L 183.316128 232.88357 
L 183.455078 232.869519 
L 183.556748 232.823352 
L 183.700216 232.694886 
L 183.834647 232.644705 
L 183.792849 232.534304 
L 183.731847 232.421228 
L 183.944225 232.164297 
L 183.993931 231.855177 
L 183.92954 231.120515 
L 183.821091 230.839496 
L 183.58386 230.599293 
L 183.352278 230.408602 
L 183.257385 230.27746 
L 183.609843 230.061343 
L 185.549488 230.838158 
L 186.074785 230.707016 
L 187.538839 229.706056 
L 189.373425 229.267132 
L 189.917927 229.256426 
" clip-path="url(#p2a5febd56f)" style="fill: #f5f5f5; stroke: #000000"/>
    <path d="M 193.535134 227.562287 
L 193.681992 227.665327 
L 193.842405 227.730898 
L 193.974576 227.843306 
L 193.981354 227.875422 
L 194.027671 228.08284 
L 193.975706 228.291597 
L 193.844664 228.445488 
L 193.745253 228.497677 
L 193.657139 228.543844 
L 193.440242 228.583321 
L 193.001929 228.404004 
L 193.03356 227.989837 
L 193.291125 227.615815 
L 193.535134 227.562287 
" clip-path="url(#p2a5febd56f)" style="fill: #f5f5f5; stroke: #000000"/>
    <path d="M 107.926111 191.957795 
L 108.176308 192.074522 
L 108.326355 192.165225 
L 108.263343 192.449573 
L 108.303698 192.73475 
L 108.212195 192.982982 
L 108.074825 193.005307 
L 107.937386 192.875836 
L 107.80022 192.513623 
L 107.713015 192.19027 
L 107.61308 191.996209 
L 107.775959 191.892959 
L 107.926111 191.957795 
" clip-path="url(#p2a5febd56f)" style="fill: #f5f5f5; stroke: #000000"/>
    <path d="M 166.793557 246.957905 
L 166.863596 247.102428 
L 166.88619 247.396159 
L 166.74724 247.507898 
L 166.558585 247.459723 
L 166.337169 247.349992 
L 166.282945 247.16733 
L 166.463693 247.062952 
L 166.793557 246.957905 
" clip-path="url(#p2a5febd56f)" style="fill: #f5f5f5; stroke: #000000"/>
    <path d="M 185.502042 234.57704 
L 185.609361 234.751004 
L 185.636473 235.139077 
L 185.437651 235.492357 
L 185.155233 235.668997 
L 184.931558 235.537186 
L 184.963189 235.157811 
L 185.141677 234.79048 
L 185.366482 234.605811 
L 185.502042 234.57704 
" clip-path="url(#p2a5febd56f)" style="fill: #f5f5f5; stroke: #000000"/>
    <path d="M 154.201111 234.423149 
L 154.364914 234.504778 
L 154.475621 234.751004 
L 154.296004 234.943033 
L 154.051995 234.907571 
L 153.809115 234.776429 
L 153.671295 234.574364 
L 153.782003 234.395047 
L 154.058773 234.385011 
L 154.201111 234.423149 
" clip-path="url(#p2a5febd56f)" style="fill: #f5f5f5; stroke: #000000"/>
    <path d="M 173.763628 247.627665 
L 173.780573 247.786909 
L 173.842705 247.975592 
L 173.733127 248.077963 
L 173.61903 248.088669 
L 173.541083 248.13952 
L 173.407782 248.004363 
L 173.34339 248.057891 
L 173.351298 247.956858 
L 173.304982 247.856494 
L 173.255276 247.695912 
L 173.455228 247.578821 
L 173.694718 247.510574 
L 173.763628 247.627665 
" clip-path="url(#p2a5febd56f)" style="fill: #f5f5f5; stroke: #000000"/>
   </g>
  </g>
 </g>
 <defs>
  <clipPath id="p2a5febd56f">
   <rect x="7.2" y="7.2" width="294.774884" height="266.112"/>
  </clipPath>
 </defs>
</svg>
