<?xml version="1.0" encoding="utf-8" standalone="no"?>
<!DOCTYPE svg PUBLIC "-//W3C//DTD SVG 1.1//EN"
  "http://www.w3.org/Graphics/SVG/1.1/DTD/svg11.dtd">
<svg xmlns:xlink="http://www.w3.org/1999/xlink" width="287.215264pt" height="280.512pt" viewBox="0 0 287.215264 280.512" xmlns="http://www.w3.org/2000/svg" version="1.1">
 <metadata>
  <rdf:RDF xmlns:dc="http://purl.org/dc/elements/1.1/" xmlns:cc="http://creativecommons.org/ns#" xmlns:rdf="http://www.w3.org/1999/02/22-rdf-syntax-ns#">
   <cc:Work>
    <dc:type rdf:resource="http://purl.org/dc/dcmitype/StillImage"/>
    <dc:date>2024-03-04T13:11:11.193788</dc:date>
    <dc:format>image/svg+xml</dc:format>
    <dc:creator>
     <cc:Agent>
      <dc:title>Matplotlib v3.8.0, https://matplotlib.org/</dc:title>
     </cc:Agent>
    </dc:creator>
   </cc:Work>
  </rdf:RDF>
 </metadata>
 <defs>
  <style type="text/css">*{stroke-linejoin: round; stroke-linecap: butt}</style>
 </defs>
 <g id="figure_1">
  <g id="patch_1">
   <path d="M 0 280.512 
L 287.215264 280.512 
L 287.215264 0 
L 0 0 
z
" style="fill: #ffffff"/>
  </g>
  <g id="axes_1">
   <g id="PatchCollection_1">
    <defs>
     <path id="mbf9f245de9" d="M 252.121301 -47.450675 
L 246.631741 -50.308967 
L 245.180436 -50.601233 
L 238.631224 -50.601233 
L 237.17206 -50.416809 
L 233.087971 -48.666341 
L 231.759791 -47.731717 
L 230.892675 -46.448562 
L 228.736675 -40.739225 
L 227.809306 -38.940307 
L 227.678322 -38.505816 
L 227.581394 -37.591509 
L 227.518521 -37.286741 
L 227.023401 -36.151281 
L 225.129369 -32.887129 
L 224.377519 -30.831892 
L 224.000285 -30.239547 
L 222.37608 -28.381238 
L 220.788551 -25.594557 
L 216.976663 -21.141804 
L 216.240779 -20.282201 
L 215.130032 -20.03526 
L 214.021906 -19.788319 
L 213.576469 -19.68937 
L 212.913779 -19.542159 
L 211.805652 -19.296 
L 209.136194 -19.54763 
L 207.204176 -19.72971 
L 205.272159 -19.914134 
L 203.344071 -20.096214 
L 201.410743 -20.279075 
L 198.814636 -20.524453 
L 196.215909 -20.769831 
L 193.617181 -21.016772 
L 191.019764 -21.261368 
L 188.422347 -21.505965 
L 185.823619 -21.752906 
L 183.227512 -21.997502 
L 180.628784 -22.244443 
L 178.610317 -22.434338 
L 176.59447 -22.626577 
L 174.577313 -22.81569 
L 172.554916 -23.00871 
L 170.236495 -23.226737 
L 170.070145 -23.292379 
L 169.911654 -23.359585 
L 169.749234 -23.42679 
L 169.586813 -23.49087 
L 167.636458 -25.131152 
L 165.225038 -27.165288 
L 162.805759 -29.197862 
L 160.3891 -31.231999 
L 157.973751 -33.264573 
L 155.07114 -35.708976 
L 152.16853 -38.152597 
L 149.264609 -40.595436 
L 147.590395 -42.004722 
L 146.360689 -43.039839 
L 143.458078 -45.484242 
L 140.552848 -47.927081 
L 137.647617 -50.369921 
L 134.745006 -52.812761 
L 132.510415 -54.69295 
L 130.277134 -56.57314 
L 128.045163 -58.451766 
L 125.810572 -60.333519 
L 123.130634 -62.587245 
L 123.128015 -62.588808 
L 123.125395 -62.590371 
L 123.122775 -62.591934 
L 121.2143 -64.296739 
L 120.720524 -64.737819 
L 118.318273 -66.886831 
L 115.918642 -69.032716 
L 113.516391 -71.180164 
L 111.373489 -73.083798 
L 109.233207 -74.987431 
L 107.092924 -76.891064 
L 104.947403 -78.794697 
L 103.268185 -80.290409 
L 101.007397 -81.664213 
L 98.785904 -83.016137 
L 96.559172 -84.36806 
L 94.337679 -85.719984 
L 92.116187 -87.070344 
L 89.889455 -88.422268 
L 87.665342 -89.774191 
L 85.44385 -91.126114 
L 83.222357 -92.478038 
L 80.995625 -93.831524 
L 78.774132 -95.183448 
L 76.55002 -96.533808 
L 74.325908 -97.885732 
L 72.104415 -99.237655 
L 69.880303 -100.591141 
L 67.653571 -101.939939 
L 65.432078 -103.293425 
L 62.825492 -104.878223 
L 61.413482 -105.715947 
L 60.048626 -106.258279 
L 51.406286 -107.949356 
L 51.401047 -107.950919 
L 51.398427 -107.952482 
L 51.393188 -107.952482 
L 49.360312 -108.304138 
L 44.351475 -109.174683 
L 39.340018 -110.046791 
L 34.328561 -110.918899 
L 29.314485 -111.789444 
L 29.243753 -111.766 
L 29.173022 -111.740993 
L 29.099671 -111.715986 
L 29.026319 -111.692543 
L 29.02108 -111.925417 
L 32.070393 -114.55737 
L 32.717455 -115.514657 
L 32.188279 -117.554264 
L 31.813664 -118.483418 
L 31.292347 -118.791313 
L 26.490465 -117.449548 
L 26.233736 -117.596463 
L 26.045118 -118.049709 
L 24.808627 -122.397745 
L 24.774571 -122.446976 
L 24.764092 -122.484486 
L 24.774571 -122.506367 
L 24.808627 -122.517308 
L 26.765532 -123.138567 
L 25.062736 -129.459005 
L 23.865541 -133.89769 
L 22.71026 -138.192586 
L 21.832665 -141.409852 
L 20.779552 -145.290575 
L 19.600694 -149.605008 
L 22.403756 -151.281237 
L 25.206819 -152.955903 
L 28.009882 -154.632913 
L 30.812944 -156.30836 
L 33.616007 -157.983808 
L 36.41907 -159.658473 
L 39.222132 -161.333921 
L 42.025195 -163.007024 
L 44.825638 -164.683252 
L 47.63132 -166.357918 
L 50.431763 -168.032584 
L 53.234826 -169.708031 
L 55.05099 -170.794096 
L 56.037889 -171.38426 
L 58.840951 -173.058926 
L 61.644014 -174.733592 
L 64.447077 -176.410602 
L 68.164409 -178.633852 
L 74.38878 -180.284293 
L 75.130151 -180.761764 
L 75.706482 -181.568229 
L 76.618132 -183.553916 
L 76.618132 -183.558604 
L 80.969428 -191.84988 
L 81.186862 -192.595392 
L 81.244495 -193.387791 
L 81.029681 -198.672014 
L 80.88503 -203.658198 
L 80.864641 -204.361033 
L 81.113511 -206.20215 
L 82.171864 -209.937522 
L 82.394537 -212.88831 
L 82.627689 -213.797927 
L 82.630308 -213.797927 
L 82.632928 -213.797927 
L 82.632928 -213.802616 
L 83.828627 -215.554585 
L 84.684141 -216.808106 
L 85.084953 -217.722413 
L 85.223796 -218.669541 
L 85.116389 -222.828463 
L 84.995884 -223.820916 
L 84.720817 -224.791488 
L 82.761293 -228.922278 
L 82.761293 -228.925404 
L 82.758673 -228.923841 
L 82.108991 -230.397672 
L 82.009443 -230.921249 
L 82.006823 -231.426071 
L 82.824165 -239.015598 
L 83.03112 -239.826752 
L 85.268331 -244.034125 
L 85.268331 -244.037251 
L 85.270951 -244.038814 
L 85.270951 -244.041939 
L 85.779169 -244.713994 
L 86.52578 -245.046895 
L 88.170942 -245.311028 
L 96.032615 -246.91927 
L 96.726832 -247.234979 
L 97.397471 -247.783563 
L 100.81354 -251.284498 
L 105.88001 -256.477291 
L 108.494456 -259.158475 
L 108.502315 -259.160038 
L 108.502315 -259.163164 
L 110.1239 -260.638558 
L 110.908038 -261.216 
L 111.085344 -260.572109 
L 111.433762 -259.856293 
L 111.86601 -259.20612 
L 112.830054 -258.297283 
L 113.285879 -257.974541 
L 113.728606 -257.983918 
L 114.223727 -258.526251 
L 114.231586 -258.066753 
L 114.1137 -257.460341 
L 114.132038 -256.973492 
L 114.553807 -256.874247 
L 114.36519 -256.21157 
L 114.422823 -255.931808 
L 114.637637 -255.706748 
L 114.915323 -255.203489 
L 114.249923 -255.16129 
L 114.132038 -254.844018 
L 114.407105 -254.603328 
L 114.915323 -254.790097 
L 115.703848 -254.398586 
L 116.130857 -254.094599 
L 116.476655 -253.171696 
L 116.882707 -252.969298 
L 117.951538 -252.950543 
L 118.074663 -253.011497 
L 118.18469 -253.147471 
L 118.323533 -253.284226 
L 118.548826 -253.34518 
L 118.855329 -253.279537 
L 119.080622 -253.119338 
L 119.850809 -252.286304 
L 120.296156 -251.899482 
L 120.534547 -251.786951 
L 120.738883 -251.766634 
L 120.937979 -251.708024 
L 121.160652 -251.48609 
L 120.59218 -251.276659 
L 120.359028 -251.096924 
L 120.296156 -250.866393 
L 120.469055 -250.615545 
L 120.733643 -250.635081 
L 121.626956 -251.063321 
L 121.83653 -251.048473 
L 122.200667 -250.866393 
L 122.389284 -250.708539 
L 122.517648 -250.512392 
L 122.735082 -250.041173 
L 122.944657 -250.408458 
L 123.185668 -250.582724 
L 123.479073 -250.638989 
L 123.851068 -250.641333 
L 124.157571 -250.573346 
L 126.234981 -251.685362 
L 129.551502 -252.122197 
L 130.570559 -252.206595 
L 131.414098 -252.626238 
L 131.796572 -252.882556 
L 131.909218 -253.360028 
L 132.13975 -253.900797 
L 132.362424 -254.583792 
L 133.106414 -255.759887 
L 133.88446 -256.663253 
L 134.070458 -256.966459 
L 134.426735 -257.230592 
L 134.832786 -257.361877 
L 135.79683 -257.254036 
L 136.184544 -257.057108 
L 136.580116 -256.75234 
L 136.920675 -256.404591 
L 137.685623 -255.877887 
L 138.136209 -255.477781 
L 138.945691 -255.100336 
L 142.621109 -254.153208 
L 142.982626 -254.085221 
L 143.150285 -254.093817 
L 143.221017 -254.231354 
L 143.244594 -254.378268 
L 143.244594 -254.550971 
L 143.289129 -254.704137 
L 143.372959 -254.814322 
L 143.556337 -254.90966 
L 143.789488 -254.945607 
L 144.221736 -254.808071 
L 144.310806 -254.751806 
L 144.405114 -254.756494 
L 144.488944 -254.841673 
L 144.601591 -255.180826 
L 144.630407 -255.369939 
L 144.638266 -255.527012 
L 144.617309 -255.637198 
L 144.593732 -255.722377 
L 144.585873 -255.87398 
L 144.570154 -255.948219 
L 144.567535 -256.022457 
L 144.567535 -256.117795 
L 144.554436 -256.222511 
L 144.504662 -256.402246 
L 144.523 -256.471015 
L 144.661843 -256.524154 
L 144.77711 -256.597611 
L 144.897615 -256.724989 
L 145.10981 -257.143069 
L 145.154344 -257.289983 
L 145.162203 -257.429083 
L 145.141246 -257.579123 
L 145.10981 -257.730726 
L 145.046937 -257.869044 
L 144.965727 -257.962038 
L 144.826884 -258.021428 
L 144.669703 -258.051905 
L 144.240074 -258.183972 
L 144.02788 -258.293376 
L 143.831403 -258.330886 
L 143.477746 -258.344952 
L 143.325804 -258.384025 
L 143.19744 -258.448105 
L 142.938091 -258.62784 
L 142.872599 -258.724741 
L 142.841163 -258.811483 
L 142.828064 -258.895099 
L 142.757333 -259.038106 
L 142.746854 -259.128755 
L 142.741615 -259.234252 
L 142.757333 -259.349908 
L 142.820205 -259.574968 
L 142.911894 -259.815657 
L 142.94595 -260.066506 
L 142.94333 -260.173565 
L 142.966907 -260.257963 
L 143.087413 -260.506467 
L 143.163384 -260.611964 
L 143.273411 -260.724494 
L 143.3651 -260.785448 
L 143.44631 -260.811236 
L 143.553717 -260.804203 
L 143.674222 -260.769037 
L 144.122188 -260.532255 
L 144.412973 -260.452546 
L 146.18912 -260.150122 
L 146.896435 -259.882081 
L 147.695438 -259.69922 
L 149.306544 -258.862278 
L 149.888114 -258.738807 
L 150.034817 -258.771629 
L 150.17628 -258.7349 
L 150.309884 -258.634873 
L 150.873116 -258.110515 
L 151.386574 -257.807309 
L 151.740232 -257.536924 
L 152.065073 -257.375944 
L 152.217014 -257.258725 
L 152.347998 -257.073519 
L 152.379435 -256.925823 
L 152.450166 -256.776565 
L 152.568052 -256.584326 
L 152.552334 -256.499147 
L 152.489461 -256.451478 
L 152.387294 -256.430379 
L 152.319182 -256.38818 
L 152.316562 -256.330352 
L 152.374195 -256.273305 
L 152.788105 -256.289716 
L 152.882414 -256.31316 
L 152.992441 -256.281902 
L 153.094609 -256.197504 
L 153.257029 -255.957596 
L 153.267508 -255.816934 
L 153.243931 -255.691119 
L 153.207255 -255.609847 
L 153.230832 -255.524668 
L 153.440407 -255.205052 
L 153.534716 -255.147224 
L 153.728572 -255.169104 
L 153.841219 -255.199581 
L 153.951245 -255.203489 
L 154.184397 -255.155038 
L 154.944106 -255.08627 
L 155.030556 -255.04876 
L 155.151061 -254.970614 
L 155.237511 -254.814322 
L 155.355397 -254.687726 
L 155.536155 -254.565037 
L 157.925307 -253.5593 
L 158.352316 -253.237339 
L 158.56451 -253.11465 
L 158.703354 -252.985709 
L 158.750508 -252.865364 
L 158.774085 -252.607483 
L 158.797662 -252.469946 
L 159.06225 -252.207376 
L 159.140841 -251.983879 
L 159.292783 -251.643163 
L 159.360894 -251.613468 
L 159.418528 -251.633786 
L 159.4814 -251.693176 
L 159.541653 -251.719746 
L 159.599286 -251.711931 
L 159.654299 -251.661918 
L 159.701453 -251.571269 
L 159.722411 -251.460302 
L 159.709313 -251.31495 
L 159.580948 -251.049255 
L 158.674537 -249.88957 
L 157.959363 -249.276125 
L 157.558551 -248.672839 
L 157.126303 -248.530613 
L 156.932447 -248.40011 
L 156.24085 -247.79995 
L 155.803363 -247.540505 
L 155.481141 -247.268558 
L 155.219173 -247.222452 
L 155.119625 -247.266995 
L 155.088189 -247.356081 
L 155.096048 -247.438916 
L 155.054133 -247.496744 
L 154.962444 -247.552227 
L 154.820981 -247.590519 
L 154.692616 -247.598333 
L 154.556393 -247.557697 
L 154.302283 -247.443604 
L 154.210594 -247.435008 
L 154.113666 -247.445167 
L 154.027216 -247.411565 
L 153.959105 -247.335763 
L 153.919809 -247.17322 
L 153.91195 -247.056001 
L 153.872655 -246.951285 
L 153.794064 -246.913775 
L 153.626405 -246.96457 
L 153.547814 -247.053657 
L 153.524237 -247.162279 
L 153.547814 -247.28028 
L 153.597588 -247.39281 
L 153.629024 -247.493618 
L 153.613306 -247.567075 
L 153.558293 -247.599896 
L 153.445646 -247.603022 
L 153.327761 -247.58583 
L 153.188917 -247.538161 
L 153.071031 -247.523313 
L 152.947906 -247.54832 
L 152.845739 -247.606148 
L 152.767148 -247.685857 
L 152.733092 -247.770254 
L 152.704276 -247.873407 
L 152.657121 -247.957023 
L 152.607347 -247.9664 
L 152.547094 -247.91248 
L 152.539235 -247.757751 
L 152.570672 -247.648347 
L 152.662361 -247.506121 
L 152.633544 -247.435008 
L 152.513039 -247.420161 
L 152.434448 -247.448293 
L 152.366336 -247.501432 
L 152.230113 -247.434227 
L 152.017918 -247.266213 
L 151.376095 -246.560556 
L 151.273928 -246.30033 
L 151.203196 -246.178423 
L 151.103648 -246.03776 
L 150.852158 -245.83927 
L 150.67664 -245.618117 
L 150.320362 -245.358673 
L 150.163181 -245.310222 
L 150.034817 -245.344607 
L 149.966705 -245.450885 
L 149.888114 -245.532938 
L 149.806904 -245.599362 
L 149.730933 -245.586859 
L 149.665441 -245.504806 
L 149.634005 -245.285216 
L 149.657582 -244.91793 
L 149.605189 -244.728817 
L 149.487303 -244.560022 
L 149.25939 -244.479532 
L 149.099589 -244.474062 
L 148.460386 -244.550645 
L 148.355599 -244.488128 
L 148.295346 -244.359969 
L 148.311064 -244.06614 
L 148.363458 -243.934074 
L 148.421091 -243.834047 
L 148.457767 -243.726987 
L 148.468245 -243.613676 
L 148.468245 -243.482391 
L 148.436809 -243.32141 
L 148.35036 -243.176059 
L 148.111968 -242.998668 
L 147.910253 -242.890826 
L 147.726875 -242.82831 
L 147.543497 -242.829873 
L 147.260571 -242.878323 
L 147.171501 -242.870508 
L 147.10077 -242.793926 
L 147.085052 -242.679833 
L 147.195079 -242.403196 
L 147.234374 -242.127341 
L 147.260571 -241.682691 
L 147.077193 -241.079405 
L 146.644945 -240.370622 
L 145.581353 -239.139825 
L 145.172682 -238.774102 
L 144.703758 -238.4834 
L 144.504662 -238.394313 
L 144.145766 -237.980922 
L 143.572055 -237.737888 
L 143.372959 -237.561279 
L 143.171243 -237.297146 
L 142.875218 -236.804045 
L 142.647306 -236.506309 
L 141.848302 -235.805341 
L 141.714698 -235.608413 
L 141.578475 -235.255976 
L 141.28769 -234.66363 
L 140.795189 -234.311974 
L 140.582994 -234.282278 
L 140.493925 -234.188503 
L 140.36556 -233.9189 
L 140.307927 -233.702436 
L 140.239816 -233.505508 
L 139.697541 -232.530248 
L 139.642528 -232.276274 
L 139.634668 -232.073876 
L 139.673964 -231.476842 
L 139.642528 -231.330709 
L 139.569176 -231.175199 
L 139.21028 -230.65631 
L 138.935213 -230.406243 
L 135.650128 -229.069949 
L 135.443173 -228.758929 
L 135.600354 -227.997788 
L 135.870182 -227.729748 
L 136.284092 -227.67739 
L 136.611552 -227.673482 
L 136.698002 -227.4578 
L 136.700622 -226.895931 
L 136.472709 -224.798496 
L 136.197642 -224.191303 
L 136.011645 -224.01313 
L 135.812548 -223.971713 
L 135.63179 -223.973276 
L 135.490327 -223.888878 
L 135.356723 -223.691951 
L 134.809209 -222.468968 
L 134.709661 -222.113404 
L 134.730619 -221.857086 
L 134.762055 -221.685165 
L 135.178585 -220.732567 
L 135.013545 -219.905002 
L 134.958531 -219.772936 
L 134.856364 -219.5932 
L 134.8878 -219.479889 
L 134.955912 -219.379862 
L 135.073797 -219.251703 
L 135.194303 -219.068842 
L 135.320048 -218.77892 
L 135.422215 -218.400694 
L 135.372441 -218.163912 
L 135.30171 -217.966985 
L 135.327907 -217.847422 
L 135.396019 -217.766931 
L 135.513904 -217.720044 
L 135.63179 -217.699726 
L 135.768014 -217.624706 
L 135.925195 -217.4606 
L 136.121671 -217.102692 
L 136.210741 -216.643194 
L 136.320767 -214.290222 
L 136.307669 -214.016711 
L 136.276233 -213.822128 
L 136.168826 -213.418896 
L 136.142629 -213.048484 
L 136.113812 -212.886722 
L 136.04832 -212.792166 
L 135.988067 -212.767159 
L 135.783732 -212.710894 
L 136.925914 -212.00133 
L 137.169545 -211.889581 
L 137.701341 -211.746574 
L 137.971169 -211.737197 
L 138.227898 -211.785647 
L 138.730877 -212.224827 
L 139.12121 -212.343609 
L 140.20576 -212.39284 
L 140.70088 -212.471768 
L 141.101692 -212.692921 
L 141.321745 -213.05161 
L 141.61777 -213.927625 
L 141.86402 -214.255056 
L 142.207199 -214.408222 
L 142.773051 -214.394156 
L 143.619209 -214.463706 
L 144.44179 -214.94821 
L 144.981445 -214.994316 
L 145.256512 -215.104502 
L 145.508002 -215.428807 
L 145.76735 -216.332173 
L 145.908813 -217.084718 
L 146.081713 -217.438719 
L 146.466806 -217.899779 
L 146.794267 -218.195952 
L 147.009081 -218.471807 
L 147.024799 -218.809397 
L 146.922631 -219.086034 
L 146.76545 -219.359544 
L 146.207457 -219.972208 
L 146.045037 -220.110526 
L 146.026699 -220.304328 
L 146.18388 -220.564553 
L 147.734734 -221.838331 
L 149.563274 -223.763845 
L 149.817383 -224.431992 
L 150.207716 -224.503105 
L 150.781427 -224.296018 
L 153.456125 -222.438491 
L 154.404451 -222.474438 
L 154.944106 -222.571339 
L 155.179878 -222.715127 
L 155.402551 -223.163685 
L 155.771926 -224.12566 
L 156.356116 -224.346032 
L 156.780505 -224.428085 
L 158.171558 -224.163952 
L 158.726931 -224.060799 
L 159.206333 -223.823236 
L 159.353035 -223.791977 
L 159.55999 -223.806044 
L 159.808861 -223.86856 
L 160.172997 -224.060018 
L 160.319699 -224.187396 
L 160.442824 -224.376509 
L 160.539753 -224.381197 
L 160.851495 -224.226468 
L 161.000817 -224.18427 
L 161.401629 -224.12019 
L 161.514275 -224.069395 
L 161.592866 -224.049859 
L 161.668837 -224.063925 
L 161.799821 -224.324932 
L 161.886271 -224.389012 
L 162.360433 -224.586721 
L 162.501896 -224.670337 
L 162.611923 -224.776615 
L 162.745527 -224.867265 
L 162.934144 -224.889145 
L 163.251126 -224.837569 
L 163.47118 -224.839132 
L 164.013455 -225.147027 
L 164.571447 -224.97745 
L 164.639559 -224.892271 
L 164.71291 -224.853198 
L 164.828176 -224.869609 
L 165.04823 -224.991516 
L 165.200172 -225.032934 
L 165.386169 -224.967291 
L 165.490957 -224.85945 
L 165.653377 -224.626575 
L 165.750306 -224.567966 
L 165.841994 -224.585939 
L 165.889149 -224.726602 
L 165.873431 -224.829755 
L 165.841994 -224.926655 
L 165.818417 -225.028245 
L 165.834135 -225.125146 
L 165.931064 -225.193133 
L 166.030612 -225.216577 
L 166.29782 -225.047782 
L 166.399987 -225.029027 
L 166.525732 -225.160312 
L 166.6279 -225.29863 
L 166.777222 -225.452577 
L 166.989416 -225.622154 
L 167.081105 -225.770631 
L 167.175414 -226.00038 
L 167.248765 -226.100406 
L 167.366651 -226.178552 
L 167.639098 -226.309056 
L 167.722928 -226.294208 
L 167.801519 -226.186367 
L 167.801519 -225.895664 
L 167.950841 -225.639346 
L 169.349752 -222.654174 
L 169.994195 -221.971179 
L 170.573145 -221.203005 
L 171.749384 -220.187109 
L 171.958958 -219.58773 
L 171.982535 -219.081345 
L 171.552907 -218.331926 
L 171.450739 -218.013091 
L 171.395726 -217.240228 
L 171.293558 -216.887009 
L 171.214968 -215.8 
L 171.123279 -214.930237 
L 171.186151 -214.633282 
L 171.359051 -214.330076 
L 171.898706 -213.737731 
L 172.385967 -213.085994 
L 172.414783 -212.74059 
L 172.283799 -212.31782 
L 172.02445 -211.809091 
L 171.099702 -210.586108 
L 170.908465 -209.994544 
L 170.981816 -209.546768 
L 171.138997 -209.036476 
L 171.238545 -208.585574 
L 171.131138 -208.11748 
L 170.856071 -207.476684 
L 170.78534 -207.070326 
L 170.714608 -206.884339 
L 170.625539 -206.749928 
L 170.436921 -206.693663 
L 170.20377 -206.567066 
L 169.897266 -206.357635 
L 169.637918 -205.976284 
L 169.53837 -205.70121 
L 169.522652 -205.442547 
L 169.561947 -205.218269 
L 169.734846 -204.80097 
L 169.664114 -204.548559 
L 169.396907 -204.293022 
L 167.421664 -203.685047 
L 166.29782 -202.755893 
L 168.854632 -200.123158 
L 169.271162 -199.93092 
L 169.842253 -199.777754 
L 170.277121 -199.93092 
L 173.051367 -199.815264 
L 173.999693 -199.646469 
L 176.17927 -198.148413 
L 176.485774 -197.786597 
L 176.548646 -197.655312 
L 176.572223 -197.539656 
L 176.556505 -197.402119 
L 176.472675 -196.995761 
L 176.535548 -194.844405 
L 177.884685 -193.974642 
L 178.411242 -193.456535 
L 178.654872 -193.135355 
L 178.817293 -193.013448 
L 178.990192 -192.974375 
L 179.136894 -193.018137 
L 179.728943 -193.361978 
L 179.954236 -193.423714 
L 180.245021 -193.452628 
L 180.784676 -193.389329 
L 181.101658 -193.288521 
L 181.353148 -193.159581 
L 181.696326 -192.872004 
L 181.892803 -192.632096 
L 182.104997 -192.308572 
L 182.191447 -192.03428 
L 182.262178 -190.964463 
L 182.369585 -190.283031 
L 182.372205 -190.093918 
L 182.356487 -189.947004 
L 182.361726 -189.806342 
L 182.385304 -189.598474 
L 182.526767 -188.910009 
L 182.812312 -188.138709 
L 182.812312 -188.008987 
L 182.773017 -187.892549 
L 182.66037 -187.733132 
L 182.309333 -187.347873 
L 182.238601 -187.213462 
L 182.204545 -187.071236 
L 182.212404 -186.894627 
L 182.243841 -186.712547 
L 182.395782 -186.260864 
L 182.41674 -186.109261 
L 182.4115 -185.94281 
L 182.372205 -185.758386 
L 182.301474 -185.558332 
L 182.118096 -185.226994 
L 182.120715 -185.109775 
L 182.180968 -184.976146 
L 182.254319 -184.915974 
L 182.450796 -184.851894 
L 182.542485 -184.839391 
L 182.621075 -184.838609 
L 182.723243 -184.820636 
L 182.788735 -184.728423 
L 182.835889 -184.586198 
L 182.906621 -184.117323 
L 183.737061 -184.60339 
L 186.498209 -187.873794 
L 186.836148 -188.162153 
L 187.024765 -188.147305 
L 187.119074 -188.155901 
L 187.373183 -188.212166 
L 187.530364 -188.215292 
L 187.753038 -188.266868 
L 188.012386 -188.369239 
L 188.48393 -188.631028 
L 188.664688 -188.778724 
L 188.787813 -188.932671 
L 188.81139 -189.013161 
L 188.819249 -189.101466 
L 188.903079 -189.382791 
L 189.193864 -189.874329 
L 189.256737 -190.021243 
L 189.322229 -190.248647 
L 189.335327 -190.334608 
L 189.319609 -190.415879 
L 189.296032 -190.497151 
L 189.288173 -190.598741 
L 189.290792 -190.709708 
L 189.319609 -190.83396 
L 189.322229 -190.92539 
L 189.377242 -191.09106 
L 189.468931 -191.311431 
L 189.746618 -191.799061 
L 190.076698 -192.656321 
L 190.194584 -192.810269 
L 190.317709 -192.910295 
L 190.467031 -192.979064 
L 190.522044 -193.074402 
L 190.55872 -193.199435 
L 190.770914 -193.755834 
L 190.857364 -194.109053 
L 191.048601 -194.570895 
L 191.297471 -194.837372 
L 191.407498 -195.024922 
L 191.457272 -195.174962 
L 191.478229 -195.335943 
L 191.543721 -195.396897 
L 191.622312 -195.406274 
L 191.706142 -195.389082 
L 191.782113 -195.395334 
L 192.434414 -195.978302 
L 192.641369 -196.253375 
L 193.225559 -197.170808 
L 193.359163 -197.449007 
L 193.424655 -197.641246 
L 193.424655 -197.720955 
L 193.429894 -197.806915 
L 193.422035 -197.872558 
L 193.38274 -197.926478 
L 193.306769 -197.963988 
L 193.212461 -197.982743 
L 192.97145 -198.001498 
L 192.898098 -198.022598 
L 192.843085 -198.202333 
L 193.091955 -198.418016 
L 193.178405 -198.850944 
L 193.280572 -198.976759 
L 193.495386 -199.108825 
L 193.605413 -199.333104 
L 193.63423 -199.430786 
L 193.594934 -199.480018 
L 193.539921 -199.465952 
L 193.456091 -199.432349 
L 193.38536 -199.447978 
L 193.319868 -199.516747 
L 193.304149 -199.756654 
L 193.369642 -199.918416 
L 193.524203 -200.19349 
L 193.621131 -200.289609 
L 193.704961 -200.323212 
L 193.762594 -200.266947 
L 193.783552 -200.201304 
L 193.778312 -200.113781 
L 193.783552 -200.052827 
L 193.822847 -200.034072 
L 193.885719 -200.065331 
L 193.959071 -200.132536 
L 194.029802 -200.176298 
L 194.234138 -200.271636 
L 194.302249 -200.385729 
L 194.407037 -200.629544 
L 194.538021 -200.826471 
L 194.810468 -201.139055 
L 194.946692 -201.328168 
L 195.041 -201.482896 
L 195.061958 -201.687639 
L 195.096014 -201.84393 
L 195.321307 -202.082275 
L 195.470629 -202.176832 
L 195.635669 -202.179958 
L 195.803329 -202.077586 
L 195.997185 -201.914262 
L 196.115071 -201.793917 
L 196.256534 -201.575109 
L 197.990765 -199.772284 
L 198.263213 -199.338574 
L 198.184622 -199.288561 
L 198.085074 -199.252614 
L 197.972428 -199.225262 
L 197.846683 -199.222918 
L 197.747135 -199.243236 
L 197.634488 -199.285435 
L 197.532321 -199.296375 
L 197.338464 -199.27762 
L 197.267732 -199.290124 
L 197.20748 -199.24011 
L 197.176043 -199.033024 
L 197.417054 -196.258064 
L 197.579475 -195.920474 
L 197.124939 -196.15728 
L 196.53813 -196.129148 
L 196.37047 -195.547743 
L 196.420244 -194.78035 
L 196.291879 -194.042653 
L 195.589804 -193.562838 
L 194.868081 -193.487818 
L 194.547169 -193.356533 
L 194.298299 -193.012691 
L 194.218399 -192.650094 
L 194.277342 -192.038993 
L 194.198751 -191.692026 
L 193.494056 -190.896501 
L 193.300199 -190.408871 
L 193.677434 -189.986883 
L 193.887009 -189.869664 
L 194.114921 -189.694617 
L 194.300919 -189.475809 
L 194.389988 -189.228868 
L 194.468579 -188.906907 
L 194.593014 -188.724046 
L 194.722688 -188.575569 
L 194.827476 -188.364575 
L 194.907376 -187.792547 
L 194.919165 -187.223645 
L 195.000375 -186.711008 
L 195.283301 -186.318716 
L 195.357962 -186.121789 
L 195.351413 -185.798265 
L 195.283301 -185.476304 
L 195.179823 -185.280939 
L 195.029191 -185.249681 
L 194.471199 -185.443482 
L 192.729108 -185.579456 
L 191.945822 -185.765443 
L 191.076087 -186.217127 
L 190.088466 -186.50314 
L 189.983679 -185.673231 
L 190.194563 -184.449467 
L 190.159197 -183.553916 
L 190.038692 -183.314008 
L 189.894609 -183.095199 
L 189.729569 -182.905305 
L 189.546191 -182.739636 
L 188.215391 -182.445026 
L 187.969141 -182.047263 
L 188.752427 -179.559099 
L 189.077268 -178.905018 
L 189.546191 -178.562739 
L 190.05179 -178.963628 
L 190.617642 -178.966753 
L 191.141579 -178.636978 
L 191.530602 -178.043069 
L 191.669446 -177.356949 
L 191.618362 -176.610656 
L 191.280423 -175.15558 
L 191.154678 -174.882851 
L 190.798401 -174.310823 
L 190.747317 -174.031061 
L 190.869132 -173.686437 
L 191.05513 -173.423867 
L 191.200522 -173.163642 
L 191.200522 -172.826833 
L 190.942483 -172.485335 
L 189.918186 -171.653082 
L 189.546191 -171.258445 
L 188.927946 -170.720802 
L 188.6424 -170.049529 
L 188.428896 -169.277448 
L 188.042492 -168.43738 
L 188.042492 -168.434254 
L 188.037253 -168.434254 
L 187.827678 -168.219353 
L 187.581428 -168.052121 
L 187.039153 -167.808306 
L 187.56309 -167.079205 
L 188.138111 -166.756462 
L 188.796961 -166.714263 
L 189.546191 -166.829138 
L 189.609064 -166.81976 
L 189.664077 -166.794754 
L 189.711231 -166.752555 
L 191.96678 -162.67803 
L 192.307339 -162.302148 
L 192.697672 -161.97628 
L 193.030372 -161.61212 
L 193.21244 -161.109642 
L 193.321157 -160.49776 
L 193.496676 -159.963242 
L 193.750785 -159.471705 
L 194.096584 -158.980949 
L 194.481677 -158.598034 
L 195.676254 -157.743118 
L 195.765319 -157.509395 
L 195.850463 -157.285965 
L 195.843913 -156.210678 
L 196.016813 -155.999684 
L 196.459539 -156.10987 
L 196.876069 -156.386506 
L 197.61351 -157.094508 
L 198.075885 -157.290654 
L 199.307137 -157.309409 
L 199.854651 -157.445383 
L 199.755103 -156.516228 
L 200.203069 -156.061419 
L 200.740104 -155.693352 
L 200.918243 -155.024424 
L 200.6065 -154.568833 
L 199.404065 -153.835825 
L 199.008493 -153.315374 
L 199.44336 -152.944962 
L 200.19521 -152.769134 
L 200.962777 -152.866035 
L 201.431701 -153.312248 
L 201.557446 -153.382579 
L 201.6845 -153.406804 
L 201.814175 -153.381798 
L 201.844995 -153.36456 
L 201.93992 -153.311466 
L 202.01982 -153.266923 
L 202.097101 -153.207532 
L 202.948498 -152.144749 
L 203.236664 -151.622734 
L 203.440999 -151.051488 
L 203.51828 -150.437262 
L 203.532688 -149.932439 
L 203.663672 -149.491697 
L 204.51245 -148.672728 
L 205.521029 -147.246566 
L 206.327892 -146.593267 
L 206.681549 -146.233796 
L 206.906842 -145.723503 
L 206.912081 -145.412483 
L 206.75883 -144.831859 
L 206.741802 -144.584137 
L 206.854448 -144.302811 
L 207.147853 -144.116824 
L 207.163571 -143.843314 
L 206.982813 -143.454929 
L 206.634395 -143.029034 
L 205.950657 -142.349165 
L 205.416241 -141.944369 
L 205.004951 -141.862316 
L 204.580562 -141.895137 
L 204.022569 -141.845124 
L 203.51304 -141.559892 
L 203.488153 -141.191825 
L 203.841811 -140.887837 
L 204.955177 -140.759678 
L 205.431959 -140.556499 
L 205.797405 -140.229068 
L 205.942798 -139.814894 
L 205.773828 -139.301476 
L 205.397904 -138.909965 
L 204.976134 -138.566905 
L 204.664392 -138.197275 
L 204.664392 -138.192586 
L 205.204047 -136.982107 
L 206.688098 -136.80159 
L 209.675849 -137.138399 
L 212.367575 -136.299894 
L 214.894261 -135.090977 
L 215.604195 -134.372035 
L 217.968869 -132.996547 
L 218.065389 -132.940403 
L 219.229839 -131.993275 
L 220.890719 -130.984412 
L 221.941213 -129.780184 
L 229.572354 -123.074488 
L 229.577594 -123.074488 
L 229.578903 -123.072143 
L 230.388386 -122.471983 
L 231.159883 -122.06328 
L 231.958887 -121.885889 
L 232.852199 -121.98279 
L 233.300166 -122.153929 
L 234.460686 -122.801759 
L 234.816963 -122.778315 
L 236.25255 -122.280526 
L 236.794825 -121.992167 
L 237.118356 -121.613941 
L 237.402592 -121.147411 
L 237.828291 -120.597264 
L 238.505479 -120.074468 
L 238.646942 -119.853315 
L 238.686237 -119.504003 
L 238.594548 -119.305513 
L 238.453085 -119.138281 
L 238.230412 -118.577193 
L 238.128245 -118.462319 
L 238.124315 -118.312279 
L 238.293285 -117.903576 
L 238.409861 -117.730092 
L 239.16564 -117.001773 
L 239.284835 -116.835322 
L 239.380454 -116.667308 
L 239.82842 -116.038234 
L 239.99084 -115.865532 
L 240.237091 -115.742843 
L 240.373314 -115.358365 
L 240.867125 -114.977013 
L 240.999419 -114.585503 
L 240.960124 -114.163515 
L 240.82521 -113.869686 
L 240.674578 -113.603991 
L 240.57503 -113.275778 
L 240.522636 -112.85379 
L 240.546214 -112.614664 
L 240.719113 -112.47869 
L 241.115995 -112.363034 
L 241.442146 -112.153603 
L 241.646481 -111.844146 
L 241.871774 -111.584701 
L 242.254248 -111.536251 
L 242.744129 -111.329946 
L 242.799276 -111.249499 
L 243.173757 -110.703216 
L 243.751398 -109.385677 
L 244.140421 -108.933994 
L 245.025874 -108.494814 
L 245.276054 -107.958733 
L 245.276054 -107.954045 
L 245.39525 -107.42109 
L 246.301661 -105.770649 
L 246.47456 -105.528397 
L 246.933005 -105.223628 
L 247.126862 -105.040767 
L 247.268325 -104.767256 
L 247.399309 -104.237427 
L 247.489688 -104.009241 
L 247.897049 -103.548181 
L 248.896459 -102.783914 
L 249.243567 -102.243145 
L 249.314298 -101.600786 
L 249.163666 -100.916228 
L 245.300941 -90.210245 
L 245.237931 -85.028356 
L 245.149 -77.714721 
L 253.478287 -77.713158 
L 253.749425 -77.544363 
L 253.830635 -77.15676 
L 253.744185 -62.587245 
L 253.78348 -61.660435 
L 256.466038 -61.265017 
L 256.748964 -61.164991 
L 257.010932 -60.996195 
L 257.435321 -60.524194 
L 257.760162 -59.930286 
L 257.988074 -59.270735 
L 258.196339 -57.939129 
L 258.307676 -57.64999 
L 258.510702 -57.428055 
L 258.792318 -57.298333 
L 259.090962 -57.251446 
L 259.397465 -57.263949 
L 260.324833 -57.42493 
L 260.644435 -57.4093 
L 260.950938 -57.301459 
L 261.188019 -57.092028 
L 261.702787 -56.204291 
L 262.517509 -55.246223 
L 263.502511 -54.314724 
L 263.668861 -54.058406 
L 263.798535 -53.750511 
L 263.846999 -53.423861 
L 263.781507 -53.1019 
L 263.596819 -52.840893 
L 263.353189 -52.61427 
L 263.154093 -52.362641 
L 263.099079 -52.026613 
L 263.148853 -51.817182 
L 263.465835 -51.115433 
L 263.971434 -50.523087 
L 264.115517 -50.212066 
L 264.184939 -50.16049 
L 264.647313 -48.656964 
L 264.699707 -48.263109 
L 264.925 -47.673889 
L 265.042885 -47.475398 
L 265.207926 -47.301914 
L 265.558963 -47.014338 
L 265.936198 -46.776774 
L 266.720793 -46.545462 
L 266.898798 -46.461237 
L 266.89261 -46.444008 
L 266.89261 -46.306176 
L 267.505244 -46.314791 
L 267.61457 -46.015744 
L 267.301033 -45.656397 
L 266.632704 -45.480415 
L 263.878941 -45.768385 
L 261.942024 -46.463699 
L 261.032354 -47.162704 
L 260.147437 -47.448213 
L 258.742708 -48.371196 
L 257.641203 -48.766233 
L 256.459251 -48.99144 
L 255.374248 -49.011131 
L 254.408884 -48.745312 
L 252.653489 -47.753413 
L 252.47403 -48.548409 
L 252.387395 -49.464008 
L 252.214124 -50.302076 
L 251.787136 -50.869402 
L 252.09861 -49.884888 
L 252.133677 -49.515695 
L 252.071795 -49.12435 
L 251.962469 -48.757618 
L 251.941842 -48.432728 
L 252.133677 -48.164448 
L 252.121301 -47.450675 
" style="stroke: #000000"/>
    </defs>
    <g clip-path="url(#p69a0c949d1)">
     <use xlink:href="#mbf9f245de9" x="0" y="280.512" style="fill: #f5f5f5; stroke: #000000"/>
    </g>
   </g>
  </g>
 </g>
 <defs>
  <clipPath id="p69a0c949d1">
   <rect x="7.2" y="7.2" width="272.815264" height="266.112"/>
  </clipPath>
 </defs>
</svg>
