<?xml version="1.0" encoding="utf-8" standalone="no"?>
<!DOCTYPE svg PUBLIC "-//W3C//DTD SVG 1.1//EN"
  "http://www.w3.org/Graphics/SVG/1.1/DTD/svg11.dtd">
<svg xmlns:xlink="http://www.w3.org/1999/xlink" width="194.896916pt" height="280.512pt" viewBox="0 0 194.896916 280.512" xmlns="http://www.w3.org/2000/svg" version="1.1">
 <metadata>
  <rdf:RDF xmlns:dc="http://purl.org/dc/elements/1.1/" xmlns:cc="http://creativecommons.org/ns#" xmlns:rdf="http://www.w3.org/1999/02/22-rdf-syntax-ns#">
   <cc:Work>
    <dc:type rdf:resource="http://purl.org/dc/dcmitype/StillImage"/>
    <dc:date>2024-03-04T13:11:11.219850</dc:date>
    <dc:format>image/svg+xml</dc:format>
    <dc:creator>
     <cc:Agent>
      <dc:title>Matplotlib v3.8.0, https://matplotlib.org/</dc:title>
     </cc:Agent>
    </dc:creator>
   </cc:Work>
  </rdf:RDF>
 </metadata>
 <defs>
  <style type="text/css">*{stroke-linejoin: round; stroke-linecap: butt}</style>
 </defs>
 <g id="figure_1">
  <g id="patch_1">
   <path d="M 0 280.512 
L 194.896916 280.512 
L 194.896916 0 
L 0 0 
z
" style="fill: #ffffff"/>
  </g>
  <g id="axes_1">
   <g id="PatchCollection_1">
    <path d="M 133.625557 38.760311 
L 132.915652 39.015381 
L 132.59422 39.402419 
L 132.312495 39.833871 
L 132.013752 40.154287 
L 129.676753 40.503256 
L 129.239983 40.83319 
L 128.873173 41.242435 
L 127.838918 42.796932 
L 127.99018 43.333075 
L 127.893751 43.437766 
L 127.699001 43.504387 
L 127.55152 43.939012 
L 127.759506 45.506199 
L 127.714127 46.016962 
L 127.454687 46.43103 
L 127.40404 46.511863 
L 126.677982 46.803728 
L 126.375458 47.181248 
L 126.239322 47.907738 
L 126.394365 49.46858 
L 126.394365 50.109413 
L 126.01621 51.425977 
L 125.439523 52.514125 
L 122.784874 55.718292 
L 122.552308 56.5463 
L 122.480459 58.075417 
L 122.601468 58.535421 
L 122.798109 58.744803 
L 122.796218 58.874873 
L 122.317852 59.077909 
L 121.934024 59.058874 
L 121.247673 58.687699 
L 120.151022 59.017633 
L 118.895547 58.678181 
L 118.243229 59.05253 
L 116.970737 60.27392 
L 115.715262 60.97503 
L 114.474912 61.063858 
L 113.264816 60.44206 
L 112.219216 59.553776 
L 111.71627 59.528396 
L 110.464576 60.756131 
L 108.651322 61.634898 
L 109.252589 62.129799 
L 109.4757 62.250352 
L 109.193975 63.173533 
L 109.494608 63.808021 
L 110.099656 64.191887 
L 110.733066 64.366371 
L 111.041263 64.55989 
L 111.409964 65.337139 
L 111.697362 65.641693 
L 112.003668 65.654383 
L 112.570901 65.232448 
L 112.846954 65.149965 
L 113.351791 65.435485 
L 114.524073 66.466529 
L 115.095087 66.682255 
L 115.709589 66.39039 
L 116.278713 65.984317 
L 116.668213 66.082663 
L 116.763591 67.279809 
L 116.766533 67.316743 
L 115.252021 67.808472 
L 111.608496 71.199813 
L 110.207431 71.739128 
L 108.770441 71.682025 
L 105.997618 71.044363 
L 105.226181 71.888233 
L 104.484051 72.960519 
L 104.034047 73.861493 
L 103.84686 74.121633 
L 103.427107 74.505499 
L 102.527098 75.025779 
L 100.58338 75.590474 
L 99.913913 75.953451 
L 99.717405 76.059996 
L 100.180645 76.485103 
L 100.2922 76.957797 
L 100.368777 77.452698 
L 100.723297 77.963461 
L 101.598727 78.915194 
L 103.152945 81.06611 
L 104.011357 81.944877 
L 104.93122 82.427088 
L 105.997618 82.433433 
L 106.77189 84.359106 
L 107.248366 85.241045 
L 107.877994 85.93581 
L 108.197312 86.058556 
L 108.488715 86.170571 
L 109.920978 86.383125 
L 110.458904 86.786025 
L 110.700923 87.76631 
L 110.846513 90.478748 
L 111.330552 91.427309 
L 112.043374 91.861933 
L 114.051379 92.128419 
L 116.227662 91.985659 
L 116.87998 92.106212 
L 119.517612 94.060436 
L 119.772867 94.450647 
L 119.833372 94.993135 
L 119.952491 95.50707 
L 120.383588 95.81797 
L 124.288041 96.725288 
L 125.076494 96.569839 
L 126.581552 95.386517 
L 127.494797 95.462656 
L 127.08828 95.998799 
L 127.216853 96.0908 
L 127.583664 96.030523 
L 127.886188 96.116179 
L 128.154678 96.655495 
L 128.226527 96.92198 
L 128.389134 96.966394 
L 128.928005 96.836324 
L 130.703444 97.432743 
L 131.086704 97.390805 
L 131.312274 97.366122 
L 130.476551 95.643485 
L 130.476551 95.23424 
L 130.739369 94.916996 
L 131.853036 94.269818 
L 131.977827 94.422095 
L 131.871944 94.866237 
L 131.820893 95.411897 
L 131.824674 96.119352 
L 131.786859 96.677702 
L 131.917322 96.915635 
L 132.420269 96.66184 
L 132.760609 96.287491 
L 133.025317 95.751348 
L 133.121747 95.126377 
L 132.957249 94.514096 
L 133.673853 94.15561 
L 133.628475 93.83202 
L 133.288135 93.546501 
L 133.112293 93.302223 
L 133.318388 92.689941 
L 133.552844 92.287041 
L 133.853477 91.985659 
L 134.269448 91.665242 
L 136.273671 91.141789 
L 137.056452 90.640543 
L 136.821996 89.631706 
L 137.328724 88.930596 
L 136.025979 87.845621 
L 136.245309 86.992234 
L 135.018195 86.392642 
L 134.929329 85.732774 
L 135.105171 85.68836 
L 135.379334 85.777188 
L 135.579756 85.526565 
L 135.627025 85.536082 
L 135.910642 84.968215 
L 135.897406 84.930146 
L 135.800977 84.834973 
L 135.661059 84.524073 
L 135.570302 84.149725 
L 135.625135 83.85786 
L 135.734197 83.79825 
L 135.874717 83.721445 
L 136.517581 83.838825 
L 136.816323 83.829308 
L 138.018857 82.934679 
L 139.794296 80.174654 
L 140.864475 79.14361 
L 142.014067 79.042092 
L 143.248744 79.660718 
L 145.519566 81.526115 
L 145.774821 81.941705 
L 146.107598 82.979093 
L 146.402559 83.153578 
L 146.839328 83.188475 
L 147.068112 83.435925 
L 147.422651 84.393195 
L 147.847112 85.539255 
L 147.911398 86.430711 
L 147.618328 87.049338 
L 146.977355 87.385617 
L 148.276318 88.048657 
L 148.603422 88.413488 
L 148.76981 88.930596 
L 148.896492 89.527016 
L 149.108259 90.142469 
L 149.715198 91.125927 
L 150.429912 91.944417 
L 151.210802 92.59794 
L 152.004928 93.099186 
L 152.441698 93.137256 
L 152.736659 92.826356 
L 153.012712 92.426628 
L 153.404103 92.19504 
L 153.838981 92.252144 
L 154.230372 92.474215 
L 154.996136 93.121393 
L 155.529484 93.745159 
L 155.826187 94.092161 
L 156.037954 95.189826 
L 155.693833 96.312871 
L 154.871345 97.359777 
L 155.260845 98.064059 
L 155.213575 98.761997 
L 154.648233 100.205458 
L 155.206012 100.652773 
L 156.181653 101.839266 
L 156.699725 102.118441 
L 156.900148 101.997888 
L 157.111263 101.676182 
L 157.291538 101.401469 
L 157.482507 101.188915 
L 157.771796 101.131812 
L 158.331465 101.366572 
L 158.618863 101.401469 
L 161.746207 100.249872 
L 162.757772 100.205458 
L 162.782352 100.313321 
L 162.927942 100.573462 
L 163.145381 100.846292 
L 163.379838 101.011259 
L 163.640765 101.004914 
L 164.582371 100.668635 
L 165.442674 100.522702 
L 165.67524 100.306976 
L 165.830284 99.796213 
L 165.803813 99.28545 
L 165.741417 98.812756 
L 165.786796 98.432063 
L 166.272725 97.613572 
L 166.571468 97.661159 
L 166.853193 98.086266 
L 167.286181 98.397166 
L 167.774001 98.28613 
L 168.293965 98.019645 
L 168.840399 97.946679 
L 169.38058 98.394742 
L 171.680777 100.61795 
L 172.252476 100.910215 
L 172.511527 101.105058 
L 173.038562 101.974357 
L 173.261882 102.1692 
L 174.042013 102.24414 
L 174.357639 102.359047 
L 174.625623 102.551392 
L 175.329826 103.57057 
L 175.194345 104.32746 
L 174.003305 105.731329 
L 173.373542 105.976131 
L 172.466863 105.651393 
L 171.604848 105.106832 
L 171.104611 104.68717 
L 170.582042 104.784592 
L 168.021306 103.677984 
L 166.088843 103.423189 
L 166.088843 103.885317 
L 166.529528 104.185075 
L 166.307697 104.76211 
L 165.853613 105.571458 
L 165.60945 106.590636 
L 165.414417 108.404174 
L 165.389107 109.508284 
L 165.60945 110.587414 
L 166.419357 111.686528 
L 167.646128 112.321017 
L 170.355744 112.685723 
L 170.355744 113.145353 
L 169.961212 114.234475 
L 169.925481 115.321099 
L 170.291726 116.26284 
L 171.104611 116.912316 
L 170.354256 117.756636 
L 170.165178 119.400311 
L 170.26195 121.004018 
L 170.425718 123.706839 
L 170.604374 124.613609 
L 170.844071 125.490402 
L 171.104611 126.134882 
L 171.460434 126.472111 
L 172.01129 126.846809 
L 172.410289 127.116591 
L 173.043029 128.615383 
L 174.042013 129.302329 
L 175.140748 129.836898 
L 175.874726 130.366471 
L 176.165042 130.92602 
L 176.427071 131.747858 
L 176.513422 132.662121 
L 176.272236 133.508939 
L 175.651406 134.505635 
L 175.481683 134.907811 
L 175.396822 135.397416 
L 175.128838 135.916997 
L 174.703041 137.031099 
L 174.375505 137.490729 
L 174.101565 136.873726 
L 173.461381 136.768811 
L 172.719959 137.026103 
L 172.127417 137.490729 
L 174.476743 138.624815 
L 174.652422 139.301769 
L 174.783436 140.021189 
L 175.124371 140.463333 
L 174.994846 140.658176 
L 174.756638 141.107813 
L 174.625623 141.302656 
L 175.221143 141.607411 
L 176.727809 141.699836 
L 177.394791 142.136984 
L 176.98686 143.243592 
L 176.525332 143.273568 
L 176.028073 142.838918 
L 175.50997 142.561642 
L 175.36109 142.419256 
L 174.905518 141.81974 
L 174.762593 141.684848 
L 174.414214 141.75729 
L 173.775518 142.06704 
L 173.512001 142.136984 
L 171.377061 143.815631 
L 171.272845 144.485091 
L 171.522964 145.004672 
L 172.377535 145.911441 
L 173.095137 146.990572 
L 173.577508 147.417727 
L 174.60478 147.66253 
L 174.98889 147.977276 
L 175.26283 148.04722 
L 175.706492 148.267043 
L 175.706492 148.756648 
L 175.517414 149.261241 
L 175.396822 149.516036 
L 175.356624 150.869945 
L 175.417665 151.711766 
L 175.624608 152.618535 
L 176.001274 153.268012 
L 176.010207 153.285498 
L 176.438982 153.812573 
L 176.656347 154.484531 
L 176.397295 155.593637 
L 176.888599 156.320551 
L 178.143658 158.980907 
L 178.081128 159.21322 
L 178.058796 159.250689 
L 178.023065 159.248191 
L 177.898006 159.363099 
L 178.067729 160.367289 
L 178.018599 161.858587 
L 177.813144 163.319909 
L 177.519851 164.241666 
L 177.366504 165.228371 
L 177.847387 166.177606 
L 179.380851 167.951176 
L 179.492511 168.410806 
L 179.019072 168.620637 
L 178.822551 168.887921 
L 178.456306 170.039493 
L 178.268717 170.299284 
L 177.866741 170.728937 
L 176.623593 173.654079 
L 176.897532 174.111211 
L 175.329826 175.632485 
L 174.899562 176.204524 
L 174.494609 177.093807 
L 173.625149 180.016451 
L 173.845492 181.380352 
L 173.729365 181.662624 
L 173.092159 183.183898 
L 171.377061 186.303883 
L 171.185006 187.450459 
L 171.225204 188.369718 
L 171.604848 190.113312 
L 171.70162 191.057551 
L 171.604848 193.677939 
L 171.123965 194.749575 
L 168.902675 198.511543 
L 168.241648 199.335879 
L 167.629751 199.688095 
L 167.062519 200.504936 
L 166.222835 202.078668 
L 165.880411 203.030401 
L 165.85659 204.151997 
L 165.923586 205.221135 
L 165.859568 206.042972 
L 165.606472 205.578347 
L 165.316156 205.286082 
L 164.984154 205.158685 
L 162.861125 205.33854 
L 162.100348 205.086244 
L 162.316224 203.982133 
L 161.984221 204.109531 
L 161.667107 204.289386 
L 161.372324 204.526695 
L 161.089452 204.821457 
L 161.089452 205.203649 
L 161.640308 205.415978 
L 162.149478 205.893093 
L 162.566342 206.570047 
L 162.840281 207.376897 
L 162.608029 208.01888 
L 163.751427 208.283666 
L 164.087896 208.785761 
L 164.284417 209.430242 
L 164.734035 208.888179 
L 165.60945 207.376897 
L 165.60945 207.759089 
L 164.994575 209.040556 
L 165.725576 210.451918 
L 167.607419 212.405344 
L 166.557815 215.078189 
L 166.088843 215.757642 
L 165.722598 216.137336 
L 165.459081 216.247247 
L 165.110702 216.177304 
L 164.638752 215.800108 
L 164.717658 215.482863 
L 164.985642 215.198093 
L 165.316156 214.443701 
L 165.267026 214.173918 
L 164.838251 214.121461 
L 164.617909 214.238866 
L 164.299305 214.713483 
L 163.855643 215.110663 
L 163.790136 215.230567 
L 163.682942 215.290518 
L 162.091415 215.303008 
L 162.091415 214.923314 
L 162.840281 214.923314 
L 162.340045 214.468681 
L 161.964867 214.481171 
L 161.339571 214.923314 
L 159.590231 215.303008 
L 158.043367 216.247247 
L 157.406161 216.162316 
L 156.456306 215.110663 
L 155.786346 214.738463 
L 153.073753 213.889148 
L 150.486218 214.293822 
L 149.780527 214.121461 
L 149.780527 213.659333 
L 150.33436 213.409535 
L 150.862884 212.869969 
L 151.233596 212.10059 
L 151.300592 211.146359 
L 150.862884 211.785843 
L 150.242055 212.427826 
L 149.521475 212.742572 
L 148.803874 212.405344 
L 148.553755 212.787536 
L 148.593953 213.279639 
L 148.64755 213.47698 
L 148.652016 213.669325 
L 148.553755 214.121461 
L 148.949776 213.829196 
L 149.077813 213.659333 
L 149.304111 213.659333 
L 149.185007 214.558608 
L 149.071858 214.913322 
L 148.803874 215.303008 
L 149.053992 215.327988 
L 149.304111 215.303008 
L 149.304111 215.757642 
L 149.182029 215.782622 
L 148.925955 215.752646 
L 148.803874 215.757642 
L 149.077813 216.177304 
L 146.432215 217.853452 
L 146.061504 218.250632 
L 145.646129 219.02251 
L 145.150358 219.534597 
L 144.533995 219.149907 
L 144.870464 218.395516 
L 145.305194 217.990842 
L 145.769699 217.681091 
L 146.182097 217.22396 
L 146.189541 216.616949 
L 145.556801 214.121461 
L 145.34688 213.699301 
L 144.983613 213.124764 
L 144.557816 212.622669 
L 144.172217 212.405344 
L 143.759819 212.00067 
L 143.22534 210.082216 
L 142.762323 209.43274 
L 142.868028 210.149662 
L 142.9648 210.809131 
L 143.010953 211.123877 
L 143.036262 211.738382 
L 143.149411 212.030646 
L 143.658581 213.05482 
L 143.78364 213.659333 
L 143.314668 215.178109 
L 143.399529 215.77263 
L 144.307697 215.757642 
L 144.307697 216.177304 
L 143.727065 216.671905 
L 142.671506 218.180689 
L 142.037277 218.692776 
L 141.222904 218.887619 
L 139.571824 218.940077 
L 138.787227 219.149907 
L 139.004591 218.460463 
L 140.037819 217.014129 
L 139.230889 216.641929 
L 138.775316 216.566989 
L 138.267635 216.631937 
L 138.267635 217.014129 
L 138.477556 217.193984 
L 138.580283 217.381333 
L 138.65919 217.591164 
L 138.787227 217.853452 
L 138.406094 217.786007 
L 137.935633 217.501236 
L 137.642339 217.433791 
L 137.191233 217.591164 
L 136.945581 217.950874 
L 136.775858 218.370536 
L 136.539138 218.692776 
L 135.811115 219.037498 
L 135.130734 219.037498 
L 133.747638 218.692776 
L 126.733901 219.472148 
L 124.214851 220.88351 
L 122.857065 221.208248 
L 122.681387 221.360625 
L 122.544417 221.67787 
L 122.349384 221.97513 
L 121.98314 222.047572 
L 121.728555 221.810263 
L 121.57372 221.378111 
L 121.466526 220.97094 
L 121.348911 220.788587 
L 120.714682 220.985928 
L 120.017923 221.525493 
L 119.57575 222.33484 
L 119.712719 223.339031 
L 120.070031 222.876903 
L 120.634287 222.786976 
L 121.302758 222.976823 
L 122.39256 223.48891 
L 122.660544 223.548862 
L 122.720096 223.81115 
L 122.505708 224.560546 
L 121.348911 225.437339 
L 121.210452 227.303335 
L 121.082416 227.730491 
L 120.777212 227.857888 
L 120.410967 227.927832 
L 120.10874 228.180129 
L 119.417937 228.614778 
L 117.476542 228.392457 
L 116.714276 228.792135 
L 116.409072 229.648945 
L 116.418005 230.280935 
L 116.202129 230.590686 
L 112.322316 230.046125 
L 112.209167 229.79133 
L 112.149615 229.229283 
L 111.987336 228.667236 
L 111.57196 228.407445 
L 111.500498 228.592296 
L 111.455834 228.7122 
L 111.414148 230.173522 
L 111.321842 230.695601 
L 110.839471 231.514941 
L 110.312435 232.154425 
L 109.693095 232.549107 
L 108.923385 232.601565 
L 110.005743 233.643225 
L 110.446427 233.818084 
L 110.048918 234.437585 
L 109.218167 234.812283 
L 107.698102 235.157005 
L 105.779039 236.041292 
L 105.234138 236.790688 
L 105.92643 237.630012 
L 105.324955 237.997216 
L 102.561742 238.59923 
L 101.168225 239.173767 
L 98.863563 239.408578 
L 97.854156 239.308658 
L 97.435803 239.338634 
L 97.069558 239.298666 
L 96.910257 239.078844 
L 97.00554 238.641696 
L 97.252681 238.32695 
L 97.574262 238.114621 
L 97.909242 238.012203 
L 97.827358 237.789883 
L 97.659123 237.21035 
L 98.187647 237.105434 
L 98.699795 236.88811 
L 99.191099 236.520906 
L 99.660071 235.956361 
L 99.432284 235.823967 
L 99.241718 235.674088 
L 99.012443 235.556683 
L 98.658108 235.536699 
L 98.932047 234.737343 
L 99.107726 234.487545 
L 99.409952 234.277714 
L 99.232785 233.748141 
L 98.988622 233.608253 
L 98.704261 233.808092 
L 98.387146 234.277714 
L 97.909242 233.93549 
L 97.16633 233.763128 
L 95.662642 233.818084 
L 95.662642 233.440888 
L 95.349994 233.123644 
L 94.721721 233.276021 
L 94.045805 233.608253 
L 93.366912 233.818084 
L 91.863224 233.728157 
L 91.118824 233.830574 
L 90.368469 234.277714 
L 91.586308 234.752331 
L 93.119772 234.984644 
L 94.030917 235.701566 
L 93.366912 237.630012 
L 94.739586 237.49512 
L 95.162405 237.630012 
L 95.162405 238.012203 
L 94.912287 238.012203 
L 94.912287 238.469335 
L 95.236845 238.754105 
L 95.390192 238.851527 
L 94.863157 238.98392 
L 94.62346 239.121309 
L 94.388229 239.308658 
L 95.662642 239.308658 
L 95.028413 240.332833 
L 94.912287 240.562648 
L 94.962906 240.902374 
L 95.114764 241.202132 
L 95.198137 241.55185 
L 95.037346 242.031464 
L 93.828441 243.440328 
L 93.429442 244.089805 
L 92.446834 244.651852 
L 91.075649 245.004068 
L 90.621565 245.356284 
L 90.142171 246.053222 
L 89.914385 245.363778 
L 89.400749 244.849193 
L 88.811184 244.606888 
L 88.370499 244.756767 
L 88.909445 245.198911 
L 89.094056 245.910837 
L 88.918378 246.582795 
L 88.370499 246.930015 
L 88.10847 245.686018 
L 87.328339 245.233882 
L 85.645995 245.213899 
L 85.645995 245.59609 
L 86.015217 245.828403 
L 86.759618 245.910837 
L 87.143728 246.053222 
L 87.484663 245.653544 
L 87.706494 245.583601 
L 87.87324 246.053222 
L 87.797311 246.405438 
L 87.545704 246.682715 
L 87.239011 246.86257 
L 87.009736 246.930015 
L 86.448458 248.383843 
L 86.350198 248.773529 
L 86.385929 249.447986 
L 86.555652 250.374739 
L 86.622648 251.081669 
L 86.158142 250.644521 
L 85.635573 249.410516 
L 85.124915 248.98336 
L 84.52344 248.925906 
L 82.727947 249.445488 
L 78.35683 248.98336 
L 78.882376 249.582877 
L 79.494273 249.820186 
L 80.831215 249.822684 
L 80.831215 250.279815 
L 80.59003 250.454674 
L 80.357777 250.699477 
L 81.105155 251.081669 
L 80.704667 251.456367 
L 80.473903 251.913498 
L 80.436683 252.473047 
L 80.606407 253.177479 
L 79.221823 252.985135 
L 78.900242 253.239929 
L 78.633746 253.007616 
L 78.377673 252.602943 
L 78.08289 252.340654 
L 76.734038 252.340654 
L 76.346949 252.238237 
L 76.067055 252.073369 
L 75.831825 252.040896 
L 75.586173 252.340654 
L 74.835817 251.993434 
L 74.317715 252.697866 
L 73.933604 253.757012 
L 73.586714 254.471436 
L 72.294436 254.92607 
L 72.088981 255.060961 
L 71.934146 255.712936 
L 71.609587 255.565555 
L 71.298428 255.115917 
L 71.201656 254.85113 
L 70.954515 254.726231 
L 70.225003 254.15669 
L 69.814095 254.016803 
L 69.386809 254.066763 
L 68.841908 254.393999 
L 66.823095 254.85113 
L 66.354123 254.678769 
L 65.532305 254.146698 
L 65.070777 254.016803 
L 65.070777 254.471436 
L 65.233057 254.561364 
L 65.547193 254.85113 
L 65.255389 255.555563 
L 64.799816 256.085136 
L 64.245982 256.417368 
L 63.686193 256.529777 
L 62.736339 256.274983 
L 62.444534 256.372404 
L 62.551728 256.986909 
L 62.551728 257.369101 
L 62.026181 257.391583 
L 61.774574 257.778771 
L 61.595918 258.283364 
L 61.301135 258.663058 
L 60.900648 258.713018 
L 60.570135 258.538159 
L 60.230688 258.425749 
L 59.801914 258.663058 
L 59.779582 258.243396 
L 59.702164 257.95363 
L 59.606881 257.698835 
L 59.532441 257.369101 
L 58.531967 258.036063 
L 58.448594 258.575628 
L 58.240162 258.663058 
L 57.952824 258.643074 
L 57.644642 258.875387 
L 57.220334 259.295048 
L 56.711165 259.477401 
L 55.533524 259.502381 
L 55.953365 259.197627 
L 56.291323 258.875387 
L 56.56824 258.443235 
L 56.804959 257.826232 
L 56.274946 258.215918 
L 55.844683 258.418255 
L 55.700269 258.21342 
L 56.032272 257.369101 
L 56.423826 256.829536 
L 57.327528 256.185055 
L 57.783101 255.730422 
L 57.674418 255.590534 
L 57.629754 255.548069 
L 57.595512 255.480623 
L 57.507673 255.270792 
L 57.202469 255.59553 
L 56.032272 256.342428 
L 55.889347 256.694644 
L 55.545434 257.1218 
L 54.786146 257.826232 
L 54.345461 257.199238 
L 54.393103 256.612211 
L 54.638755 255.935257 
L 54.786146 255.060961 
L 54.530072 254.678769 
L 53.93753 254.349035 
L 53.270548 254.229132 
L 52.785199 254.471436 
L 53.097847 255.203346 
L 52.052709 255.730422 
L 49.45773 256.329938 
L 49.314806 256.579737 
L 49.262698 257.179254 
L 49.134661 257.384089 
L 48.491499 257.331631 
L 48.241381 257.369101 
L 47.537178 258.073533 
L 47.121803 258.260882 
L 46.496507 258.245894 
L 46.451843 257.633887 
L 46.005203 256.949439 
L 45.490078 256.644685 
L 45.242937 257.179254 
L 43.247945 259.085218 
L 43.481687 259.357498 
L 43.581436 259.444928 
L 43.748182 259.502381 
L 41.248487 260.761366 
L 41.354191 260.07442 
L 41.025167 260.201818 
L 39.975562 261.216 
L 39.728422 260.761366 
L 39.478303 261.216 
L 39.525945 260.431632 
L 39.595918 260.146862 
L 39.728422 259.882075 
L 39.728422 259.502381 
L 39.406841 259.39247 
L 39.254983 259.250085 
L 38.978066 258.663058 
L 39.779041 258.403267 
L 40.444535 257.90367 
L 41.748723 256.529777 
L 42.411239 256.05516 
L 43.694585 255.690454 
L 44.49556 255.270792 
L 45.143188 254.716239 
L 46.743648 252.797786 
L 47.434451 252.235739 
L 48.752039 251.603748 
L 49.515794 251.081669 
L 47.827494 250.901814 
L 40.766115 254.661283 
L 38.479318 254.85113 
L 40.024693 253.786988 
L 40.362651 253.632113 
L 40.716985 253.372322 
L 40.976036 252.797786 
L 41.303572 252.220751 
L 42.735798 251.68868 
L 47.243885 249.140733 
L 47.735189 248.336382 
L 48.930695 248.174013 
L 50.28997 247.427115 
L 51.637334 247.094882 
L 52.70927 246.587791 
L 52.785199 245.59609 
L 52.959388 245.29883 
L 53.11869 244.936622 
L 53.282458 244.756767 
L 53.282458 244.374575 
L 52.7584 244.094801 
L 52.189679 244.449515 
L 51.56736 244.711803 
L 50.726188 244.014865 
L 50.409074 244.037347 
L 50.263171 243.954913 
L 50.22744 243.715107 
L 50.297414 242.940731 
L 50.263171 242.700924 
L 50.033896 242.441134 
L 49.721248 242.171351 
L 49.360958 241.951528 
L 48.991736 241.821633 
L 49.149549 242.615993 
L 49.09893 243.183035 
L 49.12275 243.707613 
L 49.515794 244.374575 
L 48.777349 244.57941 
L 48.28009 244.954108 
L 47.267705 246.053222 
L 46.55457 246.522843 
L 45.777417 246.782634 
L 43.383426 247.049919 
L 42.122412 247.604472 
L 37.505643 248.293916 
L 35.997489 249.005842 
L 35.458543 249.445488 
L 35.393036 249.612853 
L 35.384103 249.837672 
L 35.354327 250.069984 
L 35.229268 250.279815 
L 35.026791 250.43469 
L 32.726595 251.219058 
L 31.846714 251.958462 
L 31.426872 251.888518 
L 30.707782 251.573772 
L 30.337071 251.501331 
L 28.651749 251.726149 
L 27.826953 252.118333 
L 27.189747 252.797786 
L 26.942606 252.340654 
L 27.219523 252.123329 
L 27.293963 251.786101 
L 27.313317 251.411403 
L 27.439865 251.081669 
L 27.65723 250.909308 
L 30.153948 250.184892 
L 30.712248 249.822684 
L 30.712248 249.552901 
L 30.667584 249.492949 
L 30.578256 249.505439 
L 30.46213 249.445488 
L 30.608032 248.683602 
L 30.314738 248.241458 
L 29.77877 248.066599 
L 29.211538 248.106567 
L 29.676043 247.347179 
L 30.471063 247.177316 
L 31.958374 247.307211 
L 32.762326 246.952497 
L 34.478912 245.213899 
L 34.478912 244.756767 
L 32.98118 244.756767 
L 33.606476 243.647661 
L 34.752852 242.71841 
L 36.013865 242.071432 
L 36.978608 241.821633 
L 36.86397 242.103905 
L 36.667449 242.735896 
L 36.476882 243.07812 
L 37.125999 242.940731 
L 37.733429 242.620989 
L 38.150294 242.006484 
L 38.227711 240.982309 
L 38.707105 241.324534 
L 39.347289 241.441939 
L 40.74825 241.399473 
L 40.74825 240.982309 
L 40.460911 240.927354 
L 39.728422 240.562648 
L 39.728422 240.185452 
L 40.222703 239.848224 
L 41.15767 238.716636 
L 41.882715 238.294476 
L 42.307023 237.472638 
L 42.499079 237.21035 
L 42.784928 237.130414 
L 43.748182 237.21035 
L 44.936244 236.82566 
L 47.077139 235.566675 
L 48.241381 235.157005 
L 48.241381 234.697375 
L 45.591317 235.059583 
L 41.75319 236.580857 
L 41.053454 237.025499 
L 40.74825 237.420181 
L 40.520463 237.819859 
L 39.314535 237.81736 
L 38.751769 238.012203 
L 38.978066 238.469335 
L 37.882309 239.203743 
L 37.478845 239.308658 
L 37.557751 239.016394 
L 37.658989 238.319456 
L 37.728963 238.012203 
L 37.210861 238.012203 
L 36.907145 238.2645 
L 36.701691 238.59923 
L 36.476882 238.851527 
L 36.039175 239.016394 
L 35.157805 239.158779 
L 34.732008 239.308658 
L 33.133037 240.635089 
L 32.287399 241.022277 
L 31.459626 240.562648 
L 30.725647 241.386983 
L 29.807058 242.171351 
L 28.831894 242.778362 
L 27.938614 243.07812 
L 28.153001 242.268772 
L 24.69154 240.562648 
L 26.089524 240.103018 
L 26.421526 238.626708 
L 25.794741 237.065467 
L 24.316363 236.333557 
L 23.896521 236.665789 
L 22.976443 238.134605 
L 22.559579 238.469335 
L 22.115916 238.704146 
L 20.981451 239.823244 
L 20.421662 240.185452 
L 20.219185 239.398586 
L 20.653914 237.60753 
L 20.421662 236.790688 
L 19.885694 236.665789 
L 19.147249 236.73823 
L 18.670833 236.630817 
L 18.925418 235.956361 
L 18.906063 235.661598 
L 18.819713 235.576667 
L 18.727407 235.571671 
L 18.675299 235.536699 
L 18.751228 235.306884 
L 18.827157 235.157005 
L 18.894153 234.992138 
L 18.925418 234.697375 
L 18.800358 234.677392 
L 18.548751 234.707367 
L 18.425181 234.697375 
L 18.425181 234.277714 
L 19.631109 234.112847 
L 22.66975 232.983757 
L 23.306956 232.983757 
L 23.601739 232.79391 
L 23.720843 232.374248 
L 23.695533 231.954586 
L 23.568985 231.762241 
L 23.050883 231.435005 
L 22.735257 230.750557 
L 22.363057 230.143546 
L 21.672254 230.046125 
L 21.672254 229.666431 
L 22.095073 229.38166 
L 23.000263 229.04693 
L 23.443926 228.792135 
L 23.159565 227.895358 
L 23.920342 227.490684 
L 24.947614 227.253376 
L 25.882581 226.583915 
L 28.211064 225.437339 
L 31.682946 224.665462 
L 33.168768 223.756195 
L 33.959321 221.667878 
L 34.231772 221.667878 
L 34.227305 222.76949 
L 34.571218 223.249103 
L 35.083365 223.361513 
L 35.594024 223.339031 
L 35.476409 222.771988 
L 36.250585 219.149907 
L 37.382073 219.849344 
L 38.528449 219.909295 
L 41.248487 219.532099 
L 40.989435 219.294791 
L 40.675299 218.875129 
L 40.475799 218.692776 
L 41.748723 217.853452 
L 34.478912 218.273114 
L 34.958306 219.532099 
L 34.727542 220.236532 
L 34.559308 220.508812 
L 34.341943 219.517111 
L 33.98612 219.104944 
L 33.503748 218.845153 
L 32.98118 218.692776 
L 31.873512 218.615338 
L 26.957494 219.899303 
L 26.085057 220.468844 
L 25.687548 220.10164 
L 25.325769 219.509618 
L 24.941659 219.149907 
L 24.562015 219.304783 
L 24.316363 219.674485 
L 24.043912 219.834356 
L 23.104479 218.850149 
L 22.695059 218.815177 
L 21.672254 219.149907 
L 21.672254 219.532099 
L 22.034032 219.529601 
L 22.342214 219.622027 
L 22.945178 219.949263 
L 22.945178 220.328957 
L 22.017655 220.16409 
L 20.281714 219.534597 
L 19.424166 219.532099 
L 19.456919 219.944267 
L 19.568579 220.134114 
L 19.945246 220.328957 
L 19.153204 220.356435 
L 17.70609 221.068361 
L 16.925959 221.208248 
L 16.041612 220.863526 
L 15.794471 220.119126 
L 15.728964 219.082462 
L 15.404405 217.853452 
L 15.723008 217.666103 
L 16.401901 217.014129 
L 16.401901 216.631937 
L 16.022257 216.137336 
L 16.446565 215.590277 
L 17.232652 215.133145 
L 17.924944 214.923314 
L 17.655471 215.757642 
L 18.462401 216.457078 
L 18.920951 216.631937 
L 19.287196 216.407118 
L 19.389923 215.912517 
L 19.264864 215.485361 
L 19.246998 215.043218 
L 19.674284 214.498657 
L 19.305062 214.198898 
L 19.150226 214.121461 
L 19.488184 213.177222 
L 19.921425 212.929921 
L 20.469303 212.952403 
L 21.172017 212.787536 
L 21.594836 212.337898 
L 22.400277 211.003973 
L 22.809697 210.726697 
L 26.612093 209.580121 
L 27.189747 210.082216 
L 26.746085 212.412838 
L 26.817547 212.787536 
L 29.211538 212.405344 
L 30.286451 211.760863 
L 31.257149 210.656753 
L 31.581707 209.362796 
L 30.712248 208.178751 
L 31.994105 208.148775 
L 32.405014 208.381088 
L 32.230824 209.013078 
L 32.403525 209.907357 
L 32.431812 210.866584 
L 32.579203 211.633466 
L 33.106239 211.948212 
L 33.70027 212.060622 
L 34.821336 212.600187 
L 36.058529 212.879961 
L 37.575617 212.904941 
L 38.093719 212.595191 
L 38.855985 211.576012 
L 39.281782 211.333708 
L 39.728422 211.528551 
L 39.478303 211.720896 
L 39.249028 211.948212 
L 39.850503 212.32291 
L 42.499079 211.948212 
L 41.922913 211.33121 
L 41.401833 211.166343 
L 40.248013 211.146359 
L 39.055484 210.44942 
L 38.506117 210.307035 
L 37.953772 210.726697 
L 37.679833 210.419445 
L 37.477356 210.044747 
L 37.33592 209.580121 
L 37.251058 209.013078 
L 37.694721 209.460218 
L 38.037145 209.707518 
L 38.416789 209.707518 
L 38.978066 209.43274 
L 38.506117 209.145472 
L 38.26642 209.053046 
L 37.953772 209.013078 
L 37.953772 208.558445 
L 38.318528 208.545955 
L 39.249028 208.178751 
L 38.841097 207.14958 
L 38.957223 204.151997 
L 38.35277 203.525002 
L 36.423285 203.150304 
L 35.397502 202.640715 
L 34.732008 201.888821 
L 35.279887 201.309288 
L 35.978134 201.059489 
L 38.448054 200.887128 
L 42.086681 199.14853 
L 42.575008 198.72637 
L 43.122886 197.889544 
L 43.748182 197.502356 
L 44.703992 197.527336 
L 45.656824 197.784629 
L 46.268721 198.114363 
L 46.116863 197.282534 
L 45.688089 196.870366 
L 45.107457 196.750463 
L 44.49556 196.822904 
L 44.706969 196.510656 
L 44.784387 196.19591 
L 44.714413 195.873669 
L 44.49556 195.563919 
L 44.49556 195.144257 
L 44.794808 194.772057 
L 44.857338 194.412347 
L 44.76801 193.677939 
L 44.903491 193.24329 
L 45.768484 192.171653 
L 45.969472 192.359002 
L 46.201725 192.186641 
L 46.492041 191.901871 
L 46.880617 191.751992 
L 48.37835 192.171653 
L 51.287466 192.171653 
L 51.574804 192.306545 
L 51.914251 192.576327 
L 52.280495 192.69623 
L 52.648229 192.401468 
L 52.916213 191.999292 
L 53.151444 191.811943 
L 53.449204 191.756988 
L 56.224327 191.861903 
L 56.364274 191.866899 
L 56.667989 191.961822 
L 57.20098 191.702032 
L 59.532441 191.751992 
L 60.83663 191.482209 
L 61.429172 191.237406 
L 61.926431 190.702837 
L 62.450489 190.323143 
L 66.904979 188.869315 
L 67.571962 188.399694 
L 67.872699 189.07415 
L 68.539682 189.226527 
L 69.284082 189.07415 
L 69.814095 188.819355 
L 70.028482 188.469637 
L 70.257757 187.905092 
L 70.549562 187.375519 
L 70.954515 187.143206 
L 77.356356 186.303883 
L 78.593549 185.874229 
L 77.928055 185.861739 
L 75.545975 184.880031 
L 74.337069 184.625236 
L 71.952012 185.007428 
L 71.329693 184.895019 
L 70.921762 184.602754 
L 70.877098 184.213068 
L 71.341603 183.788411 
L 71.341603 183.368749 
L 71.189746 182.839176 
L 71.243343 182.107266 
L 71.154015 181.470279 
L 70.591248 181.237966 
L 70.900919 180.743365 
L 71.307361 179.946507 
L 71.588744 179.596789 
L 70.626979 179.866572 
L 69.480603 180.503558 
L 68.626032 181.3204 
L 68.545637 182.109764 
L 67.359063 184.412907 
L 64.117945 188.894295 
L 63.424164 189.273989 
L 60.16667 189.653683 
L 59.979081 189.826044 
L 59.398449 190.647882 
L 59.032204 190.917664 
L 58.582586 190.982612 
L 58.121058 190.927656 
L 57.680374 190.755295 
L 57.302218 190.493006 
L 57.885828 189.958437 
L 58.686802 189.413876 
L 59.292744 188.774392 
L 59.282322 187.940064 
L 58.124036 188.679468 
L 55.45164 189.548768 
L 53.592128 189.616213 
L 52.798598 189.466334 
L 52.092907 189.151588 
L 51.787703 188.609525 
L 51.534607 188.259806 
L 50.284015 188.079951 
L 49.788244 187.562868 
L 49.977322 186.611135 
L 49.578323 186.261417 
L 48.241381 186.303883 
L 48.241381 186.723545 
L 48.583805 186.845946 
L 48.87561 187.095745 
L 49.109351 187.465447 
L 49.262698 187.940064 
L 46.496507 189.273989 
L 44.875204 189.638695 
L 44.081673 190.008397 
L 43.748182 190.702837 
L 43.6261 191.567141 
L 43.346206 191.66706 
L 43.012715 191.442241 
L 42.749197 191.33233 
L 41.774033 192.074232 
L 35.229268 193.010977 
L 35.229268 192.628785 
L 35.893273 192.311541 
L 37.450557 191.162467 
L 39.336867 190.65038 
L 46.743648 183.368749 
L 46.648365 183.141432 
L 46.496507 182.529425 
L 46.894017 182.334583 
L 47.419563 181.897435 
L 47.767942 181.695098 
L 48.241381 181.552713 
L 49.387757 181.695098 
L 49.797177 181.620158 
L 50.480536 181.310408 
L 50.888467 181.237966 
L 51.244291 180.990666 
L 51.391682 180.406137 
L 51.512275 179.711697 
L 51.787703 179.139658 
L 51.591181 178.884863 
L 51.585226 178.852389 
L 51.681998 178.76496 
L 51.787703 178.337804 
L 51.513763 177.880673 
L 51.903829 177.655854 
L 52.29985 177.266168 
L 52.678005 176.764073 
L 53.011496 176.204524 
L 53.225884 175.659963 
L 53.339032 175.180349 
L 53.481957 174.793161 
L 53.785672 174.530873 
L 53.785672 174.111211 
L 53.848202 173.301863 
L 56.123089 171.068663 
L 56.533997 169.879622 
L 55.846172 169.654803 
L 52.972788 169.809678 
L 52.012511 169.45996 
L 53.04425 168.40581 
L 53.47898 167.838767 
L 54.562826 165.980265 
L 54.906739 165.545615 
L 55.307226 165.268339 
L 55.033287 164.848677 
L 56.98957 161.071721 
L 57.783101 160.202422 
L 58.390531 159.173252 
L 58.890768 157.864307 
L 59.529463 156.792671 
L 60.302151 156.47043 
L 61.167143 156.985016 
L 62.88373 158.628691 
L 63.686193 158.980907 
L 64.382952 158.711124 
L 65.136285 158.224017 
L 65.952147 157.999198 
L 66.823095 158.523775 
L 66.925822 157.542067 
L 66.403253 156.990012 
L 64.799816 156.47043 
L 64.799816 156.010801 
L 66.943688 155.593637 
L 67.515387 155.82595 
L 68.631987 156.762695 
L 69.340656 156.850124 
L 69.340656 156.47043 
L 67.819102 155.593637 
L 67.819102 155.13151 
L 68.663252 155.518698 
L 69.13669 155.601131 
L 69.558021 155.121518 
L 69.976374 154.931671 
L 70.262223 155.00661 
L 70.067191 155.593637 
L 70.431947 156.100728 
L 70.82499 156.477924 
L 71.279074 156.725225 
L 71.816531 156.850124 
L 71.493461 155.596135 
L 71.314805 155.13151 
L 71.067664 154.754314 
L 71.538125 153.825063 
L 72.11578 153.1581 
L 73.336596 152.236343 
L 72.950996 152.248833 
L 72.26466 152.543596 
L 71.952012 152.618535 
L 68.337205 152.498632 
L 67.819102 152.236343 
L 68.462264 151.829171 
L 70.123765 151.404514 
L 70.838389 151.35955 
L 70.838389 150.944884 
L 69.814095 150.944884 
L 69.814095 150.560194 
L 70.156519 150.250444 
L 71.103395 149.965674 
L 71.588744 149.725867 
L 71.588744 149.306205 
L 68.681118 148.886543 
L 67.944162 149.016439 
L 66.669749 149.590976 
L 54.801034 150.572684 
L 53.648703 151.149719 
L 53.102313 151.561887 
L 52.289428 151.784208 
L 50.766386 151.779212 
L 49.989232 151.404514 
L 49.56939 150.844965 
L 49.250787 150.24295 
L 48.765438 149.725867 
L 49.465174 148.661725 
L 49.198679 147.949798 
L 48.583805 147.964786 
L 48.241381 149.096374 
L 48.077613 150.422805 
L 47.651816 151.204675 
L 47.086072 151.299598 
L 46.496507 150.560194 
L 46.496507 150.105561 
L 47.202198 148.834086 
L 46.902949 146.061321 
L 47.630973 145.534245 
L 47.751566 145.589201 
L 48.113344 145.85149 
L 48.37835 145.911441 
L 48.524253 145.779048 
L 48.760972 145.207009 
L 48.87561 145.072118 
L 48.970893 144.849797 
L 47.494003 143.395969 
L 47.89449 142.93634 
L 49.262698 142.136984 
L 47.943621 142.074534 
L 47.295993 142.17945 
L 46.743648 142.561642 
L 47.22453 143.291054 
L 47.294504 144.3502 
L 46.969945 145.251973 
L 46.268721 145.534245 
L 45.615137 144.847299 
L 45.781883 143.700723 
L 46.154083 142.621593 
L 46.130262 142.136984 
L 45.920341 142.014582 
L 45.766995 141.789764 
L 45.609182 141.68235 
L 45.382885 141.912165 
L 44.882648 142.561642 
L 44.436008 142.76148 
L 44.141225 143.228604 
L 43.748182 144.200321 
L 42.86979 145.779048 
L 42.301068 146.49597 
L 40.569594 147.282836 
L 39.972585 147.282836 
L 39.363666 146.563416 
L 38.647553 145.948911 
L 37.05007 146.323609 
L 36.476882 145.911441 
L 36.637673 145.669137 
L 36.822284 144.889765 
L 36.898213 144.195325 
L 37.027738 143.745687 
L 37.280834 143.50588 
L 37.602415 143.415953 
L 38.093719 143.395969 
L 38.707105 143.211118 
L 40.198883 142.196936 
L 40.74825 141.684848 
L 40.74825 141.302656 
L 39.478303 141.302656 
L 39.478303 140.845525 
L 40.248013 140.463333 
L 40.248013 140.043671 
L 39.703112 140.043671 
L 39.29667 140.216032 
L 38.479318 140.845525 
L 38.50165 141.280174 
L 38.016302 141.594921 
L 37.45949 141.534969 
L 37.251058 140.845525 
L 37.44758 140.29347 
L 38.16667 139.781383 
L 38.479318 139.169376 
L 38.010346 139.244315 
L 37.727474 139.554066 
L 37.477356 139.886298 
L 37.117066 140.043671 
L 36.780597 139.916274 
L 36.473905 139.691455 
L 36.140413 139.646491 
L 35.729505 140.043671 
L 35.620822 140.643188 
L 35.726527 141.337628 
L 35.741415 141.902173 
L 35.343905 142.136984 
L 34.931508 142.206927 
L 34.312167 142.494196 
L 32.860587 142.516678 
L 32.382682 142.391778 
L 31.958374 142.136984 
L 31.584685 141.624897 
L 31.364343 141.077838 
L 31.096359 140.638192 
L 30.587189 140.463333 
L 29.113277 140.723124 
L 28.233396 140.635694 
L 27.713805 140.043671 
L 27.413067 140.323446 
L 27.118285 140.453341 
L 26.442369 140.463333 
L 26.768417 139.47413 
L 27.156993 138.807168 
L 27.695939 138.434968 
L 28.461182 138.330052 
L 29.857677 138.624815 
L 30.412999 138.549875 
L 30.962367 137.950358 
L 30.962367 137.490729 
L 30.538059 137.435773 
L 30.185213 137.203461 
L 29.912762 136.798787 
L 29.711774 136.23674 
L 30.509771 136.379125 
L 31.409007 136.786297 
L 32.147451 136.916192 
L 32.458611 136.23674 
L 31.735054 136.311679 
L 30.360891 136.036901 
L 28.974818 135.44238 
L 28.211064 134.558093 
L 28.175333 134.168407 
L 27.969878 133.438995 
L 27.663185 132.737061 
L 27.314806 132.424812 
L 26.250314 132.729567 
L 25.82154 132.767037 
L 25.464228 132.424812 
L 26.303911 131.6954 
L 27.156993 131.715384 
L 28.041341 131.990163 
L 28.961419 132.045118 
L 28.88549 131.77034 
L 28.764898 131.065908 
L 28.688969 130.786133 
L 30.314738 130.803619 
L 31.958374 131.240767 
L 32.168295 131.480573 
L 32.708729 132.424812 
L 33.057108 132.264941 
L 33.570744 131.493063 
L 33.959321 131.240767 
L 31.733565 129.751967 
L 31.188664 129.007567 
L 32.58367 128.690323 
L 35.434722 128.975093 
L 36.476882 128.690323 
L 37.733429 127.895963 
L 38.227711 127.850999 
L 38.611822 128.013368 
L 39.381531 128.567921 
L 41.130871 128.882668 
L 43.995323 129.072514 
L 43.995323 128.690323 
L 43.361094 128.35809 
L 40.812268 128.577913 
L 39.220741 127.968404 
L 36.250585 126.134882 
L 35.729505 123.392093 
L 35.946869 122.08065 
L 36.351823 121.073962 
L 36.576632 120.132221 
L 36.250585 119.010625 
L 36.598964 118.76832 
L 37.986526 118.516024 
L 38.978066 118.13633 
L 39.844548 118.031414 
L 40.237591 117.896523 
L 40.612769 117.506837 
L 40.824179 117.476861 
L 41.565601 117.958973 
L 41.973532 118.13633 
L 48.765438 116.912316 
L 48.765438 116.460181 
L 48.211605 116.357763 
L 46.743648 115.620857 
L 46.940169 115.49346 
L 47.092027 115.358569 
L 47.260261 115.248657 
L 47.494003 115.201195 
L 47.494003 114.781534 
L 47.33619 114.279438 
L 47.724767 113.724885 
L 48.991736 112.685723 
L 48.693976 112.660743 
L 48.015083 112.266061 
L 48.306888 112.011267 
L 48.530208 111.636569 
L 48.685043 111.154457 
L 48.765438 110.587414 
L 48.519786 110.637374 
L 48.363462 110.697326 
L 48.214582 110.807237 
L 48.015083 111.007076 
L 46.969945 110.61739 
L 41.748723 110.587414 
L 38.147316 112.615779 
L 36.165723 113.080405 
L 34.958306 111.811428 
L 35.410901 111.456714 
L 35.638688 109.745593 
L 36.250585 109.295955 
L 36.146369 108.728912 
L 36.134458 108.45913 
L 36.250585 108.03697 
L 36.250585 107.654778 
L 35.978134 107.654778 
L 35.978134 107.240112 
L 37.728963 106.777985 
L 38.050544 106.942852 
L 38.86194 107.527381 
L 39.363666 107.654778 
L 39.79244 107.984512 
L 39.939831 109.423353 
L 40.362651 109.753087 
L 40.675299 109.558244 
L 40.663388 109.056149 
L 40.600859 108.381692 
L 40.74825 107.654778 
L 40.404337 107.287574 
L 40.105088 106.830443 
L 39.75522 106.475729 
L 39.249028 106.395793 
L 39.249028 106.777985 
L 39.478303 107.240112 
L 39.058462 107.090233 
L 38.808343 106.643094 
L 38.381058 105.114326 
L 38.406367 104.817066 
L 38.40339 104.559773 
L 38.227711 104.262513 
L 37.992481 104.215051 
L 37.376117 104.28999 
L 37.251058 104.077662 
L 37.130465 103.690474 
L 36.86397 103.358241 
L 36.598964 102.85115 
L 36.476882 101.939385 
L 36.643628 101.022624 
L 37.045604 100.740352 
L 37.530953 100.587974 
L 37.953772 100.033421 
L 37.441625 99.811101 
L 37.434181 99.456387 
L 37.754273 99.081689 
L 38.227711 98.816902 
L 37.953772 98.39724 
L 38.978066 97.522945 
L 38.62671 97.223187 
L 38.202402 97.200705 
L 37.251058 97.522945 
L 37.343364 98.02504 
L 37.301677 98.252357 
L 37.108133 98.332293 
L 36.728489 98.39724 
L 36.728489 98.816902 
L 36.978608 98.816902 
L 35.923049 100.125847 
L 34.892799 100.340674 
L 33.97272 99.583784 
L 33.231298 97.980077 
L 33.941456 98.007554 
L 35.594024 97.522945 
L 36.250585 97.140753 
L 35.136962 96.323912 
L 34.690322 95.734387 
L 34.478912 95.004975 
L 34.71712 95.154854 
L 35.218846 95.327215 
L 35.458543 95.462106 
L 34.995526 94.740188 
L 33.731535 93.326328 
L 34.225816 93.666054 
L 34.65608 93.686038 
L 35.00297 93.423749 
L 35.229268 92.906666 
L 33.332536 91.322943 
L 32.501786 91.0032 
L 31.958374 91.652677 
L 32.480943 92.307149 
L 32.278466 92.824232 
L 31.663591 93.066537 
L 30.962367 92.906666 
L 31.288414 93.541155 
L 31.459626 93.745989 
L 31.459626 94.165651 
L 30.941523 94.090712 
L 30.493394 94.190631 
L 29.711774 94.625281 
L 29.711774 95.004975 
L 30.18819 95.18483 
L 30.369824 95.549536 
L 30.46213 96.721091 
L 30.149482 96.736079 
L 29.439324 97.140753 
L 29.920206 97.470487 
L 30.372802 98.042526 
L 30.453197 98.579593 
L 29.827901 98.816902 
L 29.14603 98.771938 
L 28.604107 98.519642 
L 28.269127 97.897643 
L 28.211064 96.721091 
L 28.428429 95.994177 
L 29.256202 94.248085 
L 29.439324 93.541155 
L 29.562894 92.437045 
L 29.872565 91.927455 
L 30.286451 91.532773 
L 30.712248 90.773386 
L 29.565872 90.748406 
L 29.101366 90.518591 
L 28.688969 89.976528 
L 29.385727 89.969034 
L 29.716241 89.406987 
L 29.917229 88.600137 
L 30.212011 87.880717 
L 30.613987 87.521007 
L 32.230824 86.58676 
L 32.379704 86.32697 
L 32.467543 86.012223 
L 32.62089 85.772417 
L 32.98118 85.747437 
L 33.195567 85.947276 
L 33.275962 86.311982 
L 33.326581 86.706664 
L 33.459084 87.001426 
L 33.932523 87.386116 
L 34.565263 87.710854 
L 35.211402 87.788292 
L 35.729505 87.426084 
L 35.997489 87.908195 
L 36.295249 88.170484 
L 36.621296 88.170484 
L 36.978608 87.880717 
L 37.039649 88.073062 
L 37.033693 88.170484 
L 37.072402 88.215447 
L 37.251058 88.260411 
L 36.438173 89.799171 
L 35.565737 90.486117 
L 34.65608 90.378704 
L 33.731535 89.519396 
L 33.499282 90.71843 
L 34.066515 91.083136 
L 34.932996 91.143088 
L 35.594024 91.445344 
L 36.196988 91.857512 
L 36.701691 91.415368 
L 37.185551 90.723426 
L 37.728963 90.39619 
L 37.230215 89.649292 
L 37.468423 88.660089 
L 38.059477 87.795786 
L 38.61331 87.426084 
L 39.40833 87.650902 
L 40.690187 88.582651 
L 41.498605 88.717543 
L 41.284218 88.190468 
L 40.998368 87.855737 
L 40.248013 87.426084 
L 40.248013 87.001426 
L 40.605325 86.859041 
L 40.949238 86.831563 
L 41.748723 87.001426 
L 41.065364 86.604246 
L 39.149278 86.182086 
L 38.751769 85.555092 
L 38.534404 84.673303 
L 38.608844 84.223665 
L 40.74825 83.651626 
L 41.523915 83.846469 
L 42.914454 84.71327 
L 43.623123 84.908113 
L 49.899904 85.362747 
L 50.306347 85.292803 
L 50.992683 84.983053 
L 51.400615 84.908113 
L 51.717729 85.015527 
L 52.222432 85.555092 
L 52.512748 85.747437 
L 55.420375 86.162102 
L 55.774709 86.067179 
L 56.221349 85.822376 
L 56.641191 85.487646 
L 56.916619 85.13543 
L 57.260532 84.865647 
L 57.707172 84.940587 
L 59.344852 85.707469 
L 59.667922 85.747437 
L 59.940372 86.007227 
L 60.238132 87.158799 
L 60.42721 87.426084 
L 61.077815 87.311176 
L 61.452993 87.181281 
L 61.527433 87.001426 
L 61.768619 87.486035 
L 61.825193 87.980637 
L 61.732887 88.417784 
L 61.527433 88.717543 
L 61.527433 89.137204 
L 62.322452 89.519396 
L 62.322452 89.976528 
L 61.619739 90.463635 
L 61.792439 91.033176 
L 63.562623 92.6169 
L 64.02564 93.318834 
L 64.321911 94.255579 
L 64.321911 95.462106 
L 64.549697 95.462106 
L 64.579473 94.353 
L 64.719421 93.411259 
L 64.773017 92.55445 
L 64.549697 91.652677 
L 65.371515 91.310453 
L 66.188866 90.493611 
L 66.818629 89.257108 
L 67.071725 87.6534 
L 67.613648 86.634222 
L 68.849352 86.486841 
L 71.067664 87.001426 
L 71.323738 86.918992 
L 71.523237 86.711659 
L 71.719759 86.604246 
L 72.1396 86.963956 
L 72.773829 87.346148 
L 73.360416 87.555979 
L 74.179256 88.130516 
L 74.736068 88.260411 
L 76.537516 88.260411 
L 77.332535 88.0256 
L 78.08289 87.426084 
L 79.095274 88.192965 
L 81.328475 87.750822 
L 82.355747 88.260411 
L 82.570134 88.837446 
L 82.677328 89.544376 
L 82.906603 90.141395 
L 83.93983 90.553563 
L 84.362649 90.958237 
L 85.124915 92.10731 
L 85.613241 91.72262 
L 86.178985 91.597721 
L 87.373003 91.652677 
L 87.373003 91.235513 
L 86.848946 90.968229 
L 86.187918 90.76839 
L 85.616219 90.426165 
L 85.375033 89.744215 
L 85.144269 89.272096 
L 84.588947 88.914884 
L 83.918987 88.717543 
L 83.35622 88.717543 
L 83.35622 88.260411 
L 83.603361 87.965649 
L 84.027669 87.236237 
L 84.353717 87.001426 
L 85.160646 87.391112 
L 85.653439 87.511015 
L 85.872293 87.211257 
L 86.292134 86.948968 
L 88.870736 87.426084 
L 88.297548 86.68668 
L 87.632054 86.162102 
L 86.929341 85.852352 
L 86.23556 85.747437 
L 85.49116 85.802392 
L 85.229131 85.637525 
L 85.124915 85.13543 
L 85.324414 84.505937 
L 85.778498 84.670805 
L 86.622648 85.362747 
L 87.355138 84.923101 
L 87.082687 84.348564 
L 86.301067 83.861457 
L 85.510514 83.651626 
L 81.879331 83.654124 
L 81.679832 83.459281 
L 81.626235 82.812303 
L 81.787025 82.350175 
L 82.156248 81.945501 
L 82.596932 81.665727 
L 83.65398 81.355976 
L 87.908971 78.408352 
L 88.510446 78.203518 
L 88.730789 78.008675 
L 88.835005 77.524065 
L 88.870736 76.300052 
L 89.001751 75.245901 
L 89.27569 75.438246 
L 89.543674 76.105209 
L 89.644912 76.487401 
L 89.790815 76.539858 
L 89.841434 76.569834 
L 89.868232 76.944532 
L 90.932724 76.195136 
L 92.021037 75.660567 
L 92.113343 75.640583 
L 95.096898 75.063549 
L 95.564381 74.973621 
L 97.219927 73.849527 
L 98.387146 73.592234 
L 98.387146 73.132605 
L 97.176752 73.085143 
L 96.639295 72.837843 
L 96.162879 72.25831 
L 98.160849 70.61963 
L 98.070032 69.428091 
L 99.765775 67.911813 
L 99.660071 66.388041 
L 100.053114 66.632844 
L 100.310676 66.907623 
L 100.587593 67.134939 
L 101.044655 67.227365 
L 101.464496 65.246462 
L 101.656552 64.71439 
L 101.544892 64.586993 
L 101.507672 64.569507 
L 101.482362 64.527041 
L 101.406433 64.332199 
L 100.706697 64.989169 
L 99.980163 65.353875 
L 97.481956 65.768541 
L 96.150969 66.835181 
L 95.390192 67.227365 
L 95.390192 66.847671 
L 95.769836 66.310604 
L 95.820455 65.753553 
L 95.567359 65.313907 
L 95.037346 65.129056 
L 94.487979 65.396341 
L 93.551524 66.580386 
L 92.619535 67.042514 
L 90.910392 68.901016 
L 90.419088 69.308188 
L 89.903963 69.61544 
L 89.370973 69.742837 
L 89.370973 69.365641 
L 90.261275 68.321483 
L 90.816598 67.869347 
L 91.50889 67.686994 
L 92.000194 67.224867 
L 91.893 66.35307 
L 91.440405 65.8185 
L 90.892527 66.388041 
L 90.642408 66.388041 
L 90.758535 65.036631 
L 90.285096 65.036631 
L 89.674688 65.875954 
L 89.370973 67.037518 
L 89.190828 67.397228 
L 88.805229 67.089976 
L 88.450894 66.592876 
L 88.288615 66.163223 
L 88.324346 65.890942 
L 88.290104 65.651135 
L 87.998299 65.548718 
L 87.754136 65.606172 
L 87.370026 65.86846 
L 87.143728 65.96838 
L 86.256403 66.023335 
L 85.827629 66.183206 
L 85.440541 67.030024 
L 84.974546 66.902627 
L 84.23759 66.388041 
L 81.468422 66.378049 
L 80.831215 65.96838 
L 81.125998 65.373859 
L 80.780596 65.036631 
L 77.752377 63.897549 
L 77.106238 63.912537 
L 77.229808 63.680224 
L 77.305737 63.460401 
L 77.41293 63.25057 
L 77.606474 63.035744 
L 77.606474 62.65605 
L 77.133036 62.361287 
L 76.888873 61.926638 
L 76.970757 61.529458 
L 77.481415 61.357097 
L 78.015894 61.297145 
L 78.446158 61.07982 
L 78.730518 60.630183 
L 78.833246 59.893277 
L 79.248621 59.431149 
L 81.852532 57.587635 
L 82.78601 57.230423 
L 86.45888 57.325346 
L 88.379432 57.947345 
L 89.370973 57.969827 
L 89.370973 57.587635 
L 86.810237 56.965636 
L 86.122411 56.29118 
L 86.689644 56.026393 
L 88.334768 55.946458 
L 88.757587 56.103831 
L 89.217627 56.838239 
L 89.807191 57.557659 
L 90.46673 57.919867 
L 91.142645 57.587635 
L 89.199761 55.691663 
L 87.82411 55.219544 
L 86.503544 54.282799 
L 85.645995 54.197867 
L 85.794875 53.603347 
L 86.064348 53.458463 
L 86.426126 53.465957 
L 86.872766 53.358544 
L 87.230078 53.083765 
L 87.715427 52.439285 
L 88.123358 52.102057 
L 88.843938 52.806489 
L 89.646401 52.873934 
L 91.370432 52.559188 
L 93.408599 53.348552 
L 94.161932 53.358544 
L 94.161932 52.94138 
L 93.51877 52.843959 
L 92.708863 52.50673 
L 92.125253 51.859752 
L 92.143119 50.843071 
L 92.661221 50.315996 
L 94.099402 50.565795 
L 94.638348 50.42341 
L 94.155977 50.02623 
L 93.746556 48.932112 
L 93.255252 48.707293 
L 92.583804 48.652337 
L 92.393237 48.707293 
L 92.24138 48.984569 
L 92.181828 49.416721 
L 92.169917 49.816399 
L 92.143119 50.003748 
L 91.102447 49.95129 
L 90.249365 49.059509 
L 89.583871 47.800524 
L 89.120855 46.648952 
L 89.597271 46.314222 
L 89.94565 46.489081 
L 90.289563 46.841297 
L 90.767467 47.033642 
L 91.273659 46.963698 
L 91.759008 46.781345 
L 92.665688 46.196817 
L 91.58333 45.762167 
L 90.761512 44.975301 
L 89.370973 43.296654 
L 89.370973 42.839523 
L 89.682132 42.547258 
L 90.061776 42.412367 
L 90.475663 42.487307 
L 90.892527 42.839523 
L 91.270682 42.225018 
L 91.370432 42.000199 
L 91.142645 42.000199 
L 91.325768 41.133398 
L 91.616084 40.981021 
L 91.979351 41.025985 
L 92.393237 40.78368 
L 93.107861 39.299876 
L 93.366912 39.070061 
L 93.715292 39.429771 
L 93.818019 40.863615 
L 94.161932 41.160876 
L 94.370364 40.908579 
L 94.604105 39.781987 
L 94.912287 39.452253 
L 94.496912 37.646209 
L 94.353987 36.574573 
L 94.514777 36.094959 
L 94.942063 35.697779 
L 95.525673 33.79931 
L 95.88894 33.159825 
L 96.454684 33.127351 
L 98.521138 33.999148 
L 99.185143 33.869253 
L 100.310676 33.292218 
L 100.909174 33.159825 
L 100.679899 33.69939 
L 100.432758 34.099068 
L 100.239214 34.498746 
L 100.160307 35.068287 
L 100.352363 35.373041 
L 100.784115 35.023323 
L 101.875405 33.517037 
L 104.092229 32.153136 
L 104.803875 31.905836 
L 105.310067 31.426222 
L 105.646536 30.427028 
L 106.093176 29.532749 
L 106.926904 29.392861 
L 107.900579 30.107286 
L 107.590909 30.786738 
L 105.92643 31.905836 
L 105.92643 32.325498 
L 107.468827 31.523644 
L 107.698102 31.676021 
L 107.942266 31.975779 
L 108.493122 31.92582 
L 109.076731 31.688511 
L 109.423622 31.448704 
L 109.923859 32.325498 
L 109.923859 32.707689 
L 109.780934 33.41462 
L 110.086138 33.299712 
L 110.631039 32.890043 
L 111.196783 32.707689 
L 111.015149 33.307206 
L 110.729299 33.709382 
L 110.360077 33.934201 
L 109.923859 33.999148 
L 109.923859 34.416312 
L 110.595307 34.388834 
L 111.009194 34.513734 
L 111.330775 34.483758 
L 111.694042 33.999148 
L 112.125794 32.887545 
L 112.021578 32.220582 
L 111.196783 31.066512 
L 110.97644 29.822515 
L 111.557072 29.068123 
L 112.518837 28.368687 
L 113.443382 27.294553 
L 113.540154 27.604303 
L 113.577374 27.614295 
L 113.715833 27.749186 
L 112.876149 30.624369 
L 112.819575 31.066512 
L 112.894015 31.176424 
L 113.013119 31.431218 
L 113.191775 31.710993 
L 113.443382 31.905836 
L 113.769429 31.91333 
L 114.129719 31.508656 
L 114.466188 31.448704 
L 114.957492 31.673523 
L 115.713802 32.170622 
L 116.410561 32.790123 
L 116.714276 33.369656 
L 116.78425 33.594475 
L 117.107319 34.398826 
L 117.214513 34.838472 
L 117.202602 35.278118 
L 117.015014 36.377232 
L 116.962906 36.934283 
L 117.247266 36.382228 
L 117.829387 34.761034 
L 118.089927 34.416312 
L 118.217964 33.979165 
L 117.979756 33.007448 
L 117.637332 32.055715 
L 117.463142 31.676021 
L 117.408057 31.074006 
L 117.235356 30.279647 
L 116.922708 29.60519 
L 116.467135 29.392861 
L 116.178308 29.842499 
L 116.24977 30.72179 
L 116.490956 31.666029 
L 116.714276 32.325498 
L 116.208084 32.228076 
L 115.85375 31.87586 
L 115.553012 31.436214 
L 115.216543 31.066512 
L 114.140141 30.75926 
L 113.697967 30.369574 
L 113.828981 29.597696 
L 114.827966 27.641773 
L 114.827966 27.294553 
L 116.136622 27.504384 
L 116.714276 27.294553 
L 118.02442 26.202933 
L 118.485948 26.038066 
L 119.105289 26.270378 
L 119.495355 26.864899 
L 119.787159 27.474408 
L 120.10874 27.749186 
L 120.296329 28.196326 
L 120.230822 29.155553 
L 120.073009 30.087302 
L 119.983681 30.43702 
L 120.18318 30.984079 
L 120.659596 31.396247 
L 121.710689 31.905836 
L 121.728555 32.630252 
L 122.026315 33.454587 
L 122.452112 34.13404 
L 122.857065 34.416312 
L 123.354325 34.87844 
L 123.428765 35.885128 
L 123.215866 36.896813 
L 122.857065 37.353944 
L 122.309187 37.506322 
L 121.875946 37.878522 
L 121.210452 38.650399 
L 119.212483 39.904389 
L 119.212483 40.32405 
L 121.402508 39.919376 
L 122.109688 40.284083 
L 121.710689 41.580537 
L 121.277448 42.030175 
L 119.462601 43.296654 
L 118.241785 44.967807 
L 117.735593 45.394963 
L 117.735593 45.814625 
L 118.463616 45.5973 
L 119.126132 45.147662 
L 122.599503 41.882794 
L 122.982125 41.792866 
L 123.29775 41.1309 
L 124.033217 40.80866 
L 124.872901 40.606323 
L 125.502663 40.32405 
L 125.976102 39.569658 
L 126.20091 38.57546 
L 126.04012 37.721148 
L 125.368671 37.353944 
L 125.194481 37.09915 
L 125.346339 36.542099 
L 125.73045 35.677795 
L 125.73045 34.208979 
L 125.468421 34.104064 
L 124.003441 31.905836 
L 123.139937 31.2064 
L 122.857065 30.856681 
L 122.70223 30.444514 
L 122.559305 29.792539 
L 122.56526 29.193023 
L 123.381123 28.481096 
L 123.778633 27.414456 
L 123.875405 26.172957 
L 123.482361 25.196244 
L 124.101702 25.266188 
L 124.63767 25.4985 
L 125.155773 25.58593 
L 125.73045 25.196244 
L 125.632189 24.991409 
L 125.600924 24.85402 
L 125.578592 24.681659 
L 125.502663 24.359419 
L 126.230686 24.966429 
L 127.00784 25.423561 
L 127.81477 25.401079 
L 129.209775 23.947251 
L 129.951198 23.722432 
L 130.683688 24.077146 
L 131.247943 25.196244 
L 130.476744 25.236212 
L 130.228115 25.196244 
L 130.926362 25.693343 
L 131.733292 26.055551 
L 132.546176 26.083029 
L 133.272711 25.580934 
L 130.933806 23.782384 
L 129.835071 22.438467 
L 129.75021 21.004623 
L 128.779512 20.445074 
L 128.338827 20.072874 
L 128.023202 19.670698 
L 128.600856 19.296 
L 129.263372 19.443381 
L 130.500565 20.130328 
L 133.022593 21.004623 
L 133.618113 21.089554 
L 135.025029 21.828958 
L 135.516333 22.228636 
L 137.392221 24.988911 
L 137.944566 25.468525 
L 139.763879 26.277872 
L 141.133576 26.510185 
L 142.795077 27.194633 
L 143.555853 27.749186 
L 144.367249 27.401966 
L 144.877908 28.338711 
L 144.760293 29.597696 
L 143.670491 30.227189 
L 142.643219 30.422032 
L 141.419425 30.931621 
L 140.261139 31.661033 
L 139.016502 32.857569 
L 137.825462 33.472073 
L 136.830943 33.759342 
L 136.342617 34.206481 
L 134.740668 36.364742 
L 134.16748 37.376426 
L 133.702974 38.508014 
L 133.625557 38.760311 
" clip-path="url(#pc17717c1c0)" style="fill: #f5f5f5; stroke: #000000"/>
    <path d="M 45.242937 148.886543 
L 46.13324 150.385335 
L 45.402239 151.514425 
L 44.156113 151.899115 
L 43.498064 151.149719 
L 43.37896 150.257938 
L 43.182438 149.8083 
L 43.14224 149.463578 
L 43.498064 148.886543 
L 43.917905 148.566801 
L 44.436008 148.459388 
L 44.921356 148.561805 
L 45.242937 148.886543 
" clip-path="url(#pc17717c1c0)" style="fill: #f5f5f5; stroke: #000000"/>
    <path d="M 34.231772 107.240112 
L 34.663524 106.99531 
L 35.075921 106.865415 
L 35.4377 106.92037 
L 35.729505 107.240112 
L 35.729505 107.654778 
L 35.434722 108.134392 
L 35.192048 109.101112 
L 35.08932 110.180243 
L 35.229268 111.007076 
L 34.437226 111.736488 
L 33.7494 111.351798 
L 33.052642 110.482499 
L 32.230824 109.753087 
L 31.754408 109.708123 
L 31.260127 109.803047 
L 30.868572 109.703127 
L 30.712248 109.10361 
L 30.789666 108.201837 
L 30.902815 107.504899 
L 30.858151 106.935358 
L 30.46213 106.395793 
L 29.708797 106.16348 
L 26.942606 106.777985 
L 25.942133 106.645592 
L 24.137707 105.961143 
L 23.169987 105.94116 
L 23.169987 105.521498 
L 24.113886 105.489024 
L 24.905928 105.264205 
L 25.528246 104.642207 
L 25.964465 103.423189 
L 26.245848 103.782899 
L 26.549563 103.892811 
L 26.866677 103.772907 
L 27.189747 103.423189 
L 27.981789 104.387412 
L 28.916755 104.125123 
L 29.836834 103.418193 
L 30.587189 103.008523 
L 33.782154 103.108443 
L 34.478912 103.423189 
L 35.229268 105.066864 
L 34.478912 105.066864 
L 34.574196 105.566462 
L 34.559308 106.043577 
L 34.443181 106.463239 
L 34.231772 106.777985 
L 34.231772 107.240112 
" clip-path="url(#pc17717c1c0)" style="fill: #f5f5f5; stroke: #000000"/>
    <path d="M 86.872766 42.419861 
L 87.453398 42.674656 
L 87.908971 42.974414 
L 88.215664 43.521473 
L 88.370499 44.51817 
L 86.780461 45.010273 
L 85.979486 44.955317 
L 85.375033 44.51817 
L 85.375033 44.135978 
L 85.464361 43.866195 
L 85.488182 43.851207 
L 85.456917 43.768774 
L 85.375033 43.296654 
L 85.919934 42.921956 
L 86.122411 42.839523 
L 86.047971 42.687146 
L 85.934822 42.524776 
L 85.872293 42.419861 
L 86.190896 42.075139 
L 86.452925 41.997701 
L 86.671778 42.13509 
L 86.872766 42.419861 
" clip-path="url(#pc17717c1c0)" style="fill: #f5f5f5; stroke: #000000"/>
    <path d="M 39.597407 249.358058 
L 39.954719 249.270629 
L 40.243547 249.485455 
L 39.948764 249.920105 
L 39.722466 250.047502 
L 36.846105 251.051693 
L 36.460505 250.864344 
L 35.905183 250.554594 
L 35.991533 249.960073 
L 36.523035 249.492949 
L 37.230215 249.223167 
L 38.086275 249.140733 
L 39.336867 249.35556 
L 39.597407 249.358058 
" clip-path="url(#pc17717c1c0)" style="fill: #f5f5f5; stroke: #000000"/>
    <path d="M 21.460844 231.759743 
L 21.864309 231.804707 
L 22.008723 232.196891 
L 21.757115 232.66901 
L 21.094599 233.126142 
L 19.671306 233.815586 
L 18.402849 233.950477 
L 18.051492 234.302694 
L 17.313047 234.415103 
L 17.202876 233.950477 
L 17.825194 233.073684 
L 19.695127 231.747253 
L 20.033085 231.415021 
L 20.711978 231.447495 
L 20.971029 231.507447 
L 21.25539 231.794715 
L 21.460844 231.759743 
" clip-path="url(#pc17717c1c0)" style="fill: #f5f5f5; stroke: #000000"/>
    <path d="M 45.766995 159.552946 
L 45.886099 159.49799 
L 46.037957 159.562938 
L 45.982871 160.037555 
L 45.321844 160.232398 
L 40.996879 158.216523 
L 39.799884 157.349722 
L 40.175062 156.805161 
L 41.041543 156.785177 
L 41.967577 157.484613 
L 42.411239 157.497103 
L 43.303031 157.309754 
L 43.9983 157.414669 
L 44.936244 157.784371 
L 45.21465 158.234009 
L 44.893069 158.681148 
L 44.918379 159.093316 
L 45.766995 159.552946 
" clip-path="url(#pc17717c1c0)" style="fill: #f5f5f5; stroke: #000000"/>
   </g>
  </g>
 </g>
 <defs>
  <clipPath id="pc17717c1c0">
   <rect x="7.2" y="7.2" width="180.496916" height="266.112"/>
  </clipPath>
 </defs>
</svg>
