<?xml version="1.0" encoding="utf-8" standalone="no"?>
<!DOCTYPE svg PUBLIC "-//W3C//DTD SVG 1.1//EN"
  "http://www.w3.org/Graphics/SVG/1.1/DTD/svg11.dtd">
<svg xmlns:xlink="http://www.w3.org/1999/xlink" width="109.435048pt" height="280.512pt" viewBox="0 0 109.435048 280.512" xmlns="http://www.w3.org/2000/svg" version="1.1">
 <metadata>
  <rdf:RDF xmlns:dc="http://purl.org/dc/elements/1.1/" xmlns:cc="http://creativecommons.org/ns#" xmlns:rdf="http://www.w3.org/1999/02/22-rdf-syntax-ns#">
   <cc:Work>
    <dc:type rdf:resource="http://purl.org/dc/dcmitype/StillImage"/>
    <dc:date>2024-03-04T13:11:11.247073</dc:date>
    <dc:format>image/svg+xml</dc:format>
    <dc:creator>
     <cc:Agent>
      <dc:title>Matplotlib v3.8.0, https://matplotlib.org/</dc:title>
     </cc:Agent>
    </dc:creator>
   </cc:Work>
  </rdf:RDF>
 </metadata>
 <defs>
  <style type="text/css">*{stroke-linejoin: round; stroke-linecap: butt}</style>
 </defs>
 <g id="figure_1">
  <g id="patch_1">
   <path d="M 0 280.512 
L 109.435048 280.512 
L 109.435048 0 
L 0 0 
z
" style="fill: #ffffff"/>
  </g>
  <g id="axes_1">
   <g id="PatchCollection_1">
    <defs>
     <path id="m9f2f208e50" d="M 11.519775 -125.633594 
L 12.36534 -126.420706 
L 15.077235 -128.440984 
L 16.923284 -130.43892 
L 17.07576 -131.495337 
L 16.640114 -133.617746 
L 16.656451 -134.66778 
L 17.78913 -136.834871 
L 23.746585 -142.56697 
L 24.541639 -143.109541 
L 24.55253 -143.109541 
L 26.267885 -144.698954 
L 27.731205 -145.914461 
L 25.839368 -147.057129 
L 23.788609 -148.589714 
L 24.226374 -149.6562 
L 25.512729 -151.307283 
L 30.190776 -159.374221 
L 30.555243 -159.854216 
L 33.522437 -166.546507 
L 34.958867 -169.793387 
L 35.945073 -171.346461 
L 37.600184 -176.797298 
L 37.634487 -177.091326 
L 37.565881 -177.769854 
L 37.600184 -178.063882 
L 38.320543 -178.448381 
L 42.569804 -191.672127 
L 44.443595 -200.912666 
L 46.072979 -208.959498 
L 46.373129 -209.555095 
L 46.69043 -212.311927 
L 46.956276 -213.136212 
L 46.861944 -214.045941 
L 48.071118 -219.082123 
L 48.358404 -224.618404 
L 48.782901 -225.867397 
L 49.567578 -226.299644 
L 50.236483 -226.138808 
L 51.304158 -225.445202 
L 52.110274 -225.289392 
L 52.581938 -225.387402 
L 54.430002 -227.347592 
L 54.657258 -227.872823 
L 55.103195 -229.493749 
L 55.317587 -230.280339 
L 55.223255 -231.024206 
L 54.571501 -231.345878 
L 54.89309 -232.263146 
L 55.257558 -236.025204 
L 55.969341 -238.023091 
L 56.192309 -239.206744 
L 55.977917 -240.277309 
L 56.205173 -240.503485 
L 56.488171 -240.890497 
L 56.732579 -241.084003 
L 56.372399 -241.506198 
L 56.616807 -241.563999 
L 56.668261 -241.594155 
L 60.885385 -241.282912 
L 61.114099 -241.37866 
L 61.696775 -241.823887 
L 62.039846 -241.95155 
L 62.355689 -241.929209 
L 63.101733 -241.73931 
L 63.477477 -241.712181 
L 65.426992 -242.345712 
L 66.069569 -242.345712 
L 66.341429 -242.223205 
L 66.6468 -242.085597 
L 67.234922 -241.616433 
L 67.757697 -240.989285 
L 68.12255 -240.256815 
L 68.612651 -239.626476 
L 69.309684 -239.529132 
L 72.282967 -240.291923 
L 74.804266 -241.35951 
L 76.421601 -241.493557 
L 76.682989 -242.433481 
L 77.663192 -244.163324 
L 78.115174 -245.200591 
L 78.398344 -246.774046 
L 78.523592 -249.818825 
L 78.93201 -251.181635 
L 79.41122 -252.022619 
L 79.721618 -252.866795 
L 80.07558 -253.452452 
L 80.69093 -253.521072 
L 80.995882 -253.154039 
L 81.948857 -251.67314 
L 82.618662 -251.188018 
L 82.624108 -251.189614 
L 82.634999 -251.181635 
L 82.939951 -250.924711 
L 82.942073 -250.939014 
L 82.97807 -251.181635 
L 82.97807 -251.188018 
L 83.688562 -251.914957 
L 83.794198 -252.743254 
L 84.375194 -253.053832 
L 85.48437 -253.183234 
L 85.924124 -253.961511 
L 87.928094 -256.024876 
L 88.859287 -256.275416 
L 89.55632 -256.342439 
L 90.307809 -256.549892 
L 91.037516 -256.867456 
L 91.663757 -257.258426 
L 92.524157 -258.199946 
L 93.575152 -260.266501 
L 94.386543 -261.216 
L 94.457335 -260.88567 
L 94.16872 -260.504275 
L 94.087036 -259.495732 
L 93.923669 -259.155827 
L 93.798421 -258.332397 
L 92.932575 -257.70844 
L 92.524157 -257.272788 
L 91.369696 -256.749367 
L 93.384557 -255.396132 
L 91.620192 -252.938606 
L 91.990491 -252.456676 
L 93.466241 -251.441749 
L 93.678618 -248.554954 
L 94.865753 -247.830463 
L 95.034566 -246.047959 
L 94.457335 -244.839941 
L 93.880104 -243.92555 
L 93.880104 -243.007967 
L 95.851401 -242.19092 
L 95.688034 -241.372276 
L 96.385067 -235.491768 
L 96.679128 -234.720999 
L 97.915273 -232.695934 
L 97.174675 -231.299612 
L 96.798931 -231.203864 
L 95.894966 -229.662325 
L 95.279616 -227.822372 
L 95.481103 -227.053199 
L 95.07813 -225.470169 
L 92.442473 -222.382304 
L 91.04028 -220.307017 
L 91.03207 -220.302982 
L 90.12266 -220.071591 
L 87.225616 -218.261959 
L 85.477587 -216.714036 
L 84.856431 -216.394609 
L 84.633523 -216.27998 
L 83.386843 -216.427702 
L 83.356494 -216.450257 
L 83.381042 -216.428389 
L 82.41173 -215.737409 
L 81.616677 -214.692163 
L 81.148358 -214.280447 
L 80.772613 -214.122464 
L 80.658256 -213.918202 
L 80.631028 -213.410739 
L 80.843406 -212.965512 
L 81.289942 -212.703801 
L 81.289942 -212.319214 
L 80.925089 -212.319214 
L 80.925089 -211.858029 
L 81.224596 -211.302692 
L 81.387963 -209.710088 
L 81.682024 -208.945701 
L 81.464201 -208.610584 
L 81.387963 -208.575477 
L 81.360735 -208.720694 
L 81.289942 -208.945701 
L 81.164694 -208.725482 
L 80.925089 -208.063226 
L 80.598355 -208.486112 
L 80.778059 -207.193517 
L 80.925089 -206.796164 
L 80.206274 -206.796164 
L 80.206274 -206.378066 
L 80.483998 -206.409981 
L 80.701821 -206.400407 
L 81.077565 -205.849857 
L 81.186477 -205.588147 
L 81.682024 -205.075896 
L 81.682024 -204.689713 
L 81.208259 -204.549283 
L 80.892416 -204.222145 
L 80.696375 -203.800855 
L 80.598355 -203.387544 
L 80.794395 -203.250305 
L 80.914198 -203.135408 
L 81.055783 -203.052427 
L 81.289942 -203.004553 
L 81.289942 -202.543368 
L 80.957763 -202.319956 
L 80.598355 -202.160377 
L 80.925089 -201.739087 
L 80.206274 -201.276306 
L 80.320631 -201.167792 
L 80.429542 -201.188537 
L 80.516671 -201.147046 
L 80.598355 -200.858207 
L 80.206274 -200.858207 
L 80.206274 -200.475216 
L 80.533008 -200.15127 
L 80.582018 -199.902325 
L 80.35875 -199.729979 
L 79.846866 -199.63104 
L 80.081026 -198.949635 
L 80.206274 -198.748565 
L 80.462216 -198.478875 
L 80.680038 -198.095884 
L 76.421601 -199.189004 
L 75.185456 -199.50976 
L 73.927529 -199.549654 
L 72.560691 -199.953391 
L 72.272076 -201.510888 
L 72.293858 -203.422651 
L 71.825539 -204.874826 
L 70.257214 -205.840282 
L 68.688889 -206.023799 
L 65.372536 -205.862623 
L 64.414115 -206.200932 
L 62.911138 -207.432887 
L 62.207159 -207.801678 
L 62.116084 -207.849389 
L 61.174 -207.791941 
L 60.438848 -207.235008 
L 59.115574 -205.70464 
L 57.481902 -204.680139 
L 55.902687 -203.933306 
L 54.514066 -202.939125 
L 53.479407 -201.147046 
L 52.84804 -197.940454 
L 52.640789 -196.887867 
L 52.259599 -195.617613 
L 52.063559 -195.4708 
L 51.36108 -195.213877 
L 51.159594 -195.070255 
L 50.941771 -194.286719 
L 50.756621 -192.34304 
L 50.593254 -191.533971 
L 51.252168 -191.328113 
L 51.617022 -190.865332 
L 51.709596 -190.214248 
L 51.524447 -189.429116 
L 51.137811 -188.66473 
L 49.090276 -186.784882 
L 48.922332 -185.850931 
L 49.15714 -185.04853 
L 49.913745 -183.59874 
L 50.435541 -181.993181 
L 50.291917 -179.868135 
L 51.505224 -175.618227 
L 50.953572 -175.021013 
L 51.061697 -173.958523 
L 51.009517 -173.024726 
L 50.422496 -172.311305 
L 51.187951 -171.223796 
L 51.531021 -170.933659 
L 51.322452 -170.580974 
L 51.409278 -170.244836 
L 51.985209 -169.801248 
L 52.699005 -169.668042 
L 53.178713 -168.692702 
L 52.931962 -165.757591 
L 52.70984 -165.504026 
L 51.469778 -165.445234 
L 51.046583 -165.308051 
L 50.58402 -164.798485 
L 50.003356 -164.288874 
L 49.934464 -164.043852 
L 50.086061 -163.917313 
L 51.205191 -163.743256 
L 51.805256 -163.795222 
L 52.572056 -164.004648 
L 53.527184 -164.964342 
L 54.07507 -165.276067 
L 54.518597 -165.353995 
L 55.144753 -165.328019 
L 55.764966 -164.955808 
L 56.265177 -163.914147 
L 57.049536 -163.463097 
L 57.519539 -163.517608 
L 58.339651 -162.865887 
L 60.287308 -162.449483 
L 60.932487 -162.52292 
L 60.911437 -162.855041 
L 60.724886 -163.213289 
L 60.796521 -163.534354 
L 61.130821 -163.629482 
L 61.484522 -163.616104 
L 62.360567 -163.141938 
L 62.491899 -163.22518 
L 62.511301 -163.449631 
L 62.511301 -164.400845 
L 62.344151 -165.280576 
L 62.153122 -165.898685 
L 61.914337 -166.374107 
L 61.938215 -166.754417 
L 62.296394 -167.015865 
L 62.821722 -166.873258 
L 63.060508 -166.136401 
L 63.012751 -165.518318 
L 63.108265 -165.090376 
L 63.418686 -164.614846 
L 64.020127 -164.770884 
L 64.294731 -164.72333 
L 64.493221 -164.543513 
L 64.676788 -164.366663 
L 64.378306 -163.914854 
L 64.485759 -163.79595 
L 64.831999 -163.760279 
L 65.082724 -163.6057 
L 64.855877 -163.141938 
L 64.605152 -162.737602 
L 64.760363 -162.023999 
L 64.820059 -161.524423 
L 64.97527 -161.345992 
L 64.724545 -160.977218 
L 64.438002 -160.108721 
L 64.461881 -159.668473 
L 64.80812 -159.32339 
L 64.970793 -158.81019 
L 64.723737 -158.427105 
L 64.426063 -158.157094 
L 64.254436 -157.262872 
L 63.996249 -157.002465 
L 63.896257 -156.477151 
L 63.661949 -156.383393 
L 63.31571 -156.585789 
L 63.136621 -156.883418 
L 62.933653 -156.99056 
L 62.682928 -156.740558 
L 61.938215 -157.239064 
L 60.577137 -157.048595 
L 59.908537 -157.786626 
L 59.256354 -157.871434 
L 58.971662 -158.113745 
L 57.748735 -157.851504 
L 57.142252 -156.899294 
L 56.044001 -155.956231 
L 54.24409 -154.37397 
L 49.732854 -151.506619 
L 48.768988 -150.364029 
L 48.65637 -150.144774 
L 47.821458 -148.519289 
L 47.587298 -146.846895 
L 47.565516 -145.120244 
L 47.26601 -143.109541 
L 44.89174 -139.123242 
L 44.123915 -137.058282 
L 44.739264 -134.983747 
L 45.904617 -134.096485 
L 47.298683 -133.876265 
L 48.747205 -134.10606 
L 50.086816 -134.572032 
L 53.239802 -135.006089 
L 59.812607 -134.94864 
L 62.889355 -136.107188 
L 68.634434 -140.910534 
L 71.678508 -142.656335 
L 75.261694 -142.956344 
L 75.283477 -142.937195 
L 75.209159 -139.349212 
L 75.196348 -138.730676 
L 74.98397 -137.329568 
L 74.047332 -134.846509 
L 73.067129 -133.068792 
L 73.45921 -132.621969 
L 73.372081 -131.287884 
L 72.631483 -129.992097 
L 71.972569 -128.488858 
L 72.261184 -126.797314 
L 72.762177 -125.211093 
L 73.323071 -123.969563 
L 74.107233 -122.428024 
L 74.477532 -120.739672 
L 74.227036 -118.981105 
L 71.754746 -114.053287 
L 71.417121 -112.243654 
L 71.422566 -110.306358 
L 70.834445 -109.186109 
L 69.412446 -107.800743 
L 68.770573 -107.175406 
L 68.100768 -105.777489 
L 67.959183 -104.379571 
L 67.98641 -102.997612 
L 67.806707 -101.631611 
L 67.501755 -101.044358 
L 66.608681 -100.233693 
L 66.200263 -99.748571 
L 65.851746 -99.001739 
L 65.672042 -98.305972 
L 65.432437 -96.745283 
L 65.027215 -95.279139 
L 65.024019 -95.267576 
L 61.941826 -88.925883 
L 59.665577 -81.365001 
L 59.41508 -79.893677 
L 58.500224 -77.381894 
L 58.500224 -75.897804 
L 58.761612 -75.262677 
L 59.518546 -74.011573 
L 59.665577 -73.133885 
L 59.55122 -72.275347 
L 59.262604 -71.611496 
L 58.908642 -70.976369 
L 58.592799 -70.204004 
L 58.097252 -66.986879 
L 57.721508 -65.924079 
L 57.699725 -64.159128 
L 58.777949 -60.380283 
L 58.777949 -58.433412 
L 57.922994 -56.355686 
L 55.668527 -52.91515 
L 55.058623 -50.479965 
L 55.02595 -49.736324 
L 54.829909 -49.190562 
L 54.568522 -48.711823 
L 54.36159 -48.178827 
L 53.974954 -46.081951 
L 53.925944 -42.328639 
L 53.702676 -41.074343 
L 51.257614 -34.328913 
L 50.865533 -32.78897 
L 50.587809 -29.318114 
L 50.086816 -27.776575 
L 49.384337 -26.610048 
L 49.008593 -25.256813 
L 48.782901 -23.575749 
L 48.559933 -22.751464 
L 48.225481 -22.208642 
L 47.316456 -21.045093 
L 46.896246 -20.389183 
L 46.686142 -19.946884 
L 46.596097 -19.54982 
L 46.424583 -19.311078 
L 46.012949 -19.296 
L 45.524134 -19.348774 
L 45.155379 -19.318618 
L 44.701145 -20.19814 
L 43.497674 -22.756201 
L 43.127375 -24.233908 
L 43.225396 -28.502662 
L 41.869448 -34.860313 
L 39.805576 -40.665819 
L 37.496654 -47.12241 
L 37.164474 -50.476773 
L 37.191702 -50.856573 
L 37.159028 -51.226797 
L 37.066454 -51.590639 
L 36.919423 -51.935331 
L 34.877334 -57.88765 
L 31.767912 -66.996454 
L 30.019884 -72.090235 
L 29.437208 -72.974306 
L 26.561946 -75.530771 
L 26.197092 -76.111641 
L 26.082735 -76.823366 
L 26.17531 -77.908507 
L 26.676303 -79.753247 
L 26.687194 -80.592636 
L 26.164419 -81.358618 
L 25.325801 -82.517166 
L 25.009958 -83.5672 
L 24.895601 -86.120473 
L 23.746585 -91.032333 
L 20.501024 -99.684739 
L 17.816357 -106.856247 
L 15.79605 -112.234079 
L 14.135151 -117.439566 
L 12.060388 -123.947222 
L 11.519775 -125.633594 
" style="stroke: #000000"/>
    </defs>
    <g clip-path="url(#pf860a167a4)">
     <use xlink:href="#m9f2f208e50" x="0" y="280.512" style="fill: #f5f5f5; stroke: #000000"/>
    </g>
   </g>
  </g>
 </g>
 <defs>
  <clipPath id="pf860a167a4">
   <rect x="7.2" y="7.2" width="95.035048" height="266.112"/>
  </clipPath>
 </defs>
</svg>
