<?xml version="1.0" encoding="utf-8" standalone="no"?>
<!DOCTYPE svg PUBLIC "-//W3C//DTD SVG 1.1//EN"
  "http://www.w3.org/Graphics/SVG/1.1/DTD/svg11.dtd">
<svg xmlns:xlink="http://www.w3.org/1999/xlink" width="219.855627pt" height="280.512pt" viewBox="0 0 219.855627 280.512" xmlns="http://www.w3.org/2000/svg" version="1.1">
 <metadata>
  <rdf:RDF xmlns:dc="http://purl.org/dc/elements/1.1/" xmlns:cc="http://creativecommons.org/ns#" xmlns:rdf="http://www.w3.org/1999/02/22-rdf-syntax-ns#">
   <cc:Work>
    <dc:type rdf:resource="http://purl.org/dc/dcmitype/StillImage"/>
    <dc:date>2024-03-04T13:11:11.277561</dc:date>
    <dc:format>image/svg+xml</dc:format>
    <dc:creator>
     <cc:Agent>
      <dc:title>Matplotlib v3.8.0, https://matplotlib.org/</dc:title>
     </cc:Agent>
    </dc:creator>
   </cc:Work>
  </rdf:RDF>
 </metadata>
 <defs>
  <style type="text/css">*{stroke-linejoin: round; stroke-linecap: butt}</style>
 </defs>
 <g id="figure_1">
  <g id="patch_1">
   <path d="M 0 280.512 
L 219.855627 280.512 
L 219.855627 0 
L 0 0 
z
" style="fill: #ffffff"/>
  </g>
  <g id="axes_1">
   <g id="PatchCollection_1">
    <path d="M 23.112796 43.495467 
L 23.815957 44.226416 
L 24.180499 44.429098 
L 24.661694 44.520736 
L 25.173673 44.512111 
L 25.646767 44.430176 
L 26.614018 44.061467 
L 27.054709 43.808115 
L 27.260472 43.742351 
L 28.438347 43.858785 
L 28.940605 43.694915 
L 29.867351 43.065307 
L 30.333965 42.877719 
L 30.662863 42.838907 
L 30.834602 42.630835 
L 30.9869 42.393654 
L 31.24937 42.267517 
L 32.846873 42.638381 
L 33.093141 42.769909 
L 33.328068 42.972591 
L 33.622942 43.371486 
L 33.645625 43.424313 
L 33.838427 43.485764 
L 33.969662 43.456656 
L 34.087936 43.404907 
L 34.241853 43.388736 
L 34.99524 43.644244 
L 35.426209 43.636698 
L 35.706501 43.716477 
L 35.797232 43.720789 
L 35.993274 43.621604 
L 36.030538 43.551528 
L 36.017577 43.442641 
L 36.066183 43.2281 
L 36.085486 43.19396 
L 36.408122 43.180242 
L 36.450701 42.783585 
L 36.621017 42.481371 
L 36.847112 42.312797 
L 37.95856 42.079928 
L 38.109237 42.036804 
L 38.22103 41.950557 
L 38.417072 41.714454 
L 38.428414 41.669174 
L 38.580711 41.358682 
L 38.609874 41.316637 
L 38.692504 40.722606 
L 38.694124 40.488659 
L 38.728148 40.249322 
L 38.839941 40.034781 
L 38.997099 39.922659 
L 39.321136 39.890316 
L 39.491256 39.83749 
L 40.176594 39.287661 
L 40.516833 38.611695 
L 40.473088 37.846248 
L 40.009715 37.020427 
L 39.643553 36.726107 
L 39.588467 36.645249 
L 39.654894 36.46952 
L 39.812052 36.26576 
L 40.118267 35.978986 
L 40.456886 35.834522 
L 41.137364 35.694369 
L 41.461402 35.486297 
L 42.23261 34.548354 
L 42.676541 34.34136 
L 42.856382 34.214683 
L 43.011919 34.042727 
L 43.10589 33.851904 
L 43.09941 33.640598 
L 42.995718 33.567826 
L 42.935771 33.479422 
L 43.067006 33.21475 
L 43.400764 32.889165 
L 43.826873 32.675702 
L 44.492455 32.543822 
L 44.700153 32.502668 
L 45.150565 32.575439 
L 45.36605 32.862213 
L 45.430857 33.333341 
L 45.438958 33.962948 
L 45.385492 34.563986 
L 45.131123 35.644777 
L 45.077656 36.181668 
L 45.139224 36.690529 
L 45.310963 37.025817 
L 45.599356 37.245749 
L 46.009263 37.39776 
L 46.441853 37.599364 
L 46.887404 38.021977 
L 47.877338 39.373909 
L 48.029635 39.446141 
L 48.33261 39.54317 
L 49.063314 39.937753 
L 49.338745 39.95069 
L 49.450538 39.892473 
L 49.693566 39.693025 
L 49.790777 39.650979 
L 49.870609 39.678204 
L 49.920392 39.695181 
L 50.035425 39.890316 
L 50.155319 39.965783 
L 50.406448 39.998126 
L 50.887643 39.987345 
L 51.12419 40.06389 
L 51.522756 40.551189 
L 51.291069 41.040644 
L 50.842278 41.546271 
L 50.566846 42.132755 
L 50.506899 42.233018 
L 50.480976 42.289079 
L 50.749927 42.30525 
L 50.989715 42.383951 
L 51.888918 42.831361 
L 51.99423 42.907905 
L 52.096302 43.040511 
L 52.250219 43.373643 
L 52.522411 43.823208 
L 52.653646 44.095966 
L 52.741136 44.368725 
L 52.767059 44.729886 
L 52.703871 44.988629 
L 52.609901 45.236591 
L 52.551574 45.557864 
L 53.172105 45.382134 
L 53.685704 45.594519 
L 54.157178 45.676454 
L 54.657816 45.105064 
L 55.04828 44.398911 
L 55.108227 44.044218 
L 54.930007 43.698149 
L 54.78257 43.610823 
L 54.440711 43.547216 
L 54.288413 43.466359 
L 54.145837 43.270145 
L 54.016222 42.890656 
L 53.847723 42.732176 
L 53.813699 42.679349 
L 53.802358 42.626522 
L 53.813699 42.572618 
L 53.847723 42.520869 
L 54.362942 42.079928 
L 54.08427 41.353292 
L 54.152318 41.116111 
L 54.554124 40.828259 
L 54.897603 40.727997 
L 55.04666 40.647139 
L 55.171415 40.452004 
L 55.22164 40.195417 
L 55.187616 39.725368 
L 55.249184 39.455844 
L 55.539197 39.053714 
L 56.678187 38.342172 
L 56.686718 38.327234 
L 56.801322 38.126552 
L 56.87423 37.886137 
L 56.96172 37.679143 
L 57.13184 37.562709 
L 57.319781 37.480773 
L 57.501242 37.324449 
L 57.643818 37.113143 
L 57.877125 36.366023 
L 58.335638 35.481985 
L 58.432849 35.022716 
L 58.411786 34.75427 
L 58.201162 34.014158 
L 58.199542 33.716064 
L 58.240047 33.453009 
L 58.209263 33.243859 
L 58.000259 33.110714 
L 57.849582 32.828792 
L 57.972716 32.317775 
L 58.244907 31.815382 
L 58.544642 31.559874 
L 59.307749 31.473626 
L 59.618825 31.549632 
L 59.630166 31.807836 
L 60.030352 32.158217 
L 60.148626 32.205653 
L 60.318745 32.143123 
L 60.394894 32.018064 
L 60.44998 31.869826 
L 60.556912 31.736681 
L 60.809661 31.565264 
L 60.932796 31.539929 
L 60.983021 31.670917 
L 61.076992 33.671862 
L 61.05431 33.989901 
L 61.085093 34.106874 
L 61.198506 34.209293 
L 61.545226 34.38664 
L 61.684562 34.492293 
L 61.997258 35.244804 
L 62.196541 35.498156 
L 62.528679 35.706228 
L 62.893221 35.829131 
L 64.690007 35.848537 
L 64.984881 35.738571 
L 65.224668 35.432392 
L 65.231149 35.267983 
L 65.206846 35.031341 
L 65.23763 34.793082 
L 65.407749 34.615735 
L 65.576248 34.619508 
L 65.958612 34.831893 
L 66.159515 34.871783 
L 66.485173 34.774215 
L 67.528572 34.280447 
L 68.212291 34.172099 
L 68.516886 34.193122 
L 68.839303 34.270205 
L 69.231388 34.507386 
L 69.33508 34.846986 
L 69.34156 35.259897 
L 69.443632 35.717009 
L 69.673698 36.003783 
L 70.29261 36.510488 
L 70.451388 36.865181 
L 70.464349 37.336309 
L 70.982809 37.346011 
L 71.643845 37.114221 
L 72.081295 36.85979 
L 72.287058 36.460895 
L 72.086155 36.088952 
L 71.439701 35.481985 
L 71.297125 35.249116 
L 71.233938 35.073386 
L 71.243659 34.882564 
L 71.323048 34.600103 
L 71.441321 34.397421 
L 71.770219 34.125741 
L 71.883632 33.985588 
L 72.001906 33.530632 
L 71.886872 33.298841 
L 71.616301 33.198579 
L 70.914761 33.07352 
L 70.454628 32.908571 
L 70.20836 32.62611 
L 70.485412 32.193794 
L 70.349316 32.108624 
L 70.273167 31.991651 
L 70.235903 31.840178 
L 70.216461 31.647199 
L 70.284509 31.425112 
L 70.287749 30.966921 
L 70.308811 30.817066 
L 70.443287 30.631634 
L 70.781906 30.321142 
L 70.911521 30.161584 
L 71.104323 29.481306 
L 71.17237 29.327138 
L 71.323048 29.251132 
L 72.807138 28.859245 
L 73.210564 28.856011 
L 73.460073 29.043599 
L 73.490856 29.279163 
L 73.404987 29.707706 
L 73.474655 29.934106 
L 74.121109 30.137866 
L 74.244243 30.238129 
L 74.326872 30.343243 
L 74.425704 30.439194 
L 74.602304 30.514121 
L 74.803207 30.544308 
L 75.34921 30.496872 
L 76.471999 30.768013 
L 76.755531 30.717881 
L 76.878435 30.530691 
L 76.974256 30.38475 
L 77.09901 29.867803 
L 77.110352 29.329294 
L 76.992078 28.927165 
L 76.664801 28.67489 
L 75.997284 28.609127 
L 75.713752 28.30726 
L 75.582516 27.908365 
L 75.657045 27.709995 
L 75.827165 27.561757 
L 75.977842 27.315412 
L 76.011866 27.019475 
L 75.997284 26.781755 
L 76.060471 26.590932 
L 76.326182 26.435147 
L 76.515744 26.171553 
L 76.476859 25.884241 
L 76.365066 25.580757 
L 76.335903 25.270265 
L 76.677762 24.89401 
L 76.770113 24.761404 
L 76.826819 24.573816 
L 76.909449 23.902162 
L 77.418187 24.278957 
L 78.067882 24.344721 
L 79.662145 23.944208 
L 79.939196 23.916178 
L 80.180604 23.974395 
L 81.379542 24.629877 
L 81.531839 24.840644 
L 81.45569 24.985109 
L 81.10735 25.243313 
L 81.034442 25.346271 
L 81.128413 25.529008 
L 81.296912 25.534399 
L 81.62743 25.438987 
L 81.808891 25.494509 
L 82.259303 25.728456 
L 82.41322 25.733846 
L 82.711334 25.656224 
L 82.871733 25.65838 
L 83.012689 25.725222 
L 83.28002 25.934911 
L 83.440418 25.995824 
L 83.595956 25.985043 
L 84.119276 25.823328 
L 84.388227 25.788829 
L 84.934229 25.837883 
L 85.19994 25.919279 
L 85.423526 25.890709 
L 85.642251 25.679942 
L 85.993831 25.130113 
L 86.058638 25.074052 
L 86.231998 25.002359 
L 86.300046 24.934978 
L 86.327589 24.830402 
L 86.309767 24.613705 
L 86.322729 24.533926 
L 86.617603 23.890842 
L 86.782861 23.157198 
L 86.912476 22.900612 
L 87.926713 21.980996 
L 88.207005 21.827907 
L 89.292529 21.506634 
L 90.391015 21.33953 
L 90.94998 21.450574 
L 91.437656 21.667271 
L 91.917231 21.689372 
L 92.450272 21.219861 
L 92.451892 21.217705 
L 92.571786 21.055452 
L 92.711122 20.958962 
L 92.86828 20.92608 
L 93.143711 20.985914 
L 93.245783 21.040358 
L 93.336513 21.11852 
L 93.419143 21.219861 
L 93.550378 21.293172 
L 93.692954 21.31689 
L 93.840391 21.292094 
L 93.987828 21.219861 
L 93.989448 21.219861 
L 93.992689 21.217705 
L 93.994309 21.217705 
L 94.449581 21.096419 
L 94.822224 21.064615 
L 95.629076 21.214471 
L 95.637177 21.214471 
L 95.65662 21.219861 
L 95.774893 21.229564 
L 95.893167 21.214471 
L 96.191281 21.242501 
L 96.698399 21.585335 
L 96.991653 21.686676 
L 97.173114 21.648404 
L 97.480949 21.419309 
L 97.654309 21.317968 
L 98.36557 21.214471 
L 98.906713 20.823122 
L 99.572609 20.495381 
L 100.264428 20.277606 
L 101.382357 20.229092 
L 102.970139 19.476581 
L 103.235137 19.429172 
L 103.979515 19.296 
L 104.348917 19.411356 
L 104.344242 19.675758 
L 104.339196 19.961185 
L 104.005438 20.372478 
L 103.056009 20.854387 
L 102.89075 21.219861 
L 102.994442 21.426855 
L 103.062489 21.665115 
L 103.15808 22.146484 
L 103.260152 22.378814 
L 103.368704 22.576105 
L 103.367084 22.766928 
L 103.137018 22.975 
L 103.302277 23.036452 
L 103.671679 23.096825 
L 103.846659 23.177143 
L 104.02488 23.34317 
L 104.11075 23.474159 
L 104.206341 23.575499 
L 104.420205 23.647732 
L 105.079621 23.668755 
L 105.327509 23.82454 
L 105.471706 24.280574 
L 105.476566 24.537161 
L 105.432821 24.688094 
L 105.374495 24.832559 
L 105.33237 25.074052 
L 105.329129 25.343576 
L 105.366394 25.484806 
L 105.455504 25.566742 
L 105.606181 25.66377 
L 105.933459 25.779126 
L 106.259116 25.820094 
L 106.519966 25.973723 
L 106.657682 26.430296 
L 106.954176 27.099793 
L 107.496938 27.538578 
L 108.133671 27.776837 
L 108.509975 27.83741 
L 108.984269 27.913755 
L 109.468704 28.215622 
L 109.727934 28.3299 
L 109.958 28.350384 
L 110.870165 28.240418 
L 111.644614 28.31265 
L 111.672432 28.324194 
L 111.795291 28.37518 
L 112.080444 28.57301 
L 112.224641 28.631228 
L 112.372077 28.626915 
L 112.623206 28.536894 
L 112.74634 28.521801 
L 112.88157 28.563481 
L 113.274521 28.684593 
L 114.165623 29.217711 
L 117.835344 29.459744 
L 119.120152 29.732502 
L 120.116566 30.294729 
L 120.447084 30.416554 
L 121.078956 30.445662 
L 122.67646 30.132475 
L 123.361798 30.24298 
L 124.317708 30.178834 
L 124.426261 30.217106 
L 124.648226 30.448896 
L 124.76812 30.52598 
L 125.434016 30.54862 
L 127.331254 31.11462 
L 127.567801 31.13726 
L 127.812449 31.093058 
L 127.814069 31.256929 
L 127.784906 31.404089 
L 127.726579 31.53346 
L 127.639089 31.643965 
L 127.616406 32.177622 
L 127.575761 32.255061 
L 127.444667 32.504824 
L 127.151413 32.649828 
L 126.764189 32.63743 
L 126.232768 32.701577 
L 125.848784 33.034708 
L 125.515025 33.467024 
L 125.132662 33.834655 
L 124.406818 34.193122 
L 124.030935 34.445935 
L 123.836513 34.533261 
L 123.629129 34.553744 
L 123.45901 34.741872 
L 123.248385 35.184969 
L 123.026273 35.537122 
L 122.958372 35.644777 
L 122.550085 35.879802 
L 122.671599 36.088952 
L 122.759089 36.336914 
L 122.85468 36.85979 
L 122.8563 36.861947 
L 122.857921 36.864103 
L 123.065304 37.127158 
L 123.120391 37.416088 
L 123.253246 37.597208 
L 123.680975 37.535756 
L 123.452529 37.167048 
L 123.695557 37.24467 
L 124.165411 37.274857 
L 124.384136 37.390213 
L 124.821586 37.472149 
L 125.11646 37.662971 
L 125.587934 38.095288 
L 125.9865 38.153505 
L 126.448252 38.107147 
L 126.658911 38.144815 
L 126.816035 38.172911 
L 126.873756 38.360282 
L 126.935928 38.562103 
L 126.487137 39.327551 
L 125.016337 40.365309 
L 124.742197 40.558736 
L 124.384136 41.000755 
L 124.51051 41.123658 
L 124.549395 41.258419 
L 124.50565 41.402884 
L 124.384136 41.551661 
L 124.303126 41.601254 
L 124.063339 41.802858 
L 124.267482 42.024945 
L 124.340391 42.079928 
L 124.354972 42.097178 
L 124.367934 42.116583 
L 124.377655 42.137067 
L 124.384136 42.160785 
L 124.810245 42.615741 
L 125.280098 42.582321 
L 125.785596 42.356999 
L 126.24143 42.258031 
L 126.321878 42.240564 
L 126.587588 42.637303 
L 126.470151 43.064605 
L 126.359142 43.468515 
L 126.219034 43.765269 
L 125.748332 44.762229 
L 125.696486 45.475928 
L 125.825026 45.711721 
L 125.936274 45.915791 
L 126.373724 46.137879 
L 126.913246 46.19933 
L 127.175716 46.274797 
L 127.796099 46.723638 
L 127.946114 46.832172 
L 129.031639 47.289285 
L 130.280802 49.251418 
L 130.449302 49.422836 
L 130.684228 49.547895 
L 130.825185 49.557597 
L 130.833093 49.576894 
L 130.849487 49.616893 
L 130.729594 49.889651 
L 130.429981 50.235919 
L 130.113923 50.601194 
L 129.373498 50.672348 
L 128.754587 50.3597 
L 127.981918 50.422892 
L 128.091631 50.267544 
L 128.270234 50.007783 
L 128.691228 49.995898 
L 129.159423 50.04853 
L 129.49239 49.982316 
L 129.295927 49.926289 
L 129.153044 49.773488 
L 129.006335 49.54174 
L 128.413117 49.256512 
L 128.701433 49.134271 
L 128.638922 48.772642 
L 128.410565 48.370266 
L 128.208999 48.116447 
L 126.971534 46.900831 
L 126.683218 46.680118 
L 125.825922 46.325281 
L 125.466165 46.266707 
L 125.202087 46.483175 
L 125.041344 46.941578 
L 125.106407 47.349047 
L 125.523573 47.418656 
L 124.950767 47.67672 
L 124.871671 47.761609 
L 124.784921 47.894037 
L 124.352446 47.972135 
L 124.180222 48.051931 
L 123.904663 48.324426 
L 123.533423 48.588432 
L 123.12136 48.707277 
L 122.729709 48.545987 
L 122.952963 48.491658 
L 123.238728 48.376209 
L 123.483669 48.225105 
L 123.587004 48.051931 
L 123.449225 47.692849 
L 122.807529 47.568061 
L 122.614893 47.264157 
L 122.339333 47.35414 
L 120.819931 47.025618 
L 120.678324 46.965347 
L 120.301982 46.607962 
L 120.202474 46.551087 
L 120.036628 46.573158 
L 119.480407 46.760763 
L 119.296701 47.056178 
L 119.170403 47.119845 
L 119.016039 47.050236 
L 118.883362 46.758217 
L 118.694553 46.693701 
L 118.561876 46.783683 
L 118.519777 46.980627 
L 118.577185 47.175872 
L 118.750685 47.264157 
L 118.750685 47.418656 
L 118.401133 47.43903 
L 118.087302 47.618995 
L 117.915078 47.909317 
L 118.000552 48.260759 
L 118.258251 48.420351 
L 118.574634 48.37536 
L 119.170403 48.116447 
L 118.987972 48.416107 
L 118.439406 48.841402 
L 118.323314 49.189449 
L 118.322038 49.192845 
L 118.156192 49.406766 
L 117.773471 49.516273 
L 116.537282 49.554473 
L 115.944064 49.685203 
L 113.387487 51.250564 
L 110.736506 52.447504 
L 109.18521 52.984005 
L 108.922408 53.193682 
L 108.794834 53.270082 
L 108.22458 53.401661 
L 107.789554 53.659725 
L 107.580333 53.697925 
L 107.704079 53.38723 
L 107.876304 53.11813 
L 107.979639 52.890627 
L 107.903094 52.700474 
L 108.054907 52.722546 
L 108.159517 52.694532 
L 108.218201 52.596909 
L 108.22458 52.40421 
L 108.330466 52.40421 
L 108.404459 52.581629 
L 108.468246 52.668217 
L 108.546066 52.661425 
L 108.651952 52.559558 
L 108.437628 52.27433 
L 108.614956 52.293005 
L 108.784629 52.28197 
L 108.944096 52.226792 
L 108.973438 52.27433 
L 108.983644 52.245467 
L 109.035949 52.307437 
L 109.083151 52.386384 
L 109.08953 52.40421 
L 109.035949 52.411851 
L 108.875206 52.40421 
L 108.875206 52.559558 
L 109.223482 52.518811 
L 109.307681 52.262445 
L 109.32299 51.971275 
L 109.463321 51.833754 
L 109.740156 51.804042 
L 109.965961 51.707269 
L 110.139461 51.532396 
L 110.267035 51.264146 
L 110.078226 51.337151 
L 109.67892 51.604552 
L 109.570483 51.619832 
L 109.273236 51.325266 
L 109.150765 51.135114 
L 109.08953 50.838001 
L 108.754011 51.011175 
L 108.335569 51.359222 
L 108.075319 51.734433 
L 108.22458 51.989101 
L 108.22458 52.118982 
L 107.965605 52.109644 
L 107.696425 51.87535 
L 107.580333 51.989101 
L 107.474447 51.989101 
L 107.367285 51.548525 
L 107.169546 51.887234 
L 107.267777 52.075689 
L 107.794657 52.27433 
L 107.794657 52.40421 
L 107.600745 52.506927 
L 107.31498 52.541731 
L 107.113413 52.476366 
L 107.152961 52.27433 
L 106.641391 52.265841 
L 106.000971 52.598607 
L 105.423062 53.126619 
L 105.109231 53.697925 
L 105.109231 53.827806 
L 105.207462 53.827806 
L 105.067131 54.021354 
L 105.005896 54.217448 
L 105.044168 54.400809 
L 105.207462 54.55361 
L 105.054374 54.756496 
L 105.026308 54.907599 
L 105.036514 55.058702 
L 104.993138 55.265832 
L 104.875771 55.335441 
L 104.726509 55.340535 
L 104.656344 55.414389 
L 104.787745 55.693675 
L 104.610417 55.975507 
L 104.538976 56.201313 
L 104.420333 56.350719 
L 104.087365 56.405048 
L 103.880696 56.320158 
L 103.702093 56.201313 
L 103.569416 56.259038 
L 103.485217 56.70301 
L 103.653615 56.892313 
L 103.793946 57.329493 
L 103.980203 57.415232 
L 104.152428 57.314213 
L 104.273623 57.069732 
L 104.313171 56.783655 
L 104.243005 56.547662 
L 104.554285 56.668205 
L 104.619348 56.888917 
L 104.605314 57.191124 
L 104.672928 57.558695 
L 104.500704 57.622362 
L 104.457329 57.729322 
L 104.521116 57.858354 
L 104.672928 57.985688 
L 104.618072 58.287046 
L 104.760954 58.537469 
L 105.025032 58.69027 
L 105.323554 58.697062 
L 105.278904 58.618963 
L 105.263595 58.610474 
L 105.207462 58.567181 
L 105.438371 58.399949 
L 105.789198 58.070578 
L 105.96525 57.985688 
L 105.819816 58.304873 
L 105.912945 58.610474 
L 106.087721 58.908436 
L 106.18085 59.203002 
L 106.194883 59.904189 
L 106.296942 60.691114 
L 106.13875 60.64018 
L 105.96525 60.548499 
L 105.98311 60.410978 
L 105.96525 60.208093 
L 105.96525 60.120657 
L 105.80961 60.579908 
L 105.799404 60.950875 
L 105.955044 61.159703 
L 106.296942 61.131689 
L 106.245912 61.052742 
L 106.220397 60.989075 
L 106.18085 60.846461 
L 106.490854 61.099432 
L 106.682214 61.401638 
L 106.842957 61.709786 
L 107.045799 61.985677 
L 107.045799 62.127442 
L 106.922053 62.148664 
L 106.855714 62.186016 
L 106.804685 62.233554 
L 106.715383 62.284487 
L 106.929707 62.569716 
L 107.160615 62.247136 
L 107.207818 61.989921 
L 107.114689 61.736102 
L 106.929707 61.429651 
L 107.156788 61.623199 
L 107.440002 61.758173 
L 107.628811 61.904183 
L 107.580333 62.127442 
L 107.830377 62.381261 
L 107.952848 62.47464 
L 108.117418 62.569716 
L 108.432525 62.9653 
L 108.76932 63.288729 
L 108.973438 63.138475 
L 108.921132 63.133381 
L 108.815246 63.146964 
L 108.768044 63.138475 
L 108.768044 62.983127 
L 109.027019 62.977185 
L 109.248997 63.056981 
L 109.41867 63.212329 
L 109.516902 63.423703 
L 109.502868 63.615553 
L 109.348504 63.841359 
L 109.40974 63.980578 
L 109.28089 64.180068 
L 109.227309 64.292971 
L 109.18521 64.419456 
L 109.08953 64.419456 
L 108.970886 64.437283 
L 108.905824 64.666484 
L 108.875206 65.340506 
L 108.78718 65.672423 
L 108.580511 66.016225 
L 108.117418 66.543389 
L 108.094455 66.449161 
L 108.025565 66.24288 
L 107.92223 66.011132 
L 107.794657 65.831167 
L 108.03322 65.35239 
L 108.093179 65.09178 
L 108.019186 64.86173 
L 107.840583 64.781085 
L 107.66198 64.888045 
L 107.526752 65.066313 
L 107.474447 65.203834 
L 107.294568 65.54424 
L 107.286913 65.74373 
L 107.677289 65.904171 
L 107.667083 66.062066 
L 107.547164 66.214867 
L 107.367285 66.272591 
L 107.367285 66.415206 
L 107.478274 66.440672 
L 107.673462 66.523864 
L 107.794657 66.543389 
L 107.672186 66.902471 
L 107.386421 67.101112 
L 107.036869 67.13337 
L 106.751104 66.884644 
L 106.585258 66.651198 
L 106.18085 66.272591 
L 105.897636 66.075648 
L 105.730514 66.068857 
L 105.323554 66.415206 
L 105.323554 66.543389 
L 105.537878 66.543389 
L 105.123264 67.987357 
L 105.01355 68.815029 
L 105.109231 69.716554 
L 105.3159 70.388878 
L 105.457507 70.715702 
L 105.591459 70.856619 
L 105.628455 71.087518 
L 105.537878 72.564594 
L 105.595286 73.48819 
L 106.073688 75.583261 
L 106.136199 76.126553 
L 106.18085 76.2819 
L 106.249739 76.40499 
L 106.465339 76.686823 
L 106.511265 76.786992 
L 106.544435 77.229266 
L 106.638839 77.649468 
L 106.929707 78.4313 
L 107.261399 79.01449 
L 107.687495 79.583249 
L 108.327915 80.189359 
L 108.653228 80.753874 
L 109.157144 81.27085 
L 109.728674 81.711426 
L 110.149667 81.875263 
L 111.045234 83.033154 
L 111.508327 83.488161 
L 111.98928 83.856581 
L 112.282699 84.017871 
L 112.965218 84.236886 
L 113.000939 84.247921 
L 113.751072 84.352335 
L 114.049595 84.52551 
L 114.663224 85.009379 
L 115.709329 85.416848 
L 115.862417 85.651143 
L 115.997645 85.797153 
L 120.794416 89.853168 
L 122.626374 90.953335 
L 122.935103 91.075576 
L 123.089467 91.262332 
L 123.825567 91.511058 
L 124.245284 91.75554 
L 124.398373 91.666406 
L 124.517016 91.513605 
L 124.603766 91.432111 
L 124.647141 91.411738 
L 124.681586 91.367595 
L 124.73134 91.322604 
L 124.823193 91.30223 
L 124.915046 91.343826 
L 124.960973 91.438902 
L 124.99159 91.532281 
L 125.041344 91.574725 
L 125.339867 91.730073 
L 125.568224 92.073875 
L 125.746827 92.416828 
L 125.898639 92.571327 
L 126.197162 92.641785 
L 126.473997 92.830239 
L 126.614328 93.107828 
L 126.495684 93.438896 
L 128.742257 99.021223 
L 128.98975 99.441426 
L 129.056088 99.589133 
L 129.155596 100.338707 
L 129.220658 100.516126 
L 129.408192 100.805598 
L 129.910832 101.868414 
L 130.127707 102.609498 
L 130.390509 104.370953 
L 131.019447 106.577229 
L 131.633077 108.731721 
L 132.194401 110.148526 
L 132.519714 110.814907 
L 133.491826 112.350557 
L 133.579851 112.668892 
L 133.68191 112.893 
L 135.957825 115.577203 
L 136.955451 116.450714 
L 138.084478 117.187554 
L 138.573086 117.60521 
L 139.226263 118.673968 
L 141.282751 120.678206 
L 141.841524 121.034742 
L 142.744745 121.399766 
L 143.374959 121.518611 
L 143.618625 121.724893 
L 143.741096 122.046624 
L 143.831673 122.907402 
L 143.936284 123.318267 
L 144.112335 123.620473 
L 144.375137 123.741016 
L 144.46699 123.759692 
L 144.729792 123.815719 
L 145.03852 124.001626 
L 145.597293 124.465122 
L 146.156066 124.722337 
L 147.424148 124.946445 
L 148.077326 125.163762 
L 148.29165 125.35731 
L 148.717746 125.915882 
L 148.884867 126.03303 
L 149.166805 126.130652 
L 149.812328 126.598393 
L 150.11085 126.757136 
L 150.427233 126.821652 
L 150.769131 126.89211 
L 152.593434 126.887017 
L 154.45601 127.309766 
L 155.169147 127.327593 
L 157.760169 126.887017 
L 160.316746 127.029631 
L 164.277909 126.552553 
L 165.590642 126.887017 
L 165.608503 126.922671 
L 166.05501 127.056796 
L 166.37522 127.625555 
L 166.662261 127.611972 
L 166.612508 127.94389 
L 166.731151 128.338626 
L 166.866379 129.112817 
L 166.879137 129.382765 
L 166.876585 129.74779 
L 166.742633 129.983782 
L 166.465798 130.321642 
L 166.137933 130.625546 
L 165.853444 130.757974 
L 165.533234 130.859841 
L 165.258951 131.101776 
L 164.84306 131.613659 
L 164.284288 132.063572 
L 162.681962 132.895489 
L 162.286484 133.425198 
L 162.14998 134.213821 
L 162.2278 135.056773 
L 162.47019 135.75711 
L 162.812087 136.246073 
L 163.243286 136.66288 
L 164.192435 137.32332 
L 165.187509 137.639108 
L 165.426072 137.82926 
L 165.641672 138.051671 
L 168.578418 139.408203 
L 171.068657 140.76898 
L 172.015253 141.029591 
L 172.295916 141.253699 
L 172.543408 141.502425 
L 173.163417 141.930267 
L 176.87326 143.195968 
L 177.199848 143.474405 
L 177.305734 143.474405 
L 177.305734 143.319907 
L 177.403966 143.319907 
L 177.730555 143.662011 
L 180.424911 144.540616 
L 182.713583 145.810562 
L 183.861746 146.661153 
L 184.389902 147.191712 
L 184.983119 148.082202 
L 185.191064 148.201047 
L 185.450039 148.286785 
L 186.012639 148.729059 
L 186.992405 149.791874 
L 187.241174 149.910719 
L 187.558832 149.997307 
L 188.125259 150.380158 
L 189.476265 150.734147 
L 189.644662 150.842805 
L 191.261021 151.513431 
L 192.758736 152.628878 
L 193.980892 152.861475 
L 194.512874 153.122934 
L 194.498841 153.614444 
L 194.677444 153.616991 
L 195.079301 153.484563 
L 195.315313 153.535497 
L 195.379099 153.67132 
L 195.385478 153.858076 
L 195.453092 154.067753 
L 195.820504 154.421742 
L 195.883015 154.551623 
L 195.792438 155.491348 
L 197.086035 156.583875 
L 198.523791 157.414942 
L 198.833795 157.4854 
L 198.940957 157.56265 
L 199.262443 158.126315 
L 199.441046 158.323259 
L 199.958995 158.768079 
L 200.364679 159.460777 
L 200.594312 159.774867 
L 200.872423 159.907295 
L 201.012754 160.044816 
L 202.060134 161.521891 
L 203.043727 163.929355 
L 203.110065 164.05584 
L 203.191712 164.151765 
L 203.296323 164.206094 
L 203.217227 164.448878 
L 203.258051 164.595736 
L 203.316734 164.729013 
L 203.296323 164.931049 
L 203.170025 165.13818 
L 202.916153 165.344461 
L 202.786028 165.959909 
L 202.579359 166.20439 
L 202.01038 166.640722 
L 201.654449 167.552434 
L 201.599593 167.768053 
L 201.539633 168.206082 
L 201.394199 168.662787 
L 201.359754 168.861429 
L 201.470743 169.398778 
L 201.477122 169.644109 
L 201.264074 170.754462 
L 201.306173 170.926788 
L 201.224526 170.993001 
L 201.063783 171.287568 
L 200.979584 171.353781 
L 200.637687 171.32407 
L 200.510113 171.280776 
L 200.385091 171.212016 
L 199.627303 170.590626 
L 199.369604 170.498945 
L 198.722806 170.498945 
L 198.517412 170.462443 
L 198.129588 170.200983 
L 197.74304 170.020169 
L 197.253157 169.541393 
L 196.682902 169.139866 
L 196.473682 169.062616 
L 196.326972 168.956505 
L 195.320415 167.401331 
L 195.132882 167.209481 
L 195.132882 167.054982 
L 195.379099 167.040551 
L 195.523258 166.897937 
L 195.5526 166.658549 
L 195.453092 166.355494 
L 195.285971 166.174679 
L 194.866253 166.032914 
L 194.695304 165.914918 
L 195.251526 165.557533 
L 195.377824 165.107619 
L 195.162224 164.598283 
L 194.695304 164.06348 
L 194.275587 163.709491 
L 194.045954 163.433601 
L 193.945171 163.131394 
L 193.938792 162.730716 
L 193.904347 162.377576 
L 193.812494 162.097441 
L 193.632616 161.91408 
L 193.838009 161.91408 
L 193.838009 161.7842 
L 193.05981 161.151773 
L 192.81742 161.060093 
L 187.556281 160.774865 
L 187.271791 160.696766 
L 186.433632 160.205257 
L 186.276716 160.192523 
L 185.948852 160.22563 
L 185.790661 160.205257 
L 185.675844 160.121216 
L 185.402837 159.838535 
L 185.300778 159.777414 
L 185.035424 159.708654 
L 184.175578 159.194224 
L 183.291492 158.863155 
L 182.866672 158.636501 
L 182.667657 158.340237 
L 183.032517 158.173005 
L 183.338694 157.902207 
L 183.415239 157.569441 
L 183.096304 157.212905 
L 183.407584 157.090665 
L 184.165372 157.238372 
L 184.486858 157.057558 
L 184.596571 156.711209 
L 184.295497 156.690836 
L 183.632114 156.914944 
L 183.66018 156.866557 
L 183.739276 156.759596 
L 183.407584 156.620377 
L 183.119268 156.744316 
L 182.832227 156.950597 
L 182.506914 157.057558 
L 182.37934 156.986251 
L 182.295141 156.822414 
L 182.221149 156.632262 
L 182.134399 156.48795 
L 181.974932 156.420887 
L 181.621552 156.415794 
L 181.481221 156.359767 
L 180.306268 156.28082 
L 179.154277 156.83345 
L 178.151548 157.822411 
L 177.386106 158.954836 
L 176.123126 160.819007 
L 175.788883 161.486238 
L 175.415092 162.708645 
L 175.30793 162.924264 
L 175.077022 163.071972 
L 174.504216 164.06348 
L 173.886759 164.633088 
L 173.643094 164.858045 
L 173.33309 165.348705 
L 173.210619 166.134781 
L 173.248891 166.398787 
L 173.472145 167.180619 
L 173.754083 167.815591 
L 173.599719 168.079597 
L 173.344571 168.301159 
L 173.089424 168.78333 
L 172.353324 169.501495 
L 171.81879 170.498945 
L 171.561091 171.168722 
L 171.530473 171.8003 
L 171.724385 172.387734 
L 172.139 172.92084 
L 172.139 173.063454 
L 171.936158 173.586372 
L 172.410732 174.185692 
L 173.125144 174.688237 
L 173.648197 174.927625 
L 175.606453 175.037981 
L 176.119299 175.212853 
L 176.364241 175.383481 
L 176.646178 175.642394 
L 176.878363 175.953089 
L 176.976594 176.280762 
L 177.118201 176.442901 
L 178.055868 176.921677 
L 178.791968 177.558347 
L 179.07263 177.647481 
L 179.456627 177.693322 
L 179.709223 177.830842 
L 179.896756 178.05495 
L 180.090668 178.360552 
L 180.424911 178.759532 
L 180.917346 179.156815 
L 181.476118 179.440345 
L 182.017031 179.498919 
L 181.445501 180.914874 
L 181.330684 182.073614 
L 181.324306 182.353749 
L 181.374059 182.632187 
L 181.485049 182.869877 
L 181.756781 183.335071 
L 181.812913 183.577855 
L 181.72999 184.240841 
L 181.445501 185.447968 
L 181.481221 186.076998 
L 181.848634 186.842701 
L 181.909869 187.015875 
L 182.013204 187.128778 
L 182.547737 187.324873 
L 182.764613 187.357979 
L 182.458436 187.576145 
L 182.297693 187.720457 
L 182.231355 187.864769 
L 182.218597 188.682254 
L 182.231355 188.796855 
L 181.705751 189.293458 
L 181.645791 189.379196 
L 181.530975 189.458992 
L 181.393195 189.649144 
L 181.159736 190.078685 
L 181.018129 189.66018 
L 180.635408 189.583779 
L 180.191451 189.720451 
L 179.873793 189.935222 
L 179.471936 189.443712 
L 179.235924 189.283271 
L 178.859582 189.223 
L 178.511306 189.251862 
L 176.998282 189.679705 
L 175.262004 190.500585 
L 174.634341 190.98021 
L 174.504216 191.153384 
L 174.367712 191.297696 
L 173.424943 191.800242 
L 173.033291 192.190733 
L 172.85724 192.457286 
L 172.690118 193.048116 
L 172.489828 193.368149 
L 172.299743 193.745058 
L 172.237232 194.234021 
L 172.426041 194.374088 
L 172.460486 194.442 
L 172.451555 194.814664 
L 172.613574 196.401247 
L 172.898063 197.808713 
L 172.900615 198.344365 
L 172.781971 199.874921 
L 172.653122 200.149963 
L 172.035665 200.75862 
L 171.81879 201.084595 
L 171.652944 201.131284 
L 171.174543 201.560825 
L 170.673178 201.742488 
L 169.180566 202.559124 
L 168.654962 203.054878 
L 166.509173 205.847739 
L 166.233614 206.523459 
L 165.820275 208.734828 
L 165.590642 209.385929 
L 165.441381 209.659273 
L 165.264054 209.895266 
L 165.062487 210.089662 
L 164.84306 210.239917 
L 164.101857 210.4063 
L 163.868397 210.525145 
L 162.94604 210.231428 
L 160.113904 210.395264 
L 159.696738 210.27557 
L 159.279572 210.066742 
L 158.905781 209.805283 
L 158.613637 209.526846 
L 158.295979 209.07863 
L 158.132684 208.645694 
L 158.183714 208.2569 
L 158.498821 207.947903 
L 158.094412 207.287463 
L 157.959184 206.91395 
L 158.012765 206.595615 
L 158.234743 206.208519 
L 158.331699 205.849437 
L 158.311287 205.453852 
L 158.177335 204.956401 
L 158.096964 204.239934 
L 158.375074 203.806998 
L 158.903229 203.554877 
L 160.505555 203.035353 
L 160.649713 202.878308 
L 160.696915 202.770499 
L 160.918894 202.564217 
L 160.971199 202.450466 
L 161.184247 201.512438 
L 162.360476 198.947929 
L 162.564594 198.054044 
L 162.536528 197.353706 
L 162.286484 196.771365 
L 161.827218 196.22977 
L 161.713678 196.146579 
L 161.50063 196.039618 
L 161.407501 195.944542 
L 161.273548 195.728923 
L 161.245482 195.613473 
L 161.269721 195.499722 
L 161.291409 195.295987 
L 161.415155 195.058297 
L 161.707299 194.893611 
L 162.360476 194.661863 
L 163.351724 193.969166 
L 163.893912 193.701764 
L 164.618531 193.653377 
L 165.747558 193.795143 
L 165.984845 193.734871 
L 166.245095 193.587163 
L 166.662261 193.224686 
L 167.002883 192.637251 
L 167.224861 191.850326 
L 167.328196 190.96493 
L 167.302681 190.078685 
L 167.218483 189.662727 
L 167.060291 189.348636 
L 166.825556 189.150844 
L 166.501518 189.082083 
L 166.271886 188.911455 
L 166.042253 188.520115 
L 165.15434 186.402974 
L 164.511369 181.492971 
L 164.386341 180.770559 
L 163.780749 178.81937 
L 163.195703 178.010005 
L 162.804433 177.25699 
L 162.360476 176.791796 
L 161.912693 176.468368 
L 161.776189 176.208606 
L 161.6538 175.690086 
L 161.505733 175.148337 
L 161.291409 174.357168 
L 160.963544 173.809632 
L 160.81811 173.463283 
L 160.541275 171.353781 
L 160.541275 171.484511 
L 160.466007 171.074495 
L 160.385636 170.863121 
L 160.268268 170.77144 
L 160.242753 170.654293 
L 160.434114 169.852088 
L 160.316746 169.382649 
L 159.801348 168.579596 
L 159.685256 168.284181 
L 159.589576 167.858036 
L 159.356116 167.506594 
L 158.819031 166.92595 
L 158.391659 166.200146 
L 158.058691 165.907278 
L 157.96939 165.757023 
L 157.963011 165.487924 
L 157.742309 165.583849 
L 156.562252 165.487924 
L 156.220579 165.698746 
L 155.941302 166.136049 
L 155.384747 166.498108 
L 154.911216 167.115044 
L 154.605493 167.236522 
L 153.834909 167.133864 
L 153.556129 167.024168 
L 153.103729 166.406427 
L 152.922575 166.355494 
L 152.774589 166.434441 
L 152.613846 166.487921 
L 152.444173 166.510841 
L 152.271949 166.498108 
L 152.271949 166.355494 
L 152.552611 166.116105 
L 152.306394 165.572813 
L 151.843301 165.024428 
L 151.463132 164.776551 
L 151.154403 164.625448 
L 150.17081 163.57197 
L 149.945005 163.464161 
L 149.679651 163.499814 
L 149.206353 163.635637 
L 148.916761 163.586401 
L 148.724124 163.452276 
L 148.534145 163.029469 
L 148.22561 162.724216 
L 147.798932 162.535313 
L 147.648678 162.425963 
L 147.50396 162.280027 
L 147.2069 162.357439 
L 146.955953 162.144979 
L 146.783729 162.069428 
L 146.71739 161.715439 
L 147.109041 161.153471 
L 147.222582 160.704406 
L 147.116696 160.345324 
L 147.116696 160.148381 
L 147.269784 160.062643 
L 147.454766 160.019349 
L 147.61806 159.909842 
L 147.752013 159.767227 
L 148.090289 159.632922 
L 148.183454 159.416071 
L 148.149493 158.816683 
L 147.799215 158.109337 
L 146.434177 155.155186 
L 146.005529 154.443813 
L 145.597293 153.912406 
L 145.19416 153.487959 
L 144.759134 153.135668 
L 144.292214 152.993053 
L 143.787023 153.199335 
L 143.32393 153.568604 
L 143.130018 153.620386 
L 142.309719 153.569452 
L 142.114531 153.635666 
L 141.456251 154.223101 
L 141.031431 154.309688 
L 140.595129 154.178958 
L 140.128209 153.912406 
L 139.889646 154.078789 
L 139.11655 154.268941 
L 138.795064 154.549076 
L 138.0781 154.934474 
L 137.87143 155.20612 
L 137.67114 154.917496 
L 137.641798 154.480316 
L 137.794886 154.083882 
L 138.138059 153.912406 
L 138.453166 153.886939 
L 138.573086 153.822423 
L 138.742906 153.678626 
L 138.846138 153.424292 
L 139.463974 152.799368 
L 139.968103 152.609207 
L 140.021047 152.267249 
L 139.933021 151.887794 
L 139.721249 151.584738 
L 139.439311 151.358084 
L 139.104662 151.444501 
L 138.855611 151.320228 
L 138.683639 151.222605 
L 138.497426 150.999391 
L 138.247463 150.834314 
L 137.969662 150.48627 
L 137.396856 149.834319 
L 137.112367 149.611909 
L 136.822775 149.585593 
L 136.394127 149.63398 
L 136.006303 149.766407 
L 135.835354 149.987969 
L 135.68992 150.395438 
L 135.356672 150.401632 
L 135.096347 150.092152 
L 134.620362 150.033697 
L 134.248338 149.804608 
L 134.004672 149.715474 
L 133.794175 149.768105 
L 133.694668 149.957409 
L 133.713804 150.204437 
L 133.773763 150.481176 
L 133.794175 150.764707 
L 133.68055 150.707067 
L 133.248128 150.637977 
L 133.145513 150.494133 
L 133.319601 149.636527 
L 133.197455 148.872685 
L 132.835002 147.879138 
L 131.957114 146.323293 
L 131.405996 145.953176 
L 131.214635 145.754535 
L 131.161054 145.556742 
L 131.132988 145.112771 
L 131.099819 144.899698 
L 130.686956 144.061922 
L 130.176019 143.174939 
L 129.216093 141.953479 
L 128.140109 140.982901 
L 127.930888 140.898861 
L 127.463969 141.021102 
L 127.222854 141.018555 
L 127.116968 140.832647 
L 126.142305 140.967621 
L 125.660077 141.28341 
L 125.845058 141.907347 
L 125.351348 141.937907 
L 125.202087 141.907347 
L 125.057929 141.754546 
L 124.968627 141.550812 
L 124.888256 141.456584 
L 124.773439 141.622119 
L 124.657347 141.622119 
L 124.352446 141.258792 
L 121.90941 140.097505 
L 121.304711 140.078829 
L 120.035352 140.328404 
L 119.755966 140.448098 
L 119.194642 140.819914 
L 118.619285 141.014311 
L 118.242942 141.521949 
L 117.89339 141.622119 
L 117.523426 141.501576 
L 117.400956 141.232476 
L 117.348651 140.888674 
L 117.195562 140.540628 
L 117.011856 140.270679 
L 116.709506 139.66372 
L 116.502837 139.342838 
L 115.630233 138.325014 
L 115.155659 137.917545 
L 114.663224 137.621281 
L 114.340463 137.519414 
L 113.108101 137.457445 
L 112.882296 137.408209 
L 111.785162 136.694289 
L 111.399889 136.533848 
L 111.218735 136.689196 
L 111.10647 136.912455 
L 110.857701 136.669671 
L 109.700608 134.896332 
L 108.170999 133.089036 
L 106.521471 131.596681 
L 106.27653 131.407377 
L 105.86064 131.280892 
L 105.615698 131.077158 
L 105.484297 131.030468 
L 105.018653 130.941335 
L 104.894907 130.887854 
L 104.651241 130.587346 
L 104.521116 130.22317 
L 104.467535 129.818248 
L 104.458605 129.392952 
L 104.380785 128.98803 
L 104.198354 128.570374 
L 103.815633 127.89805 
L 103.459703 127.399749 
L 101.93137 126.21724 
L 101.756594 126.112826 
L 101.614987 125.952385 
L 101.557579 125.682436 
L 101.467002 125.530484 
L 101.023045 125.463422 
L 100.868681 125.391266 
L 100.662012 125.147633 
L 100.405588 124.920979 
L 100.122375 124.729128 
L 99.844264 124.595003 
L 98.634866 124.625563 
L 98.443505 124.673101 
L 98.359306 124.409944 
L 98.160291 124.001626 
L 97.912799 123.623869 
L 97.695923 123.455788 
L 97.573453 123.168861 
L 97.231555 122.71725 
L 97.160114 122.535586 
L 97.118014 122.208762 
L 97.012128 121.862414 
L 96.165039 120.125576 
L 95.789972 119.557666 
L 93.922293 118.107755 
L 93.141542 117.888741 
L 92.066096 117.319982 
L 91.682099 117.187554 
L 91.682099 117.033056 
L 91.536665 116.951562 
L 91.375923 116.897233 
L 91.204974 116.87601 
L 91.031474 116.890442 
L 91.147566 117.033056 
L 90.692128 117.028811 
L 89.532483 116.606062 
L 89.321986 116.575502 
L 89.036221 116.578049 
L 88.783625 116.646809 
L 88.675187 116.812343 
L 88.621607 117.135772 
L 88.391974 117.472783 
L 88.353702 117.744429 
L 88.209544 117.680762 
L 88.053904 117.680762 
L 87.939087 117.713869 
L 87.916124 117.744429 
L 87.78855 117.637468 
L 87.580605 117.370915 
L 87.143027 117.223208 
L 86.952943 116.98382 
L 86.831748 116.657845 
L 86.834556 116.42638 
L 87.02566 116.14681 
L 87.243395 116.073773 
L 87.694782 116.231511 
L 88.045543 116.210004 
L 88.28854 115.862235 
L 88.425797 115.366341 
L 88.434073 114.856492 
L 88.400904 114.52033 
L 88.074315 113.99062 
L 87.955672 113.618804 
L 87.801308 113.636631 
L 87.622705 113.725765 
L 87.488752 113.743592 
L 87.289737 113.45327 
L 87.153233 113.061081 
L 86.998869 112.724919 
L 86.739895 112.603527 
L 86.691417 112.196058 
L 86.309971 111.88706 
L 85.561114 111.451578 
L 85.475639 111.202003 
L 85.402922 110.864992 
L 85.314896 110.567879 
L 85.177117 110.442243 
L 85.038062 110.364145 
L 84.587726 109.885368 
L 83.761049 109.449037 
L 81.259329 108.603538 
L 81.636947 108.296239 
L 81.786208 107.960077 
L 81.809171 107.565341 
L 81.79769 107.087414 
L 81.846168 106.9448 
L 81.938021 106.854817 
L 81.986499 106.719843 
L 81.912506 106.439708 
L 81.764521 106.228333 
L 81.56423 106.082323 
L 80.477302 105.586569 
L 79.710584 105.389626 
L 78.938763 105.364159 
L 78.246038 105.584871 
L 78.314928 105.800491 
L 78.363406 105.884531 
L 77.924552 106.082323 
L 77.62603 105.764837 
L 77.281581 104.730884 
L 77.675784 104.407456 
L 77.901589 104.024604 
L 78.246038 102.866713 
L 78.192457 102.617138 
L 78.192457 102.174016 
L 78.249865 101.724102 
L 78.363406 101.454153 
L 78.234557 101.096769 
L 78.173321 100.657891 
L 78.149082 99.803904 
L 78.075089 99.375212 
L 77.899038 98.957556 
L 76.646264 96.416817 
L 75.648638 95.068773 
L 75.425384 94.816651 
L 74.911262 94.574717 
L 74.768379 94.246195 
L 74.416276 92.662158 
L 73.934047 87.637555 
L 73.740135 86.860817 
L 73.08951 85.325168 
L 72.627693 84.59427 
L 71.934968 84.105307 
L 71.454015 83.311591 
L 71.215452 83.131626 
L 70.924584 83.045039 
L 70.349227 82.663036 
L 70.027741 82.574751 
L 69.772594 82.449964 
L 69.615678 82.41431 
L 69.546788 82.503444 
L 69.493207 82.620592 
L 69.366909 82.707179 
L 69.211269 82.72925 
L 69.068387 82.646058 
L 68.820894 82.401577 
L 68.29529 81.994108 
L 68.038867 81.720764 
L 67.864091 81.828574 
L 67.361451 81.394789 
L 67.07441 81.423651 
L 67.181572 81.57815 
L 67.108855 81.613803 
L 67.036138 81.676622 
L 66.967248 81.720764 
L 67.043792 81.889694 
L 67.139473 82.016179 
L 67.258116 82.101069 
L 67.404826 82.148607 
L 67.404826 82.277638 
L 67.312973 82.338759 
L 67.269598 82.401577 
L 67.181572 82.574751 
L 67.386965 82.695294 
L 67.327006 82.802255 
L 67.166263 82.778486 
L 67.07441 82.503444 
L 66.971075 82.338759 
L 66.21839 82.004295 
L 65.419779 81.29377 
L 65.245003 81.204636 
L 64.820183 80.812447 
L 64.661991 80.723314 
L 64.202726 80.691905 
L 64.011366 80.644366 
L 63.855726 80.567966 
L 63.308435 79.953367 
L 63.210203 79.9279 
L 63.101765 79.663894 
L 62.842791 79.485626 
L 62.133481 79.170686 
L 61.94212 79.033166 
L 61.796686 78.843862 
L 61.712488 78.573914 
L 61.52623 78.657955 
L 61.234086 78.702097 
L 60.966182 78.664746 
L 60.847538 78.502607 
L 60.740376 78.303966 
L 59.990243 77.990724 
L 59.883081 77.518739 
L 58.23738 76.64268 
L 57.73474 76.2819 
L 57.584203 76.483088 
L 57.469387 76.704649 
L 57.408151 76.966958 
L 57.422184 77.291235 
L 56.706496 77.020438 
L 56.418179 76.806517 
L 56.448797 76.567129 
L 56.157929 76.080712 
L 55.719076 75.859151 
L 54.138438 75.581563 
L 53.38065 75.320103 
L 52.92266 75.074773 
L 52.779778 75.129951 
L 52.056435 75.112973 
L 51.695401 75.034875 
L 51.575482 74.957626 
L 51.407085 74.722482 
L 50.39415 74.646082 
L 49.998671 74.715691 
L 49.804759 74.81586 
L 49.350597 75.175791 
L 49.186027 75.355757 
L 49.080141 75.427064 
L 48.960221 75.426215 
L 48.832648 75.408388 
L 48.712728 75.427064 
L 47.750823 76.093446 
L 47.482918 76.139286 
L 47.29666 76.209744 
L 46.912664 76.567129 
L 45.749192 77.313306 
L 45.411121 77.738602 
L 45.492768 78.146071 
L 45.332026 78.379517 
L 45.286099 78.496665 
L 45.268239 78.645221 
L 45.221036 78.695306 
L 44.983749 78.848956 
L 44.899551 78.924507 
L 44.815352 79.174931 
L 44.847246 79.403283 
L 44.842143 79.623996 
L 44.627819 79.856593 
L 44.233616 80.040803 
L 43.357185 80.313298 
L 42.905574 80.567966 
L 42.668287 80.766607 
L 42.464169 80.983075 
L 42.098032 81.500052 
L 42.048279 81.651155 
L 42.067415 81.985619 
L 42.048279 82.148607 
L 41.951323 82.467791 
L 41.833955 82.717366 
L 41.094028 83.522117 
L 40.836329 84.01108 
L 41.076167 84.44062 
L 41.076167 84.568803 
L 40.711306 84.650297 
L 40.24949 85.16982 
L 39.841254 85.332808 
L 39.721335 85.429582 
L 39.625654 85.54588 
L 39.587382 85.651143 
L 39.504459 85.816677 
L 39.31565 85.912602 
L 38.935481 86.007679 
L 37.811556 86.730936 
L 35.085307 87.375247 
L 34.313486 87.870152 
L 33.661584 88.017011 
L 31.733946 88.014464 
L 31.296368 88.157078 
L 31.09225 88.157078 
L 30.968504 88.062002 
L 30.806485 87.997486 
L 30.640639 87.995788 
L 30.333965 86.994459 
L 30.257816 86.466731 
L 30.502464 86.034415 
L 31.181322 85.313708 
L 31.497258 84.827487 
L 32.307351 84.169849 
L 32.657311 83.79575 
L 32.778825 83.555334 
L 32.90844 83.087441 
L 33.008892 82.83301 
L 33.180632 82.647578 
L 33.407458 82.480473 
L 33.582438 82.256229 
L 33.613221 81.895068 
L 33.550988 81.766749 
L 33.366953 81.387285 
L 33.020233 81.054153 
L 32.829051 80.666039 
L 33.044536 79.987917 
L 32.5601 79.903825 
L 31.915266 80.308111 
L 31.463234 80.34261 
L 28.736462 81.096199 
L 28.106209 81.081106 
L 27.955532 81.047685 
L 27.808095 80.909688 
L 27.723845 80.736115 
L 27.615293 80.584104 
L 27.409529 80.507559 
L 27.001243 80.441795 
L 26.706369 80.322126 
L 25.039197 79.337825 
L 24.410565 79.117894 
L 23.48868 78.647844 
L 23.291017 78.592861 
L 23.080393 78.610111 
L 22.892451 78.670484 
L 22.70613 78.699593 
L 22.497126 78.617658 
L 22.349689 78.457021 
L 22.278401 78.274823 
L 22.226555 78.079688 
L 22.127723 77.87485 
L 21.983527 77.713136 
L 21.672451 77.498595 
L 21.531495 77.357364 
L 21.444005 77.199962 
L 21.259304 76.776271 
L 21.13617 76.571433 
L 20.79107 76.184396 
L 20.726263 76.089524 
L 20.667936 75.897623 
L 20.671176 75.79197 
L 20.710061 75.666911 
L 20.841296 75.015741 
L 20.951468 74.835699 
L 21.478029 74.558629 
L 21.068122 74.231966 
L 20.591787 73.753291 
L 20.240207 73.168964 
L 20.191601 72.51995 
L 20.35848 72.239646 
L 21.157232 71.656396 
L 21.695134 70.769123 
L 21.913859 70.6128 
L 21.737259 70.169702 
L 21.849051 69.746011 
L 22.137444 69.408567 
L 22.497126 69.220979 
L 22.785519 69.218822 
L 23.350964 69.37838 
L 23.631256 69.37299 
L 23.540525 69.10131 
L 23.064191 68.24638 
L 23.004244 68.068495 
L 22.919994 67.553165 
L 22.741774 67.101443 
L 22.753115 67.074491 
L 22.830884 66.745672 
L 22.860047 66.730578 
L 22.858427 66.630315 
L 22.873009 66.574254 
L 22.877869 66.510647 
L 22.843846 66.387744 
L 22.779038 66.283169 
L 22.497126 65.991005 
L 21.711336 65.684826 
L 21.439144 65.663264 
L 20.666316 65.809885 
L 20.369822 65.738731 
L 19.289158 65.142544 
L 18.775559 64.722087 
L 18.501747 64.285458 
L 18.532531 63.117881 
L 18.432079 62.519538 
L 18.020552 62.237077 
L 17.471309 62.188563 
L 17.30605 62.054879 
L 17.118109 61.747622 
L 17.075984 61.558955 
L 17.093806 61.39185 
L 17.069503 61.245229 
L 16.814324 61.037157 
L 16.538892 60.640418 
L 16.725214 60.404315 
L 16.956772 60.221177 
L 17.008746 60.180071 
L 17.552318 59.885751 
L 17.691654 59.862033 
L 17.975187 59.871736 
L 18.098321 59.85233 
L 18.234417 59.779019 
L 18.516329 59.573103 
L 18.634603 59.515964 
L 19.183846 59.60329 
L 19.759012 59.896532 
L 20.322836 60.08412 
L 20.833195 59.85233 
L 20.863978 59.722959 
L 20.773248 59.627008 
L 20.70034 59.513808 
L 20.782969 59.337 
L 20.906103 59.285252 
L 21.272265 59.280939 
L 21.414842 59.248597 
L 21.644908 59.052383 
L 21.917099 58.603896 
L 22.119622 58.421697 
L 22.680207 58.181282 
L 23.23269 58.037895 
L 23.357444 58.088566 
L 23.553487 58.31281 
L 23.636116 58.34084 
L 23.741428 58.239499 
L 24.039543 57.727404 
L 24.465652 57.391038 
L 24.465652 57.063297 
L 24.297152 56.644996 
L 24.217763 56.040185 
L 24.298772 55.917282 
L 24.805891 55.349126 
L 25.129928 54.803609 
L 25.269264 54.485571 
L 25.285466 54.22575 
L 25.163952 54.138425 
L 24.493195 53.86351 
L 24.284191 53.714733 
L 24.157816 53.480786 
L 24.049264 53.220965 
L 23.948121 53.070776 
L 23.895346 52.992409 
L 23.213248 52.510501 
L 22.497126 52.135323 
L 22.378852 51.832379 
L 22.292982 50.969902 
L 22.231415 50.814657 
L 22.059676 50.568851 
L 22.028892 50.400668 
L 22.071017 50.227095 
L 22.250857 49.860542 
L 22.288122 49.741952 
L 22.192531 49.43146 
L 21.999729 49.305323 
L 21.49099 49.184576 
L 21.281986 49.035799 
L 20.925545 48.705902 
L 20.716541 48.632592 
L 20.306634 48.554969 
L 19.883766 48.260649 
L 19.56783 47.816473 
L 19.391229 46.951841 
L 19.349105 46.57882 
L 19.360446 46.206877 
L 19.444696 45.864043 
L 19.643978 45.556786 
L 19.885386 45.422024 
L 20.311026 45.302508 
L 20.446491 45.352987 
L 20.549444 45.410676 
L 20.641559 45.547689 
L 20.739094 45.518844 
L 20.755349 45.425099 
L 20.771605 45.280875 
L 20.782969 45.174062 
L 20.891522 45.158968 
L 21.278746 45.162203 
L 21.612504 45.070565 
L 21.967325 44.902382 
L 22.283261 44.653342 
L 22.497126 44.319132 
L 22.595957 44.037749 
L 22.722332 43.786553 
L 22.887591 43.594652 
L 23.112796 43.495467 
M 107.880074 85.913028 
L 108.36613 85.846186 
L 108.645647 85.391835 
L 108.633217 85.328975 
L 108.641562 85.262937 
L 108.665865 85.209032 
L 108.706369 85.16483 
L 108.721013 85.138002 
L 108.834364 84.930344 
L 108.866768 84.57026 
L 108.816542 84.222035 
L 108.706369 84.024744 
L 108.254337 84.098054 
L 107.7537 84.344938 
L 107.591605 84.502614 
L 107.350274 84.737365 
L 107.193116 85.235445 
L 107.411841 85.680159 
L 107.880074 85.913028 
M 108.251391 127.414712 
L 108.265476 127.414712 
L 108.264648 127.391555 
L 108.249734 127.390453 
L 108.245591 127.400377 
L 108.244763 127.409198 
L 108.251391 127.414712 
" clip-path="url(#p780f38b233)" style="fill: #f5f5f5; stroke: #000000"/>
    <path d="M 101.140413 233.121005 
L 101.737458 233.732209 
L 101.955609 234.071766 
L 101.986227 234.545449 
L 101.627744 235.093835 
L 101.086832 235.019132 
L 100.539541 234.596383 
L 100.16575 234.104873 
L 100.09686 233.96141 
L 99.971838 233.621003 
L 99.928463 233.278899 
L 100.118548 233.121005 
L 100.188713 233.097236 
L 100.30353 233.000462 
L 100.385177 232.978391 
L 100.484684 233.024231 
L 100.635221 233.219477 
L 100.700284 233.263619 
L 100.844442 233.305215 
L 100.949052 233.366335 
L 101.037078 233.340868 
L 101.140413 233.121005 
" clip-path="url(#p780f38b233)" style="fill: #f5f5f5; stroke: #000000"/>
    <path d="M 105.430716 210.097302 
L 105.646316 210.117676 
L 105.804507 210.059951 
L 105.935908 209.983551 
L 106.073688 209.954688 
L 106.184677 210.076929 
L 106.427067 210.232277 
L 106.707729 210.358762 
L 106.929707 210.395264 
L 106.754931 210.62871 
L 106.511265 210.645688 
L 106.261221 210.538727 
L 106.073688 210.395264 
L 105.845331 210.520052 
L 105.659073 210.472514 
L 105.516191 210.312922 
L 105.430716 210.097302 
" clip-path="url(#p780f38b233)" style="fill: #f5f5f5; stroke: #000000"/>
    <path d="M 156.46402 202.521773 
L 156.943697 202.574404 
L 157.832886 202.989513 
L 158.391659 203.092229 
L 158.339354 203.270497 
L 158.247501 203.363875 
L 158.122478 203.391889 
L 157.963011 203.376609 
L 157.327694 203.819731 
L 157.106992 204.100715 
L 157.002381 204.364721 
L 156.953903 204.667777 
L 157.205223 204.659288 
L 156.438506 205.981864 
L 156.020064 207.063355 
L 154.330988 209.333298 
L 152.922575 211.664361 
L 152.620225 212.320556 
L 152.351044 212.759434 
L 151.958117 213.100689 
L 151.516713 213.812062 
L 151.414654 214.09814 
L 151.441444 214.321399 
L 151.603463 214.716983 
L 151.628977 214.953825 
L 151.563915 215.162653 
L 151.345764 215.399494 
L 151.297286 215.600682 
L 151.261565 216.031071 
L 151.070205 216.642275 
L 150.9758 217.090491 
L 150.744892 217.854496 
L 149.993483 218.801861 
L 149.692409 219.382505 
L 149.612037 219.736494 
L 149.580144 220.112554 
L 149.619692 222.176215 
L 149.692409 222.527657 
L 149.799571 222.817979 
L 149.911835 222.983513 
L 150.998763 223.632068 
L 151.585602 223.752611 
L 151.886676 223.966532 
L 152.126515 224.32137 
L 152.271949 224.819671 
L 152.015526 224.562456 
L 151.870092 224.650741 
L 151.764205 224.893524 
L 151.628977 225.104899 
L 151.651941 224.744119 
L 151.560088 224.593016 
L 151.396793 224.593016 
L 151.20033 224.691488 
L 151.297286 224.949551 
L 151.052344 225.369754 
L 151.228396 226.019158 
L 151.570293 226.459734 
L 151.833095 226.258546 
L 152.057625 226.387578 
L 152.057625 226.530192 
L 151.769308 226.576032 
L 151.810132 226.883332 
L 152.042316 227.231379 
L 152.32553 227.396913 
L 152.704424 227.436811 
L 152.930229 227.586216 
L 153.002946 227.89012 
L 152.922575 228.394363 
L 152.69039 228.25854 
L 152.597262 228.428319 
L 152.624052 228.688081 
L 152.751626 228.822206 
L 153.071836 228.779761 
L 153.209615 228.858708 
L 153.341016 229.119319 
L 153.386943 229.455481 
L 153.267024 229.520846 
L 153.102454 229.438503 
L 153.019531 229.327298 
L 152.932781 229.360405 
L 152.379111 229.688927 
L 152.486273 229.831541 
L 152.348493 229.918977 
L 152.312772 229.966515 
L 152.379111 230.104036 
L 152.379111 230.259383 
L 152.009147 230.280606 
L 151.731036 230.432558 
L 151.495025 230.605732 
L 151.250084 230.686377 
L 150.914565 230.864645 
L 150.659417 231.278905 
L 149.864633 233.450376 
L 149.848049 233.691462 
L 149.650309 233.879916 
L 149.726854 234.29927 
L 150.013894 234.973292 
L 150.292005 236.213526 
L 150.281799 236.474136 
L 149.971795 236.79332 
L 149.649034 236.896885 
L 149.330099 236.809449 
L 149.041783 236.552234 
L 148.814702 236.213526 
L 148.694782 236.083645 
L 148.505973 235.969893 
L 148.289098 235.898586 
L 148.142388 235.910471 
L 148.077326 236.0412 
L 147.901274 236.188908 
L 147.507071 236.002151 
L 146.901096 235.542051 
L 146.329566 235.317094 
L 145.775896 235.408774 
L 144.739998 235.969893 
L 144.667281 235.79587 
L 144.625182 235.747483 
L 144.428718 235.827279 
L 144.168468 235.557331 
L 143.232077 235.413868 
L 143.029235 235.044599 
L 142.83022 234.834073 
L 141.907862 234.452071 
L 141.6272 234.260221 
L 141.372053 234.323039 
L 140.139691 234.008948 
L 139.958536 233.767862 
L 138.685351 230.84512 
L 138.298802 230.259383 
L 136.871253 228.779761 
L 135.769016 228.00557 
L 134.480522 227.356166 
L 133.889855 227.241565 
L 132.129339 227.396913 
L 131.987732 227.440206 
L 131.694312 227.636301 
L 131.536121 227.696572 
L 130.844671 227.594705 
L 129.877663 226.786558 
L 129.280618 226.530192 
L 128.607029 226.380787 
L 128.045705 226.122723 
L 127.537961 225.747512 
L 126.211195 224.341743 
L 125.746827 223.991999 
L 125.202087 223.811185 
L 124.483847 223.679606 
L 123.919971 223.463987 
L 123.43264 223.138861 
L 122.659543 222.476723 
L 121.991057 222.056521 
L 121.704016 221.752617 
L 121.558582 221.650749 
L 121.358292 221.579442 
L 121.18224 221.484366 
L 120.794416 220.689802 
L 120.701287 220.603214 
L 120.356838 220.392689 
L 120.179511 220.141416 
L 120.054489 220.019175 
L 119.87461 219.964846 
L 119.790411 219.898632 
L 119.636047 219.604066 
L 119.553124 219.537852 
L 117.631864 219.252624 
L 117.400956 219.374016 
L 117.237661 219.407972 
L 117.0884 219.317989 
L 116.987617 219.122743 
L 116.889385 218.701692 
L 116.824323 218.52682 
L 116.418638 218.068417 
L 115.924928 217.837518 
L 114.663224 217.672832 
L 113.390039 217.718673 
L 112.086236 217.958061 
L 111.484088 217.907976 
L 111.121779 217.55144 
L 110.471153 216.390154 
L 110.2058 216.095587 
L 109.98127 215.975044 
L 109.356159 215.96316 
L 109.083151 215.813754 
L 108.813971 215.455521 
L 108.584338 215.032772 
L 108.437628 214.68133 
L 108.366187 214.372333 
L 108.345775 214.09814 
L 108.301124 213.847716 
L 108.170999 213.60663 
L 107.987293 213.359602 
L 107.841859 213.070129 
L 107.848238 212.814612 
L 108.117418 212.674545 
L 108.140381 212.761132 
L 108.366187 212.610878 
L 108.437628 212.53193 
L 108.40701 212.47081 
L 108.519275 211.893562 
L 108.55372 211.877433 
L 108.636643 211.494582 
L 108.651952 211.314616 
L 108.621334 211.215296 
L 108.481003 210.98185 
L 108.437628 210.796791 
L 108.423595 210.652479 
L 108.429974 210.627012 
L 108.469522 210.584568 
L 108.836934 209.795096 
L 108.932614 209.23992 
L 109.032122 208.896966 
L 109.051258 208.601551 
L 108.875206 208.388479 
L 109.353607 208.179651 
L 109.764395 207.691537 
L 110.182836 207.339246 
L 110.685477 207.533643 
L 111.160051 207.177107 
L 111.362893 206.926683 
L 111.445816 206.595615 
L 111.532566 206.409707 
L 111.745614 206.418196 
L 111.994383 206.496294 
L 112.193398 206.523459 
L 112.518711 206.208519 
L 112.497023 205.699183 
L 112.433236 205.174566 
L 112.619494 204.813786 
L 112.713898 205.059966 
L 112.895053 205.037045 
L 113.076208 205.059966 
L 113.157855 205.441968 
L 113.544403 206.392729 
L 113.976878 207.209365 
L 114.140172 207.377446 
L 114.581577 207.613439 
L 114.76911 207.764542 
L 114.780592 207.947903 
L 115.274302 208.250109 
L 115.949167 208.14994 
L 117.25297 207.533643 
L 117.786228 207.093916 
L 117.916353 206.934323 
L 117.941868 206.842643 
L 117.915078 206.718704 
L 117.89339 206.458094 
L 117.861497 206.268791 
L 117.714787 206.066754 
L 117.681618 205.876602 
L 118.225082 205.372359 
L 118.137056 205.190695 
L 118.228909 205.01073 
L 118.406236 204.869813 
L 118.587391 204.813786 
L 118.743031 204.851138 
L 119.285219 205.08713 
L 119.636047 205.159286 
L 120.072349 205.161833 
L 120.434658 204.983565 
L 120.571162 204.516673 
L 120.812276 204.610052 
L 120.993431 204.553176 
L 121.166931 204.445366 
L 121.474384 204.362175 
L 121.687432 204.255214 
L 121.811178 204.232294 
L 121.89155 204.288321 
L 121.919616 204.4199 
L 121.934925 204.563363 
L 121.971921 204.659288 
L 122.565139 205.08713 
L 122.65444 205.230593 
L 122.676128 205.900371 
L 122.729709 206.096465 
L 122.959342 206.683051 
L 124.874223 206.529401 
L 125.309249 206.873203 
L 125.278631 207.232285 
L 125.30287 207.426682 
L 125.404929 207.662675 
L 125.563121 207.810382 
L 126.027489 208.01921 
L 126.581159 208.51836 
L 127.031494 208.815473 
L 127.762491 208.969122 
L 127.984469 209.087119 
L 127.919407 209.146541 
L 127.911752 209.168612 
L 127.877307 209.243315 
L 128.216653 209.233977 
L 129.220658 209.385929 
L 129.563832 209.295947 
L 130.26166 208.903758 
L 130.905907 208.742468 
L 131.125334 208.57184 
L 131.321797 208.377443 
L 131.536121 208.233131 
L 132.612843 208.037037 
L 132.822064 207.805289 
L 133.480344 208.205118 
L 133.805657 208.338394 
L 134.16669 208.388479 
L 134.396323 208.363861 
L 134.873449 208.233131 
L 136.783227 208.520057 
L 137.692827 208.459786 
L 138.529711 208.219549 
L 139.270914 207.805289 
L 139.776106 208.059957 
L 140.522412 207.909703 
L 142.448774 207.135511 
L 142.967999 206.766242 
L 143.41068 206.310386 
L 144.002622 205.547231 
L 144.176122 205.469132 
L 144.690244 205.513275 
L 145.01173 205.490355 
L 146.201992 205.170322 
L 146.421419 205.02601 
L 146.569405 204.956401 
L 146.719942 204.919898 
L 147.162622 204.956401 
L 147.314435 205.042988 
L 147.597649 205.426688 
L 147.702259 205.513275 
L 147.891068 205.533648 
L 148.29165 205.668623 
L 148.789187 205.637213 
L 148.944827 205.668623 
L 149.008614 205.73993 
L 149.168081 206.004785 
L 149.253555 206.096465 
L 149.554629 206.160132 
L 149.827637 206.050625 
L 150.098093 205.892731 
L 150.95794 205.574395 
L 151.363624 205.011579 
L 151.950463 203.804451 
L 151.901985 203.64401 
L 151.877746 203.59817 
L 151.891779 203.547237 
L 151.950463 203.376609 
L 151.894331 203.311244 
L 151.988735 203.311244 
L 152.038489 203.52941 
L 151.950463 204.031106 
L 152.02318 204.303601 
L 152.214541 204.45046 
L 152.474791 204.506487 
L 152.751626 204.516673 
L 153.209615 204.436029 
L 154.441977 203.983568 
L 154.790253 203.733144 
L 154.976511 203.554028 
L 155.590141 203.248426 
L 156.216527 202.627035 
L 156.46402 202.521773 
" clip-path="url(#p780f38b233)" style="fill: #f5f5f5; stroke: #000000"/>
    <path d="M 147.648678 199.803614 
L 147.648678 200.100727 
L 147.901274 200.231457 
L 148.077326 200.427551 
L 148.203624 200.672882 
L 148.29165 200.956412 
L 148.15387 201.094782 
L 147.970164 201.239943 
L 147.605303 200.87322 
L 147.365465 200.565072 
L 147.319538 200.234852 
L 147.53131 199.803614 
L 147.648678 199.803614 
" clip-path="url(#p780f38b233)" style="fill: #f5f5f5; stroke: #000000"/>
    <path d="M 146.730148 198.947929 
L 146.600022 198.786639 
L 146.619158 198.431801 
L 146.760765 198.084604 
L 146.998052 197.937745 
L 147.516002 197.944536 
L 147.644851 198.065079 
L 147.53131 198.365588 
L 147.635921 198.45557 
L 147.771149 198.611767 
L 147.852796 198.664398 
L 147.852796 198.792581 
L 147.434354 198.792581 
L 147.516002 199.039609 
L 147.568307 199.134686 
L 147.648678 199.220424 
L 147.648678 199.375772 
L 147.373119 199.428403 
L 147.151141 199.267113 
L 146.947023 199.05489 
L 146.730148 198.947929 
" clip-path="url(#p780f38b233)" style="fill: #f5f5f5; stroke: #000000"/>
    <path d="M 146.033595 197.38172 
L 146.00808 197.584605 
L 145.417414 197.323146 
L 144.944116 196.910583 
L 145.275807 196.655915 
L 145.847338 196.632995 
L 146.091003 196.711942 
L 146.247919 196.953877 
L 146.168823 197.043011 
L 146.121621 197.142331 
L 146.033595 197.38172 
" clip-path="url(#p780f38b233)" style="fill: #f5f5f5; stroke: #000000"/>
    <path d="M 45.589724 186.438627 
L 45.622894 186.553228 
L 45.703265 186.611802 
L 45.809151 186.603313 
L 45.91121 186.517574 
L 45.925243 186.49805 
L 45.954585 186.466641 
L 46.028578 186.517574 
L 45.717298 186.793465 
L 45.643305 186.934381 
L 45.707092 187.087182 
L 45.559107 187.385993 
L 45.443015 188.091424 
L 45.293753 188.657636 
L 45.222312 188.748468 
L 45.056466 188.796855 
L 44.867657 188.76969 
L 44.807698 188.66273 
L 44.792389 188.515022 
L 44.734981 188.369012 
L 44.163451 187.357979 
L 43.918509 186.676318 
L 43.984847 186.232346 
L 43.984847 186.076998 
L 43.86748 186.076998 
L 43.86748 185.934384 
L 44.092009 185.50824 
L 44.492591 185.781583 
L 44.990128 185.749325 
L 45.412397 185.82997 
L 45.589724 186.438627 
" clip-path="url(#p780f38b233)" style="fill: #f5f5f5; stroke: #000000"/>
    <path d="M 43.237266 183.940332 
L 43.24492 184.618599 
L 43.334222 185.463248 
L 43.237266 185.79177 
L 42.989773 185.911464 
L 42.665735 185.883451 
L 42.436103 185.73829 
L 42.476926 185.50824 
L 42.476926 185.37751 
L 42.090378 184.966645 
L 41.96408 184.696697 
L 42.048279 184.368175 
L 42.288117 184.197547 
L 42.9936 184.0422 
L 43.237266 183.940332 
" clip-path="url(#p780f38b233)" style="fill: #f5f5f5; stroke: #000000"/>
    <path d="M 131.633077 152.47353 
L 131.478713 152.38949 
L 131.242701 152.413259 
L 130.987554 152.506637 
L 130.778333 152.628878 
L 130.650759 152.516824 
L 130.301208 152.345347 
L 130.135362 152.188302 
L 130.245075 151.779984 
L 130.329274 151.588134 
L 130.464502 151.490511 
L 130.418575 151.409017 
L 130.349686 151.205283 
L 130.66862 151.205283 
L 131.658592 151.564365 
L 131.964768 151.775739 
L 131.915015 151.903074 
L 131.911188 152.024465 
L 131.964768 152.188302 
L 131.852504 152.260458 
L 131.633077 152.47353 
" clip-path="url(#p780f38b233)" style="fill: #f5f5f5; stroke: #000000"/>
    <path d="M 42.749934 145.053348 
L 42.37997 145.335181 
L 42.377419 145.912429 
L 42.305978 146.381018 
L 41.729345 146.336027 
L 41.854367 146.143328 
L 41.918154 145.948082 
L 41.941117 145.747743 
L 41.941117 145.546555 
L 42.030418 145.377626 
L 42.226882 145.162007 
L 42.530507 144.899698 
L 42.763967 144.792738 
L 42.798412 144.543163 
L 42.763967 144.257934 
L 42.798412 144.044013 
L 42.900471 144.018546 
L 43.178582 144.056747 
L 43.237266 143.972706 
L 43.270435 143.873385 
L 43.354633 143.774065 
L 43.5562 143.617019 
L 43.552373 143.779158 
L 43.584266 143.901399 
L 43.653156 144.044013 
L 43.803693 144.207001 
L 43.847068 144.448936 
L 43.793487 144.701906 
L 43.653156 144.899698 
L 42.749934 145.053348 
" clip-path="url(#p780f38b233)" style="fill: #f5f5f5; stroke: #000000"/>
    <path d="M 66.5386 155.491348 
L 66.982557 155.920889 
L 67.07441 156.061805 
L 67.078237 156.270633 
L 66.898358 156.627169 
L 66.851156 156.838543 
L 66.797575 157.289306 
L 66.664898 157.607641 
L 66.316622 158.197622 
L 66.060199 158.959929 
L 65.866287 159.240064 
L 65.521838 159.349572 
L 65.287103 159.466719 
L 65.105948 159.746854 
L 64.827837 160.347022 
L 64.624995 160.587259 
L 64.238447 160.933608 
L 64.067498 161.214592 
L 63.934821 161.622061 
L 63.91441 161.942094 
L 63.980748 162.822397 
L 64.012641 163.017642 
L 64.381329 164.09404 
L 64.544624 164.365686 
L 64.774256 164.478589 
L 64.90183 164.59319 
L 65.252658 165.100828 
L 65.598382 165.359741 
L 65.567765 165.680623 
L 64.98858 167.258717 
L 64.8929 167.920854 
L 65.03961 168.49216 
L 65.131463 168.420853 
L 65.245003 168.355488 
L 65.338132 168.359732 
L 65.371301 168.49216 
L 65.320272 168.685708 
L 65.220764 168.734094 
L 65.114878 168.736641 
L 65.03961 168.790121 
L 64.927345 169.06007 
L 64.846973 169.317285 
L 64.839319 169.561766 
L 64.932448 169.786723 
L 64.827837 169.786723 
L 64.827837 169.915755 
L 64.900554 169.9582 
L 64.965617 170.030356 
L 65.03961 170.071951 
L 65.03961 170.200983 
L 64.845698 170.450558 
L 64.709194 170.888587 
L 64.626271 171.413204 
L 64.603308 171.924238 
L 64.621168 172.189093 
L 64.701539 172.700127 
L 64.720675 172.992147 
L 64.68623 173.202672 
L 64.540796 173.549021 
L 64.506351 173.852925 
L 64.471907 173.980259 
L 64.39919 174.143247 
L 64.326473 174.360564 
L 64.292028 174.642397 
L 64.39919 175.569389 
L 64.355815 176.147486 
L 63.970542 177.504867 
L 64.228241 177.876683 
L 64.136388 178.533727 
L 63.746012 179.641533 
L 63.557203 180.553245 
L 63.531688 180.858847 
L 63.580166 181.166996 
L 63.706464 181.369032 
L 64.067498 181.648319 
L 64.067498 181.778199 
L 63.63885 181.943734 
L 63.24082 182.417417 
L 63.016291 183.0057 
L 63.105592 183.51249 
L 62.985673 183.695002 
L 63.036703 183.815545 
L 63.148967 183.927599 
L 63.210203 184.070213 
L 63.178309 184.230654 
L 63.0316 184.64831 
L 62.99843 184.859684 
L 62.863202 185.058326 
L 62.577437 185.177171 
L 62.31336 185.367323 
L 62.248297 185.79177 
L 62.125826 185.720463 
L 62.068418 185.649156 
L 62.076073 185.545591 
L 62.143687 185.37751 
L 61.900021 185.18566 
L 61.655079 185.144913 
L 61.413965 185.221313 
L 61.17923 185.37751 
L 61.061862 185.37751 
L 60.985318 185.190753 
L 60.843711 185.081246 
L 60.526052 184.9242 
L 60.130574 184.442029 
L 60.039997 184.368175 
L 59.886908 184.277343 
L 59.528426 183.874967 
L 59.397025 183.784985 
L 59.232455 183.74254 
L 59.014304 183.635579 
L 58.815289 183.498059 
L 58.699197 183.357142 
L 58.592035 183.51249 
L 58.371333 183.372422 
L 58.076637 183.275648 
L 57.51021 183.216226 
L 57.214239 183.359689 
L 56.955265 183.650859 
L 56.779213 183.939483 
L 56.721805 184.070213 
L 56.265091 183.91911 
L 55.898954 183.560877 
L 55.263638 182.788383 
L 55.118203 182.902135 
L 54.989354 182.808757 
L 54.864332 182.632187 
L 54.726552 182.503155 
L 54.502023 182.447977 
L 54.337453 182.467501 
L 54.315765 182.537111 
L 54.522434 182.632187 
L 54.522434 182.788383 
L 54.448442 182.957313 
L 54.540295 183.054936 
L 54.67042 183.129639 
L 54.712519 183.234901 
L 54.726552 183.216226 
L 54.90388 183.265462 
L 55.294255 183.177177 
L 55.370799 183.287533 
L 55.370799 183.455614 
L 55.356766 183.54305 
L 54.724001 184.238294 
L 54.530089 184.526069 
L 54.406342 184.9242 
L 54.369346 185.389394 
L 54.412721 185.804503 
L 54.504574 186.176319 
L 54.620666 186.517574 
L 54.711243 186.644909 
L 54.805648 186.754416 
L 54.823508 186.903821 
L 54.578567 187.34185 
L 54.406342 188.07105 
L 54.522434 188.07105 
L 54.356589 188.189047 
L 54.308111 188.167824 
L 54.192018 188.07105 
L 54.061893 188.331661 
L 52.468498 190.011622 
L 52.362612 190.062556 
L 52.198042 190.078685 
L 52.118946 190.141503 
L 51.945446 190.433522 
L 51.819148 190.518412 
L 51.634166 190.464931 
L 51.421118 190.292606 
L 51.069015 189.935222 
L 51.069015 190.363064 
L 50.843209 189.966631 
L 50.460488 189.633864 
L 50.035668 189.419943 
L 49.67591 189.379196 
L 49.331461 189.532846 
L 48.927052 189.838448 
L 48.657872 190.23573 
L 48.712728 190.661026 
L 48.49075 190.80364 
L 48.393794 190.661026 
L 48.520092 190.268837 
L 48.368279 190.15169 
L 48.09272 190.14405 
L 47.846503 190.078685 
L 47.846503 189.935222 
L 48.08379 189.579535 
L 48.091445 189.066803 
L 47.900084 188.705174 
L 47.536499 188.796855 
L 47.414028 187.689048 
L 47.215013 186.790069 
L 47.097645 186.790069 
L 46.975175 186.903821 
L 46.607762 186.703482 
L 46.350064 186.660189 
L 46.422781 186.555775 
L 46.564387 186.232346 
L 46.350064 186.076998 
L 46.010718 186.296013 
L 46.000512 186.217066 
L 45.92907 186.085487 
L 45.862732 185.733196 
L 45.733883 185.481075 
L 45.56421 185.367323 
L 45.375401 185.50824 
L 45.309062 185.29262 
L 45.319268 184.778191 
L 45.268239 184.510789 
L 45.158525 184.360535 
L 45.007988 184.273948 
L 44.911032 184.307055 
L 44.95951 184.510789 
L 44.862554 184.440331 
L 44.792389 184.335068 
L 44.75029 184.189907 
L 44.734981 184.005697 
L 44.692881 183.776496 
L 44.597201 183.716224 
L 44.486212 183.708584 
L 44.402013 183.642371 
L 44.287197 183.340164 
L 44.270612 183.161897 
L 44.348432 183.010793 
L 45.127908 182.063428 
L 45.217209 181.676332 
L 44.95951 181.220476 
L 44.983749 180.900443 
L 44.432631 180.469205 
L 44.306333 180.069376 
L 44.371396 179.880072 
L 44.645679 179.539666 
L 44.734981 179.369038 
L 44.792389 179.06089 
L 44.773253 178.880075 
L 44.548723 178.327445 
L 44.493866 178.261232 
L 44.5079 178.172098 
L 44.627819 177.931012 
L 45.056466 177.362253 
L 45.266963 177.015904 
L 45.523386 176.325753 
L 45.707092 175.938658 
L 45.589724 175.781612 
L 45.714747 175.49978 
L 45.687956 175.098253 
L 45.492768 174.228136 
L 45.446842 173.284166 
L 45.375401 173.063454 
L 45.375401 172.92084 
L 45.441739 172.725594 
L 45.403467 172.179755 
L 45.43536 172.065154 
L 45.649684 172.107599 
L 45.788739 172.223049 
L 46.277347 173.031196 
L 46.546527 173.324913 
L 46.88077 173.452247 
L 47.311969 173.346984 
L 46.508255 173.083827 
L 46.350064 172.92084 
L 46.388336 172.566851 
L 46.592454 172.212862 
L 46.837395 171.89198 
L 46.990484 171.63901 
L 46.885873 171.63901 
L 46.832292 171.782473 
L 46.759575 171.900469 
L 46.671549 171.996394 
L 46.564387 172.065154 
L 46.748094 171.856327 
L 46.920318 171.507431 
L 47.046616 171.133069 
L 47.097645 170.849538 
L 47.146123 170.184005 
L 47.120609 169.948862 
L 46.990484 169.644109 
L 46.648586 169.220511 
L 46.189321 168.937829 
L 45.701989 168.902176 
L 45.268239 169.217964 
L 45.375401 169.346996 
L 45.427706 169.23664 
L 45.496596 169.215417 
L 45.588449 169.228151 
L 45.707092 169.217964 
L 45.525938 169.345298 
L 45.413673 169.538846 
L 45.268239 170.071951 
L 45.163628 169.915755 
L 45.301408 169.68146 
L 45.199349 169.505739 
L 45.000334 169.358032 
L 44.769426 169.13647 
L 44.724775 169.123737 
L 44.686503 169.085537 
L 44.627819 168.932736 
L 44.61251 168.769748 
L 44.655885 168.634774 
L 44.712017 168.504893 
L 44.734981 168.362279 
L 44.61251 167.593181 
L 44.627819 167.352095 
L 44.815352 166.905577 
L 44.824282 166.647513 
L 44.627819 166.355494 
L 44.402013 166.482828 
L 44.356087 166.406427 
L 44.470903 166.2358 
L 44.734981 166.070265 
L 44.783459 166.077905 
L 45.259309 166.046496 
L 45.534868 165.940384 
L 45.649684 165.914918 
L 45.788739 165.813899 
L 45.952034 165.563475 
L 46.082159 165.242594 
L 46.124258 164.931049 
L 46.047714 164.64667 
L 45.768328 164.091493 
L 45.707092 163.706944 
L 45.648408 162.604231 
L 45.91121 161.641585 
L 45.906107 161.01595 
L 45.699438 160.549059 
L 45.360092 160.195919 
L 44.95951 159.907295 
L 44.842143 160.062643 
L 44.493866 159.771472 
L 44.455594 159.354665 
L 44.627819 158.26893 
L 44.564032 157.882683 
L 44.398186 157.332599 
L 44.173656 156.843637 
L 43.927439 156.630564 
L 43.64295 156.456541 
L 43.520479 156.036338 
L 43.452865 155.519362 
L 43.334222 155.050772 
L 43.012736 154.689993 
L 42.633842 154.717157 
L 41.833955 155.20612 
L 41.515021 155.050772 
L 41.66173 154.639059 
L 41.833955 154.33855 
L 41.474197 154.228194 
L 41.211395 154.455698 
L 41.048101 154.876749 
L 40.979211 155.348734 
L 40.842707 155.056715 
L 40.75213 154.734984 
L 40.64752 154.195936 
L 40.64752 154.067753 
L 40.915424 153.920046 
L 41.16802 153.725649 
L 41.347899 153.413256 
L 41.397653 152.914106 
L 41.438476 152.915804 
L 41.508642 152.813937 
L 41.537984 152.689998 
L 41.455061 152.628878 
L 41.248392 152.616145 
L 41.16802 152.570304 
L 41.076167 152.47353 
L 40.846535 152.095773 
L 40.729167 151.964194 
L 40.540358 151.903922 
L 41.729345 149.055883 
L 41.818646 148.722268 
L 41.833955 148.342812 
L 41.73062 148.032966 
L 41.455061 147.903934 
L 41.247116 147.746889 
L 41.300697 147.389504 
L 41.469094 147.004106 
L 41.611977 146.763869 
L 41.729345 146.763869 
L 41.775271 147.010898 
L 41.891363 147.034667 
L 42.03297 147.029573 
L 42.145235 147.191712 
L 42.135029 147.364886 
L 42.073793 147.614461 
L 42.036797 147.88441 
L 42.098032 148.123798 
L 42.798412 149.055883 
L 43.306155 149.364032 
L 45.056466 149.611909 
L 45.934173 149.875066 
L 46.296483 149.910719 
L 46.60266 149.858088 
L 47.82354 149.315645 
L 48.136095 149.040603 
L 48.38614 148.718872 
L 48.49075 148.408177 
L 49.559818 147.903934 
L 49.947642 147.890352 
L 50.219374 147.935343 
L 50.426043 148.046548 
L 51.336919 147.34706 
L 51.604824 147.049098 
L 52.164873 146.078812 
L 52.362612 145.909033 
L 52.330718 145.829237 
L 52.330718 145.805468 
L 52.320512 145.793584 
L 52.25545 145.754535 
L 52.756814 145.566929 
L 52.907351 145.481191 
L 53.013238 145.337728 
L 53.180359 144.971854 
L 53.277315 144.899698 
L 53.472503 144.787644 
L 53.739132 144.523638 
L 53.973867 144.217188 
L 54.206052 143.705304 
L 54.507126 143.560144 
L 55.577469 143.427716 
L 55.808377 143.338582 
L 56.244679 142.903949 
L 56.342911 143.060994 
L 56.589128 142.724832 
L 56.680981 142.406497 
L 56.672051 141.545718 
L 56.8009 141.180694 
L 57.096871 141.009217 
L 57.448975 140.911594 
L 57.73474 140.76898 
L 57.766633 140.958284 
L 57.854659 141.056755 
L 57.989887 141.079675 
L 58.160836 141.039777 
L 58.321579 141.311423 
L 58.311373 142.034681 
L 58.482322 142.179842 
L 58.424914 142.085615 
L 58.408329 141.968467 
L 58.428741 141.817364 
L 58.482322 141.622119 
L 58.592035 141.622119 
L 58.654546 141.893765 
L 58.639237 141.955734 
L 58.592035 142.049961 
L 58.592035 142.179842 
L 58.815289 142.149282 
L 58.907142 142.118722 
L 59.018131 142.049961 
L 59.081918 142.149282 
L 59.339617 142.33519 
L 59.374062 141.832644 
L 59.638139 141.924325 
L 60.204567 142.477804 
L 60.204567 142.33519 
L 60.337243 142.41159 
L 60.453335 142.45743 
L 60.582185 142.477804 
L 60.740376 142.477804 
L 60.740376 142.607685 
L 60.656177 142.671352 
L 60.614078 142.739263 
L 60.579633 142.815664 
L 60.526052 142.903949 
L 60.705931 142.984593 
L 60.806714 143.134848 
L 60.90367 143.311418 
L 61.061862 143.474405 
L 60.970009 143.631451 
L 60.966182 143.841128 
L 61.061862 144.329242 
L 61.237913 143.912435 
L 61.337421 143.734167 
L 61.487958 143.617019 
L 61.436928 143.521943 
L 61.410138 143.443845 
L 61.368039 143.377631 
L 61.276186 143.319907 
L 61.472649 143.198515 
L 61.666561 143.211248 
L 61.869403 143.27916 
L 62.083727 143.319907 
L 62.17558 143.254542 
L 62.245746 143.146732 
L 62.332496 143.124661 
L 62.462621 143.319907 
L 62.345253 143.474405 
L 62.49579 143.575424 
L 62.596573 143.684931 
L 62.680772 143.725678 
L 62.784107 143.617019 
L 62.891269 143.617019 
L 62.916783 143.707002 
L 62.925713 143.722282 
L 62.94485 143.718887 
L 62.99843 143.758785 
L 62.978019 144.013453 
L 62.933368 144.222281 
L 62.841515 144.415829 
L 62.676945 144.627203 
L 62.643776 144.527034 
L 62.596573 144.426015 
L 62.569783 144.329242 
L 62.290396 145.587302 
L 62.143687 145.909033 
L 62.462621 145.909033 
L 62.345253 145.61192 
L 62.63357 145.477795 
L 62.80707 145.526182 
L 62.860651 145.725672 
L 62.784107 146.050799 
L 62.863202 146.051647 
L 62.87596 146.017692 
L 62.870857 145.964211 
L 62.891269 145.909033 
L 62.986949 146.020238 
L 63.032875 146.04995 
L 63.105592 146.050799 
L 63.339052 145.816504 
L 63.771527 145.839424 
L 64.219311 146.004958 
L 64.506351 146.193413 
L 64.327748 146.43365 
L 64.089186 146.407334 
L 63.832762 146.274058 
L 63.591648 146.193413 
L 63.330122 146.336027 
L 63.251026 146.667096 
L 63.193618 147.041458 
L 62.99843 147.319895 
L 63.072423 147.606821 
L 62.858099 147.683222 
L 62.143687 147.618706 
L 62.133481 147.721422 
L 62.153893 147.751133 
L 62.023767 147.773204 
L 62.144962 148.017686 
L 62.27126 148.021081 
L 62.411591 147.932796 
L 62.569783 147.903934 
L 62.730526 147.975241 
L 63.011188 148.159451 
L 63.105592 148.201047 
L 63.411769 148.128042 
L 63.645229 147.961659 
L 63.878689 147.838569 
L 64.184866 147.903934 
L 64.108322 148.093237 
L 64.01902 148.233305 
L 63.899101 148.319892 
L 63.746012 148.342812 
L 63.746012 148.472693 
L 64.309888 148.763015 
L 64.39919 148.834322 
L 64.429807 149.086443 
L 64.516557 149.206137 
L 64.649234 149.195951 
L 64.827837 149.055883 
L 64.932448 149.255373 
L 65.082985 149.376765 
L 65.264139 149.442979 
L 65.468257 149.483726 
L 64.952859 149.66454 
L 64.794668 149.799514 
L 64.932448 150.065218 
L 64.932448 150.195948 
L 64.692609 150.130583 
L 64.493594 150.23245 
L 64.432359 150.423451 
L 64.603308 150.622093 
L 64.618616 150.390345 
L 64.713021 150.657746 
L 65.154426 151.267252 
L 65.253933 151.555876 
L 65.315169 151.938727 
L 65.789743 152.914106 
L 65.849702 153.190846 
L 65.926247 154.482862 
L 65.978552 154.694237 
L 66.057648 154.857225 
L 66.159707 154.920892 
L 66.376582 154.969279 
L 66.437817 155.096613 
L 66.454402 155.279125 
L 66.5386 155.491348 
" clip-path="url(#p780f38b233)" style="fill: #f5f5f5; stroke: #000000"/>
    <path d="M 83.838869 117.318284 
L 84.115024 117.55744 
L 84.332098 118.015162 
L 84.367377 118.280974 
L 84.527378 118.487521 
L 84.269762 118.736444 
L 84.044262 118.600114 
L 83.460408 117.999499 
L 83.305611 117.744429 
L 83.533563 117.574171 
L 83.525038 117.316586 
L 83.637302 117.204532 
L 83.838869 117.318284 
" clip-path="url(#p780f38b233)" style="fill: #f5f5f5; stroke: #000000"/>
    <path d="M 76.745772 107.747853 
L 76.630955 107.900654 
L 76.554411 108.114576 
L 76.546757 108.359057 
L 76.641161 108.603538 
L 76.536551 108.954981 
L 76.383462 109.187578 
L 76.174241 109.342925 
L 75.891028 109.457526 
L 76.190826 109.587407 
L 76.460006 109.931209 
L 76.546757 110.320851 
L 76.30947 110.596742 
L 76.238028 110.407438 
L 76.118109 110.387914 
L 75.959918 110.402345 
L 75.77366 110.311513 
L 75.709873 110.19861 
L 75.551682 109.82255 
L 75.505755 109.742754 
L 75.301637 109.620513 
L 75.092416 109.429512 
L 74.89085 109.429512 
L 74.713523 109.885368 
L 74.569364 109.535624 
L 73.955735 109.852262 
L 73.641904 109.587407 
L 73.557705 109.908289 
L 73.482436 110.033076 
L 73.395686 110.043263 
L 72.103365 110.004214 
L 71.752537 109.882822 
L 71.469324 109.58486 
L 71.385125 109.029683 
L 71.545868 108.669752 
L 71.880111 108.447342 
L 72.275589 108.335288 
L 72.609832 108.304728 
L 72.773127 108.343777 
L 73.121403 108.532231 
L 73.312763 108.603538 
L 73.59215 108.629854 
L 73.963389 108.603538 
L 73.94808 108.499973 
L 73.93915 108.477902 
L 73.913636 108.482147 
L 73.856227 108.447342 
L 74.061621 108.304728 
L 74.061621 108.148531 
L 74.061621 108.125611 
L 74.330802 108.161265 
L 74.918916 108.148531 
L 74.844924 108.451586 
L 75.012045 108.571281 
L 75.240402 108.573827 
L 75.355218 108.52544 
L 75.408799 108.330195 
L 75.532546 108.217292 
L 75.670325 108.130705 
L 75.77366 108.019499 
L 75.942057 107.486394 
L 76.064528 107.259739 
L 76.259716 107.165512 
L 76.411528 107.218144 
L 76.55186 107.35142 
L 76.669227 107.539025 
L 76.745772 107.747853 
" clip-path="url(#p780f38b233)" style="fill: #f5f5f5; stroke: #000000"/>
    <path d="M 67.288734 103.163826 
L 67.315524 103.200328 
L 67.348693 103.257204 
L 67.404826 103.301347 
L 67.51937 103.599786 
L 67.320538 104.002823 
L 67.019966 104.346986 
L 66.68363 104.360628 
L 66.418644 103.930098 
L 66.768996 103.138038 
L 67.064222 102.966507 
L 67.288734 103.163826 
" clip-path="url(#p780f38b233)" style="fill: #f5f5f5; stroke: #000000"/>
    <path d="M 106.666905 54.339689 
L 106.976909 53.934766 
L 107.248641 53.753952 
L 107.535682 53.814223 
L 107.903094 54.126616 
L 107.704079 54.028994 
L 107.493583 53.989096 
L 107.045799 53.983153 
L 106.187228 55.538327 
L 106.164265 55.410144 
L 106.288011 55.032386 
L 106.666905 54.339689 
" clip-path="url(#p780f38b233)" style="fill: #f5f5f5; stroke: #000000"/>
    <path d="M 114.627504 253.22621 
L 114.739769 253.225361 
L 114.849482 253.346753 
L 114.891581 253.567465 
L 114.826519 253.642168 
L 114.581577 253.642168 
L 114.487173 253.566616 
L 114.408077 253.424851 
L 114.425937 253.307704 
L 114.527996 253.246583 
L 114.627504 253.22621 
" clip-path="url(#p780f38b233)" style="fill: #f5f5f5; stroke: #000000"/>
    <path d="M 137.93139 197.671192 
L 137.873982 197.418222 
L 138.099787 197.335879 
L 138.157195 197.589699 
L 137.93139 197.671192 
" clip-path="url(#p780f38b233)" style="fill: #f5f5f5; stroke: #000000"/>
    <path d="M 141.530244 196.805321 
L 141.586376 197.024335 
L 141.674402 197.132145 
L 141.678229 197.205999 
L 141.491972 197.224674 
L 141.147523 197.119411 
L 141.023776 196.849463 
L 141.00464 196.592248 
L 141.063324 196.569328 
L 141.341435 196.640635 
L 141.530244 196.805321 
" clip-path="url(#p780f38b233)" style="fill: #f5f5f5; stroke: #000000"/>
    <path d="M 119.477855 193.871543 
L 119.735554 193.86645 
L 119.896297 193.992086 
L 119.91926 194.0583 
L 119.595223 194.377484 
L 119.414069 194.418231 
L 119.230363 194.340981 
L 119.223984 194.183936 
L 119.299252 194.026042 
L 119.477855 193.871543 
" clip-path="url(#p780f38b233)" style="fill: #f5f5f5; stroke: #000000"/>
    <path d="M 151.747621 191.930971 
L 151.854783 191.982754 
L 151.9275 192.061701 
L 151.899434 192.229782 
L 151.820338 192.369001 
L 151.776963 192.49973 
L 151.697867 192.629611 
L 151.585602 192.708558 
L 151.406999 192.662718 
L 151.108477 192.374943 
L 151.108477 192.297694 
L 151.219466 192.18564 
L 151.368727 192.112635 
L 151.449098 192.022652 
L 151.501404 191.927576 
L 151.603463 191.896167 
L 151.747621 191.930971 
" clip-path="url(#p780f38b233)" style="fill: #f5f5f5; stroke: #000000"/>
    <path d="M 123.391816 150.512585 
L 123.473464 150.415811 
L 123.595934 150.390345 
L 123.516839 150.611906 
L 123.325478 150.715471 
L 123.391816 150.512585 
" clip-path="url(#p780f38b233)" style="fill: #f5f5f5; stroke: #000000"/>
    <path d="M 110.894697 260.788157 
L 110.887043 260.819567 
L 110.927867 260.957936 
L 110.887043 261.151484 
L 110.727576 261.216 
L 110.601278 261.171009 
L 110.527285 261.109888 
L 110.458395 261.107342 
L 109.858799 260.823811 
L 109.552622 260.728735 
L 109.395707 260.643845 
L 109.516902 260.54028 
L 109.858799 260.548769 
L 110.034851 260.59461 
L 110.754366 260.671859 
L 110.887043 260.712606 
L 110.925315 260.743166 
L 110.894697 260.788157 
" clip-path="url(#p780f38b233)" style="fill: #f5f5f5; stroke: #000000"/>
    <path d="M 102.280922 209.504774 
L 102.368948 209.667762 
L 102.390635 209.873194 
L 102.163554 209.86131 
L 101.894373 209.65418 
L 101.729803 209.384232 
L 101.625193 209.161821 
L 101.711943 209.022603 
L 101.987502 208.99374 
L 102.158451 209.122772 
L 102.280922 209.504774 
" clip-path="url(#p780f38b233)" style="fill: #f5f5f5; stroke: #000000"/>
    <path d="M 61.561951 141.323308 
L 61.618083 141.482051 
L 61.635943 141.571185 
L 61.632116 141.722288 
L 61.503267 142.292745 
L 61.555572 142.40395 
L 61.563226 142.508364 
L 61.493061 142.657769 
L 61.398656 142.645885 
L 61.273634 142.479502 
L 61.153715 142.377634 
L 61.042726 142.429417 
L 60.970009 142.369145 
L 61.138406 141.970165 
L 61.072068 141.83604 
L 61.117994 141.650132 
L 61.234086 141.36745 
L 61.329767 141.191729 
L 61.456065 141.218045 
L 61.561951 141.323308 
" clip-path="url(#p780f38b233)" style="fill: #f5f5f5; stroke: #000000"/>
    <path d="M 60.874328 141.558452 
L 60.926634 141.645888 
L 60.943218 141.72059 
L 60.315556 141.854716 
L 60.028515 141.79784 
L 59.96728 141.618723 
L 59.96728 141.45234 
L 60.038721 141.369997 
L 60.153537 141.31397 
L 60.261975 141.226534 
L 60.330865 141.079675 
L 60.357655 140.906501 
L 60.423993 140.875941 
L 60.514571 140.863207 
L 60.612802 140.773225 
L 60.732722 140.805483 
L 60.819472 140.947248 
L 60.86795 141.110236 
L 60.866674 141.287654 
L 60.844987 141.462527 
L 60.874328 141.558452 
" clip-path="url(#p780f38b233)" style="fill: #f5f5f5; stroke: #000000"/>
    <path d="M 74.451997 118.190947 
L 74.598706 118.051728 
L 74.747968 118.276685 
L 74.705868 118.628127 
L 74.411173 118.542389 
L 74.451997 118.190947 
" clip-path="url(#p780f38b233)" style="fill: #f5f5f5; stroke: #000000"/>
    <path d="M 71.232037 112.956667 
L 71.300926 113.06193 
L 71.330268 113.119654 
L 71.330268 113.204544 
L 71.29072 113.348856 
L 71.140183 113.443083 
L 70.920757 113.437141 
L 70.714087 113.369229 
L 70.583962 113.245291 
L 70.619683 113.097583 
L 70.77915 113.034765 
L 70.933514 112.859893 
L 71.040676 112.57806 
L 71.11722 112.561931 
L 71.169525 112.78519 
L 71.232037 112.956667 
" clip-path="url(#p780f38b233)" style="fill: #f5f5f5; stroke: #000000"/>
    <path d="M 106.318629 53.226789 
L 106.590361 53.226789 
L 106.850611 53.41779 
L 106.823821 53.658027 
L 106.669457 53.744614 
L 106.434721 53.882135 
L 106.174471 53.831201 
L 106.110684 53.555311 
L 106.318629 53.226789 
" clip-path="url(#p780f38b233)" style="fill: #f5f5f5; stroke: #000000"/>
   </g>
  </g>
 </g>
 <defs>
  <clipPath id="p780f38b233">
   <rect x="7.2" y="7.2" width="205.455627" height="266.112"/>
  </clipPath>
 </defs>
</svg>
