<?xml version="1.0" encoding="utf-8" standalone="no"?>
<!DOCTYPE svg PUBLIC "-//W3C//DTD SVG 1.1//EN"
  "http://www.w3.org/Graphics/SVG/1.1/DTD/svg11.dtd">
<svg xmlns:xlink="http://www.w3.org/1999/xlink" width="371.52pt" height="155.628427pt" viewBox="0 0 371.52 155.628427" xmlns="http://www.w3.org/2000/svg" version="1.1">
 <metadata>
  <rdf:RDF xmlns:dc="http://purl.org/dc/elements/1.1/" xmlns:cc="http://creativecommons.org/ns#" xmlns:rdf="http://www.w3.org/1999/02/22-rdf-syntax-ns#">
   <cc:Work>
    <dc:type rdf:resource="http://purl.org/dc/dcmitype/StillImage"/>
    <dc:date>2024-03-04T13:11:11.309358</dc:date>
    <dc:format>image/svg+xml</dc:format>
    <dc:creator>
     <cc:Agent>
      <dc:title>Matplotlib v3.8.0, https://matplotlib.org/</dc:title>
     </cc:Agent>
    </dc:creator>
   </cc:Work>
  </rdf:RDF>
 </metadata>
 <defs>
  <style type="text/css">*{stroke-linejoin: round; stroke-linecap: butt}</style>
 </defs>
 <g id="figure_1">
  <g id="patch_1">
   <path d="M 0 155.628427 
L 371.52 155.628427 
L 371.52 0 
L 0 0 
z
" style="fill: #ffffff"/>
  </g>
  <g id="axes_1">
   <g id="PatchCollection_1">
    <defs>
     <path id="me879804663" d="M 336.838542 -61.914105 
L 337.871589 -59.409751 
L 339.061707 -56.524023 
L 341.248625 -52.78656 
L 344.039663 -49.824557 
L 348.087273 -46.779923 
L 346.540723 -45.52139 
L 338.868389 -43.576384 
L 333.461507 -40.595312 
L 330.362367 -39.692727 
L 327.716318 -40.3792 
L 328.749364 -41.129235 
L 329.166208 -41.663158 
L 329.746164 -43.576384 
L 327.063867 -42.591168 
L 324.683631 -39.031679 
L 322.097994 -38.243507 
L 319.796293 -38.904555 
L 317.120038 -40.14402 
L 314.395453 -40.849561 
L 309.937041 -39.171517 
L 298.265426 -38.15452 
L 290.031259 -39.413053 
L 288.8351 -39.362203 
L 287.717476 -39.146091 
L 286.503193 -39.304997 
L 284.962685 -40.3792 
L 284.292111 -41.790283 
L 283.99005 -43.595452 
L 283.543001 -45.146372 
L 282.383089 -45.80742 
L 281.18693 -46.176081 
L 280.38949 -47.053241 
L 279.700792 -48.095663 
L 278.782529 -48.915616 
L 274.324117 -49.989819 
L 273.212534 -50.612729 
L 270.928958 -51.540739 
L 267.847941 -51.356408 
L 262.471266 -50.078806 
L 260.175606 -49.799132 
L 252.430777 -50.078806 
L 252.430777 -51.146653 
L 268.74204 -52.1128 
L 267.715035 -53.104371 
L 266.965925 -53.828982 
L 265.020656 -54.273918 
L 260.538079 -54.33748 
L 257.493701 -54.269769 
L 254.391883 -56.121353 
L 251.753131 -57.853055 
L 249.802493 -58.777491 
L 249.342034 -57.167247 
L 248.645455 -55.516054 
L 246.802607 -53.430914 
L 246.233722 -52.227981 
L 244.281099 -52.4634 
L 243.704867 -51.314669 
L 243.124878 -47.749726 
L 240.469666 -38.315601 
L 238.49975 -35.510328 
L 236.119514 -33.984833 
L 234.162163 -33.965764 
L 232.869344 -34.556894 
L 231.673185 -35.370491 
L 230.042058 -36.018827 
L 221.838097 -36.018827 
L 221.838097 -37.17566 
L 224.973484 -38.243507 
L 223.372564 -39.648234 
L 221.366883 -42.355987 
L 219.808251 -43.576384 
L 217.995889 -44.281925 
L 213.718713 -44.752286 
L 209.843323 -43.39493 
L 206.49644 -41.415834 
L 204.057537 -36.532794 
L 203.478864 -35.109886 
L 204.602529 -30.781294 
L 203.521153 -30.34907 
L 201.636296 -29.198592 
L 200.548878 -28.740944 
L 200.935516 -27.92099 
L 201.195288 -26.338289 
L 201.55776 -25.346717 
L 199.968922 -26.071328 
L 198.374043 -26.147602 
L 196.827494 -25.59461 
L 195.389686 -24.386927 
L 197.999488 -22.772444 
L 200.754279 -22.162246 
L 203.641977 -22.403783 
L 206.632375 -23.31908 
L 208.136636 -17.445924 
L 207.683546 -14.750883 
L 204.052779 -13.619474 
L 200.959681 -13.772023 
L 198.192807 -14.40129 
L 195.450098 -15.729742 
L 182.558159 -27.310792 
L 179.887945 -30.68595 
L 168.790245 -37.169304 
L 165.509869 -38.383344 
L 162.048257 -38.840992 
L 159.311589 -37.709584 
L 156.170161 -35.573891 
L 153.022691 -35.294216 
L 146.540474 -37.17566 
L 140.173041 -38.268932 
L 120.055816 -37.112098 
L 119.040893 -37.302785 
L 115.947794 -39.413053 
L 110.722149 -42.012751 
L 109.411207 -43.04246 
L 108.764797 -44.224719 
L 107.224289 -48.229143 
L 106.916188 -49.494033 
L 106.354355 -50.485605 
L 103.696224 -51.439039 
L 102.862537 -52.1128 
L 102.645053 -55.392614 
L 102.910866 -59.333476 
L 101.986561 -62.645072 
L 98.210806 -64.037086 
L 87.916587 -64.126073 
L 85.548433 -65.009589 
L 82.03245 -73.177344 
L 80.860455 -74.880814 
L 79.58576 -75.76433 
L 78.105664 -76.520721 
L 76.921587 -76.832176 
L 76.003324 -77.65213 
L 75.290461 -79.53993 
L 74.38428 -83.239255 
L 71.593241 -88.902656 
L 67.896022 -90.981143 
L 56.967476 -90.707825 
L 50.29194 -91.839234 
L 47.851292 -91.864659 
L 46.455773 -90.5807 
L 45.313984 -89.951434 
L 44.311144 -90.161189 
L 40.656213 -91.635835 
L 40.287699 -91.864659 
L 38.209523 -92.201539 
L 33.64237 -93.669828 
L 31.080897 -93.993996 
L 28.471095 -94.642331 
L 25.94587 -96.339444 
L 24.085178 -98.742099 
L 23.432727 -101.468922 
L 24.254332 -102.765592 
L 26.453332 -104.322869 
L 27.492419 -105.632252 
L 27.927386 -107.685314 
L 27.715944 -112.39528 
L 27.999881 -113.730088 
L 29.129587 -115.579751 
L 29.256452 -116.755653 
L 29.775996 -117.372208 
L 32.083738 -117.562895 
L 33.533628 -118.509973 
L 34.711663 -120.340567 
L 36.240089 -121.586388 
L 38.729067 -120.760078 
L 40.263534 -125.184014 
L 44.818605 -129.379125 
L 50.110704 -131.133445 
L 53.928748 -128.222291 
L 56.133789 -130.828346 
L 58.48986 -130.879195 
L 61.244651 -129.862199 
L 64.621687 -129.194795 
L 74.227208 -130.377053 
L 77.429049 -130.357985 
L 79.03601 -129.760499 
L 80.18384 -129.340988 
L 81.827049 -128.927833 
L 83.518587 -129.194795 
L 85.022848 -130.262641 
L 85.167837 -131.285994 
L 85.125548 -132.480965 
L 86.043812 -134.095447 
L 89.408765 -138.404971 
L 90.937191 -139.835123 
L 93.559076 -141.023738 
L 99.564037 -142.008953 
L 106.366438 -141.748348 
L 118.321989 -139.135937 
L 128.863898 -136.828626 
L 143.308428 -136.555308 
L 149.687944 -134.998032 
L 159.976122 -134.235285 
L 163.854578 -133.28185 
L 166.911429 -131.425831 
L 171.623572 -132.646227 
L 179.229454 -132.627158 
L 187.052819 -131.743643 
L 192.441577 -130.357985 
L 193.106109 -129.658799 
L 193.65586 -127.726506 
L 194.374763 -127.059101 
L 195.244697 -127.052745 
L 196.048178 -127.434119 
L 196.519392 -127.929905 
L 196.404609 -128.222291 
L 203.037856 -127.059101 
L 203.859461 -126.563316 
L 206.360521 -124.357704 
L 207.133796 -123.861918 
L 211.978845 -123.696656 
L 217.083666 -124.554747 
L 219.808251 -125.018752 
L 221.584366 -124.573816 
L 224.683506 -123.111883 
L 226.441498 -122.794071 
L 235.225415 -123.169089 
L 236.938007 -124.076458 
L 239.354605 -124.373328 
L 241.317383 -124.218671 
L 243.128604 -123.913416 
L 244.181588 -122.554559 
L 243.722959 -120.89782 
L 243.718135 -118.788026 
L 245.375832 -117.277201 
L 250.65719 -113.946441 
L 255.327486 -111.222606 
L 256.08941 -109.707149 
L 257.469145 -105.606827 
L 258.351161 -104.25295 
L 259.770845 -103.382147 
L 262.471266 -102.632112 
L 270.155683 -102.034626 
L 272.705073 -101.468922 
L 274.885949 -100.305732 
L 277.713235 -97.445428 
L 279.88807 -96.034345 
L 282.407254 -95.246173 
L 287.336759 -95.560624 
L 289.918343 -93.730113 
L 290.744121 -93.517278 
L 291.48719 -92.805381 
L 292.399413 -92.157045 
L 293.625778 -91.864659 
L 304.771808 -91.864659 
L 305.551124 -91.394298 
L 306.717077 -89.156905 
L 307.254744 -88.470432 
L 318.183291 -86.411014 
L 323.862027 -84.351596 
L 324.586971 -81.103562 
L 328.803735 -77.054644 
L 332.07807 -72.351034 
L 336.838542 -61.914105 
" style="stroke: #000000"/>
    </defs>
    <g clip-path="url(#p6ae1afa6e6)">
     <use xlink:href="#me879804663" x="0" y="155.628427" style="fill: #f5f5f5; stroke: #000000"/>
    </g>
   </g>
  </g>
 </g>
 <defs>
  <clipPath id="p6ae1afa6e6">
   <rect x="7.2" y="7.2" width="357.12" height="141.228427"/>
  </clipPath>
 </defs>
</svg>
