<?xml version="1.0" encoding="utf-8" standalone="no"?>
<!DOCTYPE svg PUBLIC "-//W3C//DTD SVG 1.1//EN"
  "http://www.w3.org/Graphics/SVG/1.1/DTD/svg11.dtd">
<svg xmlns:xlink="http://www.w3.org/1999/xlink" width="250.577627pt" height="280.512pt" viewBox="0 0 250.577627 280.512" xmlns="http://www.w3.org/2000/svg" version="1.1">
 <metadata>
  <rdf:RDF xmlns:dc="http://purl.org/dc/elements/1.1/" xmlns:cc="http://creativecommons.org/ns#" xmlns:rdf="http://www.w3.org/1999/02/22-rdf-syntax-ns#">
   <cc:Work>
    <dc:type rdf:resource="http://purl.org/dc/dcmitype/StillImage"/>
    <dc:date>2024-03-04T13:11:11.386218</dc:date>
    <dc:format>image/svg+xml</dc:format>
    <dc:creator>
     <cc:Agent>
      <dc:title>Matplotlib v3.8.0, https://matplotlib.org/</dc:title>
     </cc:Agent>
    </dc:creator>
   </cc:Work>
  </rdf:RDF>
 </metadata>
 <defs>
  <style type="text/css">*{stroke-linejoin: round; stroke-linecap: butt}</style>
 </defs>
 <g id="figure_1">
  <g id="patch_1">
   <path d="M 0 280.512 
L 250.577627 280.512 
L 250.577627 0 
L 0 0 
z
" style="fill: #ffffff"/>
  </g>
  <g id="axes_1">
   <g id="PatchCollection_1">
    <defs>
     <path id="m3e5acd5e8d" d="M 50.684289 -221.310857 
L 50.712768 -221.289729 
L 51.882615 -221.151359 
L 52.091785 -221.258732 
L 52.674659 -221.557939 
L 54.314955 -223.007878 
L 57.033453 -224.702961 
L 57.886816 -224.919704 
L 57.89452 -224.923484 
L 58.203634 -225.075161 
L 58.494901 -225.137942 
L 58.750399 -225.093099 
L 58.959907 -224.933157 
L 58.954797 -224.919704 
L 59.409584 -224.348697 
L 64.72394 -223.125966 
L 65.194057 -222.853915 
L 66.04742 -221.997405 
L 66.292698 -221.916687 
L 66.931442 -221.924161 
L 67.120511 -221.82401 
L 67.19716 -221.438357 
L 67.130731 -221.063166 
L 66.972322 -220.826991 
L 66.788364 -220.853897 
L 67.23804 -220.300828 
L 67.672386 -219.895742 
L 68.188492 -219.717863 
L 68.903886 -219.847909 
L 70.058737 -219.759717 
L 70.288685 -219.102013 
L 70.140496 -218.116951 
L 70.176266 -217.030245 
L 70.641272 -216.061626 
L 72.869214 -212.71182 
L 73.145152 -212.037673 
L 73.155372 -211.789539 
L 73.33422 -211.747685 
L 73.929268 -211.728572 
L 74.63726 -211.705831 
L 76.466625 -211.950975 
L 76.778332 -211.91809 
L 77.289328 -211.720779 
L 77.585705 -211.666967 
L 77.830983 -211.78356 
L 78.393079 -212.287301 
L 78.648577 -212.36802 
L 79.185122 -212.076537 
L 80.794759 -210.474131 
L 83.983373 -208.296234 
L 88.326838 -204.216974 
L 89.057562 -203.805909 
L 90.033564 -203.511436 
L 92.818491 -203.231912 
L 93.620755 -202.73415 
L 95.425522 -202.515672 
L 102.190155 -201.696771 
L 103.97353 -200.354457 
L 104.832003 -200.856704 
L 105.905094 -200.825313 
L 109.063049 -200.000194 
L 109.758003 -199.971793 
L 110.391638 -200.188536 
L 118.337623 -205.583204 
L 125.905471 -210.471141 
L 125.915691 -210.474131 
L 131.388457 -213.934551 
L 139.850548 -219.299324 
L 143.775796 -221.78265 
L 148.327968 -224.662601 
L 156.800279 -230.024384 
L 165.27259 -235.393641 
L 171.568059 -239.386204 
L 180.178339 -244.706133 
L 184.37431 -247.302402 
L 194.946118 -253.843735 
L 207.056719 -261.216 
L 209.356201 -252.963309 
L 211.410404 -245.540221 
L 213.12224 -239.386204 
L 215.375731 -231.170882 
L 217.710982 -222.680521 
L 221.032455 -210.590724 
L 217.215316 -209.402372 
L 217.148887 -209.381445 
L 217.128447 -209.339591 
L 217.148887 -209.267842 
L 217.215316 -209.173671 
L 219.627217 -200.856704 
L 219.995134 -199.98973 
L 220.49591 -199.708711 
L 229.862463 -202.275252 
L 230.879345 -201.686308 
L 231.610069 -199.909012 
L 232.642281 -196.007631 
L 231.380121 -194.176523 
L 225.432129 -189.142097 
L 225.442349 -188.696652 
L 224.941573 -188.535216 
L 223.980901 -187.814731 
L 218.109559 -182.263111 
L 216.397723 -181.542626 
L 216.397723 -181.533657 
L 216.392613 -181.536647 
L 210.776769 -179.913313 
L 199.6575 -176.705511 
L 188.54845 -173.49472 
L 177.434291 -170.286917 
L 168.097079 -167.593222 
L 166.315022 -167.079115 
L 156.967207 -164.281918 
L 154.066452 -163.41391 
L 141.817882 -159.745715 
L 129.569311 -156.080509 
L 119.218311 -152.983124 
L 117.320741 -152.415304 
L 123.754179 -145.419724 
L 130.187616 -138.421155 
L 130.283919 -138.316482 
L 136.621054 -131.428565 
L 143.054491 -124.429996 
L 143.20779 -124.247632 
L 143.366199 -124.062279 
L 143.519498 -123.876926 
L 143.677906 -123.691573 
L 149.099572 -117.255042 
L 154.526348 -110.821501 
L 159.958234 -104.390949 
L 165.379899 -97.957407 
L 167.827569 -95.05454 
L 167.842899 -95.015676 
L 167.822459 -94.991759 
L 167.77647 -94.973822 
L 167.444322 -94.767542 
L 163.826472 -92.716701 
L 157.852931 -89.323546 
L 152.482365 -86.268212 
L 151.337734 -85.299593 
L 150.693879 -84.253246 
L 149.242651 -80.662779 
L 147.464385 -76.280079 
L 145.829199 -72.250146 
L 143.631917 -66.80615 
L 142.569045 -65.843511 
L 136.743693 -64.6148 
L 130.126297 -63.215684 
L 123.069444 -61.720902 
L 115.956382 -60.214162 
L 111.556708 -59.287397 
L 107.269453 -58.37857 
L 105.910204 -57.684991 
L 104.729804 -56.39051 
L 101.995976 -51.661019 
L 99.722045 -47.731238 
L 96.64074 -42.405329 
L 93.467456 -36.920974 
L 89.655427 -33.698224 
L 83.906724 -28.835699 
L 78.679237 -24.411144 
L 73.31378 -19.878965 
L 72.046511 -19.349812 
L 70.692372 -19.296 
L 65.551754 -20.206322 
L 59.85415 -21.21231 
L 57.037212 -21.713042 
L 51.192771 -22.751936 
L 43.854871 -24.046417 
L 36.981977 -25.266159 
L 29.291489 -26.626411 
L 23.420147 -27.669769 
L 17.935347 -28.652637 
L 18.579467 -29.120202 
L 18.905378 -34.388426 
L 19.25543 -35.904393 
L 20.329729 -38.272505 
L 20.281446 -39.192914 
L 19.25543 -40.249854 
L 18.579467 -40.249854 
L 18.539232 -40.438173 
L 18.539232 -40.593536 
L 18.47083 -40.675926 
L 18.241486 -40.645324 
L 18.453268 -42.219976 
L 18.805855 -43.487552 
L 19.46504 -44.580237 
L 19.935156 -46.024197 
L 20.195764 -49.275347 
L 20.563681 -50.717812 
L 22.858052 -57.036255 
L 23.06756 -58.211154 
L 23.11355 -61.726881 
L 23.476357 -63.691025 
L 23.670535 -64.190282 
L 23.915813 -64.638717 
L 24.099772 -65.149932 
L 24.130432 -65.8465 
L 24.702747 -68.127538 
L 26.81827 -71.350288 
L 27.620533 -73.296494 
L 27.620533 -75.120128 
L 26.608761 -78.659772 
L 26.629201 -80.313 
L 26.981788 -81.308525 
L 27.446794 -84.322006 
L 27.743172 -85.04548 
L 28.075319 -85.640403 
L 28.346147 -86.262233 
L 28.453456 -87.066425 
L 28.315487 -87.888555 
L 27.605203 -89.060465 
L 27.359925 -89.655388 
L 27.359925 -91.045535 
L 28.218398 -93.398322 
L 28.453456 -94.776511 
L 30.589419 -101.858788 
L 33.481655 -107.799051 
L 33.484654 -107.809882 
L 33.864902 -109.18322 
L 34.08974 -110.645116 
L 34.258369 -111.296841 
L 34.585406 -111.996399 
L 34.968653 -112.450813 
L 35.806686 -113.210162 
L 36.092844 -113.760242 
L 36.261473 -115.039775 
L 36.235923 -116.334257 
L 36.368782 -117.643686 
L 36.997307 -118.953115 
L 37.59962 -119.538868 
L 38.933981 -120.83654 
L 39.485856 -121.885877 
L 39.480746 -123.700542 
L 39.797564 -125.395625 
L 42.117485 -130.011512 
L 42.352543 -131.658761 
L 42.005066 -133.240241 
L 41.269232 -134.6842 
L 40.742906 -135.847141 
L 40.27279 -137.332954 
L 40.001962 -138.917423 
L 40.620267 -140.325507 
L 41.315221 -141.53927 
L 41.396981 -142.788908 
L 41.029064 -143.207447 
L 41.948856 -144.872634 
L 42.827769 -147.198515 
L 43.027057 -148.510933 
L 43.03908 -149.090316 
L 43.108817 -152.451179 
L 43.088377 -152.469116 
L 43.119037 -152.448189 
L 43.139477 -152.466127 
L 43.134367 -152.519939 
L 43.119037 -152.612615 
L 43.389864 -156.902639 
L 44.176798 -161.099987 
L 45.281318 -163.659429 
L 46.522269 -166.535015 
L 48.096136 -168.286899 
L 47.053705 -171.408004 
L 47.053705 -171.838501 
L 47.58514 -172.558986 
L 46.37919 -177.189821 
L 46.517159 -177.659182 
L 46.823756 -177.829587 
L 47.166124 -177.928243 
L 47.390962 -178.194314 
L 47.426732 -178.654707 
L 47.135464 -179.294474 
L 47.053705 -179.775793 
L 47.023045 -180.565038 
L 46.915736 -181.180888 
L 46.37919 -182.53815 
L 46.287211 -185.207831 
L 46.558039 -186.206345 
L 47.390962 -186.884976 
L 46.869746 -187.602472 
L 46.900406 -188.272134 
L 47.728219 -189.683208 
L 47.467611 -190.053914 
L 47.467611 -190.367819 
L 47.692449 -190.627911 
L 48.096136 -190.83419 
L 48.096136 -191.264688 
L 47.886628 -191.950793 
L 48.10365 -192.875091 
L 48.745101 -195.607029 
L 48.096136 -195.607029 
L 48.177895 -195.928407 
L 48.310754 -196.140666 
L 48.499823 -196.296124 
L 48.745101 -196.435139 
L 48.351634 -197.11078 
L 48.167675 -198.212434 
L 48.183005 -199.315583 
L 48.402734 -199.98973 
L 47.953057 -200.84923 
L 47.993937 -202.584672 
L 47.728219 -203.148204 
L 47.728219 -203.545816 
L 48.096136 -203.545816 
L 48.096136 -203.148204 
L 48.402734 -203.148204 
L 48.320974 -203.674368 
L 48.172785 -204.118318 
L 47.968387 -204.477066 
L 47.728219 -204.729684 
L 47.61069 -204.918026 
L 47.390962 -205.556298 
L 47.871298 -205.648975 
L 48.080806 -205.810411 
L 48.034817 -206.043597 
L 47.728219 -206.347038 
L 47.728219 -206.705786 
L 48.096136 -206.705786 
L 48.019487 -206.976341 
L 47.937727 -207.015205 
L 47.835528 -206.995773 
L 47.728219 -207.097418 
L 48.402734 -207.530905 
L 48.096136 -207.925528 
L 48.433393 -208.075006 
L 48.745101 -208.284275 
L 48.745101 -208.716267 
L 48.525373 -208.761111 
L 48.392514 -208.838839 
L 48.280095 -208.946464 
L 48.096136 -209.075015 
L 48.188115 -209.462164 
L 48.372074 -209.856786 
L 48.668451 -210.163216 
L 49.113018 -210.294757 
L 49.113018 -210.656494 
L 48.648012 -211.136319 
L 48.545812 -211.381464 
L 48.193225 -211.897163 
L 47.988827 -211.906132 
L 47.728219 -211.876236 
L 47.728219 -212.267869 
L 48.402734 -212.267869 
L 48.264765 -212.64007 
L 48.096136 -213.850843 
L 48.402734 -213.454726 
L 48.627572 -214.075061 
L 48.745101 -214.281341 
L 48.81153 -214.070576 
L 48.83708 -213.934551 
L 48.908619 -213.967436 
L 49.113018 -214.281341 
L 48.83708 -214.997341 
L 48.683781 -216.489134 
L 48.402734 -217.009318 
L 48.402734 -217.44131 
L 48.745101 -217.44131 
L 48.745101 -217.801552 
L 48.326084 -218.046696 
L 48.126796 -218.463741 
L 48.152346 -218.939081 
L 48.259655 -219.130413 
L 48.612242 -219.278397 
L 49.051698 -219.664051 
L 49.797752 -220.643133 
L 50.707325 -221.290373 
L 50.684289 -221.310857 
" style="stroke: #000000"/>
    </defs>
    <g clip-path="url(#p79d8f47b20)">
     <use xlink:href="#m3e5acd5e8d" x="0" y="280.512" style="fill: #f5f5f5; stroke: #000000"/>
    </g>
   </g>
  </g>
 </g>
 <defs>
  <clipPath id="p79d8f47b20">
   <rect x="7.2" y="7.2" width="236.177627" height="266.112"/>
  </clipPath>
 </defs>
</svg>
