<?xml version="1.0" encoding="utf-8" standalone="no"?>
<!DOCTYPE svg PUBLIC "-//W3C//DTD SVG 1.1//EN"
  "http://www.w3.org/Graphics/SVG/1.1/DTD/svg11.dtd">
<svg xmlns:xlink="http://www.w3.org/1999/xlink" width="233.545252pt" height="280.512pt" viewBox="0 0 233.545252 280.512" xmlns="http://www.w3.org/2000/svg" version="1.1">
 <metadata>
  <rdf:RDF xmlns:dc="http://purl.org/dc/elements/1.1/" xmlns:cc="http://creativecommons.org/ns#" xmlns:rdf="http://www.w3.org/1999/02/22-rdf-syntax-ns#">
   <cc:Work>
    <dc:type rdf:resource="http://purl.org/dc/dcmitype/StillImage"/>
    <dc:date>2024-03-04T13:11:11.437811</dc:date>
    <dc:format>image/svg+xml</dc:format>
    <dc:creator>
     <cc:Agent>
      <dc:title>Matplotlib v3.8.0, https://matplotlib.org/</dc:title>
     </cc:Agent>
    </dc:creator>
   </cc:Work>
  </rdf:RDF>
 </metadata>
 <defs>
  <style type="text/css">*{stroke-linejoin: round; stroke-linecap: butt}</style>
 </defs>
 <g id="figure_1">
  <g id="patch_1">
   <path d="M 0 280.512 
L 233.545252 280.512 
L 233.545252 0 
L 0 0 
z
" style="fill: #ffffff"/>
  </g>
  <g id="axes_1">
   <g id="PatchCollection_1">
    <path d="M 62.400065 29.536329 
L 62.402385 29.523486 
L 62.541428 28.48568 
L 63.236284 27.999278 
L 64.209083 28.068764 
L 64.278421 29.524493 
L 66.155249 29.532431 
L 67.757577 29.539207 
L 67.806512 29.969324 
L 68.136181 30.555905 
L 68.161936 31.036245 
L 68.087246 31.535902 
L 68.079519 31.960224 
L 68.246929 32.31243 
L 68.692497 32.591233 
L 69.658323 33.436014 
L 70.188884 33.780493 
L 70.760653 33.916354 
L 70.859832 33.915533 
L 74.497758 33.885447 
L 75.355412 33.768903 
L 75.618117 33.767616 
L 75.862793 33.833936 
L 76.316087 34.052858 
L 76.638029 34.096642 
L 81.268845 34.003922 
L 85.168209 33.92408 
L 85.384554 33.971728 
L 85.752856 34.192581 
L 85.899755 34.227946 
L 85.961474 34.242805 
L 90.764851 34.201596 
L 92.250936 34.611752 
L 94.022906 35.504824 
L 95.040243 35.737911 
L 95.282343 35.920131 
L 95.673825 36.579472 
L 95.856688 36.700523 
L 96.356343 36.663177 
L 96.541781 36.722415 
L 96.706616 36.944556 
L 96.804486 37.186014 
L 96.933263 37.739757 
L 97.013104 37.873685 
L 97.141881 37.903304 
L 97.291263 37.899441 
L 97.438068 37.938074 
L 98.78765 38.804103 
L 101.216381 40.365529 
L 103.645113 41.9276 
L 106.488506 43.752377 
L 108.507727 45.050454 
L 110.792229 46.521093 
L 113.36519 48.174595 
L 115.73726 49.699321 
L 118.222654 51.296805 
L 118.990164 51.790023 
L 119.45376 52.25169 
L 120.087343 53.267101 
L 120.471098 53.721685 
L 120.790464 53.89811 
L 121.534795 54.12669 
L 122.109139 54.625703 
L 122.413053 54.67657 
L 123.198592 54.481472 
L 123.978979 54.419659 
L 126.624056 54.719067 
L 129.287162 55.018474 
L 130.683103 54.899355 
L 131.952843 54.344324 
L 131.983749 54.201381 
L 131.963145 53.97924 
L 132.014656 53.771908 
L 132.254181 53.674681 
L 132.385533 53.731987 
L 132.856856 54.122827 
L 133.057748 54.360421 
L 133.106683 54.557451 
L 133.204554 54.703613 
L 133.552251 54.791182 
L 133.876769 54.82724 
L 134.013272 54.808567 
L 134.366121 54.670775 
L 134.412481 54.753836 
L 134.438236 54.887765 
L 134.569589 54.974046 
L 136.024767 55.079 
L 136.019616 54.908369 
L 136.053098 54.558739 
L 136.042796 54.393903 
L 136.717587 55.282468 
L 137.106493 55.677815 
L 137.562363 55.927643 
L 140.022001 56.592135 
L 141.878963 57.094367 
L 142.527999 57.084065 
L 143.573667 56.882528 
L 143.990904 56.93919 
L 144.364357 57.077626 
L 144.750687 57.072475 
L 146.182686 56.770492 
L 146.422211 56.828442 
L 146.743664 56.976017 
L 148.987446 58.006112 
L 149.958424 58.212799 
L 150.908797 58.188332 
L 151.874563 57.632516 
L 152.034307 57.540581 
L 152.3614 57.559898 
L 152.477299 57.818096 
L 152.248076 58.277832 
L 155.359325 58.370552 
L 156.126835 58.628751 
L 156.34318 58.908198 
L 156.474533 59.245595 
L 156.662547 59.578484 
L 157.05918 59.841834 
L 157.855021 59.799982 
L 158.274833 59.144504 
L 158.818272 57.485207 
L 159.462156 56.712542 
L 161.097622 55.221943 
L 163.057606 53.431292 
L 163.53408 52.804146 
L 163.946166 52.035988 
L 164.641561 50.198977 
L 165.130913 48.895749 
L 165.633143 48.280193 
L 167.768264 47.248041 
L 169.913686 46.21589 
L 172.32954 45.04981 
L 173.457625 44.489628 
L 173.570949 44.343466 
L 173.55292 44.188289 
L 173.5761 44.08913 
L 173.815625 44.11231 
L 173.890316 44.154807 
L 173.965006 44.175411 
L 174.034546 44.171548 
L 176.558572 43.291998 
L 178.523707 42.608833 
L 178.657635 42.482631 
L 178.804441 42.080201 
L 178.946095 41.948205 
L 182.165517 40.710009 
L 184.797716 39.69975 
L 186.871023 38.904549 
L 188.442101 37.872398 
L 188.99069 38.597415 
L 190.492229 39.615401 
L 191.105207 40.313375 
L 191.522444 41.084108 
L 191.779997 41.336512 
L 192.233292 41.567667 
L 193.42319 41.973316 
L 193.824974 42.212842 
L 194.476585 42.812945 
L 196.075993 45.04981 
L 197.183474 45.911331 
L 198.391401 46.40133 
L 199.694623 46.552643 
L 202.239254 46.407768 
L 205.033712 46.246797 
L 206.285423 45.896522 
L 206.944761 45.860464 
L 208.940802 45.36789 
L 209.337435 45.394934 
L 209.996772 45.668586 
L 210.352196 45.734262 
L 210.712772 45.653132 
L 211.768742 45.04981 
L 212.953489 45.436142 
L 214.050668 46.015641 
L 215.160724 46.232631 
L 216.384105 45.540452 
L 214.297919 48.531953 
L 212.206583 51.52281 
L 210.117822 54.514954 
L 208.026486 57.507099 
L 206.738718 59.349904 
L 205.448373 61.194642 
L 204.160605 63.03616 
L 202.870261 64.880253 
L 200.825284 66.90721 
L 198.775156 68.935456 
L 196.725029 70.962413 
L 194.677477 72.988083 
L 193.824974 73.832863 
L 193.466974 74.524398 
L 193.479852 75.858533 
L 193.510758 79.070243 
L 193.54424 82.424896 
L 193.54424 84.272853 
L 193.54424 86.925669 
L 193.54424 89.578485 
L 193.54424 92.230657 
L 193.54424 94.883472 
L 193.54424 97.999243 
L 193.54424 101.113083 
L 193.54424 104.228854 
L 193.54424 107.343981 
L 193.54424 110.45782 
L 193.54424 113.572303 
L 193.54424 113.993868 
L 193.54424 116.68743 
L 193.54424 119.802557 
L 193.54424 122.916397 
L 193.54424 126.031524 
L 193.54424 129.144075 
L 193.54424 132.26049 
L 193.54424 135.374329 
L 193.54424 138.490744 
L 193.54424 141.604583 
L 193.54424 144.720998 
L 193.572571 146.763409 
L 193.593176 148.445243 
L 193.611204 150.127077 
L 193.647262 152.833979 
L 193.683319 155.53573 
L 193.719377 158.240057 
L 193.755434 160.94696 
L 193.778614 162.703485 
L 193.801794 164.460009 
L 193.824974 166.353038 
L 194.461132 167.174638 
L 195.092138 167.996239 
L 195.728296 168.815263 
L 196.361878 169.636864 
L 197.59556 171.228553 
L 198.870451 172.879481 
L 200.243213 174.654034 
L 201.3816 176.122097 
L 202.607556 177.70606 
L 203.892749 179.36729 
L 205.149611 180.98731 
L 206.403898 182.609906 
L 207.359422 183.84617 
L 207.66076 184.394762 
L 207.750904 184.866088 
L 207.685199 186.426406 
L 207.663812 186.92458 
L 207.649616 186.938776 
L 205.751425 188.881592 
L 204.855057 190.250487 
L 204.737434 190.686505 
L 204.197991 191.019095 
L 202.780431 192.308898 
L 201.892175 193.399958 
L 201.375039 193.708212 
L 200.991751 193.237718 
L 200.527343 193.42835 
L 200.097411 193.383734 
L 199.811465 193.097787 
L 199.78713 192.560369 
L 199.288246 193.075479 
L 199.190903 193.671709 
L 198.959713 194.247658 
L 198.239779 194.180734 
L 197.266348 193.951571 
L 197.049354 193.935347 
L 196.743128 194.125979 
L 196.248301 194.66948 
L 195.575011 194.953399 
L 195.315429 195.290046 
L 195.043679 195.569909 
L 194.652279 195.549629 
L 194.323746 195.379278 
L 194.086472 195.212982 
L 193.922205 194.973679 
L 193.818778 194.616753 
L 193.83703 194.247658 
L 194.082416 193.558141 
L 194.066192 193.253942 
L 194.005353 192.909184 
L 194.106752 192.600929 
L 194.481928 192.045259 
L 193.599756 192.722608 
L 193.498357 195.653056 
L 192.967026 196.31621 
L 192.504646 195.969423 
L 192.042266 194.436261 
L 191.587998 194.089475 
L 191.328416 193.939403 
L 191.099254 193.675765 
L 190.866036 193.582477 
L 190.569951 193.935347 
L 190.732189 194.308498 
L 190.805197 194.637033 
L 190.740301 194.953399 
L 191.145898 194.776964 
L 191.466319 194.86214 
L 191.683313 195.142003 
L 191.758348 195.549629 
L 191.705621 195.715924 
L 191.474431 195.849772 
L 191.417647 195.991731 
L 191.500795 196.231034 
L 191.683313 196.287818 
L 191.865831 196.328378 
L 191.944923 196.494673 
L 191.98751 198.311754 
L 192.135553 199.277078 
L 192.455974 199.905755 
L 192.679052 199.966595 
L 192.950802 199.934147 
L 193.254999 199.948343 
L 193.569336 200.167366 
L 193.812694 200.52632 
L 193.849198 200.798071 
L 193.569336 201.445001 
L 192.954858 202.201442 
L 192.401219 202.310953 
L 192.322127 202.029062 
L 193.137376 201.621436 
L 192.707444 201.467309 
L 192.362687 201.236118 
L 191.758348 200.599328 
L 191.665061 200.400585 
L 191.697509 200.27485 
L 191.681285 200.179534 
L 191.417647 200.076106 
L 191.450095 200.13289 
L 191.281773 200.191702 
L 190.916736 200.258626 
L 190.294145 200.599328 
L 189.73645 201.268565 
L 189.213231 201.730948 
L 188.696095 201.451085 
L 188.712319 201.664024 
L 188.777215 201.889131 
L 188.911062 202.075706 
L 189.115888 202.148714 
L 189.235539 202.217666 
L 189.188895 202.379905 
L 189.020573 202.649628 
L 189.182811 203.014666 
L 189.888549 203.483132 
L 190.058899 203.831947 
L 189.76687 204.407897 
L 189.079384 205.083218 
L 188.302667 205.642944 
L 187.146717 206.119522 
L 185.621675 207.932546 
L 184.757754 208.261081 
L 183.993205 208.094786 
L 183.250964 207.760167 
L 182.458023 207.577648 
L 181.642774 207.662823 
L 179.12402 208.455768 
L 178.089749 209.198013 
L 177.461075 209.396756 
L 176.728973 209.853054 
L 175.487848 210.85691 
L 175.193791 211.165165 
L 174.974769 211.51398 
L 174.514417 212.556367 
L 173.770147 213.497355 
L 173.662664 213.91715 
L 173.711336 214.109809 
L 174.082457 214.604639 
L 174.110848 214.766878 
L 174.015533 215.148141 
L 173.989169 215.365136 
L 173.518678 216.957109 
L 173.461894 217.77439 
L 173.989169 218.173904 
L 173.859379 218.826918 
L 174.161548 219.114892 
L 174.674627 219.064193 
L 175.193791 218.680902 
L 175.214071 218.960765 
L 175.019384 219.256852 
L 174.147352 220.0863 
L 173.626161 220.781902 
L 173.492314 221.082044 
L 173.384831 222.347511 
L 173.226648 222.781501 
L 172.378952 223.986128 
L 172.3607 224.320747 
L 172.630421 225.227259 
L 172.626365 225.689641 
L 172.472239 226.07496 
L 172.251189 226.431886 
L 171.961187 226.744197 
L 171.606291 226.979444 
L 170.401669 227.527002 
L 170.073136 227.746025 
L 169.474881 228.445682 
L 169.138236 228.713377 
L 168.698164 228.784357 
L 168.89285 228.360507 
L 169.162572 227.409378 
L 169.209216 227.06462 
L 168.761032 227.174131 
L 168.564317 227.41749 
L 168.52173 227.741969 
L 168.527814 228.092812 
L 168.503478 228.324003 
L 168.357463 228.938484 
L 168.404107 229.076388 
L 168.497394 229.212263 
L 168.54201 229.360306 
L 168.103965 230.078215 
L 167.59697 231.408578 
L 166.931792 232.475302 
L 166.67221 233.909092 
L 166.386265 234.491125 
L 166.069899 234.775044 
L 165.852905 234.81966 
L 165.313462 234.584413 
L 165.193811 234.511405 
L 164.867306 234.134199 
L 164.749683 234.109863 
L 164.086533 234.055107 
L 164.18996 233.838112 
L 164.208212 233.738741 
L 163.950658 233.531885 
L 163.755972 233.988183 
L 163.824923 234.369446 
L 164.125065 234.592525 
L 164.628004 234.584413 
L 164.327863 234.937284 
L 164.429262 235.229314 
L 164.780103 235.34491 
L 165.646051 234.992039 
L 165.923885 235.192811 
L 166.082067 235.574073 
L 166.144935 235.943167 
L 166.096263 236.730028 
L 164.086533 242.268474 
L 163.447719 242.882955 
L 162.733869 242.996523 
L 162.230929 242.621344 
L 162.234985 241.775672 
L 161.683374 242.07987 
L 161.529248 242.268474 
L 161.618479 242.517917 
L 161.786801 242.769388 
L 161.871977 243.004635 
L 161.983516 243.23177 
L 162.234985 243.460933 
L 162.786596 243.418345 
L 163.062402 243.552192 
L 162.991423 243.982127 
L 162.466175 244.562132 
L 162.389112 244.738567 
L 162.320161 244.959619 
L 162.141698 245.267873 
L 161.920648 245.539624 
L 161.703654 245.657248 
L 161.464352 245.527456 
L 161.298058 244.955563 
L 161.103371 244.823743 
L 160.933021 244.521572 
L 160.985748 243.949679 
L 160.949245 243.60492 
L 160.515257 243.971987 
L 159.874414 243.621144 
L 159.584413 243.576528 
L 159.310635 243.801635 
L 159.558049 244.03891 
L 159.852106 244.154506 
L 160.515257 244.312689 
L 160.328682 244.756819 
L 160.093436 244.967731 
L 159.310635 245.146194 
L 159.055109 245.152278 
L 158.775248 245.125914 
L 158.550142 245.152278 
L 158.458883 245.324657 
L 158.477135 245.851935 
L 158.525806 246.09935 
L 158.629233 246.354877 
L 158.990214 245.868159 
L 159.817631 245.811375 
L 160.689663 246.066902 
L 161.178407 246.525228 
L 161.083091 247.125514 
L 159.837911 249.263017 
L 159.038886 251.295065 
L 158.223637 254.353276 
L 157.947831 255.059017 
L 157.724753 254.734539 
L 157.509787 254.75279 
L 157.298877 254.969786 
L 157.100135 255.249648 
L 157.059575 255.385524 
L 157.083911 255.695807 
L 157.00482 255.835738 
L 156.649923 256.158189 
L 156.572859 256.2677 
L 155.721107 258.835138 
L 155.562924 258.372756 
L 155.639988 257.646735 
L 155.550756 257.289808 
L 155.230335 257.539251 
L 155.051873 257.886038 
L 154.901802 258.275412 
L 154.699004 258.648563 
L 154.577325 258.634367 
L 154.400891 258.539051 
L 154.242708 258.563387 
L 154.175785 258.914229 
L 154.224456 259.121085 
L 154.613829 259.662558 
L 154.362359 260.007317 
L 153.522774 260.131024 
L 152.573679 259.897805 
L 151.977452 259.159616 
L 151.957172 259.303604 
L 151.809129 259.67067 
L 151.077028 259.449619 
L 150.537585 259.966757 
L 150.081289 260.676554 
L 149.594573 261.031453 
L 149.491146 261.065929 
L 149.401915 261.074041 
L 149.320795 261.110544 
L 149.239676 261.216 
L 147.125333 259.69095 
L 144.997939 258.161074 
L 142.870545 256.628622 
L 140.743151 255.09617 
L 138.615758 253.566294 
L 136.485788 252.033842 
L 134.36097 250.50139 
L 132.236152 248.971514 
L 130.106183 247.441637 
L 129.941046 247.322538 
L 127.981364 245.909185 
L 125.851395 244.379309 
L 123.726577 242.846857 
L 121.601759 241.316981 
L 119.471789 239.784529 
L 117.346971 238.252077 
L 115.219577 236.719625 
L 113.862269 235.746067 
L 113.519723 235.297922 
L 113.269896 234.787963 
L 112.837205 233.252935 
L 112.649191 232.869178 
L 112.301494 232.54981 
L 111.83017 232.323162 
L 111.304761 232.184082 
L 110.771624 232.137722 
L 109.579151 232.207262 
L 109.507036 231.864714 
L 109.705352 231.377935 
L 109.805798 230.965847 
L 109.679597 230.770106 
L 109.270086 230.718595 
L 109.089799 230.535731 
L 109.051166 230.273025 
L 109.115554 229.981987 
L 109.234029 229.703828 
L 109.36023 229.482331 
L 109.723381 229.080545 
L 110.279697 228.640126 
L 110.87207 228.323334 
L 111.343394 228.287276 
L 111.307336 227.841706 
L 111.394904 227.494007 
L 111.642156 227.280236 
L 112.095451 227.246754 
L 111.595573 224.200972 
L 111.54171 223.872784 
L 111.101293 221.171033 
L 110.720114 220.558052 
L 108.662259 219.409357 
L 105.221484 217.487682 
L 103.312869 216.42172 
L 97.960902 213.434082 
L 92.611511 210.44902 
L 87.26212 207.461383 
L 81.91273 204.476321 
L 76.560763 201.491259 
L 71.213948 198.503622 
L 65.864557 195.515985 
L 60.515166 192.528347 
L 55.168351 189.54071 
L 50.949918 187.186744 
L 49.81896 186.555648 
L 44.466994 183.568011 
L 39.117603 180.582949 
L 37.805368 179.850065 
L 33.768212 177.595312 
L 28.416246 174.61025 
L 23.066855 171.622612 
L 21.19959 170.579515 
L 20.274972 170.507399 
L 19.940153 170.288478 
L 19.891217 169.636864 
L 19.504887 169.623986 
L 19.401865 169.636864 
L 17.503694 169.636864 
L 17.36204 164.565607 
L 17.26932 161.168457 
L 17.681406 157.593594 
L 18.27378 152.455373 
L 18.732226 148.499329 
L 18.70647 147.536074 
L 17.936385 144.975978 
L 17.161148 142.408155 
L 17.238414 141.916225 
L 18.688441 139.984563 
L 18.900492 139.701746 
L 20.903403 137.030408 
L 21.79969 136.335009 
L 22.01346 136.005339 
L 22.083 135.497956 
L 21.802266 134.588787 
L 21.776511 134.130339 
L 21.887259 133.903691 
L 22.317373 133.393732 
L 22.49251 133.133601 
L 22.569776 132.922406 
L 23.169805 130.462526 
L 23.19048 130.377763 
L 23.61802 129.61025 
L 24.354623 129.105442 
L 25.36681 128.739714 
L 26.172953 128.330202 
L 26.773053 127.686314 
L 27.174837 126.617461 
L 27.273209 126.043897 
L 27.326793 125.731472 
L 27.532836 125.51255 
L 29.132245 124.711555 
L 29.559784 124.322647 
L 29.917784 123.31947 
L 30.636359 122.385833 
L 31.282819 120.788993 
L 31.429624 120.279034 
L 31.445077 119.161246 
L 31.573854 118.630682 
L 31.782473 118.123299 
L 32.027149 117.677729 
L 32.537105 117.178072 
L 32.949191 117.274656 
L 33.356126 117.505167 
L 33.847389 117.411535 
L 33.876385 117.406009 
L 34.017292 117.165516 
L 34.14424 116.948849 
L 34.185449 116.387379 
L 34.355434 115.931507 
L 35.563361 115.655923 
L 36.413289 114.839474 
L 36.930972 114.522681 
L 38.981099 114.312774 
L 39.774365 113.953485 
L 40.08858 112.941294 
L 39.828451 111.949707 
L 39.395761 110.936228 
L 39.346744 110.467841 
L 39.303042 110.050239 
L 40.783975 108.838443 
L 41.309385 106.826295 
L 41.88373 105.971213 
L 42.133557 105.845655 
L 42.656391 105.73877 
L 42.903643 105.625445 
L 43.158621 105.386563 
L 43.338908 105.103897 
L 44.129598 103.429146 
L 44.278979 102.88828 
L 44.304735 98.044959 
L 44.412907 97.741689 
L 44.87908 97.151888 
L 44.971799 96.884674 
L 44.845598 96.607159 
L 44.260951 96.061142 
L 44.04203 95.8023 
L 43.864318 95.365744 
L 43.761296 94.866731 
L 43.73039 94.351622 
L 43.769023 93.866774 
L 44.003397 92.755425 
L 44.000821 92.273153 
L 42.875312 89.561743 
L 42.425276 88.476817 
L 41.461342 86.153004 
L 41.299083 85.174295 
L 41.518004 84.558739 
L 41.968723 84.211039 
L 42.470952 83.925153 
L 42.839254 83.483447 
L 42.906218 82.918114 
L 42.676995 82.493148 
L 41.997053 81.795174 
L 41.852823 81.319985 
L 41.711169 80.079858 
L 41.461342 79.739886 
L 41.234694 79.774656 
L 41.06986 79.981987 
L 40.868968 80.166139 
L 40.526422 80.140384 
L 40.292048 79.91116 
L 39.241229 77.727094 
L 38.862625 75.562344 
L 38.355244 73.991259 
L 38.254798 73.77105 
L 38.084812 73.559855 
L 37.95346 73.52766 
L 37.247763 73.188976 
L 37.201403 73.122011 
L 37.152468 73.076939 
L 37.111259 72.990658 
L 37.057173 72.904377 
L 36.961878 72.859305 
L 36.900065 72.899226 
L 36.789317 73.09368 
L 36.727504 73.137465 
L 36.624483 73.187688 
L 36.346325 73.415624 
L 36.191793 73.468423 
L 35.851822 73.378278 
L 35.625174 73.143903 
L 35.251721 72.548952 
L 34.461031 71.669401 
L 34.211204 71.235421 
L 33.487478 67.466105 
L 33.485837 67.463168 
L 33.193867 66.940693 
L 32.671033 66.594281 
L 31.496588 66.258172 
L 30.97633 65.927214 
L 30.705898 65.35673 
L 30.458647 62.296977 
L 30.136704 61.302815 
L 29.953841 61.036245 
L 29.719467 60.780622 
L 29.523727 60.513409 
L 29.459338 60.215289 
L 29.534029 59.933266 
L 29.783856 59.322861 
L 29.822489 59.086555 
L 29.719467 58.812902 
L 29.412978 58.27912 
L 29.392374 58.009331 
L 29.531453 57.791053 
L 29.7581 57.691894 
L 30.013079 57.62493 
L 30.244877 57.507099 
L 30.718776 56.779506 
L 30.95315 55.780837 
L 31.014963 53.777059 
L 30.847553 53.252935 
L 30.481826 53.017272 
L 30.015654 52.874329 
L 29.546906 52.629652 
L 28.738188 51.766843 
L 28.290044 51.587198 
L 27.612678 51.783584 
L 27.352549 52.026973 
L 27.244376 52.265856 
L 27.128477 52.370165 
L 26.840017 52.206618 
L 26.463988 51.20151 
L 25.910248 50.486795 
L 25.894795 50.3651 
L 25.63209 50.386992 
L 25.137587 50.526716 
L 24.648235 50.55891 
L 24.21812 50.669659 
L 24.006926 50.683824 
L 23.690135 50.564061 
L 23.854969 50.371539 
L 24.352048 50.054103 
L 24.040408 49.674853 
L 23.648926 49.528047 
L 23.602566 49.391542 
L 24.792465 48.775986 
L 25.062896 48.439877 
L 24.998508 48.099261 
L 24.447343 47.811443 
L 23.963142 47.808867 
L 22.974135 48.161718 
L 22.582654 48.238984 
L 22.003158 48.029721 
L 22.039215 47.597672 
L 22.356006 47.023325 
L 22.621287 46.384589 
L 22.559474 45.982159 
L 22.271014 45.695629 
L 21.905287 45.451596 
L 21.609101 45.175368 
L 21.41336 44.779377 
L 21.423662 44.52633 
L 21.531835 44.289379 
L 21.629705 43.942324 
L 21.70182 43.361537 
L 21.694093 43.068569 
L 21.616827 42.779463 
L 21.408209 42.499372 
L 21.130051 42.245037 
L 20.91113 41.972028 
L 20.880224 41.6327 
L 20.913706 40.86583 
L 20.602066 40.287619 
L 20.040598 39.846556 
L 19.319448 39.498213 
L 21.838323 37.002506 
L 24.354623 34.50873 
L 26.870923 32.013023 
L 29.389799 29.518603 
L 31.345661 28.510576 
L 33.077144 27.618192 
L 34.796688 26.758416 
L 36.494187 25.909663 
L 38.919185 25.027841 
L 40.941726 24.267065 
L 42.837582 23.553942 
L 44.878285 22.786334 
L 47.160399 21.92792 
L 49.201101 21.160313 
L 50.933949 20.508505 
L 51.374858 21.335213 
L 53.122828 20.369911 
L 55.067469 19.296 
L 55.618605 19.957366 
L 54.681674 21.886351 
L 57.161785 21.886351 
L 59.035648 22.43749 
L 57.823148 25.523866 
L 58.83057 27.351098 
L 60.016619 29.502317 
L 60.027587 29.522212 
L 60.064935 29.535075 
L 62.263486 30.292314 
L 62.399224 29.540983 
L 62.400065 29.536329 
" clip-path="url(#pf30f83d8f9)" style="fill: #f5f5f5; stroke: #000000"/>
    <path d="M 195.674382 195.728092 
L 195.966411 195.397529 
L 196.641729 195.440117 
L 197.388027 195.683476 
L 197.901106 195.975507 
L 198.385794 196.758312 
L 198.19922 197.28559 
L 197.740896 197.370765 
L 197.404251 196.827264 
L 197.426558 197.101043 
L 197.390055 197.380905 
L 197.292712 197.589789 
L 197.134529 197.674964 
L 197.061522 197.707412 
L 197.014878 197.77028 
L 196.941871 197.833148 
L 196.793828 197.865595 
L 196.621449 197.806784 
L 196.483547 197.691188 
L 196.394315 197.575593 
L 196.367952 197.520837 
L 196.039419 197.569509 
L 195.595291 197.71958 
L 194.666475 198.202242 
L 194.439341 198.035947 
L 194.220319 198.076507 
L 194.054024 198.287418 
L 193.985073 198.62812 
L 194.11892 198.822807 
L 194.386613 198.980991 
L 194.577244 199.157426 
L 194.481928 199.410925 
L 194.171647 199.406869 
L 193.976961 199.260854 
L 193.86745 199.017495 
L 193.818778 198.713296 
L 193.265139 198.828891 
L 193.267167 198.263082 
L 193.563252 197.478249 
L 193.903953 196.918523 
L 194.358221 196.665024 
L 194.944308 196.490617 
L 195.45536 196.231034 
L 195.674382 195.728092 
" clip-path="url(#pf30f83d8f9)" style="fill: #f5f5f5; stroke: #000000"/>
   </g>
  </g>
 </g>
 <defs>
  <clipPath id="pf30f83d8f9">
   <rect x="7.2" y="7.2" width="219.145252" height="266.112"/>
  </clipPath>
 </defs>
</svg>
