<?xml version="1.0" encoding="utf-8" standalone="no"?>
<!DOCTYPE svg PUBLIC "-//W3C//DTD SVG 1.1//EN"
  "http://www.w3.org/Graphics/SVG/1.1/DTD/svg11.dtd">
<svg xmlns:xlink="http://www.w3.org/1999/xlink" width="296.203556pt" height="280.512pt" viewBox="0 0 296.203556 280.512" xmlns="http://www.w3.org/2000/svg" version="1.1">
 <metadata>
  <rdf:RDF xmlns:dc="http://purl.org/dc/elements/1.1/" xmlns:cc="http://creativecommons.org/ns#" xmlns:rdf="http://www.w3.org/1999/02/22-rdf-syntax-ns#">
   <cc:Work>
    <dc:type rdf:resource="http://purl.org/dc/dcmitype/StillImage"/>
    <dc:date>2024-03-04T13:11:11.463383</dc:date>
    <dc:format>image/svg+xml</dc:format>
    <dc:creator>
     <cc:Agent>
      <dc:title>Matplotlib v3.8.0, https://matplotlib.org/</dc:title>
     </cc:Agent>
    </dc:creator>
   </cc:Work>
  </rdf:RDF>
 </metadata>
 <defs>
  <style type="text/css">*{stroke-linejoin: round; stroke-linecap: butt}</style>
 </defs>
 <g id="figure_1">
  <g id="patch_1">
   <path d="M 0 280.512 
L 296.203556 280.512 
L 296.203556 0 
L 0 0 
z
" style="fill: #ffffff"/>
  </g>
  <g id="axes_1">
   <g id="PatchCollection_1">
    <path d="M 210.842247 35.401779 
L 211.79671 37.993712 
L 213.200978 40.346583 
L 214.51748 43.360019 
L 215.120876 46.6251 
L 215.087963 52.362582 
L 215.515826 56.024002 
L 217.26019 61.119792 
L 220.781831 68.536998 
L 224.917839 74.21786 
L 228.483363 74.066874 
L 230.798211 80.993374 
L 233.913931 87.89471 
L 239.596828 96.073138 
L 242.240558 102.166704 
L 241.679898 105.305442 
L 238.681658 105.742471 
L 233.156943 103.339358 
L 230.326465 101.609306 
L 229.437827 100.187517 
L 226.795697 99.795266 
L 223.502826 99.093724 
L 221.067633 98.67388 
L 213.204377 99.989734 
L 209.220319 103.43331 
L 205.801887 106.871223 
L 197.529643 111.480119 
L 191.838675 116.792145 
L 188.860574 121.518935 
L 186.017914 125.247641 
L 179.887004 128.144699 
L 179.323378 130.575738 
L 178.044156 132.869891 
L 181.047996 133.133723 
L 186.056048 132.241242 
L 189.776197 131.50193 
L 192.776396 130.340338 
L 195.918228 129.179014 
L 197.784989 130.308742 
L 193.937606 132.901133 
L 193.948754 134.756025 
L 193.104754 136.901565 
L 196.406514 139.162837 
L 198.69511 139.14763 
L 201.263439 138.275269 
L 204.260334 137.258301 
L 205.096412 133.545538 
L 207.093659 132.678284 
L 209.671727 133.5192 
L 212.374415 131.508697 
L 213.791176 129.220179 
L 215.928804 128.211732 
L 216.909123 129.113991 
L 218.982613 132.014187 
L 219.267855 132.423109 
L 221.253577 134.222363 
L 222.624933 134.700487 
L 226.381098 136.003005 
L 231.368065 134.984752 
L 230.395637 141.830168 
L 230.26356 144.682084 
L 230.708837 149.241078 
L 232.158636 156.078102 
L 233.308267 159.211881 
L 235.16706 162.204445 
L 235.88924 165.340389 
L 239.212848 186.419612 
L 241.58255 191.597187 
L 248.307677 201.725856 
L 250.337283 203.676097 
L 255.526492 205.41244 
L 255.921443 207.740147 
L 255.350959 210.785039 
L 255.175425 213.892842 
L 256.294451 216.937734 
L 259.980655 222.184511 
L 260.770556 224.059258 
L 262.174824 226.204523 
L 265.345397 227.557109 
L 270.907615 228.765 
L 269.591114 231.143036 
L 269.031601 233.873373 
L 269.174222 236.698076 
L 269.986064 239.321464 
L 267.945487 237.887094 
L 267.221412 237.220237 
L 267.056849 238.44071 
L 267.188499 239.227098 
L 267.791895 239.81217 
L 269.064513 240.472736 
L 268.055196 241.787575 
L 267.418887 242.165041 
L 266.892286 241.944853 
L 266.321802 241.435274 
L 265.400252 241.435274 
L 265.279572 244.668899 
L 266.519278 245.436413 
L 268.362379 244.492748 
L 269.986064 242.586545 
L 270.359073 244.171902 
L 270.907615 251.607981 
L 271.390332 253.514184 
L 272.487416 255.590247 
L 274.593818 258.421241 
L 276.151678 260.100965 
L 276.194303 260.137629 
L 252.25795 260.385072 
L 228.286273 260.632752 
L 204.314596 260.888422 
L 180.349885 261.144093 
L 173.111707 261.216 
L 171.990103 257.113291 
L 169.468235 254.452722 
L 166.375115 252.251561 
L 163.497957 249.571018 
L 161.456777 246.067537 
L 159.617624 241.50542 
L 158.321858 236.7915 
L 157.806338 228.458247 
L 157.179354 224.559275 
L 149.704315 203.929881 
L 143.210173 192.764287 
L 141.560494 189.927939 
L 141.546561 189.923944 
L 141.476896 189.907965 
L 141.462963 189.907965 
L 133.939158 188.905258 
L 120.521707 187.127551 
L 107.090323 185.345848 
L 93.658938 183.564146 
L 80.241487 181.790434 
L 65.159046 179.904865 
L 50.118403 178.031282 
L 35.070794 176.161693 
L 20.009253 174.288109 
L 23.923102 169.893785 
L 44.196891 147.131133 
L 52.640271 132.885506 
L 61.278713 123.385757 
L 63.285061 120.357662 
L 67.283824 109.851212 
L 77.357362 93.164733 
L 79.990694 87.360219 
L 80.325085 85.802228 
L 80.840605 81.128256 
L 81.537253 78.907121 
L 86.469525 69.710981 
L 97.936361 40.524622 
L 102.548174 33.965082 
L 109.612191 29.187243 
L 131.333693 20.238784 
L 139.094358 19.296 
L 173.926786 19.296 
L 181.645652 20.790073 
L 210.842247 35.401779 
" clip-path="url(#p8d0d8dc790)" style="fill: #f5f5f5; stroke: #000000"/>
    <path d="M 263.447441 117.538368 
L 265.553843 118.368793 
L 266.607044 119.268421 
L 268.164904 120.589552 
L 269.229076 121.992467 
L 270.293248 123.401673 
L 271.702757 127.61217 
L 271.418683 129.180214 
L 269.421457 128.470227 
L 268.137161 128.187397 
L 266.852135 127.334284 
L 263.13745 124.063341 
L 260.567974 123.070655 
L 257.000412 122.5085 
L 254.147645 122.657512 
L 254.253875 118.607855 
L 254.253875 118.595273 
L 255.745909 116.254984 
L 258.09367 115.940429 
L 263.447441 117.538368 
" clip-path="url(#p8d0d8dc790)" style="fill: #f5f5f5; stroke: #000000"/>
    <path d="M 265.400252 79.351397 
L 262.855016 84.069721 
L 258.708037 89.335371 
L 253.749216 93.858671 
L 248.724569 96.337364 
L 247.82496 96.242998 
L 242.899052 95.714546 
L 239.640711 91.73228 
L 234.934219 80.502668 
L 229.328118 70.38029 
L 228.538217 69.436625 
L 227.7922 68.543289 
L 225.093373 66.94535 
L 224.062113 65.328537 
L 226.640262 63.516701 
L 228.209092 62.686276 
L 231.127337 60.654251 
L 232.619371 60.25162 
L 233.12403 59.358284 
L 233.913931 54.023432 
L 231.774616 53.167843 
L 230.644619 52.985401 
L 229.35006 53.048312 
L 229.328118 53.054603 
L 230.666561 50.758352 
L 232.575488 50.928211 
L 235.85577 53.054603 
L 237.380717 53.293665 
L 239.245761 53.15526 
L 240.298962 52.117229 
L 239.531003 49.701447 
L 241.96653 48.625669 
L 243.963223 47.398905 
L 244.467882 46.021154 
L 242.306626 44.517581 
L 242.295655 44.51129 
L 240.759737 44.303684 
L 238.98246 45.127818 
L 237.698872 44.51129 
L 237.106446 43.492132 
L 236.777321 41.869029 
L 236.645671 40.227052 
L 236.777321 39.151274 
L 236.777321 39.138692 
L 234.396648 39.170147 
L 234.067523 38.89963 
L 233.584805 38.490709 
L 234.144318 37.358311 
L 235.85577 36.074927 
L 237.797609 35.263375 
L 239.706536 35.150135 
L 241.549638 35.735207 
L 243.294002 37.024882 
L 264.292196 66.857274 
L 266.321802 72.44377 
L 265.400252 79.351397 
" clip-path="url(#p8d0d8dc790)" style="fill: #f5f5f5; stroke: #000000"/>
    <path d="M 228.483363 33.854169 
L 227.616667 34.678302 
L 226.311136 36.420937 
L 225.718711 37.024882 
L 222.043478 38.962541 
L 221.045131 39.138692 
L 220.046785 38.547328 
L 219.300767 37.503006 
L 219.103292 36.509012 
L 220.968335 35.225628 
L 223.732988 31.539044 
L 225.225023 30.696037 
L 230.491028 29.953687 
L 230.501998 29.953687 
L 232.575488 30.155002 
L 232.158596 31.752941 
L 228.483363 33.854169 
" clip-path="url(#p8d0d8dc790)" style="fill: #f5f5f5; stroke: #000000"/>
   </g>
  </g>
 </g>
 <defs>
  <clipPath id="p8d0d8dc790">
   <rect x="7.2" y="7.2" width="281.803556" height="266.112"/>
  </clipPath>
 </defs>
</svg>
