<?xml version="1.0" encoding="utf-8" standalone="no"?>
<!DOCTYPE svg PUBLIC "-//W3C//DTD SVG 1.1//EN"
  "http://www.w3.org/Graphics/SVG/1.1/DTD/svg11.dtd">
<svg xmlns:xlink="http://www.w3.org/1999/xlink" width="371.52pt" height="189.690297pt" viewBox="0 0 371.52 189.690297" xmlns="http://www.w3.org/2000/svg" version="1.1">
 <metadata>
  <rdf:RDF xmlns:dc="http://purl.org/dc/elements/1.1/" xmlns:cc="http://creativecommons.org/ns#" xmlns:rdf="http://www.w3.org/1999/02/22-rdf-syntax-ns#">
   <cc:Work>
    <dc:type rdf:resource="http://purl.org/dc/dcmitype/StillImage"/>
    <dc:date>2024-03-04T13:11:11.490497</dc:date>
    <dc:format>image/svg+xml</dc:format>
    <dc:creator>
     <cc:Agent>
      <dc:title>Matplotlib v3.8.0, https://matplotlib.org/</dc:title>
     </cc:Agent>
    </dc:creator>
   </cc:Work>
  </rdf:RDF>
 </metadata>
 <defs>
  <style type="text/css">*{stroke-linejoin: round; stroke-linecap: butt}</style>
 </defs>
 <g id="figure_1">
  <g id="patch_1">
   <path d="M 0 189.690297 
L 371.52 189.690297 
L 371.52 0 
L 0 0 
z
" style="fill: #ffffff"/>
  </g>
  <g id="axes_1">
   <g id="PatchCollection_1">
    <defs>
     <path id="m0a8f951945" d="M 346.697208 -132.568241 
L 346.879711 -131.97678 
L 346.977046 -130.703874 
L 347.116965 -130.065905 
L 347.42722 -129.493654 
L 347.789185 -129.003297 
L 348.056856 -128.453289 
L 348.087273 -127.706126 
L 347.311635 -126.47063 
L 345.860736 -125.973196 
L 338.472408 -126.063179 
L 336.960675 -125.668871 
L 335.883907 -125.224011 
L 335.409399 -124.848914 
L 334.998768 -124.276662 
L 334.734138 -123.58713 
L 334.402591 -122.132236 
L 334.128837 -121.43866 
L 333.076403 -120.446825 
L 331.765423 -120.25877 
L 330.375359 -120.294157 
L 329.058296 -119.972645 
L 327.40056 -118.797811 
L 325.493404 -118.079969 
L 323.172575 -116.488584 
L 322.57944 -116.258066 
L 321.88897 -116.245934 
L 320.02744 -116.839417 
L 319.385638 -116.680683 
L 318.871588 -116.328839 
L 317.478482 -115.026614 
L 316.842763 -114.56861 
L 316.213128 -114.298661 
L 314.841314 -113.973105 
L 313.688503 -113.51308 
L 310.376074 -111.136113 
L 308.599712 -110.798424 
L 308.058287 -110.528475 
L 305.40591 -108.657031 
L 301.427345 -107.091934 
L 301.019755 -106.857372 
L 300.630415 -106.515638 
L 300.405328 -106.091 
L 300.161991 -105.116352 
L 299.869986 -104.730133 
L 298.832761 -104.256964 
L 296.667059 -103.804016 
L 293.935598 -101.692955 
L 292.761495 -101.151035 
L 292.23832 -100.795147 
L 291.754687 -100.18852 
L 291.633019 -99.484833 
L 292.15011 -97.978376 
L 292.232237 -97.270645 
L 291.931107 -96.603355 
L 291.401848 -96.146363 
L 290.227746 -95.444698 
L 289.750196 -94.977595 
L 289.014101 -93.86949 
L 288.454641 -92.786397 
L 287.663579 -91.254928 
L 287.252947 -90.630103 
L 286.827107 -90.150867 
L 283.852308 -87.568659 
L 283.329133 -87.36645 
L 282.72079 -87.435201 
L 281.577105 -87.971055 
L 277.72325 -88.529151 
L 276.673858 -88.486688 
L 275.688342 -88.163153 
L 271.80407 -86.072313 
L 271.353896 -85.910545 
L 270.809429 -85.857971 
L 269.306821 -85.932788 
L 267.034659 -85.281676 
L 266.192104 -85.320095 
L 265.319131 -85.775065 
L 263.658354 -86.478753 
L 262.015827 -86.830596 
L 261.078979 -86.778022 
L 259.372576 -86.24419 
L 255.713391 -86.478753 
L 254.822168 -86.788132 
L 253.246559 -87.601012 
L 252.443546 -87.752669 
L 249.277119 -87.030783 
L 248.124309 -86.539415 
L 247.357796 -85.768999 
L 246.944123 -85.154284 
L 245.85823 -84.345448 
L 245.353305 -83.858124 
L 245.076509 -83.11804 
L 245.179928 -82.367844 
L 245.398931 -81.601472 
L 245.471932 -80.822968 
L 245.225553 -80.036375 
L 244.766254 -79.545007 
L 243.601277 -78.885806 
L 242.627928 -78.01833 
L 241.85229 -76.821253 
L 241.350407 -75.413878 
L 241.155737 -71.448561 
L 241.05536 -70.813624 
L 240.720771 -70.25755 
L 239.160371 -69.028119 
L 238.418192 -67.826998 
L 237.469177 -65.072912 
L 236.809124 -63.958741 
L 236.00307 -63.151927 
L 233.438903 -61.445283 
L 232.502054 -60.5131 
L 232.012338 -60.327068 
L 231.595623 -60.810347 
L 231.124157 -63.220678 
L 230.832152 -63.879879 
L 229.971346 -64.156906 
L 229.125749 -63.192369 
L 228.231484 -61.926541 
L 227.239885 -61.297671 
L 226.686293 -61.431129 
L 225.588233 -62.049888 
L 225.025515 -62.229854 
L 224.304629 -62.161103 
L 221.679628 -60.875054 
L 221.29333 -60.316957 
L 220.961782 -59.657756 
L 220.475108 -58.988445 
L 219.897182 -58.588071 
L 219.267547 -58.446524 
L 218.622703 -58.488988 
L 216.715547 -58.980356 
L 216.076786 -59.028886 
L 215.444109 -58.958113 
L 214.087504 -58.363619 
L 213.421368 -58.307 
L 212.922526 -58.854987 
L 212.670064 -59.534409 
L 212.195556 -61.265317 
L 212.140805 -62.001358 
L 212.378059 -62.753575 
L 212.767399 -63.291451 
L 213.05332 -63.811128 
L 212.983361 -64.510771 
L 212.697439 -64.93541 
L 211.867051 -65.726047 
L 211.541587 -66.221459 
L 211.331709 -66.961544 
L 211.179623 -69.17371 
L 210.650364 -70.83789 
L 209.832143 -71.656836 
L 208.770584 -71.668968 
L 207.535647 -70.922817 
L 201.102417 -65.681561 
L 200.810412 -65.517772 
L 200.463657 -65.442954 
L 200.101692 -65.297364 
L 199.946565 -64.987984 
L 199.834021 -64.617942 
L 199.608934 -64.294408 
L 199.061425 -64.158928 
L 198.513916 -64.427866 
L 197.963366 -64.820151 
L 197.418899 -65.044603 
L 196.685845 -64.923277 
L 195.250155 -64.260032 
L 194.504934 -64.152861 
L 193.425125 -64.395512 
L 192.357483 -64.864637 
L 189.799399 -66.656208 
L 189.130222 -66.973676 
L 188.509712 -66.913014 
L 188.420031 -66.775248 
L 188.059538 -66.221459 
L 187.940911 -65.819063 
L 187.913535 -65.679539 
L 187.676281 -64.961697 
L 187.311275 -64.138707 
L 187.098355 -63.356158 
L 187.311275 -62.761664 
L 188.695256 -61.45135 
L 189.054179 -60.933695 
L 189.297516 -59.655734 
L 188.378918 -59.411061 
L 185.899919 -60.060152 
L 185.252033 -60.100594 
L 184.695399 -59.855921 
L 183.183666 -58.300934 
L 182.690908 -57.926847 
L 181.544181 -57.308088 
L 180.564749 -56.555871 
L 177.951914 -53.640018 
L 174.809821 -51.033544 
L 173.748262 -50.560375 
L 172.838789 -50.416807 
L 171.938441 -50.564419 
L 170.92555 -50.958727 
L 169.903533 -51.191267 
L 168.857183 -51.055787 
L 167.835166 -50.62306 
L 166.904401 -49.978013 
L 165.970594 -49.545286 
L 164.042146 -49.272304 
L 163.239133 -48.598948 
L 162.934961 -48.19453 
L 162.68554 -47.731472 
L 162.515204 -47.215839 
L 162.445245 -46.64561 
L 162.27795 -45.721515 
L 161.785192 -45.066358 
L 161.204224 -44.461753 
L 160.781426 -43.689315 
L 160.553297 -42.061532 
L 160.413378 -41.610606 
L 160.18525 -41.291116 
L 159.336611 -40.557098 
L 158.98073 -39.994957 
L 158.716101 -39.289248 
L 158.585307 -38.520854 
L 158.621807 -37.764592 
L 158.907729 -36.992154 
L 159.306194 -36.733326 
L 159.801993 -36.607957 
L 160.373836 -36.246003 
L 160.790551 -35.560514 
L 160.970012 -34.741568 
L 161.10689 -33.05919 
L 161.769984 -30.962283 
L 161.617898 -30.541688 
L 160.960887 -30.12716 
L 160.483338 -29.722742 
L 160.112248 -29.158579 
L 159.780701 -28.276948 
L 159.452196 -26.926192 
L 159.166275 -26.376183 
L 158.649183 -26.08298 
L 153.113259 -25.306498 
L 152.279829 -25.747314 
L 149.56966 -26.052649 
L 148.529393 -25.949523 
L 145.314299 -25.128554 
L 144.593412 -24.614943 
L 144.368325 -24.008316 
L 144.304449 -23.458308 
L 144.100654 -23.057934 
L 142.421626 -22.732378 
L 139.434661 -21.668759 
L 138.497812 -21.593942 
L 137.466671 -21.895233 
L 136.949579 -22.156082 
L 136.587615 -22.269319 
L 136.213484 -22.194502 
L 134.768668 -21.403865 
L 134.327619 -21.373534 
L 133.810528 -21.545411 
L 131.973331 -21.955896 
L 131.364988 -22.002404 
L 130.09355 -21.721333 
L 129.646418 -21.701112 
L 124.207829 -23.171171 
L 123.715071 -23.199481 
L 123.204063 -23.039736 
L 122.902933 -22.768776 
L 122.340216 -22.040823 
L 122.008668 -21.822438 
L 121.528077 -21.832548 
L 120.782857 -22.332004 
L 120.338766 -22.46344 
L 120.016344 -22.31785 
L 119.094704 -21.306805 
L 118.614113 -21.227943 
L 118.118313 -21.25423 
L 117.151048 -21.511036 
L 116.636998 -21.490815 
L 115.538938 -20.914519 
L 114.897136 -20.825547 
L 114.373961 -20.629405 
L 114.01808 -20.032888 
L 113.345861 -17.925871 
L 112.135257 -15.194028 
L 111.800669 -15.167741 
L 111.793747 -15.178117 
L 111.496497 -15.623722 
L 111.219701 -16.265735 
L 111.140616 -16.640833 
L 111.137575 -16.943135 
L 111.046323 -17.185786 
L 110.431896 -17.519431 
L 109.981722 -17.887451 
L 109.732302 -18.039108 
L 108.463906 -18.255472 
L 107.852521 -18.526432 
L 107.587892 -19.11486 
L 107.539224 -19.941894 
L 107.362805 -20.93474 
L 107.034299 -21.790084 
L 106.529374 -22.196524 
L 105.990991 -22.111596 
L 104.959849 -21.531257 
L 103.861789 -21.296694 
L 103.365989 -21.029779 
L 100.458109 -18.916695 
L 99.384383 -18.439482 
L 98.307615 -18.310068 
L 97.741856 -18.494078 
L 97.203472 -18.918717 
L 96.77459 -19.543543 
L 96.555587 -20.322047 
L 96.616421 -21.126839 
L 96.917551 -21.614162 
L 97.312974 -22.028691 
L 97.650605 -22.615097 
L 97.760106 -23.40169 
L 97.684063 -24.412734 
L 97.419434 -25.306498 
L 96.954052 -25.739225 
L 96.370042 -25.723048 
L 93.373951 -25.071936 
L 91.947386 -25.142709 
L 90.727658 -25.716982 
L 90.116273 -27.079871 
L 90.365694 -27.68852 
L 91.113956 -28.82089 
L 91.272126 -29.405274 
L 91.095706 -30.034144 
L 90.669866 -30.62055 
L 90.632883 -30.653804 
L 90.143649 -31.093718 
L 89.158133 -31.7145 
L 88.619749 -31.657881 
L 87.603816 -31.168536 
L 86.767344 -31.012835 
L 86.479901 -30.907686 
L 86.276107 -30.754007 
L 85.871558 -30.31117 
L 85.657117 -30.133226 
L 84.636621 -29.565019 
L 84.22599 -29.243506 
L 83.28762 -28.135401 
L 82.969761 -27.890729 
L 82.606276 -27.894773 
L 80.93029 -28.228418 
L 79.678624 -28.155622 
L 78.455854 -27.811867 
L 77.485546 -27.15671 
L 76.878724 -26.070848 
L 76.445279 -24.792887 
L 75.906896 -23.713091 
L 74.960922 -23.215657 
L 74.156388 -23.444153 
L 73.430939 -23.921367 
L 72.789137 -24.230746 
L 72.234023 -23.957764 
L 71.87358 -23.531103 
L 71.636326 -23.438087 
L 71.374738 -23.482573 
L 70.927606 -23.470441 
L 70.573246 -23.359226 
L 69.677461 -22.841571 
L 68.868364 -22.714179 
L 67.9741 -22.875946 
L 67.19542 -23.353159 
L 66.748288 -24.157951 
L 66.763497 -24.643253 
L 66.89429 -25.164952 
L 66.96425 -25.70485 
L 66.796955 -26.238681 
L 66.514076 -26.513685 
L 65.825127 -26.814977 
L 65.508789 -27.081893 
L 65.507268 -27.087959 
L 65.497671 -27.119065 
L 64.920216 -28.990745 
L 64.512627 -29.813736 
L 63.797823 -30.371832 
L 63.280731 -30.440584 
L 62.200922 -30.23433 
L 61.686872 -30.286905 
L 61.315783 -30.517423 
L 60.652689 -31.117984 
L 60.24814 -31.287839 
L 59.740174 -31.223132 
L 58.788116 -30.85309 
L 58.301442 -30.749963 
L 58.018562 -30.644815 
L 57.839101 -30.438561 
L 57.693099 -30.22422 
L 57.513637 -30.100872 
L 57.218591 -30.106939 
L 56.605685 -30.299037 
L 56.303034 -30.335435 
L 55.92282 -30.187822 
L 53.297819 -28.204152 
L 52.774643 -28.074739 
L 52.266677 -28.270881 
L 52.218009 -28.82089 
L 52.531306 -30.226242 
L 52.525223 -30.893532 
L 52.391387 -31.621484 
L 52.108508 -32.003659 
L 51.653771 -31.645749 
L 50.834028 -29.82789 
L 50.587649 -29.451782 
L 50.100975 -29.28597 
L 49.624946 -29.465936 
L 48.637909 -30.058409 
L 48.035649 -30.201977 
L 47.390806 -30.208043 
L 46.782462 -30.011901 
L 46.283621 -29.552886 
L 45.824322 -28.877508 
L 45.577943 -28.675299 
L 44.691282 -29.09185 
L 43.488284 -29.225308 
L 41.21308 -28.746072 
L 40.069395 -29.103982 
L 38.840541 -29.825868 
L 37.678605 -30.226242 
L 36.474086 -30.371832 
L 33.909919 -30.206021 
L 33.398911 -29.993702 
L 32.413395 -29.114093 
L 31.911511 -28.798647 
L 31.373128 -28.602504 
L 30.819535 -28.517576 
L 30.17165 -28.519598 
L 28.903254 -28.307279 
L 28.29339 -28.52162 
L 27.580107 -29.281926 
L 27.415855 -29.397185 
L 27.132975 -29.269794 
L 27.026515 -29.017032 
L 26.953514 -28.711697 
L 26.771011 -28.426582 
L 25.612117 -27.939259 
L 25.195402 -28.881552 
L 25.341404 -33.544491 
L 25.234944 -34.284576 
L 25.015941 -34.929622 
L 24.599226 -35.457388 
L 24.082134 -35.912358 
L 23.639564 -36.432035 
L 23.432727 -37.149877 
L 23.528541 -38.696775 
L 23.857047 -40.199188 
L 25.203006 -44.378847 
L 25.768765 -45.664896 
L 25.898038 -46.057182 
L 25.905643 -46.29781 
L 26.013624 -46.380716 
L 26.421214 -46.295788 
L 27.288103 -45.306986 
L 28.702501 -42.827904 
L 31.534339 -43.85917 
L 31.50088 -44.376825 
L 30.819535 -45.646697 
L 30.843869 -45.915635 
L 30.819535 -46.172441 
L 30.755659 -46.413069 
L 30.640074 -46.64561 
L 30.40282 -47.887173 
L 30.594448 -48.888107 
L 31.067435 -49.777826 
L 31.674258 -50.685745 
L 31.759426 -50.940528 
L 31.884136 -51.615906 
L 32.017971 -51.787783 
L 32.255225 -51.712966 
L 32.56548 -51.114428 
L 32.754067 -50.926373 
L 33.219449 -50.873799 
L 33.709166 -50.946594 
L 45.30723 -55.172761 
L 46.338372 -55.061546 
L 50.534419 -52.252864 
L 51.171659 -52.044589 
L 52.634724 -52.141649 
L 53.311506 -52.087053 
L 53.957871 -51.75543 
L 54.379149 -51.278217 
L 54.745676 -50.734275 
L 55.217142 -50.210554 
L 55.7464 -49.925439 
L 56.783625 -49.789959 
L 57.906019 -49.288481 
L 60.24814 -48.928549 
L 60.981194 -48.691964 
L 61.668622 -48.210707 
L 61.96671 -47.51713 
L 61.534786 -46.647632 
L 61.066362 -46.309943 
L 60.579687 -46.053137 
L 60.129513 -45.723537 
L 59.747778 -45.17555 
L 59.472503 -44.443554 
L 59.388855 -43.76211 
L 59.612422 -43.246477 
L 60.24814 -43.015959 
L 60.505165 -43.35567 
L 60.746982 -44.219102 
L 60.944693 -44.566901 
L 61.288407 -44.746867 
L 62.538553 -44.789331 
L 63.17275 -45.023894 
L 63.761323 -45.404047 
L 64.272331 -45.943944 
L 64.667754 -46.653698 
L 64.920216 -48.008498 
L 64.883716 -49.213663 
L 65.022114 -50.21662 
L 65.802314 -50.968837 
L 67.682095 -51.615906 
L 68.083601 -51.866645 
L 69.23337 -52.863535 
L 69.415873 -53.114274 
L 69.51625 -53.20729 
L 69.680502 -53.229533 
L 69.826505 -53.15876 
L 69.925361 -53.0617 
L 69.945132 -53.003059 
L 70.480474 -53.292218 
L 70.684269 -53.474206 
L 71.07665 -53.615752 
L 72.647697 -53.25582 
L 73.552607 -53.569244 
L 74.541165 -54.315395 
L 75.030881 -55.269822 
L 74.42558 -56.220204 
L 75.490181 -57.324265 
L 77.199625 -57.623534 
L 80.618514 -57.122056 
L 81.549279 -57.217094 
L 81.964474 -57.878317 
L 82.22454 -58.743772 
L 82.68384 -59.457569 
L 83.103596 -59.586983 
L 83.401685 -59.344332 
L 83.663272 -58.933848 
L 83.968965 -58.569872 
L 84.376555 -58.389906 
L 84.861708 -58.34542 
L 85.784869 -58.444502 
L 86.379525 -58.402039 
L 87.304207 -57.518385 
L 88.622791 -57.101835 
L 88.90567 -56.63271 
L 89.139882 -56.054392 
L 89.675224 -55.532693 
L 90.301818 -55.130298 
L 90.974037 -54.865404 
L 92.358018 -54.584333 
L 93.084988 -54.657129 
L 93.340493 -55.108055 
L 93.410452 -55.785455 
L 93.589913 -56.533628 
L 94.125255 -57.022973 
L 94.645389 -56.561937 
L 95.062104 -55.676262 
L 95.268941 -54.881581 
L 95.259816 -53.276041 
L 95.442318 -52.679525 
L 96.038495 -52.414631 
L 96.446085 -52.537979 
L 97.994318 -53.470162 
L 98.468826 -53.933221 
L 98.788206 -54.46503 
L 99.338757 -55.708615 
L 100.251272 -56.642821 
L 101.324998 -56.705505 
L 102.483892 -56.418369 
L 103.645827 -56.319286 
L 103.9865 -56.430501 
L 104.156836 -56.456788 
L 104.388006 -56.404214 
L 104.740845 -56.256601 
L 105.206228 -56.17774 
L 105.619901 -56.284911 
L 105.811529 -56.70955 
L 105.647277 -57.016907 
L 105.453575 -57.147599 
L 105.239687 -57.291911 
L 104.388006 -57.696329 
L 103.834414 -58.104791 
L 103.624535 -58.691197 
L 103.788788 -59.24525 
L 106.334705 -60.56163 
L 107.113384 -61.348223 
L 107.539224 -62.442174 
L 107.715644 -63.172148 
L 107.986356 -63.576566 
L 109.945222 -64.67456 
L 110.441021 -64.805996 
L 111.783727 -64.877059 
L 112.007505 -64.888902 
L 112.545889 -64.826217 
L 112.816366 -64.604914 
L 112.822685 -64.599743 
L 112.704058 -64.203414 
L 112.278218 -64.059845 
L 111.776335 -64.013337 
L 111.435663 -63.912233 
L 111.296379 -63.555649 
L 111.292702 -63.546234 
L 111.666833 -63.422887 
L 112.999105 -63.485572 
L 113.431029 -63.321783 
L 115.17089 -62.286473 
L 115.96782 -61.983159 
L 116.661331 -62.130772 
L 117.260549 -62.963873 
L 117.576888 -63.952674 
L 117.607305 -64.866659 
L 117.604118 -64.874676 
L 117.425539 -65.323939 
L 117.29705 -65.647186 
L 117.294783 -65.64885 
L 116.019529 -66.585435 
L 115.760983 -66.939301 
L 115.760928 -66.943279 
L 115.7549 -67.380116 
L 115.952611 -68.017075 
L 115.955653 -68.716718 
L 115.951086 -68.724489 
L 115.319934 -69.798536 
L 115.320716 -69.803588 
L 115.420311 -70.447626 
L 116.293284 -70.845978 
L 117.272716 -69.974457 
L 118.246065 -68.823888 
L 119.094704 -68.397227 
L 120.229264 -68.243549 
L 122.303715 -66.799777 
L 123.471734 -66.868528 
L 123.92495 -67.234526 
L 124.207829 -67.715783 
L 124.344707 -68.271858 
L 124.384249 -68.850175 
L 124.612378 -69.501288 
L 125.14772 -69.497244 
L 126.230571 -68.995766 
L 127.088335 -69.39614 
L 127.432049 -72.004635 
L 128.134685 -73.096564 
L 129.165827 -73.543445 
L 131.285903 -74.091432 
L 133.810528 -75.694949 
L 136.572406 -76.728237 
L 137.968554 -77.528984 
L 138.868902 -78.732127 
L 138.713774 -79.520742 
L 138.711491 -79.521265 
L 138.468677 -79.576871 
L 137.804301 -79.729018 
L 136.070523 -79.617803 
L 135.474346 -80.044463 
L 135.066756 -80.618737 
L 134.59529 -80.942271 
L 132.417422 -79.92516 
L 131.054733 -78.964668 
L 130.67756 -78.908049 
L 130.756645 -79.559162 
L 130.628892 -80.705687 
L 129.494332 -81.017089 
L 125.701312 -80.671311 
L 124.435958 -80.82499 
L 123.295314 -81.330513 
L 122.3828 -82.337513 
L 121.120487 -84.321183 
L 120.551686 -84.543613 
L 119.821674 -84.594165 
L 119.289374 -84.871191 
L 119.295458 -85.768999 
L 119.344125 -86.005584 
L 119.328916 -86.205771 
L 119.24679 -86.367538 
L 119.094704 -86.484819 
L 117.52822 -86.638498 
L 116.69479 -86.885193 
L 116.080363 -87.273434 
L 115.237808 -88.603969 
L 114.845427 -88.872907 
L 114.307043 -88.436135 
L 114.151915 -88.153043 
L 113.814285 -87.123799 
L 113.59224 -86.943833 
L 112.509389 -86.790154 
L 110.817195 -86.271356 
L 109.92393 -85.997495 
L 110.325436 -86.929679 
L 110.52619 -87.629322 
L 110.52619 -88.395694 
L 110.255477 -90.440026 
L 110.203768 -91.55622 
L 110.063849 -92.621861 
L 109.726218 -93.374078 
L 108.974914 -93.82096 
L 108.257069 -93.707723 
L 107.572683 -93.256797 
L 106.936964 -92.682523 
L 106.057908 -92.150714 
L 105.549942 -92.421674 
L 105.099768 -93.066721 
L 104.388006 -93.661215 
L 102.051968 -93.258819 
L 101.285455 -93.632906 
L 101.130328 -95.280909 
L 101.203329 -96.949133 
L 101.032993 -98.239226 
L 100.561527 -99.397883 
L 97.799649 -103.524968 
L 97.565436 -103.741332 
L 97.319057 -103.842436 
L 97.130471 -103.676625 
L 97.109179 -102.851612 
L 96.871925 -102.643337 
L 96.595129 -102.770729 
L 96.43696 -103.399598 
L 96.120621 -103.531034 
L 95.983744 -103.314671 
L 95.862075 -102.88801 
L 95.688698 -102.56852 
L 95.40886 -102.671646 
L 95.384526 -103.146837 
L 95.925951 -105.344849 
L 95.92291 -106.159751 
L 95.767782 -106.920056 
L 95.393651 -107.441756 
L 94.748807 -107.540838 
L 94.09788 -107.277966 
L 93.741999 -106.845239 
L 93.15799 -105.342826 
L 93.161031 -105.340804 
L 93.161031 -105.332716 
L 93.456078 -104.681603 
L 94.283425 -103.615962 
L 94.392926 -102.89812 
L 94.265174 -102.117594 
L 93.845417 -100.805257 
L 92.865985 -98.682063 
L 92.053847 -97.828742 
L 91.05008 -97.630577 
L 89.778643 -98.182607 
L 88.361203 -99.515164 
L 87.958176 -99.616269 
L 87.775673 -99.118835 
L 88.03726 -92.365055 
L 87.879091 -91.006211 
L 87.219039 -90.43396 
L 85.205422 -92.179023 
L 84.469327 -91.228641 
L 84.152989 -90.478446 
L 83.760607 -90.450137 
L 83.384955 -90.854555 
L 83.103596 -91.402541 
L 82.741632 -92.876644 
L 82.407043 -93.349813 
L 81.707449 -93.408454 
L 81.099105 -93.074809 
L 81.020021 -92.532889 
L 81.162981 -91.831224 
L 81.223816 -91.010255 
L 80.934853 -90.253994 
L 80.472512 -90.56944 
L 79.727291 -91.829202 
L 79.255825 -92.213399 
L 78.157766 -92.363033 
L 77.622424 -92.664325 
L 77.017122 -93.145582 
L 76.360111 -93.448895 
L 74.960922 -93.705701 
L 73.695568 -93.513602 
L 73.108517 -93.576287 
L 72.571654 -94.087876 
L 72.165585 -94.650017 
L 71.681952 -95.147451 
L 71.152693 -95.53367 
L 70.586934 -95.770254 
L 69.92384 -95.705547 
L 69.351997 -95.430543 
L 68.877489 -95.355726 
L 68.512483 -95.889558 
L 68.460774 -96.573024 
L 68.89574 -98.975266 
L 68.840989 -99.800279 
L 68.561151 -100.599004 
L 66.909499 -103.454195 
L 66.413699 -104.119462 
L 65.857065 -104.467262 
L 64.85634 -104.315605 
L 61.251907 -102.240941 
L 60.24814 -101.856744 
L 60.058441 -101.865423 
L 59.540941 -101.889097 
L 59.09533 -102.303626 
L 58.375964 -103.658426 
L 57.945561 -104.216523 
L 57.452803 -104.665426 
L 56.354743 -105.332716 
L 56.34866 -105.338782 
L 56.342577 -105.340804 
L 56.339535 -105.344849 
L 52.190634 -105.807907 
L 51.104741 -106.378136 
L 50.566357 -107.63992 
L 51.185347 -108.652987 
L 55.950195 -111.44246 
L 57.705265 -112.828602 
L 58.666448 -113.292672 
L 59.554629 -113.886155 
L 60.24814 -114.917421 
L 61.108946 -116.762578 
L 62.39255 -118.268023 
L 65.301952 -120.746094 
L 66.206862 -121.282959 
L 69.139077 -121.617615 
L 70.159573 -122.003834 
L 70.486557 -122.661013 
L 70.573246 -124.907554 
L 71.085775 -126.340205 
L 72.29942 -126.658684 
L 73.747277 -126.594988 
L 74.960922 -126.883136 
L 79.118948 -129.961767 
L 81.549279 -130.66141 
L 82.644297 -131.422727 
L 83.085346 -132.882676 
L 82.987269 -132.915181 
L 82.045079 -133.227442 
L 77.91747 -136.154417 
L 76.980622 -136.537603 
L 76.046815 -136.410211 
L 74.738877 -135.461851 
L 74.097074 -134.862302 
L 73.239311 -135.066533 
L 72.626405 -135.389056 
L 71.458386 -136.541647 
L 71.297175 -137.129064 
L 71.654576 -137.73468 
L 72.361623 -138.40079 
L 72.700927 -138.720449 
L 73.652984 -139.87304 
L 73.862862 -140.32801 
L 73.789861 -140.599981 
L 73.625608 -140.862852 
L 73.570858 -141.285469 
L 73.753361 -142.041731 
L 74.090991 -142.811136 
L 74.51379 -143.469326 
L 74.960922 -143.885876 
L 76.361632 -142.994135 
L 76.840703 -142.948638 
L 77.24373 -143.167024 
L 77.522047 -143.556276 
L 77.584402 -144.018323 
L 77.336502 -144.459139 
L 77.330419 -144.459139 
L 77.327377 -144.463183 
L 77.327377 -144.467227 
L 76.302319 -145.360991 
L 76.007272 -145.736088 
L 75.727434 -147.203114 
L 76.830057 -147.868382 
L 79.371411 -148.262689 
L 79.835272 -148.729792 
L 79.991921 -149.311143 
L 79.943253 -150.855008 
L 80.019296 -151.680021 
L 80.270238 -152.071295 
L 81.378943 -152.435271 
L 81.856493 -152.747684 
L 82.221499 -153.245118 
L 82.857217 -154.387599 
L 83.359101 -154.639349 
L 84.01307 -154.43714 
L 84.712664 -154.112595 
L 85.339258 -153.99228 
L 85.862433 -154.219765 
L 86.318691 -154.660581 
L 86.70803 -155.216655 
L 87.021327 -155.793962 
L 87.54146 -156.25601 
L 88.254743 -156.283308 
L 89.675224 -155.812161 
L 90.161899 -156.022458 
L 90.472154 -156.049756 
L 90.770242 -155.897089 
L 91.932178 -154.926486 
L 92.300226 -154.782917 
L 92.808192 -154.876944 
L 96.044578 -156.918244 
L 97.011844 -157.225601 
L 99.080211 -157.328728 
L 100.102228 -157.691693 
L 100.582819 -157.788753 
L 101.039076 -157.592611 
L 101.498376 -157.291319 
L 101.98505 -157.084055 
L 103.797913 -156.636162 
L 107.204635 -154.780895 
L 108.150609 -154.512968 
L 108.5947 -154.570598 
L 109.443339 -154.96895 
L 109.893513 -155.090275 
L 113.668282 -154.932552 
L 115.611939 -154.163147 
L 119.094704 -151.860998 
L 120.125846 -151.664855 
L 122.245922 -151.693164 
L 126.425241 -150.699307 
L 127.340797 -150.203895 
L 128.03735 -149.430446 
L 129.056325 -147.575179 
L 129.807629 -146.896768 
L 130.80227 -146.438765 
L 131.796911 -146.16376 
L 132.797636 -146.127363 
L 136.572406 -146.749155 
L 137.880344 -146.706691 
L 138.987529 -146.251721 
L 139.577622 -145.806862 
L 140.058213 -145.529835 
L 140.581388 -145.3893 
L 142.686256 -145.241687 
L 143.364559 -144.993981 
L 143.811691 -144.471271 
L 143.717398 -143.276216 
L 143.747815 -142.430983 
L 144.09457 -141.926472 
L 146.780406 -141.471501 
L 148.529393 -140.767814 
L 149.359781 -140.919471 
L 149.371948 -141.623158 
L 149.358981 -141.647853 
L 147.236663 -145.68958 
L 146.783448 -146.914967 
L 146.561402 -148.225281 
L 146.640487 -149.699384 
L 146.968992 -151.086537 
L 148.529393 -154.5342 
L 149.314156 -156.224667 
L 149.417574 -156.824217 
L 149.335448 -157.535992 
L 148.973483 -158.843273 
L 148.900482 -159.501463 
L 149.003901 -160.171786 
L 149.244196 -160.734938 
L 149.849498 -161.784402 
L 150.965807 -164.959083 
L 151.297355 -165.531335 
L 151.759695 -165.936763 
L 153.155843 -166.726389 
L 158.202051 -168.771733 
L 158.710017 -168.872838 
L 159.929745 -168.825318 
L 161.030847 -169.406669 
L 162.013321 -172.097059 
L 162.904544 -172.770415 
L 163.494637 -172.565173 
L 164.556196 -171.572327 
L 165.097621 -171.398427 
L 169.733197 -171.943381 
L 170.219872 -172.211308 
L 170.298956 -172.770415 
L 169.988701 -173.44276 
L 169.185688 -174.522556 
L 170.037369 -174.056464 
L 171.536935 -172.724918 
L 172.370365 -172.390262 
L 173.343714 -172.172888 
L 174.189311 -171.757348 
L 175.713211 -170.524885 
L 176.303304 -170.223593 
L 177.544324 -170.098224 
L 178.587633 -169.412736 
L 179.795194 -169.091223 
L 180.351828 -168.783866 
L 180.759418 -168.281376 
L 181.495514 -167.034758 
L 181.915271 -166.558556 
L 184.935695 -164.277639 
L 185.960753 -163.89142 
L 189.318808 -163.336356 
L 191.840391 -162.124114 
L 192.673821 -161.405261 
L 193.513335 -161.010953 
L 195.301864 -160.471055 
L 196.129211 -159.989798 
L 196.831847 -159.450911 
L 198.611251 -158.399424 
L 199.377764 -158.224514 
L 201.336629 -158.246757 
L 207.970612 -157.392424 
L 209.129506 -157.513749 
L 209.716557 -157.442976 
L 211.614588 -156.663461 
L 212.371976 -156.694803 
L 213.22974 -157.057768 
L 214.069253 -157.649229 
L 214.768848 -158.361005 
L 215.082145 -158.865516 
L 216.034202 -161.372907 
L 216.371833 -161.673188 
L 216.815923 -161.785414 
L 217.10721 -161.808081 
L 218.63487 -161.92696 
L 219.784638 -161.766204 
L 222.096343 -161.101947 
L 222.759437 -161.059483 
L 224.684843 -161.698464 
L 225.451356 -161.710596 
L 227.604891 -161.196985 
L 230.275518 -161.196985 
L 232.806226 -160.434658 
L 233.119523 -160.482177 
L 233.703532 -160.745048 
L 234.056371 -160.763247 
L 234.360543 -160.575193 
L 234.689048 -159.948345 
L 234.971928 -159.801744 
L 235.501186 -159.961489 
L 236.380242 -160.799645 
L 236.927751 -161.033196 
L 237.703389 -160.936136 
L 239.23033 -160.299178 
L 240.002926 -160.16572 
L 240.617353 -160.310299 
L 241.748872 -160.8047 
L 243.05681 -160.773358 
L 243.619527 -160.903782 
L 244.748004 -161.499288 
L 244.869672 -161.643867 
L 244.906173 -161.8208 
L 244.973091 -161.964368 
L 245.192094 -162.014921 
L 245.727436 -161.906739 
L 245.894731 -161.920894 
L 246.12286 -162.054351 
L 246.746411 -162.775226 
L 247.315212 -163.176611 
L 247.902264 -163.269627 
L 249.204118 -163.285804 
L 250.372137 -163.735719 
L 250.947022 -163.832779 
L 251.521906 -163.586084 
L 254.86171 -163.036076 
L 255.865477 -162.674122 
L 256.19094 -162.394063 
L 257.033496 -161.229339 
L 257.474545 -160.885584 
L 257.958178 -160.763247 
L 258.451971 -160.758333 
L 258.974111 -160.753137 
L 261.872866 -160.273902 
L 262.837091 -160.546884 
L 264.084194 -161.142389 
L 264.534368 -161.239449 
L 264.987584 -161.207096 
L 265.805806 -160.932092 
L 266.976866 -160.938158 
L 267.548709 -160.6399 
L 268.062759 -160.223349 
L 268.63156 -159.90487 
L 269.121276 -159.893749 
L 270.666468 -160.625745 
L 271.280895 -160.741004 
L 273.224552 -160.666187 
L 275.207751 -160.198073 
L 275.393295 -159.966544 
L 275.514964 -159.705694 
L 275.706592 -159.489331 
L 276.053348 -159.245669 
L 276.807693 -159.580325 
L 277.29741 -159.897793 
L 277.562039 -160.010019 
L 278.228175 -160.104046 
L 278.909519 -160.028218 
L 279.56653 -159.782534 
L 281.239474 -158.811931 
L 282.547412 -158.595567 
L 285.704714 -158.881693 
L 287.049152 -158.809909 
L 288.408799 -158.999985 
L 288.9776 -158.89787 
L 290.185162 -158.469187 
L 290.805672 -158.432789 
L 291.310597 -158.619832 
L 292.378239 -159.294199 
L 292.992666 -159.51764 
L 294.288437 -159.612678 
L 296.247302 -159.414513 
L 299.136933 -158.421667 
L 300.347536 -157.72708 
L 301.363469 -156.892968 
L 301.868394 -156.636162 
L 305.42416 -156.283308 
L 307.784532 -155.329892 
L 309.73123 -155.2207 
L 310.868832 -154.778873 
L 311.985142 -154.740453 
L 314.278596 -155.882934 
L 315.440532 -156.103342 
L 316.179669 -155.894055 
L 316.398673 -155.498737 
L 316.231378 -153.99228 
L 316.258754 -153.088406 
L 316.42909 -152.292714 
L 316.733261 -151.558695 
L 317.149976 -150.839842 
L 318.20241 -149.795433 
L 320.532365 -148.715637 
L 321.466172 -147.742001 
L 322.801485 -144.597652 
L 323.604498 -143.527967 
L 325.097981 -142.916284 
L 327.908527 -142.742385 
L 330.281066 -143.193311 
L 331.573795 -143.145792 
L 338.092193 -141.76066 
L 339.333213 -140.941714 
L 339.740803 -140.470567 
L 340.863197 -138.82863 
L 342.773394 -137.116931 
L 343.746744 -135.84807 
L 344.525423 -134.499336 
L 345.410562 -133.319447 
L 346.697208 -132.568241 
M 98.751706 -46.489909 
L 98.018652 -46.255346 
L 96.944926 -45.432356 
L 96.43696 -45.17555 
L 95.697823 -45.135109 
L 95.220273 -44.552747 
L 95.509236 -43.988584 
L 96.141913 -43.521481 
L 96.710714 -43.244455 
L 97.46506 -43.009892 
L 97.921317 -43.100886 
L 98.21028 -43.584166 
L 98.876416 -46.083469 
L 98.751706 -46.489909 
M 80.840559 -48.536263 
L 80.618514 -48.568617 
L 80.502929 -48.63939 
L 80.402552 -48.728362 
L 78.752421 -49.434071 
L 77.953971 -49.969925 
L 77.450567 -50.616994 
L 77.044498 -51.686679 
L 76.55174 -52.641105 
L 75.885604 -53.065744 
L 74.960922 -52.550111 
L 74.452955 -51.330791 
L 74.281098 -50.641259 
L 74.24916 -49.992168 
L 74.410371 -49.361276 
L 75.137342 -47.72945 
L 75.47193 -47.240104 
L 75.858228 -47.029807 
L 76.642991 -46.857929 
L 76.982142 -46.580903 
L 77.115978 -45.440444 
L 75.858228 -43.416332 
L 75.906896 -42.421464 
L 76.277985 -42.229366 
L 76.6947 -42.492238 
L 77.099248 -42.9007 
L 77.427754 -43.141328 
L 77.98743 -43.113019 
L 78.128869 -42.777352 
L 78.20035 -42.346647 
L 78.544064 -42.021091 
L 78.979029 -41.980649 
L 80.372135 -42.362824 
L 81.360693 -42.385067 
L 81.768283 -42.540768 
L 82.08158 -43.015959 
L 82.139372 -44.221124 
L 80.843601 -45.646697 
L 80.775163 -46.657742 
L 81.254233 -47.136977 
L 82.616922 -48.109602 
L 82.814633 -48.722296 
L 82.589546 -49.086272 
L 82.218457 -49.157045 
L 81.467153 -48.950792 
L 81.312026 -48.859798 
L 80.986562 -48.59086 
L 80.840559 -48.536263 
M 60.880817 -42.27183 
L 60.439768 -42.283962 
L 60.40631 -41.679358 
L 60.628355 -41.030267 
L 61.020736 -40.455993 
L 62.018419 -39.744218 
L 62.310424 -39.366087 
L 63.151458 -37.896028 
L 63.320274 -37.758526 
L 64.832007 -39.006155 
L 65.674562 -39.451015 
L 66.643349 -39.647157 
L 66.946 -39.93025 
L 66.993146 -40.631915 
L 66.772622 -41.353801 
L 66.410657 -41.448839 
L 65.479892 -41.01409 
L 64.44723 -41.050488 
L 60.880817 -42.27183 
" style="stroke: #000000"/>
    </defs>
    <g clip-path="url(#pbbb3717fee)">
     <use xlink:href="#m0a8f951945" x="0" y="189.690297" style="fill: #f5f5f5; stroke: #000000"/>
    </g>
   </g>
  </g>
 </g>
 <defs>
  <clipPath id="pbbb3717fee">
   <rect x="7.2" y="7.2" width="357.12" height="175.290297"/>
  </clipPath>
 </defs>
</svg>
