<?xml version="1.0" encoding="utf-8" standalone="no"?>
<!DOCTYPE svg PUBLIC "-//W3C//DTD SVG 1.1//EN"
  "http://www.w3.org/Graphics/SVG/1.1/DTD/svg11.dtd">
<svg xmlns:xlink="http://www.w3.org/1999/xlink" width="237.338111pt" height="280.512pt" viewBox="0 0 237.338111 280.512" xmlns="http://www.w3.org/2000/svg" version="1.1">
 <metadata>
  <rdf:RDF xmlns:dc="http://purl.org/dc/elements/1.1/" xmlns:cc="http://creativecommons.org/ns#" xmlns:rdf="http://www.w3.org/1999/02/22-rdf-syntax-ns#">
   <cc:Work>
    <dc:type rdf:resource="http://purl.org/dc/dcmitype/StillImage"/>
    <dc:date>2024-03-04T13:11:11.515034</dc:date>
    <dc:format>image/svg+xml</dc:format>
    <dc:creator>
     <cc:Agent>
      <dc:title>Matplotlib v3.8.0, https://matplotlib.org/</dc:title>
     </cc:Agent>
    </dc:creator>
   </cc:Work>
  </rdf:RDF>
 </metadata>
 <defs>
  <style type="text/css">*{stroke-linejoin: round; stroke-linecap: butt}</style>
 </defs>
 <g id="figure_1">
  <g id="patch_1">
   <path d="M 0 280.512 
L 237.338111 280.512 
L 237.338111 0 
L 0 0 
z
" style="fill: #ffffff"/>
  </g>
  <g id="axes_1">
   <g id="PatchCollection_1">
    <defs>
     <path id="me2bcd37bcb" d="M 71.476588 -258.439036 
L 71.657896 -258.047115 
L 71.817059 -257.767378 
L 72.085559 -256.877177 
L 72.160297 -256.776646 
L 72.392813 -256.604725 
L 72.480006 -256.480884 
L 72.480006 -256.327903 
L 72.391429 -255.99426 
L 72.432949 -255.820881 
L 72.82186 -255.396906 
L 73.285508 -255.079289 
L 73.670267 -254.71505 
L 73.841886 -254.14975 
L 74.358127 -253.67041 
L 75.970516 -252.87054 
L 77.888774 -251.028944 
L 78.728877 -250.532121 
L 78.979385 -250.300464 
L 79.15654 -250.001788 
L 79.419505 -249.302448 
L 79.604964 -248.984831 
L 80.153038 -248.56814 
L 80.822906 -248.189331 
L 81.231193 -247.833833 
L 80.995909 -247.481249 
L 80.919788 -247.399659 
L 80.861659 -247.310785 
L 80.814602 -247.208798 
L 80.789689 -247.099526 
L 81.102479 -246.034489 
L 82.115585 -245.515812 
L 83.303078 -245.128261 
L 84.127956 -244.449318 
L 85.041412 -242.399377 
L 85.294689 -241.246922 
L 85.165975 -239.593274 
L 85.22272 -238.949298 
L 85.354202 -238.31115 
L 85.528589 -237.871149 
L 85.725121 -237.582671 
L 85.799858 -237.540419 
L 85.906428 -237.600154 
L 87.322285 -237.624923 
L 87.61293 -237.691943 
L 88.443345 -238.233931 
L 89.046779 -238.994464 
L 89.367873 -239.897778 
L 89.434306 -242.164806 
L 89.904875 -242.609179 
L 90.433572 -242.192489 
L 90.660552 -240.904537 
L 90.578894 -239.781222 
L 90.666088 -239.236319 
L 90.988566 -238.898305 
L 91.452214 -238.931815 
L 93.394 -239.760824 
L 93.544859 -239.871553 
L 93.683261 -239.819103 
L 93.903321 -239.447578 
L 94.007123 -239.14016 
L 94.056948 -238.815258 
L 94.032036 -236.87896 
L 94.120613 -236.195646 
L 94.38773 -235.577895 
L 94.409874 -235.49922 
L 94.419562 -235.41763 
L 94.409874 -235.337497 
L 94.38773 -235.257365 
L 93.852112 -234.748886 
L 92.847311 -233.516299 
L 92.268788 -233.000535 
L 91.054999 -231.030727 
L 91.459134 -231.221589 
L 91.994752 -231.556689 
L 92.515145 -231.800001 
L 92.886063 -231.727153 
L 92.852847 -231.403708 
L 91.969839 -229.986088 
L 91.857733 -229.409132 
L 91.835589 -228.119723 
L 91.738707 -227.644755 
L 91.412077 -227.319853 
L 90.505541 -227.096938 
L 90.066805 -226.758924 
L 89.759552 -226.221306 
L 89.969924 -226.101835 
L 90.479245 -226.154286 
L 91.068839 -226.132431 
L 91.468822 -225.977994 
L 91.817596 -225.736139 
L 92.077793 -225.434548 
L 92.214811 -225.100905 
L 92.182979 -224.84448 
L 91.947695 -224.283551 
L 91.947695 -224.011099 
L 92.11101 -223.728449 
L 92.293701 -223.675999 
L 92.515145 -223.6658 
L 92.789182 -223.502621 
L 93.089515 -223.030566 
L 93.096214 -223.001903 
L 93.348327 -221.923277 
L 93.532403 -221.429368 
L 93.656965 -221.175857 
L 93.784295 -220.982082 
L 93.996051 -220.891751 
L 94.38773 -220.944201 
L 95.058982 -220.654266 
L 95.470037 -220.179298 
L 96.074856 -218.90883 
L 96.908038 -217.099287 
L 97.403519 -216.273191 
L 98.168885 -215.326168 
L 98.563332 -214.945902 
L 98.733567 -214.820603 
L 99.017292 -214.695305 
L 99.5017 -214.629741 
L 99.774353 -214.559807 
L 99.999949 -214.443251 
L 100.359796 -214.182455 
L 100.62276 -214.090667 
L 100.93555 -214.084839 
L 101.129483 -214.142628 
L 101.458711 -214.240733 
L 101.699531 -214.264045 
L 102.135499 -214.14166 
L 103.646854 -213.337419 
L 104.392843 -213.089736 
L 104.677952 -213.051855 
L 104.824659 -213.048941 
L 105.502677 -213.236913 
L 105.549887 -213.250001 
L 106.095193 -213.555963 
L 106.28342 -213.730798 
L 106.365078 -213.908547 
L 106.506248 -213.981395 
L 106.877167 -213.841527 
L 107.202413 -213.519539 
L 107.692357 -212.576887 
L 107.980234 -212.21119 
L 108.187838 -212.058209 
L 108.400978 -211.941652 
L 108.63211 -211.874632 
L 108.903379 -211.862977 
L 108.904763 -211.857149 
L 110.560056 -211.506022 
L 111.080449 -211.208802 
L 112.1157 -210.094229 
L 112.702526 -209.584293 
L 112.788335 -209.472107 
L 112.901825 -209.402173 
L 113.195239 -209.352637 
L 113.438827 -209.38469 
L 113.765457 -209.493962 
L 114.056102 -209.641114 
L 114.211113 -209.780983 
L 114.197272 -210.009725 
L 113.926004 -210.557542 
L 113.892787 -210.824165 
L 114.022885 -211.194233 
L 114.188968 -211.304961 
L 114.418716 -211.335558 
L 114.749498 -211.450657 
L 115.290652 -211.788672 
L 115.398606 -211.98099 
L 115.30726 -212.253442 
L 115.249131 -212.830397 
L 115.348781 -213.284968 
L 115.574377 -213.856096 
L 115.852566 -214.382058 
L 116.114146 -214.693848 
L 116.411712 -214.794378 
L 116.954249 -214.720073 
L 117.225518 -214.741927 
L 117.464954 -214.871597 
L 117.859401 -215.224181 
L 118.076693 -215.359678 
L 120.04616 -215.98617 
L 120.583161 -216.225111 
L 120.85443 -216.293588 
L 121.16722 -216.28339 
L 122.147109 -216.445112 
L 123.381659 -217.875846 
L 124.335252 -217.942866 
L 124.519327 -217.843793 
L 124.923462 -217.543659 
L 125.147674 -217.434387 
L 125.400951 -217.392135 
L 126.008537 -217.38048 
L 126.293646 -217.338228 
L 127.056244 -217.059949 
L 127.254159 -216.93465 
L 127.410554 -216.71465 
L 127.690127 -216.133323 
L 127.784241 -215.991998 
L 127.971084 -216.00074 
L 128.574519 -216.16829 
L 128.827795 -216.18723 
L 129.07 -216.110012 
L 129.334348 -215.978885 
L 129.573784 -215.815706 
L 129.7717 -215.648156 
L 130.09141 -215.21981 
L 130.520457 -214.352919 
L 130.871999 -213.934772 
L 131.094827 -213.783248 
L 131.514187 -213.625897 
L 131.719022 -213.486029 
L 131.862961 -213.277684 
L 132.085789 -212.788146 
L 132.283704 -212.5798 
L 132.826242 -212.416621 
L 133.437981 -212.432648 
L 133.986054 -212.371455 
L 134.348669 -211.978076 
L 134.603329 -211.092245 
L 135.048985 -210.637674 
L 136.430242 -209.979129 
L 137.952669 -209.466279 
L 138.340196 -209.069987 
L 138.31008 -208.960673 
L 138.127056 -208.296341 
L 136.397025 -205.946267 
L 135.810199 -205.482954 
L 135.143099 -205.276066 
L 134.442783 -205.395536 
L 133.781219 -205.915671 
L 133.213769 -204.811296 
L 133.211001 -204.811296 
L 131.677502 -203.76957 
L 131.500347 -203.240694 
L 132.350138 -202.703077 
L 133.443517 -202.432082 
L 137.277265 -202.516586 
L 137.648183 -202.312612 
L 138.26269 -201.464662 
L 138.694506 -201.156515 
L 139.711764 -200.76095 
L 140.100675 -200.456446 
L 140.200324 -200.232803 
L 140.281982 -199.913 
L 140.324887 -199.582999 
L 140.306894 -199.330217 
L 140.125587 -198.947765 
L 139.917983 -198.886573 
L 139.69654 -198.898229 
L 139.46956 -198.726307 
L 139.367142 -198.355511 
L 139.325621 -197.78147 
L 139.353301 -197.208885 
L 139.461255 -196.839546 
L 140.366407 -196.384246 
L 141.510996 -196.615903 
L 142.722017 -197.018023 
L 143.80294 -197.073388 
L 146.182078 -195.786164 
L 146.208375 -195.574177 
L 146.060284 -195.271858 
L 146.099037 -194.638809 
L 146.460267 -194.105562 
L 147.491365 -193.430991 
L 147.693433 -192.988075 
L 147.606239 -192.875889 
L 147.239473 -192.803041 
L 147.145359 -192.734564 
L 147.137055 -192.561186 
L 147.211793 -192.314232 
L 147.261617 -191.791912 
L 147.346043 -191.449527 
L 147.3931 -191.104227 
L 147.29345 -190.715948 
L 147.19162 -190.627822 
L 146.923915 -190.396145 
L 146.569605 -190.342238 
L 145.777943 -190.434026 
L 145.267238 -190.353894 
L 145.138524 -190.215482 
L 145.088699 -189.972899 
L 144.840959 -189.580248 
L 144.23614 -189.119849 
L 142.771842 -188.251502 
L 142.266673 -187.614811 
L 142.099206 -187.09322 
L 142.237609 -186.936597 
L 143.029271 -186.886331 
L 143.537208 -186.717324 
L 143.735123 -186.559973 
L 143.742043 -186.303548 
L 143.693602 -185.835864 
L 143.423717 -184.947119 
L 142.893636 -184.55374 
L 142.237609 -184.260163 
L 141.595421 -183.67228 
L 141.087484 -183.517843 
L 140.723486 -183.475591 
L 140.388552 -183.384531 
L 139.967808 -183.080755 
L 139.621802 -182.701217 
L 139.400358 -182.327507 
L 138.550567 -180.075049 
L 138.315283 -179.774915 
L 138.066159 -179.747962 
L 137.606663 -180.015314 
L 137.376914 -180.073592 
L 137.136094 -179.996373 
L 136.723655 -179.718823 
L 136.491139 -179.619749 
L 135.86556 -179.54763 
L 135.4116 -179.644518 
L 133.891941 -180.556574 
L 133.213769 -180.855979 
L 132.989557 -180.998032 
L 132.610334 -181.381941 
L 132.355674 -181.731611 
L 132.042884 -181.969824 
L 131.505883 -182.031016 
L 131.02009 -181.905718 
L 129.7717 -181.112404 
L 129.283139 -181.930486 
L 128.348923 -182.248832 
L 127.995997 -182.554064 
L 127.22567 -182.344823 
L 126.099883 -182.039029 
L 125.514441 -182.031016 
L 125.378806 -181.889691 
L 125.197499 -181.705386 
L 125.002352 -181.285053 
L 124.789212 -181.112404 
L 124.239754 -181.028629 
L 123.730433 -181.201278 
L 122.446058 -181.86128 
L 122.138805 -181.949426 
L 121.88968 -181.841612 
L 121.73467 -181.395054 
L 121.801103 -181.046112 
L 122.328416 -179.576769 
L 122.638438 -179.171735 
L 123.475773 -178.667627 
L 123.780258 -178.413387 
L 123.951877 -177.955174 
L 123.986478 -177.470735 
L 124.073671 -177.008151 
L 124.380925 -176.621328 
L 124.385077 -176.619871 
L 124.272971 -176.285499 
L 124.040455 -176.162386 
L 123.752577 -176.09828 
L 123.484077 -175.936557 
L 123.311074 -175.634238 
L 123.200352 -174.982978 
L 123.11039 -174.701785 
L 122.902786 -174.304035 
L 122.888946 -174.290922 
L 122.804521 -174.396552 
L 122.410074 -174.349201 
L 121.774806 -174.121915 
L 121.16722 -173.804298 
L 120.59977 -173.671715 
L 120.284212 -173.400721 
L 119.755515 -172.595022 
L 119.343075 -172.285419 
L 118.382562 -171.865086 
L 118.026868 -171.591906 
L 117.80404 -171.104553 
L 118.075309 -170.975613 
L 118.562486 -170.988725 
L 118.988765 -170.934818 
L 119.343075 -170.262431 
L 119.47871 -170.064285 
L 119.666937 -169.927331 
L 120.340957 -169.57329 
L 121.134003 -169.000705 
L 121.16722 -169.000705 
L 121.73467 -169.241832 
L 122.296584 -169.270971 
L 122.847425 -169.140573 
L 125.82031 -167.80527 
L 126.894313 -167.063678 
L 127.169734 -166.791955 
L 127.266616 -166.231026 
L 127.269384 -165.726918 
L 127.504668 -165.489434 
L 128.279722 -165.718905 
L 128.816547 -165.584798 
L 128.825027 -165.58268 
L 129.21117 -165.284003 
L 129.557176 -164.918306 
L 129.975152 -164.584663 
L 130.487241 -164.353735 
L 130.946737 -164.205125 
L 131.375784 -163.998965 
L 131.826976 -163.595388 
L 132.596494 -162.431278 
L 132.931428 -162.172667 
L 133.408916 -162.066309 
L 134.240715 -162.152998 
L 134.7445 -162.020415 
L 135.192924 -161.746507 
L 135.519554 -161.418691 
L 136.441314 -160.021468 
L 136.756872 -159.730076 
L 137.656487 -159.240538 
L 138.039862 -158.946961 
L 138.769243 -158.20464 
L 139.17061 -157.927818 
L 139.441879 -157.847685 
L 139.959504 -157.805433 
L 140.225237 -157.708546 
L 140.366407 -157.554836 
L 140.679197 -157.079868 
L 140.886801 -156.899933 
L 141.19959 -156.784834 
L 142.295738 -156.628211 
L 143.333756 -156.309137 
L 143.701906 -156.267613 
L 145.242326 -156.389269 
L 145.950946 -156.181653 
L 146.215295 -155.47867 
L 146.496252 -155.193835 
L 146.965436 -155.069265 
L 147.491365 -155.083834 
L 147.945326 -155.207676 
L 148.382677 -155.121715 
L 149.726565 -154.332043 
L 150.375673 -154.096016 
L 150.707838 -154.120784 
L 151.020628 -154.206745 
L 151.332033 -154.248997 
L 151.664199 -154.144096 
L 152.425413 -152.8678 
L 153.008087 -152.470779 
L 153.185242 -152.233294 
L 153.185242 -151.88814 
L 153.185242 -151.790379 
L 152.987327 -151.32051 
L 152.718826 -151.281172 
L 152.404652 -151.384616 
L 152.078023 -151.340907 
L 151.689112 -150.830971 
L 151.33757 -149.994677 
L 150.929282 -148.432817 
L 150.788112 -147.265065 
L 151.077373 -146.480492 
L 151.6988 -145.877311 
L 152.541671 -145.258104 
L 153.008087 -144.774394 
L 152.991479 -144.432737 
L 152.824012 -144.059027 
L 152.842004 -143.472601 
L 153.096665 -143.104719 
L 154.397648 -142.288822 
L 154.551274 -142.089947 
L 154.786559 -141.653588 
L 154.965098 -141.488223 
L 155.247439 -141.401534 
L 155.527185 -141.432063 
L 156.228712 -141.50862 
L 156.360194 -141.59968 
L 156.480604 -141.58074 
L 156.661912 -141.279149 
L 156.703432 -140.965903 
L 156.530429 -140.289874 
L 156.548422 -139.970072 
L 156.830763 -139.559938 
L 157.26673 -139.250334 
L 157.755291 -139.040532 
L 158.178803 -138.930532 
L 158.376718 -138.831458 
L 158.436231 -138.713445 
L 158.510968 -138.682849 
L 158.755941 -138.844571 
L 158.865279 -139.044174 
L 158.987073 -139.66921 
L 159.144852 -139.930734 
L 159.627876 -140.147092 
L 160.199478 -140.109211 
L 160.73648 -139.888482 
L 161.146151 -139.557024 
L 161.309466 -139.304242 
L 161.525374 -138.537881 
L 161.533678 -138.36596 
L 161.478317 -138.218807 
L 161.41742 -138.110264 
L 161.395275 -138.044701 
L 161.518454 -137.941257 
L 161.822939 -137.868409 
L 161.932277 -137.786091 
L 162.372397 -136.790259 
L 162.591073 -136.595027 
L 163.058873 -136.336417 
L 163.283085 -136.117144 
L 163.427023 -135.806812 
L 163.525289 -135.164293 
L 163.626323 -134.887471 
L 163.809014 -134.687868 
L 164.442897 -134.335284 
L 164.442897 -134.330913 
L 164.807612 -133.586276 
L 164.877481 -133.443625 
L 164.559155 -131.300438 
L 164.855337 -130.34613 
L 165.893355 -129.383081 
L 166.585367 -128.057248 
L 167.180498 -127.239894 
L 167.426854 -126.775124 
L 167.764556 -125.699889 
L 168.012297 -125.249688 
L 168.338926 -124.983065 
L 169.735407 -124.363857 
L 170.604574 -123.785445 
L 171.304891 -123.121071 
L 173.048762 -120.832189 
L 173.61206 -120.23775 
L 173.616212 -120.23775 
L 175.945525 -117.383568 
L 180.395164 -113.518256 
L 180.980606 -113.20501 
L 181.369517 -113.165672 
L 181.679538 -113.365275 
L 182.068449 -113.767396 
L 182.187475 -114.001966 
L 182.252525 -114.245278 
L 182.390927 -114.415742 
L 182.730013 -114.433226 
L 183.049723 -114.290444 
L 183.106468 -114.058788 
L 183.080171 -113.760111 
L 183.141068 -113.416269 
L 183.279471 -113.222493 
L 183.650389 -112.829114 
L 183.745887 -112.664478 
L 183.725127 -112.405139 
L 183.507835 -111.956396 
L 183.48569 -111.66209 
L 183.633781 -111.238115 
L 184.442051 -109.886057 
L 185.730578 -108.66804 
L 186.005999 -108.178502 
L 185.990775 -108.015322 
L 185.817772 -107.718103 
L 185.797011 -107.591347 
L 186.249403 -106.674035 
L 186.378302 -106.412668 
L 186.446119 -106.14313 
L 186.446119 -106.140216 
L 186.684171 -105.94207 
L 187.138131 -105.710413 
L 187.655756 -105.516638 
L 188.116636 -105.435048 
L 188.735295 -105.244187 
L 189.477132 -105.958097 
L 189.715185 -105.490413 
L 189.718558 -104.869523 
L 189.759473 -97.338728 
L 189.908948 -96.651043 
L 190.152536 -96.049319 
L 190.760123 -95.366006 
L 191.26806 -95.05276 
L 191.80783 -94.831302 
L 192.166292 -94.800706 
L 192.574579 -94.60693 
L 192.685301 -94.287856 
L 192.560739 -92.778447 
L 192.600876 -92.456459 
L 192.975946 -91.341886 
L 193.391154 -90.59738 
L 193.986284 -90.131153 
L 194.783482 -90.260822 
L 194.780714 -89.954861 
L 194.86514 -89.828105 
L 195.046447 -89.839761 
L 195.31218 -89.951947 
L 195.556084 -90.141895 
L 195.583448 -90.163206 
L 195.633273 -90.375922 
L 195.638809 -90.593009 
L 195.760604 -90.824665 
L 196.483064 -91.293806 
L 196.783398 -91.585198 
L 196.892736 -92.054338 
L 197.467106 -93.037786 
L 198.105141 -93.01156 
L 198.570173 -92.27871 
L 198.644911 -91.145196 
L 198.531421 -90.206915 
L 198.498204 -90.131153 
L 198.413778 -90.039364 
L 198.351497 -89.918437 
L 198.351497 -89.758171 
L 198.458067 -89.678039 
L 198.636606 -89.740688 
L 198.805457 -89.833933 
L 198.898187 -89.852874 
L 199.223433 -89.08797 
L 199.472557 -88.739757 
L 199.934821 -88.350749 
L 200.590849 -87.983595 
L 200.765236 -87.826244 
L 200.889798 -87.549422 
L 200.981144 -86.915645 
L 201.047577 -86.724783 
L 201.335454 -86.522266 
L 201.68146 -86.478557 
L 202.594916 -86.509153 
L 203.641239 -86.391139 
L 204.031928 -86.266398 
L 204.102119 -86.243987 
L 204.5976 -85.991933 
L 205.111073 -85.608753 
L 205.340821 -85.24597 
L 205.62593 -83.733647 
L 205.782325 -83.373778 
L 205.853408 -83.277124 
L 206.014841 -83.057618 
L 206.345623 -82.748742 
L 206.755294 -82.490861 
L 207.117908 -82.387417 
L 207.491595 -82.324767 
L 207.910955 -82.202383 
L 208.607119 -81.727414 
L 209.600848 -80.436549 
L 210.218123 -79.877077 
L 210.965497 -79.648334 
L 211.743318 -79.738665 
L 213.232529 -80.127673 
L 213.75569 -80.145157 
L 213.878868 -80.008203 
L 213.819355 -79.684758 
L 213.815896 -79.631013 
L 213.784754 -79.14714 
L 213.907933 -78.825152 
L 214.090624 -78.600781 
L 214.122456 -78.348727 
L 213.799979 -77.952434 
L 213.406916 -77.604221 
L 212.673383 -76.257991 
L 212.269248 -75.785936 
L 211.881721 -75.595075 
L 210.860311 -75.412955 
L 210.381438 -75.22355 
L 208.522693 -73.993877 
L 208.297097 -73.931228 
L 208.052125 -73.973479 
L 207.804385 -74.095864 
L 207.530348 -74.178911 
L 207.199566 -74.103149 
L 206.904769 -73.797187 
L 206.233517 -72.267381 
L 206.196148 -71.680226 
L 206.503402 -71.264993 
L 207.977388 -70.38499 
L 208.255577 -70.083399 
L 208.371835 -69.676908 
L 208.493629 -68.507698 
L 208.615423 -68.061869 
L 208.872852 -67.666305 
L 209.319891 -67.315906 
L 210.341301 -66.782659 
L 210.685924 -66.472327 
L 212.103165 -63.859271 
L 212.432562 -63.647284 
L 212.62079 -63.759469 
L 212.789641 -64.012252 
L 213.059526 -64.212584 
L 213.251905 -64.218412 
L 213.784754 -64.08 
L 213.941149 -64.12808 
L 214.0754 -64.230067 
L 214.206882 -64.199471 
L 214.353588 -63.8549 
L 214.43663 -63.641456 
L 214.552888 -63.529998 
L 214.706515 -63.52927 
L 214.900278 -63.63927 
L 215.267045 -63.446223 
L 215.339014 -62.885294 
L 215.325174 -62.220192 
L 215.440048 -61.716085 
L 215.941065 -61.41668 
L 217.091189 -61.595157 
L 217.561757 -61.467673 
L 217.647606 -61.23712 
L 217.683551 -61.140586 
L 217.74168 -60.058066 
L 217.921604 -59.553958 
L 218.239929 -59.194817 
L 219.434342 -58.271106 
L 219.823253 -57.836203 
L 219.99764 -57.44501 
L 220.00456 -57.010836 
L 219.802493 -55.67262 
L 219.726372 -55.49997 
L 219.551984 -55.446062 
L 219.421886 -55.58156 
L 219.264107 -55.655136 
L 219.010831 -55.414009 
L 218.912565 -55.152485 
L 218.851668 -54.23023 
L 218.703577 -53.694069 
L 218.425389 -53.273737 
L 218.259306 -53.109829 
L 217.878699 -52.814066 
L 217.758289 -52.60135 
L 217.766593 -52.324528 
L 218.012949 -51.81605 
L 217.988037 -51.513731 
L 217.691856 -51.205584 
L 217.279416 -51.164789 
L 216.545883 -51.294458 
L 216.1113 -51.250749 
L 215.666405 -51.115065 
L 214.900278 -50.88141 
L 214.399261 -50.835516 
L 214.144601 -50.58929 
L 214.121072 -50.206838 
L 214.300996 -49.758824 
L 214.260859 -49.340676 
L 214.368813 -48.967695 
L 214.583337 -48.655906 
L 214.900278 -48.414051 
L 215.321022 -48.190407 
L 216.932026 -46.920668 
L 217.16039 -46.679541 
L 217.084269 -46.38305 
L 216.689822 -45.837419 
L 215.57153 -44.732316 
L 215.35839 -44.354235 
L 215.449736 -43.917876 
L 215.718237 -43.478603 
L 215.851103 -43.068469 
L 215.55077 -42.710785 
L 215.721005 -42.438334 
L 215.995042 -42.211048 
L 216.198493 -41.94224 
L 216.148668 -41.54449 
L 215.787438 -41.230515 
L 214.900278 -39.900312 
L 214.483687 -39.689781 
L 214.310684 -39.50329 
L 214.097544 -38.865142 
L 214.007582 -38.706334 
L 213.815203 -38.436068 
L 213.736314 -38.208054 
L 213.721089 -37.985139 
L 213.752922 -37.746927 
L 213.752922 -37.507257 
L 213.66988 -37.290898 
L 213.323874 -37.000964 
L 213.016621 -37.014076 
L 212.392426 -37.300369 
L 211.890025 -37.409641 
L 211.62706 -37.513813 
L 211.121891 -37.982225 
L 210.398046 -38.517658 
L 209.905334 -38.554082 
L 209.501199 -38.183286 
L 209.027862 -37.495601 
L 208.892228 -37.373217 
L 208.582206 -37.180898 
L 208.475636 -37.043215 
L 208.4355 -36.856725 
L 208.378755 -36.291425 
L 208.096414 -35.719568 
L 207.86805 -35.592084 
L 207.459763 -35.662747 
L 207.45561 -35.662747 
L 207.450074 -35.665661 
L 207.447306 -35.667118 
L 207.047323 -35.668575 
L 206.830031 -35.332746 
L 206.679173 -34.850492 
L 206.461881 -34.409762 
L 205.731116 -33.733733 
L 204.910389 -33.172076 
L 204.315259 -32.979029 
L 204.028766 -33.129824 
L 203.800402 -33.465653 
L 203.361666 -33.823336 
L 203.023964 -33.97486 
L 202.940923 -33.951549 
L 202.92293 -33.809495 
L 202.140956 -32.82022 
L 201.620563 -31.982469 
L 201.505689 -31.91472 
L 201.169371 -31.840416 
L 200.875958 -31.120678 
L 200.864886 -30.945843 
L 200.768004 -30.800875 
L 200.43307 -30.706173 
L 200.161801 -30.75571 
L 199.660785 -31.076969 
L 199.417196 -31.161473 
L 199.133471 -31.139618 
L 198.97846 -31.059486 
L 198.852514 -30.937101 
L 197.814496 -30.336834 
L 197.413129 -30.351404 
L 197.039442 -30.502199 
L 196.66714 -30.77465 
L 195.962671 -31.500216 
L 195.024302 -32.864658 
L 194.816699 -33.284262 
L 194.692137 -33.461282 
L 194.484533 -33.685654 
L 194.368275 -33.78327 
L 192.419568 -34.392279 
L 192.088778 -34.580951 
L 191.641747 -34.835923 
L 191.114433 -35.662747 
L 190.839012 -35.833211 
L 190.224506 -35.972351 
L 189.991989 -36.118047 
L 189.897876 -36.387584 
L 189.756705 -37.277786 
L 189.650135 -37.636198 
L 189.313817 -38.173087 
L 189.154655 -38.323882 
L 188.580284 -37.778251 
L 188.385137 -37.679178 
L 188.207982 -37.662423 
L 188.0765 -37.583019 
L 188.032211 -37.306197 
L 188.041899 -37.035202 
L 188.101412 -36.833413 
L 188.21767 -36.695731 
L 188.414202 -36.622883 
L 188.414202 -36.448048 
L 188.001762 -36.472816 
L 187.659908 -36.563148 
L 187.367879 -36.596658 
L 187.118755 -36.448048 
L 187.060626 -36.329306 
L 187.016337 -36.126788 
L 187.041249 -35.937384 
L 187.351271 -35.76182 
L 187.235013 -35.568773 
L 187.038481 -35.399766 
L 186.931911 -35.380825 
L 186.65649 -34.830823 
L 185.97555 -34.540889 
L 184.534766 -34.338314 
L 184.35901 -34.313603 
L 184.003315 -34.211616 
L 183.636549 -34.239298 
L 183.376352 -34.307047 
L 181.74874 -35.33566 
L 181.590961 -35.507581 
L 181.341836 -35.02897 
L 181.070568 -33.560355 
L 180.890644 -32.954261 
L 180.494813 -32.362007 
L 180.068534 -32.10194 
L 179.556445 -32.042204 
L 178.616692 -32.097569 
L 177.973121 -32.214125 
L 177.556529 -32.1879 
L 177.267268 -32.208298 
L 177.13025 -32.193728 
L 177.05136 -32.078628 
L 176.984927 -31.634984 
L 176.912958 -31.50313 
L 176.450694 -31.481275 
L 175.271505 -31.897237 
L 174.731735 -31.994125 
L 174.609941 -31.684521 
L 174.567037 -31.360348 
L 174.603021 -31.040545 
L 174.731735 -30.738226 
L 175.252129 -30.305509 
L 175.549694 -29.855309 
L 175.642424 -29.31332 
L 175.537238 -28.613252 
L 175.762834 -28.045038 
L 176.132368 -27.685897 
L 177.05136 -27.088544 
L 177.469336 -26.599735 
L 178.153044 -24.926417 
L 178.515658 -24.507542 
L 178.944706 -24.132375 
L 179.3004 -23.720784 
L 179.431883 -23.189722 
L 179.233967 -22.666674 
L 178.814608 -22.300249 
L 178.334351 -21.971705 
L 177.948208 -21.57177 
L 177.624347 -21.142695 
L 177.674171 -19.819048 
L 177.281109 -19.326596 
L 176.746875 -19.296 
L 175.360083 -19.658054 
L 174.731735 -19.685736 
L 174.067404 -19.412557 
L 173.408608 -19.342623 
L 172.741508 -19.497789 
L 172.632124 -19.559387 
L 172.028736 -19.899181 
L 169.727103 -21.965877 
L 169.273143 -22.657932 
L 168.971426 -23.441048 
L 168.572826 -24.130918 
L 167.822685 -24.542509 
L 167.53204 -24.555621 
L 166.956286 -24.466747 
L 166.572911 -24.510456 
L 166.142479 -24.697675 
L 165.871211 -24.878338 
L 165.597174 -24.894364 
L 165.177814 -24.583304 
L 164.979899 -25.083769 
L 164.570228 -25.52377 
L 164.087203 -25.740129 
L 163.681684 -25.574764 
L 163.525289 -25.798407 
L 163.348134 -25.996554 
L 163.141914 -26.167746 
L 162.926007 -26.312714 
L 162.178633 -25.769268 
L 161.782802 -25.539797 
L 161.337146 -25.415956 
L 160.700495 -24.98251 
L 159.953122 -24.720986 
L 159.157308 -24.604429 
L 158.397478 -24.613171 
L 157.962895 -24.669993 
L 157.69301 -24.780721 
L 157.470182 -24.994166 
L 156.786474 -25.976156 
L 156.589942 -26.101455 
L 156.2038 -26.226025 
L 156.019724 -26.326555 
L 155.527012 -26.823378 
L 153.933999 -29.300208 
L 153.680723 -29.884448 
L 153.581073 -30.537166 
L 153.582457 -31.427368 
L 153.95476 -31.412798 
L 155.354009 -31.750084 
L 155.839801 -31.952601 
L 156.030797 -32.170417 
L 156.35189 -32.76777 
L 156.540118 -32.930949 
L 156.80585 -32.906181 
L 157.276419 -32.573266 
L 157.621041 -32.554325 
L 157.774667 -32.678167 
L 158.278452 -33.190288 
L 158.492976 -33.367308 
L 158.802998 -33.471481 
L 159.511618 -33.606978 
L 159.787039 -33.751217 
L 159.903297 -33.950092 
L 160.133045 -34.596982 
L 160.265911 -34.872347 
L 160.440299 -35.08142 
L 161.064494 -35.662747 
L 161.915669 -36.823215 
L 162.23953 -37.58229 
L 162.308732 -38.414942 
L 161.923973 -40.28422 
L 161.966878 -41.145283 
L 162.174481 -42.440519 
L 162.078984 -42.710785 
L 161.788338 -43.214165 
L 161.746818 -43.849399 
L 161.872764 -44.488275 
L 162.078984 -45.005495 
L 162.203546 -45.092185 
L 162.574464 -45.178145 
L 162.690722 -45.284503 
L 162.682418 -45.433841 
L 162.491423 -45.828677 
L 162.462358 -46.255566 
L 162.513567 -46.424573 
L 162.624289 -46.453713 
L 163.045033 -46.434772 
L 163.190355 -46.49305 
L 163.393807 -47.118814 
L 162.952303 -48.013387 
L 163.213884 -48.551005 
L 164.27543 -49.241603 
L 164.530091 -49.613856 
L 163.817318 -49.758824 
L 163.81455 -49.758824 
L 163.809014 -49.758824 
L 163.471312 -50.02399 
L 162.687954 -51.16916 
L 162.649202 -51.28426 
L 162.657506 -51.598234 
L 162.596609 -51.738102 
L 162.480351 -51.766513 
L 162.132961 -51.703135 
L 161.99179 -51.738102 
L 161.337146 -52.428701 
L 160.75032 -52.545257 
L 160.527492 -53.012941 
L 160.531644 -53.64599 
L 160.63683 -54.252085 
L 160.816753 -54.822484 
L 161.049269 -55.214406 
L 162.142649 -56.387986 
L 162.883102 -57.003551 
L 163.651235 -57.51203 
L 163.750885 -57.557196 
L 163.77303 -58.316271 
L 163.684452 -58.920909 
L 163.591722 -59.04038 
L 163.069945 -58.938393 
L 162.556472 -58.92528 
L 162.011166 -59.027267 
L 161.590423 -59.304818 
L 161.434028 -59.820581 
L 161.669312 -60.443431 
L 162.203546 -60.801115 
L 163.451936 -61.208335 
L 164.404145 -61.821714 
L 164.507995 -61.927665 
L 164.830424 -62.256616 
L 164.993739 -62.76291 
L 165.038028 -63.95543 
L 165.151518 -64.570267 
L 165.810314 -66.319346 
L 166.081582 -67.765378 
L 165.811698 -69.101409 
L 165.061556 -70.214526 
L 163.872679 -71.001283 
L 162.718403 -71.399033 
L 162.128808 -71.474795 
L 161.029893 -71.380093 
L 160.64375 -71.438371 
L 160.314352 -71.629233 
L 159.975266 -71.974532 
L 159.681853 -72.421818 
L 158.624458 -74.744211 
L 158.304749 -75.794678 
L 158.354574 -76.792695 
L 158.998145 -77.525545 
L 159.557291 -77.754288 
L 159.845168 -77.918924 
L 160.000179 -78.127269 
L 159.98144 -78.209463 
L 159.950354 -78.345813 
L 159.746902 -78.49588 
L 159.490858 -78.597867 
L 156.374035 -79.403565 
L 155.272351 -79.453101 
L 154.999698 -79.499724 
L 151.511395 -80.769828 
L 150.770119 -81.03973 
L 150.202669 -81.484102 
L 149.78331 -82.05523 
L 149.518961 -82.726888 
L 149.419312 -83.465566 
L 149.44284 -84.721465 
L 149.352878 -85.33193 
L 149.060849 -85.869548 
L 148.844941 -86.061867 
L 148.325597 -86.355323 
L 148.092032 -86.487299 
L 147.883044 -86.647564 
L 147.362651 -87.214321 
L 147.148127 -87.394984 
L 146.431203 -87.810217 
L 146.183462 -88.030218 
L 146.010459 -88.286643 
L 145.888665 -88.576578 
L 145.639541 -89.455124 
L 145.418097 -89.960689 
L 145.135756 -90.428372 
L 144.775909 -90.869831 
L 144.330254 -91.254468 
L 142.827203 -92.082021 
L 142.356635 -92.484141 
L 142.071526 -92.979507 
L 141.937275 -93.555006 
L 141.908211 -94.191697 
L 142.031389 -95.400973 
L 142.317882 -96.584023 
L 142.6888 -97.634491 
L 142.727553 -97.940452 
L 142.709561 -98.249327 
L 142.132423 -100.579004 
L 142.119966 -100.900992 
L 142.162453 -101.155165 
L 142.176711 -101.240464 
L 142.358019 -101.881526 
L 142.407844 -102.204971 
L 142.389851 -102.544442 
L 142.295738 -102.85186 
L 142.031389 -103.437558 
L 141.941427 -103.746433 
L 141.852589 -104.669164 
L 141.692303 -106.333992 
L 141.825169 -106.960484 
L 143.5552 -111.101161 
L 143.676994 -111.732024 
L 143.780796 -113.034546 
L 143.729587 -114.721704 
L 143.825085 -116.09853 
L 143.807092 -116.440915 
L 143.729587 -116.771645 
L 143.09432 -118.200922 
L 142.993286 -118.355359 
L 142.798138 -118.533108 
L 142.342794 -118.79099 
L 142.132423 -118.946884 
L 141.941427 -119.178541 
L 141.528988 -119.98861 
L 141.000291 -120.78848 
L 140.681965 -121.127952 
L 139.408662 -121.939478 
L 138.907646 -122.118684 
L 134.75142 -124.317235 
L 133.969446 -125.036972 
L 133.173632 -125.99128 
L 133.054606 -126.211281 
L 132.888523 -126.769296 
L 132.81517 -126.947045 
L 132.707216 -127.123337 
L 132.316921 -127.608505 
L 131.713486 -128.83235 
L 131.307967 -129.361226 
L 129.56548 -130.416064 
L 129.415896 -130.549912 
L 129.316356 -130.638979 
L 129.103216 -130.902689 
L 128.942669 -131.202822 
L 128.696313 -132.058057 
L 127.511588 -134.698066 
L 127.309378 -134.980738 
L 127.169734 -135.175949 
L 125.497832 -136.701385 
L 125.140754 -137.141386 
L 124.834885 -137.684832 
L 123.695832 -140.528087 
L 122.363017 -142.88836 
L 121.864768 -143.433263 
L 121.205972 -143.777834 
L 120.558249 -143.843397 
L 119.970039 -143.691145 
L 119.453797 -143.345117 
L 119.016446 -142.83591 
L 118.90434 -142.663989 
L 118.808842 -142.546703 
L 118.68428 -142.473856 
L 118.487748 -142.440346 
L 118.054549 -142.532134 
L 117.819264 -142.810413 
L 117.637957 -143.170282 
L 117.366688 -143.495912 
L 116.969473 -143.769092 
L 116.544578 -143.992007 
L 116.09477 -144.150815 
L 115.628354 -144.229491 
L 114.07271 -144.314723 
L 113.710096 -144.413796 
L 112.184901 -145.110951 
L 111.952385 -145.259561 
L 111.722637 -145.472277 
L 111.34203 -145.744 
L 109.779466 -146.167246 
L 109.09299 -146.231352 
L 108.41205 -146.401817 
L 108.180918 -146.421486 
L 107.797543 -146.357379 
L 107.667445 -146.35228 
L 107.174732 -146.446254 
L 105.707666 -146.900097 
L 105.436397 -146.901553 
L 103.299464 -146.456453 
L 102.648972 -146.171617 
L 102.064914 -145.738172 
L 101.617874 -145.170686 
L 101.347989 -144.485916 
L 101.339685 -144.302339 
L 101.383974 -144.189425 
L 101.455943 -144.085252 
L 101.514072 -143.9279 
L 101.741052 -143.833198 
L 102.859344 -143.058096 
L 103.022659 -142.825711 
L 102.99221 -142.568558 
L 102.750006 -142.358756 
L 102.406768 -142.238557 
L 101.421342 -142.067364 
L 100.837284 -141.850277 
L 100.04147 -141.722065 
L 99.81449 -141.640475 
L 99.586126 -141.496965 
L 99.294097 -141.137824 
L 99.122478 -140.700008 
L 98.967467 -139.755899 
L 98.79308 -139.155632 
L 98.47337 -138.736756 
L 98.029098 -138.453378 
L 97.467184 -138.255231 
L 97.47567 -138.267552 
L 97.493963 -138.294114 
L 97.507321 -138.31351 
L 97.56545 -138.435894 
L 97.548755 -138.427107 
L 97.430109 -138.364657 
L 97.222212 -138.255231 
L 96.99108 -137.995164 
L 96.858214 -137.619997 
L 96.816693 -137.106419 
L 97.038137 -135.456413 
L 96.908038 -135.181777 
L 96.642306 -134.9982 
L 96.404254 -134.596079 
L 96.097 -134.192502 
L 95.6292 -134.010382 
L 95.183544 -134.132766 
L 94.355897 -134.673298 
L 93.874257 -134.79714 
L 93.436905 -134.706808 
L 91.136656 -133.666539 
L 90.743593 -133.433426 
L 90.578894 -133.133293 
L 89.030171 -132.276601 
L 88.047514 -131.366001 
L 87.64061 -131.122689 
L 86.69117 -130.889576 
L 86.323019 -130.659376 
L 86.179081 -130.228117 
L 86.332707 -129.712353 
L 86.588752 -129.305862 
L 86.588752 -129.10043 
L 85.996389 -129.179106 
L 84.620669 -129.859506 
L 84.241446 -129.967321 
L 84.24975 -130.228117 
L 84.698174 -132.066799 
L 84.357704 -133.191571 
L 83.498225 -133.633029 
L 81.209049 -133.641771 
L 80.230543 -133.828262 
L 79.339232 -134.291575 
L 78.614003 -134.907868 
L 78.111602 -135.54893 
L 77.311636 -135.499394 
L 76.513054 -135.905885 
L 75.17055 -137.106419 
L 74.542203 -137.955826 
L 74.340135 -138.069469 
L 74.239101 -138.165628 
L 73.429447 -138.742584 
L 73.176171 -139.226294 
L 73.076521 -139.698349 
L 72.903518 -140.101927 
L 72.410805 -140.378749 
L 71.174748 -140.442823 
L 70.401201 -140.482921 
L 70.207438 -140.333583 
L 69.785855 -139.87804 
L 65.735655 -135.501579 
L 65.186197 -135.324559 
L 64.152331 -135.924826 
L 63.104624 -136.214032 
L 62.852732 -136.529464 
L 62.685265 -136.529464 
L 62.243761 -136.106217 
L 62.025085 -135.591911 
L 61.788417 -134.393562 
L 61.136542 -132.538853 
L 61.042428 -131.979381 
L 58.555336 -131.489843 
L 58.117984 -131.202822 
L 57.884084 -130.663747 
L 57.596207 -130.349044 
L 56.984468 -130.736595 
L 56.984468 -130.308249 
L 56.918035 -129.938182 
L 56.796241 -129.630764 
L 56.621854 -129.388908 
L 56.126183 -129.201783 
L 55.819119 -129.085861 
L 56.41425 -128.594866 
L 55.885553 -128.227712 
L 54.980401 -127.840161 
L 54.451703 -127.287974 
L 54.345133 -127.067973 
L 54.216419 -126.859628 
L 54.115385 -126.633799 
L 54.05864 -126.57115 
L 53.812284 -127.110225 
L 53.765227 -127.287974 
L 53.730626 -127.411815 
L 53.661425 -127.435127 
L 53.56316 -127.38559 
L 53.441365 -127.287974 
L 53.087055 -126.944131 
L 52.684304 -126.909164 
L 52.278785 -126.948502 
L 51.907866 -126.823204 
L 51.744551 -126.581349 
L 51.917554 -126.498302 
L 52.195743 -126.480819 
L 52.336914 -126.435653 
L 52.312001 -126.263732 
L 52.271865 -126.185056 
L 51.794376 -125.571676 
L 51.625525 -125.50757 
L 51.422074 -125.52214 
L 51.085756 -125.405583 
L 48.132247 -122.956435 
L 47.639535 -122.289148 
L 47.101149 -121.240138 
L 46.930914 -121.011395 
L 46.612589 -120.886097 
L 46.25551 -120.820533 
L 45.981473 -120.657354 
L 45.91504 -120.239207 
L 45.458312 -119.582118 
L 45.314374 -119.432052 
L 45.059713 -119.277614 
L 44.968367 -119.263044 
L 44.854877 -119.34172 
L 44.088128 -119.660794 
L 43.288162 -120.138677 
L 42.83697 -120.23775 
L 42.466051 -120.714175 
L 42.025931 -121.109011 
L 41.538755 -121.43537 
L 41.02113 -121.700537 
L 39.848673 -121.92254 
L 38.889732 -122.104114 
L 38.463452 -122.437758 
L 38.453764 -123.061336 
L 38.823299 -123.655775 
L 39.720147 -124.714984 
L 40.279292 -125.99128 
L 40.33449 -126.209289 
L 40.463368 -126.718303 
L 40.410775 -127.287974 
L 40.348494 -127.573538 
L 40.406623 -127.805194 
L 40.575474 -127.987314 
L 40.827366 -128.125725 
L 40.852279 -128.18546 
L 40.860583 -128.246653 
L 40.852279 -128.306388 
L 40.827366 -128.364666 
L 40.651595 -128.562813 
L 40.583778 -128.749303 
L 40.633603 -128.924138 
L 40.827366 -129.077119 
L 41.376824 -129.31606 
L 41.523531 -129.675929 
L 41.439105 -130.637522 
L 41.538755 -131.207193 
L 41.738054 -131.501499 
L 42.582309 -131.97501 
L 43.288162 -132.594218 
L 43.711673 -133.280445 
L 44.057679 -134.014753 
L 44.524096 -134.773828 
L 44.875638 -135.056478 
L 45.735117 -135.595553 
L 45.939953 -135.96125 
L 45.856911 -136.356814 
L 45.398799 -137.40801 
L 45.308837 -137.949998 
L 45.416791 -138.45702 
L 45.81539 -139.516229 
L 45.876288 -139.96133 
L 45.782174 -140.208285 
L 45.607787 -140.34961 
L 45.414023 -140.460338 
L 45.256245 -140.621332 
L 45.044489 -141.189546 
L 44.954527 -141.383322 
L 44.943455 -142.376239 
L 45.001584 -142.663989 
L 45.142755 -142.867963 
L 45.598099 -143.374985 
L 45.678372 -143.558561 
L 45.414023 -143.935185 
L 43.719977 -144.7234 
L 43.500478 -144.932314 
L 42.882643 -145.520356 
L 42.507572 -146.027378 
L 42.327649 -146.516188 
L 42.470203 -147.081488 
L 43.249409 -147.887186 
L 43.443172 -148.429903 
L 43.492997 -148.714739 
L 43.602335 -148.845865 
L 45.321294 -149.800901 
L 45.676988 -150.1513 
L 45.778022 -150.460904 
L 45.751725 -151.088853 
L 45.825079 -151.365675 
L 46.009154 -151.550709 
L 46.479722 -151.724816 
L 46.715006 -151.845015 
L 47.459612 -152.556739 
L 47.80285 -153.019324 
L 47.946788 -153.447669 
L 47.804234 -153.894227 
L 47.174502 -154.526547 
L 47.02918 -155.038668 
L 47.119142 -155.496882 
L 47.514973 -156.405296 
L 47.639535 -156.886821 
L 47.49698 -158.574708 
L 47.539885 -159.118153 
L 47.754409 -159.624446 
L 48.406284 -160.379151 
L 48.674785 -160.800941 
L 48.934982 -161.720282 
L 49.120441 -162.126773 
L 50.258109 -163.228234 
L 50.029745 -164.062343 
L 49.314204 -164.876054 
L 48.14332 -165.913409 
L 47.829146 -166.260894 
L 47.653375 -166.697253 
L 47.58971 -167.361626 
L 47.672751 -169.015275 
L 47.127446 -171.372634 
L 47.120526 -171.54674 
L 47.164814 -171.688794 
L 47.174502 -171.850516 
L 47.080389 -172.085087 
L 46.925378 -172.197273 
L 46.471418 -172.291246 
L 46.295647 -172.421644 
L 46.132332 -173.260853 
L 46.277655 -174.41185 
L 46.68179 -175.414966 
L 47.282456 -175.797418 
L 47.896963 -175.964968 
L 48.258194 -176.589275 
L 48.39798 -177.388417 
L 48.342619 -178.075373 
L 48.240201 -178.446169 
L 48.110103 -178.727362 
L 47.896963 -178.950277 
L 47.542653 -179.148423 
L 47.085925 -179.270808 
L 46.800816 -179.195046 
L 46.559996 -179.022396 
L 46.252742 -178.853389 
L 45.605019 -178.673455 
L 44.854877 -178.581666 
L 44.082592 -178.642858 
L 43.343523 -178.920409 
L 42.167102 -179.645975 
L 41.584428 -179.864518 
L 40.827366 -179.94538 
L 38.453764 -179.91624 
L 38.297369 -179.948294 
L 38.157583 -179.929353 
L 37.901538 -179.766902 
L 37.799121 -179.63869 
L 37.472491 -179.072661 
L 36.386032 -177.775968 
L 35.158402 -176.618414 
L 34.900973 -176.250532 
L 34.70029 -176.32338 
L 34.503758 -176.60603 
L 34.264322 -176.877024 
L 33.876795 -177.097025 
L 31.694189 -177.934776 
L 30.991104 -177.899809 
L 30.427806 -177.47802 
L 30.127144 -176.981258 
L 29.910181 -176.622785 
L 29.445149 -176.592189 
L 28.677015 -176.819474 
L 27.906114 -177.153847 
L 27.435545 -177.450338 
L 27.106147 -177.791994 
L 27.025874 -178.207228 
L 27.025874 -178.664713 
L 26.934528 -179.133125 
L 26.718621 -179.502464 
L 26.171931 -180.17995 
L 25.951871 -180.533991 
L 25.792708 -181.019158 
L 25.727659 -181.940685 
L 25.640465 -182.382872 
L 25.459158 -182.712873 
L 25.180155 -183.072253 
L 25.013502 -183.286915 
L 24.88894 -183.67228 
L 25.005198 -184.18513 
L 25.651804 -185.042159 
L 25.99616 -185.498578 
L 26.288189 -186.283151 
L 26.476416 -186.535204 
L 26.685404 -186.673616 
L 27.204413 -186.889245 
L 27.435545 -187.046597 
L 27.695742 -187.479314 
L 27.802312 -187.938256 
L 27.928258 -188.915875 
L 28.621654 -190.715948 
L 29.285986 -192.719995 
L 29.479749 -193.846224 
L 29.428541 -195.298083 
L 29.370411 -195.577091 
L 29.248617 -195.543581 
L 29.107447 -195.169871 
L 28.908147 -195.064241 
L 28.468028 -195.220864 
L 28.027908 -195.49113 
L 27.828608 -195.730072 
L 27.740031 -195.883052 
L 27.288839 -196.079013 
L 27.081235 -196.21961 
L 26.981585 -196.379875 
L 26.843183 -196.77034 
L 26.714468 -196.990341 
L 26.025224 -197.896569 
L 24.493109 -201.245389 
L 23.956108 -201.837643 
L 22.943002 -202.111551 
L 21.971417 -201.890094 
L 21.17145 -201.353933 
L 20.644137 -200.682275 
L 20.3355 -199.667503 
L 20.282907 -199.615052 
L 20.1362 -199.591741 
L 19.54107 -199.371012 
L 19.458028 -199.318561 
L 19.208904 -199.092733 
L 19.225512 -197.993457 
L 18.818609 -197.585509 
L 18.339736 -197.584052 
L 17.856712 -197.835377 
L 17.491329 -198.27465 
L 17.339087 -198.828295 
L 17.393064 -199.803 
L 17.348775 -200.285982 
L 17.33355 -200.664791 
L 17.406904 -201.055256 
L 17.710005 -201.410754 
L 17.97297 -201.804133 
L 18.087844 -202.300956 
L 18.145973 -202.905594 
L 18.393713 -203.789968 
L 18.731415 -206.295937 
L 19.020676 -207.270642 
L 19.365298 -208.015148 
L 19.365298 -208.382302 
L 19.559062 -208.835416 
L 20.152808 -209.674625 
L 20.282907 -210.03595 
L 20.393629 -210.505091 
L 20.66905 -210.848933 
L 21.395662 -211.479797 
L 22.086291 -212.32629 
L 22.50565 -212.693443 
L 23.563045 -213.003775 
L 23.892443 -213.384042 
L 24.137415 -213.829871 
L 24.504181 -214.192654 
L 25.00935 -214.291727 
L 27.3442 -213.912918 
L 28.483252 -213.595301 
L 29.107447 -213.614241 
L 29.973846 -213.899805 
L 30.773812 -214.341264 
L 31.011446 -214.522347 
L 31.515649 -214.906564 
L 32.199358 -215.557824 
L 32.199358 -215.731202 
L 31.421536 -215.894382 
L 29.041014 -215.482062 
L 28.545533 -215.836103 
L 28.602278 -216.395576 
L 28.850018 -217.540745 
L 28.908147 -218.14684 
L 29.016101 -218.288165 
L 29.517118 -218.623266 
L 29.658289 -218.811213 
L 29.618152 -219.032671 
L 29.288754 -219.80923 
L 29.781467 -220.026317 
L 30.984184 -220.275457 
L 31.486585 -220.562478 
L 31.809063 -221.001022 
L 33.197239 -223.528846 
L 34.045646 -226.949785 
L 34.085783 -227.289257 
L 34.070559 -227.598132 
L 34.161904 -227.823961 
L 34.509294 -227.911378 
L 34.759803 -227.896809 
L 34.999239 -227.845815 
L 35.222067 -227.754027 
L 35.425519 -227.614159 
L 35.944528 -227.420383 
L 36.550731 -227.500516 
L 37.534772 -227.911378 
L 37.832337 -228.151776 
L 38.731953 -229.066746 
L 39.104256 -229.189131 
L 41.607956 -230.48291 
L 45.350358 -233.511928 
L 45.724045 -233.68822 
L 45.831999 -234.112195 
L 45.775254 -234.619217 
L 46.190461 -234.590077 
L 46.512939 -234.129678 
L 46.544771 -233.299212 
L 46.022994 -231.005959 
L 46.10742 -230.410063 
L 46.313639 -230.26291 
L 47.085925 -229.849133 
L 47.581406 -229.493635 
L 47.697664 -229.518404 
L 47.759945 -229.516947 
L 47.804234 -229.289661 
L 47.484524 -228.483963 
L 47.072085 -227.912835 
L 47.127446 -227.739457 
L 47.365498 -227.493231 
L 47.418091 -227.389787 
L 47.38349 -227.000779 
L 47.113605 -225.959053 
L 47.418091 -225.62541 
L 47.804234 -224.851765 
L 48.060278 -224.474412 
L 48.472717 -224.09706 
L 48.889309 -223.945536 
L 49.355725 -224.000901 
L 49.923175 -224.24567 
L 51.218622 -225.121302 
L 51.733479 -225.30925 
L 54.776949 -225.883291 
L 55.379 -225.877464 
L 55.954754 -225.771106 
L 56.859906 -225.469515 
L 57.041213 -225.453489 
L 57.156087 -225.363157 
L 57.269577 -225.051368 
L 57.228056 -224.794943 
L 57.075814 -224.526863 
L 56.976164 -224.257325 
L 57.097958 -223.989245 
L 57.492405 -223.925139 
L 58.548416 -224.378253 
L 59.061889 -224.370968 
L 59.46464 -224.028583 
L 59.950433 -223.14858 
L 60.378096 -222.845532 
L 60.743479 -222.828049 
L 61.268024 -222.915466 
L 61.763505 -223.075732 
L 62.051382 -223.284077 
L 62.097304 -223.560419 
L 62.144111 -223.842092 
L 61.966956 -224.242756 
L 61.872843 -224.56183 
L 62.234073 -224.883818 
L 62.836124 -224.758519 
L 63.08248 -224.802228 
L 63.298388 -224.94501 
L 63.458935 -225.125673 
L 63.517767 -225.269575 
L 63.553048 -225.355872 
L 63.577961 -225.647264 
L 63.483847 -226.00859 
L 63.270707 -226.314551 
L 62.973142 -226.566605 
L 62.63544 -226.767665 
L 61.241727 -227.277601 
L 60.866657 -227.614159 
L 60.668741 -228.090584 
L 60.681197 -228.571381 
L 60.948314 -229.620391 
L 61.059036 -232.407553 
L 61.449331 -233.009277 
L 61.555901 -233.542524 
L 61.194671 -234.667296 
L 61.233423 -235.132066 
L 61.62787 -235.379749 
L 62.210545 -235.459882 
L 62.76969 -235.621604 
L 63.107392 -236.121341 
L 63.045111 -236.683727 
L 62.661737 -236.91247 
L 62.16072 -237.047967 
L 61.762121 -237.324789 
L 61.665239 -237.620552 
L 61.753816 -238.209163 
L 61.731672 -238.484528 
L 61.579429 -238.717642 
L 61.142078 -239.094994 
L 61.028588 -239.266915 
L 61.013363 -239.693804 
L 61.111629 -240.196455 
L 61.644479 -241.771427 
L 61.632022 -242.046793 
L 60.964922 -242.642689 
L 60.83344 -242.842292 
L 60.497122 -243.553288 
L 59.885383 -244.372099 
L 59.810646 -244.612497 
L 59.794038 -244.829584 
L 59.744213 -245.049585 
L 59.558754 -245.295811 
L 58.606545 -245.563891 
L 58.022486 -245.92376 
L 57.767826 -246.317139 
L 57.596207 -247.441911 
L 57.376147 -248.023238 
L 56.646766 -249.190262 
L 56.392106 -249.777416 
L 56.381033 -250.399538 
L 56.563725 -250.897818 
L 56.700743 -251.441263 
L 56.55542 -252.195968 
L 56.220487 -252.686963 
L 55.395608 -253.664582 
L 55.329175 -254.148293 
L 55.756838 -254.656771 
L 55.996275 -254.884057 
L 56.273079 -255.03121 
L 56.61355 -255.034124 
L 56.936027 -254.93068 
L 57.264041 -254.881143 
L 57.618351 -255.039952 
L 57.749834 -255.261409 
L 58.117984 -256.434261 
L 58.188569 -256.883004 
L 58.220402 -257.003932 
L 58.686818 -257.473073 
L 58.756019 -257.512411 
L 58.809996 -258.071883 
L 58.768476 -258.621156 
L 58.793388 -259.190827 
L 59.046665 -259.808578 
L 59.424503 -260.264606 
L 59.972577 -260.73229 
L 60.616148 -261.089245 
L 61.382898 -261.216 
L 61.619566 -261.216 
L 61.738592 -261.20143 
L 62.537174 -260.544342 
L 63.418798 -258.686719 
L 64.08313 -258.038373 
L 64.761302 -257.911617 
L 65.01181 -258.278771 
L 65.1253 -258.851356 
L 65.396569 -259.345265 
L 65.871289 -259.5201 
L 67.036638 -259.547782 
L 67.60824 -259.780896 
L 68.164618 -259.845002 
L 68.689163 -259.807121 
L 70.332 -259.422484 
L 70.589429 -259.329238 
L 70.852393 -259.160231 
L 70.975572 -258.927118 
L 70.993564 -258.670693 
L 71.173684 -258.439036 
L 71.476588 -258.439036 
" style="stroke: #000000"/>
    </defs>
    <g clip-path="url(#paddeaa2110)">
     <use xlink:href="#me2bcd37bcb" x="0" y="280.512" style="fill: #f5f5f5; stroke: #000000"/>
    </g>
   </g>
  </g>
 </g>
 <defs>
  <clipPath id="paddeaa2110">
   <rect x="7.2" y="7.2" width="222.938111" height="266.112"/>
  </clipPath>
 </defs>
</svg>
