<?xml version="1.0" encoding="utf-8" standalone="no"?>
<!DOCTYPE svg PUBLIC "-//W3C//DTD SVG 1.1//EN"
  "http://www.w3.org/Graphics/SVG/1.1/DTD/svg11.dtd">
<svg xmlns:xlink="http://www.w3.org/1999/xlink" width="371.52pt" height="231.484363pt" viewBox="0 0 371.52 231.484363" xmlns="http://www.w3.org/2000/svg" version="1.1">
 <metadata>
  <rdf:RDF xmlns:dc="http://purl.org/dc/elements/1.1/" xmlns:cc="http://creativecommons.org/ns#" xmlns:rdf="http://www.w3.org/1999/02/22-rdf-syntax-ns#">
   <cc:Work>
    <dc:type rdf:resource="http://purl.org/dc/dcmitype/StillImage"/>
    <dc:date>2024-03-04T13:11:11.540473</dc:date>
    <dc:format>image/svg+xml</dc:format>
    <dc:creator>
     <cc:Agent>
      <dc:title>Matplotlib v3.8.0, https://matplotlib.org/</dc:title>
     </cc:Agent>
    </dc:creator>
   </cc:Work>
  </rdf:RDF>
 </metadata>
 <defs>
  <style type="text/css">*{stroke-linejoin: round; stroke-linecap: butt}</style>
 </defs>
 <g id="figure_1">
  <g id="patch_1">
   <path d="M 0 231.484363 
L 371.52 231.484363 
L 371.52 0 
L 0 0 
z
" style="fill: #ffffff"/>
  </g>
  <g id="axes_1">
   <g id="PatchCollection_1">
    <defs>
     <path id="m24e5e4b7a5" d="M 309.375116 -169.54579 
L 317.223551 -169.617784 
L 316.982844 -166.630047 
L 317.110141 -164.692571 
L 316.626413 -163.013425 
L 316.469027 -161.579904 
L 317.586926 -160.375069 
L 322.269139 -158.187733 
L 324.669096 -155.513736 
L 325.275661 -154.837911 
L 329.807432 -152.036511 
L 330.640648 -151.299634 
L 331.203069 -150.126561 
L 331.464607 -148.214495 
L 331.242416 -143.617488 
L 330.918387 -141.099828 
L 330.487892 -139.344453 
L 329.131601 -138.059155 
L 324.963205 -136.043333 
L 324.123045 -134.806736 
L 324.743328 -133.311809 
L 325.907517 -132.699863 
L 326.955981 -131.880406 
L 327.192059 -129.779885 
L 326.969868 -128.886317 
L 326.243118 -127.11612 
L 325.965379 -126.209847 
L 325.849654 -125.379802 
L 325.750131 -123.745123 
L 325.597375 -122.817675 
L 322.623256 -116.414475 
L 321.711347 -113.536847 
L 322.428372 -113.341601 
L 323.181048 -113.136647 
L 326.893489 -115.228697 
L 328.789057 -115.758062 
L 330.779518 -115.186348 
L 331.737717 -114.369008 
L 333.496729 -112.353186 
L 334.482702 -111.569726 
L 334.723408 -110.400888 
L 333.880934 -108.529053 
L 332.807011 -106.593694 
L 332.330226 -105.22158 
L 333.098637 -103.811351 
L 337.505425 -100.658453 
L 337.968323 -99.263046 
L 338.005355 -95.576548 
L 338.241433 -93.842348 
L 338.847829 -92.508348 
L 339.639385 -91.62325 
L 343.222215 -89.85517 
L 344.004513 -89.247459 
L 344.277622 -88.281897 
L 343.965166 -87.557726 
L 342.800978 -86.431237 
L 342.532497 -85.463558 
L 342.675996 -84.673745 
L 343.037056 -83.945338 
L 345.365433 -80.92584 
L 345.712606 -80.248253 
L 345.87462 -79.361037 
L 345.712606 -76.549049 
L 345.842218 -74.668745 
L 346.168561 -73.010773 
L 347.976177 -67.416443 
L 348.087273 -66.544049 
L 347.999322 -65.337097 
L 347.73547 -64.693389 
L 347.37441 -64.164024 
L 347.006406 -63.29163 
L 346.615257 -61.364741 
L 346.356034 -59.429383 
L 345.930168 -57.612602 
L 345.025203 -56.028741 
L 343.326367 -57.208167 
L 341.412284 -56.452233 
L 340.644627 -55.885488 
L 339.421823 -54.982716 
L 337.505425 -54.029859 
L 335.653833 -53.623306 
L 335.089098 -53.320509 
L 334.390122 -52.573046 
L 333.94574 -51.679478 
L 333.552277 -50.675802 
L 333.010686 -49.591662 
L 329.960188 -47.186227 
L 328.557608 -45.69977 
L 328.367819 -43.734767 
L 326.909691 -41.058297 
L 322.456612 -38.034563 
L 321.209102 -34.405236 
L 320.894332 -30.504874 
L 320.507812 -28.755852 
L 320.114349 -27.495963 
L 318.855266 -27.330801 
L 313.221798 -27.864401 
L 311.745153 -28.32389 
L 310.344887 -29.183579 
L 309.226989 -30.526049 
L 308.310451 -29.40803 
L 306.218152 -27.301157 
L 305.347904 -26.920014 
L 304.116595 -27.627246 
L 301.32532 -30.077147 
L 300.35092 -30.627687 
L 298.529417 -30.941071 
L 292.720047 -30.170316 
L 292.646362 -30.122228 
L 291.678527 -29.490611 
L 289.095556 -26.22337 
L 286.526472 -21.357446 
L 285.633079 -20.273306 
L 282.059507 -18.367592 
L 281.031873 -18.287128 
L 278.647949 -19.2781 
L 277.449043 -19.409382 
L 276.351975 -18.786849 
L 275.407663 -17.067471 
L 272.852466 -17.274982 
L 270.325044 -17.994919 
L 264.112953 -21.11182 
L 261.307791 -23.316096 
L 258.942383 -27.716179 
L 257.905491 -30.2169 
L 256.780649 -32.031563 
L 252.336829 -36.010271 
L 249.568699 -39.224576 
L 247.04424 -40.95348 
L 243.014064 -43.713592 
L 239.620383 -47.646518 
L 238.31102 -49.163935 
L 235.737308 -50.999773 
L 235.191088 -51.5609 
L 234.797625 -52.416354 
L 233.964408 -55.177522 
L 233.635751 -55.897459 
L 233.089531 -56.143084 
L 230.41861 -55.922868 
L 229.650199 -56.07956 
L 227.405144 -57.18911 
L 224.36159 -56.62163 
L 219.626507 -57.459788 
L 208.882282 -59.361624 
L 207.266768 -60.568576 
L 205.961396 -63.04177 
L 205.165211 -65.680126 
L 204.730087 -66.476291 
L 203.239556 -68.163906 
L 202.790545 -69.004538 
L 202.295244 -70.522757 
L 201.137999 -75.492437 
L 199.966867 -78.937545 
L 199.166054 -80.311776 
L 198.212484 -80.629395 
L 197.592201 -80.036507 
L 197.425557 -79.164113 
L 197.37001 -78.25784 
L 197.087642 -77.542138 
L 196.721953 -77.461675 
L 195.731351 -77.859757 
L 195.28234 -77.838583 
L 191.228776 -76.011518 
L 189.597953 -75.276456 
L 187.829683 -73.857757 
L 184.191305 -68.826672 
L 183.344201 -67.928868 
L 180.761231 -66.389475 
L 179.233667 -65.707652 
L 177.761652 -66.116322 
L 174.914829 -68.250722 
L 173.470588 -68.826672 
L 172.086523 -68.576811 
L 166.675246 -65.690713 
L 165.492725 -65.468332 
L 165.425421 -65.455675 
L 164.06913 -65.722475 
L 162.569341 -66.582164 
L 158.366227 -69.959513 
L 153.430628 -71.571358 
L 152.848483 -71.761472 
L 151.36721 -71.803821 
L 148.27968 -71.07118 
L 146.886358 -71.3041 
L 146.826181 -71.575135 
L 146.8771 -72.089678 
L 146.821552 -72.697389 
L 146.441975 -73.264868 
L 146.067028 -73.404621 
L 144.844978 -73.192875 
L 141.729674 -73.353802 
L 140.290062 -72.926075 
L 137.595995 -71.291395 
L 135.98511 -71.409973 
L 131.347078 -73.419979 
L 128.328778 -74.728033 
L 127.333547 -74.929192 
L 122.144461 -73.692595 
L 121.320503 -73.15476 
L 121.709337 -72.303541 
L 119.464282 -69.834583 
L 117.20534 -69.284043 
L 115.16396 -70.897548 
L 113.580849 -74.93978 
L 112.48841 -77.300748 
L 111.03491 -78.130792 
L 109.442541 -77.830113 
L 108.12727 -76.897976 
L 106.484623 -75.733827 
L 100.14755 -73.065827 
L 99.471719 -72.966307 
L 98.698679 -73.294513 
L 96.712847 -75.424678 
L 95.52474 -76.072975 
L 95.416733 -76.13191 
L 92.546765 -76.80738 
L 79.252336 -76.350008 
L 78.37283 -76.716329 
L 76.711026 -77.978335 
L 75.859294 -78.425119 
L 73.841059 -78.564872 
L 68.873636 -76.183654 
L 68.074114 -75.800391 
L 55.496412 -69.771059 
L 51.534006 -69.588957 
L 49.872202 -68.720799 
L 43.61845 -63.812525 
L 42.919474 -63.573252 
L 40.887352 -63.471614 
L 39.512545 -62.745325 
L 37.846113 -61.31604 
L 36.253744 -59.535256 
L 35.124273 -57.731179 
L 34.360491 -55.092824 
L 34.036463 -52.833494 
L 33.36526 -51.279278 
L 31.564587 -50.764735 
L 28.930698 -50.741443 
L 27.230678 -50.308898 
L 27.230678 -50.335575 
L 27.194229 -50.712382 
L 26.7532 -53.746853 
L 26.129928 -56.437862 
L 24.125252 -61.603131 
L 23.647774 -63.37046 
L 23.454597 -65.13112 
L 23.542073 -65.637977 
L 23.953943 -67.245246 
L 24.063289 -68.185598 
L 24.063289 -69.062594 
L 24.008616 -69.802871 
L 23.538428 -73.027413 
L 23.432727 -74.664694 
L 23.520204 -76.235282 
L 23.89927 -77.495755 
L 24.504318 -78.606171 
L 24.766748 -79.243076 
L 24.981795 -79.990023 
L 25.080207 -80.89703 
L 25.087496 -82.507633 
L 25.313478 -83.344614 
L 24.98544 -84.725131 
L 24.861515 -86.205686 
L 25.123945 -86.969306 
L 25.925816 -86.192348 
L 26.20647 -85.345364 
L 26.443387 -83.197892 
L 26.840677 -82.227528 
L 26.20647 -81.107108 
L 26.516284 -80.796992 
L 26.840677 -80.596917 
L 26.840677 -79.429813 
L 26.840677 -78.869603 
L 26.20647 -77.802536 
L 27.230678 -76.315312 
L 27.606099 -76.075222 
L 27.98152 -76.265294 
L 28.294978 -76.745474 
L 28.411614 -77.389048 
L 27.912267 -79.109693 
L 27.824791 -80.566906 
L 27.890398 -81.957427 
L 28.068997 -82.837757 
L 27.868529 -83.397967 
L 27.671706 -84.838507 
L 27.453014 -85.632138 
L 27.208808 -86.239032 
L 26.993761 -86.612505 
L 26.20647 -87.312768 
L 25.714413 -87.552858 
L 25.309833 -87.609546 
L 24.97815 -87.792948 
L 24.675627 -88.433188 
L 24.489738 -89.340194 
L 24.620954 -89.706998 
L 24.854225 -90.060464 
L 25.309833 -93.421724 
L 26.906284 -98.13349 
L 27.453014 -100.794488 
L 27.759183 -107.813785 
L 27.580585 -109.437727 
L 27.267126 -110.898275 
L 27.201519 -112.288796 
L 27.759183 -113.715998 
L 31.433208 -116.180255 
L 31.859657 -116.930536 
L 34.822933 -118.744549 
L 35.632093 -119.611541 
L 37.272283 -122.139155 
L 37.727891 -122.662684 
L 38.281911 -122.992808 
L 39.53939 -124.146574 
L 40.968177 -125.463734 
L 41.970515 -127.040992 
L 42.827059 -129.38187 
L 43.362854 -132.306299 
L 43.417527 -135.637548 
L 43.286312 -136.507874 
L 42.801545 -138.708699 
L 42.896311 -139.589029 
L 43.319115 -140.749464 
L 43.417527 -141.45973 
L 43.319115 -146.801732 
L 43.417527 -148.509039 
L 43.712761 -149.969586 
L 44.259491 -151.423465 
L 44.97024 -152.533881 
L 45.735662 -152.984049 
L 46.347999 -153.650966 
L 48.028282 -158.072623 
L 51.22483 -162.267529 
L 56.156333 -171.817775 
L 57.519513 -173.331676 
L 59.400264 -174.342055 
L 67.65224 -174.902265 
L 69.594954 -175.505825 
L 78.338987 -180.200918 
L 91.29284 -187.156858 
L 93.191815 -187.743745 
L 94.219667 -187.823775 
L 94.722659 -187.997173 
L 95.273034 -188.330632 
L 95.863502 -188.567387 
L 96.512288 -188.430669 
L 96.964251 -188.150564 
L 96.953317 -188.057196 
L 96.72369 -187.857121 
L 96.512288 -187.266899 
L 96.089484 -184.175741 
L 95.925465 -180.804477 
L 96.096773 -179.147189 
L 96.534157 -177.946739 
L 99.012666 -174.312044 
L 108.992309 -165.748834 
L 112.192501 -161.777345 
L 115.822787 -158.636168 
L 118.148212 -157.305669 
L 119.679055 -156.952204 
L 120.247655 -156.695441 
L 120.37887 -156.055201 
L 120.397094 -155.244897 
L 120.597562 -154.431259 
L 121.588965 -152.41717 
L 121.785788 -152.013686 
L 122.234106 -150.676518 
L 122.584014 -149.06258 
L 122.933921 -146.1815 
L 123.316632 -144.680937 
L 123.979997 -144.030694 
L 124.377288 -143.273743 
L 125.634766 -135.687566 
L 126.101309 -134.41709 
L 126.728226 -133.906899 
L 127.522807 -133.596783 
L 129.647764 -131.109184 
L 133.354592 -129.605287 
L 137.192636 -128.868344 
L 137.743011 -128.404837 
L 139.92993 -125.183629 
L 140.330865 -124.840167 
L 140.622455 -124.593408 
L 142.721898 -123.926491 
L 145.550313 -123.626379 
L 153.204532 -125.503749 
L 155.930891 -126.827579 
L 157.093604 -127.394458 
L 158.810335 -128.868344 
L 159.619496 -130.045452 
L 160.188095 -131.145864 
L 160.800432 -131.962837 
L 162.542678 -132.449686 
L 164.2667 -133.58011 
L 168.644184 -136.447851 
L 169.02325 -137.61829 
L 169.890728 -138.565312 
L 170.904 -139.212221 
L 171.680357 -139.505664 
L 171.691291 -140.385994 
L 172.135965 -140.969546 
L 173.207556 -141.739835 
L 176.185411 -145.174456 
L 177.147656 -147.46198 
L 177.515787 -150.74321 
L 177.366348 -154.537965 
L 176.294757 -164.77847 
L 176.218215 -167.81961 
L 176.006813 -169.62362 
L 175.529335 -170.430589 
L 175.26326 -171.410956 
L 175.460083 -173.561762 
L 175.988588 -176.582895 
L 175.463728 -181.401368 
L 175.223166 -182.485107 
L 173.254939 -185.726322 
L 172.620732 -187.266899 
L 172.620732 -188.747454 
L 172.13961 -192.598898 
L 172.01204 -194.539625 
L 172.13961 -195.580015 
L 172.467648 -196.570387 
L 172.915777 -197.457012 
L 174.863911 -196.674692 
L 176.141509 -196.740333 
L 177.187658 -197.316282 
L 177.687588 -198.144209 
L 178.423596 -200.092273 
L 178.983702 -200.727511 
L 180.761231 -201.646489 
L 183.112752 -203.757597 
L 184.010774 -203.950286 
L 187.153852 -203.666546 
L 189.875692 -203.96299 
L 190.574668 -204.50506 
L 191.398626 -206.770743 
L 192.055941 -207.619844 
L 193.453893 -207.268346 
L 194.620396 -206.537822 
L 195.786899 -206.347251 
L 196.261972 -206.774044 
L 197.198737 -207.61561 
L 198.281919 -208.295314 
L 201.721251 -208.786565 
L 202.864608 -209.557321 
L 205.552789 -212.239924 
L 206.178958 -212.864794 
L 207.155673 -213.472505 
L 208.21108 -213.775302 
L 210.308008 -213.832473 
L 211.469882 -213.072305 
L 212.085536 -211.386806 
L 212.497515 -209.366749 
L 213.043735 -207.600787 
L 213.70105 -207.060835 
L 214.404655 -207.060835 
L 215.839638 -207.782889 
L 216.728403 -208.926317 
L 216.42289 -210.234908 
L 215.168436 -212.454006 
L 215.219355 -213.872705 
L 215.793349 -214.416892 
L 216.608049 -214.275022 
L 217.408863 -213.635549 
L 217.714375 -213.072305 
L 218.246708 -211.587965 
L 218.529076 -211.107302 
L 218.936426 -210.865911 
L 219.214165 -210.929435 
L 219.50579 -211.081892 
L 219.95943 -211.107302 
L 221.755475 -210.158679 
L 224.468057 -206.952844 
L 226.234012 -205.849648 
L 227.817123 -205.508736 
L 228.252247 -205.212292 
L 228.636453 -204.598229 
L 228.706413 -204.150193 
L 228.719774 -204.064629 
L 228.756806 -203.520441 
L 228.997513 -202.870381 
L 229.941825 -201.659194 
L 230.932427 -201.064187 
L 231.987834 -200.907495 
L 233.108047 -201.000663 
L 235.51348 -201.811895 
L 236.015046 -201.981048 
L 236.700135 -201.959873 
L 237.375966 -200.816444 
L 237.792575 -199.154238 
L 238.366568 -197.517441 
L 239.49141 -196.456594 
L 248.902126 -195.637136 
L 249.429829 -195.378806 
L 249.763116 -194.978606 
L 249.911243 -194.197263 
L 249.753858 -193.706013 
L 249.499264 -193.218997 
L 249.365024 -192.467298 
L 249.499264 -190.777565 
L 249.888098 -189.767536 
L 254.836478 -185.70413 
L 256.327009 -184.005927 
L 260.567154 -177.185587 
L 262.090089 -175.409038 
L 263.94631 -174.09833 
L 264.514919 -173.856577 
L 268.069002 -172.345509 
L 268.079988 -172.340838 
L 268.825254 -171.620901 
L 270.325044 -169.507676 
L 271.153631 -168.580228 
L 271.847978 -168.698806 
L 272.459003 -169.240876 
L 273.065399 -169.592374 
L 273.491266 -169.482266 
L 274.319853 -168.889377 
L 274.750348 -168.74539 
L 275.208617 -168.952901 
L 275.42155 -169.454739 
L 275.578935 -170.058216 
L 275.865932 -170.587581 
L 277.18982 -171.743714 
L 278.652578 -172.599168 
L 280.152367 -173.081949 
L 283.628731 -172.895612 
L 284.420287 -173.128533 
L 285.341454 -173.937403 
L 285.878415 -175.072362 
L 286.336684 -176.287784 
L 287.03566 -177.327457 
L 287.864247 -177.706482 
L 288.415096 -177.289342 
L 288.915026 -176.707041 
L 289.609373 -176.579993 
L 290.396299 -176.753625 
L 291.173968 -176.736685 
L 292.720047 -176.21579 
L 293.775454 -175.389981 
L 295.418742 -172.893495 
L 296.323708 -171.845352 
L 297.390688 -171.335044 
L 300.987405 -171.110593 
L 307.898471 -168.605638 
L 309.375116 -169.54579 
" style="stroke: #000000"/>
    </defs>
    <g clip-path="url(#p1fbe930de6)">
     <use xlink:href="#m24e5e4b7a5" x="0" y="231.484363" style="fill: #f5f5f5; stroke: #000000"/>
    </g>
   </g>
  </g>
 </g>
 <defs>
  <clipPath id="p1fbe930de6">
   <rect x="7.2" y="7.2" width="357.12" height="217.084363"/>
  </clipPath>
 </defs>
</svg>
