<?xml version="1.0" encoding="utf-8" standalone="no"?>
<!DOCTYPE svg PUBLIC "-//W3C//DTD SVG 1.1//EN"
  "http://www.w3.org/Graphics/SVG/1.1/DTD/svg11.dtd">
<svg xmlns:xlink="http://www.w3.org/1999/xlink" width="284.05347pt" height="280.512pt" viewBox="0 0 284.05347 280.512" xmlns="http://www.w3.org/2000/svg" version="1.1">
 <metadata>
  <rdf:RDF xmlns:dc="http://purl.org/dc/elements/1.1/" xmlns:cc="http://creativecommons.org/ns#" xmlns:rdf="http://www.w3.org/1999/02/22-rdf-syntax-ns#">
   <cc:Work>
    <dc:type rdf:resource="http://purl.org/dc/dcmitype/StillImage"/>
    <dc:date>2024-03-04T13:11:11.590698</dc:date>
    <dc:format>image/svg+xml</dc:format>
    <dc:creator>
     <cc:Agent>
      <dc:title>Matplotlib v3.8.0, https://matplotlib.org/</dc:title>
     </cc:Agent>
    </dc:creator>
   </cc:Work>
  </rdf:RDF>
 </metadata>
 <defs>
  <style type="text/css">*{stroke-linejoin: round; stroke-linecap: butt}</style>
 </defs>
 <g id="figure_1">
  <g id="patch_1">
   <path d="M 0 280.512 
L 284.05347 280.512 
L 284.05347 0 
L 0 0 
z
" style="fill: #ffffff"/>
  </g>
  <g id="axes_1">
   <g id="PatchCollection_1">
    <defs>
     <path id="mb4d99220f3" d="M 218.760359 -222.023595 
L 220.228198 -222.107416 
L 222.601725 -221.448821 
L 224.772253 -220.407043 
L 225.693556 -219.24552 
L 225.724787 -216.970373 
L 226.307758 -215.497515 
L 227.640265 -214.575481 
L 229.909689 -213.964784 
L 233.376288 -212.360206 
L 241.683632 -203.499106 
L 245.004487 -202.481277 
L 249.033237 -202.373507 
L 252.093837 -201.080266 
L 252.603937 -194.410492 
L 253.733445 -193.021455 
L 255.310591 -191.812034 
L 256.695148 -190.24338 
L 257.455093 -188.279569 
L 258.558575 -184.196278 
L 261.36933 -180.352477 
L 262.389531 -177.849815 
L 262.483222 -177.143322 
L 262.389531 -175.371102 
L 262.493633 -174.53289 
L 262.941271 -173.826397 
L 264.284188 -172.485257 
L 264.596494 -171.814687 
L 264.226932 -170.126289 
L 262.363505 -167.44401 
L 262.176121 -165.623892 
L 262.243788 -163.947468 
L 261.775328 -162.654226 
L 260.932102 -161.624422 
L 259.786979 -160.762261 
L 257.132377 -159.588764 
L 254.134238 -158.654757 
L 251.292251 -157.397438 
L 249.16857 -155.218087 
L 248.439855 -152.787272 
L 248.409046 -150.276205 
L 248.403419 -149.817606 
L 249.095698 -147.051506 
L 250.532307 -145.255337 
L 248.887494 -144.117763 
L 248.731341 -142.30962 
L 248.752161 -140.393706 
L 247.617449 -138.944797 
L 239.861846 -136.53793 
L 236.936578 -134.214885 
L 235.302176 -131.317066 
L 234.026926 -128.036064 
L 232.147884 -124.575446 
L 232.131977 -124.259173 
L 232.002141 -121.677626 
L 231.398349 -118.612165 
L 231.346298 -115.83409 
L 232.814137 -113.762509 
L 234.084182 -112.768629 
L 234.365257 -111.942391 
L 234.302796 -110.912588 
L 234.521411 -109.284061 
L 235.624892 -107.056812 
L 235.864327 -105.919238 
L 235.218894 -104.925358 
L 234.063361 -104.350584 
L 231.398349 -103.56027 
L 230.169945 -103.009445 
L 222.279732 -98.105324 
L 218.30231 -95.633178 
L 206.590829 -87.9336 
L 200.105271 -85.263296 
L 193.44274 -83.826361 
L 184.396271 -80.389691 
L 180.992134 -80.41364 
L 176.099337 -82.305604 
L 174.412884 -82.497196 
L 172.778482 -82.102039 
L 168.406196 -79.479632 
L 165.918157 -78.593522 
L 161.056591 -79.300015 
L 158.631013 -78.916832 
L 156.637458 -77.168561 
L 155.782172 -75.552884 
L 154.076548 -72.33088 
L 152.499402 -70.750251 
L 151.562483 -70.043758 
L 150.313258 -68.22364 
L 149.615775 -67.529122 
L 148.642421 -67.098041 
L 145.680717 -66.666961 
L 143.838111 -65.924544 
L 141.724839 -64.643277 
L 140.173718 -62.895006 
L 139.955104 -60.739603 
L 141.058586 -59.170949 
L 142.536835 -58.488405 
L 143.713188 -57.458602 
L 143.983854 -54.812246 
L 143.27596 -52.309584 
L 141.943453 -50.74093 
L 133.386264 -44.023258 
L 132.595089 -42.646195 
L 132.813703 -41.736136 
L 133.990056 -39.700479 
L 134.312773 -38.55093 
L 134.18785 -37.604948 
L 132.480577 -32.216441 
L 132.13704 -31.509948 
L 131.330249 -30.456196 
L 130.528663 -29.773652 
L 129.669821 -29.306648 
L 128.8318 -28.707925 
L 128.181162 -27.630224 
L 127.603395 -25.295204 
L 127.671062 -23.415214 
L 127.920907 -21.559173 
L 127.900086 -19.296 
L 125.474508 -20.349752 
L 113.575644 -21.379556 
L 111.462372 -22.0621 
L 109.453202 -23.067955 
L 108.495463 -23.822346 
L 107.704288 -24.61266 
L 106.850651 -25.283229 
L 105.684708 -25.678387 
L 104.81025 -25.534693 
L 102.884363 -24.588711 
L 101.874572 -24.421068 
L 97.648029 -24.983868 
L 94.13979 -26.073544 
L 91.11042 -27.989457 
L 85.671088 -34.156304 
L 79.534272 -38.814368 
L 78.899249 -39.796274 
L 78.732686 -40.838052 
L 78.680635 -41.87983 
L 78.347508 -42.909634 
L 75.92193 -46.322354 
L 73.288148 -48.908838 
L 72.962925 -50.04228 
L 72.590665 -51.339653 
L 68.915862 -53.028052 
L 67.333511 -54.345242 
L 66.250849 -56.105488 
L 65.511725 -58.943434 
L 64.777805 -59.697825 
L 63.159018 -59.721774 
L 61.024926 -58.835664 
L 60.317032 -58.71592 
L 59.291627 -58.871588 
L 57.284483 -59.438647 
L 57.214791 -59.458336 
L 56.12172 -59.590055 
L 56.288283 -61.398199 
L 54.044883 -67.636892 
L 53.8575 -70.953817 
L 56.059258 -76.41417 
L 57.568738 -77.946901 
L 57.65202 -79.096449 
L 56.704691 -79.874789 
L 55.163981 -80.30587 
L 52.925786 -80.30587 
L 51.676562 -80.006508 
L 50.744848 -80.377717 
L 49.500829 -82.305604 
L 48.824165 -83.934131 
L 47.460429 -89.430408 
L 46.02382 -91.765427 
L 41.193485 -95.848718 
L 39.267597 -98.111891 
L 36.499131 -104.72002 
L 28.180728 -124.575446 
L 28.170318 -124.575446 
L 28.170318 -124.58742 
L 27.311476 -126.311742 
L 24.375798 -130.754266 
L 23.032881 -131.951712 
L 21.710785 -132.694129 
L 20.268972 -133.867626 
L 19.456976 -134.262783 
L 20.69579 -137.136653 
L 20.737431 -139.004669 
L 21.497376 -140.094345 
L 22.559217 -140.094345 
L 23.506546 -138.717282 
L 24.193619 -139.591418 
L 24.963975 -141.459433 
L 25.505305 -141.950386 
L 26.494275 -141.974335 
L 26.806581 -141.375612 
L 27.066836 -140.657144 
L 27.889242 -140.297911 
L 28.347291 -140.621221 
L 31.605686 -144.08184 
L 32.147016 -144.453048 
L 34.989002 -145.602596 
L 37.945501 -145.913932 
L 38.965701 -146.297115 
L 40.766666 -147.290995 
L 43.598242 -147.877743 
L 45.742745 -148.787802 
L 49.021959 -150.727665 
L 49.488255 -151.223394 
L 49.709033 -151.458107 
L 50.375286 -152.48791 
L 50.874976 -153.709305 
L 51.07277 -155.03847 
L 51.614101 -155.457576 
L 53.977217 -155.349806 
L 54.518548 -155.840759 
L 54.945366 -157.924315 
L 56.059258 -159.732458 
L 60.244161 -164.342625 
L 60.910414 -164.845552 
L 61.306002 -165.540071 
L 61.451745 -167.012929 
L 61.160259 -167.922988 
L 60.566877 -168.641456 
L 60.160879 -169.312025 
L 60.400314 -170.114314 
L 61.306002 -170.856731 
L 62.23251 -171.168067 
L 63.169429 -171.682968 
L 64.147988 -173.024108 
L 64.397833 -174.065886 
L 64.595627 -176.760139 
L 64.897523 -177.694147 
L 66.568361 -178.759874 
L 70.678742 -180.115005 
L 71.508003 -180.3884 
L 72.512588 -181.250561 
L 72.346025 -182.591701 
L 71.716207 -185.285954 
L 71.768258 -186.399579 
L 72.439717 -187.429382 
L 73.454712 -188.04008 
L 74.485322 -188.435237 
L 75.214036 -188.842368 
L 80.98129 -195.979146 
L 83.261125 -200.289951 
L 83.147746 -200.936479 
L 82.771845 -203.08 
L 83.453714 -203.870315 
L 84.145993 -203.08 
L 84.645682 -203.271592 
L 85.577396 -203.75057 
L 86.217623 -203.870315 
L 85.343166 -205.019863 
L 84.083531 -206.325079 
L 83.620277 -207.390806 
L 85.218244 -207.833861 
L 86.472673 -208.39666 
L 87.706283 -209.7378 
L 89.652991 -212.575747 
L 90.038169 -212.71944 
L 90.517038 -212.563772 
L 90.923036 -212.527849 
L 91.0896 -213.006827 
L 91.094805 -213.857014 
L 91.204112 -214.216248 
L 91.427931 -214.587456 
L 91.662161 -215.210128 
L 91.766263 -216.144136 
L 91.776673 -217.748713 
L 92.599079 -218.670746 
L 94.186636 -219.221572 
L 95.264092 -220.119656 
L 94.524967 -222.071493 
L 105.997014 -221.281178 
L 108.682847 -222.502573 
L 109.619765 -224.250844 
L 110.254788 -226.082937 
L 111.066784 -227.615667 
L 112.534623 -228.465854 
L 114.42928 -228.226365 
L 115.626454 -227.11274 
L 116.563372 -225.891345 
L 117.698085 -225.304597 
L 120.435969 -225.304597 
L 121.331246 -225.568035 
L 121.456169 -226.250579 
L 121.424938 -227.148663 
L 121.851757 -228.070697 
L 125.661892 -233.20774 
L 130.12787 -238.033447 
L 130.450587 -238.704017 
L 133.230111 -242.84718 
L 134.573028 -244.535578 
L 135.572408 -245.972513 
L 136.488506 -245.61328 
L 141.934519 -246.166872 
L 143.203088 -246.295824 
L 145.233078 -245.385765 
L 147.554554 -245.134301 
L 149.88644 -245.445637 
L 151.91643 -246.235952 
L 153.852728 -248.020146 
L 156.580202 -252.774006 
L 158.537321 -254.761766 
L 160.598542 -255.635902 
L 174.621088 -256.581884 
L 176.619848 -257.072837 
L 182.355871 -261.024409 
L 183.854941 -261.216 
L 185.760008 -259.791039 
L 187.102925 -258.150538 
L 188.019023 -256.234625 
L 188.633225 -253.959478 
L 189.361939 -249.205617 
L 190.42378 -247.577091 
L 194.889758 -247.457346 
L 196.378418 -246.188054 
L 199.303685 -240.595981 
L 200.136502 -239.94936 
L 203.280384 -239.374586 
L 203.358618 -239.344777 
L 204.946017 -238.73994 
L 206.465907 -237.805932 
L 206.48885 -237.785751 
L 207.881695 -236.560589 
L 209.17256 -234.97996 
L 213.22213 -227.759361 
L 218.760359 -222.023595 
" style="stroke: #000000"/>
    </defs>
    <g clip-path="url(#p174ed1805f)">
     <use xlink:href="#mb4d99220f3" x="0" y="280.512" style="fill: #f5f5f5; stroke: #000000"/>
    </g>
   </g>
  </g>
 </g>
 <defs>
  <clipPath id="p174ed1805f">
   <rect x="7.2" y="7.2" width="269.65347" height="266.112"/>
  </clipPath>
 </defs>
</svg>
