<?xml version="1.0" encoding="utf-8" standalone="no"?>
<!DOCTYPE svg PUBLIC "-//W3C//DTD SVG 1.1//EN"
  "http://www.w3.org/Graphics/SVG/1.1/DTD/svg11.dtd">
<svg xmlns:xlink="http://www.w3.org/1999/xlink" width="270.919897pt" height="280.512pt" viewBox="0 0 270.919897 280.512" xmlns="http://www.w3.org/2000/svg" version="1.1">
 <metadata>
  <rdf:RDF xmlns:dc="http://purl.org/dc/elements/1.1/" xmlns:cc="http://creativecommons.org/ns#" xmlns:rdf="http://www.w3.org/1999/02/22-rdf-syntax-ns#">
   <cc:Work>
    <dc:type rdf:resource="http://purl.org/dc/dcmitype/StillImage"/>
    <dc:date>2024-03-04T13:11:11.617205</dc:date>
    <dc:format>image/svg+xml</dc:format>
    <dc:creator>
     <cc:Agent>
      <dc:title>Matplotlib v3.8.0, https://matplotlib.org/</dc:title>
     </cc:Agent>
    </dc:creator>
   </cc:Work>
  </rdf:RDF>
 </metadata>
 <defs>
  <style type="text/css">*{stroke-linejoin: round; stroke-linecap: butt}</style>
 </defs>
 <g id="figure_1">
  <g id="patch_1">
   <path d="M 0 280.512 
L 270.919897 280.512 
L 270.919897 0 
L 0 0 
z
" style="fill: #ffffff"/>
  </g>
  <g id="axes_1">
   <g id="PatchCollection_1">
    <defs>
     <path id="m2251a6299b" d="M 18.859995 -166.815958 
L 20.666248 -167.649004 
L 21.107991 -167.912777 
L 20.987248 -169.365014 
L 21.225789 -170.337123 
L 22.786613 -171.229211 
L 23.331429 -172.171683 
L 23.684823 -173.259378 
L 23.811456 -174.115901 
L 23.605309 -175.271763 
L 23.787896 -175.654086 
L 25.030666 -175.793382 
L 25.454739 -175.947497 
L 25.758069 -176.258691 
L 25.872922 -176.759564 
L 25.684445 -177.479755 
L 24.877528 -178.801586 
L 24.727336 -179.400263 
L 24.904033 -179.616617 
L 25.934766 -180.570944 
L 27.919663 -183.685842 
L 28.888552 -183.887377 
L 33.579859 -186.009421 
L 34.071666 -186.474729 
L 37.778547 -191.234946 
L 38.798313 -192.544484 
L 47.256213 -199.248482 
L 49.585669 -200.558458 
L 51.753153 -201.059331 
L 52.510006 -201.385344 
L 53.14317 -201.883253 
L 53.745974 -202.618766 
L 61.350749 -211.897757 
L 63.515288 -213.738244 
L 66.204029 -215.199372 
L 66.619267 -215.341631 
L 67.926825 -215.543166 
L 67.785468 -229.407578 
L 67.867926 -230.080349 
L 68.100577 -230.616787 
L 68.612999 -231.039121 
L 70.056025 -231.837851 
L 70.662685 -232.4143 
L 71.984968 -234.872729 
L 72.824279 -235.91745 
L 74.164232 -236.579847 
L 75.303928 -236.753227 
L 79.900997 -236.776937 
L 81.070143 -236.939943 
L 82.189224 -237.289665 
L 83.293581 -237.928353 
L 84.695378 -239.291677 
L 84.854405 -240.35418 
L 84.406772 -241.495223 
L 83.991534 -243.113429 
L 84.106387 -244.405623 
L 85.110616 -246.588423 
L 86.862862 -253.619915 
L 86.901146 -256.583662 
L 87.522531 -256.554025 
L 88.120356 -256.657756 
L 89.292447 -257.106764 
L 89.740079 -256.149473 
L 90.697188 -256.696285 
L 92.623186 -258.588638 
L 93.58913 -258.879085 
L 94.552129 -258.858339 
L 97.794521 -258.04479 
L 98.648557 -257.551326 
L 99.03729 -256.712585 
L 98.463025 -254.021503 
L 98.710401 -253.258338 
L 99.470198 -253.001973 
L 100.683518 -253.202026 
L 102.97469 -254.557941 
L 105.201073 -256.293215 
L 106.167017 -256.797052 
L 107.079952 -257.088981 
L 108.037061 -257.216423 
L 109.147308 -257.231241 
L 109.430023 -257.272734 
L 110.233995 -257.486124 
L 110.49904 -257.355719 
L 110.764086 -257.094909 
L 111.040911 -256.722959 
L 111.550388 -256.87411 
L 112.581121 -257.409066 
L 113.994697 -257.823991 
L 114.071266 -258.198905 
L 113.879844 -258.639021 
L 113.878372 -259.098402 
L 114.268578 -259.597794 
L 114.677926 -260.020128 
L 114.951807 -260.509146 
L 114.919412 -261.216 
L 115.888301 -261.079668 
L 116.489071 -260.331321 
L 116.815961 -259.34143 
L 117.181135 -256.654792 
L 117.443235 -255.633781 
L 118.035171 -254.626107 
L 118.821473 -253.77403 
L 119.045289 -253.925181 
L 119.057069 -254.752066 
L 119.198426 -255.936084 
L 119.89638 -256.734814 
L 121.021351 -256.722959 
L 122.161047 -256.195411 
L 122.90023 -255.447065 
L 123.20945 -254.220074 
L 122.738258 -253.533966 
L 121.99024 -253.013828 
L 121.454259 -252.283265 
L 121.37769 -251.244471 
L 121.884222 -251.084429 
L 122.738258 -251.277072 
L 123.721871 -251.303746 
L 124.181284 -251.250398 
L 124.667201 -251.312637 
L 125.088329 -251.520099 
L 125.362209 -251.897977 
L 125.771557 -252.354394 
L 126.233915 -252.022455 
L 126.967208 -251.001444 
L 129.82381 -249.798162 
L 130.825094 -249.079453 
L 131.231497 -248.642301 
L 131.528937 -248.488186 
L 130.825094 -248.067333 
L 130.589498 -247.966566 
L 130.209599 -247.754658 
L 129.856205 -247.470138 
L 129.23482 -246.831451 
L 129.759021 -246.337987 
L 130.047627 -245.733382 
L 130.268498 -245.100622 
L 130.589498 -244.527137 
L 130.866323 -244.278182 
L 130.957617 -244.021818 
L 130.863378 -243.761008 
L 130.589498 -243.506126 
L 130.029957 -242.599219 
L 129.661838 -240.966194 
L 129.761966 -239.428009 
L 130.589498 -238.818959 
L 131.973625 -238.537403 
L 132.539055 -238.235101 
L 132.727532 -237.551957 
L 132.730477 -236.892523 
L 133.770045 -232.734385 
L 133.652247 -232.140153 
L 133.030862 -231.104324 
L 132.948404 -230.441926 
L 133.634577 -231.282148 
L 134.241237 -231.75783 
L 134.844952 -231.689664 
L 135.510511 -230.905752 
L 135.802061 -230.290775 
L 135.905135 -229.695062 
L 135.778502 -229.123058 
L 135.369154 -228.592547 
L 135.292369 -228.414816 
L 134.556347 -225.925174 
L 134.417934 -223.503793 
L 134.97453 -221.117976 
L 136.285033 -218.720304 
L 137.766344 -216.829433 
L 138.261096 -215.851396 
L 139.715902 -213.987199 
L 139.094517 -212.511252 
L 138.532031 -210.46923 
L 138.62038 -208.539831 
L 139.82781 -207.135014 
L 139.206425 -206.666742 
L 138.717563 -205.925805 
L 138.387729 -205.060391 
L 138.109431 -203.528133 
L 137.701555 -202.879072 
L 136.682602 -201.687646 
L 136.897583 -200.893362 
L 136.414611 -199.669334 
L 135.121778 -197.73697 
L 133.946742 -196.847846 
L 133.404871 -196.296589 
L 133.175165 -195.582326 
L 133.139825 -194.799896 
L 132.989633 -194.124162 
L 132.636239 -193.540303 
L 132.008964 -193.003865 
L 132.214647 -192.841413 
L 132.241615 -192.820113 
L 132.712808 -193.054249 
L 134.370815 -194.669491 
L 135.006925 -195.614927 
L 136.111281 -193.676636 
L 136.759171 -193.119451 
L 137.619096 -194.370153 
L 137.948931 -194.473884 
L 138.237536 -194.663564 
L 138.361224 -195.285951 
L 138.593875 -195.484522 
L 139.118076 -195.588253 
L 140.072241 -195.614927 
L 140.882102 -195.505268 
L 141.294395 -195.357081 
L 141.771478 -195.06367 
L 142.169046 -194.568724 
L 142.563669 -193.430645 
L 142.905284 -193.036466 
L 143.800549 -192.891243 
L 145.742744 -193.406935 
L 146.618867 -193.306167 
L 147.443454 -192.141415 
L 148.217976 -188.549352 
L 149.631552 -187.248267 
L 149.976112 -187.186028 
L 151.249803 -187.236412 
L 151.56933 -187.002276 
L 151.601725 -186.009421 
L 152.043467 -185.653771 
L 153.156659 -185.084731 
L 153.359861 -184.323048 
L 152.826824 -182.346229 
L 153.480604 -182.930087 
L 153.927949 -183.078429 
L 154.249236 -183.184969 
L 155.050263 -183.321301 
L 155.807115 -183.558401 
L 156.596362 -184.133368 
L 157.31493 -184.785393 
L 158.101232 -185.2181 
L 159.078956 -185.138079 
L 159.538368 -185.401852 
L 160.801752 -185.778248 
L 161.055018 -185.807886 
L 161.243495 -186.705901 
L 161.505596 -186.788886 
L 162.106366 -186.519185 
L 162.412641 -187.86769 
L 163.142989 -187.420165 
L 164.223786 -185.695263 
L 164.977693 -185.784176 
L 167.445562 -186.729611 
L 168.075782 -187.097116 
L 168.443901 -188.235195 
L 168.184745 -189.322891 
L 167.763617 -190.357238 
L 167.645819 -191.332312 
L 167.916755 -191.948771 
L 168.429176 -192.743055 
L 169.467271 -194.026358 
L 170.00178 -194.367189 
L 170.932385 -194.63689 
L 171.415357 -195.078489 
L 171.630338 -195.588253 
L 171.715742 -196.758934 
L 171.918943 -197.292408 
L 172.260558 -197.573964 
L 173.850831 -198.531255 
L 174.816775 -199.57153 
L 175.382206 -200.611805 
L 175.603077 -201.749885 
L 175.541233 -203.086535 
L 175.388096 -203.347345 
L 175.131885 -203.421438 
L 174.902179 -203.525169 
L 174.83739 -203.880819 
L 174.940463 -204.209795 
L 175.276188 -204.802545 
L 175.358646 -205.128557 
L 175.498532 -207.111304 
L 175.891682 -208.299767 
L 177.384773 -210.116544 
L 177.83535 -211.260551 
L 184.626408 -210.907865 
L 184.320133 -208.759148 
L 184.676472 -207.191325 
L 185.742544 -205.893204 
L 187.577249 -204.538771 
L 189.297101 -203.439221 
L 191.679566 -202.241867 
L 192.707354 -200.223555 
L 193.873555 -196.172111 
L 194.562673 -190.612121 
L 194.868948 -189.500715 
L 195.245902 -188.81609 
L 196.217736 -187.43202 
L 196.585855 -186.676264 
L 197.033487 -184.898015 
L 197.301478 -184.444562 
L 197.984707 -183.588039 
L 198.214413 -183.137549 
L 198.243862 -182.758189 
L 198.123119 -182.032071 
L 198.170239 -181.664567 
L 198.370495 -181.305953 
L 199.209806 -180.458321 
L 199.560256 -179.862608 
L 199.716338 -179.329133 
L 199.795852 -177.930244 
L 200.770631 -172.46213 
L 200.626328 -171.081024 
L 200.19931 -170.541621 
L 199.036054 -169.634715 
L 198.726834 -169.142733 
L 198.656156 -168.126167 
L 198.726834 -167.183695 
L 198.673825 -166.28568 
L 197.946422 -164.703039 
L 198.226193 -164.273295 
L 198.691495 -163.962102 
L 198.969793 -163.627198 
L 199.012495 -162.850696 
L 198.918256 -162.047521 
L 198.441174 -160.325583 
L 197.728496 -158.662921 
L 196.915689 -157.406292 
L 191.793225 -151.668745 
L 190.672393 -150.413329 
L 186.555351 -147.13987 
L 185.780829 -146.204807 
L 185.648306 -146.210735 
L 184.700032 -145.681706 
L 184.638188 -145.663923 
L 184.700032 -145.575011 
L 184.443821 -144.776281 
L 184.323078 -144.53029 
L 184.060977 -144.368766 
L 183.374804 -144.256143 
L 183.103868 -144.131666 
L 181.702071 -142.350453 
L 182.663598 -142.288215 
L 183.218721 -142.169665 
L 184.588124 -142.211157 
L 185.247793 -142.017032 
L 185.883902 -141.45392 
L 187.577249 -139.182207 
L 188.625652 -138.825076 
L 189.335385 -139.410416 
L 189.783017 -140.475883 
L 190.042173 -141.536905 
L 190.318999 -142.019996 
L 190.678283 -141.779932 
L 191.337952 -140.921927 
L 193.125537 -139.963155 
L 193.8765 -139.109595 
L 193.796986 -138.777656 
L 193.375858 -138.413115 
L 193.081363 -137.464715 
L 193.184436 -136.92235 
L 193.696858 -135.874665 
L 193.826436 -135.434548 
L 193.540775 -134.914411 
L 193.018046 -134.622481 
L 192.816317 -134.272759 
L 193.493656 -133.586652 
L 194.106206 -134.183847 
L 194.804159 -134.450584 
L 195.502113 -134.429838 
L 196.105828 -134.163101 
L 196.847956 -134.792897 
L 197.436946 -134.557279 
L 197.987652 -133.927483 
L 198.591367 -133.382153 
L 198.868192 -133.411791 
L 199.056669 -133.6726 
L 199.29521 -133.850425 
L 199.710448 -133.622217 
L 199.996108 -133.159872 
L 200.060897 -132.690118 
L 200.060897 -132.294458 
L 200.146301 -132.057358 
L 200.664612 -131.867678 
L 205.080567 -130.862967 
L 205.759378 -130.611049 
L 206.377818 -130.249472 
L 206.757716 -129.96347 
L 207.240688 -129.800464 
L 208.165403 -129.812319 
L 208.94876 -130.004962 
L 210.220979 -130.711816 
L 210.886538 -130.985963 
L 213.536994 -131.356431 
L 215.080149 -131.391996 
L 216.066707 -131.163788 
L 216.997312 -130.528064 
L 220.672611 -129.652277 
L 220.978886 -129.613748 
L 221.223317 -129.714515 
L 221.489835 -129.788609 
L 221.841757 -129.670059 
L 221.93894 -129.480379 
L 222.089133 -128.812054 
L 222.286444 -128.537907 
L 224.819102 -126.495885 
L 225.702588 -125.411154 
L 225.843945 -124.636134 
L 225.090038 -122.423696 
L 224.824992 -121.218932 
L 224.683635 -119.917847 
L 224.836772 -118.759022 
L 225.458157 -117.960292 
L 225.481716 -118.228511 
L 226.029477 -118.521922 
L 226.742155 -118.714566 
L 227.254577 -118.679001 
L 227.808228 -118.169236 
L 228.034989 -117.643171 
L 228.220521 -116.336158 
L 228.403108 -116.13166 
L 228.709383 -116.039783 
L 229.000933 -115.891596 
L 229.130511 -115.525573 
L 229.009768 -115.220307 
L 228.488512 -114.931342 
L 228.361879 -114.667568 
L 228.320649 -113.037507 
L 228.379548 -112.6211 
L 229.121676 -111.686038 
L 231.371619 -110.506467 
L 232.066627 -109.820359 
L 233.079691 -108.393314 
L 233.874827 -108.802312 
L 234.540386 -109.940391 
L 235.170606 -110.697628 
L 235.538725 -110.399772 
L 236.160109 -109.675135 
L 237.002366 -108.997919 
L 238.012484 -108.843804 
L 238.097887 -108.633378 
L 239.272923 -107.988763 
L 239.429005 -107.956162 
L 240.659995 -107.415278 
L 240.9486 -107.041845 
L 240.486243 -106.44465 
L 240.925041 -106.075664 
L 241.678948 -105.122819 
L 242.085351 -104.900538 
L 242.74502 -105.220622 
L 243.450336 -105.817818 
L 243.872937 -105.989715 
L 243.68446 -105.025015 
L 244.567945 -104.864973 
L 244.953734 -104.116626 
L 245.233504 -103.309005 
L 245.775375 -102.969656 
L 246.217118 -103.406809 
L 246.499833 -104.347799 
L 246.67653 -106.04899 
L 248.5024 -105.25026 
L 248.758611 -103.261585 
L 248.387547 -100.840203 
L 248.334538 -98.735943 
L 249.385885 -94.239937 
L 250.131166 -92.736479 
L 251.344278 -90.289262 
L 252.059901 -89.364572 
L 250.864251 -89.561662 
L 250.475517 -88.871108 
L 250.749398 -87.783413 
L 251.51803 -86.78463 
L 250.387169 -86.717946 
L 250.016105 -86.735728 
L 250.593384 -86.178866 
L 250.690499 -86.085186 
L 250.387169 -85.609504 
L 249.72161 -85.074548 
L 249.309317 -84.237289 
L 249.347601 -82.078199 
L 249.09139 -81.47063 
L 248.293309 -81.894446 
L 248.308033 -80.98013 
L 248.53185 -79.956155 
L 248.926473 -78.975155 
L 249.462454 -78.200135 
L 250.307655 -77.722971 
L 250.90548 -77.838558 
L 251.329553 -77.749645 
L 251.641718 -76.673805 
L 251.791911 -75.566845 
L 251.738902 -74.92223 
L 251.406122 -74.327998 
L 250.717003 -73.357371 
L 250.578591 -72.973566 
L 250.369499 -72.029612 
L 250.083839 -71.670999 
L 249.530188 -71.423526 
L 249.397665 -71.644325 
L 249.39472 -72.077032 
L 249.212133 -72.451946 
L 249.150289 -72.751285 
L 249.438895 -73.035804 
L 249.530188 -73.259567 
L 248.879354 -73.375154 
L 248.737996 -73.215111 
L 247.265521 -72.416381 
L 246.841448 -71.887352 
L 246.599962 -71.367215 
L 245.999192 -69.476343 
L 246.467439 -66.773406 
L 246.423265 -65.808706 
L 246.08754 -64.801032 
L 244.553221 -61.998808 
L 243.750721 -62.318893 
L 242.78625 -62.336675 
L 241.8527 -61.903968 
L 241.137077 -60.866656 
L 241.001609 -59.872319 
L 241.446297 -56.554404 
L 241.455132 -56.554404 
L 241.375618 -55.321485 
L 241.773187 -54.530164 
L 242.303278 -53.77589 
L 242.630167 -52.664485 
L 242.633112 -51.794625 
L 242.409296 -51.815371 
L 241.935159 -52.15472 
L 241.184196 -52.234741 
L 239.44373 -50.850671 
L 239.417226 -50.309787 
L 239.823629 -48.537466 
L 239.744115 -47.889887 
L 239.423115 -46.704388 
L 239.415437 -46.25879 
L 239.414281 -46.19166 
L 239.699941 -45.529262 
L 240.132849 -45.115819 
L 240.580481 -44.777952 
L 240.922096 -44.361546 
L 241.075233 -43.845854 
L 241.325554 -40.867287 
L 241.075233 -28.592926 
L 241.157692 -28.077234 
L 241.310829 -27.548205 
L 241.413903 -26.95101 
L 241.304939 -25.498773 
L 241.711343 -24.34143 
L 241.790856 -23.80351 
L 241.614159 -23.235952 
L 241.019279 -22.166039 
L 240.94271 -21.585145 
L 241.25193 -20.910892 
L 243.138504 -19.617697 
L 243.119191 -19.613378 
L 240.141776 -19.296 
L 239.288436 -19.422018 
L 237.952773 -19.986763 
L 237.224651 -20.115114 
L 233.333605 -20.115114 
L 232.860558 -20.29714 
L 232.610121 -20.703197 
L 232.426931 -21.10692 
L 232.1649 -21.291279 
L 231.237356 -21.361289 
L 229.001976 -22.259748 
L 228.301681 -22.684474 
L 227.657038 -23.244552 
L 227.318484 -23.881641 
L 227.003119 -24.65875 
L 226.486014 -25.316842 
L 224.774696 -25.841915 
L 223.411207 -26.920066 
L 222.77352 -27.1651 
L 221.832063 -27.284117 
L 221.268581 -27.580492 
L 220.825678 -27.963212 
L 220.266833 -28.336597 
L 219.248854 -28.747321 
L 216.781588 -29.405413 
L 214.824471 -29.706455 
L 211.244152 -31.113652 
L 204.308444 -31.960771 
L 202.297993 -32.644533 
L 199.853915 -35.356245 
L 198.951879 -35.811309 
L 197.850421 -36.019005 
L 191.969794 -38.161304 
L 185.620757 -42.674602 
L 182.339572 -44.513526 
L 174.388203 -47.425933 
L 172.616595 -48.378066 
L 168.618882 -51.775874 
L 167.134812 -52.725674 
L 165.381754 -53.540121 
L 164.788126 -53.652137 
L 163.614783 -54.174876 
L 161.866363 -54.445581 
L 160.468091 -54.870307 
L 159.13011 -55.498061 
L 158.151551 -56.242499 
L 158.33706 -56.368516 
L 158.374161 -56.405855 
L 158.388075 -56.471197 
L 158.504018 -56.671892 
L 156.004287 -57.362655 
L 153.991517 -58.543487 
L 150.726564 -61.371882 
L 149.824527 -61.952964 
L 147.848859 -62.893429 
L 146.070294 -64.221281 
L 145.045359 -64.606335 
L 144.089988 -65.091736 
L 143.33404 -66.109211 
L 144.076075 -66.109211 
L 143.324765 -67.150024 
L 142.179249 -67.780112 
L 140.913151 -68.260846 
L 139.795461 -68.84426 
L 133.142654 -75.11247 
L 132.736854 -75.96659 
L 132.13395 -78.048214 
L 131.623801 -79.06569 
L 131.020898 -79.651438 
L 130.095673 -80.293194 
L 129.096245 -80.811267 
L 128.259136 -81.021296 
L 128.094497 -81.109975 
L 126.485209 -81.436688 
L 126.142018 -81.413351 
L 126.067815 -81.968762 
L 126.744921 -82.822881 
L 126.879415 -83.373625 
L 125.951872 -84.74115 
L 120.266029 -88.068948 
L 111.983063 -96.045397 
L 104.145319 -102.504967 
L 102.118636 -104.801288 
L 101.696604 -105.151336 
L 100.70877 -105.730084 
L 100.351666 -106.15481 
L 100.189345 -106.731224 
L 100.432826 -107.459326 
L 100.351666 -108.145422 
L 99.820647 -109.025211 
L 98.923248 -109.771982 
L 97.907588 -110.29939 
L 97.044972 -110.497751 
L 96.432793 -110.833798 
L 92.402616 -114.033245 
L 90.074481 -116.586268 
L 87.034457 -118.499869 
L 85.993289 -118.954933 
L 83.83675 -119.374992 
L 82.830365 -119.956073 
L 82.234418 -120.71918 
L 82.385144 -121.496288 
L 82.909206 -121.169576 
L 83.354427 -121.122903 
L 83.716169 -121.356269 
L 83.975882 -121.888343 
L 82.832684 -122.149713 
L 82.014127 -122.791469 
L 81.29528 -123.568578 
L 80.439621 -124.236005 
L 78.586853 -125.384165 
L 77.643077 -125.77622 
L 76.546257 -125.841562 
L 76.546257 -125.412169 
L 79.495846 -123.89529 
L 80.794407 -122.812472 
L 81.218758 -121.496288 
L 80.353823 -122.565104 
L 78.772361 -123.526572 
L 76.959014 -124.264009 
L 65.406457 -127.132076 
L 58.060311 -130.886935 
L 56.947258 -131.913745 
L 57.373928 -132.886881 
L 57.647554 -132.417815 
L 57.944368 -132.088769 
L 58.359444 -131.864738 
L 58.969304 -131.71305 
L 58.018571 -133.295271 
L 57.830744 -134.676798 
L 58.401183 -135.96031 
L 59.70902 -137.26716 
L 58.8951 -137.26716 
L 58.301472 -137.099136 
L 57.830744 -136.809763 
L 57.373928 -136.445712 
L 56.00812 -139.190095 
L 54.127525 -141.204044 
L 51.929247 -142.704587 
L 42.941349 -147.588936 
L 32.715179 -151.255115 
L 25.869907 -154.298208 
L 24.633955 -155.77308 
L 24.585259 -158.055399 
L 24.914537 -159.329578 
L 24.98874 -159.866319 
L 25.00961 -160.617758 
L 24.230473 -162.078629 
L 24.021776 -162.363335 
L 22.950463 -162.666711 
L 21.821179 -163.369142 
L 20.861171 -164.169588 
L 20.306963 -164.748335 
L 18.859995 -166.815958 
" style="stroke: #000000"/>
    </defs>
    <g clip-path="url(#p06da9f798a)">
     <use xlink:href="#m2251a6299b" x="0" y="280.512" style="fill: #f5f5f5; stroke: #000000"/>
    </g>
   </g>
  </g>
 </g>
 <defs>
  <clipPath id="p06da9f798a">
   <rect x="7.2" y="7.2" width="256.519897" height="266.112"/>
  </clipPath>
 </defs>
</svg>
