<?xml version="1.0" encoding="utf-8" standalone="no"?>
<!DOCTYPE svg PUBLIC "-//W3C//DTD SVG 1.1//EN"
  "http://www.w3.org/Graphics/SVG/1.1/DTD/svg11.dtd">
<svg xmlns:xlink="http://www.w3.org/1999/xlink" width="290.95679pt" height="280.512pt" viewBox="0 0 290.95679 280.512" xmlns="http://www.w3.org/2000/svg" version="1.1">
 <metadata>
  <rdf:RDF xmlns:dc="http://purl.org/dc/elements/1.1/" xmlns:cc="http://creativecommons.org/ns#" xmlns:rdf="http://www.w3.org/1999/02/22-rdf-syntax-ns#">
   <cc:Work>
    <dc:type rdf:resource="http://purl.org/dc/dcmitype/StillImage"/>
    <dc:date>2024-03-04T13:11:11.641200</dc:date>
    <dc:format>image/svg+xml</dc:format>
    <dc:creator>
     <cc:Agent>
      <dc:title>Matplotlib v3.8.0, https://matplotlib.org/</dc:title>
     </cc:Agent>
    </dc:creator>
   </cc:Work>
  </rdf:RDF>
 </metadata>
 <defs>
  <style type="text/css">*{stroke-linejoin: round; stroke-linecap: butt}</style>
 </defs>
 <g id="figure_1">
  <g id="patch_1">
   <path d="M 0 280.512 
L 290.95679 280.512 
L 290.95679 0 
L 0 0 
z
" style="fill: #ffffff"/>
  </g>
  <g id="axes_1">
   <g id="PatchCollection_1">
    <defs>
     <path id="mc4e1c2cf64" d="M 54.918325 -261.216 
L 55.247495 -261.140375 
L 55.791564 -260.945444 
L 56.02492 -260.80446 
L 56.226045 -260.351299 
L 56.469716 -260.159964 
L 56.987999 -259.934102 
L 58.902554 -259.647819 
L 59.486589 -259.439941 
L 59.161695 -259.768662 
L 58.128996 -260.083718 
L 57.864697 -260.416036 
L 58.627941 -260.009629 
L 60.334924 -259.476625 
L 64.037685 -257.266923 
L 64.697787 -256.621707 
L 65.30374 -256.451232 
L 66.320968 -255.818964 
L 67.572842 -255.238485 
L 68.276779 -255.054343 
L 74.320841 -254.451566 
L 75.818963 -254.553708 
L 79.780866 -255.649927 
L 80.430654 -255.929017 
L 80.941202 -256.315283 
L 81.210658 -256.469934 
L 81.575519 -256.531794 
L 82.673971 -256.574233 
L 84.173383 -256.319599 
L 84.353879 -256.236879 
L 84.518905 -256.103808 
L 87.654391 -254.526374 
L 88.375088 -254.360215 
L 91.070935 -254.470268 
L 91.755534 -254.372443 
L 93.101524 -253.995528 
L 94.304405 -253.49705 
L 97.224584 -253.02159 
L 97.379296 -252.965484 
L 97.665512 -252.715166 
L 97.759628 -252.65978 
L 98.029084 -252.548288 
L 98.601516 -252.007371 
L 99.4679 -251.479402 
L 100.844832 -250.355129 
L 101.562952 -249.622159 
L 101.881399 -249.509947 
L 104.44961 -249.097067 
L 104.703594 -248.966153 
L 104.945976 -248.76259 
L 105.639599 -248.40078 
L 105.958046 -248.302955 
L 108.878225 -248.182112 
L 112.10396 -247.631844 
L 112.820789 -247.382245 
L 113.16889 -247.32614 
L 113.390643 -247.225437 
L 113.981125 -246.470887 
L 114.558715 -246.14792 
L 114.770154 -245.943637 
L 114.914551 -245.300579 
L 115.051213 -244.945243 
L 115.396735 -244.297869 
L 116.060705 -243.423196 
L 116.154821 -243.146983 
L 116.126458 -242.774383 
L 115.98335 -242.139957 
L 115.939515 -241.424969 
L 115.913729 -241.015685 
L 116.006556 -239.721657 
L 116.154821 -239.086511 
L 118.055194 -234.410315 
L 118.435526 -233.765099 
L 120.152824 -231.447501 
L 121.177787 -230.396598 
L 122.349727 -229.518328 
L 126.83507 -227.528013 
L 131.810333 -226.672041 
L 137.662294 -226.613777 
L 141.050475 -225.897351 
L 144.510855 -224.757254 
L 147.207992 -224.186126 
L 147.767531 -224.188284 
L 147.911929 -224.125704 
L 148.022805 -224.049458 
L 148.602973 -223.755982 
L 149.056794 -223.341663 
L 149.223109 -223.246715 
L 149.366217 -223.187013 
L 151.697203 -222.524534 
L 152.929737 -221.944055 
L 154.265413 -221.511753 
L 155.415435 -221.307471 
L 155.621717 -221.130522 
L 156.057488 -220.498973 
L 156.347572 -220.244339 
L 156.653127 -220.096882 
L 158.08034 -219.791178 
L 160.590534 -218.875504 
L 161.113974 -218.577712 
L 161.547166 -218.181375 
L 162.949884 -216.591713 
L 166.81767 -213.819515 
L 167.687922 -212.859244 
L 168.161081 -212.444925 
L 169.207962 -211.900412 
L 169.869354 -211.771656 
L 170.178777 -211.624918 
L 172.482688 -210.16545 
L 173.149237 -209.889237 
L 174.555822 -209.684955 
L 175.968854 -209.65906 
L 177.454084 -209.823061 
L 178.276633 -210.053958 
L 179.019248 -210.261837 
L 180.293039 -210.870368 
L 182.060618 -211.993921 
L 182.385512 -212.137782 
L 183.098474 -212.262941 
L 183.420789 -212.428381 
L 185.519708 -214.011569 
L 188.140778 -217.052068 
L 188.835691 -218.232446 
L 189.216023 -218.743871 
L 189.794902 -219.188401 
L 190.075961 -219.458859 
L 191.080296 -221.508157 
L 191.821622 -223.462506 
L 191.91187 -224.216337 
L 191.821622 -226.489338 
L 191.52767 -226.95257 
L 191.134445 -228.114965 
L 190.800526 -228.607689 
L 190.105614 -229.301817 
L 189.85034 -229.671539 
L 188.782831 -232.547317 
L 188.688715 -233.281727 
L 188.674533 -234.060733 
L 188.616516 -234.349893 
L 188.340614 -235.016688 
L 188.241341 -235.344691 
L 188.187192 -236.078381 
L 188.22587 -236.881844 
L 188.457937 -238.362172 
L 188.674533 -239.026089 
L 188.639723 -239.203038 
L 188.57526 -239.396531 
L 188.549474 -239.587866 
L 188.620384 -239.760499 
L 188.820219 -240.029519 
L 190.259036 -242.916805 
L 190.631633 -243.453406 
L 193.644639 -246.337097 
L 193.889599 -246.713293 
L 194.654131 -247.579335 
L 194.975157 -247.757722 
L 195.605607 -248.01811 
L 195.887955 -248.242533 
L 196.100683 -248.456886 
L 198.41233 -250.196163 
L 202.11767 -251.701667 
L 204.296523 -253.108626 
L 206.147904 -253.986896 
L 206.872469 -254.142266 
L 209.884186 -253.966755 
L 210.598437 -254.028616 
L 211.912195 -254.360215 
L 212.542645 -254.699007 
L 214.983218 -256.787866 
L 215.213996 -256.894323 
L 215.982396 -256.94971 
L 216.688912 -257.13529 
L 217.122104 -256.790024 
L 217.815727 -256.526759 
L 218.586706 -256.3606 
L 219.241651 -256.301617 
L 222.707188 -256.652637 
L 222.788412 -256.71162 
L 222.954726 -256.967692 
L 223.032082 -257.025237 
L 223.382761 -257.085658 
L 223.552944 -257.092132 
L 223.739887 -257.025237 
L 223.867524 -256.920218 
L 223.893309 -256.826709 
L 223.893309 -256.708743 
L 223.956483 -256.531794 
L 224.459295 -256.034755 
L 225.101348 -255.905999 
L 226.563371 -255.929017 
L 227.189953 -255.720419 
L 228.744803 -254.601901 
L 229.052937 -254.429268 
L 229.323682 -254.317057 
L 229.615055 -254.256635 
L 230.353802 -254.204845 
L 234.055274 -253.142433 
L 234.913923 -252.605832 
L 235.196271 -252.528147 
L 235.375479 -252.500094 
L 235.904076 -252.297251 
L 236.116805 -252.267759 
L 236.659584 -252.297251 
L 237.020577 -252.188636 
L 237.68068 -251.869984 
L 238.394931 -251.762808 
L 238.706932 -251.645561 
L 238.905479 -251.459981 
L 238.941578 -251.210382 
L 238.85133 -251.028398 
L 238.576717 -250.705431 
L 238.521279 -250.541429 
L 238.670833 -249.462473 
L 238.820387 -249.187699 
L 239.064058 -248.96975 
L 239.385084 -248.786327 
L 239.258737 -248.441061 
L 239.06019 -247.32614 
L 238.746899 -247.446983 
L 238.802338 -247.616739 
L 238.766238 -247.764915 
L 238.663097 -247.903741 
L 238.521279 -248.050479 
L 238.278897 -246.600362 
L 238.302104 -246.239991 
L 238.539328 -246.05441 
L 239.504986 -245.700512 
L 239.860822 -245.637214 
L 240.116096 -245.490476 
L 240.42423 -245.150245 
L 240.682082 -244.765417 
L 240.883207 -244.234571 
L 241.102382 -244.113728 
L 241.353788 -244.041797 
L 241.547177 -243.936779 
L 241.670946 -243.734654 
L 241.817922 -243.352704 
L 241.971344 -243.21172 
L 241.942981 -243.503758 
L 241.763773 -244.297869 
L 242.069328 -244.185658 
L 242.760373 -244.17271 
L 242.900902 -244.118043 
L 243.345698 -243.764865 
L 243.44626 -243.705163 
L 245.43946 -243.541161 
L 247.635073 -243.574249 
L 250.338656 -242.970753 
L 252.847561 -241.994658 
L 252.476253 -241.646514 
L 252.404054 -241.512004 
L 252.531691 -241.435039 
L 252.945544 -241.270318 
L 253.943433 -240.532312 
L 254.304427 -240.436645 
L 257.318722 -240.468294 
L 261.519138 -240.18345 
L 262.947641 -240.597769 
L 263.300899 -240.840894 
L 263.486552 -240.907789 
L 264.126027 -240.786946 
L 264.252374 -240.821473 
L 264.374854 -240.888368 
L 264.492177 -240.920737 
L 264.621103 -240.847367 
L 264.684277 -240.797736 
L 264.877666 -240.687682 
L 265.09813 -240.630857 
L 265.411421 -240.471891 
L 265.928415 -240.387732 
L 266.578203 -240.146046 
L 268.420559 -239.767692 
L 268.994281 -239.433935 
L 269.239241 -238.855614 
L 269.097422 -238.153574 
L 269.062612 -237.765869 
L 269.178645 -237.451533 
L 269.720135 -236.871774 
L 270.562024 -235.702904 
L 270.644536 -235.400077 
L 270.876604 -234.900161 
L 271.186027 -234.378665 
L 271.12672 -234.321121 
L 271.100935 -234.262138 
L 270.111291 -233.502769 
L 269.667566 -232.898935 
L 269.086302 -231.397114 
L 266.512367 -229.380983 
L 266.317521 -228.820085 
L 266.312609 -228.173315 
L 266.469796 -226.686111 
L 266.484532 -225.237274 
L 266.851301 -223.348122 
L 266.961005 -222.990024 
L 267.516071 -221.892891 
L 267.722379 -220.99125 
L 268.413346 -219.570733 
L 268.629478 -218.85819 
L 268.529598 -218.247961 
L 268.292181 -217.641386 
L 268.095697 -216.934325 
L 267.928686 -215.96143 
L 267.448939 -214.743713 
L 267.396543 -214.392009 
L 267.247543 -213.794569 
L 266.938082 -213.187995 
L 266.012972 -211.83051 
L 265.533224 -211.358222 
L 265.104235 -210.831123 
L 264.953598 -210.584473 
L 264.688345 -209.977899 
L 264.031762 -208.831436 
L 263.777971 -208.210245 
L 263.773059 -207.527848 
L 263.915509 -207.146912 
L 264.36251 -206.364942 
L 265.726433 -203.050705 
L 265.798477 -202.653325 
L 265.778829 -202.302535 
L 265.513576 -201.380797 
L 265.620004 -200.64496 
L 266.432136 -199.31351 
L 266.661367 -198.586351 
L 266.65973 -198.156085 
L 266.517279 -196.875335 
L 266.553301 -196.192025 
L 266.710488 -195.580883 
L 268.023653 -192.475841 
L 268.303642 -191.525784 
L 268.413346 -190.508127 
L 268.413346 -188.325737 
L 268.413346 -185.360463 
L 268.413346 -178.313599 
L 268.413346 -171.333714 
L 268.413346 -169.952185 
L 268.413346 -163.728841 
L 268.413346 -163.045088 
L 268.413346 -160.351586 
L 268.413346 -154.386781 
L 268.413346 -152.817095 
L 268.413346 -149.471151 
L 268.413346 -146.016232 
L 268.413346 -140.857606 
L 268.413346 -135.698066 
L 268.413346 -130.538526 
L 268.413346 -125.381727 
L 268.413346 -120.223101 
L 268.413346 -115.063561 
L 268.413346 -109.904478 
L 268.413346 -104.746766 
L 268.413346 -99.58814 
L 268.413346 -94.4286 
L 268.413346 -89.269517 
L 268.413346 -84.111804 
L 268.413346 -78.952264 
L 268.413346 -73.793638 
L 268.413346 -68.635012 
L 268.413346 -63.476386 
L 268.413346 -61.274812 
L 268.411708 -59.071411 
L 268.411708 -56.868923 
L 268.411708 -54.667349 
L 268.411708 -52.464861 
L 268.410071 -50.262373 
L 268.408434 -48.060799 
L 268.408434 -45.858312 
L 268.408434 -43.655824 
L 268.406796 -41.453336 
L 268.406796 -39.250849 
L 268.406796 -37.048361 
L 268.405159 -35.368405 
L 268.403522 -33.687535 
L 268.403522 -32.005751 
L 268.401884 -30.324882 
L 268.401884 -28.351662 
L 268.401884 -28.239781 
L 268.387148 -28.212375 
L 268.372412 -28.185883 
L 268.357675 -28.158478 
L 268.342939 -28.131986 
L 268.306917 -28.126505 
L 268.272533 -28.122394 
L 268.238148 -28.118283 
L 268.203763 -28.114172 
L 266.607334 -28.114172 
L 264.295378 -28.115543 
L 262.360015 -28.115999 
L 260.386992 -28.118283 
L 258.268244 -28.12011 
L 256.478607 -28.120567 
L 255.124507 -28.122394 
L 252.571858 -28.122394 
L 252.571858 -25.915795 
L 252.571858 -23.71011 
L 252.571858 -21.503969 
L 252.571858 -19.296 
L 250.61521 -20.375319 
L 248.658561 -21.452812 
L 246.701912 -22.530761 
L 244.745263 -23.61008 
L 242.788614 -24.688486 
L 240.830328 -25.765522 
L 238.875317 -26.844841 
L 236.91703 -27.922334 
L 234.960382 -29.00074 
L 233.003733 -30.078232 
L 231.047084 -31.157095 
L 229.090435 -32.235501 
L 227.133786 -33.314363 
L 225.177137 -34.391856 
L 223.220489 -35.469805 
L 221.26384 -36.547754 
L 219.305554 -37.626617 
L 217.350542 -38.703652 
L 215.392256 -39.781602 
L 213.435607 -40.861378 
L 211.478958 -41.939327 
L 209.522309 -43.017276 
L 207.564023 -44.096139 
L 205.609012 -45.173175 
L 203.650726 -46.251124 
L 201.695714 -47.329986 
L 199.739065 -48.407022 
L 197.780779 -49.485885 
L 195.825768 -50.565661 
L 193.867481 -51.642696 
L 191.910833 -52.720646 
L 189.954184 -53.799508 
L 187.997535 -54.876544 
L 186.039249 -55.955407 
L 184.084237 -57.033356 
L 182.125951 -58.111305 
L 180.169302 -59.190168 
L 178.212653 -60.26903 
L 176.599864 -61.157542 
L 176.256005 -61.346979 
L 174.300993 -62.424929 
L 172.342707 -63.502878 
L 170.386058 -64.581741 
L 168.429409 -65.658776 
L 166.47276 -66.737639 
L 164.514474 -67.816502 
L 162.559463 -68.894451 
L 160.601177 -69.9724 
L 158.644528 -71.051263 
L 156.687879 -72.128298 
L 154.73123 -73.206247 
L 152.774581 -74.28511 
L 150.817932 -75.363059 
L 148.859646 -76.441922 
L 146.904635 -77.520328 
L 144.947986 -78.59782 
L 142.9897 -79.676226 
L 141.034688 -80.754175 
L 139.076402 -81.831211 
L 137.119753 -82.909617 
L 135.163104 -83.988936 
L 133.206456 -85.067342 
L 131.248169 -86.145748 
L 129.293158 -87.223697 
L 127.334872 -88.300733 
L 125.892355 -89.097776 
L 125.568157 -89.05347 
L 124.864091 -88.696742 
L 123.950442 -88.235416 
L 123.036794 -87.773177 
L 122.123145 -87.310938 
L 121.211134 -86.849156 
L 120.297485 -86.38646 
L 119.383837 -85.92422 
L 118.468551 -85.461981 
L 117.554902 -84.999742 
L 116.641254 -84.537503 
L 115.727605 -84.074807 
L 114.813957 -83.613024 
L 113.900308 -83.151699 
L 112.985022 -82.690373 
L 112.074648 -82.228134 
L 111.161 -81.765894 
L 110.245714 -81.303655 
L 109.967641 -81.159532 
L 109.957538 -81.154295 
L 109.955901 -81.153382 
L 107.244427 -79.625526 
L 104.536229 -78.09904 
L 101.826393 -76.572555 
L 99.11492 -75.046069 
L 98.114491 -74.48243 
L 97.868887 -74.453197 
L 97.638018 -74.575608 
L 96.917579 -75.238821 
L 94.934732 -77.059002 
L 92.95516 -78.87827 
L 90.972313 -80.699364 
L 88.990286 -82.520002 
L 88.09956 -83.34034 
L 86.241153 -84.412351 
L 84.631625 -84.813841 
L 83.233317 -85.162348 
L 81.835009 -85.509027 
L 80.436701 -85.85799 
L 79.038393 -86.20604 
L 77.641722 -86.55409 
L 76.243414 -86.901683 
L 74.846744 -87.249732 
L 73.446798 -87.598239 
L 72.050128 -87.946289 
L 70.653457 -88.293882 
L 69.253511 -88.641018 
L 67.856841 -88.989981 
L 66.46017 -89.337574 
L 65.060225 -89.685167 
L 63.661917 -90.03276 
L 62.265246 -90.381723 
L 61.053597 -92.904398 
L 59.943465 -95.212854 
L 58.166482 -98.916232 
L 58.142366 -98.966492 
L 56.999487 -101.347115 
L 55.900816 -103.630906 
L 55.493113 -104.173078 
L 54.974068 -104.461292 
L 54.318348 -104.682693 
L 49.292419 -106.379676 
L 45.511747 -107.655401 
L 42.490813 -108.677169 
L 42.148604 -108.74477 
L 41.804758 -108.704575 
L 40.052779 -108.043646 
L 38.205834 -107.344806 
L 37.577086 -107.280403 
L 37.280723 -107.398703 
L 35.197998 -109.107436 
L 34.911459 -109.434018 
L 34.713338 -110.049727 
L 34.434987 -111.69223 
L 34.136986 -112.170912 
L 31.779184 -113.579554 
L 31.581063 -114.051842 
L 31.548315 -116.504176 
L 31.477909 -119.002643 
L 31.412414 -121.329369 
L 31.199557 -122.450254 
L 30.590458 -123.581187 
L 28.170436 -126.994083 
L 26.225248 -129.734632 
L 23.806863 -133.143875 
L 21.586599 -136.273581 
L 21.216555 -137.255611 
L 21.607884 -138.090565 
L 21.828929 -138.374669 
L 22.118742 -139.077163 
L 22.659072 -139.590559 
L 22.798247 -139.847257 
L 22.857192 -140.148717 
L 22.876841 -140.501335 
L 28.47171 -143.182505 
L 28.76971 -143.538776 
L 29.431205 -145.808864 
L 29.395183 -146.183406 
L 29.213436 -146.674877 
L 29.259282 -147.290587 
L 29.657161 -149.173344 
L 29.594941 -149.427302 
L 29.344425 -149.641065 
L 28.635447 -150.036617 
L 28.461886 -150.196482 
L 28.309611 -150.542705 
L 28.001787 -152.390748 
L 26.659149 -157.106319 
L 26.667336 -157.399558 
L 26.741018 -157.686402 
L 27.002996 -158.383415 
L 27.212578 -159.424823 
L 27.438534 -159.799365 
L 28.121315 -160.546621 
L 28.247392 -160.885993 
L 28.090205 -161.254596 
L 27.859337 -161.650149 
L 27.808578 -162.018296 
L 28.198271 -162.301029 
L 28.643633 -162.540827 
L 28.908886 -162.893445 
L 29.984867 -166.418299 
L 30.032117 -166.573088 
L 30.058315 -167.268274 
L 27.744721 -173.326714 
L 27.540051 -174.354419 
L 28.337285 -180.560477 
L 28.717315 -183.518814 
L 28.669831 -186.872789 
L 28.319436 -189.574057 
L 27.064397 -193.814827 
L 25.809358 -198.055598 
L 23.939489 -201.484938 
L 21.912434 -204.42646 
L 21.08478 -205.382453 
L 20.142445 -206.47091 
L 19.770763 -207.050079 
L 23.464654 -209.026015 
L 27.009545 -210.836604 
L 27.476194 -210.956274 
L 28.630535 -211.030269 
L 29.034963 -211.257735 
L 31.004711 -213.721488 
L 32.676459 -216.323182 
L 34.118975 -217.906306 
L 35.096481 -219.860317 
L 35.346998 -220.573773 
L 35.353547 -221.165732 
L 34.955668 -222.40446 
L 34.885261 -223.031132 
L 34.973679 -223.709875 
L 34.952393 -224.038741 
L 34.45136 -225.050003 
L 33.968338 -226.913576 
L 32.786162 -229.937315 
L 32.756689 -230.244256 
L 32.925338 -231.397114 
L 33.174217 -231.806369 
L 34.186107 -232.885232 
L 35.255305 -234.686686 
L 36.070712 -235.311531 
L 37.850526 -235.289607 
L 38.718328 -235.616645 
L 38.977032 -235.814878 
L 39.209537 -236.039603 
L 39.399471 -236.305437 
L 39.666361 -236.916579 
L 40.334406 -237.511278 
L 40.540713 -238.098669 
L 40.67334 -239.514619 
L 41.030285 -239.877285 
L 41.328285 -239.838917 
L 41.613186 -239.684533 
L 41.902999 -239.574911 
L 42.212461 -239.666263 
L 42.742967 -240.076432 
L 43.317681 -240.414433 
L 43.836725 -240.906818 
L 44.475297 -242.310892 
L 44.90756 -242.751207 
L 49.804847 -244.970234 
L 53.950717 -246.848784 
L 55.057574 -247.547167 
L 55.250599 -247.721567 
L 55.571706 -248.01169 
L 55.853332 -248.563454 
L 55.797662 -249.307513 
L 55.429255 -249.942864 
L 54.368244 -250.928548 
L 54.044046 -251.612315 
L 54.032585 -252.585666 
L 54.263453 -254.449696 
L 54.148837 -256.281753 
L 54.432101 -257.479829 
L 54.440288 -258.469168 
L 54.479585 -258.740939 
L 54.933134 -260.423179 
L 54.918325 -261.216 
" style="stroke: #000000"/>
    </defs>
    <g clip-path="url(#p97514c7dab)">
     <use xlink:href="#mc4e1c2cf64" x="0" y="280.512" style="fill: #f5f5f5; stroke: #000000"/>
    </g>
   </g>
  </g>
 </g>
 <defs>
  <clipPath id="p97514c7dab">
   <rect x="7.2" y="7.2" width="276.55679" height="266.112"/>
  </clipPath>
 </defs>
</svg>
