<?xml version="1.0" encoding="utf-8" standalone="no"?>
<!DOCTYPE svg PUBLIC "-//W3C//DTD SVG 1.1//EN"
  "http://www.w3.org/Graphics/SVG/1.1/DTD/svg11.dtd">
<svg xmlns:xlink="http://www.w3.org/1999/xlink" width="363.894097pt" height="280.512pt" viewBox="0 0 363.894097 280.512" xmlns="http://www.w3.org/2000/svg" version="1.1">
 <metadata>
  <rdf:RDF xmlns:dc="http://purl.org/dc/elements/1.1/" xmlns:cc="http://creativecommons.org/ns#" xmlns:rdf="http://www.w3.org/1999/02/22-rdf-syntax-ns#">
   <cc:Work>
    <dc:type rdf:resource="http://purl.org/dc/dcmitype/StillImage"/>
    <dc:date>2024-03-04T13:11:11.691196</dc:date>
    <dc:format>image/svg+xml</dc:format>
    <dc:creator>
     <cc:Agent>
      <dc:title>Matplotlib v3.8.0, https://matplotlib.org/</dc:title>
     </cc:Agent>
    </dc:creator>
   </cc:Work>
  </rdf:RDF>
 </metadata>
 <defs>
  <style type="text/css">*{stroke-linejoin: round; stroke-linecap: butt}</style>
 </defs>
 <g id="figure_1">
  <g id="patch_1">
   <path d="M 0 280.512 
L 363.894097 280.512 
L 363.894097 0 
L 0 0 
z
" style="fill: #ffffff"/>
  </g>
  <g id="axes_1">
   <g id="PatchCollection_1">
    <path d="M 329.659421 92.712853 
L 330.162364 94.958061 
L 330.36913 97.496761 
L 330.235012 99.991437 
L 329.715303 102.080117 
L 328.66471 103.733451 
L 327.340292 105.254715 
L 326.284111 106.981422 
L 326.043816 109.260871 
L 327.060879 111.241938 
L 326.887643 112.34253 
L 324.97087 114.279573 
L 324.507044 115.326358 
L 323.791747 118.853146 
L 323.417333 119.748294 
L 322.126445 122.140248 
L 321.601148 123.901196 
L 321.847032 124.889284 
L 322.696447 125.476266 
L 325.920874 126.684472 
L 326.837349 126.733388 
L 330.100893 125.852914 
L 339.072847 127.427984 
L 340.313441 128.381831 
L 340.808002 129.976467 
L 340.210058 131.502621 
L 338.907993 132.4956 
L 337.519536 132.867605 
L 335.420918 133.429881 
L 334.588267 133.923925 
L 333.03473 135.464754 
L 332.179726 136.648503 
L 331.788548 137.656156 
L 331.442076 140.282903 
L 330.838544 143.031939 
L 330.005893 144.411348 
L 328.815593 144.626575 
L 323.109979 142.058526 
L 322.338799 142.146573 
L 321.880561 142.611268 
L 321.56203 143.168901 
L 321.226735 143.540657 
L 320.69585 143.71186 
L 320.237613 143.721643 
L 314.246997 142.156356 
L 311.810515 142.58681 
L 310.111683 145.282039 
L 309.966389 146.358174 
L 310.016683 148.706104 
L 309.916094 149.845829 
L 309.659034 150.65293 
L 307.669613 155.021059 
L 306.722679 156.485983 
L 305.819899 157.882599 
L 305.009601 158.787531 
L 303.059298 159.917472 
L 296.493091 161.272424 
L 295.487204 161.252858 
L 293.520136 160.793055 
L 292.531014 160.763706 
L 290.496887 161.639288 
L 289.859825 162.19203 
L 289.664236 162.901301 
L 289.569236 163.757317 
L 289.222763 164.725838 
L 288.093935 166.071007 
L 286.836576 167.054203 
L 285.76363 168.184144 
L 285.199215 169.964658 
L 285.277451 170.810892 
L 285.741277 172.699019 
L 285.774806 173.481663 
L 285.534511 174.278981 
L 285.260686 174.459967 
L 284.891861 174.46975 
L 284.360976 174.743675 
L 283.181853 175.814919 
L 282.606262 176.661152 
L 282.438614 177.928056 
L 282.623027 182.76088 
L 282.539203 183.739184 
L 282.326849 184.741946 
L 282.041848 185.612637 
L 281.807141 186.551809 
L 281.74567 187.745341 
L 282.108907 189.618794 
L 283.45009 192.979269 
L 283.757444 194.808698 
L 283.478031 196.691934 
L 282.723616 198.164282 
L 281.689787 199.245309 
L 278.381537 201.245941 
L 277.554474 202.385666 
L 276.962119 204.303142 
L 276.727412 206.783144 
L 276.766529 208.754427 
L 276.565352 210.578965 
L 275.598583 212.633404 
L 273.117395 215.695497 
L 272.100331 217.740153 
L 272.027684 220.122324 
L 272.765334 221.345205 
L 273.938869 221.809899 
L 276.285939 221.648479 
L 279.52713 219.902206 
L 280.337428 219.682087 
L 281.075079 220.122324 
L 281.388021 220.900076 
L 281.550081 221.824574 
L 282.125672 223.507257 
L 282.332438 223.854555 
L 282.55038 223.908362 
L 283.170677 223.698027 
L 283.41656 223.756725 
L 283.936268 224.348599 
L 284.416859 225.043195 
L 284.841567 225.89432 
L 285.199215 226.941106 
L 285.417158 227.254163 
L 285.713335 227.366668 
L 285.975984 227.567221 
L 286.11569 228.14442 
L 285.98716 228.565091 
L 285.350098 229.445565 
L 285.182451 229.880911 
L 285.132156 234.209907 
L 284.70186 235.69693 
L 283.455678 236.66056 
L 282.813028 236.75839 
L 280.784489 236.474682 
L 280.197722 236.748607 
L 279.342718 237.976379 
L 278.778303 238.318786 
L 277.593592 238.357918 
L 272.804452 237.541034 
L 271.345916 236.802414 
L 270.116499 235.594208 
L 269.708556 233.901742 
L 270.11091 233.236495 
L 271.653271 232.688644 
L 272.044449 231.984265 
L 271.742683 231.172272 
L 270.440618 230.453219 
L 270.569148 229.514046 
L 271.675624 228.863474 
L 272.938571 228.971087 
L 273.396808 228.614006 
L 269.585614 223.272464 
L 269.32576 222.739289 
L 268.968111 222.377316 
L 268.280755 222.211004 
L 266.917219 222.881143 
L 264.748974 226.163354 
L 263.435733 227.038936 
L 258.993065 227.293295 
L 255.561873 226.031283 
L 254.595104 226.197594 
L 253.907747 227.440041 
L 252.801272 231.896218 
L 251.90715 233.872392 
L 249.694199 236.420875 
L 247.335952 237.991054 
L 244.910647 238.401942 
L 240.646804 236.694801 
L 238.160028 236.327936 
L 235.656487 236.616536 
L 235.38629 236.784152 
L 233.795596 237.770935 
L 233.577653 238.367701 
L 233.572065 239.086755 
L 233.639124 239.717761 
L 233.611183 240.079734 
L 232.599708 240.735198 
L 232.119117 241.361312 
L 231.778233 241.395553 
L 231.683233 241.713502 
L 231.934705 243.156501 
L 232.577355 245.201157 
L 233.303829 246.820251 
L 233.784419 248.620331 
L 233.678242 251.207946 
L 233.672654 251.212838 
L 233.667066 251.222621 
L 233.661477 251.232404 
L 232.974121 252.841714 
L 232.018529 253.37489 
L 228.514689 253.966764 
L 227.525567 253.893392 
L 226.726445 253.076508 
L 226.027913 251.232404 
L 225.832324 251.100333 
L 225.631146 251.046526 
L 225.429969 251.085658 
L 224.13908 252.112878 
L 220.685535 252.812365 
L 217.958464 254.446134 
L 211.761082 260.18878 
L 209.805191 261.216 
L 207.860476 261.196434 
L 206.14488 260.663258 
L 204.317518 260.746414 
L 203.272514 260.536078 
L 202.696923 259.626255 
L 201.763683 256.906569 
L 200.249264 255.003767 
L 198.544845 254.392327 
L 196.767778 254.72495 
L 193.425998 256.58862 
L 191.827755 257.048423 
L 188.363033 257.092447 
L 187.474499 256.872329 
L 185.881845 255.810868 
L 185.038018 255.448896 
L 184.222131 255.610316 
L 180.092406 258.070751 
L 179.673287 258.144124 
L 179.21505 257.997379 
L 178.242692 257.405504 
L 177.868279 257.32724 
L 177.035628 257.669647 
L 176.0968 258.383809 
L 172.715902 258.882744 
L 170.050301 260.066492 
L 169.212062 260.139865 
L 168.284411 259.797459 
L 163.428212 256.754932 
L 161.561733 256.251105 
L 161.785263 255.698363 
L 161.818793 255.179862 
L 161.662321 254.705384 
L 161.343791 254.279822 
L 160.7682 253.79067 
L 160.332315 253.105857 
L 160.103197 252.244949 
L 160.136726 251.232404 
L 160.399374 250.811733 
L 160.689964 250.439977 
L 161.343791 249.877452 
L 162.1485 248.42467 
L 162.131735 246.287075 
L 161.343791 241.870031 
L 160.930259 239.849832 
L 160.337904 237.731803 
L 159.583488 235.838784 
L 158.689366 234.478941 
L 158.192011 234.175667 
L 157.029653 233.847935 
L 156.470827 233.456613 
L 155.973472 232.722885 
L 154.989938 230.790734 
L 154.470229 229.959175 
L 153.470992 229.084521 
L 152.391396 228.139529 
L 148.032553 226.447062 
L 145.970484 225.150809 
L 142.617528 222.269702 
L 141.633994 221.78055 
L 140.544283 222.030018 
L 139.253394 222.592543 
L 138.0128 222.597434 
L 137.040443 221.203351 
L 137.046031 220.200589 
L 137.358974 219.129345 
L 137.554563 218.229305 
L 137.213679 217.705912 
L 135.358376 217.480902 
L 134.749256 217.05534 
L 134.408372 216.448791 
L 134.168077 215.710171 
L 133.860722 214.971552 
L 133.285132 214.374786 
L 132.731894 214.242715 
L 131.502476 214.506857 
L 130.915709 214.428593 
L 127.674517 212.71656 
L 126.523336 212.55514 
L 125.176565 213.200821 
L 125.103514 213.339363 
L 123.734793 215.935181 
L 122.71773 216.781415 
L 119.459774 210.867565 
L 118.02359 207.60492 
L 117.710648 203.906929 
L 118.096238 196.559863 
L 119.280949 192.04988 
L 119.521244 190.337847 
L 119.459774 189.310628 
L 119.124478 187.148575 
L 119.130066 186.180054 
L 119.359185 185.519698 
L 120.543896 183.739184 
L 120.571838 183.362537 
L 120.426543 182.941866 
L 120.314778 182.486955 
L 120.426543 182.032043 
L 120.610955 181.870623 
L 121.069193 181.753226 
L 121.639195 181.254291 
L 122.5892 180.730898 
L 123.030672 180.22218 
L 123.768323 178.945493 
L 125.450389 177.698155 
L 126.266276 176.798115 
L 126.964808 175.14478 
L 127.104515 173.47188 
L 126.886573 171.725606 
L 126.076275 167.895545 
L 125.64039 166.687339 
L 124.969799 165.904695 
L 121.745372 164.37854 
L 121.298311 163.644812 
L 121.901844 162.368125 
L 121.180958 162.084417 
L 120.66125 161.492542 
L 120.27566 160.846862 
L 119.923599 160.450648 
L 119.415067 160.284336 
L 116.375053 160.308794 
L 115.48652 159.829425 
L 114.849458 158.684809 
L 114.128572 156.56678 
L 113.223274 152.286698 
L 112.630918 150.393679 
L 112.117125 149.790974 
L 111.809444 149.430049 
L 110.490615 148.676755 
L 104.824118 150.379005 
L 95.826912 149.265883 
L 94.82113 149.14145 
L 88.947868 150.677387 
L 88.254924 151.401333 
L 87.640215 152.272024 
L 86.634328 153.015535 
L 85.388146 153.142714 
L 83.935198 152.673128 
L 82.733722 151.645909 
L 82.241955 150.080622 
L 82.241955 148.530009 
L 82.068719 147.478332 
L 81.42048 146.998963 
L 80.017827 147.140817 
L 78.603997 148.231626 
L 78.140171 148.43707 
L 77.609286 148.231626 
L 76.290457 147.341369 
L 74.379271 146.862 
L 73.334266 146.172296 
L 71.495729 144.553202 
L 67.751594 143.736318 
L 66.818354 142.943891 
L 65.890703 141.701445 
L 62.085097 138.712725 
L 59.883322 137.626807 
L 54.412414 137.445821 
L 52.450935 135.860968 
L 49.09239 130.064514 
L 47.432676 128.401397 
L 46.080317 128.606841 
L 41.633095 132.308413 
L 41.712299 131.846221 
L 41.465887 129.670072 
L 41.461487 128.965231 
L 41.809103 128.583923 
L 42.200721 128.72258 
L 42.59234 128.676361 
L 42.909154 127.72887 
L 42.80355 126.9547 
L 42.438332 125.856996 
L 41.989512 124.863285 
L 41.633095 124.435758 
L 41.193074 124.019786 
L 41.025866 123.026076 
L 41.065468 120.88459 
L 40.497842 120.807559 
L 37.373696 123.796394 
L 37.078882 123.079998 
L 37.074482 122.872012 
L 37.224089 122.79498 
L 39.292185 118.049819 
L 39.749807 117.329571 
L 40.590246 116.293493 
L 40.594646 113.978686 
L 39.956617 110.161758 
L 39.292185 107.346244 
L 39.217382 106.606739 
L 38.979771 106.283205 
L 38.464947 105.717021 
L 37.945723 104.954406 
L 37.712512 104.053133 
L 37.765314 102.897655 
L 37.857718 102.146595 
L 37.875319 101.441754 
L 37.712512 100.463449 
L 35.684017 95.102033 
L 35.283598 93.438145 
L 35.125191 91.654858 
L 34.777575 90.711218 
L 32.53787 86.836517 
L 32.005445 86.251075 
L 31.530223 85.935244 
L 31.187007 85.334396 
L 30.940595 82.988776 
L 30.438972 81.140012 
L 29.580932 73.144107 
L 29.580932 68.980536 
L 29.699737 67.944457 
L 30.201361 66.631064 
L 30.320166 65.74905 
L 30.320166 57.637597 
L 30.051754 54.317525 
L 32.104076 53.817916 
L 35.283797 53.791013 
L 37.45763 53.196693 
L 38.267928 51.401504 
L 38.659106 48.791877 
L 39.581169 45.744459 
L 40.944705 43.660671 
L 42.867067 41.603786 
L 44.878841 39.952897 
L 46.538554 39.114001 
L 48.991801 38.996604 
L 49.835629 38.720234 
L 57.385369 33.05096 
L 59.391555 32.048198 
L 64.175106 31.837862 
L 79.359335 24.873716 
L 80.324544 24.431029 
L 86.321385 21.680617 
L 88.757867 21.842037 
L 89.786107 22.358093 
L 91.792293 23.815766 
L 92.854062 24.238883 
L 108.903548 23.710598 
L 112.36827 24.490796 
L 112.498661 24.558869 
L 113.932983 25.30768 
L 116.330347 27.768116 
L 117.263587 28.147209 
L 118.079473 28.032258 
L 125.729803 24.950599 
L 127.712862 23.605955 
L 129.300701 22.529296 
L 131.223063 22.181998 
L 132.977777 23.140736 
L 134.296607 25.86776 
L 136.207792 30.536717 
L 138.672215 32.400387 
L 141.399287 31.764489 
L 144.109593 28.912732 
L 143.640179 27.929536 
L 144.63489 27.308313 
L 150.899331 25.879988 
L 152.100807 26.112336 
L 155.744601 27.623197 
L 161.343791 29.944843 
L 163.288505 30.081806 
L 166.540873 28.193678 
L 168.278823 27.699635 
L 172.039722 27.885512 
L 173.515023 27.640936 
L 173.967672 27.802357 
L 174.42591 28.457821 
L 174.492969 29.159754 
L 174.431498 29.754074 
L 174.504145 30.067131 
L 176.186212 30.336165 
L 179.913582 29.489932 
L 181.701826 29.538847 
L 182.404611 29.758437 
L 188.363033 31.620189 
L 193.437174 35.521178 
L 195.247771 36.514157 
L 196.885131 36.822323 
L 196.966382 36.807704 
L 198.393962 36.550844 
L 204.926639 33.217271 
L 206.597529 32.928672 
L 208.341066 33.593919 
L 211.777847 36.059246 
L 213.554914 36.531278 
L 215.39904 35.743742 
L 218.51729 33.965674 
L 219.539942 32.928672 
L 223.932315 27.117544 
L 226.067031 25.478884 
L 228.035816 24.629854 
L 232.929415 22.519513 
L 233.471477 22.495055 
L 234.667364 22.954858 
L 235.108837 22.861919 
L 235.449721 22.035252 
L 235.51678 20.988466 
L 235.717957 19.980813 
L 236.466785 19.296 
L 237.617966 19.662864 
L 238.584735 21.250163 
L 239.998566 25.229416 
L 241.395631 30.969617 
L 241.993575 32.723228 
L 242.535636 33.694195 
L 244.335056 35.643466 
L 244.860353 36.563072 
L 245.821534 39.610491 
L 247.397423 42.467139 
L 249.347726 43.861223 
L 262.318519 46.057929 
L 268.034871 47.026038 
L 271.709153 46.370574 
L 274.41946 47.652153 
L 275.347111 47.833139 
L 278.571538 47.57878 
L 279.230953 47.862488 
L 279.627719 48.694047 
L 280.633606 51.883319 
L 281.108608 52.871407 
L 281.768023 53.519533 
L 284.875096 55.640008 
L 286.455803 57.392691 
L 290.55277 61.935397 
L 295.418135 65.123449 
L 298.465747 67.12041 
L 301.807527 70.833075 
L 307.172258 75.42866 
L 308.530206 77.524677 
L 309.781976 80.413121 
L 312.637577 85.495412 
L 316.024064 88.041449 
L 323.52351 91.641609 
L 326.574701 92.473168 
L 329.659421 92.712853 
" clip-path="url(#pb8a8287e8f)" style="fill: #f5f5f5; stroke: #000000"/>
    <path d="M 26.593166 129.995728 
L 23.086095 129.092565 
L 23.099429 129.069224 
L 27.138818 122.055474 
L 29.409324 116.462963 
L 31.618227 108.744372 
L 32.199054 100.786983 
L 32.53787 99.177018 
L 32.243056 98.726381 
L 32.53787 97.825109 
L 32.067048 95.918571 
L 32.221055 90.010228 
L 31.772234 87.42581 
L 33.514716 89.609663 
L 34.275951 93.792492 
L 34.385956 102.054157 
L 34.267151 103.244299 
L 33.765527 104.827303 
L 33.646722 105.959671 
L 33.646722 109.518542 
L 33.026293 111.066882 
L 32.172653 112.626777 
L 31.877839 114.098085 
L 32.907487 115.388369 
L 32.907487 115.977662 
L 32.128651 116.971373 
L 31.138605 118.762363 
L 30.280564 120.876887 
L 29.919748 122.825793 
L 29.211314 124.743886 
L 26.566791 128.271944 
L 26.593166 129.995728 
" clip-path="url(#pb8a8287e8f)" style="fill: #f5f5f5; stroke: #000000"/>
   </g>
  </g>
 </g>
 <defs>
  <clipPath id="pb8a8287e8f">
   <rect x="7.2" y="7.2" width="349.494097" height="266.112"/>
  </clipPath>
 </defs>
</svg>
