<?xml version="1.0" encoding="utf-8" standalone="no"?>
<!DOCTYPE svg PUBLIC "-//W3C//DTD SVG 1.1//EN"
  "http://www.w3.org/Graphics/SVG/1.1/DTD/svg11.dtd">
<svg xmlns:xlink="http://www.w3.org/1999/xlink" width="198.776049pt" height="280.512pt" viewBox="0 0 198.776049 280.512" xmlns="http://www.w3.org/2000/svg" version="1.1">
 <metadata>
  <rdf:RDF xmlns:dc="http://purl.org/dc/elements/1.1/" xmlns:cc="http://creativecommons.org/ns#" xmlns:rdf="http://www.w3.org/1999/02/22-rdf-syntax-ns#">
   <cc:Work>
    <dc:type rdf:resource="http://purl.org/dc/dcmitype/StillImage"/>
    <dc:date>2024-03-04T13:11:11.715788</dc:date>
    <dc:format>image/svg+xml</dc:format>
    <dc:creator>
     <cc:Agent>
      <dc:title>Matplotlib v3.8.0, https://matplotlib.org/</dc:title>
     </cc:Agent>
    </dc:creator>
   </cc:Work>
  </rdf:RDF>
 </metadata>
 <defs>
  <style type="text/css">*{stroke-linejoin: round; stroke-linecap: butt}</style>
 </defs>
 <g id="figure_1">
  <g id="patch_1">
   <path d="M -0 280.512 
L 198.776049 280.512 
L 198.776049 0 
L -0 0 
z
" style="fill: #ffffff"/>
  </g>
  <g id="axes_1">
   <g id="PatchCollection_1">
    <defs>
     <path id="m91c7143a48" d="M 101.246499 -243.238568 
L 99.772916 -238.467307 
L 98.739208 -233.934608 
L 97.397587 -224.664728 
L 97.771482 -224.426166 
L 99.047121 -224.545447 
L 99.530984 -224.477286 
L 98.739208 -223.403752 
L 96.759768 -219.552663 
L 99.069115 -218.223525 
L 100.454723 -215.514131 
L 101.774349 -208.629881 
L 101.180517 -204.966235 
L 102.104256 -202.29092 
L 105.777217 -196.701728 
L 109.010303 -187.431848 
L 110.703824 -184.552051 
L 112.991177 -189.08475 
L 116.642144 -183.171793 
L 123.636166 -166.301976 
L 126.957226 -162.928012 
L 134.171186 -159.707411 
L 137.272309 -157.696665 
L 138.284023 -155.890402 
L 139.142694 -153.599656 
L 140.417419 -150.198968 
L 140.637357 -149.091354 
L 142.352872 -148.937992 
L 145.54197 -150.880577 
L 147.411441 -150.829456 
L 151.018421 -148.546067 
L 157.132691 -142.701271 
L 160.739671 -140.400842 
L 164.45662 -139.378429 
L 174.661733 -139.378429 
L 181.215879 -137.435843 
L 182.051643 -137.384723 
L 183.19532 -136.140787 
L 183.129338 -136.208948 
L 182.667469 -135.748862 
L 182.645475 -132.971306 
L 182.337562 -132.749783 
L 181.325848 -125.57585 
L 181.303854 -123.24134 
L 181.875693 -121.775881 
L 181.787718 -120.497865 
L 179.720302 -118.674562 
L 179.566346 -115.726604 
L 180.050209 -113.034249 
L 181.061923 -110.665658 
L 182.579494 -108.620832 
L 180.732016 -109.353561 
L 179.742296 -108.859395 
L 179.016501 -107.257614 
L 180.468091 -105.570632 
L 180.885973 -104.854943 
L 165.248396 -94.664892 
L 161.949329 -90.012912 
L 162.323223 -88.922338 
L 163.686838 -87.985126 
L 164.98447 -86.707109 
L 165.182414 -84.525961 
L 164.610576 -83.043462 
L 163.00503 -80.657831 
L 160.84964 -76.193294 
L 155.307208 -69.309045 
L 152.096116 -64.231059 
L 150.886458 -60.601493 
L 150.886458 -50.155838 
L 150.472455 -46.983452 
L 149.082968 -36.33622 
L 149.742781 -26.350651 
L 149.72733 -23.920487 
L 145.475988 -24.373985 
L 139.823587 -27.509386 
L 129.683318 -35.168575 
L 129.310561 -35.450128 
L 123.482209 -37.801679 
L 117.43392 -38.449207 
L 105.205379 -37.085989 
L 106.590987 -34.05283 
L 100.586685 -33.490503 
L 99.069115 -32.877055 
L 97.947432 -30.866309 
L 97.969426 -28.753322 
L 97.485563 -26.981139 
L 94.91229 -25.992806 
L 92.844875 -22.823325 
L 89.721758 -21.64755 
L 71.576891 -20.539936 
L 67.881936 -19.296 
L 64.956763 -28.736282 
L 60.953896 -32.808894 
L 47.449715 -36.063576 
L 42.105227 -38.602569 
L 38.388278 -42.112854 
L 31.70217 -51.09305 
L 36.760739 -53.529801 
L 41.643358 -58.795229 
L 43.666785 -63.941376 
L 40.059806 -65.935081 
L 42.457128 -68.218471 
L 44.150649 -71.524273 
L 46.877877 -79.124212 
L 48.571398 -81.134958 
L 50.682801 -83.111623 
L 51.870465 -85.97438 
L 50.682801 -90.66044 
L 49.143236 -91.972537 
L 44.876443 -92.466704 
L 43.424854 -93.574318 
L 42.677065 -95.994029 
L 42.984978 -97.169804 
L 43.622798 -98.226298 
L 43.732767 -100.373366 
L 44.062673 -102.196669 
L 45.096381 -103.372444 
L 45.888157 -104.735662 
L 45.687125 -106.508869 
L 45.602238 -107.257614 
L 44.370586 -109.217239 
L 42.984978 -109.319481 
L 41.621364 -108.859395 
L 40.4337 -109.080918 
L 39.158061 -109.796607 
L 36.188901 -110.699739 
L 34.825286 -111.807353 
L 34.913261 -112.574163 
L 34.451392 -117.175022 
L 34.121485 -118.725682 
L 29.106904 -128.67717 
L 27.699302 -130.773118 
L 24.994067 -132.443059 
L 22.706714 -132.834984 
L 20.551324 -133.891478 
L 18.307958 -137.640326 
L 17.010325 -141.7811 
L 16.702412 -145.71739 
L 17.648145 -148.869831 
L 20.177429 -150.573853 
L 18.132008 -152.482358 
L 18.505902 -153.675173 
L 18.90179 -154.441983 
L 19.209703 -155.430316 
L 19.187709 -157.33882 
L 24.774129 -156.759453 
L 22.794689 -159.758531 
L 18.08802 -163.354018 
L 15.58073 -164.563873 
L 16.438487 -167.699274 
L 23.806403 -180.496479 
L 24.66416 -182.592426 
L 25.170017 -184.262367 
L 25.961793 -185.98343 
L 27.63332 -188.198658 
L 29.128897 -189.204031 
L 32.274008 -189.936761 
L 34.03351 -191.589662 
L 36.364851 -196.122361 
L 35.507093 -197.945664 
L 34.011516 -199.786008 
L 34.253448 -204.335746 
L 35.573075 -206.090889 
L 39.883855 -207.999394 
L 41.42342 -209.635255 
L 41.951271 -212.242408 
L 41.951271 -215.343728 
L 41.709339 -219.160738 
L 42.984978 -221.205564 
L 46.086101 -223.897919 
L 47.383734 -225.772343 
L 47.911585 -228.021652 
L 48.329467 -233.372281 
L 49.099249 -235.468228 
L 52.618253 -238.671789 
L 60.536014 -242.539919 
L 63.703118 -245.828681 
L 65.396639 -250.565862 
L 66.27639 -255.081521 
L 68.07988 -258.13172 
L 72.610598 -258.608846 
L 75.887672 -261.216 
L 77.251286 -259.733501 
L 77.955087 -256.58106 
L 79.25272 -254.161349 
L 81.132377 -253.251155 
L 82.067924 -252.798131 
L 84.465245 -252.457327 
L 89.303877 -253.224137 
L 91.151354 -254.365832 
L 92.514968 -255.83129 
L 94.164502 -256.052813 
L 96.913724 -253.411579 
L 97.837463 -250.37842 
L 97.595531 -247.26006 
L 98.079395 -244.652906 
L 101.246499 -243.238568 
" style="stroke: #000000"/>
    </defs>
    <g clip-path="url(#pe89648d476)">
     <use xlink:href="#m91c7143a48" x="0" y="280.512" style="fill: #f5f5f5; stroke: #000000"/>
    </g>
   </g>
  </g>
 </g>
 <defs>
  <clipPath id="pe89648d476">
   <rect x="7.2" y="7.2" width="184.376049" height="266.112"/>
  </clipPath>
 </defs>
</svg>
