<?xml version="1.0" encoding="utf-8" standalone="no"?>
<!DOCTYPE svg PUBLIC "-//W3C//DTD SVG 1.1//EN"
  "http://www.w3.org/Graphics/SVG/1.1/DTD/svg11.dtd">
<svg xmlns:xlink="http://www.w3.org/1999/xlink" width="148.747449pt" height="280.512pt" viewBox="0 0 148.747449 280.512" xmlns="http://www.w3.org/2000/svg" version="1.1">
 <metadata>
  <rdf:RDF xmlns:dc="http://purl.org/dc/elements/1.1/" xmlns:cc="http://creativecommons.org/ns#" xmlns:rdf="http://www.w3.org/1999/02/22-rdf-syntax-ns#">
   <cc:Work>
    <dc:type rdf:resource="http://purl.org/dc/dcmitype/StillImage"/>
    <dc:date>2024-03-04T13:11:11.742247</dc:date>
    <dc:format>image/svg+xml</dc:format>
    <dc:creator>
     <cc:Agent>
      <dc:title>Matplotlib v3.8.0, https://matplotlib.org/</dc:title>
     </cc:Agent>
    </dc:creator>
   </cc:Work>
  </rdf:RDF>
 </metadata>
 <defs>
  <style type="text/css">*{stroke-linejoin: round; stroke-linecap: butt}</style>
 </defs>
 <g id="figure_1">
  <g id="patch_1">
   <path d="M -0 280.512 
L 148.747449 280.512 
L 148.747449 0 
L -0 0 
z
" style="fill: #ffffff"/>
  </g>
  <g id="axes_1">
   <g id="PatchCollection_1">
    <path d="M 30.614793 168.690885 
L 30.557459 168.12138 
L 30.724001 167.476902 
L 31.948495 165.033076 
L 32.308881 164.475106 
L 33.309498 163.501901 
L 33.705377 163.00881 
L 34.020715 162.446514 
L 34.291004 161.784735 
L 34.377006 161.242623 
L 34.382466 160.482803 
L 34.256877 159.893113 
L 33.947 159.849859 
L 33.799569 159.356769 
L 33.719028 159.232775 
L 33.598899 159.163569 
L 33.358642 159.150593 
L 33.249434 159.111665 
L 33.022827 158.912699 
L 32.800316 158.63876 
L 32.629679 158.328776 
L 32.562789 158.024559 
L 32.628314 157.785223 
L 32.949112 157.17679 
L 33.078797 156.989357 
L 33.213941 156.738487 
L 33.268545 156.442921 
L 33.249434 155.835929 
L 33.211211 155.655706 
L 33.151147 155.495668 
L 33.111559 155.326979 
L 33.134766 155.120804 
L 33.213941 155.040064 
L 33.506073 154.855516 
L 33.60436 154.747382 
L 33.688996 154.414329 
L 33.729949 154.141832 
L 33.863728 153.955842 
L 34.23367 153.88952 
L 34.456181 153.580978 
L 34.389292 152.886037 
L 34.052112 151.710982 
L 33.800934 151.147244 
L 33.480136 150.622435 
L 32.684283 149.849638 
L 32.562789 149.643463 
L 32.43174 149.062423 
L 32.112306 148.484267 
L 30.565649 146.460001 
L 30.273518 145.884729 
L 30.15885 145.279179 
L 30.273518 144.245419 
L 30.500124 143.693216 
L 30.500124 142.60611 
L 30.486473 142.562856 
L 30.415488 142.433095 
L 30.396377 142.36389 
L 30.426409 142.24278 
L 30.568379 142.100043 
L 30.614793 142.003444 
L 30.71854 141.563699 
L 30.729461 141.390685 
L 30.658476 140.837039 
L 30.257137 139.60143 
L 29.459919 137.415683 
L 28.261362 135.734562 
L 27.174743 134.151482 
L 27.042329 133.626672 
L 27.043694 130.10295 
L 26.385716 126.659967 
L 26.358414 125.495004 
L 26.85531 123.297724 
L 26.939946 122.510509 
L 26.84985 122.246663 
L 26.448511 121.866031 
L 26.215079 121.05719 
L 25.154397 119.537549 
L 25.060205 119.11078 
L 25.06703 118.560018 
L 25.211731 117.470029 
L 25.387829 116.952428 
L 26.243746 115.533711 
L 26.544067 114.796959 
L 26.64918 114.746497 
L 26.847119 114.848864 
L 26.953597 114.716219 
L 27.107853 114.202944 
L 28.385586 112.184445 
L 28.659971 111.898971 
L 28.78283 111.640892 
L 28.834704 111.390021 
L 28.886577 110.550902 
L 29.356171 110.563878 
L 29.765701 109.886239 
L 30.334947 108.363714 
L 30.450981 108.179166 
L 30.908289 107.69761 
L 30.998386 107.549106 
L 31.136261 107.146848 
L 31.256389 106.968066 
L 31.529409 106.650874 
L 31.731444 106.319263 
L 32.053607 105.581069 
L 32.493169 104.923615 
L 33.078797 104.269045 
L 33.566137 103.569779 
L 33.719028 102.775355 
L 33.626201 102.432211 
L 33.323149 101.676715 
L 33.249434 101.313385 
L 33.33407 100.886617 
L 33.529279 100.687651 
L 33.702647 100.774158 
L 33.719028 101.206693 
L 33.983857 100.745322 
L 34.114907 100.256557 
L 34.106716 99.762025 
L 33.947 99.270376 
L 33.316324 98.301496 
L 33.062415 97.766594 
L 33.021462 97.192764 
L 33.095178 96.969287 
L 33.226227 96.716975 
L 33.383214 96.476196 
L 33.541565 96.294532 
L 33.656233 96.104216 
L 33.697186 95.869205 
L 33.74633 94.87149 
L 33.800934 94.62927 
L 33.937444 94.469232 
L 34.215924 94.389933 
L 34.77425 94.38705 
L 35.348956 94.289008 
L 39.007422 94.650897 
L 39.460634 94.542763 
L 39.66813 94.557181 
L 40.074929 94.901767 
L 40.368425 95.070456 
L 40.671477 95.15408 
L 40.907639 95.074781 
L 41.065991 94.867164 
L 41.169738 94.695592 
L 41.293962 94.54853 
L 41.527394 94.408677 
L 41.759461 94.343796 
L 42.242706 94.26594 
L 42.463852 94.166457 
L 42.327342 94.045347 
L 43.304753 93.571 
L 43.790729 93.253807 
L 44.119717 92.825597 
L 44.691694 91.849508 
L 45.068461 91.367952 
L 45.442498 91.000297 
L 45.897076 90.727799 
L 46.929091 90.273637 
L 47.584339 89.813708 
L 47.703102 89.923283 
L 47.741325 90.179921 
L 47.765897 90.742217 
L 48.059393 91.726956 
L 48.075774 91.813464 
L 48.08533 91.977827 
L 48.075774 92.103262 
L 47.981583 92.462267 
L 47.959741 92.7636 
L 47.987043 92.994285 
L 48.112632 93.145673 
L 48.377461 93.199019 
L 48.6341 93.112512 
L 48.800642 92.919313 
L 48.942612 92.691511 
L 49.122805 92.522822 
L 49.693417 92.302229 
L 49.930944 92.13354 
L 50.042882 91.856717 
L 50.000564 91.702446 
L 49.671575 91.575569 
L 49.472271 91.363627 
L 49.335761 91.065177 
L 49.32757 90.840259 
L 49.480461 90.697522 
L 52.220215 90.394747 
L 52.336248 90.358702 
L 52.459107 90.299589 
L 52.678888 90.152527 
L 52.803112 90.647059 
L 52.931432 90.831608 
L 52.994226 90.874861 
L 53.018798 90.941184 
L 53.022893 91.192054 
L 52.841335 91.70533 
L 52.852256 91.884111 
L 53.145752 91.735607 
L 53.260421 92.080194 
L 53.383279 92.039824 
L 53.547091 91.735607 
L 53.375089 90.822957 
L 53.425598 90.626874 
L 53.693157 90.351493 
L 53.824206 90.152527 
L 53.80919 90.107832 
L 53.824206 89.659437 
L 53.858334 89.503724 
L 53.915668 89.372521 
L 53.956621 89.23411 
L 53.94843 89.053887 
L 53.817381 88.828968 
L 53.637188 88.674697 
L 53.540266 88.517543 
L 53.66176 88.273881 
L 54.202339 87.685633 
L 54.755204 87.319419 
L 54.929937 87.307885 
L 55.208417 87.420344 
L 55.459595 87.486667 
L 55.716234 87.486667 
L 55.963317 87.515502 
L 56.569421 87.911993 
L 56.946188 87.855764 
L 57.968647 87.245888 
L 58.178872 87.168032 
L 58.405479 87.123337 
L 58.664848 87.107477 
L 59.027964 87.160823 
L 59.153553 87.316536 
L 59.123521 87.903342 
L 59.137172 88.181607 
L 59.198601 88.325785 
L 59.336476 88.392108 
L 59.579464 88.448337 
L 59.721434 88.461313 
L 60.013565 88.438245 
L 60.155536 88.448337 
L 60.611479 88.70065 
L 60.999167 88.715067 
L 60.999167 88.605492 
L 60.835355 88.387782 
L 60.726147 88.085007 
L 60.797132 87.894692 
L 60.950023 87.740421 
L 61.078343 87.548663 
L 61.081073 87.238679 
L 60.677004 87.452064 
L 60.283855 87.763489 
L 60.057249 87.873065 
L 60.155536 87.480899 
L 60.398523 87.0772 
L 60.745258 86.709544 
L 61.139772 86.393793 
L 61.526095 86.14869 
L 61.908323 85.991535 
L 62.309662 85.912237 
L 63.142372 85.909354 
L 63.564188 85.965583 
L 63.759397 86.036231 
L 63.841303 86.155899 
L 63.842668 86.363516 
L 63.865875 86.549506 
L 63.932765 86.719637 
L 64.06791 86.87535 
L 63.874065 87.195426 
L 63.79489 87.478016 
L 63.678856 87.730328 
L 63.368979 87.963897 
L 63.734825 88.270998 
L 64.002385 88.54782 
L 64.21534 88.872222 
L 64.805063 90.110715 
L 65.075353 90.445209 
L 65.443929 90.758077 
L 65.460311 90.585063 
L 65.448025 90.358702 
L 65.463041 90.148202 
L 65.558598 90.031417 
L 65.693742 90.074671 
L 65.882126 90.412048 
L 66.014541 90.515857 
L 66.347625 90.438001 
L 66.48823 90.1309 
L 66.475944 89.745944 
L 66.358546 89.427309 
L 66.800838 89.384056 
L 67.123001 89.70269 
L 67.413767 90.125133 
L 67.753677 90.394747 
L 67.92841 90.256336 
L 67.745486 89.787756 
L 67.344147 89.053887 
L 67.012428 88.902499 
L 66.317593 88.236395 
L 65.899872 88.085007 
L 65.359293 88.118168 
L 65.211863 88.085007 
L 64.90608 87.896133 
L 64.936113 87.777907 
L 65.135417 87.662564 
L 65.337452 87.480899 
L 65.782474 86.768658 
L 65.856189 86.422629 
L 65.673266 86.14869 
L 65.488978 86.128505 
L 65.259641 86.160224 
L 65.067162 86.160224 
L 64.985256 86.02758 
L 65.03986 85.740665 
L 65.284213 85.256225 
L 65.471231 84.608864 
L 65.787934 84.268602 
L 66.536009 83.660169 
L 67.59396 82.440419 
L 67.983014 82.146295 
L 68.011681 82.237127 
L 68.048538 82.310658 
L 68.07857 82.39284 
L 68.086761 82.509624 
L 68.27378 82.401491 
L 68.728358 81.960304 
L 69.440939 81.428286 
L 69.640244 81.235086 
L 70.034757 80.961147 
L 70.481145 80.91501 
L 70.923437 80.922219 
L 71.304299 80.805435 
L 71.083153 80.652605 
L 70.563051 80.505543 
L 70.501621 80.333971 
L 70.681814 80.142213 
L 71.648304 79.899994 
L 73.37652 78.616805 
L 74.641967 77.431657 
L 75.350453 77.219715 
L 75.817317 76.960194 
L 76.078051 76.901081 
L 76.185894 76.960194 
L 76.236402 77.097163 
L 76.258244 77.261527 
L 76.255514 77.728665 
L 76.282816 77.825265 
L 76.48758 78.265009 
L 76.619995 78.443791 
L 76.800188 78.595178 
L 77.062287 78.749449 
L 77.635629 78.991669 
L 77.918204 79.184868 
L 77.920934 79.404019 
L 77.754392 79.634705 
L 77.500484 80.084542 
L 77.291624 80.266207 
L 77.03089 80.442105 
L 76.858887 80.628095 
L 76.112178 82.16648 
L 75.911509 82.763379 
L 75.964748 83.181496 
L 76.144941 83.221866 
L 76.269165 82.973879 
L 76.422056 82.391398 
L 76.61863 82.209733 
L 76.924412 82.107366 
L 77.52096 82.016534 
L 78.090207 81.797383 
L 78.619865 81.509026 
L 79.141333 81.354755 
L 79.684642 81.543628 
L 80.293477 81.307176 
L 80.558306 81.121185 
L 80.61291 80.805435 
L 80.547385 80.70451 
L 80.438177 80.678557 
L 80.301667 80.667023 
L 80.154236 80.62377 
L 80.010901 80.534379 
L 79.949472 80.455081 
L 79.668261 79.920179 
L 79.436194 78.795586 
L 79.441655 78.683127 
L 79.387051 78.629781 
L 79.17546 78.616805 
L 79.026665 78.647082 
L 78.540689 78.870559 
L 78.494276 78.645641 
L 78.516118 78.443791 
L 78.675834 78.014139 
L 78.447863 78.045858 
L 78.264939 78.040091 
L 78.13935 77.956467 
L 78.035603 77.596021 
L 77.750297 77.427332 
L 77.635629 77.275945 
L 77.602866 76.875128 
L 77.750297 76.493055 
L 78.207605 75.835601 
L 78.765931 75.326651 
L 79.488068 74.839328 
L 80.116014 74.271265 
L 80.47913 73.223087 
L 80.713927 72.907336 
L 81.558923 72.088402 
L 81.911119 71.877901 
L 82.289251 71.745257 
L 82.68513 71.700562 
L 82.902181 71.505921 
L 82.952689 71.09357 
L 82.843482 70.727357 
L 82.570462 70.672569 
L 82.386173 70.831165 
L 82.287886 71.116639 
L 82.100868 71.217564 
L 81.841499 71.233423 
L 81.683147 71.13394 
L 81.423779 70.733124 
L 81.527526 70.733124 
L 82.032613 69.905539 
L 84.126675 67.626077 
L 84.361472 67.448738 
L 84.47068 67.517943 
L 84.536204 67.714026 
L 84.642682 67.928852 
L 84.986687 68.335435 
L 85.008529 68.521426 
L 84.934813 69.60709 
L 84.997608 69.875262 
L 85.068593 69.944468 
L 85.179166 69.983396 
L 85.285644 70.064136 
L 85.338883 70.248684 
L 85.295199 70.297705 
L 85.109546 70.733124 
L 84.145786 71.889436 
L 83.891878 72.306112 
L 83.72124 72.835247 
L 83.549238 75.000808 
L 83.605207 75.214192 
L 83.840004 75.351162 
L 84.039308 75.307908 
L 84.589443 74.996482 
L 84.75735 74.866722 
L 85.060402 74.383724 
L 85.218754 73.889192 
L 85.43717 73.422053 
L 85.912224 73.031329 
L 86.100608 73.179833 
L 86.157942 73.016912 
L 86.141561 72.558424 
L 86.235753 72.262858 
L 87.435675 69.908423 
L 87.525771 69.392264 
L 87.599487 69.173113 
L 88.145526 68.599282 
L 88.193305 68.45222 
L 88.19194 68.132144 
L 88.254734 67.996616 
L 88.383053 67.894249 
L 88.669724 67.751513 
L 88.765281 67.686632 
L 89.143414 67.236795 
L 89.29494 66.975832 
L 89.357734 66.730729 
L 89.475133 66.459673 
L 89.723581 66.315495 
L 89.961108 66.138155 
L 90.036188 65.761849 
L 90.74877 66.786958 
L 91.076394 67.081082 
L 91.296175 67.171915 
L 91.821738 67.321861 
L 92.003296 67.457388 
L 92.090662 67.669331 
L 92.071551 68.08024 
L 92.108409 68.302274 
L 92.352761 68.019685 
L 92.370508 67.626077 
L 92.232633 67.267073 
L 92.003296 67.081082 
L 92.468795 66.699009 
L 92.912452 66.750914 
L 93.246901 67.122894 
L 93.376586 67.693841 
L 93.352014 68.897732 
L 93.443475 69.233668 
L 93.721956 68.786714 
L 93.816148 68.26623 
L 93.810687 67.538128 
L 93.657796 66.890767 
L 93.320617 66.609619 
L 93.095375 66.531762 
L 92.88515 66.345772 
L 92.513843 65.939189 
L 92.198505 65.764733 
L 91.945962 65.805103 
L 91.420399 66.125179 
L 91.203348 66.216011 
L 90.986297 66.260707 
L 90.755595 66.205919 
L 90.503052 65.992535 
L 90.367907 65.744548 
L 90.26416 65.48791 
L 90.149492 65.394194 
L 89.675802 66.067508 
L 89.462847 66.276566 
L 89.29494 66.367399 
L 89.192557 66.228988 
L 88.844457 65.588835 
L 88.765281 65.389869 
L 88.799409 65.317779 
L 88.970046 65.141882 
L 89.004173 65.026539 
L 88.971411 64.856408 
L 88.907251 64.755483 
L 88.832171 64.67186 
L 88.546865 64.057659 
L 88.553691 63.950967 
L 88.623311 63.893296 
L 88.653343 63.841391 
L 88.463594 63.690004 
L 88.432197 63.636658 
L 88.459499 62.872512 
L 88.565977 62.275613 
L 88.774837 61.717642 
L 89.118842 61.266363 
L 89.518816 61.016934 
L 89.64304 60.871314 
L 89.690818 60.588724 
L 89.71266 60.061031 
L 89.78228 59.870715 
L 89.931076 59.683283 
L 90.326954 59.554964 
L 91.107791 60.136004 
L 91.653831 60.104285 
L 91.877707 60.04373 
L 92.210791 60.091308 
L 92.345936 60.04373 
L 92.492001 59.847647 
L 92.598479 59.55929 
L 92.665369 59.253631 
L 92.689941 59.00997 
L 92.628511 58.604828 
L 92.461969 58.117505 
L 92.206696 57.695062 
L 91.879072 57.494654 
L 92.098853 57.252434 
L 92.459239 57.356242 
L 93.148614 57.868076 
L 93.283759 57.941607 
L 93.428459 57.999278 
L 93.564969 58.077135 
L 93.668717 58.21843 
L 93.690558 58.449115 
L 93.582716 58.619246 
L 93.443475 58.785051 
L 93.376586 59.00997 
L 93.321982 59.461248 
L 93.078994 60.376782 
L 93.02439 60.83527 
L 93.02166 60.995308 
L 93.046232 61.27213 
L 93.149979 61.492724 
L 93.376586 61.497049 
L 93.488524 61.354312 
L 93.496714 61.153904 
L 93.474873 60.946287 
L 93.491254 60.781924 
L 93.622303 60.672348 
L 93.837989 60.532495 
L 94.008626 60.376782 
L 94.008626 60.225394 
L 93.876212 60.066798 
L 93.746527 59.864948 
L 93.64824 59.645797 
L 93.615478 59.441063 
L 93.736972 59.051781 
L 94.190185 58.414512 
L 94.293932 58.036765 
L 94.293932 57.625856 
L 94.247519 57.217831 
L 94.098723 56.903522 
L 93.43392 56.669953 
L 93.062613 56.40178 
L 92.451048 55.800556 
L 93.726051 55.115708 
L 93.726051 54.892232 
L 92.919277 54.348679 
L 92.243553 54.068972 
L 92.05517 53.914701 
L 91.615608 53.06549 
L 91.356239 51.906295 
L 91.490019 50.91723 
L 92.223077 50.576969 
L 92.044249 50.30303 
L 91.838119 50.202105 
L 91.681133 50.040625 
L 91.64837 49.597997 
L 91.700244 49.226016 
L 91.834024 48.698323 
L 92.06063 48.333551 
L 92.399175 48.448894 
L 92.650353 48.469079 
L 92.788228 48.030776 
L 92.861943 47.237795 
L 93.005279 47.102267 
L 93.185472 46.989808 
L 93.36157 46.989808 
L 93.491254 47.17724 
L 93.420269 47.288257 
L 93.250997 47.435319 
L 93.147249 47.634285 
L 93.263282 47.903899 
L 93.357474 47.850553 
L 93.521286 47.81595 
L 93.615478 47.782789 
L 93.525381 47.997615 
L 93.562239 48.19514 
L 93.696019 48.290298 
L 93.893958 48.200907 
L 93.959483 48.053845 
L 93.963578 47.898132 
L 94.031833 47.755395 
L 94.293932 47.651587 
L 93.98542 47.305558 
L 93.963578 47.174356 
L 94.586063 47.17724 
L 94.842702 47.37909 
L 94.958735 47.83181 
L 95.020165 48.319133 
L 95.106166 48.630559 
L 95.571665 48.411408 
L 95.828303 48.559911 
L 95.956623 48.923241 
L 96.031703 49.355777 
L 96.322469 50.158851 
L 96.366153 50.455859 
L 96.366153 50.576969 
L 96.379803 50.696637 
L 96.431677 50.791795 
L 96.693776 50.891278 
L 96.654188 51.026806 
L 96.480821 51.241632 
L 96.666474 51.597753 
L 97.104671 51.933689 
L 97.602932 52.184559 
L 97.974239 52.279717 
L 98.449294 52.154282 
L 98.931174 51.82988 
L 99.161875 51.397345 
L 98.883395 50.938857 
L 99.000794 50.663476 
L 99.008984 49.729199 
L 99.103176 49.442284 
L 99.410323 48.871337 
L 99.470388 48.630559 
L 99.104541 48.006266 
L 99.030826 47.690515 
L 99.355719 47.540569 
L 99.549563 47.641494 
L 100.040999 48.388339 
L 100.127 48.059612 
L 100.273066 47.742419 
L 100.445068 47.477131 
L 100.61161 47.29835 
L 100.827296 47.21761 
L 101.142634 47.162822 
L 101.452511 47.148404 
L 101.654546 47.17724 
L 101.650451 47.089291 
L 101.660007 46.906184 
L 101.654546 46.816793 
L 102.042234 47.167147 
L 102.240174 47.278165 
L 102.39989 47.237795 
L 102.363033 47.082082 
L 102.069536 46.462114 
L 101.937122 45.969024 
L 101.64226 45.568207 
L 101.528957 45.366358 
L 101.478448 45.127021 
L 101.468893 44.881918 
L 101.528957 44.397478 
L 101.791056 44.459475 
L 101.943947 44.622396 
L 102.061346 44.822805 
L 102.227888 45.003028 
L 102.236078 45.291385 
L 102.543226 45.504769 
L 103.431905 45.868099 
L 103.587526 45.904143 
L 103.755434 45.878191 
L 103.956103 45.783033 
L 104.164963 45.731129 
L 104.376554 45.765732 
L 104.574493 45.826287 
L 104.756051 45.847914 
L 105.364885 45.670574 
L 105.97645 45.302919 
L 106.525219 44.812712 
L 106.94294 44.264834 
L 106.650809 43.913038 
L 106.891066 43.408413 
L 107.516281 42.625524 
L 107.461677 42.407815 
L 107.21596 41.995464 
L 107.162721 41.718641 
L 107.172276 41.13616 
L 107.210499 40.839152 
L 107.588632 39.443505 
L 107.811143 38.950414 
L 108.276641 38.304494 
L 108.406326 38.030555 
L 108.505978 37.745082 
L 108.546931 37.523047 
L 108.628837 37.322639 
L 108.825411 37.058792 
L 109.053383 36.83099 
L 109.234941 36.743041 
L 109.161226 36.294646 
L 109.42742 35.149869 
L 109.464278 34.675521 
L 109.367356 34.449161 
L 109.030176 34.033927 
L 108.890936 33.819101 
L 108.783093 33.575439 
L 108.717568 33.376473 
L 108.630202 32.582049 
L 108.567408 32.384525 
L 108.317594 32.002452 
L 108.212482 31.934688 
L 108.12102 31.96064 
L 108.037749 31.946222 
L 107.964034 31.761674 
L 107.969494 31.582892 
L 108.0514 31.479084 
L 108.145592 31.392577 
L 108.202926 31.267141 
L 108.19064 31.120079 
L 108.095083 30.903812 
L 108.088258 30.782702 
L 108.276641 30.348724 
L 108.317594 30.298262 
L 108.19064 30.086319 
L 107.998161 30.064693 
L 107.761999 30.15985 
L 107.516281 30.298262 
L 107.508091 29.777777 
L 107.359295 29.48077 
L 106.818716 28.967494 
L 106.557982 28.246602 
L 106.417377 28.005824 
L 106.369598 28.351852 
L 105.684318 28.001498 
L 105.886353 27.831368 
L 106.181214 27.34837 
L 106.369598 27.329626 
L 106.571633 27.427668 
L 106.751826 27.482456 
L 107.169546 27.505524 
L 107.742888 27.625192 
L 108.097814 27.943827 
L 108.604265 28.957402 
L 108.788554 29.06121 
L 109.050653 28.979029 
L 109.304561 28.797364 
L 109.464278 28.607048 
L 109.533898 28.34176 
L 109.578946 27.395949 
L 109.615804 27.29214 
L 109.806918 26.911509 
L 109.808283 26.820676 
L 109.776885 26.569806 
L 109.806918 26.427069 
L 109.955713 26.20215 
L 110.170034 26.029136 
L 110.407561 25.964256 
L 110.619151 26.066623 
L 110.729724 25.74943 
L 110.904457 25.599484 
L 111.109222 25.46684 
L 111.307161 25.207319 
L 111.554244 25.524511 
L 111.77266 25.282292 
L 111.986981 24.848314 
L 112.223143 24.593118 
L 112.498893 24.832455 
L 112.750071 24.737297 
L 112.941185 24.44894 
L 113.035377 24.120213 
L 113.0149 23.983243 
L 112.957566 23.854924 
L 112.908422 23.710746 
L 112.920708 23.514663 
L 113.01217 23.317139 
L 113.140489 23.206121 
L 113.274269 23.125381 
L 113.387572 23.018689 
L 113.552749 22.988412 
L 113.593702 22.893254 
L 113.492685 22.658243 
L 113.347984 22.485229 
L 113.236046 22.456393 
L 113.109092 22.467927 
L 112.920708 22.413139 
L 112.837437 22.338166 
L 112.781468 22.234358 
L 112.709118 22.127666 
L 112.576703 22.041159 
L 112.392415 22.009439 
L 111.774025 22.041159 
L 111.999267 21.716757 
L 112.673625 21.491839 
L 112.920708 21.193389 
L 113.174617 21.377938 
L 113.722022 22.173803 
L 113.83669 22.041159 
L 113.960914 22.173803 
L 113.97866 21.830658 
L 113.850341 21.447143 
L 113.601893 21.147252 
L 113.264713 21.072279 
L 113.330238 20.893498 
L 113.435351 20.772388 
L 113.543194 20.67723 
L 113.616909 20.590723 
L 113.787546 20.512867 
L 113.83669 20.466729 
L 113.814848 20.4105 
L 113.757514 20.302366 
L 113.727482 20.175489 
L 113.779356 20.045728 
L 114.281712 19.474781 
L 114.575208 19.296 
L 114.87826 19.368089 
L 115.050263 19.494966 
L 115.513031 20.045728 
L 115.62497 20.296599 
L 115.6277 20.806991 
L 115.739638 21.017491 
L 116.069992 21.467328 
L 116.113675 21.898422 
L 116.067262 22.35691 
L 116.135517 22.886045 
L 116.434473 23.542057 
L 116.471331 23.805904 
L 116.373044 23.814554 
L 115.739638 23.079244 
L 115.584017 23.047525 
L 115.459793 23.200354 
L 115.345124 23.403646 
L 115.2209 23.514663 
L 114.992929 23.45555 
L 114.804545 23.266676 
L 114.680321 23.015805 
L 114.639368 22.779353 
L 114.46054 22.867302 
L 114.328125 23.007155 
L 114.239394 23.180169 
L 114.19025 23.382019 
L 114.39365 23.488711 
L 114.345872 23.69777 
L 114.066026 24.229789 
L 114.319935 24.224021 
L 114.665305 24.277367 
L 114.972452 24.385501 
L 115.107597 24.536889 
L 115.050263 24.653673 
L 114.80864 24.867057 
L 114.763592 24.965099 
L 114.792259 25.117928 
L 114.849593 25.279408 
L 114.935595 25.341405 
L 115.050263 25.207319 
L 115.229091 24.890126 
L 115.365601 24.815153 
L 115.500746 24.939147 
L 115.679574 25.207319 
L 115.656367 25.298151 
L 115.582651 25.419261 
L 115.573096 25.524511 
L 115.739638 25.570649 
L 116.074087 25.583625 
L 116.236534 25.553347 
L 116.367583 25.461073 
L 116.46314 25.155415 
L 116.225613 24.656557 
L 116.304789 24.420104 
L 116.610571 24.242765 
L 116.801685 24.365316 
L 117.28766 25.155415 
L 117.335439 25.360148 
L 117.343629 25.566323 
L 117.396868 25.812869 
L 117.556585 26.086808 
L 117.728587 26.284332 
L 117.852811 26.522227 
L 117.866462 26.911509 
L 117.9784 26.680823 
L 118.123101 26.530877 
L 118.306024 26.450138 
L 118.543551 26.427069 
L 118.79746 26.473206 
L 118.901207 26.571247 
L 118.972192 26.706775 
L 119.261593 26.995132 
L 119.358515 27.217167 
L 119.368071 27.417575 
L 119.239752 27.505524 
L 119.00632 27.447853 
L 118.80292 27.352695 
L 118.617267 27.335394 
L 118.439804 27.505524 
L 118.849333 27.85732 
L 119.065019 28.137026 
L 119.256133 28.162978 
L 119.583757 27.747744 
L 120.050621 28.83485 
L 120.157098 29.209714 
L 120.193956 29.679736 
L 120.151638 29.90898 
L 119.989191 29.875819 
L 119.854046 29.679736 
L 119.804903 29.459143 
L 119.810363 28.967494 
L 119.709346 29.44905 
L 119.957794 30.4583 
L 119.867697 30.850466 
L 119.735283 31.035014 
L 119.661567 31.222446 
L 119.649281 31.418529 
L 119.698425 31.630471 
L 119.854046 31.928921 
L 119.97281 31.908736 
L 120.099764 31.784742 
L 120.282687 31.761674 
L 120.533866 31.934688 
L 120.873775 32.246113 
L 121.172732 32.603676 
L 121.301051 32.910776 
L 121.339274 33.137137 
L 121.504451 33.516326 
L 121.541309 33.708084 
L 121.497626 33.935886 
L 121.28194 34.325168 
L 121.197304 34.554411 
L 121.347465 34.47223 
L 121.49626 34.44051 
L 121.636866 34.463579 
L 121.767915 34.554411 
L 121.868933 34.356887 
L 121.979506 34.206941 
L 122.073697 34.045461 
L 122.159699 33.558138 
L 122.282558 33.403867 
L 122.466846 33.370706 
L 122.696183 33.465864 
L 122.617007 33.641761 
L 122.570593 33.708084 
L 122.798565 33.768639 
L 123.023806 33.883981 
L 123.224476 34.033927 
L 123.642196 34.437627 
L 123.715912 34.554411 
L 123.642196 35.002807 
L 123.665403 35.164286 
L 123.879723 35.634308 
L 124.03671 35.818857 
L 124.2483 35.895271 
L 124.479002 35.879412 
L 124.711069 35.89383 
L 124.870785 36.033683 
L 124.883071 36.389804 
L 124.764308 36.484962 
L 124.577289 36.539749 
L 124.514494 36.672394 
L 124.757482 36.985261 
L 124.984088 37.115022 
L 125.210695 37.191436 
L 125.385428 37.344265 
L 125.453683 37.704712 
L 125.542414 37.961349 
L 125.928737 38.43858 
L 126.017468 38.611595 
L 126.050231 39.561731 
L 125.9028 40.989098 
L 125.919181 41.258712 
L 125.999722 41.617716 
L 126.017468 41.900306 
L 126.081628 42.123783 
L 126.537571 42.814398 
L 126.589445 43.12294 
L 126.529381 43.881319 
L 126.600366 44.143724 
L 126.828337 44.282135 
L 127.031737 44.218697 
L 127.21739 44.120655 
L 127.392123 44.143724 
L 127.539554 44.39892 
L 127.520442 44.708904 
L 127.392123 45.302919 
L 127.426251 45.778708 
L 127.667873 46.816793 
L 127.860352 47.29835 
L 127.934067 47.393507 
L 128.134737 47.556429 
L 128.204357 47.651587 
L 128.227564 47.789998 
L 128.197532 48.110075 
L 128.204357 48.257137 
L 128.269882 48.624792 
L 128.319025 48.750227 
L 128.361343 48.817991 
L 128.417313 48.855477 
L 128.482837 48.878546 
L 128.552457 48.884313 
L 128.653475 48.910265 
L 128.669856 48.982355 
L 128.667126 49.078954 
L 128.720365 49.181321 
L 128.757222 49.380287 
L 128.622077 49.982953 
L 128.720365 50.268427 
L 128.847319 50.467393 
L 129.235007 51.302187 
L 129.385168 51.88611 
L 129.562631 55.418483 
L 129.898445 56.734833 
L 129.944858 57.245225 
L 129.928477 57.875285 
L 129.772856 58.369817 
L 129.726443 58.688452 
L 129.703236 59.312745 
L 129.742824 59.6804 
L 129.857492 59.888017 
L 130.276577 60.285949 
L 130.559153 60.816526 
L 130.571439 61.324035 
L 130.362579 62.68508 
L 130.201497 63.232958 
L 130.161909 63.508339 
L 130.190576 63.818323 
L 130.400801 64.663209 
L 130.52366 66.62692 
L 130.980969 67.591474 
L 131.028747 68.235952 
L 130.884046 68.806899 
L 130.505914 69.027492 
L 130.66017 69.24376 
L 131.107923 69.478771 
L 131.307227 69.633042 
L 131.438277 69.862286 
L 131.54612 70.173711 
L 131.746789 71.304071 
L 132.946711 74.031928 
L 133.253858 74.516368 
L 134.067457 75.537152 
L 134.23673 75.822625 
L 134.37597 76.422408 
L 134.553433 76.606956 
L 134.773214 76.736717 
L 134.982074 76.901081 
L 135.207315 77.333616 
L 135.346555 77.91033 
L 135.440747 79.046457 
L 135.424366 79.153149 
L 135.326079 79.434297 
L 135.166362 79.709678 
L 135.159537 79.83223 
L 135.197759 79.957665 
L 135.222331 80.135004 
L 135.20049 80.26044 
L 135.039408 80.684325 
L 135.006646 80.861664 
L 135.039408 81.03612 
L 135.084456 81.190391 
L 135.096742 81.301409 
L 135.025757 81.43982 
L 134.822357 81.65753 
L 134.752737 81.774314 
L 134.638069 82.391398 
L 134.339112 83.276654 
L 134.30635 83.603939 
L 134.198507 84.079728 
L 132.707819 86.973391 
L 132.576769 87.480899 
L 132.746042 87.583266 
L 132.636834 87.818277 
L 131.423261 89.427309 
L 131.039668 90.422141 
L 130.848554 90.647059 
L 130.578264 90.719149 
L 130.310705 90.68022 
L 130.055431 90.688871 
L 129.808348 90.889279 
L 129.469804 90.015558 
L 129.183133 89.732968 
L 128.777699 89.789197 
L 127.951814 89.053887 
L 127.640571 88.671814 
L 127.516347 88.145562 
L 127.435806 87.237238 
L 127.401679 87.107477 
L 127.201009 87.025295 
L 126.963482 86.832096 
L 126.745066 86.598527 
L 126.600366 86.402444 
L 126.488428 86.165991 
L 126.401061 85.886285 
L 126.353283 85.589277 
L 126.361473 85.303804 
L 126.452935 85.014005 
L 126.562143 84.778994 
L 126.582619 84.546867 
L 126.418808 84.277253 
L 126.31233 84.174886 
L 126.215408 84.12154 
L 126.107565 84.098472 
L 125.960134 84.092704 
L 125.882324 84.037917 
L 125.404539 83.394881 
L 125.362221 83.167078 
L 125.453683 82.6192 
L 125.461873 82.307775 
L 125.329459 81.410984 
L 125.352665 81.304292 
L 125.41273 81.200484 
L 125.434571 81.079374 
L 125.329459 80.926544 
L 125.247553 80.897709 
L 124.934945 80.86599 
L 124.495383 81.099559 
L 123.883819 81.168764 
L 122.79993 81.168764 
L 122.25389 81.35908 
L 121.879853 81.709434 
L 120.922919 83.093547 
L 120.9393 83.552035 
L 121.301051 84.56561 
L 121.320163 84.815039 
L 121.301051 85.061584 
L 121.126319 85.546024 
L 121.082635 85.546024 
L 121.193209 85.766617 
L 121.388418 85.956933 
L 121.574071 86.18906 
L 121.709216 86.783075 
L 121.946743 87.365557 
L 122.061411 88.259463 
L 122.229319 88.811667 
L 122.477767 89.287456 
L 122.52145 89.490748 
L 122.466846 89.789197 
L 122.343987 90.087647 
L 121.832075 91.010389 
L 121.680549 91.520781 
L 121.672358 92.111913 
L 121.784296 92.700161 
L 121.999982 93.199019 
L 122.438179 93.631554 
L 123.531623 94.032371 
L 124.014868 94.348122 
L 124.399826 94.919069 
L 124.469446 95.428019 
L 124.113155 97.086072 
L 124.084488 97.775245 
L 124.17595 98.389445 
L 124.477637 98.654734 
L 124.649639 98.768635 
L 124.691957 99.036807 
L 124.626433 99.720213 
L 124.555447 99.975409 
L 124.539066 100.110937 
L 124.539066 100.722253 
L 124.462621 100.948614 
L 123.576671 102.518718 
L 123.092061 103.092548 
L 122.343987 103.706749 
L 122.374019 104.519915 
L 122.494148 104.893338 
L 122.749421 105.278294 
L 123.101617 105.611347 
L 123.463368 105.803104 
L 123.861977 105.869426 
L 124.30973 105.823289 
L 123.801913 106.113088 
L 123.269524 106.319263 
L 122.286653 106.469209 
L 121.868933 106.701336 
L 121.025301 106.779193 
L 120.689487 106.852724 
L 120.419197 107.045923 
L 120.206242 107.319862 
L 119.086861 109.616626 
L 118.306024 111.847067 
L 117.448742 113.907378 
L 117.2822 115.170382 
L 117.358645 115.437112 
L 117.866462 116.269022 
L 118.66914 120.624655 
L 118.761967 121.770874 
L 118.562663 122.994949 
L 117.974305 125.101397 
L 117.156611 127.783117 
L 117.134769 128.093101 
L 117.156611 128.39876 
L 117.224866 128.640979 
L 117.302676 128.769298 
L 117.489695 128.995659 
L 117.568871 129.125419 
L 117.607093 129.327269 
L 117.506076 129.428194 
L 117.335439 129.4974 
L 117.167531 129.608417 
L 116.656984 130.590273 
L 116.239264 134.106787 
L 116.121866 134.333147 
L 115.803798 134.736847 
L 115.679574 134.954556 
L 115.278234 136.164214 
L 114.292633 138.231734 
L 113.420335 141.521887 
L 112.116665 144.532335 
L 111.503736 145.47382 
L 109.97619 151.023251 
L 107.858921 156.441479 
L 107.286945 159.232775 
L 107.248722 159.645126 
L 107.256913 160.305463 
L 106.713603 161.905845 
L 106.607125 161.686693 
L 106.400995 161.398336 
L 106.179849 161.23974 
L 106.028323 161.421405 
L 106.097943 161.626138 
L 106.506108 162.191318 
L 106.598935 162.45949 
L 106.552521 162.687292 
L 105.168311 165.56942 
L 104.204551 168.147332 
L 103.77591 169.465124 
L 102.870849 172.252094 
L 101.195873 178.544044 
L 101.01841 178.829518 
L 100.794534 179.107782 
L 100.655294 179.375954 
L 100.726279 179.63115 
L 100.94606 179.406232 
L 101.070284 179.471112 
L 101.111237 179.706123 
L 101.081205 179.99448 
L 100.971997 180.256885 
L 100.674405 180.781695 
L 100.61161 181.088795 
L 100.554276 181.694345 
L 100.39729 182.295569 
L 99.789821 183.711402 
L 99.729757 183.953622 
L 99.696994 184.492849 
L 99.422609 186.011049 
L 99.176891 186.651202 
L 98.943459 187.090946 
L 96.824826 193.850035 
L 94.691176 198.740569 
L 92.557526 203.631104 
L 92.325459 204.79895 
L 91.772594 205.985539 
L 91.068203 210.67855 
L 90.744675 211.751238 
L 90.651848 213.423709 
L 90.083967 215.393187 
L 89.453291 217.129096 
L 89.045126 219.704124 
L 87.056177 225.641395 
L 86.862333 225.397734 
L 86.766776 225.194442 
L 86.671219 225.155514 
L 86.485566 225.399175 
L 86.309468 225.785574 
L 86.425501 225.889382 
L 86.701251 225.915334 
L 86.998843 226.063838 
L 87.067098 226.523768 
L 86.204355 230.283943 
L 85.292469 232.66433 
L 84.997608 233.184815 
L 84.880209 233.295832 
L 84.614015 233.464521 
L 84.528014 233.538052 
L 84.492521 233.538052 
L 84.317788 233.600049 
L 84.298677 233.602932 
L 84.188104 233.693765 
L 84.222232 233.745669 
L 84.294582 233.801899 
L 84.298677 233.89994 
L 84.294582 233.946077 
L 84.184009 234.394472 
L 83.891878 234.982721 
L 83.845464 235.105272 
L 82.884435 237.680301 
L 82.75475 237.794202 
L 82.55135 237.729321 
L 82.193694 237.564958 
L 82.111788 237.67165 
L 82.341125 238.640529 
L 81.902928 241.503915 
L 80.495511 244.948339 
L 80.076426 245.588492 
L 80.028647 245.852338 
L 80.039568 246.4031 
L 79.920805 246.682807 
L 79.060792 247.317192 
L 78.82736 247.863628 
L 78.970696 249.00408 
L 78.780947 249.44815 
L 78.608944 249.247742 
L 78.494276 249.012731 
L 78.438307 248.750326 
L 78.436942 248.47062 
L 78.289511 248.721491 
L 78.274495 248.97957 
L 78.314083 249.254951 
L 78.322274 249.559168 
L 78.251288 249.905196 
L 78.12843 250.050816 
L 77.635629 250.233923 
L 77.350323 250.408379 
L 76.877999 250.832264 
L 76.07259 251.775191 
L 75.907413 251.868907 
L 75.851444 251.792493 
L 75.678077 251.39456 
L 75.482868 251.367166 
L 75.433724 251.385909 
L 75.420073 251.437814 
L 74.439932 252.12122 
L 74.07272 252.45283 
L 73.892527 252.57394 
L 73.402457 252.758489 
L 73.211343 252.876715 
L 72.975181 253.193908 
L 72.803178 253.330877 
L 72.668033 253.322227 
L 72.501491 253.26023 
L 72.328124 253.261672 
L 72.164312 253.451987 
L 72.004595 253.564447 
L 70.855182 253.868663 
L 70.593083 253.860013 
L 70.034757 253.7043 
L 68.314733 253.47794 
L 66.374927 253.531286 
L 63.876796 254.122417 
L 60.556875 255.532483 
L 58.449162 256.58787 
L 56.102557 257.842223 
L 54.42212 259.370515 
L 54.102687 259.593992 
L 53.750491 259.732403 
L 53.375089 259.762681 
L 52.530093 260.532594 
L 51.372489 260.774814 
L 46.600102 260.97378 
L 46.343464 261.03001 
L 46.097746 261.141027 
L 45.843838 261.216 
L 45.557167 261.15977 
L 45.398815 260.960804 
L 45.240464 260.281723 
L 45.098493 259.993366 
L 44.586581 259.615619 
L 42.796936 258.971141 
L 42.29458 258.616462 
L 42.076164 258.374242 
L 41.867304 257.836456 
L 41.584729 257.587027 
L 40.343854 256.706096 
L 39.213552 256.181287 
L 38.550113 255.990971 
L 36.77685 255.744426 
L 35.013142 255.65071 
L 32.539582 255.160503 
L 32.23107 254.996139 
L 31.981257 254.312733 
L 31.436582 253.718718 
L 31.313723 253.330877 
L 31.638617 253.46208 
L 31.930748 253.71295 
L 32.448121 254.292548 
L 32.783935 254.524676 
L 33.066511 254.534768 
L 33.209846 254.341569 
L 33.134766 253.945078 
L 32.867206 253.99554 
L 32.63787 253.867222 
L 32.209228 253.451987 
L 31.932113 253.274648 
L 31.67684 253.166514 
L 31.40655 253.113168 
L 31.084387 253.09875 
L 30.494664 252.865181 
L 29.481761 251.79826 
L 28.886577 251.505578 
L 28.352824 251.509903 
L 28.163075 251.462324 
L 26.825278 250.592928 
L 26.632799 250.207971 
L 26.524956 248.815207 
L 26.358414 248.226958 
L 25.142111 246.617926 
L 24.971473 246.03977 
L 25.13392 244.453807 
L 24.971473 243.862675 
L 24.802201 243.562784 
L 24.084159 242.801521 
L 24.002253 242.738083 
L 23.917617 242.660226 
L 23.82752 242.521815 
L 23.781107 242.363218 
L 23.729233 241.999889 
L 23.655518 241.85571 
L 23.098558 241.385688 
L 21.932763 240.614333 
L 21.422216 240.090965 
L 20.854335 238.827961 
L 20.575855 236.177961 
L 20.799731 233.130027 
L 20.506234 231.414303 
L 20.538997 231.245614 
L 20.686428 230.918329 
L 20.726015 230.743873 
L 20.706904 230.540581 
L 20.506234 230.017213 
L 20.365629 229.31218 
L 20.256421 228.992104 
L 20.047561 228.676353 
L 20.286454 228.311581 
L 20.252326 227.057228 
L 20.330137 226.497816 
L 20.701444 226.151787 
L 21.829015 225.667347 
L 22.119782 225.278065 
L 22.088384 224.99115 
L 21.861778 224.528337 
L 21.890445 224.19961 
L 22.148449 223.960274 
L 22.224894 223.839164 
L 22.328642 223.542156 
L 22.336832 223.395094 
L 22.282228 223.22208 
L 22.102035 222.976976 
L 21.654283 222.612205 
L 21.333485 222.183995 
L 20.620903 221.51789 
L 20.506234 221.451568 
L 20.399757 221.435708 
L 20.286454 221.405431 
L 20.152674 221.287204 
L 20.111721 221.189163 
L 20.047561 220.79123 
L 19.871463 220.174146 
L 19.800478 218.585299 
L 19.579332 217.26174 
L 19.349996 216.522105 
L 18.892687 216.03334 
L 17.746004 215.205755 
L 17.564446 214.949117 
L 17.288696 214.392588 
L 17.049804 214.170553 
L 16.742656 213.948518 
L 16.166585 213.3199 
L 15.817119 212.783556 
L 15.626005 212.400041 
L 15.550925 212.160705 
L 15.460828 211.431162 
L 15.249238 210.949605 
L 15.161872 210.023979 
L 14.962567 209.52368 
L 14.862915 208.89362 
L 14.781009 208.740791 
L 14.553038 208.440899 
L 14.461576 208.282303 
L 14.346908 207.869953 
L 14.338717 207.454718 
L 14.404242 206.638668 
L 14.230874 205.006567 
L 13.996077 204.153031 
L 13.597468 203.348515 
L 13.593373 203.172617 
L 13.608389 202.992394 
L 13.602929 202.823705 
L 13.490991 202.386844 
L 13.306702 201.975935 
L 13.34902 201.603955 
L 13.708041 201.330015 
L 14.16535 201.288204 
L 14.51891 201.615489 
L 14.629483 201.338666 
L 14.600816 201.037333 
L 14.533926 200.724466 
L 14.51891 200.404389 
L 13.944203 200.395739 
L 13.714867 199.68638 
L 13.708041 198.083115 
L 13.744899 197.887033 
L 13.908711 197.533795 
L 13.945569 197.35213 
L 13.945569 196.929687 
L 13.974236 196.750906 
L 14.03976 196.667283 
L 14.117571 196.608169 
L 14.174905 196.51157 
L 14.207668 196.502919 
L 14.280018 196.476967 
L 14.356463 196.433713 
L 14.404242 196.378926 
L 14.280018 195.897369 
L 14.305955 195.660917 
L 14.37967 195.447532 
L 14.492973 195.245682 
L 14.634944 195.059692 
L 14.831518 195.314888 
L 14.85609 195.614779 
L 14.748247 196.257816 
L 15.090887 195.779143 
L 15.156411 194.948675 
L 15.129109 194.051884 
L 15.20692 193.365595 
L 15.393939 193.036868 
L 16.517415 191.701775 
L 16.805451 191.478298 
L 17.127614 191.435045 
L 17.496191 191.651312 
L 17.496191 186.923699 
L 17.623145 186.482513 
L 17.975341 185.665021 
L 18.080454 185.22816 
L 18.211503 185.530935 
L 18.345283 185.533818 
L 18.663351 185.22816 
L 19.122024 184.988823 
L 19.34317 184.665864 
L 19.41279 184.613959 
L 20.346518 184.635586 
L 20.974463 184.458247 
L 21.288436 184.536103 
L 21.586028 184.665864 
L 21.890445 184.735069 
L 22.308165 184.576473 
L 22.795506 184.1944 
L 23.20094 183.718611 
L 23.368847 183.277425 
L 23.454848 182.75694 
L 24.056857 181.096004 
L 24.690263 177.670322 
L 25.748215 175.622988 
L 26.10041 175.279843 
L 26.64918 175.145757 
L 26.952232 174.88191 
L 27.857293 173.199347 
L 28.066153 172.48278 
L 28.221774 171.643661 
L 28.452476 170.856446 
L 28.886577 170.284058 
L 28.889308 170.444096 
L 28.91661 170.55223 
L 29.001246 170.768497 
L 29.40941 169.803943 
L 29.642842 169.498285 
L 30.379996 168.925896 
L 30.614793 168.690885 
" clip-path="url(#p36707f3d3e)" style="fill: #f5f5f5; stroke: #000000"/>
    <path d="M 126.246805 104.975519 
L 126.308235 104.720323 
L 126.336902 104.442059 
L 126.394236 104.16812 
L 126.537571 103.937434 
L 126.742336 103.773071 
L 127.392123 103.392439 
L 127.321138 103.82065 
L 126.715034 105.099513 
L 126.272742 106.469209 
L 125.452317 108.293067 
L 124.854404 109.110559 
L 124.37935 110.157295 
L 124.072202 110.550902 
L 123.924772 110.067904 
L 124.010773 109.609417 
L 124.413477 108.725602 
L 124.485827 108.483382 
L 124.522685 108.254139 
L 124.539066 107.758165 
L 124.59367 107.45539 
L 124.73291 107.218937 
L 125.112408 106.779193 
L 126.246805 104.975519 
" clip-path="url(#p36707f3d3e)" style="fill: #f5f5f5; stroke: #000000"/>
    <path d="M 99.008984 44.397478 
L 99.131843 44.537331 
L 99.365275 44.697369 
L 99.561849 44.884801 
L 99.582326 45.10972 
L 99.470388 45.239481 
L 99.303846 45.317337 
L 99.119557 45.354823 
L 98.947555 45.366358 
L 98.865649 45.324546 
L 98.80968 45.238039 
L 98.779648 45.151532 
L 98.779648 45.10972 
L 98.67863 45.129905 
L 98.438373 45.242364 
L 97.829539 45.141439 
L 97.620679 45.043398 
L 97.395437 44.870384 
L 97.280769 44.870384 
L 97.280769 45.10972 
L 97.207053 45.106836 
L 97.162005 45.073675 
L 97.121052 45.031863 
L 97.062353 45.003028 
L 96.899906 44.789644 
L 96.789333 44.416221 
L 96.710157 43.659284 
L 96.775682 43.316139 
L 96.868509 43.013364 
L 96.858953 42.791329 
L 96.605045 42.693288 
L 96.775682 42.459719 
L 97.022765 42.534692 
L 97.286229 42.658685 
L 97.512836 42.560644 
L 97.624774 42.67022 
L 97.78449 42.748076 
L 97.955128 42.765377 
L 98.083447 42.693288 
L 98.105289 42.556318 
L 98.023383 42.422232 
L 97.919635 42.283821 
L 97.865031 42.141084 
L 97.878682 41.777755 
L 97.956493 41.574463 
L 98.143511 41.490839 
L 98.488881 41.473538 
L 98.779648 41.560045 
L 98.914792 41.78208 
L 98.898411 42.079088 
L 98.722313 42.383304 
L 98.869744 42.474137 
L 99.037651 42.837467 
L 99.161875 43.232516 
L 99.176891 43.419948 
L 99.380291 43.543941 
L 99.290195 43.836624 
L 99.103176 44.163909 
L 99.008984 44.397478 
" clip-path="url(#p36707f3d3e)" style="fill: #f5f5f5; stroke: #000000"/>
   </g>
  </g>
 </g>
 <defs>
  <clipPath id="p36707f3d3e">
   <rect x="7.2" y="7.2" width="134.347449" height="266.112"/>
  </clipPath>
 </defs>
</svg>
