<?xml version="1.0" encoding="utf-8" standalone="no"?>
<!DOCTYPE svg PUBLIC "-//W3C//DTD SVG 1.1//EN"
  "http://www.w3.org/Graphics/SVG/1.1/DTD/svg11.dtd">
<svg xmlns:xlink="http://www.w3.org/1999/xlink" width="122.662521pt" height="280.512pt" viewBox="0 0 122.662521 280.512" xmlns="http://www.w3.org/2000/svg" version="1.1">
 <metadata>
  <rdf:RDF xmlns:dc="http://purl.org/dc/elements/1.1/" xmlns:cc="http://creativecommons.org/ns#" xmlns:rdf="http://www.w3.org/1999/02/22-rdf-syntax-ns#">
   <cc:Work>
    <dc:type rdf:resource="http://purl.org/dc/dcmitype/StillImage"/>
    <dc:date>2024-03-04T13:11:11.768117</dc:date>
    <dc:format>image/svg+xml</dc:format>
    <dc:creator>
     <cc:Agent>
      <dc:title>Matplotlib v3.8.0, https://matplotlib.org/</dc:title>
     </cc:Agent>
    </dc:creator>
   </cc:Work>
  </rdf:RDF>
 </metadata>
 <defs>
  <style type="text/css">*{stroke-linejoin: round; stroke-linecap: butt}</style>
 </defs>
 <g id="figure_1">
  <g id="patch_1">
   <path d="M 0 280.512 
L 122.662521 280.512 
L 122.662521 0 
L 0 0 
z
" style="fill: #ffffff"/>
  </g>
  <g id="axes_1">
   <g id="PatchCollection_1">
    <path d="M 82.005727 87.694172 
L 72.489619 87.584539 
L 71.441341 87.842499 
L 71.149455 88.242337 
L 71.152593 88.80985 
L 71.3566 90.164142 
L 71.296967 91.424923 
L 71.067852 92.656683 
L 69.834399 95.723186 
L 67.521282 99.254017 
L 64.254043 104.2391 
L 63.6075 105.815882 
L 63.463126 107.221766 
L 63.510956 107.392694 
L 64.263458 110.081901 
L 66.049298 116.443847 
L 67.728427 122.444648 
L 68.123885 125.94001 
L 68.622916 130.315661 
L 69.043482 134.049637 
L 69.395001 137.161283 
L 69.197272 139.803763 
L 69.272597 142.360795 
L 70.270659 144.627621 
L 70.308321 144.688886 
L 70.409783 144.790481 
L 70.926617 145.307991 
L 71.281274 145.794891 
L 71.896432 146.897671 
L 72.040805 147.242693 
L 72.07533 147.429715 
L 72.166348 147.558695 
L 72.492758 147.729593 
L 72.982373 147.826328 
L 76.867908 147.758614 
L 77.90677 147.919839 
L 78.923663 148.290657 
L 78.94721 148.305268 
L 79.874646 148.880741 
L 82.975542 151.727978 
L 85.6339 154.168927 
L 88.276566 157.33539 
L 91.543805 161.240264 
L 94.318291 164.558278 
L 96.920155 167.669924 
L 98.95708 171.594145 
L 101.587191 174.921833 
L 104.775966 178.955687 
L 105.872219 180.34224 
L 106.976095 181.738434 
L 108.454356 183.234603 
L 108.809013 183.689258 
L 108.984773 184.221301 
L 109.29549 190.747697 
L 109.496358 191.025004 
L 109.888677 191.08627 
L 110.541497 191.066923 
L 109.402201 193.756159 
L 108.567344 195.729555 
L 107.095361 199.176549 
L 106.894493 199.956879 
L 106.903909 200.685617 
L 107.027489 201.192045 
L 107.738765 204.106816 
L 108.605007 207.611851 
L 108.516728 208.893616 
L 108.514757 208.922244 
L 108.344507 211.394194 
L 108.074591 215.292619 
L 107.883139 218.056018 
L 107.578699 222.544527 
L 107.2707 223.710535 
L 107.060837 224.505026 
L 107.073391 224.998375 
L 107.242873 225.949603 
L 107.211487 226.439728 
L 106.92274 227.113649 
L 106.46451 227.62957 
L 104.264381 229.148311 
L 103.944248 229.309536 
L 103.664917 229.335332 
L 103.090561 229.228924 
L 102.776705 229.245046 
L 99.879816 230.112438 
L 99.145393 230.186601 
L 98.994742 230.370398 
L 98.903724 230.854073 
L 98.705995 231.141054 
L 98.326229 231.124932 
L 97.921355 230.931462 
L 97.660855 230.689624 
L 97.441156 230.167254 
L 96.938987 229.831906 
L 96.314414 229.661007 
L 95.714949 229.628762 
L 95.027605 229.80611 
L 94.456387 230.19305 
L 92.340999 232.098732 
L 92.164882 232.306577 
L 91.496727 233.095104 
L 90.938064 234.265598 
L 90.730919 235.710176 
L 90.799967 236.039075 
L 91.16404 236.91614 
L 91.044775 237.232142 
L 90.329183 238.08986 
L 90.285058 238.245911 
L 90.165978 238.667046 
L 90.175394 239.90848 
L 90.00905 240.466319 
L 89.591622 240.901627 
L 87.473095 242.301061 
L 87.087053 242.568695 
L 87.586084 243.955232 
L 88.07256 244.725888 
L 88.198102 245.048339 
L 88.373862 245.309523 
L 88.712826 245.419157 
L 88.992158 245.467524 
L 89.657532 245.72226 
L 89.852123 245.828669 
L 89.990219 245.976996 
L 90.147147 246.299446 
L 90.266412 246.46712 
L 90.360569 246.528386 
L 90.617931 246.641243 
L 90.702672 246.699284 
L 91.433956 247.492512 
L 91.528113 247.656962 
L 91.615992 249.720644 
L 91.738396 250.339749 
L 92.347276 251.555387 
L 92.501066 252.332492 
L 91.741534 252.970944 
L 91.669348 253.628743 
L 91.738396 254.812136 
L 91.641101 254.957238 
L 91.455926 255.095892 
L 91.308413 255.253893 
L 91.320968 255.450587 
L 91.462203 255.59569 
L 92.444571 256.172876 
L 92.626608 256.44051 
L 92.472818 256.846798 
L 92.149547 257.417535 
L 92.111884 257.920557 
L 92.378662 259.094277 
L 92.419463 259.726279 
L 92.340999 260.245424 
L 92.174655 260.674283 
L 91.945541 261.028979 
L 91.937634 261.029831 
L 90.209918 261.216 
L 87.146685 261.112816 
L 85.549159 260.864529 
L 85.084653 260.419548 
L 85.17881 259.616646 
L 84.190164 258.114027 
L 84.428694 257.140227 
L 85.087791 256.598511 
L 85.856738 256.224468 
L 86.525251 255.753691 
L 86.879908 254.899197 
L 86.970926 253.896377 
L 86.952095 252.764576 
L 86.672763 251.797225 
L 85.988557 251.294202 
L 84.987357 251.265182 
L 84.083453 251.352243 
L 83.217211 251.210365 
L 82.322722 250.507423 
L 81.764058 249.765787 
L 81.503558 249.485256 
L 81.089268 249.185377 
L 80.882124 249.107989 
L 80.417617 249.024152 
L 80.210472 248.908069 
L 80.072376 248.672681 
L 79.97508 248.069699 
L 79.846399 247.811738 
L 79.637021 247.660466 
L 79.359923 247.460267 
L 78.826368 247.234552 
L 78.361861 246.960469 
L 78.063698 246.483243 
L 77.843999 245.809321 
L 77.599192 245.380462 
L 76.186841 244.193845 
L 75.879262 243.777884 
L 75.336291 242.733145 
L 74.943972 242.304286 
L 73.020035 241.288567 
L 72.790921 241.20473 
L 72.602607 241.062852 
L 72.229119 240.13742 
L 72.069052 239.850439 
L 71.865046 239.627948 
L 70.882677 238.889537 
L 70.502912 238.518719 
L 70.176502 238.035043 
L 69.325953 235.874626 
L 68.648024 235.178133 
L 67.301583 234.981438 
L 66.256443 234.942744 
L 65.663255 234.339762 
L 64.410971 231.611832 
L 64.533374 230.55097 
L 65.132839 228.535655 
L 64.997881 227.65859 
L 64.486296 226.9492 
L 61.95348 224.301882 
L 61.510943 224.031024 
L 60.500327 223.553797 
L 60.1237 223.224898 
L 59.794152 222.357506 
L 59.737658 221.245052 
L 59.891447 220.15517 
L 60.217857 219.371616 
L 61.080961 218.442959 
L 61.620793 218.030222 
L 62.135516 217.78516 
L 62.763228 217.59169 
L 63.092776 217.39822 
L 63.10515 217.381051 
L 64.982188 214.776698 
L 65.343122 213.786776 
L 65.440418 212.545342 
L 65.164225 210.662231 
L 65.167363 209.611043 
L 65.547129 209.088674 
L 66.093238 208.808142 
L 66.689564 207.850464 
L 67.301583 207.476422 
L 67.50245 207.089481 
L 67.653101 206.299478 
L 67.794336 205.912538 
L 68.139578 205.454658 
L 68.513066 205.196698 
L 68.908524 204.987105 
L 69.316537 204.680777 
L 69.8752 203.871427 
L 69.994466 203.055627 
L 69.690847 200.84106 
L 69.363615 198.454261 
L 69.435802 197.922217 
L 69.715134 197.58042 
L 69.63667 197.225725 
L 69.445218 196.83556 
L 69.37617 196.393803 
L 69.555067 195.95527 
L 70.173363 195.097552 
L 70.396201 194.636448 
L 70.452695 194.110854 
L 70.232996 193.636852 
L 69.900309 193.169299 
L 69.627254 192.669501 
L 69.448356 192.047172 
L 69.37617 191.524802 
L 69.366754 189.222507 
L 69.197272 188.239033 
L 68.870862 187.320049 
L 68.362415 186.314004 
L 68.073668 185.246694 
L 68.484819 183.389379 
L 68.447156 182.347865 
L 67.951264 181.357942 
L 66.369431 179.790833 
L 65.663255 178.920217 
L 64.671471 176.885556 
L 64.265747 176.301987 
L 64.012374 175.937551 
L 63.161825 175.482896 
L 62.895047 175.52804 
L 62.665932 175.676367 
L 62.446233 175.856939 
L 62.21398 176.008491 
L 61.972311 176.056858 
L 61.485835 176.002042 
L 61.25672 176.031062 
L 58.25312 177.108046 
L 56.040436 177.169312 
L 55.067483 177.582048 
L 54.844646 177.901274 
L 54.493127 178.688053 
L 54.254597 178.846054 
L 51.059545 178.417195 
L 50.171333 178.41397 
L 49.339615 178.626788 
L 47.575745 179.703772 
L 46.712642 180.019773 
L 45.855815 179.932712 
L 44.222196 178.675155 
L 43.578791 178.878299 
L 43.118993 179.581241 
L 42.860062 180.487326 
L 42.856923 181.56431 
L 42.759628 182.122149 
L 42.461465 182.334967 
L 41.92791 182.170517 
L 41.566976 181.848067 
L 41.309614 181.432106 
L 41.124852 180.925594 
L 40.694456 179.74569 
L 40.437095 179.352301 
L 40.088715 179.078218 
L 39.27269 178.697727 
L 38.92431 178.423644 
L 38.666948 178.020581 
L 38.511589 177.630416 
L 38.312291 177.259598 
L 37.907417 176.904903 
L 36.626885 176.327716 
L 36.234565 176.011715 
L 35.682179 175.273304 
L 34.145855 172.151984 
L 33.6123 171.407124 
L 33.189847 170.590143 
L 33.105423 170.426875 
L 32.887293 170.223731 
L 32.617377 170.117322 
L 32.182687 169.833566 
L 31.928464 169.546585 
L 31.168933 168.292253 
L 31.037113 167.73119 
L 31.190903 166.180203 
L 30.855077 165.293465 
L 30.17401 164.758197 
L 28.501158 163.82954 
L 27.983296 163.203986 
L 27.03859 161.417611 
L 26.605469 161.056467 
L 26.301029 161.23059 
L 26.009143 162.020594 
L 25.734519 162.291452 
L 24.681533 162.601004 
L 24.257828 162.82672 
L 23.846677 163.291048 
L 22.897263 164.83881 
L 22.340169 164.971014 
L 21.630855 164.055255 
L 21.473927 163.581253 
L 21.580638 162.007696 
L 21.637132 161.830348 
L 21.624578 161.665898 
L 21.451957 161.401489 
L 21.207149 161.275733 
L 20.657902 161.304754 
L 20.406817 161.095161 
L 20.221642 160.605037 
L 20.155732 160.140708 
L 20.034898 159.666706 
L 18.523682 157.799718 
L 18.076438 157.409553 
L 17.145855 157.064531 
L 16.02539 156.838816 
L 15.149732 156.445427 
L 14.977112 155.603831 
L 15.303522 155.255585 
L 16.419279 154.723542 
L 16.67821 154.384969 
L 16.508728 154.010927 
L 15.356877 152.379328 
L 14.553406 152.021408 
L 13.439218 152.011734 
L 12.478819 151.792468 
L 12.121024 150.802545 
L 12.252843 150.15442 
L 12.544729 149.912582 
L 12.980989 149.954501 
L 13.545929 150.147971 
L 13.928833 150.086706 
L 14.747997 149.383764 
L 15.15444 149.122579 
L 16.273336 148.954905 
L 16.668794 148.677597 
L 16.803752 147.971431 
L 16.784921 147.403918 
L 16.850831 146.913794 
L 17.105054 146.575221 
L 17.663717 146.488159 
L 18.526821 146.023831 
L 19.069791 144.82754 
L 19.475372 143.160792 
L 19.904648 141.396668 
L 20.458603 140.18103 
L 21.213426 139.216904 
L 22.126747 138.94927 
L 22.289952 138.513962 
L 22.195795 138.152817 
L 21.709319 137.435365 
L 21.473927 136.906547 
L 21.346815 136.384177 
L 21.310722 135.842461 
L 21.784644 132.389017 
L 22.616362 130.483335 
L 22.757597 129.615944 
L 22.498666 128.858186 
L 21.753258 128.164917 
L 20.934095 127.645772 
L 20.736366 127.307199 
L 20.557468 125.017802 
L 20.664179 124.472861 
L 21.072191 123.624816 
L 22.167548 121.980319 
L 23.0997 120.113332 
L 23.419833 119.690922 
L 23.849815 119.307206 
L 24.097761 119.200797 
L 24.308045 119.249165 
L 24.47125 119.420063 
L 24.599931 119.665126 
L 24.813353 119.868269 
L 25.076991 119.742514 
L 25.353185 119.507125 
L 25.594854 119.365247 
L 26.075053 119.236267 
L 26.304168 119.210471 
L 26.594484 119.291083 
L 26.806337 119.507125 
L 27.167271 120.197169 
L 27.295952 120.355169 
L 27.606669 120.342271 
L 27.751043 120.187495 
L 27.851477 119.974678 
L 28.033513 119.790881 
L 28.187303 119.687697 
L 28.32226 119.57484 
L 28.507435 119.461982 
L 28.813445 119.362022 
L 29.238719 119.065368 
L 29.744027 117.994833 
L 30.092407 117.594994 
L 30.337215 117.488586 
L 31.143824 117.353157 
L 31.52359 117.382177 
L 31.818614 117.530504 
L 32.072837 117.691729 
L 32.314506 117.772342 
L 32.986158 117.617566 
L 33.679779 117.175809 
L 34.302783 116.543806 
L 34.778274 115.824742 
L 35.123516 115.505516 
L 36.044683 115.131474 
L 36.313029 114.760656 
L 36.338138 113.993224 
L 36.476234 113.761059 
L 36.937602 113.677222 
L 37.157302 113.161302 
L 37.950899 112.675987 
L 38.080038 112.597014 
L 38.353092 112.093991 
L 38.306014 111.458764 
L 37.957634 111.326559 
L 37.449187 111.342682 
L 36.262812 110.923496 
L 34.025021 111.607091 
L 32.957911 111.229824 
L 32.371 110.304392 
L 31.834307 108.131076 
L 31.454541 107.112133 
L 31.103023 106.683274 
L 30.249335 105.857801 
L 30.02022 105.351554 
L 29.976281 104.300366 
L 30.08613 103.2653 
L 31.280352 100.414839 
L 31.564391 98.821934 
L 31.738581 98.32536 
L 31.840584 97.83846 
L 31.721319 97.393479 
L 31.379216 96.709884 
L 31.376078 96.210086 
L 31.777813 95.033142 
L 31.881385 93.891668 
L 31.536144 88.822748 
L 31.357246 88.319726 
L 30.946095 87.845723 
L 30.450203 87.758662 
L 29.916648 87.826376 
L 29.41134 87.823152 
L 28.902894 87.632906 
L 28.80246 87.391068 
L 29.248135 86.420493 
L 29.445864 85.836858 
L 29.480388 85.453142 
L 29.339153 82.796151 
L 29.624762 82.354394 
L 30.398417 82.999294 
L 30.654209 82.57366 
L 30.660486 82.173822 
L 30.600854 81.770759 
L 30.651071 81.332226 
L 30.789167 81.164552 
L 31.253674 80.961408 
L 31.423156 80.816305 
L 31.463957 80.62606 
L 31.358815 80.274589 
L 31.404325 80.071445 
L 33.535405 76.746982 
L 33.952834 75.873141 
L 34.216473 74.94126 
L 33.24352 73.212926 
L 32.56716 72.526107 
L 32.005358 71.742552 
L 31.56753 70.878385 
L 31.272505 69.940055 
L 31.181186 69.022534 
L 31.08733 68.079516 
L 30.858215 67.096042 
L 30.418817 66.715551 
L 30.001389 66.776816 
L 29.621624 66.776816 
L 29.381524 66.605918 
L 29.408202 66.157712 
L 29.676548 65.609546 
L 29.960588 65.509587 
L 30.277582 65.596648 
L 30.647932 65.606322 
L 31.095177 65.329014 
L 31.664825 64.451949 
L 32.035175 64.126274 
L 32.446326 63.984396 
L 33.212134 63.832845 
L 33.63427 63.661946 
L 34.053268 63.587782 
L 35.059175 63.787702 
L 35.525251 63.813498 
L 35.923848 63.629701 
L 36.476234 63.071862 
L 36.937602 62.9848 
L 37.559037 62.59786 
L 37.893293 62.056143 
L 38.387616 60.801811 
L 39.865877 59.11862 
L 40.270751 58.847762 
L 40.659932 58.670414 
L 41.849446 57.796574 
L 42.32023 57.361266 
L 42.81926 56.603507 
L 42.808534 56.479347 
L 42.798612 56.364503 
L 42.772182 56.058566 
L 42.557191 55.491054 
L 42.552483 54.67203 
L 41.725473 54.562397 
L 41.256258 54.014231 
L 40.663071 52.614796 
L 40.430818 52.347163 
L 39.583407 51.579731 
L 39.326045 51.215362 
L 38.528851 49.290333 
L 38.419002 48.542248 
L 38.610454 46.797792 
L 38.539836 45.814318 
L 38.105146 45.308071 
L 37.502543 44.879212 
L 36.937602 44.124678 
L 36.149824 43.844146 
L 35.600577 43.383042 
L 35.104685 42.831652 
L 34.467557 42.280262 
L 31.988096 41.161359 
L 31.580084 40.590622 
L 31.598915 39.784496 
L 31.758982 38.997717 
L 32.330199 37.524119 
L 33.230965 36.102113 
L 33.447526 35.444314 
L 33.252935 34.573698 
L 32.775874 33.341938 
L 32.578145 33.1001 
L 31.454541 32.680915 
L 31.084192 32.480995 
L 30.720119 32.152096 
L 30.459619 31.774829 
L 30.02022 30.926785 
L 29.687533 30.562416 
L 28.926433 30.085189 
L 28.639255 29.643432 
L 28.557652 29.182328 
L 28.656517 28.888898 
L 28.813445 28.637387 
L 28.898186 28.302039 
L 28.852677 27.828037 
L 28.717719 27.412076 
L 28.27989 26.628521 
L 27.672579 26.193213 
L 26.034252 26.106152 
L 25.331215 25.76113 
L 25.155455 26.57048 
L 25.055022 27.492688 
L 24.788244 28.063425 
L 24.116593 27.815139 
L 23.956526 27.518484 
L 23.887478 27.141217 
L 23.765074 26.809094 
L 23.430818 26.651093 
L 23.021236 26.754277 
L 22.68541 26.989666 
L 22.349584 27.144442 
L 21.947849 27.009013 
L 21.577499 26.160968 
L 22.114193 23.910265 
L 22.101638 23.058996 
L 21.831722 22.930016 
L 21.392324 22.514055 
L 21.188318 22.388299 
L 20.83523 22.404421 
L 20.632793 22.555973 
L 20.447618 22.620463 
L 20.152594 22.372176 
L 20.00822 21.949767 
L 19.94231 20.127922 
L 20.409956 19.621675 
L 20.98745 19.321796 
L 21.577499 19.296 
L 22.111054 19.612001 
L 23.630116 21.15009 
L 25.500697 22.623688 
L 25.77689 22.736545 
L 26.594484 22.920342 
L 27.484265 23.278262 
L 27.597254 23.345977 
L 27.873447 23.249241 
L 28.290875 22.897771 
L 28.491743 22.797811 
L 28.915448 22.794586 
L 29.546298 22.988057 
L 29.910371 23.023526 
L 30.170871 22.939689 
L 30.651071 22.617239 
L 30.920987 22.565647 
L 31.463957 22.759117 
L 33.171333 23.994102 
L 33.733135 24.532594 
L 34.255705 25.690191 
L 34.621347 26.273826 
L 35.088992 26.609174 
L 35.675902 26.792971 
L 36.937602 26.883257 
L 37.882308 26.651093 
L 38.5979 26.225458 
L 39.335461 25.912682 
L 40.364908 26.022315 
L 41.290782 26.318969 
L 42.088405 26.461347 
L 42.103669 26.464072 
L 42.875754 26.360887 
L 43.679225 25.899783 
L 44.653748 25.625701 
L 45.485465 26.151295 
L 46.260689 26.947747 
L 47.048467 27.473341 
L 47.76092 27.769996 
L 48.620885 28.292365 
L 49.352169 28.921143 
L 49.681718 29.540248 
L 50.036375 29.801433 
L 50.535405 29.250043 
L 50.535405 29.037226 
L 50.984219 28.737347 
L 51.235304 28.418121 
L 51.342015 28.011833 
L 51.363985 27.441096 
L 51.577407 26.499541 
L 51.633901 25.9546 
L 51.06896 24.561614 
L 51.520913 23.77806 
L 52.236504 23.175078 
L 52.606854 22.746219 
L 53.099607 22.298013 
L 54.154163 22.688178 
L 55.096442 23.319133 
L 55.136532 23.345977 
L 55.425279 23.694223 
L 55.845846 23.932836 
L 56.875293 25.203291 
L 57.104407 25.33872 
L 57.628547 25.922355 
L 58.507343 26.331867 
L 61.460726 29.504779 
L 62.367769 29.840127 
L 62.559221 30.252863 
L 62.634547 30.810703 
L 62.785198 31.400787 
L 62.960957 31.649074 
L 63.635747 32.358464 
L 63.773843 32.435852 
L 64.323091 32.974345 
L 64.357615 33.103325 
L 67.389462 36.921137 
L 67.734704 37.562813 
L 68.648024 38.875186 
L 69.002681 39.942497 
L 69.043482 40.28107 
L 68.980711 40.63899 
L 68.710795 41.248421 
L 68.648024 41.557973 
L 68.880277 42.62206 
L 69.887755 44.924355 
L 70.176502 46.58175 
L 70.430725 47.26212 
L 70.496635 47.649061 
L 70.487219 47.981185 
L 69.872062 51.386261 
L 70.00702 52.060182 
L 70.590792 53.050104 
L 70.719472 53.630515 
L 70.653563 53.927169 
L 70.371092 54.626887 
L 70.308321 55.026725 
L 70.328655 55.193848 
L 70.358538 55.439462 
L 70.499773 55.871545 
L 70.700641 56.281057 
L 70.945449 56.635752 
L 71.20281 56.758284 
L 71.466449 56.742161 
L 71.566757 56.771828 
L 71.673594 56.803427 
L 71.758335 57.167796 
L 71.733227 57.767553 
L 71.814829 57.95135 
L 72.467649 58.734904 
L 72.756397 59.363683 
L 72.781505 60.044053 
L 72.37977 60.701852 
L 72.571222 60.988832 
L 72.624577 61.127486 
L 72.753258 61.304834 
L 72.950987 61.449936 
L 73.133024 61.672427 
L 73.211488 62.07549 
L 72.841138 62.356022 
L 72.655963 62.620431 
L 72.772089 63.436231 
L 72.37977 65.387055 
L 72.37977 66.770368 
L 72.31386 67.092818 
L 71.755197 68.366497 
L 71.475028 68.730891 
L 70.870123 69.517645 
L 70.719472 70.304424 
L 70.851292 70.942875 
L 71.256166 72.223003 
L 71.344045 72.987211 
L 71.57316 73.535376 
L 73.020035 74.796157 
L 73.180102 75.102485 
L 73.274259 75.376568 
L 73.418632 75.573263 
L 73.96788 75.711916 
L 74.209549 75.882815 
L 74.397863 76.124653 
L 74.473188 76.405184 
L 74.570483 77.1178 
L 74.840399 77.724006 
L 75.235858 78.181886 
L 75.716057 78.459193 
L 75.716057 78.652664 
L 75.537159 78.755848 
L 75.276659 78.962216 
L 75.094622 79.058951 
L 75.766274 80.329405 
L 75.960864 80.568019 
L 76.161732 80.545447 
L 76.547775 80.20365 
L 76.773751 80.123037 
L 77.021697 80.155282 
L 78.333614 80.603488 
L 79.068037 80.993653 
L 79.636116 81.512798 
L 79.865231 82.154475 
L 79.993912 82.389863 
L 80.561991 82.86709 
L 80.822491 83.71191 
L 81.1081 84.040809 
L 81.393708 84.289096 
L 81.522389 84.518036 
L 81.591438 84.705057 
L 81.735811 84.985589 
L 81.886462 85.353182 
L 81.95551 85.807837 
L 81.95551 87.423314 
L 82.005727 87.694172 
" clip-path="url(#p72c202ccc2)" style="fill: #f5f5f5; stroke: #000000"/>
    <path d="M 73.792121 101.011372 
L 74.444941 101.050066 
L 75.132285 101.295128 
L 75.615623 101.627252 
L 75.863569 102.25603 
L 75.769412 103.046034 
L 75.433587 103.819915 
L 74.956526 104.400325 
L 74.322537 104.767919 
L 73.635193 104.884001 
L 73.029451 104.674408 
L 72.64027 104.032732 
L 72.630854 103.378158 
L 72.828583 102.646195 
L 73.390385 101.291904 
L 73.792121 101.011372 
" clip-path="url(#p72c202ccc2)" style="fill: #f5f5f5; stroke: #000000"/>
    <path d="M 69.768489 100.331002 
L 69.796736 100.311655 
L 70.885816 100.07949 
L 71.767751 100.60186 
L 72.185179 101.556313 
L 71.896432 102.636522 
L 71.271859 103.262076 
L 70.813629 103.242729 
L 70.433864 102.836441 
L 70.044682 102.278602 
L 69.234934 101.353169 
L 69.165886 100.8308 
L 69.768489 100.331002 
" clip-path="url(#p72c202ccc2)" style="fill: #f5f5f5; stroke: #000000"/>
   </g>
  </g>
 </g>
 <defs>
  <clipPath id="p72c202ccc2">
   <rect x="7.2" y="7.2" width="108.262521" height="266.112"/>
  </clipPath>
 </defs>
</svg>
