<?xml version="1.0" encoding="utf-8" standalone="no"?>
<!DOCTYPE svg PUBLIC "-//W3C//DTD SVG 1.1//EN"
  "http://www.w3.org/Graphics/SVG/1.1/DTD/svg11.dtd">
<svg xmlns:xlink="http://www.w3.org/1999/xlink" width="296.19095pt" height="280.512pt" viewBox="0 0 296.19095 280.512" xmlns="http://www.w3.org/2000/svg" version="1.1">
 <metadata>
  <rdf:RDF xmlns:dc="http://purl.org/dc/elements/1.1/" xmlns:cc="http://creativecommons.org/ns#" xmlns:rdf="http://www.w3.org/1999/02/22-rdf-syntax-ns#">
   <cc:Work>
    <dc:type rdf:resource="http://purl.org/dc/dcmitype/StillImage"/>
    <dc:date>2024-03-04T13:11:11.820377</dc:date>
    <dc:format>image/svg+xml</dc:format>
    <dc:creator>
     <cc:Agent>
      <dc:title>Matplotlib v3.8.0, https://matplotlib.org/</dc:title>
     </cc:Agent>
    </dc:creator>
   </cc:Work>
  </rdf:RDF>
 </metadata>
 <defs>
  <style type="text/css">*{stroke-linejoin: round; stroke-linecap: butt}</style>
 </defs>
 <g id="figure_1">
  <g id="patch_1">
   <path d="M 0 280.512 
L 296.19095 280.512 
L 296.19095 0 
L 0 0 
z
" style="fill: #ffffff"/>
  </g>
  <g id="axes_1">
   <g id="PatchCollection_1">
    <defs>
     <path id="m4b95ef61ac" d="M 20.00868 -94.777023 
L 20.277859 -94.647841 
L 20.619648 -94.589773 
L 20.953816 -94.634376 
L 21.62215 -94.875907 
L 21.95351 -94.933134 
L 22.189392 -94.804795 
L 22.84489 -94.208541 
L 23.016587 -94.116809 
L 23.141749 -94.30995 
L 23.223586 -94.565367 
L 23.338318 -94.651208 
L 23.627155 -94.579674 
L 23.937653 -94.578412 
L 24.241734 -94.664673 
L 24.513721 -94.856972 
L 24.881185 -95.373277 
L 25.103428 -95.569784 
L 25.728438 -95.707381 
L 26.011657 -95.861388 
L 26.242726 -96.06589 
L 26.365482 -96.281333 
L 26.425656 -96.430712 
L 26.50669 -96.540537 
L 26.58612 -96.626377 
L 26.639074 -96.701277 
L 26.700853 -96.727366 
L 26.809968 -96.757663 
L 26.898224 -96.813206 
L 26.897422 -96.917982 
L 26.78991 -97.067361 
L 26.747387 -97.144786 
L 26.73455 -97.244091 
L 26.81398 -97.831088 
L 26.895015 -98.121009 
L 27.009747 -98.376006 
L 27.009747 -98.378531 
L 27.042642 -98.675185 
L 27.000921 -98.907038 
L 26.886189 -99.089659 
L 26.704864 -99.2403 
L 26.606178 -99.2403 
L 26.524342 -99.164138 
L 26.422447 -99.125426 
L 26.269203 -99.2403 
L 26.296482 -99.322774 
L 26.333389 -99.814253 
L 26.513911 -100.470679 
L 26.528353 -100.638152 
L 26.480214 -100.864535 
L 26.466574 -101.017701 
L 26.505888 -101.358537 
L 26.798736 -102.229564 
L 26.887794 -103.003811 
L 26.95198 -103.264277 
L 27.471082 -104.400821 
L 27.716593 -105.56219 
L 27.915569 -106.08144 
L 28.310312 -106.520741 
L 28.347219 -106.698733 
L 28.347219 -107.255433 
L 28.740292 -107.194418 
L 28.805345 -107.18432 
L 29.220146 -107.047565 
L 29.634946 -107.015585 
L 30.089061 -107.255433 
L 30.642664 -107.854632 
L 30.901011 -108.005695 
L 31.314208 -108.130668 
L 31.495533 -108.218192 
L 31.633532 -108.377669 
L 31.668834 -108.45846 
L 31.680869 -108.542197 
L 31.668834 -108.625092 
L 31.633532 -108.706303 
L 31.568544 -108.746699 
L 31.515591 -108.787515 
L 31.474672 -108.838009 
L 31.448196 -108.906598 
L 31.493928 -108.921325 
L 31.633532 -108.936894 
L 32.520901 -108.750065 
L 32.884353 -108.594374 
L 33.276689 -108.24933 
L 34.715253 -106.123519 
L 35.005694 -105.787731 
L 38.930656 -102.84265 
L 39.437724 -102.344018 
L 39.865362 -101.495714 
L 40.442232 -100.917554 
L 40.952509 -100.11806 
L 41.091311 -100.392833 
L 41.329601 -101.320667 
L 41.463589 -101.582816 
L 41.881599 -101.986771 
L 42.056505 -102.261965 
L 42.20654 -102.862006 
L 42.318062 -103.127522 
L 42.569189 -103.378731 
L 42.737677 -103.439324 
L 42.89413 -103.439324 
L 43.024106 -103.464992 
L 43.195803 -103.729667 
L 43.44693 -103.87568 
L 43.566476 -103.997707 
L 43.689232 -104.340227 
L 43.669976 -105.014747 
L 43.728546 -105.324867 
L 43.89944 -105.494864 
L 44.150567 -105.507909 
L 45.086878 -105.361475 
L 45.735155 -105.354322 
L 46.041642 -105.400187 
L 46.082614 -105.414461 
L 46.598454 -105.59417 
L 46.855197 -105.635407 
L 47.157673 -105.571027 
L 47.391951 -105.613526 
L 48.975736 -105.586596 
L 49.404978 -105.502018 
L 50.151941 -105.560507 
L 50.367765 -105.529789 
L 51.695609 -104.9895 
L 51.831202 -104.988659 
L 52.116829 -105.042519 
L 52.236375 -105.033262 
L 52.553292 -104.877992 
L 53.118127 -104.510646 
L 53.479975 -104.400821 
L 54.111403 -104.382306 
L 55.915826 -104.650347 
L 57.713831 -104.485819 
L 58.30755 -104.635619 
L 59.186896 -105.161602 
L 59.49579 -105.297095 
L 60.251979 -105.455731 
L 64.105936 -105.616471 
L 63.919797 -106.518216 
L 63.671879 -107.549142 
L 63.674286 -108.023368 
L 63.902146 -108.455936 
L 64.850491 -109.612677 
L 65.152967 -109.80708 
L 65.526047 -109.639607 
L 65.574186 -109.113204 
L 65.362373 -108.000645 
L 65.265292 -106.514008 
L 67.957084 -106.513166 
L 68.49218 -106.512982 
L 70.398552 -106.512325 
L 70.637285 -106.512084 
L 72.066581 -106.510642 
L 73.118426 -106.510642 
L 74.269759 -106.510642 
L 75.510952 -106.510642 
L 76.836389 -106.5098 
L 78.9128 -106.508117 
L 81.136036 -106.508117 
L 83.483632 -106.506855 
L 85.936332 -106.505592 
L 88.471671 -106.504751 
L 91.069592 -106.503909 
L 93.708431 -106.503068 
L 96.368933 -106.502226 
L 99.029435 -106.500543 
L 101.669076 -106.500543 
L 104.266997 -106.499281 
L 106.801534 -106.498018 
L 109.253432 -106.497177 
L 111.60183 -106.496335 
L 112.294348 -106.496073 
L 113.824264 -106.495494 
L 115.901477 -106.494652 
L 117.096938 -106.49339 
L 118.224201 -106.492969 
L 119.279256 -106.492969 
L 120.256485 -106.492969 
L 122.339314 -106.492127 
L 124.779979 -106.491286 
L 124.785596 -106.489602 
L 124.79041 -106.487919 
L 124.795224 -106.485815 
L 124.800038 -106.484553 
L 124.804851 -106.48287 
L 124.809665 -106.481187 
L 124.814479 -106.479504 
L 124.820096 -106.47782 
L 124.824107 -106.47782 
L 124.826514 -106.47782 
L 124.829723 -106.47782 
L 124.832933 -106.47782 
L 124.836944 -106.47782 
L 124.838549 -106.47782 
L 124.842561 -106.47782 
L 124.84577 -106.47782 
L 124.847375 -106.479504 
L 124.848979 -106.482028 
L 124.851386 -106.48287 
L 124.852189 -106.485395 
L 124.852991 -106.487078 
L 124.855398 -106.487919 
L 124.857805 -106.490444 
L 124.857805 -106.492127 
L 124.857805 -106.495494 
L 124.857805 -106.498018 
L 124.857805 -106.500543 
L 124.857805 -106.504751 
L 124.857805 -106.508117 
L 124.857805 -106.510642 
L 124.857805 -106.514429 
L 124.857805 -106.518216 
L 124.873851 -106.598165 
L 124.888293 -106.677694 
L 124.891799 -106.697307 
L 124.902735 -106.758485 
L 124.917979 -106.838013 
L 125.20842 -108.419748 
L 125.500465 -110.001483 
L 125.791708 -111.581955 
L 126.083754 -113.163269 
L 126.366171 -114.704188 
L 126.650996 -116.245106 
L 126.934216 -117.786025 
L 127.218238 -119.326102 
L 127.305691 -119.808323 
L 127.290447 -119.912678 
L 127.274401 -120.017032 
L 127.199785 -120.100348 
L 127.125169 -120.181981 
L 126.503368 -120.617915 
L 125.867127 -121.063107 
L 125.254954 -121.49315 
L 124.566562 -121.974529 
L 123.995308 -122.373434 
L 123.383938 -122.803478 
L 123.249148 -123.063523 
L 123.112753 -123.323569 
L 123.045358 -123.979996 
L 122.891312 -125.44938 
L 122.736464 -126.919607 
L 122.58322 -128.38815 
L 122.429977 -129.858377 
L 122.275128 -131.327762 
L 122.121885 -132.796305 
L 121.968641 -134.26569 
L 121.814595 -135.735075 
L 121.659747 -137.20446 
L 121.506503 -138.673003 
L 121.35326 -140.142388 
L 121.198411 -141.610931 
L 121.04597 -143.081158 
L 120.891924 -144.550542 
L 120.737076 -146.019086 
L 120.584634 -147.488471 
L 120.426577 -148.998251 
L 120.268519 -150.508031 
L 120.109659 -152.019495 
L 119.951602 -153.528434 
L 119.794347 -155.039476 
L 119.634684 -156.549677 
L 119.476627 -158.059879 
L 119.319372 -159.570921 
L 119.162116 -161.081122 
L 119.003257 -162.591324 
L 118.845199 -164.101525 
L 118.687141 -165.612567 
L 118.587653 -166.562282 
L 118.488165 -167.512416 
L 118.38948 -168.462131 
L 118.289189 -169.413107 
L 118.054911 -171.653793 
L 118.054911 -171.655476 
L 117.831063 -173.690818 
L 117.60882 -175.726581 
L 117.386577 -177.761923 
L 117.162728 -179.796424 
L 116.939683 -181.832187 
L 116.715835 -183.867108 
L 116.493591 -185.902871 
L 116.269743 -187.937792 
L 116.073174 -189.694995 
L 115.967268 -190.648496 
L 115.733792 -192.746535 
L 115.499514 -194.844574 
L 115.393607 -195.799759 
L 115.174573 -197.76483 
L 114.955539 -199.729901 
L 114.735703 -201.694971 
L 114.516668 -203.660042 
L 114.297634 -205.625955 
L 114.0786 -207.591026 
L 113.858764 -209.555255 
L 113.63973 -211.521167 
L 113.420696 -213.486238 
L 113.201662 -215.452151 
L 112.981825 -217.417221 
L 112.762791 -219.382292 
L 112.542955 -221.348205 
L 112.324723 -223.313276 
L 112.105689 -225.277926 
L 111.885853 -227.242997 
L 111.666819 -229.208488 
L 111.49493 -230.744634 
L 111.446982 -231.173138 
L 111.22875 -233.138209 
L 111.008914 -235.104122 
L 110.78988 -237.069192 
L 110.570043 -239.034684 
L 110.351009 -241.000176 
L 110.131975 -242.965667 
L 110.020452 -243.972608 
L 109.772535 -246.188468 
L 109.526222 -248.404327 
L 109.413897 -249.41253 
L 109.403534 -249.505195 
L 109.255839 -250.825951 
L 109.105805 -252.123234 
L 108.95577 -253.420097 
L 108.806538 -254.716959 
L 108.656504 -256.01256 
L 108.505667 -257.310264 
L 108.356435 -258.607126 
L 108.207203 -259.902727 
L 108.056367 -261.200852 
L 111.494319 -261.202535 
L 114.933074 -261.204218 
L 118.371026 -261.205901 
L 121.808979 -261.208426 
L 125.246129 -261.210109 
L 128.684884 -261.211792 
L 132.122034 -261.213475 
L 135.560387 -261.216 
L 135.561591 -261.214317 
L 135.564399 -261.211792 
L 135.566405 -261.210951 
L 136.751034 -260.43418 
L 137.934861 -259.656988 
L 139.119892 -258.881058 
L 140.304922 -258.104287 
L 142.029515 -256.920616 
L 143.267097 -256.072311 
L 144.505081 -255.223165 
L 145.74146 -254.37486 
L 146.979043 -253.526556 
L 148.215823 -252.678251 
L 149.454208 -251.829946 
L 150.692192 -250.9808 
L 151.928972 -250.131654 
L 153.166555 -249.283349 
L 154.402533 -248.434203 
L 155.640517 -247.585898 
L 156.878501 -246.737594 
L 158.116485 -245.88971 
L 159.353666 -245.040984 
L 160.590045 -244.191838 
L 161.829634 -243.343533 
L 163.173925 -242.420329 
L 164.51942 -241.497124 
L 165.864514 -240.575182 
L 167.210009 -239.652819 
L 168.555504 -238.730456 
L 169.900197 -237.807672 
L 171.24489 -236.884467 
L 172.591187 -235.962104 
L 173.936682 -235.040162 
L 175.282177 -234.117799 
L 176.626067 -233.195015 
L 177.972365 -232.271811 
L 179.317058 -231.348185 
L 180.662553 -230.426664 
L 182.007245 -229.504301 
L 183.353543 -228.581938 
L 184.698235 -227.659996 
L 186.04373 -226.736791 
L 187.387621 -225.813166 
L 188.733918 -224.891223 
L 190.079413 -223.969702 
L 191.424106 -223.046497 
L 192.768799 -222.124134 
L 194.115096 -221.20093 
L 195.459789 -220.277725 
L 196.805284 -219.355362 
L 198.149977 -218.433841 
L 199.495472 -217.511478 
L 200.841769 -216.589114 
L 202.186462 -215.66591 
L 203.531957 -214.742705 
L 204.877051 -213.820342 
L 206.222144 -212.897979 
L 207.567639 -211.975616 
L 208.913536 -211.053253 
L 210.25863 -210.130049 
L 210.478207 -209.979387 
L 211.604125 -209.206844 
L 212.950422 -208.284481 
L 214.293911 -207.36296 
L 215.639406 -206.440596 
L 216.9845 -205.518233 
L 218.329995 -204.595029 
L 219.674688 -203.671824 
L 221.019381 -202.74862 
L 222.365678 -201.827098 
L 223.710371 -200.904735 
L 225.055063 -199.982372 
L 226.401361 -199.059168 
L 228.221029 -197.811116 
L 228.420005 -197.482061 
L 228.708841 -196.436829 
L 228.742538 -196.078319 
L 228.546771 -194.298394 
L 228.201773 -192.830692 
L 228.19054 -192.510895 
L 228.232261 -192.10694 
L 228.346191 -191.900755 
L 228.562818 -191.814073 
L 228.91584 -191.766945 
L 229.244792 -191.771995 
L 229.862581 -191.904122 
L 230.189928 -191.910854 
L 230.552578 -191.814073 
L 230.767601 -191.639026 
L 231.093343 -191.072648 
L 231.332436 -190.766316 
L 231.597202 -190.580329 
L 232.267944 -190.374143 
L 232.893755 -190.271472 
L 233.177778 -190.186473 
L 233.452172 -190.008901 
L 234.02503 -189.91717 
L 234.6364 -189.599897 
L 235.629676 -188.84669 
L 235.944186 -188.381301 
L 236.03886 -187.800616 
L 236.026023 -186.580336 
L 236.180069 -186.343013 
L 238.027016 -184.824817 
L 238.354363 -184.671651 
L 238.691339 -184.650612 
L 238.970547 -184.688482 
L 239.220872 -184.670809 
L 239.463173 -184.486926 
L 239.61401 -184.153242 
L 239.668568 -183.845227 
L 239.785707 -183.644091 
L 240.127496 -183.63273 
L 240.295984 -183.714783 
L 240.559146 -183.958839 
L 240.777378 -184.020695 
L 240.961912 -183.996289 
L 241.093493 -183.915078 
L 241.213841 -183.809039 
L 241.369492 -183.711838 
L 242.346721 -183.371422 
L 242.57779 -183.342388 
L 242.985369 -183.52038 
L 243.6176 -184.115372 
L 243.97704 -184.346804 
L 244.304388 -184.404873 
L 244.590015 -184.329973 
L 244.859595 -184.170074 
L 245.812754 -183.41855 
L 246.385613 -182.803361 
L 246.878239 -182.110747 
L 247.50726 -180.96705 
L 247.688585 -180.79032 
L 247.926072 -180.70448 
L 248.301559 -180.619902 
L 248.603232 -180.50082 
L 249.163254 -180.196591 
L 249.464927 -180.128845 
L 249.633415 -180.116221 
L 251.050316 -179.84271 
L 251.902383 -179.807785 
L 256.159507 -178.919085 
L 258.125197 -178.05984 
L 259.023799 -177.348711 
L 259.280542 -177.23005 
L 259.842168 -177.063839 
L 260.084469 -176.94644 
L 260.301096 -176.738571 
L 260.363677 -176.515555 
L 260.076446 -173.23132 
L 260.094097 -172.602245 
L 260.293073 -172.005991 
L 260.37491 -171.908368 
L 260.458352 -171.857874 
L 260.538584 -171.794335 
L 260.604374 -171.652951 
L 260.594746 -171.548176 
L 260.5097 -171.225012 
L 260.506491 -171.070163 
L 260.642886 -170.771404 
L 260.840257 -170.529032 
L 261.00714 -170.267303 
L 261.047256 -169.907951 
L 260.894815 -169.535556 
L 260.610793 -169.313802 
L 260.281841 -169.134968 
L 259.993004 -168.889649 
L 259.851796 -168.591733 
L 259.774773 -167.960133 
L 259.705773 -167.681993 
L 259.368797 -167.332741 
L 259.160194 -167.198089 
L 259.081566 -167.050393 
L 258.962822 -166.7327 
L 258.733358 -166.37419 
L 258.592149 -166.084689 
L 258.614614 -165.790981 
L 258.874567 -165.42111 
L 259.15217 -165.14802 
L 259.460262 -164.911959 
L 259.789214 -164.723867 
L 260.506491 -164.415431 
L 261.421139 -163.514528 
L 261.785393 -163.285621 
L 261.941044 -163.22082 
L 262.168903 -163.185894 
L 262.566855 -163.206934 
L 263.824897 -163.512845 
L 263.826502 -163.512845 
L 265.453612 -163.829276 
L 268.107695 -164.347685 
L 269.267867 -164.573559 
L 270.761779 -164.86441 
L 273.417467 -165.382398 
L 276.073154 -165.900385 
L 276.079573 -163.886503 
L 276.085992 -161.873042 
L 276.09241 -159.85916 
L 276.098829 -157.845699 
L 276.098947 -157.808656 
L 276.105247 -155.832658 
L 276.111666 -153.817934 
L 276.118085 -151.805315 
L 276.124503 -149.791853 
L 276.129317 -147.777971 
L 276.132131 -146.895149 
L 276.135736 -145.764089 
L 276.142154 -143.750207 
L 276.146968 -141.736325 
L 276.153387 -139.722443 
L 276.16141 -137.709403 
L 276.167829 -135.695521 
L 276.172642 -133.68248 
L 276.177456 -132.654921 
L 276.18227 -130.945688 
L 275.975271 -130.794205 
L 275.809993 -130.785789 
L 275.686435 -130.73277 
L 275.59497 -130.446636 
L 275.575714 -130.152085 
L 275.660761 -128.552257 
L 275.591761 -128.383101 
L 275.389576 -128.057412 
L 275.349459 -127.912662 
L 275.354273 -126.884261 
L 275.365506 -124.705431 
L 275.371925 -123.30253 
L 275.379948 -121.503249 
L 275.254785 -121.122017 
L 275.034949 -120.915831 
L 274.359393 -120.563213 
L 273.995139 -120.27792 
L 273.69828 -119.956439 
L 273.464001 -119.586148 
L 272.075983 -116.129811 
L 272.010193 -115.680411 
L 272.071169 -115.23017 
L 272.263727 -114.749633 
L 272.274959 -114.729435 
L 272.282982 -114.707554 
L 272.286192 -114.684832 
L 272.284587 -114.661268 
L 272.287796 -114.561962 
L 272.278168 -114.513992 
L 272.263727 -114.466864 
L 271.360311 -113.548709 
L 271.124429 -113.176734 
L 271.024941 -112.876293 
L 270.885336 -111.285722 
L 270.761779 -110.657909 
L 270.565186 -110.182093 
L 270.524291 -110.083115 
L 270.134362 -109.602578 
L 269.548667 -109.281518 
L 268.314695 -109.042091 
L 267.745046 -108.72566 
L 266.531934 -107.362313 
L 265.172799 -106.519058 
L 265.017149 -106.083123 
L 264.871126 -104.206838 
L 264.587104 -104.264907 
L 264.502058 -104.29352 
L 262.903831 -104.570818 
L 259.983377 -105.078707 
L 258.131616 -105.399346 
L 257.518641 -105.387143 
L 257.269921 -105.328233 
L 257.157596 -105.244076 
L 257.119085 -105.081232 
L 257.088597 -104.782053 
L 257.086992 -104.179908 
L 257.000341 -103.964886 
L 256.231716 -103.937956 
L 254.732977 -103.884937 
L 253.232634 -103.834022 
L 251.733895 -103.781003 
L 250.231947 -103.728404 
L 248.733209 -103.676648 
L 247.232865 -103.624891 
L 245.734127 -103.571872 
L 244.233783 -103.520536 
L 242.735045 -103.467517 
L 241.233097 -103.41576 
L 239.734358 -103.363583 
L 238.234015 -103.311405 
L 236.735276 -103.258386 
L 235.236538 -103.207471 
L 233.736194 -103.154452 
L 232.237456 -103.102275 
L 231.093343 -103.061038 
L 230.570229 -102.932698 
L 230.151417 -102.674756 
L 229.100374 -101.679597 
L 227.856774 -100.499292 
L 226.839429 -99.535271 
L 225.538062 -98.299844 
L 225.159365 -98.109227 
L 224.737344 -98.018338 
L 222.362469 -97.938388 
L 221.908354 -97.763762 
L 221.465472 -97.586611 
L 221.037032 -97.479311 
L 220.823614 -97.460796 
L 218.413437 -98.337294 
L 217.927229 -98.31373 
L 216.92232 -97.951854 
L 216.429293 -97.843711 
L 215.903772 -97.846657 
L 213.855442 -98.376006 
L 213.73028 -98.204746 
L 213.723861 -97.802474 
L 213.812116 -96.992461 
L 209.904805 -98.376006 
L 209.901596 -98.376006 
L 207.827592 -99.251241 
L 206.745259 -99.510866 
L 205.775251 -99.333715 
L 204.808051 -98.731149 
L 204.246024 -98.476994 
L 203.810363 -98.484569 
L 203.657119 -98.689071 
L 203.299283 -99.671185 
L 203.155667 -99.743561 
L 202.65195 -99.740525 
L 199.245949 -99.719996 
L 198.730858 -99.577771 
L 198.445543 -99.3643 
L 198.266313 -99.230202 
L 197.436712 -98.378531 
L 197.434305 -98.376847 
L 194.224576 -95.479291 
L 194.221805 -95.47679 
L 193.674621 -95.125854 
L 193.082507 -94.86665 
L 190.11632 -94.121017 
L 189.456009 -93.800378 
L 184.074028 -90.23632 
L 182.990893 -90.025507 
L 181.899734 -89.967017 
L 180.624041 -90.069268 
L 179.880288 -90.034764 
L 179.414139 -89.822267 
L 179.290581 -89.391382 
L 179.004954 -85.391811 
L 178.94478 -85.220551 
L 178.810792 -85.108201 
L 178.04862 -84.75708 
L 177.748517 -84.618827 
L 177.50782 -84.579694 
L 177.01038 -84.699618 
L 173.381475 -86.467761 
L 172.200456 -86.731593 
L 171.354808 -86.519096 
L 170.093557 -85.777251 
L 169.746151 -85.472602 
L 168.868829 -84.464935 
L 168.606051 -84.163115 
L 166.313414 -82.856995 
L 165.903026 -82.165644 
L 165.992083 -82.185 
L 166.037816 -82.160595 
L 166.062287 -82.12062 
L 166.087961 -82.094531 
L 165.481004 -79.983868 
L 165.206208 -79.517637 
L 164.959494 -78.893612 
L 165.032104 -78.020901 
L 165.468969 -76.48377 
L 164.92202 -76.270011 
L 164.385834 -76.060459 
L 164.272305 -76.041103 
L 164.16359 -76.091597 
L 164.053672 -76.164814 
L 163.923696 -76.212363 
L 163.545802 -76.2536 
L 163.423849 -76.218254 
L 163.242925 -76.124419 
L 162.972943 -75.819349 
L 162.794427 -75.752865 
L 162.685712 -76.003232 
L 162.642386 -76.241818 
L 162.566166 -76.395405 
L 162.289365 -76.664287 
L 161.900238 -76.90119 
L 161.575297 -76.891091 
L 161.235113 -76.817032 
L 160.80226 -76.862477 
L 160.109855 -77.401084 
L 159.696258 -77.548779 
L 159.387364 -77.234873 
L 159.708293 -76.983664 
L 159.810188 -76.592333 
L 159.745199 -75.68596 
L 159.663363 -75.302203 
L 159.433898 -74.70132 
L 159.982286 -70.639472 
L 159.768467 -70.495143 
L 157.22029 -70.337348 
L 156.878501 -70.199751 
L 156.820733 -69.739411 
L 157.002058 -69.174716 
L 157.019308 -68.881849 
L 156.864059 -68.620541 
L 156.675914 -68.570888 
L 156.4845 -68.600862 
L 155.829464 -68.703436 
L 155.482058 -68.695441 
L 155.380163 -68.713114 
L 155.242565 -68.806949 
L 154.993444 -69.075831 
L 154.890345 -69.117069 
L 154.685352 -69.08593 
L 154.575434 -69.118752 
L 153.304956 -70.134108 
L 152.595301 -70.575092 
L 151.443166 -71.524806 
L 151.156336 -71.647676 
L 150.520094 -71.823985 
L 149.984142 -72.042373 
L 149.731411 -72.092026 
L 149.421714 -72.064254 
L 149.117634 -72.073511 
L 148.757391 -72.169871 
L 148.564433 -72.328087 
L 148.757391 -72.521228 
L 148.890978 -72.599915 
L 149.205889 -72.905826 
L 149.32704 -72.953796 
L 149.472662 -72.976939 
L 149.580574 -73.042161 
L 149.590202 -73.217208 
L 149.505958 -73.26097 
L 149.132076 -73.333345 
L 148.99889 -73.38973 
L 148.948745 -73.491981 
L 148.868112 -73.815566 
L 148.852806 -73.838511 
L 148.777449 -73.951479 
L 148.71888 -73.996924 
L 148.662316 -74.012914 
L 148.607758 -73.997345 
L 148.557613 -73.949796 
L 148.348207 -73.696904 
L 148.437264 -73.627053 
L 148.635438 -73.613167 
L 148.757391 -73.524802 
L 148.675153 -73.372899 
L 148.468555 -73.185649 
L 148.233474 -73.029116 
L 148.067795 -72.968102 
L 147.878848 -72.899094 
L 147.64136 -72.620954 
L 147.500954 -72.532168 
L 147.085351 -72.420239 
L 146.95738 -72.352913 
L 146.697829 -72.103808 
L 146.536562 -71.807995 
L 146.273801 -71.145257 
L 146.032703 -70.75056 
L 145.739053 -70.401308 
L 145.570566 -70.307051 
L 145.421735 -70.314626 
L 145.276113 -70.344922 
L 145.126079 -70.31715 
L 144.890597 -70.151781 
L 144.609383 -69.890473 
L 144.380721 -69.602235 
L 144.309314 -69.3586 
L 144.416425 -69.205854 
L 144.745377 -69.016921 
L 144.780278 -68.875117 
L 144.671162 -68.731208 
L 144.494651 -68.680293 
L 143.500573 -68.730366 
L 143.239016 -68.616333 
L 143.044052 -68.074781 
L 142.946168 -67.941813 
L 142.865936 -67.798325 
L 142.865936 -67.598872 
L 142.954593 -67.452018 
L 143.404295 -67.025341 
L 143.818293 -66.090775 
L 144.017269 -65.810111 
L 144.468576 -65.414572 
L 144.756208 -65.040072 
L 144.880568 -64.58899 
L 144.828818 -63.664944 
L 145.026992 -62.926885 
L 145.005329 -62.731219 
L 144.681592 -61.675467 
L 144.52875 -61.473069 
L 144.505492 -61.457021 
L 144.316535 -61.326636 
L 144.026897 -61.224805 
L 143.701956 -61.183568 
L 143.489341 -61.246686 
L 143.046459 -61.519776 
L 142.589937 -61.620765 
L 142.074846 -61.581211 
L 141.558953 -61.448664 
L 141.106903 -61.266715 
L 140.942769 -61.242478 
L 140.837664 -61.269409 
L 140.782705 -61.224805 
L 140.688432 -60.379867 
L 140.824827 -60.110564 
L 141.499581 -59.573641 
L 141.757126 -59.311912 
L 142.084474 -58.549448 
L 142.220468 -58.338213 
L 142.30431 -58.281828 
L 142.309927 -58.220393 
L 142.208032 -57.996535 
L 141.988195 -57.695252 
L 141.69294 -57.397335 
L 141.428174 -57.068281 
L 141.304616 -56.675267 
L 141.867847 -55.29088 
L 142.011061 -54.593217 
L 141.550127 -54.499803 
L 141.410523 -54.625197 
L 141.28857 -54.801927 
L 141.136129 -54.930688 
L 140.907868 -54.916381 
L 140.737374 -54.80866 
L 140.69806 -54.696731 
L 140.70127 -54.565445 
L 140.646712 -54.310449 
L 140.673991 -54.126986 
L 140.653933 -54.029364 
L 140.593758 -53.962038 
L 139.225798 -52.798144 
L 139.614925 -52.020531 
L 139.463286 -51.848009 
L 138.996334 -51.826128 
L 138.440324 -51.50044 
L 138.276651 -51.182325 
L 138.24536 -50.920596 
L 138.182342 -50.752462 
L 138.167134 -50.711887 
L 137.858641 -50.55872 
L 137.701385 -50.54778 
L 137.386073 -50.587334 
L 137.221596 -50.546938 
L 137.058324 -50.402188 
L 136.947349 -50.192836 
L 136.843301 -49.99655 
L 136.720546 -49.831602 
L 136.497099 -49.693584 
L 136.05863 -49.615318 
L 135.790253 -49.52527 
L 135.48858 -49.79289 
L 135.162435 -49.798781 
L 134.499316 -49.5522 
L 134.177584 -49.555567 
L 133.845423 -49.637199 
L 133.508848 -49.669179 
L 133.171873 -49.52527 
L 133.031065 -49.399876 
L 132.880229 -49.313194 
L 132.717758 -49.271115 
L 132.541649 -49.281214 
L 132.258027 -49.248393 
L 131.645454 -49.26859 
L 131.403955 -49.248393 
L 131.176898 -49.142355 
L 130.663812 -48.822557 
L 130.185227 -48.66855 
L 129.950949 -48.460681 
L 129.538555 -47.981827 
L 128.936813 -47.476042 
L 128.626314 -47.030009 
L 128.518803 -46.938277 
L 128.404873 -46.922287 
L 128.319025 -46.966049 
L 128.234781 -47.032533 
L 128.130479 -47.083869 
L 128.031793 -47.07882 
L 127.961189 -47.027484 
L 127.902619 -46.969415 
L 127.837631 -46.938277 
L 127.297668 -46.845704 
L 127.247122 -46.8112 
L 127.130785 -46.683281 
L 127.048146 -46.657192 
L 126.959088 -46.690855 
L 126.768135 -46.830556 
L 126.699938 -46.855803 
L 126.488124 -46.824665 
L 126.388636 -46.793527 
L 126.391043 -46.712736 
L 126.487322 -46.529273 
L 126.573973 -46.494769 
L 126.975936 -46.251554 
L 127.036111 -46.183387 
L 127.305691 -46.239772 
L 127.439679 -46.229674 
L 127.600946 -46.179179 
L 127.903421 -46.043686 
L 128.148932 -45.883787 
L 128.332664 -45.659929 
L 128.450605 -45.335924 
L 128.46585 -45.049789 
L 128.432954 -44.692121 
L 128.299769 -44.055893 
L 128.21392 -43.890945 
L 128.097584 -43.720947 
L 128.011735 -43.544217 
L 128.014944 -43.359071 
L 128.133688 -43.17645 
L 128.273292 -43.14447 
L 128.432152 -43.16551 
L 128.607058 -43.138579 
L 129.159056 -42.680764 
L 129.302672 -42.107233 
L 129.303474 -40.759455 
L 129.387718 -40.387059 
L 129.401358 -40.176245 
L 129.275393 -40.034441 
L 128.937615 -39.866547 
L 128.700128 -39.654892 
L 128.63193 -39.359079 
L 128.739442 -37.660786 
L 128.709756 -37.397795 
L 128.517198 -37.0578 
L 128.028584 -36.547807 
L 127.881759 -36.172045 
L 127.786282 -35.508045 
L 127.628225 -35.2804 
L 127.259156 -35.041393 
L 126.999204 -34.925256 
L 126.733635 -34.842782 
L 125.186757 -34.637859 
L 124.962107 -34.484273 
L 124.913967 -34.228014 
L 124.940844 -34.082029 
L 125.096095 -33.238746 
L 124.999816 -32.815435 
L 125.352036 -32.902117 
L 125.562244 -32.451876 
L 125.850278 -31.31365 
L 126.035614 -30.970288 
L 126.092579 -30.771256 
L 125.876755 -29.831641 
L 125.881568 -29.694465 
L 125.859103 -29.533725 
L 125.758011 -29.456721 
L 125.630441 -29.392761 
L 125.525337 -29.272837 
L 125.445907 -29.031727 
L 125.297478 -28.158175 
L 125.305501 -28.011321 
L 125.382524 -27.744122 
L 125.40178 -27.606945 
L 125.640069 -27.512268 
L 125.486023 -27.366256 
L 125.378512 -27.104948 
L 125.360861 -26.855421 
L 125.477198 -26.743492 
L 125.52293 -26.588222 
L 125.312722 -25.733185 
L 124.947665 -25.144505 
L 124.888293 -25.010275 
L 124.762328 -24.180484 
L 124.677282 -23.944424 
L 124.256063 -24.109792 
L 123.914273 -24.341646 
L 123.717704 -24.412758 
L 123.56767 -24.407709 
L 123.136823 -24.293676 
L 122.271117 -24.205311 
L 120.272531 -23.748758 
L 119.158105 -23.13946 
L 118.92142 -22.959784 
L 118.742502 -22.687115 
L 118.678316 -22.390461 
L 118.744106 -21.498394 
L 118.562781 -21.357431 
L 117.839086 -21.619581 
L 117.656959 -21.471464 
L 117.601599 -21.064143 
L 117.494088 -20.716574 
L 117.309554 -20.405613 
L 117.017508 -20.107275 
L 115.62949 -20.097597 
L 114.456494 -20.530165 
L 114.24789 -20.666079 
L 113.942205 -21.051519 
L 113.77452 -21.168498 
L 113.538637 -21.118004 
L 113.487289 -21.721832 
L 113.528207 -21.942744 
L 113.719962 -22.162815 
L 113.757671 -22.136727 
L 113.831485 -22.069401 
L 113.936589 -22.027743 
L 114.064159 -22.076975 
L 114.097856 -22.161974 
L 114.076193 -22.269274 
L 114.038484 -22.365213 
L 114.030461 -22.421599 
L 114.409157 -22.859216 
L 114.178891 -23.05404 
L 114.22703 -23.35364 
L 114.461308 -23.858583 
L 114.207774 -24.167019 
L 114.154019 -24.323552 
L 114.187716 -24.464094 
L 114.353797 -24.757382 
L 114.380274 -24.853742 
L 114.310472 -25.013641 
L 114.219809 -25.071289 
L 114.094647 -25.066239 
L 113.916531 -25.037626 
L 113.811427 -25.070447 
L 113.722369 -25.167228 
L 113.63973 -25.281261 
L 113.559498 -25.365418 
L 113.419893 -25.383091 
L 113.289917 -25.346903 
L 113.20808 -25.387299 
L 113.213697 -25.632617 
L 113.286708 -25.764323 
L 113.57073 -26.00375 
L 113.672625 -26.138823 
L 113.693485 -26.331122 
L 113.649358 -26.527629 
L 113.559498 -26.753591 
L 113.683055 -26.899183 
L 113.852345 -26.979553 
L 114.007996 -27.075493 
L 114.090635 -27.268633 
L 114.038484 -27.397815 
L 113.897275 -27.520684 
L 113.728788 -27.614519 
L 113.43594 -27.724765 
L 113.391812 -27.854788 
L 113.469637 -28.526784 
L 113.447975 -28.752746 
L 113.290719 -28.84616 
L 112.917639 -28.793983 
L 112.55178 -28.629455 
L 112.262142 -28.422849 
L 111.959666 -28.275574 
L 111.558505 -28.289039 
L 111.239983 -28.342059 
L 110.902205 -28.323544 
L 110.635032 -28.188472 
L 110.526718 -27.892659 
L 110.497834 -27.253906 
L 110.578067 -27.030048 
L 110.758589 -26.911807 
L 110.951147 -26.816709 
L 111.066681 -26.663964 
L 111.011321 -26.283573 
L 110.72088 -26.079492 
L 110.340579 -26.0088 
L 110.014836 -26.029839 
L 109.16999 -26.203624 
L 108.918864 -26.29283 
L 108.289843 -26.642083 
L 107.97132 -26.866362 
L 107.737845 -27.087275 
L 107.421729 -27.649865 
L 107.21794 -27.785359 
L 106.875348 -27.66838 
L 106.895406 -27.615361 
L 106.677174 -27.232446 
L 106.641872 -27.218981 
L 106.568058 -26.914331 
L 106.535163 -26.614311 
L 106.564047 -26.475872 
L 106.620209 -26.363102 
L 106.663535 -26.232237 
L 106.586512 -25.491233 
L 106.434873 -24.967354 
L 106.462152 -24.688794 
L 106.659523 -24.371101 
L 106.775057 -24.308824 
L 106.945952 -24.254964 
L 107.111231 -24.181326 
L 107.207509 -24.061823 
L 107.205102 -23.885513 
L 107.125672 -23.742025 
L 107.023777 -23.616631 
L 106.956382 -23.496707 
L 106.889395 -22.973018 
L 106.879359 -22.894562 
L 106.747778 -22.699318 
L 106.391547 -22.579394 
L 106.046549 -22.618106 
L 105.461655 -22.977457 
L 105.122273 -23.090228 
L 104.783693 -23.054882 
L 103.869847 -22.61474 
L 103.570581 -22.572661 
L 102.690433 -22.687956 
L 102.34062 -22.631571 
L 102.156086 -22.426648 
L 101.783808 -21.131469 
L 101.818308 -20.913922 
L 101.982784 -20.767068 
L 102.186574 -20.631575 
L 102.335004 -20.451899 
L 102.369504 -20.036163 
L 102.179353 -19.692801 
L 101.85682 -19.443275 
L 101.49417 -19.309465 
L 101.109857 -19.296 
L 100.834661 -19.555204 
L 100.603592 -19.92255 
L 100.350058 -20.23267 
L 100.087698 -20.390465 
L 98.560076 -20.833973 
L 97.329313 -21.03048 
L 96.352084 -21.052361 
L 96.096946 -21.122211 
L 95.966167 -21.322926 
L 95.952528 -21.715099 
L 96.051213 -22.380362 
L 95.958144 -22.629888 
L 95.605924 -22.653452 
L 95.183902 -22.488504 
L 95.041089 -22.450212 
L 94.838904 -22.457786 
L 94.818043 -22.558354 
L 94.856555 -22.714466 
L 94.834892 -22.891196 
L 94.574137 -23.344383 
L 94.512358 -23.506806 
L 94.501126 -23.651136 
L 94.513963 -23.822396 
L 94.501126 -24.009645 
L 94.416882 -24.198578 
L 94.282894 -24.348378 
L 94.133662 -24.443055 
L 93.95314 -24.484292 
L 93.730094 -24.470827 
L 93.361026 -23.979349 
L 93.239875 -23.863212 
L 93.100672 -23.810614 
L 92.821865 -23.814821 
L 92.665412 -23.798411 
L 92.302762 -23.834178 
L 91.745148 -24.188479 
L 91.423416 -24.134198 
L 91.335963 -23.997863 
L 91.274987 -23.796307 
L 91.196359 -23.625888 
L 91.05836 -23.579602 
L 90.873825 -23.603166 
L 90.736628 -23.569503 
L 90.524815 -23.388144 
L 90.524815 -23.276636 
L 90.455013 -23.250547 
L 90.311397 -23.175647 
L 90.498338 -22.936641 
L 90.322229 -22.667759 
L 89.979236 -22.455262 
L 89.66633 -22.387094 
L 89.870922 -22.111059 
L 89.685586 -21.782425 
L 89.6559 -21.548047 
L 89.569249 -21.419286 
L 89.454517 -21.343545 
L 89.353424 -21.253917 
L 89.298866 -21.077608 
L 89.239494 -20.953476 
L 88.868019 -20.461998 
L 88.717984 -20.332817 
L 88.581991 -20.238561 
L 88.429951 -20.181334 
L 88.031999 -20.122845 
L 87.885976 -20.025222 
L 87.595535 -19.774013 
L 87.314722 -19.636416 
L 86.991386 -19.546368 
L 86.664841 -19.540477 
L 86.373598 -19.653247 
L 86.709771 -20.435068 
L 86.794015 -20.813775 
L 86.762724 -21.232037 
L 86.660027 -21.604432 
L 86.499562 -22.015119 
L 86.2709 -22.361006 
L 85.969227 -22.541523 
L 85.125184 -22.58276 
L 84.720813 -22.661868 
L 84.419942 -22.881939 
L 84.335698 -23.090228 
L 84.317245 -23.521113 
L 84.265896 -23.719303 
L 84.110246 -23.974299 
L 84.007548 -24.01217 
L 83.875165 -23.928854 
L 83.636073 -23.824079 
L 83.278237 -23.751283 
L 82.943669 -23.758436 
L 82.659646 -23.910761 
L 82.271322 -24.666492 
L 81.79715 -25.341012 
L 81.62465 -25.767689 
L 81.382349 -28.989648 
L 81.313349 -29.27957 
L 80.904164 -29.444939 
L 80.93706 -29.780726 
L 81.262 -30.687099 
L 81.371919 -30.812914 
L 81.464186 -30.960189 
L 81.498685 -31.263155 
L 81.47622 -32.9463 
L 81.382349 -33.313646 
L 81.142454 -33.688987 
L 80.820723 -34.002893 
L 80.478933 -34.183831 
L 80.292795 -34.178782 
L 79.992726 -34.00626 
L 79.840285 -33.983116 
L 79.551448 -34.08705 
L 79.41024 -34.110615 
L 79.246566 -34.067694 
L 78.931253 -34.055912 
L 78.619952 -34.159426 
L 78.360802 -34.160267 
L 77.958838 -33.285032 
L 77.804792 -33.036348 
L 77.525584 -32.838157 
L 77.276062 -32.75905 
L 77.000865 -32.725808 
L 76.720854 -32.732961 
L 76.459297 -32.776723 
L 76.15281 -32.743901 
L 75.884834 -32.599572 
L 75.640928 -32.52383 
L 75.403441 -32.693828 
L 75.333638 -32.949666 
L 75.39301 -33.236221 
L 75.52058 -33.505103 
L 75.658579 -33.710868 
L 76.374652 -34.46155 
L 76.538727 -34.786818 
L 76.54996 -34.971543 
L 76.510646 -35.127654 
L 76.51546 -35.287974 
L 76.658273 -35.483639 
L 76.785441 -35.534134 
L 77.099551 -35.539183 
L 77.236748 -35.614083 
L 77.368329 -35.870342 
L 77.457386 -36.450606 
L 77.645932 -36.732532 
L 77.757455 -36.801541 
L 78.075977 -36.944609 
L 78.207558 -37.03087 
L 78.262918 -37.051067 
L 78.416964 -37.065374 
L 78.469115 -37.103245 
L 78.496394 -37.220644 
L 78.461894 -37.318267 
L 78.413755 -37.398637 
L 78.40172 -37.460071 
L 78.565394 -37.824472 
L 78.710614 -37.940609 
L 79.310752 -37.799646 
L 79.585146 -37.765983 
L 79.898854 -37.783656 
L 80.182876 -37.883382 
L 80.364201 -38.099245 
L 80.452457 -38.520873 
L 80.293597 -38.594931 
L 80.009575 -38.546962 
L 79.723948 -38.601664 
L 79.597983 -38.845299 
L 79.78332 -39.056955 
L 80.105853 -39.212225 
L 80.385864 -39.287966 
L 80.039261 -39.585041 
L 79.572309 -39.816053 
L 78.634394 -40.111024 
L 78.205151 -40.123647 
L 78.022222 -40.195602 
L 77.898664 -40.435029 
L 77.838048 -40.731807 
L 77.767083 -41.079252 
L 77.680432 -41.282492 
L 77.28248 -40.959328 
L 76.863668 -40.988783 
L 76.016415 -41.385164 
L 75.842311 -41.620383 
L 75.670614 -41.92924 
L 75.54144 -42.257874 
L 75.489289 -42.551162 
L 75.145093 -43.724313 
L 74.933279 -43.87748 
L 74.718257 -43.823619 
L 74.46713 -43.704116 
L 74.146201 -43.656988 
L 73.866993 -43.75461 
L 73.611052 -43.914509 
L 73.349495 -44.035695 
L 73.059054 -44.015497 
L 73.838911 -48.172864 
L 73.826074 -48.366425 
L 73.742633 -48.526324 
L 73.637528 -48.681173 
L 73.560907 -48.859586 
L 73.537238 -49.208839 
L 73.552482 -49.516013 
L 73.485087 -49.792048 
L 73.20267 -50.04452 
L 72.880136 -50.104272 
L 72.524707 -50.061351 
L 72.182115 -50.080708 
L 71.896488 -50.324763 
L 71.8315 -50.632779 
L 71.898895 -50.987081 
L 72.131569 -51.627517 
L 72.146011 -51.991918 
L 72.024058 -52.352111 
L 71.820268 -52.637404 
L 71.587594 -52.775421 
L 71.281909 -52.647502 
L 71.093363 -52.64077 
L 70.979434 -52.825916 
L 70.927283 -52.988339 
L 70.776045 -53.247543 
L 70.725097 -53.409967 
L 70.750772 -53.836644 
L 70.91605 -54.180005 
L 71.11984 -54.504011 
L 71.260246 -54.865887 
L 71.234572 -55.225238 
L 71.06127 -55.59048 
L 70.782865 -55.896812 
L 70.256127 -56.17753 
L 68.399966 -57.166745 
L 67.745271 -57.390603 
L 66.559438 -57.650649 
L 66.356451 -57.638025 
L 66.240916 -57.535353 
L 66.12137 -57.464661 
L 65.902336 -57.548818 
L 65.695337 -57.673371 
L 65.605477 -57.688519 
L 65.498768 -57.668322 
L 65.239618 -57.478126 
L 64.505492 -57.29298 
L 64.281644 -57.001797 
L 64.364284 -56.835165 
L 64.588934 -56.556605 
L 64.869747 -56.281411 
L 65.297385 -56.042404 
L 65.339106 -55.921218 
L 65.347129 -55.776468 
L 65.421344 -55.621618 
L 65.538082 -55.551768 
L 65.799639 -55.492016 
L 65.887092 -55.412067 
L 65.897522 -55.20504 
L 65.829325 -54.896183 
L 65.690523 -54.63782 
L 65.485931 -54.578069 
L 65.53407 -54.190946 
L 65.457849 -53.980553 
L 65.095199 -53.602687 
L 64.142842 -53.772684 
L 63.873262 -53.734814 
L 63.241032 -53.426798 
L 62.9883 -53.245019 
L 62.681813 -52.958043 
L 60.934354 -52.35716 
L 60.440124 -52.025581 
L 60.205043 -51.76806 
L 60.094323 -51.51643 
L 60.07266 -51.238711 
L 60.105555 -50.902082 
L 60.031741 -50.695897 
L 59.837579 -50.416495 
L 59.462092 -49.999917 
L 58.597991 -50.020114 
L 58.318783 -50.112687 
L 58.160725 -50.211993 
L 57.908796 -50.414812 
L 57.743517 -50.483821 
L 57.635204 -50.482137 
L 57.317484 -50.430802 
L 57.168252 -50.434168 
L 56.888241 -50.572186 
L 56.353894 -51.012328 
L 56.06907 -51.096485 
L 55.757769 -51.149504 
L 55.217003 -51.444896 
L 54.920144 -51.53831 
L 54.731598 -51.632566 
L 54.414681 -51.888404 
L 54.226937 -51.988551 
L 54.06888 -52.026422 
L 53.810532 -52.038204 
L 53.758711 -52.054593 
L 53.65087 -52.088699 
L 53.528114 -52.16949 
L 53.316301 -52.35716 
L 53.16386 -52.427852 
L 53.052337 -52.443842 
L 52.673641 -52.427852 
L 52.370363 -52.488445 
L 51.825586 -52.755224 
L 51.313704 -52.86042 
L 51.21582 -52.960567 
L 51.140402 -53.067447 
L 51.016844 -53.13309 
L 50.426335 -52.889875 
L 50.332463 -52.697155 
L 50.292347 -52.698838 
L 50.247417 -52.792253 
L 50.137499 -52.875568 
L 50.106208 -52.839381 
L 50.039615 -52.687056 
L 49.89279 -52.606265 
L 49.751582 -52.595325 
L 49.663326 -52.531365 
L 49.674559 -52.297408 
L 49.444292 -52.379041 
L 49.341595 -52.432902 
L 49.2397 -52.519583 
L 49.035107 -52.380724 
L 48.501563 -51.921226 
L 48.392447 -51.787416 
L 48.24161 -51.551776 
L 47.499462 -51.612369 
L 47.217847 -51.508855 
L 47.2018 -51.352323 
L 47.32937 -51.024951 
L 47.274812 -50.963517 
L 47.129591 -50.894508 
L 47.123975 -50.737975 
L 47.1673 -50.565453 
L 47.164091 -50.447633 
L 46.848778 -50.216201 
L 46.537477 -50.063876 
L 46.36578 -49.866948 
L 46.474896 -49.507597 
L 46.234199 -49.428489 
L 45.91327 -49.258492 
L 45.631655 -49.059881 
L 45.511306 -48.896616 
L 45.453539 -48.671916 
L 45.31554 -48.371475 
L 45.144645 -48.093756 
L 44.990599 -47.94059 
L 44.75953 -47.827819 
L 44.11687 -47.800889 
L 43.666767 -48.281426 
L 43.035339 -49.524428 
L 42.619736 -49.957838 
L 42.547527 -50.13036 
L 42.569189 -50.262487 
L 42.721631 -50.550305 
L 42.763351 -50.695055 
L 42.663863 -51.148663 
L 42.384655 -51.385144 
L 42.020401 -51.562716 
L 41.659356 -51.840435 
L 41.035951 -52.845272 
L 40.758347 -53.053982 
L 40.378849 -53.16002 
L 40.069954 -53.145713 
L 39.395201 -52.915122 
L 39.033354 -52.928588 
L 38.823145 -52.883984 
L 38.706808 -52.719878 
L 38.505425 -52.020531 
L 38.326507 -51.810138 
L 37.825056 -51.438163 
L 37.811493 -51.421387 
L 37.74001 -51.332967 
L 37.519371 -50.971932 
L 37.395813 -50.910498 
L 37.264232 -50.902923 
L 37.160733 -50.848221 
L 37.063652 -50.377782 
L 36.897571 -50.066401 
L 36.667304 -49.820662 
L 36.421793 -49.751653 
L 36.16826 -49.737346 
L 35.668413 -49.523587 
L 35.365937 -49.52527 
L 35.060252 -49.636357 
L 34.742532 -49.802989 
L 34.439254 -50.01254 
L 34.180906 -50.243973 
L 33.55349 -51.112475 
L 33.276689 -51.343066 
L 32.325936 -51.778158 
L 32.033891 -52.048303 
L 31.751473 -52.706412 
L 32.001798 -53.183584 
L 32.443076 -53.656547 
L 32.732714 -54.30035 
L 32.7279 -54.675691 
L 32.626005 -55.320335 
L 32.691796 -55.685578 
L 32.933295 -55.822754 
L 33.307177 -55.805923 
L 33.601629 -55.84716 
L 33.604839 -56.163591 
L 33.633722 -56.596159 
L 33.738827 -57.026202 
L 33.770117 -57.406593 
L 33.573548 -57.688519 
L 33.539851 -57.595946 
L 33.417095 -57.395652 
L 33.388212 -57.542086 
L 33.290328 -57.808864 
L 33.256631 -57.94604 
L 33.161154 -58.206086 
L 33.040806 -58.158117 
L 32.953353 -57.984753 
L 32.962178 -57.864408 
L 32.837016 -57.978862 
L 32.657296 -58.302025 
L 32.544971 -58.376084 
L 32.372471 -58.437519 
L 32.483994 -58.54019 
L 32.806528 -58.694198 
L 32.845039 -58.881027 
L 32.825783 -58.998847 
L 32.789679 -59.110776 
L 32.776039 -59.28414 
L 32.856272 -59.798341 
L 32.853062 -59.967497 
L 32.776842 -60.134969 
L 32.655691 -60.223335 
L 32.53775 -60.268779 
L 32.478378 -60.308333 
L 32.463936 -60.548181 
L 32.559412 -60.670209 
L 32.680563 -60.756891 
L 32.845039 -61.185251 
L 33.049631 -61.252577 
L 33.264654 -61.292131 
L 33.391421 -61.502524 
L 33.362537 -61.656953 
L 33.198863 -61.958235 
L 33.198863 -62.031452 
L 33.307177 -62.149693 
L 33.340875 -62.326844 
L 33.326433 -62.521247 
L 33.293538 -62.687458 
L 33.243794 -62.824213 
L 33.176398 -62.941192 
L 33.119434 -63.016092 
L 33.099375 -63.030819 
L 33.060864 -63.044284 
L 32.987853 -63.054383 
L 32.926876 -63.092254 
L 32.920458 -63.192822 
L 32.958969 -63.28287 
L 33.005504 -63.351037 
L 33.029573 -63.421309 
L 32.980632 -63.685983 
L 33.038399 -63.854718 
L 33.12505 -64.023033 
L 33.190038 -64.188401 
L 33.15634 -64.274663 
L 33.06648 -64.357978 
L 32.991062 -64.446343 
L 33.002294 -64.54607 
L 33.104189 -64.601613 
L 33.214108 -64.563743 
L 33.311991 -64.508199 
L 33.380188 -64.509882 
L 33.514979 -64.622653 
L 33.614467 -64.684508 
L 33.666618 -64.782131 
L 33.633722 -65.205441 
L 33.59842 -65.39185 
L 33.527013 -65.558902 
L 33.397037 -65.700286 
L 33.359328 -65.417097 
L 33.246201 -65.23153 
L 33.06648 -65.154947 
L 32.824179 -65.202075 
L 32.866702 -65.364078 
L 32.904411 -65.681771 
L 32.906016 -65.821893 
L 32.957364 -65.887536 
L 33.044015 -65.956124 
L 33.068085 -66.024712 
L 32.933295 -66.090775 
L 32.871516 -66.143794 
L 32.811342 -66.246045 
L 32.723888 -66.445077 
L 32.509668 -66.761929 
L 32.540959 -66.855764 
L 32.626807 -66.979896 
L 32.644459 -67.09435 
L 32.480785 -67.160834 
L 32.228053 -67.227739 
L 32.032286 -67.349767 
L 31.848555 -67.493255 
L 31.633532 -67.626224 
L 31.359138 -67.692287 
L 31.281312 -67.95612 
L 31.274092 -68.525443 
L 31.129673 -68.740886 
L 30.945139 -68.915512 
L 30.795907 -69.115385 
L 30.749373 -69.40699 
L 30.807942 -69.582879 
L 31.006116 -69.876167 
L 31.030185 -70.05458 
L 30.963593 -70.211533 
L 30.612175 -70.53133 
L 30.229467 -71.07709 
L 30.117945 -71.3931 
L 30.11634 -71.747402 
L 30.004015 -71.693962 
L 29.80905 -71.642626 
L 29.637353 -71.662403 
L 29.596435 -71.823985 
L 29.617295 -72.055838 
L 29.546691 -72.126951 
L 29.15596 -72.112224 
L 28.852682 -72.046581 
L 28.705054 -72.065937 
L 28.549404 -72.191752 
L 28.460346 -72.35123 
L 28.349626 -72.479991 
L 28.127382 -72.512812 
L 27.889895 -72.382368 
L 27.733442 -72.111382 
L 27.641175 -71.777699 
L 27.601059 -71.462951 
L 26.949573 -70.958007 
L 26.864526 -70.866276 
L 26.777876 -70.875533 
L 26.593341 -71.032066 
L 26.522737 -71.145257 
L 26.426458 -71.459584 
L 26.367086 -71.58035 
L 26.246738 -71.670398 
L 25.835949 -71.878687 
L 25.699554 -71.916137 
L 25.662647 -72.095392 
L 25.88489 -72.968102 
L 25.918588 -73.257603 
L 25.811077 -73.446536 
L 25.685914 -73.501238 
L 25.542299 -73.519753 
L 25.38023 -73.602227 
L 25.291974 -73.707003 
L 25.153975 -73.949796 
L 25.056091 -74.062146 
L 24.159094 -74.7333 
L 23.87427 -75.063617 
L 23.530074 -75.614426 
L 23.335911 -76.202264 
L 23.016587 -76.835547 
L 22.807181 -77.156607 
L 22.593763 -77.343015 
L 23.918398 -78.104638 
L 24.438303 -78.652501 
L 24.685418 -79.37962 
L 24.777685 -80.039833 
L 24.780092 -80.370991 
L 24.685418 -80.677324 
L 24.414233 -81.011007 
L 24.124595 -81.237811 
L 23.871863 -81.494069 
L 23.716212 -81.916539 
L 23.717817 -82.592321 
L 24.066827 -83.841635 
L 24.180757 -84.502269 
L 24.14706 -84.862883 
L 23.574201 -86.232541 
L 23.42176 -86.471127 
L 23.203528 -86.620506 
L 22.591356 -86.848151 
L 22.402008 -87.012258 
L 22.252776 -87.214656 
L 22.125207 -87.438093 
L 22.354671 -87.524354 
L 22.422066 -87.726752 
L 22.314555 -87.940091 
L 20.867165 -88.487954 
L 20.666985 -88.52835 
L 20.695869 -89.234429 
L 20.656154 -89.565587 
L 20.473625 -90.276295 
L 20.438724 -90.61629 
L 20.532596 -90.896955 
L 20.826246 -91.080838 
L 20.939374 -91.183089 
L 20.981897 -91.361082 
L 20.997141 -91.559272 
L 21.029234 -91.725482 
L 21.143966 -91.89548 
L 21.446442 -92.1955 
L 21.533093 -92.338147 
L 21.547534 -92.609975 
L 21.429593 -92.708439 
L 21.271535 -92.746309 
L 21.162419 -92.839303 
L 21.125513 -93.017295 
L 21.155199 -93.127541 
L 21.224198 -93.244099 
L 21.310047 -93.439765 
L 21.137547 -93.449864 
L 20.885618 -93.501199 
L 20.650136 -93.610183 
L 20.530992 -93.793646 
L 20.435916 -94.020029 
L 20.127022 -94.302376 
L 20.00868 -94.777023 
" style="stroke: #000000"/>
    </defs>
    <g clip-path="url(#p921d419bfe)">
     <use xlink:href="#m4b95ef61ac" x="0" y="280.512" style="fill: #f5f5f5; stroke: #000000"/>
    </g>
   </g>
  </g>
 </g>
 <defs>
  <clipPath id="p921d419bfe">
   <rect x="7.2" y="7.2" width="281.79095" height="266.112"/>
  </clipPath>
 </defs>
</svg>
