<?xml version="1.0" encoding="utf-8" standalone="no"?>
<!DOCTYPE svg PUBLIC "-//W3C//DTD SVG 1.1//EN"
  "http://www.w3.org/Graphics/SVG/1.1/DTD/svg11.dtd">
<svg xmlns:xlink="http://www.w3.org/1999/xlink" width="257.051732pt" height="280.512pt" viewBox="0 0 257.051732 280.512" xmlns="http://www.w3.org/2000/svg" version="1.1">
 <metadata>
  <rdf:RDF xmlns:dc="http://purl.org/dc/elements/1.1/" xmlns:cc="http://creativecommons.org/ns#" xmlns:rdf="http://www.w3.org/1999/02/22-rdf-syntax-ns#">
   <cc:Work>
    <dc:type rdf:resource="http://purl.org/dc/dcmitype/StillImage"/>
    <dc:date>2024-03-04T13:11:11.899850</dc:date>
    <dc:format>image/svg+xml</dc:format>
    <dc:creator>
     <cc:Agent>
      <dc:title>Matplotlib v3.8.0, https://matplotlib.org/</dc:title>
     </cc:Agent>
    </dc:creator>
   </cc:Work>
  </rdf:RDF>
 </metadata>
 <defs>
  <style type="text/css">*{stroke-linejoin: round; stroke-linecap: butt}</style>
 </defs>
 <g id="figure_1">
  <g id="patch_1">
   <path d="M 0 280.512 
L 257.051732 280.512 
L 257.051732 0 
L 0 0 
z
" style="fill: #ffffff"/>
  </g>
  <g id="axes_1">
   <g id="PatchCollection_1">
    <path d="M 169.353287 19.296 
L 172.915504 21.540123 
L 176.477722 23.782253 
L 180.03715 26.026376 
L 183.597508 28.268506 
L 187.159725 30.512629 
L 190.720083 32.754759 
L 194.280441 34.998882 
L 197.841729 37.242008 
L 201.403017 39.486131 
L 204.963374 41.729257 
L 208.524662 43.972384 
L 212.08595 46.21551 
L 215.101421 48.115992 
L 218.117823 50.016474 
L 221.134224 51.917952 
L 223.709154 53.538585 
L 224.150626 53.816442 
L 226.328311 55.189013 
L 229.452574 57.252848 
L 232.575907 59.315688 
L 235.698775 61.379524 
L 238.822108 63.442363 
L 234.837278 63.445352 
L 230.853843 63.447344 
L 226.868548 63.449336 
L 222.885113 63.451328 
L 218.900748 63.454316 
L 214.916383 63.456308 
L 210.931088 63.4583 
L 206.946723 63.460293 
L 207.121533 64.996715 
L 207.294484 66.530149 
L 207.467434 68.065077 
L 207.642244 69.601001 
L 207.816124 71.134435 
L 207.989074 72.669363 
L 208.162954 74.204291 
L 208.336834 75.739717 
L 208.508004 77.302924 
L 208.520013 77.412599 
L 208.650191 78.605879 
L 208.935651 81.228504 
L 209.222972 83.851129 
L 209.35222 85.042915 
L 209.606066 87.369212 
L 209.859913 89.69551 
L 210.114689 92.021807 
L 210.368535 94.347607 
L 210.623311 96.674402 
L 210.876228 99.000202 
L 210.931796 99.507367 
L 211.131004 101.325503 
L 211.38485 103.651801 
L 211.639627 105.9776 
L 211.893473 108.302902 
L 212.146389 110.628701 
L 212.401166 112.955497 
L 212.655012 115.281296 
L 212.909788 117.607096 
L 213.163635 119.933891 
L 213.417481 122.259691 
L 213.671327 124.586486 
L 213.926103 126.91129 
L 214.17995 129.237089 
L 214.433796 131.563885 
L 214.687642 133.889684 
L 214.942419 136.215484 
L 215.196265 138.541283 
L 215.450111 140.867083 
L 215.57285 141.99761 
L 215.844364 144.480787 
L 216.114947 146.963964 
L 216.237686 148.0925 
L 216.465497 150.172273 
L 216.724922 152.580745 
L 216.982488 154.990214 
L 217.241913 157.398686 
L 217.500409 159.808155 
L 217.759834 162.216129 
L 218.0174 164.625099 
L 218.274966 167.034568 
L 218.534391 169.443538 
L 218.534391 169.445531 
L 218.805904 172.09754 
L 218.922134 173.223087 
L 219.036505 174.34714 
L 219.151805 175.471692 
L 219.267105 176.595745 
L 219.450284 178.384171 
L 219.633462 180.1716 
L 219.817571 181.959029 
L 219.999819 183.746458 
L 220.182068 185.534883 
L 220.365246 187.322313 
L 220.550285 189.109742 
L 220.732533 190.898167 
L 220.915712 192.684102 
L 221.09982 194.473025 
L 221.282999 196.259957 
L 221.466177 198.046888 
L 221.642847 199.786008 
L 221.822306 201.524132 
L 222.000835 203.263253 
L 222.177505 205.003369 
L 222.356964 206.741493 
L 222.534563 208.480613 
L 222.712163 210.218738 
L 222.891622 211.957858 
L 223.070151 213.696978 
L 223.247751 215.436099 
L 223.42535 217.174223 
L 223.604809 218.913343 
L 223.782409 220.653459 
L 223.960008 222.391584 
L 224.139467 224.1317 
L 224.317997 225.87082 
L 224.396103 226.647747 
L 224.554176 226.955529 
L 224.710389 227.263312 
L 225.418927 227.772298 
L 226.080974 228.244431 
L 226.878776 228.814177 
L 227.588245 229.323163 
L 228.325608 229.850079 
L 229.046234 230.366038 
L 229.132709 230.462656 
L 229.219184 230.561266 
L 229.237781 230.684777 
L 229.255448 230.808288 
L 229.154095 231.379031 
L 228.824932 233.20182 
L 228.496698 235.025605 
L 228.166605 236.849391 
L 227.839301 238.673176 
L 227.50084 240.544772 
L 227.163308 242.415373 
L 226.824846 244.287467 
L 226.488244 246.159561 
L 226.470577 246.253689 
L 226.457903 246.326097 
L 226.45384 246.34931 
L 226.437102 246.443438 
L 226.418506 246.538064 
L 226.418506 246.542546 
L 226.418506 246.547028 
L 226.418506 246.550016 
L 226.418506 246.554001 
L 226.418506 246.558981 
L 226.418506 246.561969 
L 226.418506 246.564957 
L 226.418506 246.568942 
L 226.418506 246.570934 
L 226.415716 246.573922 
L 226.412927 246.574918 
L 226.411997 246.57691 
L 226.411067 246.579898 
L 226.408277 246.580894 
L 226.406418 246.583883 
L 226.404558 246.585875 
L 226.400839 246.585875 
L 226.396189 246.585875 
L 226.39433 246.585875 
L 226.389681 246.585875 
L 226.385961 246.585875 
L 226.382242 246.585875 
L 226.379452 246.585875 
L 226.374803 246.585875 
L 226.368294 246.583883 
L 226.362715 246.58189 
L 226.357136 246.579898 
L 226.351557 246.577906 
L 226.345978 246.576412 
L 226.340399 246.573922 
L 226.33482 246.57193 
L 226.328311 246.569938 
L 223.499737 246.568942 
L 221.085872 246.567946 
L 219.953327 246.567946 
L 218.730587 246.567946 
L 217.424162 246.567448 
L 216.0387 246.565953 
L 213.631344 246.564957 
L 211.85827 246.564272 
L 211.055687 246.563961 
L 208.334045 246.562965 
L 205.492453 246.561969 
L 202.555088 246.560475 
L 199.544266 246.558981 
L 196.485092 246.558981 
L 193.401742 246.556989 
L 190.318392 246.555993 
L 187.260148 246.554997 
L 184.249326 246.554001 
L 181.311031 246.553005 
L 178.46851 246.551511 
L 175.747797 246.550016 
L 173.17121 246.550016 
L 170.764784 246.548024 
L 169.228688 246.547028 
L 167.790225 246.547028 
L 166.455905 246.547028 
L 165.236884 246.547028 
L 163.580423 246.545321 
L 163.303747 246.545036 
L 161.094385 246.544258 
L 160.474243 246.54404 
L 157.35463 246.543044 
L 157.46714 244.783505 
L 157.712618 243.466714 
L 157.656828 242.843678 
L 157.224452 242.645462 
L 156.873902 242.875552 
L 155.774831 244.244636 
L 155.510757 244.756611 
L 155.507967 245.317891 
L 155.795288 246.538064 
L 156.011011 247.605342 
L 151.544524 247.795589 
L 150.668149 247.983346 
L 150.310161 248.143712 
L 149.291056 248.766249 
L 148.602974 248.943548 
L 146.519203 248.748818 
L 144.427992 249.066063 
L 143.696208 249.04415 
L 143.27685 248.914164 
L 142.622243 248.479384 
L 142.254956 248.295611 
L 142.11641 248.284655 
L 141.785386 248.348402 
L 141.628243 248.347406 
L 140.089358 247.707936 
L 139.839231 247.67158 
L 138.97355 247.740806 
L 138.476085 247.640702 
L 136.640581 247.608828 
L 136.369068 247.659129 
L 136.018518 247.58293 
L 135.720969 247.631737 
L 135.123144 247.844435 
L 135.07566 247.861329 
L 134.720461 247.915614 
L 133.96915 247.907148 
L 132.884027 247.733833 
L 132.592987 247.749272 
L 132.394931 247.950476 
L 132.327053 248.317524 
L 132.349369 249.115866 
L 132.207103 249.521263 
L 132.068557 249.665691 
L 131.777517 249.838508 
L 131.578531 250.151768 
L 131.427897 250.182148 
L 131.246578 250.182148 
L 131.051312 250.253865 
L 130.760272 250.551188 
L 130.631024 250.865445 
L 130.457144 251.575636 
L 130.254439 251.901347 
L 129.769992 252.379456 
L 129.614709 252.689729 
L 129.338546 253.787885 
L 129.177684 254.113098 
L 128.586306 253.166841 
L 127.917751 252.482548 
L 127.422146 251.47852 
L 126.834487 250.888355 
L 122.285709 247.402644 
L 121.949107 247.005216 
L 120.281904 244.489169 
L 119.827212 244.080784 
L 119.405994 243.896513 
L 118.377591 243.675388 
L 118.215799 243.693815 
L 118.162798 243.711246 
L 118.193483 243.792425 
L 118.240904 243.852189 
L 118.302274 243.900498 
L 118.377591 243.948308 
L 118.418504 244.044428 
L 118.432451 244.14254 
L 118.418504 244.241648 
L 118.377591 244.33727 
L 118.217658 244.526023 
L 118.007515 244.629613 
L 117.528647 244.777528 
L 117.229238 244.956321 
L 116.587649 245.665515 
L 116.061359 245.949392 
L 115.580632 245.911542 
L 115.099904 245.749682 
L 115.024512 245.737731 
L 114.568966 245.665515 
L 114.568966 246.324409 
L 114.526193 246.535076 
L 114.068712 247.055019 
L 113.838111 247.669588 
L 113.55358 249.04415 
L 112.951974 250.389329 
L 112.877587 250.697609 
L 112.774374 251.613984 
L 112.434983 252.644906 
L 112.38942 253.04831 
L 112.405228 253.229593 
L 112.461018 253.497533 
L 112.444281 253.695749 
L 112.235067 254.472676 
L 112.192294 255.054374 
L 112.16068 255.151988 
L 112.338279 255.287951 
L 112.456369 255.242132 
L 112.551213 255.151988 
L 112.665583 255.151988 
L 112.875727 255.330283 
L 113.008694 255.546428 
L 113.057046 255.820842 
L 113.018922 256.171954 
L 113.018922 256.174942 
L 112.885955 256.476748 
L 112.792041 256.81989 
L 112.699987 257.514642 
L 112.714865 257.632177 
L 112.764146 257.723815 
L 112.888745 257.900615 
L 112.889674 258.024625 
L 112.787392 258.090365 
L 112.660934 258.126223 
L 112.589336 258.157101 
L 112.527967 258.24575 
L 112.435912 258.347348 
L 112.341999 258.477334 
L 112.272261 258.654134 
L 112.129995 258.909126 
L 111.862201 259.151168 
L 111.533968 259.333447 
L 110.809622 259.496303 
L 110.552056 259.728883 
L 110.12619 260.339965 
L 109.810974 260.567565 
L 109.458564 260.669661 
L 109.098716 260.668167 
L 108.763974 260.583502 
L 108.631007 260.6851 
L 108.536163 260.987404 
L 108.391108 261.216 
L 108.192122 261.107429 
L 107.432443 260.401721 
L 107.15907 260.249822 
L 106.775046 260.317554 
L 106.000489 260.603423 
L 105.61321 260.656214 
L 105.217099 260.587486 
L 104.905137 260.434591 
L 103.907419 259.620312 
L 102.775338 259.064511 
L 102.458728 258.787606 
L 101.851542 258.035083 
L 101.603275 257.880694 
L 101.593047 257.673016 
L 101.173689 256.135099 
L 101.088143 255.947342 
L 100.93286 255.763569 
L 100.740848 255.653006 
L 100.319631 255.551408 
L 100.128548 255.434371 
L 99.814262 255.187348 
L 98.823053 254.578258 
L 98.590593 254.272966 
L 98.448792 254.125549 
L 98.280956 254.064291 
L 98.004329 254.108118 
L 97.435267 254.288903 
L 97.24971 254.31404 
L 97.236746 254.315796 
L 96.755553 254.103137 
L 96.223116 253.56892 
L 96.080489 253.425817 
L 95.627192 253.274914 
L 95.606271 253.223119 
L 95.550945 253.04831 
L 95.538858 252.896411 
L 95.636026 252.407346 
L 95.632306 252.248972 
L 95.587209 252.101057 
L 95.49283 251.968581 
L 95.329179 251.850548 
L 95.14786 251.796761 
L 94.957707 251.796761 
L 94.573219 251.879932 
L 94.401198 251.876446 
L 94.241266 251.817678 
L 94.084588 251.688689 
L 93.673133 251.260881 
L 93.564807 251.020333 
L 93.747985 250.876402 
L 94.36261 250.94264 
L 94.661088 250.892339 
L 94.758257 250.624897 
L 94.641562 250.309644 
L 94.412356 250.058139 
L 93.340715 249.298643 
L 93.122203 249.054111 
L 92.973894 248.757783 
L 92.90555 248.443526 
L 92.902761 247.798079 
L 92.868822 247.64867 
L 92.787925 247.504242 
L 92.607072 247.256721 
L 92.547562 247.125739 
L 92.475034 246.592847 
L 92.419709 246.425509 
L 92.306268 246.282574 
L 92.020807 246.145118 
L 91.739066 246.184961 
L 91.474526 246.337856 
L 91.236487 246.537068 
L 90.964509 246.711876 
L 90.706478 246.74624 
L 90.155599 246.598834 
L 90.052336 246.51615 
L 89.989107 246.33935 
L 89.955632 246.175498 
L 89.953308 246.007662 
L 90.05466 245.28253 
L 90.012353 245.011104 
L 89.88264 244.784501 
L 89.690163 244.600728 
L 89.465142 244.464267 
L 89.050898 244.347728 
L 88.919326 244.292447 
L 88.586443 244.042934 
L 88.457195 243.988151 
L 88.19498 243.97321 
L 87.655208 244.07182 
L 87.384624 244.079788 
L 87.214464 243.600684 
L 87.188428 243.438326 
L 87.207955 243.267004 
L 87.273974 243.110622 
L 87.545952 242.669368 
L 87.577566 242.527927 
L 87.55711 242.386487 
L 87.479933 242.226121 
L 87.274903 241.914354 
L 87.154024 241.779886 
L 87.009899 241.663347 
L 86.734666 241.496009 
L 86.608673 241.393415 
L 86.515689 241.261935 
L 86.491978 241.097586 
L 86.531961 240.934232 
L 86.591936 240.770878 
L 86.631919 240.60852 
L 86.626805 240.235994 
L 86.54033 239.907294 
L 86.380397 239.610468 
L 86.054488 239.216029 
L 85.977776 239.100486 
L 85.939188 238.970998 
L 85.939188 238.812624 
L 86.007996 238.486913 
L 86.019154 238.322563 
L 85.979636 238.162197 
L 85.874564 238.013785 
L 85.420337 237.655203 
L 85.262264 237.485873 
L 85.126508 237.301602 
L 85.010743 237.101394 
L 84.760616 236.451963 
L 84.735975 236.30355 
L 84.717843 235.965886 
L 84.672746 235.817473 
L 84.564419 235.679021 
L 84.069279 235.333388 
L 83.98048 235.220833 
L 83.83589 234.960861 
L 83.746625 234.858267 
L 83.475577 234.851295 
L 82.819574 235.117243 
L 82.636861 234.987755 
L 82.66987 234.688937 
L 82.971603 234.103254 
L 82.938594 233.834318 
L 82.819574 233.809416 
L 82.716827 233.813401 
L 82.617334 233.845275 
L 82.372321 233.948865 
L 81.424814 234.158037 
L 80.878998 234.403068 
L 80.742776 234.445899 
L 80.679547 234.452871 
L 80.34155 234.454863 
L 80.237873 234.477773 
L 79.745058 234.750693 
L 79.627433 234.783563 
L 79.501905 234.760653 
L 79.462387 234.735752 
L 79.344297 234.628178 
L 79.29455 234.600288 
L 79.184364 234.556461 
L 79.140662 234.529568 
L 79.117416 234.501678 
L 79.089521 234.43295 
L 79.069529 234.40008 
L 78.988168 234.338324 
L 78.801735 234.262624 
L 78.716655 234.20784 
L 78.659005 234.00564 
L 78.739427 233.751356 
L 78.841718 233.427926 
L 78.878447 233.180903 
L 78.706427 233.159985 
L 78.53952 233.16895 
L 78.380982 233.214769 
L 78.228489 233.306406 
L 78.092732 233.44187 
L 77.773332 233.921971 
L 77.650593 234.06142 
L 77.360483 234.292505 
L 77.065724 234.468808 
L 76.923923 234.522595 
L 76.777938 234.537536 
L 76.625909 234.497694 
L 76.462722 234.392111 
L 76.319992 234.248679 
L 76.206551 234.079349 
L 76.121006 233.895078 
L 75.968977 233.37613 
L 75.879713 233.219749 
L 75.761158 233.087273 
L 75.477557 232.864156 
L 75.329247 232.773514 
L 74.623498 232.559361 
L 74.317116 232.387043 
L 74.250168 232.079261 
L 74.342222 231.733628 
L 74.335713 231.57127 
L 74.256677 231.397956 
L 74.079542 231.157905 
L 74.042813 231.032402 
L 74.076288 230.869048 
L 74.189728 230.572222 
L 74.177175 230.437754 
L 74.069314 230.30727 
L 73.903802 230.212645 
L 73.549998 230.070208 
L 73.390066 229.962634 
L 73.07578 229.573174 
L 72.953971 229.456635 
L 72.356548 229.09905 
L 71.287697 228.097014 
L 70.676792 227.35993 
L 70.25046 227.047167 
L 70.122607 226.924652 
L 69.817155 226.510291 
L 69.67117 226.420645 
L 69.46614 226.382795 
L 69.034694 226.351917 
L 68.847332 226.261276 
L 68.753883 226.111867 
L 68.730172 225.76723 
L 68.669267 225.617821 
L 68.494922 225.53216 
L 67.805446 225.595908 
L 67.637145 225.517219 
L 67.60646 225.369802 
L 67.701304 225.003252 
L 67.708742 224.792088 
L 67.633425 224.648655 
L 67.494414 224.550045 
L 66.353965 224.084885 
L 66.001091 224.107795 
L 65.828606 224.177519 
L 65.356712 224.47036 
L 65.178647 224.555025 
L 64.99082 224.607817 
L 64.798343 224.630726 
L 64.603541 224.626742 
L 63.874082 224.469364 
L 63.68207 224.474345 
L 62.928434 224.694474 
L 62.729448 224.701446 
L 62.531392 224.665588 
L 62.025559 224.417569 
L 61.867487 224.37175 
L 61.688957 224.376731 
L 61.080842 224.541081 
L 60.873488 224.566978 
L 57.800366 224.337884 
L 57.25176 224.473349 
L 56.919807 224.420557 
L 56.732909 224.176523 
L 56.59611 223.896762 
L 56.579486 223.862764 
L 56.344236 223.602792 
L 56.139671 223.495218 
L 55.73798 223.667536 
L 55.552942 223.795032 
L 55.436712 223.973327 
L 55.379992 224.243259 
L 55.340009 224.367766 
L 55.251674 224.486297 
L 55.140093 224.572955 
L 55.012705 224.628734 
L 54.878808 224.641683 
L 54.74956 224.597856 
L 54.561733 224.412589 
L 54.420397 224.191464 
L 54.257675 224.004204 
L 53.99825 223.923524 
L 53.741614 223.996236 
L 53.585401 224.186483 
L 53.549137 224.435498 
L 53.656068 224.693478 
L 53.947108 224.987315 
L 54.006618 225.109831 
L 54.000109 225.253263 
L 53.922933 225.36283 
L 53.805773 225.442515 
L 53.426398 225.589932 
L 51.49419 225.904686 
L 51.20408 225.915643 
L 50.352346 225.776195 
L 49.774916 225.797112 
L 49.494104 225.859864 
L 48.736284 226.186571 
L 48.483368 226.252311 
L 48.218363 226.258288 
L 47.996131 226.159678 
L 47.873393 225.979391 
L 47.77018 225.783167 
L 47.600949 225.638738 
L 47.328506 225.613837 
L 47.067221 225.735356 
L 46.84406 225.940545 
L 46.407035 226.587983 
L 46.234084 226.756317 
L 46.020221 226.865884 
L 45.754287 226.892778 
L 44.98159 226.728428 
L 44.707287 226.77325 
L 44.494354 226.909711 
L 44.096382 227.287217 
L 43.848115 227.450571 
L 43.58218 227.543205 
L 43.306018 227.559142 
L 43.024276 227.484437 
L 42.599339 227.275265 
L 42.446846 227.22845 
L 41.862906 227.194584 
L 41.049296 226.918675 
L 40.761975 226.903734 
L 40.318441 226.986407 
L 40.166878 226.986407 
L 39.538306 226.82903 
L 39.284459 226.858912 
L 38.571272 227.187611 
L 38.438305 227.214505 
L 38.324864 227.203548 
L 38.092404 227.107927 
L 37.9427 227.071072 
L 37.807873 227.094978 
L 37.680485 227.163706 
L 37.552167 227.258332 
L 37.122581 227.321083 
L 36.716241 227.272276 
L 36.351743 227.089997 
L 36.046756 226.756317 
L 35.829173 226.421641 
L 35.696206 226.279205 
L 35.530695 226.174619 
L 35.303814 226.1288 
L 35.087161 226.168642 
L 34.880736 226.268248 
L 34.351657 226.657708 
L 34.168479 226.746357 
L 33.963914 226.784207 
L 33.762139 226.769266 
L 33.167041 226.651731 
L 32.756982 226.737392 
L 32.373887 226.979435 
L 32.041934 227.313115 
L 31.792737 227.674685 
L 31.656981 228.036254 
L 31.563067 228.805212 
L 30.826633 232.067308 
L 30.749457 232.293414 
L 30.636016 232.489637 
L 30.355204 232.680881 
L 29.691299 232.845231 
L 29.429084 233.079305 
L 29.298906 233.466772 
L 29.21894 234.77161 
L 28.906514 235.548537 
L 28.658246 236.400168 
L 28.551315 236.621293 
L 28.508542 238.719991 
L 28.331872 239.782787 
L 27.925012 240.50653 
L 28.195178 237.257963 
L 28.160035 235.552897 
L 27.981388 231.670617 
L 28.160035 230.40868 
L 28.28743 230.065157 
L 28.78603 229.080862 
L 28.936122 228.114606 
L 29.088411 227.829905 
L 29.278039 227.321679 
L 29.277307 225.251914 
L 29.42081 224.409577 
L 30.861696 220.611217 
L 31.245347 219.962602 
L 31.510388 218.659097 
L 31.817894 218.023815 
L 32.680376 216.761877 
L 34.219371 213.319589 
L 34.324802 212.846657 
L 34.578128 212.489801 
L 36.262823 207.045197 
L 36.802423 204.68681 
L 36.938604 202.126858 
L 37.249039 199.039857 
L 37.049892 195.545805 
L 36.43488 188.942008 
L 36.234269 188.254177 
L 35.308821 186.154609 
L 34.882706 183.767203 
L 34.571539 182.984472 
L 34.733346 182.527226 
L 34.704059 182.000177 
L 34.002652 179.329639 
L 33.898686 179.07631 
L 33.384711 177.820648 
L 32.595445 176.482634 
L 31.532353 175.223834 
L 31.193364 174.901487 
L 31.12088 174.860703 
L 31.057182 174.727372 
L 30.907822 174.687373 
L 30.729908 174.667766 
L 30.578351 174.592473 
L 30.273042 174.385418 
L 29.57017 174.174442 
L 29.277307 173.999543 
L 29.144055 173.776802 
L 28.84387 172.9627 
L 28.78603 172.617608 
L 28.601526 172.250556 
L 28.253751 171.943895 
L 28.048747 171.656842 
L 28.29402 171.355671 
L 29.339541 171.642724 
L 30.346257 171.494492 
L 31.220454 170.98156 
L 31.867681 170.170595 
L 32.293797 169.423943 
L 32.396299 169.049048 
L 32.557373 168.794935 
L 32.594713 168.663957 
L 32.539801 168.536116 
L 32.419728 168.461608 
L 32.301118 168.45298 
L 32.247671 168.526705 
L 32.154687 168.518862 
L 31.153827 169.632566 
L 30.639853 170.052166 
L 31.377135 168.460823 
L 31.122344 168.602782 
L 30.393115 169.221593 
L 30.13686 169.513353 
L 30.013858 169.696879 
L 29.906231 169.910992 
L 29.871087 170.139223 
L 29.958214 170.362748 
L 29.965535 170.482746 
L 29.811782 170.847445 
L 29.767853 171.031756 
L 29.722459 171.087441 
L 29.616296 171.120381 
L 29.49549 171.12744 
L 29.40031 171.103911 
L 29.315379 171.045089 
L 29.303665 171.007442 
L 29.309522 170.953326 
L 29.277307 170.840387 
L 29.247289 170.685095 
L 29.253878 170.212947 
L 29.277307 170.052166 
L 29.447168 169.750995 
L 29.917213 169.245122 
L 30.013858 168.915717 
L 30.081216 168.514156 
L 30.25547 168.314944 
L 30.495618 168.169064 
L 30.762855 167.934559 
L 32.481229 165.289903 
L 32.589588 165.188728 
L 32.711126 165.110298 
L 32.8107 165.005202 
L 32.850236 164.823245 
L 32.872201 164.438938 
L 32.928577 164.293058 
L 33.042062 164.238158 
L 33.077205 164.164433 
L 33.393497 163.814636 
L 33.476963 163.699344 
L 33.482088 163.493073 
L 33.438159 163.320528 
L 33.348103 163.172295 
L 33.220708 163.040533 
L 33.361282 162.912692 
L 33.45207 162.75897 
L 33.490142 162.581718 
L 33.476963 162.382506 
L 33.192154 162.546425 
L 33.097706 162.646031 
L 33.04499 162.340154 
L 33.30271 161.866437 
L 33.220708 161.593501 
L 32.888309 161.384878 
L 32.660607 161.548796 
L 32.528087 161.833497 
L 32.481229 161.987219 
L 32.185437 162.169177 
L 32.056577 162.080551 
L 32.046327 161.847614 
L 32.113686 161.593501 
L 32.213259 161.379388 
L 32.322351 161.215469 
L 33.381783 160.122941 
L 33.680503 159.653146 
L 33.833524 159.080607 
L 33.754451 158.605322 
L 33.210458 157.631223 
L 32.984953 157.106527 
L 33.126992 157.116723 
L 33.255852 157.105742 
L 33.372265 157.059469 
L 33.476963 156.963 
L 33.875257 156.337129 
L 34.02901 155.953607 
L 34.090511 155.574791 
L 34.044385 155.224993 
L 33.923579 154.934803 
L 33.40814 154.132465 
L 33.298317 154.072074 
L 33.042062 154.056388 
L 32.870737 153.973252 
L 32.787271 153.792863 
L 32.733091 153.610906 
L 32.660607 153.530123 
L 32.374334 153.350519 
L 31.867681 152.081523 
L 31.702213 151.906624 
L 31.544067 151.793685 
L 31.423993 151.673688 
L 31.377135 151.483103 
L 31.426922 151.417222 
L 31.529424 151.379575 
L 31.601908 151.327812 
L 31.566764 151.220363 
L 31.516245 151.141933 
L 31.399832 150.905074 
L 31.322956 150.539591 
L 30.644978 148.745115 
L 30.467796 148.480022 
L 30.204219 148.373357 
L 30.056323 148.132578 
L 30.032894 147.653371 
L 29.954553 147.304358 
L 29.646315 147.45259 
L 29.277307 147.20083 
L 29.277307 147.057304 
L 30.091467 146.824367 
L 30.33015 146.710643 
L 29.958214 146.662017 
L 29.322701 146.77025 
L 29.032035 146.709075 
L 28.78603 146.400061 
L 28.920014 146.268299 
L 28.663027 145.728701 
L 28.542221 145.639291 
L 28.160035 145.47851 
L 28.034104 146.318494 
L 28.17541 148.183557 
L 27.925012 148.911386 
L 27.742705 148.611784 
L 27.508415 148.400808 
L 27.054477 148.109833 
L 26.905849 147.943561 
L 26.675219 147.49259 
L 26.506823 147.261221 
L 26.282051 147.097303 
L 25.717557 146.796916 
L 25.579911 146.662017 
L 25.566 146.442413 
L 25.651663 146.351434 
L 25.76588 146.318494 
L 25.825916 146.268299 
L 25.820791 146.103596 
L 25.717557 145.945168 
L 25.692664 145.802425 
L 25.607733 145.513803 
L 25.402729 145.280866 
L 24.904862 144.88009 
L 24.836772 144.732641 
L 24.841897 144.375001 
L 24.776002 144.222063 
L 24.474354 143.887167 
L 24.270814 142.979733 
L 24.16099 142.762482 
L 23.972093 142.527977 
L 23.847627 142.243276 
L 23.772947 141.939753 
L 23.737803 141.648778 
L 23.659462 141.742109 
L 23.545246 141.835441 
L 23.49253 141.912302 
L 23.23115 141.652699 
L 23.127184 141.36094 
L 23.079593 141.046436 
L 22.989538 140.716246 
L 22.875321 140.578994 
L 22.710586 140.444094 
L 22.561958 140.263706 
L 22.497528 139.986848 
L 22.400883 139.798616 
L 21.970375 139.20098 
L 21.872265 138.933535 
L 21.835658 138.662167 
L 21.74487 138.353938 
L 21.515705 137.80885 
L 21.173055 137.379054 
L 20.927782 137.526502 
L 20.459201 138.406486 
L 19.688972 139.464505 
L 19.508129 139.619012 
L 19.404894 139.84489 
L 19.538879 140.189197 
L 19.740955 140.090376 
L 19.762919 140.419781 
L 19.649435 141.123297 
L 19.611363 141.749168 
L 19.538879 141.912302 
L 19.365358 142.029163 
L 18.948028 142.155435 
L 18.800864 142.306805 
L 18.788418 142.475429 
L 18.871152 142.621308 
L 19.046869 142.822089 
L 19.176461 143.129534 
L 19.188176 143.256591 
L 19.169872 143.49188 
L 18.998547 144.305983 
L 18.845526 144.729504 
L 18.66688 144.939696 
L 18.229624 142.861194 
L 18.297038 142.287464 
L 18.718255 140.534399 
L 18.83774 139.918834 
L 19.601603 137.711565 
L 19.947504 135.862879 
L 20.25993 134.190494 
L 20.431021 134.031125 
L 22.518512 134.031125 
L 23.263314 134.031125 
L 25.364752 134.030129 
L 28.630351 134.030129 
L 32.866703 134.030129 
L 37.881331 134.028137 
L 43.476179 134.02714 
L 49.4597 134.02714 
L 55.636628 134.025148 
L 61.813556 134.025148 
L 67.796147 134.024152 
L 68.351923 134.024053 
L 73.391925 134.023156 
L 78.404693 134.02216 
L 82.641975 134.021164 
L 85.908968 134.021164 
L 88.009942 134.021164 
L 88.754279 134.020168 
L 91.389911 134.020168 
L 91.19325 130.899513 
L 91.086801 129.230124 
L 90.578625 121.260643 
L 90.281774 116.441208 
L 89.984922 111.621773 
L 89.750603 110.37371 
L 88.875623 107.895513 
L 88.686401 106.663885 
L 88.923975 105.366518 
L 89.506985 104.141862 
L 91.046335 101.989377 
L 91.389911 101.550115 
L 93.191941 100.315499 
L 95.444014 98.777085 
L 97.382266 97.449337 
L 98.512021 96.676893 
L 99.610627 96.301876 
L 102.641906 95.873072 
L 103.290005 95.681331 
L 107.236246 93.814217 
L 109.068961 93.320171 
L 109.30979 93.011393 
L 109.382317 92.352499 
L 109.382317 90.796156 
L 109.382317 89.339917 
L 109.382317 87.882183 
L 109.382317 86.42445 
L 109.382317 84.967712 
L 109.382317 83.509979 
L 109.382317 82.052744 
L 109.382317 80.596504 
L 109.382317 79.139269 
L 109.382317 77.682033 
L 109.382317 76.224798 
L 109.382317 74.768061 
L 109.382317 73.310825 
L 109.382317 71.854586 
L 109.382317 70.396853 
L 109.382317 68.939617 
L 109.382317 67.482382 
L 109.382317 66.026142 
L 109.382317 64.568907 
L 109.382317 63.111174 
L 109.382317 61.654934 
L 109.382317 60.199193 
L 109.382317 58.741958 
L 109.382317 57.283726 
L 109.382317 55.826491 
L 109.382317 54.370251 
L 109.382317 52.913016 
L 109.382317 51.455781 
L 109.382317 49.999541 
L 109.382317 48.542306 
L 109.382317 47.085071 
L 109.382317 45.628831 
L 109.382317 44.1706 
L 111.194576 44.169604 
L 113.007764 44.169604 
L 114.818163 44.169604 
L 116.631351 44.169604 
L 118.44361 44.169604 
L 120.256798 44.169604 
L 122.069056 44.169604 
L 123.881315 44.169604 
L 125.694503 44.169604 
L 127.505832 44.169604 
L 129.31902 44.169604 
L 131.131278 44.169604 
L 132.943537 44.169604 
L 134.755795 44.169604 
L 136.568053 44.169604 
L 138.381242 44.169604 
L 140.1935 44.169604 
L 142.004829 44.169604 
L 143.818017 44.169604 
L 145.630275 44.169604 
L 147.443464 44.169604 
L 149.254792 44.169604 
L 151.067051 44.169604 
L 152.880239 44.169604 
L 154.692497 44.169604 
L 156.504756 44.169604 
L 158.317014 44.169604 
L 160.129273 44.169604 
L 161.942461 44.169604 
L 163.753789 44.169604 
L 165.566048 44.169604 
L 167.380166 44.168608 
L 168.906499 44.168608 
L 169.258443 44.07199 
L 169.381647 43.818991 
L 169.381647 42.946442 
L 169.380717 42.680494 
L 169.380717 41.930461 
L 169.379322 40.764075 
L 169.377463 39.250065 
L 169.375603 37.461141 
L 169.372813 35.464042 
L 169.370024 33.327493 
L 169.368164 31.121221 
L 169.366305 28.915945 
L 169.363515 26.779397 
L 169.361655 24.781301 
L 169.358866 22.991382 
L 169.356076 21.479363 
L 169.356076 20.311981 
L 169.355146 19.560952 
L 169.353287 19.296 
" clip-path="url(#p2fc9bb477a)" style="fill: #f5f5f5; stroke: #000000"/>
    <path d="M 30.885858 163.315822 
L 31.235097 162.551915 
L 31.459137 162.259371 
L 31.62314 162.503288 
L 31.079147 165.097749 
L 30.624477 166.307138 
L 29.901838 167.40751 
L 29.592135 166.992616 
L 29.533562 166.868696 
L 29.537223 166.713405 
L 29.581153 166.536154 
L 29.583349 166.343216 
L 29.466936 166.145573 
L 29.335148 165.800481 
L 29.45815 165.439704 
L 29.976518 164.644424 
L 30.013858 164.560504 
L 29.993357 164.001299 
L 30.013858 163.830322 
L 30.158825 163.46876 
L 30.389455 163.169942 
L 30.649371 163.073474 
L 30.885858 163.315822 
" clip-path="url(#p2fc9bb477a)" style="fill: #f5f5f5; stroke: #000000"/>
    <path d="M 31.909414 164.955007 
L 32.113686 164.911086 
L 32.256457 165.06873 
L 32.044863 165.414606 
L 31.749071 165.698522 
L 31.526495 165.95891 
L 31.229239 166.508703 
L 30.584941 167.433392 
L 30.527832 167.433392 
L 30.617156 167.101633 
L 31.232168 165.939302 
L 31.909414 164.955007 
" clip-path="url(#p2fc9bb477a)" style="fill: #f5f5f5; stroke: #000000"/>
    <path d="M 29.097929 164.896969 
L 29.23411 164.926772 
L 29.245092 165.124415 
L 29.198966 165.511075 
L 29.08475 165.783227 
L 28.970533 165.933812 
L 28.83362 165.811461 
L 28.742832 165.398136 
L 28.846799 165.020888 
L 29.097929 164.896969 
" clip-path="url(#p2fc9bb477a)" style="fill: #f5f5f5; stroke: #000000"/>
    <path d="M 29.419346 147.873759 
L 29.574563 147.915327 
L 29.65144 148.015717 
L 29.620689 148.647862 
L 29.511598 148.713743 
L 29.275843 148.614921 
L 29.150644 148.269046 
L 29.242896 147.981992 
L 29.419346 147.873759 
" clip-path="url(#p2fc9bb477a)" style="fill: #f5f5f5; stroke: #000000"/>
   </g>
  </g>
 </g>
 <defs>
  <clipPath id="p2fc9bb477a">
   <rect x="7.2" y="7.2" width="242.651732" height="266.112"/>
  </clipPath>
 </defs>
</svg>
