<?xml version="1.0" encoding="utf-8" standalone="no"?>
<!DOCTYPE svg PUBLIC "-//W3C//DTD SVG 1.1//EN"
  "http://www.w3.org/Graphics/SVG/1.1/DTD/svg11.dtd">
<svg xmlns:xlink="http://www.w3.org/1999/xlink" width="225.3618pt" height="280.512pt" viewBox="0 0 225.3618 280.512" xmlns="http://www.w3.org/2000/svg" version="1.1">
 <metadata>
  <rdf:RDF xmlns:dc="http://purl.org/dc/elements/1.1/" xmlns:cc="http://creativecommons.org/ns#" xmlns:rdf="http://www.w3.org/1999/02/22-rdf-syntax-ns#">
   <cc:Work>
    <dc:type rdf:resource="http://purl.org/dc/dcmitype/StillImage"/>
    <dc:date>2024-03-04T13:11:11.960657</dc:date>
    <dc:format>image/svg+xml</dc:format>
    <dc:creator>
     <cc:Agent>
      <dc:title>Matplotlib v3.8.0, https://matplotlib.org/</dc:title>
     </cc:Agent>
    </dc:creator>
   </cc:Work>
  </rdf:RDF>
 </metadata>
 <defs>
  <style type="text/css">*{stroke-linejoin: round; stroke-linecap: butt}</style>
 </defs>
 <g id="figure_1">
  <g id="patch_1">
   <path d="M -0 280.512 
L 225.3618 280.512 
L 225.3618 0 
L -0 0 
z
" style="fill: #ffffff"/>
  </g>
  <g id="axes_1">
   <g id="PatchCollection_1">
    <defs>
     <path id="m65fe76f32b" d="M 16.789173 -243.052261 
L 16.828661 -243.709529 
L 17.184056 -244.966192 
L 17.782022 -245.925224 
L 19.584381 -247.039272 
L 19.852338 -248.070645 
L 20.168244 -248.748582 
L 21.24007 -248.343473 
L 21.979065 -247.527056 
L 22.560108 -246.541154 
L 23.231409 -245.681332 
L 24.249643 -245.226619 
L 25.329931 -245.309294 
L 25.950461 -245.863218 
L 26.187391 -246.898724 
L 26.147903 -248.409613 
L 25.860202 -249.947372 
L 25.538655 -250.910538 
L 25.501987 -251.627745 
L 26.077388 -252.411093 
L 26.379192 -252.435895 
L 27.278961 -252.084526 
L 27.6541 -252.072124 
L 28.12796 -252.555774 
L 28.280272 -253.144835 
L 28.472072 -253.642953 
L 29.064397 -253.833106 
L 30.875218 -253.053892 
L 32.663475 -251.553337 
L 34.547631 -250.435156 
L 36.612306 -250.788592 
L 37.131295 -251.323914 
L 37.526178 -251.257774 
L 37.898497 -251.034551 
L 38.496463 -251.086223 
L 39.156482 -250.953942 
L 39.449823 -251.150296 
L 39.382129 -251.553337 
L 39.201611 -251.997717 
L 39.162123 -252.316016 
L 39.184687 -252.845137 
L 39.032375 -253.523074 
L 39.083146 -254.1018 
L 39.686753 -254.308488 
L 40.267796 -254.147271 
L 41.401674 -253.444532 
L 47.240303 -251.278442 
L 49.02856 -251.183366 
L 51.098876 -252.233341 
L 51.396284 -252.598837 
L 54.3482 -256.226552 
L 56.322615 -257.222788 
L 57.371876 -256.958228 
L 58.923203 -255.534148 
L 59.66784 -255.253052 
L 60.581712 -255.705699 
L 63.893089 -258.446381 
L 65.145433 -260.122621 
L 67.401908 -260.122621 
L 68.050644 -260.28177 
L 69.466582 -261.216 
L 70.656873 -261.063051 
L 70.769697 -258.958967 
L 71.869728 -258.43398 
L 78.678642 -258.491853 
L 80.506387 -257.6589 
L 84.032129 -255.104237 
L 84.850101 -254.246482 
L 85.970674 -252.609543 
L 86.587587 -251.708353 
L 87.016317 -251.332181 
L 88.212249 -249.488525 
L 90.429236 -248.645238 
L 92.400705 -248.405022 
L 95.280657 -248.05411 
L 96.397612 -247.529123 
L 97.294561 -246.499817 
L 97.593544 -245.063335 
L 96.521718 -241.927879 
L 97.317126 -241.330551 
L 98.535622 -241.274745 
L 99.3818 -241.502102 
L 101.074157 -242.909647 
L 101.971105 -243.043994 
L 102.365989 -241.725325 
L 102.56343 -240.179299 
L 103.138831 -239.274005 
L 104.069627 -238.986709 
L 105.344536 -239.265738 
L 106.512261 -239.931273 
L 107.375363 -240.665015 
L 108.300518 -241.254076 
L 110.816488 -241.543439 
L 111.752925 -241.42356 
L 112.322685 -240.784894 
L 112.424226 -239.265738 
L 112.060369 -237.616368 
L 111.453942 -236.884692 
L 110.669817 -236.374173 
L 109.812356 -235.392405 
L 109.45132 -234.278357 
L 109.552861 -233.164309 
L 110.16211 -232.496707 
L 111.307271 -232.713729 
L 112.147808 -233.656226 
L 112.726029 -234.867418 
L 113.43964 -235.822316 
L 114.691983 -235.9918 
L 115.549444 -235.404806 
L 116.074074 -234.323828 
L 116.00638 -233.11057 
L 115.098149 -232.114334 
L 116.649476 -228.956142 
L 117.301033 -228.292673 
L 118.403885 -227.529995 
L 118.973645 -227.575466 
L 119.176728 -228.32161 
L 119.199292 -229.683684 
L 119.50676 -231.048976 
L 119.577252 -231.36199 
L 120.572921 -234.265956 
L 121.788597 -234.811612 
L 123.537366 -234.733071 
L 128.558023 -232.682726 
L 132.348901 -232.631054 
L 134.323316 -232.292086 
L 135.852078 -231.279315 
L 136.215935 -230.640649 
L 136.348503 -230.061922 
L 136.393632 -229.518333 
L 136.523379 -228.968543 
L 137.397763 -226.89753 
L 137.57264 -224.805847 
L 137.668541 -224.322198 
L 138.035218 -223.799277 
L 138.932166 -222.970458 
L 139.281484 -222.376797 
L 140.398875 -220.477801 
L 142.158926 -218.588673 
L 143.320625 -217.71018 
L 144.099494 -217.121189 
L 145.763645 -216.447386 
L 147.749343 -216.823558 
L 150.141206 -219.917677 
L 151.87023 -220.750629 
L 152.815129 -220.709292 
L 153.576689 -220.415795 
L 154.247991 -219.791597 
L 154.885445 -218.766425 
L 155.314175 -217.526297 
L 155.793676 -214.785615 
L 156.228048 -213.617828 
L 156.995249 -213.028767 
L 159.144542 -212.383901 
L 159.691737 -211.995327 
L 159.514039 -210.904015 
L 158.676323 -209.769298 
L 157.66655 -208.696587 
L 157.00089 -207.795428 
L 156.510107 -206.394083 
L 156.515748 -205.515659 
L 157.040379 -204.994806 
L 158.924535 -204.32307 
L 159.621222 -203.682337 
L 159.832767 -202.818381 
L 159.181209 -201.797343 
L 157.559368 -199.738731 
L 157.260385 -197.239873 
L 157.311156 -194.412382 
L 156.747037 -191.396804 
L 155.333919 -188.96202 
L 153.932084 -187.110096 
L 153.218474 -185.006012 
L 153.926443 -181.796148 
L 153.932084 -181.78788 
L 153.937725 -181.783747 
L 153.940546 -181.775479 
L 154.297142 -181.060855 
L 154.451074 -180.752374 
L 155.302893 -178.340325 
L 155.754188 -177.490838 
L 156.747037 -176.730226 
L 157.311156 -177.205608 
L 157.827324 -178.067497 
L 158.727094 -178.468472 
L 159.505578 -178.046828 
L 160.492785 -176.370589 
L 162.168218 -175.258608 
L 162.540537 -174.402919 
L 162.785928 -173.450088 
L 163.228761 -172.596467 
L 163.984681 -172.158288 
L 164.842141 -171.980536 
L 165.685499 -171.608498 
L 166.399109 -170.558523 
L 166.681168 -169.291526 
L 166.703733 -168.13614 
L 166.872969 -166.999356 
L 167.052517 -166.69613 
L 167.595041 -165.779897 
L 168.339677 -165.118496 
L 169.163291 -164.721655 
L 170.037675 -164.634846 
L 170.9177 -164.911808 
L 171.871061 -165.821235 
L 172.24902 -166.93735 
L 172.497233 -168.160943 
L 173.05571 -169.403137 
L 174.158562 -169.52715 
L 175.244491 -169.454809 
L 176.276828 -169.078637 
L 177.18788 -168.264287 
L 177.924055 -166.883611 
L 178.426121 -165.02962 
L 178.476892 -163.177696 
L 177.85072 -161.792886 
L 176.502476 -161.08188 
L 176.305034 -159.345701 
L 176.863512 -155.156136 
L 176.547605 -153.188466 
L 175.757839 -152.237702 
L 174.57319 -151.8946 
L 173.05571 -151.74165 
L 172.931604 -151.514294 
L 172.892116 -151.266268 
L 172.937245 -151.020309 
L 173.05571 -150.761949 
L 174.725502 -147.624426 
L 175.199362 -147.136642 
L 175.791686 -147.624426 
L 176.268367 -148.653732 
L 176.903 -149.559025 
L 177.929696 -149.658236 
L 178.651768 -149.160118 
L 179.27794 -148.31063 
L 179.672823 -147.223451 
L 179.723594 -146.003992 
L 179.308967 -144.914747 
L 178.651768 -144.166536 
L 178.056623 -143.283979 
L 177.647637 -140.303538 
L 177.409102 -139.244286 
L 177.365578 -139.051009 
L 177.303525 -138.003101 
L 177.783025 -137.11641 
L 178.093291 -137.042002 
L 179.475382 -137.174282 
L 179.971806 -136.905588 
L 180.829267 -135.907285 
L 181.297485 -135.495976 
L 182.183152 -135.177677 
L 183.971408 -135.028861 
L 184.806304 -134.718829 
L 185.697612 -133.819737 
L 186.97252 -131.719787 
L 187.97101 -130.986045 
L 189.697214 -130.71735 
L 191.304952 -130.874433 
L 192.856279 -130.676013 
L 194.416067 -129.361477 
L 194.672741 -128.807553 
L 195.107113 -127.358671 
L 195.366607 -126.918425 
L 195.851749 -126.877088 
L 196.353815 -127.22019 
L 196.884087 -127.462015 
L 197.47077 -127.125113 
L 197.606159 -126.591858 
L 197.594876 -124.876348 
L 197.668212 -124.140539 
L 197.879756 -123.557679 
L 198.480543 -122.40436 
L 198.723114 -121.794631 
L 198.804911 -120.320945 
L 198.356437 -115.343899 
L 198.130789 -114.409669 
L 197.865653 -113.694529 
L 197.673853 -112.935984 
L 197.640006 -111.879809 
L 197.840268 -111.053057 
L 198.520031 -109.414021 
L 198.644137 -108.655476 
L 198.012324 -106.933766 
L 196.810751 -106.696075 
L 195.868673 -106.596864 
L 196.037908 -104.813147 
L 196.810751 -103.852048 
L 199.219538 -102.822742 
L 199.32108 -102.622255 
L 199.591857 -101.855442 
L 199.783657 -101.685958 
L 200.139052 -101.801703 
L 200.804712 -102.241949 
L 201.114977 -102.229548 
L 201.546528 -101.884379 
L 201.904744 -101.392461 
L 202.576045 -99.999384 
L 202.158597 -99.309046 
L 204.666105 -97.291772 
L 205.59408 -96.17359 
L 206.135634 -96.65724 
L 206.959248 -96.806055 
L 207.844914 -96.642772 
L 208.572627 -96.17359 
L 207.241307 -93.699535 
L 205.819728 -92.283722 
L 203.425044 -91.862079 
L 196.951781 -92.240318 
L 196.071756 -92.041898 
L 195.09583 -91.48384 
L 193.081926 -89.664986 
L 192.010101 -89.499636 
L 190.921351 -90.723228 
L 190.811348 -91.273018 
L 190.842375 -92.819044 
L 190.752116 -93.546586 
L 190.492621 -94.216255 
L 189.358742 -96.035109 
L 186.487378 -98.810928 
L 185.787871 -100.040722 
L 185.770947 -97.791957 
L 185.172981 -96.613835 
L 184.07295 -96.181857 
L 182.527264 -96.163256 
L 182.177511 -95.658937 
L 182.448288 -93.699535 
L 182.042122 -92.395334 
L 181.308768 -91.632655 
L 180.411819 -91.293687 
L 179.481023 -91.392897 
L 178.629204 -91.919952 
L 177.890208 -92.930656 
L 177.137109 -94.68337 
L 176.361446 -95.390243 
L 175.599886 -95.679606 
L 173.884965 -96.012373 
L 173.05571 -96.359609 
L 172.739804 -96.928001 
L 172.643904 -97.53153 
L 172.751086 -98.151594 
L 173.05571 -98.788193 
L 173.349052 -99.34625 
L 173.456235 -99.89604 
L 173.360334 -100.416894 
L 173.05571 -100.910878 
L 171.786443 -101.123767 
L 171.737939 -101.096358 
L 170.652564 -100.483034 
L 169.637151 -99.34625 
L 167.262211 -95.642402 
L 166.573986 -95.621733 
L 165.59806 -97.08095 
L 164.317511 -99.846435 
L 163.550309 -100.106862 
L 162.591307 -98.478161 
L 162.41643 -97.506727 
L 162.675925 -95.888361 
L 162.642078 -95.16702 
L 162.26976 -94.141847 
L 161.993341 -94.017835 
L 161.621023 -94.141847 
L 160.955363 -93.895889 
L 158.975306 -91.665725 
L 157.762451 -90.917515 
L 156.837296 -91.721531 
L 156.820372 -92.556551 
L 157.198332 -93.323363 
L 157.686295 -94.06744 
L 158.033228 -94.836319 
L 158.14041 -95.778816 
L 158.095281 -102.547847 
L 157.737065 -104.265424 
L 156.865502 -105.389807 
L 156.800837 -105.390034 
L 155.692135 -105.39394 
L 150.899946 -102.640857 
L 149.861048 -102.246169 
L 147.918578 -101.508206 
L 143.851282 -98.73032 
L 142.739968 -96.969339 
L 142.401497 -94.720574 
L 142.841509 -91.789738 
L 143.800511 -88.007348 
L 143.851282 -86.746552 
L 143.529734 -85.308004 
L 143.146134 -84.158818 
L 143.179981 -83.067506 
L 144.113597 -81.798442 
L 144.122059 -81.794308 
L 145.94194 -80.046543 
L 147.345998 -78.698122 
L 147.647801 -76.95781 
L 146.999065 -75.064548 
L 145.763645 -72.919127 
L 143.885129 -70.757171 
L 143.467681 -69.49224 
L 143.597429 -67.524571 
L 144.567713 -64.031544 
L 144.454889 -62.460715 
L 143.095363 -61.803448 
L 133.578679 -59.244651 
L 132.63096 -58.608052 
L 132.027353 -57.442332 
L 131.985044 -56.107127 
L 132.743784 -53.337508 
L 132.969431 -51.99817 
L 132.893275 -50.390138 
L 132.523777 -49.356698 
L 131.829911 -48.653959 
L 130.783471 -48.042163 
L 129.195477 -47.678392 
L 128.78367 -47.314621 
L 128.763926 -46.855774 
L 128.902135 -46.132366 
L 128.97547 -45.30148 
L 128.78367 -44.536735 
L 127.35645 -43.672779 
L 123.703781 -43.304874 
L 122.826576 -41.808454 
L 122.985551 -41.191722 
L 123.210177 -40.3203 
L 122.871705 -39.679568 
L 121.292173 -39.158714 
L 120.350095 -38.513847 
L 119.746487 -37.848312 
L 118.47722 -35.909579 
L 118.099261 -34.987751 
L 118.584403 -34.413158 
L 119.436222 -33.896438 
L 120.135729 -33.156495 
L 120.440354 -32.032113 
L 120.541895 -30.915998 
L 120.778825 -29.812284 
L 121.531923 -28.737506 
L 120.087779 -28.034767 
L 119.769052 -27.733003 
L 119.722538 -27.641556 
L 119.422119 -27.050933 
L 119.408016 -26.869047 
L 119.52084 -26.720232 
L 119.870594 -24.000218 
L 119.628023 -23.053587 
L 118.47722 -22.512065 
L 114.979684 -22.656746 
L 110.889823 -23.764594 
L 106.991762 -24.074626 
L 106.987507 -24.071326 
L 104.086551 -21.821727 
L 104.08091 -21.809326 
L 103.60705 -20.866829 
L 103.22909 -19.862325 
L 103.116266 -19.296 
L 101.666481 -21.102453 
L 101.282881 -21.920937 
L 101.254675 -24.616148 
L 101.181339 -24.802168 
L 101.045951 -24.971652 
L 100.837227 -25.467703 
L 99.920534 -27.170812 
L 98.66819 -28.171181 
L 95.619128 -29.84122 
L 96.307353 -30.74238 
L 97.204302 -31.631138 
L 98.106892 -32.304941 
L 98.823323 -32.569501 
L 100.61722 -32.552966 
L 101.395704 -32.949807 
L 101.057233 -33.987381 
L 101.164416 -35.27298 
L 100.684915 -43.296607 
L 100.222337 -44.044817 
L 99.263335 -45.954614 
L 98.411516 -48.381131 
L 98.259204 -50.696036 
L 98.501775 -51.130081 
L 99.223847 -51.663336 
L 99.3818 -52.060177 
L 99.274618 -52.361941 
L 98.789476 -53.378846 
L 98.637164 -53.969974 
L 98.710499 -54.602439 
L 98.930505 -55.214235 
L 99.04897 -55.821898 
L 98.823323 -56.454363 
L 98.496134 -57.008287 
L 98.360745 -57.487803 
L 98.259204 -58.384829 
L 96.927884 -62.394575 
L 96.741724 -63.527225 
L 96.837625 -64.316773 
L 97.514567 -67.123596 
L 97.497644 -67.553507 
L 97.164814 -67.789131 
L 97.14789 -68.219042 
L 97.294561 -68.620017 
L 97.728932 -68.90938 
L 98.112472 -70.037957 
L 98.258951 -70.468976 
L 99.178718 -73.17542 
L 99.500265 -75.147223 
L 100.126437 -77.007415 
L 99.95156 -77.70602 
L 99.630013 -78.25581 
L 99.2859 -78.722925 
L 98.284589 -80.397097 
L 98.174586 -81.079168 
L 98.823323 -81.376798 
L 99.438212 -81.542149 
L 99.567959 -81.976193 
L 99.3818 -83.340334 
L 99.607448 -83.894258 
L 100.137719 -84.183621 
L 100.75825 -84.377908 
L 101.274419 -84.65487 
L 101.931617 -85.312137 
L 102.670613 -86.969775 
L 102.75523 -87.246737 
L 102.70446 -88.228505 
L 102.484453 -89.851005 
L 102.617021 -90.433865 
L 103.27422 -90.661222 
L 103.533714 -91.00019 
L 103.849621 -93.443242 
L 104.210657 -93.81528 
L 104.606264 -93.991523 
L 104.707081 -94.036436 
L 104.960935 -94.489083 
L 104.566052 -95.576262 
L 105.338894 -95.968969 
L 105.657621 -96.576632 
L 105.722495 -97.242167 
L 105.716854 -99.722422 
L 105.643519 -100.387958 
L 105.454539 -100.468566 
L 105.22325 -100.394158 
L 105.006064 -100.592579 
L 104.295275 -102.008391 
L 104.182451 -102.64499 
L 104.295275 -105.641966 
L 104.495537 -106.245495 
L 105.006064 -106.596864 
L 104.532205 -107.9114 
L 104.808623 -109.058518 
L 105.355818 -110.056821 
L 105.716854 -110.91871 
L 105.728136 -112.012089 
L 105.604509 -112.862143 
L 105.558901 -113.175742 
L 105.006064 -115.339765 
L 101.948541 -121.532137 
L 101.951361 -123.036825 
L 99.748477 -126.844018 
L 98.85999 -129.088649 
L 98.919872 -129.726153 
L 99.009482 -130.680146 
L 99.009482 -131.275408 
L 98.400234 -132.058755 
L 98.467928 -133.015721 
L 98.425619 -133.925147 
L 97.514567 -134.553479 
L 97.982786 -135.75847 
L 97.958076 -135.958836 
L 97.81073 -137.153614 
L 96.741724 -140.065847 
L 95.997088 -141.423787 
L 94.309403 -143.582036 
L 94.24832 -143.660151 
L 93.757536 -144.980887 
L 92.680069 -144.447632 
L 91.49542 -145.001556 
L 90.21487 -145.81384 
L 88.88355 -146.074266 
L 88.866627 -147.227585 
L 88.184043 -147.843515 
L 86.638357 -148.856286 
L 84.968566 -150.714411 
L 84.460859 -151.088516 
L 83.94187 -151.255934 
L 83.699299 -151.493625 
L 84.032129 -152.080619 
L 84.032129 -152.624208 
L 81.668471 -153.911874 
L 81.019735 -154.8089 
L 81.631804 -155.00112 
L 81.730524 -155.340088 
L 81.572571 -155.821671 
L 81.4259 -156.450002 
L 81.33 -156.499608 
L 80.672802 -158.684299 
L 79.293531 -160.447348 
L 78.712489 -161.455985 
L 78.780183 -162.456355 
L 77.668869 -164.390954 
L 77.099109 -165.006884 
L 75.733942 -165.341719 
L 75.29957 -165.61248 
L 74.887764 -165.961783 
L 74.309542 -166.329687 
L 72.834371 -166.660388 
L 72.411282 -166.875343 
L 71.706134 -168.055532 
L 70.391737 -171.199256 
L 69.779113 -171.732134 
L 69.652742 -171.842055 
L 68.88554 -172.356708 
L 69.319912 -174.820429 
L 68.349627 -175.663716 
L 68.513222 -176.602079 
L 68.721946 -177.424697 
L 69.018108 -178.040628 
L 69.466582 -178.394064 
L 69.07734 -179.173278 
L 68.383474 -179.80781 
L 67.565502 -180.281125 
L 66.820865 -180.578756 
L 66.736248 -180.533285 
L 65.331592 -180.578756 
L 65.015685 -180.735839 
L 64.80132 -180.934259 
L 64.530543 -181.103743 
L 64.045401 -181.174017 
L 63.47 -181.68247 
L 63.120246 -182.84819 
L 62.725363 -184.997745 
L 62.584334 -185.051483 
L 61.992009 -185.130025 
L 61.777644 -185.270573 
L 61.66482 -185.621942 
L 61.676102 -186.347417 
L 61.605588 -186.63678 
L 61.433531 -187.134898 
L 61.188933 -188.150574 
L 61.083131 -188.589909 
L 61.027366 -188.821472 
L 59.318086 -189.466339 
L 57.794965 -191.004097 
L 54.241017 -195.662844 
L 52.988674 -197.779329 
L 52.492249 -199.536176 
L 53.750234 -199.792469 
L 53.750234 -200.292654 
L 53.451251 -200.873448 
L 53.535869 -201.731203 
L 53.371297 -202.392753 
L 53.338427 -202.524884 
L 53.062009 -202.793579 
L 52.091725 -203.502518 
L 51.883001 -203.864222 
L 51.629147 -204.542159 
L 51.011437 -205.745083 
L 50.258339 -206.904602 
L 49.609602 -207.439924 
L 51.476835 -208.584976 
L 51.062208 -209.264979 
L 50.467063 -209.554342 
L 49.807044 -209.750696 
L 49.237284 -210.172339 
L 49.282413 -210.66839 
L 49.192154 -213.138312 
L 49.237284 -213.497949 
L 48.244435 -214.661602 
L 47.009015 -215.347806 
L 46.41669 -216.075348 
L 47.375692 -217.371281 
L 47.375692 -217.704685 
L 47.375692 -217.867332 
L 47.031579 -218.051285 
L 45.886418 -218.960712 
L 46.535155 -219.537371 
L 46.913114 -220.24011 
L 46.856703 -220.98212 
L 46.22489 -221.693127 
L 45.491535 -221.283884 
L 44.99229 -222.37313 
L 44.275859 -223.392102 
L 42.874024 -222.784439 
L 42.741456 -223.011796 
L 42.637094 -223.284624 
L 42.558118 -223.586388 
L 42.501706 -223.921223 
L 43.61302 -224.423475 
L 43.61302 -225.016669 
L 42.185799 -225.828953 
L 40.877044 -226.980205 
L 39.923683 -228.517963 
L 39.517518 -230.477365 
L 39.658547 -230.923811 
L 40.233948 -231.655487 
L 40.262943 -232.048551 
L 40.267796 -232.114334 
L 39.980095 -232.519442 
L 39.48367 -232.926618 
L 39.015452 -233.139506 
L 38.338509 -232.585583 
L 37.317454 -232.928685 
L 35.82254 -233.805042 
L 35.82254 -234.30316 
L 36.894365 -234.3693 
L 37.514896 -234.970762 
L 37.514896 -235.661099 
L 35.630739 -236.365906 
L 35.224574 -237.215393 
L 34.948156 -238.137221 
L 34.268392 -238.720081 
L 33.774789 -238.259167 
L 33.154258 -237.372476 
L 32.623986 -237.097581 
L 32.40398 -238.451387 
L 32.059868 -239.052849 
L 29.758263 -241.361554 
L 29.17158 -240.99985 
L 27.924877 -242.537608 
L 26.996902 -242.996456 
L 24.748888 -242.554143 
L 23.674242 -242.7815 
L 23.079097 -243.994758 
L 22.492413 -243.116335 
L 21.897268 -243.240347 
L 20.644924 -244.321325 
L 19.401043 -244.27172 
L 16.789173 -243.052261 
" style="stroke: #000000"/>
    </defs>
    <g clip-path="url(#pbb4b1c52de)">
     <use xlink:href="#m65fe76f32b" x="0" y="280.512" style="fill: #f5f5f5; stroke: #000000"/>
    </g>
   </g>
  </g>
 </g>
 <defs>
  <clipPath id="pbb4b1c52de">
   <rect x="7.2" y="7.2" width="210.9618" height="266.112"/>
  </clipPath>
 </defs>
</svg>
