<?xml version="1.0" encoding="utf-8" standalone="no"?>
<!DOCTYPE svg PUBLIC "-//W3C//DTD SVG 1.1//EN"
  "http://www.w3.org/Graphics/SVG/1.1/DTD/svg11.dtd">
<svg xmlns:xlink="http://www.w3.org/1999/xlink" width="371.52pt" height="185.555877pt" viewBox="0 0 371.52 185.555877" xmlns="http://www.w3.org/2000/svg" version="1.1">
 <metadata>
  <rdf:RDF xmlns:dc="http://purl.org/dc/elements/1.1/" xmlns:cc="http://creativecommons.org/ns#" xmlns:rdf="http://www.w3.org/1999/02/22-rdf-syntax-ns#">
   <cc:Work>
    <dc:type rdf:resource="http://purl.org/dc/dcmitype/StillImage"/>
    <dc:date>2024-03-04T13:11:12.009698</dc:date>
    <dc:format>image/svg+xml</dc:format>
    <dc:creator>
     <cc:Agent>
      <dc:title>Matplotlib v3.8.0, https://matplotlib.org/</dc:title>
     </cc:Agent>
    </dc:creator>
   </cc:Work>
  </rdf:RDF>
 </metadata>
 <defs>
  <style type="text/css">*{stroke-linejoin: round; stroke-linecap: butt}</style>
 </defs>
 <g id="figure_1">
  <g id="patch_1">
   <path d="M 0 185.555877 
L 371.52 185.555877 
L 371.52 0 
L 0 0 
z
" style="fill: #ffffff"/>
  </g>
  <g id="axes_1">
   <g id="PatchCollection_1">
    <defs>
     <path id="m9606863137" d="M 315.565132 -136.540242 
L 313.432242 -132.012555 
L 313.278925 -131.663274 
L 311.160115 -127.068858 
L 309.041305 -122.474441 
L 308.998543 -122.212099 
L 309.140388 -121.70038 
L 309.14456 -121.43575 
L 308.944308 -120.959111 
L 306.645584 -117.460201 
L 306.552759 -117.216162 
L 306.505825 -116.908825 
L 306.505825 -116.613691 
L 306.73528 -113.676071 
L 306.641412 -113.209346 
L 306.347293 -112.94014 
L 303.981819 -111.834338 
L 303.757578 -111.575809 
L 303.760707 -111.435106 
L 304.07673 -109.529695 
L 304.238391 -108.647341 
L 304.37815 -108.30111 
L 304.622207 -107.971658 
L 307.173331 -105.287991 
L 307.797032 -104.968452 
L 308.386315 -105.339468 
L 309.510645 -106.783874 
L 310.492087 -107.413418 
L 311.121003 -107.609794 
L 312.987934 -107.200265 
L 313.702374 -107.218187 
L 316.245154 -107.775664 
L 316.955422 -107.807694 
L 317.270401 -107.745922 
L 318.477127 -107.237253 
L 319.229114 -106.96881 
L 319.454397 -106.831538 
L 321.951287 -104.528038 
L 322.392466 -104.480755 
L 322.786712 -104.994381 
L 323.155926 -105.655956 
L 323.523055 -106.050613 
L 324.071661 -106.482257 
L 326.23584 -109.302433 
L 326.490327 -109.531982 
L 326.977398 -109.704335 
L 328.567939 -109.602144 
L 328.814082 -109.63303 
L 329.488889 -109.922064 
L 330.079214 -110.039126 
L 330.684142 -110.049421 
L 330.924027 -109.976972 
L 331.409011 -109.675355 
L 331.668713 -109.605575 
L 333.613867 -109.477455 
L 334.314748 -109.135038 
L 334.950443 -108.373941 
L 336.040877 -106.587499 
L 336.586876 -106.034598 
L 338.657709 -105.133941 
L 339.535375 -104.814402 
L 339.776302 -104.638618 
L 339.912411 -104.417839 
L 339.985941 -104.139482 
L 340.110055 -103.081344 
L 340.166376 -102.829297 
L 340.285276 -102.660758 
L 340.524118 -102.515097 
L 341.467491 -102.150182 
L 341.871124 -102.023968 
L 342.063553 -101.901567 
L 342.140734 -101.695278 
L 342.088585 -101.549617 
L 341.8487 -101.208725 
L 341.77882 -100.99786 
L 342.169937 -100.882323 
L 343.737533 -99.43868 
L 343.885636 -99.260989 
L 344.019137 -98.995596 
L 344.110919 -98.751938 
L 344.232947 -98.576917 
L 344.861342 -98.393125 
L 345.285834 -98.064435 
L 345.997666 -97.229745 
L 346.2897 -96.774078 
L 346.542622 -96.269222 
L 346.608851 -95.976375 
L 346.620846 -95.103936 
L 346.653699 -94.931965 
L 346.677166 -94.847695 
L 346.705848 -94.772195 
L 346.848736 -94.555611 
L 347.183011 -94.210143 
L 347.326942 -94.021775 
L 347.379091 -93.89518 
L 347.407773 -93.778499 
L 347.446363 -93.667918 
L 347.535016 -93.558101 
L 347.642443 -93.532934 
L 347.806712 -93.51997 
L 347.944906 -93.481076 
L 347.980367 -93.378885 
L 347.919875 -93.22636 
L 347.864597 -93.118068 
L 347.829136 -92.999099 
L 347.82705 -92.817595 
L 347.845823 -92.742095 
L 347.883371 -92.683373 
L 347.931869 -92.639523 
L 347.984018 -92.60978 
L 348.045554 -92.549915 
L 348.037731 -92.475178 
L 348.005399 -92.385188 
L 347.996012 -92.283759 
L 348.002792 -91.954307 
L 347.873984 -91.482244 
L 347.845823 -91.230578 
L 347.887021 -91.101695 
L 348.050247 -90.837828 
L 348.087273 -90.718478 
L 348.058591 -90.580062 
L 347.996012 -90.472532 
L 347.918832 -90.371103 
L 347.740483 -90.05309 
L 347.556397 -89.852902 
L 347.354581 -89.7244 
L 347.181446 -89.734314 
L 346.969722 -89.8407 
L 346.827877 -89.793417 
L 346.704805 -89.615345 
L 346.547316 -89.332412 
L 346.404428 -89.168067 
L 346.196354 -89.012492 
L 345.975764 -88.896955 
L 345.797415 -88.84891 
L 345.58204 -88.91602 
L 345.225863 -89.213443 
L 345.011009 -89.263014 
L 344.745571 -89.255387 
L 343.992541 -89.385796 
L 343.504949 -89.378169 
L 342.600165 -89.165017 
L 342.13239 -89.144807 
L 339.563535 -89.871967 
L 339.306962 -89.986742 
L 339.075943 -90.201801 
L 338.781823 -90.810374 
L 338.603474 -91.045261 
L 338.399571 -90.996453 
L 338.147692 -90.676915 
L 337.99646 -90.586925 
L 337.829584 -90.647935 
L 337.71955 -90.851555 
L 337.674702 -91.09712 
L 337.596478 -91.309128 
L 337.385275 -91.414752 
L 337.079683 -91.306841 
L 336.83719 -91.005605 
L 336.449724 -90.31772 
L 336.109192 -90.104948 
L 335.75145 -90.204089 
L 335.375978 -90.414573 
L 334.992162 -90.533542 
L 334.848753 -90.493123 
L 334.571842 -90.296748 
L 334.412788 -90.238026 
L 333.613867 -90.236882 
L 333.234223 -90.31772 
L 332.588619 -90.654417 
L 332.228792 -90.775293 
L 331.878351 -90.814949 
L 331.557114 -90.786732 
L 331.24735 -90.67539 
L 330.921941 -90.461855 
L 330.548554 -90.130877 
L 330.411924 -90.072918 
L 329.871662 -90.050802 
L 329.689141 -89.979878 
L 328.898563 -89.370543 
L 328.567939 -89.317922 
L 328.073568 -89.196665 
L 327.839941 -89.08456 
L 327.614657 -88.919071 
L 327.422749 -88.681514 
L 327.154704 -88.128232 
L 326.996171 -87.902114 
L 326.800091 -87.795729 
L 325.77693 -87.677522 
L 325.546432 -87.733194 
L 325.060404 -88.02299 
L 324.882055 -88.242625 
L 324.624439 -88.854248 
L 324.48468 -89.024694 
L 324.364738 -88.996096 
L 323.898527 -88.654822 
L 323.815088 -88.636901 
L 323.71392 -88.663974 
L 323.523055 -88.746337 
L 322.725176 -88.549962 
L 322.889967 -88.084 
L 322.913955 -87.86017 
L 322.843033 -87.656169 
L 322.476948 -87.137967 
L 322.359091 -86.735303 
L 322.314243 -85.718346 
L 322.156753 -85.390419 
L 321.795883 -85.285177 
L 318.325895 -85.525403 
L 317.052419 -85.819775 
L 316.880328 -85.825113 
L 316.779159 -85.768679 
L 316.57995 -85.517777 
L 315.945819 -84.968689 
L 315.797716 -84.902722 
L 315.170887 -84.81769 
L 314.750567 -84.682705 
L 314.532592 -84.515845 
L 314.394911 -84.410449 
L 314.192573 -83.944487 
L 314.104963 -83.67757 
L 313.958946 -83.464798 
L 312.264107 -81.675687 
L 310.811239 -78.76247 
L 310.749703 -78.359806 
L 310.889462 -77.900708 
L 311.103272 -77.563629 
L 311.199226 -77.214348 
L 310.984373 -76.720169 
L 310.374231 -75.82485 
L 310.112443 -75.611316 
L 309.617029 -75.344398 
L 309.454324 -75.297879 
L 309.29892 -75.297116 
L 308.78056 -75.374141 
L 308.681477 -75.329909 
L 308.486441 -75.095021 
L 306.311831 -73.18389 
L 305.555672 -72.280946 
L 305.303272 -72.064361 
L 305.00498 -71.917938 
L 303.34143 -71.451975 
L 301.972 -71.185058 
L 299.843282 -71.181245 
L 297.95132 -70.876196 
L 297.612352 -70.934918 
L 295.917513 -71.632717 
L 295.574373 -71.663984 
L 295.231233 -71.599924 
L 293.862846 -71.049311 
L 293.76272 -70.972286 
L 293.718915 -70.834252 
L 293.640692 -70.163907 
L 293.545781 -69.835217 
L 293.250618 -69.185463 
L 292.704097 -68.333614 
L 290.613969 -66.277585 
L 290.127942 -65.952708 
L 289.984011 -65.803997 
L 289.881799 -65.643083 
L 289.691977 -65.260247 
L 289.37804 -64.79581 
L 289.034901 -64.483135 
L 288.648999 -64.287141 
L 288.205733 -64.169698 
L 287.607064 -64.112501 
L 287.359878 -64.006496 
L 286.838389 -63.410889 
L 285.80897 -62.643691 
L 285.17171 -61.939028 
L 284.794152 -61.615676 
L 284.488559 -61.518823 
L 283.758475 -61.601186 
L 283.604114 -61.663721 
L 283.319381 -61.910811 
L 283.160848 -61.976397 
L 279.443675 -62.325677 
L 278.556101 -62.719953 
L 278.114921 -62.722241 
L 275.847487 -63.371995 
L 274.492658 -64.014885 
L 274.207925 -64.236046 
L 273.990986 -64.532706 
L 273.581095 -65.26101 
L 272.747756 -66.133449 
L 272.459894 -66.334782 
L 272.125098 -66.40418 
L 269.37998 -66.35461 
L 268.41001 -66.65127 
L 268.139047 -66.646437 
L 268.025152 -66.644406 
L 267.872877 -66.6078 
L 267.768579 -66.507134 
L 267.673668 -66.378251 
L 267.554768 -66.259282 
L 267.348259 -66.159378 
L 266.913337 -66.04346 
L 266.713085 -65.943556 
L 266.139447 -65.486746 
L 265.878703 -65.202288 
L 265.655505 -64.862921 
L 263.766672 -60.832463 
L 263.662374 -60.464117 
L 263.652988 -60.227704 
L 263.696793 -59.724374 
L 263.690535 -59.475759 
L 263.634214 -59.212654 
L 263.552862 -59.023524 
L 263.339051 -58.668905 
L 263.084565 -58.076347 
L 262.978181 -57.912384 
L 262.954192 -57.882641 
L 262.712222 -57.625638 
L 262.482766 -57.214584 
L 262.303374 -56.748622 
L 262.209506 -56.319266 
L 262.203248 -55.717557 
L 262.346136 -55.414796 
L 262.978181 -55.012895 
L 263.153401 -54.773431 
L 263.229539 -54.504988 
L 263.285859 -53.933784 
L 263.444392 -53.385459 
L 263.690535 -52.915684 
L 264.605227 -51.575757 
L 264.945237 -51.212749 
L 266.08104 -50.399031 
L 266.390805 -50.075679 
L 266.667194 -49.699325 
L 267.593359 -47.948345 
L 267.732075 -47.449972 
L 267.768579 -47.01604 
L 267.740419 -46.52758 
L 267.621519 -46.125678 
L 267.389978 -45.953707 
L 267.216844 -45.918627 
L 266.738117 -45.687171 
L 265.999688 -45.722251 
L 265.809866 -45.632262 
L 264.229755 -43.568988 
L 263.931463 -43.26127 
L 263.601882 -43.087011 
L 262.528657 -42.986726 
L 262.253311 -42.862419 
L 261.619181 -42.311424 
L 259.172354 -41.255955 
L 257.934339 -40.502485 
L 257.533836 -40.091813 
L 256.153976 -38.042647 
L 254.974368 -36.695857 
L 254.829394 -36.396909 
L 254.580122 -35.664792 
L 254.248455 -35.028384 
L 253.830221 -34.525053 
L 252.888412 -33.703709 
L 252.646441 -33.444418 
L 252.398212 -32.675695 
L 252.215691 -32.43013 
L 249.522722 -31.161127 
L 249.177496 -30.925858 
L 249.051296 -30.795831 
L 248.961599 -30.680675 
L 248.866688 -30.584204 
L 248.718586 -30.507942 
L 248.542322 -30.47248 
L 247.983286 -30.480106 
L 247.230256 -30.367238 
L 244.754226 -29.188987 
L 243.250252 -27.984044 
L 243.169942 -27.945913 
L 243.114665 -27.948582 
L 243.065645 -27.924941 
L 243.003066 -27.805209 
L 242.965519 -27.74725 
L 242.915456 -27.717889 
L 241.335344 -27.587862 
L 240.848273 -27.408264 
L 240.577099 -27.373184 
L 237.963918 -27.721321 
L 237.629122 -27.69196 
L 236.634121 -27.121137 
L 236.289417 -26.99111 
L 235.969744 -26.966325 
L 233.341961 -27.508549 
L 231.155357 -27.470799 
L 230.297508 -27.729328 
L 229.718134 -27.791863 
L 228.42971 -27.567704 
L 224.117807 -26.817521 
L 219.805903 -26.067338 
L 215.493999 -25.317155 
L 210.956784 -23.154168 
L 206.419569 -20.991181 
L 202.435915 -18.73115 
L 201.718346 -18.305989 
L 201.268822 -17.926966 
L 201.131149 -17.857186 
L 200.943413 -17.791981 
L 200.42401 -17.478544 
L 199.85663 -17.374827 
L 199.68141 -17.301615 
L 197.803528 -15.12738 
L 197.389987 -14.979813 
L 197.002521 -15.515173 
L 196.782974 -15.750061 
L 196.567599 -15.845007 
L 193.630051 -15.854921 
L 192.657996 -16.018885 
L 192.588116 -16.155013 
L 192.616277 -19.177666 
L 188.681642 -18.328867 
L 184.747008 -17.480069 
L 184.448716 -17.534215 
L 181.488744 -19.263461 
L 178.528773 -20.992706 
L 178.524601 -20.993469 
L 178.21275 -21.154001 
L 174.716688 -22.039913 
L 171.220626 -22.925826 
L 167.724563 -23.811739 
L 167.119636 -24.1553 
L 166.234148 -25.190178 
L 164.709314 -27.89291 
L 163.722657 -28.694045 
L 162.585811 -29.018922 
L 161.43332 -29.128358 
L 159.495467 -28.906435 
L 155.453058 -29.628003 
L 151.410649 -30.34957 
L 147.36824 -31.071138 
L 146.909851 -31.067706 
L 143.381406 -29.904177 
L 141.893648 -29.413579 
L 137.795309 -29.999625 
L 133.69697 -30.585672 
L 129.598631 -31.171719 
L 125.500291 -31.757765 
L 122.186664 -32.231601 
L 118.873038 -32.705437 
L 118.846887 -32.702504 
L 115.234049 -32.297302 
L 111.621212 -31.892101 
L 110.658543 -31.720892 
L 110.528121 -31.755966 
L 110.441604 -31.779232 
L 110.369638 -32.021365 
L 110.234051 -33.874537 
L 110.168343 -34.217335 
L 110.047358 -34.517808 
L 109.801215 -34.860226 
L 105.907778 -39.011177 
L 105.563595 -39.491629 
L 105.367516 -40.044149 
L 105.271562 -40.663017 
L 105.230885 -41.342513 
L 105.144318 -41.879399 
L 103.727954 -45.150285 
L 102.686019 -48.676649 
L 102.141585 -49.978064 
L 101.889184 -50.294552 
L 101.532485 -50.405132 
L 101.005781 -50.434874 
L 100.045199 -50.701029 
L 99.958632 -50.855079 
L 99.956546 -51.203597 
L 100.0525 -52.052396 
L 99.983663 -52.792902 
L 99.996179 -52.9378 
L 100.041027 -53.086511 
L 100.176614 -53.370207 
L 100.246493 -53.774396 
L 100.369565 -54.023774 
L 100.667857 -54.450842 
L 100.753381 -54.742164 
L 100.568774 -54.839779 
L 97.111302 -54.365428 
L 96.677423 -54.431014 
L 95.788805 -54.945021 
L 93.922918 -55.558169 
L 93.694506 -55.6718 
L 93.550575 -55.865506 
L 93.435847 -56.118697 
L 93.280443 -56.34062 
L 92.582691 -57.038419 
L 91.29357 -57.882641 
L 90.989021 -58.047368 
L 90.345503 -58.04508 
L 90.063899 -58.160236 
L 89.897023 -58.395123 
L 89.63002 -59.034963 
L 89.448542 -59.303406 
L 88.616246 -60.258972 
L 88.483787 -60.355062 
L 88.316911 -60.429036 
L 88.15212 -60.448865 
L 87.695296 -60.219315 
L 87.239515 -60.213977 
L 86.396788 -60.342097 
L 85.915976 -60.533516 
L 85.381971 -61.142851 
L 83.762226 -63.509267 
L 83.502524 -63.752543 
L 81.857748 -64.640998 
L 80.801211 -64.697432 
L 80.592616 -64.77827 
L 80.203585 -65.041375 
L 79.998118 -65.136702 
L 79.758233 -65.151955 
L 79.271163 -65.066541 
L 79.020848 -65.087894 
L 78.229228 -65.473019 
L 77.961182 -65.505811 
L 77.323296 -65.436877 
L 77.086124 -65.411246 
L 76.891087 -65.473019 
L 76.697093 -65.497423 
L 76.501013 -65.483695 
L 76.30389 -65.429549 
L 76.00247 -65.446327 
L 75.711479 -65.57521 
L 75.154528 -65.919153 
L 75.018941 -65.937455 
L 74.682059 -65.860431 
L 74.527699 -65.849754 
L 74.061487 -65.920678 
L 72.908997 -65.590462 
L 72.238362 -65.552331 
L 71.260049 -65.322782 
L 71.097344 -65.329646 
L 70.641563 -65.526402 
L 70.466342 -65.553857 
L 69.970928 -65.473019 
L 69.806137 -65.476069 
L 69.345141 -65.648422 
L 69.168878 -65.648422 
L 68.674506 -65.509624 
L 68.420019 -65.574447 
L 67.559563 -66.218863 
L 67.228938 -66.376726 
L 66.899357 -66.464427 
L 66.56039 -66.485018 
L 66.214121 -66.443074 
L 65.648827 -66.327918 
L 63.912268 -66.429347 
L 63.686985 -66.40418 
L 63.272923 -66.263095 
L 63.064327 -66.238691 
L 62.065154 -66.498745 
L 61.947298 -66.472053 
L 61.856559 -66.420195 
L 61.762691 -66.409518 
L 61.639619 -66.503321 
L 60.976285 -67.388725 
L 60.798979 -67.516846 
L 60.580997 -67.509982 
L 60.407862 -67.380336 
L 60.245158 -67.193494 
L 60.073066 -67.046308 
L 59.872815 -67.038682 
L 58.888243 -67.274332 
L 58.234296 -67.630476 
L 58.087236 -67.773849 
L 57.865082 -68.12313 
L 57.736796 -68.28023 
L 57.396785 -68.469361 
L 56.947261 -68.570789 
L 56.488351 -68.59138 
L 56.123309 -68.531133 
L 55.420341 -68.104827 
L 55.094932 -68.107878 
L 54.937443 -68.534184 
L 54.96456 -68.778985 
L 55.020881 -68.939898 
L 55.028182 -69.102337 
L 54.90511 -69.354002 
L 54.730933 -69.492799 
L 54.321043 -69.68193 
L 54.264722 -69.851232 
L 54.259507 -70.343886 
L 54.13435 -70.751126 
L 53.977903 -71.1393 
L 53.884035 -71.57247 
L 53.729674 -71.879044 
L 53.067383 -72.380087 
L 52.853573 -72.637853 
L 53.312483 -76.133712 
L 53.455371 -76.460877 
L 55.559058 -79.380957 
L 56.123309 -79.930807 
L 56.234907 -80.016221 
L 56.398655 -80.440239 
L 56.428901 -81.122786 
L 56.332947 -81.796181 
L 56.123309 -82.191982 
L 55.857349 -82.60151 
L 55.35672 -84.274703 
L 55.326473 -84.575176 
L 55.425556 -84.800531 
L 55.725934 -85.192518 
L 56.123309 -86.265146 
L 56.233864 -86.541215 
L 56.388225 -87.128434 
L 56.516511 -87.396115 
L 56.733451 -87.925756 
L 56.831491 -88.250633 
L 56.853393 -88.47675 
L 56.702161 -88.676176 
L 56.488351 -88.75587 
L 56.332947 -88.893142 
L 56.35485 -89.271402 
L 56.492523 -89.901328 
L 56.518313 -90.298352 
L 56.531113 -90.495411 
L 56.422643 -91.04488 
L 56.123309 -91.542491 
L 55.762438 -91.907024 
L 55.620593 -92.117889 
L 55.566358 -92.420269 
L 55.594519 -92.537713 
L 55.712375 -92.762686 
L 55.733235 -92.874792 
L 55.695688 -93.027697 
L 55.625808 -93.114255 
L 55.543413 -93.184416 
L 55.467275 -93.28737 
L 55.368193 -93.557338 
L 55.301442 -93.815486 
L 55.214875 -94.059906 
L 55.060514 -94.290218 
L 54.855047 -94.480111 
L 54.640194 -94.614332 
L 54.411782 -94.681443 
L 54.17294 -94.673817 
L 53.774522 -94.755418 
L 53.46893 -95.092496 
L 51.012716 -99.434485 
L 50.988728 -99.543921 
L 51.01063 -99.649926 
L 51.078424 -99.749829 
L 51.182722 -99.965651 
L 51.22757 -100.21541 
L 51.199409 -100.45678 
L 51.078424 -100.647054 
L 50.805164 -100.838091 
L 50.740499 -101.229316 
L 50.759273 -101.705192 
L 50.735284 -102.151707 
L 50.594482 -102.351133 
L 50.264901 -102.618432 
L 50.133486 -102.820908 
L 49.835194 -103.557601 
L 49.698564 -103.771135 
L 49.586965 -104.070083 
L 49.688134 -104.275991 
L 49.810163 -104.435379 
L 49.762186 -104.59553 
L 49.547332 -104.765595 
L 49.331436 -104.888758 
L 48.399013 -105.143092 
L 47.931759 -105.353576 
L 47.493187 -105.650617 
L 47.118758 -106.033835 
L 46.995687 -106.236693 
L 46.875744 -106.52687 
L 46.808993 -106.839545 
L 46.847584 -107.10837 
L 46.932065 -107.428671 
L 46.886695 -107.697114 
L 46.732856 -107.85879 
L 46.307843 -107.867941 
L 45.910989 -107.989961 
L 45.744634 -107.909123 
L 45.667454 -107.727237 
L 45.653374 -107.530862 
L 45.621042 -107.334868 
L 45.489105 -107.155271 
L 45.163174 -107.040496 
L 44.098294 -106.954701 
L 43.772884 -107.040496 
L 43.661286 -107.215137 
L 43.569504 -107.637248 
L 43.49128 -107.835148 
L 43.328576 -107.99568 
L 42.97292 -108.070036 
L 42.803958 -108.154687 
L 42.68923 -108.345724 
L 42.611007 -108.593957 
L 42.522354 -108.805966 
L 42.381552 -108.889092 
L 42.211546 -108.933324 
L 42.077002 -109.072884 
L 42.000343 -109.279554 
L 42.00608 -109.528169 
L 41.962275 -109.935028 
L 41.658768 -110.090984 
L 41.273909 -110.075732 
L 40.988133 -109.972015 
L 40.484375 -109.952568 
L 40.320627 -109.974303 
L 39.916995 -110.196226 
L 39.766284 -110.205378 
L 39.564468 -110.110813 
L 39.074269 -109.715774 
L 38.901656 -109.531982 
L 38.653427 -109.341327 
L 38.398419 -109.293282 
L 37.877973 -109.396998 
L 36.945029 -109.400811 
L 36.65456 -109.528169 
L 36.653517 -109.529695 
L 36.650909 -109.529695 
L 35.508327 -111.06409 
L 35.35188 -111.196786 
L 35.073926 -111.269998 
L 34.49038 -111.184966 
L 34.22755 -111.196786 
L 33.924043 -111.412227 
L 33.256537 -112.088292 
L 32.968675 -112.18667 
L 32.714189 -112.159215 
L 32.516023 -112.228233 
L 32.116562 -112.55044 
L 31.960637 -112.761687 
L 31.887107 -113.023266 
L 31.840173 -113.310775 
L 31.763514 -113.592182 
L 31.738483 -113.884648 
L 31.881892 -114.434117 
L 31.802626 -114.694934 
L 31.172667 -115.426288 
L 30.934868 -115.538394 
L 30.733052 -115.508651 
L 30.536451 -115.443447 
L 30.304909 -115.449167 
L 29.96907 -115.664226 
L 29.451232 -116.333046 
L 29.176407 -116.554588 
L 28.477612 -116.911495 
L 28.29822 -116.938186 
L 27.95143 -116.905012 
L 27.774645 -116.919502 
L 27.596295 -117.002628 
L 27.267757 -117.255437 
L 26.990325 -117.396904 
L 26.824492 -117.584509 
L 26.730624 -117.644756 
L 26.62424 -117.649331 
L 26.385398 -117.596711 
L 26.267542 -117.59938 
L 25.928574 -117.784316 
L 25.613594 -118.121776 
L 25.522855 -118.480208 
L 25.852436 -118.731492 
L 25.995324 -118.84436 
L 26.07772 -119.006799 
L 26.13404 -119.166568 
L 26.202355 -119.276004 
L 26.655008 -119.571139 
L 26.744182 -119.706886 
L 26.699334 -120.082858 
L 26.440676 -120.393246 
L 25.852436 -120.789809 
L 25.619852 -120.865309 
L 25.1672 -120.831753 
L 24.502301 -121.134514 
L 24.294227 -121.266448 
L 24.140909 -121.447952 
L 24.103362 -121.580648 
L 24.086674 -121.88646 
L 24.041826 -122.026019 
L 23.955259 -122.126686 
L 23.84679 -122.194559 
L 23.624635 -122.284548 
L 23.45463 -122.463002 
L 23.432727 -122.719243 
L 23.512515 -122.991499 
L 23.646538 -123.21571 
L 24.443373 -123.592445 
L 24.814152 -123.918847 
L 24.810501 -124.451158 
L 24.65614 -124.621222 
L 24.46319 -124.692146 
L 24.302571 -124.814928 
L 24.2426 -125.137517 
L 24.294227 -125.450955 
L 24.380794 -125.659914 
L 24.440244 -125.877261 
L 24.408955 -126.218915 
L 24.263981 -126.663524 
L 24.24625 -126.838165 
L 24.454846 -126.751988 
L 24.63841 -126.736736 
L 25.663657 -126.883159 
L 25.852436 -126.985351 
L 26.0287 -127.220238 
L 26.4 -127.571807 
L 27.194749 -128.042345 
L 27.55249 -128.386287 
L 27.597338 -128.767598 
L 27.403345 -129.200768 
L 27.265671 -129.653003 
L 27.470095 -130.08846 
L 27.569178 -130.252424 
L 27.731883 -130.738214 
L 27.863298 -130.941071 
L 28.117784 -131.095884 
L 29.922136 -131.412372 
L 30.155764 -131.413134 
L 30.652221 -131.255272 
L 30.897321 -131.233155 
L 31.536666 -131.275862 
L 31.729096 -131.342973 
L 32.152023 -131.606078 
L 32.297519 -131.663274 
L 32.313685 -131.665562 
L 32.493077 -131.640396 
L 32.645874 -131.527528 
L 32.908183 -131.176721 
L 33.119907 -130.986829 
L 33.359792 -130.927344 
L 34.885669 -130.825153 
L 34.933124 -130.910566 
L 34.726615 -131.384155 
L 34.739652 -131.939344 
L 34.765726 -132.173468 
L 34.861159 -132.332094 
L 35.070276 -132.384715 
L 35.266356 -132.300064 
L 35.374826 -132.111696 
L 35.454092 -131.879096 
L 35.561519 -131.664037 
L 35.662166 -131.516088 
L 35.734131 -131.354412 
L 35.814441 -131.211039 
L 35.942206 -131.118 
L 36.333322 -131.187398 
L 37.813308 -131.809698 
L 38.161663 -132.087292 
L 38.367129 -132.440386 
L 38.225284 -132.811783 
L 37.989571 -133.222836 
L 38.081875 -133.569829 
L 38.375473 -133.754384 
L 38.736344 -133.679647 
L 39.326669 -133.144286 
L 39.616617 -132.96202 
L 39.944634 -132.974984 
L 40.2059 -133.230463 
L 40.415538 -133.602622 
L 40.647601 -133.888605 
L 40.988133 -133.886318 
L 41.441829 -134.177639 
L 42.410755 -134.506329 
L 43.076697 -134.844171 
L 43.279556 -135.015761 
L 43.382811 -135.239972 
L 43.270691 -135.505364 
L 43.090777 -135.623571 
L 42.639167 -135.834817 
L 42.512967 -136.020134 
L 42.522354 -136.14978 
L 42.669414 -136.316794 
L 42.68558 -136.475419 
L 42.639167 -136.563121 
L 42.458732 -136.71412 
L 42.400847 -136.815549 
L 42.400325 -137.001629 
L 42.458732 -137.574358 
L 42.486893 -137.712392 
L 42.581234 -137.789834 
L 42.929115 -138.075401 
L 43.464163 -138.259192 
L 44.934762 -138.303425 
L 45.477111 -138.423156 
L 45.97409 -138.66262 
L 46.244742 -139.041643 
L 46.2533 -139.202501 
L 46.269774 -139.51218 
L 46.332353 -139.897305 
L 46.489842 -140.192439 
L 46.799607 -140.390721 
L 48.123667 -140.660689 
L 48.532515 -140.836855 
L 49.752799 -141.726072 
L 49.955137 -141.801572 
L 50.369199 -141.843516 
L 50.571537 -141.906814 
L 51.078424 -142.315579 
L 51.519604 -142.371251 
L 52.387361 -142.188221 
L 52.826455 -142.198135 
L 53.007933 -142.253044 
L 53.184197 -142.33922 
L 53.343772 -142.471154 
L 53.474144 -142.660284 
L 53.522121 -142.867717 
L 53.524207 -143.291735 
L 53.614947 -143.455699 
L 53.97686 -143.660082 
L 54.759093 -143.882767 
L 55.133522 -144.156549 
L 55.855263 -145.014499 
L 56.123309 -145.257012 
L 56.495652 -145.424789 
L 57.683604 -145.437754 
L 58.022572 -145.535369 
L 58.998799 -146.034124 
L 59.376357 -146.031074 
L 60.230556 -145.862534 
L 60.569524 -145.957099 
L 60.738486 -146.203426 
L 60.814624 -146.506187 
L 60.918922 -146.808948 
L 61.168193 -147.058326 
L 62.184054 -147.441925 
L 62.456271 -147.701979 
L 62.965244 -148.594246 
L 63.232247 -148.837523 
L 63.940429 -149.244 
L 64.691373 -149.501767 
L 65.455876 -149.585655 
L 67.098566 -149.276793 
L 68.068536 -149.317975 
L 68.915434 -149.774023 
L 69.436923 -150.825679 
L 69.462997 -151.100223 
L 69.467169 -151.361802 
L 69.509931 -151.594402 
L 69.646562 -151.778956 
L 69.850985 -151.893349 
L 70.107558 -151.963511 
L 70.3464 -151.922329 
L 70.500761 -151.701169 
L 70.693711 -151.127677 
L 70.938811 -150.752467 
L 71.257963 -150.519105 
L 71.67724 -150.373444 
L 72.062099 -150.11339 
L 72.639908 -149.296621 
L 73.022681 -149.096052 
L 73.245879 -149.11893 
L 73.481592 -149.21197 
L 73.704789 -149.36297 
L 73.885224 -149.555913 
L 73.999952 -149.795376 
L 74.068788 -150.285742 
L 74.137625 -150.522918 
L 74.499538 -150.777633 
L 75.121153 -150.888214 
L 75.760499 -150.843219 
L 76.170389 -150.628159 
L 76.294503 -150.101188 
L 76.288246 -149.395762 
L 76.474939 -148.811594 
L 76.586537 -148.517222 
L 76.672061 -148.347157 
L 76.787832 -148.24344 
L 76.987041 -148.148875 
L 77.615957 -147.985674 
L 77.961182 -147.994826 
L 78.45764 -148.000164 
L 80.810598 -148.141249 
L 81.969347 -147.777478 
L 85.50765 -147.633724 
L 89.045953 -147.48997 
L 89.25872 -147.376339 
L 89.406823 -147.187971 
L 89.455843 -146.958422 
L 89.471488 -146.419248 
L 89.87512 -145.479698 
L 89.953343 -145.115927 
L 90.00132 -143.590683 
L 90.123349 -142.825773 
L 90.225561 -142.448275 
L 90.367406 -142.140176 
L 90.602076 -141.886986 
L 91.441673 -141.543043 
L 91.610636 -141.395857 
L 91.679472 -141.207489 
L 91.717019 -140.993955 
L 91.785856 -140.769744 
L 91.904755 -140.591291 
L 92.339677 -140.196252 
L 92.445018 -140.012461 
L 92.625453 -139.588443 
L 92.738095 -139.439731 
L 92.950862 -139.372621 
L 93.217865 -139.411514 
L 94.180533 -139.744018 
L 95.948381 -139.825618 
L 96.272747 -139.747831 
L 96.543922 -139.513706 
L 96.780678 -139.041643 
L 96.957984 -138.703038 
L 97.025777 -138.608473 
L 97.510762 -138.344606 
L 100.319502 -138.376636 
L 100.77424 -138.246228 
L 101.232108 -137.885508 
L 101.398984 -137.71163 
L 101.555439 -137.585353 
L 101.589849 -137.55758 
L 101.792187 -137.476742 
L 101.993482 -137.519449 
L 102.160358 -137.683413 
L 102.423189 -138.079976 
L 102.632827 -138.214198 
L 103.606969 -138.35147 
L 104.019988 -138.536024 
L 104.398589 -139.046218 
L 104.688537 -139.321525 
L 105.094255 -139.445832 
L 105.489544 -139.36957 
L 105.742988 -139.043931 
L 105.742988 -139.041643 
L 105.867102 -138.629064 
L 106.050666 -138.330879 
L 106.289508 -138.24089 
L 106.57737 -138.446797 
L 106.686883 -138.631352 
L 106.814126 -138.793028 
L 106.951799 -138.9303 
L 107.099902 -139.042405 
L 107.244876 -139.117905 
L 107.396108 -139.130869 
L 107.548383 -139.100365 
L 107.698571 -139.043931 
L 107.699614 -139.043168 
L 107.7017 -139.042405 
L 107.702743 -139.041643 
L 109.208804 -138.398752 
L 109.668757 -138.060148 
L 110.094292 -137.641469 
L 110.325833 -137.504197 
L 110.593878 -137.466828 
L 110.858795 -137.550717 
L 111.360467 -137.878644 
L 111.621212 -137.992275 
L 111.910117 -137.999138 
L 112.117669 -137.905336 
L 112.273073 -137.70019 
L 112.411789 -137.375313 
L 112.564064 -137.108396 
L 112.736155 -137.045861 
L 112.930149 -137.125173 
L 113.148131 -137.279986 
L 113.695695 -137.816109 
L 113.91472 -137.875594 
L 116.611861 -137.47598 
L 116.982119 -137.160254 
L 117.349247 -136.53948 
L 117.500479 -136.384667 
L 117.783149 -136.283067 
L 117.933315 -136.229093 
L 118.132523 -136.10326 
L 118.224305 -135.840155 
L 118.466276 -135.462657 
L 118.991937 -135.223957 
L 119.569747 -135.106513 
L 119.967122 -135.098124 
L 120.387442 -135.225482 
L 120.866169 -135.451218 
L 121.712024 -136.030048 
L 122.399346 -136.532616 
L 122.711197 -136.897912 
L 122.788377 -137.347096 
L 122.692423 -137.624691 
L 122.605856 -137.80467 
L 122.640274 -137.920588 
L 123.403734 -138.115819 
L 124.325727 -138.533736 
L 124.555182 -138.580256 
L 124.768992 -138.501706 
L 125.103788 -138.132597 
L 125.297782 -138.016679 
L 125.474046 -138.116582 
L 125.748349 -138.468914 
L 126.0675 -138.751084 
L 127.498466 -139.488539 
L 128.079405 -140.091011 
L 129.662645 -143.33673 
L 129.731482 -143.567042 
L 129.761728 -143.856076 
L 129.739826 -144.106216 
L 129.656387 -144.571415 
L 129.701236 -145.061781 
L 130.023516 -145.938796 
L 130.047504 -146.420774 
L 130.048547 -146.421536 
L 130.048547 -146.423062 
L 129.975539 -146.802085 
L 129.793018 -147.083492 
L 129.550004 -147.273385 
L 129.290302 -147.377864 
L 128.662429 -147.481581 
L 128.38604 -147.574621 
L 127.620494 -148.134385 
L 127.402512 -148.341819 
L 127.249194 -148.623226 
L 126.756909 -149.820543 
L 126.44923 -150.577826 
L 126.483648 -150.895077 
L 126.915441 -151.480008 
L 126.85912 -151.647023 
L 126.539969 -151.88191 
L 126.396038 -152.052737 
L 126.304256 -152.232716 
L 126.201001 -152.392104 
L 125.722274 -152.682663 
L 125.356189 -153.031182 
L 125.081886 -153.470452 
L 125.059983 -153.922687 
L 125.703501 -155.187114 
L 125.859947 -155.678624 
L 125.95173 -156.176616 
L 126.00805 -156.391676 
L 126.297998 -157.079561 
L 126.325116 -157.306441 
L 126.288611 -157.617209 
L 126.169712 -158.125116 
L 126.163454 -158.342463 
L 126.23542 -158.605949 
L 126.345975 -158.802324 
L 126.632794 -159.151605 
L 126.756909 -159.345692 
L 127.222077 -160.328331 
L 127.415028 -160.654733 
L 127.527669 -160.789336 
L 127.687245 -160.83128 
L 128.137811 -161.059304 
L 128.404814 -161.076463 
L 129.238153 -160.918981 
L 129.334107 -161.179798 
L 129.37374 -161.528698 
L 129.277786 -162.170444 
L 129.31742 -162.515912 
L 129.42276 -162.782448 
L 129.672032 -163.280059 
L 129.774244 -163.569856 
L 130.366655 -164.506737 
L 131.30325 -164.918553 
L 133.257791 -165.42684 
L 133.587372 -165.675074 
L 133.903394 -165.99957 
L 134.190213 -166.37783 
L 134.851461 -167.632343 
L 135.003736 -168.331668 
L 135.08926 -168.556641 
L 135.476205 -169.036712 
L 135.556514 -169.244145 
L 135.580503 -169.494666 
L 135.587803 -169.993803 
L 135.648296 -170.238223 
L 135.959104 -170.560812 
L 136.375252 -170.576064 
L 136.476328 -170.503803 
L 136.726735 -170.324781 
L 136.847721 -169.850048 
L 137.052145 -169.524027 
L 137.35878 -169.33566 
L 139.110983 -168.761024 
L 139.455166 -168.578757 
L 139.688793 -168.337769 
L 139.877572 -168.065894 
L 140.086168 -167.830625 
L 140.37403 -167.692972 
L 142.724902 -167.061902 
L 143.960831 -167.02072 
L 144.266945 -166.90137 
L 145.016846 -166.26725 
L 145.66975 -165.554961 
L 146.368546 -164.966598 
L 147.257163 -164.704637 
L 148.188542 -164.806829 
L 149.31913 -164.623418 
L 152.352632 -164.633332 
L 152.960167 -164.307311 
L 153.64436 -164.118944 
L 157.989407 -162.073591 
L 158.469177 -161.695712 
L 158.89054 -161.598096 
L 159.313989 -161.593521 
L 159.725965 -161.50887 
L 160.110824 -161.175604 
L 160.471694 -160.747773 
L 160.822135 -160.553685 
L 161.201779 -160.555211 
L 162.152975 -160.884663 
L 162.600412 -160.928133 
L 163.038985 -160.843482 
L 163.784193 -160.548347 
L 164.318197 -160.583046 
L 164.591458 -160.555592 
L 164.778151 -160.470941 
L 165.314241 -160.09535 
L 165.581244 -160.009555 
L 166.389552 -160.061032 
L 166.579374 -160.001547 
L 166.9319 -159.71747 
L 167.119636 -159.620617 
L 167.896655 -159.567234 
L 168.133411 -159.437588 
L 168.300809 -159.287352 
L 169.235317 -158.686024 
L 169.331271 -158.439697 
L 169.188905 -158.133123 
L 168.745117 -157.452102 
L 168.729994 -157.312923 
L 168.789444 -157.1665 
L 168.869753 -156.896531 
L 168.893742 -156.642197 
L 168.881226 -156.397014 
L 168.814475 -155.895971 
L 168.858281 -155.346883 
L 169.048624 -154.75547 
L 169.317191 -154.209814 
L 169.59358 -153.797617 
L 169.697356 -153.600098 
L 169.711437 -153.388089 
L 169.656159 -153.17913 
L 169.551861 -152.993813 
L 169.796439 -152.611739 
L 169.71978 -152.205262 
L 169.526829 -151.791921 
L 169.42879 -151.387731 
L 169.567506 -150.937784 
L 169.859018 -150.641124 
L 170.48324 -150.190414 
L 170.70383 -149.756482 
L 170.611527 -149.421691 
L 170.375292 -149.109016 
L 170.164089 -148.74372 
L 170.120284 -148.312076 
L 170.229797 -147.864417 
L 170.436828 -147.470142 
L 170.6861 -147.199411 
L 171.140838 -147.024008 
L 172.141575 -146.895125 
L 172.557724 -146.581687 
L 173.299281 -145.276841 
L 173.61426 -145.04119 
L 173.631734 -145.036868 
L 175.075472 -144.679708 
L 176.332261 -143.796591 
L 176.738501 -143.619663 
L 177.209927 -143.511371 
L 178.783259 -143.710415 
L 179.506565 -143.531199 
L 179.895074 -142.754849 
L 180.025446 -142.320917 
L 180.264288 -142.063914 
L 180.565187 -141.958672 
L 181.579483 -142.060101 
L 181.898635 -141.990702 
L 182.25429 -141.834365 
L 182.859217 -141.417973 
L 183.540282 -141.119025 
L 184.213003 -141.084707 
L 185.39574 -141.895374 
L 186.002753 -141.874021 
L 187.300218 -141.343236 
L 187.961466 -141.231893 
L 188.790633 -141.336372 
L 189.561916 -141.657436 
L 190.059938 -142.197373 
L 190.276877 -142.526063 
L 190.805667 -142.901273 
L 191.089623 -143.160568 
L 191.369396 -143.416043 
L 191.65778 -143.58382 
L 192.347188 -143.771425 
L 193.384952 -143.715753 
L 193.722876 -143.785152 
L 193.945031 -143.926237 
L 194.342927 -144.288482 
L 194.596892 -144.360931 
L 195.530357 -144.352543 
L 195.822391 -144.436431 
L 196.433055 -144.813929 
L 196.660945 -144.900868 
L 196.990527 -144.951964 
L 198.159705 -144.807828 
L 198.443395 -144.832232 
L 198.721349 -144.904681 
L 198.979486 -145.022887 
L 200.083478 -145.907529 
L 200.464165 -146.122588 
L 200.970531 -146.179785 
L 204.106244 -145.375219 
L 205.517915 -145.478173 
L 205.793261 -145.411062 
L 206.279289 -145.21278 
L 206.778875 -145.107538 
L 207.322267 -145.104488 
L 207.592919 -145.048054 
L 208.138397 -144.629374 
L 208.182202 -144.531759 
L 208.182202 -144.395249 
L 208.194196 -144.254927 
L 208.231744 -144.138246 
L 208.309967 -144.071135 
L 209.110974 -143.975807 
L 209.369633 -143.865227 
L 209.775872 -143.571618 
L 209.98864 -143.463325 
L 210.216531 -143.432058 
L 212.183587 -143.988009 
L 213.277671 -144.103928 
L 214.370712 -143.974282 
L 215.275496 -143.685248 
L 215.700509 -143.450361 
L 217.195618 -142.234741 
L 217.57109 -142.046374 
L 217.662351 -141.909864 
L 217.816711 -141.359251 
L 217.898064 -141.217403 
L 218.101444 -141.003869 
L 218.176017 -140.901678 
L 218.23286 -140.746103 
L 218.325685 -140.397585 
L 218.413295 -140.24201 
L 218.546275 -140.126091 
L 218.853432 -139.986531 
L 218.993712 -139.893492 
L 219.496949 -139.426767 
L 219.776467 -139.237637 
L 220.10657 -139.10494 
L 220.409033 -139.132395 
L 220.666649 -139.260515 
L 220.913313 -139.296358 
L 221.51094 -138.796078 
L 225.196824 -138.734306 
L 225.351058 -138.666641 
L 225.410634 -138.640503 
L 225.778284 -138.384262 
L 225.990009 -138.320202 
L 226.30551 -138.359859 
L 226.424409 -138.352232 
L 226.90105 -138.196657 
L 227.388642 -138.166915 
L 227.48929 -138.017441 
L 227.450178 -137.635368 
L 227.367261 -137.383702 
L 227.277565 -137.180082 
L 227.222287 -136.955871 
L 227.245754 -136.643959 
L 227.424103 -135.938534 
L 227.481989 -135.393259 
L 227.472602 -135.204891 
L 227.417324 -135.025675 
L 227.189955 -134.468198 
L 227.196213 -134.279068 
L 227.31772 -134.178402 
L 227.553954 -134.147134 
L 227.956544 -134.177639 
L 228.087959 -134.067822 
L 228.004521 -133.741419 
L 227.981575 -133.508057 
L 228.086916 -133.278508 
L 228.257964 -133.087852 
L 229.000043 -132.571557 
L 229.204467 -132.465553 
L 230.046672 -132.363361 
L 230.313674 -132.248968 
L 230.456562 -132.100257 
L 230.547301 -131.911889 
L 230.625524 -131.708269 
L 230.725129 -131.511513 
L 231.307632 -130.830491 
L 232.708352 -129.650715 
L 233.358127 -129.222884 
L 233.680205 -129.197639 
L 234.068395 -129.167212 
L 235.507705 -129.425741 
L 236.596574 -129.41659 
L 237.318314 -129.538609 
L 238.352427 -129.229747 
L 238.605349 -129.247288 
L 239.640505 -129.506579 
L 240.912938 -129.386848 
L 241.167425 -129.298383 
L 241.413568 -129.162637 
L 241.965303 -128.955203 
L 242.169727 -128.865214 
L 242.568144 -128.905633 
L 242.682872 -128.824795 
L 242.719376 -128.736331 
L 242.761095 -128.473226 
L 242.806986 -128.362646 
L 242.983249 -128.268844 
L 243.229392 -128.167415 
L 245.371669 -128.32299 
L 245.941135 -128.100304 
L 246.271759 -127.751786 
L 246.417776 -127.738821 
L 247.234428 -127.544353 
L 249.941999 -126.780968 
L 250.382135 -126.831301 
L 250.819143 -127.003654 
L 251.233206 -127.281248 
L 251.597205 -127.646544 
L 251.754695 -127.853215 
L 251.856906 -127.958456 
L 251.968505 -127.93329 
L 252.483736 -127.381152 
L 252.665214 -127.262182 
L 253.239895 -127.111183 
L 254.202564 -126.535404 
L 254.619755 -126.408808 
L 255.054677 -126.376016 
L 255.491685 -126.422536 
L 256.598284 -126.787832 
L 257.855073 -127.451313 
L 259.601018 -128.693624 
L 260.963147 -129.15501 
L 261.146712 -129.272454 
L 261.441874 -129.6347 
L 261.618138 -129.773497 
L 261.863237 -129.816204 
L 262.088521 -129.736891 
L 262.538044 -129.502766 
L 262.789402 -129.453958 
L 263.037631 -129.457771 
L 263.283773 -129.51268 
L 264.423748 -130.093798 
L 264.873272 -130.240222 
L 268.598789 -130.469008 
L 269.569688 -130.883279 
L 272.655974 -132.20016 
L 273.070036 -132.273372 
L 274.190195 -132.158216 
L 275.069425 -131.709794 
L 275.372932 -131.641158 
L 275.698341 -131.663274 
L 276.136392 -131.78987 
L 277.054212 -132.236766 
L 277.640366 -132.751536 
L 277.854176 -132.892621 
L 278.080503 -132.994812 
L 278.313087 -133.055822 
L 278.826232 -133.077176 
L 278.999366 -133.186231 
L 279.107836 -133.507294 
L 279.13391 -134.032741 
L 279.164157 -134.263816 
L 279.268454 -134.535309 
L 279.96725 -135.863034 
L 280.229037 -136.226042 
L 280.529415 -136.521939 
L 282.578867 -138.002951 
L 282.848998 -138.352232 
L 283.012746 -138.517721 
L 283.536321 -138.868527 
L 283.712584 -139.042405 
L 284.235116 -139.442782 
L 285.976889 -140.308358 
L 286.187571 -140.353353 
L 286.618321 -140.283191 
L 286.830045 -140.283954 
L 286.96146 -140.339625 
L 288.205733 -141.517114 
L 288.409114 -141.637608 
L 288.83152 -141.759628 
L 289.034901 -141.861056 
L 289.670074 -142.459715 
L 290.496113 -142.92949 
L 291.365956 -143.234539 
L 291.837383 -143.167428 
L 292.765633 -142.717481 
L 293.250618 -142.602325 
L 295.134236 -142.858566 
L 296.083346 -142.634355 
L 298.541645 -141.278413 
L 298.72208 -141.109111 
L 298.85141 -140.917693 
L 299.069392 -140.489099 
L 299.208108 -140.292343 
L 300.689137 -138.730493 
L 302.289065 -137.604863 
L 302.482016 -137.540802 
L 303.110932 -137.546141 
L 303.34143 -137.482081 
L 303.700214 -137.477505 
L 304.403182 -137.578934 
L 305.464933 -137.343283 
L 305.7966 -137.344809 
L 306.145998 -137.450813 
L 309.20088 -139.125531 
L 310.025876 -139.361181 
L 310.856087 -139.352792 
L 311.692555 -139.044693 
L 314.466876 -137.9938 
L 314.88824 -137.63308 
L 315.253282 -137.138901 
L 315.565132 -136.540242 
" style="stroke: #000000"/>
    </defs>
    <g clip-path="url(#pab5347d693)">
     <use xlink:href="#m9606863137" x="0" y="185.555877" style="fill: #f5f5f5; stroke: #000000"/>
    </g>
   </g>
  </g>
 </g>
 <defs>
  <clipPath id="pab5347d693">
   <rect x="7.2" y="7.2" width="357.12" height="171.155877"/>
  </clipPath>
 </defs>
</svg>
