<?xml version="1.0" encoding="utf-8" standalone="no"?>
<!DOCTYPE svg PUBLIC "-//W3C//DTD SVG 1.1//EN"
  "http://www.w3.org/Graphics/SVG/1.1/DTD/svg11.dtd">
<svg xmlns:xlink="http://www.w3.org/1999/xlink" width="236.050491pt" height="280.512pt" viewBox="0 0 236.050491 280.512" xmlns="http://www.w3.org/2000/svg" version="1.1">
 <metadata>
  <rdf:RDF xmlns:dc="http://purl.org/dc/elements/1.1/" xmlns:cc="http://creativecommons.org/ns#" xmlns:rdf="http://www.w3.org/1999/02/22-rdf-syntax-ns#">
   <cc:Work>
    <dc:type rdf:resource="http://purl.org/dc/dcmitype/StillImage"/>
    <dc:date>2024-03-04T13:11:12.034685</dc:date>
    <dc:format>image/svg+xml</dc:format>
    <dc:creator>
     <cc:Agent>
      <dc:title>Matplotlib v3.8.0, https://matplotlib.org/</dc:title>
     </cc:Agent>
    </dc:creator>
   </cc:Work>
  </rdf:RDF>
 </metadata>
 <defs>
  <style type="text/css">*{stroke-linejoin: round; stroke-linecap: butt}</style>
 </defs>
 <g id="figure_1">
  <g id="patch_1">
   <path d="M 0 280.512 
L 236.050491 280.512 
L 236.050491 0 
L 0 0 
z
" style="fill: #ffffff"/>
  </g>
  <g id="axes_1">
   <g id="PatchCollection_1">
    <defs>
     <path id="m6d7e62d793" d="M 23.87054 -99.763415 
L 24.015907 -101.879487 
L 23.495711 -103.479488 
L 21.675021 -104.54124 
L 20.862214 -105.049996 
L 19.518372 -106.66843 
L 18.402116 -108.552302 
L 17.654333 -110.760599 
L 17.578471 -113.23802 
L 18.163692 -117.838945 
L 17.676007 -120.150467 
L 18.759751 -121.149546 
L 19.941031 -121.650929 
L 21.154824 -121.555076 
L 22.336105 -120.788255 
L 23.419848 -120.943094 
L 23.809996 -121.813141 
L 23.58241 -123.092404 
L 22.845464 -124.519133 
L 24.957713 -125.754725 
L 26.053345 -126.395633 
L 28.27502 -128.581809 
L 28.736234 -129.741084 
L 29.445463 -131.523746 
L 29.488813 -135.682275 
L 28.405069 -139.590111 
L 26.606055 -141.934813 
L 24.47108 -144.15417 
L 20.829701 -150.111777 
L 19.409997 -153.529291 
L 18.434628 -156.943119 
L 18.337091 -159.424226 
L 19.366647 -161.020541 
L 20.677977 -162.041739 
L 21.447435 -163.431602 
L 20.851376 -166.163401 
L 18.369603 -171.180916 
L 17.32921 -174.038061 
L 17.275022 -176.508109 
L 19.290785 -182.100739 
L 22.466154 -185.131156 
L 28.329207 -186.450972 
L 34.560733 -186.532079 
L 38.819845 -185.931157 
L 36.944968 -196.803053 
L 36.890781 -200.530245 
L 36.94619 -200.817803 
L 37.779451 -205.142229 
L 39.480929 -208.751448 
L 44.000139 -215.070347 
L 41.475017 -216.312744 
L 43.06812 -218.639013 
L 56.452353 -228.419664 
L 59.215899 -229.293398 
L 58.879939 -229.864827 
L 58.28388 -231.184643 
L 57.926244 -231.752386 
L 59.855308 -232.670359 
L 66.097671 -233.252847 
L 68.644469 -232.530266 
L 71.462202 -230.565288 
L 72.199148 -229.536716 
L 72.264172 -228.55607 
L 72.177473 -227.534871 
L 72.426734 -226.3404 
L 73.380428 -224.736713 
L 75.515403 -221.98648 
L 75.573776 -221.854489 
L 75.883876 -221.1533 
L 76.978457 -222.130259 
L 77.812939 -223.32473 
L 78.474023 -224.58556 
L 79.037198 -225.3545 
L 79.265156 -225.665746 
L 80.478949 -226.321967 
L 83.231657 -226.473119 
L 83.97944 -227.107221 
L 80.825747 -233.083262 
L 77.715402 -241.68419 
L 74.084861 -246.43258 
L 73.347916 -246.978202 
L 71.039542 -246.384654 
L 71.050379 -247.118295 
L 71.505552 -248.290646 
L 71.559739 -249.219678 
L 70.16171 -251.380049 
L 69.403089 -251.855625 
L 67.788311 -252.298022 
L 66.78043 -253.046409 
L 66.726242 -254.248253 
L 67.343976 -255.420604 
L 68.34102 -256.124752 
L 70.270084 -257.086965 
L 72.762694 -259.848257 
L 74.312448 -260.980055 
L 76.696683 -261.216 
L 78.170575 -259.774524 
L 79.297668 -257.669454 
L 80.674022 -255.955167 
L 82.440524 -255.339498 
L 84.683874 -255.416918 
L 86.742987 -256.224292 
L 89.549883 -259.512773 
L 92.161705 -259.826137 
L 97.157763 -259.063003 
L 95.044462 -255.756088 
L 95.120325 -251.656546 
L 96.832639 -247.896175 
L 99.574511 -245.56622 
L 113.966626 -239.125662 
L 115.711453 -237.864832 
L 120.089777 -231.324736 
L 126.277953 -224.887865 
L 127.545933 -223.007679 
L 129.344947 -218.989243 
L 130.407016 -217.378182 
L 134.120422 -214.26365 
L 134.341005 -214.078641 
L 137.581399 -209.839007 
L 139.39125 -208.183706 
L 141.5479 -207.048221 
L 146.19716 -205.658359 
L 148.462184 -205.403981 
L 149.795189 -205.901677 
L 150.651346 -206.75329 
L 151.496666 -206.672184 
L 154.563661 -201.0943 
L 156.492724 -198.557893 
L 158.649374 -196.80674 
L 161.098634 -195.877707 
L 164.577451 -195.649135 
L 168.13213 -195.936693 
L 169.345923 -196.696141 
L 171.795184 -199.203055 
L 172.792228 -199.744991 
L 174.103558 -199.295221 
L 174.883853 -198.152363 
L 175.479912 -196.688767 
L 176.271045 -195.302591 
L 177.311439 -194.251899 
L 183.618826 -189.79844 
L 187.23588 -186.213273 
L 187.440966 -186.009995 
L 193.795179 -179.711797 
L 195.10823 -179.27668 
L 196.309464 -178.878617 
L 201.934093 -178.310875 
L 204.936063 -177.002118 
L 210.430643 -173.038982 
L 216.878917 -169.768934 
L 218.612907 -167.486904 
L 218.775468 -163.947732 
L 217.745912 -158.421461 
L 209.2602 -156.968925 
L 205.239511 -155.47215 
L 204.350841 -154.897034 
L 203.473009 -153.32284 
L 203.386309 -151.95141 
L 203.548871 -150.650027 
L 203.386309 -149.267537 
L 200.76365 -146.30348 
L 197.208971 -147.354172 
L 193.285819 -149.732054 
L 189.536066 -150.716386 
L 188.354786 -150.148644 
L 187.366956 -149.350843 
L 185.16858 -147.57537 
L 184.312422 -146.403019 
L 184.128186 -143.579054 
L 185.320304 -141.378131 
L 185.41321 -141.288885 
L 191.410943 -135.527436 
L 192.22375 -134.056467 
L 192.429662 -133.547711 
L 191.031633 -129.872132 
L 189.839515 -127.575357 
L 189.471042 -126.410379 
L 189.438529 -124.109917 
L 189.73114 -122.104385 
L 189.611928 -120.250006 
L 188.343948 -118.373507 
L 185.645427 -119.944015 
L 183.39124 -118.299774 
L 179.619812 -113.23802 
L 176.953803 -112.460139 
L 171.838534 -112.614978 
L 169.237549 -110.790092 
L 169.215874 -110.760599 
L 168.251342 -109.824193 
L 164.284841 -107.457371 
L 163.608552 -107.239264 
L 162.615876 -106.919122 
L 160.708487 -107.155066 
L 158.931147 -108.07304 
L 155.484843 -110.760599 
L 153.674991 -115.180878 
L 153.317355 -116.504382 
L 153.252331 -117.470281 
L 153.447405 -119.626964 
L 153.631641 -120.633417 
L 154.411937 -122.31821 
L 154.899621 -123.107151 
L 155.083858 -122.959685 
L 154.991467 -124.390627 
L 154.899621 -125.813144 
L 154.010951 -129.451856 
L 152.396173 -132.544945 
L 150.0011 -133.791029 
L 147.562677 -132.629738 
L 145.675045 -130.908741 
L 144.614894 -129.942179 
L 141.873023 -126.68319 
L 140.117359 -123.807612 
L 139.510462 -121.838947 
L 138.925241 -118.097009 
L 138.340019 -116.390096 
L 137.039527 -114.889634 
L 135.533123 -114.019587 
L 134.275981 -112.928342 
L 133.690759 -110.782719 
L 133.690759 -110.760599 
L 132.422779 -108.102533 
L 130.970563 -105.713591 
L 129.258248 -103.730179 
L 127.188297 -102.355063 
L 125.790268 -100.017734 
L 120.425737 -93.739389 
L 119.883866 -92.924642 
L 118.897659 -90.587313 
L 118.691748 -89.551368 
L 118.756772 -87.59745 
L 118.659235 -86.860122 
L 108.612932 -71.051816 
L 105.502588 -67.652736 
L 105.19914 -66.141214 
L 106.239669 -63.864171 
L 106.250371 -63.840751 
L 107.897662 -62.001119 
L 113.901601 -57.488674 
L 115.47165 -55.55772 
L 115.733128 -55.236137 
L 115.982389 -53.868394 
L 114.064163 -49.60664 
L 113.554803 -47.155026 
L 113.435591 -44.331061 
L 113.814902 -41.602948 
L 114.779433 -39.453638 
L 114.811946 -39.431518 
L 115.581404 -38.443499 
L 115.028694 -36.039811 
L 114.400123 -35.508935 
L 113.543966 -35.390963 
L 113.002094 -34.874833 
L 113.674015 -31.586352 
L 113.424754 -30.56884 
L 113.023769 -29.827825 
L 112.893719 -29.116304 
L 112.947907 -28.157778 
L 112.882882 -27.567916 
L 113.132143 -27.000174 
L 114.107512 -26.041648 
L 114.941995 -24.522753 
L 114.866133 -20.791874 
L 114.956202 -19.296 
L 113.053251 -20.950633 
L 109.204681 -25.310736 
L 107.421198 -26.204818 
L 99.766725 -28.782562 
L 97.957641 -29.95532 
L 95.389084 -30.930683 
L 94.527209 -31.511256 
L 93.690934 -32.933659 
L 93.656801 -33.717433 
L 93.793335 -34.507012 
L 93.486132 -35.935222 
L 92.991194 -36.173257 
L 91.907451 -37.166036 
L 91.139443 -38.263319 
L 91.659982 -38.768418 
L 91.728249 -39.372214 
L 91.267445 -46.414564 
L 85.328188 -51.947425 
L 84.508981 -54.008459 
L 85.464723 -56.069493 
L 84.688182 -56.905518 
L 83.38257 -57.509314 
L 81.778288 -60.365733 
L 77.78465 -60.272841 
L 76.897175 -61.793942 
L 76.65824 -63.344072 
L 76.129168 -63.709833 
L 75.420895 -63.721445 
L 74.746755 -64.197514 
L 73.321675 -67.286163 
L 71.794194 -68.876933 
L 67.58722 -72.070084 
L 66.366942 -74.247233 
L 65.633069 -78.95568 
L 64.719993 -80.935433 
L 63.209579 -81.806293 
L 61.366362 -81.806293 
L 59.779147 -81.127023 
L 58.994072 -79.960071 
L 58.482068 -80.62773 
L 57.850595 -81.26636 
L 57.551925 -81.90499 
L 55.86231 -80.935433 
L 55.068702 -80.360666 
L 54.522563 -79.745259 
L 54.275094 -79.47239 
L 53.455887 -79.095017 
L 52.76468 -79.872985 
L 51.766271 -81.90499 
L 48.310238 -84.819467 
L 46.74009 -86.770192 
L 46.697423 -88.720917 
L 46.09155 -89.226016 
L 45.187008 -90.276853 
L 44.547002 -90.758728 
L 44.547002 -91.647005 
L 44.777405 -93.690622 
L 42.959787 -95.432341 
L 40.869101 -95.525233 
L 40.305896 -92.622368 
L 39.606156 -92.622368 
L 38.761348 -93.197135 
L 36.482926 -92.87782 
L 36.022122 -93.144883 
L 35.475983 -94.067994 
L 34.195971 -95.113026 
L 32.728224 -95.983885 
L 31.653014 -96.430926 
L 31.900483 -96.924413 
L 31.909016 -97.081168 
L 32.011417 -97.185671 
L 32.438088 -97.487569 
L 29.801263 -99.380237 
L 28.982055 -100.796835 
L 29.502593 -102.445662 
L 30.833806 -102.933344 
L 39.444021 -100.053702 
L 40.655766 -99.647301 
L 43.702194 -98.004279 
L 45.263809 -96.430926 
L 46.074484 -98.648715 
L 45.903815 -100.43688 
L 43.522993 -105.824597 
L 43.463259 -107.148304 
L 43.889929 -109.261589 
L 40.408296 -104.826012 
L 35.638118 -103.908706 
L 24.502013 -105.37175 
L 24.502013 -104.309302 
L 26.473231 -102.852064 
L 25.602823 -98.718384 
L 27.36924 -97.487569 
L 25.32122 -98.184257 
L 23.87054 -99.763415 
" style="stroke: #000000"/>
    </defs>
    <g clip-path="url(#pdd5e1c307d)">
     <use xlink:href="#m6d7e62d793" x="0" y="280.512" style="fill: #f5f5f5; stroke: #000000"/>
    </g>
   </g>
  </g>
 </g>
 <defs>
  <clipPath id="pdd5e1c307d">
   <rect x="7.2" y="7.2" width="221.650491" height="266.112"/>
  </clipPath>
 </defs>
</svg>
