<?xml version="1.0" encoding="utf-8" standalone="no"?>
<!DOCTYPE svg PUBLIC "-//W3C//DTD SVG 1.1//EN"
  "http://www.w3.org/Graphics/SVG/1.1/DTD/svg11.dtd">
<svg xmlns:xlink="http://www.w3.org/1999/xlink" width="271.621626pt" height="280.512pt" viewBox="0 0 271.621626 280.512" xmlns="http://www.w3.org/2000/svg" version="1.1">
 <metadata>
  <rdf:RDF xmlns:dc="http://purl.org/dc/elements/1.1/" xmlns:cc="http://creativecommons.org/ns#" xmlns:rdf="http://www.w3.org/1999/02/22-rdf-syntax-ns#">
   <cc:Work>
    <dc:type rdf:resource="http://purl.org/dc/dcmitype/StillImage"/>
    <dc:date>2024-03-04T13:11:12.058501</dc:date>
    <dc:format>image/svg+xml</dc:format>
    <dc:creator>
     <cc:Agent>
      <dc:title>Matplotlib v3.8.0, https://matplotlib.org/</dc:title>
     </cc:Agent>
    </dc:creator>
   </cc:Work>
  </rdf:RDF>
 </metadata>
 <defs>
  <style type="text/css">*{stroke-linejoin: round; stroke-linecap: butt}</style>
 </defs>
 <g id="figure_1">
  <g id="patch_1">
   <path d="M 0 280.512 
L 271.621626 280.512 
L 271.621626 0 
L 0 0 
z
" style="fill: #ffffff"/>
  </g>
  <g id="axes_1">
   <g id="PatchCollection_1">
    <defs>
     <path id="mc18df6f3e2" d="M 138.822524 -123.382924 
L 138.801828 -123.348472 
L 138.882731 -122.580619 
L 139.311444 -121.196588 
L 139.461153 -120.023695 
L 139.247175 -119.290314 
L 139.046806 -118.3626 
L 139.132625 -117.483145 
L 139.461153 -116.522252 
L 139.761327 -115.528611 
L 139.761327 -114.861157 
L 139.160979 -114.356149 
L 137.782596 -114.079085 
L 136.132015 -113.851573 
L 134.924512 -113.851573 
L 133.109856 -114.014451 
L 131.980988 -113.981703 
L 130.995025 -113.981703 
L 130.116429 -113.818825 
L 129.029903 -113.183687 
L 127.822401 -112.190046 
L 126.307919 -110.854707 
L 125.400591 -110.024374 
L 124.193466 -109.845122 
L 122.986342 -109.845122 
L 121.807571 -110.513008 
L 121.049952 -110.854707 
L 120.550165 -110.82239 
L 119.728277 -110.35013 
L 118.75668 -110.024374 
L 117.849352 -110.024374 
L 116.33487 -110.69226 
L 114.520214 -111.68547 
L 113.46242 -112.190046 
L 111.955499 -112.352924 
L 110.441017 -112.67868 
L 109.383224 -112.515802 
L 108.026012 -112.515802 
L 106.211356 -111.848348 
L 104.696874 -111.359714 
L 103.039488 -110.854707 
L 101.153001 -110.399252 
L 101.610446 -108.900603 
L 102.260698 -108.086214 
L 102.260698 -107.076199 
L 101.952962 -106.229924 
L 101.045634 -105.39916 
L 100.009768 -104.340454 
L 99.410175 -103.510122 
L 98.802643 -102.353603 
L 98.352382 -101.685718 
L 97.573592 -100.594695 
L 96.880998 -99.227038 
L 96.666263 -98.379901 
L 96.388016 -97.402634 
L 95.851936 -97.109626 
L 94.008548 -96.849366 
L 92.837339 -96.507237 
L 91.81546 -96.181481 
L 91.433995 -95.605793 
L 91.37276 -95.513595 
L 91.07939 -94.340703 
L 91.07939 -93.510801 
L 90.786777 -92.842916 
L 90.350881 -91.18182 
L 89.765277 -89.667229 
L 89.322198 -87.663573 
L 88.886302 -86.002908 
L 88.300698 -83.331367 
L 87.714715 -80.84037 
L 86.985828 -78.495015 
L 86.399845 -76.996797 
L 85.957145 -76.166465 
L 84.935266 -75.15645 
L 84.05667 -74.504939 
L 83.03517 -73.658232 
L 81.863204 -72.8279 
L 80.256099 -71.834259 
L 78.934047 -70.987122 
L 78.396443 -70.606203 
L 77.762837 -70.15679 
L 76.740959 -69.000702 
L 75.861985 -67.322801 
L 75.27638 -65.987892 
L 74.254501 -63.821358 
L 73.525993 -62.648896 
L 73.083292 -61.997816 
L 71.911326 -61.329931 
L 70.596835 -60.824923 
L 69.132256 -60.157469 
L 67.960668 -59.489152 
L 66.353185 -58.822129 
L 65.331685 -58.154243 
L 64.595237 -57.160602 
L 64.01001 -55.98814 
L 63.281123 -54.310671 
L 62.695141 -52.487129 
L 62.402527 -51.314236 
L 61.523553 -47.307785 
L 61.230562 -44.979235 
L 60.937948 -43.480587 
L 60.501675 -41.64067 
L 60.209061 -38.806682 
L 60.209061 -36.477701 
L 59.915692 -35.142361 
L 59.765983 -34.132777 
L 59.037096 -32.976258 
L 58.451113 -32.145926 
L 57.429991 -30.973464 
L 56.551017 -30.305579 
L 56.258403 -29.637693 
L 55.379429 -28.807792 
L 54.500833 -27.472021 
L 53.771946 -26.641258 
L 53.91485 -25.973373 
L 54.064937 -24.800911 
L 53.621859 -23.628449 
L 53.186341 -22.292678 
L 52.014376 -20.632014 
L 50.699884 -19.80125 
L 48.792605 -19.638372 
L 46.163243 -19.638372 
L 44.113059 -19.80125 
L 41.626602 -19.80125 
L 39.433514 -20.127006 
L 37.382953 -20.469136 
L 34.896874 -20.632014 
L 33.138925 -20.632014 
L 30.946215 -20.306258 
L 25.237609 -20.306258 
L 23.044143 -20.127006 
L 19.822372 -19.459121 
L 18.891892 -19.296 
L 18.905595 -19.717019 
L 19.516434 -22.17481 
L 19.577161 -22.907669 
L 19.527151 -23.540099 
L 19.561086 -23.9201 
L 19.808756 -24.378815 
L 19.858766 -24.566779 
L 19.877222 -24.77103 
L 19.868292 -24.966459 
L 19.820663 -25.056031 
L 19.630743 -25.227031 
L 19.577161 -25.319317 
L 19.655749 -25.563603 
L 19.723024 -26.061676 
L 20.002843 -26.74432 
L 20.120129 -27.43375 
L 20.248727 -27.823251 
L 21.775824 -31.146222 
L 22.302122 -31.732509 
L 22.384282 -31.886545 
L 22.408096 -31.986974 
L 22.574202 -32.38801 
L 22.658148 -32.474189 
L 22.898673 -32.656725 
L 22.983214 -32.750368 
L 23.220762 -33.321048 
L 23.383296 -33.56262 
L 23.736939 -33.706478 
L 23.816717 -33.797406 
L 23.916738 -33.878835 
L 24.082248 -33.889692 
L 24.21025 -33.833371 
L 24.321583 -33.737692 
L 24.481734 -33.536834 
L 26.089205 -34.220157 
L 26.376764 -34.470551 
L 26.669681 -34.843766 
L 26.897109 -35.262445 
L 27.410904 -37.191628 
L 27.442458 -37.481378 
L 27.58594 -37.6707 
L 28.314065 -38.44563 
L 28.49684 -38.692631 
L 28.685569 -39.75799 
L 28.729626 -41.176208 
L 28.796306 -41.538566 
L 28.971342 -42.135031 
L 29.093986 -42.41121 
L 29.386903 -42.845497 
L 29.38988 -43.013783 
L 29.335702 -43.146783 
L 29.304148 -43.256712 
L 29.303552 -43.449427 
L 29.326176 -43.56207 
L 29.455965 -43.868785 
L 29.486923 -43.974642 
L 29.557771 -44.034357 
L 29.882242 -44.071 
L 30.232909 -44.17075 
L 30.703838 -44.611144 
L 31.193819 -45.202859 
L 31.33611 -45.532646 
L 31.43494 -45.870575 
L 31.492095 -46.232933 
L 31.511146 -46.630576 
L 31.390288 -47.020756 
L 31.104516 -47.081827 
L 30.502607 -46.910827 
L 30.606199 -47.220256 
L 30.856251 -47.749543 
L 30.993183 -47.945651 
L 31.686777 -48.622866 
L 31.747504 -48.732795 
L 32.840584 -51.391444 
L 33.005499 -51.617409 
L 33.163865 -51.714444 
L 33.350808 -51.898338 
L 33.99975 -53.079733 
L 34.204553 -54.199378 
L 34.361728 -54.512879 
L 34.583202 -54.839951 
L 35.107119 -55.823203 
L 35.815597 -56.682276 
L 35.86263 -56.784062 
L 36.103751 -56.974741 
L 36.206153 -57.085349 
L 36.284145 -57.264492 
L 36.357374 -57.606493 
L 36.415719 -57.779529 
L 36.641361 -58.163601 
L 36.872956 -58.469637 
L 37.051564 -58.783817 
L 37.123602 -59.197746 
L 37.156347 -59.933319 
L 37.102169 -60.248855 
L 36.914631 -60.625463 
L 36.962855 -60.716392 
L 37.014651 -60.853464 
L 36.844378 -60.719106 
L 36.827113 -60.523677 
L 36.85569 -60.293641 
L 36.823541 -60.056819 
L 36.719353 -59.931283 
L 36.345467 -59.658497 
L 36.206153 -59.591318 
L 36.013256 -59.585211 
L 35.88704 -59.622533 
L 35.747726 -59.589961 
L 35.516131 -59.373496 
L 35.360742 -59.165853 
L 35.255959 -58.966353 
L 35.035676 -58.408566 
L 34.846351 -58.046208 
L 34.808248 -57.940351 
L 34.776694 -57.738814 
L 34.639166 -57.406314 
L 34.608207 -57.256349 
L 34.481991 -57.057527 
L 33.799709 -56.402026 
L 33.581807 -56.575741 
L 33.678255 -56.853955 
L 33.99975 -57.256349 
L 34.078337 -57.4986 
L 34.608207 -58.566673 
L 35.516131 -59.88039 
L 35.608412 -60.140962 
L 35.819764 -60.43682 
L 36.051955 -60.698749 
L 37.117053 -61.652823 
L 37.590959 -61.841466 
L 38.222041 -62.252003 
L 38.413151 -62.447432 
L 38.894797 -62.49561 
L 39.282972 -62.760254 
L 39.588391 -63.12804 
L 39.821177 -63.493791 
L 40.420704 -64.227328 
L 40.829716 -64.859758 
L 41.390545 -65.287259 
L 41.62988 -65.522045 
L 41.727519 -65.827403 
L 41.849567 -66.022153 
L 43.185554 -67.176406 
L 43.992267 -68.078229 
L 44.997234 -69.672197 
L 45.371715 -70.118019 
L 45.841454 -70.562485 
L 46.109366 -70.753842 
L 46.404069 -70.904485 
L 46.707107 -71.003557 
L 47.34057 -71.115521 
L 47.648966 -71.298736 
L 48.139542 -71.701808 
L 48.131207 -72.089274 
L 48.17705 -72.186988 
L 48.356253 -72.569703 
L 48.703943 -73.018918 
L 49.056396 -73.316133 
L 49.424329 -73.525134 
L 49.704743 -73.753813 
L 49.883351 -74.091064 
L 50.026237 -75.175423 
L 50.376309 -76.166139 
L 50.500739 -76.94107 
L 50.701971 -77.420142 
L 50.754958 -77.642714 
L 50.726976 -77.916857 
L 50.66744 -78.169286 
L 50.65077 -78.41968 
L 50.754958 -78.688395 
L 50.646007 -78.792216 
L 50.737692 -79.027003 
L 50.805563 -79.291646 
L 50.847238 -79.569861 
L 50.854978 -79.83654 
L 50.815684 -80.095076 
L 50.67637 -80.458791 
L 50.646007 -80.675256 
L 50.661486 -82.151152 
L 50.554917 -82.57051 
L 51.000841 -84.5058 
L 51.105029 -84.770443 
L 51.545 -86.451947 
L 52.21597 -87.429092 
L 52.407081 -87.600771 
L 52.527343 -87.763628 
L 52.962551 -88.852738 
L 53.062572 -89.597811 
L 53.092935 -89.703668 
L 53.230463 -90.000883 
L 53.310837 -90.527456 
L 53.902029 -92.066459 
L 54.992133 -93.661105 
L 55.386261 -94.404143 
L 55.46842 -94.624 
L 55.510096 -94.955822 
L 55.745263 -95.702252 
L 55.868502 -95.932967 
L 55.813134 -96.200325 
L 55.958997 -97.13947 
L 55.916131 -97.384435 
L 55.776817 -97.888614 
L 55.817301 -98.055543 
L 55.931015 -98.241472 
L 56.084618 -98.728009 
L 56.167373 -98.914616 
L 56.986588 -100.012547 
L 57.124116 -100.116369 
L 57.820091 -100.277191 
L 58.613706 -100.715549 
L 59.828239 -101.93698 
L 60.031257 -102.216552 
L 60.166999 -102.504267 
L 60.35037 -102.752625 
L 60.689725 -102.909375 
L 62.301959 -103.086482 
L 62.581778 -103.219483 
L 64.103517 -104.028342 
L 66.762394 -105.98331 
L 68.547877 -107.164027 
L 69.409363 -108.167636 
L 70.290495 -109.988926 
L 70.591152 -110.879213 
L 70.873352 -112.23093 
L 71.298439 -113.198575 
L 71.73067 -115.306901 
L 72.005727 -115.942046 
L 73.213711 -117.762657 
L 73.218474 -117.855621 
L 73.116072 -118.011014 
L 73.113691 -118.104657 
L 73.313732 -118.217979 
L 74.095439 -120.113233 
L 74.581848 -121.815094 
L 74.613402 -122.167273 
L 74.681273 -122.466524 
L 74.971213 -123.105739 
L 75.011077 -123.40005 
L 75.011698 -123.40499 
L 75.021223 -123.477597 
L 75.113504 -123.775491 
L 75.270679 -123.936313 
L 75.711841 -124.160242 
L 76.185747 -124.563314 
L 76.72038 -124.7411 
L 76.958524 -125.023386 
L 77.575317 -126.04396 
L 77.918244 -127.255891 
L 78.086135 -127.604677 
L 78.315944 -127.838107 
L 78.598144 -128.006393 
L 79.975807 -128.535001 
L 82.625753 -128.995752 
L 84.736898 -128.952323 
L 87.348741 -129.816825 
L 91.35194 -130.513041 
L 91.513282 -130.629755 
L 91.842516 -130.977863 
L 91.912769 -131.022649 
L 92.168773 -131.083042 
L 95.434917 -132.532474 
L 99.77747 -134.458942 
L 100.25733 -134.839621 
L 100.607997 -135.297658 
L 101.186091 -136.28091 
L 101.409947 -136.529268 
L 101.674286 -136.764054 
L 101.893379 -137.028019 
L 101.985064 -137.362555 
L 102.113662 -137.620413 
L 102.983482 -138.227057 
L 103.668741 -139.075952 
L 103.78305 -139.314131 
L 104.390317 -139.696846 
L 104.505222 -139.825096 
L 104.62608 -140.053097 
L 104.699904 -140.163026 
L 105.200006 -140.566098 
L 105.250017 -140.631241 
L 105.550078 -141.140849 
L 105.95909 -141.575814 
L 106.185922 -141.731208 
L 110.355821 -143.874141 
L 111.356621 -144.547285 
L 112.553294 -145.166822 
L 113.11829 -145.545466 
L 114.916277 -147.242576 
L 116.423727 -149.530724 
L 116.819046 -150.007082 
L 117.095293 -150.239154 
L 117.650764 -150.443405 
L 117.879382 -150.69787 
L 118.231239 -151.259728 
L 118.600362 -151.729979 
L 118.769445 -152.025158 
L 118.840292 -152.330516 
L 118.914712 -152.473016 
L 119.43982 -152.853017 
L 119.508881 -152.958874 
L 119.63867 -153.309018 
L 120.241174 -154.209484 
L 120.329882 -154.396092 
L 120.362627 -154.74895 
L 120.451336 -155.122165 
L 120.58291 -155.460094 
L 120.738894 -155.709809 
L 121.436656 -156.351739 
L 121.546202 -156.558703 
L 121.635506 -156.825383 
L 122.246345 -157.645777 
L 124.144352 -159.695746 
L 125.641086 -162.324537 
L 126.559726 -164.498006 
L 126.704399 -165.116865 
L 126.950877 -167.241476 
L 127.21998 -168.348907 
L 127.259274 -168.679372 
L 127.196166 -169.125195 
L 127.034228 -169.343016 
L 126.807991 -169.497052 
L 126.559726 -169.756267 
L 126.397193 -170.041268 
L 126.023902 -170.879984 
L 125.902449 -171.432342 
L 125.7804 -171.512414 
L 125.617272 -171.529378 
L 125.452357 -171.588414 
L 125.320783 -171.7187 
L 125.052275 -172.167915 
L 124.006228 -172.86481 
L 123.694855 -172.881774 
L 123.357286 -172.954381 
L 123.144743 -173.19256 
L 123.171534 -173.833133 
L 123.47993 -174.460134 
L 123.869296 -175.053207 
L 124.144352 -175.594708 
L 124.239609 -175.967923 
L 124.251517 -176.175567 
L 124.194362 -176.334353 
L 124.091365 -176.484317 
L 124.083625 -176.589496 
L 124.119942 -176.708925 
L 124.144352 -176.908425 
L 124.034806 -180.183218 
L 123.980033 -180.48179 
L 123.744866 -181.08097 
L 123.927641 -181.472507 
L 124.309266 -183.831226 
L 124.343202 -184.785978 
L 124.280689 -185.176157 
L 124.1253 -185.386515 
L 123.931213 -185.542587 
L 123.744866 -185.76923 
L 124.202697 -186.343303 
L 124.543243 -186.918732 
L 124.884384 -187.921663 
L 125.052275 -188.160521 
L 125.323759 -188.397343 
L 125.416636 -188.520164 
L 125.498795 -188.816701 
L 125.704194 -189.028415 
L 125.791712 -189.219773 
L 125.988181 -189.493238 
L 126.060219 -189.651345 
L 126.266214 -190.988812 
L 126.381714 -191.25142 
L 127.720678 -192.66828 
L 128.31187 -193.475104 
L 128.420821 -193.587747 
L 128.63515 -193.74789 
L 128.757199 -193.874104 
L 128.86734 -194.036283 
L 128.995343 -194.32332 
L 129.066786 -194.443427 
L 130.788566 -196.173788 
L 130.964793 -196.513753 
L 131.07672 -196.760753 
L 131.246398 -197.429826 
L 131.271998 -197.70397 
L 131.344632 -197.910256 
L 131.873311 -198.552186 
L 132.081687 -199.013615 
L 132.194806 -199.528652 
L 132.271607 -201.248834 
L 132.210285 -201.330263 
L 131.935229 -201.463263 
L 131.873311 -201.585406 
L 131.907247 -201.946407 
L 131.999528 -202.201551 
L 132.396037 -202.948659 
L 132.504393 -203.281839 
L 132.532375 -203.611625 
L 132.41747 -203.877626 
L 132.287682 -204.047947 
L 132.160275 -204.288841 
L 132.073352 -204.565699 
L 132.063827 -204.845949 
L 132.342455 -205.355557 
L 134.504206 -207.122561 
L 136.167046 -209.027994 
L 137.584002 -209.99021 
L 138.079936 -210.44214 
L 139.734441 -212.589144 
L 141.571721 -214.540041 
L 141.683648 -214.73547 
L 141.700319 -214.946506 
L 141.690793 -215.305471 
L 141.824153 -215.517865 
L 143.03452 -216.892653 
L 143.151805 -216.956439 
L 143.278022 -216.922511 
L 143.420313 -216.773225 
L 143.547124 -216.739296 
L 143.903149 -216.758296 
L 144.16868 -216.81801 
L 144.704504 -217.081297 
L 145.234969 -217.492512 
L 146.091692 -218.504943 
L 146.612036 -218.912765 
L 147.219303 -219.15773 
L 149.217925 -219.596766 
L 150.60809 -220.189839 
L 151.324903 -220.496554 
L 152.002423 -220.659411 
L 152.365592 -220.805983 
L 152.682919 -221.19277 
L 153.047874 -221.34952 
L 154.025455 -221.638592 
L 154.607717 -221.927664 
L 154.881582 -221.987379 
L 155.151875 -222.129879 
L 155.394187 -222.416237 
L 155.641261 -222.629308 
L 155.929415 -222.556701 
L 156.099688 -222.660523 
L 156.240193 -222.63813 
L 156.377126 -222.573665 
L 156.539064 -222.556701 
L 156.678378 -222.610308 
L 156.933192 -222.763666 
L 157.361851 -222.843737 
L 157.666675 -222.961809 
L 157.942922 -223.110417 
L 158.135818 -223.250881 
L 158.629967 -223.86024 
L 159.053863 -224.055669 
L 159.462875 -224.53542 
L 159.74448 -224.627027 
L 159.64446 -224.502848 
L 159.938567 -224.407169 
L 160.249345 -224.496741 
L 160.417237 -224.603956 
L 161.494838 -225.292707 
L 162.053285 -225.768387 
L 162.585537 -226.047959 
L 163.176133 -226.254245 
L 163.696478 -226.334316 
L 163.703027 -226.334995 
L 163.953078 -226.424567 
L 164.415672 -226.814746 
L 164.943161 -226.991175 
L 166.471449 -228.156963 
L 168.011645 -229.748895 
L 169.304171 -231.799542 
L 170.269249 -233.766046 
L 171.87672 -236.054194 
L 172.02556 -236.337838 
L 172.272039 -236.993339 
L 172.608417 -237.50634 
L 175.766205 -243.777032 
L 177.034916 -247.842362 
L 179.690221 -254.122554 
L 179.768808 -254.440126 
L 179.796195 -254.84727 
L 179.859898 -255.084092 
L 180.174248 -255.746379 
L 180.478477 -256.646845 
L 180.504673 -256.78731 
L 180.548729 -256.942024 
L 180.741626 -257.196489 
L 180.785683 -257.361382 
L 180.872605 -258.145134 
L 180.973816 -258.532599 
L 181.104795 -258.785028 
L 181.385805 -259.061886 
L 181.892456 -259.139243 
L 183.238564 -258.954672 
L 183.415982 -258.985886 
L 183.81011 -259.354351 
L 183.99229 -259.483958 
L 184.25782 -259.616959 
L 184.524541 -259.67803 
L 184.709103 -259.59253 
L 184.964512 -259.704495 
L 185.311607 -259.712637 
L 185.659297 -259.631887 
L 185.907562 -259.47853 
L 186.770238 -259.956245 
L 187.015526 -260.161174 
L 187.539443 -260.723032 
L 187.811522 -260.946283 
L 188.115156 -261.082676 
L 188.233414 -261.075704 
L 188.300359 -261.01417 
L 188.475279 -260.923101 
L 188.611328 -260.930485 
L 188.667475 -261.058474 
L 188.702027 -261.186464 
L 188.738739 -261.216 
L 188.828992 -261.181748 
L 188.835772 -261.182392 
L 188.969515 -260.807895 
L 189.135102 -260.46835 
L 189.361934 -260.170172 
L 189.68631 -259.895852 
L 189.685119 -259.891781 
L 189.613676 -259.64953 
L 189.662496 -259.234244 
L 189.881588 -258.369742 
L 189.951245 -257.668097 
L 190.007804 -257.46724 
L 190.097108 -257.312525 
L 190.212013 -257.191739 
L 190.29834 -257.176811 
L 190.5472 -257.213454 
L 190.622215 -257.191739 
L 190.642458 -257.094703 
L 190.612094 -256.841596 
L 190.622215 -256.736417 
L 190.867504 -255.849522 
L 191.022297 -255.514307 
L 191.329503 -255.245592 
L 191.947486 -254.83302 
L 192.465449 -254.37159 
L 193.702011 -252.72673 
L 193.927652 -252.561158 
L 194.286059 -252.502122 
L 194.551589 -252.422729 
L 194.839743 -252.233407 
L 195.334487 -251.809299 
L 195.747072 -251.273227 
L 195.998313 -251.00994 
L 196.647256 -250.80094 
L 197.442656 -250.100653 
L 198.029681 -249.784438 
L 200.110463 -249.190008 
L 202.054312 -248.779471 
L 202.071578 -248.776078 
L 203.801098 -248.297006 
L 204.216659 -248.268506 
L 204.517911 -248.345863 
L 205.361535 -248.848007 
L 207.392307 -249.179829 
L 208.619939 -249.698938 
L 209.869599 -249.941188 
L 210.483415 -250.214653 
L 210.628683 -250.021938 
L 210.583073 -249.94927 
L 210.405414 -249.893196 
L 210.334351 -249.830891 
L 210.399948 -249.731204 
L 210.496212 -249.615323 
L 210.709335 -249.336476 
L 210.923594 -249.240319 
L 211.226424 -249.222579 
L 211.631268 -249.190008 
L 211.908706 -249.213079 
L 212.412976 -249.253794 
L 212.744591 -249.40783 
L 212.880333 -249.70708 
L 213.002977 -250.161724 
L 213.308992 -250.472511 
L 213.698953 -250.615011 
L 214.079387 -250.566154 
L 214.362779 -250.384296 
L 214.97719 -249.856366 
L 215.287968 -249.655509 
L 216.38462 -249.492651 
L 216.775176 -249.283651 
L 216.949616 -249.278222 
L 217.134773 -249.297222 
L 217.29433 -249.29383 
L 217.455077 -249.244294 
L 217.74204 -249.114008 
L 217.893262 -249.065829 
L 218.637461 -249.008829 
L 219.26378 -249.130293 
L 221.079627 -249.737616 
L 221.389809 -249.918795 
L 222.052444 -250.577011 
L 222.207833 -250.669975 
L 222.329287 -250.661832 
L 222.465624 -250.593297 
L 222.622799 -250.539011 
L 222.807361 -250.566154 
L 223.27055 -251.008583 
L 223.843286 -252.327729 
L 224.215386 -252.844123 
L 224.186214 -253.019195 
L 224.257657 -253.157623 
L 224.394589 -253.209874 
L 224.56903 -253.123016 
L 224.633924 -252.986623 
L 224.555337 -252.699587 
L 224.623208 -252.502122 
L 224.475558 -251.993192 
L 224.669646 -251.350584 
L 224.694055 -251.272548 
L 224.698223 -251.264405 
L 224.418827 -250.999029 
L 224.464949 -250.537972 
L 224.768148 -250.232038 
L 225.209042 -250.382939 
L 225.412059 -250.100653 
L 225.281675 -249.950009 
L 225.217377 -249.696902 
L 225.203088 -249.418008 
L 225.254289 -248.878543 
L 225.322755 -248.659364 
L 225.450758 -248.463256 
L 225.661515 -248.211506 
L 226.040759 -247.954327 
L 226.554554 -247.797576 
L 227.620248 -247.698505 
L 226.980832 -248.18572 
L 225.862151 -249.389508 
L 225.644249 -249.742366 
L 225.713907 -249.872652 
L 225.912161 -249.727438 
L 226.621235 -249.008829 
L 226.734353 -248.829686 
L 227.430329 -248.153827 
L 228.056052 -247.815898 
L 228.810968 -247.569576 
L 230.325563 -247.36804 
L 230.994747 -247.421647 
L 231.348391 -247.50579 
L 231.584153 -247.642862 
L 231.892549 -247.974005 
L 232.170582 -248.184363 
L 232.468858 -248.25222 
L 233.86319 -247.746683 
L 234.190638 -247.698505 
L 234.538923 -247.591969 
L 234.927693 -247.386361 
L 235.309914 -247.254039 
L 235.33096 -246.59788 
L 235.469328 -246.155783 
L 235.730941 -245.824856 
L 236.177044 -245.665426 
L 236.722197 -245.296581 
L 237.177373 -244.892402 
L 237.670355 -244.5925 
L 238.328168 -244.53476 
L 238.513414 -244.400322 
L 238.570878 -244.202972 
L 238.589781 -243.97546 
L 238.661611 -243.744501 
L 238.862735 -243.517851 
L 239.638501 -243.064551 
L 240.134507 -242.624177 
L 241.672428 -241.707235 
L 241.938578 -241.451285 
L 241.88565 -241.329772 
L 241.695867 -241.192748 
L 241.338985 -240.440408 
L 240.571537 -239.320946 
L 240.452072 -239.038279 
L 242.214557 -237.329355 
L 242.747612 -237.177249 
L 242.912443 -237.087623 
L 241.351839 -235.299414 
L 241.912114 -234.669878 
L 242.28185 -233.929603 
L 243.325278 -230.855176 
L 243.364282 -230.622791 
L 243.400132 -230.409201 
L 243.363839 -230.075258 
L 242.681831 -227.388635 
L 242.632684 -226.606132 
L 242.765002 -225.786141 
L 242.919248 -225.299662 
L 242.908663 -225.116102 
L 242.797515 -224.870061 
L 242.649318 -224.691671 
L 242.479194 -224.549907 
L 242.337802 -224.381428 
L 242.271265 -224.125046 
L 242.359729 -223.86177 
L 242.584293 -223.713542 
L 243.091641 -223.540323 
L 243.347205 -223.359778 
L 243.505987 -223.16286 
L 244.165312 -221.657748 
L 244.232606 -221.107928 
L 244.04736 -220.653766 
L 243.828089 -220.341798 
L 243.553622 -219.41193 
L 243.353253 -218.992239 
L 243.201276 -218.569102 
L 243.199008 -216.928258 
L 243.332839 -216.380161 
L 244.073823 -215.6903 
L 244.336948 -215.213732 
L 244.535048 -214.689765 
L 244.837491 -214.279123 
L 245.216301 -213.943026 
L 245.642745 -213.645278 
L 245.889236 -213.415612 
L 245.983749 -213.070035 
L 245.979212 -212.680938 
L 245.93309 -212.316402 
L 245.899065 -212.144906 
L 245.838577 -211.988492 
L 245.75238 -211.849744 
L 245.642745 -211.735988 
L 245.021981 -211.305094 
L 247.003737 -208.115619 
L 247.483865 -207.721782 
L 248.41312 -207.390424 
L 252.502902 -204.356932 
L 252.729734 -203.9799 
L 251.881382 -203.063389 
L 251.395962 -202.704885 
L 250.853077 -202.488146 
L 250.246679 -202.40326 
L 250.008506 -202.282609 
L 249.771844 -201.982277 
L 249.625916 -201.687114 
L 249.430084 -201.085587 
L 249.197324 -199.5613 
L 249.166959 -199.362442 
L 249.171495 -199.22154 
L 249.150324 -199.084516 
L 249.057323 -198.906557 
L 248.96659 -198.817793 
L 248.725392 -198.632077 
L 248.668684 -198.52737 
L 248.732953 -198.255907 
L 248.969615 -198.251598 
L 249.513256 -198.461874 
L 249.793015 -198.465322 
L 250.098482 -198.375696 
L 250.3359 -198.17059 
L 250.409242 -197.82329 
L 250.120409 -197.23038 
L 249.546524 -197.096803 
L 248.443365 -197.147648 
L 248.319363 -197.153681 
L 247.968529 -197.170055 
L 247.412791 -197.195047 
L 246.677855 -197.227795 
L 245.78943 -197.268299 
L 244.773222 -197.314835 
L 243.652672 -197.366542 
L 242.453486 -197.420835 
L 241.200617 -197.477713 
L 239.919016 -197.535453 
L 238.632879 -197.594054 
L 237.368668 -197.651794 
L 236.15058 -197.70781 
L 235.005078 -197.759518 
L 233.954846 -197.807778 
L 233.026347 -197.849143 
L 231.014346 -197.939631 
L 228.389144 -197.23038 
L 225.673208 -197.007177 
L 224.831283 -196.546121 
L 225.840304 -193.941083 
L 226.453849 -192.309383 
L 223.897411 -191.959733 
L 220.727428 -191.027333 
L 216.449839 -190.277478 
L 215.90582 -190.230942 
L 215.282032 -190.369689 
L 214.285204 -189.861833 
L 214.080689 -185.549482 
L 212.998211 -185.48163 
L 212.192958 -184.905956 
L 212.007333 -184.68103 
L 211.948357 -184.375957 
L 212.040602 -183.116885 
L 212.010358 -182.735975 
L 211.700354 -182.223212 
L 211.602816 -181.896594 
L 211.654231 -181.607033 
L 211.827758 -181.457082 
L 212.071602 -181.44157 
L 212.332459 -181.554464 
L 212.760416 -181.950887 
L 212.977796 -182.063781 
L 213.232982 -181.999147 
L 213.442424 -181.781115 
L 213.843161 -181.152871 
L 214.103261 -180.907262 
L 214.631024 -180.653896 
L 214.80266 -180.50136 
L 214.943296 -180.19284 
L 215.008321 -179.897247 
L 215.02798 -179.573215 
L 215.819067 -178.323382 
L 215.001007 -177.041332 
L 214.285204 -176.342032 
L 214.387462 -175.293082 
L 214.489719 -174.244132 
L 211.728767 -172.845532 
L 209.274586 -172.262782 
L 207.024921 -172.146232 
L 205.286543 -171.680032 
L 203.854938 -170.864182 
L 202.218818 -168.766281 
L 200.173667 -167.134581 
L 198.026259 -166.202181 
L 196.492397 -165.386331 
L 195.265306 -164.453931 
L 193.629186 -163.055331 
L 192.095323 -162.006381 
L 190.663718 -160.491231 
L 189.641143 -158.509881 
L 188.311795 -156.411981 
L 186.777933 -154.430631 
L 185.346327 -153.96443 
L 184.119237 -154.430631 
L 183.60795 -155.945781 
L 181.767314 -155.712681 
L 180.028936 -155.363031 
L 178.188301 -155.363031 
L 176.040893 -155.363031 
L 173.995743 -155.129931 
L 171.848335 -154.547181 
L 169.803185 -154.314081 
L 168.576095 -153.14858 
L 166.019657 -154.197531 
L 164.383537 -154.314081 
L 163.258704 -154.197531 
L 161.622584 -153.49823 
L 160.293236 -152.09963 
L 158.629973 -152.194655 
L 158.326018 -152.083054 
L 158.00316 -152.045997 
L 157.675766 -152.058062 
L 157.029295 -152.169233 
L 156.345018 -152.199395 
L 155.845232 -151.978778 
L 154.951891 -151.072177 
L 154.727706 -150.894218 
L 154.025282 -150.530113 
L 153.130808 -149.691593 
L 151.581545 -148.644091 
L 150.245504 -147.370369 
L 149.757816 -147.028239 
L 148.109503 -146.297874 
L 147.112198 -145.617924 
L 146.142113 -144.688917 
L 145.900915 -144.544136 
L 145.386006 -144.313177 
L 145.165979 -144.133925 
L 144.663924 -143.242837 
L 144.479434 -143.053675 
L 143.814816 -142.682675 
L 143.156625 -142.154399 
L 141.28337 -141.134905 
L 141.008904 -140.897051 
L 140.845585 -140.582499 
L 140.792657 -140.133508 
L 140.792657 -139.371687 
L 140.792657 -138.372014 
L 140.792657 -137.373633 
L 140.792657 -136.37439 
L 140.792657 -135.374717 
L 140.792657 -134.375474 
L 140.792657 -133.375801 
L 140.792657 -132.376558 
L 140.792657 -131.378177 
L 140.792657 -130.378503 
L 140.792657 -129.379261 
L 140.792657 -128.379587 
L 140.792657 -127.379914 
L 140.792657 -126.380671 
L 140.792657 -125.38229 
L 140.792657 -124.383048 
L 140.792657 -123.382512 
L 139.765864 -123.382512 
L 138.829804 -123.382943 
L 138.822524 -123.382924 
" style="stroke: #000000"/>
    </defs>
    <g clip-path="url(#p901e599433)">
     <use xlink:href="#mc18df6f3e2" x="0" y="280.512" style="fill: #f5f5f5; stroke: #000000"/>
    </g>
   </g>
  </g>
 </g>
 <defs>
  <clipPath id="p901e599433">
   <rect x="7.2" y="7.2" width="257.221626" height="266.112"/>
  </clipPath>
 </defs>
</svg>
