<?xml version="1.0" encoding="utf-8" standalone="no"?>
<!DOCTYPE svg PUBLIC "-//W3C//DTD SVG 1.1//EN"
  "http://www.w3.org/Graphics/SVG/1.1/DTD/svg11.dtd">
<svg xmlns:xlink="http://www.w3.org/1999/xlink" width="344.994932pt" height="280.512pt" viewBox="0 0 344.994932 280.512" xmlns="http://www.w3.org/2000/svg" version="1.1">
 <metadata>
  <rdf:RDF xmlns:dc="http://purl.org/dc/elements/1.1/" xmlns:cc="http://creativecommons.org/ns#" xmlns:rdf="http://www.w3.org/1999/02/22-rdf-syntax-ns#">
   <cc:Work>
    <dc:type rdf:resource="http://purl.org/dc/dcmitype/StillImage"/>
    <dc:date>2024-03-04T13:11:12.143138</dc:date>
    <dc:format>image/svg+xml</dc:format>
    <dc:creator>
     <cc:Agent>
      <dc:title>Matplotlib v3.8.0, https://matplotlib.org/</dc:title>
     </cc:Agent>
    </dc:creator>
   </cc:Work>
  </rdf:RDF>
 </metadata>
 <defs>
  <style type="text/css">*{stroke-linejoin: round; stroke-linecap: butt}</style>
 </defs>
 <g id="figure_1">
  <g id="patch_1">
   <path d="M -0 280.512 
L 344.994932 280.512 
L 344.994932 0 
L -0 0 
z
" style="fill: #ffffff"/>
  </g>
  <g id="axes_1">
   <g id="PatchCollection_1">
    <path d="M 123.764064 65.15425 
L 122.707478 68.685366 
L 124.437248 68.762464 
L 129.425941 67.289881 
L 131.391995 67.498047 
L 136.166695 69.980622 
L 139.938308 70.528022 
L 143.70992 69.980622 
L 144.95375 69.055439 
L 147.343329 65.986915 
L 148.952729 64.815016 
L 148.885856 62.3787 
L 149.750742 58.916973 
L 151.061444 55.809899 
L 152.318648 54.468383 
L 153.584768 52.625726 
L 154.271327 44.060072 
L 154.940052 41.40788 
L 156.678739 41.269102 
L 161.4044 44.437855 
L 163.571071 45.293649 
L 177.734679 44.599762 
L 190.230932 38.817367 
L 197.809822 38.262257 
L 199.646588 36.874482 
L 201.327319 34.584653 
L 203.44495 32.688028 
L 205.825613 31.46216 
L 208.255316 31.169185 
L 212.191881 33.566952 
L 214.831118 34.353357 
L 218.9683 31.631777 
L 221.736824 32.317954 
L 232.369562 38.331645 
L 234.126081 38.817367 
L 236.555784 38.424164 
L 240.728632 36.658606 
L 242.868554 36.242273 
L 247.161772 37.013259 
L 249.337359 38.04638 
L 250.278033 39.464995 
L 251.174126 39.973846 
L 255.226603 44.460984 
L 256.336687 46.473258 
L 255.948827 57.058896 
L 255.204312 60.16597 
L 253.599371 64.244486 
L 254.446423 65.948365 
L 256.523931 66.23363 
L 258.574689 66.110272 
L 260.014678 66.318439 
L 261.641911 67.020036 
L 263.059609 68.238194 
L 263.879912 69.980622 
L 263.66592 73.396091 
L 261.686492 80.435193 
L 261.909401 81.745869 
L 265.096993 82.27785 
L 268.034927 83.804402 
L 270.634041 86.256138 
L 272.85421 89.501989 
L 273.331234 90.789536 
L 274.071291 93.84264 
L 274.726642 95.268965 
L 275.435491 96.109339 
L 277.160803 97.589632 
L 278.02123 98.561075 
L 279.028776 100.049078 
L 280.01849 101.961123 
L 280.785296 104.289501 
L 281.088451 107.026502 
L 282.256492 112.253787 
L 285.025016 114.003925 
L 288.275022 115.314601 
L 290.878594 119.26205 
L 291.556236 119.26205 
L 289.57235 115.191244 
L 282.57748 107.743519 
L 284.316167 104.489958 
L 287.615213 105.407431 
L 291.012339 108.414276 
L 293.054182 111.505931 
L 294.382716 117.488782 
L 294.079561 122.777746 
L 292.514743 126.98733 
L 290.058291 129.73204 
L 286.817201 131.358821 
L 280.294897 133.309416 
L 277.343588 134.897647 
L 274.481442 137.534419 
L 272.372728 140.379358 
L 269.786988 145.20573 
L 268.373748 147.834793 
L 269.697825 148.729137 
L 270.157017 150.394466 
L 270.264013 152.082926 
L 270.549336 153.015819 
L 271.917994 153.170016 
L 272.751672 152.221703 
L 273.331234 151.018965 
L 274.53494 149.854776 
L 276.969102 145.891908 
L 278.039063 144.65833 
L 281.89538 142.784834 
L 285.653618 139.939896 
L 288.016449 138.845095 
L 289.71947 139.492724 
L 291.44924 140.841949 
L 293.852194 141.065535 
L 306.99934 138.906774 
L 307.623483 139.500434 
L 308.969851 142.183465 
L 310.021979 142.784834 
L 311.172187 143.193457 
L 311.537757 144.288257 
L 311.591255 145.891908 
L 311.885495 147.834793 
L 313.606349 154.480693 
L 314.903676 157.209983 
L 316.749359 158.304783 
L 317.493873 159.862175 
L 318.153683 167.32532 
L 318.621791 169.946673 
L 322.076873 175.328155 
L 322.767889 175.837006 
L 322.023375 177.641113 
L 322.139287 178.674234 
L 322.47365 179.422091 
L 322.433527 180.416663 
L 321.885172 181.573142 
L 319.771999 184.888382 
L 319.098815 187.19363 
L 319.852246 190.331543 
L 319.437636 193.477166 
L 318.376591 194.94204 
L 316.936602 196.221877 
L 316.374873 197.740719 
L 317.939691 199.822381 
L 316.325833 200.747565 
L 314.961633 203.407467 
L 313.454771 203.708151 
L 312.152985 202.343506 
L 311.132064 199.691314 
L 310.021979 195.936612 
L 308.720193 195.265854 
L 307.569985 193.585104 
L 306.785347 191.449473 
L 306.589188 189.360101 
L 307.329244 187.124241 
L 309.848111 183.862971 
L 310.396466 181.018032 
L 309.99523 175.096859 
L 308.82719 170.771628 
L 306.932467 167.533486 
L 299.308995 160.185989 
L 296.353228 158.4744 
L 293.054182 158.304783 
L 293.054182 159.615459 
L 293.856652 161.450406 
L 293.553497 163.323902 
L 292.608364 164.942973 
L 291.556236 166.076322 
L 293.103221 166.145711 
L 294.320302 166.955247 
L 295.296641 167.942109 
L 296.112487 168.543478 
L 300.178338 168.851872 
L 301.422168 169.946673 
L 299.634442 170.63285 
L 297.222571 171.095442 
L 296.522638 171.951236 
L 299.848434 173.832442 
L 299.32237 176.114561 
L 299.340202 178.311871 
L 300.008928 179.930942 
L 301.422168 180.416663 
L 301.301797 181.233908 
L 301.159136 181.781308 
L 300.597406 183.007176 
L 301.422168 184.186785 
L 298.359405 194.063116 
L 297.49452 195.844093 
L 293.499999 199.120784 
L 292.300751 201.117638 
L 296.741089 199.429179 
L 301.801112 196.399203 
L 306.450985 195.065398 
L 309.647493 198.527125 
L 310.72637 205.743554 
L 309.371086 211.202135 
L 306.473275 215.527367 
L 302.844324 219.343748 
L 302.345009 219.490235 
L 301.10118 219.158711 
L 300.597406 219.343748 
L 299.848434 223.229518 
L 299.095003 223.776918 
L 298.118663 224.247219 
L 297.280527 224.023633 
L 296.923874 222.512501 
L 295.590881 221.124726 
L 289.229071 220.569616 
L 284.565824 221.055337 
L 279.831247 222.820895 
L 277.682409 223.229518 
L 275.515738 224.085312 
L 274.860387 226.367431 
L 275.078837 232.874553 
L 275.101128 233.56844 
L 274.806889 237.199785 
L 274.138163 241.139523 
L 273.197489 244.886516 
L 272.038365 247.93191 
L 270.045562 250.468454 
L 265.458105 252.858511 
L 262.074353 256.528405 
L 257.415565 260.144329 
L 255.962201 260.861346 
L 251.682357 261.216 
L 249.943671 260.876766 
L 248.031115 259.450442 
L 248.031115 258.270833 
L 250.211161 257.176033 
L 251.093879 256.975577 
L 242.703601 253.799114 
L 241.303736 253.691176 
L 240.037615 250.206319 
L 237.113055 249.111519 
L 233.831842 248.864804 
L 231.513593 247.93191 
L 230.831493 249.211747 
L 229.213935 247.828831 
L 227.577653 248.054036 
L 226.020637 248.876524 
L 224.559873 249.219227 
L 223.263303 248.259658 
L 222.419683 246.947594 
L 221.525107 246.800721 
L 220.070004 249.326934 
L 219.934119 250.501917 
L 220.120961 251.960853 
L 220.200228 253.537288 
L 219.735954 255.113724 
L 219.039543 255.779547 
L 216.463389 256.229957 
L 213.643774 257.267859 
L 212.862435 257.287442 
L 212.160362 256.778283 
L 211.509246 255.936211 
L 211.073282 255.133307 
L 210.999678 254.800395 
L 207.970573 254.937476 
L 198.605829 258.491799 
L 197.745224 258.384092 
L 196.069308 257.65952 
L 195.203041 257.835767 
L 194.631192 258.491799 
L 194.091361 259.33968 
L 193.459183 260.332605 
L 192.859024 260.704683 
L 191.30767 259.843029 
L 188.386142 256.181 
L 186.715888 254.800395 
L 188.408789 250.345252 
L 188.550336 248.191117 
L 187.383989 246.017399 
L 189.846906 242.786197 
L 190.877367 239.319998 
L 190.243237 235.932131 
L 189.354769 234.861132 
L 187.757673 232.935925 
L 185.464613 230.938454 
L 184.292605 230.253047 
L 182.990373 230.0768 
L 181.818364 230.791581 
L 180.99173 232.025313 
L 180.108478 232.984882 
L 178.800584 232.867384 
L 176.422596 231.320323 
L 174.084241 229.30327 
L 171.944051 226.777057 
L 170.126589 223.741685 
L 169.492459 221.842129 
L 169.113113 220.001323 
L 168.614868 218.405305 
L 167.635363 217.27928 
L 163.745654 215.232852 
L 165.66503 214.19495 
L 166.542621 212.285603 
L 166.350117 209.534185 
L 165.079082 205.996953 
L 164.017424 203.042406 
L 163.332337 202.278667 
L 162.024443 202.17096 
L 161.14119 201.632426 
L 160.1447 198.430599 
L 159.380347 197.147909 
L 152.580432 191.390494 
L 148.883227 189.481147 
L 145.440806 189.794476 
L 142.236184 192.97672 
L 136.919681 201.495345 
L 133.318728 204.256555 
L 132.424151 204.285929 
L 130.499113 203.923643 
L 130.07833 204.160694 
L 129.751745 204.344678 
L 129.587551 205.245499 
L 129.859321 206.400898 
L 130.2783 207.360467 
L 130.567055 207.654213 
L 130.606689 207.771711 
L 129.757407 209.524394 
L 129.61586 209.495019 
L 129.015701 210.26855 
L 128.194729 209.994387 
L 127.668174 210.131468 
L 127.934283 212.168105 
L 131.608841 214.018703 
L 130.952063 216.652622 
L 134.853096 220.001323 
L 133.335713 222.16525 
L 134.037786 225.278954 
L 131.693769 226.826014 
L 125.692179 228.441616 
L 124.446567 229.43056 
L 123.546328 230.360754 
L 122.844255 231.604278 
L 122.227111 233.494042 
L 122.753665 234.247989 
L 123.772803 235.129226 
L 123.908688 236.127961 
L 121.762837 237.234403 
L 122.25542 239.124167 
L 121.966664 241.053097 
L 121.174002 242.707864 
L 120.154864 243.863264 
L 118.648805 244.646586 
L 118.258135 243.912222 
L 118.371373 242.188914 
L 118.360049 240.005404 
L 118.51292 238.321262 
L 118.829985 236.950449 
L 118.456301 236.480456 
L 115.121455 238.477926 
L 114.334455 239.457079 
L 114.334455 240.720185 
L 116.837004 246.036982 
L 116.16154 246.113164 
L 115.01388 246.242604 
L 109.697377 244.401798 
L 108.083743 244.80325 
L 107.596821 244.666169 
L 107.38167 243.843681 
L 106.577683 242.179122 
L 105.671783 241.914751 
L 104.573379 242.10079 
L 104.188371 241.816836 
L 105.405675 240.162068 
L 102.670988 239.927072 
L 98.164134 243.57931 
L 95.803132 244.059094 
L 84.111356 241.258719 
L 82.820448 240.29915 
L 82.46375 238.712923 
L 82.28257 237.038573 
L 81.518216 235.834215 
L 73.619898 229.802637 
L 71.666551 229.43056 
L 65.149731 229.871178 
L 59.136817 229.04869 
L 57.00229 227.707252 
L 55.552849 224.779586 
L 55.116885 216.407834 
L 54.392165 213.382254 
L 52.781361 212.13873 
L 48.492489 211.482698 
L 47.61989 211.136971 
L 46.663703 210.758126 
L 44.778298 208.613782 
L 43.351505 205.891739 
L 41.032966 199.948285 
L 37.839668 199.928702 
L 35.085165 198.44039 
L 32.514673 195.728138 
L 27.86061 189.089486 
L 25.239161 186.152029 
L 24.177559 184.575594 
L 23.948253 183.048116 
L 23.614202 181.58918 
L 22.227042 180.277115 
L 22.815481 179.948273 
L 24.820182 178.82797 
L 30.640591 177.085079 
L 33.335645 175.479269 
L 34.592581 174.294495 
L 35.153107 173.49159 
L 36.500634 170.710798 
L 38.72292 167.401263 
L 41.032966 164.796718 
L 49.336109 166.764814 
L 53.639135 166.941062 
L 57.834586 165.276503 
L 68.745022 154.809365 
L 73.280186 153.291679 
L 73.271374 153.177685 
L 72.985768 149.482776 
L 71.819421 149.179239 
L 70.115197 150.432554 
L 68.275086 151.333374 
L 66.5652 150.667551 
L 63.054836 147.485306 
L 61.543115 146.604069 
L 60.716481 146.858649 
L 59.017918 148.160921 
L 58.100694 148.121755 
L 57.240089 147.181769 
L 56.136023 144.782846 
L 55.213137 144.185563 
L 53.316408 143.647029 
L 51.504607 142.462255 
L 50.604369 140.50395 
L 51.447989 137.654617 
L 50.779887 137.282539 
L 48.97941 135.755062 
L 54.40915 133.04281 
L 58.157313 129.253491 
L 59.663372 129.331823 
L 62.79439 132.073449 
L 66.417991 133.992587 
L 70.132182 133.718425 
L 73.891668 131.554498 
L 77.702111 127.784762 
L 79.655459 126.629362 
L 83.414945 127.677055 
L 86.698834 126.658737 
L 88.754095 127.804345 
L 89.903456 127.863094 
L 91.335911 127.236437 
L 91.341573 126.834984 
L 90.752737 126.188744 
L 90.390377 124.768973 
L 90.605529 120.049459 
L 91.30194 117.493872 
L 99.251215 107.604434 
L 100.978087 104.245942 
L 102.110462 100.18246 
L 102.110462 98.204572 
L 101.646189 93.387143 
L 102.053844 91.144884 
L 102.959744 89.979693 
L 105.133905 89.078873 
L 105.285565 88.829388 
L 106.062452 87.551395 
L 106.198338 85.97496 
L 105.575531 81.137948 
L 106.017157 79.796509 
L 106.600331 79.590887 
L 106.889087 79.267767 
L 106.436136 77.613 
L 109.533183 72.815154 
L 110.631587 71.552047 
L 111.939481 70.533729 
L 118.93756 69.456661 
L 119.832137 68.467717 
L 120.675757 67.13607 
L 121.638276 65.941505 
L 123.764064 65.15425 
" clip-path="url(#p02ce99d415)" style="fill: #f5f5f5; stroke: #000000"/>
    <path d="M 234.500567 19.296 
L 240.153528 20.151795 
L 241.303736 20.706904 
L 241.571226 22.734598 
L 240.889126 25.124655 
L 239.850372 27.252576 
L 239.056818 28.470734 
L 239.226228 26.944181 
L 239.27081 26.034418 
L 239.39118 25.35595 
L 239.80579 24.477026 
L 237.273549 22.333685 
L 234.562982 22.07155 
L 231.847956 22.379944 
L 229.333547 22.002161 
L 230.541712 20.868811 
L 231.754334 20.020727 
L 233.051662 19.496456 
L 234.500567 19.296 
" clip-path="url(#p02ce99d415)" style="fill: #f5f5f5; stroke: #000000"/>
   </g>
  </g>
 </g>
 <defs>
  <clipPath id="p02ce99d415">
   <rect x="7.2" y="7.2" width="330.594932" height="266.112"/>
  </clipPath>
 </defs>
</svg>
