<?xml version="1.0" encoding="utf-8" standalone="no"?>
<!DOCTYPE svg PUBLIC "-//W3C//DTD SVG 1.1//EN"
  "http://www.w3.org/Graphics/SVG/1.1/DTD/svg11.dtd">
<svg xmlns:xlink="http://www.w3.org/1999/xlink" width="371.52pt" height="217.539356pt" viewBox="0 0 371.52 217.539356" xmlns="http://www.w3.org/2000/svg" version="1.1">
 <metadata>
  <rdf:RDF xmlns:dc="http://purl.org/dc/elements/1.1/" xmlns:cc="http://creativecommons.org/ns#" xmlns:rdf="http://www.w3.org/1999/02/22-rdf-syntax-ns#">
   <cc:Work>
    <dc:type rdf:resource="http://purl.org/dc/dcmitype/StillImage"/>
    <dc:date>2024-03-04T13:11:12.216537</dc:date>
    <dc:format>image/svg+xml</dc:format>
    <dc:creator>
     <cc:Agent>
      <dc:title>Matplotlib v3.8.0, https://matplotlib.org/</dc:title>
     </cc:Agent>
    </dc:creator>
   </cc:Work>
  </rdf:RDF>
 </metadata>
 <defs>
  <style type="text/css">*{stroke-linejoin: round; stroke-linecap: butt}</style>
 </defs>
 <g id="figure_1">
  <g id="patch_1">
   <path d="M 0 217.539356 
L 371.52 217.539356 
L 371.52 0 
L 0 0 
z
" style="fill: #ffffff"/>
  </g>
  <g id="axes_1">
   <g id="PatchCollection_1">
    <defs>
     <path id="ma59deca558" d="M 346.05889 -85.21824 
L 347.048345 -84.983944 
L 347.582239 -84.782449 
L 347.909995 -84.51418 
L 347.988327 -83.981157 
L 347.510091 -83.14472 
L 347.712104 -81.284409 
L 347.299832 -80.135187 
L 346.72265 -78.97425 
L 345.766177 -75.180997 
L 343.288417 -70.912123 
L 342.274226 -68.625394 
L 342.224753 -68.141573 
L 342.274226 -67.706953 
L 342.463871 -66.821314 
L 342.571062 -66.622163 
L 342.92974 -66.242603 
L 343.003949 -66.048137 
L 342.911187 -65.659206 
L 342.731849 -65.40148 
L 342.523651 -65.17187 
L 342.373171 -64.869628 
L 342.030985 -63.83404 
L 341.932039 -63.32796 
L 341.973267 -62.700047 
L 342.146421 -62.208025 
L 342.641149 -61.324729 
L 342.744217 -60.811621 
L 342.500976 -59.701058 
L 341.529198 -57.483371 
L 340.917848 -56.088213 
L 340.763246 -52.913501 
L 340.17988 -51.592072 
L 340.113916 -51.210169 
L 340.175757 -50.844667 
L 340.365403 -50.500252 
L 340.99618 -49.88171 
L 341.72178 -48.255696 
L 342.435012 -47.789447 
L 343.05136 -47.49892 
L 343.574947 -47.004555 
L 344.409799 -45.814331 
L 345.205486 -44.342952 
L 345.803281 -42.754425 
L 346.147529 -42.05388 
L 347.0401 -40.673876 
L 347.382286 -39.966302 
L 347.53895 -39.186096 
L 347.687368 -37.23441 
L 348.0378 -35.437359 
L 348.087273 -34.579836 
L 348.025432 -33.719969 
L 347.860523 -32.817929 
L 347.192641 -30.826413 
L 345.399254 -27.232312 
L 344.819052 -25.289784 
L 344.527297 -24.312983 
L 344.500499 -23.85142 
L 344.624181 -23.284423 
L 344.302608 -21.428799 
L 343.11114 -19.240474 
L 341.608405 -17.616802 
L 340.365403 -17.466853 
L 339.796466 -18.029163 
L 338.510175 -18.821084 
L 337.9433 -19.357622 
L 337.693875 -19.791069 
L 337.434143 -20.58299 
L 337.246559 -20.953178 
L 337.145552 -20.929748 
L 336.184956 -21.735727 
L 336.149913 -21.913792 
L 335.442865 -21.733384 
L 334.22666 -20.683737 
L 333.542287 -20.676708 
L 332.804319 -21.067983 
L 332.128192 -21.316337 
L 331.616973 -21.110156 
L 331.348996 -20.149542 
L 331.060405 -19.458369 
L 330.474977 -19.153784 
L 329.811218 -19.240474 
L 329.279386 -19.720781 
L 328.625934 -20.081597 
L 327.766345 -19.777012 
L 327.331697 -19.436207 
L 326.344004 -18.661762 
L 324.868067 -17.98699 
L 323.474585 -18.380607 
L 320.613411 -20.044109 
L 319.388961 -20.280748 
L 318.065565 -20.205773 
L 316.779274 -19.828557 
L 315.67026 -19.151441 
L 315.212637 -18.500098 
L 314.466424 -16.867055 
L 313.979942 -16.433607 
L 313.439864 -16.534354 
L 311.761914 -17.302845 
L 311.238327 -17.633203 
L 310.87965 -18.225972 
L 310.605489 -18.926517 
L 310.193216 -19.350593 
L 308.970827 -18.964004 
L 306.839376 -18.720336 
L 305.693258 -19.1983 
L 304.775951 -20.437727 
L 304.114253 -21.958308 
L 303.714348 -23.284423 
L 303.706103 -23.286766 
L 303.24848 -25.524294 
L 303.225805 -26.290442 
L 303.102123 -27.152651 
L 302.646562 -27.133907 
L 302.06938 -26.644229 
L 300.863482 -25.360286 
L 300.354325 -24.966669 
L 298.866654 -24.436926 
L 297.74876 -24.038857 
L 296.505758 -23.286766 
L 296.095546 -22.267579 
L 295.324596 -21.370225 
L 294.34751 -20.711853 
L 293.333318 -20.411954 
L 292.966396 -20.482243 
L 291.556423 -21.046896 
L 291.010161 -20.964893 
L 290.711263 -20.515044 
L 290.447409 -19.978506 
L 290.028952 -19.643463 
L 289.295106 -19.809813 
L 286.508142 -21.536575 
L 283.818062 -22.792402 
L 283.022375 -23.284423 
L 283.014129 -23.284423 
L 282.478175 -23.928738 
L 281.931913 -24.430131 
L 281.305259 -24.779232 
L 280.530186 -24.966669 
L 279.307797 -25.470406 
L 276.867142 -26.819951 
L 275.67155 -27.26277 
L 275.319057 -27.26277 
L 274.455346 -27.147965 
L 274.168816 -27.187796 
L 273.890532 -27.506438 
L 273.874041 -28.148409 
L 273.58545 -28.460023 
L 272.909322 -28.595915 
L 272.057979 -28.462366 
L 270.544938 -27.932857 
L 269.65649 -27.351803 
L 269.376144 -27.265113 
L 268.957687 -27.344774 
L 268.714446 -27.534554 
L 268.52274 -27.747763 
L 268.256824 -27.897713 
L 267.652844 -28.080463 
L 267.401601 -28.112402 
L 267.339517 -28.120294 
L 266.432516 -28.064063 
L 266.185153 -28.167153 
L 265.979016 -28.356933 
L 263.227095 -30.11181 
L 262.017074 -30.519485 
L 260.594733 -30.062608 
L 259.654751 -29.957175 
L 258.95801 -29.542471 
L 256.232887 -27.140936 
L 255.371236 -26.623142 
L 254.723968 -26.515366 
L 254.447745 -26.768406 
L 254.373536 -27.122193 
L 254.365291 -27.520496 
L 254.28902 -27.902398 
L 253.973631 -28.18824 
L 253.588156 -28.082806 
L 253.18619 -27.916456 
L 252.827513 -28.014861 
L 250.675449 -29.75568 
L 250.110635 -30.463254 
L 249.685994 -32.061153 
L 249.980769 -35.416273 
L 249.669503 -36.964969 
L 249.108812 -37.656143 
L 245.981723 -39.432107 
L 245.550898 -39.584399 
L 242.394949 -38.316858 
L 240.648974 -37.356244 
L 239.210141 -36.56198 
L 238.488664 -36.33237 
L 237.75688 -36.557294 
L 237.066323 -36.594782 
L 236.402564 -35.985612 
L 235.848659 -35.301206 
L 235.763541 -35.196034 
L 235.118334 -34.706356 
L 233.735158 -34.277594 
L 233.13324 -34.261193 
L 229.449582 -35.254608 
L 228.28285 -36.496377 
L 228.276666 -38.061475 
L 228.136493 -39.432107 
L 226.573979 -40.097508 
L 225.671102 -39.999103 
L 223.428338 -39.101749 
L 222.414146 -39.195468 
L 222.346121 -39.804638 
L 222.393533 -40.493468 
L 221.707099 -40.847255 
L 221.202064 -40.917544 
L 220.707337 -41.058121 
L 219.787969 -41.545457 
L 219.449905 -42.365493 
L 219.223155 -43.312049 
L 218.643911 -44.176602 
L 217.747218 -44.699082 
L 215.760063 -45.376197 
L 214.824204 -45.952566 
L 214.81802 -45.957252 
L 214.393379 -46.667169 
L 213.772908 -46.810089 
L 213.117394 -46.571107 
L 212.577317 -46.149374 
L 212.127939 -46.142345 
L 207.3229 -47.473147 
L 206.805497 -47.840992 
L 206.574624 -48.815663 
L 206.929179 -49.851252 
L 207.493993 -50.889183 
L 207.887713 -51.870884 
L 208.104157 -53.67262 
L 208.017579 -55.408754 
L 207.64035 -57.100371 
L 206.99102 -58.747473 
L 205.97889 -60.263368 
L 204.801851 -61.104491 
L 193.328298 -63.238928 
L 192.462526 -63.803581 
L 191.712189 -64.886029 
L 191.318468 -65.734181 
L 190.780452 -66.153571 
L 189.572493 -65.956762 
L 189.197325 -66.07391 
L 188.768561 -67.177444 
L 188.395454 -67.594491 
L 187.43692 -67.983423 
L 187.008156 -68.239977 
L 186.632988 -68.627737 
L 186.457772 -69.458316 
L 185.754847 -69.621152 
L 184.95916 -69.288452 
L 182.936962 -66.758054 
L 182.089741 -66.172314 
L 180.819941 -66.123112 
L 179.228568 -66.411296 
L 178.713227 -66.587018 
L 178.674191 -66.575332 
L 177.789736 -66.310549 
L 175.940692 -66.179343 
L 175.165619 -65.865387 
L 175.509867 -65.141412 
L 176.645678 -63.843412 
L 176.744624 -63.419336 
L 176.903349 -62.957773 
L 176.893042 -62.587585 
L 176.499322 -62.435292 
L 176.268449 -62.25957 
L 175.983981 -61.830809 
L 175.93364 -61.882662 
L 175.720126 -62.102592 
L 173.885512 -62.777365 
L 168.356933 -65.785726 
L 165.446287 -66.88926 
L 161.080318 -67.484372 
L 157.332758 -67.517174 
L 156.29383 -67.1423 
L 156.091817 -66.701823 
L 156.009362 -66.148885 
L 156.087694 -65.621719 
L 156.691674 -64.785282 
L 156.636017 -64.239372 
L 156.363917 -63.670033 
L 155.502266 -62.36969 
L 154.832323 -61.678516 
L 154.055189 -61.235697 
L 153.160557 -61.19118 
L 152.245311 -61.516852 
L 151.843345 -61.969043 
L 151.591859 -62.606329 
L 151.132174 -63.470881 
L 150.639508 -64.04022 
L 148.660599 -65.736524 
L 147.190846 -66.32695 
L 142.311597 -66.289462 
L 139.786426 -66.92089 
L 137.955935 -67.965851 
L 136.958235 -68.291522 
L 132.006838 -68.627737 
L 131.112206 -69.679726 
L 130.679319 -71.400631 
L 130.295906 -74.792066 
L 129.809424 -76.5364 
L 129.116805 -77.670393 
L 128.885632 -77.763318 
L 128.018098 -78.112041 
L 122.992493 -76.799983 
L 119.582996 -76.40168 
L 118.036973 -76.889015 
L 115.882848 -79.103113 
L 112.790801 -80.665868 
L 108.02905 -84.646557 
L 106.289259 -85.340074 
L 105.609009 -85.737206 
L 104.862795 -86.539669 
L 104.062986 -87.226157 
L 104.007185 -87.244969 
L 103.090022 -87.554171 
L 101.043087 -87.760352 
L 99.866048 -87.234357 
L 98.258184 -85.318987 
L 97.345 -84.681702 
L 96.246293 -84.76722 
L 95.137279 -85.433792 
L 94.032388 -86.270229 
L 92.036987 -87.429994 
L 90.451798 -89.146213 
L 89.596332 -89.857301 
L 88.658411 -90.201717 
L 86.648581 -90.674995 
L 85.863202 -91.28885 
L 85.852895 -91.293536 
L 85.337554 -92.12763 
L 84.529499 -92.703998 
L 81.000444 -94.536193 
L 80.392341 -95.029387 
L 80.225371 -95.452291 
L 80.182082 -95.925569 
L 79.994498 -96.576912 
L 79.477096 -97.409834 
L 78.761802 -98.191212 
L 77.91252 -98.808582 
L 77.001397 -99.135425 
L 76.391233 -99.051078 
L 76.133563 -98.635203 
L 75.966592 -98.074064 
L 75.601731 -97.543383 
L 75.02661 -97.249342 
L 74.362851 -97.139223 
L 73.929965 -97.34306 
L 74.057769 -97.987374 
L 73.406378 -98.149038 
L 73.154892 -98.49814 
L 73.313617 -98.869499 
L 73.919658 -99.117853 
L 73.377519 -100.212015 
L 71.062607 -102.895876 
L 70.520468 -104.158732 
L 69.708291 -106.855479 
L 68.883745 -107.907469 
L 67.952009 -108.403005 
L 63.991856 -109.166477 
L 62.130716 -109.525283 
L 61.842125 -110.016133 
L 61.767916 -110.579615 
L 61.627743 -111.065779 
L 61.157752 -111.33522 
L 60.539343 -111.124353 
L 59.768393 -111.143097 
L 58.976829 -111.302418 
L 58.335745 -111.513285 
L 57.593654 -112.054509 
L 57.401947 -112.691794 
L 57.342167 -113.373595 
L 57.018533 -114.053054 
L 56.449597 -114.306094 
L 54.814935 -114.31078 
L 54.072844 -114.4537 
L 53.404962 -114.863718 
L 51.883675 -116.460446 
L 51.228161 -116.900922 
L 49.978975 -117.255881 
L 49.294602 -117.582724 
L 48.878206 -118.10989 
L 48.086642 -119.624614 
L 47.579547 -119.992459 
L 46.099487 -120.260728 
L 45.415114 -120.495024 
L 44.706005 -120.861697 
L 44.438028 -121.223684 
L 44.458641 -121.646589 
L 44.524605 -122.040206 
L 44.396801 -122.308475 
L 43.543428 -122.336001 
L 42.871391 -122.357677 
L 42.071582 -121.909 
L 41.6758 -121.289287 
L 41.568609 -120.510253 
L 41.906673 -117.624897 
L 41.708782 -117.026271 
L 40.925463 -117.45269 
L 39.239268 -119.491065 
L 38.513667 -119.923341 
L 37.713858 -119.964343 
L 36.947031 -119.75582 
L 36.17608 -119.645701 
L 35.376271 -119.974887 
L 34.922771 -120.54774 
L 33.834371 -122.794639 
L 33.529289 -123.052365 
L 32.803689 -123.23043 
L 32.477993 -123.387408 
L 32.172911 -123.725966 
L 31.756516 -124.453455 
L 31.529766 -124.746325 
L 30.857761 -125.164544 
L 29.451911 -125.40704 
L 28.689206 -125.678824 
L 28.112024 -126.133358 
L 26.780383 -127.914008 
L 25.489969 -128.674299 
L 25.13865 -128.74555 
L 24.409814 -128.893365 
L 23.675968 -129.475591 
L 23.432727 -131.318329 
L 23.465709 -132.230913 
L 23.577023 -133.053292 
L 23.840877 -133.818268 
L 24.335605 -134.557472 
L 24.954014 -135.048323 
L 25.621896 -135.390395 
L 26.190832 -135.834386 
L 26.528896 -136.619277 
L 26.528896 -136.627478 
L 26.401092 -138.116429 
L 26.735033 -140.138404 
L 27.514228 -141.861651 
L 28.746924 -142.457935 
L 29.427174 -142.365388 
L 30.259965 -142.358359 
L 31.026793 -142.58094 
L 31.52152 -143.180738 
L 31.418452 -143.880112 
L 30.75057 -145.776738 
L 30.952584 -146.43511 
L 31.641079 -146.525314 
L 32.144052 -146.131697 
L 32.523343 -146.043836 
L 33.343766 -149.019396 
L 33.504553 -150.072556 
L 33.397362 -150.926565 
L 33.104648 -151.178434 
L 32.737725 -151.160861 
L 32.395539 -151.220607 
L 32.177034 -151.690371 
L 31.88432 -153.522566 
L 31.039161 -155.00566 
L 30.75057 -155.76595 
L 30.907234 -156.570757 
L 31.331875 -156.891743 
L 32.494484 -157.270131 
L 32.733602 -157.686006 
L 32.844916 -158.270575 
L 33.117016 -158.566959 
L 33.475693 -158.822342 
L 33.838493 -159.289763 
L 33.850862 -159.29562 
L 34.650671 -159.902447 
L 34.992857 -160.251548 
L 35.277326 -160.660395 
L 35.293817 -160.891176 
L 35.190748 -161.144216 
L 35.13303 -161.423028 
L 35.277326 -161.736985 
L 35.49583 -161.912707 
L 35.990558 -162.179804 
L 36.217308 -162.348498 
L 37.116062 -163.351285 
L 37.590176 -164.287297 
L 37.652017 -165.284227 
L 37.285094 -166.468594 
L 36.740894 -167.682247 
L 36.361603 -168.823269 
L 36.35748 -169.974834 
L 36.942908 -171.228318 
L 37.990081 -172.074126 
L 40.368895 -172.709069 
L 41.218177 -173.4143 
L 43.258928 -175.965784 
L 44.145314 -177.383275 
L 44.677146 -179.016318 
L 45.01521 -179.794181 
L 45.608883 -180.124538 
L 47.047715 -180.307289 
L 47.81042 -180.546271 
L 48.317515 -180.8696 
L 49.356443 -181.844271 
L 50.778784 -182.807228 
L 51.174566 -183.23599 
L 52.370157 -185.131445 
L 52.926725 -185.707813 
L 55.326153 -187.514236 
L 56.117717 -188.70446 
L 55.590008 -189.913427 
L 56.146576 -190.452308 
L 56.845379 -191.279373 
L 57.47455 -191.737606 
L 57.48233 -191.743278 
L 57.871979 -191.185572 
L 58.257412 -190.384361 
L 58.95619 -190.213324 
L 61.64218 -191.115368 
L 61.9555 -191.13411 
L 62.373957 -190.768608 
L 62.889298 -190.014174 
L 63.346921 -189.128535 
L 63.856078 -187.654813 
L 64.771324 -186.155319 
L 65.074344 -185.464145 
L 65.483228 -183.467569 
L 65.498985 -183.390625 
L 66.014326 -182.971235 
L 67.084174 -183.23599 
L 68.022095 -183.257077 
L 69.8732 -182.406582 
L 70.763709 -182.575275 
L 71.180105 -183.221932 
L 71.118264 -184.491817 
L 71.668648 -184.869033 
L 72.369512 -185.084586 
L 72.757048 -185.375113 
L 72.800977 -185.470523 
L 72.965246 -185.827304 
L 73.12191 -186.527849 
L 73.064192 -186.83712 
L 72.738496 -187.542351 
L 72.763233 -187.875052 
L 73.191996 -188.181979 
L 73.812467 -188.226496 
L 74.461797 -188.191351 
L 74.975076 -188.268669 
L 75.607915 -188.711488 
L 76.077906 -189.332373 
L 76.366497 -190.072748 
L 76.547897 -191.487897 
L 77.048809 -192.319648 
L 77.18692 -192.750752 
L 77.149815 -193.139684 
L 76.894206 -193.868344 
L 76.834427 -194.266648 
L 76.795261 -195.852832 
L 76.935434 -196.572121 
L 77.358013 -197.223464 
L 77.562088 -197.851377 
L 77.467266 -198.568323 
L 77.572395 -199.156406 
L 78.36602 -199.395388 
L 79.112234 -199.093146 
L 80.575803 -197.680341 
L 81.383857 -197.251579 
L 82.433092 -197.092258 
L 82.88453 -197.253922 
L 83.333908 -198.994742 
L 83.527676 -199.367273 
L 83.824513 -199.552366 
L 84.583095 -199.685915 
L 85.119049 -199.929583 
L 85.329308 -200.313829 
L 85.45299 -200.707446 
L 85.712722 -200.986258 
L 86.607354 -201.105749 
L 87.473127 -200.836309 
L 92.325578 -198.657356 
L 93.18929 -198.437117 
L 94.085983 -198.584724 
L 94.935265 -198.896338 
L 95.796915 -199.032229 
L 97.503725 -198.298883 
L 98.872471 -198.406659 
L 99.659912 -198.252023 
L 100.014466 -197.998984 
L 100.492703 -197.33124 
L 100.768926 -197.087572 
L 101.160585 -197.021969 
L 101.543999 -197.155518 
L 101.931535 -197.349984 
L 102.308765 -197.474161 
L 103.992899 -197.58428 
L 104.924636 -197.492904 
L 105.545106 -197.169576 
L 105.722384 -196.473716 
L 105.279191 -193.870687 
L 105.394627 -192.668749 
L 105.829575 -191.881514 
L 106.561359 -191.370749 
L 107.604409 -191.000561 
L 108.214573 -190.426536 
L 108.026989 -189.55964 
L 107.093191 -187.84225 
L 107.138541 -187.226052 
L 107.398273 -186.272467 
L 107.769318 -185.351683 
L 108.140364 -184.840918 
L 108.954603 -184.719084 
L 109.669896 -184.990867 
L 110.407865 -185.124416 
L 112.205374 -184.002138 
L 113.013429 -183.877961 
L 113.83179 -183.873275 
L 114.724361 -183.646008 
L 115.054179 -183.369539 
L 115.530354 -182.622134 
L 115.858111 -182.359723 
L 116.513625 -182.256632 
L 117.127912 -182.350351 
L 117.738075 -182.345665 
L 118.350301 -181.959076 
L 118.871826 -181.281961 
L 119.51291 -180.651705 
L 120.236449 -180.122195 
L 120.984724 -179.733264 
L 122.916222 -179.138152 
L 123.617086 -178.723448 
L 126.67615 -174.94191 
L 127.368769 -174.452231 
L 127.789287 -174.466289 
L 128.60971 -174.724015 
L 129.021983 -174.695899 
L 129.487851 -174.393657 
L 129.496096 -174.023469 
L 129.314696 -173.575964 
L 129.19926 -173.032397 
L 129.566183 -172.262735 
L 131.982102 -170.384852 
L 132.724193 -169.24383 
L 133.161202 -168.833812 
L 133.639438 -168.579601 
L 134.121798 -168.419108 
L 134.536132 -168.154354 
L 134.808232 -167.602586 
L 135.375107 -166.779036 
L 136.207898 -167.069563 
L 137.110776 -167.745507 
L 137.894094 -168.077036 
L 138.269262 -167.904828 
L 138.850567 -167.226541 
L 139.178324 -166.978187 
L 139.584413 -166.921956 
L 140.470799 -167.055505 
L 140.932545 -166.971158 
L 143.206229 -164.996043 
L 143.525741 -164.53448 
L 144.06788 -163.435631 
L 144.484275 -163.106445 
L 145.067641 -163.145104 
L 145.306759 -163.63244 
L 145.422196 -164.268554 
L 145.618025 -164.754718 
L 145.894248 -164.869523 
L 146.947605 -165.129592 
L 147.879342 -165.230339 
L 148.35964 -165.209252 
L 148.817263 -165.032359 
L 149.363524 -164.616483 
L 149.50782 -164.381016 
L 149.652115 -163.780046 
L 149.759306 -163.573866 
L 150.068511 -163.384086 
L 150.744638 -163.153304 
L 151.041474 -162.977582 
L 151.969088 -162.036884 
L 152.298907 -161.4406 
L 152.397852 -160.762313 
L 152.261802 -160.385097 
L 152.026806 -160.136743 
L 151.816547 -159.832158 
L 151.754706 -159.29562 
L 152.422588 -158.310405 
L 154.976619 -158.855144 
L 156.062957 -157.753952 
L 156.166026 -156.938602 
L 156.062957 -156.268515 
L 156.135105 -155.696833 
L 157.341003 -154.705761 
L 157.427581 -154.204367 
L 157.382231 -153.650257 
L 157.575999 -153.016486 
L 158.050112 -152.573667 
L 158.559269 -152.320627 
L 158.973604 -151.983241 
L 159.334342 -150.703984 
L 159.773413 -150.319739 
L 160.874181 -149.873405 
L 161.575045 -149.384897 
L 161.958459 -148.699581 
L 162.33775 -146.997421 
L 162.420204 -146.014549 
L 162.51915 -145.5565 
L 162.785066 -145.188655 
L 163.273609 -144.990675 
L 164.2878 -144.854783 
L 164.712441 -144.499825 
L 165.182432 -144.216327 
L 166.802665 -143.912913 
L 167.394276 -143.881283 
L 168.021583 -144.137656 
L 168.062158 -144.154238 
L 168.356933 -144.790352 
L 168.530088 -145.584616 
L 168.822802 -146.329677 
L 169.63704 -147.119255 
L 170.60382 -147.45547 
L 171.626257 -147.4953 
L 172.634264 -147.394553 
L 173.53508 -147.508186 
L 175.316099 -148.380939 
L 176.264326 -148.662094 
L 176.552917 -148.808529 
L 176.893042 -149.413013 
L 177.134222 -149.650823 
L 178.368979 -149.985867 
L 179.117254 -150.093643 
L 179.611981 -150.095986 
L 180.106709 -149.969466 
L 180.477754 -149.772657 
L 180.716873 -149.424728 
L 180.819941 -148.822587 
L 181.314668 -149.084998 
L 181.819702 -149.22089 
L 182.283509 -149.115457 
L 182.642187 -148.642179 
L 183.188448 -148.091583 
L 183.899619 -148.21576 
L 184.658201 -148.515659 
L 185.363187 -148.499258 
L 185.738356 -148.063468 
L 185.985719 -146.835756 
L 186.266065 -146.344906 
L 186.810265 -146.216043 
L 187.447227 -146.307419 
L 187.985243 -146.233616 
L 188.232606 -145.593987 
L 187.974936 -144.841897 
L 187.43692 -144.130809 
L 187.05969 -143.384576 
L 187.288501 -142.516509 
L 188.170765 -141.647271 
L 188.414006 -141.328628 
L 188.554179 -140.896352 
L 188.782991 -139.467146 
L 189.689991 -138.918893 
L 190.582561 -138.628366 
L 191.015448 -138.042626 
L 190.030116 -134.174398 
L 190.770679 -132.970726 
L 191.163866 -132.33166 
L 193.192248 -131.140264 
L 195.905004 -130.575611 
L 196.395608 -130.36943 
L 196.80582 -130.010958 
L 197.463395 -128.900394 
L 198.310616 -128.171734 
L 198.646618 -127.759373 
L 199.248536 -125.681167 
L 199.768 -124.799042 
L 200.761578 -124.500315 
L 201.6727 -124.526087 
L 202.352951 -124.233217 
L 203.004342 -123.838428 
L 203.795906 -123.552587 
L 206.005688 -123.181228 
L 206.364365 -122.975047 
L 206.747779 -122.178441 
L 207.019879 -121.848083 
L 207.803197 -121.557556 
L 208.555595 -121.401749 
L 209.027648 -121.03039 
L 208.81945 -118.928755 
L 209.340975 -118.553881 
L 211.167344 -118.464848 
L 211.925926 -118.067717 
L 212.968976 -116.865778 
L 213.661594 -116.309325 
L 214.172813 -116.098458 
L 214.651049 -116.032856 
L 216.85877 -116.173433 
L 217.343191 -116.089087 
L 217.998704 -115.873534 
L 218.431591 -115.812617 
L 218.821189 -115.939137 
L 219.138639 -116.224978 
L 219.637489 -117.291025 
L 219.876607 -117.56398 
L 221.066014 -118.211809 
L 221.43706 -118.312556 
L 221.773062 -118.476563 
L 222.038978 -118.844408 
L 222.422392 -119.6293 
L 222.682124 -120.01706 
L 222.954224 -120.273614 
L 223.865347 -120.483309 
L 224.667217 -120.164666 
L 226.13697 -119.129078 
L 228.095266 -118.502336 
L 228.375612 -117.966969 
L 227.93448 -115.697812 
L 227.806675 -115.32411 
L 227.563434 -114.91292 
L 227.272782 -114.690339 
L 226.586347 -114.403327 
L 226.349291 -114.074141 
L 226.28745 -113.809386 
L 226.283327 -112.958891 
L 226.040086 -112.349722 
L 225.011465 -111.725323 
L 224.768224 -111.278989 
L 225.091858 -108.800137 
L 225.091858 -107.916841 
L 224.939374 -106.564659 
L 224.873354 -105.979212 
L 225.159884 -105.313811 
L 226.038025 -104.776102 
L 227.025418 -104.763216 
L 227.839657 -105.166205 
L 228.598239 -105.323183 
L 229.880407 -104.142331 
L 230.606008 -103.843604 
L 231.383142 -103.672568 
L 232.028349 -103.628051 
L 232.568426 -103.759257 
L 233.681563 -104.268851 
L 234.143308 -104.346169 
L 234.666895 -104.102501 
L 235.029695 -103.707712 
L 235.450213 -103.370326 
L 236.136648 -103.298866 
L 236.74475 -103.584707 
L 237.684732 -104.619124 
L 238.237178 -104.965882 
L 238.888569 -104.993997 
L 239.490487 -104.771416 
L 240.648974 -104.179819 
L 241.520931 -104.33914 
L 242.44236 -104.353198 
L 243.361729 -104.238393 
L 244.223379 -104.011125 
L 245.029372 -103.458187 
L 245.565327 -102.898219 
L 246.078607 -102.912277 
L 247.167007 -104.578122 
L 247.480334 -104.841705 
L 248.325494 -105.152147 
L 248.601717 -105.416902 
L 248.647067 -105.812862 
L 248.638821 -106.248653 
L 248.764564 -106.61884 
L 249.314949 -106.724274 
L 249.516962 -105.736716 
L 249.587049 -103.726456 
L 250.217826 -102.559662 
L 250.972285 -101.569761 
L 251.854549 -100.740353 
L 252.897599 -100.053865 
L 254.658004 -99.254916 
L 255.511409 -98.731264 
L 256.113327 -98.024862 
L 256.259684 -97.552755 
L 256.447268 -96.554654 
L 257.139887 -95.618641 
L 257.218219 -95.193394 
L 257.168746 -94.756432 
L 257.193482 -94.20935 
L 257.50681 -93.158533 
L 257.931451 -92.542334 
L 259.329056 -91.286507 
L 259.832028 -90.447727 
L 259.81966 -89.570289 
L 259.642383 -88.660049 
L 259.617647 -87.72755 
L 260.075269 -86.600586 
L 260.776133 -86.319431 
L 262.618993 -86.534984 
L 263.614632 -86.427207 
L 263.741513 -86.448223 
L 264.024843 -86.495153 
L 264.581411 -86.755222 
L 265.838843 -88.027449 
L 266.065594 -88.206686 
L 266.040857 -88.681135 
L 265.838843 -88.997435 
L 265.574989 -89.269218 
L 265.377098 -89.614805 
L 265.356484 -90.115027 
L 265.473982 -90.506302 
L 265.478105 -90.874146 
L 265.129734 -91.286507 
L 265.129734 -91.293536 
L 265.125611 -91.293536 
L 264.721584 -91.577034 
L 264.659743 -91.840617 
L 264.736014 -92.129973 
L 264.736014 -92.50719 
L 264.91123 -93.273338 
L 264.94215 -93.514663 
L 264.816407 -93.869621 
L 264.362907 -94.550251 
L 264.305189 -95.005957 
L 267.784771 -98.622317 
L 268.584581 -98.462995 
L 268.984485 -97.579699 
L 269.029835 -96.453907 
L 268.774226 -95.549524 
L 268.434101 -94.782204 
L 268.52274 -94.356957 
L 268.817515 -94.013713 
L 269.108167 -93.502948 
L 269.382328 -92.186204 
L 269.662674 -91.642637 
L 270.250163 -91.298222 
L 270.256347 -91.295879 
L 270.274899 -91.286507 
L 271.078831 -91.052211 
L 271.895131 -90.965522 
L 272.655775 -90.786285 
L 273.317473 -90.273177 
L 274.257455 -89.067724 
L 274.636746 -88.791254 
L 275.028405 -88.71628 
L 275.349978 -88.847486 
L 275.67155 -89.023208 
L 276.042596 -89.081782 
L 276.401273 -88.894345 
L 277.747344 -87.762695 
L 278.528601 -87.441709 
L 279.068679 -87.483883 
L 280.530186 -88.243002 
L 281.385652 -88.709251 
L 281.925729 -89.368794 
L 282.177182 -90.230368 
L 282.164847 -91.286507 
L 282.154541 -92.080771 
L 282.397782 -92.600908 
L 282.742029 -93.0531 
L 283.038866 -93.664612 
L 283.133689 -94.344071 
L 283.154302 -95.07156 
L 283.269739 -95.742818 
L 283.644907 -96.247726 
L 284.281868 -96.359017 
L 284.824007 -95.970085 
L 285.37233 -95.447605 
L 285.988678 -95.165278 
L 286.580289 -95.310542 
L 287.470799 -96.113006 
L 287.969649 -96.36956 
L 288.691126 -96.319186 
L 289.472383 -96.002887 
L 290.191799 -95.527266 
L 290.75249 -95.012986 
L 290.921522 -94.465905 
L 290.771043 -93.110502 
L 291.074063 -92.500161 
L 292.2779 -92.073742 
L 295.089601 -92.195576 
L 296.194492 -91.293536 
L 296.194492 -91.286507 
L 296.542862 -90.194688 
L 297.188069 -89.448455 
L 298.051781 -89.037265 
L 299.074218 -88.94589 
L 300.265686 -89.142699 
L 300.739051 -89.289229 
L 301.003654 -89.371137 
L 301.679782 -89.326621 
L 302.671298 -88.718623 
L 303.926669 -87.373763 
L 306.101408 -84.479036 
L 307.668045 -83.62737 
L 308.713156 -83.568796 
L 310.7436 -83.805435 
L 313.042021 -83.186893 
L 313.975819 -83.75389 
L 314.849837 -84.559868 
L 315.967097 -84.962857 
L 316.824624 -84.698103 
L 316.639101 -84.081904 
L 316.177356 -83.322785 
L 316.177356 -82.636297 
L 316.882342 -82.657384 
L 320.423766 -83.668371 
L 321.978034 -84.053788 
L 322.658285 -84.12642 
L 323.445726 -83.903839 
L 323.631249 -83.685944 
L 323.783789 -83.322785 
L 323.994049 -82.950254 
L 324.323867 -82.6855 
L 324.987626 -82.666756 
L 326.228567 -83.343871 
L 326.826363 -83.530137 
L 327.778713 -83.359101 
L 328.519771 -83.063117 
L 329.394823 -82.713615 
L 330.446118 -82.809676 
L 331.625219 -83.381359 
L 332.561078 -84.245911 
L 333.311415 -85.335388 
L 333.929824 -86.581843 
L 334.397753 -87.289417 
L 334.828579 -87.369078 
L 335.603651 -86.928601 
L 338.732802 -86.778651 
L 339.157443 -86.64276 
L 340.002603 -86.209312 
L 340.4829 -86.108565 
L 341.016794 -86.204626 
L 342.066028 -86.635731 
L 342.53808 -86.689619 
L 343.449203 -86.380348 
L 345.162197 -85.419734 
L 346.05889 -85.21824 
" style="stroke: #000000"/>
    </defs>
    <g clip-path="url(#pa8238729a9)">
     <use xlink:href="#ma59deca558" x="0" y="217.539356" style="fill: #f5f5f5; stroke: #000000"/>
    </g>
   </g>
  </g>
 </g>
 <defs>
  <clipPath id="pa8238729a9">
   <rect x="7.2" y="7.2" width="357.12" height="203.139356"/>
  </clipPath>
 </defs>
</svg>
