<?xml version="1.0" encoding="utf-8" standalone="no"?>
<!DOCTYPE svg PUBLIC "-//W3C//DTD SVG 1.1//EN"
  "http://www.w3.org/Graphics/SVG/1.1/DTD/svg11.dtd">
<svg xmlns:xlink="http://www.w3.org/1999/xlink" width="238.008261pt" height="280.512pt" viewBox="0 0 238.008261 280.512" xmlns="http://www.w3.org/2000/svg" version="1.1">
 <metadata>
  <rdf:RDF xmlns:dc="http://purl.org/dc/elements/1.1/" xmlns:cc="http://creativecommons.org/ns#" xmlns:rdf="http://www.w3.org/1999/02/22-rdf-syntax-ns#">
   <cc:Work>
    <dc:type rdf:resource="http://purl.org/dc/dcmitype/StillImage"/>
    <dc:date>2024-03-04T13:11:12.242829</dc:date>
    <dc:format>image/svg+xml</dc:format>
    <dc:creator>
     <cc:Agent>
      <dc:title>Matplotlib v3.8.0, https://matplotlib.org/</dc:title>
     </cc:Agent>
    </dc:creator>
   </cc:Work>
  </rdf:RDF>
 </metadata>
 <defs>
  <style type="text/css">*{stroke-linejoin: round; stroke-linecap: butt}</style>
 </defs>
 <g id="figure_1">
  <g id="patch_1">
   <path d="M 0 280.512 
L 238.008261 280.512 
L 238.008261 0 
L 0 0 
z
" style="fill: #ffffff"/>
  </g>
  <g id="axes_1">
   <g id="PatchCollection_1">
    <path d="M 220.437477 46.24376 
L 220.589666 48.688165 
L 220.64425 50.069299 
L 220.4805 51.4104 
L 220.12025 52.891617 
L 219.37246 54.786506 
L 219.24146 55.480409 
L 219.279668 56.510143 
L 219.481626 57.057259 
L 219.738167 57.506517 
L 219.934667 58.258245 
L 220.425917 64.421083 
L 220.344042 67.505838 
L 219.858251 70.250314 
L 218.712002 73.13268 
L 214.378091 79.864875 
L 213.971115 80.993069 
L 213.433801 82.48258 
L 212.975301 85.360498 
L 212.484052 94.652572 
L 212.096511 97.686174 
L 211.135846 99.527686 
L 209.252723 98.942761 
L 208.455807 98.609154 
L 205.852186 98.993915 
L 203.052065 98.153224 
L 198.041321 98.23329 
L 196.272824 98.778182 
L 195.324722 99.461311 
L 194.411535 100.119283 
L 194.853659 101.020022 
L 194.749951 101.791767 
L 194.509784 102.505687 
L 194.526159 103.22183 
L 194.897326 103.775618 
L 196.627615 105.23237 
L 193.696494 106.706914 
L 192.823162 106.784756 
L 193.472702 108.134753 
L 193.658286 109.67157 
L 193.734702 111.188372 
L 194.056743 112.471647 
L 195.099284 113.68153 
L 196.491157 114.359864 
L 200.672235 114.949237 
L 203.401398 115.990092 
L 204.891521 116.232513 
L 206.277935 116.141327 
L 207.59885 115.754343 
L 208.0901 115.291741 
L 208.417599 114.713488 
L 208.750557 114.557805 
L 211.965511 119.773198 
L 212.707843 121.986126 
L 212.260261 125.124258 
L 211.201345 127.584056 
L 210.819263 128.8829 
L 210.786513 130.45975 
L 211.255929 132.299038 
L 211.565472 132.870501 
L 211.698053 133.115264 
L 211.550678 133.55785 
L 209.203598 134.990137 
L 208.635932 135.655127 
L 207.396892 137.674563 
L 206.343435 138.613111 
L 204.07823 139.609485 
L 203.052065 140.688149 
L 201.883983 143.081225 
L 201.218067 143.692838 
L 198.096986 144.045754 
L 197.795697 144.079822 
L 196.949656 144.555769 
L 196.054491 145.492093 
L 195.776116 145.981384 
L 195.344908 147.077839 
L 194.919159 147.618283 
L 194.285993 147.938546 
L 193.729244 147.978579 
L 193.254369 148.205432 
L 192.888662 149.101723 
L 192.997828 150.413912 
L 193.83841 151.012181 
L 194.995575 151.356908 
L 198.445238 153.300727 
L 199.809819 154.755254 
L 200.082735 155.171151 
L 200.213735 155.751628 
L 200.16461 156.803603 
L 199.897152 157.06604 
L 199.493236 157.13721 
L 199.062028 157.61538 
L 197.855738 159.821636 
L 196.627615 161.300629 
L 195.197534 162.08127 
L 190.522477 162.232505 
L 185.266109 164.047328 
L 182.667946 166.062316 
L 181.794614 166.462645 
L 180.719324 166.462645 
L 177.335162 165.450703 
L 177.766369 167.392297 
L 177.548036 168.25078 
L 175.566664 168.809016 
L 175.408372 167.467915 
L 174.551415 166.963056 
L 172.526376 166.651689 
L 172.28621 166.35589 
L 171.702169 165.297243 
L 171.325545 164.928051 
L 170.888878 164.874674 
L 169.240464 165.241642 
L 167.455591 164.501034 
L 165.758052 163.111004 
L 164.055054 162.299226 
L 162.259265 163.282256 
L 162.914264 163.784891 
L 164.88472 165.875496 
L 165.594302 167.005313 
L 164.742803 166.791804 
L 163.498305 166.469317 
L 161.784391 166.006715 
L 159.63381 166.59164 
L 158.875103 167.000864 
L 157.783438 167.821538 
L 156.762731 168.2619 
L 154.606692 168.648884 
L 153.727901 169.27829 
L 153.547777 170.045587 
L 154.748608 170.977463 
L 155.452732 172.643275 
L 155.359941 174.382481 
L 154.499225 175.248645 
L 154.186401 175.56345 
L 154.142734 176.488655 
L 154.666734 176.704387 
L 156.200523 176.668803 
L 156.806397 176.962377 
L 157.985396 177.867565 
L 158.509395 178.41468 
L 157.799813 180.852237 
L 159.011561 182.417967 
L 162.586765 184.01261 
L 161.969974 185.938636 
L 161.686141 187.168535 
L 161.915391 188.224958 
L 165.430552 193.140104 
L 167.5593 195.644383 
L 167.935924 198.464476 
L 168.192465 200.025758 
L 168.001424 201.729379 
L 167.597508 203.559771 
L 167.52655 205.145517 
L 168.323465 206.117426 
L 168.017799 206.873603 
L 167.854049 208.759596 
L 167.570216 209.831587 
L 167.046217 210.589988 
L 165.703469 211.546328 
L 165.152178 212.100117 
L 162.444848 217.208756 
L 161.33135 218.598786 
L 160.790975 219.548454 
L 160.337934 221.263196 
L 160.185101 223.184773 
L 160.561726 224.774968 
L 161.800766 225.482215 
L 164.431679 223.629583 
L 165.643427 224.0566 
L 165.223136 224.307918 
L 164.016846 225.31986 
L 165.124886 226.380731 
L 164.338887 227.450498 
L 161.33135 229.125207 
L 156.446148 233.057324 
L 155.736565 233.898014 
L 154.721317 236.088702 
L 154.071776 236.822638 
L 153.100194 236.929392 
L 152.39607 236.266626 
L 151.768362 235.42816 
L 151.036947 235.00559 
L 149.55774 235.806248 
L 149.857948 237.821236 
L 150.671239 240.296601 
L 150.725822 242.467272 
L 151.446321 242.316037 
L 152.816361 241.617686 
L 153.531402 241.408625 
L 154.262817 241.510932 
L 155.649232 241.98243 
L 157.543271 241.746681 
L 157.652438 242.195939 
L 157.330397 242.920978 
L 157.128439 243.637122 
L 157.204855 244.878141 
L 157.341313 245.563148 
L 157.745229 246.021302 
L 158.989728 246.826407 
L 160.714559 247.444693 
L 160.610851 247.791644 
L 160.332476 248.258694 
L 160.234226 248.828051 
L 160.681809 250.598393 
L 160.665434 251.2834 
L 160.343393 252.168571 
L 159.753893 252.898059 
L 158.563978 252.791305 
L 157.838021 253.218322 
L 157.374063 254.081253 
L 157.423188 254.824085 
L 157.537813 255.615846 
L 157.259438 256.638909 
L 156.500731 257.372844 
L 155.698357 257.163784 
L 155.922148 258.266912 
L 156.326065 258.987504 
L 156.850064 259.365592 
L 157.193938 259.890467 
L 157.079314 261.011388 
L 156.01494 261.216 
L 152.183195 261.087005 
L 151.606744 260.897796 
L 151.004197 260.700021 
L 146.424661 260.820119 
L 145.884287 260.428687 
L 144.803538 259.196564 
L 144.274081 258.987504 
L 143.804665 259.361144 
L 143.235399 260.243174 
L 142.974999 260.646644 
L 142.423708 260.762294 
L 141.850584 260.642196 
L 140.889919 260.072839 
L 141.435751 258.097884 
L 141.528543 257.083718 
L 140.704335 256.830177 
L 139.563545 256.265268 
L 139.256261 256.043574 
L 138.37363 255.406786 
L 137.516673 254.094597 
L 137.402048 252.168571 
L 141.21196 247.7783 
L 141.823292 247.524758 
L 142.434625 247.297905 
L 142.685708 247.088845 
L 143.367999 246.030198 
L 144.279539 244.028554 
L 144.885413 242.978804 
L 144.372331 242.662989 
L 143.864706 242.649644 
L 142.685708 242.978804 
L 144.76533 239.558217 
L 145.600454 237.458716 
L 144.885413 236.457894 
L 145.010955 235.316957 
L 145.278413 234.482939 
L 145.70962 234.209381 
L 146.326411 234.752049 
L 146.724869 234.193813 
L 147.01416 233.582199 
L 147.40716 232.40123 
L 147.259785 232.054278 
L 147.17791 231.791841 
L 147.04691 231.169107 
L 147.625493 231.233604 
L 148.193159 231.144642 
L 148.728075 230.922238 
L 149.213866 230.586406 
L 148.013034 229.265322 
L 148.182242 228.282292 
L 148.924575 227.52834 
L 148.793575 227.114667 
L 148.324159 226.018211 
L 147.423535 225.944817 
L 145.802412 226.367387 
L 145.098288 225.760221 
L 143.995706 224.198939 
L 143.133291 223.669616 
L 142.456458 223.596222 
L 140.245836 224.063273 
L 139.339754 224.072169 
L 138.76663 223.651824 
L 138.259005 223.053555 
L 137.543965 222.537575 
L 134.552802 221.612371 
L 133.656772 220.827662 
L 133.346512 220.555948 
L 133.177304 218.598786 
L 132.800679 216.93075 
L 131.823639 215.623009 
L 130.584599 214.822352 
L 129.443809 214.688909 
L 128.401269 215.202664 
L 126.185188 216.801755 
L 125.082606 217.217652 
L 118.832823 216.948542 
L 117.181869 217.37059 
L 116.840534 217.457849 
L 115.912619 217.215428 
L 115.885327 214.150689 
L 114.957412 212.945255 
L 113.980371 212.845173 
L 111.938957 213.027545 
L 111.027417 212.511565 
L 110.770875 211.948881 
L 110.230501 210.049544 
L 109.952127 209.302264 
L 108.134504 207.247243 
L 107.796088 206.411001 
L 107.981671 204.547248 
L 108.57117 203.170562 
L 108.756753 201.738275 
L 107.719671 199.721064 
L 106.136757 198.649072 
L 105.989382 198.44446 
L 105.176091 198.657968 
L 104.859508 199.176172 
L 104.679384 199.976829 
L 104.313676 201.035476 
L 103.489469 202.42773 
L 102.272262 204.109111 
L 100.94043 205.43242 
L 99.79964 205.752683 
L 97.758226 204.794118 
L 96.786644 204.527232 
L 93.091357 204.398237 
L 91.972401 203.904498 
L 92.272609 202.870316 
L 92.867566 202.781354 
L 95.17098 203.87781 
L 94.788897 202.381025 
L 95.023605 201.077733 
L 95.351104 199.843386 
L 95.23648 198.544542 
L 94.690647 197.815054 
L 93.806398 197.221233 
L 92.845733 196.847593 
L 92.081567 196.771975 
L 90.340361 197.686059 
L 86.257533 202.799146 
L 85.711701 203.212819 
L 85.002118 203.488601 
L 84.183369 203.544203 
L 82.496747 203.110513 
L 80.973874 203.395191 
L 80.275208 203.32847 
L 79.265418 202.590086 
L 79.363667 201.749396 
L 79.81125 200.677404 
L 79.882208 199.238445 
L 79.461917 198.520077 
L 78.796001 198.395531 
L 77.23492 198.657968 
L 74.402049 199.721064 
L 71.640136 201.364635 
L 72.27876 202.078555 
L 72.169594 202.692392 
L 71.825719 203.364055 
L 71.787511 204.235882 
L 72.196885 205.00985 
L 73.381342 206.451034 
L 73.703383 207.296172 
L 73.441384 208.779612 
L 72.437052 209.324504 
L 69.975347 209.162149 
L 68.95464 208.806301 
L 67.044226 207.74543 
L 66.569948 207.728682 
L 65.510706 207.691431 
L 65.300677 207.42247 
L 64.875185 206.413767 
L 64.733355 205.363036 
L 64.759142 204.476919 
L 64.655993 203.807953 
L 64.118756 203.419183 
L 63.499859 204.238753 
L 62.339427 204.596002 
L 57.590254 204.455904 
L 56.494291 204.084646 
L 55.428413 203.419183 
L 52.523036 200.84489 
L 51.65916 200.484139 
L 49.45434 200.252978 
L 48.7194 200.718803 
L 47.150668 203.741407 
L 46.553261 204.631026 
L 45.740959 205.072333 
L 43.841289 205.28248 
L 43.162222 205.723787 
L 42.5949 205.825358 
L 42.027578 205.562675 
L 40.583485 204.007592 
L 37.398746 202.403475 
L 35.335756 200.382569 
L 34.506263 200.288003 
L 32.318634 201.121583 
L 31.128118 201.177622 
L 28.136783 200.484139 
L 27.186948 199.958774 
L 26.383242 198.739925 
L 25.678387 197.366969 
L 25.042299 196.368774 
L 23.305949 194.813692 
L 22.730032 193.889048 
L 22.519435 192.491575 
L 23.073863 191.707029 
L 28.506402 188.302659 
L 42.685156 186.744074 
L 43.858481 186.912191 
L 44.649294 187.374513 
L 45.500277 188.176571 
L 46.256706 189.234307 
L 46.746666 190.48818 
L 46.192238 190.715839 
L 45.293978 191.33577 
L 44.94155 191.665 
L 44.94155 192.19737 
L 49.995874 192.736746 
L 52.561717 193.794482 
L 54.74075 195.727828 
L 55.437009 197.072764 
L 56.477099 200.042832 
L 57.259316 201.121583 
L 58.522897 201.496344 
L 61.27355 201.107573 
L 62.309342 201.653954 
L 63.353731 201.307212 
L 65.072888 201.394773 
L 65.657402 201.233661 
L 66.680301 200.949964 
L 67.393751 198.985096 
L 66.963962 197.125301 
L 65.863701 195.734833 
L 64.385225 194.855721 
L 63.895265 194.764657 
L 62.004192 194.417916 
L 59.820861 193.430228 
L 59.008559 193.36018 
L 57.336678 193.563321 
L 56.545866 193.430228 
L 55.273689 192.659692 
L 51.096135 188.67742 
L 53.898363 187.321976 
L 55.299476 186.922698 
L 60.02716 187.160864 
L 61.406784 187.588161 
L 62.648876 188.656405 
L 62.670365 188.67742 
L 62.425385 187.055791 
L 61.754914 186.404337 
L 61.552913 186.39383 
L 59.468434 186.302766 
L 58.90541 186.082113 
L 58.376769 185.714357 
L 57.955575 185.199498 
L 57.689106 184.449977 
L 57.525786 183.462289 
L 57.512892 182.478104 
L 57.671914 181.746094 
L 58.359577 180.986065 
L 59.270731 180.597294 
L 61.067251 180.450192 
L 60.508524 179.861782 
L 59.176177 178.895109 
L 55.501477 177.753315 
L 54.74075 176.625529 
L 54.405514 173.76754 
L 53.51585 171.981296 
L 52.239375 170.804477 
L 50.743708 169.764253 
L 49.746597 170.520779 
L 48.405653 170.941072 
L 47.043221 170.93757 
L 46.011726 171.231774 
L 45.818321 171.582018 
L 45.444404 171.652067 
L 44.94155 171.634555 
L 44.45159 169.242389 
L 45.985939 168.191658 
L 49.299616 167.168946 
L 49.750894 166.549014 
L 50.782389 166.468458 
L 52.548824 166.874741 
L 54.018704 167.680302 
L 54.237896 167.725834 
L 54.629005 167.680302 
L 55.179135 167.431629 
L 55.823819 166.874741 
L 55.424115 166.086692 
L 54.078874 164.212888 
L 53.722149 163.918683 
L 53.416998 163.564937 
L 53.296657 163.029064 
L 53.412701 162.356596 
L 53.657681 161.883767 
L 53.902661 161.54403 
L 54.018704 161.27084 
L 53.846788 159.946918 
L 52.841081 156.567065 
L 52.252269 155.120558 
L 52.548824 154.469105 
L 52.909847 153.894705 
L 55.368243 154.44809 
L 57.409743 154.108353 
L 59.214858 152.928032 
L 66.757663 143.688599 
L 73.213101 134.175977 
L 78.559681 124.456711 
L 81.753017 115.084186 
L 82.212892 112.646489 
L 82.212892 112.012547 
L 83.248684 109.806011 
L 85.487887 93.09938 
L 86.424828 88.836913 
L 86.570957 87.537508 
L 87.078108 84.844133 
L 89.308716 79.117647 
L 89.820165 76.291179 
L 89.876038 74.694067 
L 90.086634 72.645141 
L 90.482041 70.872907 
L 91.092342 70.123385 
L 94.34155 70.620731 
L 94.865893 70.123385 
L 95.2613 70.764331 
L 94.470487 73.394662 
L 95.703983 74.967257 
L 97.870122 75.601198 
L 99.946005 75.461101 
L 101.145117 74.788633 
L 103.388618 72.869297 
L 104.484581 72.470019 
L 106.590549 72.196828 
L 108.662135 71.293199 
L 119.295126 61.917172 
L 120.073045 61.013543 
L 121.052965 60.20448 
L 123.489871 59.644089 
L 124.564344 58.954109 
L 125.647414 56.828129 
L 127.091506 50.951038 
L 128.16598 48.320706 
L 130.02267 46.198229 
L 131.16591 45.210541 
L 133.108559 44.387468 
L 133.998223 43.403283 
L 134.823419 42.229966 
L 135.777551 41.270298 
L 136.847727 40.89904 
L 139.374889 40.482249 
L 141.218686 38.923664 
L 149.676942 35.589343 
L 151.580909 34.258417 
L 152.792916 34.160348 
L 156.334381 32.38111 
L 161.431684 32.135939 
L 167.173671 31.957315 
L 171.815397 31.813715 
L 172.365527 31.995841 
L 173.293872 32.808407 
L 173.801024 32.990534 
L 174.252303 32.843431 
L 175.597544 31.813715 
L 183.458393 29.572154 
L 195.913691 27.68434 
L 201.135633 28.549442 
L 202.227298 29.039783 
L 203.129856 29.95392 
L 204.909185 37.053362 
L 205.18425 37.16544 
L 206.465022 38.062065 
L 206.563874 38.275713 
L 206.81745 38.464845 
L 207.079621 38.867625 
L 207.444942 39.266903 
L 209.112525 39.809781 
L 211.218494 40.983098 
L 212.155435 40.681888 
L 212.602416 41.179235 
L 213.238504 41.343849 
L 213.861699 41.17223 
L 214.312978 40.681888 
L 214.674001 40.681888 
L 214.674001 41.270298 
L 214.252807 41.627547 
L 214.04221 41.886727 
L 214.055104 42.257986 
L 214.312978 42.979488 
L 214.424723 44.369956 
L 216.027838 45.270083 
L 219.844368 46.236756 
L 220.437477 46.24376 
" clip-path="url(#p77099c26c6)" style="fill: #f5f5f5; stroke: #000000"/>
    <path d="M 17.364012 207.188417 
L 25.893282 204.371846 
L 26.675499 203.713387 
L 27.500695 203.615319 
L 30.844456 205.825358 
L 35.993334 207.327904 
L 37.686705 208.861972 
L 38.812753 209.352313 
L 40.944509 209.352313 
L 42.955923 209.940723 
L 44.232398 209.751591 
L 49.389871 207.485513 
L 50.099024 206.634421 
L 50.382685 204.918226 
L 50.885539 204.154695 
L 52.024481 204.210734 
L 53.257976 204.69407 
L 54.018704 205.184411 
L 54.366833 205.723787 
L 54.959943 207.065221 
L 55.428413 207.590587 
L 56.017225 207.79723 
L 57.293699 207.972352 
L 57.82234 208.41366 
L 58.161874 208.553757 
L 59.988479 208.707864 
L 60.895335 207.317396 
L 61.230571 206.998675 
L 62.262065 207.117757 
L 63.420591 207.810101 
L 63.392605 208.170223 
L 62.999606 210.174091 
L 62.704856 211.030349 
L 60.625234 213.932732 
L 58.005238 216.038906 
L 51.460705 219.410563 
L 49.053583 221.343261 
L 47.869126 221.73247 
L 41.619343 221.812536 
L 40.964344 221.516737 
L 40.178345 220.560396 
L 40.091012 219.661881 
L 40.178345 218.70554 
L 39.905429 217.577948 
L 38.906555 216.906285 
L 32.449355 214.711149 
L 31.101149 214.48652 
L 29.796609 214.564362 
L 27.695153 215.046981 
L 26.849113 215.098134 
L 26.07403 215.296074 
L 25.495448 215.905463 
L 25.397198 216.899613 
L 25.533656 217.989396 
L 25.380823 218.803398 
L 22.88091 219.203727 
L 21.194287 219.001339 
L 19.972095 218.423462 
L 19.594997 218.245162 
L 18.312291 216.806203 
L 17.5645 214.644428 
L 17.602708 212.638336 
L 17.821041 210.50325 
L 17.364012 207.188417 
" clip-path="url(#p77099c26c6)" style="fill: #f5f5f5; stroke: #000000"/>
    <path d="M 53.657681 180.450192 
L 55.8625 181.073626 
L 56.86391 181.795128 
L 56.971357 183.182094 
L 56.425525 184.050699 
L 55.55735 184.663625 
L 54.620409 185.031381 
L 50.563197 185.836942 
L 49.626255 185.787908 
L 47.662118 185.045391 
L 46.523176 184.225821 
L 46.016024 183.063011 
L 45.680788 181.956241 
L 44.846997 181.290777 
L 42.775412 180.450192 
L 42.422984 180.103451 
L 42.092046 179.641129 
L 41.649363 179.273373 
L 40.944509 179.220836 
L 39.642247 180.796933 
L 39.332798 181.091138 
L 36.964658 181.227733 
L 35.881589 180.902007 
L 35.176734 179.861782 
L 35.322863 177.077344 
L 37.244021 175.812964 
L 41.692342 175.16151 
L 41.911535 175.080954 
L 42.775412 175.16151 
L 43.471671 175.546778 
L 48.53459 175.690378 
L 49.703618 175.953061 
L 50.563197 176.625529 
L 52.53593 179.084241 
L 52.793804 179.536056 
L 53.12904 179.998378 
L 53.657681 180.450192 
" clip-path="url(#p77099c26c6)" style="fill: #f5f5f5; stroke: #000000"/>
    <path d="M 98.862935 57.77729 
L 98.862935 58.313163 
L 99.946005 58.313163 
L 99.576386 59.440948 
L 98.888722 60.782382 
L 97.418843 63.013435 
L 94.930362 65.03084 
L 93.744143 67.307425 
L 91.964814 67.822283 
L 90.108124 67.069259 
L 89.098119 64.883737 
L 89.424759 62.631669 
L 90.469147 60.085397 
L 91.780005 57.997944 
L 94.272784 55.885973 
L 95.519173 53.304676 
L 96.842925 51.175194 
L 98.501912 51.262755 
L 98.716807 51.767106 
L 98.837148 52.208413 
L 98.798467 52.618198 
L 98.501912 53.027984 
L 99.249746 54.222315 
L 99.79128 55.749378 
L 99.778387 57.104822 
L 98.862935 57.77729 
" clip-path="url(#p77099c26c6)" style="fill: #f5f5f5; stroke: #000000"/>
    <path d="M 98.140889 48.320706 
L 100.375794 45.494239 
L 103.822705 42.373566 
L 107.411447 40.32464 
L 110.071844 40.681888 
L 110.071844 41.270298 
L 108.662135 41.270298 
L 108.000259 41.641557 
L 106.461613 42.215956 
L 102.292655 46.198229 
L 101.140819 47.882902 
L 99.79128 49.045711 
L 98.140889 48.320706 
" clip-path="url(#p77099c26c6)" style="fill: #f5f5f5; stroke: #000000"/>
    <path d="M 126.906697 30.290154 
L 127.615849 29.764788 
L 135.446613 28.290262 
L 134.217415 29.950417 
L 132.721748 30.461773 
L 129.644456 30.584359 
L 129.747605 30.878564 
L 129.872244 31.509002 
L 129.975394 31.813715 
L 129.283433 32.170963 
L 127.087208 32.349588 
L 124.73626 33.361792 
L 122.85808 33.831119 
L 115.538766 36.976309 
L 114.034503 36.941284 
L 113.389819 35.638377 
L 113.982928 34.156846 
L 116.810943 33.18667 
L 117.747884 32.349588 
L 118.951294 32.38111 
L 126.04282 30.962622 
L 126.906697 30.290154 
" clip-path="url(#p77099c26c6)" style="fill: #f5f5f5; stroke: #000000"/>
    <path d="M 140.131318 27.057403 
L 152.797213 26.546047 
L 154.950459 27.645813 
L 149.724219 28.822632 
L 144.29168 28.822632 
L 142.933546 29.172876 
L 140.39349 30.311169 
L 139.052547 29.999452 
L 138.128499 28.714057 
L 138.437948 27.449676 
L 139.33191 26.717667 
L 140.131318 27.057403 
" clip-path="url(#p77099c26c6)" style="fill: #f5f5f5; stroke: #000000"/>
    <path d="M 168.531805 23.53395 
L 173.762343 23.078633 
L 175.236521 23.53395 
L 175.236521 24.12236 
L 174.514474 24.12236 
L 165.437321 26.98035 
L 164.388635 28.290262 
L 164.079187 27.747384 
L 164.061995 27.474194 
L 164.388635 27.057403 
L 163.834207 25.877082 
L 165.162256 24.738789 
L 167.139287 23.877189 
L 168.531805 23.53395 
" clip-path="url(#p77099c26c6)" style="fill: #f5f5f5; stroke: #000000"/>
    <path d="M 180.64757 19.422088 
L 181.38251 19.296 
L 184.287887 20.542868 
L 184.051502 20.528858 
L 183.858097 20.633931 
L 183.694777 20.854585 
L 183.56584 21.180312 
L 181.679065 20.563883 
L 180.746422 19.992985 
L 180.64757 19.422088 
" clip-path="url(#p77099c26c6)" style="fill: #f5f5f5; stroke: #000000"/>
   </g>
  </g>
 </g>
 <defs>
  <clipPath id="p77099c26c6">
   <rect x="7.2" y="7.2" width="223.608261" height="266.112"/>
  </clipPath>
 </defs>
</svg>
