<?xml version="1.0" encoding="utf-8" standalone="no"?>
<!DOCTYPE svg PUBLIC "-//W3C//DTD SVG 1.1//EN"
  "http://www.w3.org/Graphics/SVG/1.1/DTD/svg11.dtd">
<svg xmlns:xlink="http://www.w3.org/1999/xlink" width="312.438371pt" height="280.512pt" viewBox="0 0 312.438371 280.512" xmlns="http://www.w3.org/2000/svg" version="1.1">
 <metadata>
  <rdf:RDF xmlns:dc="http://purl.org/dc/elements/1.1/" xmlns:cc="http://creativecommons.org/ns#" xmlns:rdf="http://www.w3.org/1999/02/22-rdf-syntax-ns#">
   <cc:Work>
    <dc:type rdf:resource="http://purl.org/dc/dcmitype/StillImage"/>
    <dc:date>2024-03-04T13:11:12.267961</dc:date>
    <dc:format>image/svg+xml</dc:format>
    <dc:creator>
     <cc:Agent>
      <dc:title>Matplotlib v3.8.0, https://matplotlib.org/</dc:title>
     </cc:Agent>
    </dc:creator>
   </cc:Work>
  </rdf:RDF>
 </metadata>
 <defs>
  <style type="text/css">*{stroke-linejoin: round; stroke-linecap: butt}</style>
 </defs>
 <g id="figure_1">
  <g id="patch_1">
   <path d="M 0 280.512 
L 312.438371 280.512 
L 312.438371 0 
L 0 0 
z
" style="fill: #ffffff"/>
  </g>
  <g id="axes_1">
   <g id="PatchCollection_1">
    <path d="M 129.126757 240.629708 
L 129.089225 240.61159 
L 126.364227 239.462485 
L 125.304011 239.296047 
L 124.534966 238.871972 
L 124.103767 237.875625 
L 123.59033 235.85557 
L 122.594572 234.357629 
L 116.76672 227.750272 
L 116.286622 227.401436 
L 116.028792 227.280598 
L 115.193067 226.683245 
L 115.01303 226.446128 
L 113.114867 225.905775 
L 112.268028 225.103225 
L 110.434322 222.855173 
L 108.97847 222.093663 
L 107.113646 220.098688 
L 104.733162 218.728425 
L 103.944113 218.012514 
L 103.730736 217.5588 
L 103.212853 215.889861 
L 101.519176 215.12607 
L 99.485429 213.133375 
L 94.455517 210.905843 
L 93.602011 210.274291 
L 92.875196 209.414742 
L 92.261738 207.650044 
L 85.720408 202.609027 
L 84.669083 201.282084 
L 83.206564 197.962446 
L 82.615332 197.458572 
L 82.066332 197.162176 
L 80.626039 195.693874 
L 79.774755 194.46953 
L 78.845677 192.709392 
L 78.667863 191.874922 
L 78.401142 191.095172 
L 77.772126 190.44538 
L 76.427408 189.392033 
L 75.153815 187.780094 
L 73.091174 184.182299 
L 71.173006 178.915565 
L 70.632896 178.067416 
L 69.270397 176.88411 
L 58.088124 170.000877 
L 57.387981 169.134488 
L 54.309578 167.34927 
L 52.640349 165.541253 
L 48.868471 163.833554 
L 48.728443 162.54081 
L 49.355237 163.37528 
L 50.426566 164.091191 
L 51.675709 164.604185 
L 52.867062 164.836742 
L 51.509008 163.33424 
L 50.808866 162.766528 
L 50.053157 162.54081 
L 49.586395 162.176015 
L 48.355034 159.825364 
L 48.014965 159.825364 
L 48.572856 161.902418 
L 47.681563 161.118108 
L 46.254607 159.305531 
L 45.205505 158.297784 
L 44.527589 158.012787 
L 41.113562 155.352061 
L 40.660136 154.880107 
L 40.413419 154.298714 
L 40.117804 153.325166 
L 39.964439 153.628402 
L 39.539908 154.159636 
L 39.373208 154.435512 
L 33.363097 147.45196 
L 32.658509 145.985938 
L 32.89189 146.254975 
L 33.118603 146.410013 
L 33.776514 146.752009 
L 33.776514 146.403173 
L 33.516461 146.309694 
L 33.031918 145.985938 
L 33.031918 145.637103 
L 32.89189 145.06939 
L 31.976148 144.303319 
L 30.738119 143.633008 
L 29.64234 143.341171 
L 29.64234 143.690007 
L 31.091524 144.647595 
L 31.851679 145.356666 
L 31.878351 145.985938 
L 31.322682 145.906139 
L 30.515851 145.288267 
L 29.302271 144.107242 
L 22.894302 140.24725 
L 21.560697 139.063945 
L 20.756089 137.675443 
L 20.747199 136.033863 
L 21.774074 134.091328 
L 23.314387 132.732465 
L 24.890263 131.747517 
L 26.048276 130.500373 
L 26.31722 128.35264 
L 26.657289 128.35264 
L 26.503925 129.556464 
L 26.31722 129.88478 
L 26.930678 129.88478 
L 27.670829 129.982819 
L 28.2954 130.174337 
L 28.557675 130.438813 
L 28.815506 130.602971 
L 30.202454 131.795396 
L 30.549192 131.993754 
L 31.538281 133.325257 
L 31.77833 133.509935 
L 32.478473 133.934009 
L 32.658509 134.091328 
L 32.705185 134.456123 
L 32.591829 135.301992 
L 32.658509 135.657668 
L 34.445539 137.445165 
L 36.770456 137.949039 
L 42.391599 137.602483 
L 42.391599 137.185249 
L 39.546576 137.258208 
L 38.119619 137.10089 
L 37.506161 136.594736 
L 38.057385 135.698707 
L 40.697921 134.374044 
L 41.055772 134.130087 
L 53.58562 133.324744 
L 54.394351 133.411611 
L 55.650495 134.186175 
L 56.295504 134.229608 
L 56.591898 133.316058 
L 57.730896 132.755766 
L 59.12818 131.871172 
L 59.749195 131.197953 
L 61.027922 129.191327 
L 61.338429 128.946652 
L 62.142926 128.544169 
L 62.41956 128.25606 
L 62.566346 127.707351 
L 62.351813 127.504662 
L 62.044128 127.36857 
L 61.905811 127.015311 
L 62.377218 124.067627 
L 62.27842 123.927193 
L 61.866292 123.026672 
L 61.764672 122.700921 
L 61.857824 122.5518 
L 62.253015 120.973718 
L 62.642561 120.222319 
L 63.082917 119.672162 
L 65.708118 117.410727 
L 66.430754 116.91269 
L 67.308643 116.659328 
L 68.248634 116.738956 
L 71.393229 118.293874 
L 71.904155 118.456025 
L 72.420727 118.319934 
L 72.810069 118.053441 
L 73.205464 117.782807 
L 73.953505 117.089319 
L 74.376925 116.352398 
L 74.495482 115.490968 
L 74.17086 113.886826 
L 74.055126 113.546597 
L 73.659934 112.83284 
L 73.307085 112.514329 
L 72.934476 112.426014 
L 72.609854 112.255176 
L 72.400967 111.696332 
L 72.485651 110.895708 
L 73.180059 109.34803 
L 73.270388 108.475017 
L 71.506141 101.752966 
L 71.477913 100.798878 
L 71.816649 99.005076 
L 71.779952 98.108899 
L 71.571065 97.746954 
L 71.094081 97.384926 
L 70.871012 97.215618 
L 70.656479 96.926062 
L 70.552036 96.41789 
L 70.709633 93.431556 
L 70.760923 92.459655 
L 70.887949 91.6793 
L 70.981101 91.337624 
L 71.240798 91.108874 
L 71.870282 90.673092 
L 73.109489 90.049098 
L 74.252721 89.950649 
L 76.635161 90.248892 
L 81.089534 89.399044 
L 83.24615 89.271639 
L 85.055562 90.266265 
L 86.023781 90.539896 
L 86.816987 90.286534 
L 87.550914 89.898529 
L 88.349765 89.785602 
L 89.210718 90.673092 
L 89.53534 90.904737 
L 90.051911 91.071232 
L 90.432989 91.126248 
L 93.252962 90.945275 
L 94.255055 90.699152 
L 95.070843 90.301012 
L 95.705972 89.581464 
L 96.022125 88.73596 
L 96.45119 87.075354 
L 97.314966 85.708648 
L 100.894271 81.861892 
L 102.779899 78.919999 
L 103.352927 78.539232 
L 103.996524 78.290214 
L 104.657058 77.945642 
L 105.29501 77.278214 
L 105.687379 76.564458 
L 105.901912 76.024435 
L 106.187014 75.539428 
L 106.799561 74.98348 
L 107.550425 74.594027 
L 111.730986 73.972928 
L 111.716872 74.594027 
L 111.126907 75.798581 
L 111.282161 77.284006 
L 115.140923 80.084016 
L 116.323675 81.64762 
L 116.690638 81.989296 
L 117.44997 82.249897 
L 117.952428 82.142761 
L 118.44924 81.937176 
L 119.194458 81.890847 
L 120.394147 82.419288 
L 121.034922 83.390749 
L 121.56843 84.540288 
L 122.439263 85.598617 
L 123.648831 86.017025 
L 124.924735 85.976488 
L 126.036916 86.069146 
L 126.763786 86.887142 
L 126.866451 86.927977 
L 126.902103 86.942158 
L 127.020573 86.833791 
L 127.397504 86.489002 
L 127.849151 85.584139 
L 127.964886 84.716917 
L 127.654378 84.066863 
L 126.835768 83.812054 
L 126.629703 83.324151 
L 126.856938 82.244106 
L 127.397504 80.558888 
L 127.462428 79.331169 
L 127.727771 79.024239 
L 128.293742 79.15454 
L 129.263372 79.221138 
L 129.959191 78.893939 
L 131.06855 77.93406 
L 131.534312 78.073047 
L 131.871636 78.073047 
L 131.846231 77.80955 
L 131.930915 77.7444 
L 132.080523 77.747296 
L 132.247068 77.69228 
L 132.069232 77.103033 
L 133.984499 76.518129 
L 134.516596 75.96942 
L 135.033167 75.189065 
L 136.230033 74.793821 
L 136.697139 74.709846 
L 137.599089 74.547698 
L 138.61953 74.211812 
L 139.129045 73.444488 
L 139.250425 72.551207 
L 139.565167 71.808495 
L 141.529833 71.26992 
L 142.461355 70.729897 
L 143.875576 69.620896 
L 144.507883 68.834751 
L 145.11055 67.753258 
L 145.560786 66.68769 
L 145.957388 65.254386 
L 146.482429 64.375583 
L 147.110501 63.55469 
L 147.636952 63.049415 
L 147.874067 63.005981 
L 148.459797 63.098639 
L 148.688444 63.049415 
L 148.842286 62.866994 
L 148.99754 62.457272 
L 149.384263 61.991086 
L 149.605852 61.613215 
L 149.905069 61.300494 
L 150.417406 61.170194 
L 151.715892 60.525931 
L 152.283275 60.404317 
L 154.350973 60.404317 
L 155.703092 60.165433 
L 157.069325 59.713725 
L 158.192798 59.034716 
L 158.826516 58.109583 
L 158.771471 56.832639 
L 158.070007 55.714952 
L 157.09473 54.827462 
L 156.21543 54.249797 
L 157.708689 53.101706 
L 157.77079 52.746999 
L 157.643764 51.89136 
L 157.708689 51.535206 
L 158.970479 50.197455 
L 159.165251 49.834062 
L 159.275341 47.002201 
L 159.512455 45.447283 
L 159.945755 44.649555 
L 160.94079 44.902917 
L 161.813034 45.861349 
L 162.740323 46.551941 
L 163.894846 46.007575 
L 165.839753 44.063204 
L 166.166408 43.301985 
L 166.244824 43.11925 
L 164.82778 43.120698 
L 165.152402 42.689259 
L 166.354913 41.554198 
L 164.808021 40.456779 
L 164.513039 39.910965 
L 165.371169 39.677873 
L 165.653448 39.546124 
L 165.831284 39.211687 
L 166.117798 37.138463 
L 166.603319 36.262555 
L 167.349949 35.561829 
L 167.461493 35.486835 
L 168.312522 34.91467 
L 169.290621 34.219735 
L 171.794441 31.806283 
L 172.690679 31.286529 
L 175.956654 30.694386 
L 177.394869 30.632132 
L 178.813324 31.05778 
L 180.013012 31.949613 
L 180.816098 33.275781 
L 180.64673 33.43359 
L 180.219076 33.982299 
L 180.189437 34.09233 
L 181.276213 34.228422 
L 181.427233 34.904536 
L 181.372189 35.650143 
L 182.488604 36.404438 
L 183.058809 37.341153 
L 183.883066 39.259464 
L 184.892215 38.655739 
L 185.938061 38.768666 
L 188.053747 39.677873 
L 189.284486 39.941369 
L 193.273097 40.060087 
L 193.065621 40.456779 
L 192.901899 41.554198 
L 193.73039 41.299388 
L 194.307652 41.616452 
L 194.879268 42.104355 
L 195.716227 42.353373 
L 196.321717 42.176744 
L 197.735938 41.389151 
L 199.772585 40.675394 
L 200.778912 39.438989 
L 201.536833 38.024506 
L 202.258057 36.966177 
L 202.790154 37.5062 
L 203.181111 38.962668 
L 203.598885 39.259464 
L 204.430199 39.336196 
L 205.756913 39.634439 
L 206.362402 39.677873 
L 207.483053 39.088625 
L 207.762509 37.855115 
L 207.48023 35.225943 
L 207.782269 34.561412 
L 208.46962 34.512187 
L 209.224718 34.774235 
L 209.717296 35.05221 
L 210.137892 35.406916 
L 211.430733 36.792443 
L 212.092679 37.064626 
L 212.895764 37.002372 
L 214.228124 36.615814 
L 214.551334 36.427602 
L 214.771512 36.158315 
L 215.050969 35.925222 
L 215.549192 35.818086 
L 216.007897 35.896266 
L 216.264771 36.029462 
L 216.496241 36.055522 
L 216.870261 35.818086 
L 216.870261 35.398229 
L 216.391797 34.934939 
L 216.013542 34.420977 
L 215.379825 33.104943 
L 215.978257 32.606906 
L 216.377683 32.57795 
L 217.628182 33.369887 
L 217.769322 33.62904 
L 217.975386 33.827386 
L 218.549825 33.904119 
L 219.471468 33.873715 
L 219.752336 34.02718 
L 219.856779 34.460067 
L 220.795359 34.572994 
L 226.195368 34.286333 
L 225.9145 33.825938 
L 225.925791 33.30908 
L 226.195368 32.026346 
L 226.854491 32.39553 
L 227.733792 33.333693 
L 228.432434 33.520456 
L 228.364687 33.28302 
L 228.09511 32.757475 
L 228.491713 32.919627 
L 228.706245 32.980434 
L 228.896784 33.119421 
L 229.212937 33.520456 
L 229.877706 32.922522 
L 230.850159 32.3825 
L 231.934112 32.035032 
L 232.941851 32.026346 
L 232.51702 31.739685 
L 232.247443 31.466054 
L 231.857897 30.810209 
L 234.903694 30.624893 
L 236.038458 30.183319 
L 235.926958 29.313202 
L 236.617131 29.269769 
L 237.180279 29.347949 
L 237.58535 29.601311 
L 237.791414 30.079079 
L 238.196486 30.079079 
L 237.678503 28.470593 
L 237.890212 27.848047 
L 238.909242 27.364488 
L 239.991784 27.215367 
L 241.204175 27.279069 
L 242.20909 27.575864 
L 242.67344 28.165111 
L 243.079923 28.165111 
L 243.315626 27.480311 
L 243.431361 26.726016 
L 243.699527 26.119396 
L 245.037532 25.619911 
L 246.39812 24.538418 
L 247.184268 24.305325 
L 247.077002 24.108427 
L 246.930217 23.711735 
L 246.808837 23.540896 
L 247.620391 23.775437 
L 247.928075 23.924558 
L 247.76153 23.17316 
L 247.8321 22.521658 
L 248.136962 22.281326 
L 248.673293 22.776467 
L 248.705756 21.92662 
L 248.794674 21.582047 
L 249.082599 21.209968 
L 248.714224 20.667049 
L 248.899117 20.384732 
L 249.449562 20.322477 
L 250.167964 20.444091 
L 250.457301 20.720617 
L 251.122069 21.73696 
L 251.624527 22.012039 
L 252.906076 21.861469 
L 254.012612 21.202729 
L 254.863685 20.267462 
L 255.387314 19.296 
L 256.069019 19.840366 
L 256.770484 20.115444 
L 257.340689 20.467255 
L 257.62438 21.209968 
L 258.450048 20.669945 
L 259.388628 20.60769 
L 261.796473 20.861052 
L 261.145818 21.178116 
L 261.103476 21.473464 
L 261.504313 21.752886 
L 262.169082 22.012039 
L 262.394905 21.972949 
L 264.814042 22.012039 
L 266.256491 21.353298 
L 267.017234 21.209968 
L 268.86052 21.317103 
L 269.58209 21.19875 
L 269.182152 21.775377 
L 268.181948 22.238211 
L 267.686292 22.764885 
L 266.883907 21.816417 
L 266.225995 22.473049 
L 265.701444 23.660914 
L 265.296917 24.297026 
L 264.598998 24.634461 
L 263.932195 25.439291 
L 263.438762 26.390039 
L 263.245389 27.16295 
L 263.100915 27.425146 
L 262.405218 28.104578 
L 262.125161 28.503573 
L 261.985133 29.048486 
L 261.885112 30.247751 
L 261.751752 30.799504 
L 261.304995 31.499455 
L 260.647083 31.998769 
L 258.766701 32.74432 
L 258.900061 32.409164 
L 259.051203 32.142407 
L 259.513519 31.597494 
L 259.513519 32.017009 
L 259.698001 31.704653 
L 259.80469 31.447016 
L 259.851366 31.171139 
L 259.855811 30.799504 
L 259.43128 31.059421 
L 259.255689 31.10274 
L 258.766701 30.799504 
L 258.766701 30.452948 
L 259.420167 30.145152 
L 260.042516 30.065353 
L 260.589293 30.265991 
L 261.007156 30.799504 
L 260.964925 29.741597 
L 260.378139 28.291536 
L 260.22922 27.16295 
L 259.891374 26.041204 
L 259.108993 25.856526 
L 258.224368 26.184842 
L 257.579793 26.588397 
L 256.504018 27.587024 
L 254.085749 30.685505 
L 253.512299 32.017009 
L 254.045741 31.458416 
L 254.228 31.214459 
L 254.977041 31.811811 
L 255.570495 34.112302 
L 255.937237 34.625296 
L 256.657383 35.056211 
L 257.44421 35.810881 
L 258.271044 36.079918 
L 259.108993 35.042531 
L 258.711134 34.698255 
L 257.704262 34.082663 
L 257.244169 33.893425 
L 257.85985 33.551429 
L 258.491089 33.736107 
L 259.064539 34.28786 
L 259.513519 35.042531 
L 259.477956 33.763467 
L 259.873592 33.366752 
L 260.362581 33.852386 
L 262.498571 43.667663 
L 262.616372 43.982299 
L 263.127587 45.028805 
L 263.581013 47.703212 
L 266.23044 55.384435 
L 266.514943 57.584608 
L 266.252667 59.502064 
L 264.767921 63.038299 
L 260.22922 70.343328 
L 258.271044 72.719058 
L 257.990987 73.647006 
L 257.606465 74.330998 
L 255.005936 76.150415 
L 253.907935 77.703075 
L 253.150003 79.488293 
L 251.836403 84.688908 
L 249.733753 91.759099 
L 248.440157 98.149859 
L 248.520173 100.897224 
L 248.29346 102.235567 
L 248.282347 103.307154 
L 247.13767 106.095559 
L 246.164139 109.795952 
L 245.564017 117.009782 
L 245.668482 118.359525 
L 246.055227 119.134715 
L 245.648478 119.485831 
L 245.955207 120.172102 
L 247.780023 131.268723 
L 248.975821 138.544112 
L 247.13767 153.325166 
L 247.13767 156.594645 
L 247.319929 157.132718 
L 248.111201 158.742378 
L 248.640197 160.525316 
L 250.164952 162.673049 
L 250.52947 164.070671 
L 250.389442 165.78293 
L 249.815992 166.697198 
L 248.7091 167.064274 
L 246.950965 167.132673 
L 245.612915 167.408549 
L 244.248193 167.903303 
L 242.972379 168.108501 
L 241.883268 167.515708 
L 242.294463 167.114433 
L 243.421359 166.311883 
L 243.748092 165.947088 
L 243.794768 165.290456 
L 243.588059 164.410387 
L 243.239099 163.639757 
L 242.041078 162.56361 
L 242.136653 158.897416 
L 241.883268 157.497514 
L 242.083309 157.388075 
L 242.147766 157.381235 
L 242.181107 157.351596 
L 242.29224 157.148678 
L 242.630087 157.148678 
L 244.563813 157.77111 
L 245.910754 156.020092 
L 246.368625 153.498444 
L 245.648478 151.793025 
L 245.648478 151.375791 
L 246.119685 150.844557 
L 246.30639 150.089887 
L 246.395297 146.959486 
L 246.493094 146.840927 
L 246.715362 146.65397 
L 246.968747 146.371253 
L 247.13767 145.985938 
L 246.955411 144.483437 
L 245.897418 143.591968 
L 244.434898 143.234013 
L 243.039059 143.343451 
L 241.90994 144.004643 
L 241.425397 145.03975 
L 241.456515 146.179736 
L 241.883268 147.169243 
L 243.083512 147.816755 
L 243.207982 147.930754 
L 243.201314 148.119991 
L 243.294666 149.07074 
L 243.374683 149.462895 
L 243.608063 149.84593 
L 243.861448 150.005528 
L 244.07038 150.224405 
L 244.154841 150.801238 
L 244.128169 151.747426 
L 244.008145 152.135021 
L 243.748092 152.559096 
L 243.963691 152.823572 
L 244.52825 153.708201 
L 242.814569 154.711389 
L 239.907311 157.164638 
L 238.153621 157.914748 
L 235.793141 158.167825 
L 234.799606 158.496141 
L 234.392856 159.234852 
L 234.392856 162.153215 
L 234.459537 162.217055 
L 234.677359 162.093936 
L 235.13523 162.121296 
L 235.793141 162.262654 
L 236.233231 162.248974 
L 236.599972 162.362973 
L 237.037839 162.887366 
L 237.411248 165.390775 
L 237.193426 166.58776 
L 236.811126 167.720905 
L 236.628867 168.790212 
L 237.037839 169.809359 
L 238.051378 170.308673 
L 239.762837 169.939318 
L 240.054007 170.801147 
L 239.98955 171.36202 
L 239.709493 172.458686 
L 239.647258 173.097078 
L 239.760614 173.448194 
L 240.013999 172.93748 
L 240.880842 170.062436 
L 241.214243 169.339685 
L 241.696564 169.043289 
L 242.774561 169.200607 
L 243.003496 169.626961 
L 240.451866 174.779697 
L 239.240509 181.428093 
L 239.64059 188.600883 
L 240.054007 189.804708 
L 239.680598 190.032705 
L 239.273849 190.187743 
L 239.496116 189.036358 
L 239.109371 188.07877 
L 237.746872 186.366511 
L 237.173422 184.946089 
L 237.637961 184.344177 
L 238.433678 183.794704 
L 238.867099 182.50424 
L 238.587042 181.553492 
L 237.869119 180.459106 
L 236.906701 179.515197 
L 235.882048 179.025004 
L 234.223933 179.202841 
L 234.30395 180.035031 
L 235.175238 180.552584 
L 235.882048 179.791074 
L 236.29102 179.791074 
L 237.211207 180.760062 
L 237.589062 181.346014 
L 237.746872 182.087005 
L 237.546831 183.033193 
L 236.719996 184.250698 
L 236.628867 185.149007 
L 236.319915 186.218313 
L 235.339716 186.252513 
L 233.085924 185.563961 
L 232.792531 185.750919 
L 233.459333 186.161314 
L 234.799606 186.710787 
L 235.121894 187.148542 
L 235.344161 187.748174 
L 235.468631 188.441285 
L 235.508639 189.179996 
L 235.397505 189.68615 
L 234.908517 190.718977 
L 234.799606 191.129372 
L 234.890735 191.437168 
L 235.07744 191.758644 
L 235.20191 192.107479 
L 235.13523 192.483675 
L 234.850727 192.82795 
L 234.543998 192.992108 
L 234.259496 193.092427 
L 234.052787 193.249745 
L 233.041471 194.569848 
L 232.730296 194.781886 
L 232.259089 194.946044 
L 231.725648 195.349599 
L 231.267777 195.860312 
L 231.036619 196.343666 
L 231.75232 196.83158 
L 232.628053 197.63413 
L 233.370426 198.500519 
L 233.839411 199.576666 
L 234.237269 199.870782 
L 234.770711 200.064579 
L 235.321934 200.132979 
L 236.126542 200.04178 
L 236.186554 199.788703 
L 235.959842 199.421627 
L 235.882048 198.988433 
L 236.253235 197.900887 
L 236.553296 197.328614 
L 237.037839 197.109737 
L 237.949135 197.077817 
L 238.473686 197.538371 
L 241.003089 207.761763 
L 241.13645 209.733938 
L 241.107555 210.456689 
L 241.038652 210.896723 
L 240.829721 211.238719 
L 240.394077 211.649114 
L 240.287388 211.487236 
L 239.513898 211.646834 
L 238.758188 211.897631 
L 238.695954 212.032149 
L 238.264755 212.216827 
L 237.7202 213.028497 
L 237.224543 213.210894 
L 236.562186 213.224574 
L 236.028745 213.306653 
L 235.573096 213.52553 
L 235.13523 213.945045 
L 234.579561 215.682383 
L 234.050565 218.30435 
L 233.312637 220.283366 
L 232.152401 220.100968 
L 231.812332 220.100968 
L 230.078646 222.33306 
L 229.578544 223.194889 
L 229.291819 224.154757 
L 229.298487 229.827326 
L 230.972161 237.175674 
L 232.152401 240.096317 
L 233.792734 242.649885 
L 234.321731 244.049787 
L 235.626441 246.156481 
L 236.086534 246.601075 
L 237.080069 247.223507 
L 237.473483 248.299654 
L 237.906904 249.494359 
L 238.867099 249.311961 
L 238.660391 248.714609 
L 238.661636 248.714426 
L 239.084723 248.826903 
L 239.509597 249.805646 
L 239.628493 249.859719 
L 239.734989 250.187824 
L 239.572113 250.932395 
L 240.11712 251.22897 
L 240.147038 252.459816 
L 240.648084 254.453411 
L 240.490008 255.97503 
L 238.571918 256.975447 
L 234.98441 257.842748 
L 234.703276 257.910714 
L 231.077394 259.30348 
L 229.959567 260.626753 
L 229.756325 260.751262 
L 228.263066 260.450123 
L 227.897514 260.574633 
L 227.136771 261.110312 
L 226.601851 261.216 
L 226.093747 261.136372 
L 225.725372 260.959743 
L 222.431169 258.329123 
L 222.181352 257.373587 
L 221.578685 256.959521 
L 220.843347 257.084031 
L 220.195515 257.739876 
L 219.262581 257.514022 
L 217.907639 258.395721 
L 217.245693 257.739876 
L 216.870261 257.739876 
L 216.242189 258.221987 
L 215.614117 257.980208 
L 214.599322 256.975447 
L 213.943021 257.086926 
L 213.46721 257.016745 
L 213.079246 256.959521 
L 212.228173 256.942148 
L 211.617037 257.392408 
L 211.329112 257.011642 
L 210.126601 256.034389 
L 210.002398 255.840386 
L 209.779397 255.601502 
L 209.677777 255.285886 
L 209.920537 254.852999 
L 210.146361 254.696638 
L 210.904281 254.295603 
L 210.70104 252.952061 
L 209.756815 252.148542 
L 208.715203 251.609968 
L 208.226859 251.061258 
L 207.646775 250.663118 
L 205.109081 249.677179 
L 204.531819 249.131365 
L 204.379388 248.737568 
L 203.652518 247.813884 
L 203.412581 247.408505 
L 203.299669 246.715017 
L 203.31096 246.148934 
L 203.183934 245.72763 
L 202.665951 245.462686 
L 202.201601 245.743556 
L 199.26307 247.680688 
L 198.745087 247.900751 
L 198.146654 247.839944 
L 197.563747 247.608299 
L 197.073992 247.327429 
L 196.606819 246.929289 
L 195.364789 245.365685 
L 195.136142 245.194846 
L 194.8708 245.050068 
L 194.58852 244.935693 
L 194.293538 244.851722 
L 191.569539 243.637033 
L 190.309161 243.230206 
L 189.132055 243.296804 
L 188.179361 243.157817 
L 186.100372 241.646333 
L 185.132153 241.216342 
L 183.421538 241.62896 
L 179.379294 244.327625 
L 173.742171 248.093306 
L 172.462033 248.559491 
L 171.205888 248.417609 
L 162.387473 245.125353 
L 154.541178 242.186493 
L 152.58108 241.45233 
L 145.203702 238.692858 
L 139.675256 236.621082 
L 137.909597 235.61777 
L 136.36835 234.213421 
L 134.804521 233.39832 
L 132.982406 234.167092 
L 131.443982 236.262032 
L 130.446124 238.458317 
L 129.126757 240.629708 
" clip-path="url(#p9487d95455)" style="fill: #f5f5f5; stroke: #000000"/>
    <path d="M 240.363045 248.785921 
L 240.316991 249.015341 
L 240.039482 249.280322 
L 239.805221 249.309361 
L 239.805221 249.116977 
L 239.945778 249.011711 
L 239.945778 248.902816 
L 239.653852 248.750365 
L 239.466444 248.779403 
L 239.187818 248.63732 
L 239.453885 248.59833 
L 240.363045 248.785921 
" clip-path="url(#p9487d95455)" style="fill: #f5f5f5; stroke: #000000"/>
    <path d="M 237.037839 195.928711 
L 236.624421 194.40569 
L 236.499952 192.390196 
L 236.886697 190.623218 
L 238.01137 189.841188 
L 238.095832 189.854868 
L 238.160289 189.900467 
L 238.180293 190.007626 
L 238.153621 190.187743 
L 237.793548 190.762296 
L 237.415693 191.676565 
L 237.131191 192.695712 
L 237.037839 193.598581 
L 237.357904 195.645995 
L 237.386798 196.396105 
L 237.037839 195.928711 
" clip-path="url(#p9487d95455)" style="fill: #f5f5f5; stroke: #000000"/>
    <path d="M 273.76086 181.067858 
L 273.649727 179.816154 
L 274.169832 178.833486 
L 274.929987 178.436771 
L 275.552336 178.942925 
L 275.338959 179.31228 
L 273.76086 181.067858 
" clip-path="url(#p9487d95455)" style="fill: #f5f5f5; stroke: #000000"/>
    <path d="M 289.417377 53.859135 
L 290.306446 53.41682 
L 291.031038 53.42138 
L 291.511136 53.879654 
L 291.691172 54.796203 
L 291.317763 56.355703 
L 290.31756 56.809418 
L 287.41697 56.558621 
L 287.181367 56.535821 
L 287.394743 56.535821 
L 287.430306 56.538101 
L 287.543662 56.508461 
L 287.60812 56.371663 
L 287.585893 56.150506 
L 288.463849 55.660312 
L 288.8217 55.03104 
L 289.017295 54.388088 
L 289.417377 53.859135 
" clip-path="url(#p9487d95455)" style="fill: #f5f5f5; stroke: #000000"/>
   </g>
  </g>
 </g>
 <defs>
  <clipPath id="p9487d95455">
   <rect x="7.2" y="7.2" width="298.038371" height="266.112"/>
  </clipPath>
 </defs>
</svg>
