<?xml version="1.0" encoding="utf-8" standalone="no"?>
<!DOCTYPE svg PUBLIC "-//W3C//DTD SVG 1.1//EN"
  "http://www.w3.org/Graphics/SVG/1.1/DTD/svg11.dtd">
<svg xmlns:xlink="http://www.w3.org/1999/xlink" width="342.565895pt" height="280.512pt" viewBox="0 0 342.565895 280.512" xmlns="http://www.w3.org/2000/svg" version="1.1">
 <metadata>
  <rdf:RDF xmlns:dc="http://purl.org/dc/elements/1.1/" xmlns:cc="http://creativecommons.org/ns#" xmlns:rdf="http://www.w3.org/1999/02/22-rdf-syntax-ns#">
   <cc:Work>
    <dc:type rdf:resource="http://purl.org/dc/dcmitype/StillImage"/>
    <dc:date>2024-03-04T13:11:12.318733</dc:date>
    <dc:format>image/svg+xml</dc:format>
    <dc:creator>
     <cc:Agent>
      <dc:title>Matplotlib v3.8.0, https://matplotlib.org/</dc:title>
     </cc:Agent>
    </dc:creator>
   </cc:Work>
  </rdf:RDF>
 </metadata>
 <defs>
  <style type="text/css">*{stroke-linejoin: round; stroke-linecap: butt}</style>
 </defs>
 <g id="figure_1">
  <g id="patch_1">
   <path d="M 0 280.512 
L 342.565895 280.512 
L 342.565895 0 
L 0 0 
z
" style="fill: #ffffff"/>
  </g>
  <g id="axes_1">
   <g id="PatchCollection_1">
    <path d="M 45.123213 74.299276 
L 46.400357 73.538106 
L 46.701013 73.233639 
L 46.878322 72.68976 
L 46.754976 72.191422 
L 46.449181 71.729516 
L 45.865858 71.107569 
L 45.7605 71.045114 
L 45.6757 70.960539 
L 45.534366 70.693805 
L 45.454705 70.446587 
L 45.310801 69.01663 
L 45.423869 68.604167 
L 45.698827 68.24375 
L 46.122829 67.807867 
L 46.54426 66.971231 
L 46.428624 66.109873 
L 45.809324 64.266152 
L 45.822173 63.17319 
L 46.492866 59.865681 
L 46.246175 53.596768 
L 46.348963 53.331334 
L 51.786461 49.274366 
L 53.395098 47.745522 
L 57.365294 41.555327 
L 58.149768 36.157733 
L 58.233855 35.579171 
L 58.285249 29.55162 
L 59.893885 29.500225 
L 60.64167 29.359051 
L 61.33549 29.018801 
L 65.246584 25.315094 
L 66.410661 24.496023 
L 67.757187 23.969711 
L 70.718731 23.252578 
L 75.666743 22.054426 
L 76.463352 21.969852 
L 77.033827 22.223575 
L 77.594023 22.753141 
L 78.159358 23.00231 
L 79.603533 23.088185 
L 82.119276 22.63864 
L 85.680889 22.794777 
L 86.536601 22.633435 
L 86.821838 22.513079 
L 87.585041 21.973755 
L 87.929382 21.571051 
L 88.345674 20.645287 
L 88.630912 20.271208 
L 89.322163 19.926404 
L 92.994273 19.296 
L 93.803731 19.469052 
L 100.840871 22.230406 
L 107.878012 24.991759 
L 108.104147 25.11797 
L 108.260899 25.25394 
L 108.42536 25.325503 
L 108.6849 25.256542 
L 110.121366 24.45829 
L 110.599331 24.359403 
L 111.951318 24.649854 
L 112.398126 24.745843 
L 114.058156 25.691775 
L 117.547817 28.970659 
L 121.606669 33.373732 
L 123.628959 37.056819 
L 124.245757 38.180159 
L 125.718199 39.861888 
L 126.620166 40.692669 
L 127.427054 41.287942 
L 128.185117 41.576146 
L 129.015132 41.665925 
L 130.865321 41.656817 
L 131.312798 41.582933 
L 131.456353 41.559231 
L 131.988282 41.299652 
L 133.165208 40.271098 
L 134.676195 38.504794 
L 135.231252 38.399402 
L 137.824086 38.871066 
L 138.715774 38.876271 
L 139.494395 38.627102 
L 148.534622 33.223449 
L 149.382625 32.850021 
L 150.235767 32.766748 
L 156.539257 33.654779 
L 157.225369 33.915658 
L 157.510606 34.132299 
L 158.09393 34.684634 
L 158.780041 35.106205 
L 159.620335 35.760681 
L 159.982664 35.931131 
L 160.72017 36.128254 
L 160.746294 36.140516 
L 161.072219 36.293499 
L 161.401142 36.579101 
L 162.020441 37.315548 
L 164.502777 39.561974 
L 164.685226 39.676475 
L 164.934488 39.772109 
L 165.029567 39.781217 
L 165.132355 39.710955 
L 165.415023 39.569781 
L 165.700261 39.478701 
L 166.31699 39.404536 
L 166.612506 39.407138 
L 167.2832 39.548963 
L 167.876802 39.833263 
L 168.963788 40.643876 
L 169.449462 41.173441 
L 170.16384 42.347074 
L 170.590412 42.861676 
L 171.502657 43.384736 
L 178.052839 45.307828 
L 178.925039 45.409011 
L 186.173111 46.249856 
L 187.095636 46.248555 
L 188.421604 45.877078 
L 188.871303 45.847152 
L 194.15205 46.461292 
L 194.678839 46.422258 
L 194.85101 46.350695 
L 195.120829 46.17439 
L 195.406066 45.929124 
L 195.578202 45.727392 
L 199.846519 40.725197 
L 200.679104 39.938655 
L 201.157069 39.633537 
L 201.421749 39.541156 
L 201.547665 39.559372 
L 201.647883 39.541156 
L 201.84575 39.337527 
L 201.961387 39.085105 
L 202.056466 38.469663 
L 202.161824 38.207483 
L 202.601244 37.785261 
L 207.316655 35.163456 
L 208.354817 34.732777 
L 220.44721 32.159401 
L 221.121118 32.015987 
L 223.516084 31.824719 
L 228.033628 32.34843 
L 240.142085 32.284674 
L 247.658476 34.172634 
L 250.405492 35.28186 
L 253.864317 37.379304 
L 255.010406 38.279046 
L 255.49865 38.520408 
L 256.960813 38.871066 
L 257.785689 38.802106 
L 258.137738 38.742253 
L 258.659389 38.38639 
L 259.073112 38.302466 
L 260.327128 38.740952 
L 260.609796 38.895788 
L 260.704875 39.064286 
L 260.715154 39.203509 
L 260.758839 39.298492 
L 260.956706 39.333623 
L 261.049216 39.273771 
L 261.159713 39.143656 
L 261.313896 39.02265 
L 261.550309 38.990121 
L 261.797 39.128042 
L 261.982019 39.349237 
L 262.164468 39.476099 
L 262.400881 39.333623 
L 262.806895 39.451377 
L 263.681225 39.482009 
L 264.366707 39.506025 
L 264.937182 39.597105 
L 265.412577 39.763001 
L 265.818591 39.844973 
L 266.165501 39.677776 
L 266.278568 39.379814 
L 266.491854 38.037033 
L 266.604921 37.945302 
L 267.167687 37.843813 
L 267.355275 37.786563 
L 267.555712 37.563416 
L 267.689337 37.29473 
L 267.846089 36.738491 
L 267.450354 36.592112 
L 267.619955 36.218033 
L 267.943738 35.756777 
L 268.01569 35.348218 
L 268.922796 34.498571 
L 269.051281 34.410744 
L 269.136082 34.555821 
L 269.313391 34.498571 
L 269.485562 34.374312 
L 269.650023 34.20256 
L 269.698847 34.053579 
L 269.729684 33.645671 
L 269.994364 33.846697 
L 270.207649 34.067892 
L 270.454341 34.244197 
L 270.832088 34.317061 
L 271.050513 34.185646 
L 271.222683 33.605335 
L 271.51306 33.472618 
L 272.075826 33.345757 
L 272.484409 33.030229 
L 273.124266 32.253446 
L 273.291297 31.836429 
L 273.324703 31.824719 
L 273.394085 31.72388 
L 273.540558 31.833827 
L 273.681892 32.006879 
L 273.735856 32.097959 
L 274.085336 32.069334 
L 274.075057 31.971748 
L 273.918305 31.785034 
L 273.820656 31.488373 
L 273.890039 31.397944 
L 274.221531 31.280841 
L 274.329458 31.222289 
L 274.393701 31.205374 
L 274.609556 31.236602 
L 274.684078 31.222289 
L 274.702066 31.153329 
L 274.66609 30.9497 
L 274.684078 30.878137 
L 275.375329 30.113714 
L 275.701682 29.84698 
L 275.544929 29.644652 
L 275.388177 29.492418 
L 275.213437 29.390278 
L 275.007861 29.332377 
L 275.007861 29.145012 
L 275.393317 29.251056 
L 275.71196 29.403289 
L 275.938095 29.382471 
L 276.040883 28.97196 
L 276.734704 29.125495 
L 277.420815 28.995381 
L 279.65646 27.884854 
L 280.293747 27.65325 
L 280.979858 27.59665 
L 280.979858 27.753438 
L 280.843664 27.998054 
L 281.123762 28.100844 
L 281.591449 28.076773 
L 282.000032 27.940803 
L 282.007741 28.029281 
L 282.000032 28.30057 
L 282.185051 28.120361 
L 282.37007 27.699441 
L 282.508834 27.59665 
L 282.750386 27.643492 
L 282.80435 27.844518 
L 282.750386 28.098242 
L 282.663016 28.30057 
L 283.32857 28.003258 
L 283.999263 27.879649 
L 284.600575 27.661708 
L 285.055413 27.081397 
L 284.703363 27.035857 
L 284.651969 26.91355 
L 284.883242 26.565494 
L 284.99117 26.523206 
L 285.16591 26.535567 
L 285.325232 26.498485 
L 285.394614 26.29941 
L 285.358638 26.156934 
L 285.232723 25.978677 
L 285.240432 25.877188 
L 285.374056 25.624116 
L 285.546227 25.395765 
L 286.538133 24.473904 
L 286.91588 24.210422 
L 286.903032 23.777792 
L 287.131736 23.598234 
L 287.852902 23.477143 
L 287.87952 23.472673 
L 294.028827 23.732252 
L 299.717515 31.614584 
L 305.406202 39.496917 
L 306.804123 46.199437 
L 308.202043 52.901957 
L 308.235449 54.847168 
L 308.273148 54.968158 
L 308.40248 55.383239 
L 308.394771 55.865964 
L 308.245728 56.636241 
L 308.263716 56.9303 
L 308.48985 57.312836 
L 308.818773 57.511911 
L 309.201659 57.592582 
L 314.312805 57.747418 
L 315.903453 58.133858 
L 316.581856 58.492974 
L 316.661516 58.7493 
L 316.533031 59.120126 
L 316.581856 59.353031 
L 316.759165 59.529986 
L 317.496671 60.081671 
L 317.76906 60.197473 
L 317.76906 60.384838 
L 317.673981 60.422571 
L 317.429859 60.556589 
L 317.918103 60.905296 
L 318.419196 61.170729 
L 318.812361 61.494714 
L 318.974252 62.017774 
L 319.115586 62.133576 
L 319.439369 62.019075 
L 319.78371 61.839517 
L 319.991856 61.760148 
L 320.287372 61.916285 
L 320.408148 62.155696 
L 320.449264 62.423731 
L 319.968729 62.910359 
L 319.907056 63.067798 
L 319.78371 63.21873 
L 319.634667 63.511488 
L 319.205526 65.317476 
L 319.262059 65.581609 
L 318.8175 65.873065 
L 318.866324 66.35579 
L 319.336581 67.442245 
L 319.380266 67.716787 
L 319.385405 67.896344 
L 319.292896 68.740787 
L 319.010228 69.535786 
L 318.478299 72.099041 
L 318.29328 72.521913 
L 317.381034 73.72417 
L 317.265397 73.945365 
L 317.301373 74.165258 
L 317.527507 74.469726 
L 317.627726 74.507459 
L 318.051728 74.502254 
L 318.236746 74.614153 
L 318.339535 74.776796 
L 318.426905 74.956354 
L 318.55796 75.124201 
L 318.963973 75.53146 
L 319.241502 75.960837 
L 319.385405 76.466982 
L 319.395684 77.104543 
L 319.303175 77.630205 
L 319.113016 78.254755 
L 318.853476 78.857835 
L 318.55539 79.31844 
L 318.128819 79.547442 
L 316.843966 80.013251 
L 316.322315 80.328779 
L 315.410069 81.145898 
L 314.888419 81.452317 
L 313.415977 81.912922 
L 312.948291 82.174452 
L 310.733204 84.217899 
L 310.537906 84.29857 
L 309.867213 84.379241 
L 309.563987 84.508705 
L 308.880445 85.217829 
L 308.435886 85.542464 
L 307.906527 85.817006 
L 307.35404 85.95818 
L 306.840099 85.882714 
L 305.097838 85.141712 
L 304.11878 84.859364 
L 303.353007 84.861966 
L 302.397076 85.630942 
L 301.461703 86.580127 
L 300.639397 87.625597 
L 300.043225 88.681475 
L 299.616654 89.682706 
L 299.318568 90.0737 
L 298.372916 90.621481 
L 297.972042 90.964333 
L 297.697083 91.396963 
L 297.586586 91.913518 
L 297.751047 92.869208 
L 297.572491 93.267161 
L 297.437543 93.567923 
L 293.008654 99.899942 
L 292.325112 101.350067 
L 291.392309 104.499487 
L 290.544306 109.251917 
L 289.989249 110.815893 
L 289.98154 111.14313 
L 290.151141 111.655781 
L 290.192256 111.947888 
L 290.138292 112.284234 
L 289.742557 113.133881 
L 289.45218 113.509912 
L 288.922821 113.915219 
L 288.692099 114.051769 
L 288.336928 114.261974 
L 287.874381 114.464952 
L 285.923974 114.677689 
L 285.093958 114.99712 
L 284.651969 115.855225 
L 284.659678 116.358117 
L 284.957764 117.181091 
L 285.055413 117.664466 
L 284.952625 118.261691 
L 284.366731 119.186154 
L 284.176573 119.696854 
L 284.217688 120.266104 
L 284.472089 120.669459 
L 285.194177 121.422171 
L 285.466566 121.988819 
L 285.404893 122.392174 
L 285.17105 122.806589 
L 284.929497 123.409018 
L 284.608284 125.106361 
L 284.484938 126.737346 
L 283.788548 128.523166 
L 282.169633 129.169835 
L 280.214086 129.472351 
L 278.492383 130.225714 
L 278.158321 130.490497 
L 277.438803 131.421465 
L 277.163844 131.697959 
L 276.958268 131.839783 
L 275.498675 132.534594 
L 275.334214 132.65495 
L 275.159473 133.112303 
L 275.27768 133.195576 
L 275.984349 133.306824 
L 276.225902 133.816222 
L 276.426339 134.570885 
L 276.403211 135.567562 
L 276.308132 136.032721 
L 276.15395 136.466653 
L 275.005291 138.538725 
L 274.506768 139.73773 
L 274.478501 140.754574 
L 274.658381 141.672531 
L 274.098185 146.417805 
L 273.820656 147.497755 
L 273.283588 148.242009 
L 272.952096 148.383834 
L 272.643731 148.378629 
L 272.327657 148.321379 
L 271.973038 148.307067 
L 271.69037 148.44694 
L 271.51049 148.74295 
L 271.292065 149.454676 
L 270.927167 150.265289 
L 270.485178 150.753218 
L 267.938599 152.103806 
L 267.555712 152.196187 
L 267.188244 152.124624 
L 266.386496 151.754449 
L 266.062713 151.661417 
L 265.610445 151.714113 
L 265.29951 151.876756 
L 265.011703 152.080385 
L 264.618538 152.252136 
L 264.274197 152.284665 
L 263.919578 152.227414 
L 263.236036 152.005569 
L 263.439043 152.36989 
L 264.022366 153.797245 
L 264.091748 154.154409 
L 264.107166 154.851823 
L 263.891311 155.083426 
L 263.143526 155.606486 
L 262.955938 155.863462 
L 262.796616 156.168581 
L 262.598749 156.458085 
L 262.303232 156.670822 
L 261.779012 156.744988 
L 260.823082 156.582995 
L 260.280874 156.810045 
L 259.710399 157.627164 
L 259.517671 158.713619 
L 259.579344 159.859277 
L 259.975078 161.892965 
L 259.951951 162.393906 
L 259.876412 162.608924 
L 259.761793 162.935182 
L 258.746759 164.38856 
L 258.605425 165.000098 
L 258.607995 165.977908 
L 258.744189 166.944658 
L 258.916359 167.562702 
L 258.983172 167.979068 
L 258.841838 168.34469 
L 257.901325 169.334861 
L 255.431838 172.794604 
L 254.53758 174.432744 
L 254.367979 174.949299 
L 254.290888 175.503586 
L 254.332003 176.034453 
L 254.686623 177.511252 
L 254.588974 178.023903 
L 254.278039 178.310155 
L 253.887444 178.583395 
L 253.22446 179.580071 
L 251.667307 181.112681 
L 250.205055 182.551885 
L 248.663231 184.86532 
L 248.159569 185.34284 
L 247.715009 185.679836 
L 247.517142 185.903633 
L 247.661046 186.050662 
L 248.252078 186.163862 
L 248.601558 186.463125 
L 249.837587 188.267812 
L 250.806366 189.332148 
L 251.114731 189.963203 
L 250.888597 190.534406 
L 250.649614 190.633293 
L 250.438898 190.57344 
L 250.215334 190.469349 
L 249.937805 190.443326 
L 249.598604 190.548718 
L 249.313367 190.721771 
L 248.257217 191.688521 
L 247.88718 191.929233 
L 247.815228 192.155632 
L 247.771543 192.397645 
L 247.627639 192.595419 
L 247.458039 192.656572 
L 247.070013 192.672186 
L 246.792485 192.738544 
L 246.538084 192.712522 
L 246.419877 192.743749 
L 246.319659 192.862153 
L 246.229719 193.191343 
L 246.13721 193.322758 
L 244.698174 194.237463 
L 243.169199 195.653108 
L 242.7195 196.29197 
L 242.580736 196.966613 
L 242.742628 197.343294 
L 243.289975 197.966542 
L 243.410751 198.41869 
L 243.346509 199.101791 
L 243.184617 199.77188 
L 242.465099 201.468573 
L 241.876636 202.294149 
L 241.200804 202.675384 
L 240.219176 202.77362 
L 239.563901 203.309041 
L 239.191293 204.16064 
L 239.039681 205.204158 
L 238.882929 205.778613 
L 238.397254 206.235966 
L 237.759967 206.554095 
L 237.145807 206.701125 
L 236.873418 206.685511 
L 236.33378 206.551493 
L 236.061391 206.526771 
L 235.968881 206.581419 
L 235.704202 206.820179 
L 235.555159 206.885237 
L 235.375279 206.859214 
L 235.097751 206.681608 
L 234.964126 206.637369 
L 234.231361 206.714806 
L 232.692506 206.87743 
L 232.024382 206.783747 
L 231.615799 206.403163 
L 231.127555 205.204158 
L 230.708693 203.259598 
L 230.629032 202.276583 
L 230.670147 201.276654 
L 230.593056 200.076999 
L 230.11509 199.065359 
L 229.267087 198.392667 
L 226.949212 197.964591 
L 226.155173 197.163086 
L 225.65665 196.062968 
L 225.427946 194.91666 
L 225.021932 193.912177 
L 224.207335 193.355287 
L 222.164419 192.579805 
L 220.424728 191.649487 
L 219.769452 191.430894 
L 219.319754 191.070477 
L 219.186129 189.831788 
L 218.726152 189.238466 
L 218.366393 189.94759 
L 218.058028 190.862294 
L 217.847312 191.809527 
L 217.700839 193.737823 
L 217.595481 193.821097 
L 217.454147 193.854926 
L 217.297395 193.97333 
L 216.9916 194.387094 
L 216.788593 194.727994 
L 216.685805 195.122241 
L 216.670387 195.688239 
L 210.266678 195.78062 
L 209.580567 195.575039 
L 209.058916 195.165179 
L 208.799376 194.674647 
L 208.442187 192.821818 
L 208.23918 192.413258 
L 207.89227 192.339093 
L 207.308946 192.673487 
L 201.221312 197.878065 
L 200.637988 198.125282 
L 200.154884 197.982156 
L 199.671779 197.743396 
L 199.080746 197.700458 
L 198.61563 198.230024 
L 196.729942 204.258234 
L 196.706338 204.333692 
L 196.395403 204.582211 
L 195.507307 204.587553 
L 195.205629 204.589367 
L 194.468123 204.73965 
L 194.098086 205.053225 
L 193.517332 206.164403 
L 193.124167 206.552794 
L 192.617935 206.808469 
L 191.623248 207.181396 
L 191.474415 207.237196 
L 190.742049 207.698452 
L 189.989125 209.166793 
L 189.295304 209.590316 
L 188.902139 209.613736 
L 188.588635 209.586412 
L 188.295689 209.616339 
L 187.953918 209.805655 
L 187.614717 210.195348 
L 186.905478 211.707928 
L 186.27076 212.605718 
L 182.86076 215.381709 
L 180.566012 217.790778 
L 180.566012 217.794682 
L 180.034083 218.572115 
L 179.720578 218.911063 
L 179.322274 219.119247 
L 179.188649 219.290347 
L 179.134685 220.007278 
L 179.044746 220.335816 
L 178.605326 220.390465 
L 178.063118 220.193341 
L 177.528619 220.116574 
L 177.104617 220.528386 
L 176.770556 220.956462 
L 175.891716 221.551085 
L 175.627036 221.9655 
L 175.673291 222.476199 
L 175.94054 222.87565 
L 176.158965 223.314787 
L 176.048468 223.947143 
L 175.611618 224.487768 
L 175.172198 224.816307 
L 174.98204 225.178025 
L 175.308393 225.814935 
L 175.809485 226.305467 
L 176.364542 226.739399 
L 176.832229 227.235135 
L 177.086629 227.906525 
L 176.976132 228.514159 
L 176.598385 229.005341 
L 176.130699 229.45814 
L 175.758091 229.948021 
L 175.603909 230.4932 
L 175.639885 230.985683 
L 175.727255 231.472311 
L 175.740103 232.003829 
L 175.575642 232.567224 
L 175.041143 233.632211 
L 174.881821 234.241146 
L 174.910088 234.573589 
L 175.115665 235.181874 
L 175.141362 235.449909 
L 174.475808 238.870618 
L 174.295928 239.195254 
L 174.036388 239.314959 
L 173.743441 239.366354 
L 173.465913 239.493866 
L 173.216652 239.762553 
L 172.733547 240.509409 
L 172.579364 240.845755 
L 172.211896 241.944572 
L 171.980623 242.441609 
L 171.610585 242.964669 
L 171.610585 242.968572 
L 170.634097 244.529945 
L 170.482484 244.985346 
L 169.804082 245.492142 
L 169.585657 245.877931 
L 169.665317 246.414003 
L 169.739839 246.762059 
L 169.832348 247.123126 
L 169.408347 247.540143 
L 169.384835 247.540665 
L 169.394952 247.535543 
L 169.342344 247.416698 
L 169.174402 247.298878 
L 168.949806 247.244578 
L 168.74949 247.341908 
L 168.488473 247.56218 
L 168.2659 247.82036 
L 168.168777 248.019118 
L 168.120216 248.240415 
L 167.899666 248.72399 
L 167.832894 248.98012 
L 167.853128 249.229079 
L 168.014999 249.592785 
L 168.002859 249.824327 
L 167.784333 250.219793 
L 167.499035 250.341712 
L 167.165175 250.289461 
L 166.794895 250.166518 
L 166.683608 250.197254 
L 166.442825 250.218769 
L 166.27286 250.150126 
L 166.380099 249.910387 
L 166.485316 249.744415 
L 166.602672 249.478039 
L 166.655281 249.230104 
L 166.550064 249.121505 
L 166.327491 249.178878 
L 165.845924 249.422714 
L 165.522182 249.480088 
L 164.785667 249.201417 
L 164.741153 248.50884 
L 164.985983 247.612382 
L 165.101316 246.730268 
L 164.947539 246.730268 
L 164.781621 247.588818 
L 164.233282 248.031412 
L 163.523072 247.99248 
L 162.875586 247.400306 
L 162.956522 247.304 
L 163.061738 247.058115 
L 162.867493 247.008938 
L 162.369739 246.730268 
L 162.483049 246.390126 
L 162.278686 246.109407 
L 161.604897 245.597145 
L 161.01002 245.261101 
L 160.981693 245.238562 
L 160.840055 244.822605 
L 160.560827 244.280633 
L 160.382769 244.056262 
L 160.075214 243.964055 
L 159.802056 243.844186 
L 159.500571 243.573712 
L 159.253717 243.283772 
L 159.128267 243.105505 
L 158.974489 243.105505 
L 158.974489 243.260208 
L 160.336231 244.560328 
L 160.67009 244.994725 
L 161.317575 246.195466 
L 161.414698 246.781494 
L 161.01002 247.058115 
L 161.171891 247.403379 
L 161.422792 247.803968 
L 161.706067 248.137962 
L 161.944827 248.276273 
L 162.193704 248.496545 
L 162.568031 249.578442 
L 162.875586 249.996447 
L 162.790604 250.154224 
L 162.592312 250.716687 
L 162.555891 250.949254 
L 162.655037 251.309886 
L 162.89582 251.45127 
L 163.177072 251.53733 
L 163.401668 251.730965 
L 163.47451 252.318017 
L 163.092089 252.670453 
L 162.606475 252.965515 
L 162.369739 253.372251 
L 162.029809 254.13757 
L 161.787002 254.256414 
L 161.550265 254.300469 
L 160.467751 254.299444 
L 159.051378 254.13757 
L 156.922771 254.13757 
L 155.886794 253.983891 
L 155.407251 253.999259 
L 154.579684 254.43673 
L 154.098117 254.497177 
L 153.003462 254.497177 
L 148.756365 254.99612 
L 148.521652 254.854736 
L 148.206003 254.816829 
L 147.910588 254.916207 
L 147.722412 255.184632 
L 147.9895 255.172338 
L 148.220167 255.196927 
L 148.412389 255.258398 
L 148.572237 255.356752 
L 148.036038 255.499161 
L 147.230728 255.541166 
L 146.502308 255.424371 
L 146.180589 255.090376 
L 145.834589 254.998169 
L 143.633139 254.841417 
L 143.716098 254.735891 
L 143.762636 254.653929 
L 143.831432 254.580164 
L 143.971046 254.497177 
L 143.655397 254.398823 
L 143.364028 254.442878 
L 143.157643 254.426485 
L 143.109081 254.13757 
L 143.194064 253.990038 
L 143.364028 253.877341 
L 143.536017 253.72981 
L 143.633139 253.465483 
L 143.560297 253.341515 
L 143.109081 252.76266 
L 143.181923 252.66533 
L 143.29321 252.41842 
L 142.916859 251.982998 
L 143.001842 251.342671 
L 143.449011 250.166518 
L 143.29321 250.166518 
L 143.013982 250.375521 
L 142.872345 250.480022 
L 142.690239 250.701319 
L 142.61335 250.949254 
L 142.670005 251.32218 
L 142.746894 251.598801 
L 142.744871 251.850834 
L 142.538485 252.152044 
L 142.532415 252.308796 
L 142.872345 252.720654 
L 142.95328 252.932731 
L 142.872345 252.996251 
L 142.459573 253.465483 
L 142.228906 253.648872 
L 141.943608 253.809722 
L 141.662357 253.838409 
L 141.423597 253.62121 
L 141.253632 253.62121 
L 141.039152 254.140643 
L 140.498907 254.084295 
L 139.636943 253.62121 
L 139.015762 253.587401 
L 138.368276 253.457286 
L 137.817914 253.193984 
L 137.506312 252.76266 
L 137.354558 252.856916 
L 137.184593 252.910191 
L 136.7354 252.932731 
L 136.656488 253.010594 
L 136.626137 253.186812 
L 136.541155 253.366104 
L 136.304418 253.465483 
L 136.304418 253.62121 
L 136.468312 253.723662 
L 136.644347 253.808698 
L 136.49057 253.967499 
L 136.810266 254.084295 
L 137.233154 254.426485 
L 137.913014 254.567869 
L 138.034417 254.739989 
L 137.997996 254.963335 
L 137.846242 255.184632 
L 136.7354 255.356752 
L 136.613997 255.223564 
L 136.055541 254.403946 
L 134.483366 252.668404 
L 134.26484 252.152044 
L 134.26484 251.465613 
L 134.196045 251.227924 
L 134.034173 251.2269 
L 133.682103 251.400044 
L 133.139835 251.405167 
L 133.058899 251.371357 
L 132.852513 251.139815 
L 132.40332 250.768938 
L 132.213122 250.512807 
L 131.804397 249.36739 
L 131.533262 248.98012 
L 131.500888 249.226006 
L 131.375438 249.469842 
L 131.245941 249.639913 
L 131.181192 249.666551 
L 131.249987 249.922682 
L 131.381508 249.966736 
L 131.545403 249.988251 
L 131.703227 250.166518 
L 131.952104 251.036338 
L 132.182771 251.405167 
L 132.638034 251.558845 
L 133.408945 251.953286 
L 133.967401 252.811837 
L 134.058454 253.64375 
L 133.415016 253.967499 
L 133.734711 254.196992 
L 134.113086 254.561722 
L 134.337682 255.000218 
L 134.179857 255.442812 
L 133.493928 256.219401 
L 133.069016 256.409962 
L 132.553051 256.199935 
L 132.540911 256.590278 
L 132.553051 256.716294 
L 132.091718 256.502169 
L 131.751788 256.223499 
L 131.602057 255.850572 
L 131.703227 255.356752 
L 131.371391 255.655913 
L 131.306642 256.076992 
L 131.44221 256.524709 
L 131.703227 256.903782 
L 131.027414 257.075902 
L 130.841262 257.075902 
L 130.541801 256.48885 
L 130.39207 255.858769 
L 130.327321 254.576066 
L 129.922643 253.889635 
L 129.803263 253.467532 
L 130.082491 253.279019 
L 130.191754 253.072066 
L 130.319228 252.602834 
L 130.388023 252.082376 
L 130.327321 251.730965 
L 130.456818 251.792436 
L 130.687485 251.835466 
L 130.841262 251.887717 
L 130.677368 251.608022 
L 130.17759 251.042485 
L 130.072374 250.765864 
L 129.948947 250.221842 
L 129.837661 249.996447 
L 129.372281 250.642921 
L 129.214456 250.63575 
L 129.113287 250.22594 
L 128.819895 249.666551 
L 128.698492 250.052796 
L 128.759193 250.652142 
L 128.64993 250.854998 
L 128.927135 251.262758 
L 129.481544 252.76266 
L 129.22255 252.76266 
L 129.048538 252.732949 
L 128.919041 252.634594 
L 128.819895 252.41842 
L 128.720749 252.488088 
L 128.479965 252.59054 
L 128.261439 252.102867 
L 127.996375 251.675641 
L 127.276048 250.854998 
L 127.326633 251.276077 
L 127.448036 251.611096 
L 127.798083 252.229908 
L 128.004469 252.492186 
L 128.097545 252.646889 
L 128.140036 252.846671 
L 128.044936 253.06387 
L 127.872948 253.186812 
L 127.789989 253.334344 
L 127.970071 253.62121 
L 128.218948 253.231891 
L 128.680281 253.110998 
L 129.125427 253.221646 
L 129.327766 253.544371 
L 129.089006 255.277864 
L 129.141614 255.871063 
L 130.021789 257.641439 
L 130.337438 258.044076 
L 130.298994 258.286888 
L 130.15331 258.528676 
L 129.912526 258.637275 
L 129.58676 258.594245 
L 129.319673 258.474376 
L 128.856316 258.260251 
L 128.87048 258.374997 
L 128.904877 258.489744 
L 128.98986 258.637275 
L 128.441521 258.463106 
L 127.895205 258.210049 
L 127.338773 258.084033 
L 126.766153 258.295085 
L 126.482879 258.001046 
L 126.288633 257.601482 
L 126.248165 257.152741 
L 126.426224 256.716294 
L 126.001312 256.493973 
L 125.616867 255.83418 
L 125.345733 255.038126 
L 125.238493 254.403946 
L 125.285031 253.947008 
L 125.408458 253.698049 
L 125.578423 253.520807 
L 125.762551 253.279019 
L 125.875861 253.024938 
L 125.979054 252.619226 
L 125.906212 252.241177 
L 125.49344 252.075205 
L 124.856072 251.707401 
L 124.414973 250.864218 
L 124.034576 249.308992 
L 123.961734 248.689156 
L 124.046716 248.36848 
L 124.303687 248.019118 
L 124.473652 247.71381 
L 124.410926 247.496611 
L 124.184307 247.477145 
L 123.878775 247.760938 
L 123.642038 247.474071 
L 123.563126 247.293755 
L 123.524681 247.058115 
L 123.310202 247.166714 
L 123.103816 247.203597 
L 122.893383 247.166714 
L 122.67688 247.058115 
L 122.786144 247.484317 
L 122.834705 247.939205 
L 122.956108 248.300861 
L 123.271757 248.449417 
L 123.492307 248.638954 
L 123.672389 249.087695 
L 123.878775 249.996447 
L 123.975897 250.937984 
L 124.08516 251.374431 
L 124.303687 251.558845 
L 124.619336 251.727891 
L 124.945102 252.124382 
L 125.408458 252.932731 
L 124.850002 253.415281 
L 124.728599 253.62121 
L 124.680037 253.975695 
L 125.175768 256.451967 
L 125.422622 257.192698 
L 125.762551 257.592262 
L 125.709943 258.17624 
L 126.215791 258.618834 
L 126.535487 258.984589 
L 125.918353 259.325755 
L 125.139347 259.467139 
L 124.143839 259.534758 
L 123.223196 259.451771 
L 122.67688 259.138267 
L 122.602015 258.775586 
L 122.695091 257.289003 
L 122.816494 257.106638 
L 122.846845 256.989842 
L 122.792214 256.857679 
L 122.561547 256.66097 
L 122.506916 256.559542 
L 122.506916 255.683575 
L 122.597968 255.277864 
L 123.156424 253.771815 
L 123.211056 253.501341 
L 123.186775 252.76266 
L 122.715325 253.348687 
L 122.334927 254.408044 
L 122.166986 255.549363 
L 122.336951 256.387423 
L 122.227688 256.596425 
L 122.215547 257.09127 
L 122.166986 257.420142 
L 121.934296 256.852556 
L 121.857407 256.506267 
L 121.788612 254.961286 
L 121.657091 254.653929 
L 121.561992 254.824 
L 121.448682 254.969483 
L 121.315138 255.087303 
L 121.147197 255.184632 
L 121.280741 255.541166 
L 121.302998 256.716294 
L 121.402144 257.125079 
L 121.703629 257.672175 
L 121.901922 258.155749 
L 122.152822 259.027619 
L 122.166986 259.325755 
L 121.982857 259.59418 
L 121.729933 259.682289 
L 120.963068 259.669995 
L 120.262975 259.740687 
L 120.117291 259.590082 
L 119.846157 258.77661 
L 119.773315 257.997973 
L 119.805689 256.851532 
L 119.700472 255.930485 
L 119.326145 255.280938 
L 118.57142 255.356752 
L 119.265443 255.911019 
L 119.514321 256.797232 
L 119.423268 257.822779 
L 119.095479 258.794027 
L 119.046917 259.636185 
L 117.810625 259.932273 
L 116.365924 259.792937 
L 115.684042 259.325755 
L 115.350182 259.385177 
L 115.022393 259.482507 
L 115.210568 259.954812 
L 114.803867 260.112589 
L 114.180662 260.152545 
L 113.723376 260.272414 
L 113.245856 260.48449 
L 112.10264 260.516251 
L 111.610956 260.700665 
L 111.022149 259.998867 
L 111.525973 258.929264 
L 113.15278 257.075902 
L 112.829037 257.04824 
L 112.626698 257.000087 
L 112.47292 256.991891 
L 112.274628 257.075902 
L 111.424804 258.106572 
L 111.311494 256.750104 
L 110.914909 255.528872 
L 110.761132 255.528872 
L 110.732804 256.028839 
L 110.777319 256.668142 
L 110.894676 257.294125 
L 111.084874 257.747989 
L 110.842067 257.503128 
L 110.633658 257.229581 
L 110.352407 257.00521 
L 109.899167 256.903782 
L 110.166255 257.490834 
L 110.437389 257.881177 
L 110.607354 258.299183 
L 110.57498 258.966147 
L 110.413108 259.458943 
L 110.23505 259.826747 
L 110.081272 259.942518 
L 109.874887 260.010136 
L 109.725156 260.157668 
L 109.729202 260.514202 
L 109.927495 260.416872 
L 110.085319 260.416872 
L 110.421202 260.514202 
L 110.281588 260.751891 
L 109.577448 260.993678 
L 108.654782 261.04388 
L 108.029554 260.872785 
L 107.944572 260.994703 
L 107.7827 261.110474 
L 107.689624 261.216 
L 107.288993 261.065395 
L 107.06642 260.811313 
L 106.981438 260.456828 
L 106.997625 259.998867 
L 107.100818 259.579837 
L 107.434677 258.981515 
L 107.503472 258.637275 
L 107.390163 258.686452 
L 107.114981 258.752022 
L 106.997625 258.794027 
L 107.001672 258.397537 
L 107.090701 257.717254 
L 106.819566 257.687542 
L 106.560572 257.619924 
L 106.263134 257.496981 
L 105.961649 257.592262 
L 105.886783 257.848392 
L 105.933321 258.21927 
L 106.042584 258.575804 
L 106.147801 258.794027 
L 106.042584 259.124948 
L 106.176128 259.40157 
L 106.378467 259.698681 
L 106.48773 260.092098 
L 106.420958 260.635095 
L 106.226713 260.608458 
L 105.933321 260.348229 
L 105.55697 260.186354 
L 105.006608 260.159717 
L 104.808316 260.026529 
L 104.771895 259.138267 
L 104.921626 259.098311 
L 104.96614 259.024545 
L 104.642398 258.536872 
L 104.60193 258.449788 
L 104.573602 258.02461 
L 104.60193 257.592262 
L 104.452199 257.592262 
L 104.266047 258.449788 
L 104.138573 258.339139 
L 103.756153 258.106572 
L 104.132503 258.966147 
L 104.209392 259.387226 
L 103.926117 259.669995 
L 103.549767 259.629014 
L 103.167346 259.37903 
L 102.849673 259.10036 
L 102.651381 258.966147 
L 102.147557 258.781733 
L 101.591124 258.317624 
L 101.295709 257.704959 
L 101.550657 257.075902 
L 101.271429 257.053363 
L 101.09337 257.131226 
L 101.018505 257.312567 
L 101.040762 257.592262 
L 100.884961 257.592262 
L 100.478259 257.170158 
L 99.474658 256.588229 
L 99.173172 256.199935 
L 99.345161 256.310583 
L 99.67295 256.45709 
L 99.851008 256.559542 
L 99.658786 256.24194 
L 99.357301 256.095433 
L 99.009278 256.009373 
L 98.663278 255.871063 
L 98.131126 255.287085 
L 97.940927 255.019684 
L 97.277255 254.331205 
L 97.119431 254.22363 
L 94.812765 252.043444 
L 94.116719 251.067074 
L 93.877958 249.996447 
L 93.983175 250.031281 
L 94.060064 250.06509 
L 94.232052 250.166518 
L 94.230028 249.699336 
L 93.141444 249.021101 
L 92.860193 248.535477 
L 92.738789 248.131815 
L 92.113562 247.043772 
L 91.842427 246.730268 
L 92.690228 247.244578 
L 92.477772 246.644208 
L 91.682579 245.740578 
L 90.992603 243.791935 
L 90.772053 242.615783 
L 90.63851 242.228513 
L 90.320837 241.569745 
L 90.187294 241.188622 
L 90.128615 240.767543 
L 90.049703 240.576982 
L 89.873668 240.384371 
L 89.70168 240.126191 
L 89.618721 239.728677 
L 89.740124 239.423369 
L 90.037563 239.304524 
L 90.426054 239.333211 
L 90.808475 239.4623 
L 91.077585 239.689745 
L 91.526778 240.314704 
L 91.842427 240.509363 
L 91.464053 239.521723 
L 91.316346 239.135478 
L 91.846474 239.187728 
L 92.350298 239.306573 
L 92.168193 239.007412 
L 91.488334 238.253363 
L 91.231363 238.102758 
L 91.138287 238.208284 
L 91.160545 238.66932 
L 91.069492 238.773821 
L 90.834779 238.782017 
L 90.660767 238.809679 
L 90.29858 238.945941 
L 89.970791 238.802508 
L 89.37389 238.907009 
L 89.11085 238.773821 
L 89.062288 238.569941 
L 89.11085 237.65914 
L 88.999563 236.495282 
L 88.479552 234.230061 
L 88.617142 233.897091 
L 89.195832 233.774148 
L 90.844896 233.741363 
L 91.316346 233.603053 
L 91.379071 233.836644 
L 91.445843 234.002617 
L 91.658299 234.3069 
L 91.858614 234.145025 
L 92.04679 233.768001 
L 92.182357 233.603053 
L 92.326018 233.501625 
L 93.190006 233.161483 
L 93.598731 233.08362 
L 93.977105 233.098987 
L 94.232052 233.272132 
L 94.389876 233.272132 
L 94.201701 232.952481 
L 93.606824 232.427925 
L 93.370087 232.054998 
L 93.279035 231.704611 
L 93.246661 231.291729 
L 93.297245 230.895238 
L 93.45507 230.594028 
L 93.784882 230.378878 
L 94.161233 230.303064 
L 94.990823 230.319456 
L 95.288262 230.176023 
L 95.57963 229.850225 
L 95.9317 229.288786 
L 95.533092 229.454759 
L 95.201256 229.748797 
L 94.845139 229.942432 
L 94.389876 229.804121 
L 94.323104 229.927064 
L 94.16528 230.037712 
L 94.047923 230.163729 
L 93.47328 230.036688 
L 92.878403 230.335848 
L 92.532404 230.893189 
L 92.690228 231.540688 
L 92.40493 232.153353 
L 92.077141 232.528328 
L 91.672462 232.622584 
L 91.146381 232.398214 
L 91.000697 232.227118 
L 90.960229 232.066268 
L 90.863106 231.946399 
L 90.553527 231.899271 
L 90.422007 232.042704 
L 90.490802 232.370551 
L 90.65065 232.718889 
L 90.808475 232.929941 
L 89.369844 232.847979 
L 86.565424 231.899271 
L 86.448067 231.765058 
L 86.334757 231.489462 
L 86.241681 231.3532 
L 85.456606 230.624764 
L 84.944688 230.264132 
L 84.760559 229.725233 
L 84.707951 229.189407 
L 84.774723 228.944546 
L 84.942664 228.851314 
L 85.347343 228.40872 
L 85.561822 228.256067 
L 85.745951 228.223282 
L 88.18009 228.325734 
L 89.102756 228.479413 
L 89.618721 228.774475 
L 89.788686 228.774475 
L 90.031492 228.417941 
L 90.444264 227.517385 
L 90.63851 227.225396 
L 90.960229 227.086061 
L 91.35479 227.093233 
L 91.733164 227.209004 
L 91.998228 227.397516 
L 92.065 227.58193 
L 92.204614 228.139271 
L 92.267339 228.256067 
L 92.526333 228.241723 
L 92.653807 228.172056 
L 92.692251 228.018377 
L 92.690228 227.741756 
L 92.506099 227.348339 
L 92.083211 226.918039 
L 91.579386 226.558432 
L 91.146381 226.366846 
L 90.674931 226.377091 
L 90.438194 226.627075 
L 90.128615 227.397516 
L 89.867598 227.634181 
L 89.460896 227.833963 
L 89.00968 227.942562 
L 88.598932 227.913876 
L 88.127482 227.646475 
L 87.925143 227.289941 
L 87.933236 226.859642 
L 88.398616 225.487805 
L 88.455271 225.116928 
L 88.414803 224.646672 
L 88.261025 224.646672 
L 87.581166 226.522573 
L 87.312055 227.019467 
L 86.990336 227.342192 
L 86.561377 227.517385 
L 85.9665 227.569636 
L 85.697389 227.641353 
L 85.116676 227.984568 
L 84.489425 228.221233 
L 84.337671 228.150541 
L 84.003811 227.913876 
L 83.623414 227.565538 
L 83.232899 227.074791 
L 82.92332 226.553309 
L 82.688607 225.844339 
L 82.453894 225.494977 
L 82.225251 225.045211 
L 82.134198 224.459184 
L 82.1949 223.953069 
L 82.344631 223.383435 
L 82.575297 222.918301 
L 82.880829 222.723642 
L 83.166127 222.821996 
L 83.663881 223.223609 
L 83.850033 223.270737 
L 83.97953 223.109887 
L 83.924899 222.885516 
L 83.827776 222.63041 
L 83.850033 222.381451 
L 84.631062 221.688873 
L 86.67064 220.936873 
L 87.241236 219.974846 
L 86.723248 220.068078 
L 85.873424 220.835446 
L 84.890056 221.135631 
L 83.004256 222.138639 
L 82.644092 222.402966 
L 81.38959 223.588339 
L 81.132619 223.5658 
L 80.203883 221.508557 
L 77.184984 217.546726 
L 76.677113 217.066225 
L 75.699815 216.640023 
L 75.246575 216.123664 
L 74.619324 215.129876 
L 73.75129 214.214977 
L 72.986448 213.591043 
L 71.116835 212.401571 
L 70.293315 211.875991 
L 68.767678 210.433462 
L 67.814661 209.816699 
L 67.416053 209.640481 
L 65.240908 208.675381 
L 63.660639 208.380318 
L 58.286513 207.379359 
L 51.933066 206.843533 
L 41.324428 207.379359 
L 40.765972 207.287152 
L 40.46044 207.062781 
L 40.217633 206.783086 
L 39.865563 206.518759 
L 40.098253 206.396841 
L 40.266194 206.35586 
L 40.411879 206.394792 
L 40.559586 206.518759 
L 40.948077 206.161201 
L 41.091738 206.296438 
L 41.142323 206.675511 
L 41.239445 207.050487 
L 42.11355 206.241114 
L 42.259234 206.26058 
L 42.344217 206.460362 
L 42.538462 206.469582 
L 42.860182 206.34664 
L 43.333655 206.33537 
L 43.75452 206.259555 
L 44.138965 206.05465 
L 44.480918 205.65816 
L 44.527456 205.384612 
L 44.470801 205.104917 
L 44.486988 204.886694 
L 44.735865 204.798585 
L 45.743513 204.798585 
L 46.275665 204.692035 
L 47.37032 204.339599 
L 47.704179 204.440002 
L 48.262635 204.216656 
L 48.760389 203.91852 
L 49.112459 203.515882 
L 49.246003 202.978007 
L 49.555582 202.85404 
L 51.625511 202.548732 
L 51.435312 202.400176 
L 51.279511 202.331533 
L 51.127757 202.327435 
L 50.945651 202.376612 
L 49.531301 202.040569 
L 48.133138 202.57537 
L 46.799723 203.354007 
L 45.591759 203.752547 
L 45.13852 203.755621 
L 44.881549 203.790454 
L 44.007444 204.261735 
L 43.722146 204.364187 
L 43.430778 204.422585 
L 43.107035 204.440002 
L 43.048357 204.38058 
L 42.732708 204.267882 
L 42.429199 204.284274 
L 42.269351 204.157234 
L 42.192463 204.078345 
L 42.08927 203.752547 
L 42.062966 203.444165 
L 42.234954 202.904242 
L 42.259234 202.548732 
L 41.832299 202.79974 
L 41.530814 203.063043 
L 40.984498 203.666487 
L 40.784183 203.743326 
L 40.521142 203.753571 
L 40.298569 203.808896 
L 40.205493 204.017898 
L 40.241914 204.195141 
L 40.379504 204.564994 
L 40.389621 204.798585 
L 40.290475 205.06701 
L 39.940429 205.607958 
L 39.865563 205.910193 
L 39.770464 206.08846 
L 39.590382 206.22677 
L 39.489212 206.380449 
L 39.618709 206.604819 
L 39.740113 206.736983 
L 39.806885 206.866073 
L 39.845329 207.015653 
L 39.978873 207.136547 
L 39.855446 207.697986 
L 38.404675 207.855762 
L 35.620489 207.722574 
L 32.342596 208.105746 
L 28.498153 207.91416 
L 22.93114 208.436715 
L 22.941507 206.902151 
L 23.132015 205.775425 
L 23.219036 205.260758 
L 23.303144 205.013771 
L 23.763813 203.661001 
L 23.815208 203.128182 
L 23.601922 202.066448 
L 23.609631 201.550545 
L 23.894868 201.009269 
L 24.344567 200.605263 
L 24.650362 200.401634 
L 24.789126 200.117334 
L 24.706896 198.956063 
L 24.658071 198.700388 
L 24.511598 198.586538 
L 24.203233 198.557262 
L 23.948832 198.480495 
L 23.738116 198.32761 
L 23.547958 198.071935 
L 23.422042 197.575549 
L 23.488855 197.030369 
L 23.753535 195.97449 
L 23.630189 194.919262 
L 23.293557 193.953813 
L 23.211327 193.04041 
L 23.856323 192.134813 
L 24.1467 191.995591 
L 24.465343 191.900607 
L 24.719744 191.763987 
L 24.817393 191.492048 
L 24.673489 191.253939 
L 24.020784 190.713964 
L 23.807498 190.443326 
L 23.712419 190.115437 
L 23.738116 189.941084 
L 23.846044 189.773236 
L 24.074748 189.295716 
L 24.272615 189.035488 
L 24.354846 188.797378 
L 24.380543 188.448671 
L 23.858893 182.255224 
L 23.920565 181.976779 
L 24.110724 181.866182 
L 24.370264 181.868784 
L 24.907333 181.976779 
L 24.986994 181.926035 
L 25.004982 181.78421 
L 25.064085 181.559112 
L 25.130897 180.506486 
L 24.58098 179.583975 
L 23.846044 178.700498 
L 23.347521 177.763674 
L 23.216466 176.776105 
L 23.274252 175.951251 
L 23.511982 172.557795 
L 23.4426 172.196077 
L 23.221605 171.834359 
L 22.625433 171.16427 
L 22.345335 170.442135 
L 22.144898 170.133763 
L 22.131861 170.037142 
L 22.116632 169.924279 
L 22.173165 169.73171 
L 22.427566 169.251587 
L 22.514936 169.027791 
L 22.610015 167.440394 
L 22.923519 165.845842 
L 22.977483 164.340418 
L 23.044296 163.879813 
L 23.237024 163.453688 
L 23.496564 163.033418 
L 23.691862 162.570862 
L 23.70471 162.018526 
L 23.53511 161.482454 
L 23.046865 160.434383 
L 22.854137 159.878794 
L 22.764198 159.278966 
L 22.795034 158.796892 
L 22.985192 157.754025 
L 22.985192 157.52047 
L 22.923519 157.055311 
L 22.928659 156.832164 
L 23.059714 156.517287 
L 23.555667 155.954543 
L 23.753535 155.657882 
L 23.948832 154.807584 
L 23.890803 154.072676 
L 23.406222 147.935713 
L 23.404055 147.908266 
L 23.411764 147.640881 
L 23.553097 147.450914 
L 23.97196 147.257694 
L 24.105584 147.124977 
L 24.136421 146.901831 
L 24.007936 146.51474 
L 23.977099 146.291594 
L 24.069608 145.903202 
L 24.380543 145.186272 
L 24.390822 144.801784 
L 24.295743 144.626129 
L 24.172397 144.58189 
L 24.067039 144.526592 
L 24.023354 144.32036 
L 24.085027 144.268314 
L 24.365125 143.844792 
L 24.444786 143.691907 
L 24.58098 143.002301 
L 24.634944 141.406447 
L 24.555283 140.73896 
L 26.472284 140.897049 
L 26.806346 140.850208 
L 27.045328 140.671951 
L 27.256044 140.449456 
L 27.520724 140.277705 
L 27.787974 140.22696 
L 28.551176 140.202238 
L 28.820996 140.234767 
L 29.093384 140.364881 
L 29.334937 140.530777 
L 29.584198 140.651784 
L 29.874575 140.649181 
L 31.573151 140.206142 
L 32.184741 139.779366 
L 32.565058 138.992174 
L 33.392503 136.409402 
L 33.903875 135.430942 
L 34.058057 134.907882 
L 34.060627 133.272994 
L 33.975827 132.852724 
L 33.659753 132.061628 
L 33.492722 131.359011 
L 33.590371 130.661597 
L 34.068336 129.884163 
L 34.248215 129.750146 
L 34.64909 129.614176 
L 34.834108 129.451533 
L 36.350235 127.460782 
L 36.378502 127.330668 
L 36.247447 127.009935 
L 36.216611 126.840136 
L 36.404199 126.21949 
L 36.805073 126.095882 
L 37.290748 126.186962 
L 37.730168 126.212985 
L 38.539625 125.758235 
L 38.714365 125.098554 
L 38.516498 124.332831 
L 38.210703 123.557349 
L 38.123333 123.062263 
L 38.179866 122.492362 
L 38.398291 121.988819 
L 38.799165 121.690207 
L 40.587681 120.953759 
L 41.55646 120.695482 
L 43.052029 120.858775 
L 43.491449 120.446963 
L 44.146724 119.248609 
L 44.951043 118.285112 
L 45.202874 117.784822 
L 45.357056 115.63403 
L 45.518948 115.226772 
L 45.904404 114.856596 
L 46.266732 114.682894 
L 46.577667 114.450639 
L 46.803801 113.898304 
L 46.824614 113.757271 
L 46.891171 113.306283 
L 46.819219 112.912687 
L 46.595655 112.595858 
L 44.904788 110.848421 
L 44.550168 110.273966 
L 44.527041 109.802952 
L 45.038413 108.6638 
L 45.665421 107.69705 
L 45.76307 107.397786 
L 45.788767 106.90205 
L 45.858149 106.74201 
L 46.02261 106.505852 
L 46.508285 106.023778 
L 46.996529 105.865689 
L 47.520749 105.958721 
L 49.113967 106.792754 
L 49.501993 106.732902 
L 49.879739 106.261237 
L 50.044201 105.795427 
L 50.069898 104.495584 
L 50.293462 103.824193 
L 50.92818 102.567288 
L 51.115768 101.891994 
L 51.111458 101.1187 
L 51.108059 100.508878 
L 50.984713 99.776333 
L 50.756009 99.289705 
L 50.439935 99.107545 
L 50.087886 99.041187 
L 49.769242 98.944251 
L 49.535399 98.665156 
L 49.301555 97.838929 
L 49.17821 97.568942 
L 48.990621 97.352952 
L 48.772196 97.16949 
L 48.571759 96.960006 
L 48.445843 96.659442 
L 48.47668 96.223559 
L 49.016318 94.897692 
L 49.044585 94.15604 
L 48.533213 91.913518 
L 48.533213 91.907012 
L 48.278812 91.476984 
L 48.093793 91.015078 
L 47.993575 90.512185 
L 47.993575 89.967006 
L 48.247976 88.989196 
L 48.03983 88.78882 
L 47.837879 88.778026 
L 47.808556 88.776459 
L 47.574713 88.818746 
L 47.369136 88.784266 
L 46.767825 88.213714 
L 42.311954 81.940246 
L 41.941916 81.255844 
L 41.898231 80.676835 
L 42.396754 79.322344 
L 42.553506 78.939157 
L 42.849023 77.804559 
L 44.575865 74.871779 
L 45.123213 74.299276 
" clip-path="url(#pdb1451d373)" style="fill: #f5f5f5; stroke: #000000"/>
    <path d="M 143.200134 255.871063 
L 144.025677 255.785003 
L 144.280625 255.866965 
L 144.141011 256.199935 
L 143.920461 256.501145 
L 143.487455 256.598474 
L 142.538485 256.559542 
L 142.156064 256.625112 
L 140.917749 257.075902 
L 140.484743 257.120981 
L 138.653575 257.008284 
L 138.271154 256.811575 
L 138.12547 256.482703 
L 138.356136 256.028839 
L 138.605013 255.89975 
L 139.806907 255.528872 
L 140.100299 255.634398 
L 140.984521 256.095433 
L 141.423597 256.199935 
L 141.876836 256.149733 
L 142.771175 255.923314 
L 143.200134 255.871063 
" clip-path="url(#pdb1451d373)" style="fill: #f5f5f5; stroke: #000000"/>
    <path d="M 136.565435 255.683575 
L 137.696511 255.566779 
L 138.016206 255.683575 
L 137.716745 255.957123 
L 137.562967 256.256284 
L 137.512382 256.596425 
L 137.506312 256.989842 
L 137.401096 257.380185 
L 137.166382 257.626071 
L 136.830499 257.841221 
L 136.478429 257.987728 
L 134.26484 258.449788 
L 133.421086 258.372948 
L 133.180302 258.071739 
L 133.421086 257.59636 
L 134.216278 256.743957 
L 134.774734 255.871063 
L 135.254278 255.311673 
L 135.357471 255.071935 
L 135.454594 254.653929 
L 135.794523 254.864981 
L 136.176944 255.541166 
L 136.565435 255.683575 
" clip-path="url(#pdb1451d373)" style="fill: #f5f5f5; stroke: #000000"/>
   </g>
  </g>
 </g>
 <defs>
  <clipPath id="pdb1451d373">
   <rect x="7.2" y="7.2" width="328.165895" height="266.112"/>
  </clipPath>
 </defs>
</svg>
