<?xml version="1.0" encoding="utf-8" standalone="no"?>
<!DOCTYPE svg PUBLIC "-//W3C//DTD SVG 1.1//EN"
  "http://www.w3.org/Graphics/SVG/1.1/DTD/svg11.dtd">
<svg xmlns:xlink="http://www.w3.org/1999/xlink" width="353.781036pt" height="280.512pt" viewBox="0 0 353.781036 280.512" xmlns="http://www.w3.org/2000/svg" version="1.1">
 <metadata>
  <rdf:RDF xmlns:dc="http://purl.org/dc/elements/1.1/" xmlns:cc="http://creativecommons.org/ns#" xmlns:rdf="http://www.w3.org/1999/02/22-rdf-syntax-ns#">
   <cc:Work>
    <dc:type rdf:resource="http://purl.org/dc/dcmitype/StillImage"/>
    <dc:date>2024-03-04T13:11:12.293771</dc:date>
    <dc:format>image/svg+xml</dc:format>
    <dc:creator>
     <cc:Agent>
      <dc:title>Matplotlib v3.8.0, https://matplotlib.org/</dc:title>
     </cc:Agent>
    </dc:creator>
   </cc:Work>
  </rdf:RDF>
 </metadata>
 <defs>
  <style type="text/css">*{stroke-linejoin: round; stroke-linecap: butt}</style>
 </defs>
 <g id="figure_1">
  <g id="patch_1">
   <path d="M 0 280.512 
L 353.781036 280.512 
L 353.781036 0 
L 0 0 
z
" style="fill: #ffffff"/>
  </g>
  <g id="axes_1">
   <g id="PatchCollection_1">
    <defs>
     <path id="m3ab2351b86" d="M 89.793301 -19.296 
L 89.656215 -19.413385 
L 89.474778 -19.738044 
L 89.311485 -19.830048 
L 89.242943 -19.986561 
L 89.204639 -20.167397 
L 89.132065 -20.32391 
L 89.033282 -20.647511 
L 88.960708 -20.808254 
L 88.874021 -20.891799 
L 88.765159 -20.95948 
L 88.634121 -21.07898 
L 87.980949 -22.042381 
L 87.823704 -22.196779 
L 87.60598 -22.353292 
L 86.892328 -22.615557 
L 86.0174 -23.173928 
L 85.799676 -23.246897 
L 85.590015 -23.373799 
L 85.360195 -23.42033 
L 85.086024 -23.251127 
L 84.823949 -23.125282 
L 84.55381 -23.197194 
L 84.31391 -23.364282 
L 84.148601 -23.523967 
L 83.870398 -23.857086 
L 83.42487 -24.632249 
L 83.281736 -25.004496 
L 83.18497 -25.468748 
L 83.136587 -25.905504 
L 83.076108 -26.015486 
L 82.812017 -26.221702 
L 82.751538 -26.330627 
L 79.396973 -29.487326 
L 78.606715 -30.688669 
L 78.415198 -31.069377 
L 78.342624 -31.176186 
L 78.179331 -31.229063 
L 77.532206 -31.304146 
L 77.302386 -31.391921 
L 77.086678 -31.50719 
L 76.927417 -31.678509 
L 76.802427 -32.13853 
L 76.65123 -32.39022 
L 76.455681 -32.609127 
L 76.058536 -32.829091 
L 75.123129 -33.692028 
L 74.891293 -33.381117 
L 74.427621 -33.364197 
L 74.228041 -33.322953 
L 73.832912 -33.337759 
L 73.645427 -33.299688 
L 73.429719 -33.15375 
L 73.117244 -32.768813 
L 72.937823 -32.618645 
L 72.734211 -32.566826 
L 72.528583 -32.709591 
L 72.316906 -32.62499 
L 72.212076 -32.504432 
L 72.155629 -32.357437 
L 72.117326 -32.196694 
L 72.052815 -32.038066 
L 71.78066 -31.593907 
L 71.603255 -31.488155 
L 70.915811 -31.677451 
L 70.780742 -31.651013 
L 70.54689 -31.472292 
L 70.427948 -31.412014 
L 70.331182 -31.422589 
L 70.163857 -31.524111 
L 70.08725 -31.538916 
L 69.393758 -31.344332 
L 69.305056 -31.285111 
L 69.127651 -31.109563 
L 69.016773 -31.040824 
L 68.869608 -31.030249 
L 68.809129 -31.122253 
L 68.778889 -31.23435 
L 68.724458 -31.280881 
L 68.494638 -31.289341 
L 68.311185 -31.317894 
L 68.1741 -31.259731 
L 68.083381 -31.006983 
L 67.972503 -30.793364 
L 67.873721 -30.827205 
L 67.762843 -30.945647 
L 67.617694 -30.980545 
L 67.516895 -30.904404 
L 67.355618 -30.674922 
L 67.309251 -30.622046 
L 67.059272 -30.596665 
L 66.611727 -30.615701 
L 66.343604 -30.580802 
L 65.871869 -30.356608 
L 65.700512 -30.001281 
L 65.716639 -29.535972 
L 65.908156 -28.395965 
L 66.56536 -26.477622 
L 66.674222 -26.274579 
L 66.813324 -26.108548 
L 67.01492 -25.938287 
L 67.222565 -25.840995 
L 67.408033 -25.795522 
L 67.535039 -25.699287 
L 67.575358 -25.444425 
L 67.563263 -25.093328 
L 67.420129 -25.061602 
L 67.216517 -25.138801 
L 67.020968 -25.119766 
L 66.885899 -24.972771 
L 66.732685 -24.676665 
L 66.601648 -24.523324 
L 66.432307 -24.473621 
L 66.248854 -24.500059 
L 66.083545 -24.455643 
L 65.972667 -24.19232 
L 65.998874 -23.968126 
L 66.226678 -23.613857 
L 66.264982 -23.404468 
L 65.248936 -24.295957 
L 63.702691 -26.519923 
L 62.331835 -28.498544 
L 60.874293 -30.596665 
L 60.037668 -31.802239 
L 59.664715 -32.519238 
L 59.711082 -33.112507 
L 60.005413 -33.366312 
L 61.130321 -33.607426 
L 61.219023 -33.677223 
L 61.360141 -33.878152 
L 61.483114 -33.947948 
L 61.541577 -33.927855 
L 61.751238 -33.823161 
L 61.85002 -33.805183 
L 63.009199 -33.906705 
L 63.295466 -33.982846 
L 63.432552 -34.201753 
L 63.394248 -34.652257 
L 63.396264 -34.754836 
L 63.458759 -34.969513 
L 63.458759 -35.05623 
L 63.380137 -35.210628 
L 63.132173 -35.490871 
L 63.021295 -35.648441 
L 62.862034 -35.965697 
L 62.767284 -36.225847 
L 62.618102 -37.458916 
L 62.555607 -37.716951 
L 62.42457 -37.994022 
L 62.249181 -38.222446 
L 61.892355 -38.449813 
L 61.686727 -38.619017 
L 61.479082 -38.838981 
L 61.404492 -38.948963 
L 61.291598 -39.347648 
L 60.781559 -39.962068 
L 59.999365 -40.179917 
L 58.102342 -40.342775 
L 57.922921 -40.238081 
L 57.592303 -39.863718 
L 57.376595 -39.714608 
L 57.223382 -39.744218 
L 57.086296 -39.812957 
L 56.927035 -39.778059 
L 56.840349 -39.67971 
L 56.707295 -39.405812 
L 56.376677 -38.904547 
L 56.171048 -38.500574 
L 55.937197 -38.149477 
L 55.606578 -37.925283 
L 55.261849 -37.886155 
L 52.792292 -38.105061 
L 50.794472 -38.28484 
L 50.147347 -38.458273 
L 49.601021 -38.772357 
L 48.260405 -39.936687 
L 47.185896 -40.867305 
L 45.597316 -42.244726 
L 45.094287 -42.68124 
L 43.649894 -43.934644 
L 42.482651 -44.946691 
L 41.371855 -45.909035 
L 40.783193 -46.210957 
L 39.388146 -46.331514 
L 38.827708 -46.648242 
L 38.654335 -46.975016 
L 38.597888 -47.363654 
L 38.596074 -47.741532 
L 38.589824 -49.043526 
L 38.579744 -50.9698 
L 38.57168 -52.705191 
L 38.827708 -53.525298 
L 39.24098 -53.452329 
L 40.801337 -52.812529 
L 41.849638 -52.542333 
L 42.283071 -52.356738 
L 42.41814 -52.400096 
L 42.613689 -53.099646 
L 42.706423 -53.326484 
L 42.809237 -53.437524 
L 43.162031 -53.330714 
L 43.480553 -53.03831 
L 43.859555 -52.852715 
L 44.389753 -53.067921 
L 44.0168 -53.497803 
L 43.718437 -53.713008 
L 43.389835 -53.798667 
L 42.56329 -53.903891 
L 42.214528 -54.021275 
L 40.089701 -55.03015 
L 39.446609 -55.515552 
L 39.081719 -56.137374 
L 38.980921 -57.059532 
L 38.192679 -57.920883 
L 37.13833 -58.5702 
L 36.237194 -58.849914 
L 35.503383 -58.776946 
L 35.156637 -58.795981 
L 34.773604 -58.986863 
L 34.539752 -59.214759 
L 34.523624 -59.350122 
L 34.590151 -59.434723 
L 34.604263 -59.510336 
L 34.588135 -59.635124 
L 34.592167 -59.801683 
L 34.53572 -59.943391 
L 34.338155 -59.985692 
L 31.749657 -59.90109 
L 31.235586 -60.083512 
L 30.965447 -60.593237 
L 31.050117 -60.904677 
L 31.239618 -61.331387 
L 31.356544 -61.717382 
L 31.22349 -61.909322 
L 30.848521 -62.051029 
L 30.628781 -62.291615 
L 30.4292 -62.562869 
L 29.771996 -63.004913 
L 29.475649 -63.285685 
L 29.394573 -63.401462 
L 29.239782 -63.622505 
L 29.074472 -64.001626 
L 28.921259 -64.177703 
L 28.514538 -64.45213 
L 28.394085 -64.600712 
L 28.382997 -64.815388 
L 28.542762 -65.184463 
L 28.55133 -65.362655 
L 28.341165 -65.602712 
L 27.998956 -65.785135 
L 27.676905 -66.0088 
L 27.52218 -66.369943 
L 27.481861 -66.732673 
L 27.27724 -66.912452 
L 27.023229 -67.039883 
L 26.843808 -67.249801 
L 26.841792 -67.429579 
L 27.003069 -67.758997 
L 27.025245 -67.891716 
L 26.94259 -68.06462 
L 26.835744 -68.172487 
L 26.713274 -68.268722 
L 26.592316 -68.408843 
L 26.344857 -68.790079 
L 26.258674 -69.02432 
L 26.342841 -69.264906 
L 26.809537 -70.006757 
L 26.902271 -70.249458 
L 27.005085 -70.882913 
L 27.077156 -71.068508 
L 27.262121 -71.313324 
L 27.28228 -71.483056 
L 27.226841 -71.599383 
L 26.399288 -72.744678 
L 23.590794 -75.363432 
L 23.322926 -75.613202 
L 22.741321 -76.603042 
L 22.626411 -77.638354 
L 23.928724 -81.414232 
L 23.799702 -82.036583 
L 23.234224 -83.222063 
L 23.266479 -83.807929 
L 23.505371 -84.127301 
L 23.77551 -84.352553 
L 23.950899 -84.626979 
L 23.904532 -85.092817 
L 23.793654 -86.110681 
L 23.801718 -86.616175 
L 23.958963 -86.831381 
L 26.532342 -86.1662 
L 27.19257 -86.162499 
L 27.811975 -86.298391 
L 29.074472 -86.753124 
L 29.68531 -86.782735 
L 32.713288 -85.681327 
L 32.981411 -85.704593 
L 33.519674 -85.839427 
L 34.07608 -86.062035 
L 34.646598 -86.28147 
L 37.630225 -86.381935 
L 38.160424 -86.496147 
L 38.636191 -86.735675 
L 40.271138 -88.288116 
L 41.549259 -89.499505 
L 43.111632 -90.982678 
L 44.432088 -92.233196 
L 44.958255 -92.557326 
L 45.615459 -92.718598 
L 47.052842 -92.770417 
L 48.935753 -92.835983 
L 50.820679 -92.902607 
L 52.70359 -92.966587 
L 54.586501 -93.03321 
L 56.471427 -93.098777 
L 58.354338 -93.164343 
L 60.24128 -93.229381 
L 62.124191 -93.296004 
L 64.009118 -93.360513 
L 65.892028 -93.427137 
L 67.776955 -93.492174 
L 69.659865 -93.557212 
L 71.546808 -93.623307 
L 73.429719 -93.689931 
L 75.314645 -93.753911 
L 77.197556 -93.820535 
L 78.163203 -93.854375 
L 78.272065 -94.124572 
L 78.274081 -94.881228 
L 78.312384 -95.257176 
L 78.360767 -95.461807 
L 78.501885 -95.567559 
L 78.814359 -95.641585 
L 79.584458 -95.656919 
L 81.91088 -95.254004 
L 85.579935 -94.61579 
L 87.587836 -94.267337 
L 87.694682 -94.231381 
L 88.051508 -94.158412 
L 88.23496 -96.516155 
L 88.430509 -97.06395 
L 90.138031 -98.123586 
L 91.6621 -99.836769 
L 92.377767 -100.234397 
L 93.928044 -100.535262 
L 94.663871 -100.938706 
L 95.15375 -101.54255 
L 95.205127 -101.666925 
L 95.452113 -102.264837 
L 95.607342 -103.053747 
L 95.782731 -105.052461 
L 95.90772 -105.429996 
L 96.204067 -105.89742 
L 97.339055 -107.051175 
L 97.357199 -107.110396 
L 97.369295 -107.170675 
L 97.365263 -107.295462 
L 97.367279 -107.325073 
L 97.363247 -107.353626 
L 97.353167 -107.381121 
L 97.339055 -107.406502 
L 97.097139 -108.010346 
L 97.020533 -108.57612 
L 97.103187 -109.140836 
L 98.846996 -113.484073 
L 99.141327 -113.949382 
L 99.514281 -114.353355 
L 99.971905 -114.711854 
L 100.820625 -115.154955 
L 101.096813 -115.414048 
L 101.254058 -115.893105 
L 101.243978 -118.154084 
L 101.235914 -119.916971 
L 101.221802 -122.654891 
L 101.215754 -123.947182 
L 101.266154 -124.129075 
L 101.520165 -124.538336 
L 101.606852 -124.750897 
L 101.500005 -126.761244 
L 101.524197 -127.131376 
L 101.639107 -127.490933 
L 101.794336 -127.557557 
L 102.001981 -127.568132 
L 102.26204 -127.758486 
L 102.255992 -129.90631 
L 102.249944 -131.197543 
L 102.243896 -133.727132 
L 102.235832 -136.257779 
L 102.225753 -138.787368 
L 102.217689 -141.318015 
L 102.211641 -143.848662 
L 102.203577 -146.379309 
L 102.199048 -147.8006 
L 102.195513 -148.909956 
L 102.189465 -151.440602 
L 102.181401 -153.97072 
L 102.173338 -156.499781 
L 102.165274 -159.031485 
L 102.157358 -161.514527 
L 102.15721 -161.561074 
L 102.149146 -164.091193 
L 102.141082 -166.621839 
L 102.133018 -169.151957 
L 102.124954 -171.682604 
L 105.804089 -172.422869 
L 109.483224 -173.163662 
L 113.162359 -173.903397 
L 116.84351 -174.644191 
L 118.786899 -175.033887 
L 123.058728 -175.893123 
L 127.330556 -176.750772 
L 129.273945 -177.141526 
L 131.787853 -177.64702 
L 132.664797 -177.976438 
L 133.509486 -178.566535 
L 135.045651 -179.950829 
L 136.275389 -181.061226 
L 137.507144 -182.170565 
L 138.736882 -183.280961 
L 139.96662 -184.390301 
L 141.196358 -185.500697 
L 142.426096 -186.610036 
L 143.655835 -187.719904 
L 144.887589 -188.830301 
L 146.113295 -189.93964 
L 147.345049 -191.050037 
L 148.574787 -192.159376 
L 149.803518 -193.269772 
L 151.035272 -194.379111 
L 152.262994 -195.488451 
L 153.492732 -196.59779 
L 154.722471 -197.708186 
L 155.847379 -198.723406 
L 156.583206 -199.374839 
L 158.095179 -200.670302 
L 159.48821 -201.862127 
L 160.881241 -203.052895 
L 162.274273 -204.245779 
L 163.665288 -205.436547 
L 165.598598 -207.092624 
L 168.154841 -208.671502 
L 169.483361 -209.492138 
L 170.80785 -210.313832 
L 172.13637 -211.134468 
L 173.464891 -211.956161 
L 174.789379 -212.777855 
L 176.1179 -213.598491 
L 177.44642 -214.419127 
L 178.770909 -215.24082 
L 180.099429 -216.061456 
L 181.427949 -216.882092 
L 182.754454 -217.702728 
L 184.080958 -218.523364 
L 185.409479 -219.345058 
L 186.735983 -220.164636 
L 188.064504 -220.98633 
L 189.391008 -221.808023 
L 190.719529 -222.629717 
L 192.046033 -223.450353 
L 193.374554 -224.272046 
L 194.703074 -225.091625 
L 196.029579 -225.913318 
L 197.356083 -226.733954 
L 198.684604 -227.555648 
L 200.011108 -228.375226 
L 201.337613 -229.19692 
L 202.666133 -230.017556 
L 203.992638 -230.838192 
L 205.319142 -231.659885 
L 206.647663 -232.481579 
L 207.974167 -233.302215 
L 209.302688 -234.122851 
L 210.629192 -234.944544 
L 211.955697 -235.76518 
L 213.284217 -236.585816 
L 214.610722 -237.406452 
L 215.937226 -238.228146 
L 217.265747 -239.048782 
L 218.592251 -239.869418 
L 219.918756 -240.690054 
L 221.247276 -241.512805 
L 222.575797 -242.333441 
L 223.900285 -243.154077 
L 225.228806 -243.97577 
L 226.55531 -244.795349 
L 227.881815 -245.615985 
L 229.210335 -246.437678 
L 230.538855 -247.258843 
L 231.86536 -248.078422 
L 233.19388 -248.900115 
L 234.522401 -249.72128 
L 235.850921 -250.541916 
L 237.17541 -251.363081 
L 238.50393 -252.185303 
L 239.832451 -253.005939 
L 241.156939 -253.826575 
L 242.48546 -254.648268 
L 243.81398 -255.468904 
L 245.138469 -256.289011 
L 246.466989 -257.110176 
L 247.79551 -257.931341 
L 249.122014 -258.751977 
L 250.448519 -259.572613 
L 251.777039 -260.393778 
L 253.103544 -261.216 
L 254.823161 -260.812027 
L 256.544795 -260.409641 
L 258.268444 -260.007254 
L 259.988062 -259.604867 
L 261.707679 -259.200894 
L 263.431329 -258.799037 
L 265.150946 -258.39665 
L 266.870564 -257.993735 
L 268.594213 -257.590291 
L 270.313831 -257.187375 
L 272.035464 -256.784989 
L 273.755082 -256.382073 
L 275.476715 -255.979158 
L 277.198349 -255.575185 
L 278.919982 -255.173856 
L 280.641616 -254.770412 
L 282.623309 -254.305632 
L 284.911428 -253.064631 
L 286.008113 -252.114978 
L 288.448438 -250.007339 
L 290.88977 -247.899172 
L 293.327071 -245.793119 
L 295.768404 -243.68601 
L 296.655428 -242.91825 
L 296.939679 -242.776542 
L 297.242074 -242.810383 
L 298.473828 -243.462873 
L 301.812265 -245.22999 
L 305.148686 -246.997107 
L 308.483091 -248.764224 
L 311.821527 -250.532927 
L 311.823543 -250.533984 
L 311.835983 -250.540046 
L 312.071507 -249.259672 
L 312.305359 -247.977428 
L 312.537195 -246.695185 
L 312.773063 -245.413998 
L 313.006915 -244.132283 
L 313.240766 -242.849511 
L 313.476634 -241.566738 
L 313.70847 -240.286081 
L 313.944338 -239.003308 
L 314.17819 -237.721593 
L 314.414058 -236.438821 
L 314.647909 -235.157106 
L 314.881761 -233.875391 
L 315.117629 -232.592619 
L 315.27689 -231.723337 
L 315.436151 -230.854055 
L 315.583317 -230.029189 
L 315.591381 -229.625216 
L 315.607508 -228.559235 
L 315.633716 -227.052268 
L 315.661939 -225.323222 
L 315.690163 -223.595233 
L 315.71637 -222.087209 
L 315.734514 -221.021228 
L 315.740562 -220.617255 
L 315.74661 -220.081092 
L 315.827249 -219.752203 
L 316.133675 -219.45081 
L 317.054971 -218.975983 
L 317.427924 -218.717948 
L 318.09924 -217.913175 
L 318.562912 -217.204636 
L 318.887482 -216.702314 
L 319.216084 -216.202107 
L 319.542671 -215.700842 
L 319.869257 -215.199577 
L 320.195843 -214.698312 
L 320.524445 -214.198105 
L 320.849016 -213.694725 
L 321.177618 -213.194518 
L 321.504204 -212.693253 
L 321.828774 -212.191989 
L 322.157376 -211.690724 
L 322.483963 -211.189459 
L 322.810549 -210.688194 
L 323.137135 -210.186929 
L 323.465737 -209.686722 
L 323.790307 -209.1844 
L 324.112862 -208.690538 
L 323.326636 -208.245322 
L 322.84482 -207.455354 
L 322.683543 -206.508873 
L 322.842804 -205.586715 
L 323.07464 -205.06853 
L 323.350827 -204.623314 
L 323.699589 -204.232031 
L 325.286153 -202.985214 
L 325.828447 -202.391945 
L 326.965451 -201.146186 
L 328.102455 -199.899369 
L 329.237443 -198.65361 
L 330.374447 -197.40785 
L 330.836103 -196.901298 
L 331.11229 -196.456082 
L 331.154625 -196.118733 
L 331.011492 -195.768694 
L 330.612331 -195.046936 
L 329.830136 -193.634617 
L 329.047942 -192.222827 
L 328.267764 -190.811566 
L 327.487586 -189.400304 
L 327.193255 -188.868372 
L 326.584434 -187.261998 
L 326.513875 -186.408579 
L 326.435253 -185.475845 
L 326.35663 -184.540997 
L 326.275991 -183.608264 
L 326.197369 -182.673416 
L 326.118746 -181.741211 
L 326.040124 -180.806892 
L 325.961501 -179.874159 
L 325.882878 -178.939839 
L 325.804256 -178.006049 
L 325.727649 -177.072787 
L 325.647011 -176.138996 
L 325.568388 -175.205734 
L 325.489765 -174.271415 
L 325.411143 -173.338681 
L 325.33252 -172.404891 
L 325.253898 -171.470571 
L 325.175275 -170.537838 
L 325.096652 -169.603519 
L 325.01803 -168.670786 
L 324.937391 -167.735937 
L 324.858769 -166.803733 
L 324.780146 -165.869413 
L 324.703539 -164.93668 
L 324.624917 -164.002361 
L 324.546294 -163.06857 
L 324.467671 -162.135308 
L 324.389049 -161.201517 
L 324.310426 -160.268256 
L 324.229788 -159.333936 
L 324.151165 -158.401203 
L 324.072542 -157.466883 
L 323.99392 -156.53415 
L 323.915297 -155.599831 
L 323.836675 -154.66604 
L 323.758052 -153.732249 
L 323.681445 -152.798988 
L 323.602823 -151.865726 
L 323.522184 -150.931935 
L 323.443562 -149.998673 
L 323.364939 -149.065411 
L 323.301185 -148.30821 
L 323.286316 -148.13162 
L 323.207694 -147.19783 
L 323.129071 -146.264039 
L 323.050449 -145.331306 
L 322.971826 -144.396458 
L 322.893203 -143.463724 
L 322.812565 -142.529934 
L 322.733942 -141.596143 
L 322.657336 -140.661295 
L 322.578713 -139.727504 
L 322.50009 -138.793713 
L 322.421468 -137.86098 
L 322.342845 -136.926132 
L 322.264222 -135.993399 
L 322.1856 -135.059608 
L 322.104961 -134.126875 
L 322.026339 -133.192027 
L 321.947716 -132.258236 
L 321.869093 -131.324445 
L 321.790471 -130.391712 
L 321.711848 -129.457921 
L 321.635242 -128.524131 
L 321.556619 -127.591398 
L 321.47598 -126.657607 
L 321.433645 -126.139422 
L 321.366598 -125.897194 
L 321.308655 -125.687861 
L 321.052628 -125.310326 
L 320.389376 -124.586982 
L 319.296723 -123.395156 
L 318.202054 -122.1991 
L 317.107386 -121.006217 
L 316.012717 -119.812276 
L 314.918049 -118.619393 
L 313.82338 -117.424395 
L 312.730727 -116.230454 
L 311.636059 -115.03757 
L 310.54139 -113.84363 
L 309.446722 -112.650747 
L 308.354069 -111.455748 
L 307.261416 -110.261807 
L 306.166748 -109.067867 
L 305.072079 -107.874983 
L 303.975394 -106.678928 
L 302.880726 -105.487102 
L 302.126755 -104.662236 
L 300.983703 -103.415419 
L 299.919274 -102.255319 
L 299.362868 -101.459006 
L 298.78227 -100.624622 
L 298.197641 -99.791825 
L 297.617043 -98.956912 
L 297.036445 -98.123586 
L 296.451816 -97.290788 
L 295.871218 -96.456933 
L 295.288604 -95.623078 
L 294.705991 -94.79081 
L 294.123377 -93.958012 
L 293.542779 -93.124157 
L 292.960166 -92.290302 
L 292.377552 -91.457505 
L 291.796954 -90.623121 
L 291.212325 -89.789795 
L 290.631727 -88.954882 
L 290.049113 -88.123142 
L 289.482627 -87.315725 
L 288.978636 -86.210088 
L 288.341591 -84.815747 
L 288.051293 -84.179648 
L 287.946462 -83.787837 
L 287.922271 -83.352667 
L 288.000893 -82.934946 
L 288.275065 -82.061963 
L 288.299256 -81.6453 
L 288.125883 -81.165714 
L 287.829537 -81.0055 
L 287.456583 -80.972717 
L 287.065486 -80.880184 
L 286.870945 -80.728958 
L 286.248013 -80.015661 
L 285.862963 -79.740177 
L 285.792405 -79.634424 
L 285.822644 -79.528144 
L 286.032304 -79.335675 
L 286.096815 -79.214589 
L 286.221805 -78.432552 
L 286.199629 -78.051316 
L 286.048432 -77.679598 
L 285.393244 -77.118583 
L 285.077028 -77.056271 
L 284.615081 -76.965242 
L 283.824823 -76.898619 
L 283.121252 -76.599869 
L 282.623309 -76.346593 
L 281.984248 -75.43501 
L 281.9782 -74.229437 
L 282.351154 -72.808129 
L 282.623309 -71.766471 
L 282.826921 -70.826864 
L 282.964007 -70.174374 
L 283.105124 -69.522412 
L 283.246242 -68.869922 
L 283.385343 -68.219018 
L 283.524445 -67.565999 
L 283.665562 -66.915624 
L 283.804664 -66.263134 
L 283.943765 -65.611172 
L 284.084883 -64.95974 
L 284.223984 -64.306192 
L 284.363086 -63.655288 
L 284.502187 -63.002798 
L 284.643305 -62.351894 
L 284.782407 -61.699404 
L 284.923524 -61.047442 
L 285.062626 -60.394952 
L 280.238423 -60.605927 
L 280.217541 -60.602295 
L 279.651777 -60.503877 
L 279.472357 -60.357939 
L 279.482436 -60.006313 
L 279.18609 -59.792165 
L 278.407927 -59.042912 
L 278.272858 -58.857317 
L 278.168028 -58.651629 
L 278.16198 -58.569143 
L 278.260762 -58.424262 
L 278.288986 -58.308464 
L 278.234555 -58.146663 
L 278.109565 -58.116524 
L 277.972479 -58.12657 
L 277.887809 -58.092201 
L 277.706372 -57.809314 
L 277.746691 -57.709907 
L 278.022878 -57.672894 
L 277.666053 -57.20124 
L 277.194317 -57.024105 
L 276.66815 -56.923641 
L 276.146016 -56.681997 
L 276.214558 -56.846442 
L 276.256894 -57.052658 
L 276.214558 -57.216045 
L 276.025058 -57.254116 
L 275.916196 -57.170572 
L 275.771046 -56.828464 
L 275.625897 -56.681997 
L 275.631945 -56.90249 
L 275.625897 -56.974402 
L 275.305358 -56.863891 
L 274.938453 -56.844327 
L 274.718713 -56.927871 
L 274.825559 -57.126685 
L 274.825559 -57.254116 
L 274.287296 -57.208114 
L 273.787337 -57.019875 
L 272.033448 -56.117281 
L 271.495186 -56.011529 
L 270.950876 -56.136317 
L 270.870237 -55.802669 
L 270.692832 -55.785749 
L 270.442853 -55.909478 
L 270.140458 -55.995666 
L 270.140458 -55.843383 
L 270.301735 -55.796324 
L 270.438821 -55.713308 
L 270.561794 -55.589578 
L 270.684768 -55.425134 
L 270.428741 -55.208342 
L 269.886446 -54.587049 
L 269.872335 -54.528885 
L 269.900558 -54.363383 
L 269.886446 -54.307335 
L 269.827983 -54.295702 
L 269.658642 -54.321082 
L 269.608243 -54.307335 
L 269.523573 -54.259746 
L 269.263513 -54.164569 
L 269.209082 -54.091072 
L 269.285689 -53.849957 
L 269.408663 -53.698203 
L 269.416727 -53.618889 
L 269.142556 -53.595623 
L 269.10022 -53.66965 
L 268.989342 -53.8103 
L 268.874432 -53.899661 
L 268.820001 -53.817703 
L 268.793794 -53.808185 
L 268.662756 -53.46925 
L 268.160781 -52.83791 
L 267.840243 -52.581461 
L 267.398746 -52.478353 
L 267.170942 -52.370486 
L 267.035873 -51.898832 
L 266.864516 -51.792022 
L 266.568169 -51.851243 
L 266.374637 -51.994537 
L 266.207312 -52.174316 
L 265.999667 -52.337703 
L 265.975476 -52.00617 
L 265.937172 -51.885084 
L 265.808151 -51.745491 
L 265.673081 -51.644498 
L 265.53398 -51.597967 
L 265.467453 -51.71588 
L 265.366654 -51.644498 
L 264.655019 -50.953937 
L 264.598572 -50.621875 
L 264.344561 -50.246984 
L 264.211507 -49.942947 
L 264.521965 -49.823976 
L 264.398992 -49.371886 
L 264.294161 -49.153508 
L 264.136916 -48.972143 
L 263.989751 -48.925612 
L 263.548255 -48.843126 
L 263.459552 -48.768571 
L 263.292227 -47.677209 
L 263.203525 -47.435037 
L 262.93137 -47.299146 
L 262.612847 -47.365769 
L 262.239894 -47.500603 
L 261.79235 -47.57463 
L 261.254582 -47.594149 
L 260.568659 -47.619046 
L 260.250137 -47.714751 
L 260.064668 -47.598953 
L 259.921535 -47.702061 
L 259.776385 -47.88184 
L 259.582853 -47.993937 
L 259.397384 -47.967499 
L 259.276426 -47.869149 
L 259.18974 -47.763397 
L 259.117165 -47.714751 
L 258.961936 -47.743304 
L 258.927665 -47.820503 
L 258.919601 -47.933658 
L 258.84501 -48.070607 
L 258.623254 -48.196452 
L 257.639463 -48.552836 
L 257.314893 -48.484626 
L 256.905652 -48.195394 
L 256.629465 -48.146748 
L 255.982341 -48.0907 
L 254.835257 -48.375702 
L 254.452224 -48.571872 
L 253.553104 -49.303147 
L 250.839616 -51.00787 
L 248.68455 -51.909407 
L 242.787854 -53.443869 
L 233.288631 -53.392051 
L 229.744566 -53.817703 
L 227.865687 -53.662247 
L 227.336999 -53.545686 
L 217.850376 -51.454144 
L 217.035927 -51.104105 
L 213.336632 -48.973201 
L 212.991902 -48.630035 
L 212.909248 -48.416945 
L 212.834657 -47.916738 
L 212.743939 -47.711579 
L 212.588709 -47.546077 
L 212.510087 -47.531271 
L 212.411305 -47.546077 
L 212.20366 -47.470993 
L 211.828691 -47.223004 
L 211.175518 -46.583733 
L 207.826975 -42.518139 
L 207.691932 -42.354179 
L 207.46816 -42.154837 
L 207.256484 -42.011543 
L 207.121414 -41.953379 
L 206.708142 -41.921653 
L 202.565335 -42.420803 
L 202.212541 -42.39648 
L 201.172304 -42.094558 
L 200.448573 -42.0935 
L 194.762376 -42.776907 
L 194.078125 -42.859145 
L 188.939432 -44.422161 
L 188.223765 -44.847284 
L 187.889115 -45.265534 
L 187.328677 -46.219417 
L 186.94766 -46.649828 
L 186.094907 -47.308663 
L 185.629219 -47.539732 
L 185.103052 -47.655001 
L 184.871216 -47.657116 
L 184.387385 -47.596838 
L 184.163613 -47.522811 
L 183.941857 -47.40807 
L 183.861218 -47.350964 
L 183.786628 -47.358367 
L 183.591079 -47.436095 
L 183.447946 -47.529156 
L 181.500524 -49.354966 
L 181.014677 -49.953522 
L 180.756633 -50.185648 
L 180.500941 -50.309987 
L 180.480446 -50.319953 
L 179.901865 -50.480168 
L 179.617614 -50.618703 
L 178.958393 -51.150636 
L 178.420131 -51.493272 
L 177.962507 -51.94219 
L 177.738735 -52.118267 
L 177.200472 -52.3303 
L 172.255312 -53.052058 
L 171.586012 -52.984376 
L 170.920744 -52.680868 
L 163.828581 -48.288985 
L 163.217744 -48.08647 
L 162.518204 -48.0907 
L 160.484097 -48.474051 
L 160.048648 -48.388392 
L 158.863261 -46.952808 
L 157.93995 -46.116838 
L 157.522645 -45.905862 
L 157.410024 -45.886598 
L 157.058973 -45.826548 
L 155.607479 -45.819146 
L 154.956322 -45.892114 
L 154.361613 -46.126355 
L 153.7286 -46.610171 
L 153.020997 -47.285398 
L 151.865849 -48.652243 
L 151.381964 -49.565251 
L 149.795454 -52.558724 
L 146.611238 -56.137374 
L 143.873559 -58.802326 
L 142.571246 -59.571144 
L 142.22072 -59.64916 
L 141.160071 -59.885227 
L 140.785101 -59.804856 
L 139.658177 -59.156067 
L 139.454565 -59.100018 
L 139.325543 -59.158182 
L 139.20257 -59.268693 
L 139.025165 -59.371272 
L 133.504446 -61.615595 
L 127.983728 -63.859918 
L 127.3487 -64.000569 
L 124.467887 -63.4882 
L 123.925592 -63.207957 
L 123.70182 -62.90392 
L 123.375234 -62.151494 
L 123.105095 -61.824191 
L 122.506353 -61.385849 
L 122.282581 -61.288028 
L 121.611265 -61.156896 
L 118.817139 -61.283798 
L 116.84351 -60.918425 
L 115.710538 -60.988221 
L 115.267026 -61.190736 
L 114.827545 -61.621147 
L 114.380001 -61.827364 
L 113.755052 -61.758625 
L 109.87328 -60.784812 
L 107.549914 -60.201955 
L 106.493549 -59.774187 
L 105.580317 -59.108478 
L 102.512019 -56.098246 
L 101.967709 -55.821704 
L 101.381064 -55.706963 
L 100.11907 -55.665191 
L 100.078751 -50.766227 
L 100.012783 -50.295994 
L 99.397355 -45.909035 
L 96.28269 -40.877881 
L 95.020696 -39.635294 
L 90.754916 -36.337945 
L 90.674277 -36.12221 
L 90.86781 -31.027076 
L 90.341643 -28.338859 
L 90.331563 -27.450541 
L 90.817411 -25.952035 
L 90.908129 -25.251956 
L 90.577511 -24.57197 
L 90.244877 -24.217701 
L 90.029169 -23.924768 
L 89.940466 -23.589534 
L 90.05336 -22.427319 
L 90.115855 -22.22639 
L 90.226733 -22.009598 
L 90.29326 -21.940859 
L 90.375915 -21.890098 
L 90.833538 -21.384603 
L 91.073438 -21.009183 
L 91.170204 -20.604153 
L 91.031103 -20.162109 
L 90.795235 -19.91465 
L 89.793301 -19.296 
" style="stroke: #000000"/>
    </defs>
    <g clip-path="url(#pc507e14b7d)">
     <use xlink:href="#m3ab2351b86" x="0" y="280.512" style="fill: #f5f5f5; stroke: #000000"/>
    </g>
   </g>
  </g>
 </g>
 <defs>
  <clipPath id="pc507e14b7d">
   <rect x="7.2" y="7.2" width="339.381036" height="266.112"/>
  </clipPath>
 </defs>
</svg>
