<?xml version="1.0" encoding="utf-8" standalone="no"?>
<!DOCTYPE svg PUBLIC "-//W3C//DTD SVG 1.1//EN"
  "http://www.w3.org/Graphics/SVG/1.1/DTD/svg11.dtd">
<svg xmlns:xlink="http://www.w3.org/1999/xlink" width="261.100961pt" height="280.512pt" viewBox="0 0 261.100961 280.512" xmlns="http://www.w3.org/2000/svg" version="1.1">
 <metadata>
  <rdf:RDF xmlns:dc="http://purl.org/dc/elements/1.1/" xmlns:cc="http://creativecommons.org/ns#" xmlns:rdf="http://www.w3.org/1999/02/22-rdf-syntax-ns#">
   <cc:Work>
    <dc:type rdf:resource="http://purl.org/dc/dcmitype/StillImage"/>
    <dc:date>2024-03-04T13:11:12.344519</dc:date>
    <dc:format>image/svg+xml</dc:format>
    <dc:creator>
     <cc:Agent>
      <dc:title>Matplotlib v3.8.0, https://matplotlib.org/</dc:title>
     </cc:Agent>
    </dc:creator>
   </cc:Work>
  </rdf:RDF>
 </metadata>
 <defs>
  <style type="text/css">*{stroke-linejoin: round; stroke-linecap: butt}</style>
 </defs>
 <g id="figure_1">
  <g id="patch_1">
   <path d="M 0 280.512 
L 261.100961 280.512 
L 261.100961 0 
L 0 0 
z
" style="fill: #ffffff"/>
  </g>
  <g id="axes_1">
   <g id="PatchCollection_1">
    <path d="M 236.839374 41.053833 
L 237.250187 41.958408 
L 237.314488 42.150571 
L 237.368073 42.649728 
L 237.500247 42.872356 
L 237.668145 42.997731 
L 237.807464 43.22036 
L 238.389747 44.897104 
L 238.796988 45.519292 
L 239.436428 46.036024 
L 240.218759 46.299663 
L 240.815332 46.931225 
L 241.190422 47.730344 
L 241.326169 48.821224 
L 241.315452 49.967174 
L 241.401187 50.572958 
L 241.751272 51.000639 
L 242.687281 51.727489 
L 242.535028 52.004569 
L 241.552443 52.272545 
L 240.323619 52.666856 
L 239.80668 52.761126 
L 239.364343 53.171897 
L 239.147325 53.193664 
L 239.179687 52.369633 
L 239.151559 51.871418 
L 239.058736 51.589096 
L 238.611496 51.146238 
L 238.173381 50.813819 
L 237.17569 50.672712 
L 236.434333 50.254044 
L 236.127991 49.883244 
L 235.108159 49.703092 
L 234.588616 49.929819 
L 234.718005 50.504738 
L 234.270868 50.972101 
L 233.70535 51.091841 
L 233.419878 50.683872 
L 232.981601 50.399369 
L 232.576892 50.391247 
L 232.561107 50.791951 
L 232.521728 51.183143 
L 232.111976 51.507959 
L 231.771819 51.905112 
L 231.846649 52.519098 
L 231.843837 52.83648 
L 232.012606 53.133564 
L 232.293889 53.176004 
L 232.521728 53.283028 
L 232.527353 53.792315 
L 232.350145 54.113387 
L 232.088552 54.041423 
L 231.565278 53.41703 
L 231.213071 53.515343 
L 230.959485 54.060563 
L 231.27685 54.589009 
L 230.896354 54.713203 
L 230.643233 55.311335 
L 230.074723 55.405821 
L 229.922202 56.425764 
L 229.511763 56.733121 
L 229.105833 56.80461 
L 229.145039 56.149739 
L 229.403413 55.184344 
L 229.11938 54.394733 
L 228.661914 54.360738 
L 227.181923 55.800728 
L 226.408457 56.836445 
L 225.922838 57.191251 
L 225.485194 57.240077 
L 225.554746 57.870747 
L 225.382775 60.516378 
L 225.194316 60.53114 
L 224.898969 60.398283 
L 224.505173 60.630783 
L 224.032618 61.250784 
L 224.147944 61.324594 
L 224.252019 61.614297 
L 224.004405 61.807313 
L 223.682138 61.749906 
L 223.097662 61.26852 
L 222.643855 61.02533 
L 221.700357 61.037607 
L 221.01837 61.552403 
L 220.842594 62.416061 
L 220.810094 62.756865 
L 220.298784 62.826436 
L 220.212035 63.192717 
L 220.045986 63.478951 
L 219.754341 64.58328 
L 219.6648 65.313834 
L 219.42069 65.441467 
L 219.010533 64.457211 
L 218.593479 64.615566 
L 218.538629 65.542747 
L 217.878155 65.897105 
L 218.114432 66.100081 
L 218.29164 66.332582 
L 218.586987 66.823416 
L 218.249448 66.934131 
L 217.996294 67.138953 
L 217.625001 67.757109 
L 217.743139 67.659311 
L 217.653129 68.104014 
L 217.492798 68.64467 
L 217.408413 68.853183 
L 217.273397 69.701994 
L 216.918981 70.006459 
L 216.654546 69.87495 
L 216.329866 69.468507 
L 215.508172 69.137577 
L 214.924719 69.451947 
L 214.705287 70.416103 
L 214.463384 71.57676 
L 214.502764 73.084323 
L 213.988458 74.567564 
L 213.487936 75.005849 
L 213.394231 75.770811 
L 213.060775 76.049267 
L 212.498532 75.157562 
L 212.041215 75.189903 
L 210.708596 76.020511 
L 210.294776 77.308083 
L 209.844723 78.88392 
L 209.554181 79.439781 
L 208.643698 79.833441 
L 207.807386 80.995325 
L 207.543401 82.446286 
L 207.067243 84.340076 
L 206.354845 85.544389 
L 206.764679 86.608104 
L 206.663334 87.365775 
L 206.490749 88.051205 
L 206.721405 89.387929 
L 207.491305 90.36579 
L 208.182313 91.019654 
L 208.629326 91.428684 
L 209.370825 91.354302 
L 209.650623 92.003852 
L 210.135666 92.655448 
L 210.519802 92.946511 
L 210.739202 92.97788 
L 211.273639 92.874547 
L 211.464911 92.946511 
L 211.794012 93.405977 
L 211.760258 93.553596 
L 211.577424 93.743656 
L 211.464911 94.339669 
L 211.397404 94.483598 
L 211.127372 95.4911 
L 211.102057 95.730982 
L 210.556369 96.168304 
L 210.168199 97.177652 
L 208.801165 102.888677 
L 208.536759 104.898145 
L 209.102137 106.597614 
L 208.88555 107.201008 
L 208.809604 107.909581 
L 208.843357 109.385775 
L 209.102137 111.424767 
L 209.248404 111.867626 
L 209.88129 112.648163 
L 210.367501 112.979807 
L 210.045468 113.226718 
L 209.82616 114.222539 
L 209.956368 114.543187 
L 209.309175 115.397463 
L 209.415322 116.288384 
L 208.996259 117.360339 
L 208.696904 117.960399 
L 208.334986 117.911608 
L 208.067796 117.460627 
L 207.590914 117.631899 
L 206.840625 117.770556 
L 206.186317 117.641467 
L 205.572623 117.79139 
L 205.007027 117.672711 
L 204.597945 117.781019 
L 203.692539 117.727727 
L 203.076214 118.216795 
L 202.976319 119.069997 
L 202.31775 119.198792 
L 201.83676 119.734371 
L 201.427475 119.888226 
L 200.400548 119.806443 
L 198.687036 120.377027 
L 197.381649 121.308311 
L 196.085487 122.007423 
L 195.673135 122.502312 
L 195.260899 123.241589 
L 194.686467 124.631805 
L 194.410747 125.258549 
L 194.166031 125.140453 
L 193.83693 124.80831 
L 193.535707 124.152686 
L 193.266826 123.701788 
L 192.679903 123.649559 
L 191.999866 123.804574 
L 191.454481 124.229051 
L 191.270935 124.700737 
L 191.064714 125.172612 
L 191.063332 125.420105 
L 191.084359 125.712933 
L 190.901662 126.049624 
L 190.855113 126.296958 
L 190.765324 126.874981 
L 190.613431 127.118553 
L 190.514982 127.578018 
L 190.394978 127.848691 
L 190.122462 128.163219 
L 189.963118 128.43256 
L 189.932727 128.895521 
L 189.896161 130.008202 
L 189.502716 130.160866 
L 189.29798 130.565108 
L 189.145467 131.052055 
L 187.906915 132.627098 
L 186.610727 134.377552 
L 184.970706 134.313827 
L 183.093761 134.950395 
L 180.464925 137.751497 
L 179.109217 138.944918 
L 178.072348 139.14722 
L 177.485926 139.709879 
L 176.359383 140.070603 
L 175.774148 140.09306 
L 175.358084 140.611613 
L 174.308715 140.436948 
L 173.139167 140.788422 
L 172.512216 141.7147 
L 172.062425 141.715079 
L 172.016969 141.288146 
L 171.36538 141.603792 
L 170.759097 142.32419 
L 170.672644 143.498177 
L 171.099345 143.744604 
L 172.06472 144.146773 
L 172.199797 144.573906 
L 172.446924 144.910072 
L 172.267859 145.58555 
L 172.335687 146.681812 
L 171.864569 146.867362 
L 171.550597 147.16008 
L 171.304014 147.452762 
L 171.102232 147.632937 
L 170.855342 147.610725 
L 170.384256 147.386409 
L 169.710545 147.342384 
L 169.330201 147.6354 
L 168.140911 148.245085 
L 167.895321 148.943072 
L 167.60455 149.303673 
L 166.999964 149.665 
L 165.949573 149.697076 
L 165.481815 150.167574 
L 164.869917 150.842064 
L 164.39926 151.0914 
L 163.584985 151.437001 
L 162.909478 151.292042 
L 161.973517 151.41391 
L 161.0403 152.767214 
L 160.694225 154.528171 
L 159.80736 154.291591 
L 159.048269 152.838474 
L 158.47145 152.311139 
L 157.534003 152.728379 
L 157.24075 153.258879 
L 157.467088 154.476115 
L 157.146426 154.557306 
L 156.389776 154.465044 
L 156.049424 154.476115 
L 155.669692 154.623734 
L 155.045245 154.992783 
L 154.727396 155.068438 
L 154.440487 154.978021 
L 154.327974 154.771354 
L 154.18452 154.568377 
L 149.602426 153.760161 
L 149.444908 153.972364 
L 149.399903 154.631115 
L 149.290203 154.882068 
L 149.011733 155.134866 
L 148.668568 155.328617 
L 148.347906 155.406117 
L 148.111629 155.62201 
L 147.543438 156.640584 
L 147.293096 156.95243 
L 146.955557 157.081597 
L 146.139555 156.535941 
L 145.599632 157.56613 
L 145.607393 158.354933 
L 145.357872 160.248033 
L 145.031584 160.668748 
L 141.824962 161.004582 
L 142.328458 161.44744 
L 142.246886 161.899525 
L 141.154704 162.449773 
L 139.943029 162.284055 
L 138.849669 162.691638 
L 138.29246 164.13201 
L 137.72777 164.569082 
L 137.223426 163.929825 
L 136.361023 163.474607 
L 135.788637 164.412745 
L 135.299206 164.595424 
L 134.711325 165.045663 
L 134.221893 165.602926 
L 133.791531 166.643643 
L 132.804229 167.282096 
L 132.582016 167.662216 
L 132.514508 168.001741 
L 132.213535 168.708469 
L 132.129151 169.084898 
L 132.143215 169.481625 
L 132.303546 170.147758 
L 132.379492 171.223534 
L 132.506069 171.703297 
L 132.72547 171.913655 
L 133.05457 171.869369 
L 133.906857 172.279013 
L 134.514427 173.13705 
L 134.660694 174.172231 
L 133.354695 176.123389 
L 132.790243 178.007505 
L 133.307725 181.032842 
L 134.261273 185.568447 
L 134.230332 186.815831 
L 133.965926 187.280832 
L 133.586194 187.463511 
L 133.18396 187.319582 
L 132.837983 186.815831 
L 132.79579 186.217973 
L 133.015191 185.546305 
L 133.544002 184.309992 
L 132.345738 182.597607 
L 132.221974 181.981296 
L 131.915376 181.501533 
L 131.493452 181.339152 
L 131.046213 181.667605 
L 130.025157 182.660346 
L 129.943585 182.782132 
L 129.698869 183.140109 
L 129.510409 183.356002 
L 127.881783 183.976003 
L 127.881783 184.309992 
L 128.278392 184.512969 
L 129.113801 184.74916 
L 129.510409 184.961363 
L 129.935146 184.638445 
L 130.489273 184.468683 
L 130.961828 184.656898 
L 131.164351 185.394995 
L 130.936512 185.730829 
L 129.850761 185.974401 
L 129.510409 186.169996 
L 129.327576 185.902436 
L 129.130678 185.708686 
L 128.91409 185.59059 
L 128.675 185.549995 
L 128.348712 185.653329 
L 128.374028 185.900591 
L 128.523107 186.206901 
L 128.568113 186.478152 
L 128.168691 187.679405 
L 127.881783 188.958158 
L 127.660618 190.25342 
L 128.036489 191.089412 
L 128.399343 192.008343 
L 128.922529 192.390308 
L 129.324763 192.576678 
L 130.053285 193.408882 
L 130.433016 193.630311 
L 131.11372 193.525132 
L 131.257174 193.12656 
L 131.17279 192.66894 
L 131.164351 192.390308 
L 131.783173 192.318344 
L 132.489192 194.062098 
L 133.181148 194.528944 
L 135.780199 194.261384 
L 136.635298 194.528944 
L 137.029094 194.872159 
L 137.327253 195.292874 
L 137.66198 195.647161 
L 138.154224 195.798471 
L 140.522624 195.778173 
L 141.045809 195.850137 
L 141.403038 196.204424 
L 142.196255 197.640022 
L 143.273568 199.204788 
L 143.501407 199.666098 
L 143.715181 200.317469 
L 144.235554 201.092471 
L 145.408503 202.326938 
L 145.518203 202.908189 
L 145.66447 203.085332 
L 145.985132 202.791939 
L 146.210158 202.64432 
L 146.404243 202.780867 
L 146.539259 203.072416 
L 146.651772 203.771763 
L 146.817729 204.127894 
L 147.079321 204.391764 
L 147.416861 204.493252 
L 148.044121 204.878908 
L 149.208631 206.810877 
L 149.872458 207.589569 
L 152.516514 208.242785 
L 156.631679 213.50357 
L 157.146426 213.295058 
L 158.710357 212.418568 
L 159.14072 212.263568 
L 160.192717 213.979643 
L 160.462748 214.243512 
L 161.053442 214.599644 
L 161.382542 214.909645 
L 161.796028 215.728933 
L 161.807274 215.878326 
L 161.303319 215.964829 
L 159.184952 217.089688 
L 158.113265 217.96497 
L 157.663157 218.329377 
L 157.218407 219.531571 
L 156.979063 220.17485 
L 157.120169 221.677007 
L 157.134458 221.810584 
L 157.373801 223.077223 
L 157.295211 223.912665 
L 157.020145 224.776229 
L 156.511093 225.727673 
L 155.887729 226.641622 
L 154.315922 228.340629 
L 152.454759 229.580318 
L 150.429271 230.327881 
L 148.364488 230.494266 
L 144.654666 230.271638 
L 142.723843 230.691117 
L 142.513078 230.36772 
L 142.293382 230.033777 
L 141.709313 229.631874 
L 141.248488 229.306133 
L 133.90922 229.970503 
L 131.862298 230.609096 
L 131.26394 230.66651 
L 127.984578 229.638904 
L 123.583518 230.033777 
L 122.622572 229.931836 
L 122.474322 229.913089 
L 119.88084 230.201334 
L 117.242705 231.307446 
L 114.802831 232.883421 
L 112.670174 234.70546 
L 111.905705 235.701429 
L 111.700298 235.969755 
L 111.212764 237.223617 
L 110.555379 238.91431 
L 110.360689 239.14514 
L 109.171117 240.103615 
L 109.072879 240.18212 
L 108.378069 240.908592 
L 108.228033 241.070291 
L 105.339837 245.63769 
L 104.425331 246.391112 
L 103.959147 246.576245 
L 103.501894 246.628973 
L 103.092867 246.672326 
L 102.330183 247.254676 
L 101.633587 247.784297 
L 101.220988 250.244928 
L 101.694372 256.132358 
L 100.743637 256.735752 
L 100.152943 256.593668 
L 95.328946 253.381101 
L 95.047664 253.117232 
L 94.212254 251.622585 
L 93.984416 251.414073 
L 93.326214 251.511871 
L 92.611756 251.749907 
L 89.900192 253.250089 
L 89.208237 253.513959 
L 88.426271 253.609911 
L 87.149248 253.569316 
L 86.406662 253.737233 
L 85.706268 254.229913 
L 85.394045 254.569437 
L 85.343414 254.711521 
L 85.413734 254.883128 
L 85.520622 255.588011 
L 85.756899 256.532775 
L 85.953797 257.014383 
L 85.91723 257.632539 
L 85.810343 258.265458 
L 85.706268 258.592065 
L 84.052326 258.254386 
L 83.58821 256.41837 
L 83.242233 255.558487 
L 82.730298 255.608309 
L 82.409636 255.473606 
L 82.263369 254.455032 
L 82.16492 252.373599 
L 81.141051 253.14122 
L 80.679748 253.111696 
L 80.491289 252.203837 
L 80.26345 251.69455 
L 79.751515 251.113298 
L 79.194576 250.646452 
L 78.837347 250.487761 
L 78.305723 250.952762 
L 78.527936 251.522942 
L 79.014555 252.008241 
L 79.287399 252.203837 
L 79.354907 252.665147 
L 79.672756 253.892233 
L 79.759954 254.539913 
L 79.473046 254.244675 
L 79.101753 253.967888 
L 78.713583 253.746459 
L 78.367605 253.609911 
L 77.93443 253.550864 
L 77.715029 253.580387 
L 77.529383 253.539792 
L 77.183405 253.272232 
L 76.626466 252.635623 
L 74.896577 249.838236 
L 74.744685 249.391687 
L 74.533723 249.06508 
L 73.71519 248.882401 
L 73.504229 248.701567 
L 73.411405 248.367578 
L 73.38609 247.856446 
L 73.462036 247.005789 
L 73.301705 246.826801 
L 72.778519 246.773289 
L 72.418478 246.682872 
L 71.816533 246.275073 
L 71.478994 246.153287 
L 70.047265 246.081323 
L 69.431256 245.948465 
L 68.047346 245.267571 
L 67.178183 245.057213 
L 66.306206 245.044297 
L 65.684572 245.365369 
L 65.659256 246.096085 
L 66.292142 246.856325 
L 67.152867 247.457874 
L 67.819507 247.701446 
L 69.017771 247.520612 
L 69.360936 247.76972 
L 69.119033 248.657281 
L 69.481887 248.49859 
L 69.83349 248.400792 
L 70.173842 248.435852 
L 70.536697 248.657281 
L 70.128837 249.236687 
L 69.827865 249.895439 
L 70.474815 249.893593 
L 70.73922 249.79395 
L 71.006439 249.557759 
L 71.242716 249.895439 
L 70.829231 250.317999 
L 70.398868 250.664905 
L 69.920688 250.926929 
L 69.352497 251.104072 
L 68.795558 251.078239 
L 68.384885 250.775619 
L 67.985464 250.338297 
L 67.470716 249.895439 
L 67.361016 250.941691 
L 67.684491 252.008241 
L 67.836384 253.017589 
L 67.209124 253.892233 
L 67.718245 254.425508 
L 67.937646 254.539913 
L 67.799817 254.966164 
L 67.571978 255.141462 
L 66.880023 255.159915 
L 66.730943 255.289082 
L 66.795638 255.586166 
L 66.998162 256.086226 
L 67.1163 256.748668 
L 67.107862 257.147241 
L 66.880023 257.326229 
L 66.50873 257.307777 
L 66.171191 257.224741 
L 65.858967 257.047598 
L 65.555182 256.735752 
L 65.698636 256.632418 
L 65.723951 256.588132 
L 65.735203 256.536466 
L 65.816775 256.396227 
L 65.394851 256.160036 
L 65.015119 256.130512 
L 64.739462 256.359322 
L 64.635388 256.87599 
L 64.401923 256.91474 
L 63.954684 256.820633 
L 63.664963 256.473727 
L 63.909679 255.750392 
L 63.077082 256.536466 
L 62.643907 257.658373 
L 62.078529 258.695399 
L 60.838072 259.212067 
L 59.625744 259.245281 
L 58.990046 259.367067 
L 58.714389 259.649389 
L 58.554058 260.402248 
L 58.171513 261.013023 
L 57.684894 261.216 
L 57.254532 260.732546 
L 57.724274 258.387244 
L 58.24746 257.348372 
L 59.167254 257.63623 
L 61.051847 256.735752 
L 60.51741 256.410989 
L 59.330398 256.64349 
L 58.714389 256.396227 
L 59.150377 255.750392 
L 59.878899 255.148843 
L 60.70587 254.711521 
L 61.428766 254.539913 
L 63.133339 254.977236 
L 63.79154 254.766878 
L 63.909679 253.609911 
L 63.330236 253.864555 
L 62.863307 253.775983 
L 62.494827 253.440149 
L 62.233234 252.962231 
L 63.25429 251.777586 
L 63.304921 251.299668 
L 62.373876 251.104072 
L 61.707236 250.853119 
L 61.403451 250.377047 
L 61.077163 250.115022 
L 60.343015 250.487761 
L 60.449902 250.661214 
L 60.5371 250.949072 
L 60.601795 251.104072 
L 59.715755 251.102227 
L 59.310708 251.190799 
L 58.930976 251.414073 
L 59.597616 251.69455 
L 60.466779 252.196456 
L 61.099665 252.853362 
L 61.051847 253.609911 
L 60.40771 253.034196 
L 59.487916 252.6061 
L 58.525929 252.440028 
L 57.749589 252.654076 
L 57.909921 252.98991 
L 58.129321 253.259315 
L 58.393727 253.460447 
L 58.714389 253.609911 
L 57.631451 254.550985 
L 56.964811 254.986462 
L 56.331925 255.159915 
L 56.35724 255.071343 
L 56.323487 254.872057 
L 56.230663 254.658009 
L 56.078771 254.539913 
L 53.952274 254.539913 
L 54.374198 253.859019 
L 55.867809 252.860743 
L 56.331925 252.034074 
L 56.064707 251.257227 
L 54.559845 250.377047 
L 54.661106 249.557759 
L 53.971964 249.697998 
L 53.572543 250.349368 
L 53.263132 251.188953 
L 52.880587 251.893836 
L 52.348963 252.320087 
L 51.77796 252.508302 
L 51.142261 252.510147 
L 49.142341 252.170622 
L 48.76261 252.034074 
L 47.820313 251.214787 
L 47.454646 251.104072 
L 46.689557 251.035798 
L 46.129805 250.768238 
L 45.901966 250.203594 
L 46.141056 249.247759 
L 45.294395 249.795796 
L 44.965295 249.895439 
L 45.108749 249.120437 
L 45.404096 248.638829 
L 45.862586 248.389721 
L 46.509536 248.317756 
L 46.939899 248.155375 
L 47.8175 247.476326 
L 48.290055 247.391445 
L 48.771048 247.601802 
L 49.682404 248.19597 
L 50.298413 248.317756 
L 50.855353 248.284542 
L 51.336346 248.147994 
L 51.735767 247.869363 
L 52.064868 247.391445 
L 51.808901 247.05192 
L 51.429169 247.35454 
L 51.040999 247.413588 
L 50.661268 247.254897 
L 49.935558 246.575848 
L 49.769602 246.529717 
L 49.659901 246.396859 
L 49.465816 245.811917 
L 49.361742 244.935427 
L 49.690843 244.603284 
L 51.119758 244.575605 
L 52.64431 244.265604 
L 53.043731 244.431676 
L 53.184373 244.819177 
L 53.263132 245.243583 
L 53.457217 245.533286 
L 54.188552 245.594179 
L 54.424829 244.058937 
L 55.133661 243.675127 
L 54.829876 242.970244 
L 54.256059 242.704529 
L 52.880587 242.719291 
L 52.25614 242.615958 
L 51.060689 242.1731 
L 50.53469 242.069766 
L 49.977751 242.191552 
L 48.290055 243.055125 
L 46.619236 243.376198 
L 46.141056 243.675127 
L 43.525128 242.069766 
L 42.385933 240.844525 
L 41.708042 240.534524 
L 41.404257 241.337205 
L 41.024525 241.649051 
L 40.146924 241.879706 
L 38.546425 242.069766 
L 34.512833 241.272621 
L 34.172481 240.80393 
L 34.391881 240.283572 
L 35.227291 239.93113 
L 36.864355 239.796428 
L 37.556311 239.427379 
L 37.837593 238.525056 
L 38.071058 238.405115 
L 39.514038 238.072971 
L 39.767192 237.71684 
L 40.33257 236.600468 
L 40.695425 236.212967 
L 41.49708 236.04505 
L 42.05402 236.46023 
L 42.94006 237.917971 
L 43.28885 237.75559 
L 45.432224 236.212967 
L 44.554622 235.832847 
L 42.737536 236.117014 
L 41.753047 235.413977 
L 41.260803 234.821654 
L 41.184856 234.467368 
L 41.167979 233.710819 
L 41.51677 230.850693 
L 41.660224 230.393073 
L 43.184776 227.953663 
L 43.429492 227.431459 
L 43.851416 226.075206 
L 44.256463 225.604669 
L 44.518055 225.492109 
L 44.71214 225.547467 
L 44.804964 225.864848 
L 44.729017 226.534671 
L 45.162193 226.036456 
L 45.744448 225.027108 
L 46.239505 223.923653 
L 46.399836 223.156033 
L 46.183248 222.698413 
L 45.564427 222.203888 
L 45.432224 221.749958 
L 45.496919 221.214838 
L 45.572865 220.831027 
L 45.525047 220.47305 
L 45.012402 220.014342 
L 45.118958 219.661327 
L 45.5959 219.635027 
L 46.285056 220.043089 
L 46.683045 219.772267 
L 46.974233 219.69172 
L 47.158849 220.126546 
L 47.686807 220.72583 
L 48.430047 220.021991 
L 49.225883 219.589596 
L 50.098252 220.190103 
L 50.323728 219.692513 
L 50.306851 218.841856 
L 50.416552 218.173879 
L 50.031195 217.788223 
L 49.766789 217.247567 
L 49.702094 216.701375 
L 49.938371 216.288041 
L 50.428373 216.469205 
L 50.797132 217.204038 
L 51.08648 217.857132 
L 51.882241 217.724328 
L 52.016133 217.371669 
L 51.832983 216.7189 
L 51.888248 216.121373 
L 52.206025 216.258482 
L 52.363459 216.693847 
L 52.707031 216.912666 
L 53.291019 216.752175 
L 53.821656 216.673051 
L 54.647043 216.133343 
L 54.912556 216.107427 
L 55.281958 216.43541 
L 56.078771 216.719828 
L 56.434377 216.347471 
L 56.727035 216.185678 
L 57.100799 215.724799 
L 57.633467 215.346971 
L 58.431624 214.998617 
L 59.403531 215.048038 
L 59.732632 215.084943 
L 60.525849 215.328515 
L 60.947773 215.385717 
L 61.03497 215.236253 
L 61.09404 214.909645 
L 61.262809 214.579347 
L 61.665043 214.431727 
L 63.200846 215.385717 
L 63.36399 215.817504 
L 63.462439 216.671851 
L 63.673401 216.908042 
L 64.086887 216.841614 
L 64.266908 216.409827 
L 64.365356 215.928219 
L 64.517249 215.695718 
L 64.863227 215.819349 
L 65.200766 216.116433 
L 65.456733 216.47072 
L 65.555182 216.767804 
L 65.926475 217.395186 
L 66.770323 217.886021 
L 67.723871 218.098224 
L 68.4102 217.889711 
L 68.089538 217.550187 
L 67.684491 216.847149 
L 67.470716 216.62572 
L 67.099423 216.50947 
L 66.39903 216.472565 
L 66.03055 216.288041 
L 64.466618 214.256429 
L 63.909679 213.811726 
L 63.465252 213.726845 
L 62.643907 213.723154 
L 62.233234 213.50357 
L 62.019459 213.204641 
L 61.124981 211.516244 
L 61.158735 211.305887 
L 61.150296 211.25791 
L 60.838072 211.333565 
L 60.739624 211.527316 
L 60.610234 211.900055 
L 60.348641 212.224817 
L 59.876086 212.263568 
L 60.191122 212.484997 
L 60.461154 212.759938 
L 60.680554 213.093927 
L 60.166907 213.4339 
L 59.127595 213.969732 
L 58.570574 213.829516 
L 58.222144 213.19357 
L 57.985867 213.19357 
L 57.783343 213.796964 
L 57.462681 213.968571 
L 56.5457 213.811726 
L 56.483818 213.678868 
L 56.399433 213.409463 
L 56.264417 213.191724 
L 56.078771 213.19357 
L 55.901563 213.470356 
L 55.971883 213.758214 
L 56.163155 214.001786 
L 56.331925 214.14756 
L 56.331925 214.431727 
L 55.825616 214.616251 
L 55.27149 214.610716 
L 54.745491 214.402203 
L 54.30669 213.979643 
L 54.090103 213.475892 
L 54.208241 213.095772 
L 54.897384 212.263568 
L 54.652668 212.117793 
L 54.424829 211.925888 
L 54.58516 211.499637 
L 54.407952 210.970053 
L 54.002905 210.538266 
L 53.457217 210.403563 
L 53.64005 211.499637 
L 53.15883 212.959921 
L 52.175934 213.010222 
L 51.77997 212.437903 
L 51.622621 211.893648 
L 51.092373 211.619845 
L 50.695009 211.265192 
L 50.416552 210.065884 
L 50.627514 209.301954 
L 50.773781 208.541714 
L 50.883481 206.844091 
L 50.926321 206.07544 
L 51.32937 204.990181 
L 51.652672 203.931783 
L 52.241862 203.037493 
L 52.617712 202.278238 
L 52.539661 201.788749 
L 53.007165 201.086935 
L 53.739906 199.801097 
L 54.38396 198.905374 
L 54.661106 198.147464 
L 55.033781 197.501042 
L 55.735606 197.507165 
L 56.596331 197.549606 
L 57.254532 197.372462 
L 55.492366 197.095158 
L 55.583063 196.755496 
L 55.718459 196.41609 
L 55.708893 196.109965 
L 55.565256 195.848411 
L 55.633488 195.553953 
L 55.606216 195.178469 
L 55.668098 194.850016 
L 55.811552 194.647039 
L 55.850932 194.473587 
L 55.606216 194.248467 
L 55.929691 193.831442 
L 56.289733 193.654299 
L 57.150457 193.630311 
L 57.547066 193.497454 
L 57.428927 193.174536 
L 57.150457 192.768583 
L 57.040757 192.390308 
L 57.549879 191.502747 
L 58.292465 191.139234 
L 59.119436 191.166913 
L 59.876086 191.460306 
L 59.667937 190.773876 
L 59.361339 190.428816 
L 59.276954 190.009946 
L 60.601795 187.518869 
L 61.051847 187.070475 
L 60.508972 186.996665 
L 60.061733 186.633152 
L 59.884524 186.033448 
L 60.12924 185.239994 
L 59.963284 185.083149 
L 59.659498 184.619993 
L 60.011102 184.739934 
L 60.154556 184.806362 
L 60.343015 184.961363 
L 61.077163 184.516659 
L 61.372509 184.180825 
L 61.546905 183.693681 
L 60.829634 183.697372 
L 58.686261 183.356002 
L 58.013995 183.07368 
L 58.115257 182.420464 
L 58.930976 181.187842 
L 58.551245 181.158318 
L 58.179952 181.206295 
L 57.828349 181.3207 
L 57.513312 181.495998 
L 57.634264 180.313197 
L 58.129321 179.630458 
L 58.787522 179.104564 
L 59.403531 178.401526 
L 59.589178 177.859025 
L 59.727006 177.235333 
L 59.971722 176.726046 
L 60.950586 176.325629 
L 61.237494 175.855092 
L 61.288125 175.249853 
L 61.051847 174.655685 
L 60.525849 175.063483 
L 56.931057 176.976999 
L 56.165968 177.24456 
L 55.867809 177.43831 
L 55.558398 177.521346 
L 55.2518 177.301762 
L 54.340444 176.159557 
L 54.188552 176.050688 
L 53.867889 175.629973 
L 53.263132 175.467591 
L 52.94247 175.168662 
L 53.457217 174.345684 
L 51.119758 174.345684 
L 51.237897 174.61878 
L 51.474174 175.318127 
L 51.592313 175.585687 
L 50.05651 175.585687 
L 49.716158 175.49527 
L 49.623335 175.264615 
L 49.598019 174.96384 
L 49.465816 174.655685 
L 49.26048 174.288481 
L 49.187347 174.006159 
L 49.043893 173.82348 
L 48.630407 173.757052 
L 48.09597 173.878838 
L 47.758431 173.895445 
L 47.322443 173.757052 
L 47.058037 173.559611 
L 46.298574 172.858419 
L 46.141056 172.644371 
L 46.039794 172.345441 
L 45.78664 172.275322 
L 45.480042 172.273477 
L 45.201572 172.179369 
L 44.231147 171.134962 
L 43.851416 171.090677 
L 43.525128 171.869369 
L 43.134145 171.544606 
L 42.670029 171.396987 
L 42.27342 171.133117 
L 41.964009 169.776864 
L 41.581465 169.223291 
L 41.052654 168.784124 
L 40.459147 168.437218 
L 39.921897 168.234241 
L 39.151183 168.127217 
L 38.867088 168.031265 
L 38.732072 167.606859 
L 37.746493 167.516258 
L 37.391883 167.235261 
L 37.255338 166.208165 
L 36.898109 165.650902 
L 36.695586 166.139891 
L 36.67027 166.595666 
L 36.788409 167.009001 
L 37.016248 167.368823 
L 37.196269 167.883645 
L 37.041564 168.398468 
L 37.033487 168.96374 
L 36.831836 169.353037 
L 36.846944 169.804337 
L 37.278684 169.960801 
L 37.138011 170.66131 
L 36.705517 170.691566 
L 36.334723 170.986289 
L 36.488163 171.453214 
L 36.822163 171.935797 
L 36.51905 172.061277 
L 35.871829 171.81004 
L 35.132314 172.244837 
L 34.437991 172.946412 
L 33.543965 173.397555 
L 33.250582 174.191927 
L 33.142655 174.378781 
L 32.670432 174.039374 
L 32.681683 173.847468 
L 32.723875 173.712766 
L 32.864517 173.419372 
L 32.605737 173.352944 
L 32.493224 173.279134 
L 32.391962 173.13705 
L 32.221553 172.647956 
L 32.835788 171.917974 
L 32.95935 171.092701 
L 33.406832 170.797023 
L 33.573349 170.153293 
L 33.472087 169.522221 
L 33.227371 169.500078 
L 32.934837 169.688292 
L 32.670432 169.7049 
L 32.535416 169.505613 
L 32.31039 168.968648 
L 32.175374 168.747219 
L 31.860338 168.536861 
L 31.556553 168.466742 
L 31.323088 168.343111 
L 31.23589 167.972217 
L 31.269644 167.573645 
L 31.429975 166.859536 
L 31.472168 166.425904 
L 31.320275 166.195249 
L 30.673325 165.835426 
L 30.521433 165.48114 
L 30.653635 164.554828 
L 30.605817 164.230066 
L 30.290781 164.102744 
L 29.07564 164.058458 
L 26.124985 163.482743 
L 25.973093 163.547326 
L 25.846516 163.676493 
L 25.717126 163.779827 
L 25.548356 163.765065 
L 25.407715 163.6156 
L 25.272699 163.248397 
L 25.185501 163.172742 
L 25.058924 162.995599 
L 24.907032 162.16524 
L 24.817021 161.90506 
L 24.577931 161.799882 
L 23.64126 161.624584 
L 23.168705 160.668748 
L 22.923989 160.343985 
L 22.682086 160.089342 
L 22.445809 159.901127 
L 22.223595 159.76827 
L 22.589263 159.203626 
L 23.059005 158.971125 
L 23.53156 158.821661 
L 23.897227 158.528267 
L 24.108189 157.889813 
L 24.350092 155.686594 
L 25.134871 154.548079 
L 26.113734 154.693854 
L 27.210736 155.114569 
L 28.378059 154.786116 
L 27.674853 154.413377 
L 26.071542 154.321115 
L 25.289576 154.166114 
L 24.639813 153.618077 
L 24.395097 152.865218 
L 24.257269 152.058848 
L 23.897227 151.350275 
L 24.436418 150.797957 
L 29.366177 146.096981 
L 29.510855 146.012616 
L 29.8788 145.937626 
L 30.07349 145.789988 
L 30.127075 145.616572 
L 30.180659 145.096324 
L 30.287828 144.859635 
L 30.841532 144.360479 
L 32.234725 143.465278 
L 32.78843 142.832544 
L 33.320701 142.462278 
L 35.063978 142.075607 
L 35.735569 141.735806 
L 36.098156 140.99293 
L 36.385725 139.947748 
L 36.728665 139.012708 
L 37.268081 138.611977 
L 38.064701 138.41747 
L 38.789876 137.937061 
L 40.484927 136.235711 
L 41.658424 134.696059 
L 41.894195 134.135973 
L 42.062093 133.875849 
L 42.412177 134.199246 
L 42.740828 134.681998 
L 42.83728 134.897596 
L 43.112346 135.042891 
L 43.437424 135.148346 
L 44.276912 135.235054 
L 45.211066 135.066325 
L 45.902304 135.122568 
L 46.582825 135.066325 
L 47.100807 134.897596 
L 47.274063 134.445309 
L 47.016858 133.882879 
L 46.631051 133.320449 
L 46.202376 132.75802 
L 46.202376 132.137003 
L 46.541743 131.574573 
L 47.402665 131.237116 
L 48.217147 130.955901 
L 48.772638 130.616099 
L 49.635346 130.224742 
L 50.272999 129.828698 
L 50.964237 129.324854 
L 51.948403 128.872567 
L 53.154051 128.478866 
L 54.052481 128.085165 
L 54.52581 127.916436 
L 54.827668 127.578978 
L 55.040219 127.126691 
L 55.254557 126.620504 
L 55.811834 126.395532 
L 56.326243 126.339289 
L 56.844225 126.564261 
L 57.310409 126.73299 
L 57.980213 126.510361 
L 58.24099 126.479896 
L 58.548207 126.606443 
L 58.966165 127.007174 
L 59.184075 127.126691 
L 59.957475 127.157156 
L 60.091436 126.817354 
L 60.016418 126.243207 
L 60.023347 126.209354 
L 60.152165 125.580009 
L 60.40937 125.371441 
L 61.009515 125.481583 
L 61.331021 125.270672 
L 61.445334 124.98477 
L 61.466768 124.349693 
L 61.566792 124.002862 
L 61.886511 123.477927 
L 62.222307 123.213116 
L 62.667057 123.114691 
L 64.099545 123.074852 
L 64.562156 122.887376 
L 64.799713 122.381189 
L 64.869373 121.39928 
L 65.031912 120.51111 
L 65.435581 120.213491 
L 65.946418 120.351755 
L 66.423319 120.766547 
L 66.693027 121.153217 
L 66.755542 121.284451 
L 68.786388 121.244612 
L 69.268647 120.939962 
L 68.947141 120.250986 
L 67.961189 119.048792 
L 69.288295 117.356816 
L 70.009921 116.844411 
L 70.090274 116.787355 
L 71.147671 116.571757 
L 71.454888 116.43818 
L 71.622786 116.138218 
L 71.760319 115.824194 
L 71.974656 115.643748 
L 72.31581 115.61797 
L 72.605165 115.690617 
L 74.084093 116.365533 
L 74.419888 116.31632 
L 75.838087 115.325038 
L 76.270334 115.107096 
L 76.834756 115.025075 
L 77.206274 115.259421 
L 77.611728 115.716395 
L 78.031472 116.018701 
L 78.49587 115.784355 
L 79.003135 115.388311 
L 80.067677 115.259421 
L 80.508855 115.025075 
L 80.767846 114.579818 
L 80.583873 114.36422 
L 80.121262 114.317351 
L 79.565771 114.375937 
L 79.962295 113.708052 
L 80.567798 113.511202 
L 81.225099 113.394029 
L 81.810954 112.967519 
L 82.512909 111.882498 
L 82.72546 111.338816 
L 82.632581 110.940428 
L 82.852277 110.591253 
L 83.130915 110.34519 
L 83.464924 110.176461 
L 83.834656 110.042884 
L 83.739991 109.45702 
L 84.091861 108.988328 
L 84.608057 108.498546 
L 85.013512 107.875186 
L 84.515177 107.033884 
L 85.333232 106.274604 
L 89.24846 103.968642 
L 89.734292 103.539789 
L 90.066515 103.017198 
L 90.936367 101.034633 
L 91.332891 100.533133 
L 92.202744 99.680114 
L 92.588551 99.148149 
L 93.392316 97.27104 
L 93.769192 96.699236 
L 95.476747 94.660428 
L 96.569867 93.837874 
L 97.56475 93.856622 
L 97.457581 94.053472 
L 97.398638 94.222201 
L 97.303973 94.369839 
L 97.093207 94.50576 
L 97.093207 94.840874 
L 98.284566 94.498729 
L 98.284566 93.334031 
L 97.805879 91.904522 
L 97.56475 90.760914 
L 97.782659 90.177393 
L 98.979376 88.283879 
L 99.550942 86.235697 
L 100.190382 84.981948 
L 100.315412 84.372649 
L 100.190382 83.779754 
L 99.818864 83.162253 
L 99.836726 82.608025 
L 101.047732 81.342558 
L 101.594292 80.25988 
L 102.149783 80.13802 
L 103.371506 80.205981 
L 103.74481 79.989211 
L 104.855792 78.979181 
L 105.39878 78.658127 
L 104.921879 78.265598 
L 104.419973 77.970322 
L 103.987726 77.625834 
L 103.723376 77.083323 
L 104.31459 76.845462 
L 104.864723 76.845462 
L 105.37556 77.041141 
L 105.868536 77.391488 
L 106.899141 78.511661 
L 107.495714 78.900675 
L 107.760063 78.49057 
L 108.195882 77.362195 
L 110.128491 76.571278 
L 110.566096 75.37963 
L 110.900105 74.864069 
L 111.639569 74.354367 
L 112.375461 74.13291 
L 112.714828 74.464509 
L 112.750551 75.460479 
L 112.939882 75.713572 
L 113.370343 75.685451 
L 114.150888 75.843634 
L 114.789025 76.354638 
L 115.94775 77.282517 
L 116.2764 77.234476 
L 116.419292 77.842604 
L 117.164114 79.00613 
L 117.449897 79.586136 
L 116.862256 79.520519 
L 116.49431 79.7244 
L 116.372852 80.166142 
L 116.510385 80.826997 
L 116.840822 81.286315 
L 117.36059 81.630803 
L 118.419774 82.063171 
L 118.323322 82.23893 
L 118.162569 82.685359 
L 118.74128 82.780269 
L 120.541714 83.478619 
L 121.013256 83.922705 
L 120.257717 84.220324 
L 119.520039 84.64449 
L 118.880599 85.256132 
L 118.419774 86.08806 
L 118.67162 86.123211 
L 118.978837 86.207576 
L 119.234256 86.35287 
L 119.455738 86.78641 
L 119.723659 86.699702 
L 120.191629 86.399739 
L 120.509563 86.491134 
L 120.689964 86.699702 
L 120.827497 86.910613 
L 121.013256 87.016069 
L 121.274033 86.809845 
L 121.725927 85.877148 
L 121.959912 85.701389 
L 122.474322 85.935735 
L 123.253081 86.514569 
L 123.729982 86.629398 
L 124.046129 86.545034 
L 124.29619 86.404426 
L 124.530174 86.376305 
L 124.789165 86.629398 
L 124.817744 86.943422 
L 124.603406 87.231667 
L 124.312265 87.451952 
L 124.1015 87.559751 
L 124.699858 87.829249 
L 125.348229 88.026099 
L 126.70034 88.178424 
L 127.027205 88.11515 
L 127.629135 87.871431 
L 127.900629 87.838622 
L 128.22928 87.965169 
L 128.486485 88.17608 
L 128.67403 88.382305 
L 128.804418 88.48776 
L 129.572461 88.551034 
L 130.115449 88.328405 
L 130.60128 88.023756 
L 131.188922 87.838622 
L 131.772991 87.993291 
L 132.376708 88.321375 
L 132.976852 88.494791 
L 133.56628 88.178424 
L 133.630581 89.195484 
L 134.116412 89.678237 
L 135.454235 90.036786 
L 136.60094 90.828874 
L 136.865289 90.964795 
L 137.167147 90.824188 
L 137.549382 90.207858 
L 137.706563 90.189111 
L 138.660364 90.552346 
L 141.921864 90.646085 
L 142.811364 90.343779 
L 143.450804 90.779662 
L 144.142042 90.899178 
L 144.704678 90.62265 
L 144.936876 89.882118 
L 145.269099 89.55872 
L 146.033569 89.315001 
L 147.437479 89.106433 
L 148.475229 90.036786 
L 148.828885 89.8704 
L 149.114669 89.547003 
L 149.414741 89.106433 
L 149.793404 89.593872 
L 149.81841 90.402365 
L 149.764825 91.215545 
L 149.889855 91.717045 
L 150.189928 91.799066 
L 150.529295 91.695954 
L 151.115151 91.379587 
L 150.986548 92.375557 
L 151.58312 92.844248 
L 152.411892 92.823157 
L 152.958452 92.338061 
L 153.451428 92.616933 
L 152.958452 93.266071 
L 154.415946 93.392617 
L 155.784132 92.117776 
L 159.30641 85.757632 
L 159.838681 84.002382 
L 159.156373 83.020473 
L 159.092072 82.207294 
L 158.663398 81.2828 
L 158.038247 80.523519 
L 157.113024 80.100525 
L 155.794849 79.036595 
L 154.866054 78.17889 
L 154.71959 77.184092 
L 154.351645 76.23382 
L 152.719108 73.154517 
L 152.511916 72.287437 
L 151.358066 71.919514 
L 151.018699 71.278579 
L 150.747205 70.570854 
L 150.072042 66.694775 
L 150.107765 66.025718 
L 150.561446 65.394156 
L 151.25447 65.18676 
L 152.840566 65.151608 
L 158.420482 63.620159 
L 161.939187 63.909576 
L 162.746524 64.172043 
L 163.453837 64.73213 
L 165.057795 64.641906 
L 166.243795 65.223084 
L 166.729627 65.287529 
L 168.158542 64.745019 
L 168.490765 64.809464 
L 168.873 65.074274 
L 169.194506 64.914919 
L 169.680337 64.20368 
L 170.019705 63.880283 
L 170.376934 63.742019 
L 172.956127 63.943556 
L 173.881349 63.742019 
L 174.285018 62.952273 
L 177.607247 63.121002 
L 179.891742 63.731398 
L 180.593681 63.91895 
L 181.858271 63.506501 
L 182.369109 61.698524 
L 182.679898 61.096255 
L 183.412217 60.897061 
L 184.237416 60.798636 
L 184.848277 60.490471 
L 185.7735 59.539027 
L 186.123584 58.939102 
L 186.166452 58.13764 
L 186.988078 58.616877 
L 187.577506 58.666089 
L 188.070482 58.336834 
L 189.045717 57.233065 
L 190.070964 56.337864 
L 190.717548 55.624281 
L 190.989042 55.391107 
L 191.228386 55.13567 
L 191.335554 54.875547 
L 191.164084 54.467785 
L 190.388898 54.406855 
L 190.178133 54.085801 
L 190.26744 53.566725 
L 190.571084 53.326521 
L 190.942603 53.195287 
L 191.228386 53.001952 
L 191.353416 52.610595 
L 191.331982 52.245015 
L 191.399856 51.911073 
L 191.810669 51.608766 
L 191.557036 51.339269 
L 191.271253 51.154136 
L 190.971181 51.045165 
L 190.631813 51.017043 
L 190.631813 50.678414 
L 191.746368 50.683101 
L 192.096452 50.422977 
L 192.303645 49.749233 
L 192.235771 49.509028 
L 192.025006 49.394199 
L 191.832103 49.228985 
L 191.810669 48.821224 
L 191.917837 48.438068 
L 192.089307 48.133419 
L 192.332223 47.936568 
L 194.182669 47.549898 
L 194.429157 47.44327 
L 194.54347 46.625404 
L 194.832825 45.95869 
L 195.21506 45.757153 
L 195.608012 46.317239 
L 196.100988 46.036024 
L 195.811633 45.645838 
L 195.633018 45.231046 
L 195.686603 44.908821 
L 196.100988 44.796335 
L 196.479651 44.929912 
L 196.79044 45.494685 
L 197.279844 45.696223 
L 197.597777 45.601313 
L 197.969295 45.340017 
L 198.405115 45.109187 
L 198.933813 45.106843 
L 200.605645 46.484796 
L 200.827127 46.855063 
L 201.802362 47.381169 
L 202.020271 47.724485 
L 202.138157 48.192005 
L 202.427512 48.35136 
L 202.777597 48.271683 
L 203.084813 48.019761 
L 203.267 47.560443 
L 203.295579 47.116358 
L 203.395603 46.784759 
L 204.242235 46.455503 
L 204.478006 45.963377 
L 204.517301 45.356421 
L 204.381554 44.796335 
L 205.824759 44.911164 
L 207.128645 45.250966 
L 208.239627 45.049428 
L 209.121982 43.530868 
L 209.286307 41.900993 
L 209.211289 40.126995 
L 209.386332 38.574455 
L 210.30441 37.618324 
L 210.30441 37.339453 
L 209.722127 37.197673 
L 209.561374 36.586031 
L 209.890024 35.954469 
L 210.775952 35.761134 
L 210.622344 35.104966 
L 210.868832 34.708921 
L 211.151042 34.415989 
L 211.11532 34.058612 
L 210.700934 33.668426 
L 210.35085 33.509071 
L 210.115079 33.200906 
L 210.047205 32.35609 
L 210.104362 31.792488 
L 210.243681 31.278099 
L 210.665211 30.330171 
L 211.218916 29.172503 
L 211.408247 28.537425 
L 211.547567 27.168846 
L 212.762145 23.957137 
L 213.015777 23.489618 
L 213.194392 23.016239 
L 213.226542 21.971057 
L 213.369434 21.489476 
L 213.762386 21.168423 
L 214.805494 21.052422 
L 215.280609 20.843854 
L 214.959103 20.725509 
L 214.694753 20.541548 
L 214.487561 20.282596 
L 214.337524 19.941623 
L 214.716187 19.788126 
L 215.355627 19.379193 
L 215.752151 19.296 
L 216.216548 19.380364 
L 216.473753 19.597134 
L 217.516862 20.952825 
L 217.849085 21.270363 
L 218.345633 21.489476 
L 218.77788 21.550406 
L 220.128205 21.489476 
L 221.753597 20.80753 
L 222.693109 20.584902 
L 223.111067 20.998522 
L 223.003898 21.599619 
L 222.728832 22.331949 
L 222.350169 22.978744 
L 221.907205 23.320889 
L 223.346838 23.973542 
L 225.193711 23.924329 
L 226.754802 24.194998 
L 227.358518 25.797923 
L 226.865543 29.647053 
L 226.894121 31.399959 
L 227.572856 32.975934 
L 229.455452 34.844842 
L 229.719802 35.620526 
L 232.077512 37.618324 
L 232.456175 37.716749 
L 232.75982 37.690971 
L 233.027741 37.707375 
L 233.277802 37.930004 
L 233.356392 38.287381 
L 233.231362 39.166178 
L 233.399259 39.646587 
L 234.135151 40.198471 
L 234.667422 39.946549 
L 234.774591 39.272805 
L 234.224458 38.574455 
L 234.66385 37.883135 
L 235.228271 37.447252 
L 235.824844 37.4121 
L 236.346398 37.930004 
L 236.449994 38.418615 
L 236.64647 40.203158 
L 236.839374 41.053833 
" clip-path="url(#pba3f357b59)" style="fill: #f5f5f5; stroke: #000000"/>
    <path d="M 43.141635 173.73016 
L 42.9856 174.024816 
L 42.551718 174.239557 
L 42.917407 175.204367 
L 43.37903 176.190025 
L 42.635318 176.63172 
L 41.636072 177.236346 
L 40.892322 178.135812 
L 40.235306 178.247973 
L 39.402575 178.688691 
L 40.03731 177.532528 
L 40.48281 177.7323 
L 40.730078 177.216905 
L 40.239352 176.739527 
L 40.316592 176.5241 
L 40.716872 176.476407 
L 40.73282 176.29163 
L 40.825754 176.072316 
L 40.641575 175.916392 
L 40.643843 175.137431 
L 41.198494 174.811852 
L 41.170289 174.144176 
L 41.587218 173.771742 
L 41.542358 173.382411 
L 42.189468 173.306697 
L 43.141635 173.73016 
" clip-path="url(#pba3f357b59)" style="fill: #f5f5f5; stroke: #000000"/>
    <path d="M 41.64616 222.536031 
L 42.231228 223.589665 
L 42.354992 224.086035 
L 40.872633 223.656093 
L 40.172239 223.346093 
L 39.522476 222.816508 
L 38.743323 223.445736 
L 38.425474 223.041628 
L 38.568928 222.292459 
L 39.874079 221.425195 
L 40.290378 221.329243 
L 40.467586 221.749958 
L 41.032964 221.949244 
L 41.429572 222.18359 
L 41.64616 222.536031 
" clip-path="url(#pba3f357b59)" style="fill: #f5f5f5; stroke: #000000"/>
    <path d="M 57.037944 257.086348 
L 57.347355 256.994086 
L 56.483818 258.232243 
L 55.895937 258.85778 
L 54.984581 259.470401 
L 54.69486 259.773021 
L 54.205429 260.116236 
L 53.496596 260.274926 
L 53.296886 259.939092 
L 54.320754 258.673256 
L 54.810186 258.422303 
L 55.164602 258.575458 
L 55.2518 258.274684 
L 55.333372 257.868731 
L 55.519018 257.86504 
L 55.609029 257.811528 
L 55.654034 257.676825 
L 55.791862 257.595635 
L 56.019701 257.56242 
L 57.037944 257.086348 
" clip-path="url(#pba3f357b59)" style="fill: #f5f5f5; stroke: #000000"/>
    <path d="M 50.779406 256.22831 
L 50.610637 255.840809 
L 50.560006 255.597237 
L 50.737214 255.473606 
L 51.417918 254.953248 
L 52.028301 254.720747 
L 52.188632 254.709676 
L 52.289894 254.872057 
L 52.340525 255.071343 
L 52.250514 255.165451 
L 52.070493 255.204201 
L 51.60919 255.702416 
L 51.074753 256.178489 
L 50.779406 256.22831 
" clip-path="url(#pba3f357b59)" style="fill: #f5f5f5; stroke: #000000"/>
    <path d="M 46.726124 253.934674 
L 47.083353 254.012174 
L 47.215556 254.458723 
L 47.117107 254.790866 
L 47.04116 254.776104 
L 46.93146 254.783485 
L 46.560167 255.198665 
L 46.222628 255.318606 
L 45.848522 255.322296 
L 45.595368 255.193129 
L 45.598181 254.982772 
L 45.764137 254.875748 
L 45.910404 254.700449 
L 46.087612 254.584199 
L 46.332328 254.654318 
L 46.551729 254.765033 
L 46.658616 254.720747 
L 46.69237 254.532532 
L 46.714873 254.43658 
L 46.636113 254.213306 
L 46.726124 253.934674 
" clip-path="url(#pba3f357b59)" style="fill: #f5f5f5; stroke: #000000"/>
    <path d="M 34.8785 177.250095 
L 35.08403 176.891304 
L 35.467288 176.800721 
L 35.573433 177.103525 
L 35.572305 177.606084 
L 35.472007 178.08599 
L 35.227291 178.364622 
L 34.771817 178.335038 
L 34.618425 178.131735 
L 34.743546 177.752225 
L 34.681494 177.521618 
L 34.8785 177.250095 
" clip-path="url(#pba3f357b59)" style="fill: #f5f5f5; stroke: #000000"/>
    <path d="M 34.855998 176.452951 
L 34.459389 176.735273 
L 33.978396 176.740808 
L 33.396141 176.320093 
L 31.970038 176.735273 
L 31.860338 176.840451 
L 31.705632 176.762951 
L 31.759076 176.460332 
L 32.009418 176.248129 
L 32.341331 176.059914 
L 32.915148 175.530329 
L 33.058602 175.581996 
L 33.533969 175.522948 
L 34.40032 175.279376 
L 35.002265 175.323662 
L 35.238542 175.629973 
L 35.154157 176.043307 
L 34.855998 176.452951 
" clip-path="url(#pba3f357b59)" style="fill: #f5f5f5; stroke: #000000"/>
    <path d="M 31.711258 181.645462 
L 31.609996 181.24689 
L 31.601558 180.894449 
L 31.908156 180.780044 
L 32.282262 180.425757 
L 32.346957 180.785579 
L 32.369459 180.86308 
L 32.465095 181.008854 
L 32.507288 181.519986 
L 32.076925 181.745105 
L 31.919407 181.774629 
L 31.711258 181.645462 
" clip-path="url(#pba3f357b59)" style="fill: #f5f5f5; stroke: #000000"/>
    <path d="M 18.528946 164.549067 
L 18.688696 164.382204 
L 18.63 164.203408 
L 18.723239 164.185449 
L 18.821535 164.116154 
L 18.748189 164.017039 
L 18.832239 163.971091 
L 18.958043 163.911633 
L 19.060079 163.917364 
L 19.125001 164.006854 
L 19.21269 164.078062 
L 19.262043 164.266107 
L 19.401193 164.305064 
L 19.390817 164.431669 
L 19.389942 164.530241 
L 19.501462 164.545468 
L 19.500185 164.66739 
L 19.461352 164.793312 
L 19.330292 164.833614 
L 19.241275 164.950684 
L 19.072965 164.956362 
L 18.969512 165.12053 
L 18.92175 165.266445 
L 18.824072 165.260375 
L 18.755361 165.156849 
L 18.57898 165.117322 
L 18.425646 165.097088 
L 18.421193 165.078258 
L 18.41368 164.89993 
L 18.457661 164.693857 
L 18.528946 164.549067 
" clip-path="url(#pba3f357b59)" style="fill: #f5f5f5; stroke: #000000"/>
   </g>
  </g>
 </g>
 <defs>
  <clipPath id="pba3f357b59">
   <rect x="7.2" y="7.2" width="246.700961" height="266.112"/>
  </clipPath>
 </defs>
</svg>
