<?xml version="1.0" encoding="utf-8" standalone="no"?>
<!DOCTYPE svg PUBLIC "-//W3C//DTD SVG 1.1//EN"
  "http://www.w3.org/Graphics/SVG/1.1/DTD/svg11.dtd">
<svg xmlns:xlink="http://www.w3.org/1999/xlink" width="214.263523pt" height="280.512pt" viewBox="0 0 214.263523 280.512" xmlns="http://www.w3.org/2000/svg" version="1.1">
 <metadata>
  <rdf:RDF xmlns:dc="http://purl.org/dc/elements/1.1/" xmlns:cc="http://creativecommons.org/ns#" xmlns:rdf="http://www.w3.org/1999/02/22-rdf-syntax-ns#">
   <cc:Work>
    <dc:type rdf:resource="http://purl.org/dc/dcmitype/StillImage"/>
    <dc:date>2024-03-04T13:11:12.451537</dc:date>
    <dc:format>image/svg+xml</dc:format>
    <dc:creator>
     <cc:Agent>
      <dc:title>Matplotlib v3.8.0, https://matplotlib.org/</dc:title>
     </cc:Agent>
    </dc:creator>
   </cc:Work>
  </rdf:RDF>
 </metadata>
 <defs>
  <style type="text/css">*{stroke-linejoin: round; stroke-linecap: butt}</style>
 </defs>
 <g id="figure_1">
  <g id="patch_1">
   <path d="M 0 280.512 
L 214.263523 280.512 
L 214.263523 0 
L 0 0 
z
" style="fill: #ffffff"/>
  </g>
  <g id="axes_1">
   <g id="PatchCollection_1">
    <path d="M 115.193928 45.487699 
L 115.888364 45.575403 
L 116.319858 46.22629 
L 117.238132 46.407622 
L 117.128471 47.090328 
L 116.482867 47.4174 
L 115.94522 47.603823 
L 115.682203 47.825695 
L 114.999428 48.304275 
L 114.619843 48.464657 
L 114.254583 48.363296 
L 113.969693 48.224819 
L 113.935006 47.982469 
L 113.987036 47.367272 
L 114.604948 47.06679 
L 114.830413 46.805797 
L 114.691665 46.600732 
L 114.617456 46.351461 
L 114.570261 45.94825 
L 115.193928 45.487699 
M 115.249404 47.519989 
L 115.710288 47.364729 
L 115.833842 46.956294 
L 115.498535 46.723823 
L 115.296737 46.72665 
L 115.16976 46.855598 
L 115.249404 47.519989 
" clip-path="url(#p14306dac2d)" style="fill: #f5f5f5; stroke: #000000"/>
    <path d="M 110.961586 27.363439 
L 110.963616 27.356026 
L 111.068884 27.123661 
L 111.286939 26.234614 
L 112.817083 23.886719 
L 113.373499 22.771369 
L 113.606593 22.546076 
L 113.984429 22.34705 
L 114.005107 22.484449 
L 113.984429 22.819862 
L 114.253238 23.224985 
L 114.181807 23.364404 
L 114.080298 23.719013 
L 114.253238 23.719013 
L 114.475053 23.496751 
L 115.076584 23.464422 
L 115.19689 23.302777 
L 115.337874 23.231047 
L 115.640519 23.340157 
L 115.914967 23.618995 
L 115.986399 24.056447 
L 116.148061 23.78165 
L 116.307842 23.795794 
L 116.50522 23.897832 
L 116.775908 23.886719 
L 117.403756 23.438154 
L 117.650008 23.379558 
L 118.354927 23.569491 
L 118.509069 23.547265 
L 118.572982 23.339147 
L 118.467714 23.116885 
L 118.287255 22.941096 
L 118.121834 22.870376 
L 117.670686 22.818852 
L 117.390598 22.836027 
L 117.185701 22.95524 
L 117.054117 23.110823 
L 116.826663 23.331065 
L 116.555974 23.468463 
L 116.298443 23.379558 
L 116.294684 23.103751 
L 116.471383 22.06013 
L 116.471383 21.668141 
L 117.148106 22.194498 
L 117.452631 22.300577 
L 117.576696 21.938897 
L 117.467669 21.744922 
L 117.208259 21.494373 
L 116.888696 21.278172 
L 116.618007 21.191288 
L 116.715755 20.960944 
L 116.843581 20.915481 
L 116.984565 20.916492 
L 117.119909 20.836679 
L 117.403756 20.497225 
L 117.531582 20.201212 
L 117.501505 19.660712 
L 117.576696 19.296 
L 117.71956 19.296 
L 118.035364 19.972889 
L 118.392523 19.744565 
L 118.509069 19.635455 
L 118.682009 19.818316 
L 118.572982 20.006228 
L 118.563583 20.069876 
L 118.614337 20.130493 
L 118.682009 20.312343 
L 118.900064 20.136554 
L 119.035409 20.199192 
L 119.150076 20.363868 
L 119.313617 20.497225 
L 119.849355 20.639674 
L 120.131323 20.665942 
L 120.430209 20.651798 
L 120.381334 20.539657 
L 120.302383 20.254757 
L 120.257268 20.142616 
L 120.746012 19.972889 
L 120.979105 20.599263 
L 120.930231 20.841731 
L 120.606908 20.865978 
L 120.020416 20.836679 
L 119.63318 20.975088 
L 118.94142 21.564082 
L 118.557944 21.805539 
L 118.58614 21.80655 
L 118.580501 21.948999 
L 118.381244 22.207631 
L 118.896305 22.730957 
L 119.159475 22.934024 
L 119.471519 23.040103 
L 119.682055 22.937055 
L 119.922667 22.74005 
L 120.174558 22.692567 
L 120.430209 23.040103 
L 120.001618 23.776599 
L 119.791082 23.861462 
L 119.644459 23.379558 
L 119.407606 23.405825 
L 119.151955 23.379558 
L 119.240305 23.625056 
L 119.264742 23.78266 
L 119.230906 23.909956 
L 119.151955 24.056447 
L 119.443322 24.351449 
L 119.792962 24.552495 
L 120.097487 24.807086 
L 120.257268 25.258682 
L 119.98658 25.254641 
L 119.738448 25.194024 
L 119.516634 25.076831 
L 119.313617 24.904073 
L 118.980895 25.060667 
L 118.700807 24.945494 
L 118.527867 24.64342 
L 118.509069 24.242338 
L 118.373725 24.325182 
L 118.024085 24.484806 
L 117.8925 24.565629 
L 117.881221 24.300935 
L 117.926336 24.098878 
L 118.035364 23.96148 
L 118.208304 23.886719 
L 117.683844 23.800845 
L 117.11051 24.127166 
L 116.768389 24.587855 
L 116.93381 24.904073 
L 116.817264 25.171798 
L 116.790947 25.474882 
L 116.836062 25.795141 
L 116.93381 26.107318 
L 117.136827 25.606219 
L 117.328565 25.337484 
L 117.576696 25.258682 
L 117.72332 25.416286 
L 117.745877 25.705226 
L 117.681964 26.026496 
L 117.576696 26.275025 
L 118.027845 26.458896 
L 120.099367 26.430608 
L 119.900109 26.75996 
L 119.55047 27.052942 
L 118.836152 27.462106 
L 118.163189 27.709625 
L 117.954533 27.929866 
L 118.035364 28.325897 
L 118.618097 28.025843 
L 118.94142 28.304681 
L 118.952698 28.764359 
L 118.422599 29.115937 
L 118.529747 29.364466 
L 118.836152 29.77464 
L 118.924502 29.956491 
L 119.133158 30.053478 
L 119.644459 30.190876 
L 119.464 30.308069 
L 119.398207 30.386871 
L 119.313617 30.714202 
L 118.971496 30.538413 
L 118.595539 30.433344 
L 118.259058 30.471735 
L 118.035364 30.714202 
L 118.400042 31.304207 
L 118.24214 31.847738 
L 117.862424 32.373084 
L 117.576696 32.902472 
L 117.550379 33.084323 
L 117.576696 33.674327 
L 117.119909 34.104707 
L 116.736433 34.778565 
L 116.478903 35.096803 
L 116.144301 35.290778 
L 116.144301 34.766441 
L 115.824738 35.294819 
L 115.497655 36.101023 
L 115.332234 37.008256 
L 115.497655 37.834667 
L 115.619654 38.129216 
L 114.660428 38.399071 
L 114.290392 38.467073 
L 113.927519 38.36956 
L 113.765181 38.183517 
L 113.535998 37.683124 
L 113.3283 37.51761 
L 112.786377 37.422664 
L 112.696291 37.371557 
L 112.657462 37.349529 
L 112.526159 37.05186 
L 112.416342 35.942015 
L 112.43544 35.51604 
L 112.683722 35.256863 
L 112.982138 35.032327 
L 113.146863 34.707714 
L 113.039434 34.398497 
L 112.502286 33.697948 
L 112.399631 33.274539 
L 112.511835 32.903735 
L 112.958265 32.294283 
L 113.113441 31.937593 
L 113.208934 29.710205 
L 113.361723 28.972447 
L 113.411857 28.518244 
L 113.294878 28.010153 
L 112.932004 27.052992 
L 112.669398 27.022199 
L 111.497221 27.318585 
L 110.961586 27.363439 
" clip-path="url(#p14306dac2d)" style="fill: #f5f5f5; stroke: #000000"/>
    <path d="M 118.027845 54.248711 
L 118.539146 56.258161 
L 120.020416 59.285975 
L 120.268547 59.539555 
L 120.41893 60.117436 
L 120.573072 61.151965 
L 123.29124 66.213475 
L 123.855175 66.832778 
L 125.161625 67.978437 
L 127.686175 71.014333 
L 128.186197 71.804373 
L 128.398613 72.267082 
L 128.60163 72.979331 
L 130.874288 75.658598 
L 133.618773 77.96305 
L 135.773005 79.689621 
L 136.528679 80.168494 
L 139.810781 81.416192 
L 144.044055 82.531543 
L 145.818571 83.317542 
L 147.175775 83.73984 
L 148.136345 83.915629 
L 148.666444 83.943917 
L 150.228544 83.850971 
L 150.653376 83.943917 
L 151.315059 84.802656 
L 151.559431 84.990568 
L 152.119607 85.13908 
L 152.777531 85.467421 
L 153.356505 85.542182 
L 156.367919 85.375485 
L 157.375483 85.436102 
L 158.411244 85.654323 
L 159.834241 86.249379 
L 160.228995 86.333232 
L 160.62375 86.50296 
L 161.473412 87.354627 
L 161.894484 87.68802 
L 162.699031 87.948673 
L 163.768628 88.08203 
L 164.8871 88.065865 
L 165.834511 87.872902 
L 166.340173 87.684989 
L 166.54319 87.521324 
L 166.71049 87.063666 
L 166.909747 87.055584 
L 167.349617 87.178838 
L 168.338383 87.199044 
L 168.864723 87.302092 
L 169.334669 87.534457 
L 169.537685 87.845624 
L 170.000112 88.833679 
L 170.203129 89.043818 
L 170.319676 89.091301 
L 170.421184 89.199401 
L 170.513293 89.318614 
L 170.594124 89.399437 
L 170.646758 89.383272 
L 170.774583 89.364077 
L 170.940004 89.363067 
L 171.086627 89.399437 
L 171.41559 89.674234 
L 171.596049 89.884372 
L 171.699437 90.078346 
L 171.872377 90.078346 
L 172.015241 89.738892 
L 172.069755 89.873259 
L 172.116749 89.955092 
L 172.159984 90.05511 
L 172.188181 90.246053 
L 172.346083 90.246053 
L 172.3724 90.139973 
L 172.487067 89.906598 
L 172.611132 90.015709 
L 172.684444 90.046017 
L 172.973931 89.906598 
L 173.530347 90.650165 
L 173.688249 91.058319 
L 173.605538 91.432123 
L 173.789757 91.775619 
L 174.02661 92.909155 
L 174.325495 93.390049 
L 175.67894 94.643808 
L 176.511684 95.020643 
L 176.840646 95.467188 
L 177.235401 96.535056 
L 177.459095 96.924014 
L 178.158375 97.59282 
L 178.509894 98.091899 
L 178.703512 99.558828 
L 180.173503 101.050004 
L 180.269372 101.25105 
L 180.402837 101.990576 
L 180.500586 102.163334 
L 180.607733 102.281537 
L 181.252499 102.799811 
L 182.481878 103.515091 
L 183.263868 104.101054 
L 183.835322 104.779963 
L 184.245115 105.549798 
L 185.079739 107.67341 
L 185.16433 108.031049 
L 185.342909 108.511943 
L 185.762101 108.840285 
L 186.596725 109.294912 
L 187.51594 110.75881 
L 187.645645 111.158881 
L 187.955809 111.537737 
L 188.922018 112.450021 
L 189.647615 112.828876 
L 190.177714 113.294616 
L 190.707813 113.597701 
L 190.839398 113.716914 
L 190.861955 113.977567 
L 190.722851 114.040204 
L 190.527353 113.987669 
L 190.38073 113.902806 
L 190.38449 114.252363 
L 190.55367 114.410977 
L 190.831879 114.442296 
L 191.17024 114.410977 
L 192.948515 113.797736 
L 193.565084 114.048286 
L 194.497457 114.750432 
L 194.638441 114.763566 
L 195.001239 114.714062 
L 195.129065 114.750432 
L 195.192977 114.865604 
L 195.236212 115.131308 
L 195.298245 115.258604 
L 195.294486 115.329323 
L 195.268169 115.442475 
L 195.286967 115.589976 
L 195.441109 115.767785 
L 195.557655 115.834464 
L 195.704279 115.889019 
L 195.858421 115.923369 
L 196.001284 115.937513 
L 196.083995 115.814258 
L 195.933612 115.545524 
L 195.599011 115.165658 
L 195.696759 114.830244 
L 195.941131 114.824182 
L 196.403558 114.750432 
L 197.023887 114.917128 
L 197.52391 115.559667 
L 197.858511 116.39315 
L 197.978817 117.138738 
L 197.52391 121.207141 
L 197.221264 122.300266 
L 196.758837 123.276198 
L 195.441109 125.137137 
L 194.753108 125.72209 
L 194.365872 126.140346 
L 194.192932 126.577798 
L 194.130899 127.153659 
L 193.707948 128.34175 
L 193.6008 129.540954 
L 193.375226 130.034982 
L 192.459771 130.42293 
L 192.177804 130.85634 
L 191.798087 131.762563 
L 189.970937 134.243814 
L 189.271658 136.476537 
L 188.831788 137.507024 
L 186.670037 140.964207 
L 186.497097 141.76132 
L 186.421905 141.980551 
L 186.235807 142.154319 
L 182.981901 143.610135 
L 182.310818 144.015258 
L 179.726115 146.142911 
L 176.603793 149.454614 
L 175.654503 150.941748 
L 175.41953 151.16603 
L 175.103726 151.393344 
L 174.740928 151.91768 
L 174.032249 153.251252 
L 173.953298 153.479575 
L 173.895025 154.35751 
L 173.823593 154.611091 
L 173.688249 154.82527 
L 172.346083 155.927487 
L 172.441952 156.442731 
L 172.052836 156.795319 
L 171.086627 157.284296 
L 171.112944 157.330769 
L 170.936245 157.785395 
L 170.909928 157.793477 
L 170.750146 157.949061 
L 170.646758 158.079387 
L 170.594124 158.215775 
L 170.650518 158.444099 
L 170.793381 158.676464 
L 170.996398 158.872458 
L 171.229491 158.994702 
L 171.571612 158.832047 
L 171.958847 158.464304 
L 172.218257 158.315793 
L 172.188181 158.809821 
L 171.958847 159.139172 
L 171.537776 159.458421 
L 171.120464 159.579655 
L 170.909928 159.319003 
L 170.767064 159.319003 
L 170.637359 159.66856 
L 170.462539 160.340397 
L 170.27832 160.690965 
L 170.095981 160.858672 
L 169.58656 161.155694 
L 169.334669 161.383008 
L 169.041423 161.862892 
L 168.787652 162.495328 
L 168.612832 163.18636 
L 168.548919 163.841023 
L 167.962426 165.029114 
L 167.642863 165.898966 
L 167.67106 166.299038 
L 167.541355 166.48695 
L 167.417289 167.314371 
L 167.349617 167.502283 
L 167.161639 167.541684 
L 166.853354 167.651805 
L 166.54131 167.81547 
L 166.323255 168.009445 
L 166.169113 168.67623 
L 165.66909 168.946986 
L 165.018685 168.922739 
L 164.417154 168.702498 
L 163.977284 168.481246 
L 163.66712 168.377187 
L 162.911447 168.348899 
L 162.62008 168.396382 
L 162.071183 168.629757 
L 161.736582 168.702498 
L 161.808014 168.481246 
L 161.943358 168.367084 
L 161.830571 168.296364 
L 161.010985 168.062989 
L 160.552318 168.009445 
L 160.057935 167.802337 
L 160.003421 167.314371 
L 160.300427 166.299038 
L 160.296667 166.611215 
L 160.390657 166.888032 
L 160.563597 167.129489 
L 160.791051 167.332556 
L 160.8794 166.831456 
L 160.644427 165.714085 
L 160.870001 165.204903 
L 161.176406 164.711886 
L 161.413259 163.994586 
L 161.473412 163.261121 
L 161.264756 162.723651 
L 160.79669 162.565037 
L 160.123727 162.622623 
L 159.443245 162.836803 
L 158.702611 163.321738 
L 157.762719 163.571278 
L 157.469472 163.777375 
L 157.322849 163.995596 
L 156.924335 165.162471 
L 156.909297 165.441309 
L 157.059679 165.706003 
L 157.123592 165.932306 
L 156.933734 166.120218 
L 156.649886 166.250544 
L 156.082192 166.382891 
L 155.65924 166.59303 
L 155.241928 166.869847 
L 154.694911 167.393173 
L 154.495654 167.649784 
L 154.350911 167.930643 
L 154.294517 168.256964 
L 154.367829 168.492359 
L 154.694911 168.866163 
L 154.768223 169.10459 
L 154.599042 169.652162 
L 154.187369 169.96636 
L 153.177925 170.383606 
L 152.794449 170.633146 
L 152.379017 170.9726 
L 152.048175 171.379744 
L 151.914711 171.83235 
L 151.788765 172.111188 
L 151.525595 172.430437 
L 151.300021 172.858796 
L 151.283103 173.464965 
L 151.721093 174.473226 
L 151.860197 175.076364 
L 151.48424 175.980566 
L 151.127081 177.336364 
L 151.113923 177.687942 
L 151.066928 178.422416 
L 150.52931 179.737803 
L 150.143954 181.131992 
L 149.875145 181.750284 
L 148.416433 183.949667 
L 148.192738 184.600288 
L 148.288607 185.363051 
L 148.452148 185.64795 
L 148.655165 185.877284 
L 148.829985 186.123793 
L 148.903297 186.465268 
L 148.916455 187.220959 
L 148.878859 187.58466 
L 148.762313 187.905929 
L 148.593132 188.556551 
L 148.544258 189.05563 
L 148.713438 189.533493 
L 149.83379 191.405545 
L 150.00861 191.81875 
L 150.149593 192.508772 
L 150.145834 193.173537 
L 150.036806 193.800922 
L 149.647691 194.943551 
L 149.557461 195.454753 
L 149.611975 196.024552 
L 150.078162 197.293466 
L 150.301856 197.686465 
L 150.882709 198.38457 
L 151.025573 198.784641 
L 150.820676 199.82119 
L 150.798119 200.326331 
L 151.672218 201.935709 
L 151.677858 202.299411 
L 151.113923 202.884364 
L 150.777441 203.160171 
L 150.685332 203.19553 
L 149.649571 203.349093 
L 149.534904 203.478409 
L 149.431516 203.626921 
L 149.179625 203.826956 
L 148.890138 203.997694 
L 148.666444 204.070434 
L 143.856077 203.829987 
L 142.559026 204.037095 
L 137.066297 204.91503 
L 134.207145 205.749522 
L 130.310353 207.390219 
L 128.815925 208.494457 
L 127.832798 208.996567 
L 127.298939 209.418865 
L 127.069606 209.950273 
L 126.877868 210.206884 
L 124.411591 212.726527 
L 123.983 213.622646 
L 123.885252 214.797604 
L 124.035634 215.61088 
L 124.056312 215.898811 
L 123.983 216.214019 
L 123.648399 216.68683 
L 123.524333 217.090943 
L 123.317557 217.586991 
L 123.255524 217.848654 
L 123.255524 218.881162 
L 123.046868 219.925793 
L 121.851325 222.794993 
L 122.195326 223.281948 
L 122.138932 223.803254 
L 121.81373 224.288189 
L 121.360702 224.660983 
L 120.356897 225.112578 
L 119.858754 225.412632 
L 119.151955 226.709834 
L 119.005332 226.828037 
L 118.67449 226.933106 
L 118.509069 227.034134 
L 117.435713 228.258595 
L 117.37368 228.444487 
L 117.403756 228.998121 
L 117.140587 229.052676 
L 113.527642 228.573803 
L 113.059576 228.648564 
L 112.369695 228.983977 
L 111.858394 229.082985 
L 109.89214 228.913258 
L 109.422194 228.989029 
L 107.927765 229.607321 
L 107.081862 229.826552 
L 101.169942 230.10741 
L 98.846529 230.729744 
L 98.329588 230.778237 
L 98.14349 230.82471 
L 98.025063 230.928769 
L 97.921675 231.046972 
L 97.776932 231.133856 
L 97.35398 231.14699 
L 97.320144 231.133856 
L 96.560711 231.347026 
L 96.357695 231.456136 
L 96.045651 231.862269 
L 95.714809 232.841232 
L 95.498634 233.251407 
L 95.154633 233.662591 
L 95.053125 233.857576 
L 94.699725 234.874929 
L 94.609496 235.047687 
L 94.291812 235.414419 
L 92.154498 237.24808 
L 91.504093 238.462439 
L 91.346191 238.960508 
L 91.282278 239.539399 
L 91.376267 240.206185 
L 91.620639 240.539578 
L 92.39887 240.98006 
L 92.848138 241.470047 
L 93.022958 241.988321 
L 93.030477 243.121857 
L 92.870695 243.594669 
L 91.928924 244.910056 
L 91.87817 245.137369 
L 91.838694 245.481875 
L 91.865011 245.792032 
L 92.007875 245.926399 
L 92.192093 246.011263 
L 92.199613 246.203216 
L 92.086826 246.520445 
L 91.959 246.658853 
L 91.35371 246.97103 
L 91.139414 247.11348 
L 90.998431 247.319577 
L 90.910081 247.531736 
L 90.812332 247.962116 
L 90.590518 248.344003 
L 90.665709 248.470288 
L 90.445774 248.743064 
L 89.744615 248.965326 
L 89.391215 249.163341 
L 89.272789 249.385603 
L 89.146843 249.729099 
L 88.956985 250.041276 
L 88.675018 250.180695 
L 87.733246 251.289984 
L 86.695605 252.060829 
L 86.552742 252.060829 
L 86.327167 251.685004 
L 86.056479 251.848669 
L 85.774511 252.204289 
L 85.505702 252.400283 
L 85.142904 252.464941 
L 84.806422 252.586175 
L 84.488739 252.656895 
L 84.157897 252.569 
L 83.796978 252.959979 
L 83.368387 253.10546 
L 82.420976 253.232755 
L 81.650265 253.541901 
L 81.266789 253.543922 
L 81.005499 253.232755 
L 80.740449 253.382277 
L 80.317498 253.317619 
L 80.056208 253.417637 
L 79.268579 252.893301 
L 79.097518 253.078182 
L 78.90954 252.602339 
L 78.806152 252.165898 
L 78.546742 251.846649 
L 77.60121 251.668839 
L 76.935767 251.435464 
L 76.651919 251.381919 
L 76.38123 251.410207 
L 75.905645 251.525379 
L 75.627437 251.551647 
L 74.811611 251.38394 
L 74.508965 251.381919 
L 74.260834 251.453649 
L 73.77773 251.674901 
L 73.640505 251.721374 
L 72.55211 251.398084 
L 71.984416 251.357673 
L 71.51071 251.721374 
L 71.294535 251.602161 
L 71.068961 251.550636 
L 66.766135 252.060829 
L 64.938985 252.060829 
L 64.536711 252.169939 
L 63.517869 252.701347 
L 63.269737 252.893301 
L 63.183267 253.115562 
L 63.190786 253.307516 
L 63.23966 253.487346 
L 63.269737 253.678289 
L 63.194546 253.890448 
L 62.869343 254.190502 
L 62.796031 254.342044 
L 62.540381 254.602697 
L 61.957648 254.723931 
L 60.901209 254.788589 
L 59.519568 255.089653 
L 59.06654 255.127033 
L 58.649228 255.272514 
L 58.171763 255.557413 
L 57.694298 255.748356 
L 57.275106 255.621061 
L 56.846515 255.908991 
L 56.261902 256.40908 
L 55.746842 256.964735 
L 55.526907 257.424413 
L 55.337049 257.6982 
L 54.904698 257.968955 
L 54.092632 258.348821 
L 53.336958 258.545826 
L 49.648822 258.623618 
L 47.699486 258.921651 
L 43.92676 260.170359 
L 41.964265 261.216 
L 40.522029 257.862219 
L 39.07531 254.499325 
L 37.630978 251.138997 
L 36.189033 247.776103 
L 35.293786 245.69755 
L 35.050279 245.354974 
L 34.653983 245.208705 
L 33.784996 245.157383 
L 33.443609 244.934131 
L 33.479419 244.9213 
L 33.601172 244.904621 
L 33.644144 244.89179 
L 32.911235 243.114755 
L 31.922882 240.718004 
L 30.93453 238.319969 
L 29.949758 235.923218 
L 28.961405 233.526466 
L 27.970665 231.129714 
L 26.982312 228.734246 
L 25.995153 226.334928 
L 25.005606 223.938818 
L 24.01606 221.542708 
L 23.031288 219.144674 
L 22.040548 216.747281 
L 21.052195 214.351171 
L 20.066229 211.953136 
L 19.077877 209.556384 
L 18.089524 207.15835 
L 17.101171 204.761598 
L 16.448102 203.183173 
L 16.284706 202.788256 
L 18.855855 201.869587 
L 22.809267 200.453091 
L 26.760291 199.036595 
L 30.710121 197.6201 
L 34.66592 196.204887 
L 38.619331 194.78775 
L 42.570355 193.371255 
L 46.526153 191.955401 
L 50.477177 190.538905 
L 54.430589 189.123693 
L 58.381613 187.706556 
L 62.335024 186.29006 
L 66.290823 184.874206 
L 70.244234 183.45771 
L 74.192871 182.042498 
L 78.146282 180.627285 
L 82.099693 179.210148 
L 85.575639 177.964941 
L 86.318098 175.566906 
L 86.470886 175.076778 
L 86.900605 173.691076 
L 87.564282 171.538106 
L 88.428494 168.742965 
L 89.452656 165.437167 
L 90.591411 161.748376 
L 91.811334 157.804257 
L 93.071842 153.73055 
L 94.035418 150.616466 
L 94.33235 149.656842 
L 95.549886 145.71144 
L 96.691028 142.022649 
L 97.712803 138.717493 
L 98.577015 135.924277 
L 99.243079 133.770023 
L 99.67041 132.384321 
L 99.823199 131.89291 
L 99.938262 131.519457 
L 100.802002 128.716059 
L 100.790066 128.146382 
L 100.551333 127.603648 
L 99.324248 125.563587 
L 97.457359 122.46372 
L 95.592858 119.362569 
L 93.723582 116.261419 
L 91.859081 113.160269 
L 90.390875 110.725026 
L 90.639157 107.102954 
L 90.49353 103.480241 
L 90.49353 103.477675 
L 90.574699 102.742483 
L 91.293284 100.354713 
L 93.492011 96.535051 
L 94.002899 95.01591 
L 94.485139 92.539609 
L 94.74297 91.712037 
L 95.175076 91.070508 
L 95.179851 91.067942 
L 96.041675 90.133235 
L 96.361577 89.653371 
L 97.123134 86.572109 
L 97.333218 86.152549 
L 98.412289 84.575671 
L 98.51017 84.245925 
L 98.436163 82.363038 
L 98.33112 81.648375 
L 97.961085 81.103717 
L 97.123134 80.607815 
L 96.736387 80.260748 
L 96.533464 79.813603 
L 96.62657 79.451139 
L 97.619697 79.266379 
L 98.600888 78.898141 
L 99.049705 78.655002 
L 99.727706 78.288047 
L 100.35796 78.036568 
L 101.016862 77.915319 
L 101.783193 77.933923 
L 102.535201 78.059022 
L 102.890912 78.05004 
L 103.270497 77.908904 
L 103.685892 77.837694 
L 104.287498 78.298953 
L 104.717217 78.350917 
L 107.407733 77.266734 
L 108.868776 76.913251 
L 109.12422 76.518711 
L 108.26717 75.000212 
L 107.995015 73.947464 
L 107.629754 73.05638 
L 106.937429 72.770258 
L 105.643499 73.28733 
L 105.254365 73.26616 
L 103.807645 72.953094 
L 103.530716 72.817731 
L 103.494906 72.441796 
L 103.67873 72.007481 
L 104.576364 70.435735 
L 104.724379 70.075196 
L 104.805548 68.872329 
L 104.753026 68.663833 
L 104.578752 68.44443 
L 104.11561 68.136496 
L 103.967596 67.962 
L 103.893589 67.584781 
L 103.94611 66.240137 
L 103.657244 65.19252 
L 103.626209 64.669033 
L 103.860167 64.324532 
L 104.184843 63.978748 
L 104.328082 63.146043 
L 104.975048 62.562252 
L 104.898653 62.081747 
L 104.55363 61.323856 
L 104.433125 61.05915 
L 104.385378 60.603023 
L 104.485646 59.677939 
L 104.485646 59.210906 
L 104.292273 57.302999 
L 104.533392 56.535731 
L 105.232879 55.665176 
L 105.889763 55.077148 
L 105.989661 54.987722 
L 106.79419 54.487329 
L 107.682275 54.26087 
L 108.61651 54.400275 
L 108.675403 54.409063 
L 109.303269 54.795905 
L 109.565875 55.529814 
L 109.757113 56.623686 
L 109.849967 57.154806 
L 109.296107 56.76219 
L 108.997691 56.612714 
L 108.675403 56.535731 
L 108.269557 56.656338 
L 108.19555 56.968763 
L 108.360276 57.336359 
L 109.2221 58.102344 
L 109.902488 59.812018 
L 110.609136 60.367582 
L 110.93555 60.4123 
L 110.974397 60.417622 
L 111.463799 60.399017 
L 111.905454 60.277127 
L 112.113151 60.021798 
L 112.254004 59.596465 
L 112.750567 59.003692 
L 113.127765 58.077966 
L 113.13217 58.076004 
L 113.476314 57.922716 
L 114.340526 57.817505 
L 114.755921 57.619914 
L 115.518656 56.887194 
L 115.648781 56.76219 
L 116.295746 56.310554 
L 116.4175 56.064849 
L 116.433248 55.893727 
L 116.474263 55.448048 
L 116.548803 54.638089 
L 116.668238 54.503904 
L 116.773211 54.385968 
L 118.027845 54.248711 
" clip-path="url(#p14306dac2d)" style="fill: #f5f5f5; stroke: #000000"/>
    <path d="M 105.390057 240.148599 
L 105.303587 239.913203 
L 105.286669 239.86673 
L 105.286669 239.86471 
L 105.410734 239.672756 
L 105.681423 239.54344 
L 106.008506 239.454535 
L 106.472812 239.745496 
L 106.653272 239.809144 
L 106.651392 239.810154 
L 106.305512 240.024334 
L 105.609992 240.020293 
L 105.391937 240.147588 
L 105.390057 240.148599 
" clip-path="url(#p14306dac2d)" style="fill: #f5f5f5; stroke: #000000"/>
    <path d="M 110.452315 238.438192 
L 110.452315 238.440213 
L 110.518108 238.784719 
L 110.523747 238.822099 
L 110.741802 239.123163 
L 111.046327 239.336332 
L 111.380928 239.454535 
L 110.647813 239.933409 
L 110.256818 240.087982 
L 109.89214 240.148599 
L 108.869537 240.099095 
L 108.546214 239.963717 
L 108.346957 239.428268 
L 108.956007 239.044361 
L 109.839506 238.739256 
L 110.452315 238.438192 
" clip-path="url(#p14306dac2d)" style="fill: #f5f5f5; stroke: #000000"/>
    <path d="M 176.304908 162.308426 
L 176.353782 162.836803 
L 176.491006 163.25607 
L 177.201565 164.562364 
L 177.406461 164.94223 
L 177.316232 165.215006 
L 177.111335 165.414031 
L 176.225957 166.079807 
L 175.289824 166.609194 
L 174.868753 166.993101 
L 174.316096 167.844769 
L 174.041648 168.426691 
L 173.772839 169.619833 
L 173.564183 170.042131 
L 173.564183 170.044152 
L 173.564183 170.320969 
L 173.567942 170.343195 
L 173.603658 170.571519 
L 173.605538 170.737205 
L 173.507789 170.910973 
L 172.729559 171.692931 
L 172.312247 172.275864 
L 172.101711 172.509239 
L 171.894935 172.58501 
L 171.601688 172.626431 
L 171.338519 172.69311 
L 171.229491 172.848693 
L 171.15054 173.111366 
L 170.953163 173.394245 
L 170.699392 173.596301 
L 170.439982 173.618528 
L 170.436222 173.618528 
L 170.315916 173.390204 
L 170.214408 173.202292 
L 170.095981 172.427406 
L 170.073424 171.65151 
L 170.124178 171.231232 
L 170.116659 171.200924 
L 170.060265 170.973611 
L 170.221927 169.009623 
L 170.344113 168.693405 
L 170.594124 168.348899 
L 170.721949 168.221604 
L 171.133622 167.904375 
L 171.308442 167.839717 
L 171.353557 167.791224 
L 171.398672 167.74172 
L 171.50018 167.282042 
L 171.556573 167.147674 
L 171.947569 167.001184 
L 172.331044 166.985019 
L 172.723919 166.923392 
L 173.131832 166.638492 
L 173.321691 166.375819 
L 173.406281 166.256606 
L 173.492751 165.94847 
L 173.507789 165.892905 
L 173.605538 164.94223 
L 173.748402 164.483562 
L 173.962697 164.109758 
L 175.07177 162.622623 
L 175.498481 161.722462 
L 175.757891 160.905145 
L 175.959028 160.613173 
L 176.304908 160.521238 
L 176.583116 160.931412 
L 176.583116 160.934443 
L 176.553039 161.358761 
L 176.395137 161.813388 
L 176.304908 162.308426 
" clip-path="url(#p14306dac2d)" style="fill: #f5f5f5; stroke: #000000"/>
   </g>
  </g>
 </g>
 <defs>
  <clipPath id="p14306dac2d">
   <rect x="7.2" y="7.2" width="199.863523" height="266.112"/>
  </clipPath>
 </defs>
</svg>
