<?xml version="1.0" encoding="utf-8" standalone="no"?>
<!DOCTYPE svg PUBLIC "-//W3C//DTD SVG 1.1//EN"
  "http://www.w3.org/Graphics/SVG/1.1/DTD/svg11.dtd">
<svg xmlns:xlink="http://www.w3.org/1999/xlink" width="292.868953pt" height="280.512pt" viewBox="0 0 292.868953 280.512" xmlns="http://www.w3.org/2000/svg" version="1.1">
 <metadata>
  <rdf:RDF xmlns:dc="http://purl.org/dc/elements/1.1/" xmlns:cc="http://creativecommons.org/ns#" xmlns:rdf="http://www.w3.org/1999/02/22-rdf-syntax-ns#">
   <cc:Work>
    <dc:type rdf:resource="http://purl.org/dc/dcmitype/StillImage"/>
    <dc:date>2024-03-04T13:11:12.477483</dc:date>
    <dc:format>image/svg+xml</dc:format>
    <dc:creator>
     <cc:Agent>
      <dc:title>Matplotlib v3.8.0, https://matplotlib.org/</dc:title>
     </cc:Agent>
    </dc:creator>
   </cc:Work>
  </rdf:RDF>
 </metadata>
 <defs>
  <style type="text/css">*{stroke-linejoin: round; stroke-linecap: butt}</style>
 </defs>
 <g id="figure_1">
  <g id="patch_1">
   <path d="M 0 280.512 
L 292.868953 280.512 
L 292.868953 0 
L 0 0 
z
" style="fill: #ffffff"/>
  </g>
  <g id="axes_1">
   <g id="PatchCollection_1">
    <path d="M 256.328363 30.324399 
L 256.42758 30.763599 
L 256.133721 32.200909 
L 256.13695 32.922372 
L 256.258046 33.193739 
L 256.650397 33.655999 
L 256.810244 33.897422 
L 256.848994 34.218383 
L 256.648782 34.368103 
L 256.364611 34.489751 
L 256.156325 34.726495 
L 256.141794 34.919259 
L 256.270963 35.243964 
L 256.258046 35.443278 
L 256.17893 35.583641 
L 256.064292 35.677216 
L 255.289278 36.146961 
L 255.084222 36.333175 
L 254.972814 36.627 
L 255.061618 37.240852 
L 255.410374 37.817273 
L 255.889914 38.258946 
L 256.379142 38.469489 
L 257.583644 38.542478 
L 258.029277 38.786708 
L 258.415169 39.44454 
L 258.557255 40.137929 
L 258.620225 40.887464 
L 258.781687 41.529387 
L 259.217632 41.899008 
L 259.588993 41.921466 
L 260.328486 41.731509 
L 260.691774 41.689401 
L 261.006624 41.753967 
L 261.256889 41.840056 
L 261.497466 41.837249 
L 262.073883 41.450785 
L 262.348367 41.452656 
L 262.624466 41.501315 
L 262.921555 41.450785 
L 263.034578 41.345045 
L 263.223488 41.028762 
L 263.373647 40.916472 
L 263.543181 40.865942 
L 263.715945 40.838805 
L 264.06793 40.830383 
L 264.437677 40.717158 
L 265.015708 40.155708 
L 265.301495 40.239926 
L 265.454883 40.82664 
L 265.233681 42.30138 
L 265.540457 42.894645 
L 266.063592 43.176305 
L 267.195436 43.573063 
L 267.70081 43.930518 
L 268.073786 44.427401 
L 268.269154 44.637009 
L 268.550097 44.781114 
L 268.76793 44.798573 
L 270.889601 49.648485 
L 273.011273 54.498396 
L 272.909027 54.560474 
L 272.60762 54.934922 
L 272.668975 55.373789 
L 272.796529 55.873478 
L 272.693194 56.436799 
L 272.451002 56.74466 
L 271.511297 57.466122 
L 271.212594 57.786148 
L 271.013996 57.933997 
L 270.776648 57.890017 
L 270.364922 57.637364 
L 269.943508 57.524139 
L 269.388081 57.570926 
L 268.840727 57.749654 
L 268.459678 58.035058 
L 268.333738 58.452402 
L 268.391864 59.42558 
L 268.244935 59.770871 
L 266.819231 61.079984 
L 266.61579 61.185723 
L 265.265973 61.462705 
L 264.994718 61.456155 
L 264.746068 61.367258 
L 264.06793 60.884412 
L 263.468909 60.791773 
L 262.871502 61.011674 
L 260.717608 62.208497 
L 259.044868 62.624905 
L 258.526578 62.638941 
L 257.535205 62.230954 
L 256.989466 62.34418 
L 256.740815 62.56221 
L 256.416278 63.089036 
L 256.207993 63.337009 
L 256.096585 63.395962 
L 255.675171 63.523223 
L 254.654735 64.259658 
L 253.752166 65.159848 
L 253.434088 65.408757 
L 253.141843 65.483149 
L 252.481466 65.396124 
L 252.15047 65.397996 
L 251.243057 65.607136 
L 250.556847 65.58187 
L 246.439583 64.516053 
L 245.796967 64.211934 
L 245.180185 63.772132 
L 244.928305 63.504508 
L 244.702259 63.163896 
L 244.509458 63.042044 
L 244.327669 62.927151 
L 243.756096 62.919665 
L 242.73566 63.13208 
L 241.279279 63.203197 
L 235.76699 62.142058 
L 231.817646 60.762765 
L 230.829502 60.60088 
L 229.844588 60.683226 
L 228.843528 61.065947 
L 227.672933 61.896892 
L 227.267666 62.096207 
L 224.789234 62.507 
L 224.576105 62.605254 
L 224.11917 62.971132 
L 224.090107 63.392219 
L 224.214432 63.861029 
L 224.222505 64.37569 
L 223.988386 64.737825 
L 223.24082 65.243129 
L 222.988941 65.654859 
L 222.988941 65.657666 
L 222.966336 66.340295 
L 222.885605 66.558792 
L 222.748363 66.703833 
L 222.360856 66.907358 
L 222.196165 67.027134 
L 221.939442 67.434185 
L 221.86194 67.888959 
L 221.984651 68.325953 
L 222.320491 68.675923 
L 222.709612 68.895824 
L 223.087432 69.039462 
L 223.489471 69.096074 
L 223.933489 69.050691 
L 224.406571 69.097478 
L 224.666524 69.405807 
L 225.01528 70.304594 
L 225.231638 70.649417 
L 225.352734 71.042431 
L 225.307525 71.411116 
L 225.01528 71.680612 
L 224.080419 72.156908 
L 223.712287 72.5284 
L 223.57343 73.081428 
L 223.718746 73.622758 
L 224.070731 74.09999 
L 224.532511 74.428906 
L 225.01528 74.522949 
L 226.082539 74.254389 
L 226.399004 74.274039 
L 227.228915 74.560378 
L 227.789186 74.531838 
L 228.380134 74.391476 
L 228.946863 74.372761 
L 229.436091 74.707759 
L 229.633074 75.291666 
L 229.479686 75.874637 
L 229.121242 76.398657 
L 228.699827 76.807579 
L 228.152474 77.185621 
L 227.60189 77.426577 
L 225.919464 77.70964 
L 225.556176 78.038088 
L 225.01528 78.971498 
L 224.921633 79.186252 
L 224.85059 79.413171 
L 224.802151 79.648044 
L 224.76663 80.178145 
L 224.802151 80.459338 
L 224.884496 80.72509 
L 225.01528 80.973064 
L 225.758002 81.591126 
L 226.755833 82.115613 
L 227.590588 82.765958 
L 227.844082 83.764402 
L 227.508243 85.144631 
L 227.027088 86.463101 
L 226.878544 86.765816 
L 226.709009 87.022211 
L 226.503954 87.24024 
L 226.244001 87.425986 
L 225.657896 87.652905 
L 225.406017 87.821808 
L 225.251014 88.14043 
L 225.199346 88.936285 
L 225.415704 89.49633 
L 225.838733 89.922564 
L 226.407077 90.312771 
L 226.917294 90.815736 
L 227.782727 91.986357 
L 228.360759 92.313869 
L 229.815525 92.554357 
L 230.241783 92.817302 
L 230.409703 93.220142 
L 230.448454 94.137176 
L 230.638978 95.065438 
L 230.593769 95.443481 
L 230.424234 95.78269 
L 230.331324 95.917813 
L 230.314922 95.941667 
L 230.167511 96.156053 
L 230.320899 96.497134 
L 230.52434 96.762418 
L 230.787522 96.935064 
L 231.123362 96.995888 
L 231.415607 96.919156 
L 231.92421 96.614102 
L 232.232601 96.589305 
L 232.492554 96.723117 
L 232.947875 97.176955 
L 233.204598 97.313106 
L 233.517833 97.326207 
L 234.342901 97.194734 
L 234.649677 97.098352 
L 234.9726 96.871433 
L 235.096925 96.599598 
L 235.163124 96.287526 
L 235.313283 95.935684 
L 235.589382 95.657767 
L 235.873554 95.600686 
L 236.085068 95.770057 
L 236.144809 96.175704 
L 236.038245 96.564975 
L 235.642664 97.325271 
L 235.529641 97.727175 
L 235.5361 98.123933 
L 235.647508 98.859899 
L 235.628133 99.22063 
L 235.502193 99.529427 
L 235.329429 99.843839 
L 235.214792 100.172754 
L 235.261616 100.533485 
L 235.729853 101.797214 
L 236.148038 102.28661 
L 236.70508 102.477503 
L 237.307331 102.443816 
L 237.867601 102.262749 
L 238.473081 102.22298 
L 239.548414 102.760567 
L 240.195874 102.695533 
L 240.85625 102.431184 
L 241.371312 102.378782 
L 241.858925 102.572949 
L 242.441801 103.047374 
L 242.969779 103.365996 
L 244.066102 103.627538 
L 244.597309 103.937271 
L 245.66331 104.802257 
L 246.108587 105.16357 
L 246.51547 105.672149 
L 246.610732 106.08341 
L 246.447656 106.439463 
L 245.947126 107.005591 
L 245.819572 107.310645 
L 245.65811 107.928239 
L 245.604828 108.125682 
L 245.1156 108.089188 
L 244.9057 108.125682 
L 244.539183 108.249201 
L 244.059643 108.492495 
L 243.706043 108.834979 
L 243.722189 109.249516 
L 243.521977 109.22893 
L 243.163533 109.128804 
L 243.02952 109.187757 
L 242.859985 109.35432 
L 242.724358 109.416079 
L 242.596804 109.407658 
L 241.639338 109.047394 
L 241.355166 109.107282 
L 241.473033 109.619137 
L 241.316415 109.62943 
L 240.932137 109.601357 
L 240.785208 109.677153 
L 240.665726 109.854945 
L 240.596298 110.007472 
L 240.499421 110.13567 
L 240.308897 110.238602 
L 239.929462 110.281647 
L 239.577477 110.244217 
L 239.269086 110.29849 
L 239.020435 110.610095 
L 238.324537 110.361185 
L 238.053282 110.7542 
L 237.91604 111.38583 
L 237.62218 111.856512 
L 237.299258 111.926693 
L 236.290124 111.7227 
L 235.846106 112.557387 
L 235.645894 112.71085 
L 235.394014 112.803489 
L 234.215346 113.709294 
L 233.977998 113.95446 
L 233.827839 114.246414 
L 233.774557 114.644107 
L 233.768098 114.882723 
L 233.739035 114.966004 
L 233.671222 115.025892 
L 233.550126 115.195263 
L 233.521063 115.280416 
L 233.475853 115.496574 
L 233.443561 115.577048 
L 233.398352 115.618221 
L 233.275641 115.674366 
L 233.241734 115.700567 
L 233.075429 115.990649 
L 233.025376 116.051473 
L 233.181994 116.256402 
L 234.058729 117.843431 
L 234.51082 119.558659 
L 234.980673 120.277314 
L 235.021038 120.619798 
L 234.938693 120.958539 
L 234.753012 121.249556 
L 234.497904 121.567711 
L 234.308994 121.881187 
L 233.693826 123.439208 
L 233.585647 123.855616 
L 233.582418 124.66691 
L 233.332153 125.386501 
L 233.290173 125.753315 
L 233.340226 126.103285 
L 233.422571 126.361551 
L 233.558199 126.588002 
L 233.764869 126.844398 
L 234.019978 126.956687 
L 234.704574 126.833169 
L 235.017809 126.842526 
L 235.251928 126.982888 
L 235.537715 127.243026 
L 235.671727 127.412397 
L 234.767544 127.904601 
L 234.431704 128.156317 
L 234.194356 128.476343 
L 234.191127 128.850643 
L 233.952164 129.071479 
L 233.734192 129.35969 
L 233.492 129.609535 
L 233.181994 129.717146 
L 232.834852 129.724632 
L 232.542607 129.773291 
L 232.27781 129.904296 
L 232.00817 130.155076 
L 231.837021 130.467616 
L 231.770822 130.72214 
L 231.648111 130.865309 
L 231.310657 130.840044 
L 230.903775 130.720268 
L 230.729396 130.705296 
L 230.530799 130.747405 
L 230.366108 130.859695 
L 230.23371 131.021579 
L 230.12876 131.210601 
L 230.243398 131.538113 
L 230.06902 131.86001 
L 229.752555 132.104241 
L 229.444164 132.199687 
L 229.389267 132.274547 
L 229.531353 132.633874 
L 229.545885 132.762072 
L 229.428018 132.894948 
L 229.192285 133.071805 
L 229.061501 133.200938 
L 228.740193 133.683784 
L 228.485084 133.9093 
L 228.365603 134.053405 
L 228.263882 134.419283 
L 228.036221 134.594268 
L 227.984554 134.740244 
L 227.936115 134.997575 
L 227.81179 135.093957 
L 227.451731 135.167882 
L 227.120736 135.335381 
L 226.876929 135.500072 
L 226.6638 135.704066 
L 226.432911 135.981983 
L 226.271449 136.325403 
L 226.28921 136.635135 
L 226.339263 136.976684 
L 226.277908 137.41555 
L 226.068008 137.645744 
L 225.447996 137.821665 
L 225.317213 137.96577 
L 225.220336 138.204386 
L 224.427561 139.322606 
L 224.274173 139.448932 
L 224.07719 139.483554 
L 223.815622 139.393722 
L 223.849529 139.511627 
L 223.883436 139.768022 
L 223.912499 139.887798 
L 223.623484 139.856918 
L 223.311863 140.02161 
L 223.063213 140.289234 
L 222.961492 140.573701 
L 222.916283 140.645754 
L 223.686453 141.065905 
L 224.002918 141.536587 
L 224.358133 142.310451 
L 224.580949 143.10303 
L 224.548599 143.342077 
L 224.509906 143.627985 
L 221.915223 145.818573 
L 221.312972 146.160121 
L 218.471253 146.810466 
L 215.774849 148.082148 
L 215.542344 148.353516 
L 214.87228 150.56469 
L 214.205445 152.764167 
L 213.394909 155.428711 
L 212.537549 157.115398 
L 211.770608 158.621017 
L 210.551575 161.012791 
L 209.579578 162.345297 
L 209.177539 163.029797 
L 208.668936 164.281829 
L 208.478411 164.550389 
L 208.218459 164.735667 
L 206.203421 165.808971 
L 204.422503 166.756884 
L 202.34611 167.862939 
L 200.105027 169.056486 
L 199.673926 169.361072 
L 198.513019 170.810079 
L 198.141658 171.562889 
L 197.224557 175.197337 
L 196.909708 176.063372 
L 196.476991 176.847061 
L 195.868282 177.501618 
L 193.950122 179.122802 
L 192.702026 180.79826 
L 192.524418 181.160863 
L 192.440458 181.494925 
L 192.259622 183.707503 
L 192.172432 183.98308 
L 191.960918 184.15479 
L 189.46957 184.941287 
L 187.272081 185.633741 
L 185.965859 185.744159 
L 184.726644 185.636548 
L 183.377634 185.75726 
L 182.048 186.053424 
L 180.866103 186.468897 
L 178.943099 187.453304 
L 177.16541 188.362852 
L 175.880985 188.659016 
L 174.790314 188.508361 
L 173.987851 187.940361 
L 173.383986 187.03596 
L 172.899602 185.88265 
L 172.851163 185.530809 
L 172.913326 184.859877 
L 172.781735 184.491192 
L 172.59444 184.264741 
L 172.152036 183.896056 
L 171.63536 183.281269 
L 171.246238 182.96405 
L 170.807063 182.728709 
L 170.345284 182.578522 
L 170.017517 182.53267 
L 169.715584 182.613144 
L 169.111719 182.861118 
L 168.506239 182.9575 
L 168.231755 183.04546 
L 167.949198 183.245243 
L 167.072463 184.244154 
L 165.998745 185.046559 
L 165.842933 185.212591 
L 164.482623 186.662129 
L 164.30663 186.991512 
L 163.153796 190.485598 
L 162.788894 191.01991 
L 161.453609 192.356159 
L 160.515518 193.930088 
L 158.681318 195.741698 
L 157.673799 196.471582 
L 156.259398 197.949129 
L 155.616782 199.086999 
L 155.196982 200.454128 
L 154.859528 202.685888 
L 154.533376 204.841853 
L 154.654472 205.587645 
L 155.1437 206.15658 
L 157.568849 207.197133 
L 158.206621 207.64442 
L 159.332007 208.693395 
L 160.00853 208.961019 
L 163.765735 208.801941 
L 164.353454 208.959147 
L 164.914532 209.282916 
L 165.359358 209.869631 
L 165.435245 210.535884 
L 165.342404 212.027467 
L 165.397301 212.745186 
L 165.344826 213.058662 
L 165.201126 213.434833 
L 165.115551 213.788546 
L 165.139771 214.139452 
L 165.258445 214.8684 
L 165.18498 215.531846 
L 164.952475 216.200906 
L 164.112877 217.664417 
L 164.044255 217.963856 
L 164.028917 218.609523 
L 163.894096 219.54995 
L 163.899748 219.82506 
L 164.190378 220.737415 
L 164.686064 221.610469 
L 165.299617 222.376847 
L 165.945463 222.964497 
L 166.232864 223.337861 
L 166.552557 224.340047 
L 166.783447 224.76207 
L 167.023217 224.950156 
L 167.634348 225.18035 
L 168.515927 225.381536 
L 170.345284 225.33007 
L 170.961259 225.19345 
L 171.5514 224.923019 
L 172.142348 224.741484 
L 172.768011 224.876231 
L 173.104658 225.363756 
L 173.161169 226.102998 
L 173.088511 227.691899 
L 172.991635 229.765518 
L 173.114345 230.395277 
L 173.362996 230.776127 
L 173.989466 231.494782 
L 174.115405 231.94862 
L 174.186448 232.374385 
L 174.370514 232.735584 
L 174.893649 233.355986 
L 175.878563 234.257111 
L 176.146589 234.619246 
L 176.323389 235.051562 
L 176.845716 237.542525 
L 177.188014 238.543308 
L 177.622345 239.494964 
L 178.56205 241.049711 
L 179.089221 242.633465 
L 179.396942 243.139045 
L 179.509828 243.324516 
L 179.189328 243.569214 
L 178.155168 244.101187 
L 177.930736 244.533971 
L 177.806411 245.100099 
L 177.852428 245.616164 
L 178.155168 245.899228 
L 178.213294 246.001693 
L 178.22944 246.113982 
L 178.207643 246.234226 
L 178.155168 246.357745 
L 178.118032 246.721751 
L 178.093812 246.861646 
L 178.092198 246.999201 
L 178.111573 247.133948 
L 178.155168 247.265421 
L 178.513612 247.483451 
L 179.138467 247.594337 
L 179.684206 247.781954 
L 179.805302 248.232985 
L 179.653529 248.403291 
L 178.904348 248.689631 
L 178.736429 248.890349 
L 178.623406 249.093874 
L 178.46033 249.227218 
L 178.155168 249.215521 
L 177.814484 249.058783 
L 177.517396 249.03539 
L 177.226765 249.134579 
L 176.270914 249.820951 
L 176.027108 250.146591 
L 176.083619 250.464278 
L 176.28706 250.765121 
L 176.191798 250.888172 
L 175.920543 250.953206 
L 175.600042 251.076725 
L 175.01313 251.398623 
L 174.691822 251.493601 
L 172.599284 251.317681 
L 172.024481 251.014498 
L 171.75807 250.744535 
L 171.641818 250.482993 
L 171.565931 249.762934 
L 171.414158 249.126157 
L 171.427074 248.927779 
L 171.512649 248.815021 
L 171.782289 248.624596 
L 171.875937 248.440721 
L 171.683798 248.00513 
L 171.028265 247.990158 
L 169.394276 248.406099 
L 168.682232 248.941815 
L 168.407748 249.052233 
L 167.553617 249.103699 
L 167.25007 249.254823 
L 166.679304 249.6979 
L 166.370106 249.768549 
L 166.048798 249.789135 
L 165.148651 250.109161 
L 164.603719 250.163435 
L 164.418846 250.273385 
L 164.251733 250.568146 
L 163.873914 251.695255 
L 163.704379 252.025574 
L 163.139265 252.53275 
L 162.453054 252.692763 
L 159.281954 252.740954 
L 158.431053 252.63194 
L 157.743227 252.267465 
L 156.520965 250.892851 
L 156.06403 250.67295 
L 151.654521 250.546624 
L 150.489577 251.002333 
L 149.871988 251.100119 
L 149.582972 251.036956 
L 148.703008 250.579843 
L 148.325188 250.461471 
L 148.02487 250.519487 
L 147.38952 250.893786 
L 146.967299 251.059882 
L 146.683934 251.026663 
L 146.465961 250.790386 
L 146.164836 250.209286 
L 146.048584 250.061906 
L 145.911342 249.939791 
L 145.77087 249.879435 
L 145.553705 249.899553 
L 145.472167 250.006697 
L 145.443911 250.155013 
L 145.394665 250.300054 
L 144.907052 251.265747 
L 144.74882 251.402834 
L 144.450117 251.152053 
L 144.358891 250.099336 
L 144.130423 249.725504 
L 143.319887 249.687606 
L 142.985662 250.447434 
L 142.980011 251.901588 
L 142.972746 253.800222 
L 142.963058 256.315046 
L 141.744025 256.305689 
L 140.203684 256.29446 
L 138.387244 256.279488 
L 137.667126 256.401135 
L 137.169826 256.783856 
L 137.173055 256.641155 
L 137.15045 256.471316 
L 137.095553 256.325339 
L 136.997869 256.253755 
L 136.807345 256.289781 
L 136.798465 256.442308 
L 136.858205 256.625247 
L 136.879195 256.752976 
L 136.737917 256.99206 
L 136.551429 257.207282 
L 136.3383 257.305068 
L 136.11629 257.198861 
L 136.020221 257.02949 
L 135.983085 256.88866 
L 135.925766 256.812864 
L 135.768341 256.84468 
L 135.62787 256.968199 
L 135.592348 257.131487 
L 135.598807 257.291968 
L 135.581046 257.408001 
L 135.609302 257.444963 
L 135.674694 257.504851 
L 135.712637 257.575967 
L 135.656933 257.64147 
L 135.595578 257.645681 
L 135.442189 257.614333 
L 135.393751 257.619948 
L 135.283957 257.692468 
L 135.004629 257.825812 
L 134.883533 257.911433 
L 134.512172 258.522009 
L 134.504633 258.54359 
L 134.505904 258.519276 
L 134.105429 257.403009 
L 134.088902 257.965931 
L 134.105429 258.144239 
L 134.147384 258.258445 
L 134.280876 258.494961 
L 134.310117 258.583378 
L 134.250363 258.943678 
L 133.968124 259.651752 
L 133.884215 260.009842 
L 133.8982 260.335512 
L 134.063475 260.85791 
L 134.105429 261.185054 
L 133.97448 261.216 
L 133.68207 260.968432 
L 133.242183 260.504242 
L 133.190058 260.948538 
L 132.921803 260.95959 
L 132.625579 260.698023 
L 132.487002 260.325197 
L 132.535313 260.194045 
L 132.755257 260.018684 
L 132.807382 259.942792 
L 132.789583 259.60607 
L 132.807382 259.516179 
L 132.921803 259.203772 
L 133.023511 259.133775 
L 133.242183 259.133775 
L 133.242183 259.021043 
L 133.026054 258.833893 
L 132.778141 258.548011 
L 132.573454 258.185501 
L 132.487002 257.772887 
L 132.609052 257.291013 
L 132.640835 257.075865 
L 132.39038 257.111232 
L 132.02296 256.857032 
L 131.856413 256.784088 
L 132.293757 258.360125 
L 132.487002 258.773475 
L 132.20222 259.443235 
L 132.026774 259.765958 
L 131.856413 259.875743 
L 131.769961 259.772589 
L 131.698766 259.572177 
L 131.650455 259.354818 
L 131.633927 259.200825 
L 131.553832 259.103566 
L 131.3822 259.131565 
L 131.229638 259.21114 
L 131.206754 259.268611 
L 131.050378 259.221455 
L 130.877474 259.144827 
L 130.733812 259.018833 
L 130.672787 258.829473 
L 130.618119 258.708636 
L 130.489713 258.689479 
L 130.344779 258.696847 
L 130.237986 258.649691 
L 130.155348 258.468436 
L 130.17569 258.232657 
L 130.08161 258.082347 
L 129.957018 258.046244 
L 129.824797 258.13245 
L 129.597226 258.391807 
L 129.528573 258.114767 
L 129.509503 257.44427 
L 129.383639 257.279224 
L 129.288288 257.685944 
L 129.130641 258.882523 
L 129.016219 259.133775 
L 128.561076 259.074093 
L 128.102119 258.923784 
L 127.249044 258.514855 
L 127.438475 258.66148 
L 127.599937 258.888417 
L 127.64062 259.147038 
L 127.462631 259.392395 
L 127.203276 259.456498 
L 126.85874 259.424815 
L 126.280276 259.268611 
L 126.122629 259.253875 
L 125.985323 259.274506 
L 125.889972 259.24356 
L 125.853103 259.077041 
L 125.875987 258.857471 
L 125.931927 258.707162 
L 126.003122 258.570115 
L 126.06669 258.391807 
L 126.193825 257.367642 
L 126.280276 257.144388 
L 126.280276 257.031656 
L 126.209081 257.037551 
L 126.193825 257.008078 
L 126.196367 256.956502 
L 126.183654 256.89682 
L 125.990409 257.207017 
L 125.980238 257.96151 
L 125.853103 258.279812 
L 125.622989 258.399176 
L 125.390332 258.324021 
L 125.230142 258.101504 
L 125.214886 257.772887 
L 124.998757 258.006456 
L 124.866536 257.921723 
L 124.741944 257.70068 
L 124.562684 257.526793 
L 124.34274 257.510583 
L 124.3046 257.653524 
L 124.394866 257.856883 
L 124.562684 258.020455 
L 123.694352 257.800886 
L 123.498565 257.649103 
L 123.647313 257.621104 
L 123.760463 257.635104 
L 123.874884 257.624052 
L 124.029989 257.526793 
L 124.154581 257.367642 
L 124.337655 256.967554 
L 124.467333 256.784088 
L 124.310957 256.852611 
L 124.14441 256.983027 
L 123.975321 257.074391 
L 123.816402 257.031656 
L 123.78589 256.850401 
L 123.830387 256.560098 
L 123.933366 256.154852 
L 123.265908 256.010438 
L 123.071391 255.907284 
L 123.335832 255.28689 
L 123.493479 255.09753 
L 123.712151 255.177106 
L 124.14441 254.868382 
L 124.299515 254.690074 
L 124.350369 254.412297 
L 123.986763 254.741651 
L 123.66384 254.704811 
L 123.323119 254.522818 
L 122.907387 254.412297 
L 122.0149 254.474926 
L 121.553401 254.401245 
L 121.35507 254.12052 
L 121.28896 253.530335 
L 121.122413 253.080881 
L 120.71431 252.311652 
L 120.640572 252.077346 
L 120.604974 251.841567 
L 120.589718 250.942659 
L 120.528693 250.796034 
L 120.38376 250.591937 
L 120.457498 250.471101 
L 120.542678 250.276583 
L 120.597346 250.198481 
L 120.490553 249.716607 
L 120.802033 249.476407 
L 121.278789 249.411568 
L 121.685621 249.456513 
L 121.374141 249.277468 
L 121.105886 249.208945 
L 120.443513 249.208945 
L 120.266796 249.001165 
L 120.297308 248.530343 
L 120.500724 247.725747 
L 120.405373 247.856162 
L 120.297308 247.953421 
L 120.065922 248.095625 
L 120.03541 247.627014 
L 119.879034 247.210717 
L 119.627307 246.832733 
L 119.318369 246.477591 
L 119.628578 246.176235 
L 119.565011 246.044346 
L 119.211576 245.99498 
L 119.062828 245.774674 
L 118.97002 245.519738 
L 118.916623 245.252276 
L 118.891196 244.995129 
L 119.139109 245.095335 
L 119.430248 245.13807 
L 119.720116 245.110071 
L 119.9693 244.995129 
L 119.520514 244.69009 
L 119.287857 244.570727 
L 118.997989 244.499993 
L 118.720835 244.532412 
L 118.521233 244.597988 
L 118.399184 244.53536 
L 118.359772 244.184638 
L 118.475465 243.68066 
L 118.765332 243.213523 
L 119.146737 242.816382 
L 119.531956 242.520921 
L 119.974385 242.277774 
L 120.015068 242.13999 
L 119.852336 241.892422 
L 119.657819 241.728114 
L 119.519242 241.746534 
L 119.345068 241.837162 
L 118.772961 241.963893 
L 118.636926 241.919684 
L 118.547932 241.53507 
L 118.460209 241.350867 
L 118.338159 241.202031 
L 118.204667 241.138666 
L 117.926242 241.176243 
L 117.758424 241.238872 
L 117.584249 241.251398 
L 117.291839 241.138666 
L 117.174875 241.274239 
L 117.31218 241.666222 
L 117.018499 241.529912 
L 116.381553 241.016355 
L 116.101856 240.95299 
L 115.824702 240.796049 
L 115.600945 240.597847 
L 115.477624 240.409224 
L 115.361931 240.409224 
L 115.364474 240.737841 
L 115.401343 240.875625 
L 115.477624 241.016355 
L 115.103847 240.970673 
L 114.802538 240.758472 
L 114.51267 240.488799 
L 114.180848 240.274388 
L 113.738418 240.252283 
L 113.32523 240.398909 
L 112.937469 240.482168 
L 112.58022 240.274388 
L 112.418758 240.342911 
L 111.59111 240.446064 
L 111.202077 240.608163 
L 111.019003 240.645003 
L 110.619799 240.488799 
L 110.660483 240.135131 
L 110.977048 239.757884 
L 111.405493 239.531683 
L 111.405493 239.407899 
L 111.04443 239.196435 
L 111.04443 238.50236 
L 111.2898 237.115683 
L 111.329212 236.032573 
L 111.405493 235.687746 
L 111.547884 235.390075 
L 111.840294 234.982619 
L 111.929289 234.688632 
L 111.916575 234.297385 
L 111.671205 233.727095 
L 111.61018 233.390372 
L 111.495759 233.244484 
L 110.93128 232.705139 
L 110.703708 232.586513 
L 110.528262 232.448729 
L 109.699343 231.596977 
L 109.160291 231.244782 
L 108.959418 230.955952 
L 109.050955 230.597126 
L 109.450158 230.706911 
L 109.635775 230.340716 
L 109.572208 229.858842 
L 109.214959 229.619379 
L 109.001372 229.299604 
L 108.862795 228.664473 
L 108.696248 228.194389 
L 108.410195 228.371223 
L 108.37714 228.2887 
L 108.326286 228.204704 
L 108.303402 228.123655 
L 108.099986 228.195862 
L 108.002092 228.058816 
L 107.944881 227.830405 
L 107.866057 227.629992 
L 107.338448 227.028755 
L 107.22784 226.753188 
L 106.838807 226.882867 
L 106.457403 226.848974 
L 106.220932 226.641193 
L 106.2667 226.247 
L 106.003531 226.449623 
L 105.689508 226.565302 
L 105.137742 226.629404 
L 104.950854 226.604353 
L 104.62666 226.501199 
L 104.433415 226.494568 
L 104.37239 226.53804 
L 104.280853 226.627194 
L 104.14609 226.713401 
L 103.586697 226.834974 
L 103.266317 227.044965 
L 103.012047 227.326427 
L 102.834058 227.629992 
L 102.546733 228.27249 
L 102.456467 228.371223 
L 102.288649 228.439746 
L 102.113203 228.605529 
L 101.961913 228.805941 
L 101.875461 228.978354 
L 102.292463 228.97246 
L 103.532029 228.742575 
L 103.729088 228.67921 
L 103.894363 228.531848 
L 104.125749 228.236387 
L 104.17406 228.188494 
L 104.229999 228.153127 
L 104.301195 228.131023 
L 104.386375 228.123655 
L 104.443586 228.072815 
L 104.435958 227.954189 
L 104.413074 227.825984 
L 104.433415 227.741987 
L 104.761423 227.617466 
L 105.233094 227.544522 
L 105.656453 227.556311 
L 105.84207 227.68599 
L 105.910723 227.879034 
L 106.079812 227.973346 
L 106.289585 228.033027 
L 106.470116 228.123655 
L 106.604879 228.289437 
L 106.836265 228.68363 
L 107.011711 228.866359 
L 107.231654 228.680683 
L 107.527879 228.594476 
L 107.834274 228.643843 
L 108.089815 228.866359 
L 107.54822 229.360022 
L 108.178809 229.781477 
L 108.392396 230.076201 
L 108.186437 230.36061 
L 107.960137 230.323769 
L 107.672812 230.123357 
L 107.22784 229.731374 
L 106.017516 229.152242 
L 105.272505 228.976881 
L 104.753795 229.113927 
L 104.33425 229.013721 
L 103.829524 229.158136 
L 103.322256 229.374758 
L 102.887455 229.483806 
L 101.4788 229.496332 
L 100.473163 229.79695 
L 99.220884 229.996626 
L 98.549612 229.978206 
L 98.188549 230.015783 
L 97.650768 230.292823 
L 97.280806 230.409239 
L 96.735397 230.731962 
L 96.094637 230.855746 
L 95.270803 231.286043 
L 94.965679 231.339093 
L 94.616058 231.294885 
L 92.403911 230.639124 
L 92.086074 230.597126 
L 91.746624 230.677438 
L 91.384289 230.833642 
L 91.038482 230.936795 
L 90.751157 230.855746 
L 90.823624 230.760698 
L 90.954573 230.473342 
L 90.446033 230.504288 
L 90.030302 230.599336 
L 89.671782 230.752593 
L 89.345045 230.967741 
L 88.836506 230.687753 
L 88.40679 230.864588 
L 88.076239 231.277938 
L 87.715176 231.944751 
L 87.593126 232.078114 
L 87.43675 232.154005 
L 87.204094 232.215161 
L 87.018477 232.218845 
L 86.621816 232.10906 
L 86.178115 232.043484 
L 85.697545 231.881386 
L 85.434376 231.843808 
L 84.475779 231.843808 
L 83.538794 231.654448 
L 83.05441 231.63087 
L 82.608167 231.843808 
L 82.264903 231.685394 
L 81.767805 231.627923 
L 80.785052 231.708972 
L 80.380763 231.883596 
L 80.0286 232.187899 
L 79.756531 232.564408 
L 79.601427 232.957128 
L 79.509889 233.428686 
L 79.518789 233.646782 
L 79.601427 233.833195 
L 79.776873 233.928244 
L 80.033685 234.007819 
L 80.234558 234.124235 
L 80.251086 234.328331 
L 80.127765 234.339384 
L 79.389111 234.5759 
L 79.164082 234.560427 
L 78.767422 234.441063 
L 78.534765 234.441063 
L 78.950496 233.744778 
L 78.961938 233.439739 
L 78.694955 233.01902 
L 78.420343 232.845133 
L 77.989356 232.683035 
L 77.546927 232.581355 
L 77.254516 232.586513 
L 77.070171 232.743453 
L 76.842599 233.128068 
L 76.658254 233.204696 
L 76.459923 233.223853 
L 76.154799 233.30785 
L 76.018765 233.32848 
L 75.678044 233.214275 
L 75.136449 232.660931 
L 74.790642 232.451677 
L 74.126998 232.283684 
L 73.453183 232.215161 
L 73.308249 232.168741 
L 73.104833 231.934436 
L 72.977698 231.843808 
L 72.029272 231.806231 
L 70.632059 231.49456 
L 70.635873 231.240361 
L 70.775722 230.915428 
L 70.826576 230.597126 
L 70.745209 230.49913 
L 70.597733 230.406292 
L 70.460427 230.269982 
L 70.399402 230.040098 
L 70.464241 229.849264 
L 70.620617 229.757899 
L 70.815134 229.731374 
L 70.99058 229.731374 
L 71.356728 229.81095 
L 71.513104 229.752005 
L 71.581757 229.483806 
L 71.510562 229.402757 
L 71.352914 229.36739 
L 71.144413 229.360022 
L 70.429915 229.541277 
L 70.038339 229.578118 
L 69.865436 229.421914 
L 68.99329 229.872842 
L 68.789875 230.10199 
L 69.02126 230.031993 
L 69.110255 229.978206 
L 69.222133 230.296507 
L 69.339097 230.382714 
L 69.491659 230.283982 
L 69.705246 230.040098 
L 69.918833 230.03494 
L 70.119706 230.348821 
L 70.399402 230.967741 
L 70.198529 231.306674 
L 70.089193 231.33762 
L 69.812039 231.339093 
L 69.232304 231.437826 
L 68.953879 231.450352 
L 68.683081 231.339093 
L 68.282606 231.512244 
L 67.696515 231.398038 
L 66.1086 230.786486 
L 65.059737 230.599336 
L 63.999432 230.630282 
L 62.97981 230.796801 
L 62.477627 230.967741 
L 62.194116 231.126892 
L 61.932218 231.339093 
L 61.508859 231.843808 
L 61.278745 232.299894 
L 61.113469 232.428099 
L 60.868099 232.338945 
L 60.940566 232.630721 
L 61.058801 232.865764 
L 61.531743 233.471421 
L 61.608024 233.528156 
L 61.637265 233.577522 
L 61.624552 233.698359 
L 61.58514 233.830985 
L 61.527929 233.950348 
L 61.447834 234.036555 
L 61.352483 234.069711 
L 60.856657 233.972452 
L 59.956542 233.54805 
L 59.422575 233.452264 
L 58.347014 233.586364 
L 58.085116 233.542155 
L 57.347734 233.204696 
L 56.321755 232.904078 
L 55.783974 232.851764 
L 55.300862 232.957128 
L 54.329551 233.517104 
L 53.968488 233.586364 
L 52.633572 233.452264 
L 49.948483 232.834081 
L 47.362057 232.760045 
L 46.151646 232.792808 
L 45.365834 232.885592 
L 45.175838 233.280588 
L 45.216522 233.528893 
L 45.557243 233.698359 
L 45.245763 233.833195 
L 44.852916 233.70278 
L 44.37616 233.836879 
L 43.929916 234.091815 
L 43.627335 234.328331 
L 43.45316 234.50885 
L 43.271358 234.761576 
L 43.163293 235.044511 
L 43.209061 235.317867 
L 43.410096 235.533576 
L 43.74179 235.61389 
L 43.960827 235.737375 
L 43.864101 235.990931 
L 43.2183 235.994061 
L 42.44094 235.946675 
L 41.911368 235.790744 
L 42.289876 235.465229 
L 42.347087 235.404811 
L 42.40684 235.362813 
L 42.45388 235.317867 
L 42.587372 235.244186 
L 42.72722 235.255975 
L 42.836556 235.219135 
L 42.881053 235.008407 
L 42.66002 234.554051 
L 42.558506 234.22432 
L 42.210199 233.95709 
L 41.882723 233.737231 
L 41.438582 233.700618 
L 40.907687 233.591488 
L 40.179437 233.621731 
L 39.515793 233.861931 
L 39.161454 234.006669 
L 38.97421 234.350902 
L 38.832725 234.649798 
L 39.053022 234.849993 
L 39.127033 235.264066 
L 39.300035 235.432316 
L 39.429341 235.636906 
L 39.091469 235.752335 
L 38.471099 235.710779 
L 37.741057 235.619695 
L 36.809774 235.592727 
L 36.053909 235.711324 
L 35.878463 236.057624 
L 35.823795 236.210881 
L 35.683947 236.366348 
L 35.526299 236.89022 
L 35.336868 236.881378 
L 35.018756 237.102612 
L 34.637956 237.255029 
L 34.081655 237.33281 
L 33.686142 237.182237 
L 33.537931 236.898782 
L 33.626904 236.510026 
L 33.784551 236.317718 
L 33.67013 236.072361 
L 33.731155 235.91763 
L 33.998138 235.687746 
L 34.162142 235.487333 
L 34.204097 235.36797 
L 34.221895 235.132191 
L 34.267664 234.939147 
L 34.476165 234.633371 
L 34.532105 234.441063 
L 34.521934 234.172865 
L 34.467266 234.116867 
L 34.375729 234.16476 
L 34.268935 234.204547 
L 34.223167 234.239914 
L 34.085861 234.396855 
L 33.998138 234.441063 
L 33.916772 234.408644 
L 33.710813 234.243598 
L 33.620547 234.204547 
L 33.437473 234.171391 
L 33.342122 234.096236 
L 33.263298 234.009293 
L 33.133621 233.945927 
L 32.955632 233.925296 
L 32.445821 233.945927 
L 32.195365 233.884035 
L 32.040261 233.875193 
L 31.857186 233.945927 
L 31.478324 233.917191 
L 31.975352 232.407136 
L 32.068999 230.88093 
L 32.178793 229.078679 
L 32.272441 227.528143 
L 32.337025 226.470747 
L 32.390308 226.210609 
L 32.48234 226.03656 
L 32.711616 225.797944 
L 32.810107 225.656646 
L 32.855316 225.031566 
L 32.682553 224.314782 
L 32.605051 223.648529 
L 32.934432 223.172233 
L 33.265428 223.088952 
L 33.567361 223.096438 
L 33.838616 223.030935 
L 34.075964 222.728688 
L 34.163153 222.409598 
L 34.327843 221.145402 
L 34.524826 219.638846 
L 34.673371 218.512205 
L 34.797696 217.538091 
L 34.941396 216.436715 
L 35.073795 215.875265 
L 35.301455 215.38774 
L 35.679275 215.079879 
L 37.563528 214.522173 
L 38.124606 214.133837 
L 38.415237 213.984117 
L 38.735737 213.881185 
L 39.38239 213.767959 
L 39.524476 213.581745 
L 39.580988 213.136329 
L 39.845784 212.696527 
L 40.433503 212.777937 
L 41.127787 213.034333 
L 41.713892 213.119486 
L 42.05296 212.932336 
L 42.039236 212.675005 
L 41.886655 212.341879 
L 41.801081 211.926406 
L 41.912489 211.701826 
L 42.403331 211.200265 
L 42.564793 210.884918 
L 42.550261 210.772628 
L 42.490521 210.670631 
L 42.443697 210.551791 
L 42.47276 210.392714 
L 42.571251 210.256095 
L 42.706879 210.167199 
L 43.012041 210.040873 
L 43.139595 209.965077 
L 43.341422 209.811614 
L 43.470591 209.751726 
L 43.617521 209.735819 
L 43.946902 209.751726 
L 44.108363 209.707746 
L 44.198781 209.621657 
L 44.326336 209.385849 
L 44.449046 209.286659 
L 44.597591 209.241743 
L 47.21165 208.953533 
L 47.531343 208.8375 
L 47.661319 208.73176 
L 47.784837 208.597013 
L 47.91885 208.510924 
L 48.08677 208.546482 
L 48.261148 208.635378 
L 48.394354 208.645671 
L 48.877123 208.53151 
L 49.011943 208.479108 
L 49.128196 208.413606 
L 49.233145 208.330324 
L 49.394607 208.020591 
L 49.514088 207.8559 
L 49.683622 207.804433 
L 50.747653 207.832506 
L 51.971529 207.863386 
L 53.384316 207.89988 
L 53.993025 207.997198 
L 54.609807 208.014977 
L 55.065128 207.909237 
L 55.21448 207.923273 
L 55.3493 207.98784 
L 55.462323 208.071122 
L 55.584227 208.136624 
L 55.741651 208.14411 
L 56.092022 207.78759 
L 56.256713 207.064256 
L 56.381038 204.434803 
L 56.494868 204.149399 
L 56.752399 204.009973 
L 57.386942 203.904233 
L 57.621061 203.683396 
L 57.671114 203.352141 
L 57.54033 203.060188 
L 57.344962 202.765427 
L 57.204491 202.426686 
L 57.125375 200.382075 
L 57.147979 200.168725 
L 57.214179 199.987189 
L 57.380484 199.741087 
L 57.43861 199.558616 
L 57.609759 199.267599 
L 57.916535 199.130044 
L 58.258026 199.127236 
L 58.526859 199.236719 
L 57.994844 198.017438 
L 57.77122 197.677762 
L 57.604915 197.489676 
L 57.462829 197.396101 
L 57.076936 197.25106 
L 56.899329 197.137835 
L 56.494868 196.753242 
L 56.300307 196.681189 
L 56.142075 196.676511 
L 55.287945 196.957235 
L 55.086926 196.963785 
L 54.826166 196.935713 
L 54.41121 196.957235 
L 53.592601 197.218309 
L 53.187333 197.283812 
L 52.277499 197.470026 
L 51.852855 197.495291 
L 51.359591 197.383937 
L 50.993074 197.173393 
L 50.867134 197.130349 
L 50.75734 197.150935 
L 50.542597 197.280069 
L 50.419079 197.283812 
L 50.184153 197.150935 
L 49.508437 196.529598 
L 49.75628 196.51369 
L 49.910476 196.392979 
L 50.004931 196.190857 
L 50.077588 195.931655 
L 50.106651 195.63783 
L 50.02915 195.441322 
L 49.722373 195.057666 
L 50.543404 193.151546 
L 50.638666 192.398268 
L 50.554706 191.455033 
L 50.404547 189.78519 
L 50.326239 188.87611 
L 50.196262 187.413067 
L 50.101 186.336488 
L 49.69331 184.595996 
L 49.404294 183.343964 
L 49.654559 181.284381 
L 49.883835 179.423645 
L 49.807948 178.790611 
L 49.460806 178.575389 
L 46.904066 179.105959 
L 46.588409 178.901498 
L 45.60188 177.808075 
L 45.37422 177.416932 
L 45.272499 177.102053 
L 45.16432 176.918646 
L 45.001244 176.812439 
L 44.741291 176.72635 
L 44.487797 176.579437 
L 44.32795 176.359536 
L 44.193938 176.11671 
L 44.012294 175.899148 
L 43.57877 175.668018 
L 41.515294 175.241317 
L 40.215531 174.647116 
L 39.716615 174.536698 
L 38.678419 174.446866 
L 38.205337 174.295275 
L 37.460193 173.855473 
L 36.525332 173.588317 
L 36.236316 173.427836 
L 35.742245 172.845332 
L 34.750872 171.907244 
L 34.101798 171.049163 
L 32.490414 169.55758 
L 32.036707 168.990516 
L 31.589459 167.993944 
L 31.138982 167.481621 
L 31.058252 167.210722 
L 31.021116 166.906604 
L 30.930697 166.55523 
L 30.27032 165.011713 
L 30.133078 164.824563 
L 29.9587 164.683733 
L 29.756873 164.590158 
L 29.635777 164.495179 
L 29.600256 164.38944 
L 29.64385 164.278554 
L 29.756873 164.161585 
L 29.900574 164.005783 
L 29.953856 163.841091 
L 29.908647 163.684821 
L 29.756873 163.561302 
L 29.488848 163.44527 
L 29.369366 163.182792 
L 29.287021 162.874463 
L 29.127174 162.617132 
L 28.95764 162.526364 
L 28.813939 162.507649 
L 28.671853 162.455247 
L 28.505548 162.264823 
L 28.424817 162.05849 
L 28.382837 161.606523 
L 28.334399 161.403466 
L 28.134187 161.091862 
L 27.636886 160.536495 
L 27.488342 160.167342 
L 27.488342 159.812693 
L 27.674022 159.178256 
L 27.703085 158.824543 
L 27.559385 158.366026 
L 27.284901 158.166711 
L 26.955519 158.035239 
L 26.650358 157.782119 
L 25.365125 156.231115 
L 24.142863 154.751697 
L 22.96581 153.33123 
L 21.945375 152.09651 
L 21.118693 151.112103 
L 19.85768 149.605547 
L 20.351751 149.834806 
L 21.467449 150.19694 
L 22.767213 150.619899 
L 24.070206 151.044261 
L 25.369969 151.467687 
L 26.669733 151.890178 
L 27.971111 152.313604 
L 29.270875 152.735626 
L 30.572253 153.160456 
L 31.872017 153.583415 
L 33.17178 154.005437 
L 34.473159 154.429331 
L 35.774537 154.853693 
L 37.075915 155.275716 
L 38.374064 155.69961 
L 39.67625 156.123504 
L 40.977628 156.545527 
L 42.276584 156.969889 
L 43.761221 157.4518 
L 45.370991 157.760597 
L 47.32491 157.574971 
L 47.774342 157.532274 
L 48.540476 157.459286 
L 49.305803 157.386297 
L 50.071937 157.313309 
L 50.838071 157.239385 
L 51.603398 157.167332 
L 52.370339 157.093876 
L 53.135666 157.021355 
L 53.902607 156.948367 
L 54.667934 156.874443 
L 55.43326 156.801454 
L 56.200201 156.729402 
L 56.965528 156.656413 
L 57.730855 156.582489 
L 58.497796 156.509501 
L 59.26393 156.436512 
L 60.031679 156.363524 
L 62.416462 156.137073 
L 65.842672 156.805197 
L 68.718298 157.366646 
L 70.500831 158.144721 
L 70.927089 157.969269 
L 71.495433 156.843563 
L 71.852262 156.375689 
L 72.401231 156.091689 
L 76.6186 154.817199 
L 76.958855 154.820165 
L 79.839754 154.845272 
L 81.971043 154.862115 
L 84.568956 155.338879 
L 85.346392 155.364144 
L 87.612502 154.695084 
L 88.519914 154.428396 
L 89.427327 154.160304 
L 90.336354 153.89268 
L 91.240538 153.625523 
L 92.14795 153.357899 
L 93.053748 153.090275 
L 93.961161 152.821715 
L 94.867766 152.554091 
L 95.776794 152.285999 
L 96.683399 152.018843 
L 97.590812 151.750283 
L 98.498224 151.483127 
L 99.402408 151.215035 
L 100.311435 150.948347 
L 101.218847 150.679787 
L 102.12626 150.412163 
L 103.456701 150.019148 
L 104.699954 149.117086 
L 105.114909 148.564059 
L 105.437832 148.005417 
L 105.531479 147.951144 
L 105.662263 147.906228 
L 105.720389 147.823882 
L 105.592835 147.651704 
L 105.11168 147.277405 
L 104.469064 146.618638 
L 103.919288 146.233109 
L 103.826448 145.989815 
L 103.864391 145.70254 
L 104.092859 145.016636 
L 105.101185 142.952374 
L 105.169806 142.605212 
L 105.134285 141.50945 
L 105.428144 139.117677 
L 105.390201 138.74712 
L 105.302204 138.376564 
L 105.182723 138.144498 
L 104.804903 137.655101 
L 104.5393 136.936447 
L 104.586931 136.14761 
L 106.122428 130.326318 
L 106.264514 130.075538 
L 106.52931 129.932368 
L 108.641224 129.502859 
L 108.99321 129.346589 
L 110.460894 127.840034 
L 110.759597 127.424562 
L 111.28919 125.383694 
L 111.668624 125.121684 
L 112.266031 125.040274 
L 112.668877 124.732413 
L 113.032972 124.31694 
L 113.499596 123.913633 
L 114.553131 123.3971 
L 115.136813 123.230536 
L 116.055528 123.20995 
L 116.285611 123.331597 
L 116.396212 123.582378 
L 116.428504 123.985685 
L 116.388946 124.133534 
L 116.302564 124.244888 
L 116.239594 124.35437 
L 116.261392 124.499411 
L 116.380066 124.594858 
L 116.573819 124.657553 
L 116.932263 124.72212 
L 117.248728 124.727734 
L 117.848556 124.578014 
L 118.159369 124.563978 
L 118.47099 124.657553 
L 119.040948 124.9729 
L 119.362256 125.086126 
L 119.620594 125.11607 
L 120.43113 125.076768 
L 121.431383 125.167536 
L 121.718784 125.114198 
L 122.801382 124.654746 
L 123.729785 124.530291 
L 124.306202 124.282318 
L 125.140957 124.126983 
L 125.429973 124.020308 
L 126.426189 123.383999 
L 126.62963 123.196849 
L 126.845989 123.040579 
L 127.099483 122.966655 
L 127.730797 122.990049 
L 127.969759 122.880566 
L 128.131221 122.541825 
L 128.057756 121.782933 
L 127.494256 121.600462 
L 126.195299 121.771704 
L 125.886908 121.68468 
L 125.575288 121.49098 
L 125.349242 121.221484 
L 125.257209 120.513122 
L 125.053768 120.199646 
L 124.824493 119.925472 
L 124.710663 119.655041 
L 124.911682 119.335015 
L 125.404139 119.323786 
L 126.418923 119.54743 
L 126.900885 119.498771 
L 127.375582 119.306942 
L 127.712751 119.071861 
L 128.226483 118.713678 
L 129.187985 117.639438 
L 129.624738 117.427959 
L 129.837867 117.419537 
L 130.312563 117.497204 
L 130.945492 117.463517 
L 131.115026 117.37275 
L 131.291019 117.125712 
L 131.552586 116.916105 
L 132.37281 116.464138 
L 132.461613 116.336876 
L 132.513281 115.954155 
L 132.589975 115.791335 
L 133.105844 115.320653 
L 133.181511 115.183537 
L 133.2778 115.009049 
L 133.609603 114.235185 
L 133.809815 113.996569 
L 134.131123 113.974111 
L 134.531548 114.113537 
L 134.876268 114.300687 
L 135.27427 114.621649 
L 135.435731 114.861201 
L 135.629485 115.052093 
L 135.971783 115.102624 
L 136.590179 115.073615 
L 137.207769 115.122274 
L 138.846601 115.702439 
L 139.42544 115.796949 
L 139.693466 115.711796 
L 140.031728 115.511546 
L 140.234361 115.285095 
L 140.090661 115.122274 
L 139.788728 115.081101 
L 138.853867 115.102624 
L 138.512376 115.04835 
L 138.241121 114.92951 
L 138.187032 114.750782 
L 138.490579 114.514974 
L 139.167102 114.159389 
L 139.536041 114.033063 
L 139.885605 114.027449 
L 140.410354 114.22957 
L 141.322611 114.74236 
L 142.202575 114.901438 
L 142.397943 115.011856 
L 142.501278 115.233628 
L 142.548102 115.965384 
L 142.665969 116.231137 
L 143.068008 116.697139 
L 143.788125 117.728334 
L 144.203081 118.018416 
L 144.823092 117.9473 
L 145.814465 117.443867 
L 146.345673 117.274496 
L 146.912402 117.313798 
L 147.330587 117.139748 
L 147.894087 116.74112 
L 148.386544 116.292896 
L 148.5916 115.968191 
L 148.830562 115.819407 
L 149.053379 115.570498 
L 150.763254 112.959759 
L 151.187898 112.504985 
L 151.936271 111.950087 
L 151.97232 111.885047 
L 152.029111 111.782588 
L 151.987938 111.547715 
L 151.495481 110.170293 
L 151.189512 108.456001 
L 151.202429 108.064858 
L 151.321911 107.299416 
L 151.329176 106.533506 
L 151.438163 105.759174 
L 151.455923 105.365223 
L 151.398605 104.984374 
L 150.994144 103.971894 
L 150.829453 103.192883 
L 150.90534 102.443816 
L 151.197585 101.757912 
L 151.672282 101.174005 
L 151.987131 100.975159 
L 152.634591 100.752918 
L 152.91069 100.527871 
L 153.734143 99.314673 
L 153.923052 98.959556 
L 153.971491 98.737316 
L 153.814873 98.137969 
L 153.78581 97.820282 
L 153.745445 97.683195 
L 153.637266 97.604124 
L 153.503253 97.549383 
L 153.366818 97.460019 
L 153.254603 97.341179 
L 153.173872 97.198945 
L 153.146423 96.844764 
L 153.315958 96.601002 
L 153.845551 96.212198 
L 154.228214 95.689583 
L 154.632675 95.389675 
L 154.723901 95.306393 
L 154.878903 94.780503 
L 154.586658 92.817302 
L 154.736973 92.508419 
L 154.886977 92.200176 
L 155.300318 91.687386 
L 155.82103 91.355663 
L 156.449922 91.273785 
L 156.77123 91.282206 
L 157.276604 91.188632 
L 157.425149 91.231676 
L 157.559161 91.293903 
L 157.699633 91.319636 
L 157.984612 91.251327 
L 158.718454 90.734794 
L 159.325548 90.635604 
L 160.370203 91.144651 
L 161.029773 91.097864 
L 162.19956 90.401667 
L 162.354563 90.370787 
L 162.807462 90.408217 
L 162.997179 90.327275 
L 163.11666 90.164923 
L 163.639795 89.199698 
L 163.823861 89.127645 
L 164.196836 89.250228 
L 164.535905 89.276897 
L 164.839452 89.109866 
L 167.48984 86.938461 
L 167.601248 86.343793 
L 167.353405 85.78094 
L 166.529952 84.880282 
L 166.449222 84.747406 
L 166.333777 84.456388 
L 166.223176 84.360006 
L 165.78723 84.221983 
L 165.66452 84.141509 
L 165.448162 83.865463 
L 165.31092 83.54029 
L 165.254408 83.191724 
L 165.280242 82.849708 
L 165.599935 81.706691 
L 165.609623 81.267825 
L 165.549075 81.148985 
L 165.428786 81.066171 
L 165.170448 80.945927 
L 165.028362 80.829894 
L 164.960548 80.736787 
L 164.866901 80.455595 
L 164.73531 79.739279 
L 164.5795 79.544176 
L 163.914279 79.657869 
L 163.07468 79.308367 
L 162.834857 79.276278 
L 162.462742 79.226489 
L 162.226201 79.084255 
L 162.065547 78.735221 
L 161.954139 78.381976 
L 161.816896 78.111077 
L 161.445535 77.582847 
L 161.308293 77.295104 
L 161.100008 76.607796 
L 160.960344 76.370584 
L 160.502601 75.928911 
L 160.407339 75.659883 
L 160.612395 75.39647 
L 160.890108 75.121828 
L 160.919172 74.853736 
L 160.865889 74.581901 
L 160.899796 74.294158 
L 161.159749 74.041038 
L 161.577934 73.902079 
L 162.407038 73.778093 
L 162.934209 73.813183 
L 166.30875 74.955732 
L 167.195173 75.03761 
L 167.731225 75.300088 
L 168.017011 75.379626 
L 169.278832 75.43156 
L 170.5681 75.699652 
L 171.044411 75.716028 
L 173.140986 75.425478 
L 175.252093 75.447 
L 176.359718 75.243943 
L 176.637431 74.710098 
L 176.705245 74.4785 
L 176.861055 74.436392 
L 177.281662 74.565525 
L 177.570678 74.589387 
L 177.793494 74.518738 
L 177.976753 74.355917 
L 178.155168 74.109815 
L 178.476476 74.002672 
L 179.241802 73.847806 
L 179.490453 73.623694 
L 179.56311 73.284017 
L 179.509828 72.995807 
L 179.492875 72.699174 
L 179.666446 72.337975 
L 180.102391 71.857001 
L 180.200883 71.614174 
L 180.22268 71.179987 
L 180.176664 70.814577 
L 180.025697 70.181543 
L 180.028926 69.853563 
L 180.486669 68.590302 
L 180.418855 68.144886 
L 179.308002 67.547878 
L 178.822003 67.101526 
L 178.379599 66.583121 
L 178.056676 66.115715 
L 177.906517 65.776506 
L 177.819328 65.370859 
L 177.840318 64.972698 
L 178.022769 64.651736 
L 178.252194 64.551614 
L 178.290795 64.534768 
L 178.620984 64.53196 
L 179.254719 64.626471 
L 179.540506 64.493595 
L 179.708426 64.130524 
L 179.760093 63.688851 
L 179.703582 63.313616 
L 179.586522 62.909372 
L 179.60832 62.632391 
L 179.771396 62.420911 
L 180.87014 61.56283 
L 181.473198 61.259647 
L 181.684712 61.058461 
L 182.505743 59.934627 
L 182.743091 59.317969 
L 183.034529 58.761199 
L 183.588341 58.353212 
L 185.467883 57.625353 
L 185.697833 57.536304 
L 185.847992 57.409042 
L 185.959401 57.217213 
L 186.095028 56.797062 
L 186.219353 56.606169 
L 186.219353 56.604298 
L 186.220968 56.604298 
L 186.390502 56.487329 
L 186.500296 56.340417 
L 186.52613 56.170111 
L 186.440556 55.98764 
L 186.46316 55.194125 
L 186.870043 54.71315 
L 187.950219 53.996367 
L 188.34257 53.418074 
L 188.478197 53.063425 
L 188.411998 52.82013 
L 187.935687 52.453317 
L 187.070255 51.507275 
L 186.789312 51.049694 
L 186.81676 50.560298 
L 187.296301 49.968904 
L 188.058398 49.337274 
L 188.211786 49.071521 
L 188.236005 48.718744 
L 188.103607 48.472642 
L 187.896937 48.25087 
L 187.782851 48.092714 
L 187.69511 47.971081 
L 187.599848 47.568709 
L 187.667662 47.225289 
L 187.774226 46.897777 
L 187.783914 46.550615 
L 187.638599 46.282055 
L 187.38349 46.10052 
L 186.522901 45.700955 
L 186.209666 45.460467 
L 186.062736 45.152606 
L 186.259719 44.789536 
L 186.542276 44.446116 
L 186.632694 44.116732 
L 186.563266 43.795771 
L 186.366283 43.477616 
L 186.262948 43.377491 
L 186.032058 43.205313 
L 185.94164 43.079923 
L 185.872212 42.87593 
L 185.870597 42.712174 
L 185.886743 42.555904 
L 185.868982 42.375304 
L 185.767262 42.10768 
L 185.245742 41.22059 
L 185.022118 40.946416 
L 184.313303 40.47012 
L 184.146997 40.195946 
L 184.079991 39.602681 
L 183.848294 39.34535 
L 183.394588 39.161943 
L 182.953798 39.07024 
L 182.533999 38.905548 
L 182.135189 38.499433 
L 181.915602 38.341292 
L 181.353717 38.049338 
L 181.182568 37.90149 
L 181.166657 37.832667 
L 181.104259 37.562749 
L 181.251996 37.28296 
L 181.755755 36.803857 
L 181.834064 36.637294 
L 181.91318 36.252701 
L 181.99714 36.119825 
L 182.609886 35.744589 
L 183.084582 35.531239 
L 183.231512 35.432985 
L 183.339691 35.262679 
L 183.417192 34.87715 
L 183.497923 34.75831 
L 184.486873 34.43267 
L 184.804145 34.200604 
L 185.996537 32.948573 
L 186.258104 32.783881 
L 186.551964 32.68282 
L 186.931398 32.608896 
L 187.234945 32.453562 
L 187.146141 32.215881 
L 186.983066 31.937028 
L 187.060567 31.660982 
L 187.452918 31.297912 
L 187.578858 31.105148 
L 187.709641 30.813194 
L 187.896937 30.254552 
L 188.04871 30.098282 
L 188.340955 30.069274 
L 188.655805 30.191857 
L 189.555144 30.758921 
L 190.015309 31.221181 
L 190.244584 31.308205 
L 190.493235 31.295105 
L 190.738656 31.209952 
L 190.922722 31.009701 
L 190.877513 30.761728 
L 190.612716 30.27046 
L 190.591726 29.697782 
L 190.913034 29.504082 
L 191.925397 29.442322 
L 192.177276 29.353426 
L 192.379103 29.191542 
L 192.568013 29.004392 
L 192.782756 28.836893 
L 193.523864 28.438264 
L 193.775743 28.194969 
L 194.100281 28.024663 
L 194.741282 27.879622 
L 194.993162 27.655043 
L 195.014152 27.491287 
L 194.949567 27.337824 
L 194.922119 27.188104 
L 195.057746 27.034641 
L 195.241812 26.941066 
L 195.635778 26.821291 
L 196.54319 26.70245 
L 196.81606 26.554602 
L 196.706266 26.257034 
L 196.472147 25.908 
L 196.531888 25.67687 
L 196.785382 25.509371 
L 197.471593 25.236132 
L 198.852087 24.941371 
L 199.543142 24.90207 
L 200.185758 24.704627 
L 200.901032 24.747672 
L 201.228798 24.665326 
L 202.207254 23.893333 
L 202.964507 23.531198 
L 203.970411 23.307554 
L 205.005378 23.239245 
L 206.309986 23.418908 
L 207.69048 23.353406 
L 208.145801 23.234566 
L 208.523621 23.046481 
L 208.911128 22.95852 
L 209.393897 23.141927 
L 209.608641 23.151284 
L 209.792707 23.068938 
L 210.167297 22.827515 
L 210.420791 22.740491 
L 212.753907 22.509361 
L 213.247979 22.55802 
L 213.704914 22.672181 
L 213.935804 22.699318 
L 214.160235 22.673117 
L 214.940094 22.417657 
L 215.689274 22.469124 
L 216.722627 22.338119 
L 217.207011 22.403621 
L 217.713999 22.479417 
L 219.756485 22.154244 
L 220.840661 22.198008 
L 220.866371 22.199045 
L 220.869599 22.199176 
L 220.877521 22.199495 
L 221.831263 22.237994 
L 222.787114 22.403621 
L 223.271498 22.589835 
L 224.550271 23.344984 
L 225.01528 23.454467 
L 225.478674 23.619159 
L 225.930766 23.621966 
L 226.85271 23.338434 
L 227.002869 23.155963 
L 227.078756 22.534626 
L 227.180476 22.28291 
L 227.404908 22.121961 
L 227.660017 22.062541 
L 228.686911 22.181381 
L 229.061501 22.054119 
L 229.825213 21.473487 
L 231.12982 20.703366 
L 231.535088 20.390826 
L 232.184163 20.224263 
L 232.518388 20.203208 
L 232.825164 20.294912 
L 232.88329 20.338424 
L 232.934958 20.391762 
L 233.217515 20.781969 
L 233.524292 21.034153 
L 233.774557 20.966311 
L 233.881121 20.390826 
L 233.942477 20.252803 
L 233.960237 20.120862 
L 233.931174 19.998747 
L 233.852058 19.8902 
L 234.155606 19.745159 
L 235.159895 19.508415 
L 235.728239 19.296 
L 235.970431 19.34653 
L 236.193247 19.632869 
L 236.614662 19.984711 
L 237.761037 20.008105 
L 238.256723 20.388954 
L 238.259952 20.388954 
L 238.708815 21.025263 
L 238.828296 21.244229 
L 238.920329 21.793513 
L 239.007518 21.964755 
L 239.217418 21.886152 
L 239.314295 21.713507 
L 239.451537 21.189487 
L 239.603311 20.960697 
L 239.829356 20.810041 
L 240.100612 20.699155 
L 240.639892 20.567215 
L 241.227612 20.563472 
L 242.566126 20.388954 
L 242.853527 20.441356 
L 243.076344 20.559729 
L 243.520362 20.930753 
L 244.049955 21.208202 
L 245.898688 21.572676 
L 246.489636 21.807549 
L 246.906206 22.196821 
L 247.164544 22.740491 
L 247.272723 23.435752 
L 247.303401 24.179672 
L 247.414809 24.85809 
L 247.749034 25.299763 
L 248.696812 25.34 
L 248.795304 25.21461 
L 248.842127 25.02746 
L 248.93739 24.852475 
L 249.914231 24.506248 
L 251.152639 24.736443 
L 252.386204 25.295084 
L 253.351742 25.935137 
L 254.276916 26.715551 
L 254.667652 27.173132 
L 256.258046 30.013129 
L 256.261635 30.029016 
L 256.328363 30.324399 
" clip-path="url(#p86e3b17902)" style="fill: #f5f5f5; stroke: #000000"/>
    <path d="M 121.889037 254.548607 
L 122.121694 254.792491 
L 122.478943 254.801333 
L 123.178185 254.548607 
L 123.487123 254.757124 
L 123.605358 254.805753 
L 123.604087 254.80649 
L 123.290063 254.949431 
L 123.221411 255.20142 
L 123.114617 255.44162 
L 122.692529 255.548458 
L 122.419189 255.440147 
L 122.168734 255.176369 
L 122.044141 254.9568 
L 121.983117 254.847752 
L 121.889037 254.548607 
" clip-path="url(#p86e3b17902)" style="fill: #f5f5f5; stroke: #000000"/>
   </g>
  </g>
 </g>
 <defs>
  <clipPath id="p86e3b17902">
   <rect x="7.2" y="7.2" width="278.468953" height="266.112"/>
  </clipPath>
 </defs>
</svg>
