<?xml version="1.0" encoding="utf-8" standalone="no"?>
<!DOCTYPE svg PUBLIC "-//W3C//DTD SVG 1.1//EN"
  "http://www.w3.org/Graphics/SVG/1.1/DTD/svg11.dtd">
<svg xmlns:xlink="http://www.w3.org/1999/xlink" width="371.52pt" height="162.946093pt" viewBox="0 0 371.52 162.946093" xmlns="http://www.w3.org/2000/svg" version="1.1">
 <metadata>
  <rdf:RDF xmlns:dc="http://purl.org/dc/elements/1.1/" xmlns:cc="http://creativecommons.org/ns#" xmlns:rdf="http://www.w3.org/1999/02/22-rdf-syntax-ns#">
   <cc:Work>
    <dc:type rdf:resource="http://purl.org/dc/dcmitype/StillImage"/>
    <dc:date>2024-03-04T13:11:12.505692</dc:date>
    <dc:format>image/svg+xml</dc:format>
    <dc:creator>
     <cc:Agent>
      <dc:title>Matplotlib v3.8.0, https://matplotlib.org/</dc:title>
     </cc:Agent>
    </dc:creator>
   </cc:Work>
  </rdf:RDF>
 </metadata>
 <defs>
  <style type="text/css">*{stroke-linejoin: round; stroke-linecap: butt}</style>
 </defs>
 <g id="figure_1">
  <g id="patch_1">
   <path d="M 0 162.946093 
L 371.52 162.946093 
L 371.52 0 
L 0 0 
z
" style="fill: #ffffff"/>
  </g>
  <g id="axes_1">
   <g id="PatchCollection_1">
    <path d="M 49.870871 16.910488 
L 50.516807 17.307258 
L 55.821104 21.492612 
L 59.075453 24.764262 
L 61.150073 25.895622 
L 62.594457 24.916168 
L 62.466615 25.868415 
L 62.217661 26.614342 
L 60.719449 29.226221 
L 60.571422 29.858785 
L 60.746363 30.625117 
L 61.215115 31.144319 
L 61.840865 31.552425 
L 62.298403 31.990005 
L 62.253546 32.593095 
L 61.508926 33.184849 
L 60.122856 33.076021 
L 59.992772 33.701783 
L 59.719146 34.134829 
L 59.788674 34.411434 
L 60.057814 34.524797 
L 60.374053 34.461314 
L 60.916818 34.833144 
L 61.396785 35.483846 
L 61.746666 36.23204 
L 61.874508 36.937157 
L 62.163833 37.467695 
L 64.135282 38.680676 
L 64.512078 38.680676 
L 64.927002 38.034509 
L 65.599852 37.952887 
L 65.918334 37.755636 
L 65.26567 36.742173 
L 65.999076 36.946226 
L 66.277187 37.51304 
L 66.436428 38.179613 
L 66.80201 38.680676 
L 67.405331 38.841652 
L 67.822498 38.596788 
L 68.013139 38.007301 
L 67.930154 37.123072 
L 68.309193 37.123072 
L 68.360778 37.857663 
L 68.751031 38.220424 
L 69.192868 38.274838 
L 69.403695 38.075319 
L 69.430609 37.390608 
L 69.533779 36.898613 
L 69.773762 36.755776 
L 70.190929 37.123072 
L 70.244757 36.95076 
L 70.242514 36.801122 
L 70.309799 36.7195 
L 70.567724 36.742173 
L 70.673138 37.250038 
L 70.82565 37.644541 
L 71.036476 37.966491 
L 71.321316 38.265769 
L 71.695869 38.265769 
L 71.695869 37.88487 
L 72.072665 37.88487 
L 71.926881 38.721487 
L 72.023322 40.245083 
L 71.695869 40.927527 
L 70.015988 39.891391 
L 69.134555 39.562639 
L 67.728299 39.442474 
L 67.116006 39.87552 
L 66.947794 40.85044 
L 67.116006 41.89111 
L 67.519716 42.51914 
L 67.519716 42.863763 
L 67.214691 42.734529 
L 66.393814 42.51914 
L 66.689868 43.31268 
L 68.008653 44.00646 
L 68.309193 44.595946 
L 67.930154 48.22809 
L 67.6812 48.169141 
L 67.51523 48.107925 
L 67.36496 48.014968 
L 67.147406 47.847191 
L 68.091638 48.767697 
L 69.426123 49.386657 
L 70.756122 49.520425 
L 71.695869 48.985353 
L 73.674047 49.631521 
L 74.376053 50.053231 
L 74.364839 50.508949 
L 75.18123 51.760474 
L 75.459341 52.064286 
L 75.589425 52.254736 
L 75.679138 52.626566 
L 75.869779 52.826084 
L 76.096305 52.882766 
L 76.710841 52.82155 
L 77.760486 52.875964 
L 80.3846 52.064286 
L 81.613672 51.944122 
L 82.302221 52.229796 
L 82.880872 52.626566 
L 83.771276 52.826084 
L 84.576453 52.6311 
L 85.377144 52.145907 
L 85.854867 51.51561 
L 85.69114 50.889848 
L 86.312405 50.626846 
L 86.794614 50.624579 
L 87.570633 50.889848 
L 87.678289 51.100703 
L 88.209841 51.56549 
L 88.799705 51.842095 
L 89.073331 51.479334 
L 89.629553 51.338764 
L 92.872688 52.826084 
L 93.859534 52.345426 
L 94.13316 51.386377 
L 93.931305 49.157665 
L 90.203718 47.049117 
L 88.263669 44.151564 
L 87.759031 43.65957 
L 87.039082 43.339887 
L 86.016351 42.60983 
L 85.157346 41.816291 
L 84.937549 41.308426 
L 85.785339 41.319762 
L 87.184866 41.673454 
L 88.49468 41.798153 
L 89.073331 41.117976 
L 87.288037 40.27229 
L 86.431275 39.648795 
L 86.817042 39.027567 
L 87.947429 39.013963 
L 88.902876 39.730416 
L 90.203718 41.308426 
L 91.477647 42.269742 
L 91.708658 42.51914 
L 91.627916 42.995264 
L 91.177107 43.140368 
L 90.616399 43.054212 
L 90.203718 42.863763 
L 90.203718 43.244662 
L 90.652285 43.788803 
L 91.087634 44.264173 
L 91.360507 45.079839 
L 91.769236 45.238202 
L 92.495715 45.237877 
L 93.789848 45.39605 
L 94.60759 45.464151 
L 95.990225 46.958427 
L 96.85645 47.232058 
L 97.667863 49.06244 
L 97.937003 49.332243 
L 98.713023 49.89679 
L 102.016714 54.637621 
L 104.234875 57.020507 
L 105.327134 57.73696 
L 105.652345 58.244825 
L 106.248938 58.888726 
L 106.894874 59.439669 
L 107.379325 59.673196 
L 107.863777 59.782024 
L 108.865948 60.106851 
L 109.532631 60.105464 
L 110.509497 59.792925 
L 113.373965 60.359431 
L 114.03957 60.154777 
L 115.576537 60.153622 
L 116.875476 60.990472 
L 119.825366 61.169849 
L 121.933094 60.760169 
L 124.862789 60.616759 
L 126.973223 60.340544 
L 129.422994 60.063577 
L 131.772366 59.673196 
L 132.202989 59.890853 
L 132.709869 59.779757 
L 133.216749 59.426065 
L 133.654102 58.911398 
L 137.977664 57.480811 
L 142.178663 55.723056 
L 143.127062 55.385239 
L 145.158786 55.453115 
L 146.39563 55.106943 
L 146.920278 54.439577 
L 147.394699 53.899106 
L 148.537534 52.404375 
L 149.143099 51.610835 
L 149.697079 51.270747 
L 149.883234 51.093901 
L 150.064903 50.699398 
L 150.351985 50.304896 
L 150.845408 50.12805 
L 151.664617 49.171134 
L 152.951206 48.564545 
L 154.956519 47.359731 
L 155.721325 47.049117 
L 156.609331 46.137165 
L 159.794188 44.520415 
L 163.793934 42.83745 
L 169.22086 41.089463 
L 175.599545 40.582904 
L 176.433878 40.301764 
L 178.234872 39.258827 
L 178.777638 39.027567 
L 180.706473 38.80991 
L 182.74745 38.265769 
L 184.577601 37.526643 
L 186.170012 36.62881 
L 188.133312 34.390868 
L 190.283366 32.488801 
L 191.68178 31.157166 
L 191.809586 30.528596 
L 192.887782 28.770256 
L 194.277501 28.208554 
L 194.624461 28.241155 
L 194.827343 28.756899 
L 194.708473 30.858645 
L 194.827343 31.416389 
L 195.132368 31.790487 
L 195.61682 32.069359 
L 196.182014 32.123773 
L 196.740479 31.831297 
L 197.150917 30.815567 
L 197.22493 29.691008 
L 197.532198 29.155936 
L 198.624458 29.895061 
L 198.503345 29.423472 
L 198.368775 28.46669 
L 198.247662 27.995101 
L 198.379989 28.097127 
L 198.624458 28.339724 
L 199.001253 27.995101 
L 198.31941 27.026933 
L 198.825964 26.493998 
L 199.455731 26.779349 
L 200.496834 26.688778 
L 201.724627 27.227984 
L 202.731083 28.913339 
L 203.139278 29.550438 
L 202.917238 28.328387 
L 202.632398 27.471365 
L 202.600999 26.695963 
L 203.139278 25.714242 
L 203.955669 24.968315 
L 205.601908 24.358423 
L 206.525955 23.773471 
L 206.644825 23.610228 
L 206.795094 23.197588 
L 206.900508 23.011673 
L 207.088905 22.871103 
L 207.45536 22.279324 
L 207.962013 21.966463 
L 208.779604 21.390339 
L 209.129426 19.959516 
L 209.510225 18.615027 
L 210.485381 18.23802 
L 210.927473 17.830133 
L 210.661666 17.536548 
L 210.042364 17.768372 
L 209.558263 17.901279 
L 209.246582 17.560847 
L 209.600765 17.32796 
L 209.92535 17.095036 
L 210.220705 16.510897 
L 211.017396 16.163405 
L 211.633532 15.66737 
L 212.103028 15.112128 
L 213.102074 14.822763 
L 213.982199 14.942307 
L 215.067719 14.593016 
L 216.477705 13.952095 
L 217.47546 14.228325 
L 217.7446 14.890363 
L 218.040654 15.425436 
L 218.049625 15.847145 
L 217.47546 16.166828 
L 217.47546 16.513718 
L 218.015983 16.75178 
L 218.02944 16.881014 
L 218.229052 17.307258 
L 218.498191 17.116808 
L 218.695561 17.003446 
L 218.852559 16.844738 
L 219.0118 16.513718 
L 219.388596 16.513718 
L 219.727263 16.772186 
L 220.17583 16.976239 
L 221.272575 17.307258 
L 221.299489 16.8266 
L 221.683013 15.785929 
L 221.974581 16.286993 
L 222.342405 16.486511 
L 222.746115 16.436632 
L 223.154311 16.166828 
L 225.245967 16.670712 
L 228.3242 17.012981 
L 231.813086 17.97905 
L 233.634282 18.620178 
L 236.167135 18.94965 
L 237.20083 18.403501 
L 238.233185 18.094182 
L 239.500846 18.180567 
L 240.451076 18.264983 
L 241.402725 18.034164 
L 242.433748 17.725067 
L 244.176135 17.578001 
L 246.135846 17.243307 
L 248.468464 17.07126 
L 249.199991 17.518677 
L 249.197174 18.145581 
L 248.251871 18.663619 
L 247.571367 18.529884 
L 247.019466 18.945272 
L 246.416737 18.994773 
L 244.739736 19.196591 
L 243.822387 19.375537 
L 243.216874 20.391791 
L 243.366071 21.697207 
L 243.646743 23.500345 
L 244.614753 23.817827 
L 245.50629 23.612757 
L 246.081367 23.876346 
L 246.789143 23.748879 
L 247.496748 23.647551 
L 248.099476 23.545794 
L 248.701111 23.679008 
L 249.460232 23.682458 
L 250.427026 24.078446 
L 251.002011 24.263725 
L 251.494735 24.675839 
L 251.914145 25.011392 
L 252.176556 25.45124 
L 252.593615 25.367546 
L 253.30082 25.318843 
L 253.745739 25.347083 
L 254.294891 25.480272 
L 254.974742 25.404723 
L 255.267344 24.884821 
L 255.86814 24.756666 
L 256.887369 24.996483 
L 258.456108 24.690571 
L 258.910728 24.171738 
L 259.849481 24.358963 
L 260.480947 24.258005 
L 261.09024 24.026492 
L 261.827313 23.664597 
L 262.397141 24.396966 
L 263.291622 24.819341 
L 263.996488 24.747245 
L 265.830259 25.251797 
L 267.061391 25.127272 
L 267.791021 25.679334 
L 268.67999 25.81481 
L 269.466999 25.480037 
L 270.102757 24.950913 
L 271.027065 24.608688 
L 271.848951 24.813178 
L 272.911926 25.530141 
L 273.700278 25.837212 
L 275.5154 25.83661 
L 276.421569 26.471505 
L 277.019233 26.236089 
L 277.840198 26.485848 
L 278.416264 27.068421 
L 279.039668 27.602549 
L 280.540065 28.29687 
L 281.113809 28.636701 
L 281.890845 28.890308 
L 283.317635 29.179601 
L 284.465617 29.811713 
L 285.280575 30.444059 
L 286.143469 30.835565 
L 286.67184 31.081206 
L 287.19963 31.133342 
L 287.918909 31.331346 
L 288.635699 31.76844 
L 289.49673 32.255291 
L 290.500548 32.838797 
L 291.364322 32.990623 
L 292.229696 32.85421 
L 292.757071 33.051576 
L 293.427534 33.443056 
L 294.145033 33.54232 
L 295.148137 34.174462 
L 295.68301 34.873954 
L 297.107514 35.19865 
L 298.880551 35.451928 
L 299.932853 35.844558 
L 300.612755 36.39755 
L 300.819096 37.114003 
L 302.007796 38.383666 
L 302.724482 38.4908 
L 303.694406 38.952747 
L 305.527089 41.054536 
L 306.457575 42.51914 
L 307.201659 43.482733 
L 308.021625 44.713989 
L 309.91823 45.991243 
L 309.637403 45.222281 
L 309.395685 44.543799 
L 308.777332 43.246244 
L 308.710145 42.391895 
L 309.678282 42.863763 
L 310.385911 44.137574 
L 310.830417 44.753645 
L 312.336805 45.78235 
L 312.540349 47.047556 
L 313.0879 47.664338 
L 313.772747 48.076244 
L 314.603541 48.794904 
L 314.796424 49.443339 
L 315.27639 50.046429 
L 315.881955 50.545225 
L 316.054591 51.045849 
L 315.514982 52.044219 
L 316.588447 53.279535 
L 317.357824 55.017913 
L 317.933908 55.631299 
L 318.444582 55.18677 
L 318.682657 55.288928 
L 318.749748 56.07498 
L 319.809544 56.7264 
L 320.93623 57.753219 
L 322.170856 59.188003 
L 323.224987 59.673196 
L 322.94239 59.21521 
L 322.579051 58.870588 
L 322.265055 58.494223 
L 322.130485 57.94328 
L 322.413082 57.682546 
L 323.023132 58.19948 
L 323.606268 58.925002 
L 323.803637 59.292297 
L 325.443887 60.564077 
L 325.234373 61.551648 
L 326.25583 62.405429 
L 326.571089 61.455486 
L 327.118657 61.55972 
L 327.592086 62.514785 
L 327.413312 63.430275 
L 327.305965 64.279218 
L 327.060173 64.918632 
L 327.755355 65.553938 
L 329.486974 66.744766 
L 330.796787 67.409072 
L 332.602267 67.717419 
L 334.311305 67.588185 
L 335.336279 66.935216 
L 335.551591 67.207286 
L 335.820731 67.42721 
L 336.139213 67.590453 
L 336.498066 67.697014 
L 336.42024 68.465636 
L 335.844864 68.873073 
L 334.953316 68.962335 
L 334.064616 69.161015 
L 333.164523 69.729699 
L 333.107555 70.154413 
L 333.372456 70.721658 
L 333.435121 71.715056 
L 332.771444 73.105813 
L 331.214898 74.76949 
L 330.609511 75.416543 
L 330.150919 77.069327 
L 330.148071 78.344908 
L 330.64654 78.667402 
L 332.304307 78.511914 
L 333.235733 78.822891 
L 333.808261 79.305193 
L 334.719748 80.862956 
L 335.520147 82.808001 
L 335.97589 86.630423 
L 336.451573 88.61578 
L 337.066826 89.576065 
L 337.767532 89.836652 
L 338.502418 89.879843 
L 339.208821 90.182181 
L 339.61899 90.759504 
L 340.815316 93.28619 
L 342.235506 95.3921 
L 342.749378 96.154087 
L 344.350176 99.235061 
L 345.532261 103.582977 
L 345.634803 104.927664 
L 345.99655 105.739659 
L 346.5292 106.249315 
L 347.118818 106.678348 
L 347.657165 107.248472 
L 348.087273 108.120934 
L 347.771101 108.354167 
L 345.7288 108.331132 
L 344.071034 108.679541 
L 342.219576 109.298615 
L 340.527628 110.191234 
L 339.359786 111.366035 
L 337.949829 114.553547 
L 336.326243 116.626725 
L 336.146794 117.306267 
L 336.884529 118.938895 
L 338.015342 120.018676 
L 338.359998 121.049506 
L 336.742109 122.523766 
L 329.011561 127.352545 
L 326.499275 129.895068 
L 325.117803 131.01516 
L 323.867357 131.144734 
L 323.280587 130.508383 
L 322.611214 127.723989 
L 322.192499 126.986859 
L 320.665759 124.905042 
L 320.520491 124.798504 
L 320.053354 124.686207 
L 319.890995 124.536477 
L 319.893843 124.32628 
L 320.121715 123.831021 
L 320.144502 123.68417 
L 319.609004 123.070855 
L 316.854604 120.709735 
L 316.284925 120.401638 
L 314.963269 121.133009 
L 314.615765 123.180273 
L 314.874969 125.550031 
L 315.37059 127.271921 
L 316.615339 129.710785 
L 316.780546 130.905742 
L 316.284925 132.339691 
L 315.464587 133.370521 
L 314.41068 134.003992 
L 313.194415 134.196913 
L 311.878455 133.903213 
L 309.958636 140.096834 
L 307.70817 147.356785 
L 307.668704 147.345703 
L 306.441875 146.992011 
L 304.85395 145.543235 
L 302.492248 142.57313 
L 301.610815 141.931497 
L 301.173463 141.455373 
L 300.985065 140.827343 
L 301.110664 140.244658 
L 301.330461 139.661974 
L 301.429146 139.088358 
L 301.173463 138.528346 
L 300.859466 138.288017 
L 300.706954 138.392311 
L 300.594812 138.612234 
L 300.424357 138.734666 
L 299.989248 138.55782 
L 299.863649 138.201861 
L 299.975791 137.911652 
L 300.231474 137.93886 
L 299.572081 136.925396 
L 299.213228 136.723611 
L 298.692891 137.177062 
L 298.354223 137.177062 
L 297.021981 135.648931 
L 296.145034 134.857659 
L 295.494612 134.515304 
L 295.315186 134.272707 
L 295.178373 133.739902 
L 294.915962 133.200295 
L 294.368711 132.959966 
L 294.021072 132.715103 
L 293.749689 132.157358 
L 293.390836 131.055471 
L 293.049926 131.055471 
L 292.812185 131.892089 
L 292.68883 131.347947 
L 292.637245 129.39584 
L 292.363619 128.393713 
L 291.780483 128.171522 
L 291.248932 128.615904 
L 291.134547 129.604428 
L 290.831765 128.872104 
L 290.925964 128.352903 
L 291.127819 127.865443 
L 291.134547 127.253284 
L 290.925964 126.666065 
L 290.697195 126.348649 
L 290.037802 125.768231 
L 288.864801 124.244636 
L 288.057382 123.627942 
L 286.994279 123.482838 
L 287.124364 122.870679 
L 286.886623 122.410426 
L 286.415629 122.095277 
L 285.863892 121.9275 
L 286.390958 120.859623 
L 286.671312 120.095558 
L 286.635426 119.370036 
L 286.242931 118.435927 
L 284.585478 115.887532 
L 284.325309 115.2527 
L 283.809458 113.470637 
L 282.611786 111.969714 
L 281.243658 110.632033 
L 280.220927 109.33743 
L 279.500978 107.621118 
L 279.056897 105.843589 
L 279.036712 105.172482 
L 279.166796 104.533115 
L 279.056897 103.977638 
L 278.067808 102.184239 
L 277.92651 101.488191 
L 278.220321 100.438452 
L 278.868499 99.420454 
L 279.516678 99.041822 
L 280.153642 100.842023 
L 280.947604 101.191181 
L 281.835766 101.05968 
L 282.477216 100.520073 
L 284.042712 101.34082 
L 286.177889 100.238933 
L 288.066353 98.189334 
L 288.878258 96.157873 
L 288.772845 95.019711 
L 288.476791 94.321396 
L 288.005797 93.827134 
L 287.371075 93.292062 
L 285.758479 91.407973 
L 285.112543 91.006668 
L 285.112543 90.591761 
L 286.608512 90.752736 
L 287.079507 90.673382 
L 287.779271 90.249405 
L 287.779271 89.829963 
L 287.460788 89.673522 
L 287.299305 89.51028 
L 287.18492 89.31983 
L 286.994279 89.070432 
L 287.433874 88.893586 
L 287.563959 88.870914 
L 287.779271 88.308634 
L 288.24578 88.621516 
L 288.878258 89.217804 
L 289.250568 89.449064 
L 289.73502 89.585099 
L 290.158915 89.571496 
L 290.959606 89.449064 
L 291.047077 89.22914 
L 291.722169 88.292764 
L 291.883653 88.136323 
L 291.802911 86.608193 
L 291.883653 86.027775 
L 292.042894 85.925749 
L 293.049926 84.885078 
L 293.28318 84.368144 
L 293.381865 83.878417 
L 293.390836 82.776531 
L 293.624091 82.477253 
L 294.144428 82.22332 
L 294.664765 82.150768 
L 294.895776 82.395632 
L 295.171645 84.427093 
L 295.306215 84.885078 
L 295.851223 85.347599 
L 296.755084 85.844127 
L 297.74193 86.245432 
L 298.522436 86.408674 
L 299.154914 86.766901 
L 299.625909 87.61032 
L 300.594812 90.265276 
L 301.133092 90.999867 
L 301.826127 91.530405 
L 302.660461 91.734458 
L 302.922872 91.623362 
L 303.508251 91.448783 
L 304.100359 91.473723 
L 304.52874 92.267263 
L 304.910021 92.56654 
L 305.398958 92.788731 
L 305.876682 92.874887 
L 306.630273 92.874887 
L 306.630273 92.530264 
L 305.784725 92.344349 
L 305.013191 91.890898 
L 304.398655 91.271937 
L 304.030831 90.591761 
L 306.785029 91.122299 
L 308.251841 91.659638 
L 309.187102 92.729783 
L 310.505887 93.448503 
L 310.804183 93.843005 
L 310.855769 94.670554 
L 311.030709 95.257773 
L 311.378348 95.665879 
L 311.932328 95.951553 
L 312.526678 95.611465 
L 313.141214 95.949286 
L 313.62118 96.713351 
L 313.816307 97.665598 
L 314.195345 98.284559 
L 315.052107 98.502216 
L 315.944754 98.252817 
L 316.451634 97.475149 
L 314.913051 97.488752 
L 312.887774 95.019711 
L 311.932328 95.192022 
L 309.099631 91.598422 
L 308.543409 91.17898 
L 307.731504 90.720994 
L 302.833159 89.829963 
L 301.639972 89.356106 
L 300.689011 88.551231 
L 300.052047 87.483353 
L 299.821035 86.218225 
L 298.62112 83.789994 
L 298.271238 82.295872 
L 299.105572 81.46379 
L 298.508979 81.071554 
L 297.8451 80.525146 
L 297.230564 79.865374 
L 296.777512 79.144387 
L 296.535286 78.226149 
L 296.699013 77.702413 
L 297.006281 77.328315 
L 297.190193 76.863528 
L 297.109451 76.165213 
L 296.793212 75.988367 
L 296.295303 75.87047 
L 295.68301 75.339932 
L 295.413871 74.716437 
L 295.355557 74.185899 
L 295.180616 73.752853 
L 294.557109 73.437705 
L 294.781392 73.952372 
L 294.826249 75.355803 
L 295.10436 75.893143 
L 295.837766 76.373801 
L 296.113634 76.428215 
L 296.13382 76.595992 
L 296.095691 78.430202 
L 296.18989 78.917662 
L 296.954696 80.729199 
L 297.02871 81.311884 
L 296.777512 81.842421 
L 296.436602 81.842421 
L 295.393685 80.078496 
L 294.723078 79.212405 
L 294.180313 78.763488 
L 293.321308 78.758954 
L 292.587902 79.235077 
L 292.076537 80.103436 
L 291.883653 81.27334 
L 291.5562 82.128096 
L 290.735323 82.7856 
L 289.699135 83.211844 
L 288.70556 83.366017 
L 288.234565 83.177835 
L 288.030468 82.742522 
L 288.019254 82.236924 
L 288.124667 81.842421 
L 288.443149 81.46379 
L 290.037802 80.667983 
L 290.253114 80.851631 
L 290.401141 80.944588 
L 290.791394 81.082891 
L 290.858679 79.253215 
L 290.573839 77.559576 
L 289.661007 74.546393 
L 289.250568 74.546393 
L 288.864801 75.3422 
L 289.133941 75.852332 
L 289.658764 76.287645 
L 290.037802 76.863528 
L 289.959303 77.852051 
L 289.533165 78.645591 
L 289.264025 79.303095 
L 289.661007 79.906185 
L 289.661007 80.321093 
L 289.488308 80.443525 
L 289.297668 80.531948 
L 288.878258 80.667983 
L 288.636032 80.219066 
L 288.304093 79.967401 
L 287.990097 79.783753 
L 287.779271 79.559295 
L 287.599844 79.069568 
L 287.694043 79.012886 
L 287.91384 79.028757 
L 288.124667 78.763488 
L 288.716774 77.695611 
L 288.651732 77.16734 
L 287.779271 76.863528 
L 288.043925 77.559576 
L 287.925055 77.88606 
L 287.631244 78.078777 
L 287.371075 78.382589 
L 286.617484 79.906185 
L 285.731565 80.037686 
L 285.247113 79.42326 
L 284.735748 77.625326 
L 284.325309 78.037966 
L 284.271481 78.756687 
L 283.511161 79.874443 
L 282.508615 80.838027 
L 281.723624 81.082891 
L 281.216744 80.146514 
L 280.642579 76.849925 
L 280.220927 75.723098 
L 280.42951 75.344467 
L 280.561837 74.961301 
L 280.220927 74.961301 
L 280.220927 75.339932 
L 279.810489 75.339932 
L 279.810489 74.199503 
L 279.467335 74.199503 
L 279.256509 75.566658 
L 280.261298 78.33271 
L 280.795092 81.00127 
L 281.829037 81.856025 
L 282.06902 82.776531 
L 280.561837 86.027775 
L 280.34204 85.547117 
L 279.947301 85.299986 
L 279.487521 85.12314 
L 279.384351 85.066459 
L 279.056897 84.885078 
L 277.785211 83.316137 
L 277.175161 82.948842 
L 277.471215 82.268665 
L 277.428601 81.27334 
L 277.16619 80.266679 
L 276.796122 79.559295 
L 276.39017 79.872176 
L 276.165887 80.212265 
L 276.062716 80.609034 
L 276.013374 81.082891 
L 275.757691 80.552353 
L 275.156612 79.783753 
L 274.914386 79.144387 
L 274.882987 78.359917 
L 275.291182 76.482629 
L 274.914386 75.512244 
L 273.304033 73.340213 
L 272.658098 72.641898 
L 273.485702 72.682709 
L 274.089024 72.866356 
L 274.63179 72.934374 
L 275.291182 72.641898 
L 274.389564 71.934514 
L 274.084539 71.356364 
L 274.165281 69.408792 
L 270.742719 68.458811 
L 271.029802 67.601789 
L 271.1554 67.350124 
L 270.792061 67.304778 
L 270.603663 67.390934 
L 270.365923 67.697014 
L 269.912871 67.397736 
L 269.488976 67.42721 
L 269.085266 67.599522 
L 268.688285 67.697014 
L 268.203833 67.418141 
L 267.853951 66.765172 
L 267.356043 65.413887 
L 268.141034 64.772254 
L 268.432602 63.763325 
L 268.372046 62.616094 
L 268.109634 61.575423 
L 267.699196 61.575423 
L 267.620697 62.473257 
L 267.840494 63.622755 
L 267.806852 64.420829 
L 266.979247 64.27119 
L 266.0552 65.289188 
L 264.364105 63.071812 
L 262.838979 63.096752 
L 261.76242 62.425644 
L 260.661189 60.05863 
L 259.793213 59.292297 
L 259.793213 58.911398 
L 260.205894 58.911398 
L 260.205894 58.530499 
L 259.389504 58.29017 
L 258.873652 57.773236 
L 258.443029 57.156542 
L 257.877835 56.630539 
L 258.31743 57.560114 
L 258.413872 58.29017 
L 258.066233 58.85245 
L 257.162372 59.292297 
L 256.334767 59.428332 
L 255.776301 59.21521 
L 254.697499 57.94328 
L 254.311732 57.061318 
L 254.091935 55.986638 
L 253.798124 55.079736 
L 246.556019 51.270747 
L 243.671737 50.631381 
L 242.27221 49.638323 
L 242.038956 49.332243 
L 241.969428 48.788102 
L 242.124183 48.472953 
L 242.339495 48.162339 
L 242.447151 47.638603 
L 242.474065 46.486837 
L 242.388837 45.516452 
L 241.949242 44.904293 
L 240.908568 44.802267 
L 240.908568 44.387359 
L 242.090541 44.301203 
L 242.994402 43.81601 
L 243.617909 43.045143 
L 243.954334 42.1065 
L 244.297487 42.1065 
L 244.784182 42.859228 
L 245.320219 42.829754 
L 246.210623 42.1065 
L 247.332039 41.707463 
L 247.829948 41.414987 
L 248.094602 40.927527 
L 247.742477 41.104373 
L 247.002343 41.163321 
L 246.556019 41.308426 
L 246.188195 41.598634 
L 245.483946 42.364967 
L 245.252934 42.51914 
L 244.811096 42.351363 
L 244.667555 41.999939 
L 244.4971 41.711997 
L 243.954334 41.725601 
L 243.613424 42.015809 
L 242.940574 43.027005 
L 242.622092 43.244662 
L 242.492008 43.362559 
L 242.317067 43.625561 
L 242.007556 43.888563 
L 241.473762 44.00646 
L 240.962396 44.033667 
L 240.554201 44.137961 
L 240.285061 44.380557 
L 240.193105 44.802267 
L 240.531773 45.183165 
L 241.24275 45.39402 
L 241.886443 45.874678 
L 242.038956 47.049117 
L 241.787759 47.733828 
L 241.218079 48.681541 
L 240.448788 49.34358 
L 239.594269 49.157665 
L 239.235416 48.97175 
L 237.898688 48.604454 
L 237.840374 48.359591 
L 237.571234 47.910674 
L 237.284152 47.761035 
L 237.145096 48.418539 
L 236.209835 48.726886 
L 231.780242 47.942416 
L 230.340344 48.22809 
L 229.994948 48.22809 
L 229.994948 47.847191 
L 228.640278 48.2689 
L 225.524984 47.965088 
L 224.284698 48.604454 
L 223.795761 48.22809 
L 223.284395 48.271168 
L 222.752844 48.482022 
L 221.797397 48.66567 
L 221.111091 48.924137 
L 220.691681 48.985353 
L 220.279 49.107785 
L 220.166858 49.366252 
L 220.130973 49.629254 
L 219.953789 49.747151 
L 219.778849 49.937601 
L 218.229052 50.889848 
L 218.11691 51.388644 
L 218.170738 51.864768 
L 218.063082 52.232063 
L 217.47546 52.408909 
L 218.430907 54.032264 
L 218.635004 54.692035 
L 217.91057 54.181903 
L 217.020165 53.290872 
L 216.273302 52.243399 
L 215.97052 51.270747 
L 215.627367 51.270747 
L 215.703623 51.592697 
L 215.802307 51.801285 
L 215.97052 52.064286 
L 215.97052 52.408909 
L 215.627367 52.408909 
L 216.024348 53.791935 
L 215.766422 54.991313 
L 214.961246 55.576265 
L 213.709745 55.106943 
L 211.193288 55.55586 
L 210.401568 55.9685 
L 210.702108 56.630539 
L 210.702108 56.977429 
L 210.089815 56.771109 
L 209.697319 56.508107 
L 209.329494 56.392477 
L 208.784486 56.630539 
L 208.623002 56.446891 
L 208.55796 56.353934 
L 208.427876 56.304054 
L 208.064537 56.24964 
L 208.064537 56.630539 
L 208.219293 56.820989 
L 208.306763 57.106663 
L 208.441333 57.392337 
L 207.494858 57.229095 
L 206.597725 57.691615 
L 205.862076 58.485154 
L 205.395567 59.292297 
L 205.162313 60.366976 
L 205.395567 63.683971 
L 205.514437 64.003654 
L 205.772363 64.171431 
L 206.032531 64.284794 
L 206.149159 64.46164 
L 206.095331 64.813065 
L 205.983189 65.112342 
L 205.808248 65.413887 
L 205.68265 65.846933 
L 205.462852 66.31172 
L 205.17577 66.75837 
L 204.848316 67.141536 
L 204.628519 67.302511 
L 203.942212 67.635798 
L 203.246934 67.780902 
L 203.206563 67.98949 
L 203.273848 68.238888 
L 203.139278 68.458811 
L 202.198907 68.707731 
L 201.300892 69.158007 
L 201.996507 69.852288 
L 203.875133 70.278545 
L 205.653135 69.562615 
L 207.309267 68.723931 
L 207.943204 68.376215 
L 208.147717 68.110428 
L 208.41364 68.110284 
L 208.434138 68.580328 
L 208.22965 68.989143 
L 206.368916 70.440766 
L 204.162423 72.443816 
L 203.099866 72.852948 
L 201.301571 73.446628 
L 199.216959 73.958986 
L 198.808662 74.490452 
L 198.904812 75.104138 
L 198.797156 75.530382 
L 198.624458 75.723098 
L 198.341861 75.838729 
L 197.722839 75.967962 
L 197.49407 76.065454 
L 196.657494 76.849925 
L 196.267241 77.131064 
L 195.764847 77.244427 
L 195.468793 77.480222 
L 194.934999 78.525426 
L 194.654645 78.763488 
L 194.540261 78.97661 
L 193.369502 79.992341 
L 189.478189 82.561141 
L 187.268999 84.021254 
L 184.79067 85.311322 
L 180.948699 87.299706 
L 179.327131 87.961744 
L 176.694047 88.308634 
L 176.205109 88.247418 
L 175.496374 87.995753 
L 175.189107 87.961744 
L 174.704655 88.095512 
L 173.74248 88.5603 
L 173.305128 88.689533 
L 171.80243 88.308634 
L 171.075753 87.832511 
L 170.741571 87.442543 
L 171.015196 87.170472 
L 170.46346 87.388129 
L 170.436546 87.632992 
L 170.51953 87.93227 
L 170.29749 88.308634 
L 169.292701 88.966138 
L 165.80734 92.441841 
L 165.369988 93.462106 
L 165.5539 98.803761 
L 165.484373 99.449928 
L 165.354288 99.644912 
L 165.026835 100.136907 
L 165.921725 100.565418 
L 166.320949 101.631028 
L 166.587846 102.719311 
L 167.079026 103.21584 
L 167.893174 103.385884 
L 169.994708 104.310924 
L 170.6384 104.773445 
L 172.497708 105.333457 
L 173.661738 107.337711 
L 174.4557 109.670717 
L 175.189107 111.23739 
L 180.457519 115.45902 
L 183.801581 118.513013 
L 188.838982 124.956554 
L 191.409267 129.683782 
L 192.08436 131.327542 
L 192.02156 132.404489 
L 191.17377 134.533442 
L 190.743146 135.002764 
L 190.070297 135.163739 
L 188.596756 135.240825 
L 188.145947 135.326981 
L 184.256876 136.796163 
L 180.784972 136.791628 
L 180.114365 137.177062 
L 179.446002 136.866448 
L 177.965732 136.51729 
L 177.447638 136.036632 
L 177.070843 136.036632 
L 176.579662 136.281496 
L 174.812311 136.796163 
L 174.812311 137.177062 
L 175.523288 137.09544 
L 176.097453 136.952603 
L 176.595362 136.737214 
L 177.070843 136.45154 
L 177.447638 136.796163 
L 173.484554 138.102102 
L 172.017742 139.169979 
L 171.80243 140.634626 
L 172.74442 142.212636 
L 172.569479 142.722769 
L 171.203594 142.917753 
L 170.822313 143.028848 
L 170.389446 143.29185 
L 170.032836 143.606999 
L 169.884809 143.87 
L 169.743511 144.484426 
L 169.382415 144.699816 
L 168.884506 144.835851 
L 168.346226 145.203146 
L 168.108486 145.665667 
L 168.128672 146.053367 
L 168.074844 146.395723 
L 167.626277 146.722208 
L 167.20911 146.756217 
L 166.166194 146.434266 
L 165.574086 146.341309 
L 158.82989 147.19153 
L 158.430666 147.266349 
L 152.419877 148.395442 
L 147.997012 148.556417 
L 146.859896 148.245803 
L 146.485343 148.245803 
L 146.200503 148.570021 
L 145.917907 148.678849 
L 145.63531 148.570021 
L 145.354956 148.245803 
L 144.97816 148.245803 
L 144.224569 148.993998 
L 143.603304 148.613099 
L 142.721871 147.137115 
L 142.425817 146.892252 
L 142.022108 146.631518 
L 141.537656 146.427465 
L 141.012833 146.341309 
L 140.481282 146.164463 
L 140.456611 145.76996 
L 140.710051 145.379992 
L 141.012833 145.203146 
L 141.237116 144.958283 
L 141.174317 143.761172 
L 141.216931 143.298652 
L 141.504013 142.904149 
L 142.123035 142.430293 
L 142.34059 142.158222 
L 142.540202 141.414562 
L 142.582816 140.387496 
L 142.358532 139.471524 
L 140.952277 138.612234 
L 140.972462 137.56703 
L 141.557841 135.846183 
L 141.288702 135.122928 
L 139.29931 132.959966 
L 139.108669 132.846603 
L 138.691502 132.458903 
L 138.431334 132.043995 
L 139.104183 131.654027 
L 139.211839 131.177903 
L 139.272396 130.613357 
L 139.487707 130.1395 
L 139.566207 129.493332 
L 139.048112 128.715664 
L 138.316949 128.024151 
L 137.758484 127.634183 
L 137.758484 127.253284 
L 138.168922 127.253284 
L 138.168922 126.872385 
L 135.502195 124.20836 
L 134.957187 123.900013 
L 134.54002 123.777581 
L 134.331437 123.587132 
L 134.407693 123.065663 
L 134.667862 122.569134 
L 135.073814 122.222244 
L 135.623308 122.097545 
L 136.289429 122.269856 
L 136.022532 121.791465 
L 135.40351 121.304005 
L 134.708233 120.934442 
L 134.219295 120.784804 
L 134.13631 120.521802 
L 135.161285 118.848567 
L 134.560206 118.889378 
L 134.024169 118.82136 
L 133.584574 118.66492 
L 133.243663 118.43366 
L 133.432061 118.390582 
L 133.586817 118.397383 
L 133.672044 118.336168 
L 133.654102 118.086769 
L 132.380173 117.841906 
L 131.862079 117.043832 
L 131.897964 116.195878 
L 132.301674 115.80591 
L 132.611185 115.683479 
L 132.887053 115.425011 
L 133.254877 115.16201 
L 133.842499 115.044112 
L 134.533292 115.044112 
L 135.087271 114.944353 
L 135.43491 114.615601 
L 135.502195 113.901416 
L 135.161285 113.901416 
L 133.91427 114.615601 
L 133.52626 113.128281 
L 133.654102 109.68432 
L 132.460915 111.908498 
L 131.622096 112.656692 
L 130.987374 111.58428 
L 130.644221 111.58428 
L 130.767577 112.180569 
L 130.97616 112.615882 
L 131.299128 112.924228 
L 131.774608 113.139618 
L 131.774608 113.522784 
L 129.273851 113.522784 
L 128.760242 113.404887 
L 128.073936 112.881151 
L 127.394358 112.760986 
L 126.001559 112.350613 
L 125.727933 111.475452 
L 125.586635 110.663775 
L 124.588575 110.446118 
L 125.133583 110.672844 
L 125.295067 110.870095 
L 125.342166 111.23739 
L 124.611003 111.479987 
L 124.745573 111.924369 
L 125.718962 112.760986 
L 126.674409 113.268851 
L 126.844864 113.332334 
L 126.757393 113.826596 
L 126.595909 114.2279 
L 126.506196 114.561187 
L 127.528927 116.492889 
L 126.992891 117.941665 
L 125.766062 119.12744 
L 124.588575 119.988997 
L 124.348592 119.535546 
L 124.305978 119.26801 
L 124.400177 119.073026 
L 124.588575 118.848567 
L 124.588575 118.43366 
L 123.817041 118.386047 
L 123.049992 118.43366 
L 123.049992 118.848567 
L 123.633128 119.009542 
L 123.958339 119.345096 
L 124.588575 120.369896 
L 123.843955 120.651036 
L 123.520987 120.610225 
L 123.049992 120.369896 
L 123.451459 121.036469 
L 123.837226 121.512593 
L 124.178137 121.512593 
L 124.913785 121.111288 
L 125.718962 120.784804 
L 125.954459 121.410566 
L 125.718962 123.827461 
L 125.833347 124.478163 
L 125.849046 124.859062 
L 125.718962 125.348789 
L 125.510379 125.62086 
L 124.844258 126.165001 
L 124.588575 126.525495 
L 124.178137 126.525495 
L 123.707142 126.17407 
L 121.933062 125.219556 
L 121.542809 125.15834 
L 121.244512 124.457758 
L 120.558206 124.201558 
L 119.28652 124.20836 
L 114.726843 122.92736 
L 113.230874 123.065663 
L 113.004348 122.424029 
L 112.63428 121.86175 
L 112.194685 121.426437 
L 111.759576 121.165703 
L 110.485648 121.485386 
L 108.857351 121.342548 
L 107.626037 120.814278 
L 107.552023 119.988997 
L 108.018532 119.841625 
L 109.047992 119.297484 
L 109.667014 118.710265 
L 107.500438 118.0777 
L 106.894874 118.256814 
L 106.832074 119.227199 
L 105.562631 118.315762 
L 104.916696 118.086769 
L 104.916696 117.705871 
L 105.277792 117.216143 
L 104.975009 116.753623 
L 104.465887 116.248025 
L 104.196747 115.631332 
L 104.290946 114.717628 
L 104.5399 114.121339 
L 105.327134 113.139618 
L 105.327134 112.760986 
L 104.934638 112.500252 
L 104.533171 112.398225 
L 104.142919 112.475312 
L 103.786308 112.760986 
L 103.447641 112.760986 
L 103.032717 112.380087 
L 103.032717 111.965179 
L 103.548568 111.54347 
L 103.54184 111.142166 
L 103.093273 110.874629 
L 102.283611 110.861026 
L 102.454066 110.010805 
L 102.505651 109.08123 
L 102.821891 108.557494 
L 103.786308 108.922522 
L 103.64501 108.425993 
L 103.420727 108.079103 
L 102.660407 107.401194 
L 102.91609 106.986286 
L 102.821891 106.174608 
L 103.032717 105.496699 
L 102.359867 105.775572 
L 102.041385 105.69395 
L 101.942701 105.748364 
L 101.940458 106.448946 
L 102.205112 107.222081 
L 102.29034 107.636988 
L 102.10867 107.816102 
L 101.700475 107.752618 
L 101.415635 107.564436 
L 101.242937 107.262891 
L 101.186866 106.847983 
L 101.005197 106.235824 
L 100.031808 104.886807 
L 99.648283 104.358537 
L 98.86105 102.249989 
L 98.517896 101.692244 
L 98.181471 102.556069 
L 98.114186 103.007252 
L 98.1411 103.56273 
L 97.56245 102.991382 
L 97.553478 102.181971 
L 97.452551 101.402035 
L 96.604761 100.932714 
L 96.604761 100.517806 
L 97.07127 100.789876 
L 97.501893 100.912308 
L 97.865232 100.837489 
L 98.1411 100.517806 
L 98.517896 100.517806 
L 98.706294 100.681048 
L 98.827407 100.746799 
L 99.271488 100.932714 
L 97.391995 97.475149 
L 96.174137 95.951553 
L 95.629129 95.087729 
L 95.474373 94.049326 
L 95.13122 94.049326 
L 94.814981 94.672821 
L 94.680411 95.287247 
L 94.855352 95.756569 
L 95.474373 95.951553 
L 95.133463 96.434478 
L 94.303615 97.339113 
L 93.933548 97.856048 
L 93.592637 97.856048 
L 92.603548 97.096517 
L 88.290583 95.382472 
L 87.806131 95.080927 
L 85.509471 94.529984 
L 84.731208 94.430224 
L 84.143586 94.069731 
L 84.361141 93.24445 
L 85.280702 91.734458 
L 84.614581 91.940778 
L 83.874446 92.421436 
L 83.271125 93.088009 
L 83.019927 93.843005 
L 82.679017 94.008515 
L 81.918697 93.530124 
L 80.761396 92.530264 
L 79.951733 93.131087 
L 78.164196 93.019991 
L 76.354231 92.457712 
L 75.459341 91.734458 
L 75.116188 91.734458 
L 75.021989 92.747921 
L 73.638161 95.817785 
L 73.519291 95.715758 
L 73.279308 95.593327 
L 73.203052 95.570654 
L 73.203052 95.951553 
L 72.859899 95.951553 
L 73.373507 94.654683 
L 73.353322 94.24431 
L 72.859899 94.430224 
L 72.922698 93.972239 
L 73.010168 93.632151 
L 73.198566 93.407692 
L 73.579848 93.292062 
L 73.579848 92.87262 
L 72.839713 92.93837 
L 71.890995 93.496115 
L 71.130675 93.634418 
L 70.655195 93.471175 
L 69.953188 92.727515 
L 69.403695 92.530264 
L 69.403695 92.149365 
L 69.686291 92.06321 
L 69.935246 91.856889 
L 70.190929 91.734458 
L 69.551722 90.013611 
L 69.495651 89.233675 
L 69.814133 88.689533 
L 69.814133 88.308634 
L 69.491165 88.056969 
L 69.428366 87.778097 
L 69.55845 87.476552 
L 69.814133 87.170472 
L 69.879175 87.315576 
L 69.865718 87.46975 
L 69.921789 87.571776 
L 70.190929 87.546836 
L 69.921789 86.803177 
L 69.986831 86.231828 
L 70.433154 85.830524 
L 71.321316 85.612867 
L 70.029445 85.572057 
L 69.354352 85.626471 
L 69.060541 85.819188 
L 68.179108 87.646596 
L 68.123038 87.961744 
L 67.048721 87.864252 
L 66.214388 87.503759 
L 65.810678 86.782771 
L 66.050661 85.612867 
L 65.144557 86.002835 
L 64.182382 86.302113 
L 63.20675 86.361062 
L 62.255789 86.027775 
L 62.356717 86.395071 
L 62.473344 87.184076 
L 62.594457 87.546836 
L 61.71751 87.680605 
L 60.145284 88.496817 
L 59.432064 88.689533 
L 58.395875 88.408394 
L 57.606399 87.778097 
L 57.492014 87.12286 
L 58.490074 86.75103 
L 58.490074 86.408674 
L 58.023565 86.220492 
L 57.770125 85.894007 
L 57.689383 85.445091 
L 57.736483 84.885078 
L 57.178018 85.306788 
L 57.090547 85.996034 
L 56.848321 86.707952 
L 55.823347 87.170472 
L 55.823347 87.546836 
L 56.054359 87.85745 
L 56.274156 88.240617 
L 56.455826 88.660059 
L 56.572453 89.070432 
L 55.534022 89.294891 
L 55.15274 89.27902 
L 54.69296 89.070432 
L 53.282219 89.333434 
L 51.02593 88.723542 
L 47.166016 87.170472 
L 45.167653 86.75103 
L 42.980891 86.748762 
L 40.807587 87.04804 
L 36.911788 88.261022 
L 35.240878 89.217804 
L 33.949007 90.580424 
L 33.137102 92.530264 
L 32.989075 94.824727 
L 33.377085 97.164535 
L 34.677928 100.932714 
L 34.677928 101.279604 
L 33.969193 102.011927 
L 33.632768 102.932433 
L 33.150559 103.406289 
L 32.010309 102.80023 
L 32.35533 101.529954 
L 32.628776 99.04214 
L 29.724835 92.654159 
L 29.472752 90.886198 
L 29.09534 90.314634 
L 28.131157 89.804978 
L 27.628416 89.734432 
L 26.963315 90.000778 
L 26.614386 89.980622 
L 26.306759 89.734432 
L 25.774109 88.946912 
L 25.482149 88.633056 
L 23.938318 87.721722 
L 23.432727 87.178952 
L 23.495392 86.480694 
L 23.981044 86.084774 
L 26.490481 84.668102 
L 28.930133 82.331457 
L 30.513841 81.515143 
L 32.071914 81.035721 
L 33.510354 80.324505 
L 34.729468 78.817132 
L 35.246452 77.175865 
L 35.408811 75.217864 
L 35.084094 71.333533 
L 34.646865 69.640437 
L 33.961825 68.20073 
L 33.040369 66.899235 
L 31.309968 64.95707 
L 30.820044 64.224259 
L 30.548022 63.436739 
L 30.613535 62.603148 
L 31.059309 62.122286 
L 32.699986 61.097214 
L 33.214121 60.499736 
L 33.222666 59.74101 
L 32.785437 59.470345 
L 32.523385 59.216957 
L 33.060308 58.501422 
L 33.702621 58.039276 
L 39.388021 55.70551 
L 41.037242 54.700595 
L 41.792567 53.460677 
L 41.836218 53.389021 
L 41.616891 52.864968 
L 40.195541 50.460657 
L 39.447837 49.963958 
L 36.941248 49.107332 
L 34.410448 47.234273 
L 33.171395 46.679985 
L 32.848102 46.489944 
L 32.60314 46.147294 
L 32.447902 45.708183 
L 32.249939 45.286349 
L 31.86683 45.001287 
L 31.358391 45.004166 
L 29.709169 45.696665 
L 29.701238 45.080147 
L 29.58384 35.954166 
L 29.498388 29.273924 
L 29.438571 24.658222 
L 29.580991 23.58852 
L 30.043856 22.809638 
L 31.073551 22.445392 
L 34.013096 22.042274 
L 34.834859 21.57149 
L 34.923159 21.117982 
L 34.669652 20.962494 
L 34.30933 20.853076 
L 34.072913 20.532021 
L 33.691228 19.003052 
L 33.023279 17.818173 
L 33.125821 17.301318 
L 33.751044 16.415898 
L 34.775042 15.547754 
L 35.79192 15.432578 
L 38.984973 16.706719 
L 41.285053 18.654643 
L 41.816279 18.853322 
L 42.259205 18.648884 
L 42.823187 19.286674 
L 43.528165 20.629921 
L 44.113511 21.280669 
L 44.65613 21.536937 
L 45.620312 21.833517 
L 46.644311 22.010601 
L 47.376349 21.896864 
L 47.732399 21.184209 
L 47.963119 19.046243 
L 48.354773 18.444446 
L 49.193626 18.579778 
L 50.035327 19.026087 
L 50.464011 19.000173 
L 49.870871 16.910488 
" clip-path="url(#p3292eb40d9)" style="fill: #f5f5f5; stroke: #000000"/>
    <path d="M 92.085454 144.441349 
L 92.621491 144.237296 
L 93.067815 144.29171 
L 93.585909 144.418676 
L 94.346229 144.441349 
L 93.666651 144.994559 
L 92.931002 146.434266 
L 92.46225 147.139383 
L 92.677562 147.420522 
L 92.872688 147.864905 
L 92.46225 147.864905 
L 91.616702 145.339182 
L 91.708658 144.856256 
L 91.477647 144.541108 
L 91.455218 144.368796 
L 91.708658 144.06045 
L 91.917242 144.067251 
L 92.056297 144.105795 
L 92.114611 144.210089 
L 92.085454 144.441349 
" clip-path="url(#p3292eb40d9)" style="fill: #f5f5f5; stroke: #000000"/>
    <path d="M 128.385689 129.187253 
L 129.134795 128.797285 
L 130.099213 128.443593 
L 131.772366 128.049091 
L 132.472129 128.287152 
L 133.212264 128.384644 
L 134.784489 128.393713 
L 134.127339 129.579488 
L 133.694473 130.110026 
L 133.073208 130.32995 
L 132.472129 130.62696 
L 132.045991 130.710849 
L 131.568268 130.504528 
L 131.218386 130.225656 
L 130.911118 130.057879 
L 130.552265 129.973991 
L 130.045385 129.949051 
L 129.482434 130.071483 
L 129.199837 130.37076 
L 129.009197 130.735788 
L 128.7266 131.055471 
L 127.188017 131.851278 
L 126.41424 132.764982 
L 126.093515 132.959966 
L 125.631492 132.959966 
L 125.111155 132.842069 
L 124.711931 132.69243 
L 124.586332 132.613076 
L 123.065692 133.150416 
L 122.720296 133.13001 
L 123.236147 132.406756 
L 123.769941 131.851278 
L 124.330649 131.422767 
L 125.007984 131.150696 
L 126.995133 130.844617 
L 127.564813 130.339019 
L 127.91918 129.722325 
L 128.385689 129.187253 
" clip-path="url(#p3292eb40d9)" style="fill: #f5f5f5; stroke: #000000"/>
    <path d="M 99.986951 138.319758 
L 100.641858 138.668916 
L 102.319496 138.510208 
L 102.660407 138.909245 
L 104.196747 141.779591 
L 103.167287 142.203567 
L 101.983072 142.536854 
L 100.812313 142.541388 
L 98.892449 141.434968 
L 96.528504 141.264923 
L 95.474373 141.017793 
L 94.897965 140.523531 
L 93.572452 139.047548 
L 92.509349 138.414983 
L 90.203718 136.45154 
L 88.947732 133.796584 
L 88.49468 133.374874 
L 88.371324 133.13001 
L 87.947429 131.660829 
L 88.162741 131.622285 
L 89.311071 131.620018 
L 89.826922 131.470379 
L 89.813465 131.252723 
L 90.513229 129.994396 
L 90.616399 129.949051 
L 90.759941 129.293814 
L 90.780126 128.797285 
L 90.858625 128.352903 
L 91.16365 127.840503 
L 91.585303 127.559363 
L 92.603548 127.346241 
L 94.157831 126.19901 
L 94.696111 125.899732 
L 94.720782 126.110587 
L 95.128977 126.110587 
L 94.978707 125.68661 
L 94.864323 124.995097 
L 94.720782 124.557517 
L 95.128977 124.557517 
L 95.128977 124.970157 
L 95.474373 124.970157 
L 95.442974 124.693552 
L 95.523716 124.611931 
L 95.685199 124.602862 
L 95.882569 124.557517 
L 97.131826 128.157919 
L 97.185654 128.806354 
L 97.291067 128.924251 
L 97.730662 129.604428 
L 97.757576 129.749532 
L 97.69702 130.193914 
L 97.730662 130.32995 
L 97.905603 130.357157 
L 98.363141 130.289139 
L 98.517896 130.32995 
L 99.013562 130.670038 
L 99.365687 130.806073 
L 99.578756 131.128024 
L 99.648283 132.025857 
L 99.325316 132.288859 
L 97.56245 132.959966 
L 97.508622 133.340865 
L 97.098184 134.96422 
L 96.977071 135.240825 
L 97.322467 135.934606 
L 98.313798 136.832439 
L 98.517896 137.385649 
L 98.618824 137.956998 
L 98.881235 138.446725 
L 99.242331 138.637174 
L 99.648283 138.319758 
L 99.986951 138.319758 
" clip-path="url(#p3292eb40d9)" style="fill: #f5f5f5; stroke: #000000"/>
    <path d="M 69.814133 93.636685 
L 68.643375 93.296597 
L 67.869598 93.217243 
L 67.519716 93.462106 
L 67.524201 93.967704 
L 67.564572 94.239775 
L 67.930154 95.192022 
L 66.393814 94.049326 
L 65.97889 93.951834 
L 64.875417 93.808996 
L 64.512078 93.636685 
L 64.088183 92.761524 
L 64.595063 92.251392 
L 66.393814 91.734458 
L 67.178805 92.085882 
L 68.320407 92.441841 
L 69.354352 92.920232 
L 69.814133 93.636685 
" clip-path="url(#p3292eb40d9)" style="fill: #f5f5f5; stroke: #000000"/>
    <path d="M 62.594457 90.249405 
L 64.135282 91.353559 
L 63.029566 91.636966 
L 61.109702 92.652696 
L 60.185655 92.874887 
L 59.530748 92.577877 
L 58.750243 91.863691 
L 58.077393 90.997599 
L 57.736483 90.249405 
L 58.079636 90.249405 
L 59.333379 90.408113 
L 62.195233 88.374385 
L 63.381691 88.689533 
L 64.041083 89.283554 
L 64.002955 89.827696 
L 63.46019 90.08843 
L 62.594457 89.829963 
L 62.594457 90.249405 
" clip-path="url(#p3292eb40d9)" style="fill: #f5f5f5; stroke: #000000"/>
    <path d="M 241.66216 87.546836 
L 242.02374 88.255723 
L 242.271985 89.45871 
L 242.665404 89.915351 
L 242.933932 89.998856 
L 243.223369 90.206821 
L 242.996333 90.413501 
L 242.415872 90.53735 
L 241.815781 90.266959 
L 241.126223 90.641475 
L 241.085438 91.118282 
L 241.420612 91.448747 
L 241.417151 91.927482 
L 241.065639 91.988826 
L 240.856474 92.259265 
L 240.810302 93.009031 
L 240.083304 93.091913 
L 239.130082 91.118638 
L 239.297089 90.391922 
L 239.650333 90.433596 
L 239.692187 90.018387 
L 239.921204 89.27113 
L 239.713892 88.73119 
L 239.984601 87.838667 
L 240.649834 87.050355 
L 241.065652 86.988567 
L 241.314473 87.051013 
L 241.617303 87.365456 
L 241.66216 87.546836 
" clip-path="url(#p3292eb40d9)" style="fill: #f5f5f5; stroke: #000000"/>
    <path d="M 61.531354 99.896578 
L 61.68611 99.218668 
L 62.060663 98.493146 
L 62.574271 97.862849 
L 63.168622 97.509158 
L 63.810072 97.475149 
L 63.940156 97.828841 
L 63.8796 98.434198 
L 63.946884 99.168789 
L 62.93761 99.617705 
L 62.334288 99.817224 
L 61.531354 99.896578 
" clip-path="url(#p3292eb40d9)" style="fill: #f5f5f5; stroke: #000000"/>
    <path d="M 242.195267 83.42399 
L 241.729445 83.719709 
L 240.663915 82.922109 
L 239.676013 82.177024 
L 240.329748 80.826327 
L 241.058417 81.40413 
L 241.619546 82.087285 
L 241.878017 81.875644 
L 241.9996 81.359389 
L 242.303053 81.557033 
L 242.091047 82.255935 
L 242.499829 82.528915 
L 242.423532 82.953758 
L 242.195267 83.42399 
" clip-path="url(#p3292eb40d9)" style="fill: #f5f5f5; stroke: #000000"/>
    <path d="M 74.705749 31.037758 
L 76.100791 31.677124 
L 76.787097 32.15098 
L 77.374719 32.939985 
L 76.307131 32.788079 
L 75.194687 33.232461 
L 74.311011 34.069078 
L 73.835531 35.347811 
L 73.570876 35.245784 
L 72.976526 34.620022 
L 73.001197 34.574677 
L 73.124553 34.533866 
L 73.203052 34.286735 
L 73.205295 33.01027 
L 72.996711 32.506939 
L 72.44946 32.178187 
L 72.44946 31.831297 
L 73.203052 32.178187 
L 72.705143 31.010551 
L 71.879781 30.606979 
L 70.870507 30.411995 
L 69.814133 29.895061 
L 69.814133 29.550438 
L 70.123644 29.280635 
L 70.408483 29.169539 
L 70.682109 29.246626 
L 70.942277 29.550438 
L 71.428972 29.745422 
L 71.875295 29.845181 
L 72.337319 29.795302 
L 72.857656 29.550438 
L 73.400421 29.81344 
L 74.705749 31.037758 
" clip-path="url(#p3292eb40d9)" style="fill: #f5f5f5; stroke: #000000"/>
    <path d="M 63.381691 26.056597 
L 64.859717 24.927504 
L 65.750121 24.562476 
L 66.80201 24.535269 
L 68.327135 26.79799 
L 68.71066 28.212757 
L 67.930154 29.133263 
L 67.930154 29.550438 
L 68.17238 29.817974 
L 68.250879 29.963079 
L 68.165651 30.178468 
L 67.930154 30.625117 
L 67.17432 29.337316 
L 66.012533 28.137938 
L 63.381691 26.056597 
" clip-path="url(#p3292eb40d9)" style="fill: #f5f5f5; stroke: #000000"/>
    <path d="M 252.786469 79.21398 
L 252.705505 78.58843 
L 252.914064 78.317472 
L 253.451427 78.633734 
L 254.060535 79.012886 
L 254.410417 79.457268 
L 254.661614 80.055824 
L 254.818612 80.701992 
L 254.867954 81.27334 
L 254.856833 81.708002 
L 255.543316 81.831871 
L 255.91365 82.560059 
L 255.812891 83.180217 
L 255.35362 83.49203 
L 255.227467 84.197622 
L 255.970632 85.634942 
L 255.4894 86.880458 
L 254.98831 87.33677 
L 254.989236 87.834716 
L 254.672828 88.251953 
L 253.989731 88.207022 
L 253.718057 87.9371 
L 253.323409 87.998819 
L 252.952576 88.068305 
L 252.557452 88.163611 
L 252.411245 87.87316 
L 252.285945 87.520707 
L 252.10044 87.872726 
L 251.686672 88.369889 
L 251.230354 88.991796 
L 251.250131 89.468983 
L 251.103624 89.945715 
L 251.643132 90.590104 
L 251.74496 91.68967 
L 252.077078 91.960334 
L 252.4927 91.98222 
L 252.492437 92.231327 
L 252.139308 92.521348 
L 251.370994 92.083245 
L 250.790597 91.604976 
L 250.874189 90.816527 
L 250.503869 89.509695 
L 250.151827 88.99046 
L 249.16219 88.553498 
L 248.812308 88.308634 
L 248.506221 87.736258 
L 248.753479 86.863288 
L 249.148953 86.398628 
L 249.33969 85.428588 
L 249.135276 85.075528 
L 248.650654 84.541764 
L 248.505678 84.126021 
L 248.734691 83.712295 
L 248.963477 83.36116 
L 248.984664 82.988007 
L 248.736656 81.990126 
L 248.812308 81.46379 
L 248.240881 79.976161 
L 248.449801 79.191526 
L 249.155043 79.171678 
L 249.652357 79.506905 
L 251.875178 78.54569 
L 252.371682 79.015154 
L 252.526438 79.289492 
L 252.611666 79.559295 
L 252.786469 79.21398 
" clip-path="url(#p3292eb40d9)" style="fill: #f5f5f5; stroke: #000000"/>
    <path d="M 215.407057 60.239681 
L 215.795815 59.901855 
L 216.151059 60.020087 
L 216.320138 59.969418 
L 216.354074 60.138315 
L 216.235789 60.27343 
L 216.388209 60.611198 
L 216.641954 60.780063 
L 216.980171 60.898246 
L 217.01412 61.202167 
L 216.895932 61.522989 
L 216.642387 61.607458 
L 216.456263 61.320439 
L 216.236334 61.117828 
L 215.830547 61.202312 
L 215.475342 61.101036 
L 215.339806 60.763281 
L 215.407057 60.239681 
" clip-path="url(#p3292eb40d9)" style="fill: #f5f5f5; stroke: #000000"/>
    <path d="M 105.28445 42.984651 
L 105.437453 43.138067 
L 105.744344 43.223327 
L 105.8644 43.104071 
L 106.12042 43.121169 
L 106.444597 43.291608 
L 106.735263 43.496105 
L 106.95774 43.717672 
L 107.026193 43.922176 
L 107.180394 44.075637 
L 107.146225 44.229003 
L 106.906499 44.228839 
L 106.632538 44.092351 
L 106.170738 44.023976 
L 105.607176 43.955661 
L 105.351949 43.955677 
L 105.096896 44.023883 
L 105.027646 43.666027 
L 104.907981 43.410512 
L 104.788926 43.189039 
L 104.891584 43.018687 
L 105.28445 42.984651 
" clip-path="url(#p3292eb40d9)" style="fill: #f5f5f5; stroke: #000000"/>
    <path d="M 78.883718 39.400773 
L 78.598676 39.117034 
L 78.630061 38.864522 
L 78.978281 39.021913 
L 79.200111 39.368823 
L 79.516644 39.55782 
L 79.89635 39.58892 
L 80.086628 40.062094 
L 80.213491 40.440682 
L 80.59323 40.598027 
L 81.004604 40.786897 
L 80.909992 41.134198 
L 80.404061 41.355772 
L 79.993048 41.60881 
L 79.676602 41.51454 
L 79.170073 41.168006 
L 78.726871 40.884496 
L 78.441699 40.442951 
L 78.472937 40.000988 
L 78.883718 39.400773 
" clip-path="url(#p3292eb40d9)" style="fill: #f5f5f5; stroke: #000000"/>
   </g>
  </g>
 </g>
 <defs>
  <clipPath id="p3292eb40d9">
   <rect x="7.2" y="7.2" width="357.12" height="148.546093"/>
  </clipPath>
 </defs>
</svg>
