<?xml version="1.0" encoding="utf-8" standalone="no"?>
<!DOCTYPE svg PUBLIC "-//W3C//DTD SVG 1.1//EN"
  "http://www.w3.org/Graphics/SVG/1.1/DTD/svg11.dtd">
<svg xmlns:xlink="http://www.w3.org/1999/xlink" width="261.644986pt" height="280.512pt" viewBox="0 0 261.644986 280.512" xmlns="http://www.w3.org/2000/svg" version="1.1">
 <metadata>
  <rdf:RDF xmlns:dc="http://purl.org/dc/elements/1.1/" xmlns:cc="http://creativecommons.org/ns#" xmlns:rdf="http://www.w3.org/1999/02/22-rdf-syntax-ns#">
   <cc:Work>
    <dc:type rdf:resource="http://purl.org/dc/dcmitype/StillImage"/>
    <dc:date>2024-03-04T13:11:12.570114</dc:date>
    <dc:format>image/svg+xml</dc:format>
    <dc:creator>
     <cc:Agent>
      <dc:title>Matplotlib v3.8.0, https://matplotlib.org/</dc:title>
     </cc:Agent>
    </dc:creator>
   </cc:Work>
  </rdf:RDF>
 </metadata>
 <defs>
  <style type="text/css">*{stroke-linejoin: round; stroke-linecap: butt}</style>
 </defs>
 <g id="figure_1">
  <g id="patch_1">
   <path d="M 0 280.512 
L 261.644986 280.512 
L 261.644986 0 
L 0 0 
z
" style="fill: #ffffff"/>
  </g>
  <g id="axes_1">
   <g id="PatchCollection_1">
    <defs>
     <path id="m353bf3d606" d="M 18.438408 -175.29981 
L 19.049222 -176.754792 
L 19.800992 -179.514135 
L 20.511304 -182.110809 
L 21.677653 -186.066069 
L 22.651913 -189.367641 
L 23.898414 -193.591003 
L 24.813252 -196.681708 
L 25.788895 -200.073652 
L 26.727225 -203.327026 
L 27.596459 -206.345435 
L 28.457402 -209.339744 
L 28.559665 -211.252607 
L 28.559484 -211.267635 
L 28.508533 -215.512118 
L 28.475367 -218.313634 
L 28.444964 -220.877173 
L 28.414562 -223.52807 
L 28.641198 -224.305265 
L 29.615459 -225.823506 
L 30.199106 -226.689625 
L 30.758315 -227.519478 
L 31.953685 -229.29076 
L 33.150436 -231.065054 
L 34.345806 -232.836335 
L 35.541175 -234.610629 
L 35.986157 -235.30649 
L 36.429757 -236.00235 
L 36.874738 -236.695198 
L 37.321101 -237.391059 
L 37.665202 -238.144155 
L 37.842855 -238.528323 
L 38.012067 -238.894238 
L 38.356167 -239.647334 
L 38.703032 -240.40043 
L 39.456184 -242.542235 
L 40.207953 -244.687052 
L 40.959723 -246.828856 
L 41.711493 -248.967649 
L 42.215898 -250.401543 
L 42.430097 -250.747967 
L 42.857114 -250.931723 
L 45.237488 -251.305258 
L 45.812371 -251.39563 
L 47.074073 -251.594447 
L 48.337848 -251.793264 
L 48.911349 -251.883636 
L 57.962992 -253.907958 
L 67.013252 -255.935292 
L 76.064203 -257.959613 
L 85.115845 -259.983935 
L 89.143481 -260.884638 
L 91.337986 -260.914762 
L 96.377885 -260.981034 
L 101.41502 -261.050319 
L 106.453537 -261.116591 
L 111.490673 -261.185876 
L 113.661685 -261.216 
L 114.193728 -261.07743 
L 114.995247 -260.490016 
L 115.759455 -259.9267 
L 117.108218 -259.065158 
L 119.60122 -257.468595 
L 122.096986 -255.872032 
L 124.59137 -254.278481 
L 127.087136 -252.68493 
L 129.580138 -251.088367 
L 132.074522 -249.494816 
L 134.567523 -247.898253 
L 137.063289 -246.304702 
L 138.110792 -245.63294 
L 138.400998 -245.295553 
L 138.488059 -244.879844 
L 138.406525 -243.915882 
L 138.460421 -242.982043 
L 138.916457 -241.313182 
L 139.004901 -240.40043 
L 138.934423 -239.752768 
L 138.970353 -238.523715 
L 138.927513 -237.915214 
L 138.532281 -236.372873 
L 138.551628 -235.613753 
L 138.564065 -235.146833 
L 138.724369 -235.044412 
L 138.945478 -235.077548 
L 139.133421 -235.017301 
L 139.324127 -234.815471 
L 139.575638 -234.484109 
L 139.628151 -234.176846 
L 138.645599 -233.827409 
L 138.447983 -233.339403 
L 138.617961 -232.800187 
L 139.133421 -232.429663 
L 139.296488 -232.474849 
L 139.422244 -232.643543 
L 139.588076 -232.809224 
L 139.86308 -232.827298 
L 140.041349 -232.718852 
L 140.255548 -232.492923 
L 140.382685 -232.215784 
L 140.125646 -231.41449 
L 140.185069 -230.673444 
L 140.370248 -229.950472 
L 140.578919 -229.462466 
L 141.003172 -228.956385 
L 141.578055 -228.49549 
L 142.179194 -228.164128 
L 142.686363 -228.034596 
L 143.081595 -227.802642 
L 143.008353 -227.284512 
L 142.586864 -226.441045 
L 142.530205 -225.850618 
L 142.559225 -225.103547 
L 142.671162 -224.401661 
L 142.976568 -223.702788 
L 142.997297 -223.374439 
L 142.968277 -222.741838 
L 143.040137 -222.338179 
L 143.391147 -221.768838 
L 143.516903 -221.446513 
L 143.504465 -221.133225 
L 143.304086 -220.572922 
L 143.316523 -220.235535 
L 143.482355 -219.907185 
L 143.733866 -219.702343 
L 143.964648 -219.735479 
L 144.210632 -220.750652 
L 144.563024 -220.973569 
L 144.988658 -220.904284 
L 145.357634 -220.636182 
L 145.466806 -220.455439 
L 145.6202 -220.024668 
L 145.722463 -219.8379 
L 145.891059 -219.675232 
L 146.302874 -219.377006 
L 146.53642 -219.14204 
L 146.604135 -218.861888 
L 146.400991 -218.641984 
L 146.087293 -218.49739 
L 145.5055 -218.373882 
L 145.294065 -218.211213 
L 144.992804 -217.864789 
L 144.587899 -217.557526 
L 144.391665 -217.295449 
L 144.564406 -217.117718 
L 145.258135 -217.051446 
L 145.802615 -216.936975 
L 146.255888 -216.629712 
L 146.551621 -216.186891 
L 146.619336 -215.659724 
L 146.344332 -215.358486 
L 145.24017 -214.73191 
L 144.992804 -214.358375 
L 145.07572 -214.030025 
L 145.258135 -213.888443 
L 145.441931 -213.83422 
L 145.523465 -213.761923 
L 145.658894 -213.761923 
L 146.276617 -213.24078 
L 146.888812 -212.562994 
L 147.068463 -212.562994 
L 147.183163 -213.072087 
L 147.676512 -212.632279 
L 147.71797 -211.996666 
L 147.467841 -211.321892 
L 146.74371 -210.177186 
L 146.763057 -209.76449 
L 147.183163 -208.875837 
L 147.347613 -207.577499 
L 147.238441 -206.21289 
L 146.866701 -204.977813 
L 146.255888 -204.062048 
L 145.498591 -203.492707 
L 145.357634 -203.266779 
L 145.341051 -202.90228 
L 145.473716 -202.679364 
L 145.642311 -202.525732 
L 145.722463 -202.363064 
L 145.944954 -202.058813 
L 146.373352 -201.926268 
L 146.660794 -201.640092 
L 146.453504 -200.877959 
L 144.672196 -198.07343 
L 144.261763 -197.079343 
L 144.158118 -196.464817 
L 144.185757 -195.817154 
L 144.408248 -195.302037 
L 144.894687 -195.09117 
L 145.148962 -194.841142 
L 144.955492 -194.259752 
L 144.612773 -193.597028 
L 144.428977 -193.099984 
L 144.540913 -192.605953 
L 144.821445 -192.081799 
L 145.157254 -191.663077 
L 145.441931 -191.491372 
L 145.589798 -191.214232 
L 144.428977 -189.26522 
L 144.444178 -188.701904 
L 144.542295 -188.168713 
L 144.51742 -187.611422 
L 144.163646 -186.975809 
L 143.977086 -186.472741 
L 144.224451 -186.054019 
L 144.59619 -185.57505 
L 144.793806 -184.903289 
L 144.672196 -184.541803 
L 144.048946 -183.351911 
L 143.797435 -183.095859 
L 143.738012 -182.812695 
L 143.150691 -181.104673 
L 143.109233 -180.704026 
L 143.118907 -180.264218 
L 143.165893 -179.96298 
L 143.516627 -179.771106 
L 143.523812 -179.767175 
L 143.830601 -179.50811 
L 144.069675 -179.044203 
L 144.40272 -178.682717 
L 145.30512 -178.375454 
L 145.592562 -178.375454 
L 146.055508 -178.574271 
L 146.237923 -178.601383 
L 146.465942 -178.465825 
L 146.844591 -178.044092 
L 146.97311 -177.944683 
L 147.296482 -178.019993 
L 147.72488 -178.393528 
L 147.999884 -178.384491 
L 148.272124 -178.315206 
L 148.480796 -178.354367 
L 148.804167 -178.520048 
L 148.740599 -178.568246 
L 148.750272 -178.721878 
L 148.79864 -178.893584 
L 148.851153 -178.992992 
L 148.950652 -179.00203 
L 149.209073 -178.905633 
L 149.318245 -178.908646 
L 149.848907 -179.110475 
L 150.198535 -179.080352 
L 150.555073 -178.971906 
L 151.098171 -178.947807 
L 151.395286 -179.032153 
L 151.601194 -179.149636 
L 151.7919 -179.200847 
L 152.037884 -179.086376 
L 152.453845 -177.920584 
L 152.767543 -177.32112 
L 153.118553 -176.974696 
L 153.582882 -176.857213 
L 154.224097 -176.953609 
L 154.457644 -177.050005 
L 154.565434 -177.131339 
L 154.706391 -177.1705 
L 155.038054 -177.134352 
L 155.243962 -177.050005 
L 155.869976 -176.631284 
L 156.905042 -176.878299 
L 157.13306 -176.875287 
L 157.688596 -176.655383 
L 157.980183 -176.634296 
L 158.365742 -176.483677 
L 159.244649 -175.917349 
L 159.414627 -175.914337 
L 159.511362 -176.092067 
L 159.735235 -176.037844 
L 160.14705 -175.802878 
L 160.449692 -175.808903 
L 160.586504 -175.962535 
L 160.633489 -176.14629 
L 160.668037 -176.233649 
L 161.081235 -176.197501 
L 162.275222 -175.902287 
L 162.7893 -175.995671 
L 163.456772 -176.558987 
L 163.822984 -176.649358 
L 163.939066 -176.534888 
L 164.0206 -176.086042 
L 164.204397 -175.929398 
L 164.460054 -175.908312 
L 164.630031 -175.986634 
L 164.782043 -176.089055 
L 164.983805 -176.137253 
L 165.417731 -176.07098 
L 166.219251 -175.763717 
L 166.463852 -175.637197 
L 166.474908 -175.573937 
L 166.510838 -175.447417 
L 166.639357 -175.326922 
L 167.113359 -175.242575 
L 167.265372 -175.194377 
L 167.42153 -175.179315 
L 167.624674 -175.263662 
L 167.949427 -175.351021 
L 168.800696 -175.281736 
L 169.241532 -175.317885 
L 169.902094 -175.097981 
L 170.189536 -175.088943 
L 170.488033 -175.287761 
L 170.463158 -174.820841 
L 170.595823 -174.706371 
L 170.821078 -174.742519 
L 171.075353 -174.73047 
L 171.547282 -174.486467 
L 171.818831 -174.471405 
L 172.115946 -175.227513 
L 172.428263 -174.78168 
L 172.703267 -174.052684 
L 172.761308 -173.68216 
L 173.389395 -173.588776 
L 173.742478 -173.709272 
L 174.362965 -174.396095 
L 174.537088 -174.66721 
L 174.570254 -174.85699 
L 174.666989 -174.905188 
L 175.033892 -174.772643 
L 175.236345 -174.79373 
L 176.109034 -175.061832 
L 176.311486 -175.022671 
L 176.343271 -174.893139 
L 176.398548 -174.835903 
L 176.674934 -175.019659 
L 176.799308 -175.212451 
L 177.013507 -175.736606 
L 177.1517 -175.854089 
L 177.600136 -175.619123 
L 178.510137 -174.555752 
L 178.931626 -174.453331 
L 179.05669 -174.688296 
L 178.774086 -175.215464 
L 178.944063 -175.390182 
L 179.24256 -175.480553 
L 179.456759 -175.582974 
L 180.350868 -176.260761 
L 180.639 -176.580073 
L 181.095037 -177.402454 
L 181.164825 -177.471739 
L 181.359677 -177.57416 
L 181.450884 -177.70068 
L 181.598751 -178.161575 
L 181.681667 -178.342318 
L 182.090718 -178.953831 
L 182.332556 -179.221934 
L 182.608942 -179.468949 
L 183.076034 -179.610531 
L 185.002445 -179.96298 
L 185.381094 -179.923819 
L 185.65748 -179.619568 
L 186.365028 -177.83925 
L 186.993806 -176.875287 
L 187.809145 -176.080018 
L 189.300247 -175.179315 
L 190.090711 -174.399108 
L 190.552276 -174.106906 
L 191.019368 -173.992436 
L 195.621196 -173.75747 
L 195.978425 -173.859891 
L 196.320452 -174.052684 
L 196.67699 -173.877965 
L 197.061167 -173.56769 
L 197.47851 -173.350798 
L 199.145118 -173.191142 
L 199.64123 -172.883879 
L 199.704799 -173.091733 
L 199.998459 -173.69421 
L 201.342386 -171.841594 
L 202.428583 -171.016201 
L 202.693914 -170.708938 
L 202.925387 -170.001028 
L 203.01314 -167.533886 
L 203.201082 -166.476539 
L 203.66472 -165.530651 
L 204.360522 -164.774542 
L 205.249103 -164.274487 
L 205.792892 -164.075669 
L 206.144594 -163.864803 
L 206.345664 -163.518378 
L 206.431344 -162.915902 
L 206.403705 -162.689973 
L 206.25653 -162.207992 
L 206.235801 -161.960976 
L 206.29246 -161.707936 
L 206.465892 -161.238004 
L 206.488694 -160.981952 
L 206.214381 -160.011964 
L 205.750743 -159.168497 
L 205.401115 -158.282856 
L 205.466066 -157.192373 
L 206.061678 -154.945135 
L 206.060296 -154.442067 
L 205.909665 -153.46003 
L 205.967706 -152.965999 
L 206.672491 -152.137594 
L 206.960623 -151.688748 
L 207.106417 -151.119408 
L 206.975134 -150.056037 
L 206.995172 -149.574055 
L 207.281922 -149.194495 
L 208.0254 -148.7336 
L 208.124899 -148.477548 
L 208.710838 -146.308632 
L 208.699782 -145.820625 
L 208.07515 -144.495177 
L 207.990852 -144.013195 
L 208.166357 -143.359508 
L 208.987915 -142.479892 
L 209.282266 -141.928626 
L 209.237353 -141.030936 
L 208.517368 -139.410273 
L 208.585773 -138.398112 
L 208.749355 -137.526167 
L 208.768879 -137.4221 
L 208.746768 -136.373791 
L 208.836593 -135.397779 
L 209.350671 -134.64167 
L 210.536367 -133.36442 
L 211.115396 -131.550965 
L 211.520302 -125.922326 
L 211.774577 -125.166218 
L 212.379862 -124.515543 
L 213.204874 -124.142008 
L 214.885301 -124.012475 
L 215.731043 -123.82872 
L 215.732425 -123.825707 
L 215.735189 -123.825707 
L 215.739334 -123.822695 
L 216.690793 -123.470246 
L 217.652617 -123.271429 
L 218.59993 -123.349751 
L 219.513385 -123.822695 
L 219.518913 -123.822695 
L 219.518913 -123.82872 
L 220.200896 -124.175144 
L 221.893069 -124.160082 
L 222.716699 -124.407097 
L 223.169282 -124.623989 
L 224.065463 -124.66315 
L 224.531174 -124.73846 
L 224.983065 -125.009574 
L 225.567621 -125.792794 
L 225.914486 -126.15428 
L 227.639134 -127.133304 
L 231.131272 -128.35332 
L 231.587309 -128.600335 
L 232.261 -129.335357 
L 232.672124 -129.540199 
L 233.3852 -129.344394 
L 237.915167 -126.756756 
L 238.456883 -126.353097 
L 239.935549 -124.286602 
L 242.449279 -122.777398 
L 243.194249 -122.371419 
L 243.206577 -122.364701 
L 242.646895 -121.918869 
L 241.715475 -121.219996 
L 241.081169 -120.394603 
L 240.81722 -119.499925 
L 240.891844 -119.029993 
L 241.235945 -118.105191 
L 241.365846 -117.014708 
L 241.5759 -116.65021 
L 242.207442 -115.81578 
L 242.429932 -115.14703 
L 242.785089 -114.237291 
L 242.754686 -113.390811 
L 242.500411 -112.490108 
L 242.168748 -111.851483 
L 241.130918 -110.30613 
L 240.819984 -109.363254 
L 240.813074 -108.471589 
L 241.190341 -106.471366 
L 241.173758 -105.525478 
L 240.180973 -102.521766 
L 239.841577 -101.494908 
L 239.075988 -100.383339 
L 238.874226 -99.90437 
L 237.644309 -94.611612 
L 237.403853 -93.608488 
L 237.352721 -93.063247 
L 237.376214 -92.572229 
L 237.593177 -92.008913 
L 238.274469 -90.888306 
L 238.357384 -90.33704 
L 238.115547 -89.824935 
L 237.213146 -88.996529 
L 236.891157 -88.478399 
L 236.29969 -86.571561 
L 235.6336 -85.532288 
L 235.136105 -84.881613 
L 234.371898 -84.191778 
L 233.774904 -83.10732 
L 233.458442 -82.080097 
L 233.404547 -81.751747 
L 233.387964 -81.125171 
L 233.49299 -80.480521 
L 233.761085 -79.950342 
L 233.949027 -79.399076 
L 233.877167 -78.703215 
L 233.722391 -78.00133 
L 233.715481 -77.935943 
L 233.661586 -77.425964 
L 234.088602 -76.486101 
L 234.16599 -75.898686 
L 233.761085 -75.636609 
L 232.8193 -75.687819 
L 232.574007 -75.41068 
L 232.567097 -74.642522 
L 233.054228 -73.118256 
L 233.130925 -72.542891 
L 233.262208 -72.148268 
L 233.867493 -71.413247 
L 234.044381 -71.060798 
L 234.000159 -70.416148 
L 233.741738 -69.898018 
L 233.451533 -69.437123 
L 233.31334 -68.961167 
L 233.524775 -67.647768 
L 233.54965 -67.102526 
L 233.31334 -66.662718 
L 233.087394 -66.587409 
L 232.438578 -66.548248 
L 232.21816 -66.445826 
L 232.055783 -66.132539 
L 232.073748 -65.840337 
L 232.162883 -65.536087 
L 232.294857 -64.650446 
L 232.58368 -63.716607 
L 232.567097 -63.06292 
L 232.014325 -61.198254 
L 232.11797 -60.755434 
L 232.601646 -60.183081 
L 232.696999 -59.806533 
L 232.525639 -59.478183 
L 232.21816 -59.047413 
L 232.000506 -58.661828 
L 231.98337 -58.584988 
L 231.952138 -58.444936 
L 232.018471 -57.872583 
L 232.018471 -56.559184 
L 231.606656 -55.640407 
L 231.570035 -55.483763 
L 231.490574 -55.321094 
L 231.232153 -53.540776 
L 231.109161 -53.067831 
L 230.873542 -52.670197 
L 230.052675 -51.754432 
L 229.300214 -51.145931 
L 228.898073 -50.669974 
L 228.644489 -50.142807 
L 228.672818 -49.733123 
L 228.813775 -49.320426 
L 228.898073 -48.78121 
L 228.873198 -48.112461 
L 228.775081 -47.395513 
L 228.558118 -46.747851 
L 228.184997 -46.274907 
L 227.909302 -46.142362 
L 227.762126 -46.214659 
L 227.639134 -46.365278 
L 227.437373 -46.473724 
L 226.250295 -46.473724 
L 225.609079 -46.314068 
L 225.166171 -45.898359 
L 224.876656 -45.319981 
L 224.524955 -43.97947 
L 224.330794 -43.467365 
L 224.066845 -43.036594 
L 223.685432 -42.584737 
L 223.243906 -42.385919 
L 221.934527 -42.274461 
L 221.395574 -42.078656 
L 219.660561 -40.37666 
L 219.476073 -39.879616 
L 219.845049 -38.731898 
L 219.75315 -38.099298 
L 219.324061 -37.749861 
L 218.703574 -37.644428 
L 217.643634 -37.698651 
L 217.230437 -37.822158 
L 216.735015 -38.084236 
L 216.163587 -38.307152 
L 215.520298 -38.316189 
L 214.215065 -37.611292 
L 212.963037 -37.454648 
L 212.425466 -37.294991 
L 211.952846 -36.987728 
L 211.502337 -36.505747 
L 211.183802 -35.948456 
L 211.021425 -35.355016 
L 210.955092 -34.008481 
L 210.673178 -33.544574 
L 210.016762 -33.484326 
L 209.278811 -33.559636 
L 208.74815 -33.502401 
L 208.439979 -33.041506 
L 208.328734 -32.442042 
L 208.173267 -31.917887 
L 207.734504 -31.691958 
L 207.024883 -31.51724 
L 207.006227 -31.077432 
L 207.650897 -29.884528 
L 207.765598 -29.541116 
L 207.816729 -29.230841 
L 207.762143 -28.92659 
L 207.404914 -28.33315 
L 207.427025 -28.137346 
L 207.493357 -27.899367 
L 207.469865 -27.495708 
L 207.210753 -26.829971 
L 206.778899 -26.329915 
L 206.210926 -26.013615 
L 205.544836 -25.905169 
L 204.793757 -25.341854 
L 203.83677 -24.236309 
L 202.84109 -23.468151 
L 201.224922 -24.329693 
L 200.504937 -24.525498 
L 200.182256 -24.706241 
L 199.951474 -25.001454 
L 199.548641 -26.09495 
L 199.147881 -26.640191 
L 198.606165 -26.845033 
L 197.983605 -26.832984 
L 197.334098 -26.736587 
L 197.18883 -26.731851 
L 196.687355 -26.715501 
L 196.09778 -26.833053 
L 194.309744 -27.513782 
L 194.296643 -27.516243 
L 193.636053 -27.640302 
L 192.951307 -27.6885 
L 192.271397 -27.311952 
L 191.765611 -26.935405 
L 190.788586 -25.844922 
L 190.184683 -25.579832 
L 189.415639 -25.37499 
L 188.798607 -25.043628 
L 188.652122 -24.411027 
L 188.755076 -23.615758 
L 188.652122 -22.965083 
L 188.339806 -22.383693 
L 187.818818 -21.814353 
L 187.29714 -21.079331 
L 186.931619 -20.184653 
L 186.453471 -19.476743 
L 185.592529 -19.296 
L 185.577349 -19.302001 
L 184.746788 -19.630375 
L 183.941122 -20.25695 
L 183.250157 -21.034145 
L 182.745062 -21.82339 
L 181.669229 -23.136789 
L 181.656047 -23.138663 
L 179.889303 -23.389829 
L 179.22032 -23.199619 
L 178.014024 -22.856637 
L 176.647295 -21.814353 
L 175.659906 -21.630597 
L 175.650405 -21.636287 
L 174.6891 -22.211987 
L 173.036312 -23.823612 
L 172.097981 -24.197148 
L 172.09542 -24.196888 
L 171.118193 -24.097739 
L 170.146696 -23.712154 
L 167.501682 -22.293322 
L 166.625538 -22.100529 
L 165.578035 -22.148727 
L 165.350017 -22.184876 
L 164.724002 -22.196925 
L 164.71449 -22.199819 
L 164.426887 -22.287297 
L 164.180904 -22.440928 
L 163.467828 -23.031356 
L 163.199733 -23.160888 
L 163.186584 -23.164391 
L 161.971463 -23.488074 
L 161.718304 -23.55551 
L 161.437773 -23.706129 
L 161.247038 -23.890506 
L 160.814522 -24.308606 
L 160.575448 -24.46525 
L 160.007538 -24.615228 
L 159.902448 -24.642981 
L 159.199046 -24.639968 
L 156.498754 -24.26342 
L 155.811935 -24.329693 
L 155.635978 -24.38918 
L 155.214941 -24.531523 
L 150.879826 -26.679352 
L 150.869339 -26.683026 
L 150.570274 -26.787798 
L 147.836816 -27.345089 
L 147.827988 -27.348012 
L 146.681523 -27.727661 
L 146.673389 -27.729366 
L 145.485642 -27.978229 
L 145.114414 -28.056011 
L 144.294929 -28.396411 
L 144.286187 -28.398218 
L 142.700181 -28.726059 
L 142.210979 -28.827181 
L 142.208608 -28.827249 
L 141.36662 -28.85128 
L 139.749761 -28.562092 
L 139.353147 -28.541005 
L 136.427601 -28.908516 
L 129.139302 -28.284952 
L 126.748563 -27.278816 
L 126.640772 -27.18242 
L 126.642411 -27.203297 
L 126.755472 -28.643426 
L 126.711251 -29.239878 
L 126.378206 -29.794156 
L 125.717643 -30.276138 
L 125.352813 -30.628587 
L 125.191128 -31.005135 
L 125.327939 -31.84559 
L 125.714879 -32.439029 
L 126.321546 -32.791478 
L 127.675838 -33.020419 
L 127.808503 -33.32467 
L 127.758754 -33.773515 
L 127.764282 -34.29767 
L 127.830614 -34.553722 
L 127.919058 -34.782664 
L 128.044813 -34.996543 
L 128.212027 -35.204397 
L 128.457551 -35.342609 
L 128.463538 -35.345979 
L 128.611405 -35.219459 
L 128.677737 -35.008592 
L 128.677737 -34.894122 
L 128.703994 -34.821825 
L 128.89148 -34.699218 
L 128.897464 -34.695304 
L 129.118573 -34.647106 
L 129.224982 -34.794713 
L 129.247092 -35.279707 
L 129.296842 -35.481537 
L 129.390813 -35.710478 
L 129.631269 -36.117149 
L 130.108035 -36.689502 
L 130.31947 -37.102199 
L 129.918711 -37.454648 
L 129.863433 -37.840233 
L 130.08316 -38.207744 
L 130.501885 -38.49392 
L 131.686199 -38.804196 
L 132.265228 -39.033137 
L 132.511211 -39.400647 
L 132.777924 -39.677787 
L 134.002314 -39.777195 
L 134.353324 -40.069397 
L 134.183347 -40.575477 
L 133.695526 -40.933951 
L 133.374918 -41.340622 
L 133.705199 -41.979248 
L 134.151562 -42.117817 
L 134.628328 -41.964186 
L 135.081601 -41.894901 
L 135.449195 -42.277474 
L 135.351078 -42.515452 
L 135.135497 -42.849827 
L 135.098185 -43.14504 
L 135.540402 -43.27156 
L 135.865156 -43.265535 
L 136.065536 -43.301684 
L 136.167798 -43.449291 
L 136.241041 -45.720628 
L 136.362651 -46.274907 
L 136.499462 -46.606269 
L 136.586523 -46.642417 
L 136.723334 -46.543009 
L 137.56493 -46.383352 
L 137.881392 -46.404439 
L 138.020967 -46.58217 
L 137.947724 -46.847259 
L 137.792948 -47.079213 
L 137.661665 -47.34129 
L 137.656137 -47.684702 
L 137.757018 -47.775074 
L 138.211673 -48.100411 
L 138.387178 -48.284166 
L 138.23793 -48.443823 
L 138.003002 -48.856519 
L 137.839934 -49.079436 
L 137.23603 -49.510206 
L 137.09231 -49.675888 
L 136.985901 -50.169918 
L 137.070199 -50.612739 
L 137.216683 -51.064596 
L 137.291308 -51.573689 
L 137.376987 -51.80263 
L 137.752872 -52.07977 
L 137.839934 -52.381008 
L 137.193191 -52.97746 
L 137.100601 -53.344971 
L 137.284398 -53.808878 
L 138.179889 -55.36628 
L 138.315318 -55.781989 
L 138.387178 -56.260958 
L 138.251749 -57.194797 
L 138.253131 -57.667741 
L 138.470094 -57.872583 
L 138.894347 -57.965967 
L 139.501014 -58.215995 
L 139.963961 -58.565431 
L 139.947377 -58.957041 
L 139.556291 -59.231168 
L 139.130657 -59.442035 
L 138.815577 -59.737248 
L 138.752008 -60.258391 
L 139.022866 -60.161995 
L 139.235683 -60.038487 
L 139.384932 -59.872806 
L 139.481667 -59.661939 
L 139.716595 -59.981252 
L 139.955669 -60.583728 
L 140.212708 -61.562753 
L 140.484948 -61.839892 
L 142.220652 -62.466468 
L 143.113379 -62.966524 
L 146.201993 -65.246898 
L 146.550239 -65.713817 
L 146.553003 -66.102415 
L 145.316176 -66.460888 
L 145.51932 -66.900696 
L 146.453504 -67.656805 
L 146.619336 -67.882733 
L 146.77273 -68.217108 
L 146.745092 -68.521359 
L 146.131515 -68.747287 
L 146.055508 -68.95213 
L 146.131515 -69.156972 
L 146.696724 -69.367838 
L 147.257788 -69.663052 
L 147.620764 -69.92546 
L 147.80365 -70.057674 
L 148.096619 -70.461334 
L 147.690332 -71.449395 
L 147.594979 -72.009699 
L 147.99712 -72.253702 
L 148.487705 -72.422395 
L 149.004547 -72.814005 
L 149.455056 -73.2749 
L 149.741116 -73.645423 
L 149.453675 -73.720733 
L 149.200781 -73.835203 
L 148.989346 -74.000884 
L 148.826278 -74.241875 
L 149.384578 -75.085342 
L 149.717623 -75.401643 
L 150.28836 -75.636609 
L 150.588239 -75.66372 
L 150.868771 -75.642633 
L 151.13272 -75.669745 
L 151.382849 -75.835426 
L 151.482348 -76.061355 
L 151.621923 -76.712029 
L 151.674436 -76.847587 
L 152.457991 -76.745166 
L 152.878097 -76.757215 
L 153.05913 -76.937958 
L 153.183504 -77.615745 
L 153.476473 -77.823599 
L 153.838539 -77.91397 
L 154.155001 -78.24232 
L 154.295958 -78.76045 
L 154.646968 -81.290852 
L 154.615184 -81.766809 
L 154.423095 -82.149382 
L 154.063793 -82.547016 
L 152.404095 -83.833304 
L 152.39304 -84.185753 
L 151.583229 -86.237186 
L 151.570191 -86.246041 
L 150.758217 -86.797489 
L 150.238611 -87.520461 
L 149.374905 -89.421275 
L 149.055679 -89.800836 
L 148.218229 -90.207508 
L 147.814705 -90.505733 
L 146.635919 -91.873356 
L 146.255888 -92.20773 
L 145.726609 -92.400523 
L 143.606728 -92.406547 
L 143.232225 -92.530055 
L 143.069157 -92.825269 
L 142.968277 -93.156631 
L 142.785862 -93.400634 
L 142.535732 -93.454857 
L 141.938739 -93.379547 
L 141.673408 -93.400634 
L 139.816094 -94.334473 
L 139.481667 -94.316399 
L 139.217718 -94.756207 
L 136.80625 -96.406993 
L 136.312901 -96.391931 
L 135.86792 -96.063581 
L 135.11615 -95.283374 
L 134.79416 -95.05142 
L 134.455587 -94.879714 
L 134.152944 -94.831516 
L 133.81299 -94.930925 
L 133.670651 -95.096606 
L 133.589117 -95.325547 
L 133.423285 -95.608711 
L 131.705546 -97.518562 
L 131.07124 -98.401191 
L 130.743723 -98.723516 
L 130.138437 -99.027766 
L 124.23345 -100.172472 
L 124.095257 -100.311042 
L 124.027542 -100.542995 
L 123.861711 -100.666503 
L 123.651657 -100.759887 
L 123.456805 -100.910506 
L 123.076775 -101.024977 
L 121.71281 -101.058113 
L 121.158656 -101.199695 
L 116.031695 -105.064583 
L 115.181808 -105.272437 
L 114.922005 -105.462218 
L 114.385816 -105.992397 
L 114.126013 -106.155066 
L 113.961564 -106.188202 
L 113.457159 -106.194227 
L 112.92788 -106.387019 
L 111.927362 -107.043719 
L 111.298584 -107.263623 
L 110.534377 -107.802839 
L 109.421923 -108.1824 
L 109.166266 -108.387242 
L 109.019781 -108.583047 
L 108.823547 -108.736678 
L 108.418642 -108.796926 
L 108.165749 -108.89031 
L 107.817502 -109.303006 
L 106.937904 -109.628344 
L 106.49845 -110.170573 
L 105.953969 -111.20382 
L 105.704531 -111.486985 
L 104.663247 -112.399737 
L 104.015122 -112.69495 
L 103.920459 -112.923891 
L 103.854127 -113.188981 
L 103.762228 -113.390811 
L 103.597088 -113.535405 
L 103.015295 -113.791458 
L 102.406555 -114.143907 
L 102.119804 -114.366823 
L 101.828908 -114.686136 
L 101.616091 -114.839767 
L 101.122742 -114.939176 
L 100.668778 -115.216315 
L 99.99716 -115.303674 
L 99.729756 -115.400071 
L 99.536977 -115.577801 
L 99.06643 -116.219439 
L 98.041729 -117.270761 
L 88.413822 -123.635927 
L 87.930837 -123.756422 
L 87.378756 -123.699187 
L 86.123963 -123.250342 
L 85.483439 -123.105748 
L 83.481022 -123.042488 
L 81.387398 -123.3618 
L 80.542348 -123.316614 
L 80.292218 -123.3618 
L 80.00685 -123.524469 
L 79.48448 -123.994401 
L 79.196348 -124.175144 
L 78.953819 -124.214305 
L 78.000978 -124.175144 
L 76.347499 -124.500481 
L 75.469282 -125.130069 
L 74.981461 -125.368048 
L 74.024474 -125.413233 
L 73.869698 -125.467456 
L 73.440609 -126.398283 
L 73.41297 -126.563964 
L 73.166296 -126.618187 
L 72.703349 -126.877252 
L 72.408998 -126.979673 
L 72.100137 -127.006784 
L 70.87091 -126.940512 
L 70.610416 -127.009797 
L 70.063863 -127.482741 
L 69.81166 -127.567088 
L 68.247514 -127.528857 
L 67.46998 -127.509852 
L 66.914444 -127.576125 
L 66.146091 -128.040032 
L 65.247836 -128.781078 
L 64.265975 -129.266072 
L 63.245419 -128.967846 
L 62.402442 -129.510075 
L 62.149549 -129.766128 
L 61.76399 -130.409271 
L 61.602995 -130.577965 
L 61.554628 -130.969575 
L 61.235402 -131.572051 
L 60.801476 -132.12633 
L 60.098074 -132.529989 
L 59.639964 -133.295135 
L 59.39398 -133.563237 
L 59.6372 -134.042206 
L 59.731171 -134.70493 
L 59.634436 -135.295357 
L 59.303464 -135.55141 
L 58.841899 -135.711066 
L 58.44183 -136.072552 
L 58.084601 -136.473199 
L 57.752247 -136.747326 
L 57.551867 -136.774438 
L 57.018442 -136.735277 
L 56.838791 -136.747326 
L 56.593499 -136.919032 
L 56.075966 -137.449212 
L 55.834819 -137.56067 
L 55.282047 -137.726351 
L 55.005661 -138.123986 
L 54.844666 -138.58488 
L 54.631158 -138.955403 
L 52.897527 -139.732598 
L 52.280495 -139.762722 
L 51.910829 -139.868156 
L 51.642043 -140.057936 
L 51.326963 -140.347125 
L 50.920676 -140.636313 
L 50.48675 -140.820069 
L 49.995474 -140.916465 
L 49.419209 -140.943577 
L 49.172534 -141.10022 
L 48.923787 -141.784032 
L 48.49677 -142.064183 
L 48.520263 -142.356384 
L 48.645328 -142.690759 
L 48.771774 -142.93175 
L 48.292936 -142.943799 
L 47.977165 -143.001034 
L 47.740164 -143.124542 
L 46.389327 -144.555424 
L 46.002386 -144.742192 
L 44.739302 -144.742192 
L 44.37931 -144.847626 
L 44.153364 -144.986195 
L 43.734639 -145.456127 
L 43.357372 -145.721217 
L 42.970432 -145.892923 
L 42.669171 -146.14295 
L 42.547561 -146.652043 
L 42.529596 -147.19126 
L 42.454972 -147.534672 
L 42.28914 -147.814823 
L 42.000317 -148.161247 
L 41.712875 -148.414288 
L 41.10759 -148.760712 
L 40.796656 -149.046888 
L 40.189988 -149.935541 
L 39.975789 -150.152433 
L 36.994966 -151.983962 
L 36.042816 -153.041309 
L 35.672459 -153.601612 
L 35.668313 -153.734157 
L 35.590925 -153.869714 
L 35.729118 -154.550513 
L 35.668313 -154.827652 
L 35.371198 -155.26746 
L 34.872321 -156.342881 
L 34.481235 -156.936321 
L 33.914644 -157.535785 
L 33.66866 -157.873172 
L 33.567779 -158.228633 
L 33.440642 -158.234658 
L 33.176693 -158.415401 
L 32.945911 -158.626268 
L 32.921036 -158.728689 
L 32.731712 -158.822073 
L 32.628067 -159.044989 
L 32.553443 -159.307066 
L 32.456707 -159.523958 
L 31.725666 -160.337301 
L 31.558453 -160.647577 
L 31.442371 -160.975927 
L 31.26272 -161.225955 
L 30.9048 -161.331388 
L 30.795628 -161.488032 
L 31.125909 -162.171843 
L 30.614595 -162.500193 
L 30.62565 -162.879753 
L 30.812211 -163.521391 
L 30.669872 -163.822629 
L 30.573137 -163.87384 
L 30.414215 -163.852753 
L 30.082552 -163.9371 
L 29.419225 -164.244363 
L 29.069597 -164.539576 
L 29.065451 -164.904075 
L 29.442718 -165.431242 
L 29.593348 -165.919248 
L 29.380531 -166.44039 
L 28.787683 -167.139263 
L 28.641198 -167.181437 
L 28.460166 -167.166375 
L 28.305389 -167.208548 
L 28.240439 -167.419415 
L 28.245966 -167.74174 
L 28.221092 -167.889347 
L 28.149231 -168.027917 
L 27.954379 -168.148412 
L 27.6545 -168.238783 
L 26.701687 -168.368595 
L 26.504734 -168.395427 
L 25.982365 -168.597257 
L 24.115377 -169.901619 
L 23.663486 -170.362514 
L 23.476926 -170.802322 
L 23.246143 -171.004151 
L 22.172384 -171.344551 
L 21.833811 -171.498182 
L 21.185686 -172.359724 
L 20.729649 -172.748321 
L 20.098107 -172.91099 
L 19.795464 -172.947139 
L 19.433398 -173.055585 
L 19.108645 -173.242352 
L 18.911029 -173.507442 
L 18.960778 -173.748433 
L 19.137665 -174.004485 
L 19.242692 -174.308736 
L 19.078242 -174.700346 
L 19.260657 -174.700346 
L 19.121082 -174.926275 
L 18.934521 -175.116055 
L 18.705121 -175.2486 
L 18.438408 -175.29981 
" style="stroke: #000000"/>
    </defs>
    <g clip-path="url(#p7a4634ebf6)">
     <use xlink:href="#m353bf3d606" x="0" y="280.512" style="fill: #f5f5f5; stroke: #000000"/>
    </g>
   </g>
  </g>
 </g>
 <defs>
  <clipPath id="p7a4634ebf6">
   <rect x="7.2" y="7.2" width="247.244986" height="266.112"/>
  </clipPath>
 </defs>
</svg>
