<?xml version="1.0" encoding="utf-8" standalone="no"?>
<!DOCTYPE svg PUBLIC "-//W3C//DTD SVG 1.1//EN"
  "http://www.w3.org/Graphics/SVG/1.1/DTD/svg11.dtd">
<svg xmlns:xlink="http://www.w3.org/1999/xlink" width="195.955528pt" height="280.512pt" viewBox="0 0 195.955528 280.512" xmlns="http://www.w3.org/2000/svg" version="1.1">
 <metadata>
  <rdf:RDF xmlns:dc="http://purl.org/dc/elements/1.1/" xmlns:cc="http://creativecommons.org/ns#" xmlns:rdf="http://www.w3.org/1999/02/22-rdf-syntax-ns#">
   <cc:Work>
    <dc:type rdf:resource="http://purl.org/dc/dcmitype/StillImage"/>
    <dc:date>2024-03-04T13:11:12.595336</dc:date>
    <dc:format>image/svg+xml</dc:format>
    <dc:creator>
     <cc:Agent>
      <dc:title>Matplotlib v3.8.0, https://matplotlib.org/</dc:title>
     </cc:Agent>
    </dc:creator>
   </cc:Work>
  </rdf:RDF>
 </metadata>
 <defs>
  <style type="text/css">*{stroke-linejoin: round; stroke-linecap: butt}</style>
 </defs>
 <g id="figure_1">
  <g id="patch_1">
   <path d="M -0 280.512 
L 195.955528 280.512 
L 195.955528 0 
L -0 0 
z
" style="fill: #ffffff"/>
  </g>
  <g id="axes_1">
   <g id="PatchCollection_1">
    <path d="M 169.730745 250.233557 
L 168.058039 251.812243 
L 167.463509 252.20828 
L 166.874708 252.303875 
L 166.264674 252.220571 
L 165.713622 252.249249 
L 165.299068 252.678062 
L 165.198295 253.240708 
L 165.347939 253.702296 
L 165.570382 254.161153 
L 165.686996 254.719701 
L 165.712274 255.054284 
L 165.782377 255.276885 
L 166.071553 255.758957 
L 166.179068 256.011602 
L 166.211423 256.258784 
L 166.169631 256.510062 
L 165.380631 258.248529 
L 165.096847 258.663685 
L 164.860586 258.914964 
L 164.347281 259.349239 
L 163.727136 260.064837 
L 163.499637 260.245102 
L 163.209787 260.355719 
L 162.826915 260.361182 
L 162.515494 260.46224 
L 161.590332 260.967528 
L 161.26543 261.060392 
L 160.589675 261.13004 
L 159.193675 260.997572 
L 158.521963 261.044004 
L 158.191786 261.216 
L 157.86521 260.934149 
L 157.21739 260.533495 
L 156.410635 259.967497 
L 156.007012 259.71933 
L 155.542493 259.471287 
L 155.065085 259.222377 
L 154.427879 258.889798 
L 153.773958 258.279267 
L 153.730966 258.2212 
L 153.659313 258.079259 
L 153.587659 258.000761 
L 153.526622 257.965276 
L 153.394992 257.948071 
L 153.320154 257.917962 
L 152.563815 257.238366 
L 152.33771 257.105027 
L 151.875945 256.973839 
L 151.709285 256.827597 
L 151.536787 256.311447 
L 151.409934 256.046921 
L 151.224167 255.932938 
L 151.015045 255.849064 
L 150.465174 255.442596 
L 150.202976 255.302805 
L 149.431245 255.05871 
L 149.166925 255.023225 
L 148.494977 254.38449 
L 148.214734 254.218892 
L 148.03852 254.061896 
L 147.641508 253.616718 
L 147.436633 253.470475 
L 146.802901 253.201647 
L 146.323621 252.868301 
L 146.046562 252.72636 
L 145.771095 252.670444 
L 145.339053 252.72636 
L 145.281731 252.76077 
L 145.272177 252.620979 
L 145.357099 252.468285 
L 145.548174 252.21021 
L 145.605497 251.904822 
L 145.564097 251.642446 
L 145.490852 251.37792 
L 145.369837 250.045609 
L 145.314107 249.800438 
L 145.133117 249.276762 
L 145.075263 248.829432 
L 145.020595 248.773516 
L 144.938326 248.749859 
L 144.835889 248.684265 
L 144.479746 248.232634 
L 144.017981 247.916493 
L 143.984543 247.878857 
L 143.804083 247.465938 
L 143.584878 247.30034 
L 143.375226 247.235821 
L 142.868346 247.149796 
L 142.559972 247.048717 
L 142.436835 246.969144 
L 142.209137 246.768061 
L 141.9894 246.627195 
L 141.928893 246.600312 
L 139.761783 246.068033 
L 139.264988 245.846519 
L 138.844623 245.509946 
L 138.237959 244.803467 
L 137.922685 244.510982 
L 137.211992 244.102364 
L 136.931748 243.98408 
L 136.635582 243.906657 
L 135.818205 243.845365 
L 135.710991 243.794825 
L 135.64093 243.663637 
L 135.658445 243.384056 
L 135.629784 243.245341 
L 135.451447 243.074367 
L 134.923337 242.77543 
L 134.812938 242.659296 
L 134.679185 242.435632 
L 134.368157 242.296917 
L 133.743979 242.154976 
L 133.42552 241.962495 
L 133.365544 241.729152 
L 133.373505 241.472153 
L 133.254083 241.216229 
L 132.527467 240.386089 
L 132.229178 240.179629 
L 132.082156 240.135541 
L 131.961142 240.135541 
L 131.852335 240.121562 
L 131.735567 240.035537 
L 131.600753 239.844132 
L 131.511584 239.766709 
L 131.379955 239.735525 
L 131.298217 239.696814 
L 131.015851 239.510785 
L 130.886344 239.448417 
L 130.343373 239.358091 
L 129.585441 239.038724 
L 128.221097 239.055869 
L 127.060596 238.641934 
L 125.664686 237.654798 
L 123.422273 236.865441 
L 122.984327 236.406362 
L 122.408979 236.121404 
L 121.923329 235.786983 
L 121.696693 235.706334 
L 121.186098 235.717087 
L 120.941946 235.651493 
L 120.741848 235.528908 
L 120.553958 235.457937 
L 120.344306 235.55364 
L 120.233907 235.372988 
L 120.06937 234.824579 
L 119.955787 234.696617 
L 119.824688 234.637475 
L 119.445722 234.553601 
L 118.725475 234.199823 
L 117.92349 234.011644 
L 116.395921 233.495598 
L 115.387706 233.33735 
L 115.068328 233.558298 
L 115.073666 233.242523 
L 114.836035 233.051391 
L 114.712898 232.916977 
L 114.620545 232.838479 
L 114.146491 232.681025 
L 113.216674 232.264263 
L 112.831339 232.026619 
L 112.019487 231.468556 
L 111.110889 230.81605 
L 110.735882 230.488924 
L 110.731468 230.336711 
L 110.800085 230.178412 
L 110.69764 229.972802 
L 110.555953 229.79965 
L 110.158316 229.613299 
L 109.054952 229.018974 
L 108.850077 228.964133 
L 108.286405 228.889937 
L 108.073569 228.754447 
L 107.900791 228.557752 
L 107.859187 228.420115 
L 107.697759 228.313455 
L 107.381926 228.206932 
L 106.886445 228.318661 
L 106.427532 228.202374 
L 105.972379 228.038636 
L 105.402232 227.65763 
L 105.341195 227.581283 
L 105.307756 227.323208 
L 105.274318 227.18987 
L 105.206911 227.083414 
L 105.194494 226.901731 
L 105.123779 226.71545 
L 104.791854 226.596298 
L 104.142217 226.397222 
L 102.281339 225.596258 
L 101.365069 225.102346 
L 100.108446 224.595624 
L 99.833413 224.222437 
L 98.39243 223.486498 
L 98.036287 223.206917 
L 97.860604 223.153151 
L 97.666344 223.18111 
L 97.577176 223.219821 
L 97.484823 223.200465 
L 97.277825 223.054223 
L 96.882406 222.625174 
L 96.735915 222.512266 
L 96.480086 222.432693 
L 96.222135 222.391831 
L 96.022568 222.310107 
L 95.941892 222.102572 
L 95.875015 222.049882 
L 95.649255 221.995899 
L 95.628727 221.897538 
L 95.648669 221.848254 
L 95.829577 221.758973 
L 96.092671 221.690334 
L 96.141997 221.512857 
L 95.943484 221.226194 
L 95.563987 220.992851 
L 95.035877 220.770262 
L 94.687165 220.421861 
L 94.939809 220.434765 
L 95.083646 220.360568 
L 95.140438 220.228305 
L 95.124515 220.069159 
L 95.066131 219.947649 
L 94.974839 219.826139 
L 94.342168 219.241169 
L 94.082094 219.12181 
L 93.400593 219.026107 
L 93.209517 218.884166 
L 93.094872 218.658351 
L 92.978635 218.354038 
L 92.367195 217.47981 
L 92.274842 217.218509 
L 92.174527 217.088396 
L 91.707455 216.776556 
L 91.562025 216.632464 
L 91.540795 216.544289 
L 91.562025 216.128143 
L 91.512134 216.032441 
L 90.937316 215.592638 
L 89.864642 215.075414 
L 89.512054 214.889366 
L 89.243101 214.748093 
L 88.927312 214.546361 
L 88.35872 214.086801 
L 87.708147 213.774287 
L 87.663032 213.709769 
L 87.554756 213.637723 
L 87.425249 213.574279 
L 87.315912 213.548472 
L 87.170483 213.496857 
L 87.072822 213.374271 
L 86.994269 213.228029 
L 86.906162 213.096841 
L 86.813809 213.010816 
L 86.71721 212.940921 
L 86.173177 212.671018 
L 85.980509 212.479613 
L 86.024378 212.182103 
L 85.983596 211.872799 
L 85.952908 211.563506 
L 85.779351 211.284368 
L 85.554991 210.965531 
L 85.422472 210.886006 
L 85.382346 210.735963 
L 85.443159 210.616463 
L 85.534682 210.407005 
L 85.48111 210.291642 
L 85.328532 209.992214 
L 85.031503 209.84295 
L 84.590969 209.571971 
L 84.434924 209.423578 
L 84.183342 209.070876 
L 84.008189 208.890224 
L 83.873906 208.830006 
L 83.554917 208.797747 
L 83.42488 208.750433 
L 83.338365 208.651505 
L 83.20344 208.232138 
L 83.56136 208.192216 
L 83.663575 208.071531 
L 83.68403 207.940972 
L 83.592029 207.770091 
L 83.469408 207.518785 
L 83.389318 207.380487 
L 83.287942 207.095529 
L 83.130305 206.857886 
L 82.927554 206.758957 
L 82.713125 206.68261 
L 82.603787 206.501958 
L 82.533727 206.292272 
L 82.437658 206.126674 
L 82.265691 206.029896 
L 81.815721 205.852547 
L 81.794498 206.143257 
L 81.538485 206.554499 
L 81.287492 206.11162 
L 81.396791 205.761615 
L 81.387011 205.269684 
L 81.270508 204.969639 
L 81.407957 204.868252 
L 81.412222 204.657799 
L 81.58135 204.556431 
L 81.499519 204.415373 
L 81.530315 204.304962 
L 81.561234 204.164575 
L 81.438436 204.013185 
L 81.363922 203.788948 
L 81.517464 203.732999 
L 81.548328 203.404018 
L 81.457147 203.174147 
L 81.223906 203.034074 
L 81.190893 202.870632 
L 81.203631 202.776004 
L 81.24397 202.677076 
L 81.257769 202.584599 
L 81.190893 202.5018 
L 81.052364 202.469541 
L 80.96638 202.534059 
L 80.929977 202.746016 
L 80.838456 202.855665 
L 80.676176 202.795582 
L 80.453141 202.835009 
L 80.210166 202.694872 
L 79.937114 202.684155 
L 79.942536 202.339428 
L 79.974382 202.153399 
L 80.150491 201.731041 
L 80.292516 201.547842 
L 80.231892 201.378113 
L 80.353796 201.278535 
L 80.587069 201.328808 
L 80.826789 201.140456 
L 81.057141 201.147983 
L 81.216165 201.1701 
L 81.286995 201.31987 
L 81.154884 201.509232 
L 81.124226 201.688768 
L 81.246085 201.788757 
L 81.415937 201.875969 
L 81.661363 202.068514 
L 81.762958 201.928976 
L 81.773415 201.649696 
L 81.844711 201.370495 
L 82.037995 200.782114 
L 82.149943 200.383051 
L 82.142023 200.115685 
L 82.18873 199.758681 
L 82.340528 199.327481 
L 82.491265 198.911336 
L 82.711533 197.814519 
L 82.625549 196.829534 
L 82.518865 196.343493 
L 82.191887 195.410635 
L 81.498206 194.482129 
L 81.072015 194.082537 
L 80.23711 192.979919 
L 79.193724 191.633639 
L 78.771138 191.165691 
L 78.671989 190.845702 
L 78.482403 190.556168 
L 78.339025 189.974593 
L 78.401656 189.507727 
L 78.342173 188.967279 
L 78.136876 188.623834 
L 78.002062 188.465763 
L 77.10507 187.704443 
L 76.857734 187.391527 
L 76.304147 186.306538 
L 76.182602 186.132338 
L 76.197464 185.779636 
L 76.186848 185.655975 
L 76.084411 185.528013 
L 75.882926 185.326876 
L 75.473166 184.77197 
L 74.901364 184.388431 
L 74.65271 184.202826 
L 74.487341 183.850527 
L 74.756439 183.507503 
L 74.869886 183.011911 
L 74.759589 182.507608 
L 74.309005 182.13003 
L 73.940938 181.471638 
L 72.697605 180.777288 
L 71.950289 180.463297 
L 71.807513 180.45577 
L 71.759744 180.388025 
L 71.532046 180.172963 
L 71.450839 180.046076 
L 71.419524 179.861123 
L 71.455616 179.746065 
L 71.508693 179.646061 
L 71.532046 179.50412 
L 71.328233 178.981518 
L 70.871245 178.648172 
L 70.539517 178.547093 
L 70.29855 178.473971 
L 69.750271 178.422357 
L 69.860139 178.177186 
L 70.008753 177.987931 
L 70.139321 177.77717 
L 70.196113 177.462104 
L 70.128706 176.574972 
L 70.018307 176.276035 
L 69.920646 175.880321 
L 69.861732 175.749133 
L 69.661633 175.436217 
L 69.589449 175.164164 
L 69.665165 174.837626 
L 69.470377 174.523729 
L 69.470865 174.404979 
L 69.710331 174.438481 
L 69.85275 174.255681 
L 69.800237 173.986153 
L 69.482766 173.394201 
L 69.425443 173.113545 
L 69.280545 172.80063 
L 69.091062 172.546856 
L 68.900518 172.443626 
L 68.731735 172.383409 
L 68.585244 172.243618 
L 68.361792 171.951134 
L 68.317738 171.861883 
L 68.40903 171.736072 
L 68.406376 171.623164 
L 68.354892 171.519934 
L 68.131971 171.261859 
L 67.952573 170.929588 
L 67.851728 170.783346 
L 67.734429 170.720978 
L 67.592715 170.680116 
L 67.4924 170.579037 
L 67.329986 170.352146 
L 67.103881 170.203753 
L 66.542863 169.951055 
L 66.118252 169.594052 
L 64.094448 168.519816 
L 63.759536 168.268193 
L 63.589032 168.121748 
L 63.620426 167.957723 
L 63.592157 167.651973 
L 63.525989 167.390726 
L 63.616718 167.309222 
L 63.57976 167.197202 
L 63.685648 167.085994 
L 63.805903 167.079232 
L 63.963391 167.117388 
L 64.083713 167.043577 
L 64.234157 166.992267 
L 64.287928 166.783921 
L 64.274792 166.441011 
L 64.096786 166.134519 
L 63.962828 165.939912 
L 64.038986 165.784028 
L 63.770194 165.483995 
L 63.831224 165.350306 
L 63.696962 165.117844 
L 63.757825 165.006572 
L 63.646311 164.751878 
L 63.405763 164.450318 
L 63.459052 164.338725 
L 63.59491 164.212703 
L 63.476532 163.943696 
L 63.365658 163.734228 
L 63.381819 163.56288 
L 63.285339 163.301536 
L 63.144333 163.069601 
L 62.95119 162.814994 
L 62.75033 162.515529 
L 62.781434 162.306925 
L 62.445363 162.043216 
L 62.207685 161.824924 
L 62.209034 161.630984 
L 62.277495 161.511811 
L 62.05478 161.20498 
L 62.070449 161.108165 
L 61.694863 160.757144 
L 61.496433 160.61292 
L 61.420989 160.456057 
L 61.346151 160.313041 
L 61.245836 160.200133 
L 60.964001 159.94851 
L 60.136058 158.529772 
L 60.167394 158.380787 
L 59.997541 158.059316 
L 59.743774 157.861331 
L 59.398777 157.572073 
L 59.427428 157.362806 
L 59.285761 157.070899 
L 59.046989 156.755589 
L 58.844659 156.499987 
L 58.819183 156.374176 
L 58.924814 156.248556 
L 58.903999 156.099721 
L 58.755491 155.95803 
L 58.25991 155.637807 
L 58.239925 155.384465 
L 58.229018 155.035067 
L 57.984821 154.83218 
L 57.871931 154.711576 
L 57.844277 154.502375 
L 57.741974 154.225862 
L 57.804317 154.069644 
L 57.677991 153.882653 
L 57.619057 153.703471 
L 57.365908 153.418356 
L 56.814735 152.914347 
L 56.697776 152.645231 
L 56.609437 152.510484 
L 56.602909 152.376208 
L 56.71513 152.354659 
L 56.79683 152.280164 
L 56.775372 152.115764 
L 56.656749 151.958131 
L 56.694551 151.876228 
L 56.673458 151.719509 
L 56.66673 151.607489 
L 56.458534 151.321702 
L 56.40541 151.011289 
L 56.332851 150.869008 
L 56.21902 150.689551 
L 56.182465 150.555052 
L 56.046612 150.50183 
L 56.002111 150.441798 
L 55.927298 150.418837 
L 55.905407 150.344051 
L 55.928449 150.277078 
L 56.004118 150.195604 
L 55.989732 150.053425 
L 56.000948 149.898476 
L 55.988692 149.734088 
L 55.92925 149.527386 
L 55.836362 149.40706 
L 55.814748 149.181933 
L 55.871707 148.914843 
L 55.989113 148.734053 
L 55.995227 148.321007 
L 55.480111 147.856176 
L 55.059956 147.371403 
L 54.976299 147.060748 
L 54.755914 146.830499 
L 54.65116 146.592321 
L 54.519993 146.459427 
L 54.364054 146.185935 
L 54.16278 145.964368 
L 54.103669 145.559355 
L 54.186681 145.191344 
L 53.939328 145.056354 
L 53.88889 144.836482 
L 53.900416 144.652755 
L 53.777984 144.464029 
L 53.693062 144.144662 
L 53.800265 143.962151 
L 53.964848 143.797343 
L 53.858728 143.585296 
L 53.68809 143.583146 
L 53.416508 143.378599 
L 53.357834 143.017648 
L 53.396144 142.798653 
L 53.496115 142.694942 
L 53.577754 142.617343 
L 53.434615 142.562226 
L 53.318964 142.410768 
L 53.209536 142.337064 
L 53.13629 142.169315 
L 52.970161 142.106947 
L 52.789701 142.125227 
L 52.675056 142.196198 
L 52.381197 141.863003 
L 52.364674 141.739981 
L 52.339601 141.590556 
L 52.217317 141.510501 
L 52.117223 141.395091 
L 52.236546 141.308765 
L 52.351578 141.213225 
L 52.501227 141.179451 
L 52.60011 140.917082 
L 52.619868 140.653955 
L 52.499568 140.336853 
L 52.255079 140.185536 
L 52.000646 140.11259 
L 51.806725 140.189847 
L 51.701869 140.26007 
L 51.65806 140.365706 
L 51.717747 140.470922 
L 51.723867 140.636948 
L 51.783998 140.90133 
L 51.773067 141.058877 
L 51.625147 141.01408 
L 51.452721 140.65278 
L 51.200209 140.360656 
L 51.015884 140.164866 
L 51.025805 140.024356 
L 50.97362 139.953552 
L 51.035656 139.892623 
L 51.237276 139.964843 
L 51.545315 140.056577 
L 51.624069 139.950884 
L 51.687188 139.793656 
L 51.690316 139.526186 
L 51.578408 139.209556 
L 51.439579 139.015241 
L 51.265397 138.8557 
L 51.089722 138.845446 
L 50.851919 138.878617 
L 50.738423 138.789829 
L 50.617171 138.578008 
L 50.636741 138.358598 
L 50.726628 138.13982 
L 50.789492 138.008647 
L 50.676341 137.893479 
L 50.360767 137.776447 
L 50.353145 137.635829 
L 50.458664 137.663177 
L 50.521035 137.575931 
L 50.523387 137.28608 
L 50.446945 136.951503 
L 50.342937 136.748336 
L 50.195726 136.474491 
L 50.091818 136.28011 
L 49.899877 136.049442 
L 49.631654 135.676586 
L 49.018253 134.860859 
L 49.045835 134.738039 
L 49.047027 134.615046 
L 49.144675 134.501683 
L 49.295417 134.397164 
L 49.325491 134.019773 
L 49.266635 133.712164 
L 49.295017 133.510448 
L 49.201197 133.167353 
L 49.083106 132.657064 
L 48.690079 132.108704 
L 48.29519 131.599006 
L 47.779818 131.110815 
L 47.483652 130.889301 
L 47.074433 130.730155 
L 46.88495 130.573159 
L 46.722996 130.373761 
L 46.794322 130.207621 
L 46.926748 130.226895 
L 46.99607 130.262511 
L 47.162636 130.140854 
L 47.226485 129.869319 
L 47.220453 129.597285 
L 46.417427 128.407262 
L 46.39398 128.117414 
L 46.074778 127.684208 
L 46.129775 127.491847 
L 45.704331 127.004862 
L 44.32339 125.803567 
L 44.317743 125.478808 
L 43.546974 124.957884 
L 42.034296 123.808376 
L 41.355999 123.042758 
L 40.933795 122.422752 
L 40.782239 121.876296 
L 40.142848 121.149326 
L 39.988731 121.00289 
L 39.865989 120.865429 
L 39.928289 120.769507 
L 40.086373 120.718478 
L 40.245585 120.570836 
L 40.265858 120.31651 
L 40.094247 119.998725 
L 39.627174 119.247521 
L 38.696936 117.955568 
L 38.345485 117.531785 
L 38.320368 117.213846 
L 38.253024 116.967222 
L 38.264278 116.84036 
L 38.405097 116.688013 
L 38.459589 116.513062 
L 38.314772 116.124921 
L 38.160583 115.780362 
L 38.172379 115.534754 
L 37.950892 114.925505 
L 37.534198 114.467768 
L 37.024554 113.944006 
L 36.851899 113.757664 
L 36.933843 113.477545 
L 36.955293 113.135336 
L 36.705436 112.816448 
L 35.319828 111.417858 
L 34.64418 110.741552 
L 34.49791 110.46707 
L 33.792589 109.865892 
L 33.612152 109.4503 
L 33.564744 109.028337 
L 33.360428 108.595786 
L 33.050945 108.205879 
L 32.840398 107.981946 
L 31.348553 106.788929 
L 30.689653 106.367438 
L 29.011325 105.386149 
L 26.896738 104.305355 
L 23.408057 102.545299 
L 22.58801 102.152083 
L 21.771446 101.356712 
L 20.820014 100.694566 
L 19.674407 100.029732 
L 18.532233 99.144395 
L 18.149337 98.648802 
L 17.880513 97.873332 
L 17.91157 97.346572 
L 17.907044 96.77024 
L 17.896222 96.647127 
L 18.167586 96.419019 
L 18.243513 96.16194 
L 18.305308 96.076756 
L 18.598924 96.059003 
L 18.73664 95.754381 
L 18.751173 95.545278 
L 18.87481 95.374834 
L 19.105636 95.39054 
L 19.356331 95.788649 
L 19.730913 95.966723 
L 20.22619 96.156697 
L 20.639191 96.221268 
L 21.115818 95.742754 
L 21.629477 94.808653 
L 21.731227 93.57353 
L 21.40507 92.56147 
L 20.744935 91.107295 
L 20.350449 90.661095 
L 19.134475 89.470464 
L 18.913918 89.19274 
L 18.623564 89.115077 
L 18.452189 89.173426 
L 18.138965 88.948043 
L 17.866479 88.515588 
L 17.531036 88.130626 
L 17.266716 87.72846 
L 17.331112 87.59887 
L 17.418002 87.489585 
L 17.589782 87.417943 
L 17.690493 87.150037 
L 17.643604 87.002631 
L 17.53612 86.866388 
L 17.550896 86.694946 
L 17.734469 86.648116 
L 17.676716 86.414738 
L 17.619889 86.132224 
L 17.732436 85.937633 
L 17.938973 85.964853 
L 18.171315 85.833496 
L 18.387231 86.05671 
L 18.776153 86.025392 
L 18.973996 85.734535 
L 19.029242 85.269966 
L 18.746622 84.641574 
L 18.315444 84.19455 
L 17.906766 83.882429 
L 17.597199 83.41234 
L 17.383776 83.017015 
L 16.941597 82.42175 
L 15.896959 81.288435 
L 15.452524 80.728004 
L 15.516045 80.544903 
L 15.676474 80.462265 
L 15.87391 80.269012 
L 15.839205 80.009094 
L 15.726969 79.709864 
L 15.83896 79.033494 
L 15.844798 78.824883 
L 15.771022 78.58724 
L 15.646823 78.317336 
L 15.565086 78.063563 
L 15.618693 77.86463 
L 15.75563 77.742045 
L 15.846391 77.676451 
L 15.924944 77.601179 
L 16.023135 77.452786 
L 16.209433 77.003306 
L 16.21421 76.702219 
L 16.023135 75.96133 
L 16.086296 75.700029 
L 16.233848 75.387113 
L 16.411654 75.100005 
L 16.558145 74.919353 
L 17.695042 74.135451 
L 17.990678 73.828988 
L 18.233768 73.393487 
L 18.416351 73.187027 
L 18.663156 73.099927 
L 18.899346 73.04401 
L 19.04053 72.897768 
L 19.245935 72.467644 
L 19.948136 71.396634 
L 20.356825 70.964359 
L 20.849374 70.574021 
L 21.382792 70.270783 
L 21.580236 70.083679 
L 21.658259 69.806248 
L 21.693289 69.509463 
L 21.781396 69.232032 
L 22.014932 68.768573 
L 22.365236 68.322319 
L 22.83337 67.935207 
L 24.902289 66.686771 
L 25.274355 66.32224 
L 25.825819 65.503928 
L 25.904903 65.228649 
L 26.009994 65.185636 
L 26.140562 65.16413 
L 26.256799 65.09531 
L 26.459551 65.015737 
L 27.366627 65.045846 
L 27.616617 64.98993 
L 27.884122 64.877022 
L 28.096428 64.702822 
L 28.184535 64.467328 
L 28.220627 64.322161 
L 28.393656 64.0243 
L 28.450979 63.880208 
L 28.45522 63.751309 
L 28.544253 63.798281 
L 28.756585 63.910263 
L 29.250678 64.042731 
L 29.434363 64.186124 
L 29.406726 64.416918 
L 29.327185 64.691413 
L 29.356508 64.967273 
L 29.435711 65.041018 
L 29.650739 65.13115 
L 29.734324 65.226745 
L 29.765331 65.344191 
L 29.765668 65.473927 
L 29.741402 65.726572 
L 29.639954 66.083005 
L 29.638943 66.185428 
L 29.722865 66.276927 
L 29.851612 66.319262 
L 29.964856 66.372522 
L 30.000245 66.496796 
L 30.002267 66.644285 
L 30.077089 66.89693 
L 30.092593 67.041688 
L 30.072033 67.17279 
L 29.987101 67.429531 
L 29.96553 67.545611 
L 29.96553 67.678079 
L 29.978001 67.780502 
L 30.057878 68.027684 
L 30.071022 68.15742 
L 30.027545 68.259843 
L 29.971934 68.351342 
L 29.947667 68.452399 
L 30.008671 68.7187 
L 30.270547 69.14205 
L 30.385813 69.408351 
L 30.402328 69.527162 
L 30.402328 69.771613 
L 30.43738 69.884961 
L 30.55096 70.018795 
L 30.667912 70.095271 
L 30.746778 70.173112 
L 30.746473 70.188866 
L 30.744082 70.312408 
L 30.536805 70.548665 
L 29.520307 71.021178 
L 29.334937 71.253338 
L 29.145523 71.559242 
L 28.926114 71.833737 
L 28.653789 71.968936 
L 28.409101 71.918407 
L 27.858723 71.619331 
L 27.589432 71.533295 
L 27.323848 71.518273 
L 27.059949 71.537392 
L 26.819306 71.608406 
L 26.6245 71.749067 
L 26.482271 71.962108 
L 26.330942 72.281669 
L 26.218372 72.61352 
L 26.217313 72.624603 
L 26.194106 72.86753 
L 26.259491 73.031408 
L 26.474182 73.330484 
L 26.544959 73.499824 
L 26.549341 73.624098 
L 26.499123 73.875377 
L 26.498111 73.998285 
L 26.774143 74.582781 
L 27.229141 74.631944 
L 27.794012 74.462604 
L 28.395957 74.387494 
L 28.252043 74.679742 
L 26.527097 76.997242 
L 26.478226 77.222573 
L 26.592481 77.499799 
L 26.769425 77.659579 
L 27.354518 77.995528 
L 27.571232 78.074736 
L 27.802775 78.067907 
L 27.905571 78.058348 
L 28.030948 77.943634 
L 28.565149 77.654117 
L 29.568166 76.875699 
L 29.77342 76.651733 
L 29.870823 76.44279 
L 30.004626 75.979836 
L 30.115511 75.794108 
L 30.225047 75.705341 
L 30.359187 75.638425 
L 30.501753 75.589261 
L 31.033258 75.519613 
L 31.070332 75.505957 
L 31.15358 75.64935 
L 31.37063 75.717632 
L 31.636214 75.766795 
L 31.86068 75.848734 
L 32.09593 76.052215 
L 32.517898 76.5179 
L 32.781123 76.704993 
L 33.134336 76.900281 
L 33.473393 76.94125 
L 33.808406 76.945347 
L 34.150834 77.032748 
L 34.481466 77.341384 
L 34.755475 77.755175 
L 35.079703 78.093855 
L 35.564023 78.170331 
L 36.439978 77.897202 
L 36.889583 77.626804 
L 37.361095 77.562619 
L 37.721723 77.744249 
L 38.38029 78.40249 
L 38.482074 78.451654 
L 38.668118 78.59095 
L 38.748332 78.63465 
L 39.062449 78.631919 
L 39.327696 78.788968 
L 39.400495 78.913242 
L 39.367803 79.107163 
L 39.067167 79.647959 
L 39.058405 79.932013 
L 39.43858 80.494659 
L 39.588561 81.278539 
L 39.929978 81.928586 
L 39.932761 81.945638 
L 39.972781 82.19079 
L 40.066477 82.470748 
L 40.291617 82.652378 
L 40.560571 82.795771 
L 40.787058 82.965111 
L 40.857499 83.082557 
L 40.942432 83.343395 
L 41.012198 83.456743 
L 41.125779 83.540048 
L 41.38024 83.637009 
L 41.495169 83.713485 
L 41.667395 83.964763 
L 41.80659 84.244038 
L 41.988589 84.466638 
L 42.287876 84.547211 
L 42.895517 84.524796 
L 43.213375 84.51307 
L 43.442559 84.551308 
L 43.878683 84.705626 
L 44.106519 84.75752 
L 44.239311 84.752058 
L 44.449958 84.698798 
L 44.585109 84.715185 
L 44.725652 84.782102 
L 44.868218 84.887257 
L 45.109873 85.128976 
L 45.486004 84.813512 
L 45.822702 84.451616 
L 45.916398 84.17439 
L 46.060986 83.530488 
L 46.200182 83.313351 
L 46.462058 83.246434 
L 46.80516 83.243703 
L 47.107144 83.17542 
L 47.245328 82.913217 
L 47.178595 82.597753 
L 46.884363 82.003697 
L 46.874926 81.641801 
L 47.021874 81.278539 
L 47.265887 80.938494 
L 47.860417 80.384042 
L 48.405403 80.072675 
L 49.599856 79.590602 
L 49.740439 79.496566 
L 50.095972 79.25875 
L 50.213598 79.045709 
L 50.229438 78.791699 
L 50.217305 78.52813 
L 50.251009 78.285045 
L 50.439411 77.977775 
L 50.640958 77.727862 
L 50.67601 77.514821 
L 50.365938 77.323631 
L 50.207194 77.070986 
L 50.102039 76.58072 
L 50.086198 76.084991 
L 50.194387 75.807765 
L 50.434356 75.605649 
L 50.546925 75.347542 
L 50.671291 74.769874 
L 51.466358 73.087399 
L 51.60589 72.501538 
L 51.593083 71.714926 
L 51.656109 71.497788 
L 51.7889 71.358492 
L 51.934163 71.320254 
L 52.092232 71.307964 
L 52.26075 71.254703 
L 52.442749 71.153646 
L 52.496674 71.09902 
L 52.495663 71.007522 
L 52.624411 70.02972 
L 52.71777 69.777075 
L 52.852247 69.5217 
L 52.931113 69.461611 
L 53.091879 69.385135 
L 53.195349 69.318219 
L 53.51351 69.00412 
L 53.59305 68.75011 
L 53.426218 67.896582 
L 53.425544 67.729973 
L 53.432958 67.661691 
L 53.494973 67.639841 
L 53.661131 67.611162 
L 53.760557 67.534686 
L 53.768983 67.406315 
L 53.71472 67.137283 
L 53.708653 66.662039 
L 53.738986 66.405297 
L 53.826616 66.133534 
L 54.066922 65.603664 
L 54.084932 65.546363 
L 54.253639 65.009608 
L 54.353402 64.438768 
L 54.361154 64.29401 
L 54.281613 64.034537 
L 54.26948 63.949867 
L 54.412046 63.699954 
L 54.631456 63.633037 
L 54.904791 63.671276 
L 55.47 63.831056 
L 55.633125 63.963524 
L 55.730865 64.161542 
L 55.911179 65.010974 
L 56.035882 65.251327 
L 56.213499 65.165291 
L 56.420102 64.994586 
L 56.651308 64.944057 
L 56.852181 64.858021 
L 56.972166 64.587623 
L 56.944529 64.224362 
L 56.78073 64.034537 
L 56.575138 63.887048 
L 56.424483 63.646694 
L 56.425832 63.357177 
L 56.579857 63.170084 
L 57.055076 62.812285 
L 57.216179 62.577394 
L 57.619273 61.794879 
L 57.802621 61.591398 
L 58.432877 61.061528 
L 59.751358 59.272532 
L 60.711909 58.423101 
L 60.957271 58.296096 
L 61.46138 58.117785 
L 61.822103 57.990191 
L 63.462117 57.409792 
L 65.102804 56.829393 
L 66.742818 56.247628 
L 68.382831 55.667229 
L 70.022845 55.085464 
L 71.664207 54.505065 
L 73.30422 53.924666 
L 74.944908 53.342901 
L 76.146102 52.918185 
L 76.340843 52.798586 
L 76.919935 52.442941 
L 77.658716 51.86937 
L 78.437267 51.265754 
L 79.215819 50.662139 
L 79.993696 50.05989 
L 80.772922 49.454909 
L 81.550799 48.851294 
L 82.330025 48.249044 
L 83.107902 47.645429 
L 83.885779 47.041814 
L 84.537606 46.272956 
L 85.188758 45.505463 
L 85.840584 44.736605 
L 86.491736 43.967746 
L 87.142888 43.198888 
L 87.795051 42.43003 
L 88.446204 41.661172 
L 89.097019 40.893679 
L 89.62212 40.273676 
L 90.338657 39.600413 
L 90.5448 39.347993 
L 90.645359 39.224861 
L 90.814887 38.766004 
L 91.00666 38.002608 
L 91.398295 36.445773 
L 91.78993 34.887571 
L 92.181565 33.32937 
L 92.5732 31.772535 
L 92.738348 31.119756 
L 92.818899 31.003676 
L 93.188627 31.347819 
L 93.366581 31.555397 
L 93.442414 31.687865 
L 93.571162 31.794385 
L 93.868427 31.801213 
L 94.422176 31.734297 
L 95.03895 31.734297 
L 95.155564 31.726103 
L 95.152531 31.637336 
L 95.057824 31.506234 
L 94.932784 31.395617 
L 94.832011 31.245396 
L 94.808081 31.122488 
L 94.828977 30.894425 
L 94.824933 30.775614 
L 94.245569 28.781772 
L 94.250962 28.616529 
L 94.333872 28.378906 
L 94.361509 28.243707 
L 94.354769 28.109874 
L 94.298821 27.866789 
L 94.285339 27.737053 
L 94.344658 27.580004 
L 94.483853 27.485774 
L 94.641923 27.403836 
L 94.759211 27.278196 
L 94.786174 27.160751 
L 94.767974 27.061059 
L 94.737641 26.965464 
L 94.726856 26.856212 
L 94.7673 26.337267 
L 94.719441 26.092816 
L 94.571482 25.857925 
L 94.512838 25.837441 
L 94.390494 25.901626 
L 94.324436 25.887969 
L 94.27388 25.82515 
L 94.206473 25.673563 
L 94.150862 25.612109 
L 93.642276 25.211975 
L 93.589025 25.134133 
L 93.51454 25.091798 
L 93.353774 25.105455 
L 93.219971 25.082239 
L 93.072012 24.989375 
L 92.82901 24.757215 
L 92.455912 24.236904 
L 92.214595 23.67699 
L 91.796671 22.18434 
L 91.647701 21.991784 
L 91.439414 21.859316 
L 91.160686 21.766452 
L 90.999246 21.683148 
L 90.726247 21.42231 
L 90.56784 21.325349 
L 90.440778 21.307595 
L 90.161376 21.329446 
L 90.038358 21.302133 
L 89.920059 21.164203 
L 89.792659 20.906096 
L 89.729971 20.613848 
L 89.803107 20.384419 
L 89.993532 20.320234 
L 90.228109 20.383054 
L 90.466056 20.480014 
L 90.669625 20.519618 
L 90.902854 20.495037 
L 91.085864 20.497768 
L 91.262133 20.540103 
L 92.181565 21.041295 
L 92.517589 21.07407 
L 92.86878 20.837813 
L 92.977643 20.828254 
L 93.423877 20.892439 
L 93.632165 20.881514 
L 93.805738 20.822791 
L 93.972571 20.739487 
L 94.267477 20.527812 
L 94.422176 20.325696 
L 94.619678 20.256049 
L 94.825944 20.094902 
L 94.987721 19.899615 
L 95.053106 19.730275 
L 95.097594 19.4749 
L 95.222972 19.339701 
L 95.42317 19.296 
L 95.68471 19.324679 
L 96.271825 19.485825 
L 96.546172 19.626486 
L 96.79423 19.824505 
L 97.307198 20.538737 
L 97.458189 20.686227 
L 97.569074 20.725831 
L 97.797921 20.731293 
L 97.919591 20.768166 
L 98.001153 20.830985 
L 98.53468 21.418213 
L 98.70859 21.554777 
L 98.987992 21.679051 
L 99.433216 21.776012 
L 99.64993 21.855219 
L 99.780362 21.844294 
L 99.926973 21.728214 
L 100.252212 21.201075 
L 100.407248 21.164203 
L 100.680583 21.408653 
L 100.86629 21.673588 
L 101.311513 22.588571 
L 100.952571 22.864431 
L 100.850112 23.041965 
L 101.080981 23.122538 
L 101.215458 23.13756 
L 101.472279 23.204477 
L 101.796844 23.235886 
L 101.878744 23.27549 
L 101.933344 23.332847 
L 102.023669 23.40113 
L 102.090065 23.465315 
L 102.130846 23.532231 
L 102.208364 23.581395 
L 102.388678 23.589589 
L 102.4544 23.556813 
L 102.536637 23.493993 
L 102.645162 23.429808 
L 102.785706 23.40113 
L 102.910746 23.502187 
L 103.279462 24.130384 
L 103.828156 24.717612 
L 104.167887 24.989375 
L 104.95992 25.471448 
L 105.114619 25.608012 
L 105.286844 25.803299 
L 105.400088 25.987662 
L 105.469855 26.017706 
L 105.647472 26.024534 
L 105.712183 26.081891 
L 105.740157 26.214359 
L 105.754477 26.36074 
L 105.754986 26.365945 
L 105.781275 26.484756 
L 106.404453 27.846305 
L 106.373446 27.939169 
L 106.205603 28.085293 
L 106.145273 28.198641 
L 106.140218 28.451286 
L 106.23088 28.643841 
L 106.672733 29.139571 
L 106.761037 29.199659 
L 106.887425 29.237897 
L 107.112901 29.244725 
L 107.214349 29.289792 
L 107.112564 29.501467 
L 107.187723 29.655785 
L 107.321189 29.79508 
L 107.392641 29.961689 
L 107.314449 30.107813 
L 107.132787 30.107813 
L 106.922814 30.070941 
L 106.761037 30.100985 
L 106.671385 30.256668 
L 106.750926 30.376845 
L 107.076502 30.59808 
L 107.206597 30.774248 
L 107.392641 31.372401 
L 107.684513 31.758878 
L 108.030985 31.951434 
L 108.8092 32.094827 
L 109.603592 32.402097 
L 109.959164 32.391172 
L 110.161048 32.004694 
L 110.310355 32.14399 
L 110.615709 33.064435 
L 110.678734 33.177784 
L 110.784564 33.266551 
L 110.944992 33.334833 
L 111.01914 33.314348 
L 111.087221 33.246066 
L 111.229787 33.177784 
L 111.276972 33.120426 
L 111.322809 33.035756 
L 111.388531 33.00025 
L 111.497056 33.094479 
L 111.511886 33.203731 
L 111.389879 33.435891 
L 111.408079 33.545142 
L 111.58637 33.642103 
L 111.993509 33.549239 
L 112.208875 33.628447 
L 112.28437 33.751355 
L 112.484569 34.275762 
L 112.719483 34.648583 
L 112.846545 34.786514 
L 113.027196 34.90669 
L 113.375354 35.030964 
L 113.583978 35.07603 
L 113.739689 35.080127 
L 113.957414 34.955854 
L 114.167049 34.621271 
L 114.363541 34.547526 
L 114.472403 34.785148 
L 114.655077 34.985898 
L 114.90246 35.126559 
L 115.205118 35.178454 
L 115.349706 35.220789 
L 115.598101 35.406517 
L 115.904803 35.496649 
L 115.97221 35.614095 
L 116.005914 35.760219 
L 116.100621 35.965065 
L 116.120506 36.109824 
L 116.144098 36.169912 
L 116.196676 36.182203 
L 116.370249 36.157621 
L 116.419119 36.169912 
L 116.460237 36.265507 
L 116.485178 36.376125 
L 116.500682 36.66291 
L 116.525622 36.753043 
L 116.586963 36.859563 
L 116.66111 36.946964 
L 116.865354 37.04256 
L 116.802328 37.181855 
L 116.597748 37.433134 
L 116.718069 37.633884 
L 117.201715 37.863312 
L 117.347314 38.094106 
L 117.622335 38.298953 
L 117.723108 38.44098 
L 117.747712 38.572082 
L 117.745353 38.711378 
L 117.763553 38.884815 
L 117.900726 39.436536 
L 117.887919 39.68918 
L 117.571106 39.879005 
L 117.458873 40.079755 
L 117.31024 40.516761 
L 117.281929 41.027512 
L 117.543469 41.355267 
L 118.386731 41.878309 
L 118.405605 41.927472 
L 118.448745 42.105006 
L 118.467619 42.150073 
L 118.528286 42.160998 
L 118.671863 42.141879 
L 118.857232 42.163729 
L 119.001483 42.156901 
L 119.159216 42.178751 
L 119.322341 42.283906 
L 119.635784 42.572057 
L 119.76925 42.592542 
L 119.868338 42.446418 
L 120.078648 42.23884 
L 120.278847 42.214258 
L 120.716319 42.328972 
L 120.799229 42.283906 
L 120.852481 41.934301 
L 120.985947 41.934301 
L 121.334441 42.330338 
L 121.459818 42.421836 
L 121.581151 42.475096 
L 121.690351 42.54611 
L 121.778654 42.690868 
L 121.682262 43.1825 
L 121.751691 43.365497 
L 122.059741 43.732855 
L 122.135237 43.95409 
L 122.106252 44.075632 
L 121.975482 44.407484 
L 121.957282 44.593212 
L 122.007164 44.80079 
L 122.095467 44.974227 
L 122.321955 45.314273 
L 122.410258 45.561454 
L 122.481709 45.864628 
L 122.583494 46.141854 
L 122.759426 46.308462 
L 122.375206 46.94895 
L 122.252525 47.235735 
L 121.778654 47.668645 
L 121.660691 47.812038 
L 121.618225 47.899439 
L 121.601373 48.030541 
L 121.628336 48.160277 
L 121.751691 48.361027 
L 121.778654 48.440235 
L 121.819772 48.505785 
L 121.997727 48.643716 
L 122.038845 48.714729 
L 122.102882 49.109401 
L 122.135237 49.210458 
L 122.349592 49.356582 
L 122.918507 49.499975 
L 123.034447 49.617421 
L 123.114662 49.898744 
L 123.285875 49.741694 
L 123.440238 49.442618 
L 123.471919 49.300591 
L 124.370455 49.800417 
L 124.412921 49.875528 
L 124.602335 50.043502 
L 124.824104 50.653945 
L 124.948133 50.87518 
L 125.050592 50.958484 
L 125.171251 50.957119 
L 125.723989 50.845136 
L 125.903965 50.779585 
L 126.059676 50.627998 
L 126.432437 50.494165 
L 126.755991 50.330287 
L 126.973715 50.406764 
L 127.316817 50.653945 
L 127.351195 50.491434 
L 127.414557 50.368526 
L 127.520386 50.27293 
L 127.681489 50.195089 
L 127.7462 50.289318 
L 127.8008 50.405398 
L 127.837874 50.540597 
L 127.882362 50.886105 
L 127.959206 50.916149 
L 128.175583 50.842404 
L 128.34073 50.686721 
L 128.684506 49.96566 
L 128.847631 49.75262 
L 129.086926 49.789492 
L 129.31611 49.915131 
L 129.908618 50.399935 
L 130.154654 50.479143 
L 131.49201 50.692183 
L 131.608624 50.794607 
L 131.675357 50.954387 
L 131.848593 51.114168 
L 132.079125 51.238442 
L 132.321117 51.294433 
L 132.613663 51.269851 
L 133.13472 51.130556 
L 133.438052 51.09778 
L 133.549947 51.062273 
L 133.587021 50.969409 
L 133.575562 50.699012 
L 133.642969 50.644386 
L 133.978656 50.574738 
L 134.109426 50.563813 
L 134.95134 50.760466 
L 135.146146 50.699012 
L 135.721128 50.031211 
L 136.085801 49.71165 
L 136.449799 49.566892 
L 136.874463 49.561429 
L 137.692111 49.678875 
L 137.921969 49.621518 
L 138.082397 49.459006 
L 138.14239 49.165392 
L 138.238108 49.062969 
L 138.854208 48.57953 
L 139.325384 47.850276 
L 139.388746 47.713711 
L 139.52019 47.704152 
L 140.279193 47.217982 
L 140.563651 47.08688 
L 140.663414 47.157894 
L 140.643865 47.623579 
L 140.755761 47.847544 
L 141.008538 47.806575 
L 141.445335 47.578512 
L 141.753386 47.634504 
L 142.010206 47.790187 
L 142.252872 47.980012 
L 142.5225 48.127502 
L 143.273415 48.284551 
L 143.420362 48.397899 
L 143.483725 48.646447 
L 143.500576 49.198168 
L 143.590902 49.400283 
L 143.798516 49.501341 
L 143.898952 49.345657 
L 144.027699 48.849928 
L 144.209024 48.661469 
L 144.341816 48.709267 
L 144.570326 49.120326 
L 144.879725 49.517729 
L 144.92691 49.654293 
L 144.891184 49.766276 
L 144.711207 49.930153 
L 144.659304 50.031211 
L 144.806925 50.307072 
L 145.248441 50.212842 
L 146.181355 49.75262 
L 146.283814 49.93425 
L 146.525805 49.875528 
L 146.798129 49.730769 
L 146.991588 49.654293 
L 147.133816 49.687069 
L 147.290201 49.804514 
L 147.428385 49.850946 
L 147.569266 49.820902 
L 147.814628 49.62698 
L 148.184018 49.437155 
L 148.433424 48.81169 
L 148.731364 48.669663 
L 149.093339 48.605478 
L 149.264216 48.609574 
L 149.592826 48.808959 
L 149.755951 48.844465 
L 149.908965 48.826712 
L 150.027264 48.759795 
L 149.907617 48.423847 
L 149.878969 48.123405 
L 150.016479 47.937677 
L 150.391262 47.947237 
L 150.944337 48.184859 
L 151.271261 48.249044 
L 151.541227 48.127502 
L 151.937243 48.371952 
L 152.613336 49.101207 
L 153.063278 49.400283 
L 153.543553 49.57372 
L 153.785881 49.632443 
L 154.123591 49.676143 
L 154.190661 49.741694 
L 154.221668 49.845483 
L 154.222005 50.22923 
L 154.271549 50.255177 
L 154.682732 50.600685 
L 154.763284 50.744078 
L 154.780472 50.877911 
L 154.780135 51.060908 
L 154.803391 51.223419 
L 154.893042 51.294433 
L 155.430951 51.294433 
L 155.531724 51.239807 
L 155.543183 51.114168 
L 155.532398 50.965312 
L 155.565091 50.842404 
L 155.792926 50.69628 
L 155.963466 50.805532 
L 156.124232 50.995357 
L 156.326116 51.09778 
L 156.545526 51.126459 
L 156.792236 51.202935 
L 157.021083 51.317649 
L 157.184545 51.45831 
L 157.260378 51.601703 
L 157.306215 51.736902 
L 157.379351 51.848885 
L 157.532365 51.925361 
L 157.668191 51.914436 
L 157.974893 51.779237 
L 158.119481 51.745096 
L 158.399557 51.742365 
L 158.6766 51.772409 
L 158.841073 51.900779 
L 158.779733 52.187565 
L 158.715696 52.2299 
L 158.49359 52.31457 
L 158.431238 52.376024 
L 158.439327 52.488007 
L 158.502016 52.609549 
L 158.584252 52.70651 
L 158.649637 52.746114 
L 158.969147 52.658713 
L 159.230349 52.497566 
L 159.480766 52.412896 
L 159.766909 52.556289 
L 159.930708 52.80074 
L 160.114392 53.36202 
L 160.261003 53.598276 
L 160.502994 53.69114 
L 160.719708 53.588717 
L 160.941814 53.524532 
L 161.199983 53.729378 
L 161.238405 53.861846 
L 161.234024 53.995679 
L 161.256942 54.111759 
L 161.377601 54.181407 
L 161.49017 54.151363 
L 161.560611 54.040746 
L 161.619255 53.900084 
L 161.694077 53.778542 
L 161.960335 53.599642 
L 162.101552 53.696603 
L 162.269059 54.278368 
L 162.351633 54.473655 
L 162.460158 54.633436 
L 162.609802 54.752247 
L 162.682264 54.776828 
L 162.679905 54.787753 
L 162.387358 55.257535 
L 161.364119 56.874459 
L 160.34088 58.490018 
L 159.317978 60.108307 
L 158.294402 61.725231 
L 157.271163 63.342155 
L 156.247924 64.960445 
L 155.225359 66.576003 
L 154.20212 68.192927 
L 153.764311 68.885309 
L 154.331541 68.948129 
L 156.101314 69.887693 
L 156.240509 69.984653 
L 156.937161 70.159456 
L 157.284644 70.163553 
L 157.620332 70.017429 
L 158.132962 69.54355 
L 158.413713 69.371479 
L 158.780407 69.331875 
L 159.282252 69.509409 
L 159.771965 69.869939 
L 160.198314 70.323333 
L 160.510072 70.773996 
L 160.671849 71.238316 
L 160.745322 71.712195 
L 160.882833 72.147835 
L 161.23099 72.500172 
L 162.551157 73.181629 
L 162.942455 73.503921 
L 163.207028 73.815288 
L 163.434864 74.155334 
L 163.797514 74.890051 
L 163.828521 75.25741 
L 163.707862 75.609746 
L 163.478678 75.922479 
L 163.041544 76.243405 
L 162.857185 76.269353 
L 162.675523 76.221555 
L 162.514084 76.105475 
L 162.353992 75.942963 
L 162.28254 75.846003 
L 162.221874 75.516882 
L 162.079982 75.276529 
L 161.820465 75.178202 
L 161.528592 75.206881 
L 161.28896 75.335251 
L 161.119432 75.576971 
L 160.906762 76.076797 
L 160.65803 76.296666 
L 160.513105 76.110938 
L 160.408961 75.901994 
L 160.323017 75.77772 
L 160.220559 75.753139 
L 160.10563 75.757236 
L 159.980252 75.718998 
L 159.335841 75.204149 
L 159.209116 75.029347 
L 159.187208 74.790359 
L 159.305171 74.291898 
L 159.282252 74.022866 
L 159.183164 73.83031 
L 159.027791 73.656873 
L 158.86534 73.60771 
L 158.625708 73.987359 
L 158.465953 73.939562 
L 158.14004 73.645948 
L 157.922652 73.557181 
L 157.732227 73.538062 
L 157.545847 73.580397 
L 157.339918 73.675992 
L 156.806728 74.108902 
L 156.6099 74.174453 
L 156.474075 74.091149 
L 156.434979 73.897227 
L 156.373301 73.704671 
L 156.170069 73.624098 
L 155.962118 73.731984 
L 155.874826 73.957315 
L 155.819552 74.194938 
L 155.705971 74.335599 
L 155.089534 73.969606 
L 155.081108 73.771588 
L 155.127956 73.528503 
L 155.108745 73.337312 
L 154.903827 73.293612 
L 154.693517 73.379647 
L 154.574207 73.528503 
L 154.430293 73.930002 
L 154.287053 74.041985 
L 154.051465 74.036523 
L 153.240895 73.813923 
L 153.106418 73.83031 
L 152.484588 74.136215 
L 152.315734 74.289167 
L 152.274952 74.466701 
L 152.385837 74.787628 
L 152.347415 74.911901 
L 152.145194 74.980184 
L 151.943647 75.07851 
L 151.846918 75.275163 
L 151.775803 75.51142 
L 151.64773 75.727191 
L 151.257106 76.112303 
L 151.093981 76.325344 
L 150.973322 76.577988 
L 150.704705 76.85658 
L 150.430358 76.603936 
L 150.225104 76.35812 
L 150.166123 76.651733 
L 149.913683 76.863408 
L 149.232198 76.576623 
L 148.913026 76.704993 
L 148.736756 77.002704 
L 148.620142 77.075083 
L 148.416573 77.040942 
L 148.307373 76.94125 
L 148.168515 76.642174 
L 148.082908 76.558869 
L 147.867879 76.683143 
L 147.678465 76.993145 
L 147.503881 77.193894 
L 147.143928 76.786932 
L 146.841944 76.726844 
L 146.53322 76.796492 
L 146.32291 76.983585 
L 146.288532 77.140634 
L 146.316169 77.270371 
L 146.312799 77.408301 
L 146.185399 77.579006 
L 146.142259 77.570813 
L 146.068785 77.53394 
L 145.98183 77.514821 
L 145.900267 77.557156 
L 145.784327 77.71284 
L 145.736468 77.757906 
L 145.55784 77.833016 
L 145.454707 77.753809 
L 145.370448 77.614513 
L 145.248441 77.51209 
L 145.068464 77.491605 
L 144.465845 77.583103 
L 144.068818 77.5872 
L 143.874011 77.615879 
L 143.694035 77.692355 
L 143.606405 77.805704 
L 143.525517 78.096586 
L 143.453391 78.175793 
L 143.352281 78.168965 
L 143.023334 78.099317 
L 142.840661 78.117071 
L 142.246131 78.376543 
L 142.294664 78.097952 
L 142.16322 78.137555 
L 141.898311 78.40249 
L 141.732489 78.461213 
L 141.619246 78.472138 
L 141.516787 78.420244 
L 141.382647 78.286411 
L 141.174359 78.129361 
L 141.039545 78.170331 
L 140.890575 78.276851 
L 140.641169 78.313724 
L 140.494222 78.267292 
L 140.195609 78.127996 
L 140.058772 78.114339 
L 139.951595 78.168965 
L 139.916543 78.255001 
L 139.900366 78.345133 
L 139.852507 78.403856 
L 139.761507 78.431169 
L 138.685017 78.552711 
L 138.462573 78.615531 
L 138.12419 78.85725 
L 137.509438 79.4595 
L 137.123869 79.582408 
L 136.910863 79.768136 
L 136.788856 79.850074 
L 136.683701 79.876022 
L 136.553606 79.828224 
L 136.434295 79.768136 
L 136.324422 79.761307 
L 136.225333 79.870559 
L 135.992105 80.351266 
L 135.843135 80.542457 
L 135.594403 80.7514 
L 134.872474 81.155631 
L 134.21121 81.654092 
L 133.977308 81.792022 
L 133.739361 81.872595 
L 133.568821 81.879423 
L 133.080794 81.809775 
L 132.922388 81.850745 
L 132.858351 81.938146 
L 132.824647 82.036472 
L 132.755892 82.10612 
L 132.215962 82.256341 
L 132.075755 82.410659 
L 131.980711 83.13172 
L 131.843201 83.34476 
L 131.628846 83.496347 
L 131.348433 83.646568 
L 131.27833 83.662956 
L 131.098353 83.667053 
L 131.037012 83.690269 
L 130.997916 83.764014 
L 130.99185 83.844587 
L 130.99522 83.916966 
L 130.982413 83.966129 
L 130.914332 84.087671 
L 130.874561 84.201703 
L 130.793673 84.278179 
L 130.602911 84.285007 
L 130.358223 84.320514 
L 130.124321 84.427034 
L 129.918729 84.585449 
L 129.600568 84.935054 
L 129.238592 85.107126 
L 129.070075 85.2751 
L 129.013453 85.417127 
L 129.002668 85.544132 
L 128.96829 85.662943 
L 128.841565 85.779023 
L 128.718884 85.813164 
L 128.017176 85.813164 
L 127.745526 85.735322 
L 127.500838 85.706644 
L 127.336365 85.833649 
L 127.16987 86.050786 
L 126.943382 86.151844 
L 126.410866 86.255633 
L 126.342785 86.250171 
L 126.177638 86.195545 
L 126.112927 86.201007 
L 126.073157 86.267924 
L 126.064394 86.46048 
L 126.048216 86.512375 
L 125.866891 86.612067 
L 125.764433 86.633917 
L 125.593219 86.642111 
L 125.278428 86.72405 
L 125.22585 86.919337 
L 125.317524 87.151497 
L 125.439531 87.345418 
L 125.508286 87.550265 
L 125.579063 88.357361 
L 125.556145 88.567671 
L 125.442227 88.753398 
L 125.300672 88.930932 
L 125.199562 89.122123 
L 125.114629 89.688865 
L 125.058681 89.896443 
L 124.675135 90.710368 
L 124.553802 91.137815 
L 124.611098 91.574821 
L 124.72569 91.998171 
L 124.723668 92.368261 
L 124.509313 93.590514 
L 124.375173 93.978357 
L 124.190478 94.34435 
L 122.830204 96.170218 
L 122.381947 96.586739 
L 121.637099 98.258289 
L 121.353315 98.723974 
L 121.145702 99.216972 
L 121.138961 99.82605 
L 121.260294 100.146976 
L 121.890549 100.866671 
L 121.964023 101.094734 
L 122.100859 102.153109 
L 122.177029 102.456282 
L 122.462835 103.055801 
L 122.551813 103.363071 
L 122.551139 103.649856 
L 122.489124 103.94347 
L 122.280162 104.484266 
L 121.971438 105.029158 
L 121.612832 105.401979 
L 121.161205 105.645064 
L 120.575438 105.799382 
L 119.653309 105.808941 
L 119.372896 105.907268 
L 118.908461 106.326521 
L 118.39819 106.643351 
L 117.51381 107.412209 
L 116.461586 108.022652 
L 115.807063 108.551157 
L 115.443065 108.772392 
L 115.271851 108.919881 
L 115.116815 109.254464 
L 114.988741 109.418342 
L 114.443418 109.761119 
L 114.302201 109.918168 
L 114.222997 110.139402 
L 114.194012 110.867291 
L 113.873829 112.066328 
L 113.687111 112.439149 
L 113.611952 112.765538 
L 113.684676 112.963142 
L 113.726544 113.076905 
L 114.626766 114.379731 
L 114.757198 114.941011 
L 114.867409 115.189558 
L 114.906505 115.431278 
L 114.754502 115.697578 
L 114.539136 115.824583 
L 114.284675 115.864187 
L 113.769348 115.840971 
L 113.435683 115.864187 
L 113.206499 115.939298 
L 112.732627 116.228814 
L 112.442103 116.339432 
L 112.20146 116.323044 
L 111.671977 116.115466 
L 111.387183 116.115466 
L 111.432345 116.354454 
L 111.809151 116.997673 
L 111.890376 117.334987 
L 111.817914 117.552125 
L 111.714781 117.752874 
L 111.702648 118.038294 
L 111.536826 118.329177 
L 111.36643 118.400836 
L 110.923085 118.587284 
L 111.038014 118.819443 
L 111.563452 119.13081 
L 113.266828 120.926634 
L 113.627456 121.173816 
L 114.038976 121.354081 
L 114.526329 121.501571 
L 114.918638 121.819766 
L 115.044015 122.344174 
L 114.898416 122.852194 
L 114.475774 123.118494 
L 114.038976 122.96008 
L 113.842822 122.955983 
L 113.827992 123.194971 
L 113.96921 123.831361 
L 114.049424 124.012992 
L 114.444766 124.3148 
L 115.000201 124.5374 
L 115.494294 124.800969 
L 115.707975 125.227051 
L 115.7983 125.52203 
L 116.227009 126.106526 
L 116.367216 126.417893 
L 116.37463 126.673269 
L 116.301157 127.166267 
L 116.338905 127.414814 
L 116.504052 127.720719 
L 116.880857 128.221911 
L 116.998483 128.571516 
L 117.064205 129.113677 
L 117.153519 129.36359 
L 117.339899 129.539758 
L 118.373924 130.117426 
L 118.51413 130.237603 
L 118.726462 130.514829 
L 118.857232 130.637737 
L 118.983957 130.689632 
L 119.258978 130.722407 
L 119.374918 130.766108 
L 119.55894 130.958664 
L 119.651961 131.200383 
L 119.665443 131.468049 
L 119.542762 132.058008 
L 119.551525 132.306555 
L 119.63511 132.525059 
L 120.189195 133.250216 
L 120.427142 133.478279 
L 120.697445 133.625769 
L 121.455774 133.788281 
L 121.703832 133.919382 
L 121.930994 134.141983 
L 122.075919 134.391896 
L 122.305777 134.954542 
L 123.312838 136.428073 
L 123.506297 136.590585 
L 123.990279 136.912877 
L 124.160145 137.094508 
L 124.520099 137.6394 
L 124.598965 137.857903 
L 124.737823 138.964076 
L 124.681876 139.358747 
L 124.57335 139.60866 
L 124.437862 139.776635 
L 123.84468 140.251879 
L 123.835917 140.615141 
L 123.759747 140.773556 
L 123.583141 140.875979 
L 123.370808 140.934702 
L 123.185439 140.962015 
L 123.031077 141.058976 
L 122.888174 141.267919 
L 122.674494 141.689904 
L 122.371162 142.098232 
L 121.68361 142.796076 
L 121.403871 143.23718 
L 126.643421 143.261761 
L 128.229509 143.581322 
L 128.293545 143.612732 
L 128.408137 143.712424 
L 128.482959 143.734275 
L 128.541603 143.716521 
L 128.64541 143.644142 
L 128.695965 143.633217 
L 128.949416 143.685111 
L 129.477213 143.85172 
L 130.01984 144.122118 
L 130.265202 144.195863 
L 130.850295 144.260048 
L 131.640306 144.204057 
L 131.910608 144.258682 
L 132.162036 144.392516 
L 132.524012 144.712077 
L 132.757914 144.873223 
L 132.888684 144.888245 
L 133.039676 144.863663 
L 133.173816 144.869126 
L 133.25066 144.979743 
L 133.26549 145.108114 
L 133.248638 145.495957 
L 133.285038 145.771817 
L 133.405696 145.991686 
L 133.760931 146.415036 
L 133.839124 146.651293 
L 133.793961 146.903937 
L 133.638925 147.402398 
L 133.792613 147.903589 
L 134.712045 148.479892 
L 134.984369 149.008396 
L 135.020095 149.15452 
L 135.127272 149.423553 
L 135.159628 149.561483 
L 135.129969 149.72536 
L 134.925725 149.971176 
L 134.852926 150.107741 
L 134.832029 150.38087 
L 134.858318 150.610298 
L 134.844163 150.842458 
L 134.699912 151.119684 
L 135.400271 151.12105 
L 137.726488 151.123781 
L 140.052032 151.126512 
L 142.378249 151.131975 
L 144.704466 151.134706 
L 145.190471 151.136072 
L 145.425722 151.075983 
L 145.553121 150.97356 
L 145.605699 150.872502 
L 145.677824 150.798757 
L 145.86589 150.778273 
L 146.005422 150.82607 
L 146.099792 150.906643 
L 146.207644 150.969463 
L 146.386946 150.958538 
L 146.639723 150.827436 
L 147.098765 150.46554 
L 147.733065 150.251134 
L 147.907649 149.997124 
L 148.027634 149.688488 
L 148.195478 149.401702 
L 148.41455 149.236459 
L 149.285787 148.849982 
L 150.095008 148.63421 
L 150.332618 148.449848 
L 150.432381 148.298261 
L 150.588428 147.963678 
L 150.699987 147.806629 
L 150.850978 147.680989 
L 151.189025 147.474777 
L 151.336309 147.347772 
L 151.710418 146.798782 
L 151.920391 146.559795 
L 152.576599 146.204727 
L 152.834768 145.998514 
L 153.325154 145.494591 
L 153.59276 145.292476 
L 154.459278 144.80494 
L 154.703965 144.56049 
L 155.159974 143.997844 
L 155.430613 143.762953 
L 155.685075 143.640045 
L 155.944592 143.584054 
L 156.492275 143.526697 
L 156.508452 143.698768 
L 156.487556 143.73564 
L 156.353079 143.969166 
L 156.318701 144.187669 
L 156.253991 144.352912 
L 156.010314 144.462164 
L 156.038288 144.504499 
L 156.072329 144.605556 
L 156.099291 144.650623 
L 155.933133 144.692958 
L 155.824945 144.82406 
L 155.800004 144.992034 
L 155.976611 145.303401 
L 155.854604 145.334811 
L 155.67766 145.306132 
L 155.609579 145.281551 
L 155.263107 145.29111 
L 155.195363 145.308864 
L 155.322425 145.550583 
L 155.418817 145.982127 
L 155.503413 146.226577 
L 155.649349 146.424596 
L 156.032895 146.729135 
L 156.183887 146.918959 
L 156.272191 147.190723 
L 156.251968 147.437904 
L 156.149847 147.664602 
L 155.991777 147.88447 
L 155.948637 147.967775 
L 155.916281 148.127555 
L 155.850896 148.204031 
L 155.780456 148.213591 
L 155.643283 148.12619 
L 155.575876 148.12619 
L 155.442747 148.205397 
L 155.317033 148.300992 
L 155.210866 148.417072 
L 155.135371 148.556368 
L 155.012353 149.087604 
L 155.011005 149.878312 
L 155.009598 150.463002 
L 155.00696 151.559422 
L 155.002916 153.241897 
L 154.998871 154.924372 
L 154.994153 156.606846 
L 154.989434 158.287956 
L 154.98539 159.970431 
L 154.981008 161.65154 
L 154.977301 163.332649 
L 154.974605 164.401949 
L 156.093562 163.503355 
L 156.373301 163.441901 
L 156.724492 163.747805 
L 157.307563 164.442919 
L 157.636509 164.744726 
L 158.236095 165.039706 
L 158.891966 165.147592 
L 159.565362 165.114816 
L 160.216514 164.987811 
L 160.748019 164.803449 
L 163.91278 163.193353 
L 164.459451 163.220666 
L 164.708183 163.293045 
L 164.961634 163.308067 
L 165.491453 163.272561 
L 165.840622 163.297142 
L 166.065761 163.391372 
L 166.556484 163.708202 
L 166.989912 163.795603 
L 168.607007 163.624897 
L 168.849672 163.628994 
L 168.896857 163.710933 
L 168.942694 163.791506 
L 168.990553 163.872079 
L 169.037064 163.954018 
L 169.083238 164.035956 
L 169.130423 164.119261 
L 169.177608 164.201199 
L 169.223782 164.281773 
L 170.585404 166.673017 
L 171.945004 169.065628 
L 173.306627 171.459604 
L 174.667912 173.852214 
L 176.028523 176.244825 
L 177.390483 178.637435 
L 178.751094 181.030045 
L 180.112043 183.422656 
L 180.435034 183.992409 
L 180.503004 184.112307 
L 180.370886 184.169664 
L 180.294716 184.291206 
L 180.215849 184.554776 
L 180.107998 184.755526 
L 179.95768 184.950813 
L 179.772311 185.117422 
L 179.383035 185.326365 
L 179.203396 185.476586 
L 179.07903 185.667777 
L 179.063526 185.883548 
L 179.184522 186.007822 
L 179.60649 186.123902 
L 179.737259 186.270026 
L 179.434939 186.86135 
L 179.33585 186.978796 
L 178.260034 187.269678 
L 177.99445 187.448578 
L 177.79324 187.723073 
L 177.62843 188.095894 
L 177.341613 188.05629 
L 177.183543 188.303472 
L 177.044011 188.623033 
L 176.632828 188.941228 
L 176.559354 189.238939 
L 176.564072 189.805682 
L 176.724351 191.105749 
L 176.747757 191.2956 
L 176.649679 192.86063 
L 176.684057 193.393914 
L 176.869763 194.43317 
L 176.717761 197.012874 
L 176.765957 197.31195 
L 176.686753 197.639705 
L 176.571487 197.956535 
L 176.459254 198.125875 
L 176.18356 198.42222 
L 176.081775 198.573807 
L 176.051442 198.755437 
L 176.076382 198.922046 
L 176.073349 199.076364 
L 175.958757 199.221122 
L 175.810125 199.248435 
L 175.412086 199.177422 
L 175.241883 199.19381 
L 175.05921 199.494251 
L 175.327153 199.875267 
L 176.031557 200.440644 
L 176.176145 200.637297 
L 176.176145 200.788883 
L 176.112782 200.944567 
L 176.06762 201.157607 
L 176.083123 201.336507 
L 176.251978 201.843161 
L 176.475769 202.17911 
L 176.525313 202.627042 
L 176.527336 203.107749 
L 176.606539 203.532464 
L 176.779438 203.774184 
L 177.477775 204.228943 
L 177.6136 204.418768 
L 177.689096 204.623615 
L 177.770659 205.078375 
L 178.09455 205.963313 
L 178.15252 206.426267 
L 177.901091 206.693933 
L 177.019407 206.805916 
L 176.581261 206.916533 
L 176.251978 207.148693 
L 176.179515 207.376756 
L 176.15963 207.632131 
L 176.173449 208.142883 
L 176.275907 208.379139 
L 176.454536 208.642709 
L 176.511495 208.907644 
L 176.251978 209.146632 
L 175.404334 209.613683 
L 175.150884 209.798045 
L 174.636231 210.383906 
L 174.543209 210.428973 
L 174.320766 210.48633 
L 174.241562 210.546418 
L 174.200444 210.774481 
L 174.238529 211.383559 
L 174.161685 211.531048 
L 173.87689 211.522855 
L 173.580636 211.4614 
L 173.323478 211.487348 
L 173.155972 211.744089 
L 173.073398 213.437489 
L 172.893421 213.818504 
L 172.686145 213.937315 
L 171.961856 214.136699 
L 171.669983 214.311502 
L 171.55101 214.490402 
L 171.532136 214.717099 
L 171.58741 215.79869 
L 171.56011 215.901113 
L 171.34643 216.396842 
L 171.28846 216.642658 
L 171.37137 216.872087 
L 171.651784 217.130194 
L 171.869845 217.330944 
L 172.620086 218.460332 
L 172.833766 218.674739 
L 173.610295 219.244213 
L 173.82128 219.446328 
L 174.143822 219.898357 
L 174.452547 220.196067 
L 174.422213 220.437786 
L 174.217296 220.600298 
L 173.909583 220.579814 
L 173.656469 220.596201 
L 173.480874 221.105587 
L 173.046435 221.253077 
L 172.79467 221.477042 
L 172.586382 221.748806 
L 172.510886 221.961847 
L 172.661541 222.355152 
L 172.6548 222.469867 
L 172.563464 222.528589 
L 172.206881 222.6474 
L 172.0751 222.718414 
L 171.904897 222.956036 
L 171.838164 223.215509 
L 171.80446 223.480444 
L 171.735368 223.738551 
L 170.890421 224.993579 
L 170.775155 225.38825 
L 170.849303 225.784287 
L 171.007372 226.174862 
L 171.563143 227.537776 
L 172.117229 228.899324 
L 172.672326 230.260872 
L 173.226075 231.623786 
L 173.519296 232.344847 
L 173.972945 232.903396 
L 174.215611 233.106877 
L 174.497035 233.278948 
L 174.808456 233.381372 
L 175.142795 233.381372 
L 175.290079 233.319918 
L 175.542856 233.128727 
L 175.685759 233.079564 
L 175.826976 233.091855 
L 176.251978 233.221591 
L 176.618672 233.101415 
L 176.912567 233.277583 
L 177.444072 233.849788 
L 178.123535 234.117455 
L 178.423833 234.316839 
L 178.556288 234.673272 
L 178.264752 235.125301 
L 176.796964 235.69614 
L 176.361851 235.913278 
L 176.020772 236.327069 
L 175.904157 236.556497 
L 175.877195 236.825529 
L 175.893372 237.597119 
L 175.861017 238.008178 
L 175.926065 238.228047 
L 176.27557 238.706022 
L 176.116827 238.908138 
L 175.900787 239.182633 
L 175.682388 239.342413 
L 174.922711 239.727525 
L 174.681056 239.784882 
L 174.214263 239.828583 
L 174.005638 239.955588 
L 173.884305 240.144047 
L 173.636584 240.858279 
L 173.456607 241.138237 
L 172.132733 242.512076 
L 171.786935 243.245427 
L 171.632235 243.422961 
L 171.073431 243.746619 
L 170.989509 243.83402 
L 170.95075 243.962391 
L 170.993217 244.038867 
L 171.088261 244.079836 
L 171.150275 244.163141 
L 171.088261 244.372084 
L 170.808858 244.687549 
L 170.460364 244.815919 
L 170.086592 244.884201 
L 169.730683 245.020766 
L 169.327588 245.287067 
L 168.622511 245.913898 
L 168.54297 245.93848 
L 168.318505 245.973986 
L 168.260535 245.99174 
L 168.116621 246.278525 
L 167.913388 247.011877 
L 167.690608 247.349191 
L 167.717695 247.35269 
L 168.388271 247.439324 
L 168.593526 247.510337 
L 169.119638 247.920031 
L 169.378481 248.179503 
L 169.567557 248.417126 
L 169.713831 248.8077 
L 169.753601 249.274751 
L 169.730683 250.218412 
L 169.730745 250.233557 
" clip-path="url(#p4d12cf5498)" style="fill: #f5f5f5; stroke: #000000"/>
    <path d="M 82.529337 207.37854 
L 82.610987 207.529152 
L 82.65178 207.639584 
L 82.784629 207.70994 
L 82.73343 207.800231 
L 82.580089 207.770004 
L 82.375743 207.619287 
L 82.202025 207.528804 
L 82.202197 207.378294 
L 82.304472 207.328166 
L 82.529337 207.37854 
" clip-path="url(#p4d12cf5498)" style="fill: #f5f5f5; stroke: #000000"/>
    <path d="M 79.288708 201.659685 
L 79.379751 201.699771 
L 79.379089 201.83949 
L 79.317768 201.969121 
L 79.196583 201.998701 
L 79.054435 201.998458 
L 78.941985 201.968454 
L 78.975249 201.808571 
L 79.087051 201.699087 
L 79.117012 201.559585 
L 79.258559 201.569851 
L 79.288708 201.659685 
" clip-path="url(#p4d12cf5498)" style="fill: #f5f5f5; stroke: #000000"/>
    <path d="M 68.996357 178.337402 
L 69.503435 178.794558 
L 69.614608 178.917989 
L 69.663859 179.00427 
L 69.52741 178.966809 
L 69.365771 178.990731 
L 69.192454 178.867025 
L 68.944777 178.706074 
L 68.796738 178.496362 
L 68.723136 178.311568 
L 68.847729 178.250648 
L 68.996357 178.337402 
" clip-path="url(#p4d12cf5498)" style="fill: #f5f5f5; stroke: #000000"/>
    <path d="M 21.903952 103.23453 
L 21.829625 103.331437 
L 21.741453 103.550542 
L 21.811964 103.735156 
L 21.919856 103.859133 
L 21.92988 104.018442 
L 21.914757 104.238632 
L 21.948122 104.47175 
L 21.801831 104.494207 
L 21.631714 104.479593 
L 21.584717 104.356488 
L 21.635153 104.222461 
L 21.589309 104.01367 
L 21.481199 103.914237 
L 21.579921 103.805385 
L 21.61905 103.610062 
L 21.77136 103.147011 
L 21.903952 103.23453 
" clip-path="url(#p4d12cf5498)" style="fill: #f5f5f5; stroke: #000000"/>
   </g>
  </g>
 </g>
 <defs>
  <clipPath id="p4d12cf5498">
   <rect x="7.2" y="7.2" width="181.555528" height="266.112"/>
  </clipPath>
 </defs>
</svg>
