<?xml version="1.0" encoding="utf-8" standalone="no"?>
<!DOCTYPE svg PUBLIC "-//W3C//DTD SVG 1.1//EN"
  "http://www.w3.org/Graphics/SVG/1.1/DTD/svg11.dtd">
<svg xmlns:xlink="http://www.w3.org/1999/xlink" width="295.797149pt" height="280.512pt" viewBox="0 0 295.797149 280.512" xmlns="http://www.w3.org/2000/svg" version="1.1">
 <metadata>
  <rdf:RDF xmlns:dc="http://purl.org/dc/elements/1.1/" xmlns:cc="http://creativecommons.org/ns#" xmlns:rdf="http://www.w3.org/1999/02/22-rdf-syntax-ns#">
   <cc:Work>
    <dc:type rdf:resource="http://purl.org/dc/dcmitype/StillImage"/>
    <dc:date>2024-03-04T13:11:12.673396</dc:date>
    <dc:format>image/svg+xml</dc:format>
    <dc:creator>
     <cc:Agent>
      <dc:title>Matplotlib v3.8.0, https://matplotlib.org/</dc:title>
     </cc:Agent>
    </dc:creator>
   </cc:Work>
  </rdf:RDF>
 </metadata>
 <defs>
  <style type="text/css">*{stroke-linejoin: round; stroke-linecap: butt}</style>
 </defs>
 <g id="figure_1">
  <g id="patch_1">
   <path d="M 0 280.512 
L 295.797149 280.512 
L 295.797149 0 
L 0 0 
z
" style="fill: #ffffff"/>
  </g>
  <g id="axes_1">
   <g id="PatchCollection_1">
    <defs>
     <path id="m9c3dbc300d" d="M 140.23007 -40.665603 
L 140.338263 -41.356532 
L 140.264375 -42.212172 
L 139.897575 -43.976929 
L 139.784104 -44.351271 
L 139.483275 -45.074287 
L 139.364527 -45.47216 
L 139.193002 -46.8968 
L 139.087447 -47.219804 
L 138.704814 -47.519278 
L 138.306347 -47.446548 
L 137.907881 -47.264725 
L 137.535803 -47.232638 
L 137.213863 -47.435853 
L 136.712481 -48.058331 
L 136.379985 -48.34497 
L 136.015824 -48.460481 
L 135.229446 -48.533211 
L 134.889034 -48.783485 
L 134.728064 -49.093655 
L 134.472095 -50.297968 
L 133.870437 -51.59854 
L 133.42711 -52.856331 
L 133.416555 -53.966523 
L 134.118489 -54.820024 
L 133.440304 -55.202923 
L 133.329472 -55.709889 
L 133.392805 -56.345202 
L 133.234474 -57.096026 
L 132.857118 -57.335605 
L 131.851715 -56.661789 
L 131.257974 -56.659649 
L 129.360639 -57.757007 
L 128.373708 -58.124933 
L 127.344556 -57.992308 
L 127.399972 -57.992308 
L 127.444832 -57.968778 
L 127.479138 -57.921718 
L 127.508165 -57.851128 
L 126.793036 -57.198703 
L 126.423597 -57.121695 
L 125.916937 -57.555932 
L 125.774439 -57.836154 
L 125.597636 -58.477884 
L 125.489443 -58.704629 
L 125.185975 -58.939929 
L 124.586956 -59.070415 
L 124.286127 -59.211595 
L 123.481277 -59.93675 
L 123.093366 -60.161355 
L 121.462555 -60.484359 
L 121.13006 -60.88651 
L 121.296307 -61.650168 
L 119.805356 -62.66838 
L 119.443531 -62.762866 
L 119.018978 -62.873733 
L 119.132449 -61.936808 
L 119.26703 -61.876913 
L 119.470222 -61.943225 
L 119.689246 -61.936808 
L 119.868688 -61.650168 
L 119.913549 -61.237322 
L 119.784245 -61.055499 
L 118.953007 -60.796668 
L 117.929132 -60.764581 
L 117.464694 -60.638374 
L 116.712621 -59.93675 
L 115.783746 -59.641554 
L 114.85487 -59.846908 
L 113.200309 -61.566744 
L 112.912675 -61.981729 
L 112.712122 -62.475861 
L 112.569624 -62.987106 
L 112.39546 -63.444873 
L 112.113102 -63.797824 
L 111.872967 -64.048099 
L 111.793801 -64.285539 
L 111.875606 -64.512283 
L 112.113102 -64.724054 
L 112.123658 -64.754002 
L 112.128936 -64.786088 
L 112.123658 -64.824592 
L 112.113102 -64.865235 
L 111.754219 -64.944381 
L 111.0602 -65.30375 
L 110.725066 -65.397871 
L 110.453265 -65.331558 
L 110.236879 -65.201073 
L 109.978271 -65.151874 
L 109.579805 -65.340115 
L 108.339544 -66.976526 
L 108.286767 -67.278139 
L 108.474126 -67.695263 
L 108.753844 -67.842861 
L 109.986188 -67.89206 
L 110.667012 -68.170143 
L 111.754219 -68.848238 
L 112.271434 -69.314562 
L 112.511569 -69.941318 
L 112.113102 -70.707115 
L 111.84394 -70.985198 
L 111.785885 -71.402323 
L 111.836023 -71.780943 
L 112.113102 -72.555297 
L 112.171157 -72.685782 
L 112.189629 -72.80985 
L 112.176435 -72.921083 
L 112.113102 -73.015204 
L 111.643387 -73.674046 
L 111.500889 -73.813088 
L 111.068117 -73.979937 
L 110.901869 -73.868704 
L 110.835898 -73.586343 
L 110.6934 -73.248365 
L 109.93605 -72.159564 
L 109.498 -71.787361 
L 108.906897 -71.626928 
L 106.62429 -72.046192 
L 105.40778 -71.93068 
L 104.658346 -70.985198 
L 104.526403 -70.893217 
L 104.391822 -70.86327 
L 104.254601 -70.895356 
L 104.125297 -70.985198 
L 103.887801 -71.755274 
L 103.331003 -72.223737 
L 102.766289 -72.178816 
L 102.489209 -71.421575 
L 102.148797 -71.688962 
L 101.971994 -72.114643 
L 101.921856 -72.638722 
L 101.953522 -73.177775 
L 101.837413 -73.282591 
L 101.731859 -73.402381 
L 101.642138 -73.541422 
L 101.570889 -73.697576 
L 102.040604 -73.894373 
L 101.512834 -74.127535 
L 100.314795 -74.091171 
L 99.707859 -74.272994 
L 98.808011 -74.863385 
L 98.55732 -75.145747 
L 98.404266 -75.505115 
L 98.245935 -76.03989 
L 98.158853 -76.489101 
L 98.214269 -76.604612 
L 97.916079 -76.698733 
L 97.137617 -76.531883 
L 96.78665 -76.536161 
L 96.459432 -76.715846 
L 95.865691 -77.233508 
L 95.585972 -77.411053 
L 92.962954 -78.172572 
L 92.371851 -78.099843 
L 91.994377 -78.334482 
L 91.274088 -78.782216 
L 90.690902 -78.859223 
L 89.996884 -78.422847 
L 89.999523 -77.84529 
L 90.817567 -76.593917 
L 91.107841 -75.836676 
L 91.297838 -74.955367 
L 91.548529 -74.153204 
L 92.026161 -73.64196 
L 92.64893 -73.263339 
L 93.113368 -72.732842 
L 93.382531 -71.990575 
L 93.419475 -70.985198 
L 93.75197 -70.527431 
L 93.802108 -69.981961 
L 93.6385 -69.629009 
L 93.329754 -69.750938 
L 93.057952 -70.17448 
L 92.939204 -70.424754 
L 92.78615 -70.533848 
L 92.411433 -70.540266 
L 92.340184 -70.426893 
L 92.345462 -69.926344 
L 92.28213 -69.774468 
L 92.05255 -69.757355 
L 91.580195 -69.932761 
L 91.355893 -69.924205 
L 91.049786 -69.703878 
L 90.624931 -69.089956 
L 90.384795 -68.86749 
L 90.098783 -68.791576 
L 89.788415 -68.709196 
L 89.276477 -68.745561 
L 88.769818 -68.668554 
L 88.197187 -68.157309 
L 87.738027 -67.434293 
L 87.460947 -66.873849 
L 87.149563 -66.413943 
L 86.582209 -65.986123 
L 85.795832 -64.867374 
L 84.758763 -64.788227 
L 83.687389 -65.367923 
L 82.808651 -66.212867 
L 82.360046 -66.82465 
L 82.119911 -67.342312 
L 81.829637 -68.754118 
L 81.552558 -69.537028 
L 80.779374 -70.375555 
L 80.454795 -70.985198 
L 80.085356 -71.507138 
L 79.436198 -72.734982 
L 79.069398 -73.271896 
L 78.502045 -73.684742 
L 77.364699 -74.11684 
L 76.910817 -74.743596 
L 76.844846 -75.105104 
L 76.865956 -75.481585 
L 76.847484 -75.866623 
L 76.668043 -76.251661 
L 76.425268 -76.330808 
L 75.261534 -76.330808 
L 74.963344 -76.23027 
L 74.781263 -76.065559 
L 74.593905 -76.022777 
L 74.266687 -76.296582 
L 74.1453 -76.536161 
L 73.815444 -77.603572 
L 72.986844 -77.755448 
L 72.746708 -78.495576 
L 72.947261 -79.15228 
L 73.45656 -79.03249 
L 73.40906 -79.158697 
L 73.285034 -79.618603 
L 73.440727 -79.633577 
L 73.675584 -79.787592 
L 73.815444 -79.845348 
L 74.208632 -80.185465 
L 74.657237 -80.461409 
L 75.039871 -80.801525 
L 75.237785 -81.3363 
L 75.63889 -81.471064 
L 76.456934 -81.235763 
L 76.894984 -81.3363 
L 77.135119 -81.684974 
L 77.660251 -82.221887 
L 77.879276 -82.538474 
L 77.808027 -82.514944 
L 77.805388 -82.758801 
L 77.839693 -83.077527 
L 77.879276 -83.287159 
L 77.990107 -83.526738 
L 78.061356 -83.642249 
L 78.061356 -83.779152 
L 77.963719 -84.09146 
L 78.76593 -84.431577 
L 78.533711 -85.220905 
L 76.359297 -87.597444 
L 75.575558 -88.055212 
L 74.741681 -88.275539 
L 73.815444 -88.294791 
L 73.485587 -88.222061 
L 73.298229 -87.807076 
L 73.113509 -87.278718 
L 72.802124 -86.874429 
L 72.371991 -86.771752 
L 71.98408 -86.959993 
L 71.176592 -87.597444 
L 70.09994 -87.710817 
L 68.516629 -86.130022 
L 67.432061 -85.924669 
L 67.379283 -86.048736 
L 67.360812 -86.179221 
L 67.381922 -86.311846 
L 67.432061 -86.446609 
L 67.798861 -86.754639 
L 67.856916 -87.246632 
L 67.717057 -87.817772 
L 67.495393 -88.378216 
L 67.162898 -89.028502 
L 66.819847 -89.370758 
L 66.397631 -89.432792 
L 64.885568 -88.846678 
L 64.178356 -88.825287 
L 64.014747 -88.885182 
L 62.724349 -91.14621 
L 62.642544 -91.398624 
L 62.587128 -91.680985 
L 61.953804 -91.743019 
L 59.832167 -91.214661 
L 59.563004 -91.302364 
L 59.375645 -91.490605 
L 59.037872 -92.023241 
L 58.747599 -92.222177 
L 53.638781 -94.061803 
L 52.575324 -93.969821 
L 52.337827 -93.666069 
L 52.095053 -93.225415 
L 51.812696 -92.919524 
L 51.769893 -92.933453 
L 51.451173 -93.037174 
L 51.287564 -93.37943 
L 51.308675 -93.773024 
L 51.379924 -94.18801 
L 51.372007 -94.59016 
L 51.0659 -95.366653 
L 50.677989 -95.696075 
L 50.21619 -95.905706 
L 49.706892 -96.32497 
L 49.43509 -96.774181 
L 49.134261 -97.458693 
L 48.896764 -98.188125 
L 48.820237 -98.776378 
L 48.999679 -99.537897 
L 49.221343 -99.972134 
L 49.247731 -100.372146 
L 48.838709 -101.05024 
L 48.157886 -101.396775 
L 46.703878 -101.420305 
L 46.463743 -102.027809 
L 46.344994 -102.656704 
L 46.046804 -102.810719 
L 45.716948 -102.573279 
L 45.487367 -102.032087 
L 45.487367 -102.027809 
L 45.402924 -101.606406 
L 45.115289 -101.546512 
L 44.756405 -101.728335 
L 44.455576 -102.032087 
L 44.23919 -102.440655 
L 42.946153 -102.731573 
L 42.460604 -103.18827 
L 42.389355 -102.847084 
L 42.270607 -102.656704 
L 41.901168 -102.38076 
L 41.756031 -102.348674 
L 41.610894 -102.278084 
L 41.48159 -102.168989 
L 41.365481 -102.027809 
L 41.362842 -102.027809 
L 41.471035 -101.559346 
L 41.885334 -101.223508 
L 42.273246 -100.643812 
L 42.302273 -99.441638 
L 42.223107 -99.232006 
L 41.972417 -98.941088 
L 41.901168 -98.799908 
L 41.877418 -98.568885 
L 41.893251 -98.410592 
L 41.922278 -98.292941 
L 41.953945 -96.855467 
L 41.901168 -96.498237 
L 38.985236 -96.718564 
L 38.061638 -96.453316 
L 37.518034 -96.472568 
L 37.520673 -97.242644 
L 37.882196 -97.854426 
L 38.789961 -98.88975 
L 40.077721 -102.027809 
L 41.217705 -104.982975 
L 41.294232 -105.457855 
L 41.299509 -106.2536 
L 41.34437 -106.661098 
L 41.48159 -106.947738 
L 41.679504 -107.139187 
L 41.848391 -107.415131 
L 41.901168 -107.946697 
L 41.930195 -108.992717 
L 42.138664 -110.154248 
L 42.484354 -111.256953 
L 42.922403 -112.132915 
L 42.816849 -112.248426 
L 42.724489 -112.376772 
L 42.856432 -113.577876 
L 42.484354 -114.389664 
L 41.906445 -115.081663 
L 41.434091 -115.925538 
L 41.362842 -116.211108 
L 41.25201 -116.953375 
L 41.25201 -116.991879 
L 41.099092 -118.746411 
L 41.003958 -119.837951 
L 41.220344 -120.355613 
L 40.956459 -120.925683 
L 40.484104 -121.428371 
L 40.085637 -121.744958 
L 39.507729 -122.02518 
L 38.30969 -122.384549 
L 37.726504 -122.722526 
L 37.726504 -122.726804 
L 37.188178 -123.11612 
L 35.520423 -123.684051 
L 34.955709 -124.28086 
L 34.872292 -124.719111 
L 34.81585 -125.015641 
L 35.024319 -125.819942 
L 35.520423 -126.614618 
L 35.821253 -127.443519 
L 35.779031 -128.53339 
L 35.52834 -129.583688 
L 35.198484 -130.299216 
L 33.958223 -131.339888 
L 33.382953 -132.020122 
L 33.119068 -133.072559 
L 33.018792 -134.164569 
L 32.665186 -134.641588 
L 32.203387 -134.963523 
L 31.783809 -135.608461 
L 31.707282 -136.485492 
L 32.042417 -137.20316 
L 33.506979 -138.701599 
L 33.976695 -139.333703 
L 34.369884 -140.079179 
L 34.58627 -140.888828 
L 34.675991 -143.416174 
L 34.813211 -143.818325 
L 35.364731 -144.820493 
L 35.472924 -145.211948 
L 35.520423 -145.591638 
L 35.602228 -145.962772 
L 35.797503 -146.314654 
L 36.267219 -146.899697 
L 34.607381 -148.142514 
L 34.351412 -148.736114 
L 34.507104 -149.809942 
L 34.781545 -150.562905 
L 34.879182 -151.154366 
L 34.509743 -151.730853 
L 34.509743 -151.987545 
L 35.008486 -152.644249 
L 35.016403 -153.491332 
L 34.620575 -154.218626 
L 33.905446 -154.529865 
L 33.179762 -154.697784 
L 32.314218 -155.140578 
L 31.741587 -155.781238 
L 31.894641 -156.534201 
L 31.358954 -157.738514 
L 30.752018 -159.544984 
L 30.60952 -161.188881 
L 31.931585 -162.345065 
L 32.549076 -163.317285 
L 32.971292 -164.288437 
L 32.852544 -164.730161 
L 32.377551 -165.16012 
L 32.575465 -166.121645 
L 33.290594 -167.607249 
L 32.496299 -168.253257 
L 32.349555 -168.416168 
L 30.868127 -170.060796 
L 29.340232 -170.658675 
L 28.606631 -171.649078 
L 28.121082 -171.872613 
L 27.854558 -172.126097 
L 26.981098 -173.824542 
L 26.585271 -174.281239 
L 23.872531 -176.25028 
L 23.175874 -176.617136 
L 22.341997 -177.586148 
L 21.830059 -177.808614 
L 21.262706 -177.849257 
L 20.727019 -178.013968 
L 20.283692 -178.356224 
L 19.990779 -178.938059 
L 20.668964 -179.516685 
L 20.93285 -180.018304 
L 21.038404 -180.801214 
L 20.980349 -181.318877 
L 20.668964 -182.787368 
L 20.515911 -183.203423 
L 20.515911 -183.461185 
L 21.750894 -184.360676 
L 23.305178 -185.156421 
L 24.809323 -186.329717 
L 25.593062 -187.132949 
L 25.936113 -187.880564 
L 26.007362 -188.227098 
L 26.772629 -190.570481 
L 26.719852 -191.169429 
L 26.566799 -191.755543 
L 26.474439 -192.428289 
L 26.545688 -192.979107 
L 26.727769 -193.485004 
L 26.981098 -193.853999 
L 27.250261 -193.99518 
L 27.43762 -194.267915 
L 28.102611 -195.544957 
L 27.770115 -195.844431 
L 27.669839 -196.075454 
L 27.279289 -196.397388 
L 27.123596 -196.660497 
L 27.044431 -197.066926 
L 27.028598 -197.81775 
L 26.989015 -198.168563 
L 26.816562 -198.946554 
L 26.281803 -201.359029 
L 26.015279 -203.502407 
L 25.479592 -204.377299 
L 25.213068 -205.241495 
L 24.592937 -206.169864 
L 24.408218 -207.023365 
L 24.389746 -207.941038 
L 24.458356 -209.455521 
L 24.410857 -209.864089 
L 23.87517 -211.472691 
L 23.489897 -212.28341 
L 23.595451 -212.927279 
L 23.563785 -214.090949 
L 23.564755 -214.095104 
L 23.814756 -214.122126 
L 24.273958 -214.31414 
L 24.610568 -214.615635 
L 24.643813 -214.952501 
L 24.195 -215.253996 
L 24.444341 -215.397164 
L 24.527454 -215.538648 
L 24.444341 -215.680132 
L 24.195 -215.819931 
L 24.338371 -216.128164 
L 24.589789 -215.912569 
L 24.947177 -215.740768 
L 25.263008 -215.511699 
L 25.560139 -214.713326 
L 25.921682 -214.445518 
L 26.619835 -214.122126 
L 27.130983 -213.591562 
L 27.411491 -213.365862 
L 28.537678 -213.180586 
L 29.90905 -212.707289 
L 30.384874 -212.348527 
L 30.77343 -211.809541 
L 31.612876 -210.256588 
L 31.905851 -209.889404 
L 32.04091 -210.010676 
L 32.07 -210.674302 
L 32.186358 -211.060014 
L 32.402453 -211.312663 
L 32.753608 -211.580472 
L 32.734907 -211.737115 
L 32.728674 -211.900495 
L 32.753608 -212.143038 
L 32.479333 -212.220517 
L 31.824815 -212.277785 
L 31.53184 -212.426006 
L 30.740184 -214.26361 
L 30.906411 -215.178201 
L 31.53184 -216.973697 
L 31.824815 -216.724416 
L 32.078311 -216.795158 
L 32.356741 -216.953485 
L 32.753608 -216.973697 
L 32.572836 -218.017982 
L 32.666339 -218.850041 
L 32.842955 -219.589462 
L 32.928146 -220.367623 
L 32.753608 -220.367623 
L 32.691273 -219.87243 
L 32.4918 -219.543985 
L 31.880917 -218.952785 
L 32.04091 -218.669818 
L 31.816504 -218.759087 
L 31.63781 -218.870253 
L 31.494439 -219.025212 
L 31.357302 -219.235753 
L 31.488205 -219.357025 
L 31.718845 -219.651782 
L 31.880917 -219.801688 
L 31.529762 -220.504054 
L 30.923034 -220.834182 
L 28.090943 -221.11715 
L 27.691999 -221.539917 
L 28.014063 -222.346711 
L 27.93095 -222.429243 
L 27.910172 -222.441033 
L 27.90186 -222.47472 
L 27.85407 -222.629678 
L 27.602652 -222.215333 
L 27.403179 -222.156382 
L 27.187085 -222.267547 
L 26.881643 -222.346711 
L 26.659314 -222.262494 
L 26.484776 -222.057006 
L 26.314393 -221.790882 
L 26.096221 -221.521389 
L 26.858786 -221.379905 
L 27.274354 -221.197998 
L 27.490449 -220.931873 
L 27.440581 -220.429943 
L 27.174617 -220.064443 
L 26.850475 -219.921275 
L 26.619835 -220.084655 
L 25.921682 -219.661888 
L 25.574684 -219.554091 
L 25.208984 -219.51872 
L 25.208984 -219.235753 
L 25.560139 -219.104375 
L 25.541438 -219.018474 
L 25.208984 -218.952785 
L 24.967955 -218.988156 
L 24.564855 -219.190276 
L 24.265647 -219.235753 
L 23.83969 -219.510299 
L 22.611689 -221.214841 
L 22.013272 -221.477596 
L 21.954117 -221.470751 
L 21.748255 -222.11685 
L 21.302289 -222.643069 
L 21.545063 -222.71152 
L 21.756171 -222.850561 
L 22.189888 -223.967037 
L 22.611689 -223.783445 
L 22.890119 -223.561113 
L 23.671386 -223.278146 
L 26.198034 -223.07771 
L 27.212019 -223.278146 
L 28.203146 -223.783445 
L 30.035798 -225.075326 
L 36.790844 -227.947109 
L 42.617096 -229.404055 
L 49.721218 -232.262363 
L 54.321548 -233.432973 
L 59.358223 -234.728223 
L 64.309706 -236.862269 
L 68.423822 -237.350725 
L 71.249679 -238.250157 
L 70.927615 -237.94024 
L 69.662212 -237.401255 
L 70.216995 -237.027333 
L 72.467291 -237.401255 
L 72.467291 -237.657273 
L 72.292753 -237.657273 
L 72.292753 -237.963821 
L 73.510365 -237.963821 
L 73.497898 -238.165941 
L 73.470886 -238.202996 
L 73.423096 -238.189521 
L 73.335827 -238.250157 
L 73.385695 -238.917152 
L 72.797667 -238.944101 
L 71.407595 -238.529756 
L 72.28652 -238.942417 
L 73.344138 -239.599306 
L 74.923294 -241.357746 
L 74.603307 -240.741282 
L 74.031902 -240.175347 
L 73.809573 -239.867114 
L 74.042291 -239.947962 
L 74.505649 -240.038916 
L 74.910827 -240.193874 
L 75.266137 -240.598113 
L 76.161684 -240.998984 
L 76.489982 -241.357746 
L 76.186618 -241.959052 
L 75.679626 -241.974211 
L 75.45522 -241.716509 
L 75.081209 -241.357746 
L 76.163762 -243.126293 
L 79.120523 -246.725707 
L 79.120523 -246.471373 
L 78.983386 -246.067134 
L 79.241037 -245.96439 
L 79.652449 -246.112611 
L 79.978669 -246.471373 
L 80.14074 -247.027202 
L 79.991136 -247.197319 
L 79.66076 -247.065942 
L 79.280516 -246.725707 
L 79.804131 -247.714409 
L 80.691367 -248.553205 
L 82.434672 -249.578962 
L 87.768477 -250.321752 
L 89.84008 -251.099913 
L 90.926788 -251.273399 
L 91.890904 -251.600159 
L 94.338595 -254.126654 
L 102.039056 -257.518895 
L 111.696839 -259.233543 
L 116.031205 -260.628169 
L 122.846508 -261.216 
L 127.047893 -261.216 
L 127.625531 -261.015565 
L 128.552246 -260.255932 
L 128.893011 -260.089183 
L 129.429093 -259.972964 
L 138.149772 -255.079985 
L 139.739316 -253.139636 
L 139.996968 -252.684867 
L 140.258776 -252.041453 
L 140.28371 -251.478887 
L 139.832819 -251.273399 
L 139.720616 -251.414882 
L 139.595946 -251.716377 
L 139.440108 -252.014504 
L 138.974673 -252.324421 
L 138.662997 -253.100897 
L 138.243274 -253.606196 
L 137.02774 -255.541491 
L 136.790867 -255.647604 
L 135.895319 -255.82109 
L 135.668835 -255.91036 
L 135.425728 -256.29944 
L 134.702641 -256.535246 
L 133.17751 -257.518895 
L 131.677312 -258.195996 
L 131.436283 -258.519387 
L 130.607226 -259.119009 
L 130.389053 -259.215016 
L 130.077378 -259.083638 
L 129.915307 -258.871412 
L 129.553763 -257.689012 
L 129.503895 -257.416151 
L 129.503895 -256.811476 
L 129.641032 -256.658202 
L 130.251916 -256.4005 
L 130.389053 -256.245541 
L 130.696573 -255.740242 
L 131.070584 -254.975556 
L 131.056039 -254.658902 
L 130.958381 -254.384356 
L 130.966692 -254.113179 
L 131.261745 -253.818422 
L 131.107985 -253.009943 
L 131.398882 -252.66634 
L 131.885096 -252.762346 
L 132.308974 -253.277752 
L 132.15937 -252.590545 
L 132.365076 -252.041453 
L 132.682985 -251.576578 
L 133.327114 -249.695181 
L 133.526586 -249.295995 
L 133.42685 -248.346033 
L 133.447628 -246.708864 
L 133.613855 -245.157595 
L 133.971243 -244.465336 
L 134.372266 -244.339011 
L 135.151454 -243.773076 
L 135.550399 -243.643383 
L 135.893242 -243.609696 
L 136.319198 -243.485055 
L 136.684897 -243.259355 
L 136.840735 -242.898909 
L 137.270847 -242.327921 
L 141.576124 -241.00909 
L 142.527773 -240.941717 
L 143.323584 -241.357746 
L 143.541757 -241.147205 
L 143.840965 -240.992247 
L 144.543274 -240.791811 
L 154.120021 -242.146013 
L 156.23318 -243.114503 
L 157.236775 -243.336834 
L 158.047131 -243.690544 
L 159.617976 -245.240128 
L 160.052243 -245.420351 
L 160.594091 -245.003075 
L 161.858101 -244.590229 
L 163.849113 -244.489943 
L 169.120222 -244.224443 
L 179.010639 -243.723893 
L 186.383592 -243.35276 
L 193.756544 -242.981626 
L 202.89225 -242.523859 
L 213.956956 -241.965554 
L 221.059426 -241.609394 
L 228.161896 -241.253233 
L 234.117785 -240.95162 
L 238.917857 -240.709902 
L 240.675333 -241.26179 
L 241.155604 -241.631854 
L 241.801932 -242.767025 
L 241.836427 -242.827611 
L 242.472391 -243.109972 
L 243.015994 -243.039381 
L 244.546528 -242.290697 
L 244.823608 -242.256471 
L 245.404155 -242.371982 
L 245.665402 -242.314227 
L 245.937203 -242.053257 
L 246.08234 -241.730253 
L 246.195811 -241.407249 
L 246.356781 -241.142 
L 246.644416 -240.955899 
L 247.520515 -240.8575 
L 247.681485 -240.628616 
L 247.589125 -240.235022 
L 247.441349 -239.766559 
L 247.43871 -239.328044 
L 247.89787 -238.718401 
L 248.483696 -238.72054 
L 249.09327 -238.966536 
L 249.607846 -239.07563 
L 250.072284 -238.86172 
L 251.655596 -237.601791 
L 252.629332 -237.034929 
L 254.687637 -236.294801 
L 255.197436 -235.881549 
L 255.669289 -235.499056 
L 255.914703 -235.135409 
L 256.379141 -234.290465 
L 256.613999 -233.9696 
L 256.877884 -233.798472 
L 257.426765 -233.655152 
L 257.661623 -233.522528 
L 258.083839 -232.927859 
L 258.440084 -232.100027 
L 258.719802 -231.173797 
L 258.915077 -230.290349 
L 259.287156 -228.358742 
L 259.295072 -227.423956 
L 258.915077 -226.788643 
L 258.606332 -226.542647 
L 258.469111 -226.380075 
L 258.345085 -226.196113 
L 258.329252 -225.753319 
L 258.437445 -225.376838 
L 258.643276 -225.077364 
L 258.915077 -224.863454 
L 259.065492 -224.677352 
L 259.13938 -224.469859 
L 259.123547 -224.243115 
L 259.017993 -224.001397 
L 259.049659 -222.788527 
L 259.313544 -221.776733 
L 259.651317 -220.822695 
L 259.912564 -219.780953 
L 260.147421 -217.57982 
L 260.416584 -216.728459 
L 261.036714 -215.851428 
L 261.039353 -215.851428 
L 261.097408 -213.310178 
L 261.706983 -210.422394 
L 263.87348 -203.983704 
L 265.076797 -201.557966 
L 265.588734 -200.248837 
L 266.60997 -196.335354 
L 267.061214 -195.156711 
L 267.520374 -194.556693 
L 267.771065 -193.97165 
L 267.968979 -193.369493 
L 268.272447 -192.728833 
L 268.728968 -192.240049 
L 269.167017 -191.908488 
L 269.43618 -191.410078 
L 269.378126 -190.40684 
L 269.148545 -189.810032 
L 268.8398 -189.311621 
L 268.594387 -188.741551 
L 268.560081 -187.934041 
L 268.779106 -187.232417 
L 269.55229 -186.260196 
L 269.845202 -185.647344 
L 269.887424 -185.329688 
L 269.82673 -184.832347 
L 269.829369 -184.568169 
L 270.045755 -183.415194 
L 270.056311 -183.083634 
L 269.979784 -182.828011 
L 269.697427 -182.269706 
L 269.626178 -181.943494 
L 269.649927 -181.49963 
L 269.737009 -181.251495 
L 269.839925 -181.042933 
L 269.905896 -180.726346 
L 270.119507 -175.708217 
L 270.17242 -174.465202 
L 269.821453 -172.696167 
L 268.805495 -171.461906 
L 265.41457 -169.179487 
L 261.147546 -167.978383 
L 258.88605 -166.675671 
L 256.635109 -164.822142 
L 253.526542 -160.081898 
L 252.502667 -158.838011 
L 252.032951 -158.110717 
L 250.848107 -155.7053 
L 250.927272 -155.686048 
L 251.115033 -155.529056 
L 251.304628 -155.370531 
L 251.584347 -154.963033 
L 251.666151 -154.418632 
L 251.462959 -153.682782 
L 252.038229 -153.315926 
L 253.87487 -152.821794 
L 254.268059 -152.97474 
L 254.603193 -152.637832 
L 256.189143 -152.044231 
L 256.72483 -151.987545 
L 256.72483 -151.730853 
L 256.537472 -151.349024 
L 256.61136 -151.280573 
L 256.97816 -151.421754 
L 257.297461 -151.280573 
L 257.527041 -151.044202 
L 257.769816 -150.998212 
L 258.120783 -151.421754 
L 258.221059 -151.237791 
L 258.474389 -151.02602 
L 258.643276 -150.830293 
L 259.07077 -151.244208 
L 259.168407 -150.932969 
L 259.097158 -150.437768 
L 258.994243 -150.292309 
L 259.704094 -148.877295 
L 260.200198 -148.720071 
L 261.411431 -148.757505 
L 261.891702 -148.466588 
L 262.060589 -148.145723 
L 262.189893 -147.808815 
L 262.342946 -147.546775 
L 262.583082 -147.43982 
L 262.894466 -147.222701 
L 262.997381 -146.744613 
L 263.02377 -146.267594 
L 263.234878 -145.752071 
L 263.596401 -144.188389 
L 263.889313 -143.481416 
L 263.488208 -143.183012 
L 263.153074 -142.653585 
L 262.670164 -141.504889 
L 262.503916 -140.743369 
L 262.485444 -139.403223 
L 262.319197 -138.934761 
L 262.419473 -138.894118 
L 262.464333 -138.891979 
L 262.482805 -138.842779 
L 262.496 -138.6524 
L 262.189893 -138.480202 
L 262.084339 -137.58285 
L 261.799343 -137.239524 
L 262.200448 -136.48977 
L 262.670164 -135.851249 
L 262.385168 -134.888654 
L 261.894341 -134.3988 
L 261.358654 -134.06831 
L 260.925883 -133.565621 
L 260.822967 -133.268286 
L 260.720052 -132.824423 
L 260.574915 -131.870385 
L 260.667275 -131.656475 
L 260.838801 -131.365557 
L 260.896855 -131.107796 
L 260.661997 -130.994424 
L 260.561721 -130.878912 
L 260.643526 -130.612594 
L 260.799218 -130.327025 
L 260.925883 -130.14734 
L 260.598665 -129.737703 
L 260.442973 -129.641443 
L 260.213393 -129.609357 
L 260.213393 -129.300257 
L 260.503666 -128.981531 
L 260.537971 -128.58045 
L 260.40339 -127.462771 
L 260.493111 -126.868101 
L 260.714774 -126.291614 
L 261.274211 -125.318323 
L 261.100047 -125.301211 
L 260.925883 -125.318323 
L 261.242545 -124.671246 
L 261.648928 -124.515092 
L 261.997257 -124.303321 
L 262.097533 -123.749294 
L 262.145032 -123.493672 
L 262.316558 -122.913976 
L 262.717663 -122.632684 
L 263.179462 -122.458347 
L 263.540985 -122.209142 
L 263.142518 -121.381311 
L 263.182101 -121.123549 
L 264.221809 -119.569494 
L 264.430278 -119.073223 
L 264.134727 -118.933112 
L 263.952646 -118.644333 
L 263.92098 -118.218652 
L 264.079311 -117.659278 
L 263.612234 -117.474246 
L 263.158351 -116.985462 
L 262.807384 -116.376888 
L 262.670164 -115.825 
L 262.836412 -114.944761 
L 263.237517 -114.734059 
L 263.730982 -114.724434 
L 264.166393 -114.435655 
L 265.580818 -111.283692 
L 266.156087 -110.570302 
L 267.454403 -109.732845 
L 268.668274 -108.469707 
L 268.95327 -107.967018 
L 268.531054 -107.743483 
L 268.436055 -107.362723 
L 268.813411 -106.543448 
L 269.48368 -105.482454 
L 269.705343 -104.928428 
L 270.006172 -103.195757 
L 270.006172 -102.939065 
L 269.897979 -102.613922 
L 270.085338 -102.444933 
L 270.409917 -102.31017 
L 270.721301 -102.091982 
L 271.003658 -101.651327 
L 271.074907 -101.311211 
L 271.101296 -100.939007 
L 271.241155 -100.395676 
L 271.623789 -99.74539 
L 273.349598 -98.111118 
L 275.476513 -96.906805 
L 275.806369 -96.389143 
L 275.492346 -95.670405 
L 274.716523 -95.501417 
L 273.869452 -95.494999 
L 273.349598 -95.257559 
L 272.674052 -95.649014 
L 271.969478 -95.552755 
L 271.383653 -95.094988 
L 271.06963 -94.384807 
L 271.117129 -93.59334 
L 271.494485 -93.067121 
L 272.098782 -92.778343 
L 272.811272 -92.688501 
L 272.811272 -92.431809 
L 272.478777 -91.706654 
L 272.837661 -91.073481 
L 273.534317 -90.62427 
L 274.220419 -90.451003 
L 274.064727 -89.50766 
L 274.265279 -88.637047 
L 274.912964 -87.0281 
L 274.919715 -87.011331 
L 274.328612 -85.956755 
L 274.587219 -83.988784 
L 274.7693 -83.441174 
L 274.901243 -83.325663 
L 274.869577 -83.233681 
L 274.550275 -82.758801 
L 274.067366 -82.226166 
L 272.423361 -81.3363 
L 272.352112 -80.83789 
L 272.391695 -80.040006 
L 272.349473 -79.503092 
L 272.233363 -79.05602 
L 271.673927 -77.693414 
L 270.330751 -77.115857 
L 265.704844 -77.055962 
L 264.823467 -76.767184 
L 264.382779 -76.534022 
L 264.037089 -76.181071 
L 263.757371 -75.573566 
L 263.436433 -74.473995 
L 263.419598 -74.416314 
L 263.065992 -73.881539 
L 261.052548 -71.609815 
L 260.313669 -70.989476 
L 260.31103 -70.989476 
L 260.308391 -70.987337 
L 260.305752 -70.987337 
L 258.915077 -69.877145 
L 257.761899 -68.946637 
L 251.927397 -62.343237 
L 251.159491 -61.102559 
L 250.225338 -60.336761 
L 249.20938 -59.162396 
L 246.441224 -54.912005 
L 245.372489 -53.76117 
L 245.237908 -53.418914 
L 245.029438 -52.584665 
L 244.91069 -52.289469 
L 244.689026 -52.056308 
L 244.237783 -51.880901 
L 244.01348 -51.724747 
L 243.765428 -51.406021 
L 242.192672 -48.411282 
L 241.76254 -47.953515 
L 241.482821 -47.827308 
L 240.93394 -47.711797 
L 240.648944 -47.452966 
L 240.464224 -47.095736 
L 240.023536 -45.773773 
L 238.086619 -43.029308 
L 237.450655 -41.431401 
L 237.941482 -39.951144 
L 238.113007 -39.345779 
L 238.271338 -37.5853 
L 238.366337 -37.114698 
L 238.437586 -36.885814 
L 238.770081 -36.329649 
L 239.321601 -35.713588 
L 239.464099 -35.397001 
L 239.57757 -34.738159 
L 239.92326 -30.943396 
L 239.825622 -30.342309 
L 239.395489 -29.08238 
L 239.033967 -27.617097 
L 238.630222 -26.720814 
L 238.493002 -26.218126 
L 238.648694 -25.997798 
L 238.767443 -26.081223 
L 239.105216 -26.532573 
L 239.506321 -26.233099 
L 239.474655 -26.215987 
L 239.377017 -26.190317 
L 240.205617 -25.569979 
L 240.952412 -24.523959 
L 241.422128 -24.153895 
L 242.567389 -23.471522 
L 242.876135 -23.052259 
L 242.878774 -22.701446 
L 242.646555 -21.890728 
L 242.614889 -21.328144 
L 242.725721 -20.938828 
L 243.14002 -20.179448 
L 243.172262 -20.091768 
L 243.221825 -19.956982 
L 242.923634 -19.296 
L 242.406419 -19.53344 
L 241.841705 -20.076771 
L 241.385184 -20.331324 
L 241.102827 -20.427584 
L 240.630472 -21.133486 
L 240.371865 -21.394456 
L 240.094785 -21.428682 
L 239.519515 -21.24258 
L 238.595917 -21.31531 
L 238.049675 -21.259693 
L 237.500794 -21.330284 
L 236.872747 -21.788051 
L 235.914844 -22.915356 
L 235.402906 -23.084345 
L 234.86458 -22.532457 
L 233.980565 -22.996642 
L 231.982954 -23.088623 
L 231.046162 -23.394514 
L 229.753124 -24.778512 
L 229.209521 -25.007395 
L 227.797735 -24.94964 
L 226.599696 -25.338956 
L 226.409699 -25.512223 
L 226.351644 -25.773193 
L 226.422893 -26.04058 
L 226.420254 -26.331498 
L 226.140536 -26.663058 
L 225.929428 -26.70584 
L 225.317214 -26.626694 
L 225.061245 -26.643806 
L 224.765694 -26.782848 
L 223.934455 -27.351848 
L 222.126842 -27.717634 
L 221.403796 -28.280218 
L 221.23491 -29.597903 
L 220.91297 -31.058908 
L 220.179369 -32.316698 
L 219.25841 -33.236511 
L 217.883568 -33.963805 
L 216.946775 -34.8772 
L 216.479699 -35.159561 
L 215.965122 -35.059024 
L 215.524434 -34.631204 
L 215.162911 -34.175576 
L 214.896387 -33.987335 
L 214.503198 -34.325312 
L 213.645572 -35.724284 
L 213.215439 -36.190607 
L 212.962109 -36.269754 
L 212.566281 -36.175633 
L 212.373645 -36.203442 
L 212.115037 -36.393822 
L 211.640044 -36.883675 
L 211.381437 -37.067638 
L 210.903804 -37.198123 
L 209.07508 -36.979935 
L 208.688335 -36.813963 
L 208.222731 -36.614149 
L 207.848014 -36.731799 
L 206.900666 -36.511472 
L 206.47845 -36.507194 
L 203.990012 -37.2516 
L 202.559754 -38.058041 
L 202.206148 -38.147883 
L 201.744349 -37.809905 
L 200.947416 -36.560671 
L 200.509366 -36.126434 
L 199.960485 -36.030175 
L 199.569935 -36.314675 
L 199.205773 -36.744634 
L 198.743974 -37.080473 
L 198.348147 -37.118976 
L 197.311078 -36.89651 
L 196.920528 -36.699713 
L 196.403313 -36.08793 
L 196.714697 -35.711449 
L 197.303161 -35.332828 
L 197.614546 -34.708211 
L 197.406076 -34.329591 
L 196.933722 -34.229053 
L 196.395396 -34.222636 
L 195.994291 -34.132794 
L 195.469159 -33.591601 
L 194.635282 -32.297446 
L 194.083762 -31.79048 
L 193.484742 -31.561596 
L 193.015027 -31.655716 
L 192.600727 -31.974442 
L 192.183788 -32.434349 
L 191.706156 -32.81083 
L 191.305051 -32.875003 
L 190.86964 -32.847195 
L 190.297009 -32.941315 
L 189.893265 -33.253624 
L 187.626491 -36.122156 
L 187.228024 -36.197024 
L 186.262204 -36.032314 
L 185.710684 -36.120017 
L 185.475827 -36.102904 
L 185.21458 -35.94675 
L 184.808197 -35.414114 
L 184.515284 -35.123197 
L 183.910987 -34.894313 
L 183.351551 -35.039772 
L 181.19297 -36.205581 
L 180.794503 -36.109321 
L 180.799781 -35.397001 
L 179.480355 -35.343524 
L 178.435369 -35.760648 
L 178.131902 -35.754231 
L 177.870655 -35.546738 
L 177.775656 -35.290046 
L 177.722879 -34.909287 
L 177.590937 -34.318895 
L 177.408856 -33.745617 
L 177.282191 -33.561654 
L 175.310969 -33.377691 
L 174.923057 -33.146669 
L 174.36626 -32.442905 
L 174.115569 -32.194769 
L 173.553493 -32.26536 
L 173.490161 -32.329533 
L 173.345024 -32.124179 
L 172.856836 -30.962648 
L 172.7117 -30.470655 
L 172.534896 -30.010749 
L 172.218234 -29.60432 
L 172.073097 -28.158289 
L 171.809212 -27.122965 
L 171.310469 -26.714397 
L 170.463398 -27.155051 
L 169.14661 -28.470597 
L 168.436759 -28.862053 
L 167.618715 -28.765793 
L 167.156916 -28.402146 
L 166.658598 -27.855266 
L 166.299289 -27.460942 
L 165.731936 -27.238476 
L 164.555008 -27.332596 
L 163.911128 -27.582871 
L 163.581272 -28.066308 
L 163.684187 -28.611778 
L 164.650007 -30.284554 
L 164.763477 -30.382952 
L 164.927086 -30.432152 
L 165.074862 -30.524133 
L 165.135555 -30.757295 
L 165.088056 -30.936979 
L 165.078736 -30.94738 
L 164.884865 -31.163724 
L 164.878255 -31.178904 
L 164.837365 -31.272818 
L 164.834759 -31.274867 
L 164.486398 -31.548761 
L 164.396677 -31.687803 
L 164.396969 -31.691034 
L 164.41251 -31.863209 
L 164.607785 -32.173378 
L 164.647368 -32.342367 
L 164.496953 -34.344564 
L 164.36765 -35.033354 
L 164.130153 -35.816265 
L 164.124866 -35.820503 
L 163.895295 -36.004506 
L 163.040307 -35.640859 
L 162.523092 -35.585242 
L 161.966294 -35.649415 
L 160.498944 -36.178767 
L 160.500315 -36.191097 
L 160.554508 -36.678322 
L 160.538675 -37.326469 
L 160.578258 -37.551074 
L 160.697006 -37.812045 
L 159.675771 -37.82274 
L 159.142723 -37.974616 
L 158.704673 -38.331846 
L 158.572731 -38.627041 
L 158.16107 -39.944727 
L 157.696632 -42.032488 
L 157.387886 -42.864597 
L 156.788867 -43.283861 
L 156.59623 -43.49991 
L 156.166098 -44.299933 
L 155.950236 -44.393256 
L 155.809853 -44.453948 
L 155.662077 -44.385497 
L 155.564439 -44.180143 
L 153.350442 -41.606807 
L 153.157806 -41.431401 
L 152.796284 -41.277386 
L 152.532398 -41.232464 
L 151.74602 -41.241021 
L 151.255194 -41.129788 
L 150.838255 -40.913739 
L 150.466177 -40.539396 
L 150.117849 -39.951144 
L 149.708827 -38.60779 
L 149.753687 -38.560729 
L 149.835492 -38.436662 
L 149.88563 -38.239864 
L 149.824936 -37.963921 
L 149.711466 -37.874078 
L 149.397442 -37.865522 
L 149.323554 -37.848409 
L 149.144112 -37.041969 
L 149.078141 -36.526446 
L 148.893421 -36.194885 
L 148.107044 -35.861186 
L 147.465803 -35.726423 
L 147.201917 -35.745674 
L 146.956504 -35.878299 
L 146.449845 -36.269754 
L 146.214987 -36.355318 
L 145.658189 -36.216276 
L 144.671258 -35.608772 
L 144.02474 -35.555295 
L 143.525997 -35.653693 
L 143.383499 -36.120017 
L 143.489053 -37.480484 
L 143.423081 -38.094406 
L 143.299055 -38.65485 
L 143.272667 -39.245241 
L 143.496969 -39.942588 
L 142.758091 -40.419607 
L 140.23007 -40.665603 
" style="stroke: #000000"/>
    </defs>
    <g clip-path="url(#p19de469187)">
     <use xlink:href="#m9c3dbc300d" x="0" y="280.512" style="fill: #f5f5f5; stroke: #000000"/>
    </g>
   </g>
  </g>
 </g>
 <defs>
  <clipPath id="p19de469187">
   <rect x="7.2" y="7.2" width="281.397149" height="266.112"/>
  </clipPath>
 </defs>
</svg>
