<?xml version="1.0" encoding="utf-8" standalone="no"?>
<!DOCTYPE svg PUBLIC "-//W3C//DTD SVG 1.1//EN"
  "http://www.w3.org/Graphics/SVG/1.1/DTD/svg11.dtd">
<svg xmlns:xlink="http://www.w3.org/1999/xlink" width="144.571161pt" height="280.512pt" viewBox="0 0 144.571161 280.512" xmlns="http://www.w3.org/2000/svg" version="1.1">
 <metadata>
  <rdf:RDF xmlns:dc="http://purl.org/dc/elements/1.1/" xmlns:cc="http://creativecommons.org/ns#" xmlns:rdf="http://www.w3.org/1999/02/22-rdf-syntax-ns#">
   <cc:Work>
    <dc:type rdf:resource="http://purl.org/dc/dcmitype/StillImage"/>
    <dc:date>2024-03-04T13:11:12.699582</dc:date>
    <dc:format>image/svg+xml</dc:format>
    <dc:creator>
     <cc:Agent>
      <dc:title>Matplotlib v3.8.0, https://matplotlib.org/</dc:title>
     </cc:Agent>
    </dc:creator>
   </cc:Work>
  </rdf:RDF>
 </metadata>
 <defs>
  <style type="text/css">*{stroke-linejoin: round; stroke-linecap: butt}</style>
 </defs>
 <g id="figure_1">
  <g id="patch_1">
   <path d="M 0 280.512 
L 144.571161 280.512 
L 144.571161 0 
L 0 0 
z
" style="fill: #ffffff"/>
  </g>
  <g id="axes_1">
   <g id="PatchCollection_1">
    <path d="M 99.136427 174.417794 
L 97.477338 174.786497 
L 97.131772 175.084111 
L 96.931121 175.526314 
L 96.444356 176.110698 
L 95.84426 176.619171 
L 95.301758 176.834851 
L 94.785504 177.265114 
L 93.183772 178.600049 
L 93.120604 178.775967 
L 92.814054 179.396497 
L 92.693291 179.731463 
L 92.446193 181.324359 
L 92.373736 182.388298 
L 92.390457 182.861829 
L 92.446193 183.232942 
L 92.622692 183.524532 
L 92.860501 183.664301 
L 93.072299 183.82817 
L 93.183772 184.187234 
L 92.988695 184.834273 
L 91.48381 187.052519 
L 90.833551 189.4021 
L 90.480554 189.949131 
L 90.894861 190.561227 
L 90.855846 191.101029 
L 90.508422 191.619142 
L 89.991931 192.177017 
L 90.484269 192.428844 
L 91.504247 193.192759 
L 95.307332 198.184716 
L 95.459678 198.457027 
L 95.691913 199.077557 
L 95.847976 199.367942 
L 96.095074 199.630613 
L 96.708175 200.096914 
L 96.895821 200.30416 
L 98.344969 204.089998 
L 98.697473 204.428872 
L 99.184732 204.897291 
L 99.73095 204.90693 
L 100.639454 204.712939 
L 101.514517 204.308088 
L 101.956693 203.682738 
L 102.149912 203.747803 
L 102.253954 203.757442 
L 103.190326 203.465853 
L 104.193583 203.379099 
L 104.683243 203.740907 
L 104.793679 203.822508 
L 104.429534 205.150322 
L 104.147136 205.841943 
L 103.662229 207.398691 
L 102.991533 208.81326 
L 102.677551 210.225419 
L 102.339416 210.808597 
L 102.044013 211.940011 
L 101.131793 212.049658 
L 99.097412 211.18935 
L 98.475021 211.126694 
L 98.161039 211.482144 
L 97.804326 212.452099 
L 97.432749 212.961778 
L 97.163356 213.14131 
L 96.691454 213.279875 
L 96.245562 213.519653 
L 95.801529 213.461817 
L 95.34449 213.317228 
L 94.878161 213.279875 
L 94.491722 213.548571 
L 93.349124 213.787144 
L 93.102026 214.064274 
L 93.122462 214.440207 
L 93.232077 214.883615 
L 93.248798 215.359556 
L 93.059294 216.184922 
L 92.271552 218.360996 
L 91.873965 219.951482 
L 90.883714 221.762468 
L 87.578541 224.621728 
L 86.943146 225.576019 
L 86.456381 226.978539 
L 86.140541 229.222088 
L 85.951037 229.924553 
L 85.703938 230.299281 
L 84.75456 231.347556 
L 84.414568 231.580104 
L 84.507462 231.865669 
L 84.479594 232.094602 
L 84.403421 232.304257 
L 84.360689 232.534396 
L 83.977966 232.988648 
L 83.862777 233.176615 
L 83.883214 233.664605 
L 83.938021 233.720031 
L 84.07922 233.712802 
L 84.267795 234.352611 
L 84.299379 234.668298 
L 84.375552 234.940609 
L 84.404839 234.987445 
L 84.70254 235.463541 
L 84.979364 235.76477 
L 85.596181 236.291317 
L 85.794974 236.576881 
L 86.049504 237.448034 
L 86.263161 238.587882 
L 86.367202 239.613264 
L 86.287313 240.138606 
L 86.907846 241.589322 
L 87.179097 245.293227 
L 87.533952 246.823467 
L 87.294285 247.531957 
L 87.468926 248.585051 
L 88.007083 250.633632 
L 88.112412 250.861332 
L 88.18702 251.056775 
L 88.295274 251.208575 
L 88.517635 251.299655 
L 88.517635 251.588075 
L 88.251387 251.937216 
L 87.651598 251.46284 
L 86.882113 251.248423 
L 86.057038 251.216165 
L 85.284627 251.299655 
L 84.506365 251.61464 
L 83.052242 252.665857 
L 82.449528 252.889762 
L 80.35173 254.310991 
L 80.070853 254.709466 
L 74.625942 258.567087 
L 73.440993 259.684716 
L 72.920201 259.675228 
L 72.361373 259.420963 
L 71.602128 259.257778 
L 69.38291 259.227418 
L 68.768492 258.96746 
L 68.45982 259.502556 
L 68.075078 259.451323 
L 67.615727 259.155313 
L 67.270483 258.96746 
L 67.624505 259.546198 
L 67.741537 259.842209 
L 67.78835 260.242582 
L 66.980829 259.007308 
L 65.686163 257.876397 
L 63.123163 256.394448 
L 61.652062 256.056372 
L 60.513212 255.516919 
L 59.300032 255.572354 
L 56.412843 256.001665 
L 55.184008 255.550059 
L 53.817751 255.055278 
L 52.745266 255.56167 
L 51.177052 255.767108 
L 49.615915 255.159928 
L 49.544183 255.234076 
L 47.631058 254.130728 
L 46.096476 253.844205 
L 44.419994 253.975133 
L 43.887498 254.134523 
L 43.417907 254.481766 
L 42.281235 255.756887 
L 40.073719 255.756887 
L 39.642164 255.882122 
L 38.71176 256.49122 
L 38.243632 256.711331 
L 37.699433 256.753076 
L 36.854373 256.986383 
L 36.065494 257.722729 
L 35.355025 257.423757 
L 34.706341 258.096507 
L 34.413761 258.331797 
L 34.036333 258.477905 
L 33.316587 259.113568 
L 32.942084 259.257778 
L 32.397886 259.047155 
L 32.005829 258.637295 
L 31.616698 258.384927 
L 31.078351 258.624012 
L 31.324118 257.316634 
L 31.520146 256.669585 
L 31.692768 256.394448 
L 33.094561 254.089623 
L 33.629647 252.810067 
L 34.109478 251.701926 
L 33.780326 250.314852 
L 34.429853 249.682984 
L 35.267094 248.783997 
L 35.780309 246.720742 
L 35.498846 245.909568 
L 35.216665 245.172216 
L 35.795183 243.995987 
L 36.802539 242.822526 
L 36.992853 241.690706 
L 37.617511 240.136652 
L 38.046226 238.044086 
L 38.269228 236.793721 
L 38.35424 234.659684 
L 38.145422 233.55438 
L 37.791705 232.816092 
L 37.316154 232.225966 
L 37.23862 231.618766 
L 37.730154 229.561874 
L 37.895462 228.286752 
L 38.2173 227.095121 
L 38.688254 226.8602 
L 39.715309 226.668183 
L 39.911337 225.54676 
L 39.911337 225.370292 
L 39.56463 225.687175 
L 38.765548 225.903543 
L 37.87937 225.914875 
L 37.580939 225.102744 
L 37.847831 222.727756 
L 38.293664 220.226282 
L 38.229877 218.677128 
L 38.019236 217.568216 
L 37.449247 216.384005 
L 36.255552 216.15033 
L 34.782412 215.205374 
L 34.955034 214.814489 
L 35.202264 214.647509 
L 35.481678 214.514684 
L 35.76548 214.222468 
L 37.628487 210.095612 
L 38.300441 206.778557 
L 39.112877 204.274231 
L 38.985004 201.768089 
L 38.714872 198.820083 
L 38.369562 196.24039 
L 37.439469 194.394037 
L 36.510096 193.403078 
L 35.377812 192.046364 
L 34.06998 190.942018 
L 33.064968 190.543542 
L 33.615018 189.964804 
L 34.434242 190.31015 
L 35.76548 191.499883 
L 37.406854 192.074827 
L 38.186579 192.515047 
L 38.243632 193.122248 
L 39.738715 193.065322 
L 43.337448 194.061511 
L 45.138277 193.467593 
L 44.058657 193.399283 
L 43.12679 193.19625 
L 40.48772 191.921129 
L 40.168808 191.528346 
L 39.961076 190.890785 
L 39.899634 190.236147 
L 39.95815 189.646024 
L 40.142476 189.205804 
L 40.451147 188.981898 
L 40.451147 188.632758 
L 39.93767 188.443008 
L 39.586574 187.900322 
L 39.478319 187.247582 
L 39.715309 186.723871 
L 39.15063 186.628996 
L 38.445512 188.109048 
L 37.730154 188.344338 
L 37.730154 188.632758 
L 38.528897 188.746608 
L 38.901937 189.422119 
L 38.910714 190.184915 
L 38.609357 190.543542 
L 37.749172 190.475232 
L 37.032351 190.27979 
L 35.76548 189.589099 
L 34.387429 189.097646 
L 32.623695 189.435867 
L 31.010335 191.342719 
L 31.294388 191.565404 
L 29.254796 192.442445 
L 25.765189 192.875552 
L 25.037114 193.16904 
L 24.453523 193.610457 
L 23.798621 193.757012 
L 22.870022 193.480875 
L 22.710566 193.467593 
L 22.589145 193.209533 
L 22.597922 192.871777 
L 22.694474 192.58146 
L 22.833449 192.456224 
L 23.093845 192.052056 
L 24.170022 190.956664 
L 24.39145 189.483229 
L 24.394137 187.272411 
L 23.521312 185.132872 
L 22.428592 183.361085 
L 21.917675 181.958722 
L 22.574869 181.591402 
L 24.25435 181.374605 
L 25.787328 181.231992 
L 26.538974 181.703081 
L 26.906161 182.266639 
L 27.128522 182.266639 
L 26.906161 181.310298 
L 27.447434 181.019981 
L 28.582644 180.706893 
L 29.118065 180.644275 
L 29.118065 180.353957 
L 29.656073 179.699045 
L 30.240878 179.111947 
L 31.264016 178.30597 
L 32.552953 177.171847 
L 32.693392 177.073177 
L 32.902586 176.887221 
L 33.064968 176.824604 
L 33.064968 176.538081 
L 32.705095 175.92329 
L 32.286705 174.993515 
L 32.070196 174.033379 
L 32.327667 173.323713 
L 31.493814 173.380638 
L 31.116386 172.629227 
L 30.908654 171.496419 
L 30.586816 170.397765 
L 32.11262 167.107497 
L 33.043024 165.650215 
L 34.293804 164.667309 
L 35.01355 164.488944 
L 36.555446 164.358017 
L 37.23862 164.062006 
L 38.539138 163.065818 
L 39.103817 162.468105 
L 39.446135 161.802082 
L 38.489399 162.515542 
L 36.883136 163.714763 
L 33.780326 164.062006 
L 33.307809 164.460482 
L 32.617321 165.79063 
L 30.875008 168.329488 
L 28.884001 172.355987 
L 27.778049 173.653878 
L 27.397695 174.276259 
L 27.170946 175.04285 
L 27.255058 175.927588 
L 27.325517 177.476849 
L 27.469681 178.583716 
L 26.957155 179.68777 
L 25.131366 180.271169 
L 23.08627 180.633807 
L 20.747991 180.407072 
L 20.090929 180.922491 
L 19.433289 181.73299 
L 18.038065 180.83782 
L 16.449356 180.158515 
L 15.571616 180.01051 
L 14.044349 180.234415 
L 13.324603 179.99533 
L 13.339232 179.056066 
L 13.574759 178.264808 
L 13.116871 176.234481 
L 13.116871 175.230702 
L 13.315825 174.788584 
L 13.748844 174.251591 
L 14.625819 173.332326 
L 15.804 169.558079 
L 15.709129 166.748869 
L 15.303906 164.984192 
L 15.663 163.947186 
L 15.810329 162.692702 
L 17.207171 160.108927 
L 17.648601 158.855064 
L 18.387712 157.158108 
L 18.534352 155.389941 
L 18.756919 153.916165 
L 18.272129 151.612496 
L 17.849351 150.690311 
L 16.55761 149.327904 
L 16.286974 148.863016 
L 16.699512 148.732089 
L 18.313586 149.201362 
L 20.962425 147.434545 
L 21.625439 146.846005 
L 22.362045 146.773504 
L 22.80858 147.312757 
L 23.178693 147.41712 
L 23.598546 146.984489 
L 23.324983 146.371596 
L 22.736898 145.806141 
L 23.320733 144.85976 
L 24.131968 143.903759 
L 24.427199 143.388567 
L 25.090878 142.948358 
L 26.123393 142.288192 
L 26.640893 141.405692 
L 27.010879 140.670076 
L 27.750578 139.345901 
L 27.825841 138.535106 
L 27.753862 137.650039 
L 28.19954 136.3985 
L 28.424399 134.628414 
L 31.252436 127.039847 
L 35.742074 113.905339 
L 36.277495 113.233623 
L 36.695884 113.852209 
L 37.291285 114.127347 
L 38.73224 114.189964 
L 38.73224 113.842722 
L 38.152932 113.294343 
L 37.61166 112.892073 
L 36.984076 112.652988 
L 35.338314 112.440468 
L 34.723896 112.04389 
L 34.359634 111.360789 
L 34.293804 110.368396 
L 34.750228 109.059119 
L 35.841551 106.880787 
L 38.243632 97.602003 
L 38.736827 94.692798 
L 39.422335 92.560587 
L 39.882079 89.843118 
L 39.977168 89.69701 
L 40.183437 89.558492 
L 40.206843 90.543296 
L 40.183437 90.858281 
L 40.900257 89.670445 
L 41.418124 89.252995 
L 41.92575 89.558492 
L 42.146648 89.558492 
L 42.146648 89.268175 
L 42.0618 89.148632 
L 41.916973 88.886777 
L 41.830662 88.577484 
L 41.92575 88.311834 
L 42.276846 88.112596 
L 42.478726 88.249216 
L 42.619164 88.497789 
L 42.794712 88.630614 
L 43.150197 88.488301 
L 43.45448 88.146751 
L 43.887498 87.355493 
L 43.316967 87.017737 
L 42.998055 86.467462 
L 43.094607 85.960829 
L 43.76754 85.735026 
L 44.598467 85.653434 
L 45.243606 85.414348 
L 45.800971 85.021565 
L 46.36565 84.492162 
L 45.760009 84.53201 
L 44.853012 84.98741 
L 44.089378 85.143006 
L 43.94894 85.215111 
L 43.751449 85.230291 
L 42.921985 84.869765 
L 42.661588 84.492162 
L 42.373397 83.207554 
L 43.744134 81.315744 
L 43.395964 80.325248 
L 43.334522 81.088044 
L 43.110699 81.723707 
L 42.847377 81.898277 
L 42.661588 81.279692 
L 42.153962 82.228443 
L 41.767757 83.446639 
L 41.52199 84.73694 
L 41.434216 85.909596 
L 41.27476 86.661007 
L 40.885629 87.736891 
L 40.405797 88.738772 
L 39.961076 89.268175 
L 43.401816 73.382289 
L 43.395964 71.670742 
L 42.97026 68.543659 
L 43.00537 66.90232 
L 43.644657 66.255272 
L 43.644657 65.968749 
L 42.298789 65.655661 
L 41.600986 64.376745 
L 41.127007 62.763868 
L 40.451147 61.450797 
L 40.626695 60.832212 
L 40.54331 60.312296 
L 40.347281 59.803766 
L 40.183437 59.22313 
L 40.189288 57.792414 
L 40.021055 57.340808 
L 39.769486 57.212815 
L 39.618758 56.729812 
L 39.485634 56.244052 
L 38.978008 55.403459 
L 38.774665 54.72605 
L 38.775725 54.155156 
L 38.711363 52.81354 
L 39.096567 51.253188 
L 38.678789 50.193284 
L 38.614408 49.22652 
L 38.453595 48.571802 
L 38.356995 47.792352 
L 37.892536 46.375145 
L 37.730154 45.327724 
L 37.491702 44.559235 
L 37.457155 43.70991 
L 37.163988 42.867687 
L 37.095392 41.775165 
L 37.219602 41.25189 
L 38.024197 40.950187 
L 40.231712 40.591559 
L 40.854908 40.305036 
L 41.426901 39.897073 
L 41.92575 39.424595 
L 37.945201 40.591559 
L 37.114274 40.699717 
L 36.650535 40.646587 
L 35.995209 40.246417 
L 35.305154 38.731147 
L 35.304767 37.394128 
L 35.602382 35.293966 
L 35.355869 33.96738 
L 35.505084 33.475927 
L 35.76548 33.030014 
L 38.313851 30.969327 
L 39.530984 29.633486 
L 39.961076 27.906759 
L 40.364178 27.620749 
L 41.176073 27.217103 
L 42.101298 26.944792 
L 42.83702 26.468851 
L 43.110128 25.998935 
L 43.492852 24.994037 
L 43.804976 24.525325 
L 44.41622 24.080712 
L 45.044184 23.957811 
L 46.360493 23.922869 
L 47.020971 23.658993 
L 48.25832 22.836036 
L 48.934589 22.585414 
L 54.4878 21.717877 
L 55.091611 21.403394 
L 56.014979 20.592487 
L 56.334535 20.393676 
L 56.605785 20.331021 
L 57.222602 20.304513 
L 57.882151 20.044251 
L 58.959722 19.296 
L 59.282065 19.744228 
L 59.608123 20.453922 
L 59.498508 22.460103 
L 59.619271 23.216789 
L 60.07631 23.565009 
L 60.620669 23.416805 
L 61.259781 23.13124 
L 62.006649 23.06015 
L 62.695924 23.3421 
L 63.243999 23.857803 
L 63.535686 24.551834 
L 63.45394 25.36515 
L 63.070287 25.951943 
L 62.498988 26.418245 
L 61.454858 27.074923 
L 60.406084 28.072591 
L 59.019175 30.064314 
L 58.677324 30.905343 
L 58.623446 31.774086 
L 59.030322 32.606682 
L 60.317834 33.094672 
L 60.589085 33.46217 
L 60.648537 34.080291 
L 60.509137 35.198654 
L 60.498049 35.287615 
L 63.593281 35.473171 
L 65.14048 35.041318 
L 65.207781 35.022534 
L 66.389394 33.833284 
L 66.742391 33.270589 
L 67.182709 32.817541 
L 67.693627 32.587403 
L 68.271428 32.680181 
L 68.940266 32.664517 
L 69.278401 32.058446 
L 69.453042 31.278867 
L 69.622109 30.74268 
L 70.329962 30.477599 
L 70.42843 31.737939 
L 70.671812 33.085032 
L 71.81441 33.087442 
L 72.063366 32.812722 
L 72.187844 32.510288 
L 72.356912 32.253642 
L 72.734062 32.131946 
L 73.707592 32.189781 
L 75.937051 31.665644 
L 76.947739 31.158375 
L 77.510677 31.298145 
L 78.506502 31.993381 
L 79.136324 32.293404 
L 81.07038 32.374133 
L 80.514873 33.840513 
L 80.537167 34.279102 
L 81.116827 34.595994 
L 81.752222 34.657445 
L 82.51767 34.546593 
L 83.251534 34.292356 
L 83.795893 33.914013 
L 83.983539 33.577842 
L 84.022555 33.26095 
L 84.093154 32.98141 
L 84.360689 32.756091 
L 84.637514 32.758501 
L 85.181873 33.133229 
L 85.531155 33.165762 
L 86.030925 33.336859 
L 86.49168 33.95739 
L 86.837246 34.768297 
L 86.989593 35.509319 
L 87.463353 35.110492 
L 88.330984 34.145356 
L 88.815891 33.826054 
L 89.358393 33.733276 
L 90.664484 33.771833 
L 91.312885 33.669415 
L 93.865615 32.816337 
L 95.04537 32.100618 
L 95.380954 31.628975 
L 95.790381 31.053548 
L 95.872128 30.313731 
L 95.639893 28.803974 
L 95.717924 28.152116 
L 95.981743 27.877395 
L 96.531676 27.46893 
L 97.163356 27.125529 
L 97.679848 27.043595 
L 98.837308 27.74606 
L 99.931601 28.661794 
L 101.063051 29.164243 
L 102.339416 28.620827 
L 103.181037 28.02801 
L 103.501119 28.185813 
L 104.002221 28.432861 
L 104.879142 29.101588 
L 105.886114 29.300398 
L 108.121146 29.120866 
L 108.973914 28.607573 
L 109.200576 27.217103 
L 110.298584 27.406274 
L 111.610249 29.371488 
L 112.685963 29.684766 
L 115.246125 29.581143 
L 116.466754 29.213645 
L 116.946087 28.217181 
L 117.82115 28.57504 
L 118.306057 29.13653 
L 118.450972 29.907675 
L 118.157426 31.921086 
L 118.441682 32.248822 
L 119.082652 32.341601 
L 120.011593 32.642829 
L 119.597285 33.521211 
L 118.720365 37.331148 
L 118.568018 37.768532 
L 118.311631 38.155309 
L 118.099832 38.597512 
L 118.209447 39.002363 
L 118.449114 39.4036 
L 118.614465 39.842188 
L 118.70736 40.708521 
L 118.895006 41.620641 
L 119.389202 42.366483 
L 120.39989 42.738801 
L 120.773325 42.637588 
L 121.312111 42.371302 
L 121.804449 42.038746 
L 122.042258 41.753181 
L 122.291215 41.543526 
L 122.785411 41.557985 
L 125.702286 42.147188 
L 127.457985 42.774948 
L 129.070627 43.796715 
L 130.586659 45.351054 
L 131.088287 46.041469 
L 131.45429 46.499337 
L 129.739465 48.95977 
L 128.808666 49.916472 
L 128.580146 50.388798 
L 128.606157 50.757501 
L 128.702766 51.068369 
L 128.686045 51.379237 
L 127.316786 53.526393 
L 127.31307 53.926424 
L 126.19091 54.008359 
L 125.691139 54.198735 
L 125.226669 54.565029 
L 125.334426 54.586717 
L 125.35672 54.868667 
L 125.313989 55.232551 
L 125.226669 55.490402 
L 125.081754 55.533779 
L 124.639578 55.447026 
L 124.492805 55.490402 
L 123.363213 57.283314 
L 122.20761 58.444851 
L 121.03157 59.338897 
L 118.924732 60.240172 
L 118.599602 60.469106 
L 116.247523 60.505253 
L 115.61027 60.613695 
L 115.194104 61.069153 
L 113.915881 62.956048 
L 113.646488 63.652488 
L 113.442121 64.030831 
L 112.173188 65.098384 
L 111.706859 65.686382 
L 111.571234 66.016529 
L 111.660412 67.168426 
L 111.363151 68.016685 
L 109.940013 70.089137 
L 109.449532 70.568692 
L 108.46857 70.672315 
L 106.255832 70.477119 
L 105.514743 70.850284 
L 105.499674 70.857872 
L 105.358475 71.735049 
L 104.973894 72.347145 
L 105.048209 72.935143 
L 105.401206 73.462895 
L 106.528941 74.643711 
L 107.034285 75.475101 
L 107.809022 77.369225 
L 108.109999 78.352435 
L 108.405402 78.740417 
L 108.944188 78.880187 
L 109.336201 79.152498 
L 109.514558 79.769413 
L 109.365927 80.357411 
L 108.778837 80.542968 
L 108.728674 81.723783 
L 108.773263 82.032241 
L 108.892167 82.521436 
L 108.85501 82.781698 
L 108.756542 83.037139 
L 108.689658 83.497416 
L 108.689658 84.401102 
L 108.767689 85.063804 
L 109.22287 86.584405 
L 109.5127 88.148383 
L 109.585157 88.979774 
L 109.5833 89.546083 
L 109.330628 90.338916 
L 108.498296 91.849878 
L 108.282782 92.575236 
L 108.357097 93.389758 
L 108.667364 93.864494 
L 109.070524 94.286214 
L 109.447674 94.922408 
L 109.646468 95.72729 
L 109.546142 96.29119 
L 108.706379 97.472005 
L 108.043115 99.108278 
L 108.253056 100.628879 
L 109.087245 101.978383 
L 110.296726 103.106182 
L 109.666904 104.229161 
L 109.349206 104.554488 
L 107.797875 105.691927 
L 107.573071 105.944958 
L 107.441161 106.306433 
L 107.418009 106.706842 
L 107.396572 107.077577 
L 107.290673 107.357117 
L 106.629267 107.812575 
L 105.932561 107.860771 
L 105.228423 107.795706 
L 104.987937 107.835847 
L 104.535433 107.911378 
L 102.985959 108.921095 
L 102.339416 109.210275 
L 102.016145 109.644043 
L 101.663147 110.723646 
L 101.356597 111.268267 
L 101.653858 111.950248 
L 101.912103 113.540734 
L 102.339416 114.174519 
L 102.774161 114.30224 
L 103.727254 114.43719 
L 104.113694 114.58178 
L 104.498276 114.926385 
L 104.986899 115.69994 
L 105.785788 116.700018 
L 107.231221 119.297812 
L 106.612546 120.326808 
L 106.443478 120.823233 
L 106.510362 121.329296 
L 106.369163 121.746197 
L 106.159222 122.898094 
L 106.049607 123.078831 
L 105.700326 123.343912 
L 105.594426 123.553567 
L 105.598142 123.818648 
L 105.726336 124.288565 
L 105.718904 124.522318 
L 105.657594 124.934398 
L 105.629726 125.715182 
L 105.507106 126.16582 
L 104.602317 127.520143 
L 104.260467 127.722569 
L 103.437425 128.067174 
L 103.156885 128.303337 
L 102.896781 128.934712 
L 102.946944 129.435956 
L 103.101148 129.864905 
L 103.156885 130.255297 
L 103.021259 130.698705 
L 102.592088 131.462621 
L 102.426737 131.901209 
L 102.41559 132.334978 
L 102.521489 132.653075 
L 102.560504 132.995271 
L 102.146197 133.995349 
L 101.620416 134.217053 
L 96.331025 134.877346 
L 95.210722 134.82674 
L 94.430411 134.344774 
L 93.815452 134.53997 
L 92.381167 134.494183 
L 91.710472 134.633954 
L 91.119665 134.891805 
L 90.631042 135.029165 
L 82.870668 134.658052 
L 82.921511 134.779018 
L 83.195797 135.431606 
L 84.360689 138.670414 
L 85.007232 139.263232 
L 86.077373 140.699489 
L 86.679326 141.277848 
L 87.894381 141.914042 
L 88.204648 142.316483 
L 88.546498 143.33825 
L 89.094573 143.788888 
L 89.858163 144.157591 
L 91.368621 144.562442 
L 91.634299 145.027539 
L 91.630583 146.022798 
L 91.442937 147.087941 
L 91.160539 147.760283 
L 90.972892 148.418166 
L 90.991471 149.449572 
L 91.162396 150.442421 
L 91.428074 150.991862 
L 92.104343 151.534073 
L 93.88791 153.739065 
L 93.403003 154.592144 
L 93.350982 155.570534 
L 93.627806 156.505547 
L 94.129434 157.235725 
L 95.021218 157.739378 
L 96.018901 158.004459 
L 96.864237 158.402081 
L 97.304555 159.293717 
L 97.228382 159.766043 
L 96.834511 160.676958 
L 96.884674 161.06735 
L 97.254393 161.442078 
L 97.782031 161.718003 
L 98.330106 161.813192 
L 98.764851 161.644504 
L 99.62505 161.115547 
L 100.57257 161.007104 
L 101.510801 161.269776 
L 102.339416 161.844519 
L 102.917218 162.409624 
L 103.420704 163.245834 
L 103.647366 164.159159 
L 103.398409 164.956812 
L 103.809001 165.285753 
L 103.866596 165.708678 
L 103.667802 166.181004 
L 103.314805 166.649715 
L 102.110897 169.023395 
L 101.306434 170.153604 
L 100.531697 170.807872 
L 101.029609 171.722402 
L 100.847537 172.44776 
L 100.890268 173.114077 
L 100.594865 173.302044 
L 100.154547 173.669542 
L 99.717944 174.129819 
L 99.136427 174.417794 
" clip-path="url(#pa8d55f2bea)" style="fill: #f5f5f5; stroke: #000000"/>
    <path d="M 68.546131 260.532899 
L 70.40694 260.79855 
L 71.12376 260.517719 
L 71.983945 259.605021 
L 72.065868 259.743539 
L 72.128772 259.895339 
L 72.229712 260.242582 
L 72.019055 260.400074 
L 71.983945 260.532899 
L 71.322715 260.984505 
L 70.409865 261.216 
L 69.420945 261.187537 
L 68.546131 260.880142 
L 68.546131 260.532899 
" clip-path="url(#pa8d55f2bea)" style="fill: #f5f5f5; stroke: #000000"/>
    <path d="M 29.523288 172.532455 
L 29.733946 172.395835 
L 29.758815 172.691845 
L 29.513048 173.392023 
L 29.040532 174.147229 
L 28.371987 174.837919 
L 28.137923 174.746839 
L 28.434891 173.932811 
L 28.794764 173.24971 
L 29.199988 172.807592 
L 29.422348 172.617842 
L 29.523288 172.532455 
" clip-path="url(#pa8d55f2bea)" style="fill: #f5f5f5; stroke: #000000"/>
   </g>
  </g>
 </g>
 <defs>
  <clipPath id="pa8d55f2bea">
   <rect x="7.2" y="7.2" width="130.171161" height="266.112"/>
  </clipPath>
 </defs>
</svg>
