<?xml version="1.0" encoding="utf-8" standalone="no"?>
<!DOCTYPE svg PUBLIC "-//W3C//DTD SVG 1.1//EN"
  "http://www.w3.org/Graphics/SVG/1.1/DTD/svg11.dtd">
<svg xmlns:xlink="http://www.w3.org/1999/xlink" width="371.52pt" height="98.14087pt" viewBox="0 0 371.52 98.14087" xmlns="http://www.w3.org/2000/svg" version="1.1">
 <metadata>
  <rdf:RDF xmlns:dc="http://purl.org/dc/elements/1.1/" xmlns:cc="http://creativecommons.org/ns#" xmlns:rdf="http://www.w3.org/1999/02/22-rdf-syntax-ns#">
   <cc:Work>
    <dc:type rdf:resource="http://purl.org/dc/dcmitype/StillImage"/>
    <dc:date>2024-03-04T13:11:12.725855</dc:date>
    <dc:format>image/svg+xml</dc:format>
    <dc:creator>
     <cc:Agent>
      <dc:title>Matplotlib v3.8.0, https://matplotlib.org/</dc:title>
     </cc:Agent>
    </dc:creator>
   </cc:Work>
  </rdf:RDF>
 </metadata>
 <defs>
  <style type="text/css">*{stroke-linejoin: round; stroke-linecap: butt}</style>
 </defs>
 <g id="figure_1">
  <g id="patch_1">
   <path d="M 0 98.14087 
L 371.52 98.14087 
L 371.52 0 
L 0 0 
z
" style="fill: #ffffff"/>
  </g>
  <g id="axes_1">
   <g id="PatchCollection_1">
    <path d="M 33.31147 62.796414 
L 34.699596 64.082257 
L 34.724121 64.970469 
L 34.047226 65.848353 
L 32.820967 68.068884 
L 32.310843 68.626599 
L 31.903725 69.20497 
L 31.741859 70.201627 
L 31.22683 70.568273 
L 30.093767 70.681881 
L 28.960703 70.568273 
L 28.445674 70.201627 
L 27.665774 69.050049 
L 24.237153 67.134196 
L 23.432727 65.393919 
L 24.217533 63.555526 
L 25.610563 62.822235 
L 32.585525 62.615674 
L 33.31147 62.796414 
" clip-path="url(#pddf93afe72)" style="fill: #f5f5f5; stroke: #000000"/>
    <path d="M 335.657911 62.796414 
L 334.588613 61.758445 
L 332.827705 62.181895 
L 330.532148 63.142404 
L 321.089953 65.368099 
L 319.201514 66.26664 
L 316.71466 65.466216 
L 312.962307 65.92065 
L 309.455206 65.430067 
L 307.606008 61.851398 
L 309.474827 61.789429 
L 310.078146 61.851398 
L 312.461994 61.644837 
L 314.860557 60.735968 
L 317.038393 59.424306 
L 318.755155 58.024855 
L 319.893124 57.420664 
L 329.53152 55.861128 
L 331.066797 56.134822 
L 335.255698 57.591077 
L 341.583195 57.844114 
L 343.152806 58.458633 
L 344.33492 59.945872 
L 343.452013 60.410635 
L 340.229404 60.193746 
L 339.415168 60.498423 
L 337.124516 62.088943 
L 336.491767 62.796414 
L 335.657911 62.796414 
" clip-path="url(#pddf93afe72)" style="fill: #f5f5f5; stroke: #000000"/>
    <path d="M 343.967042 41.918259 
L 342.304235 39.284606 
L 337.271668 34.569851 
L 337.306003 34.120581 
L 340.27355 34.105089 
L 343.71198 34.802232 
L 346.635382 36.242996 
L 348.087273 38.448034 
L 347.73411 38.535823 
L 346.439181 38.448034 
L 347.263227 39.315591 
L 345.978107 39.377559 
L 344.97748 39.098702 
L 344.300585 38.473855 
L 343.967042 37.508182 
L 343.152806 37.508182 
L 344.241724 39.666744 
L 344.447736 40.673729 
L 343.967042 41.918259 
" clip-path="url(#pddf93afe72)" style="fill: #f5f5f5; stroke: #000000"/>
    <path d="M 301.77392 41.918259 
L 301.278511 43.477795 
L 302.136892 44.376336 
L 303.126827 44.819164 
L 304.801117 43.992118 
L 304.45333 45.16612 
L 304.792522 46.088765 
L 306.2402 48.050195 
L 304.99276 48.955253 
L 304.821533 50.031821 
L 303.747458 50.129187 
L 302.569044 48.255982 
L 301.225542 48.266107 
L 300.78779 49.613065 
L 301.964336 51.217393 
L 300.80758 52.211392 
L 299.372578 51.953172 
L 297.349577 50.8985 
L 295.245316 51.611135 
L 293.03805 52.700745 
L 290.659107 53.258459 
L 288.667662 54.167328 
L 286.578117 56.253594 
L 282.308736 62.887659 
L 281.964828 66.230711 
L 280.294765 68.430366 
L 279.671826 68.812504 
L 276.885765 69.421859 
L 276.25792 70.201627 
L 277.489264 73.937261 
L 275.141477 76.119585 
L 270.629181 78.909617 
L 264.368112 81.092557 
L 261.650722 81.030588 
L 258.894092 80.441889 
L 256.426859 80.204344 
L 254.970063 80.514186 
L 251.418816 81.939457 
L 250.570245 82.032409 
L 246.891468 81.939457 
L 244.414425 82.564304 
L 237.351172 86.344371 
L 235.860041 86.463143 
L 234.530776 86.411503 
L 233.368283 86.525111 
L 232.411801 87.134466 
L 231.886962 86.344371 
L 231.734906 85.998381 
L 231.66133 85.399354 
L 232.970975 85.017216 
L 233.279992 84.407861 
L 232.779678 83.633257 
L 231.66133 82.796685 
L 229.316723 84.913935 
L 227.933502 85.306401 
L 226.22655 84.882951 
L 222.90584 84.531798 
L 221.758062 84.237448 
L 221.140027 83.519649 
L 220.698574 82.657256 
L 220.065824 81.939457 
L 218.555073 81.113213 
L 217.475965 80.865339 
L 215.50414 80.989276 
L 212.70827 81.665763 
L 209.274744 84.046379 
L 206.822226 83.746866 
L 204.482524 81.918801 
L 202.525414 79.615645 
L 200.475109 78.283327 
L 198.226492 78.766624 
L 196.518442 78.987238 
L 195.24634 79.636301 
L 193.500147 79.977127 
L 189.536878 80.204344 
L 188.266474 80.860175 
L 187.035309 81.691584 
L 185.603039 81.975605 
L 183.70479 80.989276 
L 182.856219 81.572811 
L 181.983122 81.939457 
L 181.159076 80.503858 
L 179.084246 80.317953 
L 174.164494 80.989276 
L 173.252157 80.767223 
L 169.637146 79.336788 
L 164.697774 79.336788 
L 164.795875 77.601675 
L 163.721672 77.074945 
L 162.10301 77.436427 
L 160.577543 78.386607 
L 160.577543 79.336788 
L 162.225636 79.336788 
L 160.83751 81.247477 
L 158.458568 82.55914 
L 155.701937 83.3544 
L 153.180749 83.746866 
L 149.423491 83.612601 
L 147.593912 83.798506 
L 146.245027 83.679733 
L 145.617183 83.746866 
L 145.136489 84.263268 
L 144.930477 85.141152 
L 144.871617 86.344371 
L 142.6153 86.081005 
L 140.913253 84.831311 
L 138.205673 81.939457 
L 135.764342 81.805246 
L 133.043748 81.344947 
L 130.128379 81.392066 
L 128.40541 80.834355 
L 126.727888 82.269954 
L 124.751158 83.333744 
L 122.985345 83.746866 
L 121.533454 83.550633 
L 117.368948 83.117763 
L 114.728089 81.651977 
L 113.431722 82.683062 
L 114.279042 85.592085 
L 112.967391 85.514653 
L 111.215017 82.823198 
L 110.592882 81.624493 
L 110.643753 78.095254 
L 113.518625 76.739283 
L 114.381911 76.269357 
L 115.480639 75.933695 
L 116.412596 75.443113 
L 116.809904 74.492932 
L 116.324306 73.811281 
L 115.161812 73.201926 
L 113.569839 73.50481 
L 112.026906 72.819223 
L 112.11624 70.453423 
L 112.927972 69.259153 
L 114.098193 68.414014 
L 113.610213 67.121776 
L 113.11162 65.003311 
L 114.393295 63.685126 
L 114.328957 59.591457 
L 115.544405 54.993572 
L 116.483037 53.990974 
L 117.49238 53.018812 
L 118.176845 51.539284 
L 117.380362 50.198406 
L 115.845426 48.813502 
L 113.930648 42.734176 
L 112.794013 40.377946 
L 110.103753 39.840455 
L 107.92458 39.296245 
L 106.011759 35.555515 
L 104.827215 33.718406 
L 103.833737 31.432245 
L 104.076918 30.534536 
L 107.519417 29.530366 
L 110.281301 28.342037 
L 112.567048 27.386692 
L 114.26419 26.322903 
L 117.261505 23.933793 
L 117.422206 21.116356 
L 116.146738 18.896193 
L 115.989076 15.670729 
L 118.198029 12.762172 
L 124.221414 11.006403 
L 130.642107 11.212964 
L 134.992874 13.164966 
L 147.65547 15.75893 
L 160.17533 14.115147 
L 161.892093 14.3372 
L 166.414537 15.922555 
L 168.20978 16.036164 
L 172.928425 14.982703 
L 179.775856 14.352692 
L 182.973939 14.755486 
L 186.172023 15.922555 
L 188.143848 15.545581 
L 195.903615 15.623042 
L 200.681121 17.032821 
L 210.932646 14.982703 
L 220.399367 17.853901 
L 225.912627 16.242725 
L 232.29408 18.287679 
L 233.644313 17.248647 
L 235.222386 17.513075 
L 236.090578 18.597521 
L 236.527126 19.310156 
L 237.550556 19.823463 
L 238.704965 19.134918 
L 239.659984 17.8685 
L 240.858273 18.225711 
L 240.457392 19.892286 
L 242.794732 21.127012 
L 243.18326 22.377587 
L 243.953351 23.968107 
L 245.797645 24.071387 
L 249.770724 22.857842 
L 249.770724 21.912825 
L 247.774374 21.654624 
L 245.581823 20.53403 
L 243.84544 18.793754 
L 242.366728 17.26341 
L 250.290658 19.759426 
L 252.242863 20.177712 
L 253.631347 20.639203 
L 255.57032 21.008357 
L 257.304057 20.218573 
L 258.369253 18.582029 
L 261.101358 19.170727 
L 266.619742 20.763721 
L 268.501754 19.490105 
L 269.950044 19.785246 
L 271.431365 20.900676 
L 275.316153 21.77856 
L 277.425319 22.94563 
L 279.618573 25.26704 
L 280.942147 24.627682 
L 281.841061 23.363312 
L 282.542826 23.63701 
L 282.687354 24.264227 
L 282.064205 24.967766 
L 281.583289 25.949463 
L 282.49101 25.732566 
L 283.745294 25.233546 
L 284.510154 24.738485 
L 286.562419 27.72459 
L 288.599078 28.825653 
L 290.197354 27.695918 
L 293.432061 30.253965 
L 297.628815 30.850085 
L 299.733424 29.328365 
L 300.694812 28.404005 
L 301.705249 27.722354 
L 302.666636 27.975391 
L 302.715687 28.837783 
L 301.538478 35.112074 
L 301.273606 40.420692 
L 301.77392 41.918259 
" clip-path="url(#pddf93afe72)" style="fill: #f5f5f5; stroke: #000000"/>
   </g>
  </g>
 </g>
 <defs>
  <clipPath id="pddf93afe72">
   <rect x="7.2" y="7.2" width="357.12" height="83.74087"/>
  </clipPath>
 </defs>
</svg>
