<?xml version="1.0" encoding="utf-8" standalone="no"?>
<!DOCTYPE svg PUBLIC "-//W3C//DTD SVG 1.1//EN"
  "http://www.w3.org/Graphics/SVG/1.1/DTD/svg11.dtd">
<svg xmlns:xlink="http://www.w3.org/1999/xlink" width="144.468464pt" height="280.512pt" viewBox="0 0 144.468464 280.512" xmlns="http://www.w3.org/2000/svg" version="1.1">
 <metadata>
  <rdf:RDF xmlns:dc="http://purl.org/dc/elements/1.1/" xmlns:cc="http://creativecommons.org/ns#" xmlns:rdf="http://www.w3.org/1999/02/22-rdf-syntax-ns#">
   <cc:Work>
    <dc:type rdf:resource="http://purl.org/dc/dcmitype/StillImage"/>
    <dc:date>2024-03-04T13:11:12.750398</dc:date>
    <dc:format>image/svg+xml</dc:format>
    <dc:creator>
     <cc:Agent>
      <dc:title>Matplotlib v3.8.0, https://matplotlib.org/</dc:title>
     </cc:Agent>
    </dc:creator>
   </cc:Work>
  </rdf:RDF>
 </metadata>
 <defs>
  <style type="text/css">*{stroke-linejoin: round; stroke-linecap: butt}</style>
 </defs>
 <g id="figure_1">
  <g id="patch_1">
   <path d="M 0 280.512 
L 144.468464 280.512 
L 144.468464 0 
L 0 0 
z
" style="fill: #ffffff"/>
  </g>
  <g id="axes_1">
   <g id="PatchCollection_1">
    <defs>
     <path id="mbf2e16737a" d="M 20.883226 -47.532767 
L 23.451332 -47.84034 
L 27.019999 -51.063704 
L 27.953856 -54.932972 
L 26.786535 -69.327386 
L 25.652566 -73.147442 
L 19.804843 -84.133948 
L 19.349032 -86.379231 
L 20.816522 -90.617586 
L 21.138925 -93.576438 
L 20.983282 -96.289231 
L 20.138364 -97.470311 
L 16.491875 -99.721745 
L 15.491314 -104.852062 
L 15.291202 -110.412981 
L 14.04606 -113.986979 
L 15.024386 -116.718227 
L 14.813156 -119.89238 
L 14.21282 -123.251076 
L 14.04606 -126.55441 
L 15.135559 -134.748153 
L 15.046621 -137.910003 
L 13.112203 -149.271748 
L 14.679748 -155.786143 
L 14.868743 -158.763449 
L 13.112203 -160.62119 
L 16.803161 -165.5116 
L 19.410687 -165.94266 
L 20.966835 -164.029218 
L 21.399098 -161.254727 
L 22.609434 -160.106662 
L 22.606414 -157.16407 
L 26.252902 -156.487409 
L 24.08502 -162.60196 
L 23.618092 -165.210178 
L 23.451332 -167.941426 
L 23.718148 -169.639229 
L 24.207311 -171.423152 
L 24.29625 -173.293196 
L 23.451332 -175.163239 
L 22.339597 -175.901414 
L 19.337915 -176.479651 
L 17.759252 -177.230129 
L 19.31568 -179.149385 
L 21.11669 -179.653804 
L 23.017755 -179.88756 
L 24.852117 -180.896399 
L 25.296811 -181.757603 
L 26.163963 -184.076703 
L 26.719831 -184.550366 
L 27.620335 -184.224338 
L 28.487488 -182.803351 
L 29.499166 -182.483475 
L 30.210676 -181.345456 
L 29.954977 -178.798751 
L 29.054473 -174.70188 
L 29.054473 -171.558484 
L 29.187881 -170.426616 
L 30.288498 -167.560036 
L 30.944421 -166.73574 
L 31.922747 -165.880687 
L 33.29018 -166.292835 
L 33.568114 -166.69268 
L 33.479175 -167.430855 
L 34.035042 -170.967944 
L 34.123981 -174.585002 
L 34.724317 -176.196684 
L 36.280745 -177.802215 
L 37.225719 -177.322401 
L 38.348571 -176.288956 
L 40.238519 -176.196684 
L 41.105672 -177.248584 
L 43.017855 -181.65918 
L 44.062885 -183.516921 
L 40.282989 -182.052873 
L 36.792143 -181.425425 
L 33.901634 -182.606505 
L 31.922747 -186.617256 
L 31.767104 -188.770267 
L 32.767665 -195.905959 
L 33.101185 -196.58262 
L 34.424149 -197.696034 
L 34.724317 -198.477269 
L 34.557557 -199.104718 
L 33.857165 -200.015134 
L 33.701522 -200.648734 
L 33.701522 -205.194662 
L 35.59147 -204.727151 
L 36.236276 -205.926686 
L 36.692087 -207.556823 
L 37.959464 -208.381118 
L 38.893321 -207.864395 
L 39.69377 -206.547983 
L 40.19405 -204.813272 
L 40.238519 -203.041652 
L 42.172937 -204.33961 
L 43.440314 -206.400348 
L 43.840538 -208.860932 
L 43.129029 -211.389182 
L 42.195172 -210.355736 
L 40.216285 -212.514899 
L 40.460866 -215.738263 
L 44.029533 -224.381063 
L 44.596518 -227.315309 
L 44.974507 -234.19264 
L 46.108476 -233.343739 
L 46.530936 -232.906985 
L 46.93116 -232.027327 
L 47.776078 -232.027327 
L 50.866699 -241.082274 
L 53.601565 -245.031511 
L 57.503753 -246.673951 
L 59.571579 -247.13531 
L 65.319245 -249.423653 
L 66.508801 -250.284857 
L 67.242545 -252.597806 
L 70.433223 -255.845776 
L 71.189202 -258.115665 
L 73.679487 -257.199097 
L 76.481057 -258.078756 
L 81.450509 -261.216 
L 92.312153 -255.329054 
L 94.513387 -252.86847 
L 94.735734 -249.95883 
L 94.446683 -246.187985 
L 94.557856 -242.909258 
L 95.991994 -241.506725 
L 98.582335 -240.47328 
L 99.382783 -237.94503 
L 99.516191 -234.832392 
L 100.194349 -232.027327 
L 102.317762 -230.071163 
L 104.029832 -229.769741 
L 105.097097 -229.585197 
L 111.000406 -230.065011 
L 114.335609 -229.738984 
L 117.070476 -228.865477 
L 119.460704 -227.536762 
L 121.728642 -225.838959 
L 123.551886 -223.975067 
L 125.04161 -221.649815 
L 126.019937 -218.998536 
L 128.376813 -202.524929 
L 128.343461 -200.46419 
L 127.943237 -198.711024 
L 126.84262 -197.972849 
L 126.042171 -198.471118 
L 125.275075 -200.654885 
L 124.085519 -201.165457 
L 123.007137 -200.531856 
L 122.039928 -199.043203 
L 121.52853 -197.308492 
L 121.728642 -195.905959 
L 122.95155 -194.780242 
L 124.129988 -194.927877 
L 125.04161 -195.813687 
L 125.541891 -196.939404 
L 127.743125 -193.457678 
L 125.930998 -189.945195 
L 123.196131 -188.880993 
L 122.662499 -192.805624 
L 120.805903 -192.251992 
L 116.136619 -189.717591 
L 118.126623 -188.893296 
L 120.205566 -187.613792 
L 121.873168 -186.08823 
L 122.662499 -184.550366 
L 122.195571 -181.253184 
L 120.338974 -179.924468 
L 118.004332 -179.370837 
L 116.136619 -178.355846 
L 115.202762 -178.946387 
L 114.257788 -179.29702 
L 114.569074 -171.37394 
L 114.280023 -169.079446 
L 114.257788 -168.876448 
L 113.501809 -167.547733 
L 112.36784 -166.120594 
L 111.600743 -164.656547 
L 111.923146 -163.254014 
L 116.937068 -154.512791 
L 117.748634 -152.378235 
L 118.004332 -150.268284 
L 117.581873 -143.710829 
L 117.070476 -135.756992 
L 117.237236 -132.435205 
L 118.004332 -130.743553 
L 119.705286 -130.005378 
L 127.732007 -128.732026 
L 128.97715 -127.391008 
L 130.133353 -124.401399 
L 130.611399 -121.743969 
L 131.089445 -119.061932 
L 131.356261 -106.574471 
L 129.877655 -91.011279 
L 130.600282 -89.215053 
L 129.410726 -87.923247 
L 127.309548 -78.794482 
L 125.553008 -75.915599 
L 120.81702 -70.545375 
L 119.371766 -66.848348 
L 118.282266 -66.270111 
L 117.037124 -65.857963 
L 116.136619 -65.285877 
L 115.469578 -63.969465 
L 111.912029 -50.227106 
L 111.723034 -49.464325 
L 111.000406 -47.84034 
L 109.399509 -46.628502 
L 108.654647 -43.755771 
L 107.731908 -37.419768 
L 105.930898 -35.112971 
L 100.405579 -31.785032 
L 99.249375 -30.665466 
L 98.51563 -27.159134 
L 96.792442 -24.809277 
L 94.913611 -22.914627 
L 93.657352 -20.810829 
L 92.067572 -23.062263 
L 92.578969 -25.190667 
L 93.801877 -27.583585 
L 94.513387 -30.665466 
L 93.457239 -32.344814 
L 91.000307 -32.646236 
L 86.197615 -32.166422 
L 85.986385 -34.811549 
L 85.119232 -34.885367 
L 83.729565 -33.858073 
L 81.90632 -33.193715 
L 79.504974 -32.929203 
L 77.314858 -32.049544 
L 76.169771 -30.456316 
L 76.481057 -29.472083 
L 76.536238 -29.270566 
L 67.273119 -21.776422 
L 60.171249 -19.342874 
L 52.441083 -19.296 
L 44.244989 -20.483478 
L 37.376083 -23.428735 
L 30.874271 -30.866095 
L 20.883226 -47.532767 
" style="stroke: #000000"/>
    </defs>
    <g clip-path="url(#p5b0ae081d7)">
     <use xlink:href="#mbf2e16737a" x="0" y="280.512" style="fill: #f5f5f5; stroke: #000000"/>
    </g>
   </g>
  </g>
 </g>
 <defs>
  <clipPath id="p5b0ae081d7">
   <rect x="7.2" y="7.2" width="130.068464" height="266.112"/>
  </clipPath>
 </defs>
</svg>
