<?xml version="1.0" encoding="utf-8" standalone="no"?>
<!DOCTYPE svg PUBLIC "-//W3C//DTD SVG 1.1//EN"
  "http://www.w3.org/Graphics/SVG/1.1/DTD/svg11.dtd">
<svg xmlns:xlink="http://www.w3.org/1999/xlink" width="371.52pt" height="265.645702pt" viewBox="0 0 371.52 265.645702" xmlns="http://www.w3.org/2000/svg" version="1.1">
 <metadata>
  <rdf:RDF xmlns:dc="http://purl.org/dc/elements/1.1/" xmlns:cc="http://creativecommons.org/ns#" xmlns:rdf="http://www.w3.org/1999/02/22-rdf-syntax-ns#">
   <cc:Work>
    <dc:type rdf:resource="http://purl.org/dc/dcmitype/StillImage"/>
    <dc:date>2024-03-04T13:11:12.775534</dc:date>
    <dc:format>image/svg+xml</dc:format>
    <dc:creator>
     <cc:Agent>
      <dc:title>Matplotlib v3.8.0, https://matplotlib.org/</dc:title>
     </cc:Agent>
    </dc:creator>
   </cc:Work>
  </rdf:RDF>
 </metadata>
 <defs>
  <style type="text/css">*{stroke-linejoin: round; stroke-linecap: butt}</style>
 </defs>
 <g id="figure_1">
  <g id="patch_1">
   <path d="M 0 265.645702 
L 371.52 265.645702 
L 371.52 0 
L 0 0 
z
" style="fill: #ffffff"/>
  </g>
  <g id="axes_1">
   <g id="PatchCollection_1">
    <defs>
     <path id="ma80e868e13" d="M 113.885943 -230.821806 
L 114.581382 -231.031083 
L 115.198762 -231.436875 
L 115.486163 -232.10554 
L 115.195214 -233.105985 
L 115.482615 -233.690429 
L 116.004194 -233.731263 
L 116.614477 -233.458183 
L 117.143153 -233.100881 
L 117.682473 -232.779309 
L 118.239534 -232.615971 
L 118.785951 -232.69764 
L 120.254888 -233.820589 
L 120.716149 -234.6628 
L 121.4861 -236.969949 
L 122.16025 -237.972946 
L 122.862785 -238.298346 
L 123.639832 -238.188604 
L 126.031291 -237.389779 
L 126.623834 -236.969949 
L 128.036001 -235.339122 
L 129.675251 -233.989031 
L 130.448749 -233.113642 
L 130.69712 -233.017936 
L 130.952588 -232.986034 
L 131.208055 -233.014108 
L 131.481263 -233.109813 
L 131.530938 -233.128955 
L 131.580612 -233.135335 
L 131.630286 -233.128955 
L 131.683508 -233.109813 
L 133.908204 -232.036632 
L 134.621384 -232.077466 
L 134.754617 -232.179736 
L 134.859111 -232.259946 
L 135.057808 -232.490916 
L 135.231667 -232.771653 
L 135.38069 -233.100881 
L 135.749699 -233.402035 
L 136.1329 -233.510502 
L 137.42443 -233.736368 
L 138.05955 -233.529643 
L 140.270053 -233.284636 
L 141.68222 -232.822696 
L 142.480556 -232.715505 
L 144.868467 -232.835457 
L 145.432624 -232.562376 
L 147.2138 -230.966003 
L 147.447979 -230.204184 
L 148.182448 -230.214393 
L 151.638354 -231.590005 
L 152.720543 -231.536409 
L 153.2847 -231.143377 
L 154.991365 -230.695474 
L 155.672611 -230.386663 
L 156.921563 -229.231813 
L 157.52475 -229.111861 
L 157.574424 -229.15142 
L 159.603971 -228.394706 
L 160.349085 -228.366632 
L 162.644743 -229.490857 
L 164.337215 -229.544452 
L 165.678419 -230.671229 
L 166.466111 -231.084678 
L 167.129616 -231.107647 
L 169.0882 -230.646983 
L 171.029043 -230.677609 
L 171.699645 -230.515547 
L 171.980343 -230.355094 
L 173.306961 -229.596771 
L 174.172712 -228.923002 
L 174.708484 -228.277306 
L 174.939114 -227.491242 
L 174.971048 -226.844271 
L 175.127167 -226.235582 
L 175.733902 -225.556708 
L 176.890602 -224.854865 
L 179.665262 -223.795721 
L 180.165552 -223.364407 
L 180.594879 -222.788895 
L 181.751579 -220.766312 
L 182.553463 -219.561694 
L 183.199228 -219.132932 
L 184.306704 -219.324415 
L 184.770931 -219.40468 
L 187.347026 -219.850088 
L 189.493662 -220.756103 
L 189.49721 -220.76376 
L 189.504307 -220.766312 
L 190.934215 -222.108746 
L 194.265936 -227.450408 
L 195.734874 -228.443197 
L 212.583306 -230.222049 
L 214.843484 -231.110199 
L 216.649497 -231.329685 
L 217.689107 -231.771208 
L 218.267457 -231.879674 
L 219.903158 -231.718889 
L 222.085276 -232.355651 
L 224.599506 -232.378911 
L 225.395708 -232.386277 
L 227.020765 -233.113642 
L 227.350744 -233.613864 
L 228.11005 -235.298287 
L 228.532281 -235.824031 
L 229.429965 -236.559052 
L 229.8451 -237.02482 
L 230.373775 -238.075033 
L 230.930836 -239.61143 
L 231.292749 -241.17335 
L 231.246622 -242.29247 
L 231.498542 -243.924574 
L 231.782394 -243.809727 
L 232.417515 -243.749751 
L 233.002961 -243.927126 
L 234.14192 -244.475839 
L 234.723818 -244.623864 
L 236.345327 -244.699153 
L 236.91658 -244.830589 
L 241.245334 -245.76723 
L 242.292041 -246.241931 
L 243.934839 -246.994817 
L 244.717208 -247.025443 
L 245.504899 -246.358054 
L 245.87923 -246.28149 
L 246.248238 -246.823823 
L 246.622569 -246.074765 
L 247.298494 -245.934396 
L 248.712435 -246.207477 
L 249.296107 -245.924188 
L 250.08025 -244.974786 
L 250.449259 -245.198099 
L 251.896908 -243.77272 
L 252.113345 -243.401382 
L 252.251723 -242.565551 
L 252.58525 -242.735269 
L 252.975548 -243.282706 
L 253.286012 -243.567272 
L 253.713565 -243.207418 
L 253.887425 -242.638287 
L 254.142892 -242.113819 
L 255.327977 -241.678677 
L 255.327977 -241.252467 
L 254.93768 -240.881128 
L 254.26353 -240.840293 
L 254.26353 -240.532759 
L 255.203792 -239.991702 
L 255.846008 -239.779873 
L 256.271788 -240.121862 
L 256.566285 -239.990426 
L 256.878523 -239.739038 
L 257.059479 -239.488927 
L 257.056427 -239.448313 
L 257.03819 -239.205638 
L 256.676278 -238.753906 
L 256.587574 -238.478273 
L 256.843041 -237.268551 
L 257.44268 -236.319149 
L 258.265853 -235.608374 
L 259.163537 -235.106875 
L 259.163537 -234.740641 
L 258.46455 -234.430554 
L 258.500031 -234.223829 
L 258.549706 -234.037522 
L 258.615346 -233.86908 
L 258.698728 -233.728711 
L 259.580446 -234.103878 
L 260.031062 -233.474772 
L 260.345074 -232.802279 
L 260.806335 -233.054942 
L 261.203728 -232.615971 
L 261.23921 -232.157859 
L 261.001483 -231.723993 
L 260.593445 -231.367967 
L 261.313721 -230.806493 
L 261.530159 -230.692922 
L 261.530159 -230.592505 
L 261.530159 -230.386663 
L 260.926972 -229.586562 
L 261.299529 -229.137383 
L 262.076576 -228.713725 
L 262.701051 -227.995293 
L 262.672666 -227.773256 
L 262.729437 -226.248343 
L 262.701051 -225.942084 
L 263.059416 -225.681764 
L 263.47455 -225.560537 
L 263.848881 -225.381886 
L 264.109671 -224.962056 
L 262.93523 -224.255109 
L 263.343268 -223.924605 
L 263.816947 -223.208725 
L 264.205471 -222.466048 
L 264.365138 -222.047494 
L 264.49642 -221.82418 
L 265.106703 -221.386486 
L 265.280563 -221.220596 
L 265.301237 -221.139019 
L 265.404749 -220.730582 
L 265.351526 -220.201009 
L 265.539579 -219.842431 
L 265.539579 -219.533621 
L 264.748339 -219.375387 
L 265.060577 -218.290721 
L 265.848268 -216.984017 
L 268.083609 -214.107737 
L 269.041612 -213.158335 
L 270.116704 -212.760199 
L 270.151779 -212.617234 
L 270.218325 -212.345991 
L 270.372171 -211.71892 
L 270.48039 -211.411385 
L 270.524742 -211.232734 
L 270.517646 -210.784831 
L 270.588609 -210.567897 
L 270.723439 -210.481124 
L 271.095996 -210.432633 
L 271.1847 -210.399455 
L 271.433071 -209.072334 
L 271.653057 -208.352626 
L 272.014969 -208.038711 
L 272.32011 -207.995324 
L 272.490422 -207.890686 
L 272.625252 -207.768182 
L 272.823949 -207.6712 
L 273.707441 -207.643127 
L 273.760663 -207.6712 
L 274.22902 -207.487445 
L 274.743503 -207.195223 
L 275.179926 -206.803467 
L 275.424749 -206.322386 
L 275.142671 -206.104177 
L 274.956392 -205.723906 
L 274.825111 -205.216027 
L 274.722214 -204.636687 
L 275.332497 -204.116047 
L 275.059289 -202.594963 
L 275.541839 -202.277219 
L 275.621323 -202.209355 
L 276.006648 -201.880359 
L 276.833369 -199.939444 
L 277.276888 -199.210804 
L 277.543 -199.078092 
L 278.470844 -198.873919 
L 278.83453 -198.646778 
L 279.093546 -198.43112 
L 279.366754 -198.263954 
L 280.225409 -198.05723 
L 280.583773 -197.676958 
L 281.28276 -196.482549 
L 281.240182 -195.864928 
L 281.605642 -195.242202 
L 282.473167 -194.153707 
L 282.886528 -192.804893 
L 282.946846 -192.774267 
L 283.039099 -192.386339 
L 283.138447 -192.089013 
L 283.076354 -191.879736 
L 282.691379 -191.761061 
L 283.099417 -191.207243 
L 284.586096 -190.412247 
L 284.586096 -190.076638 
L 284.376754 -189.714232 
L 284.529325 -189.567483 
L 284.855756 -189.464121 
L 285.17509 -189.233151 
L 286.225345 -188.085957 
L 287.197541 -187.460679 
L 287.626868 -187.080407 
L 287.637513 -186.368356 
L 288.474878 -186.20757 
L 289.28031 -185.706072 
L 290.025424 -185.364083 
L 290.703122 -185.693311 
L 291.011812 -184.877897 
L 291.050232 -184.829669 
L 292.111741 -183.497181 
L 292.580098 -182.658798 
L 293.252474 -180.860804 
L 293.345151 -180.123156 
L 293.360693 -179.999451 
L 293.066196 -179.255498 
L 293.639223 -178.86757 
L 293.665835 -178.306096 
L 293.623257 -177.715272 
L 294.006458 -177.231638 
L 294.006458 -176.864128 
L 293.950096 -176.275139 
L 293.912432 -175.881548 
L 294.471267 -174.495727 
L 295.856823 -172.145192 
L 295.855049 -171.216207 
L 297.778151 -167.393078 
L 298.12587 -166.057024 
L 298.154557 -165.86341 
L 298.232315 -165.338592 
L 298.225219 -164.663547 
L 297.998137 -164.131422 
L 297.653965 -163.515077 
L 297.480105 -162.806854 
L 297.778151 -161.995268 
L 297.457042 -161.778335 
L 297.331083 -161.40572 
L 297.26012 -159.555407 
L 297.331083 -159.162375 
L 297.778151 -158.288262 
L 297.914755 -158.165758 
L 298.060229 -158.211697 
L 298.179093 -158.16193 
L 298.225219 -157.751033 
L 298.228767 -156.219739 
L 298.187963 -155.808842 
L 297.987492 -155.433675 
L 297.501394 -155.191221 
L 297.749766 -154.520004 
L 297.590098 -154.240543 
L 297.526687 -154.212813 
L 297.27786 -154.104002 
L 297.050778 -153.874308 
L 296.852081 -152.365984 
L 296.688866 -152.156707 
L 296.275506 -152.016339 
L 296.192124 -151.656485 
L 296.330502 -150.654764 
L 296.362435 -150.048627 
L 296.309213 -149.877632 
L 295.844404 -148.854218 
L 295.431044 -148.448425 
L 295.106387 -148.277431 
L 294.71609 -148.157479 
L 294.382563 -147.978828 
L 294.240636 -147.636839 
L 294.357726 -146.794628 
L 294.276118 -146.526652 
L 293.889369 -146.424565 
L 293.48133 -146.24081 
L 293.550519 -145.819705 
L 294.180318 -144.786081 
L 294.396755 -144.497688 
L 294.599 -144.158251 
L 294.708993 -143.726937 
L 294.315148 -142.578467 
L 294.112903 -141.361088 
L 293.534393 -139.690148 
L 293.442262 -139.42404 
L 293.201026 -138.727264 
L 292.927818 -138.548613 
L 292.835565 -138.301054 
L 292.84621 -138.035629 
L 293.055551 -137.890156 
L 293.066196 -137.624732 
L 292.640417 -135.891818 
L 292.580098 -135.404357 
L 292.697187 -134.705066 
L 293.534553 -132.229475 
L 293.59842 -131.675657 
L 293.683575 -131.379607 
L 293.889369 -131.037618 
L 294.031295 -130.647138 
L 293.956784 -130.271971 
L 293.818405 -129.894252 
L 293.772279 -129.503772 
L 293.86808 -129.138814 
L 294.173221 -128.510984 
L 294.240636 -128.324676 
L 294.141288 -128.07967 
L 293.687124 -127.750441 
L 293.534553 -127.482465 
L 293.630353 -126.053258 
L 294.166125 -124.555142 
L 294.769312 -123.376046 
L 295.060261 -122.914106 
L 295.361855 -117.960372 
L 295.29444 -117.166651 
L 295.507329 -116.52606 
L 295.017683 -116.281053 
L 293.889369 -116.291262 
L 293.438752 -116.127924 
L 292.871047 -115.711922 
L 292.30689 -115.163209 
L 291.874014 -114.606839 
L 293.791794 -113.575768 
L 294.579486 -112.958146 
L 295.156061 -111.906658 
L 295.287343 -111.600399 
L 295.372499 -111.495761 
L 295.418625 -111.380914 
L 295.436366 -109.716909 
L 295.677641 -109.211582 
L 296.589518 -108.09629 
L 297.050778 -107.524607 
L 297.126727 -107.532835 
L 297.898788 -107.616484 
L 298.902917 -107.044801 
L 299.573519 -106.118369 
L 299.394337 -105.135789 
L 300.410885 -102.468786 
L 301.077939 -101.238647 
L 301.869178 -100.720559 
L 302.451076 -100.562326 
L 303.650354 -99.863035 
L 306.705319 -99.06421 
L 309.550942 -97.543125 
L 314.117423 -96.499294 
L 315.398308 -96.67284 
L 316.4734 -96.703466 
L 316.909824 -96.894878 
L 317.296573 -97.349161 
L 316.322604 -97.803445 
L 316.081329 -98.020378 
L 315.919887 -98.385337 
L 315.820539 -98.831964 
L 315.884406 -99.209683 
L 316.867246 -99.71501 
L 316.814024 -100.457687 
L 316.853053 -101.164634 
L 317.76493 -101.394328 
L 318.297154 -101.208021 
L 319.20016 -100.554669 
L 319.980755 -100.411748 
L 320.418953 -100.097833 
L 320.98311 -99.482764 
L 321.664357 -99.074419 
L 322.452048 -99.370469 
L 322.608167 -99.712458 
L 322.712838 -100.664412 
L 322.920405 -101.08807 
L 323.167002 -101.276929 
L 323.468596 -101.366255 
L 324.229676 -101.394328 
L 324.694485 -101.631679 
L 326.45792 -103.109377 
L 327.857668 -103.517722 
L 328.448437 -103.788251 
L 328.941631 -104.30889 
L 329.225484 -104.446707 
L 330.055753 -104.500302 
L 330.229613 -104.643223 
L 330.357346 -104.99542 
L 330.648295 -105.35017 
L 331.166326 -105.807006 
L 331.904344 -106.217903 
L 332.468501 -106.240872 
L 333.025562 -106.133682 
L 333.745838 -106.146443 
L 334.043883 -106.26129 
L 334.345477 -106.473118 
L 334.611589 -106.730886 
L 334.810286 -106.988654 
L 335.12962 -107.210691 
L 335.502177 -107.12647 
L 335.878282 -106.927402 
L 336.215357 -106.820212 
L 338.855187 -106.547131 
L 343.629235 -104.796352 
L 345.231229 -103.333967 
L 345.635719 -103.109377 
L 346.395025 -102.384565 
L 346.973375 -100.692486 
L 347.150783 -98.770712 
L 346.703714 -97.349161 
L 346.900637 -97.037798 
L 346.952086 -96.680497 
L 346.874026 -96.312986 
L 346.695947 -95.95265 
L 346.39142 -96.018966 
L 345.489015 -95.982794 
L 345.489015 -95.675329 
L 346.003079 -94.951884 
L 346.377451 -94.071691 
L 346.969742 -93.400494 
L 348.087273 -93.28193 
L 347.29662 -92.431881 
L 346.88034 -91.065372 
L 346.600957 -86.720679 
L 346.410977 -85.888716 
L 345.958377 -84.486035 
L 345.868975 -83.786704 
L 345.824274 -82.986895 
L 345.729284 -82.26144 
L 345.489015 -81.78919 
L 345.712521 -80.730146 
L 344.846435 -79.365647 
L 345.282271 -78.449282 
L 345.053178 -77.848421 
L 344.779383 -77.655502 
L 344.455299 -77.601243 
L 344.103277 -77.402296 
L 343.617151 -76.642678 
L 343.357325 -76.413587 
L 342.678426 -76.787367 
L 342.304053 -76.708994 
L 341.940856 -76.524113 
L 341.613978 -76.425644 
L 334.917177 -75.352533 
L 330.664974 -75.061145 
L 329.430103 -74.643154 
L 325.98811 -72.211573 
L 324.976745 -71.198748 
L 324.096689 -69.92669 
L 323.862008 -70.294441 
L 323.895534 -71.023916 
L 323.428965 -71.928223 
L 323.211047 -72.69387 
L 323.979349 -73.023439 
L 324.809115 -73.176167 
L 326.071924 -73.847364 
L 327.440899 -74.197029 
L 328.211995 -74.749661 
L 328.832224 -75.611767 
L 329.038967 -76.729089 
L 328.837812 -77.348037 
L 328.396387 -78.005167 
L 327.379435 -79.120479 
L 327.566621 -78.332727 
L 327.619704 -77.94689 
L 327.633673 -77.402296 
L 327.088877 -77.52287 
L 326.59437 -77.163157 
L 326.14177 -77.010429 
L 325.739459 -77.741913 
L 325.585799 -78.65024 
L 325.504778 -81.620386 
L 325.859594 -82.556847 
L 327.46325 -83.165747 
L 327.868354 -83.810819 
L 327.563827 -84.317231 
L 326.071924 -85.338094 
L 325.622118 -85.529003 
L 324.566052 -85.529003 
L 323.496017 -85.896754 
L 323.138407 -85.832448 
L 323.015479 -85.579242 
L 322.90652 -85.12106 
L 322.705364 -84.682973 
L 322.328198 -84.486035 
L 321.565483 -84.431777 
L 321.216255 -84.287088 
L 319.953446 -83.05723 
L 319.587454 -82.49254 
L 319.386299 -81.453592 
L 319.439382 -81.170242 
L 319.757878 -80.923065 
L 319.836105 -80.591486 
L 319.769053 -80.308136 
L 319.612599 -80.175504 
L 319.453351 -80.089093 
L 319.386299 -79.934356 
L 319.486877 -79.49426 
L 319.729939 -79.11646 
L 320.003734 -78.855216 
L 320.777624 -78.511579 
L 322.437157 -76.729089 
L 322.00132 -76.246792 
L 321.808546 -76.11416 
L 321.495637 -76.057892 
L 321.819721 -75.784591 
L 321.967794 -75.720284 
L 321.967794 -75.352533 
L 321.540339 -75.065164 
L 321.5124 -74.606982 
L 321.769432 -74.104589 
L 322.222032 -73.694636 
L 321.886773 -73.435402 
L 321.456524 -73.328894 
L 319.931095 -73.268607 
L 319.567898 -73.119899 
L 317.494879 -71.80162 
L 317.148444 -71.47205 
L 316.821567 -70.782767 
L 316.762896 -70.143723 
L 316.989196 -69.87645 
L 317.492085 -70.294441 
L 317.3496 -69.695589 
L 316.704226 -69.470517 
L 316.553359 -68.759129 
L 316.656731 -67.967358 
L 316.947289 -67.744295 
L 318.768863 -68.081903 
L 319.590248 -68.588315 
L 320.341787 -69.347933 
L 321.048625 -70.294441 
L 320.559706 -71.303246 
L 322.954015 -70.523532 
L 323.501604 -70.109561 
L 323.64409 -69.253483 
L 323.361913 -68.268793 
L 322.769622 -67.481041 
L 321.967794 -67.227835 
L 322.574054 -68.059798 
L 323.132819 -69.004296 
L 323.225016 -69.824202 
L 322.437157 -70.294441 
L 322.437157 -69.92669 
L 322.696983 -69.583053 
L 322.621549 -69.426306 
L 321.967794 -69.251474 
L 321.467699 -69.589082 
L 321.26375 -69.619225 
L 321.112883 -69.482574 
L 320.962017 -69.249464 
L 320.794387 -68.913866 
L 320.137838 -68.405444 
L 319.065009 -67.231854 
L 318.450367 -66.890227 
L 316.788041 -66.010035 
L 316.318678 -65.573958 
L 316.913763 -66.713385 
L 317.022722 -67.227835 
L 316.511452 -67.304199 
L 316.070027 -67.201711 
L 315.757119 -66.858074 
L 315.614634 -66.215011 
L 316.06444 -66.215011 
L 315.852109 -65.718647 
L 315.983419 -65.332809 
L 316.327059 -65.04946 
L 316.788041 -64.868598 
L 315.42186 -64.43855 
L 314.893827 -63.948215 
L 314.893827 -63.180558 
L 315.047487 -63.415678 
L 315.279375 -63.658836 
L 315.382746 -63.855774 
L 315.868872 -63.570415 
L 316.318678 -63.180558 
L 316.025326 -62.5174 
L 315.606252 -61.263427 
L 315.338045 -59.912995 
L 315.497293 -58.95242 
L 315.77947 -58.882085 
L 316.050471 -59.243808 
L 316.243245 -59.792421 
L 316.461163 -60.961991 
L 316.796422 -61.355867 
L 317.492085 -61.834145 
L 318.514625 -63.26496 
L 319.115298 -63.940176 
L 319.729939 -64.223526 
L 320.378107 -64.402378 
L 320.853057 -64.928885 
L 321.149203 -65.604101 
L 321.495637 -66.55061 
L 321.272131 -65.586015 
L 320.970398 -64.756062 
L 318.715781 -60.286775 
L 317.092568 -59.012707 
L 313.997009 -54.722272 
L 313.644987 -53.600931 
L 313.536027 -52.998059 
L 313.091809 -53.353754 
L 312.549807 -53.108586 
L 312.097207 -52.696624 
L 311.742391 -52.129925 
L 311.544029 -51.529063 
L 311.449039 -50.83978 
L 311.404338 -48.958821 
L 311.549617 -48.349921 
L 312.097207 -47.300924 
L 312.577745 -45.745516 
L 312.678323 -45.005994 
L 312.56657 -44.575945 
L 312.801251 -44.234318 
L 312.343064 -44.519677 
L 311.912814 -44.399103 
L 311.583143 -44.017284 
L 311.39875 -43.532978 
L 311.62505 -42.614603 
L 312.197785 -38.615556 
L 312.784488 -36.067419 
L 312.801251 -35.774022 
L 312.711849 -35.368089 
L 312.39894 -34.905887 
L 312.225723 -33.995551 
L 311.742391 -32.554689 
L 311.633432 -31.885501 
L 310.812047 -30.183394 
L 310.66118 -29.705116 
L 310.116384 -26.990185 
L 309.915229 -26.532003 
L 309.80627 -26.067792 
L 309.968312 -25.597552 
L 309.817445 -25.157456 
L 309.739218 -24.661092 
L 309.716867 -24.134584 
L 309.755981 -23.608076 
L 309.596733 -23.125779 
L 304.659805 -22.826212 
L 297.336405 -24.148229 
L 290.248958 -27.509418 
L 289.08871 -28.462648 
L 287.538164 -34.145023 
L 286.722088 -35.569126 
L 286.722088 -35.57423 
L 284.813178 -35.341984 
L 282.43946 -33.948507 
L 280.186379 -33.37172 
L 278.841217 -35.273932 
L 278.621641 -35.584439 
L 277.940394 -37.082554 
L 277.156251 -37.3735 
L 275.1338 -36.707387 
L 268.587447 -36.648688 
L 268.211342 -36.926873 
L 267.547837 -38.139147 
L 267.139798 -38.524522 
L 265.206052 -39.481581 
L 264.484001 -40.336553 
L 264.645443 -41.454397 
L 264.084151 -41.904803 
L 264.031611 -41.946963 
L 263.194246 -41.865294 
L 262.466873 -42.2864 
L 258.851299 -43.039286 
L 256.353395 -44.647144 
L 255.462807 -44.057596 
L 251.432099 -43.633938 
L 248.181985 -41.630496 
L 246.954322 -41.242568 
L 245.409099 -41.242568 
L 245.015253 -41.143034 
L 244.332233 -40.696407 
L 244.005802 -40.599425 
L 243.317459 -40.515204 
L 242.164308 -40.094098 
L 235.353897 -39.053674 
L 232.488836 -38.61598 
L 231.739817 -38.501553 
L 229.025475 -37.261205 
L 226.254363 -36.515976 
L 225.069278 -35.847311 
L 223.802585 -34.374717 
L 223.19585 -33.422763 
L 222.943931 -32.659668 
L 218.813874 -29.498823 
L 218.487443 -28.92076 
L 218.210687 -28.217641 
L 216.592726 -26.070002 
L 215.56376 -25.454932 
L 214.428349 -24.231174 
L 214.364482 -24.046142 
L 213.566146 -22.667978 
L 212.139787 -22.022283 
L 211.911541 -22.014696 
L 209.798002 -21.944442 
L 209.18417 -21.488882 
L 208.648398 -20.95293 
L 207.913929 -20.482057 
L 207.136882 -20.132411 
L 206.491118 -19.97035 
L 205.855997 -19.623256 
L 205.075402 -19.540311 
L 203.528405 -19.632189 
L 203.311815 -19.591449 
L 202.79571 -19.494373 
L 201.376446 -18.83464 
L 200.588755 -18.620259 
L 199.09498 -18.829536 
L 197.838932 -19.591354 
L 196.660943 -20.542032 
L 196.547146 -20.612608 
L 195.411991 -21.316612 
L 194.003372 -21.673914 
L 189.550433 -22.022283 
L 185.501983 -23.536987 
L 178.256643 -23.003587 
L 176.64223 -23.248594 
L 175.137199 -23.835885 
L 169.58849 -26.001094 
L 168.428242 -26.145291 
L 167.221868 -25.738222 
L 165.309411 -24.241382 
L 164.716868 -24.051247 
L 163.97779 -24.013393 
L 157.89021 -23.701601 
L 157.554563 -23.789621 
L 145.549714 -26.937735 
L 143.59113 -28.134696 
L 142.831824 -28.289101 
L 139.925882 -27.614056 
L 139.402214 -27.705533 
L 138.435655 -27.874376 
L 134.727829 -30.006702 
L 129.25058 -30.30243 
L 126.137736 -29.843364 
L 124.849754 -29.124932 
L 123.646928 -28.856956 
L 122.614414 -28.39374 
L 119.892093 -28.140631 
L 115.326496 -27.716142 
L 114.269144 -27.977738 
L 113.399845 -28.762526 
L 112.974066 -29.697891 
L 112.956326 -30.815736 
L 113.786595 -34.522742 
L 114.169796 -35.63293 
L 114.854591 -36.099974 
L 115.564222 -36.207165 
L 116.930264 -36.671657 
L 117.678925 -36.776296 
L 118.878203 -37.465378 
L 119.463649 -38.981358 
L 119.151411 -40.499891 
L 118.373155 -40.864093 
L 117.678925 -41.188973 
L 116.117735 -41.408458 
L 114.87588 -41.972485 
L 107.501831 -47.185072 
L 107.470872 -47.206956 
L 107.286368 -47.936873 
L 107.428294 -50.310378 
L 107.155086 -50.981595 
L 106.502224 -51.29551 
L 105.082961 -51.504787 
L 103.766594 -52.122408 
L 102.61699 -53.138166 
L 101.701565 -54.427005 
L 101.098378 -55.858765 
L 101.059349 -56.236484 
L 101.140956 -57.017443 
L 101.109023 -57.387506 
L 100.956452 -57.729495 
L 100.236176 -58.413472 
L 100.133279 -58.816713 
L 100.140375 -59.459856 
L 100.229079 -60.123417 
L 100.378102 -60.585357 
L 100.615829 -60.804842 
L 100.935163 -60.912033 
L 102.141537 -60.96818 
L 102.585057 -61.174905 
L 102.86891 -61.657263 
L 102.975354 -62.512235 
L 103.174051 -63.334029 
L 103.684986 -63.831699 
L 104.366233 -64.043528 
L 105.082961 -64.015454 
L 105.803237 -63.7143 
L 107.052189 -62.846567 
L 107.793754 -62.662812 
L 108.453712 -62.787868 
L 109.220114 -63.15793 
L 109.823301 -63.790865 
L 110.025546 -64.686671 
L 108.294045 -66.674801 
L 107.793754 -67.047416 
L 105.082961 -67.3843 
L 103.926261 -67.973848 
L 102.75182 -68.951324 
L 100.363909 -71.659161 
L 99.856523 -71.96542 
L 99.22495 -72.103236 
L 98.384037 -72.136414 
L 98.022125 -71.848021 
L 96.826395 -70.500482 
L 96.155793 -70.081929 
L 94.732981 -69.750149 
L 94.225595 -69.357117 
L 94.023349 -68.581261 
L 90.113278 -61.343347 
L 89.66621 -60.86099 
L 88.846586 -60.641504 
L 88.10502 -60.728278 
L 87.338618 -61.072819 
L 86.742527 -61.672575 
L 86.377067 -63.101783 
L 86.061281 -63.423354 
L 85.670983 -63.665809 
L 85.309071 -64.015454 
L 85.124567 -64.393174 
L 84.999308 -65.016549 
L 84.933026 -65.346418 
L 84.862003 -65.699877 
L 83.904 -68.081039 
L 83.563377 -68.428132 
L 82.466996 -68.611887 
L 79.362357 -70.275893 
L 78.794651 -70.398396 
L 78.205657 -70.23761 
L 76.949609 -69.678688 
L 75.409708 -69.352012 
L 73.635628 -69.341804 
L 71.957349 -69.864996 
L 70.701301 -71.161491 
L 70.378418 -72.052193 
L 70.172625 -72.942895 
L 69.87458 -73.731512 
L 69.271393 -74.310851 
L 68.597242 -74.507367 
L 66.496732 -74.328716 
L 63.576598 -74.663048 
L 63.019537 -74.931025 
L 62.423446 -76.235177 
L 61.806066 -76.717534 
L 61.779029 -76.729632 
L 61.195783 -76.990615 
L 61.319968 -77.666936 
L 61.632206 -78.207993 
L 62.079274 -78.616338 
L 62.998248 -78.95067 
L 64.992313 -78.848584 
L 65.957412 -78.999161 
L 67.351839 -79.402402 
L 67.837936 -79.823508 
L 67.933737 -80.770357 
L 67.65698 -81.569182 
L 67.153142 -82.026018 
L 65.957412 -82.503271 
L 65.098758 -82.937138 
L 63.448864 -83.233188 
L 62.650528 -83.784453 
L 62.629239 -84.05243 
L 62.714395 -84.379106 
L 62.60795 -84.631769 
L 62.026052 -84.662395 
L 61.561243 -84.787451 
L 61.49028 -85.203452 
L 61.653495 -85.713883 
L 61.901867 -86.106915 
L 62.24249 -86.283014 
L 63.118885 -86.346818 
L 63.477249 -86.474426 
L 63.910124 -86.841936 
L 64.020117 -87.079286 
L 64.037858 -87.42638 
L 64.172688 -88.120566 
L 64.275585 -88.327291 
L 64.566534 -88.684592 
L 64.662334 -88.891317 
L 64.683623 -89.136324 
L 64.683623 -89.501282 
L 64.662334 -89.807541 
L 64.616208 -89.879001 
L 64.875224 -90.27969 
L 65.169721 -90.591053 
L 65.528085 -90.774808 
L 65.957412 -90.80033 
L 66.390288 -91.183153 
L 66.518021 -91.803327 
L 66.361902 -92.456679 
L 66.056227 -92.832065 
L 65.198106 -93.885886 
L 64.318163 -94.615803 
L 63.349515 -95.151755 
L 59.702008 -96.312986 
L 58.254359 -96.358925 
L 57.640528 -96.619245 
L 56.501569 -97.435935 
L 55.940959 -98.109704 
L 54.770067 -99.868139 
L 54.213006 -100.289245 
L 53.861738 -100.199919 
L 53.308226 -99.579746 
L 52.974699 -99.41896 
L 52.570208 -99.518494 
L 52.268615 -99.794127 
L 51.977666 -100.133563 
L 51.62285 -100.416853 
L 49.999151 -101.167653 
L 48.791419 -101.726109 
L 48.266292 -102.159975 
L 46.942828 -103.933723 
L 44.725229 -105.970344 
L 43.604011 -107.639454 
L 43.110817 -108.149885 
L 42.543111 -108.430622 
L 41.92928 -108.62969 
L 41.432538 -108.964023 
L 41.212552 -109.655657 
L 41.982502 -110.283487 
L 42.479244 -110.799023 
L 42.567948 -111.490657 
L 42.127977 -112.634023 
L 41.1203 -114.392458 
L 40.996114 -115.198939 
L 41.262226 -116.434183 
L 41.641879 -117.337646 
L 41.780257 -117.763856 
L 41.872509 -118.463146 
L 41.844124 -121.030615 
L 41.92928 -121.538494 
L 42.06411 -122.005539 
L 42.071206 -122.45727 
L 41.787353 -122.939628 
L 41.365123 -123.159113 
L 40.98547 -123.000879 
L 40.683876 -122.577222 
L 40.481631 -122.005539 
L 40.048756 -121.648237 
L 39.587495 -121.507868 
L 39.129782 -121.609955 
L 38.718196 -121.990226 
L 38.391765 -122.658891 
L 37.604074 -123.679753 
L 37.270547 -124.243779 
L 37.187722 -124.56038 
L 37.146362 -124.71848 
L 37.07185 -125.72403 
L 36.954761 -126.134927 
L 36.713486 -126.443738 
L 36.117395 -126.84953 
L 35.876121 -127.079224 
L 34.737162 -129.131158 
L 34.208486 -129.662006 
L 33.566269 -129.922326 
L 32.256999 -130.067799 
L 31.632523 -130.366401 
L 29.82651 -132.04572 
L 29.180745 -132.48469 
L 27.832444 -133.086999 
L 27.246998 -133.52597 
L 26.721871 -134.322243 
L 26.001594 -136.583453 
L 25.590008 -137.323578 
L 23.432727 -140.016102 
L 24.820057 -141.779642 
L 30.344541 -141.932771 
L 31.181906 -143.277757 
L 32.583429 -142.958738 
L 33.942374 -142.389607 
L 34.942955 -141.470831 
L 35.283578 -141.238585 
L 35.698713 -141.080351 
L 35.95418 -141.072695 
L 37.891475 -141.48104 
L 38.562077 -141.823029 
L 39.087205 -142.40492 
L 39.271709 -142.892382 
L 39.277696 -143.000829 
L 39.310739 -143.599329 
L 39.48105 -143.966839 
L 39.740066 -144.061269 
L 40.0594 -143.948974 
L 40.385831 -143.897931 
L 40.662587 -144.173564 
L 40.666135 -144.569148 
L 40.346801 -145.666575 
L 40.32906 -146.131068 
L 40.478083 -146.4067 
L 41.822835 -147.521992 
L 42.127191 -147.685902 
L 42.514726 -147.894607 
L 43.235002 -148.096227 
L 43.923345 -148.065602 
L 44.242679 -147.902264 
L 44.860059 -147.37652 
L 45.140364 -147.241255 
L 45.480987 -147.271881 
L 45.984825 -147.552618 
L 46.219004 -147.626631 
L 46.832835 -147.496471 
L 48.113721 -146.942653 
L 48.791419 -146.968175 
L 49.103657 -147.103439 
L 49.398154 -147.103439 
L 49.667814 -146.968175 
L 49.905541 -146.682333 
L 50.576143 -146.102994 
L 51.193523 -146.337792 
L 52.832772 -148.325921 
L 53.052758 -148.440769 
L 54.056887 -148.433112 
L 54.386866 -148.69088 
L 54.780712 -149.441214 
L 55.075209 -150.39572 
L 55.217135 -152.593126 
L 55.564855 -153.665031 
L 56.143205 -154.338801 
L 56.813807 -154.576151 
L 58.268552 -154.638679 
L 59.063339 -155.242264 
L 58.846902 -156.32693 
L 57.842773 -158.229562 
L 57.927929 -159.246596 
L 58.410478 -160.030108 
L 59.003021 -160.774061 
L 59.4288 -161.678801 
L 59.56363 -163.571224 
L 59.758779 -164.504037 
L 60.283906 -165.131867 
L 61.018375 -165.318175 
L 62.28152 -165.221193 
L 63.023085 -165.611673 
L 63.736265 -166.54321 
L 63.967232 -167.185985 
L 64.03431 -167.37266 
L 64.403319 -167.952 
L 65.340033 -168.115338 
L 66.028375 -168.500713 
L 66.652851 -169.422041 
L 66.769941 -170.396965 
L 65.843871 -171.023519 
L 65.740975 -171.117949 
L 65.652271 -171.234072 
L 65.577759 -171.373165 
L 65.609693 -171.670491 
L 65.687752 -171.958884 
L 65.804841 -172.223032 
L 65.957412 -172.457831 
L 66.691881 -174.449788 
L 67.131853 -175.253717 
L 67.848581 -175.917278 
L 69.101081 -176.250334 
L 69.455897 -176.555317 
L 69.743298 -177.185699 
L 69.732653 -177.720376 
L 69.615564 -178.247396 
L 69.583631 -178.849705 
L 69.636853 -179.431596 
L 69.679431 -179.564309 
L 69.832002 -179.620456 
L 71.400288 -180.888877 
L 71.691237 -181.248731 
L 72.344098 -183.688592 
L 72.47538 -183.737083 
L 72.454091 -183.788126 
L 72.145401 -184.364914 
L 71.907675 -184.556325 
L 71.577696 -184.620129 
L 71.283199 -184.760498 
L 71.201727 -185.024207 
L 71.151917 -185.185432 
L 72.493121 -186.767768 
L 73.259523 -187.481096 
L 74.951995 -188.588731 
L 75.647434 -189.261225 
L 75.878065 -189.696367 
L 76.048376 -190.567928 
L 76.200947 -191.015832 
L 76.527378 -191.487981 
L 77.286684 -192.198756 
L 77.574085 -192.595616 
L 77.783426 -193.204305 
L 77.772781 -193.659865 
L 77.691174 -194.106492 
L 77.701818 -194.679451 
L 77.843745 -195.226889 
L 78.241138 -195.959357 
L 78.422095 -196.408537 
L 78.81594 -198.177181 
L 79.025282 -198.753968 
L 80.352293 -200.646392 
L 80.976769 -201.334198 
L 81.594149 -201.70426 
L 83.123405 -202.145783 
L 83.811748 -203.515015 
L 83.765622 -205.162431 
L 83.464028 -206.872376 
L 83.375324 -208.41005 
L 84.028186 -209.618495 
L 85.042959 -210.700609 
L 87.175403 -212.262529 
L 88.85723 -212.677254 
L 89.050439 -212.818879 
L 89.322039 -213.017967 
L 89.502995 -213.390582 
L 89.511521 -213.443611 
L 89.563314 -213.765749 
L 89.588151 -214.130707 
L 89.691047 -214.457383 
L 90.542605 -215.639031 
L 90.64905 -216.065241 
L 90.766139 -216.971256 
L 90.893873 -217.338767 
L 91.145793 -217.645025 
L 91.727691 -218.055922 
L 91.990254 -218.31369 
L 92.742464 -219.418774 
L 93.132762 -219.809254 
L 93.767882 -220.152518 
L 94.378165 -220.3669 
L 94.814589 -220.407734 
L 96.400616 -220.175488 
L 96.89381 -220.217598 
L 97.347974 -220.398801 
L 97.74182 -220.76376 
L 98.302429 -222.713607 
L 99.356232 -222.952233 
L 101.900262 -221.650634 
L 103.085347 -221.461774 
L 104.398166 -221.64553 
L 105.650666 -222.169998 
L 106.654795 -223.021142 
L 107.502805 -224.103256 
L 107.921488 -224.423551 
L 108.620475 -224.734914 
L 109.362041 -224.808927 
L 109.567834 -224.941639 
L 109.858783 -225.496733 
L 109.791368 -225.857863 
L 109.617508 -226.176882 
L 109.603315 -226.599264 
L 109.972324 -227.266653 
L 110.522288 -227.639267 
L 111.898974 -228.134386 
L 112.459583 -228.634608 
L 113.321786 -230.183767 
L 113.885943 -230.821806 
" style="stroke: #000000"/>
    </defs>
    <g clip-path="url(#p3d04bd5043)">
     <use xlink:href="#ma80e868e13" x="0" y="265.645702" style="fill: #f5f5f5; stroke: #000000"/>
    </g>
   </g>
  </g>
 </g>
 <defs>
  <clipPath id="p3d04bd5043">
   <rect x="7.2" y="7.2" width="357.12" height="251.245702"/>
  </clipPath>
 </defs>
</svg>
