<?xml version="1.0" encoding="utf-8" standalone="no"?>
<!DOCTYPE svg PUBLIC "-//W3C//DTD SVG 1.1//EN"
  "http://www.w3.org/Graphics/SVG/1.1/DTD/svg11.dtd">
<svg xmlns:xlink="http://www.w3.org/1999/xlink" width="319.830042pt" height="280.512pt" viewBox="0 0 319.830042 280.512" xmlns="http://www.w3.org/2000/svg" version="1.1">
 <metadata>
  <rdf:RDF xmlns:dc="http://purl.org/dc/elements/1.1/" xmlns:cc="http://creativecommons.org/ns#" xmlns:rdf="http://www.w3.org/1999/02/22-rdf-syntax-ns#">
   <cc:Work>
    <dc:type rdf:resource="http://purl.org/dc/dcmitype/StillImage"/>
    <dc:date>2024-03-04T13:11:12.801382</dc:date>
    <dc:format>image/svg+xml</dc:format>
    <dc:creator>
     <cc:Agent>
      <dc:title>Matplotlib v3.8.0, https://matplotlib.org/</dc:title>
     </cc:Agent>
    </dc:creator>
   </cc:Work>
  </rdf:RDF>
 </metadata>
 <defs>
  <style type="text/css">*{stroke-linejoin: round; stroke-linecap: butt}</style>
 </defs>
 <g id="figure_1">
  <g id="patch_1">
   <path d="M 0 280.512 
L 319.830042 280.512 
L 319.830042 0 
L 0 0 
z
" style="fill: #ffffff"/>
  </g>
  <g id="axes_1">
   <g id="PatchCollection_1">
    <defs>
     <path id="md404eaa41e" d="M 42.706099 -33.818553 
L 40.621537 -36.151777 
L 37.816211 -37.537571 
L 33.731883 -37.975935 
L 31.908774 -38.697113 
L 26.806897 -42.034331 
L 25.74695 -43.123169 
L 26.66557 -53.573185 
L 25.74695 -56.754854 
L 24.340754 -58.18307 
L 22.807364 -58.91839 
L 21.591958 -59.752694 
L 21.083184 -61.506147 
L 21.577826 -63.302023 
L 23.952107 -65.423136 
L 23.471597 -67.091745 
L 22.0866 -69.566376 
L 21.577826 -72.281401 
L 21.302239 -75.208537 
L 22.326855 -78.800288 
L 24.248892 -80.454756 
L 27.923374 -81.727424 
L 30.778164 -82.561728 
L 33.145379 -83.961663 
L 35.088615 -85.941368 
L 36.671469 -88.416 
L 37.70315 -90.452268 
L 38.169527 -91.922907 
L 38.332052 -93.11073 
L 39.738248 -94.42582 
L 40.897123 -94.835902 
L 44.833059 -94.708635 
L 50.917154 -96.320681 
L 55.623318 -100.039699 
L 59.043413 -105.370763 
L 61.191572 -111.847228 
L 61.982999 -117.560092 
L 61.700347 -122.481074 
L 58.068262 -143.960877 
L 57.771477 -148.966704 
L 58.449843 -153.859404 
L 61.021981 -159.883365 
L 66.126443 -168.051847 
L 69.628749 -173.656458 
L 72.511804 -179.12893 
L 74.165321 -181.546998 
L 80.765257 -187.01947 
L 82.150254 -188.815345 
L 85.8954 -196.536196 
L 87.478254 -198.572465 
L 89.626413 -199.477473 
L 100.077489 -199.901696 
L 100.416672 -199.98654 
L 100.720523 -200.184511 
L 101.003175 -200.481467 
L 101.463888 -201.207664 
L 104.09822 -205.360026 
L 108.804384 -210.266867 
L 114.259577 -214.197997 
L 119.629975 -216.106998 
L 125.127566 -215.810043 
L 127.996488 -216.022154 
L 130.540361 -216.715051 
L 133.359819 -218.298815 
L 135.472647 -219.826016 
L 137.762132 -221.01384 
L 141.083299 -221.607751 
L 142.708551 -221.240092 
L 145.619871 -219.472498 
L 146.566757 -219.133119 
L 147.697367 -219.797735 
L 148.517059 -222.498619 
L 149.753664 -223.969257 
L 151.018534 -224.761139 
L 152.205674 -225.114658 
L 153.420032 -224.933098 
L 153.435213 -224.930828 
L 154.933271 -224.167227 
L 158.777345 -218.58163 
L 159.385048 -215.711057 
L 159.710098 -210.083038 
L 161.038565 -207.184183 
L 163.38458 -204.992367 
L 166.055646 -204.228766 
L 168.931635 -204.539862 
L 171.934818 -205.656982 
L 181.219952 -210.804216 
L 182.633215 -211.101172 
L 183.876886 -214.084871 
L 185.657597 -215.923168 
L 186.369292 -216.304653 
L 190.406158 -218.468504 
L 195.988545 -220.64618 
L 197.472471 -222.031974 
L 198.179102 -224.110664 
L 199.012927 -229.413447 
L 199.988078 -231.280026 
L 201.062157 -231.91636 
L 202.150369 -232.10019 
L 203.238582 -232.185034 
L 204.249064 -232.48199 
L 206.361892 -233.740517 
L 212.445986 -239.524085 
L 214.233763 -241.814887 
L 215.703556 -244.289519 
L 215.96501 -245.194527 
L 216.268861 -247.160092 
L 216.664575 -247.980255 
L 217.131384 -248.364908 
L 217.625593 -248.772137 
L 219.915078 -249.804412 
L 220.748903 -250.497309 
L 221.455535 -252.576 
L 222.338824 -258.232301 
L 223.490633 -260.183725 
L 225.582261 -260.933185 
L 227.843481 -260.593807 
L 230.175364 -259.915051 
L 232.478982 -259.618095 
L 234.627141 -260.155444 
L 236.421984 -260.961466 
L 238.280424 -261.216 
L 240.360887 -260.568348 
L 241.859193 -260.101922 
L 240.774832 -258.96762 
L 239.721952 -257.468701 
L 239.290907 -255.927358 
L 239.743151 -254.45672 
L 241.735851 -253.085067 
L 242.188095 -251.218488 
L 241.898376 -250.412465 
L 241.382535 -249.634723 
L 241.015087 -248.81456 
L 241.241209 -247.994396 
L 242.442482 -247.188373 
L 243.530694 -247.358062 
L 244.421049 -247.838848 
L 244.986354 -247.994396 
L 246.668137 -246.778291 
L 247.247574 -245.929846 
L 247.784614 -242.394658 
L 248.618439 -240.400812 
L 251.105781 -236.271712 
L 251.91134 -233.485984 
L 253.183277 -231.831516 
L 253.458863 -230.714396 
L 253.324603 -230.290173 
L 253.013685 -229.696262 
L 252.688635 -228.890239 
L 252.547309 -227.872105 
L 253.282205 -225.680288 
L 255.048783 -224.351057 
L 259.076581 -222.682448 
L 260.518109 -221.664314 
L 262.567339 -219.71289 
L 263.825143 -218.94929 
L 272.85589 -215.597931 
L 275.541089 -215.216131 
L 278.198022 -213.604085 
L 278.975316 -210.026475 
L 278.720929 -206.463005 
L 278.29695 -204.850959 
L 277.56912 -204.059077 
L 278.381746 -202.277342 
L 280.642966 -199.251221 
L 282.338881 -197.441205 
L 282.946584 -196.394789 
L 284.275051 -191.473807 
L 285.589385 -188.391123 
L 287.730477 -186.708373 
L 290.980981 -187.952759 
L 291.977331 -185.053905 
L 291.86427 -181.532858 
L 290.097692 -170.743463 
L 290.055294 -169.272825 
L 290.366212 -168.565787 
L 291.581618 -166.699208 
L 291.920801 -165.440681 
L 290.352079 -161.679241 
L 290.832588 -160.236884 
L 291.920801 -154.750272 
L 291.171771 -152.431188 
L 289.779708 -150.380779 
L 289.00948 -148.273807 
L 290.055294 -145.827457 
L 287.836472 -144.088144 
L 287.002647 -143.197277 
L 286.324281 -142.094298 
L 290.422742 -141.443823 
L 290.832588 -137.823791 
L 289.030679 -129.862547 
L 291.588684 -130.414036 
L 294.054827 -129.183791 
L 296.139389 -127.090959 
L 297.602116 -125.111254 
L 298.746858 -121.137702 
L 294.040694 -105.908111 
L 292.853554 -99.884151 
L 293.432991 -90.522972 
L 292.853554 -87.737244 
L 291.440291 -85.177768 
L 289.659581 -83.890959 
L 287.363029 -82.872825 
L 285.250202 -81.65672 
L 283.342297 -81.190075 
L 282.353014 -80.624445 
L 281.109343 -80.285067 
L 279.992865 -80.553741 
L 272.85589 -84.074789 
L 271.386097 -84.541434 
L 269.619519 -84.301041 
L 268.050798 -83.070795 
L 266.100495 -79.3942 
L 264.567106 -78.107391 
L 261.705249 -77.951843 
L 258.737398 -78.800288 
L 255.826077 -79.167948 
L 253.183277 -77.612465 
L 248.689102 -77.782154 
L 244.138397 -79.917408 
L 236.711703 -86.012072 
L 235.927342 -87.086769 
L 235.220711 -89.009912 
L 234.57061 -89.759372 
L 234.104234 -89.589683 
L 229.77965 -90.621958 
L 229.115417 -90.961336 
L 226.917794 -90.310861 
L 225.582261 -89.066475 
L 225.015956 -88.322144 
L 224.388054 -87.496851 
L 222.628542 -85.870665 
L 220.664108 -84.866671 
L 218.09197 -84.032367 
L 215.477434 -83.495018 
L 213.272745 -83.396033 
L 211.57683 -83.777833 
L 207.308777 -85.856524 
L 205.718857 -86.012072 
L 205.231282 -85.092923 
L 205.160619 -83.806115 
L 204.877966 -82.844543 
L 198.702009 -75.095411 
L 196.370126 -73.483365 
L 193.317479 -73.38438 
L 190.180036 -74.600485 
L 187.325246 -76.495345 
L 185.078159 -78.46091 
L 180.838372 -83.480877 
L 179.170722 -84.767686 
L 177.609067 -85.319175 
L 176.294733 -85.361597 
L 175.142924 -85.248471 
L 174.082977 -85.40402 
L 171.674419 -87.476476 
L 171.436678 -87.681041 
L 170.500357 -88.486704 
L 169.405078 -89.108897 
L 168.005948 -89.066475 
L 167.610235 -88.302874 
L 167.624368 -87.030206 
L 166.734012 -80.030534 
L 167.71623 -69.509814 
L 164.755445 -59.172923 
L 164.181801 -45.142449 
L 164.119477 -43.618095 
L 163.38458 -40.606115 
L 162.084379 -37.622416 
L 160.416729 -34.794265 
L 158.59362 -32.319633 
L 155.795361 -29.477342 
L 153.223223 -27.964282 
L 150.460295 -27.441074 
L 147.061399 -27.540059 
L 144.008752 -28.459208 
L 142.440031 -28.445067 
L 141.422482 -27.172399 
L 140.970238 -24.301827 
L 140.376668 -23.029159 
L 139.048201 -22.223136 
L 135.988488 -21.841336 
L 133.409284 -22.237277 
L 127.721216 -24.115644 
L 126.258176 -24.598782 
L 125.283024 -24.655345 
L 121.212829 -23.184707 
L 120.19528 -22.562514 
L 119.107068 -22.138291 
L 117.693805 -22.194854 
L 114.697689 -21.798913 
L 112.139684 -20.172727 
L 109.539281 -19.296 
L 106.35944 -21.091876 
L 101.4105 -22.013996 
L 98.770221 -22.505951 
L 96.318211 -22.223136 
L 90.41784 -19.66366 
L 87.054275 -19.352563 
L 85.845936 -21.954462 
L 85.683411 -23.665493 
L 84.411474 -26.507784 
L 84.100557 -28.091548 
L 84.566933 -29.519764 
L 86.460705 -31.838848 
L 86.75749 -33.394331 
L 85.923665 -35.091221 
L 82.955814 -37.876949 
L 82.923837 -38.00313 
L 82.454106 -39.856655 
L 82.630764 -41.468701 
L 82.531835 -42.105034 
L 80.864186 -43.349421 
L 78.362711 -44.777637 
L 75.472589 -45.470534 
L 69.699412 -46.191712 
L 66.646765 -47.125002 
L 58.343848 -50.745034 
L 56.11796 -51.070272 
L 48.161292 -50.547064 
L 45.059181 -47.506802 
L 42.706099 -33.818553 
" style="stroke: #000000"/>
    </defs>
    <g clip-path="url(#p094486291c)">
     <use xlink:href="#md404eaa41e" x="0" y="280.512" style="fill: #f5f5f5; stroke: #000000"/>
    </g>
   </g>
  </g>
 </g>
 <defs>
  <clipPath id="p094486291c">
   <rect x="7.2" y="7.2" width="305.430042" height="266.112"/>
  </clipPath>
 </defs>
</svg>
