<?xml version="1.0" encoding="utf-8" standalone="no"?>
<!DOCTYPE svg PUBLIC "-//W3C//DTD SVG 1.1//EN"
  "http://www.w3.org/Graphics/SVG/1.1/DTD/svg11.dtd">
<svg xmlns:xlink="http://www.w3.org/1999/xlink" width="370.863288pt" height="280.512pt" viewBox="0 0 370.863288 280.512" xmlns="http://www.w3.org/2000/svg" version="1.1">
 <metadata>
  <rdf:RDF xmlns:dc="http://purl.org/dc/elements/1.1/" xmlns:cc="http://creativecommons.org/ns#" xmlns:rdf="http://www.w3.org/1999/02/22-rdf-syntax-ns#">
   <cc:Work>
    <dc:type rdf:resource="http://purl.org/dc/dcmitype/StillImage"/>
    <dc:date>2024-03-04T13:11:12.828017</dc:date>
    <dc:format>image/svg+xml</dc:format>
    <dc:creator>
     <cc:Agent>
      <dc:title>Matplotlib v3.8.0, https://matplotlib.org/</dc:title>
     </cc:Agent>
    </dc:creator>
   </cc:Work>
  </rdf:RDF>
 </metadata>
 <defs>
  <style type="text/css">*{stroke-linejoin: round; stroke-linecap: butt}</style>
 </defs>
 <g id="figure_1">
  <g id="patch_1">
   <path d="M 0 280.512 
L 370.863288 280.512 
L 370.863288 0 
L 0 0 
z
" style="fill: #ffffff"/>
  </g>
  <g id="axes_1">
   <g id="PatchCollection_1">
    <defs>
     <path id="mf2edcc6faa" d="M 347.460411 -50.600218 
L 345.694485 -50.607757 
L 343.626031 -50.616588 
L 343.549614 -52.23613 
L 342.477491 -52.313435 
L 341.71169 -51.772299 
L 341.55845 -50.617709 
L 341.555893 -50.603421 
L 341.554966 -50.598243 
L 341.405369 -49.762364 
L 338.982345 -50.604815 
L 338.941184 -50.619126 
L 338.929095 -50.641259 
L 337.62195 -53.034554 
L 336.51167 -55.067404 
L 337.847966 -58.501088 
L 335.782781 -59.114246 
L 333.049448 -59.114246 
L 334.082041 -61.260298 
L 333.474633 -61.996088 
L 331.331443 -60.80133 
L 329.405004 -59.727404 
L 328.919078 -60.647141 
L 327.009305 -59.921985 
L 324.760245 -59.067999 
L 322.245126 -58.112988 
L 319.996066 -57.259002 
L 317.906642 -56.465632 
L 315.677597 -55.619246 
L 313.005005 -54.638193 
L 311.13419 -53.69393 
L 309.239079 -52.737404 
L 307.330811 -51.7446 
L 305.175253 -50.623141 
L 302.399199 -47.848026 
L 299.625982 -45.071478 
L 296.852766 -42.297079 
L 294.076712 -39.520531 
L 291.851327 -37.265481 
L 289.589041 -34.98321 
L 286.519201 -31.879293 
L 283.890749 -29.218076 
L 281.869736 -27.172199 
L 281.735361 -27.092848 
L 280.717304 -26.491672 
L 279.527972 -26.342673 
L 275.111263 -26.569037 
L 272.609124 -26.694397 
L 271.758993 -26.860589 
L 271.182777 -27.166468 
L 267.715548 -30.024679 
L 267.166297 -30.256058 
L 266.680914 -30.080554 
L 265.014713 -28.831967 
L 262.857452 -27.726649 
L 260.552589 -27.026064 
L 256.236647 -26.672907 
L 251.191211 -26.257428 
L 249.989105 -25.973756 
L 244.935153 -22.871271 
L 244.610145 -22.495191 
L 244.58034 -22.136303 
L 244.699557 -21.144167 
L 244.69388 -20.71436 
L 244.609618 -20.322691 
L 244.571825 -20.147016 
L 244.39158 -19.907041 
L 244.058056 -19.894147 
L 242.332247 -20.245872 
L 241.869571 -20.487279 
L 241.449473 -20.924965 
L 241.267157 -21.219236 
L 240.918673 -21.781713 
L 240.606438 -21.950053 
L 240.388576 -21.963585 
L 238.230612 -22.09762 
L 237.85593 -22.294615 
L 237.66575 -22.76382 
L 237.582015 -24.039628 
L 237.478409 -24.565424 
L 237.083858 -25.231624 
L 235.12813 -27.437962 
L 234.478113 -27.988114 
L 234.315441 -28.064355 
L 233.762811 -28.323363 
L 233.677656 -28.340555 
L 233.618047 -28.181527 
L 231.432401 -25.702261 
L 231.176936 -25.468017 
L 230.674521 -25.251681 
L 227.824665 -24.829755 
L 227.34212 -24.585482 
L 227.021369 -24.18218 
L 226.993854 -24.157754 
L 226.69778 -23.894926 
L 226.195365 -23.999512 
L 222.686977 -25.925044 
L 220.416176 -27.169333 
L 219.337546 -27.515327 
L 218.213499 -27.672923 
L 216.916304 -27.674355 
L 216.199582 -27.472347 
L 215.181199 -26.669905 
L 214.446807 -26.091236 
L 214.199858 -25.992381 
L 213.677573 -25.888511 
L 213.422108 -25.783925 
L 212.576235 -25.106263 
L 212.202972 -24.932908 
L 211.923379 -24.894226 
L 211.379806 -24.907836 
L 211.091698 -24.807548 
L 210.787979 -24.538203 
L 210.648892 -24.236622 
L 210.563737 -23.916417 
L 210.438843 -23.59048 
L 208.625041 -20.924965 
L 208.023278 -19.731537 
L 207.9069 -19.296 
L 207.580472 -19.875522 
L 207.855807 -21.305344 
L 207.458416 -21.797472 
L 206.604027 -22.137735 
L 206.246376 -22.412095 
L 206.059035 -22.826858 
L 205.97388 -23.777446 
L 205.863179 -24.051089 
L 205.363602 -24.415708 
L 204.934989 -24.100517 
L 204.476571 -23.554663 
L 203.891839 -23.225861 
L 203.124025 -23.228727 
L 202.804693 -23.188611 
L 202.329244 -23.008093 
L 201.463501 -22.525277 
L 201.120042 -22.437883 
L 200.576469 -22.369114 
L 200.2912 -22.37771 
L 200.049927 -22.465104 
L 199.763239 -22.697916 
L 199.774593 -22.835454 
L 199.936387 -23.008093 
L 200.089666 -23.349072 
L 200.2912 -24.428602 
L 200.308231 -24.970158 
L 199.649699 -29.036841 
L 199.275016 -29.757483 
L 199.008197 -29.849175 
L 198.732863 -29.819088 
L 198.457528 -29.744589 
L 198.193547 -29.703041 
L 197.640039 -29.717368 
L 197.395928 -29.758916 
L 196.355617 -30.094881 
L 194.130232 -31.430145 
L 192.290883 -32.028292 
L 190.504046 -32.054081 
L 190.049886 -32.212393 
L 189.851191 -32.473858 
L 189.805775 -32.754665 
L 189.802937 -33.047649 
L 189.74049 -33.34923 
L 189.561664 -33.656541 
L 188.900293 -34.445952 
L 188.653343 -35.084931 
L 188.502903 -35.725342 
L 188.219053 -36.270479 
L 187.590325 -36.620771 
L 186.436474 -36.857881 
L 186.027729 -37.120063 
L 185.616147 -37.711763 
L 184.980322 -38.954619 
L 184.557386 -39.467521 
L 183.915884 -39.856496 
L 183.590876 -39.912371 
L 183.274383 -39.910938 
L 182.986275 -39.976842 
L 182.766291 -40.238307 
L 182.740745 -40.575705 
L 182.908216 -40.870122 
L 183.115427 -41.145914 
L 183.20484 -41.423856 
L 182.936601 -41.986902 
L 182.336258 -42.556395 
L 181.628052 -42.967576 
L 181.023451 -43.057836 
L 179.764576 -43.043509 
L 179.022307 -43.65455 
L 178.702976 -44.67534 
L 178.718588 -45.887393 
L 178.962699 -46.719784 
L 178.999599 -47.005606 
L 178.957022 -47.252028 
L 178.766842 -47.710488 
L 178.744134 -47.953328 
L 178.908767 -48.229837 
L 179.035229 -48.383234 
L 179.172748 -48.550042 
L 179.266419 -48.845176 
L 178.934314 -49.046469 
L 178.656141 -49.163233 
L 178.03167 -49.545044 
L 177.850006 -49.618111 
L 177.239728 -49.459799 
L 177.031099 -49.500631 
L 176.632289 -49.739889 
L 175.837509 -50.451935 
L 175.519597 -50.677583 
L 174.372842 -51.21699 
L 174.049253 -51.281461 
L 173.223249 -51.296504 
L 172.391568 -51.654676 
L 172.079333 -51.747084 
L 171.909022 -51.724161 
L 171.481828 -51.509975 
L 171.349838 -51.598801 
L 171.065988 -51.88319 
L 170.955286 -51.957689 
L 170.364878 -52.065857 
L 169.953295 -51.992074 
L 169.723376 -51.64608 
L 169.655252 -50.677583 
L 169.570097 -50.194768 
L 169.595644 -49.911095 
L 169.544551 -49.605217 
L 169.027943 -49.123117 
L 168.846279 -48.830133 
L 168.670292 -48.186856 
L 168.443212 -47.626675 
L 168.102592 -47.118788 
L 166.691857 -45.893124 
L 166.41936 -45.487673 
L 166.138349 -44.826488 
L 165.732443 -44.163154 
L 165.278283 -44.064298 
L 164.730452 -44.183212 
L 164.054889 -44.168885 
L 163.745492 -43.841516 
L 163.666014 -43.319301 
L 163.463061 -42.875168 
L 162.771886 -42.77488 
L 162.150254 -43.077893 
L 160.401737 -44.862305 
L 160.09234 -45.08867 
L 159.002356 -45.564322 
L 158.922878 -45.53137 
L 158.846238 -45.927508 
L 158.548195 -46.053585 
L 157.222615 -46.944 
L 157.006889 -47.178961 
L 155.340689 -46.7599 
L 154.738926 -46.698294 
L 153.436054 -46.805746 
L 152.598696 -46.692563 
L 152.312007 -46.689698 
L 151.616575 -46.975519 
L 151.483165 -47.513493 
L 151.443426 -48.133847 
L 151.046036 -48.671821 
L 150.668515 -48.788585 
L 150.432919 -48.658927 
L 150.194485 -48.425399 
L 149.819803 -48.234135 
L 149.25778 -48.234135 
L 149.013669 -48.195452 
L 147.875429 -45.980518 
L 147.461008 -45.408876 
L 147.049425 -45.13953 
L 145.916863 -44.869469 
L 145.590436 -44.661013 
L 145.485411 -44.356567 
L 145.418706 -44.037077 
L 145.227107 -43.785641 
L 144.977319 -43.710425 
L 144.7105 -43.738362 
L 144.443681 -43.794237 
L 144.182539 -43.809996 
L 143.566584 -43.660281 
L 143.170613 -43.382339 
L 142.113271 -41.982604 
L 141.605179 -41.492625 
L 141.020448 -41.132304 
L 140.398816 -41.062102 
L 139.737445 -41.271991 
L 139.508946 -41.534889 
L 139.419533 -41.923864 
L 139.172584 -42.509116 
L 138.247232 -43.195374 
L 137.090543 -43.143797 
L 135.879922 -42.912418 
L 134.798453 -43.056403 
L 134.280426 -43.432483 
L 133.772334 -43.946102 
L 133.007358 -44.925344 
L 132.896657 -45.461885 
L 132.714992 -45.687533 
L 132.270767 -45.720485 
L 132.016721 -45.564322 
L 131.562561 -45.075776 
L 131.287226 -45.049987 
L 130.444191 -46.259175 
L 130.310782 -46.521357 
L 130.229884 -46.741275 
L 130.184468 -46.969788 
L 130.166018 -47.266355 
L 130.254012 -47.895304 
L 130.39026 -48.374538 
L 130.306524 -48.678984 
L 128.891531 -48.884575 
L 128.582134 -48.843027 
L 128.397632 -48.880277 
L 128.11662 -49.181858 
L 127.977533 -49.232002 
L 127.733422 -49.101627 
L 127.617044 -49.01495 
L 127.665298 -48.976267 
L 127.64259 -48.911796 
L 127.625559 -48.777123 
L 127.560274 -48.658927 
L 127.392802 -48.641734 
L 126.927288 -48.840162 
L 126.776847 -48.863085 
L 125.992001 -48.746321 
L 125.777695 -48.767095 
L 125.462621 -48.954777 
L 124.963045 -49.497765 
L 124.682033 -49.731293 
L 124.466307 -49.802928 
L 123.793582 -49.946196 
L 123.671526 -49.948345 
L 123.472831 -50.398925 
L 123.350776 -51.06226 
L 123.296844 -52.203395 
L 123.518247 -53.819466 
L 123.416061 -54.419762 
L 123.308198 -54.674064 
L 123.126534 -54.989972 
L 122.896615 -55.272211 
L 122.638312 -55.420495 
L 122.391362 -55.409033 
L 121.860562 -55.26075 
L 121.65619 -55.26075 
L 121.295701 -55.550869 
L 121.12539 -56.010762 
L 120.909664 -57.159061 
L 120.549175 -57.81738 
L 120.060952 -58.130423 
L 117.636872 -58.396186 
L 117.083364 -58.591748 
L 116.589465 -59.003646 
L 116.441863 -59.280871 
L 116.326903 -59.874719 
L 116.226137 -60.136185 
L 115.99196 -60.406246 
L 115.133314 -61.067432 
L 114.940295 -61.148379 
L 114.757212 -61.250099 
L 114.59116 -61.374743 
L 114.440719 -61.518728 
L 114.625222 -62.755854 
L 114.576967 -63.114742 
L 114.298794 -63.472197 
L 113.501175 -64.051003 
L 113.052692 -65.141994 
L 112.303327 -65.777391 
L 110.732217 -66.842594 
L 110.171613 -67.546044 
L 109.720291 -68.366257 
L 108.987958 -70.114136 
L 108.874418 -70.53248 
L 108.725396 -71.899981 
L 108.502574 -72.606295 
L 108.445804 -72.950857 
L 108.502574 -73.377081 
L 109.618105 -76.409364 
L 109.567012 -76.678709 
L 109.62662 -77.167255 
L 109.518757 -77.402216 
L 109.254777 -77.583451 
L 109.050405 -77.566259 
L 108.899964 -77.478865 
L 108.803455 -77.44448 
L 108.69985 -77.420125 
L 108.570698 -77.354937 
L 108.425934 -77.383591 
L 108.261301 -77.646489 
L 108.242851 -77.833455 
L 108.366326 -78.23604 
L 108.408903 -78.71599 
L 108.477027 -78.897225 
L 108.454319 -79.044792 
L 107.98029 -79.367863 
L 107.851138 -79.492507 
L 107.792948 -79.654401 
L 107.780175 -79.904405 
L 107.696439 -80.334211 
L 107.465101 -80.767599 
L 107.137255 -81.125054 
L 106.74838 -81.322765 
L 106.200549 -81.504 
L 106.067139 -81.710307 
L 106.052947 -82.006157 
L 105.85709 -82.466766 
L 105.610141 -82.648001 
L 104.454871 -83.089985 
L 104.202244 -83.079956 
L 103.702668 -82.915197 
L 103.447202 -82.920928 
L 103.268377 -83.052735 
L 103.061166 -83.474661 
L 102.553074 -83.867934 
L 102.232324 -84.655912 
L 101.93712 -84.974685 
L 100.739272 -84.678119 
L 100.163056 -84.709638 
L 99.81392 -85.190304 
L 99.552778 -85.819254 
L 99.217835 -85.882292 
L 98.757998 -85.716817 
L 98.122173 -85.669538 
L 97.483511 -85.956792 
L 97.262108 -86.44892 
L 97.103151 -87.69106 
L 96.809366 -88.059977 
L 96.314048 -88.375885 
L 94.355482 -89.149536 
L 92.413947 -89.057844 
L 91.531173 -89.172459 
L 89.921742 -89.733356 
L 89.493129 -90.075052 
L 89.220632 -90.573627 
L 88.996391 -91.170341 
L 88.692671 -91.645994 
L 88.204449 -91.78783 
L 87.094595 -91.012746 
L 86.660304 -90.886669 
L 86.563795 -91.474787 
L 86.78236 -92.013478 
L 87.230843 -92.488414 
L 87.772997 -92.878821 
L 88.272573 -93.160344 
L 88.726733 -93.534992 
L 88.985037 -94.045745 
L 88.970844 -94.574406 
L 88.610355 -95.009227 
L 88.161871 -95.118111 
L 87.761643 -95.099486 
L 87.506178 -95.267827 
L 87.497662 -95.932594 
L 87.40683 -96.648938 
L 86.972539 -96.965562 
L 85.831462 -97.210551 
L 85.314854 -97.544367 
L 84.653483 -98.42547 
L 84.199323 -98.875334 
L 83.665685 -99.17978 
L 83.251264 -99.353135 
L 82.947544 -99.613168 
L 82.760203 -100.185526 
L 82.82265 -100.685534 
L 82.975929 -101.206316 
L 82.933351 -101.615348 
L 82.413906 -101.787987 
L 82.601247 -102.112491 
L 82.85955 -102.301606 
L 83.134885 -102.449889 
L 83.370481 -102.654763 
L 83.901281 -103.771543 
L 84.7727 -104.944197 
L 85.218345 -105.784468 
L 85.425556 -106.060977 
L 85.407895 -106.382132 
L 85.374463 -106.990075 
L 84.048883 -107.746534 
L 82.42526 -108.353993 
L 81.480039 -108.840391 
L 81.020201 -109.325355 
L 79.901832 -110.112617 
L 79.047443 -111.187849 
L 78.613152 -111.382694 
L 78.116414 -111.513785 
L 77.497621 -111.898462 
L 77.216609 -112.231561 
L 77.117262 -112.536007 
L 77.071846 -112.849766 
L 76.958306 -113.205072 
L 76.946952 -113.37413 
L 77.000883 -113.544619 
L 77.015076 -113.695051 
L 76.89302 -113.803936 
L 76.734064 -113.803936 
L 76.555238 -113.75809 
L 76.38209 -113.738032 
L 76.240165 -113.821128 
L 75.976184 -114.447212 
L 75.879675 -115.884198 
L 75.709365 -116.510282 
L 74.474617 -116.61057 
L 74.153866 -116.70083 
L 74.080065 -116.875617 
L 74.065872 -117.086222 
L 73.906916 -117.281068 
L 73.631582 -117.39425 
L 73.080912 -117.475913 
L 72.802739 -117.54898 
L 71.936996 -118.040392 
L 71.809264 -118.29541 
L 71.743978 -118.815476 
L 71.6276 -119.034677 
L 71.167762 -119.251013 
L 69.933014 -119.368493 
L 69.521431 -119.511762 
L 69.271643 -119.960193 
L 69.268805 -120.328394 
L 69.121203 -120.557624 
L 68.437124 -120.58771 
L 68.133404 -120.665075 
L 67.699113 -121.10491 
L 67.426617 -121.223823 
L 66.892979 -121.215227 
L 66.671576 -121.276833 
L 66.004528 -121.809793 
L 65.490759 -122.018965 
L 63.799012 -122.4588 
L 63.364721 -122.696626 
L 62.129973 -123.829882 
L 61.721229 -124.086333 
L 61.269907 -124.16513 
L 60.743365 -123.981746 
L 60.028063 -124.315563 
L 58.957948 -125.13506 
L 57.416641 -125.905846 
L 57.053313 -126.168027 
L 56.75527 -126.572045 
L 56.607668 -126.97463 
L 56.431681 -127.772637 
L 56.213117 -128.169492 
L 56.034291 -128.302731 
L 55.574454 -128.446 
L 55.358728 -128.567779 
L 55.196933 -128.755461 
L 54.932952 -129.195296 
L 54.759804 -129.38441 
L 54.393637 -129.632265 
L 52.75866 -130.497608 
L 52.17109 -131.883017 
L 52.049035 -132.331448 
L 52.066066 -132.679591 
L 52.650797 -133.239772 
L 54.4646 -133.858693 
L 55.080555 -134.400249 
L 55.20261 -134.88593 
L 55.120294 -135.295678 
L 54.961337 -135.681071 
L 54.856313 -136.095118 
L 54.961337 -137.288546 
L 54.941468 -137.693997 
L 54.793866 -138.163918 
L 54.385122 -138.901752 
L 54.10411 -139.778557 
L 53.837291 -140.212661 
L 53.485317 -140.557939 
L 52.789884 -140.788601 
L 52.622412 -140.941899 
L 52.486164 -141.110956 
L 52.28463 -141.237033 
L 51.609067 -141.348782 
L 51.220192 -141.34735 
L 50.368642 -141.159668 
L 49.988283 -141.135312 
L 49.153763 -141.446205 
L 48.333436 -142.076587 
L 47.013533 -143.559419 
L 46.777937 -143.688361 
L 46.562211 -143.844524 
L 46.377709 -144.026475 
L 46.227268 -144.231349 
L 46.170498 -144.725626 
L 45.608475 -145.309446 
L 45.546028 -146.293703 
L 45.27637 -146.739268 
L 42.917575 -148.921251 
L 42.040478 -149.324553 
L 40.450917 -149.506504 
L 39.579497 -149.990752 
L 39.02599 -150.055223 
L 38.489513 -150.060954 
L 36.951045 -150.346775 
L 35.023702 -150.040896 
L 34.149444 -150.06955 
L 33.283701 -150.610389 
L 33.014043 -150.673428 
L 32.815348 -150.791624 
L 32.667746 -150.973576 
L 32.557044 -151.220714 
L 31.904189 -151.851097 
L 30.956129 -151.751525 
L 29.184905 -151.139051 
L 29.040141 -151.217849 
L 28.585981 -151.57817 
L 28.37877 -151.685621 
L 28.180075 -151.715708 
L 27.782685 -151.715708 
L 27.292628 -151.770615 
L 27.124152 -151.789491 
L 26.173254 -152.011558 
L 25.738964 -152.179898 
L 25.00663 -152.580335 
L 24.262943 -153.139799 
L 23.672534 -153.837518 
L 23.402877 -154.648419 
L 23.502224 -155.551728 
L 23.83149 -156.49372 
L 25.369958 -159.0876 
L 25.645293 -159.393479 
L 26.757986 -160.134178 
L 26.945327 -160.39636 
L 26.809079 -160.733758 
L 26.062553 -161.322593 
L 25.866696 -161.711567 
L 25.971721 -162.107705 
L 26.476974 -162.839808 
L 26.539421 -163.234514 
L 26.042683 -163.498128 
L 25.020823 -163.475922 
L 24.742371 -163.437562 
L 24.864705 -163.612743 
L 24.924314 -164.006732 
L 25.090366 -164.230232 
L 26.671411 -165.43942 
L 27.503092 -165.832692 
L 30.503388 -167.731719 
L 31.129278 -167.861378 
L 33.62716 -168.123559 
L 34.974029 -168.575572 
L 35.246525 -168.726004 
L 35.399804 -168.910821 
L 35.399804 -171.866455 
L 35.42535 -172.046974 
L 35.591403 -172.462453 
L 38.080768 -176.688881 
L 38.187212 -176.957509 
L 38.217017 -177.10436 
L 38.744978 -182.401721 
L 38.932319 -182.901013 
L 39.150884 -183.221218 
L 39.947083 -183.950456 
L 41.630315 -185.843753 
L 41.830429 -186.478433 
L 41.881522 -186.805086 
L 41.834687 -194.184858 
L 41.936873 -194.752919 
L 42.030543 -194.929139 
L 42.136987 -195.03874 
L 42.236335 -195.063095 
L 42.496058 -195.082437 
L 42.7941 -195.136162 
L 43.032535 -195.245763 
L 43.266711 -195.38545 
L 44.213351 -196.168414 
L 45.16283 -196.74507 
L 45.5219 -197.146939 
L 46.275523 -198.17346 
L 46.645947 -198.553838 
L 46.877285 -198.869746 
L 47.115719 -199.375484 
L 47.273256 -199.859733 
L 47.992816 -201.348295 
L 48.290859 -202.163494 
L 48.324921 -202.32682 
L 48.333436 -202.498743 
L 48.316405 -202.655622 
L 48.23125 -202.94001 
L 48.005589 -203.462225 
L 47.963012 -203.601912 
L 47.903403 -203.907791 
L 47.924692 -204.137737 
L 47.997074 -204.432871 
L 49.369489 -207.397101 
L 49.641986 -207.728051 
L 49.837842 -207.904272 
L 50.008152 -207.974474 
L 50.439604 -208.101983 
L 50.839833 -208.261011 
L 51.133618 -208.3219 
L 51.837566 -208.265309 
L 52.15264 -208.317602 
L 52.81685 -208.575486 
L 52.974386 -208.579784 
L 53.295137 -208.538952 
L 53.47822 -208.562592 
L 53.72517 -208.663596 
L 53.921027 -208.710875 
L 54.108368 -208.730216 
L 54.436215 -208.674341 
L 54.586655 -208.624914 
L 54.863409 -208.502419 
L 55.020946 -208.452991 
L 55.182741 -208.425054 
L 55.348793 -208.420756 
L 55.497814 -208.45514 
L 55.761795 -208.553996 
L 55.915074 -208.56689 
L 56.213117 -208.523909 
L 56.372073 -208.526058 
L 56.521094 -208.551847 
L 57.032024 -208.792538 
L 57.17253 -208.835519 
L 57.496119 -208.872052 
L 57.672106 -208.874201 
L 57.999953 -208.908586 
L 58.280965 -208.997412 
L 58.540688 -209.117758 
L 58.949432 -209.257445 
L 59.261667 -209.315469 
L 59.593772 -209.345555 
L 60.697949 -209.306873 
L 61.008765 -209.356301 
L 61.353643 -209.455156 
L 61.438798 -209.46805 
L 63.466908 -210.180096 
L 64.647724 -210.472364 
L 64.805261 -210.496003 
L 65.692293 -210.504599 
L 66.318182 -210.60632 
L 66.752473 -210.726666 
L 66.911429 -210.752454 
L 68.014187 -210.709474 
L 68.23559 -210.735262 
L 68.478282 -210.801882 
L 69.054498 -211.083405 
L 70.28215 -211.406476 
L 70.580193 -211.434414 
L 70.682379 -211.358481 
L 71.875968 -209.874933 
L 72.016474 -209.644271 
L 72.071825 -209.515329 
L 72.105887 -209.362748 
L 72.271939 -205.071849 
L 72.323032 -204.918552 
L 72.395414 -204.800355 
L 72.57424 -204.604793 
L 72.787127 -204.428572 
L 73.776345 -203.847618 
L 74.193605 -203.66495 
L 74.940131 -203.447182 
L 75.01677 -203.408499 
L 75.191338 -203.268096 
L 75.289267 -203.176404 
L 75.451061 -202.959352 
L 77.091715 -200.265899 
L 77.415304 -199.853286 
L 77.802762 -199.446739 
L 77.811275 -199.437806 
L 79.921701 -198.63765 
L 85.104096 -192.558758 
L 90.28649 -186.479866 
L 91.495691 -185.690455 
L 92.178351 -185.376696 
L 93.767912 -185.247755 
L 94.061697 -185.273543 
L 104.66492 -188.874603 
L 111.773947 -189.040078 
L 113.034242 -188.818011 
L 116.959889 -188.833771 
L 119.190952 -188.551532 
L 119.349908 -188.568724 
L 119.921866 -188.723454 
L 120.075145 -188.739214 
L 123.593468 -188.22273 
L 126.305656 -188.366715 
L 126.756978 -188.446229 
L 127.039408 -188.557979 
L 129.840859 -182.722584 
L 131.160064 -181.238696 
L 142.110591 -181.143728 
L 153.061117 -181.048761 
L 153.096567 -181.048454 
L 152.757342 -181.733325 
L 152.644268 -182.722584 
L 152.681959 -183.902085 
L 153.247333 -184.967441 
L 155.018837 -186.717669 
L 157.096302 -188.327316 
L 157.645552 -188.775031 
L 161.017692 -190.563025 
L 164.316031 -191.767198 
L 170.652986 -193.16765 
L 172.966364 -195.376854 
L 174.245109 -197.40339 
L 174.287687 -201.386977 
L 175.123626 -202.040283 
L 176.636547 -202.96365 
L 183.965558 -206.521012 
L 185.205983 -207.27389 
L 191.682025 -203.136647 
L 198.158066 -198.999404 
L 205.427469 -192.449157 
L 205.867436 -192.131101 
L 206.246376 -192.008606 
L 206.629574 -192.234254 
L 206.953163 -192.537268 
L 207.482544 -192.737844 
L 207.835937 -192.825954 
L 210.938021 -192.911669 
L 210.946935 -192.911915 
L 216.82831 -193.232121 
L 218.762749 -194.017234 
L 224.667542 -199.865822 
L 230.572335 -205.714409 
L 233.576889 -209.444411 
L 234.339027 -210.205884 
L 236.047805 -212.864235 
L 237.851672 -217.433075 
L 238.209323 -217.949559 
L 244.679688 -223.42923 
L 251.150052 -228.908901 
L 251.607051 -229.777826 
L 251.734784 -230.466232 
L 249.779056 -234.153253 
L 249.356119 -236.026491 
L 249.272383 -238.911207 
L 249.659839 -243.398384 
L 249.523591 -246.234389 
L 249.472498 -246.556027 
L 249.344765 -246.993713 
L 249.25961 -247.158472 
L 242.035624 -255.218055 
L 251.159987 -255.258528 
L 260.28435 -255.299001 
L 260.326928 -255.966634 
L 260.309897 -256.319075 
L 260.254546 -256.640713 
L 259.909668 -257.607061 
L 259.709554 -258.892181 
L 259.696781 -259.250353 
L 259.722327 -259.602078 
L 259.828771 -260.266128 
L 259.837286 -260.625733 
L 259.818836 -260.797655 
L 259.786193 -260.958116 
L 259.794709 -261.09852 
L 259.875606 -261.216 
L 272.988064 -261.055539 
L 272.817754 -258.774701 
L 271.223936 -253.412152 
L 271.252321 -250.195769 
L 270.879058 -246.523791 
L 270.785387 -246.226509 
L 270.427736 -245.434949 
L 270.114081 -244.981504 
L 269.753592 -244.543818 
L 269.651406 -244.379059 
L 269.527931 -244.11043 
L 269.519415 -243.705695 
L 270.881186 -233.429387 
L 272.242958 -223.153079 
L 272.140772 -222.634447 
L 272.038586 -222.2949 
L 271.313348 -221.012645 
L 271.126007 -220.590718 
L 271.087687 -220.264065 
L 271.381472 -220.040566 
L 277.420385 -217.820617 
L 277.714169 -217.678781 
L 277.948346 -217.497546 
L 280.122638 -214.854238 
L 286.070009 -209.976654 
L 292.017379 -205.09907 
L 292.426123 -204.613389 
L 293.656614 -201.550304 
L 293.794281 -201.085397 
L 293.836858 -200.351861 
L 293.807054 -199.782367 
L 293.500496 -197.944946 
L 293.602682 -197.119002 
L 293.807054 -196.573148 
L 293.971687 -195.942765 
L 293.971687 -195.750785 
L 293.94756 -195.58531 
L 293.858147 -195.293042 
L 292.094019 -191.754304 
L 291.517803 -189.23564 
L 291.347493 -187.116695 
L 291.449679 -185.891031 
L 291.649793 -185.10377 
L 291.740625 -184.922535 
L 291.817265 -184.789295 
L 291.898162 -184.709064 
L 291.983317 -184.673247 
L 296.647902 -184.653909 
L 296.988419 -177.737424 
L 297.383268 -169.717332 
L 297.778118 -161.69724 
L 297.651795 -161.003476 
L 297.539684 -160.387764 
L 297.184871 -159.755233 
L 296.617171 -159.120552 
L 293.903563 -156.674239 
L 293.34154 -156.336841 
L 292.83061 -156.196437 
L 291.277949 -156.190707 
L 290.335567 -156.081106 
L 289.87573 -155.956462 
L 289.435762 -155.765915 
L 289.149073 -155.571786 
L 288.010834 -154.588246 
L 287.891617 -154.550996 
L 287.593574 -154.503717 
L 286.344634 -154.664178 
L 285.679005 -155.424219 
L 285.13969 -156.372658 
L 284.281043 -157.09903 
L 283.723277 -157.18929 
L 283.318791 -157.027396 
L 282.928497 -156.806046 
L 282.406213 -156.714354 
L 281.991791 -156.891291 
L 281.57737 -157.227256 
L 281.114694 -157.492303 
L 280.55551 -157.467947 
L 280.708789 -157.260208 
L 280.697435 -157.160636 
L 280.439131 -157.014502 
L 278.588428 -156.794584 
L 278.232196 -156.875531 
L 278.010793 -156.854041 
L 277.805001 -156.747306 
L 277.427481 -156.452888 
L 277.166339 -156.366927 
L 274.183073 -157.028829 
L 273.700528 -156.958627 
L 272.911425 -156.263774 
L 272.936971 -156.153457 
L 273.019288 -155.992279 
L 272.814916 -155.807463 
L 272.400494 -155.722218 
L 272.022974 -155.540267 
L 271.89808 -155.344705 
L 271.852664 -155.131234 
L 271.855502 -154.662746 
L 271.824279 -154.536669 
L 271.688031 -154.348987 
L 271.668161 -154.199271 
L 271.72777 -154.111877 
L 271.974719 -153.933508 
L 272.022974 -153.837518 
L 271.960527 -153.50012 
L 271.722093 -152.977905 
L 271.668161 -152.770882 
L 271.756155 -152.443513 
L 271.949173 -152.1756 
L 272.142191 -151.969293 
L 272.343724 -151.659833 
L 272.593513 -151.513699 
L 272.962518 -151.359685 
L 272.924198 -151.000797 
L 272.73118 -150.856095 
L 272.474296 -150.770134 
L 272.230184 -150.584601 
L 272.020135 -150.275857 
L 271.909434 -150.023704 
L 271.864018 -149.743614 
L 271.855502 -149.354639 
L 271.940657 -149.204923 
L 272.315339 -148.935578 
L 272.400494 -148.787295 
L 272.326693 -148.237859 
L 272.110967 -147.850317 
L 271.767509 -147.57166 
L 271.293479 -147.350309 
L 270.470313 -147.214204 
L 270.356773 -147.073801 
L 270.300003 -146.839556 
L 270.169432 -146.558033 
L 270.004799 -146.295852 
L 268.446462 -144.699838 
L 268.097326 -144.224186 
L 267.958239 -143.946244 
L 267.836184 -143.363141 
L 267.702774 -143.171161 
L 267.572203 -143.03219 
L 267.449937 -142.775567 
L 267.428859 -142.731326 
L 267.065531 -142.334471 
L 266.961925 -142.032174 
L 267.65452 -140.18544 
L 267.887277 -139.754201 
L 268.361307 -139.470529 
L 268.46775 -139.237001 
L 268.551486 -138.983415 
L 268.650834 -138.812926 
L 268.843852 -138.725532 
L 269.587539 -138.642436 
L 270.194979 -138.371658 
L 270.561145 -138.318649 
L 270.728617 -138.547879 
L 270.870542 -138.613782 
L 271.760412 -138.812926 
L 271.99175 -138.771378 
L 272.775177 -138.453321 
L 273.666466 -138.315783 
L 273.899223 -138.247014 
L 274.32216 -137.878814 
L 274.753612 -137.373075 
L 275.25035 -136.926076 
L 276.776045 -136.534953 
L 277.123761 -136.543549 
L 277.799325 -136.99198 
L 278.043436 -137.110893 
L 279.229929 -137.355883 
L 279.939555 -137.381671 
L 280.412165 -137.20545 
L 280.657696 -137.012038 
L 281.16153 -136.867336 
L 281.435445 -136.732664 
L 281.702264 -136.483376 
L 282.082623 -135.97907 
L 282.370731 -135.768465 
L 282.95972 -135.599408 
L 284.742299 -135.768465 
L 285.031827 -135.693965 
L 285.781191 -135.201121 
L 286.646934 -134.951833 
L 286.908076 -134.821459 
L 287.275662 -134.404547 
L 288.144244 -133.18533 
L 289.529432 -132.155228 
L 289.801928 -132.083593 
L 290.369629 -132.014824 
L 290.656317 -131.948921 
L 291.476644 -131.464672 
L 294.885685 -127.967483 
L 295.356876 -127.205293 
L 295.547056 -126.269748 
L 295.561248 -123.682315 
L 295.629372 -123.540479 
L 295.805359 -123.457383 
L 297.065654 -122.465963 
L 297.815018 -121.524688 
L 298.34298 -121.132131 
L 298.856749 -121.245314 
L 299.313747 -121.464515 
L 299.68843 -121.23815 
L 299.949572 -120.748171 
L 300.082981 -120.179394 
L 300.082981 -119.312082 
L 300.082981 -119.013187 
L 300.151105 -118.387102 
L 300.363993 -118.113459 
L 300.576881 -118.043258 
L 300.747191 -117.881364 
L 301.019687 -117.52749 
L 302.143733 -116.696531 
L 302.277143 -116.53034 
L 302.41623 -116.050389 
L 302.606409 -115.91715 
L 302.79375 -115.832621 
L 302.878905 -115.7309 
L 306.767653 -114.796788 
L 308.538878 -113.553215 
L 308.777312 -113.18788 
L 308.961814 -112.76667 
L 309.078193 -112.282422 
L 309.117932 -111.738717 
L 309.058323 -111.661352 
L 308.802858 -111.48155 
L 308.74325 -111.454329 
L 308.771635 -111.286704 
L 308.896529 -111.003748 
L 308.930591 -110.886268 
L 309.117932 -109.750863 
L 309.435844 -109.479369 
L 309.921228 -109.37335 
L 311.093529 -109.371918 
L 311.692453 -109.298134 
L 312.160806 -109.111885 
L 314.02854 -107.866879 
L 314.196011 -107.564582 
L 314.329421 -107.055978 
L 314.661525 -106.6756 
L 314.851705 -106.555254 
L 315.12704 -105.424148 
L 315.41089 -104.304502 
L 316.021168 -102.724965 
L 316.245409 -101.127518 
L 316.478166 -100.56877 
L 317.573828 -98.679772 
L 317.749815 -97.960563 
L 317.769685 -96.327299 
L 317.905933 -95.772849 
L 318.873862 -94.080129 
L 319.393308 -92.722658 
L 319.850306 -92.196862 
L 320.369752 -91.716195 
L 320.838105 -91.128793 
L 321.05667 -90.589387 
L 321.29058 -89.103569 
L 321.34052 -88.78635 
L 321.050993 -88.198948 
L 320.954483 -87.885906 
L 320.943129 -87.562835 
L 321.082216 -87.26197 
L 321.533538 -86.771991 
L 321.618693 -86.461814 
L 321.559084 -86.068542 
L 321.471091 -85.751918 
L 321.419998 -85.447472 
L 321.468252 -85.082853 
L 321.740748 -84.470379 
L 323.963295 -81.294111 
L 324.355008 -80.554845 
L 324.593443 -78.945937 
L 324.880131 -78.411544 
L 326.106364 -77.501788 
L 328.306203 -76.208071 
L 329.364964 -75.345594 
L 329.566497 -74.788278 
L 329.685714 -74.458044 
L 329.521081 -74.144285 
L 329.282647 -73.855599 
L 329.086791 -73.556883 
L 329.055567 -73.218053 
L 329.16343 -72.962318 
L 330.066074 -71.525333 
L 330.474818 -71.061858 
L 330.980071 -70.821883 
L 331.64428 -70.922888 
L 332.263074 -71.357708 
L 333.381443 -72.591968 
L 333.986044 -72.998135 
L 334.479944 -73.096274 
L 335.058998 -73.096274 
L 335.632375 -73.021058 
L 336.123436 -72.892833 
L 336.747906 -72.523199 
L 337.931562 -71.559717 
L 338.598609 -71.37705 
L 339.251465 -71.516737 
L 339.742526 -71.746683 
L 340.250617 -71.867029 
L 340.94605 -71.677914 
L 342.751337 -70.556836 
L 344.255743 -69.970867 
L 344.391991 -69.723728 
L 343.648304 -68.635602 
L 343.463801 -67.990177 
L 343.548956 -67.451486 
L 344.093948 -66.401327 
L 344.33806 -65.735843 
L 344.343737 -65.164917 
L 344.119495 -64.609035 
L 343.069249 -63.270188 
L 342.930163 -62.912733 
L 342.813784 -57.11608 
L 343.043703 -55.767921 
L 343.716428 -54.616041 
L 347.460411 -50.600218 
" style="stroke: #000000"/>
    </defs>
    <g clip-path="url(#p2e43eb2e69)">
     <use xlink:href="#mf2edcc6faa" x="0" y="280.512" style="fill: #f5f5f5; stroke: #000000"/>
    </g>
   </g>
  </g>
 </g>
 <defs>
  <clipPath id="p2e43eb2e69">
   <rect x="7.2" y="7.2" width="356.463288" height="266.112"/>
  </clipPath>
 </defs>
</svg>
