<?xml version="1.0" encoding="utf-8" standalone="no"?>
<!DOCTYPE svg PUBLIC "-//W3C//DTD SVG 1.1//EN"
  "http://www.w3.org/Graphics/SVG/1.1/DTD/svg11.dtd">
<svg xmlns:xlink="http://www.w3.org/1999/xlink" width="371.52pt" height="277.098755pt" viewBox="0 0 371.52 277.098755" xmlns="http://www.w3.org/2000/svg" version="1.1">
 <metadata>
  <rdf:RDF xmlns:dc="http://purl.org/dc/elements/1.1/" xmlns:cc="http://creativecommons.org/ns#" xmlns:rdf="http://www.w3.org/1999/02/22-rdf-syntax-ns#">
   <cc:Work>
    <dc:type rdf:resource="http://purl.org/dc/dcmitype/StillImage"/>
    <dc:date>2024-03-04T13:11:12.946459</dc:date>
    <dc:format>image/svg+xml</dc:format>
    <dc:creator>
     <cc:Agent>
      <dc:title>Matplotlib v3.8.0, https://matplotlib.org/</dc:title>
     </cc:Agent>
    </dc:creator>
   </cc:Work>
  </rdf:RDF>
 </metadata>
 <defs>
  <style type="text/css">*{stroke-linejoin: round; stroke-linecap: butt}</style>
 </defs>
 <g id="figure_1">
  <g id="patch_1">
   <path d="M 0 277.098755 
L 371.52 277.098755 
L 371.52 0 
L 0 0 
z
" style="fill: #ffffff"/>
  </g>
  <g id="axes_1">
   <g id="PatchCollection_1">
    <defs>
     <path id="m43772fa8a0" d="M 301.36 -153.602421 
L 301.761835 -152.015373 
L 302.810692 -151.071304 
L 303.133522 -150.31436 
L 303.538081 -149.700927 
L 304.337665 -149.336525 
L 305.193096 -149.164876 
L 305.778822 -149.131109 
L 305.487321 -148.476873 
L 305.253031 -148.087146 
L 305.152232 -147.718523 
L 305.27755 -147.12338 
L 305.648055 -146.812442 
L 306.184743 -146.685816 
L 306.585216 -146.356588 
L 306.536179 -145.447693 
L 306.241954 -144.970734 
L 305.214891 -143.967573 
L 304.825315 -143.399162 
L 304.716343 -142.843413 
L 304.664581 -142.180736 
L 304.520193 -141.585593 
L 304.136066 -141.243702 
L 303.138971 -140.628862 
L 302.820227 -139.690421 
L 302.938734 -138.553598 
L 303.558514 -136.177246 
L 303.693367 -135.069971 
L 303.595292 -132.709095 
L 304.275006 -132.574027 
L 309.189651 -130.742168 
L 309.554708 -130.02884 
L 309.325867 -129.352093 
L 308.546715 -129.063667 
L 308.97988 -128.316572 
L 309.486601 -127.639825 
L 310.129536 -127.091112 
L 312.208181 -126.329947 
L 312.949192 -125.830477 
L 313.46681 -125.032732 
L 315.411963 -120.453084 
L 315.526384 -119.247321 
L 315.139533 -117.038397 
L 313.95446 -112.861139 
L 313.949012 -110.601564 
L 314.477527 -109.188978 
L 315.335683 -108.332141 
L 316.319157 -107.57379 
L 317.239971 -106.458073 
L 317.561439 -105.433807 
L 317.553267 -104.326531 
L 317.239971 -102.119014 
L 316.400886 -99.687791 
L 314.635536 -97.855932 
L 310.137709 -95.309338 
L 310.862374 -94.686055 
L 311.573418 -93.612546 
L 312.657691 -91.495074 
L 313.316973 -89.529554 
L 314.4857 -87.687846 
L 315.452828 -86.583384 
L 318.4986 -84.339286 
L 318.830965 -83.963628 
L 319.299546 -83.151813 
L 319.599219 -82.801481 
L 320.149529 -82.525717 
L 320.637179 -82.463811 
L 321.062171 -82.280906 
L 321.427228 -81.649182 
L 321.312807 -80.681195 
L 320.558175 -77.763164 
L 320.683493 -77.1638 
L 321.146624 -77.038581 
L 322.541468 -76.342137 
L 322.950114 -76.041048 
L 323.151713 -75.637251 
L 323.478629 -74.586253 
L 323.718368 -74.207781 
L 324.344958 -73.684393 
L 324.639183 -73.65344 
L 324.927959 -73.960157 
L 327.140094 -75.648506 
L 327.27631 -76.700911 
L 327.589605 -77.816629 
L 328.120844 -78.72271 
L 328.927238 -79.158867 
L 329.681871 -79.049124 
L 330.057825 -78.618595 
L 330.360223 -78.085358 
L 330.888738 -77.664677 
L 331.39001 -77.599957 
L 332.419797 -77.819443 
L 333.746533 -77.868686 
L 333.986272 -77.63091 
L 333.91544 -76.855676 
L 334.05438 -76.315405 
L 334.637381 -76.249278 
L 335.299387 -76.420926 
L 335.680789 -76.59961 
L 335.686238 -75.414951 
L 336.064916 -74.358326 
L 337.36441 -72.533501 
L 338.557655 -71.464213 
L 338.783772 -70.939418 
L 338.702043 -70.342868 
L 338.02914 -69.362218 
L 337.830266 -68.77411 
L 337.988275 -67.799088 
L 338.494996 -67.130783 
L 339.121586 -66.546895 
L 339.611961 -65.826533 
L 339.63648 -63.922919 
L 339.900737 -63.040756 
L 340.83245 -62.819863 
L 341.562563 -62.375265 
L 342.186429 -61.895492 
L 342.851159 -61.487474 
L 343.709315 -61.263768 
L 344.265073 -61.041469 
L 344.205139 -60.658776 
L 343.913638 -60.243723 
L 343.80739 -59.929972 
L 344.534779 -58.870532 
L 344.831729 -58.205041 
L 345.036052 -57.86315 
L 345.245823 -57.685874 
L 345.703506 -57.464981 
L 345.621777 -57.235647 
L 345.327552 -57.006313 
L 345.153197 -56.786828 
L 345.147748 -56.318311 
L 345.019706 -55.256057 
L 344.875318 -54.714378 
L 345.698058 -54.556799 
L 346.308302 -54.812866 
L 346.692429 -55.433334 
L 346.820471 -56.380217 
L 347.261808 -55.907479 
L 347.504272 -55.348917 
L 347.624141 -54.725634 
L 347.735837 -53.310234 
L 347.558758 -52.98382 
L 347.220944 -52.776997 
L 346.763261 -52.399933 
L 346.531695 -52.394305 
L 346.19933 -52.580023 
L 345.8261 -52.706649 
L 345.480113 -52.520931 
L 345.441973 -52.187482 
L 345.698058 -51.892021 
L 346.00318 -51.613443 
L 346.1176 -51.325017 
L 345.896932 -50.772082 
L 345.602707 -50.209299 
L 345.406557 -49.645109 
L 345.57274 -48.760132 
L 345.49101 -48.52517 
L 345.333001 -48.297243 
L 345.202234 -47.996154 
L 345.224029 -47.659891 
L 345.431076 -47.533265 
L 345.678987 -47.499498 
L 345.809754 -47.454475 
L 345.877862 -47.405232 
L 346.071287 -47.154793 
L 346.300129 -46.763659 
L 346.469036 -46.306397 
L 346.580732 -45.750649 
L 346.62977 -45.100634 
L 346.515349 -44.508305 
L 346.147568 -44.11295 
L 346.147568 -43.868139 
L 346.703326 -42.860757 
L 346.801401 -42.344404 
L 346.370961 -41.640925 
L 345.640847 -41.508671 
L 344.946149 -41.283557 
L 344.387667 -39.851274 
L 343.976297 -39.561441 
L 343.652105 -39.153423 
L 343.701142 -38.351457 
L 343.902741 -38.219203 
L 344.303214 -38.067251 
L 344.714584 -37.77179 
L 344.973393 -37.211821 
L 344.98429 -36.646224 
L 344.711859 -34.926921 
L 344.758172 -34.347255 
L 344.880766 -33.973004 
L 344.946149 -33.579055 
L 344.815383 -32.954366 
L 343.720212 -32.439419 
L 343.341534 -32.096122 
L 343.92726 -31.890706 
L 344.308662 -31.643081 
L 344.918906 -30.562538 
L 345.343898 -30.179845 
L 345.313931 -30.582235 
L 345.61088 -31.161902 
L 346.019525 -31.322295 
L 346.343718 -30.452795 
L 346.458139 -29.994126 
L 346.790504 -29.102115 
L 346.888579 -28.612494 
L 347.305397 -29.282206 
L 347.419818 -29.591737 
L 348.087273 -28.649075 
L 347.981025 -27.377185 
L 347.624141 -25.939274 
L 347.526066 -24.492921 
L 346.071287 -24.552013 
L 342.61142 -25.818275 
L 340.83245 -26.003994 
L 336.291034 -25.655068 
L 334.100693 -25.241422 
L 330.044203 -23.707838 
L 328.052737 -23.372982 
L 323.740162 -23.555887 
L 322.655889 -23.79507 
L 319.468453 -25.154191 
L 319.397621 -25.244236 
L 319.294097 -25.303328 
L 318.92904 -25.300515 
L 318.700199 -25.207655 
L 318.117198 -24.79401 
L 316.112109 -23.682513 
L 315.411963 -23.539003 
L 314.28955 -23.65156 
L 311.110286 -24.723662 
L 309.80262 -24.681453 
L 308.857286 -24.211529 
L 307.111007 -22.593527 
L 305.160405 -21.490472 
L 296.257377 -19.140853 
L 295.403308 -19.579823 
L 293.906302 -21.909746 
L 292.963693 -22.599155 
L 290.678001 -23.434888 
L 289.570572 -23.707838 
L 288.65793 -23.750047 
L 287.769806 -23.567142 
L 286.740019 -23.161938 
L 285.200787 -22.303694 
L 284.806423 -22.185939 
L 284.739017 -22.165812 
L 283.987109 -22.188324 
L 283.795046 -22.399367 
L 283.755543 -22.779246 
L 283.473578 -23.297006 
L 281.990194 -24.971286 
L 281.122503 -25.683207 
L 280.094078 -26.113736 
L 279.011167 -26.240363 
L 275.605786 -26.046202 
L 274.518789 -26.189712 
L 274.208218 -26.637125 
L 273.980738 -27.171769 
L 273.14029 -27.5826 
L 271.577902 -27.697971 
L 271.073905 -27.894945 
L 270.519509 -28.409892 
L 270.407813 -28.874188 
L 270.492266 -29.239997 
L 270.515423 -29.453855 
L 269.206395 -30.618816 
L 267.145458 -31.704987 
L 265.22891 -31.682476 
L 264.346235 -29.512947 
L 264.173242 -28.463356 
L 263.565722 -27.928712 
L 262.702117 -27.866806 
L 261.762232 -28.238243 
L 260.740618 -28.122872 
L 259.825252 -28.215732 
L 259.047463 -28.643447 
L 258.439943 -29.521389 
L 258.205653 -30.579421 
L 258.396354 -31.47706 
L 259.180954 -33.328617 
L 259.38119 -34.265651 
L 259.4384 -35.360264 
L 259.210921 -36.38453 
L 258.535293 -37.127404 
L 257.731623 -37.251216 
L 256.820344 -37.099264 
L 255.854578 -37.068311 
L 254.905157 -37.563561 
L 254.410696 -36.958569 
L 253.992515 -37.248402 
L 253.645167 -37.282169 
L 253.273299 -37.225891 
L 252.801994 -37.228705 
L 252.13454 -37.026103 
L 251.922044 -36.989522 
L 251.682305 -37.113334 
L 251.178309 -37.662048 
L 250.886808 -37.805557 
L 250.48906 -37.774604 
L 249.59685 -37.521352 
L 249.139167 -37.44819 
L 248.680121 -37.524166 
L 248.030375 -37.951881 
L 247.586313 -38.075693 
L 247.123181 -38.041926 
L 245.544447 -37.704256 
L 245.289724 -37.617025 
L 245.167131 -37.46226 
L 245.022742 -37.330006 
L 244.714896 -37.307494 
L 244.460174 -37.403167 
L 244.006577 -37.729582 
L 243.764114 -37.833696 
L 243.597856 -37.879625 
L 241.227786 -38.534362 
L 224.172277 -39.167493 
L 205.484909 -39.246282 
L 191.759413 -39.304139 
L 186.793455 -39.325072 
L 168.108812 -39.406675 
L 163.868577 -39.424552 
L 149.420083 -39.485465 
L 146.84289 -39.496721 
L 145.330901 -39.26598 
L 143.9633 -38.635662 
L 140.901182 -36.407041 
L 137.694675 -34.918479 
L 134.896007 -32.836516 
L 134.744254 -32.723625 
L 121.436025 -26.420453 
L 119.618914 -26.034947 
L 110.527749 -26.577764 
L 110.004843 -26.608986 
L 105.820311 -26.307897 
L 104.80687 -26.496429 
L 101.510461 -27.613554 
L 99.638864 -27.782389 
L 95.655931 -27.081723 
L 95.299047 -26.924144 
L 95.070205 -26.744054 
L 94.822294 -26.642753 
L 94.389129 -26.718728 
L 93.25037 -27.174583 
L 92.686439 -27.278698 
L 92.133405 -27.160513 
L 88.493734 -25.162633 
L 84.271062 -22.855222 
L 82.674619 -22.196765 
L 80.018422 -22.174254 
L 77.266875 -21.479217 
L 76.294298 -21.439822 
L 69.148447 -21.923815 
L 67.211466 -21.451078 
L 66.008411 -20.606948 
L 65.661594 -21.294651 
L 65.41276 -22.014747 
L 65.181087 -23.129235 
L 64.846448 -23.499254 
L 64.054898 -24.062037 
L 62.842904 -25.258506 
L 62.302333 -25.963092 
L 62.079241 -26.665464 
L 62.079241 -28.932106 
L 62.195077 -29.423988 
L 62.714197 -29.902575 
L 62.832178 -30.401103 
L 63.2183 -30.974965 
L 65.837494 -32.561393 
L 66.987279 -32.601275 
L 68.624007 -32.461687 
L 70.387297 -33.578391 
L 70.951464 -34.054763 
L 71.251781 -34.497899 
L 71.481309 -34.95433 
L 71.828819 -35.468368 
L 73.847379 -36.957306 
L 74.816974 -35.814014 
L 75.563476 -33.748999 
L 76.294963 -33.283705 
L 76.327139 -34.130096 
L 76.86771 -34.7948 
L 77.800838 -35.065114 
L 78.836932 -34.830251 
L 80.604512 -33.811038 
L 82.191902 -33.367901 
L 83.938031 -32.534805 
L 84.853998 -32.461687 
L 85.890092 -32.966863 
L 87.157859 -34.555507 
L 88.090987 -35.065114 
L 89.317997 -35.011937 
L 90.362671 -34.628624 
L 91.4052 -34.515625 
L 92.608613 -35.266741 
L 93.222118 -35.517113 
L 93.631836 -35.040741 
L 93.940734 -34.349448 
L 94.243196 -33.950626 
L 98.348959 -35.503819 
L 99.292813 -35.729818 
L 100.55629 -35.809583 
L 101.373581 -36.053308 
L 102.05573 -36.558483 
L 102.840844 -36.966169 
L 103.99492 -36.921855 
L 104.919467 -36.41668 
L 106.315941 -35.293329 
L 107.152539 -34.617546 
L 107.594434 -34.116802 
L 108.207939 -34.006018 
L 111.586506 -33.950626 
L 111.910419 -33.711332 
L 112.592568 -32.986804 
L 112.845692 -32.833922 
L 113.311183 -32.898177 
L 114.66261 -33.239392 
L 115.267534 -33.618273 
L 115.853153 -34.336154 
L 116.599655 -34.768212 
L 117.702248 -34.285194 
L 117.989694 -34.535566 
L 118.324333 -34.701742 
L 118.665407 -34.708389 
L 119.386168 -34.178841 
L 119.692921 -34.232017 
L 119.963206 -34.364958 
L 120.254942 -34.285194 
L 120.666806 -33.804391 
L 121.020751 -32.880451 
L 121.303907 -32.461687 
L 121.644981 -32.144845 
L 122.022523 -31.914414 
L 122.49874 -31.77261 
L 123.137986 -31.754885 
L 123.736475 -31.878963 
L 126.145447 -32.884883 
L 127.110752 -33.881939 
L 128.730319 -36.01121 
L 129.333098 -36.463209 
L 129.869378 -36.742385 
L 130.25121 -37.121266 
L 130.397078 -37.870167 
L 130.094616 -38.202519 
L 129.517578 -38.457323 
L 129.19581 -38.752008 
L 129.646286 -39.188498 
L 129.131456 -40.422632 
L 128.650949 -42.079962 
L 128.479339 -43.777175 
L 128.929815 -45.137603 
L 129.539029 -45.509838 
L 130.294112 -45.536426 
L 131.085662 -45.465524 
L 131.806423 -45.543073 
L 132.540055 -45.868779 
L 133.039868 -46.260954 
L 133.370217 -46.759483 
L 133.608325 -47.40203 
L 134.691612 -46.334072 
L 135.682658 -46.046033 
L 136.356226 -46.619895 
L 136.484934 -48.142068 
L 135.669787 -47.277952 
L 134.893253 -47.30454 
L 134.097413 -47.656834 
L 133.2458 -47.774265 
L 132.44996 -47.41754 
L 131.150016 -46.449287 
L 130.204017 -46.249876 
L 129.669882 -46.24766 
L 128.878332 -46.13466 
L 128.161861 -45.753563 
L 127.848673 -44.951486 
L 127.848673 -41.791924 
L 128.445017 -39.749065 
L 128.537258 -39.188498 
L 128.569434 -38.300009 
L 128.530822 -37.861304 
L 128.372083 -37.497932 
L 127.095736 -36.383444 
L 126.690308 -35.851681 
L 124.034647 -33.407784 
L 123.335337 -32.964647 
L 122.708962 -32.933628 
L 122.159811 -33.181784 
L 121.696464 -33.578391 
L 121.996781 -35.206917 
L 120.396521 -35.942524 
L 116.657573 -36.554052 
L 114.119894 -34.918879 
L 113.188911 -34.695095 
L 113.008721 -34.867918 
L 112.777048 -35.251231 
L 112.397362 -35.63676 
L 111.766696 -35.809583 
L 111.123159 -35.692152 
L 110.232934 -35.180329 
L 109.591542 -35.065114 
L 108.980183 -35.237937 
L 108.186488 -35.654485 
L 106.873673 -36.554052 
L 106.811464 -36.822149 
L 106.877963 -37.207678 
L 106.903705 -37.553324 
L 106.706354 -37.699559 
L 106.007044 -37.794834 
L 105.640228 -37.905618 
L 105.40212 -38.038559 
L 105.071771 -38.490558 
L 104.353155 -39.932967 
L 104.160094 -40.116868 
L 103.917695 -40.21879 
L 103.716054 -40.409338 
L 103.516557 -41.570356 
L 103.244127 -42.195178 
L 102.918069 -42.195178 
L 102.918069 -41.791924 
L 102.840844 -41.56814 
L 102.274532 -40.451436 
L 102.029988 -40.099143 
L 101.832637 -38.242401 
L 100.361083 -37.29409 
L 98.203091 -36.921855 
L 97.645359 -36.67813 
L 96.559928 -35.958033 
L 96.238159 -35.809583 
L 95.680428 -35.871622 
L 94.40408 -36.212837 
L 92.411262 -36.212837 
L 91.819209 -36.071033 
L 90.813147 -35.619034 
L 90.248979 -35.468368 
L 89.614023 -35.468368 
L 87.910797 -35.809583 
L 87.338049 -35.692152 
L 86.604418 -35.180329 
L 86.128201 -35.065114 
L 85.94801 -34.808095 
L 85.688451 -34.223154 
L 85.32807 -33.604979 
L 84.853998 -33.239392 
L 82.691716 -33.950626 
L 80.941296 -34.960977 
L 80.124005 -35.654485 
L 79.780785 -36.383444 
L 79.570563 -36.509738 
L 79.087911 -36.66262 
L 78.600968 -36.90413 
L 78.341409 -37.29409 
L 78.429359 -37.834716 
L 78.763998 -38.317735 
L 79.248795 -38.663381 
L 79.780785 -38.783028 
L 79.780785 -39.188498 
L 78.969929 -39.208439 
L 78.457245 -39.620556 
L 78.161218 -40.280829 
L 77.981028 -41.047455 
L 77.620648 -36.554052 
L 77.2238 -36.554052 
L 76.526636 -37.500148 
L 74.589591 -39.195145 
L 74.349337 -40.267535 
L 73.731542 -39.766791 
L 73.323969 -39.161909 
L 72.843462 -38.656734 
L 72.009009 -38.444029 
L 71.378343 -38.576969 
L 70.951464 -38.949204 
L 70.741242 -39.527497 
L 70.779855 -40.267535 
L 71.526357 -41.690002 
L 72.577467 -42.757961 
L 73.268196 -43.994312 
L 72.942137 -45.915308 
L 72.706174 -44.439664 
L 72.581757 -44.0209 
L 72.298601 -43.542312 
L 72.054057 -43.30745 
L 71.803078 -43.150137 
L 70.754113 -42.16859 
L 70.307928 -41.608022 
L 70.089125 -40.903435 
L 70.024772 -39.746849 
L 70.402313 -37.816991 
L 70.290767 -36.926286 
L 68.703377 -36.237209 
L 66.397371 -34.285194 
L 64.627645 -33.658156 
L 63.65376 -34.243096 
L 63.244042 -35.652269 
L 63.156092 -37.497932 
L 63.443538 -39.421144 
L 64.280136 -41.335493 
L 65.637998 -42.407883 
L 67.478512 -41.791924 
L 67.562172 -42.598432 
L 66.809234 -43.192235 
L 65.717367 -43.413803 
L 64.790675 -43.090313 
L 63.705243 -41.740963 
L 63.102464 -41.302258 
L 62.435331 -41.450709 
L 62.748519 -41.893845 
L 62.855775 -42.36357 
L 62.748519 -42.824432 
L 62.435331 -43.276431 
L 63.580826 -44.893878 
L 63.810354 -45.700387 
L 63.550794 -46.657561 
L 63.156092 -46.657561 
L 62.909403 -46.054896 
L 62.549022 -45.789014 
L 62.220819 -45.997288 
L 62.079241 -46.825953 
L 62.207948 -47.477364 
L 62.523281 -48.173088 
L 64.404553 -51.004729 
L 64.595468 -51.696022 
L 64.54184 -52.391746 
L 64.293006 -53.667979 
L 64.235088 -54.292801 
L 64.35307 -55.431661 
L 64.872189 -57.693873 
L 64.988026 -59.145144 
L 64.906511 -60.035848 
L 64.679128 -60.492279 
L 64.759592 -61.746355 
L 64.950293 -62.355567 
L 65.285383 -62.800166 
L 66.11902 -63.630271 
L 66.285203 -64.15366 
L 67.064354 -65.484642 
L 68.903259 -65.899695 
L 71.197124 -65.877183 
L 79.884931 -65.796987 
L 87.894387 -65.723825 
L 99.557135 -65.616896 
L 106.427831 -65.55499 
L 109.817261 -65.523163 
L 111.222607 -65.509967 
L 113.197728 -65.493084 
L 113.551888 -65.756185 
L 113.649963 -69.635168 
L 113.669611 -70.484499 
L 113.758935 -74.345663 
L 113.968707 -75.113862 
L 114.578951 -75.454346 
L 118.254038 -75.811714 
L 120.621458 -76.574285 
L 121.286189 -76.591168 
L 124.841406 -76.240836 
L 125.702287 -76.328067 
L 127.287832 -76.864118 
L 128.505596 -77.535237 
L 129.739706 -78.003754 
L 131.385186 -77.930592 
L 137.136193 -76.692469 
L 139.078622 -76.695283 
L 140.794934 -77.014663 
L 142.522143 -77.660456 
L 144.036857 -78.677687 
L 145.12113 -80.104342 
L 145.439873 -81.609788 
L 145.638748 -84.978045 
L 146.377034 -86.188029 
L 147.569502 -87.437295 
L 148.668174 -88.588299 
L 149.872317 -89.077921 
L 151.321647 -88.12541 
L 153.689068 -85.881312 
L 156.307125 -83.963628 
L 156.315298 -83.960814 
L 156.326195 -83.952373 
L 156.334368 -83.946745 
L 159.780613 -82.16835 
L 161.562308 -81.697019 
L 163.581018 -81.530998 
L 164.373791 -81.296036 
L 166.136416 -80.204236 
L 167.103544 -79.886264 
L 168.182368 -79.678034 
L 168.7463 -79.326295 
L 169.808778 -77.827884 
L 171.279903 -76.501123 
L 173.042528 -75.7484 
L 174.968611 -75.516252 
L 176.921938 -75.7484 
L 178.630077 -76.181744 
L 179.232148 -75.965072 
L 180.741166 -74.545697 
L 181.229063 -74.086783 
L 181.92921 -73.684393 
L 182.692015 -73.460687 
L 184.351116 -73.393153 
L 185.052625 -73.193365 
L 185.642437 -72.57571 
L 186.045634 -72.028404 
L 186.544182 -71.575363 
L 187.102664 -71.18845 
L 189.024661 -70.182475 
L 190.403159 -69.78712 
L 191.829333 -69.674563 
L 194.82743 -69.941885 
L 197.689312 -69.398799 
L 199.214922 -69.452263 
L 200.367303 -70.027709 
L 202.899544 -71.958056 
L 203.689593 -72.31683 
L 204.602235 -72.305574 
L 206.86477 -73.134273 
L 208.989727 -73.159598 
L 211.106512 -73.735044 
L 215.089445 -74.081155 
L 217.700691 -75.234861 
L 219.201783 -77.546493 
L 219.404744 -80.33227 
L 218.140667 -82.907003 
L 217.608065 -83.351602 
L 216.412095 -84.064929 
L 216.041768 -84.38459 
L 215.931256 -84.479982 
L 215.657463 -84.93865 
L 215.321011 -85.971357 
L 215.048581 -86.445502 
L 214.165906 -87.172899 
L 212.900467 -87.822914 
L 211.561471 -88.294245 
L 210.454041 -88.488405 
L 209.747084 -88.373035 
L 208.673708 -87.735683 
L 208.053929 -87.457105 
L 207.503619 -87.369874 
L 206.586891 -87.448663 
L 206.020235 -87.428966 
L 204.950946 -87.15883 
L 202.512693 -85.896789 
L 199.471007 -85.201751 
L 198.471187 -84.764187 
L 195.549371 -82.923886 
L 192.453198 -81.806762 
L 191.539194 -81.584462 
L 190.576152 -81.71953 
L 189.309351 -82.320301 
L 185.48449 -85.085646 
L 185.055349 -85.395912 
L 184.522748 -85.982613 
L 184.180847 -86.712824 
L 183.476615 -89.077921 
L 182.975343 -90.11907 
L 182.262937 -91.02093 
L 181.242685 -91.846814 
L 178.978788 -92.916102 
L 176.810241 -93.082123 
L 174.674386 -92.503863 
L 171.437912 -90.676225 
L 170.786804 -90.465181 
L 170.048517 -90.73391 
L 167.882695 -92.057858 
L 167.517638 -92.47291 
L 166.4933 -96.005782 
L 166.021995 -97.008943 
L 165.35454 -97.937535 
L 164.493074 -98.641039 
L 163.49384 -99.45705 
L 161.567757 -100.102843 
L 156.244466 -100.34484 
L 153.106067 -101.546382 
L 151.978205 -101.602661 
L 148.134211 -100.176005 
L 144.162175 -97.613935 
L 143.039761 -97.345206 
L 142.592975 -97.68569 
L 141.571361 -99.05466 
L 141.078262 -99.527398 
L 138.795294 -99.896021 
L 136.354318 -98.963207 
L 134.125836 -97.311439 
L 132.483081 -95.520381 
L 131.897355 -94.593196 
L 131.352494 -93.45356 
L 130.9384 -92.256239 
L 130.873621 -91.884934 
L 130.744974 -91.147556 
L 130.638726 -88.985061 
L 129.810538 -88.70367 
L 127.230621 -88.712111 
L 123.958732 -88.726181 
L 120.681393 -88.737437 
L 117.409503 -88.751506 
L 114.132165 -88.762762 
L 110.857551 -88.776832 
L 107.585661 -88.788087 
L 104.308322 -88.802157 
L 101.033708 -88.813412 
L 99.909252 -88.816314 
L 97.761818 -88.821854 
L 94.487204 -88.835924 
L 91.215314 -88.847179 
L 87.937976 -88.861249 
L 84.663362 -88.872505 
L 81.391472 -88.886574 
L 78.116858 -88.89783 
L 74.814385 -88.911379 
L 74.808393 -88.921693 
L 74.289274 -89.721554 
L 74.023279 -90.290985 
L 74.057601 -91.819805 
L 74.958552 -92.668411 
L 76.284237 -93.359704 
L 77.620648 -94.414369 
L 77.339637 -94.571682 
L 76.796921 -94.981583 
L 76.50733 -95.123387 
L 77.176608 -95.76815 
L 77.669986 -96.599031 
L 77.582036 -97.259304 
L 76.50733 -97.390029 
L 76.648908 -96.519266 
L 76.391493 -95.464602 
L 75.831616 -94.724564 
L 75.070098 -94.784387 
L 74.692557 -93.641096 
L 73.87312 -92.867823 
L 72.839171 -92.575353 
L 71.828819 -92.894411 
L 70.904272 -93.873742 
L 70.670453 -94.877446 
L 71.108058 -97.017795 
L 71.211024 -98.362714 
L 71.350457 -98.905556 
L 71.828819 -99.621221 
L 73.70151 -101.85906 
L 74.023279 -102.627901 
L 74.332176 -102.426274 
L 75.155903 -102.036314 
L 75.46051 -101.850197 
L 75.342528 -102.098353 
L 75.070098 -103.000136 
L 76.899887 -103.334704 
L 76.989982 -102.257882 
L 77.369669 -101.238669 
L 77.968157 -100.622709 
L 78.733966 -100.766729 
L 78.334973 -102.009726 
L 78.244878 -103.385665 
L 78.01964 -104.473564 
L 77.2238 -104.859093 
L 77.504811 -105.594699 
L 78.648161 -110.664179 
L 78.733966 -111.548237 
L 77.582036 -109.846593 
L 77.099383 -108.783066 
L 76.68323 -106.529717 
L 76.142659 -105.182582 
L 75.445494 -104.287447 
L 74.739749 -104.486858 
L 74.349337 -104.486858 
L 73.821637 -103.755683 
L 72.890654 -103.472076 
L 71.796642 -103.325841 
L 70.779855 -103.000136 
L 70.213542 -102.521549 
L 70.024772 -102.069549 
L 69.936822 -101.606472 
L 69.668681 -101.105728 
L 69.381235 -100.839846 
L 68.776311 -100.489768 
L 68.428801 -100.192867 
L 67.903246 -99.191379 
L 67.504254 -98.828007 
L 66.970118 -99.078379 
L 66.802799 -99.607927 
L 66.798509 -100.281494 
L 66.699833 -100.859787 
L 66.217181 -101.105728 
L 65.545757 -101.584315 
L 65.271182 -102.661137 
L 65.341971 -103.804428 
L 65.708787 -104.486858 
L 65.387018 -105.231328 
L 65.163926 -106.077718 
L 64.988026 -107.832538 
L 65.039509 -108.756477 
L 65.219699 -109.286025 
L 65.545757 -109.644966 
L 66.757751 -110.619866 
L 67.375546 -110.859159 
L 68.05126 -110.890179 
L 69.602183 -110.710709 
L 70.337959 -110.478062 
L 70.839918 -110.039357 
L 70.779855 -109.317045 
L 71.517776 -109.986181 
L 72.099104 -110.790473 
L 72.832736 -111.231394 
L 74.023279 -110.803767 
L 74.003972 -112.002451 
L 74.417981 -112.538646 
L 75.085114 -112.870999 
L 75.818745 -113.438213 
L 75.162338 -113.207782 
L 74.448013 -113.057116 
L 73.783025 -113.190057 
L 73.268196 -113.779428 
L 75.651426 -115.270582 
L 76.50733 -116.043855 
L 77.875917 -117.736636 
L 78.624565 -118.388047 
L 80.317066 -118.884359 
L 81.136502 -119.930161 
L 81.775749 -120.169455 
L 82.215499 -119.961181 
L 82.638088 -119.562358 
L 83.075692 -119.323064 
L 83.592667 -119.593377 
L 83.91229 -119.837102 
L 84.766048 -120.249219 
L 85.182202 -120.541689 
L 81.861553 -120.667983 
L 80.437193 -121.215257 
L 80.531578 -122.396215 
L 79.699271 -121.959726 
L 79.390373 -121.173159 
L 79.553402 -120.348925 
L 80.141166 -119.79722 
L 79.486904 -119.429417 
L 78.944188 -119.471515 
L 78.416488 -119.673142 
L 77.800838 -119.79722 
L 77.356798 -119.628828 
L 77.168027 -119.216712 
L 77.060771 -118.715967 
L 76.899887 -118.275047 
L 75.546315 -115.862169 
L 75.070098 -115.299386 
L 74.529527 -115.05123 
L 73.388323 -114.778701 
L 72.761947 -114.355506 
L 72.298601 -113.757271 
L 71.642193 -112.492117 
L 71.108058 -111.953706 
L 69.923951 -111.554884 
L 68.804197 -111.780883 
L 67.665138 -112.179706 
L 66.397371 -112.292706 
L 67.635106 -114.53276 
L 67.673718 -114.927151 
L 68.561799 -115.18417 
L 70.024772 -116.823775 
L 69.319027 -116.613285 
L 68.636878 -115.549758 
L 68.05126 -115.299386 
L 66.886459 -115.263935 
L 66.425257 -115.157582 
L 66.03699 -114.927151 
L 66.656931 -114.200408 
L 66.605448 -113.712958 
L 65.708787 -112.66494 
L 65.554338 -112.246176 
L 65.419195 -111.466256 
L 65.151055 -111.009826 
L 64.104236 -109.804495 
L 63.876853 -109.317045 
L 63.636599 -107.788224 
L 63.876853 -102.627901 
L 63.550794 -102.627901 
L 63.237606 -113.079273 
L 62.973756 -114.656838 
L 62.100692 -117.27799 
L 61.139677 -119.216712 
L 60.669896 -119.79722 
L 59.981312 -120.12071 
L 58.608434 -120.430905 
L 58.085024 -120.909493 
L 57.812594 -121.693844 
L 57.364263 -124.629622 
L 57.021044 -125.560209 
L 56.596309 -126.244854 
L 55.598828 -127.264068 
L 55.141917 -127.516656 
L 54.794407 -127.591989 
L 54.567024 -127.817989 
L 54.48551 -128.531438 
L 54.549863 -129.08979 
L 54.815858 -130.159964 
L 54.878067 -130.782571 
L 54.620652 -131.682138 
L 53.983551 -132.648175 
L 52.327517 -134.332093 
L 48.556393 -136.122364 
L 47.97721 -136.747187 
L 47.676893 -137.465068 
L 45.814928 -140.276768 
L 44.424889 -144.023486 
L 42.296928 -146.970343 
L 40.782472 -148.372869 
L 39.877231 -148.999907 
L 38.841137 -149.482926 
L 37.697787 -149.67569 
L 36.844028 -149.9172 
L 34.608812 -151.095942 
L 34.265592 -151.499197 
L 32.523753 -151.47704 
L 31.009297 -151.663157 
L 29.687902 -151.57453 
L 28.50594 -150.723708 
L 28.94998 -150.200807 
L 29.584936 -150.010258 
L 29.190234 -149.217044 
L 28.50594 -148.893555 
L 28.68613 -148.720732 
L 29.010044 -148.32634 
L 29.190234 -148.153517 
L 28.864176 -147.373597 
L 28.68613 -147.320421 
L 28.50594 -147.003578 
L 27.813066 -147.455577 
L 24.269325 -151.867 
L 23.432727 -152.64692 
L 32.135486 -154.982249 
L 34.709632 -157.091578 
L 42.573649 -160.457198 
L 44.381986 -161.921764 
L 52.760832 -171.94994 
L 54.438317 -174.453661 
L 58.110765 -178.550457 
L 65.442792 -191.580882 
L 69.10666 -196.450951 
L 75.998936 -208.023457 
L 76.24348 -208.568515 
L 76.153384 -209.129082 
L 75.818745 -209.90014 
L 77.01079 -211.944748 
L 77.528408 -214.947197 
L 77.653726 -220.876118 
L 77.967021 -221.500807 
L 78.69441 -223.906705 
L 79.609777 -226.10156 
L 79.844067 -229.78779 
L 80.225469 -230.882403 
L 80.993723 -231.543673 
L 82.938877 -232.007969 
L 83.761617 -232.548241 
L 84.093982 -233.102583 
L 84.320099 -233.741342 
L 86.477749 -242.956917 
L 86.752903 -245.12926 
L 87.150652 -246.150711 
L 87.880765 -247.172163 
L 88.853342 -248.114825 
L 89.975756 -248.798606 
L 91.177174 -249.040603 
L 92.920729 -248.708561 
L 93.511903 -248.666352 
L 94.11125 -248.773281 
L 94.647938 -249.023719 
L 96.198067 -250.123961 
L 96.802863 -250.405352 
L 97.437626 -250.517909 
L 98.102356 -250.388469 
L 98.587283 -250.093008 
L 98.976858 -249.690618 
L 99.614345 -248.745142 
L 100.507917 -247.80248 
L 101.575845 -247.287533 
L 102.766366 -247.149651 
L 104.024995 -247.326928 
L 104.400949 -247.59425 
L 104.774178 -247.78841 
L 105.169203 -247.855944 
L 105.607816 -247.751829 
L 106.288892 -247.481693 
L 106.621257 -247.45074 
L 107.010832 -247.526716 
L 109.100374 -248.455308 
L 109.844109 -248.539726 
L 111.685739 -248.095127 
L 112.129801 -248.095127 
L 113.429294 -248.328682 
L 114.271104 -248.286473 
L 116.654871 -247.507019 
L 118.365734 -247.411346 
L 118.81252 -247.279092 
L 120.057527 -246.688169 
L 120.882992 -246.477125 
L 121.69211 -246.522148 
L 122.471261 -246.783842 
L 123.198651 -247.245325 
L 124.364653 -248.311799 
L 124.988519 -248.697305 
L 125.792189 -248.823931 
L 128.056086 -248.359635 
L 128.835237 -248.435611 
L 129.461827 -248.745142 
L 129.968548 -249.220694 
L 131.248971 -251.049739 
L 131.902804 -251.629406 
L 132.668333 -251.972703 
L 133.466555 -251.902356 
L 133.962378 -251.494338 
L 134.264776 -250.939996 
L 134.624384 -250.430677 
L 135.275493 -250.1521 
L 136.05192 -250.168983 
L 136.792931 -250.354702 
L 139.013239 -251.277666 
L 139.835979 -251.454943 
L 141.527772 -251.514035 
L 144.023235 -251.120087 
L 144.873218 -251.15104 
L 150.534323 -252.040237 
L 151.645839 -252.456697 
L 151.989102 -252.68181 
L 152.215219 -252.991341 
L 152.234289 -253.396545 
L 152.059934 -253.742657 
L 151.207226 -254.572762 
L 150.893931 -255.301566 
L 151.000179 -256.005045 
L 151.457862 -256.542503 
L 152.20977 -256.747919 
L 152.969851 -256.519992 
L 153.446605 -255.990975 
L 153.860699 -255.366286 
L 154.411009 -254.842898 
L 154.789687 -254.719085 
L 155.181987 -254.755666 
L 155.555216 -254.913246 
L 155.882133 -255.158056 
L 156.140942 -255.492912 
L 156.258087 -255.844652 
L 156.42427 -256.607223 
L 156.764808 -257.110914 
L 157.306944 -257.471095 
L 158.483844 -257.957903 
L 159.083191 -257.654 
L 159.77244 -256.919568 
L 159.821148 -256.823521 
L 160.22195 -256.033184 
L 160.769536 -255.343775 
L 161.742112 -255.194637 
L 163.349452 -255.57733 
L 172.353279 -254.930129 
L 172.960799 -255.003291 
L 174.742494 -255.467587 
L 175.26556 -255.481657 
L 175.728692 -255.352217 
L 177.210714 -254.651551 
L 177.790991 -254.55025 
L 178.373992 -254.569948 
L 180.582041 -255.191823 
L 181.14461 -255.205893 
L 183.281827 -254.761294 
L 183.852569 -254.750039 
L 184.4165 -254.814759 
L 184.966809 -254.963896 
L 185.488514 -255.203079 
L 186.871098 -256.03037 
L 187.376457 -256.227344 
L 188.41033 -256.292064 
L 191.75169 -254.977966 
L 192.158973 -254.699388 
L 192.379642 -254.294184 
L 192.357848 -253.697634 
L 192.079969 -252.662113 
L 192.169871 -252.245653 
L 192.66297 -252.023354 
L 194.683042 -252.203445 
L 195.193849 -251.961448 
L 195.372291 -251.53936 
L 195.44176 -250.565745 
L 195.715553 -250.143658 
L 196.2645 -249.887592 
L 197.528578 -249.80036 
L 198.129287 -249.693431 
L 198.557003 -249.440179 
L 199.451937 -248.26959 
L 199.826529 -247.923478 
L 201.075622 -247.039909 
L 202.865491 -244.957611 
L 205.997079 -242.126811 
L 207.747444 -241.116616 
L 208.104328 -240.787387 
L 209.025143 -239.687146 
L 209.493724 -239.383243 
L 210.530322 -238.980853 
L 211.015248 -238.713531 
L 211.331267 -238.344908 
L 211.368045 -237.96503 
L 211.03568 -237.126483 
L 210.937605 -236.665 
L 211.045215 -236.310447 
L 211.564195 -235.632293 
L 211.795761 -235.142672 
L 211.814831 -234.684004 
L 211.545125 -233.707575 
L 211.741275 -232.838075 
L 212.638933 -232.351267 
L 214.706681 -231.746275 
L 215.141207 -231.490209 
L 215.97212 -230.859892 
L 216.319469 -230.485641 
L 216.581002 -230.043856 
L 217.026426 -228.577806 
L 217.277062 -228.057231 
L 217.609427 -227.578866 
L 218.027608 -227.173662 
L 218.505723 -226.875387 
L 218.951147 -226.76283 
L 219.378863 -226.805039 
L 219.794319 -226.95699 
L 220.657924 -227.455053 
L 221.507907 -228.107882 
L 221.867515 -228.50183 
L 222.803314 -229.858138 
L 223.201062 -230.24083 
L 223.647848 -230.49971 
L 224.112342 -230.629151 
L 224.601355 -230.654476 
L 225.105351 -230.595384 
L 224.997741 -229.897532 
L 224.698042 -228.983825 
L 224.462415 -228.265461 
L 224.631322 -227.694236 
L 224.880596 -227.539471 
L 225.426819 -227.325613 
L 225.665196 -227.15115 
L 225.723769 -227.058291 
L 225.805498 -226.864131 
L 225.873605 -226.785341 
L 226.001648 -226.709366 
L 226.324478 -226.585553 
L 226.470228 -226.506764 
L 226.816215 -226.202861 
L 226.931998 -226.132513 
L 227.299779 -226.067793 
L 227.644403 -226.160652 
L 229.088285 -226.931665 
L 229.392045 -226.996385 
L 230.382329 -227.002013 
L 230.567582 -227.02171 
L 230.966693 -227.142709 
L 232.56586 -227.834932 
L 235.341926 -228.425854 
L 236.05978 -228.718502 
L 236.351281 -228.808547 
L 236.652316 -228.819803 
L 237.001028 -228.749455 
L 237.09774 -227.989697 
L 236.213703 -226.335115 
L 236.116991 -225.49094 
L 236.652316 -225.125131 
L 238.574313 -225.876447 
L 239.368448 -225.856749 
L 239.629981 -225.566916 
L 240.053611 -224.832484 
L 240.313782 -224.514511 
L 241.764474 -223.538082 
L 242.081856 -223.146948 
L 242.213984 -222.727674 
L 242.267108 -221.773757 
L 242.339302 -221.354483 
L 243.07214 -219.51981 
L 243.411316 -218.954213 
L 243.809065 -218.433639 
L 244.272197 -217.955273 
L 245.603019 -216.942263 
L 245.910866 -216.52299 
L 246.026649 -216.069949 
L 245.993957 -215.605653 
L 245.792358 -214.685503 
L 245.792358 -214.23809 
L 245.905417 -213.872281 
L 246.130172 -213.545867 
L 247.085041 -212.431556 
L 247.553621 -211.593009 
L 247.806982 -210.664417 
L 247.821965 -209.612012 
L 247.70482 -209.153344 
L 247.529103 -208.691862 
L 247.411958 -208.230379 
L 247.481427 -207.766083 
L 247.753858 -207.394646 
L 248.123001 -207.104813 
L 248.929395 -206.632075 
L 249.351662 -206.302847 
L 249.705822 -205.922968 
L 250.306531 -205.042212 
L 250.532649 -204.589172 
L 250.592583 -204.189596 
L 250.499957 -203.79002 
L 249.703098 -202.543455 
L 249.509672 -202.10167 
L 249.452462 -201.617677 
L 249.528742 -201.159008 
L 250.02729 -199.805515 
L 250.820063 -199.828026 
L 252.401521 -200.106604 
L 253.169775 -200.064395 
L 253.548454 -199.90963 
L 254.523755 -199.204744 
L 254.909244 -199.048571 
L 256.122922 -198.719343 
L 256.782203 -198.333837 
L 257.346134 -197.814669 
L 257.726175 -197.174503 
L 257.850131 -196.407711 
L 257.553182 -194.35918 
L 257.559992 -193.885036 
L 257.658067 -193.422146 
L 257.84332 -192.922676 
L 258.145866 -192.689092 
L 259.759868 -192.272662 
L 260.515863 -192.369742 
L 261.312722 -192.863584 
L 262.010144 -193.426367 
L 262.785209 -193.858303 
L 263.610673 -193.97086 
L 264.447034 -193.58254 
L 264.7794 -193.178743 
L 264.941496 -192.706005 
L 265.153991 -191.20056 
L 265.328347 -190.83053 
L 265.858224 -190.131272 
L 266.095239 -189.723254 
L 266.194676 -189.301166 
L 266.202849 -187.477749 
L 266.403085 -186.589958 
L 266.837612 -185.752818 
L 267.477823 -185.062002 
L 270.617584 -182.916391 
L 271.289125 -182.205877 
L 271.631026 -181.315273 
L 271.346336 -180.559736 
L 270.471834 -180.417634 
L 268.671069 -180.604759 
L 268.134381 -180.198148 
L 268.451762 -179.518587 
L 269.657267 -178.310011 
L 270.116312 -177.945608 
L 270.584893 -177.779587 
L 271.088889 -177.769739 
L 272.215389 -178.004701 
L 272.772509 -178.004701 
L 273.303749 -177.852749 
L 273.783226 -177.5193 
L 274.059743 -177.145049 
L 274.191872 -176.727183 
L 274.202769 -176.27977 
L 273.918079 -174.898137 
L 273.953495 -174.469015 
L 274.115591 -173.975173 
L 274.176888 -173.828849 
L 275.504987 -173.402541 
L 275.922864 -172.998266 
L 277.482832 -171.489078 
L 278.89266 -170.888307 
L 278.930643 -170.893269 
L 279.474299 -170.964283 
L 281.141573 -171.475009 
L 281.952054 -171.598821 
L 282.443791 -171.425765 
L 282.859247 -171.009306 
L 283.540323 -170.14684 
L 286.444432 -168.426131 
L 287.365247 -167.72828 
L 287.925092 -167.397644 
L 289.159202 -167.110625 
L 289.72177 -166.79828 
L 290.176729 -166.279113 
L 290.427365 -165.74869 
L 291.656027 -161.404003 
L 291.685994 -160.817302 
L 292.413383 -160.381145 
L 294.192354 -158.255231 
L 295.11998 -157.472963 
L 298.436821 -155.902798 
L 301.36 -153.602421 
" style="stroke: #000000"/>
    </defs>
    <g clip-path="url(#pf63d36554f)">
     <use xlink:href="#m43772fa8a0" x="0" y="277.098755" style="fill: #f5f5f5; stroke: #000000"/>
    </g>
   </g>
  </g>
 </g>
 <defs>
  <clipPath id="pf63d36554f">
   <rect x="7.2" y="7.2" width="357.12" height="262.698755"/>
  </clipPath>
 </defs>
</svg>
