<?xml version="1.0" encoding="utf-8" standalone="no"?>
<!DOCTYPE svg PUBLIC "-//W3C//DTD SVG 1.1//EN"
  "http://www.w3.org/Graphics/SVG/1.1/DTD/svg11.dtd">
<svg xmlns:xlink="http://www.w3.org/1999/xlink" width="272.679187pt" height="280.512pt" viewBox="0 0 272.679187 280.512" xmlns="http://www.w3.org/2000/svg" version="1.1">
 <metadata>
  <rdf:RDF xmlns:dc="http://purl.org/dc/elements/1.1/" xmlns:cc="http://creativecommons.org/ns#" xmlns:rdf="http://www.w3.org/1999/02/22-rdf-syntax-ns#">
   <cc:Work>
    <dc:type rdf:resource="http://purl.org/dc/dcmitype/StillImage"/>
    <dc:date>2024-03-04T13:11:12.975611</dc:date>
    <dc:format>image/svg+xml</dc:format>
    <dc:creator>
     <cc:Agent>
      <dc:title>Matplotlib v3.8.0, https://matplotlib.org/</dc:title>
     </cc:Agent>
    </dc:creator>
   </cc:Work>
  </rdf:RDF>
 </metadata>
 <defs>
  <style type="text/css">*{stroke-linejoin: round; stroke-linecap: butt}</style>
 </defs>
 <g id="figure_1">
  <g id="patch_1">
   <path d="M 0 280.512 
L 272.679187 280.512 
L 272.679187 0 
L 0 0 
z
" style="fill: #ffffff"/>
  </g>
  <g id="axes_1">
   <g id="PatchCollection_1">
    <path d="M 253.739224 138.139797 
L 253.686974 142.20325 
L 251.295513 151.843791 
L 249.924945 154.836524 
L 249.768194 156.608189 
L 250.33491 158.826834 
L 250.945837 160.391264 
L 250.728797 161.848011 
L 248.815629 163.7172 
L 247.308406 164.592874 
L 245.781087 165.072361 
L 244.18544 165.295851 
L 237.911373 165.328358 
L 236.355919 165.56607 
L 234.527155 166.474252 
L 233.381666 167.906619 
L 231.577018 171.277253 
L 230.74905 172.067595 
L 228.779612 173.162695 
L 228.08026 173.741737 
L 227.762739 174.477222 
L 227.650199 175.399626 
L 227.843124 194.408457 
L 226.058572 194.684772 
L 225.491856 194.879817 
L 221.822271 196.883099 
L 218.868114 199.406503 
L 208.489138 212.128483 
L 207.666432 213.13691 
L 206.802291 213.81957 
L 205.769341 214.26655 
L 202.811165 214.953273 
L 199.631929 216.749319 
L 188.088611 225.940849 
L 186.696838 227.736295 
L 181.637697 234.2628 
L 180.96648 234.900762 
L 174.563797 237.810194 
L 173.24146 238.086509 
L 170.532478 242.357197 
L 169.125736 243.665629 
L 168.884581 243.962261 
L 169.089563 244.783078 
L 170.190841 246.595378 
L 170.448073 247.582797 
L 170.291322 248.269521 
L 169.877338 248.696183 
L 169.298565 248.907483 
L 167.602436 249.098465 
L 167.353242 249.62265 
L 167.63459 251.207397 
L 167.461762 252.381735 
L 166.979451 253.873022 
L 166.235888 255.1652 
L 164.105679 256.388299 
L 163.780119 257.721111 
L 163.944909 259.712203 
L 163.342019 260.07385 
L 160.876851 261.216 
L 159.585624 260.166541 
L 156.386039 259.430641 
L 154.82897 258.611551 
L 153.354186 257.568491 
L 152.180056 256.535031 
L 152.882635 256.419846 
L 153.246584 256.247069 
L 153.480777 255.955909 
L 153.775101 255.459975 
L 151.594573 255.405583 
L 150.645141 255.555963 
L 150.012186 255.997503 
L 149.524811 255.997503 
L 148.819067 254.231341 
L 147.73355 253.089095 
L 143.613016 249.607964 
L 132.612267 243.164032 
L 114.402165 236.512128 
L 95.647722 229.009139 
L 80.735313 224.225783 
L 83.099399 222.238851 
L 85.944529 222.130066 
L 88.85612 223.06434 
L 91.400597 224.225783 
L 91.274006 223.534676 
L 90.900563 223.032344 
L 90.31508 222.718786 
L 89.546041 222.613201 
L 88.944734 222.440424 
L 88.311779 221.483753 
L 87.685154 221.003817 
L 86.232524 220.424695 
L 85.406518 220.351105 
L 84.026677 221.096605 
L 83.36524 220.754251 
L 82.72912 220.184728 
L 82.083507 219.883968 
L 81.836654 219.212059 
L 82.520245 217.737058 
L 83.520313 216.258857 
L 84.982438 214.97263 
L 85.795785 213.766392 
L 86.821171 212.921706 
L 88.216836 213.388843 
L 89.071325 212.979298 
L 89.973285 212.844917 
L 91.929114 212.857715 
L 92.327876 212.768127 
L 93.267813 212.438571 
L 93.790001 212.364981 
L 94.356495 212.531359 
L 95.299597 213.241663 
L 95.650887 213.388843 
L 97.185802 212.960101 
L 98.508677 212.15061 
L 100.002449 211.443505 
L 102.072211 211.341119 
L 101.913972 211.072355 
L 101.736745 210.490034 
L 101.591165 210.214871 
L 103.008983 209.786129 
L 104.442625 209.587755 
L 105.505989 209.03103 
L 105.83829 207.485639 
L 105.259137 207.485639 
L 104.774926 207.604023 
L 104.249574 207.636018 
L 103.702068 207.719207 
L 103.179881 208.023166 
L 102.724154 207.309662 
L 102.600728 206.996105 
L 101.831688 207.143285 
L 100.945552 207.168881 
L 100.204995 207.293664 
L 99.901177 207.754402 
L 99.698631 208.435911 
L 99.192268 208.771865 
L 97.825086 209.146215 
L 96.907302 209.587755 
L 95.413529 209.632549 
L 94.647654 209.808526 
L 93.049444 210.576422 
L 91.35629 210.902778 
L 89.69795 211.593885 
L 88.748518 211.827454 
L 88.245319 211.776261 
L 86.685086 211.421108 
L 85.830597 211.341119 
L 84.067819 210.688407 
L 83.49816 209.18461 
L 83.089904 207.527233 
L 81.792348 206.410583 
L 81.792348 205.927448 
L 82.17845 205.565897 
L 82.396819 205.105159 
L 82.453785 204.500441 
L 82.374666 203.726145 
L 81.789183 204.260473 
L 81.219524 204.625224 
L 80.703666 204.666818 
L 80.251103 204.218879 
L 79.719422 204.218879 
L 79.719422 205.335528 
L 77.830052 203.489377 
L 78.804802 200.852932 
L 81.792348 196.696692 
L 83.064586 197.3782 
L 83.482336 197.771747 
L 83.969711 197.23422 
L 83.507654 196.207158 
L 83.441194 195.122504 
L 83.896921 194.287417 
L 84.982438 194.012254 
L 83.412711 192.943598 
L 82.013882 194.181831 
L 79.719422 197.771747 
L 75.842575 200.187422 
L 73.323416 201.112097 
L 72.190427 200.213018 
L 71.589121 200.248214 
L 66.595109 199.291542 
L 66.095075 199.278744 
L 65.595041 199.201955 
L 64.803848 198.894796 
L 61.7087 196.693493 
L 60.578877 196.175162 
L 59.61995 195.44886 
L 58.911041 194.012254 
L 58.65153 192.572448 
L 58.885723 191.612577 
L 59.667422 190.918271 
L 61.037769 190.25596 
L 59.63261 190.47993 
L 55.679809 192.10851 
L 52.011837 189.718432 
L 50.967462 187.664309 
L 50.245894 186.806824 
L 49.068599 186.448473 
L 48.220439 186.080522 
L 47.191888 185.181443 
L 45.539877 183.229706 
L 47.068462 182.922548 
L 49.707883 181.425149 
L 51.170008 181.079596 
L 52.39161 181.239574 
L 53.676507 181.626722 
L 56.258962 182.740172 
L 54.689235 181.12439 
L 52.714417 179.748575 
L 51.037087 178.190385 
L 49.726871 174.354102 
L 49.574962 174.101336 
L 49.220508 173.835772 
L 49.353428 173.237452 
L 49.840803 172.197593 
L 50.021195 171.084143 
L 50.511735 169.98989 
L 51.201655 168.985225 
L 52.011837 168.146938 
L 49.508502 167.801385 
L 48.464127 166.815918 
L 47.846996 165.289723 
L 46.650712 163.31239 
L 45.764576 162.707671 
L 44.713871 162.266131 
L 43.8309 161.60382 
L 43.470116 160.33679 
L 43.517587 159.207343 
L 43.682155 158.177081 
L 44.011292 157.217211 
L 44.530315 156.286136 
L 43.827735 156.423718 
L 43.378337 156.727677 
L 42.976411 157.07323 
L 42.403587 157.361191 
L 41.865576 157.476376 
L 41.533275 157.460378 
L 41.162997 157.399586 
L 40.523712 157.361191 
L 37.093099 157.898719 
L 35.323991 158.586626 
L 33.187769 159.828059 
L 31.257258 161.325457 
L 30.092622 162.778062 
L 29.608412 162.778062 
L 29.779309 161.53023 
L 29.608412 158.18988 
L 29.269781 156.532503 
L 29.228639 155.566233 
L 29.608412 154.673553 
L 28.696957 153.934453 
L 26.003736 149.586239 
L 25.848662 149.551044 
L 25.677764 149.269481 
L 25.313815 149.221488 
L 24.946702 149.067909 
L 24.785298 148.475988 
L 24.389701 147.637701 
L 22.414883 145.014055 
L 21.851554 144.662102 
L 21.509758 143.894206 
L 21.035043 143.151906 
L 20.053963 142.867144 
L 21.129986 141.500928 
L 21.471781 140.870613 
L 21.595207 139.862749 
L 21.383167 139.123648 
L 20.37044 137.642248 
L 20.053963 136.912746 
L 21.709139 137.165512 
L 22.174361 137.450274 
L 22.706042 137.123918 
L 22.886435 137.315892 
L 23.237724 137.987801 
L 24.55427 137.424677 
L 25.965758 137.450274 
L 27.348764 137.891814 
L 28.548213 138.570123 
L 29.535622 139.683573 
L 31.127502 142.339215 
L 33.801735 143.753425 
L 35.694269 145.545183 
L 37.662758 146.940195 
L 39.058423 146.729024 
L 39.748343 146.626638 
L 39.748343 146.08911 
L 38.798911 145.877938 
L 37.9824 145.487591 
L 37.393752 144.860475 
L 37.093099 143.939 
L 38.153298 143.939 
L 38.153298 143.404672 
L 35.874661 142.876743 
L 33.728946 142.134443 
L 32.589627 140.937804 
L 33.327019 139.056457 
L 34.241639 138.374949 
L 36.577241 137.469471 
L 37.574144 136.912746 
L 38.156463 136.128852 
L 38.631178 135.274567 
L 39.251474 134.826627 
L 40.280025 135.303363 
L 40.251542 134.397885 
L 40.479406 133.534001 
L 40.868673 132.753307 
L 41.343388 132.078197 
L 42.102934 132.286169 
L 47.248854 132.657319 
L 48.710979 133.060465 
L 49.574962 133.153253 
L 50.214246 132.922884 
L 51.771314 131.831831 
L 52.492882 131.492676 
L 51.06557 131.185518 
L 49.410394 131.387091 
L 47.951434 131.255908 
L 47.777371 130.369628 
L 47.714076 130.417621 
L 49.207848 128.529876 
L 52.011837 122.367506 
L 50.068667 124.754384 
L 48.821746 126.894896 
L 47.302655 128.517077 
L 44.530315 129.348965 
L 43.147309 129.278575 
L 41.979508 129.054605 
L 40.954122 129.054605 
L 38.941326 130.270441 
L 37.548826 130.388825 
L 36.254434 129.931287 
L 35.453747 128.856232 
L 37.203866 128.529876 
L 38.124815 127.576404 
L 38.909678 126.443757 
L 40.280025 125.589472 
L 40.280025 125.051944 
L 39.58694 124.939959 
L 39.16286 124.799178 
L 38.88436 124.504818 
L 38.637508 123.976889 
L 38.153298 123.976889 
L 37.415906 126.398963 
L 36.865235 127.339636 
L 35.985428 127.736382 
L 34.735343 127.346035 
L 33.634002 126.398963 
L 32.219349 124.514416 
L 31.421826 124.959157 
L 30.81419 124.869569 
L 30.377451 124.34164 
L 30.092622 123.487355 
L 29.712849 124.821575 
L 30.358463 125.682259 
L 31.535758 126.232585 
L 32.798502 126.664527 
L 31.735139 127.198855 
L 33.87769 128.805038 
L 33.997951 130.561602 
L 32.858633 132.247775 
L 31.203457 133.642787 
L 31.529429 134.305098 
L 31.526264 135.005803 
L 31.149656 135.562528 
L 30.358463 135.786498 
L 29.725508 135.543331 
L 29.250792 134.948211 
L 27.187361 131.492676 
L 26.608207 130.251244 
L 26.114503 127.941155 
L 25.487878 126.507748 
L 24.690355 125.163929 
L 23.959292 124.245653 
L 23.598508 123.391368 
L 23.535213 122.098742 
L 23.674463 119.679868 
L 24.06373 119.638273 
L 23.674463 111.309795 
L 25.848662 108.849327 
L 26.731633 108.638155 
L 27.073429 108.910119 
L 27.33294 109.425249 
L 27.972224 109.921182 
L 33.947315 109.876388 
L 35.187906 109.674816 
L 36.770292 108.97411 
L 39.007786 108.75334 
L 43.470116 108.849327 
L 40.261036 107.86066 
L 39.748343 108.091029 
L 39.16286 108.52617 
L 37.830491 108.53257 
L 36.387355 108.251007 
L 35.453747 107.822265 
L 34.592928 108.196615 
L 33.349173 108.436583 
L 32.219349 108.302201 
L 31.735139 107.527905 
L 31.488287 106.939184 
L 30.94711 106.779206 
L 30.386946 106.792004 
L 30.092622 106.699217 
L 30.035656 106.084899 
L 30.235037 105.844932 
L 30.491383 105.704151 
L 31.263588 104.161958 
L 32.820656 103.432457 
L 34.754332 103.080504 
L 36.51711 102.990916 
L 36.51711 102.402195 
L 35.162588 101.967054 
L 33.406139 102.283811 
L 30.092622 103.477251 
L 28.282372 103.666025 
L 26.326542 103.246882 
L 24.801122 102.133432 
L 24.250452 100.258484 
L 23.949798 100.610437 
L 23.775736 100.652031 
L 23.693452 100.776814 
L 23.674463 101.381533 
L 22.535145 100.258484 
L 22.098406 100.344873 
L 21.955991 100.66163 
L 21.781929 100.923995 
L 21.595207 101.381533 
L 19.924207 100.015317 
L 20.190048 96.275021 
L 18.939963 94.838414 
L 18.939963 94.35208 
L 20.784852 93.00703 
L 24.187157 91.9485 
L 26.216884 91.58279 
L 27.442758 91.875358 
L 30.392896 93.736419 
L 32.16539 94.354064 
L 33.343034 94.159018 
L 35.70234 92.425956 
L 38.702719 90.967176 
L 40.113479 90.067122 
L 41.172555 88.748531 
L 42.199476 86.282016 
L 42.840548 85.136122 
L 43.59014 84.065402 
L 44.032259 83.837849 
L 45.252105 83.720009 
L 45.535463 83.630613 
L 45.453068 82.982492 
L 44.385954 81.667965 
L 44.042307 80.877624 
L 44.400021 78.618344 
L 45.631925 76.192463 
L 47.257716 75.040474 
L 48.772978 76.619125 
L 50.475135 75.715007 
L 51.994416 75.609357 
L 53.489581 75.715007 
L 55.12743 75.442756 
L 56.425651 74.355782 
L 58.28255 71.265527 
L 59.631012 70.576771 
L 60.702145 70.276076 
L 60.748367 69.672653 
L 60.436874 68.961549 
L 60.418787 68.337809 
L 61.043782 67.510896 
L 61.485901 67.120805 
L 62.79618 66.379225 
L 63.129779 66.436113 
L 63.525676 66.702269 
L 63.907506 66.783538 
L 64.21096 66.289829 
L 64.411923 65.814405 
L 64.671166 65.519805 
L 65.209747 65.064698 
L 65.567461 64.570989 
L 68.218164 56.041802 
L 68.234241 55.647647 
L 68.081509 55.292095 
L 68.131749 54.967018 
L 68.72861 54.678513 
L 69.170728 54.544419 
L 69.419923 54.410325 
L 69.586722 54.201058 
L 69.791704 53.845505 
L 70.470959 51.267245 
L 70.836712 50.60287 
L 71.55616 50.334682 
L 72.313791 50.428142 
L 72.938786 50.37938 
L 73.254298 49.698752 
L 73.348751 46.368753 
L 73.579858 46.120882 
L 74.849945 43.879888 
L 75.563363 43.156593 
L 77.978939 41.68156 
L 78.232153 41.63483 
L 78.332634 41.336167 
L 78.318567 40.37516 
L 78.471299 39.993196 
L 78.857148 39.989132 
L 79.259074 40.050084 
L 79.50023 39.861133 
L 79.468076 39.471042 
L 79.17467 38.591304 
L 79.126439 38.355624 
L 80.187524 32.520506 
L 80.179485 31.693594 
L 80.081013 31.161281 
L 80.133264 30.673667 
L 80.599498 29.960531 
L 83.398913 28.318896 
L 86.925815 27.032814 
L 98.611817 24.543949 
L 100.412446 24.610996 
L 101.811149 25.527305 
L 103.227939 26.801197 
L 105.074789 27.940995 
L 106.5378 28.481435 
L 107.819945 28.763844 
L 109.142282 28.820733 
L 111.595395 28.286076 
L 126.220123 25.09861 
L 126.750665 24.36922 
L 127.128476 19.570283 
L 160.201023 19.387313 
L 176.706063 19.296 
L 178.67952 19.501204 
L 181.312136 20.289514 
L 182.389298 20.385005 
L 183.24942 21.136744 
L 183.816136 22.884029 
L 184.873202 28.066962 
L 185.447956 28.987334 
L 191.227654 32.650537 
L 194.418947 35.720475 
L 197.127929 39.210981 
L 198.97679 42.748217 
L 199.889162 45.419937 
L 200.363435 46.169644 
L 200.797515 46.441895 
L 202.063582 46.909192 
L 202.570009 47.313505 
L 202.907627 47.927087 
L 203.430131 49.987257 
L 204.004885 50.757282 
L 205.998439 52.140887 
L 206.75406 52.919038 
L 207.02737 53.567159 
L 207.425277 55.728916 
L 207.979935 56.458305 
L 208.787806 56.84027 
L 209.378638 57.348202 
L 209.294233 58.465651 
L 208.872211 60.422203 
L 209.20179 61.815968 
L 210.049854 62.996401 
L 211.207402 64.27842 
L 212.425238 65.068762 
L 212.57797 65.511678 
L 211.745983 66.09072 
L 210.9984 66.779475 
L 211.963023 67.100488 
L 213.33761 67.16144 
L 213.840018 67.063917 
L 214.603677 67.165503 
L 215.431645 67.157376 
L 216.155112 67.323978 
L 217.087581 68.711647 
L 218.01603 69.538559 
L 219.053 70.235441 
L 219.86489 70.617406 
L 223.180781 73.516679 
L 223.281262 74.498003 
L 222.983837 75.369614 
L 222.53368 76.241224 
L 222.175966 77.226612 
L 222.184004 77.901145 
L 222.497506 79.233957 
L 222.397025 79.961315 
L 221.778059 80.877624 
L 220.95411 81.39165 
L 220.08193 81.781742 
L 219.32229 82.320149 
L 217.935645 84.774475 
L 217.087581 88.169489 
L 217.642239 91.024065 
L 220.435625 91.875358 
L 223.651034 91.761581 
L 226.741846 92.082594 
L 228.558552 92.600684 
L 229.482983 93.36055 
L 229.560954 93.870307 
L 229.632629 94.338906 
L 229.663849 94.543015 
L 228.470129 99.199731 
L 228.100357 101.92834 
L 228.237011 107.655776 
L 228.365628 108.442054 
L 229.073018 110.664763 
L 229.093114 111.012188 
L 229.00871 111.845196 
L 229.048902 112.131669 
L 229.314173 112.456745 
L 229.872851 112.822456 
L 230.089891 113.019533 
L 233.277165 117.269905 
L 234.450789 118.125262 
L 234.876831 118.881064 
L 238.212818 123.369147 
L 237.605909 125.053448 
L 236.544824 126.58537 
L 235.081813 127.607328 
L 233.289223 127.749549 
L 231.713672 128.062435 
L 230.218507 129.31601 
L 228.984594 130.982026 
L 227.742642 133.273813 
L 226.544903 134.413611 
L 226.002302 135.366491 
L 225.821435 136.408767 
L 225.829474 137.341329 
L 225.612434 137.963037 
L 224.772408 138.070719 
L 223.651034 144.866843 
L 222.505545 146.770571 
L 221.090765 148.444713 
L 219.302194 151.096116 
L 218.502361 153.656091 
L 220.065853 155.047824 
L 220.632569 152.410643 
L 222.167927 150.764944 
L 224.374501 150.04165 
L 226.946829 150.179807 
L 228.100357 150.671485 
L 230.327027 152.114011 
L 231.150976 152.296866 
L 232.573794 151.725951 
L 235.302873 149.921778 
L 239.896888 145.411346 
L 240.849453 144.194342 
L 242.730467 140.346252 
L 243.486089 139.275532 
L 244.394442 138.424239 
L 245.375141 137.788309 
L 246.544746 137.341329 
L 248.912091 137.004062 
L 249.434595 137.044697 
L 251.560784 137.688754 
L 252.18377 138.042275 
L 252.846948 138.261701 
L 253.739224 138.139797 
" clip-path="url(#p07f120ea16)" style="fill: #f5f5f5; stroke: #000000"/>
    <path d="M 81.792348 210.214871 
L 80.906211 210.765197 
L 80.830257 211.667475 
L 81.314467 213.974364 
L 81.105592 215.375776 
L 80.57391 216.204464 
L 79.880825 216.997957 
L 79.190904 218.271386 
L 79.111785 219.519217 
L 79.779552 222.123667 
L 79.719422 223.102735 
L 78.732012 224.017811 
L 77.383819 224.241781 
L 76.130569 223.768245 
L 75.424825 222.613201 
L 77.013541 222.613201 
L 75.956507 220.645466 
L 74.59249 218.716126 
L 73.038586 217.241124 
L 71.440376 216.662002 
L 70.310552 216.562816 
L 63.218297 214.67507 
L 60.683314 213.363247 
L 54.084763 212.364981 
L 46.11903 210.214871 
L 46.11903 209.632549 
L 49.024292 208.925445 
L 49.334439 207.850389 
L 50.287036 206.855324 
L 51.435848 206.410583 
L 54.429723 205.930648 
L 62.917644 205.927448 
L 64.22153 205.741873 
L 67.158439 204.973977 
L 71.804325 204.57723 
L 73.415194 204.698814 
L 74.93745 205.335528 
L 73.791802 206.698545 
L 74.554513 207.10169 
L 77.551552 206.996105 
L 78.940887 207.39925 
L 80.051723 208.103155 
L 80.972671 209.069425 
L 81.792348 210.214871 
" clip-path="url(#p07f120ea16)" style="fill: #f5f5f5; stroke: #000000"/>
   </g>
  </g>
 </g>
 <defs>
  <clipPath id="p07f120ea16">
   <rect x="7.2" y="7.2" width="258.279187" height="266.112"/>
  </clipPath>
 </defs>
</svg>
