<?xml version="1.0" encoding="utf-8" standalone="no"?>
<!DOCTYPE svg PUBLIC "-//W3C//DTD SVG 1.1//EN"
  "http://www.w3.org/Graphics/SVG/1.1/DTD/svg11.dtd">
<svg xmlns:xlink="http://www.w3.org/1999/xlink" width="371.52pt" height="250.077974pt" viewBox="0 0 371.52 250.077974" xmlns="http://www.w3.org/2000/svg" version="1.1">
 <metadata>
  <rdf:RDF xmlns:dc="http://purl.org/dc/elements/1.1/" xmlns:cc="http://creativecommons.org/ns#" xmlns:rdf="http://www.w3.org/1999/02/22-rdf-syntax-ns#">
   <cc:Work>
    <dc:type rdf:resource="http://purl.org/dc/dcmitype/StillImage"/>
    <dc:date>2024-03-04T13:11:13.085161</dc:date>
    <dc:format>image/svg+xml</dc:format>
    <dc:creator>
     <cc:Agent>
      <dc:title>Matplotlib v3.8.0, https://matplotlib.org/</dc:title>
     </cc:Agent>
    </dc:creator>
   </cc:Work>
  </rdf:RDF>
 </metadata>
 <defs>
  <style type="text/css">*{stroke-linejoin: round; stroke-linecap: butt}</style>
 </defs>
 <g id="figure_1">
  <g id="patch_1">
   <path d="M 0 250.077974 
L 371.52 250.077974 
L 371.52 0 
L 0 0 
z
" style="fill: #ffffff"/>
  </g>
  <g id="axes_1">
   <g id="PatchCollection_1">
    <defs>
     <path id="m1376af1fad" d="M 52.049278 -23.237006 
L 52.038968 -23.239628 
L 50.110297 -23.730134 
L 46.546554 -27.611359 
L 46.764625 -28.2469 
L 46.504618 -29.51193 
L 47.209154 -31.043282 
L 47.209154 -31.969356 
L 46.202674 -32.169098 
L 45.422651 -32.750164 
L 44.818763 -33.730714 
L 44.391008 -35.110746 
L 46.554942 -34.59626 
L 55.370035 -35.92787 
L 63.38833 -37.138425 
L 63.38833 -38.058447 
L 62.297976 -39.650326 
L 60.754706 -41.351156 
L 59.144337 -43.136724 
L 64.224255 -43.587292 
L 68.293289 -41.358055 
L 73.161216 -41.865399 
L 75.239142 -44.469877 
L 77.208946 -46.938834 
L 77.997188 -48.883651 
L 77.889405 -49.168852 
L 77.837409 -49.306437 
L 76.910692 -49.37562 
L 75.366164 -50.267315 
L 74.258364 -51.489551 
L 66.045733 -65.479933 
L 58.908947 -68.739231 
L 57.922672 -69.513101 
L 53.843959 -72.713422 
L 52.118348 -73.251513 
L 48.571259 -73.689674 
L 45.69524 -75.273201 
L 44.963843 -76.728263 
L 44.118756 -78.409506 
L 44.459617 -83.498315 
L 47.554249 -90.606833 
L 48.475391 -92.722743 
L 49.205218 -95.602694 
L 49.977312 -98.649437 
L 48.230397 -101.478262 
L 47.701488 -101.353722 
L 44.704612 -100.648063 
L 41.381213 -99.041476 
L 38.292156 -98.803178 
L 35.490701 -102.047102 
L 35.448093 -102.216216 
L 35.384182 -102.362269 
L 35.298966 -102.500636 
L 35.203099 -102.623628 
L 34.723762 -103.015666 
L 33.381621 -104.599193 
L 34.958105 -106.036666 
L 35.490701 -106.390269 
L 36.289595 -107.451079 
L 36.577197 -108.48114 
L 36.321551 -109.442017 
L 35.490701 -110.318338 
L 37.844775 -113.470018 
L 39.64711 -114.849183 
L 49.316893 -122.248598 
L 52.267475 -127.706384 
L 51.858722 -129.145403 
L 51.479233 -130.481399 
L 50.446222 -130.681726 
L 49.061247 -130.950308 
L 46.02545 -130.619766 
L 43.405077 -131.034865 
L 40.305369 -134.117361 
L 38.366719 -135.477964 
L 35.490701 -136.062178 
L 34.052692 -136.88469 
L 30.963635 -137.099926 
L 29.365847 -137.653392 
L 30.867767 -135.02443 
L 28.055661 -134.58627 
L 27.182203 -135.877689 
L 26.820038 -137.937812 
L 25.456592 -139.813445 
L 25.44594 -139.828819 
L 25.435288 -139.844193 
L 24.806825 -143.572399 
L 24.231621 -145.340415 
L 23.432727 -146.831697 
L 26.117011 -148.507468 
L 26.563427 -149.275069 
L 28.023705 -151.785984 
L 29.408455 -154.94535 
L 30.526906 -156.286735 
L 31.890352 -156.432789 
L 33.168582 -157.055438 
L 35.639828 -158.858045 
L 40.411888 -161.41398 
L 42.925741 -164.035254 
L 45.120036 -167.117751 
L 47.644542 -169.493041 
L 51.138371 -169.950419 
L 53.68418 -169.862018 
L 55.612178 -170.895923 
L 56.474058 -172.676783 
L 56.741281 -173.228934 
L 56.890408 -177.03401 
L 57.465612 -177.82193 
L 57.849081 -178.744373 
L 58.040816 -179.793652 
L 58.030164 -180.962079 
L 59.59067 -180.8314 
L 66.397247 -179.182533 
L 67.8033 -179.197907 
L 74.492706 -180.293308 
L 77.603067 -179.778278 
L 87.030016 -175.335178 
L 88.723671 -175.127629 
L 90.389072 -175.426247 
L 92.196197 -175.750278 
L 94.007024 -175.704155 
L 95.690027 -175.204499 
L 97.2026 -174.447327 
L 102.997244 -169.462293 
L 104.097715 -169.162855 
L 104.296778 -169.10869 
L 113.825904 -168.837503 
L 126.175822 -168.486041 
L 129.648348 -169.247056 
L 130.745496 -169.001071 
L 131.235484 -168.301552 
L 131.565694 -167.463667 
L 132.140897 -166.771835 
L 133.904916 -165.958638 
L 135.325822 -165.303613 
L 137.051433 -165.034568 
L 140.609174 -165.88014 
L 142.015227 -163.946854 
L 143.176287 -161.398606 
L 144.539732 -159.972663 
L 146.329255 -160.760583 
L 146.784101 -161.920372 
L 147.287928 -163.205056 
L 148.150733 -166.083846 
L 149.673958 -168.270804 
L 150.675238 -168.678216 
L 152.912142 -168.878079 
L 153.95603 -169.18556 
L 155.021222 -169.877392 
L 157.087694 -172.029758 
L 157.556379 -172.152751 
L 158.166203 -172.043583 
L 158.930476 -171.906766 
L 159.665459 -173.743965 
L 160.869126 -175.192968 
L 161.380418 -176.203812 
L 161.998229 -176.911018 
L 163.713188 -177.683564 
L 164.629254 -177.03401 
L 167.27093 -177.472171 
L 169.550441 -178.509919 
L 170.125644 -179.013419 
L 170.958116 -180.910813 
L 172.04299 -183.383491 
L 172.798503 -185.661467 
L 173.59817 -188.072575 
L 174.769882 -190.578545 
L 176.495493 -193.06914 
L 177.795027 -193.618762 
L 179.243688 -193.441961 
L 180.996535 -193.675977 
L 181.374072 -193.726381 
L 183.61889 -195.133948 
L 185.070288 -196.044018 
L 186.550905 -195.767285 
L 188.532162 -192.938461 
L 192.366853 -198.380873 
L 198.299973 -200.271881 
L 200.749685 -200.009835 
L 202.79745 -199.790786 
L 209.699137 -199.052512 
L 213.031578 -198.696041 
L 226.212709 -199.382768 
L 231.917433 -199.67998 
L 234.95323 -198.546144 
L 236.786741 -196.945542 
L 237.264697 -196.528301 
L 239.597467 -195.079297 
L 242.686524 -195.621232 
L 244.603869 -197.120201 
L 244.883272 -197.74136 
L 245.264288 -198.588423 
L 245.539652 -199.998679 
L 245.594498 -200.279568 
L 246.60643 -202.397343 
L 248.182914 -203.592675 
L 250.387862 -204.169201 
L 252.582158 -204.199949 
L 254.137338 -203.761789 
L 255.468828 -204.138453 
L 255.99413 -204.528913 
L 256.53402 -204.930217 
L 257.151831 -206.233167 
L 257.141179 -208.143392 
L 257.460737 -210.388003 
L 259.122436 -209.384846 
L 267.015509 -208.220263 
L 269.742401 -208.374003 
L 272.779549 -209.590172 
L 276.73006 -211.172079 
L 279.595427 -211.418064 
L 282.460793 -210.856911 
L 289.448453 -207.351629 
L 293.634657 -206.613675 
L 294.763761 -205.829598 
L 296.688571 -203.425471 
L 296.70192 -203.415709 
L 296.47872 -206.840442 
L 295.317661 -209.142705 
L 293.123365 -210.534056 
L 291.941002 -214.173862 
L 291.855787 -216.779763 
L 291.988005 -218.939352 
L 292.015566 -219.389507 
L 292.729244 -224.009408 
L 292.644029 -225.06253 
L 292.185996 -225.393072 
L 292.090129 -225.71977 
L 293.09141 -226.769049 
L 293.698569 -227.114965 
L 297.909657 -228.146797 
L 298.278895 -228.23727 
L 300.43416 -229.502297 
L 304.670047 -231.988537 
L 308.402023 -231.086314 
L 308.930815 -230.958476 
L 313.476948 -231.348096 
L 323.012653 -232.165339 
L 324.067193 -231.565751 
L 325.628747 -229.647047 
L 326.091058 -229.078999 
L 326.996471 -228.602404 
L 328.509044 -228.517847 
L 328.967076 -227.768362 
L 328.732734 -226.438507 
L 328.146878 -224.62437 
L 327.4332 -222.948599 
L 327.04125 -222.28171 
L 326.123014 -220.719362 
L 325.844941 -219.6028 
L 325.707589 -219.051278 
L 325.941931 -218.497812 
L 327.358636 -214.219984 
L 328.530348 -212.724858 
L 329.414457 -211.010652 
L 330.37313 -209.884503 
L 331.800487 -210.130488 
L 331.832443 -207.628362 
L 332.636132 -207.286429 
L 332.722015 -207.24989 
L 333.2598 -207.021087 
L 335.177146 -206.905782 
L 336.721674 -205.879564 
L 337.286226 -203.069957 
L 336.47257 -202.287781 
L 335.858869 -201.697824 
L 333.898915 -200.76385 
L 332.950894 -199.295629 
L 333.343418 -198.306033 
L 333.771092 -197.22782 
L 335.64583 -195.72885 
L 339.320743 -193.553423 
L 343.123478 -187.649789 
L 346.596004 -184.690285 
L 348.087273 -178.279308 
L 345.594723 -180.277934 
L 344.582791 -180.854461 
L 343.496295 -181.038949 
L 341.259392 -180.75453 
L 340.364631 -180.854461 
L 339.501825 -181.47711 
L 337.765562 -183.314308 
L 336.849497 -183.898522 
L 335.677786 -183.990766 
L 334.3676 -183.883148 
L 333.057414 -184.059949 
L 331.864399 -185.01314 
L 331.225283 -183.898522 
L 331.179988 -183.963449 
L 330.447693 -185.01314 
L 330.04855 -184.544281 
L 328.98838 -183.298934 
L 326.996471 -182.634007 
L 325.419987 -181.661598 
L 322.181803 -180.39324 
L 321.870932 -180.044352 
L 319.188614 -177.03401 
L 319.114657 -175.777555 
L 319.060791 -174.862426 
L 319.454912 -172.829209 
L 320.679882 -168.732026 
L 320.754446 -167.529007 
L 320.562711 -165.134499 
L 320.839661 -163.893045 
L 321.468125 -163.135873 
L 323.225691 -161.975132 
L 323.705028 -161.267926 
L 323.829697 -159.975381 
L 323.864807 -159.611373 
L 323.38547 -159.157838 
L 321.031396 -159.196274 
L 317.356483 -158.293048 
L 316.483026 -158.254613 
L 314.746763 -158.654339 
L 313.276798 -159.519129 
L 310.805553 -161.875201 
L 309.804272 -162.363327 
L 308.536694 -162.117342 
L 307.673888 -161.198743 
L 306.885646 -160.068751 
L 305.905669 -159.242396 
L 304.702002 -159.023316 
L 304.115464 -159.14597 
L 300.952526 -159.807392 
L 300.899267 -157.147682 
L 301.133609 -155.014533 
L 301.122957 -153.081247 
L 300.377323 -151.040342 
L 300.123614 -150.763594 
L 298.992573 -149.529842 
L 296.958056 -148.100056 
L 294.817021 -147.016186 
L 294.325857 -146.877972 
L 293.123365 -146.53959 
L 289.693447 -145.924628 
L 286.620313 -144.232231 
L 282.993389 -142.234858 
L 282.703003 -142.226108 
L 282.541056 -142.221228 
L 277.89112 -142.081117 
L 276.250724 -141.658331 
L 274.684892 -140.912689 
L 274.316875 -140.629403 
L 273.246882 -139.805758 
L 271.159106 -136.277415 
L 269.188501 -135.001369 
L 261.7894 -135.5503 
L 260.070457 -135.677827 
L 257.854858 -134.540147 
L 256.491519 -132.686408 
L 256.107943 -132.164858 
L 254.201249 -128.49046 
L 252.720633 -124.277972 
L 252.709981 -120.534392 
L 254.14799 -117.18285 
L 256.185784 -115.015381 
L 257.002704 -114.146476 
L 258.259631 -113.393147 
L 261.146301 -112.186285 
L 262.403228 -111.256155 
L 263.325517 -109.841807 
L 263.851889 -109.034605 
L 263.404508 -107.481827 
L 262.200841 -105.660002 
L 261.412599 -102.654376 
L 261.401947 -102.631315 
L 261.522002 -99.555647 
L 261.700201 -94.990414 
L 261.540422 -92.515193 
L 261.007826 -90.654933 
L 260.283496 -88.894605 
L 259.878723 -87.111216 
L 260.315451 -85.212521 
L 261.52977 -82.222269 
L 261.593682 -80.100651 
L 260.560446 -78.609369 
L 258.451365 -77.487063 
L 256.438153 -76.902849 
L 252.443683 -76.756796 
L 248.573839 -77.422155 
L 245.871448 -77.886788 
L 244.880819 -77.379445 
L 242.963474 -75.780544 
L 241.940889 -75.411567 
L 240.758526 -75.619116 
L 239.586815 -76.011155 
L 238.425756 -76.149521 
L 237.296652 -75.603742 
L 236.806664 -74.212391 
L 237.211437 -72.659613 
L 237.371216 -71.245201 
L 236.206867 -70.2818 
L 236.135593 -70.222826 
L 226.032095 -66.829868 
L 223.225466 -65.887345 
L 219.071217 -63.542804 
L 218.19776 -62.512742 
L 217.67175 -61.065123 
L 217.569296 -60.783162 
L 217.771683 -60.160513 
L 218.527969 -59.783849 
L 219.518598 -58.792223 
L 220.541182 -56.793597 
L 221.08443 -56.06333 
L 222.000495 -55.386872 
L 223.342637 -54.879529 
L 223.768714 -55.179323 
L 223.907189 -55.77891 
L 224.375873 -56.178635 
L 225.622148 -56.516864 
L 226.005617 -56.724414 
L 226.325175 -56.439994 
L 227.990631 -54.503239 
L 228.189261 -54.272254 
L 229.872264 -51.443429 
L 230.436816 -50.128948 
L 228.306432 -50.144322 
L 226.868422 -49.636979 
L 225.590192 -48.945147 
L 222.565047 -47.968895 
L 221.968539 -46.861964 
L 221.58507 -45.685849 
L 220.882043 -45.0632 
L 219.593161 -44.394429 
L 219.69968 -43.172193 
L 220.434663 -41.573292 
L 220.997159 -39.906847 
L 221.041822 -39.774528 
L 221.659634 -35.900269 
L 222.490483 -32.687093 
L 223.9711 -30.150376 
L 229.158585 -26.598971 
L 228.167957 -25.722651 
L 226.325175 -23.101376 
L 225.430413 -22.255803 
L 224.280006 -21.909887 
L 220.935303 -21.97907 
L 215.191644 -19.818594 
L 210.901194 -18.204742 
L 206.267609 -18.865826 
L 198.730229 -25.394455 
L 197.703465 -26.283803 
L 192.675759 -26.42217 
L 191.653175 -27.367673 
L 190.502767 -27.913452 
L 189.579477 -28.041474 
L 188.063478 -28.251681 
L 186.284607 -29.942826 
L 183.941185 -31.495605 
L 182.066447 -31.418735 
L 181.693629 -28.251681 
L 179.712372 -24.777147 
L 175.302478 -23.170559 
L 171.009754 -24.093002 
L 169.390662 -28.251681 
L 169.38001 -28.259368 
L 169.369358 -28.282429 
L 169.358706 -28.282429 
L 159.793282 -32.548727 
L 157.748113 -34.324429 
L 157.716157 -35.093132 
L 158.078323 -37.722093 
L 157.886588 -38.875147 
L 157.290081 -39.689971 
L 157.25193 -39.71242 
L 156.597706 -40.097384 
L 155.873375 -40.404864 
L 152.336938 -43.264437 
L 151.005448 -44.678849 
L 150.057427 -46.554483 
L 149.96156 -48.560796 
L 150.078731 -51.289689 
L 149.85504 -53.572735 
L 148.725937 -54.233819 
L 147.504184 -53.704807 
L 146.96837 -53.472803 
L 146.169476 -52.581109 
L 144.880594 -49.567796 
L 143.794098 -47.968895 
L 141.19503 -45.017078 
L 140.236357 -43.579605 
L 139.58659 -41.68091 
L 139.507153 -41.047885 
L 139.085949 -37.691345 
L 138.542701 -35.585101 
L 137.179256 -33.079131 
L 133.142178 -30.073506 
L 131.235484 -28.259368 
L 127.27297 -25.976322 
L 122.532865 -25.538162 
L 117.750153 -26.460605 
L 113.649164 -28.282429 
L 111.390957 -28.851269 
L 108.749281 -28.067193 
L 103.849398 -25.738025 
L 101.186418 -25.238368 
L 100.942694 -25.25195 
L 100.883566 -25.255245 
L 98.42757 -25.392108 
L 95.721983 -26.337612 
L 93.133566 -28.259368 
L 91.77012 -29.666093 
L 90.289504 -30.457857 
L 87.560478 -31.043359 
L 85.954172 -31.387986 
L 85.240493 -30.903704 
L 84.878328 -29.850582 
L 84.878328 -28.251681 
L 87.061972 -25.599658 
L 85.741134 -23.76246 
L 80.915814 -21.679276 
L 79.413893 -20.180307 
L 78.50848 -18.742834 
L 77.411332 -17.912635 
L 71.904289 -18.72746 
L 70.285198 -19.250177 
L 68.9111 -20.664589 
L 64.043173 -23.793208 
L 53.806454 -23.318492 
L 52.049278 -23.237006 
" style="stroke: #000000"/>
    </defs>
    <g clip-path="url(#pef6295a160)">
     <use xlink:href="#m1376af1fad" x="0" y="250.077974" style="fill: #f5f5f5; stroke: #000000"/>
    </g>
   </g>
  </g>
 </g>
 <defs>
  <clipPath id="pef6295a160">
   <rect x="7.2" y="7.2" width="357.12" height="235.677974"/>
  </clipPath>
 </defs>
</svg>
