<?xml version="1.0" encoding="utf-8" standalone="no"?>
<!DOCTYPE svg PUBLIC "-//W3C//DTD SVG 1.1//EN"
  "http://www.w3.org/Graphics/SVG/1.1/DTD/svg11.dtd">
<svg xmlns:xlink="http://www.w3.org/1999/xlink" width="371.52pt" height="190.250417pt" viewBox="0 0 371.52 190.250417" xmlns="http://www.w3.org/2000/svg" version="1.1">
 <metadata>
  <rdf:RDF xmlns:dc="http://purl.org/dc/elements/1.1/" xmlns:cc="http://creativecommons.org/ns#" xmlns:rdf="http://www.w3.org/1999/02/22-rdf-syntax-ns#">
   <cc:Work>
    <dc:type rdf:resource="http://purl.org/dc/dcmitype/StillImage"/>
    <dc:date>2024-03-04T13:11:13.026861</dc:date>
    <dc:format>image/svg+xml</dc:format>
    <dc:creator>
     <cc:Agent>
      <dc:title>Matplotlib v3.8.0, https://matplotlib.org/</dc:title>
     </cc:Agent>
    </dc:creator>
   </cc:Work>
  </rdf:RDF>
 </metadata>
 <defs>
  <style type="text/css">*{stroke-linejoin: round; stroke-linecap: butt}</style>
 </defs>
 <g id="figure_1">
  <g id="patch_1">
   <path d="M 0 190.250417 
L 371.52 190.250417 
L 371.52 0 
L 0 0 
z
" style="fill: #ffffff"/>
  </g>
  <g id="axes_1">
   <g id="PatchCollection_1">
    <defs>
     <path id="m58abf5ef62" d="M 348.087273 -129.338445 
L 347.651289 -127.91531 
L 347.238872 -125.943443 
L 346.973747 -123.953731 
L 346.997314 -122.494906 
L 346.113564 -121.745418 
L 343.921863 -121.424209 
L 342.920279 -120.63903 
L 341.683028 -117.016505 
L 340.976028 -115.481839 
L 340.905328 -115.058021 
L 340.91122 -113.942712 
L 340.799278 -113.416286 
L 340.263136 -112.644491 
L 338.896269 -111.489031 
L 338.4626 -110.867966 
L 338.354235 -110.712775 
L 337.977168 -109.659923 
L 337.935927 -108.986276 
L 338.047868 -108.2814 
L 338.171593 -105.354828 
L 338.041977 -104.770406 
L 337.647235 -103.780011 
L 337.152334 -103.066213 
L 336.616193 -102.642395 
L 336.180209 -102.075818 
L 336.003459 -100.920357 
L 336.074159 -99.068943 
L 335.708875 -97.235374 
L 335.013659 -95.624867 
L 334.10045 -94.41141 
L 333.411124 -93.960825 
L 331.891074 -93.47455 
L 331.189965 -92.992736 
L 330.759873 -92.386008 
L 330.164815 -91.009716 
L 329.811315 -90.380681 
L 326.08778 -87.353731 
L 325.233487 -85.948441 
L 325.115654 -84.199636 
L 325.781413 -80.702025 
L 325.581096 -79.345808 
L 324.950687 -77.940518 
L 324.897662 -71.721552 
L 323.819487 -70.327415 
L 322.823795 -69.531084 
L 321.763294 -69.218797 
L 318.352018 -69.557851 
L 317.320976 -69.490933 
L 316.272259 -69.125111 
L 313.296965 -68.968968 
L 312.46624 -68.638836 
L 310.728198 -67.635058 
L 308.271372 -67.264775 
L 305.319645 -65.741262 
L 303.587494 -65.58958 
L 301.802319 -66.205231 
L 300.294051 -67.331693 
L 298.944859 -68.919894 
L 295.751574 -73.867408 
L 295.286132 -74.790884 
L 294.543782 -78.355413 
L 294.048882 -79.336886 
L 293.076756 -79.557717 
L 290.97343 -79.528719 
L 290.066113 -79.948076 
L 289.683155 -80.554804 
L 289.164688 -82.227768 
L 288.787621 -82.968334 
L 288.298613 -83.416688 
L 287.26757 -83.824892 
L 285.352778 -84.975891 
L 284.522053 -85.230182 
L 281.564435 -84.28663 
L 279.620184 -84.244248 
L 278.665733 -84.047954 
L 277.552208 -83.38546 
L 277.074983 -82.580206 
L 276.750941 -81.661191 
L 276.085182 -80.693102 
L 275.242673 -80.21575 
L 274.59459 -80.501269 
L 273.88759 -81.101306 
L 272.856547 -81.556352 
L 270.965321 -81.123612 
L 266.552461 -79.000062 
L 265.109002 -79.336886 
L 263.960127 -80.478963 
L 262.369376 -81.203914 
L 260.69025 -81.507278 
L 259.264466 -81.395747 
L 257.23184 -81.578658 
L 254.126931 -83.488068 
L 252.335863 -83.679901 
L 251.511029 -83.896271 
L 249.82012 -85.448782 
L 248.93637 -85.917212 
L 248.011378 -85.901598 
L 235.951131 -83.09771 
L 232.416129 -82.856803 
L 230.772354 -82.192078 
L 230.707545 -81.540738 
L 230.68987 -80.822478 
L 230.801812 -79.325733 
L 230.837162 -79.022369 
L 230.843054 -78.716774 
L 230.819487 -78.408948 
L 230.772354 -78.105584 
L 230.006436 -76.952354 
L 229.877004 -76.814337 
L 228.144669 -74.967103 
L 227.290377 -73.831718 
L 226.63051 -72.491116 
L 224.415242 -65.638653 
L 223.225125 -63.147052 
L 221.799341 -60.9432 
L 220.143782 -59.256852 
L 218.841723 -58.569821 
L 218.152398 -58.866494 
L 217.510206 -59.582522 
L 216.373114 -60.162483 
L 215.730922 -59.876964 
L 214.010554 -58.270918 
L 213.056104 -57.842639 
L 212.05452 -57.949709 
L 211.471245 -58.16831 
L 210.982236 -58.070163 
L 210.269344 -57.213605 
L 210.045461 -56.606876 
L 209.733202 -55.054366 
L 209.314894 -54.282571 
L 208.84356 -53.905597 
L 207.765385 -53.48401 
L 205.497779 -52.075776 
L 205.308559 -51.958266 
L 203.140424 -51.271235 
L 201.826582 -50.448137 
L 199.246031 -48.005609 
L 197.90273 -47.50595 
L 196.718505 -47.965458 
L 194.550371 -49.95517 
L 193.148153 -50.407986 
L 191.091961 -49.611655 
L 190.549927 -49.683034 
L 190.013785 -50.501672 
L 190.155185 -51.231084 
L 190.479227 -51.976111 
L 190.449769 -52.823746 
L 189.436402 -54.068432 
L 188.098993 -54.291494 
L 185.471308 -53.77399 
L 184.899816 -54.075124 
L 183.662566 -55.625404 
L 183.014482 -56.183059 
L 182.44299 -56.352586 
L 181.836148 -56.372661 
L 176.592563 -54.96068 
L 175.608654 -54.382949 
L 174.984137 -53.12711 
L 174.447995 -49.785643 
L 173.770453 -48.420504 
L 173.752778 -48.380353 
L 173.740995 -48.340202 
L 173.752778 -48.286667 
L 173.770453 -48.228671 
L 173.858828 -47.755779 
L 173.888286 -47.28735 
L 173.858828 -46.832303 
L 173.770453 -46.386179 
L 170.718568 -44.186789 
L 163.024048 -44.351855 
L 159.618663 -42.134619 
L 158.994146 -42.005243 
L 151.924143 -42.881877 
L 148.512867 -42.375526 
L 147.392983 -42.429565 
L 146.109066 -42.491518 
L 145.272449 -42.094468 
L 142.523507 -41.467158 
L 137.100703 -40.22967 
L 136.105011 -39.404341 
L 134.579069 -36.183327 
L 134.037035 -35.705975 
L 132.929401 -35.514141 
L 132.410934 -35.206316 
L 131.668584 -34.276148 
L 131.745176 -33.957169 
L 132.139918 -33.611423 
L 132.328451 -32.614337 
L 131.756959 -29.049807 
L 131.615559 -27.231853 
L 131.986734 -25.614654 
L 133.654077 -23.950612 
L 135.845778 -22.320029 
L 135.758177 -22.288436 
L 134.355185 -21.78245 
L 133.06491 -21.434473 
L 132.075109 -20.684985 
L 130.189775 -18.483364 
L 128.799341 -17.606731 
L 127.13789 -17.428281 
L 125.435198 -17.767335 
L 123.36133 -18.701965 
L 120.804346 -18.891567 
L 109.132949 -17.504122 
L 104.86738 -15.733011 
L 102.752271 -15.527794 
L 95.72351 -16.27059 
L 82.664248 -15.410323 
L 79.368236 -15.193201 
L 74.595984 -16.520419 
L 73.299009 -17.236004 
L 70.872448 -18.574819 
L 70.27739 -19.252928 
L 69.829623 -20.140714 
L 68.775014 -21.166799 
L 67.590789 -22.032279 
L 66.742388 -22.465019 
L 66.100196 -22.366872 
L 65.528704 -22.081353 
L 64.939538 -22.059047 
L 64.244321 -22.788459 
L 62.317745 -25.735107 
L 61.787494 -26.092006 
L 60.355819 -26.399832 
L 59.766652 -26.649661 
L 59.206943 -27.176087 
L 53.356516 -35.152781 
L 51.559557 -36.665141 
L 47.841913 -37.236179 
L 47.251625 -37.403906 
L 44.890187 -38.074892 
L 42.833994 -38.525477 
L 40.754235 -37.245102 
L 39.422718 -38.460789 
L 37.578625 -39.127745 
L 36.270675 -39.854926 
L 36.577042 -41.27137 
L 35.893608 -41.8491 
L 35.669724 -41.991859 
L 35.993766 -43.597905 
L 36.28835 -44.472308 
L 36.871625 -45.201721 
L 36.129275 -46.006974 
L 35.858467 -46.506736 
L 35.003966 -48.083681 
L 34.403016 -48.474039 
L 33.489807 -48.616799 
L 32.706215 -49.103074 
L 31.268647 -50.700197 
L 30.862122 -52.04526 
L 30.856231 -53.91675 
L 30.585214 -55.478183 
L 29.695572 -58.578744 
L 29.672005 -58.991408 
L 29.748597 -59.979573 
L 29.695572 -60.354317 
L 29.483472 -60.65322 
L 29.129971 -60.775904 
L 28.499563 -61.355865 
L 27.981096 -61.596772 
L 27.545112 -61.88006 
L 27.356579 -62.388641 
L 27.285879 -62.78123 
L 27.103237 -63.276428 
L 26.908812 -63.709168 
L 26.755629 -63.892079 
L 26.508179 -64.070528 
L 26.614229 -64.507729 
L 26.838112 -65.007388 
L 26.967729 -65.391055 
L 26.708495 -66.075855 
L 26.12522 -66.733887 
L 25.52427 -67.233546 
L 25.200228 -67.425379 
L 24.051353 -67.548063 
L 23.609477 -67.817968 
L 23.432727 -68.337703 
L 23.468077 -69.285716 
L 23.568236 -69.678305 
L 23.709636 -69.934826 
L 23.856927 -70.479097 
L 24.363611 -75.087556 
L 24.599278 -76.321089 
L 25.176661 -77.483241 
L 26.667254 -79.646942 
L 26.967729 -80.795711 
L 27.391929 -81.609887 
L 28.334596 -82.374989 
L 29.271372 -83.369845 
L 29.394034 -83.81103 
L 29.695572 -84.895589 
L 29.165322 -88.93301 
L 29.306722 -90.572515 
L 30.208147 -91.676671 
L 30.862122 -92.878975 
L 33.743149 -101.205876 
L 35.145366 -103.5971 
L 37.107292 -105.296832 
L 37.926234 -106.3363 
L 38.262059 -107.964652 
L 38.780526 -108.767675 
L 41.844194 -110.998294 
L 44.395287 -111.542566 
L 47.134913 -110.828767 
L 53.639316 -107.531912 
L 54.629116 -107.719284 
L 55.740201 -108.447974 
L 56.785467 -109.133497 
L 58.140551 -109.530547 
L 58.971277 -109.129036 
L 60.715211 -107.286544 
L 62.800862 -106.960874 
L 73.753475 -111.27043 
L 74.76095 -112.104682 
L 76.728768 -115.4863 
L 77.647868 -116.249172 
L 79.050085 -116.490079 
L 80.251986 -116.284862 
L 81.341945 -116.347319 
L 82.390662 -117.368943 
L 82.856104 -118.551171 
L 83.297979 -121.223453 
L 83.651479 -122.503828 
L 84.405613 -124.011727 
L 85.601622 -124.77906 
L 86.980272 -124.993199 
L 90.038049 -124.756754 
L 91.929275 -125.622234 
L 93.6084 -127.179206 
L 94.792626 -129.17338 
L 95.169693 -131.069406 
L 95.096998 -134.926491 
L 95.087209 -135.445881 
L 95.293418 -137.761263 
L 96.018093 -140.59415 
L 97.084485 -143.22628 
L 98.457244 -145.439055 
L 100.13637 -147.013872 
L 107.807323 -149.976134 
L 109.915928 -151.610938 
L 111.259842 -152.652877 
L 111.401242 -156.752755 
L 113.062692 -156.382472 
L 114.341185 -157.212263 
L 116.768552 -160.147757 
L 118.642103 -161.142614 
L 119.113437 -161.615505 
L 119.402129 -162.373915 
L 119.543529 -163.979961 
L 119.838112 -164.689298 
L 121.010554 -165.420941 
L 123.532189 -165.059581 
L 125.15829 -165.907216 
L 125.553031 -165.987518 
L 125.947773 -165.907216 
L 127.815432 -164.979279 
L 129.4651 -164.47962 
L 131.061742 -164.568845 
L 133.400735 -166.692394 
L 134.467127 -167.093906 
L 136.800228 -167.156363 
L 142.444447 -166.64332 
L 144.094115 -165.648464 
L 143.593323 -164.194101 
L 143.652239 -162.962799 
L 143.929148 -161.793954 
L 144.07644 -160.513579 
L 143.840773 -157.676231 
L 144.158923 -156.703681 
L 145.272449 -156.498464 
L 146.715908 -156.609995 
L 148.919392 -157.876987 
L 150.162534 -158.166968 
L 150.686893 -157.988518 
L 151.818093 -157.172111 
L 152.366018 -156.895515 
L 152.955185 -156.855364 
L 154.386861 -157.136422 
L 156.142578 -157.832375 
L 156.554995 -158.523867 
L 156.702287 -159.599025 
L 157.102921 -161.280912 
L 157.267887 -161.316602 
L 157.968996 -161.334447 
L 158.222338 -161.521819 
L 158.357846 -162.097319 
L 158.245904 -162.507753 
L 158.063263 -162.766504 
L 157.963104 -162.864652 
L 158.876313 -165.666309 
L 159.654013 -166.89315 
L 160.484739 -167.673867 
L 161.415622 -168.124452 
L 162.511473 -168.356436 
L 164.26719 -168.338591 
L 164.856357 -168.432277 
L 165.663516 -168.753486 
L 166.093608 -169.119308 
L 171.036718 -174.486178 
L 171.25471 -174.914456 
L 171.584644 -175.057216 
L 171.898073 -174.930639 
L 172.380019 -174.736007 
L 173.340361 -173.067504 
L 173.770453 -172.616919 
L 175.107862 -171.742516 
L 175.797187 -170.007094 
L 176.834121 -165.652926 
L 177.753221 -162.904803 
L 178.047805 -162.289152 
L 179.025822 -161.544125 
L 180.215939 -161.227377 
L 182.496015 -161.205071 
L 182.23089 -160.6608 
L 182.142515 -160.19237 
L 182.177865 -158.840615 
L 182.056869 -157.824473 
L 182.053807 -157.798759 
L 185.329908 -156.694759 
L 186.57305 -156.560922 
L 187.727818 -156.676914 
L 189.636718 -157.435324 
L 190.149272 -157.051574 
L 190.161077 -157.042736 
L 190.691327 -155.409922 
L 190.980019 -153.973404 
L 191.315844 -149.797685 
L 191.227469 -149.445247 
L 190.791486 -148.798367 
L 190.756787 -148.439284 
L 190.756136 -148.432545 
L 190.956452 -148.142565 
L 191.734225 -147.571339 
L 191.740044 -147.567065 
L 191.831337 -147.371203 
L 191.846094 -147.339542 
L 192.278944 -146.888342 
L 192.299753 -146.866651 
L 192.405803 -146.491907 
L 192.270295 -146.005632 
L 191.940361 -145.813799 
L 191.575078 -145.71119 
L 191.321736 -145.505973 
L 189.165385 -142.017285 
L 188.93561 -140.879669 
L 189.672068 -139.871429 
L 191.109636 -139.349464 
L 193.73732 -139.15317 
L 195.004029 -139.617139 
L 195.806245 -140.439528 
L 196.918822 -141.580083 
L 197.949864 -142.338494 
L 199.776281 -142.53925 
L 201.36114 -141.722843 
L 204.301083 -138.979181 
L 206.192309 -138.060166 
L 207.305835 -138.912263 
L 207.895002 -141.071502 
L 208.219043 -144.087299 
L 208.926044 -144.934935 
L 209.320786 -145.894101 
L 209.644827 -146.920186 
L 210.734786 -149.342638 
L 211.058828 -149.770917 
L 211.200228 -149.63708 
L 212.455154 -149.489859 
L 213.014862 -150.007363 
L 214.258004 -151.47511 
L 215.12408 -151.956924 
L 219.525157 -152.34059 
L 219.807957 -152.724257 
L 220.214482 -153.919869 
L 220.509066 -155.15117 
L 220.626899 -155.945271 
L 220.838999 -156.48062 
L 221.422274 -156.91336 
L 222.099816 -156.926743 
L 224.432917 -156.056802 
L 227.378752 -156.168333 
L 227.366969 -157.653925 
L 228.256611 -157.854681 
L 233.075996 -155.423306 
L 234.32503 -155.119942 
L 235.674222 -155.597294 
L 236.328198 -156.204023 
L 237.235515 -157.314871 
L 237.81879 -157.640541 
L 238.343149 -157.676231 
L 239.574507 -157.493321 
L 241.730858 -157.836836 
L 242.6205 -157.680693 
L 247.681444 -151.698172 
L 248.58287 -151.046831 
L 249.861362 -150.850537 
L 250.833488 -150.908533 
L 251.729021 -150.774696 
L 252.795413 -149.989518 
L 253.726297 -149.030351 
L 254.651289 -148.365627 
L 255.700006 -148.169332 
L 257.037415 -148.646685 
L 258.268774 -149.703998 
L 260.130542 -152.403048 
L 261.302984 -153.531741 
L 262.198518 -153.719113 
L 263.400418 -153.732497 
L 264.455027 -153.942175 
L 264.920469 -154.731814 
L 264.225252 -156.034496 
L 262.91141 -156.824135 
L 262.216193 -157.609313 
L 263.37096 -158.885227 
L 264.242927 -159.295661 
L 266.558353 -159.75963 
L 267.442103 -159.679327 
L 268.473145 -158.978913 
L 269.286196 -158.082204 
L 270.158163 -157.488859 
L 271.38363 -157.689615 
L 272.361647 -158.595246 
L 274.140931 -161.20061 
L 275.171973 -161.905485 
L 275.961457 -161.718113 
L 279.154742 -160.036226 
L 284.710586 -158.483716 
L 285.653253 -158.492638 
L 287.768362 -158.952146 
L 288.604979 -158.706777 
L 289.644518 -159.123504 
L 290.507989 -159.469649 
L 294.590915 -159.924696 
L 295.657308 -159.65256 
L 296.234691 -159.268893 
L 297.295192 -158.24727 
L 297.872575 -157.85022 
L 298.302667 -157.792223 
L 299.186417 -157.988518 
L 299.752018 -157.823452 
L 300.71236 -156.850902 
L 302.627152 -153.933252 
L 303.505011 -153.228377 
L 304.10007 -153.620966 
L 304.907228 -154.571209 
L 305.891137 -155.463457 
L 307.040013 -155.673135 
L 308.082838 -155.084252 
L 310.174381 -153.179303 
L 313.24394 -151.662482 
L 315.300133 -149.74415 
L 316.938017 -147.120941 
L 317.656801 -144.073916 
L 318.033868 -141.325793 
L 319.648185 -140.152487 
L 323.683978 -139.389615 
L 325.539854 -138.202926 
L 326.199721 -137.912945 
L 326.771213 -137.877256 
L 328.13808 -138.042321 
L 328.609414 -137.953097 
L 329.233931 -137.261605 
L 329.239823 -136.654876 
L 329.080748 -136.097221 
L 329.210364 -135.55295 
L 329.634564 -135.19159 
L 332.309382 -134.379645 
L 335.461425 -134.500098 
L 336.675109 -134.022746 
L 339.562027 -131.136324 
L 341.65357 -130.498367 
L 346.113564 -130.306534 
L 348.087273 -129.338445 
" style="stroke: #000000"/>
    </defs>
    <g clip-path="url(#p061b7bb2b5)">
     <use xlink:href="#m58abf5ef62" x="0" y="190.250417" style="fill: #f5f5f5; stroke: #000000"/>
    </g>
   </g>
  </g>
 </g>
 <defs>
  <clipPath id="p061b7bb2b5">
   <rect x="7.2" y="7.2" width="357.12" height="175.850417"/>
  </clipPath>
 </defs>
</svg>
