<?xml version="1.0" encoding="utf-8" standalone="no"?>
<!DOCTYPE svg PUBLIC "-//W3C//DTD SVG 1.1//EN"
  "http://www.w3.org/Graphics/SVG/1.1/DTD/svg11.dtd">
<svg xmlns:xlink="http://www.w3.org/1999/xlink" width="204.190587pt" height="280.512pt" viewBox="0 0 204.190587 280.512" xmlns="http://www.w3.org/2000/svg" version="1.1">
 <metadata>
  <rdf:RDF xmlns:dc="http://purl.org/dc/elements/1.1/" xmlns:cc="http://creativecommons.org/ns#" xmlns:rdf="http://www.w3.org/1999/02/22-rdf-syntax-ns#">
   <cc:Work>
    <dc:type rdf:resource="http://purl.org/dc/dcmitype/StillImage"/>
    <dc:date>2024-03-04T13:11:13.110793</dc:date>
    <dc:format>image/svg+xml</dc:format>
    <dc:creator>
     <cc:Agent>
      <dc:title>Matplotlib v3.8.0, https://matplotlib.org/</dc:title>
     </cc:Agent>
    </dc:creator>
   </cc:Work>
  </rdf:RDF>
 </metadata>
 <defs>
  <style type="text/css">*{stroke-linejoin: round; stroke-linecap: butt}</style>
 </defs>
 <g id="figure_1">
  <g id="patch_1">
   <path d="M 0 280.512 
L 204.190587 280.512 
L 204.190587 0 
L 0 0 
z
" style="fill: #ffffff"/>
  </g>
  <g id="axes_1">
   <g id="PatchCollection_1">
    <path d="M 43.996019 44.872078 
L 44.035816 45.03112 
L 44.08805 45.099569 
L 44.228997 45.218347 
L 44.379894 45.483082 
L 44.795274 45.847469 
L 45.010012 46.117237 
L 45.098726 46.185685 
L 45.175003 46.208837 
L 45.340824 46.220916 
L 45.422905 46.247087 
L 46.035612 46.659791 
L 47.07199 47.605991 
L 47.157387 47.731816 
L 47.408605 48.332753 
L 47.62583 48.712239 
L 47.712886 48.922618 
L 47.70045 49.065554 
L 47.629976 49.228623 
L 47.705424 49.360487 
L 47.854663 49.461146 
L 48.008876 49.527582 
L 48.0238 49.78225 
L 48.039552 49.845666 
L 48.090128 49.903042 
L 48.235221 49.985583 
L 48.287454 50.044972 
L 48.304865 50.136572 
L 48.275018 50.195961 
L 48.239366 50.250317 
L 48.240195 50.323799 
L 48.273359 50.392247 
L 48.357099 50.518071 
L 48.390263 50.594573 
L 48.443325 50.897558 
L 48.49473 51.005264 
L 48.627386 51.10089 
L 48.862022 51.217655 
L 48.906794 51.307242 
L 48.933325 51.498495 
L 49.054374 51.480377 
L 49.049399 51.561911 
L 49.005457 51.682702 
L 49.011261 51.782355 
L 49.090855 51.822619 
L 49.163816 51.789401 
L 49.234289 51.740078 
L 49.30725 51.737058 
L 49.411717 51.838725 
L 49.173765 52.003806 
L 49.121531 52.157815 
L 49.106607 52.429596 
L 49.466438 52.782911 
L 49.531108 53.040599 
L 49.481362 53.136226 
L 49.305592 53.255004 
L 49.262479 53.324459 
L 49.287352 53.430152 
L 49.370262 53.46337 
L 49.463951 53.479475 
L 49.526133 53.537858 
L 49.531108 53.645563 
L 49.461463 53.855942 
L 49.462292 53.956601 
L 49.527792 54.056254 
L 49.73258 54.168993 
L 49.81549 54.244487 
L 49.894255 54.417622 
L 50.063392 55.063856 
L 49.977994 55.251083 
L 49.97302 55.34067 
L 50.081632 55.299399 
L 50.161226 55.254103 
L 50.207656 55.259136 
L 50.297199 55.372881 
L 50.298857 55.409118 
L 50.515253 55.988917 
L 50.584897 56.832444 
L 50.566657 57.533035 
L 50.594017 57.716235 
L 50.894982 58.301067 
L 50.866792 58.452056 
L 50.520227 58.988571 
L 50.371818 59.365038 
L 50.187757 59.712313 
L 49.724289 60.352508 
L 49.487166 60.837687 
L 49.376066 60.993709 
L 49.138942 61.185969 
L 49.10412 61.304747 
L 49.000482 61.826164 
L 48.976438 62.10801 
L 49.000482 62.356639 
L 49.050228 62.475418 
L 49.180398 62.67875 
L 49.217707 62.819673 
L 49.204442 63.044144 
L 49.029501 63.704471 
L 49.031988 63.99739 
L 49.075931 64.357751 
L 49.157183 64.710059 
L 49.268282 64.97882 
L 49.318029 65.052302 
L 49.363629 65.102632 
L 49.484678 65.194232 
L 49.563443 65.300931 
L 49.645524 65.609956 
L 49.68615 65.707595 
L 49.708536 65.680417 
L 49.88016 65.544527 
L 50.39752 65.281806 
L 50.771445 64.996939 
L 50.978721 64.877154 
L 51.426436 64.813739 
L 51.767198 64.969761 
L 52.089719 65.189199 
L 53.149312 65.449907 
L 53.398042 65.441854 
L 54.096976 65.222416 
L 54.211392 65.220403 
L 54.436079 65.251608 
L 54.548837 65.246575 
L 55.222068 65.047269 
L 55.58936 65.034183 
L 55.772592 65.070421 
L 56.167245 65.2657 
L 56.851255 65.284825 
L 57.327989 65.424742 
L 57.497955 65.427762 
L 57.679528 65.351261 
L 58.133876 65.013045 
L 58.282286 64.857022 
L 58.371 64.684895 
L 58.404164 64.506727 
L 58.395873 64.318494 
L 58.323741 63.881631 
L 58.33369 63.729636 
L 58.429037 63.626963 
L 58.642945 63.543415 
L 58.895822 63.494092 
L 59.674349 63.488053 
L 60.18093 63.355182 
L 60.651861 63.037098 
L 61.056463 62.592183 
L 61.361573 62.078819 
L 61.619423 61.306761 
L 61.772807 60.957472 
L 62.096157 60.594091 
L 62.180726 60.400825 
L 62.252858 60.342442 
L 62.620979 60.270974 
L 62.746174 60.224671 
L 62.939355 60.112938 
L 63.358052 59.670036 
L 63.629168 59.228141 
L 63.805767 59.068092 
L 64.060301 59.016756 
L 64.424277 59.103323 
L 64.561908 59.041921 
L 64.711976 58.786246 
L 64.843803 58.449036 
L 64.934176 58.319186 
L 65.091705 58.196381 
L 65.169569 58.108312 
L 65.18871 58.086662 
L 65.523667 57.522969 
L 65.5303 57.41023 
L 65.500453 57.31259 
L 65.496307 57.226023 
L 65.581705 57.147509 
L 65.809708 57.053895 
L 65.888473 56.991486 
L 65.959775 56.868682 
L 65.998743 56.705613 
L 66.022787 56.476109 
L 66.019471 56.258685 
L 65.978016 56.13588 
L 65.875207 55.960733 
L 65.960604 55.797664 
L 66.12145 55.643655 
L 66.243328 55.496692 
L 66.329555 55.332617 
L 66.318777 55.272221 
L 66.269031 55.132305 
L 66.212652 55.035671 
L 66.165393 55.016546 
L 66.134716 54.985342 
L 66.128912 54.850458 
L 66.177 54.639073 
L 66.283954 54.439767 
L 66.642127 53.975727 
L 66.688557 53.8801 
L 66.709284 53.77944 
L 66.726695 53.64053 
L 66.714259 53.534838 
L 66.683582 53.450284 
L 66.693531 53.372776 
L 66.802144 53.280169 
L 66.874276 53.185549 
L 66.836966 53.082876 
L 66.760688 52.979197 
L 66.714259 52.883571 
L 66.719233 52.80103 
L 66.741619 52.721509 
L 66.804631 52.571526 
L 66.964648 51.968575 
L 67.018539 51.872949 
L 67.222499 51.782355 
L 67.309554 51.667603 
L 67.438065 51.289124 
L 67.504393 51.169339 
L 67.573209 51.085791 
L 67.656948 51.025396 
L 67.768048 50.971039 
L 67.859249 50.906617 
L 67.892413 50.831123 
L 67.910654 50.747575 
L 67.954596 50.661008 
L 68.267168 50.309706 
L 68.457032 50.198981 
L 68.648555 50.229179 
L 68.701618 50.3087 
L 68.73644 50.407346 
L 68.786186 50.457676 
L 68.88402 50.396273 
L 68.960298 50.325812 
L 69.563055 50.009741 
L 69.944442 49.884923 
L 70.342412 49.853719 
L 70.781007 49.945319 
L 71.146641 50.100334 
L 71.271006 50.132545 
L 71.413612 50.120466 
L 71.676438 50.012761 
L 71.780075 49.991622 
L 71.895321 50.030879 
L 71.966623 50.109394 
L 72.089331 50.316752 
L 72.194627 50.440564 
L 72.27505 50.505992 
L 72.509686 50.625777 
L 72.711987 50.762674 
L 73.55933 51.496482 
L 73.619854 51.593115 
L 73.720175 51.707867 
L 74.16872 51.859863 
L 74.244168 51.934351 
L 74.326249 52.137683 
L 74.380141 52.224251 
L 74.45476 52.27458 
L 74.617264 52.332963 
L 74.688567 52.382286 
L 74.992848 52.825188 
L 75.355995 53.115088 
L 75.477044 53.306341 
L 75.629599 53.411027 
L 76.04415 53.297281 
L 76.137009 53.316407 
L 76.219091 53.372776 
L 76.30283 53.449277 
L 76.310292 53.528798 
L 76.267179 53.612346 
L 76.278786 53.658649 
L 76.45041 53.630464 
L 77.283658 53.381835 
L 77.704842 53.378815 
L 78.059698 53.603286 
L 78.613539 54.329042 
L 78.951813 54.604849 
L 79.355586 54.679337 
L 79.576127 54.616928 
L 79.736973 54.541433 
L 79.89699 54.519288 
L 80.25094 54.66364 
L 80.859578 54.91186 
L 81.284078 55.230951 
L 81.567631 55.301413 
L 82.152978 55.228938 
L 82.415803 55.294366 
L 82.639661 55.358789 
L 82.882588 55.327584 
L 83.36098 55.187667 
L 83.520168 55.114186 
L 83.997731 54.712554 
L 84.361707 54.519288 
L 84.670133 54.468958 
L 84.979388 54.525328 
L 85.345852 54.651152 
L 85.681638 54.716581 
L 87.355596 54.524321 
L 87.932652 54.209257 
L 88.966128 53.316407 
L 89.13941 52.729561 
L 89.492242 51.795094 
L 89.578006 51.56795 
L 89.834198 50.301653 
L 90.535619 48.562257 
L 90.712218 47.914009 
L 90.955145 47.441916 
L 90.970069 47.079542 
L 91.203876 46.48565 
L 91.288444 46.172599 
L 91.29259 45.780027 
L 91.20968 45.068364 
L 91.221287 44.829801 
L 91.266888 44.783498 
L 91.328241 44.771419 
L 91.592725 44.670759 
L 92.004789 44.687871 
L 92.125838 44.61741 
L 92.386176 44.405018 
L 93.608142 43.979491 
L 94.513653 43.664164 
L 94.890066 43.604775 
L 95.040963 43.62088 
L 95.193517 43.660137 
L 95.33861 43.67423 
L 95.518118 43.705929 
L 95.521013 43.706441 
L 96.043348 43.108523 
L 96.102214 42.996791 
L 96.33685 42.304253 
L 96.538322 42.010328 
L 96.756376 41.811022 
L 97.27871 41.433548 
L 97.764979 40.868848 
L 97.835867 40.723899 
L 98.005004 40.620219 
L 98.713058 40.364544 
L 98.881366 40.258852 
L 99.009047 40.130007 
L 99.093616 39.959893 
L 99.247829 39.105293 
L 99.263582 38.671451 
L 99.827372 36.084501 
L 99.858048 35.821779 
L 99.802913 35.62348 
L 100.031331 35.158936 
L 100.014812 35.080536 
L 99.99485 34.985802 
L 100.035891 34.803608 
L 100.191348 34.494583 
L 100.33271 34.093958 
L 100.410231 34.02249 
L 100.49397 34.061747 
L 100.538742 34.180526 
L 100.600924 34.287225 
L 100.738555 34.294271 
L 100.861263 34.193611 
L 100.856288 34.053695 
L 100.805713 33.88358 
L 100.792862 33.690314 
L 100.847997 33.718498 
L 100.902718 33.756749 
L 100.927591 33.667162 
L 100.974021 33.608779 
L 101.121601 33.490001 
L 101.067709 33.490001 
L 101.13155 33.372229 
L 101.208657 33.299755 
L 101.297371 33.288682 
L 101.396034 33.357131 
L 101.431685 33.241372 
L 101.387743 33.178963 
L 101.321414 33.114541 
L 101.286592 32.994756 
L 101.321414 32.917248 
L 101.403496 32.901143 
L 101.495526 32.941407 
L 101.560196 33.030994 
L 101.595018 32.964558 
L 101.654714 32.884031 
L 101.674612 32.825648 
L 101.732649 32.903156 
L 101.79649 32.939393 
L 101.868622 32.93738 
L 101.949045 32.898123 
L 101.835458 32.710896 
L 101.923757 32.596144 
L 102.222234 32.492465 
L 102.530246 32.319331 
L 102.670364 32.203572 
L 102.802192 32.060636 
L 102.991227 31.723426 
L 103.106887 31.616727 
L 103.196844 31.918706 
L 103.278097 31.865356 
L 103.354374 31.751611 
L 103.377589 31.695242 
L 103.474594 31.641892 
L 103.592326 31.595589 
L 103.656167 31.614714 
L 103.597301 31.755637 
L 103.710059 31.823079 
L 103.788824 31.76369 
L 103.854323 31.651958 
L 103.9306 31.556331 
L 104.035067 31.509021 
L 104.368366 31.495936 
L 104.541649 31.437553 
L 104.702495 31.317768 
L 104.821056 31.142621 
L 104.866657 30.92419 
L 104.853806 30.859767 
L 104.831006 30.78226 
L 104.818155 30.717838 
L 104.838882 30.691666 
L 104.86873 30.675561 
L 104.896505 30.633284 
L 104.913916 30.577921 
L 104.920549 30.522558 
L 104.955371 30.373582 
L 105.106268 30.186355 
L 105.176741 29.914574 
L 105.266285 29.917594 
L 105.380701 29.980003 
L 105.490557 30.020267 
L 105.583831 29.980003 
L 105.902206 29.68809 
L 106.121089 29.962891 
L 106.228873 30.020267 
L 106.344947 29.953832 
L 106.391377 29.863238 
L 106.509938 29.488785 
L 106.522375 29.483752 
L 106.582899 29.429395 
L 106.593263 29.41631 
L 106.630987 29.399198 
L 106.615649 29.35994 
L 106.580827 29.317663 
L 106.564659 29.289479 
L 106.548906 29.242169 
L 106.513255 29.174727 
L 106.49004 29.099232 
L 106.509938 29.022731 
L 106.596165 29.04085 
L 106.768618 29.053935 
L 106.895471 29.001592 
L 106.843238 28.823425 
L 107.148347 28.734845 
L 107.483305 28.577816 
L 107.760225 28.359385 
L 107.888736 28.086597 
L 107.823237 27.673893 
L 107.81992 27.451436 
L 107.913609 27.354802 
L 108.067822 27.326618 
L 108.23613 27.256156 
L 108.387856 27.168582 
L 108.496468 27.089061 
L 108.621663 26.941092 
L 108.720326 26.745812 
L 108.754319 26.529394 
L 108.685504 26.321029 
L 108.699598 26.215336 
L 108.848837 26.136822 
L 109.033727 26.076426 
L 109.153117 26.01905 
L 109.185452 25.959661 
L 109.229395 25.810685 
L 109.263388 25.753309 
L 109.328887 25.715059 
L 109.40931 25.69392 
L 109.491391 25.658689 
L 109.564352 25.583195 
L 109.624877 25.456364 
L 109.626535 25.378856 
L 109.602491 25.303361 
L 109.586738 25.184583 
L 109.602491 25.058758 
L 109.642288 24.966152 
L 109.895164 24.605791 
L 109.969783 24.550428 
L 110.056839 24.52325 
L 110.252093 24.501105 
L 110.331272 24.449768 
L 110.622287 24.062229 
L 110.742507 23.945464 
L 111.037253 23.758237 
L 111.344435 23.664624 
L 112.006474 23.612281 
L 112.512641 23.76025 
L 112.641152 23.71596 
L 112.812362 23.547859 
L 112.954553 23.518668 
L 113.112082 23.544839 
L 113.325991 23.545846 
L 113.607885 23.440153 
L 114.188257 23.069726 
L 114.53648 22.947928 
L 114.713079 22.916723 
L 114.873925 22.865387 
L 114.98917 22.761708 
L 115.033942 22.575488 
L 115.112707 22.446643 
L 115.295524 22.436578 
L 115.641674 22.482881 
L 115.785109 22.358063 
L 115.969999 21.967504 
L 116.049593 21.883957 
L 116.086073 21.769205 
L 116.024305 21.085727 
L 116.212926 20.810926 
L 116.365481 20.629739 
L 116.488188 20.548205 
L 116.48653 20.502908 
L 116.654008 20.245219 
L 116.726969 20.209989 
L 117.697848 20.148586 
L 117.840454 20.087184 
L 117.970209 19.95834 
L 118.124836 19.838555 
L 118.334599 19.81037 
L 118.773194 19.917069 
L 119.002856 19.942234 
L 119.15168 19.882845 
L 119.206815 19.924115 
L 119.25739 19.937201 
L 119.375952 19.943241 
L 119.548405 19.838555 
L 119.841908 19.653341 
L 120.008557 19.611064 
L 120.409843 19.720783 
L 120.609657 19.743935 
L 120.695469 19.647302 
L 120.76387 19.486247 
L 120.917254 19.446989 
L 121.18837 19.477187 
L 121.486018 19.323178 
L 121.649351 19.296 
L 121.795273 19.411758 
L 121.890206 19.370488 
L 122.431195 19.339284 
L 122.594528 19.392633 
L 123.060484 19.743935 
L 123.334502 19.81037 
L 123.531414 19.928142 
L 123.820771 19.957333 
L 123.937674 19.995584 
L 124.156557 20.148586 
L 124.235322 20.184824 
L 124.407776 20.229114 
L 124.489857 20.275417 
L 124.642412 20.461637 
L 124.65319 20.504921 
L 124.67143 20.536125 
L 124.910212 20.568337 
L 125.027944 20.624706 
L 125.256777 20.813946 
L 125.449128 20.923665 
L 125.590076 20.935744 
L 125.945761 20.880381 
L 126.143916 20.897493 
L 126.293984 20.94883 
L 126.413375 21.032377 
L 126.526133 21.146122 
L 126.77818 21.346435 
L 127.052613 21.421929 
L 127.350261 21.40985 
L 127.676098 21.345428 
L 127.828653 21.290065 
L 128.129617 21.133037 
L 128.28383 21.085727 
L 128.435556 21.079687 
L 128.955403 21.148135 
L 129.187552 21.146122 
L 129.261342 21.168267 
L 129.383635 21.264901 
L 129.43877 21.285032 
L 129.55899 21.243762 
L 129.774556 21.069621 
L 129.932086 21.013252 
L 130.825444 20.932724 
L 131.087026 20.813946 
L 131.321247 20.885414 
L 131.80337 20.944803 
L 132.677245 21.177327 
L 132.951677 21.314224 
L 133.090552 21.345428 
L 133.166007 21.326378 
L 133.22611 21.311204 
L 133.492252 21.166254 
L 133.611643 21.146122 
L 133.69787 21.206518 
L 133.860788 21.429982 
L 133.917167 21.479305 
L 133.97479 21.498431 
L 134.099985 21.589024 
L 134.164655 21.618215 
L 134.229325 21.609156 
L 134.358665 21.546747 
L 134.438258 21.550774 
L 134.518267 21.624255 
L 134.705229 21.934286 
L 134.626465 22.109434 
L 134.981321 23.351573 
L 135.395043 24.800063 
L 135.807936 26.246541 
L 136.138748 27.404126 
L 136.690101 29.332762 
L 136.739018 29.627695 
L 136.57071 31.851264 
L 136.620042 32.252895 
L 136.769695 32.599164 
L 137.539931 33.529258 
L 137.69829 33.881567 
L 138.007959 35.099547 
L 138.333382 35.953643 
L 138.445726 36.157982 
L 138.597037 36.317024 
L 139.115226 36.742814 
L 139.209744 36.867632 
L 139.252857 37.022648 
L 139.258303 37.182476 
L 139.310894 38.725807 
L 139.362299 39.138511 
L 139.8184 40.238523 
L 140.099371 40.916158 
L 140.301672 41.664059 
L 140.344785 42.416992 
L 140.279286 43.086378 
L 140.285919 44.443269 
L 140.29421 46.084019 
L 140.299599 47.246637 
L 140.307061 48.795787 
L 140.319083 50.91165 
L 140.182281 51.38777 
L 140.149946 51.634386 
L 140.139997 51.954483 
L 140.169844 52.258475 
L 140.253584 52.459794 
L 140.300428 52.663126 
L 140.374633 53.27413 
L 140.375462 53.485515 
L 140.342298 53.615365 
L 140.287577 53.674755 
L 140.209641 53.727097 
L 140.106833 53.83581 
L 140.043821 53.953581 
L 139.70306 54.930986 
L 139.654143 55.200753 
L 139.687307 55.492666 
L 140.002366 56.614013 
L 139.542214 56.864655 
L 139.313381 56.924044 
L 139.082476 56.847543 
L 138.379689 56.347983 
L 138.248399 56.254658 
L 137.511742 55.731229 
L 136.661911 55.128278 
L 135.812081 54.525328 
L 135.608122 54.45084 
L 135.371828 54.454866 
L 135.094079 54.535394 
L 134.868563 54.659205 
L 134.059359 55.450389 
L 133.348818 56.145946 
L 133.244765 56.349278 
L 133.122473 56.862642 
L 132.69051 57.997075 
L 132.14579 59.059033 
L 131.56376 59.863303 
L 130.81964 60.89305 
L 130.645943 61.622831 
L 130.655892 62.659625 
L 130.668329 64.004436 
L 130.748337 64.672815 
L 130.802644 64.900306 
L 130.941933 64.891247 
L 131.075418 64.863062 
L 131.211391 64.780521 
L 131.334513 64.666776 
L 131.426543 64.542965 
L 131.467308 64.673723 
L 131.606044 65.118737 
L 131.712169 65.294891 
L 131.941831 65.559626 
L 132.027228 65.703569 
L 132.074487 65.896835 
L 132.064538 66.139425 
L 131.981627 66.521931 
L 132.015621 66.764521 
L 132.195536 67.102737 
L 133.019249 67.913046 
L 133.402295 68.540155 
L 133.526246 68.675039 
L 133.647295 68.763619 
L 134.350533 69.026708 
L 134.634756 69.133039 
L 135.248706 69.362543 
L 136.073249 69.670561 
L 136.611336 69.78934 
L 137.496818 69.802425 
L 138.665023 69.819537 
L 139.435674 69.831617 
L 140.154921 69.841683 
L 140.150775 69.712838 
L 140.12756 69.602113 
L 140.086934 69.498434 
L 140.032213 69.392741 
L 139.987442 69.249804 
L 139.967129 68.528076 
L 139.961943 68.342535 
L 139.945158 67.741925 
L 140.086105 66.847061 
L 140.2113 66.046818 
L 140.347272 65.186179 
L 140.329861 64.894266 
L 140.867949 64.897286 
L 140.99646 64.924464 
L 141.193786 65.139876 
L 141.323126 65.203291 
L 141.558177 65.258654 
L 141.96651 65.206311 
L 142.198658 65.216377 
L 142.782761 65.320056 
L 143.235037 65.400584 
L 144.171093 65.372399 
L 145.207472 65.339182 
L 146.333393 65.302944 
L 147.573854 65.262795 
L 147.473318 65.659885 
L 147.350584 66.930415 
L 147.203696 67.550224 
L 147.184764 67.761846 
L 147.142982 67.965543 
L 146.85704 68.399885 
L 146.835496 68.4839 
L 146.802201 68.765271 
L 146.784575 68.848494 
L 146.710151 68.998294 
L 146.674898 69.254302 
L 145.836656 71.832613 
L 145.280439 74.686747 
L 145.268688 74.904711 
L 145.25302 75.004577 
L 145.177944 75.235223 
L 145.154442 75.339845 
L 145.153136 75.458734 
L 145.198182 75.641824 
L 145.20928 75.745654 
L 144.826065 78.171786 
L 144.773185 78.352498 
L 144.099458 79.488286 
L 144.053759 79.643635 
L 144.022423 79.867146 
L 143.932984 80.071636 
L 143.795236 80.220644 
L 143.615706 80.278503 
L 143.645083 80.372822 
L 143.674461 80.39977 
L 143.71559 80.383918 
L 143.78022 80.345081 
L 143.844851 80.682726 
L 143.756718 81.04415 
L 143.624193 81.396854 
L 143.554992 81.714685 
L 143.453149 81.885093 
L 142.761142 82.645984 
L 142.656036 82.734754 
L 142.398165 82.869495 
L 142.29567 82.943999 
L 142.217982 83.051792 
L 142.068483 83.331578 
L 141.962723 83.476623 
L 141.081394 84.287447 
L 140.861388 84.092469 
L 140.544762 84.145573 
L 140.361315 84.353233 
L 140.538886 84.619545 
L 140.602864 84.53553 
L 140.709277 84.435663 
L 140.837886 84.361159 
L 140.971717 84.346892 
L 140.818953 84.66076 
L 140.506245 84.939753 
L 139.513933 85.507251 
L 139.222768 85.571451 
L 138.915282 85.559562 
L 138.556874 85.483473 
L 138.56732 85.566695 
L 138.582988 85.62297 
L 138.613018 85.661014 
L 138.666551 85.689548 
L 138.666551 85.749785 
L 138.421084 85.911474 
L 136.859499 87.816872 
L 136.480854 88.178295 
L 136.354203 88.243288 
L 136.305893 88.282125 
L 136.286961 88.34157 
L 136.255625 88.51277 
L 136.223636 88.548437 
L 136.120488 88.625319 
L 135.813002 89.085816 
L 135.69745 89.192816 
L 135.424564 89.375113 
L 135.31554 89.479736 
L 135.275717 89.57564 
L 135.23263 89.779337 
L 135.132093 89.844329 
L 135.066809 89.906152 
L 135.006748 89.982241 
L 134.943423 90.155819 
L 133.886481 91.697416 
L 132.832802 93.932533 
L 132.750545 94.319319 
L 132.835414 94.696595 
L 132.514218 94.695009 
L 132.436531 94.773476 
L 132.39736 95.029484 
L 132.518788 94.958943 
L 132.792327 94.861454 
L 132.895475 94.756832 
L 132.895475 94.82975 
L 132.881112 94.897914 
L 132.854999 94.966077 
L 132.785145 95.089722 
L 132.578196 95.354448 
L 131.745177 96.159724 
L 131.510155 96.467251 
L 131.124329 97.180587 
L 130.674524 98.292597 
L 129.512475 100.455588 
L 129.350572 100.8503 
L 129.320541 100.998516 
L 129.255257 101.13722 
L 128.876612 101.569184 
L 127.512836 104.229924 
L 127.285649 104.572325 
L 127.158346 104.711822 
L 127.042794 104.767304 
L 126.935076 104.864793 
L 126.681775 105.437839 
L 125.937542 106.477723 
L 125.355211 107.292511 
L 125.128024 107.458955 
L 124.868848 108.04389 
L 124.445157 108.565418 
L 123.275274 109.727362 
L 123.13165 109.805829 
L 122.636799 109.953251 
L 122.454005 110.042814 
L 122.296019 110.174385 
L 122.229429 110.344 
L 121.73719 110.975698 
L 121.560924 111.054165 
L 121.48846 111.108062 
L 121.434274 111.294322 
L 121.378783 111.370411 
L 121.316111 111.426685 
L 121.272371 111.447292 
L 121.092841 111.494848 
L 120.948564 111.615322 
L 120.691346 111.912545 
L 120.56339 111.991012 
L 120.247417 112.112279 
L 120.039815 112.266835 
L 119.970614 112.28348 
L 119.894885 112.290613 
L 119.810017 112.317561 
L 119.770846 112.322317 
L 119.682061 112.30805 
L 119.645502 112.317561 
L 119.596539 112.382554 
L 119.607637 112.43328 
L 119.637668 112.47608 
L 119.645502 112.517295 
L 119.486862 112.882681 
L 119.251188 113.021386 
L 119.206795 113.080038 
L 119.174154 113.319401 
L 119.087326 113.447802 
L 118.824233 113.647535 
L 118.563098 113.945551 
L 118.43906 114.129433 
L 118.385527 114.285574 
L 118.364636 114.378308 
L 118.221665 114.646205 
L 118.13549 114.698516 
L 118.111988 114.718331 
L 118.098279 114.756376 
L 118.072165 114.875265 
L 118.05715 114.910932 
L 117.5277 115.164562 
L 117.450012 115.283451 
L 117.416717 115.443555 
L 117.336418 115.624267 
L 117.116412 115.980934 
L 116.129323 117.081849 
L 115.303485 118.254096 
L 114.87653 118.527541 
L 114.806023 118.622653 
L 113.728843 119.652233 
L 113.545396 119.929642 
L 113.477501 119.992257 
L 113.344975 120.058835 
L 113.27251 120.115901 
L 112.976775 120.436902 
L 112.83511 120.639806 
L 112.773743 120.819726 
L 112.722169 120.936237 
L 111.831047 121.652743 
L 111.626056 121.766084 
L 111.364921 121.993558 
L 111.23566 122.063307 
L 111.210199 122.21707 
L 111.024141 122.367663 
L 110.628522 122.588797 
L 110.251182 122.869376 
L 110.012244 123.003324 
L 109.568968 123.138065 
L 109.365283 123.336214 
L 109.21056 123.605696 
L 109.149847 123.894201 
L 109.075423 124.10186 
L 108.901116 124.304765 
L 108.079847 125.008589 
L 107.836992 125.098945 
L 107.76518 125.175034 
L 107.660726 125.33276 
L 107.55105 125.399338 
L 107.537993 125.435005 
L 107.536034 125.484938 
L 107.5282 125.538042 
L 107.496211 125.587183 
L 107.112343 125.767895 
L 106.956315 125.950191 
L 106.866877 125.992992 
L 106.711502 126.018355 
L 106.314577 126.16974 
L 106.176828 126.257718 
L 105.459361 127.035254 
L 105.191698 127.261143 
L 104.625036 127.482277 
L 104.533638 127.563914 
L 104.49708 127.578181 
L 104.310368 127.860345 
L 104.249002 127.896012 
L 104.187635 127.915034 
L 104.120393 127.906315 
L 104.034871 127.860345 
L 103.977422 128.10922 
L 103.785488 128.321635 
L 103.349393 128.678303 
L 103.153542 128.797192 
L 103.1209 128.797192 
L 103.086952 128.773414 
L 103.060839 128.747258 
L 103.045171 128.736955 
L 103.017752 128.766281 
L 102.98511 128.870111 
L 102.130547 129.472483 
L 102.054165 129.567594 
L 101.447027 129.867195 
L 101.321682 129.968647 
L 101.260315 130.036017 
L 101.232896 130.102595 
L 101.217228 130.176307 
L 101.172835 130.253981 
L 101.108857 130.314218 
L 101.03574 130.337996 
L 100.871225 130.368115 
L 100.175954 130.751731 
L 100.021231 130.79136 
L 99.827992 130.804042 
L 99.65042 130.861109 
L 99.200616 131.262954 
L 99.038059 131.308132 
L 98.65158 131.355688 
L 98.383917 131.518962 
L 97.614875 131.856608 
L 97.518256 131.867704 
L 97.455583 131.909712 
L 97.402704 132.091216 
L 97.351782 132.134016 
L 97.177475 132.160964 
L 96.409739 132.554091 
L 96.096377 132.641276 
L 95.765389 132.658714 
L 95.083828 132.556469 
L 94.871656 132.565187 
L 94.717586 132.636521 
L 94.576574 132.661884 
L 94.388557 132.580247 
L 94.086946 132.399535 
L 93.019558 132.181572 
L 91.918223 132.121334 
L 91.213812 132.228335 
L 90.555753 132.439957 
L 89.959713 132.737973 
L 89.702495 132.942463 
L 89.49424 133.21036 
L 89.341476 133.526605 
L 89.208951 134.074288 
L 89.18806 134.30414 
L 89.223966 134.410348 
L 89.380647 134.48723 
L 89.416553 134.57283 
L 89.45507 134.632275 
L 89.686174 134.805853 
L 89.835674 135.05235 
L 89.905527 135.138743 
L 89.893776 135.214832 
L 89.878761 135.245743 
L 89.850689 135.277447 
L 89.598041 135.195809 
L 89.423734 135.253669 
L 89.262483 135.356706 
L 89.053575 135.40981 
L 88.802886 135.380484 
L 88.377889 135.244158 
L 88.147438 135.205321 
L 87.747902 135.257632 
L 87.548134 135.258424 
L 87.332045 135.128439 
L 87.046756 135.077713 
L 86.772564 134.872431 
L 86.481399 134.753542 
L 85.80049 134.568867 
L 85.066049 134.553015 
L 84.347276 134.654467 
L 83.877233 134.792379 
L 83.685952 134.897001 
L 83.559955 135.047594 
L 83.672896 135.447062 
L 83.58411 135.64204 
L 83.447014 135.81007 
L 83.362145 135.875856 
L 82.980236 136.227768 
L 82.924745 136.37519 
L 82.957387 136.493287 
L 83.033116 136.556695 
L 83.108845 136.60425 
L 83.142792 136.673999 
L 83.115373 136.758014 
L 82.978277 136.865807 
L 82.924745 136.940311 
L 82.869907 136.940311 
L 82.768717 136.794473 
L 82.600285 136.736614 
L 82.051902 136.722347 
L 81.609932 136.60108 
L 81.425179 136.575717 
L 80.917925 136.673999 
L 80.765161 136.660525 
L 80.071849 136.474265 
L 79.724539 136.290383 
L 79.443167 136.033582 
L 79.288445 135.973345 
L 78.311801 135.854456 
L 78.172094 135.775989 
L 78.061112 135.695937 
L 77.541454 135.47084 
L 76.106519 135.337684 
L 75.933517 135.296469 
L 75.588166 135.166483 
L 74.73295 135.077713 
L 73.309114 134.739275 
L 72.932427 134.754334 
L 71.641116 135.057898 
L 71.468767 135.136365 
L 71.314697 135.240987 
L 71.186089 135.374143 
L 71.108401 135.586559 
L 71.162587 135.780744 
L 71.304252 135.9139 
L 71.487046 135.942434 
L 71.487046 136.009012 
L 68.715102 135.7427 
L 68.672015 135.680085 
L 68.624358 135.401091 
L 68.60412 135.337684 
L 68.36257 135.318662 
L 68.263339 135.279032 
L 68.195444 135.205321 
L 68.224169 135.351951 
L 68.283577 135.40981 
L 68.361264 135.440721 
L 68.442216 135.507299 
L 68.521862 135.642833 
L 68.523168 135.714166 
L 68.469635 135.775989 
L 68.421325 135.726055 
L 68.309037 135.691181 
L 68.087073 135.670574 
L 67.983925 135.694352 
L 67.90689 135.729226 
L 67.822021 135.754589 
L 67.697982 135.7427 
L 67.05755 135.539003 
L 66.800985 135.377314 
L 66.697837 135.344025 
L 66.607745 135.283787 
L 66.542461 135.138743 
L 66.524835 135.047594 
L 66.53071 134.979431 
L 66.584243 134.942972 
L 66.706976 134.944557 
L 66.580326 134.835179 
L 66.402754 134.777319 
L 66.048917 134.739275 
L 66.124646 134.885905 
L 66.231058 135.030157 
L 66.357056 135.145876 
L 66.487623 135.205321 
L 66.340082 135.257632 
L 66.145537 135.218795 
L 65.242011 134.896209 
L 65.081413 134.872431 
L 64.8712 134.879564 
L 64.713213 134.910475 
L 64.582646 134.972298 
L 64.166789 135.319454 
L 63.842329 135.493032 
L 63.481963 135.576255 
L 62.732507 135.491447 
L 62.396296 135.499373 
L 61.7069 135.670574 
L 61.546302 135.747455 
L 61.415082 135.8497 
L 61.180061 136.111256 
L 61.079524 136.315746 
L 61.114777 136.474265 
L 61.230982 136.589984 
L 61.373954 136.673999 
L 61.264277 136.76911 
L 61.104332 136.826177 
L 60.061099 136.983903 
L 59.763405 137.116267 
L 59.561026 137.339778 
L 59.536871 137.498297 
L 59.578 137.81692 
L 59.501618 137.925506 
L 59.342979 138.210047 
L 59.295974 138.244922 
L 58.822015 138.527085 
L 58.494291 138.65073 
L 58.152205 138.719686 
L 57.80359 138.741086 
L 56.957513 138.566715 
L 56.657209 138.379663 
L 56.479637 138.335277 
L 56.30533 138.367774 
L 55.970424 138.509648 
L 55.688399 138.563545 
L 55.631602 138.617441 
L 55.596349 138.682434 
L 55.553262 138.741086 
L 55.500382 138.783886 
L 54.966362 139.020079 
L 54.621011 139.07239 
L 54.272396 139.043064 
L 52.956278 138.548485 
L 52.635082 138.476359 
L 51.856248 138.405026 
L 51.47238 138.447826 
L 51.15249 138.60793 
L 51.211245 138.60793 
L 50.752954 138.738708 
L 50.604107 138.814005 
L 50.820849 138.850464 
L 51.012783 138.997887 
L 51.109403 139.202376 
L 51.042813 139.40528 
L 50.892008 139.46631 
L 49.474047 139.207132 
L 48.351821 139.361688 
L 48.016915 139.519414 
L 47.738807 139.742133 
L 47.299448 140.340542 
L 47.149295 140.48638 
L 46.996532 140.548202 
L 46.881632 140.573565 
L 46.826794 140.636973 
L 46.783054 140.722573 
L 46.700797 140.814514 
L 46.632249 140.850973 
L 46.371767 140.95401 
L 46.242505 141.044366 
L 46.096923 141.180693 
L 45.978106 141.343967 
L 45.929144 141.511997 
L 45.842969 141.482671 
L 45.647118 141.534982 
L 45.321353 141.678442 
L 44.727271 142.114369 
L 44.50139 142.420311 
L 44.609108 142.681867 
L 44.609108 142.742897 
L 44.479846 142.778564 
L 44.270286 142.913305 
L 44.139065 142.942631 
L 44.013068 142.924401 
L 43.887723 142.876845 
L 43.771518 142.813438 
L 43.266223 142.433785 
L 43.150018 142.314103 
L 43.009005 142.238807 
L 41.722917 142.277644 
L 41.606712 142.306177 
L 41.473533 142.440918 
L 41.362551 142.476585 
L 41.276377 142.45677 
L 41.222844 142.396533 
L 41.185632 142.32837 
L 41.148421 142.277644 
L 40.743662 142.027184 
L 40.131301 141.406582 
L 39.720667 141.171181 
L 39.595975 141.0729 
L 39.47063 140.917551 
L 39.321131 140.798662 
L 39.129197 140.774091 
L 38.93661 140.82878 
L 38.783846 140.95401 
L 38.713993 140.902492 
L 38.643486 140.887432 
L 38.573633 140.90487 
L 38.504432 140.95401 
L 38.534463 140.845425 
L 39.011686 140.183608 
L 39.051509 140.077401 
L 39.012339 139.811089 
L 38.885689 139.499599 
L 38.721174 139.209509 
L 38.564493 139.007398 
L 38.452205 138.921797 
L 38.350363 138.896434 
L 37.789576 139.013738 
L 37.29799 138.978864 
L 37.190272 138.94716 
L 37.079943 138.838575 
L 36.933707 138.563545 
L 36.806404 138.476359 
L 36.806404 138.409781 
L 37.013353 138.371737 
L 37.108667 138.22907 
L 37.1622 138.025373 
L 37.24511 137.804239 
L 37.106056 137.885083 
L 36.916733 138.205292 
L 36.831865 138.27504 
L 36.218851 138.234618 
L 36.11505 138.241751 
L 35.883946 138.328937 
L 35.103153 138.462092 
L 34.934721 138.574641 
L 34.902732 138.6539 
L 34.825045 138.676093 
L 34.734953 138.655486 
L 34.659877 138.60793 
L 34.584801 138.489041 
L 34.593941 138.393929 
L 34.659877 138.27504 
L 34.605692 137.954039 
L 34.601122 137.877158 
L 34.628541 137.769365 
L 34.665753 137.723394 
L 34.712757 137.687727 
L 34.770206 137.604505 
L 34.836796 137.414282 
L 34.825045 137.271615 
L 34.710145 136.940311 
L 34.699047 136.738991 
L 34.770206 136.650221 
L 34.879883 136.570169 
L 34.98499 136.401346 
L 34.648126 135.882989 
L 34.518864 135.809278 
L 34.042946 135.691181 
L 33.292837 135.619055 
L 32.553173 135.656307 
L 32.43501 135.707033 
L 32.366462 135.754589 
L 32.076602 135.875856 
L 31.938201 135.9781 
L 31.871612 136.047849 
L 31.797188 136.147716 
L 31.679025 136.272946 
L 31.643772 136.341901 
L 31.632673 136.474265 
L 31.652259 136.574924 
L 31.692734 136.628028 
L 31.745614 136.670036 
L 31.797188 136.734236 
L 31.906865 137.140044 
L 31.918616 137.235156 
L 31.923839 137.323926 
L 31.852027 137.969099 
L 31.884668 138.16804 
L 32.021764 138.27504 
L 31.871612 138.321011 
L 31.671844 138.214803 
L 31.481215 138.038847 
L 31.359788 137.877158 
L 31.166548 137.490371 
L 31.140435 137.374652 
L 31.149574 137.31283 
L 31.186133 137.178882 
L 31.195273 137.102792 
L 31.179605 137.067126 
L 31.145657 137.044933 
L 31.10714 137.026703 
L 31.085596 137.006888 
L 31.008562 136.75088 
L 30.943278 136.645465 
L 30.711521 136.565413 
L 30.63775 136.471094 
L 30.618165 136.345864 
L 30.642973 136.208746 
L 30.701728 136.131864 
L 30.776152 136.104916 
L 30.838824 136.05419 
L 30.866243 135.909145 
L 30.87016 135.775989 
L 30.885828 135.672159 
L 30.919776 135.576255 
L 30.97592 135.47084 
L 30.858409 135.488277 
L 30.811405 135.504921 
L 30.751344 135.542966 
L 30.637098 135.361462 
L 30.625999 135.22038 
L 30.692589 135.09198 
L 30.811405 134.944557 
L 30.92304 134.763845 
L 31.009214 134.415896 
L 31.085596 134.207444 
L 31.346078 133.995028 
L 31.65487 134.002954 
L 31.914046 133.961739 
L 32.021764 133.602694 
L 31.986511 133.417227 
L 31.831789 133.164389 
L 31.797188 133.037574 
L 31.777603 132.845766 
L 31.564778 131.983423 
L 31.354565 131.557007 
L 31.310172 131.366784 
L 31.237054 131.32874 
L 30.866243 130.87062 
L 30.73437 130.782642 
L 30.670392 130.724782 
L 30.642973 130.637597 
L 30.642973 130.235751 
L 30.622082 130.03364 
L 30.566591 129.86561 
L 30.368782 129.534305 
L 30.139636 129.28226 
L 29.273322 128.664036 
L 29.352315 128.499969 
L 29.305311 128.307368 
L 29.103584 127.925338 
L 28.99913 127.666952 
L 28.804585 127.397469 
L 28.78043 127.294432 
L 28.704048 127.167617 
L 28.335848 126.804609 
L 28.200058 126.730105 
L 28.034238 126.661942 
L 27.922603 126.505008 
L 27.833164 126.325881 
L 27.739156 126.19114 
L 27.944146 126.086518 
L 28.062963 126.056399 
L 28.147831 126.091273 
L 28.210504 126.203029 
L 28.254897 126.308444 
L 28.309735 126.400385 
L 28.401132 126.463793 
L 28.365226 126.570001 
L 28.423328 126.650053 
L 28.643334 126.829972 
L 28.791528 127.042387 
L 28.895982 127.154936 
L 28.99913 127.194565 
L 29.123169 127.120061 
L 29.090527 127.010683 
L 28.917526 126.829972 
L 28.875091 126.747542 
L 28.85877 126.583475 
L 28.835268 126.517689 
L 28.800015 126.493911 
L 28.709924 126.483608 
L 28.670753 126.463793 
L 28.494488 126.283081 
L 28.428551 126.18797 
L 28.401132 126.091273 
L 28.42594 125.670405 
L 28.401132 125.526946 
L 28.286886 125.337516 
L 28.09691 125.241612 
L 27.8645 125.221004 
L 27.624909 125.260634 
L 27.697374 125.414397 
L 27.739156 125.465916 
L 27.64123 125.489694 
L 27.557667 125.532494 
L 27.400986 125.660102 
L 27.313506 125.557064 
L 27.265196 125.455612 
L 27.245611 125.365257 
L 27.241041 125.297093 
L 27.210358 125.213078 
L 27.154867 125.125893 
L 27.126795 125.0181 
L 27.182286 124.867507 
L 27.143769 124.790625 
L 27.045843 124.509254 
L 26.997533 124.293668 
L 26.991005 124.214409 
L 27.018424 124.131979 
L 27.100028 124.027357 
L 27.14638 123.908467 
L 27.101987 123.794334 
L 26.916581 123.539118 
L 26.872188 123.513755 
L 26.841505 123.477296 
L 26.848686 123.392488 
L 26.880022 123.380599 
L 26.938778 123.393281 
L 26.99231 123.398036 
L 27.017771 123.359199 
L 27.043232 123.329873 
L 27.166618 123.217325 
L 27.211664 123.192754 
L 27.276947 123.17928 
L 27.29131 123.145199 
L 27.293921 123.09368 
L 27.32134 123.026309 
L 27.327216 122.95022 
L 27.320034 122.649827 
L 27.346148 122.527767 
L 27.456477 122.437411 
L 27.646453 122.356567 
L 27.839692 122.310596 
L 27.958509 122.322485 
L 27.899101 122.394611 
L 27.993109 122.538864 
L 28.401132 122.926442 
L 28.747135 123.068317 
L 29.053969 122.987472 
L 29.320979 122.775057 
L 30.291747 121.765291 
L 30.478458 121.385638 
L 30.59401 121.037689 
L 30.781374 120.243509 
L 30.811405 119.856723 
L 30.77354 119.179054 
L 30.727189 119.024498 
L 30.631222 118.805742 
L 30.676268 118.646431 
L 30.866243 118.387252 
L 30.903455 117.994125 
L 30.593357 116.719633 
L 30.503266 115.678956 
L 30.360948 115.25571 
L 30.313943 115.044087 
L 30.333528 114.618464 
L 30.321777 114.413182 
L 30.231686 114.215033 
L 30.131149 114.078707 
L 30.039752 113.913847 
L 29.991442 113.783862 
L 29.984914 113.696676 
L 29.992748 113.619002 
L 29.984914 113.515172 
L 29.815176 112.835126 
L 29.679386 112.510955 
L 29.487452 112.178857 
L 29.113377 111.6819 
L 29.053969 111.543989 
L 29.036995 111.47107 
L 28.670753 110.914669 
L 28.287538 110.495386 
L 28.227477 110.344 
L 28.176556 110.166459 
L 28.053823 110.017451 
L 27.789424 109.77254 
L 27.476715 109.263694 
L 27.248222 109.077434 
L 27.168576 108.836485 
L 27.072609 108.37678 
L 26.972725 108.254721 
L 26.645654 107.97969 
L 26.574495 107.877446 
L 26.531408 107.75063 
L 26.097271 107.004006 
L 26.057448 106.973887 
L 25.975191 106.734524 
L 25.944508 106.671909 
L 25.840707 106.504671 
L 25.670969 106.067952 
L 25.588059 105.903885 
L 25.029883 105.076416 
L 24.584649 104.141946 
L 24.542867 104.003242 
L 24.476278 103.646575 
L 24.378352 103.304966 
L 23.907004 102.625713 
L 23.691568 102.204052 
L 23.721599 101.835496 
L 23.524442 101.596925 
L 23.07529 100.72507 
L 23.003478 100.499181 
L 22.855937 100.308958 
L 22.340849 99.366563 
L 22.304943 99.267489 
L 22.280135 99.015443 
L 22.211587 98.706331 
L 22.178293 98.625487 
L 22.160013 98.366308 
L 21.738281 97.589565 
L 21.62991 97.265394 
L 21.59988 96.885741 
L 21.413168 96.105035 
L 20.910484 94.859076 
L 20.858257 94.526979 
L 20.84063 94.478631 
L 20.803419 94.428697 
L 20.766207 94.360534 
L 20.748581 94.259082 
L 20.742705 94.156045 
L 20.530533 93.353939 
L 20.580149 93.353939 
L 20.540978 93.227916 
L 20.542284 92.96636 
L 20.530533 92.828449 
L 20.332071 92.267292 
L 20.335988 92.163462 
L 20.229575 92.071521 
L 20.174737 91.86069 
L 20.141442 91.492134 
L 19.904463 90.797028 
L 19.845055 90.688443 
L 19.548667 89.723855 
L 19.514719 89.66124 
L 19.359344 89.481321 
L 19.324744 89.385417 
L 19.301894 89.340239 
L 19.155659 89.152394 
L 18.985922 88.565081 
L 18.940223 88.476311 
L 18.85666 88.381992 
L 18.821407 88.29877 
L 18.829241 88.075258 
L 18.799863 87.982524 
L 18.724787 87.835894 
L 18.658198 87.610797 
L 18.628167 87.38253 
L 18.667337 87.224011 
L 18.544604 87.002877 
L 18.03278 86.520187 
L 17.958357 86.398127 
L 17.836276 86.022437 
L 17.774257 85.889281 
L 17.413238 85.350317 
L 16.872689 84.852567 
L 16.785862 84.641737 
L 16.70491 84.296166 
L 16.660517 83.95218 
L 16.685325 83.749276 
L 16.652683 83.684283 
L 16.583483 83.516253 
L 16.571079 83.443334 
L 16.540395 83.392608 
L 16.473153 83.375171 
L 16.398077 83.369623 
L 16.347156 83.349808 
L 16.176112 82.937659 
L 16.044239 82.82511 
L 15.84186 82.592087 
L 15.826845 82.539776 
L 15.909755 82.476368 
L 15.960676 82.332909 
L 15.978956 82.178353 
L 15.963941 82.080864 
L 16.110813 82.007394 
L 16.320576 81.854392 
L 16.541946 81.731587 
L 16.848714 81.625894 
L 17.456446 80.978654 
L 17.539356 80.944429 
L 17.610659 80.991739 
L 17.646311 81.102465 
L 17.669525 81.226276 
L 17.702689 81.31687 
L 17.836175 81.331969 
L 17.996192 81.185006 
L 18.140456 80.977647 
L 18.228341 80.811559 
L 18.250726 80.647484 
L 18.260676 80.425026 
L 18.302131 80.230753 
L 18.419863 80.146199 
L 18.505261 80.066678 
L 18.448882 79.888511 
L 18.278087 79.608677 
L 18.220879 79.458695 
L 18.188544 79.259389 
L 18.223366 79.085248 
L 18.365972 79.009753 
L 18.435616 79.044984 
L 18.51521 79.108399 
L 18.596462 79.138597 
L 18.67191 79.077195 
L 18.687663 78.95439 
L 18.641234 78.838632 
L 18.580709 78.739986 
L 18.556665 78.671537 
L 18.589 78.579937 
L 18.632943 78.543699 
L 18.803738 78.544706 
L 18.926445 78.513502 
L 18.923128 78.44304 
L 18.782181 78.248767 
L 18.760624 78.197431 
L 18.776377 78.139048 
L 18.825294 78.096771 
L 18.857629 78.11187 
L 18.891623 78.140055 
L 19.025108 78.136028 
L 19.066563 78.171259 
L 19.101386 78.176292 
L 19.160252 78.078652 
L 19.219947 77.305587 
L 19.248137 77.279416 
L 19.384939 77.111314 
L 19.433856 77.069037 
L 19.496867 77.087156 
L 19.57729 77.192848 
L 19.657713 77.208954 
L 19.753889 77.16869 
L 19.868305 77.036826 
L 19.961165 77.009648 
L 20.175073 77.069037 
L 20.442873 76.854632 
L 20.533246 76.804303 
L 20.691604 76.762026 
L 20.772856 76.764039 
L 20.863228 76.804303 
L 20.975157 76.949252 
L 21.067188 77.148558 
L 21.172484 77.325719 
L 21.328355 77.40222 
L 21.529827 77.469662 
L 21.602788 77.63877 
L 21.60113 77.858208 
L 21.579573 78.078652 
L 21.618541 78.53464 
L 21.788507 78.761124 
L 22.045529 78.813467 
L 22.554598 78.683616 
L 22.761873 78.671537 
L 22.852246 78.71784 
L 22.884581 78.825546 
L 22.896188 78.949357 
L 22.926865 79.042971 
L 22.999826 79.162756 
L 23.023041 79.262409 
L 23.031332 79.362061 
L 23.062838 79.481846 
L 23.118387 79.581499 
L 23.246069 79.7647 
L 23.287524 79.874418 
L 23.304106 80.082784 
L 23.285037 80.350538 
L 23.21788 80.580042 
L 23.090198 80.678688 
L 22.955054 80.715932 
L 22.815765 80.813572 
L 22.711298 80.943423 
L 22.679792 81.08334 
L 22.745291 81.259494 
L 22.962516 81.563486 
L 23.008946 81.784936 
L 23.071129 81.949012 
L 23.364631 82.065777 
L 23.452516 82.280181 
L 23.401941 82.662688 
L 23.301619 83.067339 
L 23.316543 83.360258 
L 23.615849 83.411595 
L 23.970705 83.319994 
L 24.303175 83.277717 
L 24.466508 83.234434 
L 24.619063 83.157933 
L 24.755036 83.125721 
L 24.876085 83.217322 
L 24.919198 83.423674 
L 24.912565 83.663243 
L 24.949046 83.860536 
L 25.122328 83.943077 
L 25.381008 84.022598 
L 25.483817 84.015552 
L 25.560924 83.976295 
L 25.720111 83.859529 
L 25.807167 83.816246 
L 26.065847 83.792088 
L 27.404848 84.110172 
L 27.695863 84.241029 
L 27.966979 84.426243 
L 28.454492 84.861092 
L 28.762089 85.032213 
L 29.436149 85.284869 
L 29.585387 85.287888 
L 29.871428 85.181189 
L 30.576994 85.07147 
L 30.75608 85.085563 
L 31.093525 85.21944 
L 31.290022 85.255677 
L 31.445894 85.185216 
L 31.508076 85.141932 
L 31.595961 85.112741 
L 31.752662 85.085563 
L 31.796604 85.070464 
L 31.866249 85.022147 
L 31.91102 85.013088 
L 31.946672 85.035233 
L 32.044506 85.132873 
L 32.080986 85.151998 
L 32.25344 85.093615 
L 32.544455 84.922494 
L 34.08244 84.680911 
L 35.758056 84.94162 
L 35.891542 85.076503 
L 36.093843 85.417739 
L 36.178411 85.522425 
L 36.23479 85.543564 
L 36.515856 85.581814 
L 36.60457 85.614025 
L 36.641879 85.654289 
L 36.777852 85.844536 
L 37.087108 85.826417 
L 37.418749 85.708645 
L 37.875584 85.44995 
L 37.941083 85.378482 
L 38.028968 85.223466 
L 38.077885 85.187229 
L 38.34154 85.164077 
L 38.436057 85.101668 
L 38.440203 84.983897 
L 38.140897 84.431276 
L 38.087834 84.218884 
L 38.116853 84.015552 
L 38.256142 83.733705 
L 38.347343 83.604861 
L 38.449323 83.510241 
L 38.565397 83.500175 
L 38.75692 83.66727 
L 38.842318 83.683375 
L 38.958392 83.629019 
L 39.609238 83.449845 
L 39.7734 83.369318 
L 39.912689 83.24752 
L 39.996428 83.106596 
L 40.227748 82.325478 
L 40.276665 82.240924 
L 40.353772 82.207707 
L 40.404347 82.173482 
L 40.472333 81.994308 
L 40.515447 81.914787 
L 40.586749 81.820167 
L 40.634008 81.741653 
L 40.685413 81.674211 
L 40.769152 81.615828 
L 40.839626 81.59167 
L 41.644684 81.526241 
L 41.783144 81.448734 
L 41.941503 81.31385 
L 42.123906 81.245401 
L 42.511097 81.21621 
L 42.745733 81.143735 
L 43.104734 80.794447 
L 43.316155 80.666609 
L 43.405698 80.65453 
L 43.665207 80.690767 
L 43.748118 80.681708 
L 43.997677 80.614266 
L 44.010114 80.325373 
L 44.010114 79.940854 
L 44.010114 79.395279 
L 44.010114 78.848698 
L 44.010114 78.303123 
L 44.009285 77.757548 
L 44.008456 77.210967 
L 44.008456 76.664386 
L 44.008456 76.118811 
L 44.008456 75.57223 
L 44.008456 75.025649 
L 44.008456 74.481081 
L 44.008456 73.934499 
L 44.008456 73.387918 
L 44.007627 72.842343 
L 44.007627 72.295762 
L 44.007627 71.749181 
L 44.007627 71.203606 
L 44.007627 70.659038 
L 44.007627 70.112457 
L 44.007627 69.565875 
L 44.006798 69.020301 
L 44.005968 68.473719 
L 44.005968 67.927138 
L 44.005968 67.381564 
L 44.005968 66.835989 
L 44.005968 66.289408 
L 44.005968 65.743833 
L 44.005139 65.197252 
L 44.005139 64.651677 
L 44.005139 64.105096 
L 44.005139 63.559521 
L 44.005139 63.01294 
L 44.00431 62.467365 
L 44.003481 61.92179 
L 44.003481 61.375209 
L 44.003481 60.829634 
L 44.003481 60.283053 
L 44.003481 59.737478 
L 44.003481 59.190897 
L 44.002652 58.645322 
L 44.002652 58.098741 
L 44.002652 57.553166 
L 44.002652 57.007592 
L 44.002652 56.46101 
L 44.001823 55.914429 
L 44.000994 55.368855 
L 44.000994 54.822273 
L 44.000994 54.276699 
L 44.000994 53.731124 
L 44.000994 53.311222 
L 44.000994 53.185549 
L 44.000994 52.638968 
L 44.000994 52.092387 
L 44.000994 51.546812 
L 44.000165 51.000231 
L 44.000165 50.454656 
L 44.000165 49.909081 
L 44.000165 49.3625 
L 44.000165 48.815919 
L 44.000165 48.270344 
L 44.000165 47.724769 
L 43.999336 47.178188 
L 43.998507 46.632613 
L 43.998507 46.086032 
L 43.998507 45.539451 
L 43.998507 44.993876 
L 43.996019 44.872078 
M 116.189711 85.354324 
L 115.748628 84.872164 
L 115.426107 84.265187 
L 115.323299 84.132317 
L 115.212368 84.029327 
L 115.210541 84.027631 
L 115.089492 83.949116 
L 114.963066 83.898273 
L 114.956835 83.895767 
L 114.706446 83.84745 
L 114.640118 83.793094 
L 114.40714 83.323014 
L 114.288579 83.216315 
L 113.932894 83.206249 
L 113.848325 83.069352 
L 113.790288 82.669734 
L 113.741371 82.478481 
L 113.66841 82.317425 
L 113.561456 82.179522 
L 113.40973 82.059737 
L 113.290339 82.075843 
L 112.833504 82.408019 
L 112.674316 82.449289 
L 111.557515 82.52881 
L 111.393352 82.602292 
L 111.237481 82.769387 
L 111.020256 83.169005 
L 110.866043 83.318988 
L 110.704368 83.385423 
L 110.518649 83.411595 
L 110.333759 83.390456 
L 110.172084 83.313955 
L 110.071051 83.324795 
L 109.637313 83.371331 
L 109.564352 83.341133 
L 109.484758 83.461924 
L 109.377804 83.603854 
L 109.156434 83.952136 
L 109.130732 84.008506 
L 108.775047 84.414164 
L 108.471595 84.845993 
L 108.437602 84.923501 
L 108.440089 84.998995 
L 108.43014 85.056371 
L 108.358837 85.078516 
L 108.140783 85.078516 
L 108.050411 85.029193 
L 107.975792 84.926521 
L 107.880445 84.832907 
L 107.729548 84.812775 
L 107.612645 84.884244 
L 107.547975 85.013088 
L 107.4974 85.167097 
L 107.42278 85.31406 
L 107.208872 85.416733 
L 106.295201 85.350297 
L 106.354067 85.514372 
L 106.268255 85.589867 
L 106.141817 85.63617 
L 106.076318 85.713678 
L 106.075489 85.848562 
L 106.067198 85.927076 
L 106.048543 85.979419 
L 106.030717 86.010624 
L 106.022011 86.040822 
L 106.021597 86.11229 
L 106.008331 86.152554 
L 105.975996 86.149534 
L 105.937858 86.136448 
L 105.907181 86.148527 
L 105.752139 86.38709 
L 105.65389 86.499829 
L 105.553983 86.547139 
L 105.426716 86.584383 
L 105.463611 86.67397 
L 105.563932 86.783689 
L 105.633577 86.880322 
L 105.582587 86.890388 
L 105.508382 86.930652 
L 105.468586 86.946757 
L 105.41345 86.880322 
L 105.359144 86.946757 
L 105.389082 87.126946 
L 105.398112 87.181294 
L 105.216538 87.543669 
L 104.757216 88.143599 
L 104.699178 88.177824 
L 104.617097 88.211041 
L 104.53626 88.262378 
L 104.482783 88.348945 
L 104.478637 88.442558 
L 104.528798 88.669042 
L 104.542063 88.781781 
L 104.462055 88.854256 
L 104.39601 88.877238 
L 104.068646 88.991153 
L 103.935575 89.08074 
L 103.911531 89.159254 
L 103.895778 89.385738 
L 103.87588 89.473312 
L 103.797944 89.58605 
L 103.723325 89.629334 
L 103.649534 89.655506 
L 103.577403 89.717914 
L 103.558333 89.785356 
L 103.590668 89.841726 
L 103.637927 89.902121 
L 103.661142 89.978623 
L 103.649534 90.102434 
L 103.618029 90.160816 
L 103.564966 90.203093 
L 103.231667 90.590633 
L 103.142953 90.742629 
L 103.10896 90.917776 
L 103.065846 90.959047 
L 102.87764 90.949987 
L 102.834527 90.985218 
L 102.818774 91.09695 
L 102.778977 91.199623 
L 102.725914 91.28619 
L 102.708331 91.30592 
L 102.671193 91.347592 
L 102.410026 91.510661 
L 102.239231 91.587162 
L 102.013715 91.636485 
L 101.87028 91.720033 
L 101.789028 91.752244 
L 101.553563 91.778415 
L 101.327218 91.875048 
L 101.284105 91.906253 
L 101.024596 92.197159 
L 100.988115 92.224337 
L 100.922616 92.194139 
L 100.901889 92.133743 
L 100.877016 92.083414 
L 100.798251 92.085427 
L 100.755137 92.126697 
L 100.693784 92.283726 
L 100.639063 92.357208 
L 100.563615 92.241449 
L 100.479046 92.241449 
L 100.418522 92.333049 
L 100.415205 92.490078 
L 100.316542 92.731661 
L 100.381212 92.764879 
L 100.496043 92.863525 
L 100.601339 92.925934 
L 100.708293 93.026593 
L 100.9421 93.40004 
L 101.010501 93.54499 
L 101.010501 93.545997 
L 101.01133 93.545997 
L 101.673835 95.215081 
L 101.894324 95.770572 
L 102.047708 95.960819 
L 102.432412 96.304068 
L 102.546828 96.500354 
L 102.655441 96.962381 
L 102.709332 97.099278 
L 102.80841 97.26134 
L 102.882615 97.292545 
L 102.982107 97.26738 
L 103.160364 97.26738 
L 103.283071 97.303617 
L 103.35852 97.369046 
L 103.351887 97.465679 
L 103.231667 97.594523 
L 103.056312 98.053531 
L 103.071235 98.332358 
L 103.249907 98.856794 
L 103.236641 99.00879 
L 103.323697 99.019862 
L 103.329248 99.021517 
L 103.489103 99.069185 
L 103.57077 99.082271 
L 103.627149 99.072205 
L 103.797115 98.997717 
L 103.92604 98.99973 
L 103.984492 99.063146 
L 104.043358 99.301709 
L 104.129585 99.449678 
L 104.255608 99.560404 
L 104.548282 99.702334 
L 104.57793 99.811393 
L 104.603832 99.906673 
L 104.813595 100.124097 
L 105.006775 100.410977 
L 105.033307 100.497544 
L 105.037452 100.585118 
L 105.050718 100.672692 
L 105.101293 100.755233 
L 105.590049 101.146798 
L 106.023255 101.665195 
L 106.264524 101.82625 
L 106.543932 101.91785 
L 106.880547 101.96516 
L 106.96097 101.951068 
L 107.114354 101.871547 
L 107.183999 101.859468 
L 107.276858 101.892685 
L 107.344845 101.949055 
L 107.407856 102.01549 
L 107.484134 102.078905 
L 107.644151 102.163459 
L 107.812459 102.220835 
L 108.760123 102.307403 
L 108.953304 102.395983 
L 108.954962 102.205736 
L 108.935063 102.049714 
L 108.929674 101.891679 
L 108.975689 101.695393 
L 109.027508 101.604799 
L 109.094251 101.554469 
L 109.162652 101.515212 
L 109.226493 101.457836 
L 109.290748 101.369256 
L 109.318109 101.309867 
L 109.454082 100.856899 
L 109.464031 100.777378 
L 109.438329 100.680745 
L 109.34464 100.509623 
L 109.327229 100.433122 
L 109.390241 100.317364 
L 110.071763 99.752664 
L 110.177888 99.6208 
L 110.234267 99.410421 
L 110.21271 99.187964 
L 110.119022 99.101396 
L 110.001289 99.04402 
L 109.913404 98.912156 
L 109.930816 98.730969 
L 110.054352 98.584006 
L 110.22266 98.476301 
L 110.369411 98.413892 
L 110.605291 98.377654 
L 110.682812 98.341417 
L 110.738361 98.283034 
L 110.837854 98.130032 
L 110.912473 98.070643 
L 111.038082 97.937772 
L 111.173923 97.666924 
L 111.242041 97.531108 
L 111.400814 97.384145 
L 111.593995 97.351934 
L 111.981186 97.411323 
L 112.179342 97.336835 
L 112.527565 97.11639 
L 112.657734 97.083173 
L 112.792049 97.099278 
L 113.181727 97.25832 
L 113.452843 97.260333 
L 114.173333 96.971441 
L 114.703959 96.850649 
L 115.22049 96.626178 
L 116.15323 95.978938 
L 116.470005 95.771124 
L 117.098407 95.358875 
L 117.196241 95.312571 
L 117.408492 95.246136 
L 117.500522 95.19782 
L 117.551926 95.114272 
L 117.532857 95.018646 
L 117.444972 94.831419 
L 117.427561 94.694522 
L 117.432536 94.607955 
L 117.41015 94.5385 
L 117.308999 94.454952 
L 117.192096 94.280811 
L 117.196241 94.047281 
L 117.244329 93.789593 
L 117.25467 93.572583 
L 117.255937 93.545997 
L 117.40559 93.255091 
L 117.507155 92.979283 
L 117.637324 92.735687 
L 117.870302 92.540408 
L 118.487983 92.338082 
L 118.578355 92.216284 
L 118.576697 92.055229 
L 118.589134 91.903233 
L 118.720132 91.807606 
L 118.605716 91.656617 
L 118.55058 91.424094 
L 118.551029 91.385543 
L 118.553482 91.174458 
L 118.611519 90.970119 
L 118.780656 90.786919 
L 119.007001 90.681226 
L 119.245783 90.602712 
L 119.457204 90.504065 
L 119.548405 90.431591 
L 119.615563 90.345023 
L 119.652872 90.236311 
L 119.647483 90.095388 
L 119.662407 89.942385 
L 119.810816 89.716908 
L 119.840249 89.574978 
L 119.815376 89.518609 
L 119.708422 89.40587 
L 119.672771 89.346481 
L 119.66448 89.276019 
L 119.671942 89.127043 
L 119.66448 89.067654 
L 119.583228 88.857275 
L 119.35937 88.534158 
L 119.271485 88.190909 
L 119.210961 88.025828 
L 119.10069 87.893964 
L 118.975081 87.792298 
L 118.885123 87.675533 
L 118.844497 87.114859 
L 118.600741 87.006147 
L 118.279878 86.997087 
L 118.015395 86.911527 
L 117.353771 86.166646 
L 117.07768 86.031762 
L 116.896935 85.980426 
L 116.79081 85.902918 
L 116.74438 85.779107 
L 116.741893 85.587854 
L 116.668518 85.490214 
L 116.49565 85.40264 
L 116.306614 85.347277 
L 116.189711 85.354324 
" clip-path="url(#p6da0a0d5c7)" style="fill: #f5f5f5; stroke: #000000"/>
    <path d="M 185.834 259.879685 
L 186.093829 259.816278 
L 186.364104 259.847981 
L 187.106379 260.031863 
L 187.48633 260.401213 
L 187.705683 260.477302 
L 187.618856 260.735688 
L 187.449118 260.973466 
L 187.229765 261.147044 
L 186.989521 261.216 
L 186.922279 261.204111 
L 186.785836 261.154178 
L 185.89602 261.120889 
L 185.774592 261.143081 
L 185.48408 261.105037 
L 185.349595 261.049555 
L 185.232085 260.949688 
L 185.192915 260.875184 
L 185.14591 260.738858 
L 185.135465 260.609665 
L 185.2817 260.497909 
L 185.456661 260.271227 
L 185.53239 260.218916 
L 185.582658 260.172153 
L 185.753048 259.953397 
L 185.834 259.879685 
" clip-path="url(#p6da0a0d5c7)" style="fill: #f5f5f5; stroke: #000000"/>
    <path d="M 187.427574 258.005991 
L 187.458258 257.791991 
L 187.742895 257.650909 
L 188.105219 257.637435 
L 188.363742 257.806257 
L 188.352644 258.089214 
L 188.049728 258.183532 
L 187.668471 258.137562 
L 187.427574 258.005991 
" clip-path="url(#p6da0a0d5c7)" style="fill: #f5f5f5; stroke: #000000"/>
   </g>
  </g>
 </g>
 <defs>
  <clipPath id="p6da0a0d5c7">
   <rect x="7.2" y="7.2" width="189.790587" height="266.112"/>
  </clipPath>
 </defs>
</svg>
