<?xml version="1.0" encoding="utf-8" standalone="no"?>
<!DOCTYPE svg PUBLIC "-//W3C//DTD SVG 1.1//EN"
  "http://www.w3.org/Graphics/SVG/1.1/DTD/svg11.dtd">
<svg xmlns:xlink="http://www.w3.org/1999/xlink" width="304.861502pt" height="280.512pt" viewBox="0 0 304.861502 280.512" xmlns="http://www.w3.org/2000/svg" version="1.1">
 <metadata>
  <rdf:RDF xmlns:dc="http://purl.org/dc/elements/1.1/" xmlns:cc="http://creativecommons.org/ns#" xmlns:rdf="http://www.w3.org/1999/02/22-rdf-syntax-ns#">
   <cc:Work>
    <dc:type rdf:resource="http://purl.org/dc/dcmitype/StillImage"/>
    <dc:date>2024-03-04T13:11:13.142763</dc:date>
    <dc:format>image/svg+xml</dc:format>
    <dc:creator>
     <cc:Agent>
      <dc:title>Matplotlib v3.8.0, https://matplotlib.org/</dc:title>
     </cc:Agent>
    </dc:creator>
   </cc:Work>
  </rdf:RDF>
 </metadata>
 <defs>
  <style type="text/css">*{stroke-linejoin: round; stroke-linecap: butt}</style>
 </defs>
 <g id="figure_1">
  <g id="patch_1">
   <path d="M 0 280.512 
L 304.861502 280.512 
L 304.861502 0 
L 0 0 
z
" style="fill: #ffffff"/>
  </g>
  <g id="axes_1">
   <g id="PatchCollection_1">
    <path d="M 95.895124 55.081181 
L 96.585789 54.301039 
L 97.139398 52.859543 
L 96.947391 49.936585 
L 97.758713 49.634531 
L 98.010957 49.539267 
L 99.942318 48.038289 
L 103.133016 43.29371 
L 103.507617 42.919627 
L 104.819662 41.936789 
L 104.966491 41.822937 
L 105.704399 40.993449 
L 105.971702 40.703012 
L 107.219745 37.680144 
L 107.526579 37.306061 
L 108.100348 36.845455 
L 109.260286 35.914287 
L 111.334711 34.652629 
L 113.444901 33.823141 
L 115.42144 33.614026 
L 116.417239 33.720907 
L 116.567832 33.734848 
L 120.904923 33.366574 
L 124.361042 34.379618 
L 125.757797 34.259958 
L 125.91592 34.240209 
L 128.054346 33.614026 
L 134.113849 33.09821 
L 134.206088 33.228326 
L 134.800932 33.8092 
L 135.160474 34.164695 
L 136.118624 34.405177 
L 136.463107 34.487661 
L 139.025078 33.96836 
L 142.754147 34.177474 
L 145.538244 33.961389 
L 148.414578 32.966933 
L 151.095141 31.288207 
L 153.308865 29.034416 
L 154.255721 27.728611 
L 154.336665 27.60779 
L 155.102809 26.25203 
L 155.215754 26.048724 
L 155.769185 24.433894 
L 155.872718 24.136487 
L 156.068489 22.205662 
L 156.10802 21.766521 
L 155.835069 20.400305 
L 155.863306 20.379394 
L 157.792784 19.410496 
L 158.139372 19.296 
L 159.838083 22.545404 
L 160.176028 23.970603 
L 161.041644 26.129442 
L 164.258059 32.294939 
L 166.765973 38.769626 
L 167.175066 39.473993 
L 168.482383 41.047383 
L 168.983373 42.3683 
L 175.054541 50.828021 
L 177.411269 54.17605 
L 180.233413 57.231356 
L 180.633612 57.551522 
L 182.524924 59.726827 
L 182.62275 60.645248 
L 182.631643 61.750281 
L 182.856941 62.686997 
L 184.146471 63.389535 
L 184.51999 64.143299 
L 185.584223 67.538896 
L 186.058533 68.325591 
L 186.627705 68.660394 
L 187.10498 69.145218 
L 188.7621 72.343227 
L 189.758151 73.572667 
L 190.102026 74.249591 
L 190.235426 74.966764 
L 190.487403 75.661984 
L 192.245314 77.56286 
L 192.805593 79.121614 
L 193.303619 82.526359 
L 193.988404 84.399792 
L 195.855999 86.964785 
L 195.998292 87.502665 
L 195.784853 88.02225 
L 195.446907 88.518051 
L 195.233467 89.002875 
L 195.218645 89.438302 
L 195.48248 90.845206 
L 195.80264 94.862842 
L 196.140585 96.717979 
L 197.350076 100.506924 
L 197.447902 102.362062 
L 197.068454 104.078156 
L 196.247305 105.63691 
L 195.580307 107.486559 
L 195.5892 107.56157 
L 195.77596 109.32889 
L 196.273985 111.173051 
L 196.472602 113.031848 
L 196.247305 116.87019 
L 196.024972 117.695305 
L 194.898486 119.050983 
L 194.459749 119.813894 
L 194.267061 120.703043 
L 194.11291 126.13673 
L 194.237416 126.874029 
L 194.459749 127.283842 
L 194.702833 127.448499 
L 194.898486 127.67536 
L 195.108961 129.204843 
L 195.378725 130.375738 
L 195.672204 130.580645 
L 195.867857 130.833119 
L 195.731493 131.535657 
L 195.438014 131.930834 
L 195.058566 132.113786 
L 194.699869 132.230876 
L 194.092796 132.731591 
L 194.05914 133.347027 
L 194.82696 134.058636 
L 195.378595 134.676751 
L 195.960366 135.38738 
L 196.699103 135.51419 
L 197.634662 134.781233 
L 199.949888 132.249171 
L 200.395117 131.50397 
L 200.996334 131.982061 
L 201.129734 132.75412 
L 201.38764 133.557281 
L 201.577364 134.451918 
L 201.008868 135.34167 
L 199.695521 137.953478 
L 199.595329 139.123522 
L 199.205387 142.201678 
L 198.261279 144.875964 
L 198.313518 146.548733 
L 197.347303 149.455457 
L 196.635148 150.868176 
L 196.324706 151.574637 
L 196.627865 152.377067 
L 196.963508 152.77944 
L 197.207032 153.212277 
L 197.069074 154.191747 
L 196.991243 155.352765 
L 196.745331 157.097771 
L 196.374776 157.836898 
L 195.77596 158.649207 
L 195.224574 158.949249 
L 194.984455 158.157065 
L 194.771015 157.125213 
L 194.29967 156.351325 
L 193.792751 156.219599 
L 193.490378 157.097771 
L 193.988404 157.213031 
L 194.284847 157.591742 
L 194.42714 158.146088 
L 194.459749 158.784592 
L 194.29967 159.388335 
L 193.926151 159.529208 
L 193.508165 159.567628 
L 193.21765 159.860352 
L 193.27101 160.182349 
L 193.317659 161.018265 
L 193.466203 161.880914 
L 193.126725 162.433874 
L 192.818019 162.986877 
L 193.12191 163.418751 
L 193.365397 163.665841 
L 193.315476 164.276824 
L 192.566226 164.524515 
L 191.860933 164.952951 
L 190.848505 165.964442 
L 189.991949 165.932184 
L 189.806926 166.576896 
L 189.744049 167.405951 
L 189.528547 167.836117 
L 189.282679 168.204528 
L 189.488387 168.817703 
L 189.500245 169.070178 
L 189.088005 169.913536 
L 188.508403 171.158431 
L 187.860497 171.946585 
L 187.510488 172.682767 
L 187.265059 173.182948 
L 186.702226 173.171537 
L 186.286386 173.153064 
L 185.773947 173.237834 
L 185.397464 173.21588 
L 185.001413 173.395944 
L 184.566204 173.447639 
L 184.531215 174.079339 
L 184.822044 174.51737 
L 184.870152 175.042399 
L 184.683241 175.640511 
L 183.867572 176.025808 
L 183.207812 175.445405 
L 182.808269 175.111218 
L 182.511111 174.74119 
L 181.556243 175.775903 
L 181.121394 176.600153 
L 180.981958 177.47778 
L 180.686601 177.688016 
L 180.511877 177.246162 
L 180.077266 176.769848 
L 180.113278 177.194603 
L 180.200222 178.108741 
L 179.922226 178.108173 
L 179.799668 177.805515 
L 179.643254 177.734036 
L 179.269971 177.987279 
L 178.91519 178.21221 
L 178.671958 177.909242 
L 178.377373 176.896421 
L 178.499156 175.984194 
L 178.777362 174.826279 
L 178.829697 174.177411 
L 178.656022 174.019553 
L 178.325779 174.510642 
L 177.213865 176.493151 
L 176.710201 176.528375 
L 176.675319 175.616026 
L 176.709946 174.75635 
L 176.467331 174.720587 
L 176.151383 175.433263 
L 175.893987 176.511014 
L 174.991193 176.405878 
L 172.592584 176.44499 
L 172.45481 175.619238 
L 172.210882 175.181145 
L 171.879812 176.428802 
L 171.514907 176.605093 
L 170.666835 176.21863 
L 170.269938 175.466195 
L 169.834166 175.414968 
L 169.273887 175.852224 
L 169.273887 173.885486 
L 169.122701 173.722658 
L 168.811435 173.852554 
L 168.5476 174.266027 
L 168.526849 174.961246 
L 167.948784 174.503865 
L 167.498189 173.845236 
L 167.000164 173.437252 
L 166.267948 173.733635 
L 166.428027 173.09879 
L 166.125655 172.196835 
L 166.267948 171.862032 
L 165.903322 170.680159 
L 165.689882 170.555752 
L 165.271897 170.939952 
L 164.818338 171.660784 
L 164.809444 172.141949 
L 165.271897 173.117086 
L 165.529803 174.306276 
L 165.680989 174.723408 
L 165.992255 175.264947 
L 166.599965 176.093722 
L 166.688898 176.510853 
L 166.51696 177.109108 
L 166.804511 177.149357 
L 167.255105 177.346946 
L 167.513011 177.416468 
L 167.192852 177.632352 
L 166.872693 177.718339 
L 166.134548 177.720169 
L 165.746207 177.628693 
L 165.636522 177.390854 
L 165.618736 177.090812 
L 165.497194 176.801748 
L 165.14739 176.428525 
L 164.898378 176.223618 
L 162.932955 175.52291 
L 162.38157 175.488149 
L 161.175044 175.720499 
L 160.845991 175.885156 
L 160.869707 176.201664 
L 161.290657 176.801748 
L 160.614765 176.938962 
L 159.366737 177.575636 
L 157.934914 177.970814 
L 157.748154 178.539796 
L 157.677008 179.158175 
L 157.288666 179.564329 
L 157.288666 179.86986 
L 160.923067 177.915928 
L 161.53967 177.873849 
L 161.664176 178.664203 
L 161.883545 179.244163 
L 161.957655 179.760088 
L 161.664176 180.358343 
L 161.198759 180.621794 
L 160.487294 180.742543 
L 159.775829 180.709612 
L 159.304484 180.512023 
L 159.058435 180.951109 
L 159.227408 181.163334 
L 159.556461 181.357263 
L 159.802509 181.741463 
L 159.838083 181.975642 
L 159.84994 182.312275 
L 159.802509 183.248991 
L 159.529781 185.089493 
L 159.864763 185.413319 
L 160.184922 185.305377 
L 160.436899 184.94679 
L 160.549548 184.504045 
L 161.041644 185.089493 
L 160.534725 186.011573 
L 159.61575 187.226377 
L 158.800374 187.475079 
L 157.705859 187.400685 
L 157.724575 186.71286 
L 158.42701 186.703133 
L 158.726418 186.648248 
L 158.907249 186.346376 
L 156.645383 186.088413 
L 156.174038 185.898143 
L 155.652297 185.162674 
L 155.578186 184.79311 
L 155.951705 184.555272 
L 156.790641 184.225957 
L 155.963563 182.542795 
L 155.367711 183.13922 
L 154.768894 184.310115 
L 153.92403 184.365001 
L 153.153276 183.314854 
L 152.750112 183.053232 
L 151.923034 182.967245 
L 151.558408 183.190447 
L 151.356827 183.733815 
L 151.282716 184.423546 
L 151.300502 185.089493 
L 150.529748 184.957767 
L 148.837055 185.034607 
L 148.170056 184.657725 
L 148.092981 184.414398 
L 148.084087 183.75577 
L 148.04555 183.581965 
L 147.876577 183.538056 
L 147.470449 183.613067 
L 146.945743 183.490489 
L 146.089021 183.415478 
L 145.786648 183.248991 
L 145.617675 182.888575 
L 145.635462 182.535477 
L 145.72736 182.197015 
L 145.786648 181.895143 
L 145.72736 178.563579 
L 145.786648 178.027529 
L 145.893368 177.778714 
L 146.080128 177.449399 
L 146.240207 177.017631 
L 146.284674 176.466945 
L 145.715502 177.156675 
L 145.247121 177.961666 
L 144.669055 178.565409 
L 143.794546 178.642249 
L 144.461545 180.233935 
L 144.007986 180.544954 
L 143.020828 180.523 
L 142.078137 181.126743 
L 141.695724 180.047324 
L 141.464498 179.606408 
L 141.055406 179.286242 
L 140.948686 180.735225 
L 140.55738 181.880507 
L 139.79552 182.572067 
L 138.823184 182.659884 
L 138.434843 182.504375 
L 138.088004 182.414728 
L 137.800453 182.44766 
L 137.578121 182.659884 
L 137.035629 182.206162 
L 136.656181 182.10188 
L 136.416061 182.034187 
L 134.939771 182.048823 
L 134.447675 181.964665 
L 134.252022 181.735975 
L 134.163089 181.393854 
L 133.949649 180.958427 
L 133.531663 180.621794 
L 133.433837 180.967574 
L 133.49609 181.505455 
L 133.57613 181.741463 
L 133.312295 182.570238 
L 133.167037 182.853814 
L 132.829092 183.248991 
L 131.450628 184.365001 
L 130.685803 184.710781 
L 130.137382 184.233275 
L 129.449633 182.813564 
L 128.880461 182.583044 
L 128.483226 183.157515 
L 128.287573 184.057641 
L 128.329075 184.809576 
L 128.667021 185.605419 
L 129.230264 186.633611 
L 129.876512 187.530078 
L 130.454577 187.90696 
L 130.863669 188.44484 
L 131.246082 188.631452 
L 131.699641 188.342387 
L 132.829092 187.266627 
L 133.611703 187.160514 
L 134.278702 187.29224 
L 134.901233 187.33249 
L 135.586019 186.961096 
L 135.544516 187.848415 
L 135.425939 188.477772 
L 135.064278 189.749291 
L 134.646292 191.994118 
L 134.343919 192.513703 
L 133.063282 192.949129 
L 132.049444 192.433203 
L 131.237189 192.257569 
L 130.57019 193.743143 
L 130.356751 193.60044 
L 130.303391 193.613247 
L 130.252995 193.695575 
L 130.072165 193.743143 
L 130.356751 194.335909 
L 130.57019 194.968924 
L 130.83699 196.977742 
L 130.670981 197.350965 
L 130.294497 197.13874 
L 129.698645 196.502066 
L 128.827101 196.392294 
L 128.177889 196.028219 
L 127.759903 195.364101 
L 127.582037 194.357863 
L 127.80437 193.40651 
L 128.27868 192.469794 
L 128.622555 191.584304 
L 128.453582 190.825052 
L 128.160102 190.402431 
L 127.582037 189.134571 
L 127.430851 189.035777 
L 127.226305 189.030288 
L 127.012865 188.997357 
L 126.834999 188.803427 
L 126.817212 188.572907 
L 126.879465 188.302137 
L 126.986185 188.130162 
L 126.4348 186.951949 
L 126.339938 186.512863 
L 126.372546 186.247582 
L 126.532626 185.808496 
L 126.568199 185.577976 
L 126.48816 185.325501 
L 126.319187 185.127913 
L 126.150214 185.071198 
L 126.070174 185.257809 
L 125.945667 185.358433 
L 125.323136 186.961096 
L 125.083016 187.301388 
L 124.95851 187.389205 
L 124.77175 187.411159 
L 123.529651 187.855734 
L 122.806328 187.94721 
L 121.232212 187.90696 
L 120.639324 188.086254 
L 121.119563 188.486919 
L 122.05929 188.904051 
L 122.833008 189.134571 
L 122.833008 189.418147 
L 121.285572 189.919437 
L 120.50296 190.365841 
L 120.36956 190.978732 
L 120.680826 191.236695 
L 121.365611 190.956777 
L 121.730237 191.115946 
L 121.988143 191.544055 
L 121.911068 191.701394 
L 121.715415 191.75262 
L 121.614624 191.873369 
L 122.121543 193.662644 
L 123.173918 194.621315 
L 124.312262 195.364101 
L 125.091909 196.502066 
L 124.71839 196.443521 
L 124.078072 196.439862 
L 123.805344 196.502066 
L 125.370567 197.114956 
L 125.572747 197.612804 
L 125.675849 198.549779 
L 125.342556 198.889163 
L 124.967403 199.213421 
L 124.255938 199.17866 
L 123.805344 199.29392 
L 122.148223 198.243773 
L 121.614624 198.068138 
L 121.143279 198.159615 
L 120.55632 198.434043 
L 120.058294 198.796289 
L 119.847819 199.14024 
L 119.933788 199.282942 
L 120.36956 200.216 
L 120.880254 200.329904 
L 121.188713 200.53802 
L 122.573316 200.170422 
L 123.331033 200.827061 
L 121.603243 202.441057 
L 120.989555 203.328751 
L 120.322119 203.017244 
L 119.272414 203.828153 
L 119.382403 204.612347 
L 119.847819 205.128273 
L 118.839798 205.133341 
L 117.351984 203.130164 
L 116.838915 202.056501 
L 115.472309 200.550803 
L 115.054324 200.647768 
L 113.610643 201.416168 
L 113.7559 201.877208 
L 113.859655 202.056501 
L 113.266768 201.847936 
L 112.694631 201.734505 
L 112.205499 201.472883 
L 111.867553 200.827061 
L 111.823087 200.166603 
L 112.054313 199.782403 
L 112.863604 199.29392 
L 113.124475 199.057911 
L 113.859655 198.068138 
L 114.313214 197.09849 
L 114.574085 196.765517 
L 115.104719 196.502066 
L 115.069146 197.252171 
L 114.89128 197.980321 
L 114.357681 199.29392 
L 115.424878 199.222568 
L 116.317174 198.891424 
L 116.850773 198.141319 
L 116.838915 196.813085 
L 116.625476 196.2935 
L 116.343854 195.997117 
L 116.12745 195.649507 
L 116.094841 194.968924 
L 116.290494 194.612167 
L 117.339905 193.432124 
L 117.719353 193.635201 
L 117.968366 193.90963 
L 118.030619 194.260898 
L 117.837931 194.689007 
L 118.057299 195.276284 
L 118.368565 195.686098 
L 118.786551 195.825142 
L 119.349794 195.611087 
L 119.586949 195.298239 
L 120.084974 194.211501 
L 120.36956 193.743143 
L 119.862642 192.976572 
L 119.666989 192.17524 
L 119.409083 191.812995 
L 118.718369 192.360022 
L 117.923899 192.702143 
L 117.265794 192.144139 
L 116.36757 190.671372 
L 115.851757 191.494657 
L 115.116577 193.413828 
L 114.606694 194.046844 
L 114.081988 194.262728 
L 113.637323 194.238944 
L 112.724276 194.046844 
L 112.294432 194.200524 
L 111.894233 194.573747 
L 111.236128 195.457407 
L 110.942649 195.709882 
L 109.608652 196.502066 
L 108.888293 197.06007 
L 108.425841 197.334499 
L 107.981176 197.453418 
L 107.705483 197.597951 
L 107.64323 197.969344 
L 107.661016 198.465145 
L 107.592834 198.990219 
L 107.352715 199.359783 
L 107.014769 199.762278 
L 106.845796 200.241613 
L 107.118524 200.827061 
L 105.108636 202.839538 
L 105.173853 204.698334 
L 104.832943 205.007524 
L 103.863572 204.513553 
L 103.543413 204.9069 
L 103.392226 205.347816 
L 103.410013 205.83081 
L 103.614559 206.355884 
L 103.143213 206.204033 
L 102.123447 205.463076 
L 100.724232 205.045944 
L 100.404073 204.848356 
L 100.119487 203.98665 
L 100.270673 201.708892 
L 100.131345 200.827061 
L 100.332927 200.265397 
L 100.28846 199.573837 
L 100.048341 198.968264 
L 99.633319 198.651757 
L 99.239049 198.767017 
L 98.841814 199.147558 
L 98.536477 199.634211 
L 98.414935 200.06232 
L 98.563157 200.684358 
L 98.794383 201.225897 
L 98.806241 201.604609 
L 97.682719 201.986979 
L 97.827977 202.535837 
L 98.643197 203.591472 
L 97.246947 204.416588 
L 96.722242 204.90873 
L 97.264734 205.128273 
L 97.38924 205.228897 
L 97.424813 205.448439 
L 97.383311 205.667982 
L 97.264734 205.766777 
L 97.042401 205.721039 
L 96.704455 205.512473 
L 96.526589 205.463076 
L 96.04635 205.536257 
L 95.948523 205.742993 
L 95.942594 206.077796 
L 95.755835 206.52237 
L 95.471249 206.718129 
L 94.392194 206.996217 
L 93.986066 207.345656 
L 93.840808 207.636551 
L 92.954441 210.673561 
L 92.88033 211.108988 
L 92.88033 211.628573 
L 91.990999 211.434643 
L 90.313128 211.998137 
L 89.892177 211.910319 
L 89.841782 211.379757 
L 90.185657 210.298508 
L 90.117475 209.788071 
L 89.785458 209.497177 
L 89.32597 209.403871 
L 88.374385 209.453268 
L 88.374385 209.173351 
L 88.567074 208.913559 
L 88.629327 208.734265 
L 88.700473 208.026239 
L 88.82498 208.002455 
L 88.988024 208.057341 
L 89.145139 207.94757 
L 89.660951 206.992558 
L 89.758778 206.533347 
L 89.619449 206.074137 
L 89.438618 205.927775 
L 89.171819 205.83264 
L 88.629327 205.766777 
L 88.238021 205.657005 
L 88.184661 205.413679 
L 88.291381 205.192306 
L 88.374385 205.128273 
L 88.389208 204.551973 
L 88.525572 203.997627 
L 88.460354 203.701244 
L 87.87636 203.898832 
L 88.036439 202.813924 
L 88.762727 202.268726 
L 89.732098 202.078456 
L 90.639216 202.056501 
L 90.473207 201.708892 
L 90.24791 201.441781 
L 89.963324 201.25517 
L 89.619449 201.134421 
L 90.19455 200.724608 
L 90.550283 200.245272 
L 90.56214 199.824482 
L 90.117475 199.573837 
L 89.954431 199.6397 
L 89.625378 200.056831 
L 89.394152 200.216 
L 89.091779 200.212341 
L 88.620434 199.915958 
L 88.374385 199.90864 
L 88.152052 200.113547 
L 88.000866 200.420907 
L 87.87636 200.827061 
L 87.553236 200.900242 
L 87.24197 200.889265 
L 86.886238 200.827061 
L 86.106591 200.841697 
L 85.679712 200.918537 
L 85.143148 201.134421 
L 85.074966 200.420907 
L 84.7637 200.007434 
L 83.898085 199.573837 
L 83.909942 199.431134 
L 83.729112 199.068888 
L 83.509743 198.851175 
L 83.400059 199.14024 
L 83.293339 199.312215 
L 83.035433 199.464065 
L 82.741954 199.52444 
L 82.510728 199.432964 
L 81.754796 198.697495 
L 81.659934 198.651757 
L 81.535428 198.199864 
L 81.597681 198.069968 
L 81.745903 198.009594 
L 81.888196 197.760778 
L 82.033453 197.971174 
L 82.398079 197.976662 
L 82.661914 197.760778 
L 82.510728 197.299738 
L 81.535428 196.813085 
L 80.779496 196.249591 
L 80.717243 194.954288 
L 81.034438 193.514452 
L 81.41685 192.513703 
L 81.455388 192.173411 
L 81.425744 191.756279 
L 81.479103 191.405011 
L 81.775547 191.258649 
L 82.048275 191.286092 
L 82.332861 191.36842 
L 82.546301 191.516612 
L 82.78642 192.052662 
L 83.898085 193.743143 
L 83.551245 194.207842 
L 83.444526 194.657905 
L 83.506779 195.117116 
L 83.625356 195.611087 
L 84.378323 197.760778 
L 84.831882 198.037036 
L 86.637225 198.344397 
L 87.410943 198.887765 
L 87.828929 198.849345 
L 88.125373 198.068138 
L 87.71628 198.130342 
L 87.499876 198.020571 
L 86.750213 197.85461 
L 86.39695 197.293215 
L 85.933133 196.821366 
L 86.062124 195.788551 
L 85.581075 195.877976 
L 85.34857 196.513907 
L 84.970265 196.548475 
L 84.741542 195.709021 
L 84.62937 194.586552 
L 84.906359 193.946799 
L 84.696303 193.160704 
L 85.692822 193.060625 
L 87.219539 193.399167 
L 87.418255 193.758629 
L 87.32201 194.343227 
L 87.330903 194.52435 
L 87.316081 194.698155 
L 87.40205 194.968924 
L 87.78142 195.218218 
L 88.00204 195.521581 
L 88.476949 195.836518 
L 89.130657 196.099607 
L 89.52581 196.48915 
L 90.033335 196.860204 
L 90.418929 197.117599 
L 90.576962 196.919197 
L 89.814242 195.894973 
L 90.267566 195.794852 
L 90.940801 196.189017 
L 91.80903 196.670954 
L 92.859163 197.011719 
L 93.62144 196.813085 
L 92.853651 196.681359 
L 92.231119 196.280693 
L 91.137241 195.303727 
L 91.404041 194.968924 
L 90.6155 194.383476 
L 89.423796 192.83204 
L 88.762727 192.513703 
L 87.855609 192.328921 
L 86.778273 192.399795 
L 86.035444 191.909959 
L 85.117607 192.161852 
L 84.275464 191.880074 
L 84.164615 191.453125 
L 84.68552 190.790937 
L 85.195918 190.578726 
L 86.281425 190.750657 
L 87.666405 190.12245 
L 89.331899 191.36842 
L 89.892177 191.258649 
L 90.03447 191.357443 
L 90.123404 191.448919 
L 90.22123 191.527589 
L 90.390203 191.593452 
L 90.230123 190.728087 
L 90.30127 189.937732 
L 90.737042 189.359603 
L 91.629338 189.134571 
L 93.298316 189.641349 
L 94.152074 189.705383 
L 93.894168 189.134571 
L 94.457411 188.847336 
L 94.759784 188.783302 
L 95.139232 188.803427 
L 94.59674 188.170412 
L 93.769662 188.016732 
L 91.878351 188.188707 
L 92.020644 187.75328 
L 91.973213 187.456897 
L 91.878351 187.149537 
L 91.878351 186.681179 
L 92.01175 186.384796 
L 92.204439 186.165253 
L 92.364518 185.890824 
L 92.376376 185.424296 
L 92.082897 184.760178 
L 91.581907 184.606498 
L 91.039415 184.864461 
L 90.639216 185.424296 
L 90.594749 185.797519 
L 90.834869 186.554942 
L 90.888228 186.961096 
L 90.825975 187.02147 
L 90.390203 187.90696 
L 89.981111 189.440102 
L 89.601662 189.963346 
L 88.87834 190.029208 
L 88.87834 189.924926 
L 88.650078 189.749291 
L 88.7983 189.509624 
L 88.993953 189.041265 
L 89.145139 188.803427 
L 88.650078 188.547294 
L 88.318061 188.697315 
L 87.997902 188.982721 
L 87.517663 189.134571 
L 86.548292 188.915028 
L 86.23999 189.06322 
L 86.179065 189.527473 
L 85.679712 189.518771 
L 84.894136 189.782223 
L 84.511723 189.584634 
L 84.387217 189.107128 
L 84.648087 188.660724 
L 85.392161 187.90696 
L 85.661925 187.493488 
L 85.813111 187.167832 
L 85.875364 186.862302 
L 85.890187 186.512863 
L 85.79236 185.841427 
L 85.916867 185.510283 
L 86.388212 185.089493 
L 85.934653 184.727247 
L 85.537419 183.975312 
L 85.321015 183.095311 
L 85.392161 182.356183 
L 85.89908 181.884166 
L 86.586829 181.40666 
L 86.800269 181.011483 
L 85.890187 180.79194 
L 85.475165 180.86878 
L 85.232081 181.082835 
L 85.036429 181.306036 
L 84.760736 181.40666 
L 84.405003 181.591442 
L 84.458363 182.030528 
L 84.636229 182.546454 
L 84.648087 182.967245 
L 84.138204 183.437432 
L 83.480099 183.48317 
L 82.842745 183.272775 
L 82.386221 182.967245 
L 82.733061 182.725747 
L 82.884247 182.659884 
L 82.564088 182.427535 
L 82.291359 182.147618 
L 82.066062 181.812815 
L 81.888196 181.40666 
L 82.306182 181.188947 
L 82.715274 181.210901 
L 83.625356 181.40666 
L 83.515672 180.440671 
L 84.532474 179.417967 
L 84.26271 178.475762 
L 83.225157 177.021291 
L 82.584839 176.428525 
L 81.888196 176.187027 
L 82.175746 177.196925 
L 81.923769 177.775055 
L 81.407957 177.79335 
L 80.892145 177.109108 
L 81.233055 176.629772 
L 80.296293 175.37106 
L 80.165858 174.624614 
L 80.690563 174.008064 
L 81.434637 173.90744 
L 82.095706 174.249561 
L 82.386221 174.961246 
L 82.848674 174.661204 
L 83.10658 174.145278 
L 83.400059 173.117086 
L 83.657965 173.629352 
L 83.705396 174.06112 
L 83.60757 174.891724 
L 83.444526 175.312515 
L 83.400059 175.572307 
L 83.471206 175.839418 
L 83.616463 175.839418 
L 83.785436 175.775384 
L 83.898085 175.852224 
L 84.043342 176.44499 
L 84.078915 176.699294 
L 84.212315 176.845656 
L 84.648087 177.109108 
L 85.000855 177.235345 
L 85.614494 177.257299 
L 85.890187 177.416468 
L 85.679712 177.928735 
L 85.739 178.422706 
L 85.999871 178.881917 
L 86.388212 179.286242 
L 87.307188 177.180459 
L 87.40205 176.466945 
L 87.384263 175.665613 
L 87.206397 175.378378 
L 86.521612 175.204573 
L 86.231097 175.039916 
L 85.990977 174.79293 
L 85.617458 173.783032 
L 84.42279 172.372469 
L 84.147097 171.722988 
L 84.227137 171.503445 
L 84.39611 171.318663 
L 84.568047 171.075336 
L 84.648087 170.660034 
L 84.26271 170.385606 
L 84.075951 170.028849 
L 84.147097 169.40681 
L 83.678716 169.593422 
L 83.195513 169.672091 
L 82.15796 169.684898 
L 82.564088 169.17812 
L 83.231086 169.02261 
L 83.987018 168.980531 
L 84.648087 168.817703 
L 84.431683 168.733545 
L 84.31607 168.631092 
L 84.182671 168.541445 
L 83.898085 168.48473 
L 84.075951 168.078576 
L 84.28939 167.840737 
L 84.523581 167.657785 
L 84.760736 167.397993 
L 84.885242 167.057701 
L 84.825953 166.763148 
L 84.71034 166.479571 
L 84.648087 166.168552 
L 84.772594 165.467844 
L 85.089788 164.776284 
L 85.890187 163.545014 
L 86.103626 163.768216 
L 86.637225 164.467095 
L 87.280508 164.664683 
L 87.606596 164.642729 
L 87.517663 164.313415 
L 86.317066 162.937612 
L 86.139199 162.458277 
L 86.405999 161.395323 
L 87.031495 160.079895 
L 88.018495 157.759825 
L 88.850818 156.554537 
L 90.039056 156.126284 
L 91.392938 155.846179 
L 92.550688 155.78322 
L 93.084766 155.353003 
L 93.597775 154.608607 
L 94.323106 154.421432 
L 94.973223 155.154816 
L 95.640222 155.98359 
L 96.129354 156.148247 
L 95.655044 154.468744 
L 95.317098 153.705832 
L 94.765713 153.387495 
L 89.597371 154.236118 
L 87.797083 153.108626 
L 87.906643 151.899055 
L 87.936344 151.415091 
L 88.789407 150.988989 
L 89.533912 150.250832 
L 90.223076 149.458064 
L 91.316288 148.818362 
L 92.657601 148.076555 
L 93.676266 146.649645 
L 93.831327 145.307304 
L 94.391054 144.973628 
L 94.804938 144.711321 
L 95.024846 144.519663 
L 96.331456 144.387424 
L 97.6102 144.54589 
L 98.420864 145.172931 
L 99.001894 145.319293 
L 99.390235 145.992558 
L 99.541422 145.626653 
L 99.665928 145.118045 
L 99.719288 144.589313 
L 99.232696 144.200696 
L 98.89744 143.955071 
L 98.200934 143.608766 
L 97.409672 143.068271 
L 96.766708 142.585984 
L 96.428762 142.414008 
L 96.526589 142.026149 
L 96.828961 141.609018 
L 97.131334 141.360202 
L 97.463351 141.283362 
L 99.496955 141.415088 
L 99.941621 141.378498 
L 100.270673 141.206522 
L 100.493006 140.802197 
L 100.57601 140.471054 
L 100.750912 140.242363 
L 101.251902 140.156375 
L 101.411982 140.010013 
L 101.222258 139.680699 
L 100.833917 139.342237 
L 100.404073 139.183068 
L 100.28846 139.274545 
L 97.611573 140.357623 
L 96.713348 140.401532 
L 94.949709 140.286029 
L 93.208423 140.148156 
L 93.192002 139.374108 
L 93.08167 138.30908 
L 92.745319 138.015616 
L 91.658483 137.642502 
L 90.055546 137.89398 
L 89.89822 136.537865 
L 93.199572 136.182209 
L 94.995029 135.958811 
L 96.811175 135.851505 
L 97.398133 135.498406 
L 98.02363 135.681359 
L 98.788455 135.289841 
L 100.131345 134.270796 
L 101.835896 133.592042 
L 102.556255 133.076116 
L 102.621472 132.426635 
L 100.487077 133.085264 
L 99.737075 133.315784 
L 99.001894 133.822562 
L 98.385291 134.415328 
L 97.70347 134.742813 
L 96.891215 134.880027 
L 96.129354 135.21666 
L 95.575004 134.94589 
L 95.388245 134.633041 
L 95.328956 134.221398 
L 95.139232 133.656075 
L 94.836859 133.167592 
L 94.223221 132.360772 
L 93.894168 131.813744 
L 94.401087 131.403931 
L 94.163932 131.122184 
L 93.665906 130.913618 
L 93.209859 130.761437 
L 92.376376 129.33108 
L 91.736033 129.053483 
L 91.251725 129.332926 
L 91.022533 129.330899 
L 91.003815 128.835689 
L 90.180731 128.310012 
L 89.469505 128.421939 
L 89.248463 129.26879 
L 89.127352 129.55977 
L 88.87834 129.33108 
L 89.023405 128.017552 
L 90.260307 127.391628 
L 91.35255 127.047724 
L 92.88033 127.486919 
L 92.340803 126.597771 
L 92.035466 126.248331 
L 91.629338 125.951948 
L 91.386254 125.895233 
L 91.095739 126.065379 
L 90.888228 125.951948 
L 90.6155 125.655565 
L 90.390203 125.337228 
L 91.155028 123.240593 
L 91.593765 122.316684 
L 92.127363 121.963585 
L 91.7242 121.471443 
L 90.176763 120.999426 
L 89.619449 120.704873 
L 90.16787 120.199924 
L 91.789417 119.808406 
L 92.127363 119.340048 
L 91.893173 118.743623 
L 91.318072 118.593602 
L 90.117475 118.586284 
L 89.868462 118.414308 
L 89.438618 117.892894 
L 89.145139 117.634931 
L 89.145139 117.33123 
L 89.619449 117.33123 
L 89.073609 116.323411 
L 89.733518 115.960057 
L 90.485418 115.733727 
L 91.18631 114.717176 
L 92.686459 114.301597 
L 93.396143 113.924656 
L 91.270641 113.924656 
L 90.757793 114.21555 
L 89.972217 115.379127 
L 89.394152 115.488899 
L 89.03249 115.051642 
L 88.700473 114.221038 
L 88.489998 113.36848 
L 88.513714 112.865361 
L 89.27261 111.981701 
L 89.625378 111.436502 
L 89.509765 111.191346 
L 88.811353 111.442122 
L 88.495927 111.147438 
L 88.209993 110.959012 
L 88.037229 110.923746 
L 87.868065 110.510604 
L 88.027398 110.133873 
L 87.996758 109.721678 
L 87.813331 108.948903 
L 87.591606 108.62131 
L 87.575642 108.43297 
L 88.078317 108.401685 
L 88.806734 108.065794 
L 89.56656 108.09064 
L 89.623241 107.542896 
L 89.841782 107.058451 
L 89.544647 106.668076 
L 89.112801 106.578714 
L 88.527907 106.004652 
L 88.897908 105.478021 
L 89.41059 105.068991 
L 89.063814 104.445805 
L 88.190464 104.283417 
L 88.013854 103.532457 
L 88.292971 102.979371 
L 89.145139 102.845056 
L 88.656007 102.29254 
L 88.487034 102.014452 
L 88.374385 101.619275 
L 88.069048 101.877238 
L 87.553236 102.435243 
L 86.975171 102.680399 
L 86.859558 102.998736 
L 86.880309 103.315244 
L 87.137759 103.706255 
L 87.183084 104.468807 
L 86.91473 105.34542 
L 87.074786 106.522724 
L 86.688026 107.527839 
L 86.358302 107.939026 
L 85.684019 107.416816 
L 84.979638 107.385704 
L 84.278738 106.928086 
L 84.454278 104.499567 
L 84.670654 103.622619 
L 84.252241 103.425244 
L 84.378323 102.285222 
L 83.987018 101.820523 
L 83.400059 101.922976 
L 83.071006 102.508424 
L 82.982073 103.227427 
L 82.718238 103.75433 
L 81.888196 103.767136 
L 82.229106 104.458697 
L 82.89314 105.510673 
L 83.13326 106.25163 
L 82.733061 106.588263 
L 82.78642 106.959656 
L 83.400059 107.784772 
L 82.842745 107.894543 
L 82.371399 108.161654 
L 81.977129 108.545854 
L 81.659934 109.012383 
L 81.665863 108.683068 
L 81.624361 108.348265 
L 81.541357 108.044564 
L 81.41685 107.784772 
L 81.91784 106.687057 
L 80.847678 104.94535 
L 81.167837 104.072667 
L 80.892145 102.845056 
L 80.219217 103.218279 
L 79.255775 104.425765 
L 78.54431 104.687387 
L 78.126325 104.769716 
L 77.752805 104.916078 
L 77.379286 104.941691 
L 76.937585 104.687387 
L 76.830865 104.478821 
L 76.679679 104.05986 
L 76.623355 103.646388 
L 76.801221 103.459776 
L 78.304191 103.474413 
L 78.686603 103.21645 
L 78.67771 102.537696 
L 78.286404 101.8315 
L 77.726125 101.558901 
L 77.139167 101.388755 
L 76.667821 101.004555 
L 76.481062 101.542435 
L 76.374342 102.662104 
L 76.169796 103.181689 
L 75.742917 103.565889 
L 75.600624 103.203643 
L 75.64509 102.076656 
L 75.573944 100.9826 
L 75.674735 100.678899 
L 76.608532 99.504345 
L 76.792328 99.094531 
L 76.937585 98.520061 
L 77.053198 98.955487 
L 77.210313 99.347006 
L 77.405966 99.71657 
L 77.657943 100.082474 
L 77.850632 99.903181 
L 78.090751 99.921476 
L 78.366444 100.016612 
L 78.67771 100.082474 
L 78.295297 99.548253 
L 77.906956 98.856693 
L 78.944509 99.164053 
L 79.371388 99.054282 
L 79.647081 98.520061 
L 78.716248 98.454198 
L 78.144111 98.198064 
L 78.075929 97.63823 
L 78.67771 96.679559 
L 77.853596 96.004465 
L 77.906956 95.378767 
L 78.535417 94.873819 
L 79.424748 94.557311 
L 79.193522 95.655026 
L 79.282455 95.958727 
L 79.783445 96.064839 
L 80.687599 96.048373 
L 80.930682 95.881887 
L 81.167837 95.477562 
L 81.233055 94.465835 
L 81.141158 93.106498 
L 81.31013 91.997806 
L 82.15796 91.739844 
L 82.048275 92.360052 
L 82.074955 93.33153 
L 82.235035 94.315814 
L 82.688594 95.499516 
L 82.466261 95.916648 
L 82.110529 96.289871 
L 81.888196 96.679559 
L 81.900054 97.093032 
L 82.128315 97.75532 
L 82.15796 97.934613 
L 81.959342 98.146838 
L 81.304202 98.571287 
L 81.167837 98.688377 
L 81.203411 99.076236 
L 81.321988 99.48605 
L 81.514677 99.725717 
L 81.775547 99.606798 
L 82.389186 99.046964 
L 82.848674 99.034157 
L 83.898085 99.747672 
L 83.145117 98.134031 
L 82.878318 97.129622 
L 83.266659 96.679559 
L 83.853618 97.422346 
L 84.212315 97.652866 
L 84.378323 97.166213 
L 84.532474 97.014362 
L 84.911922 96.862512 
L 85.641174 96.679559 
L 85.641174 96.399642 
L 85.350659 96.355733 
L 84.648087 96.064839 
L 84.648087 95.784922 
L 85.525561 95.581845 
L 86.041373 94.75307 
L 86.174773 93.743173 
L 85.890187 92.996727 
L 85.572992 92.892444 
L 84.618443 92.875978 
L 84.147097 92.687537 
L 83.794329 92.263087 
L 83.678716 91.845956 
L 83.853618 91.699594 
L 84.378323 92.074646 
L 84.618443 91.377598 
L 84.360537 90.964125 
L 83.800258 90.795809 
L 83.13326 90.845206 
L 83.403023 90.499426 
L 83.764685 90.250611 
L 84.155991 90.184748 
L 84.511723 90.384166 
L 84.858562 90.647618 
L 85.163899 90.707992 
L 85.303228 90.568948 
L 85.143148 90.230486 
L 85.143148 89.895683 
L 86.486039 89.873729 
L 87.129322 90.096931 
L 87.40205 90.691526 
L 87.218255 91.05926 
L 86.868451 91.448949 
L 86.655012 91.959386 
L 86.886238 92.687537 
L 87.206397 92.371029 
L 87.618454 92.149657 
L 87.974186 92.156975 
L 88.125373 92.533857 
L 88.166875 92.848535 
L 88.335848 93.133941 
L 88.374385 93.441301 
L 88.309168 93.558391 
L 87.980115 93.94625 
L 87.87636 94.224338 
L 87.87636 96.233155 
L 87.997902 96.814944 
L 88.264701 97.222928 
L 88.531501 97.376608 
L 88.650078 97.166213 
L 88.7983 96.046544 
L 89.465298 93.898682 
L 89.619449 92.841217 
L 89.815102 92.592402 
L 90.256803 92.888785 
L 90.888228 93.580345 
L 91.146134 94.066998 
L 91.332894 94.517061 
L 91.608587 94.813444 
L 92.127363 94.835399 
L 92.127363 94.557311 
L 91.866493 94.21519 
L 91.549298 93.298598 
L 91.270641 92.841217 
L 89.038419 90.510403 
L 88.87834 90.384166 
L 89.002846 89.899342 
L 89.314112 89.954228 
L 89.687631 90.301837 
L 90.268661 91.019011 
L 90.576962 91.289781 
L 90.950482 91.458097 
L 91.404041 91.459926 
L 91.744951 91.262338 
L 91.77756 90.953148 
L 91.528547 90.664083 
L 91.012735 90.537846 
L 90.319056 90.208532 
L 89.564466 89.511237 
L 89.224468 88.473029 
L 89.145139 87.777094 
L 89.812138 87.758799 
L 90.393167 88.035057 
L 90.914908 88.486949 
L 91.643974 89.001041 
L 92.340128 89.475681 
L 92.625716 89.763141 
L 93.178471 90.134876 
L 93.711331 90.425137 
L 94.075621 91.038934 
L 93.903951 91.646928 
L 93.550293 92.058181 
L 93.62144 92.380177 
L 93.983101 93.064419 
L 94.027568 93.48521 
L 93.894168 94.224338 
L 94.294367 93.949909 
L 94.454447 93.616935 
L 94.552273 93.243713 
L 94.413666 92.140508 
L 94.562051 91.776167 
L 94.793129 91.392315 
L 95.130101 90.765947 
L 95.731194 90.488102 
L 96.295363 90.48296 
L 96.926141 90.56283 
L 97.624231 90.815122 
L 98.507751 91.049422 
L 99.141223 91.459926 
L 99.909012 92.239304 
L 99.962372 93.199804 
L 99.390235 95.142759 
L 99.826008 94.857353 
L 100.510793 93.98467 
L 100.884312 93.916977 
L 101.145182 94.286541 
L 101.296369 94.948829 
L 101.376409 96.233155 
L 101.337871 96.507584 
L 101.168898 97.118645 
L 101.133325 97.473573 
L 101.204471 97.843137 
L 101.527595 98.381017 
L 101.835896 99.780603 
L 101.732141 100.181269 
L 101.133325 100.362392 
L 101.243009 100.741103 
L 101.385302 100.999066 
L 101.595777 101.1747 
L 101.89815 101.311915 
L 102.111589 100.302017 
L 102.470286 99.701933 
L 102.654081 99.0616 
L 102.351709 97.934613 
L 103.089854 98.146838 
L 103.863572 98.241973 
L 102.612579 96.86983 
L 102.23906 96.114236 
L 102.983134 95.784922 
L 103.653097 95.67515 
L 105.236106 95.043964 
L 106.40113 94.165793 
L 106.949551 93.909659 
L 107.343822 93.470574 
L 107.592834 92.380177 
L 107.521688 92.186247 
L 107.183742 91.833149 
L 107.118524 91.739844 
L 107.314177 91.558721 
L 107.50983 91.534937 
L 107.69659 91.542255 
L 108.203508 91.264167 
L 108.526632 91.2166 
L 108.766752 91.05926 
L 108.861614 90.537846 
L 106.682752 91.141589 
L 106.353699 91.6008 
L 106.469312 92.991238 
L 106.205477 93.305916 
L 105.357648 93.580345 
L 104.151122 93.413858 
L 102.719299 92.588743 
L 101.426804 91.333689 
L 100.935347 90.132355 
L 103.116534 89.895683 
L 103.116534 89.615766 
L 102.965347 89.544414 
L 102.621472 89.284622 
L 103.030565 89.231566 
L 103.418906 89.25352 
L 103.774639 89.374269 
L 104.088869 89.615766 
L 103.934718 88.759548 
L 103.436693 87.996637 
L 103.075031 87.122124 
L 103.341831 85.936592 
L 102.929774 85.75364 
L 102.612579 86.168942 
L 102.416926 86.884286 
L 102.351709 87.606948 
L 102.182736 88.391814 
L 101.835896 88.572937 
L 101.492022 88.232645 
L 100.795379 88.375348 
L 100.092807 88.552812 
L 98.414935 88.055182 
L 98.42614 87.545898 
L 98.268192 87.098464 
L 98.400183 86.493099 
L 98.328965 85.722813 
L 98.751232 84.959808 
L 99.254556 84.278799 
L 99.834232 84.003796 
L 100.454518 83.769981 
L 101.376409 83.755799 
L 102.360602 83.492348 
L 102.565148 83.192306 
L 102.621472 82.359872 
L 102.396175 82.197045 
L 101.889256 82.469644 
L 101.133325 83.115466 
L 100.661979 83.020331 
L 100.31514 82.819083 
L 100.12838 82.464155 
L 100.131345 81.915298 
L 99.265729 82.350725 
L 98.563157 82.844696 
L 97.264734 84.231476 
L 96.929752 84.494927 
L 96.508802 84.643119 
L 96.117496 84.630312 
L 95.880341 84.399792 
L 95.895163 83.986319 
L 96.117496 83.583824 
L 96.65406 82.837378 
L 95.592791 83.078875 
L 95.254845 82.974592 
L 95.139232 82.359872 
L 95.334885 81.904321 
L 95.77955 81.646358 
L 96.286469 81.476212 
L 96.65406 81.273135 
L 97.095761 80.678539 
L 96.980148 80.524859 
L 96.004848 80.658415 
L 95.681724 80.462656 
L 95.426782 79.979661 
L 95.183698 79.375918 
L 94.890219 78.816084 
L 95.053263 78.770346 
L 95.157019 78.698994 
L 95.388245 78.48311 
L 95.655044 78.684358 
L 96.058208 78.662404 
L 96.766708 78.48311 
L 97.344773 78.640449 
L 97.827977 78.935003 
L 98.305251 79.086853 
L 98.86553 78.816084 
L 98.821063 79.317373 
L 98.86553 79.804027 
L 99.043396 80.180909 
L 99.390235 80.351055 
L 99.772648 80.202863 
L 99.950514 79.780243 
L 100.131345 78.816084 
L 100.744983 77.912299 
L 101.248938 77.981821 
L 101.81811 78.320283 
L 102.621472 78.205023 
L 102.449535 77.837288 
L 102.227202 77.564689 
L 101.945581 77.381737 
L 101.60467 77.282942 
L 101.098601 77.301535 
L 100.867403 76.958797 
L 100.323119 76.861717 
L 99.884426 76.998461 
L 99.447792 76.974049 
L 98.758232 76.839199 
L 97.616861 76.48383 
L 96.031654 75.3006 
L 95.947696 74.781674 
L 96.653549 73.772681 
L 97.133657 73.296763 
L 97.028649 72.991676 
L 95.119433 72.752051 
L 94.230244 73.866159 
L 93.310366 73.175745 
L 93.685368 72.358625 
L 94.167896 71.644972 
L 93.864818 71.140393 
L 93.212668 70.792931 
L 92.614527 70.481973 
L 92.698509 69.660468 
L 92.579295 69.015441 
L 92.934202 68.411907 
L 93.979049 68.102822 
L 94.291508 67.945842 
L 94.369499 67.571622 
L 93.87818 67.440517 
L 93.745219 67.831977 
L 92.995773 67.912141 
L 92.801053 67.462951 
L 92.720868 66.63994 
L 92.898918 65.552293 
L 92.720948 65.157026 
L 92.436743 64.49238 
L 92.114196 63.970211 
L 91.738433 63.340238 
L 91.322439 62.941928 
L 91.314103 62.335203 
L 91.163921 61.428284 
L 90.772615 60.012233 
L 90.24791 56.316594 
L 90.390203 55.709191 
L 90.873406 55.621374 
L 92.88033 56.323912 
L 93.520649 56.188527 
L 94.054248 55.943371 
L 94.528558 55.851894 
L 95.014726 56.170232 
L 95.195556 56.700794 
L 95.266703 57.529568 
L 95.213343 58.380297 
L 95.014726 58.962086 
L 94.999903 60.015892 
L 96.117496 60.932483 
L 97.534497 61.516102 
L 98.414935 61.569158 
L 97.73015 60.875768 
L 95.631329 59.393853 
L 96.242003 57.798508 
L 96.422833 56.843497 
L 96.268683 56.170232 
L 95.924808 55.465865 
L 95.895124 55.081181 
" clip-path="url(#p9375dfb084)" style="fill: #f5f5f5; stroke: #000000"/>
    <path d="M 85.672583 114.582032 
L 85.946511 115.413888 
L 86.438608 116.167652 
L 86.646118 116.87019 
L 86.299279 116.709192 
L 84.680696 116.800668 
L 84.155991 116.71651 
L 84.056642 116.043964 
L 84.232261 115.804602 
L 84.512088 115.548671 
L 84.659945 115.150437 
L 83.791365 115.695635 
L 83.385237 115.501705 
L 83.497885 114.83027 
L 84.155991 113.924656 
L 83.906978 113.646568 
L 83.408952 114.232016 
L 83.240221 113.827766 
L 82.85784 114.031065 
L 83.056843 112.951795 
L 82.916856 111.304777 
L 82.748927 110.309315 
L 82.37245 109.053846 
L 82.687354 108.644525 
L 83.332779 108.049084 
L 84.027165 107.814087 
L 84.511723 108.584274 
L 84.576941 108.860532 
L 84.418759 109.190198 
L 84.140956 109.411166 
L 84.1737 109.720038 
L 84.787416 111.09987 
L 84.885242 111.538956 
L 84.725163 111.904861 
L 84.913144 112.227682 
L 85.32637 112.470749 
L 85.650067 113.031848 
L 84.885242 113.031848 
L 84.885242 113.309935 
L 85.134255 113.359332 
L 85.650067 113.646568 
L 85.609806 113.929716 
L 85.57324 114.152365 
L 85.672583 114.582032 
" clip-path="url(#p9375dfb084)" style="fill: #f5f5f5; stroke: #000000"/>
    <path d="M 81.659934 54.168732 
L 82.377328 54.157755 
L 83.044327 54.260208 
L 83.382272 54.633431 
L 83.142153 55.431104 
L 82.495906 55.976302 
L 81.695507 56.027529 
L 80.177715 55.709191 
L 79.842734 55.837258 
L 79.433641 56.049483 
L 79.080873 56.058631 
L 78.935616 55.570148 
L 79.015656 55.416468 
L 79.433641 54.17605 
L 79.881272 53.7516 
L 80.394119 53.616216 
L 80.978114 53.762578 
L 81.659934 54.168732 
" clip-path="url(#p9375dfb084)" style="fill: #f5f5f5; stroke: #000000"/>
    <path d="M 105.366542 248.606918 
L 105.642234 249.190537 
L 105.473261 249.389955 
L 105.120493 249.496067 
L 104.868516 249.807086 
L 104.886303 250.068708 
L 105.117529 250.48401 
L 105.117529 250.727337 
L 104.993023 250.968834 
L 104.681757 251.391454 
L 104.619503 251.52318 
L 103.962321 252.306798 
L 102.724655 253.326526 
L 102.340799 254.176509 
L 101.793051 255.169094 
L 101.766956 255.566897 
L 101.524631 256.151877 
L 100.626406 256.259819 
L 100.279567 256.44826 
L 99.322772 256.361273 
L 97.925853 257.500701 
L 94.244203 258.19952 
L 93.012807 259.281123 
L 91.505043 259.627451 
L 89.890649 259.460642 
L 88.045742 259.81602 
L 86.512003 259.339626 
L 83.050327 259.390894 
L 81.970737 259.912893 
L 81.327917 261.089763 
L 80.740958 261.216 
L 80.154 260.925106 
L 79.324692 259.536844 
L 78.219984 259.148863 
L 77.14806 257.988719 
L 76.774541 256.576326 
L 77.423753 254.746802 
L 78.037391 253.612497 
L 78.416839 253.213661 
L 79.682654 252.439772 
L 80.763927 250.501628 
L 81.757968 250.238986 
L 82.217607 249.215572 
L 83.922134 248.609282 
L 87.638411 247.511313 
L 88.569285 246.68504 
L 92.120893 246.30169 
L 94.538326 245.216176 
L 95.117293 245.384806 
L 98.061093 244.89559 
L 99.767885 244.749888 
L 100.897342 244.945792 
L 101.328978 245.613817 
L 101.865541 246.045584 
L 103.623452 246.764587 
L 104.157051 247.322592 
L 104.515748 248.669122 
L 104.868516 249.196025 
L 105.037489 248.991118 
L 105.268715 248.795359 
L 105.366542 248.606918 
" clip-path="url(#p9375dfb084)" style="fill: #f5f5f5; stroke: #000000"/>
    <path d="M 113.634358 203.388395 
L 114.772702 203.251181 
L 115.36559 203.296919 
L 115.863615 203.542075 
L 116.26085 204.272055 
L 116.142272 205.108148 
L 115.662033 205.79239 
L 114.989106 206.074137 
L 113.486136 206.355884 
L 112.905106 206.271725 
L 112.478227 206.059501 
L 111.606683 205.463076 
L 111.606683 205.128273 
L 111.8053 204.877628 
L 111.840873 204.669062 
L 111.69858 204.467814 
L 111.35767 204.233635 
L 111.861624 203.854924 
L 112.442654 203.613427 
L 113.634358 203.388395 
" clip-path="url(#p9375dfb084)" style="fill: #f5f5f5; stroke: #000000"/>
    <path d="M 84.748878 202.726107 
L 84.805202 203.344486 
L 84.707376 204.036047 
L 84.511723 204.705653 
L 83.794329 206.271725 
L 83.503814 206.747402 
L 83.142153 206.996217 
L 83.0799 206.857173 
L 82.457368 206.257089 
L 82.169817 206.074137 
L 82.169817 206.355884 
L 82.021596 207.076716 
L 78.553204 209.005035 
L 78.135218 209.151397 
L 76.602604 209.283122 
L 76.178689 209.173351 
L 76.098649 208.781833 
L 76.303195 208.452518 
L 76.572959 208.17809 
L 76.676715 207.94757 
L 76.481062 207.669482 
L 75.431651 206.996217 
L 75.431651 207.94757 
L 74.666826 207.027319 
L 75.120385 205.52528 
L 76.157938 204.310475 
L 77.17474 204.233635 
L 77.503793 203.262158 
L 77.717232 202.916378 
L 78.055178 202.532178 
L 78.446484 202.312635 
L 78.793323 202.25226 
L 79.057158 202.052842 
L 79.157949 201.416168 
L 79.584828 201.950389 
L 80.162893 202.010763 
L 80.678705 201.664983 
L 80.901038 200.980741 
L 80.622381 200.419077 
L 79.685619 199.667143 
L 79.928703 199.29392 
L 80.518626 199.250011 
L 81.120407 199.584814 
L 81.642147 200.007434 
L 82.030489 200.216 
L 82.119422 200.342237 
L 82.226142 200.625813 
L 82.401044 200.935003 
L 82.644127 201.134421 
L 82.810136 201.079535 
L 83.63425 200.550803 
L 83.666858 200.940492 
L 84.748878 202.726107 
" clip-path="url(#p9375dfb084)" style="fill: #f5f5f5; stroke: #000000"/>
    <path d="M 135.820209 194.357863 
L 136.199657 194.456657 
L 136.531674 194.990878 
L 136.792545 195.649507 
L 137.100846 196.776494 
L 137.133455 197.433293 
L 137.023771 198.071797 
L 136.759936 198.690177 
L 136.39531 199.070718 
L 135.986218 199.103649 
L 135.577125 198.880447 
L 134.287595 197.544894 
L 134.136409 197.02531 
L 134.355777 196.198365 
L 134.515857 195.982481 
L 135.197677 195.457407 
L 135.319219 195.188467 
L 135.594912 194.046844 
L 135.043526 193.450419 
L 135.108744 193.086344 
L 135.505979 192.899732 
L 135.959538 192.846676 
L 136.350843 193.025969 
L 136.44867 193.44676 
L 136.26191 193.942561 
L 135.820209 194.357863 
" clip-path="url(#p9375dfb084)" style="fill: #f5f5f5; stroke: #000000"/>
    <path d="M 70.504755 193.064389 
L 70.940528 193.465055 
L 71.053176 193.651667 
L 71.100607 193.995617 
L 71.020568 194.348715 
L 70.869381 194.67803 
L 70.317996 195.433623 
L 70.063054 195.623894 
L 69.811077 195.645848 
L 69.437558 195.611087 
L 69.434593 195.470214 
L 68.906924 195.155536 
L 68.334787 194.90855 
L 68.174707 194.968924 
L 67.845655 194.218819 
L 68.094668 193.87121 
L 69.170759 193.432124 
L 69.831828 192.510043 
L 70.057125 192.392954 
L 70.19349 192.48443 
L 70.504755 193.064389 
" clip-path="url(#p9375dfb084)" style="fill: #f5f5f5; stroke: #000000"/>
    <path d="M 71.165825 190.02372 
L 71.180647 190.978732 
L 71.011674 190.900062 
L 70.596653 190.781143 
L 70.412858 190.671372 
L 70.098627 191.093992 
L 69.600602 191.097651 
L 69.144079 190.998856 
L 68.942497 191.115946 
L 68.868386 191.719689 
L 68.672733 192.250251 
L 68.355538 192.647258 
L 67.92273 192.846676 
L 67.495851 192.795449 
L 67.181621 192.493578 
L 66.991897 192.016072 
L 66.929644 191.423306 
L 67.039328 190.863472 
L 67.329843 190.468294 
L 67.730042 190.204843 
L 68.174707 190.029208 
L 68.669769 190.223138 
L 69.321945 190.078606 
L 70.513649 189.615736 
L 70.756733 189.582805 
L 70.931634 189.612077 
L 71.065034 189.743803 
L 71.165825 190.02372 
" clip-path="url(#p9375dfb084)" style="fill: #f5f5f5; stroke: #000000"/>
    <path d="M 72.944488 184.057641 
L 73.101603 183.461216 
L 73.457335 183.371569 
L 73.863463 183.655146 
L 74.151014 184.161924 
L 74.236982 184.809576 
L 74.124334 185.437102 
L 73.845677 185.974983 
L 73.421762 186.346376 
L 72.897057 186.505545 
L 72.594684 186.388455 
L 72.357529 186.179889 
L 72.049227 186.066459 
L 70.860488 186.337228 
L 70.412858 186.346376 
L 70.412858 186.066459 
L 70.771555 185.748122 
L 71.426696 184.686997 
L 71.924721 184.225957 
L 72.158912 184.240594 
L 72.505751 184.337558 
L 72.808123 184.33207 
L 72.944488 184.057641 
" clip-path="url(#p9375dfb084)" style="fill: #f5f5f5; stroke: #000000"/>
    <path d="M 146.293567 188.492408 
L 146.480327 189.002845 
L 146.373607 189.452908 
L 146.172025 189.930414 
L 146.065305 190.517691 
L 146.166096 191.44526 
L 146.136452 191.975822 
L 145.928941 192.206342 
L 145.638426 192.372829 
L 145.946728 193.285762 
L 145.795542 193.743143 
L 145.235263 193.849255 
L 144.701664 193.5236 
L 144.126563 193.267467 
L 143.450671 193.585804 
L 142.857784 193.666303 
L 142.496123 192.795449 
L 142.08703 190.978732 
L 141.488214 190.649417 
L 141.010939 190.98422 
L 140.687816 191.741643 
L 140.566274 192.680189 
L 140.343941 193.075366 
L 139.828129 193.091832 
L 139.282672 192.901562 
L 138.950655 192.680189 
L 138.725358 192.275864 
L 138.671998 191.942891 
L 138.663105 191.549543 
L 138.583065 190.978732 
L 137.578121 187.658145 
L 137.444721 186.856813 
L 137.542547 186.066459 
L 137.960533 185.257809 
L 138.23919 185.051073 
L 138.523776 184.998017 
L 138.743145 184.847996 
L 138.915082 183.854564 
L 139.128521 183.570988 
L 139.712516 183.108118 
L 140.192755 182.872109 
L 140.74414 183.044085 
L 141.227343 183.481341 
L 141.508965 184.043005 
L 141.458569 184.633941 
L 141.13841 185.199264 
L 140.320225 186.066459 
L 140.468447 186.377478 
L 140.63742 187.164173 
L 140.841966 187.573987 
L 141.153232 187.79353 
L 141.932879 188.058811 
L 142.371616 188.854654 
L 143.077152 188.728417 
L 143.972413 188.371659 
L 144.817277 188.188707 
L 146.044554 188.397273 
L 146.293567 188.492408 
" clip-path="url(#p9375dfb084)" style="fill: #f5f5f5; stroke: #000000"/>
    <path d="M 171.02587 186.066459 
L 170.984368 186.59885 
L 170.821324 187.164173 
L 170.501165 187.478852 
L 170.006104 187.266627 
L 170.207685 187.87037 
L 170.679031 188.887585 
L 170.776857 189.584634 
L 170.4982 189.696235 
L 169.860846 189.473033 
L 169.176061 189.107128 
L 168.76104 188.803427 
L 168.648391 189.430954 
L 168.535742 189.771246 
L 167.904317 190.517691 
L 167.699771 191.10131 
L 168.132579 191.437942 
L 168.731395 191.692246 
L 169.033768 192.038026 
L 168.464596 192.546634 
L 165.826247 193.377238 
L 165.031777 193.432124 
L 166.276841 192.513703 
L 165.761029 192.264887 
L 165.565376 191.866051 
L 165.59502 191.33 
L 165.778815 190.671372 
L 164.649365 191.258649 
L 164.314383 191.02264 
L 164.151339 190.504885 
L 164.17209 189.9853 
L 164.400352 189.749291 
L 165.30747 189.56268 
L 165.565376 189.066879 
L 165.583163 188.366171 
L 165.778815 187.573987 
L 165.28079 187.266627 
L 164.907271 187.734985 
L 163.599954 188.322262 
L 163.021889 188.803427 
L 162.606867 188.148457 
L 162.088091 187.570328 
L 161.664176 186.922676 
L 161.551527 186.066459 
L 161.785718 185.550533 
L 162.265957 185.074857 
L 162.820307 184.708952 
L 163.294617 184.504045 
L 164.658258 184.218639 
L 165.031777 184.225957 
L 165.630594 184.482091 
L 166.107868 184.798598 
L 166.597 185.041925 
L 167.272892 185.089493 
L 167.272892 184.809576 
L 166.597 184.359513 
L 166.211623 183.688077 
L 166.039686 182.921506 
L 166.001148 182.202503 
L 166.481387 182.262878 
L 169.033768 180.79194 
L 168.597996 179.966825 
L 168.802542 179.147198 
L 169.362821 178.693476 
L 170.006104 178.949609 
L 170.166183 179.322832 
L 170.178041 179.758259 
L 169.940886 181.426785 
L 169.958673 181.690237 
L 170.127645 182.218969 
L 170.349978 182.641589 
L 170.510058 183.077016 
L 170.501165 183.667952 
L 170.355907 184.204003 
L 169.780806 185.731656 
L 170.518951 185.468204 
L 170.871719 185.221219 
L 170.990297 185.309036 
L 171.02587 186.066459 
" clip-path="url(#p9375dfb084)" style="fill: #f5f5f5; stroke: #000000"/>
    <path d="M 74.933625 177.873849 
L 74.737972 177.925076 
L 73.768601 177.663454 
L 73.421762 177.720169 
L 73.288362 177.619545 
L 73.199429 177.520751 
L 73.104567 177.443911 
L 72.944488 177.416468 
L 73.229074 175.989439 
L 73.421762 175.572307 
L 73.673739 175.425945 
L 74.106547 175.279583 
L 74.506746 175.081995 
L 74.684612 174.79293 
L 74.960305 174.181869 
L 75.61841 173.750101 
L 76.365449 173.570808 
L 76.922763 173.722658 
L 75.814063 174.375798 
L 75.559122 174.75451 
L 75.529477 175.204573 
L 75.689557 175.667443 
L 76.178689 176.466945 
L 75.787383 176.631602 
L 75.378291 177.035927 
L 75.067025 177.507944 
L 74.933625 177.873849 
" clip-path="url(#p9375dfb084)" style="fill: #f5f5f5; stroke: #000000"/>
    <path d="M 91.424019 67.119384 
L 91.567072 67.263804 
L 91.709503 67.483346 
L 91.902557 67.662207 
L 92.053322 67.965405 
L 92.143916 68.201156 
L 91.945746 68.282042 
L 91.638231 68.506714 
L 91.513725 68.669542 
L 90.877182 68.819236 
L 90.595533 68.773384 
L 90.208427 68.952058 
L 89.357476 69.316928 
L 88.898941 69.720828 
L 88.644977 70.160986 
L 87.056765 71.337662 
L 86.699121 71.257609 
L 86.365438 71.295215 
L 86.22069 71.259871 
L 86.068332 70.711366 
L 85.780154 70.532315 
L 85.647562 70.674802 
L 85.527365 70.715183 
L 85.485883 70.62254 
L 85.547932 70.464137 
L 85.456874 70.245258 
L 85.235384 70.217198 
L 85.088739 70.407351 
L 84.8634 70.580963 
L 84.591341 70.460385 
L 84.19944 70.36351 
L 84.430903 70.137805 
L 84.35031 69.89387 
L 83.951913 69.521782 
L 83.854776 69.287493 
L 83.994332 68.954458 
L 84.21105 68.889954 
L 84.512516 69.04379 
L 86.1633 67.909909 
L 87.345051 67.783087 
L 88.148373 67.802204 
L 88.888901 67.418935 
L 89.142144 66.411588 
L 89.658291 66.224457 
L 90.078937 66.640599 
L 90.283483 66.719269 
L 90.493958 66.836358 
L 90.701469 66.920517 
L 90.906015 66.931494 
L 91.125597 66.973677 
L 91.424019 67.119384 
" clip-path="url(#p9375dfb084)" style="fill: #f5f5f5; stroke: #000000"/>
    <path d="M 249.527142 65.707542 
L 250.149674 66.168582 
L 250.105208 67.310205 
L 249.702044 68.581725 
L 249.278129 69.426965 
L 248.584451 69.769086 
L 247.656582 69.591622 
L 246.755393 69.06106 
L 246.156577 68.353034 
L 245.966853 67.436442 
L 246.275154 66.7522 
L 246.930295 66.324092 
L 248.225754 66.108208 
L 249.09137 65.795359 
L 249.527142 65.707542 
" clip-path="url(#p9375dfb084)" style="fill: #f5f5f5; stroke: #000000"/>
    <path d="M 83.898085 58.995017 
L 84.351643 59.346286 
L 84.701447 59.734145 
L 84.772594 60.162254 
L 84.387217 60.648907 
L 83.649072 60.692816 
L 81.176731 58.808406 
L 81.49689 58.523 
L 81.648076 58.166243 
L 81.855587 57.321002 
L 81.968236 57.103289 
L 82.146102 56.872769 
L 82.350648 56.704453 
L 82.561123 56.653226 
L 82.697487 56.728237 
L 82.78642 56.865451 
L 82.83978 57.055721 
L 82.952429 57.879007 
L 82.993931 58.034517 
L 83.168833 58.3309 
L 83.400059 58.583374 
L 83.898085 58.995017 
" clip-path="url(#p9375dfb084)" style="fill: #f5f5f5; stroke: #000000"/>
    <path d="M 89.403045 63.413318 
L 89.124388 63.44442 
L 88.90502 63.345626 
L 88.522607 62.939472 
L 88.246915 62.774814 
L 88.051262 62.842507 
L 87.900075 62.994357 
L 87.760747 63.078515 
L 85.84572 63.180969 
L 85.134255 62.855313 
L 84.387217 61.876518 
L 85.507774 61.589283 
L 85.774574 61.415478 
L 86.082875 60.941631 
L 86.041373 60.723918 
L 85.836827 60.586703 
L 85.650067 60.341547 
L 84.351643 57.919257 
L 84.271604 57.551522 
L 84.405003 57.068528 
L 84.36943 54.938962 
L 84.520616 54.454138 
L 84.873385 54.324242 
L 85.733071 53.349105 
L 86.397105 53.180789 
L 86.978135 53.590602 
L 87.526556 54.225447 
L 88.077942 54.719419 
L 89.248894 55.295719 
L 89.714311 55.7531 
L 89.901071 56.475762 
L 89.859569 56.838008 
L 89.669845 57.44724 
L 89.628342 57.718009 
L 89.711347 58.02171 
L 90.049293 58.629112 
L 90.126368 58.962086 
L 90.244945 60.579385 
L 90.126368 60.956267 
L 90.32795 61.197764 
L 90.532496 61.678929 
L 90.648109 61.876518 
L 90.176763 62.152776 
L 89.767671 63.10047 
L 89.403045 63.413318 
" clip-path="url(#p9375dfb084)" style="fill: #f5f5f5; stroke: #000000"/>
    <path d="M 24.739768 46.166393 
L 25.139967 46.651217 
L 25.080678 47.309845 
L 24.576724 47.670262 
L 23.868223 47.25313 
L 22.940354 47.3318 
L 22.747666 47.421446 
L 22.762488 47.893464 
L 23.11822 48.067268 
L 23.545099 48.142279 
L 23.743717 48.314254 
L 22.999643 48.885066 
L 21.511495 48.681988 
L 20.402796 47.758079 
L 20.782244 46.166393 
L 21.707148 46.488389 
L 23.728895 45.796829 
L 24.739768 46.166393 
" clip-path="url(#p9375dfb084)" style="fill: #f5f5f5; stroke: #000000"/>
    <path d="M 118.590898 224.233995 
L 118.804337 224.427925 
L 119.065208 224.502935 
L 119.16007 224.656615 
L 119.115603 224.877988 
L 118.599791 224.621854 
L 118.101766 224.502935 
L 118.012832 224.362062 
L 117.888326 224.054702 
L 117.808286 223.679649 
L 117.671922 223.580855 
L 117.559274 223.438152 
L 117.47034 223.130792 
L 117.5237 222.949669 
L 117.505914 222.741103 
L 117.532594 222.554492 
L 117.648207 222.516072 
L 117.781606 222.56181 
L 117.950579 222.506924 
L 118.048406 222.389835 
L 118.101766 222.373369 
L 118.190699 222.565469 
L 118.066192 222.982601 
L 118.128446 223.4473 
L 118.590898 224.233995 
" clip-path="url(#p9375dfb084)" style="fill: #f5f5f5; stroke: #000000"/>
    <path d="M 126.707528 204.877628 
L 126.870572 205.324032 
L 126.870572 205.589313 
L 126.594879 205.891184 
L 125.930845 206.33027 
L 125.349816 206.511393 
L 125.142305 206.390645 
L 125.127483 206.006444 
L 124.881434 205.742993 
L 124.513844 205.622244 
L 124.344871 205.389895 
L 124.442698 205.210601 
L 124.045463 204.952638 
L 123.802379 204.767856 
L 123.932814 204.431224 
L 123.909099 204.17875 
L 123.846846 203.977502 
L 124.024712 203.875049 
L 124.282618 203.988479 
L 124.555346 204.149477 
L 125.065229 204.281203 
L 125.074123 204.398293 
L 125.243096 204.354384 
L 125.572148 204.021411 
L 125.90713 204.003115 
L 126.707528 204.877628 
" clip-path="url(#p9375dfb084)" style="fill: #f5f5f5; stroke: #000000"/>
    <path d="M 135.852818 202.341907 
L 136.092937 202.477292 
L 136.253017 202.735255 
L 136.172977 203.015172 
L 135.719418 203.174341 
L 135.422974 203.187147 
L 135.345899 203.108478 
L 135.227322 202.927355 
L 134.889376 202.735255 
L 134.358741 202.554132 
L 134.003009 202.274215 
L 133.839965 201.891844 
L 133.662099 201.613757 
L 133.36269 201.449099 
L 133.104784 201.132592 
L 133.300437 200.748392 
L 133.914076 200.450179 
L 134.581074 200.358703 
L 135.055384 200.71729 
L 135.60677 201.811345 
L 135.541552 202.126023 
L 135.559339 202.287021 
L 135.852818 202.341907 
" clip-path="url(#p9375dfb084)" style="fill: #f5f5f5; stroke: #000000"/>
    <path d="M 74.551213 198.305977 
L 74.634217 198.390135 
L 74.702399 198.618825 
L 74.66979 199.085354 
L 74.557142 199.584814 
L 74.524533 200.018411 
L 74.319987 200.243443 
L 74.026507 200.464815 
L 73.72117 200.759369 
L 73.003776 201.192966 
L 72.606542 201.25517 
L 72.185592 201.130762 
L 72.055156 200.900242 
L 72.265631 200.825232 
L 72.487964 200.814254 
L 72.671759 200.625813 
L 72.888163 200.457497 
L 72.85259 200.303817 
L 72.043299 200.120865 
L 72.238951 199.883026 
L 72.742906 199.804357 
L 73.270576 199.787891 
L 73.685597 199.464065 
L 73.866428 199.02498 
L 73.688561 198.574917 
L 73.323936 197.980321 
L 73.092709 197.224728 
L 73.368402 197.014332 
L 73.813068 197.378408 
L 74.076903 197.658325 
L 74.524533 197.914458 
L 74.551213 198.305977 
" clip-path="url(#p9375dfb084)" style="fill: #f5f5f5; stroke: #000000"/>
    <path d="M 72.292311 199.531758 
L 71.945472 199.694585 
L 71.651993 199.443941 
L 71.5097 197.883356 
L 71.640135 197.016162 
L 71.945472 196.620985 
L 72.410889 197.658325 
L 72.79923 198.234625 
L 73.104567 198.865811 
L 73.003776 199.392714 
L 72.674724 199.506144 
L 72.292311 199.531758 
" clip-path="url(#p9375dfb084)" style="fill: #f5f5f5; stroke: #000000"/>
    <path d="M 50.717134 194.182229 
L 51.13512 194.072457 
L 51.206267 194.25541 
L 50.886107 194.577406 
L 50.717134 194.782313 
L 50.622272 195.038446 
L 50.047172 195.720859 
L 49.934523 196.037366 
L 49.694403 196.44535 
L 49.507644 196.706972 
L 49.359422 196.873459 
L 49.00369 196.721608 
L 48.769499 196.077616 
L 48.808037 195.477532 
L 49.009618 194.930504 
L 49.252702 194.44751 
L 49.516537 194.02489 
L 49.821874 193.79437 
L 50.121282 193.733995 
L 50.284327 193.863891 
L 50.405869 194.189547 
L 50.717134 194.182229 
" clip-path="url(#p9375dfb084)" style="fill: #f5f5f5; stroke: #000000"/>
    <path d="M 77.245887 192.188047 
L 77.370393 192.581395 
L 77.385215 193.06256 
L 77.17474 193.492498 
L 76.712288 193.538236 
L 76.285409 193.108298 
L 75.947463 192.608838 
L 75.556157 192.603349 
L 75.360504 192.780813 
L 75.233033 192.843017 
L 74.960305 192.866801 
L 74.702399 192.674701 
L 74.640146 192.290501 
L 74.308129 191.672121 
L 73.590735 190.903721 
L 73.439549 190.530498 
L 73.792317 190.625633 
L 74.079867 190.627463 
L 74.349631 190.48659 
L 74.737972 190.44634 
L 75.19746 190.517691 
L 75.538371 190.671372 
L 75.754774 190.911039 
L 76.074934 191.075696 
L 76.507742 191.104969 
L 76.863474 191.192786 
L 77.106558 191.417817 
L 77.236993 191.664803 
L 77.210313 191.889835 
L 77.245887 192.188047 
" clip-path="url(#p9375dfb084)" style="fill: #f5f5f5; stroke: #000000"/>
    <path d="M 77.050234 189.513283 
L 76.934621 189.630372 
L 76.810114 189.919437 
L 76.88719 190.526839 
L 76.667821 190.764677 
L 76.232049 190.881767 
L 75.808134 190.636611 
L 75.333824 190.223138 
L 74.72315 189.992618 
L 74.27552 189.725507 
L 74.634217 189.419977 
L 75.541335 189.268126 
L 76.071969 189.033947 
L 76.347662 188.803427 
L 76.697466 188.960766 
L 76.961301 189.326671 
L 77.050234 189.513283 
" clip-path="url(#p9375dfb084)" style="fill: #f5f5f5; stroke: #000000"/>
    <path d="M 73.798246 188.148457 
L 73.492909 187.720349 
L 73.240931 187.251991 
L 73.350616 186.895233 
L 73.884214 186.622634 
L 74.319987 186.576896 
L 74.666826 186.776314 
L 75.004772 186.765337 
L 75.102598 186.494567 
L 75.031452 185.967664 
L 75.378291 185.623714 
L 75.855565 185.632862 
L 76.086791 185.609078 
L 76.267622 185.711531 
L 76.442524 185.967664 
L 76.481062 186.245752 
L 75.991929 186.564089 
L 76.169796 187.262968 
L 76.080863 187.687417 
L 75.822957 187.850245 
L 75.46426 187.833779 
L 75.235998 188.097231 
L 75.244891 188.59852 
L 75.126314 189.026629 
L 74.737972 189.249831 
L 74.40892 189.222388 
L 74.32888 188.957107 
L 74.343702 188.777814 
L 73.798246 188.148457 
" clip-path="url(#p9375dfb084)" style="fill: #f5f5f5; stroke: #000000"/>
    <path d="M 146.40918 187.13856 
L 146.557402 187.257479 
L 146.758984 187.566669 
L 146.373607 187.665463 
L 144.72538 187.224548 
L 143.824191 187.519101 
L 143.296521 187.455068 
L 142.754029 187.120265 
L 142.433869 186.479931 
L 142.682882 185.786542 
L 143.180908 185.133401 
L 143.498103 184.518681 
L 143.83012 184.085084 
L 144.408185 183.925915 
L 144.594944 184.423546 
L 144.340003 185.149867 
L 144.212532 185.645668 
L 144.248105 186.059141 
L 144.440794 186.192696 
L 144.654233 185.704213 
L 145.081112 185.018141 
L 145.430916 184.957767 
L 145.537636 185.272445 
L 145.724395 185.451739 
L 145.905226 185.554192 
L 145.98823 186.093902 
L 146.195741 186.840348 
L 146.40918 187.13856 
" clip-path="url(#p9375dfb084)" style="fill: #f5f5f5; stroke: #000000"/>
    <path d="M 79.881272 183.940552 
L 79.558148 184.083254 
L 79.113482 184.068618 
L 78.932652 183.662464 
L 79.006762 183.234355 
L 79.291348 183.077016 
L 79.91388 183.077016 
L 80.12732 183.164833 
L 80.136213 183.358763 
L 80.017636 183.823462 
L 79.881272 183.940552 
" clip-path="url(#p9375dfb084)" style="fill: #f5f5f5; stroke: #000000"/>
    <path d="M 77.403002 177.994597 
L 77.494899 178.195845 
L 77.530473 178.426365 
L 77.521579 178.865451 
L 77.367428 179.008154 
L 77.183633 179.112437 
L 76.98798 179.037426 
L 76.661892 178.671521 
L 76.51367 178.569068 
L 76.318018 178.667862 
L 76.143116 178.649567 
L 76.089756 178.453808 
L 75.950427 178.382457 
L 75.769597 178.387945 
L 75.719201 178.289151 
L 75.983036 178.086074 
L 75.879281 178.027529 
L 75.716237 178.056801 
L 75.559122 178.009234 
L 75.627304 177.806156 
L 75.908925 177.617715 
L 76.143116 177.581125 
L 76.460311 177.729316 
L 76.925727 177.690896 
L 77.248851 177.784202 
L 77.403002 177.994597 
" clip-path="url(#p9375dfb084)" style="fill: #f5f5f5; stroke: #000000"/>
    <path d="M 174.458689 179.191106 
L 174.298609 180.120505 
L 174.05849 180.453478 
L 173.87173 180.517511 
L 173.782797 180.321752 
L 173.604931 179.535057 
L 173.329238 179.242333 
L 173.231412 179.011813 
L 173.275878 178.693476 
L 173.151372 178.320253 
L 172.958683 177.965325 
L 173.059474 177.641499 
L 173.444851 177.420127 
L 173.862837 177.376218 
L 174.227463 177.48599 
L 174.476475 178.053142 
L 174.458689 179.191106 
" clip-path="url(#p9375dfb084)" style="fill: #f5f5f5; stroke: #000000"/>
    <path d="M 80.305186 154.518141 
L 80.145107 154.349825 
L 80.029493 154.053442 
L 80.10064 153.768036 
L 80.483052 153.566789 
L 80.429693 153.493608 
L 80.248862 153.376518 
L 80.337795 153.270406 
L 80.539377 153.156975 
L 80.675741 152.963046 
L 80.895109 152.926455 
L 81.025544 152.866081 
L 80.963291 152.619095 
L 81.120407 152.626413 
L 81.532463 152.701424 
L 81.808156 152.476392 
L 81.941556 152.328201 
L 82.098671 152.448949 
L 82.175746 152.717889 
L 82.039382 153.052692 
L 81.369419 153.634481 
L 80.918825 154.13943 
L 80.634239 154.360802 
L 80.515661 154.470574 
L 80.305186 154.518141 
" clip-path="url(#p9375dfb084)" style="fill: #f5f5f5; stroke: #000000"/>
    <path d="M 74.542319 79.997956 
L 74.284413 80.140659 
L 74.133227 80.089433 
L 74.136192 79.928434 
L 74.24884 79.192966 
L 74.453386 78.585564 
L 74.720186 78.221488 
L 75.013665 78.420906 
L 75.268607 78.847186 
L 75.529477 79.057581 
L 76.427702 79.52228 
L 76.703394 79.822322 
L 76.552208 80.10041 
L 76.089756 80.565109 
L 75.760703 80.702323 
L 75.333824 80.766357 
L 74.972163 80.603529 
L 74.735008 80.197375 
L 74.640146 79.968684 
L 74.542319 79.997956 
" clip-path="url(#p9375dfb084)" style="fill: #f5f5f5; stroke: #000000"/>
    <path d="M 88.537429 77.705562 
L 88.913913 77.952548 
L 89.056206 78.495917 
L 88.896126 78.682528 
L 88.504821 78.814254 
L 88.353634 79.110637 
L 88.32399 79.386895 
L 88.006795 79.7528 
L 87.594738 79.851594 
L 87.313117 79.646688 
L 87.013708 79.67596 
L 86.776553 79.529598 
L 86.693549 78.962446 
L 86.761731 78.380657 
L 87.061139 77.970843 
L 87.704422 77.634211 
L 88.537429 77.705562 
" clip-path="url(#p9375dfb084)" style="fill: #f5f5f5; stroke: #000000"/>
    <path d="M 93.268672 78.775834 
L 93.357605 78.9844 
L 93.446538 79.3686 
L 93.25385 79.782073 
L 91.395147 81.240203 
L 90.550283 81.344486 
L 90.559176 81.117625 
L 90.95641 80.587063 
L 91.00977 80.283362 
L 90.843762 80.02174 
L 91.318072 79.489349 
L 91.332894 78.951468 
L 91.137241 78.287351 
L 90.867477 77.826311 
L 90.603642 77.528099 
L 90.683682 77.436622 
L 91.282499 77.722028 
L 91.795346 77.279283 
L 91.910959 77.315874 
L 91.80424 77.705562 
L 91.955426 78.058661 
L 92.382305 78.300158 
L 93.075983 78.585564 
L 93.268672 78.775834 
" clip-path="url(#p9375dfb084)" style="fill: #f5f5f5; stroke: #000000"/>
    <path d="M 59.548194 59.708532 
L 59.948393 59.759758 
L 60.203335 60.02138 
L 60.090686 60.509863 
L 59.743847 60.846496 
L 59.533372 60.94529 
L 59.414794 60.696475 
L 59.219142 60.140299 
L 59.263608 59.75244 
L 59.548194 59.708532 
" clip-path="url(#p9375dfb084)" style="fill: #f5f5f5; stroke: #000000"/>
    <path d="M 24.149845 52.170891 
L 24.44036 52.317253 
L 24.490755 52.599 
L 24.327711 53.001495 
L 24.215062 53.462536 
L 24.06684 53.850395 
L 23.797077 53.994927 
L 23.512491 53.971143 
L 23.272371 54.055301 
L 23.085612 54.245572 
L 22.987785 54.280333 
L 22.987785 54.161414 
L 22.993714 54.102869 
L 22.875136 53.883326 
L 22.584622 53.513762 
L 22.694306 53.160664 
L 23.307944 52.683158 
L 23.69925 52.284322 
L 23.883045 52.141619 
L 24.149845 52.170891 
" clip-path="url(#p9375dfb084)" style="fill: #f5f5f5; stroke: #000000"/>
    <path d="M 39.129148 222.953328 
L 38.951282 222.836239 
L 38.239817 222.166633 
L 37.833689 221.910499 
L 37.744756 221.56106 
L 37.922622 221.087213 
L 38.201279 220.823762 
L 38.604442 220.962806 
L 38.924602 221.36896 
L 39.446343 222.472163 
L 39.481916 222.828921 
L 39.369267 223.030168 
L 39.209188 222.999066 
L 39.129148 222.953328 
" clip-path="url(#p9375dfb084)" style="fill: #f5f5f5; stroke: #000000"/>
    <path d="M 92.723215 217.554402 
L 93.04041 217.691616 
L 93.342783 218.079475 
L 93.25385 218.278894 
L 93.102663 218.13802 
L 92.972228 218.116066 
L 92.90701 218.2917 
L 92.770646 218.236815 
L 92.438629 218.050203 
L 92.097719 218.059351 
L 91.902066 218.25511 
L 91.77756 218.496607 
L 91.371432 218.778354 
L 91.00977 219.113157 
L 90.461349 219.451619 
L 89.764707 219.420517 
L 89.376365 218.893614 
L 89.349685 218.213031 
L 89.669845 217.545254 
L 90.316092 217.084214 
L 90.870442 217.084214 
L 91.5908 217.554402 
L 91.80424 217.581845 
L 92.106612 217.48671 
L 92.515705 217.494028 
L 92.723215 217.554402 
" clip-path="url(#p9375dfb084)" style="fill: #f5f5f5; stroke: #000000"/>
    <path d="M 95.38528 218.245962 
L 95.530538 218.328291 
L 95.655044 218.547834 
L 95.539431 218.683218 
L 95.379351 218.708832 
L 95.325991 218.975942 
L 95.325991 219.429664 
L 95.142196 219.782763 
L 94.783499 219.883386 
L 94.59674 219.769956 
L 94.531522 219.56139 
L 94.35662 219.418687 
L 94.169861 219.376608 
L 94.089821 218.772865 
L 94.321047 217.735525 
L 94.401087 217.157395 
L 94.160967 216.928705 
L 94.089821 216.721968 
L 94.392194 216.425585 
L 94.40998 216.271905 
L 94.721246 216.275564 
L 95.337849 216.59939 
L 95.423818 217.038476 
L 95.076979 217.344007 
L 95.014726 217.686128 
L 95.38528 218.245962 
" clip-path="url(#p9375dfb084)" style="fill: #f5f5f5; stroke: #000000"/>
    <path d="M 104.02958 216.248122 
L 104.379384 216.571947 
L 104.598752 216.824422 
L 104.50389 217.387915 
L 104.414957 217.629412 
L 104.183731 218.048374 
L 103.756852 218.284382 
L 103.21436 218.33195 
L 102.814161 218.119725 
L 102.485108 217.816024 
L 102.244989 217.845296 
L 102.120482 218.070328 
L 101.984118 217.987999 
L 101.835896 217.296439 
L 102.061194 216.82991 
L 102.120482 216.401802 
L 102.262775 216.06151 
L 102.520682 215.809036 
L 103.039458 215.547414 
L 103.66199 215.710241 
L 104.02958 216.248122 
" clip-path="url(#p9375dfb084)" style="fill: #f5f5f5; stroke: #000000"/>
    <path d="M 93.203454 215.327871 
L 93.351676 215.547414 
L 93.38132 215.940762 
L 93.129343 216.158475 
L 93.001872 216.670742 
L 92.471238 216.700014 
L 92.177759 216.762218 
L 92.355625 217.084214 
L 92.17183 217.241553 
L 91.61748 217.087873 
L 91.32993 216.813445 
L 91.258783 216.632322 
L 91.104632 216.575606 
L 90.932695 216.539016 
L 90.897122 216.388995 
L 91.083881 215.851115 
L 91.190601 215.649867 
L 91.205423 215.512653 
L 91.134277 215.404711 
L 91.163921 215.305917 
L 91.297321 215.238224 
L 91.383289 215.141259 
L 91.359574 215.013193 
L 91.172814 214.700344 
L 91.294356 214.592402 
L 91.581907 214.687537 
L 91.863528 214.843047 
L 92.622424 214.974773 
L 93.01373 215.183338 
L 93.203454 215.327871 
" clip-path="url(#p9375dfb084)" style="fill: #f5f5f5; stroke: #000000"/>
    <path d="M 74.136192 211.29194 
L 74.100618 211.7914 
L 74.159907 212.115226 
L 73.98797 212.373189 
L 73.635202 212.418927 
L 73.430655 212.592732 
L 73.270576 212.515892 
L 73.119389 212.274395 
L 72.994883 212.279883 
L 72.93263 212.503085 
L 72.701404 212.537846 
L 71.948437 212.21768 
L 71.693495 211.844457 
L 71.669779 211.5993 
L 71.82393 211.385246 
L 71.841717 211.163874 
L 72.114445 210.979092 
L 73.368402 211.248032 
L 73.893108 211.165703 
L 74.136192 211.29194 
" clip-path="url(#p9375dfb084)" style="fill: #f5f5f5; stroke: #000000"/>
    <path d="M 102.007834 211.264497 
L 101.853683 211.427325 
L 101.524631 211.496847 
L 101.346764 211.237054 
L 101.272653 210.891274 
L 101.077 210.618675 
L 100.795379 210.496097 
L 100.42186 210.552812 
L 99.986087 210.710151 
L 99.636284 210.706492 
L 99.496955 210.633311 
L 99.357627 210.540006 
L 98.5513 210.17593 
L 98.500904 210.02408 
L 98.874423 209.974683 
L 99.239049 209.864911 
L 99.399129 209.769776 
L 99.532528 209.703913 
L 99.820079 209.749651 
L 100.152096 209.90882 
L 100.555259 209.736844 
L 101.047356 209.327031 
L 101.417911 209.231896 
L 101.63135 209.398383 
L 101.895185 209.469734 
L 102.049336 209.458757 
L 102.203487 209.429484 
L 102.609615 209.473393 
L 103.125427 209.60146 
L 103.445586 209.79356 
L 103.37444 210.122874 
L 103.163965 210.375349 
L 103.10764 210.529029 
L 103.072067 210.841877 
L 102.843805 211.098011 
L 102.529575 211.035807 
L 102.191629 211.09984 
L 102.007834 211.264497 
" clip-path="url(#p9375dfb084)" style="fill: #f5f5f5; stroke: #000000"/>
    <path d="M 110.666956 209.628903 
L 110.791462 209.738674 
L 110.862609 209.949069 
L 110.640276 209.996637 
L 110.331975 209.837468 
L 109.970313 209.75514 
L 109.709443 209.859423 
L 109.804305 209.982001 
L 110.026638 210.111897 
L 109.762803 210.380837 
L 109.11952 210.896763 
L 108.746 211.068738 
L 108.710427 210.671731 
L 108.891258 210.391814 
L 109.122484 210.234475 
L 108.992049 210.055182 
L 108.194615 209.886866 
L 108.301335 209.707572 
L 108.215366 209.480711 
L 107.972282 209.33069 
L 107.361608 209.272145 
L 107.124453 209.189817 
L 107.020698 209.118465 
L 107.106667 209.034307 
L 107.37643 208.979421 
L 107.586905 208.833059 
L 107.924851 208.415928 
L 108.286513 208.108568 
L 108.256868 207.991478 
L 108.372481 208.031728 
L 108.630387 208.287861 
L 108.867542 208.650107 
L 109.003907 209.056261 
L 109.288493 209.184328 
L 109.786518 209.02333 
L 110.151144 208.981251 
L 110.320117 209.133101 
L 110.444623 209.338008 
L 110.666956 209.628903 
" clip-path="url(#p9375dfb084)" style="fill: #f5f5f5; stroke: #000000"/>
    <path d="M 98.73213 211.233395 
L 98.803277 211.511483 
L 99.007823 212.012773 
L 98.883317 212.133521 
L 98.70545 212.107908 
L 98.527584 212.056681 
L 98.201496 211.912149 
L 97.922839 211.727367 
L 97.768688 211.758469 
L 97.733115 212.02192 
L 97.558213 212.126203 
L 97.238054 211.976182 
L 96.686668 211.844457 
L 96.001883 211.5993 
L 95.995954 211.308406 
L 96.3339 211.044954 
L 96.244967 210.713811 
L 95.930737 210.627823 
L 95.551289 210.728447 
L 95.076979 210.594891 
L 94.6501 210.309486 
L 94.395158 209.980171 
L 94.288438 209.491688 
L 94.252865 208.935513 
L 94.282509 208.36836 
L 94.427767 207.801208 
L 94.715317 207.36761 
L 95.106623 207.17551 
L 95.317098 207.126113 
L 95.957417 207.06025 
L 96.375402 207.201124 
L 96.766708 207.471893 
L 97.199516 207.993308 
L 97.537462 208.860502 
L 97.638253 209.572187 
L 97.753866 209.901502 
L 97.952483 210.17593 
L 98.065132 210.56013 
L 98.73213 211.233395 
" clip-path="url(#p9375dfb084)" style="fill: #f5f5f5; stroke: #000000"/>
    <path d="M 98.67877 207.918297 
L 98.500904 207.905491 
L 98.340825 207.739004 
L 98.474224 207.471893 
L 98.643197 207.208442 
L 98.895174 206.641289 
L 99.408022 205.949729 
L 100.12838 205.543575 
L 100.884312 205.360622 
L 101.337871 205.441121 
L 101.509808 205.710061 
L 101.539453 206.006444 
L 101.349729 206.205863 
L 101.379373 206.313804 
L 101.717319 206.5242 
L 101.995976 206.842537 
L 102.23906 207.202953 
L 102.271669 207.477382 
L 102.004869 207.52312 
L 101.257831 207.288941 
L 100.946565 207.36761 
L 100.76277 207.643869 
L 99.802292 208.10125 
L 99.464346 208.564119 
L 99.357627 209.047114 
L 99.161974 209.187987 
L 98.924819 208.90624 
L 98.930748 208.441541 
L 98.853672 208.050023 
L 98.67877 207.918297 
" clip-path="url(#p9375dfb084)" style="fill: #f5f5f5; stroke: #000000"/>
    <path d="M 154.490237 196.381317 
L 154.582135 196.481941 
L 154.528775 196.721608 
L 154.178971 197.160694 
L 154.021856 197.266807 
L 153.787665 197.301568 
L 153.443791 197.222898 
L 153.159205 197.264977 
L 152.770863 197.460736 
L 152.581139 197.641859 
L 152.364735 197.689427 
L 152.329162 197.521111 
L 152.456633 197.233875 
L 152.42106 197.001526 
L 152.26098 196.838698 
L 152.124616 196.807596 
L 151.964536 196.683188 
L 151.979358 196.458157 
L 152.077185 196.25325 
L 152.092007 196.008094 
L 152.237265 195.865391 
L 152.483313 195.803187 
L 153.636479 196.428885 
L 153.639444 196.706972 
L 153.805452 196.725268 
L 154.490237 196.381317 
" clip-path="url(#p9375dfb084)" style="fill: #f5f5f5; stroke: #000000"/>
    <path d="M 157.813209 188.262381 
L 158.160594 188.117453 
L 158.721475 187.974758 
L 159.35758 187.933095 
L 159.713516 188.287253 
L 159.809596 188.864402 
L 159.616493 189.225266 
L 159.749187 189.44138 
L 159.591062 189.712082 
L 159.224476 189.562 
L 159.079693 189.651225 
L 159.090193 189.76434 
L 159.389441 189.82384 
L 159.689284 190.07508 
L 159.542202 190.345969 
L 159.170225 190.819495 
L 158.567388 190.826438 
L 158.303183 190.483933 
L 158.160474 190.132126 
L 157.855469 190.120274 
L 157.927119 189.825365 
L 157.826916 189.530654 
L 157.356958 189.459893 
L 157.18931 189.322954 
L 157.537893 189.041803 
L 157.6041 188.699438 
L 157.251741 188.416988 
L 156.595298 188.186874 
L 156.179259 188.319967 
L 155.932219 188.306999 
L 155.854133 188.011598 
L 156.147172 187.684703 
L 156.574732 187.574603 
L 157.136291 187.80605 
L 157.564891 188.138932 
L 157.813209 188.262381 
" clip-path="url(#p9375dfb084)" style="fill: #f5f5f5; stroke: #000000"/>
    <path d="M 152.498135 187.541055 
L 153.043592 188.159435 
L 153.248138 188.508874 
L 153.10288 188.750371 
L 152.711575 188.750371 
L 152.527779 188.849165 
L 152.554459 189.167502 
L 152.444775 189.304717 
L 152.1009 189.205922 
L 151.887461 189.09981 
L 151.487262 188.816234 
L 151.256036 188.464965 
L 151.300502 188.221638 
L 151.549515 187.808166 
L 152.038647 187.433113 
L 152.498135 187.541055 
" clip-path="url(#p9375dfb084)" style="fill: #f5f5f5; stroke: #000000"/>
    <path d="M 83.31409 186.286002 
L 84.004804 186.532987 
L 84.078915 187.48617 
L 83.364486 188.155776 
L 82.97318 188.005755 
L 83.204406 187.740474 
L 83.320019 187.482511 
L 83.225157 187.303217 
L 82.208355 186.736065 
L 82.057169 186.653736 
L 80.981078 186.8312 
L 80.503803 187.069038 
L 79.964276 187.156855 
L 79.531468 187.006834 
L 79.309135 186.71411 
L 79.504788 186.478102 
L 80.082853 186.439682 
L 80.823963 186.165253 
L 80.954398 185.996937 
L 81.072975 185.872529 
L 81.108549 185.682259 
L 81.565072 185.539556 
L 81.728116 185.259639 
L 81.745903 184.930324 
L 81.461317 184.535147 
L 81.339775 184.090572 
L 81.73701 183.882007 
L 82.368435 184.035687 
L 83.017647 184.36866 
L 83.480099 184.840677 
L 83.432668 185.105958 
L 83.115473 185.148038 
L 82.561123 185.521261 
L 82.492941 185.729826 
L 82.513692 185.995107 
L 82.564088 186.205503 
L 82.798278 186.280513 
L 83.31409 186.286002 
" clip-path="url(#p9375dfb084)" style="fill: #f5f5f5; stroke: #000000"/>
    <path d="M 79.436606 178.058631 
L 79.504788 177.839088 
L 79.255775 177.762248 
L 78.321977 177.603079 
L 78.114467 177.420127 
L 77.794308 177.389025 
L 77.637192 177.356093 
L 77.480077 177.211561 
L 77.272566 177.105449 
L 77.076914 176.862122 
L 76.685608 175.938212 
L 76.907941 175.575966 
L 77.370393 175.418627 
L 77.797272 175.577796 
L 78.138182 175.808316 
L 78.446484 175.700374 
L 78.796287 175.513762 
L 79.021585 175.627193 
L 79.09866 175.824782 
L 79.276526 175.817463 
L 79.501824 175.751601 
L 79.593721 176.044325 
L 79.341744 176.302287 
L 79.006762 176.324242 
L 78.864469 176.490728 
L 78.864469 176.730396 
L 79.264669 177.147528 
L 79.602614 177.303037 
L 79.982062 177.328651 
L 80.198466 177.63967 
L 80.308151 178.038506 
L 80.491946 178.29098 
L 80.557163 178.634931 
L 80.41487 179.070358 
L 80.272577 179.187447 
L 80.177715 179.046574 
L 79.753801 178.94778 
L 79.575934 178.71726 
L 79.430677 178.451979 
L 79.436606 178.058631 
" clip-path="url(#p9375dfb084)" style="fill: #f5f5f5; stroke: #000000"/>
    <path d="M 284.40479 79.278883 
L 284.458707 79.319431 
L 284.428927 79.386819 
L 284.372225 79.351163 
L 284.40479 79.278883 
" clip-path="url(#p9375dfb084)" style="fill: #f5f5f5; stroke: #000000"/>
   </g>
  </g>
 </g>
 <defs>
  <clipPath id="p9375dfb084">
   <rect x="7.2" y="7.2" width="290.461502" height="266.112"/>
  </clipPath>
 </defs>
</svg>
