<?xml version="1.0" encoding="utf-8" standalone="no"?>
<!DOCTYPE svg PUBLIC "-//W3C//DTD SVG 1.1//EN"
  "http://www.w3.org/Graphics/SVG/1.1/DTD/svg11.dtd">
<svg xmlns:xlink="http://www.w3.org/1999/xlink" width="315.443187pt" height="280.512pt" viewBox="0 0 315.443187 280.512" xmlns="http://www.w3.org/2000/svg" version="1.1">
 <metadata>
  <rdf:RDF xmlns:dc="http://purl.org/dc/elements/1.1/" xmlns:cc="http://creativecommons.org/ns#" xmlns:rdf="http://www.w3.org/1999/02/22-rdf-syntax-ns#">
   <cc:Work>
    <dc:type rdf:resource="http://purl.org/dc/dcmitype/StillImage"/>
    <dc:date>2024-03-04T13:11:13.175733</dc:date>
    <dc:format>image/svg+xml</dc:format>
    <dc:creator>
     <cc:Agent>
      <dc:title>Matplotlib v3.8.0, https://matplotlib.org/</dc:title>
     </cc:Agent>
    </dc:creator>
   </cc:Work>
  </rdf:RDF>
 </metadata>
 <defs>
  <style type="text/css">*{stroke-linejoin: round; stroke-linecap: butt}</style>
 </defs>
 <g id="figure_1">
  <g id="patch_1">
   <path d="M -0 280.512 
L 315.443187 280.512 
L 315.443187 0 
L -0 0 
z
" style="fill: #ffffff"/>
  </g>
  <g id="axes_1">
   <g id="PatchCollection_1">
    <path d="M 176.867199 138.316042 
L 176.597594 138.069656 
L 176.409062 137.801841 
L 176.271434 137.496872 
L 176.160274 137.160509 
L 176.326841 137.13549 
L 176.557433 137.156821 
L 176.826128 137.306752 
L 177.029505 137.463997 
L 177.249211 137.515192 
L 177.568378 137.352463 
L 177.461494 137.669389 
L 176.930043 138.091146 
L 176.867199 138.316042 
" clip-path="url(#pc59e66f907)" style="fill: #f5f5f5; stroke: #000000"/>
    <path d="M 205.967372 146.06856 
L 206.281096 146.69449 
L 206.388475 146.855392 
L 206.391939 146.860268 
L 206.02549 146.995803 
L 205.773486 146.721021 
L 205.735151 146.306913 
L 205.967372 146.06856 
" clip-path="url(#pc59e66f907)" style="fill: #f5f5f5; stroke: #000000"/>
    <path d="M 219.998159 25.398636 
L 219.969287 25.572885 
L 219.960488 25.888304 
L 219.963631 26.070975 
L 220.312414 26.223847 
L 220.463868 26.409228 
L 220.504716 26.700651 
L 220.537437 26.76501 
L 220.566303 26.821787 
L 220.697647 26.802049 
L 220.840303 26.738966 
L 221.101733 26.707617 
L 221.348709 26.613185 
L 221.459943 26.624796 
L 221.69058 26.723872 
L 221.810612 26.801275 
L 221.808726 26.872099 
L 221.774791 26.963435 
L 221.794901 27.094634 
L 221.883511 27.350839 
L 221.943841 27.419341 
L 222.092152 27.480876 
L 222.223496 27.498679 
L 222.376835 27.480876 
L 222.509436 27.411987 
L 222.578564 27.280789 
L 222.674715 27.024971 
L 222.856334 26.925508 
L 223.097654 26.933248 
L 223.475974 27.035033 
L 223.983124 27.274596 
L 224.118238 27.252924 
L 224.252724 27.209578 
L 224.398522 27.211126 
L 224.747934 27.535833 
L 224.794438 28.083848 
L 224.662466 28.680627 
L 224.477077 29.154335 
L 224.323109 29.341264 
L 223.822244 29.828518 
L 223.722322 29.955072 
L 223.875033 30.279779 
L 224.095615 30.505409 
L 224.364586 30.645509 
L 224.662466 30.717494 
L 224.995539 30.743038 
L 225.202295 30.681502 
L 225.305987 30.479092 
L 225.335524 30.086658 
L 225.419735 29.786333 
L 225.629005 29.5727 
L 225.901747 29.479429 
L 226.176375 29.545222 
L 225.921857 29.742987 
L 225.823192 29.939204 
L 225.877867 30.139679 
L 226.083366 30.353699 
L 226.312118 30.479092 
L 227.017226 30.592488 
L 227.435138 30.801864 
L 227.831682 31.094835 
L 228.287929 31.056908 
L 228.393506 31.094448 
L 228.594607 31.210553 
L 228.68573 31.279442 
L 229.106784 31.327045 
L 229.308513 31.37968 
L 229.456825 31.536421 
L 229.880392 31.823974 
L 230.345437 31.960978 
L 231.314489 32.03335 
L 232.25212 31.880479 
L 232.577651 31.981877 
L 232.7556 32.397888 
L 232.805774 32.515186 
L 232.79949 32.620067 
L 232.758641 32.688956 
L 232.745444 32.769456 
L 232.813315 32.906072 
L 232.937118 33.015211 
L 233.056521 33.028757 
L 233.175296 33.012889 
L 233.29847 33.031466 
L 233.715753 33.266385 
L 233.931936 33.43048 
L 234.403894 34.004812 
L 234.42149 34.06867 
L 234.398238 34.133688 
L 234.395724 34.189806 
L 234.476164 34.223476 
L 234.673494 34.223476 
L 234.726911 34.23857 
L 234.797296 34.329132 
L 234.780328 34.426273 
L 234.778443 34.515674 
L 234.895961 34.586111 
L 234.991484 34.572565 
L 235.195098 34.445624 
L 235.301932 34.412727 
L 235.323299 34.056285 
L 235.63312 34.064025 
L 236.28921 34.34229 
L 236.660617 34.315973 
L 236.954726 34.156522 
L 237.539174 33.738158 
L 237.644752 33.835686 
L 237.73996 33.802402 
L 237.824171 33.688232 
L 237.890471 33.539618 
L 238.077432 33.699456 
L 238.105201 33.71475 
L 238.811762 34.103888 
L 238.956303 34.38254 
L 239.282149 34.417758 
L 239.634388 34.329906 
L 239.853085 34.245923 
L 239.826062 34.505998 
L 239.897076 34.764912 
L 240.043816 34.986673 
L 240.244288 35.136448 
L 240.318758 35.219269 
L 240.334469 35.324925 
L 240.368405 35.421679 
L 240.496606 35.473926 
L 240.651516 35.514176 
L 240.735413 35.582291 
L 240.791972 35.657759 
L 240.862357 35.723939 
L 241.342485 35.896548 
L 241.763538 35.860943 
L 242.701797 35.547072 
L 243.447754 35.446061 
L 243.675877 35.305574 
L 243.873207 35.277709 
L 244.520499 35.431354 
L 244.714686 35.51882 
L 244.975488 35.937959 
L 245.164963 36.143078 
L 245.345639 36.119083 
L 245.686881 35.68098 
L 245.902435 35.483989 
L 246.123017 35.412004 
L 246.459232 35.672466 
L 246.485941 35.72123 
L 246.481856 35.783539 
L 246.490654 35.845075 
L 246.550041 35.896548 
L 246.793247 35.939894 
L 247.030483 35.928283 
L 247.49427 35.81721 
L 247.695999 35.894226 
L 249.211793 35.853976 
L 249.642902 35.906611 
L 249.802526 35.853976 
L 249.883897 35.730785 
L 249.908103 35.694139 
L 249.920672 35.453027 
L 249.837718 35.226236 
L 249.69192 35.059432 
L 249.519728 35.003314 
L 249.593884 34.852765 
L 249.639131 34.789294 
L 249.729627 34.724662 
L 249.595141 34.555536 
L 249.766076 34.13601 
L 249.739682 33.815948 
L 249.797498 33.600767 
L 250.077782 33.50053 
L 250.410854 33.47847 
L 250.624523 33.49782 
L 251.04432 33.647983 
L 251.256733 33.690168 
L 251.493025 33.669269 
L 251.701667 33.702552 
L 252.227042 33.985074 
L 252.587766 34.112789 
L 252.693343 34.186323 
L 252.886902 34.360867 
L 253.017618 34.410405 
L 253.13325 34.355449 
L 253.247626 34.271079 
L 253.372057 34.234313 
L 253.475121 34.270305 
L 253.676221 34.419694 
L 253.76923 34.470393 
L 254.806154 34.533863 
L 255.060043 34.605848 
L 255.274969 34.781167 
L 255.394372 34.996348 
L 255.486125 35.228558 
L 255.610555 35.434838 
L 255.819197 35.573389 
L 255.953683 35.58887 
L 256.359654 35.469669 
L 257.857852 35.473926 
L 258.143163 35.544363 
L 258.090374 35.757222 
L 258.151961 35.81721 
L 258.266337 35.823015 
L 258.368144 35.87294 
L 258.58307 36.224738 
L 258.816849 36.518484 
L 259.02172 37.032054 
L 259.197683 37.241043 
L 259.143637 37.331218 
L 259.075766 37.482541 
L 259.060683 37.623802 
L 259.162491 37.686499 
L 259.161234 37.744165 
L 258.960133 38.061518 
L 258.919913 38.231805 
L 259.193912 38.198522 
L 259.407582 38.371905 
L 259.449059 38.608759 
L 259.208995 38.766275 
L 259.139867 38.78253 
L 258.933739 38.86806 
L 259.284408 39.366537 
L 259.284408 39.55424 
L 259.423921 39.648672 
L 260.160451 39.738073 
L 260.259744 39.725689 
L 260.400515 39.654865 
L 260.477184 39.569721 
L 260.529973 39.483803 
L 260.597844 39.413366 
L 261.36454 39.322417 
L 261.754171 39.172642 
L 261.886144 38.768597 
L 261.930134 38.721768 
L 261.966584 38.705126 
L 262.000519 38.717511 
L 262.031941 38.763953 
L 262.176482 38.811943 
L 262.323537 38.810395 
L 262.45928 38.752729 
L 262.574912 38.62811 
L 262.611362 38.649783 
L 262.635242 38.680357 
L 262.644041 38.717898 
L 262.637756 38.763953 
L 262.86148 38.848709 
L 263.616864 38.943528 
L 263.87201 39.04067 
L 264.554494 39.466775 
L 264.839805 39.527536 
L 265.0673 39.539147 
L 265.255832 39.615002 
L 265.421739 39.866563 
L 265.581363 40.426962 
L 265.696995 40.658398 
L 265.935802 40.848423 
L 266.085371 40.936276 
L 266.250021 40.960271 
L 266.566755 40.927762 
L 266.766598 40.88132 
L 266.907368 40.798111 
L 267.112239 40.598024 
L 267.402578 40.39484 
L 267.460394 40.307761 
L 267.552146 40.086775 
L 267.609963 40.008598 
L 267.803522 39.924615 
L 268.377915 39.990795 
L 269.129527 39.776388 
L 269.511618 39.738847 
L 269.850975 39.913392 
L 269.996773 40.023691 
L 270.704395 40.327499 
L 271.082715 40.403354 
L 271.276274 40.411869 
L 271.365512 40.653754 
L 271.556557 40.887125 
L 271.791593 41.057025 
L 272.016574 41.111594 
L 272.262922 41.23931 
L 272.398665 41.281108 
L 272.52561 41.277624 
L 272.607307 41.204478 
L 272.709114 40.961819 
L 272.80338 40.882868 
L 273.038416 40.877062 
L 273.597726 41.051994 
L 273.865441 41.098049 
L 274.190972 41.08102 
L 274.185945 41.016001 
L 274.035119 40.860808 
L 273.924514 40.574416 
L 274.021294 40.445152 
L 274.5341 40.075164 
L 274.749026 39.97454 
L 274.997887 39.957511 
L 275.474244 40.024465 
L 275.728133 39.987699 
L 275.922949 39.87469 
L 276.289957 39.548822 
L 276.484773 39.443167 
L 276.680846 39.424203 
L 276.889488 39.430782 
L 277.093102 39.399821 
L 277.492789 39.115751 
L 277.886191 39.253916 
L 278.093576 39.129296 
L 278.223034 39.154839 
L 278.578731 39.163354 
L 278.659171 39.184253 
L 278.737097 39.349509 
L 278.83262 39.489609 
L 278.950766 39.603778 
L 279.096564 39.688148 
L 279.346683 39.76052 
L 279.657131 39.793029 
L 279.975121 39.779097 
L 280.499823 39.696033 
L 280.472483 39.898072 
L 280.368568 40.218656 
L 280.421021 40.453913 
L 280.421021 40.709893 
L 280.577388 40.923818 
L 280.782249 41.07253 
L 281.053418 41.028648 
L 281.337452 41.018287 
L 281.497779 41.227946 
L 281.580911 41.227946 
L 281.711547 41.113365 
L 281.870883 41.141401 
L 282.162835 41.321196 
L 281.874842 41.844734 
L 281.830307 41.994056 
L 281.78973 42.22078 
L 281.696702 42.329876 
L 281.586849 42.412765 
L 281.497779 42.566352 
L 281.304793 42.478588 
L 280.854495 42.568181 
L 280.472483 42.41886 
L 280.368568 42.269538 
L 280.142924 42.312201 
L 279.883631 42.568181 
L 279.744088 42.888764 
L 279.727264 43.420226 
L 279.715388 43.785911 
L 279.788623 44.05469 
L 279.984577 44.247284 
L 280.404196 44.481322 
L 280.637593 44.767177 
L 280.907534 45.135462 
L 280.889457 45.320412 
L 280.729543 45.467141 
L 280.681344 45.662943 
L 280.75058 45.897741 
L 280.815898 46.208573 
L 280.826784 46.308527 
L 280.875278 46.389587 
L 281.102901 46.563287 
L 281.16525 46.675431 
L 281.122695 46.967369 
L 280.821836 47.448245 
L 280.669427 47.832214 
L 280.470504 48.027855 
L 280.125211 48.4754 
L 279.71981 48.442174 
L 279.255279 48.755986 
L 279.138856 49.168525 
L 278.789634 49.351054 
L 277.702405 50.139075 
L 277.484145 50.465835 
L 277.093525 50.552081 
L 276.806322 50.623208 
L 276.488083 50.694916 
L 276.355468 50.732704 
L 276.298067 50.763787 
L 276.11201 50.92286 
L 276.074403 50.987464 
L 276.026899 51.097169 
L 275.912097 51.122158 
L 275.769585 51.116673 
L 275.605336 51.467625 
L 274.065378 52.07111 
L 271.604076 53.120625 
L 271.35468 53.364415 
L 270.653996 53.809941 
L 269.746471 54.167703 
L 269.389201 54.417587 
L 269.061621 54.83203 
L 268.47178 55.793781 
L 268.123417 56.244792 
L 267.725571 56.589146 
L 266.871488 57.024311 
L 266.377644 57.155348 
L 265.546324 57.232751 
L 264.728858 57.430221 
L 264.481442 57.571009 
L 264.362682 57.602702 
L 263.947021 57.585637 
L 261.569841 58.259106 
L 260.534649 58.329805 
L 257.480536 59.395776 
L 256.625464 59.569477 
L 256.531446 59.641395 
L 256.317677 59.999156 
L 256.271163 60.114347 
L 256.209804 60.200283 
L 256.080157 60.258793 
L 255.790185 60.094234 
L 255.700125 60.063151 
L 255.164715 60.07595 
L 254.654047 60.165543 
L 254.188903 60.361794 
L 253.860334 60.542808 
L 252.486676 61.814781 
L 251.82162 62.641229 
L 250.501404 63.90528 
L 250.265863 64.342882 
L 250.590474 64.518411 
L 250.938836 64.648839 
L 251.087287 64.641525 
L 251.146667 64.567169 
L 251.101142 64.456854 
L 250.938836 64.342882 
L 251.142708 64.35751 
L 251.307982 64.440398 
L 251.447525 64.564731 
L 251.738488 64.906037 
L 252.053202 65.149827 
L 252.203631 65.13459 
L 252.441151 65.212603 
L 252.425317 65.524654 
L 252.251135 65.836705 
L 252.132375 66.000044 
L 251.350538 66.215798 
L 251.014051 66.496156 
L 250.414313 67.377457 
L 250.050115 67.650501 
L 249.695815 67.774225 
L 249.305886 67.82603 
L 249.020862 67.39696 
L 249.606745 67.325651 
L 249.880882 67.507275 
L 250.282687 67.273237 
L 250.726058 66.623537 
L 250.480621 66.586968 
L 250.112464 66.616223 
L 249.109932 66.923398 
L 248.871422 67.073938 
L 248.66854 67.278112 
L 248.486441 67.543234 
L 248.108388 68.411735 
L 247.912434 68.863356 
L 247.694708 69.150419 
L 247.484898 69.365563 
L 247.320613 69.614229 
L 247.24144 69.998198 
L 246.926726 70.300497 
L 246.079571 71.848563 
L 245.938048 72.006417 
L 245.611458 72.258739 
L 245.450143 72.419641 
L 245.035472 72.973653 
L 244.312025 73.546559 
L 243.573734 74.934943 
L 243.239226 75.271982 
L 242.620684 75.637667 
L 242.308444 76.072832 
L 241.780457 77.135146 
L 241.467227 77.586767 
L 240.705678 78.393711 
L 239.45078 80.378161 
L 239.385957 80.535405 
L 239.357752 80.896214 
L 239.275114 81.147318 
L 239.142499 81.337474 
L 238.852032 81.642211 
L 238.685273 81.86406 
L 238.537812 82.126744 
L 238.472989 82.379676 
L 238.392826 82.566175 
L 238.012794 83.095809 
L 237.883642 83.362149 
L 237.795599 83.898599 
L 237.833564 84.643503 
L 237.916301 85.280775 
L 238.151347 86.271172 
L 238.913101 87.8673 
L 239.045455 88.108607 
L 239.195341 88.370686 
L 239.044975 88.469447 
L 238.870771 88.603801 
L 238.939807 88.876734 
L 239.059009 89.420028 
L 239.261816 89.915688 
L 239.577837 90.461378 
L 239.894151 91.062252 
L 240.348408 91.826533 
L 240.527538 92.045335 
L 240.981795 92.391516 
L 241.439022 92.850451 
L 241.697325 93.046092 
L 242.027874 93.126543 
L 242.583077 93.179567 
L 243.165991 93.342297 
L 243.688535 93.625702 
L 244.069557 94.037098 
L 244.017104 94.061477 
L 243.894386 94.148632 
L 244.039867 94.212627 
L 244.135865 94.311361 
L 244.465424 94.567341 
L 244.585173 94.536258 
L 244.662367 94.720928 
L 244.668305 94.954967 
L 244.585173 95.070157 
L 244.35755 95.082956 
L 244.151699 95.132324 
L 243.965642 95.228011 
L 243.79344 95.385256 
L 243.650928 95.700964 
L 243.627176 95.738751 
L 243.579672 95.792385 
L 243.34512 95.805184 
L 243.25803 95.845409 
L 243.096714 95.998997 
L 242.955192 96.072743 
L 242.825545 96.172697 
L 242.705301 96.408564 
L 242.795855 96.62127 
L 242.550913 96.56398 
L 242.383164 96.602986 
L 242.221848 96.675514 
L 241.998678 96.71513 
L 241.63646 96.720005 
L 241.465743 96.776077 
L 241.293541 96.910161 
L 241.150039 97.156389 
L 241.14608 97.373972 
L 241.163894 97.580584 
L 241.08571 97.7939 
L 240.898663 97.985275 
L 240.719039 98.054145 
L 240.213814 98.054145 
L 239.663559 98.175431 
L 239.357752 98.290012 
L 238.970792 98.55879 
L 237.809912 99.032352 
L 237.625834 99.158513 
L 237.54963 99.332214 
L 237.453632 99.393161 
L 237.010261 99.875256 
L 236.877646 100.098323 
L 236.828162 100.390871 
L 236.830142 100.546287 
L 236.785112 100.608454 
L 236.393698 100.629176 
L 236.219517 100.679762 
L 236.093334 100.802267 
L 236.047315 101.028991 
L 235.61582 101.004612 
L 235.506957 101.59946 
L 235.686581 102.968949 
L 235.547533 103.144478 
L 235.335744 103.194455 
L 234.898311 103.163981 
L 234.624174 103.232242 
L 234.403973 103.405942 
L 234.231276 103.639981 
L 234.101135 103.888646 
L 234.02394 104.100744 
L 233.971983 104.334782 
L 233.935365 104.967417 
L 233.880934 105.956594 
L 233.856192 106.232686 
L 233.748318 106.367989 
L 233.425687 106.489884 
L 233.195589 106.727579 
L 233.079303 106.926268 
L 232.590408 108.11962 
L 232.564676 108.363409 
L 232.566656 108.381694 
L 232.621087 108.97776 
L 232.564676 109.126472 
L 232.233138 108.726656 
L 231.936238 109.516536 
L 231.776406 109.646963 
L 231.505732 109.726195 
L 231.404786 109.929759 
L 231.447342 110.210118 
L 231.846178 110.91528 
L 231.966422 111.062163 
L 232.358331 111.313876 
L 232.636922 111.445523 
L 232.87939 111.474778 
L 232.981326 111.292545 
L 233.205981 111.419925 
L 233.288123 111.594844 
L 233.23864 111.771592 
L 233.063469 111.906286 
L 232.964007 112.012944 
L 232.857618 112.072672 
L 232.747765 112.072672 
L 232.640386 111.999535 
L 232.524595 112.070234 
L 232.190582 112.192129 
L 231.990175 112.23723 
L 231.644286 112.417635 
L 231.188544 112.417635 
L 231.032672 112.449328 
L 230.863438 112.52795 
L 230.565054 112.72481 
L 230.461139 112.648016 
L 229.977192 112.417635 
L 229.576871 112.34206 
L 228.804436 112.324995 
L 228.587699 112.350593 
L 228.397188 112.417635 
L 228.260614 112.533435 
L 228.195791 112.677881 
L 228.233893 112.822326 
L 228.368694 113.080688 
L 227.986774 112.992829 
L 227.623335 112.906633 
L 227.5461 112.73707 
L 227.483144 112.605146 
L 227.225978 112.564984 
L 226.870132 112.422511 
L 226.703458 112.375685 
L 226.521432 112.558263 
L 226.472742 112.698343 
L 226.13085 112.687023 
L 225.717973 112.633493 
L 225.35891 112.814403 
L 225.16543 112.942393 
L 224.624082 113.464103 
L 224.4212 113.590264 
L 224.179721 113.64146 
L 224.114898 113.671324 
L 224.018406 113.742023 
L 223.928346 113.827959 
L 223.889254 113.897439 
L 223.85808 113.970576 
L 223.728928 114.464251 
L 223.716062 114.562376 
L 223.611652 114.643436 
L 223.540396 114.621495 
L 223.475078 114.570299 
L 223.391946 114.562376 
L 223.283578 114.630637 
L 223.042594 114.835421 
L 222.930267 114.877475 
L 222.750642 114.910996 
L 222.130616 115.175508 
L 221.852194 115.343909 
L 221.799953 115.520496 
L 221.715732 115.640142 
L 221.496239 115.609454 
L 221.383417 115.742319 
L 221.31513 116.003784 
L 221.154804 116.311569 
L 220.795555 116.821089 
L 220.08151 117.52808 
L 219.771249 117.949837 
L 219.556986 118.559311 
L 219.466926 119.079803 
L 219.319961 119.486932 
L 219.254643 119.903812 
L 218.892425 120.819243 
L 218.635606 121.236733 
L 218.625215 121.421404 
L 218.659358 121.554879 
L 218.703893 121.668851 
L 218.726161 121.799279 
L 218.705872 121.932144 
L 218.646492 122.010157 
L 218.553464 122.046725 
L 218.28081 122.066838 
L 218.206585 122.101578 
L 218.055166 122.25029 
L 217.62862 122.541619 
L 217.459882 122.743355 
L 217.335183 123.361362 
L 217.192671 123.541157 
L 217.001666 123.682555 
L 216.802248 123.895871 
L 216.755238 124.010453 
L 216.692395 124.293249 
L 216.628561 124.416363 
L 216.517224 124.487062 
L 216.382134 124.522411 
L 216.267827 124.568731 
L 216.143129 124.853966 
L 215.953113 124.99963 
L 215.709655 125.096537 
L 215.47362 125.131886 
L 215.017383 124.988659 
L 214.676443 124.644916 
L 214.379048 124.235958 
L 214.054932 123.895871 
L 213.622447 123.628922 
L 213.369587 123.533843 
L 213.095449 123.496056 
L 212.869805 123.541157 
L 212.474928 123.74716 
L 212.227016 123.803231 
L 212.114689 123.772758 
L 211.785625 123.631359 
L 211.639154 123.598448 
L 210.674229 123.765444 
L 210.478275 123.877587 
L 210.237291 124.449884 
L 209.988389 125.119087 
L 209.678129 125.439671 
L 209.618749 125.482334 
L 209.481185 125.622513 
L 209.171419 125.754769 
L 208.759223 125.813888 
L 208.541001 125.733438 
L 208.2921 125.838877 
L 207.972437 125.625561 
L 207.733433 125.435404 
L 207.509768 125.33667 
L 207.40041 125.368972 
L 207.290062 125.508541 
L 207.17823 125.541453 
L 207.050562 125.470754 
L 206.718034 125.029494 
L 206.379073 124.79119 
L 206.144522 124.771077 
L 205.482217 124.988945 
L 204.403114 124.799508 
L 203.427097 124.877853 
L 202.561432 124.723538 
L 201.324843 124.87225 
L 201.144724 124.991707 
L 200.975491 125.156265 
L 200.726589 125.33667 
L 200.284158 125.611938 
L 199.524732 125.603255 
L 199.05823 125.229535 
L 198.81382 125.26908 
L 198.646348 125.359456 
L 198.201619 125.146663 
L 198.022869 124.907442 
L 197.641989 124.926474 
L 197.237673 124.955072 
L 197.065526 125.113282 
L 196.439732 125.183839 
L 195.562293 124.90858 
L 195.135341 124.76635 
L 194.516302 124.894889 
L 193.646589 125.143465 
L 192.482167 124.82593 
L 192.199465 124.892255 
L 191.832029 125.159344 
L 190.775981 125.314119 
L 190.438999 125.35922 
L 188.268659 125.187348 
L 188.060334 125.247077 
L 187.902977 125.384818 
L 187.563522 125.972352 
L 187.494245 126.098513 
L 187.32897 126.27587 
L 187.199324 126.493452 
L 187.147861 126.734804 
L 186.789411 127.33148 
L 186.023585 127.434795 
L 185.692544 128.082791 
L 185.269473 128.359054 
L 185.154672 128.426097 
L 184.898843 128.528488 
L 184.382237 128.645508 
L 183.878001 128.63088 
L 182.466241 128.455351 
L 182.194577 128.442552 
L 182.078786 128.48034 
L 181.940728 128.587607 
L 181.081749 129.183135 
L 180.250871 129.256201 
L 179.68874 129.603602 
L 179.538806 129.655407 
L 179.09395 129.70965 
L 178.898986 129.777302 
L 178.742123 129.870552 
L 178.582787 130.08082 
L 178.248774 130.668354 
L 178.238878 130.809143 
L 178.035006 131.355232 
L 177.926143 131.579519 
L 177.865773 131.64778 
L 177.776703 131.729449 
L 177.677242 131.797711 
L 177.476834 131.874504 
L 177.490195 131.987867 
L 177.541162 132.12317 
L 177.403599 132.324297 
L 177.005753 133.061761 
L 176.948352 133.216568 
L 176.890972 133.91594 
L 176.652454 133.916093 
L 176.552485 133.585909 
L 176.359005 133.448777 
L 176.072496 133.345167 
L 175.836956 133.337244 
L 175.797369 133.483517 
L 175.685537 133.610898 
L 175.6316 133.801054 
L 175.641991 134.01437 
L 175.722154 134.209402 
L 175.66129 134.319107 
L 175.694444 134.551317 
L 175.761741 134.697591 
L 175.797369 134.819486 
L 175.759267 134.987701 
L 175.67663 135.088874 
L 175.593003 135.169324 
L 175.337669 135.269888 
L 174.120378 135.705662 
L 173.945207 135.820243 
L 173.571113 135.932996 
L 173.352891 135.478938 
L 172.842223 135.191265 
L 172.627465 135.024269 
L 172.338482 135.131537 
L 172.086117 135.046211 
L 171.845628 134.897499 
L 171.330011 134.748787 
L 171.144944 134.579353 
L 170.883672 134.196603 
L 170.091443 133.425008 
L 169.856892 133.272639 
L 169.592156 133.276296 
L 169.049818 133.378688 
L 168.402576 133.19097 
L 168.089841 132.775917 
L 167.850342 132.274929 
L 167.576204 131.825137 
L 166.910653 131.471642 
L 166.831479 131.255888 
L 166.800305 131.007222 
L 166.719152 130.733568 
L 166.609794 130.476979 
L 166.194134 130.001589 
L 165.906141 129.342137 
L 165.723052 128.893564 
L 165.449409 128.371244 
L 165.184178 128.151224 
L 165.079769 128.029329 
L 165.229703 127.959849 
L 165.330649 127.98179 
L 165.718104 128.334066 
L 165.822019 128.469369 
L 165.75967 128.59614 
L 165.850224 128.740586 
L 166.034797 128.949635 
L 166.185722 128.915505 
L 166.277761 128.832007 
L 166.408397 128.632709 
L 166.668679 128.337723 
L 166.582083 128.327362 
L 166.334667 128.407203 
L 166.121393 128.377948 
L 166.022921 128.148176 
L 166.101105 127.69168 
L 165.993231 127.405836 
L 165.405864 126.857309 
L 165.276218 126.790267 
L 164.450835 126.734804 
L 164.231129 126.679342 
L 164.05002 126.489796 
L 163.90058 125.893729 
L 163.770934 125.605448 
L 163.601701 125.326308 
L 163.524507 125.04595 
L 163.579928 124.777781 
L 163.808541 124.531553 
L 164.030227 124.42002 
L 164.485473 124.259118 
L 164.646789 124.121987 
L 164.773467 123.773367 
L 164.669552 123.149265 
L 164.736849 122.792722 
L 165.14855 122.441055 
L 166.134754 122.514192 
L 166.480642 122.068057 
L 166.247081 122.224082 
L 165.935336 122.348415 
L 165.62656 122.355729 
L 165.40141 122.160697 
L 164.886289 122.359386 
L 164.657676 122.530039 
L 164.563657 122.844528 
L 164.633924 123.748988 
L 164.563657 123.918422 
L 164.131173 123.924517 
L 163.787758 123.480819 
L 163.393871 122.486156 
L 163.120722 122.015642 
L 162.774339 121.655443 
L 159.791482 119.532642 
L 159.467861 119.361989 
L 159.185806 119.287633 
L 158.977976 119.198041 
L 158.476215 118.787864 
L 158.229787 118.674502 
L 157.991278 118.556264 
L 157.772561 118.221053 
L 157.690419 117.82977 
L 157.774046 117.642052 
L 157.920022 117.519547 
L 158.341125 116.894226 
L 158.480173 116.629105 
L 157.862621 117.312935 
L 157.526134 117.548193 
L 157.144123 117.548802 
L 157.144123 117.642052 
L 157.409353 118.045524 
L 157.539 118.307598 
L 157.558793 118.469718 
L 157.398467 118.488612 
L 156.331606 117.972997 
L 155.938708 117.846835 
L 155.459991 117.692316 
L 155.140047 117.834646 
L 155.484946 117.877309 
L 155.648241 117.958369 
L 152.701507 118.032116 
L 152.516439 118.111957 
L 152.275455 118.329539 
L 152.050306 118.356356 
L 151.842476 118.273468 
L 151.648996 118.163153 
L 151.466961 117.505152 
L 151.407888 117.166899 
L 151.488957 116.939334 
L 151.368925 116.447823 
L 151.277173 115.258134 
L 151.067274 114.792167 
L 151.094297 114.623427 
L 151.059105 114.294077 
L 150.986834 113.927959 
L 150.900738 113.648146 
L 150.833495 113.556423 
L 150.624854 113.387297 
L 150.531216 113.290543 
L 150.430517 113.137621 
L 150.420611 113.122578 
L 150.394845 113.035112 
L 150.384162 112.933714 
L 150.320375 112.728208 
L 150.272614 112.73053 
L 150.254075 112.712727 
L 150.247162 112.555986 
L 150.286125 112.495611 
L 150.415584 112.349706 
L 150.430038 112.275786 
L 150.455804 112.208445 
L 150.46523 112.134912 
L 150.433808 112.043189 
L 150.548813 111.968495 
L 150.869945 111.631791 
L 150.953527 111.511428 
L 151.017628 111.285798 
L 151.124462 110.565173 
L 151.289113 110.114686 
L 151.504039 109.808169 
L 152.622032 108.889779 
L 152.956989 108.308094 
L 153.091475 107.797232 
L 153.357933 107.09828 
L 153.422034 106.833174 
L 153.416378 106.680303 
L 153.3793 106.537881 
L 153.372387 106.417131 
L 153.45597 106.328118 
L 153.842459 106.251488 
L 153.973175 106.165184 
L 154.130913 106.177181 
L 154.285509 106.223623 
L 154.435706 106.2422 
L 154.586531 106.165184 
L 154.746154 106.120677 
L 154.837278 106.063011 
L 154.962966 105.899303 
L 155.083626 105.587755 
L 155.189832 105.473585 
L 155.400359 105.49371 
L 156.088499 105.77004 
L 156.397063 105.734821 
L 156.496984 105.371413 
L 156.61136 105.184097 
L 156.717566 104.730514 
L 156.944433 104.276157 
L 157.108455 103.776131 
L 157.203978 103.553984 
L 157.327152 103.127492 
L 157.289796 103.101282 
L 157.124166 102.98507 
L 156.784809 103.012935 
L 156.468076 103.106593 
L 156.432884 103.103497 
L 156.367526 103.082598 
L 156.217958 103.283459 
L 155.921963 103.413497 
L 155.614656 103.475807 
L 155.429895 103.47271 
L 155.265077 103.322255 
L 155.145841 103.213409 
L 154.655659 101.997404 
L 154.592187 101.930837 
L 154.384802 101.781062 
L 154.30122 101.696692 
L 154.248431 101.603421 
L 154.169876 101.404108 
L 154.118344 101.316642 
L 152.83193 99.713233 
L 152.486917 99.467865 
L 152.320381 99.386978 
L 152.495087 99.20779 
L 152.612605 99.041373 
L 152.625802 98.867989 
L 152.48566 98.671385 
L 152.605064 98.495679 
L 152.825017 97.740997 
L 153.334053 97.0285 
L 153.400039 96.820672 
L 153.362332 96.705341 
L 153.29069 96.652707 
L 153.21025 96.607813 
L 153.150549 96.514155 
L 153.131695 96.394954 
L 153.126039 96.242857 
L 153.150549 95.901121 
L 153.234131 95.389486 
L 153.274979 95.281895 
L 153.378672 95.082582 
L 153.400039 95.026077 
L 153.941833 94.597298 
L 154.116459 94.459098 
L 154.299963 94.389822 
L 154.502948 94.226501 
L 154.667599 94.038798 
L 154.735471 93.896763 
L 154.85236 93.80117 
L 155.413556 93.682743 
L 155.610257 93.590246 
L 155.75794 93.442406 
L 155.90688 93.324366 
L 156.006802 93.263991 
L 155.992348 93.049971 
L 156.053935 92.816988 
L 155.885513 92.523242 
L 156.147572 92.313092 
L 156.419686 91.950071 
L 156.826915 91.187648 
L 156.946318 91.037099 
L 157.013561 90.885389 
L 156.994079 90.749546 
L 156.855194 90.64389 
L 156.939405 90.387685 
L 156.862736 90.094327 
L 156.692429 89.825738 
L 156.496984 89.644227 
L 156.216701 89.45962 
L 155.899339 89.375251 
L 155.578835 89.410082 
L 155.287868 89.579982 
L 155.140814 89.634165 
L 154.955424 89.60359 
L 154.776948 89.514963 
L 154.651888 89.394601 
L 154.634921 89.269208 
L 154.76815 88.976624 
L 154.793916 88.824913 
L 154.644976 88.538521 
L 154.359036 88.410806 
L 154.021564 88.325662 
L 153.719914 88.163889 
L 153.550236 87.929357 
L 153.456598 87.629032 
L 153.474194 87.314775 
L 153.638217 87.040768 
L 153.034916 86.332527 
L 152.806164 86.15837 
L 152.716297 85.981891 
L 152.658481 85.662989 
L 152.652197 85.331703 
L 152.715669 85.120392 
L 152.811192 84.904437 
L 152.874664 84.562314 
L 152.875921 84.242639 
L 152.786054 84.09325 
L 152.275134 83.963213 
L 152.016845 83.844786 
L 151.831456 83.700042 
L 151.715823 83.371852 
L 151.610874 83.242588 
L 151.199875 83.038244 
L 150.996261 82.852476 
L 150.63428 82.391152 
L 150.415584 82.20074 
L 150.021553 81.16044 
L 149.928774 80.95083 
L 149.911576 80.911976 
L 152.536564 81.031177 
L 152.701843 80.987057 
L 152.901687 80.904235 
L 153.128553 80.859341 
L 153.613708 80.874048 
L 153.821721 80.811351 
L 154.085665 80.966158 
L 154.464614 80.982413 
L 156.253779 80.770328 
L 156.431627 80.699117 
L 156.571768 80.377893 
L 156.558571 80.26798 
L 156.52275 80.165808 
L 156.526521 80.026482 
L 156.582452 79.885608 
L 156.727621 79.64024 
L 156.773497 79.497818 
L 156.754644 79.372424 
L 156.702484 79.234646 
L 156.685516 79.073648 
L 156.773497 78.870851 
L 156.868391 78.794996 
L 157.14679 78.684309 
L 157.262423 78.61929 
L 157.568472 78.184284 
L 157.609949 78.03954 
L 157.619376 77.788753 
L 157.640114 77.656393 
L 157.642628 77.581312 
L 157.599266 77.430376 
L 157.598009 77.345232 
L 157.63383 77.277891 
L 157.751976 77.192748 
L 157.789054 77.134695 
L 157.860068 76.764708 
L 157.907829 76.6308 
L 157.885205 76.468253 
L 157.942393 76.308802 
L 158.151663 75.97829 
L 157.662738 75.143883 
L 157.392509 74.822659 
L 157.22723 74.574195 
L 157.097143 74.463508 
L 156.966428 74.417066 
L 156.644039 74.37372 
L 156.496984 74.332696 
L 156.352443 74.129126 
L 156.26509 73.618264 
L 156.16454 73.399213 
L 156.268233 73.224281 
L 156.387636 72.877515 
L 156.496984 72.738189 
L 156.715681 72.645305 
L 157.239799 72.320985 
L 157.39286 72.296725 
L 157.474206 72.283832 
L 157.712385 72.30473 
L 157.948049 72.28925 
L 158.171773 72.142958 
L 158.207594 72.05317 
L 158.214845 71.93409 
L 158.222677 71.805479 
L 158.267296 71.689374 
L 158.343337 71.608101 
L 158.868083 71.242757 
L 158.975546 71.138263 
L 159.188587 70.777564 
L 158.779473 70.415316 
L 158.497304 69.981858 
L 158.426291 69.493443 
L 158.650643 68.967875 
L 158.934698 68.588599 
L 158.968633 68.407475 
L 158.901391 68.148948 
L 158.773817 67.944604 
L 158.637446 67.809148 
L 158.532497 67.656663 
L 158.507359 67.39504 
L 158.580258 67.162056 
L 158.861799 66.676738 
L 158.947267 66.422081 
L 158.947895 66.240183 
L 158.923386 65.973142 
L 158.825349 65.470795 
L 158.671382 64.98238 
L 158.644988 64.769521 
L 158.644988 64.479259 
L 158.667611 64.331418 
L 158.700919 64.249371 
L 158.713487 64.165775 
L 158.673267 64.008647 
L 158.658185 63.90957 
L 158.675153 63.530294 
L 158.873739 63.470694 
L 158.924014 63.28183 
L 158.863684 63.083677 
L 158.731084 62.996212 
L 158.548836 62.951318 
L 158.448915 62.826698 
L 158.347108 62.510893 
L 158.085049 61.902503 
L 157.914113 61.635462 
L 157.532651 61.256186 
L 157.413248 61.086673 
L 157.38811 60.897809 
L 157.518197 60.701204 
L 157.565958 60.419456 
L 157.571055 60.417019 
L 157.821733 60.297159 
L 158.570203 60.359856 
L 158.902019 60.326572 
L 159.067927 60.17254 
L 159.549311 59.506872 
L 159.649861 59.234412 
L 159.619696 58.864424 
L 159.665572 58.758382 
L 159.82331 58.569518 
L 160.252534 58.226621 
L 160.321662 58.105098 
L 160.412785 57.881403 
L 160.845151 57.275335 
L 160.985921 57.129043 
L 161.201476 57.094211 
L 161.997079 57.082601 
L 162.107056 57.009068 
L 162.819705 56.719579 
L 163.217507 56.432413 
L 163.608396 56.059329 
L 163.990487 55.483449 
L 164.040133 55.469516 
L 164.189702 55.497382 
L 164.23872 55.483449 
L 164.268256 55.400627 
L 164.282711 55.283748 
L 164.275169 55.193187 
L 164.23872 55.18622 
L 164.395829 55.068567 
L 164.564879 55.007419 
L 164.944456 54.981102 
L 164.945713 54.852612 
L 165.408873 54.162949 
L 165.414529 54.063099 
L 165.38185 53.963248 
L 165.373052 53.844821 
L 165.45035 53.693111 
L 165.765197 53.38582 
L 166.345246 52.595532 
L 166.221444 52.448466 
L 166.051765 52.226706 
L 165.538959 51.727455 
L 164.993475 51.399265 
L 164.3996 51.197629 
L 163.412951 51.008378 
L 163.245787 51.003734 
L 163.161576 51.071075 
L 163.081136 51.162798 
L 162.9146 51.269614 
L 162.732352 51.355145 
L 162.606036 51.387654 
L 162.264166 51.268066 
L 162.097001 51.028503 
L 162.033529 50.735532 
L 162.002107 50.457267 
L 161.946176 50.316393 
L 161.865107 50.187516 
L 161.828029 50.057479 
L 161.899671 49.915444 
L 161.986396 49.791212 
L 162.037928 49.650725 
L 162.334551 48.426979 
L 162.474693 48.144844 
L 162.160473 48.04809 
L 161.943662 48.018289 
L 161.847511 47.913021 
L 161.946804 47.266316 
L 161.897786 47.018626 
L 161.733763 46.838276 
L 161.437769 46.723332 
L 161.275632 47.043395 
L 160.862747 47.161435 
L 159.996759 47.194718 
L 159.632893 47.094094 
L 159.189215 46.46287 
L 158.817808 46.402109 
L 158.741139 46.848726 
L 158.452685 47.013595 
L 157.696674 47.07126 
L 157.35606 47.007402 
L 157.059437 46.792608 
L 156.889936 46.713257 
L 156.781667 46.662571 
L 156.496984 46.852983 
L 156.065247 47.027527 
L 155.682528 46.866141 
L 155.312377 46.572009 
L 154.92086 46.346378 
L 154.746154 46.372696 
L 154.532485 46.482995 
L 154.346467 46.614194 
L 154.257229 46.702433 
L 154.230835 46.911809 
L 154.309389 47.396741 
L 154.281738 47.634369 
L 154.143247 47.819195 
L 154.029734 47.970686 
L 153.630676 48.200574 
L 152.767201 48.474582 
L 152.547876 48.507478 
L 152.106084 48.495094 
L 151.922579 48.524894 
L 151.758557 48.627453 
L 151.465076 48.937453 
L 151.304824 49.065556 
L 151.253292 48.827541 
L 151.136403 48.567079 
L 150.98055 48.367765 
L 150.8115 48.312809 
L 150.693353 48.302359 
L 150.509221 48.181997 
L 150.415584 48.181223 
L 150.325088 48.253595 
L 150.301208 48.343383 
L 150.288011 48.445168 
L 150.224538 48.553146 
L 150.040406 48.674669 
L 149.792172 48.75633 
L 149.533256 48.791935 
L 149.31833 48.772197 
L 149.122257 48.670412 
L 149.114716 48.529538 
L 149.302619 48.058539 
L 148.648414 48.032609 
L 148.435373 47.936242 
L 148.09853 47.712933 
L 147.908113 47.668039 
L 147.566243 47.830973 
L 146.812116 47.999325 
L 146.482815 47.980749 
L 146.355242 48.019837 
L 146.298054 48.102272 
L 146.255948 48.199413 
L 146.171737 48.287653 
L 145.785248 48.286879 
L 145.702922 47.854194 
L 145.669615 47.449375 
L 145.43018 47.534519 
L 145.372992 47.706741 
L 145.313919 47.957141 
L 145.199543 48.15181 
L 144.973305 48.156841 
L 144.777861 48.127041 
L 144.60504 48.200961 
L 144.4561 48.346479 
L 144.336697 48.527216 
L 143.93701 48.909201 
L 143.914245 48.915235 
L 143.390897 49.053945 
L 142.343918 48.994345 
L 142.347669 48.965771 
L 142.394821 48.606554 
L 142.374711 48.408015 
L 142.282959 48.289975 
L 141.847451 48.133233 
L 141.709823 47.865805 
L 141.728048 47.586766 
L 141.843681 47.316629 
L 142.31281 46.67689 
L 142.667564 46.356441 
L 143.020746 46.145517 
L 143.213991 45.995742 
L 143.343764 45.807265 
L 143.371415 45.546028 
L 143.27275 45.323107 
L 143.087361 45.157464 
L 142.85421 45.066902 
L 142.601578 45.089736 
L 142.385395 45.181459 
L 142.201262 45.229062 
L 142.046666 45.117214 
L 142.005818 44.874168 
L 142.042896 44.229786 
L 141.932605 44.001833 
L 141.823571 43.857863 
L 141.459076 44.0982 
L 141.23598 44.181796 
L 141.027339 44.19031 
L 140.935587 44.210435 
L 140.827495 44.274292 
L 140.515161 44.534755 
L 140.310919 44.635766 
L 138.432516 44.914418 
L 138.203764 44.994917 
L 137.785224 45.259249 
L 137.561814 45.344006 
L 137.116565 45.355229 
L 136.904153 45.394705 
L 136.697397 45.537514 
L 136.591819 45.688063 
L 136.462361 46.010835 
L 136.36998 46.161772 
L 136.121118 46.314643 
L 135.808156 46.402109 
L 135.533528 46.531759 
L 135.397177 46.623625 
L 135.261592 46.869244 
L 135.077514 47.100234 
L 134.854839 47.272106 
L 134.604453 47.339149 
L 134.399592 47.447635 
L 134.205618 47.664608 
L 134.012632 47.823071 
L 133.81074 47.757248 
L 133.84142 47.550027 
L 133.599941 44.634909 
L 133.637549 44.375273 
L 133.770164 44.271053 
L 134.252132 44.26252 
L 134.476291 44.204011 
L 134.566846 44.06627 
L 134.510435 43.948031 
L 134.278853 43.84564 
L 134.22739 43.749952 
L 134.28776 43.698147 
L 134.604453 43.545169 
L 134.635133 43.482393 
L 134.664823 43.340995 
L 134.728657 43.200816 
L 134.856819 43.13743 
L 134.912735 43.095376 
L 135.139863 42.830255 
L 135.777209 42.379244 
L 135.936545 42.318296 
L 135.991967 42.286604 
L 136.380906 41.951392 
L 136.598633 41.870332 
L 136.84506 41.713088 
L 136.925223 41.636294 
L 136.967779 41.512571 
L 136.967779 41.054246 
L 136.954913 40.954292 
L 136.909388 40.941493 
L 136.808442 40.970748 
L 136.624364 41.132259 
L 136.492243 41.413836 
L 136.321526 41.680176 
L 136.020172 41.797805 
L 135.773745 41.851439 
L 135.116111 42.129969 
L 134.981517 42.263443 
L 134.850386 42.29087 
L 134.211556 42.250035 
L 133.977994 42.318296 
L 134.025003 42.129969 
L 134.149206 41.799024 
L 134.151186 41.593021 
L 134.22739 41.593021 
L 134.397613 41.828279 
L 134.467879 41.714916 
L 134.476291 41.230384 
L 134.452045 41.10788 
L 134.425324 41.042056 
L 134.467384 41.004269 
L 134.642556 40.970748 
L 135.079494 41.063997 
L 135.139863 41.0256 
L 135.228933 40.831178 
L 135.688139 40.336285 
L 135.895474 40.161975 
L 136.296289 39.921232 
L 136.470966 39.764597 
L 136.559046 39.548234 
L 136.448203 39.59882 
L 136.349237 39.592116 
L 136.227508 39.548234 
L 136.121118 39.559204 
L 136.082026 39.573832 
L 136.054316 39.59882 
L 135.786116 39.748751 
L 135.484267 39.969381 
L 135.314045 40.059583 
L 135.049804 40.124187 
L 134.664823 40.157099 
L 134.268956 40.111998 
L 133.977994 39.94744 
L 133.878038 39.778615 
L 133.823111 39.493381 
L 133.728598 39.334308 
L 133.571241 39.253858 
L 133.151622 39.188034 
L 133.064531 39.129525 
L 133.15657 38.983251 
L 133.379245 38.855261 
L 133.631611 38.761402 
L 133.81074 38.721177 
L 133.959685 38.768716 
L 134.059147 38.894268 
L 134.055188 39.035666 
L 133.894862 39.129525 
L 134.001746 39.19352 
L 134.171969 39.257514 
L 134.349119 39.284941 
L 134.476291 39.241059 
L 134.52528 39.083814 
L 134.492621 38.907676 
L 134.494106 38.745556 
L 134.642556 38.628537 
L 134.492621 38.109264 
L 134.476291 37.851456 
L 134.519342 37.628389 
L 134.63068 37.449813 
L 134.779624 37.332184 
L 134.939951 37.288911 
L 135.096813 37.101193 
L 135.543648 36.182105 
L 135.638656 35.847504 
L 135.562946 35.847504 
L 135.479319 36.087027 
L 135.359569 36.319847 
L 135.196274 36.495375 
L 134.981517 36.564246 
L 134.752409 36.483795 
L 134.604453 36.295468 
L 134.479755 36.061429 
L 134.31844 35.937096 
L 134.134856 36.249757 
L 134.105661 36.436256 
L 134.22739 36.564246 
L 133.962654 36.909818 
L 133.819647 36.995144 
L 133.645466 36.870812 
L 133.710784 36.713567 
L 133.541056 36.790361 
L 133.140241 37.075595 
L 133.312443 37.266361 
L 133.169436 37.369362 
L 132.732993 37.483943 
L 132.69786 37.562565 
L 132.600377 37.902652 
L 132.498442 37.937392 
L 132.402444 38.019671 
L 132.226283 38.209827 
L 132.046164 38.023938 
L 132.019443 37.749065 
L 131.961052 37.499789 
L 131.687904 37.390694 
L 131.504816 37.229792 
L 131.567165 36.867764 
L 131.741346 36.483795 
L 131.894745 36.257071 
L 131.886827 36.077885 
L 131.925424 35.854817 
L 132.000144 35.558613 
L 132.138203 35.378208 
L 132.196098 35.27216 
L 132.290612 35.16733 
L 132.433619 35.119791 
L 132.463803 35.088708 
L 132.815135 34.905865 
L 133.128365 34.509097 
L 133.312443 34.354291 
L 133.6039 34.291515 
L 133.688022 34.186076 
L 133.766205 33.951428 
L 133.732557 33.710076 
L 133.480192 33.585134 
L 133.429718 33.927658 
L 133.241187 34.138537 
L 132.962101 34.249461 
L 132.641943 34.291515 
L 132.023896 34.208017 
L 131.771531 34.254946 
L 131.811613 34.50544 
L 131.531537 34.779704 
L 131.378138 34.852841 
L 131.147546 34.812616 
L 130.98722 34.684626 
L 130.906067 34.490813 
L 130.840749 34.251289 
L 130.724958 33.984949 
L 130.876377 33.987387 
L 130.990189 33.931315 
L 131.0753 33.827095 
L 131.147546 33.677774 
L 131.048579 33.504683 
L 130.880336 33.401072 
L 130.649249 33.315746 
L 130.635888 33.198117 
L 130.572549 32.998819 
L 130.558694 32.911055 
L 130.583436 32.852545 
L 130.694279 32.737354 
L 130.724958 32.645933 
L 130.740793 32.51063 
L 130.730896 32.415552 
L 130.646774 32.357652 
L 130.437955 32.339367 
L 130.325133 32.276592 
L 130.135611 32.0005 
L 129.984687 31.939552 
L 129.984687 32.032192 
L 130.055943 32.193094 
L 129.985677 32.280248 
L 129.87137 32.307675 
L 129.81199 32.293047 
L 129.760033 32.093749 
L 129.639788 32.076074 
L 129.50173 32.155916 
L 129.39633 32.247337 
L 129.305776 32.375326 
L 129.184046 32.675797 
L 129.102399 32.808663 
L 129.045988 32.778189 
L 128.925743 32.42957 
L 128.81589 32.339367 
L 128.81589 32.247337 
L 128.896053 32.10411 
L 129.146934 31.475132 
L 129.156336 31.382492 
L 129.182562 31.263035 
L 129.221159 31.144797 
L 129.268168 31.06069 
L 129.314682 30.929043 
L 129.237488 30.832137 
L 129.057369 30.71207 
L 128.967309 30.356746 
L 129.06974 30.274467 
L 129.230066 30.268372 
L 129.313198 30.135507 
L 129.378516 29.862462 
L 129.521523 29.735082 
L 129.663045 29.641833 
L 129.720446 29.466304 
L 129.898586 29.607092 
L 130.058417 29.647927 
L 130.216269 29.599169 
L 130.39342 29.466304 
L 130.458738 29.387072 
L 130.491397 29.312716 
L 130.538901 29.239579 
L 130.649249 29.160348 
L 130.747721 29.114027 
L 130.836791 29.089648 
L 131.056497 29.066488 
L 131.056497 28.956174 
L 130.850646 29.045766 
L 130.577993 29.103057 
L 130.380554 29.087211 
L 130.39342 28.956174 
L 130.004975 29.135359 
L 129.832773 29.115246 
L 129.720446 28.853782 
L 130.298412 28.353403 
L 130.68933 28.162028 
L 131.145567 28.341823 
L 131.355376 28.338166 
L 131.574093 28.299769 
L 131.72947 28.239431 
L 131.882869 28.116927 
L 132.038741 28.032819 
L 132.162945 27.827426 
L 132.226283 27.604359 
L 132.317333 27.604359 
L 132.540008 27.782325 
L 132.865608 27.773183 
L 133.18725 27.656164 
L 133.397059 27.5105 
L 133.140241 27.524518 
L 132.997234 27.436753 
L 132.815135 27.102152 
L 132.761693 27.107027 
L 132.612253 27.032671 
L 132.512297 26.94125 
L 132.600377 26.897368 
L 132.721117 26.888226 
L 133.211992 26.690756 
L 133.728598 26.376267 
L 134.110609 26.284237 
L 134.201659 26.176969 
L 134.298151 26.103832 
L 134.434231 26.069701 
L 134.592083 26.150152 
L 134.974589 26.5006 
L 135.181429 26.581051 
L 135.401135 26.613353 
L 135.872217 26.753532 
L 136.098851 26.785834 
L 136.435832 26.669425 
L 136.865843 26.449404 
L 137.322079 26.324462 
L 137.73675 26.48902 
L 138.37459 26.214756 
L 138.477021 26.120897 
L 138.517102 25.988641 
L 138.616564 25.873451 
L 138.739283 25.793 
L 138.98571 25.738147 
L 139.038162 25.677809 
L 139.067852 25.608939 
L 139.140098 25.558962 
L 139.805649 25.400498 
L 139.849689 25.597968 
L 139.958553 25.743633 
L 140.227742 25.958777 
L 140.38312 25.789343 
L 140.42617 25.652821 
L 140.394006 25.298107 
L 140.505839 25.104294 
L 140.750286 25.142081 
L 141.103598 25.345036 
L 141.278274 25.399889 
L 141.355963 25.533364 
L 141.401487 25.703407 
L 141.480661 25.864918 
L 141.760736 26.116022 
L 141.885435 26.262905 
L 141.971536 26.48902 
L 142.065554 26.248887 
L 142.059616 26.017896 
L 141.971536 25.558962 
L 141.978463 25.32858 
L 142.036854 25.193277 
L 142.168974 25.087228 
L 142.394618 24.944611 
L 142.155614 24.841001 
L 141.933928 24.815403 
L 141.522227 24.843438 
L 141.307964 24.780053 
L 141.016507 24.496647 
L 140.816594 24.42412 
L 141.043723 24.260781 
L 142.270415 24.118164 
L 142.353547 24.091347 
L 142.442617 24.021257 
L 142.497049 23.922522 
L 142.47775 23.810988 
L 142.41837 23.800018 
L 142.1378 23.91338 
L 141.398518 24.024914 
L 141.443053 23.97189 
L 141.476702 23.94812 
L 141.563793 23.91338 
L 141.517278 23.874983 
L 141.398518 23.810988 
L 141.254027 24.00663 
L 141.013538 24.096223 
L 140.476643 24.118164 
L 140.571157 23.889611 
L 140.615692 23.573293 
L 140.677051 23.348397 
L 140.816594 23.401421 
L 140.975436 23.197857 
L 140.877459 23.118625 
L 140.779482 22.99734 
L 140.718617 22.847409 
L 140.725545 22.685898 
L 140.773544 22.685898 
L 140.984837 22.720029 
L 141.06599 22.685898 
L 141.353983 22.724904 
L 141.703336 22.560346 
L 143.47385 21.347492 
L 143.518385 21.512659 
L 143.620321 21.599814 
L 143.754916 21.611394 
L 143.896933 21.552275 
L 143.768771 21.559589 
L 143.730669 21.552275 
L 143.730669 21.458416 
L 143.782626 21.43038 
L 143.841017 21.381013 
L 143.896933 21.347492 
L 143.662382 21.176839 
L 143.628238 21.017156 
L 143.686629 20.856255 
L 143.730669 20.682555 
L 143.806378 20.554565 
L 143.986498 20.51434 
L 144.394241 20.519825 
L 144.756459 20.428404 
L 145.099873 20.244343 
L 145.401722 19.995067 
L 145.639737 19.70191 
L 145.976719 19.74823 
L 146.12022 19.963984 
L 146.212259 20.228496 
L 146.394358 20.426576 
L 146.394358 20.519825 
L 146.324092 20.483257 
L 146.202363 20.452173 
L 146.138034 20.426576 
L 146.052428 20.554565 
L 145.996017 20.68804 
L 145.989584 20.81603 
L 146.06282 20.928173 
L 145.937132 21.015938 
L 145.89804 21.000091 
L 145.806001 20.928173 
L 145.728807 20.998872 
L 145.696643 21.020813 
L 145.639737 21.040317 
L 145.639737 21.142708 
L 146.249867 21.171963 
L 146.361204 21.061039 
L 146.138034 20.733751 
L 146.278567 20.644158 
L 146.426522 20.638673 
L 146.726886 20.733751 
L 146.69967 20.684383 
L 146.668496 20.574678 
L 146.643259 20.519825 
L 146.813977 20.349782 
L 147.034673 20.184614 
L 147.278626 20.057843 
L 147.762078 19.9457 
L 148.020876 19.786627 
L 148.228211 19.57392 
L 148.311838 19.347805 
L 148.35192 19.296 
L 148.439505 19.340492 
L 148.525111 19.454463 
L 148.561234 19.60927 
L 148.509277 19.697034 
L 148.229201 20.007866 
L 148.222768 20.22362 
L 148.278684 20.287615 
L 148.370723 20.265674 
L 148.478102 20.221792 
L 148.497401 20.180957 
L 148.490473 20.10843 
L 148.510761 20.03895 
L 148.606264 20.007866 
L 148.686427 19.998724 
L 148.893268 19.906694 
L 148.934834 20.110258 
L 149.233713 20.631359 
L 149.198085 20.867226 
L 149.304969 20.828829 
L 149.457873 20.640501 
L 149.557334 20.426576 
L 149.704795 20.477771 
L 149.812668 20.399149 
L 149.929944 20.28213 
L 150.10462 20.221792 
L 150.583619 20.271159 
L 150.72811 20.316261 
L 151.731633 20.827 
L 152.224982 20.993996 
L 152.99049 22.214774 
L 153.566476 22.468925 
L 153.52491 22.530482 
L 153.499178 22.578631 
L 153.46454 22.620684 
L 153.392294 22.663348 
L 153.392294 22.775491 
L 153.5546 22.842533 
L 153.653072 22.801698 
L 153.745606 22.720638 
L 153.890592 22.663348 
L 154.068732 22.662738 
L 154.318623 22.740141 
L 154.779808 22.803527 
L 155.523048 22.777929 
L 155.72395 22.663348 
L 155.939698 22.768787 
L 156.150002 22.801698 
L 156.295483 22.897386 
L 156.313297 23.193591 
L 156.22967 23.358149 
L 156.100024 23.534896 
L 156.036685 23.743337 
L 156.146538 24.002973 
L 156.155445 24.002973 
L 156.222742 24.002973 
L 156.29103 23.759183 
L 156.329627 23.509298 
L 156.399893 23.304515 
L 156.562693 23.193591 
L 156.672051 22.842533 
L 157.370262 22.702963 
L 158.562316 22.663348 
L 158.747383 22.715762 
L 159.475778 22.663348 
L 159.97655 22.796213 
L 160.291759 22.829125 
L 160.961269 22.507322 
L 161.5808 22.564613 
L 162.202311 22.76513 
L 162.646177 22.980274 
L 162.773349 22.896167 
L 162.911903 22.865693 
L 163.219689 22.868131 
L 163.197917 22.797432 
L 163.167237 22.629826 
L 163.144969 22.562175 
L 163.312718 22.592648 
L 163.598732 22.74136 
L 163.770934 22.775491 
L 164.397393 22.663348 
L 165.023852 22.663348 
L 165.201003 22.633483 
L 165.518686 22.498789 
L 165.809648 22.432357 
L 165.883873 22.353734 
L 165.974923 22.278769 
L 166.140692 22.255 
L 166.527157 22.514636 
L 166.684514 22.562175 
L 167.628656 22.654815 
L 167.816693 22.562175 
L 168.008688 22.647501 
L 168.190787 22.574364 
L 168.372886 22.446375 
L 168.563892 22.366533 
L 169.976147 22.366533 
L 170.039485 22.230621 
L 169.958333 22.119696 
L 169.90687 22.000849 
L 170.058289 21.845433 
L 170.034537 21.796675 
L 170.000888 21.686969 
L 169.976147 21.641868 
L 170.368055 21.642477 
L 170.509577 21.572997 
L 170.564009 21.390155 
L 170.647141 21.250585 
L 170.840126 21.261556 
L 171.235498 21.437085 
L 171.49677 21.638821 
L 172.164796 22.350078 
L 172.39044 22.663348 
L 172.474067 22.663348 
L 172.537405 22.450641 
L 172.629444 22.514636 
L 172.771956 22.775491 
L 173.402869 22.868131 
L 175.851801 22.775491 
L 176.220946 22.863865 
L 176.259049 23.072305 
L 176.103176 23.31061 
L 175.893367 23.491014 
L 175.976994 23.593406 
L 176.101692 23.525145 
L 176.357521 23.445913 
L 176.481724 23.388622 
L 176.570794 23.291106 
L 176.605927 23.191153 
L 176.67174 23.11314 
L 176.852354 23.082666 
L 177.364012 23.127158 
L 177.556997 23.189934 
L 178.433842 23.71591 
L 178.847523 23.850604 
L 179.896075 23.896924 
L 180.187532 23.970061 
L 180.317179 24.161436 
L 180.463155 24.07611 
L 181.312784 24.308929 
L 181.410761 24.277236 
L 181.587911 24.139495 
L 181.727949 24.114507 
L 181.85908 24.148028 
L 182.134208 24.280893 
L 182.998682 24.443623 
L 183.990328 24.86477 
L 184.234281 24.933031 
L 186.941516 25.148176 
L 186.991989 25.152442 
L 187.314125 25.434629 
L 187.567975 25.208514 
L 187.911884 25.150004 
L 188.247876 25.234112 
L 188.482922 25.434629 
L 188.559622 25.434629 
L 188.687289 25.246301 
L 188.801595 25.193886 
L 189.367685 25.252396 
L 190.878412 25.10856 
L 191.214404 24.872084 
L 191.983375 24.65572 
L 192.272358 24.616104 
L 192.816675 24.616104 
L 192.886941 24.575879 
L 192.897333 24.503961 
L 192.917621 24.434481 
L 193.016588 24.402788 
L 193.102689 24.428386 
L 193.397609 24.616104 
L 193.457979 24.546015 
L 193.512411 24.527731 
L 193.571296 24.527121 
L 193.646016 24.513713 
L 193.592079 24.487505 
L 193.480741 24.402788 
L 193.480741 24.308929 
L 193.900855 24.034056 
L 194.111654 23.951777 
L 194.311072 24.002973 
L 194.463481 23.917646 
L 194.499109 23.935321 
L 194.559973 24.002973 
L 194.913285 23.805503 
L 195.278967 23.736023 
L 195.640195 23.800018 
L 195.979156 24.002973 
L 195.450179 24.217508 
L 195.227504 24.350373 
L 195.065199 24.513713 
L 195.192371 24.651454 
L 195.248287 24.692898 
L 195.3141 24.728248 
L 195.272534 24.739218 
L 195.23938 24.737999 
L 195.220576 24.753846 
L 195.223545 24.820888 
L 195.35814 24.825764 
L 195.467993 24.807479 
L 195.646628 24.728248 
L 195.731245 24.652063 
L 195.89355 24.445451 
L 195.941054 24.402788 
L 196.047938 24.436309 
L 196.16175 24.582583 
L 196.273087 24.616104 
L 196.325045 24.555157 
L 196.296839 24.419854 
L 196.225583 24.279674 
L 196.144925 24.207756 
L 196.144925 24.114507 
L 196.315148 24.137057 
L 196.385415 24.158389 
L 196.469041 24.207756 
L 196.489824 24.132791 
L 196.506154 24.132791 
L 196.559596 24.114507 
L 196.469041 24.002973 
L 196.602152 23.949949 
L 196.961401 23.927398 
L 197.099954 23.849385 
L 197.220694 23.741508 
L 197.354299 23.68117 
L 198.286565 23.417877 
L 198.591383 23.43799 
L 198.568125 23.695798 
L 198.77744 23.706768 
L 198.940735 23.816474 
L 199.07335 23.942635 
L 199.187162 24.002973 
L 200.022936 24.1334 
L 200.085285 24.187644 
L 200.124377 24.264438 
L 200.138232 24.355859 
L 200.120418 24.487505 
L 200.071925 24.508837 
L 199.99572 24.491772 
L 199.896754 24.513713 
L 199.846281 24.474706 
L 199.731479 24.407055 
L 199.616678 24.3778 
L 199.564225 24.45825 
L 199.522659 24.544186 
L 199.424682 24.626465 
L 199.231697 24.728248 
L 199.473671 24.769083 
L 199.611729 24.937907 
L 199.725541 25.002511 
L 199.896754 24.728248 
L 200.028379 24.904386 
L 200.198107 24.918404 
L 200.559831 24.820888 
L 200.735496 24.851362 
L 201.315936 25.034204 
L 202.062145 25.127454 
L 202.61438 25.314562 
L 202.772726 25.341379 
L 202.900393 25.405984 
L 203.181459 25.694875 
L 203.498152 25.785077 
L 203.733693 25.85151 
L 203.966265 25.877107 
L 204.244361 25.685123 
L 204.629342 25.902705 
L 205.233534 26.373829 
L 205.233534 26.261077 
L 205.089537 25.899658 
L 205.047971 25.714378 
L 204.976715 25.606501 
L 204.976715 25.546163 
L 205.037085 25.474854 
L 205.19939 25.426706 
L 205.339923 25.273728 
L 205.8689 24.981789 
L 206.06337 24.933031 
L 206.06337 24.820888 
L 205.981227 24.820888 
L 205.981227 24.728248 
L 206.183119 24.62098 
L 206.484968 24.591725 
L 207.105489 24.616104 
L 207.679991 24.564909 
L 207.93582 24.472268 
L 208.146619 24.402788 
L 208.301997 24.436309 
L 208.556341 24.608181 
L 208.796335 24.822107 
L 208.901735 24.984227 
L 209.042762 25.359663 
L 209.090266 25.675371 
L 209.139255 25.616862 
L 209.233273 25.341379 
L 209.24317 25.269461 
L 209.239211 25.180478 
L 209.251087 25.09637 
L 209.309973 25.034204 
L 209.452979 25.010435 
L 209.597471 25.046394 
L 209.734045 25.100027 
L 210.113087 25.160975 
L 210.81872 25.434629 
L 211.340275 25.531535 
L 211.613918 25.629051 
L 211.845995 25.949635 
L 213.025678 26.451842 
L 213.516553 26.584708 
L 214.032169 26.634685 
L 214.561641 26.578613 
L 214.96592 26.47744 
L 215.106948 26.46586 
L 215.178204 26.513399 
L 215.26282 26.619448 
L 215.372179 26.725496 
L 215.521124 26.773035 
L 215.553288 26.756579 
L 215.592874 26.721839 
L 215.651265 26.687099 
L 215.732418 26.670644 
L 215.790808 26.703555 
L 215.818024 26.773645 
L 215.854147 26.843125 
L 215.939753 26.875427 
L 216.291579 26.624933 
L 216.442999 26.578613 
L 216.696848 26.543263 
L 217.559343 26.261077 
L 217.836945 26.099566 
L 217.975993 26.041666 
L 218.155123 26.04837 
L 218.300109 26.1532 
L 218.386705 26.299473 
L 218.482703 26.37261 
L 218.65342 26.261077 
L 218.585628 26.217194 
L 218.480723 26.109317 
L 218.397591 26.04837 
L 218.893414 25.847853 
L 219.349651 25.474854 
L 219.789063 25.262757 
L 219.998159 25.398636 
" clip-path="url(#pc59e66f907)" style="fill: #f5f5f5; stroke: #000000"/>
    <path d="M 265.935802 39.549596 
L 265.659289 39.51283 
L 265.499666 39.400208 
L 265.477042 39.211731 
L 265.610271 38.942754 
L 265.748527 38.883928 
L 265.874215 39.04454 
L 265.997389 39.2961 
L 266.131875 39.51012 
L 266.090398 39.525988 
L 265.969738 39.549596 
L 265.935802 39.549596 
" clip-path="url(#pc59e66f907)" style="fill: #f5f5f5; stroke: #000000"/>
    <path d="M 23.720662 258.073549 
L 23.962636 258.110727 
L 24.176404 258.249077 
L 24.327823 258.439843 
L 24.385718 258.635484 
L 24.314462 258.88415 
L 23.812206 259.709379 
L 23.797856 259.803847 
L 23.806268 259.895878 
L 23.806268 259.98608 
L 23.766682 260.071407 
L 23.706312 260.116508 
L 23.639015 260.145762 
L 23.584583 260.189645 
L 23.56281 260.281066 
L 23.521739 260.35786 
L 23.431184 260.440748 
L 23.340135 260.545578 
L 23.299064 260.685148 
L 23.266405 261.034377 
L 23.166943 261.211734 
L 22.988803 261.216 
L 22.725552 261.047785 
L 22.544443 260.832031 
L 22.4336 260.630295 
L 22.271295 260.482193 
L 21.373666 260.346889 
L 21.134167 260.222556 
L 20.966913 260.015944 
L 20.883781 259.488749 
L 21.208887 259.320534 
L 21.728462 259.37173 
L 22.22676 259.504595 
L 22.406879 259.374168 
L 22.877961 258.870741 
L 22.973958 258.732391 
L 22.988803 258.572099 
L 23.040761 258.497743 
L 23.299064 258.370363 
L 23.720662 258.073549 
" clip-path="url(#pc59e66f907)" style="fill: #f5f5f5; stroke: #000000"/>
    <path d="M 54.638358 255.404659 
L 54.737325 255.493033 
L 54.93031 255.620413 
L 54.978309 255.711834 
L 54.946145 255.955015 
L 54.850642 256.224402 
L 54.819468 256.49379 
L 54.978309 256.733923 
L 54.978309 256.836315 
L 54.844704 256.907624 
L 54.756129 257.037442 
L 54.638358 257.357416 
L 54.746232 257.57256 
L 54.828375 257.840729 
L 54.805612 258.069892 
L 54.600751 258.165579 
L 54.451311 258.278942 
L 54.059403 258.812841 
L 53.89116 258.984104 
L 53.035098 259.277261 
L 52.895555 259.355883 
L 52.837659 259.368073 
L 52.517007 259.760574 
L 52.372021 259.836149 
L 52.246828 259.767888 
L 52.131532 259.657573 
L 52.015741 259.597235 
L 51.489732 259.555182 
L 51.25815 259.494844 
L 51.061701 259.402203 
L 50.405552 258.787853 
L 50.305596 258.635484 
L 50.257102 258.533093 
L 50.002263 258.37402 
L 49.890925 258.277113 
L 49.841937 258.190568 
L 49.488626 257.336084 
L 49.413906 257.028909 
L 49.476255 256.733923 
L 49.427761 256.56327 
L 49.406978 256.33167 
L 49.420833 256.095803 
L 49.476255 255.916618 
L 49.586603 255.781924 
L 50.064612 255.497909 
L 50.281844 255.318723 
L 50.581218 255.005453 
L 50.786079 254.630017 
L 50.721256 254.271036 
L 50.861789 254.133904 
L 50.910777 253.864517 
L 50.887025 253.567093 
L 50.812305 253.35012 
L 50.94789 253.33793 
L 51.077536 253.346463 
L 51.19877 253.381813 
L 51.310108 253.452512 
L 51.486269 253.402535 
L 52.139944 253.647544 
L 53.060829 253.647544 
L 53.821883 253.846842 
L 54.109876 253.746278 
L 54.065341 253.237977 
L 54.423106 253.16484 
L 54.472094 253.192266 
L 54.537412 253.385469 
L 54.534443 253.502489 
L 54.432013 253.554294 
L 54.345912 253.737746 
L 54.354324 254.142437 
L 54.432013 254.735456 
L 54.460218 254.837848 
L 54.488424 255.013986 
L 54.540381 255.21816 
L 54.638358 255.404659 
" clip-path="url(#pc59e66f907)" style="fill: #f5f5f5; stroke: #000000"/>
    <path d="M 31.312503 252.754993 
L 31.926634 252.596232 
L 32.491541 252.779978 
L 33.006214 253.144727 
L 33.666322 253.667047 
L 33.810302 254.014413 
L 33.881563 254.348008 
L 33.692852 254.644528 
L 33.454644 254.812115 
L 33.093932 255.183056 
L 32.828958 255.383686 
L 32.559771 255.457466 
L 32.248509 255.57111 
L 31.942269 255.489276 
L 31.307639 255.056339 
L 30.904528 254.394488 
L 30.902636 253.85982 
L 30.958085 253.295269 
L 31.312503 252.754993 
" clip-path="url(#pc59e66f907)" style="fill: #f5f5f5; stroke: #000000"/>
    <path d="M 42.03826 253.615472 
L 41.876106 253.868783 
L 41.684605 254.12781 
L 40.896933 254.994934 
L 40.717186 255.310962 
L 40.602404 255.497909 
L 40.189605 255.402957 
L 39.524259 255.682694 
L 39.244335 255.802564 
L 39.01449 255.90078 
L 38.815736 255.859583 
L 38.683565 255.652337 
L 38.656807 255.512781 
L 38.677007 255.33335 
L 38.565669 255.283983 
L 38.470661 255.190733 
L 38.433549 255.068229 
L 38.411281 254.786652 
L 38.387529 254.679994 
L 38.22077 254.45205 
L 37.746225 253.94192 
L 37.648248 253.703615 
L 37.5666 253.381813 
L 37.382522 253.133147 
L 37.184589 252.925316 
L 37.058901 252.727237 
L 36.975769 252.066566 
L 36.936182 251.925168 
L 36.766454 251.635058 
L 36.618004 251.28522 
L 36.21422 250.837256 
L 36.099268 250.540393 
L 36.392626 250.335388 
L 37.055347 249.999476 
L 37.294596 250.112109 
L 37.581445 250.328344 
L 37.722968 250.374665 
L 37.873892 250.371008 
L 38.221265 250.263131 
L 38.488165 250.116621 
L 38.88254 249.974054 
L 39.162371 249.855024 
L 39.402928 249.919387 
L 39.889274 249.870898 
L 40.129727 249.849441 
L 40.374833 249.636211 
L 40.685536 249.598194 
L 40.816172 249.534808 
L 41.072192 249.50442 
L 41.318229 249.292631 
L 41.889466 248.738835 
L 42.126986 248.508453 
L 42.201211 248.379854 
L 42.229417 248.162272 
L 42.274447 248.07085 
L 42.50405 247.937375 
L 42.603511 247.855096 
L 42.820743 247.72345 
L 43.091912 247.670425 
L 43.314587 247.567424 
L 43.391781 247.288285 
L 43.58922 247.369954 
L 44.774346 247.408961 
L 45.520555 247.118241 
L 45.807559 247.288285 
L 45.69417 247.711732 
L 45.325359 248.00135 
L 44.425521 248.541582 
L 44.223363 248.950385 
L 43.972151 249.217104 
L 43.63816 249.599856 
L 43.300574 249.903814 
L 43.084861 249.9957 
L 42.916066 250.148257 
L 42.791315 250.428272 
L 42.787246 250.743268 
L 42.854488 250.995569 
L 42.884537 251.144607 
L 42.845306 251.297499 
L 42.727733 251.406914 
L 42.618092 251.538372 
L 42.535918 251.888155 
L 42.141174 252.691104 
L 42.034967 253.345615 
L 42.03826 253.615472 
" clip-path="url(#pc59e66f907)" style="fill: #f5f5f5; stroke: #000000"/>
    <path d="M 71.894195 244.83454 
L 72.346968 244.630975 
L 72.793802 244.565152 
L 73.208473 244.710207 
L 73.561784 245.140496 
L 73.697368 245.645141 
L 73.73646 246.321049 
L 73.644916 247.59546 
L 73.565743 247.907511 
L 73.349995 248.47676 
L 73.305955 248.682763 
L 73.291605 249.184361 
L 73.305955 249.343433 
L 73.341583 249.44034 
L 73.454405 249.651828 
L 73.471724 249.762143 
L 73.412839 249.90476 
L 73.194617 250.122342 
L 73.147113 250.211935 
L 73.141175 250.349067 
L 73.120392 250.495341 
L 73.079816 250.628816 
L 72.873965 250.941476 
L 72.774999 251.197455 
L 72.640404 251.704538 
L 72.367751 252.199432 
L 71.965451 252.442612 
L 70.678884 252.669337 
L 70.119722 252.854008 
L 69.712968 253.161183 
L 69.231001 253.298315 
L 68.980615 253.452512 
L 68.587717 253.921807 
L 68.261127 254.41731 
L 67.896929 254.840895 
L 67.38824 255.098093 
L 67.074021 255.096874 
L 66.596012 254.854303 
L 66.34909 254.790918 
L 65.543501 254.841504 
L 65.395051 254.790918 
L 65.439586 254.737284 
L 65.490059 254.560537 
L 65.524202 254.381351 
L 65.518759 254.321623 
L 65.60585 254.294806 
L 66.02151 254.372818 
L 66.25903 254.351487 
L 66.710318 254.191195 
L 67.412487 253.842575 
L 68.276467 253.221521 
L 68.641159 252.838161 
L 68.832165 252.583401 
L 68.96478 252.338392 
L 69.0395 252.047063 
L 69.106302 251.305332 
L 69.211702 251.036554 
L 69.478417 250.579448 
L 69.781255 249.516524 
L 69.848553 249.343433 
L 70.00591 249.213006 
L 70.366149 248.568182 
L 70.642761 247.82706 
L 71.122254 247.059122 
L 71.262787 246.314344 
L 71.438453 245.859676 
L 71.497338 245.318463 
L 71.562656 245.121602 
L 71.689334 244.969843 
L 71.894195 244.83454 
" clip-path="url(#pc59e66f907)" style="fill: #f5f5f5; stroke: #000000"/>
    <path d="M 25.887538 243.597306 
L 25.862797 243.89473 
L 25.950349 244.252547 
L 26.061797 244.504947 
L 26.299608 244.637999 
L 26.309808 244.913379 
L 25.944305 245.372616 
L 25.772177 245.708663 
L 25.866077 246.006315 
L 26.011133 246.542388 
L 25.913161 246.824892 
L 25.837812 247.217406 
L 25.552223 247.640173 
L 25.309519 248.226428 
L 25.085908 248.730302 
L 24.974076 249.036258 
L 24.898861 249.036258 
L 24.8281 248.891813 
L 24.557673 248.736819 
L 24.472167 248.451552 
L 24.38054 247.713319 
L 24.240946 247.534498 
L 24.15067 247.294878 
L 23.898943 246.925591 
L 23.831461 246.59553 
L 23.366184 245.799429 
L 23.316961 245.421268 
L 23.265054 245.184199 
L 23.20752 244.95034 
L 23.011071 244.794314 
L 22.890826 244.629756 
L 22.956144 244.17265 
L 23.273827 243.676538 
L 23.691467 243.270628 
L 23.997985 243.041444 
L 24.248631 243.216291 
L 24.549013 243.265752 
L 24.842945 243.343765 
L 25.33283 243.135934 
L 25.574803 243.241373 
L 25.775211 243.433967 
L 25.887538 243.597306 
" clip-path="url(#pc59e66f907)" style="fill: #f5f5f5; stroke: #000000"/>
    <path d="M 77.849022 237.284977 
L 78.06279 237.234391 
L 78.291403 237.389197 
L 78.641745 237.749397 
L 78.522491 238.052306 
L 78.474986 238.296096 
L 78.386411 238.497222 
L 78.143943 238.670922 
L 78.099408 238.899475 
L 78.138994 239.102431 
L 78.201344 239.320013 
L 78.227075 239.59062 
L 78.203323 239.696668 
L 78.100892 239.894138 
L 78.060811 240.009329 
L 78.052893 240.133662 
L 78.072687 240.396955 
L 78.060811 240.520678 
L 77.860403 240.886972 
L 77.514515 241.216089 
L 77.118648 241.451955 
L 76.548105 241.607371 
L 76.429345 241.746941 
L 76.333842 241.888339 
L 76.185392 241.951725 
L 75.994386 241.96879 
L 75.7153 242.03827 
L 75.521325 242.054116 
L 75.096758 242.156508 
L 74.771157 242.429553 
L 74.514339 242.821445 
L 74.302055 243.281598 
L 74.226345 243.281598 
L 74.097194 243.073767 
L 73.846313 242.98966 
L 73.267853 242.984175 
L 73.175319 242.902505 
L 73.098125 242.72332 
L 73.065466 242.544134 
L 73.105547 242.463074 
L 73.240637 242.415535 
L 73.344057 242.302173 
L 73.471724 242.054116 
L 73.518239 241.809108 
L 73.567227 241.070424 
L 73.60335 240.872954 
L 74.012083 240.15865 
L 74.226345 239.906937 
L 74.397063 239.769805 
L 74.594996 239.67107 
L 74.827568 239.610732 
L 75.101706 239.59062 
L 75.329329 239.517483 
L 75.739052 239.140827 
L 75.978056 238.977488 
L 76.2037 238.895819 
L 76.39718 238.867783 
L 77.019681 238.868392 
L 77.189409 238.808054 
L 77.324498 238.62765 
L 77.471959 238.261355 
L 77.603585 237.760977 
L 77.697108 237.507435 
L 77.849022 237.284977 
" clip-path="url(#pc59e66f907)" style="fill: #f5f5f5; stroke: #000000"/>
    <path d="M 77.803992 236.615774 
L 77.910876 236.890647 
L 77.739169 237.244142 
L 77.434351 237.489761 
L 77.14042 237.442831 
L 77.14042 237.331907 
L 77.328952 237.116153 
L 77.42396 236.78216 
L 77.54272 236.543246 
L 77.803992 236.615774 
" clip-path="url(#pc59e66f907)" style="fill: #f5f5f5; stroke: #000000"/>
    <path d="M 232.905122 109.851137 
L 232.794279 110.18391 
L 232.815062 110.529482 
L 232.981326 111.087761 
L 232.73292 110.809231 
L 232.680467 110.367362 
L 232.691354 109.876735 
L 232.640386 109.451931 
L 232.70224 109.444617 
L 232.717085 109.470215 
L 232.717085 109.510441 
L 232.73193 109.544571 
L 232.772506 109.607957 
L 232.846731 109.762763 
L 232.905122 109.851137 
" clip-path="url(#pc59e66f907)" style="fill: #f5f5f5; stroke: #000000"/>
    <path d="M 260.378348 95.920887 
L 260.856283 95.715414 
L 261.059173 95.963647 
L 261.047297 96.290935 
L 260.756586 96.354195 
L 260.342654 96.345788 
L 259.744024 95.968383 
L 259.547779 95.867367 
L 259.31241 96.033127 
L 259.19464 96.112969 
L 258.996958 96.390039 
L 258.804631 96.506864 
L 258.634056 96.455718 
L 258.689999 96.151402 
L 258.640249 96.037233 
L 258.640426 95.881368 
L 258.703765 95.780805 
L 258.760176 95.643673 
L 258.765124 95.524825 
L 258.677044 95.47302 
L 258.632509 95.414511 
L 258.702913 95.301568 
L 258.853586 95.133639 
L 258.939042 95.22112 
L 259.062024 95.170111 
L 259.180784 94.998239 
L 259.22235 94.76603 
L 259.271834 94.758716 
L 259.285689 94.778828 
L 259.285689 94.814787 
L 259.297565 94.850137 
L 259.888396 95.669271 
L 260.378348 95.920887 
" clip-path="url(#pc59e66f907)" style="fill: #f5f5f5; stroke: #000000"/>
    <path d="M 261.346176 89.726893 
L 261.283827 89.860368 
L 261.358052 90.160229 
L 261.554006 90.656951 
L 261.352114 90.669141 
L 261.191788 90.791036 
L 261.086883 90.98302 
L 261.047297 91.21523 
L 260.983958 91.306651 
L 260.558401 91.577258 
L 260.17639 92.140413 
L 260.023981 92.264745 
L 259.686504 92.438446 
L 259.554879 92.590205 
L 259.509354 92.531695 
L 259.430181 92.460387 
L 259.388615 92.395173 
L 259.188702 92.643229 
L 259.020511 92.732662 
L 258.891802 93.239905 
L 258.879157 93.606568 
L 258.484477 93.61358 
L 258.365299 93.312432 
L 258.1545 93.155797 
L 257.97636 93.22284 
L 257.893228 93.22284 
L 257.851661 93.204555 
L 257.840775 93.193585 
L 257.720036 93.22284 
L 257.628986 93.034512 
L 257.424125 92.972346 
L 257.219264 93.03634 
L 257.138111 93.22284 
L 256.752141 92.972346 
L 256.611609 92.815711 
L 256.557177 92.543885 
L 256.704637 92.182466 
L 256.744224 91.963056 
L 256.633381 91.782042 
L 256.734327 91.69062 
L 256.857046 91.616264 
L 256.995599 91.59798 
L 257.138111 91.67965 
L 257.227182 91.602856 
L 257.343962 91.573601 
L 257.636904 91.577258 
L 257.531009 90.946452 
L 257.537937 90.596004 
L 257.679459 90.443635 
L 257.838796 90.381469 
L 258.020895 90.237023 
L 258.315815 89.931676 
L 258.39202 89.931676 
L 258.503852 90.024926 
L 258.743352 89.84635 
L 258.881905 89.931676 
L 259.123384 89.737863 
L 259.457891 89.569648 
L 259.798337 89.480665 
L 260.051692 89.523328 
L 260.162534 89.381321 
L 260.333747 89.313669 
L 260.508918 89.326468 
L 260.708831 89.481884 
L 260.791963 89.50931 
L 261.010679 89.523328 
L 261.148243 89.555021 
L 261.248199 89.624501 
L 261.346176 89.726893 
" clip-path="url(#pc59e66f907)" style="fill: #f5f5f5; stroke: #000000"/>
    <path d="M 282.610164 79.345711 
L 282.958527 79.442008 
L 283.647336 79.830853 
L 284.067944 79.864983 
L 283.996688 80.020399 
L 284.007574 80.144123 
L 284.047161 80.256266 
L 284.067944 80.376942 
L 284.02143 80.454955 
L 283.946215 80.513464 
L 283.910587 80.608542 
L 283.984812 80.795651 
L 283.818548 81.213141 
L 283.688902 81.421582 
L 283.527586 81.510565 
L 283.322725 81.581873 
L 283.186151 81.759231 
L 283.147554 81.99144 
L 283.236624 82.227307 
L 282.74278 82.660644 
L 282.230132 83.247568 
L 281.847131 83.967967 
L 281.734309 84.801728 
L 281.615549 84.732248 
L 281.568045 84.690194 
L 281.371101 85.31003 
L 280.98711 85.703751 
L 279.872745 86.365031 
L 279.405622 86.749609 
L 279.311604 86.89893 
L 279.261131 86.947079 
L 279.150288 87.023873 
L 279.038456 87.064098 
L 278.987983 87.005589 
L 278.655455 86.531417 
L 278.57826 86.478393 
L 278.388244 86.394895 
L 278.315009 86.335776 
L 278.259588 86.196816 
L 278.233856 86.032257 
L 278.19427 85.892688 
L 278.107179 85.834788 
L 277.988419 85.800048 
L 277.798403 85.653774 
L 277.691519 85.619643 
L 277.547027 85.636708 
L 277.355032 85.706189 
L 277.236272 85.722035 
L 276.176338 85.648288 
L 275.704267 85.463618 
L 275.401429 85.099761 
L 275.273762 84.282456 
L 275.095622 84.17275 
L 275.13125 83.930179 
L 275.318297 83.565713 
L 275.179744 83.254881 
L 274.83435 82.953191 
L 274.427596 82.726467 
L 274.106944 82.635655 
L 273.841714 82.717325 
L 273.058887 83.132986 
L 272.895592 83.304858 
L 272.764956 83.710159 
L 272.464097 84.011849 
L 272.129589 84.050855 
L 271.899987 83.668105 
L 271.874255 83.636413 
L 271.841596 83.516956 
L 271.880193 83.423096 
L 271.983119 83.362149 
L 271.658508 83.044613 
L 271.559541 83.172602 
L 271.466512 83.227455 
L 271.381401 83.190277 
L 271.318062 83.044613 
L 270.981575 83.231112 
L 270.903392 83.249396 
L 270.784632 83.167117 
L 270.682696 82.898339 
L 270.46299 82.726467 
L 270.40361 82.459517 
L 270.415486 82.155999 
L 270.487732 81.929274 
L 271.359628 81.408173 
L 271.615952 81.35332 
L 271.832689 81.218017 
L 272.432428 80.607323 
L 272.612547 80.514074 
L 272.856005 80.479334 
L 273.065814 80.413511 
L 273.271665 80.252609 
L 273.649718 79.864983 
L 273.701181 79.793675 
L 273.788271 79.607785 
L 273.815982 79.559027 
L 273.872393 79.545619 
L 274.011936 79.572435 
L 274.065378 79.559027 
L 274.359309 79.275012 
L 274.397906 79.201265 
L 274.451348 79.168354 
L 274.698765 78.899575 
L 274.779918 78.833752 
L 274.868988 78.809983 
L 275.227248 78.638111 
L 275.401429 78.504636 
L 275.540972 78.368114 
L 275.682494 78.262065 
L 275.862614 78.219402 
L 275.906159 78.188928 
L 275.983353 78.054844 
L 276.027888 78.02437 
L 276.282233 78.045701 
L 276.397034 78.02437 
L 276.755294 77.861031 
L 277.487647 77.396611 
L 277.862731 77.299704 
L 278.545601 77.236929 
L 279.219565 77.07298 
L 280.48139 76.583572 
L 280.647654 76.788355 
L 280.711983 76.725579 
L 280.747611 76.707295 
L 280.903978 76.788355 
L 280.775322 76.877338 
L 280.347785 77.068714 
L 280.191418 77.104063 
L 280.012288 77.193046 
L 279.848993 77.363699 
L 279.703512 77.482547 
L 279.567928 77.411238 
L 279.477868 77.411238 
L 279.451147 77.895161 
L 279.882642 77.967079 
L 280.813919 77.718414 
L 280.813919 77.811054 
L 280.69219 77.895161 
L 280.677344 77.995115 
L 280.688231 78.106039 
L 280.647654 78.219402 
L 280.575409 78.297414 
L 280.506132 78.341906 
L 280.308199 78.424185 
L 279.923218 78.519263 
L 279.835138 78.634454 
L 279.817324 78.945286 
L 279.958846 79.279888 
L 280.276529 79.574264 
L 280.668437 79.785752 
L 281.021749 79.864983 
L 281.856038 79.864983 
L 282.067827 79.784533 
L 282.437962 79.426162 
L 282.610164 79.345711 
" clip-path="url(#pc59e66f907)" style="fill: #f5f5f5; stroke: #000000"/>
    <path d="M 294.143745 77.231443 
L 294.197187 77.45573 
L 294.458459 77.86164 
L 294.559406 78.10543 
L 294.477263 78.10543 
L 294.42778 78.011571 
L 294.348606 77.925025 
L 294.251619 77.85067 
L 294.143745 77.799474 
L 294.109107 78.785604 
L 293.477699 78.864835 
L 292.61471 78.462582 
L 290.643293 77.227786 
L 290.23357 77.073589 
L 289.746654 77.063228 
L 288.870799 77.231443 
L 288.400707 77.073589 
L 288.45217 76.895013 
L 288.462066 76.67865 
L 288.503632 76.481789 
L 288.642186 76.357457 
L 288.543219 76.274568 
L 288.295802 76.188632 
L 288.184959 76.09782 
L 288.069168 75.918635 
L 288.066199 75.844279 
L 288.113703 75.767485 
L 288.143393 75.585862 
L 288.293823 75.40241 
L 289.140978 75.223834 
L 289.43194 75.337196 
L 290.604696 75.223834 
L 291.092602 75.244556 
L 291.231155 75.223834 
L 291.403357 75.153135 
L 291.607228 74.9965 
L 291.737864 74.92641 
L 291.771513 75.103158 
L 291.880377 75.222615 
L 292.151545 75.428008 
L 292.125814 75.47128 
L 292.100083 75.580986 
L 292.10701 75.693129 
L 292.190142 75.744325 
L 292.266347 75.699224 
L 292.356406 75.596832 
L 292.476156 75.428008 
L 292.452404 75.208597 
L 292.533557 75.148259 
L 292.606792 75.228709 
L 292.559288 75.428008 
L 292.632524 75.534056 
L 292.973959 75.744325 
L 293.044225 75.857687 
L 293.097667 75.927167 
L 293.223355 76.042358 
L 293.289663 76.07527 
L 293.469782 76.11001 
L 293.555883 76.153892 
L 293.681571 76.319669 
L 293.784496 76.565897 
L 293.77262 76.784698 
L 293.555883 76.869415 
L 293.744909 76.958399 
L 293.936905 76.9456 
L 294.084365 76.985215 
L 294.143745 77.231443 
" clip-path="url(#pc59e66f907)" style="fill: #f5f5f5; stroke: #000000"/>
    <path d="M 278.121087 88.605285 
L 278.083892 89.009592 
L 277.838805 89.355913 
L 277.458314 89.324254 
L 277.248505 88.81818 
L 277.574543 88.519095 
L 278.062908 88.314938 
L 278.121087 88.605285 
" clip-path="url(#pc59e66f907)" style="fill: #f5f5f5; stroke: #000000"/>
    <path d="M 189.522978 148.421008 
L 189.539328 148.422683 
L 189.561232 148.42812 
L 189.551127 148.438788 
L 189.530918 148.43701 
L 189.512152 148.430787 
L 189.500604 148.421897 
L 189.510709 148.418341 
L 189.522978 148.421008 
" clip-path="url(#pc59e66f907)" style="fill: #f5f5f5; stroke: #000000"/>
    <path d="M 194.351913 147.783139 
L 194.359612 147.774226 
L 194.364142 147.78082 
L 194.35714 147.790965 
L 194.349853 147.787197 
L 194.351913 147.783139 
" clip-path="url(#pc59e66f907)" style="fill: #f5f5f5; stroke: #000000"/>
    <path d="M 194.379033 147.745432 
L 194.388505 147.744925 
L 194.390152 147.753548 
L 194.381915 147.752534 
L 194.375738 147.754563 
L 194.372031 147.753041 
L 194.372443 147.748475 
L 194.379033 147.745432 
" clip-path="url(#pc59e66f907)" style="fill: #f5f5f5; stroke: #000000"/>
    <path d="M 212.21306 148.23368 
L 212.272024 148.221576 
L 212.307192 148.280363 
L 212.247455 148.330512 
L 212.193405 148.2942 
L 212.21306 148.23368 
" clip-path="url(#pc59e66f907)" style="fill: #f5f5f5; stroke: #000000"/>
    <path d="M 175.918086 137.293915 
L 175.952188 137.324865 
L 175.928855 137.364658 
L 175.900137 137.353604 
L 175.892957 137.313812 
L 175.918086 137.293915 
" clip-path="url(#pc59e66f907)" style="fill: #f5f5f5; stroke: #000000"/>
   </g>
  </g>
 </g>
 <defs>
  <clipPath id="pc59e66f907">
   <rect x="7.2" y="7.2" width="301.043187" height="266.112"/>
  </clipPath>
 </defs>
</svg>
