<?xml version="1.0" encoding="utf-8" standalone="no"?>
<!DOCTYPE svg PUBLIC "-//W3C//DTD SVG 1.1//EN"
  "http://www.w3.org/Graphics/SVG/1.1/DTD/svg11.dtd">
<svg xmlns:xlink="http://www.w3.org/1999/xlink" width="165.206656pt" height="280.512pt" viewBox="0 0 165.206656 280.512" xmlns="http://www.w3.org/2000/svg" version="1.1">
 <metadata>
  <rdf:RDF xmlns:dc="http://purl.org/dc/elements/1.1/" xmlns:cc="http://creativecommons.org/ns#" xmlns:rdf="http://www.w3.org/1999/02/22-rdf-syntax-ns#">
   <cc:Work>
    <dc:type rdf:resource="http://purl.org/dc/dcmitype/StillImage"/>
    <dc:date>2024-03-04T13:11:13.204042</dc:date>
    <dc:format>image/svg+xml</dc:format>
    <dc:creator>
     <cc:Agent>
      <dc:title>Matplotlib v3.8.0, https://matplotlib.org/</dc:title>
     </cc:Agent>
    </dc:creator>
   </cc:Work>
  </rdf:RDF>
 </metadata>
 <defs>
  <style type="text/css">*{stroke-linejoin: round; stroke-linecap: butt}</style>
 </defs>
 <g id="figure_1">
  <g id="patch_1">
   <path d="M 0 280.512 
L 165.206656 280.512 
L 165.206656 0 
L 0 0 
z
" style="fill: #ffffff"/>
  </g>
  <g id="axes_1">
   <g id="PatchCollection_1">
    <path d="M 150.273046 188.859263 
L 150.422835 189.839645 
L 151.051949 192.029753 
L 151.151808 193.320128 
L 150.8023 195.782424 
L 147.97628 205.613968 
L 147.816505 206.627114 
L 147.756589 207.967893 
L 147.546884 209.08689 
L 146.663129 210.81327 
L 146.468403 211.58447 
L 146.118895 212.64298 
L 144.930568 214.510495 
L 144.371355 215.390066 
L 144.790765 216.897184 
L 144.116714 218.68405 
L 138.339848 227.867886 
L 136.412562 229.805968 
L 132.852575 232.343873 
L 131.689213 232.694189 
L 130.131406 233.533436 
L 118.742442 242.530774 
L 116.465648 243.770743 
L 109.07106 246.411978 
L 109.066067 246.411978 
L 108.966208 245.517285 
L 108.961215 245.464359 
L 108.521833 245.116563 
L 108.511848 245.119083 
L 108.411988 245.144286 
L 108.042508 245.245096 
L 107.807839 245.741588 
L 107.688008 246.784977 
L 107.353479 247.178138 
L 106.814238 247.324313 
L 106.100243 247.641866 
L 104.76712 248.45087 
L 103.433997 249.040612 
L 97.047989 250.419195 
L 93.952348 251.487787 
L 90.557129 252.107771 
L 89.009308 252.707594 
L 88.080616 254.023171 
L 86.417957 253.695537 
L 85.394398 254.091218 
L 84.815214 254.318041 
L 82.453539 256.074664 
L 80.091864 257.828767 
L 79.003397 259.09898 
L 76.491933 258.950284 
L 76.48694 258.947764 
L 75.438417 259.09898 
L 74.61957 259.411492 
L 73.775758 259.895382 
L 72.28286 261.01942 
L 71.853464 261.12023 
L 71.424069 261.216 
L 70.405503 260.820319 
L 69.327022 260.260821 
L 68.707894 260.071801 
L 68.278498 259.943267 
L 64.728497 260.366672 
L 63.714924 260.167571 
L 63.200648 259.655958 
L 62.871112 258.983047 
L 62.611478 258.589886 
L 62.416752 258.295016 
L 61.378214 258.902399 
L 60.449522 258.972966 
L 58.796849 258.733541 
L 58.402404 258.675575 
L 58.107819 258.544522 
L 57.903107 258.252171 
L 57.643473 257.962341 
L 57.164148 257.828767 
L 56.879549 257.929578 
L 56.654865 258.131199 
L 56.415202 258.302577 
L 56.095652 258.292496 
L 55.985807 258.201766 
L 55.885948 258.113557 
L 55.496496 257.556579 
L 55.306763 257.440647 
L 55.256833 257.410404 
L 55.256833 257.405363 
L 54.822445 257.251627 
L 52.201136 256.306529 
L 51.127648 256.084745 
L 50.363723 255.923449 
L 49.0306 254.847297 
L 48.731022 254.701121 
L 48.141852 254.413811 
L 48.131866 254.408771 
L 47.682499 254.869979 
L 46.539108 253.942522 
L 41.541146 248.617208 
L 41.131722 248.294614 
L 41.126729 248.292094 
L 41.081793 248.234128 
L 40.94199 248.06527 
L 40.867095 247.805683 
L 40.887067 247.278948 
L 40.732285 247.00676 
L 40.52258 246.732051 
L 39.96836 246.003695 
L 37.137347 239.99539 
L 37.017515 239.42077 
L 37.017515 239.415729 
L 37.032494 238.901596 
L 37.047473 238.387462 
L 37.047473 238.382422 
L 36.942621 238.069909 
L 36.433338 237.003838 
L 35.914069 234.113097 
L 34.785658 232.081765 
L 34.076656 229.175903 
L 33.817022 228.112352 
L 33.687205 228.009021 
L 33.422577 227.847724 
L 33.147964 227.605779 
L 32.978203 227.265544 
L 33.048104 226.902626 
L 33.347683 226.814417 
L 33.66224 226.8497 
L 33.667233 226.8497 
L 33.817022 226.842139 
L 33.347683 223.593521 
L 33.307739 223.333934 
L 32.029539 220.037431 
L 26.771942 206.49606 
L 25.938116 201.818453 
L 25.858228 201.354724 
L 25.858228 196.8989 
L 25.92813 196.725002 
L 26.537272 195.255689 
L 26.697047 194.550016 
L 26.682068 193.831741 
L 26.682068 193.81914 
L 23.746202 183.36005 
L 24.150633 181.82521 
L 24.130661 182.770309 
L 24.360337 183.365091 
L 24.689873 183.823778 
L 24.979466 184.365635 
L 25.568636 186.439811 
L 25.858228 186.938823 
L 26.237694 186.938823 
L 26.327567 186.346561 
L 26.502321 186.097055 
L 26.657103 186.056731 
L 26.662096 186.056731 
L 26.697047 186.092015 
L 26.682068 184.196777 
L 26.682068 184.184176 
L 26.547258 183.355009 
L 26.237694 182.672018 
L 25.948102 182.472918 
L 25.139241 182.296499 
L 24.779747 182.054554 
L 24.739803 181.968865 
L 24.520112 181.522779 
L 24.619972 181.031327 
L 24.854641 180.57264 
L 24.979466 180.134114 
L 21.963712 158.023851 
L 21.589239 157.222407 
L 21.843881 156.950219 
L 22.033613 156.922496 
L 22.472995 157.222407 
L 22.572854 156.151296 
L 22.877425 154.908806 
L 22.95232 154.314024 
L 23.027214 153.716722 
L 22.6827 152.784225 
L 22.218353 151.929856 
L 22.12848 151.362797 
L 22.038606 150.795738 
L 22.043599 148.51238 
L 20.630589 141.569057 
L 20.465821 140.767613 
L 19.736847 139.242854 
L 19.117719 136.039601 
L 18.114132 133.511777 
L 16.571305 126.52813 
L 16.571305 124.544683 
L 16.820953 124.658095 
L 16.835932 124.675737 
L 16.855904 124.693379 
L 16.855904 124.756385 
L 16.990714 124.968088 
L 17.210405 123.816328 
L 16.885862 120.156906 
L 16.571305 119.047991 
L 17.579885 118.382642 
L 18.533542 117.150233 
L 19.222572 115.746447 
L 19.497185 114.566964 
L 19.776791 113.795764 
L 21.589239 110.935266 
L 21.569267 110.983151 
L 20.655554 113.143016 
L 19.497185 115.20207 
L 19.751826 115.703602 
L 19.816735 115.827095 
L 20.271095 116.280743 
L 20.865259 116.517647 
L 21.589239 116.512607 
L 20.995076 118.196142 
L 20.375948 119.431071 
L 20.106327 119.645293 
L 19.821728 119.675536 
L 19.597044 119.849434 
L 19.497185 120.507223 
L 19.552108 121.971495 
L 19.497185 122.427663 
L 18.458647 125.746849 
L 18.498591 126.361793 
L 18.578478 127.591681 
L 19.651967 128.869454 
L 19.956538 129.232372 
L 18.728268 131.80304 
L 20.685512 133.226988 
L 23.531504 133.451291 
L 24.979466 132.425544 
L 24.704852 131.321669 
L 24.240506 130.457219 
L 24.060759 130.127065 
L 23.841068 129.854877 
L 23.296835 129.169365 
L 22.6827 128.776204 
L 22.502953 128.105814 
L 24.570042 124.159083 
L 24.490155 123.443329 
L 24.225527 122.914074 
L 23.920956 122.470507 
L 23.731223 122.006779 
L 23.681293 121.260781 
L 23.751195 119.975447 
L 23.731223 119.446192 
L 23.731223 119.431071 
L 23.696272 119.33026 
L 23.531504 118.889214 
L 23.431645 118.798485 
L 23.311814 118.685073 
L 23.191982 118.433047 
L 23.311814 117.739975 
L 23.601406 117.152753 
L 24.405274 116.099284 
L 24.570042 115.413772 
L 24.699859 114.118357 
L 25.274051 111.525007 
L 25.858228 105.476377 
L 26.232701 104.788345 
L 26.637131 104.44811 
L 26.946696 104.037307 
L 27.076513 103.132533 
L 27.076513 100.554304 
L 27.431014 99.289133 
L 28.26484 98.475088 
L 29.253448 97.802178 
L 30.052323 96.940248 
L 30.152182 96.635296 
L 30.761324 94.740059 
L 30.846205 94.65941 
L 30.891142 94.616566 
L 31.025952 94.062108 
L 31.59515 92.822139 
L 32.139384 86.793671 
L 30.661465 82.94775 
L 30.781296 82.279881 
L 30.891142 77.894624 
L 30.891142 77.834138 
L 30.741353 76.369865 
L 30.561606 75.64907 
L 30.242056 75.104693 
L 29.992407 74.484709 
L 30.561606 74.177237 
L 31.385446 74.023501 
L 31.929679 73.857164 
L 35.489667 70.643829 
L 37.347051 69.728973 
L 38.120962 69.051023 
L 38.530385 67.543906 
L 39.264352 65.993944 
L 39.683761 63.83912 
L 41.655984 58.733068 
L 41.725886 58.450799 
L 41.910626 57.704801 
L 42.290091 56.195164 
L 42.290091 52.596229 
L 42.424901 52.069494 
L 42.30507 51.714137 
L 41.586083 51.575523 
L 39.893466 50.693431 
L 39.234394 50.078487 
L 38.819977 48.914125 
L 38.750076 48.702423 
L 38.455491 47.250752 
L 38.425533 46.426626 
L 39.159499 45.652906 
L 40.517587 44.974955 
L 42.025464 44.493585 
L 43.26372 44.309606 
L 43.81794 44.024816 
L 45.166042 42.23543 
L 45.320824 42.119497 
L 45.555493 41.938039 
L 46.004861 41.670891 
L 46.55908 41.464229 
L 47.263089 41.353338 
L 46.678912 40.274665 
L 46.329404 39.800856 
L 45.974903 39.327047 
L 45.071175 38.434874 
L 43.877856 37.542701 
L 39.339246 34.876263 
L 38.425533 33.739625 
L 40.402749 33.802631 
L 42.275112 34.553669 
L 45.96991 36.700933 
L 49.494946 37.588065 
L 50.423639 38.182847 
L 51.876593 39.45306 
L 52.236087 40.12345 
L 51.487141 40.506529 
L 51.651909 40.929934 
L 51.8716 41.353338 
L 51.487141 41.771701 
L 51.492134 41.774222 
L 52.775328 42.638672 
L 55.80606 41.897714 
L 61.348256 39.697525 
L 62.841154 39.84118 
L 66.111549 40.743434 
L 69.971115 42.482415 
L 72.882016 43.041914 
L 72.892002 43.041914 
L 68.71788 40.178895 
L 67.279904 39.513546 
L 66.001704 39.236317 
L 65.811971 39.148108 
L 65.627231 39.059899 
L 64.518792 38.218131 
L 64.099383 37.971145 
L 63.679973 37.905619 
L 63.175683 37.930821 
L 62.416752 37.971145 
L 61.937427 38.155125 
L 61.867525 38.260976 
L 61.732715 38.485279 
L 61.493052 38.608772 
L 60.679198 38.006429 
L 60.354655 37.950983 
L 58.362461 38.003909 
L 57.793262 37.837571 
L 53.429407 34.057178 
L 51.557043 32.844931 
L 51.55205 32.844931 
L 50.882992 32.550061 
L 47.727435 31.168957 
L 46.589038 30.511168 
L 45.825114 30.501087 
L 45.96991 32.008204 
L 46.394312 32.45177 
L 47.053384 32.953303 
L 47.442836 33.565726 
L 47.053384 34.357089 
L 46.589038 34.498224 
L 46.139671 34.256278 
L 45.730247 33.913523 
L 44.551907 33.301099 
L 42.260133 31.302531 
L 40.94199 30.737992 
L 40.946982 30.743032 
L 41.61604 31.478949 
L 42.824339 32.522338 
L 43.493397 33.278417 
L 42.005492 32.991107 
L 40.537559 32.378683 
L 37.586714 30.737992 
L 35.235025 28.888119 
L 33.836994 28.394148 
L 33.697191 28.308459 
L 33.167936 27.965703 
L 32.673632 27.766602 
L 32.598737 28.205128 
L 31.924686 27.74392 
L 31.670045 27.146618 
L 31.550214 26.433383 
L 31.310551 25.626899 
L 30.906121 24.938868 
L 30.666458 24.626355 
L 30.037344 23.80475 
L 29.632913 23.091515 
L 30.961043 22.426166 
L 33.37764 20.190693 
L 34.466108 19.706803 
L 34.471101 19.706803 
L 39.264352 20.130207 
L 41.765829 19.850458 
L 42.679543 19.956309 
L 43.039037 20.782955 
L 42.979121 22.08089 
L 43.158868 22.532017 
L 43.68313 22.703395 
L 44.192413 22.776483 
L 45.660346 23.154522 
L 45.96991 23.320859 
L 46.244523 23.865236 
L 46.903595 23.842554 
L 47.422864 23.683777 
L 47.622583 23.623291 
L 47.922161 23.580446 
L 48.131866 23.550203 
L 48.136859 23.552723 
L 48.611191 23.829952 
L 48.815903 23.948405 
L 50.533484 25.818439 
L 55.945863 31.705773 
L 57.853178 32.905418 
L 62.276949 34.94683 
L 62.416752 35.007317 
L 62.416752 34.548629 
L 60.189887 33.422071 
L 54.79748 29.009092 
L 50.378702 23.910601 
L 48.131866 22.705915 
L 44.611822 21.871708 
L 43.68313 21.206359 
L 43.563299 20.266301 
L 44.851485 19.706803 
L 45.270894 19.636235 
L 46.549094 19.422013 
L 49.090516 19.296 
L 50.313794 19.525344 
L 51.162598 20.122646 
L 51.726804 22.148937 
L 52.291009 22.995745 
L 60.324698 32.431608 
L 61.508031 33.301099 
L 63.904657 34.669601 
L 80.845803 48.399992 
L 80.910711 48.510883 
L 81.340107 49.231678 
L 82.029137 50.088568 
L 83.347281 51.328537 
L 84.1861 52.41477 
L 83.442147 52.805411 
L 83.437154 52.807931 
L 83.017745 52.618911 
L 82.967815 52.596229 
L 82.957829 52.593709 
L 82.313736 51.762022 
L 81.959235 51.580563 
L 81.954242 51.575523 
L 80.845803 51.394064 
L 80.361485 51.540239 
L 80.601147 52.03421 
L 80.681035 52.190467 
L 83.866549 55.159336 
L 85.109799 55.842327 
L 85.114792 55.844847 
L 84.620488 55.076167 
L 84.32091 54.373014 
L 84.475692 53.85384 
L 85.324497 53.654739 
L 85.723934 53.924407 
L 86.37302 55.844847 
L 86.967184 57.02685 
L 89.2989 61.686816 
L 88.829561 61.512918 
L 87.531389 61.031547 
L 86.717535 61.016426 
L 86.37302 61.898518 
L 86.852345 62.122821 
L 87.850939 62.286638 
L 88.739688 62.846136 
L 88.749674 62.921744 
L 88.879491 64.262524 
L 88.889477 64.262524 
L 89.2989 64.262524 
L 89.503612 63.907167 
L 89.688352 63.753431 
L 89.898057 63.652621 
L 90.177663 63.45604 
L 90.177663 63.461081 
L 90.49222 64.690969 
L 90.527171 64.844705 
L 91.395948 66.828151 
L 92.55931 68.607457 
L 93.742643 69.378657 
L 93.832517 69.451745 
L 93.97232 69.570197 
L 93.967327 70.003682 
L 93.682728 70.439687 
L 93.113529 70.643829 
L 92.948761 70.46237 
L 92.27471 69.378657 
L 91.540744 68.990537 
L 89.858113 68.557051 
L 88.879491 68.108445 
L 89.328858 68.73347 
L 89.578507 69.081266 
L 91.795385 71.157962 
L 91.815357 72.337445 
L 92.544331 72.851579 
L 92.539338 72.856619 
L 91.885259 73.464003 
L 91.306074 74.152034 
L 91.311067 74.154554 
L 92.27471 74.913153 
L 93.313248 74.832505 
L 94.162053 74.038622 
L 94.791167 72.934747 
L 95.20059 71.914041 
L 95.210576 71.919082 
L 97.427455 74.598121 
L 99.394685 77.977793 
L 100.198553 78.81452 
L 101.321971 79.142154 
L 102.220706 79.86799 
L 103.53885 83.066203 
L 103.873379 83.416519 
L 104.22788 83.792038 
L 104.232873 83.794559 
L 105.740749 84.48007 
L 106.494688 86.090518 
L 107.358472 89.329055 
L 107.513254 88.734273 
L 107.712972 88.502409 
L 108.047501 88.578017 
L 108.052494 88.580537 
L 108.646658 88.905651 
L 108.466911 89.500433 
L 110.174506 91.365427 
L 110.743705 92.290364 
L 110.738712 93.40684 
L 110.289345 93.855447 
L 109.650245 94.150317 
L 109.066067 94.828268 
L 109.076053 94.823227 
L 109.520427 94.709816 
L 109.979781 94.591363 
L 110.094619 94.528357 
L 110.324296 94.404864 
L 110.329289 94.409904 
L 111.657418 97.303166 
L 111.852144 98.810283 
L 110.329289 99.057268 
L 110.324296 99.057268 
L 110.638853 98.059245 
L 110.229429 97.257801 
L 109.550385 97.144389 
L 109.066067 98.21046 
L 109.230835 99.037106 
L 109.665224 99.624328 
L 109.904886 100.251873 
L 109.450526 101.209573 
L 109.091032 100.932344 
L 108.421974 100.410649 
L 107.358472 99.752861 
L 106.284983 99.505875 
L 105.261424 99.93936 
L 104.467542 101.007952 
L 104.747148 101.56745 
L 105.695813 101.421275 
L 106.974013 100.365285 
L 107.852776 101.300302 
L 108.646658 102.421819 
L 109.605308 103.356836 
L 110.95341 103.744957 
L 113.774438 103.689511 
L 114.728095 103.084648 
L 114.098981 101.632977 
L 115.71171 100.89454 
L 116.35081 100.697959 
L 117.029854 100.745844 
L 117.034847 100.750885 
L 117.778799 101.17933 
L 118.457843 101.905165 
L 118.967126 102.751973 
L 119.401514 105.231912 
L 120.360164 108.422564 
L 120.390122 109.254251 
L 120.42008 110.088458 
L 119.641177 109.541561 
L 118.827323 107.898349 
L 118.113328 107.550553 
L 118.088363 107.99916 
L 118.382949 110.010329 
L 118.407913 110.164065 
L 118.742442 110.935266 
L 119.151866 111.129326 
L 119.526339 111.305744 
L 119.536325 111.305744 
L 120.365157 111.305744 
L 121.024229 111.603135 
L 121.413681 113.972182 
L 121.88302 115.615393 
L 121.962908 115.887582 
L 122.092725 116.893166 
L 122.092725 116.898207 
L 122.282458 117.540874 
L 123.560658 121.868165 
L 124.044976 124.688338 
L 122.931544 126.228219 
L 122.931544 126.23578 
L 122.312416 123.682754 
L 122.222542 123.322356 
L 121.288857 120.736567 
L 120.83949 120.736567 
L 120.764595 122.699851 
L 120.83949 123.317316 
L 120.794553 123.297153 
L 120.749616 123.473572 
L 120.749616 123.478612 
L 120.749616 123.786084 
L 120.83949 124.159083 
L 121.044201 124.401028 
L 121.56347 124.559805 
L 121.568463 124.562325 
L 121.673316 124.756385 
L 122.172612 126.054321 
L 123.251094 126.845683 
L 123.256087 126.845683 
L 124.284639 126.759994 
L 124.644132 125.429296 
L 125.018605 125.429296 
L 125.408057 126.14001 
L 125.512909 126.33155 
L 126.017199 128.567022 
L 126.531475 129.426432 
L 127.215512 130.17747 
L 127.654893 130.908346 
L 128.413825 132.657409 
L 128.713403 132.354977 
L 129.107847 132.057586 
L 129.287594 131.772796 
L 129.557215 132.349936 
L 129.287594 132.657409 
L 129.422404 132.879192 
L 129.542236 133.025367 
L 129.562208 133.063171 
L 129.632109 133.186664 
L 129.672053 133.463893 
L 129.677046 133.458852 
L 129.981617 133.206826 
L 130.610731 132.904394 
L 130.930281 132.657409 
L 130.930281 132.662449 
L 131.075077 133.010245 
L 131.249831 133.433649 
L 131.120014 133.935182 
L 130.905316 134.434194 
L 130.915302 134.819794 
L 130.930281 135.192793 
L 131.359677 136.024479 
L 132.118608 136.60666 
L 132.612912 136.98722 
L 133.062279 137.730697 
L 132.77768 137.748339 
L 132.632884 137.846629 
L 132.448144 137.972642 
L 132.333306 138.04573 
L 132.218467 138.116297 
L 132.038721 138.791727 
L 131.858974 139.467158 
L 132.577961 141.579138 
L 132.967413 142.027745 
L 133.846175 143.04089 
L 133.856161 143.04089 
L 135.154334 142.803985 
L 135.573743 142.803985 
L 135.998145 144.09688 
L 136.482463 144.895803 
L 136.632253 145.142789 
L 139.278526 147.915078 
L 140.132324 149.268459 
L 140.282113 150.465584 
L 138.924026 150.876386 
L 138.919033 150.878907 
L 138.289918 150.450462 
L 136.782042 148.527502 
L 135.993152 147.844511 
L 134.974587 147.468991 
L 134.964601 147.468991 
L 134.859748 147.479072 
L 134.135768 147.542079 
L 133.496668 148.197347 
L 133.062279 149.57089 
L 133.796246 149.906085 
L 134.505247 150.006896 
L 135.11439 149.780072 
L 135.573743 149.147486 
L 136.297724 149.419675 
L 136.961789 149.752349 
L 137.191465 150.024538 
L 137.346247 150.213557 
L 137.251381 150.878907 
L 138.065235 151.642546 
L 138.879089 152.406186 
L 139.518189 153.142102 
L 140.187247 154.261099 
L 140.182254 154.263619 
L 139.867697 154.629057 
L 139.787809 154.984414 
L 139.892662 155.410339 
L 140.187247 155.995039 
L 140.566713 155.528791 
L 140.337036 154.687023 
L 140.337036 154.681983 
L 141.061017 154.93905 
L 142.484013 155.995039 
L 142.823535 156.489011 
L 143.951946 159.374712 
L 143.882044 159.498204 
L 143.532537 161.065808 
L 143.582466 161.237186 
L 143.592452 161.262388 
L 143.882044 161.862211 
L 143.951946 162.104156 
L 143.712284 162.53008 
L 143.272902 162.870316 
L 143.008275 163.248355 
L 143.322832 163.797772 
L 143.62241 164.193453 
L 143.727262 164.503446 
L 143.742241 164.54377 
L 143.921988 164.896607 
L 144.371355 165.297329 
L 143.712284 165.776178 
L 143.772199 166.010563 
L 143.832115 166.249988 
L 144.326419 166.353319 
L 144.820723 165.718212 
L 145.200188 165.718212 
L 145.205181 165.720733 
L 145.674521 168.218313 
L 145.659542 169.138209 
L 145.669528 169.138209 
L 146.088937 169.138209 
L 146.088937 169.115526 
L 146.138867 168.248556 
L 146.288656 167.391667 
L 146.54829 166.660791 
L 146.927756 166.141616 
L 146.927756 165.720733 
L 146.892805 165.622442 
L 146.757995 165.234322 
L 146.86784 165.040262 
L 147.207362 165.183917 
L 147.756589 165.718212 
L 147.946322 166.207143 
L 148.086125 167.5202 
L 149.029796 169.024797 
L 150.562638 174.294666 
L 150.273046 188.859263 
" clip-path="url(#pf086444bb6)" style="fill: #f5f5f5; stroke: #000000"/>
    <path d="M 141.854899 153.646155 
L 141.750046 152.995927 
L 141.510384 152.491875 
L 141.215799 151.87189 
L 141.01608 151.264507 
L 141.046038 150.62184 
L 141.235771 150.05226 
L 141.315658 149.452438 
L 141.01608 148.731643 
L 141.01608 148.724082 
L 141.804969 149.495282 
L 142.558908 151.282149 
L 143.113127 152.108795 
L 143.247937 152.466672 
L 143.817136 154.004032 
L 145.310034 156.38316 
L 145.999064 157.479474 
L 147.037601 162.880397 
L 147.037601 162.885437 
L 146.997658 164.120366 
L 146.088937 164.873924 
L 145.225153 164.190933 
L 144.960526 163.911184 
L 144.835702 163.782651 
L 144.795758 163.475179 
L 144.750821 163.167707 
L 144.760807 163.041694 
L 145.015449 159.142847 
L 144.835702 157.797027 
L 144.161651 157.222407 
L 143.907009 156.67047 
L 141.854899 153.646155 
" clip-path="url(#pf086444bb6)" style="fill: #f5f5f5; stroke: #000000"/>
    <path d="M 17.634807 65.993944 
L 16.95077 65.724276 
L 16.646199 65.129494 
L 16.840925 64.534712 
L 17.634807 64.262524 
L 20.375948 64.262524 
L 21.589239 64.575037 
L 22.842475 64.89763 
L 25.458791 65.895654 
L 27.955275 67.347325 
L 30.052323 69.378657 
L 30.04733 69.376137 
L 29.043743 69.166955 
L 27.276232 68.289904 
L 26.237694 68.108445 
L 27.830451 69.923034 
L 29.083687 71.354543 
L 29.632913 72.337445 
L 28.16498 72.150946 
L 27.20633 71.409989 
L 26.547258 70.603505 
L 26.052954 70.220425 
L 25.418847 69.897831 
L 22.892404 67.644716 
L 21.639169 67.085218 
L 20.385933 66.52572 
L 19.467227 66.276214 
L 18.977916 66.14264 
L 17.634807 65.993944 
" clip-path="url(#pf086444bb6)" style="fill: #f5f5f5; stroke: #000000"/>
    <path d="M 18.658366 39.697525 
L 18.169055 40.166294 
L 17.669758 40.635063 
L 16.121937 40.725792 
L 14.683962 40.249463 
L 14.054848 39.468181 
L 14.054848 36.930277 
L 14.234595 36.280049 
L 14.639025 36.363218 
L 15.058435 36.884912 
L 15.313076 37.542701 
L 16.371586 37.875375 
L 17.634807 37.971145 
L 17.949364 38.200489 
L 18.658366 39.697525 
" clip-path="url(#pf086444bb6)" style="fill: #f5f5f5; stroke: #000000"/>
    <path d="M 28.784108 32.431608 
L 27.835444 31.743577 
L 26.88678 30.324669 
L 25.398875 27.35832 
L 26.077919 26.297289 
L 26.232701 24.938868 
L 26.61716 23.837513 
L 27.955275 23.550203 
L 28.664277 23.764425 
L 28.674263 23.766946 
L 28.734179 24.28864 
L 28.494516 25.016996 
L 28.329748 25.858764 
L 28.354713 26.708092 
L 28.444586 27.386043 
L 28.449579 27.426367 
L 28.504502 27.562461 
L 28.714207 28.053912 
L 28.993813 28.373986 
L 29.213504 28.626012 
L 29.473138 28.691539 
L 30.661465 28.626012 
L 30.861184 28.809991 
L 30.951057 29.739968 
L 31.100846 30.125568 
L 31.799862 30.566614 
L 32.748526 30.972376 
L 33.542408 31.423503 
L 33.607317 31.564638 
L 33.817022 32.008204 
L 33.392619 32.44673 
L 32.583758 32.45177 
L 31.714982 32.182102 
L 31.100846 31.796502 
L 30.666458 31.690651 
L 29.563012 32.340879 
L 28.789101 32.431608 
L 28.784108 32.431608 
" clip-path="url(#pf086444bb6)" style="fill: #f5f5f5; stroke: #000000"/>
   </g>
  </g>
 </g>
 <defs>
  <clipPath id="pf086444bb6">
   <rect x="7.2" y="7.2" width="150.806656" height="266.112"/>
  </clipPath>
 </defs>
</svg>
