<?xml version="1.0" encoding="utf-8" standalone="no"?>
<!DOCTYPE svg PUBLIC "-//W3C//DTD SVG 1.1//EN"
  "http://www.w3.org/Graphics/SVG/1.1/DTD/svg11.dtd">
<svg xmlns:xlink="http://www.w3.org/1999/xlink" width="332.41389pt" height="280.512pt" viewBox="0 0 332.41389 280.512" xmlns="http://www.w3.org/2000/svg" version="1.1">
 <metadata>
  <rdf:RDF xmlns:dc="http://purl.org/dc/elements/1.1/" xmlns:cc="http://creativecommons.org/ns#" xmlns:rdf="http://www.w3.org/1999/02/22-rdf-syntax-ns#">
   <cc:Work>
    <dc:type rdf:resource="http://purl.org/dc/dcmitype/StillImage"/>
    <dc:date>2024-03-04T13:11:13.229077</dc:date>
    <dc:format>image/svg+xml</dc:format>
    <dc:creator>
     <cc:Agent>
      <dc:title>Matplotlib v3.8.0, https://matplotlib.org/</dc:title>
     </cc:Agent>
    </dc:creator>
   </cc:Work>
  </rdf:RDF>
 </metadata>
 <defs>
  <style type="text/css">*{stroke-linejoin: round; stroke-linecap: butt}</style>
 </defs>
 <g id="figure_1">
  <g id="patch_1">
   <path d="M 0 280.512 
L 332.41389 280.512 
L 332.41389 0 
L 0 0 
z
" style="fill: #ffffff"/>
  </g>
  <g id="axes_1">
   <g id="PatchCollection_1">
    <path d="M 39.757977 221.253948 
L 40.432273 218.740313 
L 40.540801 218.561723 
L 40.81301 218.254844 
L 40.861047 218.060565 
L 40.869943 217.700156 
L 40.926876 217.346668 
L 41.033624 217.025946 
L 41.323625 216.397883 
L 41.400128 216.080852 
L 41.367023 215.56214 
L 41.352091 215.328192 
L 40.916201 214.002846 
L 40.683133 212.735645 
L 40.435832 212.518753 
L 40.031966 212.508139 
L 38.393373 212.685806 
L 38.222575 212.609202 
L 38.217238 212.071126 
L 38.169201 211.910072 
L 37.726194 211.485518 
L 36.34024 211.003742 
L 35.747785 210.704247 
L 35.1322 210.100181 
L 34.605573 209.343829 
L 34.260419 208.504874 
L 34.180358 207.649305 
L 35.141096 202.147641 
L 35.44533 201.242234 
L 35.496925 200.927511 
L 35.477354 200.649705 
L 35.390176 200.562025 
L 35.244286 200.820449 
L 35.014777 200.675547 
L 34.34226 200.799222 
L 33.223178 201.159169 
L 33.034588 201.304994 
L 32.931398 201.361294 
L 32.821091 201.406518 
L 33.264098 199.443418 
L 33.28011 199.225604 
L 33.267656 199.007789 
L 33.223178 198.794589 
L 31.958206 194.810244 
L 31.388879 193.897453 
L 31.353296 193.678716 
L 31.750046 193.089878 
L 32.607594 191.036329 
L 32.379863 190.808363 
L 30.618509 190.13646 
L 28.462186 188.673595 
L 27.969362 189.421179 
L 27.416048 189.961101 
L 26.757765 190.33397 
L 25.946475 190.57855 
L 25.273958 190.67269 
L 24.542729 190.665306 
L 23.83285 190.527788 
L 23.227941 190.225985 
L 22.872112 189.871575 
L 22.196037 188.573917 
L 21.728122 187.978157 
L 21.655177 187.77511 
L 21.696097 187.662511 
L 21.971865 187.106438 
L 22.404197 185.773708 
L 23.818617 183.03349 
L 24.316778 182.333437 
L 24.907454 181.757521 
L 25.211688 181.585392 
L 27.060219 180.836424 
L 27.344883 180.633838 
L 28.933659 178.927777 
L 29.542127 178.114665 
L 29.686237 177.368927 
L 29.479857 176.960524 
L 28.871389 176.211556 
L 28.647217 175.785156 
L 28.570713 175.442283 
L 28.560039 174.414586 
L 28.3074 173.72284 
L 27.209668 172.683606 
L 26.903655 171.99186 
L 26.903655 171.593149 
L 26.937458 171.316727 
L 26.878747 171.055073 
L 26.606537 170.699278 
L 26.204451 170.313488 
L 26.2258 170.153357 
L 26.645679 169.455151 
L 28.047076 167.648805 
L 28.216664 167.430214 
L 28.631204 167.004737 
L 29.127586 166.668786 
L 31.860353 165.349439 
L 32.193053 165.120087 
L 32.831766 164.513252 
L 33.223178 164.291284 
L 33.683976 164.200374 
L 34.084284 164.039782 
L 34.340481 163.73475 
L 34.36361 163.210979 
L 34.246186 162.636909 
L 34.091401 162.289421 
L 33.785388 162.096064 
L 32.813974 161.923012 
L 32.527532 161.767496 
L 32.321151 161.503996 
L 32.164586 161.117744 
L 32.11477 160.905929 
L 32.132562 160.765642 
L 32.285568 160.46107 
L 32.360292 160.385851 
L 32.59336 160.27602 
L 32.680539 160.186495 
L 32.69833 160.054052 
L 32.63606 159.94976 
L 32.550661 159.855158 
L 32.493728 159.748097 
L 32.249985 157.827914 
L 32.11655 157.583795 
L 31.586364 157.183238 
L 31.193173 156.522411 
L 31.516978 155.886964 
L 32.212623 155.351657 
L 32.94741 154.990787 
L 36.406068 154.053999 
L 36.582204 153.924787 
L 36.665823 153.675593 
L 36.635578 153.516846 
L 36.375823 152.946468 
L 36.279749 152.63359 
L 36.139196 151.653424 
L 36.139196 151.192876 
L 36.27797 150.916454 
L 36.907787 150.486824 
L 37.249383 150.166102 
L 37.347236 149.871221 
L 37.363248 149.536654 
L 37.453985 149.101487 
L 37.655028 148.730464 
L 39.206442 147.090394 
L 39.546259 146.80705 
L 39.93945 146.589236 
L 40.52301 146.359423 
L 40.656446 146.196523 
L 41.426815 144.76873 
L 41.558472 144.370942 
L 41.777307 142.293858 
L 41.743503 141.696714 
L 41.572705 141.139718 
L 41.202643 140.634407 
L 40.83436 140.233388 
L 40.546139 139.771916 
L 40.419819 139.257837 
L 40.54436 138.700379 
L 40.869943 138.297976 
L 42.227431 137.449791 
L 43.328721 136.105525 
L 43.778845 135.791724 
L 44.202445 135.738834 
L 45.020688 135.63667 
L 47.668056 136.201511 
L 48.963274 136.075991 
L 51.222788 135.239804 
L 52.352545 134.992455 
L 54.329175 134.995224 
L 56.42145 135.31364 
L 58.426546 136.00677 
L 58.892682 136.027075 
L 59.095505 135.489922 
L 59.095505 135.475999 
L 59.095505 134.44515 
L 59.093726 130.296521 
L 59.088388 126.147892 
L 59.08483 121.999262 
L 59.083051 117.850633 
L 59.079492 113.701081 
L 59.075934 109.553375 
L 59.072376 105.404746 
L 59.068817 101.256116 
L 59.067038 97.107487 
L 59.061701 92.958858 
L 59.058143 88.810229 
L 59.056363 84.662522 
L 59.052805 80.514354 
L 59.049247 76.366187 
L 59.045689 72.217557 
L 59.04213 68.068928 
L 59.04213 65.838175 
L 59.04213 63.609267 
L 59.04213 61.380821 
L 59.04213 59.151452 
L 61.815817 59.151452 
L 63.28717 59.153298 
L 65.231776 59.153759 
L 67.533989 59.155605 
L 69.677859 59.157913 
L 71.780809 59.158374 
L 74.292961 59.159758 
L 76.027628 59.159758 
L 76.06499 59.155605 
L 76.102352 59.151452 
L 76.139714 59.147299 
L 76.178855 59.141761 
L 76.194867 59.114996 
L 76.21088 59.087307 
L 76.226892 59.060542 
L 76.242904 59.032854 
L 76.242904 58.919818 
L 76.242904 56.926236 
L 76.244684 55.228021 
L 76.244684 53.528883 
L 76.246463 51.830667 
L 76.248242 50.133375 
L 76.248242 47.908159 
L 76.248242 45.682943 
L 76.250021 43.457727 
L 76.250021 41.232512 
L 76.250021 39.007296 
L 76.2518 36.783003 
L 76.253579 34.557787 
L 76.253579 32.332571 
L 76.253579 30.108278 
L 76.253579 27.883063 
L 76.255358 25.656924 
L 76.255358 23.432631 
L 77.929534 23.433554 
L 79.605488 23.433554 
L 81.281443 23.433554 
L 82.959177 23.433554 
L 84.633352 23.433554 
L 86.308417 23.434477 
L 87.984372 23.434477 
L 89.658547 23.434477 
L 91.332723 23.434477 
L 93.008677 23.4354 
L 94.686411 23.436323 
L 96.360587 23.436323 
L 98.036541 23.436323 
L 99.710717 23.437246 
L 101.384892 23.437246 
L 103.060847 23.437246 
L 104.736801 23.437246 
L 106.412756 23.438169 
L 108.086932 23.439092 
L 109.762886 23.439092 
L 111.437062 23.439092 
L 113.113016 23.439092 
L 114.788971 23.439092 
L 116.463146 23.440015 
L 118.139101 23.440015 
L 119.815056 23.440015 
L 121.49101 23.440015 
L 123.166965 23.440015 
L 124.84114 23.440015 
L 126.517095 23.440937 
L 128.193049 23.44186 
L 129.869004 23.44186 
L 131.54229 23.44186 
L 133.219134 23.442783 
L 134.895089 23.442783 
L 136.568375 23.442783 
L 138.245219 23.442783 
L 139.921173 23.442783 
L 141.597128 23.442783 
L 143.273083 23.443706 
L 144.947258 23.444629 
L 146.623213 23.444629 
L 148.299167 23.444629 
L 149.973343 23.444629 
L 151.646629 23.444629 
L 153.323473 23.445552 
L 154.999428 23.445552 
L 156.675382 23.445552 
L 158.351337 23.445552 
L 160.025512 23.446475 
L 161.699688 23.447398 
L 163.375642 23.447398 
L 165.048928 23.447398 
L 166.727551 23.447398 
L 168.403506 23.447398 
L 170.077682 23.448321 
L 171.751857 23.448321 
L 173.427812 23.448321 
L 175.103766 23.448321 
L 176.777942 23.448321 
L 178.454786 23.448321 
L 180.13163 23.449244 
L 181.807585 23.450167 
L 183.480871 23.450167 
L 184.140044 23.450167 
L 184.367774 23.318186 
L 185.216427 21.640275 
L 185.275853 21.522997 
L 186.052625 19.990053 
L 186.497411 19.519352 
L 186.819436 19.353222 
L 187.150357 19.296 
L 187.481278 19.345839 
L 187.797966 19.500893 
L 188.176924 19.858995 
L 188.32993 20.255861 
L 188.308581 20.702565 
L 187.910052 21.847015 
L 187.360296 23.432631 
L 188.380123 23.431997 
L 188.845882 23.431708 
L 190.607236 23.431708 
L 192.370369 23.431708 
L 194.131722 23.431708 
L 195.894855 23.431708 
L 197.656209 23.431708 
L 199.419341 23.431708 
L 201.180695 23.431708 
L 202.943828 23.431708 
L 204.705181 23.431708 
L 206.107381 23.431708 
L 206.467424 23.431708 
L 208.230557 23.431708 
L 209.994579 23.431708 
L 211.755933 23.431708 
L 213.519066 23.431708 
L 215.280419 23.431708 
L 217.024828 23.431708 
L 217.042607 23.431708 
L 217.410566 23.431588 
L 219.520096 25.081627 
L 221.859449 26.91143 
L 223.905622 28.511912 
L 223.947633 28.544772 
L 229.20787 27.81954 
L 231.491535 27.50469 
L 232.955813 23.430785 
L 233.063863 23.430785 
L 237.068719 23.430785 
L 241.073574 23.429862 
L 245.080209 23.428939 
L 249.085064 23.428939 
L 253.08992 23.428939 
L 257.094775 23.428939 
L 261.10141 23.428016 
L 265.106265 23.428016 
L 269.1129 23.428016 
L 273.117755 23.427093 
L 277.122611 23.42617 
L 281.146455 23.426156 
L 281.094622 23.694318 
L 281.048392 23.777892 
L 280.975545 23.812774 
L 280.700968 23.849837 
L 280.396973 23.954486 
L 280.807437 24.253898 
L 280.972743 24.490811 
L 280.983951 26.649189 
L 281.373401 29.102619 
L 281.219302 29.598247 
L 281.463059 29.760307 
L 281.519095 29.968878 
L 281.530302 30.188349 
L 281.636771 30.384565 
L 281.827293 30.573514 
L 281.951974 30.745022 
L 282.875168 32.89032 
L 285.105403 36.243437 
L 286.574949 37.59951 
L 288.407328 39.879978 
L 288.537612 40.17939 
L 288.501188 40.528219 
L 288.382112 40.836351 
L 288.164972 40.983876 
L 287.834359 40.849432 
L 287.486936 41.101606 
L 287.175936 40.847979 
L 286.705233 40.050759 
L 286.587557 39.895966 
L 286.458674 39.672135 
L 286.408241 39.473011 
L 286.528719 39.385804 
L 286.752863 39.448303 
L 286.876143 39.595101 
L 286.954593 39.773876 
L 287.05826 39.929396 
L 287.453314 40.227354 
L 287.685864 40.321102 
L 287.834359 40.240435 
L 287.797936 40.092183 
L 287.373463 39.619083 
L 287.10449 38.926513 
L 286.91817 38.677972 
L 286.646395 38.765179 
L 286.164485 38.410537 
L 286.024394 38.598759 
L 285.889908 38.566056 
L 285.777836 38.391642 
L 285.707791 38.156182 
L 285.749818 37.940344 
L 285.86189 37.733227 
L 285.895511 37.522476 
L 285.707791 37.303005 
L 285.23989 37.20417 
L 284.956907 37.503582 
L 284.843434 37.978861 
L 284.884061 38.410537 
L 284.970916 38.510825 
L 285.183853 38.524633 
L 285.225881 38.643089 
L 285.167043 38.85602 
L 285.108205 39.008633 
L 285.183853 39.46211 
L 285.17825 39.671408 
L 285.108205 39.874165 
L 284.935894 40.042765 
L 284.760781 40.09509 
L 284.641705 40.189564 
L 284.637502 40.484615 
L 284.725759 40.644495 
L 285.225881 41.214976 
L 285.685376 42.265823 
L 285.903917 43.384255 
L 286.060818 45.73885 
L 286.310178 46.846382 
L 287.075071 48.978599 
L 287.117098 50.139908 
L 287.069467 50.424058 
L 286.978408 50.706755 
L 286.811701 50.877536 
L 286.287764 50.80341 
L 286.228926 51.033782 
L 286.293368 51.564293 
L 286.164485 52.833158 
L 286.287764 53.555524 
L 286.293368 53.820053 
L 286.699723 54.865946 
L 286.837688 55.495605 
L 286.929467 56.079396 
L 287.020914 56.934841 
L 286.758467 57.612114 
L 286.76407 57.73275 
L 286.70103 57.928966 
L 286.490895 58.185501 
L 286.411043 58.353375 
L 286.399836 58.834468 
L 286.525917 59.442012 
L 287.615819 62.271886 
L 287.716684 62.876523 
L 287.716684 64.040739 
L 287.683062 64.360499 
L 287.592003 64.555262 
L 287.304819 64.954962 
L 287.251584 65.226758 
L 287.373463 66.302313 
L 287.346846 66.639515 
L 287.373463 66.78922 
L 287.440706 66.958548 
L 287.716684 67.421473 
L 288.069711 68.44107 
L 288.75195 72.235311 
L 288.890639 74.078291 
L 288.95368 74.291948 
L 289.097973 74.414765 
L 289.256274 74.509966 
L 289.361342 74.63787 
L 289.361342 74.757053 
L 289.271684 74.99106 
L 289.26468 75.114603 
L 289.683455 75.692004 
L 289.890264 76.582295 
L 290.248113 77.72864 
L 290.482063 78.474988 
L 290.626356 79.399385 
L 290.854703 79.723505 
L 291.226099 80.40485 
L 291.62391 81.082007 
L 292.191163 81.599914 
L 292.286425 81.807757 
L 292.441925 82.003974 
L 292.635249 82.110076 
L 292.843983 82.043217 
L 293.037308 81.932028 
L 293.16479 81.963277 
L 294.192734 81.810081 
L 294.764463 81.5563 
L 294.84444 81.885839 
L 295.228318 82.088274 
L 295.547723 82.147866 
L 295.900751 82.123884 
L 296.01078 82.329158 
L 296.051122 82.620119 
L 296.328341 82.871847 
L 296.199143 83.562076 
L 296.466715 83.418911 
L 296.665512 83.356466 
L 296.858967 83.506845 
L 297.140549 83.794629 
L 299.081458 84.340855 
L 299.794672 85.020967 
L 300.275766 85.82365 
L 301.021386 86.554743 
L 301.495093 86.865076 
L 302.244518 87.155921 
L 302.461532 87.408185 
L 302.244932 87.71854 
L 301.791885 87.951517 
L 301.674181 88.572332 
L 302.147657 89.580652 
L 302.974802 90.336698 
L 303.89995 90.549883 
L 304.588808 90.433593 
L 304.687392 89.774219 
L 305.033228 89.670942 
L 305.634215 89.314846 
L 305.740683 89.503795 
L 305.59499 89.654227 
L 305.352634 89.785038 
L 305.174719 89.913669 
L 305.149503 90.057561 
L 305.163512 90.253777 
L 305.118683 90.467435 
L 304.916953 90.668011 
L 304.656386 90.742137 
L 304.426638 90.727603 
L 304.234714 90.743591 
L 304.10443 90.90129 
L 304.328575 90.89911 
L 304.928161 90.790101 
L 305.155107 90.830798 
L 305.310607 90.926726 
L 305.453499 91.043002 
L 305.634215 91.144744 
L 305.861161 91.202155 
L 306.345873 91.26102 
L 306.579824 91.339507 
L 306.840391 91.385291 
L 307.018306 91.302444 
L 307.043522 91.160732 
L 306.830585 91.032828 
L 307.10236 90.785741 
L 307.441378 91.130209 
L 307.993333 92.008822 
L 307.83223 92.248642 
L 308.118013 92.425237 
L 308.550892 92.457939 
L 308.828271 92.263903 
L 309.010388 92.538606 
L 309.069226 93.247165 
L 309.181298 93.473177 
L 309.521717 93.526955 
L 309.688424 93.255885 
L 309.660406 92.848192 
L 309.416649 92.497183 
L 309.708037 92.675231 
L 310.425298 93.412132 
L 310.538771 93.686835 
L 310.537371 93.968805 
L 310.579398 94.143219 
L 310.758713 94.542192 
L 310.719488 94.703525 
L 308.270102 96.741079 
L 307.793292 97.433286 
L 306.75605 100.168889 
L 306.281018 100.934932 
L 305.932306 101.203509 
L 305.078316 101.616064 
L 304.781199 101.888332 
L 304.694021 102.240897 
L 304.715371 102.619303 
L 304.670892 102.97279 
L 304.380891 103.260749 
L 303.973467 103.321663 
L 303.669233 103.135228 
L 303.407699 102.870344 
L 303.128373 102.695908 
L 302.521685 102.888803 
L 302.420274 102.905416 
L 302.341991 103.065085 
L 302.363341 103.178607 
L 302.40782 103.301358 
L 302.402482 103.488716 
L 302.222789 103.830205 
L 301.938125 104.07663 
L 301.680149 104.079399 
L 301.582296 103.693609 
L 301.607204 103.33643 
L 301.589413 103.039242 
L 301.427511 102.861114 
L 301.032541 102.859268 
L 300.628675 103.006016 
L 300.612147 103.017086 
L 299.449101 103.796056 
L 298.910021 104.48734 
L 298.571983 104.745764 
L 298.161 104.839904 
L 297.767809 104.719922 
L 297.251857 104.225224 
L 296.901366 104.128315 
L 296.300015 104.450422 
L 295.550995 105.794228 
L 294.848232 106.15879 
L 294.152587 106.255699 
L 291.873502 106.961751 
L 291.688471 107.07435 
L 291.645771 107.27832 
L 291.837919 108.096048 
L 291.853931 108.420924 
L 291.77387 109.165739 
L 291.665342 109.531224 
L 291.288163 110.203127 
L 291.206323 110.601838 
L 291.063991 110.958094 
L 290.094357 112.115465 
L 288.482452 111.661377 
L 287.98607 111.703832 
L 287.167663 112.209605 
L 286.646374 112.242831 
L 286.390177 112.20499 
L 285.456126 112.356353 
L 285.285328 112.327742 
L 284.619928 111.919801 
L 284.442013 111.854272 
L 283.999006 111.778591 
L 283.691214 111.65307 
L 283.431459 111.474019 
L 283.15747 111.353114 
L 282.806979 111.399261 
L 282.693114 111.533088 
L 282.691153 111.540984 
L 282.655752 111.683527 
L 282.694893 111.842274 
L 283.036489 112.316666 
L 283.098759 112.658155 
L 283.018697 113.003336 
L 282.600598 113.603249 
L 282.65931 113.796144 
L 282.839004 113.971503 
L 282.988452 114.192087 
L 283.031151 114.419131 
L 282.999127 115.136258 
L 283.022255 115.204555 
L 283.123667 115.365147 
L 283.145016 115.46944 
L 283.112992 115.543275 
L 282.988452 115.686332 
L 282.956427 115.765705 
L 282.890599 116.834473 
L 282.467162 117.906933 
L 282.282131 118.153359 
L 281.714584 118.562222 
L 281.45305 118.798496 
L 281.296485 119.13537 
L 281.268018 119.45194 
L 281.300043 120.034317 
L 281.248448 120.379497 
L 281.03673 121.092009 
L 281.024276 121.337512 
L 281.141699 121.750991 
L 281.365871 122.066637 
L 281.636301 122.354596 
L 281.880044 122.68224 
L 281.898309 122.733693 
L 282.008143 123.043111 
L 281.999247 123.358758 
L 281.938756 123.679019 
L 281.913848 124.060194 
L 282.002805 124.435832 
L 282.315935 125.15942 
L 282.362193 125.539672 
L 282.186057 125.99376 
L 281.465504 126.741344 
L 281.186178 127.208353 
L 280.613293 128.837348 
L 279.835807 131.057949 
L 279.010283 133.412377 
L 278.547706 134.175651 
L 277.697274 135.060753 
L 277.485556 135.45485 
L 276.551505 138.876662 
L 276.507026 139.631629 
L 276.743653 140.411054 
L 276.179664 140.791307 
L 275.843405 141.343227 
L 274.971624 143.942235 
L 274.658495 144.434625 
L 273.391743 145.675522 
L 273.25297 145.986554 
L 273.228062 146.378343 
L 273.425547 148.072867 
L 273.776039 151.06551 
L 273.891706 152.053214 
L 274.094506 153.784961 
L 274.35604 156.027713 
L 274.615795 158.240469 
L 274.996532 161.523378 
L 273.450455 166.386827 
L 273.373952 166.767079 
L 273.381069 167.221167 
L 273.475363 167.659565 
L 273.77426 168.55159 
L 273.822297 169.44223 
L 273.50856 170.227414 
L 272.793951 172.015857 
L 272.731681 172.374881 
L 272.67119 173.385504 
L 272.512846 173.891277 
L 269.956214 177.631042 
L 268.292714 183.510651 
L 268.317622 183.85214 
L 268.454616 184.136868 
L 268.50977 184.289615 
L 268.515107 184.442824 
L 268.360321 184.705401 
L 268.104124 184.965671 
L 267.90486 185.270704 
L 267.920873 185.666646 
L 268.322959 186.378697 
L 268.397683 186.644966 
L 268.401242 187.080595 
L 268.063204 189.064923 
L 267.915535 189.415641 
L 267.646884 189.525472 
L 267.17719 189.393491 
L 267.020625 189.306734 
L 266.920993 189.231053 
L 266.807128 189.171984 
L 266.597189 189.13599 
L 266.451299 189.141527 
L 261.259754 189.905724 
L 260.818526 190.054318 
L 260.794588 190.065545 
L 260.55877 190.176146 
L 260.4965 190.232446 
L 260.500059 190.327509 
L 260.382635 190.783443 
L 260.357727 190.974492 
L 260.295457 191.157235 
L 260.124659 191.347361 
L 259.975211 191.411967 
L 259.642511 191.43781 
L 259.494842 191.499647 
L 259.340056 191.677775 
L 256.102012 197.182208 
L 255.91876 197.68152 
L 255.872502 198.178986 
L 255.822686 198.402338 
L 255.664342 198.644149 
L 255.484649 198.793666 
L 255.109249 198.993945 
L 254.94023 199.13977 
L 254.810353 199.341894 
L 254.50434 200.122704 
L 254.333542 201.101947 
L 254.184094 201.526501 
L 253.847835 201.92152 
L 253.203785 202.299927 
L 253.048999 202.454982 
L 252.999183 202.620188 
L 252.996666 202.702653 
L 252.986729 203.028129 
L 252.951146 203.202565 
L 252.431636 203.796941 
L 251.278284 204.249847 
L 250.901571 204.397777 
L 250.236171 204.839866 
L 249.972858 205.185047 
L 249.73801 205.595757 
L 249.5512 206.033232 
L 249.430218 206.457786 
L 249.419543 206.818657 
L 249.549421 207.495174 
L 249.517396 208.225222 
L 249.641937 208.592553 
L 250.001324 209.319832 
L 250.044023 209.653938 
L 249.979974 210.005579 
L 247.811196 214.900869 
L 247.76138 215.287121 
L 247.92862 215.771666 
L 248.229295 216.115001 
L 248.44813 216.480948 
L 248.382302 217.037021 
L 247.245428 220.453756 
L 247.232974 220.649882 
L 247.398435 220.882925 
L 247.909049 221.266869 
L 248.003344 221.534984 
L 247.871687 222.146434 
L 247.581687 222.572834 
L 246.651194 223.299651 
L 246.338064 223.603761 
L 246.266898 223.8165 
L 246.265119 224.03293 
L 246.161929 224.350884 
L 245.941315 224.64761 
L 245.752726 224.672068 
L 245.542786 224.608846 
L 245.252786 224.63838 
L 245.041068 224.828968 
L 244.811558 225.377658 
L 244.672784 225.520714 
L 244.493091 225.451493 
L 244.468183 225.190762 
L 244.537569 224.653609 
L 244.429042 224.383187 
L 244.201311 224.178755 
L 243.696034 223.845111 
L 241.612655 221.965999 
L 241.400937 221.879242 
L 241.109157 221.992764 
L 239.034674 223.459321 
L 238.737557 223.724667 
L 238.465348 224.099382 
L 237.799947 225.421959 
L 236.317919 227.570109 
L 236.184484 228.202787 
L 236.260987 228.941603 
L 237.098964 232.871956 
L 237.116756 233.677224 
L 236.970866 234.432653 
L 236.915712 234.536484 
L 236.750252 234.711843 
L 236.702215 234.807368 
L 236.698657 235.009031 
L 236.757368 235.44466 
L 236.730681 235.64217 
L 236.341048 236.239314 
L 235.326936 237.205174 
L 233.197299 243.390277 
L 232.658218 246.043277 
L 232.723738 247.411076 
L 229.800022 247.398619 
L 229.746647 247.375545 
L 229.695942 247.32386 
L 229.647905 247.238027 
L 229.590972 247.121274 
L 229.465542 246.614117 
L 229.401493 245.824539 
L 229.508242 244.459507 
L 229.869408 242.836973 
L 230.975147 240.557303 
L 231.03119 240.369023 
L 231.046313 240.262423 
L 231.046313 240.138748 
L 230.943122 239.732653 
L 230.815024 239.381012 
L 230.750975 238.848935 
L 230.943122 237.665261 
L 230.961803 237.298391 
L 230.935116 236.825844 
L 230.848828 236.526349 
L 230.077568 234.553097 
L 229.821371 234.240219 
L 226.093618 231.098059 
L 222.365864 227.955899 
L 221.003039 226.253069 
L 220.85626 226.136317 
L 220.672118 226.044946 
L 216.886987 224.614845 
L 216.702846 224.470866 
L 216.726864 224.260435 
L 216.844288 223.988629 
L 217.298859 223.162594 
L 217.362908 222.943857 
L 217.426958 222.609752 
L 216.573413 215.989711 
L 215.719868 209.369671 
L 215.725205 209.10894 
L 215.802598 208.935888 
L 215.866647 208.82975 
L 216.092599 208.54779 
L 216.289194 208.255679 
L 216.513367 207.745753 
L 216.572078 207.554242 
L 216.806036 205.188739 
L 216.788245 203.116732 
L 217.787234 199.662156 
L 217.893983 198.19283 
L 209.675223 198.089461 
L 209.624517 198.165142 
L 209.61918 198.25559 
L 209.63964 198.35896 
L 209.651204 198.469713 
L 209.645867 198.701372 
L 209.579149 199.129156 
L 209.563137 199.355739 
L 209.571143 199.586474 
L 209.696572 200.414354 
L 209.912739 201.036879 
L 209.947432 201.24408 
L 209.958107 201.471124 
L 209.93142 201.901216 
L 204.212358 201.927289 
L 198.493296 201.953362 
L 203.02122 207.145378 
L 203.074595 207.251517 
L 203.154656 207.533476 
L 203.186681 207.740677 
L 203.27208 209.567643 
L 203.029227 212.4583 
L 203.081711 214.316646 
L 203.346804 215.523394 
L 204.572635 217.898588 
L 204.492573 218.342063 
L 204.206131 218.901828 
L 200.15057 222.431854 
L 196.095009 225.961881 
L 195.870837 226.294602 
L 194.74019 229.237867 
L 193.669145 230.950388 
L 193.191444 231.440933 
L 191.308219 233.843815 
L 187.607153 237.611499 
L 183.906086 241.379184 
L 182.693599 241.884957 
L 179.00721 242.091235 
L 179.001623 242.091393 
L 177.057267 242.146611 
L 176.835764 242.203372 
L 176.503953 242.332584 
L 176.301131 242.527787 
L 176.060946 242.67315 
L 175.82343 242.594238 
L 175.547663 242.389345 
L 170.991273 238.169649 
L 166.932153 235.50442 
L 162.873034 232.839191 
L 162.095547 233.324198 
L 157.501795 235.615866 
L 156.553511 236.210703 
L 156.029552 236.631565 
L 156.002865 239.197808 
L 155.20136 240.503311 
L 153.751357 241.926489 
L 149.779416 242.828666 
L 147.712049 243.6044 
L 145.598425 244.756233 
L 145.254161 245.044652 
L 143.952026 246.081594 
L 142.841665 247.209098 
L 142.487294 247.895404 
L 142.463669 248.655244 
L 142.534543 249.292529 
L 142.747166 249.733726 
L 142.724946 249.733528 
L 135.861264 249.672349 
L 128.997581 249.611171 
L 128.170716 248.655244 
L 126.414794 244.896059 
L 126.237769 244.968048 
L 125.954885 245.019271 
L 124.254912 245.112027 
L 122.049662 244.779306 
L 121.953588 244.789459 
L 121.59509 244.889137 
L 121.495458 244.900212 
L 120.09705 244.718392 
L 117.636492 244.728544 
L 116.846552 244.585488 
L 112.390683 244.692088 
L 105.744687 247.011906 
L 105.560546 247.028519 
L 104.564224 246.945454 
L 104.13634 246.743329 
L 103.378424 246.234788 
L 100.13015 242.31874 
L 96.881876 238.402692 
L 95.559082 237.887229 
L 95.553746 237.881474 
L 95.310891 237.619575 
L 95.108069 237.353768 
L 94.079723 235.618635 
L 93.978312 235.478809 
L 93.916931 235.41974 
L 93.807514 235.329292 
L 93.759477 235.304372 
L 93.291562 235.164085 
L 93.030027 235.04641 
L 92.409995 234.672156 
L 92.276559 234.558634 
L 92.164473 234.432653 
L 92.119105 234.35651 
L 92.08708 234.257755 
L 91.983 231.49354 
L 91.961651 231.395247 
L 91.926957 231.312182 
L 91.83889 231.163588 
L 91.090759 230.207881 
L 91.02671 230.158965 
L 90.8399 230.176962 
L 90.07042 230.385086 
L 89.709253 230.566444 
L 89.557136 230.609361 
L 89.418363 230.625974 
L 88.727165 230.598286 
L 88.627533 230.614899 
L 88.355324 230.692426 
L 87.963022 230.757955 
L 87.407039 230.763492 
L 87.308297 230.778721 
L 86.568173 230.967001 
L 85.296973 231.425704 
L 85.243599 231.434011 
L 85.027433 231.497694 
L 84.832617 231.529535 
L 84.140529 231.504616 
L 83.932369 231.523997 
L 83.736663 231.561377 
L 83.480466 231.651364 
L 83.317675 231.728891 
L 83.141539 231.786113 
L 82.936048 231.808264 
L 82.825741 231.809648 
L 82.622918 231.833183 
L 82.534851 231.860872 
L 82.214605 232.015926 
L 82.1212 232.032539 
L 82.021567 232.033924 
L 81.834757 232.006235 
L 81.738683 232.014542 
L 81.573223 232.078225 
L 81.479818 232.100375 
L 81.375738 232.097607 
L 81.274327 232.079609 
L 81.175584 232.047768 
L 81.002117 231.968856 
L 80.907823 231.937015 
L 80.702331 231.90102 
L 80.584908 231.913479 
L 80.462147 231.943937 
L 80.307361 232.009004 
L 80.192606 232.024233 
L 79.991563 231.997929 
L 79.89282 232.000698 
L 79.4765 232.166827 
L 79.279015 232.200515 
L 78.837787 232.164059 
L 78.653646 232.203284 
L 78.402786 232.30573 
L 78.132356 232.387872 
L 78.025608 232.433096 
L 77.902847 232.546618 
L 77.732049 232.759818 
L 76.871832 234.669388 
L 76.826464 234.859514 
L 76.81312 235.007646 
L 76.850482 235.204695 
L 76.87717 235.294682 
L 77.018612 235.631094 
L 77.071986 235.814298 
L 77.082661 235.915361 
L 77.077323 236.026114 
L 77.055974 236.131329 
L 76.869163 236.656484 
L 76.41815 237.615422 
L 76.319408 237.927377 
L 76.169959 238.253176 
L 76.024959 238.456685 
L 75.792781 238.701726 
L 75.320418 239.363015 
L 75.095356 239.6219 
L 74.500232 239.993385 
L 73.906887 240.497773 
L 73.760107 240.58776 
L 73.610659 240.658365 
L 73.423849 240.692976 
L 73.261057 240.705435 
L 73.198787 240.721125 
L 73.132069 240.791731 
L 73.073358 240.905253 
L 73.009308 241.2712 
L 73.038664 246.025279 
L 73.00664 246.235711 
L 72.88121 246.644574 
L 71.826177 247.864244 
L 71.327127 248.334022 
L 71.190133 248.540299 
L 71.072709 248.861945 
L 70.741788 252.274527 
L 70.723107 252.369129 
L 70.656389 252.542181 
L 69.096079 255.264863 
L 68.991999 255.532516 
L 68.975987 255.648807 
L 68.975987 257.552839 
L 68.879913 257.671898 
L 68.709115 257.768808 
L 67.86491 258.059996 
L 66.299263 258.228895 
L 65.906961 258.312421 
L 64.026405 259.535782 
L 63.505116 259.78913 
L 62.514132 260.568094 
L 62.410052 260.712073 
L 62.37269 260.965882 
L 62.296012 261.078735 
L 61.326553 261.216 
L 59.529616 260.908198 
L 59.04213 260.992186 
L 58.711209 260.941424 
L 58.026238 260.647929 
L 57.069058 260.748991 
L 55.980222 260.492874 
L 55.385987 260.508564 
L 54.845127 260.765604 
L 54.565801 260.85236 
L 54.012487 260.697306 
L 53.460952 260.709304 
L 53.23678 260.617471 
L 52.978804 260.431037 
L 52.708374 260.312439 
L 52.416594 260.27829 
L 52.099906 260.343819 
L 51.859722 260.482722 
L 51.454077 260.802521 
L 51.199659 260.86159 
L 50.847388 260.696383 
L 50.585854 260.305978 
L 50.443522 259.827894 
L 50.452418 259.398725 
L 50.67837 258.933562 
L 51.388248 258.108912 
L 51.680028 257.616983 
L 51.891746 256.601284 
L 51.918434 255.979682 
L 51.792114 255.593431 
L 51.48966 255.578664 
L 50.850947 256.225185 
L 50.379473 256.263949 
L 49.920454 255.991219 
L 49.694502 255.62758 
L 49.650024 255.19195 
L 50.028982 252.919664 
L 50.116791 252.784575 
L 50.313645 252.481728 
L 50.575179 252.374205 
L 51.132052 252.398202 
L 51.409598 252.348363 
L 51.608862 252.221458 
L 51.986041 251.827823 
L 52.651441 250.96764 
L 52.879172 250.78582 
L 53.032178 250.57262 
L 53.00727 250.311889 
L 52.831135 249.763661 
L 52.854264 249.44663 
L 53.284817 248.0576 
L 53.275921 247.939002 
L 53.181627 247.794561 
L 53.080215 247.753952 
L 52.952117 247.75949 
L 52.822239 247.53383 
L 52.774202 247.364931 
L 52.797331 246.808858 
L 52.761748 246.573969 
L 52.594509 246.131418 
L 52.583834 245.936215 
L 52.797331 245.419829 
L 53.434265 244.412898 
L 53.667333 243.884974 
L 53.752732 243.200612 
L 53.249234 240.115675 
L 52.891626 239.317329 
L 50.027202 234.566941 
L 47.162779 229.816553 
L 44.033263 226.695159 
L 42.245222 225.4035 
L 39.795339 221.742185 
L 39.757977 221.253948 
" clip-path="url(#pc6d0d93b05)" style="fill: #f5f5f5; stroke: #000000"/>
    <path d="M 287.716684 43.79849 
L 287.894598 43.923487 
L 287.954837 43.966363 
L 288.030486 44.196736 
L 287.828756 45.387114 
L 287.702675 45.674898 
L 287.528963 45.677805 
L 287.352449 45.270111 
L 287.339841 44.709805 
L 287.467323 44.16258 
L 287.716684 43.79849 
" clip-path="url(#pc6d0d93b05)" style="fill: #f5f5f5; stroke: #000000"/>
   </g>
  </g>
 </g>
 <defs>
  <clipPath id="pc6d0d93b05">
   <rect x="7.2" y="7.2" width="318.01389" height="266.112"/>
  </clipPath>
 </defs>
</svg>
