<?xml version="1.0" encoding="utf-8" standalone="no"?>
<!DOCTYPE svg PUBLIC "-//W3C//DTD SVG 1.1//EN"
  "http://www.w3.org/Graphics/SVG/1.1/DTD/svg11.dtd">
<svg xmlns:xlink="http://www.w3.org/1999/xlink" width="273.741858pt" height="280.512pt" viewBox="0 0 273.741858 280.512" xmlns="http://www.w3.org/2000/svg" version="1.1">
 <metadata>
  <rdf:RDF xmlns:dc="http://purl.org/dc/elements/1.1/" xmlns:cc="http://creativecommons.org/ns#" xmlns:rdf="http://www.w3.org/1999/02/22-rdf-syntax-ns#">
   <cc:Work>
    <dc:type rdf:resource="http://purl.org/dc/dcmitype/StillImage"/>
    <dc:date>2024-03-04T13:11:13.258562</dc:date>
    <dc:format>image/svg+xml</dc:format>
    <dc:creator>
     <cc:Agent>
      <dc:title>Matplotlib v3.8.0, https://matplotlib.org/</dc:title>
     </cc:Agent>
    </dc:creator>
   </cc:Work>
  </rdf:RDF>
 </metadata>
 <defs>
  <style type="text/css">*{stroke-linejoin: round; stroke-linecap: butt}</style>
 </defs>
 <g id="figure_1">
  <g id="patch_1">
   <path d="M 0 280.512 
L 273.741858 280.512 
L 273.741858 0 
L 0 0 
z
" style="fill: #ffffff"/>
  </g>
  <g id="axes_1">
   <g id="PatchCollection_1">
    <defs>
     <path id="m30dbdf8c02" d="M 249.297691 -104.748744 
L 247.363398 -103.363022 
L 245.876779 -101.026123 
L 243.766257 -98.452841 
L 242.963244 -97.151239 
L 241.766188 -94.215903 
L 243.106533 -94.422364 
L 243.736406 -93.587543 
L 243.873724 -92.276965 
L 243.739391 -91.05316 
L 243.599088 -90.909535 
L 243.336392 -90.774886 
L 243.076681 -90.580394 
L 242.951304 -90.263222 
L 243.073696 -90.215347 
L 243.614013 -89.826363 
L 243.739391 -89.670769 
L 244.094627 -88.276409 
L 244.193138 -87.459542 
L 243.936413 -87.100479 
L 243.270718 -86.711495 
L 243.581176 -85.89762 
L 244.21702 -85.182487 
L 244.524493 -85.086737 
L 244.55136 -84.290815 
L 244.133435 -82.519439 
L 243.957309 -82.17833 
L 243.160266 -81.008384 
L 242.951304 -80.344119 
L 242.912496 -79.736704 
L 243.011007 -79.34772 
L 243.372214 -78.955743 
L 244.133435 -78.330376 
L 243.440873 -77.95336 
L 243.0528 -77.47461 
L 242.139335 -74.781641 
L 241.688573 -73.892961 
L 237.482456 -68.192842 
L 235.45552 -64.063623 
L 233.20171 -58.351536 
L 232.267349 -56.948199 
L 229.503073 -54.177433 
L 228.810512 -53.89916 
L 227.93884 -53.773488 
L 226.664168 -53.758527 
L 226.046236 -53.42041 
L 225.464126 -53.085285 
L 223.908848 -49.138588 
L 223.258079 -48.632909 
L 222.126697 -48.513221 
L 220.18633 -49.105674 
L 219.35048 -48.959057 
L 218.42209 -47.82801 
L 217.333992 -47.47194 
L 216.222013 -47.262486 
L 215.096601 -47.232565 
L 213.962233 -47.406111 
L 213.290567 -47.744229 
L 213.150264 -48.21101 
L 213.214445 -48.770549 
L 213.139816 -49.38694 
L 212.621887 -50.703503 
L 212.953242 -51.795651 
L 213.108472 -51.858487 
L 213.411467 -51.849511 
L 213.687596 -51.942269 
L 213.783122 -52.301331 
L 213.711478 -52.624488 
L 213.4652 -53.249855 
L 213.381615 -53.587972 
L 213.344301 -54.751933 
L 213.086083 -55.012254 
L 212.305458 -55.455098 
L 211.042728 -55.948809 
L 210.074037 -55.906918 
L 209.16773 -55.417153 
L 208.185912 -54.886582 
L 205.330588 -54.0368 
L 203.114093 -54.838707 
L 197.436283 -60.380239 
L 197.191498 -60.918833 
L 197.379565 -61.714755 
L 198.496021 -62.848795 
L 198.875139 -63.623771 
L 198.561695 -64.198271 
L 197.534794 -64.078584 
L 195.173517 -63.133052 
L 194.018253 -62.399966 
L 191.79131 -60.505911 
L 189.701685 -59.497544 
L 189.215101 -59.323997 
L 188.755383 -59.374864 
L 188.307606 -59.844638 
L 188.510598 -60.948755 
L 188.238947 -61.487349 
L 186.265744 -61.322779 
L 181.64618 -57.765067 
L 180.298372 -57.848848 
L 179.620736 -58.692645 
L 178.707271 -59.02777 
L 177.683355 -58.946981 
L 176.687798 -58.540044 
L 175.719107 -57.59152 
L 175.398201 -56.51134 
L 175.242971 -55.452105 
L 174.76385 -54.560433 
L 173.116031 -53.8453 
L 171.038347 -53.884199 
L 168.799463 -54.171449 
L 166.662075 -54.204363 
L 163.375393 -53.908136 
L 162.270877 -54.057746 
L 161.058894 -54.06373 
L 158.917029 -53.061347 
L 154.358661 -51.918331 
L 153.213845 -52.157706 
L 152.607853 -52.642441 
L 151.942158 -53.908136 
L 151.512293 -54.416808 
L 150.960035 -54.713035 
L 146.879295 -55.724395 
L 145.903142 -56.203145 
L 142.762734 -58.79438 
L 141.482092 -59.518489 
L 140.105925 -59.644161 
L 139.413363 -59.419747 
L 139.053649 -59.093598 
L 138.61035 -58.076254 
L 137.998388 -55.610691 
L 137.959581 -53.040402 
L 137.661063 -52.029042 
L 135.972945 -49.497651 
L 135.529646 -49.03087 
L 134.841562 -48.713698 
L 134.190793 -48.761573 
L 133.678835 -49.069768 
L 133.148965 -49.312135 
L 132.437 -49.147565 
L 131.684735 -48.222979 
L 130.807093 -46.559322 
L 130.120502 -44.844798 
L 129.953332 -43.770603 
L 130.619026 -43.327759 
L 133.148965 -43.175157 
L 134.219152 -42.920821 
L 135.311728 -41.909462 
L 135.841597 -39.632407 
L 136.622221 -38.402617 
L 138.177499 -37.331414 
L 138.676024 -36.891562 
L 140.744753 -34.204577 
L 142.717956 -32.508007 
L 143.153792 -31.854214 
L 143.334395 -31.116639 
L 143.240362 -30.587022 
L 143.0314 -30.058901 
L 142.846319 -29.318334 
L 142.917963 -26.745052 
L 143.240362 -24.433587 
L 142.935874 -22.348032 
L 141.099989 -20.440512 
L 137.296871 -19.296 
L 133.657938 -20.051527 
L 130.039902 -21.511715 
L 126.314399 -22.48268 
L 123.532212 -22.315118 
L 122.615762 -22.422837 
L 121.523187 -22.883634 
L 119.448488 -24.215157 
L 118.332031 -24.686427 
L 117.221544 -24.818083 
L 115.525963 -24.400673 
L 114.448313 -24.28697 
L 113.603507 -24.460517 
L 110.598925 -25.555658 
L 110.409366 -26.227404 
L 110.057115 -26.788439 
L 109.549635 -27.198369 
L 108.337652 -27.588849 
L 107.851068 -27.882084 
L 107.440606 -28.278549 
L 107.118207 -28.77226 
L 104.940519 -29.909291 
L 99.277635 -30.002049 
L 97.69549 -30.65285 
L 92.134102 -38.546242 
L 91.713192 -40.272735 
L 91.27437 -41.535438 
L 90.705694 -44.087775 
L 89.972832 -45.212838 
L 89.457889 -45.488119 
L 88.125007 -45.736471 
L 87.589167 -46.005767 
L 87.341397 -46.523416 
L 87.372742 -48.608971 
L 86.727943 -49.901596 
L 84.660707 -51.708878 
L 84.220393 -52.759136 
L 84.592048 -53.590964 
L 84.695036 -54.192394 
L 84.415922 -54.754926 
L 83.459172 -55.643605 
L 83.186028 -56.152277 
L 82.999455 -56.948199 
L 83.118862 -57.510731 
L 83.402454 -58.151059 
L 83.480068 -58.782411 
L 82.999455 -59.318012 
L 81.820309 -58.450278 
L 81.005355 -58.169012 
L 80.632208 -58.707606 
L 80.936696 -60.658513 
L 80.832215 -61.080411 
L 79.372462 -62.782966 
L 79.091856 -63.306599 
L 79.053048 -64.291029 
L 79.327685 -65.048053 
L 79.482914 -65.730272 
L 79.091856 -66.469342 
L 77.891814 -65.790115 
L 77.432096 -66.131225 
L 77.085816 -68.411272 
L 76.512661 -69.473499 
L 75.020072 -71.053374 
L 74.718569 -71.810398 
L 74.945442 -72.384898 
L 75.342471 -73.117984 
L 75.473819 -73.746344 
L 74.915591 -74.018633 
L 72.939402 -73.719414 
L 72.748351 -73.587758 
L 72.366248 -74.679906 
L 73.363298 -76.765461 
L 72.960298 -77.145469 
L 72.276693 -77.019798 
L 71.118443 -76.478211 
L 70.578126 -76.355532 
L 69.885564 -76.603883 
L 69.628839 -77.145469 
L 69.443758 -77.690048 
L 68.981055 -77.935407 
L 68.745226 -78.533845 
L 67.978035 -81.529025 
L 68.515367 -82.103525 
L 69.416891 -82.82165 
L 70.046764 -83.635526 
L 69.769142 -84.494284 
L 67.849672 -84.697752 
L 67.112333 -85.122643 
L 67.583991 -85.876674 
L 67.88848 -86.409284 
L 67.852658 -86.864097 
L 67.685488 -87.369776 
L 67.583991 -88.069948 
L 67.769073 -88.273417 
L 68.578056 -88.231527 
L 68.766122 -88.467909 
L 68.706419 -88.904769 
L 68.431782 -89.637855 
L 68.369094 -90.083691 
L 67.828776 -91.370332 
L 66.831726 -92.288934 
L 66.306335 -93.345176 
L 67.186963 -95.041747 
L 66.989941 -95.146473 
L 66.951134 -95.176395 
L 66.939193 -95.227262 
L 66.831726 -95.400809 
L 66.440668 -95.038755 
L 65.936173 -94.703629 
L 65.363018 -94.518114 
L 64.783894 -94.613864 
L 64.14208 -95.083637 
L 64.249547 -95.463645 
L 64.622694 -95.924442 
L 64.783894 -96.624614 
L 64.162977 -97.962122 
L 64.031629 -98.599458 
L 64.079392 -99.308607 
L 64.38985 -100.499498 
L 64.46448 -101.187701 
L 64.258502 -101.878897 
L 63.897296 -102.354655 
L 63.768933 -102.836397 
L 64.246562 -103.560506 
L 64.330147 -103.922561 
L 64.46448 -105.933312 
L 64.285369 -106.745691 
L 62.849498 -109.704965 
L 61.022569 -108.271707 
L 59.479231 -108.008394 
L 57.935894 -108.484152 
L 56.111949 -109.275586 
L 56.174638 -108.226824 
L 55.771639 -107.719648 
L 54.138746 -107.297749 
L 53.995458 -107.103257 
L 53.586488 -106.709784 
L 53.153637 -106.464425 
L 52.95363 -106.721753 
L 52.819297 -107.020972 
L 52.476002 -107.193023 
L 52.022255 -107.276804 
L 51.556567 -107.297749 
L 51.225212 -107.549093 
L 50.487873 -107.987449 
L 49.744563 -108.134066 
L 49.180364 -106.997034 
L 48.649003 -106.916245 
L 48.01913 -107.094281 
L 46.225201 -108.095889 
L 46.213097 -108.102648 
L 45.239928 -108.647226 
L 43.610021 -108.982351 
L 43.120451 -109.18582 
L 42.836859 -109.428187 
L 42.642823 -109.722918 
L 42.392068 -110.409625 
L 42.272661 -111.015543 
L 42.308483 -111.495789 
L 42.60103 -112.541559 
L 42.633867 -112.930543 
L 42.50849 -113.647173 
L 42.499534 -114.024188 
L 43.377177 -115.731232 
L 43.460762 -116.75456 
L 42.51446 -117.827259 
L 41.311433 -118.528928 
L 41.087545 -118.636646 
L 40.965152 -118.810193 
L 40.344235 -118.893974 
L 40.063628 -119.013662 
L 39.803918 -119.302408 
L 39.729288 -119.502885 
L 39.67854 -119.709346 
L 39.218823 -120.563615 
L 38.92926 -121.577967 
L 38.720298 -121.996874 
L 36.517236 -123.409186 
L 33.693257 -124.582124 
L 32.732029 -125.195523 
L 32.084246 -126.269718 
L 31.74095 -127.492027 
L 31.585721 -130.119168 
L 31.340936 -131.230766 
L 30.111042 -133.866884 
L 27.182582 -138.163666 
L 26.242251 -139.266287 
L 22.442118 -142.267452 
L 21.042069 -144.029851 
L 20.4719 -146.075011 
L 19.71665 -150.998657 
L 18.988266 -153.492646 
L 19.089762 -154.691017 
L 19.892775 -155.922303 
L 24.922802 -161.071858 
L 25.564615 -162.054792 
L 25.937762 -163.197808 
L 26.060155 -164.655004 
L 25.898955 -165.614 
L 25.585511 -166.4952 
L 25.403415 -167.406321 
L 25.633274 -168.465555 
L 26.203443 -169.355731 
L 26.866153 -170.093306 
L 27.412441 -170.851825 
L 27.839321 -172.769818 
L 28.902045 -175.3431 
L 29.881184 -176.982819 
L 30.794648 -179.930124 
L 31.82752 -181.423226 
L 32.290223 -182.428601 
L 32.370823 -183.526734 
L 31.890209 -184.550063 
L 30.340901 -186.530891 
L 29.56774 -188.912673 
L 28.609497 -189.553001 
L 27.645285 -190.042224 
L 27.209449 -190.839642 
L 27.606477 -192.786061 
L 28.534868 -194.116088 
L 29.588636 -195.247135 
L 30.367768 -196.212116 
L 31.543928 -198.173495 
L 31.979764 -198.583425 
L 32.705163 -198.767445 
L 33.263391 -198.607363 
L 33.818634 -198.332081 
L 34.541048 -198.188456 
L 35.956022 -198.384445 
L 36.627688 -198.91107 
L 37.496375 -200.559765 
L 39.045682 -202.052867 
L 40.983063 -203.005879 
L 43.153288 -203.131551 
L 45.422024 -202.142633 
L 47.956441 -203.053754 
L 49.28186 -203.285649 
L 50.765494 -203.363446 
L 51.075953 -203.173442 
L 51.962551 -202.334133 
L 52.344654 -202.142633 
L 53.090949 -202.208461 
L 54.064117 -202.506184 
L 58.634426 -202.975957 
L 60.088208 -203.363446 
L 60.70614 -203.605813 
L 61.136005 -203.845188 
L 61.63453 -204.038184 
L 62.455454 -204.154879 
L 62.95995 -204.059129 
L 63.410712 -203.866133 
L 63.885355 -203.818258 
L 64.46448 -204.154879 
L 62.356943 -206.057911 
L 62.097233 -206.70572 
L 62.168877 -207.473216 
L 62.347988 -208.130001 
L 63.207719 -210.082404 
L 63.592807 -211.746061 
L 63.971925 -212.546471 
L 64.622694 -212.887581 
L 65.649596 -212.851674 
L 66.380964 -212.624268 
L 66.873519 -212.024334 
L 67.186963 -210.872342 
L 68.085501 -211.244869 
L 68.995981 -211.769998 
L 69.700483 -212.441744 
L 69.984075 -213.248139 
L 69.551224 -214.407612 
L 67.625784 -216.748999 
L 67.233282 -217.731221 
L 67.186963 -217.847132 
L 66.939193 -218.203203 
L 66.360068 -218.379742 
L 65.703329 -218.346828 
L 65.216745 -218.06257 
L 65.115249 -217.507519 
L 65.413767 -216.94798 
L 66.004832 -216.246312 
L 65.852588 -215.861815 
L 65.470485 -215.613464 
L 64.97196 -215.547636 
L 64.46448 -215.691261 
L 64.174917 -216.008433 
L 64.070436 -216.464741 
L 63.980881 -220.508684 
L 63.7958 -220.670262 
L 63.431608 -220.652309 
L 62.849498 -220.794438 
L 62.016633 -220.454824 
L 61.503182 -220.454824 
L 61.273324 -220.991922 
L 61.470345 -221.627762 
L 61.942004 -222.248641 
L 64.751057 -225.074763 
L 65.345107 -225.999349 
L 65.574966 -227.353314 
L 65.64064 -228.595072 
L 65.822736 -229.51517 
L 66.358211 -230.722118 
L 67.14799 -231.534956 
L 67.662758 -232.029727 
L 69.514979 -232.736544 
L 70.295356 -233.36561 
L 70.835979 -234.072426 
L 71.209714 -234.899401 
L 72.59888 -241.154723 
L 72.873892 -246.644328 
L 73.271133 -248.569224 
L 73.399984 -250.016027 
L 74.088734 -252.3726 
L 74.756726 -253.96906 
L 76.286868 -256.492633 
L 76.526623 -257.142903 
L 76.850997 -257.656523 
L 77.332856 -257.991083 
L 78.653857 -258.224332 
L 79.053448 -258.485854 
L 79.354316 -258.747376 
L 79.657535 -258.862823 
L 79.925496 -259.032458 
L 80.658863 -259.850009 
L 80.983236 -260.120955 
L 81.549715 -260.330644 
L 82.132648 -260.436666 
L 82.752312 -261.075771 
L 83.176 -261.216 
L 84.775773 -260.792653 
L 88.349876 -259.945781 
L 90.465082 -259.709558 
L 93.332135 -259.706757 
L 97.843335 -259.514622 
L 100.334199 -259.371335 
L 101.320834 -258.995386 
L 103.112199 -257.861898 
L 104.170344 -257.4048 
L 105.276805 -257.115501 
L 107.99711 -256.871863 
L 114.267379 -255.412759 
L 117.92346 -254.447008 
L 120.882121 -254.321805 
L 123.599504 -253.621064 
L 125.559645 -253.06215 
L 127.361632 -252.591008 
L 131.254117 -251.747541 
L 133.635301 -250.955247 
L 135.04722 -250.571433 
L 136.23725 -250.364537 
L 138.479285 -249.585659 
L 142.128763 -249.235238 
L 143.176028 -248.081521 
L 144.003416 -247.596174 
L 144.341893 -246.823388 
L 144.341893 -241.826199 
L 144.367749 -241.826199 
L 144.772041 -241.826199 
L 145.07526 -242.737991 
L 145.173982 -243.642716 
L 145.131672 -245.602953 
L 144.94363 -246.618412 
L 143.947003 -248.802473 
L 143.321321 -250.225969 
L 144.210868 -251.395166 
L 143.630878 -251.913639 
L 142.923672 -251.880925 
L 142.247027 -251.850486 
L 141.443304 -252.527578 
L 141.252856 -253.685045 
L 141.512816 -254.55253 
L 142.450691 -255.773555 
L 142.84469 -256.367902 
L 143.608223 -257.165253 
L 144.17094 -257.763363 
L 145.014444 -258.400816 
L 146.057797 -258.797945 
L 147.421581 -259.153977 
L 148.824588 -259.230008 
L 154.081707 -259.458239 
L 156.999521 -259.692153 
L 159.382963 -259.72985 
L 173.381611 -259.03321 
L 176.791035 -258.386568 
L 178.414079 -257.265656 
L 179.328263 -256.882192 
L 180.554227 -256.492633 
L 180.960869 -256.2853 
L 181.572008 -255.785816 
L 182.166694 -255.298113 
L 182.744925 -254.944705 
L 182.925916 -254.895228 
L 183.407776 -254.768001 
L 183.901388 -254.768001 
L 184.504884 -254.683875 
L 185.317798 -254.604779 
L 185.979393 -254.830308 
L 186.722029 -255.142614 
L 187.658509 -255.229109 
L 188.647105 -254.515634 
L 189.796528 -253.665368 
L 190.242604 -252.810806 
L 189.54975 -251.115187 
L 188.696478 -250.166629 
L 188.769345 -250.201969 
L 190.362057 -250.73136 
L 190.900852 -252.022123 
L 190.956507 -253.31481 
L 191.258561 -253.75961 
L 192.535007 -253.764488 
L 194.443535 -252.426084 
L 195.614101 -252.181054 
L 196.368623 -252.35069 
L 196.83873 -252.652265 
L 197.285331 -252.755931 
L 198.578125 -251.964297 
L 199.069387 -251.877124 
L 199.560649 -251.983146 
L 200.129478 -252.181054 
L 200.580781 -252.463781 
L 200.895752 -252.850174 
L 201.28359 -253.184733 
L 201.960544 -253.330809 
L 202.508219 -253.213006 
L 203.088801 -252.923211 
L 204.111283 -252.181054 
L 203.850374 -252.652265 
L 203.457835 -253.10934 
L 203.004182 -253.5028 
L 202.536425 -253.75961 
L 201.774852 -253.910398 
L 201.248716 -253.830622 
L 200.713207 -253.402166 
L 200.050743 -252.999543 
L 198.728521 -252.878114 
L 197.841339 -253.439301 
L 197.028669 -253.620001 
L 196.111153 -253.091441 
L 195.240366 -253.1329 
L 194.365967 -253.856209 
L 193.468063 -254.308571 
L 190.116201 -255.272197 
L 188.940934 -255.835294 
L 187.939606 -256.499701 
L 187.511809 -257.121699 
L 187.29556 -257.729561 
L 186.95808 -258.120551 
L 187.341777 -258.727256 
L 187.851503 -259.054744 
L 189.448649 -259.692153 
L 191.271203 -260.004408 
L 193.610879 -260.146611 
L 195.395501 -260.163364 
L 209.277758 -259.692153 
L 210.330798 -259.442412 
L 212.803524 -259.166841 
L 215.056375 -258.761974 
L 226.712263 -257.127866 
L 233.826282 -255.55207 
L 239.367884 -254.455005 
L 244.183195 -252.897295 
L 248.339279 -251.706439 
L 249.664408 -251.564469 
L 250.382133 -251.313811 
L 251.843651 -251.417588 
L 252.177992 -250.944726 
L 252.783468 -250.716935 
L 253.117059 -250.132017 
L 253.023512 -249.527258 
L 254.422729 -246.851789 
L 254.753592 -245.819226 
L 254.201173 -245.174151 
L 252.824444 -242.537008 
L 252.166209 -241.3981 
L 251.860557 -239.093157 
L 251.056158 -234.609606 
L 250.435617 -232.340727 
L 249.714002 -231.004844 
L 248.663314 -229.737287 
L 247.661986 -228.863191 
L 247.121363 -228.281246 
L 246.88631 -227.739354 
L 246.540781 -226.632009 
L 244.089174 -222.815202 
L 242.963244 -221.505082 
L 238.416817 -218.224148 
L 235.980911 -215.71819 
L 235.44249 -214.945092 
L 234.78684 -214.003667 
L 234.11816 -211.698186 
L 233.745012 -211.304713 
L 232.855429 -210.67785 
L 232.598704 -210.308314 
L 232.4584 -209.653025 
L 232.267349 -209.295459 
L 229.112015 -205.734755 
L 228.049291 -204.050153 
L 227.694055 -203.137535 
L 227.532855 -202.142633 
L 228.037351 -199.83416 
L 227.923914 -198.97989 
L 227.652262 -198.673191 
L 226.114895 -197.594507 
L 225.849215 -197.024495 
L 225.950711 -196.433538 
L 226.314902 -195.618167 
L 226.314902 -188.468333 
L 226.502969 -187.688868 
L 226.971642 -187.368704 
L 227.565692 -187.202637 
L 228.123921 -186.885466 
L 228.810512 -185.817254 
L 228.828423 -184.831328 
L 228.631401 -183.725715 
L 228.679164 -182.304425 
L 229.398592 -180.411867 
L 229.503073 -179.734136 
L 229.503073 -177.362827 
L 229.231422 -176.364932 
L 228.088099 -174.244967 
L 227.923914 -172.778795 
L 228.926934 -166.534098 
L 230.688189 -162.861187 
L 231.198655 -160.364206 
L 231.252388 -158.892049 
L 230.882226 -157.900139 
L 230.249368 -156.818463 
L 230.479227 -155.831041 
L 231.153877 -155.042599 
L 231.87032 -154.559361 
L 233.810686 -154.035728 
L 234.407722 -153.561466 
L 234.63161 -152.367583 
L 234.46444 -151.49536 
L 233.688294 -149.493586 
L 233.44948 -148.592938 
L 233.524109 -147.156687 
L 234.073382 -146.185722 
L 236.046585 -144.405371 
L 236.410777 -143.841343 
L 237.031694 -141.835081 
L 237.416782 -141.308456 
L 238.222781 -140.660647 
L 238.610854 -140.255206 
L 240.040754 -137.581685 
L 241.127359 -136.99372 
L 241.372144 -136.498513 
L 241.572151 -136.531427 
L 242.005002 -135.852201 
L 242.55726 -134.718161 
L 243.142355 -134.010509 
L 243.47371 -133.798064 
L 244.133435 -133.497349 
L 246.103652 -132.913872 
L 246.715614 -132.50843 
L 247.912671 -130.731071 
L 248.509707 -130.095231 
L 249.688852 -125.986956 
L 251.038153 -123.928331 
L 251.07099 -123.579741 
L 251.688922 -123.690452 
L 252.324765 -123.88644 
L 252.933742 -123.980694 
L 253.456148 -123.775729 
L 254.265131 -122.946893 
L 254.611412 -122.216799 
L 254.527827 -121.331112 
L 254.065124 -120.019037 
L 253.602422 -117.586388 
L 253.790488 -113.207321 
L 252.847171 -110.889871 
L 250.748591 -108.70707 
L 250.479925 -107.927605 
L 250.342606 -106.913253 
L 249.951548 -105.777718 
L 249.330631 -104.772343 
L 249.297691 -104.748744 
" style="stroke: #000000"/>
    </defs>
    <g clip-path="url(#p28db723660)">
     <use xlink:href="#m30dbdf8c02" x="0" y="280.512" style="fill: #f5f5f5; stroke: #000000"/>
    </g>
   </g>
  </g>
 </g>
 <defs>
  <clipPath id="p28db723660">
   <rect x="7.2" y="7.2" width="259.341858" height="266.112"/>
  </clipPath>
 </defs>
</svg>
