<?xml version="1.0" encoding="utf-8" standalone="no"?>
<!DOCTYPE svg PUBLIC "-//W3C//DTD SVG 1.1//EN"
  "http://www.w3.org/Graphics/SVG/1.1/DTD/svg11.dtd">
<svg xmlns:xlink="http://www.w3.org/1999/xlink" width="371.52pt" height="243.439819pt" viewBox="0 0 371.52 243.439819" xmlns="http://www.w3.org/2000/svg" version="1.1">
 <metadata>
  <rdf:RDF xmlns:dc="http://purl.org/dc/elements/1.1/" xmlns:cc="http://creativecommons.org/ns#" xmlns:rdf="http://www.w3.org/1999/02/22-rdf-syntax-ns#">
   <cc:Work>
    <dc:type rdf:resource="http://purl.org/dc/dcmitype/StillImage"/>
    <dc:date>2024-03-04T13:11:13.319558</dc:date>
    <dc:format>image/svg+xml</dc:format>
    <dc:creator>
     <cc:Agent>
      <dc:title>Matplotlib v3.8.0, https://matplotlib.org/</dc:title>
     </cc:Agent>
    </dc:creator>
   </cc:Work>
  </rdf:RDF>
 </metadata>
 <defs>
  <style type="text/css">*{stroke-linejoin: round; stroke-linecap: butt}</style>
 </defs>
 <g id="figure_1">
  <g id="patch_1">
   <path d="M 0 243.439819 
L 371.52 243.439819 
L 371.52 0 
L 0 0 
z
" style="fill: #ffffff"/>
  </g>
  <g id="axes_1">
   <g id="PatchCollection_1">
    <defs>
     <path id="m08fb02dd95" d="M 347.165096 -127.343165 
L 346.785814 -123.958345 
L 346.525522 -123.012987 
L 346.101618 -122.344716 
L 344.53243 -120.448565 
L 344.666295 -118.883833 
L 345.179441 -117.354416 
L 345.357927 -115.906495 
L 344.487809 -114.578103 
L 343.268156 -113.793021 
L 342.978116 -112.831363 
L 343.045048 -111.633364 
L 342.888873 -110.141979 
L 342.197241 -108.900517 
L 341.416365 -108.153466 
L 341.074268 -107.153776 
L 341.676657 -105.14353 
L 342.978116 -103.622263 
L 346.042123 -103.290844 
L 347.544378 -102.019499 
L 348.087273 -99.992954 
L 348.035214 -97.279122 
L 347.462572 -94.673952 
L 347.022738 -93.938474 
L 346.45859 -92.995125 
L 345.157131 -92.742486 
L 340.003353 -94.10891 
L 337.497114 -93.869853 
L 336.574938 -94.02198 
L 335.764315 -94.39958 
L 335.310663 -94.883126 
L 334.931381 -95.412853 
L 334.366175 -95.918131 
L 331.398849 -96.944986 
L 331.079062 -98.085937 
L 331.473218 -100.245593 
L 331.331917 -101.432725 
L 330.186633 -102.378083 
L 328.334842 -102.361784 
L 321.522634 -100.386853 
L 320.831001 -100.00382 
L 320.518651 -99.226887 
L 319.633659 -95.798603 
L 319.038706 -94.994504 
L 317.484392 -93.429772 
L 316.867129 -92.49528 
L 316.770449 -91.740079 
L 316.755575 -89.431013 
L 316.443225 -88.311795 
L 316.532468 -87.33927 
L 316.703517 -86.57592 
L 317.053051 -85.986429 
L 317.677752 -85.557214 
L 316.40604 -83.378543 
L 317.53645 -81.955071 
L 319.648533 -81.123807 
L 322.868714 -80.493568 
L 324.110678 -79.98829 
L 324.638699 -78.820174 
L 324.095804 -76.527407 
L 323.575221 -75.821104 
L 322.065528 -74.451964 
L 321.522634 -73.430542 
L 321.158225 -72.00707 
L 321.113604 -71.045412 
L 321.403643 -70.159817 
L 322.058091 -68.986268 
L 325.025418 -65.927434 
L 325.947595 -64.053016 
L 325.003107 -62.04277 
L 322.995142 -60.760559 
L 319.960883 -59.592443 
L 317.581072 -59.641341 
L 317.521577 -62.015604 
L 316.79276 -63.803093 
L 313.95186 -66.356649 
L 312.895819 -67.801853 
L 312.427294 -70.105486 
L 312.397546 -72.186362 
L 311.921584 -73.897788 
L 310.121852 -75.093069 
L 308.641907 -75.481536 
L 307.243768 -75.587481 
L 304.105393 -75.041455 
L 299.316023 -72.553096 
L 297.821205 -72.061401 
L 296.899028 -72.262426 
L 295.143917 -73.332746 
L 294.370479 -73.351762 
L 293.589603 -72.458017 
L 293.448302 -71.257303 
L 293.559856 -70.064738 
L 293.530108 -69.236191 
L 292.429445 -67.693191 
L 291.075928 -67.139015 
L 282.828396 -67.236811 
L 281.155091 -67.856184 
L 279.630525 -68.904772 
L 278.715785 -70.181549 
L 277.280462 -73.973851 
L 276.640888 -74.506295 
L 275.049389 -75.400039 
L 274.528806 -75.916184 
L 274.387504 -76.505675 
L 274.491621 -78.108438 
L 274.06028 -88.192267 
L 273.829736 -88.852388 
L 273.264531 -88.72471 
L 272.104373 -87.860848 
L 271.613537 -87.18986 
L 271.360682 -86.442809 
L 271.011147 -85.81257 
L 270.230272 -85.49745 
L 269.687378 -85.736507 
L 267.850461 -87.502263 
L 267.798403 -88.80349 
L 266.370516 -89.186523 
L 262.867732 -88.751876 
L 261.491904 -87.464232 
L 260.242503 -84.932408 
L 259.677298 -82.35712 
L 260.368931 -80.936365 
L 261.328292 -80.265378 
L 261.469593 -79.211357 
L 261.28367 -77.885681 
L 261.291107 -76.38343 
L 262.257905 -72.653609 
L 262.354585 -71.300767 
L 261.908371 -68.986268 
L 259.803726 -64.531128 
L 258.732811 -60.765992 
L 258.078363 -59.701105 
L 257.245429 -58.913306 
L 256.382747 -58.50039 
L 255.601872 -57.913616 
L 255.200279 -56.870461 
L 254.865618 -55.658881 
L 254.339569 -54.64754 
L 254.300413 -54.572261 
L 249.072266 -50.986417 
L 247.741059 -48.959872 
L 247.458457 -47.601597 
L 247.614632 -45.232767 
L 247.384088 -43.93969 
L 246.811445 -42.956299 
L 246.12725 -42.548817 
L 244.550625 -42.043539 
L 242.706272 -40.592902 
L 242.393921 -39.397621 
L 243.67307 -35.735713 
L 241.308133 -33.513576 
L 241.151958 -33.252788 
L 241.099899 -32.981133 
L 241.151958 -32.714911 
L 241.308133 -32.448689 
L 242.081571 -31.650024 
L 242.676524 -29.737574 
L 243.330972 -28.74875 
L 244.030041 -28.341268 
L 245.599229 -28.020715 
L 246.275988 -27.580634 
L 247.094048 -25.83661 
L 246.818882 -24.049121 
L 245.026587 -20.490442 
L 242.728582 -17.610901 
L 240.564442 -18.023816 
L 238.206942 -19.094136 
L 235.358606 -18.208541 
L 235.626334 -19.827604 
L 236.057675 -21.077217 
L 236.347715 -22.38116 
L 236.228724 -24.201248 
L 235.827131 -25.575821 
L 235.224741 -26.950395 
L 233.97534 -29.215996 
L 233.268834 -30.894824 
L 232.800309 -31.563094 
L 232.31691 -31.948844 
L 228.189425 -34.20358 
L 227.088763 -34.600196 
L 225.854236 -34.681692 
L 225.973226 -34.964213 
L 226.248392 -35.469491 
L 227.512667 -38.425096 
L 229.57269 -40.973219 
L 230.636168 -43.439845 
L 228.806689 -45.895605 
L 227.7209 -46.281355 
L 225.512138 -46.227024 
L 224.359417 -46.390017 
L 223.809086 -46.770334 
L 223.281065 -47.753724 
L 223.052554 -47.839281 
L 222.686113 -47.976481 
L 222.239898 -47.76459 
L 221.124362 -46.759467 
L 220.611215 -46.46608 
L 219.34694 -46.531277 
L 215.992894 -48.519791 
L 214.602192 -49.00877 
L 213.903123 -49.372787 
L 209.359172 -56.185891 
L 207.314022 -58.315665 
L 205.328367 -59.331654 
L 203.446829 -60.097721 
L 202.123059 -61.206073 
L 201.334747 -62.895766 
L 201.052144 -65.460188 
L 201.297562 -68.16587 
L 202.465157 -73.61255 
L 202.710575 -76.641502 
L 202.67339 -79.814431 
L 202.375914 -82.188694 
L 201.386805 -83.633898 
L 199.319344 -84.000632 
L 198.365978 -83.793236 
L 195.31085 -83.12862 
L 193.354943 -82.052867 
L 191.82294 -80.412071 
L 191.220551 -79.078246 
L 191.495716 -78.632732 
L 191.971678 -78.265998 
L 192.001426 -77.201111 
L 191.570085 -76.239453 
L 190.856142 -75.372874 
L 190.030645 -74.734485 
L 187.992932 -73.69133 
L 184.452963 -68.964536 
L 182.965581 -67.915948 
L 179.84208 -67.209645 
L 178.287766 -66.48161 
L 176.88219 -65.036406 
L 176.16081 -64.009551 
L 175.855896 -63.123956 
L 176.108751 -62.716474 
L 177.789493 -61.233238 
L 179.916449 -57.071486 
L 180.117245 -53.213987 
L 178.555494 -49.807435 
L 175.409682 -47.036555 
L 174.628806 -46.770334 
L 173.141425 -46.607341 
L 172.420044 -46.042299 
L 171.906898 -44.961112 
L 171.750723 -43.754965 
L 171.743286 -42.575982 
L 171.364003 -39.582346 
L 171.230139 -39.370455 
L 170.53107 -37.805723 
L 170.479011 -37.577533 
L 169.579145 -36.387685 
L 169.065998 -35.953037 
L 168.374366 -35.735713 
L 163.272646 -34.562164 
L 162.234832 -33.712629 
L 161.453057 -32.189609 
L 161.257613 -30.190645 
L 159.776664 -30.12151 
L 159.688056 -29.949465 
L 159.464949 -28.868278 
L 159.524444 -28.319535 
L 159.353395 -27.966384 
L 158.453529 -27.466539 
L 158.037062 -27.488271 
L 156.750477 -27.890321 
L 154.772259 -27.852289 
L 151.314097 -29.139933 
L 150.60759 -29.058437 
L 150.064696 -28.797648 
L 149.462306 -28.650954 
L 148.577314 -28.960641 
L 148.473197 -29.226863 
L 147.11968 -31.237109 
L 146.041328 -32.258531 
L 144.910918 -32.921369 
L 137.578126 -34.790354 
L 136.373346 -34.154682 
L 135.674277 -32.9594 
L 134.885965 -31.910813 
L 133.376272 -31.715221 
L 131.234442 -30.769862 
L 126.98053 -27.596933 
L 124.675088 -26.771103 
L 119.268456 -27.357877 
L 118.323968 -27.026458 
L 116.301129 -25.749681 
L 111.861294 -23.891561 
L 109.689717 -23.478646 
L 107.339653 -23.435181 
L 105.130891 -23.896994 
L 103.457587 -24.918417 
L 100.229968 -28.602057 
L 99.731695 -29.44962 
L 99.344976 -30.509074 
L 98.839266 -32.43239 
L 98.013769 -34.616495 
L 97.753478 -35.735713 
L 97.403943 -35.974769 
L 92.532768 -41.57086 
L 90.896648 -42.304328 
L 90.294258 -42.054405 
L 89.781111 -41.516529 
L 89.23078 -41.092747 
L 88.546584 -41.190543 
L 87.914447 -41.679521 
L 87.869826 -42.005507 
L 88.018564 -42.445588 
L 87.988816 -43.260553 
L 88.092933 -43.363782 
L 88.070622 -44.461267 
L 87.944195 -45.504422 
L 87.743398 -45.401193 
L 88.070622 -45.944503 
L 88.650701 -46.661672 
L 89.156411 -47.46577 
L 89.23078 -48.269868 
L 88.130117 -49.351055 
L 82.403697 -50.633266 
L 81.778997 -52.399022 
L 82.440882 -56.001166 
L 83.690283 -59.766302 
L 86.241143 -64.791917 
L 84.605023 -67.644293 
L 82.054163 -70.385291 
L 80.678335 -72.78672 
L 81.065054 -74.001017 
L 82.961466 -76.250319 
L 83.474612 -78.010642 
L 83.39389 -79.041256 
L 83.318437 -80.004589 
L 82.646177 -81.049214 
L 81.563327 -81.591053 
L 70.843022 -84.391815 
L 66.046216 -84.546658 
L 61.435332 -83.623032 
L 55.299883 -79.37435 
L 52.964693 -78.771276 
L 50.599756 -78.659898 
L 48.383557 -77.934579 
L 46.048368 -75.889018 
L 43.995781 -73.148021 
L 42.478651 -71.061711 
L 42.091932 -69.627374 
L 42.389408 -68.578786 
L 43.051293 -66.791297 
L 43.088478 -66.367515 
L 43.78011 -64.628924 
L 44.085024 -64.18341 
L 44.836151 -63.786794 
L 46.040931 -64.346403 
L 46.546641 -64.123646 
L 46.918486 -61.700485 
L 45.059259 -59.706538 
L 40.455812 -56.615106 
L 36.781979 -52.252329 
L 34.44679 -51.035315 
L 32.000046 -52.143667 
L 28.72037 -52.013272 
L 25.455567 -51.225473 
L 23.722767 -50.176885 
L 24.682128 -52.458786 
L 25.232459 -53.51824 
L 25.455567 -54.420134 
L 24.183855 -56.039197 
L 23.432727 -57.478968 
L 23.700456 -58.74488 
L 25.455567 -59.874964 
L 29.768974 -62.015604 
L 29.887964 -62.053636 
L 30.006955 -62.064502 
L 30.140819 -62.053636 
L 30.706024 -61.868911 
L 31.137365 -61.81458 
L 31.553832 -61.863478 
L 33.137894 -62.363323 
L 33.450244 -63.064192 
L 33.383312 -64.036716 
L 33.420496 -65.172234 
L 33.933643 -68.149571 
L 34.171624 -68.969969 
L 35.219044 -71.34136 
L 36.499376 -74.240073 
L 36.402697 -75.402756 
L 35.525141 -76.994653 
L 34.4691 -78.14647 
L 30.931324 -80.342349 
L 30.587034 -80.556048 
L 31.412531 -81.354714 
L 31.546395 -82.047434 
L 31.397657 -82.759169 
L 31.397657 -83.560551 
L 31.345598 -83.883821 
L 31.17455 -84.318468 
L 31.018374 -84.81288 
L 31.018374 -85.350757 
L 31.300977 -85.991862 
L 32.119037 -86.88289 
L 34.625275 -91.218502 
L 37.168698 -94.456628 
L 35.428462 -96.417976 
L 35.205354 -97.803416 
L 36.172152 -99.080193 
L 45.847571 -107.990473 
L 51.001349 -110.834699 
L 51.715292 -111.44049 
L 53.611704 -113.58928 
L 55.998952 -114.860624 
L 56.757517 -115.428383 
L 57.56814 -116.449805 
L 57.843305 -117.321817 
L 57.813558 -119.095724 
L 57.2781 -119.687931 
L 56.898818 -120.204075 
L 56.698021 -120.796283 
L 56.802138 -121.306994 
L 57.932548 -124.727129 
L 58.430821 -125.63174 
L 58.569688 -125.979302 
L 58.832414 -126.636862 
L 58.951405 -128.092933 
L 58.720861 -129.255615 
L 57.761499 -131.086569 
L 57.464023 -132.037361 
L 58.534938 -135.726434 
L 62.022848 -137.747546 
L 69.764671 -140.181574 
L 74.565195 -143.835332 
L 76.208752 -146.206879 
L 75.346071 -148.15736 
L 76.312869 -149.828038 
L 76.989628 -150.493592 
L 78.796797 -151.140131 
L 79.064525 -151.808402 
L 79.332254 -151.993127 
L 80.365984 -152.525571 
L 80.276741 -154.323926 
L 82.433445 -155.073693 
L 86.989521 -159.273668 
L 87.148445 -159.420171 
L 88.516837 -161.669473 
L 90.606608 -163.81283 
L 95.492657 -167.379658 
L 95.202618 -169.987545 
L 95.663706 -172.144485 
L 97.017224 -173.529924 
L 97.671672 -173.611421 
L 98.058391 -173.763548 
L 99.106995 -175.173436 
L 99.858123 -175.610801 
L 100.594377 -175.811825 
L 101.271136 -176.24104 
L 101.828904 -177.395573 
L 101.077776 -178.463177 
L 99.999424 -179.435701 
L 98.928509 -180.30228 
L 97.60474 -179.669324 
L 89.044857 -178.832627 
L 89.401829 -180.177319 
L 90.294258 -181.820831 
L 91.357736 -183.200838 
L 93.209526 -184.282024 
L 93.32108 -186.265104 
L 95.210055 -186.683453 
L 96.37765 -187.351724 
L 97.448564 -188.256334 
L 97.991459 -189.141929 
L 97.641924 -190.394258 
L 96.898233 -191.847612 
L 96.719747 -193.018444 
L 98.058391 -193.42321 
L 98.697965 -193.920338 
L 99.344976 -194.086048 
L 99.999424 -193.920338 
L 100.653872 -193.42321 
L 102.520536 -193.154272 
L 106.105127 -193.773645 
L 107.800742 -193.42321 
L 108.737792 -192.88805 
L 108.870995 -192.866928 
L 109.697154 -192.735923 
L 111.653061 -192.931515 
L 110.344165 -189.948744 
L 110.753195 -188.231885 
L 112.314946 -187.302826 
L 114.427028 -186.645421 
L 114.724504 -186.409081 
L 114.925301 -186.031481 
L 115.21534 -185.651164 
L 115.773108 -185.417541 
L 116.256507 -185.515337 
L 118.978416 -186.688886 
L 120.882265 -187.085502 
L 122.885288 -187.000577 
L 125.879868 -186.873611 
L 126.575852 -187.151467 
L 127.880396 -187.672276 
L 128.90323 -188.998529 
L 129.300846 -189.514096 
L 129.53139 -190.497487 
L 129.412399 -191.089695 
L 129.062865 -191.58139 
L 128.824884 -191.836745 
L 128.460475 -192.486001 
L 128.453038 -193.132539 
L 129.293409 -193.377029 
L 130.408945 -192.991279 
L 130.733276 -192.786305 
L 131.345996 -192.399071 
L 132.275609 -192.263244 
L 133.376272 -193.246634 
L 133.502699 -193.42321 
L 133.599379 -193.72203 
L 133.606816 -193.996402 
L 133.595729 -194.035686 
L 133.532447 -194.259907 
L 133.0193 -194.974359 
L 132.863125 -195.398141 
L 132.959805 -195.72956 
L 133.376272 -195.952317 
L 134.119963 -195.794757 
L 134.700042 -195.984915 
L 135.012392 -196.585273 
L 134.990081 -197.636577 
L 134.744663 -197.631144 
L 133.547321 -198.538471 
L 133.376272 -198.609101 
L 136.120715 -200.832629 
L 136.514648 -201.151791 
L 138.24001 -202.102583 
L 140.770273 -203.047136 
L 140.809536 -203.061793 
L 144.479577 -204.15086 
L 146.10826 -204.319286 
L 145.163773 -201.686951 
L 144.397771 -200.956199 
L 142.702624 -200.970884 
L 142.516233 -200.972498 
L 145.189711 -199.574056 
L 146.234688 -199.02745 
L 147.818749 -198.818275 
L 150.976409 -199.466542 
L 153.812898 -200.048872 
L 155.166415 -200.809505 
L 156.311699 -202.165063 
L 157.620595 -204.188892 
L 158.632015 -203.678181 
L 163.272646 -203.401093 
L 163.711424 -202.950146 
L 163.941968 -201.964039 
L 164.083269 -200.977932 
L 164.276629 -200.532418 
L 173.639697 -200.532418 
L 176.874753 -201.249586 
L 177.573822 -201.719549 
L 177.893609 -202.175929 
L 178.183649 -202.708373 
L 178.793475 -203.401093 
L 179.380991 -203.85204 
L 180.942742 -204.68602 
L 182.259075 -205.074487 
L 182.749911 -205.587914 
L 183.106883 -206.101342 
L 183.478728 -206.340399 
L 187.360795 -206.986937 
L 188.662254 -206.99237 
L 190.528918 -206.427328 
L 191.361852 -206.340399 
L 191.748571 -205.884018 
L 192.13529 -204.870746 
L 192.641 -203.857473 
L 193.347506 -203.401093 
L 196.076852 -202.683924 
L 200.680299 -202.656759 
L 200.898372 -202.693112 
L 202.896498 -203.026209 
L 202.985741 -203.526054 
L 203.826111 -205.324409 
L 206.027436 -206.76418 
L 208.18414 -206.981504 
L 209.292239 -205.954649 
L 210.147484 -204.531177 
L 210.297243 -204.349171 
L 210.943233 -203.564086 
L 211.910031 -203.884639 
L 212.066381 -204.155691 
L 212.378557 -204.696887 
L 212.460363 -205.484686 
L 212.423178 -206.231737 
L 212.512421 -206.948905 
L 212.482673 -207.310206 
L 212.311625 -207.720405 
L 212.192634 -208.198518 
L 212.356246 -208.779859 
L 212.616538 -209.002616 
L 212.99582 -209.143877 
L 213.30817 -209.154743 
L 213.375102 -208.986317 
L 213.419724 -208.339778 
L 213.888249 -208.106155 
L 214.297279 -210.59723 
L 213.642831 -210.659711 
L 213.310028 -210.79461 
L 212.49011 -211.126957 
L 211.486128 -211.295383 
L 207.99078 -210.708609 
L 206.912428 -210.173448 
L 205.915883 -209.469862 
L 204.852405 -208.926553 
L 203.573256 -208.872222 
L 202.085875 -209.708919 
L 200.241521 -211.097075 
L 199.884549 -211.151406 
L 198.754139 -211.561605 
L 199.215228 -212.699839 
L 199.036742 -213.5963 
L 198.731829 -214.365083 
L 198.813635 -215.142016 
L 199.520141 -215.937965 
L 201.342184 -216.924072 
L 202.108185 -217.630374 
L 202.65108 -219.732983 
L 202.985741 -220.49905 
L 203.959976 -221.911655 
L 204.525181 -222.243074 
L 205.328367 -222.221342 
L 209.202997 -222.981975 
L 210.288785 -223.525285 
L 209.619463 -225.182379 
L 210.764747 -225.828918 
L 212.557042 -225.731122 
L 213.888249 -225.138915 
L 213.999803 -224.372848 
L 214.066735 -223.014574 
L 214.31959 -221.737796 
L 215.026096 -221.218935 
L 215.918525 -221.794843 
L 216.290371 -224.08761 
L 216.944819 -224.761315 
L 217.874432 -224.457061 
L 218.566065 -223.422056 
L 219.13127 -222.205042 
L 219.666727 -221.368345 
L 220.410418 -221.202636 
L 221.206168 -221.365629 
L 221.912674 -221.229801 
L 222.388636 -220.167631 
L 222.195277 -219.771015 
L 221.235915 -218.35026 
L 220.997934 -217.662973 
L 221.302847 -216.804544 
L 221.875489 -216.106391 
L 222.053975 -215.305009 
L 222.195277 -214.620439 
L 225.995537 -214.67477 
L 225.408021 -215.324025 
L 226.055032 -217.385885 
L 227.988629 -217.298956 
L 230.338692 -215.948831 
L 232.197919 -214.212956 
L 230.874149 -213.908703 
L 230.881586 -213.177951 
L 231.89973 -212.173287 
L 231.952501 -212.121214 
L 234.042273 -210.580931 
L 235.80482 -210.124551 
L 238.623409 -210.388056 
L 241.241201 -211.213887 
L 242.386485 -212.441767 
L 243.747439 -212.97421 
L 251.771864 -212.083182 
L 255.75061 -212.083182 
L 256.724845 -210.580931 
L 259.417006 -210.583647 
L 262.213284 -209.945258 
L 281.948816 -197.797439 
L 282.350112 -195.941168 
L 282.486298 -195.311211 
L 284.613254 -192.138282 
L 287.290541 -190.926702 
L 289.350565 -189.128347 
L 289.29107 -184.673207 
L 288.592 -183.075876 
L 285.80316 -179.579678 
L 285.468499 -178.637036 
L 285.096653 -176.78435 
L 284.821488 -176.061748 
L 282.367308 -173.122442 
L 280.054429 -169.226911 
L 278.864523 -167.222099 
L 277.62256 -163.677003 
L 277.451511 -160.13734 
L 278.001842 -158.398749 
L 278.782717 -156.882915 
L 279.385107 -155.198654 
L 279.422292 -152.954785 
L 278.738096 -151.553046 
L 277.637433 -150.422962 
L 276.797063 -149.295594 
L 276.878869 -148.31492 
L 278.500115 -147.836808 
L 282.895328 -147.106056 
L 284.375273 -147.576019 
L 285.721354 -147.220151 
L 289.491866 -147.687398 
L 290.696646 -147.505389 
L 304.291315 -143.224108 
L 304.172325 -142.02611 
L 304.477238 -141.765322 
L 304.923453 -141.800637 
L 305.198618 -141.474651 
L 305.198618 -140.855278 
L 304.901142 -139.850155 
L 304.722656 -137.383529 
L 304.492112 -136.250728 
L 304.611102 -135.264621 
L 305.525842 -133.966111 
L 307.310701 -132.59697 
L 315.007901 -130.111328 
L 317.789305 -127.462693 
L 319.410551 -126.522767 
L 322.519179 -125.523078 
L 323.518499 -125.484749 
L 324.006561 -125.46603 
L 325.865788 -125.995757 
L 329.004164 -127.595804 
L 329.740418 -128.668841 
L 329.933778 -129.472939 
L 329.993273 -130.358534 
L 330.335371 -131.689643 
L 331.428597 -133.534179 
L 332.596191 -133.751503 
L 333.99433 -133.384769 
L 335.786625 -133.468982 
L 335.82381 -135.433047 
L 337.080647 -137.845342 
L 338.895253 -139.926218 
L 340.985025 -141.124216 
L 341.379181 -141.202996 
L 341.780774 -141.124216 
L 342.160056 -140.87701 
L 342.167493 -140.87701 
L 342.167493 -140.860711 
L 342.911184 -140.062046 
L 344.41344 -137.644317 
L 346.860183 -135.699269 
L 347.499757 -134.933202 
L 347.886476 -133.159296 
L 346.994047 -129.587034 
L 347.165096 -127.343165 
" style="stroke: #000000"/>
    </defs>
    <g clip-path="url(#p01721c6ca0)">
     <use xlink:href="#m08fb02dd95" x="0" y="243.439819" style="fill: #f5f5f5; stroke: #000000"/>
    </g>
   </g>
  </g>
 </g>
 <defs>
  <clipPath id="p01721c6ca0">
   <rect x="7.2" y="7.2" width="357.12" height="229.039819"/>
  </clipPath>
 </defs>
</svg>
