<?xml version="1.0" encoding="utf-8" standalone="no"?>
<!DOCTYPE svg PUBLIC "-//W3C//DTD SVG 1.1//EN"
  "http://www.w3.org/Graphics/SVG/1.1/DTD/svg11.dtd">
<svg xmlns:xlink="http://www.w3.org/1999/xlink" width="304.438771pt" height="280.512pt" viewBox="0 0 304.438771 280.512" xmlns="http://www.w3.org/2000/svg" version="1.1">
 <metadata>
  <rdf:RDF xmlns:dc="http://purl.org/dc/elements/1.1/" xmlns:cc="http://creativecommons.org/ns#" xmlns:rdf="http://www.w3.org/1999/02/22-rdf-syntax-ns#">
   <cc:Work>
    <dc:type rdf:resource="http://purl.org/dc/dcmitype/StillImage"/>
    <dc:date>2024-03-04T13:11:13.344771</dc:date>
    <dc:format>image/svg+xml</dc:format>
    <dc:creator>
     <cc:Agent>
      <dc:title>Matplotlib v3.8.0, https://matplotlib.org/</dc:title>
     </cc:Agent>
    </dc:creator>
   </cc:Work>
  </rdf:RDF>
 </metadata>
 <defs>
  <style type="text/css">*{stroke-linejoin: round; stroke-linecap: butt}</style>
 </defs>
 <g id="figure_1">
  <g id="patch_1">
   <path d="M 0 280.512 
L 304.438771 280.512 
L 304.438771 0 
L 0 0 
z
" style="fill: #ffffff"/>
  </g>
  <g id="axes_1">
   <g id="PatchCollection_1">
    <defs>
     <path id="m163e08310c" d="M 30.151726 -132.092425 
L 29.984043 -132.989955 
L 29.26167 -134.490519 
L 29.00368 -135.778962 
L 28.616695 -136.489962 
L 28.529623 -136.918134 
L 28.529623 -138.892043 
L 28.413527 -139.192549 
L 27.716954 -140.390644 
L 27.56216 -140.87381 
L 27.346093 -141.88728 
L 26.069041 -145.336221 
L 26.307682 -145.46585 
L 26.333481 -145.693685 
L 26.572122 -146.004011 
L 26.643069 -146.337906 
L 26.572122 -146.671801 
L 26.333481 -146.982127 
L 26.333481 -147.312094 
L 26.533423 -147.524216 
L 26.546323 -147.553677 
L 26.456026 -147.626349 
L 26.333481 -147.972028 
L 26.652744 -148.649639 
L 26.88171 -149.003175 
L 27.197748 -149.321358 
L 27.40414 -150.051999 
L 27.275145 -150.759071 
L 27.042954 -151.405257 
L 26.901059 -151.955202 
L 26.901059 -154.264971 
L 27.1526 -154.838485 
L 29.01658 -157.709984 
L 29.855048 -158.54865 
L 29.493862 -159.844949 
L 27.987843 -162.891251 
L 28.529623 -164.511625 
L 28.33613 -165.334578 
L 28.042666 -168.461409 
L 28.132963 -169.154732 
L 27.733078 -169.543622 
L 25.820725 -172.118543 
L 25.008056 -172.519217 
L 24.611396 -172.813831 
L 24.443702 -173.28914 
L 24.147013 -173.560185 
L 23.508488 -173.46198 
L 22.895761 -173.234146 
L 22.676469 -173.108444 
L 22.250785 -173.33235 
L 22.308833 -173.874439 
L 22.512 -174.534373 
L 22.550699 -175.115743 
L 22.308833 -175.365183 
L 20.92536 -176.105645 
L 20.993082 -176.343299 
L 21.076929 -176.820573 
L 21.173676 -177.091617 
L 20.92536 -177.091617 
L 20.383581 -176.793076 
L 20.383581 -177.091617 
L 21.176901 -177.374446 
L 21.966996 -177.873325 
L 22.566823 -178.570577 
L 22.799014 -179.430848 
L 22.708718 -179.970972 
L 22.357206 -180.632871 
L 22.276584 -181.22799 
L 22.492651 -181.581526 
L 23.421416 -181.887924 
L 24.946783 -184.814417 
L 25.017731 -185.073677 
L 25.008056 -186.201064 
L 24.843587 -187.12615 
L 24.424353 -188.259429 
L 23.889023 -189.318074 
L 23.363368 -190.007469 
L 25.275721 -189.889624 
L 26.22706 -190.109602 
L 26.63017 -190.828458 
L 26.797863 -191.759437 
L 27.829794 -193.293345 
L 28.207442 -193.166451 
L 28.989701 -193.323598 
L 29.788342 -193.612948 
L 30.562409 -193.732678 
L 31.057976 -193.173934 
L 31.070263 -192.550336 
L 30.951491 -191.919254 
L 31.041594 -191.34305 
L 31.5003 -190.948935 
L 32.11464 -190.804261 
L 33.355605 -190.766845 
L 34.526946 -190.225561 
L 36.832766 -188.564295 
L 37.498941 -188.682724 
L 37.590451 -188.698992 
L 38.032775 -190.123291 
L 38.274415 -193.530633 
L 39.146777 -194.932482 
L 40.420507 -195.388956 
L 41.374781 -195.122056 
L 42.005503 -195.271719 
L 42.337246 -196.97539 
L 42.341342 -196.982873 
L 43.127696 -197.299661 
L 44.688118 -196.696018 
L 45.53181 -196.972896 
L 45.433516 -198.344812 
L 45.556384 -205.324125 
L 45.630105 -206.032533 
L 45.859458 -206.396714 
L 46.18301 -206.718491 
L 46.236253 -207.135055 
L 45.666965 -207.793575 
L 46.125672 -208.250049 
L 46.625334 -207.663866 
L 47.120901 -207.314651 
L 47.665616 -207.13256 
L 48.750948 -206.985391 
L 48.988493 -206.913054 
L 49.205559 -206.913054 
L 49.541398 -207.067706 
L 49.729796 -207.342089 
L 49.783038 -207.686316 
L 49.926384 -207.998115 
L 50.372804 -208.150273 
L 51.10182 -208.262521 
L 54.107987 -207.803552 
L 54.861577 -207.79108 
L 57.667059 -208.317397 
L 57.896413 -208.718995 
L 57.859552 -209.80655 
L 57.716207 -210.490014 
L 57.437706 -211.285725 
L 57.053177 -212.020357 
L 57.048625 -212.029055 
L 56.589918 -212.555372 
L 55.942814 -212.807306 
L 54.636319 -212.942003 
L 54.234951 -213.331128 
L 54.415157 -213.341106 
L 54.636319 -213.777625 
L 54.894341 -214.500999 
L 54.902533 -214.92754 
L 54.857481 -215.291721 
L 54.7469 -215.623476 
L 54.554407 -215.945253 
L 54.361914 -216.082444 
L 53.735288 -216.359322 
L 53.456787 -216.601278 
L 53.247912 -216.965459 
L 52.498418 -219.587067 
L 52.396028 -220.385273 
L 52.563948 -221.108647 
L 53.747575 -222.96697 
L 53.931877 -225.052283 
L 53.903207 -227.197462 
L 54.43973 -229.237875 
L 54.910724 -230.367836 
L 55.045878 -231.315705 
L 55.078643 -232.248608 
L 55.250658 -233.318703 
L 55.74213 -234.266573 
L 56.389234 -235.12215 
L 56.835654 -236.055053 
L 56.700499 -237.234901 
L 57.069103 -237.257351 
L 57.441802 -237.207463 
L 57.48121 -237.194062 
L 64.777013 -234.713069 
L 67.279422 -234.555922 
L 68.037107 -234.381315 
L 68.827557 -234.076999 
L 69.572955 -233.650458 
L 70.183199 -233.091713 
L 71.3914 -231.99418 
L 71.702665 -231.373076 
L 71.743621 -230.367836 
L 71.399591 -228.818817 
L 71.547032 -228.265062 
L 72.292431 -227.611531 
L 73.074689 -227.187484 
L 73.443293 -227.292249 
L 73.750463 -227.746228 
L 74.364802 -228.357355 
L 75.1102 -228.686614 
L 75.765496 -228.634232 
L 76.416695 -228.43967 
L 77.157998 -228.344883 
L 79.676789 -228.983447 
L 80.557342 -229.05329 
L 86.999714 -227.888409 
L 88.650239 -227.875937 
L 94.486462 -231.560156 
L 96.890577 -232.602812 
L 103.455816 -233.974729 
L 109.808084 -236.828315 
L 110.913895 -237.122653 
L 111.629644 -237.568758 
L 115.472293 -239.963767 
L 118.130334 -240.97275 
L 119.485976 -241.111188 
L 122.086679 -240.788165 
L 129.618479 -238.569401 
L 131.576174 -237.50679 
L 135.770063 -233.177871 
L 136.91683 -231.99418 
L 139.329136 -230.759455 
L 142.118237 -230.407746 
L 148.560608 -230.709568 
L 149.43297 -230.963996 
L 151.501246 -231.108671 
L 157.591396 -229.098189 
L 159.721106 -229.182999 
L 167.730116 -230.683944 
L 180.551304 -233.086725 
L 189.05376 -236.214694 
L 192.993723 -238.526997 
L 194.41899 -239.003426 
L 195.905691 -239.275315 
L 197.388296 -239.95379 
L 200.212672 -241.805806 
L 205.456619 -245.244398 
L 206.255261 -245.727064 
L 207.098953 -246.045099 
L 207.963124 -246.214718 
L 208.86825 -246.264605 
L 210.686695 -246.782192 
L 215.986395 -249.64825 
L 217.948185 -250.382849 
L 225.377595 -251.455438 
L 234.834325 -249.59961 
L 236.603622 -248.893696 
L 237.459602 -248.669201 
L 248.493136 -249.180551 
L 265.001573 -252.980125 
L 269.474871 -254.009697 
L 271.207308 -255.024915 
L 274.192997 -257.758771 
L 276.183456 -260.318018 
L 276.75684 -260.652267 
L 277.477664 -261.216 
L 277.92818 -260.687189 
L 277.977327 -260.128444 
L 277.911798 -259.647026 
L 277.952754 -259.441239 
L 278.493372 -259.352688 
L 279.697477 -258.783966 
L 279.922735 -258.891225 
L 280.172566 -259.158125 
L 280.434684 -259.36516 
L 280.68042 -259.292823 
L 280.852435 -259.033406 
L 281.053119 -258.561965 
L 281.225134 -258.302548 
L 282.576681 -257.244926 
L 282.84699 -257.106487 
L 283.105013 -256.491619 
L 282.396475 -253.795179 
L 282.84699 -253.180311 
L 283.158255 -252.889715 
L 283.236072 -252.207498 
L 283.264741 -250.841817 
L 283.518668 -250.270601 
L 283.817646 -249.777959 
L 284.042904 -249.237922 
L 284.055191 -248.536998 
L 284.040141 -248.525684 
L 282.814225 -247.604095 
L 280.279052 -245.249387 
L 280.279052 -245.244398 
L 280.266765 -245.241904 
L 276.179361 -240.962772 
L 268.258479 -232.67515 
L 262.917823 -227.087708 
L 261.86935 -226.212176 
L 260.784018 -225.708309 
L 248.493136 -223.141578 
L 245.921102 -222.720025 
L 244.753857 -222.188719 
L 243.959312 -221.11613 
L 243.959312 -221.111141 
L 243.955216 -221.108647 
L 243.955216 -221.103658 
L 240.457578 -214.388751 
L 240.134026 -213.094161 
L 238.8562 -200.981386 
L 238.860295 -200.175697 
L 239.015928 -199.340075 
L 240.031636 -196.987862 
L 240.035731 -196.990356 
L 240.035731 -196.985368 
L 243.099237 -190.392686 
L 243.529274 -188.843667 
L 243.717672 -187.259727 
L 243.885591 -180.622146 
L 243.668524 -179.110544 
L 243.041898 -177.651324 
L 241.704394 -175.650722 
L 239.835047 -172.854605 
L 239.835047 -172.847122 
L 239.830952 -172.847122 
L 239.826856 -172.847122 
L 239.462348 -171.395385 
L 239.114222 -166.68597 
L 237.459602 -160.724369 
L 237.07052 -157.785974 
L 237.102397 -156.664259 
L 237.328543 -148.706382 
L 237.664382 -140.272837 
L 237.574279 -139.00818 
L 237.234344 -137.818354 
L 230.43156 -124.585597 
L 230.43156 -124.578113 
L 229.006293 -121.408986 
L 228.105262 -120.121879 
L 226.946208 -119.359842 
L 217.215074 -116.725763 
L 211.403424 -113.177488 
L 207.021137 -110.501004 
L 202.63885 -107.828261 
L 198.256563 -105.155518 
L 196.713653 -104.213625 
L 193.874276 -102.480281 
L 189.491989 -99.806292 
L 185.113797 -97.133549 
L 180.727414 -94.460806 
L 176.349223 -91.785569 
L 171.966936 -89.115321 
L 167.584649 -86.441331 
L 163.202362 -83.768589 
L 158.820075 -81.094599 
L 154.437788 -78.420609 
L 150.0555 -75.744125 
L 145.673213 -73.071382 
L 141.290926 -70.396145 
L 131.584365 -64.244971 
L 123.111136 -58.787098 
L 119.748095 -56.620857 
L 112.847016 -52.182084 
L 107.801243 -48.850821 
L 101.010746 -44.370891 
L 94.220248 -39.897196 
L 90.571715 -37.494259 
L 87.425656 -35.422254 
L 80.64335 -30.946065 
L 76.256967 -28.058804 
L 76.248776 -28.05631 
L 70.183199 -23.977977 
L 63.814548 -19.476844 
L 63.306694 -19.296 
L 62.749693 -19.319697 
L 60.218615 -20.008149 
L 59.35854 -20.03434 
L 58.67048 -19.615282 
L 57.241118 -20.735265 
L 51.819312 -21.418529 
L 50.372804 -21.60082 
L 49.729796 -22.016136 
L 47.497696 -22.249362 
L 46.715437 -22.49506 
L 46.129767 -22.838039 
L 42.648511 -26.241639 
L 40.09286 -28.058804 
L 38.802747 -29.395799 
L 38.37271 -29.639003 
L 38.16793 -29.571654 
L 37.717414 -29.151349 
L 37.520826 -29.054067 
L 37.283281 -29.098966 
L 36.873722 -29.263596 
L 36.62389 -29.291035 
L 35.157667 -29.086494 
L 34.590217 -29.105469 
L 34.11329 -29.121416 
L 33.969945 -29.156337 
L 33.961753 -29.363372 
L 33.740591 -29.925858 
L 31.954912 -32.720826 
L 31.582212 -33.529009 
L 31.553543 -34.435721 
L 31.672316 -35.257624 
L 31.488014 -35.806391 
L 30.562409 -35.879975 
L 29.989026 -35.771469 
L 29.575371 -35.919885 
L 29.227245 -36.257876 
L 28.866833 -36.719339 
L 29.014274 -36.696889 
L 29.141238 -36.893946 
L 29.19448 -37.206993 
L 29.133046 -37.528769 
L 28.981509 -37.612331 
L 28.46956 -37.606095 
L 28.272971 -37.673444 
L 27.589007 -38.388088 
L 27.212212 -38.615078 
L 22.952793 -39.635285 
L 22.588285 -40.111714 
L 22.592381 -40.122938 
L 22.424461 -40.256389 
L 22.219681 -40.293804 
L 23.06747 -41.550979 
L 23.722765 -41.962554 
L 24.029935 -42.15088 
L 24.279766 -42.603613 
L 25.111172 -43.847068 
L 25.328238 -44.262384 
L 25.273694 -44.528141 
L 25.266804 -44.561712 
L 25.823805 -46.670721 
L 26.999241 -49.010462 
L 27.863412 -49.910939 
L 28.326214 -50.894977 
L 27.306411 -51.75679 
L 26.475005 -52.099769 
L 25.979438 -56.391373 
L 26.130975 -57.633581 
L 26.999241 -57.745828 
L 27.490713 -57.745828 
L 27.490713 -58.085066 
L 27.273646 -58.085066 
L 27.122109 -58.272146 
L 27.060675 -58.460472 
L 27.179447 -58.647552 
L 27.396514 -58.766035 
L 27.617676 -58.878283 
L 27.801978 -58.990531 
L 27.830647 -59.17761 
L 27.830647 -59.667759 
L 27.830647 -60.458481 
L 27.67911 -60.724134 
L 27.617676 -60.987293 
L 27.396514 -61.134462 
L 27.244977 -61.173125 
L 26.999241 -60.987293 
L 26.909138 -60.987293 
L 26.782175 -61.098293 
L 26.687976 -61.365193 
L 26.687976 -61.589689 
L 26.937807 -61.849106 
L 26.937807 -62.041174 
L 26.810844 -62.304333 
L 26.380806 -62.869313 
L 26.040872 -63.361955 
L 25.85657 -63.921947 
L 25.573974 -65.431055 
L 25.545305 -65.618134 
L 25.451106 -65.769045 
L 25.23404 -65.923698 
L 24.836767 -65.923698 
L 24.464068 -65.961113 
L 24.218332 -65.997282 
L 24.185567 -66.184362 
L 24.279766 -66.259193 
L 24.464068 -66.371441 
L 24.742568 -66.483689 
L 25.021069 -66.711926 
L 25.201275 -67.123501 
L 25.23404 -67.576233 
L 25.139841 -67.992797 
L 25.122088 -68.036507 
L 24.804002 -68.819688 
L 24.615605 -69.420837 
L 24.615605 -70.061896 
L 24.804002 -70.704203 
L 25.201275 -71.231767 
L 25.85657 -71.718174 
L 26.192409 -72.097321 
L 26.315277 -72.548807 
L 26.196504 -73.270934 
L 26.92552 -73.713688 
L 28.154199 -74.772558 
L 28.784921 -76.312846 
L 28.248398 -77.293143 
L 28.698913 -77.932955 
L 29.632709 -78.241013 
L 30.562409 -78.228541 
L 31.315999 -78.581497 
L 32.131022 -79.130264 
L 32.741266 -79.862368 
L 32.868229 -80.757856 
L 32.520104 -81.302881 
L 31.856617 -81.804254 
L 31.127601 -82.174671 
L 30.562409 -82.334312 
L 29.636805 -82.861877 
L 28.760347 -83.029001 
L 28.236111 -83.362002 
L 28.387648 -84.393434 
L 28.547376 -84.558064 
L 29.063421 -84.757616 
L 29.251819 -84.944695 
L 29.358304 -85.408652 
L 29.243627 -86.284184 
L 29.300966 -86.688276 
L 29.595849 -87.118559 
L 30.320769 -87.795787 
L 30.562409 -88.345801 
L 31.107123 -89.173939 
L 32.417714 -90.31263 
L 32.950141 -91.341567 
L 33.343318 -91.864143 
L 33.978136 -92.13229 
L 34.715343 -92.3281 
L 35.403403 -92.628674 
L 36.824575 -93.514184 
L 37.086693 -93.359532 
L 37.590451 -92.714731 
L 37.909907 -92.508943 
L 38.737218 -92.528899 
L 39.37613 -92.919271 
L 39.929036 -93.375745 
L 40.531088 -93.606476 
L 41.219148 -93.471779 
L 43.254659 -92.455314 
L 44.749552 -92.093627 
L 45.511332 -92.218347 
L 45.990517 -92.856911 
L 45.912701 -93.848433 
L 45.228736 -94.276221 
L 43.67241 -94.545616 
L 42.505165 -95.468541 
L 42.255334 -95.76288 
L 42.001407 -96.224343 
L 41.931782 -96.39895 
L 42.77957 -98.142531 
L 43.324284 -99.005591 
L 43.946815 -99.783842 
L 45.523619 -101.185691 
L 46.842401 -102.883126 
L 47.677902 -103.313409 
L 48.132513 -103.273499 
L 48.984397 -102.951722 
L 49.529111 -102.97916 
L 50.176216 -103.307173 
L 50.393282 -103.753669 
L 50.471098 -104.321144 
L 50.700452 -105.00336 
L 51.474519 -105.994882 
L 53.247912 -107.530181 
L 54.165325 -109.08793 
L 55.283423 -110.335126 
L 55.261735 -110.383328 
L 55.049974 -110.85396 
L 54.091605 -111.814302 
L 53.833582 -112.50899 
L 53.645185 -113.41695 
L 53.944163 -114.040548 
L 54.325054 -114.573101 
L 54.406966 -115.200441 
L 54.202186 -115.575847 
L 53.944163 -115.638207 
L 53.653376 -115.615758 
L 53.37078 -115.740477 
L 52.948934 -116.205682 
L 52.092954 -117.420451 
L 51.896366 -117.79461 
L 51.78988 -118.181241 
L 51.822645 -118.57785 
L 51.949608 -118.828536 
L 52.092954 -119.056773 
L 52.19944 -119.389775 
L 52.33869 -120.181745 
L 52.371455 -120.716792 
L 52.154388 -121.139592 
L 51.523666 -121.597313 
L 51.232879 -121.495043 
L 50.946187 -121.685864 
L 50.372804 -122.404249 
L 49.701126 -122.698588 
L 49.168699 -123.147579 
L 48.775522 -123.771177 
L 48.521595 -124.578113 
L 48.521595 -124.585597 
L 47.976881 -124.778912 
L 46.891548 -124.866216 
L 45.732495 -124.812586 
L 44.962523 -124.578113 
L 44.856037 -124.544439 
L 44.745456 -124.535709 
L 44.634875 -124.544439 
L 44.528389 -124.578113 
L 44.415637 -124.79188 
L 44.020536 -125.540949 
L 44.684022 -126.251851 
L 45.769355 -126.843023 
L 46.543422 -127.456643 
L 46.723629 -128.214939 
L 46.674481 -128.925841 
L 46.756393 -129.50454 
L 47.342064 -129.871216 
L 47.927734 -129.701598 
L 48.34958 -129.357371 
L 48.632176 -129.581867 
L 48.787809 -131.103447 
L 47.829439 -130.791648 
L 46.846496 -130.771692 
L 45.908605 -131.095964 
L 45.109964 -131.816843 
L 44.176168 -133.523008 
L 43.586403 -133.912134 
L 42.763188 -133.333434 
L 42.632129 -132.964264 
L 42.615746 -132.018889 
L 42.468305 -131.574887 
L 42.103797 -131.180773 
L 41.71062 -131.001177 
L 39.318792 -130.866479 
L 39.077152 -130.951289 
L 38.610254 -131.302998 
L 38.40957 -131.390302 
L 38.16793 -131.330437 
L 37.692841 -131.041087 
L 37.520826 -130.98621 
L 35.788324 -131.11175 
L 34.80135 -131.183267 
L 33.752878 -131.033604 
L 32.847751 -131.058548 
L 31.987676 -131.310481 
L 31.295521 -131.876709 
L 31.004733 -132.0139 
L 30.656608 -132.111182 
L 30.151726 -132.092425 
" style="stroke: #000000"/>
    </defs>
    <g clip-path="url(#p818a64fc88)">
     <use xlink:href="#m163e08310c" x="0" y="280.512" style="fill: #f5f5f5; stroke: #000000"/>
    </g>
   </g>
  </g>
 </g>
 <defs>
  <clipPath id="p818a64fc88">
   <rect x="7.2" y="7.2" width="290.038771" height="266.112"/>
  </clipPath>
 </defs>
</svg>
