<?xml version="1.0" encoding="utf-8" standalone="no"?>
<!DOCTYPE svg PUBLIC "-//W3C//DTD SVG 1.1//EN"
  "http://www.w3.org/Graphics/SVG/1.1/DTD/svg11.dtd">
<svg xmlns:xlink="http://www.w3.org/1999/xlink" width="371.52pt" height="270.130942pt" viewBox="0 0 371.52 270.130942" xmlns="http://www.w3.org/2000/svg" version="1.1">
 <metadata>
  <rdf:RDF xmlns:dc="http://purl.org/dc/elements/1.1/" xmlns:cc="http://creativecommons.org/ns#" xmlns:rdf="http://www.w3.org/1999/02/22-rdf-syntax-ns#">
   <cc:Work>
    <dc:type rdf:resource="http://purl.org/dc/dcmitype/StillImage"/>
    <dc:date>2024-03-04T13:11:13.370362</dc:date>
    <dc:format>image/svg+xml</dc:format>
    <dc:creator>
     <cc:Agent>
      <dc:title>Matplotlib v3.8.0, https://matplotlib.org/</dc:title>
     </cc:Agent>
    </dc:creator>
   </cc:Work>
  </rdf:RDF>
 </metadata>
 <defs>
  <style type="text/css">*{stroke-linejoin: round; stroke-linecap: butt}</style>
 </defs>
 <g id="figure_1">
  <g id="patch_1">
   <path d="M 0 270.130942 
L 371.52 270.130942 
L 371.52 0 
L 0 0 
z
" style="fill: #ffffff"/>
  </g>
  <g id="axes_1">
   <g id="PatchCollection_1">
    <path d="M 157.222901 19.97557 
L 158.366187 20.454876 
L 159.329292 21.300548 
L 159.904153 22.212331 
L 160.440403 23.498744 
L 160.509043 24.410527 
L 159.685363 24.223212 
L 158.986092 23.570365 
L 157.772021 21.975433 
L 157.081331 21.286775 
L 157.038431 21.242701 
L 156.553661 20.143602 
L 157.222901 19.97557 
" clip-path="url(#pad59213a02)" style="fill: #f5f5f5; stroke: #000000"/>
    <path d="M 173.537782 61.553985 
L 174.391492 62.848662 
L 173.700802 64.148848 
L 172.306551 65.165307 
L 171.030275 65.592275 
L 168.814489 65.101951 
L 168.261078 65.294775 
L 167.973648 65.542692 
L 167.218608 65.936604 
L 167.190723 65.85672 
L 167.051298 65.724498 
L 166.845377 65.628086 
L 166.613717 65.658387 
L 166.472147 65.7851 
L 166.214747 66.126674 
L 164.593126 67.484708 
L 164.026846 67.826282 
L 161.375624 68.707764 
L 160.275238 69.732487 
L 160.080043 71.098785 
L 160.131523 72.740545 
L 159.775453 74.586149 
L 159.217752 75.553025 
L 158.497032 76.288511 
L 157.666916 76.806382 
L 156.772451 77.125919 
L 155.00926 77.183767 
L 154.524489 77.428929 
L 154.245639 77.902726 
L 153.904584 79.078954 
L 153.542079 79.541732 
L 152.645468 79.227704 
L 152.330153 78.525273 
L 152.448128 77.596962 
L 152.836373 76.599785 
L 153.374769 75.85328 
L 154.009689 75.404275 
L 154.696089 75.054436 
L 155.35675 74.594413 
L 155.96593 73.409921 
L 155.54551 72.465082 
L 154.575969 71.80948 
L 153.542079 71.487188 
L 150.238776 70.996863 
L 148.655765 70.313715 
L 147.192874 70.129154 
L 146.446414 69.740751 
L 145.781463 69.027301 
L 145.264518 68.286305 
L 144.670353 67.636212 
L 143.758727 67.184453 
L 142.804202 67.110078 
L 140.74071 67.2423 
L 139.841955 66.958573 
L 133.923896 63.132389 
L 132.469585 62.980884 
L 116.111804 68.738065 
L 115.421113 68.837232 
L 114.764743 68.765612 
L 114.498763 68.509431 
L 114.061182 67.69406 
L 113.726562 67.592138 
L 113.537802 67.826282 
L 113.361912 68.746329 
L 113.241792 69.093413 
L 112.385936 70.330242 
L 111.718841 71.54228 
L 111.448571 72.905823 
L 111.783191 74.597167 
L 111.946211 74.91395 
L 112.036301 75.241751 
L 112.070621 75.59159 
L 112.036301 75.957956 
L 112.997262 77.687864 
L 113.044452 78.39305 
L 109.050459 79.797913 
L 107.055608 76.420734 
L 105.832957 75.073719 
L 105.258097 74.958024 
L 105.105802 75.070964 
L 105.095076 75.398765 
L 104.912751 75.933164 
L 104.114811 77.68511 
L 102.216485 83.378934 
L 101.753164 85.425626 
L 101.618029 87.532919 
L 101.909749 88.510813 
L 102.533945 89.218754 
L 103.263245 89.838546 
L 103.850976 90.557505 
L 104.159856 91.436233 
L 104.310006 92.444428 
L 104.104086 98.796609 
L 104.691816 100.080268 
L 106.326307 99.416401 
L 106.583707 99.027998 
L 106.686668 98.612049 
L 106.836818 98.26772 
L 107.235788 98.094178 
L 107.467448 98.251192 
L 108.473454 99.286934 
L 109.333599 99.578925 
L 111.12253 99.289688 
L 112.036301 99.292443 
L 112.817082 99.176748 
L 113.576412 98.909549 
L 114.284263 98.479827 
L 115.674224 97.281562 
L 116.394944 96.992325 
L 120.011416 96.766446 
L 121.710258 96.964779 
L 123.349039 97.510196 
L 125.0822 98.4936 
L 126.695241 98.98117 
L 129.904163 98.328322 
L 131.600859 98.510128 
L 132.851395 99.077582 
L 133.198885 98.802119 
L 133.846676 97.882071 
L 134.550236 97.25677 
L 135.408237 96.989571 
L 136.317717 96.997835 
L 137.167138 97.193413 
L 138.559244 98.000521 
L 139.230629 98.245683 
L 139.91703 98.019803 
L 140.26452 97.507442 
L 141.420676 95.031027 
L 142.062031 94.543458 
L 142.461001 95.064083 
L 142.649761 96.05575 
L 142.658341 96.964779 
L 142.216471 98.879248 
L 142.285111 99.628508 
L 143.001542 99.895707 
L 143.739422 99.719411 
L 147.441695 97.017117 
L 147.977945 96.816029 
L 148.4048 96.865612 
L 149.269236 97.127302 
L 149.685366 97.135566 
L 149.938476 96.967534 
L 150.144396 96.675543 
L 150.397507 96.39457 
L 150.796477 96.251329 
L 151.482877 96.110843 
L 152.825648 95.606745 
L 153.542079 95.518597 
L 154.112649 95.749986 
L 155.04787 96.568112 
L 155.57125 96.88214 
L 156.29626 96.95376 
L 157.819211 96.672788 
L 158.548512 96.766446 
L 159.556663 97.526724 
L 160.131523 98.647859 
L 160.945958 101.197593 
L 160.959494 101.239968 
L 160.961639 101.248232 
L 161.407799 101.611843 
L 162.379484 102.022283 
L 162.778455 102.396913 
L 163.014405 103.124136 
L 162.915735 103.859623 
L 162.731265 104.570318 
L 162.709815 105.23143 
L 163.340445 106.327773 
L 164.438686 106.977866 
L 165.699947 107.198237 
L 166.841087 107.024695 
L 168.104493 106.319509 
L 168.604279 106.168004 
L 169.234909 106.151477 
L 169.603849 106.212079 
L 169.93847 106.085365 
L 170.446835 105.504138 
L 171.22976 105.132263 
L 172.134951 105.553722 
L 173.158117 106.203815 
L 174.292822 106.515088 
L 175.627013 105.837449 
L 176.386344 104.366475 
L 176.997669 102.625548 
L 177.853525 101.14631 
L 179.222036 100.25381 
L 180.946617 99.785522 
L 182.711953 99.686355 
L 185.075745 100.14087 
L 185.5884 100.146379 
L 186.036705 99.813068 
L 187.360171 98.30353 
L 187.939321 97.865544 
L 189.378617 97.091492 
L 189.681063 96.849084 
L 190.251633 96.24582 
L 190.539063 96.036468 
L 190.944468 95.893227 
L 192.124219 95.68112 
L 193.55708 95.0145 
L 194.316411 94.93737 
L 195.706372 95.783042 
L 196.396382 96.382324 
L 196.448542 96.427626 
L 197.049142 97.226469 
L 197.297963 98.08316 
L 197.074882 98.879248 
L 196.019542 100.421842 
L 195.667762 101.250986 
L 196.530052 103.107608 
L 198.250343 103.889924 
L 200.262355 103.986336 
L 204.488007 103.099344 
L 205.311688 103.077307 
L 205.968058 103.666799 
L 206.341289 104.884346 
L 206.448539 106.261662 
L 206.294099 107.333214 
L 205.817908 108.132057 
L 205.260208 108.696757 
L 204.835498 109.360623 
L 204.749698 110.456966 
L 205.058578 111.5175 
L 205.663468 112.368681 
L 206.422799 112.947154 
L 207.220739 113.197825 
L 208.7394 113.021529 
L 210.253771 112.371436 
L 214.355014 109.492845 
L 215.054284 109.129234 
L 216.602975 108.809696 
L 218.057286 108.019117 
L 218.816617 107.903423 
L 219.528757 108.457104 
L 219.992078 109.622313 
L 220.240898 110.974837 
L 220.309538 112.101482 
L 220.682768 112.90308 
L 221.545059 113.2722 
L 223.33399 113.566946 
L 223.68577 113.773543 
L 224.320691 114.274886 
L 225.187271 114.729401 
L 225.315971 115.059956 
L 225.320261 115.471774 
L 225.431801 115.982758 
L 225.822192 116.857354 
L 226.241429 117.464388 
L 226.251192 117.478523 
L 226.723092 117.442713 
L 228.430513 113.721205 
L 229.378604 110.850879 
L 229.880534 110.038262 
L 230.618415 109.771063 
L 231.523605 109.649859 
L 233.072296 108.864789 
L 233.797307 108.837243 
L 235.161528 109.187081 
L 235.860798 109.222891 
L 236.538619 109.115461 
L 237.83849 107.738145 
L 238.29323 107.539811 
L 238.91957 107.718862 
L 239.970621 108.399256 
L 240.648441 108.413029 
L 241.116052 108.115529 
L 241.909702 107.123862 
L 242.334413 106.754741 
L 243.055133 106.537125 
L 243.750113 106.57569 
L 251.420639 108.578307 
L 252.051269 108.550761 
L 253.84449 108.167867 
L 254.702491 108.231224 
L 257.293652 108.790414 
L 258.022953 109.024558 
L 258.645003 108.983238 
L 260.682755 107.906177 
L 261.210425 107.804256 
L 261.720935 107.958515 
L 262.450236 108.313863 
L 263.904547 108.724303 
L 265.225868 108.622382 
L 269.438651 107.173445 
L 271.806732 106.729949 
L 272.094162 106.184532 
L 272.184252 105.435272 
L 272.501713 104.608883 
L 273.518443 103.909206 
L 278.052976 102.790826 
L 279.520157 102.650339 
L 283.34255 103.066289 
L 284.518011 103.666799 
L 284.487981 104.70805 
L 284.929851 107.749163 
L 284.981331 108.839997 
L 284.878371 109.693933 
L 283.58279 113.415441 
L 283.25675 114.997977 
L 283.48841 116.514402 
L 284.466531 118.231915 
L 286.225432 119.963201 
L 286.607242 120.70282 
L 286.976182 122.530518 
L 287.237872 123.385832 
L 287.701193 124.075867 
L 290.163654 125.971054 
L 291.532165 127.488856 
L 292.128476 127.897919 
L 292.548896 128.797306 
L 292.673306 129.689807 
L 292.458806 130.501046 
L 291.862495 131.155271 
L 290.961595 131.452771 
L 288.971033 131.461035 
L 288.027233 131.905908 
L 287.435212 132.521569 
L 286.856062 133.371373 
L 286.517152 134.336871 
L 286.637272 135.298238 
L 287.139202 136.088817 
L 288.348983 137.450982 
L 288.803723 138.204374 
L 288.932423 139.234607 
L 288.670733 141.576044 
L 288.825173 142.402433 
L 290.313804 144.910526 
L 290.596945 145.679068 
L 290.991625 147.897924 
L 291.356275 148.73671 
L 292.145636 149.603041 
L 292.857776 150.063065 
L 294.359277 150.658065 
L 295.079998 151.07126 
L 296.332678 152.241979 
L 296.980469 152.637269 
L 300.965881 152.766736 
L 301.656572 152.597326 
L 302.205692 151.711712 
L 301.875362 150.878436 
L 301.347692 149.995577 
L 301.313372 148.969476 
L 301.630832 148.703654 
L 303.269613 148.140332 
L 303.561333 147.798757 
L 303.621393 147.355262 
L 303.612813 146.87871 
L 303.711483 146.448988 
L 304.294924 145.567506 
L 304.886944 145.184612 
L 305.594795 145.198385 
L 308.151636 146.09915 
L 308.958157 146.238258 
L 309.884797 146.212089 
L 312.776259 145.198385 
L 313.63855 145.316834 
L 319.550174 148.245008 
L 326.585778 150.961075 
L 327.340819 151.605659 
L 327.975739 152.357673 
L 328.67501 152.940278 
L 329.61452 153.071123 
L 330.566901 152.988484 
L 331.326232 153.153762 
L 331.991182 153.649596 
L 332.647552 154.536587 
L 332.651842 154.546229 
L 333.025073 155.134342 
L 333.325373 155.409806 
L 334.058963 155.836774 
L 334.337814 156.156311 
L 334.457934 156.608071 
L 334.513704 157.110791 
L 334.814004 158.62997 
L 334.805424 159.668467 
L 334.560894 160.646361 
L 334.080413 161.509938 
L 332.321512 163.511178 
L 331.926832 164.366492 
L 331.772392 165.330613 
L 331.780972 170.408777 
L 332.587492 176.529569 
L 333.385433 178.034975 
L 336.311215 179.716678 
L 336.826015 181.190406 
L 336.658705 184.553812 
L 336.757375 185.975202 
L 336.740215 186.323663 
L 336.873205 186.614277 
L 337.340816 186.898004 
L 337.692596 187.22305 
L 337.606796 187.600435 
L 336.898945 188.754626 
L 336.598645 188.924036 
L 336.427045 189.193989 
L 336.547165 189.903307 
L 336.757375 190.304106 
L 337.057675 190.59472 
L 339.168357 191.781966 
L 339.674577 192.306724 
L 339.829017 193.266713 
L 339.687447 193.766679 
L 339.382857 194.318982 
L 338.726487 195.219747 
L 338.447636 195.712826 
L 338.318936 196.200396 
L 338.241716 196.671438 
L 338.104436 197.112179 
L 337.576766 197.916532 
L 337.001905 198.591416 
L 336.547165 199.343431 
L 336.384145 200.358513 
L 336.787405 202.235795 
L 337.748366 203.753597 
L 339.001047 204.935334 
L 342.763379 207.183114 
L 343.49268 207.852489 
L 345.590491 210.68976 
L 346.774532 211.868743 
L 348.087273 212.820468 
L 346.058101 213.504994 
L 345.084271 214.003582 
L 344.57805 214.920875 
L 344.47509 216.894569 
L 344.11473 217.537775 
L 340.253728 219.022522 
L 339.262737 219.18229 
L 338.490536 219.650578 
L 338.108726 220.57338 
L 337.649696 221.436957 
L 336.804565 221.857038 
L 335.573334 221.138079 
L 333.672863 217.815993 
L 332.497402 216.524071 
L 327.177799 213.175816 
L 325.976598 213.863096 
L 321.759525 214.146823 
L 321.399165 214.155087 
L 321.047385 214.068316 
L 319.550174 213.595897 
L 318.644983 213.193721 
L 317.859913 213.262586 
L 317.130612 213.430619 
L 315.929411 213.206116 
L 315.461801 213.186834 
L 315.049961 213.047725 
L 314.44507 212.006474 
L 314.03752 211.735143 
L 313.56562 211.769576 
L 313.085139 212.113905 
L 312.866349 211.419738 
L 312.377289 212.84526 
L 311.364848 212.987123 
L 310.159358 212.657945 
L 309.061117 212.67585 
L 308.387586 213.392054 
L 308.318946 215.218375 
L 307.555326 216.138422 
L 306.542885 216.581918 
L 301.931132 217.532266 
L 298.79943 218.702985 
L 297.924269 218.8903 
L 295.586218 220.025208 
L 293.805867 220.233183 
L 292.969316 220.490741 
L 291.390595 221.99477 
L 290.798575 222.135256 
L 290.163654 221.975487 
L 289.228434 221.887339 
L 288.816593 222.041599 
L 288.143063 222.580129 
L 287.696903 222.609053 
L 287.413762 222.387305 
L 286.817452 221.548519 
L 286.504282 221.252396 
L 285.650571 221.183531 
L 283.89596 221.746853 
L 283.23101 221.336413 
L 283.05083 220.220787 
L 283.57421 219.176781 
L 284.44937 218.398598 
L 285.320241 218.074928 
L 286.916122 217.906896 
L 287.521013 217.601132 
L 288.237443 216.988226 
L 288.936713 216.141177 
L 289.211274 215.367125 
L 289.219854 213.126232 
L 289.267044 212.688246 
L 289.533024 211.341231 
L 288.052973 211.158048 
L 286.255462 211.199367 
L 283.37258 210.414297 
L 278.400466 208.538393 
L 276.547185 208.593485 
L 273.964604 210.05344 
L 273.278203 209.84822 
L 272.578933 209.41712 
L 271.592232 209.282143 
L 270.558341 209.392328 
L 269.717501 209.684319 
L 269.06113 210.18704 
L 267.036249 212.41416 
L 266.585799 212.631776 
L 265.689188 212.281937 
L 265.324538 212.41416 
L 263.741527 213.6868 
L 263.089446 214.503548 
L 262.377306 216.059915 
L 261.901116 216.795402 
L 261.060275 217.382139 
L 258.074433 217.68928 
L 255.114331 219.526619 
L 254.20056 220.647755 
L 253.17096 221.016875 
L 251.223298 221.395637 
L 249.571647 222.435511 
L 248.336127 224.181948 
L 246.401335 228.313896 
L 244.672464 231.105715 
L 244.419354 232.133193 
L 244.050414 232.640045 
L 237.86423 233.586261 
L 236.465689 234.310729 
L 233.599967 233.768067 
L 231.733816 234.161979 
L 227.533903 235.919434 
L 225.895122 237.079134 
L 225.483281 237.555686 
L 224.882681 238.495015 
L 224.505161 238.899946 
L 223.09375 239.735977 
L 222.008379 240.960411 
L 209.966341 250.21322 
L 208.34901 250.910142 
L 206.311259 251.306809 
L 204.294957 251.306809 
L 202.347296 250.860558 
L 200.605555 249.91021 
L 199.207014 248.395163 
L 198.649314 247.466852 
L 198.190283 246.458656 
L 197.877113 245.370577 
L 197.593973 242.913445 
L 197.177843 241.844648 
L 194.822631 237.905524 
L 194.462271 236.944158 
L 194.333571 235.787212 
L 194.333571 233.604166 
L 194.187711 232.974733 
L 193.47128 231.826051 
L 193.22246 231.258597 
L 193.13666 230.605749 
L 193.22246 227.388339 
L 193.5485 225.198407 
L 193.78874 224.389922 
L 194.076171 223.909239 
L 193.92602 222.626958 
L 195.457551 219.941192 
L 195.491871 218.452313 
L 195.740692 217.782937 
L 195.852232 216.664557 
L 195.775012 214.416777 
L 195.461841 212.370086 
L 195.590542 211.60843 
L 196.058152 210.414297 
L 196.461412 208.276703 
L 195.877972 203.976722 
L 196.058152 201.642171 
L 196.208302 201.340539 
L 196.710232 200.635353 
L 196.911862 200.187726 
L 197.023402 199.649195 
L 197.220743 198.00468 
L 197.692643 196.345014 
L 197.761283 195.820257 
L 197.666903 195.236275 
L 197.289383 194.104121 
L 197.220743 193.604155 
L 197.563943 192.649675 
L 199.095474 191.638725 
L 199.743264 190.693887 
L 199.906284 189.73252 
L 199.940604 188.465389 
L 199.871964 187.302935 
L 199.743264 186.658351 
L 200.052145 186.28923 
L 198.790884 184.705317 
L 197.533913 183.832098 
L 196.045282 183.738441 
L 190.980933 185.512424 
L 190.225893 186.093651 
L 189.402212 186.559184 
L 188.514182 186.170781 
L 186.939751 184.869217 
L 186.497881 184.805861 
L 186.18042 184.90365 
L 185.96163 184.79071 
L 185.80719 184.107562 
L 185.85867 183.542862 
L 186.27909 182.334956 
L 186.557941 180.9783 
L 187.793461 178.614825 
L 188.359742 176.43178 
L 189.127652 174.918109 
L 189.393632 173.358988 
L 190.146528 171.057493 
L 190.371753 169.846832 
L 190.107918 167.477848 
L 189.121217 165.910463 
L 187.699081 164.949096 
L 184.277804 163.502914 
L 181.714527 160.817148 
L 180.114356 159.621638 
L 178.951765 159.023883 
L 178.436965 158.899924 
L 177.93718 158.919207 
L 177.613285 159.067957 
L 177.308694 159.087239 
L 176.879694 158.731892 
L 176.609424 158.288396 
L 176.261934 157.314634 
L 176.015259 156.893175 
L 175.596983 156.426265 
L 175.167983 156.04888 
L 174.693938 155.769285 
L 174.164122 155.621912 
L 173.196727 155.654968 
L 172.894281 156.03373 
L 173.031562 157.244391 
L 172.593981 157.789808 
L 171.598701 157.541891 
L 169.886989 156.712747 
L 169.402219 156.795386 
L 169.164124 157.021265 
L 169.007539 157.266428 
L 168.726544 157.408291 
L 168.355458 157.384877 
L 167.686218 157.150733 
L 167.308698 157.077735 
L 165.995957 157.072226 
L 165.324571 157.22924 
L 165.039286 157.605247 
L 164.524486 158.512899 
L 162.096344 158.771834 
L 161.330579 159.260781 
L 161.330579 159.621638 
L 162.156404 160.260713 
L 161.821784 160.886014 
L 160.354603 161.990621 
L 159.970648 162.208237 
L 159.024702 162.15039 
L 158.638602 162.370761 
L 158.462712 162.844557 
L 158.454132 163.398238 
L 158.501322 163.942278 
L 158.497032 164.389906 
L 157.935042 166.207963 
L 157.518911 166.422824 
L 156.952631 166.575706 
L 156.446411 166.870452 
L 156.062455 168.181657 
L 154.841949 170.609865 
L 153.765159 173.549057 
L 153.254648 174.447067 
L 152.829938 174.887808 
L 151.414237 175.506223 
L 150.974512 175.832647 
L 149.140536 177.763644 
L 147.276529 180.270359 
L 146.931184 180.534804 
L 146.126857 180.970707 
L 145.927324 181.078844 
L 145.717113 181.361193 
L 145.511193 181.837745 
L 145.052163 182.034701 
L 144.563103 182.125604 
L 144.273527 182.289504 
L 144.127667 182.782584 
L 144.116942 183.237098 
L 144.262802 183.675084 
L 144.588843 184.107562 
L 143.617157 184.476682 
L 142.645471 184.64196 
L 141.712396 184.449136 
L 140.87799 183.745327 
L 140.395365 185.100606 
L 140.59056 186.739612 
L 141.16971 188.291848 
L 141.868981 189.404719 
L 142.345171 189.633353 
L 143.709392 190.063076 
L 143.992532 190.510704 
L 144.104072 191.272359 
L 144.380778 191.969281 
L 144.756153 192.533981 
L 145.152978 192.908611 
L 144.923463 193.524271 
L 145.013553 194.266644 
L 145.433973 195.820257 
L 145.483308 196.605327 
L 145.378203 197.073614 
L 145.232343 197.503337 
L 145.152978 198.169958 
L 144.631743 198.948141 
L 144.430113 199.096891 
L 144.258512 199.284206 
L 144.271382 199.709797 
L 144.327153 200.19599 
L 144.273527 200.551337 
L 144.039722 200.949381 
L 143.947487 201.059567 
L 143.735132 201.279937 
L 143.597852 201.227599 
L 142.799912 201.263409 
L 142.718401 201.279937 
L 142.115656 202.83355 
L 142.010551 203.297705 
L 141.731701 203.471247 
L 140.28597 205.315473 
L 139.093349 205.803043 
L 137.844958 205.574409 
L 136.605147 205.114385 
L 135.464007 204.920183 
L 135.725697 205.315473 
L 134.434406 205.073066 
L 134.048306 204.920183 
L 133.906989 204.78562 
L 133.670785 204.560704 
L 133.512055 204.205356 
L 133.297555 203.935403 
L 132.761305 203.827972 
L 131.881854 203.500171 
L 131.431404 202.742647 
L 131.045304 201.891466 
L 130.363193 201.279937 
L 129.385073 201.224845 
L 127.643331 202.128364 
L 126.798201 202.370772 
L 126.386361 202.569105 
L 125.95736 202.947867 
L 125.52407 203.179256 
L 125.092925 202.934094 
L 124.78619 202.704082 
L 123.863839 202.4176 
L 123.533509 202.370772 
L 122.508198 202.508503 
L 120.753587 203.281177 
L 119.826946 203.46436 
L 114.168433 202.938226 
L 113.338317 203.314233 
L 112.624031 205.552371 
L 111.723131 206.450382 
L 109.88272 207.830452 
L 109.73257 208.083878 
L 109.475169 208.722953 
L 109.314294 208.988775 
L 108.994689 209.290407 
L 108.398379 209.72013 
L 108.183879 210.014875 
L 107.930768 210.860547 
L 107.844968 211.84946 
L 107.874998 213.885133 
L 107.954363 214.073826 
L 108.342609 214.181256 
L 108.462729 214.416777 
L 108.449859 214.703259 
L 108.351189 214.785898 
L 108.239649 214.818953 
L 108.183879 214.978722 
L 108.201039 215.471801 
L 108.265389 215.971767 
L 108.389799 216.430413 
L 108.604299 216.795402 
L 108.956079 217.590113 
L 109.230639 219.424698 
L 109.571694 219.908136 
L 109.237074 221.081609 
L 109.94278 221.412165 
L 110.704255 221.574688 
L 110.5777 222.25646 
L 109.149129 224.716346 
L 108.462729 225.399495 
L 106.787483 226.493084 
L 106.120387 227.297436 
L 105.669937 227.727159 
L 105.178732 227.914474 
L 105.035021 227.946194 
L 104.080491 228.156882 
L 103.25681 228.55768 
L 102.422405 228.638942 
L 98.492762 225.911856 
L 98.273972 225.809935 
L 97.355911 225.157087 
L 96.969811 224.716346 
L 96.227641 222.821159 
L 95.479035 222.173821 
L 94.533089 221.537501 
L 93.709409 220.766204 
L 93.098084 218.826943 
L 92.452438 217.890368 
L 91.611598 217.099789 
L 90.790062 216.631501 
L 87.956515 216.26789 
L 87.810655 216.204533 
L 87.570415 216.152195 
L 87.454585 216.328492 
L 87.67123 216.962057 
L 87.939355 217.306386 
L 88.612886 217.824257 
L 88.805936 218.055646 
L 88.951796 218.826943 
L 88.730861 219.30074 
L 88.269685 219.427453 
L 87.67123 219.14648 
L 87.119965 218.393088 
L 86.746734 217.537775 
L 86.279124 216.857381 
L 85.410398 216.631501 
L 84.496628 216.937265 
L 84.346478 217.54053 
L 84.837683 219.14648 
L 84.944933 220.284143 
L 84.769043 220.802014 
L 84.275693 220.763449 
L 82.731292 219.745613 
L 82.246521 219.504582 
L 81.703836 219.452244 
L 80.84798 219.543147 
L 79.230649 219.303494 
L 78.479899 219.342059 
L 78.010144 219.908136 
L 78.222499 220.118865 
L 78.338329 220.350254 
L 78.578569 221.000348 
L 77.639058 221.150475 
L 77.132838 221.920395 
L 76.899033 222.778463 
L 76.738158 223.182016 
L 75.987407 223.297711 
L 74.434426 223.797676 
L 73.606456 223.909239 
L 73.40268 224.143383 
L 72.829965 225.168106 
L 72.461025 225.399495 
L 72.023445 225.435305 
L 70.050043 225.895329 
L 67.473897 226.093662 
L 68.068062 227.338756 
L 67.795647 228.133467 
L 66.982691 228.556303 
L 65.90161 228.674752 
L 65.08222 228.477796 
L 64.275699 228.151372 
L 63.471324 228.088016 
L 62.684108 228.674752 
L 62.370938 229.557612 
L 62.405258 230.633296 
L 62.684108 232.875566 
L 62.246528 233.639976 
L 61.249102 233.631713 
L 59.539536 233.043599 
L 58.454166 233.200613 
L 57.6884 233.852083 
L 57.025595 234.561401 
L 56.253394 234.894711 
L 55.742884 235.228022 
L 52.997282 237.660362 
L 52.572572 237.949598 
L 52.074931 238.161705 
L 51.746776 238.146903 
L 51.555841 238.13829 
L 51.178321 237.86145 
L 50.968111 237.4455 
L 50.8008 236.975836 
L 50.558415 236.533717 
L 49.131989 234.712906 
L 48.763049 234.376841 
L 47.780638 233.843819 
L 47.330188 233.440266 
L 46.669528 232.343922 
L 46.231947 231.403215 
L 45.657087 230.742104 
L 43.780211 230.280703 
L 42.748465 229.739418 
L 41.806809 229.0301 
L 41.296299 228.313896 
L 41.251254 227.515052 
L 41.607324 224.10895 
L 41.796085 223.325257 
L 42.57901 221.73308 
L 43.0552 219.926041 
L 43.271845 218.008817 
L 43.12813 215.763792 
L 42.30445 211.55196 
L 42.465325 209.312444 
L 43.627916 206.034432 
L 45.397542 202.896906 
L 47.536108 200.125747 
L 49.77549 197.942701 
L 52.799942 193.64272 
L 54.022593 191.197984 
L 55.790074 185.757586 
L 56.525809 184.991798 
L 57.819245 184.545548 
L 59.754036 184.278349 
L 60.388957 184.080015 
L 60.596548 183.924797 
L 61.041037 183.592445 
L 61.352062 182.920315 
L 61.540823 182.109076 
L 61.851848 181.200048 
L 61.856138 181.195916 
L 61.860428 181.191784 
L 61.860428 181.184897 
L 61.864718 181.180765 
L 62.362358 180.165683 
L 63.979689 177.661723 
L 65.00929 174.717021 
L 65.68711 171.593268 
L 65.50264 169.538313 
L 64.49878 167.918589 
L 61.204057 164.946342 
L 59.052621 163.723285 
L 58.342625 162.987798 
L 56.806804 160.14915 
L 55.180893 158.574878 
L 54.786213 157.820109 
L 54.644643 157.04468 
L 54.558843 155.349204 
L 54.322893 154.536587 
L 53.314742 152.988484 
L 53.005862 152.283298 
L 52.896467 151.11258 
L 53.035892 148.049429 
L 52.945802 146.972368 
L 52.390247 144.978014 
L 52.278706 144.002875 
L 52.604747 143.199899 
L 53.653652 142.452017 
L 53.868153 142.125593 
L 53.898182 141.52646 
L 53.713712 141.033381 
L 53.469182 140.560962 
L 53.344772 140.022431 
L 53.486342 138.868241 
L 53.949663 138.579004 
L 54.685398 138.603796 
L 55.657084 138.402708 
L 56.360644 137.986758 
L 56.995565 137.420681 
L 57.510365 136.700345 
L 57.879305 135.813354 
L 57.926495 134.638503 
L 57.51251 133.564197 
L 57.083363 132.928258 
L 56.307019 131.777818 
L 54.906333 128.670593 
L 54.271413 127.897919 
L 54.262833 127.896541 
L 54.256398 127.888278 
L 54.247818 127.888278 
L 53.923923 127.804261 
L 53.585012 127.77396 
L 53.246102 127.804261 
L 52.920062 127.888278 
L 52.229371 128.397884 
L 51.538681 128.648556 
L 50.856571 128.519088 
L 50.21736 127.897919 
L 49.89132 127.705095 
L 49.192049 127.464064 
L 48.595739 127.458555 
L 48.012299 127.615569 
L 47.458888 127.89241 
L 47.448163 127.89241 
L 47.443873 127.896541 
L 44.292866 128.963961 
L 43.177465 128.983244 
L 37.870732 128.119667 
L 37.153886 127.407127 
L 37.111401 127.364897 
L 37.109523 127.35306 
L 36.903336 126.053693 
L 37.375237 121.91899 
L 37.298017 121.189013 
L 37.291993 121.178742 
L 36.918351 120.541674 
L 36.652371 120.45628 
L 35.961681 120.603653 
L 35.67854 120.55407 
L 35.44688 120.304776 
L 35.11655 119.709775 
L 34.93637 119.503178 
L 33.297589 118.844821 
L 29.921357 118.718108 
L 24.906343 116.931729 
L 23.739463 115.847781 
L 23.737699 115.835599 
L 23.432727 113.729469 
L 23.503512 112.969191 
L 23.589312 112.597315 
L 23.786653 112.360417 
L 24.177043 112.013334 
L 24.618913 111.867338 
L 24.992143 111.983033 
L 25.266704 111.883866 
L 25.579874 110.115392 
L 26.105399 108.322127 
L 26.150444 106.355319 
L 26.425004 104.212216 
L 26.944095 102.160015 
L 27.325905 101.6752 
L 27.956535 101.59807 
L 29.024746 101.744066 
L 29.230666 101.697237 
L 29.423716 101.59807 
L 29.595316 101.441056 
L 29.736886 101.248232 
L 29.449456 98.887512 
L 30.270992 98.091423 
L 33.589309 97.573553 
L 37.452457 94.829939 
L 38.994713 94.33686 
L 40.942374 94.37818 
L 55.125123 98.028067 
L 61.337047 98.218137 
L 64.728295 99.424665 
L 66.763901 99.570661 
L 68.825247 99.377837 
L 71.375654 98.705706 
L 72.195045 98.331076 
L 72.187461 98.313753 
L 71.892362 97.639625 
L 71.748884 97.311863 
L 72.310875 96.513019 
L 74.082646 95.391884 
L 75.082217 94.347879 
L 75.635627 93.298364 
L 75.862997 92.01746 
L 76.279127 83.423008 
L 76.708128 82.277081 
L 77.188608 82.312892 
L 77.742018 82.538771 
L 79.153429 81.296432 
L 79.83554 81.806039 
L 80.94236 83.591041 
L 81.500061 83.874768 
L 81.778911 83.527684 
L 81.869001 82.998795 
L 81.873291 82.731596 
L 81.864711 82.657221 
L 82.160721 81.855623 
L 82.302291 81.770229 
L 82.737727 81.695854 
L 82.894312 81.588423 
L 83.398387 80.566455 
L 83.409112 79.817195 
L 82.480326 77.861406 
L 82.079211 76.70997 
L 81.931206 75.712793 
L 82.216491 75.296844 
L 83.083072 75.88909 
L 83.928202 77.718165 
L 84.560978 80.023792 
L 85.511214 81.475483 
L 87.27655 80.745506 
L 87.137125 79.561014 
L 83.482042 74.58064 
L 83.276122 74.046241 
L 83.213917 73.544898 
L 83.301862 72.451309 
L 83.160292 72.046378 
L 82.422411 71.462396 
L 82.334466 70.98309 
L 82.872862 70.002441 
L 83.524942 70.520312 
L 84.468743 72.186864 
L 85.004993 72.018832 
L 86.476464 70.751701 
L 87.317305 70.484502 
L 90.337467 70.952789 
L 91.281267 70.801285 
L 91.620178 70.148437 
L 91.684528 69.37163 
L 91.551538 68.556259 
L 91.281267 67.809754 
L 89.346476 66.435193 
L 79.628958 68.304181 
L 79.234939 68.379963 
L 77.767758 67.823527 
L 75.910187 66.674846 
L 74.837686 65.506882 
L 75.704267 64.909127 
L 77.395285 64.468744 
L 79.70255 63.867876 
L 80.6249 63.785237 
L 83.029447 64.198432 
L 84.001132 64.071719 
L 85.444718 63.256348 
L 86.270544 62.920282 
L 93.023008 61.89005 
L 93.968954 62.044309 
L 95.281528 62.696382 
L 96.708121 63.405098 
L 100.440423 64.50695 
L 102.50606 64.573062 
L 104.065476 63.867876 
L 104.065476 62.606254 
L 101.045314 59.934261 
L 100.873714 58.358612 
L 101.963374 58.223635 
L 103.5614 58.824145 
L 104.897736 58.598265 
L 105.204472 55.986874 
L 104.940636 54.805137 
L 104.490186 53.794187 
L 103.409105 51.882472 
L 103.005845 50.932124 
L 102.117815 47.929575 
L 102.113525 47.929575 
L 100.444713 45.163925 
L 100.461873 44.062072 
L 101.948359 43.06214 
L 104.468736 42.855543 
L 105.065046 42.500196 
L 105.236647 41.778482 
L 104.951361 38.943966 
L 104.974956 36.982668 
L 105.266677 35.384981 
L 105.905887 33.996647 
L 106.963373 32.663405 
L 107.553248 32.181344 
L 108.216054 31.823242 
L 109.565259 31.390765 
L 110.31601 31.473404 
L 110.86942 31.91139 
L 111.388511 32.451298 
L 112.036301 32.839701 
L 113.361912 32.966414 
L 114.301423 33.823105 
L 115.918754 36.282991 
L 116.407814 36.712714 
L 117.454575 37.384844 
L 117.913605 37.924752 
L 118.672935 39.189128 
L 119.101936 39.748318 
L 119.625316 40.213851 
L 120.903737 40.676629 
L 122.014848 40.343319 
L 123.005838 39.481119 
L 124.74758 37.321487 
L 125.569115 36.646603 
L 126.482886 36.200352 
L 134.134106 33.853406 
L 138.059458 30.90595 
L 142.366621 29.239397 
L 145.371768 27.473678 
L 147.6755 24.848514 
L 148.823075 19.22631 
L 150.384637 18.824134 
L 152.233628 19.573394 
L 152.744245 20.11626 
L 153.542079 20.964483 
L 153.647184 21.143534 
L 153.778029 21.300548 
L 155.08648 22.416174 
L 162.658335 30.75169 
L 163.001535 31.219978 
L 162.920025 32.206136 
L 162.102779 31.908636 
L 160.659193 30.682824 
L 159.831223 30.770973 
L 159.440833 31.445857 
L 159.541648 32.36315 
L 160.191583 33.18403 
L 163.988236 34.043475 
L 165.575537 34.941485 
L 165.217321 36.737505 
L 165.125611 37.182436 
L 165.120796 37.205793 
L 164.477296 37.60246 
L 164.331436 37.82283 
L 164.262796 38.073502 
L 164.121226 38.280099 
L 163.439115 38.431604 
L 163.08948 38.599637 
L 162.495315 39.056906 
L 161.873264 39.616096 
L 159.350742 41.64075 
L 157.894287 43.409224 
L 157.364471 43.85272 
L 156.738131 44.141956 
L 156.12466 44.309989 
L 155.54551 44.563415 
L 154.98352 45.114341 
L 153.983949 46.778139 
L 153.565674 47.315292 
L 153.166703 47.475061 
L 150.309561 48.130663 
L 149.076186 48.912979 
L 148.419815 49.945966 
L 148.48631 51.067101 
L 148.552805 51.317773 
L 148.625735 51.461013 
L 149.172711 52.246084 
L 149.149116 52.226801 
L 149.239206 52.30944 
L 149.595276 52.728144 
L 149.711106 52.954024 
L 149.149116 54.807891 
L 151.216897 55.711411 
L 152.087768 55.959327 
L 152.997248 55.879443 
L 153.778029 55.642545 
L 154.567389 55.559906 
L 155.48545 55.93729 
L 156.587981 57.711273 
L 157.141391 60.176669 
L 157.883562 62.440976 
L 159.556663 63.622714 
L 161.306984 63.732899 
L 163.087335 63.589658 
L 169.003249 61.799147 
L 172.681926 61.471346 
L 173.537782 61.553985 
" clip-path="url(#pad59213a02)" style="fill: #f5f5f5; stroke: #000000"/>
    <path d="M 154.434399 80.555436 
L 159.464428 82.219234 
L 160.920884 82.268817 
L 162.233624 81.676572 
L 162.744135 81.806039 
L 163.05516 82.789443 
L 162.988665 83.7453 
L 162.56181 84.130949 
L 161.195444 84.398148 
L 160.007113 85.004167 
L 157.874982 86.703775 
L 157.636886 86.51646 
L 156.450701 84.513842 
L 156.03886 83.998726 
L 154.631739 83.029096 
L 154.078329 82.24678 
L 153.765159 81.362543 
L 153.812349 80.538909 
L 154.434399 80.555436 
" clip-path="url(#pad59213a02)" style="fill: #f5f5f5; stroke: #000000"/>
   </g>
  </g>
 </g>
 <defs>
  <clipPath id="pad59213a02">
   <rect x="7.2" y="7.2" width="357.12" height="255.730942"/>
  </clipPath>
 </defs>
</svg>
