<?xml version="1.0" encoding="utf-8" standalone="no"?>
<!DOCTYPE svg PUBLIC "-//W3C//DTD SVG 1.1//EN"
  "http://www.w3.org/Graphics/SVG/1.1/DTD/svg11.dtd">
<svg xmlns:xlink="http://www.w3.org/1999/xlink" width="288.299633pt" height="280.512pt" viewBox="0 0 288.299633 280.512" xmlns="http://www.w3.org/2000/svg" version="1.1">
 <metadata>
  <rdf:RDF xmlns:dc="http://purl.org/dc/elements/1.1/" xmlns:cc="http://creativecommons.org/ns#" xmlns:rdf="http://www.w3.org/1999/02/22-rdf-syntax-ns#">
   <cc:Work>
    <dc:type rdf:resource="http://purl.org/dc/dcmitype/StillImage"/>
    <dc:date>2024-03-04T13:11:13.397260</dc:date>
    <dc:format>image/svg+xml</dc:format>
    <dc:creator>
     <cc:Agent>
      <dc:title>Matplotlib v3.8.0, https://matplotlib.org/</dc:title>
     </cc:Agent>
    </dc:creator>
   </cc:Work>
  </rdf:RDF>
 </metadata>
 <defs>
  <style type="text/css">*{stroke-linejoin: round; stroke-linecap: butt}</style>
 </defs>
 <g id="figure_1">
  <g id="patch_1">
   <path d="M -0 280.512 
L 288.299633 280.512 
L 288.299633 0 
L -0 0 
z
" style="fill: #ffffff"/>
  </g>
  <g id="axes_1">
   <g id="PatchCollection_1">
    <path d="M 100.197064 208.908218 
L 99.852494 208.689494 
L 98.180525 208.058915 
L 97.142192 207.372492 
L 96.978002 207.339916 
L 96.589494 207.379472 
L 96.425304 207.321301 
L 96.295801 207.153767 
L 96.226425 206.816372 
L 96.143173 206.644185 
L 95.833292 206.311444 
L 95.551162 206.160198 
L 93.948568 206.02524 
L 92.024531 205.606406 
L 91.183922 205.538927 
L 90.879822 205.33649 
L 90.558378 204.843196 
L 90.12362 203.819378 
L 89.87849 203.507579 
L 89.066787 202.963095 
L 88.162582 202.739716 
L 85.24762 202.797888 
L 84.771236 202.737389 
L 84.32029 202.579163 
L 83.87975 202.251076 
L 83.056484 201.41806 
L 82.849791 201.306795 
L 82.593975 201.169087 
L 82.390471 201.159779 
L 81.960338 201.262161 
L 81.749896 201.280776 
L 81.517486 201.213297 
L 80.873442 200.840999 
L 80.302243 200.759559 
L 79.946112 200.910805 
L 79.623512 201.150472 
L 79.157534 201.343601 
L 78.207078 201.115569 
L 77.751507 200.231363 
L 77.753819 199.119124 
L 78.174703 198.206996 
L 74.840013 197.297194 
L 74.319691 197.341404 
L 73.556551 197.753258 
L 73.098667 197.916138 
L 72.647721 197.913811 
L 72.268464 197.767219 
L 70.115485 196.11515 
L 69.598631 195.426399 
L 69.430972 194.46308 
L 69.433284 193.623084 
L 69.278344 193.050677 
L 68.832023 192.678379 
L 67.971756 192.434059 
L 67.615625 192.208354 
L 67.134615 191.654562 
L 66.783109 191.473067 
L 66.445477 191.447471 
L 66.141377 191.480047 
L 65.853466 191.452125 
L 65.555147 191.256669 
L 65.478833 191.098442 
L 65.404832 190.688915 
L 65.32158 190.546977 
L 65.122702 190.430634 
L 65.051013 190.460883 
L 64.993199 190.549304 
L 64.833633 190.612129 
L 64.574629 190.667974 
L 63.4172 191.079828 
L 63.244915 191.193844 
L 63.055287 191.258996 
L 62.767375 191.212459 
L 62.528027 191.03329 
L 62.104831 190.465537 
L 61.843514 190.286369 
L 61.304691 190.286369 
L 60.828306 190.533016 
L 60.372735 190.858776 
L 59.898664 191.093789 
L 58.958614 191.086808 
L 57.970001 190.726145 
L 57.04614 190.177006 
L 56.311907 189.604599 
L 54.798347 187.999067 
L 53.374976 185.949104 
L 52.255704 183.719974 
L 51.67063 181.581591 
L 51.13412 179.554897 
L 49.496839 175.575969 
L 44.723747 168.12304 
L 44.121329 165.998619 
L 43.902793 164.514083 
L 43.111903 161.682296 
L 41.430683 158.061704 
L 40.092876 155.983819 
L 36.874971 152.221289 
L 35.126687 150.762348 
L 34.150953 150.263104 
L 32.00244 149.163796 
L 28.993819 146.871841 
L 28.286181 146.127246 
L 27.779733 145.275616 
L 26.651212 142.246046 
L 25.13187 140.277523 
L 24.498233 139.216476 
L 24.225353 138.33227 
L 23.851877 135.644748 
L 23.17777 133.12476 
L 23.119956 132.231246 
L 23.566277 130.802555 
L 25.24056 128.536195 
L 25.959761 127.268057 
L 26.170202 125.527567 
L 25.747007 123.635831 
L 23.573215 118.488819 
L 22.662072 114.847286 
L 20.920726 111.640874 
L 20.16915 109.804983 
L 20.136901 109.66888 
L 19.711266 107.872527 
L 19.649983 105.985445 
L 20.092836 104.079747 
L 21.44683 100.368408 
L 21.660741 98.465038 
L 21.579802 97.571524 
L 21.510425 97.282993 
L 26.748339 97.215514 
L 27.84911 97.476123 
L 28.762565 97.548255 
L 28.864317 97.587812 
L 29.122165 97.387702 
L 29.190386 97.134074 
L 29.201948 96.843217 
L 29.2852 96.524437 
L 29.426265 96.391807 
L 29.807835 96.212638 
L 29.923462 96.019509 
L 29.970869 95.651865 
L 30.011339 95.572752 
L 30.374408 95.349374 
L 30.6126 95.379623 
L 30.855418 95.502947 
L 31.23005 95.565772 
L 31.426616 95.498293 
L 32.615264 94.93752 
L 33.417717 94.181291 
L 34.185482 93.743841 
L 34.412111 93.56002 
L 34.909308 93.27847 
L 35.191438 92.920133 
L 35.762637 91.547287 
L 35.993891 91.212219 
L 37.517858 89.937101 
L 38.193121 89.111066 
L 38.718069 88.198937 
L 38.776798 88.056578 
L 39.125077 87.212349 
L 39.513584 85.590529 
L 39.781839 85.129811 
L 40.956612 83.919844 
L 41.816878 82.426001 
L 42.382295 82.063011 
L 43.380158 82.391098 
L 43.456472 81.995532 
L 43.387096 81.644177 
L 43.259906 81.297475 
L 43.165092 80.918197 
L 43.189553 80.499777 
L 43.19053 80.483074 
L 43.347783 80.078201 
L 44.270488 78.61926 
L 44.438148 78.200426 
L 44.446241 77.788572 
L 44.393053 77.337161 
L 44.514461 77.067246 
L 45.137692 76.618162 
L 45.193193 76.527415 
L 45.276445 76.262153 
L 45.334259 76.192347 
L 45.706578 76.136502 
L 45.750517 76.141156 
L 45.762079 76.183039 
L 46.1899 76.148137 
L 46.214182 76.099273 
L 46.252339 75.903816 
L 46.287027 75.847972 
L 46.882507 75.710687 
L 47.036291 75.654843 
L 47.214357 75.498943 
L 47.505738 75.149914 
L 48.555633 74.658947 
L 49.143019 74.08654 
L 49.171926 73.48621 
L 48.496551 73.115715 
L 48.340566 73.030146 
L 48.752199 72.532198 
L 49.174239 72.136632 
L 49.667967 71.829487 
L 50.279635 71.596801 
L 50.554828 71.561898 
L 50.773363 71.438575 
L 50.916741 71.236138 
L 50.984961 70.968549 
L 51.576972 71.26406 
L 52.19789 71.194255 
L 52.736713 70.824284 
L 53.074345 70.219301 
L 53.062782 70.088997 
L 52.963343 69.688777 
L 52.95178 69.52357 
L 53.268599 69.069833 
L 53.462852 68.532328 
L 53.502166 68.250778 
L 53.47904 67.966902 
L 53.386538 67.806348 
L 53.096314 67.592277 
L 53.016531 67.422417 
L 53.035032 67.292113 
L 53.141409 66.991948 
L 53.13794 66.873278 
L 52.917092 66.561479 
L 52.366706 66.040263 
L 52.255704 65.709849 
L 52.403707 65.351513 
L 53.096314 64.548746 
L 53.16323 64.428489 
L 53.312537 64.160161 
L 52.789902 64.155507 
L 51.744632 64.448691 
L 51.221997 64.495229 
L 50.927147 64.406808 
L 50.414919 64.069413 
L 50.139726 63.967032 
L 49.863377 63.985647 
L 49.640216 64.074067 
L 49.406649 64.132239 
L 49.108331 64.067087 
L 49.048205 63.969359 
L 48.985766 63.601715 
L 48.927953 63.46443 
L 48.830826 63.399278 
L 48.53482 63.273628 
L 47.081386 62.398729 
L 46.899851 62.36848 
L 46.587658 62.484823 
L 46.321715 62.705874 
L 45.878863 63.320165 
L 45.771329 63.371356 
L 45.768449 63.362799 
L 45.674203 63.082825 
L 45.479949 62.889696 
L 45.350446 62.710528 
L 45.452198 62.463881 
L 45.04519 62.352192 
L 44.705246 62.031085 
L 44.145611 61.302779 
L 44.097047 60.914193 
L 44.35374 60.413919 
L 44.841687 59.750764 
L 44.84978 59.178357 
L 44.922626 58.829328 
L 45.103004 58.533817 
L 46.389935 57.174931 
L 46.534469 56.749116 
L 46.021084 56.939919 
L 45.218631 57.307562 
L 44.746872 57.463462 
L 44.312114 57.458808 
L 44.063515 57.216815 
L 44.150236 56.663023 
L 44.332927 56.383799 
L 44.867125 55.874217 
L 45.082191 55.592668 
L 45.179318 55.355328 
L 45.362009 54.640982 
L 46.210713 52.563098 
L 46.510187 52.086092 
L 47.251358 51.148368 
L 47.683804 50.892413 
L 48.160188 50.952911 
L 48.645822 51.092523 
L 49.114112 51.066928 
L 49.365024 50.855183 
L 49.684155 50.2502 
L 49.940847 50.047763 
L 50.229915 50.008207 
L 50.47042 50.084993 
L 51.638255 50.664381 
L 51.820946 50.708591 
L 52.02445 50.652747 
L 52.186328 50.559672 
L 52.498521 50.482886 
L 52.844247 50.282776 
L 53.220035 50.115242 
L 53.511416 49.903498 
L 53.74267 49.482337 
L 53.837485 49.023946 
L 53.74267 47.483565 
L 53.936924 46.492323 
L 54.707001 43.986297 
L 54.519685 43.332449 
L 54.280337 43.006689 
L 53.939237 42.662314 
L 53.535697 42.459878 
L 53.117127 42.550625 
L 53.411976 41.240604 
L 53.344913 40.644928 
L 52.674275 40.537892 
L 52.785277 40.356397 
L 52.921717 40.209805 
L 53.284786 39.923602 
L 53.113658 39.521055 
L 53.239692 39.174353 
L 53.467477 38.836959 
L 53.590042 38.455354 
L 53.411976 37.552533 
L 53.33335 37.315193 
L 53.590042 36.696249 
L 53.534541 36.489158 
L 53.335662 36.182013 
L 53.284786 36.06567 
L 53.291724 35.823677 
L 53.580792 34.048284 
L 53.599292 33.468896 
L 53.436258 32.99189 
L 52.904373 33.196653 
L 52.554022 32.919757 
L 52.338956 32.412502 
L 52.121577 31.602755 
L 52.022137 31.430568 
L 51.744632 31.13273 
L 51.374625 30.634782 
L 51.241653 30.341598 
L 51.360749 30.211294 
L 51.430126 29.946032 
L 51.471752 29.359664 
L 51.344562 28.770968 
L 50.909803 28.505706 
L 50.47042 28.442881 
L 48.992704 27.891416 
L 48.786887 27.765765 
L 48.451568 27.444659 
L 48.215689 27.277125 
L 47.556614 27.002556 
L 47.267546 26.783831 
L 47.147293 26.423168 
L 47.170419 26.255634 
L 47.223607 26.123003 
L 47.274483 26.025275 
L 47.296452 25.955469 
L 47.251358 25.771648 
L 47.043229 25.499405 
L 46.911414 25.041014 
L 46.504406 24.361571 
L 46.367966 24.033484 
L 46.280089 23.451769 
L 46.185275 23.312158 
L 45.910082 23.112048 
L 45.81758 23.137644 
L 45.67189 23.216757 
L 45.493824 23.244679 
L 45.297258 23.112048 
L 45.260257 22.97709 
L 45.320383 22.842133 
L 45.404791 22.714155 
L 45.452198 22.581524 
L 45.378197 22.274379 
L 45.052128 22.048674 
L 44.978127 21.80668 
L 45.048659 21.553053 
L 45.220944 21.306406 
L 45.39838 21.119757 
L 45.424448 21.092335 
L 45.604826 20.945743 
L 45.882332 20.971338 
L 46.048835 21.083027 
L 46.164462 21.208678 
L 46.290496 21.266849 
L 46.559907 21.245908 
L 46.976165 21.148179 
L 48.104687 21.043471 
L 48.592634 21.096989 
L 49.131457 21.266849 
L 49.415899 21.02951 
L 50.21604 20.177879 
L 50.539796 20.008019 
L 51.3885 19.738103 
L 52.230266 19.296 
L 53.021156 19.49611 
L 53.377288 19.672951 
L 54.822628 19.672951 
L 58.920457 19.672951 
L 63.015974 19.672951 
L 63.493384 19.672951 
L 67.112646 19.672951 
L 71.209319 19.672951 
L 75.304835 19.672951 
L 79.283586 19.672951 
L 79.400351 19.672951 
L 83.49818 19.672951 
L 87.594853 19.672951 
L 91.693838 19.672951 
L 95.753437 19.672951 
L 95.789354 19.672951 
L 98.549394 19.672951 
L 99.886026 19.672951 
L 103.980386 19.672951 
L 108.078215 19.672951 
L 111.508893 19.672951 
L 112.173731 19.672951 
L 116.103919 19.672951 
L 116.27156 19.672951 
L 120.36592 19.672951 
L 122.199768 19.672951 
L 123.904113 19.672951 
L 123.996615 19.661317 
L 124.343497 19.672951 
L 124.387435 20.261646 
L 124.688066 20.459429 
L 125.518269 20.524581 
L 127.194864 21.466959 
L 131.998019 24.166115 
L 136.803486 26.862944 
L 140.428401 28.899983 
L 141.606641 29.5621 
L 146.409796 32.258929 
L 151.215264 34.958085 
L 152.230738 35.528244 
L 156.018418 37.654914 
L 160.819261 40.35407 
L 165.622416 43.053226 
L 170.42557 45.752382 
L 175.226413 48.451538 
L 180.03188 51.148368 
L 184.835035 53.845197 
L 189.63819 56.544353 
L 194.441345 59.241182 
L 199.246812 61.940338 
L 200.960535 62.903373 
L 204.049967 64.639494 
L 205.89769 65.677273 
L 206.239947 66.231065 
L 206.635392 68.67194 
L 206.683754 68.968438 
L 207.132589 71.720125 
L 206.725581 71.750374 
L 206.503577 71.943503 
L 206.42495 72.257629 
L 206.457326 72.660175 
L 206.03413 72.692752 
L 205.502245 72.978955 
L 205.002735 73.376848 
L 204.676667 73.739838 
L 204.563352 73.939948 
L 204.456975 74.191248 
L 204.399161 74.454183 
L 204.433849 74.691523 
L 204.595728 74.85673 
L 204.963422 74.903267 
L 205.076737 75.080108 
L 204.986548 75.452406 
L 204.808482 75.892182 
L 204.873233 76.201654 
L 205.943941 76.138829 
L 206.422638 76.180713 
L 206.894397 76.306363 
L 207.317592 76.511126 
L 207.629786 76.799657 
L 207.798602 77.146359 
L 208.187109 78.533167 
L 208.411426 78.993885 
L 208.718994 79.398758 
L 209.937705 80.278311 
L 211.847867 81.662791 
L 213.755716 83.047272 
L 215.668191 84.431753 
L 217.57604 85.813907 
L 219.483889 87.198388 
L 221.396363 88.580542 
L 223.155939 89.857424 
L 223.304212 89.965023 
L 225.216687 91.347177 
L 227.124536 92.729331 
L 229.032385 94.113812 
L 230.944859 95.498293 
L 232.855021 96.880447 
L 234.765183 98.264928 
L 236.675345 99.649409 
L 238.585506 101.031563 
L 240.48395 102.409356 
L 240.636906 102.550433 
L 241.032042 102.660363 
L 241.175893 103.292463 
L 241.053892 104.021667 
L 240.636906 104.408256 
L 240.026904 104.716061 
L 240.520368 104.915767 
L 240.857235 104.945082 
L 241.052072 105.06967 
L 241.108519 105.568021 
L 241.081206 106.046218 
L 240.997444 106.43647 
L 240.851772 106.795576 
L 240.137979 108.01397 
L 239.850277 108.288796 
L 239.720993 107.959005 
L 239.797471 107.513787 
L 239.941322 107.07773 
L 240.014158 106.650834 
L 239.873948 106.255085 
L 239.478813 107.41485 
L 239.136483 107.827089 
L 238.650303 107.792278 
L 239.038155 108.396894 
L 239.098245 108.620419 
L 239.176543 109.899276 
L 239.10917 110.124633 
L 238.956214 110.221738 
L 238.608422 110.111808 
L 238.415407 110.196087 
L 238.331645 110.309682 
L 238.109495 110.745739 
L 238.071256 111.053544 
L 238.393556 111.035222 
L 239.10917 110.740243 
L 239.125558 111.079194 
L 239.37138 111.619685 
L 239.41326 111.828553 
L 239.322215 111.993448 
L 238.470034 112.740975 
L 238.324362 112.933353 
L 237.880062 113.864096 
L 237.195403 114.897441 
L 237.122567 115.058672 
L 237.297373 115.223568 
L 237.541374 115.036686 
L 237.887345 114.596965 
L 238.022092 114.873623 
L 237.053373 117.697 
L 236.809372 118.191687 
L 236.497998 118.609422 
L 236.263101 118.765157 
L 236.004533 118.891576 
L 235.800593 119.067465 
L 235.733219 119.37527 
L 235.829727 119.565816 
L 236.006354 119.650096 
L 236.161131 119.787509 
L 236.192086 120.144782 
L 235.891638 121.038882 
L 235.247039 122.359878 
L 234.465872 123.545294 
L 233.73387 124.01433 
L 234.039781 124.153575 
L 233.892288 124.618947 
L 233.874079 125.666949 
L 233.657392 126.084684 
L 233.373331 126.44379 
L 232.96727 127.279261 
L 232.471985 128.032283 
L 232.311746 128.517809 
L 232.227984 129.043642 
L 232.220701 130.494723 
L 232.126014 130.714583 
L 231.980342 130.870318 
L 231.8547 131.06636 
L 231.767296 131.27706 
L 231.750908 131.352179 
L 231.630729 131.925649 
L 231.417683 132.383692 
L 231.251981 132.874714 
L 231.275653 133.418869 
L 231.357594 133.563611 
L 231.636192 133.886073 
L 231.73452 134.034479 
L 231.947566 134.901097 
L 232.040432 135.124622 
L 232.171537 135.254706 
L 232.665001 135.571672 
L 233.014614 135.868483 
L 233.054674 136.007729 
L 233.142077 136.857856 
L 233.08745 137.398347 
L 232.930852 137.883873 
L 232.665001 138.211832 
L 232.836165 138.772476 
L 232.912643 140.034843 
L 233.193062 140.595488 
L 233.437063 140.773208 
L 233.712019 140.916118 
L 233.943273 141.07002 
L 234.039781 141.288049 
L 234.074378 141.529895 
L 234.172707 141.782735 
L 234.318379 142.015421 
L 234.498648 142.207799 
L 234.627932 142.30124 
L 234.740828 142.347044 
L 235.033993 142.361702 
L 235.186949 142.42766 
L 235.263427 142.574234 
L 235.327158 142.7318 
L 235.429129 142.838066 
L 235.711368 142.889367 
L 236.332296 142.922346 
L 236.574476 143.061591 
L 236.802088 143.147703 
L 237.044268 143.061591 
L 237.022417 142.882038 
L 236.827581 142.795926 
L 236.467042 142.654849 
L 236.026384 142.361702 
L 236.667342 142.559576 
L 237.133492 142.768444 
L 238.371705 143.944698 
L 239.10917 144.835134 
L 239.699142 145.258366 
L 239.873948 145.450744 
L 240.210815 146.02971 
L 240.409293 146.236746 
L 240.789862 146.465767 
L 240.979235 146.632495 
L 241.128549 146.887167 
L 241.217774 147.180314 
L 241.248729 147.466133 
L 241.387117 148.026778 
L 241.720342 148.642388 
L 242.124582 148.942864 
L 242.485121 148.554443 
L 242.583449 149.206697 
L 242.479658 150.084307 
L 242.490583 150.881302 
L 242.942167 151.306366 
L 242.9276 150.895959 
L 242.891182 150.721903 
L 242.791032 150.536854 
L 243.200735 150.562504 
L 243.524855 150.688924 
L 244.162171 151.075512 
L 244.5045 151.167121 
L 245.181875 151.227583 
L 245.462294 151.383317 
L 245.793698 151.502408 
L 246.613104 151.493247 
L 246.773343 151.6215 
L 246.86803 151.931137 
L 247.279553 152.475292 
L 247.467106 153.14037 
L 248.537796 154.558471 
L 248.608811 154.714206 
L 248.583319 154.932235 
L 248.474065 155.069648 
L 248.357527 155.186907 
L 248.3029 155.329816 
L 248.494095 156.766239 
L 248.470423 157.359863 
L 248.135377 157.328716 
L 247.909585 157.614535 
L 247.740241 158.224648 
L 247.609137 158.488481 
L 247.359673 158.686355 
L 247.148449 158.680859 
L 246.988209 158.481152 
L 246.911731 158.098228 
L 245.972146 158.755978 
L 245.946654 158.788957 
L 245.768206 159.027139 
L 245.642563 159.428385 
L 245.589757 159.789323 
L 245.491429 160.120946 
L 245.232861 160.430583 
L 244.943337 160.659605 
L 244.803128 160.716402 
L 244.615575 160.738388 
L 244.440769 160.808011 
L 244.462619 160.97657 
L 244.562769 161.176277 
L 244.62468 161.352166 
L 244.493575 161.606838 
L 244.184021 161.665467 
L 243.828946 161.643481 
L 243.55399 161.659971 
L 243.772498 162.022741 
L 243.994648 162.273748 
L 244.145783 162.561399 
L 244.147603 163.045093 
L 244.049275 163.374884 
L 243.850797 163.836591 
L 243.612259 164.24883 
L 243.020466 164.794817 
L 242.760077 165.644945 
L 242.366762 168.125706 
L 242.392255 168.587414 
L 242.485121 169.052785 
L 242.771002 169.774661 
L 242.84748 170.196061 
L 242.714554 170.53318 
L 242.638076 170.851978 
L 242.976764 171.674624 
L 242.86751 172.070373 
L 241.871477 173.233802 
L 242.556136 173.081732 
L 243.044137 172.522919 
L 243.364616 171.775393 
L 243.55399 171.049853 
L 243.899961 171.33384 
L 244.167633 171.639812 
L 244.20041 171.962275 
L 243.845334 172.29573 
L 244.68659 172.213282 
L 245.068979 172.255422 
L 245.462294 172.53208 
L 246.070475 173.125704 
L 246.143311 173.44267 
L 245.997639 173.99965 
L 245.666235 174.728855 
L 245.637101 175.005513 
L 245.87746 175.791514 
L 245.89931 176.670957 
L 245.997639 177.074035 
L 246.341789 176.861503 
L 246.456506 176.753405 
L 246.385491 177.445966 
L 246.106893 178.08173 
L 245.385816 179.226837 
L 244.642889 181.251387 
L 244.315126 181.866997 
L 244.162171 181.79371 
L 244.092976 181.799207 
L 244.02014 181.837682 
L 243.845334 181.866997 
L 244.001931 182.200453 
L 243.950946 183.006608 
L 244.012857 183.40419 
L 243.692378 183.263112 
L 243.688736 183.442665 
L 243.55399 183.865897 
L 243.189809 183.464651 
L 243.004078 183.327238 
L 242.791032 183.263112 
L 242.96766 183.591071 
L 242.978585 183.854904 
L 242.818346 184.050946 
L 242.485121 184.173702 
L 242.769181 184.750836 
L 242.953092 185.340796 
L 243.051421 185.967398 
L 243.080555 186.652631 
L 242.931242 187.957137 
L 243.000436 188.591069 
L 243.747005 189.356917 
L 244.027424 189.877254 
L 244.22226 190.45622 
L 244.315126 190.965564 
L 244.275067 192.845373 
L 244.147603 193.285094 
L 244.930591 193.506787 
L 245.063517 193.647864 
L 245.127248 193.827417 
L 245.218293 193.984984 
L 245.462294 194.054606 
L 245.910236 194.087585 
L 246.044982 194.219502 
L 246.055908 194.497992 
L 246.150595 194.974357 
L 246.347252 195.342623 
L 246.593074 195.509351 
L 246.860746 195.62661 
L 247.15027 195.828149 
L 247.341464 196.143283 
L 247.598211 196.931117 
L 247.844033 197.293887 
L 248.474065 197.770251 
L 248.608811 197.975455 
L 248.295616 198.063399 
L 248.029765 198.046909 
L 247.869525 197.991944 
L 247.541763 197.740937 
L 247.498062 197.6933 
L 247.068329 197.293887 
L 246.614925 196.740571 
L 246.274416 196.542696 
L 245.844683 196.601326 
L 245.593399 196.703927 
L 245.462294 196.738738 
L 245.369428 196.802864 
L 244.916024 197.447789 
L 245.254711 197.576041 
L 246.60582 197.447789 
L 246.309013 197.814223 
L 246.234356 198.048742 
L 246.407342 198.178826 
L 246.844358 198.217301 
L 247.224926 198.338225 
L 247.228568 198.651526 
L 247.097463 199.096744 
L 247.068329 199.598759 
L 247.122956 199.683039 
L 247.323255 199.836942 
L 247.37424 199.921221 
L 247.379703 200.346285 
L 247.37424 200.382929 
L 247.254061 200.610118 
L 247.235852 200.690734 
L 247.283195 200.745699 
L 247.388808 200.786007 
L 247.490778 200.855629 
L 247.541763 200.99121 
L 247.476211 201.207406 
L 247.346927 201.35398 
L 247.257703 201.515211 
L 247.303225 201.764387 
L 247.467106 202.125325 
L 247.467106 202.295717 
L 247.37424 202.521074 
L 247.691077 202.453283 
L 248.077108 202.270066 
L 248.437647 202.042877 
L 248.685289 201.837673 
L 248.954783 201.819352 
L 249.278903 202.116164 
L 250.24216 203.334558 
L 250.624549 203.981315 
L 250.731982 204.675708 
L 250.378727 205.384759 
L 250.362339 205.544158 
L 250.493444 205.729207 
L 250.662788 205.916089 
L 250.761116 206.084649 
L 250.761116 206.335656 
L 250.637295 206.788203 
L 250.608161 207.006231 
L 250.679176 207.753757 
L 250.602698 208.023087 
L 250.302249 208.404178 
L 250.001801 208.666179 
L 249.805143 208.710151 
L 249.586635 208.677172 
L 249.23156 208.711983 
L 248.952962 208.842068 
L 248.838245 209.050935 
L 248.843708 209.364237 
L 248.914723 209.800294 
L 249.115022 209.701356 
L 249.369948 209.655552 
L 249.832457 209.633566 
L 249.887084 209.386223 
L 249.99998 209.29095 
L 250.220309 209.402712 
L 250.362339 209.551118 
L 250.438817 209.61158 
L 250.531683 209.633566 
L 250.779326 209.738 
L 250.815744 209.972518 
L 250.766579 210.229022 
L 250.761116 210.403078 
L 250.914072 210.610114 
L 251.449417 211.101136 
L 251.638791 211.544521 
L 251.902822 212.772077 
L 252.137718 213.112861 
L 252.439987 213.325393 
L 252.381719 213.470134 
L 252.20327 213.611212 
L 252.152285 213.798093 
L 252.26336 214.041772 
L 252.372614 214.197507 
L 252.669421 214.490654 
L 252.796884 214.736165 
L 252.720406 215.194208 
L 252.924347 215.630265 
L 252.742257 215.776839 
L 252.290673 215.949063 
L 251.913747 216.304505 
L 251.813597 216.495051 
L 251.995687 216.579331 
L 252.884287 216.559177 
L 253.05181 216.579331 
L 253.124646 216.740562 
L 253.301274 217.348843 
L 253.441483 217.579697 
L 253.809305 217.847194 
L 253.984112 218.015753 
L 254.133425 218.272258 
L 254.282739 218.911686 
L 254.120679 219.371561 
L 253.700051 219.591422 
L 253.05181 219.51447 
L 253.241184 219.818611 
L 253.878499 220.307801 
L 253.90035 220.505675 
L 253.659991 220.665074 
L 252.887929 220.991201 
L 252.199628 221.159761 
L 252.188703 221.418097 
L 252.470943 221.987903 
L 252.427241 222.40747 
L 252.26336 222.724436 
L 252.002971 222.979108 
L 251.675209 223.215458 
L 252.250614 223.111024 
L 253.295811 221.852322 
L 253.754678 221.901791 
L 254.053306 222.068518 
L 254.721577 222.020882 
L 255.196832 222.495414 
L 255.491818 222.53389 
L 255.81958 222.519233 
L 256.120029 222.574198 
L 256.677224 223.001094 
L 258.033796 225.24184 
L 258.075676 226.539018 
L 258.261408 227.213258 
L 258.490842 226.94576 
L 258.605559 226.575662 
L 258.609201 226.183577 
L 258.496305 225.837296 
L 258.294185 225.38475 
L 258.343349 225.194204 
L 258.609201 225.168554 
L 259.037112 225.230847 
L 259.363054 225.32612 
L 260.054996 225.626597 
L 260.492012 225.729198 
L 261.386075 226.05166 
L 261.495329 226.02601 
L 261.562702 226.058989 
L 261.635538 226.3045 
L 261.593657 226.595816 
L 261.446164 226.898124 
L 261.375149 227.227915 
L 261.55906 227.605342 
L 261.626434 227.81421 
L 261.460732 227.927805 
L 261.244044 228.023078 
L 261.176671 228.162323 
L 261.293209 228.343708 
L 261.409746 228.356533 
L 261.528105 228.305232 
L 261.635538 228.288743 
L 262.008823 228.517764 
L 262.183629 228.552575 
L 262.260107 228.374855 
L 262.276495 228.140337 
L 262.34569 228.00842 
L 262.484078 227.98277 
L 262.718974 228.079875 
L 262.99211 228.266757 
L 263.511066 228.726632 
L 263.787843 228.917178 
L 263.784202 228.711974 
L 263.822441 228.569065 
L 263.88253 228.448142 
L 263.940799 228.288743 
L 264.117427 228.409666 
L 264.250352 228.442645 
L 264.385099 228.400505 
L 264.565368 228.288743 
L 264.1848 228.178812 
L 263.024886 227.689622 
L 263.787843 226.75155 
L 264.08465 226.846823 
L 264.213934 227.101495 
L 264.281308 227.414797 
L 264.399666 227.689622 
L 264.596324 227.849021 
L 265.098892 228.090868 
L 265.330147 228.288743 
L 265.452147 228.488449 
L 266.173224 230.0916 
L 266.399016 230.300468 
L 266.455464 230.261992 
L 267.209317 230.41223 
L 267.31675 230.45437 
L 268.039648 230.245503 
L 268.143439 229.800285 
L 267.875767 229.452172 
L 267.482452 229.530955 
L 267.37866 229.26529 
L 267.455138 229.07108 
L 267.659079 228.957485 
L 267.941319 228.917178 
L 268.148902 228.994129 
L 268.24723 229.179178 
L 268.323708 229.4082 
L 268.454813 229.607907 
L 268.649649 230.014649 
L 268.443888 230.375587 
L 268.074245 230.716371 
L 267.788363 231.06998 
L 267.930394 231.057155 
L 268.2272 231.080973 
L 268.369231 231.06998 
L 268.127051 231.833996 
L 268.094275 232.081339 
L 268.154364 232.251731 
L 268.280007 232.422123 
L 268.383798 232.630991 
L 268.369231 232.927803 
L 268.014947 233.5799 
L 267.302684 234.289592 
L 266.500231 234.861999 
L 265.050265 235.364601 
L 264.203874 235.992853 
L 262.881099 237.295893 
L 262.460215 237.842705 
L 262.198898 238.096333 
L 261.574511 238.326692 
L 258.776332 240.499978 
L 258.350824 240.721029 
L 256.042904 241.700637 
L 253.802049 243.234037 
L 253.235476 243.471376 
L 249.482216 244.288104 
L 247.757058 244.416081 
L 247.373175 244.541731 
L 247.019356 244.73486 
L 242.632459 248.222821 
L 242.109824 248.506698 
L 241.547876 248.674232 
L 240.953552 248.667251 
L 240.481793 248.495064 
L 239.57065 248.00177 
L 239.04339 247.897061 
L 238.354252 248.206533 
L 237.579549 248.357779 
L 234.654181 248.355452 
L 233.897979 248.52764 
L 233.29903 249.046529 
L 232.905897 249.318772 
L 232.438763 249.435115 
L 232.142757 249.621264 
L 231.252428 250.463586 
L 230.843107 250.677657 
L 230.595665 250.66835 
L 230.112343 250.554334 
L 229.844088 250.526411 
L 229.601271 250.572949 
L 229.148012 250.782366 
L 228.481999 250.961534 
L 228.123555 251.264026 
L 227.61942 251.894604 
L 225.415565 253.376813 
L 224.858242 254.06091 
L 224.84556 254.05358 
L 224.189917 253.674651 
L 222.416195 253.232548 
L 221.622993 252.830002 
L 220.388094 251.543249 
L 219.585641 250.991783 
L 218.551933 250.83123 
L 218.329929 250.891728 
L 217.835045 251.096492 
L 217.578352 251.140702 
L 217.31241 251.06857 
L 216.873026 250.74979 
L 216.655647 250.677657 
L 216.583958 250.633447 
L 216.466018 250.426357 
L 216.426705 250.370512 
L 216.290265 250.372839 
L 216.17695 250.426357 
L 216.107574 250.491509 
L 216.107574 250.526411 
L 215.93282 250.522823 
L 215.427686 250.51245 
L 214.148849 250.728848 
L 213.938407 250.9499 
L 213.739528 251.001091 
L 212.828386 251.056935 
L 212.458379 251.145356 
L 211.052352 251.936488 
L 210.899724 252.131944 
L 210.84191 252.462358 
L 210.497341 253.479195 
L 210.2869 253.753764 
L 210.319275 254.158638 
L 209.782765 255.105669 
L 209.664825 255.610598 
L 209.755014 255.910762 
L 209.889142 256.187658 
L 209.930768 256.464555 
L 209.748077 256.764719 
L 209.468259 257.011366 
L 209.003437 257.3348 
L 207.375406 258.044492 
L 206.378699 258.835624 
L 205.962441 259.070636 
L 205.483745 259.154403 
L 204.773794 259.161384 
L 204.288159 259.254458 
L 203.478769 259.677946 
L 203.011635 259.775674 
L 202.741067 259.896671 
L 202.567626 260.175894 
L 202.440436 260.487693 
L 202.315559 260.711072 
L 202.128243 260.871625 
L 201.977927 260.950738 
L 201.552419 261.020544 
L 201.041347 261.020544 
L 199.933638 260.711072 
L 199.750947 260.620324 
L 199.353189 260.203816 
L 199.094184 260.08282 
L 198.883743 260.096781 
L 198.710302 260.180548 
L 198.534549 260.292237 
L 198.317169 260.389965 
L 197.514716 260.476059 
L 196.538823 260.37135 
L 194.637911 259.943208 
L 193.851646 259.568584 
L 193.070006 258.917064 
L 192.461807 258.163161 
L 192.193552 257.469758 
L 191.842045 257.674521 
L 191.643166 257.82344 
L 191.432724 257.914188 
L 189.362997 258.098009 
L 189.032303 258.035184 
L 188.477293 257.679175 
L 188.035597 257.646599 
L 187.822843 257.539563 
L 187.443585 257.665214 
L 186.430691 258.851912 
L 185.808616 259.75706 
L 185.607425 259.943208 
L 185.350732 260.078166 
L 184.525154 260.389965 
L 184.307775 260.566806 
L 184.187523 260.711072 
L 184.023332 260.813453 
L 183.426695 260.878605 
L 183.093689 260.992622 
L 181.689975 261.216 
L 181.30378 261.174117 
L 180.741831 260.89722 
L 180.616954 260.850683 
L 180.475889 260.732013 
L 180.341761 260.203816 
L 180.166008 260.08282 
L 177.552833 260.08282 
L 177.446455 260.131684 
L 177.330828 260.236393 
L 177.175888 260.341101 
L 176.472874 260.44581 
L 175.658859 260.676169 
L 175.330477 260.711072 
L 175.099223 260.64592 
L 174.752341 260.436502 
L 174.484086 260.389965 
L 173.561381 260.545865 
L 173.304688 260.369023 
L 173.103497 259.961823 
L 173.036433 259.498778 
L 173.179811 259.161384 
L 173.029496 258.7123 
L 172.97862 258.202718 
L 172.853742 257.781557 
L 172.492985 257.609369 
L 172.289481 257.562832 
L 172.136853 257.446489 
L 171.991163 257.295243 
L 171.803847 257.148651 
L 171.58878 257.057904 
L 171.093896 256.929926 
L 170.874204 256.841506 
L 170.057876 256.343558 
L 169.590742 256.136468 
L 169.269298 256.157409 
L 168.836852 256.28306 
L 168.418282 256.064335 
L 168.21709 255.63852 
L 168.429845 255.135918 
L 168.04365 254.672874 
L 167.745331 254.526281 
L 166.901253 254.535589 
L 166.757875 254.496032 
L 166.124238 254.228444 
L 165.20847 254.06091 
L 164.912464 254.26102 
L 164.214076 255.135918 
L 163.818631 255.443064 
L 162.694734 255.6455 
L 162.283101 255.887494 
L 162.456542 256.380788 
L 162.185974 256.555302 
L 161.938532 256.855467 
L 161.751216 257.167266 
L 161.593963 257.630311 
L 161.369646 257.772249 
L 160.162498 258.086375 
L 160.13706 258.084048 
L 159.612112 258.377232 
L 159.244418 258.284158 
L 158.883661 258.14222 
L 158.638531 258.160835 
L 158.610781 258.547093 
L 158.356401 258.465653 
L 158.254649 258.340003 
L 158.196835 258.184103 
L 158.076583 258.014243 
L 157.877704 257.862997 
L 157.77364 257.851362 
L 157.685763 257.902553 
L 157.540073 257.944437 
L 157.535448 257.965378 
L 157.237129 258.084048 
L 157.140002 258.093356 
L 156.589617 258.06776 
L 156.381488 258.000281 
L 156.233485 257.856016 
L 156.194172 257.732693 
L 155.259904 257.758288 
L 145.926474 257.665214 
L 145.889474 257.469758 
L 145.889474 256.304001 
L 145.838598 255.975914 
L 145.727595 255.710653 
L 145.621218 255.508216 
L 145.570342 255.373258 
L 145.475528 255.208051 
L 145.265087 255.028883 
L 145.054645 254.791543 
L 144.862704 254.181906 
L 144.444133 253.837531 
L 144.349319 253.667671 
L 144.180503 253.204626 
L 143.761933 252.830002 
L 143.220797 252.548452 
L 142.254154 252.225018 
L 142.071463 252.20175 
L 141.904959 252.259921 
L 141.620516 252.506568 
L 141.472514 252.522856 
L 141.329136 252.350669 
L 140.834251 251.433886 
L 140.968379 251.364081 
L 141.16032 251.215162 
L 141.292135 251.140702 
L 141.292135 251.001091 
L 140.938316 250.800981 
L 140.646935 250.470567 
L 140.448056 250.033117 
L 140.376368 249.518882 
L 140.320866 249.316445 
L 140.182114 249.141931 
L 140.004048 249.018607 
L 139.599353 248.918552 
L 139.492976 248.776614 
L 139.423599 248.578831 
L 139.305659 248.357779 
L 138.239576 247.447978 
L 138.070761 247.052412 
L 138.006009 246.500946 
L 137.707691 245.577183 
L 137.610564 245.116465 
L 137.721566 244.548712 
L 138.167271 243.980976 
L 138.373704 243.718023 
L 138.785337 242.798914 
L 138.8339 242.566228 
L 138.8339 241.568006 
L 139.122968 240.160256 
L 139.037404 239.571561 
L 139.173844 239.380759 
L 139.446725 239.178322 
L 139.388911 238.887465 
L 139.254783 238.726911 
L 139.109093 238.622203 
L 139.014279 238.494226 
L 138.974966 238.394171 
L 138.8339 238.18708 
L 139.129906 237.712401 
L 139.111406 237.221434 
L 138.898652 236.767697 
L 138.417642 236.20227 
L 138.357516 236.069639 
L 138.376017 235.636843 
L 138.313578 235.373908 
L 138.234858 235.351106 
L 138.16095 235.329698 
L 137.966696 235.341332 
L 137.777068 235.252912 
L 137.596689 234.996957 
L 137.448686 234.701446 
L 137.344622 234.389647 
L 137.322603 234.212408 
L 137.307621 234.091809 
L 137.353872 233.803279 
L 137.562001 233.29835 
L 137.610564 233.084279 
L 137.51575 232.665445 
L 137.085617 231.951099 
L 136.986177 231.464786 
L 137.439436 229.007623 
L 137.446374 228.767957 
L 137.39781 228.488734 
L 137.210494 227.997766 
L 136.99774 226.801761 
L 136.255413 225.140384 
L 136.084285 224.372521 
L 136.130536 224.149142 
L 136.329415 223.709366 
L 136.375666 223.451085 
L 136.345603 223.206764 
L 136.084285 222.436574 
L 135.411335 221.489543 
L 135.156955 221.026498 
L 132.923037 218.271497 
L 132.897599 218.178423 
L 132.492903 217.789838 
L 132.391151 217.733993 
L 131.893954 217.222084 
L 131.764452 217.042916 
L 131.65345 216.617101 
L 131.597949 216.214554 
L 131.456884 215.916716 
L 130.788558 215.674723 
L 128.612454 213.385094 
L 127.964941 213.089583 
L 127.578746 212.668422 
L 127.409931 212.570694 
L 126.651416 211.653911 
L 126.341535 211.481724 
L 126.128781 211.230423 
L 126.099243 211.211052 
L 125.404955 210.755744 
L 124.62794 210.474194 
L 124.26487 210.797627 
L 123.99199 211.1071 
L 123.46473 211.542222 
L 123.131723 212.107649 
L 123.547981 213.112852 
L 123.506356 213.506091 
L 123.349103 214.185534 
L 123.332915 214.597388 
L 123.254288 214.890572 
L 123.069285 215.120931 
L 122.738591 215.337329 
L 122.738591 215.490901 
L 122.370896 215.888794 
L 122.109579 215.700319 
L 121.866762 215.253562 
L 121.327939 214.799824 
L 120.694302 214.422873 
L 120.169354 214.208802 
L 119.588905 213.829524 
L 119.017707 213.25479 
L 118.404883 212.875512 
L 117.686837 213.073295 
L 117.094826 213.406036 
L 116.52594 213.480495 
L 116.514693 213.478529 
L 115.926991 213.375787 
L 115.24479 213.161716 
L 114.486276 213.082603 
L 113.942828 213.308308 
L 113.415568 213.615453 
L 112.719492 213.782987 
L 111.789849 213.717835 
L 111.357403 213.585204 
L 111.012834 213.343211 
L 110.743423 212.922049 
L 110.358384 212.086707 
L 109.944439 211.698122 
L 108.686414 210.806935 
L 108.286344 210.667323 
L 108.087465 210.704553 
L 107.733646 210.937239 
L 107.541705 210.997737 
L 107.27345 210.972142 
L 106.808628 210.83253 
L 106.496435 210.834857 
L 106.348432 210.90699 
L 106.040863 211.160617 
L 105.83736 211.230423 
L 105.754108 211.181559 
L 105.098502 210.923278 
L 104.496084 210.790647 
L 104.29258 210.709207 
L 102.914303 209.645832 
L 101.795032 208.535921 
L 101.401899 208.307889 
L 100.967141 208.326504 
L 100.541633 208.542901 
L 100.197064 208.908218 
" clip-path="url(#p240903e4cd)" style="fill: #f5f5f5; stroke: #000000"/>
    <path d="M 256.260238 169.052785 
L 256.602567 169.432045 
L 256.566149 170.157585 
L 256.209253 171.674624 
L 255.571937 173.136697 
L 255.27331 173.543439 
L 255.229608 173.710167 
L 255.23325 173.853076 
L 255.204115 173.99965 
L 255.05116 174.461357 
L 254.983786 174.582281 
L 254.78895 174.846114 
L 254.74889 175.005513 
L 254.639636 175.274842 
L 254.373784 175.274842 
L 253.754678 175.091625 
L 253.104616 175.304157 
L 252.820556 175.791514 
L 252.683988 176.308187 
L 252.470943 176.612328 
L 251.585985 176.96044 
L 251.13258 177.063042 
L 250.761116 177.074035 
L 250.309533 176.890818 
L 249.71774 176.258718 
L 249.357202 175.983892 
L 249.566605 175.934424 
L 249.945353 175.919766 
L 250.134726 175.842815 
L 250.138368 175.780521 
L 250.196637 175.61929 
L 250.269473 175.472716 
L 250.302249 175.46722 
L 250.353235 175.296828 
L 250.480698 175.25652 
L 250.633653 175.267513 
L 250.761116 175.227205 
L 251.726194 174.290965 
L 252.050315 173.776125 
L 251.842732 173.523285 
L 251.968374 173.145858 
L 252.225121 172.969969 
L 252.574734 172.922333 
L 252.984437 172.925997 
L 253.357722 172.850878 
L 254.056948 172.526584 
L 254.439337 172.449632 
L 254.315516 172.268247 
L 254.104291 172.235268 
L 253.525244 172.29573 
L 253.525244 172.156485 
L 253.794738 172.090527 
L 254.031455 171.965939 
L 254.439337 171.68012 
L 254.918234 171.482246 
L 255.123996 171.306357 
L 255.278772 170.729223 
L 255.459041 170.393935 
L 255.681191 170.100788 
L 255.87967 169.9762 
L 255.988924 169.858941 
L 256.216536 169.278142 
L 256.260238 169.052785 
" clip-path="url(#p240903e4cd)" style="fill: #f5f5f5; stroke: #000000"/>
    <path d="M 252.822471 177.094634 
L 253.540822 177.014876 
L 254.046347 177.04123 
L 254.152742 177.359443 
L 253.913189 177.651287 
L 252.981894 178.685613 
L 252.316789 179.295275 
L 251.944385 179.268727 
L 251.811405 178.897591 
L 251.944476 178.314407 
L 252.210561 177.837225 
L 252.822471 177.094634 
" clip-path="url(#p240903e4cd)" style="fill: #f5f5f5; stroke: #000000"/>
   </g>
  </g>
 </g>
 <defs>
  <clipPath id="p240903e4cd">
   <rect x="7.2" y="7.2" width="273.899633" height="266.112"/>
  </clipPath>
 </defs>
</svg>
