<?xml version="1.0" encoding="utf-8" standalone="no"?>
<!DOCTYPE svg PUBLIC "-//W3C//DTD SVG 1.1//EN"
  "http://www.w3.org/Graphics/SVG/1.1/DTD/svg11.dtd">
<svg xmlns:xlink="http://www.w3.org/1999/xlink" width="159.636136pt" height="280.512pt" viewBox="0 0 159.636136 280.512" xmlns="http://www.w3.org/2000/svg" version="1.1">
 <metadata>
  <rdf:RDF xmlns:dc="http://purl.org/dc/elements/1.1/" xmlns:cc="http://creativecommons.org/ns#" xmlns:rdf="http://www.w3.org/1999/02/22-rdf-syntax-ns#">
   <cc:Work>
    <dc:type rdf:resource="http://purl.org/dc/dcmitype/StillImage"/>
    <dc:date>2024-03-04T13:11:13.427749</dc:date>
    <dc:format>image/svg+xml</dc:format>
    <dc:creator>
     <cc:Agent>
      <dc:title>Matplotlib v3.8.0, https://matplotlib.org/</dc:title>
     </cc:Agent>
    </dc:creator>
   </cc:Work>
  </rdf:RDF>
 </metadata>
 <defs>
  <style type="text/css">*{stroke-linejoin: round; stroke-linecap: butt}</style>
 </defs>
 <g id="figure_1">
  <g id="patch_1">
   <path d="M 0 280.512 
L 159.636136 280.512 
L 159.636136 0 
L 0 0 
z
" style="fill: #ffffff"/>
  </g>
  <g id="axes_1">
   <g id="PatchCollection_1">
    <path d="M 102.286784 162.978951 
L 102.166384 162.647395 
L 102.209106 161.802228 
L 102.178035 161.418846 
L 101.964422 160.957725 
L 100.884705 159.513234 
L 100.216679 158.955769 
L 100.114404 158.78833 
L 100.114404 157.728549 
L 99.95387 157.00431 
L 99.67941 156.539202 
L 97.804794 154.713986 
L 97.777607 154.56183 
L 98.150458 154.597709 
L 97.956265 154.331269 
L 97.3698 153.866826 
L 97.389219 153.6954 
L 97.389219 153.583775 
L 97.129 153.73128 
L 96.883021 153.788422 
L 96.691417 153.896726 
L 96.618918 154.196388 
L 96.846772 155.71131 
L 97.043555 156.09735 
L 97.074626 156.212962 
L 97.017662 156.392361 
L 96.884316 156.392361 
L 96.717309 156.317279 
L 96.564543 156.269439 
L 96.504991 156.19768 
L 96.519232 155.845527 
L 96.510169 155.71131 
L 96.220173 155.341882 
L 95.774823 155.018964 
L 95.288044 154.763819 
L 93.579139 154.159179 
L 93.326688 154.001043 
L 93.101423 153.970478 
L 92.914997 154.252201 
L 92.8179 154.252201 
L 92.460584 154.094064 
L 92.372549 154.028949 
L 92.310408 153.889417 
L 92.320765 153.764502 
L 92.357014 153.659521 
L 92.372549 153.583775 
L 92.262506 153.255541 
L 91.9751 152.763856 
L 91.940145 152.468845 
L 92.367371 152.577149 
L 92.76741 152.440938 
L 93.102718 152.176492 
L 93.351286 151.91138 
L 93.478159 151.529327 
L 93.353875 151.199765 
L 93.118253 151.054917 
L 92.914997 151.231658 
L 93.043165 151.287471 
L 93.136378 151.364546 
L 93.201109 151.460226 
L 93.242537 151.566536 
L 93.014683 151.843607 
L 92.688438 152.032973 
L 92.393264 152.003073 
L 92.263801 151.622349 
L 92.305229 150.898774 
L 92.402326 150.552601 
L 92.590046 150.217724 
L 92.491655 150.217724 
L 92.390674 150.345296 
L 92.155053 150.786484 
L 92.048893 150.786484 
L 91.982868 150.587152 
L 91.945323 150.382505 
L 91.959564 150.184502 
L 92.048893 150.005767 
L 91.865057 150.144635 
L 91.610016 150.236328 
L 91.384751 150.212408 
L 91.287654 150.005767 
L 91.02614 150.080849 
L 90.951052 150.117393 
L 91.103818 150.213072 
L 91.16337 150.344632 
L 91.147835 150.502104 
L 91.070157 150.674858 
L 91.167254 150.674858 
L 91.505151 150.440975 
L 91.61131 150.61971 
L 91.683809 150.779175 
L 91.695461 150.939305 
L 91.6139 151.120033 
L 91.937556 151.367204 
L 92.103268 151.870849 
L 91.966037 152.196425 
L 91.384751 151.91138 
L 90.40731 150.89811 
L 89.930888 150.636321 
L 89.731516 150.492802 
L 89.757408 150.33998 
L 89.501072 149.99713 
L 89.139872 149.607768 
L 88.897777 149.219735 
L 88.996169 148.880871 
L 89.054427 149.013759 
L 89.120453 149.058941 
L 89.208487 149.070901 
L 89.322414 149.104123 
L 89.112685 148.961268 
L 89.218844 148.825058 
L 89.433752 148.658284 
L 89.539911 148.423737 
L 89.419511 148.423737 
L 89.335361 148.584531 
L 89.231791 148.650311 
L 89.112685 148.634364 
L 88.996169 148.546658 
L 89.156702 148.399817 
L 89.236969 148.355299 
L 89.322414 148.323406 
L 88.514569 148.341346 
L 88.44207 148.207129 
L 88.778672 147.876903 
L 88.106762 147.912783 
L 87.900917 147.978562 
L 87.900917 148.100155 
L 88.110646 148.252311 
L 88.254349 148.474898 
L 88.440775 148.648317 
L 88.778672 148.657619 
L 88.700995 148.860938 
L 88.667334 149.077545 
L 88.659567 149.549297 
L 88.110646 148.713432 
L 87.895738 148.475563 
L 87.629046 148.382541 
L 87.331282 148.355299 
L 87.12932 148.423737 
L 87.12932 147.715444 
L 87.098249 147.542025 
L 87.027045 147.377909 
L 86.955841 147.295518 
L 86.922181 147.3706 
L 86.893699 147.469601 
L 86.75129 147.575912 
L 86.707273 147.664947 
L 86.914413 148.367259 
L 86.922181 148.546658 
L 86.386206 148.132048 
L 86.155763 147.893514 
L 86.044425 147.664947 
L 86.370671 147.765277 
L 86.312412 147.493521 
L 86.203664 147.433722 
L 86.071612 147.456313 
L 85.935677 147.431064 
L 85.806214 147.308807 
L 85.741483 147.18655 
L 85.692287 147.047018 
L 85.609431 146.874263 
L 85.347917 146.508822 
L 85.052743 146.210488 
L 84.704489 145.963317 
L 84.296682 145.748038 
L 84.032579 145.670299 
L 83.051253 145.637077 
L 82.763847 145.731427 
L 82.598135 145.952021 
L 82.479029 146.210488 
L 82.341799 146.417793 
L 82.063455 146.560648 
L 81.741093 146.588554 
L 81.088603 146.539386 
L 80.968203 146.585897 
L 80.944899 146.692207 
L 80.953962 146.804497 
L 80.929364 146.874263 
L 80.85557 146.888217 
L 80.680796 146.870277 
L 80.420577 146.880908 
L 79.94286 146.762638 
L 79.243763 146.871606 
L 78.89033 146.993863 
L 78.737565 147.147348 
L 78.667655 147.450333 
L 78.496765 147.470266 
L 78.095431 147.207812 
L 76.991116 146.710811 
L 75.803946 146.417793 
L 73.240589 146.082916 
L 72.905282 146.154011 
L 72.355066 146.468955 
L 71.663737 146.593206 
L 71.495436 146.752671 
L 71.490257 146.758651 
L 71.438472 147.036387 
L 71.438472 147.431064 
L 70.669465 147.086884 
L 70.669465 146.98456 
L 70.902498 146.805162 
L 70.804106 146.535399 
L 70.534824 146.377263 
L 70.247418 146.539386 
L 70.073938 146.43972 
L 69.934118 146.449687 
L 69.786531 146.5055 
L 69.58457 146.539386 
L 69.659658 146.484902 
L 69.726979 146.414471 
L 69.77488 146.32145 
L 69.799478 146.194542 
L 69.475821 146.194542 
L 69.530196 146.098198 
L 69.638944 145.845711 
L 69.690729 145.748038 
L 69.558677 145.743387 
L 69.258324 145.637077 
L 69.535374 144.912838 
L 69.743809 144.604538 
L 70.029921 144.745399 
L 70.128312 144.745399 
L 70.240944 144.566 
L 70.379469 144.418495 
L 70.503753 144.237103 
L 70.571074 143.954716 
L 70.54777 143.703558 
L 70.464914 143.473662 
L 70.350988 143.264363 
L 69.75546 142.398598 
L 69.690729 142.180662 
L 69.747693 142.026512 
L 69.864209 141.932826 
L 70.000144 141.847113 
L 70.128312 141.715554 
L 70.167151 141.593962 
L 70.202106 141.2943 
L 70.247418 141.157425 
L 70.384648 141.235829 
L 70.552949 141.154767 
L 70.705715 140.989986 
L 70.788571 140.822548 
L 70.780803 140.435844 
L 70.621564 140.168739 
L 70.435138 139.936185 
L 70.345809 139.652469 
L 70.278489 139.55081 
L 70.128312 139.504299 
L 69.980725 139.433204 
L 69.908226 139.261779 
L 70.247418 138.81594 
L 70.505048 138.338872 
L 70.842945 137.863134 
L 70.972407 137.586727 
L 70.96205 137.27444 
L 70.788571 136.687076 
L 70.714777 136.530268 
L 70.498575 136.180108 
L 70.451968 136.069147 
L 70.488218 135.897057 
L 70.560717 135.79274 
L 70.635805 135.713672 
L 70.769151 135.346236 
L 71.003478 135.243248 
L 71.293474 135.17614 
L 71.547221 135.004714 
L 71.611952 134.776147 
L 71.640433 134.398746 
L 71.608068 134.046593 
L 71.381509 133.728326 
L 71.500614 133.37418 
L 71.777664 132.877179 
L 71.777664 132.765553 
L 71.588649 132.899105 
L 71.42941 133.048604 
L 71.262403 133.170197 
L 71.060442 133.221359 
L 70.077822 133.221359 
L 69.681667 133.168203 
L 68.885473 132.930998 
L 68.207089 132.847279 
L 67.864014 132.704425 
L 66.751932 132.552268 
L 66.271626 132.372205 
L 65.643733 131.92703 
L 65.355032 131.812747 
L 65.316193 131.691154 
L 65.347264 131.535011 
L 65.428825 131.352954 
L 65.46378 131.127045 
L 65.44695 130.869907 
L 65.27347 131.200133 
L 65.213918 131.461923 
L 65.230748 132.15294 
L 65.097401 132.382836 
L 64.780218 132.525026 
L 62.77614 132.877179 
L 61.999365 132.841299 
L 61.607094 132.871199 
L 61.300268 132.998771 
L 60.548091 132.620705 
L 60.312469 132.430675 
L 60.151936 132.742962 
L 59.96551 132.934985 
L 59.709175 133.072524 
L 58.329105 133.6167 
L 57.734872 133.738293 
L 57.351663 133.911711 
L 57.039659 134.051908 
L 56.780734 134.123003 
L 56.554175 134.291106 
L 56.433775 134.629306 
L 56.281009 134.881129 
L 55.957353 134.792758 
L 56.185207 134.893089 
L 56.15802 135.178798 
L 56.03503 135.432614 
L 55.835658 135.614006 
L 55.576733 135.685101 
L 55.343701 135.807358 
L 55.311335 136.092402 
L 55.313924 136.106355 
L 55.413611 136.637907 
L 55.913336 137.306333 
L 56.835108 138.086385 
L 56.888188 138.162131 
L 56.998231 138.25316 
L 57.113452 138.372759 
L 57.161354 138.536875 
L 57.1743 138.683052 
L 57.332244 139.296994 
L 57.596347 139.931534 
L 57.557509 140.216579 
L 57.416395 140.47571 
L 56.892072 141.189318 
L 56.779439 141.420543 
L 56.620201 141.948108 
L 56.402704 143.124166 
L 56.317258 143.364694 
L 55.739856 144.288929 
L 55.527538 144.930113 
L 55.37995 145.600533 
L 55.307451 146.290221 
L 55.31263 146.808484 
L 55.315219 146.98456 
L 55.58709 148.039691 
L 55.631107 148.373239 
L 55.571555 149.409765 
L 55.631107 149.772549 
L 56.111413 150.938641 
L 56.130833 151.175845 
L 55.994897 151.417037 
L 55.645348 152.625653 
L 55.662178 152.780467 
L 55.804587 152.959866 
L 55.963826 153.109365 
L 56.084226 153.259528 
L 56.15802 153.429625 
L 56.20851 153.765831 
L 56.249938 153.894732 
L 56.255116 154.050211 
L 56.185207 154.252201 
L 56.102351 154.339907 
L 55.846015 154.541896 
L 55.739856 154.69804 
L 55.641464 155.283411 
L 55.576733 155.428259 
L 55.22589 156.012966 
L 53.634797 157.712602 
L 53.251588 158.42621 
L 53.124715 159.178356 
L 53.342211 159.753096 
L 53.291721 159.846782 
L 53.066456 159.868709 
L 52.953824 159.938475 
L 52.911101 160.060732 
L 52.907218 160.242788 
L 53.026323 160.861382 
L 52.992663 160.957725 
L 52.942172 161.078653 
L 52.930521 161.228817 
L 53.026323 161.418846 
L 52.443742 161.487284 
L 51.988034 161.934451 
L 50.695999 164.089894 
L 50.615732 164.270621 
L 50.548412 164.528424 
L 50.238997 164.981571 
L 50.170382 165.274589 
L 50.147078 165.657971 
L 50.082347 166.004144 
L 49.982661 166.333042 
L 49.572265 167.251962 
L 49.530837 167.403454 
L 49.460927 167.578866 
L 49.155396 167.907763 
L 49.085486 168.072544 
L 49.03629 169.014055 
L 49.085486 169.353584 
L 49.353473 170.03397 
L 49.353473 170.339612 
L 49.085486 170.600737 
L 48.96897 170.27782 
L 48.716518 170.285793 
L 48.436879 170.475158 
L 48.225856 170.702396 
L 48.111929 170.877808 
L 48.00318 171.097074 
L 47.924208 171.356205 
L 47.889253 171.655203 
L 47.943627 172.006027 
L 48.174071 172.596049 
L 48.225856 172.885745 
L 48.180544 173.211985 
L 48.03684 173.574104 
L 47.961752 173.766127 
L 47.889253 174.057152 
L 47.920324 174.436547 
L 48.166303 175.119591 
L 48.225856 175.460448 
L 48.166303 175.708284 
L 48.034251 175.700311 
L 47.91644 175.586027 
L 47.889253 175.516261 
L 47.590195 175.504301 
L 47.36493 175.527557 
L 47.213459 175.562108 
L 47.078818 175.643169 
L 47.023149 175.795326 
L 47.023149 176.464417 
L 46.949356 176.762086 
L 45.993923 178.229168 
L 45.935665 178.37468 
L 45.973209 178.546106 
L 46.02111 178.661718 
L 45.983566 178.728827 
L 45.772542 178.749424 
L 45.492903 178.827164 
L 45.232684 179.024502 
L 45.010008 179.284298 
L 44.839118 179.550739 
L 44.739432 179.879636 
L 44.613853 180.66301 
L 44.45332 180.938753 
L 44.27984 181.009848 
L 44.080468 181.038419 
L 43.919935 181.116823 
L 43.852614 181.33343 
L 43.888864 181.454358 
L 43.989844 181.527446 
L 44.132253 181.560004 
L 44.29667 181.556682 
L 44.180154 181.775282 
L 44.032567 181.952688 
L 43.906988 182.142053 
L 43.852614 182.393211 
L 43.953595 182.606496 
L 44.445552 182.938716 
L 44.621621 183.127417 
L 44.650103 183.336051 
L 44.630683 183.636378 
L 44.562068 183.903482 
L 44.45332 184.019759 
L 44.225466 184.020424 
L 44.106361 184.039693 
L 43.752928 184.243011 
L 43.698554 184.033713 
L 43.582038 183.888865 
L 43.41762 183.779897 
L 43.21048 183.674915 
L 42.967091 183.792521 
L 42.758657 183.809132 
L 42.583882 183.846341 
L 42.440179 184.019759 
L 42.436295 184.199822 
L 42.548927 184.912102 
L 42.715934 185.156616 
L 43.310167 185.70212 
L 43.601457 186.060918 
L 43.783999 186.110751 
L 44.079173 186.027031 
L 43.873328 186.352607 
L 43.231194 186.415729 
L 43.091375 186.650276 
L 42.999457 187.039637 
L 42.572231 187.75989 
L 42.440179 188.165862 
L 42.469955 188.617017 
L 42.622721 188.913357 
L 42.796201 189.154549 
L 42.873878 189.442251 
L 42.824682 189.634938 
L 42.599418 189.801048 
L 42.548927 190.009682 
L 42.657676 190.72927 
L 42.657676 192.016954 
L 42.680979 192.064794 
L 42.731469 192.111969 
L 42.770308 192.183729 
L 42.766424 192.30067 
L 42.705577 192.39502 
L 42.506205 192.553157 
L 42.440179 192.64485 
L 42.385805 192.806973 
L 42.353439 192.962452 
L 42.33402 193.264108 
L 42.33143 193.313276 
L 42.381921 193.653469 
L 42.604596 194.311264 
L 42.688747 194.947797 
L 42.778076 195.321877 
L 42.914011 195.680674 
L 43.402085 196.424182 
L 43.492709 196.677998 
L 43.527663 197.054071 
L 43.578154 197.323833 
L 44.248769 198.574973 
L 45.17572 199.790898 
L 45.050142 199.822791 
L 44.97117 199.818804 
L 44.896081 199.802193 
L 44.784744 199.790898 
L 44.653987 199.814818 
L 44.642335 199.874617 
L 44.661754 199.950363 
L 44.621621 200.024116 
L 44.225466 200.24471 
L 44.079173 200.357665 
L 43.774937 200.692542 
L 43.690786 200.962969 
L 43.752928 201.640698 
L 44.085647 202.388192 
L 44.828761 202.549651 
L 45.608125 202.605464 
L 46.044413 203.034027 
L 46.566147 202.978214 
L 47.089175 202.984194 
L 47.581133 202.902468 
L 48.009653 202.587524 
L 48.130053 202.339024 
L 48.211615 202.049328 
L 48.324247 201.776908 
L 48.552101 201.584885 
L 48.748884 201.560965 
L 49.46999 201.69651 
L 49.734093 201.645349 
L 49.947706 201.533723 
L 50.110829 201.422097 
L 50.229934 201.3716 
L 50.724481 201.250007 
L 50.991173 201.058648 
L 50.996352 201.026755 
L 51.598352 201.061971 
L 51.700628 201.087219 
L 51.792546 200.951009 
L 52.00357 200.962969 
L 52.306512 201.085226 
L 52.461867 201.148348 
L 52.546017 201.076588 
L 52.718202 200.986225 
L 52.808826 200.915794 
L 53.000431 201.103166 
L 53.606315 201.372928 
L 53.62185 201.529072 
L 53.598547 201.710464 
L 53.703412 201.975575 
L 53.992113 202.486529 
L 54.12287 202.374903 
L 54.130638 203.60611 
L 54.20961 203.925705 
L 54.339072 204.138326 
L 54.48407 204.321711 
L 54.60447 204.51905 
L 54.654961 204.772201 
L 54.654961 205.557569 
L 54.689915 205.723679 
L 54.843976 205.990784 
L 54.872458 206.175498 
L 54.841387 206.187458 
L 54.767593 206.273835 
L 54.693799 206.394763 
L 54.654961 206.510375 
L 54.654961 206.906381 
L 54.841387 208.160843 
L 54.763709 208.415988 
L 54.969554 208.920298 
L 55.288032 212.101635 
L 55.413611 212.623884 
L 55.684187 213.052448 
L 56.585246 213.605261 
L 56.72636 213.843795 
L 56.791091 214.126182 
L 57.144523 214.832481 
L 57.402154 215.223836 
L 57.503134 215.550076 
L 57.596347 215.693595 
L 57.718042 215.767348 
L 58.068885 215.920833 
L 58.14009 215.96668 
L 58.230713 216.164683 
L 58.443032 216.21518 
L 58.696778 216.156045 
L 58.900034 216.027808 
L 58.753742 215.554063 
L 58.721376 214.896932 
L 58.558253 214.326843 
L 58.022279 214.111564 
L 58.332989 213.97469 
L 58.813294 214.329501 
L 59.250877 214.844441 
L 59.443776 215.186628 
L 60.255506 217.33609 
L 60.755231 220.577891 
L 61.384419 223.513385 
L 61.780574 225.361856 
L 62.939263 231.05411 
L 63.900619 233.389221 
L 64.75607 234.763509 
L 64.959771 235.095661 
L 65.077406 235.427789 
L 65.067625 235.659341 
L 64.656458 235.625423 
L 64.455922 235.413194 
L 63.884758 234.886113 
L 63.576218 234.697232 
L 63.451934 234.61617 
L 63.00514 234.633139 
L 62.70623 234.47398 
L 62.919843 234.040101 
L 62.762313 233.51345 
L 62.654859 232.801703 
L 62.429014 232.659373 
L 62.458957 231.359088 
L 62.39552 230.226882 
L 62.132896 229.597786 
L 61.646407 229.394825 
L 61.115653 229.462273 
L 60.756526 230.014262 
L 60.641304 230.293326 
L 60.542913 230.381032 
L 60.372022 230.288011 
L 60.273631 230.17107 
L 60.227024 230.066088 
L 60.212783 229.935858 
L 60.212783 229.740513 
L 60.320237 229.421582 
L 60.86139 229.082717 
L 61.082771 228.77774 
L 61.13844 228.143864 
L 61.036165 227.282751 
L 60.819962 226.467483 
L 60.529966 225.970482 
L 60.227024 225.85487 
L 59.921493 225.910683 
L 59.610783 226.027624 
L 59.287127 226.09141 
L 59.131772 226.231607 
L 58.424907 226.867476 
L 58.239776 227.095379 
L 58.209999 227.412316 
L 58.396425 228.787706 
L 58.682537 229.567758 
L 58.787402 230.169076 
L 58.885793 230.446148 
L 59.063157 230.56176 
L 59.10588 230.616244 
L 59.443776 230.906604 
L 59.51757 231.013579 
L 59.560293 231.093312 
L 60.080732 232.415547 
L 60.372022 232.928494 
L 60.756526 233.247425 
L 61.10478 233.2946 
L 61.500935 233.302573 
L 61.824591 233.410213 
L 61.960526 233.759043 
L 61.961821 233.784292 
L 61.972178 234.145747 
L 62.00066 234.341092 
L 62.060213 234.494578 
L 62.201327 234.621486 
L 62.426402 234.625227 
L 62.580713 234.703812 
L 62.727303 234.837392 
L 62.469314 234.972975 
L 62.329494 235.029452 
L 62.223335 235.109185 
L 62.178023 235.208851 
L 62.228514 235.392236 
L 62.341146 235.525124 
L 62.472579 235.599516 
L 62.688551 236.047444 
L 62.881415 236.228223 
L 63.105167 236.306902 
L 63.352085 236.275542 
L 63.537251 236.456381 
L 63.668425 236.558626 
L 63.807956 236.612147 
L 64.208619 236.629626 
L 64.393827 236.598261 
L 64.779432 236.480352 
L 65.176374 236.105844 
L 65.300658 235.910499 
L 65.254008 235.460164 
L 65.249527 235.178788 
L 65.657974 235.697878 
L 68.108698 239.118413 
L 68.415524 239.380202 
L 68.841937 239.53828 
L 69.09819 239.631829 
L 69.457697 239.462593 
L 69.720642 239.707112 
L 70.196172 240.155414 
L 71.019302 240.790691 
L 71.806207 241.183496 
L 72.269621 241.188807 
L 72.92729 241.166216 
L 74.889941 241.098443 
L 75.528 240.797342 
L 75.730693 240.4429 
L 76.263063 240.537168 
L 76.483084 240.724328 
L 76.777503 240.796788 
L 76.890136 240.869212 
L 76.922501 240.835325 
L 77.433878 240.869212 
L 77.310649 240.539024 
L 77.067499 240.184174 
L 76.021443 239.74498 
L 76.485775 239.584914 
L 76.948394 239.671227 
L 77.360084 240.008762 
L 77.972864 240.39079 
L 78.517479 240.566227 
L 78.794528 240.635993 
L 79.034034 240.665229 
L 79.34086 240.736988 
L 79.608847 240.83001 
L 79.725363 240.925024 
L 80.164241 241.115719 
L 80.711867 241.426676 
L 80.852981 241.58282 
L 82.47644 244.417319 
L 83.354196 245.792709 
L 84.120613 246.996009 
L 84.704489 247.586696 
L 86.300761 248.609268 
L 88.071807 250.344785 
L 88.910724 250.963378 
L 88.915902 250.967365 
L 88.813545 251.828985 
L 88.886916 253.104182 
L 88.707701 253.624409 
L 88.285148 254.05561 
L 87.107098 254.982988 
L 86.714963 255.470727 
L 86.476558 256.147907 
L 86.469159 256.844918 
L 86.368043 257.46978 
L 85.849306 257.931359 
L 85.672557 258.048653 
L 85.593637 258.186621 
L 85.539379 258.332183 
L 85.442373 258.476479 
L 84.977072 258.767603 
L 84.893219 258.867176 
L 84.766618 259.21315 
L 84.579182 259.419468 
L 84.319403 259.449003 
L 83.980703 259.262092 
L 83.842593 259.086996 
L 83.742298 258.889116 
L 83.617341 258.726255 
L 83.406887 258.65917 
L 83.215341 258.717395 
L 82.941947 258.974836 
L 82.926788 258.989111 
L 82.768948 259.071807 
L 82.438469 259.000081 
L 82.191021 258.721614 
L 81.87945 257.974395 
L 81.887671 257.827989 
L 81.936996 257.665128 
L 81.932064 257.530536 
L 81.7808 257.468092 
L 81.595008 257.436448 
L 81.471695 257.358815 
L 81.386198 257.228864 
L 81.31221 257.044485 
L 81.060652 256.701887 
L 80.720308 256.620035 
L 80.350369 256.70695 
L 79.802192 256.92461 
L 78.091275 257.60395 
L 77.533079 257.974395 
L 76.91898 258.273536 
L 76.294194 258.38872 
L 75.805875 258.650732 
L 75.609396 259.390778 
L 75.560893 259.75405 
L 75.424427 260.083991 
L 75.222193 260.373006 
L 74.97639 260.613078 
L 74.230757 261.072969 
L 73.788474 261.216 
L 73.522118 261.089424 
L 73.339615 260.681007 
L 73.097922 260.270901 
L 72.796216 259.914801 
L 72.438608 259.669666 
L 72.280768 259.6376 
L 71.97824 259.651946 
L 71.822866 259.588658 
L 71.713528 259.459129 
L 71.526914 259.075182 
L 71.406169 258.881526 
L 71.323037 258.748195 
L 71.29262 258.562129 
L 71.331258 258.370999 
L 71.435663 258.188308 
L 72.0884 256.83226 
L 72.351467 256.659695 
L 72.686879 256.591344 
L 72.976253 256.481223 
L 73.097922 256.182083 
L 73.124229 255.874082 
L 73.236032 255.340776 
L 73.260695 254.411288 
L 73.344548 253.77208 
L 73.2311 253.448047 
L 72.935149 253.22021 
L 72.680302 252.975075 
L 72.695099 252.598723 
L 72.908842 252.325742 
L 73.117652 252.227435 
L 73.263161 252.088623 
L 73.292756 251.691597 
L 73.249186 251.359125 
L 73.143959 251.147743 
L 72.941725 251.076017 
L 72.211713 251.23719 
L 71.947823 251.149431 
L 71.435663 250.720761 
L 71.131491 250.785737 
L 70.713871 251.243097 
L 70.414631 251.321996 
L 69.75203 251.152806 
L 69.539931 251.124116 
L 69.344275 251.189091 
L 69.257134 251.299212 
L 69.188078 251.307651 
L 69.054078 251.065891 
L 69.01544 250.928767 
L 69.005575 250.457062 
L 69.03517 250.3115 
L 69.040687 250.296386 
L 69.091072 250.158343 
L 69.124778 250.00814 
L 69.09436 249.872704 
L 68.904458 249.541497 
L 68.833759 249.363025 
L 68.797587 249.175271 
L 68.752372 248.39894 
L 68.604397 248.086298 
L 68.237746 247.868166 
L 68.056887 247.841163 
L 67.893292 247.843695 
L 67.745316 247.822177 
L 67.611316 247.720072 
L 67.568568 247.583792 
L 67.5735 247.219676 
L 67.548838 247.118837 
L 67.276727 247.121369 
L 66.251585 247.870697 
L 65.96961 247.909514 
L 65.682701 247.837788 
L 65.13848 247.591387 
L 64.167596 247.303216 
L 63.877399 247.166092 
L 63.36935 246.79185 
L 63.132589 246.73236 
L 62.721546 246.78088 
L 62.453545 246.758519 
L 62.099226 246.647132 
L 61.9444 246.570862 
L 61.485127 246.344616 
L 61.173557 246.064462 
L 60.99352 245.755195 
L 60.403262 243.9228 
L 60.294746 243.802975 
L 60.125396 243.741797 
L 59.941249 243.724076 
L 59.796562 243.737577 
L 59.55569 243.891578 
L 59.55569 243.923644 
L 59.314819 243.918581 
L 59.178353 243.841791 
L 59.105416 243.751463 
L 59.064905 243.701292 
L 58.920218 243.611846 
L 58.693322 243.686103 
L 58.590561 243.821539 
L 58.546168 244.007606 
L 58.525616 244.376785 
L 58.419567 245.038776 
L 58.436831 245.317243 
L 58.564254 245.696126 
L 58.596315 245.92776 
L 58.500953 246.069525 
L 58.361199 246.191459 
L 58.254327 246.362336 
L 58.240352 246.50832 
L 58.292143 246.79185 
L 58.29872 246.934459 
L 58.232953 247.341189 
L 58.093198 247.698132 
L 57.961431 247.950144 
L 57.844915 247.609951 
L 57.657195 247.341518 
L 57.369788 247.255141 
L 57.563982 246.728904 
L 57.583401 246.465786 
L 57.424162 246.352832 
L 57.218317 246.406651 
L 57.096622 246.542197 
L 56.943857 246.90033 
L 56.413061 246.441866 
L 55.957353 245.906328 
L 55.902979 245.764803 
L 55.858961 245.575437 
L 55.796819 245.409992 
L 55.684187 245.338897 
L 55.482226 245.446536 
L 55.365709 245.4771 
L 55.315219 245.400025 
L 55.350174 245.281755 
L 55.493877 245.083087 
L 55.522359 245.004019 
L 55.48352 244.839903 
L 55.34629 244.565489 
L 55.315219 244.38609 
L 55.245309 244.329613 
L 55.093838 244.33958 
L 54.939778 244.317653 
L 54.872458 244.162839 
L 54.798664 243.862512 
L 54.62389 243.655871 
L 54.20961 243.332954 
L 53.82899 242.719676 
L 53.577833 242.493766 
L 53.291721 242.597419 
L 53.150607 242.605392 
L 53.035385 242.392772 
L 52.907218 241.97351 
L 52.794585 241.822682 
L 52.710435 241.75491 
L 51.334249 241.224687 
L 50.938094 240.845956 
L 50.941978 240.190819 
L 51.011887 239.896472 
L 51.097333 239.860592 
L 51.326481 239.855941 
L 51.384739 239.786839 
L 51.369204 239.632689 
L 51.27858 239.479868 
L 51.1051 239.410102 
L 50.860416 239.273892 
L 50.879836 238.962934 
L 50.944567 238.624735 
L 50.833229 238.406134 
L 51.092154 237.86528 
L 51.255277 237.611464 
L 51.431346 237.504489 
L 51.481836 237.397515 
L 51.928482 236.784901 
L 51.809376 236.604174 
L 51.53621 236.690551 
L 51.241036 236.863305 
L 51.050726 236.947025 
L 50.807337 236.830083 
L 50.716713 236.63208 
L 50.724481 236.055347 
L 50.170382 236.379593 
L 49.908867 236.605503 
L 49.79753 236.611483 
L 49.745745 236.379593 
L 49.629228 236.379593 
L 49.318519 236.288565 
L 48.902944 235.61881 
L 48.619421 234.856698 
L 48.704867 234.494578 
L 49.044058 234.303219 
L 49.337938 233.834789 
L 49.547667 233.24676 
L 49.629228 232.700591 
L 49.530837 232.700591 
L 49.080308 233.581638 
L 48.770892 233.914522 
L 48.374737 233.759043 
L 48.308712 233.503899 
L 48.386389 232.800921 
L 48.324247 232.578999 
L 48.111929 232.557072 
L 47.947511 232.788297 
L 47.838763 233.111215 
L 47.792156 233.369682 
L 47.858182 233.946415 
L 47.79604 234.17764 
L 47.516401 234.271326 
L 47.349395 234.224151 
L 47.109889 234.112525 
L 46.897571 233.980302 
L 46.805653 233.870669 
L 46.720207 233.82283 
L 46.269678 233.74509 
L 46.044413 233.602236 
L 45.848925 233.350413 
L 45.38286 232.578999 
L 45.530447 232.310565 
L 45.555045 231.927848 
L 45.500671 231.185004 
L 45.465716 231.074707 
L 45.307772 230.81026 
L 45.275406 230.622888 
L 45.201613 230.598969 
L 44.854654 230.602955 
L 44.73037 230.56176 
L 44.941393 230.216251 
L 44.91809 229.857454 
L 44.801574 229.447495 
L 44.685058 228.707974 
L 44.576309 228.690034 
L 44.435195 228.7598 
L 44.29667 228.77774 
L 44.156851 228.705316 
L 44.001496 228.592361 
L 43.953595 228.488708 
L 44.133548 228.443527 
L 44.199574 228.33921 
L 44.096004 228.108649 
L 43.904399 227.878753 
L 43.69467 227.7751 
L 43.438334 227.739221 
L 43.308872 227.642212 
L 43.091375 227.328597 
L 42.774192 227.090728 
L 42.463482 226.911993 
L 42.216209 226.688742 
L 42.104871 226.314662 
L 42.005185 226.314662 
L 41.967641 226.872791 
L 41.812286 227.322617 
L 41.483451 227.545869 
L 40.918995 227.430256 
L 40.5565 227.04023 
L 40.468466 225.96118 
L 40.257442 225.53461 
L 40.918995 225.006381 
L 41.018681 224.810371 
L 41.048458 224.504064 
L 41.146849 224.017694 
L 41.135197 223.740623 
L 40.828371 224.057561 
L 40.675606 224.116696 
L 40.474939 224.085467 
L 40.393378 223.990452 
L 40.148694 223.573184 
L 40.032177 223.451592 
L 39.775842 223.375181 
L 39.515622 223.229005 
L 39.399106 222.899443 
L 39.417231 222.734662 
L 39.445713 222.634331 
L 39.45348 222.541974 
L 39.399106 222.403106 
L 39.287768 222.261581 
L 39.031433 222.116733 
L 38.905854 222.007765 
L 38.813936 221.837668 
L 38.789338 221.721391 
L 38.723312 221.675545 
L 38.521351 221.723384 
L 38.42037 221.816406 
L 38.303854 222.107431 
L 38.24948 222.169888 
L 38.004796 222.239654 
L 37.767879 222.375864 
L 37.540025 222.466892 
L 37.314761 222.403106 
L 37.237083 222.27952 
L 37.128335 221.916736 
L 37.049363 221.779197 
L 36.851285 221.657605 
L 36.761956 221.722056 
L 36.719233 221.856937 
L 36.664859 221.946636 
L 36.457719 222.13135 
L 36.373569 222.127364 
L 36.338614 221.890823 
L 36.295891 221.744647 
L 36.090046 221.532026 
L 36.009779 221.399138 
L 35.97353 221.084194 
L 36.009779 220.284208 
L 35.95411 220.066272 
L 36.009779 219.542694 
L 36.009779 219.260971 
L 35.957994 219.004498 
L 35.686123 218.368629 
L 35.458269 218.825099 
L 35.359878 218.825099 
L 35.305504 217.639074 
L 35.196755 217.476287 
L 34.893813 217.563328 
L 34.431632 217.862326 
L 34.262036 217.811164 
L 34.155877 217.811164 
L 34.155877 217.92279 
L 34.047129 217.92279 
L 34.016058 217.731431 
L 34.082083 216.862344 
L 34.167529 216.726134 
L 34.427748 216.528796 
L 34.546854 216.314846 
L 34.334535 216.211858 
L 33.992754 216.142092 
L 33.720883 216.027808 
L 33.64709 216.391921 
L 33.428298 216.488929 
L 33.148659 216.506869 
L 32.901386 216.635106 
L 32.738263 216.814505 
L 32.488401 217.02181 
L 32.239833 217.106858 
L 32.081889 216.90952 
L 31.97314 216.90952 
L 31.945953 217.1042 
L 31.861802 217.208517 
L 31.753054 217.194564 
L 31.646895 217.031112 
L 31.538146 217.031112 
L 31.538146 217.243733 
L 31.209312 217.205195 
L 30.932262 217.338083 
L 30.83646 217.511502 
L 31.328417 217.712827 
L 31.386675 217.981925 
L 31.382791 218.296205 
L 31.479888 218.540719 
L 31.483772 218.984564 
L 31.217079 219.65432 
L 30.880477 220.090192 
L 30.668159 219.827738 
L 30.571062 219.827738 
L 30.55941 219.979231 
L 30.515393 220.08089 
L 30.344503 220.284208 
L 30.089462 220.05099 
L 29.798171 219.492861 
L 29.38907 219.328744 
L 29.339874 219.209809 
L 29.273848 219.090875 
L 29.091306 219.03772 
L 28.916532 219.02576 
L 28.785775 218.988551 
L 28.683499 218.922772 
L 28.59676 218.825099 
L 28.535912 218.583243 
L 28.535912 217.884252 
L 28.438815 217.649041 
L 28.293817 217.405856 
L 27.970161 215.876316 
L 27.293073 213.787982 
L 27.26977 213.433836 
L 27.348742 213.142811 
L 27.456195 213.018561 
L 27.51057 213.164074 
L 27.550703 213.477689 
L 27.669808 213.688981 
L 28.054312 214.111564 
L 28.14623 213.783331 
L 28.006411 213.583999 
L 27.781146 213.425198 
L 27.619318 213.219886 
L 27.61155 213.114241 
L 27.654273 213.032514 
L 27.703469 212.962748 
L 27.728067 212.89564 
L 27.719004 212.628535 
L 27.728067 212.55146 
L 27.906725 212.045822 
L 27.945564 211.88237 
L 27.914493 211.523572 
L 27.66463 210.881059 
L 27.619318 210.65515 
L 27.685344 210.506315 
L 27.797976 210.415951 
L 27.931323 210.33489 
L 28.054312 210.209975 
L 28.108686 210.104329 
L 28.141052 209.998683 
L 28.200605 208.984084 
L 28.280871 208.623293 
L 28.63042 208.063171 
L 28.776712 207.419329 
L 29.086128 206.978805 
L 29.288089 206.588779 
L 29.417551 206.510375 
L 29.477104 206.550242 
L 29.712726 206.612699 
L 29.910803 206.610041 
L 29.856429 206.454562 
L 29.816296 206.249915 
L 29.971651 206.021348 
L 30.344503 205.608066 
L 29.868081 205.808727 
L 29.567728 205.887131 
L 29.412373 205.758894 
L 29.367061 205.334317 
L 29.561255 205.157576 
L 29.941874 205.140965 
L 30.196915 205.010071 
L 30.018257 204.493137 
L 29.552192 203.868564 
L 29.343758 203.500464 
L 29.258313 203.095156 
L 29.246661 202.765594 
L 29.320455 202.858615 
L 29.523711 202.922402 
L 29.653173 202.873233 
L 29.780046 202.756956 
L 30.018257 202.486529 
L 29.724378 202.332379 
L 29.717904 202.079892 
L 29.864197 201.804814 
L 29.910803 201.584885 
L 30.101113 201.315787 
L 30.217629 201.01546 
L 30.437716 199.998867 
L 30.563294 199.703856 
L 30.888245 199.121807 
L 31.170473 197.679973 
L 31.393148 197.22749 
L 31.864392 197.561703 
L 32.390009 197.141777 
L 32.568667 196.940452 
L 32.527239 196.780986 
L 32.405545 196.75308 
L 32.101308 196.79494 
L 31.97314 196.780986 
L 31.908409 196.707234 
L 31.848856 196.490626 
L 31.810017 196.446109 
L 31.49154 196.31455 
L 31.623592 196.041465 
L 31.918766 195.81622 
L 32.081889 195.823529 
L 32.116843 195.760407 
L 32.264431 195.567055 
L 32.299386 195.493302 
L 32.256663 195.373703 
L 31.97314 194.986999 
L 32.23336 194.973046 
L 32.28385 194.8375 
L 32.178985 194.662088 
L 31.97314 194.530529 
L 32.081889 194.42887 
L 32.322689 194.587671 
L 32.573846 194.689995 
L 32.773218 194.648135 
L 32.853485 194.368406 
L 32.920805 194.35246 
L 33.048973 194.214256 
L 33.120177 194.058113 
L 33.016607 193.983031 
L 32.690362 193.979045 
L 32.547953 193.944494 
L 32.408134 193.862103 
L 32.335635 193.973729 
L 32.31751 194.022233 
L 32.299386 194.094657 
L 32.200994 194.094657 
L 32.219119 193.961769 
L 32.21394 193.597656 
L 32.200994 193.536528 
L 32.33434 193.399653 
L 32.458624 193.366431 
L 32.586792 193.361116 
L 32.734379 193.313276 
L 32.95576 193.153146 
L 33.126651 192.957801 
L 33.26647 192.718603 
L 33.394638 192.421598 
L 33.26647 192.539868 
L 33.003661 192.876075 
L 32.853485 192.969761 
L 32.711076 192.941854 
L 32.625631 192.826906 
L 32.555721 192.70332 
L 32.276082 192.519271 
L 32.40425 192.232233 
L 32.660586 191.929913 
L 32.853485 191.753836 
L 32.925984 191.868784 
L 33.026964 191.928584 
L 33.14607 191.925262 
L 33.285889 191.854167 
L 33.195266 191.745863 
L 33.433477 191.570451 
L 33.503386 191.399026 
L 33.449012 191.335904 
L 33.328612 191.303346 
L 33.21339 191.235573 
L 33.244461 191.147203 
L 33.407584 190.993053 
L 33.537047 190.791063 
L 33.662625 190.702028 
L 34.016058 190.707344 
L 34.155877 190.627611 
L 34.192126 190.460172 
L 34.039361 190.391071 
L 33.864587 190.411004 
L 33.829632 190.506683 
L 33.658741 190.282103 
L 33.66133 190.174463 
L 33.720883 189.959849 
L 34.427748 188.723327 
L 34.655602 188.462867 
L 35.090596 187.209069 
L 35.460858 186.499448 
L 35.581259 186.133342 
L 35.658936 185.746638 
L 35.686123 185.413089 
L 35.745676 185.0915 
L 35.991654 184.482874 
L 36.009779 184.131385 
L 36.312016 183.140706 
L 36.473145 182.309525 
L 36.693464 181.686351 
L 36.708262 181.357254 
L 36.484654 180.331568 
L 36.381071 180.15605 
L 36.075255 179.888553 
L 36.017709 179.680125 
L 36.159108 178.978895 
L 36.316948 178.60845 
L 37.020654 177.663351 
L 37.324827 177.386994 
L 37.47609 177.340583 
L 37.81479 177.319909 
L 37.931526 177.283624 
L 38.044974 177.141016 
L 38.106261 176.984531 
L 38.176508 176.805168 
L 38.31133 176.652855 
L 38.523429 176.556658 
L 38.671404 176.591255 
L 38.807871 176.659606 
L 38.978865 176.665935 
L 39.546104 176.414471 
L 39.621736 176.39675 
L 39.740117 176.26258 
L 39.807528 176.133473 
L 39.866718 175.804798 
L 39.865074 175.564726 
L 39.738473 175.232675 
L 39.703945 175.033951 
L 39.71381 174.864762 
L 39.751626 174.68629 
L 39.815749 174.5171 
L 39.906178 174.375758 
L 40.05251 174.21796 
L 40.116632 174.198551 
L 40.197197 174.240743 
L 40.39943 174.271122 
L 40.580289 174.326815 
L 40.747995 174.41584 
L 40.904191 174.420059 
L 41.040658 174.221335 
L 41.182056 173.728534 
L 41.251112 173.582971 
L 41.510891 173.314209 
L 42.145542 172.980893 
L 42.270344 172.882501 
L 42.441493 172.747572 
L 42.545076 172.590196 
L 42.694696 172.25266 
L 42.813076 172.098238 
L 42.969273 172.007947 
L 43.307972 171.892763 
L 43.416488 171.758171 
L 43.89823 170.298331 
L 44.103752 169.933793 
L 44.616734 169.308087 
L 44.809102 168.943548 
L 45.050796 168.287464 
L 45.220146 168.035578 
L 45.823557 167.374431 
L 45.922207 167.103137 
L 45.94687 166.817076 
L 46.035655 166.414565 
L 46.185275 166.152553 
L 46.643999 165.684223 
L 46.839656 165.412085 
L 46.985987 165.088895 
L 47.045178 164.815913 
L 47.015582 164.154344 
L 47.036957 163.772929 
L 47.183288 163.503745 
L 47.443067 163.337509 
L 47.809718 163.264095 
L 48.470676 163.223591 
L 48.659756 163.067481 
L 49.682431 161.675991 
L 49.817253 161.288669 
L 50.050726 160.205181 
L 50.017843 160.048227 
L 49.748198 159.96975 
L 49.442382 159.772292 
L 49.156296 159.519984 
L 48.958995 159.271896 
L 48.842259 158.910733 
L 48.894872 158.574885 
L 49.141498 157.916692 
L 49.159584 157.583375 
L 49.04778 157.305753 
L 48.83075 157.106607 
L 48.528222 157.007878 
L 48.275019 156.773291 
L 48.327633 156.32015 
L 48.580835 155.549725 
L 48.607142 155.363237 
L 48.674553 155.197001 
L 48.710725 155.043422 
L 48.644958 154.89997 
L 48.505203 154.836682 
L 48.34243 154.841745 
L 47.446356 155.138776 
L 47.222748 155.083926 
L 47.168491 154.792802 
L 47.252343 154.635004 
L 47.406896 154.509273 
L 47.536785 154.361601 
L 47.564736 154.138828 
L 47.50719 153.973435 
L 47.336196 153.651933 
L 47.275362 153.480634 
L 47.262208 153.306803 
L 47.300024 153.009772 
L 47.257276 152.832566 
L 47.148761 152.653672 
L 46.903779 152.356641 
L 46.816638 152.156651 
L 46.764024 151.844431 
L 46.719631 150.936461 
L 46.614404 150.579518 
L 46.252686 149.924699 
L 46.185275 149.588852 
L 46.224735 149.424303 
L 46.395729 149.073266 
L 46.458208 148.899436 
L 46.504245 148.538273 
L 46.507533 148.191455 
L 46.466982 147.939041 
L 46.44341 147.79232 
L 46.292146 147.566171 
L 45.507876 147.125688 
L 45.331949 146.983923 
L 45.175753 146.821062 
L 45.073814 146.649763 
L 44.955434 146.525719 
L 44.582206 146.419395 
L 44.432587 146.32826 
L 44.378329 146.198309 
L 44.342157 145.867525 
L 44.271458 145.719853 
L 44.105396 145.611842 
L 43.742034 145.551929 
L 43.598991 145.481047 
L 43.434574 145.20047 
L 43.419776 144.907237 
L 43.439506 144.59586 
L 43.380316 144.259591 
L 43.258647 144.070149 
L 42.942966 143.76468 
L 42.816365 143.587474 
L 42.762107 143.425879 
L 42.707849 142.923373 
L 42.499039 142.427196 
L 42.464511 142.279102 
L 42.480953 142.066033 
L 42.540143 141.913298 
L 42.622352 141.771112 
L 42.689763 141.585889 
L 42.650303 141.26734 
L 42.431628 140.952589 
L 42.135677 140.687201 
L 41.862744 140.518012 
L 41.510891 140.241655 
L 41.433615 139.914667 
L 41.520756 139.550129 
L 41.658867 139.162807 
L 41.703259 138.751014 
L 41.653934 138.388164 
L 41.65229 138.069615 
L 41.843014 137.796211 
L 42.147186 137.680606 
L 42.776904 137.609723 
L 42.994708 137.412904 
L 43.007089 137.401717 
L 43.053125 137.119875 
L 42.987359 136.785293 
L 42.786769 136.173932 
L 42.776904 135.95369 
L 42.842671 135.800112 
L 42.934745 135.662988 
L 43.002156 135.492955 
L 43.002156 135.336001 
L 42.949543 135.022093 
L 43.031751 134.206523 
L 43.016954 133.892615 
L 42.446426 131.364476 
L 42.406965 129.992395 
L 42.459579 129.621106 
L 42.454646 129.194124 
L 42.363141 129.050434 
L 42.275432 128.912704 
L 41.759161 128.413151 
L 41.637492 128.149874 
L 41.456633 127.368902 
L 41.451701 127.08706 
L 41.489517 126.890867 
L 41.494449 126.765979 
L 41.459922 126.659234 
L 41.377713 126.521688 
L 41.305369 126.472323 
L 41.083406 126.410723 
L 40.999553 126.366844 
L 40.937075 126.267693 
L 40.85651 126.023401 
L 40.785811 125.92636 
L 40.285982 125.551696 
L 40.141295 125.360566 
L 39.980166 125.001513 
L 39.786154 124.691825 
L 39.279748 124.080464 
L 39.194251 123.780479 
L 39.158079 123.40919 
L 38.998595 123.143803 
L 38.719085 122.964488 
L 38.337637 122.852257 
L 37.997293 122.701632 
L 36.109783 121.270482 
L 35.749709 120.888645 
L 35.366616 120.129613 
L 35.213708 120.106829 
L 35.026273 120.171805 
L 34.784579 120.163366 
L 34.676064 120.082358 
L 34.472186 119.81233 
L 34.368603 119.710225 
L 34.251867 119.65622 
L 34.006885 119.600104 
L 33.895081 119.555381 
L 33.687916 119.41657 
L 33.556382 119.286618 
L 32.832946 118.371054 
L 31.726417 116.104082 
L 31.519251 115.992274 
L 31.323595 115.915484 
L 31.206859 115.687226 
L 31.119717 115.291466 
L 30.981607 114.939164 
L 30.772797 114.617239 
L 28.852403 112.760795 
L 27.990856 111.391245 
L 27.864255 111.073962 
L 27.918512 110.836422 
L 27.923445 110.756257 
L 27.872476 110.652043 
L 27.701482 110.511966 
L 27.653801 110.425473 
L 27.62585 110.082452 
L 27.64558 109.494719 
L 27.538708 109.136931 
L 27.223027 108.574935 
L 27.160549 108.402792 
L 27.161831 108.319845 
L 27.163837 108.190145 
L 27.232892 108.034457 
L 27.320033 107.893958 
L 27.371003 107.726034 
L 27.285506 107.369934 
L 27.282352 107.366654 
L 26.793525 106.857384 
L 26.672229 106.47209 
L 26.744573 106.154807 
L 27.075052 105.583528 
L 27.153972 105.283122 
L 27.057739 105.054894 
L 26.950095 104.799603 
L 26.949966 104.797444 
L 26.938585 104.606786 
L 27.423829 104.629334 
L 27.546929 104.635054 
L 27.824795 104.505525 
L 28.059911 104.274735 
L 28.622218 103.473933 
L 28.814587 103.430897 
L 29.176305 103.489966 
L 29.465679 103.601352 
L 30.009901 103.932137 
L 30.248306 104.024537 
L 30.360109 103.992049 
L 30.39957 103.883194 
L 30.39957 103.635528 
L 30.356821 103.54144 
L 30.261459 103.467182 
L 30.164453 103.410645 
L 30.124993 103.368031 
L 30.146367 103.283647 
L 30.184183 103.201795 
L 30.223643 103.142304 
L 30.241729 103.124584 
L 30.381484 103.044419 
L 30.468625 102.95455 
L 30.488355 102.80941 
L 30.422588 102.532631 
L 30.434097 102.400148 
L 30.53768 102.328844 
L 31.109852 102.206488 
L 31.364699 102.107758 
L 31.668871 101.947007 
L 31.994417 102.088772 
L 32.319964 102.273995 
L 32.55508 102.530943 
L 32.607694 102.886199 
L 33.026958 102.406899 
L 33.171645 101.642382 
L 33.14205 100.819217 
L 32.768823 98.386854 
L 32.801706 97.45399 
L 32.774801 97.18511 
L 32.714565 96.583149 
L 32.758958 96.20089 
L 33.257142 94.557937 
L 33.293314 94.260906 
L 33.176578 93.57571 
L 33.165069 93.183325 
L 33.357437 92.547071 
L 33.406762 92.255946 
L 33.298247 91.930225 
L 32.870762 91.320974 
L 32.821436 91.104107 
L 32.962835 90.973312 
L 33.150271 90.998627 
L 33.345928 91.083011 
L 33.507057 91.131954 
L 33.714222 91.13111 
L 33.849045 91.113389 
L 33.969069 91.046726 
L 34.144996 90.899898 
L 34.366959 90.57924 
L 34.46561 90.252674 
L 34.598788 89.980958 
L 34.930911 89.819785 
L 35.21042 89.807972 
L 36.185415 89.933703 
L 36.374494 90.020619 
L 36.464924 90.134537 
L 36.576728 90.207107 
L 36.82171 90.174197 
L 36.961464 90.074624 
L 37.336336 89.665363 
L 37.410323 89.519379 
L 37.398814 89.140495 
L 37.430054 88.792834 
L 37.531992 88.471332 
L 37.730937 88.173457 
L 38.178152 87.654496 
L 38.257073 87.396282 
L 38.332705 86.656236 
L 38.490545 85.94488 
L 38.477392 85.647849 
L 38.202815 85.247026 
L 37.83452 85.010751 
L 37.536925 84.721314 
L 37.47609 84.165225 
L 37.143967 84.439472 
L 37.012434 84.701062 
L 36.879256 85.376133 
L 36.665513 85.763455 
L 35.705316 86.519534 
L 35.23015 87.22667 
L 34.975303 87.414002 
L 34.671131 87.198824 
L 34.570837 86.95411 
L 34.339008 85.778644 
L 34.133487 85.304407 
L 34.113757 85.126357 
L 34.273241 84.785446 
L 34.297904 84.613303 
L 34.168014 84.317116 
L 33.194664 83.036169 
L 33.096013 82.866558 
L 33.092725 82.691039 
L 33.145339 82.518053 
L 33.151915 82.367849 
L 33.120676 82.220178 
L 33.053265 82.053941 
L 32.823081 81.753535 
L 32.268994 81.375495 
L 32.048675 81.063275 
L 31.936871 80.616885 
L 31.856307 80.432928 
L 31.384429 80.070078 
L 31.35319 79.779797 
L 31.478147 79.467577 
L 31.668871 79.197549 
L 31.902344 79.130886 
L 32.160479 78.968869 
L 32.352847 78.767191 
L 32.400528 78.585766 
L 32.283792 78.454127 
L 32.127595 78.391683 
L 31.984552 78.307299 
L 31.915497 78.110685 
L 31.954957 77.87863 
L 32.083203 77.800153 
L 32.264062 77.848251 
L 32.464651 77.992548 
L 32.328185 77.526749 
L 32.224602 77.303132 
L 32.074982 77.201027 
L 31.826712 77.087109 
L 31.767522 76.847459 
L 31.762589 76.574899 
L 31.668871 76.359721 
L 31.496233 76.144542 
L 31.226589 75.610392 
L 31.058883 75.36146 
L 30.767864 75.076243 
L 30.481778 74.894817 
L 30.161164 74.802839 
L 29.380182 74.785118 
L 29.103961 74.700735 
L 28.88693 74.49315 
L 28.673188 74.122705 
L 28.735666 74.067012 
L 28.817875 73.920184 
L 28.803078 73.793608 
L 28.388746 73.791077 
L 28.354218 73.650156 
L 28.428206 73.463668 
L 28.558096 73.320215 
L 28.196378 73.074658 
L 27.635715 72.272168 
L 27.329898 72.028299 
L 27.081628 71.889065 
L 25.720253 70.608963 
L 25.593652 70.452009 
L 25.559124 70.239362 
L 25.61667 69.895076 
L 25.626535 69.694242 
L 25.531173 69.46303 
L 25.342093 69.344893 
L 25.110265 69.266416 
L 24.894878 69.156717 
L 24.684424 68.936475 
L 24.574264 68.712014 
L 24.409847 68.244528 
L 24.057994 67.699408 
L 23.987295 67.455539 
L 23.845896 67.296897 
L 23.67819 67.194793 
L 23.301674 67.020118 
L 23.066558 66.86654 
L 22.656123 66.489884 
L 20.444102 64.459913 
L 20.291194 64.25908 
L 20.192543 64.032087 
L 20.171169 63.824503 
L 20.167881 63.637171 
L 20.136641 63.469247 
L 20.000175 63.300479 
L 19.615439 62.980665 
L 19.525009 62.792489 
L 19.451021 62.573091 
L 19.291536 62.379852 
L 19.092591 62.216991 
L 18.967634 61.991686 
L 19.332641 61.942743 
L 19.117254 61.168944 
L 19.217549 60.925918 
L 19.666408 60.148743 
L 20.103758 59.859307 
L 20.156371 59.814583 
L 20.207341 59.726824 
L 20.171169 59.535273 
L 20.098825 59.343722 
L 20.047856 59.256806 
L 19.980445 59.173266 
L 19.748617 58.620974 
L 19.699291 58.42225 
L 19.666408 58.354743 
L 19.449377 58.253061 
L 19.381966 58.211291 
L 19.311266 58.229433 
L 19.255365 58.216775 
L 19.232346 58.076276 
L 19.247144 57.994424 
L 19.316199 57.838736 
L 19.332641 57.740851 
L 19.296469 57.562379 
L 19.148493 57.264504 
L 19.113966 57.072109 
L 19.113966 56.932454 
L 19.097524 56.835412 
L 19.035045 56.728667 
L 18.217891 55.6148 
L 18.041965 55.274733 
L 18.086358 55.121155 
L 18.324763 55.014831 
L 18.444787 54.762945 
L 18.453008 54.464227 
L 18.354358 54.219092 
L 18.148836 54.103486 
L 17.339903 53.781983 
L 17.159044 53.824175 
L 17.129449 53.860882 
L 16.833498 54.64523 
L 16.764442 54.770118 
L 16.616467 54.888677 
L 16.294209 54.705142 
L 15.950577 54.450725 
L 15.633251 54.135552 
L 15.411288 53.773545 
L 15.319214 53.37019 
L 15.314282 52.996792 
L 15.260024 52.634785 
L 14.855558 52.017517 
L 14.488907 51.267345 
L 14.42314 51.026851 
L 14.242281 50.717163 
L 13.900293 50.404942 
L 13.801643 50.220986 
L 14.143637 50.262656 
L 14.258723 50.276679 
L 14.398477 50.36697 
L 14.724024 50.871163 
L 14.768416 51.007021 
L 14.839116 51.121361 
L 15.011754 51.227685 
L 15.181104 51.250468 
L 15.574061 51.179586 
L 16.317227 51.198994 
L 16.935436 50.908292 
L 18.041965 50.188498 
L 18.351069 50.088503 
L 19.192886 50.111287 
L 19.95085 49.90539 
L 20.028126 49.925642 
L 20.074163 49.896108 
L 20.171169 49.70962 
L 20.29777 49.051426 
L 20.184322 48.387747 
L 20.003463 47.739257 
L 19.924543 47.127896 
L 19.916322 46.767578 
L 19.866997 46.476031 
L 19.67134 45.869734 
L 19.656543 45.735141 
L 19.719021 45.309003 
L 19.65161 45.102263 
L 19.483905 44.929698 
L 19.099168 44.647434 
L 18.740738 44.299772 
L 18.676616 44.104846 
L 18.839389 43.946204 
L 19.173156 43.712461 
L 19.400052 43.473655 
L 19.5135 43.220081 
L 19.617083 42.592688 
L 19.789721 42.286374 
L 20.777869 41.543375 
L 21.003121 41.292333 
L 21.109992 41.059433 
L 21.179047 39.780175 
L 21.137943 39.487785 
L 21.021206 39.179362 
L 20.879808 39.027049 
L 20.455611 38.690779 
L 20.366826 38.541842 
L 20.429304 38.366745 
L 20.57728 38.342274 
L 20.758139 38.356619 
L 20.911047 38.296707 
L 21.036004 37.975204 
L 20.891317 37.692941 
L 20.669353 37.387471 
L 20.567415 36.995508 
L 20.542752 36.832647 
L 20.424372 36.517474 
L 20.414507 36.400602 
L 20.94393 35.69431 
L 21.47171 35.238215 
L 21.608176 35.063962 
L 21.713403 34.825578 
L 21.703538 34.734443 
L 21.642704 34.653435 
L 21.59009 34.447117 
L 21.557207 34.121395 
L 21.572004 33.823942 
L 21.711759 33.622687 
L 22.037743 33.576213 
L 22.303661 33.538303 
L 23.293454 33.054783 
L 23.421699 32.941287 
L 23.653528 32.670837 
L 23.793282 32.550168 
L 23.967565 32.497428 
L 24.122117 32.501647 
L 24.252007 32.455658 
L 24.335859 32.24934 
L 24.340792 31.960325 
L 24.209258 31.369216 
L 24.192816 31.07092 
L 24.404915 30.001776 
L 24.510142 29.779847 
L 24.845553 29.703901 
L 25.083958 29.927941 
L 25.279615 30.199235 
L 25.48678 30.266742 
L 25.891247 30.201766 
L 26.22337 30.382769 
L 26.856377 30.946031 
L 27.395665 31.11058 
L 27.512402 31.171336 
L 27.586389 31.331244 
L 27.566659 31.666247 
L 27.60612 31.837125 
L 27.898782 32.037958 
L 28.299961 31.953574 
L 29.008599 31.624899 
L 29.649827 31.614351 
L 30.394637 31.68439 
L 31.113141 31.661606 
L 31.668871 31.374701 
L 31.720798 31.369487 
L 31.895767 31.351918 
L 32.035522 31.449803 
L 32.155546 31.600006 
L 32.319964 31.732911 
L 32.592896 31.855689 
L 32.655375 31.835437 
L 32.678393 31.724472 
L 32.842811 31.581442 
L 33.160136 31.461617 
L 33.516922 31.394532 
L 33.638591 31.313101 
L 33.909879 30.975144 
L 34.043057 30.84899 
L 34.322567 30.727477 
L 35.734911 30.5258 
L 36.039083 30.424539 
L 36.971329 29.721622 
L 37.449784 29.935535 
L 37.671747 30.089114 
L 37.872336 30.265898 
L 38.178152 30.719039 
L 38.426422 30.667565 
L 38.995306 30.261679 
L 39.611871 30.023294 
L 39.83219 29.838916 
L 40.042645 29.485347 
L 40.167602 29.078617 
L 40.149516 28.768929 
L 40.070596 28.463459 
L 40.017982 28.069387 
L 40.050865 27.903573 
L 40.126497 27.788389 
L 40.202129 27.702317 
L 40.243234 27.624684 
L 40.231724 27.473215 
L 40.139651 27.175762 
L 40.121565 27.014167 
L 40.295847 25.893128 
L 40.60824 25.335351 
L 41.196854 24.909634 
L 41.897272 24.639184 
L 42.548364 24.545096 
L 42.855825 24.573787 
L 43.51185 24.759009 
L 43.789715 24.885163 
L 44.407924 25.383871 
L 44.731826 25.542091 
L 45.137937 25.480491 
L 47.05011 24.903305 
L 47.576246 24.47126 
L 47.783411 24.256081 
L 47.970847 24.164103 
L 48.121235 24.067443 
L 48.146774 24.051029 
L 48.309547 23.770874 
L 48.3934 23.359081 
L 48.28324 23.097913 
L 47.763681 22.55406 
L 47.584466 21.603054 
L 47.448 21.301804 
L 46.862674 20.705632 
L 46.719631 20.430119 
L 47.027092 20.322107 
L 47.252343 20.404804 
L 48.028393 20.925452 
L 49.250014 21.316993 
L 49.402922 21.324587 
L 49.69394 21.285771 
L 49.860002 21.298428 
L 50.003045 21.357497 
L 50.244738 21.519514 
L 50.399291 21.552424 
L 50.706751 21.498418 
L 51.297831 21.255393 
L 51.626666 21.198012 
L 52.271182 21.199699 
L 52.550691 21.107299 
L 52.818691 20.863852 
L 52.961734 20.598043 
L 53.173833 20.0082 
L 53.354692 19.755892 
L 53.640778 19.572779 
L 53.994275 19.457173 
L 54.862398 19.333129 
L 54.936386 19.296 
L 55.014484 19.312033 
L 55.178902 19.438609 
L 55.28084 19.582061 
L 55.317834 19.739859 
L 55.37538 19.890062 
L 55.528289 20.017482 
L 55.712436 20.242787 
L 55.884252 20.300168 
L 56.070866 20.298902 
L 56.30105 20.344891 
L 56.511504 20.469779 
L 56.615087 20.606059 
L 56.694007 20.761747 
L 56.818964 20.942329 
L 57.516094 21.373108 
L 57.484032 21.937636 
L 57.574462 22.258294 
L 57.791493 22.512712 
L 58.078401 22.658274 
L 58.362843 22.65743 
L 58.604536 22.421155 
L 58.594671 21.784479 
L 58.742647 21.653684 
L 58.791972 21.623306 
L 59.145469 21.495465 
L 59.23261 21.481963 
L 59.26385 21.451585 
L 59.447175 20.863852 
L 59.76039 20.474842 
L 60.235556 20.16431 
L 60.812661 20.036046 
L 61.414428 20.194688 
L 61.733398 20.537708 
L 62.643447 22.47727 
L 63.052847 23.002138 
L 63.129301 23.129557 
L 63.211509 23.355706 
L 63.270699 23.448528 
L 63.394012 23.529959 
L 63.662013 23.643455 
L 63.714626 23.732058 
L 63.833007 23.870447 
L 64.09443 24.026979 
L 64.355854 24.117692 
L 64.474234 24.056514 
L 64.558087 23.840069 
L 64.630431 23.820661 
L 64.664958 23.982256 
L 64.695375 24.823141 
L 64.580283 25.475428 
L 64.185682 26.636127 
L 63.773816 27.67869 
L 63.699007 28.244905 
L 63.635706 28.510714 
L 63.481154 28.761334 
L 63.343865 28.852469 
L 63.035583 28.977357 
L 62.911448 29.057521 
L 62.799644 29.203505 
L 62.626184 29.657912 
L 62.421642 29.92226 
L 62.03757 30.418633 
L 61.968514 30.715664 
L 62.042502 30.938859 
L 62.141491 31.063186 
L 62.307214 31.271331 
L 62.414907 31.462461 
L 62.466699 31.718565 
L 62.505337 32.252293 
L 62.599877 32.533291 
L 62.730589 32.738344 
L 63.055313 33.130729 
L 63.183558 33.344642 
L 63.237816 33.615936 
L 63.237816 33.880901 
L 63.285497 34.121395 
L 63.481154 34.319275 
L 63.760663 34.490996 
L 64.218565 34.684657 
L 64.674823 34.816296 
L 64.951044 34.798575 
L 65.079917 34.590956 
L 65.258505 34.303242 
L 65.593094 34.058951 
L 66.010714 34.038699 
L 67.307144 34.523906 
L 67.537329 34.651325 
L 67.679549 34.808279 
L 67.796286 34.971984 
L 67.915488 35.014176 
L 68.068396 34.801107 
L 68.797587 34.130677 
L 69.442925 33.379661 
L 69.636938 33.05183 
L 69.697772 32.977572 
L 69.849858 32.883484 
L 69.932889 32.872514 
L 70.025784 32.891079 
L 71.435663 32.874202 
L 71.885344 32.921035 
L 72.231443 33.047611 
L 72.930216 33.467842 
L 73.36921 33.628593 
L 73.827935 33.664035 
L 74.273506 33.610873 
L 74.658242 33.506659 
L 74.840745 33.408774 
L 74.983788 33.308779 
L 75.153138 33.264899 
L 75.424427 33.335782 
L 75.634881 33.450544 
L 75.761482 33.579651 
L 75.838758 33.742512 
L 75.899593 33.957268 
L 75.932476 34.355138 
L 75.849445 34.817983 
L 75.634881 35.179568 
L 75.269874 35.27661 
L 74.913089 35.498117 
L 74.67304 36.0791 
L 74.586721 36.745732 
L 74.683727 37.231783 
L 74.788132 37.307306 
L 75.057776 37.361734 
L 75.14985 37.42671 
L 75.205752 37.562568 
L 75.199997 37.656234 
L 75.17369 37.738508 
L 75.177801 37.839346 
L 75.501703 39.204677 
L 75.452378 40.162433 
L 75.490194 40.547224 
L 75.594599 40.799953 
L 75.781212 41.001209 
L 76.476697 41.602021 
L 76.901716 42.073305 
L 77.03736 42.556403 
L 76.361605 43.194344 
L 76.251446 43.429775 
L 76.096893 43.962237 
L 75.937409 44.206528 
L 75.550206 44.643637 
L 75.422783 44.93687 
L 75.397298 45.251622 
L 75.481973 46.229209 
L 75.407985 46.508097 
L 75.172868 47.03423 
L 75.119433 47.299618 
L 75.205752 47.596227 
L 75.579801 47.962453 
L 75.664476 48.221089 
L 75.578979 48.469177 
L 75.375101 48.737096 
L 74.932819 49.149311 
L 74.793064 49.218928 
L 74.513555 49.319766 
L 74.404217 49.426934 
L 74.360647 49.587263 
L 74.376266 49.950957 
L 74.316254 50.130273 
L 74.104978 50.333216 
L 73.083946 50.886352 
L 73.019001 50.962298 
L 72.989406 51.127268 
L 72.874314 51.441598 
L 72.41148 51.90824 
L 72.326805 52.23565 
L 72.433676 52.518757 
L 72.656461 52.812413 
L 73.023445 53.152994 
L 73.153824 53.273993 
L 74.160058 53.730509 
L 74.317076 53.948641 
L 74.269395 54.054965 
L 73.998929 54.348621 
L 73.915076 54.466758 
L 73.880548 54.633416 
L 73.887125 55.208492 
L 73.940561 55.320722 
L 74.06634 55.649819 
L 74.160058 55.743064 
L 74.27515 55.807195 
L 74.378733 55.889048 
L 74.434635 56.032078 
L 74.398463 56.289871 
L 74.161702 56.903341 
L 74.097579 57.196997 
L 74.151015 57.510905 
L 74.423125 58.119734 
L 74.47245 58.348836 
L 74.350782 58.56064 
L 73.840266 58.87286 
L 73.631456 59.036564 
L 73.354413 59.476204 
L 73.148891 59.901499 
L 72.897333 60.298946 
L 72.478069 60.657578 
L 71.976596 60.931825 
L 71.858215 61.102281 
L 71.799025 61.432221 
L 71.849172 61.989155 
L 71.762031 62.197583 
L 71.435663 62.335972 
L 71.320571 62.424575 
L 71.290976 62.525836 
L 71.331258 62.633847 
L 71.435663 62.748609 
L 71.45046 62.782363 
L 71.455393 62.81696 
L 71.45046 62.852401 
L 71.435663 62.886999 
L 71.286043 62.967163 
L 71.185749 63.072643 
L 71.151221 63.206813 
L 71.188215 63.372206 
L 71.219454 63.702146 
L 71.142903 63.996956 
L 71.110117 64.123222 
L 70.777994 64.862424 
L 70.245282 65.475894 
L 70.025784 65.82018 
L 70.031539 66.181343 
L 70.284742 66.374582 
L 70.854336 66.479746 
L 71.550755 66.608325 
L 71.858215 66.761904 
L 72.14759 66.950924 
L 72.409013 67.179604 
L 72.629332 67.455539 
L 72.897333 67.51292 
L 73.372499 67.789699 
L 73.827935 67.9745 
L 73.895346 68.020067 
L 73.949603 68.011628 
L 74.100867 67.922182 
L 74.186364 67.835266 
L 74.457653 67.454695 
L 74.497113 67.212514 
L 74.659886 67.118004 
L 74.871985 67.080031 
L 75.061064 67.007461 
L 75.162181 66.874978 
L 75.481973 66.267415 
L 75.774636 65.880937 
L 77.528968 64.462445 
L 77.728735 64.394938 
L 77.849582 64.403376 
L 77.949876 64.366247 
L 78.233496 64.010991 
L 78.257337 63.965424 
L 78.272134 63.865851 
L 78.188282 63.839692 
L 78.023042 63.829566 
L 77.920281 63.781467 
L 78.017288 63.64139 
L 78.237607 63.56882 
L 78.478478 63.591603 
L 78.717705 63.571351 
L 78.928159 63.372206 
L 79.000503 63.315668 
L 79.058871 63.286978 
L 79.099976 63.300479 
L 79.120528 63.372206 
L 79.148479 63.475154 
L 79.29481 63.787374 
L 79.328516 63.751089 
L 79.388528 63.620294 
L 79.464982 63.499625 
L 79.528283 63.372206 
L 79.84232 63.052391 
L 80.379964 62.82793 
L 80.694001 62.615283 
L 80.340504 62.330909 
L 80.522895 62.263769 
L 80.817314 62.155391 
L 80.920897 62.015314 
L 80.993241 61.837264 
L 81.032701 61.622929 
L 81.032701 61.37484 
L 81.396063 61.599301 
L 81.567057 61.417032 
L 81.70599 61.104812 
L 81.965769 60.938576 
L 83.443059 60.655046 
L 83.498961 60.331012 
L 83.886163 59.256806 
L 84.02674 58.562749 
L 84.15663 58.264874 
L 84.418875 58.019739 
L 84.518348 58.019739 
L 84.667968 58.20243 
L 85.290287 58.369932 
L 85.904386 58.717593 
L 86.230754 58.615067 
L 88.636503 56.080318 
L 88.886916 55.816477 
L 89.002008 55.729984 
L 89.461481 55.753208 
L 90.195677 55.790318 
L 90.48834 55.950648 
L 90.591101 56.184391 
L 90.650291 56.457795 
L 90.800733 56.737949 
L 91.281654 57.072109 
L 91.341666 57.127802 
L 91.461691 57.193622 
L 91.834918 57.685579 
L 92.632342 58.380902 
L 93.106686 58.616333 
L 93.581852 58.587642 
L 93.880269 58.958931 
L 94.311043 59.315875 
L 94.840466 59.584215 
L 95.421682 59.692227 
L 96.781413 59.69729 
L 97.291928 59.952973 
L 97.494162 60.604416 
L 97.227806 61.66934 
L 97.222873 61.820387 
L 97.448125 61.882831 
L 98.265279 62.276903 
L 98.617132 62.322471 
L 98.617132 62.203489 
L 98.465046 61.968059 
L 98.373794 61.66934 
L 98.459291 61.419564 
L 98.677966 61.286237 
L 99.241918 61.151223 
L 99.483611 61.010302 
L 100.067292 60.482903 
L 100.987207 59.986726 
L 101.085036 59.812896 
L 101.318508 59.677881 
L 102.684816 59.075381 
L 102.944595 59.023063 
L 103.230681 59.094789 
L 103.722289 59.407853 
L 103.987001 59.478736 
L 104.264866 59.373256 
L 104.44737 59.139513 
L 104.588768 58.906613 
L 104.746609 58.80029 
L 104.823885 58.641226 
L 104.692351 57.685579 
L 104.717014 57.388126 
L 104.795934 57.170838 
L 104.933223 57.020213 
L 105.05671 56.956836 
L 105.127183 56.920666 
L 105.1371 56.915577 
L 105.102572 56.986459 
L 105.094638 56.997693 
L 105.083772 57.013077 
L 105.078732 57.020213 
L 105.412499 56.905451 
L 105.676389 56.741324 
L 105.866291 56.498721 
L 105.969874 56.151059 
L 106.061947 55.604252 
L 106.163886 55.350679 
L 106.337346 55.142673 
L 106.472991 55.059554 
L 106.607813 55.0123 
L 107.080513 54.938042 
L 107.427433 54.81231 
L 108.012759 54.713159 
L 108.216636 54.643542 
L 108.360501 54.52203 
L 108.378587 54.373092 
L 108.281581 54.2385 
L 107.617335 53.789578 
L 107.482513 53.734728 
L 107.447985 53.643594 
L 107.405237 53.583259 
L 107.37893 53.517862 
L 107.383863 53.411538 
L 107.544169 53.014934 
L 107.809703 52.686259 
L 108.156624 52.435217 
L 108.543005 52.270247 
L 109.812306 52.012454 
L 109.973435 52.013298 
L 110.844847 52.276154 
L 111.13751 52.330581 
L 111.214786 52.327628 
L 111.442504 52.290499 
L 111.579792 52.301891 
L 111.984259 52.40062 
L 112.392014 52.437749 
L 113.320149 52.682884 
L 113.546223 52.84026 
L 113.68269 52.96346 
L 113.8208 53.049532 
L 114.726739 53.453308 
L 114.942126 53.510689 
L 115.866151 53.560054 
L 116.143195 53.605621 
L 116.410373 53.6976 
L 116.662753 53.826707 
L 116.898692 53.984926 
L 117.059821 54.173524 
L 117.167514 54.381952 
L 117.307269 54.543125 
L 117.564582 54.596287 
L 117.681318 54.576879 
L 117.755306 54.534687 
L 117.81203 54.466758 
L 117.878619 54.367185 
L 118.138399 54.072264 
L 118.445037 53.871852 
L 118.794424 53.783671 
L 119.17916 53.821644 
L 119.570473 54.021211 
L 119.866424 54.336807 
L 120.658094 55.703825 
L 121.334671 57.350575 
L 121.516352 57.665327 
L 121.72845 57.920166 
L 122.721531 58.803665 
L 122.804477 58.916727 
L 122.924586 59.080444 
L 123.628292 60.609479 
L 123.774624 61.104812 
L 123.869986 61.278643 
L 123.996587 61.431377 
L 124.055712 61.482963 
L 124.144563 61.560485 
L 125.17957 62.171424 
L 125.420441 62.477737 
L 125.778871 63.186561 
L 126.010699 63.467559 
L 126.074822 63.569664 
L 126.118393 63.672612 
L 126.217043 63.995802 
L 126.287742 64.123222 
L 126.760442 64.675936 
L 127.224921 65.092792 
L 129.693647 66.366144 
L 129.991242 66.469936 
L 130.747562 66.939954 
L 130.936642 67.136568 
L 131.250679 67.599835 
L 131.49566 68.069009 
L 131.609108 68.20318 
L 131.734066 68.29347 
L 132.004532 68.44283 
L 132.120446 68.545778 
L 132.180459 68.635225 
L 132.557796 69.46303 
L 132.603833 69.654582 
L 132.61452 69.852884 
L 132.557796 70.650311 
L 132.588213 71.627476 
L 132.526557 72.381867 
L 132.454213 72.747249 
L 131.426605 75.145437 
L 131.347685 75.508288 
L 131.442892 76.472519 
L 131.49566 77.006945 
L 131.549096 77.185838 
L 131.706115 77.525061 
L 131.762017 77.703111 
L 131.772704 77.899726 
L 131.743109 78.087058 
L 131.635415 78.458346 
L 131.626946 78.50775 
L 131.60171 78.654961 
L 131.609108 78.841449 
L 131.951919 80.190747 
L 131.962606 80.36964 
L 131.939587 80.546846 
L 131.719268 81.155254 
L 131.549096 81.84045 
L 131.47593 82.540836 
L 131.493194 82.909594 
L 131.572937 83.24291 
L 131.742286 83.529815 
L 132.021796 83.762714 
L 132.914582 84.242014 
L 133.179294 84.464787 
L 133.393036 84.72047 
L 133.560742 84.991343 
L 133.692276 85.284154 
L 133.840251 85.792989 
L 133.912595 85.960913 
L 134.015356 86.109428 
L 134.162509 86.236848 
L 134.58835 86.477342 
L 134.715773 86.581978 
L 135.024878 86.910231 
L 135.149013 87.003053 
L 135.287746 87.079491 
L 135.596228 87.249454 
L 135.724474 87.36084 
L 135.897934 87.672217 
L 135.951369 88.025785 
L 135.937394 88.753174 
L 135.996584 89.181 
L 136.153603 89.570009 
L 136.402695 89.900794 
L 136.73975 90.158164 
L 137.180056 90.314485 
L 139.252047 91.050102 
L 139.413998 91.077104 
L 140.068379 91.105795 
L 141.919718 91.572437 
L 142.071804 91.631506 
L 142.19265 91.718421 
L 142.211115 91.797392 
L 142.222246 91.844997 
L 142.130172 91.965666 
L 141.959178 92.06102 
L 141.627055 92.193502 
L 141.244785 92.617953 
L 141.21519 93.195982 
L 141.405092 93.80439 
L 142.033166 95.149468 
L 142.207448 95.408526 
L 142.408859 95.608516 
L 142.604516 95.719059 
L 142.833878 95.752812 
L 143.486615 95.697963 
L 143.836823 95.741842 
L 144.522444 95.97221 
L 145.228616 96.427883 
L 145.674187 97.072575 
L 145.834494 97.846375 
L 145.673365 98.683885 
L 145.282052 99.696912 
L 145.21464 100.053012 
L 145.188334 100.743694 
L 145.091327 101.036928 
L 144.89981 101.227449 
L 144.838125 101.288813 
L 144.272529 101.644069 
L 143.531007 101.879922 
L 143.213682 102.087084 
L 143.073927 102.447825 
L 143.166823 102.746544 
L 143.416737 102.907295 
L 143.740639 102.966364 
L 144.045633 102.958769 
L 144.35556 102.899701 
L 144.41064 102.968895 
L 144.463253 103.319088 
L 144.4501 103.758728 
L 144.39091 103.784887 
L 143.934652 104.079387 
L 143.494835 104.435908 
L 142.845387 105.11562 
L 142.707277 105.342613 
L 142.600405 105.672975 
L 142.537927 106.024012 
L 142.53546 106.39066 
L 142.667816 106.661532 
L 143.016381 106.729039 
L 143.405228 107.129018 
L 143.489081 107.14927 
L 143.695425 107.112563 
L 143.76448 107.129018 
L 143.800652 107.210027 
L 143.795719 107.391874 
L 143.818738 107.458537 
L 144.284039 108.121794 
L 144.484628 108.275373 
L 144.487916 108.275373 
L 144.48956 108.275373 
L 144.912935 108.359334 
L 144.761671 108.574935 
L 144.13113 108.974915 
L 143.975756 109.286291 
L 144.238002 109.804408 
L 144.117155 110.166836 
L 144.030836 110.20059 
L 143.780922 110.18962 
L 143.715155 110.206496 
L 143.684737 110.304382 
L 143.702001 110.551626 
L 143.815449 110.780307 
L 143.820382 110.8668 
L 143.751326 110.9284 
L 143.531007 110.978187 
L 143.457019 111.028395 
L 143.334529 111.327958 
L 143.259719 111.697981 
L 143.284381 112.065894 
L 143.457019 112.35744 
L 143.513743 112.513972 
L 143.39043 113.264145 
L 143.364946 113.762853 
L 143.593486 114.845498 
L 143.552382 115.327751 
L 143.360013 115.767391 
L 142.85443 116.439508 
L 142.483669 116.7762 
L 142.380086 116.89729 
L 142.301166 117.056776 
L 142.164699 117.43144 
L 142.095644 117.546624 
L 141.932049 117.630164 
L 141.511141 117.708641 
L 141.326993 117.768975 
L 141.19957 117.871502 
L 140.90033 118.168111 
L 140.809079 118.239837 
L 140.604379 118.228867 
L 140.32487 118.03605 
L 140.167029 118.021705 
L 140.055225 118.116215 
L 139.864501 118.462188 
L 139.751053 118.588342 
L 139.462501 118.705636 
L 138.631372 118.900984 
L 138.41023 118.892546 
L 137.944107 119.1419 
L 137.581567 119.954516 
L 137.091603 120.773883 
L 136.230879 121.042646 
L 135.881492 120.8743 
L 135.601161 120.556595 
L 135.095577 119.6212 
L 135.069271 119.481967 
L 135.144081 118.741921 
L 135.13997 118.520835 
L 135.061872 118.322533 
L 134.764277 118.230555 
L 134.135866 118.117293 
L 133.858337 118.067272 
L 133.731736 118.002718 
L 133.477711 117.833951 
L 133.35522 117.781633 
L 133.208889 117.775726 
L 132.908827 117.819606 
L 132.796201 117.814543 
L 132.536422 117.682482 
L 132.325968 117.515402 
L 132.109759 117.382497 
L 131.845869 117.355495 
L 131.627194 117.466881 
L 131.150384 117.844077 
L 130.910335 117.894707 
L 130.804286 117.806526 
L 130.722077 117.515402 
L 130.592187 117.451692 
L 130.461476 117.507385 
L 130.303635 117.767288 
L 130.202518 117.84914 
L 129.932052 117.860954 
L 129.53745 117.691764 
L 129.280959 117.696827 
L 129.029401 117.843233 
L 128.85183 118.074867 
L 128.698922 118.324221 
L 128.522996 118.521257 
L 128.20567 118.653318 
L 127.945891 118.601844 
L 127.695977 118.487504 
L 127.406602 118.430966 
L 127.237252 118.476534 
L 127.109007 118.566824 
L 127.007068 118.658381 
L 126.919105 118.706902 
L 126.86396 118.707996 
L 126.770307 118.709855 
L 126.66508 118.681164 
L 126.556565 118.636441 
L 124.74633 118.371898 
L 123.884783 118.021705 
L 123.506624 117.988795 
L 123.266574 118.118746 
L 123.05612 118.286248 
L 122.771678 118.365991 
L 122.57931 118.29553 
L 122.48888 118.146593 
L 122.474083 118.000609 
L 122.523408 117.94154 
L 122.38612 117.937743 
L 122.35077 117.984576 
L 122.326107 118.071491 
L 121.931506 118.502693 
L 121.811481 118.561761 
L 121.611714 118.555854 
L 121.499088 118.472314 
L 121.417702 118.374429 
L 121.323162 118.325909 
L 120.742769 118.484128 
L 120.297247 118.704025 
L 120.286745 118.709208 
L 120.141823 118.780737 
L 119.591848 118.903516 
L 119.156142 118.540665 
L 118.294595 118.584967 
L 118.146619 118.720825 
L 118.106337 118.850354 
L 118.023306 118.946552 
L 117.742975 118.979461 
L 117.507036 118.93305 
L 117.329465 118.829258 
L 117.171625 118.707323 
L 116.999809 118.604375 
L 116.770447 118.52843 
L 116.634802 118.529695 
L 116.504091 118.561761 
L 116.296103 118.580748 
L 115.994397 118.545728 
L 115.060507 118.308188 
L 114.514641 118.271059 
L 114.397905 118.227179 
L 114.346935 118.078242 
L 114.381463 117.69092 
L 114.343647 117.52384 
L 114.246641 117.419626 
L 114.115929 117.334399 
L 113.957266 117.288409 
L 113.796138 117.299801 
L 113.643229 117.389248 
L 113.595548 117.507385 
L 113.570886 117.639446 
L 113.47388 117.768975 
L 113.145045 117.935633 
L 112.914039 117.885425 
L 112.699474 117.746192 
L 112.415032 117.649572 
L 112.147032 117.695139 
L 111.533755 118.00736 
L 110.931988 118.424216 
L 110.815252 118.470627 
L 110.64919 118.449531 
L 110.525877 118.373585 
L 110.442024 118.292155 
L 110.382834 118.254182 
L 110.153472 118.320002 
L 109.710367 118.642348 
L 109.434146 118.766392 
L 109.092158 118.808162 
L 108.015225 118.805631 
L 107.53165 118.954746 
L 106.820733 119.173966 
L 105.860536 119.316997 
L 105.5391 119.42332 
L 105.013787 119.707694 
L 103.930828 120.637622 
L 103.738731 120.802574 
L 103.467442 120.962059 
L 102.880473 121.131249 
L 102.612472 121.256559 
L 102.366669 121.509288 
L 102.293503 121.772988 
L 102.292268 121.844782 
L 102.28857 122.059893 
L 102.249932 122.380973 
L 102.135662 122.644251 
L 101.804361 123.118488 
L 101.692558 123.373749 
L 101.639122 123.748413 
L 101.646521 123.992705 
L 101.589797 124.201555 
L 101.35468 124.472849 
L 100.438876 125.191377 
L 100.047562 125.582074 
L 99.754078 126.103988 
L 99.480323 126.994237 
L 99.352077 127.279033 
L 99.068457 127.634289 
L 98.992003 127.772256 
L 98.952543 127.938492 
L 98.931169 128.27434 
L 98.867046 128.427919 
L 98.490531 128.752796 
L 96.89075 129.536722 
L 96.381056 129.931638 
L 96.360504 130.276346 
L 96.70167 130.612194 
L 97.262333 130.980951 
L 96.972959 131.06196 
L 96.22486 131.49738 
L 95.9174 131.606236 
L 94.947338 131.687666 
L 93.65995 131.577545 
L 93.038453 131.648006 
L 92.739213 132.033218 
L 92.760587 132.20747 
L 92.931581 132.483405 
L 92.993238 132.631921 
L 93.004747 132.762294 
L 92.995411 132.954292 
L 92.993238 132.998991 
L 93.060649 134.233526 
L 92.956244 135.226724 
L 92.97433 136.374344 
L 92.989978 136.415671 
L 93.830944 138.636674 
L 94.146625 139.185591 
L 94.868417 140.037868 
L 95.12162 140.552609 
L 95.280283 140.767366 
L 95.550749 140.931493 
L 95.549789 140.946086 
L 95.544172 141.031487 
L 95.494847 141.115871 
L 95.410994 141.185066 
L 95.29508 141.243713 
L 95.211227 141.301938 
L 95.185743 141.366069 
L 95.215338 141.435264 
L 95.350982 141.564793 
L 95.371534 141.624706 
L 95.350982 141.68504 
L 95.170945 141.881233 
L 95.147927 142.050844 
L 95.19643 142.233535 
L 95.29508 142.414538 
L 95.376467 142.792578 
L 95.442234 143.418284 
L 95.544172 143.756241 
L 95.636246 143.926275 
L 95.715166 144.027113 
L 95.776001 144.137656 
L 95.812995 144.337224 
L 95.795731 144.496287 
L 95.632136 145.01356 
L 95.630912 145.014649 
L 95.432369 145.191188 
L 95.356737 145.445605 
L 95.336185 145.791579 
L 95.377289 146.140084 
L 95.490737 146.399987 
L 95.641745 146.514939 
L 95.735719 146.586475 
L 96.640014 146.889413 
L 97.116002 147.238762 
L 98.329402 148.473297 
L 98.725647 148.710416 
L 98.837451 148.818427 
L 98.896641 148.952597 
L 98.922948 149.226001 
L 98.965697 149.353421 
L 99.181905 149.588852 
L 99.694065 149.864787 
L 99.876568 150.075746 
L 99.903174 150.252561 
L 99.925072 150.398092 
L 99.787783 150.62846 
L 99.37674 150.990467 
L 99.208212 151.298468 
L 99.12847 151.609 
L 98.765107 154.28228 
L 98.88842 154.931192 
L 99.70393 156.201168 
L 99.923242 156.469078 
L 100.019611 156.586802 
L 100.27528 157.153862 
L 100.433943 157.96479 
L 101.163956 159.384126 
L 101.834779 160.33682 
L 102.290214 161.025392 
L 102.470251 161.674304 
L 102.52862 162.606745 
L 102.286784 162.978951 
" clip-path="url(#p4c2d2b0bc0)" style="fill: #f5f5f5; stroke: #000000"/>
    <path d="M 22.080915 199.986243 
L 21.574717 199.582928 
L 21.499628 199.45602 
L 21.538467 199.337085 
L 21.63168 199.245393 
L 21.746902 199.18958 
L 21.849177 199.184264 
L 22.02654 199.31981 
L 22.126227 199.559673 
L 22.14953 199.812824 
L 22.080915 199.986243 
" clip-path="url(#p4c2d2b0bc0)" style="fill: #f5f5f5; stroke: #000000"/>
    <path d="M 51.143939 197.330478 
L 51.219027 197.672 
L 50.869479 197.809539 
L 50.65716 197.706551 
L 51.143939 197.330478 
" clip-path="url(#p4c2d2b0bc0)" style="fill: #f5f5f5; stroke: #000000"/>
    <path d="M 50.913496 196.060069 
L 50.852649 196.187642 
L 50.815104 196.216877 
L 50.79439 196.149104 
L 50.771087 195.987645 
L 50.817694 195.993625 
L 50.848765 196.018874 
L 50.874657 196.046781 
L 50.913496 196.060069 
" clip-path="url(#p4c2d2b0bc0)" style="fill: #f5f5f5; stroke: #000000"/>
    <path d="M 43.970425 245.7854 
L 44.168503 245.932906 
L 44.12578 246.012638 
L 43.962657 246.076425 
L 43.484941 246.404658 
L 43.127624 246.467115 
L 42.796201 246.370771 
L 42.548927 246.119613 
L 42.835039 246.188051 
L 42.987805 246.037887 
L 43.139276 245.844535 
L 43.427977 245.7854 
L 43.310167 245.7854 
L 43.834489 245.753507 
L 43.970425 245.7854 
" clip-path="url(#p4c2d2b0bc0)" style="fill: #f5f5f5; stroke: #000000"/>
    <path d="M 50.724481 246.737542 
L 50.720597 246.88837 
L 50.69341 246.984049 
L 50.627384 247.056473 
L 50.506984 247.132884 
L 50.317969 246.849832 
L 50.116371 246.157726 
L 49.577444 245.645203 
L 49.621461 245.423945 
L 49.79494 245.230593 
L 49.952885 245.004019 
L 49.986545 244.839238 
L 49.947706 244.540905 
L 49.952885 244.437252 
L 50.03833 244.335593 
L 50.152257 244.282438 
L 50.248059 244.210014 
L 50.289487 244.051213 
L 50.31279 243.752215 
L 50.378816 243.451888 
L 50.479797 243.352887 
L 50.853943 244.184101 
L 50.850411 244.982273 
L 51.101033 245.579703 
L 51.234563 246.055827 
L 51.216438 246.283065 
L 51.159475 246.464457 
L 51.046842 246.548177 
L 50.903139 246.569439 
L 50.778855 246.606647 
L 50.724481 246.737542 
" clip-path="url(#p4c2d2b0bc0)" style="fill: #f5f5f5; stroke: #000000"/>
    <path d="M 46.478113 234.494578 
L 46.695609 234.653379 
L 47.120246 234.745736 
L 47.248414 234.940417 
L 47.03739 234.920484 
L 46.840607 234.940417 
L 46.665833 235.000217 
L 46.532487 235.097225 
L 46.300749 235.487915 
L 46.125975 235.673958 
L 46.044413 235.547715 
L 46.03794 234.722481 
L 46.16093 234.343086 
L 46.478113 234.494578 
" clip-path="url(#p4c2d2b0bc0)" style="fill: #f5f5f5; stroke: #000000"/>
    <path d="M 40.583687 228.322599 
L 41.073055 228.799666 
L 41.234884 228.899332 
L 41.236178 229.48271 
L 41.398006 230.082035 
L 41.641396 230.620231 
L 41.896437 231.01823 
L 41.618092 231.213575 
L 41.255598 231.00029 
L 40.93712 230.612257 
L 40.525429 229.667424 
L 40.474939 229.507294 
L 40.490474 228.944514 
L 40.459403 228.672094 
L 40.357128 228.443527 
L 40.397262 228.406982 
L 40.416681 228.395022 
L 40.4361 228.377083 
L 40.474939 228.322599 
L 40.583687 228.322599 
" clip-path="url(#p4c2d2b0bc0)" style="fill: #f5f5f5; stroke: #000000"/>
    <path d="M 42.005185 228.108649 
L 42.055675 228.32127 
L 42.055675 228.634221 
L 42.001301 228.933883 
L 41.896437 229.112617 
L 41.757912 229.140524 
L 41.616798 229.100657 
L 41.508049 229.024911 
L 41.462737 228.94983 
L 41.422604 228.848835 
L 41.330686 228.78372 
L 41.224527 228.733222 
L 41.135197 228.677409 
L 40.737748 228.010312 
L 41.095064 227.817624 
L 41.690591 227.912639 
L 42.005185 228.108649 
" clip-path="url(#p4c2d2b0bc0)" style="fill: #f5f5f5; stroke: #000000"/>
    <path d="M 32.718844 220.800478 
L 32.716255 220.789182 
L 33.45678 221.219075 
L 33.702758 221.477542 
L 33.829632 221.946636 
L 33.852935 223.72069 
L 33.720883 224.085467 
L 33.477494 224.066198 
L 33.304014 223.826336 
L 33.200444 223.504083 
L 33.148659 223.112063 
L 33.073571 222.871536 
L 33.080044 222.737319 
L 33.156427 222.622371 
L 33.259997 222.609747 
L 33.35321 222.576525 
L 33.394638 222.403106 
L 33.382986 222.262909 
L 33.340264 222.112746 
L 33.257408 221.994476 
L 33.122767 221.946636 
L 32.946698 221.910756 
L 32.887145 221.819064 
L 32.866431 221.695478 
L 32.660586 221.351298 
L 32.567373 221.067583 
L 32.522061 220.765263 
L 32.527239 220.497493 
L 32.598444 220.563273 
L 32.651523 220.633704 
L 32.718844 220.800478 
" clip-path="url(#p4c2d2b0bc0)" style="fill: #f5f5f5; stroke: #000000"/>
    <path d="M 30.779496 224.085467 
L 30.831281 224.009057 
L 30.928378 223.930653 
L 30.986636 223.862216 
L 31.11351 224.115367 
L 31.116099 224.365196 
L 30.989226 224.55589 
L 30.477849 224.725323 
L 30.409234 224.955219 
L 30.453251 225.53461 
L 29.883616 225.25023 
L 29.591031 225.242257 
L 29.466747 225.595738 
L 29.409784 226.00902 
L 29.259607 226.254198 
L 29.036932 226.306689 
L 28.762472 226.147223 
L 28.679616 225.915334 
L 28.59676 224.866184 
L 28.537207 224.743927 
L 28.462119 224.625657 
L 28.399977 224.487453 
L 28.379263 224.308719 
L 28.446583 224.25357 
L 28.574751 224.197093 
L 28.658902 224.085467 
L 28.59676 223.862216 
L 28.506136 223.80308 
L 28.223908 223.715374 
L 28.16306 223.68481 
L 28.234265 223.521358 
L 28.376673 223.391128 
L 28.480243 223.2702 
L 28.438815 223.132661 
L 28.350781 222.941967 
L 28.415512 222.775857 
L 28.535912 222.619049 
L 28.59676 222.46357 
L 28.581224 222.281514 
L 28.512609 221.961254 
L 28.485422 221.381863 
L 28.497074 221.27821 
L 28.535912 221.155953 
L 28.658902 220.899479 
L 28.705508 220.730712 
L 28.736579 220.38919 
L 28.715865 220.035043 
L 28.59676 219.381899 
L 28.669259 219.39253 
L 28.718454 219.41645 
L 28.823319 219.493525 
L 28.93854 219.443028 
L 29.075771 219.484223 
L 29.223358 219.589204 
L 29.370945 219.730066 
L 29.460274 219.959297 
L 29.584558 220.730712 
L 29.681655 220.730712 
L 29.848661 220.57324 
L 30.064864 220.702805 
L 30.310842 220.955292 
L 30.571062 221.166584 
L 30.687578 220.973897 
L 30.842933 220.892171 
L 30.994404 220.947319 
L 31.105742 221.166584 
L 31.095385 221.440333 
L 30.99052 221.700794 
L 30.779496 222.068229 
L 30.765256 222.201781 
L 30.80021 222.496792 
L 30.779496 222.625693 
L 30.710881 222.694795 
L 30.613784 222.74795 
L 30.517982 222.823696 
L 30.453251 222.960571 
L 30.442894 223.248273 
L 30.507625 223.562553 
L 30.625436 223.857564 
L 30.779496 224.085467 
" clip-path="url(#p4c2d2b0bc0)" style="fill: #f5f5f5; stroke: #000000"/>
    <path d="M 34.262036 219.716777 
L 34.005701 220.83968 
L 33.996638 221.044327 
L 33.468431 220.852304 
L 33.340264 220.780545 
L 33.188793 220.572575 
L 33.262586 220.472909 
L 33.612135 220.385868 
L 33.542225 220.116769 
L 33.693696 219.875578 
L 33.917666 219.637044 
L 34.047129 219.381899 
L 34.175296 219.415121 
L 34.233554 219.484223 
L 34.254268 219.585218 
L 34.262036 219.716777 
" clip-path="url(#p4c2d2b0bc0)" style="fill: #f5f5f5; stroke: #000000"/>
    <path d="M 28.823319 203.814079 
L 29.017513 204.012747 
L 29.168984 204.271878 
L 29.254429 204.584829 
L 29.258313 204.93964 
L 28.9243 205.28382 
L 29.040816 205.384815 
L 28.8039 205.505743 
L 28.481538 205.597435 
L 28.164355 205.583482 
L 27.945564 205.384815 
L 27.937796 205.160899 
L 28.071142 203.843315 
L 28.068553 203.733682 
L 28.109981 203.669232 
L 28.270514 203.602123 
L 28.467297 203.572223 
L 28.609706 203.625379 
L 28.823319 203.814079 
" clip-path="url(#p4c2d2b0bc0)" style="fill: #f5f5f5; stroke: #000000"/>
    <path d="M 57.052605 196.608896 
L 57.143229 196.631487 
L 57.303762 196.802913 
L 57.37885 197.024836 
L 57.210549 197.20357 
L 57.078498 197.66602 
L 57.028007 198.186276 
L 56.905018 198.610853 
L 56.445426 198.83344 
L 56.407882 198.941744 
L 56.394936 199.069981 
L 56.348329 199.176956 
L 56.243465 199.232768 
L 56.120476 199.236755 
L 55.993602 199.224795 
L 55.241426 199.299877 
L 55.087365 199.35569 
L 54.994152 199.040745 
L 54.929421 198.435441 
L 54.763709 198.118503 
L 55.000625 197.82615 
L 54.976027 197.525823 
L 54.841387 197.226825 
L 54.763709 196.942445 
L 54.922948 196.751087 
L 55.291916 196.701254 
L 55.693249 196.729824 
L 56.631852 196.972345 
L 56.928321 196.919854 
L 57.052605 196.608896 
" clip-path="url(#p4c2d2b0bc0)" style="fill: #f5f5f5; stroke: #000000"/>
    <path d="M 30.668159 193.638851 
L 30.76655 193.985689 
L 30.748425 194.207612 
L 30.453251 194.652122 
L 30.243522 194.297976 
L 30.31861 194.061435 
L 30.516688 193.84217 
L 30.668159 193.536528 
L 30.668159 193.638851 
" clip-path="url(#p4c2d2b0bc0)" style="fill: #f5f5f5; stroke: #000000"/>
    <path d="M 56.4998 193.193012 
L 57.005999 193.519252 
L 57.197603 194.061435 
L 57.369788 195.321212 
L 57.187246 195.18168 
L 56.796269 194.954442 
L 55.923693 194.585013 
L 55.739856 194.42887 
L 55.83048 194.236847 
L 55.776105 194.053462 
L 55.467985 193.699315 
L 55.470574 193.591012 
L 55.675125 193.252812 
L 55.739856 193.091353 
L 55.902979 193.16577 
L 56.060923 193.180388 
L 56.352213 193.157797 
L 56.4998 193.193012 
" clip-path="url(#p4c2d2b0bc0)" style="fill: #f5f5f5; stroke: #000000"/>
    <path d="M 96.727666 161.96568 
L 97.132884 161.931794 
L 97.393103 162.348397 
L 97.428058 162.939084 
L 97.163955 163.42479 
L 97.163955 163.536415 
L 97.389219 163.536415 
L 97.253284 163.752358 
L 97.211856 163.910495 
L 97.271408 164.326434 
L 97.163955 164.326434 
L 97.055206 164.237399 
L 96.932217 163.972952 
L 96.846772 163.871293 
L 96.696595 163.799533 
L 96.185219 163.648041 
L 96.310797 163.470636 
L 96.383296 163.390903 
L 96.410483 163.303197 
L 96.402715 163.099879 
L 96.356109 162.946393 
L 96.199459 162.579622 
L 96.185219 162.420821 
L 96.499812 161.240777 
L 96.585257 161.11852 
L 96.727666 161.195595 
L 96.794987 161.376322 
L 96.833825 161.559708 
L 96.820879 161.753724 
L 96.727666 161.96568 
" clip-path="url(#p4c2d2b0bc0)" style="fill: #f5f5f5; stroke: #000000"/>
    <path d="M 94.11123 156.492027 
L 94.219979 156.603653 
L 94.386985 156.906637 
L 94.627785 157.190353 
L 94.80256 157.462773 
L 94.771489 157.728549 
L 94.553992 157.82755 
L 94.291183 157.662105 
L 93.784985 157.150486 
L 93.734494 157.341181 
L 93.765565 157.529217 
L 93.737084 157.672071 
L 93.514408 157.728549 
L 93.307268 157.704629 
L 92.698795 157.505297 
L 92.698795 157.607621 
L 92.745401 157.664098 
L 92.8179 157.830873 
L 92.720803 157.749811 
L 92.627591 157.690011 
L 92.517547 157.646158 
L 92.372549 157.607621 
L 92.372549 157.505297 
L 92.432102 157.283374 
L 92.433397 156.269439 
L 92.281926 156.105323 
L 91.831396 155.042884 
L 92.048893 155.042884 
L 91.984162 154.9286 
L 91.916842 154.838237 
L 91.831396 154.763819 
L 91.722648 154.69804 
L 91.989341 154.708006 
L 92.417861 154.82229 
L 92.698795 154.809666 
L 93.206288 155.17843 
L 93.404365 155.37909 
L 93.579139 155.599684 
L 93.768155 156.023597 
L 93.902796 156.244191 
L 94.11123 156.391696 
L 94.11123 156.492027 
" clip-path="url(#p4c2d2b0bc0)" style="fill: #f5f5f5; stroke: #000000"/>
    <path d="M 22.051138 199.240742 
L 21.727482 198.964999 
L 21.78574 198.650719 
L 22.080915 198.460025 
L 22.453767 198.553047 
L 22.519792 198.654706 
L 22.531444 198.786265 
L 22.500373 198.918488 
L 22.445999 199.020812 
L 22.321715 199.028785 
L 22.16636 198.965664 
L 22.049844 198.98759 
L 22.051138 199.240742 
" clip-path="url(#p4c2d2b0bc0)" style="fill: #f5f5f5; stroke: #000000"/>
    <path d="M 28.708097 206.111712 
L 28.877693 206.227324 
L 29.065414 206.54094 
L 29.003272 206.871831 
L 28.796132 207.25189 
L 28.42328 208.190079 
L 28.280871 208.167488 
L 28.14623 207.852543 
L 28.11257 207.516337 
L 28.187658 207.168171 
L 28.190248 206.733627 
L 28.131989 206.233304 
L 28.270514 205.973508 
L 28.563099 206.031979 
L 28.708097 206.111712 
" clip-path="url(#p4c2d2b0bc0)" style="fill: #f5f5f5; stroke: #000000"/>
   </g>
  </g>
 </g>
 <defs>
  <clipPath id="p4c2d2b0bc0">
   <rect x="7.2" y="7.2" width="145.236136" height="266.112"/>
  </clipPath>
 </defs>
</svg>
