<?xml version="1.0" encoding="utf-8" standalone="no"?>
<!DOCTYPE svg PUBLIC "-//W3C//DTD SVG 1.1//EN"
  "http://www.w3.org/Graphics/SVG/1.1/DTD/svg11.dtd">
<svg xmlns:xlink="http://www.w3.org/1999/xlink" width="371.52pt" height="164.782032pt" viewBox="0 0 371.52 164.782032" xmlns="http://www.w3.org/2000/svg" version="1.1">
 <metadata>
  <rdf:RDF xmlns:dc="http://purl.org/dc/elements/1.1/" xmlns:cc="http://creativecommons.org/ns#" xmlns:rdf="http://www.w3.org/1999/02/22-rdf-syntax-ns#">
   <cc:Work>
    <dc:type rdf:resource="http://purl.org/dc/dcmitype/StillImage"/>
    <dc:date>2024-03-04T13:11:13.457175</dc:date>
    <dc:format>image/svg+xml</dc:format>
    <dc:creator>
     <cc:Agent>
      <dc:title>Matplotlib v3.8.0, https://matplotlib.org/</dc:title>
     </cc:Agent>
    </dc:creator>
   </cc:Work>
  </rdf:RDF>
 </metadata>
 <defs>
  <style type="text/css">*{stroke-linejoin: round; stroke-linecap: butt}</style>
 </defs>
 <g id="figure_1">
  <g id="patch_1">
   <path d="M 0 164.782032 
L 371.52 164.782032 
L 371.52 0 
L 0 0 
z
" style="fill: #ffffff"/>
  </g>
  <g id="axes_1">
   <g id="PatchCollection_1">
    <path d="M 65.012393 118.62141 
L 65.108557 120.661213 
L 63.636893 126.194256 
L 63.161668 129.689898 
L 62.778422 130.558637 
L 62.466716 130.96198 
L 62.08347 131.303271 
L 60.18257 133.795726 
L 57.234131 136.319207 
L 56.319451 136.815629 
L 55.869776 136.836313 
L 55.5223 137.032814 
L 54.863117 138.07737 
L 54.617839 141.03522 
L 54.255033 141.800538 
L 53.299474 143.1657 
L 52.957107 143.920676 
L 52.977547 144.603257 
L 53.427222 146.340736 
L 53.325023 147.28187 
L 52.456333 148.657374 
L 51.122637 149.495087 
L 49.441465 149.929457 
L 47.540565 150.115615 
L 46.329508 150.415537 
L 45.925822 150.746486 
L 45.833843 150.560327 
L 45.517027 149.26756 
L 45.517027 148.678058 
L 45.864503 146.909553 
L 45.925822 146.16492 
L 45.578346 144.489494 
L 44.873174 142.772699 
L 43.912504 141.138642 
L 42.788316 139.77348 
L 41.296212 138.501397 
L 39.988066 137.93258 
L 38.618601 138.004975 
L 36.998748 138.677213 
L 35.670162 139.804506 
L 33.687503 142.545172 
L 32.435567 143.31049 
L 29.390039 142.772699 
L 26.661328 140.40435 
L 23.432727 134.810516 
L 25.243338 134.313768 
L 33.234166 131.105263 
L 34.972352 130.901678 
L 36.219661 130.258348 
L 38.392394 127.147564 
L 39.325864 126.121494 
L 42.335502 124.720827 
L 48.918077 122.684973 
L 58.606855 120.836418 
L 59.701269 120.250093 
L 60.538173 119.134445 
L 62.50168 118.759848 
L 64.980204 118.629553 
L 65.012393 118.62141 
" clip-path="url(#p3cb66b517e)" style="fill: #f5f5f5; stroke: #000000"/>
    <path d="M 111.386348 96.789531 
L 114.776019 94.850785 
L 116.852185 92.798645 
L 121.640244 85.485859 
L 122.074791 83.946754 
L 122.992167 83.059122 
L 127.426151 81.414152 
L 128.882687 80.160067 
L 129.26895 78.401089 
L 129.872487 69.443334 
L 130.717439 67.163178 
L 131.996937 65.127325 
L 133.614416 63.710371 
L 135.594017 63.042611 
L 140.124567 62.342277 
L 142.015649 61.316207 
L 142.812317 61.120765 
L 146.433538 61.658231 
L 147.544046 61.348781 
L 150.473212 59.60609 
L 157.023598 57.708675 
L 159.011247 57.488803 
L 165.521397 57.928547 
L 167.549281 57.488803 
L 172.892594 55.062065 
L 175.306742 54.768903 
L 177.865738 55.518097 
L 179.024529 55.452949 
L 181.728374 52.716762 
L 183.547032 53.514817 
L 186.476197 53.596251 
L 191.843652 52.716762 
L 203.455701 48.938218 
L 208.115005 48.669486 
L 218.447556 50.501754 
L 222.406758 52.439886 
L 225.06232 52.716762 
L 227.235053 52.277018 
L 231.427622 50.957785 
L 232.256479 50.843777 
L 233.560119 50.664622 
L 238.010197 50.599475 
L 241.985493 50.037579 
L 244.029472 49.011509 
L 248.391031 45.908868 
L 251.545517 44.996806 
L 254.828758 43.148251 
L 255.923171 42.960953 
L 257.894725 42.928379 
L 258.932808 42.464204 
L 260.719277 43.775294 
L 262.819586 44.622209 
L 265.096931 45.10267 
L 267.406466 45.257395 
L 268.854954 45.762287 
L 272.500317 49.231381 
L 276.580226 47.847001 
L 284.168696 44.247612 
L 286.767928 43.539135 
L 288.642916 42.211759 
L 289.447632 41.837161 
L 290.542045 41.829018 
L 292.223901 42.35834 
L 292.940098 42.464204 
L 297.269469 41.560285 
L 301.502275 39.654727 
L 311.633647 32.407088 
L 313.854662 31.446166 
L 315.520424 31.837049 
L 317.041337 32.96084 
L 323.994081 36.307784 
L 325.901258 36.820819 
L 328.347594 37.048834 
L 330.753694 36.820819 
L 332.49188 35.96576 
L 335.533706 33.791469 
L 336.209667 33.522736 
L 337.489165 33.807756 
L 337.971995 34.451085 
L 338.237551 35.330574 
L 338.905465 36.307784 
L 340.997726 37.570013 
L 345.479993 38.791525 
L 347.371076 40.070041 
L 348.087273 42.07332 
L 347.097472 43.783437 
L 339.871124 49.215094 
L 335.340574 53.791693 
L 326.271427 60.876463 
L 319.881984 67.114318 
L 319.206022 68.140388 
L 318.031137 68.238109 
L 311.102534 69.785358 
L 304.737232 74.41896 
L 301.904632 75.827771 
L 286.872541 76.918988 
L 284.715903 77.440166 
L 283.557112 77.993919 
L 280.660135 80.160067 
L 279.935891 80.47766 
L 279.090939 80.664958 
L 276.918207 80.778966 
L 275.904265 81.161707 
L 272.033582 85.60801 
L 268.444549 91.772575 
L 264.944035 94.867072 
L 260.76756 96.05601 
L 234.630391 99.427384 
L 231.870216 100.583748 
L 230.284926 101.243365 
L 222.929823 106.324855 
L 212.99963 113.173466 
L 211.156831 113.759792 
L 205.338736 112.864016 
L 203.383276 113.018741 
L 202.280816 113.605067 
L 200.124177 115.421048 
L 198.965386 115.811932 
L 194.861336 115.811932 
L 192.785169 116.333111 
L 186.444008 119.908069 
L 184.625351 119.95693 
L 179.603924 119.224022 
L 177.986445 119.566046 
L 175.966609 121.178442 
L 173.938725 122.326663 
L 167.597564 124.688253 
L 156.798278 128.7111 
L 153.241434 130.901678 
L 148.147583 135.160683 
L 145.419597 136.349622 
L 144.212523 137.766576 
L 142.377771 140.535336 
L 141.299452 141.724275 
L 140.221132 142.579333 
L 138.788738 143.092368 
L 134.16967 143.434392 
L 132.254446 143.996287 
L 130.580637 145.063074 
L 128.882687 146.740618 
L 125.438503 149.199929 
L 124.381965 143.088326 
L 123.924029 141.604038 
L 121.696092 138.087712 
L 121.599003 137.384447 
L 121.798291 135.812442 
L 121.660323 135.17123 
L 121.113559 134.509333 
L 119.018481 133.195882 
L 116.657686 131.075744 
L 115.983173 129.948451 
L 115.40575 128.210972 
L 114.807886 124.756699 
L 115.186022 121.798848 
L 116.821205 119.792474 
L 120.06091 119.213314 
L 122.084448 119.233999 
L 122.758961 119.420157 
L 123.443694 119.926922 
L 124.624091 121.271399 
L 125.247504 121.654058 
L 126.657849 121.736796 
L 127.51121 121.157636 
L 128.390121 120.278554 
L 129.923104 119.451184 
L 131.006413 119.358104 
L 133.438747 119.513236 
L 134.241008 119.14092 
L 134.562935 118.179101 
L 134.440687 117.68426 
L 134.297218 117.103519 
L 133.878202 116.048621 
L 133.684024 115.117829 
L 135.365196 108.82981 
L 135.400966 106.657962 
L 134.573155 104.672272 
L 133.13215 103.069241 
L 131.343669 101.776474 
L 129.483649 100.721576 
L 128.768257 100.070022 
L 128.395231 99.449494 
L 127.930226 99.211624 
L 126.908237 99.666678 
L 126.56587 100.235496 
L 126.126415 102.179817 
L 125.804489 102.914109 
L 124.470793 104.093112 
L 119.784973 106.151197 
L 117.26066 107.795597 
L 115.972954 108.323046 
L 114.189583 108.447151 
L 112.723028 108.043808 
L 111.563071 107.144042 
L 110.740369 105.87196 
L 110.239595 104.341324 
L 110.362234 102.624529 
L 111.680599 99.221967 
L 111.386348 96.789531 
" clip-path="url(#p3cb66b517e)" style="fill: #f5f5f5; stroke: #000000"/>
    <path d="M 175.644722 20.175681 
L 176.723041 18.43299 
L 179.185472 15.835241 
L 181.889317 14.035547 
L 183.683833 14.817315 
L 182.838882 18.009533 
L 179.024529 27.423319 
L 178.348567 30.468956 
L 177.914021 31.275154 
L 176.996645 31.983631 
L 176.063174 32.276794 
L 175.644722 31.837049 
L 174.992903 31.462452 
L 171.806228 30.493386 
L 170.52673 29.760479 
L 169.488646 28.579684 
L 169.150666 27.618761 
L 169.416222 26.641551 
L 170.188749 25.314175 
L 171.419964 24.117093 
L 174.920478 21.454197 
L 175.644722 20.175681 
" clip-path="url(#p3cb66b517e)" style="fill: #f5f5f5; stroke: #000000"/>
   </g>
  </g>
 </g>
 <defs>
  <clipPath id="p3cb66b517e">
   <rect x="7.2" y="7.2" width="357.12" height="150.382032"/>
  </clipPath>
 </defs>
</svg>
