<?xml version="1.0" encoding="utf-8" standalone="no"?>
<!DOCTYPE svg PUBLIC "-//W3C//DTD SVG 1.1//EN"
  "http://www.w3.org/Graphics/SVG/1.1/DTD/svg11.dtd">
<svg xmlns:xlink="http://www.w3.org/1999/xlink" width="371.52pt" height="261.719463pt" viewBox="0 0 371.52 261.719463" xmlns="http://www.w3.org/2000/svg" version="1.1">
 <metadata>
  <rdf:RDF xmlns:dc="http://purl.org/dc/elements/1.1/" xmlns:cc="http://creativecommons.org/ns#" xmlns:rdf="http://www.w3.org/1999/02/22-rdf-syntax-ns#">
   <cc:Work>
    <dc:type rdf:resource="http://purl.org/dc/dcmitype/StillImage"/>
    <dc:date>2024-03-04T13:11:13.541709</dc:date>
    <dc:format>image/svg+xml</dc:format>
    <dc:creator>
     <cc:Agent>
      <dc:title>Matplotlib v3.8.0, https://matplotlib.org/</dc:title>
     </cc:Agent>
    </dc:creator>
   </cc:Work>
  </rdf:RDF>
 </metadata>
 <defs>
  <style type="text/css">*{stroke-linejoin: round; stroke-linecap: butt}</style>
 </defs>
 <g id="figure_1">
  <g id="patch_1">
   <path d="M 0 261.719463 
L 371.52 261.719463 
L 371.52 0 
L 0 0 
z
" style="fill: #ffffff"/>
  </g>
  <g id="axes_1">
   <g id="PatchCollection_1">
    <path d="M 225.243552 229.234444 
L 224.688574 228.329311 
L 224.376842 227.665648 
L 224.317802 226.880491 
L 224.407543 226.704324 
L 224.719275 226.383883 
L 224.787761 226.178862 
L 224.77123 225.657955 
L 224.787761 225.493937 
L 224.938904 224.796864 
L 224.934181 224.506796 
L 224.787761 224.291143 
L 224.934181 223.632037 
L 224.920011 223.155172 
L 224.837355 222.713236 
L 224.733444 221.660791 
L 224.589386 221.141403 
L 224.386288 220.647832 
L 224.150127 220.240826 
L 223.784078 219.771555 
L 223.384967 219.387329 
L 222.922092 219.129153 
L 222.362391 219.036514 
L 222.048297 218.889202 
L 222.312797 218.541425 
L 222.778034 218.142012 
L 223.056703 217.832202 
L 223.070873 217.557321 
L 222.990578 216.966555 
L 223.056703 216.611184 
L 223.200761 216.471465 
L 223.415668 216.383382 
L 223.609319 216.23607 
L 223.696699 215.918666 
L 223.706145 215.64986 
L 223.746293 215.361311 
L 223.817141 215.098579 
L 223.930498 214.896595 
L 224.171382 214.56856 
L 224.216252 214.387837 
L 224.178467 214.237488 
L 224.119427 213.352098 
L 223.776993 211.525128 
L 223.444007 210.951067 
L 223.368435 210.665555 
L 223.358989 209.983668 
L 223.318842 209.676895 
L 223.226739 209.368603 
L 223.132275 209.195474 
L 222.990578 209.017788 
L 222.808735 208.86592 
L 222.589105 208.767206 
L 222.650507 208.563703 
L 222.685931 208.481695 
L 222.759141 208.364756 
L 222.433239 207.523408 
L 222.565489 206.082182 
L 223.056703 203.71608 
L 222.91973 203.275663 
L 222.881944 202.921811 
L 222.981132 202.610482 
L 223.122828 202.387236 
L 223.245632 202.104761 
L 223.335373 201.776727 
L 223.368435 201.415281 
L 223.33065 201.046242 
L 223.245632 200.774399 
L 223.056703 200.321832 
L 222.870136 199.322541 
L 221.942025 199.191935 
L 220.806092 198.985395 
L 218.463377 199.027918 
L 215.754614 199.078034 
L 210.880257 199.170674 
L 207.685002 199.229902 
L 204.05285 199.298243 
L 203.297136 198.862382 
L 202.827176 198.007365 
L 202.163564 196.204693 
L 201.681797 195.401312 
L 199.261149 192.354842 
L 198.205511 190.691129 
L 197.348247 188.810245 
L 196.670466 187.876258 
L 195.810841 187.49355 
L 193.935725 187.14881 
L 193.097355 186.641572 
L 191.597734 185.337026 
L 188.308015 184.235984 
L 188.06477 184.219278 
L 187.849863 184.336217 
L 187.583002 184.7698 
L 187.422412 184.946726 
L 187.205145 184.993805 
L 186.898136 184.745501 
L 186.739908 184.258764 
L 186.631274 183.702928 
L 186.468323 183.245046 
L 186.085743 182.822094 
L 185.748033 182.761347 
L 185.02302 183.05597 
L 184.834091 183.04458 
L 184.640439 182.945107 
L 184.456234 182.793239 
L 184.307453 182.635296 
L 183.931957 182.533545 
L 183.865832 182.323208 
L 183.934319 182.080978 
L 183.962658 181.88355 
L 183.99572 181.80306 
L 184.078377 181.703587 
L 184.106716 181.560831 
L 183.972104 181.362643 
L 183.542292 180.870591 
L 182.111158 179.651092 
L 181.844296 179.247123 
L 181.395591 177.221205 
L 181.341274 176.60614 
L 181.416845 176.278865 
L 181.558542 175.989557 
L 181.653006 175.726825 
L 181.589243 175.483077 
L 181.452269 175.161877 
L 181.523118 174.509604 
L 181.416845 174.121582 
L 180.975225 173.495886 
L 180.517073 173.048635 
L 179.990435 172.906638 
L 178.708082 173.508035 
L 178.219229 173.460956 
L 175.170394 171.21483 
L 174.424126 170.425117 
L 174.171434 170.280842 
L 173.507823 170.178331 
L 173.203176 170.077339 
L 172.881997 169.840425 
L 171.979863 169.416714 
L 170.206296 169.000596 
L 168.836564 168.219995 
L 168.711399 168.423498 
L 168.65472 168.860877 
L 168.350073 169.2489 
L 168.109189 169.332427 
L 167.87539 169.351411 
L 167.388899 169.255734 
L 167.129122 169.256493 
L 166.966171 169.391656 
L 166.822113 169.567063 
L 166.623738 169.690076 
L 166.108908 169.746267 
L 165.591716 169.667296 
L 164.604564 169.252697 
L 163.456823 168.21392 
L 163.083689 168.016492 
L 162.637345 168.051421 
L 162.283104 168.313394 
L 162.009157 168.727234 
L 161.798974 169.218526 
L 161.491965 169.705263 
L 161.095215 169.899654 
L 159.026448 170.109232 
L 158.707631 170.022667 
L 158.105421 169.58225 
L 157.817305 169.442531 
L 156.036653 169.169929 
L 155.646988 169.01882 
L 155.257323 168.687748 
L 155.146327 168.353639 
L 155.143965 167.946633 
L 155.084925 167.410539 
L 155.004631 167.191849 
L 154.643305 166.503888 
L 154.624412 166.276845 
L 154.674006 166.066508 
L 154.671644 165.863005 
L 154.496885 165.664058 
L 154.111943 165.471186 
L 153.743532 165.384621 
L 152.973648 165.31704 
L 151.466943 164.956354 
L 147.884385 163.203798 
L 147.093246 162.986627 
L 146.722474 163.015482 
L 146.337532 163.106603 
L 145.962037 163.136217 
L 145.619604 162.991183 
L 145.484992 162.808941 
L 145.277171 162.364728 
L 145.116581 162.202989 
L 144.927653 162.15515 
L 144.554519 162.243993 
L 144.472458 162.235949 
L 144.360867 162.225009 
L 144.068028 162.035934 
L 143.782273 161.782314 
L 143.475264 161.589442 
L 143.13047 161.583367 
L 142.788037 161.67297 
L 141.673358 161.697268 
L 140.509086 161.355566 
L 140.126505 161.303931 
L 139.739202 161.366956 
L 139.382599 161.477819 
L 139.021273 161.529454 
L 135.733916 160.20061 
L 135.155322 159.41925 
L 135.606389 157.86716 
L 135.663068 157.378145 
L 135.54971 156.864072 
L 135.060858 156.157127 
L 134.796358 155.278571 
L 134.047728 154.457725 
L 133.780867 154.047682 
L 133.367585 153.030167 
L 132.840947 152.123516 
L 132.744121 151.86534 
L 132.734675 151.646651 
L 132.670911 151.456056 
L 132.418219 151.289761 
L 131.929367 151.121188 
L 131.679036 151.089295 
L 131.428706 151.121188 
L 131.031956 151.317097 
L 130.833032 151.535912 
L 130.762733 151.61324 
L 130.302219 152.424974 
L 130.030635 152.721875 
L 129.291451 153.220002 
L 128.972634 153.508551 
L 128.559353 153.742428 
L 128.094117 153.668012 
L 127.187259 153.288343 
L 123.748759 152.635311 
L 123.394518 152.517613 
L 122.612826 152.06125 
L 121.717777 151.323172 
L 121.498148 151.280649 
L 120.404724 151.469724 
L 118.572116 152.285255 
L 118.203706 152.352836 
L 117.896697 152.207802 
L 117.608581 151.976204 
L 117.289764 151.778776 
L 116.900099 151.68158 
L 114.805353 151.749921 
L 113.974067 152.071881 
L 113.204183 152.618605 
L 111.763603 153.973267 
L 111.619545 154.374198 
L 112.240648 155.098608 
L 112.349281 155.608884 
L 112.268987 156.15409 
L 112.039911 156.617287 
L 111.680947 156.888371 
L 109.723174 157.22324 
L 109.352402 157.170086 
L 108.641769 156.871994 
L 108.530563 156.825346 
L 107.607174 156.70537 
L 104.33871 157.309805 
L 103.98683 157.291581 
L 103.668013 157.186792 
L 103.046911 156.852682 
L 102.661969 156.731188 
L 101.497696 156.719039 
L 101.162348 156.603619 
L 100.269661 156.078156 
L 98.855058 155.760752 
L 98.174915 155.759233 
L 93.657161 156.723595 
L 92.204772 156.787379 
L 91.649794 157.01594 
L 89.951799 158.3501 
L 89.479477 158.596126 
L 89.007156 158.987945 
L 88.747379 159.024393 
L 87.70591 159.381283 
L 87.209973 159.663757 
L 87.002152 160.128473 
L 86.72112 160.240855 
L 85.400982 160.495993 
L 84.959361 160.647861 
L 84.763348 160.871107 
L 84.513018 161.407201 
L 84.347705 161.632725 
L 84.102098 161.728401 
L 83.780919 161.782314 
L 83.504611 161.93722 
L 83.384169 162.336632 
L 83.204687 162.643405 
L 82.137241 163.857589 
L 78.705825 166.266214 
L 78.020959 167.026313 
L 77.723397 167.515328 
L 77.598232 167.980044 
L 77.496683 168.564735 
L 77.121187 169.477461 
L 77.144803 170.096323 
L 77.225098 170.256543 
L 77.494321 170.504088 
L 77.598232 170.69772 
L 77.626571 170.903501 
L 77.598232 171.610446 
L 77.527383 172.028842 
L 77.215651 172.76692 
L 77.144803 173.216449 
L 77.038531 173.427545 
L 76.459937 173.924153 
L 75.373598 174.654638 
L 75.087843 174.931037 
L 74.636776 175.116316 
L 74.074714 175.735937 
L 73.732281 175.901473 
L 73.226897 175.909067 
L 71.83591 175.597738 
L 71.318718 175.679746 
L 67.452767 177.975989 
L 66.638013 178.252389 
L 66.132629 178.253907 
L 65.60599 178.182529 
L 65.107691 178.206828 
L 64.684964 178.496896 
L 64.262236 178.914533 
L 63.848955 179.095255 
L 63.395526 179.120314 
L 57.161004 178.561469 
L 57.161004 178.554295 
L 56.839305 174.868807 
L 56.614301 173.701697 
L 56.186608 172.535782 
L 56.052722 171.962988 
L 55.946729 170.669122 
L 55.130394 166.744472 
L 54.725015 158.306835 
L 54.797537 157.823728 
L 55.109939 156.850338 
L 55.34238 155.417758 
L 55.907678 153.178005 
L 55.818421 152.378008 
L 56.080615 151.456038 
L 56.119665 150.194458 
L 56.002515 148.037217 
L 55.967183 147.804034 
L 55.762635 147.393871 
L 55.66222 147.123618 
L 55.602715 146.835427 
L 55.554367 146.236326 
L 55.208494 144.447394 
L 55.178741 143.804048 
L 55.387009 141.432757 
L 55.645484 140.252492 
L 56.002515 139.280298 
L 57.071746 137.566702 
L 57.462248 136.509606 
L 57.235385 135.631881 
L 57.577539 135.352061 
L 57.756054 134.823513 
L 57.888081 134.228 
L 58.094489 133.744892 
L 58.345526 133.32875 
L 58.618878 132.745195 
L 58.737888 132.326661 
L 58.512884 132.403193 
L 58.477553 131.789743 
L 58.17259 131.488398 
L 57.37671 131.200208 
L 57.369271 131.149984 
L 57.276295 130.892885 
L 57.235385 130.817549 
L 57.127532 130.749388 
L 56.841164 130.656114 
L 56.770502 130.616653 
L 56.65893 130.430106 
L 56.554796 130.193336 
L 56.482274 129.913516 
L 56.443224 129.594235 
L 56.182889 129.023833 
L 55.926274 128.822937 
L 55.037417 128.791846 
L 54.485135 128.633999 
L 54.273149 128.610083 
L 54.033269 128.70814 
L 53.925416 128.885119 
L 53.813844 128.947302 
L 53.564667 128.700965 
L 53.369416 128.258515 
L 52.917549 126.87855 
L 52.776224 126.584381 
L 52.55494 126.792452 
L 52.623743 127.25523 
L 52.828291 127.739533 
L 53.010526 128.008591 
L 53.010526 128.19155 
L 52.642338 127.994241 
L 52.311341 127.550595 
L 52.15514 127.00411 
L 52.398739 126.2077 
L 52.214645 125.670781 
L 52.231381 125.381395 
L 52.367127 125.196045 
L 53.010526 124.779903 
L 52.331796 124.711742 
L 52.326217 124.091116 
L 52.839449 122.755396 
L 52.367127 123.018474 
L 51.734886 123.503973 
L 51.362979 123.969143 
L 51.684678 124.177214 
L 51.905963 127.405902 
L 51.64005 126.961061 
L 51.072892 126.214875 
L 50.814417 125.783188 
L 50.708424 125.25464 
L 50.68239 124.663909 
L 50.526189 124.226243 
L 50.031553 124.177214 
L 50.150564 123.807709 
L 50.228664 123.33656 
L 50.187754 122.928789 
L 49.953453 122.755396 
L 49.827005 122.950313 
L 49.458817 123.879458 
L 49.252409 124.177214 
L 49.16873 123.489624 
L 49.276583 122.619074 
L 49.721011 120.948527 
L 49.096208 121.551215 
L 49.473693 120.550322 
L 49.564811 120.146138 
L 49.410469 120.22267 
L 48.940007 120.345838 
L 49.191044 119.714451 
L 49.124101 119.474093 
L 48.845171 119.621177 
L 48.471405 120.146138 
L 48.304047 119.928501 
L 48.045572 120.080369 
L 47.054441 120.146138 
L 46.621169 120.51086 
L 46.412902 120.489336 
L 46.429638 119.928501 
L 46.273437 119.928501 
L 46.1005 120.22267 
L 45.851323 120.51086 
L 45.538921 120.710561 
L 45.180031 120.729693 
L 45.291603 120.540755 
L 45.494292 119.928501 
L 45.334373 119.918934 
L 45.010814 119.951221 
L 44.854613 119.928501 
L 44.823001 119.964375 
L 44.633328 120.112655 
L 44.544071 120.146138 
L 44.475268 120.080369 
L 44.315348 119.800549 
L 44.231669 119.744346 
L 43.928565 119.850773 
L 43.344672 120.137767 
L 42.983923 120.146138 
L 42.983923 119.928501 
L 43.125247 119.714451 
L 43.065742 119.599653 
L 42.868631 119.553016 
L 42.591561 119.54345 
L 42.329367 119.488442 
L 41.983494 119.225364 
L 41.734316 119.141657 
L 41.275011 119.165574 
L 40.170449 119.499205 
L 39.707425 119.744346 
L 40.529339 120.266915 
L 40.800831 120.345838 
L 40.384295 121.00473 
L 40.235532 121.384998 
L 40.172308 121.859734 
L 40.215078 122.351212 
L 40.488429 123.574526 
L 40.428924 124.293208 
L 40.209499 124.642385 
L 39.971479 124.580203 
L 39.4099 120.411608 
L 39.264856 120.057648 
L 38.309056 118.595172 
L 38.229096 118.089344 
L 38.446661 117.518943 
L 38.658648 117.240319 
L 39.316923 116.616106 
L 39.422916 116.34107 
L 39.501017 115.967977 
L 39.603291 115.635542 
L 40.064455 115.260057 
L 40.354543 114.70281 
L 41.185754 112.416421 
L 41.804978 111.158428 
L 42.585982 110.318969 
L 43.450665 110.495949 
L 42.970906 110.760223 
L 42.619454 111.07233 
L 41.961179 111.993104 
L 41.866343 112.234657 
L 41.656216 113.086074 
L 41.592992 113.179347 
L 41.109513 113.688763 
L 41.23968 114.427773 
L 42.087628 114.541375 
L 44.5887 114.045114 
L 46.033557 114.107296 
L 46.491002 114.265143 
L 46.764354 114.640628 
L 46.965183 115.095036 
L 47.210642 115.495632 
L 47.528622 115.728815 
L 47.915405 115.854375 
L 48.861907 115.91297 
L 49.257988 116.11267 
L 49.469974 116.109083 
L 49.564811 115.812522 
L 49.548075 115.517157 
L 49.475553 115.303107 
L 49.336088 115.169176 
L 49.096208 115.111777 
L 49.391874 114.362004 
L 49.674523 114.462452 
L 49.979486 114.935993 
L 50.343955 115.312673 
L 50.779086 115.301911 
L 51.444799 114.654977 
L 51.905963 114.51148 
L 52.114231 114.591599 
L 52.642338 114.891748 
L 52.839449 114.910881 
L 53.103502 114.638236 
L 53.0347 114.341675 
L 52.791101 114.075009 
L 52.541923 113.888463 
L 52.032411 113.681588 
L 51.069173 113.451992 
L 50.658216 113.086074 
L 51.026404 112.962906 
L 51.24025 112.751247 
L 51.260705 112.433162 
L 51.054297 111.993104 
L 50.747474 111.686976 
L 50.440651 111.622403 
L 49.343526 111.743179 
L 49.265426 111.56022 
L 49.252409 110.979057 
L 49.179887 110.677712 
L 48.997653 110.329732 
L 48.750335 110.0248 
L 48.471405 109.859778 
L 48.614589 110.864259 
L 48.614589 111.280401 
L 48.471405 111.280401 
L 47.640194 109.978163 
L 47.045143 109.393412 
L 46.429638 109.254698 
L 46.513317 109.425699 
L 46.742039 110.077416 
L 46.602574 109.972184 
L 46.241825 109.776071 
L 46.104219 109.676819 
L 46.117236 110.235263 
L 46.546788 110.797293 
L 46.585838 111.280401 
L 45.804834 110.756636 
L 45.715577 109.706714 
L 46.104219 107.449025 
L 45.838306 107.599697 
L 45.553797 107.646333 
L 45.271148 107.596109 
L 45.010814 107.449025 
L 45.010814 107.25052 
L 45.769503 106.875036 
L 46.965183 105.210468 
L 47.690401 104.421233 
L 47.565812 104.270561 
L 47.439364 103.965629 
L 47.364983 103.837678 
L 47.565812 103.721684 
L 47.768501 103.65711 
L 48.225947 103.62004 
L 48.555084 103.517201 
L 48.551365 103.298367 
L 48.41004 103.093884 
L 48.304047 103.036485 
L 48.558803 102.677742 
L 48.912114 102.344111 
L 49.239392 101.953081 
L 49.40861 101.412574 
L 49.285881 101.481931 
L 49.224516 101.503456 
L 49.174309 101.529764 
L 49.096208 101.613471 
L 48.703847 101.224832 
L 48.365412 101.147105 
L 47.521184 101.211678 
L 47.134401 101.080139 
L 46.610012 100.601815 
L 46.273437 100.391353 
L 45.869918 100.278946 
L 45.470118 100.270576 
L 45.085195 100.379394 
L 44.711429 100.60899 
L 43.75005 101.684023 
L 43.372565 101.8335 
L 43.266572 101.895682 
L 42.909541 102.171914 
L 42.742183 102.2329 
L 42.563668 102.171914 
L 42.15643 101.895682 
L 41.961179 101.8335 
L 41.710142 101.711527 
L 40.220656 100.544416 
L 39.830154 100.693893 
L 39.48986 101.027524 
L 39.155144 101.211678 
L 37.505738 101.412574 
L 37.635905 101.144713 
L 37.769791 100.939034 
L 37.937149 100.769229 
L 38.149136 100.60899 
L 36.566673 101.116014 
L 35.707569 101.224832 
L 34.995368 101.010782 
L 34.625321 100.141428 
L 34.307341 99.832909 
L 33.905681 100.209589 
L 33.901962 100.5205 
L 34.067461 100.912726 
L 34.452384 101.511827 
L 34.536063 101.863395 
L 34.686685 103.527963 
L 34.820572 103.773104 
L 35.471408 104.636479 
L 35.707569 104.823025 
L 36.568533 106.427803 
L 37.280734 107.092673 
L 37.505738 107.25052 
L 37.505738 107.449025 
L 36.416051 106.848728 
L 36.724734 107.072344 
L 37.353256 107.868754 
L 37.197055 108.051713 
L 36.466259 107.336619 
L 36.165014 106.928847 
L 35.512318 105.379077 
L 35.199916 104.980872 
L 34.38916 104.632892 
L 34.117668 104.155763 
L 33.961467 103.541117 
L 33.83316 102.402705 
L 33.634189 102.089403 
L 31.434362 100.342324 
L 30.64406 99.530369 
L 30.305625 98.894198 
L 30.480421 97.619464 
L 30.655217 96.911545 
L 30.84303 96.478661 
L 30.988074 95.950113 
L 30.753773 95.400041 
L 30.134548 94.57254 
L 30.419057 94.311853 
L 30.316782 94.022467 
L 29.833304 93.551318 
L 29.403751 92.421277 
L 29.472554 91.288845 
L 30.262856 86.229372 
L 30.575257 85.257178 
L 31.08291 84.284984 
L 32.455245 82.408758 
L 33.15443 81.129241 
L 33.269721 80.069753 
L 33.065172 79.897556 
L 32.470122 79.754059 
L 32.343673 79.560338 
L 32.393881 79.29128 
L 32.570536 78.749578 
L 32.563098 78.64913 
L 32.455245 78.559445 
L 32.745333 78.380073 
L 33.119099 78.237772 
L 33.269721 78.265275 
L 33.319928 77.985456 
L 33.284597 77.670958 
L 33.202778 77.397117 
L 33.128396 77.242857 
L 33.665802 75.036588 
L 34.530485 72.811185 
L 34.712719 71.797138 
L 34.385441 69.759477 
L 34.374284 68.579212 
L 34.619742 68.758584 
L 35.172023 69.059928 
L 35.395167 69.289523 
L 35.493723 69.630329 
L 35.437937 69.971135 
L 35.339381 70.302375 
L 35.326365 70.603719 
L 35.560666 71.169337 
L 36.557376 72.410588 
L 36.735891 72.905654 
L 37.007383 74.026128 
L 37.197055 74.433899 
L 37.927852 74.932552 
L 37.983638 75.036588 
L 38.561953 75.043762 
L 38.826006 74.987559 
L 39.067746 74.835691 
L 38.710715 75.245854 
L 38.152855 75.445555 
L 37.760494 75.66678 
L 37.899959 76.14032 
L 38.063598 76.306538 
L 38.429926 76.594728 
L 38.614019 76.843457 
L 38.664227 77.108927 
L 38.664227 77.441362 
L 38.736749 77.725965 
L 38.998943 77.845546 
L 40.012388 77.928057 
L 40.447519 77.886203 
L 40.957031 77.662587 
L 41.989072 76.589945 
L 42.35726 76.458406 
L 41.979775 77.242857 
L 41.8775 77.694874 
L 42.132256 77.871854 
L 43.841167 77.662587 
L 44.040137 77.522677 
L 44.077328 77.195025 
L 44.077328 76.824324 
L 44.153569 76.550483 
L 44.490144 76.084117 
L 44.735603 75.925075 
L 45.010814 76.039872 
L 45.034988 76.207286 
L 44.873208 76.751379 
L 44.854613 77.024024 
L 45.051723 77.596817 
L 45.392018 78.053617 
L 45.840166 78.357353 
L 46.351537 78.466171 
L 46.494721 78.530745 
L 46.821999 78.814152 
L 47.054441 78.867964 
L 47.320354 78.809369 
L 47.521184 78.696963 
L 47.833585 78.466171 
L 48.659218 78.087099 
L 48.971619 77.737923 
L 49.096208 77.135235 
L 49.057158 75.877242 
L 49.140837 75.402505 
L 49.704276 74.267682 
L 49.827005 74.215066 
L 50.117092 74.215066 
L 50.329079 74.268877 
L 50.555942 74.401612 
L 50.736317 74.570222 
L 50.814417 74.724481 
L 50.88136 74.842866 
L 51.19934 74.964839 
L 51.294176 75.036588 
L 51.305334 75.223134 
L 51.23839 75.403701 
L 51.154711 75.553178 
L 51.124959 75.639276 
L 51.251407 76.25751 
L 51.370417 76.482322 
L 51.606578 76.642561 
L 51.411327 77.058703 
L 51.288598 77.260795 
L 51.124959 77.443754 
L 51.385294 77.953169 
L 51.738605 79.137021 
L 52.07518 79.667961 
L 52.303903 79.806675 
L 52.532626 79.849724 
L 52.722298 79.94778 
L 52.839449 80.252712 
L 52.779944 80.46437 
L 52.460104 81.102933 
L 52.385722 81.364815 
L 52.757629 82.082302 
L 53.637188 82.082302 
L 54.672948 81.877818 
L 55.993217 82.067952 
L 56.370702 81.722363 
L 56.727733 81.277521 
L 57.709566 80.732232 
L 57.938289 80.672441 
L 58.168871 80.717882 
L 58.797393 81.056296 
L 59.377567 81.136416 
L 59.829434 80.990527 
L 60.253408 80.780064 
L 60.967468 80.600693 
L 61.145983 80.421321 
L 61.263134 80.189334 
L 61.307763 79.96213 
L 61.179455 79.929843 
L 60.576966 79.648828 
L 60.370558 79.449127 
L 61.692686 79.502939 
L 62.362118 79.402491 
L 63.040848 79.025811 
L 64.437357 79.065272 
L 64.502441 79.141804 
L 64.398307 79.328351 
L 64.175163 80.033879 
L 64.102641 80.184551 
L 64.197477 80.277824 
L 64.90596 80.586343 
L 68.353534 80.672441 
L 67.905387 80.40458 
L 67.418189 80.252712 
L 67.704557 79.871248 
L 68.612009 79.641653 
L 68.96718 79.26856 
L 66.69669 79.304434 
L 66.402884 79.262581 
L 66.228088 78.997111 
L 66.172302 78.365723 
L 66.075606 77.838371 
L 65.644194 77.034786 
L 65.497291 76.264685 
L 65.274147 75.786361 
L 65.220221 75.538828 
L 65.26299 75.341519 
L 65.346669 75.200414 
L 65.406174 75.052133 
L 65.376422 74.835691 
L 65.235097 74.779488 
L 65.006374 74.810579 
L 64.805545 74.755572 
L 64.751618 74.433899 
L 64.844595 74.296381 
L 65.015672 74.272465 
L 65.212783 74.274856 
L 65.376422 74.215066 
L 65.964034 73.547804 
L 66.272717 73.318208 
L 66.711566 73.229718 
L 67.369841 73.519104 
L 68.755193 74.612075 
L 69.136398 74.616858 
L 69.776077 75.021042 
L 69.84302 75.441967 
L 69.558512 75.911921 
L 69.136398 76.458406 
L 69.984345 76.668869 
L 72.628601 76.173803 
L 73.398448 75.886809 
L 73.753619 75.819843 
L 74.157137 75.137036 
L 75.116657 74.634795 
L 75.332362 74.461403 
L 76.191467 73.059913 
L 76.407173 72.597135 
L 76.49829 72.109244 
L 76.410892 71.622549 
L 76.197045 71.208799 
L 75.629888 70.4949 
L 74.900951 69.340943 
L 74.62388 69.1819 
L 74.62388 68.998942 
L 75.138971 69.074278 
L 75.683814 69.339747 
L 76.667507 70.001031 
L 76.518745 69.745127 
L 76.063159 69.381601 
L 75.871627 69.1819 
L 75.672657 68.881752 
L 75.585259 68.71673 
L 75.548068 68.579212 
L 75.58154 68.378316 
L 75.681955 68.20014 
L 75.795386 68.114042 
L 75.871627 68.197749 
L 75.494142 67.696704 
L 74.869339 67.518528 
L 74.198047 67.424059 
L 73.673659 67.174135 
L 73.642047 66.301194 
L 72.851745 65.429448 
L 68.281012 61.999864 
L 66.255981 61.140076 
L 65.867338 60.869823 
L 65.028689 60.032756 
L 63.963176 59.449201 
L 63.490855 59.111982 
L 63.383002 58.957723 
L 63.130105 58.462657 
L 62.624312 57.732017 
L 62.440219 57.569387 
L 61.614586 57.401974 
L 61.173876 57.128133 
L 60.822425 56.740691 
L 60.526759 56.303024 
L 60.076752 55.371488 
L 59.823855 54.345483 
L 59.723441 53.19033 
L 59.716002 50.650429 
L 59.582116 49.583766 
L 59.32736 48.604397 
L 58.953594 47.657316 
L 57.865767 45.856425 
L 57.689111 45.331465 
L 57.584977 45.094694 
L 57.343238 45.001421 
L 57.082903 44.946414 
L 56.911826 44.829224 
L 56.81885 44.475265 
L 56.883933 44.20262 
L 57.004803 43.940737 
L 57.079184 43.625044 
L 57.060589 43.438497 
L 56.939719 42.853746 
L 56.911826 42.51294 
L 57.185178 41.824153 
L 57.235385 41.490522 
L 57.218649 41.002632 
L 57.149847 40.41788 
L 57.004803 39.843891 
L 56.770502 39.37633 
L 56.06016 38.703088 
L 54.989069 38.037022 
L 53.82872 37.692629 
L 52.839449 37.98919 
L 51.861334 37.463033 
L 44.854613 38.591878 
L 43.515749 39.275882 
L 43.062023 39.37633 
L 41.302904 39.299798 
L 40.025405 38.64569 
L 39.067746 39.048678 
L 38.21236 39.797255 
L 37.661938 40.396356 
L 35.374713 42.153001 
L 34.842886 43.004418 
L 32.202349 48.603202 
L 31.804409 49.19154 
L 31.473412 49.443856 
L 31.302335 49.75955 
L 31.112662 50.471057 
L 31.008529 51.226809 
L 31.08291 51.669259 
L 31.36184 51.595119 
L 32.070322 50.691086 
L 32.416195 50.466274 
L 33.55237 50.571505 
L 34.084197 50.810667 
L 34.374284 51.267467 
L 34.34825 51.662084 
L 33.994939 52.263577 
L 33.905681 52.580467 
L 33.931715 52.877028 
L 34.039568 53.453408 
L 34.061882 53.785843 
L 33.972625 54.448322 
L 32.458965 58.224691 
L 32.343673 58.8214 
L 32.070322 59.657272 
L 32.020115 59.933504 
L 32.064743 60.221694 
L 32.343673 60.95353 
L 32.563098 62.179236 
L 32.71744 64.023175 
L 32.884798 64.511066 
L 34.087916 66.961281 
L 34.218083 67.475479 
L 34.095354 68.084147 
L 33.610016 68.951109 
L 33.59328 69.599238 
L 33.437079 69.599238 
L 33.310631 69.318223 
L 32.946162 69.009704 
L 32.815995 68.798045 
L 32.778804 68.475177 
L 32.957319 67.574731 
L 32.961038 66.89312 
L 32.879219 66.282061 
L 32.719299 65.716442 
L 32.484998 65.167565 
L 32.380864 65.013306 
L 32.092636 64.679675 
L 32.020115 64.564877 
L 31.964329 64.213309 
L 32.025693 63.656061 
L 32.020115 63.363088 
L 31.512462 61.639925 
L 31.473412 61.354126 
L 31.188903 61.103006 
L 30.820716 59.984924 
L 30.461826 59.732608 
L 30.156862 59.671621 
L 29.961611 59.495837 
L 29.863056 59.210039 
L 29.833304 58.8214 
L 29.788675 58.549951 
L 29.662227 58.377755 
L 29.281022 58.017816 
L 29.024407 57.846815 
L 28.420058 57.758325 
L 28.198774 57.616024 
L 27.408472 56.611543 
L 27.003094 56.310199 
L 26.57912 56.130827 
L 26.277876 55.815133 
L 26.233247 55.098843 
L 26.307629 55.029486 
L 26.77995 54.19481 
L 26.861769 53.956844 
L 26.882224 53.619626 
L 26.85805 52.973888 
L 26.893382 52.767013 
L 27.032847 52.457298 
L 27.040285 52.271948 
L 26.971482 52.104534 
L 26.861769 51.992128 
L 26.753917 51.920379 
L 26.70185 51.870155 
L 26.514037 51.280621 
L 26.391308 51.047438 
L 26.233247 50.868066 
L 26.065889 50.814255 
L 25.693983 50.864479 
L 25.532203 50.767618 
L 25.310919 50.448337 
L 25.18819 50.306035 
L 24.8293 50.154168 
L 24.481567 49.738026 
L 24.277018 49.644752 
L 23.719158 49.486905 
L 23.432727 49.073499 
L 24.37351 48.148674 
L 27.860423 44.801506 
L 30.89745 41.884883 
L 30.904534 41.881845 
L 30.904534 41.87653 
L 35.795423 37.972006 
L 39.368535 36.76086 
L 40.662695 36.020504 
L 45.702365 34.106209 
L 47.213794 33.797917 
L 51.235611 33.097806 
L 54.735512 32.492612 
L 60.209718 31.542678 
L 61.933691 31.771999 
L 63.593901 32.34606 
L 67.141035 34.613447 
L 70.990455 37.071429 
L 73.29066 38.543029 
L 76.001785 40.276602 
L 79.85829 43.687555 
L 80.401459 44.361089 
L 80.628174 44.937428 
L 80.623451 45.434036 
L 80.528986 45.94659 
L 80.495924 46.579879 
L 80.616366 47.171404 
L 80.854888 47.701423 
L 83.233026 50.803325 
L 84.26741 52.151153 
L 85.7505 54.698737 
L 87.200527 57.186333 
L 87.904285 58.014013 
L 88.702509 58.694382 
L 90.133643 59.648112 
L 90.494969 60.044487 
L 90.771277 60.544133 
L 91.411272 62.032438 
L 91.796214 62.535121 
L 92.270897 62.885936 
L 92.910893 63.241307 
L 93.619375 63.473664 
L 96.502897 63.312685 
L 97.849013 62.806964 
L 99.972098 62.509303 
L 102.012527 61.544942 
L 102.777688 61.482676 
L 104.33871 61.626951 
L 108.046433 61.819823 
L 112.299688 62.046106 
L 117.027257 62.295469 
L 117.856549 62.339211 
L 122.962344 62.608017 
L 125.120853 63.048434 
L 127.914634 63.613383 
L 128.356255 63.36432 
L 129.060014 62.120521 
L 129.511081 61.617839 
L 130.576166 61.101488 
L 131.062657 60.764341 
L 131.320072 60.468199 
L 131.369666 60.267733 
L 131.194907 60.138645 
L 130.049527 59.866802 
L 129.70001 59.699747 
L 129.376469 59.473464 
L 128.875809 58.926739 
L 128.43655 58.20233 
L 128.129541 57.388318 
L 128.02563 56.574306 
L 128.042161 55.535529 
L 127.957143 54.688106 
L 127.695005 53.918136 
L 127.187259 53.111717 
L 126.778701 52.061551 
L 126.804679 51.135157 
L 126.984161 50.189779 
L 127.04084 49.083421 
L 126.535456 46.76288 
L 126.542541 45.629945 
L 127.187259 44.775688 
L 129.381193 43.786269 
L 130.321112 43.101345 
L 131.176014 41.884883 
L 131.176014 41.877289 
L 132.430027 39.619773 
L 134.267358 37.889997 
L 136.41642 36.884632 
L 138.610353 36.799586 
L 141.843394 37.338717 
L 142.906117 37.135214 
L 144.169577 36.540651 
L 144.611197 36.440418 
L 146.17222 36.509518 
L 146.611479 36.416879 
L 147.114501 36.067583 
L 147.043653 35.788905 
L 146.750813 35.473779 
L 146.585501 35.011341 
L 146.772068 34.627116 
L 147.645863 34.356791 
L 147.974126 34.005976 
L 148.904599 31.967909 
L 149.102974 31.282984 
L 149.062827 30.825103 
L 148.573974 29.822015 
L 148.444086 29.043692 
L 148.831389 28.730085 
L 149.452492 28.466594 
L 150.035809 27.828749 
L 150.236546 27.486287 
L 150.479791 27.192422 
L 150.897796 27.007903 
L 151.405541 26.917541 
L 151.922733 26.932728 
L 152.357269 27.078521 
L 152.687894 27.389851 
L 153.209809 28.130207 
L 153.575858 28.334469 
L 153.946631 28.301817 
L 154.775555 27.961633 
L 155.188836 27.895571 
L 155.689497 27.981376 
L 157.959001 29.001928 
L 158.733608 29.544097 
L 159.321648 30.295843 
L 159.555448 31.341453 
L 159.477515 31.878307 
L 159.354711 32.381749 
L 159.347626 32.838112 
L 159.616849 33.233728 
L 159.989983 33.324848 
L 161.458903 33.112233 
L 161.742296 32.948216 
L 161.82259 32.709024 
L 161.71868 32.450089 
L 161.458903 32.220769 
L 160.537876 31.181233 
L 158.842242 28.554677 
L 158.232948 27.18407 
L 157.529189 26.156683 
L 156.723881 25.558324 
L 153.861613 24.278837 
L 153.434162 23.913594 
L 153.304273 23.347886 
L 153.516818 22.91886 
L 153.932461 22.620439 
L 154.794447 22.262031 
L 156.005952 21.558123 
L 156.433403 21.429795 
L 156.990742 21.44726 
L 159.45626 22.394915 
L 160.627617 22.654609 
L 161.801336 22.724469 
L 162.745979 22.4587 
L 163.230108 21.603684 
L 163.541841 19.108494 
L 163.964568 18.441794 
L 164.521908 18.74553 
L 169.438774 24.243907 
L 170.969095 25.593253 
L 172.574988 26.282734 
L 173.592841 26.456622 
L 174.263537 26.419415 
L 174.922426 26.247804 
L 175.586037 25.94179 
L 176.169354 25.882562 
L 176.719609 26.212874 
L 178.171997 27.654101 
L 178.495537 28.14919 
L 178.712805 28.711861 
L 178.98439 30.956468 
L 179.286676 31.479653 
L 179.943202 31.820597 
L 181.107475 31.942091 
L 181.64356 32.119017 
L 182.55514 33.056042 
L 183.126649 33.26562 
L 184.307453 33.299031 
L 189.136939 32.589048 
L 191.120689 32.760659 
L 192.140904 32.642202 
L 193.177649 32.753066 
L 193.897939 33.507849 
L 194.533212 34.455505 
L 195.333797 35.148022 
L 196.346926 35.528452 
L 196.875926 35.829909 
L 197.154596 36.213376 
L 197.076663 36.706187 
L 196.701167 36.968159 
L 196.233569 37.152679 
L 195.858073 37.414651 
L 195.64789 38.776906 
L 196.096596 40.22117 
L 196.167444 41.381441 
L 194.811881 41.887161 
L 194.804796 41.887161 
L 194.797712 41.887161 
L 194.790627 41.884883 
L 194.386792 41.997265 
L 194.129377 42.286573 
L 194.093953 42.674596 
L 194.346645 43.091473 
L 194.672546 43.231951 
L 195.858073 43.190947 
L 198.259828 44.063428 
L 198.932886 44.619264 
L 199.456667 45.389809 
L 199.716939 45.772701 
L 200.059373 46.113644 
L 201.140989 46.730987 
L 201.462167 46.994478 
L 201.740837 47.333903 
L 201.962828 47.73939 
L 202.005337 48.157027 
L 201.740837 48.538975 
L 201.381873 48.586054 
L 200.935529 48.393182 
L 200.146752 47.91176 
L 199.287127 47.650548 
L 198.57156 47.709776 
L 197.943372 48.128172 
L 197.355332 48.937628 
L 197.563154 49.963496 
L 198.266913 51.270319 
L 199.787788 53.350909 
L 199.995609 53.8908 
L 199.681515 54.261357 
L 198.736872 54.71848 
L 198.347207 55.051071 
L 198.049645 55.462633 
L 197.870163 55.965315 
L 197.584408 58.322305 
L 197.742636 59.01786 
L 198.384993 59.634444 
L 200.885935 60.881279 
L 203.084591 61.976247 
L 204.46377 62.960351 
L 205.703614 64.167701 
L 206.36014 64.626342 
L 207.156002 64.848069 
L 208.528096 64.814658 
L 211.286453 63.917119 
L 215.889225 63.646794 
L 217.488034 64.021908 
L 218.579096 65.121431 
L 218.730239 64.998418 
L 218.87902 64.837438 
L 219.180144 64.336059 
L 219.315918 64.109991 
L 219.403297 64.178332 
L 219.474145 64.441063 
L 219.601672 64.708351 
L 220.952511 64.483586 
L 221.358708 64.495735 
L 223.710868 66.120722 
L 224.63898 66.488242 
L 225.510413 66.459387 
L 226.29919 66.072124 
L 226.941547 65.385681 
L 227.376083 64.463843 
L 227.935784 64.152514 
L 228.157775 63.118294 
L 228.467145 62.500191 
L 228.979614 62.255684 
L 229.822708 62.348323 
L 232.04498 62.917828 
L 234.033454 63.751583 
L 239.14161 67.408562 
L 239.587954 67.883908 
L 241.264695 70.628161 
L 241.458347 71.115657 
L 241.53628 71.715536 
L 241.597681 73.788532 
L 241.708677 74.221356 
L 241.53628 74.441564 
L 241.791333 75.023219 
L 242.510443 77.489553 
L 242.772581 78.830547 
L 242.954425 79.457761 
L 243.204755 79.846543 
L 243.958108 80.651443 
L 244.217885 81.061486 
L 244.689025 82.867196 
L 244.997215 83.488335 
L 245.847393 84.601527 
L 245.982005 84.874889 
L 246.16621 85.544627 
L 246.205759 85.613659 
L 246.314992 85.804321 
L 246.808568 86.170323 
L 247.893726 86.489245 
L 249.783012 87.556877 
L 250.003822 87.821127 
L 250.07467 89.061888 
L 250.216367 89.605575 
L 250.804407 90.767364 
L 250.992155 91.30042 
L 251.075992 91.885112 
L 251.093704 92.664194 
L 251.186987 93.262554 
L 251.888385 94.763009 
L 251.978126 95.388704 
L 251.850599 95.920242 
L 251.66049 96.453298 
L 251.564844 97.088106 
L 251.628608 97.7624 
L 252.030081 99.413204 
L 252.27805 100.198361 
L 253.918186 102.240984 
L 254.164974 102.380703 
L 255.485112 103.695879 
L 258.158452 105.59119 
L 261.273412 107.799349 
L 264.985858 110.429702 
L 272.519385 115.767858 
L 275.693385 118.017022 
L 277.143412 119.392945 
L 279.599483 122.819085 
L 280.988108 124.248162 
L 283.519751 126.062984 
L 286.710283 128.348595 
L 290.387305 130.984263 
L 291.072171 131.343431 
L 291.747591 131.471 
L 292.337993 131.343431 
L 294.106836 130.455003 
L 294.796426 130.372995 
L 295.339595 130.71166 
L 296.030178 131.610401 
L 297.326888 133.29797 
L 302.138662 137.377142 
L 305.07414 139.085656 
L 308.437069 140.280857 
L 309.972113 141.252811 
L 313.013864 144.044903 
L 315.172373 146.032094 
L 318.25427 148.143058 
L 320.526136 149.696667 
L 324.285815 152.269309 
L 325.827944 152.790216 
L 327.394871 152.661128 
L 327.984092 152.323981 
L 329.089324 151.423405 
L 329.741127 151.154599 
L 330.513373 151.224458 
L 332.81594 152.352836 
L 334.325007 152.598862 
L 334.967364 152.941324 
L 336.383147 154.094761 
L 337.865056 154.523029 
L 338.611324 154.873843 
L 339.28202 155.52156 
L 340.344744 156.883815 
L 342.66148 157.987136 
L 343.372324 158.204307 
L 345.119913 158.214937 
L 345.993708 158.457167 
L 346.821451 158.864932 
L 347.590154 159.422287 
L 347.594878 159.426084 
L 347.597239 159.427603 
L 347.875727 160.228101 
L 348.087273 160.836177 
L 347.247721 162.502928 
L 345.9819 164.183346 
L 345.186038 165.632166 
L 345.098659 166.784843 
L 345.280503 169.090198 
L 345.193123 170.259581 
L 344.692462 172.239179 
L 344.607445 173.287827 
L 344.919177 174.121582 
L 345.369063 174.517197 
L 345.73157 174.917369 
L 345.821311 175.386641 
L 345.459985 175.993353 
L 345.032534 176.443642 
L 344.687739 176.945565 
L 344.638145 177.483937 
L 345.20375 177.931947 
L 344.822351 178.182529 
L 344.418516 178.542456 
L 344.068998 178.943387 
L 343.875346 179.099811 
L 343.638005 179.143853 
L 343.354612 178.99806 
L 343.010998 178.475634 
L 342.779561 178.359455 
L 342.234029 178.431593 
L 340.658837 178.961612 
L 340.058989 178.900864 
L 339.600837 178.546253 
L 339.220619 178.1476 
L 339.063053 178.065087 
L 338.858112 177.957765 
L 338.644386 177.895499 
L 338.323208 177.619859 
L 338.077601 177.558352 
L 337.321886 177.599357 
L 337.057386 177.558352 
L 336.596873 177.318401 
L 336.201304 176.91747 
L 335.567212 176.044229 
L 335.151569 175.678228 
L 330.022159 173.706982 
L 329.585261 173.377429 
L 329.425853 173.187594 
L 329.242828 172.906638 
L 328.860248 172.021248 
L 328.680766 171.902791 
L 328.224975 171.798003 
L 327.880181 171.637023 
L 327.821141 172.056178 
L 327.679444 172.827667 
L 327.377158 173.086602 
L 326.437239 173.075971 
L 326.04285 173.164814 
L 325.764181 173.336425 
L 325.532743 173.638642 
L 325.295402 174.112469 
L 325.294221 174.118544 
L 325.291859 174.121582 
L 325.008466 174.701717 
L 324.779391 175.327413 
L 324.670757 175.98576 
L 324.85142 177.245504 
L 324.864408 177.895499 
L 324.741605 178.49158 
L 324.448766 178.905421 
L 323.806408 179.581233 
L 322.748408 181.07865 
L 321.938377 181.514511 
L 321.630238 181.522688 
L 311.922801 181.78028 
L 310.23189 182.3551 
L 306.091993 184.652102 
L 305.42602 185.165415 
L 305.00093 185.912606 
L 304.89702 187.058449 
L 305.331555 189.293185 
L 305.42602 190.442825 
L 305.116649 191.43756 
L 304.278604 193.026063 
L 301.829292 197.6687 
L 301.451435 198.610281 
L 301.158595 199.770552 
L 301.085386 200.376505 
L 301.090109 200.970308 
L 301.197562 201.570186 
L 301.518741 202.69249 
L 301.581323 203.301481 
L 301.475051 204.472382 
L 301.212912 205.556719 
L 300.807897 206.572715 
L 299.014256 209.458205 
L 298.546658 210.039859 
L 297.789763 210.676186 
L 297.019879 210.973847 
L 295.337234 211.382372 
L 294.919229 211.564613 
L 294.569711 211.806083 
L 294.300488 212.161454 
L 293.939162 213.342986 
L 293.712448 213.541933 
L 293.429055 213.472074 
L 293.050017 213.308057 
L 292.107736 213.147077 
L 291.257557 213.312613 
L 290.449888 213.730249 
L 288.93964 214.930006 
L 288.651524 215.309676 
L 288.459053 215.777429 
L 288.462595 216.301373 
L 288.672778 217.690964 
L 288.662151 218.060003 
L 286.488292 217.174614 
L 285.848296 217.031858 
L 285.490887 217.090241 
L 285.113836 217.151833 
L 284.42897 217.37356 
L 282.282269 218.690255 
L 281.363604 218.9378 
L 278.543845 219.120041 
L 278.082151 219.226349 
L 277.655881 219.473894 
L 277.339425 219.814078 
L 276.798617 220.588604 
L 276.459727 220.907527 
L 274.611769 221.812659 
L 272.617392 222.247001 
L 267.643847 222.130063 
L 267.159718 222.240927 
L 266.806657 222.625153 
L 266.709831 223.13391 
L 266.868059 223.509024 
L 267.095954 223.884137 
L 267.196322 224.403526 
L 267.341561 224.784714 
L 268.511738 225.890312 
L 268.831735 226.342879 
L 268.984059 226.476523 
L 269.565014 226.707362 
L 269.680733 226.860748 
L 269.66184 227.06577 
L 269.527229 227.333058 
L 268.891956 227.82511 
L 267.138463 228.424988 
L 266.532711 229.052202 
L 266.493744 229.489582 
L 266.549242 230.990037 
L 266.622452 231.349964 
L 267.002671 231.674961 
L 267.082965 231.983253 
L 266.849166 232.90661 
L 266.75234 234.019801 
L 266.614186 234.566526 
L 266.308358 234.903673 
L 265.857291 235.028204 
L 264.907925 235.114769 
L 264.44505 235.227151 
L 262.912367 236.003196 
L 260.841238 237.732972 
L 260.738374 237.785972 
L 259.308554 238.522685 
L 258.708706 239.16053 
L 258.42059 239.581204 
L 258.123028 239.886458 
L 257.780595 240.111223 
L 256.122746 240.866006 
L 255.744889 240.963202 
L 255.541791 240.928272 
L 254.868733 240.629093 
L 254.623126 240.639723 
L 254.396411 240.709583 
L 254.167336 240.729325 
L 253.918186 240.588088 
L 252.417385 239.127119 
L 251.799824 239.163567 
L 251.055918 239.889496 
L 248.832465 243.075684 
L 248.471139 243.277669 
L 248.231436 242.972414 
L 247.800443 241.910858 
L 247.665831 241.464366 
L 247.703617 240.27524 
L 247.671735 239.758889 
L 247.514688 239.239501 
L 247.271443 238.777823 
L 246.936094 238.410302 
L 245.676177 237.825611 
L 245.046809 237.379119 
L 242.704094 234.950752 
L 242.101884 234.511853 
L 241.422922 234.15952 
L 240.088614 234.132184 
L 237.339704 235.142105 
L 235.981779 235.25145 
L 232.899882 234.756361 
L 231.390815 234.118516 
L 230.3399 232.888385 
L 228.854449 231.45779 
L 228.662665 231.368249 
L 228.509654 231.29681 
L 228.249878 231.252768 
L 228.065672 231.141905 
L 227.921614 230.967256 
L 227.770471 230.737936 
L 227.763386 230.620998 
L 227.853128 230.303594 
L 227.843681 230.176025 
L 227.482355 229.837359 
L 227.432761 229.822173 
L 227.397337 229.829766 
L 227.113944 229.568553 
L 227.309958 229.237481 
L 227.328851 229.160028 
L 227.113944 228.961081 
L 226.94627 228.869961 
L 226.752619 228.869961 
L 225.555284 229.112949 
L 225.243552 229.234444 
" clip-path="url(#p5a721e96bc)" style="fill: #f5f5f5; stroke: #000000"/>
    <path d="M 36.966473 128.055227 
L 37.202634 127.477651 
L 37.598714 127.083033 
L 38.149136 126.986173 
L 38.260708 127.175111 
L 38.290461 127.268384 
L 38.290461 127.405902 
L 37.626607 127.886618 
L 37.515035 129.07047 
L 37.821858 131.420237 
L 38.097069 133.870452 
L 38.614019 136.272835 
L 38.521043 136.639949 
L 38.53034 136.7966 
L 38.614019 137.056091 
L 38.446661 137.056091 
L 38.387156 136.358934 
L 37.721444 133.834578 
L 37.353256 133.041756 
L 37.200774 132.600502 
L 37.159864 132.299158 
L 37.197055 131.520685 
L 37.146848 130.735038 
L 36.934861 129.378989 
L 36.884654 128.700965 
L 36.966473 128.055227 
" clip-path="url(#p5a721e96bc)" style="fill: #f5f5f5; stroke: #000000"/>
    <path d="M 46.987498 112.667541 
L 47.249692 112.421204 
L 47.521184 112.284881 
L 47.668087 112.489365 
L 47.792675 112.632862 
L 47.904247 112.650799 
L 48.002803 112.483386 
L 48.103217 113.12434 
L 48.147846 113.28697 
L 48.614589 113.999673 
L 48.493719 114.351242 
L 48.209211 114.690852 
L 47.848461 114.910881 
L 47.521184 114.910881 
L 47.400314 114.683677 
L 47.141839 113.750945 
L 46.981919 113.387418 
L 46.85919 112.995193 
L 46.987498 112.667541 
" clip-path="url(#p5a721e96bc)" style="fill: #f5f5f5; stroke: #000000"/>
   </g>
  </g>
 </g>
 <defs>
  <clipPath id="p5a721e96bc">
   <rect x="7.2" y="7.2" width="357.12" height="247.319463"/>
  </clipPath>
 </defs>
</svg>
