<?xml version="1.0" encoding="utf-8" standalone="no"?>
<!DOCTYPE svg PUBLIC "-//W3C//DTD SVG 1.1//EN"
  "http://www.w3.org/Graphics/SVG/1.1/DTD/svg11.dtd">
<svg xmlns:xlink="http://www.w3.org/1999/xlink" width="371.52pt" height="165.034995pt" viewBox="0 0 371.52 165.034995" xmlns="http://www.w3.org/2000/svg" version="1.1">
 <metadata>
  <rdf:RDF xmlns:dc="http://purl.org/dc/elements/1.1/" xmlns:cc="http://creativecommons.org/ns#" xmlns:rdf="http://www.w3.org/1999/02/22-rdf-syntax-ns#">
   <cc:Work>
    <dc:type rdf:resource="http://purl.org/dc/dcmitype/StillImage"/>
    <dc:date>2024-03-04T13:11:13.511110</dc:date>
    <dc:format>image/svg+xml</dc:format>
    <dc:creator>
     <cc:Agent>
      <dc:title>Matplotlib v3.8.0, https://matplotlib.org/</dc:title>
     </cc:Agent>
    </dc:creator>
   </cc:Work>
  </rdf:RDF>
 </metadata>
 <defs>
  <style type="text/css">*{stroke-linejoin: round; stroke-linecap: butt}</style>
 </defs>
 <g id="figure_1">
  <g id="patch_1">
   <path d="M 0 165.034995 
L 371.52 165.034995 
L 371.52 0 
L 0 0 
z
" style="fill: #ffffff"/>
  </g>
  <g id="axes_1">
   <g id="PatchCollection_1">
    <path d="M 324.911989 35.68614 
L 324.84188 36.195557 
L 324.982099 36.88868 
L 325.252021 37.511927 
L 325.576278 37.811717 
L 326.301912 37.913149 
L 327.031928 38.26929 
L 327.700598 38.810264 
L 328.231678 39.46056 
L 328.426232 39.888831 
L 328.498971 40.305831 
L 328.536654 40.743119 
L 328.627797 41.239011 
L 328.801318 41.67179 
L 329.505919 42.772897 
L 329.663666 43.182009 
L 329.723259 43.542658 
L 329.811772 45.052877 
L 329.761819 45.22982 
L 329.409519 45.845178 
L 329.306107 45.980421 
L 329.43581 46.47406 
L 328.717187 47.300172 
L 328.491083 47.750984 
L 328.508611 48.273925 
L 328.406075 48.195033 
L 328.330708 48.16573 
L 328.25534 48.148825 
L 328.151928 48.111633 
L 328.205387 48.200668 
L 328.233431 48.266036 
L 328.279002 48.422693 
L 327.877624 48.470028 
L 327.511302 48.719101 
L 326.931145 49.397573 
L 327.001255 49.684965 
L 327.361443 50.080552 
L 328.04764 50.656464 
L 328.04764 50.805232 
L 328.032998 50.853448 
L 327.780347 51.685441 
L 327.635746 51.92888 
L 327.520066 52.286148 
L 327.693587 52.627637 
L 328.151928 53.052527 
L 328.906483 54.019518 
L 329.150321 54.576178 
L 329.167641 54.615716 
L 328.857406 54.853519 
L 329.037938 55.237836 
L 329.567265 55.880243 
L 329.676812 56.125935 
L 329.511178 56.407692 
L 328.743478 56.572238 
L 328.508611 56.788628 
L 328.727703 57.41751 
L 329.504167 57.841273 
L 331.057094 58.277433 
L 332.911492 59.289505 
L 334.951681 59.632121 
L 335.221603 59.539705 
L 335.8114 59.130594 
L 336.17334 59.035923 
L 336.339851 59.079877 
L 336.555438 59.286124 
L 336.699162 59.333459 
L 336.876189 59.309791 
L 337.223231 59.208359 
L 337.70874 59.148626 
L 338.730587 58.873631 
L 339.303733 58.873631 
L 339.924203 59.064099 
L 340.861688 59.60627 
L 342.276379 60.424423 
L 343.257037 61.269694 
L 343.692593 61.750936 
L 343.883641 62.068758 
L 343.962515 62.400104 
L 344.025613 62.589445 
L 344.169338 62.734832 
L 344.425238 62.920791 
L 344.47782 63.1338 
L 344.483078 63.379492 
L 344.546177 63.505719 
L 344.77228 63.368222 
L 345.385739 64.070361 
L 345.699479 64.260829 
L 345.785364 64.272099 
L 345.974659 64.242796 
L 346.055285 64.260829 
L 346.137664 64.334086 
L 346.234941 64.50314 
L 347.275192 65.858956 
L 347.537227 66.301878 
L 347.702861 66.575746 
L 347.896538 67.401858 
L 348.087273 67.67359 
L 346.709057 66.682814 
L 346.379542 66.405565 
L 345.365582 65.936721 
L 345.133344 65.672996 
L 344.675879 64.985508 
L 344.414721 64.80293 
L 343.995817 64.925776 
L 342.194 66.396548 
L 342.118633 66.643368 
L 342.20627 67.35565 
L 342.17302 67.616485 
L 342.162451 67.699394 
L 342.061669 67.980024 
L 341.499916 69.103671 
L 341.422795 69.396699 
L 341.389493 69.755094 
L 341.422795 70.062773 
L 341.480635 70.343403 
L 341.470119 70.603747 
L 341.30098 70.861836 
L 341.298351 70.862963 
L 341.214219 71.34984 
L 341.273812 71.761205 
L 341.266801 72.155665 
L 340.981105 72.589572 
L 340.655095 72.827375 
L 339.776973 73.226343 
L 339.403639 73.315378 
L 338.972465 73.279313 
L 337.800759 72.698893 
L 337.395 72.653812 
L 336.474812 72.896123 
L 336.083951 72.938951 
L 335.707112 72.892742 
L 335.442448 72.899505 
L 335.188301 72.991921 
L 334.843011 73.207183 
L 334.653715 73.470908 
L 334.757127 73.734633 
L 335.202323 74.259828 
L 335.20542 74.268474 
L 335.279443 74.475091 
L 335.379349 74.9383 
L 335.579162 75.369952 
L 335.575656 75.532244 
L 335.53359 75.676503 
L 335.540601 75.871479 
L 335.598442 76.057439 
L 335.803512 76.489655 
L 335.817534 76.682377 
L 335.700101 77.077964 
L 335.719381 77.266178 
L 336.157566 77.602596 
L 336.912996 77.99931 
L 337.566768 78.464209 
L 337.705235 79.000675 
L 337.368709 79.661677 
L 337.282824 80.007675 
L 337.439695 80.867598 
L 337.27669 81.126815 
L 337.002386 81.355602 
L 336.762261 81.761332 
L 336.762261 81.765277 
L 336.855156 81.916862 
L 336.907738 82.064503 
L 336.978724 82.400921 
L 337.081259 82.557014 
L 337.2355 82.676479 
L 337.36345 82.812286 
L 337.37572 83.01008 
L 337.366956 83.191532 
L 337.423044 83.358895 
L 337.496659 83.524005 
L 337.659663 84.012009 
L 337.891025 84.341101 
L 338.166205 84.607643 
L 339.06536 85.040986 
L 339.146863 85.681138 
L 338.686769 87.260106 
L 338.618412 87.696266 
L 338.649961 87.971261 
L 338.734093 88.231604 
L 338.819101 88.624937 
L 338.744609 88.783849 
L 338.597379 88.933743 
L 338.544797 89.067296 
L 338.756878 89.177182 
L 339.063608 89.27636 
L 339.19331 89.363141 
L 339.317755 89.505147 
L 339.438694 89.86636 
L 339.435188 90.317735 
L 339.356315 91.181039 
L 339.512309 92.290035 
L 339.492153 92.664209 
L 339.277442 93.543291 
L 339.275689 93.800254 
L 339.328271 94.353061 
L 339.317755 94.554236 
L 339.261667 94.911504 
L 339.31162 95.101972 
L 339.466738 95.212421 
L 339.716503 95.329632 
L 340.563953 95.486852 
L 341.123077 95.158323 
L 341.338664 95.112115 
L 341.603327 95.215802 
L 341.843453 95.422612 
L 342.052029 95.71733 
L 342.181731 96.059946 
L 342.188742 96.407071 
L 341.808398 96.962697 
L 341.194939 97.448446 
L 340.717317 97.997309 
L 340.790056 99.043192 
L 340.731339 99.466955 
L 340.627051 99.895225 
L 340.516629 100.214175 
L 340.390432 100.385483 
L 340.08896 100.515091 
L 339.948741 100.638501 
L 339.925079 100.828405 
L 340.062669 101.238644 
L 339.968898 101.375014 
L 339.642012 101.536179 
L 339.419414 101.715377 
L 339.261667 101.992626 
L 339.121448 102.4502 
L 338.972465 102.784364 
L 338.563201 103.256025 
L 338.40633 103.569339 
L 338.404578 103.573284 
L 338.260853 103.853351 
L 338.157441 104.118766 
L 338.126768 104.396579 
L 338.211776 104.703694 
L 338.225798 104.980379 
L 338.076815 105.214238 
L 337.901541 105.437953 
L 337.878308 105.51571 
L 337.828803 105.681391 
L 338.125892 106.158125 
L 338.716565 106.255613 
L 339.815533 106.124314 
L 340.018851 106.187427 
L 340.627928 106.487217 
L 340.811089 106.620206 
L 340.910995 106.81969 
L 340.974094 107.072145 
L 341.070494 107.340941 
L 341.25979 107.588324 
L 341.390369 107.632278 
L 341.506927 107.589451 
L 341.617349 107.565784 
L 341.745299 107.667216 
L 341.757568 107.776538 
L 341.690088 108.12479 
L 341.678695 108.255525 
L 341.803139 108.502908 
L 342.041512 108.528266 
L 342.313187 108.430215 
L 342.528774 108.305114 
L 342.990621 108.251017 
L 343.464737 108.472478 
L 343.888023 108.847215 
L 344.511122 109.624302 
L 344.549682 109.828294 
L 344.376161 110.112869 
L 343.788993 110.596364 
L 343.648774 110.787959 
L 343.574283 111.448961 
L 343.915191 111.842858 
L 344.297288 112.138703 
L 344.363892 112.511186 
L 344.209651 112.9496 
L 344.099228 113.48832 
L 344.066803 114.029294 
L 344.157069 114.47447 
L 344.157069 114.477851 
L 344.225425 114.845826 
L 343.999322 115.495558 
L 344.104486 115.852826 
L 344.332343 115.986379 
L 344.963329 116.046675 
L 345.224487 116.24954 
L 345.46286 116.872787 
L 345.622359 117.055366 
L 346.239323 116.959569 
L 346.393564 117.157926 
L 346.49347 117.466732 
L 346.635442 117.76145 
L 347.611718 118.40442 
L 347.995568 118.864811 
L 347.942986 119.570894 
L 347.74405 119.836873 
L 347.510059 119.977188 
L 347.298854 120.161457 
L 347.180544 120.551973 
L 347.234879 120.990951 
L 347.394378 121.36287 
L 347.499543 121.731409 
L 347.394378 122.152917 
L 347.185802 121.777053 
L 346.845771 121.600673 
L 345.067617 121.343711 
L 344.751247 121.358362 
L 344.207898 121.618706 
L 343.548868 122.114598 
L 342.938915 122.704598 
L 342.528774 123.241627 
L 342.108116 123.583117 
L 341.661168 123.835571 
L 340.220416 124.322448 
L 340.085455 124.568704 
L 340.025862 124.910757 
L 339.762951 125.37622 
L 339.762951 125.378474 
L 339.760322 125.379601 
L 339.758569 125.379601 
L 339.601699 125.744758 
L 339.442199 125.903669 
L 339.231871 125.920575 
L 338.527269 125.732924 
L 338.374781 125.604443 
L 338.264359 125.37622 
L 337.58079 123.788236 
L 337.454593 123.337425 
L 337.465109 122.872525 
L 337.610587 122.430166 
L 337.894531 122.050358 
L 338.11187 121.919622 
L 338.305548 121.88243 
L 338.473811 121.802975 
L 338.613154 121.547703 
L 338.635063 121.334694 
L 338.616659 121.062517 
L 338.531651 120.584657 
L 338.38705 120.084256 
L 338.186362 119.707265 
L 337.910305 119.413674 
L 337.529961 119.159529 
L 335.894655 118.461898 
L 335.572227 118.405931 
L 335.005139 118.307495 
L 334.238316 118.432595 
L 333.617846 118.978641 
L 333.115686 119.728678 
L 332.597752 120.342909 
L 331.68808 120.51309 
L 331.383103 120.834294 
L 331.169269 120.892899 
L 331.044825 120.808372 
L 330.680255 120.442088 
L 330.511992 120.322623 
L 330.109738 120.217809 
L 329.667171 120.174982 
L 327.928454 120.297828 
L 327.520066 120.243731 
L 327.090644 120.063969 
L 326.78041 119.823349 
L 326.641943 119.745584 
L 326.422851 119.710646 
L 326.212522 119.745584 
L 325.793617 119.91013 
L 325.576278 119.94056 
L 325.299345 119.824476 
L 324.510612 119.159529 
L 323.820033 118.802824 
L 323.590511 118.620064 
L 323.143475 118.264104 
L 322.940157 118.220714 
L 322.626417 118.26974 
L 322.477434 118.340179 
L 322.318811 118.505852 
L 322.168076 118.536282 
L 322.02698 118.515995 
L 321.909547 118.472041 
L 319.680938 117.238508 
L 319.389984 117.153981 
L 318.862409 117.204134 
L 318.180593 117.391221 
L 317.530327 117.674668 
L 317.0974 118.011086 
L 316.375272 118.265795 
L 315.691703 118.162108 
L 314.289512 117.684248 
L 314.144034 117.574363 
L 314.070419 117.198499 
L 313.923189 117.084105 
L 313.719871 117.058747 
L 313.569136 117.071708 
L 312.731326 117.420523 
L 312.620904 117.499415 
L 312.515739 117.676359 
L 312.480685 117.829635 
L 312.459652 117.980657 
L 312.3948 118.152529 
L 310.268727 121.339203 
L 310.060151 121.93202 
L 310.002311 122.050358 
L 309.730636 122.175458 
L 308.270604 122.427912 
L 307.299587 122.758695 
L 306.542403 122.849421 
L 306.530134 122.232373 
L 306.496832 121.92413 
L 306.363624 121.792832 
L 306.170823 121.515019 
L 306.474046 120.296701 
L 306.363624 120.018888 
L 306.247943 119.956338 
L 305.669539 119.478478 
L 305.595924 119.361267 
L 305.51004 119.148259 
L 305.436425 119.031048 
L 305.33126 118.998364 
L 305.219085 119.091907 
L 305.112168 119.212499 
L 305.015767 119.260961 
L 304.500462 119.003999 
L 304.2691 118.963989 
L 304.251573 118.871009 
L 304.279617 118.653493 
L 304.258584 118.401038 
L 304.065782 118.162108 
L 303.7573 118.416817 
L 303.511917 118.567839 
L 302.660085 119.72417 
L 301.382338 120.959394 
L 300.64093 121.418095 
L 298.726549 121.883281 
L 291.661645 123.600022 
L 286.939765 123.831063 
L 286.573443 123.729631 
L 285.816259 123.410681 
L 281.769184 122.572172 
L 278.589714 123.056794 
L 277.750152 123.388704 
L 275.482107 124.683661 
L 274.703891 124.917519 
L 274.316535 124.94006 
L 273.946707 125.016698 
L 273.585643 125.160394 
L 273.243859 125.378474 
L 270.999674 126.932115 
L 269.790962 127.768902 
L 269.15647 128.075454 
L 268.520226 128.1983 
L 267.910273 128.413562 
L 266.224137 129.458318 
L 262.58545 130.871612 
L 257.098531 131.957248 
L 253.671017 132.635412 
L 252.759593 132.673731 
L 250.153269 131.765346 
L 249.268136 131.830714 
L 248.894802 131.945671 
L 246.137743 132.082041 
L 244.944127 131.92313 
L 243.911764 131.365251 
L 243.420996 130.83043 
L 241.626192 128.874517 
L 240.788382 128.394403 
L 237.565094 127.391911 
L 236.452105 127.245961 
L 235.871948 127.308511 
L 234.73442 127.764394 
L 233.089931 128.846518 
L 232.783621 129.04808 
L 232.310381 129.181069 
L 229.591882 130.47039 
L 226.782241 131.090256 
L 225.753383 131.561354 
L 223.255729 133.225975 
L 222.549375 133.22034 
L 219.792316 132.694018 
L 219.415477 132.725575 
L 218.337542 133.014094 
L 218.020297 132.971267 
L 217.741611 132.883359 
L 217.461173 132.859691 
L 217.142174 133.008459 
L 216.879263 133.284581 
L 216.747808 133.4897 
L 216.590061 133.537035 
L 216.255288 133.34544 
L 215.936289 133.050159 
L 215.873191 132.799958 
L 216.020421 132.100074 
L 216.002893 131.645881 
L 215.869685 131.365251 
L 215.352627 130.869358 
L 215.091469 130.616904 
L 214.77247 130.424182 
L 214.434192 130.286684 
L 214.109935 130.207792 
L 213.039011 130.136789 
L 209.91672 129.015815 
L 209.899855 129.009761 
L 209.740355 128.98722 
L 209.582609 128.997363 
L 209.640449 129.530448 
L 209.449401 129.951957 
L 209.172468 130.338528 
L 208.962139 130.766798 
L 208.888524 131.250294 
L 208.874502 131.671803 
L 208.816662 132.100074 
L 208.615097 132.610618 
L 208.385488 133.532527 
L 208.397757 134.501772 
L 208.318884 135.443968 
L 207.812342 136.283605 
L 207.74048 136.610443 
L 207.784298 136.971092 
L 208.105049 138.155599 
L 208.194439 138.320146 
L 208.313625 138.429467 
L 208.581795 138.554568 
L 208.664173 138.616554 
L 208.746552 138.761941 
L 208.793876 138.911836 
L 208.813156 139.076382 
L 208.809651 139.269104 
L 208.699228 139.595942 
L 208.60458 139.793172 
L 208.52746 139.79768 
L 208.699228 139.973497 
L 209.258352 140.034356 
L 209.535285 140.148186 
L 209.731592 140.385989 
L 209.73354 140.389919 
L 209.898102 140.721844 
L 210.017288 141.081366 
L 210.078634 141.390172 
L 210.094409 141.881557 
L 209.996255 142.063008 
L 208.795629 142.300811 
L 208.473125 142.295176 
L 207.186614 142.087803 
L 206.874626 142.138519 
L 206.683578 142.207268 
L 206.622232 142.348147 
L 206.599446 142.503676 
L 206.51882 142.62765 
L 206.375096 142.697525 
L 206.2822 142.697525 
L 206.180541 142.664842 
L 205.716065 142.598347 
L 205.482951 142.516074 
L 205.27087 142.35829 
L 205.057035 142.093438 
L 204.860729 142.299684 
L 205.104359 142.59722 
L 205.081574 142.785434 
L 204.943107 142.93082 
L 204.844954 143.095367 
L 204.813405 143.415443 
L 204.760822 146.568869 
L 204.802888 147.188735 
L 204.441824 147.313835 
L 203.77403 147.041094 
L 203.437504 147.184227 
L 203.435751 147.187608 
L 203.29378 147.957369 
L 203.023858 148.024991 
L 202.615469 147.904399 
L 202.070367 148.110645 
L 201.697034 148.744035 
L 201.593622 150.283556 
L 201.404326 150.92709 
L 201.365164 150.93444 
L 201.08007 150.987949 
L 200.093277 150.237348 
L 199.591994 149.992783 
L 199.060914 149.975877 
L 198.798003 149.91051 
L 198.601696 149.732439 
L 198.563136 149.472096 
L 198.613965 149.186957 
L 198.608707 148.9052 
L 198.396625 148.652746 
L 198.065358 148.706843 
L 197.723574 148.837578 
L 197.3888 148.908581 
L 197.227183 148.851247 
L 197.228576 148.848565 
L 197.420412 148.549503 
L 198.15601 147.196181 
L 198.336804 147.036444 
L 198.314723 146.653964 
L 197.856526 145.141793 
L 196.666872 143.086519 
L 196.433633 142.764384 
L 196.225236 142.40054 
L 196.034781 141.724323 
L 195.796022 141.440347 
L 195.522761 141.177669 
L 195.315744 140.914104 
L 195.125289 140.421584 
L 195.148751 140.072826 
L 195.609707 139.35845 
L 195.754619 139.18274 
L 195.920232 139.069149 
L 196.102407 139.010579 
L 196.302523 138.992831 
L 196.388089 138.911188 
L 196.586825 138.384058 
L 196.727596 138.231421 
L 197.0257 138.065472 
L 197.178892 137.937683 
L 197.260319 137.740675 
L 197.352786 137.282764 
L 197.558423 137.143439 
L 197.638469 137.036948 
L 197.754398 136.930457 
L 198.422371 136.683753 
L 198.565903 136.596785 
L 199.366366 135.562936 
L 199.493337 135.331318 
L 199.671371 135.318007 
L 201.494496 134.115547 
L 201.762237 134.051653 
L 201.938891 133.884817 
L 202.143147 133.492575 
L 202.312901 133.047088 
L 202.397088 132.711642 
L 202.387427 132.434766 
L 202.319801 132.228883 
L 202.234235 132.037199 
L 202.165229 131.804694 
L 202.155568 131.653832 
L 202.165229 130.281874 
L 202.101744 129.946428 
L 201.936131 129.571935 
L 200.934171 128.098811 
L 200.350385 127.491812 
L 199.725195 127.026802 
L 199.075163 126.854642 
L 198.477576 127.088922 
L 197.89793 127.624926 
L 196.930473 128.848684 
L 196.698614 129.044805 
L 196.418452 129.124673 
L 196.252839 129.264886 
L 195.689754 129.934004 
L 195.431673 130.153198 
L 194.781642 130.313822 
L 193.37393 130.381266 
L 192.75702 130.613771 
L 192.562425 130.817879 
L 192.363689 131.223431 
L 192.177374 131.357432 
L 192.24362 131.20657 
L 192.256041 131.100967 
L 192.202216 131.013112 
L 192.061445 130.910171 
L 191.894452 131.247392 
L 191.647412 131.511844 
L 191.49008 131.776297 
L 191.599108 132.115293 
L 191.854429 131.753224 
L 192.233959 131.873026 
L 192.283643 131.520719 
L 192.380251 131.552666 
L 192.442355 131.611236 
L 192.485139 131.696429 
L 192.525162 131.804694 
L 192.603828 131.653832 
L 192.634191 131.49942 
L 192.612109 131.346783 
L 192.525162 131.208345 
L 192.763921 131.066357 
L 192.860529 131.194146 
L 192.921254 131.408903 
L 193.046844 131.520719 
L 193.233158 131.456824 
L 193.398772 131.337909 
L 193.576806 131.26869 
L 193.799003 131.357432 
L 192.798424 131.838416 
L 192.330567 132.211135 
L 192.061445 132.711642 
L 192.094568 132.949472 
L 192.322286 132.788848 
L 193.079966 131.875688 
L 193.304924 131.723939 
L 193.568525 131.655607 
L 192.930914 132.331824 
L 192.832927 132.516409 
L 192.689395 132.905988 
L 192.583127 133.077261 
L 192.509981 133.297342 
L 192.507221 133.575993 
L 192.479618 133.815598 
L 192.347128 133.916764 
L 192.184275 133.960248 
L 191.927575 134.157256 
L 191.767482 134.20074 
L 191.220958 134.245111 
L 191.009801 134.20074 
L 190.478459 133.688696 
L 190.314226 133.604391 
L 190.082368 133.668285 
L 189.933316 133.813823 
L 189.890532 134.003732 
L 190.057526 134.035679 
L 190.198297 134.093361 
L 190.777943 134.34894 
L 190.061666 134.145719 
L 189.327448 134.051653 
L 189.186676 134.097799 
L 188.780924 134.327641 
L 188.692597 134.423483 
L 188.631872 134.584107 
L 188.4773 134.678174 
L 188.115711 134.809513 
L 187.674076 135.184893 
L 187.640953 135.256775 
L 187.46706 135.158271 
L 187.202078 134.742069 
L 187.010243 134.647114 
L 186.770104 134.571683 
L 182.482103 131.895212 
L 182.012866 131.723939 
L 181.471863 131.337909 
L 181.135116 131.208345 
L 180.864614 131.180835 
L 180.641036 131.191484 
L 180.583072 131.194146 
L 180.31257 131.252716 
L 180.083472 131.357432 
L 180.120735 131.256266 
L 180.210442 130.910171 
L 179.967543 130.787706 
L 179.271967 130.017422 
L 177.884957 129.259562 
L 177.786969 129.422848 
L 177.29289 129.137097 
L 176.564192 129.307482 
L 175.442163 129.855023 
L 174.930142 129.935779 
L 174.736927 130.017422 
L 174.220766 130.315596 
L 174.121398 130.408776 
L 173.955784 130.818766 
L 173.867457 130.910171 
L 173.347156 131.208345 
L 171.855257 132.599826 
L 170.027992 133.784538 
L 169.49803 134.25576 
L 168.043394 136.18502 
L 167.894342 136.515142 
L 167.828097 136.733449 
L 167.666624 136.873662 
L 167.314696 137.04316 
L 166.712968 137.688317 
L 166.125041 138.030863 
L 166.083638 138.611238 
L 166.169205 139.303429 
L 166.134702 139.88558 
L 165.793815 140.16778 
L 165.274894 140.279596 
L 164.809797 140.450869 
L 164.631763 140.914104 
L 164.72561 140.879495 
L 164.784955 140.81915 
L 164.743551 140.961138 
L 164.424746 141.399525 
L 164.283975 141.672852 
L 164.22325 141.989662 
L 164.209449 142.247903 
L 164.118362 142.399652 
L 163.820258 142.40409 
L 163.820258 142.267426 
L 163.981731 141.87341 
L 163.897544 141.273511 
L 163.642224 140.722421 
L 163.294436 140.481929 
L 163.037736 140.393186 
L 162.832099 140.242324 
L 162.627843 140.189966 
L 162.362862 140.407385 
L 162.060618 140.941614 
L 161.895005 141.131523 
L 161.609322 141.22559 
L 161.739052 141.261087 
L 161.791497 141.300134 
L 161.841181 141.388876 
L 161.654866 141.569023 
L 161.406446 142.026934 
L 161.199429 142.120114 
L 161.032436 142.149399 
L 160.45279 142.40409 
L 160.32996 142.505256 
L 159.815179 143.094506 
L 159.732373 143.325236 
L 159.621964 143.914486 
L 159.526736 144.068897 
L 159.477052 143.934009 
L 159.053359 143.243593 
L 158.989874 142.942756 
L 158.831161 142.857563 
L 158.608963 142.906372 
L 158.367444 143.012863 
L 157.971353 143.376707 
L 157.590442 143.900287 
L 157.220573 144.276555 
L 156.852084 144.204673 
L 157.083942 144.068897 
L 157.083942 143.906499 
L 156.690611 143.859465 
L 155.966053 143.656245 
L 155.626546 143.608324 
L 155.260817 143.683755 
L 154.657709 144.007665 
L 154.409289 144.068897 
L 153.753737 143.831955 
L 153.397669 143.784034 
L 153.084384 144.173614 
L 152.713134 144.223309 
L 151.958214 144.204673 
L 151.457234 144.351098 
L 151.262639 144.367072 
L 151.054242 144.313827 
L 150.691273 144.114156 
L 150.515999 144.068897 
L 150.128188 144.183375 
L 149.914271 144.460252 
L 149.756939 144.80191 
L 149.527841 145.110734 
L 149.342906 145.250947 
L 149.275281 145.252721 
L 149.218696 145.18439 
L 149.061364 145.110734 
L 148.844686 145.080561 
L 148.310584 145.110734 
L 147.184414 144.817884 
L 146.853188 144.800135 
L 145.764281 145.41867 
L 145.569686 145.490551 
L 145.424774 145.727493 
L 144.526323 146.464943 
L 143.794865 146.41436 
L 142.269843 146.038979 
L 141.619811 145.706195 
L 140.59301 145.007792 
L 140.526765 144.961646 
L 139.908475 144.902189 
L 139.603471 144.810784 
L 138.311688 144.033401 
L 138.137794 143.838167 
L 138.012204 143.579039 
L 137.714101 143.447701 
L 137.366313 143.346534 
L 137.094431 143.176149 
L 136.300868 142.072193 
L 136.158717 142.05267 
L 136.084191 141.941742 
L 135.768146 141.718111 
L 135.695 141.591209 
L 135.627375 140.971787 
L 135.579071 140.780103 
L 135.181599 140.180204 
L 134.154797 139.24131 
L 133.947781 138.613901 
L 133.921559 138.435528 
L 133.852553 138.281117 
L 133.657958 138.01134 
L 133.467503 137.672343 
L 133.413679 137.599575 
L 133.18596 137.500183 
L 133.136276 137.490421 
L 132.838173 136.814204 
L 132.627016 136.454797 
L 132.374456 136.298611 
L 131.337993 135.205304 
L 131.215164 135.13786 
L 131.066112 135.111237 
L 130.874276 135.107687 
L 130.689342 135.063316 
L 130.559611 134.966587 
L 130.457483 134.866308 
L 130.358115 134.809513 
L 129.676341 134.838798 
L 129.335454 134.78644 
L 129.190542 134.572571 
L 128.997327 134.383549 
L 128.563973 134.218488 
L 128.091975 134.13862 
L 127.788351 134.20074 
L 127.629638 134.041003 
L 126.979607 133.753478 
L 126.64562 133.268057 
L 126.428943 133.049751 
L 126.220546 133.077261 
L 125.867238 133.020466 
L 124.580976 132.426779 
L 124.293913 132.182737 
L 124.048253 131.884562 
L 120.849159 130.407889 
L 120.35784 130.315596 
L 120.319197 129.785804 
L 119.717469 129.422848 
L 112.914907 128.366813 
L 110.136746 128.529211 
L 109.664749 128.396098 
L 109.30592 128.173354 
L 108.621386 127.621376 
L 107.638748 128.310905 
L 107.183311 128.778578 
L 106.944552 129.455682 
L 106.720975 129.838162 
L 106.642308 130.017422 
L 106.642308 130.688315 
L 106.553981 131.399141 
L 106.573303 131.786946 
L 106.758238 132.115293 
L 106.758238 132.251069 
L 106.625747 132.432103 
L 106.520859 132.607813 
L 106.447713 132.830557 
L 106.41045 133.145592 
L 106.439432 133.544046 
L 106.54018 133.768564 
L 106.66301 133.946936 
L 106.758238 134.20074 
L 106.874167 134.051653 
L 106.832763 134.513113 
L 106.598145 135.283397 
L 106.642308 135.541638 
L 106.068183 136.039483 
L 105.811482 136.376704 
L 105.607226 137.149651 
L 105.237357 137.746 
L 105.253918 137.937683 
L 105.02758 138.298865 
L 105.056562 138.677795 
L 105.240117 138.982182 
L 105.485776 139.127719 
L 105.358806 139.439205 
L 105.794921 139.601604 
L 105.553402 139.917527 
L 105.097965 140.327517 
L 104.895089 140.780103 
L 105.011018 140.780103 
L 105.088305 140.682487 
L 105.099346 140.690473 
L 105.129708 140.742831 
L 105.253918 140.780103 
L 105.081404 140.962025 
L 104.845405 141.143947 
L 104.638389 141.348055 
L 104.453454 141.837913 
L 104.227116 142.120114 
L 103.738557 142.565601 
L 103.76892 141.646229 
L 103.694394 141.266412 
L 103.495658 141.076503 
L 103.092666 141.198967 
L 101.295763 140.333729 
L 100.942455 140.320417 
L 99.667233 140.544048 
L 99.509901 140.735732 
L 99.446416 141.05698 
L 99.432615 141.510453 
L 99.326346 141.510453 
L 99.305645 141.372903 
L 99.200756 141.076503 
L 99.094488 141.49448 
L 99.094488 141.672852 
L 98.854349 141.510453 
L 98.862629 141.665753 
L 98.854349 141.821939 
L 98.216738 141.672852 
L 98.091148 141.606295 
L 97.960037 141.482943 
L 97.795804 141.413724 
L 97.569466 141.510453 
L 97.926915 141.510453 
L 97.926915 141.672852 
L 96.782804 142.308248 
L 96.527483 142.267426 
L 96.321847 142.393441 
L 96.131392 142.381017 
L 95.932656 142.310023 
L 95.715979 142.267426 
L 95.562787 142.27985 
L 95.47998 142.324221 
L 95.252262 142.565601 
L 94.966579 142.729774 
L 94.333109 142.883299 
L 94.09711 143.012863 
L 94.152314 143.034161 
L 94.199238 143.038598 
L 94.22408 143.069658 
L 94.213039 143.176149 
L 94.050186 143.174374 
L 93.630633 143.31015 
L 93.630633 143.459237 
L 93.978421 143.459237 
L 93.749322 143.698842 
L 93.506423 143.890525 
L 93.240062 144.018314 
L 92.937818 144.068897 
L 92.937818 143.906499 
L 93.031665 143.834618 
L 93.081349 143.768061 
L 93.115852 143.694404 
L 93.169676 143.608324 
L 92.948859 143.642934 
L 92.896415 143.676656 
L 92.821889 143.770723 
L 92.627293 143.547092 
L 92.424417 143.475211 
L 92.217401 143.50982 
L 92.010384 143.608324 
L 91.95656 143.68908 
L 91.944139 143.786697 
L 91.890314 143.870114 
L 91.70952 143.906499 
L 91.699859 143.976605 
L 91.422457 144.367072 
L 91.352072 143.921585 
L 90.771045 143.632285 
L 90.599912 143.176149 
L 90.82901 143.296838 
L 90.928378 143.177036 
L 90.909056 142.980028 
L 90.780706 142.877974 
L 89.915377 143.012863 
L 89.915377 142.877974 
L 90.06857 142.787457 
L 90.234183 142.72445 
L 90.414977 142.698714 
L 90.599912 142.714688 
L 90.232803 142.542528 
L 88.863734 142.565601 
L 88.405537 142.45556 
L 87.348373 141.821939 
L 87.149637 142.027822 
L 87.06131 141.829039 
L 87.000585 141.22559 
L 86.901217 141.383552 
L 86.834972 141.348055 
L 86.771487 141.252213 
L 86.665219 141.22559 
L 86.491325 141.301909 
L 86.4237 141.351604 
L 86.383676 141.411949 
L 86.293969 141.510453 
L 86.208402 141.64268 
L 86.147678 141.789992 
L 86.075912 141.917781 
L 85.948942 141.984338 
L 85.79989 141.880509 
L 85.696382 141.655104 
L 85.605294 141.515778 
L 85.485225 141.672852 
L 84.450142 140.654976 
L 84.372856 140.579545 
L 84.222424 140.259185 
L 83.998847 139.984971 
L 82.987226 139.645975 
L 82.707064 139.276807 
L 82.473825 139.439205 
L 82.40758 139.152567 
L 82.424141 139.087785 
L 82.473825 138.992831 
L 82.473825 138.83132 
L 82.001828 138.83132 
L 82.127418 138.694656 
L 81.932822 138.565092 
L 81.821033 138.533145 
L 81.65404 138.53137 
L 81.739607 138.329037 
L 81.869337 138.192374 
L 82.03633 138.113393 
L 82.230926 138.085883 
L 82.222645 137.985604 
L 82.210224 137.965193 
L 82.185382 137.966968 
L 82.127418 137.937683 
L 82.226786 137.537455 
L 82.126038 137.164737 
L 81.90798 136.877211 
L 81.65404 136.731674 
L 81.65404 136.596785 
L 81.877618 136.403327 
L 81.979746 136.341207 
L 82.127418 136.298611 
L 82.127418 136.135325 
L 82.059792 135.375689 
L 81.968705 135.003859 
L 81.77963 135.107687 
L 81.65404 135.107687 
L 81.449784 134.838798 
L 80.636899 135.164483 
L 80.264269 135.107687 
L 80.574794 135.022495 
L 80.64518 134.812175 
L 80.552712 134.521987 
L 80.367778 134.20074 
L 80.463005 134.053427 
L 80.613437 133.651424 
L 80.727986 133.442879 
L 80.966745 133.661186 
L 81.176522 133.449979 
L 81.391819 133.129619 
L 81.65404 133.009816 
L 81.65404 133.145592 
L 81.556052 133.38076 
L 81.695443 133.457078 
L 81.895559 133.396733 
L 82.001828 133.225461 
L 81.961804 133.031115 
L 81.872097 132.837656 
L 81.756168 132.671708 
L 81.65404 132.549243 
L 80.599636 131.769197 
L 79.278871 131.190597 
L 79.106357 130.984714 
L 78.984908 130.672341 
L 78.708886 130.888872 
L 78.394221 131.288213 
L 78.169263 131.520719 
L 78.169263 131.655607 
L 78.285192 131.655607 
L 78.285192 131.804694 
L 77.966387 131.833092 
L 77.829756 131.873026 
L 77.705546 131.952894 
L 77.646201 132.134816 
L 77.690365 132.333599 
L 77.687604 132.490673 
L 77.475067 132.549243 
L 77.560634 132.73649 
L 77.610318 132.799497 
L 77.705546 132.860729 
L 77.590997 133.009816 
L 77.76213 133.210374 
L 77.821475 133.306216 
L 77.927743 133.306216 
L 78.024351 133.086135 
L 78.120959 132.915749 
L 78.156842 132.715192 
L 78.053333 132.413467 
L 78.352817 132.700993 
L 78.245169 133.068386 
L 77.958106 133.406495 
L 77.705546 133.604391 
L 77.809054 133.827134 
L 77.624119 133.943387 
L 77.332916 133.968235 
L 77.117619 133.916764 
L 76.943725 133.716206 
L 76.943725 133.518311 
L 77.088637 133.366561 
L 77.349477 133.306216 
L 77.349477 133.145592 
L 77.059654 132.996505 
L 76.885761 132.842093 
L 76.713247 132.766662 
L 76.422044 132.860729 
L 76.335097 132.283903 
L 75.718188 131.841079 
L 74.960507 131.680455 
L 74.452627 131.952894 
L 74.336698 131.952894 
L 74.252511 131.550891 
L 74.070337 131.391155 
L 73.845379 131.474572 
L 73.632842 131.804694 
L 73.511392 131.660932 
L 73.296095 131.059258 
L 73.449287 130.762858 
L 73.519673 130.329795 
L 73.475509 129.929567 
L 73.296095 129.719247 
L 73.287814 129.618081 
L 73.312656 129.591458 
L 73.3582 129.591458 
L 73.412024 129.571935 
L 73.378902 129.506265 
L 73.343019 129.460119 
L 73.341639 129.389125 
L 73.412024 129.259562 
L 73.296095 129.259562 
L 73.217429 129.460119 
L 73.192587 129.554186 
L 73.180166 129.719247 
L 73.084938 129.631392 
L 73.083558 129.605657 
L 73.042155 129.435272 
L 72.826858 129.18413 
L 72.323118 129.098938 
L 71.954628 129.319906 
L 72.012593 129.855023 
L 71.841459 129.705048 
L 71.675846 129.660677 
L 71.504712 129.642929 
L 71.317017 129.571935 
L 71.548876 129.422848 
L 71.548876 129.259562 
L 71.167966 129.261336 
L 70.927826 129.200992 
L 70.795336 128.98801 
L 70.737371 128.529211 
L 70.853301 128.538973 
L 70.931967 128.521225 
L 70.96923 128.446681 
L 70.949908 128.315342 
L 70.905745 128.256772 
L 70.864341 128.2195 
L 70.84226 128.150281 
L 70.806377 127.919551 
L 70.72633 127.786437 
L 70.649044 127.798861 
L 70.610401 128.001194 
L 70.458589 128.198202 
L 70.119082 128.308243 
L 69.627763 128.366813 
L 69.449729 128.42272 
L 69.46215 128.554947 
L 69.569798 128.707584 
L 69.685728 128.826498 
L 69.789236 128.838035 
L 69.931387 128.791002 
L 70.09424 128.800763 
L 70.265374 128.975586 
L 70.085959 129.291509 
L 69.954849 129.615419 
L 69.776815 129.83905 
L 69.453869 129.855023 
L 68.571979 129.389125 
L 68.402226 129.259562 
L 68.297337 129.259562 
L 68.366343 129.602107 
L 68.402226 129.719247 
L 67.95507 129.747645 
L 67.778416 129.6873 
L 67.70665 129.497391 
L 67.781176 129.30127 
L 67.96059 129.208091 
L 68.402226 129.124673 
L 68.402226 128.975586 
L 68.195209 128.831823 
L 67.95507 128.60908 
L 67.692849 128.475966 
L 67.422348 128.602868 
L 67.184969 128.9605 
L 67.07456 129.321681 
L 67.122864 129.635829 
L 67.358863 129.855023 
L 67.281576 130.333345 
L 67.95507 130.86225 
L 68.065479 131.357432 
L 67.861222 131.21012 
L 67.593481 131.11694 
L 67.353342 131.183497 
L 67.242933 131.520719 
L 67.131144 131.453274 
L 67.022116 131.357432 
L 67.016595 131.463036 
L 66.994514 131.532255 
L 66.95311 131.588163 
L 66.884105 131.655607 
L 66.966911 131.687554 
L 66.988993 131.691104 
L 67.022116 131.804694 
L 66.145746 132.125942 
L 65.813139 132.386845 
L 65.508135 132.860729 
L 65.277657 133.339938 
L 64.951951 133.88038 
L 64.555859 134.210501 
L 64.107324 134.051653 
L 64.042459 134.190091 
L 63.994155 134.264634 
L 63.919629 134.306343 
L 63.770577 134.34894 
L 63.80646 134.419046 
L 63.843723 134.571683 
L 63.875465 134.647114 
L 63.669829 134.740294 
L 63.500075 134.763367 
L 63.371725 134.690598 
L 63.295819 134.498027 
L 63.123305 134.802413 
L 62.906628 134.849447 
L 62.68305 134.718996 
L 62.485695 134.498027 
L 62.518817 134.43147 
L 62.567121 134.268184 
L 62.601624 134.20074 
L 62.511917 134.133296 
L 62.460853 134.066739 
L 62.369766 133.916764 
L 63.644987 133.916764 
L 63.976213 133.762352 
L 64.170809 133.545821 
L 64.339182 133.290242 
L 64.580701 133.009816 
L 64.348843 132.711642 
L 64.021757 133.033777 
L 63.875465 133.145592 
L 63.875465 133.009816 
L 64.041079 132.820795 
L 64.099043 132.559892 
L 64.043839 132.299877 
L 63.875465 132.115293 
L 63.704332 131.99549 
L 63.660168 132.062047 
L 63.644987 132.331824 
L 63.563561 132.437428 
L 63.381386 132.41613 
L 63.18541 132.331824 
L 63.063961 132.251069 
L 62.916289 132.317626 
L 62.724454 132.317626 
L 62.55608 132.230658 
L 62.485695 132.035425 
L 62.572642 131.953782 
L 63.17989 131.804694 
L 63.063961 131.655607 
L 63.422789 131.680455 
L 63.527678 131.655607 
L 63.607724 131.589938 
L 63.709852 131.484334 
L 63.781618 131.388492 
L 63.770577 131.357432 
L 64.413708 131.309512 
L 64.580701 131.208345 
L 64.518596 131.559765 
L 64.767016 131.581063 
L 65.034758 131.380505 
L 65.043038 131.059258 
L 64.882945 130.935906 
L 64.547579 130.899522 
L 64.455111 130.762858 
L 64.488234 130.619095 
L 64.615204 130.496631 
L 64.81256 130.315596 
L 64.927109 130.153198 
L 64.985074 130.303172 
L 65.054079 130.398127 
L 65.274897 130.613771 
L 65.18519 130.235728 
L 65.158967 129.786692 
L 65.06926 129.596783 
L 64.870524 129.545312 
L 64.671789 129.579034 
L 64.524117 129.681975 
L 64.232914 130.153198 
L 63.861664 130.409663 
L 63.727794 130.384815 
L 63.644987 130.153198 
L 63.395187 130.4141 
L 62.734115 130.617321 
L 62.485695 130.762858 
L 62.369766 130.762858 
L 62.282819 130.491306 
L 62.122726 130.564075 
L 61.912949 130.775282 
L 61.664529 130.910171 
L 61.576202 130.610221 
L 61.457513 130.637731 
L 61.326402 130.801905 
L 61.200812 130.910171 
L 61.079363 130.83474 
L 60.971714 130.68299 
L 60.862686 130.643943 
L 60.738476 130.910171 
L 60.622546 130.910171 
L 60.41139 130.723812 
L 60.113286 130.537452 
L 59.779299 130.464684 
L 59.463254 130.613771 
L 59.463254 130.464684 
L 59.263138 130.571175 
L 59.067163 130.558751 
L 58.850485 130.499293 
L 58.585504 130.464684 
L 58.302582 130.564075 
L 57.947894 131.045059 
L 57.706374 131.208345 
L 57.706374 131.357432 
L 57.750538 131.548229 
L 57.517299 132.235095 
L 57.484177 132.711642 
L 56.921092 132.41613 
L 56.614708 132.304314 
L 56.329025 132.251069 
L 56.025401 132.291003 
L 55.774221 132.361997 
L 55.594806 132.344248 
L 55.506479 132.115293 
L 54.349947 132.549243 
L 54.275421 132.699218 
L 54.203656 132.805709 
L 54.118089 132.860729 
L 54.039423 132.816358 
L 53.831026 132.599826 
L 53.706816 132.549243 
L 53.320385 132.4747 
L 53.153392 132.466713 
L 52.958797 132.549243 
L 52.920154 132.282129 
L 52.784903 132.136591 
L 52.597208 132.12328 
L 52.381911 132.251069 
L 52.387431 132.157889 
L 52.362589 132.129492 
L 52.315666 132.129492 
L 52.254941 132.115293 
L 52.354309 131.979517 
L 52.354309 131.847291 
L 52.275642 131.734588 
L 52.136251 131.655607 
L 52.136251 131.520719 
L 52.348788 131.611236 
L 52.62757 131.681342 
L 52.913253 131.687554 
L 53.12855 131.588163 
L 53.277602 131.36187 
L 53.347988 131.013112 
L 53.538443 130.762858 
L 53.726138 130.613771 
L 53.88347 130.576499 
L 54.296123 130.613771 
L 55.542362 130.423862 
L 56.149611 130.464684 
L 56.472556 130.36618 
L 56.565024 130.129237 
L 56.580205 129.836387 
L 56.674052 129.571935 
L 57.046682 129.468994 
L 57.823684 129.951752 
L 58.065203 129.855023 
L 58.332944 130.009435 
L 58.570323 129.993461 
L 58.791141 129.949978 
L 58.991257 130.017422 
L 59.425991 129.586134 
L 59.653709 129.465444 
L 61.135947 129.417523 
L 61.316742 129.341205 
L 61.427151 129.483192 
L 61.699032 129.616306 
L 62.042679 129.705048 
L 62.369766 129.719247 
L 62.961833 129.644704 
L 63.239235 129.733446 
L 63.527678 130.017422 
L 63.582882 129.790241 
L 63.68639 129.667777 
L 64.001055 129.422848 
L 63.893407 129.16017 
L 63.731934 129.028831 
L 63.497315 128.981798 
L 63.17989 128.975586 
L 63.295819 128.826498 
L 63.455912 128.885068 
L 63.477994 128.757279 
L 63.378626 128.549622 
L 63.17989 128.366813 
L 63.257176 128.352614 
L 63.30686 128.321554 
L 63.355164 128.27807 
L 63.421409 128.231037 
L 63.546999 128.297594 
L 63.67673 128.244348 
L 63.823021 128.143182 
L 64.001055 128.068638 
L 64.001055 127.932862 
L 63.662928 127.573455 
L 63.527678 127.373785 
L 63.421409 127.175889 
L 63.644987 127.337401 
L 63.770577 127.175889 
L 63.669829 127.11022 
L 63.624285 127.043663 
L 63.588402 126.963795 
L 63.527678 126.863516 
L 63.669829 126.874165 
L 63.963792 126.851092 
L 64.107324 126.863516 
L 64.107324 126.728628 
L 63.770577 126.728628 
L 63.770577 126.580428 
L 64.170809 126.572441 
L 64.333662 126.613262 
L 64.455111 126.728628 
L 64.56276 126.629236 
L 64.646947 126.602613 
L 64.725613 126.638998 
L 64.81256 126.728628 
L 64.927109 126.728628 
L 65.098243 126.60705 
L 65.468112 126.803171 
L 65.633725 126.728628 
L 65.727573 126.728628 
L 65.760695 126.891914 
L 65.864204 127.175889 
L 65.912507 127.062299 
L 65.918028 127.01704 
L 65.895946 126.975331 
L 65.864204 126.863516 
L 65.918028 126.771224 
L 65.912507 126.70023 
L 65.846262 126.639885 
L 65.727573 126.580428 
L 65.727573 126.430453 
L 65.884905 126.405605 
L 66.020156 126.426016 
L 66.125044 126.484586 
L 66.20233 126.580428 
L 66.539077 125.983191 
L 66.663287 125.834991 
L 66.663287 125.672593 
L 66.434189 125.672593 
L 66.56944 125.462273 
L 66.663287 125.238642 
L 66.936549 125.454286 
L 67.209811 125.505757 
L 67.353342 125.385067 
L 67.242933 125.076244 
L 68.149665 124.703525 
L 68.650645 124.583723 
L 68.646505 124.446172 
L 68.534716 124.291761 
L 68.402226 124.183495 
L 68.228332 124.139124 
L 66.017396 124.481669 
L 65.201751 124.465696 
L 64.880185 124.547339 
L 64.927109 124.779844 
L 64.927109 124.940468 
L 64.637286 124.780731 
L 62.833482 124.481669 
L 62.647168 124.543789 
L 62.436011 124.733698 
L 62.244176 124.779844 
L 62.059241 124.76387 
L 61.558261 124.643181 
L 61.131807 124.676903 
L 59.748937 125.148125 
L 59.569523 125.076244 
L 59.463254 125.076244 
L 59.438412 125.170311 
L 59.337664 125.38773 
L 59.210694 125.338921 
L 59.039561 125.306974 
L 58.842205 125.315848 
L 58.643469 125.38773 
L 58.308102 125.134814 
L 57.764339 125.129489 
L 57.223336 125.323835 
L 56.89625 125.672593 
L 56.582965 125.482684 
L 56.113728 125.285676 
L 55.720396 125.321173 
L 55.63345 125.834991 
L 55.238738 125.537704 
L 55.062084 125.438313 
L 54.821945 125.38773 
L 54.305784 125.448962 
L 54.118089 125.38773 
L 53.949716 125.223556 
L 53.646091 124.756771 
L 53.538443 124.643181 
L 53.284503 124.655604 
L 53.022282 124.88101 
L 52.925674 124.727486 
L 52.958797 124.643181 
L 52.831827 124.643181 
L 52.797324 124.849063 
L 52.602728 125.38773 
L 52.536483 125.270589 
L 52.528202 125.23243 
L 52.557185 125.195158 
L 52.602728 125.076244 
L 52.577886 125.052283 
L 52.544764 125.047846 
L 52.511641 125.02566 
L 52.486799 124.940468 
L 52.561325 124.856162 
L 52.575126 124.834864 
L 52.544764 124.792268 
L 52.486799 124.643181 
L 52.333607 124.751446 
L 51.885071 124.845513 
L 51.675295 124.940468 
L 51.675295 125.076244 
L 51.7443 125.312298 
L 51.639412 125.553678 
L 51.437916 125.747136 
L 51.200537 125.834991 
L 51.281963 126.048861 
L 51.327507 126.133166 
L 51.172935 126.087907 
L 51.087368 126.085245 
L 50.968678 126.133166 
L 50.86655 125.970767 
L 50.565686 126.047086 
L 50.387652 125.720514 
L 50.297945 125.243079 
L 50.275863 124.860599 
L 50.193057 124.49853 
L 50.044005 124.216329 
L 49.9819 123.899519 
L 50.157174 123.438946 
L 50.303465 123.428297 
L 50.582248 123.30672 
L 50.883112 123.103499 
L 51.095648 122.842597 
L 50.976959 122.730781 
L 50.834808 122.683748 
L 50.681615 122.71747 
L 50.518763 122.842597 
L 50.453897 122.768941 
L 50.424915 122.706821 
L 50.391792 122.544422 
L 50.518763 122.680198 
L 50.709218 122.437931 
L 51.24056 122.640264 
L 51.559365 122.544422 
L 51.551085 122.389123 
L 51.588348 122.219625 
L 51.609049 122.023504 
L 51.559365 121.787449 
L 51.74154 121.841582 
L 51.861609 121.964934 
L 51.919574 122.15573 
L 51.907153 122.410421 
L 52.020322 122.410421 
L 52.110029 122.176141 
L 52.234239 122.006643 
L 52.365349 121.961384 
L 52.486799 122.098048 
L 52.536483 122.049239 
L 52.555805 122.01818 
L 52.565465 121.988007 
L 52.602728 121.936537 
L 52.597208 122.310142 
L 52.657933 122.411309 
L 52.780763 122.395335 
L 52.958797 122.410421 
L 53.096808 122.50715 
L 53.194795 122.60388 
L 53.317625 122.639377 
L 53.538443 122.544422 
L 53.4998 122.60388 
L 53.477718 122.623403 
L 53.451496 122.637602 
L 53.411473 122.680198 
L 53.658512 123.132784 
L 53.900032 123.296071 
L 54.159492 123.230401 
L 54.603888 122.903829 
L 54.958576 122.740543 
L 55.107628 122.612754 
L 55.285662 122.500938 
L 55.685894 122.508038 
L 55.862548 122.410421 
L 55.862548 122.247135 
L 55.63897 122.286182 
L 55.583766 122.318129 
L 55.506479 122.410421 
L 55.38227 121.719118 
L 55.252539 121.359711 
L 55.053803 121.205299 
L 55.053803 121.0429 
L 55.848747 120.860978 
L 56.068184 120.912449 
L 55.862548 121.354386 
L 56.051623 121.290492 
L 56.188254 121.192875 
L 56.444954 120.893813 
L 56.179973 120.792647 
L 56.083365 120.643559 
L 56.097166 120.216708 
L 56.135809 120.121754 
L 56.349726 119.96468 
L 56.444954 119.85109 
L 56.494638 119.694903 
L 56.51534 119.413589 
L 56.548462 119.256515 
L 56.341446 119.109203 
L 56.329025 119.094117 
L 56.182733 119.057732 
L 56.14271 119.118077 
L 56.134429 119.20682 
L 56.097166 119.256515 
L 55.680373 119.238767 
L 55.484398 119.295562 
L 55.401591 119.472159 
L 55.314644 119.799619 
L 55.099347 120.094244 
L 54.830226 120.246881 
L 54.581806 120.148377 
L 54.88267 119.883037 
L 54.918553 119.597286 
L 54.730858 119.402053 
L 54.349947 119.405603 
L 54.296123 119.488133 
L 54.13465 119.655856 
L 53.964897 119.751698 
L 53.88347 119.621247 
L 53.927634 119.413589 
L 54.038043 119.20682 
L 54.349947 118.809253 
L 54.329246 118.638868 
L 54.412052 118.404588 
L 54.435514 118.109076 
L 54.245059 117.752331 
L 54.118089 117.752331 
L 54.047703 118.364654 
L 53.668173 118.58296 
L 53.196176 118.498655 
L 52.831827 118.20048 
L 52.693816 117.717722 
L 52.830446 117.27401 
L 53.143731 116.924364 
L 53.538443 116.724694 
L 53.335567 116.394572 
L 53.008481 116.246372 
L 52.944996 116.249922 
L 52.657933 116.261458 
L 52.381911 116.413208 
L 52.227338 116.695409 
L 52.147292 116.979385 
L 51.973398 117.165744 
L 51.559365 117.158644 
L 51.559365 117.320156 
L 51.807785 117.490541 
L 51.704277 117.579283 
L 50.706457 117.64584 
L 50.471839 117.733695 
L 50.275863 117.916505 
L 50.151653 117.747894 
L 50.031584 117.656489 
L 49.917035 117.653827 
L 49.812146 117.752331 
L 49.783164 117.593482 
L 49.758322 117.524263 
L 49.696217 117.455044 
L 49.563727 117.550886 
L 49.516803 117.565085 
L 49.469879 117.523376 
L 49.337389 117.455044 
L 49.505762 117.254486 
L 49.621691 117.038842 
L 49.654814 116.808999 
L 49.580288 116.562295 
L 49.839748 116.437168 
L 49.939116 116.413208 
L 49.939116 116.264121 
L 49.790065 115.841707 
L 49.875631 114.850454 
L 49.580288 114.938309 
L 49.48368 114.81052 
L 49.369131 114.808745 
L 49.244921 114.908136 
L 49.116571 115.073197 
L 49.186957 114.706691 
L 49.287705 114.381006 
L 49.331868 114.066858 
L 49.2325 113.732299 
L 49.294605 113.591199 
L 49.22698 113.498019 
L 49.162115 113.371118 
L 49.2325 113.124414 
L 49.500241 113.306336 
L 49.652054 112.962902 
L 49.700357 112.476594 
L 49.638252 112.230777 
L 49.389833 112.14026 
L 48.412715 111.485341 
L 46.930477 111.069139 
L 46.297007 110.729256 
L 46.454339 110.281106 
L 46.752443 110.196801 
L 47.891033 110.281106 
L 48.259523 110.231411 
L 49.716919 109.688307 
L 49.941877 109.525021 
L 50.333828 109.014752 
L 50.453897 108.683743 
L 50.520143 108.193885 
L 50.538084 107.72355 
L 50.518763 107.451998 
L 50.387652 107.249665 
L 50.228939 107.063306 
L 50.124051 106.809503 
L 50.157174 106.395963 
L 50.215138 106.316095 
L 50.435956 106.119087 
L 50.518763 105.963787 
L 50.569827 105.761455 
L 50.602949 105.583082 
L 50.590528 105.405598 
L 50.518763 105.20504 
L 50.761662 104.986733 
L 50.61813 104.499537 
L 50.157174 103.701743 
L 49.7321 103.85438 
L 49.112431 103.85438 
L 48.495522 103.743452 
L 48.075968 103.567742 
L 47.987641 103.445277 
L 47.926916 103.291753 
L 47.830309 103.162189 
L 47.659175 103.105394 
L 47.522544 103.099182 
L 47.390054 103.067235 
L 47.292066 103.002453 
L 47.253423 102.890637 
L 47.199598 102.553416 
L 47.050547 102.441601 
L 46.560608 102.361732 
L 45.685618 102.015637 
L 45.241223 101.969491 
L 44.70712 102.077757 
L 44.407636 102.200221 
L 44.294467 102.212645 
L 44.211661 102.285414 
L 44.161977 102.444263 
L 44.092971 102.601337 
L 43.94944 102.673218 
L 43.811429 102.558741 
L 43.423618 101.779582 
L 43.514705 101.502706 
L 43.498144 101.183233 
L 43.415337 100.86021 
L 43.307689 100.575347 
L 43.135175 100.277173 
L 42.761165 99.896468 
L 42.602453 99.681711 
L 42.304349 99.835235 
L 42.227063 99.568121 
L 42.264326 98.923851 
L 42.036608 98.711756 
L 41.771627 98.735717 
L 41.477663 98.852857 
L 41.154717 98.923851 
L 40.094793 98.930063 
L 39.9278 98.998394 
L 39.706982 100.412949 
L 39.626936 100.352604 
L 39.618655 100.334855 
L 39.581392 100.277173 
L 39.475124 100.277173 
L 39.524808 100.586884 
L 39.524808 100.868197 
L 39.439241 101.076742 
L 39.233605 101.171696 
L 39.125956 101.078517 
L 38.92584 100.544287 
L 38.769888 100.277173 
L 38.761607 100.735084 
L 38.587713 100.771468 
L 38.357235 100.592208 
L 38.026008 100.223927 
L 37.91698 100.04378 
L 37.885237 99.824586 
L 37.950102 99.5202 
L 37.482245 99.643552 
L 37.055791 99.281483 
L 36.643138 98.815585 
L 36.223585 98.626564 
L 36.300871 98.972659 
L 36.336754 99.072938 
L 36.223585 99.072938 
L 36.132498 98.93805 
L 35.759868 98.557345 
L 35.78885 98.334601 
L 35.834394 98.14203 
L 35.839915 97.950346 
L 35.759868 97.73204 
L 35.643939 97.73204 
L 35.503168 98.31774 
L 35.147099 98.460615 
L 34.716505 98.312415 
L 34.164461 97.842968 
L 34.004368 97.745351 
L 33.122478 97.4667 
L 33.096256 97.326487 
L 33.192864 96.987491 
L 33.64416 97.186274 
L 33.830475 96.885437 
L 33.991947 96.488759 
L 34.360437 96.392917 
L 34.360437 96.230518 
L 34.043012 96.009549 
L 33.996088 95.610209 
L 34.131339 95.372379 
L 34.360437 95.634169 
L 34.389419 95.431836 
L 34.430822 95.343981 
L 34.497068 95.293398 
L 34.589535 95.201993 
L 34.658541 95.466446 
L 34.670961 95.698064 
L 34.617137 95.903059 
L 34.473606 96.094742 
L 34.559173 96.162186 
L 34.64612 96.203895 
L 34.749628 96.225194 
L 34.886259 96.230518 
L 35.017369 96.26779 
L 35.050492 96.355645 
L 35.075334 96.456811 
L 35.182982 96.527805 
L 35.428642 96.545554 
L 35.672921 96.494083 
L 35.78885 96.35032 
L 35.643939 96.094742 
L 35.643939 95.945655 
L 35.90892 96.121365 
L 36.016569 96.124915 
L 36.223585 96.094742 
L 36.422321 96.006887 
L 36.852915 95.700726 
L 36.981265 95.634169 
L 37.214504 95.437161 
L 37.233825 95.001436 
L 37.080633 94.548849 
L 36.800471 94.30747 
L 36.800471 94.145959 
L 37.231065 94.350954 
L 37.438082 94.579909 
L 37.587134 94.555949 
L 37.843834 93.996871 
L 37.603695 93.850446 
L 37.186902 93.464417 
L 36.840494 93.336628 
L 36.618296 93.127196 
L 36.452683 93.102348 
L 36.300871 93.19464 
L 36.168381 93.48749 
L 36.049691 93.549609 
L 35.721225 93.531861 
L 35.726746 93.440456 
L 35.879938 93.216825 
L 35.991727 92.805948 
L 35.925481 92.54327 
L 35.41208 91.763224 
L 35.516969 91.911424 
L 35.470045 91.646084 
L 35.260268 90.986728 
L 35.234046 90.855389 
L 35.250608 90.711627 
L 35.056012 89.888097 
L 35.061533 89.579273 
L 35.097415 89.258026 
L 35.185742 89.007772 
L 35.349976 88.906606 
L 35.605296 88.862235 
L 35.977926 88.667001 
L 36.16562 88.621743 
L 36.615536 88.659014 
L 37.03923 88.768168 
L 37.41324 88.950977 
L 37.718244 89.20478 
L 38.29375 89.836626 
L 38.569772 90.23508 
L 38.653958 90.570526 
L 39.04729 91.205035 
L 39.475124 91.763224 
L 39.624176 91.909649 
L 39.738725 91.996617 
L 39.833952 92.114644 
L 39.9278 92.358686 
L 39.962303 92.599178 
L 39.954022 92.813047 
L 39.963683 93.019817 
L 40.05339 93.238124 
L 39.941601 93.331303 
L 39.880876 93.365025 
L 39.813251 93.387211 
L 39.68076 93.262084 
L 39.502726 93.223037 
L 39.30675 93.267409 
L 39.117675 93.387211 
L 39.407498 93.541623 
L 39.403358 93.738631 
L 39.257066 93.991547 
L 39.117675 94.30747 
L 39.519287 94.360715 
L 39.693181 94.598545 
L 39.798069 94.931329 
L 39.991285 95.269438 
L 40.286628 96.26779 
L 40.55851 96.739012 
L 40.922859 96.608561 
L 41.013946 96.334347 
L 40.906298 96.146213 
L 40.633036 95.945655 
L 40.517107 95.038707 
L 40.606814 94.664214 
L 40.798649 94.284397 
L 41.05535 94.057216 
L 41.338272 94.145959 
L 41.338272 93.996871 
L 41.44454 93.996871 
L 41.636376 94.215178 
L 41.832351 94.612744 
L 42.148396 95.498393 
L 42.227063 95.454022 
L 42.421658 95.383028 
L 42.496184 95.335994 
L 42.627295 95.617308 
L 42.877094 95.586248 
L 43.179339 95.429174 
L 43.481583 95.335994 
L 44.823049 95.201993 
L 45.658016 94.798215 
L 45.928517 94.739645 
L 46.008564 94.697936 
L 46.229381 94.502703 
L 46.328749 94.442358 
L 46.502643 94.451232 
L 46.661356 94.518677 
L 46.822828 94.548849 
L 47.024324 94.442358 
L 47.049166 94.529326 
L 47.140254 94.442358 
L 47.605351 94.665989 
L 47.998682 94.409524 
L 48.398914 93.980898 
L 48.887473 93.698697 
L 48.887473 93.549609 
L 48.72186 93.419158 
L 48.648714 93.434244 
L 48.528644 93.549609 
L 48.412715 93.387211 
L 48.085629 93.53896 
L 47.515644 93.477728 
L 47.369352 93.549609 
L 46.934617 93.336628 
L 46.480561 93.352601 
L 45.417877 93.799863 
L 45.061808 93.968474 
L 45.006604 93.954275 
L 45.170837 93.698697 
L 44.879634 93.492814 
L 44.366233 92.649761 
L 44.135755 92.507773 
L 43.714821 92.37111 
L 43.546448 92.263732 
L 43.166918 91.962895 
L 42.959901 91.600826 
L 43.206941 91.851079 
L 43.507805 92.082697 
L 43.968761 92.37111 
L 44.233742 92.358686 
L 44.233742 92.209599 
L 44.029486 91.959345 
L 43.814189 91.758787 
L 43.57957 91.598164 
L 43.307689 91.46505 
L 43.378074 91.208584 
L 43.466401 90.670805 
L 43.539547 90.409902 
L 43.291127 90.173848 
L 43.135175 90.248391 
L 42.94334 90.404578 
L 42.602453 90.409902 
L 42.678359 90.184497 
L 42.728043 90.097529 
L 42.359553 89.96619 
L 42.149777 89.937793 
L 41.916538 89.962641 
L 41.949661 89.861474 
L 41.991064 89.616545 
L 42.022806 89.515379 
L 41.801989 89.510054 
L 41.641896 89.426636 
L 41.338272 89.20478 
L 41.456961 89.066342 
L 41.585312 88.965176 
L 41.734364 88.908381 
L 41.916538 88.906606 
L 41.577031 88.398112 
L 41.452821 88.113248 
L 41.338272 87.715682 
L 41.651557 87.500926 
L 42.522406 87.312792 
L 43.019246 86.963147 
L 43.113093 87.000418 
L 43.176578 87.077624 
L 43.20142 87.119333 
L 43.229022 87.141519 
L 43.419478 87.172579 
L 43.585091 87.176128 
L 43.974282 87.353613 
L 44.211661 87.429932 
L 44.465601 87.418395 
L 44.359332 87.119333 
L 44.526326 87.002193 
L 44.665717 86.864643 
L 44.796827 86.816722 
L 44.938979 86.971133 
L 44.990043 86.800748 
L 45.001083 86.635687 
L 44.980382 86.450215 
L 44.938979 86.225697 
L 44.823049 86.389871 
L 44.482162 85.778435 
L 44.359332 85.630235 
L 45.045247 85.332061 
L 45.150135 85.800621 
L 45.437198 85.857416 
L 45.617993 85.57344 
L 45.402695 85.021462 
L 45.684238 84.930945 
L 45.947839 84.790732 
L 46.168656 84.620347 
L 46.328749 84.439312 
L 46.671016 84.671817 
L 47.035365 84.441087 
L 47.165096 84.096766 
L 46.802127 83.99205 
L 47.083669 83.40635 
L 47.082289 83.161421 
L 46.802127 82.936015 
L 46.510924 83.196031 
L 46.320468 83.329144 
L 46.123113 83.377065 
L 45.807068 83.38239 
L 45.721501 83.314058 
L 45.551747 83.005234 
L 45.4648 82.936015 
L 45.253644 83.00346 
L 45.112872 83.115275 
L 44.987282 83.136573 
L 44.823049 82.936015 
L 44.633974 83.1135 
L 44.052948 83.456933 
L 43.833511 83.518166 
L 43.654096 83.427648 
L 43.390495 83.028307 
L 43.137935 82.936015 
L 42.82051 82.716822 
L 42.663177 82.215427 
L 42.6963 81.665224 
L 42.959901 81.299605 
L 42.959901 81.150518 
L 42.872954 81.159392 
L 42.602453 81.150518 
L 42.81913 80.890502 
L 43.20418 80.596765 
L 43.626494 80.355386 
L 43.94944 80.256882 
L 44.120573 80.06786 
L 43.986703 79.647221 
L 43.590611 78.984315 
L 43.113093 78.378204 
L 42.877094 78.195395 
L 42.349893 77.921181 
L 42.221542 77.854624 
L 41.890316 77.602596 
L 41.655697 77.328381 
L 41.676399 77.102088 
L 41.539768 76.665476 
L 41.465242 76.231525 
L 41.332752 75.896079 
L 41.038788 75.762965 
L 40.223143 75.808224 
L 39.811871 75.776276 
L 39.475124 75.627189 
L 39.646257 75.454141 
L 39.745625 75.014866 
L 39.871215 74.793898 
L 40.090653 74.703381 
L 40.247985 74.798335 
L 40.231424 74.945647 
L 39.9278 75.017529 
L 39.9278 75.153305 
L 40.111354 75.145318 
L 40.268687 75.211875 
L 40.402558 75.326352 
L 40.517107 75.464791 
L 40.417739 75.128457 
L 40.510206 74.956296 
L 40.695141 74.85513 
L 40.864894 74.732666 
L 41.162998 74.281854 
L 42.959901 72.919658 
L 42.802569 72.794531 
L 42.728043 72.77057 
L 42.728043 72.634795 
L 42.754265 72.487482 
L 42.757025 72.357918 
L 42.728043 72.174221 
L 43.344952 72.128963 
L 43.57267 72.038445 
L 43.779686 71.876934 
L 43.593371 71.557462 
L 43.862493 71.346255 
L 44.846511 71.033881 
L 44.912756 70.992172 
L 44.909996 70.911417 
L 44.938979 70.686011 
L 45.170837 69.860706 
L 45.150135 69.394809 
L 45.045247 69.093972 
L 44.783026 68.932461 
L 44.294467 68.88454 
L 43.905276 69.048713 
L 43.593371 69.342451 
L 43.267666 69.485326 
L 42.843972 69.182714 
L 40.459142 69.615777 
L 36.890178 70.26271 
L 36.507888 70.419784 
L 36.336754 70.611467 
L 36.16286 70.608805 
L 35.417601 71.034769 
L 35.28511 71.131498 
L 35.080854 71.131498 
L 34.186543 70.970874 
L 34.004368 70.994835 
L 33.783551 71.108425 
L 33.602757 71.131498 
L 33.449564 71.31697 
L 33.421962 71.362228 
L 33.370898 71.474044 
L 33.256349 71.431447 
L 33.074174 71.280585 
L 31.735468 71.614257 
L 31.059214 71.615144 
L 30.402282 71.280585 
L 30.330516 70.805813 
L 30.75421 69.665473 
L 31.020571 68.589915 
L 31.656802 67.975817 
L 31.801713 67.469985 
L 31.917642 66.271963 
L 31.845877 66.037683 
L 31.528451 65.430684 
L 31.456686 65.148484 
L 31.481528 64.955025 
L 31.553293 64.882256 
L 31.63196 64.831673 
L 31.685784 64.702997 
L 31.685784 64.182079 
L 31.771351 63.611465 
L 31.716146 63.415344 
L 31.456686 63.362099 
L 31.549153 63.112732 
L 31.801713 62.022975 
L 31.789292 61.889862 
L 31.698205 61.462123 
L 31.685784 61.264228 
L 31.731328 61.071657 
L 31.88452 60.775257 
L 31.917642 60.593335 
L 31.986648 60.396327 
L 32.342716 59.781342 
L 32.497289 59.62693 
L 33.402641 59.932204 
L 33.670382 59.752944 
L 34.236227 59.50624 
L 34.418401 59.395312 
L 35.133298 58.68271 
L 35.28511 58.436007 
L 35.333414 58.254972 
L 35.354116 57.974546 
L 35.41208 57.839657 
L 35.424501 57.754465 
L 35.40932 57.656848 
L 35.40794 57.575205 
L 35.465905 57.541483 
L 35.65222 57.548582 
L 35.740547 57.526397 
L 35.812312 57.45984 
L 35.919961 57.184738 
L 35.986206 56.788947 
L 35.977926 56.376295 
L 35.864756 56.052385 
L 35.975165 55.732025 
L 36.062112 55.596249 
L 36.179422 55.569626 
L 36.394719 55.5785 
L 36.629337 55.532354 
L 37.072353 55.327359 
L 37.635437 55.17561 
L 37.951483 54.909383 
L 38.702262 53.927891 
L 38.852694 53.832049 
L 39.003126 53.778804 
L 39.233605 53.656339 
L 39.447522 53.485954 
L 41.262366 51.301115 
L 41.618434 51.018915 
L 42.31539 50.976318 
L 43.779686 51.098783 
L 44.359332 50.962119 
L 44.545647 51.015365 
L 44.990043 51.260294 
L 45.9575 51.344599 
L 46.328749 51.260294 
L 46.802127 50.886688 
L 47.21754 50.364883 
L 47.736461 49.95578 
L 48.528644 49.920283 
L 49.10415 50.032099 
L 49.754182 50.056059 
L 50.130952 49.965542 
L 50.706457 49.616784 
L 50.968678 49.608797 
L 51.247461 49.821779 
L 51.422734 50.13504 
L 51.675295 50.800608 
L 51.443436 50.962119 
L 51.327507 50.962119 
L 51.250221 50.868052 
L 51.2447 50.857403 
L 51.219858 50.9 
L 51.095648 50.962119 
L 51.827107 51.74394 
L 52.765581 52.358925 
L 53.773061 52.797313 
L 54.976517 53.085726 
L 55.451275 53.084838 
L 55.63345 53.048454 
L 56.226897 52.659762 
L 56.497398 52.601192 
L 56.970776 52.707683 
L 57.380669 52.896704 
L 57.769859 52.976572 
L 58.181132 52.749392 
L 58.52616 52.900254 
L 59.0368 52.941963 
L 59.496377 52.831035 
L 59.893849 52.249772 
L 60.811622 51.775 
L 61.086263 51.395182 
L 60.775739 51.384533 
L 59.928351 51.098783 
L 59.678551 51.248757 
L 59.5295 51.25142 
L 59.463254 51.030451 
L 59.428752 50.814807 
L 59.332144 50.753575 
L 59.218975 50.736714 
L 59.116847 50.651521 
L 59.003678 50.476698 
L 58.929152 50.385294 
L 58.890509 50.261054 
L 58.875327 49.987728 
L 58.824263 49.840415 
L 58.697293 49.808468 
L 58.545481 49.808468 
L 58.411611 49.757885 
L 57.858187 49.214781 
L 57.706374 48.999137 
L 57.706374 48.864248 
L 57.910631 48.775506 
L 58.076244 48.655704 
L 58.353646 48.342443 
L 58.53582 48.248376 
L 58.684872 48.341556 
L 58.824263 48.376165 
L 58.991257 48.107276 
L 59.314202 48.517266 
L 59.337664 48.58116 
L 59.489476 48.605121 
L 59.53778 48.543888 
L 59.587464 48.459583 
L 59.748937 48.418761 
L 62.55056 48.85005 
L 63.30134 49.10829 
L 63.644987 49.473022 
L 63.345503 49.982403 
L 61.872926 50.726952 
L 61.432671 51.098783 
L 61.508577 51.658747 
L 62.122726 51.83712 
L 63.527678 51.706668 
L 64.960232 51.182201 
L 68.96255 51.008265 
L 69.851341 51.152916 
L 71.317017 51.098783 
L 71.134843 51.141379 
L 70.989931 51.219472 
L 70.890564 51.349924 
L 70.84226 51.54427 
L 71.532315 51.290466 
L 72.310697 51.286029 
L 73.11392 51.491024 
L 73.875741 51.855756 
L 73.979249 51.723529 
L 74.041354 51.750152 
L 74.104839 51.83002 
L 74.220768 51.855756 
L 74.36982 51.791861 
L 74.549235 51.618813 
L 74.684485 51.54427 
L 75.642282 51.39252 
L 75.900362 51.179538 
L 76.152922 51.0411 
L 76.480008 51.086359 
L 77.059654 51.260294 
L 77.571675 51.288692 
L 78.053333 51.395182 
L 78.289332 51.503448 
L 78.686804 51.750152 
L 78.980767 51.855756 
L 79.283011 51.899239 
L 80.595496 51.871729 
L 80.89498 51.808722 
L 81.133739 51.625913 
L 81.27313 51.343712 
L 81.422182 50.754462 
L 81.547772 50.502434 
L 81.763069 50.593838 
L 82.03771 50.580527 
L 82.333054 50.488235 
L 82.589754 50.353346 
L 82.28475 49.989502 
L 81.91074 49.654056 
L 81.510509 49.406465 
L 81.133739 49.310623 
L 80.206305 49.310623 
L 80.061393 49.380729 
L 79.686003 49.688666 
L 79.502449 49.757885 
L 78.606758 49.550227 
L 77.110718 48.631743 
L 76.190185 48.418761 
L 76.50347 47.753193 
L 77.083116 47.375151 
L 78.285192 46.914577 
L 78.794452 46.594217 
L 79.51211 45.873629 
L 79.788132 45.758264 
L 84.79517 45.296803 
L 85.501786 45.060748 
L 86.189081 44.680931 
L 86.541009 44.412041 
L 86.665219 44.382756 
L 86.789429 44.497234 
L 86.926059 44.704004 
L 87.088912 44.842442 
L 87.290408 44.75015 
L 87.443601 44.652533 
L 87.657518 44.56734 
L 87.845213 44.462624 
L 87.925259 44.302888 
L 87.991504 44.140489 
L 88.147457 44.028674 
L 88.339292 43.959455 
L 88.518706 43.92307 
L 88.68984 43.95413 
L 88.965862 44.084581 
L 89.215662 44.342822 
L 89.327451 44.75015 
L 89.515145 44.748375 
L 92.794286 44.018025 
L 94.72644 43.92307 
L 95.343349 44.199059 
L 95.692517 44.194622 
L 95.949217 43.789069 
L 95.778084 43.287674 
L 95.115631 43.16876 
L 93.746562 43.341807 
L 93.629253 43.379079 
L 93.506423 43.438537 
L 93.360131 43.488232 
L 93.169676 43.490895 
L 92.973701 43.40304 
L 92.634194 43.096878 
L 92.527925 43.030321 
L 92.256044 42.982401 
L 91.662596 42.774743 
L 91.317569 42.732147 
L 87.290408 42.894545 
L 86.975743 43.000149 
L 86.706622 43.198932 
L 86.42646 43.320509 
L 86.073152 43.19272 
L 85.92962 43.006361 
L 85.857854 42.804028 
L 85.777808 42.643404 
L 85.601154 42.58306 
L 85.667399 42.537801 
L 85.711563 42.492542 
L 85.762627 42.451721 
L 85.844053 42.420661 
L 85.777808 42.202355 
L 85.67292 42.04883 
L 85.534909 41.93524 
L 85.369296 41.839398 
L 85.29477 41.976061 
L 85.137437 41.839398 
L 84.996666 41.965412 
L 84.79517 42.037294 
L 84.336973 42.137573 
L 84.336973 42.000909 
L 84.499826 41.981386 
L 84.611615 41.896193 
L 84.6682 41.743556 
L 84.67648 41.527025 
L 84.839333 41.632628 
L 84.908339 41.690311 
L 84.897298 41.596244 
L 84.911099 41.548323 
L 84.955263 41.531462 
L 85.021508 41.527025 
L 84.833813 41.246599 
L 84.495686 40.850807 
L 84.321792 40.726568 
L 84.106495 40.572156 
L 83.758707 40.634276 
L 83.434382 40.323677 
L 82.475205 39.883515 
L 82.127418 39.604864 
L 81.77549 39.172688 
L 81.430462 38.890487 
L 80.496128 38.400629 
L 80.563753 38.35892 
L 80.577554 38.347384 
L 80.577554 38.323423 
L 80.610677 38.23823 
L 80.414701 38.1557 
L 80.330515 37.925857 
L 80.26841 37.62857 
L 80.14834 37.345482 
L 80.461625 37.175984 
L 80.802512 36.800603 
L 81.077154 36.346242 
L 81.311773 35.515613 
L 81.514649 35.200577 
L 81.556052 34.937012 
L 81.191703 34.678772 
L 81.590555 34.077098 
L 82.225405 33.389344 
L 82.897519 32.926996 
L 83.41092 33.012189 
L 83.517188 33.012189 
L 83.685562 32.789445 
L 83.950543 32.761048 
L 87.135836 33.336986 
L 90.514345 34.109045 
L 95.021784 34.761302 
L 99.300124 34.874892 
L 99.780402 34.812773 
L 100.031582 34.705394 
L 100.429054 34.423194 
L 100.659532 34.365511 
L 100.818245 34.239497 
L 100.941075 33.987468 
L 101.057004 33.816195 
L 101.189494 33.920024 
L 101.371669 33.741652 
L 101.578685 33.405318 
L 101.769141 33.310364 
L 101.991338 33.486961 
L 102.688294 33.630724 
L 103.252759 34.0558 
L 108.836683 35.360314 
L 109.399768 35.842185 
L 109.664749 36.004584 
L 111.109724 36.268149 
L 115.473631 36.153671 
L 115.891804 35.916729 
L 116.053277 35.870583 
L 116.261674 35.882119 
L 116.624643 35.980623 
L 116.810957 36.004584 
L 117.506533 35.870583 
L 117.608661 35.890106 
L 117.771514 35.983285 
L 117.858461 36.004584 
L 117.986811 35.967312 
L 118.024074 35.879457 
L 118.057197 35.77829 
L 118.157945 35.706409 
L 118.85904 35.440182 
L 119.424885 35.091424 
L 120.35784 34.204887 
L 120.597979 33.901388 
L 120.73875 33.603214 
L 120.806375 33.252681 
L 120.822937 32.789445 
L 120.857439 32.594212 
L 121.017532 32.159374 
L 121.053415 31.896697 
L 120.976129 31.776007 
L 120.655943 31.566575 
L 120.599359 31.388203 
L 120.781533 31.108664 
L 121.147262 30.97555 
L 121.925644 30.927629 
L 122.019492 30.835337 
L 122.292754 30.427122 
L 122.387981 30.333055 
L 122.561875 30.294008 
L 125.112318 29.332041 
L 128.718545 27.006102 
L 130.783189 26.026385 
L 131.398718 25.553388 
L 131.564331 25.457546 
L 133.170779 24.937516 
L 133.641397 24.663302 
L 133.921559 24.120198 
L 135.024267 22.898215 
L 135.105693 22.786399 
L 135.362394 22.304528 
L 135.933759 22.147454 
L 136.862573 22.102195 
L 136.894315 21.964644 
L 137.032326 21.918498 
L 137.210361 21.817332 
L 137.244863 21.66647 
L 137.293167 21.565304 
L 137.384254 21.520932 
L 137.462921 21.569741 
L 137.616113 21.778285 
L 137.674078 21.817332 
L 137.972181 21.677119 
L 138.348951 21.271566 
L 138.600131 21.059472 
L 139.769084 20.464897 
L 139.96644 20.329122 
L 140.195538 20.219968 
L 140.441198 20.19512 
L 140.695138 20.31581 
L 140.891114 19.975039 
L 141.284445 19.700825 
L 141.744021 19.605871 
L 142.141493 19.801104 
L 142.414755 19.770932 
L 143.452597 19.403538 
L 143.706538 19.273974 
L 143.959098 19.298822 
L 144.437996 19.26155 
L 144.929315 19.152397 
L 145.219138 18.9758 
L 145.406833 19.073416 
L 146.602008 18.778791 
L 147.209256 18.510789 
L 147.991779 18.004957 
L 150.662291 17.139719 
L 153.357645 15.786397 
L 153.974555 15.7509 
L 155.220794 15.969206 
L 157.021837 15.969206 
L 157.406888 16.033101 
L 158.258415 16.338375 
L 161.882584 16.68802 
L 162.188968 16.579754 
L 162.669246 16.759014 
L 164.874662 16.579754 
L 170.432364 17.336727 
L 172.368658 16.793623 
L 172.999368 16.741265 
L 173.27125 16.814034 
L 173.751528 17.059851 
L 174.340835 17.251534 
L 176.586274 17.380211 
L 177.470924 17.283481 
L 178.356955 17.025241 
L 178.637117 16.874379 
L 179.277488 16.386296 
L 179.890257 16.031326 
L 180.395377 15.426103 
L 180.787328 14.690428 
L 180.892216 14.047045 
L 181.129595 14.128688 
L 181.615394 14.213881 
L 181.830691 14.34522 
L 181.872094 14.208556 
L 181.94386 14.178384 
L 182.045988 14.190808 
L 182.178479 14.183709 
L 182.299928 14.442836 
L 182.482103 14.629196 
L 182.600792 14.780945 
L 182.526266 14.940681 
L 182.526266 15.076457 
L 183.155597 15.564541 
L 183.544787 15.724277 
L 184.041627 15.686118 
L 184.218281 15.579627 
L 184.492923 15.296539 
L 184.676478 15.238856 
L 184.930418 15.27524 
L 185.093271 15.371082 
L 185.441058 15.686118 
L 185.441058 15.835205 
L 184.530186 15.727827 
L 184.105112 15.775748 
L 183.751804 16.050849 
L 183.594471 16.382746 
L 183.44818 16.861955 
L 183.350192 17.364237 
L 183.335011 17.770677 
L 183.44542 18.106124 
L 183.904996 18.920779 
L 184.414257 19.566824 
L 185.325129 20.31581 
L 185.325129 20.464897 
L 185.093271 20.464897 
L 185.198159 20.749761 
L 185.363772 21.100293 
L 185.58459 21.394918 
L 186.073149 21.639847 
L 186.564468 22.216673 
L 186.829449 22.413681 
L 187.838309 22.813022 
L 188.573908 22.928387 
L 188.84993 23.105872 
L 189.388172 23.604604 
L 190.011982 23.941826 
L 190.762762 24.177881 
L 191.552185 24.277272 
L 192.283643 24.213377 
L 192.641091 24.06784 
L 193.282842 23.683585 
L 194.331726 23.507875 
L 196.123108 22.7722 
L 196.528861 22.711856 
L 196.930473 22.581404 
L 197.626048 22.037413 
L 197.998678 21.953108 
L 197.998678 22.102195 
L 197.925532 22.236196 
L 197.828924 22.368422 
L 197.696434 22.480238 
L 197.52668 22.549457 
L 197.552902 22.878691 
L 197.232717 23.555796 
L 197.294822 23.916978 
L 197.420412 23.916978 
L 197.456294 23.393397 
L 197.617767 22.915963 
L 197.848246 22.525497 
L 198.093905 22.264594 
L 198.271939 22.120831 
L 198.356126 22.096871 
L 199.377407 23.01003 
L 199.377407 22.711856 
L 199.493337 22.711856 
L 200.774078 24.319868 
L 201.011457 24.945503 
L 201.011457 25.837364 
L 200.953493 26.053895 
L 200.805821 26.412415 
L 200.779599 26.516243 
L 200.765798 27.229733 
L 200.830663 27.560742 
L 201.011457 27.93701 
L 201.764997 28.851057 
L 202.203872 29.145682 
L 202.747635 30.183968 
L 203.026418 30.403162 
L 203.876565 30.845986 
L 204.359604 30.962239 
L 204.450691 31.063405 
L 204.494854 31.229354 
L 204.505895 31.456534 
L 204.5611 31.713887 
L 204.704631 31.824815 
L 204.892326 31.880723 
L 205.082781 31.969465 
L 205.178009 32.075069 
L 205.347762 32.333309 
L 205.430569 32.418502 
L 205.600322 32.479734 
L 205.919128 32.521443 
L 206.065419 32.640358 
L 206.380084 32.76726 
L 206.805158 32.668756 
L 207.514535 32.282726 
L 208.411606 31.513329 
L 208.556518 31.308334 
L 208.610342 31.095353 
L 208.850481 30.698674 
L 208.904305 30.562898 
L 208.938808 30.51409 
L 209.053357 30.051742 
L 209.020235 30.022457 
L 209.243812 29.830773 
L 209.475671 29.852071 
L 209.757213 29.956787 
L 210.122942 30.022457 
L 211.587239 30.022457 
L 212.920425 30.360565 
L 215.433605 31.587873 
L 215.949766 32.021824 
L 216.231308 32.714902 
L 216.264431 33.675095 
L 216.363799 34.051363 
L 216.646721 34.204887 
L 217.00417 34.284755 
L 217.652821 34.670785 
L 217.988188 34.812773 
L 220.157721 34.78615 
L 220.766349 34.949436 
L 221.1583 35.304406 
L 221.345995 35.408234 
L 221.702064 35.519163 
L 222.099535 35.557322 
L 222.394879 35.645177 
L 222.803391 36.100425 
L 223.093214 36.316069 
L 223.78879 36.532601 
L 223.852275 36.654178 
L 224.249746 37.074817 
L 224.589253 37.199944 
L 225.266887 37.128063 
L 225.536009 37.208818 
L 225.635377 37.089903 
L 225.872756 37.000274 
L 225.999726 36.910644 
L 226.123936 36.734046 
L 226.344753 36.153671 
L 226.546249 35.796039 
L 226.798809 35.445506 
L 227.087252 35.148219 
L 227.388116 34.949436 
L 227.535788 35.304406 
L 227.81733 35.508513 
L 228.141656 35.510288 
L 228.430099 35.260035 
L 228.546028 35.408234 
L 228.983523 35.336353 
L 229.005605 36.702099 
L 229.303709 37.074817 
L 230.177318 37.494569 
L 230.409177 37.671166 
L 230.58445 37.888585 
L 230.881174 38.400629 
L 231.542247 38.117541 
L 232.33857 38.224032 
L 234.382513 38.8896 
L 235.384472 39.055548 
L 236.064867 39.289828 
L 236.449917 39.294265 
L 237.199317 39.09282 
L 237.522263 39.162039 
L 238.260621 39.801872 
L 238.605649 39.801872 
L 239.25154 39.604864 
L 239.886391 39.785011 
L 240.319745 39.82672 
L 240.51296 39.673195 
L 241.796463 39.604864 
L 242.058683 39.428266 
L 242.681113 38.82748 
L 242.904691 38.698804 
L 243.452594 38.533743 
L 243.659611 38.549716 
L 243.764499 38.641121 
L 244.02672 39.002303 
L 244.145409 39.130979 
L 244.312403 39.042237 
L 244.639489 39.038687 
L 244.818903 38.996978 
L 244.937593 38.901136 
L 245.081124 38.749387 
L 245.255018 38.610949 
L 245.455134 38.549716 
L 245.798781 38.1557 
L 245.860886 38.027911 
L 245.939552 37.972003 
L 246.316322 37.841552 
L 247.501837 37.59751 
L 247.781999 37.420025 
L 248.05388 37.189295 
L 248.378206 37.081029 
L 250.31588 37.064168 
L 251.682189 36.761556 
L 251.832621 36.670152 
L 252.261835 36.316069 
L 252.461951 36.271698 
L 253.019516 36.316069 
L 253.338321 36.420786 
L 253.860003 36.853849 
L 254.240913 36.910644 
L 254.526596 36.814802 
L 254.987552 36.526389 
L 255.329819 36.465157 
L 255.528555 36.397713 
L 256.439428 35.870583 
L 256.541556 35.776516 
L 256.602281 35.687773 
L 256.700269 35.611455 
L 256.903145 35.557322 
L 257.967209 35.807575 
L 258.208729 36.046293 
L 258.639323 36.600933 
L 259.648183 37.463509 
L 260.292694 37.825578 
L 260.964808 37.953367 
L 261.305695 37.847764 
L 261.650722 37.682703 
L 261.987469 37.636557 
L 262.447046 37.959579 
L 262.637501 37.97999 
L 263.00875 37.953367 
L 263.160563 38.00395 
L 264.170803 38.790208 
L 264.471667 38.930421 
L 264.797373 38.996978 
L 265.072015 38.800857 
L 266.1416 38.440563 
L 266.555633 38.400629 
L 267.52999 39.289828 
L 268.019929 39.614625 
L 268.703084 39.741527 
L 268.987386 39.694494 
L 269.492506 39.489499 
L 269.883077 39.398981 
L 270.491706 39.170026 
L 270.885037 38.911785 
L 271.6717 38.698804 
L 274.449861 36.910644 
L 275.040548 37.165335 
L 275.540148 37.219467 
L 276.019046 37.084579 
L 276.544868 36.761556 
L 277.185239 36.218453 
L 277.414337 36.153671 
L 277.940159 36.092439 
L 278.198239 36.004584 
L 278.408016 35.870583 
L 279.414116 34.557195 
L 280.59963 33.693731 
L 280.792846 33.621849 
L 281.049546 33.664446 
L 281.775484 33.920024 
L 282.203318 33.853467 
L 282.843689 33.416854 
L 283.119711 33.310364 
L 283.475779 33.262443 
L 283.86911 33.131991 
L 284.250021 32.940308 
L 284.566066 32.714902 
L 285.235419 32.031585 
L 285.583207 31.783106 
L 286.012421 31.686377 
L 286.452676 31.658867 
L 286.76044 31.56125 
L 288.358608 30.294008 
L 288.787822 30.142259 
L 289.152171 29.947913 
L 289.334345 29.886681 
L 289.926412 29.809475 
L 290.14585 29.737593 
L 290.460515 29.497989 
L 290.718595 29.115509 
L 290.891109 28.651386 
L 290.955974 28.166853 
L 291.132628 28.060362 
L 292.124927 27.205772 
L 292.356786 26.795782 
L 294.162804 27.53096 
L 294.378391 27.570406 
L 294.884933 27.532087 
L 295.310849 27.343873 
L 295.440552 27.345 
L 295.463337 27.430654 
L 295.444057 27.594074 
L 295.440552 27.772144 
L 295.512414 27.909642 
L 295.710473 27.987407 
L 296.206499 28.047139 
L 296.430849 28.119269 
L 297.105654 28.726738 
L 297.312477 28.811265 
L 297.475482 28.719975 
L 298.155545 28.157588 
L 298.686625 27.421638 
L 298.919739 27.248076 
L 299.601555 26.984351 
L 300.816203 27.431781 
L 301.41564 27.248076 
L 301.661024 27.1365 
L 301.899396 27.103816 
L 302.137769 27.142135 
L 302.379647 27.248076 
L 302.91248 27.100435 
L 303.170133 27.108324 
L 303.412011 27.248076 
L 303.694202 27.505038 
L 304.100837 27.537722 
L 304.935141 27.491514 
L 307.90954 28.614035 
L 308.133039 28.602844 
L 308.337209 28.592621 
L 308.689509 28.367215 
L 309.197804 27.624503 
L 309.565879 27.248076 
L 309.735895 26.896443 
L 309.895394 26.008344 
L 310.068915 25.64206 
L 310.408947 25.388478 
L 310.432905 25.380807 
L 310.505251 25.357642 
L 310.838368 25.250981 
L 311.693705 25.181105 
L 314.066914 25.378335 
L 314.389418 25.52823 
L 314.257962 25.732222 
L 314.201875 25.951993 
L 314.16682 26.168382 
L 314.09671 26.362231 
L 313.959997 26.521142 
L 313.625223 26.79501 
L 313.483252 27.0114 
L 313.917931 27.2616 
L 314.240435 27.604217 
L 314.559434 27.705649 
L 314.976586 27.241314 
L 315.204442 27.101562 
L 315.325381 27.243568 
L 315.420029 27.515182 
L 315.560248 27.760874 
L 315.689951 27.835258 
L 316.189481 27.998677 
L 316.292893 28.09222 
L 316.36125 28.191399 
L 316.443629 28.277053 
L 316.594364 28.334531 
L 316.72582 28.479918 
L 317.232361 29.402955 
L 317.477745 29.664425 
L 318.725695 30.489411 
L 319.544225 31.185914 
L 320.067417 31.427099 
L 320.563443 31.490212 
L 320.586228 31.602915 
L 320.357496 31.918483 
L 320.109483 32.12811 
L 319.191924 32.584557 
L 319.652894 32.726563 
L 320.026228 32.68599 
L 320.360125 32.725436 
L 320.702785 33.104117 
L 321.109421 34.073362 
L 321.353928 34.245798 
L 322.913866 33.822035 
L 323.408139 33.788224 
L 323.942724 33.927975 
L 324.405448 34.190573 
L 324.863789 34.604193 
L 325.104791 35.119245 
L 324.911989 35.68614 
" clip-path="url(#pd88b893492)" style="fill: #f5f5f5; stroke: #000000"/>
    <path d="M 63.345503 16.799835 
L 63.580122 17.846996 
L 63.585642 18.082163 
L 63.669829 18.138071 
L 63.778858 18.276509 
L 63.850623 18.44512 
L 63.823021 18.595982 
L 63.668449 18.690049 
L 63.495935 18.658102 
L 63.17989 18.528538 
L 62.901108 18.540074 
L 62.68029 18.658102 
L 62.536759 18.954501 
L 62.485695 19.49583 
L 62.586443 20.07798 
L 62.837623 20.475547 
L 63.144007 20.812768 
L 63.421409 21.208559 
L 63.742975 22.19005 
L 63.93895 22.481125 
L 64.249475 22.757114 
L 64.391626 22.919513 
L 64.473053 23.146694 
L 64.515836 23.18574 
L 64.56 23.24786 
L 64.580701 23.380974 
L 64.537918 23.462617 
L 64.444071 23.455517 
L 64.361264 23.467941 
L 64.348843 23.604604 
L 64.474433 23.945375 
L 64.709052 24.342941 
L 64.982313 24.673063 
L 65.466732 24.948165 
L 65.715152 25.265863 
L 66.07536 25.837364 
L 67.008315 26.691953 
L 69.578079 28.252045 
L 73.250551 29.777528 
L 78.467366 32.197534 
L 80.14834 32.565815 
L 80.238047 32.599537 
L 80.27669 32.65012 
L 80.322234 32.695379 
L 80.431263 32.714902 
L 80.562373 32.668756 
L 80.668642 32.463761 
L 80.785951 32.418502 
L 81.184803 32.477072 
L 81.612637 32.636809 
L 81.872097 32.879075 
L 81.713385 33.422179 
L 81.491187 33.825957 
L 81.195844 34.20045 
L 80.90602 34.365511 
L 80.711425 34.427631 
L 80.754208 34.572281 
L 80.892219 34.742666 
L 80.992967 34.923701 
L 81.100616 35.078113 
L 81.133739 35.110947 
L 81.217925 35.171292 
L 81.184803 35.296419 
L 81.113037 35.40291 
L 81.075774 35.408234 
L 81.013669 35.838635 
L 80.893599 36.227327 
L 80.734887 36.563661 
L 80.554092 36.8361 
L 80.414701 36.946141 
L 80.113837 37.040208 
L 79.974446 37.141374 
L 79.841956 37.333058 
L 79.817114 37.448423 
L 79.825394 37.53894 
L 79.843336 37.638332 
L 79.89302 37.712875 
L 79.89026 37.83179 
L 79.790892 37.953367 
L 79.713606 37.974665 
L 79.349257 37.94538 
L 79.202965 37.822916 
L 79.106357 37.80428 
L 79.00975 37.861963 
L 78.860698 38.059858 
L 78.805493 38.102455 
L 78.620559 38.150375 
L 78.311414 38.353596 
L 77.63792 38.490259 
L 77.475067 38.549716 
L 77.37846 38.623373 
L 77.306694 38.715665 
L 77.200426 38.797308 
L 77.00169 38.847891 
L 76.587657 38.82748 
L 76.390301 38.760036 
L 76.306114 38.62426 
L 76.12256 38.461861 
L 75.700246 38.443225 
L 73.664584 38.699691 
L 73.155324 38.491146 
L 73.296095 37.80428 
L 73.097359 37.599285 
L 72.97867 37.530066 
L 72.821337 37.494569 
L 72.940027 36.999386 
L 72.768893 36.560999 
L 72.421105 36.254837 
L 72.012593 36.153671 
L 72.09816 36.470481 
L 72.465269 36.840537 
L 72.60052 37.208818 
L 72.60604 37.4289 
L 72.563257 37.743048 
L 72.448707 38.046547 
L 72.241691 38.23823 
L 71.751752 38.170786 
L 70.874002 37.294011 
L 70.443408 37.074817 
L 69.881703 36.978975 
L 68.70447 36.559224 
L 68.116543 36.465157 
L 67.538277 36.465157 
L 67.400266 36.414574 
L 67.215331 36.201592 
L 67.07456 36.153671 
L 66.44385 36.297434 
L 66.141606 36.316069 
L 66.024296 36.247738 
L 65.864204 36.153671 
L 65.052699 36.45717 
L 64.927109 36.532601 
L 64.761496 36.531714 
L 63.823021 36.910644 
L 63.571841 36.972763 
L 63.282018 37.122738 
L 63.015657 37.31176 
L 62.833482 37.494569 
L 62.456712 38.091805 
L 62.344924 38.374894 
L 62.369766 38.549716 
L 62.064761 38.641121 
L 60.698453 38.480497 
L 60.444512 38.314549 
L 60.204373 38.117541 
L 59.928351 37.953367 
L 59.264518 37.771445 
L 58.614487 37.735061 
L 54.991698 38.246217 
L 54.465877 38.549716 
L 54.101528 39.279179 
L 53.675074 41.026517 
L 53.306584 41.690311 
L 51.712558 43.22378 
L 50.98524 44.475936 
L 49.464359 45.575454 
L 49.370511 45.68017 
L 49.193857 45.941073 
L 49.116571 46.022716 
L 48.934396 46.083061 
L 48.524504 46.137194 
L 48.056647 46.435368 
L 47.265844 46.420282 
L 46.908395 46.468203 
L 46.621332 46.700708 
L 46.127253 47.38225 
L 45.928517 47.524238 
L 45.484122 47.584583 
L 45.252263 47.61653 
L 44.603612 47.809101 
L 43.620974 48.410775 
L 43.365653 48.647717 
L 43.06755 48.847387 
L 42.022806 48.999137 
L 41.705381 49.189046 
L 41.156098 49.66293 
L 40.922859 49.757885 
L 40.732404 49.886561 
L 40.579212 50.536156 
L 40.401177 50.800608 
L 39.853274 51.095233 
L 39.740105 51.260294 
L 39.706982 51.625913 
L 39.602094 51.979108 
L 39.345393 52.27107 
L 38.415199 53.112348 
L 38.29651 53.196654 
L 37.79967 53.317343 
L 37.576093 53.496603 
L 37.217264 53.857785 
L 37.213124 53.940315 
L 37.128937 54.021958 
L 36.684542 54.549976 
L 36.376777 54.797567 
L 35.988966 55.034509 
L 35.585974 55.211107 
L 35.234046 55.280326 
L 35.003568 55.463135 
L 35.058772 55.865138 
L 35.271309 56.274241 
L 35.516969 56.472137 
L 34.705464 57.230884 
L 34.451524 57.419906 
L 33.77527 57.800611 
L 33.263249 58.27627 
L 33.054853 58.404947 
L 32.155021 58.71377 
L 31.975607 58.732406 
L 31.814134 58.613491 
L 31.856918 58.354363 
L 31.992168 58.093461 
L 32.091536 57.974546 
L 32.368938 57.765114 
L 32.559393 57.305428 
L 32.691884 56.844855 
L 32.784351 56.634535 
L 33.548932 55.5785 
L 33.755949 54.794905 
L 33.670382 54.198556 
L 33.347436 53.732658 
L 32.842316 53.345741 
L 33.01897 53.201978 
L 33.074174 53.056441 
L 32.999649 52.94285 
L 32.784351 52.898479 
L 32.704305 52.799088 
L 32.858877 52.59143 
L 33.081075 52.404184 
L 33.192864 52.371349 
L 33.386079 52.197414 
L 34.255548 51.866405 
L 34.589535 51.855756 
L 34.843475 51.416481 
L 35.685342 50.881364 
L 36.483046 50.227332 
L 37.482245 49.863488 
L 38.231645 49.231642 
L 38.716063 48.927256 
L 39.243265 48.688538 
L 39.706982 48.58116 
L 40.501925 48.679664 
L 40.739304 48.58116 
L 40.968403 48.338893 
L 41.324471 47.79224 
L 41.57013 47.524238 
L 41.967602 47.719471 
L 42.511365 47.542874 
L 42.993024 47.149745 
L 43.20142 46.690946 
L 42.682499 45.610064 
L 42.547248 45.413056 
L 42.380255 45.439678 
L 41.255465 45.615388 
L 40.857994 45.806184 
L 40.633036 45.873629 
L 39.475124 45.873629 
L 39.014167 46.014729 
L 37.718244 46.76549 
L 37.233825 46.44868 
L 36.964704 46.350176 
L 36.684542 46.319116 
L 36.452683 46.403421 
L 36.186322 46.555171 
L 35.922721 46.643913 
L 35.470045 46.419395 
L 35.182982 46.450454 
L 34.27487 46.709582 
L 31.13374 46.690946 
L 30.692105 46.616403 
L 30.447825 46.477077 
L 30.305674 46.143406 
L 30.199406 45.744065 
L 30.054494 45.413056 
L 30.175944 45.080271 
L 30.12902 44.603725 
L 29.959267 44.125403 
L 29.706706 43.789069 
L 29.836437 43.75446 
L 29.888881 43.714526 
L 30.527127 43.778207 
L 31.04769 43.529134 
L 31.424529 43.089593 
L 31.568254 42.508046 
L 31.827659 42.106824 
L 32.739084 41.33819 
L 32.62165 41.09926 
L 32.63392 40.955 
L 32.682996 40.880616 
L 32.851259 40.802851 
L 32.791666 40.783692 
L 32.747848 40.778057 
L 32.725062 40.743119 
L 32.737331 40.639432 
L 32.889819 40.598859 
L 32.963435 40.54927 
L 32.980962 40.43544 
L 32.979209 40.206653 
L 33.063341 40.414026 
L 33.084374 40.504189 
L 33.200054 40.504189 
L 33.320993 40.377961 
L 33.4209 40.179604 
L 33.559366 39.745698 
L 33.662778 39.745698 
L 33.722371 39.868544 
L 33.810008 39.967723 
L 33.929194 40.034218 
L 34.072919 40.057885 
L 34.299022 39.994772 
L 34.286753 39.853893 
L 34.185094 39.702871 
L 34.136017 39.610455 
L 34.341088 39.406462 
L 34.824844 39.183311 
L 35.063216 39.001859 
L 35.233232 38.780961 
L 35.184155 38.705451 
L 35.019398 38.627686 
L 34.842371 38.405661 
L 34.793295 38.212939 
L 34.840619 38.073187 
L 34.987849 37.987533 
L 35.241996 37.95823 
L 35.38572 37.842146 
L 35.503154 37.586311 
L 35.489132 37.331602 
L 35.038678 37.117467 
L 34.893201 36.886426 
L 34.656581 36.395041 
L 34.61101 36.079473 
L 34.900212 35.513705 
L 34.779273 35.414526 
L 34.525125 35.343524 
L 34.525125 35.165453 
L 34.842371 34.683085 
L 34.640806 34.30553 
L 34.588224 33.918959 
L 34.663592 33.496323 
L 34.842371 33.018463 
L 34.57946 32.640909 
L 34.768756 32.468473 
L 35.843185 32.362532 
L 36.132387 32.216019 
L 36.579336 31.826067 
L 37.052576 31.529658 
L 37.147224 31.425972 
L 37.189289 31.329047 
L 37.262904 31.258044 
L 37.441684 31.230996 
L 38.304032 30.338389 
L 38.481058 30.557032 
L 38.803562 30.735103 
L 39.168132 30.828646 
L 39.483625 30.798216 
L 39.702718 30.587462 
L 39.856959 30.213289 
L 39.939338 29.756842 
L 39.935832 29.295887 
L 39.86397 28.856346 
L 39.58879 27.792431 
L 39.504658 26.98097 
L 39.422279 26.603415 
L 39.241747 26.290101 
L 39.346912 26.073712 
L 39.28206 25.507943 
L 39.357428 25.248727 
L 39.29433 25.124753 
L 39.255769 24.978803 
L 39.238242 24.817075 
L 39.241747 24.653655 
L 38.919243 25.121372 
L 38.75098 24.952318 
L 37.981528 24.566874 
L 37.019274 23.866989 
L 37.168257 23.591994 
L 37.219086 23.273609 
L 36.950917 23.207114 
L 36.652951 23.083141 
L 36.000932 22.922539 
L 35.543467 22.512301 
L 35.241996 22.419321 
L 34.7968 22.459894 
L 34.625032 22.227726 
L 34.507598 21.789875 
L 34.570697 21.316523 
L 34.810822 20.791328 
L 35.511918 20.200765 
L 37.255894 20.273458 
L 38.065659 20.034528 
L 38.293515 19.734738 
L 38.433734 19.33577 
L 38.505597 18.939619 
L 38.519869 18.782688 
L 38.531888 18.650536 
L 38.551168 18.536143 
L 38.62303 18.344548 
L 38.637052 18.222266 
L 38.586223 18.147882 
L 38.381152 18.023908 
L 38.351356 17.938254 
L 38.421465 17.795685 
L 38.52663 17.693689 
L 38.651074 17.60409 
L 39.140088 17.100872 
L 39.415269 16.912095 
L 39.718492 16.876593 
L 41.312609 17.132429 
L 41.637742 17.096364 
L 41.811263 16.975772 
L 42.177586 16.620758 
L 42.380904 16.562716 
L 42.539527 16.63879 
L 42.853267 16.901951 
L 43.039934 16.950414 
L 43.180153 16.882228 
L 43.353197 16.741854 
L 43.558745 16.575113 
L 43.74103 16.465228 
L 43.92682 16.460156 
L 44.086319 16.517071 
L 44.242313 16.519325 
L 44.424598 16.343509 
L 44.600748 16.271379 
L 44.91887 16.320968 
L 45.066101 16.283776 
L 45.255396 16.066823 
L 45.393863 15.803662 
L 45.545475 15.579946 
L 45.781218 15.484713 
L 46.108981 15.26776 
L 46.48582 14.589852 
L 46.891579 14.392622 
L 46.914609 14.392985 
L 47.213206 14.397693 
L 47.521689 14.491237 
L 47.809138 14.650711 
L 48.070296 14.853013 
L 48.259592 14.836671 
L 48.63906 14.853013 
L 49.050077 14.9567 
L 49.123692 14.928524 
L 49.137714 14.851886 
L 49.181533 14.764541 
L 49.558372 14.279355 
L 49.772206 14.115936 
L 50.142034 14.065783 
L 50.737965 14.200463 
L 51.279562 14.509269 
L 51.740532 14.94881 
L 52.459156 16.011599 
L 52.832489 16.434234 
L 53.239125 16.774597 
L 54.485322 17.447997 
L 54.742099 17.658751 
L 55.144353 18.206487 
L 55.368703 18.356945 
L 55.645636 18.241989 
L 55.410769 18.145064 
L 55.451082 18.096602 
L 55.556246 18.044195 
L 55.610581 17.99686 
L 55.564134 17.96643 
L 55.512428 17.938818 
L 55.465104 17.906134 
L 55.442318 17.854291 
L 55.806012 17.731444 
L 55.978656 17.621559 
L 56.117123 17.44687 
L 56.245073 17.540413 
L 56.334463 17.53985 
L 56.394056 17.433345 
L 56.435245 17.215829 
L 57.754182 16.886173 
L 58.37991 16.90815 
L 59.265043 17.37643 
L 59.496405 17.451378 
L 59.71725 17.442925 
L 59.929331 17.361779 
L 59.979284 17.229353 
L 59.715497 17.072696 
L 59.752305 16.857997 
L 59.753181 16.562716 
L 59.804887 16.343509 
L 59.871491 16.317023 
L 59.939848 16.307444 
L 60.007328 16.317023 
L 60.076561 16.343509 
L 60.399065 16.293919 
L 60.555059 16.300681 
L 60.973964 16.403805 
L 61.422665 16.614559 
L 61.654027 16.683308 
L 62.483073 16.590891 
L 62.738973 16.669783 
L 63.345503 16.799835 
" clip-path="url(#pd88b893492)" style="fill: #f5f5f5; stroke: #000000"/>
    <path d="M 30.170423 63.362099 
L 30.451966 63.207687 
L 30.551334 63.419781 
L 30.529252 64.182079 
L 30.414703 64.511313 
L 30.145581 64.485578 
L 29.593537 64.107535 
L 29.093938 63.873255 
L 28.86622 63.700207 
L 28.770992 63.436642 
L 28.906243 63.260932 
L 29.215387 63.19615 
L 29.822636 63.1997 
L 29.927524 63.220998 
L 30.010331 63.220998 
L 30.084857 63.250283 
L 30.170423 63.362099 
" clip-path="url(#pd88b893492)" style="fill: #f5f5f5; stroke: #000000"/>
    <path d="M 29.350638 56.187273 
L 29.350638 56.634535 
L 28.978009 56.834206 
L 28.597098 56.968207 
L 27.454367 57.143029 
L 26.706348 57.467827 
L 25.174426 57.701219 
L 24.823878 57.676371 
L 24.415365 57.534383 
L 24.213869 57.422568 
L 24.129683 57.305428 
L 23.432727 57.068486 
L 23.432727 56.93271 
L 23.821918 56.3124 
L 24.378103 55.737349 
L 25.057117 55.311386 
L 26.208128 55.095742 
L 27.673805 54.557963 
L 27.887722 54.52424 
L 28.096118 54.549976 
L 28.205147 54.651142 
L 28.296234 54.811766 
L 28.428725 54.954641 
L 28.666104 54.997238 
L 28.666104 55.145437 
L 28.62194 55.327359 
L 28.588818 55.605123 
L 28.592958 55.881112 
L 28.666104 56.052385 
L 28.517052 56.393156 
L 28.684045 56.478349 
L 28.99043 56.386056 
L 29.24299 56.187273 
L 29.350638 56.187273 
" clip-path="url(#pd88b893492)" style="fill: #f5f5f5; stroke: #000000"/>
    <path d="M 57.253698 45.575454 
L 57.52144 45.503573 
L 58.014139 45.578116 
L 58.444733 45.80441 
L 58.52754 46.185115 
L 58.214255 46.41407 
L 57.573884 46.512574 
L 57.253698 46.616403 
L 56.693374 47.103599 
L 56.358007 47.240262 
L 55.981237 47.076976 
L 55.794922 47.068989 
L 55.459556 46.929664 
L 55.191814 46.690946 
L 55.241498 46.225049 
L 55.125569 46.065312 
L 55.028961 45.881616 
L 55.107628 45.642011 
L 55.240118 45.492924 
L 55.360188 45.41838 
L 55.455415 45.476063 
L 55.506479 45.71123 
L 55.928793 45.502685 
L 56.366288 45.354486 
L 56.809303 45.350048 
L 57.253698 45.575454 
" clip-path="url(#pd88b893492)" style="fill: #f5f5f5; stroke: #000000"/>
    <path d="M 57.043922 49.790719 
L 57.177792 49.779183 
L 57.244038 49.84219 
L 57.237137 50.0179 
L 57.052202 50.053397 
L 56.812063 49.923833 
L 56.530521 49.859051 
L 56.215856 49.831541 
L 55.972957 49.667367 
L 55.937074 49.426875 
L 56.122008 49.267139 
L 56.26278 48.99115 
L 56.400791 48.796804 
L 56.963875 49.043508 
L 56.991478 49.193483 
L 56.90039 49.387829 
L 56.872788 49.639857 
L 57.043922 49.790719 
" clip-path="url(#pd88b893492)" style="fill: #f5f5f5; stroke: #000000"/>
   </g>
  </g>
 </g>
 <defs>
  <clipPath id="pd88b893492">
   <rect x="7.2" y="7.2" width="357.12" height="150.634995"/>
  </clipPath>
 </defs>
</svg>
