<?xml version="1.0" encoding="utf-8" standalone="no"?>
<!DOCTYPE svg PUBLIC "-//W3C//DTD SVG 1.1//EN"
  "http://www.w3.org/Graphics/SVG/1.1/DTD/svg11.dtd">
<svg xmlns:xlink="http://www.w3.org/1999/xlink" width="269.369671pt" height="280.512pt" viewBox="0 0 269.369671 280.512" xmlns="http://www.w3.org/2000/svg" version="1.1">
 <metadata>
  <rdf:RDF xmlns:dc="http://purl.org/dc/elements/1.1/" xmlns:cc="http://creativecommons.org/ns#" xmlns:rdf="http://www.w3.org/1999/02/22-rdf-syntax-ns#">
   <cc:Work>
    <dc:type rdf:resource="http://purl.org/dc/dcmitype/StillImage"/>
    <dc:date>2024-03-04T13:11:13.568722</dc:date>
    <dc:format>image/svg+xml</dc:format>
    <dc:creator>
     <cc:Agent>
      <dc:title>Matplotlib v3.8.0, https://matplotlib.org/</dc:title>
     </cc:Agent>
    </dc:creator>
   </cc:Work>
  </rdf:RDF>
 </metadata>
 <defs>
  <style type="text/css">*{stroke-linejoin: round; stroke-linecap: butt}</style>
 </defs>
 <g id="figure_1">
  <g id="patch_1">
   <path d="M 0 280.512 
L 269.369671 280.512 
L 269.369671 0 
L 0 0 
z
" style="fill: #ffffff"/>
  </g>
  <g id="axes_1">
   <g id="PatchCollection_1">
    <defs>
     <path id="m9bb554714b" d="M 58.001304 -36.643585 
L 57.535973 -36.788402 
L 56.889842 -36.989486 
L 56.312664 -36.910458 
L 55.755238 -36.660202 
L 55.088082 -36.493366 
L 54.372645 -36.585565 
L 53.648429 -36.796306 
L 52.94616 -36.901677 
L 52.296561 -36.668983 
L 51.938842 -36.063102 
L 51.664518 -34.306925 
L 51.445059 -33.66153 
L 51.186097 -33.446398 
L 50.475049 -33.125896 
L 50.321562 -32.999458 
L 50.176585 -32.880031 
L 50.053688 -32.625385 
L 49.95932 -32.015114 
L 49.87812 -31.734125 
L 49.421645 -30.965798 
L 48.866414 -30.254546 
L 46.97687 -28.458855 
L 46.320687 -28.068105 
L 46.00686 -27.975906 
L 45.668893 -27.949563 
L 45.330926 -27.892488 
L 44.997348 -27.694918 
L 44.694494 -27.115379 
L 44.435532 -25.468963 
L 44.216073 -24.823568 
L 43.755209 -24.393304 
L 42.021481 -23.717176 
L 40.767747 -23.04534 
L 40.546715 -22.926896 
L 39.993678 -22.356139 
L 39.60743 -21.429755 
L 39.168512 -21.337556 
L 36.284818 -19.739435 
L 35.352116 -19.39259 
L 34.458917 -19.296 
L 33.629361 -19.533084 
L 32.900757 -20.213603 
L 32.488174 -21.113643 
L 32.387222 -22.86104 
L 32.198487 -23.7523 
L 31.004629 -25.486525 
L 30.539376 -25.723609 
L 30.534661 -25.724313 
L 30.157517 -25.780684 
L 29.788825 -25.670923 
L 29.395994 -25.425059 
L 29.01194 -24.968452 
L 28.757367 -24.129878 
L 28.406233 -23.923527 
L 28.112157 -24.028898 
L 27.207985 -24.577703 
L 26.703229 -24.691855 
L 25.671771 -24.507456 
L 24.960723 -24.138659 
L 24.30454 -23.664491 
L 23.428898 -23.172761 
L 22.638845 -22.95763 
L 21.74784 -22.891773 
L 20.040448 -22.983972 
L 20.439864 -25.477744 
L 20.431085 -26.289976 
L 20.264296 -26.768534 
L 19.768319 -27.62028 
L 19.746373 -28.072496 
L 20.147983 -29.148154 
L 20.18968 -29.508171 
L 19.939497 -30.425773 
L 19.502773 -31.075559 
L 19.153833 -31.760468 
L 19.149444 -32.783441 
L 19.667367 -35.408926 
L 19.70687 -36.172863 
L 19.531303 -36.993876 
L 18.905844 -38.627121 
L 18.78953 -39.373496 
L 18.912428 -39.882788 
L 18.9194 -39.894644 
L 19.131887 -40.255975 
L 19.294287 -40.668677 
L 19.243811 -41.29651 
L 19.079217 -42.095571 
L 19.052882 -42.517054 
L 19.109941 -42.903413 
L 19.583973 -43.649788 
L 20.839279 -44.075661 
L 21.3177 -44.646418 
L 21.436208 -45.26108 
L 21.545938 -47.816318 
L 21.449376 -48.711969 
L 21.071906 -50.367166 
L 21.10702 -51.254035 
L 21.638111 -54.599553 
L 21.778565 -54.819075 
L 22.015581 -54.994693 
L 22.221872 -55.209825 
L 22.276737 -55.539108 
L 22.177981 -55.793753 
L 21.848792 -56.245969 
L 21.778565 -56.500615 
L 21.949743 -56.966002 
L 22.34477 -57.080153 
L 22.796855 -57.110886 
L 23.139212 -57.34358 
L 23.231385 -57.93629 
L 23.090931 -60.539822 
L 22.893418 -61.193998 
L 22.448374 -62.126076 
L 22.331602 -62.370637 
L 22.226262 -63.169698 
L 23.143397 -68.519903 
L 23.270887 -69.263633 
L 23.975279 -73.430067 
L 24.232119 -74.949257 
L 24.971696 -79.282624 
L 25.608128 -80.845622 
L 25.834171 -81.644682 
L 25.796863 -82.456914 
L 25.294301 -84.309681 
L 25.35575 -85.042885 
L 25.726636 -86.193181 
L 27.594233 -88.796714 
L 27.82686 -89.275272 
L 28.327227 -89.077702 
L 28.638859 -88.809885 
L 28.928545 -88.695734 
L 29.349907 -88.963551 
L 29.499139 -89.288444 
L 30.857592 -96.278029 
L 31.153862 -97.191241 
L 31.641061 -97.985912 
L 33.884726 -100.578976 
L 34.691544 -101.511437 
L 34.826419 -101.804278 
L 35.437705 -103.131511 
L 35.332365 -104.786708 
L 34.546701 -108.220034 
L 34.568647 -109.093733 
L 35.09096 -112.68292 
L 34.858333 -114.880337 
L 34.919781 -115.3106 
L 35.727391 -116.99214 
L 36.276039 -117.310447 
L 37.209345 -118.029299 
L 37.812254 -118.493671 
L 39.594262 -119.299317 
L 44.128289 -120.328876 
L 44.540873 -120.563765 
L 45.001737 -121.105985 
L 45.769844 -122.537269 
L 45.90152 -122.690935 
L 46.099033 -123.375844 
L 47.055875 -124.381255 
L 47.34995 -125.16934 
L 47.121713 -126.896979 
L 47.108545 -127.717992 
L 47.648415 -128.225088 
L 47.797647 -128.596081 
L 47.907377 -129.035125 
L 47.995161 -129.943947 
L 48.109279 -130.220545 
L 49.404089 -131.548654 
L 49.770585 -131.733052 
L 50.132693 -131.847204 
L 50.52333 -131.776957 
L 50.984195 -131.405964 
L 51.717188 -131.06351 
L 52.237307 -131.616706 
L 52.753036 -132.472842 
L 53.464084 -133.026038 
L 53.960061 -133.069942 
L 54.921293 -132.964572 
L 55.491887 -133.026038 
L 56.295107 -133.236779 
L 56.887647 -133.482644 
L 57.427517 -133.860222 
L 58.276824 -134.580255 
L 61.480219 -138.700783 
L 63.330969 -141.081403 
L 66.916932 -145.697954 
L 72.662374 -150.33536 
L 78.497794 -155.057281 
L 81.53072 -157.502758 
L 84.511143 -161.246284 
L 85.491959 -162.478228 
L 88.217642 -165.912652 
L 90.745812 -169.096821 
L 91.961616 -171.298628 
L 92.328563 -173.356441 
L 92.343475 -173.440066 
L 92.270985 -173.551 
L 91.792633 -174.283032 
L 89.389554 -175.646264 
L 88.507328 -176.333368 
L 88.182529 -177.064377 
L 88.037686 -177.957832 
L 87.974042 -179.790842 
L 85.922099 -179.015929 
L 85.21544 -178.906168 
L 84.640457 -178.932511 
L 82.779443 -179.253013 
L 82.160568 -179.577906 
L 81.941109 -179.96207 
L 82.081563 -180.133297 
L 82.318579 -180.258425 
L 82.384417 -180.502094 
L 82.283466 -180.816011 
L 82.186903 -180.993824 
L 79.790409 -183.687361 
L 79.074972 -184.146162 
L 77.499255 -184.152748 
L 76.801375 -182.987085 
L 76.21103 -181.619462 
L 74.988642 -181.028947 
L 74.273205 -181.35384 
L 73.483152 -182.060701 
L 72.780882 -182.894886 
L 72.350742 -183.590771 
L 72.236623 -184.212019 
L 72.243207 -184.857414 
L 72.14884 -185.375486 
L 71.727478 -185.619156 
L 68.751611 -185.647693 
L 68.141515 -185.832092 
L 68.018618 -186.560906 
L 68.404866 -187.44558 
L 68.940346 -188.310497 
L 69.265146 -188.993211 
L 69.300259 -189.754953 
L 69.13786 -191.326732 
L 69.19053 -192.117011 
L 69.366097 -192.551665 
L 70.195653 -193.846846 
L 70.29441 -194.178324 
L 70.326668 -194.35607 
L 70.423891 -194.891771 
L 71.841597 -198.713652 
L 71.894267 -198.933174 
L 71.903045 -199.354657 
L 72.008386 -199.593936 
L 72.188342 -199.712478 
L 72.701877 -199.811263 
L 72.868666 -199.894681 
L 73.158352 -200.316164 
L 74.207367 -203.174342 
L 74.268816 -204.866858 
L 73.807951 -206.548398 
L 72.829163 -208.262866 
L 72.093975 -208.938994 
L 70.116648 -210.315398 
L 69.607502 -210.945427 
L 69.554832 -211.759854 
L 69.72601 -212.66209 
L 70.386229 -214.646949 
L 72.118115 -219.853636 
L 72.879639 -221.357362 
L 73.03326 -221.453952 
L 73.5446 -221.570299 
L 73.742114 -221.669084 
L 73.878178 -221.888606 
L 73.930848 -222.334236 
L 74.007659 -222.540587 
L 74.848188 -223.988335 
L 76.07277 -225.334006 
L 76.396171 -225.802152 
L 76.61264 -226.115505 
L 76.88038 -227.024327 
L 76.801375 -227.520447 
L 76.375624 -228.411707 
L 76.309786 -228.897948 
L 76.595083 -230.098735 
L 76.581916 -230.479605 
L 76.033268 -231.491603 
L 75.344166 -231.255616 
L 74.540945 -230.567414 
L 73.619216 -230.227155 
L 73.799173 -230.894502 
L 74.72968 -232.723122 
L 77.534368 -236.807332 
L 77.727493 -237.306745 
L 77.859168 -237.797377 
L 78.074238 -238.259471 
L 78.543881 -238.672172 
L 78.989383 -238.825838 
L 79.829912 -238.804983 
L 80.262246 -238.864254 
L 80.839424 -239.129876 
L 82.147401 -240.168216 
L 82.542427 -240.328467 
L 83.350037 -240.487621 
L 83.731896 -240.639091 
L 84.867489 -241.525751 
L 86.442217 -242.755284 
L 87.550486 -243.064811 
L 89.556343 -243.062615 
L 91.29446 -242.821141 
L 92.96235 -242.290995 
L 96.473697 -240.384445 
L 101.898729 -237.434067 
L 102.675614 -237.273816 
L 103.133434 -237.676532 
L 103.175981 -237.713958 
L 103.671959 -238.331913 
L 104.41812 -238.706198 
L 108.824861 -239.352691 
L 109.601746 -239.684169 
L 109.996773 -240.043088 
L 113.376445 -243.841919 
L 113.468617 -244.085589 
L 113.600293 -244.059246 
L 114.454827 -243.662384 
L 114.706367 -243.545564 
L 115.71149 -242.702599 
L 118.735638 -239.321958 
L 119.345735 -238.30118 
L 119.50594 -237.495534 
L 119.635421 -235.540689 
L 119.929496 -234.821754 
L 120.508869 -234.519911 
L 123.845735 -234.314537 
L 124.182615 -234.293803 
L 124.665426 -234.035864 
L 125.204287 -233.174015 
L 125.486203 -232.723122 
L 126.135802 -232.052482 
L 126.851239 -231.682587 
L 129.519863 -231.14366 
L 130.035592 -231.163417 
L 130.314305 -231.531117 
L 130.372746 -231.800292 
L 130.50304 -232.400424 
L 130.511819 -233.058991 
L 130.327473 -234.579182 
L 130.373559 -235.129085 
L 130.876121 -235.70533 
L 138.691063 -240.459083 
L 140.549882 -240.893737 
L 148.351657 -241.530351 
L 155.025411 -242.071473 
L 158.589428 -243.144936 
L 161.925208 -244.83855 
L 164.501659 -246.751685 
L 165.25221 -247.0206 
L 166.101517 -246.666072 
L 171.462905 -242.286605 
L 172.353909 -241.817925 
L 173.66847 -241.563279 
L 177.537536 -241.371197 
L 184.367106 -241.024352 
L 186.206174 -241.252655 
L 187.780398 -242.173802 
L 187.988183 -242.295385 
L 191.113282 -245.430162 
L 195.177666 -249.507786 
L 199.924568 -254.263733 
L 203.422748 -257.760721 
L 206.863868 -261.216 
L 208.09284 -260.622193 
L 209.049682 -259.870329 
L 209.580773 -258.884675 
L 209.523714 -257.57742 
L 209.576384 -256.998979 
L 209.949464 -256.533592 
L 210.423496 -256.100036 
L 210.77902 -255.622575 
L 210.910696 -255.129748 
L 210.923863 -254.630335 
L 210.800966 -253.64029 
L 210.634177 -253.048678 
L 210.449831 -252.644757 
L 210.432275 -252.213396 
L 210.765853 -251.538366 
L 211.270609 -251.067491 
L 211.893873 -250.651496 
L 212.385462 -250.163059 
L 212.490802 -249.477053 
L 212.038716 -248.388223 
L 211.498846 -247.409154 
L 211.437398 -246.672657 
L 212.424964 -246.315934 
L 213.09212 -246.447647 
L 214.777567 -247.049138 
L 215.602733 -247.044747 
L 216.542019 -246.554115 
L 216.651748 -245.973479 
L 216.190884 -245.400526 
L 214.163081 -244.35121 
L 214.242086 -244.118517 
L 214.909242 -243.868262 
L 215.440334 -243.221769 
L 214.593221 -242.680647 
L 214.312313 -242.352461 
L 214.852183 -242.148306 
L 215.212096 -242.172453 
L 215.94509 -242.361242 
L 216.779035 -242.416123 
L 217.621758 -242.654304 
L 218.069455 -242.691623 
L 218.09579 -242.484175 
L 219.039464 -241.265827 
L 219.680285 -239.552456 
L 220.171874 -239.273663 
L 220.369387 -239.451476 
L 220.553733 -239.85869 
L 220.99704 -240.273586 
L 222.151396 -240.608358 
L 222.915114 -240.302124 
L 224.293318 -238.831326 
L 225.092149 -238.414234 
L 225.886591 -238.170564 
L 226.509856 -237.768839 
L 226.795152 -236.875383 
L 226.689812 -233.459619 
L 226.290396 -231.757224 
L 225.482786 -230.516924 
L 225.08776 -230.316062 
L 224.653231 -230.20191 
L 224.266982 -230.032878 
L 224.029967 -229.660788 
L 224.06508 -229.200889 
L 224.587393 -228.29097 
L 224.76296 -227.824485 
L 224.697123 -227.421662 
L 224.271372 -226.381127 
L 224.144085 -225.900373 
L 224.253815 -225.39218 
L 224.587393 -224.936671 
L 224.986809 -224.50092 
L 225.298441 -224.046509 
L 225.847089 -222.351798 
L 226.26845 -217.135951 
L 226.729315 -216.163468 
L 227.61593 -215.599296 
L 229.617398 -215.026343 
L 230.508402 -214.435829 
L 231.005973 -213.545184 
L 231.008769 -213.540178 
L 232.24213 -207.114765 
L 232.667881 -206.374975 
L 234.01536 -204.875639 
L 234.651792 -203.861447 
L 235.03804 -203.461916 
L 235.617412 -203.308251 
L 235.880763 -203.398255 
L 236.354795 -203.786809 
L 236.530362 -203.872423 
L 236.635703 -203.94706 
L 236.824438 -204.278539 
L 236.929778 -204.346591 
L 237.092178 -204.269758 
L 237.184351 -204.122678 
L 237.254578 -203.975598 
L 237.337972 -203.898765 
L 237.416978 -203.784614 
L 238.619614 -203.207271 
L 238.843462 -203.15239 
L 239.133149 -202.792374 
L 239.304327 -202.416991 
L 240.168996 -199.738821 
L 240.814206 -196.048653 
L 242.604993 -192.325557 
L 243.004409 -191.934808 
L 243.58817 -191.890904 
L 243.930527 -192.20482 
L 244.211434 -192.558251 
L 244.597683 -192.617522 
L 245.023433 -192.037983 
L 245.264839 -189.923985 
L 245.510633 -189.113948 
L 246.669377 -187.924138 
L 247.060015 -187.199715 
L 246.945896 -186.236013 
L 246.318243 -185.483052 
L 245.462352 -184.995713 
L 244.694245 -184.403003 
L 244.321164 -183.353687 
L 244.597683 -181.685319 
L 246.240403 -177.724 
L 247.007345 -175.874567 
L 248.925418 -171.252528 
L 248.929807 -170.430418 
L 248.530391 -168.535942 
L 248.464554 -167.709441 
L 248.517224 -166.831352 
L 248.692791 -165.980704 
L 248.995645 -165.236524 
L 249.368726 -164.795284 
L 250.36507 -163.86451 
L 250.58014 -163.39144 
L 250.42213 -162.935931 
L 249.627687 -161.93052 
L 249.443342 -161.413545 
L 249.39945 -153.157317 
L 249.144877 -152.235324 
L 247.797398 -149.380438 
L 247.490155 -148.898587 
L 247.055626 -148.491374 
L 246.634264 -148.298194 
L 245.74326 -148.115991 
L 245.317509 -147.901957 
L 244.338721 -146.44433 
L 243.443327 -143.014296 
L 240.919546 -140.948592 
L 240.994023 -140.236722 
L 241.077557 -139.43828 
L 241.81494 -137.710641 
L 242.258248 -136.02032 
L 241.722767 -134.294876 
L 240.370898 -133.682409 
L 236.877108 -133.324588 
L 235.994882 -132.784563 
L 234.546451 -131.392793 
L 232.487924 -130.923016 
L 232.198238 -130.145907 
L 232.128011 -129.188791 
L 231.911668 -128.819446 
L 231.671536 -128.409487 
L 231.622123 -128.400066 
L 230.784921 -128.240455 
L 230.09143 -128.633399 
L 229.38916 -128.798041 
L 228.520102 -127.946295 
L 228.103129 -127.186749 
L 227.747605 -126.321831 
L 227.528146 -125.4174 
L 227.501811 -123.511948 
L 227.251628 -122.64264 
L 226.149942 -119.920565 
L 224.92536 -118.32903 
L 224.315264 -116.618952 
L 223.586659 -115.955995 
L 220.860976 -114.590567 
L 220.509841 -114.21738 
L 220.418524 -113.684801 
L 220.250879 -112.707067 
L 219.566167 -110.885033 
L 218.543487 -109.787423 
L 217.169672 -109.089342 
L 215.444723 -108.465899 
L 214.189416 -107.605372 
L 213.460812 -106.29702 
L 213.425576 -106.152529 
L 212.403018 -101.959263 
L 212.271343 -101.599246 
L 211.972878 -101.155811 
L 211.239885 -100.286504 
L 211.05115 -99.900145 
L 211.095041 -99.118646 
L 211.573463 -97.568819 
L 211.454955 -96.703902 
L 211.090652 -96.141925 
L 209.563216 -94.956506 
L 206.14989 -90.402775 
L 205.788518 -89.920668 
L 203.317407 -86.627835 
L 203.185732 -85.789261 
L 204.506876 -81.411989 
L 205.819242 -77.047888 
L 205.863134 -75.405863 
L 205.081859 -68.662142 
L 204.072347 -59.903208 
L 203.370078 -53.809273 
L 203.528088 -48.018279 
L 203.769493 -39.373496 
L 200.288871 -39.373496 
L 192.51782 -39.373496 
L 192.199639 -39.373496 
L 184.740186 -39.373496 
L 183.478331 -39.373496 
L 176.966942 -39.373496 
L 169.189308 -39.373496 
L 161.418258 -39.373496 
L 158.881343 -39.373496 
L 153.642818 -39.373496 
L 153.574648 -39.373496 
L 145.869573 -39.373496 
L 138.089745 -39.373496 
L 130.314305 -39.373496 
L 122.536671 -39.373496 
L 122.315052 -39.373496 
L 114.763427 -39.373496 
L 106.990182 -39.373496 
L 99.214743 -39.373496 
L 92.345423 -39.373496 
L 91.439303 -39.373496 
L 83.666058 -39.373496 
L 75.888424 -39.373496 
L 73.145185 -39.373496 
L 72.46925 -39.70717 
L 70.968149 -40.084748 
L 69.370486 -39.250564 
L 67.759656 -38.741272 
L 67.14517 -38.42077 
L 65.626512 -36.813868 
L 65.086643 -36.366043 
L 64.063963 -36.686545 
L 63.137845 -36.787525 
L 60.995923 -36.589955 
L 60.20587 -36.405557 
L 59.69453 -36.366043 
L 59.45532 -36.475804 
L 59.235861 -36.712888 
L 58.919839 -36.923629 
L 58.393137 -36.971924 
L 58.050781 -36.695326 
L 58.001304 -36.643585 
" style="stroke: #000000"/>
    </defs>
    <g clip-path="url(#p27c9d5b9f6)">
     <use xlink:href="#m9bb554714b" x="0" y="280.512" style="fill: #f5f5f5; stroke: #000000"/>
    </g>
   </g>
  </g>
 </g>
 <defs>
  <clipPath id="p27c9d5b9f6">
   <rect x="7.2" y="7.2" width="254.969671" height="266.112"/>
  </clipPath>
 </defs>
</svg>
