<?xml version="1.0" encoding="utf-8" standalone="no"?>
<!DOCTYPE svg PUBLIC "-//W3C//DTD SVG 1.1//EN"
  "http://www.w3.org/Graphics/SVG/1.1/DTD/svg11.dtd">
<svg xmlns:xlink="http://www.w3.org/1999/xlink" width="352.340577pt" height="280.512pt" viewBox="0 0 352.340577 280.512" xmlns="http://www.w3.org/2000/svg" version="1.1">
 <metadata>
  <rdf:RDF xmlns:dc="http://purl.org/dc/elements/1.1/" xmlns:cc="http://creativecommons.org/ns#" xmlns:rdf="http://www.w3.org/1999/02/22-rdf-syntax-ns#">
   <cc:Work>
    <dc:type rdf:resource="http://purl.org/dc/dcmitype/StillImage"/>
    <dc:date>2024-03-04T13:11:13.595030</dc:date>
    <dc:format>image/svg+xml</dc:format>
    <dc:creator>
     <cc:Agent>
      <dc:title>Matplotlib v3.8.0, https://matplotlib.org/</dc:title>
     </cc:Agent>
    </dc:creator>
   </cc:Work>
  </rdf:RDF>
 </metadata>
 <defs>
  <style type="text/css">*{stroke-linejoin: round; stroke-linecap: butt}</style>
 </defs>
 <g id="figure_1">
  <g id="patch_1">
   <path d="M -0 280.512 
L 352.340577 280.512 
L 352.340577 0 
L -0 0 
z
" style="fill: #ffffff"/>
  </g>
  <g id="axes_1">
   <g id="PatchCollection_1">
    <path d="M 323.105875 50.629768 
L 324.461815 51.420518 
L 325.926295 52.004785 
L 326.996092 52.232791 
L 327.505024 53.036515 
L 328.907185 57.756253 
L 328.512503 64.231643 
L 328.590401 64.938464 
L 328.803322 66.819519 
L 328.715037 67.341085 
L 328.221684 68.21321 
L 328.284003 68.854479 
L 328.907185 69.971712 
L 329.20839 70.678533 
L 329.494016 71.140246 
L 329.706937 71.684612 
L 329.738096 72.075074 
L 329.779641 72.62229 
L 329.717323 73.408913 
L 329.447277 74.782653 
L 329.244743 76.874614 
L 328.652719 79.924204 
L 328.413832 89.796894 
L 328.398253 90.566416 
L 329.758869 96.104129 
L 326.292753 96.491341 
L 326.002747 96.82405 
L 325.67279 97.202594 
L 325.466863 99.487554 
L 325.353552 100.744849 
L 325.310045 101.227596 
L 324.973682 101.920751 
L 323.186342 103.194852 
L 322.826853 103.547498 
L 320.719681 105.614559 
L 319.57209 106.171978 
L 317.184573 106.468786 
L 316.233821 106.901224 
L 316.221652 106.906758 
L 315.179587 109.518304 
L 313.807754 111.190562 
L 313.418628 112.390462 
L 312.844833 113.110763 
L 311.624693 113.454626 
L 310.272646 113.50711 
L 310.165325 113.492097 
L 309.263557 113.365946 
L 307.311333 111.798656 
L 305.431658 106.975531 
L 303.050737 104.814626 
L 302.595657 103.777609 
L 302.800113 102.896235 
L 303.921323 102.555992 
L 304.811695 102.773168 
L 305.636114 103.194852 
L 307.166236 104.302452 
L 306.909712 102.804119 
L 306.381389 99.71822 
L 305.6559 97.647806 
L 303.921323 96.556494 
L 303.758625 96.531703 
L 301.177657 96.13843 
L 298.724187 96.77729 
L 296.501553 98.188937 
L 296.22557 98.441215 
L 294.410827 100.100089 
L 292.47839 102.555992 
L 291.812259 104.720516 
L 292.346483 110.102871 
L 292.346483 111.420407 
L 292.069478 114.030143 
L 292.201385 115.316913 
L 292.534298 116.063669 
L 293.487478 118.201739 
L 293.698529 119.557282 
L 291.911189 121.204203 
L 291.515468 123.553327 
L 290.618501 124.528811 
L 289.972156 125.500675 
L 290.057896 126.977475 
L 290.855933 129.932883 
L 290.710836 133.72623 
L 290.915291 134.790395 
L 291.324203 135.282661 
L 292.603701 136.151367 
L 293.085162 136.770319 
L 293.23026 137.358505 
L 293.006018 140.751886 
L 292.597106 141.768995 
L 290.117254 146.203013 
L 289.609412 147.42825 
L 289.708342 148.488794 
L 290.473403 148.870663 
L 294.470185 149.753847 
L 295.545228 149.81357 
L 299.119908 148.354869 
L 301.032559 149.162041 
L 302.041648 151.675858 
L 302.793518 154.645744 
L 305.161249 158.929548 
L 304.455546 160.042577 
L 300.419192 161.039779 
L 292.986232 164.098346 
L 291.799068 163.951752 
L 290.13704 162.650504 
L 288.989449 162.851392 
L 287.940788 163.249548 
L 286.958081 163.274886 
L 284.880545 162.921974 
L 282.763438 162.86949 
L 280.943121 163.211542 
L 279.201949 163.920985 
L 277.328869 164.956193 
L 276.088943 165.642108 
L 273.378254 166.680935 
L 270.634588 167.202158 
L 270.377369 168.224697 
L 270.937974 169.48613 
L 272.006421 170.465233 
L 274.321389 171.864211 
L 275.343668 173.400734 
L 275.633864 175.416855 
L 275.83832 180.728627 
L 275.56791 181.658865 
L 272.586812 186.107361 
L 272.006421 187.290973 
L 269.902504 195.983457 
L 269.018727 197.33719 
L 266.637805 199.974073 
L 266.624615 199.981312 
L 265.430856 201.791115 
L 264.718558 204.125761 
L 263.386298 211.111601 
L 261.974893 215.397215 
L 255.900575 226.172783 
L 253.915374 232.90887 
L 253.691132 234.982904 
L 253.691132 234.990143 
L 254.093448 245.210101 
L 253.407532 255.42825 
L 249.166722 261.042259 
L 248.2038 261.216 
L 239.478151 260.039628 
L 230.600809 258.837919 
L 221.723467 257.643449 
L 212.852721 256.448979 
L 203.988569 255.247269 
L 195.111227 254.04918 
L 186.24048 252.85471 
L 177.369734 251.65481 
L 168.485796 250.454911 
L 159.61505 249.256821 
L 150.744303 248.060541 
L 141.866961 246.862452 
L 132.996214 245.664362 
L 124.125468 244.468082 
L 115.248126 243.271802 
L 106.377379 242.073713 
L 97.506632 240.875623 
L 87.250862 239.491124 
L 85.681168 238.96809 
L 84.404968 237.835154 
L 80.981981 233.381228 
L 77.651329 229.035891 
L 74.323975 224.690554 
L 70.993322 220.345217 
L 67.672563 216.005309 
L 64.341911 211.661781 
L 61.017854 207.314634 
L 57.687202 202.969297 
L 54.363146 198.629389 
L 51.032494 194.285862 
L 47.708437 189.938715 
L 44.377785 185.598807 
L 41.047133 181.255279 
L 37.71648 176.915372 
L 34.392424 172.568225 
L 31.061772 168.222887 
L 27.737715 163.87936 
L 24.103677 159.135866 
L 23.147351 157.488945 
L 22.804393 155.668283 
L 22.9363 151.178162 
L 22.956086 149.371978 
L 22.560935 146.678862 
L 23.921551 144.700904 
L 23.983869 141.605714 
L 22.856947 139.09479 
L 24.118892 137.661198 
L 24.66937 138.852533 
L 26.035179 140.853292 
L 26.300032 142.227032 
L 26.300032 146.26845 
L 26.715487 148.730923 
L 27.624295 149.31234 
L 28.533103 148.314811 
L 29.151093 145.145518 
L 29.582128 146.006243 
L 30.215697 148.183707 
L 30.641538 148.907628 
L 30.942743 149.078633 
L 31.52438 149.135635 
L 32.064472 148.99598 
L 32.407223 148.668221 
L 32.485121 148.331911 
L 32.230654 148.183707 
L 33.456247 145.182569 
L 34.650681 144.273392 
L 35.969751 146.26845 
L 36.146319 147.784695 
L 35.491977 152.270727 
L 35.585455 153.889574 
L 36.364433 157.355276 
L 36.437138 158.107698 
L 36.364433 160.467567 
L 36.499456 161.219989 
L 37.096673 162.645031 
L 37.226503 163.334751 
L 37.880844 164.574538 
L 39.402449 164.976399 
L 42.502783 165.050502 
L 43.250602 165.295609 
L 43.821853 165.626218 
L 44.917616 166.69785 
L 45.49406 167.091161 
L 45.98222 167.091161 
L 46.158789 166.780502 
L 45.790072 166.224736 
L 45.665436 165.463764 
L 47.036438 165.258558 
L 50.682057 165.472314 
L 51.123478 165.34406 
L 51.570092 165.472314 
L 52.36465 166.224736 
L 54.343255 167.182364 
L 54.872961 167.156713 
L 57.568226 166.660799 
L 58.695148 166.965758 
L 59.328717 166.583847 
L 59.967479 166.965758 
L 60.959379 166.486944 
L 62.055142 166.424242 
L 63.20803 166.504044 
L 64.360918 166.441342 
L 65.420328 166.048031 
L 67.850741 164.526086 
L 68.925731 164.360781 
L 70.961462 164.352231 
L 71.807952 164.095724 
L 72.540191 163.477255 
L 73.31917 162.667832 
L 74.170853 161.961011 
L 75.079661 161.658902 
L 76.133879 161.453696 
L 77.359471 160.934981 
L 78.387723 160.23101 
L 78.818757 159.487138 
L 79.177088 158.691965 
L 81.11934 157.85404 
L 82.064501 157.093068 
L 82.905798 156.229493 
L 84.022333 155.388718 
L 85.144062 154.741749 
L 86.011325 154.485242 
L 86.707212 153.969376 
L 86.904554 152.783742 
L 86.925326 151.492654 
L 87.101895 150.657579 
L 88.34826 149.945058 
L 89.506342 150.35547 
L 90.508627 151.321649 
L 92.804017 154.485242 
L 93.520677 154.75885 
L 93.780336 154.573594 
L 93.988064 154.214484 
L 94.548929 153.963676 
L 95.992635 154.009278 
L 98.60481 154.7731 
L 99.991391 154.964056 
L 100.801529 154.824402 
L 102.172531 154.163182 
L 102.858032 153.963676 
L 103.595465 153.975077 
L 104.145943 154.143232 
L 104.587364 154.348438 
L 105.049558 154.485242 
L 110.481634 154.964056 
L 111.09443 154.841502 
L 113.358661 153.963676 
L 113.659866 153.701469 
L 113.74815 153.319557 
L 113.841628 153.017448 
L 114.231117 153.006048 
L 114.558288 153.219804 
L 114.802368 153.524763 
L 114.978936 153.809772 
L 115.103573 153.963676 
L 116.973121 155.519822 
L 118.146782 156.084138 
L 120.696638 154.964056 
L 122.005322 155.46852 
L 123.204948 156.12404 
L 124.285132 155.878932 
L 123.407483 155.360217 
L 123.15821 154.693298 
L 123.132244 153.900974 
L 122.945289 153.006048 
L 124.404575 152.692539 
L 126.081975 153.456361 
L 127.613966 154.707548 
L 128.647411 155.878932 
L 129.530253 157.326775 
L 130.049572 157.702986 
L 133.580941 157.913892 
L 141.744635 156.229493 
L 142.305499 156.229493 
L 142.866364 156.608554 
L 143.73882 157.594683 
L 144.408741 158.059246 
L 145.317549 158.273003 
L 146.26271 158.210301 
L 146.99495 157.83694 
L 148.153031 158.717616 
L 148.838532 159.105227 
L 149.425362 159.270532 
L 149.690215 159.53844 
L 150.510739 160.812427 
L 150.95216 161.222839 
L 151.481865 161.325442 
L 152.214105 161.316892 
L 152.915186 161.191488 
L 154.005755 160.627172 
L 154.660097 160.786776 
L 155.2677 161.094585 
L 155.781826 161.222839 
L 157.750045 160.273761 
L 158.18108 159.965952 
L 158.705592 159.683794 
L 159.318388 159.800648 
L 159.957151 160.062855 
L 160.57514 160.22816 
L 168.338959 160.279462 
L 169.943654 160.079956 
L 170.639541 159.487138 
L 174.555206 157.355276 
L 178.585121 156.688356 
L 179.85226 156.024287 
L 181.192103 155.767779 
L 182.874696 154.964056 
L 184.822142 154.690448 
L 185.492064 154.485242 
L 186.312587 153.972227 
L 187.475862 153.045949 
L 188.524886 151.937267 
L 188.9715 150.879886 
L 189.60507 150.361171 
L 193.801167 149.135635 
L 197.19232 146.636111 
L 197.768764 146.533508 
L 198.282889 145.664233 
L 199.492902 145.726935 
L 202.084304 146.790016 
L 202.567271 146.000543 
L 204.935365 144.159389 
L 206.129799 142.477839 
L 208.658882 137.421791 
L 208.300552 135.666139 
L 208.503086 134.845315 
L 209.531338 134.3152 
L 208.939314 133.916188 
L 208.658882 133.836386 
L 208.658882 133.31482 
L 209.650781 133.408873 
L 211.219124 134.138495 
L 212.148705 134.3152 
L 211.743637 133.434524 
L 210.653067 132.234639 
L 210.434953 131.399564 
L 211.385306 131.844177 
L 212.403172 132.151986 
L 213.317173 132.562398 
L 213.924776 133.31482 
L 214.324652 133.31482 
L 214.127311 131.467966 
L 212.927684 130.886549 
L 211.239897 130.801047 
L 209.531338 130.444786 
L 205.792241 127.925312 
L 204.301796 127.571902 
L 204.301796 127.141539 
L 205.070388 126.919233 
L 205.85456 126.397667 
L 206.508902 125.639545 
L 206.617958 126.084158 
L 206.836072 126.665575 
L 207.350198 127.141539 
L 207.178823 126.423318 
L 207.396937 125.79345 
L 208.222654 124.704718 
L 208.658882 124.704718 
L 209.162621 126.637074 
L 210.3986 128.52953 
L 211.966944 129.709465 
L 213.488548 129.487158 
L 213.099059 129.279102 
L 212.148705 128.489629 
L 212.880945 128.52668 
L 214.251947 128.971293 
L 214.797232 129.008344 
L 215.010153 128.763237 
L 215.560631 127.791358 
L 215.887802 127.571902 
L 218.281862 122.74956 
L 217.222452 122.293547 
L 216.734292 121.669379 
L 216.973178 121.113612 
L 218.063748 120.879906 
L 218.728476 120.455243 
L 218.915431 119.497615 
L 219.284148 118.505786 
L 220.463002 117.96712 
L 220.463002 117.531057 
L 219.90733 117.123495 
L 219.642478 116.405274 
L 219.455523 115.521748 
L 219.159511 114.621122 
L 219.502262 114.113807 
L 219.040068 113.817398 
L 218.541522 113.307233 
L 218.723283 112.18145 
L 219.310114 111.528781 
L 221.808038 109.835832 
L 222.119629 109.365568 
L 222.426027 108.707198 
L 222.789551 108.313887 
L 224.752576 109.223064 
L 224.85644 109.314266 
L 225.796407 109.11761 
L 226.715602 108.484892 
L 227.03758 107.552915 
L 226.170317 106.447082 
L 233.113611 102.377163 
L 236.234718 100.119896 
L 238.171778 98.330044 
L 239.449303 97.475019 
L 241.028032 96.959154 
L 241.163055 96.913552 
L 241.443487 96.82235 
L 241.697954 96.739697 
L 241.858943 96.685546 
L 242.170534 96.49744 
L 242.378262 96.374887 
L 242.492512 96.306485 
L 242.632728 96.223832 
L 242.902774 96.061377 
L 244.673651 95.041047 
L 244.330901 93.604605 
L 246.439336 93.159992 
L 246.735348 93.399399 
L 251.497502 87.801835 
L 258.014955 79.499541 
L 258.342126 78.385159 
L 258.290194 77.42183 
L 259.505401 76.318848 
L 260.523266 76.472753 
L 261.478813 77.843643 
L 261.80079 78.798421 
L 261.535938 79.724698 
L 260.699834 81.012936 
L 262.470712 80.46572 
L 262.813462 79.223083 
L 262.320109 77.684038 
L 261.037392 75.312769 
L 260.866016 74.754152 
L 261.219153 74.144234 
L 263.140633 72.063673 
L 263.701498 71.829966 
L 264.667431 71.881268 
L 264.371419 71.003442 
L 264.418158 70.162668 
L 264.807647 69.461547 
L 265.539887 69.014084 
L 266.183842 69.567 
L 267.471753 68.469718 
L 269.497097 65.665236 
L 269.89178 65.665236 
L 270.172212 66.517411 
L 270.540928 66.568712 
L 270.914838 66.044297 
L 271.200463 65.186422 
L 271.636691 65.665236 
L 272.503954 63.063109 
L 273.111557 61.928776 
L 273.812638 61.318858 
L 273.01808 60.902746 
L 273.423149 60.047721 
L 274.243673 58.936188 
L 274.685094 57.756253 
L 274.965526 56.570619 
L 275.666606 55.185478 
L 276.648119 54.051145 
L 277.738689 53.626482 
L 277.193404 54.772216 
L 276.492324 55.712744 
L 276.087255 56.576319 
L 276.466358 57.491196 
L 277.458257 57.893057 
L 278.709815 57.676451 
L 280.10159 57.248939 
L 281.45182 57.012382 
L 281.851695 56.462316 
L 282.843594 53.731935 
L 283.404459 52.711605 
L 285.097439 50.904652 
L 286.120497 50.120879 
L 288.317216 49.274405 
L 289.953071 46.971537 
L 290.654151 46.447122 
L 291.230595 46.358769 
L 292.040733 46.105112 
L 292.757393 45.728901 
L 293.068985 45.255787 
L 293.35461 45.090482 
L 295.244931 44.580317 
L 297.519548 42.742013 
L 300.988599 38.364285 
L 302.728317 36.885091 
L 302.349214 37.52066 
L 301.944145 38.957102 
L 301.289804 40.176938 
L 301.549463 40.5959 
L 302.011657 40.718454 
L 302.255737 40.496147 
L 302.39076 39.447316 
L 302.982783 37.466508 
L 303.128193 36.14692 
L 303.533261 35.542702 
L 306.21814 33.020378 
L 306.779005 32.293606 
L 307.261972 31.478483 
L 307.651461 30.480953 
L 307.916313 29.189865 
L 307.480085 29.189865 
L 307.251585 29.839684 
L 306.872482 30.3869 
L 306.379129 30.805863 
L 305.781912 31.05667 
L 307.448926 28.286389 
L 308.830315 25.322302 
L 309.972816 20.870471 
L 310.237253 20.258666 
L 311.717027 20.132129 
L 314.955345 19.296 
L 315.680833 19.382871 
L 316.683327 22.083097 
L 317.006499 23.516461 
L 316.867996 24.797801 
L 316.445894 26.879075 
L 316.18208 33.162711 
L 315.753382 34.168962 
L 314.520052 35.888275 
L 314.21007 36.934341 
L 314.49367 38.128811 
L 315.977624 40.105116 
L 316.274415 40.977441 
L 315.819336 41.893202 
L 314.994917 42.526633 
L 314.309 43.257793 
L 314.256238 44.459502 
L 314.559624 47.590462 
L 314.922368 48.43021 
L 315.029639 48.492352 
L 315.278517 48.636528 
L 316.775662 48.904379 
L 317.349457 49.371308 
L 317.982611 50.782954 
L 318.431094 51.307797 
L 319.433588 51.582887 
L 320.455867 51.391048 
L 323.105875 50.629768 
M 321.929743 71.388626 
L 320.206767 72.687877 
L 320.337151 73.825367 
L 320.542165 74.528579 
L 320.925477 75.107085 
L 320.302595 75.843366 
L 318.595519 76.691048 
L 318.451778 78.426567 
L 318.547606 79.110256 
L 319.334658 79.50091 
L 320.343746 79.786859 
L 321.392407 79.334408 
L 323.278677 77.984295 
L 324.005301 77.358379 
L 325.490633 76.832464 
L 327.274212 75.909767 
L 327.577167 73.983802 
L 325.040296 73.472248 
L 323.848228 71.636047 
L 321.929743 71.388626 
" clip-path="url(#p44413f9aea)" style="fill: #f5f5f5; stroke: #000000"/>
    <path d="M 322.083003 77.121875 
L 321.862976 75.247578 
L 322.213768 74.883804 
L 322.771265 74.87583 
L 323.697602 75.531649 
L 323.356265 76.683876 
L 322.083003 77.121875 
" clip-path="url(#p44413f9aea)" style="fill: #f5f5f5; stroke: #000000"/>
    <path d="M 155.781826 153.527613 
L 154.66529 153.382259 
L 153.943437 153.120052 
L 153.917471 152.578536 
L 154.90937 151.575306 
L 155.631224 151.130693 
L 155.724701 151.073691 
L 155.724701 151.067991 
L 157.293044 150.483724 
L 157.962966 150.141714 
L 159.178172 149.050132 
L 159.536502 148.813575 
L 159.983117 148.520017 
L 160.258356 148.431664 
L 161.011368 148.183707 
L 161.608585 148.200807 
L 162.543359 148.602669 
L 162.683575 148.63402 
L 163.010746 148.705272 
L 163.446974 148.520017 
L 164.973772 147.26883 
L 166.734263 146.519258 
L 167.435344 146.105996 
L 167.980628 145.356424 
L 168.323379 146.222849 
L 168.245481 146.428055 
L 167.980628 146.790016 
L 168.63497 147.867347 
L 168.930982 148.183707 
L 170.561644 149.215437 
L 170.80053 149.363641 
L 172.986863 149.816805 
L 173.45425 150.00776 
L 174.77332 150.543576 
L 175.427662 152.532934 
L 174.54482 154.134681 
L 172.592181 154.827252 
L 170.307177 154.733199 
L 168.416856 153.963676 
L 168.551879 153.313857 
L 168.058526 152.418931 
L 167.295127 152.193774 
L 166.630399 153.527613 
L 167.108173 153.963676 
L 165.373647 155.09801 
L 163.291178 155.508422 
L 161.172357 155.271865 
L 159.266456 154.485242 
L 158.1655 153.863923 
L 158.155114 153.861073 
L 157.521545 153.644467 
L 155.781826 153.527613 
" clip-path="url(#p44413f9aea)" style="fill: #f5f5f5; stroke: #000000"/>
    <path d="M 189.843956 148.705272 
L 189.210387 147.456935 
L 187.839385 146.844167 
L 186.229496 146.382454 
L 184.853301 145.592981 
L 184.152221 143.771777 
L 184.152221 143.766077 
L 185.024676 142.312534 
L 186.411258 141.725417 
L 186.738429 142.018976 
L 187.268134 142.48924 
L 188.893603 144.299043 
L 189.688161 145.185419 
L 190.363275 146.892619 
L 190.358082 146.895469 
L 189.843956 148.705272 
" clip-path="url(#p44413f9aea)" style="fill: #f5f5f5; stroke: #000000"/>
    <path d="M 86.702019 140.531232 
L 87.512157 139.371248 
L 89.038954 138.479172 
L 90.530066 138.944029 
L 91.226504 140.056375 
L 91.576211 141.86489 
L 91.443401 142.942403 
L 90.067206 144.757906 
L 88.883159 145.832388 
L 87.830297 146.875206 
L 86.995011 145.972241 
L 86.297809 144.790739 
L 85.52981 143.12237 
L 85.666055 141.730845 
L 86.702019 140.531232 
" clip-path="url(#p44413f9aea)" style="fill: #f5f5f5; stroke: #000000"/>
    <path d="M 134.453055 146.222201 
L 133.553744 145.106238 
L 132.650005 145.033121 
L 131.46968 144.402769 
L 130.840118 145.443395 
L 128.406194 145.087023 
L 127.50234 144.944953 
L 126.15468 145.21962 
L 125.92618 145.299422 
L 125.759998 145.293722 
L 125.604202 144.923211 
L 125.635361 144.518499 
L 125.832702 144.011184 
L 126.061203 143.583672 
L 126.258544 143.401266 
L 128.647411 143.919982 
L 129.291366 143.763227 
L 130.932414 143.030755 
L 131.259585 142.728647 
L 131.602336 142.477839 
L 133.705595 141.630488 
L 134.890016 141.079267 
L 135.446504 141.081707 
L 136.067917 142.196713 
L 136.692295 142.547011 
L 137.257719 142.261233 
L 137.397935 141.49741 
L 137.320037 140.744988 
L 136.930548 140.055268 
L 139.324609 136.504064 
L 140.451531 135.706041 
L 140.508656 136.110752 
L 140.794281 136.803323 
L 140.887759 137.182384 
L 142.367818 138.008908 
L 142.383397 138.017458 
L 141.962749 140.719338 
L 141.145408 141.594502 
L 138.638016 142.764435 
L 137.453192 143.523629 
L 135.922926 143.725534 
L 135.016537 144.417006 
L 135.013502 145.181678 
L 134.453055 146.222201 
" clip-path="url(#p44413f9aea)" style="fill: #f5f5f5; stroke: #000000"/>
    <path d="M 202.084304 133.836386 
L 199.035902 132.878758 
L 199.035902 131.775775 
L 201.62211 129.347504 
L 202.520532 128.010815 
L 202.95676 128.010815 
L 202.520532 129.490008 
L 202.982726 130.758295 
L 204.109648 131.658922 
L 206.477742 132.878758 
L 207.64621 134.050142 
L 207.698142 134.851015 
L 206.8153 135.147424 
L 205.1379 134.836765 
L 202.084304 133.836386 
" clip-path="url(#p44413f9aea)" style="fill: #f5f5f5; stroke: #000000"/>
    <path d="M 194.668429 143.994084 
L 194.091985 144.467198 
L 193.484382 144.786407 
L 192.939097 144.926061 
L 192.238017 144.911811 
L 191.848528 144.695204 
L 190.757958 143.404116 
L 189.94782 142.83125 
L 189.355797 142.557642 
L 189.122103 142.107328 
L 189.449274 141.012896 
L 189.916661 140.374478 
L 190.674867 139.844362 
L 191.583675 139.547953 
L 192.502869 139.576454 
L 193.063734 140.753539 
L 193.697303 141.748218 
L 195.120237 143.404116 
L 194.668429 143.994084 
" clip-path="url(#p44413f9aea)" style="fill: #f5f5f5; stroke: #000000"/>
    <path d="M 198.464651 138.493422 
L 199.067061 139.126141 
L 199.118993 140.083769 
L 198.438685 142.118729 
L 197.384468 142.637444 
L 195.639556 139.582154 
L 195.478567 139.09479 
L 195.930374 139.017838 
L 196.636648 139.205943 
L 197.254638 139.599255 
L 197.540263 139.736059 
L 197.623354 139.416849 
L 197.446786 139.043488 
L 196.506819 138.339518 
L 196.304284 137.689699 
L 197.124808 137.589946 
L 198.464651 138.493422 
" clip-path="url(#p44413f9aea)" style="fill: #f5f5f5; stroke: #000000"/>
    <path d="M 69.808574 126.83373 
L 71.264871 127.820092 
L 71.690748 129.491477 
L 70.860225 130.955805 
L 70.094712 131.305697 
L 69.164618 130.798197 
L 68.832254 130.370684 
L 68.520663 130.188279 
L 68.115594 129.809218 
L 68.059682 128.871562 
L 68.614221 128.103774 
L 69.098792 127.266513 
L 69.808574 126.83373 
" clip-path="url(#p44413f9aea)" style="fill: #f5f5f5; stroke: #000000"/>
   </g>
  </g>
 </g>
 <defs>
  <clipPath id="p44413f9aea">
   <rect x="7.2" y="7.2" width="337.940577" height="266.112"/>
  </clipPath>
 </defs>
</svg>
