<?xml version="1.0" encoding="utf-8" standalone="no"?>
<!DOCTYPE svg PUBLIC "-//W3C//DTD SVG 1.1//EN"
  "http://www.w3.org/Graphics/SVG/1.1/DTD/svg11.dtd">
<svg xmlns:xlink="http://www.w3.org/1999/xlink" width="259.543129pt" height="280.512pt" viewBox="0 0 259.543129 280.512" xmlns="http://www.w3.org/2000/svg" version="1.1">
 <metadata>
  <rdf:RDF xmlns:dc="http://purl.org/dc/elements/1.1/" xmlns:cc="http://creativecommons.org/ns#" xmlns:rdf="http://www.w3.org/1999/02/22-rdf-syntax-ns#">
   <cc:Work>
    <dc:type rdf:resource="http://purl.org/dc/dcmitype/StillImage"/>
    <dc:date>2024-03-04T13:11:13.622432</dc:date>
    <dc:format>image/svg+xml</dc:format>
    <dc:creator>
     <cc:Agent>
      <dc:title>Matplotlib v3.8.0, https://matplotlib.org/</dc:title>
     </cc:Agent>
    </dc:creator>
   </cc:Work>
  </rdf:RDF>
 </metadata>
 <defs>
  <style type="text/css">*{stroke-linejoin: round; stroke-linecap: butt}</style>
 </defs>
 <g id="figure_1">
  <g id="patch_1">
   <path d="M 0 280.512 
L 259.543129 280.512 
L 259.543129 0 
L 0 0 
z
" style="fill: #ffffff"/>
  </g>
  <g id="axes_1">
   <g id="PatchCollection_1">
    <defs>
     <path id="m4fed8ba8fb" d="M 53.331068 -256.570257 
L 53.998175 -255.899058 
L 54.808658 -253.304678 
L 56.124882 -252.407412 
L 57.170945 -252.294613 
L 59.001556 -252.63301 
L 60.008716 -252.653519 
L 60.566328 -252.35614 
L 61.193102 -251.351202 
L 61.843649 -251.182003 
L 62.256455 -251.39222 
L 63.209583 -252.268977 
L 63.743421 -252.530465 
L 64.560388 -252.494575 
L 65.085581 -252.140796 
L 65.535128 -251.720363 
L 66.14245 -251.469128 
L 66.470966 -251.597309 
L 66.989675 -252.24334 
L 67.2339 -252.371521 
L 67.564577 -252.197195 
L 68.083286 -251.612691 
L 68.292931 -251.469128 
L 69.65022 -251.766508 
L 70.85838 -252.750937 
L 71.690475 -254.150671 
L 71.919572 -255.709351 
L 72.232959 -256.975777 
L 73.123409 -258.580602 
L 74.264569 -260.0111 
L 75.317116 -260.759676 
L 75.729922 -260.723786 
L 76.512308 -260.339243 
L 76.957533 -260.334116 
L 77.776661 -260.775058 
L 78.070596 -260.887857 
L 79.60511 -261.185237 
L 80.44369 -261.216 
L 82.45801 -260.636623 
L 84.011976 -260.913493 
L 85.598361 -260.959638 
L 87.109101 -259.877792 
L 87.885003 -258.534457 
L 88.287003 -258.016606 
L 90.889193 -256.181056 
L 92.187046 -255.540152 
L 92.894868 -255.04281 
L 93.523802 -254.417288 
L 93.908512 -253.74562 
L 94.046834 -252.740682 
L 93.914995 -252.222831 
L 93.960382 -251.899816 
L 94.62714 -251.469128 
L 95.053994 -251.356329 
L 95.454913 -251.366583 
L 95.864477 -251.310184 
L 96.316186 -251.017931 
L 96.54204 -250.741061 
L 96.911621 -250.120665 
L 98.460183 -248.29537 
L 98.981053 -247.864682 
L 99.681311 -247.203269 
L 101.909598 -245.742008 
L 102.605533 -245.008813 
L 103.617015 -243.255299 
L 104.222176 -242.41956 
L 104.781949 -241.917091 
L 106.708737 -240.804481 
L 109.158557 -238.681806 
L 110.533136 -237.974248 
L 111.369554 -237.153891 
L 112.6901 -235.533685 
L 112.927842 -234.990198 
L 113.039148 -234.46722 
L 113.221777 -233.98526 
L 113.688615 -233.580208 
L 114.496937 -233.041849 
L 114.857872 -232.68807 
L 115.135597 -232.272764 
L 116.522063 -229.504057 
L 117.150998 -228.699082 
L 119.89043 -226.42259 
L 120.56151 -225.053618 
L 120.825299 -223.57818 
L 120.827348 -223.56672 
L 120.824779 -223.548308 
L 120.622026 -222.095204 
L 119.89043 -220.746742 
L 119.716446 -219.670022 
L 119.681866 -216.419356 
L 119.428995 -214.153119 
L 119.43764 -213.081527 
L 119.653663 -212.726832 
L 119.89043 -212.338078 
L 119.952444 -212.347363 
L 120.986203 -212.502149 
L 123.738603 -212.322696 
L 125.041859 -212.594439 
L 126.042535 -212.604694 
L 126.446696 -212.712366 
L 126.781695 -212.973855 
L 126.967566 -213.240471 
L 127.12426 -213.527596 
L 127.371727 -213.845485 
L 128.030485 -214.295814 
L 128.039102 -214.301704 
L 129.644321 -215.399036 
L 130.252723 -215.993796 
L 130.590965 -216.762881 
L 131.035109 -218.465122 
L 131.578673 -219.121408 
L 132.37943 -219.218826 
L 133.401719 -219.003482 
L 134.341879 -218.926574 
L 134.888685 -219.439297 
L 134.958927 -220.382708 
L 134.811959 -222.428474 
L 135.017282 -223.310359 
L 135.671071 -223.971772 
L 136.555038 -224.181988 
L 137.434682 -223.935881 
L 138.6061 -222.541273 
L 140.127646 -221.644008 
L 140.804129 -221.069757 
L 141.733483 -219.900748 
L 143.678642 -218.121598 
L 146.773605 -214.55817 
L 147.389572 -213.619886 
L 147.616508 -212.804656 
L 147.761314 -211.030633 
L 148.050926 -210.179512 
L 148.515603 -209.718061 
L 149.905311 -208.790032 
L 150.385117 -208.026074 
L 150.949213 -205.964926 
L 151.315551 -205.06766 
L 151.969341 -204.278066 
L 152.671759 -203.837124 
L 154.314338 -203.191092 
L 155.094563 -202.698878 
L 157.076463 -200.858201 
L 157.904236 -200.324968 
L 158.539655 -200.201915 
L 159.083219 -200.509549 
L 159.633266 -201.288888 
L 160.417814 -202.888585 
L 160.960297 -203.078293 
L 161.708103 -202.134882 
L 162.383505 -200.945364 
L 163.458745 -199.504611 
L 164.664744 -198.274075 
L 166.359193 -197.458845 
L 166.881144 -196.905103 
L 167.368515 -196.253945 
L 167.903433 -195.695076 
L 168.466449 -195.325915 
L 169.726479 -194.818319 
L 176.654487 -193.803127 
L 178.094985 -193.808254 
L 178.728242 -193.603164 
L 179.272887 -193.044296 
L 180.012047 -191.485617 
L 180.491853 -190.819076 
L 182.696366 -189.01429 
L 183.30801 -188.352877 
L 183.805107 -187.445356 
L 183.980171 -186.573727 
L 184.047171 -184.558724 
L 184.471554 -183.460433 
L 184.617751 -183.08208 
L 185.756749 -181.96947 
L 187.129167 -180.959405 
L 188.391359 -179.754505 
L 189.66868 -178.247099 
L 192.543192 -175.565555 
L 194.862254 -173.914586 
L 196.9198 -171.966237 
L 197.89454 -171.27406 
L 198.36354 -171.320205 
L 198.763378 -171.838056 
L 199.524151 -172.560996 
L 200.313021 -172.848121 
L 201.13431 -172.760958 
L 201.931825 -172.402052 
L 202.647212 -171.858565 
L 202.897921 -171.525295 
L 203.271824 -170.7921 
L 203.647888 -170.448575 
L 204.058532 -170.289631 
L 205.435273 -170.151196 
L 206.154981 -169.930725 
L 206.757981 -169.653854 
L 207.951011 -168.823242 
L 208.439462 -168.284883 
L 208.623172 -167.777287 
L 208.726914 -167.274818 
L 208.971139 -166.741585 
L 209.403397 -166.233989 
L 209.948041 -165.752029 
L 211.10433 -164.995762 
L 213.55523 -164.467657 
L 214.162552 -164.07286 
L 214.4111 -163.390938 
L 214.467293 -161.642551 
L 215.662485 -158.745664 
L 217.789192 -155.571906 
L 218.292772 -154.187553 
L 218.57374 -152.500693 
L 218.705578 -150.00373 
L 218.906578 -149.162863 
L 219.286965 -148.511705 
L 220.352479 -147.563166 
L 220.786898 -146.96328 
L 221.4958 -145.681471 
L 222.360315 -144.502208 
L 223.350185 -143.476761 
L 225.984795 -141.589939 
L 228.452985 -138.816105 
L 230.817434 -138.016256 
L 232.617786 -136.903647 
L 233.326689 -136.683176 
L 234.673171 -136.672921 
L 236.060717 -135.816673 
L 237.409361 -135.191151 
L 238.051263 -134.719445 
L 240.826356 -131.709759 
L 241.200259 -130.96631 
L 241.066259 -130.063916 
L 240.53026 -129.356358 
L 239.015198 -128.171967 
L 238.188962 -127.121125 
L 237.309942 -126.003147 
L 234.508913 -123.952253 
L 233.337495 -122.696081 
L 232.996012 -121.798815 
L 232.887947 -119.953011 
L 232.60698 -119.04549 
L 232.146626 -118.502004 
L 227.052471 -115.107775 
L 225.621698 -113.85673 
L 224.441635 -112.272414 
L 224.439474 -112.267287 
L 224.437313 -112.26216 
L 224.059931 -110.994479 
L 223.382605 -108.719241 
L 223.412863 -105.058396 
L 224.337894 -97.603398 
L 223.384766 -89.420332 
L 223.265895 -84.985275 
L 224.441635 -82.949763 
L 225.297505 -82.949763 
L 226.045311 -83.093325 
L 226.734762 -83.088198 
L 227.415567 -82.611365 
L 227.817567 -81.801262 
L 228.117986 -80.929632 
L 228.634533 -80.370764 
L 229.980762 -80.450357 
L 229.259009 -79.95885 
L 228.488093 -79.272527 
L 226.976894 -77.431567 
L 226.051114 -75.792467 
L 225.526959 -74.068586 
L 224.693076 -69.95065 
L 223.89323 -67.467777 
L 223.671996 -65.198875 
L 223.273774 -64.488329 
L 221.810225 -63.483068 
L 221.109083 -62.849229 
L 219.070325 -60.261389 
L 216.827351 -58.569805 
L 216.09898 -57.721995 
L 214.608202 -54.815217 
L 214.21849 -54.306531 
L 214.121487 -53.769584 
L 213.217831 -50.915289 
L 213.896849 -49.106627 
L 213.845795 -48.218445 
L 212.135485 -47.69361 
L 208.265589 -45.561972 
L 205.173416 -43.414186 
L 198.800171 -37.301877 
L 198.291332 -36.631703 
L 198.117748 -35.783893 
L 198.136468 -35.020863 
L 197.910128 -34.467768 
L 194.108305 -33.628032 
L 193.151892 -33.555363 
L 193.322072 -33.975231 
L 193.577343 -34.298206 
L 194.295503 -34.936082 
L 194.002793 -35.186388 
L 193.737312 -35.493215 
L 193.536499 -35.868674 
L 193.437795 -36.292579 
L 193.505867 -36.910269 
L 193.929615 -38.11739 
L 194.033425 -38.327324 
L 193.419075 -38.932903 
L 192.287377 -39.409291 
L 191.091011 -39.695932 
L 190.269041 -39.716118 
L 190.738738 -39.376994 
L 192.295886 -38.698746 
L 191.960631 -38.077018 
L 191.279911 -37.394733 
L 190.498784 -36.857786 
L 189.855503 -36.631703 
L 189.598531 -36.300653 
L 189.591724 -35.626442 
L 189.901452 -35.105645 
L 190.580471 -35.214649 
L 190.520907 -35.602219 
L 191.143767 -35.468992 
L 191.916384 -34.831115 
L 192.295886 -33.737036 
L 191.964035 -33.107234 
L 191.194821 -32.477432 
L 181.812791 -27.556095 
L 181.341392 -27.313864 
L 178.744443 -26.587169 
L 177.393213 -25.476941 
L 176.538909 -25.089371 
L 174.758824 -24.552424 
L 167.512555 -21.140997 
L 166.634425 -20.991621 
L 165.797139 -20.692868 
L 164.726706 -19.469599 
L 163.920052 -19.296 
L 164.114058 -19.796612 
L 164.204253 -20.111513 
L 164.205955 -20.313372 
L 163.768592 -20.971435 
L 163.203594 -21.52453 
L 162.458205 -21.895952 
L 160.805756 -22.105886 
L 160.70535 -22.299671 
L 160.744491 -22.614572 
L 160.4688 -23.054626 
L 160.045051 -23.36549 
L 159.663848 -23.543126 
L 158.753384 -23.732874 
L 156.760575 -23.635982 
L 152.914504 -22.751836 
L 151.3046 -23.054626 
L 150.206938 -24.116407 
L 148.040545 -26.966665 
L 146.423834 -27.826587 
L 145.378928 -27.899257 
L 142.606978 -28.126427 
L 140.87414 -27.94474 
L 138.718674 -28.501867 
L 137.019746 -29.266815 
L 135.140351 -28.835944 
L 133.186491 -29.64749 
L 130.549298 -28.758238 
L 129.062566 -29.181527 
L 126.271448 -28.242586 
L 125.003572 -27.72595 
L 122.271241 -25.943624 
L 120.195948 -24.470262 
L 117.453054 -22.887696 
L 115.965647 -23.016005 
L 114.69278 -22.30101 
L 114.096418 -21.928249 
L 113.837254 -20.894122 
L 112.950533 -22.127588 
L 112.23033 -22.267278 
L 111.456942 -22.555777 
L 111.805793 -23.002142 
L 111.85623 -23.557413 
L 111.390547 -23.950056 
L 110.722969 -24.041232 
L 110.473805 -23.290438 
L 109.644506 -22.630721 
L 109.247742 -22.626573 
L 108.321253 -22.764335 
L 107.347074 -22.630721 
L 106.02988 -23.732874 
L 103.512916 -25.182226 
L 102.86453 -25.763582 
L 102.767527 -26.498351 
L 103.479161 -27.102037 
L 104.186104 -27.805552 
L 105.255361 -28.065215 
L 104.634781 -28.755118 
L 103.81426 -29.094899 
L 101.610427 -29.968395 
L 100.077358 -30.202678 
L 98.598621 -30.139624 
L 97.701265 -29.534319 
L 97.027351 -29.631212 
L 96.375561 -29.934001 
L 94.813308 -30.902927 
L 94.07813 -31.242052 
L 93.332306 -31.736011 
L 90.522505 -32.510123 
L 87.103648 -32.934027 
L 83.816268 -34.338578 
L 83.113424 -34.83919 
L 82.550128 -36.058422 
L 81.898338 -36.668038 
L 80.513072 -37.649076 
L 79.521566 -38.760447 
L 78.64997 -39.602647 
L 77.881653 -40.196831 
L 76.755365 -40.889702 
L 76.140214 -41.435291 
L 76.204111 -42.11421 
L 75.931823 -42.457371 
L 75.320877 -42.873202 
L 75.063905 -43.099285 
L 74.277672 -43.979393 
L 73.522073 -44.617269 
L 72.186274 -45.215243 
L 70.043497 -45.654715 
L 66.322864 -45.741077 
L 64.031639 -45.585965 
L 63.268016 -46.231821 
L 61.334586 -46.178977 
L 60.266183 -45.53059 
L 59.757761 -46.177367 
L 58.689895 -46.276427 
L 57.519992 -45.728683 
L 56.044527 -45.082217 
L 54.724505 -46.427103 
L 53.657096 -46.478251 
L 52.436677 -46.231248 
L 50.757627 -45.487819 
L 48.416494 -44.598057 
L 47.653832 -44.70003 
L 46.584011 -44.056258 
L 45.363301 -44.160331 
L 44.141741 -44.015877 
L 42.768066 -44.221332 
L 43.176659 -44.617609 
L 42.822708 -45.366578 
L 41.652841 -45.721654 
L 40.892883 -46.922166 
L 41.001217 -48.915748 
L 39.948938 -50.039218 
L 39.113354 -51.399752 
L 36.01097 -55.029188 
L 34.635914 -55.679176 
L 34.150901 -56.438168 
L 33.499111 -58.061119 
L 32.762231 -58.763591 
L 31.725834 -59.191533 
L 30.61626 -59.393393 
L 29.646233 -59.449913 
L 28.512834 -59.675996 
L 27.988679 -60.261389 
L 27.503666 -62.126572 
L 27.022056 -63.180279 
L 23.480607 -68.255029 
L 22.714797 -68.909055 
L 21.142332 -69.84972 
L 20.456507 -70.459336 
L 19.876192 -71.416151 
L 19.569868 -72.433523 
L 18.540278 -78.255154 
L 18.342869 -82.542653 
L 18.911271 -86.789779 
L 18.775127 -87.8233 
L 18.52326 -88.8003 
L 18.385415 -89.837859 
L 18.599841 -91.012682 
L 19.169945 -91.981608 
L 20.60116 -93.862939 
L 20.885361 -94.936832 
L 20.621581 -95.905759 
L 19.462655 -96.874685 
L 19.197174 -97.851685 
L 19.462655 -98.756016 
L 20.105936 -99.551343 
L 21.61203 -101.032993 
L 22.049393 -102.026142 
L 22.112359 -103.16463 
L 21.409515 -107.468277 
L 21.372076 -109.567617 
L 22.022164 -111.158271 
L 23.740983 -111.796147 
L 27.627897 -111.56199 
L 29.423297 -111.715403 
L 30.95662 -112.474395 
L 32.529085 -113.939896 
L 33.216612 -114.836153 
L 33.499111 -115.671851 
L 33.568885 -116.822451 
L 33.76289 -117.714671 
L 34.384048 -119.583891 
L 34.690372 -121.574226 
L 34.32959 -123.059913 
L 33.4889 -124.246848 
L 31.679886 -126.160477 
L 31.24933 -126.984064 
L 31.024692 -127.892432 
L 30.95662 -128.929991 
L 31.036605 -131.166595 
L 30.960024 -132.297009 
L 30.646892 -133.160968 
L 30.95662 -133.53239 
L 30.602646 -134.808142 
L 30.143159 -138.272053 
L 29.646233 -138.982599 
L 29.310978 -139.765814 
L 28.46178 -143.49618 
L 28.348612 -144.618377 
L 28.365305 -144.73806 
L 28.773788 -145.27642 
L 29.819851 -147.481131 
L 32.46959 -151.357319 
L 32.681396 -152.864726 
L 32.246977 -154.310606 
L 29.389755 -158.166286 
L 28.916433 -159.217369 
L 29.154175 -160.232562 
L 30.077045 -161.765605 
L 30.515786 -163.68319 
L 30.641141 -165.916101 
L 30.485528 -168.033648 
L 30.077045 -169.5872 
L 28.758659 -171.104861 
L 28.244273 -172.104672 
L 28.520917 -173.124992 
L 29.6664 -174.442691 
L 30.325593 -174.940032 
L 31.246301 -175.345084 
L 33.228202 -175.745008 
L 34.239684 -176.155187 
L 34.674103 -176.867873 
L 37.194165 -184.522833 
L 37.57239 -186.707035 
L 37.26981 -188.922 
L 36.161069 -190.337116 
L 35.08828 -191.179594 
L 34.594136 -191.567653 
L 33.571847 -192.839207 
L 34.101362 -194.37225 
L 34.896716 -195.049044 
L 36.470133 -196.023219 
L 37.127165 -196.602596 
L 37.533487 -197.535753 
L 37.74097 -199.786609 
L 38.125679 -200.806928 
L 38.413131 -201.135071 
L 39.102581 -201.688813 
L 39.411646 -202.011828 
L 40.280483 -203.888396 
L 40.686805 -204.457519 
L 40.691128 -205.744455 
L 40.41016 -207.949165 
L 40.941837 -210.138494 
L 41.998707 -211.794591 
L 42.772448 -213.486578 
L 42.435287 -215.804088 
L 40.671676 -218.454868 
L 40.41016 -219.023991 
L 40.734354 -219.900748 
L 41.514578 -220.439108 
L 43.293318 -220.91594 
L 44.261575 -220.798014 
L 44.780284 -220.997976 
L 45.005058 -221.746552 
L 45.244961 -222.941198 
L 45.292509 -223.459048 
L 45.249283 -225.530451 
L 45.108384 -226.758028 
L 45.005058 -227.658253 
L 44.721012 -228.947249 
L 44.335059 -230.698703 
L 43.987091 -231.806185 
L 43.053415 -233.877588 
L 42.435287 -234.836381 
L 41.495127 -236.759094 
L 41.328708 -238.697188 
L 41.858223 -240.481465 
L 43.008028 -241.947854 
L 51.242534 -249.695105 
L 52.148113 -251.284548 
L 52.455016 -253.217515 
L 51.860662 -255.350444 
L 51.671793 -256.442507 
L 53.331068 -256.570257 
" style="stroke: #000000"/>
    </defs>
    <g clip-path="url(#p15a2cf0d37)">
     <use xlink:href="#m4fed8ba8fb" x="0" y="280.512" style="fill: #f5f5f5; stroke: #000000"/>
    </g>
   </g>
  </g>
 </g>
 <defs>
  <clipPath id="p15a2cf0d37">
   <rect x="7.2" y="7.2" width="245.143129" height="266.112"/>
  </clipPath>
 </defs>
</svg>
