<?xml version="1.0" encoding="utf-8" standalone="no"?>
<!DOCTYPE svg PUBLIC "-//W3C//DTD SVG 1.1//EN"
  "http://www.w3.org/Graphics/SVG/1.1/DTD/svg11.dtd">
<svg xmlns:xlink="http://www.w3.org/1999/xlink" width="251.943826pt" height="280.512pt" viewBox="0 0 251.943826 280.512" xmlns="http://www.w3.org/2000/svg" version="1.1">
 <metadata>
  <rdf:RDF xmlns:dc="http://purl.org/dc/elements/1.1/" xmlns:cc="http://creativecommons.org/ns#" xmlns:rdf="http://www.w3.org/1999/02/22-rdf-syntax-ns#">
   <cc:Work>
    <dc:type rdf:resource="http://purl.org/dc/dcmitype/StillImage"/>
    <dc:date>2024-03-04T13:11:13.705558</dc:date>
    <dc:format>image/svg+xml</dc:format>
    <dc:creator>
     <cc:Agent>
      <dc:title>Matplotlib v3.8.0, https://matplotlib.org/</dc:title>
     </cc:Agent>
    </dc:creator>
   </cc:Work>
  </rdf:RDF>
 </metadata>
 <defs>
  <style type="text/css">*{stroke-linejoin: round; stroke-linecap: butt}</style>
 </defs>
 <g id="figure_1">
  <g id="patch_1">
   <path d="M 0 280.512 
L 251.943826 280.512 
L 251.943826 0 
L 0 0 
z
" style="fill: #ffffff"/>
  </g>
  <g id="axes_1">
   <g id="PatchCollection_1">
    <path d="M 230.679191 134.11901 
L 231.654158 135.562848 
L 233.30972 137.427664 
L 233.94638 138.462012 
L 233.929528 138.792539 
L 233.728542 139.147564 
L 233.42357 139.426601 
L 233.093527 139.532901 
L 232.766771 139.552832 
L 231.971871 139.736781 
L 231.696081 139.870071 
L 231.527154 140.059003 
L 231.119429 140.378318 
L 231.00229 140.628704 
L 231.004345 140.859989 
L 231.044625 141.044768 
L 231.023663 141.232039 
L 230.837885 141.472459 
L 230.703483 142.117318 
L 230.542366 142.398431 
L 230.273563 142.557466 
L 229.931189 142.576151 
L 229.296584 142.515112 
L 228.957498 142.623488 
L 228.630332 142.870137 
L 228.376736 143.134226 
L 228.100535 143.365096 
L 227.336461 143.663234 
L 227.147395 143.880817 
L 226.983812 144.138262 
L 226.749909 144.351889 
L 226.688293 144.408164 
L 225.917232 144.938833 
L 225.566226 145.259394 
L 225.438812 145.628952 
L 225.051637 145.921277 
L 224.355792 145.989376 
L 223.007257 145.965292 
L 222.649675 146.08571 
L 222.425673 146.29914 
L 222.111658 146.894586 
L 221.753666 147.323938 
L 221.675573 147.471761 
L 221.664065 147.612941 
L 221.716674 147.917723 
L 221.71503 148.092121 
L 221.470888 148.525625 
L 221.509113 148.76397 
L 221.448694 148.970756 
L 221.299085 149.0837 
L 221.068506 149.041346 
L 220.96452 149.11941 
L 220.808746 149.339484 
L 220.583921 149.752227 
L 220.336902 150.06033 
L 219.615574 150.292861 
L 219.391571 150.713078 
L 219.405546 150.955575 
L 219.498846 151.188937 
L 219.867525 151.86909 
L 220.066866 151.947154 
L 220.288403 151.997813 
L 220.504185 152.148127 
L 220.573646 152.266054 
L 220.580633 152.361558 
L 220.563371 152.462875 
L 220.557616 152.598241 
L 220.621734 152.753539 
L 220.750382 152.834924 
L 220.894647 152.892227 
L 221.007676 152.980256 
L 221.11865 153.186212 
L 221.300729 153.634665 
L 221.440473 153.851417 
L 221.470888 153.984292 
L 221.469244 154.112184 
L 221.433075 154.230941 
L 221.361148 154.344716 
L 220.973973 154.694343 
L 220.775865 155.128677 
L 220.783674 155.607027 
L 221.016718 156.085377 
L 221.188111 156.258114 
L 222.295792 157.140071 
L 222.504176 157.135919 
L 222.854771 156.502272 
L 223.113298 156.254792 
L 223.451973 156.127731 
L 223.862576 156.130222 
L 224.059451 156.204134 
L 224.224678 156.314586 
L 224.398537 156.403446 
L 224.62665 156.41092 
L 224.885999 156.371888 
L 225.095205 156.388498 
L 225.284682 156.493137 
L 225.472968 156.703359 
L 225.484024 156.715702 
L 226.036837 157.026297 
L 226.241932 157.212322 
L 226.36277 157.465615 
L 226.37469 157.738008 
L 226.307695 158.020368 
L 226.18398 158.286948 
L 226.027383 158.510344 
L 225.802559 158.69803 
L 225.531701 158.874089 
L 225.291258 159.078384 
L 225.157679 159.348286 
L 225.010536 160.144705 
L 224.742555 159.985255 
L 224.316745 160.085742 
L 222.284284 161.357189 
L 221.139611 161.633734 
L 220.839572 161.764948 
L 220.581044 161.976303 
L 220.130162 162.627805 
L 219.872457 162.900198 
L 219.535426 163.018955 
L 219.29786 162.937154 
L 218.715865 162.557215 
L 218.390342 162.470431 
L 218.203742 162.492023 
L 217.837118 162.577977 
L 217.688743 162.590434 
L 217.498032 162.532716 
L 217.356233 162.428077 
L 217.241971 162.31804 
L 217.135518 162.240807 
L 216.782869 162.143642 
L 216.576129 162.126202 
L 216.483651 162.190979 
L 216.518998 162.370775 
L 216.676005 162.595832 
L 216.711353 162.744486 
L 216.704776 162.87653 
L 216.676827 162.942967 
L 216.245263 163.401801 
L 216.158539 163.468239 
L 215.828085 163.516406 
L 215.101824 163.425885 
L 214.808771 163.649696 
L 214.468452 163.544642 
L 214.131832 163.494814 
L 213.985922 163.787554 
L 213.689171 163.697033 
L 213.340631 163.664644 
L 213.040591 163.723608 
L 212.889749 163.906726 
L 212.39119 164.484316 
L 212.080464 165.056924 
L 211.848241 165.65237 
L 211.73398 166.205046 
L 211.77056 166.533912 
L 211.923046 166.692531 
L 212.144993 166.817517 
L 212.387902 167.043819 
L 212.512439 167.28424 
L 212.664514 167.765081 
L 212.837551 168.005086 
L 212.882762 168.1363 
L 212.901669 168.267929 
L 212.895093 168.400804 
L 212.86139 168.534925 
L 212.720823 168.728009 
L 212.643141 168.950989 
L 212.546142 169.725816 
L 212.568748 169.903951 
L 212.688353 170.352404 
L 212.7722 170.499397 
L 213.052511 170.674626 
L 213.131014 170.7884 
L 213.175404 170.897191 
L 213.229658 170.932901 
L 213.279801 170.984806 
L 213.310627 171.143425 
L 213.228014 171.752574 
L 213.223081 171.972232 
L 213.172116 172.228017 
L 212.994969 172.277845 
L 212.761924 172.253761 
L 212.542854 172.288641 
L 212.338169 172.469268 
L 212.167188 172.88118 
L 212.012236 173.092534 
L 211.820703 173.206308 
L 211.55971 173.290601 
L 211.031969 173.389426 
L 210.820708 173.504446 
L 210.674798 173.73241 
L 210.473812 174.244808 
L 209.727823 175.439852 
L 209.494367 175.626292 
L 208.961283 175.925261 
L 208.795233 176.10215 
L 209.067324 176.7495 
L 209.580269 177.322108 
L 210.785361 178.664975 
L 211.990863 180.005766 
L 213.196777 181.348633 
L 214.401868 182.690669 
L 215.606959 184.033121 
L 216.813284 185.375158 
L 218.018375 186.716779 
L 219.244017 188.04968 
L 219.702708 188.113626 
L 220.118654 188.271831 
L 220.445821 188.562079 
L 221.489795 191.3483 
L 221.597069 192.106102 
L 221.267848 192.895877 
L 220.195103 194.223796 
L 219.589269 194.764846 
L 218.865063 195.23406 
L 217.332394 195.919612 
L 217.194704 195.939543 
L 216.888088 195.940373 
L 216.76314 195.982312 
L 216.641891 196.125983 
L 216.202518 197.125451 
L 216.053731 197.821799 
L 215.936181 198.150664 
L 215.467215 198.771439 
L 214.915635 199.039265 
L 213.587239 199.209927 
L 212.700683 199.461143 
L 212.424071 199.49021 
L 212.148281 199.427924 
L 211.60451 199.161759 
L 211.318856 199.078297 
L 210.377224 198.952066 
L 210.085816 198.999403 
L 209.968677 199.191241 
L 210.39983 199.831532 
L 210.444219 200.168287 
L 210.202544 200.40497 
L 209.805094 200.556946 
L 209.378873 200.636256 
L 209.043897 200.655356 
L 208.12857 200.600545 
L 207.817432 200.632934 
L 207.122409 200.910725 
L 206.891008 201.345891 
L 206.796475 202.583288 
L 206.727014 202.780524 
L 206.619328 202.971947 
L 206.482461 203.141778 
L 206.322577 203.271331 
L 206.082134 203.374724 
L 205.934169 203.355624 
L 205.793602 203.296245 
L 205.576176 203.280466 
L 205.39944 203.324896 
L 205.112553 203.45611 
L 204.916911 203.481024 
L 204.779632 203.456941 
L 204.280251 203.311193 
L 203.670307 203.276314 
L 203.369445 203.317837 
L 203.074337 203.409604 
L 202.711001 203.629263 
L 201.886508 204.525338 
L 201.63168 204.700151 
L 201.316022 204.845068 
L 200.978169 204.95552 
L 200.6584 205.019882 
L 200.288488 205.015729 
L 199.988448 204.922302 
L 199.698273 204.79607 
L 199.354666 204.694338 
L 198.641146 204.799392 
L 197.431123 205.683841 
L 196.755416 205.917618 
L 196.133964 205.846197 
L 193.087532 204.580979 
L 192.38881 204.424851 
L 191.833941 204.561048 
L 191.777222 204.656967 
L 191.724612 204.932267 
L 191.639943 205.056422 
L 191.504309 205.131995 
L 191.007804 205.229575 
L 190.656799 205.353315 
L 190.506368 205.538094 
L 190.471843 205.792632 
L 190.468555 206.123989 
L 190.275378 206.761373 
L 189.834772 206.875147 
L 188.530215 206.667115 
L 187.626808 206.749747 
L 187.358005 206.821998 
L 187.010288 207.035843 
L 186.939593 207.282077 
L 186.991381 207.576063 
L 187.009466 207.936071 
L 186.899314 208.333865 
L 186.746417 208.653595 
L 186.651062 208.985367 
L 186.709426 209.420948 
L 186.794094 209.597837 
L 186.882051 209.701231 
L 186.946991 209.814174 
L 187.000423 210.228578 
L 187.27498 210.846861 
L 187.420479 211.515803 
L 187.428699 212.182669 
L 187.27498 212.826697 
L 186.933839 213.421728 
L 186.690519 213.726094 
L 186.529402 213.840284 
L 186.349378 213.850249 
L 186.117566 213.815785 
L 185.970424 213.879316 
L 185.657231 214.162921 
L 185.327598 214.351852 
L 185.050575 214.426594 
L 184.759578 214.424103 
L 184.388844 214.379258 
L 184.069897 214.27628 
L 183.686833 214.069078 
L 183.338293 213.810802 
L 183.121278 213.556264 
L 182.894399 213.190027 
L 181.210066 211.191506 
L 180.217879 210.474396 
L 179.295565 209.191738 
L 178.742341 208.641138 
L 177.696723 208.03199 
L 177.064584 207.825618 
L 176.524512 207.877107 
L 176.161177 208.343 
L 176.047737 208.966266 
L 175.833188 209.502333 
L 175.168168 209.706213 
L 174.475199 209.371535 
L 173.38437 208.409853 
L 172.608376 208.232548 
L 172.303404 208.268673 
L 171.426302 208.489162 
L 171.026796 208.512831 
L 170.715248 208.444732 
L 170.070779 208.181059 
L 169.370412 208.175245 
L 168.707037 208.503696 
L 168.069144 208.945505 
L 167.441115 209.284336 
L 166.785138 209.25693 
L 166.369192 208.789377 
L 166.127105 208.122511 
L 165.860768 206.97688 
L 165.663893 206.434999 
L 165.394268 205.946684 
L 165.050661 205.592074 
L 164.637181 205.385703 
L 163.557038 205.086319 
L 161.578419 204.928115 
L 158.004246 205.458369 
L 157.709139 205.335875 
L 157.504865 205.008255 
L 157.252914 204.297374 
L 157.076001 204.027554 
L 156.869849 203.71314 
L 156.251274 203.123508 
L 155.518437 202.746475 
L 154.791765 202.797964 
L 154.578038 202.999353 
L 154.45309 203.306211 
L 154.411167 203.655838 
L 154.451035 203.984703 
L 154.638457 204.338898 
L 154.918357 204.522846 
L 155.24799 204.652815 
L 155.582555 204.842577 
L 155.818066 205.10625 
L 155.938493 205.388194 
L 156.130847 206.035544 
L 156.839434 207.417028 
L 156.841078 207.417028 
L 157.157559 207.803196 
L 157.901904 208.399057 
L 158.238113 208.747438 
L 158.930671 209.722823 
L 160.471971 210.928662 
L 161.109042 211.28867 
L 161.85873 211.574351 
L 162.227821 211.802315 
L 163.159999 212.957911 
L 163.851324 213.536332 
L 164.155474 213.881807 
L 164.270557 214.277941 
L 164.272201 214.875047 
L 164.236854 215.161559 
L 164.122182 215.450977 
L 163.69185 216.028567 
L 163.532377 216.320477 
L 163.477301 216.706645 
L 163.886671 218.732572 
L 163.943391 219.398607 
L 163.799125 220.778015 
L 163.838171 221.446542 
L 164.118482 222.006277 
L 164.624851 222.605045 
L 165.196982 223.64396 
L 165.698829 224.287573 
L 166.921594 226.685965 
L 167.189575 227.552974 
L 167.370421 227.852773 
L 167.423031 228.020527 
L 167.418098 228.164198 
L 167.313701 228.589398 
L 167.261913 229.501252 
L 167.190397 229.806864 
L 166.580453 230.9172 
L 166.464547 231.30669 
L 166.483454 231.658808 
L 166.621143 231.935354 
L 166.86734 232.06906 
L 167.212592 231.986013 
L 168.150524 232.093143 
L 170.067491 232.621321 
L 171.090093 232.610525 
L 172.091321 232.47765 
L 174.163651 232.529139 
L 175.168168 232.685267 
L 177.169804 232.750874 
L 177.487106 232.871292 
L 177.547114 233.0814 
L 177.385997 233.641966 
L 177.361336 233.899411 
L 177.397505 234.991477 
L 177.363802 235.221517 
L 177.142577 235.71891 
L 176.919085 236.2214 
L 176.866476 236.480506 
L 176.893602 236.769509 
L 176.741528 237.109171 
L 176.237625 237.305161 
L 175.168168 237.50738 
L 175.011161 237.509041 
L 174.559046 237.446756 
L 174.351895 237.479144 
L 173.468216 237.883998 
L 171.159965 239.740094 
L 170.832798 239.911585 
L 170.52947 239.95477 
L 168.643741 239.922382 
L 168.046949 239.980514 
L 167.46331 240.184394 
L 166.801578 240.678523 
L 166.531542 241.217912 
L 166.42509 242.603963 
L 166.176016 243.601771 
L 166.23027 244.578816 
L 166.184647 244.886505 
L 166.097923 245.176338 
L 165.905569 245.574548 
L 165.641698 245.962792 
L 165.320697 246.290411 
L 164.567309 246.723085 
L 163.691439 247.590924 
L 162.587868 248.402292 
L 162.26399 248.759393 
L 161.96395 249.405913 
L 161.769952 249.701144 
L 161.497039 249.815333 
L 161.187135 249.645503 
L 161.104521 249.277605 
L 161.158775 248.867354 
L 161.259473 248.56714 
L 161.596915 247.908994 
L 161.584585 247.591755 
L 161.237278 247.380401 
L 160.878052 247.424416 
L 160.494988 247.640752 
L 159.827502 248.139449 
L 158.986568 248.577936 
L 158.616245 248.838288 
L 158.312917 249.224455 
L 157.980408 249.954022 
L 157.772846 250.256312 
L 155.758058 251.60167 
L 155.43459 251.669769 
L 155.114822 251.614958 
L 154.317456 251.232112 
L 154.033445 251.22796 
L 153.778617 251.42312 
L 153.422268 251.805135 
L 153.109076 252.050123 
L 152.834519 252.129018 
L 152.543933 252.157253 
L 152.176076 252.25691 
L 152.010437 252.356566 
L 151.487217 252.816645 
L 151.423921 252.858169 
L 151.266914 252.916301 
L 151.199508 252.961147 
L 151.163749 253.045854 
L 151.14772 253.265928 
L 151.11936 253.330705 
L 150.528734 253.452784 
L 149.878099 253.39299 
L 149.301448 253.540813 
L 148.929069 254.291557 
L 148.797545 255.636915 
L 148.629852 256.297137 
L 148.247198 256.804553 
L 147.92743 256.956529 
L 147.605606 256.97646 
L 146.953328 256.875973 
L 146.541492 256.8876 
L 146.272278 257.022136 
L 145.288723 258.221332 
L 145.114043 258.528605 
L 144.961146 258.920586 
L 144.941828 259.053461 
L 144.964023 259.51354 
L 144.893328 259.732784 
L 144.593288 260.064971 
L 144.299414 260.55993 
L 143.954985 260.84312 
L 143.557946 261.064855 
L 143.210228 261.191086 
L 142.844837 261.216 
L 142.561238 261.108039 
L 142.341346 260.87966 
L 142.167898 260.538338 
L 142.134195 259.772646 
L 142.516849 259.148965 
L 142.995679 258.531927 
L 143.252974 257.785336 
L 143.229135 257.404151 
L 143.123915 257.053694 
L 142.953756 256.729811 
L 142.571513 256.255614 
L 142.396422 256.085368 
L 142.204067 255.939205 
L 141.995683 255.843702 
L 141.80374 255.817127 
L 141.475751 255.869446 
L 140.325325 255.831245 
L 140.008433 255.871107 
L 139.619204 255.995677 
L 138.983366 256.397624 
L 137.606471 257.042898 
L 137.291635 257.257989 
L 136.934053 257.595159 
L 136.322876 258.345072 
L 135.982146 258.682242 
L 135.662377 258.879063 
L 135.349596 258.960449 
L 134.655805 259.003633 
L 134.310143 259.154778 
L 133.80213 259.729462 
L 133.432218 259.901369 
L 133.082857 259.870642 
L 132.816931 259.709531 
L 132.562925 259.518523 
L 132.249322 259.387309 
L 131.938595 259.392292 
L 131.035188 259.664686 
L 130.06273 259.447103 
L 129.094382 258.761136 
L 128.42032 258.148251 
L 128.130145 257.884162 
L 127.363194 257.18823 
L 126.27894 256.204955 
L 125.036035 255.075519 
L 123.792309 253.947743 
L 122.708055 252.964469 
L 121.941104 252.268536 
L 121.650107 252.004447 
L 121.31883 251.31682 
L 121.239093 250.936465 
L 121.531735 250.34102 
L 121.515294 249.956513 
L 121.393634 249.56121 
L 121.225941 249.241065 
L 121.064001 249.068742 
L 120.881512 248.921334 
L 120.732725 248.756071 
L 120.672717 248.533091 
L 120.781224 247.874529 
L 120.71875 247.517843 
L 120.566675 247.172368 
L 120.228 246.608065 
L 120.073459 246.258853 
L 120.011807 245.942445 
L 120.011807 245.226166 
L 119.966596 244.8782 
L 118.599565 241.211268 
L 118.313499 240.666896 
L 118.274042 240.492913 
L 118.205814 240.369173 
L 117.907418 240.160311 
L 117.784114 239.953524 
L 117.665742 239.823141 
L 117.553125 239.657462 
L 117.512845 239.456074 
L 117.769318 239.124302 
L 117.83919 239.00679 
L 117.894266 238.724846 
L 117.83919 237.854516 
L 117.738081 237.595825 
L 117.498871 237.466687 
L 117.211161 237.377412 
L 116.970308 237.241215 
L 116.833851 237.026954 
L 116.572446 236.343479 
L 116.459829 235.846859 
L 116.206645 235.233974 
L 116.200068 234.937497 
L 116.380914 234.724066 
L 116.68753 234.431741 
L 116.898791 234.102876 
L 116.79686 233.780654 
L 116.708081 233.636153 
L 116.702327 233.331371 
L 116.644785 233.171921 
L 116.519015 233.049012 
L 115.982231 232.722638 
L 115.422431 232.539105 
L 115.276932 232.448584 
L 114.974426 232.143802 
L 114.800156 232.017571 
L 114.625887 231.965251 
L 114.486142 231.882204 
L 114.393253 231.688705 
L 114.320915 231.469462 
L 114.244466 231.305859 
L 114.097323 231.177967 
L 113.744674 230.985299 
L 113.593421 230.867372 
L 113.489024 230.700448 
L 113.407643 230.521067 
L 113.294203 230.378226 
L 113.094451 230.319263 
L 113.029511 230.256978 
L 112.780436 229.9414 
L 112.724539 229.810186 
L 112.657954 229.706378 
L 112.317635 229.539454 
L 112.172136 229.431493 
L 112.106374 229.310244 
L 112.011019 229.007124 
L 111.944435 228.872588 
L 111.704403 228.656666 
L 111.410118 228.565314 
L 110.695776 228.553688 
L 110.50671 228.403373 
L 110.412999 228.050424 
L 110.32422 227.326256 
L 110.209136 227.037253 
L 109.983901 226.675999 
L 109.695369 226.437655 
L 109.392042 226.514058 
L 109.074739 226.631985 
L 108.680166 226.551429 
L 108.024189 226.230038 
L 107.850741 226.033217 
L 107.715929 225.976745 
L 107.410957 226.132043 
L 107.232577 226.146991 
L 106.884037 226.129551 
L 106.565913 226.214259 
L 106.40644 226.408589 
L 106.28067 226.630324 
L 106.047214 226.81801 
L 106.0579 225.71847 
L 106.322593 225.269186 
L 106.720454 224.896306 
L 107.401914 224.259337 
L 108.082553 223.622368 
L 108.764013 222.985399 
L 109.445473 222.34926 
L 110.126112 221.712291 
L 110.808394 221.076153 
L 111.489032 220.438353 
L 112.171314 219.802215 
L 112.46971 219.523177 
L 112.659598 219.430995 
L 113.007316 219.362067 
L 113.171721 219.304764 
L 113.366542 219.15528 
L 114.329135 217.941551 
L 114.740149 217.269287 
L 114.816597 216.597853 
L 114.288856 216.045177 
L 113.691242 215.807248 
L 113.456965 215.644061 
L 113.237483 215.33222 
L 112.163916 212.510289 
L 111.711801 211.901971 
L 111.113366 211.619197 
L 110.787843 211.640789 
L 110.491914 211.69643 
L 110.200916 211.693108 
L 109.893478 211.537811 
L 109.613167 211.195658 
L 109.501371 210.821117 
L 109.41177 210.026359 
L 109.261339 209.630641 
L 108.62509 208.516153 
L 108.550286 208.172754 
L 108.501786 207.176607 
L 108.362042 206.794592 
L 108.256822 206.736459 
L 108.258289 206.727827 
L 108.303678 206.460744 
L 108.19928 206.163852 
L 108.024189 205.980733 
L 107.888554 205.46086 
L 107.590159 205.14196 
L 107.290941 204.894896 
L 107.156128 204.588869 
L 107.08379 204.08602 
L 106.945689 203.586909 
L 106.858555 203.054164 
L 106.939113 202.449998 
L 107.223535 201.922651 
L 107.264636 201.731228 
L 107.212848 201.522365 
L 106.990079 201.168586 
L 106.939113 200.958062 
L 106.962952 200.829339 
L 107.053375 200.605528 
L 107.046799 200.47473 
L 106.983503 200.379226 
L 106.787038 200.309051 
L 106.722098 200.245105 
L 106.58893 199.683293 
L 106.474668 199.471109 
L 106.178738 199.258094 
L 106.178738 199.3673 
L 106.03735 199.266398 
L 105.901715 199.139337 
L 105.794852 198.986946 
L 105.743064 198.80881 
L 105.769369 198.58583 
L 105.861436 198.479115 
L 105.97241 198.401881 
L 106.059544 198.270252 
L 106.082561 198.114954 
L 106.059544 197.60214 
L 106.160654 197.176941 
L 106.210797 196.284187 
L 106.290534 195.93456 
L 106.450007 195.6767 
L 106.573311 195.418839 
L 106.610302 194.710865 
L 106.722098 194.410236 
L 106.640717 194.260336 
L 106.664556 194.166493 
L 106.716344 194.058117 
L 106.722098 193.861296 
L 106.680175 193.75209 
L 106.535498 193.469315 
L 106.504261 193.3626 
L 106.517413 192.988059 
L 106.625099 192.369776 
L 106.830606 191.744018 
L 106.857733 191.438821 
L 106.829784 190.724203 
L 106.864309 190.641571 
L 106.939113 190.561016 
L 107.013096 190.450979 
L 107.046799 190.280318 
L 106.988435 190.170696 
L 106.702369 189.836433 
L 106.602904 189.68155 
L 106.547006 189.520855 
L 106.513303 189.363481 
L 106.498507 189.197803 
L 106.504261 189.014269 
L 106.546184 188.817863 
L 106.689217 188.43917 
L 106.722098 188.300067 
L 106.702369 187.918882 
L 106.640717 187.636938 
L 106.539608 187.396517 
L 106.395753 187.137826 
L 106.242034 186.521204 
L 106.386711 185.845203 
L 106.781284 185.21031 
L 107.373143 184.71452 
L 107.447126 184.701233 
L 107.625506 184.728638 
L 107.698666 184.71452 
L 107.784979 184.639778 
L 107.938698 184.454999 
L 108.024189 184.385655 
L 108.493566 184.204613 
L 108.627557 184.111185 
L 108.92102 183.790209 
L 109.092824 183.666054 
L 109.283534 183.617057 
L 109.370669 183.530273 
L 109.545761 182.948945 
L 109.641116 182.830603 
L 109.752911 182.725964 
L 109.847444 182.594335 
L 109.891012 182.400421 
L 109.83758 182.322357 
L 109.600014 182.08858 
L 109.545761 182.015914 
L 109.517812 181.69909 
L 109.337788 180.754433 
L 109.336966 180.017393 
L 109.463558 179.328104 
L 109.718386 178.69072 
L 110.098985 178.111053 
L 111.047604 177.208749 
L 111.193924 176.954211 
L 111.944435 176.126234 
L 112.172136 175.98547 
L 112.746733 175.739236 
L 112.942376 175.577295 
L 113.004028 175.30241 
L 112.966214 174.932851 
L 112.845377 174.609384 
L 112.436007 174.314983 
L 111.84908 173.387765 
L 111.845792 172.769482 
L 111.916486 172.547332 
L 112.08829 172.360061 
L 112.40423 172.122404 
L 112.505057 172.046559 
L 112.488968 172.045077 
L 111.860588 171.987181 
L 111.418338 171.651256 
L 110.994994 171.241005 
L 110.532193 170.949096 
L 108.034875 170.3632 
L 106.924317 170.268112 
L 106.642362 170.18548 
L 106.504261 170.190878 
L 106.314373 170.285552 
L 106.020087 170.591994 
L 105.853216 170.729852 
L 105.675658 170.760995 
L 105.460287 170.755181 
L 105.277797 170.80584 
L 105.200526 171.008889 
L 105.170111 171.172907 
L 105.087087 171.334848 
L 104.962139 171.458173 
L 104.810886 171.508001 
L 104.657167 171.536237 
L 104.105587 171.726829 
L 103.452897 171.8269 
L 101.424957 171.631325 
L 100.7287 171.726829 
L 98.916953 172.383314 
L 98.329203 172.385806 
L 97.286051 172.095557 
L 96.956419 172.056525 
L 96.612811 172.093896 
L 95.443889 172.442693 
L 94.454169 172.495427 
L 94.279899 172.577228 
L 93.861487 172.946787 
L 93.649404 173.043951 
L 93.267162 172.999106 
L 92.606252 172.688926 
L 92.276619 172.615845 
L 91.919038 172.577228 
L 90.904657 172.265388 
L 90.566392 172.209746 
L 89.5516 172.265388 
L 89.208815 172.195213 
L 88.829039 172.059847 
L 88.470224 171.975554 
L 88.189091 172.056525 
L 87.591066 171.788699 
L 87.261433 171.711881 
L 86.875903 171.726829 
L 86.572575 171.862611 
L 86.123748 172.293624 
L 85.780963 172.496673 
L 84.839331 173.417662 
L 83.933457 173.931307 
L 83.575876 173.661405 
L 82.895648 172.877858 
L 82.576702 172.714671 
L 82.150892 172.791074 
L 81.38764 173.149006 
L 80.991012 173.263195 
L 80.976087 173.263195 
L 80.79126 173.263195 
L 80.330102 172.676469 
L 79.123367 171.140934 
L 77.916631 169.606644 
L 76.709896 168.071523 
L 75.504805 166.536403 
L 74.298069 165.001698 
L 73.090923 163.466578 
L 71.884187 161.931457 
L 70.677863 160.397167 
L 70.404128 160.050032 
L 69.88584 159.598257 
L 69.431259 159.486144 
L 68.838988 159.517702 
L 68.262337 159.663034 
L 67.365916 160.17045 
L 66.865713 160.148857 
L 65.213439 159.353269 
L 64.977106 159.269392 
L 64.926551 159.225377 
L 64.830374 159.080875 
L 64.756392 159.033539 
L 64.603084 159.023573 
L 64.239748 159.07174 
L 64.069999 159.068418 
L 63.817226 159.00115 
L 63.654876 158.906477 
L 62.850522 157.881679 
L 62.737083 157.777871 
L 62.481432 157.823547 
L 62.032606 157.966387 
L 61.772023 157.976353 
L 61.232774 157.852613 
L 61.082754 157.796972 
L 60.857929 157.603473 
L 60.753532 157.551153 
L 60.281688 157.561119 
L 59.325671 157.789497 
L 58.632702 157.840986 
L 58.025225 158.045282 
L 57.695592 158.056078 
L 57.569822 158.141616 
L 57.495839 158.299405 
L 57.325269 158.522801 
L 56.649152 159.005303 
L 55.854663 159.303441 
L 54.992356 159.405588 
L 53.869879 159.28351 
L 53.721092 159.379013 
L 53.590389 159.525176 
L 53.388171 159.669677 
L 53.106216 159.758537 
L 52.950852 159.714523 
L 52.82837 159.609053 
L 52.64177 159.518532 
L 51.865777 159.499431 
L 51.651228 159.40808 
L 51.569025 159.243647 
L 51.556695 159.041013 
L 51.523814 158.854158 
L 51.380781 158.742875 
L 51.138283 158.71713 
L 50.476551 158.844192 
L 50.211859 158.824261 
L 49.699736 158.683081 
L 49.44984 158.658998 
L 49.20241 158.711317 
L 48.783998 158.904816 
L 48.59411 158.957136 
L 48.276808 158.692216 
L 47.922514 158.600865 
L 47.633982 158.677268 
L 47.617542 158.702182 
L 47.621652 158.722113 
L 47.306816 158.702182 
L 47.295307 158.688894 
L 47.268181 158.64571 
L 47.227901 158.55768 
L 47.150631 158.494565 
L 47.013352 158.525292 
L 46.797981 158.649862 
L 46.683719 158.686403 
L 46.573568 158.673116 
L 46.386146 158.541902 
L 46.295723 158.412349 
L 46.16502 158.319336 
L 45.625771 158.299405 
L 45.423552 158.329302 
L 45.319977 158.446398 
L 45.382451 158.711317 
L 44.930336 158.595052 
L 44.553848 158.619966 
L 44.177359 158.685573 
L 43.721134 158.692216 
L 43.761414 158.977897 
L 43.661949 159.03603 
L 43.490145 159.00115 
L 43.314231 159.009455 
L 43.115301 159.138178 
L 42.959938 159.270222 
L 42.788956 159.374861 
L 42.541526 159.416384 
L 42.019539 159.37237 
L 40.699044 159.061925 
L 40.225054 158.950492 
L 40.222186 158.948913 
L 40.042564 158.850005 
L 39.670186 158.532766 
L 39.457281 158.403213 
L 39.019963 158.205562 
L 38.838295 158.086805 
L 38.563738 157.762922 
L 37.687457 156.062124 
L 37.515653 155.608688 
L 37.398926 155.141134 
L 37.355358 154.663615 
L 37.366867 154.525758 
L 37.517297 153.872179 
L 37.481128 153.788302 
L 37.395637 153.735982 
L 36.846523 153.020119 
L 36.31385 152.868974 
L 35.007649 152.888905 
L 34.228368 152.743573 
L 33.83045 152.608466 
L 33.531289 152.50689 
L 32.94765 152.08252 
L 32.511976 151.37164 
L 32.459366 150.992946 
L 32.556365 150.661589 
L 32.692 150.338537 
L 32.755296 149.984758 
L 32.701042 149.677485 
L 32.484849 149.049651 
L 32.437993 148.721616 
L 32.584314 147.037426 
L 32.902438 146.055813 
L 32.940252 145.773454 
L 32.897506 145.076691 
L 32.830922 144.797654 
L 32.719126 144.619934 
L 32.385383 144.232105 
L 32.313045 144.090925 
L 32.367299 143.90324 
L 32.510332 143.801092 
L 32.691177 143.734655 
L 32.861337 143.649947 
L 33.097259 143.453956 
L 33.284681 143.238865 
L 33.416205 142.986403 
L 33.491832 142.672486 
L 33.651305 142.383068 
L 33.949701 142.344451 
L 34.285088 142.400507 
L 34.558001 142.402168 
L 34.816117 142.034271 
L 34.785702 141.416818 
L 34.443739 140.320185 
L 33.914354 139.320716 
L 33.828041 138.962785 
L 33.846947 138.702433 
L 33.989158 138.176747 
L 34.018751 137.915149 
L 33.974361 137.644832 
L 33.866676 137.375345 
L 33.712135 137.132433 
L 33.523891 136.94101 
L 33.515539 136.936482 
L 33.366884 136.855887 
L 33.216453 136.816024 
L 33.055335 136.752909 
L 32.868735 136.59512 
L 32.492247 136.186945 
L 32.180699 135.847699 
L 31.867507 135.508868 
L 31.555136 135.170037 
L 31.241944 134.83079 
L 30.931218 134.491129 
L 30.618026 134.151883 
L 30.306477 133.813052 
L 29.992463 133.47339 
L 29.700644 133.156567 
L 29.382519 132.616347 
L 29.214004 131.970658 
L 29.031514 131.268497 
L 28.848202 130.566752 
L 28.665712 129.864591 
L 28.481578 129.16326 
L 28.299088 128.461515 
L 28.115776 127.759354 
L 27.932464 127.058024 
L 27.749974 126.356278 
L 27.670237 126.052742 
L 27.400612 125.73924 
L 27.629958 125.369682 
L 27.543645 125.184903 
L 27.278952 125.027529 
L 26.976446 124.738941 
L 26.858075 124.868494 
L 26.740525 124.866003 
L 26.601602 124.818666 
L 26.419112 124.813684 
L 26.22347 124.871816 
L 26.096878 124.937008 
L 25.552696 125.297016 
L 25.231283 125.422002 
L 24.930422 125.344768 
L 24.646 124.951957 
L 24.558865 124.60316 
L 24.600789 123.928405 
L 24.536671 123.536424 
L 24.492281 123.465003 
L 24.343494 123.314273 
L 24.289241 123.233718 
L 24.291707 123.173509 
L 24.355825 123.031499 
L 24.360757 122.97129 
L 24.162648 122.389132 
L 24.064827 122.269129 
L 23.699847 122.281586 
L 23.010167 122.929767 
L 22.648475 123.133647 
L 22.241572 123.247836 
L 21.962904 123.431785 
L 21.417079 123.947505 
L 20.843304 124.228619 
L 20.181572 124.320801 
L 18.434953 124.36383 
L 18.20953 124.369383 
L 17.997447 124.239415 
L 18.002379 123.890203 
L 18.188979 123.578777 
L 18.776728 123.172263 
L 19.059505 122.903192 
L 19.26008 122.576818 
L 19.806728 121.201562 
L 21.079225 119.323459 
L 21.380909 118.610502 
L 21.615187 118.396656 
L 22.25308 117.996371 
L 22.507086 117.727299 
L 22.673958 117.432068 
L 23.075929 116.343739 
L 23.950565 114.985508 
L 24.449536 113.964033 
L 24.575306 113.547968 
L 24.51201 113.25066 
L 24.371443 112.954599 
L 24.267868 112.541025 
L 24.280198 112.210499 
L 24.412545 111.581419 
L 24.415011 110.954831 
L 25.243614 108.129994 
L 25.563382 104.609224 
L 25.551874 104.294892 
L 25.567942 104.064505 
L 25.573247 103.988449 
L 25.689974 103.674117 
L 25.937404 103.345252 
L 26.201275 103.076595 
L 26.424044 102.780118 
L 26.716686 101.936362 
L 27.696542 100.799867 
L 28.126462 100.100197 
L 28.894235 97.908177 
L 29.262503 97.19522 
L 29.680093 96.719777 
L 30.373884 96.23686 
L 30.669813 95.952009 
L 30.956701 95.560028 
L 31.504171 94.21467 
L 31.633229 94.033212 
L 31.934091 93.71016 
L 32.054107 93.54116 
L 32.098496 93.385032 
L 32.112471 93.078589 
L 32.183987 92.933672 
L 32.467586 92.745156 
L 32.809549 92.692422 
L 33.493476 92.663355 
L 34.377155 92.335735 
L 34.696923 92.269713 
L 35.006827 92.302101 
L 35.598687 92.456984 
L 35.878176 92.385564 
L 36.045047 92.178362 
L 36.519357 91.298065 
L 36.994488 90.416939 
L 37.468798 89.536227 
L 37.943107 88.655931 
L 38.417417 87.775635 
L 38.891726 86.895339 
L 39.366036 86.015042 
L 39.840345 85.134331 
L 40.000641 84.837023 
L 40.27602 84.444212 
L 40.586746 84.237425 
L 40.997759 84.131125 
L 41.929938 83.89029 
L 42.862116 83.648623 
L 43.794295 83.407788 
L 44.725651 83.166952 
L 45.65783 82.925286 
L 46.59083 82.68528 
L 47.522187 82.443614 
L 48.454365 82.201948 
L 48.884285 82.091496 
L 49.517246 81.820763 
L 50.061428 81.358192 
L 50.345027 81.202064 
L 50.824197 81.214995 
L 50.61517 81.608575 
L 50.564036 81.897604 
L 50.688311 82.191211 
L 50.250112 82.240254 
L 50.12519 82.289951 
L 50.061111 82.410925 
L 50.055285 82.559363 
L 50.018391 82.686222 
L 49.864342 82.739843 
L 49.51223 82.803272 
L 48.603469 83.278012 
L 47.967855 83.468301 
L 45.305653 83.87111 
L 42.324996 84.780048 
L 41.70621 84.889905 
L 41.317204 85.027227 
L 40.960561 85.203783 
L 40.754731 85.373146 
L 40.583205 85.958397 
L 40.601976 86.656775 
L 41.091956 88.755832 
L 42.402668 91.387828 
L 43.371624 92.75385 
L 43.78911 93.165814 
L 45.648056 94.212727 
L 45.888191 94.408247 
L 46.068778 94.634501 
L 46.097258 94.859446 
L 45.972983 94.903258 
L 45.227981 95.068044 
L 45.29206 94.816942 
L 45.181378 94.607036 
L 44.944479 94.46383 
L 44.512753 94.379475 
L 44.345758 94.322585 
L 44.195593 94.297082 
L 44.132161 94.354626 
L 44.090736 94.428518 
L 43.996882 94.511565 
L 43.806586 94.629269 
L 43.946396 94.813672 
L 44.521814 95.342687 
L 44.649326 95.553901 
L 44.6435 95.748767 
L 44.58913 95.948864 
L 44.575537 96.175117 
L 44.732823 96.825759 
L 45.000791 97.492096 
L 45.311478 98.050536 
L 45.694659 98.557972 
L 46.198231 98.997401 
L 46.866857 99.357053 
L 46.704393 99.714088 
L 46.569762 100.345113 
L 46.323801 100.694302 
L 46.404709 100.819853 
L 46.431247 100.985293 
L 46.404062 101.168389 
L 46.323801 101.342329 
L 46.400826 101.594739 
L 46.275903 101.926272 
L 46.09208 102.283962 
L 45.997579 102.613534 
L 46.019586 103.496315 
L 46.044182 103.589824 
L 46.019586 103.64933 
L 45.888839 103.776189 
L 45.778804 103.837003 
L 45.34643 103.986095 
L 44.991729 104.366672 
L 44.951599 104.434025 
L 44.692045 104.50007 
L 44.426019 104.653739 
L 44.032482 104.983311 
L 43.641534 105.453473 
L 42.719828 107.177839 
L 41.851198 108.339187 
L 41.754108 108.707993 
L 41.512031 108.872779 
L 40.873827 109.053259 
L 40.618805 109.246816 
L 40.405207 109.526691 
L 40.256984 109.861494 
L 40.119116 110.538946 
L 39.752117 111.17978 
L 39.43172 112.076947 
L 38.38574 113.257258 
L 38.148193 113.740499 
L 38.196738 113.963483 
L 38.497069 114.597124 
L 38.691249 114.888769 
L 39.77736 115.995841 
L 40.143712 116.494122 
L 40.972212 118.31919 
L 40.68612 118.159636 
L 40.552784 117.860144 
L 40.46605 117.514225 
L 40.319768 117.212118 
L 40.202613 117.312166 
L 40.2531 117.376249 
L 40.279638 117.425947 
L 40.319768 117.541689 
L 40.174781 117.571115 
L 40.111349 117.612312 
L 40.070571 117.674433 
L 39.994841 117.761404 
L 40.229798 117.867991 
L 40.478348 118.082474 
L 40.675764 118.36758 
L 40.754731 118.693228 
L 40.643401 119.009068 
L 40.385789 119.021492 
L 40.09452 118.856052 
L 39.886101 118.6383 
L 39.820079 118.934522 
L 39.952122 119.248399 
L 40.202613 119.636169 
L 40.44728 119.460921 
L 40.806512 119.13658 
L 41.138559 118.97768 
L 41.297786 119.297443 
L 41.416236 119.297443 
L 41.416236 118.97768 
L 41.581288 119.087537 
L 42.009131 119.576009 
L 42.172241 119.684559 
L 42.326291 119.726409 
L 42.468689 119.786569 
L 42.602026 119.955278 
L 42.119166 119.860461 
L 41.705563 120.03244 
L 41.497791 120.385552 
L 41.633717 120.833482 
L 41.800711 120.28485 
L 41.851198 120.174339 
L 42.774198 120.174339 
L 43.176797 120.419556 
L 43.550917 120.880563 
L 43.930861 121.154553 
L 44.349642 120.833482 
L 44.292035 121.100278 
L 44.249963 121.172862 
L 44.415663 121.304298 
L 44.453204 121.422003 
L 44.358704 121.496549 
L 44.132161 121.501126 
L 44.132161 121.610983 
L 44.328929 121.795386 
L 44.350289 122.072645 
L 44.262908 122.365597 
L 44.132161 122.599044 
L 43.972933 122.461723 
L 43.657068 122.695169 
L 43.045402 123.266688 
L 43.196215 123.392239 
L 43.369682 123.257533 
L 43.545738 123.154215 
L 43.697846 123.376545 
L 43.821473 123.317693 
L 43.910796 123.258187 
L 43.977464 123.175794 
L 44.032482 123.046974 
L 44.187826 123.197373 
L 44.137339 123.364775 
L 44.11339 123.540023 
L 44.349642 123.705463 
L 44.0519 123.733581 
L 44.074554 123.95068 
L 44.349642 124.363952 
L 43.973581 124.782456 
L 43.91468 124.913238 
L 43.962577 125.086525 
L 44.079085 125.156494 
L 44.196887 125.200306 
L 44.249963 125.297739 
L 44.346406 125.306893 
L 44.540585 125.40498 
L 44.684278 125.517453 
L 44.630555 125.571074 
L 44.606606 125.636465 
L 44.762597 125.782941 
L 45.11924 126.020311 
L 45.759386 126.218447 
L 46.454549 126.336151 
L 47.162657 126.347921 
L 47.844874 126.228909 
L 50.125837 125.516145 
L 51.68251 124.845231 
L 52.199675 124.513044 
L 52.524602 124.135083 
L 52.750498 123.284998 
L 53.051476 123.054821 
L 53.459253 122.536268 
L 53.620422 122.37933 
L 53.75829 122.335518 
L 54.17254 122.279281 
L 54.2884 122.222391 
L 54.395199 122.148499 
L 54.511707 122.087031 
L 54.656694 122.059567 
L 54.87547 121.977174 
L 55.04117 121.766614 
L 55.135023 121.480201 
L 55.140849 121.172862 
L 54.867055 120.282234 
L 54.773202 118.940407 
L 54.716243 118.6383 
L 54.630156 118.431663 
L 54.589379 118.272109 
L 54.59844 118.090321 
L 54.670934 117.961501 
L 54.982916 117.541689 
L 54.979679 117.341592 
L 55.259298 116.204439 
L 55.259298 115.446555 
L 55.363508 115.340622 
L 55.436002 115.239265 
L 55.476132 115.117638 
L 55.46707 115.058132 
L 55.368039 114.788066 
L 55.166092 114.536964 
L 54.891004 114.275399 
L 54.663167 113.966753 
L 54.59844 113.571136 
L 54.765435 113.546941 
L 54.87547 113.490705 
L 54.923367 113.352076 
L 54.881942 113.229794 
L 54.59844 112.912647 
L 54.308465 112.466679 
L 53.449544 111.412573 
L 53.108436 111.181742 
L 52.742083 111.256942 
L 52.399033 109.819643 
L 52.125887 109.104264 
L 51.773775 108.503972 
L 51.16664 107.884064 
L 50.809349 107.623153 
L 50.245581 107.410632 
L 50.097358 107.149067 
L 49.918712 106.520004 
L 49.77955 106.306828 
L 49.441678 105.907942 
L 49.311577 105.430586 
L 49.158823 105.167714 
L 48.822245 104.763596 
L 48.644894 104.593579 
L 48.56787 104.488299 
L 48.496023 104.324167 
L 48.476605 104.170498 
L 48.575637 103.914819 
L 48.672727 103.085658 
L 48.616415 102.875753 
L 48.377574 102.668462 
L 47.659109 102.191107 
L 47.418974 101.86742 
L 47.409912 101.462649 
L 47.484348 101.33579 
L 48.03517 100.870205 
L 48.078537 100.853203 
L 48.004749 100.811353 
L 47.557489 100.07374 
L 47.518653 99.915493 
L 47.541954 99.699702 
L 47.63516 99.279891 
L 47.636455 99.037943 
L 47.581437 98.849617 
L 47.47658 98.724066 
L 47.193078 98.479503 
L 47.022847 98.214014 
L 46.91799 98.100234 
L 46.758116 98.041382 
L 46.758116 97.940679 
L 47.921252 97.885751 
L 48.42806 97.938064 
L 48.940694 98.149931 
L 49.109631 97.785048 
L 49.037137 97.464631 
L 48.885677 97.182795 
L 48.822245 96.933655 
L 48.932927 96.692361 
L 49.320639 96.437336 
L 49.472747 96.175117 
L 49.063028 96.181656 
L 48.912862 96.154192 
L 48.723213 96.06526 
L 48.563986 95.935131 
L 48.261713 95.61733 
L 48.062355 95.517282 
L 48.743279 95.27795 
L 49.377599 95.195557 
L 50.688311 95.18771 
L 51.35823 95.089623 
L 51.547879 95.012462 
L 53.2353 94.326508 
L 53.945997 93.91062 
L 54.08969 93.776568 
L 55.041817 93.422148 
L 58.106618 91.720669 
L 60.596 91.065449 
L 61.034846 90.888893 
L 61.376602 91.038639 
L 61.923541 91.030792 
L 63.766306 90.8065 
L 64.049808 90.634521 
L 64.303536 90.230404 
L 64.149487 90.28991 
L 64.021328 90.386689 
L 63.925533 90.514855 
L 63.869221 90.669833 
L 63.818734 90.272908 
L 64.20321 90.132317 
L 65.038198 90.253077 
L 65.562525 90.102219 
L 66.781915 89.526141 
L 67.36057 89.136409 
L 67.668238 89.148391 
L 68.265462 89.224722 
L 69.077764 88.826455 
L 69.411753 88.423645 
L 69.631824 87.981601 
L 69.644769 87.68734 
L 69.618587 87.572271 
L 69.503955 87.467674 
L 69.325908 87.435336 
L 69.483977 87.322177 
L 69.693562 87.344345 
L 69.923549 87.449728 
L 70.048013 87.647849 
L 70.204071 87.825427 
L 70.360338 87.971863 
L 70.539289 87.899862 
L 70.622139 87.742269 
L 70.684277 87.52517 
L 70.832501 87.531709 
L 71.011146 87.629796 
L 71.165842 87.68734 
L 71.286234 87.790004 
L 71.360022 87.789351 
L 71.392385 87.636989 
L 71.391738 87.483974 
L 71.370378 87.377386 
L 71.303062 87.306764 
L 71.165842 87.258374 
L 71.183966 87.185136 
L 71.203384 87.136746 
L 71.283645 87.028851 
L 71.052212 86.948896 
L 71.083552 86.735474 
L 70.401422 86.507029 
L 70.034423 86.479565 
L 69.981994 86.434445 
L 70.055135 86.342243 
L 70.171048 86.346149 
L 70.409214 86.340396 
L 70.27616 86.214238 
L 70.093128 86.144133 
L 69.880236 86.079331 
L 69.688969 85.972433 
L 69.370534 85.738089 
L 69.988245 85.889919 
L 70.425569 86.134198 
L 70.855605 86.358171 
L 71.13738 86.500094 
L 71.271079 86.537851 
L 71.553377 86.61348 
L 71.816991 86.589422 
L 72.095066 86.664709 
L 72.328836 86.7931 
L 72.628643 86.668456 
L 72.800436 86.521875 
L 73.119839 86.629757 
L 73.20341 86.883772 
L 73.331028 86.948058 
L 73.54494 86.907321 
L 73.649253 87.182826 
L 73.904341 87.332561 
L 74.223389 87.503915 
L 74.413003 87.864441 
L 74.898621 88.035221 
L 75.203483 87.856703 
L 75.2941 87.62718 
L 75.758837 87.352537 
L 75.963372 87.148517 
L 76.019037 86.785596 
L 75.683107 86.234348 
L 75.745891 85.921778 
L 75.613202 85.737375 
L 75.358827 84.980799 
L 75.259795 84.504097 
L 74.867552 83.72725 
L 74.769815 83.72725 
L 74.724507 84.023472 
L 74.597643 83.99143 
L 74.448772 83.825336 
L 74.334853 83.72725 
L 74.126434 83.780217 
L 73.993097 83.893343 
L 73.907658 84.004508 
L 73.846168 84.055513 
L 73.090809 84.293537 
L 72.735461 84.321656 
L 72.81378 84.055513 
L 72.171692 84.344543 
L 71.989811 84.385085 
L 71.515365 84.400125 
L 71.281055 84.45113 
L 71.116003 84.555102 
L 70.767127 84.719888 
L 69.740564 84.815359 
L 68.974202 85.189397 
L 68.57225 85.086733 
L 68.284217 84.784625 
L 68.232436 84.385085 
L 68.292632 84.276536 
L 68.483575 84.064668 
L 68.548949 83.945656 
L 68.562541 83.831222 
L 68.530178 83.756676 
L 68.483575 83.691938 
L 68.449917 83.607584 
L 68.449917 83.177964 
L 68.418848 83.151807 
L 68.273861 82.950402 
L 68.232436 82.848392 
L 68.327584 82.905282 
L 68.572898 83.014486 
L 68.667398 83.068106 
L 68.665456 82.620831 
L 68.632446 82.431196 
L 68.548949 82.289951 
L 68.378718 82.204943 
L 68.298457 82.320685 
L 68.234378 82.505088 
L 68.113986 82.629985 
L 68.038256 82.350111 
L 67.690028 81.751782 
L 67.612356 81.651733 
L 67.542451 81.605959 
L 67.491965 81.534029 
L 67.461543 81.196611 
L 67.41494 81.097216 
L 67.312025 81.060597 
L 67.137263 81.084138 
L 67.220113 80.863115 
L 67.344388 80.271979 
L 67.363806 80.036571 
L 67.430474 79.774352 
L 67.722391 79.260377 
L 67.788412 78.938653 
L 67.89068 78.694744 
L 68.381307 78.132379 
L 68.548949 77.89174 
L 68.600083 77.622328 
L 68.580017 77.153473 
L 68.667398 77.004381 
L 69.362561 76.986726 
L 69.646063 76.908256 
L 69.920504 76.734316 
L 70.914056 75.888154 
L 71.283645 75.686749 
L 71.659058 75.607625 
L 71.885601 75.694596 
L 72.095315 75.834533 
L 72.828667 75.999972 
L 73.128351 76.239304 
L 74.560749 78.560038 
L 74.769815 79.208718 
L 74.855902 79.890095 
L 74.869494 81.273118 
L 74.986002 81.96038 
L 75.963372 84.714003 
L 76.708375 86.193805 
L 77.256608 86.875836 
L 77.92847 87.357769 
L 78.483823 87.433622 
L 78.886422 87.186444 
L 79.301967 86.860796 
L 79.893567 86.699279 
L 81.238584 86.910493 
L 81.856076 86.935342 
L 82.509813 86.699279 
L 82.955132 86.412866 
L 83.220511 86.303663 
L 83.546732 86.260504 
L 83.708549 86.31151 
L 84.032829 86.538417 
L 84.197881 86.589422 
L 84.737701 86.565227 
L 84.89887 86.589422 
L 85.923491 87.002041 
L 86.113787 86.9785 
L 86.203109 87.147209 
L 86.414118 87.33292 
L 86.663962 87.492475 
L 86.863967 87.586638 
L 87.531297 87.703688 
L 90.024563 87.5971 
L 90.3236 87.684725 
L 90.569561 87.873051 
L 91.093846 88.436723 
L 91.407769 88.668208 
L 91.755351 88.863074 
L 92.297759 89.061209 
L 92.551487 89.120715 
L 92.772852 89.137717 
L 92.867352 89.063171 
L 92.951497 89.116792 
L 93.325616 89.284193 
L 93.409761 89.402551 
L 93.575461 89.696812 
L 93.968998 89.998919 
L 95.157377 90.615558 
L 95.515962 90.867968 
L 95.800759 91.139995 
L 95.917266 91.376711 
L 96.064196 91.549344 
L 97.112765 91.995966 
L 97.191084 91.839681 
L 97.216975 91.767751 
L 97.221506 91.656586 
L 97.339955 91.656586 
L 97.386559 91.754672 
L 97.54708 91.995966 
L 97.54708 92.096015 
L 97.425395 92.400084 
L 97.572971 92.81401 
L 98.193051 93.720332 
L 99.170422 95.625177 
L 99.326413 96.072453 
L 99.185956 96.27582 
L 99.066212 96.206505 
L 98.903101 96.052836 
L 98.691445 95.903744 
L 98.425419 95.845545 
L 98.223473 95.88805 
L 98.036413 95.972404 
L 97.877186 96.076376 
L 97.764562 96.175117 
L 98.29273 96.315054 
L 99.576904 96.431451 
L 99.956202 96.723749 
L 99.78144 97.02978 
L 99.521239 97.155331 
L 98.80148 97.163178 
L 98.560698 97.29723 
L 98.475259 97.613723 
L 98.483026 97.97926 
L 98.691445 98.969937 
L 99.188545 100.372578 
L 99.400848 100.753154 
L 99.751019 101.381564 
L 99.900537 101.649668 
L 100.421585 102.311427 
L 101.033251 102.85025 
L 101.694756 103.107237 
L 103.652734 103.095467 
L 103.934294 103.156281 
L 104.309708 103.326952 
L 104.6903 103.449233 
L 104.957621 103.39692 
L 105.1874 103.281832 
L 105.460546 103.217749 
L 105.654725 103.232135 
L 105.771233 103.288371 
L 105.825603 103.405421 
L 105.83596 103.532934 
L 105.841138 103.601595 
L 105.896802 103.678103 
L 106.017194 103.564322 
L 106.130465 103.400844 
L 106.167359 103.326952 
L 106.654103 103.109199 
L 107.293601 102.974493 
L 109.402391 102.813631 
L 110.751939 102.455941 
L 112.056179 102.362432 
L 113.43097 102.217917 
L 114.475656 102.107406 
L 115.790899 102.161027 
L 116.957919 102.010627 
L 117.864737 101.535887 
L 118.48417 101.409028 
L 119.11137 101.174928 
L 119.466072 101.122615 
L 121.478419 101.150079 
L 123.216327 100.997064 
L 126.954931 100.777349 
L 128.764037 100.807429 
L 128.944624 100.853203 
L 129.129742 100.968291 
L 129.995136 101.123923 
L 130.257278 101.122615 
L 130.454047 100.974831 
L 130.646932 100.753808 
L 130.874769 100.552404 
L 131.181573 100.464779 
L 131.564754 100.522324 
L 132.538241 101.02322 
L 133.588105 101.271707 
L 133.909149 101.553543 
L 134.647679 101.639859 
L 134.82956 101.681055 
L 134.7137 101.907309 
L 134.358351 102.124408 
L 133.940865 102.25519 
L 133.634061 102.219879 
L 133.647654 102.406898 
L 133.625647 102.797283 
L 133.688432 102.943105 
L 134.177764 103.446618 
L 135.381678 104.379096 
L 135.502069 104.533419 
L 136.032179 104.857106 
L 136.319565 105.294573 
L 137.445807 105.970718 
L 137.218616 105.978565 
L 136.999193 105.936714 
L 136.812781 105.858245 
L 136.684623 105.751657 
L 136.562289 105.851706 
L 136.45808 105.970718 
L 136.794658 106.410147 
L 137.208907 106.317291 
L 137.616685 106.559238 
L 138.313789 107.177839 
L 138.717683 107.319084 
L 139.148761 107.385783 
L 140.061406 107.407362 
L 139.589549 107.100678 
L 137.998571 106.423225 
L 137.661993 105.970718 
L 142.243984 107.965149 
L 144.174129 108.545169 
L 144.704239 108.64064 
L 146.543767 108.970866 
L 148.780069 109.381522 
L 149.431865 109.721556 
L 150.022171 109.870648 
L 150.201463 109.939963 
L 150.201463 110.051128 
L 148.999492 109.661397 
L 148.682332 109.601237 
L 148.820846 109.830106 
L 149.108232 110.006662 
L 149.440927 110.120443 
L 150.141268 110.181911 
L 150.310204 110.159677 
L 150.459722 110.106711 
L 150.72769 109.968735 
L 151.209255 109.867379 
L 151.780143 109.510997 
L 152.05782 109.381522 
L 152.374333 109.341634 
L 153.253319 109.501842 
L 154.432636 109.577696 
L 155.03071 109.492687 
L 155.483795 109.227853 
L 155.659851 109.000292 
L 155.793835 108.758998 
L 155.978306 108.175709 
L 155.983484 107.924607 
L 155.901929 107.506103 
L 155.978306 107.287696 
L 156.103875 107.42698 
L 156.259866 107.509372 
L 156.438512 107.537491 
L 156.629455 107.517219 
L 156.5123 107.672197 
L 156.446926 107.70947 
L 156.303233 107.73628 
L 156.485115 107.955994 
L 156.764086 107.935069 
L 156.923313 107.784669 
L 156.748552 107.617268 
L 156.931728 107.486486 
L 157.340152 106.958125 
L 157.573168 106.920198 
L 158.026253 106.761951 
L 158.278687 106.739718 
L 158.235967 106.850229 
L 158.210077 106.895349 
L 158.15959 106.958125 
L 158.248265 106.931968 
L 158.395842 106.905812 
L 158.485812 106.858076 
L 158.59973 107.05098 
L 158.692936 107.026785 
L 158.79391 106.91889 
L 158.856695 106.890772 
L 158.929836 106.858076 
L 159.09683 106.899273 
L 159.446353 107.05098 
L 159.580984 107.077791 
L 159.933744 106.950278 
L 160.382299 106.505618 
L 160.884577 106.375489 
L 161.175846 106.224436 
L 161.2697 106.190432 
L 161.392033 106.111963 
L 161.392033 105.959601 
L 161.304005 105.851706 
L 160.869042 106.049187 
L 160.500101 106.028262 
L 160.147342 105.908596 
L 159.907206 105.751657 
L 160.013358 105.59668 
L 160.177763 105.618913 
L 160.368706 105.707845 
L 160.559002 105.751657 
L 160.756418 105.694767 
L 161.095585 105.489439 
L 161.329895 105.422086 
L 161.283292 105.216103 
L 161.291059 105.135672 
L 161.329895 104.983311 
L 160.982961 104.983311 
L 160.982961 104.862991 
L 161.319539 104.738748 
L 161.481355 104.802831 
L 161.533137 104.997697 
L 161.537667 105.2573 
L 161.58427 105.508402 
L 161.698836 105.502517 
L 161.844471 105.333807 
L 161.980397 105.092514 
L 161.988811 104.666817 
L 162.625073 104.4131 
L 163.452278 104.197962 
L 164.034817 103.886046 
L 164.168801 103.627097 
L 164.238705 103.413922 
L 164.384987 103.270061 
L 164.750045 103.217749 
L 165.102157 103.229519 
L 165.353296 103.270061 
L 165.561068 103.340684 
L 166.264646 103.671563 
L 166.559799 103.746763 
L 166.931976 103.776189 
L 167.306743 103.747417 
L 168.290586 103.546666 
L 168.606451 103.56236 
L 169.229121 103.734339 
L 169.553401 103.776189 
L 170.241444 103.752648 
L 172.419491 103.236058 
L 172.87193 102.998034 
L 172.50493 102.958799 
L 172.0978 102.98561 
L 171.683551 102.950299 
L 171.296486 102.723391 
L 171.013631 102.5076 
L 170.19743 102.116561 
L 169.820721 102.010627 
L 168.979276 101.992318 
L 168.59739 101.941312 
L 168.236216 101.730753 
L 167.914525 101.602586 
L 167.487977 101.611741 
L 166.660772 101.781104 
L 166.739738 101.702635 
L 166.877606 101.462649 
L 166.647827 101.470496 
L 166.482127 101.568583 
L 166.352674 101.692826 
L 166.227104 101.781104 
L 166.013507 101.831455 
L 164.910567 101.741869 
L 164.695027 101.781104 
L 164.210226 102.071441 
L 164.093718 102.120484 
L 163.957792 102.206801 
L 163.816688 102.582146 
L 163.663934 102.668462 
L 163.421209 102.581492 
L 163.310527 102.374202 
L 163.282047 102.13814 
L 163.284636 101.955698 
L 163.141591 101.639205 
L 162.857441 101.306364 
L 162.649022 100.983985 
L 162.730577 100.694302 
L 162.900161 100.602101 
L 163.014079 100.490282 
L 163.073628 100.340536 
L 163.077511 100.135208 
L 163.175896 100.135208 
L 163.331887 100.420313 
L 163.553899 100.562866 
L 164.262007 100.694302 
L 164.458776 100.764925 
L 164.883382 100.978754 
L 165.081445 101.02322 
L 165.296984 100.986601 
L 166.230988 100.53344 
L 166.388273 100.483089 
L 166.606402 100.464779 
L 166.704786 100.496167 
L 166.757862 100.568097 
L 166.803818 100.643951 
L 166.877606 100.694302 
L 168.381203 100.677955 
L 168.73461 100.80416 
L 168.96892 100.688417 
L 169.585117 100.558943 
L 169.820721 100.464779 
L 169.979948 100.301301 
L 170.11458 100.068509 
L 170.209728 99.786019 
L 170.254389 99.477372 
L 170.372838 99.477372 
L 170.570902 99.838332 
L 170.873174 100.084203 
L 171.25053 100.248988 
L 172.901057 100.640028 
L 174.489446 100.834893 
L 174.835732 100.80416 
L 175.493354 100.377155 
L 175.875888 100.216293 
L 176.148386 100.364731 
L 176.257127 100.364731 
L 176.308908 100.156133 
L 176.452601 100.136516 
L 176.648075 100.200599 
L 176.850669 100.245065 
L 176.93805 100.178366 
L 177.032551 99.842255 
L 177.126404 99.706241 
L 177.231909 99.817407 
L 177.33806 99.876259 
L 177.446801 99.874297 
L 177.561367 99.806944 
L 177.660398 99.915493 
L 177.561367 100.015542 
L 177.886941 100.135208 
L 178.017689 99.931187 
L 178.237111 99.949497 
L 178.497959 100.060662 
L 178.755571 100.135208 
L 178.76528 100.074394 
L 178.839068 99.958651 
L 178.969169 99.889991 
L 179.145872 99.965191 
L 179.294096 100.008349 
L 179.459796 99.935111 
L 180.566619 99.188343 
L 180.720668 99.138646 
L 180.768566 99.219077 
L 180.816464 99.372092 
L 180.913553 99.52053 
L 181.105144 99.58723 
L 181.288967 99.585922 
L 181.443016 99.564996 
L 181.580884 99.497644 
L 181.708395 99.357053 
L 181.978952 99.446638 
L 183.065063 99.357053 
L 183.422354 99.409365 
L 184.059263 99.642812 
L 184.433382 99.706241 
L 184.813974 99.660468 
L 185.464476 99.414597 
L 186.032127 99.321741 
L 187.751264 98.731913 
L 187.973276 98.699217 
L 188.333803 98.892775 
L 188.516331 98.92874 
L 188.711805 98.942472 
L 189.049031 99.011133 
L 190.583697 99.037943 
L 192.882783 99.447292 
L 194.128121 99.619925 
L 194.841408 99.714088 
L 195.984478 99.748746 
L 196.482225 99.912878 
L 196.745662 99.915493 
L 196.942431 99.827869 
L 197.367684 99.540148 
L 197.569631 99.477372 
L 198.622084 99.470833 
L 199.086173 99.376016 
L 199.479711 99.138646 
L 199.655767 99.325011 
L 200.086198 99.185728 
L 200.229891 99.357053 
L 200.492033 99.194882 
L 200.913403 99.046444 
L 201.349013 98.975822 
L 201.651933 99.037943 
L 201.394321 99.158263 
L 201.157422 99.330896 
L 201.029264 99.576767 
L 201.099816 99.915493 
L 201.000784 100.015542 
L 200.826022 99.850756 
L 200.680388 99.952112 
L 200.490092 100.143055 
L 200.181346 100.245065 
L 200.121798 100.274491 
L 199.921146 100.415082 
L 199.795576 100.464779 
L 199.60528 100.470665 
L 199.453173 100.442546 
L 199.307538 100.454971 
L 199.134718 100.584445 
L 198.132752 100.690379 
L 197.783876 100.800236 
L 196.423324 100.62368 
L 195.383169 100.694302 
L 195.17928 100.78258 
L 194.986395 100.99314 
L 194.209677 102.141409 
L 193.87051 102.424553 
L 193.536521 102.389896 
L 193.16758 102.185875 
L 192.86207 102.198954 
L 192.55203 102.295079 
L 192.17338 102.340199 
L 191.990851 102.302926 
L 191.685989 102.163642 
L 191.511875 102.120484 
L 191.363004 102.125716 
L 191.095683 102.200915 
L 190.909918 102.219879 
L 190.579166 102.181952 
L 189.546778 101.90077 
L 188.662613 101.832763 
L 184.947958 102.306849 
L 184.511054 102.414745 
L 184.323347 102.613534 
L 184.160236 102.871175 
L 183.786117 103.173282 
L 183.379634 103.429616 
L 183.119433 103.546666 
L 183.119433 103.656523 
L 183.604882 103.459696 
L 184.482574 102.720775 
L 184.97579 102.439593 
L 185.566096 102.402974 
L 185.817882 102.720775 
L 185.868369 103.188976 
L 185.854777 103.601595 
L 185.951866 104.101837 
L 185.977757 104.407868 
L 185.903969 104.543882 
L 185.771927 104.564807 
L 185.52726 104.645238 
L 185.421109 104.653739 
L 185.283889 104.589656 
L 185.045695 104.372557 
L 184.916889 104.324167 
L 183.863789 104.273162 
L 183.367983 104.390866 
L 183.228174 104.763596 
L 183.33562 104.684473 
L 183.673493 104.543882 
L 183.759579 104.935575 
L 183.839192 105.093168 
L 183.988711 105.202371 
L 183.802298 105.312882 
L 183.549865 105.633953 
L 183.336915 105.751657 
L 183.632068 105.947831 
L 183.597115 106.120464 
L 183.406172 106.300289 
L 183.228174 106.520004 
L 184.151822 106.475538 
L 184.379012 106.355218 
L 184.450211 106.070112 
L 184.124636 105.437779 
L 184.206192 105.092514 
L 184.028194 104.97481 
L 183.973824 104.777982 
L 184.035314 104.572654 
L 184.206192 104.434025 
L 184.489694 104.426178 
L 184.757662 104.563499 
L 185.203628 104.983311 
L 185.359619 104.864953 
L 185.51302 104.825064 
L 185.674837 104.80937 
L 185.854777 104.763596 
L 186.346051 104.477183 
L 186.447024 104.434025 
L 186.723407 104.480452 
L 187.037977 104.592271 
L 187.316949 104.731555 
L 187.483943 104.862991 
L 187.536372 104.988542 
L 187.550612 105.27234 
L 187.602393 105.422086 
L 187.708544 105.552214 
L 188.081369 105.800701 
L 188.304028 106.016492 
L 188.461961 106.230975 
L 188.551931 106.495155 
L 188.570702 106.858076 
L 188.461961 107.332162 
L 188.461961 107.517219 
L 188.647079 107.882102 
L 188.678148 108.0155 
L 188.731223 108.067159 
L 188.847084 108.115549 
L 188.96165 108.194018 
L 189.049031 108.470623 
L 189.196607 108.753767 
L 189.231559 108.843353 
L 189.165538 109.105571 
L 188.986893 109.392639 
L 188.753878 109.624778 
L 188.516331 109.721556 
L 188.336392 109.738558 
L 188.02441 109.813104 
L 187.863888 109.831414 
L 187.658058 109.80068 
L 187.54155 109.732019 
L 187.463878 109.655511 
L 187.375203 109.601237 
L 187.115649 109.550232 
L 186.8315 109.555463 
L 186.600426 109.655511 
L 186.505925 109.886342 
L 186.470973 110.027587 
L 186.379061 110.149869 
L 186.252197 110.236839 
L 186.111094 110.269535 
L 186.032127 110.205451 
L 185.951866 109.892881 
L 185.903969 109.776485 
L 185.655419 109.65355 
L 185.216573 109.881111 
L 184.97579 109.831414 
L 184.938249 109.712402 
L 184.968023 109.551539 
L 184.971907 109.392639 
L 184.857988 109.282782 
L 184.703939 109.282128 
L 184.555068 109.359289 
L 184.423026 109.478955 
L 184.323347 109.601237 
L 184.270271 109.433835 
L 184.173181 109.317439 
L 184.041139 109.233738 
L 183.87997 109.172924 
L 183.633362 109.369098 
L 183.46119 109.398524 
L 183.010693 109.282782 
L 183.083187 109.380214 
L 183.132379 109.447567 
L 183.357627 109.679052 
L 183.575108 109.835337 
L 183.673493 109.776485 
L 183.740161 109.624124 
L 183.890974 109.530614 
L 184.039197 109.52996 
L 184.10716 109.661397 
L 184.175123 110.469632 
L 184.309107 110.812935 
L 184.551832 110.817513 
L 184.365419 110.581451 
L 184.39843 110.385931 
L 184.465745 110.201528 
L 184.379012 109.9962 
L 184.377717 109.900728 
L 184.433382 109.745751 
L 184.529177 109.616931 
L 184.649569 109.601237 
L 184.724651 109.704555 
L 184.645685 109.962196 
L 184.703939 110.104749 
L 184.952489 110.238147 
L 185.173206 110.183218 
L 185.390687 110.075323 
L 185.627586 110.051128 
L 185.828886 110.161639 
L 185.980993 110.321848 
L 186.17582 110.45263 
L 186.505925 110.47944 
L 186.316924 110.88552 
L 186.455439 111.009763 
L 186.700105 110.912984 
L 186.832147 110.648804 
L 186.674214 110.118481 
L 186.711756 109.824221 
L 187.040567 109.721556 
L 187.145423 109.788256 
L 187.432809 110.073361 
L 187.602393 110.159677 
L 187.797867 110.167524 
L 188.643195 109.967427 
L 189.027671 109.75556 
L 189.359718 109.47307 
L 189.546778 109.172924 
L 189.559723 108.804118 
L 189.301464 108.121434 
L 189.231559 107.791209 
L 189.343536 107.338701 
L 189.619919 107.234076 
L 189.973325 107.338701 
L 190.318318 107.517219 
L 190.965583 107.986074 
L 191.325463 108.505934 
L 191.729356 109.831414 
L 191.867871 110.111288 
L 192.040044 110.353235 
L 192.169497 110.606953 
L 192.17338 110.928678 
L 192.36756 111.253018 
L 192.419341 111.467501 
L 192.348142 111.685908 
L 192.17338 112.025288 
L 192.46206 112.033135 
L 192.693781 112.166533 
L 192.884077 112.368592 
L 193.192176 112.798866 
L 194.040093 114.390488 
L 194.128769 114.669054 
L 194.107409 114.937158 
L 194.027795 115.179759 
L 193.997374 115.415822 
L 194.023264 115.464211 
L 194.128769 115.66627 
L 194.57344 115.231418 
L 194.895778 114.695211 
L 195.333329 113.471087 
L 195.365693 112.955151 
L 195.099019 111.944857 
L 195.106786 111.357644 
L 195.390936 111.574743 
L 195.667318 111.935702 
L 196.256977 113.070893 
L 196.356008 113.418121 
L 196.40067 115.686541 
L 196.214257 116.366609 
L 195.767644 116.764188 
L 196.305522 116.588286 
L 196.614914 116.051424 
L 196.744368 115.346507 
L 196.645983 113.352076 
L 196.551482 112.979346 
L 196.211021 112.364668 
L 196.093866 112.025288 
L 197.022044 112.135145 
L 197.298427 112.20773 
L 197.409756 112.386248 
L 197.477072 112.607924 
L 197.624001 112.813906 
L 197.791643 112.885182 
L 198.299746 113.002887 
L 198.611081 113.029697 
L 198.742475 113.023812 
L 198.763835 112.963652 
L 198.602019 112.813906 
L 198.462857 112.746553 
L 197.987117 112.609885 
L 197.782581 112.583075 
L 197.761869 112.500028 
L 197.298427 112.025288 
L 197.041462 111.899737 
L 196.83369 111.835 
L 195.884152 111.812767 
L 195.67638 111.719911 
L 195.431714 111.476656 
L 195.6479 111.154278 
L 195.750168 110.883558 
L 195.913279 110.714849 
L 196.073255 110.629223 
L 197.43522 110.982503 
L 198.223759 111.301016 
L 198.794859 111.63075 
L 200.39206 112.879787 
L 200.678441 113.130338 
L 201.158955 113.778979 
L 201.616422 114.097672 
L 201.87977 114.289131 
L 201.891421 114.505576 
L 201.931551 114.624588 
L 202.145149 114.838417 
L 202.215054 114.992087 
L 202.190458 115.155565 
L 202.024758 115.630305 
L 201.716659 116.217518 
L 201.651933 116.553628 
L 201.760673 116.553628 
L 202.194988 115.66627 
L 202.422179 114.788066 
L 202.696619 114.814876 
L 202.928987 115.145102 
L 203.123167 115.545296 
L 203.281747 115.776127 
L 203.196955 116.086735 
L 203.281747 117.431832 
L 203.426087 117.106838 
L 203.488224 116.749148 
L 203.499228 116.050116 
L 203.477221 115.862443 
L 203.41832 115.717929 
L 203.332881 115.60284 
L 203.231907 115.496907 
L 203.123167 115.324274 
L 203.049379 114.958083 
L 202.965881 114.788066 
L 202.858435 114.724637 
L 202.546453 114.648129 
L 202.422179 114.568352 
L 202.402761 114.465688 
L 202.139027 114.118519 
L 202.035644 113.952345 
L 202.001126 113.826304 
L 201.931934 113.723113 
L 202.076312 113.683239 
L 202.537555 113.666726 
L 203.140883 113.787442 
L 204.377567 114.179928 
L 204.563979 114.200853 
L 205.680512 114.44934 
L 205.978254 114.246627 
L 205.909644 114.017758 
L 205.701872 113.798697 
L 205.529052 113.569174 
L 205.414486 113.524054 
L 205.298625 113.449508 
L 205.031116 113.279274 
L 205.009064 113.154188 
L 204.971993 113.02898 
L 204.743076 112.977221 
L 204.528813 112.792965 
L 204.432641 112.608778 
L 204.521725 112.550184 
L 204.977159 112.572265 
L 205.132773 112.640338 
L 205.375841 112.756939 
L 205.833019 112.999864 
L 206.47306 113.406563 
L 206.99638 113.745329 
L 207.538759 114.132223 
L 207.770727 114.421752 
L 208.388764 115.183882 
L 208.312124 114.740745 
L 207.926047 114.248787 
L 207.819652 113.959356 
L 207.345138 113.784695 
L 207.102939 113.523708 
L 207.161118 113.485278 
L 207.393592 113.678722 
L 207.616311 113.727419 
L 207.916505 113.757055 
L 208.119894 113.863684 
L 208.284195 114.047143 
L 208.70888 114.519939 
L 208.969767 114.780647 
L 209.220672 115.002657 
L 209.461926 115.263187 
L 209.732029 115.571924 
L 209.934674 115.736111 
L 210.243509 115.98718 
L 210.996223 116.586095 
L 211.343642 116.856694 
L 211.506848 117.358138 
L 211.828238 117.737209 
L 212.052191 117.641738 
L 211.791991 117.312166 
L 212.175819 117.308243 
L 213.036035 117.815678 
L 213.32342 117.641738 
L 213.426983 117.692743 
L 214.023761 117.641738 
L 214.259366 117.674433 
L 214.843846 117.970002 
L 215.471047 118.183177 
L 215.732542 118.358425 
L 215.82057 118.6383 
L 215.714418 118.621298 
L 215.663932 118.5716 
L 215.604383 118.418585 
L 215.573314 118.949562 
L 215.604383 119.077728 
L 215.721538 119.182354 
L 215.833515 119.170584 
L 215.953906 119.11304 
L 216.097599 119.077728 
L 216.366862 119.13658 
L 216.700203 119.283711 
L 217.030309 119.480538 
L 217.296335 119.685866 
L 217.434849 119.841497 
L 217.678868 120.182839 
L 217.915767 120.418248 
L 217.966901 120.488216 
L 217.994087 120.568647 
L 218.003148 120.673273 
L 218.043926 120.711854 
L 218.249109 120.766129 
L 218.328075 120.833482 
L 218.461412 121.1624 
L 218.544909 121.574364 
L 218.519666 121.977174 
L 218.328075 122.279281 
L 218.297007 122.143921 
L 218.255582 122.071337 
L 218.121598 121.939901 
L 218.036806 122.169424 
L 218.008974 122.425757 
L 217.939069 122.632394 
L 217.726119 122.71871 
L 217.481452 122.769715 
L 217.116395 122.995969 
L 216.966229 123.046974 
L 216.781759 123.065937 
L 216.585637 123.113673 
L 216.404403 123.183641 
L 216.265241 123.266688 
L 216.164915 123.44259 
L 216.092421 123.542639 
L 215.99339 123.585797 
L 215.97203 123.603453 
L 215.604383 123.705463 
L 214.721513 124.552933 
L 214.354514 124.683061 
L 214.043827 124.889697 
L 213.746732 125.369669 
L 213.32342 126.349229 
L 213.552552 126.257681 
L 213.760972 126.061508 
L 213.915668 125.828061 
L 213.973922 125.626002 
L 214.051594 125.487373 
L 215.360364 124.326025 
L 215.755843 124.08277 
L 215.82057 124.363952 
L 215.741603 124.523507 
L 215.500821 124.766762 
L 215.386902 124.913238 
L 215.340946 125.053175 
L 215.284634 125.402364 
L 215.223791 125.521376 
L 215.121523 125.64562 
L 215.076862 125.772479 
L 215.069742 126.07524 
L 215.001132 126.232179 
L 214.838021 126.322419 
L 214.65355 126.381271 
L 214.517625 126.448624 
L 213.962271 127.052184 
L 213.856767 127.056762 
L 213.798513 127.20193 
L 213.520189 127.653129 
L 213.421805 127.895077 
L 213.232803 128.563375 
L 213.204324 128.822324 
L 213.313711 129.14928 
L 213.32342 129.312104 
L 213.088463 129.99675 
L 212.241193 131.261415 
L 212.019828 131.954562 
L 211.944745 132.726178 
L 211.773867 133.299005 
L 211.39457 133.616152 
L 210.696171 133.620729 
L 209.768639 133.323853 
L 209.561515 133.282003 
L 206.785394 133.498448 
L 206.088289 133.33824 
L 205.473387 132.953085 
L 205.158169 132.958971 
L 204.842951 133.015861 
L 204.622233 133.178685 
L 204.595048 133.501718 
L 204.734857 133.671735 
L 205.58148 134.159553 
L 206.179553 134.279219 
L 206.326483 134.328262 
L 206.426162 134.436812 
L 206.497361 134.549284 
L 206.559498 134.608137 
L 206.729082 134.614676 
L 207.006111 134.523128 
L 207.157571 134.498933 
L 207.18152 134.545361 
L 207.364696 134.757228 
L 207.61713 134.98479 
L 207.721987 135.030564 
L 207.921344 135.047565 
L 208.0029 135.095301 
L 208.14012 135.322208 
L 208.198374 135.386292 
L 208.509708 135.424219 
L 209.125258 135.276434 
L 209.393226 135.26728 
L 209.552453 135.383676 
L 209.65731 135.600775 
L 209.736923 135.844684 
L 209.828188 136.044781 
L 209.997124 136.204989 
L 210.408785 136.460015 
L 210.58743 136.70327 
L 211.08453 136.359313 
L 211.285829 136.142214 
L 211.368032 135.875418 
L 211.472889 135.684476 
L 211.719497 135.466069 
L 212.005588 135.271857 
L 212.226306 135.157423 
L 212.575829 135.078953 
L 213.59333 135.157423 
L 214.333154 135.022717 
L 214.682677 135.036449 
L 214.725397 135.26728 
L 214.467138 135.487648 
L 213.865181 135.590312 
L 213.746732 135.875418 
L 213.728608 136.225261 
L 213.741554 136.407702 
L 213.801102 136.533253 
L 213.962271 136.605184 
L 213.999165 136.454784 
L 213.973922 136.044781 
L 214.047063 135.75379 
L 214.120851 135.696246 
L 214.300144 135.595544 
L 214.456135 135.564156 
L 214.634133 135.57331 
L 214.781709 135.552385 
L 214.843846 135.436643 
L 214.875562 135.294744 
L 214.954529 135.130612 
L 215.045146 134.993945 
L 215.22638 134.855315 
L 215.258743 134.663065 
L 215.276867 134.279219 
L 215.307936 134.12228 
L 215.30923 134.008499 
L 215.348066 133.917606 
L 215.494348 133.829981 
L 215.795974 133.942454 
L 216.106014 133.890795 
L 216.424468 133.780938 
L 218.001206 133.600458 
L 219.99802 133.368973 
L 220.293173 133.561224 
L 220.388968 133.724048 
L 220.610333 133.907143 
L 220.863414 134.068005 
L 221.05371 134.159553 
L 221.36828 134.230175 
L 222.356655 134.279219 
L 223.394868 134.530975 
L 223.670603 134.498933 
L 223.723679 134.426349 
L 223.897146 134.059504 
L 224.22272 133.720124 
L 224.591014 133.08256 
L 225.097176 132.87527 
L 227.866177 133.060981 
L 228.508264 133.22969 
L 229.119929 133.501718 
L 229.68305 133.8666 
L 229.989207 134.004576 
L 230.679191 134.11901 
" clip-path="url(#p9e1c646c9d)" style="fill: #f5f5f5; stroke: #000000"/>
    <path d="M 214.843846 133.282003 
L 214.931227 133.314699 
L 214.983008 133.349356 
L 215.04644 133.38009 
L 215.169421 133.401015 
L 215.224438 133.818211 
L 215.015372 134.190941 
L 214.665201 134.358342 
L 214.300144 134.159553 
L 214.278784 134.377306 
L 214.409531 134.591135 
L 214.444484 134.753305 
L 213.095583 134.937708 
L 211.402337 134.793194 
L 210.804911 134.817388 
L 210.979025 134.459045 
L 211.191329 134.130781 
L 211.485187 133.900604 
L 211.900731 133.829981 
L 212.238604 133.931992 
L 212.748649 134.346572 
L 213.095583 134.498933 
L 212.907876 134.236715 
L 212.878749 134.219713 
L 212.913054 134.090892 
L 212.98749 134.000652 
L 213.061278 133.937877 
L 213.095583 133.88491 
L 213.539607 133.401015 
L 213.726019 133.334316 
L 214.759055 133.267617 
L 214.843846 133.282003 
" clip-path="url(#p9e1c646c9d)" style="fill: #f5f5f5; stroke: #000000"/>
    <path d="M 216.373982 126.558481 
L 216.735156 126.479357 
L 217.086621 126.566328 
L 217.407017 126.761847 
L 217.676927 127.007064 
L 217.344232 127.101228 
L 217.241964 127.107113 
L 217.478863 127.48769 
L 217.253615 127.960468 
L 216.829009 128.39205 
L 216.162326 128.881176 
L 214.028292 129.778997 
L 213.648347 129.869891 
L 214.54481 129.214671 
L 214.839963 128.939374 
L 215.379135 128.138332 
L 215.561664 127.605394 
L 215.721538 127.447801 
L 215.919601 127.31898 
L 216.097599 127.166619 
L 216.160384 127.001833 
L 216.140966 126.857972 
L 216.167504 126.714766 
L 216.373982 126.558481 
" clip-path="url(#p9e1c646c9d)" style="fill: #f5f5f5; stroke: #000000"/>
    <path d="M 213.746732 128.772626 
L 213.569381 128.613726 
L 213.628282 128.300502 
L 213.773917 127.933004 
L 213.856767 127.611279 
L 214.003049 127.356253 
L 214.349983 127.22024 
L 214.753877 127.127384 
L 215.069742 127.007064 
L 215.358422 126.711496 
L 215.95067 125.953612 
L 216.20634 125.800597 
L 216.595346 125.767247 
L 217.459445 125.471025 
L 217.459445 125.622079 
L 217.442617 125.763324 
L 217.407017 125.896722 
L 217.350705 126.020311 
L 217.350705 125.900645 
L 217.228372 126.184443 
L 217.084032 126.314572 
L 216.867198 126.350537 
L 216.526089 126.349229 
L 216.265888 126.423775 
L 216.012808 126.600985 
L 214.67491 127.840802 
L 214.593355 127.982047 
L 214.494323 128.303772 
L 214.408884 128.4339 
L 213.878774 128.733392 
L 213.746732 128.772626 
" clip-path="url(#p9e1c646c9d)" style="fill: #f5f5f5; stroke: #000000"/>
    <path d="M 217.123515 125.142107 
L 216.860078 125.43179 
L 216.065236 125.696625 
L 215.721538 125.900645 
L 215.999215 125.34482 
L 216.023811 124.820383 
L 216.111839 124.370491 
L 216.580459 124.035035 
L 217.139696 123.885943 
L 217.438733 123.897713 
L 217.568186 124.085386 
L 217.531939 124.395994 
L 217.434849 124.703987 
L 217.293746 124.992362 
L 217.123515 125.241502 
L 217.123515 125.142107 
" clip-path="url(#p9e1c646c9d)" style="fill: #f5f5f5; stroke: #000000"/>
    <path d="M 218.003148 123.705463 
L 218.241342 123.519098 
L 218.597338 123.339926 
L 218.95657 123.313116 
L 219.207062 123.585797 
L 219.257548 123.658381 
L 219.342987 123.821205 
L 219.424543 123.915369 
L 219.253665 123.991876 
L 219.037478 124.005609 
L 218.772099 123.975529 
L 218.328075 124.254749 
L 218.205095 124.489503 
L 218.092471 124.794226 
L 217.908648 125.05056 
L 217.568186 125.142107 
L 217.700228 124.733413 
L 217.826445 123.999723 
L 218.003148 123.705463 
" clip-path="url(#p9e1c646c9d)" style="fill: #f5f5f5; stroke: #000000"/>
    <path d="M 167.757239 97.940679 
L 168.073752 98.089771 
L 168.524249 98.236247 
L 168.917139 98.454 
L 169.060184 98.818883 
L 168.829111 99.124914 
L 168.409683 99.15434 
L 168.07181 98.986938 
L 168.082167 98.699217 
L 167.658208 98.661944 
L 167.440727 98.595899 
L 167.312568 98.479503 
L 167.298976 98.275482 
L 167.401891 98.100888 
L 167.570827 97.981222 
L 167.757239 97.940679 
" clip-path="url(#p9e1c646c9d)" style="fill: #f5f5f5; stroke: #000000"/>
    <path d="M 147.856421 95.61733 
L 147.980049 95.609483 
L 148.115327 95.616676 
L 148.16452 95.680106 
L 148.029888 95.845545 
L 148.264198 96.190157 
L 148.216948 96.411833 
L 147.964515 96.57008 
L 147.585864 96.723749 
L 147.648002 96.564849 
L 147.69331 96.504689 
L 147.360616 96.619777 
L 147.071288 96.649857 
L 146.440205 96.625008 
L 146.123045 96.547193 
L 145.829186 96.398755 
L 145.556688 96.305899 
L 145.304254 96.394178 
L 144.926899 96.084223 
L 145.083537 95.703647 
L 145.484841 95.420503 
L 145.838248 95.397616 
L 146.229196 95.234792 
L 146.605257 95.253101 
L 147.421459 95.573518 
L 147.58457 95.603598 
L 147.856421 95.61733 
" clip-path="url(#p9e1c646c9d)" style="fill: #f5f5f5; stroke: #000000"/>
    <path d="M 169.820721 92.698921 
L 169.872502 93.028493 
L 170.104223 93.624861 
L 170.156005 93.91062 
L 170.669933 94.856831 
L 170.761845 95.296259 
L 170.254389 95.18771 
L 170.262156 95.293644 
L 170.246622 95.511396 
L 170.254389 95.61733 
L 170.021373 95.446659 
L 169.882859 95.393038 
L 169.820721 95.457122 
L 169.770882 95.557824 
L 169.425242 95.880857 
L 169.005814 96.723749 
L 168.089934 96.572696 
L 167.757239 96.625008 
L 166.706081 96.988584 
L 166.434229 97.163178 
L 166.479538 96.689092 
L 166.203803 96.627624 
L 165.855574 96.627624 
L 165.533236 96.022102 
L 165.19148 95.781462 
L 164.821244 95.582673 
L 164.586934 95.397616 
L 164.155855 95.768384 
L 163.815394 95.849469 
L 162.651611 95.719994 
L 162.570703 95.683375 
L 162.506623 95.644141 
L 162.415359 95.61733 
L 162.007582 95.631062 
L 161.861947 95.61733 
L 161.195911 95.420503 
L 160.885224 95.397616 
L 161.276819 94.556031 
L 161.329895 94.354626 
L 161.366142 94.014592 
L 161.489122 93.870731 
L 161.720196 93.843267 
L 162.079428 93.851768 
L 162.252248 93.818419 
L 162.37717 93.757605 
L 162.57847 93.581702 
L 162.741581 93.52612 
L 163.067155 93.637939 
L 163.495645 93.458767 
L 163.883357 93.403838 
L 164.229644 93.466614 
L 164.380456 93.69156 
L 164.372042 93.894272 
L 164.388871 94.130335 
L 164.495022 94.327162 
L 165.037431 94.495871 
L 165.623206 94.871871 
L 165.955253 94.958187 
L 166.603813 95.024232 
L 166.875664 94.939224 
L 167.104796 94.629269 
L 167.133923 94.461868 
L 167.104796 93.971434 
L 167.203828 93.826265 
L 167.43296 93.641862 
L 167.530049 93.532005 
L 167.595423 93.355449 
L 167.588303 93.23186 
L 167.609663 93.118733 
L 167.757239 92.973564 
L 167.891871 92.929098 
L 168.258223 92.908173 
L 168.408388 92.863707 
L 168.641404 92.662956 
L 169.036883 92.174484 
L 169.277666 91.995966 
L 169.333978 92.284341 
L 169.524274 92.438664 
L 169.724926 92.547214 
L 169.820721 92.698921 
" clip-path="url(#p9e1c646c9d)" style="fill: #f5f5f5; stroke: #000000"/>
    <path d="M 125.894063 82.289951 
L 126.140671 82.299106 
L 126.219638 82.289951 
L 125.921896 82.544977 
L 125.360069 82.637832 
L 124.761996 82.556093 
L 124.363281 82.289951 
L 124.846141 82.403732 
L 125.216376 82.337033 
L 125.516707 82.083315 
L 125.785323 81.632116 
L 125.925779 81.739357 
L 126.003451 81.910682 
L 125.99892 82.106856 
L 125.894063 82.289951 
" clip-path="url(#p9e1c646c9d)" style="fill: #f5f5f5; stroke: #000000"/>
    <path d="M 133.467067 81.632116 
L 133.843775 81.603344 
L 133.932451 81.708624 
L 133.960283 82.021847 
L 133.756394 82.340956 
L 133.292953 82.310876 
L 132.793264 82.065006 
L 132.478693 81.734126 
L 132.71365 81.645848 
L 132.993269 81.620345 
L 133.467067 81.632116 
" clip-path="url(#p9e1c646c9d)" style="fill: #f5f5f5; stroke: #000000"/>
    <path d="M 157.725922 80.425648 
L 157.92528 80.532236 
L 158.430794 80.923929 
L 158.527237 81.097216 
L 158.601025 81.37709 
L 158.590021 81.637347 
L 158.430794 81.751782 
L 157.751166 81.728895 
L 157.37381 81.665465 
L 157.06377 81.532067 
L 157.109726 81.403247 
L 157.133674 81.364012 
L 157.122671 81.324123 
L 157.06377 81.193995 
L 157.272836 81.031825 
L 157.53951 80.584549 
L 157.725922 80.425648 
" clip-path="url(#p9e1c646c9d)" style="fill: #f5f5f5; stroke: #000000"/>
    <path d="M 123.639638 82.378883 
L 123.864887 82.289951 
L 123.981394 82.282104 
L 123.989161 82.306953 
L 123.238334 82.616907 
L 123.163251 82.684914 
L 122.710165 82.802618 
L 122.57165 82.838583 
L 122.402067 82.882395 
L 122.031831 82.869971 
L 121.975519 82.800003 
L 122.316628 82.836622 
L 122.554822 82.805234 
L 122.63573 82.785617 
L 122.692042 82.7745 
L 123.639638 82.378883 
" clip-path="url(#p9e1c646c9d)" style="fill: #f5f5f5; stroke: #000000"/>
    <path d="M 123.903722 80.894503 
L 124.179457 80.884041 
L 124.24742 80.927199 
L 123.845469 80.969049 
L 123.789156 80.959894 
L 123.578795 81.016131 
L 123.304355 80.959894 
L 123.155484 80.959894 
L 123.049332 80.920006 
L 122.56 80.876194 
L 122.608545 80.841536 
L 123.903722 80.894503 
" clip-path="url(#p9e1c646c9d)" style="fill: #f5f5f5; stroke: #000000"/>
    <path d="M 109.195266 79.046548 
L 109.338959 79.062242 
L 109.520193 79.125018 
L 109.382973 79.147251 
L 109.070344 79.09363 
L 108.946716 79.040009 
L 108.927298 78.970694 
L 108.973254 78.915112 
L 109.050279 78.936691 
L 109.121478 79.004698 
L 109.195266 79.046548 
" clip-path="url(#p9e1c646c9d)" style="fill: #f5f5f5; stroke: #000000"/>
    <path d="M 108.83927 78.401791 
L 108.821147 78.390021 
L 108.86063 78.352094 
L 108.83927 78.401791 
" clip-path="url(#p9e1c646c9d)" style="fill: #f5f5f5; stroke: #000000"/>
    <path d="M 108.883932 78.357325 
L 108.889757 78.322014 
L 108.90335 78.357325 
L 108.898819 78.371711 
L 108.883932 78.357325 
" clip-path="url(#p9e1c646c9d)" style="fill: #f5f5f5; stroke: #000000"/>
    <path d="M 108.889757 77.99702 
L 108.930535 78.026446 
L 108.907881 78.090529 
L 108.893641 78.059795 
L 108.889757 77.99702 
" clip-path="url(#p9e1c646c9d)" style="fill: #f5f5f5; stroke: #000000"/>
    <path d="M 108.823736 77.780575 
L 108.829561 77.810655 
L 108.775191 77.784498 
L 108.823736 77.780575 
" clip-path="url(#p9e1c646c9d)" style="fill: #f5f5f5; stroke: #000000"/>
    <path d="M 108.729235 77.750495 
L 108.705286 77.695566 
L 108.733119 77.719107 
L 108.729235 77.750495 
" clip-path="url(#p9e1c646c9d)" style="fill: #f5f5f5; stroke: #000000"/>
    <path d="M 173.112712 19.407165 
L 173.053164 19.333927 
L 173.116596 19.296 
L 173.196857 19.333927 
L 173.207213 19.404549 
L 173.182617 19.439207 
L 173.112712 19.407165 
" clip-path="url(#p9e1c646c9d)" style="fill: #f5f5f5; stroke: #000000"/>
    <path d="M 208.897698 133.756287 
L 209.222323 133.904931 
L 209.628165 133.877967 
L 210.101376 133.905208 
L 210.249939 134.202442 
L 210.263315 134.472581 
L 210.29012 134.81036 
L 210.479238 135.013162 
L 210.709005 135.107863 
L 210.965749 135.270193 
L 210.979089 135.50005 
L 210.911284 135.756946 
L 210.70839 135.851548 
L 210.438047 135.743271 
L 210.059687 135.445678 
L 209.92474 135.13469 
L 209.722122 134.891323 
L 209.2896 134.891006 
L 208.734927 134.918139 
L 208.207069 134.823802 
L 207.882043 134.553759 
L 207.651949 134.391632 
L 207.313469 134.229539 
L 207.015481 134.202618 
L 206.514086 134.000082 
L 206.581992 133.837792 
L 206.907297 133.878198 
L 207.530333 133.972636 
L 208.126231 133.945446 
L 208.491803 133.729225 
L 208.897698 133.756287 
" clip-path="url(#p9e1c646c9d)" style="fill: #f5f5f5; stroke: #000000"/>
    <path d="M 219.161773 131.52605 
L 219.445903 131.486103 
L 219.649214 131.28393 
L 219.920072 131.122429 
L 220.136951 130.906808 
L 220.25886 130.826043 
L 220.326374 130.880205 
L 220.24484 131.05559 
L 220.081881 131.352375 
L 220.081187 131.676528 
L 220.215895 131.946966 
L 220.418472 132.055428 
L 220.905407 132.043034 
L 221.284 132.097963 
L 221.391633 132.300784 
L 221.336849 132.570706 
L 221.187503 132.854057 
L 220.957517 132.907591 
L 220.660069 132.893464 
L 220.295199 132.771053 
L 219.970678 132.756864 
L 219.659449 132.837327 
L 219.307787 132.850147 
L 218.969666 132.836029 
L 218.739486 132.943709 
L 218.441877 132.9432 
L 218.157862 132.915679 
L 218.131149 132.766975 
L 218.321019 132.53761 
L 218.497513 132.240694 
L 218.714696 131.889865 
L 218.918255 131.552584 
L 219.161773 131.52605 
" clip-path="url(#p9e1c646c9d)" style="fill: #f5f5f5; stroke: #000000"/>
    <path d="M 215.879528 129.782938 
L 216.619631 129.688295 
L 216.962363 129.579421 
L 217.14097 129.306146 
L 217.305793 129.101226 
L 217.78553 129.102046 
L 218.635525 129.103595 
L 218.978774 128.899001 
L 219.363134 128.749211 
L 219.431231 128.968301 
L 219.279898 129.159588 
L 219.375587 129.29662 
L 219.594912 129.379176 
L 219.662836 129.666701 
L 219.703573 129.844716 
L 219.90902 130.05045 
L 220.099996 130.406643 
L 219.893977 130.584091 
L 219.495851 130.829511 
L 219.111844 130.869665 
L 218.76869 131.170047 
L 218.548654 131.593854 
L 218.301385 131.935522 
L 218.177566 132.277671 
L 217.848152 132.619412 
L 217.546365 132.838106 
L 216.943343 132.878106 
L 216.367921 132.808684 
L 215.942983 132.890244 
L 215.600301 132.971815 
L 215.052473 132.806682 
L 214.243536 132.819988 
L 213.612546 132.901925 
L 213.324 133.066479 
L 213.035242 133.285963 
L 212.842697 133.40953 
L 212.677652 133.505672 
L 212.402954 133.519524 
L 212.293429 133.382365 
L 212.335334 133.053217 
L 212.376979 132.833841 
L 212.40526 132.422606 
L 212.447598 131.847034 
L 212.6405 131.47718 
L 213.094516 130.929524 
L 213.589179 130.56018 
L 214.151882 130.259617 
L 214.604499 130.095924 
L 215.153073 129.89137 
L 215.523157 129.837152 
L 215.879528 129.782938 
" clip-path="url(#p9e1c646c9d)" style="fill: #f5f5f5; stroke: #000000"/>
    <path d="M 193.931353 112.222116 
L 194.064689 112.390825 
L 194.165663 112.783172 
L 194.107409 113.159171 
L 194.016792 113.449508 
L 193.812256 113.425314 
L 193.641378 112.997655 
L 193.616782 112.594845 
L 193.65044 112.331973 
L 193.736526 112.163264 
L 193.864037 112.173726 
L 193.931353 112.222116 
" clip-path="url(#p9e1c646c9d)" style="fill: #f5f5f5; stroke: #000000"/>
    <path d="M 192.783104 110.844323 
L 192.873721 110.883558 
L 192.977284 111.052267 
L 192.898317 111.297484 
L 192.693781 111.386416 
L 192.509311 111.224246 
L 192.397334 110.93914 
L 192.268528 110.412087 
L 192.260114 110.19695 
L 192.408337 110.154446 
L 192.586983 110.381354 
L 192.783104 110.844323 
" clip-path="url(#p9e1c646c9d)" style="fill: #f5f5f5; stroke: #000000"/>
    <path d="M 195.367634 110.117827 
L 195.44919 110.234223 
L 195.530098 110.493173 
L 195.455015 110.722696 
L 195.298377 110.887481 
L 195.095783 111.037227 
L 194.841408 111.107196 
L 194.610981 111.13793 
L 194.458227 111.207244 
L 194.449165 110.9993 
L 194.643344 110.553332 
L 194.942381 110.223761 
L 195.231709 110.108672 
L 195.367634 110.117827 
" clip-path="url(#p9e1c646c9d)" style="fill: #f5f5f5; stroke: #000000"/>
    <path d="M 188.617952 105.057857 
L 188.72734 105.157251 
L 188.868444 105.402468 
L 188.8432 105.708499 
L 188.702744 105.963525 
L 188.610832 105.963525 
L 188.606948 105.77716 
L 188.548047 105.624144 
L 188.287199 105.388736 
L 188.177164 105.247491 
L 187.899488 104.966963 
L 187.410802 104.59881 
L 186.955127 104.330707 
L 186.670331 104.033177 
L 186.58295 103.746763 
L 186.606899 103.454465 
L 186.628906 103.349839 
L 186.692338 103.148434 
L 186.773246 103.024191 
L 186.839267 103.028768 
L 187.313065 103.548628 
L 187.705308 104.07045 
L 188.617952 105.057857 
" clip-path="url(#p9e1c646c9d)" style="fill: #f5f5f5; stroke: #000000"/>
    <path d="M 164.702147 97.63988 
L 164.846487 97.688923 
L 164.904741 97.896867 
L 164.603763 98.101542 
L 164.173979 98.136199 
L 163.869764 97.985145 
L 163.912484 97.751045 
L 164.148088 97.650342 
L 164.357155 97.637264 
L 164.645188 97.658189 
L 164.702147 97.63988 
" clip-path="url(#p9e1c646c9d)" style="fill: #f5f5f5; stroke: #000000"/>
   </g>
  </g>
 </g>
 <defs>
  <clipPath id="p9e1c646c9d">
   <rect x="7.2" y="7.2" width="237.543826" height="266.112"/>
  </clipPath>
 </defs>
</svg>
