<?xml version="1.0" encoding="utf-8" standalone="no"?>
<!DOCTYPE svg PUBLIC "-//W3C//DTD SVG 1.1//EN"
  "http://www.w3.org/Graphics/SVG/1.1/DTD/svg11.dtd">
<svg xmlns:xlink="http://www.w3.org/1999/xlink" width="226.114585pt" height="280.512pt" viewBox="0 0 226.114585 280.512" xmlns="http://www.w3.org/2000/svg" version="1.1">
 <metadata>
  <rdf:RDF xmlns:dc="http://purl.org/dc/elements/1.1/" xmlns:cc="http://creativecommons.org/ns#" xmlns:rdf="http://www.w3.org/1999/02/22-rdf-syntax-ns#">
   <cc:Work>
    <dc:type rdf:resource="http://purl.org/dc/dcmitype/StillImage"/>
    <dc:date>2024-03-04T13:11:13.766846</dc:date>
    <dc:format>image/svg+xml</dc:format>
    <dc:creator>
     <cc:Agent>
      <dc:title>Matplotlib v3.8.0, https://matplotlib.org/</dc:title>
     </cc:Agent>
    </dc:creator>
   </cc:Work>
  </rdf:RDF>
 </metadata>
 <defs>
  <style type="text/css">*{stroke-linejoin: round; stroke-linecap: butt}</style>
 </defs>
 <g id="figure_1">
  <g id="patch_1">
   <path d="M 0 280.512 
L 226.114585 280.512 
L 226.114585 0 
L 0 0 
z
" style="fill: #ffffff"/>
  </g>
  <g id="axes_1">
   <g id="PatchCollection_1">
    <path d="M 177.681622 39.236088 
L 178.972155 39.868598 
L 181.695847 40.364321 
L 182.362302 40.642783 
L 187.001352 44.336229 
L 189.394616 46.946427 
L 189.71571 47.445211 
L 190.034936 48.136776 
L 190.188015 49.168003 
L 190.107742 49.709627 
L 189.909859 50.064589 
L 187.229104 51.753721 
L 186.982684 52.029123 
L 186.880009 52.433046 
L 186.911317 52.733963 
L 186.921079 52.827789 
L 187.29631 53.467333 
L 190.824601 57.22198 
L 191.205433 57.751363 
L 193.113324 62.010913 
L 193.611765 63.562344 
L 194.085938 65.649279 
L 194.121407 66.083802 
L 194.097138 66.555045 
L 194.257685 67.151749 
L 194.588112 67.824954 
L 196.378394 69.862928 
L 196.914171 71.105297 
L 197.268867 71.417419 
L 197.793444 71.640801 
L 200.505935 72.044724 
L 203.46142 73.822057 
L 203.492848 73.840956 
L 203.657129 74.792623 
L 204.105166 75.909531 
L 204.228376 76.307334 
L 204.291848 76.754097 
L 204.254511 78.66967 
L 204.187306 79.143974 
L 203.911016 79.550957 
L 203.455512 79.789638 
L 202.488499 80.00384 
L 201.767906 80.340442 
L 200.296851 81.44205 
L 199.72187 81.634831 
L 199.03488 81.45429 
L 198.598044 81.237028 
L 194.774794 77.286541 
L 194.399563 77.072339 
L 193.538959 76.830598 
L 192.605548 76.796937 
L 189.775448 77.662923 
L 189.140729 77.730244 
L 188.632953 77.644563 
L 188.302526 77.454842 
L 188.009435 77.1825 
L 186.797868 75.72287 
L 186.465574 75.548448 
L 185.612437 75.361787 
L 184.309396 75.429108 
L 183.506663 75.79937 
L 179.836493 78.57481 
L 179.55647 78.709451 
L 179.194306 78.779831 
L 178.906816 78.917532 
L 177.984606 79.615217 
L 177.562705 80.09564 
L 177.181873 80.741305 
L 176.586358 82.002034 
L 176.106585 82.519177 
L 175.632412 82.83742 
L 174.868882 83.137302 
L 174.624329 83.525925 
L 174.516053 84.070608 
L 174.667266 85.046755 
L 174.814744 85.618979 
L 174.997693 86.133063 
L 175.057431 86.549226 
L 174.982758 87.041889 
L 174.609394 87.653894 
L 173.625579 88.5872 
L 173.364225 88.905442 
L 172.932989 89.600067 
L 172.79111 90.01317 
L 172.763108 90.716975 
L 172.783643 91.298379 
L 173.64381 93.978804 
L 173.651715 94.003438 
L 174.389109 94.799044 
L 175.621211 95.371268 
L 177.850195 95.554869 
L 178.186223 95.70175 
L 178.391573 95.928192 
L 178.897482 96.904339 
L 179.240977 97.283781 
L 179.634876 97.546943 
L 181.654776 97.822345 
L 183.372252 98.394569 
L 183.794153 98.639371 
L 183.894962 98.743411 
L 184.64169 100.062281 
L 184.992652 100.469264 
L 185.336148 100.769146 
L 186.571983 101.39339 
L 186.683992 101.705512 
L 186.599985 102.066595 
L 186.144481 103.036622 
L 185.690844 103.446665 
L 185.24654 103.706766 
L 183.842691 103.819987 
L 183.39092 103.936268 
L 183.084761 104.110689 
L 182.830874 104.398331 
L 182.616189 104.808374 
L 182.26336 105.913042 
L 181.774253 106.938149 
L 181.688379 107.397152 
L 181.602506 108.177458 
L 181.679045 109.658508 
L 181.445693 110.763176 
L 181.206739 111.3813 
L 180.883779 111.699543 
L 179.507932 112.513508 
L 179.242844 112.78891 
L 179.041227 113.250974 
L 178.906816 113.890518 
L 178.699599 115.506209 
L 178.583856 116.047833 
L 178.430777 116.439516 
L 177.965938 117.106601 
L 177.364822 117.632924 
L 175.385992 118.850813 
L 175.117169 119.120095 
L 174.904352 119.484237 
L 174.783008 119.992201 
L 174.760607 120.659286 
L 174.827812 121.194789 
L 175.117169 122.008755 
L 175.684683 123.021622 
L 175.85083 123.382705 
L 175.960973 123.768267 
L 175.960973 124.227271 
L 175.85083 124.622013 
L 175.453197 125.310518 
L 175.471865 125.641001 
L 175.792959 125.882742 
L 176.571423 125.916402 
L 177.103467 125.818482 
L 177.536569 125.63182 
L 177.805392 125.350298 
L 178.033144 125.007576 
L 178.399041 124.239511 
L 178.651062 123.942689 
L 178.934818 123.691767 
L 180.960319 122.562619 
L 182.341767 121.179489 
L 182.688995 120.998948 
L 183.056759 120.983648 
L 183.405855 121.099929 
L 185.201736 123.174623 
L 185.45189 123.670347 
L 185.560166 124.12017 
L 185.496694 124.566933 
L 185.138264 125.136097 
L 184.59502 125.787882 
L 182.715131 127.504554 
L 182.043075 129.114125 
L 181.561435 129.441547 
L 176.005776 129.79651 
L 175.264648 130.099452 
L 173.371692 131.436681 
L 170.039416 132.764731 
L 169.727657 132.991172 
L 169.234816 133.560336 
L 168.39288 134.986306 
L 168.280871 135.45143 
L 168.247268 135.916553 
L 168.251002 136.369436 
L 168.385413 137.302743 
L 168.508623 137.819886 
L 168.706506 138.39517 
L 168.908123 138.792973 
L 169.147076 139.141815 
L 169.389763 139.435578 
L 171.861434 141.078809 
L 173.709586 142.847502 
L 176.300734 144.698815 
L 178.186223 146.801049 
L 178.692132 147.244752 
L 186.866763 147.883115 
L 186.921079 147.887357 
L 187.042422 149.019565 
L 186.872541 149.451028 
L 186.413303 150.084452 
L 184.944115 151.069779 
L 184.434473 151.617523 
L 184.066709 152.407009 
L 183.827756 153.208734 
L 183.842691 153.416816 
L 184.040574 154.662245 
L 184.275793 155.173268 
L 184.608087 155.568011 
L 186.418904 156.109635 
L 186.754931 156.311596 
L 186.93788 156.629838 
L 186.941614 157.012341 
L 186.523446 157.526425 
L 186.075409 157.752866 
L 183.607471 157.850787 
L 182.929815 158.107829 
L 182.629257 158.32203 
L 182.414573 158.533172 
L 181.919865 159.341017 
L 181.688379 159.625599 
L 181.393422 159.882641 
L 180.40774 160.451805 
L 180.105315 160.714967 
L 179.877563 161.030149 
L 179.694614 161.446312 
L 179.334318 162.814142 
L 178.953487 163.517947 
L 176.011377 167.835637 
L 175.919902 168.337481 
L 176.028178 168.876045 
L 176.606893 169.63187 
L 177.058663 169.806291 
L 177.474964 169.794051 
L 177.831527 169.70531 
L 178.178756 169.836891 
L 178.320634 170.194914 
L 178.137686 170.846698 
L 177.855796 171.284281 
L 177.502967 171.617824 
L 175.598809 172.275728 
L 174.960356 172.655171 
L 174.783008 173.016254 
L 174.837146 173.475257 
L 175.367323 174.145402 
L 176.461281 174.888987 
L 176.506084 175.029748 
L 176.438879 175.216409 
L 176.072982 175.507111 
L 175.84523 175.840654 
L 175.61001 176.259877 
L 175.301985 177.275804 
L 174.848347 179.326018 
L 174.896885 179.61366 
L 174.995826 179.904362 
L 175.531604 180.149164 
L 176.199926 180.739748 
L 177.463763 182.162658 
L 177.67098 182.612481 
L 177.820326 183.166345 
L 177.855796 184.139432 
L 177.762455 184.754496 
L 177.872597 185.648022 
L 178.018209 186.299807 
L 180.087111 190.243208 
L 180.116516 190.299255 
L 181.748118 192.637112 
L 183.87816 194.601645 
L 183.999504 194.773007 
L 184.165651 195.082069 
L 184.266459 195.473751 
L 184.372868 196.351978 
L 184.64169 196.866061 
L 185.071059 197.429105 
L 186.618654 198.815295 
L 187.221637 199.102937 
L 187.996367 199.121297 
L 188.50601 199.035617 
L 189.256472 198.705134 
L 191.407049 197.074143 
L 192.125775 196.777321 
L 192.922908 196.67328 
L 199.99816 203.090145 
L 200.759823 204.099952 
L 200.939037 204.470215 
L 201.902317 205.620783 
L 202.1002 205.960445 
L 202.406359 206.66119 
L 202.600508 206.982492 
L 202.936536 207.251774 
L 203.388307 207.429256 
L 204.702549 207.340515 
L 205.277529 207.410895 
L 205.766636 207.680177 
L 207.088346 208.992927 
L 208.43619 209.883393 
L 209.185127 209.441125 
L 209.291195 209.378489 
L 208.775952 211.055381 
L 207.21529 213.555419 
L 206.957668 214.537686 
L 206.838192 215.259851 
L 206.868061 216.128897 
L 207.148084 216.927562 
L 207.618523 217.95573 
L 207.592387 218.613634 
L 207.349701 219.5041 
L 207.110748 219.999824 
L 206.640309 220.728109 
L 206.595505 221.220772 
L 206.69258 221.835837 
L 207.327299 223.436228 
L 207.864943 225.507863 
L 208.096429 226.162707 
L 208.23084 226.716571 
L 208.238307 227.105194 
L 207.935882 227.542777 
L 206.793388 228.02932 
L 206.617907 228.304722 
L 206.658977 228.671925 
L 207.047276 229.274749 
L 207.413173 230.058115 
L 207.450509 231.162782 
L 207.968221 233.617979 
L 205.916187 236.114186 
L 204.516807 237.246635 
L 201.094791 238.056215 
L 198.378346 239.983788 
L 197.055402 240.923479 
L 193.997932 242.041471 
L 187.882991 242.465537 
L 186.94811 242.089661 
L 186.383654 241.251167 
L 185.99559 240.412673 
L 185.619286 240.046434 
L 184.943115 240.571697 
L 183.049835 243.000439 
L 182.655892 243.757011 
L 178.463629 246.51344 
L 178.263718 246.585724 
L 177.364116 246.903773 
L 176.158767 247.833827 
L 174.274307 249.824046 
L 174.030297 250.310758 
L 173.606955 251.674516 
L 173.286508 252.247968 
L 172.77791 252.575656 
L 171.748953 252.715405 
L 171.334431 253.038273 
L 171.310912 253.057549 
L 172.225213 255.57785 
L 171.713675 258.107789 
L 170.437769 259.630571 
L 169.050148 259.158316 
L 167.977093 259.018567 
L 162.879349 261.216 
L 144.834393 259.524555 
L 143.514388 258.743888 
L 142.223783 256.927151 
L 140.098253 253.934594 
L 135.873652 250.320396 
L 134.877034 250.224017 
L 133.54527 250.879392 
L 131.919519 250.040898 
L 130.496619 248.585581 
L 129.744011 247.395304 
L 129.644055 246.870041 
L 129.77047 246.672465 
L 129.99684 246.600181 
L 130.190872 246.51344 
L 129.649935 244.181077 
L 129.464723 243.588349 
L 128.956125 241.964368 
L 128.147659 240.007882 
L 127.274516 238.427273 
L 126.69242 237.795993 
L 125.431214 236.943042 
L 124.763862 236.075634 
L 123.62907 233.820374 
L 122.982297 233.111991 
L 122.023898 232.837312 
L 119.719035 233.126448 
L 114.256747 233.810736 
L 113.22779 234.254078 
L 112.263511 234.890177 
L 111.628498 235.627474 
L 111.546181 236.740647 
L 112.098878 237.89719 
L 112.854426 239.02482 
L 113.374784 240.046434 
L 110.370231 240.046434 
L 110.376111 240.354845 
L 110.035085 240.889747 
L 109.623503 241.106599 
L 109.429471 240.484957 
L 109.229559 240.027158 
L 108.7533 239.660919 
L 108.182964 239.400697 
L 107.700824 239.304318 
L 107.471514 239.564541 
L 106.801222 240.687352 
L 106.466076 240.923479 
L 105.989816 240.759636 
L 105.234268 240.171726 
L 103.438005 239.733203 
L 102.750074 239.689833 
L 101.988646 240.046434 
L 101.227218 240.759636 
L 100.210021 242.022196 
L 99.51621 242.465537 
L 98.787121 242.263142 
L 97.975716 241.728241 
L 97.323063 241.655957 
L 97.049655 242.913698 
L 96.123594 242.870328 
L 91.854895 241.019858 
L 90.593688 240.923479 
L 90.346739 240.499413 
L 90.214444 240.166907 
L 90.055691 239.304318 
L 91.431553 238.244153 
L 91.24928 236.986412 
L 90.608387 235.478087 
L 90.593688 233.646893 
L 93.060244 232.837312 
L 93.330712 232.451798 
L 94.106839 231.001299 
L 94.580159 230.336287 
L 95.02996 231.227789 
L 94.580159 231.227789 
L 94.580159 231.955448 
L 95.076998 232.331324 
L 95.570897 232.837312 
L 97.805203 232.075921 
L 101.494747 231.834974 
L 104.943221 230.938653 
L 106.466076 228.283422 
L 106.495475 227.497936 
L 106.454317 226.861837 
L 106.442557 226.664261 
L 106.089772 226.447409 
L 105.234268 227.507574 
L 104.643354 227.950916 
L 103.820188 228.052113 
L 100.965569 227.719607 
L 97.049655 225.493261 
L 96.008939 226.225738 
L 90.32028 227.102784 
L 88.759206 226.485961 
L 86.804188 224.900532 
L 85.063782 222.813935 
L 84.137721 220.635778 
L 87.115815 221.055025 
L 88.42112 220.876724 
L 89.109051 219.826197 
L 87.789047 219.912938 
L 86.457283 219.580432 
L 85.34601 218.741938 
L 84.675719 217.329991 
L 84.896209 217.069768 
L 85.319551 216.255369 
L 85.672336 215.156653 
L 85.657637 214.091669 
L 85.160798 213.27245 
L 84.699238 213.638689 
L 84.137721 214.901249 
L 83.729079 215.306039 
L 83.146983 216.269826 
L 82.700122 216.52041 
L 81.965153 216.337291 
L 81.347779 215.778295 
L 80.724526 214.901249 
L 79.331025 215.142196 
L 79.075256 215.966233 
L 79.648531 217.093863 
L 80.724526 218.216674 
L 78.249151 219.580432 
L 75.494487 219.691267 
L 70.052777 218.944333 
L 67.941947 219.170823 
L 65.354856 219.888843 
L 64.910935 220.014136 
L 62.538455 221.75377 
L 62.388522 224.68368 
L 61.72705 224.813791 
L 61.568296 225.016186 
L 61.568296 225.478804 
L 61.400724 226.375125 
L 60.07484 229.729101 
L 59.416308 229.497793 
L 58.440269 228.644842 
L 57.94049 229.020719 
L 56.688103 230.336287 
L 50.249776 230.177262 
L 49.150262 230.437484 
L 48.033109 231.227789 
L 47.395156 232.114473 
L 46.821881 233.165 
L 46.169228 234.022769 
L 44.802186 234.639593 
L 44.202451 235.776861 
L 43.549799 236.075634 
L 43.188194 235.945523 
L 42.435586 235.333519 
L 37.728845 233.762547 
L 35.982559 232.475892 
L 36.644031 231.227789 
L 35.591556 228.919521 
L 32.028427 227.999105 
L 30.637866 226.375125 
L 31.093546 225.560726 
L 36.644031 226.375125 
L 36.491158 225.970335 
L 36.303006 225.074014 
L 36.150132 224.68368 
L 37.217307 224.654767 
L 39.104707 225.310141 
L 40.142483 225.493261 
L 41.124402 225.247495 
L 43.549799 223.801816 
L 47.045311 223.064519 
L 48.806297 221.830873 
L 49.544205 221.647753 
L 50.499665 222.182655 
L 50.499665 221.445358 
L 48.435872 219.349123 
L 48.03017 216.472221 
L 49.220819 214.062755 
L 51.981362 213.36401 
L 51.981362 212.482146 
L 51.137618 213.074874 
L 49.044427 213.956739 
L 44.975639 214.342253 
L 44.087796 214.901249 
L 45.269626 214.89643 
L 46.13983 215.387961 
L 46.474975 216.462583 
L 46.063393 218.216674 
L 47.086469 219.151547 
L 46.82776 220.481572 
L 45.751766 221.66221 
L 40.142483 223.006692 
L 38.57259 223.064519 
L 28.506456 221.676667 
L 27.23055 222.182655 
L 27.947879 224.105408 
L 27.107075 225.131841 
L 26.078119 225.08847 
L 26.236872 223.801816 
L 26.236872 223.064519 
L 22.661983 220.259901 
L 21.262602 219.826197 
L 22.806037 219.797284 
L 23.832054 219.585251 
L 24.6317 218.987703 
L 25.478384 217.773332 
L 26.51322 216.751719 
L 28.941557 216.255369 
L 30.188065 215.706011 
L 31.322857 214.520554 
L 31.552167 213.388105 
L 31.175863 210.414824 
L 31.096486 208.564354 
L 30.799559 206.800625 
L 30.193944 205.340489 
L 29.200266 204.395978 
L 28.706367 205.205559 
L 27.412822 204.068291 
L 24.567022 203.663501 
L 23.279357 202.776817 
L 22.250401 203.562303 
L 18.23453 204.395978 
L 16.82339 204.395978 
L 17.30553 203.967094 
L 17.805309 203.663501 
L 17.805309 202.776817 
L 17.564239 202.261192 
L 17.429005 201.880496 
L 17.602457 201.514257 
L 18.299208 201.080554 
L 18.299208 200.352895 
L 17.734752 198.834931 
L 18.413863 198.126549 
L 21.021533 197.924153 
L 22.367996 197.403709 
L 24.537624 195.124354 
L 25.478384 194.613547 
L 27.70093 194.276222 
L 30.652565 193.153411 
L 32.928029 191.12946 
L 33.145579 188.069438 
L 34.174536 188.069438 
L 34.174536 187.336961 
L 33.310212 186.57557 
L 33.421928 185.780446 
L 34.215694 185.168442 
L 35.409284 184.913038 
L 37.367241 185.043149 
L 38.202165 185.288915 
L 42.053402 187.399607 
L 43.441024 187.404426 
L 45.525395 186.532199 
L 45.031496 184.913038 
L 46.398539 185.158804 
L 49.173781 186.276796 
L 50.746615 186.532199 
L 51.408086 186.040668 
L 51.293431 184.884125 
L 50.972985 183.539643 
L 50.993564 182.484297 
L 51.543321 182.021679 
L 53.956959 181.602432 
L 55.359279 180.604914 
L 56.399995 179.303802 
L 58.1698 176.349797 
L 59.498624 174.865566 
L 60.492302 174.851109 
L 62.882421 176.754587 
L 62.720728 173.256043 
L 65.478331 171.887466 
L 74.415553 172.219973 
L 75.250477 171.901923 
L 75.720858 171.294738 
L 76.067763 170.480338 
L 76.549902 169.776774 
L 78.687192 169.097305 
L 80.124791 168.114243 
L 81.527112 166.789037 
L 83.682041 164.196452 
L 84.716877 163.502526 
L 85.910466 163.170019 
L 87.383344 163.083279 
L 88.720987 162.673669 
L 97.296604 155.213963 
L 101.491807 149.180661 
L 103.620277 145.026742 
L 104.584556 142.352235 
L 105.225449 137.350184 
L 105.834003 134.637126 
L 106.630709 132.198747 
L 107.453875 130.51212 
L 107.071691 129.423042 
L 106.912937 127.987 
L 107.018773 126.58951 
L 107.453875 125.587172 
L 108.03597 125.466699 
L 109.617623 126.305193 
L 110.370231 126.473856 
L 111.628498 126.001601 
L 115.344501 123.240353 
L 115.344501 122.358488 
L 113.383604 122.377764 
L 109.670541 123.70297 
L 107.700824 124.049933 
L 106.592491 123.139155 
L 103.293951 118.580446 
L 102.473725 116.768528 
L 102.708915 113.82898 
L 103.884866 110.89425 
L 105.410661 108.624534 
L 106.689507 107.728212 
L 106.948216 107.390887 
L 107.289241 105.791002 
L 107.453875 105.309109 
L 107.730223 105.125989 
L 108.50635 104.836853 
L 111.460925 102.533404 
L 112.386986 101.328671 
L 110.476067 101.55998 
L 109.229559 102.55268 
L 108.012451 102.832178 
L 102.497244 96.114587 
L 101.109623 93.213591 
L 100.771537 92.114874 
L 100.974389 91.151088 
L 102.226776 90.746298 
L 103.0617 89.902985 
L 102.885308 88.066972 
L 102.309092 86.235778 
L 101.988646 85.455111 
L 102.003345 83.778123 
L 102.156219 82.97818 
L 102.60896 82.501106 
L 106.912937 79.431446 
L 106.38082 79.204957 
L 106.15151 79.002562 
L 105.931019 78.544763 
L 105.101974 79.469998 
L 104.278809 80.028994 
L 103.54972 79.845875 
L 102.973504 78.544763 
L 101.106683 79.951891 
L 99.139906 80.106097 
L 95.02996 79.431446 
L 89.814621 81.04097 
L 88.615152 81.778266 
L 87.168733 82.645674 
L 82.162125 82.587847 
L 80.671608 83.363695 
L 79.301626 84.553971 
L 76.738055 87.517613 
L 77.008523 87.821206 
L 77.184916 88.317556 
L 76.038364 89.02112 
L 75.344553 90.370421 
L 75.318095 91.898022 
L 76.200057 93.17022 
L 75.273996 94.138825 
L 74.750699 94.558072 
L 74.224461 94.789381 
L 73.351318 94.673727 
L 72.34588 93.464175 
L 70.793626 92.924455 
L 69.411885 91.811281 
L 68.57696 91.555878 
L 67.718516 91.758273 
L 67.212858 92.230529 
L 66.801275 92.770249 
L 66.286797 93.17022 
L 64.678685 93.589467 
L 60.639296 93.17022 
L 59.569181 93.840052 
L 58.563744 95.025509 
L 57.537727 95.507402 
L 56.423514 94.789381 
L 57.170243 93.690665 
L 57.246679 93.165401 
L 56.958572 92.442561 
L 57.405433 91.854652 
L 58.440269 89.936717 
L 68.474064 78.337549 
L 69.564758 77.735182 
L 70.92886 77.614709 
L 72.269444 77.209919 
L 73.680584 76.462985 
L 79.501538 71.97174 
L 80.927377 69.547818 
L 85.657637 66.487796 
L 86.254432 64.945738 
L 86.563119 62.815771 
L 86.695413 57.890822 
L 86.910024 56.507789 
L 87.383344 56.030715 
L 87.868423 56.276481 
L 88.080095 57.081242 
L 88.371142 57.837814 
L 88.979696 56.898123 
L 89.520634 55.529546 
L 89.60295 55.018739 
L 92.498727 51.558747 
L 93.307193 50.980475 
L 94.594859 50.435935 
L 95.550318 49.130005 
L 97.049655 46.055527 
L 98.681286 44.089403 
L 100.592205 42.846118 
L 102.708915 42.210019 
L 104.987319 42.007624 
L 105.589993 42.200381 
L 106.169149 42.542526 
L 106.707146 42.730464 
L 107.630267 42.104003 
L 109.20604 41.35225 
L 110.896469 40.908908 
L 113.374784 38.856043 
L 121.27129 35.617721 
L 123.729026 35.617721 
L 122.996997 33.449202 
L 120.877346 31.29514 
L 120.32465 29.878374 
L 121.656413 30.02776 
L 123.058734 30.442189 
L 124.32876 31.184304 
L 125.257761 32.307115 
L 126.674781 31.555362 
L 128.238795 32.06135 
L 129.732252 33.405831 
L 130.908202 35.174379 
L 132.037114 35.877943 
L 140.280525 35.646635 
L 143.161603 34.99126 
L 156.908461 28.302583 
L 159.924774 28.196567 
L 162.664738 29.531411 
L 164.187593 30.712049 
L 164.854945 31.902325 
L 165.669291 32.842017 
L 174.959298 38.798216 
L 176.020593 40.027043 
L 176.917255 41.516093 
L 177.449372 42.065451 
L 177.681622 41.602834 
L 177.681622 39.236088 
" clip-path="url(#p22c2ec0a2a)" style="fill: #f5f5f5; stroke: #000000"/>
    <path d="M 69.832287 37.641672 
L 70.158613 38.297047 
L 70.793626 39.015068 
L 71.190509 39.925846 
L 70.817145 41.207682 
L 70.22035 41.496818 
L 69.497141 41.198044 
L 68.015444 39.887294 
L 66.542566 37.179055 
L 65.836996 36.350199 
L 65.201983 36.181536 
L 63.102912 36.350199 
L 62.650171 36.094795 
L 61.400724 33.99856 
L 61.400724 33.18898 
L 63.326342 31.497535 
L 64.167146 31.989066 
L 64.996191 32.017979 
L 66.289737 31.858955 
L 66.824794 32.307115 
L 67.912548 33.362461 
L 68.879767 34.620202 
L 69.567698 36.051425 
L 69.832287 37.641672 
" clip-path="url(#p22c2ec0a2a)" style="fill: #f5f5f5; stroke: #000000"/>
    <path d="M 104.449322 33.18898 
L 106.560152 33.102239 
L 107.56265 33.319091 
L 108.441673 33.99856 
L 106.959975 35.598445 
L 104.455201 40.234257 
L 102.726555 41.207682 
L 100.93911 41.545007 
L 99.113448 42.455785 
L 97.41126 43.771353 
L 96.017759 45.31823 
L 95.75317 45.694107 
L 95.617935 45.9977 
L 95.570897 46.474774 
L 95.570897 47.342181 
L 95.497401 48.291511 
L 95.28279 48.397527 
L 94.968223 48.281873 
L 92.425231 50.088972 
L 91.299258 51.505738 
L 86.695413 54.218797 
L 85.936925 54.469381 
L 85.046143 54.2959 
L 83.188141 53.476681 
L 83.167562 53.746541 
L 82.735401 54.136875 
L 82.162125 54.392278 
L 81.712324 54.218797 
L 81.606488 53.534508 
L 81.650587 52.435792 
L 81.774061 51.433454 
L 81.935755 50.980475 
L 82.500211 50.469668 
L 83.335135 49.361314 
L 83.714379 48.252959 
L 82.947072 47.746972 
L 81.853438 48.281873 
L 80.265905 50.566047 
L 79.20167 50.980475 
L 79.131113 50.609417 
L 76.738055 48.556552 
L 76.535203 48.469811 
L 75.956048 48.619198 
L 75.750256 48.556552 
L 75.703218 48.238503 
L 75.797294 47.255441 
L 75.750256 46.937391 
L 75.767896 46.590428 
L 75.679699 45.72302 
L 75.441569 44.841156 
L 73.977511 43.467761 
L 71.578573 38.836767 
L 70.282088 37.236882 
L 70.282088 36.350199 
L 70.69955 35.155104 
L 70.846544 33.352823 
L 70.817145 30.769876 
L 71.17581 26.82799 
L 71.017057 25.11245 
L 70.282088 23.343903 
L 71.552114 22.418668 
L 80.806842 19.324914 
L 81.712324 19.296 
L 86.721872 20.110399 
L 88.080095 20.177864 
L 90.837698 21.724742 
L 91.546208 22.365659 
L 91.896053 23.782425 
L 92.078325 25.199191 
L 92.319395 25.844928 
L 92.254718 26.162977 
L 93.15138 26.842447 
L 94.195036 27.420719 
L 94.580159 27.454451 
L 94.653656 28.056818 
L 94.57134 28.866398 
L 94.547821 29.584419 
L 94.80947 29.878374 
L 94.877087 30.153053 
L 96.017759 31.497535 
L 96.414642 32.861292 
L 96.552816 33.868449 
L 96.855623 34.509367 
L 97.769924 34.735857 
L 98.693045 34.620202 
L 100.348195 34.114214 
L 101.244857 33.99856 
L 101.668199 33.7287 
L 102.306152 32.572156 
L 102.726555 32.307115 
L 103.220454 32.446864 
L 104.131815 33.05405 
L 104.449322 33.18898 
" clip-path="url(#p22c2ec0a2a)" style="fill: #f5f5f5; stroke: #000000"/>
   </g>
  </g>
 </g>
 <defs>
  <clipPath id="p22c2ec0a2a">
   <rect x="7.2" y="7.2" width="211.714585" height="266.112"/>
  </clipPath>
 </defs>
</svg>
