<?xml version="1.0" encoding="utf-8" standalone="no"?>
<!DOCTYPE svg PUBLIC "-//W3C//DTD SVG 1.1//EN"
  "http://www.w3.org/Graphics/SVG/1.1/DTD/svg11.dtd">
<svg xmlns:xlink="http://www.w3.org/1999/xlink" width="371.52pt" height="227.157867pt" viewBox="0 0 371.52 227.157867" xmlns="http://www.w3.org/2000/svg" version="1.1">
 <metadata>
  <rdf:RDF xmlns:dc="http://purl.org/dc/elements/1.1/" xmlns:cc="http://creativecommons.org/ns#" xmlns:rdf="http://www.w3.org/1999/02/22-rdf-syntax-ns#">
   <cc:Work>
    <dc:type rdf:resource="http://purl.org/dc/dcmitype/StillImage"/>
    <dc:date>2024-03-04T13:11:13.792475</dc:date>
    <dc:format>image/svg+xml</dc:format>
    <dc:creator>
     <cc:Agent>
      <dc:title>Matplotlib v3.8.0, https://matplotlib.org/</dc:title>
     </cc:Agent>
    </dc:creator>
   </cc:Work>
  </rdf:RDF>
 </metadata>
 <defs>
  <style type="text/css">*{stroke-linejoin: round; stroke-linecap: butt}</style>
 </defs>
 <g id="figure_1">
  <g id="patch_1">
   <path d="M 0 227.157867 
L 371.52 227.157867 
L 371.52 0 
L 0 0 
z
" style="fill: #ffffff"/>
  </g>
  <g id="axes_1">
   <g id="PatchCollection_1">
    <path d="M 278.750711 16.870812 
L 278.942176 17.317694 
L 279.707434 19.103812 
L 280.865572 21.815934 
L 282.023711 24.529508 
L 283.181849 27.24163 
L 284.33719 29.955205 
L 285.495329 32.666601 
L 286.656264 35.379449 
L 287.810207 38.093023 
L 288.969744 40.804419 
L 290.129281 43.515815 
L 291.286021 46.230841 
L 292.444159 48.941512 
L 293.605095 51.653634 
L 294.763234 54.365756 
L 295.917176 57.077878 
L 297.075314 59.791452 
L 298.233453 62.503574 
L 299.092266 64.514436 
L 299.041912 64.528955 
L 298.899242 64.547829 
L 298.857281 64.562348 
L 299.257314 64.814976 
L 300.275581 64.873051 
L 300.739955 65.038566 
L 301.025294 65.42622 
L 302.074332 67.778274 
L 303.763983 71.583666 
L 305.456432 75.386154 
L 307.151678 79.191546 
L 308.841671 82.986626 
L 308.83286 82.991199 
L 308.268967 83.283863 
L 306.986993 83.631401 
L 305.986965 83.386752 
L 305.689599 83.663411 
L 305.37241 83.720572 
L 305.057423 83.738863 
L 304.779882 83.892054 
L 304.262246 84.42708 
L 303.958273 84.653437 
L 303.290853 84.868362 
L 302.365717 85.410246 
L 301.229121 85.629744 
L 300.680647 85.872106 
L 299.687227 86.473438 
L 299.273118 86.65178 
L 295.506492 87.641806 
L 293.744328 88.469495 
L 290.709 90.605024 
L 287.953415 92.854875 
L 287.252955 93.623117 
L 286.893914 94.183293 
L 286.404914 95.164173 
L 285.519426 96.204501 
L 285.323385 96.515456 
L 285.204439 96.866423 
L 285.204439 97.155657 
L 285.272723 97.496336 
L 285.356426 97.764992 
L 285.402683 97.843874 
L 285.197831 98.361751 
L 284.589884 99.060257 
L 284.312343 100.208047 
L 283.660343 100.976288 
L 283.539194 101.48845 
L 283.752856 102.024618 
L 284.131722 102.654531 
L 284.378425 103.308451 
L 284.078857 104.465386 
L 284.514992 104.884947 
L 285.402683 105.341091 
L 285.426912 105.757222 
L 285.204439 107.757851 
L 285.323385 108.986809 
L 285.58771 110.173469 
L 285.779345 110.344951 
L 285.902697 110.49014 
L 285.957764 110.652477 
L 285.929129 110.825102 
L 285.785953 111.078896 
L 285.757318 111.219512 
L 285.733088 111.449299 
L 285.651588 111.661937 
L 285.510615 111.820844 
L 285.303561 111.881435 
L 284.715439 111.951171 
L 280.60519 113.116109 
L 280.378312 113.309313 
L 280.182271 113.515092 
L 280.025879 113.644275 
L 279.787987 113.716298 
L 279.373878 113.755167 
L 279.105148 113.816901 
L 276.977334 114.652593 
L 275.924441 115.321375 
L 275.946468 115.943285 
L 275.924441 116.065609 
L 275.860563 116.101049 
L 275.794482 116.101049 
L 275.761441 116.11934 
L 275.774657 116.444014 
L 275.686549 116.485169 
L 275.536765 116.394855 
L 275.373765 116.327406 
L 275.175521 116.219943 
L 274.964062 116.030169 
L 274.708548 115.962719 
L 274.367129 116.223373 
L 274.171088 116.326262 
L 272.801005 116.610923 
L 270.666584 117.795296 
L 270.322961 118.133688 
L 270.184191 118.534957 
L 270.336178 119.082558 
L 270.57407 119.382081 
L 270.571867 119.570712 
L 269.999164 119.782207 
L 267.135647 120.056579 
L 266.622416 120.229205 
L 266.159848 120.47614 
L 265.750145 120.757371 
L 265.100347 121.525613 
L 264.558481 121.558766 
L 264.349224 121.645651 
L 264.269927 121.820563 
L 263.968156 121.835425 
L 262.602479 122.443616 
L 262.219208 122.676832 
L 261.531964 122.452762 
L 260.774234 122.761431 
L 260.069368 123.22329 
L 259.538516 123.461079 
L 254.152901 124.926683 
L 248.238637 126.042463 
L 243.099725 127.487489 
L 240.192154 127.766434 
L 237.632611 128.837629 
L 236.89911 129.259476 
L 234.892445 131.004025 
L 234.480539 131.245243 
L 233.376984 131.449879 
L 231.795441 132.301576 
L 230.055304 133.532821 
L 229.663223 133.556828 
L 229.154398 133.351049 
L 228.482572 133.50767 
L 227.343774 134.028977 
L 226.830543 134.182168 
L 226.597057 134.223324 
L 226.328327 134.237042 
L 226.165326 133.656288 
L 226.002326 133.33733 
L 225.764434 133.365911 
L 225.359136 133.503097 
L 223.630013 133.660861 
L 219.74444 134.969844 
L 213.777311 136.512044 
L 210.592199 138.302322 
L 209.437982 138.769897 
L 208.208872 138.96996 
L 207.658196 139.251192 
L 206.594289 140.010288 
L 204.3233 141.064334 
L 203.277015 141.814284 
L 203.052339 142.712853 
L 202.781406 142.665981 
L 202.371703 142.44534 
L 201.838648 142.261282 
L 201.202066 142.329875 
L 200.640376 142.628255 
L 200.239484 143.007803 
L 198.889226 144.967277 
L 198.398022 145.957302 
L 198.1359 147.124527 
L 198.345157 147.268572 
L 198.360576 147.589816 
L 198.292292 147.921349 
L 198.228414 148.101977 
L 197.900211 148.323761 
L 196.790047 148.781048 
L 196.549952 148.95596 
L 196.391358 149.628172 
L 196.005884 149.869391 
L 195.516884 149.964278 
L 195.069734 150.194064 
L 194.94418 150.392984 
L 194.891315 150.635346 
L 194.884707 151.267545 
L 194.798802 151.41845 
L 194.607166 151.569354 
L 194.419936 151.757985 
L 194.13799 152.535373 
L 193.671016 152.837182 
L 192.651164 153.28075 
L 191.045392 155.311103 
L 190.536567 155.617486 
L 190.380175 155.670074 
L 190.05858 155.914722 
L 189.895579 156.001607 
L 189.719363 156.03476 
L 189.507903 156.001607 
L 186.349224 155.933013 
L 185.897669 156.088491 
L 184.688384 157.152826 
L 184.428465 157.255716 
L 184.203789 157.269434 
L 183.987923 157.318592 
L 183.750031 157.536947 
L 183.254423 156.927612 
L 182.305057 156.753843 
L 180.216892 156.768705 
L 180.296189 156.878454 
L 180.419541 157.152826 
L 179.296161 157.173404 
L 176.170522 158.093694 
L 176.302684 157.412336 
L 175.868751 156.968768 
L 175.26521 156.658956 
L 174.862115 156.367436 
L 174.677088 156.576645 
L 173.930371 156.214245 
L 171.518408 155.617486 
L 171.106502 155.846129 
L 169.670338 156.288554 
L 169.198959 156.367436 
L 168.8245 156.625803 
L 167.450011 158.304045 
L 166.216496 158.955679 
L 162.055586 160.396132 
L 161.471869 160.789399 
L 159.266961 163.151285 
L 155.7977 166.272268 
L 154.773442 166.923901 
L 148.51115 168.869656 
L 141.610074 170.339833 
L 139.237761 171.940337 
L 135.894054 173.232172 
L 135.438094 173.319057 
L 134.898431 173.239032 
L 133.933646 172.937222 
L 133.297064 172.934936 
L 132.722158 173.097273 
L 131.550319 173.609434 
L 131.004048 173.71804 
L 125.400365 173.703178 
L 124.224121 173.508831 
L 123.635998 173.181871 
L 123.276957 173.062976 
L 123.118363 173.211594 
L 122.995011 173.277901 
L 122.274726 173.508831 
L 119.942061 173.892952 
L 115.320786 174.10216 
L 114.849407 174.211909 
L 113.963919 174.581168 
L 113.565229 174.661194 
L 112.428633 174.608606 
L 111.933025 174.658907 
L 111.609227 174.870402 
L 107.882249 175.714096 
L 106.970329 176.194247 
L 104.366732 178.897956 
L 103.62442 179.459275 
L 103.236744 179.853685 
L 102.893122 180.896299 
L 101.611147 182.559679 
L 100.769714 183.351929 
L 99.747658 183.813788 
L 95.09995 184.966151 
L 94.031638 185.543476 
L 93.060245 186.397459 
L 92.69019 186.870751 
L 92.553623 187.115399 
L 92.399433 187.394344 
L 92.384014 187.437786 
L 92.205595 187.927083 
L 92.135109 188.427812 
L 92.088852 188.507837 
L 91.45227 190.17922 
L 91.395 190.460452 
L 91.540378 191.600239 
L 91.447864 192.008368 
L 90.925823 192.169561 
L 90.342106 192.070101 
L 89.716538 191.807161 
L 89.302429 191.439046 
L 89.346484 191.017198 
L 89.79143 190.844573 
L 90.342106 190.892588 
L 90.813485 190.838857 
L 91.011729 190.355276 
L 90.905999 190.344987 
L 90.49189 189.78824 
L 90.456647 189.673919 
L 90.403782 189.566456 
L 90.443431 189.439559 
L 90.443431 189.335526 
L 90.27162 189.292084 
L 90.113025 189.349245 
L 90.090998 189.473856 
L 90.113025 189.605325 
L 90.086593 189.673919 
L 89.894957 190.000879 
L 89.809052 190.058039 
L 89.672484 190.029459 
L 89.419173 189.897989 
L 89.25397 189.868265 
L 88.646023 189.900275 
L 88.361874 189.98716 
L 88.240725 190.15407 
L 88.051293 190.586206 
L 87.608549 190.956608 
L 87.108535 191.048065 
L 86.742886 190.634221 
L 86.386047 190.842286 
L 86.273709 191.086935 
L 86.392656 191.78544 
L 86.597507 191.603669 
L 86.760507 191.560227 
L 87.595333 191.647111 
L 87.720887 191.745428 
L 87.668022 192.081533 
L 87.500616 192.397061 
L 87.108535 192.718305 
L 86.650372 192.911509 
L 86.297939 192.848632 
L 85.520384 192.529674 
L 85.282492 192.37877 
L 85.121695 192.148983 
L 85.123897 192.0198 
L 85.060019 191.922626 
L 84.711991 191.78544 
L 84.046774 191.720277 
L 83.498301 191.908908 
L 82.493867 192.57083 
L 82.465232 192.443933 
L 82.361705 192.280453 
L 82.30884 192.169561 
L 82.434394 191.882614 
L 82.262583 191.500779 
L 81.927772 191.120088 
L 81.568731 190.844573 
L 80.451959 190.437587 
L 79.321971 190.391859 
L 78.297713 190.615929 
L 77.487118 191.017198 
L 76.055359 192.248443 
L 74.513465 193.931258 
L 74.456195 194.083306 
L 74.257952 194.426271 
L 74.042086 194.589751 
L 73.940762 194.199914 
L 73.810802 194.165618 
L 73.174221 194.415982 
L 72.385652 194.612616 
L 70.632298 195.465456 
L 70.03096 195.527189 
L 69.489094 195.465456 
L 68.980269 195.474601 
L 67.969228 196.023345 
L 67.372294 196.050783 
L 66.83924 195.858722 
L 66.530861 195.465456 
L 66.898713 195.496322 
L 67.561727 195.626649 
L 67.936187 195.657516 
L 68.165268 195.463169 
L 68.154255 195.092767 
L 67.969228 194.861837 
L 67.658646 195.081335 
L 66.949375 194.988734 
L 66.079306 195.341988 
L 64.482345 196.231411 
L 63.706993 196.439476 
L 63.257641 196.456625 
L 62.570397 196.219979 
L 61.75099 196.57209 
L 61.341287 196.615532 
L 60.821449 196.274853 
L 60.343462 195.287114 
L 59.946975 195.081335 
L 59.38969 195.002453 
L 58.944744 194.803533 
L 58.182608 194.295945 
L 57.746472 194.07759 
L 57.237647 193.894675 
L 56.671552 193.767778 
L 56.06801 193.719763 
L 55.697956 193.589437 
L 54.660482 192.96867 
L 54.118616 192.760604 
L 53.160439 192.780039 
L 52.904925 192.664574 
L 52.49302 192.358192 
L 52.228695 192.224436 
L 51.984195 192.169561 
L 51.636167 192.30789 
L 50.094273 193.877527 
L 49.9533 194.021573 
L 49.57884 194.223922 
L 49.010542 194.295945 
L 48.395988 194.203344 
L 48.239595 193.938118 
L 48.752826 191.688267 
L 48.77265 190.602211 
L 48.534758 189.63162 
L 47.986284 188.733051 
L 47.166878 187.95795 
L 47.061148 187.669859 
L 46.975243 187.320035 
L 46.783607 187.093678 
L 46.591972 186.911906 
L 46.506066 186.694695 
L 46.46862 186.141378 
L 46.36289 185.612069 
L 46.186674 185.118199 
L 45.935566 184.671201 
L 44.979591 183.562281 
L 44.827605 183.231891 
L 44.787956 183.013537 
L 44.45755 182.350471 
L 44.199834 181.634817 
L 44.087496 181.40846 
L 42.464102 179.346097 
L 41.853952 177.34661 
L 42.212993 176.46862 
L 42.448683 175.518606 
L 42.60948 170.528464 
L 43.162359 169.65619 
L 43.265887 169.403539 
L 43.314346 169.192044 
L 43.428887 169.015988 
L 43.717441 168.869656 
L 43.360603 167.983663 
L 43.450914 166.032192 
L 43.331968 165.034164 
L 42.437669 163.304476 
L 42.318723 163.004954 
L 42.03898 160.700228 
L 41.880385 160.445291 
L 40.105103 158.519416 
L 39.495453 157.020284 
L 38.923646 155.751951 
L 38.313366 154.867949 
L 38.008415 152.754272 
L 37.779398 151.754845 
L 37.512096 150.909002 
L 37.015318 149.486165 
L 36.243662 146.877592 
L 36.025594 146.313986 
L 35.893432 145.442855 
L 35.552012 144.631171 
L 35.455093 143.734889 
L 35.384607 143.481094 
L 35.23262 143.325617 
L 34.737011 142.960931 
L 34.626876 142.799737 
L 34.677538 142.465918 
L 34.807498 142.328732 
L 35.010147 142.379033 
L 35.285485 142.607677 
L 35.569634 143.165567 
L 35.893432 144.449399 
L 36.309743 144.806083 
L 36.322959 143.990969 
L 36.270094 143.611421 
L 36.107094 143.269599 
L 36.503581 142.111521 
L 36.204013 141.177512 
L 35.675364 140.326959 
L 35.384607 139.418101 
L 35.44408 139.215752 
L 35.695188 138.928805 
L 35.754661 138.763038 
L 35.723823 138.590412 
L 35.65554 138.509244 
L 35.587256 138.461229 
L 35.470512 138.119407 
L 35.285485 137.977648 
L 35.100458 137.886191 
L 35.018958 137.787874 
L 34.955079 137.643829 
L 34.822917 137.507786 
L 34.690755 137.319155 
L 34.485903 136.361139 
L 34.45947 136.050184 
L 34.164308 135.062445 
L 32.873523 133.416212 
L 32.57836 132.398749 
L 32.523292 131.811136 
L 32.569549 131.504754 
L 32.781009 131.552769 
L 32.906563 131.772267 
L 32.860306 131.959754 
L 32.776604 132.181538 
L 32.781009 132.493636 
L 32.974847 133.014943 
L 33.30305 133.587695 
L 33.741389 134.09757 
L 34.256822 134.429103 
L 34.287659 134.023261 
L 34.45947 133.086966 
L 34.437443 132.515358 
L 34.148889 131.509327 
L 34.029943 130.578748 
L 33.891172 130.23121 
L 33.659888 129.933974 
L 32.970442 129.264049 
L 32.675279 128.900506 
L 32.483644 128.43293 
L 32.410954 127.767578 
L 32.543117 126.251672 
L 32.410954 125.763518 
L 32.047508 125.298229 
L 31.098142 124.867236 
L 30.230276 124.110427 
L 29.684005 123.753743 
L 29.089275 123.461079 
L 28.512166 123.250727 
L 27.91303 123.111255 
L 27.37557 123.111255 
L 26.983488 123.349044 
L 26.833704 123.922939 
L 26.536339 124.001821 
L 25.921784 123.768605 
L 25.38873 123.301029 
L 25.353486 122.676832 
L 25.175067 122.286995 
L 25.479041 122.256129 
L 26.379947 122.466481 
L 26.842515 122.397888 
L 27.137678 122.205827 
L 27.302881 121.909734 
L 27.388786 121.525613 
L 27.362354 121.22952 
L 27.084813 120.813389 
L 27.018732 120.469281 
L 27.723597 119.144292 
L 27.943868 118.840196 
L 28.084841 119.20031 
L 28.016557 119.663313 
L 27.820516 120.097735 
L 27.591435 120.374394 
L 28.109071 120.614469 
L 28.520977 120.873979 
L 29.617924 121.813704 
L 29.750086 122.013767 
L 29.807357 122.379596 
L 29.734667 122.904333 
L 29.827181 123.088391 
L 30.177411 123.250727 
L 30.203844 123.02437 
L 30.1686 122.876895 
L 30.089303 122.772863 
L 29.992384 122.676832 
L 30.397682 122.24241 
L 30.560682 121.607925 
L 30.501209 119.457534 
L 30.243492 118.462935 
L 29.807357 117.670685 
L 29.697221 117.276276 
L 29.710438 116.971037 
L 29.772113 116.679516 
L 29.807357 116.327406 
L 29.787532 115.997016 
L 29.728059 115.673485 
L 29.617924 115.335093 
L 29.230248 114.632015 
L 28.128895 113.116109 
L 28.186166 112.886323 
L 28.512166 112.491913 
L 28.254449 112.211825 
L 28.009949 111.881435 
L 27.83153 111.491598 
L 27.758841 111.027452 
L 28.04299 110.030567 
L 27.976909 109.612149 
L 27.388786 109.405227 
L 27.58703 108.974234 
L 27.857962 108.736445 
L 28.177355 108.542098 
L 28.512166 108.254007 
L 28.736842 107.968203 
L 28.846977 107.723555 
L 28.877815 107.422889 
L 28.886626 106.980464 
L 29.027599 106.19393 
L 29.388843 105.649759 
L 29.86683 105.265638 
L 30.362438 104.959256 
L 30.855844 104.548841 
L 31.135588 104.054972 
L 31.256737 103.413627 
L 31.485818 99.568988 
L 31.399913 98.287442 
L 30.659804 94.341057 
L 30.554074 92.251257 
L 30.521033 92.05691 
L 30.362438 91.478442 
L 30.384465 91.49902 
L 30.397682 91.416708 
L 30.395479 91.276093 
L 30.362438 91.111469 
L 30.283141 90.963994 
L 30.062871 90.67819 
L 30.02983 90.613027 
L 31.324503 90.156186 
L 32.275631 89.75111 
L 32.972193 89.26618 
L 33.20438 88.816096 
L 33.173608 88.361655 
L 33.100875 87.934801 
L 33.20438 87.567474 
L 33.492516 87.442612 
L 34.544352 87.248059 
L 34.941588 87.105774 
L 36.124903 86.405966 
L 36.709567 85.967496 
L 37.048057 85.48547 
L 37.747416 83.650287 
L 37.856516 83.118897 
L 37.892883 82.525076 
L 38.02716 82.138874 
L 38.374042 81.992234 
L 39.051021 82.118548 
L 40.137825 82.449578 
L 40.599402 82.362464 
L 40.764451 81.838334 
L 40.753684 81.794087 
L 40.593807 81.137073 
L 40.347633 80.708767 
L 40.288886 80.322565 
L 40.67773 79.738907 
L 40.921107 79.563229 
L 41.170079 79.454338 
L 41.374292 79.306245 
L 41.488986 79.011513 
L 41.45262 78.647089 
L 41.269388 78.342193 
L 40.991043 78.124411 
L 39.986763 77.845649 
L 39.674849 77.590117 
L 39.347549 76.563634 
L 38.776872 75.46746 
L 38.67057 74.991242 
L 38.852403 74.292885 
L 39.288803 73.208326 
L 39.406295 72.669677 
L 39.409093 72.056981 
L 39.255234 71.437026 
L 39.042629 70.969519 
L 38.933529 70.51653 
L 39.092983 69.934324 
L 39.660862 68.82218 
L 39.814721 68.251589 
L 39.789544 67.602596 
L 39.954593 67.047976 
L 40.515479 66.603699 
L 41.231622 66.300255 
L 41.849856 66.160874 
L 42.456899 65.861785 
L 42.553411 65.298454 
L 42.273667 64.695921 
L 41.742154 64.290845 
L 40.195172 63.782685 
L 40.272102 63.653468 
L 41.57291 62.060749 
L 43.931148 60.042628 
L 46.311766 58.555897 
L 46.903424 58.330855 
L 47.500676 58.24955 
L 47.993025 58.364249 
L 48.913381 58.400546 
L 49.352579 58.513793 
L 51.34715 59.370405 
L 52.496897 60.048436 
L 54.385166 62.155122 
L 55.50414 63.037868 
L 56.045444 63.228065 
L 56.536394 63.232421 
L 57.549066 63.117722 
L 58.620484 63.213546 
L 59.09325 63.191768 
L 59.728268 63.003023 
L 59.889121 63.077069 
L 59.889121 63.384869 
L 59.819185 63.943845 
L 59.926886 64.168887 
L 60.016404 64.303912 
L 60.177257 64.389574 
L 60.497563 64.459264 
L 61.135378 64.364891 
L 61.557791 63.9482 
L 61.904673 63.399388 
L 62.315896 62.914458 
L 62.90056 62.605206 
L 63.362137 62.656022 
L 64.401385 63.188864 
L 65.10494 63.290496 
L 65.622466 63.050935 
L 66.033689 62.545679 
L 66.429526 61.850226 
L 66.82816 61.565656 
L 67.379255 61.635347 
L 68.520609 61.964925 
L 69.035337 61.930079 
L 71.113832 61.449505 
L 73.733631 61.175099 
L 75.385517 61.238982 
L 77.243014 61.620828 
L 78.005315 61.575819 
L 79.70196 60.93699 
L 80.292219 60.807772 
L 85.775193 60.844069 
L 89.116381 60.867029 
L 89.789514 60.871655 
L 94.338145 60.903596 
L 95.873937 61.212848 
L 100.274303 63.766715 
L 101.51077 64.173243 
L 107.246912 64.761256 
L 113.973347 65.447998 
L 119.092654 65.972129 
L 125.661034 66.644352 
L 130.134134 66.028752 
L 136.148621 65.202629 
L 137.1529 65.781932 
L 138.901298 68.206581 
L 140.904262 70.985489 
L 143.192564 74.152052 
L 143.53525 74.369835 
L 143.91483 74.386176 
L 147.481033 74.539705 
L 148.362226 74.416295 
L 149.162292 74.093976 
L 152.482849 72.155709 
L 155.56842 70.359727 
L 155.595316 70.323832 
L 156.390867 69.262101 
L 158.200808 64.298105 
L 159.480635 60.793253 
L 159.938015 59.923574 
L 162.570402 56.653927 
L 166.6099 51.637663 
L 170.888578 46.316503 
L 173.346125 43.27335 
L 175.445601 40.659957 
L 176.054043 40.238184 
L 179.522864 38.477773 
L 184.172202 36.122814 
L 189.358648 33.492724 
L 194.002392 31.141395 
L 197.893625 29.169734 
L 199.09932 28.556313 
L 201.615613 27.646707 
L 205.108212 27.157421 
L 209.444238 26.551985 
L 213.780263 25.946549 
L 218.116289 25.341112 
L 222.449517 24.735676 
L 226.785542 24.13024 
L 231.121568 23.523352 
L 235.457594 22.919367 
L 239.793619 22.313931 
L 244.125449 21.706317 
L 248.46567 21.102333 
L 252.798898 20.496896 
L 257.132126 19.890734 
L 261.468152 19.285298 
L 265.804178 18.679862 
L 270.140203 18.073699 
L 274.476229 17.468263 
L 278.750711 16.870812 
" clip-path="url(#pbfbfb78301)" style="fill: #f5f5f5; stroke: #000000"/>
    <path d="M 313.117785 210.010066 
L 313.65222 209.79853 
L 314.161421 209.840512 
L 314.464099 209.994034 
L 314.73945 210.091766 
L 314.794337 210.287055 
L 313.907298 210.220035 
L 313.517006 210.190807 
L 313.117785 210.010066 
" clip-path="url(#pbfbfb78301)" style="fill: #f5f5f5; stroke: #000000"/>
    <path d="M 307.832766 208.503647 
L 308.246824 208.503081 
L 308.640703 208.78813 
L 308.753196 209.244392 
L 308.734372 209.643644 
L 308.340557 209.757754 
L 307.928084 209.814838 
L 307.121081 209.492003 
L 306.577817 209.017114 
L 305.997552 208.846207 
L 306.091066 208.58013 
L 306.503381 208.446827 
L 306.857881 208.485203 
L 307.139629 208.370816 
L 307.439803 208.351569 
L 307.832766 208.503647 
" clip-path="url(#pbfbfb78301)" style="fill: #f5f5f5; stroke: #000000"/>
    <path d="M 287.157232 207.776104 
L 287.973977 208.128744 
L 289.471079 207.782475 
L 289.871972 207.876219 
L 289.874175 207.876219 
L 290.012945 208.155164 
L 289.655057 208.289408 
L 289.37483 208.597897 
L 289.586247 208.76293 
L 289.84402 209.235597 
L 289.073086 209.09551 
L 288.746203 209.167365 
L 288.277213 209.310956 
L 287.034887 209.07774 
L 285.831805 209.010565 
L 285.691166 208.774398 
L 285.402683 208.351797 
L 285.233074 208.343795 
L 285.061263 208.335792 
L 284.490763 208.511847 
L 284.197803 208.562149 
L 284.087667 208.463832 
L 283.783694 208.008832 
L 283.724221 207.871646 
L 283.578843 207.904799 
L 283.029344 207.671433 
L 282.679137 207.743422 
L 282.369557 207.837349 
L 282.193341 207.692161 
L 282.085408 207.601847 
L 281.183254 207.180676 
L 281.06502 206.802356 
L 281.461401 206.68257 
L 281.876151 206.625539 
L 282.535188 206.631661 
L 283.3294 206.818527 
L 284.171151 207.407252 
L 284.754639 207.617987 
L 285.197727 207.592933 
L 285.991078 207.732397 
L 287.157232 207.776104 
" clip-path="url(#pbfbfb78301)" style="fill: #f5f5f5; stroke: #000000"/>
    <path d="M 47.338689 194.488005 
L 47.69773 194.672063 
L 47.741784 194.768093 
L 47.880554 195.072189 
L 47.838703 195.474601 
L 47.523716 195.657516 
L 47.336486 195.586637 
L 47.019297 195.248244 
L 46.862905 195.081335 
L 46.547918 195.160217 
L 46.358485 195.069903 
L 46.287998 194.697214 
L 46.490647 194.57146 
L 46.72854 194.508583 
L 47.338689 194.488005 
" clip-path="url(#pbfbfb78301)" style="fill: #f5f5f5; stroke: #000000"/>
    <path d="M 346.202562 198.146287 
L 346.913618 198.052214 
L 347.432217 197.728548 
L 347.722935 197.762828 
L 348.087273 197.958812 
L 347.752538 198.318219 
L 346.943552 198.542268 
L 346.361228 198.734961 
L 345.844214 198.830058 
L 345.552733 199.057038 
L 345.499405 199.799568 
L 344.353305 200.291153 
L 343.441715 200.506242 
L 342.345718 200.958919 
L 341.132249 200.851191 
L 340.120087 201.237558 
L 339.891006 201.471917 
L 339.384384 202.196717 
L 339.139883 202.354481 
L 338.439423 202.671152 
L 337.657463 203.309067 
L 337.266059 203.546879 
L 336.459833 203.477586 
L 335.201711 203.569263 
L 334.750158 203.501427 
L 334.29921 203.630702 
L 333.686362 204.150578 
L 333.082444 203.945839 
L 333.075835 203.945839 
L 332.650713 203.813226 
L 331.819748 204.012909 
L 330.661019 204.205333 
L 327.409779 204.849837 
L 326.186703 204.977812 
L 324.61031 204.811253 
L 323.130862 204.351483 
L 321.882585 204.016924 
L 321.337282 203.461498 
L 320.903685 202.916944 
L 320.458739 202.36134 
L 320.082076 201.721139 
L 319.371538 201.472689 
L 318.248277 200.720114 
L 315.443179 198.933976 
L 314.780164 198.312066 
L 314.70307 198.150872 
L 314.940962 197.957669 
L 315.666604 198.173163 
L 316.221704 198.108436 
L 316.804451 197.759892 
L 316.936613 197.662719 
L 316.98287 197.413497 
L 317.211951 196.909339 
L 317.30887 196.615532 
L 317.115584 194.974222 
L 317.513753 194.814976 
L 317.981651 194.723545 
L 319.119884 194.554019 
L 319.377043 194.12946 
L 319.667977 193.705621 
L 319.926263 193.412192 
L 320.442607 193.347961 
L 321.92631 193.645177 
L 322.804256 193.751576 
L 323.446721 193.686419 
L 324.118528 193.617474 
L 325.181026 194.600246 
L 327.045512 196.007148 
L 328.268158 196.336066 
L 329.297743 196.599919 
L 329.847124 195.916403 
L 330.106813 195.231974 
L 330.848324 195.070769 
L 331.363557 195.137527 
L 331.844184 195.368733 
L 332.747073 195.240555 
L 333.682373 195.275513 
L 334.684788 194.690798 
L 335.040099 194.561348 
L 335.687205 194.138866 
L 335.981204 193.78264 
L 336.69488 193.719763 
L 337.04271 194.078021 
L 337.428805 194.373178 
L 338.007489 194.73465 
L 338.428909 194.63774 
L 338.754555 194.442304 
L 338.890978 194.509726 
L 339.166316 194.827541 
L 339.384384 195.081335 
L 339.886601 195.098483 
L 340.501155 195.22538 
L 340.753433 195.658312 
L 341.173329 195.823252 
L 342.110213 196.251846 
L 343.211202 196.485185 
L 344.310935 197.11129 
L 344.882973 197.29043 
L 346.202562 198.146287 
" clip-path="url(#pbfbfb78301)" style="fill: #f5f5f5; stroke: #000000"/>
    <path d="M 28.128895 164.457982 
L 29.278707 163.628007 
L 29.8426 163.409652 
L 30.177411 163.690884 
L 30.093708 164.230482 
L 29.272099 165.113046 
L 29.071653 165.714378 
L 28.796315 165.980747 
L 27.298475 166.672394 
L 27.296273 166.673537 
L 27.236799 166.330572 
L 27.223583 166.260835 
L 27.223583 166.258549 
L 27.43284 165.677795 
L 28.128895 164.457982 
" clip-path="url(#pbfbfb78301)" style="fill: #f5f5f5; stroke: #000000"/>
    <path d="M 29.239059 155.40942 
L 29.437302 155.21736 
L 30.199438 156.182235 
L 30.362438 156.576645 
L 30.358033 156.881884 
L 29.992384 157.919925 
L 29.952735 158.800202 
L 30.0056 159.286069 
L 29.820573 159.4747 
L 29.071653 159.454122 
L 29.437302 158.668732 
L 28.869004 158.448091 
L 28.190571 158.086834 
L 27.946071 157.860477 
L 27.626678 157.565527 
L 27.58703 157.444346 
L 27.388786 156.856733 
L 27.631084 156.432599 
L 28.177355 155.9353 
L 28.798518 155.53746 
L 29.239059 155.40942 
" clip-path="url(#pbfbfb78301)" style="fill: #f5f5f5; stroke: #000000"/>
    <path d="M 25.875528 116.61321 
L 25.181675 117.067067 
L 25.09577 117.248838 
L 25.212513 117.294567 
L 25.225729 117.42718 
L 25.12 117.600949 
L 24.873297 117.790723 
L 24.487823 117.987357 
L 24.401918 118.129115 
L 24.699283 118.188563 
L 25.053918 118.089103 
L 25.401946 117.890183 
L 25.664068 117.930196 
L 25.661865 118.273161 
L 25.34027 119.351214 
L 25.265378 119.727333 
L 25.320446 119.961692 
L 25.260973 120.18119 
L 25.12881 120.308087 
L 25.155243 120.359532 
L 25.313838 120.308087 
L 25.283 120.47614 
L 24.736729 121.300399 
L 24.419539 121.595349 
L 24.045079 121.577058 
L 23.747714 121.332409 
L 23.432727 120.859117 
L 23.437133 120.225775 
L 23.714674 119.537559 
L 23.789566 118.090246 
L 24.115566 117.608952 
L 24.461391 117.252268 
L 24.723513 117.029341 
L 24.833648 116.792695 
L 24.952594 116.592632 
L 25.547324 116.281677 
L 25.741163 116.368561 
L 25.875528 116.61321 
" clip-path="url(#pbfbfb78301)" style="fill: #f5f5f5; stroke: #000000"/>
   </g>
  </g>
 </g>
 <defs>
  <clipPath id="pbfbfb78301">
   <rect x="7.2" y="7.2" width="357.12" height="212.757867"/>
  </clipPath>
 </defs>
</svg>
