<?xml version="1.0" encoding="utf-8" standalone="no"?>
<!DOCTYPE svg PUBLIC "-//W3C//DTD SVG 1.1//EN"
  "http://www.w3.org/Graphics/SVG/1.1/DTD/svg11.dtd">
<svg xmlns:xlink="http://www.w3.org/1999/xlink" width="321.295178pt" height="280.512pt" viewBox="0 0 321.295178 280.512" xmlns="http://www.w3.org/2000/svg" version="1.1">
 <metadata>
  <rdf:RDF xmlns:dc="http://purl.org/dc/elements/1.1/" xmlns:cc="http://creativecommons.org/ns#" xmlns:rdf="http://www.w3.org/1999/02/22-rdf-syntax-ns#">
   <cc:Work>
    <dc:type rdf:resource="http://purl.org/dc/dcmitype/StillImage"/>
    <dc:date>2024-03-04T13:11:13.818374</dc:date>
    <dc:format>image/svg+xml</dc:format>
    <dc:creator>
     <cc:Agent>
      <dc:title>Matplotlib v3.8.0, https://matplotlib.org/</dc:title>
     </cc:Agent>
    </dc:creator>
   </cc:Work>
  </rdf:RDF>
 </metadata>
 <defs>
  <style type="text/css">*{stroke-linejoin: round; stroke-linecap: butt}</style>
 </defs>
 <g id="figure_1">
  <g id="patch_1">
   <path d="M 0 280.512 
L 321.295178 280.512 
L 321.295178 0 
L 0 0 
z
" style="fill: #ffffff"/>
  </g>
  <g id="axes_1">
   <g id="PatchCollection_1">
    <defs>
     <path id="m49b738cd48" d="M 282.172723 -231.480963 
L 282.224503 -230.05042 
L 282.337927 -229.718736 
L 282.569705 -229.523777 
L 282.715183 -229.574416 
L 282.874222 -229.693417 
L 283.151616 -229.706077 
L 283.311888 -229.607331 
L 283.65709 -229.280712 
L 283.869142 -229.179434 
L 283.879005 -228.511004 
L 283.457366 -226.743713 
L 283.748322 -226.077815 
L 284.063935 -225.971473 
L 284.327767 -226.093006 
L 284.5916 -226.277838 
L 284.913377 -226.358859 
L 285.175977 -226.234795 
L 285.27214 -225.974005 
L 285.326386 -225.677769 
L 285.452138 -225.444831 
L 285.979803 -225.249872 
L 286.18939 -225.698025 
L 286.268293 -226.422158 
L 286.406374 -227.057673 
L 286.958697 -226.786756 
L 288.245805 -226.718394 
L 288.722923 -226.376583 
L 289.066892 -225.761323 
L 289.172918 -225.434703 
L 289.208671 -225.062509 
L 289.142097 -224.799188 
L 289.01881 -224.601697 
L 288.94114 -224.371291 
L 289.005249 -224.009224 
L 289.230863 -223.662349 
L 289.828801 -223.287623 
L 290.090168 -223.001514 
L 290.43537 -222.335616 
L 290.640025 -222.039379 
L 290.926049 -221.781122 
L 291.217005 -221.624142 
L 292.099734 -221.294991 
L 292.255075 -221.105096 
L 292.629865 -220.137897 
L 292.78274 -219.454274 
L 292.612605 -218.93776 
L 291.904942 -217.821177 
L 291.45618 -216.664083 
L 291.330428 -216.046291 
L 291.315634 -215.413307 
L 291.636178 -214.965155 
L 293.584101 -214.086573 
L 294.084643 -213.653613 
L 294.474228 -213.220652 
L 294.90573 -212.858585 
L 295.524627 -212.638307 
L 295.968458 -212.045834 
L 296.441877 -211.709087 
L 296.78338 -211.311573 
L 296.838859 -210.539333 
L 296.68845 -209.169557 
L 296.77475 -208.582148 
L 297.401044 -207.070583 
L 297.603234 -206.784475 
L 298.26898 -206.181874 
L 298.451443 -205.971724 
L 298.917466 -204.872864 
L 299.286092 -204.442435 
L 299.93581 -204.35635 
L 299.939509 -203.713238 
L 300.108411 -203.267618 
L 300.129175 -203.027392 
L 300.13697 -202.937214 
L 300.145397 -202.839721 
L 299.753347 -202.244716 
L 299.383488 -201.902905 
L 298.448978 -201.216751 
L 298.143228 -201.077495 
L 297.825149 -200.864812 
L 296.663792 -199.543142 
L 296.275441 -198.55822 
L 296.012841 -198.132855 
L 295.524627 -197.829023 
L 295.162166 -197.760661 
L 294.728198 -197.322636 
L 294.415051 -197.178316 
L 294.04889 -197.198571 
L 293.258625 -197.355551 
L 292.929451 -197.297317 
L 292.597811 -197.163124 
L 291.996174 -197.044123 
L 291.673164 -196.932718 
L 291.382208 -196.676993 
L 290.934679 -195.988307 
L 290.583313 -195.77056 
L 290.292357 -195.778156 
L 290.043319 -195.846518 
L 289.820171 -195.768028 
L 289.609352 -195.337599 
L 289.588393 -194.985661 
L 289.777021 -194.851468 
L 290.075374 -194.851468 
L 290.403315 -194.899575 
L 290.748517 -194.600806 
L 290.928515 -193.828567 
L 291.00225 -193.088093 
L 291.073993 -192.36764 
L 291.305771 -191.630847 
L 291.649739 -190.952289 
L 292.091104 -190.337029 
L 292.622468 -189.797727 
L 293.386843 -188.44061 
L 293.179722 -187.708881 
L 292.851781 -187.022727 
L 291.177553 -184.412303 
L 291.1418 -184.252791 
L 291.224402 -183.97681 
L 291.192347 -183.827426 
L 291.059198 -183.713489 
L 290.694271 -183.553977 
L 290.585779 -183.422316 
L 290.546327 -183.077973 
L 290.593176 -182.761481 
L 290.588245 -182.447521 
L 290.387288 -182.113306 
L 289.779487 -182.619693 
L 289.555106 -182.272818 
L 289.666063 -180.186504 
L 289.63894 -179.885204 
L 289.4836 -179.426924 
L 289.133466 -178.664812 
L 289.21237 -178.474916 
L 289.611817 -178.325532 
L 290.008799 -178.323 
L 290.427972 -178.376171 
L 290.817557 -178.307809 
L 291.140567 -177.935614 
L 291.281113 -177.540633 
L 291.552343 -173.560432 
L 291.470974 -172.664127 
L 291.155361 -171.739971 
L 291.157827 -171.347521 
L 291.426591 -170.810751 
L 291.520289 -170.461344 
L 291.440153 -170.079022 
L 291.303305 -169.689104 
L 291.080157 -168.438329 
L 290.141948 -166.200099 
L 290.055648 -165.387348 
L 290.090168 -164.561937 
L 290.270166 -164.164423 
L 290.940843 -163.516248 
L 291.217005 -163.179501 
L 291.515357 -162.37941 
L 291.936996 -160.672886 
L 292.398087 -159.946221 
L 293.236434 -159.649984 
L 294.994496 -160.186754 
L 295.92654 -159.857603 
L 296.325988 -159.870263 
L 296.599684 -159.766453 
L 296.636669 -159.267662 
L 296.422151 -158.87268 
L 296.320697 -158.810669 
L 295.697228 -158.429592 
L 295.524627 -158.024482 
L 295.162166 -157.958652 
L 295.053674 -157.776353 
L 295.033948 -157.173753 
L 294.823128 -156.88258 
L 294.099438 -156.588876 
L 293.828208 -156.338214 
L 293.454651 -155.773593 
L 292.965204 -155.277334 
L 292.420279 -154.930459 
L 291.892613 -154.808926 
L 291.702753 -154.872224 
L 291.503029 -154.998821 
L 291.271251 -155.11529 
L 290.972898 -155.138077 
L 290.339206 -155.031736 
L 290.14688 -154.948182 
L 289.873184 -154.634222 
L 289.476202 -153.79362 
L 289.142097 -153.560682 
L 288.901688 -153.482192 
L 288.75621 -153.393574 
L 288.650184 -153.304957 
L 288.529364 -153.223935 
L 288.386352 -153.079615 
L 288.307448 -152.912507 
L 288.194025 -152.790974 
L 287.949918 -152.780846 
L 287.848823 -152.904911 
L 287.565265 -153.446745 
L 287.398829 -153.616385 
L 287.170749 -153.679683 
L 286.990751 -153.659428 
L 286.613495 -153.55815 
L 286.423634 -153.446745 
L 286.20665 -153.261914 
L 285.999529 -153.163168 
L 285.83186 -153.32268 
L 285.730765 -153.515107 
L 285.602547 -153.6493 
L 285.437344 -153.687279 
L 285.242552 -153.603725 
L 284.904747 -153.302425 
L 284.653243 -152.970741 
L 283.920923 -151.504751 
L 283.060384 -150.213465 
L 282.73984 -149.547566 
L 282.656005 -149.119669 
L 282.796552 -147.321996 
L 282.951892 -147.056143 
L 283.595447 -146.648501 
L 284.181057 -146.104135 
L 284.384479 -145.509131 
L 284.273521 -144.82804 
L 283.620104 -143.331667 
L 283.24778 -140.619966 
L 283.276135 -140.194601 
L 283.375997 -139.784427 
L 283.560927 -139.36919 
L 283.943114 -138.805835 
L 284.017086 -138.522258 
L 283.888868 -138.180447 
L 283.171342 -137.970296 
L 282.578335 -137.213248 
L 282.143134 -136.258709 
L 281.805885 -134.873489 
L 281.487251 -133.56473 
L 281.060681 -132.625383 
L 280.382606 -132.260784 
L 279.943707 -132.192422 
L 279.743983 -131.926569 
L 279.692203 -131.541715 
L 279.706998 -131.096094 
L 279.600971 -130.541601 
L 279.29029 -130.323854 
L 278.411259 -130.192194 
L 278.091947 -129.987107 
L 277.448393 -129.435145 
L 277.147574 -129.387039 
L 276.703744 -129.538955 
L 276.361008 -129.57187 
L 276.131696 -129.381975 
L 276.028135 -128.873056 
L 276.309228 -128.095752 
L 277.06374 -127.923581 
L 277.939072 -127.915985 
L 278.570298 -127.63494 
L 279.475219 -126.353781 
L 279.608369 -126.060077 
L 279.404946 -125.794224 
L 278.528381 -125.376455 
L 278.271945 -125.103006 
L 278.40756 -124.442171 
L 279.095498 -124.133275 
L 279.975762 -123.956039 
L 280.706849 -123.685122 
L 281.058215 -123.378758 
L 282.245462 -121.912768 
L 282.340393 -121.540574 
L 282.392173 -121.175976 
L 282.537651 -120.791121 
L 282.734909 -120.626546 
L 283.166411 -120.649333 
L 283.358737 -120.550588 
L 283.494352 -120.342969 
L 283.504215 -120.21384 
L 283.459832 -120.074584 
L 283.375997 -118.839 
L 283.499284 -118.466806 
L 284.056538 -117.747736 
L 284.494204 -117.851546 
L 285.240086 -119.066874 
L 285.563096 -119.431473 
L 285.895969 -119.608708 
L 286.72322 -119.851774 
L 286.938971 -120.064456 
L 287.168283 -120.68478 
L 287.407459 -120.821505 
L 287.747729 -120.537928 
L 288.489912 -119.135236 
L 288.896757 -118.644041 
L 287.163352 -118.051568 
L 285.084745 -117.340095 
L 282.083957 -116.31213 
L 277.976058 -114.906906 
L 273.964323 -113.532066 
L 270.3545 -112.296482 
L 267.846858 -111.438156 
L 265.627705 -110.678576 
L 263.711836 -110.326637 
L 262.798284 -110.045592 
L 260.997072 -109.215118 
L 258.602852 -108.422622 
L 255.463984 -107.381997 
L 252.053885 -106.255286 
L 250.414178 -105.391897 
L 248.195025 -104.222143 
L 246.148473 -103.462563 
L 243.665487 -102.859962 
L 240.593193 -102.115573 
L 238.122536 -101.515505 
L 237.695965 -101.48259 
L 234.320387 -100.707818 
L 231.950825 -100.163452 
L 228.639355 -98.953187 
L 226.607597 -98.206267 
L 224.072831 -97.279579 
L 221.852446 -96.175655 
L 220.085753 -95.294542 
L 217.997284 -95.043881 
L 217.605233 -94.940071 
L 217.604172 -94.927723 
L 217.590439 -94.7679 
L 217.760574 -94.036171 
L 217.760574 -92.942375 
L 217.876463 -91.881495 
L 218.76659 -88.820386 
L 219.358364 -87.653164 
L 220.135068 -87.149309 
L 220.477804 -87.020181 
L 220.778622 -86.698625 
L 221.02766 -86.263132 
L 221.19533 -85.809916 
L 221.296424 -85.306061 
L 221.358068 -83.710942 
L 221.433272 -83.429898 
L 221.784638 -82.943766 
L 221.861076 -82.708296 
L 221.796967 -82.462699 
L 221.358068 -81.614501 
L 221.202727 -81.075199 
L 221.254507 -80.73592 
L 221.935047 -80.01685 
L 222.060799 -79.824423 
L 222.334495 -79.102822 
L 222.279016 -79.042056 
L 221.942445 -78.905331 
L 220.998072 -78.525541 
L 220.315066 -78.502753 
L 219.555115 -78.830705 
L 219.170969 -78.996481 
L 218.569332 -79.080035 
L 218.359745 -79.001545 
L 217.999749 -78.692649 
L 217.812354 -78.568584 
L 217.432632 -78.48503 
L 217.154005 -78.583775 
L 216.542506 -78.999013 
L 215.593201 -79.206631 
L 214.6365 -79.067375 
L 213.687195 -78.804054 
L 212.742822 -78.65467 
L 211.713382 -78.771139 
L 209.668063 -79.325632 
L 208.607801 -79.424378 
L 208.057944 -79.305377 
L 207.079051 -78.854692 
L 206.048377 -78.692649 
L 204.682365 -78.2369 
L 204.10292 -78.155878 
L 203.613473 -78.229305 
L 203.149917 -78.355901 
L 202.640745 -78.421732 
L 202.073628 -78.264752 
L 201.185967 -77.512767 
L 200.761862 -77.249446 
L 198.700515 -77.067147 
L 198.340519 -76.988657 
L 193.076195 -74.573191 
L 192.232917 -73.692078 
L 192.015933 -73.552822 
L 191.535117 -73.433821 
L 191.069095 -73.150244 
L 190.686907 -72.816029 
L 190.452663 -72.550176 
L 189.944724 -71.595636 
L 189.641439 -71.304464 
L 189.061994 -71.198123 
L 187.982006 -71.177867 
L 187.469135 -71.084186 
L 187.363565 -71.035611 
L 187.017907 -70.876567 
L 186.219012 -70.099263 
L 185.70121 -69.448556 
L 185.627238 -69.278917 
L 185.299297 -68.777594 
L 185.225325 -68.506677 
L 185.274639 -68.283866 
L 185.383131 -68.111695 
L 185.494089 -67.97497 
L 185.553266 -67.850906 
L 185.420117 -67.017899 
L 185.111902 -66.000062 
L 184.983684 -65.022735 
L 185.390529 -64.323921 
L 184.820946 -63.012379 
L 184.737111 -62.483205 
L 184.825877 -62.060372 
L 185.220394 -61.034938 
L 185.225325 -60.477913 
L 184.648345 -59.541097 
L 184.554648 -59.341074 
L 184.396841 -58.454897 
L 184.071365 -58.075107 
L 183.126993 -57.366165 
L 182.9322 -56.948396 
L 182.461247 -56.497712 
L 182.257824 -56.315413 
L 181.922486 -56.262242 
L 181.253041 -56.262242 
L 180.121273 -56.054623 
L 171.456713 -52.679555 
L 169.844129 -51.649057 
L 167.491827 -49.71466 
L 165.322497 -48.787596 
L 161.638194 -47.213108 
L 160.405331 -46.478847 
L 159.460958 -45.46101 
L 156.213598 -40.627547 
L 155.824013 -39.774285 
L 155.338265 -37.827228 
L 154.689779 -36.594176 
L 153.424862 -35.320613 
L 150.98626 -33.122894 
L 144.664139 -26.643674 
L 144.422498 -26.286671 
L 144.383047 -26.036009 
L 144.412635 -25.428345 
L 144.471813 -24.851064 
L 143.670452 -23.878801 
L 142.781558 -23.025539 
L 142.072662 -22.357109 
L 141.424176 -22.007702 
L 141.066646 -21.906424 
L 139.942275 -21.855786 
L 139.692004 -21.754508 
L 138.817904 -21.187355 
L 138.250787 -21.369654 
L 136.002045 -20.349285 
L 135.4226 -20.280922 
L 135.037947 -20.184709 
L 134.727265 -19.999878 
L 134.044259 -19.379554 
L 133.759468 -19.296 
L 133.417965 -19.356766 
L 132.061816 -19.787195 
L 131.677163 -19.982154 
L 131.346755 -20.258135 
L 130.976897 -20.668308 
L 130.663749 -20.921502 
L 130.266768 -21.078482 
L 129.635542 -21.187355 
L 128.641854 -21.498783 
L 126.807355 -22.486237 
L 125.712572 -22.691324 
L 124.824911 -22.559663 
L 124.65231 -22.600174 
L 124.501901 -22.747027 
L 124.307109 -22.883751 
L 124.080262 -22.98756 
L 122.983014 -23.114157 
L 122.76603 -23.192647 
L 122.640278 -23.344563 
L 122.504664 -23.572437 
L 122.334528 -23.777524 
L 122.115079 -23.86361 
L 121.903026 -23.754736 
L 121.054817 -23.109093 
L 120.842764 -22.992624 
L 120.290442 -22.888815 
L 119.888529 -22.668537 
L 119.474287 -22.564727 
L 119.331275 -22.509025 
L 119.306617 -22.415343 
L 119.353466 -22.103915 
L 119.331275 -22.007702 
L 118.995936 -21.91402 
L 118.54964 -21.90136 
L 118.169918 -21.817807 
L 118.026906 -21.519038 
L 117.864168 -21.688678 
L 116.547471 -21.017715 
L 116.271309 -20.979736 
L 115.257896 -21.017715 
L 113.805584 -21.688678 
L 113.563943 -21.972255 
L 113.388876 -22.3723 
L 113.42093 -22.721707 
L 113.805584 -22.858432 
L 113.472711 -23.278733 
L 112.392723 -23.731949 
L 112.160945 -24.111739 
L 111.953824 -24.367465 
L 111.475473 -24.671297 
L 110.947808 -24.927022 
L 110.055215 -25.15996 
L 109.764259 -25.415685 
L 109.458509 -25.610644 
L 108.876598 -25.549878 
L 107.611681 -25.005512 
L 106.008959 -24.699148 
L 105.868413 -24.643445 
L 105.658826 -24.418103 
L 105.523211 -24.364933 
L 105.372802 -24.392784 
L 105.148421 -24.519381 
L 105.025135 -24.547232 
L 103.228854 -24.547232 
L 102.972418 -24.592807 
L 102.183386 -24.881447 
L 101.438737 -24.848532 
L 101.206959 -24.881447 
L 100.738471 -25.104257 
L 100.011082 -25.663815 
L 99.564786 -25.868902 
L 99.399582 -26.036009 
L 99.249173 -26.344905 
L 98.98534 -26.618354 
L 98.66233 -26.810781 
L 98.334389 -26.889271 
L 97.93001 -26.909527 
L 97.752477 -26.985485 
L 97.444262 -27.390594 
L 97.316044 -27.481744 
L 97.04728 -27.621 
L 96.943719 -27.72481 
L 96.906733 -27.866598 
L 96.933856 -28.178026 
L 96.859885 -28.317282 
L 96.507286 -28.681881 
L 96.337151 -28.671753 
L 96.127564 -28.39324 
L 96.065921 -28.560348 
L 95.947566 -28.727456 
L 95.777431 -28.859116 
L 95.557982 -28.909755 
L 95.513598 -29.023692 
L 95.313875 -29.745293 
L 95.234971 -29.788336 
L 94.801004 -30.170658 
L 94.734429 -30.26434 
L 94.455802 -30.266872 
L 94.283201 -30.302319 
L 94.157449 -30.396 
L 94.009506 -30.583363 
L 94.009506 -30.753003 
L 94.169778 -31.170772 
L 94.083478 -31.251794 
L 93.839371 -31.213815 
L 93.393074 -31.072027 
L 93.166228 -31.084686 
L 92.786506 -31.365731 
L 92.51281 -31.753117 
L 92.485879 -31.772061 
L 92.199663 -31.973395 
L 91.713915 -31.753117 
L 91.410631 -32.18861 
L 90.774474 -32.479782 
L 89.134766 -32.806402 
L 88.367926 -32.773487 
L 88.116422 -32.826657 
L 87.953684 -32.940594 
L 87.835329 -33.054531 
L 87.709577 -33.107702 
L 85.672888 -33.426726 
L 84.600297 -33.426726 
L 84.368519 -33.350768 
L 84.203315 -33.18366 
L 84.075098 -33.016552 
L 83.813731 -32.8697 
L 83.451269 -32.545613 
L 83.199765 -32.436739 
L 82.972918 -32.421548 
L 82.763332 -32.451931 
L 82.38361 -32.591187 
L 82.176489 -32.743103 
L 82.028545 -32.912743 
L 81.836219 -33.049468 
L 81.22965 -33.155809 
L 80.778422 -33.376087 
L 80.063362 -33.507748 
L 79.05488 -33.86475 
L 78.623378 -33.94324 
L 78.201739 -33.885006 
L 77.20312 -33.606493 
L 77.010794 -33.517875 
L 76.746961 -33.66726 
L 75.48451 -33.710302 
L 75.040679 -33.776133 
L 74.604246 -33.743218 
L 73.899048 -33.601429 
L 72.878238 -33.393811 
L 71.857427 -33.186192 
L 70.836617 -32.978573 
L 69.813341 -32.773487 
L 68.794996 -32.565868 
L 67.774186 -32.358249 
L 66.753375 -32.153163 
L 65.730099 -31.945544 
L 64.706823 -31.737926 
L 63.686013 -31.532839 
L 62.665202 -31.32522 
L 61.644392 -31.117602 
L 60.626047 -30.912515 
L 59.605237 -30.704896 
L 58.579495 -30.497278 
L 57.558685 -30.289659 
L 56.848556 -30.145339 
L 56.399794 -30.135211 
L 55.563913 -29.970635 
L 54.592417 -29.783272 
L 54.456802 -30.099764 
L 54.437076 -30.413724 
L 54.607211 -30.765663 
L 54.062286 -31.211283 
L 53.613524 -31.753117 
L 53.12531 -32.105056 
L 52.772711 -32.272164 
L 52.425044 -32.373441 
L 51.650806 -32.436739 
L 51.243961 -32.381037 
L 50.837117 -32.277228 
L 50.425341 -32.231653 
L 50.013564 -32.34559 
L 49.722609 -32.651954 
L 49.707814 -33.001361 
L 49.759595 -33.383683 
L 49.690554 -33.776133 
L 49.441516 -34.039454 
L 48.386186 -34.444563 
L 47.816603 -34.902843 
L 47.22976 -35.56621 
L 46.778532 -36.295407 
L 46.593603 -36.95371 
L 46.450591 -37.232223 
L 45.454438 -38.293104 
L 45.109236 -38.488063 
L 43.972537 -38.794427 
L 42.532553 -39.412219 
L 41.888999 -39.829988 
L 40.939694 -40.678186 
L 40.197511 -41.070636 
L 39.884364 -41.333957 
L 39.662448 -41.696023 
L 39.398616 -42.837926 
L 39.063277 -43.491165 
L 38.579995 -44.131744 
L 37.50987 -45.278711 
L 37.176997 -45.521776 
L 35.754273 -46.091462 
L 35.450989 -46.093993 
L 35.310443 -46.200335 
L 35.209348 -46.410485 
L 35.211814 -46.838382 
L 35.162499 -47.035873 
L 34.859215 -47.347301 
L 34.104703 -47.580239 
L 33.761967 -47.787858 
L 33.55238 -48.099285 
L 33.298411 -48.787972 
L 31.569937 -51.504737 
L 31.385008 -51.71742 
L 31.163092 -51.84908 
L 30.780905 -51.919974 
L 30.647756 -51.985805 
L 30.519538 -52.132657 
L 30.3568 -52.426361 
L 29.98201 -52.930216 
L 29.824203 -53.251772 
L 29.589959 -53.48471 
L 28.953802 -53.593583 
L 28.860105 -53.649286 
L 28.682572 -53.839181 
L 28.566683 -53.907543 
L 28.485314 -53.861968 
L 28.399014 -53.78601 
L 28.169702 -53.730308 
L 27.809706 -53.593583 
L 27.624776 -53.573328 
L 27.301766 -53.684733 
L 25.247817 -55.345682 
L 25.092476 -55.679897 
L 25.028367 -56.095134 
L 24.924807 -56.449605 
L 24.665905 -56.601521 
L 24.209746 -56.662288 
L 24.111117 -56.839523 
L 24.17276 -57.102844 
L 24.19002 -57.437059 
L 24.056871 -57.788998 
L 23.647561 -58.470089 
L 23.536603 -58.773921 
L 23.556329 -59.184094 
L 23.682081 -59.642374 
L 23.879339 -60.072803 
L 24.101254 -60.386763 
L 24.148103 -60.693127 
L 23.756053 -60.875426 
L 22.962089 -61.055194 
L 22.922638 -61.202046 
L 22.910309 -61.74388 
L 22.870857 -61.981882 
L 22.789488 -62.090755 
L 22.503464 -62.338884 
L 22.397438 -62.483205 
L 22.291412 -62.842739 
L 22.249494 -63.154167 
L 22.163194 -63.463063 
L 21.909224 -63.807406 
L 22.104017 -63.787151 
L 22.708119 -63.807406 
L 21.87717 -65.13414 
L 21.243478 -65.924103 
L 21.189232 -66.453278 
L 21.189232 -66.84826 
L 21.189232 -68.334505 
L 21.189232 -69.889113 
L 21.167041 -69.957475 
L 21.171972 -71.06393 
L 21.174438 -73.565481 
L 21.181835 -76.064501 
L 21.186767 -78.56352 
L 21.189232 -81.065071 
L 21.189232 -82.143675 
L 21.189232 -82.885532 
L 21.189232 -83.404578 
L 21.189232 -84.379373 
L 21.186767 -88.070933 
L 21.184301 -91.762494 
L 21.181835 -95.454054 
L 21.17937 -99.145614 
L 21.176904 -102.837175 
L 21.174438 -106.528735 
L 21.171972 -110.222827 
L 21.169507 -113.914388 
L 21.167041 -117.603416 
L 21.164575 -121.297508 
L 21.162109 -124.986537 
L 21.161126 -126.460118 
L 21.159644 -128.680629 
L 21.157178 -132.372189 
L 21.154712 -136.066282 
L 21.152247 -139.754044 
L 21.149781 -143.445604 
L 24.116049 -143.445604 
L 27.082317 -143.445604 
L 30.046119 -143.445604 
L 33.009921 -143.445604 
L 35.973723 -143.445604 
L 38.937525 -143.445604 
L 41.903793 -143.445604 
L 44.867595 -143.445604 
L 47.833863 -143.445604 
L 50.800131 -143.445604 
L 53.763933 -143.445604 
L 56.730201 -143.445604 
L 59.696469 -143.445604 
L 62.660271 -143.445604 
L 65.626539 -143.445604 
L 68.587875 -143.445604 
L 69.359647 -143.445604 
L 69.078555 -144.336845 
L 68.67171 -145.114149 
L 68.141579 -145.818027 
L 66.842141 -147.162484 
L 66.356394 -147.848638 
L 66.13941 -148.633538 
L 66.297216 -149.603269 
L 66.760773 -150.707192 
L 67.214466 -152.514993 
L 67.643502 -154.221517 
L 67.931992 -154.927927 
L 69.01198 -156.523045 
L 69.818272 -157.710523 
L 70.013065 -158.128292 
L 70.079639 -158.546061 
L 69.845395 -159.649984 
L 69.746766 -161.146358 
L 69.502659 -161.76415 
L 68.898557 -162.402197 
L 68.380754 -163.161777 
L 68.255002 -164.258105 
L 68.415274 -167.69394 
L 68.558286 -170.84873 
L 69.071157 -172.041271 
L 69.110609 -172.289401 
L 68.999651 -172.892001 
L 68.898557 -174.72259 
L 68.693901 -175.315062 
L 68.444863 -175.780938 
L 68.262399 -176.25441 
L 68.262399 -176.874734 
L 68.388151 -177.358333 
L 68.812256 -178.33566 
L 69.473071 -179.366157 
L 69.576631 -179.654798 
L 69.579097 -180.052312 
L 69.517454 -180.642252 
L 69.524851 -180.951148 
L 69.581563 -181.222065 
L 69.840464 -181.586664 
L 70.587579 -182.176605 
L 70.816891 -182.508288 
L 70.802097 -182.801992 
L 69.749232 -185.166819 
L 69.611151 -185.792207 
L 69.70978 -189.281212 
L 69.243758 -189.35717 
L 69.108143 -189.69645 
L 69.214169 -190.640861 
L 69.194444 -191.997978 
L 69.280744 -192.436003 
L 69.433619 -192.906942 
L 69.344853 -193.266477 
L 68.881297 -193.988078 
L 68.730887 -194.403316 
L 68.568149 -195.605984 
L 69.379373 -195.578133 
L 70.498813 -195.360387 
L 71.52702 -194.980597 
L 72.06948 -194.456486 
L 72.071945 -194.243804 
L 71.938796 -193.805779 
L 71.921536 -193.580437 
L 71.980714 -193.312052 
L 72.148383 -192.818325 
L 72.192766 -192.53728 
L 72.153314 -191.721997 
L 72.308655 -191.418165 
L 72.789472 -191.489059 
L 73.270288 -191.646039 
L 73.669736 -191.633379 
L 74.552465 -191.370058 
L 75.023419 -191.301696 
L 75.908614 -191.304228 
L 76.354911 -191.245993 
L 76.892439 -191.00546 
L 77.582842 -190.559839 
L 78.184479 -190.023069 
L 78.453243 -189.524278 
L 78.369409 -189.240701 
L 78.169685 -189.025487 
L 77.992153 -188.790017 
L 77.974892 -188.443142 
L 78.110507 -188.159565 
L 78.514886 -187.792435 
L 78.68009 -187.582284 
L 78.805842 -187.151856 
L 78.835431 -186.640405 
L 78.793513 -186.116294 
L 78.702282 -185.640291 
L 78.517352 -185.245309 
L 77.752977 -184.024917 
L 77.454624 -183.705893 
L 76.460937 -183.399529 
L 76.155187 -183.13874 
L 76.357376 -182.698183 
L 76.74203 -182.515884 
L 77.735717 -182.505756 
L 78.177082 -182.429798 
L 78.709679 -182.10571 
L 79.518437 -181.353726 
L 79.996787 -181.120788 
L 80.54911 -181.072681 
L 81.057049 -181.171427 
L 82.053203 -181.548685 
L 82.287446 -181.566408 
L 82.566073 -181.543621 
L 82.817577 -181.584132 
L 82.972918 -181.786687 
L 83.049356 -182.062667 
L 83.147985 -182.295605 
L 83.290997 -182.49816 
L 83.498118 -182.688055 
L 83.712636 -182.784269 
L 84.247698 -182.90327 
L 84.499202 -183.024803 
L 84.733446 -183.265336 
L 85.16988 -183.862873 
L 85.426315 -184.10847 
L 86.343565 -184.490793 
L 88.143545 -184.495856 
L 89.068192 -184.698411 
L 90.841049 -185.58712 
L 91.839667 -185.898548 
L 92.754452 -185.817526 
L 96.167016 -186.128954 
L 97.592205 -186.435318 
L 99.853275 -187.579752 
L 100.605322 -187.706349 
L 100.896277 -187.44556 
L 100.945592 -186.89613 
L 100.916003 -186.26821 
L 100.965318 -185.766887 
L 100.952989 -185.528886 
L 100.76806 -185.361778 
L 100.269983 -185.166819 
L 99.993822 -184.949073 
L 100.124505 -184.738922 
L 100.390804 -184.528772 
L 100.51409 -184.318621 
L 100.3119 -183.867937 
L 100.033273 -183.642595 
L 99.83355 -183.369146 
L 99.858207 -182.769077 
L 100.040671 -182.272818 
L 100.580665 -181.320811 
L 100.758197 -180.890382 
L 100.726142 -180.657444 
L 100.400667 -180.267526 
L 100.304503 -180.034588 
L 100.299572 -179.806714 
L 100.368612 -179.371221 
L 101.012166 -177.370993 
L 101.236548 -176.958288 
L 101.43134 -176.745605 
L 101.599009 -176.649392 
L 101.801199 -176.62154 
L 102.104483 -176.624072 
L 102.420096 -176.558242 
L 102.572971 -176.396198 
L 102.686394 -176.18858 
L 102.895981 -175.988557 
L 104.261993 -175.327722 
L 104.681166 -174.955528 
L 104.720618 -174.828931 
L 104.731714 -174.69727 
L 104.720618 -174.56561 
L 104.513497 -173.952882 
L 104.663906 -173.618666 
L 105.025135 -173.454091 
L 105.493623 -173.471814 
L 105.715538 -173.590815 
L 105.861016 -173.755391 
L 106.028685 -173.899711 
L 106.329504 -173.942754 
L 106.585939 -174.023776 
L 106.679637 -174.25165 
L 106.748677 -174.502311 
L 106.936072 -174.659291 
L 108.028389 -174.621312 
L 108.84701 -174.092138 
L 109.601522 -173.40092 
L 110.51384 -172.866682 
L 110.952739 -172.78566 
L 112.326148 -172.775532 
L 112.589981 -172.805915 
L 113.0634 -173.031258 
L 113.238467 -173.076832 
L 113.497368 -173.031258 
L 113.618189 -172.947704 
L 113.70942 -172.831235 
L 115.011323 -171.762758 
L 115.521729 -171.565268 
L 115.861999 -171.312074 
L 116.18994 -170.549962 
L 116.609114 -170.355003 
L 116.917329 -170.31196 
L 121.035091 -170.370194 
L 121.570154 -170.162576 
L 122.053436 -169.851148 
L 122.536718 -169.61821 
L 123.39479 -169.673913 
L 123.887936 -169.435911 
L 124.169028 -169.420719 
L 124.435327 -169.534656 
L 124.903814 -169.858744 
L 125.150387 -169.965085 
L 126.038048 -170.114469 
L 126.950367 -170.139788 
L 127.517484 -169.962553 
L 127.924328 -169.646061 
L 128.289256 -169.278931 
L 128.728155 -168.939652 
L 129.581296 -168.658607 
L 131.514425 -168.524414 
L 132.411949 -168.334519 
L 132.870574 -168.063602 
L 133.277419 -167.744579 
L 133.689195 -167.552152 
L 134.174943 -167.661025 
L 134.536171 -168.020559 
L 134.813566 -168.44086 
L 135.176027 -168.747225 
L 135.787527 -168.75482 
L 136.902035 -168.633288 
L 137.915448 -168.853566 
L 138.835164 -169.387804 
L 139.668579 -170.205619 
L 140.137067 -171.155094 
L 140.23323 -173.160386 
L 140.465009 -174.127585 
L 140.829936 -174.666887 
L 141.182535 -175.006166 
L 141.429107 -175.380893 
L 141.471025 -176.036664 
L 141.175138 -177.072225 
L 141.161576 -177.538101 
L 141.483353 -177.887508 
L 141.690474 -177.917891 
L 142.215674 -177.839401 
L 142.452383 -177.849529 
L 143.354839 -178.148297 
L 144.375649 -178.236915 
L 145.058655 -178.500236 
L 145.213996 -178.523023 
L 145.620841 -177.933082 
L 145.869879 -176.813968 
L 145.97344 -175.616363 
L 145.926591 -174.790952 
L 146.503571 -172.656531 
L 150.954205 -169.891659 
L 152.071179 -167.939537 
L 152.172274 -166.959679 
L 153.33363 -163.579547 
L 153.705955 -163.078223 
L 154.988534 -162.027827 
L 155.118816 -161.921129 
L 156.142092 -160.786823 
L 156.810303 -160.564013 
L 157.873031 -160.475395 
L 158.970279 -160.526034 
L 159.723558 -160.715929 
L 160.176019 -161.085591 
L 160.438619 -161.419806 
L 160.751766 -161.612233 
L 161.354636 -161.551467 
L 161.840384 -161.366636 
L 163.196533 -160.548821 
L 163.5442 -160.105733 
L 163.634199 -159.490472 
L 163.788307 -158.968894 
L 164.320904 -158.804318 
L 164.74994 -158.880276 
L 165.108703 -158.903064 
L 166.865532 -158.730892 
L 167.084982 -158.5967 
L 167.170049 -158.389081 
L 167.218131 -158.151079 
L 167.326623 -157.930801 
L 167.906069 -157.464925 
L 168.256202 -157.614309 
L 168.6088 -157.966248 
L 169.205506 -158.120696 
L 169.664131 -157.915609 
L 170.024127 -157.558607 
L 170.440834 -157.272498 
L 171.069594 -157.27503 
L 171.545479 -157.345924 
L 172.018899 -157.313009 
L 172.467661 -157.173753 
L 172.879437 -156.943346 
L 174.859415 -155.208971 
L 175.186123 -154.682329 
L 175.650913 -153.474596 
L 175.945567 -152.922635 
L 176.750626 -152.066841 
L 176.995966 -151.606029 
L 176.979939 -150.967981 
L 176.706243 -150.562872 
L 176.320357 -150.286891 
L 176.082415 -149.937484 
L 176.247618 -149.309564 
L 176.740763 -148.663921 
L 177.265963 -148.132215 
L 177.643219 -147.552402 
L 177.724588 -146.283903 
L 177.976092 -146.056029 
L 178.336088 -146.040837 
L 178.705947 -146.207945 
L 178.937725 -146.501649 
L 179.282926 -147.208059 
L 179.593608 -147.415677 
L 180.708116 -147.172612 
L 181.664817 -146.182625 
L 183.279867 -144.055801 
L 183.701507 -143.68867 
L 183.874107 -143.422817 
L 184.084927 -142.541704 
L 184.184789 -142.432831 
L 184.505333 -142.316362 
L 184.596565 -142.212552 
L 184.581771 -142.088488 
L 184.468347 -141.820102 
L 184.463416 -141.708697 
L 184.480676 -141.599824 
L 184.447389 -141.344099 
L 184.475744 -141.207374 
L 184.569442 -141.101033 
L 184.705057 -141.05799 
L 184.83574 -141.030139 
L 184.914644 -140.974436 
L 185.140257 -140.123706 
L 185.368337 -139.986982 
L 185.833126 -139.964195 
L 186.051343 -139.873045 
L 186.327504 -139.505914 
L 187.059825 -135.896642 
L 187.446944 -134.883868 
L 188.174333 -134.167331 
L 188.48748 -133.782477 
L 188.877065 -133.696391 
L 189.311032 -133.792605 
L 189.745 -133.954648 
L 190.191247 -133.96006 
L 190.371294 -133.962244 
L 190.970466 -134.058458 
L 191.54498 -134.066053 
L 192.077576 -133.817924 
L 192.290862 -133.51156 
L 192.452367 -133.141897 
L 192.661953 -132.853257 
L 193.024415 -132.779831 
L 193.278385 -132.924151 
L 193.73701 -133.478645 
L 194.057554 -133.663476 
L 194.600014 -133.888818 
L 195.985751 -134.818038 
L 199.356398 -136.124516 
L 199.844612 -136.43088 
L 201.227884 -137.747486 
L 201.777741 -137.990552 
L 202.334995 -137.960168 
L 202.773894 -137.709507 
L 203.180739 -137.370228 
L 203.639364 -137.076523 
L 203.925388 -137.043608 
L 204.132509 -137.114502 
L 204.317438 -137.109439 
L 204.534422 -136.838522 
L 204.596065 -136.592924 
L 204.556613 -136.329603 
L 204.462916 -136.086537 
L 204.350725 -135.899174 
L 204.174426 -135.775109 
L 203.747856 -135.668768 
L 203.580186 -135.486469 
L 203.5432 -135.27885 
L 203.590049 -134.787655 
L 203.545666 -134.559781 
L 203.397722 -134.483823 
L 203.170876 -134.44078 
L 202.985946 -134.309119 
L 202.985946 -133.967308 
L 203.077178 -133.683731 
L 203.200464 -133.412814 
L 203.360737 -133.162153 
L 203.567858 -132.952002 
L 203.935251 -132.73932 
L 204.450587 -132.534233 
L 205.399892 -132.270912 
L 206.933573 -132.253188 
L 207.293569 -132.319019 
L 207.660962 -133.088727 
L 207.663428 -135.795365 
L 207.668359 -139.455276 
L 207.674523 -142.924026 
L 207.680688 -146.592799 
L 207.685619 -150.871768 
L 207.693016 -154.538009 
L 207.696715 -158.614423 
L 207.702879 -161.467913 
L 207.707811 -164.073274 
L 207.707222 -164.083746 
L 207.702796 -164.162528 
L 207.700414 -164.204934 
L 206.66974 -164.118849 
L 206.164267 -163.941613 
L 205.361673 -163.34914 
L 204.112783 -162.766796 
L 203.705938 -162.688306 
L 203.449503 -162.830094 
L 203.021699 -163.255459 
L 202.714716 -163.371928 
L 202.390474 -163.371928 
L 202.172257 -163.28331 
L 201.825822 -162.954159 
L 201.358567 -162.670582 
L 200.310634 -162.308515 
L 199.945707 -162.035067 
L 199.795297 -161.726171 
L 199.50804 -160.769099 
L 199.410644 -160.19435 
L 199.323111 -159.974072 
L 199.284892 -159.771517 
L 199.376124 -159.57909 
L 200.09365 -158.657466 
L 200.465975 -158.515678 
L 200.833368 -158.490358 
L 201.119392 -158.363762 
L 201.232815 -157.923205 
L 201.148981 -157.464925 
L 200.909805 -157.10539 
L 200.552275 -156.880048 
L 200.09365 -156.834473 
L 199.916118 -156.89524 
L 199.815023 -156.993985 
L 199.731189 -157.097794 
L 199.602971 -157.168689 
L 199.446397 -157.181348 
L 199.109826 -157.150965 
L 198.952019 -157.168689 
L 198.315862 -157.404159 
L 197.32464 -157.953588 
L 197.137245 -157.994099 
L 196.180544 -158.016887 
L 195.904382 -158.062461 
L 195.681234 -158.156143 
L 195.384114 -158.4144 
L 194.955078 -158.892936 
L 194.71467 -159.009405 
L 192.767979 -158.973958 
L 192.184835 -158.824574 
L 191.687992 -158.601763 
L 191.281147 -158.340974 
L 191.022246 -158.816978 
L 190.64499 -158.758743 
L 190.235679 -158.553657 
L 189.890478 -158.576444 
L 189.648837 -158.700509 
L 189.468839 -158.697977 
L 189.355415 -158.763807 
L 189.313498 -159.085363 
L 189.254321 -159.330961 
L 187.311329 -162.931371 
L 186.692432 -163.708675 
L 185.279571 -164.506234 
L 185.062587 -164.794875 
L 184.956561 -165.253155 
L 184.695194 -165.721563 
L 184.372184 -166.124141 
L 184.071365 -166.397589 
L 183.230553 -166.85587 
L 182.902611 -167.116659 
L 182.766997 -167.486321 
L 182.693025 -168.169944 
L 182.476041 -168.364902 
L 181.642626 -168.238306 
L 181.140851 -168.369966 
L 179.968398 -169.018142 
L 179.657717 -169.258675 
L 179.236078 -170.177767 
L 178.913068 -170.418301 
L 178.353348 -170.094214 
L 178.279376 -170.319556 
L 177.995818 -170.795559 
L 177.882394 -170.929752 
L 177.670342 -171.114583 
L 177.455824 -171.251308 
L 177.206785 -171.269031 
L 176.88994 -171.09686 
L 176.634737 -171.474118 
L 176.437479 -172.666659 
L 176.148989 -172.922384 
L 175.764336 -173.041385 
L 175.569544 -173.350281 
L 175.3353 -175.044145 
L 175.261328 -175.292275 
L 174.916126 -175.621426 
L 174.755854 -175.846769 
L 174.84462 -175.948046 
L 174.859415 -176.193644 
L 174.447638 -177.652038 
L 174.307092 -177.874848 
L 173.956959 -178.236915 
L 173.778194 -178.487576 
L 173.495868 -179.209177 
L 173.370116 -179.406668 
L 173.259159 -179.783926 
L 173.22957 -181.092937 
L 173.291213 -181.528429 
L 174.52161 -183.353954 
L 174.602979 -183.452699 
L 175.13311 -183.873001 
L 175.261328 -183.946427 
L 175.080097 -184.857923 
L 175.179959 -185.394693 
L 175.40434 -185.751696 
L 175.631187 -186.017549 
L 176.075017 -186.949301 
L 176.045429 -187.774711 
L 176.075017 -188.038033 
L 176.135428 -188.179821 
L 176.33885 -188.488717 
L 176.400493 -188.719123 
L 176.39063 -189.025487 
L 176.134195 -190.329433 
L 176.148989 -190.567435 
L 176.486794 -191.040907 
L 176.799941 -191.635911 
L 176.88994 -191.899232 
L 176.908433 -192.147362 
L 176.861584 -192.671472 
L 176.88994 -192.91707 
L 177.031719 -193.142412 
L 177.450892 -193.577905 
L 177.539658 -193.838694 
L 177.593904 -194.091888 
L 177.828148 -194.590679 
L 177.882394 -194.856532 
L 177.882394 -195.942732 
L 178.000749 -196.520013 
L 178.217733 -197.084634 
L 178.528414 -197.606213 
L 178.932793 -198.041705 
L 179.110326 -198.279707 
L 179.280461 -198.813945 
L 179.642922 -199.414014 
L 179.746483 -199.54061 
L 179.887029 -199.608973 
L 180.190313 -199.586185 
L 180.325928 -199.621632 
L 180.660034 -199.890017 
L 181.033591 -200.269808 
L 181.339341 -200.725556 
L 181.465093 -201.219283 
L 181.336876 -201.376263 
L 180.779622 -201.809224 
L 180.651404 -202.057353 
L 180.690856 -202.34093 
L 180.822772 -202.862508 
L 180.814142 -203.151149 
L 180.234696 -203.804388 
L 179.921549 -204.250008 
L 179.916618 -204.586756 
L 180.012781 -204.819694 
L 179.815523 -205.191888 
L 179.916618 -205.422294 
L 180.057164 -205.642572 
L 180.150862 -205.926149 
L 180.187848 -206.235045 
L 180.160725 -206.526217 
L 179.988124 -207.004753 
L 179.77114 -207.394671 
L 179.586211 -207.830164 
L 179.512239 -208.442892 
L 179.582512 -208.956874 
L 179.71936 -209.346792 
L 179.785934 -209.726582 
L 179.657717 -210.205118 
L 179.615799 -210.217778 
L 179.406213 -210.344374 
L 179.347035 -210.389949 
L 179.280461 -210.519078 
L 179.231146 -210.779867 
L 179.184297 -210.891272 
L 178.370608 -211.59515 
L 178.594989 -212.048366 
L 179.184297 -212.744648 
L 179.556622 -213.499165 
L 179.768674 -214.458768 
L 179.834016 -216.410889 
L 179.657717 -218.175647 
L 179.755113 -218.704822 
L 180.488666 -220.287281 
L 180.721677 -221.345629 
L 180.95099 -221.781122 
L 181.391122 -221.960889 
L 181.43797 -222.072295 
L 180.814142 -222.72047 
L 180.75743 -223.077472 
L 180.607021 -223.221793 
L 180.3999 -223.297751 
L 180.160725 -223.464858 
L 179.834016 -223.943394 
L 179.688538 -224.432057 
L 179.657717 -225.571428 
L 179.608402 -225.837281 
L 179.39635 -226.3462 
L 179.347035 -226.58167 
L 179.243475 -226.913353 
L 178.792247 -227.4324 
L 178.696084 -227.662806 
L 178.816904 -227.796998 
L 179.3532 -227.974234 
L 179.512239 -228.164129 
L 178.761425 -228.146405 
L 178.47047 -228.265406 
L 178.353348 -228.589494 
L 178.342252 -229.004731 
L 178.297869 -229.323755 
L 178.200473 -229.594672 
L 178.029105 -229.850397 
L 177.455824 -230.280826 
L 177.172265 -230.556807 
L 177.05391 -230.939129 
L 177.090896 -231.2936 
L 177.135279 -231.736688 
L 177.083499 -232.205096 
L 176.59282 -232.820356 
L 175.759404 -233.265976 
L 174.588185 -233.514106 
L 173.566142 -233.914152 
L 173.182721 -234.810456 
L 173.656141 -235.714357 
L 174.676951 -236.400511 
L 176.850488 -237.4462 
L 179.065942 -239.112213 
L 183.034528 -243.089882 
L 186.080932 -247.211871 
L 186.972292 -249.315908 
L 187.091879 -251.498436 
L 186.073535 -253.675899 
L 185.987234 -254.136711 
L 186.60983 -254.387373 
L 189.468839 -254.830461 
L 193.596463 -255.473573 
L 197.361626 -256.060982 
L 202.369427 -256.84054 
L 202.761565 -256.901584 
L 209.103411 -257.89157 
L 215.43786 -258.879025 
L 220.241094 -259.628477 
L 226.368422 -260.583016 
L 230.431938 -261.216 
L 231.055766 -258.889152 
L 232.249177 -256.463559 
L 233.766832 -254.232925 
L 235.380649 -252.48589 
L 236.163517 -251.863034 
L 237.148574 -251.265498 
L 238.202672 -250.873048 
L 239.204989 -250.865452 
L 239.710463 -251.121178 
L 240.196211 -251.475648 
L 240.70415 -251.744033 
L 241.278665 -251.744033 
L 241.557291 -251.549075 
L 242.008519 -250.931283 
L 242.263722 -250.736324 
L 242.570705 -250.685685 
L 242.772894 -250.756579 
L 242.956591 -250.880644 
L 244.190686 -251.328796 
L 244.466848 -251.389563 
L 244.636983 -251.457925 
L 244.698626 -251.554138 
L 244.775063 -251.587054 
L 244.987116 -251.460457 
L 245.075882 -251.306009 
L 245.154785 -250.860388 
L 245.236154 -250.688217 
L 245.554233 -250.475534 
L 245.861215 -250.445151 
L 246.185458 -250.480598 
L 246.545454 -250.452747 
L 246.920245 -250.255256 
L 247.433116 -249.652656 
L 247.812837 -249.407058 
L 248.730087 -249.141205 
L 249.205972 -248.736095 
L 249.371176 -248.11324 
L 249.36871 -247.199211 
L 249.547475 -246.15099 
L 250.098565 -245.401538 
L 252.394155 -243.603864 
L 252.798534 -243.444353 
L 253.279351 -243.441821 
L 253.767565 -243.619056 
L 254.581254 -244.067208 
L 255.136042 -244.115315 
L 258.691619 -243.125329 
L 258.242856 -242.132811 
L 258.240391 -240.922546 
L 258.726139 -239.960411 
L 259.739552 -239.712281 
L 260.236396 -239.922432 
L 260.580364 -240.183221 
L 260.960086 -240.347797 
L 261.56912 -240.259179 
L 262.255825 -239.85407 
L 262.50363 -239.780644 
L 262.728011 -239.800899 
L 263.186636 -239.912304 
L 263.40362 -239.902176 
L 263.676381 -239.752331 
L 263.896765 -239.631259 
L 264.774564 -238.724827 
L 265.244284 -238.367824 
L 265.725101 -238.195653 
L 266.23304 -238.129822 
L 269.341087 -238.193121 
L 270.305186 -237.950055 
L 271.170656 -237.357582 
L 271.432023 -237.018303 
L 271.895579 -235.904252 
L 272.238315 -235.367482 
L 272.562558 -235.147204 
L 273.458849 -235.073778 
L 275.510333 -234.618029 
L 277.219081 -234.471177 
L 277.519899 -234.306601 
L 277.850306 -233.944535 
L 277.939072 -233.757172 
L 278.013044 -233.390041 
L 278.151125 -233.207742 
L 278.326191 -233.144444 
L 278.740433 -233.187486 
L 278.9155 -233.152039 
L 280.02261 -232.405119 
L 281.80533 -231.718964 
L 282.172723 -231.480963 
" style="stroke: #000000"/>
    </defs>
    <g clip-path="url(#p4a153b121f)">
     <use xlink:href="#m49b738cd48" x="0" y="280.512" style="fill: #f5f5f5; stroke: #000000"/>
    </g>
   </g>
  </g>
 </g>
 <defs>
  <clipPath id="p4a153b121f">
   <rect x="7.2" y="7.2" width="306.895178" height="266.112"/>
  </clipPath>
 </defs>
</svg>
